<?xml version="1.0" ?><!DOCTYPE svg  PUBLIC '-//W3C//DTD SVG 1.1//EN'  'http://www.w3.org/Graphics/SVG/1.1/DTD/svg11.dtd'><svg enable-background="new 0 0 1024 1024" height="1024px" id="Digg" version="1.1" viewBox="0 0 1024 1024" width="1024px" xml:space="preserve" xmlns="http://www.w3.org/2000/svg" xmlns:xlink="http://www.w3.org/1999/xlink"><g id="Background"><linearGradient gradientTransform="matrix(0.9397 0.3421 0.3421 -0.9397 122.0587 586.4846)" gradientUnits="userSpaceOnUse" id="bg_1_" x1="670.1338" x2="11.7176" y1="-188.9102" y2="595.6682"><stop offset="0" style="stop-color:#141414"/><stop offset="0.1677" style="stop-color:#1D1D1D"/><stop offset="0.4413" style="stop-color:#353535"/><stop offset="0.7844" style="stop-color:#5D5D5D"/><stop offset="1" style="stop-color:#797979"/></linearGradient><circle cx="512.001" cy="512" fill="url(#bg_1_)" id="bg" r="512"/></g><linearGradient gradientTransform="matrix(1 0 0 -1 8.3398 1000.04)" gradientUnits="userSpaceOnUse" id="Shadow_1_" x1="283.5869" x2="865.5011" y1="707.9668" y2="126.0526"><stop offset="0" style="stop-color:#000000"/><stop offset="0.5523" style="stop-color:#090909;stop-opacity:0.4477"/><stop offset="1" style="stop-color:#141414;stop-opacity:0"/></linearGradient><path d="M567.477,1021.029L165.028,618.581L170,414l117.5-4l52.48-96.653l43.937,43.987  l60.643-43.987l139.003,139.091l66.248-46.729l51.522,51.582l157.638-51.582L1021,567.74c0,0-4.919,40.479-10.932,63.355  c-6.014,22.876-8.038,32.673-15.431,52.204c-7.392,19.531-8.802,23.887-14.229,35.733c-5.428,11.846-13.892,30.131-22.634,44.982  c-8.743,14.853-22.66,37.595-34.195,52.574c-11.535,14.98-23.38,30.724-38.988,46.578c-15.607,15.854-31.491,31.432-44.841,42.196  c-13.35,10.764-31.576,25.084-46.564,34.582c-14.987,9.498-31.155,19.776-48.306,28.148c-17.149,8.372-34.252,16.731-52.29,23.146  s-34.406,12.052-49.008,15.692c-14.602,3.642-27.146,6.785-40.708,9.026S581.261,1019.733,567.477,1021.029z" fill="url(#Shadow_1_)" id="Shadow"/><g id="Digg_1_"><rect fill="#FFFFFF" height="212.871" width="70.37" x="374.189" y="405.709"/><rect fill="#FFFFFF" height="61.086" width="70.37" x="374.189" y="313.347"/><path d="M687.93,405.709V618.58h100.02v26.588H687.93v65.485h171.042V405.709H687.93z M787.949,553.294h-38.444   v-89.803h38.444V553.294z" fill="#FFFFFF"/><path d="M478.769,618.581h100.997v26.588H478.769v65.485h171.042V405.709H478.769V618.581z M540.996,463.491h38.77   v89.803h-38.77V463.491z" fill="#FFFFFF"/><path d="M270.587,405.709H165.028V618.58H339.98V313.347h-69.395L270.587,405.709L270.587,405.709z    M270.587,553.294h-39.096v-89.803h39.096V553.294z" fill="#FFFFFF"/></g></svg>