<?xml version="1.0" ?><!DOCTYPE svg  PUBLIC '-//W3C//DTD SVG 1.1//EN'  'http://www.w3.org/Graphics/SVG/1.1/DTD/svg11.dtd'><svg enable-background="new 0 0 1024 1024" height="1024px" id="Soundcloud_2_" version="1.1" viewBox="0 0 1024 1024" width="1024px" xml:space="preserve" xmlns="http://www.w3.org/2000/svg" xmlns:xlink="http://www.w3.org/1999/xlink"><g id="Background"><linearGradient gradientTransform="matrix(0.9397 0.342 0.342 -0.9397 122.5555 585.9297)" gradientUnits="userSpaceOnUse" id="bg_1_" x1="669.8848" x2="11.4693" y1="-189.6504" y2="594.9741"><stop offset="0" style="stop-color:#DD3C20"/><stop offset="0.2088" style="stop-color:#E04520"/><stop offset="0.5493" style="stop-color:#E85D20"/><stop offset="0.9769" style="stop-color:#F48521"/><stop offset="1" style="stop-color:#F58721"/></linearGradient><circle cx="512.001" cy="512" fill="url(#bg_1_)" id="bg" r="512"/></g><linearGradient gradientTransform="matrix(1 0 0 -1 8.3398 1000.04)" gradientUnits="userSpaceOnUse" id="Shadow_1_" x1="309.1147" x2="833.3123" y1="617.7617" y2="93.5642"><stop offset="0" style="stop-color:#000000"/><stop offset="0.0946" style="stop-color:#090302;stop-opacity:0.9054"/><stop offset="0.249" style="stop-color:#210906;stop-opacity:0.751"/><stop offset="0.444" style="stop-color:#49150D;stop-opacity:0.556"/><stop offset="0.672" style="stop-color:#802416;stop-opacity:0.328"/><stop offset="0.9249" style="stop-color:#C63822;stop-opacity:0.0751"/><stop offset="1" style="stop-color:#DC3E26;stop-opacity:0"/></linearGradient><path d="M564.06,1021.386L179.581,636.907c0,0-40.915-55.573-3.081-110.74l3.081-6.015  l22.253,22.253l1.416-38.739l21.126-10.392l23.986,23.985l2.138-23.985l20.404,2.89l24.757,24.765L298,459l19.818-23.524  l24.275,24.276l0.823-38.502l21.333-10.049l25.046,25.046l2.704-26.08l19.26,1.034l24.275,24.274l1.048-17.06l21.109,11.087  l24.083,24.041L483.5,411.2l21.011-21.579l23.505,23.505l11.651-36.793c0,0,101.679-26.958,150,26.336h14.518l90.058,90.05  l48.167,22.014l156.38,156.398c0,0-8.438,25.252-15.02,40.148c-6.581,14.896-11.355,26.17-19.337,40.622  c-7.98,14.451-14.867,26.639-21.485,36.67c-6.618,10.03-18.844,27.735-25.894,36.636c-7.049,8.899-21.11,25.924-29.174,34.44  c-8.063,8.518-16.531,17.559-26.556,26.675c-10.025,9.116-18.114,16.94-32.303,27.749c-14.188,10.808-18.487,14.675-33.293,24.187  c-14.805,9.513-17.058,11.609-32.575,20.013c-15.519,8.402-20.83,11.505-32.854,16.99c-12.022,5.486-20.416,9.483-33.048,14.195  s-18.896,7.319-32.333,11.315c-13.436,3.995-29.362,8.62-43.17,11.436S581.629,1019.916,564.06,1021.386z" fill="url(#Shadow_1_)" id="Shadow"/><g id="Soundcloud_1_"><path d="M865.563,561.094c-16.953-83.23-99.413-71.672-117.909-63.194c0,0-4.625-105.965-114.059-134.479   c0,0-57.413-16.184-105.58,12.331v289.383c7.289,0,14.577-0.001,21.866-0.004c17.822-0.003,35.646-0.006,53.466,0.002   c22.664,0.01,45.327-0.005,67.991,0.008c21.918,0.013,43.835,0.028,65.752,0.004c16.852-0.018,33.703-0.065,50.557-0.065   c13.423,0,21.609-4.155,31.513-9.331C843.573,642.983,876.597,615.256,865.563,561.094z" fill="#FFFFFF"/><polygon fill="#FFFFFF" points="481.775,665.126 504.511,665.126 504.511,389.622 481.775,410.429  "/><polygon fill="#FFFFFF" points="435.536,665.126 457.693,665.126 457.693,429.504 435.536,416.402  "/><polygon fill="#FFFFFF" points="389.296,665.126 411.26,665.126 411.26,411.201 389.296,407.732  "/><polygon fill="#FFFFFF" points="342.094,665.126 364.25,665.126 364.25,411.201 342.094,420.063  "/><polygon fill="#FFFFFF" points="295.662,665.126 317.818,665.126 317.818,435.476 295.662,458.596  "/><polygon fill="#FFFFFF" points="248.362,665.126 270.904,665.126 270.904,496.165 248.362,491.252  "/><polygon fill="#FFFFFF" points="201.834,655.402 224.376,665.126 224.376,493.275 201.834,502.234  "/><path d="M179.581,636.907V520.152C179.581,520.152,127.08,573.231,179.581,636.907z" fill="#FFFFFF"/></g></svg>