<?xml version="1.0" ?><!DOCTYPE svg  PUBLIC '-//W3C//DTD SVG 1.1//EN'  'http://www.w3.org/Graphics/SVG/1.1/DTD/svg11.dtd'><svg enable-background="new 0 0 1024 1024" height="1024px" id="Vimeo" version="1.1" viewBox="0 0 1024 1024" width="1024px" xml:space="preserve" xmlns="http://www.w3.org/2000/svg" xmlns:xlink="http://www.w3.org/1999/xlink"><g id="Background"><linearGradient gradientTransform="matrix(0.9397 0.3421 0.3421 -0.9397 122.0587 586.4846)" gradientUnits="userSpaceOnUse" id="bg_1_" x1="670.1318" x2="11.7158" y1="-188.9111" y2="595.667"><stop offset="0" style="stop-color:#33629C"/><stop offset="0.1905" style="stop-color:#306BA4"/><stop offset="0.5009" style="stop-color:#2983BB"/><stop offset="0.8907" style="stop-color:#1EABDF"/><stop offset="1" style="stop-color:#1AB7EA"/></linearGradient><path d="M512.031,0C794.799,0.016,1024.017,229.26,1024,512.03   c-0.013,228.702-149.974,422.373-356.925,488.064c-48.925,15.53-101.036,23.908-155.104,23.904   C229.201,1023.985-0.017,794.741,0,511.971C0.017,229.201,229.26-0.016,512.031,0z" fill="url(#bg_1_)" id="bg"/></g><linearGradient gradientTransform="matrix(1 0 0 -1 8.3398 1000.04)" gradientUnits="userSpaceOnUse" id="Shadow_1_" x1="329.3535" x2="885.9644" y1="703.0771" y2="146.4663"><stop offset="0" style="stop-color:#000000"/><stop offset="0.1213" style="stop-color:#030609;stop-opacity:0.8787"/><stop offset="0.3191" style="stop-color:#0B1521;stop-opacity:0.6809"/><stop offset="0.5689" style="stop-color:#182E49;stop-opacity:0.4311"/><stop offset="0.8579" style="stop-color:#295080;stop-opacity:0.1421"/><stop offset="1" style="stop-color:#33629D;stop-opacity:0"/></linearGradient><path d="M619.631,1012.668L411.878,804.915l-82.212-207.249l-9.992-16.117L200.728,462.614  c0,0,89.605-142.866,136.939-151.573s76.916,0.003,76.916,0.003l114.722,112.193L781.5,307.069l241.237,241.169  c0,0-3.751,48.487-11.731,78.879c-7.979,30.391-7.52,32.307-15.338,53.267s-9.086,25.174-15.042,38.172s-8.803,20.064-16.746,34.381  c-7.942,14.315-12.306,22.747-21.325,36.245c-9.019,13.498-14.937,22.699-24.65,34.928c-9.714,12.228-19.336,24.382-30.356,35.899  c-11.02,11.519-29.09,29.808-42.788,41.125c-13.698,11.318-33.043,26.723-47.339,35.994c-14.296,9.272-29.8,19.551-48.231,28.733  c-18.431,9.182-25.539,13.217-42.746,19.926s-33.903,13.06-49.178,17.313C641.992,1007.355,630.444,1010.479,619.631,1012.668z" fill="url(#Shadow_1_)" id="Shadow"/><path d="M200.728,462.614c0,0,34.682-24.702,34.75-24.75c11.49-8.185,27.447-6.495,36.287,4.492  c10.895,13.541,16.244,30.305,21.132,46.716c5.377,18.055,11.293,35.941,16.524,54.043c3.11,10.76,6.051,21.567,8.758,32.437  c7.232,29.039,14.576,58.059,22.917,86.801c3.944,13.594,7.92,27.244,12.632,40.595c4,11.333,21.333,60.667,44.667,88  c9.593,11.235,22.224,23.143,35.865,29.092c22.409,9.771,46.365,0.276,66.329-10.907c43.032-24.104,79.618-57.297,115.53-90.69  c30.976-28.804,59.92-60.018,85.874-93.441c12.098-15.581,23.42-31.896,33.86-48.636c24.534-39.338,46.521-76.855,60.659-121.676  c17.216-54.574,16.794-91.96-2.833-130.426c-14.618-28.647-49.285-48.669-98.315-48.367c-33.437,0.206-67.807,8.995-94.709,29.499  c-7.206,5.492-13.907,12.002-19.73,18.947c-8.592,10.248-16.521,21.682-23.196,33.273c-7.832,13.604-16.05,27.171-22.653,41.431  c-2.663,5.749-6.374,12.951-7.079,19.376c-0.931,8.485,7.093,5.076,12.678,3.418c19.48-5.781,61.555-23.226,76.938,11.604  c5.738,12.995,5.163,26.829,2.116,40.17c-3.177,13.919-7.666,26.333-14.538,42.137c-8.291,19.065-41.962,71.363-60.566,89.15  c-6.728,6.432-13.922,12.646-22.491,16.402c-15.168,6.648-23.354-7.203-27.736-20.355c-13.404-40.212-22.221-81.775-29.123-123.546  c-1.982-11.991-3.807-24.007-5.548-36.035c-2.2-15.205-4.55-30.396-7.719-45.434c-4.08-19.359-9.77-38.423-18.276-56.318  c-9.594-20.178-23.763-36.528-43.167-47.572c-15.167-8.632-38.222-9.101-54.477-3.642c-5.072,1.703-9.997,3.959-14.754,6.398  c-9.64,4.943-18.466,11.494-26.936,18.205c-42,33.277-116,103.277-123.333,107.277L200.728,462.614z" fill="#FFFFFF" id="Vimeo_1_"/></svg>