<svg xmlns="http://www.w3.org/2000/svg" width="400" height="400" id="mail"><path fill="#0E538C" d="M345.488 165.635v160.31c0 9.052-7.334 16.385-16.385 16.385H70.888c-9.05 0-16.384-7.333-16.384-16.385v-160.31c0-2.896.747-5.61 2.071-7.969l6.35-6.352L187.773 26.467c6.75-6.75 17.695-6.75 24.445 0l124.848 124.848 6.351 6.352a16.202 16.202 0 0 1 2.071 7.968z"></path><path fill="#CCE9FF" d="M323.09 77.992v249.156c0 8.386-6.795 15.19-15.189 15.19H92.092c-8.406 0-15.19-6.805-15.19-15.19V77.992c0-8.385 6.784-15.189 15.19-15.189H307.9c8.395 0 15.19 6.804 15.19 15.189z"></path><path fill="#F7F7F7" d="M208.982 147.746c0 4.009-3.261 7.271-7.28 7.271h-68.628a7.272 7.272 0 0 1-7.271-7.271c0-2.016.81-3.829 2.127-5.145a7.253 7.253 0 0 1 5.145-2.127h68.628c4.019.001 7.279 3.251 7.279 7.272zm65.206-27.92c0 4.009-3.261 7.271-7.282 7.271H133.074a7.272 7.272 0 0 1-7.271-7.271c0-2.006.81-3.827 2.127-5.145a7.262 7.262 0 0 1 5.145-2.137h133.832a7.283 7.283 0 0 1 7.281 7.282zm-65.206 96.709c0 4.01-3.261 7.271-7.28 7.271h-68.628a7.271 7.271 0 0 1-7.271-7.271c0-2.015.81-3.829 2.127-5.145a7.256 7.256 0 0 1 5.145-2.126h68.628c4.019.001 7.279 3.251 7.279 7.271zm65.206-27.919c0 4.009-3.261 7.271-7.282 7.271H133.074a7.272 7.272 0 0 1-7.271-7.271c0-2.006.81-3.827 2.127-5.145a7.26 7.26 0 0 1 5.145-2.136h133.832a7.283 7.283 0 0 1 7.281 7.281zM208.982 285.326c0 4.009-3.261 7.27-7.28 7.27h-68.628a7.271 7.271 0 0 1-7.271-7.27c0-2.016.81-3.83 2.127-5.145a7.253 7.253 0 0 1 5.145-2.127h68.628c4.019.001 7.279 3.251 7.279 7.272zm65.206-27.92c0 4.01-3.261 7.271-7.282 7.271H133.074a7.271 7.271 0 0 1-7.271-7.271c0-2.006.81-3.827 2.127-5.145a7.26 7.26 0 0 1 5.145-2.136h133.832a7.283 7.283 0 0 1 7.281 7.281z"></path><linearGradient id="a" x1="199.996" x2="199.996" y1="328.829" y2="345.524" gradientUnits="userSpaceOnUse"><stop offset=".288" stop-color="#e8f0f4"></stop><stop offset=".921" stop-color="#c2e4f3"></stop><stop offset="1" stop-color="#a6e3ff"></stop></linearGradient><path fill="url(#a)" d="m223.852 328.829-11.633 11.633c-6.75 6.75-17.695 6.75-24.445 0l-11.633-11.633h47.711z"></path><path fill="#2A94F4" d="M345.488 196.287v160.311c0 9.044-7.334 16.384-16.385 16.384H70.888c-9.05 0-16.384-7.34-16.384-16.384V196.287c0-2.681.643-5.21 1.789-7.445l131.48 131.48c6.75 6.751 17.695 6.751 24.445 0l131.48-131.48a16.239 16.239 0 0 1 1.79 7.445z"></path></svg>