<?xml version="1.0" encoding="iso-8859-1"?>
<svg version="1.1" id="Layer_1" xmlns="http://www.w3.org/2000/svg" xmlns:xlink="http://www.w3.org/1999/xlink" x="0px" y="0px"
	 viewBox="0 0 512 512" style="enable-background:new 0 0 512 512;" xml:space="preserve">
<path style="fill:#CDD4D5;" d="M503.983,48.1c4.428,0,8.017-3.589,8.017-8.017V14.43c0-4.427-3.588-8.017-8.017-8.017H8.017
	C3.588,6.413,0,10.003,0,14.43v25.653C0,44.511,3.588,48.1,8.017,48.1h39.015v26.722H8.017C3.588,74.823,0,78.412,0,82.839v342.046
	c0,4.427,3.588,8.017,8.017,8.017h39.015v26.722H8.017c-4.428,0-8.017,3.589-8.017,8.017v29.929c0,4.427,3.588,8.017,8.017,8.017
	h495.967c4.428,0,8.017-3.589,8.017-8.017v-29.929c0-4.427-3.588-8.017-8.017-8.017h-39.015v-26.722h39.015
	c4.428,0,8.017-3.589,8.017-8.017V82.839c0-4.427-3.588-8.017-8.017-8.017h-39.015V48.1H503.983z M375.182,74.823V48.1h30.998
	v26.722H375.182z M406.18,432.902v26.722h-30.998v-26.722H406.18z M285.395,74.823V48.1h30.998v26.722H285.395z M316.392,432.902
	v26.722h-30.998v-26.722H316.392z M195.608,74.823V48.1h30.998v26.722H195.608z M226.605,432.902v26.722h-30.998v-26.722H226.605z
	 M105.82,74.823V48.1h30.998v26.722H105.82z M136.818,432.902v26.722H105.82v-26.722H136.818z"/>
<path style="fill:#4ACFD9;" d="M503.983,109.027H8.017c-4.428,0-8.017,3.589-8.017,8.017v277.912c0,4.427,3.588,8.017,8.017,8.017
	h495.967c4.428,0,8.017-3.589,8.017-8.017V117.044C512,112.616,508.412,109.027,503.983,109.027z"/>
<path style="fill:#9BAAAB;" d="M8.017,6.413C3.588,6.413,0,10.003,0,14.43v25.653C0,44.511,3.588,48.1,8.017,48.1h39.015v26.722
	H8.017C3.588,74.823,0,78.412,0,82.839v342.046c0,4.427,3.588,8.017,8.017,8.017h39.015v26.722H8.017
	c-4.428,0-8.017,3.589-8.017,8.017v29.929c0,4.427,3.588,8.017,8.017,8.017H256V6.413H8.017z M136.818,459.624H105.82v-26.722
	h30.998V459.624z M136.818,74.823H105.82V48.1h30.998V74.823z M226.605,459.624h-30.998v-26.722h30.998V459.624z M195.608,74.823
	V48.1h30.998v26.722H195.608z"/>
<path style="fill:#0295AA;" d="M8.017,109.027c-4.428,0-8.017,3.589-8.017,8.017v277.912c0,4.427,3.588,8.017,8.017,8.017H256
	V109.027H8.017z"/>
<path style="fill:#FFD1A9;" d="M256,141.094c-63.359,0-114.906,51.546-114.906,114.906S192.641,370.906,256,370.906
	S370.906,319.36,370.906,256S319.359,141.094,256,141.094z"/>
<path style="fill:#FF8C29;" d="M141.094,256c0,63.36,51.547,114.906,114.906,114.906V141.094
	C192.641,141.094,141.094,192.64,141.094,256z"/>
<path style="fill:#FFFFFF;" d="M328.581,238.365c-3.303,0-6.395-2.057-7.558-5.347c-5.915-16.738-18.449-30.879-34.384-38.799
	c-3.965-1.97-5.582-6.782-3.611-10.747c1.969-3.965,6.781-5.585,10.747-3.612c19.632,9.757,35.074,27.184,42.366,47.814
	c1.476,4.174-0.713,8.754-4.887,10.23C330.369,238.217,329.467,238.365,328.581,238.365z"/>
<path style="fill:#F0353D;" d="M299.391,248.751l-65.045-50.395c-2.42-1.874-5.692-2.206-8.439-0.862
	c-2.746,1.347-4.487,4.14-4.487,7.198v102.614c0,3.084,1.769,5.895,4.55,7.229c1.103,0.529,2.287,0.788,3.465,0.788
	c1.791,0,3.569-0.6,5.02-1.765l65.045-52.219c1.914-1.537,3.019-3.866,2.998-6.321C302.474,252.565,301.331,250.255,299.391,248.751
	z"/>
<g>
</g>
<g>
</g>
<g>
</g>
<g>
</g>
<g>
</g>
<g>
</g>
<g>
</g>
<g>
</g>
<g>
</g>
<g>
</g>
<g>
</g>
<g>
</g>
<g>
</g>
<g>
</g>
<g>
</g>
</svg>
