<?xml version="1.0" ?><!DOCTYPE svg  PUBLIC '-//W3C//DTD SVG 1.1//EN'  'http://www.w3.org/Graphics/SVG/1.1/DTD/svg11.dtd'><svg enable-background="new 0 0 1024 1024" height="1024px" id="Twitter_1_" version="1.1" viewBox="0 0 1024 1024" width="1024px" xml:space="preserve" xmlns="http://www.w3.org/2000/svg" xmlns:xlink="http://www.w3.org/1999/xlink"><g id="Background"><rect fill="#00ACED" height="1024" id="bg_2_" width="1024"/></g><path d="M742.988,348.513c0,0,52.681-44.338,51.012-64.124c0,0-60.785,26.698-74.135,27.89  c0,0-4.227-4.253-11.146-9.845c-2.307-1.864-4.912-3.877-7.762-5.93c-5.277-3.853-10.833-7.164-16.602-9.969  c-2.884-1.402-5.82-2.679-8.797-3.84c-19.379-8.492-40.61-10.572-61.45-8.292c-2.978,0.326-5.946,0.741-8.901,1.238  c-34.565,5.411-64.125,26.388-82.727,54.989c-1.67,2.609-3.218,5.287-4.629,8.033c-2.818,5.492-5.089,11.256-6.686,17.269  c-0.627,2.22-1.313,4.805-1.96,7.565c-0.648,2.76-1.259,5.695-1.736,8.615c-1.907,11.681,0,49.583,0,49.583  s-153.753,4.768-252.442-123.003c0,0-48.628,92.014,35.28,156.376c0,0-17.064,7.628-49.295-11.442c0,0-16.02,70.082,87.912,118.234  H278.39c0,0,17.64,77.711,111.562,84.862c0,0-44.338,59.594-173.063,50.535c0,0,116.14,80.755,265.766,43.276  c2.671-0.67,5.354-1.377,8.047-2.122c23.682-7.305,47.52-15.886,69.171-27.394c1.889-0.979,3.779-1.982,5.671-3.008  c5.677-3.072,11.377-6.343,17.099-9.816c0,0,157.32-85.241,170.191-305.489c0,0,33.063-19.401,54.277-56.587  C807.111,336.118,747.517,349.943,742.988,348.513z" fill="#FFFFFF" id="Twitter"/></svg>