<?xml version="1.0" ?><svg viewBox="0 0 63 63" xmlns="http://www.w3.org/2000/svg" xmlns:xlink="http://www.w3.org/1999/xlink"><defs><style>.cls-1,.cls-7{fill:#fff;}.cls-1,.cls-2,.cls-5,.cls-6,.cls-8{stroke-linecap:round;}.cls-1,.cls-2,.cls-3,.cls-4,.cls-5,.cls-6,.cls-8{stroke-miterlimit:10;}.cls-1,.cls-4,.cls-6{fill-rule:evenodd;}.cls-1{stroke:url(#linear-gradient);}.cls-2,.cls-3,.cls-5,.cls-6,.cls-8{fill:none;}.cls-2{stroke:url(#linear-gradient-2);}.cls-3,.cls-5{stroke:#e0e0e0;}.cls-4{fill:url(#linear-gradient-3);stroke:url(#linear-gradient-4);}.cls-6{stroke:url(#linear-gradient-5);}.cls-8{stroke:url(#linear-gradient-6);}</style><linearGradient gradientUnits="userSpaceOnUse" id="linear-gradient" x1="20.45" x2="45.45" y1="32.05" y2="32.05"><stop offset="0" stop-color="#a900bf"/><stop offset="0.48" stop-color="#d661ad"/><stop offset="0.83" stop-color="#f3a3a1"/><stop offset="1" stop-color="#ffbc9c"/></linearGradient><linearGradient id="linear-gradient-2" x1="20.45" x2="21.45" xlink:href="#linear-gradient" y1="28.15" y2="28.15"/><linearGradient id="linear-gradient-3" x1="17.43" x2="39.45" xlink:href="#linear-gradient" y1="34.33" y2="34.33"/><linearGradient id="linear-gradient-4" x1="16.93" x2="39.95" xlink:href="#linear-gradient" y1="34.33" y2="34.33"/><linearGradient id="linear-gradient-5" x1="37.45" x2="42.95" xlink:href="#linear-gradient" y1="21.4" y2="21.4"/><linearGradient id="linear-gradient-6" x1="20.45" x2="21.45" xlink:href="#linear-gradient" y1="42.15" y2="42.15"/></defs><title/><g data-name="Layer 15" id="Layer_15"><path class="cls-1" d="M21,25.55v-7a3,3,0,0,1,3-3H38l7,8v22a3,3,0,0,1-3,3H24a3,3,0,0,1-3-3v-1"/><line class="cls-2" x1="20.95" x2="20.95" y1="28.55" y2="27.75"/><path class="cls-3" d="M18,36.55v2a1,1,0,0,0,1,1H38a1,1,0,0,0,1-1v-1"/><path class="cls-4" d="M38.69,38.62H18.19a.81.81,0,0,1-.76-.86V30.9a.81.81,0,0,1,.76-.85h20.5a.81.81,0,0,1,.76.85v6.86A.81.81,0,0,1,38.69,38.62Z"/><path class="cls-5" d="M38,23v.31a1.28,1.28,0,0,0,1.28,1.3l2.87,0a.26.26,0,0,0,.26-.25V24"/><path class="cls-6" d="M38,18.83v3.86A1.28,1.28,0,0,0,39.24,24h3.21"/><path class="cls-7" d="M21.73,36.55V31.73a.38.38,0,0,1,.12-.3.49.49,0,0,1,.3-.09.71.71,0,0,1,.38.09,1,1,0,0,1,.3.36l1.12,2,1.13-2a.94.94,0,0,1,.29-.36.69.69,0,0,1,.38-.09.49.49,0,0,1,.3.09.38.38,0,0,1,.12.3v4.82a.21.21,0,0,1-.13.19.54.54,0,0,1-.29.07.56.56,0,0,1-.3-.07.21.21,0,0,1-.13-.19V33l-1.07,1.85a.36.36,0,0,1-.31.18.31.31,0,0,1-.29-.18l-1.07-1.9v3.64a.21.21,0,0,1-.13.19.56.56,0,0,1-.3.07.54.54,0,0,1-.29-.07A.21.21,0,0,1,21.73,36.55Z"/><path class="cls-7" d="M27.17,35.19V33a1.54,1.54,0,0,1,.49-1.27,2,2,0,0,1,1.3-.4,2,2,0,0,1,1.31.4A1.54,1.54,0,0,1,30.76,33v2.18a1.53,1.53,0,0,1-.49,1.26,2,2,0,0,1-1.31.41,2,2,0,0,1-1.3-.41A1.53,1.53,0,0,1,27.17,35.19Zm.85,0a.84.84,0,0,0,.94,1,1,1,0,0,0,.71-.24,1,1,0,0,0,.24-.72V33a1,1,0,0,0-.24-.73A1,1,0,0,0,29,32c-.63,0-.94.32-.94,1Z"/><path class="cls-7" d="M31.33,31.67a.28.28,0,0,1,.17-.24.74.74,0,0,1,.36-.09c.16,0,.26.05.29.16l1.32,4.27,1.32-4.27c0-.11.13-.16.28-.16a.74.74,0,0,1,.36.09.28.28,0,0,1,.17.24.18.18,0,0,1,0,.06L34,36.59a.31.31,0,0,1-.19.2.89.89,0,0,1-.34.07c-.29,0-.47-.09-.53-.27l-1.6-4.86S31.33,31.7,31.33,31.67Z"/><line class="cls-8" x1="20.95" x2="20.95" y1="42.55" y2="41.75"/><path class="cls-5" d="M43,42.48v2.93a1,1,0,0,1-1,1l-.34,0"/></g></svg>