<?xml version="1.0" ?><svg viewBox="0 0 63 63" xmlns="http://www.w3.org/2000/svg" xmlns:xlink="http://www.w3.org/1999/xlink"><defs><style>.cls-1,.cls-7{fill:#fff;}.cls-1,.cls-2,.cls-5,.cls-6,.cls-8{stroke-linecap:round;}.cls-1,.cls-2,.cls-3,.cls-4,.cls-5,.cls-6,.cls-8{stroke-miterlimit:10;}.cls-1,.cls-4,.cls-6{fill-rule:evenodd;}.cls-1{stroke:url(#linear-gradient);}.cls-2,.cls-3,.cls-5,.cls-6,.cls-8{fill:none;}.cls-2{stroke:url(#linear-gradient-2);}.cls-3,.cls-5{stroke:#e0e0e0;}.cls-4{fill:url(#linear-gradient-3);stroke:url(#linear-gradient-4);}.cls-6{stroke:url(#linear-gradient-5);}.cls-8{stroke:url(#linear-gradient-6);}</style><linearGradient gradientUnits="userSpaceOnUse" id="linear-gradient" x1="20.45" x2="45.45" y1="31.05" y2="31.05"><stop offset="0" stop-color="#a900bf"/><stop offset="0.48" stop-color="#d661ad"/><stop offset="0.83" stop-color="#f3a3a1"/><stop offset="1" stop-color="#ffbc9c"/></linearGradient><linearGradient id="linear-gradient-2" x1="20.45" x2="21.45" xlink:href="#linear-gradient" y1="27.15" y2="27.15"/><linearGradient id="linear-gradient-3" x1="17.43" x2="39.45" xlink:href="#linear-gradient" y1="33.33" y2="33.33"/><linearGradient id="linear-gradient-4" x1="16.93" x2="39.95" xlink:href="#linear-gradient" y1="33.33" y2="33.33"/><linearGradient id="linear-gradient-5" x1="37.45" x2="42.95" xlink:href="#linear-gradient" y1="20.4" y2="20.4"/><linearGradient id="linear-gradient-6" x1="20.45" x2="21.45" xlink:href="#linear-gradient" y1="41.15" y2="41.15"/></defs><title/><g data-name="Layer 5" id="Layer_5"><path class="cls-1" d="M21,24.55v-7a3,3,0,0,1,3-3H38l7,8v22a3,3,0,0,1-3,3H24a3,3,0,0,1-3-3v-1"/><line class="cls-2" x1="20.95" x2="20.95" y1="27.55" y2="26.75"/><path class="cls-3" d="M18,35.55v2a1,1,0,0,0,1,1H38a1,1,0,0,0,1-1v-1"/><path class="cls-4" d="M38.69,37.62H18.19a.81.81,0,0,1-.76-.86V29.9a.81.81,0,0,1,.76-.85h20.5a.81.81,0,0,1,.76.85v6.86A.81.81,0,0,1,38.69,37.62Z"/><path class="cls-5" d="M38,22v.31a1.28,1.28,0,0,0,1.28,1.3l2.87,0a.26.26,0,0,0,.26-.25V23"/><path class="cls-6" d="M38,17.83v3.86A1.28,1.28,0,0,0,39.24,23h3.21"/><path class="cls-7" d="M22.52,35.07a.42.42,0,0,1,.11-.28.3.3,0,0,1,.25-.14.42.42,0,0,1,.22.09c.08.07.16.13.24.21a1.42,1.42,0,0,0,.36.21,1.63,1.63,0,0,0,.55.09,1.22,1.22,0,0,0,.73-.2.7.7,0,0,0,.28-.6.77.77,0,0,0-.27-.6,1.89,1.89,0,0,0-.65-.38l-.76-.31a1.67,1.67,0,0,1-.65-.5,1.27,1.27,0,0,1-.27-.83,1.34,1.34,0,0,1,.16-.68,1.08,1.08,0,0,1,.45-.45,2.13,2.13,0,0,1,.59-.23,2.7,2.7,0,0,1,.65-.07l.45,0a3.89,3.89,0,0,1,.47.09,1.21,1.21,0,0,1,.38.17.31.31,0,0,1,.15.25.55.55,0,0,1-.09.29.31.31,0,0,1-.26.14.63.63,0,0,1-.21-.07,2.34,2.34,0,0,0-.37-.15,2,2,0,0,0-.52-.07,1.38,1.38,0,0,0-.73.17.57.57,0,0,0-.27.52.6.6,0,0,0,.14.39,1.29,1.29,0,0,0,.37.26l.51.21c.19.07.37.15.56.24a2.8,2.8,0,0,1,.5.31,1.25,1.25,0,0,1,.37.49,1.58,1.58,0,0,1,.15.71,1.43,1.43,0,0,1-.5,1.18,2.05,2.05,0,0,1-1.33.41A2.57,2.57,0,0,1,23,35.67Q22.52,35.38,22.52,35.07Z"/><path class="cls-7" d="M26.85,34.27V32.09a1.54,1.54,0,0,1,.49-1.27,2.33,2.33,0,0,1,2.61,0,1.54,1.54,0,0,1,.49,1.27v2.18a1.62,1.62,0,0,1-.4,1.19,1.74,1.74,0,0,1-1.11.47v.52a.26.26,0,0,1-.08.19.31.31,0,0,1-.21.07.26.26,0,0,1-.19-.07.23.23,0,0,1-.09-.19v-.52a1.76,1.76,0,0,1-1.1-.46A1.63,1.63,0,0,1,26.85,34.27Zm.85,0c0,.53.22.84.66.92v-.46c0-.16.1-.25.28-.25a.37.37,0,0,1,.21.06.26.26,0,0,1,.08.19v.45a.8.8,0,0,0,.67-.91V32.09a1,1,0,0,0-.25-.73,1,1,0,0,0-.71-.23.84.84,0,0,0-.94,1Z"/><path class="cls-7" d="M31.44,35.63v-5a.22.22,0,0,1,.12-.2.78.78,0,0,1,.6,0,.22.22,0,0,1,.12.2v4.51h2.08a.21.21,0,0,1,.19.11.4.4,0,0,1,.07.24.41.41,0,0,1-.07.25.21.21,0,0,1-.19.11H31.81a.45.45,0,0,1-.26-.08A.2.2,0,0,1,31.44,35.63Z"/><line class="cls-8" x1="20.95" x2="20.95" y1="41.55" y2="40.75"/><path class="cls-5" d="M43,41.48v2.93a1,1,0,0,1-1,1l-.34,0"/></g></svg>