<?xml version="1.0" ?><svg viewBox="0 0 63 63" xmlns="http://www.w3.org/2000/svg" xmlns:xlink="http://www.w3.org/1999/xlink"><defs><style>.cls-1,.cls-7{fill:#fff;}.cls-1,.cls-2,.cls-5,.cls-6,.cls-8{stroke-linecap:round;}.cls-1,.cls-2,.cls-3,.cls-4,.cls-5,.cls-6,.cls-8{stroke-miterlimit:10;}.cls-1,.cls-4,.cls-6{fill-rule:evenodd;}.cls-1{stroke:url(#linear-gradient);}.cls-2,.cls-3,.cls-5,.cls-6,.cls-8{fill:none;}.cls-2{stroke:url(#linear-gradient-2);}.cls-3,.cls-5{stroke:#e0e0e0;}.cls-4{fill:url(#linear-gradient-3);stroke:url(#linear-gradient-4);}.cls-6{stroke:url(#linear-gradient-5);}.cls-8{stroke:url(#linear-gradient-6);}</style><linearGradient gradientUnits="userSpaceOnUse" id="linear-gradient" x1="20.45" x2="45.45" y1="32.05" y2="32.05"><stop offset="0" stop-color="#a900bf"/><stop offset="0.48" stop-color="#d661ad"/><stop offset="0.83" stop-color="#f3a3a1"/><stop offset="1" stop-color="#ffbc9c"/></linearGradient><linearGradient id="linear-gradient-2" x1="20.45" x2="21.45" xlink:href="#linear-gradient" y1="28.15" y2="28.15"/><linearGradient id="linear-gradient-3" x1="17.56" x2="39.58" xlink:href="#linear-gradient" y1="34.33" y2="34.33"/><linearGradient id="linear-gradient-4" x1="17.06" x2="40.08" xlink:href="#linear-gradient" y1="34.33" y2="34.33"/><linearGradient id="linear-gradient-5" x1="37.45" x2="42.95" xlink:href="#linear-gradient" y1="21.4" y2="21.4"/><linearGradient id="linear-gradient-6" x1="20.45" x2="21.45" xlink:href="#linear-gradient" y1="42.15" y2="42.15"/></defs><title/><g data-name="Layer 47" id="Layer_47"><path class="cls-1" d="M21,25.55v-7a3,3,0,0,1,3-3H38l7,8v22a3,3,0,0,1-3,3H24a3,3,0,0,1-3-3v-1"/><line class="cls-2" x1="20.95" x2="20.95" y1="28.55" y2="27.75"/><path class="cls-3" d="M18,36.55v2a1,1,0,0,0,1,1H38a1,1,0,0,0,1-1v-1"/><path class="cls-4" d="M38.83,38.62H18.32a.81.81,0,0,1-.76-.86V30.9a.81.81,0,0,1,.76-.85H38.83a.81.81,0,0,1,.75.85v6.86A.81.81,0,0,1,38.83,38.62Z"/><path class="cls-5" d="M38,23v.31a1.28,1.28,0,0,0,1.28,1.3l2.87,0a.26.26,0,0,0,.26-.25V24"/><path class="cls-6" d="M38,18.83v3.86A1.28,1.28,0,0,0,39.24,24h3.21"/><path class="cls-7" d="M21.83,31.6a.52.52,0,0,1,.07-.25.25.25,0,0,1,.21-.11h3.32a.24.24,0,0,1,.21.1.52.52,0,0,1,0,.52.24.24,0,0,1-.21.11H24.2v4.48a.21.21,0,0,1-.13.19.54.54,0,0,1-.29.07.56.56,0,0,1-.3-.07.21.21,0,0,1-.13-.19V32H22.11a.22.22,0,0,1-.2-.11A.45.45,0,0,1,21.83,31.6Z"/><path class="cls-7" d="M26.35,36.45v-5a.2.2,0,0,1,.13-.19.67.67,0,0,1,.3-.06.73.73,0,0,1,.3.06.21.21,0,0,1,.12.19v5a.22.22,0,0,1-.12.19.6.6,0,0,1-.3.07.56.56,0,0,1-.3-.07A.21.21,0,0,1,26.35,36.45Z"/><path class="cls-7" d="M28.26,36.45v-5a.21.21,0,0,1,.11-.19.44.44,0,0,1,.26-.07h2.81a.21.21,0,0,1,.2.1.4.4,0,0,1,.07.24.44.44,0,0,1-.07.26.23.23,0,0,1-.2.1H29.1v1.72h1.24a.23.23,0,0,1,.2.09.36.36,0,0,1,.08.23.38.38,0,0,1-.07.21.24.24,0,0,1-.21.1H29.1v2.16a.22.22,0,0,1-.12.2.67.67,0,0,1-.3.06.73.73,0,0,1-.3-.06A.22.22,0,0,1,28.26,36.45Z"/><path class="cls-7" d="M32.27,36.45v-5a.23.23,0,0,1,.11-.19.5.5,0,0,1,.27-.07h2.81a.22.22,0,0,1,.2.1.48.48,0,0,1,.07.24.53.53,0,0,1-.07.26.23.23,0,0,1-.2.1H33.12v1.72h1.24a.25.25,0,0,1,.2.09.35.35,0,0,1,.07.23.31.31,0,0,1-.07.21.21.21,0,0,1-.2.1H33.12v2.16a.22.22,0,0,1-.12.2.73.73,0,0,1-.3.06.67.67,0,0,1-.3-.06A.21.21,0,0,1,32.27,36.45Z"/><line class="cls-8" x1="20.95" x2="20.95" y1="42.55" y2="41.75"/><path class="cls-5" d="M43,42.48v2.93a1,1,0,0,1-1,1l-.34,0"/></g></svg>