<?xml version="1.0" encoding="UTF-8"?>
<svg id="a" data-name="Capa 1" xmlns="http://www.w3.org/2000/svg" viewBox="0 0 43 56">
  <path d="M30.49,0H1.46C.66,0,0,.65,0,1.93v53.07c0,.35.65,1,1.46,1h40.07c.81,0,1.46-.65,1.46-1V12.98c0-.7-.09-.92-.26-1.09L31.11.26c-.16-.16-.39-.26-.62-.26Z" fill="#e9e9e0"/>
  <polygon points="31 .15 31 12 42.85 12 31 .15" fill="#d9d7ca"/>
  <path d="M41.54,56H1.46c-.81,0-1.46-.65-1.46-1.46v-15.54h43v15.54c0,.81-.65,1.46-1.46,1.46Z" fill="#8697cb"/>
  <rect x="6" y="13" width="15" height="15.06" fill="#c8bdb8"/>
  <rect x="28" y="14" width="2" height="7" fill="#ada29e"/>
  <rect x="28" y="29" width="2" height="7" fill="#ada29e"/>
  <path d="M34,30h-10v-10h10v10ZM26,28h6v-6h-6v6Z" fill="#ada29e"/>
  <rect x="33" y="24" width="7" height="2" fill="#ada29e"/>
  <rect x="18" y="24" width="7" height="2" fill="#ada29e"/>
  <g>
    <path d="M15.96,51.75c-.38.19-1.15.38-2.13.38-2.28,0-3.99-1.44-3.99-4.09s1.72-4.25,4.22-4.25c1.01,0,1.64.22,1.92.36l-.25.85c-.4-.19-.96-.34-1.63-.34-1.9,0-3.15,1.21-3.15,3.33,0,1.98,1.14,3.25,3.11,3.25.64,0,1.28-.13,1.7-.34l.22.83Z" fill="#fff"/>
    <path d="M18.63,49.47l-.84,2.54h-1.08l2.75-8.08h1.26l2.76,8.08h-1.11l-.86-2.54h-2.87ZM21.28,48.66l-.79-2.33c-.18-.53-.3-1.01-.42-1.47h-.02c-.12.48-.25.97-.41,1.46l-.79,2.34h2.43Z" fill="#fff"/>
    <path d="M24.67,44.04c.64-.1,1.39-.17,2.22-.17,1.5,0,2.57.35,3.27,1.01.72.66,1.14,1.6,1.14,2.9s-.41,2.4-1.16,3.14c-.76.76-2,1.16-3.57,1.16-.74,0-1.37-.04-1.89-.1v-7.95ZM25.71,51.19c.26.05.65.06,1.06.06,2.23,0,3.44-1.25,3.44-3.43.01-1.91-1.07-3.12-3.27-3.12-.54,0-.95.05-1.22.11v6.38Z" fill="#fff"/>
  </g>
</svg>