<?xml version="1.0" encoding="UTF-8"?>
<svg id="a" xmlns="http://www.w3.org/2000/svg" viewBox="0 0 43 56">
  <g>
    <path d="M30.49,0H1.46C.66,0,0,.65,0,1.93v53.07c0,.35.65,1,1.46,1h40.07c.81,0,1.46-.65,1.46-1V12.98c0-.7-.09-.92-.26-1.09L31.11.26c-.16-.16-.39-.26-.62-.26Z" fill="#e9e9e0"/>
    <polygon points="31 .15 31 12 42.85 12 31 .15" fill="#d9d7ca"/>
    <path d="M41.54,56H1.46c-.81,0-1.46-.65-1.46-1.46v-15.54h43v15.54c0,.81-.65,1.46-1.46,1.46Z" fill="#95a5a5"/>
    <path d="M12,13h-6c-.55,0-1-.45-1-1s.45-1,1-1h6c.55,0,1,.45,1,1s-.45,1-1,1Z" fill="#c8bdb8"/>
    <path d="M15,18H6c-.55,0-1-.45-1-1s.45-1,1-1h9c.55,0,1,.45,1,1s-.45,1-1,1Z" fill="#c8bdb8"/>
    <path d="M19,18c-.26,0-.52-.11-.71-.29-.18-.19-.29-.44-.29-.71s.11-.52.3-.71c.36-.37,1.04-.37,1.41,0,.18.19.29.45.29.71s-.11.52-.29.71c-.19.18-.45.29-.71.29Z" fill="#c8bdb8"/>
    <path d="M31,18h-8c-.55,0-1-.45-1-1s.45-1,1-1h8c.55,0,1,.45,1,1s-.45,1-1,1Z" fill="#c8bdb8"/>
    <path d="M6,33c-.26,0-.52-.11-.71-.29-.18-.19-.29-.45-.29-.71s.11-.52.29-.71c.37-.37,1.05-.37,1.42.01.18.18.29.44.29.7s-.11.52-.29.71c-.19.18-.45.29-.71.29Z" fill="#c8bdb8"/>
    <path d="M18,33h-8c-.55,0-1-.45-1-1s.45-1,1-1h8c.55,0,1,.45,1,1s-.45,1-1,1Z" fill="#c8bdb8"/>
    <path d="M37,18h-2c-.55,0-1-.45-1-1s.45-1,1-1h2c.55,0,1,.45,1,1s-.45,1-1,1Z" fill="#c8bdb8"/>
    <path d="M28,23H6c-.55,0-1-.45-1-1s.45-1,1-1h22c.55,0,1,.45,1,1s-.45,1-1,1Z" fill="#c8bdb8"/>
    <path d="M37,23h-6c-.55,0-1-.45-1-1s.45-1,1-1h6c.55,0,1,.45,1,1s-.45,1-1,1Z" fill="#c8bdb8"/>
    <path d="M10,28h-4c-.55,0-1-.45-1-1s.45-1,1-1h4c.55,0,1,.45,1,1s-.45,1-1,1Z" fill="#c8bdb8"/>
    <path d="M24,28h-10c-.55,0-1-.45-1-1s.45-1,1-1h10c.55,0,1,.45,1,1s-.45,1-1,1Z" fill="#c8bdb8"/>
    <path d="M37,28h-9c-.55,0-1-.45-1-1s.45-1,1-1h9c.55,0,1,.45,1,1s-.45,1-1,1Z" fill="#c8bdb8"/>
  </g>
  <g>
    <path d="M17.1,47.55h-3.14v2.92h3.5v.88h-4.55v-8.08h4.37v.88h-3.32v2.55h3.14v.86h0Z" fill="#fff"/>
    <path d="M18.82,43.35c.5-.08,1.16-.16,2-.16,1.03,0,1.79.24,2.27.67.44.38.71.97.71,1.69s-.22,1.31-.62,1.73c-.55.59-1.45.89-2.47.89-.31,0-.6,0-.84-.07v3.24h-1.04v-7.99h0ZM19.86,47.25c.23.06.52.08.86.08,1.26,0,2.03-.61,2.03-1.73s-.76-1.58-1.91-1.58c-.46,0-.8.04-.98.08v3.14h0Z" fill="#fff"/>
    <path d="M25.06,50.06c.47.29,1.15.53,1.87.53,1.07,0,1.69-.56,1.69-1.38,0-.75-.43-1.19-1.52-1.61-1.32-.47-2.13-1.15-2.13-2.29,0-1.26,1.04-2.19,2.61-2.19.83,0,1.43.19,1.79.4l-.29.85c-.26-.14-.8-.38-1.54-.38-1.1,0-1.52.66-1.52,1.21,0,.76.49,1.13,1.61,1.56,1.37.53,2.06,1.19,2.06,2.37,0,1.25-.92,2.33-2.83,2.33-.78,0-1.63-.23-2.06-.52,0,0,.26-.88.26-.88Z" fill="#fff"/>
  </g>
</svg>