<?xml version="1.0" encoding="UTF-8"?>
<svg id="a" data-name="Capa 1" xmlns="http://www.w3.org/2000/svg" viewBox="0 0 43 56">
  <path d="M30.49,0H1.46C.66,0,0,.65,0,1.93v53.07c0,.35.65,1,1.46,1h40.07c.81,0,1.46-.65,1.46-1V12.98c0-.7-.09-.92-.26-1.09L31.11.26c-.16-.16-.39-.26-.62-.26Z" fill="#e9e9e0"/>
  <polygon points="31 .15 31 12 42.85 12 31 .15" fill="#d9d7ca"/>
  <path d="M13.01,33.32h0c-.35,0-.68-.11-.97-.33-1.04-.78-1.18-1.65-1.11-2.24.18-1.63,2.19-3.33,5.99-5.07,1.5-3.3,2.93-7.36,3.79-10.75-1-2.17-1.97-4.99-1.26-6.64.25-.58.56-1.02,1.13-1.22.23-.08.8-.17,1.02-.17.5,0,.95.65,1.26,1.05.3.38.96,1.17-.37,6.8,1.35,2.78,3.26,5.62,5.09,7.56,1.31-.24,2.44-.36,3.36-.36,1.57,0,2.51.36,2.9,1.12.32.62.19,1.35-.39,2.16-.56.78-1.33,1.19-2.22,1.19-1.22,0-2.63-.77-4.21-2.28-2.84.59-6.15,1.65-8.83,2.82-.84,1.77-1.64,3.2-2.38,4.25-1.03,1.43-1.91,2.11-2.78,2.11ZM15.68,28.2c-2.14,1.2-3.01,2.19-3.07,2.74-.01.09-.04.33.43.69.15-.05,1.02-.44,2.64-3.44ZM29.31,23.76c.81.63,1.01.94,1.55.94.23,0,.9-.01,1.21-.44.15-.21.21-.34.23-.42-.12-.07-.29-.2-1.17-.2-.51,0-1.14.02-1.81.11ZM21.84,17.17c-.72,2.47-1.66,5.15-2.67,7.56,2.09-.81,4.36-1.52,6.5-2.02-1.35-1.57-2.7-3.53-3.82-5.54ZM21.24,8.71c-.1.03-1.33,1.76.1,3.22.95-2.11-.05-3.23-.1-3.22Z" fill="#cc4b4c"/>
  <path d="M41.54,56H1.46c-.81,0-1.46-.65-1.46-1.46v-15.54h43v15.54c0,.81-.65,1.46-1.46,1.46Z" fill="#cc4b4c"/>
  <g>
    <path d="M10.89,53h-1.64v-10.08h2.9c.43,0,.85.07,1.27.21s.8.34,1.13.62c.33.27.6.6.81.99s.31.82.31,1.31c0,.51-.09.97-.26,1.39s-.42.76-.73,1.05-.68.5-1.12.66-.92.23-1.45.23h-1.22v3.64h0ZM10.89,44.17v3.99h1.5c.2,0,.4-.03.59-.1.2-.07.38-.18.54-.33.16-.15.3-.37.4-.65s.15-.62.15-1.03c0-.16-.02-.35-.07-.57-.05-.21-.14-.42-.28-.62-.14-.2-.34-.36-.59-.49s-.59-.2-1.01-.2h-1.23Z" fill="#fff"/>
    <path d="M25.72,47.68c0,.83-.09,1.54-.27,2.13s-.4,1.08-.68,1.48-.58.71-.92.94-.67.4-.99.51c-.32.11-.61.19-.88.22-.26.03-.46.05-.59.05h-3.81v-10.08h3.03c.85,0,1.59.13,2.24.4s1.18.63,1.6,1.07.74.96.95,1.52c.21.57.31,1.16.31,1.76ZM20.85,51.8c1.11,0,1.91-.35,2.41-1.07s.74-1.74.74-3.09c0-.42-.05-.83-.15-1.24-.1-.41-.29-.78-.58-1.11s-.68-.6-1.17-.81-1.13-.31-1.91-.31h-.96v7.63s1.63,0,1.63,0Z" fill="#fff"/>
    <path d="M29.77,44.17v3.17h4.21v1.12h-4.21v4.54h-1.67v-10.08h6.3v1.24h-4.63Z" fill="#fff"/>
  </g>
</svg>