<?xml version="1.0" ?><svg id="Layer_1" style="enable-background:new 0 0 72 72;" version="1.1" viewBox="0 0 72 72" xml:space="preserve" xmlns="http://www.w3.org/2000/svg" xmlns:xlink="http://www.w3.org/1999/xlink"><style type="text/css">
	.st0{fill:#7100E7;}
	.st1{fill:#FFFFFF;}
</style><g><path class="st0" d="M36,0L36,0c19.9,0,36,16.1,36,36v0c0,19.9-16.1,36-36,36h0C16.1,72,0,55.9,0,36v0C0,16.1,16.1,0,36,0z"/><path class="st1" d="M24.2,55.6c0.2,0.1,0.2-0.1,0.1,0.2l0.4,0.3c2.1,1.1,2,1.7,5.8,3c2.4,0.8,5.2,1.2,7.9,0.9   c12.7-1.5,20.4-13.7,16.6-25.4c-0.5-1.5-1.3-3.2-2.2-4.5c-0.3-0.5-0.7-0.9-0.9-1.3c-0.2-0.1-0.1-0.1-0.3-0.4   c-0.2,0.1-0.1,0.1-0.2-0.1c-0.4-0.4-0.9-1-1.3-1.4c-0.4-0.4-0.9-0.9-1.4-1.3c-6-4.6-13.1-5.8-20.2-2.6c0,0-0.1,0-0.1,0.1   c-2.8,1.3-6-0.7-6-3.8c0-2.6,0-5-0.2-5.4c-0.8-2.4-4.5-2.4-5.1,0.2c-0.2,0.9-0.1,11.8-0.1,13.3c0,3.9-0.3,14.1,0.4,17.4   c0.5,2.4,1.4,4.6,2.6,6.3c0.9,1.4,1.8,2.6,3,3.7C23.4,54.9,24,55.4,24.2,55.6 M28.5,36.3c-4.8,0.9-3.9,8.4,1.3,7.7   c2-0.3,3.6-2.2,3.2-4.6C32.7,37.6,30.8,35.9,28.5,36.3 M22.5,41.4C21.5,30.5,35,21,46,30.2c2.2,1.8,4.3,5.4,4.5,9.7   c0.7,11.5-13.1,20-23.6,11C24.3,48.6,22.8,45.1,22.5,41.4"/></g></svg>