<?xml version="1.0" ?><svg height="72" viewBox="0 0 72 72" width="72" xmlns="http://www.w3.org/2000/svg"><g fill="none" fill-rule="evenodd"><path d="M36,72 L36,72 C55.882251,72 72,55.882251 72,36 L72,36 C72,16.117749 55.882251,-3.65231026e-15 36,0 L36,0 C16.117749,3.65231026e-15 -2.4348735e-15,16.117749 0,36 L0,36 C2.4348735e-15,55.882251 16.117749,72 36,72 Z" fill="#0863FF"/><path d="M42.6717676,26.0060325 L55.382997,26.0060325 L55.382997,22.3642691 L42.6717676,22.3642691 L42.6717676,26.0060325 L42.6717676,26.0060325 Z M45.6830646,33.9522042 C44.8730906,34.7763341 44.3622708,35.8928074 44.1534273,37.3016241 L54.0396255,37.3016241 C53.9352038,35.7981439 53.4215617,34.662181 52.5128104,33.8798144 C51.5927703,33.1030162 50.4610645,32.7160093 49.1064041,32.7160093 C47.6388555,32.7160093 46.4930386,33.1280742 45.6830646,33.9522042 L45.6830646,33.9522042 L45.6830646,33.9522042 Z M54.26258,29.063109 C55.7950395,29.736891 57.0565669,30.8060325 58.0499845,32.2649652 C58.9559136,33.5512761 59.5372887,35.0436195 59.8025763,36.7392111 C59.9577978,37.7303944 60.0198864,39.1670534 59.9944865,41.0352668 L44.0123169,41.0352668 C44.108272,43.2041763 44.864624,44.7271462 46.309595,45.5986079 C47.1844798,46.1415313 48.2371638,46.4143852 49.4732913,46.4143852 C50.7743297,46.4143852 51.8383025,46.0830626 52.6539209,45.4232019 C53.1026521,45.0640371 53.4977614,44.5684455 53.8364265,43.9336427 L59.6925102,43.9336427 C59.5372887,45.2143852 58.826092,46.5201856 57.5673868,47.8454756 C55.6031293,49.9475638 52.8514755,51 49.3152476,51 C46.3942613,51 43.8175844,50.1146172 41.5908615,48.3382831 C39.3528498,46.5647332 38.2408994,43.67471 38.2408994,39.6765661 C38.2408994,35.9262181 39.248428,33.050116 41.2606631,31.0482599 C43.2785425,29.0519722 45.8890859,28.0468677 49.1035819,28.0468677 C51.0142174,28.0468677 52.7329427,28.3865429 54.26258,29.063109 L54.26258,29.063109 L54.26258,29.063109 Z M17.9125279,37.3795824 L17.9125279,45.1837587 L25.1148053,45.1837587 C26.4017326,45.1837587 27.406439,45.0111369 28.1204579,44.6686775 C29.4214963,44.0283063 30.0706043,42.8143852 30.0706043,41.0157773 C30.0706043,39.4900232 29.4440739,38.4459397 28.1825465,37.875174 C27.4769942,37.5577726 26.4863989,37.3907193 25.2164048,37.3795824 L17.9125279,37.3795824 L17.9125279,37.3795824 Z M17.9125279,26.0812065 L17.9125279,32.537819 L25.1260941,32.537819 C26.4101992,32.537819 27.4572388,32.2955916 28.2643906,31.8111369 C29.0658979,31.3266821 29.4694738,30.4691415 29.4694738,29.2440835 C29.4694738,27.8770302 28.9388985,26.9777262 27.8777479,26.537819 C26.9577078,26.2343387 25.7893133,26.0812065 24.3697421,26.0812065 L17.9125279,26.0812065 L17.9125279,26.0812065 Z M34.021697,24.1183295 C34.927626,25.362877 35.3820017,26.849652 35.3820017,28.5842227 C35.3820017,30.3689095 34.927626,31.8083527 34.0104081,32.8941995 C33.4967661,33.5011601 32.7432363,34.0580046 31.7469965,34.5591647 C33.2597005,35.1048724 34.399873,35.9651972 35.1759804,37.1429234 C35.9436213,38.3178654 36.3302639,39.7489559 36.3302639,41.4306265 C36.3302639,43.1651972 35.8899993,44.7215777 35.0066479,46.0969838 C34.4478505,47.0074246 33.7479427,47.7758701 32.9069244,48.399536 C31.9614844,49.1150812 30.8467118,49.6023202 29.5569623,49.8696056 C28.2672128,50.1341067 26.8730415,50.262181 25.3659819,50.262181 L12,50.262181 L12,21 L26.3339996,21 C29.9520716,21.0529002 32.5118151,22.0914153 34.021697,24.1183295 L34.021697,24.1183295 L34.021697,24.1183295 Z" fill="#FFF"/></g></svg>