<?xml version="1.0" ?><svg id="Layer_1" style="enable-background:new 0 0 32 32;" version="1.1" viewBox="0 0 32 32" xml:space="preserve" xmlns="http://www.w3.org/2000/svg" xmlns:xlink="http://www.w3.org/1999/xlink"><style type="text/css">
	.st0{fill:url(#SVGID_1_);}
	.st1{fill:#FFFFFF;}
</style><g><linearGradient gradientTransform="matrix(16.0027 -27.7174 27.7174 16.0027 -878.9595 -482.2268)" gradientUnits="userSpaceOnUse" id="SVGID_1_" x1="-1.206969e-06" x2="1" y1="32" y2="32"><stop offset="0" style="stop-color:#FEC053"/><stop offset="0.327" style="stop-color:#F2203E"/><stop offset="0.648" style="stop-color:#B729A8"/><stop offset="1" style="stop-color:#5342D6"/></linearGradient><path class="st0" d="M16,0L16,0c8.8,0,16,7.2,16,16c0,8.8-7.2,16-16,16C7.2,32,0,24.8,0,16C0,7.2,7.2,0,16,0z"/><path class="st1" d="M20.7,6h-9.5C8.3,6,6,8.4,6,11.4v9.2c0,2.9,2.3,5.3,5.3,5.4h9.5c2.9,0,5.3-2.4,5.3-5.4v-9.2   C26,8.4,23.7,6,20.7,6z M24.2,20.5c0,2-1.6,3.7-3.7,3.7h-9.1c-2,0-3.7-1.7-3.6-3.7v-9c0-2,1.6-3.7,3.6-3.7h9.1c2,0,3.7,1.7,3.7,3.7   V20.5z"/><path class="st1" d="M16,10.9c-2.8-0.1-5.2,2.2-5.2,5c-0.1,2.8,2.2,5.2,5,5.2s5.2-2.2,5.2-5l0-0.1C21.1,13.2,18.8,10.9,16,10.9z    M16,19.3c-1.8,0-3.3-1.4-3.4-3.2c0-1.8,1.4-3.3,3.2-3.4s3.3,1.4,3.4,3.2l0,0.1C19.3,17.8,17.8,19.3,16,19.3z"/><path class="st1" d="M21.3,9.4c0.6,0,1.1,0.5,1.1,1.2s-0.5,1.2-1.1,1.2s-1.1-0.5-1.1-1.2S20.7,9.4,21.3,9.4z"/></g></svg>