<?xml version="1.0" ?><svg height="72" viewBox="0 0 72 72" width="72" xmlns="http://www.w3.org/2000/svg"><g fill="none" fill-rule="evenodd"><path d="M36,72 L36,72 C55.882251,72 72,55.882251 72,36 L72,36 C72,16.117749 55.882251,-3.65231026e-15 36,0 L36,0 C16.117749,3.65231026e-15 -2.4348735e-15,16.117749 0,36 L0,36 C2.4348735e-15,55.882251 16.117749,72 36,72 Z" fill="#6C953E"/><path d="M18.9936559,34.8418065 C18.3793333,35.259871 17.7487527,36.2086452 18.1017849,37.3316129 C18.397914,38.2722581 21.2639785,41.4611613 22.1035914,42.1010323 L23.0813978,42.9592258 C23.7108172,43.520129 24.3936559,43.9590968 25.0753333,44.4723871 C25.4144301,44.7290323 25.7663011,44.9229677 26.1355914,45.1668387 C27.8148172,46.2747097 30.330172,47.3152258 32.2904301,47.8621935 C37.4047527,49.2917419 42.4830753,48.7110968 47.3210107,46.832129 L49.7841075,45.7068387 C50.1441075,45.4861935 50.5284946,45.2899355 50.9117204,45.0809032 C52.0358495,44.4665806 53.4584301,43.6827097 53.6651398,42.5005161 C53.8253978,40.3823226 51.8395914,39.3011613 50.1487527,40.4868387 C48.9398495,41.3345806 47.4429462,42.1068387 45.9367527,42.7362581 C38.8749462,45.6812903 31.9257849,44.4932903 26.1448817,39.8910968 C23.3229462,37.644 21.9305591,35.2668387 21.4532688,34.935871 C20.4232043,34.2251613 19.7415269,34.5770323 18.9936559,34.8418065 M29.9945591,24 C31.9327527,24 33.5039785,25.5712258 33.5039785,27.5094194 C33.5039785,29.4476129 31.9327527,31.0188387 29.9945591,31.0188387 C28.0563656,31.0188387 26.4839785,29.4476129 26.4839785,27.5094194 C26.4839785,25.5712258 28.0563656,24 29.9945591,24 M43.7872043,26.3086452 C45.7253978,26.3086452 47.2966237,27.879871 47.2966237,29.8180645 C47.2966237,31.7574194 45.7253978,33.3286452 43.7872043,33.3286452 C41.8478495,33.3286452 40.2766237,31.7574194 40.2766237,29.8180645 C40.2766237,27.879871 41.8478495,26.3086452 43.7872043,26.3086452" fill="#FFF"/></g></svg>