<?xml version="1.0" ?><svg height="72" viewBox="0 0 72 72" width="72" xmlns="http://www.w3.org/2000/svg"><g fill="none" fill-rule="evenodd"><path d="M36,72 L36,72 C55.882251,72 72,55.882251 72,36 L72,36 C72,16.117749 55.882251,-3.65231026e-15 36,0 L36,0 C16.117749,3.65231026e-15 -2.4348735e-15,16.117749 0,36 L0,36 C2.4348735e-15,55.882251 16.117749,72 36,72 Z" fill="#03ACEB"/><path d="M36.2045973,21.3635462 C42.8260221,21.7532442 46.70372,24.678887 47.0810669,27.4106502 C47.2653974,29.196281 46.0831725,30.5844588 44.0323741,30.5844588 C41.0377259,30.5844588 40.7317951,26.5740598 35.5753641,26.5740598 C33.2485524,26.5740598 31.2846113,27.5453965 31.2846113,29.6528674 C31.2846113,34.056842 47.8097035,31.498601 47.8097035,41.1945185 C47.8097035,46.7840666 43.3558519,50.4454824 36.7074048,50.4454824 C30.8609405,50.4454824 24.9835936,47.7835158 25.0135111,43.1992333 C25.023162,41.8159025 26.0509739,40.5469607 27.4175294,40.5469607 C30.8609405,40.5469607 30.8290928,45.6857388 36.3117214,45.6857388 C40.1575715,45.6857388 41.4710476,43.5782679 41.4710476,42.1086607 C41.4710476,36.8041155 24.8475171,40.0564454 24.8475171,30.0784331 C24.8475171,24.678887 29.2646956,20.9544603 36.2045973,21.3635462 M15.4534129,36.0159951 C15.4534129,47.4044813 24.6438849,56.6389654 35.9835936,56.6389654 C37.2999649,56.6389654 38.5854536,56.5100355 39.8313739,56.2715636 C41.6370416,57.3679526 43.7534655,58 46.0194771,58 C52.6351114,57.9980612 58,52.6091784 58,45.9620172 C58,43.6315847 57.337954,41.4581947 56.1981927,39.6134306 C56.4018249,38.4453061 56.5147394,37.2432528 56.5147394,36.0159951 C56.5147394,24.6255701 47.3223373,15.3939941 35.9835936,15.3939941 C34.6932795,15.3939941 33.4299877,15.5190465 32.203369,15.7478244 C30.3899807,14.6388332 28.2600456,14 25.9824531,14 C19.3648886,14 14,19.3888828 14,26.036044 C14,28.3538743 14.6543253,30.5156315 15.7834708,32.3526405 C15.5701878,33.5420917 15.4534129,34.7645024 15.4534129,36.0159951" fill="#FFF"/></g></svg>