<?xml version="1.0" ?><svg height="72" viewBox="0 0 72 72" width="72" xmlns="http://www.w3.org/2000/svg"><g fill="none" fill-rule="evenodd"><path d="M36,72 L36,72 C55.882251,72 72,55.882251 72,36 L72,36 C72,16.117749 55.882251,-3.65231026e-15 36,0 L36,0 C16.117749,3.65231026e-15 -2.4348735e-15,16.117749 0,36 L0,36 C2.4348735e-15,55.882251 16.117749,72 36,72 Z" fill="#E34514"/><path d="M37.2595141,12 C37.6786891,12.3235058 38.0423851,12.7216668 38.4430671,13.0700576 C42.0615338,16.5166385 45.3779479,20.3240528 48.0471065,24.573177 C50.6299644,28.6854332 52.614943,33.2331781 53.4963818,38.0359948 C53.9833029,40.66759 54.1436373,43.3675569 53.8600161,46.0303206 C53.7306267,47.1439271 53.5395322,48.2575335 53.1881649,49.3213699 C52.6950178,50.8642437 52.0477622,52.3635686 51.1600975,53.7198044 C50.3957195,54.8894022 49.440247,55.9345748 48.3368304,56.7806669 C47.1224557,57.7076354 45.7354796,58.3857533 44.2930244,58.8523482 C42.4991402,59.4309258 40.6190169,59.717104 38.7451197,59.8726357 C36.5074031,60.0405476 34.2574196,60.0716539 32.0259907,59.7855379 C29.4986119,59.4682534 26.9897261,58.7901355 24.7397425,57.5645463 C22.6561961,56.432276 20.8253876,54.7712604 19.6479989,52.6808531 C18.2856801,50.2918873 17.8356834,47.4612116 18.0514352,44.7300762 C18.2733514,41.8371879 19.1856735,39.0313973 20.3938839,36.4122446 C21.4418214,34.1601466 22.7240038,32.0262527 24.1479044,29.9981202 C25.3622791,28.281051 26.6691188,26.6324157 28.099307,25.089542 C28.1239027,25.0708782 28.1732791,25.0273293 28.2041008,25.0086655 C28.1794434,26.3089099 28.3027302,27.6153756 28.6725905,28.8658499 C29.0486152,30.1412093 29.683542,31.3419135 30.5280564,32.3684222 C30.5774328,32.4306349 30.6143572,32.5177326 30.7068222,32.5302373 C32.5376308,31.1428952 34.2698099,29.5875789 35.6198,27.7149781 C37.0191049,25.7801024 37.9560227,23.5155619 38.313616,21.1452598 C38.7882084,18.0781761 38.3814237,14.886667 37.2595141,12 L37.2595141,12 Z" fill="#FFF"/></g></svg>