<?xml version="1.0" ?><svg height="72" viewBox="0 0 72 72" width="72" xmlns="http://www.w3.org/2000/svg"><g fill="none" fill-rule="evenodd"><path d="M36,72 L36,72 C55.882251,72 72,55.882251 72,36 L72,36 C72,16.117749 55.882251,-3.65231026e-15 36,0 L36,0 C16.117749,3.65231026e-15 -2.4348735e-15,16.117749 0,36 L0,36 C2.4348735e-15,55.882251 16.117749,72 36,72 Z" fill="#7F4DA0"/><path d="M36,62 C50.3594035,62 62,50.3594035 62,36 C62,21.6405965 50.3594035,10 36,10 C21.6405965,10 10,21.6405965 10,36 C10,50.3594035 21.6405965,62 36,62 Z M37.5571629,51.4092073 C39.3250625,51.1885637 40.7537333,50.7626724 42.3212328,49.9980941 C43.8629385,49.2437415 44.8496439,48.5304918 46.1550194,47.2322711 C47.3781599,46.005859 48.0565509,45.0770405 48.7760021,43.6351454 C49.7781742,41.6236084 50.3486317,39.2323957 50.446219,36.5999928 C50.4822541,35.7020325 50.4565556,35.5018499 50.2509396,35.2453211 C49.8603901,34.7475069 49.0020911,34.8297031 48.7092243,35.3889765 C48.6166623,35.5737252 48.5909638,35.7327287 48.5601352,36.451177 C48.5087288,37.5544327 48.4317194,38.2676824 48.2775097,39.1195223 C47.671103,42.4600239 46.0676543,45.1283692 43.5083192,47.0424095 C41.3755781,48.6433747 39.1708433,49.4233869 36.2826923,49.5927018 C35.3062281,49.6491433 35.1366471,49.6850285 34.9156787,49.8543911 C34.5044561,50.1776823 34.4839736,50.9371002 34.8796437,51.2911638 C35.1211994,51.511855 35.2907709,51.5426274 36.1284922,51.5169678 C36.5653274,51.5015816 37.2076833,51.4502625 37.5571629,51.4092073 L37.5571629,51.4092073 Z M25.8090123,50.8549991 C25.9889204,50.7934448 26.2664254,50.6497894 26.4257556,50.5471417 C27.402134,49.9005592 30.1207993,46.426647 31.0099174,44.692195 C31.5186415,43.7018602 31.688213,42.9680639 31.5289781,42.4241291 C31.3644318,41.8391485 31.0921429,41.5312435 29.874123,40.5511345 C29.3858909,40.1560632 28.9284779,39.7506709 28.856589,39.6429008 C28.6715603,39.3760511 28.5224712,38.852663 28.5224712,38.4832036 C28.5276872,37.6262509 29.0826875,36.0714347 29.8124753,34.8758046 C30.3777169,33.9470242 31.3901303,32.7566022 32.3923024,31.8431604 C33.5691666,30.7655166 34.6072784,30.0318154 35.7790221,29.4519002 C37.2847881,28.7027557 38.2047348,28.5128941 38.8779956,28.8258643 C39.0475671,28.9028525 39.2273894,29.0055002 39.2840022,29.0516208 C39.3353133,29.0978365 39.7310787,29.5802169 40.1627838,30.1138212 C40.995289,31.1606831 41.1854383,31.3299981 41.7558959,31.524982 C42.4805631,31.7712851 43.2205921,31.7046179 43.9657418,31.3248852 C44.5310787,31.0323664 45.76447,30.2677976 46.561026,29.7136275 C47.6093791,28.9798311 49.8500631,27.1530428 50.1533618,26.7886582 C50.6877843,26.13185 50.7803463,25.2903787 50.4205301,24.3615032 C50.0402219,23.3814894 48.5601543,21.5443896 47.5271631,20.7592646 C46.5918546,20.0511278 45.9289304,19.7792509 45.05526,19.7381575 C44.3358087,19.7022627 44.037726,19.7638171 43.1177793,20.1435498 C35.9023936,23.1146396 30.1413676,27.5481141 25.5674471,33.6391573 C23.1777789,36.8206173 21.3584729,40.1201018 20.114745,43.542752 C19.3901732,45.5388457 19.354224,46.4060718 19.9502941,47.427217 C20.207307,47.8582307 21.3019459,48.9255917 22.0985019,49.5208075 C23.4244552,50.5060674 24.0359826,50.8704139 24.5242147,50.973014 C24.8582466,51.0448703 25.4389454,50.9884288 25.8090123,50.8549991 L25.8090123,50.8549991 Z M37.9117727,47.6889348 C41.031324,47.2322711 43.4466907,45.7851774 45.0295615,43.4350105 C45.9186796,42.1111112 46.47368,40.556295 46.6638388,38.8886054 C46.7306071,38.2779558 46.7306071,37.1644267 46.6587182,36.9796779 C46.5918546,36.8052502 46.3760068,36.5691728 46.1909686,36.4717237 C45.9905685,36.369076 45.5640794,36.3793017 45.3276443,36.5024961 C44.9318789,36.7025929 44.8137138,37.0207713 44.8137138,37.8828369 C44.8137138,39.211849 44.4693548,40.6127365 43.8732846,41.700606 C43.1948937,42.9424043 42.2081978,43.9686719 41.0056351,44.6819692 C39.972644,45.2977317 38.4463001,45.754405 37.0535785,45.8672784 C36.5498892,45.9083718 36.2723843,46.0109814 36.082235,46.2316249 C35.7893682,46.5651895 35.7584538,47.0167499 36.0051302,47.3913126 C36.2723748,47.8069687 36.683502,47.8736836 37.9117727,47.6889348 L37.9117727,47.6889348 Z M39.0064115,43.8147432 C40.0188249,43.5992125 40.7948985,43.2143669 41.4578227,42.5934535 C42.3109057,41.7878771 42.7786458,40.8128809 42.984157,39.4119935 C43.1229095,38.4985993 43.0663825,38.1394228 42.7426013,37.8417911 C42.4394074,37.5647061 41.8792865,37.5544327 41.5400481,37.8161316 C41.2933718,38.0008803 41.2162669,38.1958643 41.1597399,38.7243652 C41.0929717,39.4273892 40.9695906,39.9199954 40.7589493,40.3767163 C40.3066568,41.3465424 39.5101008,41.8494314 38.163665,42.0136335 C37.5314645,42.0906216 37.3413152,42.1624493 37.1357944,42.4035919 C36.7606069,42.8500395 36.9044799,43.5735625 37.4235406,43.8404123 C37.6189059,43.9378995 37.7011314,43.9481728 38.1327506,43.9225133 C38.4000048,43.9071176 38.7957702,43.8609494 39.0064115,43.8147432 L39.0064115,43.8147432 Z" fill="#FFF" transform="matrix(1 0 0 -1 0 72)"/></g></svg>