<?xml version="1.0" ?><!DOCTYPE svg  PUBLIC '-//W3C//DTD SVG 1.1//EN'  'http://www.w3.org/Graphics/SVG/1.1/DTD/svg11.dtd'><svg enable-background="new 0 0 512 512" height="512px" id="Layer_1" version="1.1" viewBox="0 0 512 512" width="512px" xml:space="preserve" xmlns="http://www.w3.org/2000/svg" xmlns:xlink="http://www.w3.org/1999/xlink"><g id="Ebay"><circle cx="256" cy="256" fill="#DCECC3" r="256"/><g><path d="M129.994,221.074c-23.869,0-43.76,9.572-43.76,38.447c0,22.877,13.375,37.282,44.378,37.282    c36.491,0,38.829-22.719,38.829-22.719h-17.682c0,0-3.792,12.233-22.227,12.233c-15.016,0-25.815-9.588-25.815-23.024h67.573    v-8.433C171.291,241.567,162.362,221.074,129.994,221.074z M129.379,231.852c14.293,0,24.038,8.276,24.038,20.679h-49.309    C104.108,239.362,116.827,231.852,129.379,231.852z" fill="#E53338" id="e_2_"/><path d="M171.279,193.113v89.189c0,5.062-0.381,12.171-0.381,12.171h16.863c0,0,0.604-5.105,0.604-9.772    c0,0,8.332,12.32,30.989,12.32c23.857,0,40.062-15.655,40.062-38.083c0-20.865-14.883-37.645-40.024-37.645    c-23.54,0-30.856,12.014-30.856,12.014v-40.194L171.279,193.113L171.279,193.113z M215.038,232.325    c16.201,0,26.504,11.364,26.504,26.614c0,16.354-11.899,27.052-26.389,27.052c-17.29,0-26.618-12.761-26.618-26.905    C188.536,245.904,196.905,232.325,215.038,232.325z" fill="#3466B1" id="b_2_"/><path d="M301.328,221.074c-35.91,0-38.212,18.584-38.212,21.554h17.872c0,0,0.937-10.849,19.108-10.849    c11.805,0,20.955,5.107,20.955,14.927v3.496h-20.955c-27.819,0-42.528,7.691-42.528,23.301c0,15.361,13.588,23.72,31.953,23.72    c25.029,0,33.091-13.071,33.091-13.071c0,5.198,0.423,10.322,0.423,10.322h15.89c0,0-0.617-6.35-0.617-10.413v-35.116    C338.308,225.92,318.658,221.074,301.328,221.074L301.328,221.074z M321.051,260.687v4.659c0,6.079-3.968,21.19-27.332,21.19    c-12.793,0-18.277-6.035-18.277-13.034C275.442,260.768,293.913,260.687,321.051,260.687L321.051,260.687z" fill="#F3AF1C" id="a_2_"/><path d="M328.683,223.989h20.11l28.859,54.643l28.791-54.643h18.216l-52.444,97.283h-19.106    l15.133-27.119L328.683,223.989z" fill="#86B940" id="y_2_"/></g></g></svg>