<?xml version="1.0" ?><svg height="128px" version="1.1" viewBox="0 0 128 128" width="128px" xmlns="http://www.w3.org/2000/svg" xmlns:sketch="http://www.bohemiancoding.com/sketch/ns" xmlns:xlink="http://www.w3.org/1999/xlink"><title/><defs/><g fill="none" fill-rule="evenodd" id="circle-Copy" stroke="none" stroke-width="1"><g id="money_gram"><path d="M64,128 C99.3462257,128 128,99.3462257 128,64 C128,28.6537743 99.3462257,0 64,0 C28.6537743,0 0,28.6537743 0,64 C0,99.3462257 28.6537743,128 64,128 Z" fill="#CA4638" id="Oval-2"/><path d="M61.9056588,0.0336203114 C40.2059031,0.731279268 21.2347692,12.2312072 10.1938157,29.3318455 C9.71506018,30.3709819 9.26624002,31.2897813 8.86554236,32.0330276 C7.29316366,34.9496024 3.97666409,41.6351988 2.91598269,49.212574 C1.70005286,57.8990255 2.95283489,67.613069 4.78896469,71.7167969 C7.12942845,76.9477051 13.5088206,83.8263615 22.0585937,87.1135254 C25.557027,88.4585817 40.927199,90.2599333 52.4654979,86.2017441 C69.1583283,80.3306302 82.8359375,67.4804688 82.8359375,67.4804688 L85.9824215,89.078125 L97.0527344,46.3417969 L55.0996094,52.1328125 L76.0449219,58.015625 C76.0449219,58.015625 65.2391306,68.8732824 53.4054508,72.9317398 C51.8672254,73.4592868 40.7863903,76.4529296 33.2316055,73.8123856 C29.8496998,72.6303438 23.514593,70.3098191 20.5926837,64.5043106 C19.1369229,61.6118757 17.4417736,54.1862078 18.4103374,46.3417969 C18.6479187,44.4176224 20.0939346,34.74804 25.0942649,26.4471951 C28.7473431,20.3828698 35.9913514,15.0941723 37.6422557,13.8660927 C48.3189831,5.92385694 60.1277165,0.786959146 61.9056588,0.0336203114 Z" fill="#FFFFFF" id="Oval-2"/></g></g></svg>