<?xml version="1.0" ?><svg height="128px" version="1.1" viewBox="0 0 128 128" width="128px" xmlns="http://www.w3.org/2000/svg" xmlns:sketch="http://www.bohemiancoding.com/sketch/ns" xmlns:xlink="http://www.w3.org/1999/xlink"><title/><defs/><g fill="none" fill-rule="evenodd" id="circle-Copy" stroke="none" stroke-width="1"><g id="bbb_better_business_bureau"><path d="M64,128 C99.3462257,128 128,99.3462257 128,64 C128,28.6537743 99.3462257,0 64,0 C28.6537743,0 0,28.6537743 0,64 C0,99.3462257 28.6537743,128 64,128 Z" fill="#FFFFFF" id="Oval-2"/><g fill="#265797" id="Group" transform="translate(33.000000, 12.000000)"><path d="M30.6245017,0.176332661 C26.4680089,8.81413353 11.6257536,17.1922895 29.9179156,30.5334191 C34.9667659,34.2861788 43.4324786,36.5309363 39.1035714,45.3589704 C38.7196932,46.0317483 39.3885897,46.2171999 39.9868073,45.7119615 C46.1604806,38.5528029 56.2158169,27.2607638 47.7545349,18.0387954 C42.9501602,12.8440971 33.0916295,9.41865625 31.1183879,4.48654361 C30.7366112,3.53228521 31.1587223,2.14972402 31.6843875,1.05880618 C32.1081544,0.0442482383 30.8499536,-0.220776392 30.6245017,0.176332661 Z M21.9975575,30.1517494 C19.8226387,35.987241 8.82611815,42.6994407 23.5074021,50.4471112 C26.9020349,52.4443126 31.2937232,54.9439397 30.8119807,58.6018936 C30.6306008,59.0684711 31.0553744,59.131855 31.3815269,58.755369 C36.2185983,53.2939055 39.8496877,45.4792392 33.9258416,40.23914 C30.8315779,37.2844001 23.5121326,35.68828 22.7177612,30.6321224 C22.8962168,29.9415727 22.1039229,29.8764448 21.9975575,30.1517494 Z M12.2754251,60 L10,64 L51,64 L48.7245749,60 L12.2754251,60 Z M20,65 L22.6923092,72 L38.5230763,71.9485307 L41,65 L20,65 Z" id="path6722"/><path d="M5,96.064342 L5.28469105,97 L13.8718416,96.8620675 C19.2195618,96.8487213 21.5950747,87.656165 14.953686,85.7586189 C19.9253835,81.9806221 16.9736747,74.9643231 13.128076,75.0689679 L5.35230876,75 L5,75.1796719 L5,75 L0,75 L0,97 L5,97 L5,96.064342 Z M5,93.0078588 L12.249075,93.068964 C14.840766,93.1436867 15.0083616,87.7955669 12.3166895,87.7586225 L5,87.8930855 L5,93.0078588 Z M5,83.7586219 L11.3024595,83.7586219 C14.3510673,83.888096 13.405331,78.9185237 11.370074,78.9310327 L5,78.7997763 L5,83.7586219 Z" id="b"/><path d="M49,96.064342 L49.2846911,97 L57.8718416,96.8620675 C63.2195618,96.8487213 65.5950747,87.656165 58.953686,85.7586189 C63.9253835,81.9806221 60.9736747,74.9643231 57.128076,75.0689679 L49.3523088,75 L49,75.1796719 L49,75 L44,75 L44,97 L49,97 L49,96.064342 Z M49,93.0078588 L56.249075,93.068964 C58.840766,93.1436867 59.0083616,87.7955669 56.3166895,87.7586225 L49,87.8930855 L49,93.0078588 Z M49,83.7586219 L55.3024595,83.7586219 C58.3510673,83.888096 57.405331,78.9185237 55.370074,78.9310327 L49,78.7997763 L49,83.7586219 Z" id="b"/><path d="M27,96.064342 L27.2846911,97 L35.8718416,96.8620675 C41.2195618,96.8487213 43.5950747,87.656165 36.953686,85.7586189 C41.9253835,81.9806221 38.9736747,74.9643231 35.128076,75.0689679 L27.3523088,75 L27,75.1796719 L27,75 L22,75 L22,97 L27,97 L27,96.064342 Z M27,93.0078588 L34.249075,93.068964 C36.840766,93.1436867 37.0083616,87.7955669 34.3166895,87.7586225 L27,87.8930855 L27,93.0078588 Z M27,83.7586219 L33.3024595,83.7586219 C36.3510673,83.888096 35.405331,78.9185237 33.370074,78.9310327 L27,78.7997763 L27,83.7586219 Z" id="b"/></g></g></g></svg>