<?xml version="1.0" ?><svg enable-background="new 0 0 158.52 155.031" version="1.1" viewBox="0 0 158.52 155.031" xml:space="preserve" xmlns="http://www.w3.org/2000/svg" xmlns:xlink="http://www.w3.org/1999/xlink"><g id="icons"><path d="M101.444,69.739c-2.562-10.051-14.92-16.507-24.701-15.647c-9.767,0.859-17.92,7.151-20.1,16.778   c-2.273,10.04,0.7,22.89,11.236,27.446c10.001,4.326,21.109,3.908,28.743-4.614C102.24,87.431,104.004,77.705,101.444,69.739z" fill="#0D71BA"/><path d="M111.787,91.045c-1.827,4.389-3.997,8.769-6.38,12.945c-3.674,6.439-18.019,28.46-21.792,34.842   c-2.737,4.631-1.942,8.408,3.576,8.062c14.465-0.907,31.368-3.552,42.217-12.98c13.38-11.628,17.155-28.208,19.227-45.675   c1.379-11.621,2.794-26.07-5.308-34.559c-11.817-12.382-61.071-5.995-61.071-5.995C103.181,47.685,119.918,71.672,111.787,91.045z" fill="#FEE000"/><path d="M45.998,92.605c9.665,19.874,38.27,27.388,51.409,9.58c-9.59,16.807-13.824,21.465-24.771,37.422   c-6.823,9.945-18.207,3.342-25.969-1.124c-15.288-8.795-27.694-22.887-33.287-39.727c-7.167-21.578-4.748-50.549,4.866-51.823   c3.166-0.419,4.534,2.519,8.111,9.879C31.182,66.74,40.389,81.072,45.998,92.605z" fill="#4BB964"/><path d="M135.852,35.337c0,4.952-2.648,5.348-6.162,5.348c-7.752,0-33.504,0-41.256,0   c-6.719,0-18.133,0.237-24.272,3.534c-13.527,7.265-24.444,22.24-18.204,36.326c-9.975-16.861-12.42-23.487-19.926-41.583   c-1.256-3.028-0.167-7.124,1.285-8.883c5.898-7.145,13.112-13.199,21.231-17.672c17.473-9.627,38.672-8.41,57.613-2.261   C126.027,16.596,135.852,28.893,135.852,35.337z" fill="#ED1C24"/><path d="M151.447,48.763C139.629,18.409,109.652-0.824,77.148,0.679C45.461,2.144,17.871,22.425,6.987,52.12   c-5.585,15.237-7.04,32.211-2.454,47.891c2.285,7.811,5.966,15.296,10.764,21.873c4.85,6.649,11.228,11.43,17.688,16.407   c25.829,19.899,62.59,21.923,90.156,4.2C153.669,122.863,164.48,81.973,151.447,48.763z M29.167,26.478   C43.528,11.276,67.408,4.548,87.922,6.413c23.922,2.175,43.765,16.408,55.483,37.105c-10.236-0.923-20.277-0.453-30.505,0.121   c-5.643,0.316-11.191-0.34-16.82-0.267c-4.824,0.063-9.615,0.551-14.426,0.794c-8.261,0.419-16.737,1.479-23.422,6.858   c-7.321,5.89-11.852,14.88-12.386,24.252c-2.933-5.137-6.071-10.141-9.116-15.212c-2.572-4.282-5.054-8.621-7.48-12.987   c-1.972-3.549-3.989-7.083-5.616-10.808c-1.064-2.437-0.304-2.954,1.309-4.943C26.291,29.66,27.701,28.043,29.167,26.478z    M106.151,80.167c-2.786,13.097-11.227,23.78-25.558,24.433c-15.362,0.7-28.834-11.654-29.087-27.086   C51.24,61.37,66.086,48.956,81.922,50.519C96.438,51.952,107.992,65.5,106.151,80.167z M51.918,143.415   c-18.953-7.878-34.547-23.197-41.212-42.801c-6.79-19.974-2.701-42.832,8.112-60.632c4.623,9.301,10.925,17.649,15.615,26.918   c2.403,4.749,5.12,9.269,7.906,13.801c5.452,8.866,10.01,19.037,19.132,24.731c9.352,5.837,21.613,7.037,31.699,2.386   c-4.345,8.066-9.056,15.866-13.78,23.714c-2.901,4.819-5.801,9.638-8.702,14.458c-0.299,0.497-0.928,2.181-1.469,2.441   c-1.615,0.776-6.722-1.458-8.422-1.944C57.785,145.626,54.813,144.613,51.918,143.415z M146.555,106.493   c-6.262,12.34-15.284,24.012-27.023,31.519c-12.721,8.134-28.618,12.238-43.689,11.211c2.392-3.938,4.761-7.891,7.177-11.814   c2.492-4.045,5.277-7.931,7.5-12.139c2.786-5.275,4.816-10.523,8.105-15.576c3.26-5.007,5.678-10.466,8.669-15.617   c2.828-4.87,4.741-10.168,4.969-15.844c0.463-11.549-5.715-22.764-15.43-28.9c15.736-0.425,31.455-0.396,47.184,0.425   c3.273,0.171,2.939,0.663,3.928,3.821c0.79,2.522,1.32,5.127,1.733,7.734c0.68,4.292,1.144,8.649,1.597,12.971   C152.392,84.958,150.902,96.652,146.555,106.493z"/></g><g id="Isolation_Mode"/><g id="Calque_1"/><g id="_x30_16_soundcloud"/><g id="Layer_1"/></svg>