<?xml version="1.0" ?><!DOCTYPE svg  PUBLIC '-//W3C//DTD SVG 1.1//EN'  'http://www.w3.org/Graphics/SVG/1.1/DTD/svg11.dtd'><svg enable-background="new 0 0 155.677 154.259" height="154.259px" id="icons" version="1.1" viewBox="0 0 155.677 154.259" width="155.677px" xml:space="preserve" xmlns="http://www.w3.org/2000/svg" xmlns:xlink="http://www.w3.org/1999/xlink"><g><path d="M151.771,86.41c-0.192-7.789-0.386-40.574-1-48.344c-1.403-17.764-46.133-34.324-61.936-35.385   C75.124,1.76,44.054-2.068,31.172,3.924C10.47,13.555,8.902,34.088,3.5,55.363C0.102,68.754,2.833,85.092,3.534,98.643   c0.677,13.08,1.876,22.777,10.465,33.281c8.046,9.84,19.97,11.867,32.11,12.826c13.848,1.094,66.118,4.436,77.985-0.135   c13.135-5.059,23.203-15.195,26.288-28.697C152.604,106.195,152.014,96.277,151.771,86.41z" fill="#4D4D4E"/><path d="M42.967,3.171c0,0-25.678,1.4-35.114,12.334c-5.733,6.642-4,22.707-4,22.707   c11.249,0.889,39.114-1,39.114-1V3.171z" fill="#ED1C24"/><path d="M113.193,37.212c-5.411,1.688-25.425,0.395-36.114,0c-3.265-0.119,0-33.041,0-33.041h36.114   C113.193,4.171,117.983,35.72,113.193,37.212z" fill="#4BB964"/><path d="M76.078,37.212c-7.643,0.846-27.152,1.395-35.111,0c-1.154-5.707-1-33.041-1-33.041h38.111   C78.078,4.171,78.097,36.989,76.078,37.212z" fill="#0D71BA"/><path d="M134.804,4.171h-21.611c0,0-2.638,31.26,0,33.041c2.59,1.75,34.229,1.967,36.111,0s-2-21.707-2-21.707   C147.304,9.271,139.482,4.171,134.804,4.171z" fill="#FEE000"/><g><path d="M116.36,82.613c-11.04-3.457-21.04,1.771-31.555,0.871c-0.258-9.918,0.137-17.828-1.621-27.682    c-1.677-9.412-15.972-5.406-14.302,3.941c1.446,8.086,0.947,19.129,0.816,19.121c-9.556-0.506-30.008-0.354-30.734,1.404    c-3.615,8.756-1.159,18.047-1.159,18.047c4.148-0.477,26.767,0.77,30.929,1.057c0.911,9.209,0.23,18.375,0.454,26.289    c0.119,4.225,17.697,3.951,17.707,2.82c0.09-10.127,0.205-18.141-0.98-28.15c11.411,0.838,20.111,0.816,30.98-3.418    C119,96.094,118.409,83.254,116.36,82.613z" fill="#FFFFFF"/><g><path d="M154.654,33.358l-0.157-4.229l-0.059-2.108c-0.016-0.734-0.07-1.63-0.171-2.428c-0.391-3.283-1.499-6.403-3.032-9.227     c-3.071-5.661-7.926-10.196-13.843-12.902c-1.482-0.671-3.039-1.217-4.656-1.601c-1.611-0.394-3.339-0.586-4.861-0.628     c-2.936-0.082-5.771-0.078-8.63-0.078c-5.704,0.053-11.389-0.079-17.076,0.447c-2.843,0.237-5.685,0.297-8.52,0.338     C90.827,0.986,87.993,1.021,85.148,1c-5.681-0.087-11.365-0.101-17.049-0.368c-5.685-0.248-11.373-0.494-17.069-0.507     l-8.553-0.077c-2.854-0.043-5.713,0.091-8.586,0.018l-4.324,0.15h-2.179c-0.329,0-0.776-0.213-1.185-0.193     c-0.414,0.025-0.827-0.053-1.238-0.009c-3.299,0.353-6.419,1.427-9.275,2.938c-5.688,3.044-10.502,7.825-13.2,13.86     c-1.331,3.006-2.107,6.279-2.26,9.551c-0.134,2.939-0.176,5.778-0.212,8.644c-0.108,2.859,0.304,5.716,0.595,8.571     c0.138,1.428,0.142,2.851,0.168,4.278l0.095,4.287l0.049,2.161l0.075,2.163c0.052,1.4,0.093,2.802,0.109,4.204     c0.039,2.805,0.018,5.61-0.058,8.417c-0.173,5.621-0.467,11.214-0.743,16.944l-0.073,2.176L0.219,89.33l0.012,1.099l0.13,4.293     l0.317,8.583c0.353,5.709-0.354,11.469-0.007,17.112l0.201,4.234c0.025,0.706,0.073,1.411,0.118,2.115     c0.049,0.71,0.074,1.364,0.154,2.242c0.315,3.304,1.359,6.424,2.816,9.26c2.958,5.646,7.593,10.318,13.316,13.171     c2.858,1.416,5.992,2.34,9.198,2.649c1.748,0.164,3.059,0.12,4.52,0.15l4.283,0.02l17.049-0.04     c1.419-0.021,2.837,0.042,4.255,0.028c1.418,0.014,2.835-0.082,4.253-0.115l8.501-0.248l4.247-0.082l4.309,0.004     c2.913-0.055,5.733-0.164,8.589-0.184c11.382-0.125,22.753-0.114,34.11-0.364c1.42-0.026,2.84-0.044,4.257-0.104l2.137-0.075     c0.776-0.028,1.556-0.085,2.334-0.163c3.111-0.33,6.254-1.05,9.234-2.337c2.981-1.27,5.762-3.176,7.983-5.605     c2.2-2.445,3.879-5.323,4.881-8.375c1.03-3.026,1.432-6.26,1.412-9.293c-0.009-1.445-0.026-2.866,0.006-4.29l0.191-4.26     l0.653-17.019c0.435-11.342,1.022-22.67,1.727-33.983C156.091,56.189,155.339,44.661,154.654,33.358z M149.575,67.452     c-0.508,5.672-0.796,11.361-1.054,17.044c-0.299,5.683-0.429,11.37-0.555,17.056L147.62,118.6     c-0.064,2.833-0.089,5.687-0.211,8.479c-0.075,2.61-0.553,5.036-1.464,7.364c-1.793,4.64-5.394,8.396-9.959,10.4     c-2.273,1.02-4.763,1.636-7.325,1.91c-0.642,0.066-1.287,0.118-1.937,0.144l-2.121,0.085l-4.259,0.172     c-11.351,0.457-22.702,0.943-34.029,1.319c-2.82,0.087-5.681,0.183-8.424,0.196l-8.474-0.168     c-5.699-0.083-11.391-0.123-17.076-0.119l-17.031,0.072l-4.238-0.011c-1.381-0.02-2.905,0-4.016-0.114     c-2.485-0.232-4.931-0.939-7.202-2.055c-4.543-2.233-8.38-6.063-10.755-10.592c-1.175-2.267-1.987-4.721-2.229-7.197     c-0.058-0.579-0.094-1.33-0.143-2.037l-0.127-2.135l-0.233-4.27c-0.365-5.688,0.164-11.412-0.327-17     c-0.208-2.801-0.343-5.6-0.579-8.405l-0.279-4.215l-0.026-0.509l-0.015-0.517l-0.015-1l0.017-2.081     c0.178-5.622,0.443-11.379,0.585-17.102c0.06-2.866,0.064-5.736,0.006-8.605l-0.101-4.303l-0.061-2.101l-0.02-2.103     c-0.005-5.642,0.049-11.319,0.227-16.971c0.123-2.822,0.256-5.656,0.469-8.425c0.202-2.557,0.875-5.036,1.976-7.33     c2.19-4.591,6.048-8.381,10.576-10.685c2.266-1.146,4.689-1.932,7.124-2.313c0.632-0.093,1.17-0.144,1.879-0.187l2.088-0.12     l4.203-0.239c2.81-0.156,5.632-0.294,8.458-0.324l8.487,0.057c2.831,0.004,5.663,0.119,8.497,0.064l8.505-0.076     C73.715,5.455,79.39,5.444,85.068,5.45c2.835-0.012,5.684-0.031,8.542-0.083c2.846-0.039,5.685-0.122,8.525-0.383     c5.683-0.59,11.358-0.207,17.027-0.129c2.83,0.116,5.673,0.235,8.462,0.431c1.371,0.085,2.64,0.268,3.899,0.613     c1.258,0.339,2.486,0.81,3.667,1.387c2.362,1.156,4.531,2.729,6.414,4.578c1.872,1.856,3.545,3.926,4.796,6.221     c1.257,2.285,2.127,4.763,2.46,7.279c0.086,0.643,0.129,1.228,0.154,1.92l0.093,2.144l0.225,4.274     c0.334,5.682,1.224,11.293,1.211,16.94C150.635,56.284,150.09,61.905,149.575,67.452z"/><path d="M115.637,79.831l-0.171-0.01c-1.196-0.069-2.393-0.102-3.588-0.114c-1.196-0.016-2.393-0.057-3.589-0.051l-7.176,0.028     l-12.527,0.051l0.131-1.875l0.172-3.588l0.104-3.588c0.033-1.196,0.08-2.392,0.04-3.588c-0.039-1.196-0.177-2.392-0.206-3.588     c-0.047-1.196-0.031-2.392-0.008-3.588c0.041-2.392,0.348-4.784,0.348-7.176v-0.011c0-1.256-0.787-2.37-2.042-2.471l-0.363-0.048     H70.96c-1.339,0-2.794,1.079-2.794,2.428v0.008c0,4.834,0.225,9.627,0.364,14.438c0.123,4.15,0.386,8.303,0.649,12.454     c-1.84-0.293-3.631-0.365-5.467-0.361c-2.37,0.001-4.728,0.317-7.11,0.499c-2.384,0.178-4.759,0.133-7.145,0.145     c-2.384,0.01-4.772-0.006-7.145-0.135h0.001c-0.017-0.002-0.039-0.003-0.056-0.004c-0.924-0.044-1.707,0.67-1.751,1.594     l-0.007,0.168l-0.741,15.643c-0.045,1.302,0.957,2.412,2.266,2.489l0.165,0.01l3.603,0.212l3.599,0.121     c2.4,0.072,4.801,0.146,7.205,0.184c2.405,0.009,4.812,0.004,7.226-0.029c1.434-0.022,2.871-0.057,4.313-0.106     c-0.081,3.899-0.049,7.745-0.026,11.604c0.014,2.422-0.063,4.841-0.007,7.26l0.066,7.258v-0.159c0,1.352,1.434,2.282,2.794,2.282     h16.206v0.16c1,0.039,2.245-0.925,2.291-2.258l-0.095-0.122c0.085-2.412,0.067-4.804,0.042-7.216l-0.073-3.608l-0.134-3.613     l-0.254-7.234c-0.043-1.708-0.137-3.414-0.232-5.122c0.547,0.066,1.092,0.127,1.638,0.185l3.588,0.283     c1.195,0.052,2.391,0.118,3.588,0.13c1.195,0.023,2.391,0.073,3.588-0.085c1.196-0.166,2.392-0.383,3.588-0.531     c1.196-0.142,2.392-0.09,3.588-0.08l1.794,0.02l1.794,0.104c1.196,0.061,2.393,0.185,3.589,0.364l0.278-0.016     c1.299-0.072,2.294-1.185,2.222-2.484l-0.873-15.643C117.133,80.603,116.485,79.88,115.637,79.831z M108.289,94.533     c-1.195,0.023-2.392,0.064-3.588,0.185c-1.196,0.124-2.392,0.314-3.588,0.461c-1.196,0.108-2.393,0.181-3.588,0.184l-3.588,0.049     c-2.393-0.011-4.784-0.195-7.177-0.195h-0.002c-0.944,0-1.757,0.68-1.815,1.623l-0.015,0.241     c0.084,2.412,0.192,4.829,0.189,7.241c0.045,2.412,0.013,4.827-0.022,7.239l-0.048,3.62l-0.148,3.618     c-0.082,1.616-0.213,3.232-0.377,4.849c-0.57,0.021-1.142,0.04-1.712,0.043l-3.95,0.075c-1.317,0.017-2.634-0.017-3.95-0.035     c-0.586-0.017-1.173-0.04-1.759-0.066c-0.188-1.628-0.319-3.261-0.45-4.891l-0.162-3.609c-0.046-1.203-0.145-2.406-0.017-3.61     c0.118-1.203,0.324-2.406,0.407-3.606c0.065-1.201,0.022-2.401,0.047-3.6l0.113-7.151l0.002-0.111     c0.001-0.061-0.001-0.122-0.006-0.185c-0.085-1.156-1.092-2.024-2.248-1.938c-4.668,0.346-9.458,0.428-14.218,0.395     c-2.384-0.05-4.769-0.108-7.153-0.224l-3.575-0.215l-1.601-0.146l-0.229-1.592c-0.189-1.304-0.272-2.606-0.353-3.91     c-0.064-1.304-0.099-2.607-0.047-3.911l0.102-1.955c0.003-0.023,0.005-0.047,0.008-0.07c1.875,0.154,3.746,0.275,5.622,0.352     c2.4,0.06,4.801,0.15,7.204,0.1c2.404-0.067,4.809-0.197,7.215-0.338c2.406-0.11,4.815-0.213,7.237-0.407l0.072-0.006     c0.844-0.067,1.481-0.8,1.43-1.648c-0.197-2.371-0.294-4.751-0.346-7.133c0.002-2.383-0.05-4.768,0.06-7.151l0.303-7.151     c0.069-1.75,0.202-3.502,0.354-5.247c0.663-0.039,1.325-0.063,1.987-0.086c1.316-0.019,2.634-0.018,3.95,0.011     c1.316,0.069,2.634,0.083,3.95,0.199c0.476,0.035,0.952,0.079,1.428,0.123c-0.009,1.657,0.001,3.315,0.008,4.972     c-0.012,2.392,0.097,4.784,0.233,7.176c0.136,2.392,0.196,4.784,0.299,7.176l0.276,7.176c0.038,0.892,0.741,1.64,1.652,1.702     l0.054,0.003c2.392,0.164,4.784,0.296,7.177,0.368c2.392,0.056,4.783,0.186,7.176,0.181l7.176,0.061     c1.849,0.006,3.697-0.067,5.546-0.366c-0.006,0.654-0.017,1.309-0.039,1.963c-0.02,1.303-0.104,2.606-0.156,3.91     c-0.047,1.304-0.167,2.607-0.248,3.911c-0.04,0.447-0.085,0.895-0.13,1.342C111.605,94.479,109.947,94.466,108.289,94.533z"/></g></g></g></svg>