<?xml version="1.0" ?><!DOCTYPE svg  PUBLIC '-//W3C//DTD SVG 1.1//EN'  'http://www.w3.org/Graphics/SVG/1.1/DTD/svg11.dtd'><svg enable-background="new 0 0 155.007 155.003" height="155.003px" id="icons" version="1.1" viewBox="0 0 155.007 155.003" width="155.007px" xml:space="preserve" xmlns="http://www.w3.org/2000/svg" xmlns:xlink="http://www.w3.org/1999/xlink"><g><path d="M112.627,151.379c7.553-1.121,23.937-9.717,29.302-24.443c8.071-22.158,14.339-89.891-0.718-106.34   C128.223,6.406,113.409,4.643,94.973,2.688C73.978,0.463,45.45,0.143,27.54,12.734C12.146,23.559,5.82,43.262,5.789,61.065   c-0.082,47.266,2.188,63.012,7.109,71.598c10.667,18.611,38,17.67,59.417,20.086C85.619,154.248,99.403,153.338,112.627,151.379z" fill="#4D4D4E"/><path d="M112.565,65.664c-6.959,0.131-25.011,1.895-26.971,2.32c0.527-2.014,10.613-28.371,12.358-33.016   c1.501-3.994,4.569-10.973,2.459-14.611c-3.58-6.17-36.58,42.205-41.024,47.158c-3.8,4.234-7.482,8.6-8.942,14.219   c-0.789,3.039,0.965,6.67,4.191,7.381c5.801,1.279,11.347,0.289,16.975-0.469c-1.578,4.512-3.391,8.939-5.035,13.438   c-2.932,8.016-9.131,25.709-11.345,33.912c-1.73,6.414,30.536-25.096,38.308-34.885c7.734-9.744,17.289-18.041,24.207-28.42   C120.281,68.889,116.938,65.58,112.565,65.664z" fill="#FFFFFF"/><g><path d="M154.987,75.017c0.049-3.928-0.005-7.854-0.028-11.782c-0.062-7.855-0.227-15.709-0.429-23.576l-0.15-5.906l-0.105-2.958    l-0.055-2.975l-0.019-0.741l-0.046-0.819c-0.039-0.546-0.097-1.089-0.158-1.632c-0.131-1.085-0.334-2.158-0.598-3.216    c-0.53-2.114-1.326-4.156-2.328-6.092c-1.034-1.919-2.303-3.708-3.743-5.356c-1.472-1.619-3.137-3.068-4.946-4.32    c-3.605-2.533-7.922-4.106-12.333-4.513c-1.17-0.106-2.116-0.118-3.125-0.151l-2.975-0.061l-5.916-0.051    c-3.938-0.014-7.871,0.036-11.806-0.036L94.413,0.77c-1.96,0.006-3.983,0.084-5.909,0.132c-1.938,0.025-3.892,0.071-5.847,0.019    c-7.821-0.116-15.667-0.429-23.517-0.6L47.354,0.05c-3.935-0.177-7.866,0.16-11.811,0.332l-5.93,0.362L26.586,0.96    c-1.153,0.095-2.285,0.283-3.392,0.538c-4.437,1.03-8.376,3.221-11.774,5.968c-3.402,2.754-6.232,6.238-8.146,10.242    c-0.959,1.998-1.669,4.128-2.119,6.318c-0.229,1.102-0.386,2.189-0.47,3.34c-0.079,1.138-0.086,2.085-0.126,3.059    c-0.258,7.739-0.655,15.68-0.46,23.481C0.003,54.847,0.016,55.658,0,56.487l0.025,2.729c0.044,1.802,0.151,3.587,0.248,5.367    l0.276,5.329l0.173,5.316c0.174,7.082,0.04,14.159,0.012,21.237c-0.037,7.078-0.101,14.155-0.045,21.237l0.041,5.316    c0.001,0.888,0.05,1.774,0.076,2.664l0.053,1.349c0.021,0.485,0.055,0.971,0.095,1.457c0.329,3.883,1.434,7.809,3.449,11.273    c1.991,3.471,4.824,6.443,8.119,8.628c3.296,2.193,7.027,3.631,10.874,4.297c0.969,0.167,1.92,0.284,2.921,0.354    c0.965,0.063,1.831,0.081,2.712,0.122l5.31,0.208l10.63,0.324c7.087,0.173,14.175,0.264,21.262,0.271    c1.771,0.022,3.543,0.084,5.314,0.131c1.771,0.123,3.543,0.19,5.315,0.346c1.772,0.15,3.546,0.279,5.32,0.391    c1.771,0.126,3.558,0.113,5.321,0.17c3.898-0.015,7.804-0.322,11.718-0.539l2.938-0.125l2.939-0.039    c1.961-0.034,3.923-0.023,5.889-0.025c3.93-0.01,7.869-0.052,11.825-0.158c1.997-0.06,3.91-0.119,6.009-0.246    c2.222-0.175,4.392-0.672,6.438-1.431c4.101-1.518,7.711-4.003,10.713-7.044c2.985-3.057,5.392-6.73,6.777-10.892    c0.345-1.038,0.623-2.107,0.815-3.199c0.092-0.556,0.169-1.076,0.225-1.682l0.061-0.795l0.043-0.752l0.252-5.917l0.377-11.779    c0.138-3.923,0.075-7.853-0.018-11.783c-0.092-3.929-0.04-7.857,0.085-11.796C154.746,82.872,154.936,78.944,154.987,75.017z     M149.398,89.657c0.012,0.973-0.003,1.948,0.022,2.926c0.042,1.954,0.175,3.915,0.363,5.879c0.174,1.963,0.332,3.927,0.436,5.891    c0.093,1.962,0.016,3.92-0.074,5.877c-0.186,3.912-0.339,7.828-0.588,11.732l-0.468,5.83l-0.067,0.717l-0.085,0.674    c-0.058,0.379-0.145,0.828-0.236,1.24c-0.195,0.841-0.458,1.668-0.775,2.477c-0.635,1.618-1.486,3.164-2.502,4.597    c-0.991,1.447-2.137,2.797-3.408,4.01c-2.564,2.389-5.52,4.377-8.726,5.518c-1.593,0.585-3.233,0.982-4.883,1.122    c-1.794,0.118-3.808,0.203-5.724,0.273c-1.939,0.078-3.887,0.1-5.836,0.107c-1.949-0.011-3.902,0.06-5.858-0.042    c-1.956-0.043-3.913-0.291-5.874-0.415l-2.941-0.09l-2.946,0.061c-3.931,0.132-7.864,0.475-11.803,0.605    c-3.528,0.09-7.046,0.05-10.571-0.003c-1.761-0.035-3.522,0.01-5.284,0.004l-2.644,0.112l-2.644,0.221    c-1.765,0.169-3.528,0.203-5.29,0.135l-5.286-0.144l-10.567-0.378c-3.521-0.149-7.041-0.308-10.56-0.511l-5.28-0.336    c-0.883-0.062-1.783-0.105-2.581-0.179c-0.76-0.071-1.562-0.188-2.332-0.344c-6.22-1.206-11.823-5.039-14.685-10.44    c-1.453-2.685-2.262-5.712-2.478-8.843c-0.026-0.392-0.047-0.784-0.057-1.178l-0.03-1.299l-0.047-2.635l-0.07-5.286    c-0.059-7.055-0.127-14.113-0.482-21.166c-0.3-7.053-1.146-14.104-1.281-21.158c-0.048-1.763-0.026-3.525-0.034-5.287    c0.013-1.762,0.095-3.521,0.153-5.278l0.273-5.248c0.082-1.711,0.208-3.531,0.384-5.006l0.013-0.097    c0.01-0.092,0.015-0.185,0.014-0.278c-0.033-3.912-0.322-7.82-0.18-11.717c0.213-3.89,0.502-7.794,0.752-11.727    c0.068-0.982,0.109-1.994,0.203-2.828c0.092-0.821,0.245-1.684,0.449-2.505c0.405-1.655,1.023-3.254,1.824-4.758    c1.619-2.994,3.864-5.68,6.583-7.749c1.361-1.024,2.792-1.953,4.307-2.685c1.513-0.736,3.097-1.27,4.681-1.644    c0.794-0.177,1.593-0.306,2.387-0.365l2.84-0.169l5.82-0.274l23.454-0.856l11.759-0.391l5.885-0.187l5.893-0.119    c7.93-0.172,15.646,0.357,23.478,0.655l11.704,0.475l5.832,0.28l2.893,0.174c0.941,0.063,1.965,0.139,2.688,0.223    c3.245,0.384,6.35,1.643,9.108,3.491c2.76,1.874,5.058,4.426,6.993,7.229c0.983,1.399,1.799,2.922,2.456,4.513    c0.324,0.796,0.602,1.612,0.825,2.442c0.115,0.415,0.207,0.835,0.271,1.258l0.096,0.635l0.093,0.725l0.348,2.891l0.226,2.913    l0.392,5.845c0.344,7.809,0.467,15.642,0.061,23.473c-0.147,3.915-0.385,7.829-0.506,11.74c-0.066,1.956-0.051,3.911-0.096,5.866    l-0.167,5.86C149.377,87.715,149.386,88.691,149.398,89.657z"/><path d="M118.376,64.362l-0.095-0.004c-1.554-0.061-3.106-0.075-4.66-0.085c-1.553-0.012-3.106-0.037-4.659-0.019    c-3.106-0.001-6.213,0.054-9.319,0.131l-9.32,0.315c-2.419,0.075-4.837,0.186-7.256,0.3c1.399-3.749,2.816-7.492,4.171-11.257    c0.75-2.228,1.475-4.465,2.33-6.655l2.788-6.492c0.892-2.178,1.646-4.404,2.399-6.631l2.317-6.659l2.318-6.659    c0.748-2.116,1.545-4.215,2.318-6.322c0.555-0.854,0.424-2.002-0.361-2.696c-0.863-0.764-2.183-0.683-2.946,0.182l-0.229,0.26    l-0.977,1.104l-0.916,1.149c-0.603,0.771-1.238,1.519-1.814,2.312l-3.456,4.752l-3.427,4.775    c-1.182,1.563-2.397,3.099-3.484,4.732c-1.104,1.62-2.134,3.297-3.197,4.948c-1.048,1.662-2.191,3.252-3.369,4.817    c-1.225,1.53-2.401,3.096-3.664,4.598l-3.789,4.502c-1.282,1.487-2.504,3.02-3.716,4.559c-1.231,1.524-2.416,3.085-3.401,4.795    c-0.996,1.7-2.045,3.363-3.211,4.936c-1.132,1.6-2.273,3.192-3.482,4.734c-2.357,3.129-4.86,6.148-7.289,9.224    c-2.436,3.069-4.987,6.052-7.279,9.229c-0.229,0.317-0.373,0.7-0.396,1.12c-0.064,1.165,0.828,2.162,1.993,2.228l0.077,0.004    c5.508,0.306,11.016,0.48,16.523,0.59c2.754,0.081,5.508,0.083,8.262,0.106c1.609-0.002,3.218-0.024,4.827-0.058    c-0.918,3.337-1.938,6.639-3.02,9.919l-4.658,13.274l-9.302,26.555c0,0.001,0,0.001,0,0.001c-0.281,0.793-0.075,1.71,0.601,2.289    c0.619,0.531,1.457,0.629,2.162,0.338c0.006-0.003,0.013-0.005,0.019-0.007c0.103-0.044,0.2-0.098,0.296-0.158    c0.027-0.017,0.054-0.031,0.08-0.05c0.07-0.049,0.137-0.105,0.202-0.163c0.046-0.041,0.09-0.082,0.133-0.127    c0.019-0.021,0.042-0.036,0.061-0.058l0.06-0.069c2.616-3.049,5.135-6.175,7.683-9.279c2.565-3.089,5.033-6.256,7.529-9.401    c4.944-6.328,9.88-12.664,14.936-18.902c10.064-12.516,20.064-25.083,30.182-37.556c0.28-0.346,0.456-0.781,0.475-1.26    C120.469,65.399,119.552,64.408,118.376,64.362z M93.811,93.191c-1.276,1.55-2.573,3.083-3.807,4.667    c-1.244,1.576-2.418,3.209-3.598,4.836l-3.49,4.92c-1.185,1.624-2.342,3.269-3.661,4.784c-2.576,3.081-5.086,6.215-7.632,9.32    l-7.071,8.628l0.425-1.15c0.804-2.202,1.553-4.424,2.332-6.636l1.158-3.321c0.382-1.108,0.8-2.204,1.056-3.355l0.694-3.482    c0.246-1.155,0.651-2.256,1.03-3.365c0.737-2.226,1.629-4.397,2.5-6.577c1.764-4.353,3.469-8.724,5.311-13.048l0.056-0.128    c0.169-0.4,0.239-0.849,0.185-1.31c-0.168-1.422-1.457-2.438-2.878-2.269c-2.754,0.326-5.508,0.488-8.262,0.627    c-2.754,0.081-5.508,0.197-8.262,0.178c-2.754,0.006-5.508,0.049-8.262-0.027c-1.257-0.017-2.514-0.046-3.77-0.084    c3.889-5.054,7.841-10.061,11.646-15.177c4.611-6.334,9.353-12.571,13.669-19.129l3.318-4.856    c1.108-1.617,2.292-3.178,3.434-4.769c1.185-1.56,2.396-3.1,3.711-4.563c1.299-1.474,2.635-2.92,3.897-4.421    c1.779-2.014,3.356-4.178,4.879-6.384l-1.804,5.4l-0.652,1.64l-0.716,1.616c-0.443,1.09-0.968,2.15-1.345,3.264l-1.162,3.328    l-1.096,3.353c-0.753,2.227-1.543,4.44-2.248,6.684c-0.705,2.244-1.321,4.519-1.986,6.777l-0.979,3.393l-0.91,3.418l-0.021,0.076    c-0.029,0.11-0.046,0.227-0.051,0.346c-0.034,0.892,0.661,1.642,1.553,1.676c3.106,0.118,6.213,0.213,9.319,0.29l9.32,0.242    l9.319,0.124c1.549,0.015,3.098,0.023,4.646,0.023l-12.203,15.095L93.811,93.191z"/></g></g></svg>