<?xml version="1.0" ?><!DOCTYPE svg  PUBLIC '-//W3C//DTD SVG 1.1//EN'  'http://www.w3.org/Graphics/SVG/1.1/DTD/svg11.dtd'><svg enable-background="new 0 0 158.52 155.031" height="155.031px" version="1.1" viewBox="0 0 158.52 155.031" width="158.52px" xml:space="preserve" xmlns="http://www.w3.org/2000/svg" xmlns:xlink="http://www.w3.org/1999/xlink"><g id="icons"/><g id="Isolation_Mode"><g><path d="M143.101,99.52c0.737-19.497,0.618-39.955-2.095-68.429c-2.21-23.192-18.547-23.928-32.331-24.323    C89.913,6.231,72.178,5.529,47.836,5.234C28.673,5.001,13.169,18.227,13.169,38.98c0,28.018,0.223,41.268,0.223,59.665    c0,21.884,9.304,35.883,35.493,37.185c13.735,0.683,38.834,3.679,60.82-0.062c5.111-0.87,11.621-4.042,11.621-10.636    c0,0,12.006,10.296,22.162,20.608C143.489,145.74,142.858,105.957,143.101,99.52z M103.084,106.276    c-1.902-0.099-2.327-2.118-5.113-5.646c12.164-3.436,14.834-13.825,14.834-13.825c-3.807,2.507-17.805,9.711-22.17,10.454    c-4.308,0.808-8.441,1.113-12.35,1.07c-3.909,0.043-8.042-0.262-12.35-1.07c-4.364-0.743-5.821-1.147-10.464-3.096    c-3.25-1.207-6.871-2.972-10.678-5.479c0,0,0.643,8.615,12.807,12.05c-2.786,3.529-4.232,4.728-4.232,4.728    c-20.521-0.65-28.414-15.907-28.414-15.907c-0.122-32.5,12.475-50.549,12.475-50.549c13.371-10.029,26.093-9.75,26.093-9.75    l1.3,1.486C49.035,35.57,41.7,42.534,41.7,42.534c9.657-5.293,19.128-7.893,27.95-8.914c2.948-0.328,5.836-0.466,8.636-0.464    c2.8-0.002,5.688,0.136,8.636,0.464c8.821,1.021,16.293,3.621,25.95,8.914c0,0-5.335-7.964-21.121-12.792l1.3-1.486    c0,0,12.721,0.721,26.093,10.75c0,0,19.913,36.479,11.372,54.135C127.202,99.985,114.555,106.873,103.084,106.276z" fill="#7289DA"/><path d="M63.003,62.03c-3.882-0.724-7.702,1.607-9.681,4.883c-2.322,3.843-2.095,8.945,0.599,12.54    c2.371,3.163,6.362,4.585,10.133,3.381c4.708-1.503,6.962-6.634,7.005-11.394C71.099,66.956,67.48,62.865,63.003,62.03z"/><path d="M132.295,88.624c-1.303-8.102-2.162-16.042-4.183-24.032c-2.036-8.05-4.245-15.795-6.97-23.635    c-2.583-7.433-9.93-9.827-16.804-12.405c-3.531-1.325-7.526-2.526-11.34-2.526c-2.517,0-4.831,4.711-4.259,7.017    c-6.861-1.085-13.99-1.256-20.881-0.354c0.911-4.017-1.656-7.326-5.6-6.455c-4.395,0.97-8.873,1.749-13.102,3.329    c-3.82,1.43-8.473,2.435-11.261,5.656c-3.398,3.926-4.488,11.722-5.909,16.62c-3.032,10.449-5.972,21.36-6.939,32.232    c-0.508,5.704-0.468,9.031,4.063,12.954c3.083,2.67,6.364,4.714,10.201,6.138c4.452,1.652,8.801,3.045,13.577,3.308    c3.384,0.186,3.816-2.445,8.504-9.498c0,0,5.384,1.57,6.898,1.789c2.685,0.388,5.398,0.504,8.109,0.504    c5.172,0,10.387-0.265,15.469-1.281c0.751-0.15,1.498-0.317,2.242-0.501c0,0,2.967,4.034,5.601,7.367    c3.043,3.851,7.819,1.221,11.975,0.109C118.576,103.116,133.82,98.022,132.295,88.624    C132.232,88.23,132.453,89.599,132.295,88.624z M111.41,91.16c2.311-1.938,4.144-5.688,2.026-6.492    c-1.904-0.723-3.779,1.633-5.082,2.459c-2.266,1.436-4.716,2.568-7.236,3.478c-8.828,3.189-19.065,4.242-28.394,3.772    c-8.915-0.449-18.697-3.491-25.867-8.904c-3.738-2.818-4.858,1.087-2.776,3.903c2.967,4.092,7.891,6.896,12.521,8.647    c-1.104,1.456-2.18,2.934-3.254,4.413c-2.409-0.352-4.826-1.053-7.184-1.658c-5.824-1.492-11.272-4.448-15.304-8.968    c-3.167-3.549-0.439-12.438,0.349-16.67c1.132-6.076,2.007-12.333,3.615-18.302c1.354-5.028,2.672-10.246,3.981-15.283    c1.322-5.088,4.756-6.136,9.533-8.124c4.265-1.775,10.458-3.744,15.05-4.292l0.317,1.816c-3.227,0.866-6.376,2.023-9.426,3.384    c-3.925,1.751-7.923,3.792-11.281,6.508c-0.824,0.666-1.861,1.445-1.773,2.644c0.219,2.981,4.543,0.577,5.873,0.024    c10.7-4.449,22.748-6.875,34.349-6.22c5.538,0.313,11.123,1.259,16.541,2.422c2.818,0.605,5.614,1.335,8.335,2.289    c1.581,0.554,6.653,3.92,7.789,1.498c2.023-4.268-18.501-10.68-21.391-11.699l1.006-2.476c0,0,3.611,1.18,8.234,2.752    c3.951,1.344,8.362,3.166,11.682,5.751c3.321,2.586,4.541,8.633,5.817,12.5c1.826,5.534,2.918,11.275,4.769,16.797    c1.825,5.439,2.677,11.02,2.932,16.74c0.096,2.148,0.867,5.373-0.628,7.199c-1.005,1.683-3.102,3.206-4.636,4.38    c-3.757,2.873-8.061,4.843-12.628,6.008c-1.813,0.462-4.303,1.292-6.132,1.683c0,0-2.559-3.938-3.257-4.904    C104.172,96.806,108.2,94.349,111.41,91.16C111.562,91.009,108.022,94,111.41,91.16z"/><path d="M103.389,71.428c-0.722-5.136-4.983-9.369-10.304-9.294c-6.027,0.086-10.149,5.733-9.595,11.523    c0.484,5.059,4.639,9.736,9.958,9.644c2.911-0.05,5.613-1.027,7.55-3.277C103.006,77.692,103.814,74.45,103.389,71.428    C103.134,69.612,103.617,73.047,103.389,71.428z"/><path d="M151.154,135.626c-0.016-0.944-0.046-2.272-0.051-2.081c0.006,0.492,0.007,0.984,0.013,1.477    C151.121,135.186,151.135,135.395,151.154,135.626z"/><path d="M151.154,135.626c-0.058-1.004-0.051-23.991-0.051-24.081c0.182-23.354,0.222-24.723,0.162-48.077    c-0.028-11.134-0.383-22.255-0.896-33.375c-0.469-10.174-5.243-19.983-14.04-25.606c-6.25-3.995-12.646-4.042-19.701-4.084    C107.488,0.347,98.355,0.78,89.23,1.269c-6.978,0.374-14.001,0.639-20.984,0.367c-12.851-0.501-25.83-1.461-38.499,1.624    C18.859,5.91,9.16,15.511,8.56,27.024C8.01,37.583,6.903,48.114,6.594,58.684C6.193,72.413,6.369,86.145,6.441,99.877    c0.079,14.793-1.047,31.026,14.095,39.327c7.284,3.994,15.339,3.691,23.379,3.93c12.509,0.372,24.958-0.974,37.448-1.276    c11.18-0.271,22.274,1.268,33.506,0.639c2.28-0.127,4.815,0.05,7.053-0.395c4.165-0.826,3.259-4.956,3.097-8.221    c4.462,4.663,9.046,9.149,13.787,13.53c2.172,2.007,5.424,5.813,8.35,6.797C154.42,156.652,151.886,148.308,151.154,135.626z     M145.71,144.671c-0.118,0.05,0,0-5.622-5.263c-3.272-3.063-6.647-6.012-9.971-9.018c-2.216-2.004-5.841-5.734-8.791-5.259    c-3.565,0.574-2.879,6.595-3.13,10.444c-8.491,0.192-12.549,0.872-16.702,0.842c-6.21-0.046-12.428,0.022-18.637,0.17    c-8.286,0.197-16.566,0.616-24.855,0.726c-8.757,0.116-17.997,0.564-26.697-0.717c-10.248-1.509-18.738-9.989-18.79-20.639    c-0.024-4.84-0.047-9.68-0.07-14.52c-0.063-12.914,0.329-25.79,0.401-38.697c0.061-10.97,0.805-21.89,1.156-32.849    c0.304-9.481,5.604-17.392,14.768-20.645c11.425-4.056,24.558-2.961,36.398-2.283c7.818,0.448,15.675,0.33,23.495-0.025    c8.719-0.395,17.443-0.743,26.172-0.708c9.766,0.039,18.223,0.565,24.71,9.042c7.113,9.294,5.523,23.244,5.729,34.251    c0.213,11.427,0.053,22.858-0.029,34.286C145.096,104.117,145.71,144.671,145.71,144.671z"/></g></g><g id="Calque_1"/><g id="_x30_16_soundcloud"/><g id="Layer_1"/></svg>