<?xml version="1.0" ?><!DOCTYPE svg  PUBLIC '-//W3C//DTD SVG 1.1//EN'  'http://www.w3.org/Graphics/SVG/1.1/DTD/svg11.dtd'><svg enable-background="new 0 0 158.52 155.031" height="155.031px" id="icons" version="1.1" viewBox="0 0 158.52 155.031" width="158.52px" xml:space="preserve" xmlns="http://www.w3.org/2000/svg" xmlns:xlink="http://www.w3.org/1999/xlink"><g><path d="M153.939,63.702c-1.403-17.764,1.171-35.904-10.339-50.055C132.975,0.586,107.806,4.377,92.003,3.316   c-13.711-0.922-56.781,1.25-69.663,7.243C1.638,20.19,7.069,34.723,1.668,55.999C-1.73,69.389,1.001,82.727,1.702,96.278   c0.677,13.08-2.21,25.85,6.465,36.281c14.351,17.26,59.796,16.232,73.646,17.301c12.523,0.965,26.582,0.961,38.449-3.609   c13.135-5.059,30.38-20.527,33.465-34.029C155.948,102.499,154.553,71.471,153.939,63.702z" fill="#F26A09"/><path d="M124.436,99.916c-0.284-2.925-3.932-5.207-6.275-2.598c-2.832,3.145-4.999,6.561-6.917,10.324   c-1.798,3.523-3.524,3.478-7.367,5.023c-4.447,1.793-26.226,3.473-31.153,0.508c-6.326-3.807-6.591-11.866-6.664-18.219   c-0.058-5.465,0.468-11.037,1.601-16.447c11.329,0.818,22.763-2.063,33.739,1.845c0.28,0.1,0.551,0.158,0.808,0.189   c0.029,0.154,0.06,0.306,0.087,0.456c0.589,3.105,0.938,7.112,3.261,9.438c2.157,2.152,6.498,0.689,6.275-2.598   c-0.629-9.22-3.03-18.707-1.182-27.905c0.921-4.571-8.292-7.918-10.126,0.572c-2.871,13.28-27.076,7.162-28.401,6.459   c-2.949-13.036-4.982-30.355,6.618-29.134c10.216,1.076,11.654,0.467,19.111,0.161c6.588,1.488,13.03-1.245,13.03,8.729   c0,4.663,7.78,4.353,9.352-3c1.187-5.537-3.424-22.82-5.701-21.926c-4.791,1.886-9.919,2.645-15.157,2.898   c-7.824-1.438-16.262-1.199-22.304-0.347c-0.272-0.001-0.543-0.006-0.813-0.005c-10.801,0.05-22.021-3.227-32.624,0.082   c-2.372,0.739-3.93,4.338-1.625,6.146c13.367,10.465,12.421,29.728,10.639,44.943c-1.95,16.688,0.368,34.57-14.62,45.911   c-2.394,1.814-2.481,5.824,0.877,6.719c11.737,3.134,24.143,2.44,36.147,1.847c10.094-0.504,19.673-0.483,29.717,0.34   c7.241,0.591,15.292,1.816,18.071-6.309C125.317,116.768,125.166,107.467,124.436,99.916z" fill="#FFFFFF"/><g><path d="M158.472,34.584l-0.125-4.306l-0.093-2.163l-0.056-1.078c-0.02-0.361-0.05-0.81-0.091-1.208    c-0.641-6.581-3.822-12.513-8.309-17.042c-2.255-2.266-4.883-4.184-7.785-5.602c-2.921-1.401-6.08-2.228-9.339-2.467    c-1.608-0.12-3.013-0.053-4.456-0.037l-4.281,0.109l-8.524,0.284c-5.677,0.179-11.35,0.541-17.02,0.419    c-5.671-0.132-11.341-0.411-17.012-0.714c-11.335-0.648-22.685-0.98-34.095-0.648c-5.698,0.156-11.401,0.428-17.086,0.765    c-1.566,0.075-3.269,0.331-4.822,0.735c-1.579,0.392-3.108,0.922-4.572,1.576c-2.931,1.306-5.607,3.088-7.961,5.227    C8.144,12.685,4.707,18.55,3.739,25.031c-0.124,0.822-0.208,1.579-0.257,2.468l-0.042,1.141l-0.023,1.078L3.36,34.004    c-0.055,2.85,0.034,5.688,0.205,8.524c0.281,5.67,0.759,11.329,0.903,16.987c0.029,1.414,0.075,2.828,0.014,4.241    c-0.057,1.413-0.213,2.823-0.336,4.233c-0.154,1.422-0.203,2.791-0.267,4.255c-0.013,1.476,0.013,2.902,0.043,4.334    c0.447,11.4,1.261,22.697,1.622,34.041l0.116,4.252l0.046,4.254l0.079,8.572c0.081,3.043,0.545,6.147,1.57,9.147    c1.017,2.995,2.596,5.884,4.732,8.357c2.153,2.453,4.82,4.47,7.753,5.908c2.938,1.459,6.129,2.24,9.373,2.536l8.508,0.525    l8.529,0.393c5.691,0.251,11.392,0.343,17.088,0.379l8.543-0.015l8.536,0.104c11.46,0.017,22.832-0.776,34.16-1.559    c5.677-0.396,11.283-0.846,16.959-1.156c3.165-0.21,6.223-1.112,8.971-2.507c1.397-0.657,2.707-1.463,3.992-2.299    c1.294-0.826,2.523-1.753,3.682-2.77c4.562-4.069,8.335-9.521,9.15-16.237c0.177-1.599,0.176-2.99,0.221-4.439l0.053-4.285    l0.059-8.527l0.081-17.021l0.044-8.47l0.088-8.501c-0.071-5.676-0.311-11.356-0.212-17.035c-0.01-1.42,0.071-2.84,0.117-4.261    c0.052-1.421,0.087-2.842,0.192-4.263c0.166-2.844,0.354-5.691,0.466-8.544C158.514,40.305,158.559,37.448,158.472,34.584z     M153.527,60.184c-0.165,5.66-0.739,11.314-1.168,16.973l-0.261,8.502c-0.058,2.88-0.032,5.693-0.046,8.535    c-0.014,5.669-0.008,11.334-0.081,16.995l-0.12,8.481l-0.099,4.222c-0.046,1.387-0.079,2.831-0.197,4.079    c-0.503,4.787-3.219,9.558-6.911,13.075c-3.68,3.564-8.555,5.946-13.417,6.197c-5.646,0.229-11.358,0.607-16.992,0.921    c-11.299,0.56-22.546,1.499-33.772,1.499l-8.47-0.121l-8.476,0.068c-5.654,0.083-11.306-0.13-16.935-0.661    c-5.616-0.47-11.273-1.328-16.884-1.811c-4.937-0.552-9.674-2.66-12.941-6.24c-3.358-3.507-5.192-8.403-5.599-13.559    c-0.052-0.624-0.089-1.325-0.123-2.045l-0.091-2.126l-0.183-4.249l-0.181-4.247l-0.077-4.25c-0.085-5.668,0.134-11.345-0.082-17    c-0.008-1.415-0.117-2.827-0.183-4.239c-0.071-1.413-0.14-2.825-0.266-4.234c-0.205-2.82-0.469-5.639-0.642-8.444    c-0.075-1.4-0.145-2.807-0.179-4.163c-0.003-1.367,0.044-2.833,0.056-4.243c0.043-2.846,0.153-5.688,0.164-8.531l0.084-17.031    c0.01-2.834,0.018-5.665-0.022-8.488L9.41,29.821l0.002-1.052l0.018-1.004c0.018-0.574,0.074-1.242,0.155-1.855    c0.637-5.017,3.243-9.797,7.02-13.388c3.768-3.597,8.698-6.083,13.867-6.436c5.64-0.415,11.28-0.78,16.932-1.003    c11.3-0.468,22.639-0.309,33.976,0.102c5.668,0.151,11.335,0.404,17.001,0.49l8.499,0.04l8.495,0.179l8.485,0.211l4.226,0.11    c1.395,0.052,2.826,0.081,4.075,0.212c2.465,0.25,4.92,1.016,7.173,2.126c2.271,1.1,4.367,2.608,6.184,4.419    c3.619,3.621,6.169,8.451,6.846,13.477c0.043,0.321,0.071,0.611,0.102,0.959l0.088,1.049l0.156,2.095l0.255,4.209l0.387,8.455    C153.584,48.863,153.721,54.525,153.527,60.184z"/><path d="M122.263,93.775c-0.966-0.67-2.093-1.019-3.18-1.097c-1.093-0.079-2.164,0.092-3.18,0.493    c-1.009,0.405-2,1.055-2.756,2.101c-0.373,0.522-0.668,1.146-0.819,1.816l-0.217,1.232c-0.125,0.72-0.259,1.441-0.403,2.149    c-0.578,2.81-1.347,5.608-2.755,7.405c-0.335,0.431-0.754,0.872-1.117,1.129c-0.131,0.084-0.344,0.215-0.609,0.344    c-0.26,0.123-0.537,0.245-0.839,0.354c-1.203,0.448-2.586,0.778-3.985,1.047c-5.666,1.036-11.664,1.348-17.6,1.538    c-2.971,0.084-5.972,0.109-8.916,0.084c-1.347-0.028-2.667-0.185-3.765-0.581c-1.109-0.399-1.865-0.983-2.352-1.814    c-0.5-0.832-0.664-2.012-0.701-3.337l0.123-4.445v-9.024v-9.023l-0.13-4.484l-0.116-0.467c0.002-0.042,0.008-0.077,0.011-0.117    c0.006,0.001,0.009,0.001,0.015,0.002l0.278,0.202h0.141h0.282h0.564h1.128l2.258-0.201c1.504-0.006,3.01-0.197,4.514-0.277    c1.504-0.083,3.011-0.242,4.515-0.251c1.504-0.044,3.016,0.016,4.519,0.019c1.506,0.031,3.057-0.01,4.38,0.113    c1.363,0.123,2.706,0.392,3.805,0.885c1.096,0.502,2.011,1.184,2.558,2.168c0.566,0.976,0.279,2.208,1.279,3.66v0.004    c0,0.014,0.004,0.028,0.005,0.042l-0.183-0.071c0.215,0.869,0.599,1.76,1.233,2.538c0.624,0.78,1.507,1.409,2.477,1.745    c0.484,0.168,0.983,0.261,1.477,0.299c0.232,0.015,0.515,0.021,0.721,0.006c0.339-0.021,0.528-0.056,0.784-0.101    c0.943-0.194,1.775-0.558,2.555-1.109c0.766-0.552,1.515-1.334,1.934-2.451c0.207-0.55,0.301-1.172,0.274-1.765    c-0.009-0.58-0.217-1.231-0.277-1.433c-0.297-1.027-0.482-2.201-0.614-3.385c-0.498-4.792-0.234-9.835,0.153-14.79    c0.106-1.242,0.234-2.483,0.383-3.72l0.239-1.853l0.137-1.008c0.008-0.046,0.021-0.226,0.025-0.386    c0.009-0.166,0.004-0.309-0.005-0.446c-0.013-0.279-0.057-0.577-0.132-0.875c-0.274-1.236-1.265-2.303-2.157-2.776    c-0.91-0.518-1.762-0.717-2.575-0.839c-0.41-0.058-0.805-0.089-1.23-0.094c-0.369-0.001-0.833,0.015-1.271,0.081    c-0.879,0.106-2.074,0.523-2.908,1.398c-0.834,0.86-1.179,1.813-1.399,2.612c-0.212,0.813-0.298,1.557-0.35,2.273l-0.014,0.218    c-0.003,0.026-0.006,0.066-0.006,0.063l-0.013,0.119l-0.051,0.465c-0.042,0.229-0.069,0.452-0.132,0.709    c-0.104,0.497-0.228,0.978-0.411,1.422c-0.359,0.893-0.918,1.635-1.643,2.259c-0.718,0.634-1.651,1.119-2.679,1.412    c-0.512,0.147-1.049,0.248-1.558,0.288l-1.906,0.119l-3.813,0.122c-2.542,0.084-5.084,0.024-7.626,0.044    c-2.542,0.016-5.084-0.023-7.626-0.063l-1.906-0.027c-0.284,0-0.474-0.015-0.588-0.037c-0.042-0.161-0.113-0.647-0.098-1.081    l0.024-1.888c0.044-5.087,0.145-10.171,0.133-15.254l-0.041-7.618c-0.013-1.266-0.005-2.55,0.267-2.96    c0.113-0.21,0.293-0.388,0.683-0.59c0.375-0.194,0.883-0.356,1.423-0.482c2.212-0.489,4.766-0.589,7.25-0.669    c2.498-0.064,5.049-0.065,7.557-0.031c5.031,0.089,10.089,0.294,14.933,1.125c1.204,0.215,2.39,0.479,3.514,0.825    c1.115,0.346,2.191,0.788,2.99,1.354c0.196,0.133,0.355,0.278,0.504,0.42c0.017,0.039,0.041,0.101,0.066,0.184    c0.125,0.411,0.223,1.034,0.316,1.645c0.196,1.245,0.371,2.596,0.861,4.013c0.248,0.706,0.585,1.446,1.141,2.148    c0.541,0.697,1.378,1.33,2.292,1.608c0.855,0.251,1.571,0.353,2.477,0.308c0.871-0.048,1.88-0.353,2.671-1.017    c0.797-0.658,1.257-1.552,1.497-2.369c0.242-0.828,0.292-1.625,0.272-2.382c-0.028-0.796-0.14-1.368-0.175-1.982    c-0.047-0.606-0.125-1.229-0.15-1.845c-0.102-2.469-0.128-4.955,0.062-7.433c0.096-1.24,0.209-2.474,0.209-3.717v-0.986v-0.216    v-0.208l0.228-0.311c-0.016-0.219,0.203-0.422,0.166-0.633c-0.138-0.833-0.452-1.672-0.985-2.415    c-0.53-0.742-1.296-1.35-2.12-1.699c-0.841-0.358-1.64-0.487-2.5-0.497c-1.393,0.012-2.703,0.174-3.974,0.323    c-2.538,0.317-5.021,0.622-7.533,0.85c-5.015,0.463-10.064,0.702-15.123,0.835c-5.063,0.095-10.123,0.062-15.188-0.06    c-5.072-0.116-10.151-0.276-15.23-0.466l-7.621-0.275l-3.821-0.131l-0.976-0.026l-0.28-0.003c-0.031,0.005-0.118-0.014-0.462,0.04    l-0.117,0.02c-0.103,0.021-0.102,0.01-0.291,0.059c-0.171,0.043-0.342,0.094-0.509,0.15c-1.146,0.411-2.034,1.327-2.491,2.239    c-0.91,1.856-0.835,3.62-0.329,5.307c0.277,0.842,0.7,1.691,1.429,2.453c0.367,0.376,0.81,0.724,1.33,0.985    c0.498,0.256,1.165,0.42,1.623,0.462c2.28,0.201,3.865,0.97,4.83,2.586c0.992,1.625,1.367,3.976,1.465,6.332l0.098,7.538    c0.046,10.168-0.248,20.335,0.067,30.503l0.125,7.626c0.015,2.542,0.11,5.084,0.059,7.626c-0.021,2.542-0.253,5.084-0.288,7.626    l-0.042,1.864c-0.002,0.341-0.027,0.577-0.042,0.849c-0.017,0.265-0.057,0.551-0.083,0.824c-0.156,1.088-0.409,2.14-0.845,3.024    c-0.42,0.897-0.998,1.624-1.714,2.15c-0.175,0.134-0.374,0.254-0.559,0.36c-0.32,0.18-0.461,0.241-0.691,0.346    c-0.468,0.207-0.966,0.377-1.48,0.513c-0.515,0.134-1.049,0.235-1.581,0.299c-0.267,0.031-0.532,0.053-0.785,0.063l-0.931,0.02    l-0.69,0.062c-0.219,0.037-0.432,0.066-0.653,0.117c-0.442,0.106-0.893,0.234-1.348,0.458c-0.906,0.402-1.806,1.188-2.34,2.147    c-0.529,0.979-0.707,1.957-0.703,2.915c0.014,0.751,0.076,1.802,0.698,2.886c0.307,0.536,0.777,1.031,1.274,1.369    c0.497,0.342,1.005,0.551,1.463,0.687c0.924,0.268,1.711,0.315,2.452,0.336l7.689-0.057l30.497-0.204l15.249-0.087l7.597-0.02    c2.39,0.029,4.841,0.303,7.325,0.646c1.248,0.169,2.504,0.36,3.833,0.511c0.669,0.072,1.352,0.138,2.121,0.146    c0.392-0.001,0.798-0.01,1.292-0.087c0.484-0.098,1.1-0.176,1.896-0.801c0.385-0.309,0.754-0.822,0.912-1.334    c0.102-0.332,0.079-0.293,0.108-0.397l0.057-0.231l0.226-0.934l0.441-1.868l0.846-3.751c0.545-2.507,1.049-5.028,1.489-7.568    c0.45-2.521,0.793-5.144,1.149-7.57l0.003-0.02l0.002-0.014c0.252-1.629,0.37-3.601-0.495-5.607    C123.98,95.403,123.233,94.434,122.263,93.775z M107.663,39.567c0.003,0.003,0.007,0.005,0.01,0.008l0.05,0.063    C107.706,39.632,107.682,39.597,107.663,39.567z M115.709,27.337L115.709,27.337C115.712,27.289,115.709,27.337,115.709,27.337z     M117.161,122.198C117.177,122.191,117.176,122.193,117.161,122.198L117.161,122.198z M120.759,101.415l-0.004,0.021    c-0.395,2.58-0.723,4.983-1.177,7.446c-0.444,2.466-0.952,4.926-1.502,7.383l-0.854,3.682l-0.447,1.839l-0.111,0.447    c-0.053,0-0.101,0.003-0.155,0.002c-0.492-0.008-1.073-0.062-1.664-0.131c-1.191-0.14-2.447-0.345-3.719-0.517    c-2.553-0.348-5.172-0.647-7.88-0.677l-7.657,0.027c-5.086,0.057-10.171,0.008-15.254,0.163c-1.271,0.127-2.54,0.38-3.81,0.556    c-1.271,0.166-2.541,0.125-3.813,0.14c-2.542,0.047-5.083-0.061-7.626-0.108c-2.544-0.052-5.087-0.141-7.631-0.154l-7.627-0.007    l-7.566-0.021c-0.534-0.015-1.034-0.079-1.347-0.181c-0.337-0.12-0.313-0.161-0.327-0.184c-0.03-0.052-0.118-0.33-0.107-0.845    c0.006-0.323,0.094-0.64,0.184-0.792c0.108-0.152,0.208-0.27,0.473-0.385c0.228-0.111,0.687-0.207,1.015-0.218l0.976-0.015    c0.382-0.015,0.749-0.043,1.114-0.084c0.729-0.083,1.448-0.215,2.165-0.398c0.716-0.184,1.427-0.421,2.126-0.727    c0.351-0.151,0.786-0.37,1.019-0.5c0.369-0.207,0.718-0.421,1.052-0.671c1.349-0.979,2.39-2.336,3.054-3.745    c0.692-1.415,1.037-2.882,1.249-4.313c0.04-0.361,0.089-0.707,0.115-1.081c0.024-0.366,0.056-0.77,0.058-1.063l0.062-1.951    c0.065-2.542,0.222-5.084,0.199-7.626c0.016-1.271-0.057-2.542-0.108-3.813c-0.062-1.271-0.09-2.541-0.179-3.813l-0.493-7.626    c-0.098-1.271-0.106-2.542-0.146-3.813c-0.02-1.271-0.1-2.542-0.069-3.813c0.01-2.542,0.409-5.084,0.628-7.626    c0.398-5.083,0.258-10.167,0.264-15.251l-0.01-3.813c-0.011-1.269,0.015-2.521-0.049-3.912c-0.068-1.362-0.21-2.751-0.513-4.169    c-0.313-1.415-0.768-2.889-1.622-4.296c-0.836-1.407-2.149-2.672-3.63-3.49c-0.739-0.412-1.514-0.705-2.275-0.936    c-0.385-0.118-0.754-0.212-1.147-0.297l-0.602-0.113l-0.471-0.078c-0.146-0.017-0.038-0.012-0.069-0.018l0.005-0.006    c0.002,0.002,0.009-0.008,0.016-0.01c0.009,0.003,0.024-0.011,0.031-0.005c0.018-0.008,0.012-0.025-0.018-0.069    c-0.054-0.097-0.177-0.327-0.287-0.614c-0.223-0.587-0.147-1.41-0.124-1.725c0.023-0.159-0.076-0.196-0.113-0.305    c-0.03,0.001-0.062-0.005-0.093-0.02c-0.036-0.005,0.008-0.02,0.05-0.033l0.113-0.041l0.114-0.04    c-0.288,0.036-0.297,0.014-0.249,0.01c0.046-0.014,0.122-0.026,0.194-0.039l0.933-0.144c1.266-0.21,2.54-0.283,3.811-0.295    c2.543-0.053,5.086-0.068,7.627,0.018c5.084,0.18,10.164,0.408,15.255,0.818c10.213,0.986,20.453,0.512,30.729-0.391    c2.563-0.24,5.149-0.567,7.644-0.889c1.246-0.152,2.44-0.297,3.525-0.308c0.283,0,0.68,0.066,0.869,0.157    c0.217,0.093,0.347,0.198,0.477,0.366c0.127,0.168,0.248,0.421,0.306,0.733c0.016,0.073,0.025,0.163,0.033,0.23    c0.001,0.02,0.006,0.027,0.008,0.122l-0.095,0.851c-0.149,1.289-0.274,2.601-0.359,3.909c-0.173,2.619-0.211,5.252-0.075,7.89    c0.034,0.662,0.078,1.314,0.137,1.984l0.094,0.98c0.035,0.347,0.061,0.576,0.07,0.806c0.063,0.949-0.225,1.672-0.39,1.766    c-0.081,0.072-0.208,0.151-0.52,0.181c-0.274,0.037-0.81-0.032-1.094-0.114c-0.207-0.061-0.347-0.146-0.547-0.38    c-0.193-0.228-0.397-0.604-0.56-1.063c-0.338-0.923-0.526-2.084-0.728-3.347c-0.113-0.647-0.193-1.291-0.449-2.149    c-0.068-0.219-0.152-0.459-0.289-0.74c-0.058-0.132-0.24-0.431-0.366-0.595l-0.076-0.092c0.006,0-0.274-0.309-0.215-0.234    c-0.32-0.313-0.654-0.593-0.99-0.822c-1.35-0.932-2.704-1.427-4.03-1.838c-1.329-0.398-2.645-0.676-3.953-0.899    c-5.228-0.849-10.371-0.999-15.505-1.051c-2.577-0.014-5.111,0.009-7.698,0.096c-2.588,0.116-5.152,0.199-7.912,0.819    c-0.693,0.172-1.411,0.384-2.165,0.772c-0.738,0.368-1.58,1.036-2.056,1.953c-0.478,0.91-0.567,1.786-0.612,2.507    c-0.037,0.734-0.019,1.372-0.015,2.008c0.002,1.275,0.065,2.547-0.015,3.818c-0.1,1.272-0.315,2.545-0.477,3.818    c-0.161,1.271-0.111,2.543-0.112,3.814l0.016,3.813l0.027,7.622l0.004,1.937c0.009,0.384,0.023,0.778,0.095,1.252    c0.083,0.467,0.167,1.029,0.623,1.777c0.226,0.365,0.589,0.756,1.009,1.021c0.418,0.271,0.835,0.407,1.176,0.485    c0.663,0.141,1.149,0.112,1.45,0.114l1.906-0.015l7.626-0.058l7.626-0.051l3.813-0.01l1.906-0.005    c0.811-0.004,1.567-0.096,2.32-0.252c1.498-0.313,2.987-0.914,4.295-1.884c1.313-0.956,2.369-2.306,3.024-3.755    c0.331-0.725,0.564-1.472,0.735-2.215c0.09-0.36,0.153-0.767,0.216-1.164l0.056-0.482l0.035-0.343l0.016-0.208    c0.041-0.55,0.116-1.073,0.229-1.489c0.11-0.42,0.269-0.686,0.337-0.736c0.059-0.049,0.119-0.112,0.493-0.169    c0.19-0.025,0.364-0.034,0.63-0.032c0.211,0.004,0.451,0.023,0.67,0.057c0.44,0.062,0.843,0.194,1.038,0.316    c0.212,0.144,0.139,0.113,0.152,0.131c0.002,0.011,0.008,0.029,0.007,0.067c0.002,0.022,0.003,0.038,0.001,0.031    c0-0.002,0.011-0.021-0.005,0.091l-0.126,0.88l-0.263,1.927c-0.163,1.286-0.304,2.573-0.424,3.862    c-0.45,5.166-0.699,10.329-0.158,15.67c0.153,1.343,0.355,2.693,0.766,4.119c0.121,0.41,0.103,0.358,0.105,0.407    c-0.003,0.029,0,0.037-0.014,0.07c-0.018,0.059-0.142,0.248-0.393,0.424c-0.243,0.176-0.59,0.324-0.874,0.378    c-0.052,0.01-0.175,0.024-0.143,0.021c-0.108,0.01-0.137,0-0.217-0.001c-0.13-0.014-0.248-0.034-0.354-0.071    c-0.399-0.144-0.725-0.492-0.904-1.199l-0.008-0.031c-0.012-0.045-0.032-0.088-0.046-0.133c-0.063-1.435-0.819-3.115-1.815-4.704    c-1.018-1.676-2.702-3.015-4.413-3.732c-3.431-1.478-6.928-1.239-9.795-1.272l-17.896-0.053c-0.065,0.031-0.584-0.18-1.674-0.037    c-0.539,0.073-1.246,0.393-1.698,0.828c-0.46,0.43-0.705,0.871-0.87,1.232c-0.319,0.736-0.385,1.26-0.459,1.768    c-0.031,0.249-0.05,0.485-0.064,0.715l-0.027,0.67l-0.042,4.54c-0.044,3.008-0.002,6.016-0.003,9.023    c0.028,3.009,0.158,6.017,0.233,9.024l0.144,4.577c0.104,1.656,0.404,3.53,1.464,5.241c1.047,1.73,2.844,2.886,4.527,3.41    c1.711,0.529,3.359,0.735,4.987,0.771c3.059,0.056,6.066,0.105,9.104,0.037c6.066-0.137,12.125-0.365,18.271-1.416    c1.541-0.282,3.085-0.618,4.675-1.186c0.812-0.302,1.565-0.604,2.489-1.227c0.812-0.588,1.421-1.231,1.989-1.953    c1.113-1.438,1.81-3.021,2.341-4.561c0.525-1.548,0.891-3.084,1.201-4.606c0.154-0.763,0.293-1.518,0.424-2.278l0.172-1.002    c0.024-0.095,0.067-0.19,0.147-0.302c0.305-0.473,1.352-0.926,2.21-0.828c0.888,0.089,1.441,0.481,1.786,1.249    C120.939,98.923,120.984,100.099,120.759,101.415z"/></g></g></svg>