<?xml version="1.0" ?><!DOCTYPE svg  PUBLIC '-//W3C//DTD SVG 1.1//EN'  'http://www.w3.org/Graphics/SVG/1.1/DTD/svg11.dtd'><svg enable-background="new 0 0 154.83 153.658" height="153.658px" id="icons" version="1.1" viewBox="0 0 154.83 153.658" width="154.83px" xml:space="preserve" xmlns="http://www.w3.org/2000/svg" xmlns:xlink="http://www.w3.org/1999/xlink"><g><path d="M125.098,8.753C100.488-0.642,45.093-1.024,21.99,15.17C-6.225,34.95-0.727,72.525,3.291,102.256   c6.615,48.94,116.149,36.394,145.297,14.421c8.439-6.361,5.861-33.445,5.902-47.379C154.577,39.146,148.939,17.853,125.098,8.753z" fill="#0D71BA"/><path d="M148.668,111.083c0,0-28.268-0.09-37.612-1.176c-12.596-1.464-47.782-1.668-58.177-2.362   C41.313,106.771,5.8,108.759,5.8,108.759s0.792,7.875,0.263,14.075c-2.844,33.327,84.423,23.553,106.431,24.016   C122.324,147.057,153.514,138.775,148.668,111.083z" fill="#56A1D3"/><path d="M129.026,26.156c0.099-5.601-8.577-7.448-13.686-6.635c-2.369,0.377-5.103-0.209-7.506-0.199   c-3.285,0.015-6.507,0.917-9.429,2.368c-5.262,2.614-9.505,6.724-12.368,11.848c-4.013,7.18-6.307,16.184-5.934,24.965   C59.53,58.682,66.435,76.754,68.53,77.016c2.543,0.317,8.781,0.302,11.327,0.433c-0.012,11.776-2.895,22.825-3.327,34.567   c-0.329,8.946-1.769,19.99,0.507,39.191c0,0,20.156,3.156,21.32-9.051c0.84-8.808,1.668-16.531,2.102-25.422   c0.592-12.122,0.631-24.264,1.238-36.386c0.039-0.79,0.05-1.579,0.071-2.369c3.313-0.136,6.628-0.468,9.954-1.137   c12.007-2.417,15.142-17.161-1.051-17.321c-1.759-0.018-7.468-0.438-9.224-0.307c-0.092-3.998-0.099-7.996,0.186-11.995   c0.225-3.159,1.175-5.901,3.869-7.772c1.895-1.314,3.4-1.16,5.694-1.058c3.16,0.14,6.058-0.049,9.192-0.548   C125.511,37.027,128.865,35.349,129.026,26.156z" fill="#FFFFFF"/><g><path d="M99.825,59.621v-0.002c-0.005-0.034-0.009-0.062-0.013-0.083C99.816,59.556,99.82,59.58,99.825,59.621z"/><path d="M99.813,59.536C99.805,59.482,99.806,59.487,99.813,59.536L99.813,59.536z"/><path d="M153.52,50.245c0.043-5.7-0.014-11.418-0.167-17.12l-0.127-4.274l-0.076-2.135c-0.036-0.717-0.051-1.388-0.122-2.238    c-0.268-3.234-1.266-6.313-2.71-9.101c-1.422-2.807-3.362-5.301-5.607-7.447c-2.247-2.144-4.825-3.945-7.646-5.251    c-2.832-1.28-5.891-2.065-8.976-2.252c-1.637-0.102-2.978-0.009-4.428,0.01l-4.273,0.131c-5.689,0.241-11.365,0.309-17.043,0.436    c-5.677,0.193-11.35-0.386-17.01-0.755c-1.416-0.092-2.831-0.14-4.245-0.192l-4.277-0.055c-2.902-0.024-5.737,0.227-8.584,0.397    c-2.843,0.192-5.68,0.409-8.521,0.498c-2.839,0.144-5.679,0.216-8.523,0.189c-2.844-0.017-5.691-0.119-8.537-0.167l-4.268-0.086    c-1.42,0.01-2.842-0.015-4.26,0.032c-1.419,0.026-2.837,0.064-4.252,0.128l-2.129,0.081c-0.763,0.029-1.526,0.087-2.289,0.164    c-3.051,0.319-6.115,1.053-8.997,2.336c-2.875,1.29-5.524,3.163-7.702,5.478c-2.182,2.313-3.873,5.061-4.997,7.993    C2.625,19.971,2.055,23.114,2,26.172c-0.059,2.924-0.026,5.739-0.018,8.59l0.044,8.516c-0.028,2.836-0.109,5.671-0.174,8.505    l-0.317,8.497c-0.048,2.832,0.241,5.671,0.199,8.504c-0.064,5.668-0.737,11.303-0.98,16.955C0.573,91.466,0.514,97.189,0.71,102.9    l0.329,8.556l0.171,8.546l0.115,4.267l0.064,2.131c0.019,0.741,0.088,1.559,0.193,2.325c0.428,3.11,1.497,6.077,2.988,8.765    c1.478,2.705,3.457,5.09,5.717,7.139c2.262,2.048,4.83,3.766,7.647,5.009c1.407,0.62,2.877,1.119,4.394,1.463    c1.515,0.352,3.102,0.5,4.578,0.527c2.89,0.079,5.727,0.077,8.576,0.077c5.691,0.01,11.373-0.122,17.054,0.018    c5.694,0.148,11.329,0.413,17.008,0.76l9.939,0.538c0.32,0.153,0.675,0.247,1.054,0.249l3.798,0.014l2.249,0.122    c5.685,0.267,11.377,0.335,17.073,0.147c5.697-0.188,11.391-0.724,17.097-1.039l4.284-0.296l2.148-0.164    c0.706-0.054,1.522-0.141,2.266-0.267c3.035-0.504,5.921-1.574,8.555-3.043c5.272-2.933,9.544-7.545,12.006-13.034    c1.234-2.739,1.96-5.717,2.122-8.714c0.152-2.872,0.217-5.714,0.273-8.563l0.1-8.535l0.203-8.542    c0.055-1.409,0.107-2.899,0.095-4.307l0.047-4.243l0.192-8.477c0.083-2.825,0.194-5.647,0.199-8.474    c-0.012-2.829-0.036-5.659,0.03-8.506C153.434,61.58,153.464,55.966,153.52,50.245z M102.675,76.781    c-0.074,0.021-0.141,0.038-0.254,0.08c-0.087,0.032-0.237,0.086-0.455,0.225c-0.169,0.119-0.306,0.228-0.45,0.415l-0.019,0.023    c-0.04,0.053-0.086,0.12-0.124,0.183c-0.034,0.057-0.083,0.149-0.098,0.181l-0.039,0.088l-0.062,0.156    c-0.067,0.188-0.095,0.308-0.124,0.431c-0.053,0.234-0.082,0.425-0.109,0.613c-0.187,1.435-0.221,2.681-0.281,3.981    c-0.113,2.548-0.271,5.153-0.271,7.549v0.013c0,1.379-0.08,2.565-0.104,3.839l-0.052,3.754l-0.068,7.498l-0.089,7.495    c-0.019,2.498-0.012,4.996,0.004,7.494l0.543,14.983c0.054,2.497,0.171,4.994-0.001,7.493l-0.242,3.748l-0.105,1.288    c-1.105-0.03-2.224-0.031-3.331-0.039l-5.453-0.054c-2.836-0.059-5.684,0.001-8.514,0.021c-0.341-6.327-1.027-12.699-1.114-19.069    c-0.119-3.592-0.193-7.187-0.21-10.785c-0.051-3.598-0.05-7.196-0.036-10.794l0.019-10.795l0.186-10.801l0.315-5.41l0.253-1.362    v-0.691c0-0.253-0.242-0.426-0.266-0.804l-0.136-0.132c-0.266-1.008-0.14-0.291-0.2-0.521l-0.059-0.066    c-0.135-0.306-0.381-0.611-0.642-0.822c-0.144-0.113-0.185-0.129-0.282-0.192c-0.31-0.18-0.441-0.213-0.579-0.265    c-0.246-0.082-0.421-0.122-0.574-0.156c-0.311-0.067-0.567-0.107-0.822-0.145c-0.504-0.072-0.976-0.123-1.446-0.169    c-2.889-0.256-5.691-0.385-8.509-0.483c0.04-1.902,0.104-3.809,0.198-5.731l0.197-4.048c0.018-0.566,0.018-1.137,0.027-1.705    c0.059-0.006,0.117-0.013,0.176-0.019c0.89-0.125,1.799-0.08,2.681-0.517c0.882-0.424,1.745-1.064,2.637-1.284    c0.896-0.192,1.797-0.335,2.711-0.497c0.462-0.063,0.924-0.135,1.411-0.247c0.246-0.059,0.491-0.12,0.783-0.236    c0.148-0.06,0.304-0.115,0.523-0.272c0.117-0.096,0.248-0.188,0.392-0.449c0.063-0.101,0.122-0.314,0.133-0.445l0.011-0.083    c0.125-0.873,0.22-1.827,0.274-2.73c0.131-1.799,0.096-3.696,0.15-5.37c0.242-3.522,0.584-7.122,0.905-10.682l0.256-2.673    l0.069-0.659l0.096-0.58c0.073-0.391,0.158-0.807,0.258-1.208c0.393-1.613,1.012-3.126,1.825-4.49    c0.821-1.361,1.89-2.545,3.154-3.515c1.237-0.998,2.621-1.895,4.145-2.607c3.053-1.453,6.544-2.076,10.029-2.509    c3.513-0.432,7.051-0.439,10.622-0.058l2.672,0.262c0.893,0.076,1.781,0.192,2.666,0.372c0.882,0.201,1.76,0.453,2.638,0.768    c0.182,0.061,0.359,0.122,0.537,0.183c-0.072,0.818-0.104,1.63-0.045,2.435c0.14,1.229,0.435,2.457,0.523,3.696    c0.092,1.238,0.132,2.482,0.17,3.732c0.023,0.708,0.025,1.418,0.016,2.128c-0.666-0.026-1.332-0.061-1.999-0.118    c-1.222-0.065-2.479-0.194-3.742-0.285c-2.526-0.181-5.148-0.251-7.881,0.42c-0.682,0.172-1.371,0.386-2.065,0.661    c-0.348,0.143-0.695,0.292-1.043,0.472l-0.261,0.136l-0.13,0.071l-0.064,0.036l-0.147,0.087l-0.194,0.121l-0.388,0.279    c-1.672,1.373-2.243,2.872-2.741,4.229c-0.908,2.738-1.176,5.308-1.336,7.868c-0.146,2.552-0.13,5.068-0.024,7.573l0.099,1.873    l0.026,0.439l0.002,0.022c0.032,0.224,0.096,0.662,0.086,0.588l0.005,0.014l0.009,0.027l0.071,0.2    c0.037,0.094,0.083,0.189,0.135,0.28c0.103,0.184,0.233,0.356,0.376,0.502c0.186,0.184,0.205,0.183,0.249,0.22l0.141,0.1    c0.383,0.243,0.53,0.272,0.698,0.339c0.591,0.19,0.903,0.221,1.275,0.285c1.382,0.193,2.601,0.253,3.859,0.323    c4.281,0.23,8.499,0.165,12.728,0.38c-0.004,0.749-0.001,1.5-0.019,2.25c-0.011,1.401-0.06,2.803-0.093,4.206    c-0.033,1.403-0.182,2.804-0.332,4.205l-0.214,2.056c-1.791,0.319-3.609,0.668-5.458,0.72c-1.248,0.054-2.535,0.03-3.788,0.035    c-0.606-0.002-1.308-0.005-1.961,0.021l-1.962,0.081c-0.66,0.036-1.31,0.075-2.021,0.163c-0.179,0.021-0.365,0.049-0.575,0.088    C102.929,76.719,102.817,76.742,102.675,76.781z M149.059,75.789c-0.077,2.849-0.254,5.7-0.403,8.555l-0.193,4.287l-0.225,4.294    c-0.063,1.433-0.136,2.866-0.161,4.3c-0.012,0.74-0.035,1.398-0.079,2.082l-0.134,2.089c-0.403,5.618-0.234,11.288-0.332,16.925    l-0.173,8.39c-0.054,2.431-0.556,4.838-1.495,7.12c-1.864,4.557-5.396,8.607-9.843,11.209c-2.225,1.287-4.661,2.224-7.17,2.68    c-0.644,0.117-1.218,0.191-1.928,0.254l-2.094,0.184c-1.399,0.12-2.806,0.207-4.214,0.276c-5.248,0.274-10.522,0.428-15.799,0.441    l-0.774-28.095c-0.205-4.993-0.592-9.985-0.48-14.979c0.01-2.497,0.286-4.993,0.386-7.487l0.441-7.39v0.013    c0-2.676-0.025-5.152,0.002-7.679c0.016-1.109-0.04-2.26,0.046-3.268c0.467-0.057,0.927-0.103,1.426-0.139    c0.61-0.045,1.21-0.076,1.823-0.079c0.615-0.012,1.175,0.003,1.838,0.019c1.287,0.042,2.534,0.025,3.825,0.09    c2.564,0.064,5.187,0.552,7.837,0.409c1.072-0.058,2.009-0.84,2.216-1.943l0.043-0.229c0.057-0.305,0.09-0.656,0.136-1    l0.077-0.534l0.052-0.367l0.019-0.256l0.002-0.066l0.005-0.132l0.072-2.109c0.023-1.405,0.07-2.811,0.049-4.219    c-0.034-1.408-0.035-2.817-0.104-4.228c-0.075-1.411-0.103-2.822-0.231-4.235l-0.035-0.382c-0.09-0.968-0.938-1.69-1.912-1.619    l-3.656,0.269c-1.221,0.061-2.44,0.079-3.659,0.071c-2.437-0.001-4.875-0.017-7.294-0.101c-1.202-0.047-2.426-0.099-3.557-0.237    c-0.126-0.016-0.257-0.036-0.378-0.057l-0.083-1.699c-0.093-2.418-0.099-4.841,0.046-7.245c0.13-2.396,0.476-4.811,1.257-6.986    c0.378-1.068,0.944-2.117,1.696-2.649l0.117-0.081l0.197-0.117l0.338-0.167c0.247-0.12,0.508-0.222,0.768-0.322    c0.527-0.192,1.075-0.348,1.635-0.475c4.557-0.94,9.429-0.307,14.296,0.104c0.911,0.075,1.73-0.582,1.842-1.498l0.026-0.219    c0.31-2.535,0.58-5.095,0.733-7.685c0.099-2.589,0.109-5.195-0.021-7.763c-0.061-1.218-1.006-2.24-2.256-2.361l-0.229-0.022    l-5.198-0.503c-1.786-0.182-3.584-0.325-5.39-0.47c-1.812-0.139-3.616-0.27-5.504-0.327c-1.937-0.047-3.74,0.028-5.631,0.175    c-1.873,0.137-3.752,0.418-5.624,0.83c-1.858,0.434-3.778,0.885-5.487,1.922c-1.723,1.003-3.249,2.275-4.785,3.478    c-1.542,1.213-2.895,2.692-4.028,4.336c-1.103,1.663-1.954,3.502-2.487,5.404c-0.129,0.479-0.237,0.948-0.341,1.457l-0.066,0.335    l-0.032,0.166l-0.039,0.282l-0.091,0.683c-0.131,0.895-0.192,1.791-0.286,2.686c-0.34,3.597-0.702,7.114-0.898,10.811    l-0.063,0.388l-0.051,0.401v0.67l0.043,1.327l-0.026,2.606c-0.014,0.39-0.017,0.754-0.037,1.12    c-0.124,0.021-0.241,0.042-0.369,0.061c-1.623,0.23-3.396,0.358-5.155,0.476c-1.788,0.124-3.373,0.179-5.309,0.332    c-1.249,0.103-2.146,1.137-2.146,2.417v0.062L64.1,68.934c-0.065,2.713-0.126,5.451-0.015,8.206l-0.029,0.086    c0.052,1.281,1.098,2.297,2.389,2.283c3.547-0.039,7.163-0.063,10.621,0.102c0.226,0.012,0.431,0.032,0.649,0.048l0.027,0.985    l0.123,5.383l0.205,10.788c-0.021,1.798-0.018,3.597-0.08,5.396l-0.23,5.397c-0.1,1.799-0.108,3.599-0.159,5.398    c-0.025,1.799,0.012,3.598,0.015,5.397c0.013,3.598,0.055,7.2,0.132,10.805c0.136,6.355,0.093,12.709,0.257,19.1l-8.38-0.321    c-5.665-0.253-11.402-0.446-17.058-0.516c-2.838-0.018-5.675,0.017-8.511-0.03c-2.835-0.033-5.667-0.243-8.494-0.376    c-2.818-0.144-5.663-0.337-8.402-0.612c-1.314-0.12-2.426-0.327-3.554-0.671c-1.128-0.334-2.235-0.789-3.301-1.343    c-1.069-0.55-2.087-1.215-3.069-1.928c-0.99-0.703-1.93-1.488-2.806-2.339c-1.75-1.705-3.223-3.672-4.455-5.725    c-0.604-1.036-1.105-2.119-1.525-3.216c-0.447-1.089-0.79-2.21-1.012-3.344c-0.116-0.585-0.182-1.098-0.253-1.751l-0.216-2.118    l-0.414-4.229c-0.504-5.637-0.927-11.268-1.193-16.906C5.064,97.247,4.976,91.599,5.19,85.965    c0.201-5.69,0.988-11.364,1.161-17.058c0.031-1.423,0.075-2.847,0.074-4.271c0.014-1.423-0.017-2.847,0.1-4.268l0.401-4.264    l0.438-4.264c0.621-5.686,0.413-11.382,0.451-17.055l0.032-8.412c0.017-2.516,0.435-4.919,1.278-7.212    c1.661-4.574,5.09-8.395,9.608-10.489c2.254-1.046,4.733-1.693,7.296-1.999c0.642-0.074,1.287-0.133,1.938-0.167l2.125-0.111    c1.422-0.083,2.842-0.144,4.262-0.196C40.029,5.93,45.709,5.871,51.382,5.75c5.672-0.101,11.345-0.2,16.992-0.23    c2.813-0.034,5.654-0.083,8.375-0.026l4.22,0.139l4.282,0.013c5.707-0.074,11.398-0.338,17.084-0.34l17.026-0.031l4.235,0.021    c1.373,0.021,2.917,0.01,3.991,0.132c2.446,0.244,4.848,0.957,7.075,2.068c4.453,2.223,8.222,6.02,10.465,10.496    c1.119,2.233,1.856,4.636,2.071,7.023l0.466,8.353l0.877,16.925l0.374,8.495l0.175,4.256c0.05,1.406,0.055,2.791,0.064,4.215    C149.121,70.091,149.152,72.941,149.059,75.789z"/></g></g></svg>