<?xml version="1.0" ?><!DOCTYPE svg  PUBLIC '-//W3C//DTD SVG 1.1//EN'  'http://www.w3.org/Graphics/SVG/1.1/DTD/svg11.dtd'><svg enable-background="new 0 0 153.68 155.026" height="155.026px" id="icons" version="1.1" viewBox="0 0 153.68 155.026" width="153.68px" xml:space="preserve" xmlns="http://www.w3.org/2000/svg" xmlns:xlink="http://www.w3.org/1999/xlink"><g><path d="M146.594,41.481c-1.433-7.326-8.593-17.621-9.11-18.471C125.489,3.317,94.49,9.616,74.752,10.663   c-20.563,1.092-38.781-6.676-54.172,8.77C7.306,32.753,3.247,52.3,2.165,70.395c-1.231,20.605-0.264,43.482,12.837,60.408   c11.261,14.549,30.775,18.705,48.18,19.074c10.339,0.221,20.693-0.998,30.904-2.498c9.513-1.396,19.073-3.248,27.796-7.432   c21.219-10.18,26.46-38.131,27.859-59.158C150.61,67.729,149.102,54.309,146.594,41.481z" fill="#E6E6E6"/><g><path d="M127.05,72.994c0,12.707-10.302,22.994-23.004,22.994c-12.702,0-23.004-10.287-23.004-22.994    c0-12.713,10.302-23.006,23.004-23.006C116.748,49.988,127.05,60.281,127.05,72.994z" fill="#EE3D8C"/><path d="M68.298,72.994c0,12.445-9.089,21.521-21.529,21.521s-22.52-9.076-22.52-21.521    c0-12.451,10.08-22.531,22.52-22.531S68.298,60.543,68.298,72.994z" fill="#29AAE2"/></g><g><path d="M153.528,43.627c-0.025-3.93-0.041-7.869-0.144-11.825c-0.059-1.998-0.105-3.912-0.24-6.011    c-0.18-2.223-0.682-4.395-1.444-6.44c-1.524-4.099-4.012-7.722-7.11-10.655c-3.095-2.932-6.789-5.264-10.925-6.571    c-1.032-0.326-2.093-0.581-3.17-0.759c-0.548-0.085-1.063-0.155-1.655-0.203l-0.785-0.051l-0.748-0.032    c-1.993-0.083-3.979-0.118-5.957-0.128c-3.957-0.037-7.89,0.097-11.813,0.089c-3.924-0.004-7.825,0.063-11.741-0.065L86.048,0.563    l-5.877-0.212l-5.883-0.116c-3.923-0.072-7.848-0.133-11.775-0.16c-7.855-0.034-15.715-0.148-23.599-0.003    c-3.942,0.07-7.889,0.189-11.85,0.421c-0.469,0.027-1.008,0.055-1.558,0.112c-0.541,0.051-1.078,0.126-1.612,0.214    c-1.067,0.177-2.118,0.426-3.148,0.732c-2.058,0.619-4.032,1.472-5.884,2.53c-3.705,2.112-6.953,5.025-9.426,8.544    c-2.475,3.511-4.119,7.67-4.609,11.998c-0.126,1.135-0.163,2.089-0.218,3.091l-0.132,2.968l-0.189,5.909    c-0.106,3.935-0.175,7.866-0.229,11.8c-0.051,3.935-0.075,7.869-0.049,11.816c0.013,1.959,0.066,3.983,0.116,5.908    c0.05,1.938,0.045,3.892,0.119,5.845l0.541,23.51c0.171,7.848,0.226,15.693,0.206,23.569l-0.067,5.926l0.01,3.016    c0.026,1.121,0.146,2.232,0.33,3.329c0.363,2.197,1.082,4.305,1.999,6.3c0.931,1.989,2.054,3.892,3.435,5.595    c2.73,3.425,6.199,6.288,10.205,8.239c2.001,0.971,4.132,1.723,6.339,2.162c1.109,0.222,2.204,0.37,3.361,0.446    c1.144,0.072,2.09,0.069,3.065,0.102c3.899,0.098,7.828,0.236,11.79,0.3c3.887,0.061,7.758,0.061,11.622,0.047    c0.969,0.12,1.793,0.18,2.644,0.233l2.727,0.133c1.801,0.068,3.585,0.112,5.367,0.145c3.562,0.021,7.11,0.023,10.656-0.032    c7.092-0.148,14.162-0.818,21.236-1.006c1.769-0.084,3.537-0.106,5.307-0.112c1.769-0.007,3.537-0.061,5.308-0.017l10.623,0.112    l5.315-0.073c0.888-0.007,1.774-0.057,2.664-0.088l1.349-0.06c0.484-0.023,0.97-0.06,1.455-0.103    c3.879-0.353,7.786-1.468,11.26-3.452c3.477-1.973,6.463-4.793,8.652-8.087c2.201-3.293,3.649-7.023,4.325-10.874    c0.171-0.969,0.287-1.921,0.355-2.925c0.063-0.966,0.08-1.833,0.12-2.713l0.201-5.31l0.313-10.631    c0.192-7.088,0.188-14.177,0.309-21.262l0.069-5.315l0.162-5.315c0.11-3.543,0.139-7.094,0.182-10.635L153.528,43.627z     M148.354,93.619l-0.156,5.285l-0.403,10.566l-0.529,10.559l-0.311,5.281c-0.058,0.884-0.098,1.783-0.167,2.581    c-0.066,0.76-0.18,1.562-0.335,2.331c-1.199,6.216-5.022,11.828-10.426,14.688c-2.686,1.453-5.713,2.262-8.842,2.479    c-0.393,0.026-0.785,0.046-1.179,0.057l-1.299,0.03l-2.635,0.053l-5.284,0.121l-21.169,0.332l-10.584,0.121l-10.575,0.17    l-10.555,0.312c-1.754,0.051-3.508,0.091-5.248,0.108c-1.711,0.01-3.534,0.024-5.016-0.101l-0.29-0.024l-0.084-0.002    c-3.911,0.151-7.82,0.332-11.716,0.167c-3.89-0.201-7.797-0.424-11.728-0.706c-0.982-0.078-1.993-0.129-2.827-0.231    c-0.822-0.102-1.684-0.264-2.502-0.477c-1.65-0.422-3.245-1.042-4.741-1.851c-2.968-1.647-5.675-3.84-7.759-6.55    c-2.089-2.688-3.698-5.737-4.579-8.928c-0.214-0.798-0.381-1.605-0.477-2.414l-0.278-2.844l-0.495-5.822    c-0.518-7.795-0.574-15.633-0.727-23.467C5.352,79.803,4.89,63.979,6.047,48.431c0.12-3.903,0.11-7.81,0.164-11.71l0.11-5.84    l0.083-2.9c0.027-0.949,0.054-1.964,0.123-2.731c0.547-6.725,4.874-13.065,10.912-16.691c1.503-0.913,3.107-1.656,4.767-2.205    c0.829-0.272,1.673-0.495,2.523-0.66c0.426-0.082,0.853-0.154,1.28-0.206c0.418-0.056,0.852-0.09,1.363-0.132    c3.857-0.324,7.746-0.538,11.642-0.704c7.795-0.339,15.624-0.375,23.448,0c15.64,1.125,31.322,1.528,47.07,1.457    c3.918-0.003,7.819-0.014,11.686,0.07c1.933,0.042,3.856,0.109,5.764,0.22l0.715,0.043l0.658,0.053    c0.343,0.032,0.785,0.097,1.18,0.164c0.811,0.147,1.619,0.35,2.417,0.614c6.403,2.136,12.013,7.643,14.381,14.027    c0.591,1.598,0.962,3.251,1.091,4.903c0.105,1.797,0.17,3.81,0.223,5.727c0.099,3.88,0.127,7.781,0.139,11.693    c0.017,7.823-0.022,15.684,0.104,23.563l-0.027,10.571c-0.02,1.761,0.026,3.523,0.028,5.284l0.118,2.644l0.224,2.646    C148.405,90.094,148.428,91.857,148.354,93.619z"/><path d="M69.523,62.289c-1.58-2.822-3.958-5.237-6.728-6.882c-2.765-1.669-5.845-2.589-8.892-3.06l-0.042-0.007l-1.084-0.172    l-1.172-0.163c-0.767-0.106-1.542-0.185-2.323-0.224c-1.563-0.08-3.138,0.108-4.693,0.373c-1.553,0.302-3.076,0.766-4.55,1.354    c-1.47,0.592-2.916,1.266-4.257,2.125c-2.694,1.696-5.013,3.977-6.772,6.604c-1.764,2.629-2.996,5.581-3.681,8.643    c-0.663,3.065-0.797,6.253-0.286,9.347c0.125,0.772,0.276,1.542,0.474,2.3c0.099,0.388,0.194,0.738,0.32,1.15l0.163,0.516    l0.202,0.579c0.543,1.512,1.232,2.93,2.084,4.272c1.69,2.683,3.995,4.953,6.632,6.634c2.638,1.69,5.597,2.799,8.631,3.351    c3.032,0.57,6.163,0.577,9.193,0.009c1.515-0.291,3.013-0.672,4.482-1.181c1.474-0.491,2.928-1.104,4.306-1.884    c1.369-0.79,2.681-1.729,3.768-2.897c1.14-1.16,2.123-2.439,2.938-3.806c1.631-2.716,2.708-5.646,3.387-8.658    c0.667-3.014,0.916-6.131,0.631-9.251C71.969,68.248,71.122,65.109,69.523,62.289z M67.351,79.659    c-0.598,2.593-1.563,5.116-2.878,7.335c-0.679,1.082-1.441,2.114-2.386,2.917c-0.511,0.395-1.124,0.649-1.578,1.078    c-0.479,0.404-0.99,0.77-1.511,1.12c-2.104,1.362-4.467,2.401-6.988,2.892c-2.517,0.494-5.146,0.511-7.688,0.053    c-5.089-0.893-9.81-3.809-12.514-8.161c-0.681-1.073-1.247-2.255-1.672-3.443l-0.153-0.436l-0.16-0.518    c-0.084-0.271-0.178-0.617-0.256-0.926c-0.163-0.636-0.288-1.281-0.392-1.932c-0.43-2.598-0.274-5.288,0.318-7.844    c0.626-2.552,1.695-4.976,3.164-7.098c0.737-1.06,1.576-2.034,2.506-2.912c0.477-0.427,0.984-0.802,1.486-1.19    c0.492-0.4,0.966-0.808,1.46-1.227c0.963-0.86,1.996-1.74,3.258-2.182c1.276-0.373,2.561-0.618,3.883-0.794    c2.646-0.383,5.303-0.534,8.009,0.466h0.006c2.638,0,5.181,1.035,7.349,2.367c2.176,1.316,3.958,2.969,5.183,5.177    C68.269,68.837,68.53,74.49,67.351,79.659z"/><path d="M123.358,57.83c-2.38-2.067-5.176-3.682-8.192-4.613c-3.026-0.937-6.201-1.193-9.276-0.895    c-3.09,0.3-6.092,1.136-8.946,2.322c-1.445,0.553-2.912,1.138-4.276,1.939c-1.351,0.819-2.529,1.896-3.592,3.06    c-2.108,2.358-3.613,5.183-4.642,8.102c-0.522,1.461-0.931,2.956-1.235,4.479c-0.313,1.521-0.536,3.079-0.565,4.664    c-0.043,1.583,0.15,3.185,0.569,4.719c0.253,0.758,0.65,1.455,0.935,2.187c0.167,0.443,0.249,0.665,0.433,1.081    c0.166,0.388,0.339,0.741,0.513,1.096c0.708,1.415,1.578,2.747,2.604,3.938c1.041,1.177,2.191,2.241,3.416,3.194    c4.901,3.811,10.99,5.886,17.149,5.847c3.071-0.005,6.201-0.515,9.108-1.743c2.896-1.204,5.512-3.127,7.599-5.481l0.054-0.059    c2.021-2.217,3.85-4.896,4.871-7.88c1.043-2.981,1.485-6.162,1.424-9.321C131.135,68.115,128.135,61.957,123.358,57.83z     M125.793,69.001c0.221,0.597,0.488,1.183,0.679,1.798c0.402,1.222,0.682,2.495,0.819,3.795c0.063,0.65,0.11,1.307,0.106,1.967    c0.007,0.659-0.031,1.324-0.201,1.966c-0.274,1.293-0.656,2.563-1.158,3.788c-0.999,2.46-2.473,4.654-4.271,6.705l-0.002,0.002    c-1.732,1.927-3.832,3.433-6.153,4.374c-2.319,0.954-4.835,1.347-7.364,1.335c-5.07,0.005-10.264-1.836-14.366-5.021    c-2.044-1.6-3.814-3.544-5.103-5.756c-0.157-0.279-0.315-0.56-0.446-0.818c-0.124-0.221-0.322-0.678-0.426-0.886    c-0.233-0.604-0.116-1.32-0.177-1.945c-0.081-0.622-0.253-1.214-0.326-1.828c-0.086-0.61-0.14-1.222-0.184-1.834    c-0.047-1.226-0.069-2.464,0.108-3.698c0.178-1.229,0.439-2.464,0.822-3.682c0.77-2.424,1.951-4.853,3.729-6.858    c0.895-0.985,1.884-1.919,3.061-2.57c0.602-0.305,1.219-0.571,1.843-0.807l1.878-0.635l1.83-0.658    c0.612-0.208,1.236-0.379,1.861-0.542c1.246-0.344,2.523-0.58,3.817-0.717c2.595-0.261,5.254-0.085,7.714,0.716    c2.47,0.793,4.734,2.157,6.654,3.874c1.918,1.724,3.478,3.834,4.549,6.156C125.362,67.799,125.582,68.399,125.793,69.001z"/></g></g></svg>