<?xml version="1.0" ?><!DOCTYPE svg  PUBLIC '-//W3C//DTD SVG 1.1//EN'  'http://www.w3.org/Graphics/SVG/1.1/DTD/svg11.dtd'><svg enable-background="new 0 0 158.52 155.031" height="155.031px" id="icons" version="1.1" viewBox="0 0 158.52 155.031" width="158.52px" xml:space="preserve" xmlns="http://www.w3.org/2000/svg" xmlns:xlink="http://www.w3.org/1999/xlink"><g><path d="M145.221,38.278c-4.759-12.357-15.236-19.948-27.938-22.849c-9.148-2.089-27.515-2.916-47.722-3.365   c-16.76-0.373-33.779-1.864-47.09,8.964C10.182,31.023,7.75,49.056,6.752,63.923C5.885,76.822,8.282,115.46,13.92,127.58   c8.101,17.413,22.343,23.696,41.42,24.832c-0.021-4.155-0.069-11.879-0.095-16.883c-21.669,4.712-26.242-7.19-26.242-7.19   c-3.543-9.003-4.996-8.968-7.648-10.397c-4.307-2.321-2.368-8.116-0.467-7.735c8.703,1.747,11.94,8.028,11.94,8.028   c6.947,11.907,18.222,8.465,22.667,6.474c0.699-5.034,2.717-8.471,4.945-10.416c-17.301-1.969-35.489-8.649-35.489-38.494   c0-8.504,3.043-15.452,8.026-20.907c-0.809-1.963-0.949-11.438,3.755-20.614c0,0,3.541-2.092,18.425,7.985   c6.214-1.726,12.877-2.592,19.496-2.622c6.62,0.03,13.288,0.896,19.513,2.622c14.867-10.078,21.398-7.985,21.398-7.985   c4.24,10.73,1.573,18.651,0.765,20.614c4.995,5.455,8.016,12.404,8.016,20.907c0,25.55-17.082,32.681-25.86,35.525   c-4.047,1.311-5.694,2.36-5.707,4.908c-0.021,4.354,3.283,6.157,3.283,13.424c0,7.274-0.043,15.989-0.07,21.464   c36.688-3.997,41.676-15.994,47.356-35.592c3.638-12.552,4.264-28.046,5.269-41.077C149.524,62.668,149.519,49.442,145.221,38.278z   " fill="#575757"/><path d="M154.552,21.082c-2.524-7.053-7.848-13.298-14.59-16.63c-4.375-2.162-8.94-2.694-13.721-2.825   c-7.565-0.207-15.05-0.246-22.607,0C97.281,1.833,90.924,0.988,84.569,1C75.715,1.018,66.85,1.547,57.998,1.774   C49.134,2.001,40.3,0.98,31.462,1.369c-6.937,0.306-13.075,1.7-18.709,6.099c-5.871,4.584-9.869,11.091-11.007,18.47   c-0.5,3.246-0.269,6.651-0.276,9.924c-0.008,4.258-0.04,8.516-0.017,12.774c0.049,8.947,0.28,17.892,0.433,26.838   c0.291,17.043,0.085,34.1,0.712,51.136c0.301,8.176,2.861,16.46,9.589,21.613c6.924,5.303,14.845,4.78,23.053,5.457   c14.27,1.213,28.612,1.324,42.922,1.211c0.63-0.014,1.26-0.029,1.891-0.043c15.038-0.345,30.075-0.559,45.116-0.765   c8.577-0.118,16.299-2.134,22.523-8.405c6.158-6.205,7.64-13.306,7.897-21.732c0.531-17.425,0.016-34.816,0.067-52.241   c0.026-8.873,0.292-16.73,0.195-25.603c-0.052-4.757-0.066-9.505,0.025-14.261C155.946,28.117,155.823,24.636,154.552,21.082z    M76.344,149.03c-5.065-0.048-10.129-0.062-15.193-0.098c0.05-1.474,0.096-2.948,0.117-4.423c0.033-2.316,0.066-4.632,0.099-6.948   c0.046-3.191-2.991-2.393-5.105-2.075c-2.996,0.451-6.066,0.554-9.086,0.356c-5.722-0.375-10.452-4.057-12.677-9.185   c-2.13-4.91-5.033-10.406-10.041-12.883c0.301,0.164,0.139,0.009-0.186-0.262c9.197,1.087,11.236,12.183,19.581,15.181   c3.808,1.368,7.614,1.223,11.52,0.366c1.409-0.415,5.358-1.026,5.676-2.782c0.349-0.772,0.407-2.019,0.599-2.844   c0.531-2.546,2.332-4.625,4.278-6.223c4.276-3.51-3.194-4.565-5.067-4.85c-10.162-1.544-19.742-4.672-25.487-13.749   c-3.977-6.284-4.745-13.983-4.807-21.259c-0.025-2.972,0.202-5.893,0.93-8.78c0.711-2.818,1.843-5.478,3.374-7.953   c1.42-2.295,4.572-4.52,4.006-7.419c-2.029-5.943-1.482-11.642,0.202-17.464c1.241,0.112,3.129,0.122,3.65,0.263   c2.235,0.609,4.443,1.373,6.512,2.424c2.906,1.477,5.614,3.565,8.549,4.915c2.517,1.158,6.567-0.761,9.273-1.231   c5.702-0.992,11.713-1.546,17.493-0.964c3.138,0.316,6.26,0.635,9.356,1.26c1.575,0.318,3.134,0.746,4.697,1.119   c1.639,0.39,3.218-1.037,4.514-1.845c4.663-2.909,10.683-6.544,16.45-6.396c2.079,5.655,3.229,11.833,1.073,17.683   c-0.738,2.002,0.599,2.906,1.746,4.36c2.193,2.833,3.696,5.907,4.643,9.353c0.764,2.779,0.828,6.479,0.776,8.928   c-0.467,6.955-0.037,13.66-3.472,19.991c-2.836,5.228-7.507,10.241-12.849,12.991c-2.485,1.279-4.981,2.297-7.635,3.152   c-1.659,0.534-3.409,0.946-5.139,1.165c-1.699,0.308-4.07,0.087-5.631,0.798c-2.734,1.245,1.739,5.302,2.438,6.724   c1.317,2.681,1.794,5.605,1.951,8.56c0.356,6.708,0.049,13.503,0.019,20.221C90.453,149.216,83.412,149.137,76.344,149.03z    M150.542,125.849c-0.524,8.389-4.14,15.137-11.501,19.548c-7.059,4.23-15.425,3.292-23.328,3.544   c-4.96,0.159-9.906,0.221-14.85,0.249c0.099-2.444,0.204-4.889,0.259-7.334c0.188-8.351,1.475-18.199-3.396-25.311   c12.959-2.88,27.28-7.643,31.816-21.41c2.326-7.059,2.696-14.444,2.327-21.833c-0.366-7.338-3.284-13.817-7.843-19.456   c1.194-3.838,1.557-7.754,1.171-11.789c-0.234-2.447-0.966-10.192-3.967-10.746c-4.304-1.38-10.627,1.097-14.316,2.861   c-2.833,1.355-5.453,2.912-8.067,4.613c-7.552-1.533-14.944-3.007-22.71-2.331c-5.629,0.49-11.019,1.874-16.531,2.982   c-6.03-4.351-15.27-10.384-23.032-8.333c-2.739,1.346-3.314,8.218-3.545,10.928c-0.345,4.046,0.051,7.97,1.275,11.806   c-4.661,5.896-8.075,12.235-8.445,19.899c-0.136,2.819,0.088,5.628,0.74,8.388c1.078,4.566,1.855,9.455,3.701,13.788   c2.114,4.961,5.044,9.393,9.38,12.712c6.565,5.024,13.977,6.782,21.861,7.901c-1.71,2.499-2.692,5.279-3.29,8.4   c-5.94,2.442-13.957,2.744-18.176-2.994c-1.96-2.241-3.131-5.015-5.157-7.222c-2.452-2.672-5.804-4.906-9.451-5.456   c-1.605-0.242-3.075-0.271-4.674,0.286c-4.854,1.83-1.146,6.594,1.863,8.032c3.995,2.731,5.742,6.771,7.492,11.082   c-0.303-0.776,1.026,2.126,1.153,2.348c0.886,1.4,1.912,2.726,3.122,3.865c3.058,2.623,6.357,4.161,10.289,4.998   c4.178,0.889,8.505,0.378,12.688-0.381c0.095,3.14,0.191,6.28,0.286,9.419c-6.353-0.061-12.704-0.179-19.055-0.469   c-5.422-0.247-11.421,0.083-16.628-1.737c-5.749-2.009-9.075-6.584-10.957-12.35c-2.131-6.529-1.533-14.136-1.833-20.93   c-0.328-7.42-0.654-14.84-0.911-22.263C7.873,78.715,6.266,61.284,6.318,48.839c0.036-8.546,1.436-12.252,2.026-20.78   c0.535-7.738,5.615-14.648,12.342-18.293c6.998-3.791,15.921-2.958,23.592-2.57C53.05,7.64,61.865,6.554,70.647,6.498   c13.115-0.083,25.235,0.477,38.349,0.563c4.544,0.03,9.093,0.08,13.632,0.302c3.741,0.183,7.655,0.148,11.243,1.344   c6.622,2.207,11.985,7.732,14.311,14.275c1.442,4.056,1.388,8.242,1.733,12.482c0.354,4.343,0.453,8.66,0.51,13.016   c0.114,8.761,0.627,16.509,0.723,25.269C151.337,91.171,151.63,108.445,150.542,125.849z"/></g></svg>