<?xml version="1.0" ?><!DOCTYPE svg  PUBLIC '-//W3C//DTD SVG 1.1//EN'  'http://www.w3.org/Graphics/SVG/1.1/DTD/svg11.dtd'><svg enable-background="new 0 0 158.52 155.031" height="155.031px" id="icons" version="1.1" viewBox="0 0 158.52 155.031" width="158.52px" xml:space="preserve" xmlns="http://www.w3.org/2000/svg" xmlns:xlink="http://www.w3.org/1999/xlink"><g><path d="M153.339,39.274l-42.62,58.54l22.81,39.46c-0.16,0.06-0.32,0.12-0.48,0.17   c-11.86,3.88-33.92,4.73-46.45,3.91c-13.85-0.9-61.29,0.6-75.64-14.04c-8.68-8.85-5.79-60.59-6.47-71.69   c-0.7-11.5-1.06-27.13,19.64-35.31c12.88-5.08,25.22-1.14,70.66-1.14c15.836,0,40.98-2.32,51.6,8.76   C149.769,31.454,151.929,35.264,153.339,39.274z" fill="#EDEAD8"/><path d="M146.982,41.735c-1.502-2.584-13.524,6.736-16.955,9.659c-6.917,5.893-41.269,33.173-49.893,39.237   c-8.492,5.971-13.768,10.245-22.213,16.284c-17.766,12.705-18.707,14.289-26.605,19.871c-1.7,1.201-11.953,4.924-5.212,10.522   c3.385,2.811,13.913-5.486,17.235-7.809c8.192-5.727,13.699-11.303,21.522-17.508c6.195-4.832,9.516-6.822,15.931-11.356   c0.001,0,0.002-0.001,0.002-0.002c0.499,0.476,1.084,0.994,1.779,1.581c7.582,6.405,8.582,4.785,13.35,8.771   c9.013,7.535,19.249,17.668,29.166,24.086c2.234,1.446,7.066,3.432,10.57,2.338C138.903,136.396,155.052,55.62,146.982,41.735z" fill="#D0C7B7"/><path d="M154.52,38.423c0,0,1.429,57.786-0.396,78.889c-1.468,16.976-18.465,20.098-18.465,20.098   s-1.825-55.894-0.543-85.99C135.633,39.297,153.725,29.545,154.52,38.423z" fill="#A32E25"/><path d="M141.741,26.405C126.166,29.638,80.08,66.148,80.08,66.148S40.635,38.821,24.691,27.661   C12.489,19.12,5.425,32.132,5.425,37.497c0,0,0.031,71.574,0.396,79.889c0.74,16.853,19.495,18.975,19.495,18.975V57.102   l55.243,40.54c0,0,57.764-39.57,70.166-56.433C156.908,32.801,149.323,24.831,141.741,26.405z" fill="#E8483A"/><path d="M157.654,50.098c-0.098-8.281,0.389-17.28-1.157-25.437c-1.374-7.253-5.393-13.827-11.766-17.717   c-6.978-4.259-14.639-3.924-22.501-3.724c-7.938,0.202-15.878,0.41-23.819,0.409C85.712,3.628,73.038,2.573,60.351,2.661   C51.997,2.72,43.645,3.375,35.284,3.622c-8.33,0.247-16.492,1.48-22.927,7.198c-5.093,4.525-7.91,10.837-8.512,17.713   c-0.619,7.073-0.6,14.201-0.723,21.294C2.818,67.424,1.969,85.083,2.424,102.68c0.409,15.83-0.422,35.174,13.861,45.529   c4.149,3.008,8.951,4.657,14.039,4.951c8.771,0.506,17.43,0.253,26.199-0.167c16.858-0.808,33.774-0.782,50.641-0.204   c7.503,0.257,14.962,0.946,22.476,0.809c7.666-0.14,15.142-4.456,19.97-10.262c4.371-5.256,6.513-11.569,6.529-18.365   c0.02-8.313,0.005-16.627,0.054-24.94C156.293,83.39,157.851,66.732,157.654,50.098z M24.917,10.004   c3.409-1.22,6.988-1.185,10.562-1.36c4.39-0.215,8.782-0.417,13.177-0.486c7.222-0.114,14.432,0.126,21.64,0.563   c11.963,0.726,23.958,0.763,35.938,0.583c8.329-0.125,16.672-0.444,24.999-0.609c7.271-0.144,14.395,4.003,17.856,10.279   c0,0-2.388,2.019-3.485,2.798c-0.754,0.535-1.509,1.071-2.263,1.606c-2.179,1.547-4.397,3.061-6.52,4.684   c-5.109,3.903-9.08,7.687-14.62,10.992c-5.387,3.214-10.582,6.614-15.799,10.09c-5.425,3.615-10.909,6.967-15.98,11.138   c-2.387,1.963-4.771,3.93-7.146,5.909c-0.86,0.716-2.749,2.958-3.694,2.27c-2.109-1.534-4.204-3.081-6.282-4.658   c-9.567-7.264-18.43-15.273-27.93-22.623c-4.197-3.248-8.267-6.739-12.565-9.856c-1.705-1.237-3.749-2.102-5.541-3.206   c-1.886-1.163-3.575-2.8-5.282-4.212c-2.514-2.079-5.111-4.055-7.837-5.849C16.905,14.481,20.641,11.535,24.917,10.004z    M130.59,147.584c-14.462,0.379-29.943,0.067-44.41,0.131c-13.536,0.06-27.021,0.316-40.541-0.53   c-4.232-0.265-8.467-0.491-12.703-0.687c-1.071-0.049-4.885-0.363-5.158-0.409c0.025-1.089,0.138-7.54,0.17-9.677   c0.054-3.58,0.021-7.162-0.027-10.742c-0.096-7.129-0.212-14.257-0.212-21.387c0-4.743,0.01-9.486,0.001-14.229   c-0.01-5.437-0.188-10.863-0.03-16.3c0.111-3.841,1.239-7.543,1.435-11.372c3.01,1.808,5.9,3.831,8.838,5.753   c3.322,2.173,6.7,4.431,9.792,6.925c2.634,2.125,4.937,4.558,7.653,6.627c6.553,4.991,13.243,9.798,19.825,14.75   c2.275,1.712,5.179,4.396,8.016,2.855c3.944-2.142,6.428-4.756,9.988-7.506c2.975-2.298,5.839-4.74,8.743-7.127   c7.563-6.215,15.771-11.371,23.726-17.041c1.928-1.374,3.856-2.746,5.79-4.111c0.298,9.786,0.622,19.571,0.9,29.357   c0.261,9.18,0.079,18.434-0.593,27.594c-0.228,3.112-0.469,6.223-0.679,9.336c-0.215,3.177-0.321,6.352-0.38,9.536   C130.704,141.034,130.59,147.584,130.59,147.584z M152.424,77.333c-0.698,13.983-1.13,27.968-1.452,41.963   c-0.113,4.921,0.1,9.833-1.943,14.44c-2.35,5.3-6.785,9.659-12.054,12.049c0.126-12.229-1.424-24.54-0.521-36.754   c0.428-5.784-0.463-11.635-0.417-17.447c0.026-3.266,0.085-6.527,0.161-9.792c0.091-3.885,0.221-7.774,0.242-11.66   c0.009-1.696,0.018-3.392,0.027-5.089c0.011-2.135,0.757-6.225-0.787-7.988c-2.437-2.781-4.876,0.084-6.794,1.386   c-3.413,2.316-9.26,6.866-12.709,9.137c-6.246,4.112-11.922,8.651-17.407,13.734c-1.856,1.72-3.711,3.441-5.568,5.16   c-2.236,2.07-3.601,3.158-6.096,4.912c-1.417,0.996-2.95,2.802-4.473,3.618c-1.467,0.785-3.463-0.753-4.718-1.694   c-5.891-4.414-11.963-8.585-17.823-13.038c-3.097-2.354-6.13-4.57-8.715-7.502c-3.254-3.691-8.008-6.459-12.03-9.252   c-3.088-2.145-5.14-4.31-8.416-6.162c-1.259-0.712-3.098-2.655-4.646-2.639c-2.485,0.026-2.814,3.017-2.933,4.365   c-0.144,1.638-0.114,5.226-0.233,7.062c-0.267,4.116-0.387,8.222-0.436,12.346c-0.08,6.777-0.076,13.554-0.163,20.331   c-0.108,8.376,1.795,16.661,1.548,25.063c-0.204,6.931-1.143,13.732-1.167,20.697c-4.517-2.065-8.254-5.667-10.62-10.02   c-2.736-5.034-2.774-10.632-2.947-16.22c-0.365-11.787-0.702-23.634-0.793-35.425c-0.087-11.388,0.894-22.742,0.872-34.13   c-0.011-5.69-0.1-11.382,0.153-17.068c0.139-3.111,0.406-5.938,1.699-8.86c4.308,4.531,10.269,6.848,15.203,10.607   c2.618,1.994,5.235,3.988,7.853,5.982c4.123,3.141,8.254,6.268,12.41,9.364c2.209,1.645,4.435,3.282,6.52,5.083   c1.85,1.597,3.347,3.55,5.236,5.104c4.055,3.336,8.35,6.434,12.58,9.536c2.35,1.723,6.778,6.329,9.958,5.425   c1.913-0.544,3.639-1.551,5.161-2.81c3.768-3.117,9.468-7.557,13.641-10.113c4.249-2.602,6.472-5.131,10.525-8.029   c4.754-3.398,9.717-6.357,14.721-9.359c9.378-5.625,16.999-13.334,26.106-19.376c2.059,7.846,1.137,16.861,1.185,24.909   C152.423,58.563,152.892,67.957,152.424,77.333z"/></g></svg>