<?xml version="1.0" ?><!DOCTYPE svg  PUBLIC '-//W3C//DTD SVG 1.1//EN'  'http://www.w3.org/Graphics/SVG/1.1/DTD/svg11.dtd'><svg enable-background="new 0 0 158.52 155.031" height="155.031px" id="icons" version="1.1" viewBox="0 0 158.52 155.031" width="158.52px" xml:space="preserve" xmlns="http://www.w3.org/2000/svg" xmlns:xlink="http://www.w3.org/1999/xlink"><g><path d="M147.629,106.934c-0.84-10.68-0.59-22.79-0.19-34.39l-132.78-6.02c0.15,1.97,0.2,3.89,0.11,5.72   c-1.23,25.04-2.69,45.43-0.1,57.03c2.44,10.96,12.14,18.9,25.2,18.9c11.45,0,23.21-3.48,32.52-3.51   c16.85-0.05,39.7,3.43,56.35-0.87C146.769,139.144,148.829,122.154,147.629,106.934z" fill="#E7E3C6"/><path d="M145.519,26.504c3.79,6.33,2.62,25.36,1.92,46.04c-27.117,4.941-98.326,10.437-132.78-6.02   c-0.87-11.97-5.1-26.04-1.5-36.57c9.19-26.93,34.54-19.24,46.88-19.87c12.79-0.66,37.98-1.91,51-1.91   C131.849,8.174,140.099,17.444,145.519,26.504z" fill="#F2F1E5"/><path d="M110.381,30.984c0-6.975-7.308-4.225-7.308-1.496c0,3.354,0.083,8.799,0.083,8.799   s-3.678-5.125-5.542-6.775c-5.569-4.93-10.841-7.528-21.252-8.463c-6.868-0.616-18.041,3.838-22.933,9.066   c-8.868,9.476-12.328,24.323-11.136,36.902C43.598,82.783,55.3,96.926,69.52,100.083c12.753,2.831,24.748-4.711,33.117-13.985   c1.433,6.546,1.58,13.005,0.523,21.161c-1.117,8.625-6.242,17.125-18.268,18.758c-4.67,0.634-16.099,0.492-22.845-5.845   c-2.833-2.661-5.28-8.949-6.088-12.674c-0.54-2.489-7.082-4.364-7.303-0.15c-1.008,19.241,14.458,26.98,27.473,27.252   c8.284,0.173,16.249-0.955,22.611-5.522c5.919-4.25,9.929-13.569,10.986-21.404c1.614-11.966-0.019-24.242,0.377-36.306   c0.204-6.208,0.11-12.403,0.117-18.611C110.225,46.935,110.381,38.509,110.381,30.984z M98.364,77.948   c-3.708,10.74-12.869,14.047-19.737,14.047c-10.209,0-23.471-7.874-26.074-22.793c-1.774-10.168,1.126-18.727,4.326-24.678   c6.15-11.435,21.115-17.177,33.129-8.462C103.255,45.67,103.162,64.053,98.364,77.948z" fill="#B87737"/><path d="M156.321,82.98C156.176,84.23,156.482,81.731,156.321,82.98L156.321,82.98z"/><path d="M156.44,110.414c-0.22-3.872-0.429-7.744-0.643-11.616c-0.211-3.809,0.524-11.418,0.524-18.818   c0-12.024-0.247-20.838-0.447-32.819c-0.133-7.964,1.016-16.743-0.87-24.534c-1.784-7.352-7.091-13.718-13.836-17.071   c-6.383-3.172-13.306-2.622-20.212-2.653c-8.591-0.038-17.182-0.076-25.773-0.114c-8.978-0.04-17.952-0.051-26.929,0.059   c-8.37,0.102-16.782-0.447-25.133-0.058c-4.036,0.188-8.044,0.615-12.072,0.882c-3.921,0.26-7.991,0.526-11.624,2.176   C12.422,9.03,7.423,16.085,5.306,23.304c-1.091,3.722-1.133,7.64-1.578,11.469c-0.532,4.569-0.732,9.147-0.934,13.74   c-0.339,7.734-0.725,15.469-0.853,23.209c-0.25,15.058-0.165,30.17,0.054,45.228c0.121,8.314-0.362,17.103,4.503,24.288   c4.52,6.674,11.67,10.5,19.474,11.986c7,1.332,14.446,0.642,21.526,0.621c4.011-0.012,8.02,0.026,12.031,0.102   c4.581,0.086,47.868,1.602,64.934,1.244c6.072-0.127,11.843-0.47,17.345-3.408c6.528-3.485,11.393-9.495,13.632-16.532   C157.95,127.368,156.902,118.534,156.44,110.414z M150.303,109.372c0,9.029,0.266,18.903-0.6,22.934   c-1.646,7.655-8.254,14.921-15.912,16.918c-5.969,1.556-11.56,0.695-17.585,0.695c-3.74,0-8.05-0.386-16.996-0.386   c-3.785,0-16.517-0.135-20.305,0.017c-4.35,0.174-8.719,0.091-13.073,0.165c-9.048,0.153-18.104,0.017-27.153-0.023   c-3.903-0.017-8.088,0.239-11.943-0.605c-7.737-1.695-13.735-7.252-16.417-14.649c-1.342-3.701-1.266-7.511-1.388-11.393   c-0.145-4.58-1.017-11.258-1.017-38.935c0-8.842,0.061-32.868,0.619-41.693c0.369-5.844,0.254-12.275,1.946-17.942   C12.63,17.268,18.685,10.95,25.897,8.69c5.851-1.833,12.749-0.99,18.79-1.356c8.997-0.546,17.859,0.05,26.851,0.151   c8.594,0.097,17.188,0.182,25.782,0.245c4.188,0.031,8.377,0.07,12.565,0.095c4.37,0.026,8.662-0.831,13.03-0.772   c6.748,0.09,13.155-0.152,18.912,4.034c6.296,4.578,8.722,11.146,8.805,18.671c0.157,14.28-0.616,20.521-0.145,34.811   c0.146,4.418-0.109,8.836,0.108,13.253C150.98,85.639,150.303,101.524,150.303,109.372z"/><path d="M113.84,78.656c-0.012-2.794,0.047-5.601-0.04-8.393c-0.089-2.846-0.599-5.517-0.43-8.393   c0.186-3.153,0.41-6.281,0.43-9.442c0.089-5.702,0.014-11.411,0.011-17.113c-0.002-2.663-0.003-5.327-0.005-7.99   c-0.001-2.155-0.872-3.17-3.122-3.17c-2.095,0-4.698-0.447-6.748,0c-3.16,0.018-1.079,8.078-0.935,10.354   c-7.262-9.438-21.25-13.713-32.744-11.01c-14.331,3.371-22.972,16.781-24.994,30.69c-1.926,13.249,0.788,29.353,11.175,38.726   c9.357,8.473,25.508,10.472,37.009,5c3.827-1.821,6.981-4.463,9.383-7.939c-1.034,9.353,1.621,19.89-6.253,27.183   c-4.984,4.616-13.641,5.193-20.103,4.559c-7.078-0.694-13.649-5.417-15.968-12.354c-1.016-3.039-1.067-4.165-2.12-4.801   c-1.094-0.661-2.641-0.523-3.866-0.473c-1.349,0.028-3.849-0.466-5.044,0.318c-1.397,0.917-0.265,4.766-0.027,6.094   c1.124,6.252,3.724,12.536,8.979,16.41c4.929,3.634,11.372,5.092,17.375,5.516c8.233,0.582,17.078-0.329,24.196-4.784   C116.66,117.221,113.883,95.648,113.84,78.656z M109.59,89.147c-0.025,13.908-0.069,31.979-15.681,37.831   c-9.424,3.532-22.811,2.543-31.366-2.902c-5.459-3.475-8.961-10.372-9.25-16.296c1.249-0.043,3.681,0,3.681,0   c3.849,17.34,22.202,19.977,35.488,15.287c9.857-3.479,13.153-13.691,13.761-23.206c0.192-3.001,0.138-9.166-0.07-13.129   c-0.082-1.565,0.144-1.78-1.073-2.555c-1.293-0.824-2.059,0.467-2.693,1.343c-1.083,1.495-2.407,2.793-3.791,4.007   c-3.155,2.769-6.453,5.188-10.463,6.577c-3.504,1.213-7.085,1.662-10.764,1.618c-5.319-0.064-11.986-2.044-16.335-5.049   c-9.134-6.312-11.848-18.957-12.046-29.351c-0.222-11.629,3.549-23.819,12.921-31.255c9.39-7.451,23.287-7.691,33.232-1.098   c2.37,1.548,4.384,3.578,5.917,5.958c0.666,1.034,1.137,2.797,2.327,3.348c1.306,0.604,3.14-0.314,3.246-1.743   c0-3.573,0.358-7.44,0-10.28c1.023,0.001,2.045,0.003,3.068,0.004C109.665,48.553,109.629,68.85,109.59,89.147z"/><path d="M104.29,58.984c-0.01-0.078-0.014-0.101-0.016-0.103c-0.929-7.387-3.327-14.393-8.036-20.269   c-3.918-4.889-9.792-6.662-15.85-7.051c-9.751-0.626-17.245,4.938-21.951,13.156c-5.451,9.885-6.54,21.941-2.105,32.472   c4.067,9.658,12.908,16.316,23.673,15.45c17.442-1.403,25.135-17.597,24.289-33.555C104.294,59.069,104.293,59.042,104.29,58.984z    M100.752,64.773c-0.006,0.056-0.009,0.078-0.011,0.087c-0.617,5.712-2.142,11.573-5.731,16.194   c-3.579,4.607-8.231,6.811-14.052,7.119c-6.225,0.329-12.192-1.258-16.56-5.97c-3.954-4.344-6.073-10.074-6.591-15.88   c-0.812-9.103,0.722-19.216,7.515-25.875c7.565-6.437,21.412-6.235,28.157,1.209c5.441,6.005,7.54,15.094,7.274,23.02   C100.755,64.687,100.754,64.711,100.752,64.773z"/><path d="M100.741,64.861c0.003-0.029,0.008-0.058,0.011-0.087c0.001-0.032,0-0.065,0.002-0.097   C100.751,64.634,100.732,64.901,100.741,64.861z"/><path d="M111.577,34.179C112.134,37.465,111.707,33.978,111.577,34.179L111.577,34.179z" fill="#75420E"/></g></svg>