<?xml version="1.0" ?><!DOCTYPE svg  PUBLIC '-//W3C//DTD SVG 1.1//EN'  'http://www.w3.org/Graphics/SVG/1.1/DTD/svg11.dtd'><svg enable-background="new 0 0 158.52 155.031" height="155.031px" id="icons" version="1.1" viewBox="0 0 158.52 155.031" width="158.52px" xml:space="preserve" xmlns="http://www.w3.org/2000/svg" xmlns:xlink="http://www.w3.org/1999/xlink"><g><path d="M126.22,6.482c10.974,2.109,19.509,8.348,20.106,23.604c0.464,11.857,1.988,37.741,1.763,45.84   c-0.469,16.854-0.175,36.879-0.4,46.538c-0.309,13.262-7.121,25.625-18.252,26.213c-15.582,0.828-23.321,0.87-37.922,0.87   c-5.96,0-23.881,0-39.779-2.007c-18.843-2.378-43.868,2.972-47.177-21.743c-2.121-15.844-2.4-48.223-2.124-63.775   c0.091-5.131,1.133-34.361,1.578-40.931C4.762,10.096,16.613,3.125,28.236,2.592C39.555,2.075,105.751,2.548,126.22,6.482z" fill="#0071BC"/><path d="M49.093,37.031c-6.14,0-10.156,5.986-10.156,11.242c0,5.157,3.902,9.23,9.92,9.23h0.119   c6.255,0,13.15-5.084,13.15-10.241C62.007,42.006,55.231,37.031,49.093,37.031z" fill="#FFFFFF"/><path d="M57.718,117.693H41.08c0,0-5.839-45.612-2-51.244c4.735-6.946,18.639-2,18.639-2V117.693z" fill="#FFFFFF"/><path d="M126.273,117.693c-3.524,3.131-20.857,0-20.857,0V90.144c0-7.214-2.953-12.132-9.442-12.132   c-4.963,0-6.717,3.319-8.01,6.526c-0.481,1.144-1.405,2.745-1.405,4.344c0,0,6.361,25.275,1,30.812c-3.422,3.535-19.682,0-19.682,0   s0.236-50.807,0-55.244h18.682v8.358c1.109-3.655,8.076-11.867,17.608-11.867c11.812,0,24.938,10.684,24.106,27.148   C127.897,95.518,131.834,112.752,126.273,117.693z" fill="#FFFFFF"/><path d="M49.175,41.013c0,0-0.239,0.013-0.688,0.038c-0.232,0.01-0.512,0.026-0.731,0.073c-0.247,0.042-0.52,0.063-0.865,0.159   c-1.349,0.278-3.195,1.082-4.532,2.806c-0.674,0.855-1.124,1.985-1.296,3.264c-0.035,0.157-0.029,0.324-0.04,0.489l-0.014,0.249   l-0.013,0.125l-0.003,0.031l-0.002,0.016c0.002,0.093-0.004-0.109-0.003-0.081l0.001,0.079c0.008,0.403-0.005,0.918,0.042,1.151   c0.018,0.281,0.059,0.628,0.117,0.979c0.08,0.337,0.142,0.693,0.275,1.024c0.437,1.373,1.491,2.58,2.864,3.302   c1.347,0.789,2.987,1.087,4.674,1.081c0.311-0.035,0.974-0.02,1.308-0.066c0.377-0.037,0.761-0.072,1.169-0.167   c0.804-0.15,1.57-0.411,2.265-0.773c0.708-0.345,1.339-0.805,1.871-1.346c0.545-0.53,0.989-1.149,1.313-1.818   c0.345-0.66,0.571-1.372,0.688-2.096c0.075-0.359,0.099-0.724,0.118-1.087l0.004-0.135l0.001-0.034   c0.001,0.037-0.002-0.106,0.003,0.078l-0.002-0.02l-0.007-0.078l-0.027-0.313c-0.02-0.202-0.031-0.429-0.059-0.605   c-0.12-0.616-0.254-1.314-0.527-1.903c-0.252-0.6-0.588-1.123-0.945-1.587c-0.733-0.918-1.613-1.546-2.462-1.955   c-0.856-0.399-1.662-0.638-2.358-0.737c-0.688-0.115-1.249-0.148-1.634-0.14c-0.384-0.001-0.588-0.002-0.588-0.002L49.175,41.013z    M49.093,37.047c0,0,0.274,0.019,0.788,0.055c0.51,0.03,1.271,0.122,2.221,0.352c0.95,0.208,2.101,0.624,3.293,1.342   c1.189,0.715,2.407,1.785,3.347,3.211c0.459,0.717,0.862,1.508,1.14,2.365c0.322,0.846,0.49,1.736,0.613,2.744   c0.138,1.782-0.005,3.896-0.927,5.791c-0.43,0.958-1.034,1.866-1.783,2.652c-0.739,0.793-1.6,1.5-2.563,2.029   c-0.951,0.552-1.987,0.957-3.047,1.211c-0.518,0.144-1.082,0.234-1.655,0.308c-0.615,0.085-0.913,0.078-1.559,0.123   c-2.127,0.039-4.424-0.339-6.41-1.44c-2.01-1.043-3.655-2.804-4.582-4.798c-0.47-1.018-0.789-1.984-0.945-3.128   c-0.106-0.623-0.098-0.966-0.134-1.407l-0.005-0.079l-0.001-0.192l0.005-0.19l0.019-0.378c0.017-0.251,0.017-0.5,0.063-0.748   c0.25-1.982,0.993-3.835,2.085-5.242c1.074-1.424,2.393-2.428,3.636-3.083c1.25-0.65,2.416-1.024,3.378-1.198   c0.935-0.197,1.886-0.271,2.254-0.274c0.449-0.016,0.688-0.025,0.688-0.025L49.093,37.047z"/><path d="M59.674,104.382l-0.057-6.655c-0.021-2.219-0.114-4.437-0.167-6.656c-0.125-4.437-0.314-8.874-0.49-13.311l-0.091-3.328   c-0.025-1.109,0.006-2.218,0.006-3.328l0.033-3.328C58.903,66.668,59,65.559,59,64.449c0-0.015,0-0.035,0-0.05   c0-0.68-0.592-1.369-1.272-1.369h-0.01l-8.319,0.214c-2.773,0.047-5.543,0.063-8.316,0.078C40.494,63.327,40,63.839,40,64.431   v0.018L39.701,77.76l-0.149,6.656l-0.076,6.655l-0.077,6.655c-0.036,2.219-0.03,4.437-0.1,6.656   c-0.136,4.437-0.25,8.874-0.34,13.311c-0.023,1.135,0.872,2.081,2.009,2.118l0.112,0.004c1.387,0.045,2.773,0.027,4.16,0.033   l4.16-0.002l4.16-0.053l4.16-0.115l0.053-0.001c1.069-0.031,1.928-0.905,1.931-1.982c0.007-2.219,0.053-4.437,0.029-6.656   L59.674,104.382z M56.905,94.399c-0.016,1.109-0.009,2.219-0.062,3.328l-0.24,6.655c-0.07,2.219-0.239,4.437-0.353,6.656   c-0.091,1.529-0.226,3.057-0.355,4.586l-2.336-0.109l-4.16-0.11c-1.386-0.026-2.773-0.026-4.16-0.04   c-0.621-0.003-1.241-0.01-1.862-0.015c-0.029-1.437-0.067-2.875-0.118-4.312l-0.195-6.655c-0.074-2.219-0.039-4.437-0.064-6.656   l-0.032-6.655l-0.032-6.655l-0.133-6.656l-0.133-6.655c-0.028-1.75-0.09-3.5-0.146-5.25c0.905,0.005,1.81,0.015,2.714,0.009   c1.386-0.007,2.773-0.003,4.16-0.04c2.39-0.053,4.78-0.089,7.169-0.162c0.051,1.814,0.079,3.629,0.109,5.443   c0.054,2.219,0.043,4.437,0.023,6.655c-0.001,1.109-0.031,2.219-0.008,3.328l0.074,3.328l0.137,6.655   C56.936,92.181,56.916,93.29,56.905,94.399z"/><path d="M125.95,106.967c-0.114-3.575-0.073-7.151-0.063-10.726c0.023-1.788-0.012-3.575-0.034-5.363l-0.034-2.681l-0.129-2.776   c-0.154-1.853-0.414-3.703-0.849-5.53c-0.187-0.917-0.531-1.806-0.781-2.712c-0.305-0.892-0.695-1.762-1.054-2.637   c-0.868-1.69-1.824-3.363-3.115-4.795c-1.225-1.481-2.727-2.715-4.292-3.832c-0.825-0.494-1.629-1.04-2.518-1.411   c-0.439-0.195-0.865-0.43-1.317-0.59l-1.36-0.476c-0.908-0.319-1.847-0.492-2.784-0.718l-1.458-0.214l-0.731-0.103l-0.671-0.043   l-1.338-0.083c-0.591-0.025-0.984,0.004-1.487,0.004c-0.477-0.004-0.954,0.027-1.43,0.09c-0.475,0.057-0.953,0.088-1.424,0.187   c-1.895,0.296-3.765,0.831-5.541,1.611c-1.773,0.783-3.469,1.786-4.958,3.103c-0.151,0.137-0.358,0.277-0.506,0.419L88,64.449   v-0.025v-0.006c0-0.852-0.648-1.536-1.5-1.528c-1.557,0.016-3.084,0.005-4.641,0.042l-4.656,0.122   c-0.778,0.019-1.55,0.055-2.328,0.059l-2.332,0.013c-0.778-0.002-1.555,0.01-2.333-0.016l-2.333-0.08h-0.001   c-0.744,0-1.363,0.58-1.383,1.324l-0.004,0.162c-0.121,4.432-0.223,8.863-0.285,13.287l-0.057,3.32   c-0.011,1.106,0.027,2.211,0.037,3.317c0.064,2.21,0.193,4.421,0.263,6.633c0.016,1.105,0.05,2.213,0.033,3.323l-0.083,3.327   l-0.184,6.654c-0.064,2.218-0.163,4.436-0.199,6.654c-0.044,2.218-0.06,4.436-0.022,6.654L66,117.765v0.007   c0,1.023,0.861,1.836,1.884,1.815c0.778-0.016,1.553-0.001,2.332-0.054c0.778-0.028,1.555-0.133,2.333-0.198   c1.557-0.131,3.113-0.133,4.67-0.175c3.114-0.069,6.226-0.128,9.34-0.128h0.054h0.015c0.753,0,1.347-0.615,1.329-1.367   c-0.023-0.938-0.047-1.861,0.024-2.799c0.079-0.938,0.169-1.869,0.268-2.807c0.112-1.876,0.251-3.748,0.268-5.624l0.063-2.812   l-0.03-2.813l-0.06-5.627l0.136-5.627c0.029-0.929,0.021-1.914,0.103-2.715c0.058-0.424,0.057-0.47,0.133-0.863l0.204-0.609   l0.008-0.014l0.07-0.129l0.138-0.257c0.715-1.389,1.723-2.502,2.819-3.266l0.414-0.288c0.145-0.082,0.306-0.132,0.455-0.203   c0.298-0.143,0.603-0.321,0.857-0.352c0.132-0.036,0.262-0.078,0.392-0.126l0.196-0.076c0.088-0.02,0.226-0.023,0.336-0.036   l1.295-0.117l0.038,0.002l0.139,0.007l0.277,0.012c0.182,0.014,0.377-0.002,0.547,0.037c0.348,0.058,0.711,0.085,1.027,0.193   c0.671,0.151,1.244,0.442,1.773,0.792c1.049,0.705,1.831,1.869,2.358,3.292c0.248,0.72,0.448,1.483,0.583,2.289   c0.07,0.405,0.136,0.808,0.164,1.194l0.062,0.593l0.029,0.703l0.025,0.64l0.011,0.703l0.022,1.407l0.043,2.814l0.086,5.628   c0.013,1.876,0.084,3.752,0.158,5.628c0.057,1.876,0.169,3.752,0.204,5.628c0.053,1.876,0.011,3.752-0.017,5.628   c-0.014,0.98,0.757,1.8,1.742,1.838l0.1,0.004l4.714,0.183c1.571,0.078,3.143,0.083,4.714,0.126l4.714-0.042l2.357-0.023   l2.357,0.079l0.176,0.173h0.006c1.043,0,1.85-1.114,1.802-2.157C126.092,114.299,126.042,110.543,125.95,106.967z M122.667,90.879   c-0.059,0.894-0.19,1.788-0.26,2.682c-0.081,0.894-0.119,1.788-0.177,2.681c-0.112,1.788-0.22,3.575-0.277,5.363   c-0.044,1.788-0.039,3.575-0.014,5.363c0.007,1.788,0.029,3.575,0.098,5.363c0.022,1.157,0.099,2.314,0.163,3.471l-0.284,0.013   l-2.357,0.025l-4.714,0.046c-1.571-0.044-3.143-0.048-4.714-0.131l-2.566-0.103c0.011-1.195,0.012-2.391-0.036-3.587   c-0.054-1.876-0.201-3.752-0.306-5.628c-0.191-3.752-0.129-7.503-0.184-11.255c-0.022-1.895-0.014-3.71-0.061-5.67l-0.024-0.703   l-0.065-0.772c-0.035-0.522-0.11-1.025-0.192-1.525c-0.156-1.004-0.414-2.01-0.757-3.001c-0.711-1.963-1.939-3.925-3.817-5.208   c-0.923-0.631-1.956-1.12-3.017-1.374c-0.528-0.164-1.06-0.221-1.592-0.302c-0.267-0.05-0.528-0.039-0.792-0.058l-0.395-0.017   l-0.198-0.008l-0.099-0.004l-0.049-0.002l-0.172,0.009l-1.401,0.127c-0.12,0.013-0.227,0.015-0.357,0.038l-0.423,0.104   l-0.845,0.222c-0.586,0.126-1.064,0.38-1.558,0.619c-0.241,0.129-0.493,0.242-0.722,0.387l-0.656,0.487   c-1.74,1.313-2.968,3.106-3.744,4.991l-0.148,0.354l-0.074,0.177l-0.009,0.022l-0.046,0.129l-0.01,0.043l-0.021,0.086l-0.181,0.68   c-0.098,0.491-0.172,1.186-0.187,1.675l-0.044,2.866l-0.307,5.628l-0.226,5.628c-0.088,1.876-0.135,3.752-0.17,5.628   c-0.007,1.876-0.19,3.752-0.245,5.628c-0.005,0.938,0.043,1.876,0.011,2.814c0.002,0.133-0.016,0.267-0.026,0.4l-2.53,0.039   c-1.557,0.011-3.114,0.081-4.67,0.134c-1.557,0.06-3.114,0.098-4.67,0.189l-2.932,0.151c-0.058-1.583-0.101-3.165-0.124-4.747   c-0.041-1.11,0.009-2.219,0.022-3.328l0.061-3.328l0.124-6.656l0.062-3.328c0.008-1.108-0.039-2.22-0.065-3.334l-0.192-6.676   c-0.087-2.224-0.107-4.448-0.115-6.673l-0.041-6.674l0.037-5.058l0.827,0.009c0.778,0.015,1.557,0.045,2.335,0.14l1.168,0.121   c0.389,0.052,0.778,0.042,1.168,0.064c0.778,0.029,1.557-0.032,2.335-0.044l2.335-0.168c0.778-0.068,1.557-0.1,2.335-0.108   c0.778-0.033,1.557,0,2.335,0.011l0.696,0.013l-0.128,6.78c-0.013,0.738,0.442,1.436,1.176,1.694   c0.917,0.323,1.923-0.159,2.246-1.076l0.037-0.105c0.411-1.167,1.45-2.413,2.637-3.396c1.197-1.006,2.616-1.796,4.101-2.402   c1.49-0.607,3.071-1.015,4.686-1.22c0.399-0.076,0.81-0.087,1.215-0.125c0.406-0.034,0.811-0.079,1.222-0.084l0.614-0.025   l0.307-0.013l0.077-0.013l0.038-0.012h0.003l0.116,0.014l1.34,0.052l0.668,0.027l0.579,0.077l1.16,0.142   c0.78,0.173,1.594,0.3,2.358,0.541l1.154,0.351c0.386,0.117,0.74,0.303,1.113,0.449c0.759,0.273,1.429,0.707,2.135,1.083   c1.331,0.867,2.617,1.843,3.651,3.081c1.106,1.173,1.937,2.591,2.717,4.033c0.32,0.761,0.676,1.509,0.958,2.292   c0.236,0.803,0.537,1.584,0.705,2.412c0.389,1.641,0.625,3.328,0.767,5.034l0.117,2.578   C122.703,89.091,122.714,89.985,122.667,90.879z"/><path d="M74.021,3.488c0,0,2.129-0.06,6.12-0.172C84.125,3.183,90,3.091,97.468,3.075c7.466-0.049,16.538-0.037,26.942,0.247   c2.604,0.078,5.292,0.158,8.059,0.241c2.892,0.076,6.01,0.647,8.952,1.826c2.96,1.164,5.795,2.988,8.148,5.427   c2.37,2.419,4.227,5.433,5.442,8.713c0.61,1.64,1.066,3.345,1.381,5.082c0.147,0.869,0.274,1.745,0.36,2.626   c0.082,0.88,0.138,1.786,0.179,2.59c0.195,3.319,0.326,6.698,0.306,10.141c-0.07,3.449-0.147,6.959-0.259,10.525   c-0.068,3.563-0.036,7.177,0.168,10.835c0.096,3.665,0.478,7.362,0.664,11.137c0.054,0.944,0.109,1.892,0.164,2.842   c0.011,0.962,0.023,1.928,0.034,2.896c0.008,1.895,0.014,3.81-0.073,5.729c-0.123,3.84-0.583,7.722-0.763,11.631   c-0.254,3.914-0.151,7.866-0.07,11.857c0.083,3.995,0.146,8.016,0.307,12.08c0.059,2.036,0.118,4.079,0.177,6.129l0.045,1.54   c0.019,0.617-0.003,1.053-0.003,1.589c-0.061,1.16-0.158,2.281-0.363,3.375c-0.376,2.21-1.07,4.372-2.015,6.425   c-0.954,2.051-2.206,3.956-3.626,5.725c-2.871,3.512-6.561,6.422-10.86,8.233c-1.075,0.449-2.179,0.845-3.318,1.154   c-1.145,0.287-2.312,0.513-3.501,0.641c-0.297,0.034-0.598,0.049-0.896,0.073l-0.463,0.032l-0.395,0.015l-1.579,0.061l-3.162,0.095   c-2.114,0.055-4.214,0.144-6.347,0.172c-2.132,0.029-4.266,0.058-6.403,0.087c-8.545,0.038-17.038-0.06-25.601-0.258   c-4.252-0.026-8.504-0.052-12.752-0.078c-4.233-0.182-8.462-0.297-12.684-0.236l-3.167-0.025c-1.119-0.003-2.136-0.048-3.208-0.07   c-2.113-0.04-4.24-0.13-6.365-0.232c-2.121-0.144-4.244-0.085-6.35-0.118c-2.109-0.021-4.214-0.041-6.314-0.062   c-2.109-0.06-4.213-0.121-6.313-0.181l-0.788-0.024l-0.431-0.015l-0.39-0.03l-0.779-0.061l-0.844-0.107   c-1.125-0.148-2.189-0.377-3.259-0.673c-4.267-1.182-8.13-3.533-11.268-6.543c-3.132-3.029-5.554-6.749-7.029-10.834   c-0.736-2.044-1.215-4.186-1.401-6.371c-0.143-2.07-0.223-4.028-0.407-6.031c-0.446-8.046-1.236-15.928-1.212-23.629   C4.095,91.56,4.598,84.034,4.98,76.716c0.207-3.658,0.41-7.266,0.611-10.82c0.154-3.548,0.306-7.042,0.455-10.479   c0.172-6.888,0.033-13.545,0.056-19.952c0.015-1.608,0.03-3.199,0.045-4.773c0.059-1.609,0.015-3.106,0.301-4.868   c0.525-3.332,1.812-6.358,3.443-9.029c3.295-5.329,8.022-9.342,13.262-11.478c2.611-1.079,5.345-1.692,8.028-1.815   c2.431-0.052,4.775-0.103,7.026-0.151c2.246-0.047,4.4-0.093,6.458-0.136c1.029-0.031,2.034-0.062,3.014-0.092   c0.981-0.021,1.939,0.017,2.872,0.022c3.734,0.06,7.071,0.185,9.972,0.289c2.9,0.064,5.367,0.144,7.365,0.134   c3.995-0.052,6.125-0.079,6.125-0.079C74.015,3.488,74.019,3.488,74.021,3.488z M74.046,4.942c-0.001,0-0.531,0.023-1.56,0.067   c-1.03,0.034-2.559,0.106-4.55,0.28c-1.992,0.161-4.445,0.452-7.325,0.864c-2.88,0.435-6.187,0.918-9.894,1.377   c-0.928,0.119-1.879,0.278-2.857,0.374c-0.978,0.111-1.982,0.141-3.009,0.242c-2.054,0.175-4.202,0.359-6.443,0.55   c-2.229,0.19-4.549,0.389-6.956,0.594c-1.963,0.186-3.948,0.81-5.938,1.661c-3.929,1.781-7.891,4.806-10.698,8.957   c-1.437,2.032-2.567,4.37-3.145,6.811c-0.292,1.044-0.397,2.698-0.548,4.169c-0.146,1.516-0.242,3.102-0.34,4.677   c-0.157,3.175-0.403,6.424-0.458,9.743c-0.054,3.317-0.021,6.7-0.04,10.143c-0.102,3.451-0.205,6.96-0.31,10.524   C9.83,69.526,9.682,73.133,9.532,76.79c-0.621,14.597-1.044,30.093-0.152,45.901c0.145,1.979,0.29,3.967,0.437,5.962   c0.185,1.793,0.611,3.579,1.262,5.298c1.302,3.435,3.435,6.604,6.136,9.127c2.705,2.516,5.974,4.404,9.483,5.283   c0.862,0.22,1.793,0.397,2.629,0.484l0.625,0.069l0.781,0.047l0.39,0.023c-0.1-0.01,0.083-0.002,0.11-0.003l0.193,0.002   l0.771,0.009c2.057,0.021,4.118,0.043,6.183,0.064c2.084-0.017,4.173-0.034,6.265-0.051c1.047-0.006,2.093-0.016,3.128-0.043   c0.519-0.027,1.038-0.01,1.558,0.039l1.56,0.107c2.076,0.151,4.17,0.288,6.299,0.376c1.037,0.046,2.17,0.116,3.13,0.142   l3.208,0.081c4.275-0.04,8.559,0.243,12.831,0.516c4.283,0.144,8.532,0.189,12.787,0.276c1.065,0.016,2.129,0.009,3.194-0.009   l1.597-0.019c0.255-0.005,0.557-0.002,0.774-0.014l0.797-0.036l6.375-0.285c4.248-0.211,8.476-0.36,12.687-0.603   c2.101-0.142,4.198-0.263,6.295-0.323c2.096-0.079,4.219-0.222,6.323-0.329l3.159-0.174l1.578-0.071l0.394-0.017l0.316-0.025   l0.664-0.055c1.773-0.196,3.545-0.673,5.245-1.369c6.82-2.817,12.285-9.106,13.74-16.101c0.203-0.881,0.301-1.759,0.384-2.563   l0.039-0.767l0.019-0.383l0.003-0.299l0.011-1.522c0.013-2.028,0.025-4.049,0.038-6.063c-0.005-4.05-0.01-8.072-0.016-12.06   c0.01-3.995-0.005-7.978-0.119-11.915c-0.139-3.948-0.22-7.821-0.19-11.667c-0.024-1.924,0.076-3.826,0.101-5.737   c0.012-0.915,0.025-1.828,0.037-2.737c-0.007-0.932-0.014-1.861-0.021-2.787c-0.038-3.736-0.076-7.426-0.114-11.066   c-0.107-7.303-0.334-14.417-0.507-21.303c-0.089-3.449-0.197-6.837-0.236-10.159c-0.012-0.858-0.032-1.599-0.071-2.356   c-0.044-0.755-0.124-1.5-0.218-2.24c-0.208-1.473-0.534-2.905-0.983-4.274c-0.896-2.737-2.298-5.22-4.138-7.252   c-1.835-2.035-4.069-3.634-6.481-4.756c-2.429-1.122-4.974-1.755-7.601-1.967c-2.74-0.234-5.401-0.462-7.979-0.683   c-5.166-0.414-10.006-0.719-14.485-0.967c-4.479-0.238-8.595-0.474-12.317-0.527c-7.44-0.14-13.281-0.171-17.278-0.121   C76.174,4.927,74.049,4.942,74.046,4.942z"/></g></svg>