<?xml version="1.0" ?><!DOCTYPE svg  PUBLIC '-//W3C//DTD SVG 1.1//EN'  'http://www.w3.org/Graphics/SVG/1.1/DTD/svg11.dtd'><svg enable-background="new 0 0 158.52 155.031" height="155.031px" id="icons" version="1.1" viewBox="0 0 158.52 155.031" width="158.52px" xml:space="preserve" xmlns="http://www.w3.org/2000/svg" xmlns:xlink="http://www.w3.org/1999/xlink"><g><path d="M115.862,148.231c7.327-1.434,17.623-8.594,18.473-9.111c19.693-11.994,19.394-42.992,18.347-62.73   c-1.091-20.563,0.675-44.781-14.77-60.172C124.592,2.942,105.045,4.883,86.949,3.801C66.343,2.571,43.467,3.538,26.54,16.64   C11.991,27.899,9.836,38.415,9.466,55.819C9.245,66.157,10.12,85.403,9.964,95.724c-0.78,51.535,45.563,54.256,66.59,55.654   C89.614,152.247,103.035,150.739,115.862,148.231z" fill="#0084FF"/><path d="M71.737,28.808c-28.737,0-53.032,21.784-53.032,48.655   c0,15.287,7.539,28.926,19.33,37.846c0,0,0.707,15.054,5.097,16.621c3.51,1.253,13.692-4.817,13.692-4.817   c4.734,1.325,10.751,0.037,15.945,0.037c28.737,0,49.935-21.784,49.935-48.656S100.474,28.808,71.737,28.808z" fill="#FFFFFF" id="Bubble_Shape"/><g><g><path d="M157.066,68.091c0,0-0.116,2.123-0.335,6.104c-0.114,1.992-0.249,4.447-0.353,7.313c-0.114,2.873-0.27,6.168-0.366,9.882     c-0.235,7.419-0.351,16.433-0.482,26.798c-0.066,2.602-0.158,5.251-0.08,8.073c0.124,2.819-0.071,6.044-0.923,9.194     c-0.427,1.577-1.012,3.148-1.767,4.675c-0.767,1.52-1.724,2.98-2.835,4.35c-1.105,1.379-2.442,2.59-3.872,3.689     c-1.459,1.063-3.043,1.979-4.713,2.706c-3.342,1.46-6.959,2.242-10.59,2.5l-1.352,0.072l-1.252,0.044     c-0.837,0.028-1.677,0.056-2.522,0.084c-1.69,0.031-3.394,0.061-5.113,0.093c-6.874,0.155-13.994,0.155-21.309,0.225     c-3.661,0.029-7.371,0.059-11.127,0.089c-1.875,0.02-3.778,0.057-5.682,0.115c-0.974,0.019-1.95,0.037-2.929,0.056l-1.441,0.023     l-1.437,0.005c-3.838,0.024-7.721,0.146-11.637,0.232c-1.952,0.069-3.914,0.138-5.884,0.207     c-1.969-0.012-3.947-0.024-5.933-0.036c-7.998-0.005-15.986,0.112-24.446-0.09c-1.255-0.113-2.389-0.256-3.526-0.517     c-1.14-0.239-2.26-0.57-3.356-0.961c-2.189-0.793-4.277-1.853-6.194-3.16c-3.843-2.603-7.055-6.086-9.399-10.149     c-1.17-2.034-2.095-4.236-2.722-6.561c-0.317-1.162-0.526-2.363-0.665-3.58l-0.078-0.919l-0.054-0.793l-0.103-1.577     c-0.101-2.098-0.203-4.199-0.304-6.303c-0.072-2.093-0.07-4.223,0.012-6.347c0.048-2.134,0.159-4.267,0.145-6.407     c-0.026-2.134-0.131-4.272-0.214-6.411c-0.074-4.297-0.421-8.529-0.318-12.885c0.19-4.268,0.38-8.536,0.571-12.801     c0.23-4.206,0.297-8.397,0.294-12.582C2.553,54.288,2.548,45.548,1.68,37.167c-0.003-2.099,0.058-4.223,0.122-6.346l0.089-3.177     c0.064-0.746,0.055-1.009,0.149-1.731c0.075-0.649,0.166-1.28,0.281-1.856c0.429-2.374,1.219-4.668,2.246-6.823     c1.054-2.143,2.391-4.125,3.926-5.9c3.062-3.566,6.897-6.347,11.151-8.175c2.124-0.918,4.378-1.581,6.701-1.864     c0.583-0.059,1.163-0.123,1.751-0.139l0.439-0.017c0.233-0.011,0.281-0.003,0.43-0.005l0.752,0.002     c1.002,0.002,2.003,0.004,3.001,0.006c1.989-0.009,3.993,0.02,5.995,0.062c1.994,0.012,3.979,0.023,5.954,0.034     c3.926-0.033,7.814-0.066,11.661-0.098c1.922-0.004,3.834-0.039,5.735-0.018c1.901,0.035,3.791,0.069,5.669,0.103     c3.756,0.061,7.467,0.173,11.126,0.181c3.661-0.005,7.272-0.01,10.829-0.015c1.781,0.027,3.55-0.009,5.305-0.029l1.314-0.016     l1.348,0.016c0.867,0.015,1.725,0.023,2.606,0.064c1.751,0.084,3.495,0.097,5.181,0.128c1.7-0.017,3.385-0.034,5.054-0.05     c3.331,0.044,6.578,0.308,9.765,0.482c3.177,0.186,6.288,0.369,9.328,0.547l1.128,0.06l1.22,0.089     c0.402,0.043,0.684,0.048,1.206,0.13c0.471,0.068,0.96,0.135,1.371,0.228c1.719,0.34,3.354,0.862,4.892,1.511     c6.137,2.644,10.849,7.034,13.841,12.065c1.514,2.506,2.623,5.18,3.248,7.906c0.316,1.36,0.502,2.735,0.566,4.094l0.026,0.508     l0.011,0.432l0.021,0.862c0.014,0.572,0.028,1.138,0.042,1.699c0.131,4.51,0.251,8.653,0.359,12.394     c0.165,7.516-0.047,13.422-0.168,17.443c-0.189,4.018-0.289,6.161-0.289,6.161L157.066,68.091z M151.234,67.811     c0,0,0.051-0.525,0.15-1.542c0.108-1.017,0.226-2.528,0.46-4.499c0.349-3.939,1.073-9.749,0.621-17.14     c-0.238-3.695-0.542-7.769-0.681-12.257c-0.049-1.099-0.082-2.311-0.147-3.381c-0.059-1.034-0.211-2.091-0.471-3.15     c-0.505-2.12-1.388-4.263-2.636-6.299c-2.498-4.038-6.292-7.865-11.192-10.133c-1.222-0.559-2.507-1.01-3.838-1.315     c-0.669-0.156-1.252-0.256-2.051-0.345c-0.739-0.075-1.482-0.151-2.229-0.228c-3.05-0.294-6.15-0.673-9.33-0.932     c-3.178-0.261-6.413-0.648-9.732-0.728c-1.663-0.002-3.342,0.025-5.035,0.071c-1.699-0.017-3.377-0.009-5.062-0.092     c-0.837-0.038-1.706-0.044-2.573-0.058c-0.413-0.003-0.913-0.021-1.258-0.011l-1.303,0.019c-1.741,0.02-3.496,0.04-5.265,0.061     c-3.544,0.065-7.138,0.08-10.786,0.189C71.581,6.22,64.089,6.569,56.431,6.58c-3.827,0.04-7.696,0.08-11.602,0.121     c-3.901,0.16-7.774,0.355-11.765,0.665c-0.995,0.053-1.992,0.107-2.992,0.16l-0.75,0.04l-0.331,0.02l-0.323,0.03     c-0.431,0.03-0.862,0.097-1.293,0.157c-1.723,0.288-3.439,0.786-5.109,1.457c-3.334,1.36-6.436,3.52-8.884,6.28     c-2.458,2.749-4.263,6.104-5.05,9.737c-0.109,0.462-0.182,0.899-0.249,1.327c-0.078,0.379-0.121,1.063-0.172,1.434l-0.185,3.082     c-0.128,2.056-0.255,4.119-0.319,6.208c-0.044,2.083-0.088,4.17-0.132,6.261c-0.02,2.081-0.039,4.166-0.059,6.254     c-0.005,2.079,0.031,4.25,0.053,6.29c0.047,2.135,0.095,4.272,0.142,6.412c0.029,4.278-0.014,8.569-0.221,12.844l-0.214,6.41     l-0.128,3.185L6.788,88.04c-0.01,4.139,0.542,8.398,0.722,12.568c0.144,2.096,0.312,4.186,0.386,6.291     c0.064,2.099,0.01,4.226-0.001,6.341c-0.056,2.13,0.036,4.238,0.081,6.368c0.116,2.115,0.232,4.228,0.347,6.338l0.106,1.577     l0.055,0.784l0.061,0.687c0.11,0.915,0.268,1.83,0.517,2.73c0.492,1.799,1.227,3.55,2.174,5.183     c1.891,3.266,4.531,6.112,7.62,8.184c1.54,1.046,3.202,1.877,4.922,2.495c0.862,0.304,1.737,0.561,2.625,0.742     c0.882,0.206,1.805,0.305,2.612,0.385c7.968,0.169,16.184,0.049,24.135,0.035c4.001,0.014,7.969,0.028,11.899,0.042     c3.916,0.066,7.794,0.13,11.631,0.195l1.437,0.025l0.739,0.01l0.684-0.004c0.922-0.011,1.794,0.006,2.753-0.027     c1.886-0.051,3.76-0.101,5.624-0.151c3.741-0.13,7.437-0.258,11.083-0.384c7.301-0.286,14.402-0.564,21.271-0.833     c1.718-0.069,3.422-0.137,5.11-0.204c0.844-0.034,1.685-0.067,2.521-0.1l1.252-0.05l1.15-0.067     c3.017-0.22,5.891-0.889,8.437-2.048c2.547-1.153,4.756-2.791,6.49-4.775c1.732-1.987,2.992-4.302,3.78-6.721     c0.801-2.436,1.089-4.873,1.076-7.539c0.055-2.673,0.011-5.375,0.009-7.954c-0.052-10.364-0.092-19.428,0.023-26.894     c0.206-7.456,0.408-13.38,0.673-17.337c0.288-3.978,0.441-6.099,0.441-6.099L151.234,67.811z"/></g></g><path d="M133.603,63.025c-1.125-4.606-2.758-9.479-5.35-13.531c-3.733-5.838-8.482-10.717-14.2-14.573   c-2.249-1.517-4.656-2.8-6.888-4.333c-2.01-1.381-3.996-2.867-6.281-3.782c-7.028-2.813-10.158-3.313-17.622-3.386   c-3.887-0.038-8.721-2.041-16.073-0.754c-3.948,0.691-7.764,2.877-11.319,4.766c-3.972,2.11-7.56,4.71-11.246,7.263   c-2.485,1.722-4.693,3.859-6.794,6.022c-4.304,4.432-8.038,9.799-10.308,15.572c-2.404,6.118-3.792,12.326-3.903,18.916   c-0.117,6.925,1.547,14.091,4.359,20.396c3.418,7.661,8.741,14.861,14.686,19.958c0,0,0.527,10.624,0.788,15.938   c0.055,1.128-0.156,2.472,0.835,3.277c0.718,0.583,1.689,0.598,2.469,0.139c1.218-0.717,2.436-1.434,3.653-2.151   c4.402-2.592,8.713-5.436,13.602-6.875c0,0,3.097,0.828,4.688,1.055c1.924,0.274,11.978,0.499,20.359-0.973   c9.509-1.67,17.061-4.893,24.631-10.337C129.759,104.076,138.345,82.443,133.603,63.025z M129.983,75.446   c-0.012,0,0.001,0.023,0.002,0.034C129.987,75.549,130.064,75.444,129.983,75.446z M129.484,80.636   c-0.805,4.554-2.104,9.251-4.057,13.485c-2.917,6.324-7.966,10.248-9.882,12.198c-3.296,3.355-5.854,6.409-9.941,8.764   c-5.185,2.988-10.873,5.389-16.837,6.261c-3.278,0.479-6.514,0.938-9.824,1.051c-2.808,0.096-7.249-0.399-9.365-0.558   c-3.128-0.236-5.099-0.725-6.138-0.512c-1.295,0.266-2.573,1.147-3.784,1.702c-4,1.834-7.865,3.829-11.69,5.949   c-0.091-2.106-0.212-4.213-0.307-6.314c-0.073-1.633-0.163-3.267-0.21-4.901c-0.038-1.302,0.327-3.257-0.265-4.456   c-0.659-1.334-2.792-2.329-3.889-3.33c-5.178-4.728-9.204-11.348-11.737-17.856c-2.081-5.347-3.048-11.162-3.182-16.725   c-0.135-5.576,1.297-11.314,3.347-16.462c1.172-2.944,2.707-5.659,4.455-8.295c2.099-3.164,4.495-6.548,7.263-9.196   c1.473-1.41,2.881-2.856,4.568-4.014c3.657-2.511,7.78-4.721,12.001-6.125c3.14-1.045,6.31-2.24,9.599-2.659   c9.437-1.202,21.375,0.271,24.701,1.272c10.819,3.256,22.24,10.029,28.403,19.817c2.404,3.818,4.596,7.926,5.654,12.349   C129.428,66.514,130.548,74.617,129.484,80.636z"/><path d="M82.013,91.656c-4.699,0-12.873-12.922-12.873-12.922S47.462,94.648,45.36,91.942   c-2.433-3.133,16.525-25.741,23.364-26.322c4.682-0.398,16.583,11.334,16.583,11.334s15.347-12.22,18.743-9.475   C108.608,71.162,87.974,91.656,82.013,91.656z" fill="#0084FF"/><path d="M115.547,60.693c-1.201-2.564-4.283-0.463-5.957,0.321c-1.822,0.853-3.595,1.8-5.356,2.771   c-3.076,1.697-6.152,3.393-9.229,5.09c-2.196,1.211-7.216,4.672-7.216,4.672c-0.39-0.392-1.451-1.577-1.841-1.969   c-0.566-0.57-1.132-1.141-1.698-1.711c-1.858-1.872-3.761-3.661-5.775-5.364c-1.214-1.027-2.421-2.076-3.466-3.279   c-1.389-1.599-2.384-0.781-3.771,0.307c-1.674,1.313-3.34,2.6-4.89,4.063c-1.492,1.408-2.617,3.048-3.927,4.606   c-0.971,1.155-2.059,2.136-3.158,3.169c-1.7,1.599-3.168,3.472-4.71,5.221c-3.296,3.737-6.548,7.513-9.81,11.28   c-0.921,1.064-3.183,3.067-1.181,4.335c1.553,0.984,3.988-1.329,5.259-2.086c1.297-0.773,2.608-1.523,3.914-2.281   c3.426-1.988,7.008-3.599,10.527-5.408c2.588-1.33,5.035-2.86,7.451-4.48c2.349,2.114,4.444,4.156,6.058,6.874   c1.223,2.06,3.143,3.934,4.841,5.596c0.828,0.811,2.05,2.333,3.389,1.975c0.905-0.242,1.906-0.986,2.439-1.673   c0.646-0.833,2.2-2.562,2.883-3.365c2.659-3.13,3.919-5.379,7.245-7.81c2.697-1.972,4.928-4.702,7.14-7.19   c1.368-1.538,2.721-3.091,4.103-4.615c1.409-1.553,2.817-3.136,4.318-4.602C114.3,63.999,116.442,62.604,115.547,60.693z    M84.518,89.515c-4.027-4.117-8.045-8.244-12.057-12.376c-1.333-1.373-2.537-0.603-3.91,0.183   c-2.138,1.224-4.157,2.554-6.214,3.909c-3.317,2.184-7.043,3.748-10.469,5.763c3.714-3.717,7.432-7.487,11.388-10.946   c1.275-1.115,2.396-2.291,3.412-3.649c2.074-2.772,4.941-4.956,6.981-7.393c1.61,1.74,2.91,3.743,4.519,5.485   c1.295,1.402,2.687,2.722,4.038,4.07c1.096,1.093,2.187,2.282,3.332,3.324c1.619,1.472,3.88-0.229,5.194-1.199   c3.085-2.276,15.889-10.471,18.022-11.611c-2.814,2.932-7.973,8.139-10.823,11.036C96.702,77.359,89.449,85.252,84.518,89.515z"/></g></svg>