<?xml version="1.0" ?><!DOCTYPE svg  PUBLIC '-//W3C//DTD SVG 1.1//EN'  'http://www.w3.org/Graphics/SVG/1.1/DTD/svg11.dtd'><svg enable-background="new 0 0 154.879 154.485" height="154.485px" id="icons" version="1.1" viewBox="0 0 154.879 154.485" width="154.879px" xml:space="preserve" xmlns="http://www.w3.org/2000/svg" xmlns:xlink="http://www.w3.org/1999/xlink"><g><g><path d="M67.414,151.537c7.79-0.193,15.574-0.387,23.344-1c17.764-1.404,35.905-4.83,50.055-16.34    c13.061-10.625,9.27-29.793,10.33-45.596c0.922-13.711,4.751-44.781-1.242-57.664c-9.63-20.701-30.164-22.27-51.439-27.672    C85.07-0.133,71.732,2.6,58.182,3.301C45.101,3.977,32.404,5.176,21.9,13.766C12.06,21.811,9.033,33.734,8.074,45.875    C6.98,59.723,5.668,73.561,4.599,87.412c-0.965,12.523-0.96,26.582,3.609,38.449c5.059,13.135,16.195,21.203,29.697,24.287    C47.63,152.369,57.546,151.779,67.414,151.537z" fill="#0071BC"/><path d="M75.376,83.492c0.337-0.662,0.674-1.397,1.008-2.123c0.321-0.734,0.731-1.447,0.845-2.25l1.062-4.709    l2.037-9.451c0.276-1.282,1.313-2.205,2.535-2.396l0.605-0.093c0.567-0.088,1.131-0.123,1.695-0.181    c0.563-0.065,1.129-0.098,1.696-0.096c1.135,0.034,2.275,0.218,3.41,0.205l6.882,0.107c1.615,0.025,2.904,1.355,2.879,2.972    c-0.024,1.493-1.162,2.708-2.611,2.862l-0.268,0.029c-1.065,0.114-2.182,0.165-3.293,0.192c-1.113,0.059-2.235-0.007-3.357,0.002    c-1.118,0.078-2.26-0.375-3.394-0.565c-0.566-0.087-1.126-0.022-1.687,0.016c-0.561,0.051-1.122,0.107-1.676,0.214l2.126-1.686    l-0.911,4.773l-0.521,2.369l-0.628,2.339l-1.412,4.64c-0.11,0.391-0.272,0.765-0.295,1.182l-0.365,1.166    c-0.251,0.779-0.493,1.555-0.813,2.372l-0.197,0.508c-0.589,1.511-2.291,2.258-3.802,1.669c-1.511-0.589-2.258-2.29-1.669-3.801    C75.292,83.668,75.333,83.577,75.376,83.492z" fill="#00568F"/><path clip-rule="evenodd" d="M118.35,45.451c-8.059-9.596-23.738-10.898-35.313-10.66    c-4.401,0.092-26.932,2.67-28.49,5.881C48.3,53.549,45.469,67.404,43.323,81.461c-1.038,6.805-1.918,13.635-2.985,20.438    c-1.052,6.693-3.733,13.805-3.353,20.59c0.18,3.195,2.721,6.539,6.267,6.262c4.636-0.359,9.242-0.557,13.844-1.268    c2.767-0.426,4.53-3.494,4.601-6.041c0.186-6.605,2.251-12.881,3.954-19.215c1.061-3.955,5.694-2.803,8.95-2.961    c11.258-0.549,23.202-2.836,32.757-9.078C121.198,81.139,130.085,59.428,118.35,45.451z M75.446,57.381    c5.608,0.119,11.209-1.627,16.738-0.613c3.287,0.602,5.189,2.191,6.365,5.611c1.389,4.037-0.358,10.967-3.003,13.436    c-6.281,5.871-15.729,5.146-24.391,4.676C72.037,72.055,73.979,65.75,75.446,57.381z" fill="#FFFFFF" fill-rule="evenodd"/><g><path d="M121.27,53.468c-0.475-1.164-1.054-2.276-1.596-3.422c-0.526-1.156-1.147-2.288-1.87-3.364     c-1.457-2.17-3.65-3.677-5.821-4.966c-4.508-2.444-9.515-3.271-14.417-3.338c-3.515-0.012-7.029-0.654-10.543-0.87     c-3.515-0.172-7.029-0.136-10.544,0.174c-3.515,0.327-7.029,0.29-10.543,0.29H55.392c-0.964,0-1.469,1.074-2.469,2.055v0.005     l-4.459,21.439c-1.572,7.144-2.884,14.321-4.535,21.447c-0.788,3.571-1.526,7.142-2.696,10.63     c-0.528,1.756-1.063,3.506-1.483,5.285c-0.429,1.778-0.729,3.581-1.092,5.374c-0.697,3.591-1.443,7.17-2.022,10.786     c-0.637,3.604-1.203,7.224-1.665,10.865l-0.04,0.32c-0.014,0.112-0.015,0.205-0.005,0.322c0.081,0.904,0.881,1.471,1.785,1.471     h0.016c2.061,0,4.122,0.455,6.183,0.547c1.03,0.049,2.061,0.136,3.092,0.163l3.091,0.044l3.092,0.042     c1.03-0.021,2.061-0.019,3.092-0.098c2.06-0.115,4.121-0.365,6.183-0.843l0.665-0.163c0.496-0.114,0.801-0.566,0.801-1.095v-0.02     c1-4.748,2.026-9.475,3.034-14.208c0.503-2.367,1.031-4.733,1.593-7.088c0.436-1.873,0.881-3.745,1.346-5.611     c4.102,0.105,8.207,0.268,12.31,0.284c2.279-0.033,4.521,0.041,6.982-0.145c2.389-0.19,4.772-0.557,7.108-1.138     c2.332-0.599,4.628-1.372,6.851-2.343c2.223-0.977,4.335-2.21,6.344-3.604c4.018-2.796,7.445-6.493,9.996-10.719     c1.253-2.125,2.276-4.378,3.099-6.69c0.821-2.297,1.432-4.716,1.703-7.138c0.277-2.45,0.247-4.961-0.081-7.438     C122.865,58.233,122.205,55.796,121.27,53.468z M119.076,67.483c-0.648,4.354-2.209,8.572-4.432,12.315     c-2.279,3.721-5.29,6.939-8.797,9.406c-1.755,1.232-3.63,2.282-5.588,3.131c-0.979,0.424-1.978,0.799-2.991,1.126     c-1.007,0.346-2.026,0.659-3.062,0.917c-2.069,0.52-4.189,0.849-6.328,0.993c-2.061,0.129-4.393,0.137-6.667-0.083     c-2.278-0.22-4.558-0.23-6.836-0.264c-2.278-0.018-4.557-0.054-6.835-0.054h-0.022h-0.045c-1.213,0-2.296,0.961-2.551,2.197     l-5.55,26.994c-1.366,0.232-2.732,0.406-4.098,0.484c-2.062,0.135-4.122,0.108-6.184,0.096c-2.061-0.032-4.121-0.104-6.183-0.249     c-1.181-0.059-2.361-0.152-3.542-0.271c1.015-6.401,2.211-12.763,3.52-19.101c1.223-7.22,3.852-14.132,5.261-21.311     c1.669-7.122,3.173-14.279,4.785-21.414l4.423-19.604c1.103-0.073,2.206-0.159,3.309-0.225l5.272-0.325     c1.757-0.123,3.514-0.046,5.271-0.003l5.271,0.107c1.757,0.044,3.515,0.04,5.271,0.063c1.758,0.021,3.515,0.039,5.272-0.011     c3.514-0.073,7.028-0.282,10.543-0.294c4.258,0.06,8.541,1.229,12.102,3.464c1.78,1.115,3.359,2.491,4.744,4.024     c1.379,1.549,2.441,3.346,3.266,5.261C119.326,58.701,119.699,63.149,119.076,67.483z"/><path d="M154.566,33.648l-0.082-4.273l-0.047-2.133c-0.015-0.758-0.07-1.636-0.172-2.438c-0.394-3.282-1.504-6.401-3.039-9.223     c-3.074-5.658-7.93-10.188-13.846-12.893c-1.482-0.67-3.039-1.215-4.656-1.599c-1.614-0.393-3.334-0.584-4.861-0.625     c-2.934-0.081-5.768-0.077-8.627-0.077c-5.703,0.053-11.386-0.079-17.072,0.448c-2.842,0.236-5.684,0.297-8.518,0.338     c-2.822,0.042-5.655,0.076-8.5,0.056c-5.68-0.087-11.363-0.1-17.046-0.368c-5.683-0.248-11.371-0.494-17.066-0.507l-8.55-0.078     c-2.854-0.043-5.712-0.13-8.584-0.203l-4.323-0.07L27.398,0c-0.329-0.001-0.773,0.009-1.184,0.028     c-0.414,0.023-0.827,0.057-1.238,0.101c-3.298,0.351-6.418,1.477-9.274,2.986C10.013,6.157,5.198,10.962,2.497,16.994     c-1.333,3.005-2.11,6.288-2.267,9.563c-0.134,2.938-0.177,5.783-0.212,8.649c-0.109,2.857,0.299,5.718,0.592,8.572     c0.137,1.427,0.145,2.852,0.17,4.278l0.094,4.287l0.05,2.162L1,56.676l0.141,4.228c0.074,2.819,0.115,5.64,0.126,8.461     L1.213,86.339c-0.006,1.416-0.015,2.876,0.017,4.311l0.096,4.262c0.09,2.842,0.064,5.687,0.08,8.535     c0.127,5.69-0.885,11.438-0.652,17.147l0.135,4.277c0.019,0.713,0.063,1.424,0.105,2.136c0.047,0.718,0.071,1.381,0.153,2.258     c0.319,3.303,1.366,6.421,2.825,9.255c2.962,5.642,7.601,10.309,13.325,13.157c2.859,1.412,5.993,2.335,9.199,2.641     c1.751,0.163,3.053,0.118,4.517,0.148l4.283,0.02l17.045-0.04c1.418-0.021,2.836,0.043,4.254,0.029     c1.417,0.012,2.834-0.083,4.252-0.115l8.499-0.248l4.246-0.082l4.282,0.011l8.605-0.114c11.396-0.089,22.769-0.139,34.12-0.427     c1.418-0.031,2.836-0.053,4.251-0.115l2.13-0.077c0.776-0.028,1.555-0.085,2.333-0.162c3.111-0.33,6.252-1.05,9.232-2.335     c2.981-1.269,5.762-3.174,7.984-5.602c2.2-2.444,3.88-5.321,4.883-8.372c1.031-3.034,1.436-6.239,1.414-9.309l-0.067-4.325     l0.091-4.269l0.248-17.019c0.191-11.335,0.606-22.65,1.308-33.935C155.07,56.518,154.949,45.047,154.566,33.648z M149.875,50.809     c-0.1,5.65-0.783,11.278-1.3,16.873c-0.509,5.684-0.753,11.391-0.937,17.086c-0.225,5.696-0.252,11.394-0.254,17.086     l0.058,17.057c0.004,2.825,0.056,5.695-0.037,8.429c-0.069,2.566-0.553,5.022-1.464,7.341c-1.794,4.638-5.395,8.393-9.96,10.394     c-2.273,1.02-4.763,1.635-7.324,1.909c-0.642,0.066-1.287,0.117-1.937,0.144l-2.126,0.087l-4.262,0.183     c-11.35,0.495-22.694,1.041-33.999,1.381c-2.818,0.077-5.657,0.15-8.4,0.129l-8.505-0.177c-5.699-0.083-11.389-0.123-17.073-0.12     l-17.028,0.072l-4.237-0.011c-1.377-0.02-2.91,0.001-4.017-0.113c-2.485-0.229-4.93-0.936-7.202-2.048     c-4.544-2.229-8.383-6.055-10.762-10.58c-1.177-2.266-1.991-4.719-2.237-7.194c-0.059-0.578-0.095-1.323-0.14-2.024     c-0.043-0.706-0.088-1.413-0.112-2.12l-0.162-4.241c-0.245-5.657,0.587-11.313,0.317-16.955c-0.1-2.824-0.152-5.654-0.348-8.489     l-0.246-4.256c-0.073-1.402-0.095-2.777-0.125-4.203L5.946,69.35c-0.028-2.854-0.088-5.71-0.181-8.563l-0.131-4.281l-0.062-2.094     l-0.022-2.103c-0.003-5.641,0.05-11.317,0.229-16.968c0.123-2.821,0.256-5.655,0.469-8.422c0.204-2.553,0.879-5.034,1.981-7.326     c2.192-4.589,6.051-8.376,10.579-10.678c2.267-1.143,4.689-1.929,7.123-2.309c0.633-0.094,1.169-0.144,1.88-0.186l2.088-0.12     l4.202-0.239c2.81-0.156,5.631-0.294,8.456-0.323l8.486,0.057c2.83,0.005,5.662,0.12,8.495,0.066l8.503-0.076     c5.672-0.101,11.347-0.111,17.023-0.106c2.834-0.012,5.685-0.03,8.541-0.083c2.845-0.04,5.683-0.122,8.523-0.383     c5.682-0.591,11.356-0.208,17.024-0.13c2.829,0.115,5.671,0.235,8.461,0.429c1.368,0.084,2.64,0.267,3.897,0.612     c1.259,0.338,2.487,0.809,3.668,1.385c2.361,1.154,4.531,2.727,6.415,4.574c1.872,1.856,3.546,3.923,4.798,6.217     c1.259,2.284,2.13,4.761,2.465,7.276c0.086,0.64,0.131,1.234,0.155,1.912l0.078,2.126l0.146,4.246     C149.425,39.516,150.073,45.156,149.875,50.809z"/><path d="M91.286,56.314c-0.722-0.16-1.4-0.342-2.195-0.342h-1.862l-3.625-0.1c-2.416,0.033-4.832,0.1-7.248,0.1h-0.002     c-0.58,0-1.168,0.396-1.395,0.965l-0.188,0.556c-0.752,1.885-1.375,3.841-1.948,5.767c-0.612,1.916-1.112,3.88-1.591,5.826     c-0.495,1.943-0.899,3.918-1.258,5.892l-0.439,2.989c-0.107,1.003-0.228,2.005-0.264,3.025l-0.024,0.67     c-0.003,0.103,0.005,0.083,0.023,0.189c0.147,0.836,0.946,1.122,1.782,1.122h0.002c2.61,1,5.221,0.589,7.831,0.683l3.944,0.175     c1.587-0.025,3.148-0.266,4.598-0.783c2.898-1.053,5.379-2.847,7.334-5.071c0.959-1.129,1.871-2.298,2.591-3.611     c0.36-0.655,0.688-1.328,0.961-2.031c0.26-0.651,0.527-1.531,0.663-2.095c0.698-2.725,0.597-5.895-0.793-8.597     C96.827,58.928,94.143,56.913,91.286,56.314z M94.638,69.075c-0.002,0.007-0.005,0.016-0.006,0.022l-0.002,0.009     c-0.169,0.707-0.283,1.06-0.485,1.622c-0.192,0.516-0.43,1.019-0.689,1.512c-0.534,0.975-1.16,1.932-1.978,2.715     c-1.589,1.597-3.561,2.818-5.621,3.419c-1.025,0.307-2.062,0.517-3.086,0.519l-3.886,0.119c-1.833,0.065-3.665,0.189-5.498,0.347     l0.776-3.425c0.434-1.957,0.908-3.904,1.309-5.869l2.213-10.575c1.973-0.084,3.945-0.073,5.918-0.017     c1.208,0.044,2.416,0.161,3.625,0.223l1.761,0.106c0.411,0.043,0.933,0.129,1.384,0.257c1.854,0.504,3.342,1.778,4.085,3.441     C95.209,65.165,95.226,67.166,94.638,69.075z"/></g><path d="M67.494,128.083c0.03-0.889,0.04-1.814,0.129-2.752c0.089-0.915,0.151-1.836,0.287-2.742    c0.241-1.818,0.533-3.624,0.878-5.414c0.335-1.791,0.695-3.574,1.071-5.35c0.421-1.763,0.817-3.529,1.323-5.261l0.018-0.06    c0.473-1.614,2.017-2.623,3.632-2.481c1.7,0.149,3.402,0.24,5.104,0.358c1.702,0.113,3.412,0.283,5.129,0.327    c3.432,0.155,6.905-0.162,10.156-1.244c3.249-1.131,6.209-2.787,9.237-4.091c3.008-1.369,6.043-2.737,8.873-4.563    c2.813-1.813,5.399-4.137,7.081-7.068c1.706-2.889,3.326-5.815,4.409-9.001c0.582-1.618,0.996-3.096,1.304-4.785    c0.315-1.663,0.548-3.369,0.708-5.074c0.158-1.705,0.244-3.416,0.221-5.089c-0.026-1.654-0.163-3.346-0.54-4.651l-0.01-0.031    c-0.368-1.277,0.368-2.612,1.646-2.981c1.262-0.364,2.58,0.353,2.968,1.601c0.659,2.126,0.81,4.039,0.911,5.953    c0.057,1.906-0.015,3.775-0.159,5.636c-0.136,1.861-0.407,3.702-0.747,5.555c-0.326,1.833-0.86,3.816-1.508,5.556    c-0.662,1.781-1.593,3.456-2.576,5.07c-0.951,1.634-1.94,3.233-2.981,4.808c-2.071,3.156-4.637,5.997-7.54,8.418    c-2.894,2.436-6.1,4.483-9.48,6.135c-3.409,1.603-6.993,2.758-10.62,3.614c-3.621,0.891-7.277,1.595-10.984,2.157    c-3.707,0.546-7.479,0.661-11.2,0.314l3.649-2.541c-0.441,1.723-0.976,3.415-1.451,5.119c-0.52,1.692-1.022,3.386-1.499,5.082    l-1.387,5.09l-1.406,5.093l-0.002,0.005c-0.348,1.259-1.65,1.997-2.908,1.649C68.153,130.146,67.458,129.15,67.494,128.083z" fill="#00568F"/></g></g></svg>