<?xml version="1.0" ?><!DOCTYPE svg  PUBLIC '-//W3C//DTD SVG 1.1//EN'  'http://www.w3.org/Graphics/SVG/1.1/DTD/svg11.dtd'><svg enable-background="new 0 0 156.578 155.747" height="155.747px" id="icons" version="1.1" viewBox="0 0 156.578 155.747" width="156.578px" xml:space="preserve" xmlns="http://www.w3.org/2000/svg" xmlns:xlink="http://www.w3.org/1999/xlink"><g><path d="M13.066,133.349c11.297,13.271,32.05,14.902,48.434,15.633c14.21,0.635,57.713,4.316,70.902-2.189   c21.206-10.447,21.833-36.193,21.773-88.303c-0.041-37.324-30.087-53.266-42.679-53.979C97.137,3.7,86.708,3.53,67.425,3.88   C45.569,4.275,16.369,23.302,12.318,44.777C7.071,72.593,0.82,118.97,13.066,133.349z" fill="#ED1C24"/><path d="M95.4,25.169c-12.541-3.432-26.345-2.848-37.512,4.217c-18.754,11.877-21.531,38.709-9.302,56.16   c4.908,7.016,16.538,0.332,11.56-6.766c-7.335-10.469-8.045-24.99,0.949-34.77c5.215-5.67,12.813-7.57,20.258-7.5   c7.773,0.084,19.233,2.178,24.148,8.859c9.057,12.316,6.674,33.594-6.117,42.445c-6.792,4.703-11.662,2.369-15.107-4.408   c-1.512-2.963-0.849-15.176-0.004-18.063c1.396-4.793,1.485-11.086-2.84-14.439c-2.622-2.035-6.993-3.1-9.478,0   C67.05,57.04,66.4,64.96,67.524,72.712c-1.58,5.17-2.49,10.613-3.564,15.838c-2.726,13.287-7.883,25.941-7.916,39.678   c-0.021,8.641,7.537,9.754,11.438-0.008c2.846-7.111,3.873-14.902,5.858-22.266c0.962-3.543,1.834-7.107,2.668-10.666   c4.324,5.492,11.13,11.293,18.829,10.602c12.416-1.127,27.779-13.451,31.46-24.701C138.663,43.361,107.545,28.484,95.4,25.169z" fill="#FFFFFF"/><g><path d="M156.309,51.7c-0.296-5.704-0.737-11.394-1.102-17.055l-0.209-4.24c-0.029-0.705-0.069-1.408-0.081-2.111    c-0.018-0.708,0.005-1.362,0.001-2.223c0.022-3.255-0.528-6.593-2.023-9.479c-2.857-5.799-7.507-10.641-13.335-13.65    c-2.907-1.512-6.149-2.428-9.444-2.762c-1.829-0.172-3.119-0.126-4.589-0.157l-4.29-0.021c-2.853,0.003-5.697-0.032-8.539,0.1    l-8.519,0.48c-2.839,0.164-5.676,0.299-8.511,0.364l-8.501,0.049l-4.246-0.024c-1.432-0.014-2.784-0.042-4.286-0.011    c-2.922,0.067-5.758,0.235-8.611,0.4C58.641,1.981,47.288,2.438,35.908,2.264c-1.423-0.047-2.846-0.114-4.265-0.139l-2.137-0.008    c-0.774-0.009-1.551,0.049-2.328,0.115c-3.107,0.279-6.248,0.986-9.227,2.265c-2.975,1.272-5.769,3.125-8.088,5.481    c-2.301,2.375-4.092,5.223-5.297,8.265c-0.604,1.522-1.064,3.093-1.383,4.686c-0.16,0.797-0.285,1.6-0.375,2.404    c-0.043,0.391-0.082,0.82-0.111,1.241l-0.061,1.093c-0.168,2.819-0.225,5.665-0.348,8.5c-0.234,5.675-0.385,11.357-0.563,17.038    L0.095,87.261c-0.24,5.835-0.002,11.642,0.468,17.375c0.472,5.734,1.159,11.406,1.71,17.011c0.136,1.4,0.261,2.797,0.364,4.188    l0.138,2.086c0.037,0.704,0.106,1.574,0.225,2.341c0.471,3.159,1.567,6.165,3.128,8.851c0.785,1.342,1.679,2.607,2.637,3.814    c0.945,1.216,1.946,2.392,3.03,3.496c2.188,2.184,4.667,4.138,7.504,5.616c1.418,0.73,2.914,1.375,4.499,1.81    c1.554,0.452,3.322,0.699,4.766,0.815c2.873,0.239,5.71,0.368,8.56,0.445c5.693,0.13,11.371,0.451,17.062,0.535l8.545,0.104    c2.872,0.01,5.754-0.058,8.595-0.121l17.083-0.514c5.69-0.151,11.38-0.152,17.078-0.023l8.552,0.114    c1.427-0.002,2.855,0.054,4.281-0.008c1.427-0.034,2.852-0.15,4.28-0.19l4.291-0.199l2.152-0.122    c0.692-0.037,1.585-0.111,2.355-0.226c3.19-0.457,6.232-1.507,9.023-2.983c5.567-2.955,10.239-7.661,12.925-13.506    c1.343-2.91,2.149-6.099,2.349-9.308c0.171-2.979,0.241-5.82,0.291-8.688c0.089-5.705,0.138-11.415,0.115-16.989l0.043-2.036    l0.033-0.934l0.063-1.054c0.08-1.436,0.125-2.875,0.112-4.315l-0.097-8.626l0.302-17.166    C156.606,63.132,156.589,57.406,156.309,51.7z M151.526,68.895c-0.089,2.817-0.3,5.628-0.378,8.438    c-0.107,2.81-0.308,5.612-0.359,8.421c-0.052,2.809-0.006,5.626-0.053,8.443c0.004,1.411-0.101,2.813-0.177,4.22l-0.064,1.072    l-0.051,1.167c-0.033,0.75-0.049,1.477-0.061,2.201c-0.025,5.763-0.059,11.423-0.152,17.085c-0.05,2.818-0.121,5.66-0.284,8.375    c-0.166,2.517-0.797,4.978-1.858,7.264c-2.109,4.578-5.903,8.41-10.405,10.774c-2.249,1.183-4.679,2.002-7.13,2.344    c-0.638,0.089-1.168,0.133-1.894,0.172l-2.102,0.115l-4.224,0.188c-11.287,0.475-22.636,0.685-33.971,0.787    c-5.669,0.047-11.339,0.061-16.998,0.021c-2.841-0.026-5.641-0.046-8.452-0.144l-8.496-0.301l-17.009-0.707l-8.469-0.428    c-1.395-0.066-2.497-0.193-3.703-0.49c-1.184-0.287-2.354-0.702-3.487-1.222c-4.536-2.088-8.504-5.799-10.902-10.223    c-1.205-2.205-2.025-4.584-2.332-6.979c-0.08-0.625-0.114-1.138-0.142-1.854l-0.105-2.177c-0.083-1.45-0.188-2.89-0.302-4.322    l-1.49-16.918c-0.427-5.581-0.623-11.127-0.549-16.655c0.068-5.685-0.203-11.387-0.021-17.066    c0.083-5.685,0.879-11.331,1.146-17.006l0.774-17.028c0.114-2.841,0.287-5.675,0.345-8.525c0.012-2.717,0.432-5.273,1.329-7.759    c0.892-2.464,2.248-4.761,4.017-6.708c1.768-1.949,3.942-3.539,6.358-4.689c2.433-1.118,5.079-1.796,7.782-2.109    c0.676-0.073,1.355-0.147,2.04-0.143l2.129-0.027c1.425,0.014,2.85,0.074,4.274,0.136c11.389,0.305,22.737-0.407,34.064-0.352    c2.822,0,5.664-0.052,8.41,0.023c1.325,0.059,2.824,0.097,4.23,0.101l4.279,0.028l8.547-0.027c2.846,0.012,5.69,0.101,8.534,0.169    c2.844,0.104,5.686,0.059,8.525,0.073c2.84,0.022,5.678-0.025,8.51-0.071l4.24-0.043c1.385,0.001,2.9-0.036,4.024,0.061    c2.5,0.198,4.974,0.877,7.281,1.972c4.618,2.188,8.566,6.011,11,10.607c1.204,2.304,1.966,4.821,2.209,7.341l0.275,4.2    l0.313,4.264c0.461,5.67,0.819,11.321,1.072,16.971C151.853,57.605,151.78,63.26,151.526,68.895z"/><path d="M127.756,60.13c-0.045-0.797-0.126-1.538-0.223-2.305c-0.193-1.52-0.522-3.018-0.968-4.473    c-1.773-5.839-4.948-11.033-8.798-15.579c-3.874-4.541-8.704-8.221-14.188-10.791c-5.471-2.633-11.623-3.424-17.609-3.424h-0.027    c-7.101,0-14.422,1.193-21.022,4.246c-6.635,2.994-12.405,7.792-16.611,13.693c-4.219,5.899-6.916,12.843-7.558,20.099    c-0.286,3.656-0.051,7.232,0.689,10.806c0.757,3.551,2.087,7.054,4.251,10.114c1.071,1.536,2.393,2.887,3.789,4.169    c0.709,0.632,1.432,1.263,2.222,1.82c0.397,0.271,0.796,0.548,1.215,0.792c0.206,0.128,0.415,0.251,0.63,0.364l0.322,0.171    l0.162,0.082c0.066,0.028-0.031-0.006,0.168,0.073l0.074,0.032l0.148,0.064c0.044,0.021,0.199,0.069,0.295,0.1    c0.23,0.073,0.424,0.113,0.619,0.149c0.401,0.069,0.839,0.082,1.296,0.018c0.911-0.104,1.869-0.607,2.476-1.291    c0.615-0.68,0.945-1.439,1.122-2.121l0.322-1.265l0.634-2.499l0.326-1.256c0.117-0.487,0.287-1.146,0.221-2.04    c-0.064-0.929-0.51-1.798-0.85-2.278c-0.178-0.269-0.343-0.476-0.506-0.682l-0.412-0.505c-0.303-0.367-0.457-0.587-0.676-0.896    c-0.213-0.303-0.406-0.617-0.598-0.933c-0.734-1.277-1.27-2.665-1.59-4.141c-0.638-2.936-0.521-6.229-0.008-9.357    c1.066-6.277,4.418-12.16,9.415-16.135c1.249-0.984,2.501-1.993,3.876-2.852c1.381-0.848,2.912-1.419,4.449-1.935    c3.1-0.979,6.398-1.346,9.652-1.259c3.305,0.062,6.516,0.618,9.544,1.605c3.012,1.008,5.823,2.588,8.015,4.827    c2.169,2.253,3.717,5.054,4.568,8.082c0.429,1.514,0.694,3.081,0.809,4.668c0.057,0.792,0.076,1.597,0.062,2.388    c-0.012,0.883-0.046,1.649-0.094,2.498c-0.199,3.31-0.688,6.598-1.516,9.769c-0.784,3.184-2.117,6.199-3.769,8.875    c-1.663,2.65-3.543,5.12-5.938,6.714c-1.188,0.797-2.481,1.363-3.839,1.654c-0.658,0.14-1.417,0.242-2.029,0.257    c-0.194-0.002-0.478,0.007-0.599-0.004c-0.147-0.01-0.28-0.005-0.457-0.026c-0.335-0.027-0.668-0.075-0.993-0.146    c-2.625-0.518-4.873-2.46-5.542-5.046c-0.17-0.643-0.253-1.316-0.246-2.004c0.001-0.344,0.032-0.691,0.076-1.04    c0.05-0.34,0.116-0.688,0.218-1.138c0.366-1.619,0.816-3.264,1.281-4.903l2.892-10.019c0.452-1.722,0.944-3.466,1.164-5.384    c0.235-1.916,0.14-4.015-0.576-6.02c-0.665-2.013-2.108-3.968-4.094-5.148c-1.962-1.203-4.304-1.55-6.258-1.433    c-4.555,0.267-8.167,3.158-10.269,6.503c-2.147,3.382-3.078,7.269-3.168,11.067c-0.03,1.875,0.149,3.792,0.506,5.631    c0.18,0.926,0.405,1.844,0.685,2.752c0.14,0.455,0.291,0.907,0.461,1.36c0.085,0.223,0.165,0.43,0.253,0.645    c-1.643,7.752-3.26,15.51-5.026,23.233l-1.301,6.008l-0.651,3.004c-0.224,1.003-0.424,2.117-0.565,3.152    c-0.592,4.224-0.636,8.435-0.379,12.603c0.13,2.085,0.337,4.159,0.618,6.227l0.227,1.548l0.06,0.378l0.034,0.196l0.021,0.094    c0.029,0.14,0.153,0.479,0.24,0.6c0.389,0.688,1.134,1.074,1.816,1.109c0.687,0.051,1.43-0.246,1.889-0.797l0.517-0.668    l0.936-1.254c2.445-3.377,4.684-6.899,6.617-10.628c0.951-1.871,1.827-3.796,2.517-5.811c0.349-0.995,0.645-2.063,0.901-3.036    l0.862-2.951c0.781-2.549,1.62-5.081,2.526-7.596c1.375,1.308,2.952,2.315,4.578,3.121c2.895,1.407,6.088,2.094,9.302,2.1    c3.099-0.075,6.149-0.644,9-1.738c1.426-0.533,2.812-1.151,4.129-1.88c1.329-0.698,2.629-1.445,3.848-2.307    c4.939-3.322,9.179-7.656,12.319-12.728c1.591-2.521,2.85-5.238,3.899-8.022c1.031-2.791,1.857-5.667,2.354-8.601    c0.518-2.929,0.805-5.895,0.876-8.862c0.002-0.381,0.027-0.719,0.01-1.137C127.796,60.9,127.784,60.542,127.756,60.13z     M61.451,131.645v-0.002c0.014,0.041,0.024,0.077,0.019,0.083L61.451,131.645z M122.589,70.542    c-0.365,2.724-0.89,5.427-1.706,8.055c-0.879,2.603-1.891,5.171-3.312,7.516c-2.785,4.718-6.68,8.695-11.188,11.468    c-4.453,2.859-9.683,4.405-14.951,4.374c-2.502-0.032-5.037-0.655-7.305-1.756c-2.241-1.086-4.316-2.74-5.301-4.598L78.825,95.6    l-0.04-0.072c-0.29-0.505-0.771-0.9-1.376-1.067c-1.217-0.334-2.473,0.381-2.807,1.598l-3.253,11.853    c-0.575,1.964-1.117,3.984-1.661,5.753c-0.586,1.827-1.237,3.677-1.956,5.533c-1.386,3.752-3.644,7.141-5.978,10.408l-0.512,0.692    l-0.082-0.541c-0.291-1.994-0.477-4.006-0.594-6.018c-0.235-4.021-0.158-8.062,0.397-11.999c0.137-0.998,0.298-1.935,0.519-2.934    l0.651-3.004c0.425-2.005,0.911-3.995,1.401-5.984c1.036-3.966,2.51-7.828,3.516-11.802c1.098-3.951,2.205-7.894,3.239-11.859    l-0.206-1.543v0.002c0-0.529-0.527-1.341-0.744-2.057c-0.227-0.743-0.4-1.506-0.549-2.276c-0.298-1.553-0.435-3.102-0.412-4.687    c0.033-3.104,0.791-6.205,2.357-8.72c0.779-1.251,1.766-2.34,2.905-3.128c0.569-0.395,1.176-0.713,1.806-0.944    c0.314-0.12,0.637-0.209,0.963-0.282c0.332-0.074,0.658-0.113,0.924-0.144c1.495-0.102,2.769,0.141,3.829,0.759    c1.048,0.611,1.845,1.625,2.33,2.894c0.487,1.277,0.654,2.723,0.561,4.231c-0.097,1.521-0.416,3.134-0.804,4.745    c-0.784,3.236-1.873,6.502-2.858,9.835c-0.498,1.67-0.975,3.349-1.4,5.083c-0.097,0.39-0.213,0.884-0.303,1.392    c-0.081,0.502-0.141,1.01-0.161,1.523c-0.044,1.026,0.047,2.07,0.281,3.087c0.476,2.035,1.559,3.934,3.063,5.365    c1.502,1.437,3.384,2.428,5.355,2.897c0.492,0.121,0.991,0.209,1.491,0.267c0.241,0.035,0.521,0.05,0.787,0.069    c0.286,0.021,0.45,0.013,0.682,0.021c1.05,0.007,1.983-0.096,2.964-0.284c1.933-0.38,3.77-1.161,5.384-2.207    c3.241-2.104,5.645-5.107,7.272-8.346c3.127-6.546,4.812-13.486,5.319-20.56c0.058-0.868,0.102-1.8,0.12-2.646    c0.017-0.914,0.018-1.823-0.066-2.735c-0.152-1.821-0.479-3.64-1.004-5.411c-0.541-1.764-1.331-3.471-2.396-4.983    c-1.05-1.523-2.303-2.877-3.613-4.128c-2.636-2.488-5.735-4.461-9.12-5.701c-3.38-1.246-6.988-1.776-10.53-1.809    c-1.793-0.006-3.577,0.087-5.349,0.365c-1.764,0.314-3.507,0.747-5.19,1.352c-3.352,1.24-6.54,2.905-9.372,5.08    c-5.656,4.379-9.508,10.938-10.791,17.951c-0.629,3.504-0.786,7.114-0.03,10.698c0.383,1.781,1.043,3.524,1.962,5.121    c0.235,0.396,0.478,0.787,0.74,1.164c0.26,0.374,0.563,0.783,0.824,1.099c0.588,0.7,1.022,1.271,1.012,1.605    c0.056,0.394-0.257,1.32-0.459,2.155l-0.643,2.508l-0.32,1.245c-0.074,0.286-0.198,0.507-0.326,0.65    c-0.252,0.253-0.566,0.335-1.158,0.12c-2.92-1.168-5.534-3.328-7.35-5.998c-1.848-2.676-3.018-5.823-3.668-9.069    c-0.64-3.244-0.818-6.646-0.52-9.93c0.631-6.617,3.307-13.007,7.268-18.335c3.972-5.331,9.311-9.662,15.43-12.224    c6.147-2.541,12.758-3.448,19.412-3.4c2.707-0.003,5.42,0.053,8.146,0.344c1.363,0.156,2.723,0.382,4.082,0.651    c1.362,0.256,2.752,0.52,4.045,1.042c5.165,2.126,9.67,5.69,13.148,9.944c3.494,4.251,5.97,9.271,7.087,14.505    c0.274,1.309,0.472,2.626,0.617,3.944c0.059,0.654,0.027,1.336,0.041,1.968c0.013,0.302-0.071,0.659-0.071,1.021v1.008    C123.085,65.074,122.927,67.815,122.589,70.542z"/></g></g></svg>