<?xml version="1.0" ?><!DOCTYPE svg  PUBLIC '-//W3C//DTD SVG 1.1//EN'  'http://www.w3.org/Graphics/SVG/1.1/DTD/svg11.dtd'><svg enable-background="new 0 0 158.52 155.031" height="155.031px" version="1.1" viewBox="0 0 158.52 155.031" width="158.52px" xml:space="preserve" xmlns="http://www.w3.org/2000/svg" xmlns:xlink="http://www.w3.org/1999/xlink"><g id="icons"/><g id="Isolation_Mode"><g><path d="M114.345,141.181c18.624,0.233,34.572-7.012,33.693-27.746c-1.117-26.328,0.408-46.303,1.555-64.665    c1.604-25.661-11.986-41.883-37.439-43.185c-13.349-0.683-40.582-0.92-53.717-0.938C14.924,4.587,10.356,31.12,9.924,42.895    c-0.716,19.497,0.499,57.496,3.036,79.429c1.808,15.633,17.163,20.323,30.565,20.323    C55.273,142.647,90.687,140.886,114.345,141.181z" fill="#FF5600"/><path d="M123.838,71.083c-2.073,0-4.051,0.42-5.852,1.175c-1.204-13.633-15.738-29.938-33.599-20.713    c-8.851,4.571-8.625,39.324,1.118,47.485c8.35,6.994,38.333,2.236,38.333,2.236c8.355,0,15.127-6.698,15.127-15.054    C138.965,77.856,132.193,71.083,123.838,71.083z" fill="#FFFFFF"/><path d="M75.712,55.289c1.652,8.109,0.974,17.376,0.805,25.572c-0.101,4.922-0.319,9.843-0.404,14.766    c-0.019,1.07,0.274,2.838-0.331,3.833c-1.093,1.797-3.672,0.795-3.657-1.164c0.069-8.92-0.308-17.856-0.166-26.767    c0.077-4.82,0.254-9.628,0.507-14.442c0.039-0.735-0.091-1.954,0.35-2.624C73.703,53.117,75.434,53.926,75.712,55.289z"/><path d="M69.452,62.55c1.466,6.585,1.096,14.538,0.955,21.263c-0.086,4.097-0.24,8.213-0.667,12.291    c-0.096,0.914,0.015,2.366-0.568,3.163c-1.106,1.513-2.82,0.234-2.919-1.243c-0.525-7.815-0.607-15.628-0.432-23.455    c0.079-3.526,0.175-7.039,0.38-10.558c0.055-0.947-0.08-2.302,0.957-2.818C68.232,60.658,69.221,61.513,69.452,62.55z"/><path d="M56.748,62.451c0.685,7.334,0.573,13.809,0.702,21.172c0.069,3.899-0.159,7.83-0.492,11.711    c-0.082,0.958-0.099,2.712-0.422,3.609c-0.623,1.729-2.793,1.674-3.171-0.194c-0.484-2.392-0.116-6.234-0.146-8.641    c-0.058-4.71,0.069-9.417-0.015-14.127c-0.079-4.419,0.065-9.849,0.062-14.269C53.263,59.39,56.445,59.209,56.748,62.451z"/><path d="M63.131,60.465c0.496,7.951,0.589,15.929,0.457,23.893c-0.066,3.96-0.166,7.925-0.353,11.881    c-0.096,2.03-1.235,6.318-3.262,2.531c-1.526-2.851-0.424-7.925-0.428-10.993c-0.005-3.673-0.453-7.296-0.369-10.98    c0.107-4.709,0.234-9.412,0.27-14.123c0.007-0.856-0.202-2.246,0.274-3.045C60.631,58.1,63.021,58.704,63.131,60.465z"/><path d="M50.467,66.524c0.893,7.284,0.452,14.719,0.198,22.031c-0.114,3.275-0.127,6.577-0.422,9.842    c-0.216,2.395-2.737,1.91-3.305,0c-0.778-2.616-0.532-5.774-0.508-8.45c0.039-4.416,0.052-8.833,0.077-13.249    c0.018-3.188,0.128-6.383,0.262-9.568C46.87,64.714,50.121,63.701,50.467,66.524z"/><path d="M44.123,74.562c0.815,4.842,0.7,10.011,0.595,14.892c-0.034,1.593,0.389,13.143-3.41,10.708    c-1.615-1.035-1.016-4.914-0.972-6.456c0.095-3.35,0.125-6.697,0.15-10.049c0.022-3.018,0.229-6.02,0.477-9.025    C41.129,72.608,43.785,72.558,44.123,74.562z"/><path d="M28.216,97.709c-1.192-4.477-0.597-9.852-0.413-14.395c0.103-2.555,0.198-5.111,0.281-7.667    c0.072-2.185,2.952-2.371,3.402-0.178c0.361,1.759,0.175,4.549,0.245,6.339c0.115,2.958,0.182,5.908,0.123,8.867    c-0.046,2.311-0.201,4.589-0.464,6.887C31.16,99.573,28.724,99.619,28.216,97.709z"/><path d="M22.121,93.763c-0.322-1.607-1.444-16.187,2.515-13.56c1.866,1.238,1.443,7.829,1.255,9.677    c-0.094,0.923-0.228,2.995-0.623,3.877C24.593,95.269,22.451,95.414,22.121,93.763z"/><path d="M37.79,72.576c1.585,5.174,0.37,11.383,0.344,16.705c-0.015,2.917-0.152,5.83-0.295,8.743    c-0.115,2.33-2.963,3.598-3.703,0.788c-0.365-1.388-0.244-4.055-0.269-5.45c-0.065-3.668,0.152-7.329,0.107-10.995    c-0.036-2.96-0.086-5.887,0.408-8.806C34.678,71.815,36.992,69.971,37.79,72.576z"/><path d="M137.696,84.835c-0.233-9.214-7.201-15.652-16.26-15.669c-0.958-0.04-3.297,0.357-4.109-0.144    c-0.812-2.98-2.721-5.448-4.331-8.024c-2.932-4.691-7.454-8.289-12.67-10.084c-3.047-1.049-6.342-1.576-9.568-1.427    c-3.003,0.139-10.317,0.753-11.638,3.731c-1.153,2.599-0.245,7.018-0.295,9.955c-0.04,2.367-0.077,4.734-0.115,7.101    c-0.072,4.608-0.055,9.221,0.157,13.825c0.131,2.843,0.334,5.683,0.471,8.525c0.104,2.159-0.633,6.175,0.48,8.087    c1.018,1.75,6.011,1.059,7.727,1.149c3.587,0.188,7.171,0.383,10.754,0.631c5.876,0.407,11.711-0.183,17.571-0.528    c8.179-0.482,16.551-1.288,20.383-9.838C137.276,89.828,137.778,87.347,137.696,84.835z M132.013,87.799    c-1.769,8.244-9.684,8.426-16.458,8.779c-6.237,0.325-12.347,0.281-18.589,0.331c-2.289,0.018-4.587,0.107-6.876,0.039    c-1.144-0.034-2.496,0.096-3.621-0.108c-2.332-0.424-2.007,0.085-1.943-2.796c0.08-5.207,0.211-10.422,0.159-15.629    c-0.037-3.695-0.214-7.388-0.37-11.08c-0.11-2.602-1.518-10.897,0.827-11.554c5.905-1.655,12.07-1.233,17.346,2.229    c4.616,3.029,7.484,6.436,8.86,12.073c0.72,2.95,2.499,4.196,5.871,4.233c3.678,0.04,7.139-0.797,10.174,1.619    C130.717,78.58,132.925,83.551,132.013,87.799z"/><path d="M156.254,66.067c-0.267,11.632-0.513,23.257-0.61,34.892c-0.051,6.077-0.225,12.157-0.425,18.232    c-0.22,6.673-0.305,13.167-3.493,19.274c-8.039,15.4-24.72,14.488-39.562,14.332c-18.875-0.198-37.965,2.619-56.792,0.587    c0.164,0.011,0.328,0.023,0.492,0.034c-5.419-0.034-10.842-0.011-16.26-0.144c-8.91-0.22-17.091-0.07-24.658-5.672    c-7.192-5.324-11.353-13.337-11.434-22.248c-0.095-10.438,0.087-20.87-0.156-31.309C2.82,71.04,1.219,49.455,3.314,26.515    c0.907-9.934,7.362-18.559,16.403-22.683c7.587-3.46,16.72-2.802,24.924-2.884c15.678-0.155,31.357,0.12,47.025,0.634    c6.23,0.204,12.449,0.373,18.683,0.378c8.314,0.007,17.824-1.48,25.888,1.087c10.147,3.233,18.673,12.867,19.474,23.666    c0.532,5.946,0.343,12.021,0.384,17.978C156.148,52.483,156.201,58.275,156.254,66.067z M150.464,66.075    c-0.088-11.237,0.103-20.501-0.226-31.732c-0.186-6.343-0.271-11.999-4.201-17.464c-4.814-6.695-11.502-9.318-19.358-9.683    c-11.79-0.548-23.627-0.009-35.426-0.363C70.462,6.21,49.367,3.783,28.607,6.405C18.388,7.695,9.79,16.554,9.059,26.829    C8.528,34.297,8.815,39.85,8.641,47.331c-1.038,21.908-1.167,43.892-0.157,65.811c0.404,8.779,0.436,17.441,6.089,24.694    c4.85,6.322,11.697,8.709,19.288,9.223c17.894,1.213,35.833,0.206,53.749-0.039c12.294-0.168,24.587-0.288,36.879-0.569    c5.352-0.122,10.518-0.314,15.238-3.282c6.668-4.194,9.336-11.412,9.799-18.93c0.596-9.673,0.983-19.355,1.286-29.041    C151.115,85.525,150.381,75.78,150.464,66.075z"/></g></g><g id="Calque_1"/><g id="_x30_16_soundcloud"/><g id="Layer_1"/></svg>