<?xml version="1.0" ?><!DOCTYPE svg  PUBLIC '-//W3C//DTD SVG 1.1//EN'  'http://www.w3.org/Graphics/SVG/1.1/DTD/svg11.dtd'><svg enable-background="new 0 0 158.52 155.031" height="155.031px" id="icons" version="1.1" viewBox="0 0 158.52 155.031" width="158.52px" xml:space="preserve" xmlns="http://www.w3.org/2000/svg" xmlns:xlink="http://www.w3.org/1999/xlink"><g><path d="M6.704,111.304c1.434,7.327,8.594,17.623,9.111,18.473c11.994,19.693,42.992,19.393,62.73,18.347   c20.563-1.091,44.781,0.675,60.172-14.77c13.276-13.32,7.334-32.867,8.417-50.963c1.23-20.606,7.264-43.482-5.838-60.409   c-11.26-14.549-21.775-16.704-39.18-17.074C91.779,4.686,78.424,5.089,59.212,5.405C17.995,6.084,7.956,30.969,6.558,51.995   C5.689,65.056,4.197,98.476,6.704,111.304z" fill="#1ED760"/><path d="M89.997,154.51c-10.602,0.005-21.204-0.057-31.806-0.142c-8.402-0.068-16.806-0.436-25.204-0.479   c-7.808-0.04-15.2-0.996-21.241-6.478c-6.059-5.498-8.039-13.33-8.316-21.226c-0.304-8.669-0.297-17.351-0.37-26.025   C2.916,83.075,2.355,65.991,2.353,48.909c-0.001-7.16-0.774-14.773,0.275-21.882c1.111-7.521,5.436-14.512,11.194-19.388   c5.2-4.403,10.926-6.164,17.588-6.524c7.894-0.426,15.841-0.918,23.75-0.673c7.338,0.228,14.58,0.707,21.896,1.323   c15.017,1.264,30.107-0.408,45.126,0.216c3.67,0.153,7.536,0.03,11.142,0.809c7.748,1.674,14.414,6.854,18.432,13.621   c2.889,4.866,3.863,10.052,3.981,15.599c0.084,3.959-0.153,7.911-0.093,11.869c0.063,4.158,0.28,8.393-0.039,12.544   c-0.635,8.249-0.065,16.561,0.238,24.82c0.324,8.843,0.347,17.687,0.322,26.534c-0.012,4.136-0.051,8.271-0.109,12.407   c-0.057,4.065,0.229,8.343-0.523,12.358c-1.345,7.189-5.885,13.679-11.83,17.847c-8.34,5.847-17.002,5.095-26.593,4.591   C108.062,154.505,99.054,154.506,89.997,154.51z M89.935,148.671c12.873,0.441,25.861,1.426,38.725,0.157   c7.334-0.723,13.938-5.457,17.754-11.665c4.165-6.778,3.662-15.542,4.177-23.227c1.157-17.248,0.945-34.523,0.131-51.782   c-0.406-8.616-0.368-17.251-0.922-25.857c-0.364-5.652-0.54-10.905-3.42-15.987c-3.494-6.166-9.808-10.914-16.925-11.762   c-3.896-0.465-7.83-0.727-11.741-1.02C104.75,6.554,91.827,7.29,78.87,6.64c-7.653-0.384-15.158-0.692-22.817-0.565   c-3.589,0.06-7.179,0.072-10.767,0.183c-4.193,0.129-8.379,0.272-12.567,0.51c-2.943,0.167-5.702,0.222-8.512,1.227   c-7.234,2.761-12.991,9.534-15.214,16.869c-1.387,4.577-0.814,9.68-0.813,14.401C8.181,56.93,7.594,74.629,8.267,92.282   c0.339,8.893,1.77,17.793,1.394,26.698c-0.307,7.286-0.441,15.076,4.079,21.242c4.704,6.417,11.873,8.185,19.427,8.355   c8.337,0.187,16.682,0.108,25.02,0.034C68.759,148.517,79.414,148.311,89.935,148.671z"/><g><path d="M78.236,26.102c-28.057-3.188-51.129,25.148-51.129,53.386c0,28.24,22.892,51.13,51.129,51.13    c28.238,0,48.871-22.89,48.871-51.13C127.107,51.251,113.675,30.129,78.236,26.102z M101.684,102.106    c-0.919,1.506-2.881,1.978-4.382,1.06c-12.006-7.338-27.119-8.995-44.916-4.93c-1.715,0.393-3.424-0.682-3.816-2.396    c-0.393-1.715,0.678-3.424,2.397-3.815c19.476-4.452,36.183-2.536,49.659,5.699C102.129,98.641,102.602,100.603,101.684,102.106z     M107.94,88.183c-1.156,1.876-3.609,2.465-5.483,1.313c-13.74-8.446-34.692-10.893-50.948-5.958    c-2.108,0.637-4.335-0.552-4.975-2.656c-0.635-2.108,0.554-4.331,2.658-4.972c18.57-5.635,41.655-2.906,57.436,6.793    C108.502,83.857,109.092,86.311,107.94,88.183z M108.48,73.687c-16.481-9.788-43.666-10.688-59.399-5.912    c-2.527,0.766-5.198-0.66-5.964-3.186c-0.766-2.528,0.659-5.198,3.188-5.966c18.061-5.482,48.084-4.423,67.057,6.839    c2.273,1.349,3.018,4.284,1.671,6.553C113.684,74.287,110.747,75.036,108.48,73.687z" fill="#FFFFFF"/></g><path d="M138.213,77.606c-0.005,6.507-0.804,12.698-2.858,18.918c-2.558,7.743-7.112,14.545-12.268,20.791   c-10.367,12.56-25.739,18.93-41.82,19.65c-13.817,0.619-27.757-4.247-38.67-12.613c-10.957-8.4-17.466-21.653-20.789-34.759   c-4.848-19.122,1.66-41.107,15.431-54.824c11.016-10.972,21.463-16.237,36.919-17.739c2.198-0.214,10.522,1.357,12.664,1.73   c3.913,0.682,7.809,1.489,11.519,2.95c7.778,3.062,14.617,7.332,20.898,12.843C131.911,45.676,138.227,60.962,138.213,77.606z    M133.666,77.516c0.65-14.631-5.436-26.869-15.759-37.508c-2.581-2.66-5.898-4.875-8.935-6.965   c-3.349-2.305-6.968-4.423-10.819-5.822c-6.346-2.305-12.914-4.072-19.691-3.929c-14.395,0.304-28.544,5.84-38.735,16.383   c-7.369,7.625-12.4,17.301-13.845,27.883c-2.234,16.351,2.315,32.874,13.006,45.916c16.017,19.539,45.183,23.503,66.873,11.531   c8.623-4.759,16.444-12.137,20.665-21.115C130.296,95.659,133.281,86.177,133.666,77.516z"/><path d="M108.392,84.642c0.007-0.026,0.006-0.05,0.012-0.075C108.386,84.634,108.372,84.691,108.392,84.642z"/><path d="M111.089,81.85c-1.493-1.897-3.215-3.15-5.304-4.252c-3.563-1.879-7.367-3.276-11.254-4.317   c-8.24-2.144-16.457-4.837-25.057-4.691c-4.401,0.075-8.831,0.529-13.16,1.326c-2.654,0.489-6.052,0.882-8.247,2.628   c-1.877,1.494-3.183,4.442-2.581,6.832c0.635,2.52,2.848,4.647,5.567,4.428c0.988-0.08,1.927-0.48,2.853-0.81   c2.505-0.893,5.03-1.505,7.636-2.027c1.687-0.323,3.413-0.223,5.115-0.11c1.943,0.129,3.895,0.091,5.84,0.181   c3.758,0.173,7.5,0.543,11.187,1.306c3.348,0.693,6.658,1.647,9.958,2.532c3.281,0.688,6.021,2.296,8.864,3.975   c2.525,1.491,5.283,1.514,7.46-0.611C111.599,86.643,112.302,83.391,111.089,81.85z M108.392,84.642   c-0.948,2.379-2.787,0.82-4.466,0.113c-2.582-1.087-5.306-1.877-7.924-2.888c-5.56-2.148-11.445-3.585-17.384-4.157   c-3.143-0.303-6.303-0.377-9.458-0.432c-3.082-0.054-5.858-0.144-8.92,0.417c-2.236,0.409-4.531,0.748-6.655,1.554   c-0.666,0.253-1.364,0.604-2.06,0.767c-1.418,0.366-2.458-0.366-2.632-1.638c-0.069-0.504-0.022-0.773,0.158-1.251   c0.62-1.65,1.344-2.039,3.03-2.562c6.776-2.104,14.565-2.492,21.608-1.965c3.383,0.253,6.492,0.981,9.765,1.801   c3.364,1.19,7.037,1.615,10.499,2.472c3.509,0.868,6.916,2.024,10.166,3.618c1.431,0.702,4.793,1.871,4.287,4.078   C108.436,84.451,108.481,84.307,108.392,84.642z"/><path d="M120.305,66.995c0-0.019,0.005,0.006-0.006-0.086c0.007-3.331-2.35-4.641-4.839-5.976   c-3.479-1.866-7.057-3.383-10.741-4.797c-7.708-2.839-16.329-4.259-24.501-4.752c-8.806-0.532-17.574-0.244-26.237,1.552   c-2.704,0.56-5.552,1.095-8.108,2.17c-2.798,1.176-4.457,4.746-3.841,7.642c0.336,1.58,1.258,3.111,2.665,3.962   c1.604,0.97,3.416,1.092,5.187,0.49c2.049-0.697,3.973-1.328,6.115-1.724c8.372-1.548,17.259-1.429,25.705-0.494   c4.068,0.45,8.119,1.286,12.047,2.438c3.861,1.132,7.574,2.682,11.417,3.87c3.146,0.973,6.572,3.575,10.011,3.028   C118.555,73.779,120.305,69.266,120.305,66.995z M111.454,70.204c0.041,0.023,0.083,0.046,0.125,0.068   c-4.466-2.393-9.42-4.113-14.213-5.726c-6.072-2.044-12.467-3.364-18.866-3.721c-6.779-0.379-13.367-0.44-20.095,0.626   c-2.979,0.472-6.266,0.838-9.004,2.18c-1.984,1.073-3.462,0.086-4.02-1.885c0.017,0.039,0.034,0.079,0.05,0.119   c-0.635-1.379,1.091-3.151,2.261-3.63c2.661-1.09,5.844-1.564,8.665-2.073c7.829-1.414,15.675-1.542,23.59-0.987   c3.678,0.258,7.413,0.733,11.022,1.496c3.411,0.721,7.316,0.602,10.534,2.01c3.293,1.053,6.501,2.21,9.639,3.671   c2.373,1.105,5.545,2.231,5.458,5.305C116.735,70.31,113.319,71.001,111.454,70.204z"/><path d="M104.088,95.858C104.424,96.218,103.939,95.683,104.088,95.858L104.088,95.858z"/><path d="M100.512,93.414c-1.625-0.936-3.364-1.713-5.139-2.315c-8.022-2.723-16.189-5.167-24.713-5.41   c-4.565-0.13-9.21,0.404-13.696,1.253c-3.626,0.638-7.69,1.029-9.109,5.029c-0.58,1.636-0.326,3.343,0.635,4.761   c1.435,2.117,3.681,2.146,5.891,1.654c5.756-1.282,11.484-1.999,17.38-2.057c5.257,0.059,10.199,1.272,15.26,2.461   c3.504,0.823,6.721,1.768,9.941,3.401c2.237,1.134,4.569,1.936,6.704,0.052c1.748-1.544,2.055-4.63,0.421-6.385   C103.137,94.745,101.759,94.132,100.512,93.414z M101.67,99.615c-0.665,1.242-2.073,0.373-2.947-0.12   c-1.601-0.902-3.233-1.739-4.927-2.452c-3.581-1.508-7.284-2.632-11.103-3.365c-7.2-1.382-14.596-1.318-21.828-0.216   c-2.448,0.373-4.868,0.864-7.281,1.413c-1.073,0.244-2.608,0.586-2.556-1.114c0.013,0.074,0.026,0.148,0.04,0.222   c-0.148-0.763,0.291-2.013,1.059-2.33c1.199-0.553,2.603-0.732,3.896-0.938c1.557-0.248,3.115-0.542,4.689-0.651   c2.974-0.311,5.951-0.189,8.934-0.244c2.99-0.055,5.882,0,8.841,0.481c2.886,0.469,5.702,1.369,8.493,2.218   c2.795,0.85,5.69,1.35,8.463,2.245c1.65,0.533,3.244,1.408,4.74,2.271C101.133,97.583,102.444,98.24,101.67,99.615z"/></g></svg>