<?xml version="1.0" ?><!DOCTYPE svg  PUBLIC '-//W3C//DTD SVG 1.1//EN'  'http://www.w3.org/Graphics/SVG/1.1/DTD/svg11.dtd'><svg enable-background="new 0 0 158.52 155.031" height="155.031px" version="1.1" viewBox="0 0 158.52 155.031" width="158.52px" xml:space="preserve" xmlns="http://www.w3.org/2000/svg" xmlns:xlink="http://www.w3.org/1999/xlink"><g id="icons"/><g id="Isolation_Mode"><g><path d="M13.72,126.985c7.433,24.962,46.188,16.32,66.407,16.32c25.195,0,44.852,0.535,54.736-6.463    c13.037-9.231,11.908-26.698,11.908-45.238c0-40.995,7.142-51.652-5.449-69.562c-10.824-15.394-32.858-12.506-57-12.76    c-25.167-0.264-42.371-1.572-51.48,2.297c-22.156,9.404-22.52,28.483-22.52,50.036C10.323,84.47,6.266,101.948,13.72,126.985z" fill="#2FACDF"/><path d="M126.517,40.568c-4.242,20.19-11.927,62.689-14.979,72.813c-2.019,6.698-8.149,8.522-14.309,4.394    c-12.477-8.362-36.026-24.089-36.026-24.089l-8.848-8.445c0,0-22.512-2.598-28.69-4.875c-6.941-2.558-5.11-10.706-0.007-13.365    c19.715-10.272,72.607-29.027,88.792-35.112C120.356,28.916,128.395,31.628,126.517,40.568z" fill="#FFFFFF"/><path d="M108.525,49.57L52.356,85.24l8.73,29.802l2.461-20.989c0,0,45.225-40.653,47.079-42.383    C112.479,49.941,108.525,49.57,108.525,49.57z" fill="#C5E5EB"/><path d="M63.825,94.529l-2.599,22.991c1.952,1.172,13.642-13.848,13.642-13.848L63.825,94.529z" fill="#A9C2CC"/><path d="M155.278,117.812c-0.359-11.463-0.655-22.937-1.049-34.4c-0.239-6.964-0.419-13.934-0.484-20.902    c-0.081-8.824,0.684-17.595,0.811-26.411c0.106-7.342-0.032-14.044-4.266-20.431C146.112,9.367,139.21,4.6,131.731,3.182    c-5.995-1.137-12.537-0.539-18.587-0.652C104.615,2.37,96.082,2.24,87.56,1.832c-8.216-0.394-16.337-1.676-24.576-1.597    c-8.422,0.081-16.829,0.8-25.23,1.331c-8.28,0.523-16.349,0.653-23.274,5.881C8.167,12.213,4.515,19.778,4.086,27.615    C3.247,42.941,3.172,58.287,3.092,73.631c-0.022,4.18-0.082,8.36-0.185,12.538C2.71,94.2,3.202,102.23,2.91,110.248    c-0.228,6.252-0.897,12.925,0.073,19.144c1.195,7.665,6.368,14.362,12.645,18.679c6.865,4.721,14.276,5.065,22.323,5.405    c8.634,0.364,17.283,0.532,25.924,0.581c16.792,0.094,33.872,0.991,50.628-0.221c4.015-0.29,8.028-0.823,12.052-0.953    c2.743-0.089,5.353-0.266,8.023-1.046c7.21-2.106,13.721-6.918,17.381-13.539C155.429,132.019,155.497,124.816,155.278,117.812z     M149.753,105.207c-0.193,7.103-0.832,14.197-1.328,21.284c-0.434,6.196-3.461,11.726-8.297,15.609    c-5.648,4.535-11.932,5.081-18.849,5.332c-8.224,0.299-16.419,0.129-24.642,0.586c-8.788,0.488-17.628-0.082-26.421-0.236    c-8.702-0.153-17.405-0.067-26.108-0.182c-7.537-0.1-16.221,0.743-23.099-2.845c-6.515-3.398-12.239-9.823-13.082-17.324    c-0.747-6.642-0.279-13.596-0.095-20.262c0.213-7.689,0.612-15.371,0.838-23.059c0.36-12.235,0.171-24.507,0.439-36.794    c0.163-7.463-0.445-15.607,0.97-22.96c1.389-7.221,6.295-13.246,13.199-15.841c3.673-1.381,7.459-1.456,11.326-1.683    c4.465-0.262,8.928-0.507,13.395-0.72c8.623-0.411,17.304-1.087,25.933-0.629c17.055,0.904,34.107,1.791,51.175,2.413    c12.293,0.448,23.378,9.066,23.444,22.043c0.086,16.916,0.27,33.774,0.918,50.678C149.784,88.82,149.976,96.998,149.753,105.207z"/><path d="M127.854,28.903c-2.393-0.687-4.57,0.058-6.85,0.736c-3.208,0.954-6.373,1.969-9.484,3.211    c-7.27,2.904-14.406,6.118-21.661,9.059c-5.864,2.377-12.009,3.986-17.955,6.151c-8.085,2.943-16.087,6.096-24.12,9.175    c-7.553,2.894-15.531,5.5-22.683,9.3c-3.899,2.072-8.902,4.682-6.691,10.146c1.318,3.258,4.5,4.295,7.528,5.404    c4.069,1.49,8.141,2.999,12.277,4.293c2.123,0.664,7.031,1.233,8.453,2.879c0.782,0.904,0.753,2.453,0.989,3.637    c0.433,2.171,0.901,4.336,1.414,6.489c1.648,6.92,4.475,13.484,5.962,20.419c0.986,4.599,6.5,7.235,10.174,3.715    c2.399-2.299,4.803-4.594,7.168-6.93c1.356-1.339,2.644-2.745,3.947-4.136c0.502-0.536,1.011-1.066,1.509-1.607    c1.308-1.423,1.176-1.28,2.712-0.119c6.824,5.164,13.967,9.886,20.8,15.034c5.519,4.158,12.522,2.184,14.285-4.495    c2.167-8.208,4.025-16.494,5.763-24.805c3.503-16.754,7.382-33.425,10.407-50.291C132.777,40.699,135.336,31.051,127.854,28.903z     M55.311,106.144c-0.868-3.553-1.666-7.123-2.475-10.69c-0.336-1.481-0.677-2.961-1.003-4.444    c-0.149-0.678-0.728-1.407-0.434-2.036c0.433-0.923,1.8-0.958,2.692-1.452c6.406-3.556,12.449-7.734,18.58-11.732    c8.051-5.251,16.375-10.021,24.463-15.195c-3.125,3.108-6.256,6.202-9.439,9.25c-2.722,2.606-5.839,4.616-8.723,7.012    c-3.69,3.066-7.218,6.31-10.839,9.458c-1.994,1.733-3.987,3.466-5.981,5.199c-2.12,1.843-2.056,5.721-1.98,8.308    c0.174,5.905-0.889,11.728-1.759,17.567C57.232,113.675,56.236,109.929,55.311,106.144z M69.741,112.723    c-2.139,2.158-4.318,4.276-6.449,6.441c0.958-6.775,1.435-13.598,2.232-20.394c3.302,2.73,6.666,5.388,10.003,8.076    C73.598,108.805,71.676,110.771,69.741,112.723z M128.87,35.678c-0.971,11.079-3.748,22.35-6.219,33.16    c-2.968,12.983-5.464,26.07-8.537,39.027c-0.718,3.028-1.462,6.05-2.209,9.071c-0.491,1.985-0.593,4.251-2.125,5.701    c-1.943,1.838-4.56,0.285-6.336-1.03c-2.787-2.063-5.715-3.885-8.63-5.76c-2.607-1.677-5.149-3.454-7.674-5.254    c-2.508-1.789-4.404-4.214-6.774-6.146c-4.329-3.529-8.89-6.835-13.498-9.989c2.999-2.678,5.994-5.361,9.023-8.005    c1.564-1.365,3.198-2.643,4.729-4.049c2.966-2.723,18.242-17.692,23.282-22.111c2.671-2.342,4.8-4.636,7.219-7.234    c2.722-2.924,0.203-6.77-4.171-4.04c-5.167,3.225-16.197,8.782-24.237,13.947C75.9,67.34,69.08,71.703,62.261,76.067    c-4.631,2.964-9.293,5.875-13.958,8.783c-0.529,0.33-2.905-1.15-3.548-1.416c-2.238-0.928-4.499-1.769-6.773-2.603    c-4.271-1.565-9.385-2.297-13.38-3.787c-2.72-1.014-3.434-3.284-0.854-4.84c4.667-2.815,10.38-4.535,15.418-6.584    c12.033-4.895,24.113-9.749,36.331-14.167c5.659-2.046,11.488-3.451,17.06-5.745c5.696-2.344,11.247-5.025,16.945-7.359    c4.552-1.864,9.093-3.555,13.796-4.996C125.045,32.818,129.152,32.461,128.87,35.678z"/></g></g><g id="Calque_1"/><g id="_x30_16_soundcloud"/><g id="Layer_1"/></svg>