<?xml version="1.0" ?><!DOCTYPE svg  PUBLIC '-//W3C//DTD SVG 1.1//EN'  'http://www.w3.org/Graphics/SVG/1.1/DTD/svg11.dtd'><svg enable-background="new 0 0 156.279 154.878" height="154.878px" id="icons" version="1.1" viewBox="0 0 156.279 154.878" width="156.279px" xml:space="preserve" xmlns="http://www.w3.org/2000/svg" xmlns:xlink="http://www.w3.org/1999/xlink"><g><path d="M149.939,87.188c-0.192-7.789-0.386-15.573-1-23.344c-1.403-17.763-4.829-35.904-16.339-50.054   C121.975,0.729,102.806,4.521,87.003,3.46C73.292,2.539,42.222-1.29,29.34,4.702C8.638,14.333,7.07,34.867,1.668,56.143   C-1.73,69.533,1.001,82.871,1.702,96.421c0.677,13.08,1.876,25.778,10.465,36.282c8.046,9.84,19.97,12.867,32.11,13.825   c13.848,1.094,27.686,2.407,41.536,3.476c12.523,0.965,26.582,0.96,38.449-3.61c13.135-5.058,21.203-16.194,24.288-29.696   C150.772,106.974,150.182,97.057,149.939,87.188z" fill="#556885"/><path d="M113.682,105.793c-6.175,1.892-19.362,7.438-24.695,4.009c-4.936-3.172-6.29-30.604-5.685-38.244   c7.327,0.31,8.663,0.255,15.97-0.358c5.158-0.433,5.168-19.434,0-19c-6.729,0.563-10.482,0.654-17.232,0.424   c0.621-5.253,1.339-10.495,2.06-15.733c0.706-5.126,4.983-10.474-0.495-11.98c-4.489-1.234-19.118-3.21-19.827,1.93   C62.27,37.777,59.202,44.572,52.272,49.2c-4.318,2.883-8.5-1.5-8.5,10.5c0,12.999,1.605,12.842,6.74,13.5   c2.39,0.306,11.426,0.865,11.426,0.868c-1,11.808-1.672,20.907,2.488,32.186c3.348,9.081,9.475,17.392,18.272,21.762   c10.267,5.1,21.721,3.385,31.096-2.779C118.158,122.366,117.404,104.652,113.682,105.793z" fill="#FFFFFF"/><g><path d="M156.261,26.214c-0.023-0.414,0.048-0.827,0.004-1.238c-0.351-3.298-1.425-6.418-2.935-9.275    c-3.041-5.688-7.82-10.503-13.852-13.205c-3.006-1.333-6.274-2.111-9.551-2.266c-2.938-0.134-5.777-0.176-8.643-0.212    c-2.858-0.109-5.715,0.299-8.568,0.592c-1.427,0.137-2.852,0.145-4.278,0.169l-4.286,0.095l-2.16,0.049L99.822,1l-4.228,0.141    c-2.819,0.074-5.64,0.115-8.461,0.125L70.159,1.213c-1.416-0.006-2.876-0.015-4.31,0.017l-4.262,0.096    c-2.843,0.09-5.688,0.063-8.536,0.08c-5.69,0.128-11.438-0.884-17.147-0.651l-4.277,0.135c-0.713,0.018-1.424,0.063-2.136,0.105    c-0.718,0.046-1.38,0.071-2.257,0.153c-3.304,0.319-6.422,1.366-9.255,2.825c-5.642,2.962-10.31,7.6-13.157,13.325    c-1.413,2.86-2.336,5.993-2.641,9.199c-0.164,1.751-0.119,3.053-0.15,4.517l-0.02,4.283l0.04,17.045    c0.021,1.418-0.043,2.836-0.028,4.253c-0.013,1.417,0.082,2.835,0.115,4.252l0.248,8.499l0.081,4.247l-0.011,4.282l0.115,8.605    C2.662,97.875,2.712,109.249,3,120.6c0.031,1.418,0.053,2.836,0.115,4.251l0.077,2.13c0.028,0.776,0.085,1.555,0.162,2.333    c0.33,3.111,1.05,6.252,2.335,9.232c1.269,2.981,3.174,5.761,5.601,7.984c2.444,2.201,5.321,3.88,8.372,4.883    c3.034,1.031,6.239,1.436,9.309,1.414l4.325-0.067l4.269,0.091l17.019,0.248c11.335,0.191,22.65,0.606,33.935,1.308    c11.463,0.662,22.934,0.541,34.332,0.159l4.274-0.082l2.133-0.047c0.758-0.015,1.636-0.071,2.439-0.172    c3.282-0.394,6.401-1.505,9.223-3.04c5.658-3.074,10.188-7.93,12.892-13.846c0.67-1.483,1.216-3.039,1.599-4.656    c0.393-1.614,0.583-3.335,0.625-4.86c0.081-2.935,0.078-5.768,0.077-8.628c-0.052-5.703,0.079-11.386-0.447-17.072    c-0.237-2.842-0.297-5.683-0.338-8.518c-0.042-2.822-0.076-5.655-0.056-8.5c0.087-5.68,0.101-11.363,0.368-17.046    c0.248-5.683,0.494-11.371,0.507-17.066l0.077-8.55c0.043-2.854-0.078-5.712-0.004-8.584l-0.139-4.323v-2.178    C156.08,27.068,156.28,26.624,156.261,26.214z M151.416,119.154c-0.115,2.829-0.235,5.671-0.43,8.461    c-0.085,1.369-0.267,2.641-0.611,3.899c-0.339,1.258-0.809,2.487-1.386,3.667c-1.153,2.362-2.727,4.532-4.573,6.416    c-1.855,1.872-3.923,3.546-6.218,4.798c-2.283,1.259-4.76,2.13-7.275,2.466c-0.64,0.085-1.235,0.131-1.912,0.155l-2.125,0.078    l-4.247,0.145c-5.655,0.188-11.296,0.835-16.948,0.637c-5.65-0.099-11.278-0.783-16.873-1.299    c-5.684-0.509-11.391-0.753-17.086-0.937c-5.696-0.225-11.394-0.251-17.086-0.254l-17.057,0.058    c-2.825,0.004-5.695,0.056-8.429-0.038c-2.566-0.069-5.023-0.552-7.341-1.463c-4.638-1.794-8.393-5.395-10.394-9.96    c-1.02-2.273-1.635-4.762-1.909-7.324c-0.066-0.642-0.117-1.287-0.143-1.936l-0.087-2.126l-0.183-4.262    c-0.495-11.35-1.041-22.694-1.381-34c-0.077-2.817-0.15-5.656-0.129-8.4l0.177-8.505c0.082-5.699,0.122-11.389,0.119-17.074    L7.818,35.327l0.011-4.237c0.02-1.378-0.001-2.91,0.113-4.017c0.228-2.485,0.936-4.93,2.048-7.202    c2.229-4.544,6.055-8.383,10.58-10.762c2.266-1.176,4.719-1.991,7.194-2.236c0.578-0.059,1.323-0.095,2.024-0.14    c0.707-0.043,1.413-0.088,2.12-0.112l4.241-0.162c5.657-0.246,11.313,0.587,16.955,0.316c2.824-0.1,5.655-0.152,8.49-0.348    L65.85,6.18c1.402-0.073,2.777-0.094,4.203-0.125l17.096-0.11c2.854-0.028,5.71-0.087,8.563-0.18l4.281-0.132l2.095-0.062    l2.103-0.021c5.641-0.004,11.317,0.049,16.967,0.228c2.821,0.123,5.655,0.255,8.423,0.468c2.553,0.204,5.033,0.878,7.325,1.98    c4.589,2.192,8.376,6.052,10.677,10.58c1.144,2.267,1.93,4.689,2.31,7.124c0.093,0.632,0.144,1.168,0.186,1.88l0.12,2.088    l0.239,4.202c0.156,2.809,0.294,5.63,0.323,8.456l-0.056,8.486c-0.005,2.831-0.12,5.662-0.065,8.496l0.076,8.503    c0.101,5.672,0.111,11.346,0.105,17.024c0.012,2.834,0.03,5.683,0.083,8.54c0.04,2.845,0.122,5.683,0.383,8.524    C151.877,107.812,151.493,113.486,151.416,119.154z"/><path d="M113.933,106.697c0.044-1-0.034-1.017-0.251-1.435c-0.596-1.149-2.01-1.664-3.159-1.068l-0.478,0.215    c-2.319,1.201-4.592,2.31-6.952,3.1c-1.175,0.4-2.36,0.744-3.567,0.989c-0.598,0.105-1.224,0.253-1.804,0.333    c-0.285,0.055-0.558,0.119-0.928,0.162c-0.173,0.026-0.346,0.042-0.519,0.076c-0.062,0.027-0.275,0.051-0.407,0.078    c-1.207,0.194-2.435,0.244-3.661,0.098c-1.2-0.154-2.452-0.627-3.419-1.275c-0.978-0.657-1.864-1.566-2.444-2.544l-0.186-0.336    l-0.104-0.231l-0.066-0.158c-0.085-0.232-0.143-0.515-0.192-0.814c-0.098-0.601-0.147-1.262-0.183-1.928    c-0.138-2.691-0.012-5.497-0.002-8.271c0.038-2.778,0.045-5.556,0.138-8.334l0.646-14.341l20.844-0.315h0.002l0.008,0.168    c1.052,0.207,2.072-0.394,2.279-1.445l0.196-0.951c0.59-2.991,0.972-5.958,0.986-8.944c-0.015-2.986-0.63-5.951-0.63-8.932v-0.002    l-0.385-0.83l-0.125-0.016c-0.203-1.107-1.327-1.839-2.434-1.635c-0.967,0.178-1.963,0.279-2.93,0.412l-2.914,0.276    c-1.934,0.125-3.875,0.243-5.809,0.299c-1.935,0.007-3.872,0.1-5.807,0.038c-1.317-0.021-2.636-0.072-3.953-0.148l-0.044-1.127    l-0.042-2.902c0.008-1.936,0.006-3.871,0.052-5.806c0.064-1.935,0.082-3.871,0.185-5.807c0.074-1.936,0.198-3.872,0.339-5.808    c0.004-0.059,0.007-0.124,0.006-0.185c-0.009-1.279-1.053-2.308-2.332-2.299l-0.191,0.001l-14.279,0.103    c-1.237,0.007-2.307,0.931-2.464,2.191l-0.002,0.021v0c-0.806,2.888-1.532,5.699-2.441,8.337    c-0.228,0.659-0.455,1.311-0.721,1.939l-0.385,0.906l-0.438,0.963c-0.597,1.242-1.22,2.472-1.932,3.667    c-0.715,1.189-1.545,2.335-2.458,3.404c-0.207,0.246-0.456,0.529-0.74,0.807c-0.201,0.211-0.455,0.45-0.702,0.668    c-0.504,0.446-1.083,0.836-1.676,1.226c-1.203,0.755-2.527,1.398-3.915,1.906c-0.697,0.246-1.405,0.475-2.117,0.693    c-0.729,0.172-1.45,0.372-2.202,0.477v0c-0.921,0.238-1.629,1.046-1.69,2.047l-0.021,0.344c-0.074,1.185-0.089,2.37-0.077,3.555    c-0.018,1.185,0.063,2.369,0.1,3.554c0.021,1.185,0.164,2.369,0.242,3.553c0.144,1.184,0.28,2.368,0.531,3.551    c-0.041,0.944,0.69,1.744,1.635,1.785l0.184,0.008l11.1,0.485c-0.05,3.366-0.058,6.731,0.027,10.096    c0.059,2.077,0.079,4.155,0.169,6.232c0.084,2.077,0.368,4.153,0.554,6.229c0.247,2.076,0.294,4.153,0.273,6.231    c0.012,2.083-0.036,4.129,0.037,6.299c0.084,2.147,0.219,4.321,0.712,6.545c0.494,2.287,1.474,4.509,2.831,6.409    c2.692,3.768,6.43,6.606,10.553,8.513c0.516,0.251,1.011,0.48,1.559,0.714l0.752,0.343l0.776,0.334    c0.999,0.454,2.046,0.9,3.15,1.277c1.105,0.357,2.251,0.713,3.408,0.896c1.155,0.207,2.307,0.27,3.431,0.292    c2.236-0.007,4.428-0.095,6.646-0.369c1.104-0.133,2.208-0.315,3.307-0.526c0.539-0.098,1.128-0.225,1.686-0.364    c0.562-0.138,1.019-0.28,1.533-0.419c1.203-0.346,2.177-0.687,3.24-1.081c1.037-0.392,2.058-0.722,3.051-1.177    c1.967-0.959,3.892-2.019,5.704-3.019h0.018c0.844-1,1.437-1.418,1.437-2.415v-0.012l-0.131-15.574H113.933z M105.053,122.733    c-1.827,0.795-3.749,1.503-5.584,2.038c-3.875,1.094-7.868,1.621-11.93,1.751c-7.888,0.331-16.343-3.137-20.805-9.442    c-1.094-1.549-1.834-3.266-2.175-5.072c-0.382-1.86-0.48-3.85-0.53-5.844c-0.044-1.973,0.024-4.087,0.038-6.159    c0.048-2.078,0.003-4.155-0.193-6.231c-0.147-2.077-0.359-4.153-0.364-6.231c-0.008-2.078,0.065-4.156,0.095-6.234    c0.082-4.156,0.286-8.313,0.651-12.471c-0.01-1.381-1.137-2.492-2.518-2.482l-11.409,0.081c-0.028-0.351-0.059-0.703-0.085-1.054    c-0.021-1.185-0.11-2.369-0.072-3.554c0.024-1.185,0-2.37,0.079-3.555c0.024-0.606,0.058-1.211,0.101-1.817    c2.436-1.027,4.867-2.11,7.19-3.587c0.706-0.443,1.402-0.923,2.079-1.459c0.342-0.272,0.663-0.545,1.005-0.862    c0.274-0.258,0.56-0.533,0.871-0.844c1.168-1.18,2.221-2.442,3.188-3.771c1.912-2.66,3.461-5.586,4.585-8.659    c0.282-0.765,0.526-1.538,0.76-2.313c0.259-0.769,0.481-1.545,0.699-2.323c0.245-0.939,0.479-1.883,0.716-2.825    c0.524-0.071,1.049-0.133,1.573-0.181c1.189-0.136,2.379-0.202,3.568-0.223c1.19-0.043,2.38-0.016,3.57,0.065    c0.402,0.031,0.803,0.088,1.205,0.14c0.1,1.253,0.208,2.507,0.274,3.761c0.13,1.934,0.195,3.869,0.287,5.804    c0.073,1.935,0.156,3.87,0.156,5.805v2.903l-0.09,2.903c-0.025,1.02,0.771,1.868,1.792,1.894l0.117,0.003h-0.001    c1.936,0.296,3.87,0.467,5.806,0.604c1.936,0.171,3.87,0.175,5.805,0.27c1.936,0.06,3.868,0.053,5.803-0.014l2.9-0.144    c0.288-0.028,0.575-0.052,0.863-0.076c0.286,2.084,0.382,4.17,0.392,6.257c-0.012,2.236-0.092,4.474-0.379,6.712    c-0.262,0.025-0.523,0.055-0.785,0.073c-0.966,0.097-1.934,0.122-2.9,0.149c-1.934,0.088-3.868,0.012-5.803,0.026    c-1.934,0.009-3.869-0.039-5.804-0.095c-1.935-0.026-3.87-0.165-5.805-0.253c-1.298-0.058-2.616,0.942-2.683,2.241l-0.228,0.277    v0.003c1,2.776,0.68,5.552,0.746,8.33c0.021,1.389,0.192,2.777,0.183,4.166c-0.014,1.389-0.13,2.779-0.255,4.169    c-0.245,2.779-0.128,5.557-0.182,8.335c0.006,2.783-0.128,5.51,0.069,8.458c0.05,0.746,0.117,1.507,0.264,2.365    c0.075,0.429,0.181,0.891,0.355,1.413l0.074,0.202l0.086,0.21l0.109,0.252c0.119,0.258,0.249,0.521,0.359,0.71    c0.943,1.638,2.137,2.867,3.577,3.896c0.35,0.243,0.774,0.518,1.117,0.687c0.259,0.134,0.769,0.388,1.11,0.527    c0.76,0.319,1.55,0.563,2.348,0.725c1.602,0.315,3.204,0.375,4.743,0.262l1.129-0.104c0.33-0.024,0.726-0.077,1.11-0.122    c0.767-0.064,1.484-0.196,2.227-0.296c1.471-0.23,2.915-0.588,4.335-1.011c1.493-0.437,2.944-0.983,4.374-1.589l0.076,10.482    C107.723,121.471,106.4,122.133,105.053,122.733z"/></g></g></svg>