<?xml version="1.0" ?><!DOCTYPE svg  PUBLIC '-//W3C//DTD SVG 1.1//EN'  'http://www.w3.org/Graphics/SVG/1.1/DTD/svg11.dtd'><svg enable-background="new 0 0 158.52 155.031" height="155.031px" id="icons" version="1.1" viewBox="0 0 158.52 155.031" width="158.52px" xml:space="preserve" xmlns="http://www.w3.org/2000/svg" xmlns:xlink="http://www.w3.org/1999/xlink"><g><path d="M144.047,21.861C131.705,1.977,113.726,5.269,81.394,5.269c-20.899,0-45.45-2.716-61.07,12.96   C6.851,31.749,8.821,49.558,7.723,67.923c-1.25,20.913-0.692,49.828,10.999,61.31c13.607,13.365,23.609,15.821,46.869,16.314   c10.493,0.224,57.828-0.757,66.681-5.003c21.536-10.332,16.469-39.972,16.469-61.361C148.741,49.751,151.278,33.512,144.047,21.861   z" fill="#6441A4"/><path clip-rule="evenodd" d="M78.547,53.516c1.713,6.932,1.256,22.587-2,27.222   c-1.118,1.591-6.792,1.871-7.322,0c-1.633-5.767-1.442-19.123,1-26.222C70.858,52.677,78.081,51.628,78.547,53.516z" fill="#FFFFFF" fill-rule="evenodd"/><path clip-rule="evenodd" d="M101.547,54.516c3.256,4.635,1.256,20.587-2,25.222   c-1.118,1.591-5.204,1.591-6.322,0c-3.256-4.635-2.069-15.957-1-24.222C92.475,53.587,100.43,52.925,101.547,54.516z" fill="#FFFFFF" fill-rule="evenodd"/><path clip-rule="evenodd" d="M37.01,28.266l-6.75,17.25c0,0-2,8.624-2,29.625   c0,13.636-1,23.5-1,31.568c0,3.229,1.875,8.24,9.666,8.24c11.063,0,15.23,0,15.23,0c0,3.999-0.667,12,2.413,14.248   c3.711,2.708,10.073,0.861,13.191-0.43c4.165-1.725,12.75-12.75,12.75-12.75h19.5l24.25-26.25c0,0,0-45.651-1.271-62.5   L37.01,28.266z M118.26,84.266l-15,15h-24l-12.75,12.75v-12.75H46.26v-63h72V84.266z" fill="#FFFFFF" fill-rule="evenodd"/><path d="M150.396,67.751C150.393,67.533,150.395,67.87,150.396,67.751L150.396,67.751z"/><path d="M156.03,51.857c-0.08-8.397,0.119-16.834-0.384-25.221c-0.462-7.698-4.952-14.827-10.998-19.434   c-3.134-2.388-6.745-4.213-10.612-5.038c-4.027-0.859-8.35-0.593-12.446-0.609c-8.911-0.034-17.8,0.092-26.71-0.194   c-8.913-0.285-17.833-0.607-26.753-0.461c-8.963,0.147-17.92,0.327-26.88,0.616c-8.532,0.275-17.48-0.048-25.101,4.337   C9.492,9.683,4.353,16.085,2.678,23.632c-0.684,3.084-0.669,6.294-0.79,9.434c-0.172,4.464-0.245,8.93-0.282,13.397   C1.482,61.546,1.496,76.641,1.78,91.722c0.066,3.529,0.224,7.03,0.545,10.548c0.42,4.601,0.9,9.178,0.993,13.8   c0.069,3.423,0.073,6.848,0.092,10.271c0.036,6.387,1.772,12.297,5.965,17.251c5.162,6.099,12.78,9.798,20.757,10.075   c17.814,0.619,35.695-0.045,53.517,0.036c9.042,0.041,18.083,0.002,27.125-0.056c4.364-0.028,8.731-0.039,13.094-0.156   c4.069-0.109,8.108-0.084,12.091-1.055c8.035-1.957,14.489-7.503,17.475-15.237c1.524-3.948,1.808-7.954,1.94-12.134   c0.141-4.481,0.219-8.961,0.289-13.444c0.13-8.345,0.086-16.699,0.115-25.044c0.022-6.281,0.273-12.563,0.408-18.842   C156.186,62.443,156.08,57.149,156.03,51.857z M150.569,99.074c-0.305,6.271-0.709,12.531-1.096,18.798   c-0.31,5.672-0.103,11.941-2.519,17.204c-3.418,7.446-10.804,11.373-18.744,11.865c-8.632,0.536-17.363,0.166-26.008,0.138   c-4.439-0.014-8.885-0.112-13.323-0.015c-4.527,0.099-9.038,0.592-13.562,0.708c-9.116,0.234-18.216,0.323-27.334,0.175   c-4.587-0.075-9.172-0.152-13.757-0.311c-3.848-0.174-7.444-0.344-11.027-1.914c-6.496-2.847-11.761-8.865-13.412-15.807   c-0.441-1.749-0.496-3.624-0.665-5.412c-0.378-3.995-0.802-7.985-1.131-11.984c-0.494-6.004-1.114-12.043-1.068-18.074   c0.079-10.26,0.478-20.51,0.579-30.769c0.07-7.022,0.222-14.041,0.271-21.063c0.031-4.455,0.154-8.907,0.272-13.36   c0.096-2.974,0.469-5.828,1.65-8.593c3.065-7.174,9.981-12.862,17.795-13.801c8.94-1.074,18.104-1.14,27.098-1.358   c8.968-0.217,17.895,0.417,26.851,0.729c8.989,0.314,17.984,0.414,26.978,0.456c4.185,0.019,8.371,0.026,12.556,0.043   c4.08,0.081,8.533-0.228,12.502,0.84c7.386,1.987,13.504,8.289,15.744,15.531c2.423,7.834,1.344,16.42,1.118,24.469   c-0.188,6.725-0.033,13.457,0.058,20.183c-0.04,4.305-0.134,8.614-0.085,12.919c0.036,3.139,0.223,6.241,0.436,9.371   C150.953,93.058,150.716,96.057,150.569,99.074z"/><path d="M129.154,26.504c-0.322-0.8-1.102-1.28-1.951-1.281l-1.86-0.003c-3.217-0.005-6.435-0.01-9.652-0.014   c-12.12-0.018-24.241-0.052-36.361-0.048c-13.773,0.005-27.546,0.009-41.319,0.014c-2.003,0.003-2.603,2.885-3.214,4.34   c-0.564,1.343-1.107,2.694-1.652,4.045c-1.154,2.862-2.331,5.715-3.447,8.592c-1.396,3.595-0.705,7.914-0.655,11.73   c0.151,11.557,0.269,23.14,0.101,34.699c-0.016,3.417,0.394,6.796,0.328,10.207c-0.055,2.841-0.126,5.68-0.235,8.52   c-0.092,2.404-0.082,4.811-0.098,7.217c-0.011,1.79,1.058,2.613,2.748,2.623c7.134,0.039,14.265,0.055,21.398-0.021   c0.099,1.29,0.238,2.575,0.38,3.865c0.19,1.727,0.336,3.445,0.345,5.184c0.007,1.256-0.217,2.843,1.476,2.843   c1.569,0,3.135,0,4.703,0.039c1.417,0.035,2.833,0.074,4.249,0.115c1.106,0.032,2.212,0.064,3.318,0.096   c0.681,0.02,1.473,0.158,2.019-0.357c2.363-1.704,4.46-4.274,6.512-6.333c1.967-1.974,3.936-3.947,5.903-5.921   c2.884-0.004,5.767-0.009,8.651-0.013c3.362-0.005,6.723-0.01,10.085-0.015c1.576-0.002,3.391-2.649,4.363-3.624l18.01-18.063   c1.663-1.668,3.326-3.336,4.989-5.003c0.833-0.836,0.525-2.292,0.531-3.366c0.012-2.197,0.04-4.393,0.079-6.589   c0.049-2.781,0.119-5.562,0.185-8.343c0.143-5.98,0.171-11.958,0.191-17.941c0.023-6.98,0.031-13.96,0.069-20.939   c0.007-1.281,0.014-2.563-0.003-3.844C129.33,28.155,129.446,27.229,129.154,26.504z M125.753,71.819   c-0.121,5.325-0.991,10.578-1.028,15.903c-8.249,8.384-16.429,16.83-24.575,25.314c-6.098,0.129-12.194,0.237-18.293,0.313   c-1.357,0.017-2.05,1.031-2.932,1.934c-1.444,1.478-2.888,2.955-4.332,4.432c-1.282,1.312-2.885,2.075-4.22,3.287   c-0.879,0.784-1.711,1.627-2.548,2.461c-3.466-0.053-6.944,0.03-10.413,0.095c-0.027-3.145-0.036-6.29-0.051-9.435   c-0.009-1.763-0.432-3.195-2.435-3.205c-2.475-0.012-4.949-0.025-7.424-0.038c-4.673-0.024-9.345-0.047-14.018-0.071   c0.041-9.546,0.045-19.094,0.169-28.639c0.144-7.178-0.628-14.294-0.68-21.46c-0.043-5.936,0.111-11.883,0.163-17.819   c2.091-5.169,4.183-10.339,6.274-15.508c7.025,0.167,14.042,0.218,21.067,0.163l5.351-0.042c3.946-0.031,7.839-0.729,11.785-0.72   c6.84,0.016,13.705,0.475,20.55,0.623c9.202,0.2,18.408,0.151,27.593-0.427c0.25,4.452-0.024,9.03-0.038,13.462   c-0.02,6.055-0.039,12.111-0.058,18.166C125.649,64.342,125.838,68.09,125.753,71.819z"/><path d="M77.07,55.689C76.3,55.675,77.072,56.057,77.07,55.689L77.07,55.689z"/><path d="M81.48,53.516c0.074-1.958-1.713-2.234-3.191-2.192c-1.673,0.048-3.346,0.096-5.018,0.143   c-1.019,0.029-2.096-0.04-3.108,0.089c-1.755,0.051-1.876,1.713-1.837,3.053c0.053,1.821,0.133,3.641,0.121,5.463   c0.006,2.376,0.156,4.728,0.217,7.102c0.077,2.961-0.389,5.934-0.708,8.873c-0.149,1.374-0.522,3.115-0.117,4.459   c0.472,1.567,1.917,1.779,3.322,1.75c2.565-0.052,5.085-0.63,7.65-0.702c2.236-0.062,2.217-1.594,2.289-3.455   c0.042-1.096,0.166-2.187,0.274-3.278c0.233-2.371,0.345-4.721,0.354-7.102C81.746,62.978,81.279,58.264,81.48,53.516z    M81.461,53.962C81.46,53.989,81.459,53.997,81.461,53.962L81.461,53.962z M72.037,77.944c-0.041-2.133-0.083-4.267-0.121-6.4   c-0.06-3.333-0.35-6.714-0.057-10.04c0.174-1.981,0.24-3.963,0.307-5.947c1.635,0.053,3.269,0.103,4.905,0.132   c0.017,3.647-0.127,7.279-0.261,10.923c-0.14,3.79,0.243,7.563,0.524,11.338C75.568,77.966,73.802,77.963,72.037,77.944z"/><path d="M100.509,51.949l-5.877-0.185c-0.925-0.029-1.839,0.27-2.084,1.291c-0.437,1.821-0.149,4.057-0.18,5.923   c-0.031,1.9,0.015,3.801,0.038,5.701c0.034,2.835,0.094,5.67-0.074,8.503c-0.102,2.222-0.787,4.727-0.407,6.936   c0.288,1.673,1.797,2.02,3.236,1.984c2.57-0.065,5.088-0.594,7.65-0.741c1.802-0.104,2.034-1.011,2.02-2.716   c-0.01-1.188,0.012-2.366,0.07-3.552c0.353-7.195,0.012-14.38-0.159-21.578C104.689,51.559,101.779,51.989,100.509,51.949z    M96.365,77.285c-0.237-2.273-0.527-4.534-0.482-6.835c0.036-1.828,0.244-3.645,0.426-5.463c0.33-3.308,0.201-6.426,0.007-9.674   c1.588-0.092,3.18-0.141,4.767-0.216c-0.776,3.52-0.489,7.411-0.333,10.982c0.095,2.164,0.141,4.319,0.151,6.483   c0.007,1.582-0.006,3.163-0.015,4.744C99.381,77.27,97.867,77.237,96.365,77.285z"/><path d="M120.084,35.171c-0.974-1.629-3.749-1.029-5.324-0.993c-0.861,0.02-1.723,0.054-2.584,0.081   c-1.296,0.04-2.592,0.08-3.888,0.119c-8.856,0.271-17.701,0.503-26.563,0.399c-6.116-0.072-12.234-0.107-18.349-0.221   c-4.011-0.075-8.022-0.15-12.032-0.226c-1.549-0.029-3.099-0.058-4.648-0.087c-2.978-0.056-2.493,3.004-2.526,5.172   c-0.225,14.742-0.287,29.514-0.204,44.257c0.021,3.698,0.042,7.395,0.062,11.092c0.013,2.33-0.837,6.725,2.624,6.706   c5.923-0.033,11.845-0.067,17.768-0.1c0.002,2.309,0.001,4.618,0.026,6.926c0.014,1.258,0.062,2.517,0.096,3.774   c0.034,1.221,1.151,2.168,2.37,1.898c0.633-0.14,1.021-0.593,1.441-1.036c3.753-3.957,7.545-7.723,11.706-11.229   c4.233,0.331,8.599,0.051,12.838,0.031c2.182-0.01,4.364-0.009,6.545-0.025c1.429-0.01,3.415,0.342,4.768-0.239   c1.159-0.498,2.165-1.984,3.008-2.856c4.163-4.305,8.275-8.651,12.378-13.014l0.088-0.093c0.968-1.036,0.37-3.354,0.359-4.663   c-0.012-1.461-0.024-2.922-0.034-4.383c-0.022-3.08,0-6.151,0.049-9.231c0.099-6.319,0.207-12.638,0.316-18.957   c0.047-2.69,0.047-5.378,0.03-8.068C120.395,38.822,120.844,36.444,120.084,35.171z M102.399,97.121   c-7.349-0.082-14.7-0.125-22.048-0.271c-1.903-0.038-2.594,0.461-3.899,1.733c-0.839,0.818-1.664,1.649-2.493,2.477   c-1.063,1.061-2.095,2.145-3.113,3.249c-0.817,0.886-1.635,1.772-2.452,2.658c-0.01-1.504-0.015-3.009-0.006-4.513   c0.007-1.152,0.204-2.477-0.044-3.611c-0.479-2.188-4.476-1.418-6.045-1.397c-4.818,0.065-9.636,0.13-14.454,0.195   c-0.052-4.544-0.105-9.088-0.157-13.633c-0.089-7.677,0.011-15.36,0.035-23.037c0.024-7.605,0.482-15.19,0.484-22.794   c5.352-0.071,10.701-0.158,16.052-0.277c9-0.2,17.998-0.359,27-0.331c8.363,0.017,16.72,0.458,25.082,0.564   c-0.154,15.094-0.523,30.273,0.012,45.355C111.702,88.032,107.05,92.576,102.399,97.121z"/></g></svg>