<?xml version="1.0" ?><!DOCTYPE svg  PUBLIC '-//W3C//DTD SVG 1.1//EN'  'http://www.w3.org/Graphics/SVG/1.1/DTD/svg11.dtd'><svg enable-background="new 0 0 158.52 155.031" height="155.031px" id="icons" version="1.1" viewBox="0 0 158.52 155.031" width="158.52px" xml:space="preserve" xmlns="http://www.w3.org/2000/svg" xmlns:xlink="http://www.w3.org/1999/xlink"><g><path d="M148.491,45.725c-1.373-17.564-7.056-25.573-19.051-31.761c-16.442-8.483-72.198-5.959-90.718-4.237   C15.72,11.865,8.407,29.075,8.407,50.892c0,13.651,1.051,43.411,1.051,56.826c0,28.465,15.771,34.598,27.646,35.546   c13.545,1.082,62.156,5.476,84.33,2.885c15.805-1.847,25.614-14.026,25.546-31.216C146.859,84.138,149.092,53.408,148.491,45.725z" fill="#7B519D"/><path d="M156.969,81.142c-2.144-8.173-1.336-17.305-0.68-25.654c0.622-7.905,0.463-15.82,0.081-23.737   c-0.658-13.608-11.356-26.616-25.395-27.836c-16.847-1.464-33.76-1.313-50.655-1.102c-2.352,0.029-4.512,0.08-6.849-0.325   c-1.896-0.329-3.805-0.72-5.74-0.668c-4.083,0.11-8.18,0.032-12.268,0.087C46.78,2.024,38.066,2.059,29.392,2.483   C14.381,3.217,3.47,15.037,2.722,29.731C1.88,46.265,2.865,62.785,2.575,79.32c-0.15,8.572,0.661,17.086,0.983,25.642   c0.293,7.786-0.238,15.601,0.224,23.384c0.765,12.905,12.038,24.493,24.969,25.408c0.027,0.002,0.054,0.003,0.081,0.005   c14.203,0.571,28.422,0.517,42.635,0.591c2.493,0.013,4.985,0.026,7.478,0.039c2.087,0.019,3.912-0.613,5.955-0.815   c4.124-0.538,8.546,0.297,12.674,0.522c8.256,0.451,16.544,0.642,24.811,0.82c7.392,0.159,14.1-0.148,20.828-3.667   c7.394-3.867,10.696-11.282,11.528-19.291c0.433-4.168,1.287-8.276,1.676-12.435c0.387-4.128,0.301-8.305,0.371-12.448   c0.078-4.621-0.03-9.268,0.191-13.885C157.174,89.134,158.022,85.155,156.969,81.142z M151.142,72.222   c-0.244,17.148-0.472,34.3-1.019,51.439c-0.249,7.789-0.626,16.515-7.937,21.237c-5.478,3.538-11.51,4.197-17.833,4.146   c-16.909-0.135-33.815-0.562-50.722-0.781c-14.845-0.193-29.689,0.056-44.531-0.328c-9.596-0.639-18.63-9.734-19.577-19.53   C8.483,117.67,8.9,106.376,8.888,95.518c-0.007-6.562,0-13.124-0.03-19.686C8.757,69.663,8.165,63.52,8.032,57.377   C7.88,50.316,8.336,43.265,8.5,36.208c0.114-4.903-0.038-10.145,1.986-14.718c3.229-7.296,10.225-12.124,18.05-13.155   c8.686-1.145,17.15-1.689,25.922-1.415c18.089,0.365,36.203,0.054,54.284,0.656c4.741,0.158,9.48,0.403,14.209,0.782   c3.777,0.303,7.773,0.386,11.398,1.585c6.7,2.217,12.207,7.713,14.792,14.236c2.568,6.479,1.746,14.24,1.91,21.053   C151.185,54.225,151.271,63.227,151.142,72.222z"/><path d="M97.683,94.018c-4.014-0.218-6.188,2.51-8.025,5.217c-3.474,5.113-7.877,5.142-12.789,2.957   c-4.942-2.199-9.267-5.02-12.834-8.587c-3.567-3.567-6.388-7.891-8.587-12.834c-2.185-4.912-2.157-9.315,2.957-12.789   c2.707-1.837,5.435-4.011,5.217-8.025c-0.285-5.234-12.994-22.727-18.012-24.573c-2.077-0.764-4.145-0.715-6.258-0.004   c-11.768,3.957-16.642,13.636-11.974,25.095C34.1,76.978,43.144,91.203,54.79,102.849c11.646,11.646,25.871,20.69,42.375,27.413   c11.46,4.668,21.138-0.206,25.095-11.974c0.71-2.113,0.76-4.181-0.004-6.258C120.41,107.011,102.917,94.303,97.683,94.018z" fill="#FFFFFF"/><path d="M123.073,107.935c-1.091-3.652-4.687-6.237-7.529-8.477c-5.11-3.97-11.199-10.053-17.938-10.825   c-3.333,0.017-5.998,1.334-8.116,3.929c-1.739,2.207-3.284,4.884-6.443,4.982c-5.859,0.183-12.063-5.07-16.168-8.744   c-3.505-3.682-7.249-8.845-8.626-14.055c-0.906-3.536,0.92-5.859,3.692-7.805c2.839-1.933,4.776-4.699,4.691-8.224   c-0.078-3.231-2.489-6.566-4.059-9.18c-3.611-6.008-7.778-12.652-13.898-16.324c-2.092-1.255-5.235-0.733-7.435-0.051   c-5.701,1.768-10.924,5.877-12.933,11.628c-2.297,6.578,0.145,12.858,2.646,18.937c1.823,4.431,3.898,8.904,6.422,12.971   c7.165,11.548,16.207,21.987,26.32,31.039c10.248,9.085,23.297,17.6,36.837,20.567c8.062,0.996,15.344-1.286,19.864-8.432   C122.411,116.692,124.56,111.762,123.073,107.935z M118.461,112.922c-1.403,4.083-3.45,8.11-7.291,10.407   c-4.88,2.918-10.353,1.775-15.223-0.436c-7.288-3.311-15.286-6.847-21.544-11.883c-7.497-6.033-15.016-12.2-21.312-19.519   c-5.538-6.438-10.034-13.616-14.323-20.923c-2.912-4.96-6.839-10.483-8.02-16.143C29.31,46.725,34.35,39.992,41.55,37.605   c1.938-0.762,3.583-0.986,5.693-0.383c0.433,0.124,2.915,2.246,3.759,3.106c2.737,2.787,5.226,5.9,7.63,8.976   c1.985,2.54,4.359,6.257,4.696,8.982c-0.148,2.767-2.215,4.315-4.321,5.789c-3.373,2.361-5.483,5.771-4.993,9.998   c0.746,6.437,5.417,13.219,10.135,17.458c4.597,4.13,11.844,9.354,18.2,9.767c3.876,0.252,6.844-1.853,9.052-4.852   c1.687-2.291,3.255-3.915,6.173-3.983c0.596,0.299,2.967,1.065,4.117,1.71c2.652,1.485,5.147,3.298,7.533,5.175   c3.171,2.494,7.715,5.583,9.346,9.425c-0.25-0.591,0.249,1.667,0.278,1.889C118.751,111.453,118.649,112.145,118.461,112.922z"/><path d="M80.79,32.846c-0.693-0.693-1.086-1.674-0.994-2.727c0.163-1.891,1.829-3.29,3.719-3.126   c24.36,2.106,44.301,21.825,46.387,45.861c0.163,1.891-1.236,3.556-3.126,3.72c-1.89,0.164-3.556-1.236-3.72-3.126   c-1.799-20.756-19.052-37.782-40.133-39.609C82.084,33.765,81.342,33.397,80.79,32.846z" fill="#FFFFFF"/><path d="M79.519,48.498c-0.693-0.693-1.087-1.675-0.995-2.728c0.164-1.89,1.83-3.29,3.72-3.126   c17.332,1.502,31.513,15.457,32.987,32.462c0.163,1.891-1.236,3.556-3.126,3.72s-3.554-1.236-3.72-3.126   C107.195,61.973,95.701,50.707,81.65,49.49C80.813,49.417,80.071,49.049,79.519,48.498z" fill="#FFFFFF"/><path d="M78.248,62.186c-0.693-0.693-1.086-1.676-0.995-2.728c0.164-1.89,1.83-3.29,3.72-3.126   c10.132,0.879,18.736,9.251,19.588,19.063c0.163,1.891-1.236,3.556-3.126,3.72c-1.891,0.163-3.555-1.236-3.72-3.126   c-0.571-6.584-6.425-12.212-13.335-12.81C79.542,63.105,78.8,62.738,78.248,62.186z" fill="#FFFFFF"/><path d="M129.736,57.443c-5.712-13.333-16.881-25.104-30.256-30.867c-4.356-1.877-10.274-3.311-15.037-3.17   c-4.519,0.107-6.893,5.081-4.027,8.571c0.963,1.058,2.21,1.543,3.578,1.799c3.26,0.611,6.471,1.55,9.759,1.996   c2.871,0.389,6.196,2.593,8.639,4.135c2.851,1.799,5.573,3.715,7.834,6.255c5.526,6.21,9.934,13.51,11.227,21.854   c0.546,3.253,0.256,6.664,3.916,8.27c3.838,1.663,7.637-1.686,7.538-5.611C132.72,66.183,131.239,61.611,129.736,57.443z    M127.763,73.352c-2.984,0.257-2.618-3.908-2.899-5.795c-1.003-6.741-3.823-13.855-8.089-19.196   c-2.32-2.905-4.517-6.252-7.503-8.53c-2.756-2.103-5.772-3.597-8.92-5.014c-4.942-2.566-11.219-3.998-16.149-4.645   c-0.515-0.035-0.784-0.282-1.199-0.523c-0.112-0.047-0.489-1.198-0.401-1.223c0.081-0.876,0.854-1.507,1.73-1.487   c10.259,0.233,21.543,5.67,29.439,12.371c8.889,7.701,14.073,20.182,15.769,31.66C129.583,71.824,128.61,73.314,127.763,73.352z"/><path d="M117.275,71.181c-1.247-10.316-8.257-20.964-16.907-26.765c-5.302-3.556-11.974-6.099-18.43-6.19   c-4.301-0.032-6.247,5.202-3.482,8.184c1.216,1.289,2.685,1.481,4.333,1.731c3.639,0.552,7.117,1.841,10.282,3.718   c6.142,3.64,10.764,9.649,12.795,16.465c0.887,4.033,1.183,10.294,7.019,9.362C116.116,77.17,117.633,74.137,117.275,71.181z    M111.952,74.202c-2.648,0.379-2.542-5.371-3.137-7.598c-1.242-4.65-3.381-8.927-6.724-12.429   c-5.579-5.7-12.667-7.851-20.323-8.974c0.309,0.041-1.393-0.229-1.283-0.615c-0.2-0.114-0.341-0.993,0.091-1.583   c-0.006,0.042,0.476-0.916,1.443-0.943c10.907,1.655,20.475,6.551,26.35,16.223C109.032,59.378,116.091,73.61,111.952,74.202z"/><path d="M86.886,53.374c-3.419-1.152-8.49-1.142-9.985,2.928c-0.736,1.908,0.288,3.304,0.97,5.019   c0.491,1.236,2.839,1.588,3.91,1.743c2.322,0.268,4.595,1.364,6.393,2.829c2.011,1.639,3.614,3.91,4.263,6.444   c0.465,1.815,0.116,3.688,1.471,5.17c3.633,3.976,9.952,0.876,9.674-4.3C103.097,64.17,95.074,56.133,86.886,53.374z M96.584,74.4   c-1.111-2.968-1.203-5.653-3.229-8.329c-1.857-2.452-4.437-4.425-7.316-5.521c-1.67-0.635-4.222-0.531-5.596-1.535   c0.042,0.029-0.395-0.787-0.282-1.353c-0.009,0.062-0.017,0.123-0.025,0.185c0.163-4.481,9.694,0.74,11.103,1.711   c4.507,3.109,9.043,8.584,8.969,14.385C100.181,76.052,97.312,76.343,96.584,74.4z"/></g></svg>