<?xml version="1.0" ?><!DOCTYPE svg  PUBLIC '-//W3C//DTD SVG 1.1//EN'  'http://www.w3.org/Graphics/SVG/1.1/DTD/svg11.dtd'><svg enable-background="new 0 0 158.52 155.031" height="155.031px" id="icons" version="1.1" viewBox="0 0 158.52 155.031" width="158.52px" xml:space="preserve" xmlns="http://www.w3.org/2000/svg" xmlns:xlink="http://www.w3.org/1999/xlink"><g><path d="M149.004,45.489c-1.383-17.691-2.709-21.215-10.123-27.961C126.532,6.291,116.604,9.231,97.87,9.231   c-31.469,0-56.962-2.753-69.654,3.214C7.82,22.037,5.897,35.769,5.897,57.743c0,13.749-0.937,26.601-0.956,40.113   c-0.061,44.759,29.986,48.947,41.946,49.902c13.643,1.089,59.581,1.487,81.915-1.123c15.919-1.86,20.694-17.655,20.694-31.441   C149.497,103.109,149.609,53.227,149.004,45.489z" fill="#25D366"/><path d="M156.175,102.16c-0.117-8.294-0.106-16.599-0.461-24.887c-0.633-14.781,0.182-29.54,0.252-44.325   c0.064-13.614-9.237-26.579-22.714-29.785c-13.429-3.082-27.906-2.394-41.557-1.853C73.788,2.018,55.857,1.022,37.956,1.667   c-8.226,0.297-16.125,1.004-22.929,6.08C8.493,12.622,3.496,17.935,2.789,26.46c-0.491,8.142-0.57,16.144-0.26,24.295   c0.248,6.52,0.521,12.976,0.253,19.499c-0.355,8.648-0.701,17.289-0.809,25.944c-0.056,4.545,0.834,8.973,0.99,13.501   c0.144,4.186,0.16,8.376,0.254,12.563c0.192,8.619,1.446,15.976,7.544,22.501c4.722,5.053,11.193,8.557,18.162,8.956   c14.252,0.349,28.51-0.965,42.767-1.02c16.726,0.029,33.399,0.836,50.127,0.671c8.145-0.081,16.017-0.673,22.74-5.791   c5.908-4.445,10.119-11.854,11.142-19.156C156.903,119.842,156.297,110.797,156.175,102.16z M152.196,117.97   c-0.498,7.89-0.788,16.164-6.62,22.174c-5.415,5.581-12.405,7.676-19.951,7.93c-17.591,0.592-35.247,0.251-52.84-0.031   c-14.544-0.234-29.039,0.965-43.57,0.787c-10.23-0.53-20.507-10.199-20.884-20.835c-0.732-12.44-0.389-24.976-0.431-37.433   C7.861,78.999,8.08,67.419,7.746,55.866c-0.195-6.718-0.596-13.46-0.307-20.18C7.697,29.668,7.663,23.6,10.891,18.29   c4.133-6.797,11.383-10.687,19.262-10.888c8.969-0.229,17.939-0.379,26.909-0.536c9.093-0.16,18.193-0.258,27.281-0.621   c8.773-0.351,17.551-1.04,26.335-0.884c4.597,0.082,9.16,0.353,13.738,0.772c3.599,0.329,7.308,0.597,10.717,1.88   c6.526,2.455,11.926,7.848,14.538,14.298c2.36,5.827,1.645,11.846,1.221,17.937c-0.626,8.993-0.867,17.943-0.747,26.958   c0.112,8.43,0.701,16.857,0.9,25.289C151.285,101.022,152.736,109.411,152.196,117.97z"/><path d="M118.491,38.054c-10.409-10.421-24.252-16.163-39-16.169c-30.388,0-55.12,24.731-55.132,55.128   c-0.004,9.717,2.535,19.201,7.359,27.562l-7.821,28.569l29.226-7.667c8.053,4.392,17.119,6.707,26.346,6.711   c30.408,0,55.142-24.733,55.155-55.131C134.629,62.327,128.9,48.475,118.491,38.054z M79.491,122.878   c-8.241-0.003-16.306-2.212-23.342-6.387l-1.673-0.993l-17.343,4.55l4.629-16.91l-1.09-1.734   c-4.587-7.296-7.01-15.728-7.006-24.387c0.01-25.265,20.567-45.82,45.843-45.82c12.24,0.004,23.745,4.777,32.397,13.439   c8.652,8.661,13.413,20.174,13.409,32.419C125.305,102.321,104.748,122.878,79.491,122.878z" fill="#FFFFFF"/><path d="M106.088,89.199c-1.458-0.73-8.624-4.255-9.96-4.742c-1.336-0.486-2.308-0.729-3.28,0.729   c-0.972,1.459-3.765,3.724-4.616,4.697c-0.85,0.972-1.7,1.095-3.158,0.365c-1.458-0.73-4.117-1.25-9.685-6.216   c-4.333-3.865-7.259-8.638-8.109-10.098c-0.85-1.459,0.06-4.677,0.789-5.528c0.729-0.851,0.972-1.459,1.458-2.432   c0.486-0.973,0.243-1.824-0.122-2.554c-0.364-0.73-3.279-7.904-4.494-10.823c-1.183-2.842-2.385-2.457-3.28-2.502   c-0.849-0.042-1.822-0.051-2.794-0.051c-0.972,0-2.551,0.365-3.887,1.824c-1.336,1.459-5.102,4.986-5.102,12.16   c0,7.175,5.223,14.106,5.952,15.079c0.729,0.973,10.278,15.696,24.9,22.01c3.478,1.502,6.193,2.399,8.31,3.07   c3.492,1.11,6.669,0.953,9.181,0.578c2.801-0.418,8.624-3.526,9.839-6.931c1.214-3.405,1.214-6.324,0.85-6.932   C108.518,90.294,107.546,89.929,106.088,89.199z" fill="#FFFFFF"/><path d="M138.306,60.524c-0.81-3.658-3.032-7.088-4.657-10.448c-1.007-2.081-2.172-4.049-3.349-6.035   c-2.174-3.67-4.978-6.846-7.784-10.031c-9.406-8.74-20.136-15.082-33.038-16.495c-18.252-2-38.271,2.502-50.219,17.413   c-6.457,8.058-11.244,16.805-13.794,26.813c-3.549,13.932-1.508,28.691,4.689,41.542c-1.26,5.022-2.253,10.116-3.317,15.182   l-1.85,8.804c-0.088,0.419-0.372,1.241-0.615,2.133c-0.354,1.303-0.61,2.718-0.074,3.293c1.124,1.207,6.996-1.021,8.478-1.389   c0.979-0.234,1.958-0.47,2.937-0.705c1.784-0.428,3.567-0.858,5.352-1.281c4.462-1.058,8.924-2.116,13.386-3.174   c3.435,1.91,7.082,3.14,10.913,4.048c8.397,1.988,16.724,1.926,25.257,1.017c4.522-0.481,8.862-0.909,13.188-2.41   c3.201-1.305,5.944-3.524,8.982-5.135c5.907-3.52,11.096-7.213,15.182-12.84c3.45-4.751,6.235-9.874,8.148-15.446   C139.769,84.751,141.049,71.623,138.306,60.524z M134.357,88.5c-1.134,5.118-2.898,10.031-5.552,14.568   c-2.854,4.878-6.345,9.057-10.714,12.666c-10.295,8.504-23.588,11.787-36.655,12.434c-3.596-0.125-7.187-0.325-10.733-0.97   c-4.074-0.742-9.485-1.025-13.1-3.196c-0.708-0.374-1.438-0.788-2.06-1.293c-0.877-0.708-3.238,0.134-4.128,0.287   c-2.95,0.509-5.87,1.164-8.783,1.849c-4.629,1.089-9.239,2.247-13.844,3.427c1.205-4.669,2.411-9.338,3.639-14.003   c0.296-1.126,0.584-2.254,0.889-3.377c0.406-1.513,0.848-3.018,1.283-4.522c0.339-1.171,1.188-2.688,0.891-3.933   c-0.587-2.465-2.814-4.83-3.76-7.212c-5.363-13.507-5.473-28.19,0.911-41.46c4.067-8.452,9.183-15.168,16.482-20.988   c7.748-5.618,16.075-9.09,25.549-10.824c7.518-1.376,14.944-0.168,22.354,1.209c9.238,2.16,15.935,7.231,22.655,13.69   c5.266,5.806,10.983,12.369,12.51,20.286c1.209,5.695,2.848,12.324,2.981,17.937C135.241,79.696,135.368,83.936,134.357,88.5z"/><path d="M124.779,54.555c-6.535-17.541-24.746-27.576-42.878-28.162c-7.078-0.228-14.56,2.442-20.679,5.823   c-4.956,2.738-9.652,5.23-13.949,8.939c-5.999,5.196-10.231,12.449-12.485,20.006c-3.698,13.359-0.704,28.532,6.276,40.324   c-0.951,3.354-1.757,6.742-2.544,10.14c-0.572,2.468-3.207,9.538,1.713,8.186c5.317-1.462,10.631-2.919,15.976-4.273   c7.836,4.623,16.022,7.157,25.189,7.587c13.312-0.299,26.17-4.448,35.287-14.539c6.994-7.741,11.424-18.979,12.191-29.383   c0.181-2.449,0.301-4.795,0.265-7.247C129.047,65.76,126.91,60.273,124.779,54.555z M124.407,74.991   c-0.275,3.145-0.079,6.354-0.668,9.454c-0.762,4.006-2.203,7.843-4.229,11.38c-3.41,5.954-8.312,10.759-13.469,15.194   c-6.957,5.984-15.755,7.116-24.543,7.609c-7.981-0.421-15.567-2.491-22.544-6.408c-1.863-1.045-2.96-1.004-4.981-0.447   c-2.246,0.62-4.471,1.292-6.703,1.964c-1.828,0.566-3.657,1.131-5.485,1.697c0.575-1.759,1.156-3.516,1.72-5.278   c0.892-2.779,1.787-5.572,2.5-8.404c0.066-1.361-0.403-2.061-1.083-3.157c-3.612-5.827-6.818-12.186-7.592-19.108   c-1.261-11.283,3.386-24.194,10.825-32.571c12.514-14.092,31.417-20.734,49.221-13.15c7.771,3.31,14.068,8.544,19.042,15.292   c2.643,3.741,4.7,7.535,6.268,11.817c1.692,4.624,1.606,9.199,1.719,14.055C124.407,74.931,124.409,74.928,124.407,74.991z"/><path d="M111.444,88.051c-0.427-1.891-2.28-2.61-3.861-3.401c-3.389-1.802-7.283-4.635-11.115-5.195   c-3.9-0.57-6.273,4.784-8.415,7.271c-3.858-0.663-8.071-4.245-11.05-6.522c-2.43-2.304-6.098-5.754-7.658-8.703   c-0.599-0.942,3.477-4.643,4.094-6.138c0.807-1.883,0.153-3.476-0.526-5.303c-1.145-3.082-2.143-6.269-3.464-9.282   c-1.441-3.285-4.405-3.497-7.621-3.431c-4.263,0.086-6.982,4.144-8.498,7.691c-4.748,10.517,2.689,21.491,9.157,29.351   c6.845,8.317,16.802,16.508,27.591,19.125c6.587,1.255,15.076-0.502,19.287-6.209C111.168,94.862,111.879,91.014,111.444,88.051z    M99.37,99.061c-2.559,0.341-5.75-0.353-8.286-0.802c-12.635-2.239-23.251-13.072-30.577-23.706   c-2.481-3.603-4.614-8.15-4.47-12.426c0.046-2.967,2.515-10.217,5.888-10.252c1.047-0.015,2.151,0.083,3.19-0.046   c0.109,0.34,0.724,1.087,0.845,1.354c0.552,1.217,1.104,2.434,1.656,3.65c0.956,2.107,1.761,4.391,2.902,6.403   c0.121,0.302,0.214,0.4-0.041,0.841c0.146-0.352-0.79,1.377-1.112,1.847c-0.227,0.266-1.265,1.512-1.344,1.607   c-0.682,0.795-1.495,1.546-1.813,2.574c-0.319,1.031-0.029,2.107,0.499,3c2.095,3.545,4.457,6.818,7.211,9.871   c3.17,3.514,7.784,6.46,12.297,7.918c2.034,0.75,3.823,0.31,5.287-1.215c1.066-1.336,2.125-2.671,3.134-4.052   c0.214-0.293,1.126-1.176,1.329-1.705c1.399,0.95,3.85,1.487,5.372,2.249c1.468,0.734,2.904,1.528,4.349,2.305   c0.255,0.136,0.984,0.683,1.377,0.898c-0.236,1.563-0.549,3.02-1.06,4.531C105.191,96.295,102.031,98.823,99.37,99.061z"/></g></svg>