<?xml version="1.0" ?><!DOCTYPE svg  PUBLIC '-//W3C//DTD SVG 1.1//EN'  'http://www.w3.org/Graphics/SVG/1.1/DTD/svg11.dtd'><svg enable-background="new 0 0 154.422 156.501" height="156.501px" id="icons" version="1.1" viewBox="0 0 154.422 156.501" width="154.422px" xml:space="preserve" xmlns="http://www.w3.org/2000/svg" xmlns:xlink="http://www.w3.org/1999/xlink"><g><path d="M88.961,8.173c-7.79,0.189-15.574,0.381-23.344,0.988c-17.764,1.389-35.905,4.778-50.055,16.165   C2.501,35.836,6.293,54.798,5.231,70.433c-0.921,13.563-4.75,44.299,1.242,57.043c9.631,20.48,30.165,22.031,51.44,27.375   c13.391,3.361,26.729,0.66,40.278-0.033c13.081-0.67,25.778-1.857,36.282-10.354c9.84-7.959,12.867-19.756,13.826-31.766   c1.094-13.699,2.406-27.389,3.475-41.09c0.965-12.389,0.96-26.297-3.609-38.037c-5.059-12.992-16.195-20.975-29.697-24.028   C108.745,7.349,98.828,7.931,88.961,8.173z" fill="#F2F2F2"/><path d="M13.184,77.344c0,23.565,14.888,51.221,39.564,55.59L20.344,53.108   C15.572,59.315,13.184,68.71,13.184,77.344z M103.938,76.338c2.136-7.049,0.348-14.461-1.914-18.424   c-3.016-4.904-4.009-9.059-3.844-13.969c0.392-11.631,11.513-11.533,11.768-11.518c-8.376-7.863-19.706-9.637-35.211-9.637   c-28.331,0-47.043,21.918-45.928,21.918c6.236,0,21.878-0.764,21.878-0.764c3.22,0.684,3.601,3.529,0.376,3.914   c0,0-4.225,0.371-7.817,0.563l21.69,65.5l11.029-39.074L66.69,49.422c-3.21-0.191-6.249,0.438-6.249,0.438   c-3.206-0.191-2.829-5.096,0.381-4.914c0,0,6.829-0.236,12.683-0.236c6.225,0,18.876,0.236,18.876,0.236   c3.2-0.182,3.583,4.531,0.372,4.914c0,0-6.221-0.629-9.813-0.438l15.67,42.305C98.61,91.727,101.539,84.258,103.938,76.338z    M78.785,82.555l-20.874,51.918c5.334,1.572,10.979,2.424,16.826,2.424c6.931,0,16.587-1.195,22.772-3.383   C97.352,133.264,78.785,82.555,78.785,82.555z M126.988,52.77c-0.145,2.826-1.648,10.859-5.121,23.457   c-3.636,13.191-15.187,52.584-15.187,52.584c14.033-11.838,25.6-28.498,25.6-50.467C132.28,67.987,130.684,61.784,126.988,52.77z" fill="#999999"/><g><path d="M154.409,119.222c-0.043-5.697-0.139-11.378-0.238-17.061l-0.327-17.037c-0.052-2.835-0.121-5.685-0.121-8.493    l0.009-8.521l-0.075-8.533c-0.019-2.846-0.098-5.689-0.217-8.532c-0.191-5.688-0.512-11.37-0.743-17.054l-0.136-4.264    l-0.075-2.137c-0.027-0.747-0.083-1.495-0.157-2.243c-0.331-2.983-0.954-5.991-2.176-8.826c-1.2-2.834-2.948-5.485-5.173-7.69    c-2.217-2.211-4.893-3.961-7.785-5.154c-2.881-1.198-6.013-1.851-9.08-1.987c-2.927-0.139-5.742-0.196-8.594-0.223l-17.019-0.212    c-5.667-0.072-11.33-0.194-16.986-0.412c-5.657-0.226-11.305-0.405-16.952-0.72c-2.87-0.083-5.736-0.128-8.602-0.122    c-2.865,0.01-5.728,0.102-8.586,0.148c-2.859,0.021-5.715,0.089-8.569,0.162c-2.854,0.042-5.706,0.111-8.554,0.196l-4.269,0.139    L27.852,0.72c-0.749,0.025-1.591,0.087-2.372,0.195c-3.179,0.428-6.208,1.51-8.95,3.022c-5.465,3.055-9.963,7.712-12.653,13.47    c-0.666,1.441-1.211,2.953-1.599,4.525c-0.399,1.555-0.587,3.269-0.659,4.71c-0.188,2.868-0.337,5.706-0.483,8.551    C0.869,40.88,0.548,46.56,0.424,52.254l-0.066,4.273l0.051,4.287l0.218,8.569c0.102,5.685,0,11.367-0.259,17.054    c-0.599,11.379-0.38,22.742,0.051,34.172l0.181,4.304l0.121,2.175l0.089,1.17c0.04,0.409,0.089,0.816,0.149,1.222    c0.476,3.241,1.558,6.318,3.063,9.138c3.021,5.61,7.782,10.352,13.732,12.977c2.953,1.32,6.176,2.094,9.403,2.258    c2.878,0.144,5.711,0.262,8.563,0.282c5.693,0.133,11.392-0.018,17.086-0.047c2.848-0.028,5.693,0.037,8.542,0.03l8.555,0.127    c2.832,0.012,5.782,0.024,8.598-0.032l8.52-0.108c5.681-0.075,11.364-0.121,17.048-0.248c5.682-0.191,11.362-0.424,17.048-0.714    l4.266-0.222l2.134-0.118c0.722-0.045,1.385-0.071,2.226-0.146c3.2-0.307,6.25-1.283,9.03-2.692    c5.549-2.837,10.139-7.398,12.922-12.994c1.385-2.795,2.287-5.855,2.589-8.982c0.16-1.673,0.12-3.029,0.139-4.481L154.409,119.222    z M149.442,102.224c-0.041,5.675-0.088,11.353-0.186,17.011l-0.094,4.23c-0.047,1.378-0.065,2.884-0.218,3.979    c-0.305,2.454-1.08,4.836-2.235,7.034c-2.316,4.396-6.169,8.018-10.587,10.212c-2.213,1.085-4.585,1.788-6.922,1.976l-4.105,0.271    c-1.412,0.083-2.82,0.251-4.232,0.368c-5.645,0.535-11.299,1.158-16.966,1.479l-17.018,0.568c-2.837,0.099-5.676,0.17-8.516,0.209    c-1.43,0.023-2.836,0.059-4.219,0.058l-4.213-0.041c-2.818-0.058-5.646-0.117-8.473-0.247c-2.827-0.171-5.656-0.306-8.482-0.543    l-8.479-0.73c-2.825-0.255-5.65-0.478-8.479-0.628c-2.821-0.172-5.666-0.236-8.457-0.347c-1.243-0.053-2.385-0.202-3.583-0.47    c-1.18-0.255-2.354-0.585-3.493-1.04c-4.532-1.821-8.68-5.273-11.244-9.748c-1.271-2.225-2.286-4.649-2.647-7.173    c-0.106-0.646-0.157-1.216-0.181-1.932l-0.073-2.096l-0.027-4.227c0.014-5.649,0.189-11.32,0.279-16.988l0.093-4.252l0.002-4.252    l0.008-8.507L6.585,69.381c-0.009-2.848-0.044-5.666-0.001-8.456l0.18-8.471l0.423-16.991c0.086-2.828,0.176-5.665,0.3-8.467    c0.046-1.394,0.147-2.509,0.422-3.713c0.264-1.188,0.656-2.366,1.155-3.513c2.002-4.597,5.691-8.614,10.091-11.176    c2.204-1.276,4.605-2.18,7.06-2.562c0.625-0.098,1.201-0.155,1.871-0.192l2.124-0.119l4.242-0.226    c2.827-0.143,5.651-0.27,8.475-0.37c2.823-0.146,5.653,0.307,8.469,0.406c5.633,0.173,11.258,0.107,16.872,0.373    C79.66,6.531,91.059,6.827,102.44,6.993l17.056,0.167c2.825,0.028,5.696,0.034,8.423,0.123c2.551,0.078,4.98,0.566,7.272,1.476    c4.585,1.794,8.274,5.361,10.234,9.877c1,2.249,1.598,4.712,1.863,7.25c0.063,0.636,0.112,1.275,0.137,1.919l0.077,2.114    l0.142,4.245c0.364,11.321,0.58,22.639,1.286,33.97c0.148,2.839,0.286,5.657,0.332,8.514c0.113,2.871,0.148,5.698,0.202,8.542    C149.535,90.869,149.476,96.547,149.442,102.224z"/><path d="M122.876,32.655c-2.887-2.916-6.066-5.549-9.508-7.783c-1.713-1.132-3.511-2.12-5.309-3.106    c-1.806-0.973-3.635-1.918-5.536-2.706c-7.628-3.117-15.887-4.445-24.036-4.524c-8.216-0.128-16.477,1.401-24.137,4.428    c-3.787,1.57-7.731,3.001-11.131,5.4c-3.465,2.272-6.619,4.971-9.616,7.81c-2.976,2.868-5.642,6.056-7.974,9.468    c-2.319,3.423-4.214,7.118-5.771,10.931c-3.106,7.636-4.62,15.866-4.564,24.027c0.028,4.089,0.451,8.164,1.281,12.155    c0.415,1.995,0.931,3.968,1.546,5.907c0.625,1.936,1.327,3.844,2.079,5.731c1.498,3.776,3.277,7.465,5.472,10.917    c2.243,3.417,4.845,6.599,7.724,9.506c5.764,5.802,12.646,10.549,20.222,13.672c7.517,3.221,15.648,5.092,23.779,5.499    c8.292,0.439,16.618-1.036,24.25-4.23c1.902-0.806,3.774-1.684,5.602-2.646c1.836-0.954,3.501-2.198,5.11-3.479    c1.616-1.275,3.122-2.677,4.576-4.109c1.51-1.367,3.036-2.715,4.45-4.18c5.691-5.82,10.406-12.678,13.648-20.169    c3.228-7.481,5.305-15.626,5.305-23.843v-0.014c0-8.145-1.437-16.339-4.31-24.02C133.169,45.624,128.663,38.488,122.876,32.655z     M36.594,35.24c2.808-2.646,5.956-4.893,9.222-6.887c3.303-1.878,6.235-4.597,9.89-5.993l1.339-0.571l1.378-0.469    c0.926-0.29,1.847-0.595,2.792-0.813c1.889-0.452,3.822-0.686,5.746-0.848c1.924-0.165,3.828-0.319,5.732-0.532    c0.949-0.128,1.903-0.249,2.861-0.352c0.479-0.053,0.959-0.067,1.439-0.096l0.705-0.034l0.744-0.008    c7.723-0.087,15.607,0.921,22.696,4.037c1.73,0.874,3.332,1.982,4.946,2.988c1.627,0.984,3.289,1.886,4.848,2.959    c1.91,1.302,3.75,2.701,5.51,4.196c-0.483-0.079-0.974-0.135-1.472-0.151c-2.298-0.104-4.703,0.637-6.535,2.048    c-1.849,1.398-3.143,3.329-3.917,5.371c-0.782,2.049-1.067,4.239-0.907,6.383c0.04,0.537,0.107,1.07,0.202,1.599    c0.101,0.546,0.19,0.952,0.306,1.475c0.218,0.973,0.468,1.928,0.741,2.874c1.094,3.791,2.555,7.354,3.76,10.914    c0.303,0.891,0.592,1.781,0.861,2.675l0.39,1.343c0.123,0.458,0.259,0.909,0.313,1.251c0.118,0.704,0.134,1.618,0.088,2.499    c-0.04,0.892-0.138,1.809-0.254,2.726c-0.528,3.678-1.511,7.353-2.564,10.995l-1.627,5.469c-0.527,1.829-0.979,3.682-1.484,5.524    c-0.324,1.216-0.651,2.432-0.977,3.65c-0.782-2.568-1.587-5.119-2.388-7.68l-4.788-14.982l-4.817-14.958    c-1.292-4.046-2.581-8.099-3.813-12.14c1.372-0.021,2.744-0.039,4.116-0.039h0.028c1.039,0,1.883-0.986,1.918-2.045    c0.037-1.117-0.839-2.145-1.956-2.182c-2.572-0.086-5.145-0.115-7.717-0.154c-2.572-0.054-5.145-0.063-7.717-0.051l-15.428-0.002    c-1.159,0.001-2.108,1.024-2.125,2.187c-0.017,1.174,0.921,2.247,2.095,2.247h0.02l5.215,0.021    c0.008,0.022,0.011,0.046,0.02,0.068l0.076,0.193c2.724,6.857,5.235,13.955,7.769,20.983c0.617,1.721,1.221,3.446,1.83,5.17    c-0.003,0.007-0.008,0.013-0.011,0.02c-1.072,2.387-1.872,4.639-2.726,6.945l-2.452,6.876c-0.807,2.291-1.712,4.546-2.539,6.826    c-0.779,2.17-1.405,4.389-2.102,6.583c-0.993-3.121-2.022-6.225-3.074-9.317l-2.588-7.897c-0.898-2.618-1.975-5.168-2.966-7.747    l-6.161-15.371c-1.032-2.555-1.994-5.135-2.922-7.717c-0.807-2.173-1.501-4.381-1.956-6.637h5.438h0.006    c0.966,0,1.748-0.754,1.748-1.72c0-0.966-0.782-1.72-1.748-1.72l-23.433-0.002c0.266-0.418,0.519-0.844,0.797-1.254    C31.164,40.752,33.771,37.861,36.594,35.24z M59.178,124.44c-0.348,1.153-0.798,2.266-1.293,3.36    c-2.306-5.795-4.585-11.608-6.852-17.427l-3.915-10.412l-0.988-2.599l-1.064-2.569l-2.134-5.137l-4.264-10.274l-2.133-5.141    c-0.661-1.731-1.342-3.463-1.947-5.216c-1.27-3.482-2.44-7.017-4.022-10.377c-0.747-1.696-1.542-3.407-2.257-5.114    c-0.681-1.585-0.943-3.191-1.783-4.872H41.97c1.511,5.396,3.342,10.591,5.259,15.752l1.462,3.885l1.568,3.841l3.151,7.667    c0.54,1.271,1.005,2.571,1.508,3.855l0.734,1.935l0.652,1.964c0.396,1.323,0.746,2.662,1.104,3.998    c0.388,1.324,0.773,2.648,1.242,3.942c0.902,2.601,1.789,5.204,2.647,7.813l1.274,3.914l1.1,3.277    c-0.719,2.358-1.442,4.716-2.202,7.059C60.742,119.871,59.97,122.16,59.178,124.44z M36.063,118.112    c-2.776-2.664-5.214-5.671-7.328-8.873c-2.103-3.228-3.422-6.881-4.691-10.432c-0.643-1.779-1.314-3.544-1.879-5.349    c-0.563-1.804-1.034-3.639-1.411-5.495c-0.378-1.855-0.655-3.732-0.853-5.621c-0.218-1.885-0.341-3.791-0.373-5.69    c-0.106-7.62,1.171-15.329,4.088-22.469c0.091-0.222,0.194-0.439,0.287-0.661c0.188,0.505,0.381,1.008,0.581,1.507    c0.682,1.73,1.355,3.463,2.069,5.178c1.452,3.423,2.737,6.905,4.074,10.368c0.655,1.737,1.339,3.462,2.027,5.186l2.161,5.132    l4.34,10.255c0.737,1.703,1.405,3.435,2.111,5.149l1.042,2.58l0.969,2.61c0.608,1.754,1.174,3.525,1.752,5.292    c0.607,1.755,1.219,3.509,1.916,5.229l4.099,10.352l2.076,5.168l1.134,2.662C47.567,127.244,41.328,123.215,36.063,118.112z     M77.641,135.695c-5.93-0.27-11.771-1.349-17.369-3.187c0.612-1.006,1.103-2.102,1.431-3.225c0.285-1.199,0.751-2.327,1.17-3.473    c0.844-2.287,1.666-4.58,2.463-6.88l1.184-3.45l1.057-3.493l0.168-0.569c0.111-0.224,0.187-0.465,0.213-0.717l1.688-5.705    c0.325-1.171,0.726-2.316,1.084-3.476l0.558-1.732l0.635-1.706c0.462-1.124,0.968-2.233,1.462-3.346    c0.467-1.122,0.924-2.247,1.312-3.393c0.793-2.288,1.64-4.556,2.413-6.838l0.782-2.223c1.147,3.277,2.29,6.558,3.434,9.837    l3.74,10.594l1.862,5.301c0.335,0.874,0.661,1.752,1.014,2.621l1.093,2.594c1.446,3.463,2.503,7.061,3.726,10.601    c1.013,3.129,1.985,6.276,2.898,9.431C89.846,135.135,83.705,135.986,77.641,135.695z M100.329,131.507    c-0.402-1.309-0.804-2.614-1.235-3.909l-1.814-5.323l-1.915-5.288c-0.629-1.766-1.28-3.523-2.135-5.211    c-0.81-1.703-1.671-3.387-2.267-5.164l-1.815-5.32c-1.239-3.537-2.352-7.118-3.521-10.68c-1.163-3.564-2.276-7.146-3.507-10.688    l-1.816-5.323c-0.646-1.76-1.298-3.519-2.047-5.242c-1.508-3.443-2.806-6.961-3.996-10.523c-1.066-3.008-2.021-6.044-2.998-9.123    c1.658,0.007,3.316,0.007,4.975,0.012l3.859,0.05l3.097-0.008c1.337,4.496,2.738,8.928,4.139,13.371L92.1,78.116l4.729,14.975    c1.542,4.986,3.117,10.006,4.451,14.964c0.217,0.798,0.856,1.456,1.717,1.652c1.245,0.285,2.484-0.493,2.769-1.737l0.002-0.009    c0.829-3.625,1.82-7.324,2.864-10.994c0.251-0.923,0.509-1.844,0.857-2.742c0.357-0.896,0.696-1.799,0.943-2.727l1.417-5.601    c0.919-3.757,1.712-7.55,2.239-11.519c0.126-0.999,0.235-2.007,0.283-3.062c0.044-1.069,0.065-2.108-0.146-3.433l-0.051-0.277    l-0.042-0.188l-0.106-0.426l-0.196-0.72l-0.415-1.429c-0.285-0.947-0.59-1.885-0.905-2.81c-1.263-3.71-2.698-7.219-3.711-10.729    c-0.255-0.877-0.486-1.759-0.685-2.636l-0.143-0.654l-0.13-0.649c-0.071-0.39-0.122-0.783-0.152-1.178    c-0.123-1.576,0.089-3.181,0.637-4.623c0.544-1.439,1.431-2.709,2.557-3.559c1.125-0.854,2.471-1.278,3.917-1.226    c1.416,0.039,3.054,0.577,4.286,1.351c1.263,0.787,2.262,1.961,3.004,3.388c1.484,2.883,1.934,6.546,1.951,10.166    c-0.017,3.65-0.479,7.358-1.137,11.039c-0.674,3.683-1.569,7.342-2.53,11.001l-2.999,11.042    c-0.972,3.686-2.249,7.286-2.936,11.054c-0.376,1.874-0.693,3.767-1.121,5.628c-0.349,1.885-1.049,3.668-1.585,5.498    c-2.233,7.292-4.564,14.559-7.168,21.689c-0.105,0.289-0.138,0.586-0.115,0.875C103.103,130.233,101.73,130.902,100.329,131.507z     M131.153,99.563c-2.91,7.065-7.099,13.673-12.475,19.153c-2.662,2.75-5.587,5.248-8.724,7.43l0.543-1.569l1.827-5.463    c1.118-3.672,2.187-7.354,3.187-11.054c1.001-3.7,2.071-7.378,3.11-11.064c1.037-3.688,2.052-7.381,3.042-11.083l2.93-11.108    c0.956-3.736,1.825-7.518,2.488-11.36c0.654-3.844,1.143-7.75,1.145-11.748c-0.012-1.758-0.125-3.534-0.392-5.318    c1.574,2.682,2.937,5.496,4.049,8.414c2.735,7.123,4.067,14.809,4.097,22.515C135.899,84.981,134.014,92.485,131.153,99.563z"/></g></g></svg>