<?xml version="1.0" ?><!DOCTYPE svg  PUBLIC '-//W3C//DTD SVG 1.1//EN'  'http://www.w3.org/Graphics/SVG/1.1/DTD/svg11.dtd'><svg enable-background="new 0 0 156.578 155.747" height="155.747px" id="icons" version="1.1" viewBox="0 0 156.578 155.747" width="156.578px" xml:space="preserve" xmlns="http://www.w3.org/2000/svg" xmlns:xlink="http://www.w3.org/1999/xlink"><g><path d="M150.95,83.349c-0.758-7.756-1.516-15.506-2.692-23.209c-2.689-17.615,1.576-32.461-10.931-45.736   c-11.545-12.256-30.388-7.082-46.226-6.992C77.359,7.487,37.093,2.923,24.681,9.837C4.732,20.944,9.659,41.538,5.816,63.15   c-2.417,13.602,0.481,26.828,2.959,40.17c4.17,22.451,28.922,45.809,41.1,45.885c13.891,0.084,27.787,0.389,41.679,0.449   c12.561,0.053,27.582-0.973,39.086-6.393c12.732-5.998,18.971-16.691,21.067-30.381C153.217,103.021,151.909,93.173,150.95,83.349z   " fill="#ED1C24"/><g><g><path d="M115.219,43.615c-27.677-2.869-45.541-2.869-73.219,0c-10.378,1.232-18.832,11.643-18.832,22.49     c0,7.588,0,15.18,0,22.777c0,11.57,9.018,22.672,20.097,23.961c26.833,2.705,43.856,2.705,70.693,0     c11.081-1.289,20.093-12.391,20.093-23.961c0-7.598,0-15.189,0-22.777C134.051,55.26,125.597,44.848,115.219,43.615z" fill="#FFFFFF"/></g><path d="M64.24,59.263c0,0,39.353,7.512,39.353,19.5s-39.353,21.5-39.353,21.5V59.263z" fill="#ED1C24"/><g><path d="M156.309,51.7c-0.297-5.704-0.737-11.394-1.102-17.055l-0.209-4.24c-0.029-0.705-0.07-1.408-0.081-2.111     c-0.019-0.708,0.005-1.362,0.001-2.223c0.021-3.255-0.528-6.593-2.023-9.479c-2.856-5.799-7.507-10.641-13.335-13.65     c-2.907-1.512-6.149-2.428-9.444-2.762c-1.829-0.172-3.119-0.126-4.589-0.157l-4.29-0.021c-2.853,0.003-5.697-0.032-8.539,0.1     l-8.52,0.48c-2.838,0.164-5.675,0.299-8.51,0.364l-8.501,0.049l-4.245-0.024c-1.433-0.014-2.785-0.042-4.287-0.011     c-2.922,0.067-5.758,0.235-8.611,0.4C58.641,1.981,47.288,2.438,35.908,2.264c-1.423-0.047-2.846-0.114-4.265-0.139l-2.136-0.008     c-0.775-0.009-1.552,0.049-2.329,0.115c-3.106,0.279-6.248,0.986-9.227,2.265c-2.975,1.272-5.769,3.125-8.088,5.481     c-2.3,2.375-4.093,5.223-5.296,8.265c-0.604,1.522-1.064,3.093-1.384,4.686c-0.16,0.797-0.285,1.6-0.375,2.404     c-0.043,0.391-0.082,0.82-0.111,1.241l-0.062,1.093c-0.168,2.819-0.225,5.665-0.348,8.5c-0.234,5.675-0.385,11.357-0.563,17.038     L0.095,87.261c-0.24,5.835-0.002,11.642,0.468,17.375c0.473,5.734,1.159,11.406,1.71,17.011c0.136,1.4,0.261,2.797,0.364,4.188     l0.138,2.086c0.037,0.704,0.106,1.574,0.225,2.341c0.471,3.159,1.567,6.165,3.128,8.851c0.785,1.342,1.679,2.607,2.637,3.814     c0.945,1.216,1.946,2.392,3.03,3.496c2.188,2.184,4.667,4.138,7.504,5.616c1.419,0.73,2.914,1.375,4.499,1.81     c1.554,0.452,3.322,0.699,4.766,0.815c2.873,0.239,5.71,0.368,8.559,0.445c5.693,0.13,11.371,0.451,17.062,0.535l8.545,0.104     c2.872,0.01,5.754-0.058,8.595-0.121l17.083-0.514c5.69-0.151,11.38-0.152,17.078-0.023l8.553,0.114     c1.426-0.002,2.854,0.054,4.28-0.008c1.427-0.034,2.852-0.15,4.28-0.19l4.291-0.199l2.152-0.122     c0.692-0.037,1.585-0.111,2.355-0.226c3.19-0.457,6.232-1.507,9.023-2.983c5.567-2.955,10.238-7.661,12.925-13.506     c1.343-2.91,2.149-6.099,2.349-9.308c0.171-2.979,0.241-5.82,0.291-8.688c0.089-5.705,0.138-11.415,0.115-16.989l0.043-2.036     l0.033-0.934l0.064-1.054c0.081-1.436,0.125-2.875,0.112-4.315l-0.098-8.626l0.303-17.166     C156.605,63.132,156.589,57.406,156.309,51.7z M151.526,68.895c-0.089,2.817-0.3,5.628-0.378,8.438     c-0.106,2.81-0.308,5.612-0.359,8.421c-0.053,2.809-0.006,5.626-0.053,8.443c0.004,1.411-0.101,2.813-0.176,4.22l-0.065,1.072     l-0.05,1.167c-0.033,0.75-0.05,1.477-0.061,2.201c-0.025,5.763-0.059,11.423-0.152,17.085c-0.05,2.818-0.12,5.66-0.284,8.375     c-0.166,2.517-0.797,4.978-1.858,7.264c-2.109,4.578-5.903,8.41-10.405,10.774c-2.249,1.183-4.679,2.002-7.13,2.344     c-0.638,0.089-1.168,0.133-1.894,0.172l-2.102,0.115l-4.224,0.188c-11.287,0.475-22.637,0.685-33.971,0.787     c-5.669,0.047-11.339,0.061-16.998,0.021c-2.842-0.026-5.641-0.046-8.452-0.144l-8.497-0.301l-17.008-0.707l-8.469-0.428     c-1.395-0.066-2.497-0.193-3.703-0.49c-1.184-0.287-2.354-0.702-3.487-1.222c-4.536-2.088-8.504-5.799-10.902-10.223     c-1.205-2.205-2.025-4.584-2.332-6.979c-0.081-0.625-0.114-1.138-0.142-1.854l-0.106-2.177c-0.083-1.45-0.188-2.89-0.302-4.322     l-1.491-16.918c-0.426-5.581-0.621-11.127-0.548-16.655c0.068-5.685-0.203-11.387-0.02-17.066     c0.083-5.685,0.879-11.331,1.145-17.006l0.774-17.028c0.114-2.841,0.287-5.675,0.345-8.525c0.012-2.717,0.432-5.273,1.329-7.759     c0.892-2.464,2.248-4.761,4.017-6.708c1.768-1.949,3.941-3.539,6.357-4.689c2.433-1.118,5.079-1.796,7.782-2.109     c0.676-0.073,1.355-0.147,2.04-0.143l2.13-0.027c1.424,0.014,2.849,0.074,4.274,0.136c11.389,0.305,22.736-0.407,34.064-0.352     c2.822,0,5.664-0.052,8.41,0.023c1.324,0.059,2.824,0.097,4.23,0.101l4.279,0.028l8.547-0.027     c2.846,0.012,5.69,0.101,8.534,0.169c2.844,0.104,5.686,0.059,8.525,0.073c2.84,0.022,5.679-0.025,8.511-0.071l4.239-0.043     c1.385,0.001,2.901-0.036,4.024,0.061c2.5,0.198,4.974,0.877,7.281,1.972c4.617,2.188,8.566,6.011,11,10.607     c1.204,2.304,1.966,4.821,2.209,7.341l0.275,4.2l0.313,4.264c0.461,5.67,0.819,11.321,1.072,16.971     C151.853,57.605,151.78,63.26,151.526,68.895z"/><path d="M107.318,74.803l-6.1-2.756l-6.048-2.865l-12.065-5.796c-2.034-0.917-3.938-2.115-6.106-2.74     c-1.072-0.338-2.175-0.612-3.231-0.983c-1.095-0.292-2.037-0.909-3.048-1.383c-4.018-1.941-8.02-3.913-12.01-5.917     c-0.285-0.142-0.864-0.224-1.204-0.218c-1.133,0.019-2.266,0.954-2.266,2.088v0.076l1.022,46.004     c0.007,0.304,0.321,0.621,0.454,0.915c0.526,1.163,1.896,1.679,3.059,1.152l0.082-0.037c1.008-0.457,1.979-0.988,3.017-1.383     c0.523-0.188,1.083-0.303,1.591-0.524c0.52-0.195,0.996-0.479,1.496-0.714c1.979-0.987,3.965-1.96,5.923-2.989     c3.922-2.044,7.881-4.015,11.82-6.025l23.662-12.008l0.041-0.021c0.421-0.214,0.775-0.567,0.984-1.031     C108.881,76.566,108.4,75.292,107.318,74.803z M81.89,87.034l-5.919,2.995l-2.959,1.498l-3.006,1.404l-6.121,2.585     c-1.035,0.417-2.038,0.9-3.033,1.399L60,57.741l2.927,1.44c2.036,0.913,4.078,1.811,6.139,2.669     c2.061,0.859,4.078,1.812,6.103,2.75l6.072,2.813l12.144,5.625l6.072,2.813l2.33,1.039C95.166,80.293,88.54,83.689,81.89,87.034z     "/></g></g></g></svg>