<?xml version="1.0" ?><!DOCTYPE svg  PUBLIC '-//W3C//DTD SVG 1.1//EN'  'http://www.w3.org/Graphics/SVG/1.1/DTD/svg11.dtd'><svg enable-background="new 0 0 512 512" height="512px" id="Layer_1" version="1.1" viewBox="0 0 512 512" width="512px" xml:space="preserve" xmlns="http://www.w3.org/2000/svg" xmlns:xlink="http://www.w3.org/1999/xlink"><g id="Bitcoin"><linearGradient gradientTransform="matrix(1 0 0 -1 -41.66 348.04)" gradientUnits="userSpaceOnUse" id="SVGID_1_" x1="41.66" x2="553.66" y1="92.04" y2="92.04"><stop offset="0" style="stop-color:#F9AA4C"/><stop offset="1" style="stop-color:#F7941F"/></linearGradient><circle cx="256" cy="256" fill="url(#SVGID_1_)" r="256"/><path d="M367.781,228.248c4.725-29.85-19.322-45.896-52.204-56.601l10.666-40.437l-26.042-6.134   l-10.383,39.371c-6.848-1.613-13.878-3.134-20.867-4.642l10.459-39.629l-26.028-6.135l-10.673,40.422   c-5.666-1.22-11.229-2.425-16.629-3.694l0.029-0.127l-35.915-8.475l-6.927,26.29c0,0,19.322,4.185,18.913,4.445   c10.548,2.488,12.453,9.086,12.134,14.315l-12.15,46.066c0.729,0.174,1.669,0.426,2.707,0.819   c-0.868-0.202-1.794-0.426-2.751-0.645l-17.031,64.531c-1.289,3.029-4.562,7.571-11.933,5.847   c0.258,0.357-18.929-4.465-18.929-4.465l-12.93,28.175l33.891,7.986c6.304,1.492,12.484,3.056,18.566,4.528l-10.778,40.9   l26.013,6.133l10.673-40.464c7.106,1.823,14.005,3.504,20.755,5.088l-10.637,40.276l26.042,6.133l10.778-40.822   c44.406,7.944,77.801,4.74,91.856-33.221c11.326-30.566-0.564-48.198-23.928-59.695   C351.544,260.678,364.362,250.099,367.781,228.248z M308.278,307.108c-8.046,30.565-62.5,14.041-80.152,9.898l14.302-54.183   C260.08,266.988,316.69,275.232,308.278,307.108z M316.334,227.807c-7.343,27.803-52.665,13.677-67.366,10.214l12.966-49.142   C276.636,192.341,323.981,198.804,316.334,227.807z" fill="#FFFFFF" id="symbol_2_"/></g></svg>