<?xml version="1.0" ?><!DOCTYPE svg  PUBLIC '-//W3C//DTD SVG 1.1//EN'  'http://www.w3.org/Graphics/SVG/1.1/DTD/svg11.dtd'><svg enable-background="new 0 0 512 512" height="512px" id="Layer_1" version="1.1" viewBox="0 0 512 512" width="512px" xml:space="preserve" xmlns="http://www.w3.org/2000/svg" xmlns:xlink="http://www.w3.org/1999/xlink"><g id="Discover"><circle cx="256" cy="256" fill="#EFE3BB" r="256"/><g><radialGradient cx="2750.5752" cy="-247.2263" gradientTransform="matrix(0.7431 0 0 -0.7024 -1781.1888 85.0553)" gradientUnits="userSpaceOnUse" id="SVGID_1_" r="37.447"><stop offset="0.0056" style="stop-color:#FFEEE1"/><stop offset="0.0966" style="stop-color:#FFEAD8"/><stop offset="0.2452" style="stop-color:#FEDDC2"/><stop offset="0.4329" style="stop-color:#FCCA9F"/><stop offset="0.6522" style="stop-color:#F9AF72"/><stop offset="0.8954" style="stop-color:#F68F39"/><stop offset="1" style="stop-color:#F48220"/></radialGradient><path d="M262.801,232.705c-15.558,0-28.179,11.488-28.179,25.665c0,15.071,12.075,26.339,28.179,26.339    c15.706,0,28.104-11.417,28.104-26.043C290.905,244.123,278.589,232.705,262.801,232.705z" fill="url(#SVGID_1_)"/><path d="M102.822,233.64H87.67v49.94h15.071c7.997,0,13.779-1.789,18.852-5.761c6.02-4.717,9.59-11.83,9.59-19.183    C131.183,243.892,119.527,233.64,102.822,233.64z M114.869,271.149c-3.258,2.78-7.451,3.977-14.116,3.977h-2.769v-33.029h2.769    c6.666,0,10.698,1.125,14.116,4.041c3.563,2.996,5.69,7.634,5.69,12.426C120.559,263.364,118.432,268.167,114.869,271.149z" fill="#081A23"/><rect fill="#081A23" height="49.94" width="10.296" x="135.94" y="233.64"/><path d="M171.443,252.797c-6.19-2.166-8.009-3.596-8.009-6.281c0-3.148,3.241-5.542,7.686-5.542    c3.089,0,5.624,1.196,8.328,4.033l5.379-6.652c-4.435-3.679-9.744-5.548-15.532-5.548c-9.341,0-16.477,6.144-16.477,14.299    c0,6.895,3.324,10.411,12.995,13.715c4.042,1.34,6.098,2.235,7.129,2.846c2.062,1.273,3.096,3.064,3.096,5.161    c0,4.049-3.411,7.04-8.013,7.04c-4.912,0-8.868-2.319-11.248-6.661l-6.646,6.072c4.744,6.58,10.449,9.51,18.301,9.51    c10.696,0,18.22-6.749,18.22-16.407C186.649,260.444,183.173,256.848,171.443,252.797z" fill="#081A23"/><path d="M189.896,258.636c0,14.693,12.206,26.072,27.899,26.072c4.435,0,8.241-0.828,12.919-2.917v-11.462    c-4.126,3.896-7.77,5.466-12.448,5.466c-10.376,0-17.749-7.116-17.749-17.23c0-9.581,7.602-17.147,17.279-17.147    c4.906,0,8.635,1.648,12.919,5.615v-11.462c-4.514-2.165-8.246-3.058-12.682-3.058    C202.418,232.514,189.896,244.123,189.896,258.636z" fill="#081A23"/><polygon fill="#081A23" points="314.227,267.188 300.122,233.64 288.867,233.64 311.301,284.859 316.843,284.859 339.667,233.64     328.497,233.64   "/><polygon fill="#081A23" points="344.351,283.581 373.588,283.581 373.588,275.126 354.651,275.126 354.651,261.64 372.864,261.64     372.864,253.181 354.651,253.181 354.651,242.098 373.588,242.098 373.588,233.64 344.351,233.64   "/><path d="M414.382,248.381c0-9.356-6.803-14.74-18.694-14.74h-15.296v49.94h10.311v-20.07h1.349l14.257,20.07    h12.676l-16.648-21.035C410.114,261.043,414.382,256.024,414.382,248.381z M393.702,256.627h-2.999v-15.132h3.162    c6.433,0,9.919,2.554,9.919,7.413C403.785,253.922,400.299,256.627,393.702,256.627z" fill="#081A23"/></g></g></svg>