<?xml version="1.0" ?><!DOCTYPE svg  PUBLIC '-//W3C//DTD SVG 1.1//EN'  'http://www.w3.org/Graphics/SVG/1.1/DTD/svg11.dtd'><svg enable-background="new 0 0 512 512" height="512px" id="Layer_1" version="1.1" viewBox="0 0 512 512" width="512px" xml:space="preserve" xmlns="http://www.w3.org/2000/svg" xmlns:xlink="http://www.w3.org/1999/xlink"><g id="JCB"><circle cx="256" cy="256" fill="#D6D6D6" r="256"/><g id="Layer_23"><path d="M301.657,250.5c0.013-7.932,0.08-15.833,0.402-23.823h30.732c9.667,1.32,20.37-3.954,24.859,7.467    c1.38,3.96,1.033,9.226-1.384,12.306c-1.38,3.074-4.486,3.514-5.178,5.713c3.798,1.32,7.942,5.273,9.323,10.107v5.713    c-1.036,5.267-4.489,10.101-8.631,10.98h-48.338l-1.728-0.88c0-4.355-0.022-8.545-0.041-12.817l0.095,97.473l29.195,0.376    c8.082-0.376,15.795-0.752,22.038-4.904c8.079-5.28,13.589-13.958,14.322-23.013c-0.364-95.381-0.364-186.797-0.364-186.797    c-15.059,0.376-28.647-0.223-42.972,1.664c-11.752,3.399-20.934,14.335-22.404,27.164L301.657,250.5z" fill="#5DA246"/><path d="M337.624,256.118c-6.562-1.32-13.123-0.88-19.337-0.44c-0.344,6.594,0,11.86,0.692,18.021    c6.906,0,14.5,1.313,20.714-2.64c1.728-2.194,2.765-5.713,2.073-8.787C341.422,259.632,339.693,257.438,337.624,256.118z" fill="#5DA246"/><path d="M339.693,235.464c-5.522-6.154-13.808-2.193-20.714-3.514c-1.036,4.834-1.036,11.42-0.348,16.7    c7.254-0.439,16.576,3.074,21.409-3.953C341.766,242.058,340.73,237.664,339.693,235.464z" fill="#5DA246"/><path d="M223.556,249.148c0.631-4.84,2.225-9.507,4.706-13.072c4.285-6.268,10.346-9.846,17.124-9.399    l36.385,0.447c0.714,2.684,0,4.923,0.357,8.06c-10.7-3.583-23.9-7.614-33.532,2.232c-3.567,5.376-5.707,10.745-5.35,17.906    c1.068,8.054,4.993,15.667,11.057,18.798c9.275,3.584,18.907,0.447,27.467-2.238c0.357,2.238,0.714,5.369,0,7.16h-41.021    c-7.136-1.792-12.843-6.714-16.053-15.667c-0.587-1.741-0.877-3.679-1.109-5.617l0.411,105.565c15.326,0,32.479,2.27,46.345-2.66    c9.125-3.405,15.693-12.88,18.247-21.604l0.013-177.595v-13.059l-32.125-0.287c-6.935,0.376-13.503,1.518-18.977,5.305    c-7.664,4.929-13.502,12.887-14.233,21.986L223.556,249.148z" fill="#C12145"/><path d="M144.955,258.242l4.773,0.829c8.182-3.322,4.773,8.711,10.91,10.368c3.75,2.908,9.205,3.73,12.954,2.494    c16.024-8.711,6.138-27.796,9.887-44.803c7.499,0.415,13.295-1.237,19.771,0.415l0.345,15.77    c-1.024,8.704,2.043,17.829-3.071,24.467c-7.499,12.862-22.158,11.612-33.41,10.368c-9.204-0.415-16.704-7.053-22.158-15.763    v0.185v98.653l0.364,2.646c15.597-1.511,34.095,3.023,47.879-4.157c21.763-10.208,17.051-35.007,17.048-52.92    c0,0,0.003-138.8,0.003-158.389c-13.059,0-31.922-1.773-46.068,2.767c-9.431,3.781-17.411,13.225-19.225,23.434v83.636H144.955z" fill="#3862A3"/></g></g></svg>