<?xml version="1.0" ?><!DOCTYPE svg  PUBLIC '-//W3C//DTD SVG 1.1//EN'  'http://www.w3.org/Graphics/SVG/1.1/DTD/svg11.dtd'><svg enable-background="new 0 0 512 512" height="512px" id="Layer_1" version="1.1" viewBox="0 0 512 512" width="512px" xml:space="preserve" xmlns="http://www.w3.org/2000/svg" xmlns:xlink="http://www.w3.org/1999/xlink"><g id="Mastercard"><circle cx="256" cy="256" fill="#FED402" r="256"/><g><polygon fill="#F7A826" points="317.191,349.985 322.094,349.857 326.929,349.509 331.672,348.908 336.381,348.084     340.961,347.038 345.478,345.77 349.899,344.28 354.224,342.601 358.452,340.7 362.553,338.64 366.525,336.357 370.401,333.916     374.117,331.287 377.704,328.497 381.164,325.549 384.464,322.413 387.636,319.148 390.615,315.725 393.434,312.175     396.092,308.499 398.558,304.665 400.866,300.733 402.948,296.677 404.87,292.493 406.567,288.216 408.073,283.84     409.356,279.373 410.412,274.84 411.245,270.181 411.853,265.491 412.206,260.706 412.333,255.857 412.206,251.039     411.853,246.286 411.245,241.595 410.412,236.999 409.356,232.468 408.073,228.03 406.567,223.656 404.87,219.409     402.948,215.258 400.866,211.201 398.558,207.303 396.092,203.468 393.434,199.791 390.615,196.273 387.636,192.85     384.464,189.586 381.164,186.48 377.704,183.533 374.117,180.745 370.401,178.113 366.525,175.673 362.553,173.423     358.452,171.363 354.224,169.461 349.899,167.782 345.478,166.292 340.961,165.024 336.381,163.978 331.672,163.154     326.929,162.552 322.094,162.204 317.191,162.077 312.322,162.204 307.485,162.552 302.744,163.154 298.066,163.978     293.487,165.024 288.969,166.292 284.581,167.782 280.257,169.461 276.059,171.363 271.991,173.423 268.019,175.673     264.175,178.113 260.459,180.745 256.871,183.533 253.444,186.48 250.145,189.586 247.005,192.85 244.026,196.273     241.207,199.791 238.58,203.468 236.112,207.303 233.839,211.201 231.725,215.258 229.833,219.409 228.136,223.656     226.663,228.03 225.381,232.468 224.324,236.999 223.491,241.595 222.883,246.286 222.531,251.039 222.403,255.857     222.531,260.706 222.883,265.491 223.491,270.181 224.324,274.84 225.381,279.373 226.663,283.84 228.136,288.216     229.833,292.493 231.725,296.677 233.839,300.733 236.112,304.665 238.58,308.499 241.207,312.175 244.026,315.725     247.005,319.148 250.145,322.413 253.444,325.549 256.871,328.497 260.459,331.287 264.175,333.916 268.019,336.357     271.991,338.64 276.059,340.7 280.257,342.601 284.581,344.28 288.969,345.77 293.487,347.038 298.066,348.084 302.744,348.908     307.485,349.509 312.322,349.857 317.191,349.985   "/><polygon fill="#ED1C2E" points="190.142,349.985 195.012,349.857 199.849,349.509 204.591,348.908 209.268,348.084     213.849,347.038 218.364,345.77 222.754,344.28 227.079,342.601 231.274,340.7 235.343,338.64 239.316,336.357 243.161,333.916     246.877,331.287 250.464,328.497 253.891,325.549 257.192,322.413 260.332,319.148 263.31,315.725 266.129,312.175     268.756,308.499 271.223,304.665 273.497,300.733 275.611,296.677 277.501,292.493 279.2,288.216 280.672,283.84 281.953,279.373     283.012,274.84 283.845,270.181 284.452,265.491 284.806,260.706 284.933,255.857 284.806,251.039 284.452,246.286     283.845,241.595 283.012,236.999 281.953,232.468 280.672,228.03 279.2,223.656 277.501,219.409 275.611,215.258 273.497,211.201     271.223,207.303 268.756,203.468 266.129,199.791 263.31,196.273 260.332,192.85 257.192,189.586 253.891,186.48 250.464,183.533     246.877,180.745 243.161,178.113 239.316,175.673 235.343,173.423 231.274,171.363 227.079,169.461 222.754,167.782     218.364,166.292 213.849,165.024 209.268,163.978 204.591,163.154 199.849,162.552 195.012,162.204 190.142,162.077     185.243,162.204 180.406,162.552 175.664,163.154 170.954,163.978 166.374,165.024 161.857,166.292 157.436,167.782     153.111,169.461 148.884,171.363 144.783,173.423 140.81,175.673 136.935,178.113 133.217,180.745 129.63,183.533 126.171,186.48     122.872,189.586 119.699,192.85 116.719,196.273 113.902,199.791 111.244,203.468 108.776,207.303 106.469,211.201     104.385,215.258 102.465,219.409 100.768,223.656 99.261,228.03 97.98,232.468 96.923,236.999 96.091,241.595 95.481,246.286     95.13,251.039 95,255.857 95.13,260.706 95.481,265.491 96.091,270.181 96.923,274.84 97.98,279.373 99.261,283.84     100.768,288.216 102.465,292.493 104.385,296.677 106.469,300.733 108.776,304.665 111.244,308.499 113.902,312.175     116.719,315.725 119.699,319.148 122.872,322.413 126.171,325.549 129.63,328.497 133.217,331.287 136.935,333.916     140.81,336.357 144.783,338.64 148.884,340.7 153.111,342.601 157.436,344.28 161.857,345.77 166.374,347.038 170.954,348.084     175.664,348.908 180.406,349.509 185.243,349.857 190.142,349.985   "/><polygon fill="#F7A826" points="242.551,198.112 293.006,198.112 293.006,193.009 246.908,193.009 242.551,198.112   "/><polygon fill="#F7A826" points="234.992,209.458 293.006,209.458 293.006,204.355 238.034,204.355 234.992,209.458   "/><polygon fill="#F7A826" points="229.353,220.772 293.006,220.772 293.006,215.669 231.596,215.669 229.353,220.772   "/><polygon fill="#F7A826" points="225.477,232.117 293.006,232.117 293.006,227.015 227.079,227.015 225.477,232.117   "/><polygon fill="#F7A826" points="227.72,286.948 293.167,286.948 293.167,281.845 226.118,281.845 227.72,286.948   "/><polygon fill="#F7A826" points="232.557,298.293 293.167,298.293 293.167,293.192 230.155,293.192 232.557,298.293   "/><polygon fill="#F7A826" points="239.348,309.609 293.167,309.609 293.167,304.506 236.112,304.506 239.348,309.609   "/><polygon fill="#F7A826" points="248.704,320.954 293.167,320.954 293.167,315.82 244.185,315.82 248.704,320.954   "/><polygon fill="#F7A826" points="223.203,243.434 293.006,243.434 293.006,238.33 224.195,238.33 223.203,243.434   "/><polygon fill="#F7A826" points="265.745,275.634 292.366,275.634 292.366,270.531 266.705,270.531 265.745,275.634   "/><polygon fill="#F7A826" points="267.859,264.319 292.366,264.319 292.366,259.184 268.821,259.184 267.859,264.319   "/><polygon fill="#F7A826" points="221.441,259.184 228.361,259.184 228.361,264.319 221.762,264.319 221.441,259.184   "/><polygon fill="#FFFFFF" points="208.532,253.004 208.081,252.973 207.634,252.909 207.217,252.845 206.801,252.783     206.416,252.72 206.001,252.656 205.583,252.592 205.136,252.529 204.687,252.465 204.175,252.433 203.599,252.403 202.99,252.37     202.317,252.37 201.58,252.403 200.747,252.465 199.819,252.529 199.176,252.624 198.569,252.72 198.024,252.909 197.543,253.1     197.095,253.321 196.679,253.575 196.357,253.892 196.068,254.177 195.877,254.525 195.718,254.874 195.653,255.255     195.653,255.636 195.749,256.047 195.877,256.458 196.136,256.871 196.453,257.283 197.095,257.884 197.864,258.361     198.76,258.772 199.721,259.121 200.747,259.437 201.803,259.787 202.86,260.167 203.887,260.58 204.848,261.117 205.744,261.783     206.544,262.576 207.217,263.558 207.731,264.762 208.051,266.19 208.179,267.9 208.051,269.896 207.826,271.386 207.442,272.685     206.928,273.89 206.289,274.935 205.552,275.855 204.719,276.646 203.821,277.345 202.829,277.947 201.803,278.421     200.747,278.834 199.657,279.15 198.537,279.404 197.447,279.594 196.39,279.69 195.333,279.753 194.339,279.785 192.961,279.785     191.681,279.753 190.56,279.753 189.503,279.721 188.542,279.69 187.678,279.626 186.909,279.563 186.17,279.468 185.498,279.404     184.889,279.278 184.282,279.183 183.735,279.024 183.192,278.898 182.678,278.708 182.167,278.518 181.621,278.326     183.063,271.324 183.353,271.386 183.705,271.481 184.152,271.609 184.697,271.735 185.274,271.861 185.915,271.989     186.621,272.146 187.389,272.274 188.19,272.4 189.023,272.526 189.888,272.623 190.785,272.718 191.713,272.75 192.642,272.781     193.571,272.781 194.5,272.75 195.43,272.559 196.165,272.305 196.742,271.956 197.19,271.513 197.51,271.07 197.768,270.561     197.928,270.055 198.057,269.58 198.119,268.661 197.831,267.869 197.288,267.235 196.487,266.696 195.526,266.22     194.404,265.745 193.154,265.301 191.904,264.795 190.624,264.224 189.407,263.558 188.285,262.733 187.26,261.751     186.458,260.547 185.882,259.121 185.594,257.409 185.627,255.381 185.786,254.145 186.012,252.973 186.333,251.895     186.715,250.881 187.227,249.93 187.805,249.106 188.478,248.314 189.278,247.617 190.209,247.015 191.233,246.508     192.385,246.031 193.667,245.683 195.109,245.398 196.679,245.176 198.408,245.049 200.3,245.017 201.483,245.017     202.572,245.049 203.566,245.081 204.464,245.113 205.264,245.176 206.001,245.24 206.64,245.303 207.217,245.366 207.763,245.43     208.211,245.524 208.628,245.588 209.012,245.651 209.332,245.715 209.622,245.746 209.908,245.81 210.165,245.842     208.532,253.004   "/><polyline fill="none" points="208.532,253.004     208.532,253.004 208.081,252.973 207.634,252.909 207.217,252.845 206.801,252.783 206.416,252.72 206.001,252.656     205.583,252.592 205.136,252.529 204.687,252.465 204.175,252.433 203.599,252.403 202.99,252.37 202.317,252.37 201.58,252.403     200.747,252.465 199.819,252.529 199.819,252.529 199.176,252.624 198.569,252.72 198.024,252.909 197.543,253.1 197.095,253.321     196.679,253.575 196.357,253.892 196.068,254.177 195.877,254.525 195.718,254.874 195.653,255.255 195.653,255.636     195.749,256.047 195.877,256.458 196.136,256.871 196.453,257.283 196.453,257.283 197.095,257.884 197.864,258.361     198.76,258.772 199.721,259.121 200.747,259.437 201.803,259.787 202.86,260.167 203.887,260.58 204.848,261.117 205.744,261.783     206.544,262.576 207.217,263.558 207.731,264.762 208.051,266.19 208.179,267.9 208.051,269.896 208.051,269.896 207.826,271.386     207.442,272.685 206.928,273.89 206.289,274.935 205.552,275.855 204.719,276.646 203.821,277.345 202.829,277.947     201.803,278.421 200.747,278.834 199.657,279.15 198.537,279.404 197.447,279.594 196.39,279.69 195.333,279.753 194.339,279.785     194.339,279.785 192.961,279.785 191.681,279.753 190.56,279.753 189.503,279.721 188.542,279.69 187.678,279.626     186.909,279.563 186.17,279.468 185.498,279.404 184.889,279.278 184.282,279.183 183.735,279.024 183.192,278.898     182.678,278.708 182.167,278.518 181.621,278.326 183.063,271.324 183.063,271.324 183.353,271.386 183.705,271.481     184.152,271.609 184.697,271.735 185.274,271.861 185.915,271.989 186.621,272.146 187.389,272.274 188.19,272.4 189.023,272.526     189.888,272.623 190.785,272.718 191.713,272.75 192.642,272.781 193.571,272.781 194.5,272.75 194.5,272.75 195.43,272.559     196.165,272.305 196.742,271.956 197.19,271.513 197.51,271.07 197.768,270.561 197.928,270.055 198.057,269.58 198.057,269.58     198.119,268.661 197.831,267.869 197.288,267.235 196.487,266.696 195.526,266.22 194.404,265.745 193.154,265.301     191.904,264.795 190.624,264.224 189.407,263.558 188.285,262.733 187.26,261.751 186.458,260.547 185.882,259.121     185.594,257.409 185.627,255.381 185.627,255.381 185.786,254.145 186.012,252.973 186.333,251.895 186.715,250.881     187.227,249.93 187.805,249.106 188.478,248.314 189.278,247.617 190.209,247.015 191.233,246.508 192.385,246.031     193.667,245.683 195.109,245.398 196.679,245.176 198.408,245.049 200.3,245.017 200.3,245.017 201.483,245.017 202.572,245.049     203.566,245.081 204.464,245.113 205.264,245.176 206.001,245.24 206.64,245.303 207.217,245.366 207.763,245.43 208.211,245.524     208.628,245.588 209.012,245.651 209.332,245.715 209.622,245.746 209.908,245.81 210.165,245.842 208.532,253.004   " stroke="#FFFFFF" stroke-miterlimit="2.6131" stroke-width="0.216"/><polygon fill="#FFFFFF" points="216.124,238.014 224.997,238.014 223.683,245.683 229.034,245.683 227.879,252.845     222.242,252.688 219.167,270.372 219.135,271.005 219.295,271.544 219.616,271.956 220.031,272.305 220.607,272.526     221.251,272.718 221.952,272.844 222.722,272.906 223.427,272.875 224.067,272.812 224.646,272.718 225.156,272.591     225.573,272.464 225.862,272.369 226.054,272.305 226.118,272.274 224.997,278.169 224.773,278.326 224.548,278.454     224.324,278.58 224.099,278.708 223.876,278.803 223.619,278.898 223.331,278.993 223.042,279.088 222.722,279.183     222.403,279.245 222.019,279.309 221.634,279.373 221.217,279.436 220.736,279.499 220.223,279.563 219.679,279.626     217.244,279.626 215.962,279.531 214.843,279.404 213.816,279.214 212.951,278.993 212.215,278.708 211.606,278.39     211.061,278.01 210.645,277.598 210.326,277.155 210.1,276.615 209.94,276.076 209.844,275.475 209.812,274.81 209.812,274.111     209.908,273.384 210.004,272.591 216.124,238.014   "/><polyline fill="none" points="216.124,238.014     224.997,238.014 223.683,245.683 229.034,245.683 227.879,252.845 222.242,252.688 219.167,270.372 219.167,270.372     219.135,271.005 219.295,271.544 219.616,271.956 220.031,272.305 220.607,272.526 221.251,272.718 221.952,272.844     222.722,272.906 222.722,272.906 223.427,272.875 224.067,272.812 224.646,272.718 225.156,272.591 225.573,272.464     225.862,272.369 226.054,272.305 226.118,272.274 224.997,278.169 224.997,278.169 224.773,278.326 224.548,278.454     224.324,278.58 224.099,278.708 223.876,278.803 223.619,278.898 223.331,278.993 223.042,279.088 222.722,279.183     222.403,279.245 222.019,279.309 221.634,279.373 221.217,279.436 220.736,279.499 220.223,279.563 219.679,279.626     217.244,279.626 217.244,279.626 215.962,279.531 214.843,279.404 213.816,279.214 212.951,278.993 212.215,278.708     211.606,278.39 211.061,278.01 210.645,277.598 210.326,277.155 210.1,276.615 209.94,276.076 209.844,275.475 209.812,274.81     209.812,274.111 209.908,273.384 210.004,272.591 216.124,238.014   " stroke="#FFFFFF" stroke-miterlimit="2.6131" stroke-width="0.216"/><polygon fill="#FFFFFF" points="236.112,264.795 236.015,265.332 235.986,265.903 236.049,266.506 236.177,267.107     236.401,267.71 236.658,268.281 237.009,268.882 237.393,269.421 237.842,269.96 238.324,270.435 238.836,270.911     239.413,271.291 239.989,271.64 240.63,271.925 241.27,272.146 241.912,272.274 242.744,272.4 243.545,272.495 244.377,272.591     245.21,272.654 246.043,272.685 246.908,272.685 247.741,272.654 248.607,272.591 249.473,272.464 250.337,272.305     251.233,272.115 252.099,271.83 252.994,271.481 253.923,271.101 254.82,270.594 255.75,270.055 254.468,277.851 253.956,278.105     253.444,278.358 252.931,278.549 252.45,278.739 251.97,278.898 251.457,279.055 250.944,279.183 250.399,279.278     249.824,279.373 249.184,279.436 248.511,279.499 247.773,279.563 246.942,279.594 246.076,279.594 245.082,279.626     244.026,279.626 242.456,279.594 240.854,279.436 239.252,279.214 237.651,278.834 236.082,278.358 234.574,277.756     233.134,276.965 231.789,276.045 230.539,274.968 229.449,273.669 228.522,272.21 227.752,270.531 227.206,268.661     226.855,266.537 226.759,264.191 226.92,261.592 227.047,260.58 227.24,259.406 227.494,258.17 227.849,256.838 228.33,255.477     228.906,254.113 229.641,252.72 230.539,251.388 231.563,250.12 232.813,248.916 234.223,247.838 235.825,246.888     237.681,246.096 239.765,245.524 242.071,245.144 244.665,245.017 245.914,245.049 247.23,245.176 248.541,245.398     249.857,245.715 251.137,246.19 252.387,246.761 253.54,247.521 254.597,248.409 255.558,249.487 256.358,250.754     256.999,252.212 257.448,253.892 257.704,255.793 257.736,257.948 257.512,260.357 257.031,263.02 256.871,264.952     233.517,264.952 234.992,258.708 249.022,258.708 249.088,257.917 249.055,257.156 248.991,256.458 248.863,255.826     248.637,255.223 248.414,254.684 248.094,254.208 247.773,253.765 247.389,253.385 246.972,253.067 246.492,252.783     246.012,252.529 245.5,252.338 244.986,252.212 244.442,252.117 243.865,252.053 243.257,252.085 242.681,252.18 242.134,252.307     241.591,252.497 241.046,252.75 240.565,253.036 240.085,253.385 239.669,253.765 239.252,254.208 238.868,254.684     238.515,255.19 238.228,255.731 237.939,256.301 237.715,256.935 237.523,257.568 237.393,258.233 236.112,264.795   "/><polyline fill="none" points="236.112,264.795     236.112,264.795 236.015,265.332 235.986,265.903 236.049,266.506 236.177,267.107 236.401,267.71 236.658,268.281     237.009,268.882 237.393,269.421 237.842,269.96 238.324,270.435 238.836,270.911 239.413,271.291 239.989,271.64 240.63,271.925     241.27,272.146 241.912,272.274 241.912,272.274 242.744,272.4 243.545,272.495 244.377,272.591 245.21,272.654 246.043,272.685     246.908,272.685 247.741,272.654 248.607,272.591 249.473,272.464 250.337,272.305 251.233,272.115 252.099,271.83     252.994,271.481 253.923,271.101 254.82,270.594 255.75,270.055 254.468,277.851 254.468,277.851 253.956,278.105     253.444,278.358 252.931,278.549 252.45,278.739 251.97,278.898 251.457,279.055 250.944,279.183 250.399,279.278     249.824,279.373 249.184,279.436 248.511,279.499 247.773,279.563 246.942,279.594 246.076,279.594 245.082,279.626     244.026,279.626 244.026,279.626 242.456,279.594 240.854,279.436 239.252,279.214 237.651,278.834 236.082,278.358     234.574,277.756 233.134,276.965 231.789,276.045 230.539,274.968 229.449,273.669 228.522,272.21 227.752,270.531     227.206,268.661 226.855,266.537 226.759,264.191 226.92,261.592 226.92,261.592 227.047,260.58 227.24,259.406 227.494,258.17     227.849,256.838 228.33,255.477 228.906,254.113 229.641,252.72 230.539,251.388 231.563,250.12 232.813,248.916 234.223,247.838     235.825,246.888 237.681,246.096 239.765,245.524 242.071,245.144 244.665,245.017 244.665,245.017 245.914,245.049     247.23,245.176 248.541,245.398 249.857,245.715 251.137,246.19 252.387,246.761 253.54,247.521 254.597,248.409 255.558,249.487     256.358,250.754 256.999,252.212 257.448,253.892 257.704,255.793 257.736,257.948 257.512,260.357 257.031,263.02     256.871,264.952 233.517,264.952 234.992,258.708 249.022,258.708 249.022,258.708 249.088,257.917 249.055,257.156     248.991,256.458 248.863,255.826 248.637,255.223 248.414,254.684 248.094,254.208 247.773,253.765 247.389,253.385     246.972,253.067 246.492,252.783 246.012,252.529 245.5,252.338 244.986,252.212 244.442,252.117 243.865,252.053     243.865,252.053 243.257,252.085 242.681,252.18 242.134,252.307 241.591,252.497 241.046,252.75 240.565,253.036     240.085,253.385 239.669,253.765 239.252,254.208 238.868,254.684 238.515,255.19 238.228,255.731 237.939,256.301     237.715,256.935 237.523,257.568 237.393,258.233 236.112,264.795   " stroke="#FFFFFF" stroke-miterlimit="2.6131" stroke-width="0.216"/><polygon fill="#FFFFFF" points="312.514,247.585 312.098,247.363 311.682,247.173 311.234,246.951 310.753,246.729     310.273,246.539 309.727,246.349 309.183,246.159 308.606,245.968 307.998,245.81 307.389,245.683 306.717,245.556     306.044,245.462 305.307,245.398 304.569,245.335 303.801,245.335 303.001,245.335 302.2,245.335 301.366,245.398     300.501,245.493 299.606,245.651 298.707,245.905 297.812,246.254 296.914,246.698 296.016,247.268 295.153,247.965     294.319,248.789 293.518,249.803 292.749,250.976 292.045,252.37 291.371,253.955 290.764,255.731 290.252,257.758     290.059,258.898 289.93,260.008 289.866,261.117 289.899,262.196 289.995,263.272 290.219,264.287 290.507,265.237     290.859,266.19 291.34,267.045 291.916,267.869 292.589,268.597 293.357,269.262 294.224,269.832 295.216,270.309     296.306,270.721 297.524,271.005 297.939,271.101 298.419,271.196 298.995,271.26 299.637,271.324 300.341,271.386     301.078,271.386 301.88,271.386 302.68,271.324 303.513,271.227 304.346,271.07 305.146,270.848 305.948,270.594 306.748,270.245     307.485,269.832 308.158,269.326 308.798,268.756 307.358,277.218 307.165,277.376 306.973,277.565 306.717,277.788     306.429,277.978 306.075,278.232 305.626,278.454 305.115,278.675 304.538,278.865 303.801,279.088 302.968,279.245     302.008,279.373 300.886,279.499 299.637,279.563 298.196,279.594 296.56,279.563 294.767,279.468 293.294,279.309     291.82,278.993 290.347,278.518 288.873,277.884 287.464,277.123 286.119,276.171 284.837,275.063 283.652,273.795     282.595,272.369 281.698,270.784 280.929,269.01 280.353,267.076 279.969,264.952 279.84,262.702 279.904,260.23 280.257,257.601     280.511,256.301 280.8,255.033 281.121,253.797 281.441,252.624 281.794,251.515 282.209,250.405 282.627,249.36 283.074,248.377     283.557,247.394 284.037,246.476 284.581,245.588 285.156,244.764 285.733,243.972 286.376,243.211 287.015,242.514     287.687,241.849 288.424,241.215 289.162,240.612 289.93,240.074 290.732,239.567 291.597,239.09 292.461,238.679     293.357,238.299 294.287,237.95 295.281,237.633 296.273,237.379 297.298,237.158 298.388,236.967 299.476,236.809     300.631,236.682 301.784,236.619 303.001,236.587 304.026,236.619 305.019,236.682 305.979,236.776 306.941,236.904     307.838,237.031 308.703,237.221 309.536,237.379 310.304,237.569 311.041,237.76 311.682,237.95 312.29,238.14 312.804,238.33     313.251,238.489 313.636,238.615 313.925,238.742 314.116,238.806 312.514,247.585   "/><polyline fill="none" points="312.514,247.585     312.514,247.585 312.098,247.363 311.682,247.173 311.234,246.951 310.753,246.729 310.273,246.539 309.727,246.349     309.183,246.159 308.606,245.968 307.998,245.81 307.389,245.683 306.717,245.556 306.044,245.462 305.307,245.398     304.569,245.335 303.801,245.335 303.001,245.335 303.001,245.335 302.2,245.335 301.366,245.398 300.501,245.493     299.606,245.651 298.707,245.905 297.812,246.254 296.914,246.698 296.016,247.268 295.153,247.965 294.319,248.789     293.518,249.803 292.749,250.976 292.045,252.37 291.371,253.955 290.764,255.731 290.252,257.758 290.252,257.758     290.059,258.898 289.93,260.008 289.866,261.117 289.899,262.196 289.995,263.272 290.219,264.287 290.507,265.237     290.859,266.19 291.34,267.045 291.916,267.869 292.589,268.597 293.357,269.262 294.224,269.832 295.216,270.309     296.306,270.721 297.524,271.005 297.524,271.005 297.939,271.101 298.419,271.196 298.995,271.26 299.637,271.324     300.341,271.386 301.078,271.386 301.88,271.386 302.68,271.324 303.513,271.227 304.346,271.07 305.146,270.848 305.948,270.594     306.748,270.245 307.485,269.832 308.158,269.326 308.798,268.756 307.358,277.218 307.358,277.218 307.165,277.376     306.973,277.565 306.717,277.788 306.429,277.978 306.075,278.232 305.626,278.454 305.115,278.675 304.538,278.865     303.801,279.088 302.968,279.245 302.008,279.373 300.886,279.499 299.637,279.563 298.196,279.594 296.56,279.563     294.767,279.468 294.767,279.468 293.294,279.309 291.82,278.993 290.347,278.518 288.873,277.884 287.464,277.123     286.119,276.171 284.837,275.063 283.652,273.795 282.595,272.369 281.698,270.784 280.929,269.01 280.353,267.076     279.969,264.952 279.84,262.702 279.904,260.23 280.257,257.601 280.257,257.601 280.511,256.301 280.8,255.033 281.121,253.797     281.441,252.624 281.794,251.515 282.209,250.405 282.627,249.36 283.074,248.377 283.557,247.394 284.037,246.476     284.581,245.588 285.156,244.764 285.733,243.972 286.376,243.211 287.015,242.514 287.687,241.849 288.424,241.215     289.162,240.612 289.93,240.074 290.732,239.567 291.597,239.09 292.461,238.679 293.357,238.299 294.287,237.95 295.281,237.633     296.273,237.379 297.298,237.158 298.388,236.967 299.476,236.809 300.631,236.682 301.784,236.619 303.001,236.587     303.001,236.587 304.026,236.619 305.019,236.682 305.979,236.776 306.941,236.904 307.838,237.031 308.703,237.221     309.536,237.379 310.304,237.569 311.041,237.76 311.682,237.95 312.29,238.14 312.804,238.33 313.251,238.489 313.636,238.615     313.925,238.742 314.116,238.806 312.514,247.585   " stroke="#FFFFFF" stroke-miterlimit="2.6131" stroke-width="0.216"/><polygon fill="#FFFFFF" points="391.383,279.626 382.509,279.626 383.15,276.109 383.15,275.791 382.637,276.425 382.093,276.995     381.549,277.504 380.973,277.947 380.396,278.358 379.819,278.708 379.243,278.993 378.633,279.278 378.026,279.499     377.416,279.658 376.808,279.817 376.167,279.912 375.526,280.007 374.918,280.07 374.277,280.103 373.636,280.103     371.971,279.975 370.433,279.626 369.023,279.088 367.743,278.358 366.588,277.439 365.562,276.363 364.666,275.19     363.898,273.859 363.257,272.431 362.745,270.944 362.392,269.39 362.135,267.774 362.039,266.157 362.072,264.508     362.232,262.892 362.522,261.276 363.001,259.406 363.579,257.631 364.251,256.016 365.051,254.494 365.884,253.067     366.844,251.8 367.839,250.66 368.895,249.613 370.017,248.694 371.201,247.901 372.42,247.205 373.636,246.666 374.918,246.222     376.198,245.938 377.481,245.746 378.794,245.683 379.723,245.715 380.619,245.81 381.452,245.968 382.221,246.19     382.959,246.444 383.599,246.729 384.241,247.078 384.817,247.426 385.329,247.806 385.809,248.218 386.225,248.63     386.611,249.043 386.93,249.455 387.219,249.866 387.475,250.247 387.667,250.628 387.667,250.628 389.91,238.172     398.623,238.172 391.383,279.626   "/><polyline fill="none" points="391.383,279.626     382.509,279.626 383.15,276.109 383.15,275.791 383.15,275.791 382.637,276.425 382.093,276.995 381.549,277.504 380.973,277.947     380.396,278.358 379.819,278.708 379.243,278.993 378.633,279.278 378.026,279.499 377.416,279.658 376.808,279.817     376.167,279.912 375.526,280.007 374.918,280.07 374.277,280.103 373.636,280.103 373.636,280.103 371.971,279.975     370.433,279.626 369.023,279.088 367.743,278.358 366.588,277.439 365.562,276.363 364.666,275.19 363.898,273.859     363.257,272.431 362.745,270.944 362.392,269.39 362.135,267.774 362.039,266.157 362.072,264.508 362.232,262.892     362.522,261.276 362.522,261.276 363.001,259.406 363.579,257.631 364.251,256.016 365.051,254.494 365.884,253.067     366.844,251.8 367.839,250.66 368.895,249.613 370.017,248.694 371.201,247.901 372.42,247.205 373.636,246.666 374.918,246.222     376.198,245.938 377.481,245.746 378.794,245.683 378.794,245.683 379.723,245.715 380.619,245.81 381.452,245.968     382.221,246.19 382.959,246.444 383.599,246.729 384.241,247.078 384.817,247.426 385.329,247.806 385.809,248.218     386.225,248.63 386.611,249.043 386.93,249.455 387.219,249.866 387.475,250.247 387.667,250.628 387.667,250.628 389.91,238.172     398.623,238.172 391.383,279.626   " stroke="#FFFFFF" stroke-miterlimit="2.6131" stroke-width="0.216"/><polygon fill="#FCB331" points="376.873,271.956 377.769,271.894 378.602,271.704 379.371,271.481 380.107,271.132     380.78,270.752 381.421,270.277 382.029,269.739 382.574,269.167 383.054,268.534 383.504,267.836 383.919,267.107     384.272,266.347 384.592,265.555 384.848,264.731 385.072,263.875 385.233,263.02 385.393,262.131 385.489,261.212     385.489,260.357 385.456,259.47 385.362,258.646 385.233,257.853 385.009,257.093 384.752,256.364 384.432,255.731     384.048,255.127 383.631,254.62 383.15,254.177 382.606,253.797 382.029,253.543 381.421,253.385 380.749,253.321     379.883,253.385 379.083,253.512 378.345,253.765 377.608,254.082 376.967,254.494 376.328,255.002 375.783,255.54     375.238,256.142 374.757,256.838 374.309,257.568 373.893,258.328 373.54,259.152 373.22,260.008 372.964,260.863     372.707,261.783 372.516,262.702 372.356,264.097 372.42,265.618 372.644,267.171 373.06,268.661 373.7,269.96 374.534,271.005     375.591,271.704 376.873,271.956   "/><polygon fill="#FFFFFF" points="180.147,272.591 178.867,279.626 170.795,279.626 171.019,278.326 171.18,277.155     171.307,276.268 171.434,275.791 170.987,276.299 170.474,276.805 169.866,277.281 169.194,277.725 168.424,278.169     167.623,278.549 166.79,278.929 165.925,279.245 164.996,279.531 164.067,279.753 163.139,279.944 162.178,280.07     161.248,280.133 160.32,280.165 159.422,280.07 158.558,279.944 157.436,279.658 156.411,279.342 155.515,278.929     154.715,278.454 154.009,277.947 153.368,277.376 152.856,276.774 152.405,276.14 152.022,275.475 151.703,274.776     151.446,274.08 151.253,273.384 151.125,272.654 151.029,271.925 150.965,271.227 150.965,270.531 151.06,269.295     151.253,268.121 151.574,267.012 151.99,265.935 152.502,264.921 153.08,264.002 153.752,263.115 154.523,262.322     155.322,261.592 156.218,260.927 157.148,260.326 158.109,259.818 159.134,259.376 160.191,259.026 161.281,258.741     162.401,258.551 162.466,258.551 162.626,258.518 162.851,258.487 163.202,258.456 163.586,258.392 164.035,258.361     164.515,258.297 165.061,258.233 165.606,258.17 166.15,258.107 166.727,258.076 167.239,258.012 167.751,257.981 168.23,257.948     168.68,257.917 169.033,257.917 169.77,257.917 170.538,257.948 171.243,257.981 171.948,257.981 172.525,258.012     172.973,258.043 173.293,258.076 173.389,258.076 173.454,257.853 173.646,257.283 173.806,256.617 173.87,256.016     173.742,255.317 173.454,254.684 173.07,254.113 172.558,253.638 171.948,253.226 171.275,252.941 170.508,252.75     169.672,252.688 168.778,252.656 167.816,252.624 166.823,252.624 165.796,252.656 164.739,252.72 163.716,252.813     162.69,252.909 161.696,253.036 160.736,253.163 159.807,253.321 158.975,253.48 158.206,253.638 157.501,253.829     156.925,254.018 156.476,254.24 156.123,254.43 158.399,246.792 159.101,246.508 159.807,246.254 160.575,246.031     161.344,245.873 162.112,245.715 162.947,245.588 163.779,245.462 164.643,245.398 165.542,245.335 166.468,245.303     167.431,245.271 168.424,245.271 169.451,245.271 170.508,245.271 171.627,245.303 172.749,245.335 173.646,245.398     174.607,245.556 175.599,245.778 176.625,246.063 177.618,246.444 178.579,246.888 179.541,247.426 180.437,248.028     181.237,248.726 181.943,249.487 182.582,250.342 183.063,251.293 183.384,252.307 183.577,253.385 183.577,254.589     183.384,255.857 180.147,272.591   "/><polyline fill="none" points="180.147,272.591     178.867,279.626 170.795,279.626 170.795,279.626 171.019,278.326 171.18,277.155 171.307,276.268 171.434,275.791     171.434,275.791 170.987,276.299 170.474,276.805 169.866,277.281 169.194,277.725 168.424,278.169 167.623,278.549     166.79,278.929 165.925,279.245 164.996,279.531 164.067,279.753 163.139,279.944 162.178,280.07 161.248,280.133 160.32,280.165     159.422,280.07 158.558,279.944 158.558,279.944 157.436,279.658 156.411,279.342 155.515,278.929 154.715,278.454     154.009,277.947 153.368,277.376 152.856,276.774 152.405,276.14 152.022,275.475 151.703,274.776 151.446,274.08     151.253,273.384 151.125,272.654 151.029,271.925 150.965,271.227 150.965,270.531 150.965,270.531 151.06,269.295     151.253,268.121 151.574,267.012 151.99,265.935 152.502,264.921 153.08,264.002 153.752,263.115 154.523,262.322     155.322,261.592 156.218,260.927 157.148,260.326 158.109,259.818 159.134,259.376 160.191,259.026 161.281,258.741     162.401,258.551 162.401,258.551 162.466,258.551 162.626,258.518 162.851,258.487 163.202,258.456 163.586,258.392     164.035,258.361 164.515,258.297 165.061,258.233 165.606,258.17 166.15,258.107 166.727,258.076 167.239,258.012     167.751,257.981 168.23,257.948 168.68,257.917 169.033,257.917 169.033,257.917 169.77,257.917 170.538,257.948 171.243,257.981     171.948,257.981 172.525,258.012 172.973,258.043 173.293,258.076 173.389,258.076 173.389,258.076 173.454,257.853     173.646,257.283 173.806,256.617 173.87,256.016 173.87,256.016 173.742,255.317 173.454,254.684 173.07,254.113 172.558,253.638     171.948,253.226 171.275,252.941 170.508,252.75 169.672,252.688 169.672,252.688 168.778,252.656 167.816,252.624     166.823,252.624 165.796,252.656 164.739,252.72 163.716,252.813 162.69,252.909 161.696,253.036 160.736,253.163     159.807,253.321 158.975,253.48 158.206,253.638 157.501,253.829 156.925,254.018 156.476,254.24 156.123,254.43 158.399,246.792     158.399,246.792 159.101,246.508 159.807,246.254 160.575,246.031 161.344,245.873 162.112,245.715 162.947,245.588     163.779,245.462 164.643,245.398 165.542,245.335 166.468,245.303 167.431,245.271 168.424,245.271 169.451,245.271     170.508,245.271 171.627,245.303 172.749,245.335 172.749,245.335 173.646,245.398 174.607,245.556 175.599,245.778     176.625,246.063 177.618,246.444 178.579,246.888 179.541,247.426 180.437,248.028 181.237,248.726 181.943,249.487     182.582,250.342 183.063,251.293 183.384,252.307 183.577,253.385 183.577,254.589 183.384,255.857 180.147,272.591   " stroke="#FFFFFF" stroke-miterlimit="2.6131" stroke-width="0.216"/><polygon fill="#ED1C2E" points="172.428,264.319 172.395,264.161 172.268,264.002 172.076,263.906 171.756,263.843     171.404,263.78 170.987,263.747 170.508,263.747 170.027,263.747 169.513,263.78 168.968,263.843 168.456,263.906 167.943,263.97     167.462,264.033 167.015,264.13 166.631,264.224 166.278,264.319 166.053,264.382 165.796,264.477 165.445,264.604     165.094,264.762 164.676,264.952 164.259,265.175 163.812,265.396 163.394,265.65 162.947,265.966 162.529,266.283     162.145,266.664 161.793,267.045 161.472,267.457 161.248,267.9 161.055,268.407 160.959,268.914 160.928,269.991     161.089,270.848 161.41,271.481 161.824,271.956 162.304,272.274 162.851,272.464 163.363,272.559 163.875,272.591     164.836,272.559 165.7,272.464 166.535,272.336 167.27,272.146 167.912,271.925 168.519,271.64 169.064,271.355 169.546,271.005     169.962,270.69 170.347,270.309 170.665,269.96 170.923,269.58 171.146,269.2 171.339,268.819 171.499,268.47 171.595,268.121     171.852,267.203 172.076,266.157 172.268,265.142 172.428,264.319   "/><polygon fill="#FFFFFF" points="112.748,279.626 104.035,279.626 111.307,238.014 126.46,238.014 127.9,262.702 138.376,238.014     154.201,238.014 146.769,279.626 138.055,279.626 143.565,248.536 143.212,248.536 130.175,279.626 120.34,279.626     120.276,278.326 120.052,274.872 119.765,269.96 119.443,264.319 119.124,258.646 118.835,253.67 118.612,250.057     118.547,248.536 118.449,248.536 118.258,248.536 118.067,248.536 118.067,248.536 112.748,279.626   "/><polyline fill="none" points="112.748,279.626     104.035,279.626 111.307,238.014 126.46,238.014 127.9,262.702 138.376,238.014 154.201,238.014 146.769,279.626 138.055,279.626     143.565,248.536 143.212,248.536 130.175,279.626 120.34,279.626 120.34,279.626 120.276,278.326 120.052,274.872 119.765,269.96     119.443,264.319 119.124,258.646 118.835,253.67 118.612,250.057 118.547,248.536 118.547,248.536 118.449,248.536     118.258,248.536 118.067,248.536 118.067,248.536 112.748,279.626   " stroke="#FFFFFF" stroke-miterlimit="2.6131" stroke-width="0.216"/><polygon fill="#FFFFFF" points="339.136,272.591 337.823,279.626 329.782,279.626 329.845,278.326 329.879,277.185     329.879,276.33 329.941,275.95 329.525,276.425 329.045,276.9 328.469,277.345 327.827,277.788 327.155,278.199 326.385,278.58     325.585,278.96 324.785,279.278 323.919,279.531 323.023,279.785 322.124,279.944 321.228,280.07 320.299,280.133     319.402,280.165 318.536,280.07 317.672,279.944 316.519,279.658 315.494,279.342 314.598,278.929 313.764,278.454     313.059,277.947 312.451,277.376 311.937,276.774 311.49,276.14 311.106,275.475 310.817,274.776 310.561,274.08 310.4,273.384     310.273,272.654 310.177,271.925 310.112,271.227 310.112,270.531 310.177,269.295 310.369,268.121 310.657,267.012     311.073,265.935 311.553,264.921 312.163,264.002 312.835,263.115 313.572,262.322 314.406,261.592 315.27,260.927     316.198,260.326 317.191,259.818 318.185,259.376 319.242,259.026 320.299,258.741 321.389,258.551 321.452,258.551     321.613,258.518 321.836,258.487 322.158,258.456 322.573,258.392 323.023,258.361 323.503,258.297 324.014,258.233     324.559,258.17 325.136,258.107 325.681,258.076 326.226,258.012 326.738,257.981 327.187,257.948 327.635,257.917     327.988,257.917 328.757,257.917 329.525,257.948 330.26,257.981 330.966,257.981 331.576,258.012 332.088,258.043     332.376,258.076 332.505,258.076 332.568,257.853 332.664,257.283 332.76,256.617 332.825,256.016 332.696,255.317     332.441,254.684 332.023,254.113 331.543,253.638 330.966,253.226 330.294,252.941 329.589,252.75 328.82,252.688     327.923,252.656 326.963,252.624 325.969,252.624 324.943,252.656 323.887,252.72 322.862,252.813 321.836,252.909     320.844,253.036 319.882,253.163 318.954,253.321 318.121,253.48 317.353,253.638 316.647,253.829 316.071,254.018     315.622,254.24 315.27,254.43 317.513,246.792 318.217,246.508 318.954,246.254 319.69,246.031 320.46,245.873 321.26,245.715     322.061,245.588 322.893,245.462 323.759,245.398 324.656,245.335 325.585,245.303 326.514,245.271 327.506,245.271     328.5,245.271 329.525,245.271 330.614,245.303 331.704,245.335 332.6,245.398 333.562,245.556 334.555,245.778 335.58,246.063     336.573,246.444 337.565,246.888 338.526,247.426 339.424,248.028 340.224,248.726 340.961,249.487 341.602,250.342     342.082,251.293 342.436,252.307 342.659,253.385 342.659,254.589 342.498,255.857 339.136,272.591   "/><polygon fill="#FFFFFF" points="337.823,279.848 338.015,279.658 339.328,272.623 338.944,272.559 337.63,279.594     337.823,279.404 337.823,279.848 337.982,279.817 338.015,279.658 337.823,279.848   "/><polygon fill="#FFFFFF" points="329.589,279.626 329.782,279.848 337.823,279.848 337.823,279.404 329.782,279.404     329.972,279.626 329.589,279.626 329.557,279.848 329.782,279.848 329.589,279.626   "/><polygon fill="#FFFFFF" points="330.102,276.076 329.813,275.824 329.684,276.33 329.653,277.185 329.653,278.326     329.589,279.626 329.972,279.626 330.037,278.326 330.102,277.185 330.069,276.33 330.069,276.076 329.782,275.824     330.102,276.076   "/><polygon fill="#FFFFFF" points="317.641,280.133 317.641,280.133 318.536,280.259 319.402,280.355 320.299,280.324     321.228,280.259 322.158,280.133 323.053,279.975 323.952,279.721 324.848,279.468 325.65,279.15 326.481,278.77 327.25,278.39     327.923,277.947 328.596,277.504 329.173,277.059 329.684,276.551 330.102,276.076 329.782,275.824 329.365,276.299     328.916,276.743 328.34,277.185 327.732,277.63 327.06,278.01 326.288,278.39 325.52,278.77 324.72,279.088 323.887,279.342     322.989,279.594 322.094,279.753 321.228,279.88 320.299,279.944 319.402,279.975 318.536,279.88 317.706,279.753     317.706,279.753 317.641,280.133   "/><polygon fill="#FFFFFF" points="309.888,270.531 309.888,270.531 309.92,271.227 309.984,271.925 310.079,272.685     310.208,273.415 310.369,274.111 310.624,274.84 310.914,275.57 311.329,276.235 311.778,276.9 312.29,277.504 312.931,278.105     313.669,278.613 314.502,279.119 315.429,279.531 316.488,279.848 317.641,280.133 317.706,279.753 316.551,279.468     315.558,279.15 314.693,278.739 313.86,278.295 313.187,277.788 312.61,277.249 312.098,276.646 311.649,276.045 311.298,275.379     311.01,274.714 310.753,274.049 310.593,273.351 310.465,272.623 310.369,271.925 310.304,271.227 310.336,270.531     310.336,270.531 309.888,270.531   "/><polygon fill="#FFFFFF" points="321.389,258.361 321.389,258.361 320.268,258.551 319.178,258.836 318.121,259.184     317.096,259.628 316.101,260.136 315.141,260.768 314.276,261.436 313.443,262.196 312.675,262.987 312.002,263.875     311.361,264.825 310.881,265.871 310.465,266.95 310.177,268.09 309.984,269.295 309.888,270.531 310.336,270.531     310.369,269.295 310.561,268.152 310.85,267.076 311.265,265.999 311.746,265.016 312.322,264.13 312.994,263.241 313.7,262.45     314.533,261.751 315.398,261.086 316.294,260.516 317.288,260.008 318.248,259.565 319.305,259.216 320.331,258.931     321.389,258.741 321.389,258.741 321.389,258.361   "/><polygon fill="#FFFFFF" points="327.988,257.696 327.988,257.696 327.635,257.696 327.187,257.758 326.738,257.79     326.226,257.822 325.681,257.884 325.136,257.917 324.559,257.981 324.014,258.043 323.503,258.107 323.023,258.17     322.573,258.202 322.158,258.266 321.836,258.297 321.579,258.328 321.452,258.361 321.389,258.361 321.389,258.741     321.452,258.741 321.644,258.708 321.836,258.677 322.158,258.646 322.573,258.582 323.023,258.551 323.503,258.487     324.014,258.423 324.559,258.361 325.136,258.297 325.681,258.266 326.226,258.202 326.738,258.17 327.187,258.138     327.635,258.138 327.988,258.138 327.988,258.138 327.988,257.696   "/><polygon fill="#FFFFFF" points="332.311,258.043 332.505,257.884 332.376,257.884 332.088,257.853 331.576,257.822     330.966,257.758 330.26,257.758 329.525,257.758 328.757,257.696 327.988,257.696 327.988,258.138 328.757,258.138     329.525,258.138 330.26,258.202 330.966,258.202 331.576,258.202 332.088,258.233 332.376,258.266 332.505,258.266     332.696,258.107 332.505,258.266 332.664,258.297 332.696,258.107 332.311,258.043   "/><polygon fill="#FFFFFF" points="332.632,256.016 332.6,256.016 332.568,256.617 332.472,257.251 332.376,257.822 332.311,258.043     332.696,258.107 332.76,257.884 332.856,257.314 332.952,256.617 333.049,256.016 333.017,256.016 332.632,256.016   "/><polygon fill="#FFFFFF" points="328.82,252.877 328.82,252.909 329.557,252.941 330.23,253.132 330.87,253.416 331.415,253.797     331.863,254.24 332.248,254.779 332.505,255.35 332.632,256.016 333.017,256.016 332.888,255.286 332.632,254.589     332.184,253.987 331.672,253.48 331.063,253.036 330.358,252.75 329.621,252.56 328.82,252.465 328.82,252.497 328.82,252.877       "/><polygon fill="#FFFFFF" points="315.078,254.399 315.398,254.589 315.717,254.43 316.135,254.208 316.679,254.018     317.384,253.829 318.152,253.67 318.986,253.512 319.915,253.353 320.844,253.226 321.836,253.1 322.862,253.004 323.887,252.909     324.943,252.845 325.969,252.845 326.963,252.845 327.923,252.845 328.82,252.877 328.82,252.497 327.923,252.465     326.963,252.403 325.969,252.403 324.943,252.465 323.887,252.529 322.862,252.624 321.836,252.72 320.844,252.845     319.85,252.973 318.921,253.132 318.09,253.29 317.319,253.448 316.615,253.638 316.006,253.829 315.525,254.05 315.141,254.272     315.462,254.462 315.078,254.399   "/><polygon fill="#FFFFFF" points="317.448,246.602 317.319,246.761 315.078,254.399 315.462,254.462 317.706,246.824     317.576,246.982 317.448,246.602 317.353,246.634 317.319,246.761 317.448,246.602   "/><polygon fill="#FFFFFF" points="331.704,245.144 331.704,245.144 330.614,245.081 329.525,245.049 328.5,245.049 327.506,245.049     326.514,245.049 325.585,245.113 324.656,245.144 323.759,245.208 322.893,245.271 322.028,245.398 321.228,245.524     320.427,245.683 319.658,245.842 318.89,246.063 318.152,246.317 317.448,246.602 317.576,246.982 318.282,246.698     319.017,246.444 319.722,246.222 320.491,246.063 321.293,245.905 322.094,245.778 322.893,245.651 323.759,245.588     324.656,245.524 325.585,245.493 326.514,245.493 327.506,245.493 328.5,245.493 329.525,245.493 330.614,245.524     331.704,245.524 331.704,245.524 331.704,245.144   "/><polygon fill="#FFFFFF" points="342.691,255.888 342.691,255.888 342.851,254.589 342.851,253.385 342.628,252.275     342.275,251.23 341.763,250.247 341.12,249.36 340.352,248.568 339.551,247.87 338.622,247.268 337.662,246.698 336.636,246.254     335.644,245.873 334.587,245.588 333.594,245.366 332.6,245.208 331.704,245.144 331.704,245.524 332.6,245.588 333.529,245.746     334.523,245.968 335.515,246.254 336.508,246.634 337.47,247.078 338.43,247.585 339.295,248.187 340.096,248.884     340.801,249.613 341.441,250.437 341.891,251.356 342.242,252.338 342.467,253.385 342.467,254.589 342.306,255.826     342.306,255.826 342.691,255.888   "/><polygon fill="#FFFFFF" points="339.328,272.623 339.328,272.623 342.691,255.888 342.306,255.826 338.944,272.559     338.944,272.559 339.328,272.623   "/><polygon fill="#FCB331" points="331.382,264.319 331.32,264.13 331.191,263.97 330.966,263.875 330.647,263.78 330.294,263.747     329.879,263.717 329.396,263.717 328.916,263.747 328.404,263.811 327.892,263.875 327.378,263.938 326.899,264.002     326.418,264.097 326,264.161 325.585,264.256 325.265,264.319 325.04,264.351 324.785,264.445 324.464,264.541 324.11,264.667     323.695,264.857 323.311,265.047 322.862,265.27 322.446,265.555 322.028,265.84 321.613,266.19 321.26,266.537 320.907,266.95     320.62,267.392 320.396,267.869 320.203,268.376 320.107,268.914 320.076,269.991 320.234,270.848 320.491,271.481     320.876,271.956 321.356,272.274 321.901,272.464 322.446,272.559 322.989,272.591 323.952,272.559 324.848,272.464     325.681,272.305 326.418,272.084 327.124,271.83 327.732,271.544 328.308,271.227 328.82,270.848 329.268,270.498     329.653,270.086 330.006,269.706 330.294,269.295 330.518,268.914 330.678,268.534 330.806,268.152 330.902,267.805     331.031,266.917 331.191,265.999 331.32,265.111 331.382,264.319   "/><polygon fill="#FFFFFF" points="341.538,279.626 350.572,279.626 350.572,279.626 353.809,261.592 353.935,260.896     354.126,260.198 354.32,259.501 354.576,258.805 354.897,258.107 355.281,257.442 355.697,256.807 356.211,256.206     356.787,255.666 357.426,255.16 358.163,254.684 358.997,254.304 359.926,253.987 360.951,253.734 362.072,253.543     363.321,253.48 363.77,253.48 364.025,253.48 364.121,253.48 364.121,253.48 365.562,245.335 364.666,245.398 363.802,245.493     363.001,245.651 362.232,245.873 361.527,246.127 360.855,246.444 360.214,246.792 359.607,247.173 359.03,247.617     358.485,248.06 357.971,248.568 357.459,249.075 356.979,249.613 356.499,250.216 356.018,250.785 355.57,251.42 356.53,245.683     347.529,245.683 341.538,279.626 341.538,279.626   "/><polyline fill="none" points="341.538,279.626     350.572,279.626 350.572,279.626 353.809,261.592 353.809,261.592 353.935,260.896 354.126,260.198 354.32,259.501     354.576,258.805 354.897,258.107 355.281,257.442 355.697,256.807 356.211,256.206 356.787,255.666 357.426,255.16     358.163,254.684 358.997,254.304 359.926,253.987 360.951,253.734 362.072,253.543 363.321,253.48 363.321,253.48 363.77,253.48     364.025,253.48 364.121,253.48 364.121,253.48 365.562,245.335 365.562,245.335 364.666,245.398 363.802,245.493 363.001,245.651     362.232,245.873 361.527,246.127 360.855,246.444 360.214,246.792 359.607,247.173 359.03,247.617 358.485,248.06     357.971,248.568 357.459,249.075 356.979,249.613 356.499,250.216 356.018,250.785 355.57,251.42 356.53,245.683 347.529,245.683     341.538,279.626 341.538,279.626   " stroke="#FFFFFF" stroke-miterlimit="2.6131" stroke-width="0.216"/><polygon fill="#FFFFFF" points="256.711,279.626 265.745,279.626 265.906,279.626 268.98,261.592 269.107,260.896 269.268,260.23     269.429,259.565 269.653,258.931 269.909,258.297 270.228,257.696 270.613,257.124 271.062,256.586 271.576,256.109     272.152,255.636 272.856,255.255 273.625,254.906 274.522,254.62 275.515,254.367 276.605,254.208 277.853,254.113     277.949,254.113 278.079,254.145 278.237,254.177 278.398,254.177 278.559,254.208 278.686,254.24 278.783,254.272     278.814,254.272 278.847,254.145 278.943,253.765 279.071,253.195 279.231,252.497 279.455,251.673 279.68,250.785     279.969,249.898 280.257,249.011 280.511,248.409 280.833,247.806 281.153,247.205 281.473,246.666 281.762,246.19     281.986,245.81 282.147,245.588 282.209,245.493 282.178,245.493 282.049,245.462 281.89,245.43 281.666,245.398 281.441,245.398     281.184,245.366 280.961,245.335 280.737,245.335 279.743,245.398 278.847,245.493 278.014,245.651 277.245,245.842     276.508,246.096 275.836,246.412 275.226,246.729 274.649,247.109 274.105,247.521 273.592,247.996 273.113,248.472     272.633,249.011 272.152,249.55 271.703,250.152 271.223,250.785 270.742,251.42 271.895,245.683 262.702,245.683     256.711,279.626 256.711,279.626   "/><polyline fill="none" points="256.711,279.626     265.745,279.626 265.906,279.626 268.98,261.592 268.98,261.592 269.107,260.896 269.268,260.23 269.429,259.565 269.653,258.931     269.909,258.297 270.228,257.696 270.613,257.124 271.062,256.586 271.576,256.109 272.152,255.636 272.856,255.255     273.625,254.906 274.522,254.62 275.515,254.367 276.605,254.208 277.853,254.113 277.853,254.113 277.949,254.113     278.079,254.145 278.237,254.177 278.398,254.177 278.559,254.208 278.686,254.24 278.783,254.272 278.814,254.272     278.814,254.272 278.847,254.145 278.943,253.765 279.071,253.195 279.231,252.497 279.455,251.673 279.68,250.785     279.969,249.898 280.257,249.011 280.257,249.011 280.511,248.409 280.833,247.806 281.153,247.205 281.473,246.666     281.762,246.19 281.986,245.81 282.147,245.588 282.209,245.493 282.209,245.493 282.178,245.493 282.049,245.462 281.89,245.43     281.666,245.398 281.441,245.398 281.184,245.366 280.961,245.335 280.737,245.335 280.737,245.335 279.743,245.398     278.847,245.493 278.014,245.651 277.245,245.842 276.508,246.096 275.836,246.412 275.226,246.729 274.649,247.109     274.105,247.521 273.592,247.996 273.113,248.472 272.633,249.011 272.152,249.55 271.703,250.152 271.223,250.785     270.742,251.42 271.895,245.683 262.702,245.683 256.711,279.626 256.711,279.626   " stroke="#FFFFFF" stroke-miterlimit="2.6131" stroke-width="0.216"/></g></g></svg>