<?xml version="1.0" ?><!DOCTYPE svg  PUBLIC '-//W3C//DTD SVG 1.1//EN'  'http://www.w3.org/Graphics/SVG/1.1/DTD/svg11.dtd'><svg enable-background="new 0 0 512 512" height="512px" id="Layer_1" version="1.1" viewBox="0 0 512 512" width="512px" xml:space="preserve" xmlns="http://www.w3.org/2000/svg" xmlns:xlink="http://www.w3.org/1999/xlink"><g id="Visa"><circle cx="256" cy="256" fill="#002D44" r="256"/><g><g><polygon fill="#FFFFFF" points="228.716,302.899 203.038,302.899 219.088,209.676 244.767,209.676    "/><path d="M181.433,209.676l-24.483,64.117l-2.895-13.807l0.002,0.005l-8.641-41.919c0,0-1.044-8.396-12.182-8.396     H92.763l-0.473,1.577c0,0,12.38,2.433,26.861,10.659l22.31,80.987h26.755l40.856-93.223H181.433z" fill="#FFFFFF"/><path d="M383.418,302.899h23.578l-20.559-93.223h-20.646c-9.533,0-11.854,6.947-11.854,6.947l-38.295,86.276     h26.764l5.354-13.847h32.646L383.418,302.899z M355.161,269.921l13.493-34.886l7.59,34.886H355.161z" fill="#FFFFFF"/><path d="M317.648,232.093l3.665-20.022c0,0-11.308-4.064-23.097-4.064c-12.743,0-43.006,5.268-43.006,30.861     c0,24.086,35.518,24.386,35.518,37.032c0,12.646-31.856,10.386-42.369,2.408l-3.821,20.928c0,0,11.466,5.267,28.989,5.267     c17.521,0,43.961-8.579,43.961-31.915c0-24.237-35.838-26.495-35.838-37.032C281.651,225.017,306.659,226.371,317.648,232.093z" fill="#FFFFFF"/></g><path d="M154.058,259.991l-8.641-41.919c0,0-1.044-8.396-12.182-8.396H92.763l-0.473,1.577    c0,0,19.453,3.811,38.114,18.086C148.24,242.984,154.058,259.991,154.058,259.991z" fill="#FAA634"/></g></g></svg>