<?xml version="1.0" ?><svg enable-background="new 0 0 24 24" id="Layer_1" version="1.1" viewBox="0 0 24 24" xml:space="preserve" xmlns="http://www.w3.org/2000/svg" xmlns:xlink="http://www.w3.org/1999/xlink"><g><path d="M22,3H2C0.8974609,3,0,3.8969727,0,5v14c0,1.1030273,0.8974609,2,2,2h20c1.1025391,0,2-0.8969727,2-2V5   C24,3.8969727,23.1025391,3,22,3z" fill="#303C42"/><path d="M23,19c0,0.5512695-0.4482422,1-1,1H2c-0.5517578,0-1-0.4487305-1-1V5c0-0.5512695,0.4482422-1,1-1h20   c0.5517578,0,1,0.4487305,1,1V19z" fill="#FFFFFF"/><path d="M4.5280762,6.1054688C3.9050903,6.2817993,3.3781128,6.7459717,3.1482544,7.2868652   C3.0183105,7.5922852,3,7.9023438,3,8.2225342v4.9793091c0.0529175-0.0228271,0.1105957-0.0343628,0.1685181-0.0343628   c0.0519409,0,0.1040649,0.0093384,0.1531372,0.0281982c0.374939,0.1448364,0.7617798,0.243103,1.1188354,0.2845459   c0.1635132,0.0189209,0.2962646,0.027771,0.4178467,0.027771c0.2195435,0,0.4040527-0.0300293,0.5639038-0.0917358   c0.0036621-0.0015869,0.0074463-0.0029297,0.0111694-0.0042114c0.2711792-0.0957031,0.4651489-0.3414307,0.5062866-0.6410522   l0.0067749-2.2322388c0-0.1897583,0.1727905-0.3436279,0.3860474-0.3436279H7.802124   c0.2132568,0,0.3860474,0.1538696,0.3860474,0.3436279v2.112854c0,0.2815552-0.0623169,0.6869507-0.3594971,1.0187378   c-0.3755493,0.4196167-0.9822388,0.5957642-1.4249878,0.6696777c-0.1056519,0.0175781-0.206543,0.0256348-0.3041382,0.0333252   c-0.041687,0.0033569-0.0837402,0.0065918-0.1268921,0.0108643c-0.1136475,0.0109253-0.2371216,0.0185547-0.3777466,0.0232544   c-0.1650391,0.0056763-0.2992554,0.0080566-0.4221191,0.0080566c-0.1099854,0-0.2124634-0.0020752-0.3136597-0.0065308   c-0.44104-0.0192871-0.8983154-0.0664673-1.4819946-0.1530151c-0.1069336-0.0158081-0.2113037-0.0379028-0.3004761-0.057373   c-0.0269775-0.0059814-0.0521851-0.0150146-0.0764771-0.0253906v3.8224487c0.4893188,0,0.9786377,0,1.4678345,0   c0.4840698,0.0002441,0.9680786,0.0002441,1.4523926,0.0002441c0.0405884,0,0.0809937,0.000061,0.1213379,0.000061   c0.2993164,0,0.5929565-0.0043945,0.8859863-0.0786743c0.5760498-0.1459351,1.0836182-0.5060425,1.3654175-0.9770508   c0.1569824-0.262146,0.2362061-0.5426025,0.2599487-0.833252v-0.0004272c0.005188-0.0634155,0.008667-0.1270142,0.008667-0.1912842   V6.0001831H5.2409058C4.9962769,6.0001831,4.7606201,6.0396118,4.5280762,6.1054688z" fill="#303C42"/><path d="M7.5617676,15.9152832c0,0.0370483-0.0023804,0.0736084-0.0053711,0.1103516   c-0.0128174,0.1567383-0.0512695,0.2841187-0.1213989,0.4011841c-0.1437378,0.2401733-0.4321899,0.4398804-0.7530518,0.5211792   c-0.1754761,0.0444336-0.3848267,0.0479736-0.6401978,0.0479736H5.9822388l-0.0618286-0.000061l-1.4523926-0.0002441H4.0001831   v-1.6504517c0.2883301,0.0311279,1.4506836,0.0678101,1.6282349,0.0617065   c0.1637573-0.0054932,0.8039551-0.0579834,0.9399414-0.0805664c0.2943726-0.0491333,0.6452026-0.1349487,0.9934082-0.2844849   V15.9152832z" fill="#44B3E6"/><path d="M7.5617676,9.1951294h-1.229248c-0.7642822,0-1.3860474,0.6027832-1.3860474,1.3405762L4.9404907,12.505188   c-0.0234375,0.001709-0.0507202,0.0028076-0.0821533,0.0028076c-0.0881958,0-0.1843262-0.0074463-0.3025513-0.0211182   C4.3790283,12.4663696,4.190979,12.427002,4,12.3709106c0,0,0.0114746-4.5586548,0.0686035-4.6929321   C4.1851196,7.4038696,4.479187,7.1586304,4.8007202,7.067627c0.1600952-0.0454102,0.3041382-0.0674438,0.4401855-0.0674438   h2.3208618V9.1951294z" fill="#44B3E6"/><path d="M17.9873047,5.999939c-0.0941162,0-0.6886597,0.0038452-1.0081177,0.0979004   c-0.2489624,0.0905762-0.4840088,0.18396-0.6964722,0.3342896c-0.2479858,0.1746826-0.4519653,0.3947144-0.5991821,0.6436768   c-0.1696777,0.2869263-0.2539063,0.6088867-0.2539063,0.9326172l0.0020142,2.2098999   c0.0518799-0.0220337,0.1081543-0.0349731,0.1665649-0.0349731l2.8815308-0.0004883   c0.2001953,0,0.3674316,0.0045166,0.5370483,0.0264893c0.2792969,0.0361938,0.6687012,0.1394043,0.9360962,0.4249268   c0.0025024,0.0026245,0.0048828,0.0053101,0.0073853,0.0079346c0.2903442,0.3294678,0.3125,0.7845459,0.0565796,1.1594849   c-0.1056519,0.1484985-0.2611084,0.2711182-0.4521484,0.361145c0.43927,0.1363525,0.8299561,0.4156494,0.8890381,0.8878784   c0.0298462,0.2391968-0.0275879,0.4772949-0.1577148,0.6529541c-0.0952759,0.1272583-0.2127686,0.2653198-0.3736572,0.3425903   c-0.2653198,0.1774902-0.6029053,0.2268677-0.8683472,0.25c-0.0977173,0.0084229-3.4493408,0.0076294-3.4493408,0.0076294   c-0.0606689,0-0.1172485-0.0134888-0.1680908-0.0356445l0.0041504,3.729248c0.4876099,0,2.4313354,0,2.9157104,0   c0.0856323,0,0.1716309,0.0009766,0.2575073,0.0009766c0.2261963,0,0.4520874-0.0070801,0.6723022-0.0587158   c0.5865479-0.1378784,1.1072998-0.4690552,1.4108887-0.9403687C20.9105835,16.6676636,21,16.3052979,21,15.9257813   c0-0.157959,0-0.3158569,0-0.4737549V6.4306641c0-0.1442871,0-0.2851563,0-0.4293823   C21,6.0012817,17.9956055,5.999939,17.9873047,5.999939z" fill="#303C42"/><path d="M20,15.4520264v0.4737549c0,0.2108154-0.0456543,0.3800049-0.1435547,0.5321045   c-0.1524048,0.2365723-0.4510498,0.4266357-0.798584,0.5083008c-0.1144409,0.0267944-0.2601929,0.0323486-0.4439087,0.0323486   l-0.1229248-0.0005493l-0.1345825-0.0004883h-1.4530029h-0.4638062l-0.0018921-1.6936035h1.8494263l0.2076416,0.0024414   l0.2260742,0.0023804c0.163208,0,0.2962646-0.0055542,0.4198608-0.0162354   C19.3753052,15.2720337,19.6843872,15.2315674,20,15.1170654V15.4520264z" fill="#8BC249"/><path d="M20,9.4602661c-0.2556152-0.1202393-0.5427856-0.2021484-0.8546143-0.2426147   c-0.2357788-0.0305786-0.4592896-0.03479-0.6658325-0.03479l-2.0488281,0.0003662l-0.0010986-1.1748047   c0-0.1502686,0.0396729-0.2967529,0.114624-0.423584c0.0755005-0.1275635,0.1841431-0.2434692,0.3161011-0.3364258   c0.0984497-0.0697021,0.2307129-0.1260986,0.4217529-0.1965332c0.1130371-0.026001,0.4068604-0.0519409,0.7043457-0.0519409   L20,7.0008545V9.4602661z" fill="#8BC249"/><path d="M16.6304932,12.6239624v0.7815552l1.0794678,0.0010986   c0.4581909,0,0.5302124-0.2826538,0.5302124-0.3927002c0-0.1316528-0.0686646-0.2508545-0.1838379-0.3191528   c-0.0976563-0.0598755-0.2121582-0.0714111-0.3666992-0.0714111L16.6304932,12.6239624z" fill="#303C42"/><path d="M17.7988892,11.0687256c-0.0096436-0.0015259-0.0643311-0.0131226-0.1862793-0.0131226   c-0.0132446,0-0.0272827,0.0001831-0.0421143,0.0004272h-0.9401855v0.699707l0.9106445,0.0010986   c0.0397339,0,0.0795898-0.0001831,0.1159668-0.0007324c0.1045532,0,0.2409058-0.0205078,0.3366089-0.1177979   c0.0940552-0.0953369,0.1229858-0.2432251,0.0701904-0.3596802C18.013855,11.1705933,17.9070435,11.0853882,17.7988892,11.0687256z   " fill="#303C42"/><path d="M11.8199463,6.0001221C11.7749634,6.0001221,11.7300415,6,11.6851196,6   c-0.3104248,0-0.6189575,0.0057983-0.9173584,0.0979614C10.1245728,6.2965088,9.569519,6.7384033,9.3477173,7.3215942   C9.1953735,7.6691895,9.2145386,8.0396729,9.2145386,8.4046021l0.0022583,2.244812   c0.2784424-0.1730347,0.5880127-0.302002,0.9447021-0.392395c0.2183228-0.0553589,0.4289551-0.0859985,0.6520996-0.1184692   l0.098999-0.0145874c0.2476196-0.0367432,0.5001221-0.0408325,0.7442017-0.0447998   c0.0784302-0.0012817,0.1564941-0.0018921,0.2335815-0.0018921c0.1717529,0,0.3387451,0.0031128,0.4946289,0.0093384   c0.4661865,0.0187378,0.9042358,0.0891724,1.3676758,0.1638184l0.1052246,0.0169067   c0.0280762,0.0045776,0.057373,0.0095825,0.0872803,0.0152588c0.178772,0.0334473,0.3064575,0.1737671,0.3064575,0.3361816   V10.97229c0,0.1157837-0.0654907,0.2238159-0.1742554,0.2872925c-0.0638428,0.0372925-0.1375732,0.0562744-0.211731,0.0562744   c-0.0521851,0-0.1046143-0.0093994-0.1538696-0.0284424c-0.3422241-0.1323242-0.7087402-0.2232666-1.0895386-0.2703857   c-0.147644-0.0182495-0.2998657-0.0274048-0.4456787-0.0274048c-0.1072998-0.000061-0.2111206,0.0049438-0.3070679,0.0149536   c-0.2874146,0.0303345-0.5158691,0.093811-0.6982422,0.1942749c-0.005188,0.0028076-0.0102539,0.0054321-0.0155029,0.0080566   c-0.2489014,0.123291-0.4561768,0.3823853-0.5280151,0.6600952c-0.0994873,0.3636475-0.0512695,0.7602539,0.1243896,1.0389404   c0.142395,0.2255249,0.3856201,0.3980713,0.7039795,0.4994507l0.0021973,0.0006104   c0.2584229,0.0619507,0.4891357,0.0924072,0.7050781,0.0924072c0.0800781,0,0.1580811-0.0042114,0.2348022-0.0125122   c0.4873657-0.0527344,0.9129639-0.1519165,1.3015137-0.3032837c0.0496826-0.0193481,0.102478-0.0289307,0.1550293-0.0289307   c0.0739746,0,0.1474609,0.0189209,0.2110596,0.0559692c0.1090088,0.0635376,0.1747437,0.1716309,0.1747437,0.2875977v0.3599243   c0,0.1585083-0.1218872,0.2964478-0.2947998,0.3339233c-0.4420776,0.0953979-0.8812256,0.1487427-1.2902222,0.1919556   c-0.2510376,0.0264893-0.508728,0.0264893-0.7359619,0.0264893L11.72052,14.4098511h-0.0006714   c-0.2022705,0-0.3720093-0.0030518-0.5429077-0.0179443c-0.2191162-0.0189819-0.4790039-0.0454102-0.7451172-0.0964355   c-0.2884521-0.0551147-0.5647583-0.1415405-0.8453369-0.2637329c-0.112854-0.0491333-0.2419434-0.1102295-0.3684082-0.1882324   l0.0025024,4.1557007c0.4868774,0,0.9735718,0,1.4605713,0c0.4833984,0,0.9666748,0,1.4500732,0   C12.2119751,17.9992065,12.2927856,18,12.3734741,18c0.2425537,0,0.4842529-0.0071411,0.7208862-0.0641479   c0.5219727-0.1384888,0.9587402-0.3973389,1.2836914-0.7890625c0.2202759-0.3063354,0.3709717-0.6257935,0.4031372-0.992981   c0.0059814-0.0673218,0.006897-0.1344604,0.006897-0.2017822c0-0.1428833,0-0.2855835,0-0.4285278V6.5013428   c0-0.1670532,0-0.3341675,0-0.5012207h-1.5144043C12.7890625,6.0001221,12.3045654,6.0001221,11.8199463,6.0001221z" fill="#303C42"/><path d="M13.3366699,12.2508545c-0.3052979,0.1188965-0.6474609,0.1976929-1.0463867,0.2408447   c-0.0414429,0.0045166-0.0836182,0.0067139-0.1268921,0.0067139c-0.1257935,0-0.2678223-0.0183105-0.4331055-0.0557861   c-0.0964966-0.0348511-0.1306763-0.0692749-0.1316528-0.0692749l-0.000061,0.000061   c-0.0131226-0.0238037-0.0385742-0.1243896,0.0016479-0.2706909l0.034729-0.0176392l0.0187988-0.0103149   c0.0282593-0.015564,0.1160889-0.0541382,0.3196411-0.0755615c0.0634766-0.0066528,0.1322021-0.0096436,0.203125-0.0096436   c0.1057129,0.000061,0.2161865,0.0067139,0.322937,0.0198975c0.2994385,0.0370483,0.5859985,0.1079102,0.8517456,0.2106323   c0.0113525,0.0043945,0.0227661,0.008667,0.0342407,0.0127563C13.3690796,12.2385254,13.3528442,12.2445068,13.3366699,12.2508545z   " fill="#EF4423"/><path d="M13.7880859,15.5234985v0.4285278c0,0.0377808,0.0004272,0.0755005-0.0030518,0.114502   c-0.0085449,0.0977173-0.0391846,0.2382202-0.197876,0.4667358c-0.1815796,0.2077637-0.4262085,0.3503418-0.7270508,0.4304199   C12.7210083,16.9971924,12.5360107,17,12.3734741,17l-0.1162109-0.0003662l-0.1260376-0.0004272h-1.4500732h-0.4611816   l-0.0010376-1.7263794c0.0081787,0.0015869,0.0164185,0.0032349,0.0245972,0.0047607   c0.3115234,0.0597534,0.6029663,0.0894165,0.8466797,0.1105347c0.1981812,0.0172729,0.3949585,0.0217285,0.6317749,0.0217285   l0.1975708-0.0003052c0.239502,0,0.5375366,0,0.8411255-0.0319824c0.3250732-0.0343628,0.6696167-0.0749512,1.0274048-0.1373291   V15.5234985z" fill="#EF4423"/><path d="M13.7880859,9.2432861c-0.4334717-0.069397-0.881958-0.1365356-1.3630371-0.1558838   c-0.1685181-0.0067139-0.348999-0.0101318-0.534668-0.0101318L11.640564,9.0792847   c-0.2634277,0.0042725-0.5620117,0.0090942-0.8737793,0.0553589l-0.097168,0.0142822   c-0.1472168,0.0214233-0.2974854,0.0432739-0.4542847,0.072937l-0.0007935-0.8172607l-0.0004272-0.1153564   c-0.0012207-0.2303467-0.0023193-0.447937,0.0682983-0.6121826c0.1002197-0.2634277,0.4064941-0.5081787,0.7803955-0.6236572   C11.2228394,7.0040283,11.4393311,7,11.6851196,7l0.06604,0.000061l0.0687866,0.000061h1.4537354h0.5144043V9.2432861z" fill="#EF4423"/><path d="M22,4h-0.5v13.5c0,0.5512695-0.4487305,1-1,1H1V19c0,0.5512695,0.4487305,1,1,1h20   c0.5512695,0,1-0.4487305,1-1V5C23,4.4487305,22.5512695,4,22,4z" fill="#010101" opacity="0.1"/><linearGradient gradientUnits="userSpaceOnUse" id="SVGID_1_" x1="-0.7076151" x2="24.7076149" y1="6.0743418" y2="17.9256592"><stop offset="0" style="stop-color:#FFFFFF;stop-opacity:0.2"/><stop offset="1" style="stop-color:#FFFFFF;stop-opacity:0"/></linearGradient><path d="M22,3H2C0.8974609,3,0,3.8969727,0,5v14c0,1.1030273,0.8974609,2,2,2h20   c1.1025391,0,2-0.8969727,2-2V5C24,3.8969727,23.1025391,3,22,3z" fill="url(#SVGID_1_)"/></g><g/><g/><g/><g/><g/><g/><g/><g/><g/><g/><g/><g/><g/><g/><g/></svg>