<?xml version="1.0" ?><svg enable-background="new 0 0 24 24" id="Layer_1" version="1.1" viewBox="0 0 24 24" xml:space="preserve" xmlns="http://www.w3.org/2000/svg" xmlns:xlink="http://www.w3.org/1999/xlink"><g><path d="M22,3H2C0.8969727,3,0,3.8969727,0,5v14c0,1.1030273,0.8969727,2,2,2h20c1.1030273,0,2-0.8969727,2-2V5   C24,3.8969727,23.1030273,3,22,3z" fill="#303C42"/><path d="M23,19c0,0.5512695-0.4487305,1-1,1H2c-0.5512695,0-1-0.4487305-1-1V5c0-0.5512695,0.4487305-1,1-1h20   c0.5512695,0,1,0.4487305,1,1V19z" fill="#FAFBFB"/><path d="M15.25,6C13.9902954,6,12.8510132,6.5012817,12,7.3043213C11.1489868,6.5012817,10.0097046,6,8.75,6   C6.1308594,6,4,8.1308594,4,10.75s2.1308594,4.75,4.75,4.75c1.2597046,0,2.3989868-0.5012817,3.25-1.3043213   C12.8510132,14.9987183,13.9902954,15.5,15.25,15.5c2.6191406,0,4.75-2.1308594,4.75-4.75S17.8691406,6,15.25,6z" fill="#303C42"/><path d="M11.5,10.75c0-0.6699219,0.190979-1.2904053,0.5-1.8352661c0.309021,0.5448608,0.5,1.1653442,0.5,1.8352661   s-0.190979,1.2904053-0.5,1.8352661C11.690979,12.0404053,11.5,11.4199219,11.5,10.75z" fill="#EF4423"/><path d="M11.5,10.75c0-0.6699219,0.190979-1.2904053,0.5-1.8352661   c0.309021,0.5448608,0.5,1.1653442,0.5,1.8352661s-0.190979,1.2904053-0.5,1.8352661   C11.690979,12.0404053,11.5,11.4199219,11.5,10.75z" fill="#3D82C4" opacity="0.6"/><path d="M5,10.75C5,8.6821289,6.6821289,7,8.75,7c1.008728,0,1.9216309,0.4047852,2.5963135,1.0548706   C10.8151855,8.8217163,10.5,9.7486572,10.5,10.75s0.3151855,1.9282837,0.8463135,2.6951294   C10.6716309,14.0952148,9.758728,14.5,8.75,14.5C6.6821289,14.5,5,12.8178711,5,10.75z" fill="#3D82C4"/><path d="M15.25,14.5c-1.008728,0-1.9216309-0.4047852-2.5963135-1.0548706   C13.1848145,12.6782837,13.5,11.7513428,13.5,10.75s-0.3151855-1.9282837-0.8463135-2.6951294   C13.3283691,7.4047852,14.241272,7,15.25,7C17.3178711,7,19,8.6821289,19,10.75S17.3178711,14.5,15.25,14.5z" fill="#EF4423"/><path d="M7.8104248,16.4523926c-0.1893311-0.0030518-0.3848267,0.0558472-0.5213623,0.2637939   c-0.102356-0.1644897-0.2637329-0.2637939-0.4902344-0.2637939c-0.1582642,0-0.3134155,0.0465698-0.4344482,0.2203369V16.489624   H6.041687v1.4832764h0.3258057v-0.8223267c0-0.2575684,0.1427612-0.394043,0.3630371-0.394043   c0.2141113,0,0.3227539,0.1395874,0.3227539,0.3909912v0.8253784h0.3258057v-0.8223267   c0-0.2575684,0.1489258-0.394043,0.3630371-0.394043c0.2203369,0,0.3258057,0.1395874,0.3258057,0.3909912v0.8253784h0.3258057   v-0.9309082C8.3937378,16.6913452,8.1703491,16.4555054,7.8104248,16.4523926z" fill="#303C42"/><path d="M9.8894043,16.6696167c-0.102417-0.1334229-0.2575073-0.2172241-0.4685669-0.2172241   c-0.4157715,0-0.7415771,0.3258667-0.7415771,0.7788696c0,0.453064,0.3258057,0.7788696,0.7415771,0.7788696   c0.2110596,0,0.3661499-0.0838013,0.4685669-0.2172241v0.1799927h0.3227539v-0.7416382V16.489624H9.8894043V16.6696167z    M9.4611816,17.7059937c-0.2792358,0-0.4498901-0.2140503-0.4498901-0.4747314s0.1706543-0.4747314,0.4498901-0.4747314   c0.2668457,0,0.4468384,0.2047729,0.4468384,0.4747314S9.7280273,17.7059937,9.4611816,17.7059937z" fill="#303C42"/><path d="M17.6889648,16.6744995c-0.071228-0.0697021-0.1556396-0.1244507-0.2532349-0.1641846   s-0.2036743-0.0596313-0.3182983-0.0596313c-0.114563,0-0.2207031,0.0198975-0.3182983,0.0596313   s-0.1817017,0.0944824-0.2524414,0.1641846s-0.1262207,0.1520386-0.1665039,0.2470093   c-0.0402222,0.0950317-0.0603638,0.1982422-0.0603638,0.3097534c0,0.1115723,0.0201416,0.2147827,0.0603638,0.3097534   c0.0402832,0.0950317,0.0957642,0.1773682,0.1665039,0.2470703s0.1548462,0.1243896,0.2524414,0.1641235   c0.0975952,0.0397949,0.2037354,0.0596924,0.3182983,0.0596924c0.114624,0,0.2207031-0.0198975,0.3182983-0.0596924   c0.0975952-0.0397339,0.1820068-0.0944214,0.2532349-0.1641235s0.1270142-0.1520386,0.1672363-0.2470703   c0.0403442-0.0949707,0.0604858-0.1981812,0.0604858-0.3097534c0-0.1115112-0.0201416-0.2147217-0.0604858-0.3097534   C17.815979,16.8265381,17.7601929,16.7442017,17.6889648,16.6744995z M17.5480347,17.4241333   c-0.0238037,0.0582886-0.0565796,0.1083984-0.0983887,0.1502075s-0.0911255,0.0743408-0.1478882,0.0975952   s-0.1182251,0.0348511-0.1843262,0.0348511c-0.06604,0-0.1275024-0.0115967-0.1842651-0.0348511   c-0.0568237-0.0232544-0.105896-0.0557861-0.1471558-0.0975952c-0.0413208-0.0418091-0.0738525-0.0919189-0.0975952-0.1502075   c-0.0237427-0.0583496-0.0355835-0.1226196-0.0355835-0.1928711c0-0.0701904,0.0118408-0.1344604,0.0355835-0.1928101   c0.0237427-0.0582886,0.0562744-0.1083984,0.0975952-0.1502686c0.0412598-0.0418091,0.090332-0.0742798,0.1471558-0.0975342   c0.0567627-0.0232544,0.1182251-0.0348511,0.1842651-0.0348511c0.0661011,0,0.1275635,0.0115967,0.1843262,0.0348511   s0.1060791,0.0557251,0.1478882,0.0975342c0.0418091,0.0418701,0.074585,0.09198,0.0983887,0.1502686   c0.0237427,0.0583496,0.0356445,0.1226196,0.0356445,0.1928101C17.5836792,17.3015137,17.5717773,17.3657837,17.5480347,17.4241333   z" fill="#303C42"/><path d="M11.2637939,16.4523926c-0.4344482,0-0.7385254,0.3165283-0.7385254,0.7788696   c0,0.4716797,0.3165283,0.7788696,0.7602539,0.7788696c0.2233887,0,0.4282227-0.0558472,0.6081543-0.2078857l-0.1582642-0.2389526   c-0.1240845,0.0993042-0.2823486,0.1551514-0.4312744,0.1551514c-0.2079468,0-0.3972168-0.0961914-0.4437866-0.3630981h1.1016235   c0.0031128-0.0402832,0.0061646-0.0806274,0.0061646-0.1240845C11.9650879,16.7689209,11.6795654,16.4523926,11.2637939,16.4523926   z M10.8634644,17.1009521c0.0341797-0.2141113,0.1644897-0.3599243,0.394104-0.3599243   c0.2078857,0,0.3413086,0.1303101,0.3754883,0.3599243H10.8634644z" fill="#303C42"/><path d="M12.9859009,17.0823364l-0.1520386-0.0217285c-0.1396484-0.0186157-0.2513428-0.0465088-0.2513428-0.145813   c0-0.1086426,0.1054688-0.1737671,0.2823486-0.1737671c0.18927,0,0.3723755,0.0713501,0.4623413,0.1271973l0.1396484-0.2606201   c-0.1551514-0.102417-0.3692627-0.1552124-0.6051025-0.1552124c-0.3754272,0-0.6174927,0.1799927-0.6174927,0.4747925   c0,0.2420044,0.1799927,0.3909912,0.5120239,0.4375l0.1520386,0.0217285   c0.1768799,0.0248413,0.2606201,0.0713501,0.2606201,0.1551514c0,0.1148071-0.1179199,0.1799927-0.3381958,0.1799927   c-0.2233887,0-0.3847656-0.0714111-0.4934082-0.1551514l-0.1520386,0.2513428   c0.1768799,0.1303101,0.4003296,0.1923828,0.642334,0.1923828c0.4282227,0,0.6764526-0.2017212,0.6764526-0.4840698   C13.5040894,17.2653809,13.3085938,17.1288452,12.9859009,17.0823364z" fill="#303C42"/><path d="M14.5645142,17.7029419c-0.161377,0-0.2141113-0.0993042-0.2141113-0.24823v-0.6702881h0.5274658V16.489624   h-0.5274658l-0.0001221-0.4498901h-0.3258057l0.0001221,0.4498901h-0.3010254v0.2947998h0.3010254v0.6764526   c0,0.3444824,0.1334229,0.5492554,0.5150757,0.5492554c0.1396484,0,0.3009644-0.043457,0.4033813-0.1148071l-0.0930786-0.2761841   C14.7537842,17.6749878,14.6482544,17.7029419,14.5645142,17.7029419z" fill="#303C42"/><path d="M15.6037598,16.6696167V16.489624h-0.3196411v1.4832764h0.3226929v-0.831604   c0-0.2451782,0.1055298-0.3817139,0.3165894-0.3817139c0.0651245,0,0.1334229,0.0093384,0.2016602,0.0372925l0.0993042-0.3041382   c-0.0714111-0.0278931-0.1644897-0.0403442-0.2296143-0.0403442   C15.8085327,16.4523926,15.6874943,16.5393066,15.6037598,16.6696167z" fill="#303C42"/><path d="M22,4h-0.5v13.5c0,0.5512695-0.4487305,1-1,1H1V19c0,0.5512695,0.4487305,1,1,1h20   c0.5512695,0,1-0.4487305,1-1V5C23,4.4487305,22.5512695,4,22,4z" fill="#010101" opacity="0.1"/><linearGradient gradientUnits="userSpaceOnUse" id="SVGID_1_" x1="-0.7076802" x2="24.7076797" y1="6.0743113" y2="17.9256878"><stop offset="0" style="stop-color:#FFFFFF;stop-opacity:0.2"/><stop offset="1" style="stop-color:#FFFFFF;stop-opacity:0"/></linearGradient><path d="M22,3H2C0.8969727,3,0,3.8969727,0,5v14c0,1.1030273,0.8969727,2,2,2h20   c1.1030273,0,2-0.8969727,2-2V5C24,3.8969727,23.1030273,3,22,3z" fill="url(#SVGID_1_)"/></g><g/><g/><g/><g/><g/><g/><g/><g/><g/><g/><g/><g/><g/><g/><g/></svg>