<?xml version="1.0" ?><svg enable-background="new 0 0 24 24" id="Layer_1" version="1.1" viewBox="0 0 24 24" xml:space="preserve" xmlns="http://www.w3.org/2000/svg" xmlns:xlink="http://www.w3.org/1999/xlink"><g><path d="M22,3H2C0.8974609,3,0,3.8969727,0,5v14c0,1.1030273,0.8974609,2,2,2h20c1.1025391,0,2-0.8969727,2-2V5   C24,3.8969727,23.1025391,3,22,3z" fill="#303C42"/><path d="M23,19c0,0.5512695-0.4482422,1-1,1H2c-0.5517578,0-1-0.4487305-1-1V5c0-0.5512695,0.4482422-1,1-1h20   c0.5517578,0,1,0.4487305,1,1V19z" fill="#F9A01B"/><path d="M5.4874878,11.8475952c0,0-0.0542603-0.0157471-0.1181641-0.0341187   c-0.0635376-0.0183105-0.137085-0.0392456-0.1746216-0.0501709c-0.0620728-0.0177002-0.1098633-0.0536499-0.1381226-0.0993652   c-0.0280151-0.0455933-0.036499-0.1010742-0.0205688-0.1577148c0.0167236-0.0588379,0.0570679-0.105835,0.1151123-0.1383057   c0.0584717-0.0322876,0.1351318-0.0499878,0.2246094-0.0499878h1.2904053   c0.0090942-0.0131226,0.017395-0.0274048,0.0264282-0.0405273c0.2357178-0.3334961,0.5210571-0.6032715,0.8335571-0.7937622   H5.5108643c-0.3178101,0-0.6264648-0.000061-0.9031372,0.1402588c-0.2764282,0.1403198-0.5205688,0.4212036-0.7084961,0.9829712   c-0.0407104,0.1207275-0.0622559,0.2247925-0.0651245,0.3151245c-0.0028076,0.0905151,0.0129395,0.1675415,0.0472412,0.2344971   c0.0422974,0.081665,0.1108398,0.1585083,0.1965332,0.2232056c0.0859375,0.0649414,0.1885376,0.1175537,0.2991943,0.1512451   c0.0042725,0.0012207,0.0623779,0.0177002,0.1329346,0.0379028c0.0701294,0.0201416,0.1522217,0.0443115,0.2042236,0.0600586   c0.0304565,0.0092773,0.0639038,0.0213623,0.0941162,0.0397339c0.0304565,0.0179443,0.0576782,0.0421143,0.0748291,0.0755615   c0.0112915,0.0222168,0.017334,0.0466309,0.0179443,0.0726318c0.0007935,0.0261841-0.0036621,0.0544434-0.013916,0.0842896   c-0.0258179,0.0762329-0.0649414,0.1254272-0.1395264,0.1554565c-0.0742188,0.0300293-0.1836548,0.0396729-0.3497925,0.0408936   H2.3239136l-0.3278198,0.9006348h2.2199097c0.2088623,0,0.5907593,0.000061,0.9577026-0.1560059   c0.3669434-0.1558838,0.7190552-0.4674072,0.868042-1.0910034c0.0560303-0.234314,0.0386963-0.4252319-0.0530396-0.5752563   C5.8965454,12.026062,5.7300415,11.9171753,5.4874878,11.8475952z" fill="#303C42"/><path d="M9.5062866,10.8128662c-0.1756592-0.2514648-0.4760742-0.3790283-0.8944702-0.3794556   c-0.2736206,0-0.5388794,0.0629272-0.7880859,0.1802368c-0.355896,0.1685791-0.6787109,0.449646-0.9422607,0.8226318   c-0.1712036,0.2421875-0.317749,0.5228882-0.4324951,0.836792c-0.2163086,0.5925903-0.2138672,1.0732422,0.0072632,1.3900146   c0.1254272,0.1790161,0.3861694,0.3929443,0.9161987,0.3935547h0.0020752c0.9655762,0,1.6863403-0.6329346,2.1428223-1.8811646   C9.6379395,11.8452148,9.7969971,11.2288208,9.5062866,10.8128662z M8.4727783,12.2246704h-0.000061   c-0.3012085,0.8244629-0.5197754,1.0319214-0.8488159,1.0319214H7.62323   c-0.3205566-0.0001831-0.4330444-0.203064-0.1329956-1.0236816c0.223999-0.6125488,0.5141602-1.0042725,0.8651733-1.0042725   h0.0001831C8.6895142,11.2290649,8.7659302,11.4226074,8.4727783,12.2246704z" fill="#303C42"/><path d="M11.1251221,11.4552002c0.0314941-0.0765991,0.1070557-0.1374512,0.2175293-0.1374512   c0.0615234,0,0.7548828,0.0001831,1.1135864,0.0003662c0.0092773-0.0133057,0.0175171-0.0275879,0.0266113-0.0407104   c0.2357178-0.3334961,0.569397-0.6032715,0.881958-0.7937622h-2.0539551c-0.5742798,0-1.001709,0.2904663-1.2035522,0.8342896   l-0.9754639,2.6801758h1.0686035l0.5012817-1.3776855l0.944397,0.0006104l0.2687378-0.737915l-0.9413452-0.0006714   L11.1251221,11.4552002z" fill="#303C42"/><path d="M18.675415,10.6730957c0.1264038,0.182251,0.1748047,0.3988647,0.1459351,0.6470337h0.6472778   l-0.9755249,2.6810303h0.9746704l0.9760742-2.6810303h1.2523193L22,10.4855957h-3.5020142   C18.5667114,10.5400391,18.6259766,10.6021118,18.675415,10.6730957z" fill="#303C42"/><path d="M18.4492188,10.8303223c-0.1602783-0.230835-0.4865112-0.3441772-0.9976196-0.3447876h-1.1831665   l-1.2797241,3.5147705h1.0869751l0.4651489-1.2371826c0.0227661,0.0510254,0.2971802,1.2371826,0.2971802,1.2371826h1.1428223   c0,0-0.2078247-0.8716431-0.3606567-1.2236328c-0.0393677-0.0905762-0.0803223-0.1919556-0.1351318-0.2768555   c0.3228149-0.1199951,0.7905884-0.3774414,0.984314-0.899231C18.5883179,11.2797852,18.5814819,11.0204468,18.4492188,10.8303223z    M17.5033569,11.6068115c-0.104248,0.2810669-0.291748,0.4546509-0.6481934,0.4546509h-0.0014038l-0.1845093-0.0001831   l0.3153687-0.8500977h0.1794434C17.4921265,11.2114258,17.6144409,11.307373,17.5033569,11.6068115z" fill="#303C42"/><path d="M15.3327026,10.8128662c-0.1758423-0.2514648-0.4762573-0.3790283-0.8946533-0.3794556   c-0.2733765,0-0.5389404,0.0629272-0.7879028,0.1802368c-0.3560791,0.1685791-0.6786499,0.449646-0.9421997,0.8226318   c-0.1713867,0.2421875-0.3178101,0.5228882-0.4324951,0.836792c-0.2165527,0.5925903-0.2139893,1.0732422,0.0074463,1.3900146   c0.1251831,0.1790161,0.3856812,0.3929443,0.9161987,0.3935547h0.0016479c0.9657593,0,1.6867676-0.6329346,2.1428223-1.8811646   C15.4645386,11.8452148,15.62323,11.2288208,15.3327026,10.8128662z M14.2989502,12.2246704   c-0.3010254,0.8244629-0.5197754,1.0319214-0.8486328,1.0319214h-0.0007935   c-0.3208008-0.0001831-0.4327393-0.203064-0.1328735-1.0236816c0.2238159-0.6125488,0.5141602-1.0042725,0.8649902-1.0042725   h0.0003662C14.515686,11.2290649,14.5922852,11.4226074,14.2989502,12.2246704z" fill="#303C42"/><path d="M22,4h-0.5v13.5c0,0.5512695-0.4487305,1-1,1H1V19c0,0.5512695,0.4487305,1,1,1h20   c0.5512695,0,1-0.4487305,1-1V5C23,4.4487305,22.5512695,4,22,4z" fill="#010101" opacity="0.1"/><linearGradient gradientUnits="userSpaceOnUse" id="SVGID_1_" x1="-0.7076151" x2="24.7076149" y1="6.0743418" y2="17.9256592"><stop offset="0" style="stop-color:#FFFFFF;stop-opacity:0.2"/><stop offset="1" style="stop-color:#FFFFFF;stop-opacity:0"/></linearGradient><path d="M22,3H2C0.8974609,3,0,3.8969727,0,5v14c0,1.1030273,0.8974609,2,2,2h20   c1.1025391,0,2-0.8969727,2-2V5C24,3.8969727,23.1025391,3,22,3z" fill="url(#SVGID_1_)"/></g><g/><g/><g/><g/><g/><g/><g/><g/><g/><g/><g/><g/><g/><g/><g/></svg>