<?xml version="1.0" ?><!DOCTYPE svg  PUBLIC '-//W3C//DTD SVG 1.1//EN'  'http://www.w3.org/Graphics/SVG/1.1/DTD/svg11.dtd'><svg enable-background="new 0 0 1024 1024" height="1024px" id="Dailymotion_1_" version="1.1" viewBox="0 0 1024 1024" width="1024px" xml:space="preserve" xmlns="http://www.w3.org/2000/svg" xmlns:xlink="http://www.w3.org/1999/xlink"><g id="Background"><linearGradient gradientTransform="matrix(0.9397 0.3421 0.3421 -0.9397 275.9532 765.9631)" gradientUnits="userSpaceOnUse" id="bg_1_" x1="464.1323" x2="-194.2839" y1="-72.9106" y2="711.6677"><stop offset="0" style="stop-color:#00123C"/><stop offset="0.1196" style="stop-color:#001745"/><stop offset="0.3147" style="stop-color:#00235D"/><stop offset="0.561" style="stop-color:#003885"/><stop offset="0.8461" style="stop-color:#0055BC"/><stop offset="1" style="stop-color:#0066DC"/></linearGradient><circle cx="512.001" cy="512" fill="url(#bg_1_)" id="bg" r="512"/></g><path d="M588.135,188.5v191.667c0,0-49.333-68.667-147.333-53.667  c-42.271,6.47-84.707,24.195-117.319,52.147c-25.39,21.76-47.719,47.964-61.295,78.762c-8.092,18.354-14.451,39.559-16.904,59.516  c-9.865,80.268,20.014,172.016,87.937,219.709c19.356,13.592,43.987,27.799,66.831,34.379  c43.961,12.665,91.925,12.008,134.615-4.994c11.613-4.625,22.519-10.899,32.675-18.164c4.285-3.064,25.962-16.682,25.962-21.855  l-0.167,50.5l127.417-0.25v-616L588.135,188.5z M483.819,662.545c-61.306,0-111-49.696-111-111s49.694-111,111-111  c61.303,0,111,49.696,111,111S545.122,662.545,483.819,662.545z" fill="#FFFFFF" id="Dailymotion"/></svg>