<?xml version="1.0" ?><!DOCTYPE svg  PUBLIC '-//W3C//DTD SVG 1.1//EN'  'http://www.w3.org/Graphics/SVG/1.1/DTD/svg11.dtd'><svg enable-background="new 0 0 1024 1024" height="1024px" id="G_x2B__1_" version="1.1" viewBox="0 0 1024 1024" width="1024px" xml:space="preserve" xmlns="http://www.w3.org/2000/svg" xmlns:xlink="http://www.w3.org/1999/xlink"><g id="Background"><linearGradient gradientTransform="matrix(0.9397 0.3421 0.3421 -0.9397 275.9532 765.9631)" gradientUnits="userSpaceOnUse" id="bg_1_" x1="464.1323" x2="-194.2839" y1="-72.9106" y2="711.6677"><stop offset="0" style="stop-color:#941D13"/><stop offset="0.1665" style="stop-color:#9D2319"/><stop offset="0.4381" style="stop-color:#B53328"/><stop offset="0.7789" style="stop-color:#DD4D40"/><stop offset="1" style="stop-color:#FA6052"/></linearGradient><circle cx="512.001" cy="512" fill="url(#bg_1_)" id="bg" r="512"/></g><g id="G_x2B_"><polygon fill="#FFFFFF" points="813.338,464.648 751.782,464.648 751.782,403.092 712.593,403.092 712.593,464.648    651.036,464.648 651.036,503.837 712.593,503.837 712.593,565.394 751.782,565.394 751.782,503.837 813.338,503.837  "/><path d="M622.014,593.122c-20.704-23.292-52.498-47.692-68.024-61.372c-15.528-13.679-49.911-38.079,16.267-85.402   c66.177-47.323,56.936-109.063,43.625-146.404c-13.31-37.34-39.928-54.716-44.734-61.372c-4.807-6.654,1.108-4.806,1.108-4.806   s41.407,16.267,91.318-26.619H524.412c-34.693-1.534-70.188,1.229-104.005,9.086c-37.896,8.803-72.655,34.563-94.086,66.783   c-3.577,5.377-6.949,11.068-9.685,16.928c-15.983,34.253-16.833,73.261-3.224,108.504c3.855,9.987,9.401,20.311,16.164,28.656   c17.376,21.443,53.237,44.364,85.032,46.584c31.795,2.218,46.214,1.479,46.214,1.479s-24.031,43.255,15.712,80.965   c0,0-26.064,3.882-74.312,10.537c-48.247,6.654-119.97,33.827-134.758,102.223c-14.788,68.396,31.673,104.998,67.228,121.265   c43.851,20.063,94.635,22.551,141.819,16.787c25.227-3.082,50.876-8.532,74.149-19.006c29.577-13.309,55.087-33.643,72.093-55.825   c24.648-32.15,35.231-79.386,19.452-117.89C637.619,613.033,630.028,602.137,622.014,593.122z M463.108,460.212   c-25.625-3.882-45.912-23.292-57.558-38.819c-14.12-18.827-21.232-44.86-25.488-67.647c-2.314-12.398-2.729-26.047-2.291-38.623   c0.898-25.708,10.645-50.549,28.547-65.846c11.796-10.081,27.134-16.016,45.814-15.325c43.632,1.616,72.623,44.738,85.957,82.075   c5.546,15.528,10.537,42.146,11.091,56.011c0.556,13.864,1.109,45.474-17.746,63.773   C512.581,454.112,488.735,464.094,463.108,460.212z M592.438,710.688c-8.873,87.25-141.228,71.723-158.973,69.504   c-17.746-2.219-110.173-25.879-97.603-105.735c1.864-11.849,7.021-24.321,14.631-33.586c13.946-16.983,34.412-28.376,54.914-35.374   c24.953-8.515,50.66-15.282,76.073-13.77c13.196,0.786,26.314,3.806,39.207,9.973C559.375,620.21,597.015,665.685,592.438,710.688z   " fill="#FFFFFF"/></g></svg>