<?xml version="1.0" ?><!DOCTYPE svg  PUBLIC '-//W3C//DTD SVG 1.1//EN'  'http://www.w3.org/Graphics/SVG/1.1/DTD/svg11.dtd'><svg enable-background="new 0 0 1024 1024" height="1024px" id="Spotify" version="1.1" viewBox="0 0 1024 1024" width="1024px" xml:space="preserve" xmlns="http://www.w3.org/2000/svg" xmlns:xlink="http://www.w3.org/1999/xlink"><g id="Background"><linearGradient gradientTransform="matrix(0.9397 0.3421 0.3421 -0.9397 275.9532 765.9631)" gradientUnits="userSpaceOnUse" id="bg_1_" x1="464.1323" x2="-194.2839" y1="-72.9106" y2="711.6677"><stop offset="0" style="stop-color:#08AA4B"/><stop offset="0.2088" style="stop-color:#0BB34B"/><stop offset="0.5493" style="stop-color:#14CB4B"/><stop offset="0.9769" style="stop-color:#22F34C"/><stop offset="1" style="stop-color:#23F54C"/></linearGradient><circle cx="512.001" cy="512" fill="url(#bg_1_)" id="bg" r="512"/></g><path d="M242.102,326.146c0.253-0.067,0.501-0.156,0.752-0.233c20.763-6.34,42.188-10.79,63.528-14.648  c47.463-8.582,95.713-13.013,143.938-13.453c65.015-0.592,130.184,6.246,193.406,21.558c36.021,8.724,71.379,20.201,105.586,34.475  c16.003,6.677,32.021,13.412,47.385,21.479c13.396,7.035,26.776,13.979,35.749,26.608c9.934,13.984,8.567,30.109-1.447,43.735  c-20.897,28.434-44.402,17.723-70.472,5.118c-49.03-23.707-104.79-41.465-158.081-52.67  c-60.058-12.625-121.66-17.937-182.987-15.431c-52.587,2.148-104.905,10.07-155.784,23.53c0,0-46.586,11.852-56.342-29.882  C198.339,337.859,242.043,326.162,242.102,326.146z" fill="#FFFFFF"/><path d="M265.787,480.146c0.218-0.058,0.431-0.135,0.647-0.2c17.85-5.451,36.27-9.276,54.615-12.594  c40.805-7.377,82.285-11.188,123.745-11.564c55.894-0.509,111.921,5.369,166.274,18.533c30.967,7.5,61.364,17.366,90.772,29.638  c13.757,5.74,27.528,11.53,40.736,18.466c11.518,6.047,23.021,12.019,30.733,22.875c8.541,12.022,7.366,25.885-1.243,37.6  c-17.967,24.444-38.173,15.236-60.586,4.399c-42.152-20.381-90.09-35.647-135.903-45.279  c-51.632-10.854-104.592-15.421-157.315-13.267c-45.21,1.847-90.188,8.657-133.93,20.229c0,0-40.05,10.188-48.438-25.69  C228.164,490.216,265.737,480.16,265.787,480.146z" fill="#FFFFFF"/><path d="M282.517,623.367c0.187-0.05,0.368-0.115,0.553-0.172c15.243-4.654,30.97-7.921,46.637-10.753  c34.843-6.3,70.264-9.554,105.667-9.875c47.728-0.436,95.571,4.585,141.984,15.825c26.442,6.405,52.399,14.83,77.512,25.309  c11.747,4.901,23.506,9.847,34.785,15.769c9.835,5.164,19.656,10.263,26.244,19.534c7.292,10.266,6.291,22.104-1.063,32.106  c-15.341,20.874-32.597,13.011-51.735,3.757c-35.994-17.403-76.929-30.44-116.05-38.666c-44.089-9.27-89.313-13.167-134.333-11.328  c-38.605,1.576-77.013,7.392-114.363,17.274c0,0-34.201,8.699-41.361-21.938C250.391,631.965,282.474,623.378,282.517,623.367z" fill="#FFFFFF"/></svg>