<?xml version="1.0" ?><!DOCTYPE svg  PUBLIC '-//W3C//DTD SVG 1.1//EN'  'http://www.w3.org/Graphics/SVG/1.1/DTD/svg11.dtd'><svg enable-background="new 0 0 1024 1024" height="1024px" id="Wordpress_1_" version="1.1" viewBox="0 0 1024 1024" width="1024px" xml:space="preserve" xmlns="http://www.w3.org/2000/svg" xmlns:xlink="http://www.w3.org/1999/xlink"><g id="Background"><linearGradient gradientTransform="matrix(0.9397 0.3421 0.3421 -0.9397 275.9532 765.9631)" gradientUnits="userSpaceOnUse" id="bg_1_" x1="464.1323" x2="-194.2836" y1="-72.9106" y2="711.6673"><stop offset="0" style="stop-color:#002137"/><stop offset="0.1355" style="stop-color:#022840"/><stop offset="0.3565" style="stop-color:#083C58"/><stop offset="0.6355" style="stop-color:#125B80"/><stop offset="0.9587" style="stop-color:#1F87B6"/><stop offset="1" style="stop-color:#218DBE"/></linearGradient><path d="M512.031,0C794.799,0.016,1024.017,229.26,1024,512.03   c-0.013,237.33-161.502,436.936-380.584,494.947c-41.946,11.107-86.004,17.024-131.444,17.021   C229.201,1023.985-0.017,794.741,0,511.971C0.017,229.201,229.26-0.016,512.031,0z" fill="url(#bg_1_)" id="bg"/></g><path d="M195.503,333.451c0.002,0,21.998,0,21.998,0s5.019-0.809,8.405,5.609  c1.128,2.139,2.386,5.082,3.734,9.125c0.167,0.499,0.352,0.993,0.528,1.489c0.181,0.509,0.362,1.018,0.542,1.527  c0.19,0.534,0.38,1.068,0.57,1.603c0.203,0.571,0.407,1.143,0.611,1.714c0.221,0.619,0.442,1.239,0.664,1.857  c0.243,0.679,0.485,1.355,0.728,2.033c0.268,0.745,0.535,1.49,0.802,2.235c0.294,0.819,0.59,1.64,0.885,2.459  c0.325,0.901,0.649,1.802,0.975,2.703c0.356,0.987,0.713,1.975,1.07,2.962c0.389,1.076,0.778,2.153,1.168,3.229  c0.423,1.167,0.846,2.336,1.269,3.503c0.457,1.26,0.913,2.519,1.37,3.778c0.49,1.351,0.979,2.7,1.471,4.051  c0.522,1.438,1.045,2.878,1.568,4.316c0.555,1.525,1.109,3.05,1.664,4.575c0.584,1.607,1.169,3.214,1.754,4.82  c0.613,1.685,1.226,3.369,1.839,5.053c0.64,1.757,1.28,3.514,1.919,5.271c0.664,1.824,1.329,3.646,1.994,5.472  c0.687,1.886,1.375,3.771,2.062,5.657c0.708,1.942,1.417,3.884,2.124,5.826c0.727,1.993,1.454,3.986,2.181,5.979  c0.744,2.041,1.488,4.08,2.232,6.12c0.759,2.082,1.519,4.163,2.278,6.245c0.773,2.119,1.546,4.239,2.32,6.358  c0.786,2.152,1.572,4.307,2.357,6.46c0.797,2.185,1.595,4.367,2.392,6.553c0.807,2.212,1.615,4.424,2.422,6.636  c0.817,2.237,1.634,4.476,2.451,6.712c0.825,2.261,1.651,4.522,2.477,6.783c0.833,2.281,1.667,4.563,2.5,6.846  c0.841,2.303,1.682,4.604,2.522,6.905c0.848,2.32,1.695,4.641,2.542,6.961c0.854,2.337,1.708,4.674,2.562,7.011  c0.859,2.354,1.718,4.705,2.578,7.059c0.865,2.364,1.729,4.731,2.594,7.099c0.869,2.378,1.738,4.757,2.608,7.135  c0.873,2.391,1.746,4.778,2.621,7.167c0.875,2.398,1.752,4.797,2.63,7.194c0.879,2.405,1.758,4.81,2.637,7.215  c0.881,2.409,1.763,4.819,2.644,7.229c0.883,2.412,1.765,4.823,2.646,7.235c0.882,2.413,1.765,4.826,2.646,7.239  c0.881,2.41,1.764,4.821,2.646,7.232c0.88,2.405,1.76,4.813,2.641,7.22c0.877,2.399,1.755,4.8,2.633,7.199  c0.875,2.392,1.749,4.78,2.624,7.172c0.87,2.379,1.741,4.758,2.611,7.137c0.865,2.364,1.73,4.729,2.595,7.094  c0.859,2.348,1.719,4.694,2.577,7.042c0.853,2.328,1.704,4.655,2.556,6.983c0.845,2.306,1.688,4.61,2.531,6.916  c0.834,2.28,1.668,4.561,2.503,6.841c0.824,2.252,1.648,4.503,2.473,6.755c0.813,2.222,1.625,4.441,2.438,6.662  c0.8,2.187,1.601,4.371,2.4,6.558c0.786,2.147,1.571,4.295,2.357,6.442c0.771,2.106,1.541,4.212,2.313,6.318  c0.754,2.06,1.508,4.121,2.263,6.181c0.736,2.011,1.473,4.022,2.208,6.033c0.717,1.957,1.434,3.915,2.149,5.873  c0.695,1.899,1.392,3.801,2.087,5.701c0.674,1.839,1.347,3.679,2.02,5.518c0.649,1.775,1.3,3.55,1.949,5.324  c0.625,1.707,1.25,3.414,1.875,5.121c0.598,1.636,1.197,3.271,1.796,4.908c0.573,1.563,1.146,3.125,1.717,4.688  c0.545,1.489,1.09,2.979,1.636,4.466c0.517,1.413,1.034,2.826,1.552,4.238c0.489,1.338,0.979,2.675,1.469,4.013  c0.463,1.264,0.926,2.526,1.388,3.79c0.438,1.191,0.872,2.382,1.31,3.573c0.411,1.122,0.822,2.244,1.232,3.366  c0.388,1.057,0.774,2.113,1.162,3.172c0.366,0.998,0.731,1.996,1.098,2.994c0.346,0.943,0.691,1.89,1.039,2.835  c0.33,0.898,0.658,1.799,0.988,2.697c0.316,0.862,0.631,1.726,0.947,2.588c0.305,0.834,0.611,1.668,0.917,2.501  c1.119,3.051,2.269,6.097,3.694,9.021c0.411,0.843,0.84,1.679,1.303,2.494c0.372,0.655,0.756,1.336,1.264,1.896  c1.248,1.381,4.088,3.068,7.446,3.211c6.94,0.291,14.95,0.079,14.95,0.079s5.802,0.616,9.754-8.074  c3.883-8.538,91.99-269.231,91.99-269.231s4.087-13.834,8.894,0.315c0.124,0.364,0.26,0.727,0.39,1.09  c0.134,0.372,0.267,0.745,0.399,1.117c0.14,0.391,0.28,0.78,0.42,1.171c0.149,0.417,0.299,0.833,0.449,1.25  c0.162,0.451,0.325,0.901,0.487,1.353c0.178,0.492,0.354,0.984,0.532,1.478c0.195,0.54,0.392,1.078,0.586,1.619  c0.216,0.592,0.431,1.184,0.646,1.774c0.235,0.648,0.471,1.296,0.708,1.944c0.258,0.708,0.516,1.415,0.774,2.122  c0.279,0.768,0.561,1.536,0.842,2.304c0.303,0.83,0.605,1.659,0.91,2.488c0.325,0.891,0.651,1.78,0.979,2.671  c0.348,0.95,0.697,1.898,1.045,2.849c0.37,1.007,0.739,2.014,1.109,3.021c0.39,1.062,0.78,2.123,1.171,3.185  c0.409,1.113,0.818,2.227,1.229,3.339c0.428,1.161,0.854,2.321,1.282,3.482c0.444,1.205,0.888,2.409,1.332,3.614  c0.459,1.244,0.918,2.489,1.377,3.733c0.473,1.281,0.945,2.563,1.418,3.844c0.485,1.314,0.97,2.63,1.456,3.943  c0.496,1.344,0.993,2.688,1.489,4.032c0.506,1.371,1.013,2.742,1.52,4.112c0.517,1.396,1.031,2.791,1.547,4.187  c0.524,1.418,1.049,2.835,1.572,4.253c0.532,1.438,1.063,2.876,1.595,4.314c0.539,1.458,1.078,2.914,1.617,4.371  c0.545,1.476,1.091,2.95,1.636,4.426c0.553,1.492,1.104,2.982,1.655,4.475c0.559,1.507,1.115,3.015,1.673,4.522  c0.563,1.521,1.126,3.045,1.69,4.566c0.568,1.537,1.137,3.073,1.706,4.609c0.573,1.549,1.146,3.099,1.72,4.647  c0.578,1.562,1.156,3.122,1.734,4.684c0.582,1.572,1.164,3.143,1.746,4.715c0.585,1.58,1.171,3.161,1.756,4.741  c0.588,1.587,1.176,3.175,1.764,4.762c0.59,1.593,1.181,3.187,1.771,4.778c0.591,1.596,1.183,3.191,1.773,4.787  c0.592,1.597,1.186,3.192,1.777,4.79c0.592,1.595,1.184,3.189,1.774,4.785c0.592,1.593,1.183,3.185,1.773,4.775  c0.588,1.585,1.178,3.171,1.767,4.757c0.586,1.578,1.173,3.156,1.76,4.734c0.583,1.568,1.166,3.137,1.749,4.705  c0.578,1.557,1.156,3.113,1.735,4.67c0.574,1.543,1.148,3.087,1.724,4.63c0.568,1.529,1.138,3.058,1.707,4.586  c0.563,1.513,1.126,3.026,1.689,4.54c0.557,1.496,1.114,2.993,1.671,4.489c0.552,1.479,1.103,2.957,1.652,4.436  c0.543,1.459,1.087,2.919,1.631,4.379c0.536,1.44,1.073,2.88,1.609,4.32c0.528,1.419,1.058,2.838,1.586,4.257  c0.521,1.397,1.041,2.794,1.562,4.191c0.512,1.374,1.024,2.747,1.536,4.12c0.502,1.348,1.004,2.695,1.507,4.044  c0.492,1.319,0.984,2.641,1.478,3.961c0.479,1.29,0.961,2.58,1.441,3.871c0.47,1.257,0.938,2.514,1.406,3.771  c0.455,1.221,0.911,2.442,1.366,3.663c0.439,1.181,0.881,2.363,1.322,3.544c0.425,1.138,0.85,2.276,1.273,3.415  c0.408,1.091,0.815,2.182,1.224,3.273c0.389,1.041,0.777,2.081,1.168,3.121c0.368,0.986,0.738,1.973,1.107,2.959  c0.349,0.929,0.697,1.857,1.046,2.786c0.327,0.87,0.653,1.739,0.981,2.608c0.304,0.808,0.608,1.615,0.914,2.422  c0.282,0.745,0.563,1.49,0.846,2.234c0.259,0.682,0.519,1.362,0.778,2.044c0.236,0.62,0.473,1.239,0.71,1.857  c0.214,0.56,0.429,1.118,0.645,1.678c0.193,0.502,0.389,1.003,0.583,1.504c0.176,0.448,0.351,0.896,0.526,1.345  c0.705,1.798,1.365,3.603,2.299,5.188c0.989,1.68,2.285,3.113,4.27,4.038c1.876,0.875,3.864,1.509,5.922,1.771  c1.718,0.22,3.491,0.309,5.223,0.292c11.588-0.108,13.385,0.426,18.326-11.701c4.94-12.128,109.866-319.448,109.866-319.448  s14.553-42.582,17.787-70.609c2.605-22.585,4.748-45.546,1.956-68.222c-2.583-20.981-11.224-44.771-26.639-59.897  c-7.795-7.649-18.509-11.763-29.119-13.595c-5.25-0.906-10.926-1.409-16.256-1.069c-5.038,0.32-10.614,1.521-15.188,3.729  c-9.934,4.797-18.193,13.819-23.541,23.34c-9.048,16.107-11.695,36.273-6.495,54.071c5.253,17.982,18.631,31.95,28.591,47.361  c6.784,10.496,12.503,21.914,16.218,33.865c3.949,12.705,6.265,25.849,7.286,39.104c0.932,12.076,1.405,25.25-2.381,36.925  L671.116,645.92c0,0-1.953,6.915-3.896,6.856c-1.946-0.058-5.486-7.469-8.534-15.338  c-12.197-31.483-101.333-305.613-101.333-305.613s-4.717-9.567,10.914-9.702c15.632-0.135,32.745-0.181,32.564-13.476  c-0.05-3.723-1.443-8.441-4.832-10.397c-7.271-4.199-16.373-2.092-24.264-1.791c-10.006,0.381-19.999,1.07-30.005,1.447  c-3.245,0.122-6.491,0.229-9.737,0.333c-10.489,0.333-20.983,0.532-31.477,0.671c-10.801,0.144-21.613,0.229-32.414,0.107  c-9.465-0.106-18.913-0.267-28.374-0.556c-3.767-0.115-7.542-0.1-11.294-0.477c-2.99-0.301-5.879-0.649-8.895-0.455  c-7.184,0.461-10.261,6.943-9.517,13.633c1.437,12.937,15.271,11.499,27.489,11.679c12.217,0.18,16.17-2.336,19.942,8.624  c3.773,10.96,43.838,118.938,43.838,118.938s1.617,8.266,0.449,12.847c-1.167,4.582-61.536,181.016-61.536,181.016  s-6.019,26.59-13.835-3.324C418.56,611.037,321.63,328.78,321.63,328.78s-3.233-5.93,8.983-6.108  c12.217-0.18,21.38-1.797,21.381-1.797c2.868-0.506,5.911-1.931,8.429-3.339c4.385-2.453,6.827-7.774,6.276-12.681  c-1.407-12.528-21.873-8.979-29.978-7.876c-7.688,1.046-15.485,1.368-23.229,1.734c-11.15,0.526-22.312,0.813-33.471,1.068  c-12.065,0.277-24.138,0.474-36.206,0.552c-10.556,0.068-21.112,0.179-31.668,0.183c-11.637,0.005-30.802-4.402-32.542,12.317  c-0.643,6.168,0.772,12.778,5.667,16.998C187.921,332.113,192.008,333.451,195.503,333.451z" fill="#FFFFFF" id="Wordpress"/></svg>