<?xml version="1.0" ?><!DOCTYPE svg  PUBLIC '-//W3C//DTD SVG 1.1//EN'  'http://www.w3.org/Graphics/SVG/1.1/DTD/svg11.dtd'><svg height="512px" style="enable-background:new 0 0 512 512;" version="1.1" viewBox="0 0 512 512" width="512px" xml:space="preserve" xmlns="http://www.w3.org/2000/svg" xmlns:xlink="http://www.w3.org/1999/xlink"><g id="comp_x5F_2-Microsoft_Access"><g><g><g><polygon points="127.941,270.424 170.546,270.424 149.239,211.702     " style="fill:#E5173E;"/><path d="M170.546,280.424h-42.605c-3.261,0-6.316-1.59-8.188-4.26c-1.872-2.67-2.324-6.085-1.212-9.149      l21.298-58.723c1.435-3.956,5.192-6.59,9.4-6.59c4.208,0,7.965,2.634,9.401,6.589l21.307,58.722      c1.112,3.065,0.66,6.48-1.212,9.151C176.863,278.834,173.807,280.424,170.546,280.424z M142.205,260.424h14.074l-7.039-19.398      L142.205,260.424z" style="fill:#AC112F;"/></g><g><path d="M336.113,68.633c-20.338,0-39.883,1.492-57.502,4.366V54.22c0-4.298-1.891-8.364-5.199-11.104      c-3.283-2.738-7.68-3.922-11.818-3.053L43.866,83.3c-6.813,1.275-11.73,7.211-11.73,14.156v317.104      c0,6.92,4.917,12.884,11.73,14.158l217.728,43.24c0.861,0.17,1.754,0.259,2.646,0.259c3.334,0,6.582-1.153,9.172-3.317      c3.309-2.735,5.199-6.829,5.199-11.1v-18.79c17.613,2.871,37.16,4.38,57.502,4.38c69.232,0,143.752-18.044,143.752-57.654      V126.283C479.865,86.675,405.346,68.633,336.113,68.633z M211.656,341.628c-1.638,0.578-3.274,0.868-4.92,0.868      c-5.864,0-11.38-3.635-13.478-9.485L181.01,299.25h-63.507l-12.22,33.761c-2.733,7.496-10.925,11.384-18.43,8.617      c-7.443-2.708-11.328-10.983-8.598-18.478l57.504-158.548c4.11-11.424,22.856-11.424,26.99,0l57.508,158.548      C222.959,330.645,219.1,338.92,211.656,341.628z M451.115,385.736c0,7.411-39.533,28.826-115.002,28.826      c-20.664,0-40.289-1.642-57.502-4.786v-57.249c17.613,2.87,37.16,4.382,57.502,4.382c42.52,0,86.971-6.831,115.002-21.273      V385.736z M451.115,299.248c0,7.413-39.533,28.832-115.002,28.832c-20.664,0-40.289-1.643-57.502-4.786v-57.236      c17.619,2.872,37.164,4.366,57.502,4.366c42.52,0,86.971-6.836,115.002-21.273V299.248z M451.115,212.77      c0,7.411-39.533,28.825-115.002,28.825c-20.664,0-40.289-1.644-57.502-4.801v-57.221c17.619,2.874,37.164,4.368,57.502,4.368      c42.52,0,86.971-6.833,115.002-21.278V212.77z M336.113,155.113c-20.664,0-40.289-1.644-57.502-4.801v-48.053      c17.225-3.156,36.844-4.802,57.502-4.802c75.469,0,115.002,21.423,115.002,28.827      C451.115,133.695,411.582,155.113,336.113,155.113z" style="fill:#E5173E;"/><path d="M264.24,482.218c-1.534,0-3.075-0.15-4.582-0.448L41.967,438.537      c-11.495-2.181-19.832-12.254-19.832-23.977V97.457c0-11.72,8.335-21.792,19.829-23.974l217.642-43.22      c1.54-0.319,3.124-0.48,4.709-0.48c5.625,0,11.13,2.008,15.502,5.654c5.58,4.62,8.795,11.475,8.795,18.784v7.24      c14.996-1.877,30.922-2.827,47.502-2.827c38.196,0,74.106,5.158,101.114,14.524c43.506,15.087,52.638,37.217,52.638,53.126      v259.453c0,15.909-9.132,38.041-52.638,53.129c-27.008,9.367-62.918,14.525-101.114,14.525c-16.539,0-32.465-0.953-47.502-2.84      v7.25c0,7.314-3.218,14.169-8.827,18.807C275.469,480.214,269.935,482.218,264.24,482.218z M264.314,49.782      c-0.229,0-0.454,0.023-0.667,0.067c-0.035,0.007-0.07,0.015-0.105,0.022L45.813,93.109c-0.036,0.007-0.072,0.014-0.108,0.021      c-2.068,0.387-3.57,2.207-3.57,4.327v317.104c0,2.121,1.501,3.941,3.569,4.329c0.036,0.007,0.073,0.014,0.109,0.021      l217.729,43.24c0.219,0.043,0.465,0.067,0.698,0.067c1.015,0,1.995-0.352,2.76-0.991c1.024-0.847,1.611-2.115,1.611-3.426      v-18.79c0-2.934,1.288-5.719,3.522-7.619c2.235-1.899,5.195-2.722,8.086-2.251c17.3,2.82,36.104,4.25,55.894,4.25      c35.501,0,69.968-4.892,94.562-13.421c17.879-6.2,39.19-17.173,39.19-34.233V126.283c0-17.059-21.312-28.03-39.19-34.23      c-24.594-8.528-59.06-13.42-94.562-13.42c-19.856,0-38.661,1.425-55.892,4.236c-2.895,0.472-5.853-0.351-8.087-2.25      c-2.235-1.9-3.523-4.686-3.523-7.619V54.22c0-1.332-0.575-2.571-1.577-3.401C266.235,50.152,265.253,49.782,264.314,49.782z       M336.113,424.563c-21.372,0-41.323-1.665-59.299-4.949c-4.751-0.867-8.203-5.007-8.203-9.837v-57.249      c0-2.934,1.288-5.719,3.522-7.618c2.235-1.9,5.189-2.721,8.086-2.252c17.313,2.821,36.118,4.252,55.894,4.252      c44.638,0,85.917-7.537,110.422-20.163c3.098-1.599,6.807-1.465,9.786,0.352c2.978,1.815,4.794,5.051,4.794,8.538v50.101      c0,9.929-12.148,18.913-36.108,26.702C407.995,417.97,378.763,424.563,336.113,424.563z M288.611,401.289      c14.576,2.148,30.819,3.273,47.502,3.273c36.387,0,61.926-5.105,76.942-9.388c16.911-4.822,25.252-9.898,28.06-12.143v-32.099      c-27.233,10.239-64.43,15.976-105.002,15.976c-16.53,0-32.456-0.954-47.502-2.842V401.289z M91.815,352.521      c-2.87,0-5.703-0.508-8.421-1.51c-6.074-2.21-10.96-6.689-13.717-12.599c-2.761-5.918-3.052-12.554-0.818-18.685l57.5-158.535      c3.31-9.198,12.297-15.158,22.887-15.158c0,0,0,0,0,0c10.582,0,19.574,5.953,22.907,15.166l57.505,158.54      c4.569,12.672-1.976,26.698-14.583,31.285c-2.795,0.987-5.57,1.471-8.339,1.471c-10.238,0-19.437-6.475-22.891-16.111      L174,309.25h-49.482l-9.832,27.164C111.17,346.056,101.982,352.52,91.815,352.521z M149.246,166.035      c-1.253,0-3.521,0.412-4.076,1.954L87.656,326.56c-0.55,1.509-0.145,2.774,0.145,3.396c0.289,0.618,0.994,1.737,2.471,2.274      c2.477,0.914,4.787-0.371,5.616-2.646l12.212-33.738c1.433-3.959,5.192-6.597,9.403-6.597h63.507c4.208,0,7.965,2.634,9.4,6.589      l12.249,33.761c0.721,2.012,2.564,2.896,4.077,2.896c0.503,0,1.023-0.098,1.592-0.298c2.182-0.795,3.354-3.347,2.521-5.656      l-57.501-158.53C152.783,166.45,150.504,166.035,149.246,166.035z M336.113,338.08c-21.366,0-41.317-1.665-59.299-4.949      c-4.751-0.867-8.203-5.007-8.203-9.837v-57.236c0-2.934,1.288-5.719,3.522-7.618c2.235-1.901,5.195-2.725,8.086-2.251      c17.243,2.811,36.049,4.236,55.894,4.236c44.63,0,85.909-7.538,110.423-20.164c3.1-1.598,6.806-1.464,9.785,0.353      c2.978,1.815,4.794,5.05,4.794,8.538v50.098c0,9.93-12.148,18.915-36.107,26.706C407.995,331.485,378.764,338.08,336.113,338.08      z M288.611,314.807c14.579,2.148,30.823,3.273,47.502,3.273c36.388,0,61.926-5.106,76.942-9.39      c16.913-4.824,25.253-9.9,28.06-12.146v-32.098c-27.238,10.24-64.435,15.977-105.002,15.977      c-16.573,0-32.499-0.949-47.502-2.827V314.807z M336.113,251.594c-21.392,0-41.346-1.67-59.306-4.965      c-4.748-0.871-8.196-5.009-8.196-9.836v-57.221c0-2.934,1.288-5.719,3.523-7.619c2.233-1.9,5.188-2.723,8.086-2.251      c17.242,2.812,36.047,4.238,55.893,4.238c44.638,0,85.917-7.539,110.421-20.167c3.1-1.599,6.81-1.464,9.786,0.351      c2.978,1.815,4.795,5.051,4.795,8.539v50.107c0,9.929-12.148,18.912-36.108,26.702      C407.994,245.001,378.763,251.594,336.113,251.594z M288.611,228.312c14.564,2.154,30.807,3.283,47.502,3.283      c36.387,0,61.926-5.105,76.942-9.387c16.911-4.822,25.252-9.897,28.06-12.142v-32.103      c-27.233,10.241-64.43,15.979-105.002,15.979c-16.574,0-32.499-0.95-47.502-2.829V228.312z M336.113,165.113      c-21.39,0-41.343-1.67-59.306-4.965c-4.748-0.871-8.196-5.009-8.196-9.836v-48.053c0-4.828,3.449-8.966,8.197-9.836      c17.981-3.294,37.935-4.965,59.305-4.965c42.647,0,71.88,6.595,88.895,12.127c23.959,7.791,36.107,16.774,36.107,26.7      c0,9.929-12.148,18.914-36.108,26.704C407.995,158.519,378.763,165.113,336.113,165.113z M288.611,141.83      c14.565,2.155,30.809,3.283,47.502,3.283c36.387,0,61.926-5.105,76.942-9.389c11.832-3.375,19.469-6.873,23.949-9.439      c-4.481-2.565-12.119-6.064-23.949-9.438c-15.018-4.284-40.558-9.39-76.942-9.39c-16.681,0-32.924,1.129-47.502,3.285V141.83z" style="fill:#AC112F;"/></g></g></g></g><g id="Layer_1"/></svg>