<?xml version="1.0" ?><!DOCTYPE svg  PUBLIC '-//W3C//DTD SVG 1.1//EN'  'http://www.w3.org/Graphics/SVG/1.1/DTD/svg11.dtd'><svg height="512px" style="enable-background:new 0 0 512 512;" version="1.1" viewBox="0 0 512 512" width="512px" xml:space="preserve" xmlns="http://www.w3.org/2000/svg" xmlns:xlink="http://www.w3.org/1999/xlink"><g id="_x31_5_x2C__Flash_Player_x2C__Adobe"><g><g><rect height="492" style="fill:#E01F2D;" width="492" x="10" y="10"/><g><path d="M501.508,512H10.492C4.697,512,0,507.303,0,501.508V10.492C0,4.697,4.697,0,10.492,0h491.016      C507.303,0,512,4.697,512,10.492v491.016C512,507.303,507.303,512,501.508,512z M21,491h470V21H21V491z" style="fill:#A81722;"/></g></g><g><g id="XMLID_516_"><g id="XMLID_517_"><path d="M216.808,266.81c-38.321,94.65-100.224,93.346-100.224,93.346v60.264       c95.812,0,133.984-66.16,161.751-132.976h77.994v-62.885h-52.545c33.173-75.311,87.921-72.712,87.921-72.712V90.927       C281.657,90.927,250.633,183.25,216.808,266.81z" style="fill:#45221B;"/><path d="M116.583,430.911c-5.794,0-10.492-4.698-10.492-10.492v-60.264c0-2.82,1.136-5.523,3.152-7.496       c2.017-1.973,4.751-3.015,7.562-2.993c2.165-0.001,55.538-0.987,90.277-86.794c1.741-4.302,3.476-8.627,5.213-12.962       c16.194-40.393,32.939-82.161,59.349-114.161c30.718-37.22,69.989-55.313,120.061-55.313c5.794,0,10.491,4.697,10.491,10.492       v60.919c0,2.869-1.175,5.613-3.251,7.593c-2.076,1.981-4.879,3.021-7.738,2.887l-0.166,0.001       c-4.544,0-42.179,1.573-70.333,51.739h35.621c5.794,0,10.491,4.697,10.491,10.492v62.885c0,5.794-4.697,10.492-10.491,10.492       h-71.031C255.392,367.83,213.348,430.911,116.583,430.911z M127.075,369.545v40.088       c84.019-4.794,117.126-67.395,141.571-126.216c1.627-3.914,5.45-6.465,9.688-6.465h67.502V235.05h-42.053       c-3.546,0-6.852-1.791-8.788-4.76c-1.937-2.969-2.243-6.716-0.813-9.961c13.989-31.759,33.323-54.556,57.465-67.755       c11.674-6.384,22.169-9.16,29.565-10.354v-40.494c-89.028,5.297-118.403,78.577-149.44,155.992       c-1.747,4.357-3.49,8.704-5.24,13.028c-16.431,40.585-39.047,69.622-67.219,86.305       C146.336,364.736,134.906,368.089,127.075,369.545z" style="fill:#341A14;"/></g></g></g></g></g><g id="Layer_1"/></svg>