<?xml version="1.0" ?><!DOCTYPE svg  PUBLIC '-//W3C//DTD SVG 1.1//EN'  'http://www.w3.org/Graphics/SVG/1.1/DTD/svg11.dtd'><svg height="512px" style="enable-background:new 0 0 512 512;" version="1.1" viewBox="0 0 512 512" width="512px" xml:space="preserve" xmlns="http://www.w3.org/2000/svg" xmlns:xlink="http://www.w3.org/1999/xlink"><g id="_x33_0_x2C__AEP_x2C__File_Type_x2C__After_Effects"><g><polygon points="362.628,60.905 419.462,117.917 419.242,118.127 363.11,118.169 362.586,60.947   " style="fill:#1F0040;"/><path d="M130.098,100.721H306.36v101.771H130.098h-0.43h-37.34V100.721h37.34H130.098z" style="fill:#1F0040;"/><path d="M355.168,355.524v11.353c-6.379,2.015-12.903,3.106-20.983,3.106    c-11.037,0-20.679-4.67-21.455-14.459H355.168z" style="fill:#1F0040;"/><path d="M419.672,118.127v333.021H130.098V202.492H306.36V100.721H130.098V60.853h232.488l0.042,0.052    l-0.042,0.042l0.524,57.222l56.132-0.042l0.22-0.209L419.672,118.127z" style="fill:#1F0040;"/><path d="M363.11,128.661c-5.756,0-10.438-4.638-10.491-10.395l-0.524-57.223    c-0.054-5.794,4.601-10.534,10.396-10.587c0.032,0,0.065,0,0.098,0c5.75,0,10.437,4.634,10.49,10.396l0.428,46.819l45.728-0.034    c0.003,0,0.007,0,0.009,0c5.791,0,10.487,4.692,10.491,10.484c0.004,5.794-4.689,10.496-10.483,10.5l-56.131,0.042    C363.116,128.661,363.112,128.661,363.11,128.661z" style="fill:#D291FF;"/><path d="M419.672,461.64H130.098c-5.794,0-10.492-4.697-10.492-10.492V202.492    c0-5.794,4.697-10.492,10.492-10.492c5.795,0,10.492,4.697,10.492,10.492v238.164h268.59v-318.19l-50.96-51.121H140.59v29.377    c0,5.795-4.697,10.492-10.492,10.492c-5.794,0-10.492-4.697-10.492-10.492V60.853c0-5.794,4.697-10.492,10.492-10.492h232.488    c2.934,0,5.722,1.227,7.699,3.364l56.797,56.975c1.974,1.968,3.082,4.641,3.082,7.428v333.021    C430.164,456.942,425.467,461.64,419.672,461.64z" style="fill:#D291FF;"/><path d="M306.36,212.983H92.328c-5.795,0-10.492-4.697-10.492-10.492V100.721    c0-5.794,4.697-10.492,10.492-10.492H306.36c5.795,0,10.492,4.697,10.492,10.492v101.771    C316.853,208.286,312.155,212.983,306.36,212.983z M102.82,192h193.049v-80.787H102.82V192z" style="fill:#D291FF;"/><path d="M362.472,346.199c0,4.038-0.463,7.616-0.777,9.325h-6.526h-42.438    c0.776,9.789,10.418,14.459,21.455,14.459c8.08,0,14.604-1.092,20.983-3.106l3.106,16c-7.774,3.117-17.249,4.669-27.51,4.669    c-25.8,0-40.572-14.919-40.572-38.704c0-19.273,11.972-40.571,38.399-40.571C353.144,308.271,362.472,327.396,362.472,346.199z     M312.582,339.357h27.972c0-5.749-2.486-15.381-13.367-15.381C317.241,323.977,313.201,332.988,312.582,339.357z" style="fill:#D291FF;"/><path d="M256.105,260.773l35.106,125.221h-27.552l-8.729-32.147H222.51l-8.058,32.147h-26.534    l34.592-125.221H256.105z M251.237,332.674l-7.061-26.575c-2.015-7.429-4.029-16.714-5.708-24.152h-0.335    c-1.679,7.438-3.358,16.912-5.205,24.152l-6.714,26.575H251.237z" style="fill:#D291FF;"/><path d="M240,144.388c0-3.599-2.508-5.76-6.935-5.76c-1.805,0-3.022,0.178-3.662,0.347v11.593    c0.755,0.179,1.689,0.231,2.969,0.231C237.083,150.799,240,148.417,240,144.388z M244.595,135.082    c2.508,1.983,4.197,5.246,4.197,9.086s-1.28,7.103-3.609,9.306c-3.033,2.854-7.513,4.134-12.758,4.134    c-1.165,0-2.214-0.053-3.021-0.168v14.038h-8.792v-38.736c2.738-0.461,6.578-0.808,11.992-0.808    C238.08,131.935,241.983,132.983,244.595,135.082z" style="fill:#D291FF;"/><polygon points="198.4,147.651 212.847,147.651 212.847,154.88 198.4,154.88 198.4,164.197     214.536,164.197 214.536,171.478 189.492,171.478 189.492,132.228 213.718,132.228 213.718,139.51 198.4,139.51   " style="fill:#D291FF;"/><path d="M160.409,132.228h11.646l12.17,39.25h-9.547l-3.032-10.083h-11.237l-2.791,10.083h-9.201    L160.409,132.228z M165.949,138.859h-0.126c-0.577,2.339-1.165,5.309-1.804,7.575l-2.33,8.32h8.677l-2.445-8.32    C167.229,144.105,166.526,141.199,165.949,138.859z" style="fill:#D291FF;"/></g></g><g id="Layer_1"/></svg>