<?xml version="1.0" ?><!DOCTYPE svg  PUBLIC '-//W3C//DTD SVG 1.1//EN'  'http://www.w3.org/Graphics/SVG/1.1/DTD/svg11.dtd'><svg height="512px" style="enable-background:new 0 0 512 512;" version="1.1" viewBox="0 0 512 512" width="512px" xml:space="preserve" xmlns="http://www.w3.org/2000/svg" xmlns:xlink="http://www.w3.org/1999/xlink"><g id="_x33_4_x2C__Ai_x2C__Illustrator_x2C__Adobe"><g><polygon points="362.628,60.905 419.462,117.917 419.242,118.127 363.11,118.169 362.586,60.947   " style="fill:#261003;"/><path d="M419.672,118.127v333.021H130.098V202.492H306.36V100.721H130.098V60.853h232.488l0.042,0.052    l-0.042,0.042l0.524,57.222l56.132-0.042l0.22-0.209L419.672,118.127z" style="fill:#261003;"/><path d="M130.098,100.721H306.36v101.771H130.098h-0.43h-37.34V100.721h37.34H130.098z" style="fill:#261003;"/><path d="M363.11,128.661c-5.756,0-10.438-4.638-10.491-10.395l-0.524-57.223    c-0.054-5.794,4.601-10.534,10.396-10.587c0.032,0,0.065,0,0.098,0c5.75,0,10.437,4.634,10.49,10.396l0.428,46.819l45.728-0.034    c0.003,0,0.007,0,0.009,0c5.791,0,10.487,4.692,10.491,10.484c0.004,5.794-4.689,10.496-10.483,10.5l-56.131,0.042    C363.116,128.661,363.112,128.661,363.11,128.661z" style="fill:#FE7903;"/><path d="M130.098,212.983h-37.77c-5.795,0-10.492-4.697-10.492-10.492V100.721    c0-5.794,4.697-10.492,10.492-10.492h37.77c5.795,0,10.492,4.697,10.492,10.492c0,5.795-4.697,10.492-10.492,10.492H102.82V192    h27.278c5.795,0,10.492,4.697,10.492,10.492S135.893,212.983,130.098,212.983z" style="fill:#FE7903;"/><path d="M419.672,461.64H130.098c-5.794,0-10.492-4.697-10.492-10.492V202.492    c0-5.794,4.697-10.492,10.492-10.492h165.771v-80.787H130.098c-5.794,0-10.492-4.697-10.492-10.492V60.853    c0-5.794,4.697-10.492,10.492-10.492h232.488c2.935,0,5.722,1.228,7.7,3.365l56.796,56.973c1.974,1.969,3.082,4.642,3.082,7.428    v333.021C430.164,456.942,425.467,461.64,419.672,461.64z M140.59,440.655h268.59v-318.19l-50.96-51.121H140.59v18.885h165.77    c5.795,0,10.492,4.697,10.492,10.492v101.771c0,5.794-4.697,10.492-10.492,10.492H140.59V440.655z" style="fill:#FE7903;"/><g><rect height="45.115" style="fill:#FE7903;" width="10.24" x="217.086" y="129.144"/></g><g><path d="M195.105,155.059l-2.812-9.579c-0.797-2.676-1.605-6.022-2.266-8.698h-0.136     c-0.672,2.675-1.343,6.085-2.078,8.698l-2.675,9.579H195.105z M197.046,129.144l13.996,45.115h-10.974l-3.483-11.572h-12.916     l-3.221,11.572h-10.576l13.796-45.115H197.046z" style="fill:#FE7903;"/></g><rect height="112.703" style="fill:#FE7903;" width="25.589" x="320.326" y="292.112"/><path d="M270.269,256.094l34.948,148.721h-27.426l-8.696-38.179h-32.273l-8.027,38.179h-26.418    l34.445-148.721H270.269z M265.422,341.478l-7.03-31.549c-2.003-8.824-4.018-19.851-5.686-28.675h-0.326    c-1.678,8.824-3.357,20.071-5.193,28.675l-6.684,31.549H265.422z" style="fill:#FE7903;"/></g></g><g id="Layer_1"/></svg>