<?xml version="1.0" ?><!DOCTYPE svg  PUBLIC '-//W3C//DTD SVG 1.1//EN'  'http://www.w3.org/Graphics/SVG/1.1/DTD/svg11.dtd'><svg height="512px" style="enable-background:new 0 0 512 512;" version="1.1" viewBox="0 0 512 512" width="512px" xml:space="preserve" xmlns="http://www.w3.org/2000/svg" xmlns:xlink="http://www.w3.org/1999/xlink"><g id="_x31_8_x2C__Audition_x2C__Adobe"><g><g><rect height="492" style="fill:#00E4BB;" width="492" x="10" y="10"/><g><path d="M501.508,512H10.492C4.697,512,0,507.303,0,501.508V10.492C0,4.697,4.697,0,10.492,0h491.016      C507.303,0,512,4.697,512,10.492v491.016C512,507.303,507.303,512,501.508,512z M21,491h470V21H21V491z" style="fill:#00AB8C;"/></g></g><g><rect height="426" style="fill:#002620;" width="426" x="43" y="43"/><g><path d="M480,469.508c0,5.795-4.697,10.492-10.492,10.492H43.492C37.698,480,33,475.303,33,469.508      V43.492C33,37.698,37.698,33,43.492,33h426.016C475.303,33,480,37.698,480,43.492V469.508z M54,458h404V54H54V458z" style="fill:#001D18;"/></g></g><g><g id="XMLID_84_"><path d="M150.884,304.365l-17.778,60.5c-0.292,2.084-1.167,2.78-2.916,2.78h-29.729      c-2.041,0-2.625-1.041-2.041-3.478c15.74-53.196,42.261-141.861,60.915-202.013c0.875-3.477,1.751-6.955,2.333-19.125      c0-1.39,0.875-2.087,1.749-2.087h40.223c1.455,0,1.747,0.349,2.329,1.739c21.569,71.281,45.178,149.862,67.328,221.836      c0.587,2.088,0,3.129-1.747,3.129h-32.645c-1.456,0-2.04-0.696-2.623-2.088l-18.654-61.192H150.884z M209.759,270.289      c-5.828-23.296-20.11-70.236-25.938-94.573h-0.293c-4.372,22.947-16.32,62.235-25.065,94.573H209.759z" id="XMLID_88_" style="fill:#00E4BB;"/></g><g id="XMLID_83_"><path d="M412.789,333.91c0,2.348,0.332,9.446,1.005,20.942      c0,1.336-0.131,2.024-1.488,2.349c-17.9,6.762-37.742,13.856-62.74,13.856c-30.733,0-60.114-11.83-60.114-59.103v-107.9      c0-1.693,0.676-2.706,2.361-2.706h32.12c1.698,0,2.362,1.013,2.362,2.706v103.501c0,19.928,7.537,30.733,28.482,30.733      c8.439,0,16.1-1.685,21.167-3.711V204.055c0-1.693,0.665-2.706,2.363-2.706h32.107c2.029,0,2.374,1.013,2.374,2.706V333.91z" style="fill-rule:evenodd;clip-rule:evenodd;fill:#00E4BB;"/></g></g></g></g><g id="Layer_1"/></svg>