<?xml version="1.0" ?><!DOCTYPE svg  PUBLIC '-//W3C//DTD SVG 1.1//EN'  'http://www.w3.org/Graphics/SVG/1.1/DTD/svg11.dtd'><svg height="512px" style="enable-background:new 0 0 512 512;" version="1.1" viewBox="0 0 512 512" width="512px" xml:space="preserve" xmlns="http://www.w3.org/2000/svg" xmlns:xlink="http://www.w3.org/1999/xlink"><g id="_x31_0_x2C__Bridge_x2C__Adobe"><g><g><rect height="492" style="fill:#FBB500;" width="492" x="10" y="10"/><g><path d="M501.508,512H10.492C4.697,512,0,507.303,0,501.508V10.492C0,4.697,4.697,0,10.492,0h491.016      C507.303,0,512,4.697,512,10.492v491.016C512,507.303,507.303,512,501.508,512z M21,491h470V21H21V491z" style="fill:#BC8800;"/></g></g><g><rect height="426" style="fill:#261C00;" width="426" x="43" y="43"/><g><path d="M480,469.508c0,5.795-4.697,10.492-10.492,10.492H43.492C37.698,480,33,475.303,33,469.508      V43.492C33,37.698,37.698,33,43.492,33h426.016C475.303,33,480,37.698,480,43.492V469.508z M54,458h404V54H54V458z" style="fill:#1D1500;"/></g></g><g><g id="XMLID_77_"><path d="M132.458,148.241c0-2.028,0.3-2.705,1.78-3.041      c11.547-0.338,35.232-0.676,58.623-0.676c60.697,0,70.572,30.063,70.572,56.09c0,24.335-4.576,38.816-21.455,45.913v0.676      c18.063,5.409,31.115,25.084,31.115,55.845c0,37.423-32.862,63.203-84.079,63.203c-21.615,0.34-43.819-0.34-54.481-0.676      c-1.775-0.337-2.075-1.354-2.075-2.703V148.241z M167.399,235.783h41.339c11.79,0,19.814-13.013,19.814-29.574      c0-20.958-11.117-29.576-35.987-29.576c-11.842,0-21.909,0.338-25.166,0.677V235.783z M167.399,333.466      c2.957,0,10.658,0.673,23.686,0.673c27.236,0,43.036-8.111,43.036-32.784c0-19.941-9.583-32.785-38.895-32.785h-27.827V333.466z      " id="XMLID_82_" style="fill:#FBB500;"/></g><g id="XMLID_5_"><path d="M373.756,198.369c1.214-0.065,2.739,0,3.957,0.338      c1.524,0.336,1.829,0.677,1.829,3.381v29.314c0,1.689-0.611,2.366-2.439,2.366c-17.354-0.676-25.563-1.22-37.964,3.856v127.15      c0,2.03-0.608,2.702-2.436,2.702h-31.978c-1.825,0-2.436-0.672-2.436-2.702V250.869c0-14.873-0.607-26.1-1.521-37.254      c-0.308-1.353,0.303-2.03,1.824-2.03C302.593,211.585,332.048,200.614,373.756,198.369z" id="XMLID_6_" style="fill:#FBB500;"/></g></g></g></g><g id="Layer_1"/></svg>