<?xml version="1.0" ?><!DOCTYPE svg  PUBLIC '-//W3C//DTD SVG 1.1//EN'  'http://www.w3.org/Graphics/SVG/1.1/DTD/svg11.dtd'><svg height="512px" style="enable-background:new 0 0 512 512;" version="1.1" viewBox="0 0 512 512" width="512px" xml:space="preserve" xmlns="http://www.w3.org/2000/svg" xmlns:xlink="http://www.w3.org/1999/xlink"><g id="_x35__x2C__Digital_Editions_x2C__Adobe"><g><g><rect height="492" style="fill:#E8792A;" width="492" x="10" y="10"/><g><path d="M501.508,512H10.492C4.697,512,0,507.303,0,501.508V10.492C0,4.697,4.697,0,10.492,0h491.016      C507.303,0,512,4.697,512,10.492v491.016C512,507.303,507.303,512,501.508,512z M21,491h470V21H21V491z" style="fill:#AE5B20;"/></g></g><g><g id="XMLID_14_"><path d="M97.611,147.028c0-1.353,0.307-2.03,2.132-2.366      c18.273-0.676,41.113-1.017,60.907-1.017c68.825,0,103.541,43.602,103.541,108.499c0,96.332-68.213,113.567-109.63,113.567      c-21.623,0-37.459-0.336-54.817-0.672c-1.521,0-2.132-0.677-2.132-3.043V147.028z M134.464,333.267      c5.478,0.336,12.786,0.336,21.315,0.336c42.634,0,70.649-24.672,70.649-80.446c0-51.037-24.058-77.063-65.778-77.063      c-13.704,0-23.447,0.341-26.186,0.677V333.267z" id="XMLID_15_" style="fill:#F1D9D5;"/></g><g id="XMLID_8_"><path d="M317.545,290.957c0.61,25.687,14.922,43.938,45.681,43.938      c11.265,0,24.974-2.03,38.065-8.453c0.915-0.336,1.83,0,1.83,1.69v27.039c0,2.367-0.612,3.043-1.83,3.72      c-11.875,6.762-26.19,9.129-45.681,9.465c-55.424,0-75.525-41.914-75.525-84.502c0-48.334,25.888-86.528,71.568-86.528      c44.767,0,62.736,37.857,62.736,69.289c0,14.536-1.527,21.295-2.744,22.311c-3.653,1.691-15.226,2.031-31.978,2.031H317.545z       M366.272,264.926c11.265,0,13.093-1.35,13.396-2.702c0-0.677,0-2.367,0-3.72c0-10.137-6.088-32.108-29.541-32.108      c-19.793,0-30.147,16.898-32.582,38.53H366.272z" id="XMLID_9_" style="fill:#F1D9D5;"/></g></g></g></g><g id="Layer_1"/></svg>