<?xml version="1.0" ?><!DOCTYPE svg  PUBLIC '-//W3C//DTD SVG 1.1//EN'  'http://www.w3.org/Graphics/SVG/1.1/DTD/svg11.dtd'><svg height="512px" style="enable-background:new 0 0 512 512;" version="1.1" viewBox="0 0 512 512" width="512px" xml:space="preserve" xmlns="http://www.w3.org/2000/svg" xmlns:xlink="http://www.w3.org/1999/xlink"><g id="_x32_4_x2C__Dimension_x2C__Adobe"><g><g><rect height="492" style="fill:#3CF2A5;" width="492" x="10" y="10"/><g><path d="M501.508,512H10.492C4.697,512,0,507.303,0,501.508V10.492C0,4.697,4.697,0,10.492,0h491.016      C507.303,0,512,4.697,512,10.492v491.016C512,507.303,507.303,512,501.508,512z M21,491h470V21H21V491z" style="fill:#2DB67C;"/></g></g><g><rect height="426" style="fill:#01271A;" width="426" x="43" y="43"/><g><path d="M480,469.508c0,5.795-4.697,10.492-10.492,10.492H43.492C37.698,480,33,475.303,33,469.508      V43.492C33,37.698,37.698,33,43.492,33h426.016C475.303,33,480,37.698,480,43.492V469.508z M54,458h404V54H54V458z" style="fill:#011D14;"/></g></g><g><path d="M161.075,144.512c-18.379,0-39.583,0.34-56.548,1.021c-1.698,0.336-1.981,1.018-1.981,2.374     v215.849c0,2.374,0.566,3.052,1.981,3.052c16.116,0.34,30.82,0.68,50.893,0.68c38.456,0,101.79-17.308,101.79-114.034     C257.209,188.294,224.975,144.512,161.075,144.512z M156.552,335.245c-7.918,0-14.705,0-19.794-0.336V177.772     c2.546-0.341,11.593-0.677,24.317-0.677c38.738,0,61.074,26.129,61.074,77.379C222.149,310.473,196.135,335.245,156.552,335.245z      M363.94,200.805c-26.616-2.099-71.08,11.449-71.08,11.449c-1.619,0-1.906,0.952-1.906,2.67     c0.569,6.679,0.094,16.41,0.094,27.859h0.193v121.65c0,2.386,0.475,3.054,1.906,3.054h29.099c1.623,0,2.197-0.668,2.197-2.673     V238.683c10.875-5.248,15.551-6.868,25.854-6.868c16.604,0,25.666,14.979,25.666,36.828v95.791c0,2.004,0.856,3.054,2.48,3.054     h28.815c1.332,0,2.194-0.954,2.194-2.673v-95.791C409.454,214.542,385.22,202.523,363.94,200.805z" style="fill:#D4FDEF;"/></g></g></g><g id="Layer_1"/></svg>