<?xml version="1.0" ?><!DOCTYPE svg  PUBLIC '-//W3C//DTD SVG 1.1//EN'  'http://www.w3.org/Graphics/SVG/1.1/DTD/svg11.dtd'><svg height="512px" style="enable-background:new 0 0 512 512;" version="1.1" viewBox="0 0 512 512" width="512px" xml:space="preserve" xmlns="http://www.w3.org/2000/svg" xmlns:xlink="http://www.w3.org/1999/xlink"><g id="_x31_9_x2C__Dreamweaver_x2C__Adobe"><g><g><rect height="492" style="fill:#AFFC00;" width="492" x="10" y="10"/><g><path d="M501.508,512H10.492C4.697,512,0,507.303,0,501.508V10.492C0,4.697,4.697,0,10.492,0h491.016      C507.303,0,512,4.697,512,10.492v491.016C512,507.303,507.303,512,501.508,512z M21,491h470V21H21V491z" style="fill:#83BD00;"/></g></g><g><rect height="426" style="fill:#072600;" width="426" x="43" y="43"/><g><path d="M480,469.508c0,5.795-4.697,10.492-10.492,10.492H43.492C37.698,480,33,475.303,33,469.508      V43.492C33,37.698,37.698,33,43.492,33h426.016C475.303,33,480,37.698,480,43.492V469.508z M54,458h404V54H54V458z" style="fill:#051D00;"/></g></g><g><g id="XMLID_111_"><path d="M75.659,150.792c0-1.312,0.272-1.969,1.915-2.295      c16.419-0.657,36.942-0.988,54.728-0.988c61.84,0,93.038,42.37,93.038,105.432c0,93.609-61.295,110.357-98.511,110.357      c-19.427,0-33.657-0.325-49.255-0.653c-1.369,0-1.915-0.658-1.915-2.957V150.792z M108.768,331.767      c4.925,0.33,11.494,0.33,19.157,0.33c38.307,0,63.482-23.976,63.482-78.172c0-49.594-21.617-74.885-59.105-74.885      c-12.315,0-21.072,0.331-23.534,0.658V331.767z" id="XMLID_112_" style="fill:#AFFC00;"/></g><g id="XMLID_65_"><path d="M364.24,364.492c-1.881,0-2.419-0.658-2.953-2.63      c-15.054-73.243-20.162-100.834-22.855-116.266h-0.268c-2.689,16.42-9.138,45.654-26.076,116.266      c-0.537,1.972-1.342,2.63-2.957,2.63h-29.84c-2.416,0-2.957-0.984-3.492-2.957l-35.218-154.041      c-0.538-1.642,0-2.629,1.611-2.629h28.766c1.613,0,2.147,0.331,2.418,1.972c18.283,85.064,22.044,109.046,23.925,120.868h0.541      c1.073-5.582,7.796-39.74,25.539-120.211c0.267-1.973,0.537-2.629,2.419-2.629h28.762c1.347,0,1.885,0.657,2.151,1.972      c17.477,83.755,21.777,110.03,23.662,121.854h0.533c3.227-19.379,8.336-50.91,25-121.523c0.271-1.646,1.076-2.303,2.151-2.303      h26.614c1.076,0,1.886,0.657,1.614,2.303L397.31,361.862c-0.542,1.972-0.81,2.63-2.957,2.63H364.24z" id="XMLID_109_" style="fill:#AFFC00;"/></g></g></g></g><g id="Layer_1"/></svg>