<?xml version="1.0" ?><!DOCTYPE svg  PUBLIC '-//W3C//DTD SVG 1.1//EN'  'http://www.w3.org/Graphics/SVG/1.1/DTD/svg11.dtd'><svg height="512px" style="enable-background:new 0 0 512 512;" version="1.1" viewBox="0 0 512 512" width="512px" xml:space="preserve" xmlns="http://www.w3.org/2000/svg" xmlns:xlink="http://www.w3.org/1999/xlink"><g id="comp_x5F_119-excel"><g><g><g><path d="M464.739,100H297.636v59.778h41.136c7.567,0,13.707,6.159,13.707,13.746      c0.001,7.589-6.14,13.748-13.707,13.748h-41.136v27.498h41.136c7.567,0,13.707,6.16,13.707,13.742      c0.001,7.592-6.14,13.75-13.707,13.75h-41.136v27.495h41.136c7.567,0,13.707,6.158,13.707,13.748      c0.001,7.584-6.14,13.743-13.707,13.743h-41.136v27.498h41.136c7.567,0,13.707,6.159,13.707,13.75      c0,7.589-6.14,13.746-13.707,13.746h-41.136V400h167.104c7.571,0,13.711-6.156,13.71-13.749V113.747      C478.449,106.158,472.31,100,464.739,100z M421.031,352.242H393.61c-7.566,0-13.712-6.157-13.712-13.746      c0-7.591,6.146-13.75,13.712-13.75h27.421c7.565,0,13.708,6.159,13.708,13.75C434.739,346.085,428.597,352.242,421.031,352.242z       M421.031,297.248H393.61c-7.566,0-13.712-6.159-13.712-13.743c0-7.59,6.146-13.748,13.712-13.748h27.421      c7.565,0,13.708,6.158,13.708,13.748C434.739,291.089,428.597,297.248,421.031,297.248z M421.031,242.262H393.61      c-7.566,0-13.712-6.158-13.712-13.75c0-7.582,6.146-13.742,13.712-13.742h27.421c7.565,0,13.708,6.16,13.708,13.742      C434.739,236.104,428.597,242.262,421.031,242.262z M421.031,187.272H393.61c-7.566,0-13.712-6.159-13.712-13.748      c0-7.587,6.146-13.746,13.712-13.746h27.421c7.565,0,13.708,6.159,13.708,13.746      C434.739,181.113,428.597,187.272,421.031,187.272z" style="fill:#207245;"/><path d="M464.739,410H297.636c-5.522,0-10-4.478-10-10v-47.758c0-5.522,4.478-10,10-10h41.136      c2.044,0,3.707-1.681,3.707-3.746c0-2.067-1.663-3.75-3.707-3.75h-41.136c-5.522,0-10-4.478-10-10v-27.498      c0-5.522,4.478-10,10-10h41.136c1.327,0,2.205-0.683,2.611-1.089c0.409-0.41,1.096-1.302,1.096-2.653      c0-2.067-1.663-3.749-3.707-3.749h-41.136c-5.522,0-10-4.478-10-10v-27.495c0-5.523,4.478-10,10-10h41.136      c1.326,0,2.204-0.682,2.609-1.088c0.41-0.411,1.098-1.304,1.098-2.661c0-2.064-1.663-3.743-3.707-3.743h-41.136      c-5.522,0-10-4.477-10-10v-27.498c0-5.523,4.478-10,10-10h41.136c1.326,0,2.205-0.682,2.61-1.089      c0.409-0.411,1.097-1.303,1.097-2.658c0-2.067-1.663-3.748-3.707-3.748h-41.136c-5.522,0-10-4.477-10-10V100      c0-5.523,4.478-10,10-10h167.104c13.073,0,23.71,10.653,23.71,23.747v272.504c0.001,6.337-2.462,12.298-6.935,16.783      C477.035,407.526,471.077,410,464.739,410z M307.636,390h157.104c1.33,0,2.208-0.682,2.613-1.088      c0.41-0.411,1.097-1.303,1.097-2.66V113.747c0-2.066-1.664-3.747-3.71-3.747H307.636v39.778h31.136      c13.072,0,23.707,10.652,23.707,23.746c0.001,6.335-2.462,12.295-6.934,16.78c-4.479,4.493-10.437,6.968-16.773,6.968h-31.136      v7.498h31.136c13.072,0,23.707,10.65,23.707,23.742c0.001,6.336-2.462,12.296-6.934,16.782      c-4.479,4.494-10.437,6.968-16.773,6.968h-31.136v7.495h31.136c13.072,0,23.707,10.653,23.707,23.748      c0.001,6.333-2.462,12.292-6.935,16.777c-4.479,4.492-10.437,6.966-16.772,6.966h-31.136v7.498h31.136      c13.072,0,23.707,10.654,23.707,23.75c0,13.094-10.635,23.746-23.707,23.746h-31.136V390z M421.031,362.242H393.61      c-13.075,0-23.712-10.652-23.712-23.746c0-13.096,10.637-23.75,23.712-23.75h27.421c13.072,0,23.708,10.654,23.708,23.75      C444.739,351.59,434.104,362.242,421.031,362.242z M393.61,334.746c-2.047,0-3.712,1.683-3.712,3.75      c0,2.065,1.665,3.746,3.712,3.746h27.421c2.045,0,3.708-1.681,3.708-3.746c0-2.067-1.663-3.75-3.708-3.75H393.61z       M421.031,307.248H393.61c-13.075,0-23.712-10.651-23.712-23.743c0-13.095,10.637-23.748,23.712-23.748h27.421      c13.072,0,23.708,10.653,23.708,23.748C444.739,296.597,434.104,307.248,421.031,307.248z M393.61,279.757      c-2.047,0-3.712,1.682-3.712,3.748c0,2.064,1.665,3.743,3.712,3.743h27.421c2.045,0,3.708-1.679,3.708-3.743      c0-2.066-1.663-3.748-3.708-3.748H393.61z M421.031,252.262H393.61c-13.075,0-23.712-10.654-23.712-23.75      c0-13.091,10.637-23.742,23.712-23.742h27.421c13.072,0,23.708,10.65,23.708,23.742      C444.739,241.608,434.104,252.262,421.031,252.262z M393.61,224.77c-2.047,0-3.712,1.679-3.712,3.742      c0,2.068,1.665,3.75,3.712,3.75h27.421c2.045,0,3.708-1.683,3.708-3.75c0-2.063-1.663-3.742-3.708-3.742H393.61z       M421.031,197.272H393.61c-13.075,0-23.712-10.653-23.712-23.748c0-13.094,10.637-23.746,23.712-23.746h27.421      c13.072,0,23.708,10.652,23.708,23.746C444.739,186.619,434.104,197.272,421.031,197.272z M393.61,169.778      c-2.047,0-3.712,1.681-3.712,3.746c0,2.066,1.665,3.748,3.712,3.748h27.421c2.045,0,3.708-1.682,3.708-3.748      c0-2.065-1.663-3.746-3.708-3.746H393.61z" style="fill:#185634;"/></g><g><path d="M261.92,52.961c-3.131-2.611-7.326-3.74-11.273-2.912L44.739,91.287      c-6.5,1.216-11.188,6.878-11.188,13.502v302.44c0,6.599,4.689,12.286,11.188,13.502l205.908,41.24      c0.822,0.162,1.672,0.247,2.524,0.247c3.18,0,6.277-1.099,8.748-3.165c3.155-2.607,4.958-6.513,4.958-10.585v-41.239v-54.987      v-27.496v-27.498v-27.491v-27.495V214.77v-27.498v-27.494v-54.989V63.551C266.876,59.452,265.073,55.574,261.92,52.961z       M207.355,321.336c-2.606,2.283-5.817,3.412-9.027,3.412c-3.808,0-7.592-1.598-10.309-4.725l-39.866-45.676l-34.964,45.091      c-2.711,3.495-6.744,5.308-10.829,5.308c-2.931,0-5.922-0.935-8.447-2.885c-5.948-4.672-7.046-13.309-2.383-19.306      l38.224-49.268L92.05,210.066c-4.991-5.694-4.414-14.38,1.288-19.38c5.649-5.006,14.316-4.485,19.332,1.295l34.221,39.201      l40.613-52.351c4.683-5.964,13.294-7.065,19.244-2.388c5.949,4.67,7.052,13.305,2.391,19.302l-43.851,56.529l43.357,49.679      C213.631,307.647,213.058,316.336,207.355,321.336z" style="fill:#207245;"/><path d="M253.171,472.219c-1.491,0-2.992-0.146-4.458-0.436L42.836,430.549      c-11.179-2.122-19.286-11.919-19.286-23.319v-302.44c0-11.396,8.101-21.188,19.273-23.317l205.859-41.229      c1.43-0.301,2.994-0.462,4.559-0.462c5.474,0,10.831,1.954,15.083,5.5c5.424,4.495,8.55,11.161,8.552,18.267v384.92      c0,7.115-3.13,13.783-8.588,18.294C264.099,470.268,258.713,472.219,253.171,472.219z M253.242,59.781      c-0.188,0-0.369,0.019-0.542,0.055L46.703,101.092c-0.042,0.008-0.083,0.017-0.125,0.024c-1.754,0.328-3.027,1.873-3.027,3.672      v302.44c0,1.8,1.273,3.345,3.027,3.673c0.042,0.008,0.083,0.016,0.125,0.023l205.908,41.24c0.164,0.032,0.367,0.053,0.56,0.053      c0.86,0,1.688-0.297,2.333-0.836c0.877-0.725,1.374-1.8,1.374-2.914V63.551c0-1.132-0.488-2.187-1.338-2.891      C254.86,60.094,254.032,59.781,253.242,59.781z M198.328,334.748c-6.84,0-13.349-2.977-17.858-8.166l-31.86-36.504      l-27.518,35.488c-4.525,5.834-11.353,9.18-18.731,9.18c-5.239,0-10.41-1.766-14.56-4.971      c-10.334-8.116-12.174-23.059-4.165-33.358l33.173-42.757l-32.294-37.02c-8.605-9.817-7.612-24.841,2.229-33.472      c4.285-3.798,9.843-5.908,15.613-5.908c6.85,0,13.362,2.977,17.866,8.167l26.212,30.027l33.167-42.752      c4.584-5.839,11.408-9.162,18.758-9.162c5.258,0,10.432,1.791,14.567,5.042c10.267,8.06,12.112,23,4.106,33.3l-38.801,50.019      l37.945,43.478c8.606,9.824,7.611,24.848-2.23,33.477C209.609,332.656,204.063,334.748,198.328,334.748z M148.153,264.348      c2.883,0,5.631,1.245,7.534,3.425l39.866,45.676c0.985,1.133,2.161,1.3,2.775,1.3c0.626,0,1.557-0.162,2.438-0.934      c1.55-1.359,1.711-3.725,0.356-5.271l-43.37-49.692c-3.144-3.603-3.298-8.927-0.367-12.705l43.851-56.529      c1.276-1.642,0.976-4.02-0.664-5.307c-0.81-0.637-1.649-0.77-2.212-0.77c-1.169,0-2.259,0.535-2.991,1.467l-40.577,52.305      c-1.832,2.362-4.625,3.78-7.612,3.866c-2.985,0.099-5.857-1.168-7.823-3.419l-34.221-39.201      c-0.982-1.131-2.162-1.297-2.779-1.297c-0.62,0-1.538,0.158-2.386,0.91c-1.592,1.396-1.754,3.761-0.4,5.305l37.719,43.239      c3.143,3.603,3.296,8.926,0.365,12.703l-38.224,49.269c-1.279,1.645-0.98,4.023,0.659,5.312c0.791,0.61,1.677,0.749,2.271,0.749      c0.677,0,1.958-0.187,2.927-1.437l34.963-45.09c1.832-2.362,4.624-3.781,7.612-3.868      C147.959,264.349,148.057,264.348,148.153,264.348z" style="fill:#185634;"/></g></g></g></g><g id="Layer_1"/></svg>