<?xml version="1.0" ?><!DOCTYPE svg  PUBLIC '-//W3C//DTD SVG 1.1//EN'  'http://www.w3.org/Graphics/SVG/1.1/DTD/svg11.dtd'><svg height="512px" style="enable-background:new 0 0 512 512;" version="1.1" viewBox="0 0 512 512" width="512px" xml:space="preserve" xmlns="http://www.w3.org/2000/svg" xmlns:xlink="http://www.w3.org/1999/xlink"><g id="_x31_2_x2C__Flash_x2C__Adobe_x2C__Professional"><g><g><rect height="492" style="fill:#E01F2D;" width="492" x="10" y="10"/><g><path d="M501.508,512H10.492C4.697,512,0,507.303,0,501.508V10.492C0,4.697,4.697,0,10.492,0h491.016      C507.303,0,512,4.697,512,10.492v491.016C512,507.303,507.303,512,501.508,512z M21,491h470V21H21V491z" style="fill:#A81722;"/></g></g><g><rect height="426" style="fill:#45221B;" width="426" x="43" y="43"/><g><path d="M480,469.508c0,5.795-4.697,10.492-10.492,10.492H43.492C37.698,480,33,475.303,33,469.508      V43.492C33,37.698,37.698,33,43.492,33h426.016C475.303,33,480,37.698,480,43.492V469.508z M54,458h404V54H54V458z" style="fill:#341A14;"/></g></g><g><g id="XMLID_87_"><path d="M186.252,361.795c0,2.03-0.583,2.703-2.325,2.703H152.82      c-1.161,0-1.743-1.01-1.743-2.703V146.49c0-2.03,0.289-2.366,2.034-2.366h111.922c1.747,0,2.329,0.336,2.62,2.366l2.613,27.376      c0.295,2.03-0.287,3.042-2.035,3.042h-81.979v64.22h73.549c1.746,0,2.329,0.676,2.329,2.366v28.055      c0,1.688-0.874,2.367-2.329,2.367h-73.549V361.795z" id="XMLID_92_" style="fill:#E01F2D;"/></g><g id="XMLID_86_"><path d="M359.787,338.353c-2.285,0.336-5.418,0.672-7.132,0.672c-5.142,0-9.42-2.366-9.42-12.843V157.103      v-13.145v-1.737h1.207c-0.282,0-0.895,0-2.071,0h-29.709c-1.254,0-1.89,0-2.145,0h-0.689v1.737v13.145v171.104      c0,32.789,13.131,41.571,31.412,41.571c7.995,0,14.696-1.684,17.838-3.379c1.713-0.672,1.844-1.353,1.844-3.715v-22.644      C360.922,338.688,360.644,338.007,359.787,338.353z" style="fill:#E01F2D;"/></g></g></g></g><g id="Layer_1"/></svg>