<?xml version="1.0" ?><!DOCTYPE svg  PUBLIC '-//W3C//DTD SVG 1.1//EN'  'http://www.w3.org/Graphics/SVG/1.1/DTD/svg11.dtd'><svg height="512px" style="enable-background:new 0 0 512 512;" version="1.1" viewBox="0 0 512 512" width="512px" xml:space="preserve" xmlns="http://www.w3.org/2000/svg" xmlns:xlink="http://www.w3.org/1999/xlink"><g id="_x36__x2C__InCopy_x2C__Adobe"><g><g><rect height="492" style="fill:#E057DD;" width="492" x="10" y="10"/><g><path d="M501.508,512H10.492C4.697,512,0,507.303,0,501.508V10.492C0,4.697,4.697,0,10.492,0h491.016      C507.303,0,512,4.697,512,10.492v491.016C512,507.303,507.303,512,501.508,512z M21,491h470V21H21V491z" style="fill:#A841A6;"/></g></g><g><rect height="426" style="fill:#240020;" width="426" x="43" y="43"/><g><path d="M480,469.508c0,5.795-4.697,10.492-10.492,10.492H43.492C37.698,480,33,475.303,33,469.508      V43.492C33,37.698,37.698,33,43.492,33h426.016C475.303,33,480,37.698,480,43.492V469.508z M54,458h404V54H54V458z" style="fill:#1B0018;"/></g></g><g><g id="XMLID_23_"><g id="XMLID_140_"><path d="M198.355,359.987c0,2.025-0.583,3.037-2.618,3.037h-30.234       c-1.745,0-2.325-1.012-2.325-3.037V145.016c0-2.026,0.872-2.367,2.325-2.367h30.525c1.744,0,2.327,0.34,2.327,2.367V359.987z" id="XMLID_3_" style="fill:#E057DD;"/></g><g id="XMLID_24_"><path d="M348.821,361.763c0,1.353-0.282,2.366-1.427,3.043       c-9.428,5.407-21.959,4.485-36.245,4.485c-46.56,0-70.392-38.16-70.392-85.817c0-50.024,31.263-87.176,76.107-87.176       c15.14,0,25.26,1.414,29.828,4.121c1.148,0.677,1.436,1.354,1.436,3.379l-0.287,27.38c0,2.026-0.861,2.366-2.002,1.689       c-7.144-3.719-15.549-4.121-26.69-4.121c-25.707,0-41.99,21.942-41.99,53.711c0,37.521,19.999,53.373,41.134,53.373       c12.572,0,22.246,0.246,28.532-3.134c1.427-0.34,1.996,0.337,1.996,1.691V361.763z" id="XMLID_1_" style="fill:#E057DD;"/></g></g></g></g></g><g id="Layer_1"/></svg>