<?xml version="1.0" ?><!DOCTYPE svg  PUBLIC '-//W3C//DTD SVG 1.1//EN'  'http://www.w3.org/Graphics/SVG/1.1/DTD/svg11.dtd'><svg height="512px" style="enable-background:new 0 0 512 512;" version="1.1" viewBox="0 0 512 512" width="512px" xml:space="preserve" xmlns="http://www.w3.org/2000/svg" xmlns:xlink="http://www.w3.org/1999/xlink"><g id="_x31_4_x2C__Edge_Inspect_x2C__Adobe"><g><g><rect height="492" style="fill:#FFAB41;" width="492" x="10" y="10"/><path d="M501.508,512H10.492C4.697,512,0,507.303,0,501.508V10.492C0,4.697,4.697,0,10.492,0h491.016     C507.303,0,512,4.697,512,10.492v491.016C512,507.303,507.303,512,501.508,512z M21,491h470V21H21V491z" style="fill:#BF8031;"/></g><g><rect height="426" style="fill:#2B1A10;" width="426" x="43" y="43"/><g><path d="M480,469.508c0,5.795-4.697,10.492-10.492,10.492H43.492C37.698,480,33,475.303,33,469.508      V43.492C33,37.698,37.698,33,43.492,33h426.016C475.303,33,480,37.698,480,43.492V469.508z M54,458h404V54H54V458z" style="fill:#20140C;"/></g></g><g><g id="XMLID_70_"><path d="M232.71,240.267c0-11.493,0.5-21.278-0.074-28.04      c0-1.689,0.287-2.703,2.001-2.703c0,0,45.817-13.673,73.196-11.509c21.926,1.735,46.847,13.858,46.847,68.614v96.334      c0,1.689-0.858,2.699-2.285,2.699h-29.709c-1.713,0-2.567-1.01-2.567-3.039v-96.332c0-21.969-9.32-37.033-26.461-37.033      c-10.568,0-15.459,1.636-26.671,6.878v126.826c0,2.027-0.573,2.699-2.284,2.699h-29.992c-1.431,0-2.001-0.672-2.001-3.039      V240.267z" id="XMLID_74_" style="fill:#FFAB41;"/></g><g id="XMLID_66_"><path d="M192.582,362.685c0,2.026-0.583,3.043-2.621,3.043h-30.234      c-1.743,0-2.321-1.017-2.321-3.043V147.715c0-2.028,0.87-2.367,2.321-2.367h30.525c1.747,0,2.33,0.339,2.33,2.367V362.685z" id="XMLID_67_" style="fill:#FFAB41;"/></g></g></g></g><g id="Layer_1"/></svg>