<?xml version="1.0" ?><!DOCTYPE svg  PUBLIC '-//W3C//DTD SVG 1.1//EN'  'http://www.w3.org/Graphics/SVG/1.1/DTD/svg11.dtd'><svg height="512px" style="enable-background:new 0 0 512 512;" version="1.1" viewBox="0 0 512 512" width="512px" xml:space="preserve" xmlns="http://www.w3.org/2000/svg" xmlns:xlink="http://www.w3.org/1999/xlink"><g id="comp_x5F_187-js"><g><g><g><rect height="432" style="fill:#F0DB4F;" width="431.998" x="40.001" y="40"/><path d="M471.999,482H40.001c-5.523,0-10-4.478-10-10V40c0-5.523,4.477-10,10-10h431.998      c5.522,0,10,4.477,10,10v432C481.999,477.522,477.521,482,471.999,482z M50.001,462h411.998V50H50.001V462z" style="fill:#B4A43B;"/></g><g><path d="M261.597,376.922c0,42.041-24.687,61.232-60.655,61.232c-32.495,0-51.298-16.779-60.942-37.123      l33.074-19.963c6.364,11.283,12.15,20.828,26.132,20.828c13.307,0,21.794-5.207,21.794-25.553v-137.99h40.596V376.922      L261.597,376.922z" style="fill:#323330;"/><path d="M200.942,448.154c-32.031,0-56.883-15.214-69.978-42.84c-2.2-4.64-0.527-10.191,3.869-12.845      l33.074-19.963c2.315-1.396,5.095-1.799,7.71-1.109c2.615,0.687,4.839,2.403,6.167,4.758c6.879,12.195,10,15.741,17.422,15.741      c7.103,0,11.794,0,11.794-15.553v-137.99c0-5.523,4.477-10,10-10h40.596c5.522,0,10,4.477,10,10v138.568      C271.597,421.525,245.184,448.154,200.942,448.154z M153.435,404.603c10.309,15.638,26.249,23.552,47.507,23.552      c23.108,0,50.655-8.889,50.655-51.232V248.354H231v127.99c0,23.591-10.697,35.553-31.794,35.553      c-15.078,0-23.611-8.325-29.533-17.095L153.435,404.603z" style="fill:#B4A43B;"/></g><g><path d="M371.136,438.154c-37.704,0-62.1-17.938-73.96-41.465l33.074-19.094      c8.679,14.176,20.057,24.686,40.018,24.686c16.779,0,27.577-8.389,27.577-20.055c0-13.889-10.991-18.803-29.601-27l-10.125-4.34      c-29.314-12.439-48.696-28.158-48.696-61.232c0-30.471,23.238-53.615,59.397-53.615c25.843,0,44.358,8.968,57.665,32.498      l-31.628,20.248c-6.942-12.439-14.464-17.355-26.132-17.355c-11.861,0-19.383,7.521-19.383,17.355      c0,12.152,7.521,17.07,24.976,24.686l10.124,4.34c34.521,14.754,53.903,29.895,53.903,63.836      C438.346,418.096,409.609,438.154,371.136,438.154L371.136,438.154z" style="fill:#323330;"/><path d="M371.136,448.154c-37.632,0-67.844-17.117-82.89-46.964c-2.387-4.734-0.662-10.51,3.93-13.161      l33.074-19.094c4.694-2.711,10.696-1.186,13.528,3.438c8.657,14.14,17.779,19.907,31.489,19.907      c8.749,0,17.577-3.109,17.577-10.055c0-6.708-4.783-9.546-23.632-17.849l-10.033-4.3      c-27.061-11.482-54.757-28.842-54.757-70.424c0-17.8,6.866-33.98,19.333-45.561c12.716-11.811,30.027-18.054,50.064-18.054      c30.782,0,51.872,11.939,66.369,37.575c2.614,4.622,1.16,10.481-3.313,13.345l-31.628,20.248      c-2.322,1.487-5.154,1.949-7.828,1.276c-2.674-0.672-4.952-2.417-6.296-4.825c-5.769-10.337-10.386-12.229-17.399-12.229      c-5.875,0-9.383,2.75-9.383,7.355c0,4.891,0.807,7.593,18.975,15.52l10.065,4.314c37.016,15.82,59.963,33.557,59.963,73.027      c0,20.563-7.933,37.763-22.939,49.738C411.658,442.355,392.893,448.154,371.136,448.154z M310.943,400.288      c12.658,18.05,33.678,27.866,60.192,27.866c27.657,0,57.21-12.218,57.21-46.508c0-25.888-11.623-39.165-47.833-54.641      l-10.135-4.344c-14.578-6.36-31.035-13.541-31.035-33.877c0-15.851,12.357-27.355,29.383-27.355      c12.129,0,21.365,4.281,28.977,13.66l14.914-9.547c-10.298-13.581-23.865-19.503-43.796-19.503      c-29.546,0-49.397,17.528-49.397,43.615c0,24.748,11.547,38.849,42.603,52.027l10.158,4.354      c19.178,8.447,35.661,15.708,35.661,36.191c0,17.695-15.452,30.055-37.577,30.055c-21.777,0-34.746-10.664-43.036-21.396      L310.943,400.288z" style="fill:#B4A43B;"/></g></g></g></g><g id="Layer_1"/></svg>