<?xml version="1.0" ?><!DOCTYPE svg  PUBLIC '-//W3C//DTD SVG 1.1//EN'  'http://www.w3.org/Graphics/SVG/1.1/DTD/svg11.dtd'><svg height="512px" style="enable-background:new 0 0 512 512;" version="1.1" viewBox="0 0 512 512" width="512px" xml:space="preserve" xmlns="http://www.w3.org/2000/svg" xmlns:xlink="http://www.w3.org/1999/xlink"><g id="_x32_2_x2C__Lightroom_x2C__Adobe"><g><g><rect height="492" style="fill:#AED3E9;" width="492" x="10" y="10"/><g><path d="M501.508,512H10.492C4.697,512,0,507.303,0,501.508V10.492C0,4.697,4.697,0,10.492,0h491.016      C507.303,0,512,4.697,512,10.492v491.016C512,507.303,507.303,512,501.508,512z M21,491h470V21H21V491z" style="fill:#839EAF;"/></g></g><g><rect height="426" style="fill:#16222A;" width="426" x="43" y="43"/><g><path d="M480,469.508c0,5.795-4.697,10.492-10.492,10.492H43.492C37.698,480,33,475.303,33,469.508      V43.492C33,37.698,37.698,33,43.492,33h426.016C475.303,33,480,37.698,480,43.492V469.508z M54,458h404V54H54V458z" style="fill:#111A20;"/></g></g><g><path d="M261.026,335.63h-85.175V145.459c0-1.689-0.582-2.366-2.034-2.366h-30.82     c-1.739,0-2.321,1.017-2.321,2.706v219.237c0,2.365,0.583,3.379,2.903,3.379h111.927c1.451,0,2.325-0.336,2.907-2.367     l4.358-27.715C263.06,336.643,262.772,335.63,261.026,335.63z M369.496,200.133c-1.223-0.337-2.74-0.403-3.961-0.337     c-41.704,2.244-71.154,13.217-71.154,13.217c-1.526,0-2.133,0.676-1.83,2.03c0.91,11.154,1.518,22.381,1.518,37.254V366.2     c0,2.03,0.616,2.707,2.444,2.707h31.978c1.819,0,2.427-0.677,2.427-2.707V236.923c12.4-5.08,20.609-4.535,37.973-3.859     c1.819,0,2.435-0.676,2.435-2.366v-27.184C371.324,200.81,371.021,200.473,369.496,200.133z" style="fill:#AED3E9;"/></g></g></g><g id="Layer_1"/></svg>