<?xml version="1.0" ?><!DOCTYPE svg  PUBLIC '-//W3C//DTD SVG 1.1//EN'  'http://www.w3.org/Graphics/SVG/1.1/DTD/svg11.dtd'><svg height="512px" style="enable-background:new 0 0 512 512;" version="1.1" viewBox="0 0 512 512" width="512px" xml:space="preserve" xmlns="http://www.w3.org/2000/svg" xmlns:xlink="http://www.w3.org/1999/xlink"><g id="_x31_7_x2C__Muse_x2C__Adobe"><g><g><rect height="492" style="fill:#C1E800;" width="492" x="10" y="10"/><g><path d="M501.508,512H10.492C4.697,512,0,507.303,0,501.508V10.492C0,4.697,4.697,0,10.492,0h491.016      C507.303,0,512,4.697,512,10.492v491.016C512,507.303,507.303,512,501.508,512z M21,491h470V21H21V491z" style="fill:#91AE00;"/></g></g><g><rect height="426" style="fill:#1F2600;" width="426" x="43" y="43"/><g><path d="M480,469.508c0,5.795-4.697,10.492-10.492,10.492H43.492C37.698,480,33,475.303,33,469.508      V43.492C33,37.698,37.698,33,43.492,33h426.016C475.303,33,480,37.698,480,43.492V469.508z M54,458h404V54H54V458z" style="fill:#171D00;"/></g></g><g><path d="M93.135,141.722H141.1c1.681,0,2.361,0.349,2.696,2.038     c8.443,31.411,32.77,133.414,38.507,167.867h0.334c6.425-31.423,34.798-134.66,43.575-167.76     c0.334-1.686,1.014-2.145,2.707-2.145h46.27c1.681,0,2.029,0.332,2.361,1.686l8.112,221.298c0.336,2.025-0.682,2.693-2.363,2.693     h-32.77c-2.028,0-2.362-0.926-2.362-2.62c-1.347-72.281-1.347-174.453-1.347-192.352h-0.347     c-5.736,28.717-35.454,144.055-48.297,192.352c-0.336,2.026-1.349,2.62-2.696,2.62H165.75c-1.684,0-2.696-0.594-3.041-2.283     c-12.499-50.315-35.456-154.528-43.231-192.689h-0.681c0,26.688-2.694,119.058-5.4,192.352c0,2.026-1.013,2.62-2.362,2.62H81.316     c-2.027,0-2.706-0.668-2.706-2.361l12.162-221.29C91.109,142.054,91.443,141.722,93.135,141.722z M432.39,333.131     c0,2.35,0.337,9.448,1.001,20.941c0,1.338-0.127,2.026-1.485,2.35c-17.902,6.763-37.741,13.856-62.739,13.856     c-30.729,0-60.115-11.825-60.115-59.103V203.277c0-1.694,0.677-2.706,2.362-2.706h32.12c1.694,0,2.362,1.012,2.362,2.706v103.5     c0,19.929,7.537,30.733,28.479,30.733c8.447,0,16.1-1.684,21.168-3.711V203.277c0-1.694,0.672-2.706,2.361-2.706h32.117     c2.024,0,2.369,1.012,2.369,2.706V333.131z" style="fill-rule:evenodd;clip-rule:evenodd;fill:#C1E800;"/></g></g></g><g id="Layer_1"/></svg>