<?xml version="1.0" ?><!DOCTYPE svg  PUBLIC '-//W3C//DTD SVG 1.1//EN'  'http://www.w3.org/Graphics/SVG/1.1/DTD/svg11.dtd'><svg height="512px" style="enable-background:new 0 0 512 512;" version="1.1" viewBox="0 0 512 512" width="512px" xml:space="preserve" xmlns="http://www.w3.org/2000/svg" xmlns:xlink="http://www.w3.org/1999/xlink"><g id="_x32_7_x2C__PDF_x2C__File_type_x2C__Adobe"><g><polygon points="362.628,60.905 419.462,117.917 419.242,118.127 363.11,118.169 362.586,60.947   " style="fill:#A51600;"/><path d="M210.056,150.893c0,10.817-6.043,15.927-15.318,15.854c-1.27,0-2.686,0-3.557-0.199v-29.619    c0.871-0.199,2.35-0.409,4.638-0.409C204.611,136.52,210.119,141.492,210.056,150.893z" style="fill:#F1F1F1;"/><path d="M164.239,143.035c0,4.638-3.357,7.396-8.792,7.396c-1.479,0-2.56-0.073-3.431-0.272v-13.367    c0.745-0.199,2.15-0.398,4.228-0.398C161.354,136.394,164.239,138.869,164.239,143.035z" style="fill:#F1F1F1;"/><path d="M130.098,100.721H306.36v101.771H130.098h-0.43h-37.34V100.721h37.34H130.098z" style="fill:#F1F1F1;"/><path d="M279.754,255.035c0.125,10.566-6.631,31.181-6.631,31.181c-2.33-2.454-6.988-15.591-6.988-27.74    s3.925-15.464,6.988-15.464C276.196,243.011,279.627,244.48,279.754,255.035z" style="fill:#DC1D00;"/><path d="M353.321,347.174c0,13.954-25.284,8.267-40.834-6.536    C312.487,340.638,353.321,333.229,353.321,347.174z" style="fill:#DC1D00;"/><path d="M206.594,393.128c-12.517-7.49,26.271-30.563,33.27-31.297    C239.864,361.831,219.698,400.965,206.594,393.128z" style="fill:#DC1D00;"/><path d="M279.019,309.172c7.114,13.252,21.235,28.843,21.235,28.843s-5.403,0.608-17.961,3.682    c-12.56,3.074-18.864,6.265-18.864,6.265s0,0,5.151-11.541C273.742,324.879,279.019,309.172,279.019,309.172z" style="fill:#DC1D00;"/><path d="M419.672,118.127v333.021H130.098V202.492H306.36V100.721H130.098V60.853h232.488l0.042,0.052    l-0.042,0.042l0.524,57.222l56.132-0.042l0.22-0.209L419.672,118.127z" style="fill:#DC1D00;"/><path d="M239.864,361.831c-6.998,0.734-45.787,23.807-33.27,31.297    C219.698,400.965,239.864,361.831,239.864,361.831z M312.487,340.638c15.55,14.803,40.834,20.49,40.834,6.536    C353.321,333.229,312.487,340.638,312.487,340.638z M300.254,338.015c0,0-14.121-15.591-21.235-28.843    c0,0-5.276,15.707-10.438,27.248c-5.151,11.541-5.151,11.541-5.151,11.541s6.305-3.19,18.864-6.265    C294.851,338.623,300.254,338.015,300.254,338.015z M273.123,286.216c0,0,6.756-20.615,6.631-31.181    c-0.127-10.555-3.558-12.023-6.631-12.023c-3.063,0-6.988,3.315-6.988,15.464S270.793,283.762,273.123,286.216z M281.601,302.174    c6.872,14.856,25.778,33.994,25.778,33.994s6.127-1.594,31.412-2.203c25.295-0.608,26.397,13.618,26.513,14.846    c0.126,1.238,1.112,12.527-19.021,13.261c-20.123,0.735-41.002-20.249-41.002-20.249s-8.583,1.354-15.696,3.065    c-7.112,1.719-29.954,7.983-29.954,7.983s-6.756,12.274-21.728,31.905c-14.982,19.641-31.759,18.173-36.543,11.666    c-5.56-7.553-1.269-15.096,9.286-24.918c10.555-9.819,34.906-17.961,34.906-17.961s4.91-8.834,12.108-25.694    c7.196-16.861,12.642-33.794,12.642-33.794s-7.124-16.179-8.509-29.944c-1.553-15.349,0.168-25.663,11.951-25.789    c11.782-0.126,15.465,8.719,15.832,24.057C289.94,277.75,281.601,302.174,281.601,302.174z" style="fill:#FFFFFF;"/><g><polygon points="255,137 255,129 228,129 228,174 238,174 238,156 254,156 254,148 238,148 238,137    " style="fill:#7C1100;"/><path d="M213.277,133.498c-4.364-3.294-10.385-4.837-18.989-4.837c-5.172,0-9.289,0.336-14.289,0.944     v44.465c4,0.335,6.766,0.671,12.075,0.671c8.866,0,16.351-1.878,21.114-5.844c4.364-3.693,7.635-9.674,7.635-18.339     C220.824,142.573,217.988,136.991,213.277,133.498z M194.647,166.747c-1.27,0-2.647,0-3.647-0.199v-29.619     c1-0.199,2.44-0.409,4.729-0.409c8.792,0,14.3,4.973,14.236,14.374C209.965,161.71,203.922,166.82,194.647,166.747z" style="fill:#7C1100;"/><path d="M169.548,132.291c-3.021-2.424-7.458-3.63-13.774-3.63c-6.242,0-10.773,0.41-13.773,0.944V174h10     v-15.92c1,0.136,2.159,0.21,3.502,0.21c6.043,0,11.219-1.479,14.713-4.774c2.686-2.549,4.167-6.316,4.167-10.744     C174.382,138.334,172.433,134.579,169.548,132.291z M155.438,150.431c-1.479,0-2.438-0.073-3.438-0.272v-13.367     c1-0.199,2.159-0.398,4.235-0.398c5.109,0,7.995,2.476,7.995,6.641C164.23,147.672,160.873,150.431,155.438,150.431z" style="fill:#7C1100;"/></g><path d="M419.672,461.64H130.098c-5.794,0-10.492-4.697-10.492-10.492V202.492    c0-5.794,4.697-10.492,10.492-10.492c5.795,0,10.492,4.697,10.492,10.492v238.164h268.59v-318.19l-50.96-51.121H140.59v29.377    c0,5.795-4.697,10.492-10.492,10.492c-5.794,0-10.492-4.697-10.492-10.492V60.853c0-5.794,4.697-10.492,10.492-10.492h232.488    c2.934,0,5.722,1.227,7.699,3.364l56.797,56.975c1.974,1.968,3.082,4.641,3.082,7.428v333.021    C430.164,456.942,425.467,461.64,419.672,461.64z" style="fill:#A51600;"/><path d="M306.36,212.983H92.328c-5.795,0-10.492-4.697-10.492-10.492V100.721    c0-5.794,4.697-10.492,10.492-10.492H306.36c5.795,0,10.492,4.697,10.492,10.492v101.771    C316.853,208.286,312.155,212.983,306.36,212.983z M102.82,192h193.049v-80.787H102.82V192z" style="fill:#A51600;"/><path d="M363.11,128.661c-5.756,0-10.438-4.638-10.491-10.395l-0.524-57.223    c-0.054-5.794,4.601-10.534,10.396-10.587c0.032,0,0.065,0,0.098,0c5.75,0,10.437,4.634,10.49,10.396l0.428,46.819l45.728-0.034    c0.003,0,0.007,0,0.009,0c5.791,0,10.487,4.692,10.491,10.484c0.004,5.794-4.689,10.496-10.483,10.5l-56.131,0.042    C363.116,128.661,363.112,128.661,363.11,128.661z" style="fill:#A51600;"/></g></g><g id="Layer_1"/></svg>