<?xml version="1.0" ?><!DOCTYPE svg  PUBLIC '-//W3C//DTD SVG 1.1//EN'  'http://www.w3.org/Graphics/SVG/1.1/DTD/svg11.dtd'><svg height="512px" style="enable-background:new 0 0 512 512;" version="1.1" viewBox="0 0 512 512" width="512px" xml:space="preserve" xmlns="http://www.w3.org/2000/svg" xmlns:xlink="http://www.w3.org/1999/xlink"><g id="_x38__x2C__Premier_Pro_x2C__Adobe"><g><g><rect height="492" style="fill:#EA77FF;" width="492" x="10" y="10"/><g><path d="M501.508,512H10.492C4.697,512,0,507.303,0,501.508V10.492C0,4.697,4.697,0,10.492,0h491.016      C507.303,0,512,4.697,512,10.492v491.016C512,507.303,507.303,512,501.508,512z M21,491h470V21H21V491z" style="fill:#B059BF;"/></g></g><g><rect height="426" style="fill:#2A0034;" width="426" x="43" y="43"/><g><path d="M480,469.508c0,5.795-4.697,10.492-10.492,10.492H43.492C37.698,480,33,475.303,33,469.508      V43.492C33,37.698,37.698,33,43.492,33h426.016C475.303,33,480,37.698,480,43.492V469.508z M54,458h404V54H54V458z" style="fill:#200027;"/></g></g><g><g id="XMLID_107_"><path d="M133.687,146.06c0-1.689,0.292-2.366,1.743-2.366      c11.047-0.336,32.852-0.676,54.946-0.676c56.979,0,78.714,33.153,79.001,72.364c0,53.742-40.047,74.115-82.782,74.115      c-8.137,0-15.988,0-18.024,0v76.784c0,2.025-0.583,2.701-2.034,2.701H135.72c-1.453,0-2.034-0.676-2.034-2.364V146.06z       M168.571,256.711c2.325,0.34,6.686,0.677,18.897,0.677c22.966,0,45.06-6.548,45.06-40.35c0-27.04-14.828-40.929-42.153-40.929      c-11.338,0-19.48,0.34-21.805,0.676V256.711z" id="XMLID_119_" style="fill:#EA77FF;"/></g><g id="XMLID_25_"><path d="M372.527,198.888c1.215-0.065,2.739,0,3.958,0.34      c1.524,0.336,1.828,0.677,1.828,3.379v29.316c0,1.689-0.61,2.366-2.436,2.366c-17.361-0.677-25.567-1.222-37.968,3.854v127.151      c0,2.031-0.611,2.703-2.436,2.703h-31.973c-1.829,0-2.44-0.672-2.44-2.703V251.389c0-14.873-0.61-26.1-1.521-37.254      c-0.304-1.354,0.304-2.03,1.828-2.03C301.369,212.104,330.819,201.135,372.527,198.888z" id="XMLID_103_" style="fill:#EA77FF;"/></g></g></g></g><g id="Layer_1"/></svg>