<?xml version="1.0" ?><!DOCTYPE svg  PUBLIC '-//W3C//DTD SVG 1.1//EN'  'http://www.w3.org/Graphics/SVG/1.1/DTD/svg11.dtd'><svg height="512px" style="enable-background:new 0 0 512 512;" version="1.1" viewBox="0 0 512 512" width="512px" xml:space="preserve" xmlns="http://www.w3.org/2000/svg" xmlns:xlink="http://www.w3.org/1999/xlink"><g id="_x32_3_x2C__Photoshop_x2C__Adobe"><g><g><rect height="492" style="fill:#4FC7EC;" width="492" x="10" y="10"/><g><path d="M501.508,512H10.492C4.697,512,0,507.303,0,501.508V10.492C0,4.697,4.697,0,10.492,0h491.016      C507.303,0,512,4.697,512,10.492v491.016C512,507.303,507.303,512,501.508,512z M21,491h470V21H21V491z" style="fill:#3B95B1;"/></g></g><g><rect height="426" style="fill:#242238;" width="426" x="43" y="43"/><g><path d="M480,469.508c0,5.795-4.697,10.492-10.492,10.492H43.492C37.698,480,33,475.303,33,469.508      V43.492C33,37.698,37.698,33,43.492,33h426.016C475.303,33,480,37.698,480,43.492V469.508z M54,458h404V54H54V458z" style="fill:#1B1A2A;"/></g></g><g><g id="XMLID_120_"><path d="M127.165,143.881c0-1.694,0.291-2.367,1.743-2.367      c11.047-0.34,32.854-0.676,54.948-0.676c56.978,0,78.712,33.153,79.003,72.364c0,53.739-40.051,74.114-82.784,74.114      c-8.14,0-15.988,0-18.026,0v76.781c0,2.03-0.578,2.707-2.034,2.707h-30.816c-1.452,0-2.034-0.677-2.034-2.367V143.881z       M162.048,254.532c2.329,0.336,6.688,0.673,18.9,0.673c22.963,0,45.058-6.545,45.058-40.346c0-27.04-14.824-40.929-42.15-40.929      c-11.338,0-19.478,0.337-21.807,0.677V254.532z" id="XMLID_122_" style="fill:#4FC7EC;"/></g><g id="XMLID_97_"><path d="M335.418,229.268c-13.998,0-17.709,8.754-17.709,15.177      c0,8.115,3.711,12.506,25.136,22.647c29.422,14.197,41.991,26.703,41.991,51.037c0,33.802-21.996,53.033-53.42,53.033      c-15.14,0-34.24-1.442-46.237-10.231c-1.145-0.677-1.716-1.688-1.716-3.384v-31.094c0-1.69,1.146-2.367,2.002-1.69      c14.853,11.153,31.418,14.323,46.271,14.323c13.144,0,17.711-8.758,17.711-16.192c0-8.787-3.174-13.86-23.741-23.66      c-29.422-14.196-41.671-26.397-41.671-51.069c0-27.38,20.531-49.995,54.238-49.995c17.424,0,29.705,0.467,37.705,5.872      c1.428,1.353,1.715,2.366,1.715,4.396v27.716c0,2.026-1.145,3.043-2.571,2.026C364.836,231.42,350.271,229.268,335.418,229.268z      " id="XMLID_104_" style="fill:#4FC7EC;"/></g></g></g></g><g id="Layer_1"/></svg>