<?xml version="1.0" ?><!DOCTYPE svg  PUBLIC '-//W3C//DTD SVG 1.1//EN'  'http://www.w3.org/Graphics/SVG/1.1/DTD/svg11.dtd'><svg height="512px" style="enable-background:new 0 0 512 512;" version="1.1" viewBox="0 0 512 512" width="512px" xml:space="preserve" xmlns="http://www.w3.org/2000/svg" xmlns:xlink="http://www.w3.org/1999/xlink"><g id="comp_x5F_273-readme"><g><g><g><path d="M447.905,88.731H336.261c-38.413,0-71.796,26.595-80.181,64.128      c-8.465-37.534-41.767-64.128-80.181-64.128H64.334c-21.163,0-38.333,17.17-38.333,38.333v196.299      c0,21.161,17.17,38.331,38.333,38.331h71.636c81.617,0,105.975,19.487,117.634,59.897c0.56,2.236,4.153,2.236,4.79,0      c11.742-40.41,36.099-59.897,117.637-59.897h71.636c21.163,0,38.333-17.17,38.333-38.331V127.144      C485.999,106.061,468.987,88.891,447.905,88.731z" style="fill:#388DD2;"/><path d="M255.97,433.27c-5.655,0-10.554-3.69-12.003-9.004c-10.087-34.869-29.596-52.571-107.997-52.571      H64.334c-26.651,0-48.333-21.682-48.333-48.331V127.064c0-26.651,21.682-48.333,48.333-48.333h111.565      c20.845,0,41.289,7.166,57.565,20.178c9.182,7.34,16.841,16.385,22.599,26.527c5.75-10.14,13.411-19.184,22.604-26.529      c16.286-13.011,36.74-20.176,57.593-20.176h111.645c26.553,0.201,48.094,21.918,48.094,48.413v196.219      c0,26.649-21.682,48.331-48.333,48.331H376.03c-78.384,0-97.88,17.743-108.034,52.688      C266.489,429.677,261.649,433.27,255.97,433.27z M64.334,98.731c-15.623,0-28.333,12.71-28.333,28.333v196.299      c0,15.622,12.71,28.331,28.333,28.331h71.636c68.504,0,102.718,12.992,120.049,48.162      c17.404-35.177,51.608-48.162,120.011-48.162h71.636c15.623,0,28.333-12.709,28.333-28.331V127.144      c0-15.55-12.637-28.296-28.17-28.413H336.261c-34.057,0-63.015,23.155-70.421,56.309c-1.021,4.566-5.07,7.815-9.75,7.82      c-0.003,0-0.007,0-0.01,0c-4.675,0-8.726-3.239-9.755-7.8c-7.48-33.166-36.44-56.329-70.426-56.329H64.334z" style="fill:#2A6A9E;"/></g><g><path d="M219.264,300.682c0,1.517-1.197,2.793-2.795,2.793H88.451c-1.516,0-2.795-1.197-2.795-2.793      v-18.288c0-1.519,1.199-2.797,2.795-2.797h128.098c1.518,0,2.796,1.199,2.796,2.797v18.288H219.264z" style="fill:#FFFFFF;"/><path d="M216.469,313.475H88.451c-7.055,0-12.795-5.739-12.795-12.793v-18.288      c0-7.057,5.74-12.797,12.795-12.797h128.098c7.056,0,12.796,5.74,12.796,12.797v18.288c0,0.93-0.127,1.831-0.365,2.686      C227.743,309.136,222.603,313.475,216.469,313.475z M95.656,293.475h113.688v-3.878H95.656V293.475z" style="fill:#2A6A9E;"/></g><g><path d="M219.264,252.046c0,1.518-1.197,2.795-2.795,2.795H88.451c-1.516,0-2.795-1.198-2.795-2.795      v-18.288c0-1.517,1.199-2.796,2.795-2.796h128.098c1.518,0,2.796,1.198,2.796,2.796v18.288H219.264z" style="fill:#FFFFFF;"/><path d="M216.469,264.842H88.451c-7.055,0-12.795-5.74-12.795-12.795v-18.288      c0-7.056,5.74-12.796,12.795-12.796h128.098c7.056,0,12.796,5.74,12.796,12.796v18.288c0,0.93-0.127,1.83-0.364,2.684      C227.744,260.501,222.604,264.842,216.469,264.842z M95.656,244.842h113.688v-3.879H95.656V244.842z" style="fill:#2A6A9E;"/></g><g><path d="M219.264,203.412c0,1.517-1.197,2.794-2.795,2.794H88.451c-1.516,0-2.795-1.197-2.795-2.794      v-18.289c0-1.518,1.199-2.795,2.795-2.795h128.098c1.518,0,2.796,1.198,2.796,2.795v18.289H219.264z" style="fill:#FFFFFF;"/><path d="M216.469,216.206H88.451c-7.055,0-12.795-5.739-12.795-12.794v-18.289      c0-7.055,5.74-12.795,12.795-12.795h128.098c7.056,0,12.796,5.74,12.796,12.795v18.289c0,0.93-0.127,1.83-0.364,2.685      C227.743,211.867,222.603,216.206,216.469,216.206z M95.656,196.206h113.688v-3.878H95.656V196.206z" style="fill:#2A6A9E;"/></g><g><path d="M426.343,300.601c0,1.519-1.198,2.797-2.795,2.797H295.531c-1.519,0-2.796-1.199-2.796-2.797      v-18.288c0-1.517,1.2-2.793,2.796-2.793h128.098c1.516,0,2.793,1.197,2.793,2.793v18.288H426.343z" style="fill:#FFFFFF;"/><path d="M423.548,313.397H295.531c-7.056,0-12.796-5.74-12.796-12.797v-18.288      c0-7.054,5.74-12.793,12.796-12.793h128.098c7.054,0,12.793,5.739,12.793,12.793v18.288c0,0.918-0.124,1.807-0.355,2.65      C434.843,309.04,429.694,313.397,423.548,313.397z M302.735,293.397h113.687v-3.878H302.735V293.397z" style="fill:#2A6A9E;"/></g><g><path d="M426.343,251.967c0,1.517-1.198,2.794-2.795,2.794H295.531c-1.519,0-2.796-1.197-2.796-2.794      v-18.288c0-1.518,1.2-2.795,2.796-2.795h128.098c1.516,0,2.793,1.198,2.793,2.795v18.288H426.343z" style="fill:#FFFFFF;"/><path d="M423.548,264.761H295.531c-7.056,0-12.796-5.739-12.796-12.794v-18.288      c0-7.055,5.74-12.795,12.796-12.795h128.098c7.054,0,12.793,5.74,12.793,12.795v18.288c0,0.918-0.124,1.808-0.355,2.652      C434.842,260.406,429.694,264.761,423.548,264.761z M302.735,244.761h113.687v-3.877H302.735V244.761z" style="fill:#2A6A9E;"/></g><g><path d="M426.343,203.332c0,1.517-1.198,2.794-2.795,2.794H295.531c-1.519,0-2.796-1.198-2.796-2.794      v-18.208c0-1.518,1.2-2.795,2.796-2.795h128.098c1.516,0,2.793,1.198,2.793,2.795v18.208H426.343z" style="fill:#FFFFFF;"/><path d="M423.548,216.126H295.531c-7.056,0-12.796-5.74-12.796-12.794v-18.208      c0-7.055,5.74-12.795,12.796-12.795h128.098c7.054,0,12.793,5.74,12.793,12.795v18.208c0,0.918-0.124,1.808-0.355,2.652      C434.842,211.771,429.694,216.126,423.548,216.126z M302.735,196.126h113.687v-3.798H302.735V196.126z" style="fill:#2A6A9E;"/></g></g></g></g><g id="Layer_1"/></svg>