<?xml version="1.0" ?><!DOCTYPE svg  PUBLIC '-//W3C//DTD SVG 1.1//EN'  'http://www.w3.org/Graphics/SVG/1.1/DTD/svg11.dtd'><svg height="512px" style="enable-background:new 0 0 512 512;" version="1.1" viewBox="0 0 512 512" width="512px" xml:space="preserve" xmlns="http://www.w3.org/2000/svg" xmlns:xlink="http://www.w3.org/1999/xlink"><g id="_x32_5_x2C__Scout_x2C__Adobe"><g><g><rect height="492" style="fill:#BFB0CE;" width="492" x="10" y="10"/><g><path d="M501.508,512H10.492C4.697,512,0,507.303,0,501.508V10.492C0,4.697,4.697,0,10.492,0h491.016      C507.303,0,512,4.697,512,10.492v491.016C512,507.303,507.303,512,501.508,512z M21,491h470V21H21V491z" style="fill:#8F849B;"/></g></g><g><rect height="426" style="fill:#191026;" width="426" x="43" y="43"/><g><path d="M480,469.508c0,5.795-4.697,10.492-10.492,10.492H43.492C37.698,480,33,475.303,33,469.508      V43.492C33,37.698,37.698,33,43.492,33h426.016C475.303,33,480,37.698,480,43.492V469.508z M54,458h404V54H54V458z" style="fill:#130C1D;"/></g></g><g><path d="M194.75,238.263c-27.22-13.77-30.55-22.623-30.55-34.424c0-8.854,2.789-28.402,27.557-28.402     c16.054,0,32.372,2.744,44.075,11.27c1.361,0.983,2.168,0,2.168-1.313v-29.832c0-1.968-0.26-2.953-1.352-3.937     c-11.187-7.989-25.167-7.989-44.493-7.989c-41.096,0-62.529,29.147-62.529,60.948c0,31.145,14.396,49.77,51.683,68.788     c29.397,15.078,29.337,23.243,29.337,37.012c0,12.786-6.965,25.216-28.195,25.216c-19.322,0-37.139-2.81-52.107-15.591     c-1.09-0.984-2.345,0-2.345,1.636v31.148c0,2.292,0.442,3.604,2.075,4.917c15.471,11.002,34.107,11.002,53.704,11.002     c39.464,0,63.081-24.56,63.081-62.26C246.859,278.585,238.294,259.898,194.75,238.263z" style="fill:#BFB0CE;"/><path d="M381.093,334.132c-6.28,3.269-15.911,3.03-28.483,3.03c-21.135,0-41.105-15.336-41.105-51.626     c0-30.731,16.292-51.951,42.003-51.951c11.138,0,19.558,0.39,26.692,3.986c1.144,0.651,2.004,0.328,2.004-1.636l0.289-26.482     c0-1.96-0.287-2.612-1.427-3.268c-4.572-2.616-14.696-3.982-29.836-3.982c-44.846,0-76.106,35.93-76.106,84.317     c0,46.096,23.836,83.009,70.396,83.009c14.281,0,26.722,0.89,36.15-4.338c1.14-0.655,1.331-1.636,1.331-2.944v-26.481     C383,334.456,382.521,333.805,381.093,334.132z" style="fill:#BFB0CE;"/></g></g></g><g id="Layer_1"/></svg>