<?xml version="1.0" ?><svg data-name="Layer 1" id="Layer_1" viewBox="0 0 512 512" xmlns="http://www.w3.org/2000/svg"><defs><style>.cls-1,.cls-2{fill:none;stroke:#000;stroke-width:10px;}.cls-1{stroke-linejoin:round;}.cls-2{stroke-miterlimit:10;}</style></defs><title/><path class="cls-1" d="M463,146V450H143V234H306.2a9.83,9.83,0,0,0,9.8-9.8V143.8a9.83,9.83,0,0,0-9.8-9.8H143V66H367v64a16,16,0,0,0,16,16Z"/><line class="cls-1" x1="367" x2="463" y1="66" y2="146"/><rect class="cls-1" height="100" rx="9.8" ry="9.8" width="280" x="36" y="134"/><path d="M165,166.52Q171,172,171,181.79t-5.88,15.48q-5.88,5.7-18,5.7H133.25V161h14.4Q158.92,161,165,166.52ZM163.91,182q0-14.4-16.5-14.4h-7.08v28.74h7.86q7.62,0,11.67-3.63T163.91,182Z"/><path d="M193.25,191.21,202.6,161H209l9.36,30.18L228.89,161h7.62L221.86,203h-7L206,174.23h-.48L196.73,203h-7L175.06,161h7.62Z"/><path class="cls-2" d="M252.19,288.11q15.48,14,15.48,39t-15,39.55q-15,14.56-46,14.56H171.1V274.09h36.79Q236.7,274.09,252.19,288.11Zm-2.76,39.47q0-36.79-42.15-36.79H189.19v73.42h20.08q19.46,0,29.81-9.27T249.43,327.58Z"/><path class="cls-2" d="M324.38,351.19l23.91-77.1h16.25l23.91,77.1,27-77.1H434.9L397.5,381.23H379.56L357,307.81H355.8l-22.53,73.42H315.34l-37.4-107.14H297.4Z"/></svg>