<?xml version="1.0" encoding="UTF-8"?>
<!DOCTYPE svg PUBLIC "-//W3C//DTD SVG 1.1//EN" "http://www.w3.org/Graphics/SVG/1.1/DTD/svg11.dtd">
<!-- Creator: CorelDRAW -->
<svg xmlns="http://www.w3.org/2000/svg" xml:space="preserve" width="6.82666in" height="6.82666in" style="shape-rendering:geometricPrecision; text-rendering:geometricPrecision; image-rendering:optimizeQuality; fill-rule:evenodd; clip-rule:evenodd"
viewBox="0 0 6.82666 6.82666"
 xmlns:xlink="http://www.w3.org/1999/xlink">
 <defs>
  <style type="text/css">
   <![CDATA[
    .fil2 {fill:none}
    .fil0 {fill:#0079BE}
    .fil1 {fill:#FFFFFE}
   ]]>
  </style>
 </defs>
 <g id="Layer_x0020_1">
  <metadata id="CorelCorpID_0Corel-Layer"/>
  <g id="_372394160">
   <path id="_372393752" class="fil0" d="M3.85282 5.44113c1.10848,0.00533858 2.12051,-0.903965 2.12051,-2.01032 0,-1.20946 -1.01218,-2.0457 -2.12051,-2.04529l-0.954197 -1.1811e-005c-1.12174,-0.000405512 -2.0453,0.835984 -2.0453,2.0453 0,1.10665 0.923559,2.01566 2.0453,2.01033l0.954197 -7.87402e-006z"/>
   <path id="_372394136" class="fil1" d="M2.90307 1.5532c-1.02494,0.000149606 -1.85587,0.831236 -1.85602,1.85648 0.000149606,1.0252 0.831079,1.85589 1.85602,1.85632 1.02555,-0.000444882 1.85662,-0.831118 1.85662,-1.85632 7.87402e-006,-1.02524 -0.83122,-1.85632 -1.85662,-1.85648z"/>
   <path id="_372394472" class="fil0" d="M1.72686 3.40967c0.000846457,-0.501209 0.31378,-0.928457 0.755008,-1.09828l0 2.19628c-0.441228,-0.169689 -0.754161,-0.596969 -0.755008,-1.098z"/>
   <path id="_372394016" class="fil0" d="M3.32433 4.50796l0 -2.19657c0.441496,0.169244 0.754823,0.596969 0.755713,1.09828 -0.000877953,0.501319 -0.314228,0.928567 -0.75572,1.09829z"/>
  </g>
 </g>
 <rect class="fil2" width="6.82666" height="6.82666"/>
</svg>
