<?xml version="1.0" encoding="UTF-8"?>
<!DOCTYPE svg PUBLIC "-//W3C//DTD SVG 1.1//EN" "http://www.w3.org/Graphics/SVG/1.1/DTD/svg11.dtd">
<!-- Creator: CorelDRAW -->
<svg xmlns="http://www.w3.org/2000/svg" xml:space="preserve" width="6.82666in" height="6.82666in" style="shape-rendering:geometricPrecision; text-rendering:geometricPrecision; image-rendering:optimizeQuality; fill-rule:evenodd; clip-rule:evenodd"
viewBox="0 0 6.82666 6.82666"
 xmlns:xlink="http://www.w3.org/1999/xlink">
 <defs>
  <style type="text/css">
   <![CDATA[
    .fil2 {fill:none}
    .fil0 {fill:#424242}
    .fil1 {fill:#E53935}
   ]]>
  </style>
 </defs>
 <g id="Layer_x0020_1">
  <metadata id="CorelCorpID_0Corel-Layer"/>
  <path class="fil0" d="M1.15402 3.35525l0.351508 0 0 -0.222654c0,-0.0174646 -1.5748e-005,-0.0619606 -0.00644094,-0.0780433 -0.00246457,-0.00617323 -0.00978346,-0.0112165 -0.015311,-0.0143268 -0.0142047,-0.00797638 -0.029252,-0.011937 -0.0455197,-0.011937l-0.0572126 0 0 -0.0769409 0.425402 0 0 0.0769409 -0.0574291 0c-0.0163819,0 -0.0316417,0.0042874 -0.0461732,0.011752 -0.00727165,0.00373622 -0.0124173,0.00861811 -0.0151693,0.0163858 -0.00594882,0.0167874 -0.0057126,0.0582047 -0.0057126,0.0761693l0 0.561913c0,0.0175669 1.5748e-005,0.0612165 0.00645669,0.077437 0.00251181,0.00632677 0.00887795,0.0110433 0.0146024,0.0142559 0.0142874,0.00799606 0.0296417,0.0121772 0.0459961,0.0121772l0.0574291 0 0 0.0767205 -0.425402 0 0 -0.0767205 0.0572126 0c0.0207835,0 0.0433819,-0.00405512 0.0568858,-0.0213543 0.00932283,-0.0119409 0.0103858,-0.0677638 0.0103858,-0.0825157l0 -0.23865 -0.351508 0 0 0.23865c0,0.0174213 2.75591e-005,0.0613307 0.00643701,0.0773858 0.00246063,0.00616142 0.00994094,0.0112087 0.0154567,0.0142795 0.0142205,0.0079252 0.0290748,0.0122047 0.045378,0.0122047l0.0580866 0 0 0.0767205 -0.426055 0 0 -0.0767205 0.0572087 0c0.0205512,0 0.0440866,-0.00368504 0.0573504,-0.0211024 0.00887795,-0.0116614 0.00992126,-0.0683583 0.00992126,-0.0827677l0 -0.561913c0,-0.0174685 -1.5748e-005,-0.0619567 -0.00644094,-0.0780433 -0.00251969,-0.00631496 -0.00899606,-0.0111299 -0.0147047,-0.0143543 -0.0143543,-0.00810236 -0.0297008,-0.0119094 -0.046126,-0.0119094l-0.0572087 0 0 -0.0769409 0.426055 0 0 0.0769409 -0.0580866 0c-0.0164488,0 -0.0314646,0.00407874 -0.0460197,0.0116732 -0.00732283,0.00382283 -0.0121417,0.00905906 -0.0150118,0.016811 -0.00625197,0.0169016 -0.00624016,0.0577441 -0.00624016,0.0758228l0 0.222654zm0.8 0.491748c-0.00323228,0.00479921 -0.0059252,0.0201181 -0.00674409,0.0255079l-0.0034252 0.0225394 -0.073 0 0 -0.351543 0.0724055 0 0.00390945 0.0218543c0.00742913,0.0415197 0.0195669,0.0947362 0.0417008,0.131154 0.0181063,0.0297913 0.0455984,0.0515394 0.0760984,0.0676969 0.0357835,0.0189567 0.0744449,0.0275984 0.114909,0.0275984 0.0393307,0 0.0791654,-0.00816535 0.109012,-0.035374 0.0240236,-0.0218976 0.0378071,-0.0477992 0.0378071,-0.0805512 0,-0.0185984 -0.00568504,-0.0360748 -0.0143937,-0.0523543 -0.011126,-0.0208031 -0.0292598,-0.0381654 -0.0477835,-0.0524094 -0.0132953,-0.0102165 -0.0297756,-0.0197835 -0.0441654,-0.0284173 -0.0294567,-0.0176693 -0.0594173,-0.0346417 -0.0893898,-0.0514331 -0.0325866,-0.0182598 -0.0650354,-0.0370079 -0.0966811,-0.0568622 -0.0223346,-0.0140118 -0.0449331,-0.0288307 -0.0656575,-0.0451614 -0.031685,-0.0249764 -0.059122,-0.0547559 -0.0785276,-0.0903071 -0.0188858,-0.0345984 -0.0275709,-0.0723976 -0.0275709,-0.111768 0,-0.0715433 0.0282835,-0.131744 0.0802362,-0.180618 0.0558701,-0.0525591 0.124984,-0.0749252 0.201169,-0.0749252 0.0547205,0 0.108075,0.0141102 0.157839,0.0362598 0.00782283,0.00348031 0.031374,0.0136732 0.0398386,0.0137087 0.00298819,0 0.00679134,-0.00034252 0.00908268,-0.00252756 0.00407087,-0.00420079 0.00827559,-0.0210433 0.0095,-0.0266142l0.00458268 -0.0208268 0.0715157 0 0 0.354173 -0.0733465 0 -0.00312598 -0.0229449c-0.00580709,-0.0425472 -0.0163976,-0.0908346 -0.0381024,-0.128366 -0.0179606,-0.0310591 -0.0435157,-0.0543819 -0.0749724,-0.0715157 -0.0317165,-0.0172717 -0.0653268,-0.0270079 -0.1015,-0.0270079 -0.0349724,0 -0.0664528,0.00947638 -0.0923583,0.0336378 -0.0214449,0.0199882 -0.0351732,0.043563 -0.0351732,0.0732992 0,0.0212244 0.00790157,0.0393307 0.021437,0.0555276 0.0158976,0.0190197 0.0414764,0.037378 0.0618701,0.0512283 0.038126,0.0259016 0.0790709,0.0490591 0.119665,0.0708268 0.0349724,0.0187598 0.0698504,0.0380433 0.103823,0.0585748 0.0225472,0.0136299 0.0458622,0.028248 0.0665866,0.0445394 0.031685,0.0249016 0.0578898,0.055252 0.0760984,0.0912992 0.0176772,0.0349921 0.0269606,0.072252 0.0269606,0.111457 0,0.0753661 -0.0302402,0.13865 -0.085126,0.189894 -0.0598661,0.0558937 -0.134398,0.0787992 -0.215563,0.0787992 -0.0254173,0 -0.0506457,-0.00216929 -0.0757244,-0.00626772 -0.0272992,-0.00445669 -0.059937,-0.0156378 -0.0862913,-0.0241693 -0.0141496,-0.00458268 -0.056937,-0.0190945 -0.0711693,-0.0190945 -0.00195669,0 -0.00464961,0.000102362 -0.00625591,0.00148425zm1.26751 -0.447909c0.0287244,0.0114016 0.055811,0.0267244 0.0778307,0.0475787 0.0467362,0.0442598 0.0705236,0.099315 0.0705236,0.163685 0,0.0510591 -0.0170748,0.0976063 -0.0458976,0.139339 -0.0312441,0.0452441 -0.0737126,0.0767441 -0.125035,0.0962835 -0.0665315,0.0253268 -0.157386,0.029126 -0.227937,0.029126l-0.437441 0 0 -0.0767205 0.0591811 0c0.0213071,0 0.0436142,-0.00431102 0.0562047,-0.0230945 0.00951969,-0.0141929 0.0104094,-0.0641339 0.0104094,-0.0807756l0 -0.562571c0,-0.0154055 -0.00117717,-0.0721693 -0.0119449,-0.0842992 -0.0137087,-0.0154567 -0.0349016,-0.0193504 -0.0546693,-0.0193504l-0.0591811 0 0 -0.0769409 0.402594 0c0.0570433,0 0.119563,0.00288189 0.175185,0.0162992 0.0611417,0.014748 0.11928,0.0417992 0.160949,0.0902323 0.0376496,0.0437559 0.0570394,0.0947598 0.0570394,0.152516 0,0.0494213 -0.0150354,0.0942008 -0.0451575,0.133409 -0.0174409,0.0227047 -0.0388465,0.0408189 -0.0626535,0.0552835zm0.909378 -0.407201c0.00444882,-6.69291e-005 0.00785433,-0.00148425 0.0110748,-0.00465354 0.00892126,-0.00877559 0.0138661,-0.023315 0.0166732,-0.035189l0.00483071 -0.0204213 0.0681417 0 0.0235157 0.348913 -0.0680669 0 -0.00566142 -0.0189173c-0.0192402,-0.0642362 -0.0507087,-0.135417 -0.104594,-0.178146 -0.0468898,-0.0371811 -0.101236,-0.0527756 -0.160811,-0.0527756 -0.0514055,0 -0.0990394,0.0125945 -0.142567,0.0399803 -0.0474055,0.0298228 -0.0784764,0.0771417 -0.0996535,0.128 -0.0295039,0.0708543 -0.0380669,0.153205 -0.0380669,0.229343 0,0.0658465 0.00907087,0.133547 0.0356811,0.19426 0.0223228,0.0509252 0.0559016,0.0918307 0.103461,0.120795 0.0488071,0.0297283 0.102819,0.0423701 0.159772,0.0423701 0.0480787,0 0.0945236,-0.00938976 0.136732,-0.033 0.0512008,-0.0286496 0.10013,-0.0894331 0.133866,-0.136327l0.0146457 -0.0203504 0.0622598 0.0396732 -0.0123031 0.021878c-0.0397559,0.0707205 -0.092185,0.136768 -0.161937,0.179854 -0.067185,0.0415 -0.143114,0.0578701 -0.221476,0.0578701 -0.145917,0 -0.268579,-0.0526299 -0.356413,-0.17139 -0.0647992,-0.0876063 -0.0937362,-0.188268 -0.0937362,-0.296953 0,-0.0887638 0.0195551,-0.173717 0.0614252,-0.252039 0.0403583,-0.0754921 0.0969764,-0.136291 0.170843,-0.179571 0.0730551,-0.0427992 0.15252,-0.0634685 0.237169,-0.0634685 0.069748,0 0.136398,0.0171417 0.19839,0.0489449 0.00553937,0.00284646 0.0205197,0.0104961 0.0268071,0.0113189zm-1.29532 0.354988c0.00991732,0.00128346 0.0198858,0.00222047 0.029811,0.0029685 0.021622,0.00162598 0.0433937,0.00211811 0.0650748,0.00211811 0.039248,0 0.0939094,-0.00235039 0.130465,-0.0180157 0.0254646,-0.0109173 0.0457441,-0.0275236 0.0600315,-0.0512992 0.0143346,-0.0238583 0.0211969,-0.0496732 0.0211969,-0.0775118 0,-0.0451575 -0.0191693,-0.0807717 -0.0530748,-0.110118 -0.0440669,-0.0381339 -0.108051,-0.0474409 -0.164319,-0.0474409 -0.0297874,0 -0.0599252,0.0022874 -0.089185,0.00838976l0 0.290909zm0 0.417413c0.0396811,0.00794094 0.0800039,0.0121772 0.120524,0.0121772 0.054811,0 0.116965,-0.00907874 0.160031,-0.0459921 0.0337913,-0.0289685 0.0516654,-0.0645039 0.0516654,-0.109161 0,-0.0301339 -0.00866929,-0.0581417 -0.0239449,-0.0840551 -0.0175551,-0.0297874 -0.046374,-0.0494567 -0.0775591,-0.0629921 -0.0441417,-0.0191496 -0.0958031,-0.0247598 -0.143504,-0.0247598 -0.0223386,0 -0.0447559,0.000161417 -0.0670748,0.00107087 -0.00662992,0.000267717 -0.0133937,0.000653543 -0.0201378,0.00125984l0 0.312453z"/>
  <polygon class="fil1" points="4.34149,3.41333 4.74945,3.00537 4.74945,3.82129 "/>
  <polygon class="fil1" points="5.97333,3.41333 5.56537,3.00537 5.56537,3.82129 "/>
  <polygon class="fil1" points="5.15741,3.41333 4.74945,3.00537 5.56537,3.00537 "/>
  <polygon class="fil1" points="5.15741,3.41333 4.74945,3.82129 5.56537,3.82129 "/>
 </g>
 <rect class="fil2" width="6.82666" height="6.82666"/>
</svg>
