<?xml version="1.0" encoding="UTF-8"?>
<!DOCTYPE svg PUBLIC "-//W3C//DTD SVG 1.1//EN" "http://www.w3.org/Graphics/SVG/1.1/DTD/svg11.dtd">
<!-- Creator: CorelDRAW -->
<svg xmlns="http://www.w3.org/2000/svg" xml:space="preserve" width="6.82666in" height="6.82666in" style="shape-rendering:geometricPrecision; text-rendering:geometricPrecision; image-rendering:optimizeQuality; fill-rule:evenodd; clip-rule:evenodd"
viewBox="0 0 6.82666 6.82666"
 xmlns:xlink="http://www.w3.org/1999/xlink">
 <defs>
  <style type="text/css">
   <![CDATA[
    .fil2 {fill:none}
    .fil1 {fill:#424242}
    .fil0 {fill:#66BB6A}
   ]]>
  </style>
 </defs>
 <g id="Layer_x0020_1">
  <metadata id="CorelCorpID_0Corel-Layer"/>
  <g id="_371666336">
   <path id="_414283224" class="fil0" d="M2.05818 3.00915c0.049374,0.129343 0.0286299,0.250465 -0.0525433,0.360756 -0.0712165,0.0976969 -0.169933,0.158504 -0.282791,0.197469 -0.109126,0.0374173 -0.221417,0.0499016 -0.33628,0.0363228 -0.0379055,-0.00411024 -0.0749094,-0.0123701 -0.112291,-0.0185945 -0.00467717,-0.00109449 -0.0093189,-0.00162205 -0.0139961,-0.00214961 -0.0124843,-0.00211417 -0.0192756,0.00467717 -0.017689,0.0161063 0.002,0.0223661 0.00305512,0.0452244 0.00931496,0.0660118 0.0264803,0.0893937 0.0878504,0.144504 0.173138,0.176717 0.0109016,0.00422441 0.0228976,0.00784646 0.0343268,0.0119606 0.00411024,0.00158268 0.00825984,0.00467717 0.0128976,0.0067874 -0.000527559,0.00211417 -0.000901575,0.00305512 -0.000901575,0.00520472 -0.00679134,0.00105906 -0.0135827,0.00264173 -0.0208976,0.00264173 -0.111276,0.000527559 -0.211988,-0.0332677 -0.303008,-0.0956575 -0.147185,-0.101961 -0.235,-0.243787 -0.274909,-0.416925 -0.0245157,-0.103917 -0.0255709,-0.208894 -0.00320472,-0.313382 0.0114291,-0.0514882 0.036437,-0.0972795 0.0670669,-0.139299 0.0743858,-0.100866 0.17672,-0.160087 0.294748,-0.194413 0.0940748,-0.0275709 0.190299,-0.0364724 0.287429,-0.0302126 0.141299,0.00837402 0.27185,0.049378 0.386142,0.135189 0.0681614,0.0514882 0.122705,0.114823 0.153449,0.195469zm-0.272378 0.0467362c-0.0244803,-0.0384764 -0.0588465,-0.0654843 -0.098752,-0.0857008 -0.0722756,-0.0370039 -0.149713,-0.0484331 -0.241791,-0.0499055 -0.0139528,0.000905512 -0.0395276,0.00252756 -0.0654803,0.00569685 -0.0130157,0.00147244 -0.0253858,0.00414961 -0.0379094,0.00773228 -0.0821181,0.0234252 -0.138772,0.0727992 -0.158614,0.158087 -0.011315,0.0504331 -0.00773228,0.100862 0.00426378,0.15024 0.0150118,0.0602756 0.0513346,0.101807 0.109654,0.124138 0.038437,0.0146339 0.0784961,0.0198386 0.118969,0.0203701 0.0727638,0.0014685 0.143563,-0.00837402 0.211575,-0.0337992 0.0588031,-0.0223661 0.111764,-0.0531102 0.15024,-0.104598 0.0446969,-0.058126 0.0473386,-0.130398 0.00784646,-0.19226z"/>
   <path id="_202064056" class="fil1" d="M3.20948 3.25652c-0.00516535,0.0904921 -0.0420197,0.164764 -0.119083,0.216252 -0.0488465,0.0332677 -0.10339,0.0514882 -0.161028,0.0581654 -0.0437559,0.0047874 -0.0879252,0.00425984 -0.131606,0.00569291 -0.00305512,0.000566929 -0.00622441,0 -0.0109016,0l0 0.326583 -0.256272 0 0 -0.0157283c0,-0.282224 0.000527559,-0.564484 0,-0.846181 0,-0.0114291 0.00369685,-0.0166339 0.0141063,-0.0202165 0.106563,-0.0400591 0.216744,-0.0525827 0.329075,-0.047378 0.0513346,0.00211024 0.10124,0.0109016 0.149713,0.0286299 0.137189,0.0498661 0.194409,0.162197 0.185996,0.294181zm-0.255744 -0.0924528c-0.0108976,-0.0427362 -0.0363228,-0.0733268 -0.0810236,-0.0806457 -0.0239488,-0.00414961 -0.0488465,-0.00105512 -0.0733268,-0.00105512 -0.00984646,0.000527559 -0.0125236,0.00569291 -0.0125236,0.0151614 0.000527559,0.0466969 0,0.0924921 0,0.138776 0,0.0466969 0.000527559,0.0935433 0,0.140244 0,0.00893701 0.00320866,0.0125236 0.0114685,0.0125236 0.00984252,0 0.0192756,0.00105512 0.0285906,0.00158268 0.0675945,0.00162205 0.111236,-0.0296496 0.126815,-0.0904528 0.0109016,-0.0447362 0.0109016,-0.0909055 0,-0.136134z"/>
   <path id="_203353544" class="fil1" d="M3.90184 3.40359c0.000527559,0.136248 0,0.272909 0.000527559,0.409193 0,0.00984252 -0.00305512,0.0144843 -0.0119567,0.0180669 -0.0551063,0.0239528 -0.112291,0.0354173 -0.170984,0.0422087 -0.0815906,0.0093189 -0.163669,0.0114291 -0.245374,-0.00414961 -0.0264764,-0.0053189 -0.0529567,-0.0124843 -0.0785315,-0.0228976 -0.089811,-0.036437 -0.134512,-0.110181 -0.130402,-0.207949 0.00411417,-0.0904921 0.0545472,-0.146508 0.132551,-0.183512 0.0634449,-0.0295354 0.131457,-0.0425866 0.200106,-0.0519016 0.0223701,-0.00320866 0.0447362,-0.00573622 0.0676339,-0.00837402 0,-0.0145236 0.00158268,-0.0270079 0,-0.0390039 -0.00414961,-0.038437 -0.031685,-0.0608071 -0.0785354,-0.0654843 -0.0613307,-0.00569291 -0.120024,0.00626378 -0.178303,0.0248976 -0.0161063,0.00479134 -0.031685,0.0114291 -0.049378,0.017689 -0.0171614,-0.047752 -0.0348504,-0.0951299 -0.0529567,-0.145449 0.028063,-0.00890157 0.0545433,-0.018748 0.0821142,-0.026063 0.0810236,-0.0223701 0.163669,-0.0347402 0.247374,-0.0280669 0.0359094,0.00264173 0.0717047,0.00837402 0.105504,0.018748 0.0904882,0.0286299 0.139866,0.0935472 0.154917,0.185508 0.00411024,0.0219528 0.00569291,0.0441732 0.00569291,0.0665394zm-0.235374 0.315646c-0.000527559,-0.0661614 0,-0.131606 0,-0.197618l0 -0.0125236c-0.0218386,-0.000940945 -0.068122,0.00894094 -0.0940748,0.0198425 -0.0536378,0.0223307 -0.0780039,0.0633307 -0.0722717,0.12161 0.00411024,0.0384724 0.0202165,0.068689 0.0586929,0.0821181 0.0311181,0.0109016 0.0629173,0.0103701 0.0946024,0.00358268 0.00984646,-0.002 0.0130512,-0.0066378 0.0130512,-0.0170118z"/>
   <path id="_203145928" class="fil1" d="M5.9728 3.41144c0.000527559,0.133079 0,0.266118 0.000527559,0.398665 0,0.0119606 -0.00316929,0.0176929 -0.0146339,0.0223701 -0.0540157,0.0223307 -0.110181,0.0343268 -0.168311,0.0405866 -0.0817008,0.00875197 -0.163819,0.0109016 -0.245937,-0.00414961 -0.0348543,-0.00625984 -0.0686496,-0.0162205 -0.100335,-0.0332677 -0.068122,-0.0359094 -0.102862,-0.0931339 -0.107654,-0.168988 -0.00569685,-0.098752 0.0354173,-0.165819 0.127343,-0.209988 0.059374,-0.0285945 0.122705,-0.0421732 0.187244,-0.0520197 0.028063,-0.00411024 0.0561654,-0.00720079 0.0842283,-0.0108976 0.0113189,-0.059752 -0.0162165,-0.0976969 -0.0764961,-0.103961 -0.0524291,-0.00569291 -0.103957,0.0026811 -0.153823,0.0166378 -0.0248937,0.00731496 -0.049374,0.0161063 -0.0753268,0.0248937 -0.0166339,-0.0472244 -0.0343268,-0.0950157 -0.0525827,-0.145449 0.0327402,-0.00984646 0.0640118,-0.0208976 0.0956969,-0.0285945 0.0867559,-0.0228937 0.174571,-0.0327402 0.264004,-0.0228937 0.0509606,0.00625984 0.0998071,0.019689 0.142921,0.0504331 0.0556024,0.0405866 0.0811772,0.098185 0.0893976,0.164724 0.00320866,0.0203661 0.00373622,0.0411142 0.00373622,0.0618976zm-0.235528 0.307799c-0.000527559,-0.0661614 0,-0.131606 0,-0.197618 0,-0.00414961 -0.000527559,-0.00825984 -0.00105512,-0.0139921 -0.0337992,0.00361811 -0.0660118,0.00931496 -0.0966024,0.0228937 -0.0447362,0.0191614 -0.0675945,0.0529606 -0.068689,0.10128 -0.002,0.049378 0.0176929,0.0852874 0.0566929,0.0998071 0.031685,0.0119606 0.0644291,0.0114291 0.0971299,0.00464173 0.0094685,-0.002 0.0125236,-0.00716929 0.0125236,-0.0170118z"/>
   <path id="_202943056" class="fil1" d="M5.25023 3.14743l-0.502587 0 0 0.161142 0.192827 0c-0.0722756,0.185508 -0.14398,0.369508 -0.215197,0.554075l0.527484 0 0 -0.160614 -0.210898 0c0.0695945,-0.185622 0.138776,-0.369661 0.20837,-0.554602z"/>
   <path id="_203248120" class="fil1" d="M4.66647 3.14691l0.0155787 0c-0.0014685,0.00569291 -0.00252756,0.0103701 -0.00414961,0.0144843 -0.108028,0.324961 -0.216213,0.649772 -0.32428,0.974618 -0.00316929,0.010374 -0.0073189,0.0140709 -0.018748,0.0140709 -0.0774409,-0.000527559 -0.154917,0 -0.232358,0l-0.0161063 0c0.0191614,-0.046811 0.0379488,-0.0915472 0.0566929,-0.136248 0.0196929,-0.0461693 0.0390039,-0.0924882 0.0576378,-0.139189 0.00264173,-0.00625984 0.00264173,-0.0151614 0.00105512,-0.0219528 -0.0763819,-0.228622 -0.153295,-0.457358 -0.230205,-0.686094 -0.00215354,-0.00626378 -0.00426378,-0.0119961 -0.00626378,-0.0191614l0.272378 0c0.0284803,0.16778 0.070689,0.333185 0.0930197,0.502587 0.00252756,-0.0171654 0.00362205,-0.0343268 0.0073189,-0.0509606 0.0165197,-0.079063 0.0332677,-0.157972 0.0508465,-0.236996 0.0151654,-0.0665394 0.0312717,-0.133079 0.0457913,-0.199618 0.00264173,-0.0124843 0.0073189,-0.0161063 0.0196929,-0.0155394 0.0707598,0.000527559 0.141449,0 0.212098,0z"/>
  </g>
 </g>
 <rect class="fil2" width="6.82666" height="6.82666"/>
</svg>
