<?xml version="1.0" ?><svg data-name="Layer 1" id="Layer_1" viewBox="0 0 512 512" xmlns="http://www.w3.org/2000/svg"><defs><style>.cls-1,.cls-2{fill:none;stroke:#000;stroke-width:10px;}.cls-1{stroke-linejoin:round;}.cls-2{stroke-miterlimit:10;}</style></defs><title/><path class="cls-1" d="M464,144V448H144V232H307.2a9.83,9.83,0,0,0,9.8-9.8V141.8a9.83,9.83,0,0,0-9.8-9.8H144V64H368v64a16,16,0,0,0,16,16Z"/><line class="cls-1" x1="368" x2="464" y1="64" y2="144"/><rect class="cls-1" height="100" rx="9.8" ry="9.8" width="280" x="37" y="132"/><path d="M137,196.55a14.81,14.81,0,0,0,6.3-1.23,21.68,21.68,0,0,0,5.52-3.93l4.56,4.68a21,21,0,0,1-16.17,7.38,21.67,21.67,0,0,1-15.78-6.12,22.24,22.24,0,0,1,.12-31.08A22.16,22.16,0,0,1,137.73,160a21.1,21.1,0,0,1,16.29,7.2l-4.5,4.92a19.67,19.67,0,0,0-5.67-4,15.89,15.89,0,0,0-6.27-1.14,14.9,14.9,0,0,0-10.68,4.11,13.86,13.86,0,0,0-4.32,10.5,14.49,14.49,0,0,0,4.29,10.68A13.89,13.89,0,0,0,137,196.55Z"/><path d="M174.29,166.55a9.29,9.29,0,0,0-5.07,1.26,4.21,4.21,0,0,0-2,3.81,4.43,4.43,0,0,0,2,3.9q2,1.35,8.43,2.91t9.72,4.38q3.27,2.82,3.27,8.31A11,11,0,0,1,186.5,200q-4.14,3.42-10.86,3.42a25.51,25.51,0,0,1-17.46-6.78l4.44-5.34q6.36,5.52,13.2,5.52a9,9,0,0,0,5.43-1.47,4.6,4.6,0,0,0,2-3.9,4.38,4.38,0,0,0-1.89-3.78,19.89,19.89,0,0,0-6.51-2.46,58.31,58.31,0,0,1-7-2,15.82,15.82,0,0,1-4.26-2.43q-3.72-2.82-3.72-8.64a10.52,10.52,0,0,1,4.23-9A17,17,0,0,1,174.56,160a25.11,25.11,0,0,1,8,1.32,20.88,20.88,0,0,1,6.84,3.72l-3.78,5.34a14.3,14.3,0,0,0-5-2.76A19.41,19.41,0,0,0,174.29,166.55Z"/><path d="M211.1,166.55a9.29,9.29,0,0,0-5.07,1.26,4.21,4.21,0,0,0-2,3.81,4.43,4.43,0,0,0,2,3.9q2,1.35,8.43,2.91t9.72,4.38q3.27,2.82,3.27,8.31a11,11,0,0,1-4.14,8.91q-4.14,3.42-10.86,3.42A25.51,25.51,0,0,1,195,196.67l4.44-5.34q6.36,5.52,13.2,5.52a9,9,0,0,0,5.43-1.47,4.6,4.6,0,0,0,2-3.9,4.38,4.38,0,0,0-1.89-3.78,19.89,19.89,0,0,0-6.51-2.46,58.31,58.31,0,0,1-7-2,15.82,15.82,0,0,1-4.26-2.43q-3.72-2.82-3.72-8.64a10.52,10.52,0,0,1,4.23-9A17,17,0,0,1,211.37,160a25.11,25.11,0,0,1,8,1.32,20.87,20.87,0,0,1,6.84,3.72l-3.78,5.34a14.31,14.31,0,0,0-5-2.76A19.41,19.41,0,0,0,211.1,166.55Z"/><rect class="cls-2" height="48" width="48" x="224" y="368"/><rect class="cls-2" height="48" width="48" x="272" y="368"/><rect class="cls-2" height="48" width="48" x="224" y="320"/><rect class="cls-2" height="48" width="48" x="224" y="272"/><rect class="cls-2" height="48" width="48" x="272" y="320"/><rect class="cls-2" height="48" width="48" x="320" y="368"/></svg>