<?xml version="1.0" ?><svg data-name="Layer 1" id="Layer_1" viewBox="0 0 512 512" xmlns="http://www.w3.org/2000/svg"><defs><style>.cls-1{fill:none;stroke:#000;stroke-linejoin:round;stroke-width:10px;}</style></defs><title/><path class="cls-1" d="M464,144V448H144V232H307.2a9.83,9.83,0,0,0,9.8-9.8V141.8a9.83,9.83,0,0,0-9.8-9.8H144V64H368v64a16,16,0,0,0,16,16Z"/><line class="cls-1" x1="368" x2="464" y1="64" y2="144"/><rect class="cls-1" height="100" rx="9.8" ry="9.8" width="280" x="37" y="132"/><path d="M117.3,167.28V178.8h18.6v6.54H117.3v17.28h-7.08V160.68h28l-.06,6.6Z"/><path d="M146.46,202.62V160.68h7.08V195.9h19.14v6.72Z"/><path d="M196,202.62H188l-16.86-41.94h7.92L192,192l12.9-31.32h7.92Z"/><path class="cls-1" d="M352,283.81c2.43.2,4.48-4.27,4.48-4.27,0-7.18,0-14.37.09-21.55,0-2.2-1.21-2-2.6-2a58.62,58.62,0,0,0-34.63,10.68c-14.78,10.35-22.88,25.41-29.58,41.62-6.57,15.9-11.54,32.5-20.44,47.43-6.4,10.75-15.26,17.35-28,17.79-2.86.1-3.22.9-2.6,5.62a70.73,70.73,0,0,1,0,18.55c-.67,5-.24,5.94,2.79,5.82,20.58-.88,37-9.69,49.34-26,7-9.24,11.18-20,15.85-30.46.44-1,.29-2.71,2.19-2.49,1.23-.08,2.45-.22,3.68-.23q14.53-.12,29.07-.2c0-8.87-.08-17.74.09-26.6,0-2.51-.81-3-3.09-2.92-6.21.15-12.43.05-19,.05a38.47,38.47,0,0,1,4.84-9.59S339.26,282.74,352,283.81Z"/></svg>