<?xml version="1.0" ?><svg data-name="Layer 1" id="Layer_1" viewBox="0 0 512 512" xmlns="http://www.w3.org/2000/svg"><defs><style>.cls-1{fill:none;stroke:#000;stroke-linejoin:round;stroke-width:10px;}</style></defs><title/><path class="cls-1" d="M465,144V448H145V232H308.2a9.83,9.83,0,0,0,9.8-9.8V141.8a9.83,9.83,0,0,0-9.8-9.8H145V64H369v64a16,16,0,0,0,16,16Z"/><line class="cls-1" x1="369" x2="465" y1="64" y2="144"/><rect class="cls-1" height="100" rx="9.8" ry="9.8" width="280" x="38" y="132"/><path d="M140.32,163.66q4.38,3.66,4.38,11.28t-4.47,11.16q-4.47,3.54-13.71,3.54h-7.44v12.3H112V160h14.4Q135.94,160,140.32,163.66Zm-5,17.31q2.13-2.25,2.13-6.6t-2.7-6.15q-2.7-1.8-8.46-1.8h-7.2v16.8h8.22Q133.18,183.22,135.31,181Z"/><path d="M184.78,165.49q6.06,5.49,6.06,15.27T185,196.24q-5.88,5.7-18,5.7H153V160h14.4Q178.72,160,184.78,165.49Zm-1.08,15.45q0-14.4-16.5-14.4h-7.08v28.74H168q7.62,0,11.67-3.63T183.7,180.94Z"/><path d="M207,166.6v11.52h18.6v6.54H207v17.28H200V160h28l-.06,6.6Z"/><path d="M313.2,257.44c3.89,2.28,5.28,6,5.65,10.18a13.38,13.38,0,0,1-.64,6,58.73,58.73,0,0,0-3.37-9,30.44,30.44,0,0,0-2.66-4.74c-.62-.86-1.3-1.81-2.52-1.66s-1.64,1.25-2,2.24a23.52,23.52,0,0,0-1.27,7.76,102.59,102.59,0,0,0,4,30.84,4.5,4.5,0,0,0,.24.51c.85-2.57,1.69-5,2.43-7.39.93-3,1.79-6.09,2.66-9.13.11-.39.15-.76.72-.7s.41.52.41.82a97.7,97.7,0,0,1-1.69,19.23c-.38,2.14-.87,4.26-1.31,6.39a1.65,1.65,0,0,0,.05,1c5.23,13.52,12.55,25.68,23.29,35.59a70.48,70.48,0,0,0,9.92,7.62,1.73,1.73,0,0,0,1.26.3A211.62,211.62,0,0,1,378,351a45,45,0,0,1,12.92,1.62,12.9,12.9,0,0,1,4.58,2.33c2.7,2.25,2.72,5.35,1.27,8.13-.21.39-.4.37-.65.06s-.47-.48-.67-.74c-2-2.81-4.94-3.93-8.25-4.33a104.06,104.06,0,0,0-16.78-.27c-4.08.16-8.16.44-12.24.66-.06.23.1.27.23.32a123.47,123.47,0,0,0,22.46,7.56,32.12,32.12,0,0,0,10.18.83,8.12,8.12,0,0,0,5.32-2.21,1.72,1.72,0,0,1,0,1c-.72,4-3.33,6-7.06,6.87a26.49,26.49,0,0,1-9.93.09c-10.37-1.52-19.84-5.58-29.07-10.33a18.86,18.86,0,0,1-2.78-1.53c-1.78-1.34-3.68-1.41-5.8-1.13a219.3,219.3,0,0,0-33.2,6.72,168.65,168.65,0,0,0-25.35,9.48,3,3,0,0,0-1.36,1.24,310.6,310.6,0,0,1-16.92,26.32,61.49,61.49,0,0,1-5,6.11,16.55,16.55,0,0,1-10.08,5.46,12.64,12.64,0,0,1-8.36-1.73,5.94,5.94,0,0,1-2.81-7.55,25.52,25.52,0,0,1,4.08-7.13,52.75,52.75,0,0,1,23-18.44c.32-.13.61-.41,1-.3h0c-.17.44-.58.68-.9,1a136.8,136.8,0,0,0-15.55,17.37,48.91,48.91,0,0,0-4.86,8,11.33,11.33,0,0,0-1,2.82c-.1.57-.19,1.19.37,1.58s1.06,0,1.51-.27a30.24,30.24,0,0,0,3.87-3.14A112.37,112.37,0,0,0,274.4,376c6-11.64,12.38-23,18.19-34.77,4.61-9.31,9-18.73,12.92-28.35a2,2,0,0,0,.1-1.47,150.6,150.6,0,0,1-6.51-30.16,75.68,75.68,0,0,1-.43-15,16,16,0,0,1,1.6-6,8.78,8.78,0,0,1,2.44-2.75,9.38,9.38,0,0,1,5.94-1.34A17.26,17.26,0,0,1,313.2,257.44ZM286.35,369.89c2.59-1.16,5.13-2.42,7.77-3.46,12.61-5,25.71-8.19,39-10.73l4.47-.83c-12.05-8.54-21.68-18.88-27.72-32.46-1.06,2.91-2.09,5.65-3.25,8.34-3.9,9-8.64,17.56-13.26,26.19-2.31,4.31-4.72,8.57-7.09,12.86-.07.07-.12.14,0,.21Z"/></svg>