<?xml version="1.0" ?><svg id="Layer_1" style="enable-background:new 0 0 512 512;" version="1.1" viewBox="0 0 512 512" xml:space="preserve" xmlns="http://www.w3.org/2000/svg" xmlns:xlink="http://www.w3.org/1999/xlink"><style type="text/css">
	.st0{fill:#BFBFBF;}
	.st1{fill:#FFFFFF;}
	.st2{fill:#29353F;}
	.st3{fill:#475563;}
	.st4{fill:#141D23;}
	.st5{fill:#090E11;}
	.st6{fill:#24323D;}
</style><g id="XMLID_112_"><g id="XMLID_113_"><path class="st0" d="M132.9,506.2c-25.7,0-46.7-20.4-46.7-45.4v-38.2L66,407.3V274.9h20.2V77.4    c0-25,20.9-45.4,46.7-45.4h56.9V21.7h124.7L325.2,32h82.6c25.7,0,46.7,20.4,46.7,45.4v80.4l7.9,7.6v121.4h-7.9v173.9    c0,25-20.9,45.4-46.7,45.4H132.9z" id="XMLID_702_"/><path class="st1" d="M116.6,490.3c-25.7,0-46.7-20.4-46.7-45.4v-38.2l-20.2-15.2V259h20.2V61.5    c0-25,20.9-45.4,46.7-45.4h56.9V5.8h124.7l10.6,10.3h82.6c25.7,0,46.7,20.4,46.7,45.4V142l7.9,7.6V271h-7.9v173.9    c0,25-20.9,45.4-46.7,45.4H116.6z" id="XMLID_701_"/><g id="XMLID_114_"><g id="XMLID_115_"><path class="st2" d="M389.2,474.9H118.8c-18.3,0-33.1-14.8-33.1-33.1V64.6c0-18.3,14.8-33.1,33.1-33.1h270.4      c18.3,0,33.1,14.8,33.1,33.1v377.2C422.3,460.1,407.5,474.9,389.2,474.9z" id="XMLID_700_"/><path class="st3" d="M98.8,437.1V69.4c0-13.9,11.2-25.1,25.1-25.1h260.1c13.9,0,25.1,11.2,25.1,25.1v367.7      c0,13.9-11.2,25.1-25.1,25.1H123.9C110.1,462.2,98.8,450.9,98.8,437.1z" id="XMLID_699_"/></g><polygon class="st4" id="XMLID_698_" points="430.1,255.6 430.1,156 291.6,21.2 189.3,21.2    "/><polygon class="st5" id="XMLID_697_" points="189.3,21.2 189.3,31.5 199.9,31.5    "/><polygon class="st5" id="XMLID_696_" points="422.3,248 422.3,255.6 430.1,255.6    "/><path class="st6" d="M277.4,383.9H65.6V274.5h211.9c29.8,0,54,24.2,54,54v1.4     C331.4,359.7,307.3,383.9,277.4,383.9z" id="XMLID_695_"/><polygon class="st5" id="XMLID_694_" points="65.6,383.9 85.7,399.1 85.7,383.9    "/></g></g><g id="XMLID_2835_"><g id="XMLID_99_"><path class="st1" d="M123.3,349v-39.7h13.5c5.2,0,9.4,1.6,12.6,4.7c3.2,3.1,4.9,7.2,4.9,12.1v6     c0,5-1.6,9-4.9,12.1c-3.2,3.1-7.4,4.7-12.6,4.7H123.3z M130.2,314.6v29.1h6.7c3.3,0,5.9-1.1,7.8-3.2c1.9-2.2,2.9-4.9,2.9-8.3     v-6.1c0-3.3-1-6.1-2.9-8.2c-1.9-2.2-4.5-3.2-7.8-3.2H130.2z" id="XMLID_107_"/><path class="st1" d="M195.5,332.7c0,4.9-1.6,8.9-4.7,12.1c-3.1,3.2-7.2,4.8-12.2,4.8c-4.9,0-8.8-1.6-11.9-4.8     c-3.1-3.2-4.6-7.2-4.6-12.1v-7.1c0-4.8,1.5-8.8,4.6-12c3.1-3.2,7-4.8,11.9-4.8c5,0,9,1.6,12.2,4.8c3.1,3.2,4.7,7.2,4.7,12V332.7z      M188.7,325.5c0-3.3-0.9-6-2.7-8.2c-1.8-2.1-4.3-3.2-7.4-3.2c-3,0-5.4,1.1-7.1,3.2c-1.7,2.1-2.6,4.8-2.6,8.2v7.2     c0,3.3,0.9,6.1,2.6,8.2c1.7,2.1,4.1,3.2,7.1,3.2c3.1,0,5.6-1.1,7.4-3.2c1.8-2.1,2.7-4.9,2.7-8.2V325.5z" id="XMLID_104_"/><path class="st1" d="M234.3,336l0.1,0.2c0.1,4-1.3,7.2-4,9.7c-2.7,2.5-6.5,3.7-11.1,3.7c-4.7,0-8.6-1.6-11.5-4.7     c-3-3.1-4.4-7.1-4.4-12v-7.6c0-4.8,1.5-8.8,4.4-12s6.7-4.7,11.4-4.7c4.8,0,8.6,1.2,11.3,3.6c2.8,2.4,4.1,5.6,4,9.8l-0.1,0.2h-6.6     c0-2.7-0.7-4.7-2.2-6.1c-1.5-1.4-3.6-2.1-6.5-2.1c-2.8,0-5,1.1-6.6,3.2c-1.6,2.1-2.4,4.8-2.4,8.1v7.6c0,3.3,0.8,6,2.5,8.1     c1.6,2.1,3.9,3.2,6.7,3.2c2.8,0,4.9-0.7,6.3-2.1c1.4-1.4,2.2-3.5,2.2-6.1H234.3z" id="XMLID_102_"/><path class="st1" d="M256.5,324l8.6-14.7h8.1L260.6,329l13,20h-8.2l-8.8-14.9l-8.8,14.9h-8.1l12.8-20L240,309.3     h8L256.5,324z" id="XMLID_100_"/></g></g></g></svg>