<?xml version="1.0" ?><svg id="Layer_1" style="enable-background:new 0 0 512 512;" version="1.1" viewBox="0 0 512 512" xml:space="preserve" xmlns="http://www.w3.org/2000/svg" xmlns:xlink="http://www.w3.org/1999/xlink"><style type="text/css">
	.st0{fill:#BFBFBF;}
	.st1{fill:#FFFFFF;}
	.st2{fill:#E0A41E;}
	.st3{fill:#FCE379;}
	.st4{fill:#F5BD2F;}
	.st5{fill:#CE8F11;}
</style><g id="XMLID_148_"><g id="XMLID_149_"><path class="st0" d="M132.9,506.2c-25.7,0-46.7-20.4-46.7-45.4v-38.2L66,407.3V274.9h20.2V77.4    c0-25,20.9-45.4,46.7-45.4h56.9V21.7h124.7L325.2,32h82.6c25.7,0,46.7,20.4,46.7,45.4v80.4l7.9,7.6v121.4h-7.9v173.9    c0,25-20.9,45.4-46.7,45.4H132.9z" id="XMLID_621_"/><path class="st1" d="M116.6,490.3c-25.7,0-46.7-20.4-46.7-45.4v-38.2l-20.2-15.2V259h20.2V61.5    c0-25,20.9-45.4,46.7-45.4h56.9V5.8h124.7l10.6,10.3h82.6c25.7,0,46.7,20.4,46.7,45.4V142l7.9,7.6V271h-7.9v173.9    c0,25-20.9,45.4-46.7,45.4H116.6z" id="XMLID_620_"/><g id="XMLID_150_"><g id="XMLID_151_"><path class="st2" d="M389.2,474.9H118.8c-18.3,0-33.1-14.8-33.1-33.1V64.6c0-18.3,14.8-33.1,33.1-33.1h270.4      c18.3,0,33.1,14.8,33.1,33.1v377.2C422.3,460.1,407.5,474.9,389.2,474.9z" id="XMLID_619_"/><path class="st3" d="M98.8,437.1V69.4c0-13.9,11.2-25.1,25.1-25.1h260.1c13.9,0,25.1,11.2,25.1,25.1v367.7      c0,13.9-11.2,25.1-25.1,25.1H123.9C110.1,462.2,98.8,450.9,98.8,437.1z" id="XMLID_618_"/></g><polygon class="st4" id="XMLID_617_" points="430.1,255.6 430.1,156 291.6,21.2 189.3,21.2    "/><polygon class="st5" id="XMLID_616_" points="189.3,21.2 189.3,31.5 199.9,31.5    "/><polygon class="st5" id="XMLID_615_" points="422.3,248 422.3,255.6 430.1,255.6    "/><path class="st4" d="M277.4,383.9H65.6V274.5h211.9c29.8,0,54,24.2,54,54v1.4     C331.4,359.7,307.3,383.9,277.4,383.9z" id="XMLID_614_"/><polygon class="st5" id="XMLID_613_" points="65.6,383.9 85.7,399.1 85.7,383.9    "/></g></g><g id="XMLID_2687_"><g id="XMLID_78_"><path class="st1" d="M154.2,302.7h9v37c0,5.1-1.6,9.1-4.8,12.1c-3.2,3-7.3,4.5-12.3,4.5c-5.4,0-9.6-1.3-12.7-4     c-3.1-2.7-4.6-6.6-4.5-11.7l0.1-0.2h8.8c0,3,0.7,5.2,2.2,6.7c1.5,1.4,3.5,2.2,6.2,2.2c2.4,0,4.3-0.9,5.8-2.6     c1.5-1.7,2.3-4.1,2.3-7V302.7z" id="XMLID_84_"/><path class="st1" d="M185.9,335.6v20.1h-9.1v-52.9h20.8c6,0,10.7,1.5,14.1,4.5c3.4,3,5.1,7,5.1,11.9     c0,5-1.7,8.9-5.1,11.9c-3.4,3-8.1,4.5-14.1,4.5H185.9z M185.9,328.5h11.8c3.4,0,5.9-0.9,7.6-2.6c1.7-1.7,2.5-4,2.5-6.7     s-0.8-4.9-2.5-6.7c-1.7-1.8-4.2-2.7-7.6-2.7h-11.8V328.5z" id="XMLID_81_"/><path class="st1" d="M268.1,348.5c-1.5,2.1-3.9,3.9-7.2,5.5c-3.3,1.6-7.5,2.4-12.7,2.4c-6.4,0-11.7-2-15.8-6.1     c-4.1-4-6.2-9.2-6.2-15.6v-11c0-6.4,2-11.6,6-15.6c4-4,9.2-6.1,15.5-6.1c6.3,0,11.3,1.6,14.8,4.7c3.5,3.1,5.3,7.1,5.2,12.1     l-0.1,0.2h-8.6c0-3-1-5.4-2.9-7.2c-1.9-1.8-4.6-2.7-8.2-2.7c-3.8,0-6.8,1.4-9.1,4.1c-2.3,2.7-3.5,6.2-3.5,10.4v11.1     c0,4.3,1.2,7.8,3.6,10.5c2.4,2.8,5.5,4.1,9.4,4.1c2.9,0,5.2-0.3,6.9-1c1.7-0.6,3-1.4,3.8-2.3v-10.9h-11.4v-6.6h20.5V348.5z" id="XMLID_79_"/></g></g></g></svg>