<?xml version="1.0" ?><svg id="Layer_1" style="enable-background:new 0 0 512 512;" version="1.1" viewBox="0 0 512 512" xml:space="preserve" xmlns="http://www.w3.org/2000/svg" xmlns:xlink="http://www.w3.org/1999/xlink"><style type="text/css">
	.st0{fill:#BFBFBF;}
	.st1{fill:#FFFFFF;}
	.st2{fill:#084272;}
	.st3{fill:#3DA7E3;}
	.st4{fill:#2B66A1;}
	.st5{fill:#24323D;}
</style><g id="XMLID_96_"><g id="XMLID_97_"><path class="st0" d="M132.9,506.2c-25.7,0-46.7-20.4-46.7-45.4v-38.2L66,407.3V274.9h20.2V77.4    c0-25,20.9-45.4,46.7-45.4h56.9V21.7h124.7L325.2,32h82.6c25.7,0,46.7,20.4,46.7,45.4v80.4l7.9,7.6v121.4h-7.9v173.9    c0,25-20.9,45.4-46.7,45.4H132.9z" id="XMLID_738_"/><path class="st1" d="M116.6,490.3c-25.7,0-46.7-20.4-46.7-45.4v-38.2l-20.2-15.2V259h20.2V61.5    c0-25,20.9-45.4,46.7-45.4h56.9V5.8h124.7l10.6,10.3h82.6c25.7,0,46.7,20.4,46.7,45.4V142l7.9,7.6V271h-7.9v173.9    c0,25-20.9,45.4-46.7,45.4H116.6z" id="XMLID_737_"/><g id="XMLID_98_"><g id="XMLID_99_"><path class="st2" d="M389.2,474.9H118.8c-18.3,0-33.1-14.8-33.1-33.1V64.6c0-18.3,14.8-33.1,33.1-33.1h270.4      c18.3,0,33.1,14.8,33.1,33.1v377.2C422.3,460.1,407.5,474.9,389.2,474.9z" id="XMLID_736_"/><path class="st3" d="M98.8,437.1V69.4c0-13.9,11.2-25.1,25.1-25.1h260.1c13.9,0,25.1,11.2,25.1,25.1v367.7      c0,13.9-11.2,25.1-25.1,25.1H123.9C110.1,462.2,98.8,450.9,98.8,437.1z" id="XMLID_735_"/></g><polygon class="st4" id="XMLID_734_" points="430.1,255.6 430.1,156 291.6,21.2 189.3,21.2    "/><polygon class="st5" id="XMLID_733_" points="189.3,21.2 189.3,31.5 199.9,31.5    "/><polygon class="st5" id="XMLID_732_" points="422.3,248 422.3,255.6 430.1,255.6    "/><path class="st4" d="M277.4,383.9H65.6V274.5h211.9c29.8,0,54,24.2,54,54v1.4     C331.4,359.7,307.3,383.9,277.4,383.9z" id="XMLID_731_"/><polygon class="st5" id="XMLID_730_" points="65.6,383.9 85.7,399.1 85.7,383.9    "/></g></g><g id="XMLID_2915_"><g id="XMLID_78_"><path class="st1" d="M151,349.1h28.4v7.3H140v-5.7l27.3-41.5h-27.1v-7.3h38.1v5.5L151,349.1z" id="XMLID_84_"/><path class="st1" d="M200.9,356.4h-9.3v-54.4h9.3V356.4z" id="XMLID_82_"/><path class="st1" d="M225.1,335.7v20.6h-9.3v-54.4h21.4c6.2,0,11,1.6,14.5,4.7c3.5,3.1,5.2,7.2,5.2,12.2     c0,5.1-1.7,9.2-5.2,12.3c-3.5,3.1-8.3,4.6-14.5,4.6H225.1z M225.1,328.5h12.1c3.5,0,6.1-0.9,7.8-2.7c1.7-1.8,2.6-4.1,2.6-6.8     s-0.9-5.1-2.6-6.9c-1.7-1.8-4.3-2.8-7.8-2.8h-12.1V328.5z" id="XMLID_79_"/></g></g></g></svg>