<?xml version="1.0" ?><svg enable-background="new 0 0 64 64" viewBox="0 0 64 64" xmlns="http://www.w3.org/2000/svg"><path d="M62.562 26.282c-.414-4.997-3.315-4.904-5.202-5.228-1.888-.324-6.814.185-7.32 0-.506-.185-.506-9.67-.783-12.724s-3.822-5.598-9.162-6.986S24.073-.276 18.042.28C12.01.834 7.372 3.047 4.828 5.507c-1.197 1.156-3.59 4.44-3.775 6.662-.184 2.22.138 14.065.598 22.717.46 8.652 1.428 15.592 2.67 19.85S6.67 59.5 10.4 61.398s12.66 2.544 18.784 2.59c6.123.046 15.838.093 23.296-3.748 7.458-3.84 9.576-10.318 10.175-12.862.6-2.545.323-16.1-.09-21.098zm-.92 11.012c-.277-.37-2.948-4.997-3.592-5.413-.644-.415-.783.556-.414.973.368.416 3.82 5.136 3.913 5.598.09.464.045 3.84-.14 3.702-.183-.14-4.42-7.033-4.88-7.264-.46-.23-1.15.093-.643.833.506.74 5.156 6.802 5.294 7.496.14.694-.367 4.257-.55 3.794-.185-.463-4.513-7.542-4.973-7.773-.46-.23-.875-.046-.783.278.092.324 5.295 8.097 5.295 8.374s-.83 2.36-1.198 1.896c-.368-.463-3.637-6.71-4.19-6.755-.55-.045-1.058.094-.736.834.322.74 4.282 6.43 4.282 6.616 0 .185-.875 1.99-1.335 1.897-.46-.093-3.545-6.107-3.96-6.2-.414-.093-1.06.14-.875.6.184.464 4.236 6.617 4.19 6.756-.047.14-1.842 1.99-2.12 1.758s-3.544-7.078-3.912-7.032c-.368.046-.967.23-.737.6.23.37 3.866 6.617 3.866 6.94 0 .325-1.703 1.297-1.98 1.11-.276-.184-3.59-6.893-3.913-7.032-.322-.14-.967.185-.783.555.184.37 4.005 6.895 3.867 6.94-.138.047-1.335.74-1.704.65-.368-.094-3.545-6.525-3.96-6.617s-.828.37-.46 1.157c.37.787 3.592 5.645 3.362 5.876-.23.23-1.934.51-2.21.416-.276-.093-3.315-7.31-3.867-7.403-.552-.094-.83.554-.507 1.433.323.88 3.823 6.015 3.546 6.246-.276.23-1.934.462-2.21.462s-4.236-6.848-4.604-6.848c-.368 0-.967.416-.737.88.23.462 4.19 6.106 3.822 6.2-.368.092-2.394.23-2.624.045-.23-.186-2.21-5.137-3.13-5.507-.922-.37-1.152-.185-.968.463.184.648 3.27 5.275 2.9 5.275-.367 0-1.564.14-1.887-.045-.322-.185-2.81-5.783-3.223-6.015-.414-.23-1.013.185-.83.787.185.602 2.856 5.32 2.856 5.32s-1.288.094-1.518-.045c-.23-.14-2.67-5.228-3.04-5.367-.367-.14-1.058.23-1.012.51.046.277 3.085 4.765 2.9 4.903-.183.14-1.84.093-2.163-.093-.322-.185-2.302-5.043-2.9-5.182-.6-.14-1.198.416-.968.648.23.232 2.807 4.49 2.577 4.535-.23.046-1.75-.093-1.888-.14-.14-.045-2.027-4.672-2.487-4.672-.46 0-.92.416-.783.648.138.232 2.026 3.75 1.796 3.84-.23.094-1.657.186-1.98-.23-.322-.416-1.427-3.655-1.98-3.748-.552-.093-.967.185-.92.51.045.323 1.933 3.238 1.748 3.284-.184.046-2.072-.093-2.302-.324-.23-.23-1.29-3.146-1.842-3.285-.552-.14-1.06.14-.967.37.092.23 1.657 2.637 1.335 2.683-.322.046-5.34-.833-7.366-2.452-2.026-1.62-4.834-5.32-5.893-9.022-1.06-3.7-2.073-16.24-2.073-22.81s0-12.63.552-13.973S5.24 7.263 6.25 6.2C7.56 4.83 11.688 3.1 16.2 2.13s12.108-.555 18.094 0 10.91 1.85 12.293 4.488c1.38 2.637 1.29 3.192 1.335 4.858.046 1.666.138 2.776.138 2.776s-1.29-2.498-1.84-2.036c-.553.463-.508.88-.185 1.25.322.37 2.21 3.145 2.164 3.562-.047.416-.507 5.136.736 5.367 1.243.23 6.307-.185 8.24.046 1.935.232 3.5.926 3.823 3.656.32 2.73.413 4.58.23 4.488s-1.843-2.22-2.073-2.082-.552.37-.23.602c.322.23 2.256 2.267 2.348 2.59.09.325.643 5.97.366 5.6zM14.91 24.107c1.104.463 3.176.185 10.128-.694 6.952-.88 11.372-.787 12.155-.972.783-.184 1.105-.554 1.013-1.85-.092-1.296-.6-4.164-1.98-6.107-1.38-1.943-6.998-1.203-10.68-.694-3.684.508-10.343 1.768-10.728 2.45-2.165 3.842-1.014 7.405.09 7.867zm2.715-4.765c.237-.397 5.71-1.804 10.267-2.267 4.558-.463 7.643-.37 8.057 0 .415.37.645 1.666.645 2.36s.414 1.342.414 1.666c0 .325-.093.094-1.336.186-1.243.093-5.11-.23-9.76.51-4.65.74-5.433.832-6.86.878-1.427.046-1.427.23-1.657-.046-.23-.28-.046-2.824.23-3.286zm32.366 18.646c-.23-.046-.644-.648-.83-1.203-.183-.555-2.807-4.673-3.084-5.09s-1.29-.832-1.382-.184c-.092.65 3.085 4.58 3.223 4.86.14.277-1.15 0-1.887-.047-.737-.046-3.315-5.043-4.052-5.737-.735-.694-1.38-.185-1.058.463.322.647 4.236 5.042 4.236 5.274 0 .23-2.072.324-2.532.185-.46-.14-3.637-5.6-4.19-5.877-.552-.278-1.335.23-.92.694.413.463 4.05 4.95 4.373 5.32.32.37-2.533.047-3.408-.138-.875-.186-3.73-5.877-4.374-6.525-.644-.648-1.703.046-1.427.37.277.324 4.605 5.876 4.835 6.06.23.186-2.164.325-2.855.186-.69-.138-3.867-6.06-4.19-6.477-.32-.416-1.15.093-.966.555.184.463 4.097 5.552 4.42 5.83.322.278-2.762.093-3.04.093-.275 0-2.946-5.274-3.544-5.597-.598-.324-1.013.278-1.06.648-.045.37 3.638 4.813 3.822 5.137.184.324-2.348.278-2.762.185-.414-.093-2.394-3.886-2.716-4.35-.322-.462-1.335.14-1.38.28-.047.138 2.946 3.978 3.222 4.163.276.185-1.888.278-2.394.14-.506-.14-1.98-3.795-2.44-4.21-.46-.417-1.06-.094-1.15.184s2.485 3.885 2.715 4.163c.23.278-1.473.14-2.072.093-.598-.046-1.888-2.59-2.21-3.192-.322-.602-.967-.37-1.197-.23s1.61 3.1 1.842 3.33c.23.23-2.624.185-2.9.14-.277-.047-1.52-2.638-1.566-2.777-.046-.14-.506-.23-.737.185-.23.416 1.612 2.776 1.612 2.776s-1.89.278-2.44.833c-.553.556-.657 2.313-.692 4.86-.046 3.377 2.348 3.932 5.617 4.163 3.27.23 22.606.14 25.69 0 3.085-.14 3.775-.185 5.617-1.897s1.473-4.488 1.75-5.737-1.29-1.856-1.52-1.902zm-1.52 6.708c-1.104 1.388-2.3 1.573-6.26 1.62-3.96.045-12.385-.047-17.587 0-5.202.045-6.17 0-6.354-.186s0-2.684.276-3.192c.27-.496 5.34-2.036 8.655-2.22s8.978 0 11.832-.37c2.854-.37 5.755-.695 8.01-.65 2.257.047 2.855.232 2.902.65.046.416-.368 2.96-1.473 4.348zM5.06 27.346c-.414.23-.008 9.872.276 9.994.322.14.875-.185.967-.51.093-.323.23-8.327 0-9.16-.23-.833-.827-.555-1.242-.324zM13.39 7.914c0-.324.277-.972-1.012-.648-1.29.324-4.19 1.758-5.663 4.303-1.473 2.544-1.305 5.307-.875 5.782.46.51.875.555 1.243.23.368-.323-.046-2.73 1.197-5.366s3.545-3.146 4.282-3.33c.737-.186.83-.65.83-.972zm29.1-.047c1.748.74 1.933 3.285 2.393 3.84.46.555 1.52-.602 1.335-1.25-.184-.647-.737-2.035-2.348-3.562-1.612-1.527-4.795-1.954-5.295-1.62-.552.37-.506.973-.322 1.11.184.14 2.486.742 4.236 1.482zm1.518 6.478c-.552.833 2.578 5.46 2.9 6.015.323.555.876-.093.737-.463-.138-.37-2.394-4.904-2.578-5.182-.184-.278-.817-.735-1.06-.37zm-1.013 3.146c-1.427.417 1.565 3.887 2.164 4.49.598.6.736.184.782-.14.046-.324-2.485-4.484-2.947-4.35z"/></svg>