<?xml version="1.0" ?><svg height="64px" id="Layer_1" style="enable-background:new 0 0 64 64;" version="1.1" viewBox="0 0 64 64" width="64px" xml:space="preserve" xmlns="http://www.w3.org/2000/svg" xmlns:xlink="http://www.w3.org/1999/xlink"><path d="M61.94,9.643c-0.256-8.013-4.495-9.546-7.716-9.63S20.57,0.352,16.077,0.266s-7.546,0.29-9.75,1.96  c-4.49,3.41-3.135,13.552-3.135,19.348S3.785,57.116,5.65,60.866s4.662,3.24,18.14,2.898s28.908-0.256,32.045-0.767  c3.137-0.51,4.917-4.347,5.34-7.67c0.425-3.325,1.018-37.673,0.764-45.685L61.94,9.643z M59.396,39.703  c0.057,3.35-0.113,7.84-0.113,7.84s-0.848-0.682-1.074-0.568c-0.227,0.114-0.792,1.08-0.51,1.307  c0.283,0.227,1.582,1.08,1.582,1.307s-0.057,2.5-0.226,2.442c-0.17-0.057-1.978-1.648-2.148-1.705  c-0.17-0.057-1.074,1.08-0.848,1.307c0.226,0.227,2.543,1.99,2.543,2.273c0,0.284-0.848,2.443-1.187,2.273  c-0.34-0.17-2.6-2.84-2.77-2.898c-0.17-0.057-1.186,0.34-0.96,0.852c0.226,0.51,2.713,3.012,2.6,3.353  c-0.113,0.34-1.13,1.42-1.47,1.25c-0.338-0.17-2.88-3.75-3.22-3.864s-1.413,0.284-1.13,0.682c0.283,0.398,3.334,3.693,3.052,3.693  h-2.77c0,0-2.373-3.977-2.6-4.09c-0.225-0.115-1.638,0.226-1.468,0.454c0.17,0.227,2.204,3.864,2.204,3.864h-2.09  c0,0-1.98-3.693-2.262-3.864c-0.283-0.17-1.695,0-1.582,0.284s2.374,3.75,2.035,3.75c-0.34,0-20.063,0.284-26.166,0.227  c-6.105-0.057-10.06-1.59-11.417-6.364S5.538,38.62,5.368,30.495S4.068,7.71,6.668,4.13c1.58-2.175,5.143-2.215,8.647-2.272  s22.38-0.114,29.613-0.17c7.234-0.057,11.416-0.227,13.733,2.84c2.318,3.07,0.68,31.82,0.736,35.174L59.396,39.703z M15.54,4.87  c-0.338-0.284-4.472-0.214-5.763,0.51c-1.922,1.08-1.64,7.786-1.356,8.127c0.284,0.34,1.583,0.17,1.922,0.114  c0.34-0.056,0.17-0.226,0.113-1.93c-0.057-1.706,0-3.808,0.904-4.547c0.903-0.74,4.068-0.284,4.238-0.284s0.282-1.706-0.057-1.99  H15.54z M38.033,27.315c0,0,2.43-3.125,2.148-8.978c-0.282-5.852-3.955-8.978-8.985-8.694c-5.03,0.284-14.534,1.694-15.146,2.273  c-0.962,0.91-0.85,3.637-0.85,6.08s0.34,29.775,0.623,31.252c0.283,1.477,1.243,1.932,3.956,2.046s12.997,0.227,18.253-1.477  s5.82-4.205,5.595-12.614c-0.226-8.41-5.595-9.888-5.595-9.888L38.033,27.315z M39.729,47.315  c-3.166,2.33-13.338,2.388-16.164,2.444S20.4,49.531,20.4,49.531s-1.073-34.093-0.677-34.718c0.323-0.51,8.703-1.932,12.49-1.648  c3.786,0.284,6.217,4.83,6.16,7.216s-2.487,6.705-2.656,7.103c-0.17,0.398-0.283,1.477,0.79,1.818  c1.075,0.34,4.07,2.103,4.748,6.137S42.893,44.985,39.729,47.315z M49.561,42.145c-5.934,3.636-2.6,7.557,0.17,8.58  c2.77,1.023,6.104-0.795,5.877-4.148s-3.422-6.04-6.048-4.432L49.561,42.145z M53.856,47.77c-0.34,1.818-2.26,2.33-3.786,1.193  c-1.525-1.137-1.3-3.068,0.453-4.09C52.099,43.953,54.196,45.953,53.856,47.77L53.856,47.77z M31.872,27.37  c1.81-1.874,1.3-5.738-0.226-8.067c-1.526-2.33-7.07-1.057-7.347-0.568c-0.226,0.398,0.34,9.546,0.452,10.057  c0.113,0.51,5.313,0.454,7.12-1.42L31.872,27.37z M26.334,19.587c0.126-0.127,4.012-0.91,4.747,2.16s-4.07,4.772-4.578,4.318  c-0.508-0.455-0.395-6.25-0.17-6.478H26.334z M34.134,35.667c-1.47-1.25-7.51-0.43-8.704,0.17  c-0.79,0.398-0.338,10.398,0.227,10.853c0.565,0.454,6.782,1.023,9.494-1.705C37.865,42.259,35.604,36.917,34.134,35.667  L34.134,35.667z M33.737,42.543c-0.96,1.478-1.978,1.42-3.447,1.42c-1.468,0-2.825-0.056-3.05-0.397  c-0.227-0.34-0.397-5.91,0.112-6.25c0.404-0.27,4.52-0.795,5.37-0.284C33.569,37.542,34.699,41.065,33.737,42.543L33.737,42.543z"/></svg>