<?xml version="1.0" ?><svg enable-background="new 0 0 64 64" viewBox="0 0 64 64" xmlns="http://www.w3.org/2000/svg"><path d="M4.224 11.358c.57.066 4.518-.232 19.51-.565s33.832-.166 34.368-.166c.535 0 2.844-2.557 3.213-3.055s.1-.897-.335-1.23-1.272-.198-1.506-.23c-.234-.034-2.41-3.986-2.61-4.385s1.405-.2 1.573-.2c.167 0 2.51 2.658 2.51 2.658s.268.963.335 1.56.77.964 1.104.732c.335-.232.134-2.823 0-4.384S61.348 0 59.808 0 51.24.432 48.53.53s-9.67.3-17 .233-9.27.133-11.912.2-4.518-.067-9.604-.1C4.927.83 2.116.896 1.28 1.593s.446 7.53.702 7.904c.636.93 1.673 1.794 2.242 1.86zm56.622-9.53c.234.364.234 1.593-.1 1.36-.335-.23-.77-1.46-.77-1.66 0-.268.636-.067.87.3zM3.32 2.423c.403-.332 3.883-.365 7.63-.332s5.69.1 11.212.034c5.522-.066 17.268-.066 21.384-.1 4.116-.033 10.508-.432 11.043-.432.533 0 .902.033.902.033s3.413 4.384 3.08 4.45c-.336.066-1.708.232-1.975.033-.268-.2-2.142-3.62-2.61-3.62-.47 0-1.17.265-.77.83.402.564 2.476 2.822 2.276 2.988s-.97.266-1.17.1-2.31-3.487-2.61-3.52c-.302-.033-.57.232-.336.63s2.41 3.09 2.075 3.056c-.335-.033-1.238.1-1.472-.1s-2.475-3.155-2.91-3.188c-.435-.033-1.238.1-.837.664.402.565 2.778 2.524 2.41 2.59-.37.067-1.775.233-2.042.067-.266-.166-1.94-2.657-2.34-2.69-.402-.033-1.104.332-.837.897.268.565 2.008 1.76 1.606 1.926-.403.166-11.21.53-15.16.697s-14.125.036-19.21.268c-5.088.233-8.67.664-9.238.432-.265-.11-.5-5.38-.1-5.713zm2.444 3.953c.134-.2.134-1.328.134-1.627 0-.3 6.157-.1 6.626-.1s.87-1.263.2-1.53-6.893 0-7.595.2c-.706.2-.84 2.677-.405 3.02.168.135.904.235 1.038.036zM63.59 53.14c-.2-1.96-1.54-1.662-4.852-1.53-3.313.134-11.98.83-12.248.5-.268-.333 3.815-12.588 4.083-12.82.268-.233 3.045.032 3.547 0 .502-.034 3.38-3.39 3.715-4.02.335-.63.502-1.627.502-2.757 0-1.13-.468-9.598-.535-11.59s-.87-6.378-1.606-7.01c-.736-.63-5.053 0-7.195.267-2.14.266-8.264.764-15.96.697s-22.657.234-23.16.234c-.5 0-2.193.04-2.542.3-.268.2-.134 1.994-.067 3.52s.804 15.51 1.005 16.374.502 3.288 1.138 3.72 4.016.232 4.35.266c.335.032.736.53 1.974 2.79 1.238 2.257 4.216 10.162 4.384 10.627.168.465-.936.1-5.186.1s-11.344.066-12.348.166-.904 4.882-.67 6.343 1.172 1.727 1.942 2.092 3.346 1.594 4.116 2.16c.77.564 2.978.398 9.337.43 6.36.034 17.704-.63 24.63-.497s16.9.5 17.135.5.837-.365 1.94-1.56c1.105-1.197 2.678-2.79 2.912-3.256.233-.465-.135-4.085-.336-6.044zm-17.67-4.585c-.367 1.328-.735 2.59-.936 2.458-.2-.133-2.744-2.856-2.71-3.222.032-.363.267-1.957.534-1.692.268.266 2.276 2.225 2.41 2.126.133-.1.367-.93.233-1.096s-2.307-2.092-2.34-2.59c-.033-.5.268-1.76.4-1.662.136.1 2.58 3.09 2.746 2.99.167-.1.368-.698.234-1.03-.135-.333-2.444-2.625-2.544-2.99-.1-.365.033-1.86.335-1.793.133.03 3.114 2.856 3.315 3.188.2.335-1.305 3.988-1.673 5.316zm-5.99 3.288c-.2.033-10.473.598-10.84.465S23.5 40.95 23.432 39.82c-.01-.168 4.518-.398 9.537-.53s9.336-.266 9.57.3-2.41 12.22-2.61 12.253zm8.032-9.897c-.167.033-2.108-1.66-2.778-2.657-.67-.998-.636-2.194-.167-2.128.2.028 3.246 2.757 3.48 2.923.235.166-.368 1.827-.535 1.86zm3.782-6.61c-.167-.132-2.51-3.752-2.644-4.018-.063-.126 1.54-.2 1.64-.133.1.066 3.38 3.753 3.18 3.92-.202.166-2.01.365-2.176.232zm-19.878-5.412c-7.463.432-15.795.93-16.23.664-.435-.266-1.707-5.646-1.205-6.642.13-.254 10.777-.432 14.994-.4s17.803.2 18.405.167c.6-.033 1.47-.2 1.806.133.335.332.2 5.58-.067 5.58s-10.24.066-17.703.498zm23.124 5.048c-.167-.266-3.614-4.65-3.748-4.982-.134-.332 0-1.627.234-1.594.37.052 4.986 5.978 4.953 6.078-.036.1-1.274.764-1.44.498zm1.673-1.827c-.402-.4-5.254-6.377-5.32-6.61-.068-.23-.034-1.76.133-1.66.167.1 4.016 4.882 4.384 4.85.368-.034.268-.898.167-.997-.1-.1-4.484-5.38-4.618-5.712-.136-.332-.236-1.66.03-1.727.13-.034 5.12 5.51 5.188 5.876s.434 6.377.033 5.978zm-8.165 25.972c-.1-.266-.134-.63-.368-.764-.234-.133-4.25-4.484-4.618-4.384s-.636.73-.234 1.16c.402.432 4.116 4.02 4.116 4.02h-2.31s-.1-.864-.3-1.03c-.2-.167-2.577-2.425-2.878-2.525-.3-.1-.602.4-.57.764.034.364 2.812 2.89 2.812 2.89s-1.238.1-1.472 0-3.08-3.224-3.68-3.224c-.603 0-1.34.3-.77 1.13.568.83 2.81 1.992 2.475 2.09s-9.87-.165-19.307.034c-9.437.2-13.62.4-15.494.4s-2.076.166-2.277-.066c-.2-.232-.134-4.95 0-5.08.134-.134 11.344-.1 14.29-.3 2.944-.2 3.145-.266 3.647-.63.5-.366 1.036-.864.836-1.296-.2-.432-4.953-13.02-5.655-14.347s-1.002-1.86-1.37-1.924c-.37-.066-3.28.033-4.15.1-.87.066-1.037.166-1.24-.133s-.8-9.1-1.07-13.052-.4-6.31-.233-6.542c.123-.17 6.124.066 10.675 0s20.515-.2 25.166-.465c4.652-.266 7.998-.996 8.2-.73s2.51 2.623 2.51 2.722c0 .1-.27 1.328.3 1.627.57.3.904.4.904.4l.1 2.358s-4.953-6.21-5.12-6.01c-.167.198-.3 1.294-.134 1.427.167.133 5.053 5.712 5.12 6.01.067.3.402 2.193.234 1.994-.167-.2-5.153-6.642-5.287-6.576-.134.066-.268.764-.268.764s-1.07-.664-2.878-.664-13.99-.432-16.767-.332c-2.777.1-2.91.134-3.278.167-.368.032-2.108-.3-4.484-.233s-4.92-.1-7.43-.033c-2.51.066-3.445.1-3.646 1.03-.2.93.737 9.997 1.14 10.794s.6 1.03 1.973.996c1.372-.033 4.016.033 11.244-.332s16.967-.465 18.406-.432c1.44.033 1.774.166 1.94.365.168.2 2.912 3.487 2.912 3.786s-.067.3-.1.598c-.033.3-.435 1.76-.57 1.627s-3.78-5.48-4.115-5.48c-.336 0-.704.764-.47 1.196.235.433 4.25 4.617 4.25 5.016 0 .4-.233 1.495-.5 1.23-.27-.267-3.046-3.555-3.448-3.72-.402-.167-.402-.267-4.35.1-3.95.364-6.057.83-10.24.763-4.183-.067-8.366-1.097-9.236-.93-.87.165-1.306 1.16-.87 2.06.434.895 6.357 13.515 6.66 14.58.3 1.06.433 1.526.87 1.625s3.344-.3 6.892-.332 5.654.365 6.056-.2c.402-.564 1.004-3.387 1.238-3.254.234.132 2.476 2.39 2.41 2.556-.068.166-.27 1.03-.034 1.328s1.104.4 1.104.4 4.417 4.78 4.25 4.88-1.406.3-1.506.034zm2.71-.067c-.134-.166-4.083-5.048-4.016-5.18.076-.152.502-.134.77 0 .268.132 4.886 5.047 4.718 5.08-.167.034-1.338.266-1.472.1zm4.953-.133c-.333 0-1.705.2-2.006 0-.3-.2-4.25-4.683-4.25-4.915 0-.286 1.34-.432 2.008-.133s4.586 5.046 4.25 5.046zm1.274.034c-.268-.197-4.216-5.18-4.183-5.38.05-.3 1.473-.297 1.808-.064.335.232 4.116 5.214 3.95 5.38-.17.165-1.307.265-1.574.066zm5.186.267c-.202 0-2.277.133-2.51-.033s-3.65-5.447-3.615-5.712c.024-.19.67-.165.937 0 .268.167 3.447 4.518 3.95 4.55.5.034.568-.696.4-.896-.166-.2-3.01-3.985-2.843-4.052.165-.066 2.91-.2 3.077.133.166.332.802 6.01.6 6.01zm-50.565-4.44c-.357-.043-7.206.045-7.43.134-.222.09-.185 4.218 0 4.34.27.178.938.045 1.25-.043.312-.09.245-2.236.178-2.723-.067-.487 1.093-.288 1.896-.31.8-.022 4.304.09 4.46-.177.157-.267 0-1.175-.356-1.22zm-2.5-36.42c-.31.597.543 4.81.737 4.892.312.132.78-.067.892-.42.112-.356.045-3.83-.067-4.34-.11-.51-1.248-.73-1.56-.134z"/></svg>