<?xml version="1.0" ?><svg id="Layer_1" style="enable-background:new 0 0 62 62;" version="1.1" viewBox="0 0 62 62" xml:space="preserve" xmlns="http://www.w3.org/2000/svg" xmlns:xlink="http://www.w3.org/1999/xlink"><path d="M55.026,38.338c-1.336-0.445-3.507-0.613-5.623,2.115c-2.116,2.728-1.615,8.24-1.782,9.131  c-0.167,0.891-4.231,0.445-10.133-0.334c-5.901-0.78-10.912-0.501-11.803-0.78c-0.891-0.278-0.39-10.244-0.278-10.745  c0.111-0.501,3.173-0.668,5.345-0.612c2.171,0.056,1.782,1.002,2.227,1.392c0.445,0.39,3.062,2.561,4.955,2.394  c1.893-0.167,2.45-1.782,2.561-3.842c0.111-2.06,0.111-9.632,0.223-12.527c0.111-2.895-0.223-4.621-1.503-5.066  c-1.28-0.445-3.563-0.668-4.899,0.39c-1.336,1.058-1.002,4.008-1.002,4.844s-0.445,1.837-2.06,2.004  c-1.615,0.167-5.901-0.167-6.737-0.612c-0.835-0.445-0.779-11.246-0.501-11.636c0.278-0.39,21.49-1.002,21.657-0.891  c0.167,0.111,0.056,1.837,0.501,4.008c0.445,2.171,2.45,4.621,4.176,5.066c1.726,0.445,4.398-0.78,5.345-3.173  c0.947-2.394,0.779-12.972,0.39-16.646c-0.39-3.675-4.287-2.784-5.4-2.561c-1.113,0.223-2.672,1.113-4.343,1.67  c-1.67,0.557-4.677,1.058-13.083,1.447c-8.407,0.39-17.76-0.501-21.824-1.002C7.369,1.871,4.975,2.873,4.585,3.319  c-0.39,0.445,0.668,10.578,1.058,11.19c0.39,0.613,6.347,0.835,6.514,0.835c0,0,0.557,7.516,1.002,18.707  c0.445,11.19-0.724,13.139-1.615,14.308c-0.891,1.169-4.677,1.225-6.069,1.614s-1.169,4.231-0.891,5.79  c0.278,1.559,0.947,3.73,4.064,5.345c3.118,1.615,4.788,0.724,16.981-0.223c12.193-0.947,19.542,0.557,21.602,0.612  c2.06,0.056,3.396,0.501,5.623-1.002c2.227-1.503,1.949-2.338,2.116-7.126c0.167-4.788,2.06-9.465,2.561-11.246  C58.033,40.342,56.362,38.783,55.026,38.338z M53.746,44.907c-0.278,1.448-1.113,7.739-1.113,7.739s-0.779-0.724-1.169-0.445  c-0.39,0.278-0.947,0.724-0.724,1.002c0.223,0.278,1.058,1.336,1.169,1.782c0.111,0.445-0.056,2.338-0.223,2.171  s-1.67-2.672-1.949-2.672s-1.28,0.278-1.113,0.612c0.167,0.334,2.561,3.062,1.893,3.285c-0.668,0.223-2.06-0.167-2.06-0.167  s-2.004-3.173-2.283-3.285c-0.278-0.111-1.113,0.223-1.058,0.445c0.056,0.223,2.116,2.784,1.782,2.784  c-0.334,0-2.45-0.111-2.672-0.445c-0.223-0.334-1.782-2.728-2.116-2.784c-0.334-0.056-1.225,0.111-1.169,0.445  c0.056,0.334,1.893,2.394,1.503,2.394c-0.39,0-2.283,0.056-2.505-0.167c-0.223-0.222-1.225-3.229-1.837-3.285  c-0.612-0.056-1.058,0.445-1.058,0.445s1.726,2.839,1.225,2.839c-0.501,0-1.67-0.111-1.67-0.111s-1.782-3.229-2.116-3.285  c-0.334-0.056-1.28,0.223-1.225,0.445c0.056,0.223,1.893,2.951,1.67,2.951c-0.223,0-2.227-0.111-2.394-0.222  c-0.167-0.111-1.726-3.174-2.116-3.229c-0.39-0.056-1.058,0.056-1.058,0.501s1.448,2.951,1.28,2.951  c-0.167,0-2.116-0.278-2.116-0.278s-1.169-2.839-1.392-2.951c-0.223-0.111-1.336,0.111-1.28,0.334  c0.056,0.223,1.559,2.561,1.169,2.561c-0.39,0-1.837-0.056-1.837-0.056s-2.283-4.175-2.505-4.175c-0.223,0-1.225,0.167-1.225,0.501  c0,0.334,1.837,3.229,1.615,3.507c-0.223,0.278-1.893,0.111-1.893,0.111s-1.893-3.563-2.283-3.73  c-0.39-0.167-1.448,0.668-1.448,0.668s3.062,3.396,2.505,3.396c-0.557,0-2.617,0-2.617,0s-1.225-3.229-2.06-3.229  s-1.058,0.613-0.891,0.78c0.167,0.167,1.837,2.227,1.336,2.449c-0.501,0.223-1.615,0.278-1.782,0.111  c-0.167-0.167-1.503-2.505-1.782-2.617c-0.278-0.111-1.169,0.167-1.169,0.334c0,0.167,1.336,2.561,1.169,2.672  c-0.167,0.111-3.173,0.278-3.786-0.056c-0.612-0.334-1.893-5.79-1.336-5.957c0.557-0.167,4.176,0.167,6.402-2.394  c2.227-2.561,2.394-6.737,2.116-14.865c-0.278-8.128-0.501-17.871-1.114-21.1c-0.612-3.229-1.336-3.507-1.782-3.674  C12.213,9.777,8.427,9.554,8.26,9.22C8.049,8.797,6.757,4.989,7.313,4.71C7.87,4.432,12.268,5.1,21.677,5.546  c9.409,0.445,18.15,0.501,22.882-0.612c4.732-1.114,6.959-2.505,8.073-2.283c1.113,0.223,1.392,1.336,1.448,1.838  c0.056,0.501-0.223,4.621-0.223,4.621s-3.34-2.505-3.507-2.45c-0.167,0.056-0.724,1.392-0.334,1.726  c0.39,0.334,3.452,2.283,3.563,2.617c0.111,0.334,0.167,2.115,0,2.115s-3.006-2.672-3.285-2.561  c-0.278,0.111-0.445,1.448-0.111,1.67c0.334,0.223,3.452,2.672,3.507,2.951c0.056,0.278-0.167,1.225-0.167,1.225  s-2.004-2.115-2.45-1.949c-0.445,0.167-0.835,0.78-0.557,1.002c0.278,0.223,2.171,1.782,2.004,1.949  c-0.167,0.167-1.837,0.668-2.45,0.334c-0.612-0.334-0.668-6.291-2.004-7.627c-1.336-1.336-7.739-0.835-14.754-0.668  c-7.015,0.167-8.908-0.167-11.023,1.225s-2.004,14.531,0.056,16.48s6.069,2.115,8.964,2.115c2.895,0,4.064-1.726,4.454-3.006  c0.39-1.28-0.111-4.343,0.891-4.677c1.002-0.334,1.503,0.111,1.503,0.111s0.278,14.253-0.223,14.642  c-0.501,0.39-1.114-3.285-3.674-3.675c-2.561-0.39-8.908-0.78-10.467,0.111c-1.559,0.891-0.891,5.345-0.891,9.52  c0,4.175-0.724,7.238,0.612,7.961c1.336,0.724,4.899,0.39,11.302,0.947c6.403,0.557,12.805,1.893,14.197,1.169  c1.392-0.724,1.114-3.006,1.114-3.619c0-0.612,0.278-5.345,1.559-6.736c1.281-1.392,2.45-1.67,2.951-1.281  C55.138,41.121,54.024,43.46,53.746,44.907z M10.208,6.047c-0.445,0.278-0.557,1.559,0,1.782c0.557,0.223,4.677,0.891,5.066,0.835  c0.39-0.056,0.278-1.503,0.056-1.893C15.108,6.381,10.496,5.867,10.208,6.047z" style="fill:#1D1D1B;"/></svg>