<?xml version="1.0" ?><svg enable-background="new 0 0 64 64" viewBox="0 0 64 64" xmlns="http://www.w3.org/2000/svg"><path d="M50.752 3.09C50.427.33 43.932 0 40.23 0s-7.6.395-12.6 3.09c-5.002 2.698-6.756 7.434-7.406 10.328s.13 11.313.13 11.51c0 .198-3.897.198-5.39.264-1.495.066-1.82.724-1.95 1.118-.13.395.65 11.38.65 11.38l.455 3.946c.843.46 5 .263 5.715.395.714.133.974 1.12 1.04 3.882.064 2.763.454 13.353.52 15.523.064 2.17 1.038 2.17 3.377 2.236s11.366.33 11.885.33 1.04-.658 1.04-2.697c0-2.04.65-19.207.713-19.6.065-.396 1.43 0 2.598 0s6.755-.396 7.73-.527c.973-.132 1.363-10.393 1.363-13.747s-2.142-3.487-3.506-3.553c-1.364-.066-7.86.197-8.25-.066-.39-.262 1.235-5.393 3.38-6.445 2.142-1.052 7.404-.46 8.053-.33.65.133 1.104-1.38 1.17-2.564.065-1.183.13-8.616-.195-11.38zm-4.644 22.004c.195 0 1.137 1.052 1.396 1.48s-.13 1.184-.227 1.25c-.097.066-1.17-1.776-1.332-2.04-.162-.263.033-.69.163-.69zm3.345-12.4c-.585.067-6.365-.525-9.613.66-3.248 1.183-5.066 4.538-5.26 6.38-.196 1.84-.26 5.26.26 5.26s5.13.1 6.884.165c1.754.065 2.696-.034 2.858.196.162.23 2.63 3.75 2.598 3.98-.032.23-.26 1.413-.39 1.25s-2.436-4.21-2.598-4.046c-.162.164-.585.79-.292 1.217.292.428 2.76 4.177 2.728 4.34-.032.165-.325 1.053-.487.823-.16-.23-2.954-5.065-3.117-5-.162.067-.617.692-.39 1.086.227.395 3.248 4.637 3.28 4.867.032.23-.032 1.973-.227 1.908-.195-.065-2.923-5.228-3.378-5.228-.455 0-.617.888-.357 1.217.26.328 3.476 5.097 3.476 5.195s-.747.56-1.007.362c-.26-.197-2.89-5.262-3.15-5.262s-.975.33-.748.69c.227.363 2.76 4.474 2.63 4.507-.13.033-.616.197-.973-.197-.358-.395-2.404-4.012-2.664-3.947-.26.066-.747.625-.487.954.26.33 2.532 3.19 2.272 3.256-.26.066-1.56.033-1.656-.1-.097-.13-1.396-2.696-1.69-2.696-.29 0-.68.46-.52.756.163.296 1.17 1.908 1.073 1.908-.098 0-3.02-.164-3.12.197-.096.362.163 2.795 0 2.697-.16-.1-1.46-2.73-1.655-2.73-.195 0-.552.756-.422 1.085.13.33 2.143 2.795 2.208 3.06s.066 2.202-.064 1.94-2.078-3.717-2.208-3.652c-.13.066-.455.954-.39 1.15s2.663 3.882 2.728 4.145.097 2.763-.032 2.565c-.13-.197-2.923-5.525-3.15-5.492-.227.034-.422 1.152-.292 1.514.13.362 3.313 5.262 3.345 5.525.032.262.065 1.578-.065 1.48s-3.54-6.414-3.702-6.315c-.162.1-.292 1.02-.195 1.414.097.394 3.897 6.313 3.93 6.445.032.132-.032 2.763-.162 2.63-.13-.13-3.962-6.905-4.19-6.873-.226.033-.39 1.217-.226 1.513.162.296 4.482 6.48 4.514 6.808.033.33.163 1.94 0 1.875-.16-.066-4.708-7.73-4.87-7.696-.162.033-.39 1.052-.325 1.283.065.23 5.13 7.926 5.13 8.19s-.03.492-.324.492c-.29 0-.616.033-.908-.263-.292-.296-4.482-7.268-4.774-7.202-.292.066-.357 1.184-.26 1.546.097.362 4.547 5.953 4.384 6.02-.162.065-6.04-.363-6.495-.363-.455 0-.844-.132-.844-.132s.195-.263-.357-.855-1.364-1.546-1.72-1.316c-.358.23-.228.625 0 .855.226.23 1.136.92.973 1.052-.163.13-2.502-.034-2.6-.264-.096-.23-.13-9.67-.194-12.958-.065-3.29-.227-7.992-.942-8.485-.714-.493-6.04-.625-6.333-.92-.23-.234-.908-10.722-.52-10.788.39-.066 5.392.132 6.236-.395.844-.526 1.04-1.447.91-2.63-.13-1.185-.91-9.407.584-12.564s4.482-6.183 9.093-8.025C35.815.92 41.53 1.05 45.493 1.578c3.962.526 4.352 1.25 4.417 3.157.063 1.91.128 7.895-.457 7.96zM22.725 26.18c-.227.032-.195.986-.195 1.347 0 .362-2.11.132-2.63.1-.52-.034-1.026.106-.943.525.032.164 0 .56.195.658.195.1 4.222.132 4.612.132.39 0 .292-2.04.227-2.5-.063-.46-1.038-.296-1.265-.263zm6.04-19.274c-1.038.526-2.987 2.105-4.188 4.11-1.202 2.007-1.526 3.52-1.56 4.836-.03 1.316.19 2.184.423 2.302.26.132.617-.033.91-.033.29 0-.033-3.78 1.688-6.774 1.72-2.993 4.19-3.716 4.612-3.75.422-.032.357-.657.26-1.117-.098-.462-1.105-.1-2.144.426zm7.762 6.38c-.26-.065-1.396.297-1.98.89-.586.59-1.69 2.498-1.885 3.123-.195.624-.104 1.51.227 1.643.324.132.68 0 .908-.164.227-.165.227-1.48.747-2.6.52-1.117 2.11-1.84 2.273-1.972.164-.132-.03-.855-.29-.92zM44.094 2.83c-.578-.11-.844 1.02-.552 1.15.292.133 2.273.43 2.825.494.552.066.91.033 1.04.395s-.033 3.65.194 3.815c.228.164 1.203.493 1.203-.362s.13-4.374-.26-4.703c-.39-.328-3.767-.657-4.45-.79zM25.518 55.712c-.393.106-.52.362-.162 1.052.357.69 2.5 3.09 2.825 3.09.326 0 .813-.394.488-.82-.325-.428-2.663-3.453-3.15-3.322zm2.24-1.085c-.13-.1-.713.56-.584.79 0 0 2.696 3.55 3.053 4.044.357.494.714.593 1.072.396.356-.197-.13-.79-.39-1.316s-3.02-3.814-3.15-3.913z"/></svg>