<?xml version="1.0" ?><svg height="64" viewBox="0 0 64 64" width="64" xmlns="http://www.w3.org/2000/svg"><path d="m41 27.92c-.22 0-.79.66-.7.79a20.43 20.43 0 0 0 2 1.79 3.62 3.62 0 0 0 .74-.83c.11-.3-1.82-1.75-2.04-1.75zm.74-2.76c-.21 0-.78.66-.7.79.27.39 2.85 2.54 2.85 2.54a3.86 3.86 0 0 0 .74-.83c.13-.31-2.63-2.5-2.89-2.5zm1.8-2.32c-.22 0-.79.66-.7.79a20.77 20.77 0 0 0 2 1.8 3.74 3.74 0 0 0 .74-.84c.1-.3-1.82-1.75-2.04-1.75zm.22-3c-.22 0-.79.66-.7.79.26.39 2.45 2.32 2.45 2.32a3.62 3.62 0 0 0 .74-.83c.13-.33-2.25-2.3-2.49-2.3zm-.31-1.84a20.43 20.43 0 0 0 2 1.79 3.84 3.84 0 0 0 .75-.83c.13-.31-1.8-1.75-2-1.75s-.84.69-.75.79zm-31.38-3.08c-.18 0-.7.79-.7.79 0 .3 1.88 1.62 1.88 1.62s.74-.7.87-.88-1.88-1.53-2.05-1.53zm2.67-1.71s-1.07.45-.92.7a17 17 0 0 0 2.75 2.45c.22.05.66-.74.75-.87a25.2 25.2 0 0 0 -2.58-2.28zm2-2.32c-.26 0-1.17.91-1 1a22.63 22.63 0 0 0 3 2c.35.05.53-.39.57-.7a9.1 9.1 0 0 0 -2.52-2.3zm8.54-6.13c0-.3-3.37-.3-3.68-.26a24.92 24.92 0 0 0 -3.24 3.72 2.21 2.21 0 0 0 1.4.22c.24-.09 2.07-2.44 2.24-2.67s2.41.13 2.67 0a1.56 1.56 0 0 0 .66-1.01zm2.84 38.31c-5.51 1.53-8 3.85-7.74 6.83s1.31 6.21 6.78 6.69a36.76 36.76 0 0 0 14.84-2.1c3.28-1.27 3-3.15 2.8-5.69s-1.27-6.48-4.11-6.87-9.96.43-12.52 1.14zm12.57 1.44c1.75.18 2.54 3.37 2.32 5.34s-.79 2.8-3.85 3.5-9.59 2-12.35 1.14a3.62 3.62 0 0 1 -1.79-5.56 7.19 7.19 0 0 1 3.5-3c2.73-1.18 10.48-1.59 12.22-1.42zm-11.16-35.63c-7.79 2.12-5.08 14.62-1.75 18.38s8.49 4.08 11 .62 1.62-11.17-.61-16-6.61-3.55-8.64-3zm7.47 17.82c-1.75 2.1-4.73 2.49-7.53-1s-5.06-12.4 2.08-13.84c3-.61 5.69 1.7 6.3 4.72s.92 8.01-.85 10.12zm20.9-12.48a4.91 4.91 0 0 0 -2-3.15l-.54-5.17a2.57 2.57 0 0 0 1-1.14 9.52 9.52 0 0 0 .05-2.76c-.09-.78-1.4-.78-5.25-.87s-28.63-.13-29.77-.13-2.63 1.84-4.73 4.29-9.66 10.86-11.12 12.96.53 3.41 2.72 3.32h6.48a16 16 0 0 0 1 2.86c1 2.4 3.21 7.42 6.71 9.93s11.44 2.16 11.44 2.16-9.87 3.38-15.06 5.77a8.93 8.93 0 0 0 -4.55 11.85c1.81 3.8 7.53 9.87 22.35 8.76s15.41-9.34 14.65-16-8.11-11.43-8.11-11.43v-.97a16.19 16.19 0 0 0 5.43-7.41c1.75-4.9-.18-14.24-.18-14.24l4-4.38.06 4.26a3.67 3.67 0 0 0 -1 .88c-.26.43-.35 1.13-.08 6.48s-.88 12 1.75 13.57 5.51-.53 5.69-2.11-.68-15.32-.94-17.33zm-12-2.13c0 .41 2.1 6.19 1.05 11a16.22 16.22 0 0 1 -5 9c-1.69 1.52-1.69 1.87-1.69 2a11.63 11.63 0 0 0 1 3c.29.11 5.8 2.53 6.94 7.75a15.07 15.07 0 0 0 -1.61-1.16c-.26-.08-.7 1-.7 1l2.58 2.08c0 .32 0 .64.05.95a19.74 19.74 0 0 0 -2.19-1.63c-.27-.09-.7 1-.7 1l2.84 2.29a10.67 10.67 0 0 1 -.23 1.43 10.81 10.81 0 0 0 -1.78-1.45c-.26-.08-.7 1-.7 1l2.06 1.81a9.38 9.38 0 0 1 -.53 1.05 11 11 0 0 0 -1.53-1.2c-.26-.08-.7 1-.7 1l1.47 1.29a8.27 8.27 0 0 1 -.53.7 20.32 20.32 0 0 0 -1.67-1.22c-.22-.13-.87.57-.87.7a13.51 13.51 0 0 0 1.42 1.52 11.09 11.09 0 0 1 -1 .72 2.7 2.7 0 0 0 -1.14-1.18 1.76 1.76 0 0 0 -.88.48c-.09.15.54.85.93 1.27-3.84 1.79-9.82 2.4-15.11 1.84-5.82-.62-9.76-2.06-11.47-6.22s.26-7.53 4.95-9.76 16.38-5.91 16.47-6.15a15.09 15.09 0 0 0 -.7-3.29c-.13 0-6.52.92-12.26-2.36a16 16 0 0 1 -7.92-9.85c-.7-2.28-.88-3-1.05-3.06s-7.78-.34-7.85-.54 13-15.06 13.31-15.18 32.8.12 32.74.47-8 8.49-8 8.9zm11.1 16.18c-.3 3.37-2.41 3.59-3.28 1.66s-.72-14.93-.72-14.93a6 6 0 0 0 1.09-1.48c0-.22-.48-6.31-.44-6.48a3.18 3.18 0 0 1 .53-.66l.57 6.22s1.27.52 1.31.83 1.27 11.47.94 14.84zm-2.54-.66c.31.31 1.49 1.23 1.8 1.19s.13-.4.26-.79-1.4-1.4-1.62-1.4-.42 1-.42 1zm.09.79c-.22 0-.44.88-.44.88.31.3 1.49 1.22 1.8 1.18s.13-.26.26-.66-1.38-1.4-1.6-1.4z" fill="#1d1d1b"/></svg>