<?xml version="1.0" ?><svg height="64" viewBox="0 0 64 64" width="64" xmlns="http://www.w3.org/2000/svg"><path d="m10 17.74c.27-.32-.33-6-.33-6s-.63-.5-.73-.1 0 6 .05 6.19.74.23 1.01-.09zm7.2 35.26c-.16-.07-.71.55-.71.55a13.52 13.52 0 0 0 1.56 1.56c.09 0 .41-.25.51-.48s-1.2-1.63-1.36-1.63zm1.49-2.25c-.16-.07-.71.55-.71.55a31.23 31.23 0 0 0 2.32 2.41c.09 0 .41-.25.5-.48a12.07 12.07 0 0 0 -2.11-2.51zm-10.47-2.37c-.16-.06-.71.55-.71.55a38.2 38.2 0 0 0 2.73 3c.09.05.41-.25.5-.48a18.23 18.23 0 0 0 -2.52-3.07zm2.36-1.74c-.16-.07-.71.55-.71.55 0 .16 3.05 3.62 3.14 3.67s.41-.25.5-.48a25.52 25.52 0 0 0 -2.93-3.74zm2.42-.94c-.16-.07-.71.55-.71.55a36.61 36.61 0 0 0 2.44 2.75c.09 0 .41-.25.5-.48a14.86 14.86 0 0 0 -2.23-2.82zm2.41-1.46c-.16-.07-.71.55-.71.55a17.6 17.6 0 0 0 1.86 1.9c.09 0 .41-.25.5-.48s-1.53-1.91-1.69-1.97zm2.18-1.17c-.16-.07-.71.55-.71.55a15.13 15.13 0 0 0 1.67 1.72c.09 0 .41-.26.5-.49s-1.34-1.71-1.5-1.78zm12.11-1.24c-.16-.07-.71.55-.71.55 0 .16 3.64 3.9 3.73 3.94s.39-.18.48-.41a32 32 0 0 0 -3.5-4.08zm8.78-2.43a7.94 7.94 0 0 0 .89-.78c0-.16-.41-.48-.48-.48s-.39.28-.93.69l-1.06-1.13a11.73 11.73 0 0 0 1.07-1c0-.16-.41-.48-.48-.48s-.47.36-1.13.9a13.12 13.12 0 0 0 -1-1c-.16-.07-.71.55-.71.55a11.64 11.64 0 0 0 .93 1l-1.48 1.33a9.51 9.51 0 0 0 -.69-.69c-.16-.07-.71.55-.71.55a7.49 7.49 0 0 0 .67.75l-.95.78a8.83 8.83 0 0 0 -.8-.82c-.16-.07-.71.55-.71.55a8.13 8.13 0 0 0 .78.89l-.62.51a2.4 2.4 0 0 0 .51.64 7.84 7.84 0 0 0 .68-.54l.88.93-1 .8a2.68 2.68 0 0 0 .53.65s.46-.33 1.1-.83c.77.8 1.41 1.45 1.45 1.47s.39-.19.48-.41a8.21 8.21 0 0 0 -1.23-1.6l1.06-.84 1.1 1.21-.81.66a1.85 1.85 0 0 0 .43.55s.4-.28.92-.68l.09.08c.09 0 .39-.18.48-.41t0-.09l1.76-1.4c.38.38.64.63.66.64s.39-.18.48-.41a2.7 2.7 0 0 0 -.53-.72 11.27 11.27 0 0 0 1-.86c0-.16-.42-.49-.48-.49s-.44.33-1 .78c-.38-.41-.75-.83-1.15-1.25zm-4.62 2.6c-.29-.33-.59-.67-.87-1l1-.8.94 1zm.82-2.39 1.5-1.28c.32.34.68.7 1 1.07l-1.59 1.23zm2.57 2.86c-.28-.34-.65-.77-1.06-1.22l1.59-1.25 1.15 1.16zm-16.36 7.27c-.16-.07-.71.55-.71.55 0 .16 3 2.7 3.12 2.75s.39-.19.48-.41-2.73-2.82-2.89-2.89zm10-4.06c.09-.16-.5-.6-.59-.6a2.41 2.41 0 0 0 -.3.22l-.79-.77a2 2 0 0 0 .21-.18c.12-.14-.45-.57-.57-.57l-.25.18a8.26 8.26 0 0 0 -.64-.57c-.16-.07-.71.55-.71.55a4.88 4.88 0 0 0 .6.62l-1.55 1.26a8.53 8.53 0 0 0 -.8-.71c-.16-.07-.71.55-.71.55a7.91 7.91 0 0 0 .77.77l-1.43 1.18a10 10 0 0 0 -.87-.78c-.16-.07-.71.55-.71.55a7.64 7.64 0 0 0 .85.84c-1 .85-1.78 1.49-1.79 1.52-.09.2.25.41.34.46s.88-.63 2-1.49l.89.8-.28.25a.92.92 0 0 0 .37.57 2.11 2.11 0 0 0 .48-.3c.42.37.73.63.76.65s.39-.19.48-.42c0-.06-.21-.35-.57-.73.46-.35 1-.77 1.59-1.22l.74.65c.09 0 .39-.19.48-.41 0-.07-.21-.36-.57-.75.61-.48 1.2-.95 1.66-1.33l.89.77c.09 0 .39-.18.48-.41 0-.08-.28-.44-.72-.9a2.32 2.32 0 0 0 .28-.25zm-5.37 3.32-.83-.82 1.48-1.18.84.76c-.55.41-1.07.84-1.49 1.24zm2.18-1.79-.79-.78 1.58-1.25.81.74zm-10.89-38.14a10.19 10.19 0 0 0 1.24-1.35c.05-.12-.2-.32-.32-.32a10.77 10.77 0 0 0 -1.44 1.14c-.07.16.46.51.52.53zm2.19 1.93a19.7 19.7 0 0 0 1.8-1.88c.05-.12-.2-.32-.32-.32a22.09 22.09 0 0 0 -2 1.72c-.08.16.44.48.52.48zm1.88 1.19a16.43 16.43 0 0 0 1.74-1.71c.05-.12-.41-.53-.52-.53a17.76 17.76 0 0 0 -1.75 1.72c-.07.2.45.54.52.56zm.87 2.46c.07 0 2.57-2.71 2.62-2.82s-.49-.44-.6-.44-2.51 2.65-2.54 2.73.44.54.51.57zm2.18 1.58c.07 0 2.93-3.16 3-3.28s-.48-.43-.6-.43-2.87 3.11-2.91 3.18.43.55.5.57zm1.81 1.35c.07 0 2.68-2.93 2.73-3.05s-.48-.43-.6-.43-2.59 2.9-2.62 2.99.41.51.48.53zm1.93 1.58c.07 0 3.46-3.09 3.5-3.21s-.61-.61-.73-.61-3.24 3.27-3.28 3.34.43.5.5.52zm2.16 1.84c.07 0 3.24-3.37 3.28-3.48s-.62-.62-.73-.62-3 3.55-3.05 3.62.44.48.5.48zm2.3 1.86c.07.03 3.87-3.73 3.87-3.86s-.62-.62-.73-.62-3.63 3.91-3.67 4 .46.47.53.49zm1.14 2.32c.07 0 4.89-4.66 4.93-4.77s-.62-.62-.73-.62-4.67 4.83-4.7 4.91.43.46.5.49zm2.36 1.6c.07 0 4.89-4.65 4.93-4.77s-.62-.62-.73-.62-4.67 4.83-4.7 4.91.44.47.5.49zm1.17 1.9c.07 0 6.33-5.06 6.38-5.18s-.62-.62-.74-.62-6 5.22-6.07 5.3.36.49.43.51zm20-2.15c-2.92-2.24-27.13-15.17-35.15-20.07s-8.21-5.46-12.06-5.46-4.69 4-4.9 6.24c-.19 2-.37 36.9-.51 42.08s.32 7.62 2.43 10.73 5.23 3.72 8.44 2 25.31-14.42 32.95-18.87 11.05-6.1 11.64-8.8a7.26 7.26 0 0 0 -2.82-7.84zm-47.07-23.44c0-.09 2.66-.78 7.54 2.5s25.31 15.41 26.98 16.41 2 1.13 2 1.2-8.94 7.54-9 7.49-24-24-25.37-25.33-2.29-2.04-2.15-2.27zm-3.16 50.5c-.46-2-.09-16.41-.23-23.25s.18-16.27.14-19.34.36-7.52 1.42-7.16c.19.07 28.24 27.93 28.1 28.16s-27.28 24.75-27.74 24.94-1.26-1.33-1.69-3.35zm14 1.47a42.85 42.85 0 0 1 -9.08 3.39c-.34 0-1.12-1.15-.94-1.29 0 0 20.31-18 22.1-19.82s4.56-4.25 4.81-4 6.92 6.81 6.81 7.06-19.27 12.39-23.74 14.66zm35.37-21.94c-.87 1.08-9.67 6.37-9.76 6.32s-7.18-6.73-7.43-7.31c0 0 9.19-8 9.33-8s5.64 2.27 7.38 4.06a3.58 3.58 0 0 1 .48 4.93zm-13.64-1.29c-.16 0-.61.44-.61.44a62.66 62.66 0 0 0 4.17 4.81c.11.05.55-.25.59-.43a52.3 52.3 0 0 0 -4.15-4.82zm2.37-2.06c-.16 0-.62.44-.62.44.07.29 4.49 6 4.6 6s.55-.25.6-.43-4.42-5.96-4.58-6.01zm2-1.17c-.16 0-.62.44-.62.44.07.3 4.8 5.59 4.91 5.64s.55-.26.6-.44-4.72-5.59-4.88-5.64zm2.57-1c-.16-.05-.62.43-.62.43.07.3 4.29 5.46 4.4 5.5s.55-.25.6-.43a66 66 0 0 0 -4.37-5.48zm3.55.13c-.16 0-.62.44-.62.44a16.16 16.16 0 0 0 1.93 2.34c.11 0 .55-.25.6-.44a12.87 12.87 0 0 0 -1.9-2.32z" fill="#1d1d1b"/></svg>