<?xml version="1.0" ?><!DOCTYPE svg  PUBLIC '-//W3C//DTD SVG 1.1//EN'  'http://www.w3.org/Graphics/SVG/1.1/DTD/svg11.dtd'><svg id="Layer_1" style="enable-background:new 0 0 53 53;" version="1.1" viewBox="0 0 53 53" xml:space="preserve" xmlns="http://www.w3.org/2000/svg" xmlns:xlink="http://www.w3.org/1999/xlink"><path d="M51.139,24.523c3.878-5.73,0.66-12.955-0.413-13.37c-1.073-0.415-1.898,0.415-3.136,0.83  c-1.238,0.415-19.97,10.131-19.97,10.131s1.815-5.647,1.485-10.38c-0.33-4.733-2.476-8.055-6.189-10.546s-8.841-0.343-9.16,0  C12.602,2.433,1.131,39.719,0.388,42.211s-0.578,4.484,1.898,7.142c2.476,2.657,7.262,3.654,12.461,2.159  c5.199-1.495,5.776-10.297,6.107-11.045c0.33-0.747,6.024-3.156,6.024-3.156s6.024,11.875,8.417,13.702  c2.393,1.827,6.024,2.823,10.233,1.08c4.209-1.744,3.879-4.318,3.466-5.813c-0.413-1.495-7.014-14.2-7.262-14.449  C41.484,31.581,47.261,30.253,51.139,24.523z M38.554,26.391c0.124,0.208,1.485,2.782,1.279,2.865  c-0.206,0.083-0.743,0.664-0.536,1.038c0.206,0.374,6.932,12.54,7.798,14.533c0.866,1.993,0.784,2.99,0.701,3.571  c-0.083,0.581-0.248,0.664-0.248,0.664s-2.93-8.014-3.26-8.055c-0.33-0.041-0.825,0.374-0.784,0.498  c0.041,0.125,3.961,7.765,3.548,8.097c-0.413,0.332-1.403,0.498-1.527,0.374s-3.425-9.01-3.713-9.01s-1.073,0.166-0.908,0.415  c0.165,0.249,4.126,8.844,3.879,8.886c-0.248,0.042-1.197,0.208-1.197,0.208s-3.383-8.346-3.713-8.429  c-0.33-0.083-0.66,0.042-0.578,0.208c0.083,0.166,3.672,8.346,3.507,8.346c-0.165,0-0.866,0.042-0.99-0.166  c-0.124-0.208-2.888-6.519-3.136-6.56c-0.248-0.041-0.908,0.291-0.784,0.747c0.124,0.457,3.136,5.439,2.888,5.481  c-0.248,0.042-1.362-0.332-1.609-0.54c-0.248-0.208-2.104-4.526-2.228-4.526s-0.825,0.332-0.701,0.498s1.527,3.28,1.527,3.28  s-2.517-2.076-4.209-5.979c-1.692-3.903-4.415-9.467-4.786-9.55c-0.371-0.083-9.036,3.986-9.077,4.111  c-0.041,0.125-2.146,6.768-2.806,7.432c-0.66,0.664-0.866,0.747-0.866,0.747s-2.228-5.771-2.599-5.813  c-0.371-0.041-0.66,0.166-0.619,0.747c0.041,0.581,2.764,5.855,2.641,5.938c-0.124,0.083-0.701,0.789-0.743,0.623  c-0.041-0.166-2.434-5.398-2.806-5.398s-0.66,0.415-0.66,0.415s2.929,5.439,2.723,5.522c-0.206,0.083-1.238,0.913-1.527,0.747  c-0.289-0.166-2.269-4.194-2.434-4.194c-0.165,0-1.073,0.291-0.908,0.623c0.165,0.332,2.434,4.069,2.187,4.069  s-1.114,0.415-1.197,0.208c-0.083-0.208-1.774-3.654-2.063-3.654c-0.289,0-0.908,0.332-0.825,0.457  c0.083,0.125,1.692,3.28,1.444,3.28s-0.949,0.208-1.114-0.125c-0.165-0.332-1.032-2.865-1.32-2.948c-0.289-0.083-0.99,0-0.825,0.374  c0.165,0.374,1.155,2.408,0.66,2.408s-2.682-0.498-3.92-2.242s-0.248-3.695,1.32-9.799S14.128,2.848,14.788,2.226  c0.235-0.222,3.755-1.661,6.808-0.083c3.053,1.578,5.653,5.564,4.91,10.588c-0.743,5.024-3.342,12.54-2.93,13.038  c0.413,0.498,18.237-9.342,20.63-10.546c2.393-1.204,5.281-2.616,5.446-2.533c0.165,0.083,0.66,1.536,0.825,2.284  c0.165,0.747,0.083,1.453-0.041,1.329c-0.124-0.125-1.238-2.201-1.609-2.159c-0.371,0.042-0.743,0.332-0.454,0.706  s2.063,3.239,2.063,3.861s-0.371,2.574-0.536,2.242c-0.165-0.332-2.022-4.36-2.311-4.36c-0.289,0-0.743,0.54-0.619,0.706  c0.124,0.166,2.764,4.567,2.641,4.941c-0.124,0.374-0.99,1.329-1.114,1.121c-0.124-0.208-2.393-4.983-2.723-4.983  c-0.33,0-0.701,0.498-0.578,0.706c0.124,0.208,2.641,4.733,2.517,4.9c-0.124,0.166-1.073,1.121-1.197,0.997  c-0.124-0.125-2.022-4.277-2.434-4.277c-0.413,0-0.866,0.54-0.578,0.789c0.289,0.249,2.146,4.194,2.146,4.194  s-0.825,0.913-0.949,0.789c-0.124-0.125-1.65-3.737-2.063-3.778c-0.413-0.041-0.784,0.374-0.619,0.498  c0.165,0.125,1.981,3.861,1.774,3.903s-0.866,0.581-0.99,0.415c-0.124-0.166-1.815-3.82-1.981-3.82s-0.825,0.332-0.743,0.623  c0.083,0.291,1.981,3.571,1.774,3.695c-0.206,0.125-1.114,0.498-1.114,0.498s-1.238-2.574-1.362-2.616  C39.256,25.851,38.431,26.183,38.554,26.391z M14.582,36.398c-0.206,0-0.585,0.623-0.578,0.747c0.041,0.664,2.764,5.73,2.764,5.73  s0.454-0.374,0.495-0.789C17.305,41.671,14.788,36.398,14.582,36.398z M16.026,35.484c0.083,0.332,1.32,2.906,1.527,3.28  c0.206,0.374,0.619-0.166,0.743-0.623c0.124-0.457-1.032-2.865-1.403-3.239C16.521,34.529,15.946,35.162,16.026,35.484z   M17.553,3.617c-0.681-0.54-1.465-0.436-1.981-0.228c-0.516,0.208-2.558,6.685-2.558,6.81c0,0.208,0.64,0.457,1.093,0.374  c0.454-0.083,2.022-5.003,2.373-5.481c0.351-0.478,1.114-0.021,1.279,0.021c0.165,0.042,0.144,0.042,0.516-0.104  C18.646,4.862,18.234,4.156,17.553,3.617z" style="fill:#232021;"/></svg>