<?xml version="1.0" ?><svg enable-background="new 0 0 64 64" viewBox="0 0 64 64" xmlns="http://www.w3.org/2000/svg"><path d="M63.125 37.503c-1.535-3.65-6.908-6.726-8.107-7.35-1.2-.626-4.03-2.26-4.702-4.565-.672-2.306 1.056-4.324 3.262-4.804 2.207-.48 5.373 2.98 6.045 3.507.672.53 2.638-1.632 3.022-2.21.384-.575.144-1.92-1.295-4.562S57.176 12.953 50.89 13c-6.284.05-9.738 5.526-9.546 9.32.192 3.796 2.926 6.63 5.133 8.553 2.207 1.922 7.628 4.132 8.635 5.285s.576 3.46-.336 4.756c-.91 1.297-3.262 1.922-4.222 1.778-.96-.144-5.037-1.153-6.43-3.315-1.39-2.162-6.332-10.377-10.218-17.055-3.886-6.678-8.923-8.408-15.83-8.84s-12.714 4.18-14.68 7.495C1.426 24.292-.634 30.25.18 35.007c.816 4.755 2.304 6.725 5.566 10.232 3.262 3.505 6.956 5.955 11.418 6.532s8.204 0 11.13-1.057c2.927-1.057 5.71-4.18 6.43-5.813.72-1.633-.577-3.46-1.105-4.276-.53-.817-1.786-1.947-2.593-1.633-.864.336-3.838 2.258-6.428 3.507-2.59 1.25-5.66 1.73-8.205 1.106s-6.237-3.603-6.86-7.062c-.624-3.46-.336-7.735 2.303-9.897 2.637-2.162 7.003-4.276 9.977-4.372 2.975-.096 5.085 1.537 8.012 6.822 2.925 5.285 7.77 13.548 11.033 16.863s5.757 4.852 10.267 5.525 8.49-.673 10.746-3.795c2.256-3.125 2.784-6.536 1.25-10.187zM59.48 44.23c-1.344 2.45-5.422 3.794-8.013 4.035-2.59.24-8.395-2.114-10.698-4.804-2.305-2.69-8.877-14.89-11.37-18.254-2.497-3.363-5.04-4.9-8.06-5.093-3.024-.192-6.67-.48-10.556 2.642-3.886 3.123-4.27 8.744-3.214 12.972 1.057 4.228 3.455 7.158 5.662 8.408 2.207 1.25 6.572 1.49 8.97.913 2.4-.577 7.245-3.94 7.725-4.084.234-.07 1.63 1.49 1.68 2.018.047.53-1.2 2.836-4.942 4.277s-9.02 2.45-13.77.576C8.148 45.96 3.83 40.626 2.583 38.61c-1.247-2.018-1.295-8.744.24-12.587s3.262-8.263 9.067-10.09c5.804-1.825 11.56-1.008 15.35 1.49 3.79 2.498 9.692 11.915 11.37 15.614 1.68 3.7 4.846 8.07 7.15 9.61 2.302 1.536 4.413 1.873 7.58 1.008 3.165-.865 4.077-3.075 3.98-4.997-.095-1.922-.815-3.988-2.254-4.756-1.44-.77-7.34-3.555-9.45-5.86-2.112-2.307-2.784-5.622-2.448-7.16.336-1.536 2.735-4.707 6.045-5.668 3.31-.96 7.052-.673 8.827.96 1.775 1.635 2.735 3.364 2.638 3.748-.096.384-.72 1.922-1.2 1.345s-3.07-4.228-6.476-3.892c-3.406.336-5.853 2.883-5.71 5.765.145 2.883.625 4.372 3.503 6.294 2.878 1.922 6.67 3.267 8.827 6.15 2.16 2.88 1.2 6.195-.143 8.645zM14.72 17.084c-.72-.192-4.99 1.778-7.293 3.988s-3.454 5.765-3.454 6.198c0 .337.672.53 1.15.385.48-.144 1.68-3.363 3.07-5.573 1.392-2.21 6.67-3.795 7.197-4.132.528-.337.05-.673-.67-.865zm36.7 28.393c-.48-.144-1.728.048-4.08-.817-2.35-.864-4.413-2.45-4.653-2.64 0 0-1.68.287-.24 1.392s5.95 3.123 7.628 3.363c1.68.24 1.824-1.153 1.344-1.297zm-3.31-28.345c-.913-.096-2.832 1.537-3.455 3.027-.624 1.49-.614 4.1-.336 4.515.19.288 1.005.24 1.485.192.48-.048-.144-1.778.288-3.46.432-1.68 1.63-2.353 2.4-3.074s.527-1.105-.385-1.2z"/></svg>