<?xml version="1.0" ?><svg enable-background="new 0 0 64 64" viewBox="0 0 64 64" xmlns="http://www.w3.org/2000/svg"><path d="M45.52 42.004c.924.388 1.946-2.135 5.11-8.105 3.165-5.97 3.02-8.495 1.754-12.377-1.266-3.882-3.65-5.97-9.883-6.94-6.23-.97-8.663.68-8.955 1.116-.292.436 3.03 3.207 3.554 3.25.583.05 2.92-.387 5.695.583 2.775.97 4.966 2.33 5.55 7.765.584 5.434-2.775 11.646-3.31 12.132-.538.485-.44 2.184.485 2.572zM11.927 30.26c.584-1.407-2.335-2.307-2.63-2.135-3.99 2.33-6.425 13.2-6.863 15.675-.438 2.475-.78 4.125.292 4.174 1.07.05.925-.388 2.92-7.765 1.997-7.38 5.697-8.544 6.28-9.95zm44.495-20.043C51.262 5.8 45.616 5.8 40.358 6.237S29.55 9.634 29.356 9.78c-.195.146.244 2.67-.097 2.427-.343-.243-.294-1.407-.586-2.135-.292-.728-5.306-5.484-5.55-5.63-.243-.146-.78.194-1.266.194-.488 0-2.387-2.038-2.97-2.766-.585-.728-.05-1.116-.634-1.553-.584-.437-3.894-.437-6.67.097S4.674 3.374 2.29 7.11C-.098 10.85.05 16.25 0 17.06c-.047.825 1.997 2.96 2.58 3.494.585.534 2.58 1.7 7.595 5.97 5.014 4.27 14.264 13.49 14.945 13.83.682.34 1.753.437 4.235.922 2.483.485 12.804 2.378 13.777 2.378s.535-1.602.487-3.057c-.05-1.456-3.994-16.792-4.335-17.52-.34-.728-8.276-8.93-8.52-9.318-.243-.39 3.7-2.865 7.79-4.03s9.93-.29 13.047 1.02 5.793 5.87 6.718 11.404-1.46 13.928-2.92 16.89C53.94 42.004 45.615 52 41.33 54.912c-4.283 2.912-8.518 3.59-13.094 3.785-4.576.194-10.126-1.456-12.365-2.766-2.237-1.31-3.795-2.862-3.99-8.346-.195-5.484 4.09-12.91 4.38-13.346s.098-1.02-.39-1.408c-.485-.388-1.507-.63-1.945-.097-.438.534-5.014 9.997-5.647 15.044-.633 5.046-.195 8.2 3.164 12.035s6.914 4.27 13.145 4.174c6.23-.098 12.463-3.204 17.526-6.698s10.76-8.93 15.725-16.306c4.966-7.377 4.48-10.822 5.063-16.743.585-5.923-1.313-9.61-6.474-14.027zM19.766 6.383l5.55 4.465-2.678.63-3.846-4.9.974-.195zm-2.19.63l4.137 4.175-.536.437-4.284-4.368.682-.243zm2.482 4.95c-.146.098-2.337 1.263-2.434 1.02-.098-.243-4.235-4.416-4.235-4.416.24-.194 1.41-1.068 1.994-.874s4.82 4.174 4.673 4.27zM8.13 5.316c.342-.534 3.847-3.25 4.43-2.815s3.36 3.107 3.263 3.25c-.097.148-2.093.827-3.164 1.458-1.073.63-1.414 1.165-1.85.922-.44-.243-1.95-1.844-1.95-1.844-.34-.292-1.07-.437-.73-.97zM4.09 18.37c-.292.097-1.168-1.65-1.07-3.688.096-2.038 1.898-6.697 3.212-7.085.355-.105 2.483 2.038 2.385 2.475-.097.437-2.775 2.863-3.602 4.95-.827 2.086-.633 3.25-.925 3.348zm5.21 4.804c-.293-.146-3.555-2.572-3.604-3.203-.048-.63.146-3.492 1.558-5.967 1.412-2.475 4.284-4.853 4.917-4.756.416.063 4.14 4.513 4.14 4.513s-3.603 2.28-5.16 4.9-1.56 4.66-1.85 4.514zm15.09 13.928c0-.194 1.023-5.58.585-6.066-.438-.485-.974-.194-.974 0s-.533 6.018-.777 5.872c-.243-.146-.827-.63-.827-.825 0-.194.827-6.94.584-7.134-.244-.196-1.12-.1-1.12.192s-.196 6.018-.488 5.872c-.292-.146-1.12-.97-1.12-1.262s.73-6.503.584-6.746c-.146-.243-1.12-.437-1.12-.243s-.048 6.115-.487 6.018c-.44-.096-1.268-.776-1.22-1.115.05-.34.877-6.455.73-6.697-.145-.244-.973-.583-.973-.39s-.05 6.358-.584 6.02c-.536-.34-1.168-.875-1.12-1.214.05-.34.682-6.746.39-6.89-.292-.147-.925-.292-1.022 0-.097.29.05 6.6-.437 6.26-.487-.34-1.412-1.214-1.412-1.7s.73-5.435.585-5.727c-.146-.292-1.022-.292-1.07.193-.05.485-.293 4.513-.634 4.465-.34-.048-1.946-1.068-1.752-2.33.194-1.26 1.557-5.337 4.088-6.696.514-.277 7.4 7.86 8.91 9.51 1.508 1.65 3.066 3.35 2.677 5.873-.39 2.524-.633 3.01-1.168 3.834-.534.825-.826 1.117-.826.922zm16.212-1.892c.244 1.068.73.97.438 1.31s-2.24-.146-2.726.437-2.337 2.33-2.532 2.62c-.195.292-.438 1.36-.438 1.02s.438-3.93-.146-4.125c-.584-.194-1.168.194-1.07.582.096.388-.05 3.01-.05 3.01l-.974-.05s.146-3.737-.244-3.785c-.39-.05-1.12.095-1.12.63s.243 3.056.097 3.056-1.022.048-1.07-.146c-.05-.193-.1-2.862-.39-2.91-.293-.05-1.072.387-.975.775.097.388-.05 1.94-.05 1.94l-3.017-.387s2.483-2.67 3.262-4.562c.78-1.893 1.07-4.465 1.07-4.465.44-.483 2.094.148 3.847-.726 1.753-.874 3.602-2.33 4.04-2.378.44-.047 1.804 7.087 2.048 8.155zm-3.02-11.6c.098.535-.924 2.185-3.455 2.72-2.532.533-3.7.824-4.625.048-.925-.777-12.024-10.87-12.17-11.453-.043-.17 2.775-1.602 4.868-2.135 2.093-.534 4.333-.388 4.576-.388s10.71 10.675 10.807 11.21z"/></svg>