<?xml version="1.0" ?><svg enable-background="new 0 0 64 64" viewBox="0 0 64 64" xmlns="http://www.w3.org/2000/svg"><path d="M4.843 20.24c1.944 1.244 5.646 1.29 8.052 1.106 2.406-.184 6.155-3.135 6.386-8.3.232-5.164-3.47-7.885-3.47-7.885-4.442-3.78-10.55-1.613-11.846-.83C2.668 5.116-.802 8.25.17 12.54s2.352 6.212 4.673 7.7zM3.12 6.81c.953-1.338 2.984-2.733 6.905-2.145s5.032 2.282 6.074 3.908.97 3.078.97 3.078-2.533-4.356-2.914-4.287-.937.795-.66 1.245c.28.45 3.16 4.288 3.055 4.565-.103.277-.207 1.072-.346.865-.14-.207-2.43-4.288-2.742-4.22-.312.07-.73.554-.52 1.108.207.553 2.706 3.908 2.602 4.046-.104.138-.555.76-.694.553-.14-.207-2.048-3.977-2.43-3.873-.38.104-.693.52-.45 1.14.243.623 2.29 3.32 2.152 3.494s-.52.553-.694.45c-.174-.104-2.152-3.285-2.464-3.25-.312.034-.937.69-.59 1.106.347.415 2.117 2.663 1.91 2.767-.21.103-1.528.345-1.736.276-.208-.07-1.18-2.248-1.492-2.248s-.972.484-.868.9c.104.414 1.32 1.45.972 1.59s-3.922-.38-5.518-1.522S.308 10.752 3.12 6.81zm2.394 8.023c.278-.277.243-.38.243-.726s-.937-1.004-1.11-1.557c-.175-.553-.036-2.18.763-3.01s1.006-1.382.347-1.66c-.66-.276-2.082.59-2.395 2.422s0 3.424.555 4.115 1.31.7 1.597.416zM8.95 27.628c-.694-.208-4.442-.208-4.894-.138s-.59 5.187-.52 5.74 0 1.42.45 1.453c0 0 .764.104.972.035.208-.07.347-5.153.45-5.533.105-.38 3.82-.07 3.992-.242.175-.174.244-1.108-.45-1.315zm8.99-3.147c-1.39-.518-8.573-.69-11.038-.725s-5.264-.097-5.622.484c-.278.45-.14 10.408-.278 16.944S.447 57.68.655 58.06c.208.38 4.2 3.216 4.512 3.458.312.242 1.11.346 3.228.31 2.117-.034 9.024.312 9.857.105.833-.207 1.77-.52 2.048-1.107.278-.588.347-3.597.486-10.41.14-6.812 1.145-15.872.972-19.47s-2.43-5.946-3.82-6.465zm.068 8.543c-.208-.07-2.152-3.285-2.5-2.905-.346.38-.45.726-.034 1.35.416.62 2.395 3.63 2.43 3.976.034.346.103 2.04-.036 2.04-.14 0-2.5-3.77-2.776-3.63s-.555.76-.486.967c.07.208 3.09 4.15 3.158 4.842.07.692 0 1.695-.14 1.522-.138-.173-2.36-4.565-2.74-4.357-.383.207-.73 1.003-.417 1.522.312.518 2.985 4.287 3.054 4.495.07.207 0 1.867-.173 1.764-.174-.105-2.464-4.358-2.81-4.324-.348.035-.695.9-.556 1.383.14.483 3.402 4.737 3.333 5.22-.07.485-.035 2.318-.208 2.214-.174-.104-2.88-5.014-3.124-5.084-.242-.07-.728.865-.59 1.245.14.38 3.576 6.017 3.61 6.5.035.485 0 3.148-.243 3.01-.243-.138-3.332-6.225-3.852-6.26-.52-.034-.59 1.038-.486 1.35.103.31 4.06 6.432 4.164 6.778.104.346 0 .692-.382.865-.382.173-.555.138-.59.035-.035-.104-3.054-5.395-3.54-5.568-.486-.173-.833.553-.798.726.035.174 3.68 4.946 3.332 5.257-.347.31-1.32.346-1.562.104-.243-.24-3.262-5.463-3.61-5.463s-1.04.9-.797 1.14c.243.243 3.193 4.428 2.915 4.428s-1.25.31-1.492.104-2.568-4.116-2.95-4.082c-.382.035-.73.484-.694.588s2.36 3.25 2.082 3.32-1.25.07-1.423-.035C6.9 57.958 5.41 55.088 5.13 55.02s-.867.52-.867.692c0 .173 1.84 2.282 1.423 2.386-.416.104-2.534-.104-2.672-.173s-.868-.83-.902-1.487c-.035-.657.208-30.432.52-31.02.105-.196 6.18.07 9.337.31 3.157.243 5.24-.172 5.69.38.452.554.59 3.32.417 3.148-.174-.173-1.388-2.56-1.805-2.455-.416.103-.73.933-.52 1.382.207.45 2.22 3.32 2.324 3.666s.14 1.244-.068 1.175zM63.75 36.24c-.31-4.324-2.706-7.644-6.073-9.788s-9.058-2.732-12.91-1.937-7.914 4.323-8.053 4.288-.035-2.974-.14-3.7-1.422-.622-4.72-.657-7.75.02-7.808.277c-.174.76.14 15.908.174 21.372s-.243 11.447 0 12.138c.243.692 2.464 3.25 3.297 3.25s8.885-.137 10.238-.31c1.354-.173 1.388-1.452 1.388-3.216s-.035-15.078.555-19.262c.59-4.184 3.922-5.74 6.63-5.05 2.706.693 3.157 3.7 3.713 7.367.556 3.666-.485 14.075-.52 15.216s.14 4.46.764 4.703c.625.243 10.1.036 11.488-.034s1.874-.242 2.082-1.176c.21-.934.21-19.158-.103-23.48zm-5.09-2.468c.117.184 3.263 5.21 3.263 5.625s-.046 1.43-.162 1.314c-.115-.114-2.174-3.964-2.567-3.964-.393 0-.902.807-.74 1.13.162.323 3.124 4.795 3.147 5.14.023.347.07 2.445-.046 2.26-.116-.184-2.707-4.772-2.962-4.772-.255 0-.532.784-.532 1.153 0 .37 3.31 5.44 3.332 5.602.023.16 0 3.342-.278 3.296-.278-.046-1.25-1.66-2.105-3.48-.857-1.822-.973-2.353-1.39-2.26-.415.092-.277 1.475-.184 1.82s3.285 5.672 3.332 5.95.093 2.65-.185 2.443c-.278-.208-3.1-6.295-3.447-6.34-.347-.047-.787.967-.694 1.152.093.184 3.54 5.948 3.633 6.778.093.83 0 1.29-.255 1.29-.254 0-.37-.16-.486-.39-.116-.232-3.24-5.534-3.4-5.557-.163-.023-.65.968-.464 1.268.185.3 3.008 4.474 2.846 4.52-.162.046-1.342.046-1.48-.046-.14-.092-2.523-3.712-2.685-3.712-.16 0-.786.784-.67.99.116.208 2.013 2.606 1.782 2.675-.23.07-1.134.092-1.273-.046s-1.528-2.65-1.875-2.627c-.347.023-.648.738-.578.876s1.41 1.913 1.04 2.005c-.37.092-1.526.16-1.526.023s.603-4.565.65-8.346c.045-3.78-.232-7.816-.65-10.398-.415-2.582-.693-5.05-2.52-6.063-1.83-1.013-4.976-1.52-7.405-.022-2.43 1.5-3.31 3.135-3.68 3.666-.37.53-.415 1.153-.415 1.153s-1.273-2.26-1.758-1.637c-.486.622-.532 1.014-.347 1.176.185.16 1.55 1.314 1.596 1.798.047.484.163 2.86.047 2.86s-1.735-3.183-2.105-2.998c-.37.184-.463 1.383-.416 1.522.046.138 2.082 3.02 2.105 3.39.024.368 0 2.074-.092 2.005-.093-.07-2.29-3.988-2.5-3.896-.207.092-.647.83-.6 1.107.045.277 3.238 5.026 3.26 5.256.024.23 0 2.86-.207 2.86s-2.775-5.21-2.96-5.21c-.186 0-.81.99-.74 1.29.068.3 3.562 5.625 3.655 5.994.093.37.116 3.158 0 3.158s-3.68-7.285-3.91-7.285c-.23 0-.88.945-.833 1.037.046.092 3.84 6.64 3.84 6.94 0 .3-.092.368-.092.368s-.278.092-.347-.023c-.07-.116-3.077-5.004-3.355-5.073-.278-.07-.995.715-.833.945.162.23 3.124 4.035 3.008 4.196-.116.16-1.458.092-1.596 0-.14-.092-2.314-3.965-2.568-3.92-.255.047-.88.946-.834 1.06.046.116 2.13 2.93 2.106 2.998-.023.07-1.18.138-1.296.023-.116-.116-1.92-2.952-2.36-2.998-.44-.046-.717.922-.578 1.037.14.114 1.69 2.143 1.41 2.143-.277 0-2.313.138-2.36-.37-.045-.506.394-10.374.37-13.647-.022-3.274-.346-17.29-.184-18.052.034-.16 6.502-.023 7.59-.046 1.086-.023 1.78.023 1.873.16s-.046 5.396.324 5.58c.37.184 1.366-.807 1.667-1.06.3-.254 1.758-1.568 5.067-3.112 3.31-1.545 7.82-1.867 10.11-1.36s4.767 1.222 6.41 3.412c1.643 2.19 2.8 4.058 3.1 5.233.3 1.177.3 2.214.14 2.168-.163-.046-2.083-4.772-2.615-4.657-.536.116-.675 1.337-.56 1.522zm-26.098-6.294c-.37-.23-4.373-.16-4.65-.16-.28 0-.44.483-.394.668 0 0-.093.553.093.807s3.425.138 3.772.138.393 1.707.44 2.053c.046.346 1.18.092 1.342.07.162-.024.162-.554.162-1.315s-.394-2.03-.764-2.26zm13.304 1.96c-.347.207-.44 1.014.162 1.268s3.24.83 4.627 1.937c1.388 1.107 1.435 4.288 1.458 4.61.023.324.95.577 1.365.116.416-.462.23-2.72-1.273-5.327-1.504-2.605-6.08-2.76-6.34-2.605z"/></svg>