<?xml version="1.0" ?><svg enable-background="new 0 0 64 64" viewBox="0 0 64 64" xmlns="http://www.w3.org/2000/svg"><path d="M10.357 34.707c1.352 0 5.266-.857 9.323-1.643s11.67-.143 12.312-.357c.64-.214.214-5.144.07-10.073-.14-4.93-1.636-8.573-3.557-13.43s-6.975-6.29-10.035-6.29-5.55 1.144-8.184 4.287-1.495 6.073-1.495 6.073-1.92.357-3.06.786c-1.137.43-2.916 1.356-4.197 3.57S-.39 23.42.253 25.92s2.384 6.007 5.05 7.643c1.28.786 3.7 1.144 5.054 1.144zM1.497 22.99c.036-2 1.245-5.68 2.847-6.93 1.6-1.25 4.306-1.5 4.91-1.322.606.18.89.75 1.39.857.497.107.853-.822.675-1.18-.18-.356-1.603-1.928-1.247-4 .356-2.072 3.38-5.036 5.836-5.537s6.867-.643 10.034 3.143 4.306 10.396 4.66 13.433c.357 3.036.215 7.966 0 7.966s-8.04-.108-11.28.43c-3.237.534-5.835 1.5-8.36 1.5S5.98 31.6 4.38 30.31c-2.146-1.72-2.92-5.32-2.883-7.32zM31.85 34.635c-.215 0-3.56.143-7.402.143s-8.896.714-13.237 1.715c-4.34 1-7.33 4.358-6.9 7.858.426 3.503 1.494 7.86 4.483 9.646s6.334 1.286 6.334 1.286.57 3.43 1.21 4.573c.64 1.143 2.633 4 8.255 4.143 5.623.143 10.178-4.43 10.818-6.93.64-2.5 0-7-.498-11.287s-2.15-11.144-3.06-11.144zm2.134 15.217c-.32-.107-5.338-5.965-5.693-5.894-.354.07-.816.857-.39 1.393.428.538 6.086 5.61 6.086 6.11s.036 1.715-.25 1.393c-.284-.32-5.194-5.608-5.48-5.608s-.71 1.036-.426 1.43 5.55 5.5 5.48 5.786c-.072.287-.25 1.68-.535 1.43s-4.52-5.68-4.768-5.644c-.25.036-.96 1.107-.676 1.43.287.32 4.663 4.857 4.45 5.143-.214.285-.427 1.356-.783 1-.356-.358-3.096-4.11-3.416-4.144-.32-.036-.746 1.036-.64 1.322s3.523 3.393 3.274 3.68c-.25.285-.925.75-1.28.428-.357-.32-1.71-2.75-2.172-2.75-.462 0-1.138.643-.89.93s2.172 2.32 1.638 2.5c-.534.178-3.63.07-5.48-1.18-1.85-1.25-2.384-3.286-2.277-4.215.108-.93.82-2.57.392-2.964s-1.032-.572-1.922-.07-3.63 1.606-7.188.5-4.484-4.787-4.84-6.252c-.46-1.894-.106-4.358 2.1-5.894s4.163-2.537 11.03-3.216c6.87-.68 9.502-1 9.964-.643.462.36.426.93.96 1.038.534.107.747-.75.747-.75s.32-.07.356.07 1.566 5.288 1.21 5.037-3.843-4.072-4.092-4c-.25.07-.604.535-.355.75s4.448 4.464 4.555 4.785c.107.32 1.068 3.07.57 2.75-.5-.322-4.59-4.895-4.912-4.86-.32.037-.64 1.037-.214 1.43.428.393 5.232 4.68 5.41 5.072.18.394.785 2.787.464 2.68zm7.188-20.646c1.637-.714 6.76-1.786 10.89-2.286s6.69-.143 8.824-4 2.562-6.002-.214-10.645c-2.776-4.644-8.896-3.358-8.896-3.358s-.07-.714-.427-2.286c-.358-1.57-1.283-3.427-3.63-4.927S41.312-.513 37.97.416c-3.346.93-6.477 3.43-6.833 6.787-.356 3.358.925 5.5 2.206 8.5 1.28 3 2.277 7.216 2.49 9.288.214 2.074-.123 5.62.713 5.86.997.286 2.99-.93 4.626-1.643zM56.58 10.74c.854.035 2.81 2.428 3.238 3.07.427.644.605 1.394.39 1.608s-.497-.572-1.636-1.965c-1.138-1.393-2.134-2.72-1.992-2.714zm-20.532 7.893c-.854-2.608-2.704-6.465-3.13-7.75s-.57-4.966 2.24-7.11S42.42.74 45.73 2.383c3.308 1.643 4.162 5.036 4.162 6.43s-.285 2.107.356 2.572 1.317-.357 1.708-.714c.39-.357 2.028-.357 2.384-.32.356.035 1.78 1.68 3.025 3.357 1.245 1.68 1.957 2.608 2.35 2.75s.64-.143.853.18c.214.32.07 2.5-.356 2.357-.427-.143-4.484-5.75-5.266-5.75s-1.068.856-.747 1.142 5.586 5.5 5.514 5.644-.747 1.464-.925 1.142-1.887-2-3.38-4.286c-1.496-2.286-1.6-2.786-2.03-2.786-.427 0-.747 1-.5 1.465.25.464 3.17 4.25 4.094 5.322.925 1.072 1.423 1 1.423 1.18s-.32.785-.57.678c-.248-.107-2.74-2.465-4.198-4-1.46-1.537-1.6-1.823-2.03-1.716-.426.105-.604.855-.212 1.25.39.39 5.41 5 5.16 5.356-.25.357-1.6 1.18-1.78.786s-4.447-5.822-5.052-5.858c-.605-.036-.747.714-.498 1.18.25.463 4.66 4.82 4.34 4.928-.32.107-.89.393-1.067.18-.177-.215-3.88-3.644-4.52-4.61s-.89-1.392-1.28-1.428c-.39-.036-.853.536-.25 1.43.607.892 5.304 4.643 4.913 4.785-.39.142-2.562.856-2.74.5-.178-.358-4.59-4.86-4.91-5.11s-.5.5.213 1.215 3.914 3.822 3.63 3.893-1.957.463-2.206.035-3.097-3.786-3.488-3.786-1.174.642-.64 1.106 2.88 2.93 2.49 3.036c-.39.106-1.245.356-1.53.18-.285-.18-2.064-2.538-2.74-2.395-.676.143-.925.536-.534.786s1.744 1.537 1.53 1.787c-.213.25-2.064.857-2.633 1.357-.003-.003-.893-6.397-1.747-9.004zM57.612 29.85c-3.843-.644-12.312 2-14.66 2.57-2.35.573-5.353.483-5.693.787-.643.572-.358 5.287-.216 8.5.142 3.216.854 10.93 2.562 13.79 1.708 2.857 3.985 6.143 9.892 5.5s7.756-3.572 8.68-6.715c.926-3.143-.995-8.358-.995-8.358s1.423-.357 3.63-1.857 2.633-3.215 3.13-7.287c.5-4.074-2.49-6.288-6.333-6.93zM61.1 41.42c-.5.643-2.99 2-3.986 2.358-.996.357-1.815.643-2.064.43s-6.192-7.288-6.796-7.36c-.605-.07-.712.5-.534.787.178.286 6.334 6.965 6.334 6.965s-.07.75.178 1.143.996 1.75 1.21 2.68.39 1.392.214 1.142-6.298-7.5-6.94-7.894c-.64-.392-1.03-.392-1.244-.07-.214.32 6.263 6.82 6.832 7.465.57.643 1.103 1 1.14 1.214.035.214-.32 2.25-.606 2.143-.285-.107-7.686-7.644-7.935-7.644-.25 0-.39.963-.178 1.32s7.9 6.823 7.9 7.074c0 .25-.854 2.358-.996 2.107-.144-.25-7.58-7.072-7.937-7.18-.356-.106-.925.43-.57.894.357.464 8.007 6.93 8.007 7.144 0 .213-1.316 1.25-1.85.928-.533-.32-5.3-5.894-5.94-5.894-.64 0-.677.786-.32 1.286.355.5 5.514 5.144 5.3 5.18-.213.035-.89.32-1.102.178-.214-.143-3.594-3.68-4.02-3.536-.428.143-1.07.286-.748.75s2.67 2.286 2.35 2.465c-.32.18-1.78-.536-2.848-1.43-1.068-.892-2.384-2.464-3.452-5.428-1.068-2.966-1.708-7.752-1.815-10.503s.036-5.287.107-5.644c.044-.222 3.06.143 5.765-.464 2.704-.608 9.18-2.323 9.465-2.216.285.107 5.8 6.93 6.334 7.18.534.25.676-.32.32-.607-.356-.286-4.52-5.43-4.804-5.822-.285-.392-.64-1-.39-1.142s1.244-.18 1.6.036c.356.214 3.487 4.036 3.772 4.036s.39-.18.285-.32-1.247-2.18-1.21-2.323.64-.106.78.037 1.496 2.536 1.53 3.858c.03 1.32-.644 4.034-1.142 4.677zm-50.03 4.822c-1.246-1.786-.143-3.393.035-4.43.178-1.035-.764-1.394-1.14-.856-.248.357-.96 2.358-.782 4.358.178 2 2.242 3.858 3.06 4.108.818.25 1.317-.5 1.317-.857s-1.246-.537-2.49-2.323zM7.33 18.597c-.64.107-2.562 1-3.203 2.643s-.06 3.507.39 3.786c.747.464 1.14-.25 1.21-.714.07-.464-.64-1.572-.214-2.536.427-.964 1.637-1.572 2.313-2s.143-1.286-.498-1.18zM37.827 4.523c-.854-.036-2.384 1.107-3.025 2.286s-.765 3.163-.39 3.463c.177.143.853.357 1.138-.107.285-.464-.107-1.393.427-2.608S37.9 5.88 38.575 5.45c.676-.43.106-.893-.748-.93zm14.768 28.755s-.818.5-.783.714c.036.214 6.725 7.43 6.94 7.608.213.18.177-.143.32-.32s-6.264-7.967-6.477-8.002zm-1.993 1.75c-.25-.036-.64.393-.57.786s6.62 6.93 6.87 7.18c.248.25.39-.07.426-.464s-6.29-7.44-6.726-7.502z"/></svg>