<?xml version="1.0" ?><svg height="62px" id="Layer_1" style="enable-background:new 0 0 62 62;" version="1.1" viewBox="0 0 62 62" width="62px" xml:space="preserve" xmlns="http://www.w3.org/2000/svg" xmlns:xlink="http://www.w3.org/1999/xlink"><style type="text/css">
	.st0{fill:#1D1D1B;}
</style><path class="st0" d="M53,15.6C46,3.1,32.1,1.4,21.1,4.6C10,7.7,5.6,14,4.9,18.4S4.8,37.7,4.9,46s0.6,10.2,1,11.4  c0.4,1.2,9.2,0.8,9.9,0c0.7-0.8-3.2-21.6-0.6-30.8S22.1,15.5,31,15.4s12.9,5.5,14.8,12.2s-0.6,13.2-4.6,17s-9.3,3.6-9.4,3.6  s0-2.6,0-2.6s3.9-0.1,6.2-1s5.8-3.9,5.7-12.4s-5-13.5-12.3-13.6s-11.3,3-12.5,7.1c-1.2,4.2,0.1,28.7,0.1,29.9s0.8,2.3,1.8,2.7  c1.1,0.3,12,1,19.3-0.5c7.3-1.5,11.8-4.9,14.6-10.8S60,28.1,53,15.6z M48.6,49.1c-4.3,4.2-7.8,5.7-14.4,5.9s-12.8,0.6-13.1-0.2  s-0.8-28.4,0-29.9s7.1-5.9,13.4-3.8s6.1,11.1,5.1,15.1s-3.2,5.1-5.4,5.6s-7.4,0.4-7.6,1s-0.4,7.2,0.3,7.4s4.9,1.1,10.4-1.2  s9.8-6.6,10.4-13.7s-1.6-14.4-6.9-19.4s-16.3-3.9-21.7-0.4s-7.4,11.1-7.4,14.9s1.1,24.4,0.6,24.7S7.6,55.3,7.2,55  c-0.5-0.4-0.7-26.9-0.6-31.1s-0.1-7.7,4.5-11.7s14.8-9.2,26.2-5.4s15.5,13.4,17.1,21.7S52.9,44.8,48.6,49.1z M13.3,13.2  c-2.4,2.1-2.6,3.1-2.5,3.3c0.1,0.2,0.8,0.6,1,0.6s0.4-0.9,2-2.5s4-2.3,4.2-2.6s0.2-1-0.1-1.2S15.8,11.1,13.3,13.2z M27.5,23.1  c-0.5-0.3-3.8,0.5-4.1,1.3c-0.3,0.8-0.1,4.5,0.1,4.7c0.2,0.2,0.9,0.5,1.2,0.2c0.3-0.3-0.1-3.5,0.1-4c0.2-0.6,2.6-0.8,2.8-0.9  S28,23.4,27.5,23.1z M31.8,40.9c0-0.2-0.9-1.9-1.1-1.9c-0.1,0-0.8,0.3-0.8,0.5c0,0.1,1,1.6,1.2,1.7S31.8,41.1,31.8,40.9z M35.2,40.5  c0.2-0.2-1.9-2.8-2.1-3c-0.2-0.2-1,0.3-1,0.5c0,0.2,2,2.6,2.1,2.8S35,40.6,35.2,40.5z M37.2,39.1c0.1-0.2-2.4-3.5-2.6-3.6  s-0.7,0.4-0.7,0.5c0,0.2,2.3,3.3,2.6,3.5C36.8,39.8,37.1,39.4,37.2,39.1z M38.5,36.9c0-0.2-2.8-3.8-3.1-4s-0.7,0.7-0.7,0.7  c0.1,0.3,3.5,3.8,3.5,3.8S38.4,37.1,38.5,36.9z M38.1,34.7c0.2,0.2,0.5-0.3,0.6-0.5c0-0.2-2.3-3-2.5-3.1c-0.2-0.2-0.6,0.7-0.6,0.7  C35.7,31.9,37.8,34.6,38.1,34.7z M39,32.1c0,0,0.2-0.3,0.2-0.5c0-0.2-2.8-3.4-3.1-3.5s-0.3,0.5-0.3,0.5C36,28.8,39,32.1,39,32.1z   M38.6,27.9c0.2,0,0-0.3,0-0.7c0-0.4-1.8-1.8-2.1-1.9c-0.3-0.1-0.2,0.8-0.2,0.8S38.4,27.8,38.6,27.9z"/></svg>