<?xml version="1.0" ?><svg enable-background="new 0 0 64 64" viewBox="0 0 64 64" xmlns="http://www.w3.org/2000/svg"><path d="M63.75 48.196c-.67-2.346-5.115-8.464-13.083-8.63-7.968-.17-9.98 3.602-9.98 3.602s-1.26-.42-5.704-2.85-7.968-4.775-7.968-4.775.084-2.18.335-2.514 1.845-1.76 3.103-2.43c1.258-.67 12.58-5.868 12.58-5.868s4.195 2.514 6.795 2.514 6.877-.922 9.897-5.28c3.02-4.357 5.368-8.21 2.432-14.412s-7.13-7.71-10.903-7.54-8.974 1.09-12.497 5.95c-3.523 4.86-1.594 9.47-1.594 9.47l-15.433 7.37s-2.683-2.932-6.71-2.932-7.603.666-10.65 4.776C2.693 26.91-1.67 32.86.68 38.56s6.542 7.96 11.658 8.63c5.116.67 8.89-1.257 9.645-1.257s3.187.587 7.548 2.346 9.06 5.026 9.06 5.026.67 2.346 1.845 4.358c1.174 2.01 3.355 4.274 8.22 5.782 4.864 1.508 10.735-.168 12.915-3.855s2.852-9.05 2.18-11.395zm-1.704 4.525c-.448-.333-6.766-6.423-7.38-6.534-.616-.112-1.175.56-.84 1.006.335.448 7.716 5.923 7.828 6.593.112.67-.224 3.017-1.006 2.402-.783-.614-6.654-6.983-7.27-6.76-.614.223-.95 1.23.057 1.788 1.006.56 6.263 5.25 6.318 5.698.056.448-1.342 1.845-1.677 1.398-.335-.446-4.53-5.42-5.2-5.53-.67-.112-1.398.503-.95.894s5.032 4.973 4.976 5.252c-.056.28-.894.95-1.454.39-.56-.558-4.865-5.418-5.312-5.418-.448 0-1.342.726-.448 1.397.895.67 5.368 4.36 4.585 4.526-.783.17-2.292.727-2.796 0-.503-.725-3.523-4.357-4.194-4.412-.67-.056-1.622.614-1.174 1.06.445.448 3.41 2.627 2.794 2.794-.615.168-1.957-.168-3.187-1.23-1.23-1.06-2.963-2.68-3.467-4.748-.502-2.068-.894-3.52-1.23-3.744-.334-.223-16.55-7.207-17.78-8.045-1.23-.837-2.292-.95-2.852-.446-.56.502-4.81 2.85-10.512 1.116-5.703-1.73-6.486-4.748-6.654-8.77-.168-4.022 1.9-8.994 7.38-11.397 1.28-.56 4.978-.783 6.375-.17 1.398.615 3.41 3.8 4.36 3.8.952 0 2.35-1.844 6.99-4.246 4.642-2.402 10.68-4.525 10.848-5.028.168-.503.447-.726.112-1.173-.335-.447-1.454-3.017-.112-6.145 1.342-3.128 3.858-5.81 8.22-6.87 4.36-1.062 8.162.614 9.896 1.787 1.735 1.172 3.636 4.412 4.084 6.144.447 1.73.335 4.412-.168 5.42s-.615 1.283-.95 1.004c-.336-.28-4.92-3.8-5.48-3.688-.56.112-.896.67-.448 1.06.447.392 5.48 3.688 5.312 4.135-.17.448-.728 2.18-1.23 1.79-.504-.39-4.977-4.86-5.48-4.58-.504.277-.504.836-.17 1.34s5.2 3.854 4.977 4.02c-.223.17-1.174 1.118-1.51.727-.335-.39-4.585-3.91-4.92-3.855s-1.286.782-.67 1.285c.614.503 3.8 2.793 3.633 3.017-.168.223-2.572 1.06-3.02.447-.446-.614-2.57-2.513-3.13-2.29-.56.223-.67.503-.392.95.28.447 1.845 1.34 1.174 1.508-.67.168-1.733.056-2.125-.28-.392-.334-2.684-2.122-3.3-2.234-.614-.112-15.71 7.43-16.997 8.212-1.286.782-1.342 2.29-1.342 2.737 0 .446.223 2.513.223 3.128 0 .615-.333 1.79-.166 2.18.168.39 3.58 2.626 7.604 4.804 4.026 2.18 7.548 4.08 8.33 4.023.784-.056 1.79-2.01 3.076-2.737 1.286-.726 5.312-1.62 9.505-.503 4.193 1.117 6.43 4.47 6.43 4.47s-3.524-2.85-4.083-2.738c-.56.11-.84 1.06-.223 1.396.615.335 4.81 3.24 5.536 4.022s.893 1.173.95 1.62c.06.45.173 2.572-.274 2.237zM10.828 24.288c-.503-.223-1.677.112-3.467 1.564-1.787 1.453-2.18 3.967-2.18 5.25 0 1.287.377 4.07.95 4.47 1.12.783 1.175-.893 1.12-1.507-.057-.614-.39-3.128-.057-4.302.335-1.172 2.516-3.463 3.355-3.91.84-.446.784-1.34.28-1.563zM42.42 13.56c.727-.67-.112-2.235.447-3.966.56-1.732 3.41-3.63 4.697-4.022 1.286-.39.84-1.06.112-1.34-.727-.28-3.97 1.172-5.76 3.798-1.788 2.626-1.62 5.25-1.23 5.642.503.502 1.007.558 1.734-.112zm17.39.893c.95.503 1.117 0 1.06-.56-.055-.558-4.582-5.018-5.2-4.524-.558.445-.726.95-.39 1.45.335.504 3.58 3.13 4.53 3.63zm.726-4.134c.727.333.39-.505.223-.95-.17-.45-3.814-3.735-4.42-3.13-.28.28-.39 1.06-.28 1.397.114.335 3.748 2.346 4.475 2.68z"/></svg>