<?xml version="1.0" ?><svg enable-background="new 0 0 64 64" viewBox="0 0 64 64" xmlns="http://www.w3.org/2000/svg"><path d="M62.556 51.122c.56-.602.513-1.39.28-1.9-.233-.51-2.704-2.686-4.29-5.14-1.584-2.456-2.517-7.505-2.517-7.505s.977-.37 1.49-.834c.513-.463 1.725-1.668 2.38-3.335.65-1.668.045-4.493-.84-5.05-.887-.555-4.477.325-5.083.186-.606-.14-.373-.556-.326-2.687.048-2.13-1.35-9.033-2.89-13.99C49.22 5.91 46.33.86 40.13.167 33.93-.53 27.59.953 23.16 4.75c-4.43 3.8-6.015 8.894-6.9 13.156-.887 4.262-.794 9.59-1.073 10.006-.28.417-3.45-1.065-5.27-.74s-2.004 1.852-1.258 3.66c.745 1.806 3.123 2.825 3.402 3.15.28.323.187.555-.28 2.964-.466 2.41-3.823 7.273-6.34 9.913s-4.197 2.733-4.383 3.196c-.188.463-.094 2.27 2.283 4.447C5.723 56.68 9.36 56.82 9.36 56.82c.653 1.02 2.61 2.826 5.128 3.104s7.553-1.53 7.553-1.53 1.913 2.086 4.29 3.614S31.554 64 38.034 64c6.48 0 10.35-4.493 10.35-4.493s2.005.046 6.34-.417c4.337-.463 5.69-1.668 5.875-2.13.187-.464-1.26-3.29-1.026-3.43.234-.138 2.425-1.806 2.984-2.408zM51.46 42.506c.42.51 6.807 6.856 7.133 7.412.326.556.606 1.02.466 1.112-.14.093-1.634 1.343-2.053.973-.42-.37-6.34-7.134-6.714-7.412-.373-.276-.7-.647-.98-.37s-.558.65-.325.79c.232.14 7.32 7.133 7.32 7.32s-.794.137-.607.647c.188.51.84 2.363.654 2.455-.186.094-4.942-5.882-6.247-6.994-1.306-1.112-1.68-1.297-2.006-1.065-.325.233-1.025.464-.42.788.607.325 3.637 3.244 5.316 5.143 1.677 1.9 2.283 2.177 1.91 2.363-.372.185-1.258.463-1.49.185-.234-.277-6.528-6.392-6.948-6.762-.42-.37-.513-.417-.98-.185-.465.232-.838.463-.186.926.653.462 7.553 6.206 7.087 6.206-.467 0-2.658.324-3.218-.093-.56-.417-4.522-5.327-5.222-5.466s-1.54-.093-1.12.417c.42.51 4.99 4.68 4.43 4.726-.56.046-1.772.046-1.772.046s-3.26-4.266-3.538-4.126c-.28.138-.7.51-.374.88.326.37 3.31 3.566 3.264 3.75-.047.186-.886 1.298-1.166.742-.28-.556-2.89-2.687-3.403-2.64-.51.046-.604.417-.045.88.56.463 2.937 2.224 2.61 2.41-.325.184-1.35.88-1.538.787-.187-.095-2.518-2.69-2.984-2.69-.466 0-1.305.186-.84.51.467.325 3.125 2.595 2.565 2.734-.56.14-1.26.51-1.492.37-.233-.138-2.005-2.593-2.47-2.5-.467.093-1.26.65-.794.973.467.324 1.912 1.853 1.306 1.9-.606.045-5.688.045-9.185-1.576-3.496-1.62-5.454-3.01-6.246-3.195-.793-.185-3.87.926-6.434.926s-2.844.233-3.17-.184c-.326-.417-.84-3.29-1.632-3.335-.792-.045-4.85.51-7.365-2.223-.223-.242 4.755-1.807 7.32-6.532 2.564-4.725 4.616-8.385 3.776-9.59-.84-1.203-2.75-1.99-3.263-3.242-.513-1.25-1.305-2.177.233-2.177s4.336.927 5.128.88c.793-.046.98-.787.98-2.038 0-1.252.14-8.57 1.63-12.786C19.85 10.36 22.18 6.7 26.75 4.058s9.884-2.965 13.054-2.64c3.17.324 6.294 2.872 6.853 3.428s.793 1.02.56.88c-.234-.14-2.24-2.038-2.612-1.575-.373.465-.606 1.114.42 1.623 1.026.51 3.636 2.78 3.73 3.057.093.277 1.12 2.27.653 2.037-.466-.232-3.87-3.613-4.243-3.196-.373.42-.42.79-.047 1.114.373.324 4.382 3.335 4.522 3.613.14.278 1.4 3.196 1.026 2.733-.373-.464-4.476-3.846-4.895-3.614-.42.232-.886.51-.14.88s5.408 4.262 5.595 4.68c.187.416.98 3.334.56 3.01s-4.57-4.03-4.756-3.938c-.188.093-.374.556-.094.695.28.14 5.035 4.17 5.082 4.54.047.37.653 2.548.14 2.363-.513-.185-4.71-4.447-5.082-4.17-.373.28-.326 1.252 0 1.437.326.185 5.268 3.8 5.268 4.03 0 .232.233 2.455.047 2.316-.186-.14-4.615-3.57-4.94-3.43-.327.14-.234.88.046 1.204.28.324 4.802 3.335 5.222 3.428s1.492.556 2.797.324c1.305-.232 2.61-.324 2.89-.185.28.14-.186 1.9-.978 3.244-.793 1.343-1.818 1.668-2.424 1.992-.606.324-.98.74-.98.927 0 .185.048.463.048.463s-2.61-3.057-3.17-2.872-.84 1.02-.652 1.204c.187.184 3.87 2.87 4.15 3.566.28.695 1.77 4.493 1.304 4.076s-4.848-4.957-5.08-4.77c-.234.184-.514 1.203-.234 1.39.28.184 6.06 5.512 6.2 5.697.14.184 1.912 3.288 2.845 4.075.933.788 1.866 1.436 1.82 1.575-.048.14-1.027 1.39-1.213 1.112-.187-.28-5.688-6.347-6.807-7.46-1.12-1.11-1.772-1.852-2.33-1.62-.56.23.14.693.56 1.203zm-36.598-4.633c-.42.14-1.12 1.482-2.098 3.66-.98 2.177-2.897 3.572-3.077 4.17-.28.925.093.972.606.972s1.352-.834 2.33-2.224c.98-1.39 1.96-3.102 2.845-4.955.886-1.852-.186-1.76-.606-1.62zM27.077 7.3c-1.4.37-5.362 3.984-6.247 6.068-.886 2.085-1.71 5.92-1.26 6.624.327.51.887.463 1.353.232.466-.232.093-2.78 1.026-5.837.93-3.057 4.427-4.864 5.36-5.56.932-.694 1.165-1.898-.234-1.527z"/></svg>