<?xml version="1.0" ?><svg enable-background="new 0 0 64 64" viewBox="0 0 64 64" xmlns="http://www.w3.org/2000/svg"><path d="M61.892 23.1c-.68-3.41-3.44-8.775-6.652-12.368C52.028 7.14 45.104 2.138 37.14.774c-7.965-1.364-9.464-1.11-16.2 2.274-3.168 1.592-8.78 5.23-11.947 9.095s-6.29 10.004-6.788 12.55-1.99 13.323-.678 16.324S6.685 51.34 9.4 54.932c2.715 3.592 11.403 8.14 15.476 8.73 4.073.592 10.906.5 16.38-1.045 5.477-1.546 8.78-3.365 13.622-8.003S62.074 42.2 62.752 39.79c.68-2.41-.18-13.278-.86-16.69zm-1.21 11.63c-.17-.1-3.97-4.944-4.276-4.57-.305.376-.747.717-.34.956.408.24 4.55 4.365 4.55 4.604s-.17 3.07-.374 2.762c-.204-.307-4.82-5.832-4.92-5.423-.103.407-.34.646-.103 1.09s4.817 4.67 4.85 4.98-.712 2.692-.847 2.59c-.136-.1-4.65-5.49-4.955-5.15s-.544.65-.374.853c.17.205 5.125 4.877 5.16 5.15s-.578 2.456-.85 2.285c-.27-.172-5.36-6.174-5.735-5.97s-.51.717-.34.922c.17.205 5.703 5.49 5.703 5.9s-.543 2.046-.916 1.91c-.373-.136-5.26-5.9-5.634-5.798s-.577.614-.373.99c.205.374 5.67 5.285 5.567 5.558-.102.273-1.188 2.456-1.46 2.183-.27-.273-5.26-5.798-5.6-5.832s-.678.478-.678.58 5.632 5.66 5.632 5.867-1.595 2.113-1.765 1.977c-.17-.136-5.09-6.207-5.396-6.07-.304.135-.68.272-.474.58s5.09 5.797 5.125 6.104-1.05 1.058-1.357.956-5.77-6.207-6.177-6.207-.61.783-.44 1.022c.17.24 5.904 5.422 5.87 5.592-.034.17-1.29 1.773-1.527 1.535s-5.838-6.65-6.246-6.582c-.407.068-.848.716-.577.99s6.21 5.967 6.075 6.138c-.136.17-1.595.853-1.8.648-.203-.204-5.26-5.694-6.48-7.16-1.223-1.467-1.19-1.67-1.596-1.467-.407.205-.305.682-.136.853.17.17 7.535 7.877 7.468 8.116s-2.783.99-2.987.92c-.202-.067-6.21-8.048-6.72-8.184-.507-.136-.745.34-.61.58.137.24 7.06 7.81 6.89 7.878-.17.068-2.612.477-2.92.307-.303-.17-5.26-5.116-6.14-6.31-.883-1.193-1.29-2.045-1.868-2.01s-.712.476-.067 1.16c.645.68 7.093 7.127 6.957 7.366-.136.24-2.715.442-2.987.17-.272-.273-6.177-8.05-6.89-8.15-.713-.103-.68.545-.68.545s6.925 7.604 6.62 7.74c-.306.137-2.037.137-2.275-.067-.238-.205-7.195-7.98-7.467-7.98-.27 0-.644.512-.508.648s7.4 7.538 7.4 7.538-2.48 0-2.75-.136c-.272-.136-5.396-6.685-5.94-6.753-.542-.07-.746.545-.644.613.103.068 5.838 5.968 5.635 5.968-.204 0-3.36-.818-3.564-.92s-3.902-5.184-4.343-5.218c-.44-.034-1.12.102-1.086.41s4.38 4.637 4.108 4.637-4.04-1.365-6.177-3.24-7.603-8.36-9.47-12.18S3.7 33.09 3.465 29.542c-.24-3.542 2-9.17 3.63-12.24s6.142-7.604 8.653-9.617 6.9-4.058 8.134-4.638c1.76-.828 7.74-2 10.228-1.683 2.49.318 5.883.773 10.408 3.183 4.525 2.41 9.91 6.002 11.766 9.822 1.856 3.82 3.033 7.137 3.53 9.002.5 1.864.816 2.592.544 2.41-.272-.182-1.856-1.546-2.172-1.182-.317.365-.543.5-.09.82.452.318 2.352 2 2.352 2.32 0 .317.136 2.455 0 2.318-.136-.136-2.376-3.035-2.68-2.728s-.612.82-.306 1.09 3.02 2.73 3.088 3.14c.068.408.306 3.273.136 3.17zM17.546 10.55c1.12-.75 4.174-2.25 9.604-4.092s11.81-.17 12.49-.136c.68.034.848-.58.543-1.125s-3.258-1.023-8.52-.784c-5.26.24-9.536 2.08-11.878 3.274s-4.326 3.217-4.242 3.48c.272.85.883.134 2.003-.616zm-1.765 3.377c-.575-.205-2.543 1.125-3.596 2.9s-.78 3.92-.543 3.99c0 0 .408-.035.85-.206.44-.17.34-1.43.814-2.726s1.9-2.15 2.613-2.66c.713-.512.442-1.09-.135-1.296zm29.495 3.58c-6.957-1.738-19.04-2.25-22.875-2.284-3.836-.034-6.2.693-7.23 1.67-.61.58-1.425 2.218-.747 3.82s3.122 1.945 4.785 1.945 10.69-.307 17.24.477 15.206 4.297 17.344 4.33c2.138.035 2.783-3.648 2.274-5.012s-3.835-3.206-10.792-4.945zm8.213 8.595c-1.052-.205-8.077-2.592-14.12-3.58s-11.98-1.502-15.204-1.126c-3.224.375-5.77.24-6.143.068-.372-.17-.237-.784.103-1.09.392-.356 3.8-.717 6.177-.82s14.05.17 18.63.784 11.472 3.342 11.812 3.752c.34.41-.203 2.217-1.255 2.012zm-5.057 3.82c-3.427-1.228-15.78-2.49-20.464-2.66-4.684-.17-10.817.762-11.505 1.09-.712.342-2.307 2.08-1.866 3.48s2.036 1.91 4.616 1.842c2.578-.068 7.228-.512 14.457.102s15.137 2.626 16.698 2.83c1.56.206 2.817-2.727 2.41-3.58s-.917-1.876-4.345-3.104zm1.596 5.184c-.61.034-9.707-2.08-14.696-2.387s-9.3-.718-10.997-.514-4.107.41-4.616.307c-.51-.102-.51-1.364.034-1.808.486-.395 2.92-.955 8.79-.58s18.33 2.285 19.788 2.558c1.46.273 2.715.58 2.85 1.09.138.513-.54 1.298-1.152 1.332zm-6.957 2.967c-3.666-.92-14.187-1.842-17.785-1.842s-6.98.507-8.145 1.093c-.883.443-1.664 1.67-1.223 3 .44 1.33 2.138 1.81 3.665 1.672 1.527-.136 10.623-.443 16.087-.17s9.195 1.91 11.2 1.84c2-.067 1.83-1.295 1.39-2.727-.44-1.432-1.528-1.943-5.193-2.864zm2.816 4.434c-1.018.068-4.718-1.535-10.894-1.842s-10.418 0-11.776.102-2.376.24-2.783.034-.61-1.567-.27-1.91c.374-.375 4.004-.44 6.108-.44s12.32.442 15.443 1.09c3.122.65 4.75 1.125 5.057 1.603.306.478.136 1.296-.882 1.365z"/></svg>