<?xml version="1.0" ?><svg height="64" viewBox="0 0 64 64" width="64" xmlns="http://www.w3.org/2000/svg"><path d="m61.7 26.81c-.56-4.78-5-14.12-11.19-19.29s-16.33-8-24.72-5.73-13.99 7.08-18.5 13.21-4.54 14.81-4.29 15.07c1 1 14.78 7.37 15.7 7.5s.5-.3 2.93-1.38 2.54-.1 3.29-.33 5.93-7.64 6.09-8.49-.52-3.23-.56-6.59a8.14 8.14 0 0 1 7.41-8c5.07-.73 9 1.74 10.47 4.41s2.5 8.13.33 11.58-7 2.37-7.51 2.47-9.41 9.55-9.48 9.91a8.71 8.71 0 0 1 -1.91 4.61c-1.76 2.24-4.93 3.79-9.5 1.82s-4.15-7.44-4.18-7.84-11.49-5.23-12.67-5.1-1.62 3.19-1 7.08a24.36 24.36 0 0 0 6.82 12.28 34 34 0 0 0 24.77 9c12.57-.69 17.24-6.45 22.44-13.6s5.82-17.82 5.26-22.59zm-9.41 17.25c-3.92 5.62-7.77 10.46-15.14 11.81s-14.65-.06-18.57-2.07-8.13-4.94-10.5-8.66-3-7.73-2.6-7.77 8.52 3.06 8.66 3.43.23 6.68 5.1 8.88 9.12 1.25 11.75-2a12.23 12.23 0 0 0 2.9-5.7s7.86-8.36 8.09-8.36 6.88.63 9.35-4.6.33-10.64-1.35-13.3-7.54-6.82-14.41-5.56a11.69 11.69 0 0 0 -9.57 11.45c.16 3.82.79 5.1.79 5.1l-3.69 5.23a5.75 5.75 0 0 0 -2.73.59 6.85 6.85 0 0 0 -1.94 1.39s-10.43-4.22-12.43-6.12c-.26-.25.14-8.66 4.22-13s9.28-8.53 15.14-10.34 16.33-1.22 23.24 4.11 9.22 15.11 9.25 18.17-1.65 11.69-5.56 17.32zm-32.85-31.9c-.33-.16-3.44.84-6.44 3.62a9.54 9.54 0 0 0 -3.13 6.55 2.24 2.24 0 0 0 1.64.3c.3-.17.14-2.24 2.54-5.33a12.84 12.84 0 0 1 5.76-4.12c.19-.1-.04-.89-.37-1.02zm2.85 30.53a12.56 12.56 0 0 1 -3-.45c-1 0-.85 2.88 2.4 4.39a5.44 5.44 0 0 0 7.49-3.84c.85-3.22-1.23-5-3.67-5.4s-3.19 1.28-3.19 1.49.94.63 1.66 1.45-.45 2.3-1.69 2.36zm2.61-2.79c-.54-.58-1.12-1-.63-1.22s3.73-.06 3.55 2.7-2 3.76-4.22 4-2.9-1.6-2.6-1.72 2.06.72 3.39-.4a2.46 2.46 0 0 0 .51-3.36zm17.1-10.26c3.59-1.35 7.28-4.18 5.63-9.58s-6-5.83-8.75-5.33c-6.59 1.18-8.23 6.71-6.88 10.46s6.4 5.81 10 4.45zm-2.35-13.23c2.21-.3 5.33.06 5.86 3.75a6.19 6.19 0 0 1 -5.51 7.44c-4.11.69-5.92-2.34-6.15-4.78s2.08-5.92 5.8-6.41zm-1.35 9.25c3.75 1.38 5.76-2 5.72-4.05a3.45 3.45 0 0 0 -4.08-3.26c-5.36.72-5.4 5.92-1.64 7.31zm2.6-4.81a1.25 1.25 0 0 1 1.45.49 2 2 0 0 1 -.73 2.51c-1.35 1.18-2.34.65-2.53.42a2.44 2.44 0 0 1 1.81-3.42zm-10.37 31.93c-.23-.07-1.22.72-1.22.72a17.57 17.57 0 0 0 2.9 2.4c.13 0 .72-.46.75-.65a13.82 13.82 0 0 0 -2.43-2.47zm3.09-1c-.36-.23-1.23.62-1.25.79 0 .36 2.47 2.27 2.73 2.33s.7-.32.86-.52-1.96-2.38-2.34-2.62zm1.55-2.14c-.16-.07-1.18.85-1.18.85.06.2 3.35 3.23 3.45 3.3a1.39 1.39 0 0 0 .86-.56 27.3 27.3 0 0 0 -3.13-3.61zm2.24-2.21c-.23-.06-1.08.83-1 1 .06.43 5.26 4.18 5.36 4.25s.69-.46.76-.66a53.54 53.54 0 0 0 -5.12-4.61zm2.24-2.33c-.2 0-1.11.83-1 1s5.43 3.95 5.59 4a.81.81 0 0 0 .66-.46 46.28 46.28 0 0 0 -5.25-4.56zm2.83-2.14c-.27-.1-1.09.74-1 .92s4.7 3.88 4.8 3.91.63-.46.66-.69a41 41 0 0 0 -4.46-4.16zm2.14-2.41c-.27-.06-1.24.83-1.16 1a47.87 47.87 0 0 0 5.47 4.22c.2 0 .56-.53.62-.79s-4.67-4.38-4.93-4.45zm2.76-2.76c-.23-.1-1.39.77-1.15 1.08s4.44 3.43 4.44 3.43.6-.59.53-.83a45.87 45.87 0 0 0 -3.82-3.7zm2.77-2.17c-.46-.14-1.15.7-1.06.88a20.1 20.1 0 0 0 3.82 2.5c.23 0 .46-.46.5-.82s-2.8-2.45-3.26-2.58zm2-1.85c-.23 0-.77.56-.75.73a9.13 9.13 0 0 0 2.6 1.72c.24 0 .56-.62.53-.82a9.86 9.86 0 0 0 -2.38-1.65zm3.59-1.61a9.48 9.48 0 0 0 -2.14-1.78c-.23-.06-.91 1-.85 1.09a12.34 12.34 0 0 0 2.66 1.61c.17-.08.37-.68.33-.94z" fill="#1d1d1b"/></svg>