<?xml version="1.0" ?><svg enable-background="new 0 0 64 64" viewBox="0 0 64 64" xmlns="http://www.w3.org/2000/svg"><path d="M20.46 20.383c-.255-.023-5.46.035-5.752.256-.186.138-.162 1.02.44 1.137.604.116 4.43-.163 4.64-.07.21.093.116 4.67.325 4.95.21.278 1.02.37 1.37.162s-.024-4.044-.047-5.113c-.025-1.07-.72-1.3-.976-1.324zm3.85-14.778c-.254.023-.347 1.278-.695 2.138s-1.53 3.067-2.575 4.322c-1.044 1.255-2.502 1.434-2.69 1.696-.42.582.115 1.35.764 1.21.65-.14 2.69-1 3.99-2.93 1.3-1.928 2.39-5.018 2.412-5.83.024-.814-.95-.628-1.205-.605zM38.994 17.13c.302.14 3.178.256 3.433.302.255.046.186 2.207.37 2.533.187.325.535.372.975.256s.372-3.95.117-4.065c-.255-.116-4.477-.32-4.848-.186-.51.184-.348 1.02-.047 1.16zM27.535 28.538c-.278.488.162 11.246.255 11.594.093.35 1.276.35 1.46.14.187-.21-.254-9.76-.347-10.968-.093-1.207-1.218-1.03-1.368-.766zm27.44 18.867c-.07-1.51-.626-2.602-1.137-3.09-.51-.488-1.6-.813-2.18-.697-.58.116-3.99 2.207-7.214 3.625-3.224 1.417-6.263.07-6.982-.302-.72-.37-1.624-1.556-2.11-2.694-.488-1.14-.813-3.6-.93-5.902-.115-2.3-.16-8.597-.07-9.015.094-.42 1.694-.42 3.503-.42s8.907-.138 10.23-.278 1.576-.604 1.67-1.07c.092-.464 0-4.97.16-6.342.163-1.37.326-3.625.21-3.927-.116-.302-1.067-2.58-1.647-2.835-.58-.256-6.077-.72-7.144-.79-1.067-.07-6.495-.14-6.587-.186-.093-.046-.07-.58.023-1.348.093-.767-.023-5.576-.093-6.436-.07-.86-.023-2.44-.418-2.835C33.864 2.468 31.776.307 31.01.12c-.765-.185-6.657-.115-7.562-.07-.905.047-1.74.442-1.902.768-.162.325-.348 2.347-.812 3.973-.464 1.627-1.902 3.81-3.456 5.53-1.554 1.72-4.106 3.09-5.404 3.58-1.3.487-2.246.48-2.528.65-.348.21-.348 1.348-.302 2.23.046.884-.162 7.622.046 8.087.21.465.997.395 2.04.488 1.045.093 5.614.093 5.753.116.14.024.162 1.488.14 5.368-.024 3.88.23 11.176.37 15.126.14 3.95.812 8.922 3.178 11.99 2.366 3.066 5.242 4.902 11.737 5.784 6.495.883 11.32-.604 15.494-2.533 4.175-1.93 6.657-4.322 6.912-5.32.26-.998.328-6.97.26-8.48zm-4.87 7.505c-.117.186-1.138 1.185-1.3.93-.162-.257-2.876-6.716-3.155-6.81-.278-.092-1.02.233-.905.628.116.395 3.108 6.715 3.085 6.83-.023.117-1.508.93-1.693.745-.186-.186-2.876-6.506-3.108-6.6-.233-.092-1.138.373-1.068.72s3.294 6.298 3.178 6.437c-.116.14-1.438.813-1.81.627-.37-.186-3.177-6.878-3.432-7.017-.255-.14-1.206.21-1.02.744.185.534 3.13 6.715 3.06 6.878-.07.163-1.112.558-1.344.372-.232-.186-3.13-7.39-3.386-7.482-.255-.093-1.067.558-.974.79.093.232 3.062 6.854 2.853 6.97-.21.116-1.113.372-1.3.116-.185-.256-2.945-6.227-3.177-6.297-.232-.07-.905.373-.95.56-.047.185 2.945 5.575 2.643 5.784-.302.21-1.716.232-1.972-.093-.254-.324-2.388-5.53-2.666-5.622-.278-.093-1.067.232-.974.604.093.372 2.55 4.856 2.505 4.996-.046.14-1.508.046-1.832-.14-.325-.185-1.972-4.25-2.296-4.344-.325-.093-.79.093-.812.51s1.484 3.207 1.23 3.324c-.256.116-1.903-.28-2.09-.488-.185-.21-1.275-2.58-1.646-2.625-.372-.046-.743.232-.72.488.023.256.603 1.603.603 1.603s-.765-.256-1.067-.488c-.302-.232-3.642-2.393-4.593-4.972-.95-2.58-1.113-7.365-1.183-10.595-.07-3.23-.37-11.175-.37-14.126 0-2.95.254-3.648-.465-3.927-.72-.28-4.825.07-6.008.163-1.183.093-1.37.07-1.415-.116-.046-.186-.232-7.853.162-8.318.155-.182 2.923-.674 4.546-1.696 1.624-1.022 3.874-3.137 5.057-5.065 1.183-1.93 2.18-4.066 2.366-5.274.186-1.207.348-1.904.51-1.997.162-.093 7.538-.186 7.91.325.37.51.325 4.298.37 7.18s-.115 5.507.697 5.67c.812.162 4.662.23 8.118.417 3.456.186 5.126.21 5.404.488.278.28-.255 2.045-.487 3.37-.232 1.323-.232 4.832-.186 5.366l.045.533s-1.856.116-1.995-.023-2.807-5.74-3.085-5.74-.95.466-.858.814c.093.35 2.737 4.926 2.575 4.996-.162.07-1.113.186-1.3.046-.185-.14-2.55-4.74-2.782-4.786-.232-.046-.905.488-.79.813.117.325 2.53 4.09 2.39 4.136-.14.045-1.647.115-1.763.022-.116-.093-1.81-3.927-2.25-4.066-.44-.14-1.253.256-1.044.558.21.302 2.18 3.555 2.04 3.578-.138.023-1.507.14-1.67 0-.16-.14-1.646-3.23-2.04-3.346-.394-.116-.997.232-.928.604.07.372 1.322 2.51 1.37 2.672.045.163-1.694.302-1.95 1.23-.254.93-.37 4.532-.277 8.83.093 4.298.603 8.365 1.74 10.177s3.2 3.205 5.868 3.6c2.667.395 3.387.418 4.36.232.975-.186 2.552-.627 3.202-.976.65-.35.905-.604 1.09-.442.186.163 2.296 4.95 2.737 5.762s.535 1.048.42 1.234zm1.158-1.185c-.162.232-.464.256-.58.07-.116-.186-2.714-5.878-2.39-6.343.2-.283.836-.395.998-.186.163.21 1.6 2.788 1.717 3.346.117.557.42 2.88.256 3.113zm-.07-5.646c-.208-.117-.834-1.465-.834-1.558 0-.316.764-.813.904-.604s.14 2.277-.07 2.16z"/></svg>