<?xml version="1.0" ?><svg height="64" viewBox="0 0 64 64" width="64" xmlns="http://www.w3.org/2000/svg"><path d="m63 28.93c0-2.64-1.56-3.78-2.25-3.78l-19.68-.15a1.75 1.75 0 0 0 -1.07 1c0 .23.08 11.61.08 11.74s-1.77.21-5.59.16-11.29-.5-11.49-.5.06-8.16-.08-10.64-.92-3.06-1.44-3.09-18.71.11-19.48.16-1 1.24-1 1.88a49.53 49.53 0 0 1 .32 6.75c0 4.73.05 19.48.13 22.38a4.34 4.34 0 0 0 3.35 3.94c.35 0 13.75.08 24.89 0s27.32-.58 29.88-.66a2.91 2.91 0 0 0 3.06-2.72c.13-.79.37-23.83.37-26.47zm-3.83 23.8c-.08.06-1.86.15-4.56.25-.69-.9-5.06-5.88-5.2-5.95s-1.24.71-1.4.92 3.67 4 4.72 5.09l-2.15.08c-.58-.82-3.85-4.38-3.95-4.43a2.7 2.7 0 0 0 -1.08.69c0 .11 2.35 2.82 3.21 3.79l-2.25.07c-.61-.86-2.46-3.47-2.57-3.49a2.7 2.7 0 0 0 -1.11.69 34.79 34.79 0 0 0 2 2.85l-1.74.06a21.29 21.29 0 0 0 -2-2.6c-.21-.13-.93.53-1 .64a18.07 18.07 0 0 0 1.31 2l-3.4.11c-9.69.29-20.54.6-26 .63s-6.88.21-7 0-.5-7.39-.72-13.4-.92-14.49-.76-14.65c0 0 17.18-.19 17.26 0s-.11 12.36 0 13a3.25 3.25 0 0 0 2.11 1.64c.56 0 10.58-.29 14.49-.29s4.91 0 4.91-1.17-.08-11.82 0-11.87 17.45-.24 17.61.08-.52 25.1-.73 25.26zm-53.29-25.07a55.82 55.82 0 0 0 0 8.18 3.74 3.74 0 0 0 1.64-.16c.13-.18-.11-6.41-.08-6.49s2.46 0 2.67-.13.16-1.06.16-1.32-4.2-.32-4.39-.08zm45.74 17.13c-.16 0-1 .8-.95.92s5.49 5.86 5.57 5.89a.79.79 0 0 0 .53-.56 63.16 63.16 0 0 0 -5.15-6.25zm1.53-2.48c-.15 0-.86.78-.84.95s4.75 5.25 4.86 5.25.29-.61.29-.87a55.66 55.66 0 0 0 -4.31-5.33zm1.09-3.43c-.27-.08-.91 1-.88 1.08.11.29 4.47 5 4.47 5a2.82 2.82 0 0 0 .21-.74 58.94 58.94 0 0 0 -3.8-5.34zm.76-3.54c-.21 0-.58.95-.56 1 .08.24 4 4.12 4 4.12a3.47 3.47 0 0 0 .27-1.06 35.33 35.33 0 0 0 -3.71-4.06zm3.46 1.13a1.47 1.47 0 0 0 0-.87 17.25 17.25 0 0 0 -2.64-3c-.21 0-.47 1.08-.47 1.08a22.62 22.62 0 0 0 3.06 2.79zm-.51-4.59c.19 0 .22-.55.19-.84a3.36 3.36 0 0 0 -1.37-1.4c-.32 0-.77 1-.74 1.08a6.84 6.84 0 0 0 1.87 1.16zm-16.58-12.44c.5-.63.29-13.9-.1-14.07s-19.81-.21-20.06-.11-.07 13.55.53 14 19.14.82 19.63.18zm-18.19-11.89c.24-.21 16.5 0 16.65.35a60.26 60.26 0 0 1 -.46 8.1c-.21 0-16.22-.11-16.4-.35a51.25 51.25 0 0 1 .21-8.1zm2.71 5.91c.32-.11 0-4.43-.07-4.65s-1-.16-1.13 0a26.16 26.16 0 0 0 -.1 4.68c.1.25.98.08 1.3-.03z" fill="#1d1d1b"/></svg>