<?xml version="1.0" ?><svg enable-background="new 0 0 64 64" viewBox="0 0 64 64" xmlns="http://www.w3.org/2000/svg"><path d="M22.804 9.216c-.28-.49-6.06-.77-9.61-.908s-4.6.558-4.737 1.048c-.348 1.258 6.06 11.6 6.338 12.368s-3.552 5.94-6.338 9.783S4 37.867 4 38.984c0 1.118 1.67 4.053 2.507 4.263s7.66.14 8.705.14 1.254-.49 2.23-1.887c.974-1.398 11.49-18.168 11.63-19.985.14-1.817-5.99-11.81-6.268-12.3zm.14 18.774c-.14-.186-1.812-3.54-2.183-3.54-.37 0-.973.233-.74.466.23.233 2.74 3.354 2.506 3.96-.232.606-1.718 3.214-1.997 3.028-.28-.186-4.226-5.357-4.55-5.357-.326 0-.79.093-.65.56.14.465 4.55 5.45 4.41 5.682-.14.23-.743 1.955-1.068 1.49-.324-.467-3.806-5.218-4.317-5.218-.51 0-.975.745-.79.932.187.186 4.412 4.89 4.32 5.264-.094.372-.372 1.024-.65.93-.28-.092-3.576-4.47-4.133-4.47-.557 0-1.3.14-.975.558.325.42 4.643 4.938 4.643 5.17 0 .234-.51.886-.79.84-.278-.047-4.178-4.752-4.456-4.705-.28.048-.79.467-.743.7.047.233 4.69 4.426 4.55 4.798-.14.373-1.114 1.304-1.207 1.165-.093-.14-4.18-4.332-4.596-4.286-.418.046-.696.558-.464.884.232.327 3.668 3.635 3.668 3.635s-2.09.233-2.413-.047c-.325-.28-2.043-2.142-2.46-2.142-.42 0-1.022 0-.744.56.28.558 1.67 1.77 1.207 1.77-.465 0-2.09-.094-2.415-.467-.325-.373-.557-1.21-.325-1.537.232-.326 1.393-2.19 3.39-5.357 1.996-3.168 7.196-10.39 7.38-11.274.187-.885-2.367-4.938-3.295-6.662S9.85 10.244 10.13 9.965c0 0 5.71.14 7.475.233 1.764.093 3.343-.14 3.9.466.557.606 5.943 10.342 5.897 10.808-.048.464-4.32 6.706-4.46 6.52zM58.948 4.814c.28-1.118-.628-4.124-1.602-4.542-.975-.42-12.536-.28-13.302-.07-.766.21-2.786 3.494-5.014 7.617-2.228 4.12-15.117 27.36-15.6 28.02-.765 1.047 1.046 4.68 2.3 8.105 1.253 3.424 7.59 16.91 8.287 18.168.696 1.258.766 1.258 2.23 1.467 1.46.21 11.907.42 13.787.42s2.09-1.048 2.23-1.677c.138-.63-.35-1.957-.558-3.424-.21-1.47-9.402-21.245-9.472-21.944-.07-.7.836-3.075 2.368-6.01S58.67 5.933 58.95 4.816zM40.446 22.446c.557.512 3.715 3.54 3.436 3.96-.28.42-.325 1.863-.836 1.304-.51-.56-3.482-4.053-3.807-3.96-.326.093-1.16.233-.65.745.51.512 3.713 4.1 3.667 4.52-.046.418-.418 1.816-.743 1.49-.325-.326-3.157-3.354-3.807-2.98-.65.372-.604.744-.232 1.024.37.28 3.296 2.933 3.204 3.12-.094.185-.42 1.35-.744 1.07s-2.136-2.42-2.6-2.143c-.464.28-.836.885-.51 1.118.324.233 2.6 2.143 2.553 2.516-.048.374 2.135 4.8 2.506 6.01.37 1.21 2.136 4.61 1.67 4.193s-6.174-7.08-6.592-6.848c-.418.233-.928.42-.743.885.187.467 8.404 7.967 8.59 8.293s2.368 5.777 2.043 5.45c-.325-.326-8.218-8.665-8.543-8.572-.324.095-.742.7-.23 1.446.51.745 9.47 8.665 9.75 9.13.278.467 2.506 5.032 2.553 5.45s.186 1.12-.186.746c-.37-.37-10.447-11.084-10.818-10.898-.373.186-.698 1.35-.234 1.91.464.56 10.075 8.99 9.982 9.13-.094.14-2.647.467-2.973.187-.325-.28-7.428-7.407-7.754-7.314-.324.093-.835.84-.37 1.21.464.374 6.87 5.917 6.36 5.917s-2.74-.14-2.83-.326c-.093-.186-3.807-4.66-4.225-4.705-.418-.046-1.3.28-.79.886.512.606 4.087 3.587 3.762 3.587-.325 0-3.575.233-3.946-.14-.37-.373-6.546-14.022-8.124-17.795s-2.925-6.57-2.786-7.034c.14-.466 7.012-12.997 9.798-17.796 2.786-4.798 8.59-14.86 9.054-15.233.442-.355 11.7-.792 12.118-.14.418.652-10.586 21.476-10.864 21.15-.28-.326-2.136-2.562-2.507-2.19-.374.374-.79.14-.466.7.325.56 2.414 2.61 2.414 2.795 0 .186-.14.885-.373.745-.232-.14-2.97-3.494-3.343-3.354-.373.14-1.394.234-.837.746zm-25.72-9.176c.046-.14 1.206.092 1.345-.42.14-.512-.137-.792-.51-.792-.37 0-2.413-.093-2.785 0-.37.093.226 1.2.928 2.376.975 1.63 2.507 3.727 3.018 3.773.51.047.37.047.65-.466.28-.51-2.69-4.33-2.644-4.47zm3.48 11.46c-.28.046-.88.325-.835.698.05.373 2.6 3.727 3.206 4.146.604.42.28.373.743-.186.463-.56-2.578-4.75-3.11-4.66zm28.51-20.36c.23-.28 2.042.048 2.506.094.464.047.604-.978.604-1.35 0-.374-3.018-.234-3.854-.234s-6.31 8.893-6.36 9.503c-.047.56.928.512 1.438.233.51-.28 5.433-7.966 5.665-8.245z"/></svg>