<?xml version="1.0" ?><svg height="64px" id="Layer_1" style="enable-background:new 0 0 64 64;" version="1.1" viewBox="0 0 64 64" width="64px" xml:space="preserve" xmlns="http://www.w3.org/2000/svg" xmlns:xlink="http://www.w3.org/1999/xlink"><path d="M51.81,9.915C45.367,3.1,39.34-0.113,31.92,0.003C12.188,0.313,5.23,15.336,5.026,23.133  c-0.206,7.795,0.773,16.158,6.286,23.592s18.653,7.59,18.86,7.64c0.205,0.053,0.463,8.726,0.67,9.346  c0.205,0.62,1.905,0.156,4.172-0.567s4.792-1.704,11.54-7.228s9.74-16.056,10.924-23.077C58.664,25.819,58.251,16.731,51.81,9.915  L51.81,9.915z M56.446,27.727c0,0-4.998-6.867-5.358-6.763c-0.36,0.103-0.36,1.084-0.36,1.084s5.512,6.763,5.564,7.228  s-0.567,3.253-0.567,3.253s-4.74-6.816-4.946-6.816c-0.207,0-0.67,0.207-0.568,0.878c0.103,0.67,5.1,6.815,5.1,7.228  c0,0.413-0.67,2.426-0.67,2.426l-4.997-6.712c0,0-0.824,0.826-0.773,0.98c0.052,0.156,5.358,6.868,5.358,7.126  s-0.72,2.323-0.876,2.22c-0.155-0.103-4.69-7.383-4.998-7.383c-0.31,0-0.72,0.774-0.72,0.774s5.203,7.797,5.203,8.055  s-0.928,2.22-1.03,2.065s-4.74-7.9-5.05-7.847c-0.31,0.05-0.72,0.826-0.567,0.98c0.155,0.156,4.895,7.797,4.895,8.003  c0,0.206-1.39,2.375-1.597,2.323c-0.205-0.053-4.224-7.435-4.482-7.54c-0.258-0.102-0.773,0.62-0.773,0.62l4.38,7.694l-1.39,1.497  c0,0-4.02-7.278-4.432-7.33c-0.412-0.05-0.618,0.516-0.618,0.516l4.225,7.59c0,0-0.72,1.29-0.927,1.186  c-0.206-0.103-4.276-7.073-4.534-7.125c-0.26-0.05-1.083,0.62-0.98,0.774c0.103,0.156,4.483,7.332,4.483,7.332  s-1.597,1.652-1.855,1.24c-0.258-0.414-3.658-6.816-3.967-6.868c-0.308-0.05-1.03,0.568-0.978,0.826  c0.05,0.258,4.276,6.712,4.02,7.125c-0.26,0.413-1.753,1.24-1.753,1.24s-3.092-5.474-3.402-5.628  c-0.31-0.155-0.927,1.033-0.927,1.033s3.402,5.214,3.247,5.214s-1.288,0.878-1.39,0.723c-0.104-0.155-2.113-3.872-2.474-3.872  s-0.98,0.67-0.824,0.93c0.154,0.257,2.215,3.148,2.008,3.406c-0.206,0.26-4.02,1.19-4.02,1.19s-0.514-9.19-0.772-9.397  c-0.258-0.206-12.21,0.207-17.158-6.144S6.468,29.38,6.88,22.563C7.292,15.75,13.94,1.758,32.333,1.5  c7.832-0.11,14.89,4.956,18.446,9.24c3.554,4.286,5.46,11.514,5.667,13.527S56.446,27.727,56.446,27.727z M21.41,6.3  c-0.567,0.208-2.988,1.91-5.565,4.802c-2.576,2.89-3.35,5.576-3.298,5.834s0.72,0.465,1.134,0.465c0.413,0,0.362-1.6,2.938-5.11  s5.255-4.75,5.255-4.75s-0.264-1.31-0.463-1.24L21.41,6.3z M19.71,17.866c-0.207,0.258-0.362,9.55-0.156,10.532  c0.206,0.98,3.916,0.568,3.916,0.568s-0.05,4.853,0.464,5.163c0.515,0.31,6.492-2.686,6.853-3.408c0.36-0.723,0-12.804-0.103-13.062  s-10.425-0.483-10.975,0.206L19.71,17.866z M29.19,29.946c-0.155,0.26-4.173,2.79-4.173,2.48c0-0.31-0.05-4.906-0.206-4.957  c-0.154-0.053-2.112-0.053-2.112-0.053s0.052-6.505,0-6.66c-0.08-0.245,6.492-0.258,6.595,0.052  C29.397,21.118,29.344,29.688,29.19,29.946L29.19,29.946z M34.085,17.453c-0.412,0.31-0.412,10.377-0.206,10.584  s4.07,0.258,4.07,0.258s0.154,4.182,0.154,4.646s0.72,1.292,1.082,1.292c0.36,0,4.586-2.633,4.843-3.15  c0.257-0.515,0.308-13.06,0.205-13.267s-9.928-0.53-10.15-0.362L34.085,17.453z M42.483,30.257  c-0.206,0.516-2.782,2.426-2.782,2.168s-0.05-5.318-0.41-5.524c-0.362-0.205-3.092,0.208-3.092-0.31c0-0.515,0.052-6.504,0.412-6.71  c0.272-0.156,5.874-0.155,6.028,0.103c0.154,0.258,0.05,9.757-0.155,10.274L42.483,30.257z"/></svg>