<?xml version="1.0" ?><svg height="64" viewBox="0 0 64 64" width="64" xmlns="http://www.w3.org/2000/svg"><path d="m25.56 17.6c-3.19-.08-17.24 0-19.86.27s-3.81 3.67-3.5 7 1.92 4.81 3.93 4.81c4.07 0 19.65 0 22.58-.53s2.36-5.29 2.28-7.78-2.24-3.68-5.43-3.77zm2.84 7.79c-1.09.79-7.78.88-14.48 1.18s-8.44.44-9.23-.65-.74-5.78.74-6.08c1-.21 10.9-.44 15.76-.44s7.3.22 7.61 1.09.7 4.11-.4 4.9zm-19.33-4.55c-.4-.09-1.19.4-1.67 1.36a17.16 17.16 0 0 0 -.89 3.26 1.18 1.18 0 0 0 1.16.37c.35-.13 0-.92.26-1.84a9.82 9.82 0 0 1 1.66-2.58c.18-.26-.13-.48-.52-.57zm11.2-4.46c1 .13 7.41.17 7.7-.15s.17-6.3 0-7.64-1-4.35-5.38-3.83a7.14 7.14 0 0 0 -6.13 7.44 4.6 4.6 0 0 0 3.81 4.18zm-.94-7.55c1.92-2.6 6.45-3.08 6.82-.41s.35 5.75.13 5.92a22.87 22.87 0 0 1 -5.75 0c-1.23-.26-3.13-2.9-1.2-5.51zm1.77 2.74a3.74 3.74 0 0 1 .54-1.71c.57-.74 1.47-.7 1.54-.81a1.78 1.78 0 0 0 -.05-.94c-.13-.11-.96-.11-2.13 1.03a2.92 2.92 0 0 0 -1 2.45 1.44 1.44 0 0 0 1.1-.02zm21.35 14.52c.13.07.59-.46.72-.68s-2-2.23-2.16-2.34-.88.55-.88.66 2.32 2.36 2.32 2.36zm-6 5.51c1.8.79 5.5 1.19 6.94-.06s2.27-4.29 2.65-7.79.43-12.93.26-16.69-2.43-5.53-4.14-5.91a10 10 0 0 0 -5.68.64 6.44 6.44 0 0 0 -2.87 4.64c-.13 1.7.22 14.5.31 18.17s.74 6.22 2.53 7zm-.74-25.55c.39-1.92 3.06-3.71 5.56-3.28s3.1 3.23 3.15 10.07-.48 14-1.36 15.12l-.09.09c-.78-1-2.81-3.21-2.93-3.29s-.87.54-.87.65 2.42 2.72 2.94 3.28a4.94 4.94 0 0 1 -.86.33 33.15 33.15 0 0 0 -2.61-2.93c-.15-.11-.87.55-.87.66s1.57 1.77 2.25 2.49a5.63 5.63 0 0 1 -1.6-.06c-1.54-.29-2.27-1.4-2.45-3.13s-.65-18.05-.26-20zm7 16.89c.13.07.59-.46.72-.68s-1.44-1.68-1.6-1.79-.87.55-.87.66 1.73 1.81 1.73 1.81zm15.23 8.29c3.34-1.16 3.63-6.3 2.23-9.86s-4-3.83-7.44-3.31a5.31 5.31 0 0 0 -4.42 4.79c-.07 1-.39 8.69-.07 9.06s6.33.48 9.68-.68zm-7.66-9.67c.17-.83 3.19-2.71 6-1.51s2.78 5.25 2.32 6.83-3.06 2.54-5.22 2.62-3.24.05-3.4-.1c-.35-.35.1-7 .28-7.84zm3 7.62c.18.11.77-.13.86-.24a16.34 16.34 0 0 0 -2-2.54c-.11 0-.74.21-.76.39a15.87 15.87 0 0 0 1.85 2.39zm2.19-.73c.18.11.72-.3.81-.41a14.23 14.23 0 0 0 -2-2.36c-.11 0-.74.2-.77.39a16 16 0 0 0 1.91 2.38zm1.95-1.24c.17.11.72-.31.81-.42a14.23 14.23 0 0 0 -2-2.36c-.11 0-.75.21-.77.39a16 16 0 0 0 1.91 2.39zm3.39 9.73c-1.16-2.1-3.19-1.79-7.09-1.75s-14.87.21-16.21.27a5.73 5.73 0 0 0 -3.72 1.13c-1.43 1-1.07 5.8-1 7.75s1.07 2.95 4.18 3.1 14.43.56 17.27.56 5.75-.09 6.91-2.8a10.11 10.11 0 0 0 -.39-8.26zm-1.14 5.62c-.74 2.54-1.09 2.63-2.91 2.94s-13.67 0-17.06-.11-4.14-.35-4.6-1.25a13.7 13.7 0 0 1 -.37-4.86 2.16 2.16 0 0 1 1-1.46c.63-.29 4.48-.51 9.08-.59s13.58-.13 14.06.11 1.5 2.66.75 5.22zm-16.32-1.94c-.18-.07-.92.56-.92.65a30.89 30.89 0 0 0 3.57 3.48c.24 0 .72-.24.7-.52a30.32 30.32 0 0 0 -3.35-3.61zm3.12.06c-.17-.06-.91.57-.91.66a26.21 26.21 0 0 0 3.23 3.17c.24.05.72-.24.7-.52a25.16 25.16 0 0 0 -3.02-3.31zm3.09-.46c-.18-.06-.92.57-.92.66a34.72 34.72 0 0 0 3.76 3.59c.24 0 .72-.24.7-.53a34.73 34.73 0 0 0 -3.54-3.72zm2.91-.08c-.18-.07-.92.56-.92.65a33.79 33.79 0 0 0 3.76 3.59c.24 0 .72-.24.7-.52a32.94 32.94 0 0 0 -3.54-3.72zm-12.25 1.22c-.18-.06-.92.57-.92.66a19.86 19.86 0 0 0 2.82 2.65c.24 0 .72-.25.7-.53a19.13 19.13 0 0 0 -2.6-2.78zm15.75-1c-.18-.06-.92.57-.92.66a19.86 19.86 0 0 0 2.82 2.65c.24 0 .72-.24.7-.53a19.13 19.13 0 0 0 -2.57-2.81zm-13.97 8.64c-1.71-.06-8.05-.13-8.18.14s0 3.08 0 4.5-.13 4.47 1.44 6.13 6 2 8.25.33 2.36-4 2.41-6.85a4.08 4.08 0 0 0 -3.92-4.25zm1.75 6.46c-.79 2.23-3.22 2.86-5.4 2.65s-2.35-2.18-2.46-3.58-.11-3.17.11-3.35a64 64 0 0 1 7 0c.46.16 1.53 2.02.74 4.25zm-2.43-3.31c-.17 0-.57.6-.57.66a7.42 7.42 0 0 0 1.77 1.6c.27.09.64-.53.64-.72a7.19 7.19 0 0 0 -1.85-1.57zm-1.66 1.62c-.18 0-.58.59-.57.66a11.52 11.52 0 0 0 2.28 2c.26.08.63-.53.63-.73a11.84 11.84 0 0 0 -2.35-1.96zm-1.82 1.4c-.17 0-.57.59-.57.66a12.12 12.12 0 0 0 2.28 2c.26.08.63-.53.63-.73a11.56 11.56 0 0 0 -2.35-1.96zm-16.44-22.54c-4.33-.06-5.14 2.92-5.27 4 0 .2 0 2 .05 4.77s0 11.83.13 14.76.78 5.78 2.36 6.3 4.79.75 6.19.16 1.84-1.88 1.9-3.94 0-19.56 0-21.46-1.02-4.52-5.36-4.59zm3.85 24.83c-.32 1.21-1.09 2.12-3.17 2.21s-3.59-.81-3.87-2.1-.21-15.31-.21-18.2.51-3.39.77-3.7c.55-.64 2.19-.65 3.3-.56s2.67.32 2.85 2.45.66 18.7.33 19.9zm-2.25-11.2c.17-.09.13-.39.13-.57a5.23 5.23 0 0 0 -1.38-1.31c-.17 0-.45.75-.37.83s1.42 1.14 1.62 1.05zm.87 4.07c.18-.09.14-.39.14-.57a16.1 16.1 0 0 0 -2.41-2.25c-.18 0-.45.75-.37.83a17.91 17.91 0 0 0 2.62 1.99zm-3.36 6.39c-.18 0-.46.75-.38.83a11.29 11.29 0 0 0 2.11 1.45c.17-.09.13-.4.13-.57a9.48 9.48 0 0 0 -1.88-1.71zm3.28-4.07c.17-.09.13-.39.13-.57a15.63 15.63 0 0 0 -2.41-2.25c-.17 0-.45.75-.37.83a17.47 17.47 0 0 0 2.63 1.99zm-2.48 2.19c-.17 0-.45.75-.37.83a18.52 18.52 0 0 0 2.65 2c.17-.09.13-.39.13-.57a15.63 15.63 0 0 0 -2.43-2.26zm.25-2.3c-.18 0-.46.75-.38.83a37 37 0 0 0 3.44 3c.17-.09.13-.4.13-.57a29.57 29.57 0 0 0 -3.21-3.26zm-8.23-19.54a43.31 43.31 0 0 0 -8.11.44c-2.63.55-3.7 6.3-2 9.89s5.18 3.85 7.83 3 2.95-3.87 2.95-6.48-.43-6.85-.67-6.85zm-1.4 9.34c-.3.81-3.87 2.17-6.21.35s-1.55-6.82 0-7.37a21.8 21.8 0 0 1 6.13-.3 36.63 36.63 0 0 1 .08 7.3z" fill="#1d1d1b"/></svg>