<?xml version="1.0" ?><svg enable-background="new 0 0 64 64" viewBox="0 0 64 64" xmlns="http://www.w3.org/2000/svg"><path d="M41.543 29.73c.752-.09 4.51-5.158 4.865-5.96.354-.8.442-4.135 0-5.913-.442-1.78-1.504-5.648-4.29-7.916-2.786-2.267-6.68-2.31-13.27-1.333-6.59.978-9.066 3.602-11.19 6.982s-1.857 7.96-1.945 10.983c-.088 3.024 1.24 11.918 1.062 13.92-.177 2-1.68 2.8-3.848 2.756-2.167-.045-2.83-1.557-3.052-2.49-.22-.935-.088-5.426-.486-6.138-.4-.71-1.815-.4-3.053-.356-1.24.044-5.56.227-5.97.578-.576.49-.31 2.312-.266 5.737.045 3.425 1.24 7.65 3.01 9.962 1.768 2.312 4.953 5.114 8.756 5.38 3.804.268 6.68-.088 11.102-2.09 4.423-2 5.838-5.424 6.37-10.138.53-4.714-.974-20.634-.753-22.235s4.158-2.447 5.22-1.602c1.06.845.928 5.07.972 5.692.044.623 1.15 1.69 2.565 2.49 1.414.8 3.45 1.78 4.2 1.69zm-6.635-11.207c-1.725-1.245-3.892-1.467-5.882-.667s-2.52 2.357-2.654 4.136c-.133 1.78 0 5.425 0 5.425s-1.637-3.47-2.08-3.47c-.44 0-.884.18-.795.357.09.178 3.096 5.025 3.14 5.336.044.31.265 3.024.044 2.89-.22-.133-2.564-5.158-3.007-5.247-.442-.09-.93.578-.663.756.265.177 3.627 6.225 3.67 6.403.045.178 0 2.4 0 2.4s-2.564-5.47-2.874-5.558c-.31-.09-.973.31-.796.667.177.356 3.76 7.426 3.76 7.426l-.044 2.668s-3.23-7.426-3.45-7.426-.84.578-.708 1.112 4.113 7.916 4.07 8.182c-.045.267-.222 1.69-.443 1.467-.22-.22-3.008-6.803-3.406-6.803-.4 0-.93.49-.84.845.087.356 3.45 6.404 3.45 6.715 0 .31-.71 1.245-.886 1.112-.177-.134-2.92-5.738-3.14-5.782-.22-.044-.752.4-.62.845.134.445 3.01 5.425 2.964 5.737-.044.31-.93.978-1.106.845-.177-.133-2.21-4.847-2.654-4.936-.442-.09-.84.577-.885.8-.044.22 2.432 4.535 2.344 4.802-.088.267-.486.49-.752.356-.265-.133-1.902-4.09-2.3-4.18-.398-.09-.84.4-.885.712-.044.31 2.034 3.78 1.946 3.958-.088.178-.708.534-.93.356-.22-.178-1.9-3.47-2.21-3.513-.31-.043-.796.49-.796.712 0 .222 1.902 3.202 1.813 3.335-.088.133-.708.8-1.017.445-.31-.356-1.858-3.424-2.256-3.513-.398-.09-.973.533-.973.533s2.035 2.935 1.99 3.068c-.044.134-1.24.312-1.37.09-.134-.222-2.035-3.602-2.39-3.735-.353-.133-.884.044-.928.31-.045.268 2.255 3.203 2.122 3.292-.133.09-1.017.133-1.238-.133-.22-.267-1.858-3.024-2.123-3.068-.264-.044-.928.4-.928.4s1.327 2.223 1.15 2.268c-.177.044-2.21-.267-4.423-2.98-2.212-2.712-2.787-4.535-3.23-6.67-.442-2.134-.442-4.935-.265-5.47.13-.388 6.723-.577 6.944-.177.22.4-.443 5.47.928 7.293 1.37 1.823 3.23 2 4.954 1.467 1.725-.534 3.892-1.645 4.025-4.27.133-2.623-.885-8.715-1.15-11.606-.265-2.89-.22-7.56.752-10.316.972-2.757 2.476-5.47 5.44-6.76 2.962-1.29 9.243-2.356 12.383-2.178 3.14.178 5.308 1.067 5.352 1.334s-.84.667-.575.89c.265.22 1.327 1.378 2.08 2.712.75 1.334 1.326 2.846 1.547 2.757.22-.09.265-.268.22-.446-.043-.178-.884-2.89-1.326-3.735 0 0 1.682 2.267 2.036 4.58.354 2.31.265 3.646.044 3.38-.22-.268-3.98-7.783-4.51-7.783-.532 0-.753.356-.62 1.112.133.755 4.91 7.737 4.954 7.96.044.22-.53.977-.663.8-.132-.18-2.83-5.115-3.67-6.05-.84-.933-1.637-.755-1.68-.533-.045.222 1.99 2.624 2.52 3.735.53 1.112 1.946 3.157 1.99 3.558.044.4-.62 1.467-.84 1.156-.22-.31-3.14-6.003-3.627-6.18-.486-.18-.62.22-.575.444.044.222 3.627 6.404 3.54 6.582-.09.178-.4.756-.71.578-.31-.178-.662-.445-.662-.445S37.96 20.88 37.74 20.88s-.93.4-.752.668c.177.267 1.858 3.335 1.725 3.424-.133.09-2.344-.712-2.52-.845-.18-.134.44-4.358-1.285-5.604zM2.974 37.957c-.088.356 0 3.958.088 4.758.09.8.663 1.512 1.283 1.38.62-.134-.09-4.715-.09-4.893s.84.178 1.328-.133c.487-.312.354-.535.09-.846-.266-.312-2.54-.91-2.7-.267zM25.134 14.7c-.355-.312-1.328-.134-2.61.71-1.283.845-2.61 2.09-3.494 4.803-.885 2.713-.312 5.13-.044 5.292.663.4.93-.178 1.194-.578.265-.4-.088-3.335.796-5.737.885-2.4 3.362-3.157 4.025-3.558.664-.4.487-.622.133-.933zm38.48 16.942c-.266-.356-9.112-.133-9.82.133-.708.267-.442 1.112-.265 2.312s.31 4.625-.576 5.56c-.885.933-3.538 1.155-5.175.043s-1.55-7.337-1.55-7.515c0-.178-.087-1.245-.662-1.334-.575-.088-4.246 3.514-4.51 3.78-.266.268-2.08-1.022-2.566-1.29-.486-.266-2.333-1.47-2.61-1.066-.485.712.09 5.07.71 9.56.618 4.492 1.282 5.782 3.67 8.54 2.388 2.756 6.546 3.334 8.846 3.29 2.3-.044 5.44.356 9.465-2.89 4.025-3.247 4.777-6.227 5.22-9.562.44-3.334.086-9.204-.18-9.56zm-1.814 6.67c-.044-.178-2.212-4.892-2.698-4.536-.486.356-.708.578-.486.89.22.31 2.742 4.935 2.742 5.602s-.133 1.512-.354 1.29c-.22-.222-2.256-5.692-2.92-5.247-.662.446-.353 1.29-.31 1.468.045.178 2.478 4.67 2.434 5.203-.044.535-.53 1.87-.663 1.646-.133-.222-2.212-4.892-2.654-4.625-.44.268-.75.223-.662.624.088.4 2.565 4.758 2.565 5.025 0 .266-.885 1.155-1.062 1.066-.176-.09-2.43-5.07-2.785-4.98-.354.088-.885.31-.796.755.088.446 2.653 4.893 2.564 5.026-.088.133-1.017.934-1.24.71-.22-.22-2.078-4.713-2.476-4.713-.398 0-.885.356-.885.534 0 .178 2.21 4.58 2.034 4.714-.177.134-.93.4-1.062.268-.133-.133-2.388-4.936-2.698-4.936-.31 0-.885.133-.796.445.09.31 2.433 4.402 2.168 4.536s-1.283.49-1.548.133-1.902-4.49-2.344-4.58c-.442-.09-.796.178-.752.4.044.222 2.123 4.225 1.902 4.358-.22.133-1.194.31-1.327.09-.134-.223-2.257-3.914-2.522-3.914-.265 0-.752.578-.708.712.044.133 1.902 2.935 1.504 2.98-.398.043-3.583-1.335-5.44-3.07-1.858-1.733-3.008-5.024-3.406-11.783-.016-.267 3.23 1.822 3.98 1.644.753-.178 3.274-2.935 3.584-2.802.31.133-.133 5.514 1.415 7.16s3.23 1.957 5.308 1.467c2.08-.49 3.76-1.824 3.804-3.38.043-1.557-.31-4.58-.045-4.893.265-.31 5.794-.756 6.236-.4.444.357.444 5.293.4 5.115zm-16.72 3.07c-.84-.8-.75-2.09-.884-2.714-.133-.623-1.238-.578-1.37-.09-.4 1.468.618 3.47 1.547 4.137.93.667 1.548.534 1.725.178.177-.356-.177-.712-1.017-1.512z"/></svg>