<?xml version="1.0" encoding="utf-8"?>
<!-- Generator: Adobe Illustrator 25.4.1, SVG Export Plug-In . SVG Version: 6.00 Build 0)  -->
<svg version="1.1" id="Capa_1" xmlns="http://www.w3.org/2000/svg" xmlns:xlink="http://www.w3.org/1999/xlink" x="0px" y="0px"
	 viewBox="0 0 128 128" style="enable-background:new 0 0 128 128;" xml:space="preserve">
<style type="text/css">
	.st0{fill:#C8421D;}
	.st1{fill:#FF8F6A;}
	.st2{fill:#ED6B47;}
	.st3{fill:#FFFFFF;}
	.st4{opacity:0.2;enable-background:new    ;}
</style>
<path class="st0" d="M63.3,122.3c32,0,58-26,58-58H5.3C5.3,96.4,31.3,122.3,63.3,122.3z"/>
<path class="st1" d="M63.3,6.3v58h58C121.3,32.3,95.4,6.3,63.3,6.3z"/>
<path class="st2" d="M5.4,64.3h58v-58C31.4,6.3,5.4,32.3,5.4,64.3z"/>
<path class="st0" d="M59.3,96.5h-53c-3.5,0-6.4-2.9-6.4-6.4V37.9c0-3.5,2.9-6.4,6.4-6.4h53c3.5,0,6.4,2.9,6.4,6.4v52.2
	C65.7,93.6,62.8,96.5,59.3,96.5z"/>
<g>
	<path class="st3" d="M28.3,68.6v13.7h-7.7V44.5h15.3c4.4,0,7.9,1.1,10.4,3.3c2.5,2.2,3.8,5.1,3.8,8.8c0,3.6-1.3,6.5-3.8,8.7
		s-6,3.3-10.4,3.3H28.3z M28.3,62.8h7.6c2.1,0,3.8-0.6,4.9-1.7c1.1-1.2,1.7-2.6,1.7-4.4c0-1.8-0.5-3.3-1.6-4.5s-2.7-1.8-4.9-1.8
		h-7.6v12.4H28.3z"/>
</g>
<path class="st4" d="M65.5,37.3c0,0.2,0,0.4,0,0.6v52.2c0,3.5-2.9,6.4-6.4,6.4H22.3l3.8,5.7h38.3c3.5,0,6.4-2.9,6.4-6.4V43.6
	C70.9,40.4,68.6,37.7,65.5,37.3z"/>
</svg>
