<?xml version="1.0" ?><!DOCTYPE svg  PUBLIC '-//W3C//DTD SVG 1.1//EN'  'http://www.w3.org/Graphics/SVG/1.1/DTD/svg11.dtd'><svg enable-background="new 0 0 1024 1024" height="1024px" version="1.1" viewBox="0 0 1024 1024" width="1024px" xml:space="preserve" xmlns="http://www.w3.org/2000/svg" xmlns:xlink="http://www.w3.org/1999/xlink"><g id="Background"><linearGradient gradientTransform="matrix(0.9397 0.3421 -0.3421 0.9397 412.0643 -288.1289)" gradientUnits="userSpaceOnUse" id="bg_1_" x1="696.9546" x2="38.5381" y1="1109.5352" y2="324.9565"><stop offset="0" style="stop-color:#000000"/><stop offset="0.1921" style="stop-color:#090909"/><stop offset="0.5054" style="stop-color:#212121"/><stop offset="0.8987" style="stop-color:#494948"/><stop offset="1" style="stop-color:#545453"/></linearGradient><circle cx="512.267" cy="511.672" fill="url(#bg_1_)" id="bg" r="512"/></g><g id="Blogger_1_"><linearGradient gradientUnits="userSpaceOnUse" id="Shadow_1_" x1="298.0527" x2="849.2079" y1="347.8442" y2="898.9995"><stop offset="0" style="stop-color:#000000"/><stop offset="0.4833" style="stop-color:#090909;stop-opacity:0.5167"/><stop offset="1" style="stop-color:#181818;stop-opacity:0"/></linearGradient><path d="M560.131,1021.464L283.896,745.209V362l351.236-88.604l371.605,371.591   c0,0-10.545,45.177-30.529,83.535s-40.324,73.656-58.655,96.045s-46.806,56.337-75.849,79.049s-65.985,49.917-97.501,64.626   s-55.648,25.29-76.953,31.546s-35.305,10.869-57.759,14.664S576.944,1020.183,560.131,1021.464z" fill="url(#Shadow_1_)" id="Shadow"/><path d="M739.564,441.714c-37.859,0-46.272-19.631-46.272-46.273c0-26.642-6.31-67.305-53.283-117.083   c-45.515-48.233-99.557-49.778-99.557-49.778s-107.269,0-153.541,0c-49.778,0-87.025,27.563-121.29,68.007   c-42.768,50.479-38.561,102.36-38.561,102.36s0,159.851,0,198.762s4.207,89.391,53.634,144.076   c49.428,54.686,127.25,53.634,127.25,53.634h204.021c60.294,0,93.893-18.206,136.014-56.438   c45.571-41.365,49.077-117.084,49.077-117.084s0-125.497,0-149.334C797.054,448.725,777.423,441.714,739.564,441.714z    M370.084,402.627c0-17.424,14.125-31.549,31.55-31.549h121.465c17.424,0,31.55,14.125,31.55,31.549v7.888   c0,17.424-14.125,31.549-31.55,31.549H401.634c-17.424,0-31.55-14.125-31.55-31.549V402.627z M643.571,618.731   c0,17.424-14.125,31.549-31.549,31.549h-210.33c-17.424,0-31.55-14.125-31.55-31.549v-7.888c0-17.424,14.125-31.549,31.55-31.549   h210.33c17.424,0,31.549,14.125,31.549,31.549V618.731z" fill="#FFFFFF" id="Blogger"/></g></svg>