<?xml version="1.0" ?><!DOCTYPE svg  PUBLIC '-//W3C//DTD SVG 1.1//EN'  'http://www.w3.org/Graphics/SVG/1.1/DTD/svg11.dtd'><svg enable-background="new 0 0 1024 1024" height="1024px" id="Digg_1_" version="1.1" viewBox="0 0 1024 1024" width="1024px" xml:space="preserve" xmlns="http://www.w3.org/2000/svg" xmlns:xlink="http://www.w3.org/1999/xlink"><g id="Background"><linearGradient gradientTransform="matrix(0.9397 0.3421 0.3421 -0.9397 275.9552 765.9202)" gradientUnits="userSpaceOnUse" id="bg_2_" x1="464.1455" x2="-194.2722" y1="-72.9502" y2="711.6269"><stop offset="0" style="stop-color:#000000"/><stop offset="0.1921" style="stop-color:#090909"/><stop offset="0.5054" style="stop-color:#212121"/><stop offset="0.8987" style="stop-color:#494948"/><stop offset="1" style="stop-color:#545453"/></linearGradient><circle cx="512.001" cy="512" fill="url(#bg_2_)" id="bg_1_" r="512"/></g><linearGradient gradientTransform="matrix(1 0 0 -1 214.3398 1116.0391)" gradientUnits="userSpaceOnUse" id="Shadow_1_" x1="77.5874" x2="659.5016" y1="823.9668" y2="242.0526"><stop offset="0" style="stop-color:#000000"/><stop offset="0.4833" style="stop-color:#090909;stop-opacity:0.5167"/><stop offset="1" style="stop-color:#181818;stop-opacity:0"/></linearGradient><path d="M567.477,1021.029L165.028,618.581L170,414l117.5-4l52.48-96.653l43.937,43.987  l60.644-43.987l139.002,139.091l66.248-46.729l51.522,51.582l157.638-51.582L1021,567.74c0,0-4.919,40.479-10.932,63.355  c-6.014,22.876-8.038,32.673-15.431,52.204c-7.392,19.531-8.802,23.887-14.229,35.733c-5.428,11.846-13.891,30.131-22.634,44.982  c-8.743,14.853-22.66,37.595-34.195,52.574c-11.535,14.98-23.38,30.724-38.988,46.578c-15.607,15.854-31.491,31.432-44.841,42.196  c-13.35,10.764-31.576,25.084-46.564,34.582c-14.987,9.498-31.155,19.776-48.306,28.148c-17.149,8.372-34.252,16.731-52.29,23.146  s-34.406,12.052-49.008,15.692c-14.602,3.642-27.146,6.785-40.708,9.026S581.261,1019.733,567.477,1021.029z" fill="url(#Shadow_1_)" id="Shadow"/><g id="Digg"><path d="M687.93,405.709V618.58h100.02v26.588H687.93v65.485h171.042V405.709H687.93z M787.949,553.294   h-38.444v-89.803h38.444V553.294z" fill="#FFFFFF" id="g_1_"/><path d="M478.77,618.581h100.996v26.588H478.77v65.485h171.041V405.709H478.77V618.581z M540.996,463.491   h38.77v89.803h-38.77V463.491z" fill="#FFFFFF" id="g"/><rect fill="#FFFFFF" height="212.871" id="i" width="70.37" x="374.189" y="405.709"/><rect fill="#FFFFFF" height="61.086" id="_x2E_" width="70.37" x="374.189" y="313.347"/><path d="M270.587,405.709H165.028V618.58H339.98V313.347h-69.395L270.587,405.709L270.587,405.709z    M270.587,553.294h-39.096v-89.803h39.096V553.294z" fill="#FFFFFF" id="d"/></g></svg>