<?xml version="1.0" ?><!DOCTYPE svg  PUBLIC '-//W3C//DTD SVG 1.1//EN'  'http://www.w3.org/Graphics/SVG/1.1/DTD/svg11.dtd'><svg enable-background="new 0 0 1024 1024" height="1024px" id="GoogleDrive" version="1.1" viewBox="0 0 1024 1024" width="1024px" xml:space="preserve" xmlns="http://www.w3.org/2000/svg" xmlns:xlink="http://www.w3.org/1999/xlink"><g id="Background"><linearGradient gradientTransform="matrix(1 0 0 1 428.6797 183.0791)" gradientUnits="userSpaceOnUse" id="bg_1_" x1="258.4834" x2="-91.841" y1="810.1748" y2="-152.3328"><stop offset="0" style="stop-color:#000000"/><stop offset="0.1921" style="stop-color:#090909"/><stop offset="0.5054" style="stop-color:#212121"/><stop offset="0.8987" style="stop-color:#494948"/><stop offset="1" style="stop-color:#545453"/></linearGradient><circle cx="512.001" cy="512" fill="url(#bg_1_)" id="bg" r="512"/></g><linearGradient gradientTransform="matrix(1 0 0 1 428.6797 183.0791)" gradientUnits="userSpaceOnUse" id="Shadow_1_" x1="-60.8242" x2="421.2458" y1="233.1934" y2="715.2634"><stop offset="0" style="stop-color:#000000"/><stop offset="0.4833" style="stop-color:#090909;stop-opacity:0.5167"/><stop offset="1" style="stop-color:#181818;stop-opacity:0"/></linearGradient><path d="M534.386,1023.521L278.255,767.384l-19.512-153.968l275.643-363.674l66.508-41.144  l411.646,411.64c0,0-14.833,66.593-35.901,107.116c-21.066,40.523-36.143,69.144-57.884,95.649s-43.501,52.191-65.996,71.134  c-22.495,18.943-45.041,38.514-73.965,54.94s-51.493,29.25-77.567,38.813c-26.072,9.563-55.751,19.685-79.018,24.218  c-23.269,4.531-34.515,6.476-42.907,7.508c-8.392,1.032-19.302,2.256-26.184,2.756S534.386,1023.521,534.386,1023.521z" fill="url(#Shadow_1_)" id="Shadow"/><polygon fill="#FFFFFF" points="834.623,613.429 834.631,613.416 834.615,613.416 600.894,208.598 423.107,208.597 656.829,613.416   367.17,613.416 511.999,362.564 423.105,208.597 189.373,613.436 278.266,767.403 278.277,767.384 745.737,767.384 834.619,613.436   834.627,613.436 "/><linearGradient gradientTransform="matrix(1 0 0 1 428.6797 183.0791)" gradientUnits="userSpaceOnUse" id="SVGID_1_" x1="-122.2964" x2="-0.8667" y1="491.0723" y2="612.502"><stop offset="0" style="stop-color:#0B2637;stop-opacity:0.45"/><stop offset="0.0466" style="stop-color:#102C40;stop-opacity:0.429"/><stop offset="0.368" style="stop-color:#2D4F76;stop-opacity:0.2844"/><stop offset="0.6454" style="stop-color:#42699E;stop-opacity:0.1596"/><stop offset="0.8652" style="stop-color:#4F79B6;stop-opacity:0.0606"/><stop offset="1" style="stop-color:#547FBF;stop-opacity:0"/></linearGradient><polygon fill="url(#SVGID_1_)" points="278.205,767.403 367.098,613.436 455.99,767.403 "/><linearGradient gradientUnits="userSpaceOnUse" id="SVGID_2_" x1="386.7554" x2="518.9478" y1="244.9507" y2="377.143"><stop offset="0" style="stop-color:#0B2637;stop-opacity:0.45"/><stop offset="0.0466" style="stop-color:#102C40;stop-opacity:0.429"/><stop offset="0.368" style="stop-color:#2D4F76;stop-opacity:0.2844"/><stop offset="0.6454" style="stop-color:#42699E;stop-opacity:0.1596"/><stop offset="0.8652" style="stop-color:#4F79B6;stop-opacity:0.0606"/><stop offset="1" style="stop-color:#547FBF;stop-opacity:0"/></linearGradient><polygon fill="url(#SVGID_2_)" points="423.107,208.597 482.595,413.495 511.999,362.563 "/></svg>