<?xml version="1.0" ?><!DOCTYPE svg  PUBLIC '-//W3C//DTD SVG 1.1//EN'  'http://www.w3.org/Graphics/SVG/1.1/DTD/svg11.dtd'><svg enable-background="new 0 0 1024 1024" height="1024px" id="Instagram" version="1.1" viewBox="0 0 1024 1024" width="1024px" xml:space="preserve" xmlns="http://www.w3.org/2000/svg" xmlns:xlink="http://www.w3.org/1999/xlink"><g id="Background"><linearGradient gradientTransform="matrix(0.9397 0.3421 -0.3421 0.9397 840.8064 -105.4335)" gradientUnits="userSpaceOnUse" id="bg_2_" x1="231.4614" x2="-426.9566" y1="1084.9277" y2="300.3503"><stop offset="0" style="stop-color:#000000"/><stop offset="0.1921" style="stop-color:#090909"/><stop offset="0.5054" style="stop-color:#212121"/><stop offset="0.8987" style="stop-color:#494948"/><stop offset="1" style="stop-color:#545453"/></linearGradient><circle cx="512.001" cy="512" fill="url(#bg_2_)" id="bg_1_" r="512"/></g><linearGradient gradientTransform="matrix(1 0 0 1 428.6797 183.0791)" gradientUnits="userSpaceOnUse" id="Shadow_1_" x1="-130.5234" x2="445.5524" y1="114.9102" y2="690.9861"><stop offset="0" style="stop-color:#000000"/><stop offset="0.4833" style="stop-color:#090909;stop-opacity:0.5167"/><stop offset="1" style="stop-color:#181818;stop-opacity:0"/></linearGradient><path d="M564.542,1021.417L280,736.875L278.875,735l-9.772-381.901  c0,0,29.998-106.604,139.493-106.604s250.169,0,250.169,0s48.315,10.945,57.315,28.776h16.398l288.968,288.966  c0,0-5.925,46.839-12.128,69.719c0,0-12.438,46.392-22.561,69.75c0,0-13.656,32.226-22.135,47.624c0,0-7.117,13.825-14.727,26.011  c0,0-12.305,19.639-17.562,27.067c0,0-12.303,17.122-16.608,22.576c0,0-10.664,13.646-18.386,22.283c0,0-11.057,12.514-17.765,19.31  c0,0-6.57,6.95-14.039,13.94c0,0-23.227,21.294-33.406,29.231c0,0-38.493,28.975-56.518,39.278c0,0-26.516,15.543-43.139,23.099  c0,0-33.203,14.739-45.363,18.994c0,0-12.729,4.689-23.186,7.827c0,0-16.249,4.968-25.785,7.307c0,0-10.217,2.662-19.06,4.483  c0,0-11.486,2.598-22.819,4.37c0,0-17.959,2.747-23.312,3.362L564.542,1021.417z" fill="url(#Shadow_1_)" id="Shadow"/><g id="Instagram_1_"><circle cx="658.765" cy="364.563" fill="#FFFFFF" r="33.136"/><circle cx="512.001" cy="512" fill="none" r="121.412" stroke="#FFFFFF" stroke-miterlimit="10" stroke-width="45"/><path d="M255.358,612.506c0,91.127,73.875,165,165,165   h183.282c91.127,0,165-73.873,165-165V411.495c0-91.127-73.873-165-165-165H420.358c-91.127,0-165,73.873-165,165V612.506z" fill="none" stroke="#FFFFFF" stroke-miterlimit="10" stroke-width="45"/></g></svg>