<?xml version="1.0" ?><!DOCTYPE svg  PUBLIC '-//W3C//DTD SVG 1.1//EN'  'http://www.w3.org/Graphics/SVG/1.1/DTD/svg11.dtd'><svg enable-background="new 0 0 1024 1024" height="1024px" id="iTunes_2_" version="1.1" viewBox="0 0 1024 1024" width="1024px" xml:space="preserve" xmlns="http://www.w3.org/2000/svg" xmlns:xlink="http://www.w3.org/1999/xlink"><g id="Background"><linearGradient gradientTransform="matrix(0.9397 0.3421 0.3421 -0.9397 275.9552 765.9202)" gradientUnits="userSpaceOnUse" id="bg_2_" x1="464.1455" x2="-194.2722" y1="-72.9502" y2="711.6269"><stop offset="0" style="stop-color:#000000"/><stop offset="0.1921" style="stop-color:#090909"/><stop offset="0.5054" style="stop-color:#212121"/><stop offset="0.8987" style="stop-color:#494948"/><stop offset="1" style="stop-color:#545453"/></linearGradient><circle cx="512.001" cy="512" fill="url(#bg_2_)" id="bg_1_" r="512"/></g><g id="iTunes"><linearGradient gradientUnits="userSpaceOnUse" id="Shadow_1_" x1="254.8828" x2="1019.3848" y1="636.002" y2="636.002"><stop offset="0" style="stop-color:#000000;stop-opacity:0.8"/><stop offset="0.4833" style="stop-color:#090909;stop-opacity:0.4134"/><stop offset="1" style="stop-color:#181818;stop-opacity:0"/></linearGradient><path d="M518.585,1023.959L254.883,759.867c0,0,0.617-56.367,51.617-78.367s79.468-9,80.234-45   s0-298,0-298s-17.234-9,46.766-26s252.646-64.455,252.646-64.455l333.238,333.001c0,0-1.842,12.559-2.201,14.714   s-2.3,12.979-2.712,15.063s-2.12,10.354-2.742,13.107s-0.995,4.421-1.55,6.734s-4.096,16.252-5.393,20.763   s-5.79,19.41-8.219,26.347s-7.834,21.611-10.607,28.245s-8.15,19.002-10.982,24.884s-6.145,12.82-10.068,20.099   s-7.581,14.272-13.197,23.442s-8.495,13.98-13.362,21.15s-10.904,15.843-14.584,20.751s-8.903,11.776-12.518,16.222   S889.941,857.525,885.6,862.1s-17.4,17.794-22.003,22.091s-19.063,17.274-24.708,21.894s-15.754,12.778-23.242,18.199   s-17.968,12.808-24.413,16.941s-18.403,11.691-27.413,16.671s-25.01,13.501-34.677,17.912s-38.591,16.505-50.073,20.314   s-39.265,12.229-53.562,15.251s-29.591,6.532-48.95,8.596S532.504,1023.918,518.585,1023.959z" fill="url(#Shadow_1_)" id="Shadow"/><path d="M402.265,703.424c-0.021,4.104-0.07,5.515-0.691,11.944   c-1.316,13.64-8.539,25.301-18.075,35.618c-4.499,4.866-9.583,9.269-15.213,12.991c-11.192,7.409-24.251,11.854-37.734,14.053   c-29.316,4.775-57.055,2.569-74.883-17.274c-8.826-9.825-15.049-21.348-16.758-34.123c-2.271-16.952,0.085-35.927,13.533-48.573   c12.526-11.781,30.272-18.367,47.084-22.961c3.188-0.87,6.4-1.667,9.631-2.394c27.733-6.248,45.961-5.514,53.884-13.966   c7.925-8.454,7.132-24.259,7.132-52.558s0-239.622,0-239.622c0-3.85,0-7.701,0-11.55c0-5.527,0-11.055,0-16.583   c0-3.984,0.653-7.405,2.975-10.789c4.173-6.085,11.404-9.264,18.353-10.949c0.155-0.038,0.309-0.074,0.465-0.11   c1.606-0.375,3.225-0.71,4.839-1.043c2.551-0.528,5.105-1.037,7.66-1.542c3.389-0.67,6.78-1.329,10.172-1.984   c4.123-0.796,8.246-1.585,12.371-2.371c4.753-0.905,9.507-1.805,14.261-2.702c5.28-0.996,10.563-1.987,15.843-2.977   c5.701-1.068,11.404-2.133,17.107-3.196c6.022-1.123,12.044-2.243,18.069-3.36c6.237-1.158,12.476-2.314,18.715-3.468   c6.349-1.175,12.702-2.348,19.052-3.52c6.36-1.173,12.722-2.346,19.08-3.516c6.267-1.154,12.53-2.306,18.795-3.458   c6.066-1.115,12.135-2.229,18.202-3.341c5.768-1.058,11.532-2.115,17.298-3.171c5.359-0.982,10.722-1.963,16.081-2.944   c4.854-0.888,9.703-1.774,14.559-2.662c4.236-0.775,8.479-1.55,12.718-2.324c3.523-0.644,7.05-1.288,10.573-1.93   c2.705-0.493,5.409-0.987,8.114-1.48c6.316-1.152,13.146-2.96,18.887,0.999c5.238,3.615,7.282,10.173,7.988,16.206   c0.242,2.064,0.344,4.144,0.344,6.221c0,28.923,0,24.624,0,24.624c0,2.597,0,5.194,0,7.79c0,7.142,0,14.283,0,21.424   c0,10.725,0,21.45,0,32.175c0,13.347,0,26.693,0,40.041c0,15.008,0,30.018,0,45.023c0,15.708,0,31.417,0,47.125   c0,15.447,0,30.895,0,46.341c0,14.226,0,28.448,0,42.675c0,12.042,0,24.081,0,36.122c0,8.896,0,17.791,0,26.687   c0,16.911-0.722,35.104-10.509,49.837c-8.326,12.538-22.988,20.795-36.61,26.27c-8.447,3.395-17.24,5.947-26.189,7.609   c-19.184,3.563-38.445,3.049-56.309-5.28c-6.352-2.965-12.311-6.691-17.556-11.147c-14.128-12.008-19.857-27.777-18.633-45.438   c0.419-6.032,1.574-12.033,3.584-17.789c3.706-10.611,10.466-18.071,19.704-24.916c10.423-7.725,22.516-13.678,35.339-17.118   c8.688-2.333,17.486-4.247,26.371-5.661c8.064-1.284,16.261-1.801,24.239-3.438c13.18-2.7,24.831-9.818,24.867-25.634   c0.008-3.767,0-7.536,0-11.303c0-5.829,0-11.657,0-17.484c0-7.307,0-14.612,0-21.921c0-8.206,0-16.41,0-24.614   c0-8.521,0-17.043,0-25.563c0-8.256,0-16.513,0-24.769c0-7.411,0-14.821,0-22.232c0-5.982,0-11.966,0-17.95   c0-3.975,0-7.949,0-11.925c0-3.565,0.096-6.813-2.167-9.862c-2.69-3.626-7.373-4.682-11.896-4.302   c-0.265,0.022-0.531,0.05-0.796,0.081c-2.242,0.26-4.473,0.667-6.696,1.04c-4.253,0.711-8.498,1.458-12.741,2.208   c-5.886,1.04-11.765,2.097-17.646,3.158c-7.133,1.29-14.266,2.588-21.396,3.893c-8.005,1.463-16.008,2.934-24.008,4.406   c-8.489,1.563-16.979,3.132-25.47,4.705c-8.596,1.591-17.19,3.187-25.786,4.784c-8.318,1.546-16.642,3.095-24.961,4.645   c-7.661,1.428-15.325,2.857-22.984,4.289c-6.624,1.237-13.245,2.476-19.868,3.714c-5.201,0.973-10.401,1.947-15.604,2.921   c-3.396,0.637-6.796,1.274-10.193,1.911c-3.934,0.738-7.072,1.495-9.813,4.328c-4.263,4.403-6.205,10.75-6.205,16.432   C402.762,455.659,402.267,703.137,402.265,703.424z" fill="#FFFFFF" id="iTunes_1_"/></g></svg>