<?xml version="1.0" ?><!DOCTYPE svg  PUBLIC '-//W3C//DTD SVG 1.1//EN'  'http://www.w3.org/Graphics/SVG/1.1/DTD/svg11.dtd'><svg enable-background="new 0 0 1024 1024" height="1024px" id="Linkedin_1_" version="1.1" viewBox="0 0 1024 1024" width="1024px" xml:space="preserve" xmlns="http://www.w3.org/2000/svg" xmlns:xlink="http://www.w3.org/1999/xlink"><g id="Background"><linearGradient gradientTransform="matrix(0.9397 0.3421 -0.3421 0.9397 840.8064 -105.4335)" gradientUnits="userSpaceOnUse" id="bg_2_" x1="231.4614" x2="-426.9566" y1="1084.9277" y2="300.3503"><stop offset="0" style="stop-color:#000000"/><stop offset="0.1921" style="stop-color:#090909"/><stop offset="0.5054" style="stop-color:#212121"/><stop offset="0.8987" style="stop-color:#494948"/><stop offset="1" style="stop-color:#545453"/></linearGradient><circle cx="512.001" cy="512" fill="url(#bg_2_)" id="bg_1_" r="512"/></g><linearGradient gradientTransform="matrix(1 0 0 1 428.6797 183.0791)" gradientUnits="userSpaceOnUse" id="ShadowI_1_" x1="-93.9375" x2="60.8139" y1="96.6758" y2="251.4272"><stop offset="0" style="stop-color:#000000"/><stop offset="0.4833" style="stop-color:#090909;stop-opacity:0.5167"/><stop offset="1" style="stop-color:#181818;stop-opacity:0"/></linearGradient><polyline fill="url(#ShadowI_1_)" id="ShadowI" points="372.41,242.086 527.25,396.75 443.28,413.78 391.75,362.25 389.862,360.274   385.333,360.274 385.333,360.274 373.152,360.274 365.75,360.274 340.547,360.274 339.922,360.274 339.75,360.274 305.058,325.583   301.416,321.94 "/><linearGradient gradientTransform="matrix(1 0 0 1 428.6797 183.0791)" gradientUnits="userSpaceOnUse" id="ShadowIn_1_" x1="-131.8872" x2="417.0631" y1="170.7959" y2="719.7463"><stop offset="0" style="stop-color:#000000"/><stop offset="0.4833" style="stop-color:#090909;stop-opacity:0.5167"/><stop offset="1" style="stop-color:#181818;stop-opacity:0"/></linearGradient><path d="M571.591,1020.637l-1.122-1.121l-286.78-286.801L287,363.667h96l6.862-3.393  l56.386,56.478v-53.419h101.419l1.856-3.059l22.065,22.122c0,0,68.909-28.896,125.909-3.396l23,10.563l2.905-1.041l277.019,277.018  c0,0-26.338,78.038-55.078,119.177c0,0-39.752,61.158-73.48,91.656c0,0-45.428,43.137-76.37,62.117c0,0-57.323,34.507-82.852,44.569  c0,0-61.069,25.597-130.855,36.269c0,0-8.094,1.059-9.146,1.184" fill="url(#ShadowIn_1_)" id="ShadowIn"/><g id="Linkedin"><polygon fill="#FFFFFF" points="283.688,732.715 389.991,732.715 389.862,360.274 283.56,360.274  "/><path d="M756.622,459.913c-2.604-14.823-6.825-29.415-13.292-43.03c-3.735-7.865-8.44-15.298-14.018-21.996   c-6.51-7.813-15.169-15.005-23.964-20.125c-7.534-4.387-16.126-8.369-24.533-10.754c-4.985-1.273-10.105-2.148-15.302-2.733   c-15.595-1.755-31.854-0.905-47.479,0.299c-4.487,0.523-8.942,1.156-13.357,1.914c-4.414,0.758-8.788,1.642-13.106,2.635   c-7.62,2.349-14.249,6.053-19.914,10.912c-5.665,4.86-10.366,10.876-14.144,17.84c-2.167,3.997-4.043,8.214-5.266,12.602   c-0.063,0.231-1.167,5.42-0.94,5.42h-1.653l-0.13-52.622H443.262l0.129,372.522h105.56c0,0,0-199.771,0-227.093   c0-12.697,8.156-23.276,18.619-29.622c10.146-6.153,22.689-6.704,34.226-7.451c5.264-0.341,10.749-0.17,15.992,0.371   c9.104,0.941,18.279,3.818,25.085,10.183c11.363,10.63,13.125,26.839,13.125,41.521c0,11.863,0,23.727,0,35.591   c0,17.921,0,35.841,0,53.761c0,19.176,0,38.349,0,57.521c0,15.562,0,31.124,0,46.687c0,6.18,0,12.355,0,18.533H760.56   c0-6.171,0-12.342,0-18.513c0-15.825,0-31.65,0-47.478c0-19.484,0-38.974,0-58.46c0-31.925,0-63.85,0-95.772   C760.56,495.019,759.663,477.239,756.622,459.913z" fill="#FFFFFF"/><circle cx="336.84" cy="281.912" fill="#FFFFFF" r="53.4"/></g></svg>