<?xml version="1.0" ?><!DOCTYPE svg  PUBLIC '-//W3C//DTD SVG 1.1//EN'  'http://www.w3.org/Graphics/SVG/1.1/DTD/svg11.dtd'><svg enable-background="new 0 0 1024 1024" height="1024px" id="Messenger_1_" version="1.1" viewBox="0 0 1024 1024" width="1024px" xml:space="preserve" xmlns="http://www.w3.org/2000/svg" xmlns:xlink="http://www.w3.org/1999/xlink"><g id="Background"><linearGradient gradientTransform="matrix(1 0 0 -1 214.3398 1116.0391)" gradientUnits="userSpaceOnUse" id="bg_1_" x1="472.8232" x2="122.4993" y1="122.7856" y2="1085.2924"><stop offset="0" style="stop-color:#000000"/><stop offset="0.1921" style="stop-color:#090909"/><stop offset="0.5054" style="stop-color:#212121"/><stop offset="0.8987" style="stop-color:#494948"/><stop offset="1" style="stop-color:#545453"/></linearGradient><circle cx="512.001" cy="512" fill="url(#bg_1_)" id="bg" r="512"/></g><linearGradient gradientTransform="matrix(1 0 0 -1 214.3398 1116.0391)" gradientUnits="userSpaceOnUse" id="Shadow_1_" x1="63.1528" x2="628.8301" y1="776.6504" y2="210.9732"><stop offset="0" style="stop-color:#000000"/><stop offset="0.4833" style="stop-color:#090909;stop-opacity:0.5167"/><stop offset="1" style="stop-color:#181818;stop-opacity:0"/></linearGradient><path d="M475.819,1022.741L270.952,817.874L308,683c0,0-132.867-123.886-66.87-276.878  s204.105-167.339,241.488-167.231s154.492,2.239,215.989,53.237l32.671,16.025l286.143,286.144c0,0-6.679,41.538-16.41,69.861  c-9.73,28.323-20.438,55.785-27.694,70.221c-7.258,14.437-36.855,66.198-52.479,85.876s-23.285,31.295-45.047,52.023  c-21.762,20.728-53.967,48.931-75.167,62.672s-63.565,38.788-89.732,48.983c-26.167,10.196-38.183,15.77-63.759,22.044  c-25.576,6.273-54.231,12.42-73.68,14.371c-19.448,1.952-50.669,3.596-56.075,3.623C511.972,1024,478.134,1022.908,475.819,1022.741  z" fill="url(#Shadow_1_)" id="Shadow"/><path d="M512,238.891  c-155.541,0-281.633,118.619-281.633,264.943c0,69.376,28.358,132.513,74.749,179.744l-10.61,101.532l94.169-43.032  c37.248,17.095,79.092,26.699,123.325,26.699c155.542,0,281.633-118.619,281.633-264.942  C793.633,357.51,667.542,238.891,512,238.891z" fill="none" stroke="#FFFFFF" stroke-miterlimit="10" stroke-width="40"/><polygon fill="#FCFCFC" points="332.421,585.326 481.896,438.674 556.926,505.039 691.579,438.674 541.519,585.326 466.822,518.961   "/></svg>