<?xml version="1.0" ?><!DOCTYPE svg  PUBLIC '-//W3C//DTD SVG 1.1//EN'  'http://www.w3.org/Graphics/SVG/1.1/DTD/svg11.dtd'><svg enable-background="new 0 0 1024 1024" height="1024px" id="OneDrive_1_" version="1.1" viewBox="0 0 1024 1024" width="1024px" xml:space="preserve" xmlns="http://www.w3.org/2000/svg" xmlns:xlink="http://www.w3.org/1999/xlink"><g id="Background"><linearGradient gradientTransform="matrix(1 0 0 -1 214.3398 1116.0391)" gradientUnits="userSpaceOnUse" id="bg_1_" x1="472.8232" x2="122.4993" y1="122.7856" y2="1085.2924"><stop offset="0" style="stop-color:#000000"/><stop offset="0.1921" style="stop-color:#090909"/><stop offset="0.5054" style="stop-color:#212121"/><stop offset="0.8987" style="stop-color:#494948"/><stop offset="1" style="stop-color:#545453"/></linearGradient><circle cx="512.001" cy="512" fill="url(#bg_1_)" id="bg" r="512"/></g><linearGradient gradientTransform="matrix(1 0 0 -1 214.3398 1116.0391)" gradientUnits="userSpaceOnUse" id="Shadow_1_" x1="102.7158" x2="627.7204" y1="734.7559" y2="209.7513"><stop offset="0" style="stop-color:#000000"/><stop offset="0.4833" style="stop-color:#090909;stop-opacity:0.5167"/><stop offset="1" style="stop-color:#181818;stop-opacity:0"/></linearGradient><path d="M559.855,1021.793L182.701,644.659c0,0-48.97-106.695,48.965-113.659h24  c0,0-5.333-149.333,100.667-155.333c0,0,47.333,0.667,65.333,9.333c0,0,64-94,161.333-75.333l72.583,12.417l344.627,344.627  c0,0-9.07,27.976-16.439,44.57c-7.37,16.594-14.479,32.526-23.09,47.543c-8.61,15.016-26.787,45.823-43.889,66.719  c-17.101,20.896-29.011,36.129-48.023,53.689c-19.012,17.56-34.783,32.584-56.375,47.429  c-21.593,14.845-35.492,24.374-52.038,33.176c-16.547,8.802-36.239,18.833-51.027,24.75s-35.027,14.315-57.962,20.215  c-22.936,5.9-44.977,10.931-59.398,12.986S559.855,1021.793,559.855,1021.793z" fill="url(#Shadow_1_)" id="Shadow"/><path d="M803.431,546.258c39.892,5.517,69.003,40.525,67.148,80.754c0,35.329-19.75,77.022-67.148,77.022H418.757  c-73.729,0-100.502-50.472-100.502-102.479c0-87.773,96.991-90.188,96.991-90.188s7.9-95.236,92.603-114.546  c52.896-15.158,109.44,6.494,138.686,53.104c30.569-15.615,66.48-16.9,98.089-3.511C783.696,463.541,807.398,503.78,803.431,546.258  z" fill="#FFFFFF"/><path d="M293.897,604.849c0-96.99,102.478-111.475,102.478-111.475c9.77-56.262,51.145-101.826,106.208-116.959  c55.587-17.62,116.197,2.583,150.095,50.031c15.373-8.29,32.87-11.804,50.25-10.094c-7.09-57.202-44.891-105.947-98.526-127.054  c-71.072-29.483-152.886,0.362-188.277,68.684c-34.635-19.813-76.97-20.639-112.352-2.194  c-43.982,24.141-69.162,72.336-63.856,122.227c-50.808,4.422-89.011,48.25-86.458,99.187c1.581,52.282,43.406,94.394,95.675,96.333  h64.295C300.299,653.059,293.505,629.166,293.897,604.849z" fill="#F9F9F9"/></svg>