<?xml version="1.0" ?><!DOCTYPE svg  PUBLIC '-//W3C//DTD SVG 1.1//EN'  'http://www.w3.org/Graphics/SVG/1.1/DTD/svg11.dtd'><svg enable-background="new 0 0 1024 1024" height="1024px" id="Tumblr_1_" version="1.1" viewBox="0 0 1024 1024" width="1024px" xml:space="preserve" xmlns="http://www.w3.org/2000/svg" xmlns:xlink="http://www.w3.org/1999/xlink"><g id="Background"><linearGradient gradientTransform="matrix(0.9397 0.3421 -0.3421 0.9397 840.8064 -105.4335)" gradientUnits="userSpaceOnUse" id="bg_2_" x1="231.4614" x2="-426.9566" y1="1084.9277" y2="300.3503"><stop offset="0" style="stop-color:#000000"/><stop offset="0.1921" style="stop-color:#090909"/><stop offset="0.5054" style="stop-color:#212121"/><stop offset="0.8987" style="stop-color:#494948"/><stop offset="1" style="stop-color:#545453"/></linearGradient><circle cx="512.001" cy="512" fill="url(#bg_2_)" id="bg_1_" r="512"/></g><linearGradient gradientTransform="matrix(1 0 0 1 428.6797 183.0791)" gradientUnits="userSpaceOnUse" id="Shadow_1_" x1="-74.165" x2="445.7117" y1="170.9072" y2="690.7841"><stop offset="0" style="stop-color:#000000"/><stop offset="0.4833" style="stop-color:#090909;stop-opacity:0.5167"/><stop offset="1" style="stop-color:#181818;stop-opacity:0"/></linearGradient><path d="M684.609,994.026L443.487,752.904l-5.987-9.237V519.591l-27.016-8.565L352.5,453.026  l1.25-70.526v-27.75C353.75,354.75,455,398,472,240l68.5-9.974l453.659,454.243c0,0-12.631,33.665-21.249,50.679  c0,0-11.133,22.501-18.366,34.563c0,0-11.915,19.896-17.896,28.595c0,0-7.914,11.761-13.886,19.636c0,0-21.48,27.179-27.008,33.34  c0,0-16.074,17.597-22.133,23.546c0,0-17.813,17.188-24.992,23.335c0,0-13.354,11.424-19.823,16.435c0,0-9.938,7.717-14.861,11.262  c-4.924,3.545-23.689,16.476-31.743,21.364c0,0-26.945,15.813-36.122,20.398c0,0-15.397,7.696-22.446,10.823  c0,0-13.388,6.019-22.212,9.435L684.609,994.026z" fill="url(#Shadow_1_)" id="Shadow"/><path d="M626.201,676.062c-10.991,2.064-23.188,3.907-34.961,3.468c-2.944-0.11-5.86-0.364-8.726-0.793  c-6.702-0.986-13.518-3.562-18.852-7.76c-4.216-3.317-7.982-7.358-10.859-11.887c-10.733-16.893-11.972-37.618-11.955-57.082  c0.013-12.754-0.019-25.509-0.021-38.264c-0.002-17.061,0.013-34.117,0.007-51.176c-0.004-13.985-0.01-27.973-0.003-41.956  c0.003-5.778,0.001-11.559,0.001-17.336l120.25-0.083v-101.25L540.5,352.026v-122h-78c-14,134-110,123-110,123v100h58  c0.001,0.157,0.007,0.315,0.007,0.476c0.026,9.832-0.008,19.665-0.016,29.497c-0.019,19.881-0.009,39.764,0.021,59.646  c0.034,22.246,0.056,44.498-0.027,66.745c-0.152,40.97-1.942,80.139,15.908,118.125c12.85,27.345,34.006,42.99,61.9,53.282  c37.316,13.771,77.291,15.647,116.501,10.668c11.219-1.424,22.37-3.361,33.452-5.604c3.006-0.608,33.253-6.061,33.253-7.499  c0-0.001,0-115.334,0-115.334C656.741,668.335,641.637,673.164,626.201,676.062z" fill="#FFFFFF" id="Tumblr"/></svg>