<?xml version="1.0" ?><!DOCTYPE svg  PUBLIC '-//W3C//DTD SVG 1.1//EN'  'http://www.w3.org/Graphics/SVG/1.1/DTD/svg11.dtd'><svg enable-background="new 0 0 1024 1024" height="1024px" id="Twich_3_" version="1.1" viewBox="0 0 1024 1024" width="1024px" xml:space="preserve" xmlns="http://www.w3.org/2000/svg" xmlns:xlink="http://www.w3.org/1999/xlink"><g id="Background"><linearGradient gradientTransform="matrix(0.9397 0.3421 0.3421 -0.9397 122.9679 437.8215)" gradientUnits="userSpaceOnUse" id="SVGID_1_" x1="720.1328" x2="61.7166" y1="-328.9106" y2="455.6677"><stop offset="0" style="stop-color:#000000"/><stop offset="0.1921" style="stop-color:#090909"/><stop offset="0.5054" style="stop-color:#212121"/><stop offset="0.8987" style="stop-color:#494948"/><stop offset="1" style="stop-color:#545453"/></linearGradient><circle cx="512.001" cy="512" fill="url(#SVGID_1_)" r="512"/></g><linearGradient gradientTransform="matrix(1 0 0 -1 -41.6602 860.04)" gradientUnits="userSpaceOnUse" id="SVGID_2_" x1="328.5684" x2="919.4302" y1="580.5977" y2="-10.2641"><stop offset="0" style="stop-color:#000000"/><stop offset="0.4833" style="stop-color:#090909;stop-opacity:0.5167"/><stop offset="1" style="stop-color:#181818;stop-opacity:0"/></linearGradient><path d="M1023.665,530.521L767.326,274.184h-475.16l-34.646,92.805v368.745l287.26,287.233  C806.167,1006.453,1014.303,793.799,1023.665,530.521z" fill="url(#SVGID_2_)"/><g id="Twich"><rect fill="#FFFFFF" height="139.825" width="45.784" x="466.216" y="412.786"/><rect fill="#FFFFFF" height="139.825" width="45.783" x="593.668" y="412.786"/><path d="M291.743,274.197l-34.646,92.805v368.744h128.689v68.057h73.006l64.345-68.057h103.941   l139.825-136.113V274.197H291.743z M721.12,574.885l-81.668,80.432H509.525l-65.582,69.295v-69.295H338.765V319.981H721.12V574.885   z" fill="#FFFFFF" id="Twich_1_"/></g></svg>