<?xml version="1.0" ?><!DOCTYPE svg  PUBLIC '-//W3C//DTD SVG 1.1//EN'  'http://www.w3.org/Graphics/SVG/1.1/DTD/svg11.dtd'><svg enable-background="new 0 0 1024 1024" height="1024px" id="Twitter" version="1.1" viewBox="0 0 1024 1024" width="1024px" xml:space="preserve" xmlns="http://www.w3.org/2000/svg" xmlns:xlink="http://www.w3.org/1999/xlink"><g id="Background"><linearGradient gradientTransform="matrix(0.9397 0.3421 0.3421 -0.9397 275.9552 765.9202)" gradientUnits="userSpaceOnUse" id="bg_2_" x1="464.1455" x2="-194.2722" y1="-72.9502" y2="711.6269"><stop offset="0" style="stop-color:#000000"/><stop offset="0.1921" style="stop-color:#090909"/><stop offset="0.5054" style="stop-color:#212121"/><stop offset="0.8987" style="stop-color:#494948"/><stop offset="1" style="stop-color:#545453"/></linearGradient><circle cx="512.001" cy="512" fill="url(#bg_2_)" id="bg_1_" r="512"/></g><linearGradient gradientTransform="matrix(1 0 0 -1 214.3398 1116.0391)" gradientUnits="userSpaceOnUse" id="Shadow_1_" x1="121.0908" x2="667.3148" y1="795.4238" y2="249.1999"><stop offset="0" style="stop-color:#000000"/><stop offset="0.4833" style="stop-color:#090909;stop-opacity:0.5167"/><stop offset="1" style="stop-color:#181818;stop-opacity:0"/></linearGradient><path d="M543.025,1023.193L216.889,697.258c0,0,177.111,43.742,198.611-53.758  c0,0-135.5-41.5-33-71.5c0,0-91.5-66.5-46-69c0,0-93.236-117.422-52.5-128c0,0,163.093,87.593,257.838,89.093  c0,0,1.75-148.493,63.247-154.493c0,0,80.996-3,95.995,16.5L785,291.5l9-7.11l230,229.611c0,0-0.209,37.308-3.847,61.519  c0,0-4.216,32.639-9.768,54.014c0,0-5.913,24.117-10.48,37.769c0,0-7.943,24.174-13.622,37.58c0,0-18.555,47.635-42.019,81.55  c0,0-31.317,51.702-67.666,85.188c0,0-48.878,47.305-81.832,67.348c0,0-95.768,69.422-245.768,84.229" fill="url(#Shadow_1_)" id="Shadow"/><path d="M742.988,348.513c0,0,52.681-44.338,51.012-64.124c0,0-60.785,26.698-74.135,27.89  c0,0-4.227-4.253-11.146-9.845c-2.307-1.864-4.912-3.877-7.762-5.93c-5.277-3.853-10.833-7.164-16.602-9.969  c-2.884-1.402-5.82-2.679-8.797-3.84c-19.379-8.492-40.61-10.572-61.45-8.292c-2.978,0.326-5.946,0.741-8.901,1.238  c-34.565,5.411-64.125,26.388-82.727,54.989c-1.67,2.609-3.218,5.287-4.629,8.033c-2.818,5.492-5.089,11.256-6.686,17.269  c-0.627,2.22-1.313,4.805-1.96,7.565c-0.648,2.76-1.259,5.695-1.736,8.615c-1.907,11.681,0,49.583,0,49.583  s-153.753,4.768-252.442-123.003c0,0-48.628,92.014,35.28,156.376c0,0-17.064,7.628-49.295-11.442c0,0-16.02,70.082,87.912,118.234  H278.39c0,0,17.64,77.711,111.562,84.862c0,0-44.338,59.594-173.063,50.535c0,0,116.14,80.755,265.766,43.276  c2.671-0.67,5.354-1.377,8.047-2.122c23.682-7.305,47.52-15.886,69.171-27.394c1.889-0.979,3.779-1.982,5.671-3.008  c5.677-3.072,11.377-6.343,17.099-9.816c0,0,157.32-85.241,170.191-305.489c0,0,33.063-19.401,54.277-56.587  C807.111,336.118,747.517,349.943,742.988,348.513z" fill="#FFFFFF" id="Twitter_1_"/></svg>