<?xml version="1.0" ?><!DOCTYPE svg  PUBLIC '-//W3C//DTD SVG 1.1//EN'  'http://www.w3.org/Graphics/SVG/1.1/DTD/svg11.dtd'><svg enable-background="new 0 0 1024 1024" height="1024px" id="Vimeo" version="1.1" viewBox="0 0 1024 1024" width="1024px" xml:space="preserve" xmlns="http://www.w3.org/2000/svg" xmlns:xlink="http://www.w3.org/1999/xlink"><g id="Background"><linearGradient gradientTransform="matrix(0.9397 0.3421 -0.3421 0.9397 840.8064 -105.4335)" gradientUnits="userSpaceOnUse" id="bg_2_" x1="231.4614" x2="-426.9566" y1="1084.9277" y2="300.3503"><stop offset="0" style="stop-color:#000000"/><stop offset="0.1921" style="stop-color:#090909"/><stop offset="0.5054" style="stop-color:#212121"/><stop offset="0.8987" style="stop-color:#494948"/><stop offset="1" style="stop-color:#545453"/></linearGradient><circle cx="512.001" cy="512" fill="url(#bg_2_)" id="bg_1_" r="512"/></g><linearGradient gradientTransform="matrix(1 0 0 1 428.6797 183.0791)" gradientUnits="userSpaceOnUse" id="Shadow_1_" x1="-90.9854" x2="465.6265" y1="113.8843" y2="670.4961"><stop offset="0" style="stop-color:#000000"/><stop offset="0.4833" style="stop-color:#090909;stop-opacity:0.5167"/><stop offset="1" style="stop-color:#181818;stop-opacity:0"/></linearGradient><path d="M619.631,1012.668L411.878,804.915l-82.212-207.249l-9.992-16.117L200.728,462.614  c0,0,89.605-142.866,136.939-151.573s76.916,0.003,76.916,0.003l114.722,112.193L781.5,307.069l241.237,241.169  c0,0-3.751,48.486-11.731,78.879c-7.979,30.391-7.52,32.307-15.338,53.267s-9.086,25.174-15.042,38.172s-8.803,20.064-16.746,34.381  c-7.942,14.315-12.306,22.747-21.325,36.245c-9.019,13.498-14.937,22.699-24.649,34.929c-9.716,12.228-19.336,24.382-30.356,35.898  c-11.02,11.52-29.09,29.809-42.788,41.125c-13.696,11.318-33.043,26.724-47.339,35.994c-14.296,9.272-29.8,19.551-48.23,28.733  c-18.432,9.182-25.539,13.217-42.746,19.926s-33.903,13.06-49.179,17.313C641.992,1007.354,630.444,1010.479,619.631,1012.668z" fill="url(#Shadow_1_)" id="Shadow"/><path d="M793.68,324.262c-14.617-28.646-49.285-48.669-98.314-48.367  c-33.438,0.206-67.808,8.995-94.709,29.499c-7.206,5.492-13.907,12.002-19.73,18.947c-8.592,10.248-16.521,21.682-23.195,33.273  c-7.832,13.604-16.051,27.171-22.653,41.431c-2.663,5.749-6.374,12.951-7.079,19.376c-0.931,8.485,7.093,5.076,12.678,3.418  c19.48-5.781,61.556-23.226,76.938,11.604c5.737,12.995,5.163,26.829,2.116,40.17c-3.178,13.919-7.666,26.333-14.538,42.137  c-8.291,19.065-41.962,71.363-60.566,89.15c-6.728,6.432-13.922,12.646-22.491,16.401c-15.168,6.648-23.354-7.203-27.735-20.354  c-13.404-40.212-22.222-81.775-29.123-123.546c-1.982-11.991-3.808-24.008-5.548-36.035c-2.2-15.205-4.551-30.396-7.72-45.434  c-4.08-19.359-9.77-38.423-18.275-56.318c-9.595-20.178-23.764-36.528-43.168-47.572c-15.166-8.632-38.222-9.101-54.477-3.642  c-5.072,1.703-9.997,3.959-14.754,6.398c-9.64,4.943-18.466,11.494-26.936,18.205c-42,33.277-116,103.277-123.333,107.277  l29.664,42.334c0,0,34.682-24.702,34.75-24.75c11.49-8.186,27.447-6.495,36.287,4.492c10.895,13.541,16.244,30.305,21.132,46.716  c5.377,18.055,11.292,35.94,16.524,54.043c3.11,10.76,6.051,21.567,8.758,32.437c7.232,29.039,14.576,58.06,22.917,86.802  c3.944,13.594,7.92,27.243,12.633,40.595c4,11.333,21.332,60.667,44.666,88c9.594,11.234,22.225,23.143,35.865,29.092  c22.409,9.771,46.365,0.276,66.329-10.907c43.032-24.104,79.618-57.297,115.53-90.689c30.976-28.805,59.92-60.019,85.874-93.441  c12.098-15.581,23.42-31.896,33.86-48.636c24.533-39.338,46.521-76.855,60.658-121.676  C813.729,400.114,813.307,362.728,793.68,324.262z" fill="#FFFFFF" id="Vimeo_1_"/></svg>