<?xml version="1.0" ?><!DOCTYPE svg  PUBLIC '-//W3C//DTD SVG 1.1//EN'  'http://www.w3.org/Graphics/SVG/1.1/DTD/svg11.dtd'><svg enable-background="new 0 0 1024 1024" height="1024px" id="VK" version="1.1" viewBox="0 0 1024 1024" width="1024px" xml:space="preserve" xmlns="http://www.w3.org/2000/svg" xmlns:xlink="http://www.w3.org/1999/xlink"><g id="Background"><linearGradient gradientTransform="matrix(0.9397 0.3421 0.3421 -0.9397 275.9552 765.9202)" gradientUnits="userSpaceOnUse" id="bg_2_" x1="464.1455" x2="-194.2722" y1="-72.9502" y2="711.6269"><stop offset="0" style="stop-color:#000000"/><stop offset="0.1921" style="stop-color:#090909"/><stop offset="0.5054" style="stop-color:#212121"/><stop offset="0.8987" style="stop-color:#494948"/><stop offset="1" style="stop-color:#545453"/></linearGradient><circle cx="512.001" cy="512" fill="url(#bg_2_)" id="bg_1_" r="512"/></g><linearGradient gradientTransform="matrix(1 0 0 -1 214.3398 1116.0391)" gradientUnits="userSpaceOnUse" id="Shadow_1_" x1="129.0366" x2="691.6544" y1="836.3135" y2="273.6957"><stop offset="0" style="stop-color:#000000"/><stop offset="0.4833" style="stop-color:#090909;stop-opacity:0.5167"/><stop offset="1" style="stop-color:#181818;stop-opacity:0"/></linearGradient><path d="M668.796,999.546L318.767,649.494L281,512l-7.793-162.105L414.582,491.27  l134.373-145.296l91.681,91.663l163.37-91.597l217.447,217.363c0,0-4.848,40.805-9.908,61.333  c-5.061,20.527-11.34,43.7-17.04,58.944s-11.797,30.787-16.893,41.563c-5.097,10.775-9.94,21.222-16.524,32.845  s-10.039,17.964-16.383,27.726c-6.344,9.761-13.304,20.791-23.021,33.324c-9.719,12.533-11.48,15.862-24.392,30.056  c-12.911,14.192-18.769,21.396-33.417,34.73s-21.867,20.404-36.556,31.485c-14.689,11.081-33.284,24.755-49.068,34.002  s-28.288,16.533-41.838,22.911s-27.085,12.633-39.324,17.196C684.85,994.083,681.37,995.686,668.796,999.546z" fill="url(#Shadow_1_)" id="Shadow"/><path d="M828.88,706.033c-0.198-3.304-0.931-7.256-2.244-10.306c-2.822-6.555-6.797-13.357-11.069-19.067  c-22.258-29.75-37.026-44.946-48.155-56.933c-11.13-11.984-56.933-55.22-59.929-63.78c-2.996-8.562-3.96-12.36,4.548-23.918  c8.508-11.559,27.129-40.72,41.684-61.694c9.128-13.155,17.42-26.91,25.612-40.659c9.659-16.21,18.743-32.813,26.485-50.029  c3.462-7.698,6.604-14.711,4.46-23.337c-1.437-5.779-4.687-10.856-10.739-12.282c-3.304-0.778-6.909-0.857-10.29-0.857  c-12.627,0-45.589,0-45.589,0c-5.958,0-11.917-0.087-17.876-0.076c-6.109,0.011-12.269-0.037-18.36,0.485  c-8.666,0.742-13.977,7.425-18.336,14.163c-5.333,8.245-10.187,16.823-15.36,25.172c-3.537,5.705-6.998,11.455-10.397,17.243  c-5.312,9.04-10.784,17.983-16.256,26.927c-2.271,3.71-4.55,7.416-6.789,11.146c-6.421,10.699-62.069,83.898-73.198,86.896  s-14.982,2.142-14.982-20.547c0-22.687,0-151.533,0-151.533s-0.854-9.935-10.272-9.935s-53.099,0-53.099,0h-90.09  c0,0-21.188,0.088-13.697,19.138c7.491,19.049,29.644,24.828,29.644,56.611c0,31.782,0,124.565,0,124.565  s-3.745,27.931-27.931,4.815c-19.059-18.215-34.762-39.751-48.637-62.081c-14.426-23.215-26.048-47.333-36.4-72.602  c-2.961-7.227-5.893-14.466-8.934-21.659c-3.174-7.509-6.319-15.031-9.363-22.593c-3.535-8.784-7.317-20.265-16.849-24.309  c-4.792-2.033-10.092-1.933-15.2-1.932c-18.943,0.005-37.885,0.058-56.827,0.022c-5.558-0.01-11.116-0.016-16.674-0.002  c-13.123,0.031-29.445-0.356-32.558,16.038c-1.794,9.443,1.772,19.523,4.757,28.367c1.354,4.02,3.023,7.884,4.537,11.837  c7.7,20.099,17.191,39.48,26.987,58.622c23.277,45.48,47.248,89.673,79.387,129.647c32.479,40.396,70.825,79.544,115.996,105.676  c12.563,7.268,25.77,13.4,39.527,18.061c53.079,17.979,111.295,16.267,129.273,4.281c17.979-11.986-3.424-90.75,12.842-100.167  c16.267-9.418,45.375,11.13,66.777,29.965c21.403,18.834,37.669,35.1,49.656,47.942c7.506,8.042,12.79,17.64,22.575,23.376  c16.186,9.486,37.753,8.435,55.808,8.485c10.065,0.029,20.133,0.063,30.199-0.063c6.803-0.084,13.608,0.136,20.406-0.193  C815.109,724.418,829.718,720.008,828.88,706.033z" fill="#FFFFFF" id="VK_1_"/></svg>