<?xml version="1.0" ?><!DOCTYPE svg  PUBLIC '-//W3C//DTD SVG 1.1//EN'  'http://www.w3.org/Graphics/SVG/1.1/DTD/svg11.dtd'><svg height="512px" style="enable-background:new 0 0 512 512;" version="1.1" viewBox="0 0 512 512" width="512px" xml:space="preserve" xmlns="http://www.w3.org/2000/svg" xmlns:xlink="http://www.w3.org/1999/xlink"><g id="_x37__x2C__Extension_Manager_x2C__Adobe"><g><g><rect height="492" style="fill:#EAEAEA;" width="492" x="10" y="10"/><g><path d="M501.508,512H10.492C4.697,512,0,507.303,0,501.508V10.492C0,4.697,4.697,0,10.492,0h491.016      C507.303,0,512,4.697,512,10.492v491.016C512,507.303,507.303,512,501.508,512z M21,491h470V21H21V491z" style="fill:#B0B0B0;"/></g></g><path d="M87.598,259.929l46.673-76.641h74.673l-46.669,76.641l46.669,76.64h-74.673L87.598,259.929z     M265.442,259.929l-41.756-69.269l-41.761,69.269l41.761,69.271L265.442,259.929z M406.942,349.712l-36.967-70.297l-43.609,71.403    l-86.782-0.077l36.914,71.063h87.787L406.942,349.712z M281.977,264.025l-42.569,71.888l80.159-0.32l40.699-71.567H281.977z     M285.52,99.29l-41.941,64.224l90.156-0.123l40.354,75.854l42.184-66.275l-41.761-73.68H285.52z M280.664,251.21h79.844    l-42.741-71.827h-78.604L280.664,251.21z" style="fill:#4C1118;"/></g></g><g id="Layer_1"/></svg>