<?xml version="1.0" ?><!DOCTYPE svg  PUBLIC '-//W3C//DTD SVG 1.1//EN'  'http://www.w3.org/Graphics/SVG/1.1/DTD/svg11.dtd'><svg height="512px" style="enable-background:new 0 0 512 512;" version="1.1" viewBox="0 0 512 512" width="512px" xml:space="preserve" xmlns="http://www.w3.org/2000/svg" xmlns:xlink="http://www.w3.org/1999/xlink"><g id="_x31_6_x2C__AfterEffects_x2C__After_Effects_x2C__Adobe"><g><g><rect height="492" style="fill:#D291FF;" width="492" x="10" y="10"/><g><path d="M501.508,512H10.492C4.697,512,0,507.303,0,501.508V10.492C0,4.697,4.697,0,10.492,0h491.016      C507.303,0,512,4.697,512,10.492v491.016C512,507.303,507.303,512,501.508,512z M21,491h470V21H21V491z" style="fill:#9E6DBF;"/></g></g><g><rect height="426" style="fill:#1F0040;" width="426" x="43" y="43"/><g><path d="M480,469.508c0,5.795-4.697,10.492-10.492,10.492H43.492C37.698,480,33,475.303,33,469.508      V43.492C33,37.698,37.698,33,43.492,33h426.016C475.303,33,480,37.698,480,43.492V469.508z M54,458h404V54H54V458z" style="fill:#170030;"/></g></g><g><g id="XMLID_80_"><path d="M151.621,305.044l-17.739,60.464c-0.288,2.082-1.165,2.78-2.907,2.78h-29.656      c-2.034,0-2.616-1.042-2.034-3.478c15.702-53.161,42.159-141.771,60.768-201.886c0.869-3.474,1.743-6.95,2.325-19.113      c0-1.386,0.874-2.083,1.743-2.083h40.125c1.456,0,1.743,0.348,2.325,1.739c21.52,71.231,45.066,149.762,67.164,221.693      c0.582,2.086,0,3.128-1.742,3.128h-32.563c-1.456,0-2.039-0.698-2.62-2.087l-18.609-61.157H151.621z M210.35,270.993      c-5.815-23.284-20.06-70.191-25.875-94.516h-0.291c-4.359,22.935-16.284,62.198-25.006,94.516H210.35z" id="XMLID_81_" style="fill:#D291FF;"/></g><g id="XMLID_72_"><path d="M318.664,291.967c0.594,25.986,14.524,44.455,44.463,44.455      c10.97,0,24.309-2.054,37.054-8.55c0.889-0.34,1.779,0,1.779,1.71v27.355c0,2.395-0.594,3.075-1.779,3.765      c-11.56,6.835-25.49,9.23-44.464,9.57c-53.947,0-73.512-42.4-73.512-85.485c0-48.9,25.198-87.544,69.657-87.544      c43.578,0,61.067,38.3,61.067,70.105c0,14.699-1.485,21.54-2.67,22.569c-3.555,1.71-14.819,2.05-31.123,2.05H318.664z       M366.092,265.638c10.97,0,12.748-1.37,13.045-2.74c0-0.681,0-2.391,0-3.76c0-10.255-5.93-32.485-28.755-32.485      c-19.269,0-29.347,17.099-31.718,38.985H366.092z" id="XMLID_73_" style="fill:#D291FF;"/></g></g></g></g><g id="Layer_1"/></svg>