<?xml version="1.0" ?><!DOCTYPE svg  PUBLIC '-//W3C//DTD SVG 1.1//EN'  'http://www.w3.org/Graphics/SVG/1.1/DTD/svg11.dtd'><svg height="512px" style="enable-background:new 0 0 512 512;" version="1.1" viewBox="0 0 512 512" width="512px" xml:space="preserve" xmlns="http://www.w3.org/2000/svg" xmlns:xlink="http://www.w3.org/1999/xlink"><g id="_x31_1_x2C__Illustrator_x2C__Adobe_x2C__Ai"><g><g><rect height="492" style="fill:#F0A024;" width="492" x="10" y="10"/><g><path d="M501.508,512H10.492C4.697,512,0,507.303,0,501.508V10.492C0,4.697,4.697,0,10.492,0h491.016      C507.303,0,512,4.697,512,10.492v491.016C512,507.303,507.303,512,501.508,512z M21,491h470V21H21V491z" style="fill:#B4781B;"/></g></g><g><rect height="426" style="fill:#373122;" width="426" x="43" y="43"/><g><path d="M480,469.508c0,5.795-4.697,10.492-10.492,10.492H43.492C37.698,480,33,475.303,33,469.508      V43.492C33,37.698,37.698,33,43.492,33h426.016C475.303,33,480,37.698,480,43.492V469.508z M54,458h404V54H54V458z" style="fill:#29251A;"/></g></g><g><g id="XMLID_144_"><path d="M187.351,308.758l-17.735,58.81c-0.291,2.031-1.165,2.707-2.908,2.707h-29.656      c-2.034,0-2.612-1.017-2.034-3.379c15.701-51.717,42.155-137.905,60.759-196.381c0.873-3.378,1.747-6.76,2.325-18.59      c0-1.351,0.874-2.028,1.747-2.028h40.121c1.451,0,1.743,0.339,2.325,1.689c21.509,69.291,45.058,145.68,67.151,215.645      c0.582,2.026,0,3.043-1.742,3.043h-32.563c-1.452,0-2.034-0.676-2.613-2.028l-18.608-59.488H187.351z M246.072,275.633      c-5.814-22.646-20.061-68.276-25.871-91.936h-0.291c-4.364,22.307-16.28,60.502-25.002,91.936H246.072z" id="XMLID_145_" style="fill:#F0A024;"/></g><g id="XMLID_69_"><path d="M338.918,162.679c0-12.505,8.284-20.954,19.421-20.954      c11.711,0,18.854,8.449,18.854,20.954c0,12.845-7.713,20.957-19.138,20.957C346.627,183.635,338.918,175.524,338.918,162.679z       M340.915,208.647c0-2.028,0.569-2.702,2.001-2.702h30.275c1.714,0,2.288,0.338,2.288,2.702v158.859      c0,1.695-0.574,2.703-2.288,2.703h-29.705c-1.714,0-2.571-0.672-2.571-3.039V208.647z" id="XMLID_71_" style="fill:#F0A024;"/></g></g></g></g><g id="Layer_1"/></svg>