<?xml version="1.0" ?><!DOCTYPE svg  PUBLIC '-//W3C//DTD SVG 1.1//EN'  'http://www.w3.org/Graphics/SVG/1.1/DTD/svg11.dtd'><svg height="512px" style="enable-background:new 0 0 512 512;" version="1.1" viewBox="0 0 512 512" width="512px" xml:space="preserve" xmlns="http://www.w3.org/2000/svg" xmlns:xlink="http://www.w3.org/1999/xlink"><g id="comp_x5F_22-apple"><g><g><g><path d="M371.125,277.921c-0.182-33.401,14.927-58.611,45.505-77.177      c-17.109-24.48-42.956-37.95-77.083-40.589c-32.309-2.548-67.621,18.839-80.543,18.839c-13.652,0-44.959-17.929-69.531-17.929      c-50.783,0.819-104.752,40.499-104.752,121.226c0,23.844,4.369,48.507,13.106,73.897      c11.648,33.399,53.694,115.311,97.56,113.944c22.936-0.546,39.136-16.292,68.986-16.292c28.94,0,43.957,16.292,69.53,16.292      c44.231-0.639,82.273-75.082,93.376-108.575C367.94,333.619,371.125,279.651,371.125,277.921L371.125,277.921z" style="fill:#CCCCCC;"/><path d="M194.301,480.148c-22.447,0-45.449-16.412-68.367-48.781      c-18.149-25.633-31.57-54.745-37.549-71.887c-9.071-26.361-13.664-52.318-13.664-77.19c0-39.834,12.522-73.584,36.213-97.601      c20.614-20.897,49.181-33.152,78.378-33.623c0.054-0.001,0.107-0.001,0.161-0.001c15.83,0,32.75,6.113,47.678,11.507      c8.738,3.157,17.774,6.422,21.853,6.422c2.923,0,11.132-3.037,18.374-5.715c15.213-5.627,36.048-13.334,56.695-13.334      c2.119,0,4.226,0.082,6.26,0.242c37.286,2.884,65.719,17.967,84.493,44.83c1.583,2.265,2.158,5.085,1.589,7.789      c-0.569,2.705-2.232,5.053-4.595,6.487c-27.927,16.956-40.857,38.746-40.695,68.575c0,0.152-0.003,0.332-0.01,0.589      c-0.229,8.294,1.126,50.844,50.424,74.054c4.578,2.156,6.824,7.392,5.232,12.194c-9.847,29.703-49.853,114.664-102.724,115.428      c-0.048,0.001-0.097,0.001-0.145,0.001c-14.254,0-25.372-4.29-36.123-8.438c-10.467-4.039-20.353-7.854-33.407-7.854      c-14.315,0-24.917,4.02-36.142,8.275c-10.014,3.797-20.369,7.723-32.607,8.014C195.229,480.142,194.769,480.148,194.301,480.148      z M189.553,171.064c-45.689,0.779-94.832,35.903-94.832,111.226c0,22.652,4.227,46.42,12.562,70.644      c12.623,36.191,52.378,107.215,87.018,107.215c0.259,0,0.515-0.004,0.774-0.012c8.893-0.212,16.852-3.229,26.066-6.723      c11.836-4.488,25.252-9.574,43.232-9.574c16.78,0,29.438,4.885,40.606,9.194c9.848,3.8,18.355,7.082,28.851,7.098      c20.01-0.336,38.808-20.734,51.062-37.8c13.531-18.844,23.973-40.319,29.998-55.895c-52.575-29.284-54.042-78.548-53.767-88.534      l0.002-0.061c-0.157-32.872,13.606-59.557,40.946-79.427c-15.084-16.892-35.896-26.173-63.296-28.292      c-1.528-0.121-3.105-0.181-4.702-0.181c-17.067,0-35.192,6.705-49.757,12.092c-10.919,4.039-18.809,6.958-25.313,6.958      c-7.582,0-16.878-3.359-28.649-7.612C216.999,176.556,201.866,171.088,189.553,171.064z" style="fill:#999999;"/></g><g><path d="M319.615,107.833c24.846-29.487,22.571-56.334,21.842-65.981      c-21.932,1.274-47.325,14.926-61.795,31.761c-15.927,18.021-25.301,40.318-23.298,65.436      C280.117,140.869,301.777,128.674,319.615,107.833z" style="fill:#CCCCCC;"/><path d="M261.025,149.228c-0.001,0-0.001,0-0.003,0c-1.798,0-3.622-0.07-5.422-0.208      c-4.908-0.376-8.813-4.269-9.204-9.176c-2.089-26.197,6.807-51.37,25.728-72.802c16.641-19.327,44.901-33.788,68.753-35.173      c5.436-0.315,10.141,3.79,10.552,9.229l0.02,0.254c0.761,10.034,3.076,40.569-24.186,72.924      C307.676,137.162,284.787,149.228,261.025,149.228z M331.791,53.393c-16.213,3.857-33.72,14.143-44.545,26.738      c-0.03,0.035-0.061,0.07-0.091,0.104c-12.971,14.676-20.119,31.359-20.968,48.723c19.971-2.084,35.788-15.895,45.83-27.628      C327.866,82.521,331.338,65.01,331.791,53.393z" style="fill:#999999;"/></g></g></g></g><g id="Layer_1"/></svg>