<?xml version="1.0" ?><!DOCTYPE svg  PUBLIC '-//W3C//DTD SVG 1.1//EN'  'http://www.w3.org/Graphics/SVG/1.1/DTD/svg11.dtd'><svg height="512px" style="enable-background:new 0 0 512 512;" version="1.1" viewBox="0 0 512 512" width="512px" xml:space="preserve" xmlns="http://www.w3.org/2000/svg" xmlns:xlink="http://www.w3.org/1999/xlink"><g id="comp_x5F_38-beatspill"><g><g><g id="_x31_26-beatspill_x2C__beats_pill_4_"><g><g><g><g><path d="M310.842,256c0,30.371-24.553,54.994-54.839,54.994c-30.291,0-54.845-24.623-54.845-54.994          c0-30.372,24.554-54.994,54.845-54.994C286.289,201.007,310.842,225.629,310.842,256L310.842,256z" style="fill:#D30000;"/><path d="M256.002,320.994c-35.755,0-64.845-29.156-64.845-64.994s29.089-64.994,64.845-64.994          c35.752,0.001,64.839,29.157,64.839,64.994C320.842,291.838,291.755,320.994,256.002,320.994z M256.002,211.006          c-24.727,0-44.844,20.184-44.844,44.994c0,24.81,20.117,44.994,44.845,44.994c24.724,0,44.839-20.185,44.839-44.994          C300.842,231.191,280.727,211.007,256.002,211.006z" style="fill:#700000;"/></g><g><path d="M256.002,36.028c-18.979,0-37.296,2.667-54.845,7.205v118.069          c16.205-9.458,34.773-15.288,54.845-15.288c60.49,0,109.683,49.33,109.683,109.985c0,60.656-49.193,109.983-109.683,109.983          c-60.494,0-109.69-49.327-109.69-109.983V65.697C80.803,103.757,36.623,174.641,36.623,256          c0,121.481,98.225,219.972,219.38,219.972c121.152,0,219.375-98.49,219.375-219.972S377.154,36.028,256.002,36.028          L256.002,36.028z" style="fill:#D30000;"/><path d="M256.002,485.972c-61.272,0-118.877-23.926-162.204-67.369          C50.479,375.167,26.623,317.42,26.623,256c0-41.031,10.949-81.304,31.663-116.465c20.076-34.078,48.778-62.6,83.003-82.484          c3.093-1.798,6.911-1.805,10.012-0.021c3.101,1.785,5.012,5.089,5.012,8.667V256c0,55.131,44.721,99.983,99.69,99.983          c54.965,0,99.683-44.853,99.683-99.983c0-55.132-44.718-99.985-99.683-99.985c-17.216,0-33.973,4.685-49.804,13.925          c-3.093,1.806-6.915,1.818-10.021,0.035s-5.021-5.091-5.021-8.672V43.233c0-4.559,3.083-8.54,7.497-9.682          c19.305-4.992,38.6-7.523,57.348-7.523c61.271,0,118.875,23.925,162.2,67.369C461.521,136.833,485.377,194.58,485.377,256          s-23.856,119.167-67.175,162.603C374.877,462.046,317.273,485.972,256.002,485.972z M136.312,83.952          C80.585,123.038,46.623,187.439,46.623,256c0,115.778,93.927,209.972,209.38,209.972          c115.45,0,209.375-94.193,209.375-209.972c0-115.779-93.925-209.972-209.375-209.972c-14.646,0-29.697,1.708-44.845,5.082          v94.029c14.438-6.063,29.461-9.125,44.845-9.125c65.994,0,119.683,53.825,119.683,119.985          c0,66.159-53.689,119.983-119.683,119.983c-65.998,0-119.69-53.824-119.69-119.983V83.952z" style="fill:#700000;"/></g></g></g></g></g></g></g></g><g id="Layer_1"/></svg>