<?xml version="1.0" ?><!DOCTYPE svg  PUBLIC '-//W3C//DTD SVG 1.1//EN'  'http://www.w3.org/Graphics/SVG/1.1/DTD/svg11.dtd'><svg height="512px" style="enable-background:new 0 0 512 512;" version="1.1" viewBox="0 0 512 512" width="512px" xml:space="preserve" xmlns="http://www.w3.org/2000/svg" xmlns:xlink="http://www.w3.org/1999/xlink"><g id="comp_x5F_46-bity"><g><g><g><g><g><path d="M287.75,327.543h-63.5c-45.904,0-83.25-37.347-83.25-83.251v-91.75c0-13.807,11.193-25,25-25        s25,11.193,25,25v91.75c0,18.335,14.916,33.251,33.25,33.251h63.5c18.334,0,33.25-14.916,33.25-33.251v-91.75        c0-13.807,11.193-25,25-25s25,11.193,25,25v91.75C371,290.196,333.654,327.543,287.75,327.543z" style="fill:#007C86;"/></g><g><path d="M256,437.543c-13.807,0-25-11.192-25-25v-70c0-13.808,11.193-25,25-25        c13.808,0,25,11.192,25,25v70C281,426.351,269.808,437.543,256,437.543z" style="fill:#007C86;"/></g></g><g><path d="M300.978,478.463c-11.388,0-21.682-7.833-24.342-19.404       c-3.094-13.456,5.307-26.872,18.763-29.966C375.238,410.735,431,340.603,431,258.543c0-7.587-0.495-15.252-1.473-22.783       c-1.777-13.692,7.883-26.232,21.575-28.009c13.694-1.774,26.232,7.883,28.009,21.575c1.253,9.657,1.889,19.487,1.889,29.218       c0,51.203-17.665,101.316-49.741,141.109c-31.589,39.188-75.859,66.949-124.657,78.169       C304.717,478.255,302.833,478.463,300.978,478.463z" style="fill:#007C86;"/></g><g><path d="M211.022,478.463c-1.856,0-3.739-0.208-5.625-0.642c-48.797-11.22-93.068-38.98-124.657-78.169       C48.665,359.859,31,309.746,31,258.543c0-9.735,0.635-19.566,1.889-29.219c1.778-13.692,14.32-23.353,28.011-21.573       c13.692,1.778,23.351,14.318,21.573,28.011C81.496,243.288,81,250.953,81,258.543c0,82.06,55.762,152.192,135.602,170.55       c13.456,3.094,21.856,16.51,18.762,29.966C232.704,470.629,222.409,478.463,211.022,478.463z" style="fill:#007C86;"/></g><g><path d="M93.04,167.544c-5.023,0-10.094-1.509-14.496-4.648c-11.241-8.017-13.854-23.629-5.837-34.87       c20.39-28.59,47.558-52.335,78.566-68.669C183.333,42.469,219.547,33.542,256,33.542s72.667,8.926,104.727,25.814       c31.008,16.334,58.176,40.08,78.565,68.67c8.018,11.241,5.404,26.853-5.837,34.87c-11.243,8.016-26.854,5.403-34.87-5.838       C365.754,111.025,312.451,83.542,256,83.542c-56.451,0-109.754,27.483-142.585,73.517       C108.537,163.898,100.846,167.544,93.04,167.544z" style="fill:#007C86;"/></g></g><g><g><g><path d="M287.75,312.543h-63.5c-37.633,0-68.25-30.617-68.25-68.251v-91.75c0-5.523,4.477-10,10-10        s10,4.477,10,10v91.75c0,26.605,21.645,48.251,48.25,48.251h63.5c26.605,0,48.25-21.646,48.25-48.251v-91.75        c0-5.523,4.478-10,10-10s10,4.477,10,10v91.75C356,281.926,325.383,312.543,287.75,312.543z" style="fill:#00A5B3;"/></g><g><path d="M256,422.543c-5.523,0-10-4.478-10-10v-70c0-5.522,4.477-10,10-10c5.522,0,10,4.478,10,10v70        C266,418.065,261.522,422.543,256,422.543z" style="fill:#00A5B3;"/></g></g><g><path d="M300.991,463.459c-4.556,0-8.673-3.133-9.737-7.761c-1.237-5.383,2.123-10.749,7.505-11.987       C385.452,423.778,446,347.635,446,258.543c0-8.23-0.537-16.545-1.598-24.713c-0.711-5.477,3.153-10.493,8.63-11.204       c5.476-0.71,10.493,3.153,11.204,8.63c1.17,9.019,1.764,18.2,1.764,27.288c0,47.79-16.485,94.561-46.42,131.696       c-29.487,36.582-70.805,62.494-116.339,72.964C302.487,463.376,301.733,463.459,300.991,463.459z" style="fill:#00A5B3;"/></g><g><path d="M211.009,463.459c-0.742,0-1.495-0.083-2.25-0.256c-45.535-10.47-86.852-36.382-116.34-72.964       C62.485,353.104,46,306.333,46,258.543c0-9.092,0.593-18.272,1.764-27.288c0.711-5.477,5.732-9.338,11.205-8.629       c5.477,0.711,9.34,5.728,8.629,11.205C66.538,241.995,66,250.309,66,258.543c0,89.092,60.547,165.235,147.241,185.168       c5.382,1.238,8.743,6.604,7.505,11.987C219.682,460.326,215.564,463.459,211.009,463.459z" style="fill:#00A5B3;"/></g><g><path d="M418.947,152.543c-3.123,0-6.199-1.458-8.15-4.194C375.157,98.376,317.289,68.542,256,68.542       c-61.289,0-119.157,29.834-154.797,79.807c-3.206,4.497-9.451,5.542-13.948,2.335c-4.496-3.207-5.542-9.452-2.335-13.948       c19.037-26.692,44.399-48.86,73.345-64.108C188.177,56.871,221.974,48.542,256,48.542s67.823,8.329,97.735,24.085       c28.945,15.248,54.308,37.416,73.345,64.108c3.207,4.497,2.161,10.741-2.335,13.948       C422.984,151.939,420.956,152.543,418.947,152.543z" style="fill:#00A5B3;"/></g></g></g></g></g><g id="Layer_1"/></svg>