<?xml version="1.0" ?><!DOCTYPE svg  PUBLIC '-//W3C//DTD SVG 1.1//EN'  'http://www.w3.org/Graphics/SVG/1.1/DTD/svg11.dtd'><svg height="512px" style="enable-background:new 0 0 512 512;" version="1.1" viewBox="0 0 512 512" width="512px" xml:space="preserve" xmlns="http://www.w3.org/2000/svg" xmlns:xlink="http://www.w3.org/1999/xlink"><g id="comp_x5F_53-canadian-maple-leaf"><g><g><g><path d="M230,368c-9.073,2.247-93.312,23.729-93.312,23.729s4.492-18.057,9.072-31.535      c4.404-13.477,0-15.722-4.58-20.214c-2.337-2.247-94.516-83.016-94.516-83.016l15.724-6.829      c8.983-4.401,6.647-10.241,4.491-15.633c-2.247-6.827-18.059-60.464-18.059-60.464s42.766,8.984,51.839,11.23      c6.739,2.155,8.983-2.246,11.23-6.738c2.245-4.492,13.477-29.02,13.477-29.02s47.258,53.727,49.504,55.974      c9.073,6.737,18.058,0,15.813-8.984c0-8.985-24.796-116.438-24.796-116.438s27.041,15.633,36.026,20.125      c6.828,4.492,11.32,4.492,15.813-4.492C222.22,88.957,255.91,24,255.91,24s33.78,64.957,38.363,71.695      c4.492,8.984,9.072,8.984,15.812,4.492c8.983-4.492,36.026-20.125,36.026-20.125s-24.797,107.453-24.797,116.438      c-2.246,8.984,6.829,15.722,15.813,8.984c2.247-2.157,49.505-55.974,49.505-55.974s11.229,24.618,13.478,29.11      c2.244,4.492,4.49,8.894,11.229,6.738c8.984-2.246,51.84-11.23,51.84-11.23s-15.901,53.637-18.058,60.463      c-2.157,5.302-4.493,11.23,4.493,15.634l15.722,6.738c0,0-92.27,80.769-94.516,83.016c-4.493,4.492-8.984,6.737-4.493,20.214      c4.493,13.479,8.986,31.535,8.986,31.535S288.984,370.247,280,368l30,120H210L230,368z" style="fill:#D30000;"/><path d="M310.02,498c-0.008-0.001-0.015,0-0.02,0H210c-2.939,0-5.73-1.293-7.63-3.536      c-1.9-2.243-2.717-5.208-2.233-8.107l17.485-104.914c-26.542,6.736-77.803,19.809-78.462,19.977      c-3.411,0.871-7.026-0.117-9.521-2.598c-2.496-2.481-3.503-6.091-2.654-9.506c0.187-0.753,4.634-18.57,9.288-32.279      c1.488-4.571,1.326-6.291,1.277-6.597c-0.266-0.388-1.201-1.264-1.892-1.911c-0.458-0.429-0.924-0.867-1.394-1.324      c-3.041-2.802-57.886-50.908-94.189-82.718c-2.577-2.259-3.819-5.679-3.29-9.064c0.529-3.385,2.754-6.264,5.896-7.629      l15.484-6.725c0.157-0.08,0.297-0.155,0.421-0.225c-0.267-0.815-0.681-1.848-0.991-2.625c-0.077-0.193-0.149-0.39-0.214-0.587      c-2.27-6.896-17.504-58.566-18.152-60.763c-0.995-3.376-0.143-7.026,2.245-9.612c2.387-2.586,5.959-3.728,9.402-3.002      c1.708,0.358,40.905,8.597,51.402,11.119c0.242-0.462,0.481-0.94,0.668-1.314c1.778-3.557,10.224-21.93,13.328-28.709      c1.411-3.08,4.285-5.237,7.637-5.73c3.352-0.493,6.726,0.745,8.964,3.289c16.787,19.085,41.631,47.268,47.823,54.142      c-0.008-0.145-0.013-0.29-0.015-0.435c-0.392-6.868-12.923-63.959-24.541-114.303c-0.895-3.88,0.597-7.921,3.799-10.289      c3.202-2.367,7.503-2.61,10.95-0.617c0.268,0.155,26.881,15.532,35.493,19.838c0.353,0.176,0.695,0.374,1.024,0.59      c0.289,0.19,0.549,0.354,0.783,0.496c0.177-0.309,0.374-0.675,0.589-1.106c0.186-0.371,0.394-0.73,0.625-1.076      c3.051-4.576,24.698-45.826,37.626-70.751c1.718-3.313,5.139-5.394,8.872-5.396c0.001,0,0.004,0,0.005,0      c3.73,0,7.15,2.076,8.872,5.386c12.955,24.912,34.663,66.132,37.76,70.685c0.251,0.369,0.477,0.753,0.676,1.152      c0.217,0.434,0.415,0.801,0.593,1.111c0.219-0.134,0.461-0.289,0.729-0.467c0.345-0.23,0.703-0.438,1.073-0.623      c8.611-4.306,35.227-19.684,35.494-19.839c3.448-1.992,7.751-1.75,10.95,0.617c3.202,2.368,4.694,6.409,3.799,10.289      c-11.618,50.343-24.149,107.435-24.542,114.303c-0.001,0.152-0.007,0.305-0.016,0.457c6.156-6.794,31.673-35.77,47.82-54.157      c2.237-2.549,5.614-3.789,8.972-3.295c3.356,0.495,6.232,2.657,7.641,5.743c3.103,6.802,11.544,25.232,13.321,28.785      c0.188,0.375,0.427,0.853,0.668,1.314c10.474-2.533,49.696-10.76,51.406-11.118c3.449-0.722,7.019,0.421,9.405,3.01      s3.235,6.243,2.234,9.619c-0.65,2.194-15.952,53.8-18.11,60.633c-0.08,0.256-0.172,0.508-0.272,0.756      c-0.274,0.674-0.704,1.73-0.979,2.565c0.122,0.069,0.26,0.144,0.415,0.223l15.455,6.624c3.158,1.354,5.4,4.234,5.938,7.627      c0.537,3.393-0.705,6.826-3.29,9.088c-36.148,31.643-90.872,79.614-94.107,82.638c-0.498,0.496-0.993,0.967-1.479,1.428      c-0.673,0.638-1.582,1.501-1.841,1.883c-0.048,0.305-0.204,2.028,1.318,6.595c4.563,13.69,9.016,31.53,9.203,32.282      c0.848,3.405-0.152,7.005-2.633,9.486c-2.481,2.481-6.083,3.481-9.486,2.633c0,0-51.584-12.837-79.157-19.703l25.801,103.204      c0.312,0.966,0.479,1.996,0.479,3.065C320.02,493.522,315.543,498,310.02,498z M221.805,478h75.388l-26.894-107.574      c-0.853-3.408,0.146-7.014,2.631-9.497c2.484-2.484,6.089-3.484,9.497-2.63c6.488,1.623,53.333,13.282,78.844,19.631      c-1.356-4.791-2.9-9.979-4.431-14.573c-5.578-16.737-0.228-23.657,5.73-29.311c0.387-0.367,0.783-0.742,1.179-1.138      c1.973-1.973,54.447-47.958,83.052-73.007l-1.127-0.483c-0.155-0.066-0.309-0.137-0.461-0.212      c-9.063-4.441-11.515-10.86-11.976-15.464c-0.5-4.999,1.158-9.314,2.464-12.535c1.602-5.136,8.374-27.883,13.11-43.823      c-12.826,2.724-29.355,6.273-34.784,7.611c-2.033,0.616-4.024,0.929-5.924,0.929c-10.529,0-14.859-8.668-16.939-12.834      c-1.112-2.221-4.227-8.936-7.199-15.394c-15.991,18.187-38.057,43.221-39.912,45.002c-0.293,0.281-0.602,0.543-0.926,0.786      c-4.132,3.099-8.767,4.737-13.402,4.737c-5.835,0-11.209-2.597-14.743-7.124c-3.493-4.473-4.773-10.308-3.571-16.135      c1.149-11.506,12.358-61.903,19.868-94.932c-6.205,3.488-12.406,6.911-16.18,8.827c-2.981,1.934-7.348,4.28-12.424,4.28      c-7.057,0-12.799-4.185-17.075-12.439c-4.11-6.492-19.362-35.371-29.678-55.066c-10.129,19.393-25.522,48.652-29.503,55.032      c-4.278,8.278-10.014,12.474-17.056,12.474c-5.047,0-9.438-2.343-12.437-4.266c-3.771-1.914-9.987-5.345-16.206-8.84      c7.509,33.026,18.717,83.419,19.867,94.931c1.207,5.841-0.072,11.685-3.564,16.158c-3.524,4.513-8.886,7.102-14.711,7.102      c-4.62,0-9.254-1.628-13.403-4.708c-0.393-0.292-0.765-0.613-1.111-0.959c-1.798-1.798-24.629-27.687-39.774-44.887      c-2.97,6.431-6.08,13.116-7.189,15.334c-2.084,4.167-6.418,12.832-16.94,12.832c-1.896,0-3.883-0.311-5.912-0.925      c-5.492-1.341-22.01-4.891-34.819-7.615c5.319,17.972,11.624,39.16,13.123,43.8c1.299,3.254,2.974,7.63,2.475,12.596      c-0.461,4.587-2.912,10.986-11.973,15.426c-0.137,0.066-0.276,0.131-0.416,0.191l-1.245,0.541      c26.697,23.398,80.989,71.006,82.984,72.924c0.458,0.448,0.843,0.808,1.22,1.161c6.017,5.637,11.431,12.548,5.935,29.367      c-0.012,0.037-0.024,0.074-0.037,0.111c-1.543,4.542-3.087,9.663-4.443,14.403c25.063-6.388,70.218-17.89,76.81-19.522      c3.269-0.806,6.725,0.08,9.195,2.367c2.471,2.286,3.626,5.663,3.072,8.983L221.805,478z" style="fill:#700000;"/></g></g></g></g><g id="Layer_1"/></svg>