<?xml version="1.0" ?><!DOCTYPE svg  PUBLIC '-//W3C//DTD SVG 1.1//EN'  'http://www.w3.org/Graphics/SVG/1.1/DTD/svg11.dtd'><svg height="512px" style="enable-background:new 0 0 512 512;" version="1.1" viewBox="0 0 512 512" width="512px" xml:space="preserve" xmlns="http://www.w3.org/2000/svg" xmlns:xlink="http://www.w3.org/1999/xlink"><g id="comp_x5F_54-CC"><g><g><g><path d="M313.498,83.036c-51.719,0-98.006,22.944-129.604,59.096c-4.713-0.494-9.313-1.446-14.142-1.446      c-79.378,0-143.752,64.549-143.752,144.142c0,79.59,64.374,144.137,143.752,144.137h143.745      c95.279,0,172.501-77.432,172.501-172.967C485.999,160.464,408.777,83.036,313.498,83.036z" style="fill:#D30000;"/><path d="M313.498,438.965H169.753c-84.779,0-153.752-69.146-153.752-154.137      c0-84.994,68.973-154.142,153.752-154.142c3.669,0,7.001,0.423,10.215,0.862c34.532-37.255,82.891-58.513,133.53-58.513      c100.632,0,182.501,82.077,182.501,182.962C495.999,356.887,414.13,438.965,313.498,438.965z M169.753,150.686      c-73.751,0-133.752,60.176-133.752,134.142c0,73.963,60.001,134.137,133.752,134.137h143.745      c89.604,0,162.501-73.106,162.501-162.967c0-89.858-72.897-162.962-162.501-162.962c-46.653,0-91.148,20.293-122.074,55.677      c-2.14,2.449-5.337,3.7-8.571,3.365c-1.693-0.178-3.32-0.401-4.894-0.618C175.063,151.062,172.327,150.686,169.753,150.686z" style="fill:#700000;"/></g><g><path d="M169.754,400.143c-63.421,0-115-51.719-115-115.314c0-63.593,51.579-115.313,115-115.313      c12.878,0,25.526,2.222,37.662,6.634c6.637,1.816,14.518,5.417,22.539,10.437c0.255,0.139,0.517,0.287,0.749,0.43l90.444,56.76      c6.696,4.236,8.737,13.119,4.54,19.863c-4.196,6.779-13.054,8.82-19.808,4.615l-89.785-56.361      c-0.286-0.176-0.576-0.314-0.834-0.493c-5.891-3.742-11.471-6.364-16.587-7.811C138.612,182.116,83.5,227.606,83.5,284.828      c0,47.678,38.696,86.48,86.253,86.48c4.855,0,9.655-0.52,14.342-1.295c7.274,8.387,15.38,16.084,24.697,23.148      C196.432,397.631,183.296,400.143,169.754,400.143z" style="fill:#D30000;"/><path d="M169.754,410.143c-68.925,0-125-56.216-125-125.314c0-69.098,56.075-125.313,125-125.313      c13.919,0,27.611,2.389,40.704,7.1c7.571,2.127,16.048,6.042,24.563,11.344c0.318,0.178,0.636,0.362,0.925,0.54l90.518,56.806      c11.344,7.176,14.791,22.248,7.715,33.617c-4.459,7.202-12.197,11.516-20.688,11.516c-4.553,0-9.012-1.277-12.895-3.695      l-89.689-56.301c-0.305-0.17-0.682-0.383-1.113-0.669c-5.015-3.175-9.67-5.382-13.839-6.562      c-0.217-0.062-0.433-0.13-0.645-0.206c-8.973-3.208-18.07-4.834-27.038-4.834c-41.229,0-74.771,34.388-74.771,76.657      c0,42.172,34.207,76.48,76.253,76.48c3.831,0,7.988-0.38,12.709-1.161c3.431-0.564,6.909,0.688,9.187,3.313      c7.081,8.164,14.665,15.272,23.185,21.732c2.92,2.215,4.396,5.849,3.844,9.472c-0.551,3.624-3.04,6.655-6.486,7.901      C198.287,407.594,184.009,410.143,169.754,410.143z M169.754,179.515c-57.897,0-105,47.243-105,105.313      c0,58.07,47.103,105.314,105,105.314c6.047,0,12.109-0.552,18.144-1.648c-2.634-2.514-5.193-5.119-7.692-7.829      c-3.676,0.432-7.13,0.644-10.453,0.644c-53.074,0-96.253-43.281-96.253-96.48c0-53.297,42.514-96.657,94.771-96.657      c11.165,0,22.421,1.982,33.461,5.892c5.968,1.731,12.322,4.723,18.892,8.896c0.009,0.006,0.018,0.012,0.027,0.018      c0.261,0.146,0.47,0.267,0.679,0.396l89.867,56.412c0.688,0.428,1.469,0.654,2.292,0.654c1.515,0,2.896-0.771,3.696-2.063      c1.305-2.096,0.678-4.845-1.384-6.149l-90.413-56.741c-0.015-0.009-0.115-0.063-0.212-0.116c-0.179-0.097-0.354-0.2-0.526-0.308      c-7.013-4.389-14.071-7.68-19.874-9.268c-0.262-0.072-0.521-0.154-0.777-0.248C192.99,181.544,181.468,179.515,169.754,179.515z      " style="fill:#700000;"/></g><g><path d="M313.496,400.139c-31.106,0-60.719-9.861-85.642-28.512c-9.718-7.18-17.858-14.846-24.813-23.438      c-0.261-0.26-0.52-0.547-0.744-0.834l-43.677-53.389c-5.027-6.17-4.138-15.252,2.017-20.299      c6.117-5.068,15.177-4.148,20.237,2.02l42.836,52.35c0.374,0.373,0.692,0.754,1.006,1.158      c5.523,6.971,12.134,13.287,20.24,19.283c20.012,14.961,43.701,22.832,68.541,22.832c63.422,0,114.998-51.715,114.998-115.31      c0-63.592-51.576-115.313-114.998-115.313c-24.924,0-48.266,7.901-67.474,21.969l-0.085-0.059      c-0.462-0.286-0.923-0.575-1.385-0.836c-9.081-5.621-18.196-9.774-27.225-12.625c25.907-23.693,59.659-37.272,96.168-37.272      c79.263,0,143.752,64.66,143.749,144.134C457.247,335.48,392.759,400.139,313.496,400.139z" style="fill:#D30000;"/><path d="M313.496,410.139c-33.278,0-64.964-10.549-91.633-30.505      c-10.289-7.602-18.915-15.729-26.309-24.802c-0.373-0.395-0.725-0.8-1.051-1.21l-43.623-53.323      c-8.506-10.439-6.969-25.848,3.415-34.363c4.301-3.563,9.791-5.543,15.42-5.543c7.336,0,14.221,3.263,18.889,8.952      l42.581,52.038c0.468,0.495,0.92,1.027,1.396,1.638c4.995,6.297,10.988,11.994,18.321,17.418      c18.278,13.665,39.909,20.872,62.594,20.872c57.896,0,104.998-47.241,104.998-105.31c0-58.07-47.102-105.313-104.998-105.313      c-22.378,0-43.667,6.929-61.565,20.037c-3.386,2.48-7.954,2.578-11.44,0.263l-0.004-0.002c-0.286-0.178-0.57-0.357-0.856-0.519      c-0.115-0.065-0.228-0.132-0.34-0.202c-8.11-5.02-16.512-8.92-24.973-11.593c-3.408-1.076-5.982-3.889-6.753-7.378      s0.379-7.125,3.016-9.537c28.129-25.726,64.679-39.893,102.917-39.893c41.012,0,79.607,16.053,108.68,45.203      c29.064,29.143,45.071,67.829,45.069,108.932C467.247,340.991,398.274,410.139,313.496,410.139z M210.12,341.125      c0.245,0.246,0.477,0.504,0.695,0.773c6.376,7.878,13.894,14.971,22.982,21.686c23.232,17.385,50.774,26.555,79.699,26.555      c73.751,0,133.751-60.175,133.751-134.141c0.001-35.771-13.931-69.441-39.23-94.809c-25.292-25.359-58.859-39.326-94.519-39.326      c-27.683,0-54.343,8.541-76.599,24.312c2.939,1.411,5.854,2.943,8.737,4.593c20.146-13.159,43.466-20.081,67.862-20.081      c68.924,0,124.998,56.215,124.998,125.313c0,69.096-56.074,125.31-124.998,125.31c-27.035,0-52.808-8.584-74.529-24.823      c-8.742-6.465-15.981-13.371-22.09-21.082c-0.021-0.027-0.043-0.055-0.064-0.082c-0.057-0.074-0.112-0.147-0.176-0.217      c-0.238-0.237-0.454-0.477-0.667-0.736l-42.836-52.35c-0.846-1.031-2.095-1.628-3.419-1.628c-0.694,0-1.726,0.169-2.699,0.976      c-1.922,1.577-2.194,4.38-0.644,6.282l43.664,53.373C210.065,341.058,210.093,341.091,210.12,341.125z" style="fill:#700000;"/></g></g></g></g><g id="Layer_1"/></svg>