<?xml version="1.0" ?><!DOCTYPE svg  PUBLIC '-//W3C//DTD SVG 1.1//EN'  'http://www.w3.org/Graphics/SVG/1.1/DTD/svg11.dtd'><svg height="512px" style="enable-background:new 0 0 512 512;" version="1.1" viewBox="0 0 512 512" width="512px" xml:space="preserve" xmlns="http://www.w3.org/2000/svg" xmlns:xlink="http://www.w3.org/1999/xlink"><g id="comp_x5F_75-creative-commons-zero"><g><g><circle cx="256" cy="256" r="229.5"/><g><path d="M256,388.143c-55.14,0-100-44.859-100-100v-64.286c0-55.14,44.86-100,100-100      c55.141,0,100,44.86,100,100v64.286C356,343.283,311.141,388.143,256,388.143z M256,143.857c-44.112,0-80,35.888-80,80v64.286      c0,44.112,35.888,80,80,80s80-35.888,80-80v-64.286C336,179.745,300.112,143.857,256,143.857z" style="fill:#FFFFFF;"/></g><g><path d="M199.991,360.001c-1.773,0-3.569-0.471-5.194-1.461c-4.716-2.874-6.21-9.026-3.336-13.743      l115.764-190c2.874-4.716,9.024-6.212,13.743-3.336c4.717,2.874,6.21,9.026,3.337,13.743l-115.765,190      C206.656,358.295,203.364,360.001,199.991,360.001z" style="fill:#FFFFFF;"/></g></g></g></g><g id="Layer_1"/></svg>