<?xml version="1.0" ?><!DOCTYPE svg  PUBLIC '-//W3C//DTD SVG 1.1//EN'  'http://www.w3.org/Graphics/SVG/1.1/DTD/svg11.dtd'><svg height="512px" style="enable-background:new 0 0 512 512;" version="1.1" viewBox="0 0 512 512" width="512px" xml:space="preserve" xmlns="http://www.w3.org/2000/svg" xmlns:xlink="http://www.w3.org/1999/xlink"><g id="comp_x5F_64-creative-commons-nc"><g><g><g><path d="M255.628,26.001c129.654,0,230.371,100.068,230.371,229.999      c0,136.517-109.898,229.999-230.371,229.999C130.891,485.999,26.001,383.243,26.001,256      C26.001,132.747,123.102,26.001,255.628,26.001z M77.75,193.957c-6.863,18.919-10.293,39.6-10.293,62.043      c0,102.852,85.415,187.71,188.914,187.71c113.515,0,164.338-94.411,165.544-96.545l-86.62-38.581      c-7.142,34.407-38.211,49.153-63.25,51.379V390h-26.71v-30.131c-25.504-0.277-48.783-9.458-69.835-27.541l31.625-31.999      c29.399,27.268,80.129,29.492,80.129-2.04c0-5.748-2.041-10.385-6.121-14.001C267.964,278.721,279.464,284.194,77.75,193.957      L77.75,193.957z M256.371,67.086c-35.612,0-104.241,8.067-158.125,86.25l87.921,39.414      c9.274-29.027,37.466-39.785,59.168-41.084V120h26.71v31.666c21.051,1.113,40.25,8.254,57.499,21.331l-29.954,30.79      c-39.603-27.73-77.441-7.419-64.92,10.294c49.524,22.351,40.621,18.362,86.25,38.581l117.874,52.584      c3.802-16.138,5.752-32.552,5.752-49.246c0-52.862-18.365-97.378-54.998-133.455C353.102,85.541,308.678,67.086,256.371,67.086      L256.371,67.086z" style="fill:#FFFFFF;"/><path d="M255.628,495.999c-31.874,0-62.965-6.338-92.411-18.839c-28.483-12.092-54.131-29.37-76.232-51.354      C41.21,380.271,16.001,319.967,16.001,256c0-31.658,6.051-62.517,17.986-91.718c11.705-28.64,28.512-54.366,49.953-76.465      c44.934-46.312,105.907-71.816,171.688-71.816c65.427,0,126.108,24.573,170.866,69.193      c44.821,44.683,69.505,105.343,69.505,170.806c0,67.021-25.967,128.616-73.118,173.44      c-22.192,21.098-48.005,37.618-76.72,49.104C317.204,490.126,286.744,495.999,255.628,495.999z M255.628,36.001      C132.473,36.001,36.001,132.636,36.001,256c0,121.308,98.524,219.999,219.627,219.999c108.324,0,220.371-82.29,220.371-219.999      C475.999,132.636,379.2,36.001,255.628,36.001z M256.371,453.71c-52.717,0-102.549-20.666-140.317-58.191      C78.267,357.974,57.457,308.426,57.457,256c0-23.507,3.665-45.529,10.893-65.453c0.947-2.612,2.938-4.712,5.497-5.796      c2.557-1.084,5.452-1.056,7.987,0.078c181.465,81.179,190.325,84.875,199.706,88.787c1.073,0.448,2.155,0.899,3.486,1.462      c1.001,0.424,1.927,1.007,2.739,1.728c6.207,5.501,9.488,12.931,9.488,21.484c0,10.581-4.425,19.643-12.461,25.514      c-6.766,4.943-15.928,7.557-26.497,7.557c-0.002,0-0.004,0-0.006,0c-16.997-0.002-35.595-6.563-50.469-17.508l-17.351,17.556      c16.956,12.188,35.033,18.246,54.974,18.463c5.48,0.06,9.891,4.519,9.891,9.999V380h6.71v-20.037      c0-5.18,3.955-9.502,9.114-9.961c21.303-1.894,48.316-14.409,54.345-43.45c0.614-2.963,2.538-5.487,5.23-6.867      s5.866-1.467,8.629-0.235l86.62,38.581c2.574,1.146,4.545,3.325,5.428,6.002c0.883,2.676,0.596,5.6-0.79,8.053      C424.813,362.551,370.915,453.71,256.371,453.71z M83.843,207.637c-4.241,14.975-6.386,31.192-6.386,48.363      c0,97.989,80.26,177.71,178.914,177.71c86.884,0,134.95-58.176,151.023-82.066l-65.759-29.289      c-10.764,27.735-36.405,41.814-59.59,46.283V390c0,5.522-4.478,10-10,10h-26.71c-5.523,0-10-4.478-10-10v-20.66      c-24.012-2.322-46.29-12.194-66.351-29.426c-2.104-1.808-3.363-4.407-3.476-7.178c-0.113-2.771,0.93-5.465,2.879-7.438      l31.625-31.999c3.796-3.84,9.954-3.974,13.913-0.303c12.025,11.153,29.44,18.36,44.367,18.362c0.001,0,0.003,0,0.004,0      c6.209,0,11.428-1.316,14.698-3.705c1.828-1.337,4.26-3.761,4.26-9.365c0-2.328-0.547-4.054-1.794-5.539      c-0.562-0.235-1.092-0.456-1.619-0.676C264.52,288.187,255.72,284.517,83.843,207.637z M438.793,315.246      c-1.388,0-2.776-0.288-4.074-0.867l-117.874-52.584l-11.802-5.229c-29.97-13.277-29.97-13.277-64.353-28.796l-10.134-4.574      c-1.625-0.733-3.023-1.887-4.052-3.343c-4.969-7.03-5.647-15.256-1.86-22.57c5.471-10.566,19.115-17.131,35.607-17.131      c9.092,0,22.563,2.008,37.846,10.831l15.95-16.396c-13.095-7.79-27.355-12.132-42.529-12.935      c-5.31-0.281-9.472-4.668-9.472-9.986V130h-6.71v21.666c0,5.291-4.121,9.666-9.402,9.982      c-19.385,1.16-42.762,10.74-50.24,34.146c-0.867,2.712-2.848,4.926-5.448,6.087c-2.6,1.161-5.571,1.159-8.169-0.006      l-87.921-39.414c-2.709-1.214-4.739-3.57-5.539-6.429s-0.289-5.926,1.396-8.371c24.644-35.756,55.028-61.327,90.308-76.002      c23.576-9.806,48.453-14.573,76.051-14.573c54.876,0,102.063,19.646,140.248,58.387c38.436,37.881,57.927,85.162,57.927,140.527      c0,17.247-2.024,34.588-6.019,51.539c-0.684,2.9-2.624,5.346-5.295,6.668C441.835,314.898,440.314,315.246,438.793,315.246z       M242.354,206.578l6.564,2.963c34.32,15.491,34.32,15.491,64.227,28.739l11.825,5.24l106.528,47.522      c2.024-11.61,3.047-23.353,3.047-35.042c0-49.835-17.5-92.339-52.015-126.33c-0.036-0.036-0.072-0.072-0.108-0.108      c-34.295-34.821-76.704-52.476-126.051-52.476c-58.165,0-106.152,24.266-142.802,72.16l67.323,30.18      c11.475-22.19,33.673-33.235,54.443-36.681V120c0-5.523,4.477-10,10-10h26.71c5.522,0,10,4.477,10,10v22.57      c19.352,2.631,37.324,10.164,53.54,22.458c2.284,1.731,3.715,4.359,3.931,7.217c0.216,2.857-0.806,5.67-2.804,7.725      l-29.954,30.79c-3.42,3.515-8.884,4.032-12.904,1.218c-13.959-9.775-25.979-11.827-33.604-11.827      c-10.05,0-16.486,3.7-17.846,6.327C242.387,206.512,242.37,206.544,242.354,206.578z"/></g></g></g></g><g id="Layer_1"/></svg>