<?xml version="1.0" ?><!DOCTYPE svg  PUBLIC '-//W3C//DTD SVG 1.1//EN'  'http://www.w3.org/Graphics/SVG/1.1/DTD/svg11.dtd'><svg height="512px" style="enable-background:new 0 0 512 512;" version="1.1" viewBox="0 0 512 512" width="512px" xml:space="preserve" xmlns="http://www.w3.org/2000/svg" xmlns:xlink="http://www.w3.org/1999/xlink"><g id="comp_x5F_66-creative-commons-nc-jp"><g><g><g><path d="M255.721,26.001c-133.641,0-229.72,108.323-229.72,229.999      c0,126.5,103.685,229.999,229.72,229.999c120.75,0,230.278-93.482,230.278-229.999      C485.999,127.274,386.302,26.001,255.721,26.001z M256.277,443.986c-103.87,0-188.82-85.784-188.82-187.986      c0-19.568,2.781-38.209,8.347-55.923l117.782,52.399h-25.876v35.798h53.883l5.287,10.944V320h-59.169v30h59.169v50H284.1v-50      h59.542v-30.656l75.12,33.479C417.37,354.861,365.806,443.986,256.277,443.986z M343.548,268.984v-16.508H307.75l58.426-107.58      h-61.022l-40.249,89.032l-21.332-9.46l-36.726-79.479h-61.024l25.318,47.298l-75.956-33.851      c25.782-40.899,76.605-90.979,161.092-90.979c104.613,0,188.268,83.468,188.268,188.637c0,19.475-2.507,37.652-7.327,54.717      L343.548,268.984z" style="fill:#FFFFFF;"/><path d="M255.721,495.999c-63.663,0-123.75-25.034-169.195-70.492C41.047,380.016,16.001,319.817,16.001,256      c0-31.322,6.001-61.952,17.838-91.039c11.649-28.628,28.372-54.375,49.704-76.526c44.981-46.71,106.128-72.435,172.178-72.435      c65.643,0,126.44,24.743,171.192,69.67c44.551,44.726,69.086,105.216,69.086,170.329c0,67.052-25.912,128.646-72.963,173.437      c-22.168,21.103-47.967,37.625-76.68,49.107C317.396,490.126,286.901,495.999,255.721,495.999z M255.721,36.001      c-121.154,0-219.72,98.691-219.72,219.999s98.566,219.999,219.72,219.999c108.279,0,220.278-82.29,220.278-219.999      C475.999,132.636,379.241,36.001,255.721,36.001z M256.277,453.986c-52.772,0-102.646-20.81-140.432-58.597      C78.193,357.738,57.457,308.235,57.457,256c0-20.498,2.963-40.321,8.807-58.92c0.854-2.719,2.829-4.945,5.427-6.117      c2.599-1.172,5.573-1.181,8.178-0.022l117.782,52.399c4.314,1.919,6.698,6.595,5.717,11.214      c-0.981,4.619-5.06,7.922-9.782,7.922h-15.876v15.798h43.883c3.837,0,7.335,2.195,9.004,5.65l5.287,10.944      c0.655,1.356,0.996,2.844,0.996,4.35V320c0,5.522-4.477,10-10,10h-49.169v10h49.169c5.523,0,10,4.478,10,10v40H274.1v-40      c0-5.522,4.478-10,10-10h49.542v-20.656c0-3.387,1.714-6.544,4.555-8.388s6.423-2.126,9.516-0.746l75.12,33.479      c2.708,1.207,4.741,3.553,5.551,6.405c0.791,2.792,0.331,5.786-1.257,8.209l-0.167,0.269      C417.074,374.505,362.393,453.986,256.277,453.986z M82.337,213.929c-3.241,13.459-4.88,27.563-4.88,42.071      c0,96.479,81.89,177.986,178.82,177.986c82.107,0,130.033-52.904,147.53-76.88l-50.166-22.357V350c0,5.522-4.478,10-10,10H294.1      v40c0,5.522-4.478,10-10,10h-57.221c-5.523,0-10-4.478-10-10v-40h-49.169c-5.523,0-10-4.478-10-10v-30c0-5.522,4.477-10,10-10      h49.169v-8.492l-1.562-3.233h-47.608c-5.523,0-10-4.478-10-10v-35.798c0-1.632,0.391-3.173,1.084-4.534L82.337,213.929z       M437.218,320.811c-1.39,0-2.779-0.289-4.077-0.869l-93.67-41.826c-3.603-1.608-5.923-5.186-5.923-9.131v-6.508H307.75      c-3.526,0-6.792-1.857-8.595-4.888s-1.876-6.786-0.193-9.885l50.403-92.808h-37.758l-37.591,83.151      c-2.264,5.006-8.143,7.25-13.166,5.022l-21.332-9.46c-2.22-0.984-4.005-2.743-5.024-4.947l-34.043-73.674h-37.934l17.439,32.579      c2.017,3.768,1.417,8.401-1.495,11.53c-2.911,3.129-7.489,4.063-11.393,2.323L91.115,167.57      c-2.65-1.181-4.656-3.455-5.499-6.231c-0.842-2.776-0.437-5.781,1.11-8.235c22.518-35.721,74.487-95.647,169.551-95.647      c53.308,0,103.182,20.531,140.438,57.812c37.292,37.317,57.83,87.33,57.83,140.825c0,20.015-2.592,39.339-7.704,57.436      c-0.789,2.794-2.754,5.107-5.384,6.338C440.114,320.496,438.666,320.811,437.218,320.811z M353.548,262.498l76.833,34.309      c2.766-13.014,4.164-26.66,4.164-40.713c0-100.17-78.305-178.637-178.268-178.637c-77.409,0-123.14,44.366-146.171,76.681      l38.442,17.132l-11.542-21.562c-1.659-3.099-1.569-6.842,0.238-9.857c1.806-3.016,5.063-4.862,8.579-4.862h61.024      c3.899,0,7.442,2.266,9.078,5.805l35.146,76.06l8.812,3.908l36.159-79.985c1.618-3.58,5.184-5.881,9.112-5.881h61.022      c3.526,0,6.792,1.857,8.595,4.888c1.803,3.03,1.876,6.786,0.193,9.885l-50.403,92.808h18.987c5.522,0,10,4.477,10,10V262.498z"/></g></g><g><line style="fill:#191919;" x1="343.642" x2="290" y1="319.344" y2="319.344"/><path d="M343.642,329.344H290c-5.522,0-10-4.478-10-10s4.478-10,10-10h53.642c5.522,0,10,4.478,10,10     S349.164,329.344,343.642,329.344z"/></g></g></g><g id="Layer_1"/></svg>