<?xml version="1.0" ?><!DOCTYPE svg  PUBLIC '-//W3C//DTD SVG 1.1//EN'  'http://www.w3.org/Graphics/SVG/1.1/DTD/svg11.dtd'><svg height="512px" style="enable-background:new 0 0 512 512;" version="1.1" viewBox="0 0 512 512" width="512px" xml:space="preserve" xmlns="http://www.w3.org/2000/svg" xmlns:xlink="http://www.w3.org/1999/xlink"><g id="_x32_0_x2C__Captivate_x2C__Adobe"><g><g><rect height="492" style="fill:#28EA90;" width="492" x="10" y="10"/><g><path d="M501.508,512H10.492C4.697,512,0,507.303,0,501.508V10.492C0,4.697,4.697,0,10.492,0h491.016      C507.303,0,512,4.697,512,10.492v491.016C512,507.303,507.303,512,501.508,512z M21,491h470V21H21V491z" style="fill:#1EB06C;"/></g></g><g><rect height="426" style="fill:#333333;" width="426" x="43" y="43"/><g><path d="M480,469.508c0,5.795-4.697,10.492-10.492,10.492H43.492C37.698,480,33,475.303,33,469.508      V43.492C33,37.698,37.698,33,43.492,33h426.016C475.303,33,480,37.698,480,43.492V469.508z M54,458h404V54H54V458z" style="fill:#262626;"/></g></g><g><g id="XMLID_115_"><path d="M205.488,116.497c17.436,0,29.459,0.147,36.846,4.272c1.183,0.689,1.478,1.374,1.478,3.44v29.918      c0,2.751-1.183,2.751-2.069,2.063c-9.163-4.469-19.705-5.945-35.075-5.945c-38.124,0-64.131,29.578-64.131,79.441      c0,63.276,36.647,78.752,63.246,78.752c15.664,0,26.606-0.492,35.768-5.306c1.479-0.69,2.068-0.344,2.068,1.718v29.229      c0,2.063-0.295,3.096-1.773,4.129c-9.753,5.504-23.06,5.011-41.974,5.011c-47.287,0.346-92.504-30.656-92.504-112.504      C107.368,165.721,145.789,116.497,205.488,116.497z" style="fill:#28EA90;"/></g><g id="XMLID_29_"><path d="M404.633,253.134c0,60.04-42.377,92.292-84.44,92.292      c-4.912,0-8.901-0.344-11.67-1.028v45.205c0,1.373-0.61,2.403-2.453,2.748l-31.016,3.088c-1.839,0.34-2.15-0.69-2.15-2.06      V207.157c0-4.117-0.61-14.753-0.918-19.211c0-0.689,0-1.718,0.918-2.059c13.205-4.806,37.464-13.384,60.802-13.384      C381.3,172.503,404.633,207.498,404.633,253.134z M308.522,207.842V312.83c3.69,1.375,8.291,2.06,12.899,2.06      c25.481,0,46.978-20.586,46.978-59.698c0-34.31-16.271-50.778-38.381-50.778C320.808,204.414,314.665,206.128,308.522,207.842z" id="XMLID_89_" style="fill:#28EA90;"/></g></g></g></g><g id="Layer_1"/></svg>