<?xml version="1.0" ?><!DOCTYPE svg  PUBLIC '-//W3C//DTD SVG 1.1//EN'  'http://www.w3.org/Graphics/SVG/1.1/DTD/svg11.dtd'><svg height="512px" style="enable-background:new 0 0 512 512;" version="1.1" viewBox="0 0 512 512" width="512px" xml:space="preserve" xmlns="http://www.w3.org/2000/svg" xmlns:xlink="http://www.w3.org/1999/xlink"><g id="_x32_8_x2C__CSS_x2C__File_Type_x2C__Style_x2C__Sheet"><g><rect height="56.655" style="fill:#1BA7E2;" width="56.655" x="287.476" y="357.771"/><rect height="56.655" style="fill:#1BA7E2;" width="56.656" x="230.82" y="301.115"/><rect height="56.655" style="fill:#1BA7E2;" width="56.656" x="230.82" y="357.771"/><rect height="56.655" style="fill:#1BA7E2;" width="56.656" x="174.164" y="357.771"/><rect height="56.655" style="fill:#1BA7E2;" width="56.656" x="174.164" y="301.115"/><rect height="56.656" style="fill:#1BA7E2;" width="56.656" x="174.164" y="244.459"/><polygon points="362.628,60.905 419.462,117.917 419.242,118.127 363.11,118.169 362.586,60.947   " style="fill:#1BA7E2;"/><path d="M130.098,101h-0.43H92v101h37.668h0.43H306V101H130.098z" style="fill:#006EBD;"/><path d="M419.672,118.127v333.021H130.098V202.492H306.36V100.721H130.098V60.853h232.488l0.042,0.052    l-0.042,0.042l0.524,57.222l56.132-0.042l0.22-0.209L419.672,118.127z M344.131,414.426v-56.655h-56.655v-56.655H230.82v-56.656    h-56.656v56.656v56.655v56.655h56.656h56.656H344.131z" style="fill:#006EBD;"/><path d="M244.606,162.361c0-3-2.276-4.711-8.058-6.778c-7.974-2.77-13.178-7.197-13.178-14.175    c0-8.193,6.84-14.468,18.172-14.468c5.414,0,9.401,1.144,12.254,2.423l-2.424,8.761c-1.92-0.923-5.34-2.277-10.051-2.277    c-4.7,0-6.977,2.141-6.977,4.638c0,3.063,2.707,4.417,8.908,6.767c8.478,3.126,12.475,7.554,12.475,14.321    c0,8.047-6.201,14.898-19.39,14.898c-5.487,0-10.9-1.427-13.607-2.927l2.204-8.981c2.927,1.5,7.417,3,12.044,3    C241.972,167.564,244.606,165.487,244.606,162.361z" style="fill:#1BA7E2;"/><path d="M217.243,161.574c0,8.047-6.201,14.898-19.389,14.898c-5.487,0-10.901-1.427-13.608-2.927    l2.203-8.981c2.927,1.5,7.417,3,12.044,3c4.995,0,7.628-2.077,7.628-5.204c0-3-2.277-4.711-8.058-6.778    c-7.973-2.77-13.177-7.197-13.177-14.175c0-1.532,0.241-3,0.703-4.375c2.024-5.949,8.256-10.093,17.469-10.093    c5.414,0,9.411,1.144,12.254,2.423l-2.424,8.761c-1.92-0.923-5.34-2.277-10.041-2.277c-4.71,0-6.987,2.141-6.987,4.638    c0,3.063,2.706,4.417,8.907,6.767C213.246,150.379,217.243,154.806,217.243,161.574z" style="fill:#1BA7E2;"/><path d="M168.278,167.491c3.284,0,6.914-0.713,9.054-1.574l1.637,8.478    c-1.993,1.007-6.484,2.077-12.328,2.077c-16.609,0-25.16-10.334-25.16-24.016c0-16.398,11.688-25.516,26.229-25.516    c5.624,0,9.904,1.144,11.824,2.14l-1.532,6.012l-0.671,2.613c-2.214-0.934-5.277-1.784-9.128-1.784    c-8.624,0-15.318,5.194-15.318,15.885C152.887,161.427,158.583,167.491,168.278,167.491z" style="fill:#1BA7E2;"/><path d="M419.672,461.64H130.098c-5.794,0-10.492-4.697-10.492-10.492V202.492    c0-5.794,4.697-10.492,10.492-10.492c5.795,0,10.492,4.697,10.492,10.492v238.164h268.59v-318.19l-50.96-51.121H140.59v29.377    c0,5.795-4.697,10.492-10.492,10.492c-5.794,0-10.492-4.697-10.492-10.492V60.853c0-5.794,4.697-10.492,10.492-10.492h232.488    c2.934,0,5.722,1.227,7.699,3.364l56.797,56.975c1.974,1.968,3.082,4.641,3.082,7.428v333.021    C430.164,456.942,425.467,461.64,419.672,461.64z" style="fill:#1BA7E2;"/><path d="M363.11,128.661c-5.756,0-10.438-4.638-10.491-10.395l-0.524-57.223    c-0.054-5.794,4.601-10.534,10.396-10.587c0.032,0,0.065,0,0.098,0c5.75,0,10.437,4.634,10.49,10.396l0.428,46.819l45.728-0.034    c0.003,0,0.007,0,0.009,0c5.791,0,10.487,4.692,10.491,10.484c0.004,5.794-4.689,10.496-10.483,10.5l-56.131,0.042    C363.116,128.661,363.112,128.661,363.11,128.661z" style="fill:#1BA7E2;"/><path d="M306.36,212.983H92.328c-5.795,0-10.492-4.697-10.492-10.492V100.721    c0-5.794,4.697-10.492,10.492-10.492H306.36c5.795,0,10.492,4.697,10.492,10.492v101.771    C316.853,208.286,312.155,212.983,306.36,212.983z M102.82,192h193.049v-80.787H102.82V192z" style="fill:#1BA7E2;"/><path d="M230.82,424.918h-56.656c-5.795,0-10.492-4.696-10.492-10.492v-56.655    c0-5.795,4.697-10.492,10.492-10.492c5.794,0,10.492,4.697,10.492,10.492v46.164h46.164c5.794,0,10.492,4.696,10.492,10.491    C241.312,420.222,236.614,424.918,230.82,424.918z" style="fill:#00538E;"/><path d="M287.476,424.918H230.82c-5.795,0-10.492-4.696-10.492-10.492v-56.655    c0-5.795,4.697-10.492,10.492-10.492c5.794,0,10.492,4.697,10.492,10.492v46.164h46.164c5.795,0,10.491,4.696,10.491,10.491    C297.967,420.222,293.271,424.918,287.476,424.918z" style="fill:#00538E;"/><path d="M230.82,368.263h-56.656c-5.795,0-10.492-4.697-10.492-10.492v-56.655    c0-5.796,4.697-10.492,10.492-10.492c5.794,0,10.492,4.696,10.492,10.492v46.163h46.164c5.794,0,10.492,4.697,10.492,10.492    S236.614,368.263,230.82,368.263z" style="fill:#00538E;"/><path d="M230.82,311.606h-56.656c-5.795,0-10.492-4.696-10.492-10.491v-56.656    c0-5.794,4.697-10.492,10.492-10.492h56.656c5.794,0,10.492,4.697,10.492,10.492v56.656    C241.312,306.91,236.614,311.606,230.82,311.606z M184.656,290.623h35.672v-35.672h-35.672V290.623z" style="fill:#00538E;"/><path d="M287.476,368.263H230.82c-5.795,0-10.492-4.697-10.492-10.492v-56.655    c0-5.796,4.697-10.492,10.492-10.492h56.656c5.795,0,10.491,4.696,10.491,10.492v56.655    C297.967,363.565,293.271,368.263,287.476,368.263z M241.312,347.278h35.672v-35.672h-35.672V347.278z" style="fill:#00538E;"/><path d="M344.131,424.918h-56.655c-5.795,0-10.492-4.696-10.492-10.492v-56.655    c0-5.795,4.697-10.492,10.492-10.492h56.655c5.795,0,10.492,4.697,10.492,10.492v56.655    C354.623,420.222,349.926,424.918,344.131,424.918z M297.967,403.935h35.673v-35.672h-35.673V403.935z" style="fill:#00538E;"/></g></g><g id="Layer_1"/></svg>