<?xml version="1.0" ?><!DOCTYPE svg  PUBLIC '-//W3C//DTD SVG 1.1//EN'  'http://www.w3.org/Graphics/SVG/1.1/DTD/svg11.dtd'><svg height="512px" style="enable-background:new 0 0 512 512;" version="1.1" viewBox="0 0 512 512" width="512px" xml:space="preserve" xmlns="http://www.w3.org/2000/svg" xmlns:xlink="http://www.w3.org/1999/xlink"><g id="comp_x5F_76-css3"><g><g><g><path d="M464.57,61.334l-55.616,319.808l-194.06,69.524L47.43,381.142l17.032-82.385h71.263      l-6.952,35.282l101.156,38.587l116.538-38.587l16.34-84.384H73.067l13.903-71.261h290.001l9.124-45.799H96.356l14.166-71.262      H464.57z" style="fill:#2965F1;"/><path d="M214.895,460.666c-1.305,0-2.608-0.256-3.834-0.765L43.595,390.377      c-4.429-1.839-6.93-6.563-5.958-11.26l17.032-82.385c0.96-4.645,5.05-7.976,9.793-7.976h71.263c2.991,0,5.825,1.339,7.725,3.649      c1.899,2.31,2.665,5.35,2.087,8.284l-5.322,27.01l89.952,34.313l107.597-35.627l12.922-66.731H73.067      c-2.988,0-5.819-1.336-7.718-3.642c-1.9-2.306-2.669-5.34-2.097-8.273l13.903-71.261c0.916-4.696,5.03-8.085,9.815-8.085      h281.797l5.14-25.799H96.356c-2.994,0-5.83-1.341-7.729-3.656c-1.899-2.314-2.662-5.357-2.079-8.294l14.166-71.262      c0.93-4.68,5.037-8.05,9.808-8.05H464.57c2.952,0,5.753,1.304,7.653,3.563c1.899,2.259,2.704,5.242,2.199,8.15l-55.616,319.807      c-0.617,3.546-3.092,6.487-6.479,7.701l-194.06,69.524C217.176,460.471,216.035,460.666,214.895,460.666z M58.896,375.074      l156.264,64.874l184.94-66.257l52.581-302.357H118.73l-10.19,51.262h277.556c2.994,0,5.832,1.342,7.731,3.657      s2.661,5.36,2.076,8.296l-9.124,45.799c-0.933,4.678-5.038,8.046-9.808,8.046H95.208l-10.001,51.261h277.6      c2.985,0,5.814,1.333,7.714,3.637c1.899,2.303,2.671,5.333,2.104,8.264l-16.34,84.384c-0.688,3.552-3.24,6.455-6.674,7.592      l-116.539,38.587c-2.186,0.723-4.556,0.67-6.707-0.149l-101.156-38.587c-4.551-1.736-7.189-6.498-6.248-11.277l4.601-23.349      H72.606L58.896,375.074z" style="fill:#1F4CB5;"/></g></g></g></g><g id="Layer_1"/></svg>