<?xml version="1.0" ?><!DOCTYPE svg  PUBLIC '-//W3C//DTD SVG 1.1//EN'  'http://www.w3.org/Graphics/SVG/1.1/DTD/svg11.dtd'><svg height="512px" style="enable-background:new 0 0 512 512;" version="1.1" viewBox="0 0 512 512" width="512px" xml:space="preserve" xmlns="http://www.w3.org/2000/svg" xmlns:xlink="http://www.w3.org/1999/xlink"><g id="comp_x5F_81-delicious"><g><g><g><g><path d="M256.003,36.063v221.45h-220V83.292c0-4.02,0.489-8.05,1.479-11.779       c1.96-7.561,5.69-14.34,10.8-19.931c0.98-1.09,2.061-2.17,3.24-3.239c5.59-5.11,12.37-8.84,19.93-10.811       c3.73-0.979,7.761-1.47,11.78-1.47H256.003z" style="fill:#FFFFFF;"/></g><g><path d="M476.003,257.513v171.41c-0.101,4.03-0.591,8.06-1.58,11.79c-0.391,1.47-0.88,2.939-1.37,4.42       c-0.88,2.45-1.96,4.71-3.24,6.97c-1.37,2.351-2.95,4.71-4.62,6.771c-2.06,2.46-4.31,4.72-6.77,6.68       c-1.08,0.88-2.16,1.67-3.24,2.45c-1.28,0.89-2.55,1.67-3.93,2.359c-1.771,0.98-3.53,1.771-5.4,2.46       c-1.67,0.681-3.44,1.271-5.3,1.66c-3.73,0.99-7.76,1.48-11.78,1.48h-172.77v-0.2v-218.25H476.003z" style="fill:#DEDDD9;"/></g><g><path d="M256.003,475.763v0.2H83.133c-26.021,0.1-47.13-21.021-47.13-47.04v-171.41h220V475.763z" style="fill:#000002;"/></g><g><path d="M476.003,83.192v174.32h-220V36.063h172.859C454.893,36.063,476.003,57.173,476.003,83.192z" style="fill:#1568B4;"/></g></g><g><g><path d="M82.949,485.963c-31.4,0-56.946-25.588-56.946-57.04V83.292c0-4.982,0.61-9.81,1.814-14.346       c2.314-8.927,6.844-17.284,13.084-24.11c1.148-1.277,2.48-2.61,3.905-3.902c6.787-6.204,15.14-10.736,24.124-13.078       c4.522-1.188,9.341-1.793,14.302-1.793h345.63c31.508,0,57.141,25.628,57.141,57.13v345.73c0,0.083-0.001,0.165-0.003,0.248       c-0.126,5.053-0.769,9.799-1.912,14.106c-0.456,1.718-0.985,3.316-1.497,4.863l-0.045,0.135       c-0.026,0.08-0.054,0.159-0.082,0.237c-1.02,2.839-2.312,5.625-3.949,8.518c-0.021,0.036-0.041,0.072-0.063,0.108       c-1.73,2.968-3.577,5.67-5.49,8.03c-0.034,0.042-0.068,0.083-0.103,0.124c-2.563,3.061-5.309,5.768-8.161,8.046       c-1.288,1.047-2.514,1.942-3.66,2.771c-0.049,0.035-0.098,0.07-0.147,0.104c-1.695,1.179-3.325,2.16-4.976,2.997       c-2.05,1.124-4.162,2.086-6.446,2.936c-2.28,0.921-4.444,1.599-6.601,2.067c-4.465,1.16-9.205,1.749-14.096,1.749H82.949z        M83.232,46.063c-3.2,0-6.396,0.395-9.239,1.142c-5.95,1.551-11.234,4.416-15.724,8.52c-0.953,0.864-1.802,1.711-2.551,2.545       c-4.161,4.552-7.021,9.832-8.556,15.753c-0.765,2.879-1.16,6.065-1.16,9.271v345.631c0,20.424,16.574,37.04,36.946,37.04       h345.823c3.205,0,6.391-0.396,9.214-1.146c0.171-0.046,0.343-0.086,0.516-0.122c1.103-0.231,2.272-0.603,3.577-1.134       c0.104-0.042,0.209-0.083,0.314-0.122c1.467-0.541,2.743-1.121,4.014-1.825c0.124-0.068,0.249-0.134,0.376-0.197       c0.839-0.419,1.674-0.921,2.622-1.577c0.931-0.673,1.838-1.336,2.701-2.04c0.028-0.023,0.057-0.046,0.085-0.068       c1.803-1.437,3.58-3.191,5.281-5.215c1.228-1.522,2.495-3.387,3.671-5.398c1.048-1.857,1.832-3.532,2.458-5.257l0.003-0.008       c0.438-1.323,0.852-2.573,1.153-3.706c0.732-2.764,1.151-5.91,1.245-9.354V83.192c0-20.474-16.661-37.13-37.141-37.13H83.232z"/></g><g><path d="M256.003,485.763c-5.523,0-10-4.478-10-10v-439.7c0-5.523,4.477-10.025,10-10.025c5.522,0,10,4.452,10,9.976v439.75       C266.003,481.285,261.525,485.763,256.003,485.763z"/></g><g><path d="M476.013,267.513H36.003c-5.523,0-10.011-4.478-10.011-10c0-5.523,4.468-10,9.99-10h440.021       c5.522,0,10.005,4.477,10.005,10C486.008,263.035,481.535,267.513,476.013,267.513z"/></g></g></g></g></g><g id="Layer_1"/></svg>