<?xml version="1.0" ?><!DOCTYPE svg  PUBLIC '-//W3C//DTD SVG 1.1//EN'  'http://www.w3.org/Graphics/SVG/1.1/DTD/svg11.dtd'><svg height="512px" style="enable-background:new 0 0 512 512;" version="1.1" viewBox="0 0 512 512" width="512px" xml:space="preserve" xmlns="http://www.w3.org/2000/svg" xmlns:xlink="http://www.w3.org/1999/xlink"><g id="comp_x5F_90-diners-club_x2C__Credit_card"><g><g><g><path d="M431.468,83.665H80.532c-19.893,0-36.033,16.141-36.033,36.034v272.602      c0,19.895,16.14,36.035,36.033,36.035h350.936c19.894,0,36.033-16.141,36.033-36.035V119.699      C467.501,99.805,451.361,83.665,431.468,83.665z" style="fill:#0068A9;"/><g><path d="M431.468,438.336H80.532c-25.383,0-46.033-20.651-46.033-46.035V119.699       c0-25.383,20.65-46.034,46.033-46.034h350.936c25.383,0,46.033,20.651,46.033,46.034v272.602       C477.501,417.685,456.851,438.336,431.468,438.336z M80.532,93.665c-14.355,0-26.033,11.679-26.033,26.034v272.602       c0,14.355,11.678,26.035,26.033,26.035h350.936c14.354,0,26.033-11.68,26.033-26.035V119.699       c0-14.355-11.679-26.034-26.033-26.034H80.532z" style="fill:#004E7F;"/></g></g><g><path d="M288.244,382.9h-67.788c-79.724,0-138.357-51.227-138.357-124.697      c0-80.419,58.633-129.104,138.357-129.104h67.788c78.822,0,141.656,48.685,141.656,129.104      C429.9,331.674,367.066,382.9,288.244,382.9z" style="fill:#FFFFFF;"/><g><path d="M288.244,392.9h-67.788c-85.964,0-148.357-56.648-148.357-134.697       c0-41.674,14.725-76.991,42.582-102.133c26.799-24.187,63.375-36.971,105.775-36.971h67.788       c41.636,0,79.617,13.086,106.947,36.848c29.249,25.429,44.709,60.789,44.709,102.256c0,38.036-15.892,72.655-44.748,97.48       C367.256,379.684,329.288,392.9,288.244,392.9z M220.457,139.099c-77.974,0-128.357,46.751-128.357,119.104       c0,67.532,52.783,114.697,128.357,114.697h67.788c75.057,0,131.656-49.31,131.656-114.697       c0-70.126-54.139-119.104-131.656-119.104H220.457z" style="fill:#004E7F;"/></g></g><g><path d="M220.682,162.342c-52.018,0-94.373,42.194-94.373,94.372c0,52.016,42.355,94.372,94.373,94.372      c52.179,0,94.371-42.355,94.371-94.372C315.053,204.536,272.86,162.342,220.682,162.342z" style="fill:#0068A9;"/><g><path d="M220.682,361.086c-57.551,0-104.373-46.821-104.373-104.372       c0-57.551,46.821-104.372,104.373-104.372c57.551,0,104.371,46.821,104.371,104.372       C325.053,314.265,278.232,361.086,220.682,361.086z M220.682,172.342c-46.523,0-84.373,37.849-84.373,84.372       s37.85,84.372,84.373,84.372c46.522,0,84.371-37.849,84.371-84.372S267.204,172.342,220.682,172.342z" style="fill:#004E7F;"/></g></g><g><path d="M199.262,312.436c-22.385-8.535-38.328-30.277-38.328-55.721      c0-25.445,15.943-47.186,38.328-55.882V312.436z" style="fill:#FFFFFF;"/><g><path d="M199.261,322.436c-1.201,0-2.408-0.216-3.562-0.656c-26.776-10.209-44.766-36.356-44.766-65.065       c0-28.611,17.966-54.814,44.707-65.204c3.079-1.196,6.546-0.795,9.269,1.068c2.724,1.864,4.353,4.952,4.353,8.253v111.604       c0,3.289-1.618,6.369-4.327,8.235C203.244,321.836,201.261,322.436,199.261,322.436z M189.262,218.149       c-11.34,9.359-18.328,23.496-18.328,38.565c0,15.115,6.989,29.232,18.328,38.511V218.149z" style="fill:#004E7F;"/></g></g><g><path d="M242.101,312.598V200.832c22.386,8.697,38.329,30.437,38.329,55.882      C280.43,282.158,264.486,303.9,242.101,312.598L242.101,312.598z" style="fill:#FFFFFF;"/><g><path d="M242.102,322.598c-1.988,0-3.961-0.593-5.648-1.747c-2.724-1.864-4.353-4.952-4.353-8.253       V200.832c0-3.301,1.628-6.389,4.353-8.252c2.724-1.865,6.192-2.265,9.269-1.069c26.741,10.389,44.708,36.592,44.708,65.204       c0,28.612-17.967,54.815-44.708,65.205C244.551,322.374,243.323,322.598,242.102,322.598z M252.101,218.149v77.131       c11.34-9.359,18.329-23.496,18.329-38.566S263.44,227.508,252.101,218.149z" style="fill:#004E7F;"/></g></g></g></g></g><g id="Layer_1"/></svg>