<?xml version="1.0" ?><!DOCTYPE svg  PUBLIC '-//W3C//DTD SVG 1.1//EN'  'http://www.w3.org/Graphics/SVG/1.1/DTD/svg11.dtd'><svg height="512px" style="enable-background:new 0 0 512 512;" version="1.1" viewBox="0 0 512 512" width="512px" xml:space="preserve" xmlns="http://www.w3.org/2000/svg" xmlns:xlink="http://www.w3.org/1999/xlink"><g id="comp_x5F_100-dropbox"><g><g><g><polygon points="256.33,126.424 147.224,196.104 256.33,265.782 147.224,335.463 37.786,265.122       147.142,195.441 37.786,126.424 147.142,56.744 256.33,126.424     " style="fill:#007EE4;"/><path d="M147.224,345.463c-1.88,0-3.76-0.529-5.407-1.588L32.379,273.534      c-2.869-1.844-4.6-5.021-4.593-8.432s1.75-6.582,4.626-8.414l96.057-61.207L32.449,134.88c-2.896-1.828-4.655-5.01-4.663-8.435      c-0.007-3.424,1.738-6.615,4.626-8.455l109.355-69.68c3.279-2.09,7.473-2.089,10.753,0.004l109.189,69.68      c2.878,1.836,4.619,5.014,4.62,8.428c0.001,3.414-1.74,6.592-4.617,8.43l-95.91,61.252l95.91,61.251      c2.876,1.837,4.617,5.015,4.617,8.428s-1.741,6.591-4.617,8.428l-109.107,69.681      C150.965,344.938,149.094,345.463,147.224,345.463z M56.338,265.158l90.903,58.429l90.51-57.805l-91.093-58.175L56.338,265.158z       M56.458,126.383l91.214,57.568l90.074-57.525l-90.608-57.822L56.458,126.383z" style="fill:#005FAB;"/></g><g><polygon points="146.563,385.576 255.67,315.896 364.775,385.576 255.67,455.256     " style="fill:#007EE4;"/><path d="M255.67,465.256c-1.871,0-3.741-0.524-5.382-1.572l-109.107-69.68      c-2.876-1.837-4.618-5.015-4.618-8.428s1.741-6.591,4.618-8.428l109.107-69.681c3.281-2.097,7.482-2.098,10.765,0      l109.105,69.681c2.876,1.837,4.617,5.015,4.617,8.428s-1.741,6.591-4.617,8.428l-109.105,69.68      C259.411,464.731,257.541,465.256,255.67,465.256z M165.142,385.576l90.528,57.814l90.526-57.814l-90.526-57.815      L165.142,385.576z" style="fill:#005FAB;"/></g><g><polygon points="256.33,265.122 365.438,195.441 256.33,126.341 364.859,56.744 474.214,126.424       364.859,196.104 474.214,265.701 364.859,335.38 256.33,265.122     " style="fill:#007EE4;"/><path d="M364.859,345.38c-1.891,0-3.781-0.535-5.435-1.605l-108.529-70.258      c-2.856-1.849-4.576-5.023-4.566-8.426c0.011-3.402,1.75-6.565,4.618-8.396l95.856-61.218l-95.824-60.688      c-2.886-1.828-4.64-5.003-4.649-8.42s1.726-6.602,4.602-8.446l108.529-69.597c3.281-2.104,7.485-2.109,10.772-0.016      l109.354,69.68c2.882,1.836,4.626,5.017,4.626,8.434s-1.744,6.597-4.626,8.434l-96.111,61.241l96.106,61.166      c2.884,1.835,4.63,5.016,4.631,8.434s-1.744,6.6-4.626,8.437l-109.354,69.679C368.594,344.858,366.727,345.38,364.859,345.38z       M274.82,265.179l90.082,58.316l90.694-57.789l-90.957-57.889L274.82,265.179z M274.938,126.288l90.716,57.452l89.951-57.316      l-90.728-57.811L274.938,126.288z" style="fill:#005FAB;"/></g></g></g></g><g id="Layer_1"/></svg>