<?xml version="1.0" ?><!DOCTYPE svg  PUBLIC '-//W3C//DTD SVG 1.1//EN'  'http://www.w3.org/Graphics/SVG/1.1/DTD/svg11.dtd'><svg height="512px" style="enable-background:new 0 0 512 512;" version="1.1" viewBox="0 0 512 512" width="512px" xml:space="preserve" xmlns="http://www.w3.org/2000/svg" xmlns:xlink="http://www.w3.org/1999/xlink"><g id="comp_x5F_108-edge"><g><g><g><path d="M51.715,231.306c0.098-0.145,0.203-0.288,0.304-0.432c-0.019,0.144-0.039,0.287-0.058,0.432      H51.715z M460.285,245.063c0-39.061-6.877-74.929-25.548-108.584C398.377,71.376,333.986,36.001,258.566,36.001      C134.436,35.756,64.935,129.334,52.019,230.876c37.639-54.39,103.854-107.672,195.493-110.857c0,0,97.284,0,88.193,93.107      H179.707C181.334,200.667,178.5,190.5,200,160c-66.574,30.953-97.922,68.356-96.939,150.166      c0.735,63.381,44.464,128.482,107.109,152.559c73.945,28.252,171.012,6.387,213.02-18.917v-92.616      c-71.732,50.116-240.287,54.048-241.515-59.943h278.61V245.063L460.285,245.063z" style="fill:#0078D7;"/><path d="M289.021,486c-30.491,0-58.221-4.688-82.42-13.934c-65-24.981-112.742-93.019-113.54-161.784      c-0.511-42.599,7.395-74.349,24.881-99.916c16.12-23.569,40.127-41.899,77.842-59.435c4.107-1.911,8.986-0.82,11.89,2.656      c2.904,3.477,3.109,8.471,0.499,12.173c-13.646,19.358-16.51,29.27-17.492,37.365h135.602      c0.353-19.725-4.946-35.747-15.802-47.714c-22.099-24.361-60.233-25.354-62.833-25.391      C143.902,133.719,83.23,203.81,61.14,235.278c-1.548,3.58-5.107,6.028-9.179,6.028h-0.246c-3.699,0-7.097-2.042-8.832-5.31      c-1.351-2.543-1.523-5.504-0.556-8.137c7.257-54.346,29.908-103.776,63.892-139.357C145.271,47.613,197.785,26,258.081,26      l0.505,0c80.006,0,147.399,38.49,184.882,105.602c18.301,32.987,26.817,69.031,26.817,113.46v46.186c0,5.522-4.478,10-10,10      H192.296c7.828,67.877,86.706,73.353,111.647,73.352c42.12-0.002,85.618-12.112,113.519-31.605      c3.055-2.135,7.044-2.394,10.35-0.671c3.305,1.723,5.378,5.141,5.378,8.868v92.616c0,3.507-1.837,6.757-4.84,8.566      C400.563,469.111,346.705,486,289.021,486z M174.583,184.952c-45.595,28.648-62.251,64.39-61.522,125.094      c0.707,60.908,43.056,121.191,100.697,143.345C235.65,461.755,260.979,466,289.021,466c50.61,0,97.6-13.647,124.168-28.001      v-69.055c-30.272,16.047-70.431,25.653-109.245,25.655c-35.9,0.002-67-8.008-89.936-23.162      c-27.325-18.055-41.963-45.746-42.333-80.082c-0.029-2.671,1.012-5.241,2.891-7.141c1.878-1.898,4.438-2.967,7.109-2.967h268.61      v-36.186c0-40.897-7.719-73.859-24.292-103.733c-33.832-60.574-94.861-95.329-167.427-95.329l-0.485,0      c-107.975,0-166.036,72.137-187.84,146.438c16.217-17.301,34.453-32.428,53.961-44.664      c37.494-23.516,78.865-36.216,122.962-37.749c0.116-0.004,0.231-0.006,0.347-0.006c1.993,0,49.125,0.363,77.783,31.955      c16.417,18.099,23.269,42.365,20.363,72.124c-0.501,5.122-4.807,9.028-9.953,9.028H179.707c-2.878,0-5.616-1.24-7.515-3.402      c-1.898-2.163-2.773-5.039-2.401-7.893c0.223-1.706,0.356-3.451,0.497-5.3C170.75,200.448,171.246,193.933,174.583,184.952z" style="fill:#005AA1;"/></g></g></g></g><g id="Layer_1"/></svg>