<?xml version="1.0" ?><!DOCTYPE svg  PUBLIC '-//W3C//DTD SVG 1.1//EN'  'http://www.w3.org/Graphics/SVG/1.1/DTD/svg11.dtd'><svg height="512px" style="enable-background:new 0 0 512 512;" version="1.1" viewBox="0 0 512 512" width="512px" xml:space="preserve" xmlns="http://www.w3.org/2000/svg" xmlns:xlink="http://www.w3.org/1999/xlink"><g id="comp_x5F_111-ember"><g><g><g><path d="M403.922,353.049c-2.032,0-4.044-0.403-5.979-1.199c-4.099-1.686-7.147-4.155-9.381-6.925      c-7.142,4.011-17.388,7.847-30.458,7.847c-1.713,0-3.461-0.066-5.196-0.199c-16.448-1.216-26.522-9.335-32.136-16.07      c-8.995,4.13-25.243,10.146-51.561,15.336c-0.274,0.055-0.552,0.098-0.831,0.128c-1.89,0.21-3.812,0.316-5.711,0.316      c-11.959,0-21.671-4.192-27.599-7.608c-2.081,1.163-4.782,2.593-8.312,4.357c-0.093,0.047-0.186,0.092-0.28,0.135      c-0.735,0.34-7.404,3.319-14.995,3.319c-8.957,0-16.118-4.041-20.164-11.378c-0.682-1.237-1.273-2.627-1.785-4.138      c-5.18,11.916-11.975,14.675-17.153,14.675c-0.263,0-0.526-0.009-0.788-0.025c-0.196,0.005-0.41,0.008-0.641,0.008      c-10.241,0-18.291-5.112-21.52-13.49c-5.774,9.991-11.329,14.38-19.617,14.38c-1.95,0-3.75-0.277-5.404-0.577      c-5.303-0.96-9.311-3.836-12.091-7.548l-1.407,0.779c-0.29,0.16-0.588,0.307-0.893,0.438c-0.608,0.262-15.06,6.403-29.809,6.403      c-9.034,0-16.584-2.249-22.44-6.685c-8.537-6.497-13.197-13.89-15.731-20.297c-4.682-0.777-10.975-2.084-16.126-4.08      c-4.81-1.863-8.146-5.439-9.394-10.068c-2.181-8.094,3.085-15.854,5.073-18.407c2.081-2.839,6.016-5.694,11.252-5.694      c2.205,0,5.452,0.543,8.961,2.967c0.968-4.96,2.448-10.303,4.974-15.927c11.764-26.417,30.903-29.665,38.585-29.833      c0.372-0.006,0.666-0.008,0.958-0.008c13.303,0,22.907,4.845,30.224,15.249c0.438,0.622,0.803,1.292,1.088,1.997      c0.041,0.101,0.081,0.201,0.121,0.302c0.908-3.483,1.696-6.167,2.249-7.54c2.668-6.621,9.409-10.57,18.033-10.57      c0.421,0,0.807,0.01,1.146,0.024c0.478-0.043,1.021-0.072,1.617-0.072c7.347,0,13.122,4.207,15.374,10.943      c4.848-4.834,12.151-9.841,21.603-9.841c0.396,0,0.799,0.009,1.202,0.028c4.748,0.221,8.831,2.5,11.498,6.419      c0.618,0.908,1.138,1.904,1.57,2.973c0.016-0.019,0.032-0.038,0.047-0.056c1.419-1.671,9-10.005,18.861-10.005      c1.693,0,3.362,0.246,4.959,0.73c11.674,3.45,13.523,11.614,14.039,17.128c0.92-7.874,1.833-15.921,2.654-23.575      c3.866-36.003,20.261-60.394,21.164-61.712c1.123-1.652,7.401-10.115,21.479-15.664c0.101-0.04,0.202-0.078,0.305-0.115      c3.105-1.108,6.172-1.671,9.114-1.671c7.07,0,19.717,3.297,24.964,25.38c5.219,22.519-4.409,46.414-14.652,63.943      c1.039,0.45,2.064,0.976,3.075,1.579c0.065,0.039,0.13,0.079,0.194,0.119c12.413,7.793,17.64,18.792,18.789,30.158      c5.13-13.264,13.474-24.069,24.929-32.245c0.277-0.198,0.508-0.36,0.682-0.493c3.411-2.558,12.793-6.282,22.271-6.282      c15.006,0,25.148,8.727,28.132,23.721c1.527-5.585,2.825-9.828,3.392-11.292c2.899-7.491,11.12-10.16,17.848-10.16      c6.727,0,11.829,2.671,14.027,7.334c2.941-2.496,9.249-7.002,16.459-7.002c1.63,0,3.228,0.226,4.751,0.672      c9.198,2.656,12.837,13.594,10.816,32.513c-0.012,0.108-0.024,0.217-0.04,0.325c-0.543,3.987-0.471,8.834,0.078,11.549      c4.314-0.718,9.675-3.955,11.706-5.53c0.721-0.559,1.516-1.017,2.36-1.36c0.913-0.371,3.373-1.235,6.472-1.235      c6.697,0,13.911,4.441,14.932,14.362c1.028,10.081-3.642,16.752-8.234,19.649c-3.065,2.191-18.031,12.294-33.371,12.294      c-0.001,0-0.001,0-0.002,0c-3.049,0-5.978-0.399-8.705-1.188c-6.346-1.835-10.916-5.912-14.208-10.809l-5.214,14.408      C424.313,335.304,417.748,353.049,403.922,353.049z M261.96,316.354c3.716,0,8.397-1.09,11.643-9.59      c4.791-12.589,2.266-18.645,0.936-20.688c-0.481-0.124-1.053-0.224-1.632-0.224c-3.439,0-5.652,4.982-6.903,9.162      c-3.03,10.132-4.117,17.035-4.462,21.333C261.68,316.352,261.819,316.354,261.96,316.354z" style="fill:#E04E39;"/><path d="M284.671,168.95c6.182,0.001,12.052,4.296,15.234,17.692      c6.829,29.467-16.744,63.174-26.521,75.608c2.93-2.88,7.231-5.932,12.313-5.932c2.274,0,4.704,0.611,7.237,2.122      c28.964,18.186,5.246,58.143,5.246,58.143c8.481-2.729,23.718-12.936,23.718-12.936s0.359-4.382,0.504-5.39      c5.174-29.684,22.997-40.392,26.305-42.908c1.572-1.179,8.745-4.242,16.217-4.241c8.915,0.001,18.256,4.363,18.999,21.491      c1.367,31.479-38.02,42.477-38.02,42.477s2.716,7.128,13.468,7.128c1.366,0,2.863-0.115,4.501-0.375      c14.517-2.298,31.12-16.384,31.12-16.384c0.575-12.937,9.056-43.842,10.78-48.299c1.012-2.614,5.09-3.769,8.521-3.769      c2.417,0,4.514,0.573,4.989,1.614c1.582,5.03,0.217,27.024,0.217,27.024l1.149-0.359c4.241-12.579,13.152-22.426,13.152-22.426      s5.634-5.521,10.979-5.521c0.661,0,1.317,0.085,1.958,0.274c5.823,1.654,3.666,21.849,3.666,21.849s-3.091,22.065,6.756,22.999      c0.538,0.055,1.079,0.081,1.624,0.081c9.413,0,19.435-7.771,19.435-7.771s1.227-0.499,2.705-0.499      c2.027,0,4.527,0.938,4.984,5.386c0.792,7.763-3.81,10.278-3.81,10.278s-14.442,10.642-27.851,10.642      c-2.016,0-4.011-0.241-5.928-0.795c-14.663-4.24-15.453-31.049-15.453-31.049h-1.365l-14.878,41.11      c0,0-5.007,16.833-12.702,16.833c-0.703,0-1.43-0.141-2.176-0.447c-8.91-3.664-8.695-13.367-8.695-13.367      s-12.265,13.537-34.947,13.537c-1.437,0-2.918-0.055-4.438-0.17c-22.352-1.652-29.539-19.188-29.539-19.188      s-14.949,10.35-56.851,18.614c-1.576,0.175-3.113,0.255-4.607,0.255c-16.291,0-27.448-9.527-27.448-9.527      c-1.724,1.726-12.936,7.333-12.936,7.333s-5.189,2.396-10.802,2.396c-4.25,0-8.743-1.375-11.407-6.206      c-6.181-11.213-2.155-45.783-2.155-45.783h-1.149c0,0-9.272,18.902-14.087,35.864c-4.002,14.094-8.796,15.285-10.303,15.285      c-0.307,0-0.477-0.05-0.477-0.05s-0.354,0.032-0.951,0.032c-2.726,0-10.498-0.678-12.562-8.223      c-2.515-9.272,4.024-42.909,4.024-42.909l-0.934,0.216c0,0-0.006-0.01-0.025-0.01c-0.171,0-1.404,0.813-9.03,16.971      c-12.182,29.636-16.545,34.845-22.612,34.845c-1.128,0-2.315-0.181-3.622-0.417c-8.337-1.51-8.696-12.003-8.696-12.003      l-11.427,6.325c0,0-12.999,5.59-25.858,5.59c-5.925,0-11.823-1.188-16.403-4.656c-9.631-7.33-12.938-15.955-14.087-21.347      c0,0-12.218-1.292-20.194-4.383c-7.979-3.091,0.071-13.153,0.071-13.153s1.118-1.692,3.247-1.692      c1.064,0,2.382,0.423,3.939,1.692c2.451,1.999,6.05,2.474,8.917,2.474c2.597,0,4.595-0.39,4.595-0.39      c0.719-6.109,1.797-14.157,5.606-22.639c7.905-17.752,19.836-23.717,29.683-23.934c0.248-0.003,0.494-0.005,0.739-0.005      c9.458,0,16.23,2.734,22.044,11.001c13.368,32.99-35.504,49.736-35.504,49.736s-1.265,8.483,11.518,8.483      c0.159,0,0.321-0.001,0.484-0.004c13.367-0.143,33.635-14.661,33.635-14.661c0.936-11.068,8.697-45.638,10.781-50.814      c1.532-3.801,6.323-4.305,8.756-4.305c0.878,0,1.45,0.066,1.45,0.066s0.53-0.113,1.313-0.113c1.936,0,5.414,0.692,6.233,5.502      c1.222,6.758-4.601,34.213-4.601,34.213l0.935,1.151c0.575-2.661,14.661-26.235,14.661-26.235s7.799-13.53,19.748-13.529      c0.243,0,0.49,0.005,0.737,0.017c12.36,0.575-0.576,38.453-0.576,38.453l0.935,1.148l0.934-1.725      c1.582-4.239,19.909-32.056,19.909-32.056s5.505-6.48,11.24-6.48c0.685,0,1.374,0.093,2.056,0.3      c6.325,1.869,6.756,4.814,7.115,10.206c0.359,5.39-5.031,37.447-5.031,37.447s-3.038,20.63,3.707,20.63      c0.058,0,0.116-0.002,0.175-0.005c6.971-0.361,14.518-7.689,14.518-7.689s5.391-41.399,9.056-75.537      c3.666-34.14,19.477-57.137,19.477-57.137s4.673-7.188,16.89-12.003C280.82,169.36,282.76,168.95,284.671,168.95       M254.771,261.673c0,0,31.983-51.745,28.75-69.139c-0.633-3.405-1.669-4.774-2.925-4.774      c-5.159,0.001-14.038,23.103-14.038,23.103S255.13,250.031,254.771,261.673 M344.255,299.85c2.279,0,11.746-0.605,18.467-10.217      c7.689-10.996,0.935-18.326,0.935-18.326s-1.694-2.188-4.444-2.188c-2.502,0-5.877,1.812-9.644,8.728      c-7.977,14.444-5.821,21.99-5.821,21.99S343.927,299.85,344.255,299.85 M71.608,299.949c1.875,0,6.158-0.697,13.187-5.572      c9.848-6.757,11.788-17.538,6.542-22.569c-0.868-0.832-2.014-1.242-3.325-1.242c-6.504,0.001-17.04,10.131-17.519,29.271      C70.493,299.837,70.857,299.949,71.608,299.949 M261.96,326.354c7.026,0,15.986-2.933,20.984-16.022      c9.055-23.789-2.586-32.7-2.586-32.7s-3.227-1.779-7.452-1.778c-5.421,0-12.484,2.928-16.483,16.296      c-7.115,23.789-4.6,32.271-4.6,32.271S256.254,326.354,261.96,326.354 M284.673,148.95L284.673,148.95      c-4.091,0-8.29,0.758-12.479,2.253c-0.204,0.073-0.407,0.149-0.609,0.229c-16.326,6.435-24.076,16.422-26.037,19.28l0,0      c-0.758,1.103-18.522,27.316-22.81,65.684c-1.275-0.542-2.617-1.021-4.024-1.438c-2.507-0.75-5.116-1.129-7.756-1.129      c-7.053-0.001-13.07,2.664-17.64,5.704c-3.935-3.015-8.728-4.785-13.871-5.024c-0.555-0.025-1.115-0.039-1.667-0.039      c-7.552-0.001-14.01,2.308-19.323,5.486c-4.615-4.178-10.75-6.588-17.653-6.588c-0.647,0-1.259,0.022-1.831,0.059      c-0.295-0.007-0.606-0.012-0.932-0.012c-9.606,0-17.735,3.515-23.002,9.691c-7.816-6.125-17.31-9.128-28.712-9.128      c-0.339,0-0.681,0.002-1.025,0.007c-0.051,0.001-0.102,0.002-0.152,0.003c-9.586,0.21-33.4,4.118-47.506,35.775      c-1.082,2.411-1.995,4.792-2.769,7.102c-0.72-0.061-1.398-0.086-2.027-0.086c-8.833-0.001-15.527,4.762-19.163,9.577      c-2.82,3.637-10.173,14.679-6.818,27.126c2.067,7.672,7.694,13.792,15.438,16.792c4.084,1.583,8.662,2.769,12.813,3.636      c3.354,6.421,8.548,13.246,16.581,19.359c7.671,5.81,17.252,8.741,28.516,8.741c12.249,0,23.968-3.569,29.897-5.711      c3.441,2.638,7.605,4.589,12.52,5.479c2.012,0.364,4.439,0.737,7.186,0.737c7.433,0,14.014-2.691,19.652-8.021      c5.714,4.548,13.164,7.131,21.485,7.131c0.162,0,0.319-0.001,0.472-0.003c0.317,0.014,0.636,0.021,0.957,0.021      c6.213,0,12.216-2.475,17.142-7.02c5.816,5.079,13.418,7.859,21.96,7.859c9.287,0,17.035-3.245,19.188-4.24      c0.188-0.087,0.374-0.176,0.559-0.269c1.415-0.707,2.71-1.368,3.901-1.985c6.96,3.276,16.393,6.292,27.537,6.292      c2.268,0,4.561-0.127,6.815-0.377c0.558-0.063,1.112-0.147,1.662-0.256c21.729-4.286,36.99-9.163,47.225-13.249      c7.794,7.012,18.946,13.047,33.82,14.146c1.944,0.148,3.947,0.225,5.912,0.225c11.482,0,21.083-2.531,28.698-5.806      c2.17,1.611,4.612,3.012,7.338,4.133c3.146,1.294,6.438,1.95,9.782,1.95c7.704,0,18.632-3.314,26.938-19.105      c2.561-4.867,4.146-9.513,4.729-11.36l0.063-0.173c2.459,1.367,4.876,2.311,7.112,2.957c3.633,1.05,7.496,1.582,11.484,1.582      c18.004,0,34.562-10.857,39.069-14.073c7.001-4.625,13.952-14.511,12.486-28.877c-1.415-13.758-11.646-23.355-24.881-23.355      c-4.688,0-8.427,1.235-10.237,1.972c-0.003,0.001-0.005,0.002-0.007,0.003c0.104-2.24,0.164-4.976,0.063-7.807      c-0.171-4.76-0.748-8.779-1.767-12.288c-3.645-12.565-12.628-16.551-16.558-17.716l0,0c-2.459-0.728-5.029-1.098-7.638-1.098      c-5.723,0-10.864,1.792-15.02,3.991c-4.204-2.79-9.521-4.323-15.468-4.323c-8.993,0-16.806,3.126-22.029,8.521      c-0.421-0.424-0.854-0.838-1.297-1.243c-6.846-6.245-15.851-9.546-26.041-9.547c-11.311-0.001-22.757,4.145-28.219,8.241      c-0.022,0.017-0.046,0.035-0.069,0.052c-0.134,0.098-0.294,0.211-0.478,0.342c-2.994,2.137-10.006,7.141-16.954,16.182      c-0.086,0.111-0.172,0.223-0.257,0.335c-2.868-4.281-6.438-8.118-10.642-11.426c0.942-1.848,1.861-3.739,2.746-5.67      c9.499-20.728,12.303-39.918,8.335-57.039c-0.008-0.036-0.017-0.072-0.025-0.108      C312.272,152.175,292.741,148.951,284.673,148.95L284.673,148.95L284.673,148.95z" style="fill:#A83B2B;"/></g></g></g></g><g id="Layer_1"/></svg>