<?xml version="1.0" ?><!DOCTYPE svg  PUBLIC '-//W3C//DTD SVG 1.1//EN'  'http://www.w3.org/Graphics/SVG/1.1/DTD/svg11.dtd'><svg height="512px" style="enable-background:new 0 0 512 512;" version="1.1" viewBox="0 0 512 512" width="512px" xml:space="preserve" xmlns="http://www.w3.org/2000/svg" xmlns:xlink="http://www.w3.org/1999/xlink"><g id="comp_x5F_116-Ethereum"><g><g><g><polygon points="256.16,190.791 256.16,330.614 389.201,251.848     " style="fill:#131313;"/><g><path d="M256.16,340.614c-1.708,0-3.417-0.437-4.953-1.313c-3.121-1.779-5.047-5.096-5.047-8.688V190.791       c0-3.406,1.734-6.579,4.602-8.417c2.867-1.839,6.474-2.092,9.569-0.671l133.041,61.057c3.381,1.552,5.622,4.852,5.815,8.567       c0.194,3.715-1.69,7.231-4.892,9.125l-133.041,78.767C259.685,340.148,257.923,340.614,256.16,340.614z M266.16,206.383       v106.689l101.515-60.101L266.16,206.383z"/></g></g><g><polygon points="256.19,190.791 256.19,330.614 122.788,251.848     " style="fill:#343535;"/><g><path d="M256.19,340.614c-1.759,0-3.517-0.464-5.084-1.389l-133.402-78.767c-3.207-1.894-5.096-5.413-4.902-9.132       s2.438-7.022,5.825-8.572l133.402-61.057c3.094-1.417,6.699-1.162,9.565,0.678c2.864,1.84,4.597,5.01,4.597,8.415v139.823       c0,3.59-1.925,6.904-5.042,8.685C259.611,340.176,257.9,340.614,256.19,340.614z M144.36,252.972l101.83,60.125V206.366       L144.36,252.972z"/></g></g><g><polygon points="256.16,372.409 256.16,485.999 395.646,287.953     " style="fill:#2F3030;"/><g><path d="M256.159,496c-1.006,0-2.023-0.152-3.019-0.468c-4.156-1.316-6.98-5.174-6.98-9.533v-113.59       c0-3.498,1.828-6.742,4.821-8.555l139.486-84.456c4.049-2.449,9.262-1.729,12.491,1.732c3.229,3.461,3.59,8.711,0.864,12.58       L264.336,491.757C262.428,494.467,259.351,496,256.159,496z M266.16,378.045v76.39l93.806-133.188L266.16,378.045z"/></g></g><g><polygon points="390.294,251.334 256.16,26.001 256.16,189.846     " style="fill:#2F3030;"/><g><path d="M390.291,261.334c-1.407,0-2.826-0.296-4.164-0.909l-134.134-61.489c-3.554-1.629-5.833-5.181-5.833-9.09V26.001       c0-4.501,3.007-8.448,7.348-9.642c4.338-1.196,8.942,0.658,11.245,4.526l134.134,225.333c2.239,3.761,1.771,8.542-1.153,11.798       C395.792,260.178,393.067,261.334,390.291,261.334z M266.16,183.429l99.123,45.439L266.16,62.35V183.429z"/></g></g><g><polygon points="122.078,251.334 256.19,26.001 256.19,189.846     " style="fill:#828384;"/><g><path d="M122.082,261.334c-2.776,0-5.501-1.156-7.442-3.317c-2.925-3.256-3.393-8.036-1.154-11.797L247.597,20.887       c2.304-3.869,6.907-5.72,11.246-4.528c4.34,1.194,7.348,5.141,7.348,9.642v163.845c0,3.91-2.278,7.461-5.832,9.09       l-134.113,61.488C124.908,261.037,123.488,261.334,122.082,261.334z M246.19,62.355l-99.104,166.511l99.104-45.437V62.355z"/></g></g><g><polygon points="255.83,372.409 255.83,485.999 116.354,287.953     " style="fill:#828384;"/><g><path d="M255.831,496c-3.192,0-6.268-1.532-8.177-4.243L108.178,293.711c-2.726-3.869-2.365-9.12,0.865-12.58       c3.229-3.461,8.442-4.185,12.491-1.731l139.477,84.456c2.992,1.812,4.82,5.056,4.82,8.554v113.59       c0,4.359-2.824,8.217-6.98,9.533C257.854,495.848,256.837,496,255.831,496z M152.033,321.248l93.797,133.185v-76.389       L152.033,321.248z"/></g></g></g></g></g><g id="Layer_1"/></svg>