<?xml version="1.0" ?><!DOCTYPE svg  PUBLIC '-//W3C//DTD SVG 1.1//EN'  'http://www.w3.org/Graphics/SVG/1.1/DTD/svg11.dtd'><svg height="512px" style="enable-background:new 0 0 512 512;" version="1.1" viewBox="0 0 512 512" width="512px" xml:space="preserve" xmlns="http://www.w3.org/2000/svg" xmlns:xlink="http://www.w3.org/1999/xlink"><g id="comp_x5F_120-expedited_ssl"><g><g><circle cx="256" cy="256" r="229.5"/><g><path d="M173.738,200h16.416c4.637,0,8.253-3.617,8.253-8.254v-9.661c0-76.14,115-76.14,115,0v9.661      c0,4.637,3.617,8.254,8.255,8.254h16.414c4.638,0,8.255-3.617,8.255-8.254v-9.661c0-49.802-40.526-90.33-90.33-90.33      c-49.802,0-90.332,40.528-90.332,90.33h-0.186v9.661C165.483,196.383,169.101,200,173.738,200z" style="fill:#FFFFFF;"/><path d="M371,230H141.001c-8.997,0-16.416,6.937-16.416,15.348v116.719      c0,8.411,7.419,15.347,16.416,15.347H371c8.996,0,16.415-6.936,16.415-15.347V245.348C387.415,236.937,379.996,230,371,230z       M267.409,313.455v20.394c0,3.228-2.518,5.743-5.744,5.743h-11.423c-3.227,0-5.743-2.516-5.743-5.743v-20.394      c-6.777-3.936-11.423-11.229-11.423-19.617c0-12.713,10.197-22.845,22.845-22.845c12.649,0,22.91,10.196,22.91,22.845      C278.831,302.227,274.185,309.584,267.409,313.455z" style="fill:#FFFFFF;"/></g><path d="M152.213,239.584h-8.255c-2.318,0-4.079,1.763-4.079,4.081v123.253c0,2.317,1.761,4.081,4.079,4.081h8.255     c2.318,0,4.081-1.764,4.081-4.081V243.666C156.294,241.347,154.532,239.584,152.213,239.584z"/></g></g></g><g id="Layer_1"/></svg>