<?xml version="1.0" ?><!DOCTYPE svg  PUBLIC '-//W3C//DTD SVG 1.1//EN'  'http://www.w3.org/Graphics/SVG/1.1/DTD/svg11.dtd'><svg height="512px" style="enable-background:new 0 0 512 512;" version="1.1" viewBox="0 0 512 512" width="512px" xml:space="preserve" xmlns="http://www.w3.org/2000/svg" xmlns:xlink="http://www.w3.org/1999/xlink"><g id="comp_x5F_199-like"><g><g><g><path d="M128.528,434.092V242.301c0-2.383,0.601-4.717,1.804-6.794l3.936-6.907h-92.08      c-7.545,0-13.666,6.14-13.666,13.702v191.791c0,7.56,6.121,13.698,13.666,13.698h100      C134.648,447.79,128.528,441.651,128.528,434.092z" style="fill:#1872D9;"/><path d="M142.188,457.79h-100c-13.049,0-23.666-10.631-23.666-23.698V242.301      c0-13.069,10.617-23.702,23.666-23.702h92.08c3.563,0,6.856,1.895,8.646,4.975c1.79,3.081,1.806,6.88,0.042,9.976l-3.936,6.907      c-0.338,0.584-0.492,1.185-0.492,1.844v191.791c0,2.039,1.642,3.698,3.66,3.698c5.523,0,10,4.478,10,10      S147.71,457.79,142.188,457.79z M42.188,238.6c-2.021,0-3.666,1.661-3.666,3.702v191.791c0,2.039,1.645,3.698,3.666,3.698      h76.628c-0.189-1.205-0.288-2.44-0.288-3.698V242.301c0-1.245,0.097-2.483,0.289-3.702H42.188z" style="fill:#1256A3;"/></g><g><path d="M428.825,201.201H332.47v-82.197c0-30.222-24.51-54.794-54.646-54.794H236.83      c-7.537,0-13.656,6.136-13.656,13.694v64.855l-48.913,85.84l-3.936,6.907c-1.202,2.078-1.803,4.412-1.803,6.794v191.791      c0,7.56,6.121,13.698,13.659,13.698h13.667h192.673c21.59,0,41.208-12.793,49.924-32.548l43.828-98.885      c0.795-1.749,1.205-3.644,1.205-5.559V256C483.479,225.774,458.967,201.201,428.825,201.201z" style="fill:#BCDFFD;"/><path d="M388.521,457.79H182.181c-13.046,0-23.659-10.631-23.659-23.698V242.301      c0-4.162,1.088-8.244,3.148-11.803l51.504-90.388V77.904c0-13.065,10.612-23.694,23.656-23.694h40.994      c35.646,0,64.646,29.066,64.646,64.794v72.197h86.355c35.65,0,64.653,29.069,64.653,64.799v54.799      c0,3.366-0.707,6.629-2.102,9.696l-43.789,98.799C437.272,442.674,414.085,457.79,388.521,457.79z M236.83,74.21      c-2.016,0-3.656,1.657-3.656,3.694v64.855c0,1.736-0.452,3.442-1.312,4.951l-52.849,92.748      c-0.337,0.583-0.492,1.184-0.492,1.843v191.791c0,2.039,1.642,3.698,3.659,3.698h206.341c17.645,0,33.649-10.435,40.774-26.584      l43.835-98.9c0.244-0.537,0.348-1.015,0.348-1.507V256c0-24.702-20.031-44.799-44.653-44.799H332.47c-5.522,0-10-4.477-10-10      v-82.197c0-24.7-20.028-44.794-44.646-44.794H236.83z" style="fill:#8DA7BE;"/></g></g></g></g><g id="Layer_1"/></svg>