<?xml version="1.0" ?><!DOCTYPE svg  PUBLIC '-//W3C//DTD SVG 1.1//EN'  'http://www.w3.org/Graphics/SVG/1.1/DTD/svg11.dtd'><svg height="512px" style="enable-background:new 0 0 512 512;" version="1.1" viewBox="0 0 512 512" width="512px" xml:space="preserve" xmlns="http://www.w3.org/2000/svg" xmlns:xlink="http://www.w3.org/1999/xlink"><g id="comp_x5F_122-facebook-f"><g><g><g><path d="M332.289,104.285H371V31.151c-7.458-0.988-28.561-3.234-58.477-3.234      c-62.441,0-105.207,38.094-105.207,108.081v66.327H141v81.758h66.317v200h84.453v-200h68.719L371,202.325h-79.23v-58.242      C291.77,120.456,298.327,104.285,332.289,104.285z" style="fill:#2A5297;"/><path d="M291.77,494.083h-84.453c-5.523,0-10-4.478-10-10v-190H141c-5.523,0-10-4.478-10-10v-81.758      c0-5.523,4.477-10,10-10h56.317v-56.327c0-36.394,11.121-66.616,32.16-87.4c20.318-20.072,49.036-30.681,83.046-30.681      c32.224,0,53.911,2.542,59.79,3.321c4.972,0.659,8.687,4.898,8.687,9.914v73.134c0,5.523-4.478,10-10,10h-38.711      c-26.113,0-30.52,9.192-30.52,29.798v48.242H371c2.874,0,5.61,1.237,7.509,3.395s2.776,5.029,2.409,7.88l-10.512,81.758      c-0.641,4.988-4.888,8.725-9.918,8.725H301.77v190C301.77,489.605,297.292,494.083,291.77,494.083z M217.317,474.083h64.453      v-190c0-5.522,4.478-10,10-10h59.922l7.94-61.758H291.77c-5.522,0-10-4.477-10-10v-58.242c0-10.923,1.122-24.794,9.871-35.196      c8.265-9.826,21.561-14.602,40.648-14.602H361V40.084c-9.887-0.966-26.588-2.167-48.477-2.167      c-59.615,0-95.207,36.666-95.207,98.081v66.327c0,5.523-4.477,10-10,10H151v61.758h56.317c5.523,0,10,4.478,10,10V474.083z" style="fill:#203E71;"/></g></g></g></g><g id="Layer_1"/></svg>