<?xml version="1.0" ?><!DOCTYPE svg  PUBLIC '-//W3C//DTD SVG 1.1//EN'  'http://www.w3.org/Graphics/SVG/1.1/DTD/svg11.dtd'><svg height="512px" style="enable-background:new 0 0 512 512;" version="1.1" viewBox="0 0 512 512" width="512px" xml:space="preserve" xmlns="http://www.w3.org/2000/svg" xmlns:xlink="http://www.w3.org/1999/xlink"><g id="comp_x5F_135-forumbee"><g><g><g><path d="M41.698,305.794c-3.733-16.696-5.696-33.587-5.696-50.481      c0-121.098,98.016-219.312,219.114-219.312c16.304,0,32.707,1.965,48.42,5.402C182.34,87.563,86.974,184.304,41.698,305.794z       M427.58,119.974c-13.455-17.187-29.17-32.115-46.946-44.49C233.705,118.992,119.09,234.688,76.465,381.911      c12.277,17.776,27.5,34.964,44.393,48.124C163.188,281.438,279.178,163.188,427.58,119.974L427.58,119.974z M443.099,368.161      c14.928-24.653,24.945-52.741,28.973-81.321c-77.981,42.132-142.41,108.623-184.249,186.9      c29.464-4.321,57.847-15.026,83.088-30.741c34.376,12.867,69.634,23.867,105.088,33      C466.866,440.15,455.964,402.83,443.099,368.161z M472.268,225.26c-2.554-19.151-7.76-38.009-15.518-55.785      c-135.438,44.981-242,153.803-286.099,289.827c17.778,7.464,36.34,12.279,55.59,14.929      C271.715,362.168,360.598,271.126,472.268,225.26L472.268,225.26z" style="fill:#86AC2F;"/><path d="M475.998,485.999c-0.831,0-1.669-0.104-2.494-0.316c-34.739-8.948-68.873-19.58-101.538-31.624      c-25.593,15.18-54.079,25.379-82.692,29.576c-3.736,0.548-7.46-1.055-9.632-4.144c-2.171-3.088-2.418-7.136-0.639-10.465      c43.249-80.915,110.127-148.741,188.314-190.984c3.322-1.794,7.366-1.566,10.464,0.588s4.719,5.869,4.192,9.605      c-3.983,28.268-13.589,56.143-27.854,80.927c11.022,30.29,21.636,65.374,31.568,104.368c0.872,3.424-0.127,7.055-2.629,9.549      C481.161,484.973,478.612,485.999,475.998,485.999z M370.911,432.999c1.182,0,2.369,0.21,3.505,0.635      c28.22,10.563,57.605,20.054,87.572,28.288c-8.992-33.604-18.479-63.908-28.265-90.281c-1.062-2.86-0.76-6.049,0.821-8.659      c10.557-17.435,18.536-36.68,23.521-56.559c-60.694,37.043-113.222,90.409-150.752,153.171      c20.318-5.272,40.163-13.785,58.312-25.084C367.231,433.51,369.065,432.999,370.911,432.999z M226.247,484.231      c-0.453,0-0.91-0.031-1.369-0.095c-20.636-2.84-40.183-8.094-58.098-15.614c-4.792-2.013-7.245-7.36-5.642-12.305      c45.296-139.715,154.626-250.457,292.459-296.233c4.908-1.629,10.249,0.751,12.317,5.49      c8.092,18.542,13.564,38.212,16.265,58.463c0.601,4.503-1.91,8.846-6.112,10.572c-108.107,44.403-195.788,133.148-240.56,243.48      C233.961,481.801,230.269,484.231,226.247,484.231z M183.162,453.464c11.64,4.238,23.981,7.482,36.856,9.688      c46.597-109.429,133.863-197.742,241.191-244.085c-2.186-12.703-5.58-25.113-10.139-37.062      C326.341,226.476,227.159,326.964,183.162,453.464z M120.859,440.035c-2.198,0-4.366-0.725-6.146-2.111      c-16.592-12.926-32.663-30.329-46.476-50.33c-1.707-2.471-2.212-5.579-1.377-8.464c21.389-73.877,61.32-141.781,115.477-196.369      c54.21-54.642,121.798-95.054,195.458-116.866c2.917-0.863,6.061-0.354,8.553,1.381c18.488,12.87,35.01,28.526,49.107,46.533      c2.046,2.613,2.662,6.071,1.645,9.23s-3.536,5.607-6.723,6.535c-143.624,41.824-258.54,158.003-299.9,303.2      c-0.911,3.198-3.352,5.734-6.513,6.767C122.948,439.873,121.9,440.035,120.859,440.035z M87.426,380.104      c8.751,12.164,18.347,23.143,28.298,32.405c22.183-68.967,60.56-132.331,111.601-184.047      c51.294-51.974,114.275-91.036,182.918-113.584c-9.528-10.569-20.046-20.078-31.42-28.401      C238.321,129.742,129.908,238.984,87.426,380.104z M41.702,315.794c-0.228,0-0.457-0.008-0.687-0.023      c-4.417-0.303-8.11-3.474-9.076-7.795c-3.939-17.619-5.937-35.338-5.937-52.663c0-61.249,23.819-118.83,67.07-162.134      c43.266-43.32,100.814-67.178,162.044-67.178c16.459,0,33.47,1.896,50.557,5.633c4.321,0.945,7.508,4.616,7.836,9.027      s-2.28,8.513-6.413,10.087C188.832,95.792,95.513,190.025,51.068,309.286C49.603,313.219,45.851,315.794,41.702,315.794z       M255.116,46.001c-115.306,0-209.114,93.897-209.114,209.312c0,4.397,0.141,8.826,0.422,13.274      c45.41-97.628,123.314-176.286,220.131-222.256C262.712,46.111,258.896,46.001,255.116,46.001z" style="fill:#658123;"/></g></g></g></g><g id="Layer_1"/></svg>