<?xml version="1.0" ?><!DOCTYPE svg  PUBLIC '-//W3C//DTD SVG 1.1//EN'  'http://www.w3.org/Graphics/SVG/1.1/DTD/svg11.dtd'><svg height="512px" style="enable-background:new 0 0 512 512;" version="1.1" viewBox="0 0 512 512" width="512px" xml:space="preserve" xmlns="http://www.w3.org/2000/svg" xmlns:xlink="http://www.w3.org/1999/xlink"><g id="_x39__x2C__Fireworks_x2C__Adobe"><g><g><rect height="492" style="fill:#D2D529;" width="492" x="10" y="10"/><g><path d="M501.508,512H10.492C4.697,512,0,507.303,0,501.508V10.492C0,4.697,4.697,0,10.492,0h491.016      C507.303,0,512,4.697,512,10.492v491.016C512,507.303,507.303,512,501.508,512z M21,491h470V21H21V491z" style="fill:#9EA01F;"/></g></g><g><rect height="426" style="fill:#373627;" width="426" x="43" y="43"/><g><path d="M480,469.508c0,5.795-4.697,10.492-10.492,10.492H43.492C37.698,480,33,475.303,33,469.508      V43.492C33,37.698,37.698,33,43.492,33h426.016C475.303,33,480,37.698,480,43.492V469.508z M54,458h404V54H54V458z" style="fill:#29291D;"/></g></g><g><g id="XMLID_137_"><path d="M121.895,363.485c0,2.029-0.583,2.701-2.33,2.701H88.461      c-1.16,0-1.742-1.008-1.742-2.701V148.179c0-2.03,0.287-2.366,2.034-2.366h111.923c1.742,0,2.329,0.336,2.616,2.366      l2.616,27.378c0.292,2.027-0.287,3.041-2.034,3.041h-81.979v64.222h73.549c1.747,0,2.329,0.675,2.329,2.365v28.058      c0,1.687-0.878,2.362-2.329,2.362h-73.549V363.485z" id="XMLID_138_" style="fill:#D2D529;"/></g><g id="XMLID_129_"><path d="M351.086,366.187c-1.935,0-2.488-0.672-3.042-2.701      c-15.493-75.375-20.749-103.768-23.518-119.652h-0.274c-2.765,16.9-9.406,46.984-26.834,119.652      c-0.555,2.029-1.386,2.701-3.043,2.701h-30.709c-2.49,0-3.043-1.008-3.597-3.042l-36.242-158.52      c-0.554-1.689,0-2.705,1.661-2.705h29.603c1.656,0,2.209,0.338,2.485,2.028c18.813,87.542,22.684,112.216,24.625,124.382h0.553      c1.106-5.741,8.021-40.896,26.285-123.705c0.274-2.028,0.549-2.705,2.484-2.705h29.603c1.382,0,1.939,0.677,2.214,2.028      c17.981,86.19,22.41,113.228,24.347,125.399h0.554c3.317-19.945,8.573-52.39,25.727-125.06c0.279-1.69,1.107-2.367,2.215-2.367      h27.388c1.106,0,1.936,0.677,1.656,2.367l-40.112,159.198c-0.554,2.029-0.828,2.701-3.043,2.701H351.086z" id="XMLID_130_" style="fill:#D2D529;"/></g></g></g></g><g id="Layer_1"/></svg>