<?xml version="1.0" ?><!DOCTYPE svg  PUBLIC '-//W3C//DTD SVG 1.1//EN'  'http://www.w3.org/Graphics/SVG/1.1/DTD/svg11.dtd'><svg height="512px" style="enable-background:new 0 0 512 512;" version="1.1" viewBox="0 0 512 512" width="512px" xml:space="preserve" xmlns="http://www.w3.org/2000/svg" xmlns:xlink="http://www.w3.org/1999/xlink"><g id="comp_x5F_157-gripfire"><g><g><g><path d="M182.626,298.216c0-68.471,97.51-113.655,97.51-188.343c0-43.699-31.544-81.646-36.275-83.872      c0.369,3.062,0.556,6.217,0.556,9.277c0,85.451-136.479,142.788-136.479,249.205c0,46.204,29.875,73.482,61.699,100.481      c60.399,43.326,72.46,66.244,72.46,80.345c0,9.371-4.454,15.774-4.454,20.689c12.153-15.493,16.145-29.594,16.237-43.048      c0-27.464-20.134-52.236-41.009-80.253C198.028,342.006,182.626,323.171,182.626,298.216L182.626,298.216z" style="fill:#ED2226;"/><path d="M237.642,496c-1.09,0-2.192-0.179-3.263-0.549c-4.031-1.393-6.735-5.188-6.735-9.452      c0-3.707,1.13-7.054,2.223-10.29c1.097-3.248,2.231-6.607,2.231-10.399c0-10.599-11.848-31.731-68.289-72.219      c-0.22-0.158-0.434-0.325-0.641-0.501c-29.062-24.655-65.229-55.34-65.229-108.106c0-59.942,40.582-105.347,76.387-145.406      c30.902-34.575,60.091-67.232,60.091-103.799c0-2.699-0.163-5.417-0.484-8.081c-0.435-3.611,1.125-7.174,4.074-9.304      c2.949-2.13,6.822-2.491,10.113-0.941c6.489,3.054,17.409,18.028,24.39,30.567c8.041,14.443,17.626,36.985,17.626,62.353      c0,41.783-26.775,73.827-52.67,104.816c-23.06,27.597-44.84,53.664-44.84,83.527c0,19.524,11.325,35.136,24.439,53.212      c1.291,1.779,2.587,3.567,3.88,5.369c1.457,1.954,2.91,3.894,4.352,5.818c19.842,26.479,38.583,51.488,38.583,80.336      c-0.12,17.539-6.129,33.616-18.369,49.22C243.58,494.635,240.655,496,237.642,496z M175.799,377.078      c34.922,25.079,57.038,45.48,68.004,63.115c-1.227-21.169-16.704-41.822-34.51-65.585c-1.471-1.964-2.954-3.941-4.439-5.936      c-0.036-0.048-0.071-0.097-0.106-0.146c-1.29-1.798-2.583-3.581-3.871-5.355c-13.889-19.145-28.25-38.94-28.25-64.956      c0-37.12,25.161-67.231,49.493-96.351c24.693-29.552,48.017-57.465,48.017-91.992c0-22.049-8.926-42.668-17.437-56.834      c-7.021,36.222-34.55,67.019-63.462,99.366c-35.053,39.218-71.299,79.771-71.299,132.078      C117.939,324.661,142.992,349.225,175.799,377.078z" style="fill:#B21A1D;"/></g><g><path d="M402.02,261.449C390.793,199.473,329.652,146.031,314.156,140l3.713,6.682      c2.227,4.73,3.154,10.113,3.154,15.865c0,41.472-50.287,103.17-52.512,108.275c-2.043,4.73-2.971,9.741-2.971,14.658      c0,18.648,14.104,39.061,16.607,39.061c2.229,0,52.514-51.4,53.906-81.369c5.936,10.856,8.443,20.969,8.443,30.989      c0,38.225-38.783,89.903-38.783,89.903c0,10.763,29.596,49.359,32.938,49.359c0.928,0,2.041-1.3,2.967-2.229      c35.164-36.462,62.441-78.861,62.441-126.923C404.061,276.852,403.412,269.244,402.02,261.449z" style="fill:#ED2226;"/><path d="M338.652,423.424c-3.846,0-8.205,0-25.872-24.85c-17.065-24.003-17.065-31.911-17.065-34.51      c0-2.165,0.702-4.271,2.002-6.002c0.357-0.478,35.268-47.456,36.733-81.714c-4.456,7.702-10.184,16.02-17.168,24.92      c-7.902,10.068-15.13,17.904-18.734,21.68c-9.694,10.149-12.207,11.593-16.399,11.593c-2.651,0-8.859,0-18.128-17.949      c-3.868-7.49-8.479-18.969-8.479-31.111c0-6.534,1.275-12.8,3.79-18.623c0.792-1.817,2.049-3.616,6.288-9.58      c12.418-17.471,45.404-63.88,45.404-94.73c0-4.463-0.698-8.275-2.077-11.334l-3.531-6.355      c-2.047-3.684-1.564-8.256,1.206-11.432c2.771-3.176,7.235-4.275,11.162-2.745c9.845,3.832,30.015,19.688,49.518,42.579      c16.748,19.658,38.073,50.605,44.559,86.407c1.462,8.183,2.201,16.454,2.201,24.605c0,44.555-21.341,88.342-65.243,133.864      c-0.038,0.04-0.077,0.079-0.116,0.118l-0.302,0.31C346.867,420.142,343.68,423.424,338.652,423.424z M316.469,366.251      c3.161,7.784,14.818,24.563,22.256,33.465c37.222-39.933,55.336-77.746,55.336-115.443c0-6.976-0.634-14.063-1.885-21.064      c-5.688-31.395-24.945-59.192-40.099-76.978c-7.436-8.728-14.7-16.03-21.083-21.789c-1.125,36.965-34.628,84.098-49.073,104.423      c-1.767,2.484-3.752,5.278-4.385,6.291c-1.32,3.185-1.995,6.665-1.995,10.325c0,8.845,4.15,18.411,7.695,24.589      c13.583-14.117,41.933-48.071,42.829-67.362c0.208-4.478,3.371-8.271,7.739-9.279c4.369-1.011,8.873,1.013,11.024,4.946      c6.506,11.901,9.669,23.607,9.669,35.787C354.498,309.413,325.701,353.14,316.469,366.251z" style="fill:#B21A1D;"/></g></g></g></g><g id="Layer_1"/></svg>