<?xml version="1.0" ?><!DOCTYPE svg  PUBLIC '-//W3C//DTD SVG 1.1//EN'  'http://www.w3.org/Graphics/SVG/1.1/DTD/svg11.dtd'><svg height="512px" style="enable-background:new 0 0 512 512;" version="1.1" viewBox="0 0 512 512" width="512px" xml:space="preserve" xmlns="http://www.w3.org/2000/svg" xmlns:xlink="http://www.w3.org/1999/xlink"><g id="comp_x5F_171-imdb"><g><g><g><path d="M433.381,485.5H78.62c-28.785,0-52.12-26.252-52.12-58.634V85.135      C26.5,52.752,49.835,26.5,78.62,26.5h354.761c28.785,0,52.119,26.252,52.119,58.635v341.731      C485.5,459.248,462.166,485.5,433.381,485.5z" style="fill:#FBBF14;"/><g><path d="M433.381,495.5H78.62c-34.253,0-62.12-30.789-62.12-68.634V85.135       C16.5,47.29,44.367,16.5,78.62,16.5h354.761c34.253,0,62.119,30.79,62.119,68.635v341.731       C495.5,464.711,467.634,495.5,433.381,495.5z M78.62,36.5c-23.225,0-42.12,21.817-42.12,48.635v341.731       c0,26.816,18.895,48.634,42.12,48.634h354.761c23.225,0,42.119-21.817,42.119-48.634V85.135       c0-26.817-18.895-48.635-42.119-48.635H78.62z" style="fill:#BC8F0F;"/></g></g><g><rect height="131.222" style="fill:#273238;" width="33.884" x="92.485" y="189.529"/><path d="M190.646,251.032c-2.773-20.536-5.544-41.174-8.933-61.503h-43.947v131.222h29.776v-86.763      l12.528,86.763h21.15l11.912-88.714v88.714h29.469V189.529h-44.152L190.646,251.032z" style="fill:#273238;"/><path d="M329.877,210.987c-4.414-23.102-32.24-21.458-50.311-21.458h-25.261v131.222      c88.407,0.104,77.009,6.16,77.009-84.709C331.314,227.724,331.624,218.792,329.877,210.987z M288.293,297.955v-85.94      c12.219,0,10.576,6.47,10.576,16.428v50.622C298.869,289.023,300.819,298.265,288.293,297.955z" style="fill:#273238;"/><path d="M396.72,222.898c-9.137,0-15.298,2.773-21.457,9.447v-42.816h-32.55v131.222h30.597l1.953-8.317      c5.852,6.982,12.218,10.063,21.457,10.063c20.331,0,22.795-15.607,22.795-31.729v-36.964      C419.515,236.042,418.693,222.898,396.72,222.898z M380.293,303.604c-1.642,0-3.081-0.823-3.902-2.465      c-2.26-5.237-1.128-45.282-1.128-45.897c0-3.902-1.132-13.041,5.03-13.041c7.496,0,6.364,7.497,6.364,13.041v33.574      C386.657,294.362,388.301,303.604,380.293,303.604z" style="fill:#273238;"/></g></g></g></g><g id="Layer_1"/></svg>