<?xml version="1.0" ?><!DOCTYPE svg  PUBLIC '-//W3C//DTD SVG 1.1//EN'  'http://www.w3.org/Graphics/SVG/1.1/DTD/svg11.dtd'><svg height="512px" style="enable-background:new 0 0 512 512;" version="1.1" viewBox="0 0 512 512" width="512px" xml:space="preserve" xmlns="http://www.w3.org/2000/svg" xmlns:xlink="http://www.w3.org/1999/xlink"><g id="comp_x5F_198-less"><g><g><g><g><path d="M440.551,362.353h-14.424c-5.522,0-10-4.478-10-10v-17.729c0-5.522,4.478-10,10-10h1.799       c0.839-0.229,1.722-0.351,2.634-0.351c0.783,0,1.376-0.03,1.814-0.069c0.173-0.977,0.356-2.742,0.356-5.833       c0-5.712-0.259-11.11-0.533-16.826c-0.291-6.082-0.593-12.371-0.593-19.406c0-8.498,1.077-19.078,7.913-26.813       c-6.835-7.737-7.913-18.309-7.913-26.798c0-7.131,0.308-13.641,0.605-19.936c0.268-5.663,0.521-11.012,0.521-16.297       c0-2.813-0.14-4.498-0.281-5.482c-0.467-0.038-1.085-0.067-1.89-0.067h-4.433c-5.522,0-10-4.477-10-10v-17.026       c0-5.523,4.478-10,10-10h14.424c26.262,0,38.493,13.283,38.493,41.802c0,8.354-0.61,14.715-1.2,20.867       c-0.54,5.626-1.05,10.94-1.05,17.547c0,1.817,0,6.073,9.547,6.398c5.387,0.184,9.659,4.604,9.659,9.994v19.207       c0,5.334-4.187,9.729-9.514,9.988c-9.692,0.472-9.692,4.777-9.692,6.616c0,6.511,0.503,11.712,1.035,17.218       c0.598,6.175,1.215,12.561,1.215,21.196C479.044,349.07,466.813,362.353,440.551,362.353z M463.914,264.11       c-1.013,0.703-2.167,1.227-3.425,1.521c-4.768,1.115-8.885,2.079-8.885,16.506c0,6.556,0.29,12.602,0.57,18.448       c0.273,5.699,0.556,11.593,0.556,17.784c0,6.213,0.001,19.106-11.415,23.979c12.316-0.087,17.729-2.456,17.729-21.798       c0-7.671-0.545-13.306-1.122-19.271c-0.555-5.735-1.128-11.667-1.128-19.143C456.794,276.032,458.87,269.287,463.914,264.11z        M467.451,250.944c0.491,1.186,0.76,2.479,0.76,3.825v1.125c0,2.399-0.853,4.635-2.301,6.382c2.676-2.2,6.01-4.007,10.09-5.203       v-2.181C472.67,253.952,469.835,252.595,467.451,250.944z M443.732,169.774c8.999,5.325,8.998,16.378,8.998,22.519       c0,5.758-0.264,11.336-0.543,17.242c-0.287,6.063-0.583,12.333-0.583,18.992c0,14.413,4.124,15.384,8.9,16.51       c0.422,0.1,0.833,0.225,1.23,0.375c-3.471-4.708-4.941-10.309-4.941-15.477c0-7.563,0.58-13.61,1.141-19.457       c0.57-5.945,1.109-11.561,1.109-18.957C459.044,173.491,454.343,170.208,443.732,169.774z"/></g><g><path d="M377.3,331.961c-16.401,0-35.448-7.008-48.525-17.854c-3.984-3.305-4.788-9.104-1.854-13.367l14.772-21.459       c1.56-2.266,3.982-3.788,6.699-4.211c2.72-0.426,5.487,0.291,7.662,1.976c8.143,6.307,15.46,9.373,22.371,9.373       c0.488,0,0.936-0.012,1.345-0.031c-3.165-1.593-7.668-3.317-10.794-4.516l-2.316-0.89       c-23.618-9.122-35.595-23.196-35.595-41.833c0-12.903,5.42-24.513,15.261-32.693c9.494-7.892,22.248-12.063,36.883-12.063       c20.906,0,35.641,9.403,44.905,16.476c4.374,3.339,5.228,9.584,1.911,13.976l-14.773,19.559       c-1.719,2.276-4.227,3.612-6.857,3.91c16.176,8.555,24.354,21.214,24.354,37.765       C432.749,308.916,415.604,331.961,377.3,331.961z M349.062,303.85c8.725,4.952,19.367,8.111,28.238,8.111       c22.197,0,35.449-9.676,35.449-25.883c0-11.479-6.999-18.698-23.402-24.14c-0.188-0.062-0.372-0.13-0.556-0.202       c-1.612-0.644-3.209-1.246-4.757-1.831c-10.245-3.874-22.996-8.693-22.996-21.881c0-9.39,6.986-18.864,22.593-18.864       c7.091,0,13.99,1.873,21.229,5.819l2.863-3.791c-6.505-3.754-14.559-6.795-24.514-6.795c-19.226,0-32.144,9.949-32.144,24.756       c0,3.554,0,14.37,22.802,23.177l2.265,0.87c12.523,4.798,26.717,10.236,26.717,24.007c0,9.289-6.416,19.216-24.423,19.216       c-8.646,0-17.186-2.502-25.893-7.613L349.062,303.85z M395.928,243.05c0.242,0.082,0.483,0.163,0.724,0.246       c-3.76-2.246-7.071-3.51-10.323-3.954c1.636,0.667,3.347,1.313,4.778,1.854C392.677,241.791,394.293,242.402,395.928,243.05z"/></g><g><path d="M85.874,361.438H71.45c-26.263,0-38.495-13.283-38.495-41.802c0-8.744,0.629-15.144,1.238-21.332       c0.521-5.299,1.013-10.304,1.013-16.378c0-1.803,0-6.024-9.451-6.255C20.33,275.54,16,271.103,16,265.675v-19.208       c0-5.333,4.186-9.729,9.513-9.988c9.694-0.473,9.694-4.778,9.694-6.616c0-6.088-0.494-11.26-1.016-16.737       c-0.607-6.365-1.235-12.947-1.235-21.677c0-28.518,12.344-41.801,38.847-41.801h52.486c5.523,0,10,4.477,10,10v124.033       c2.027-0.06,4.045,0.509,5.771,1.644c2.358,1.553,3.951,4.03,4.383,6.821l3.729,24.063c0.729,4.705-1.96,9.272-6.429,10.916       c-5.721,2.105-12.657,3.218-20.057,3.218c-14.105,0-24.773-4.816-31.708-14.314c-5.798-7.941-8.616-18.751-8.616-33.046       v-96.099c-0.755,0.002-1.328,0.033-1.754,0.073c-0.163,0.936-0.338,2.609-0.338,5.476c0,5.713,0.259,11.112,0.533,16.829       c0.292,6.083,0.593,12.372,0.593,19.406c0,8.498-1.078,19.078-7.912,26.813c6.835,7.737,7.912,18.309,7.912,26.798       c0,7.263-0.304,13.563-0.599,19.656c-0.271,5.609-0.527,10.907-0.527,16.576c0,3.202,0.244,4.938,0.442,5.82       c0.396,0.045,0.958,0.082,1.729,0.082h4.433c5.523,0,10,4.478,10,10v17.026C95.874,356.961,91.396,361.438,85.874,361.438z        M48.907,264.763c4.45,4.996,6.3,11.344,6.3,17.164c0,7.056-0.564,12.79-1.109,18.335c-0.562,5.709-1.142,11.612-1.142,19.375       c0,18.354,4.871,21.425,15.892,21.766c-9.579-5.726-9.579-18.05-9.579-22.893c0-6.151,0.28-11.941,0.55-17.541       c0.283-5.856,0.575-11.911,0.575-18.691c0-14.412-4.123-15.384-8.897-16.509C50.573,265.551,49.705,265.209,48.907,264.763z        M98.263,169.647c1.909,1.821,3.098,4.39,3.098,7.236v106.099c0,25.246,10.491,27.36,20.324,27.36       c1.961,0,3.725-0.102,5.296-0.269l-0.999-6.447c-6.192-1.832-11.694-7.819-11.694-18.604V169.647H98.263z M36,257.036       c3.779,1.041,6.917,2.621,9.486,4.569c-1.077-1.604-1.695-3.528-1.695-5.57v-1.127c0-1.45,0.312-2.84,0.878-4.099       c-2.409,1.71-5.282,3.124-8.669,4.117V257.036z M68.809,169.695c-10.99,0.394-15.854,3.587-15.854,21.753       c0,7.778,0.582,13.878,1.145,19.778c0.544,5.701,1.106,11.597,1.106,18.636c0,5.257-1.539,10.987-5.187,15.784       c0.478-0.195,0.977-0.354,1.492-0.475c4.766-1.116,8.882-2.079,8.882-16.504c0-6.555-0.29-12.601-0.57-18.448       c-0.273-5.7-0.556-11.594-0.556-17.786C59.269,186.661,59.27,175.042,68.809,169.695z"/></g><g><path d="M287.807,331.961c-16.4,0-35.449-7.008-48.528-17.853c-3.952-3.277-4.78-9.016-1.916-13.276l14.424-21.459       c1.544-2.299,3.973-3.854,6.707-4.294c2.73-0.442,5.527,0.271,7.717,1.967c8.143,6.307,15.46,9.373,22.37,9.373       c0.487,0,0.936-0.012,1.345-0.031c-3.165-1.593-7.666-3.317-10.792-4.515l-2.317-0.891       c-23.618-9.122-35.595-23.196-35.595-41.833c0-12.903,5.419-24.513,15.26-32.693c9.495-7.892,22.249-12.063,36.883-12.063       c20.909,0,35.643,9.403,44.905,16.476c4.373,3.339,5.227,9.584,1.91,13.975l-14.774,19.559       c-1.655,2.191-4.041,3.511-6.564,3.872c16.274,8.571,24.473,21.255,24.415,37.838       C343.256,308.916,326.11,331.961,287.807,331.961z M259.469,303.795c8.745,4.983,19.435,8.166,28.338,8.166       c22.197,0,35.449-9.676,35.449-25.883c0.04-11.477-6.958-18.686-23.401-24.14c-0.153-0.051-0.306-0.105-0.457-0.164       c-1.569-0.606-3.118-1.178-4.619-1.731c-10.509-3.879-23.586-8.706-23.586-22.019c0-9.39,6.986-18.864,22.594-18.864       c7.09,0,13.988,1.873,21.228,5.819l2.863-3.792c-6.504-3.753-14.557-6.794-24.513-6.794c-19.226,0-32.144,9.949-32.144,24.756       c0,3.554,0,14.37,22.802,23.177l2.267,0.87c12.521,4.798,26.714,10.236,26.714,24.007c0,9.289-6.416,19.216-24.423,19.216       c-8.614,0-17.122-2.483-25.796-7.557L259.469,303.795z M296.662,239.368c1.724,0.688,3.531,1.355,5.041,1.913       c1.5,0.553,3.043,1.123,4.608,1.725C302.822,240.98,299.712,239.812,296.662,239.368z"/></g><g><path d="M197.609,330.131c-18.414,0-35.053-6.469-46.851-18.216c-12.372-12.316-18.92-29.512-18.942-49.729       c-0.359-19.315,6.31-36.956,18.786-49.682c11.502-11.733,27.302-18.462,43.349-18.462c16.024,0,29.826,5.408,39.913,15.638       c11.231,11.391,17.272,28.327,17.014,47.693c-0.006,6.107-0.736,11.428-1.129,14.291l-0.086,0.627       c-0.67,4.961-4.904,8.661-9.91,8.661h-6.604c0.609,0.617,1.141,1.317,1.578,2.085l11.117,19.562       c2.574,4.529,1.239,10.275-3.067,13.207C229.598,324.775,212.713,330.131,197.609,330.131z M193.951,214.042       c-10.708,0-21.302,4.542-29.066,12.463c-8.706,8.879-13.347,21.445-13.07,35.383c0.001,0.065,0.002,0.132,0.002,0.198       c0,29.187,17.975,48.045,45.793,48.045c8.422,0,17.646-2.276,25.944-6.275l-1.57-2.763c-6.591,2.629-13.204,3.919-20.013,3.919       c-21.248,0-35.481-11.791-39.051-32.349c-0.505-2.908,0.3-5.891,2.2-8.148c1.9-2.259,4.701-3.563,7.652-3.563h57.998       c0.067-1.169,0.108-2.393,0.108-3.649c0-0.047,0-0.094,0.001-0.142c0.198-14.001-3.8-25.876-11.256-33.439       C213.289,217.299,204.652,214.042,193.951,214.042z M188.386,280.952c3.188,2.761,7.649,4.06,13.584,4.06       c5.419,0,10.594-1.299,16.07-4.06H188.386z M212.805,260.618h-39.961c-2.915,0-5.685-1.271-7.584-3.483       c-1.9-2.21-2.74-5.14-2.302-8.022c2.804-18.41,15.107-30.305,31.345-30.305c17.581,0,28.502,12.189,28.502,31.811       C222.805,256.141,218.328,260.618,212.805,260.618z M188.383,240.618h11.793c-1.754-1.811-4.062-1.811-5.874-1.811       C191.876,238.808,189.935,239.493,188.383,240.618z"/></g></g><g><path d="M466.794,229.934c0-14.424,2.25-22.937,2.25-38.414c0-24.063-8.864-31.802-28.493-31.802h-14.424      v17.026h4.433c9.991,0,12.171,3.307,12.171,15.549c0,11.468-1.126,22.936-1.126,36.233c0,17.026,5.559,23.64,16.606,26.243      v1.125c-11.117,2.602-16.606,9.217-16.606,26.243c0,13.297,1.126,24.061,1.126,36.232c0,12.596-2.604,15.902-12.171,15.902      v0.351h-4.433v17.729h14.424c19.558,0,28.493-7.739,28.493-31.801c0-15.9-2.25-24.061-2.25-38.414      c0-7.739,4.783-15.902,19.206-16.604v-19.207C471.577,245.834,466.794,237.673,466.794,229.934L466.794,229.934z" style="fill:#214674;"/><path d="M392.495,252.447c-11.115-4.433-21.457-7.036-21.457-14.423c0-5.559,4.432-8.864,12.593-8.864      s15.551,3.306,23.642,9.216l14.773-19.559c-9.218-7.037-21.811-14.424-38.837-14.424c-25.118,0-42.144,14.424-42.144,34.756      c0,18.082,15.901,27.369,29.199,32.505c11.468,4.432,22.584,8.162,22.584,15.549c0,5.559-4.434,9.216-14.423,9.216      c-9.217,0-18.505-3.729-28.495-11.468l-14.772,21.459c11.114,9.218,28.071,15.551,42.142,15.551      c29.549,0,45.449-15.551,45.449-35.883C422.749,265.745,406.919,257.231,392.495,252.447L392.495,252.447z" style="fill:#214674;"/><path d="M130.198,294.239c-2.603,0-5.91-2.251-5.91-9.216V159.647H71.802      c-19.982,0-28.847,7.739-28.847,31.801c0,15.901,2.251,24.766,2.251,38.414c0,7.74-4.784,15.901-19.207,16.604v19.208      c14.423,0.352,19.207,8.513,19.207,16.252c0,13.65-2.251,21.81-2.251,37.71c0,24.063,8.864,31.802,28.495,31.802h14.423v-17.026      h-4.433c-9.216,0-12.172-3.729-12.172-15.902c0-12.17,1.125-22.581,1.125-36.232c0-17.024-5.557-23.639-16.603-26.242v-1.127      c11.115-2.602,16.603-9.215,16.603-26.241c0-13.296-1.125-24.062-1.125-36.234c0-12.171,2.604-15.549,12.172-15.549h9.92      v106.099c0,22.584,7.739,37.36,30.324,37.36c7.035,0,12.593-1.127,16.604-2.603l-3.729-24.063      C132.379,294.239,131.324,294.239,130.198,294.239L130.198,294.239z" style="fill:#214674;"/><path d="M303.003,252.447c-11.469-4.433-21.811-7.036-21.811-14.423c0-5.559,4.433-8.864,12.594-8.864      s15.549,3.306,23.64,9.216l14.774-19.559c-9.216-7.037-21.811-14.424-38.836-14.424c-25.118,0-42.144,14.424-42.144,34.756      c0,18.082,15.901,27.369,29.199,32.505c11.467,4.432,22.583,8.162,22.583,15.549c0,5.559-4.434,9.216-14.423,9.216      c-9.216,0-18.504-3.729-28.494-11.468l-14.424,21.459c11.116,9.218,28.071,15.551,42.145,15.551      c29.55,0,45.449-15.551,45.449-35.883C333.327,265.745,317.426,257.231,303.003,252.447L303.003,252.447z" style="fill:#214674;"/><path d="M240.877,257.303c0.423-29.973-15.899-53.261-46.926-53.261      c-27.018,0-52.839,22.585-52.135,58.044c0,36.587,24.062,58.045,55.793,58.045c13.297,0,28.072-4.786,39.54-12.592      l-11.117-19.562c-8.161,4.784-15.901,7.034-24.062,7.034c-14.775,0-26.242-7.034-29.199-24.06h66.98      C240.104,268.347,240.877,263.213,240.877,257.303z M172.844,250.618c2.25-14.774,11.116-21.811,21.458-21.811      c13.297,0,18.502,9.217,18.502,21.811H172.844z" style="fill:#214674;"/></g></g></g></g><g id="Layer_1"/></svg>