<?xml version="1.0" ?><!DOCTYPE svg  PUBLIC '-//W3C//DTD SVG 1.1//EN'  'http://www.w3.org/Graphics/SVG/1.1/DTD/svg11.dtd'><svg height="512px" style="enable-background:new 0 0 512 512;" version="1.1" viewBox="0 0 512 512" width="512px" xml:space="preserve" xmlns="http://www.w3.org/2000/svg" xmlns:xlink="http://www.w3.org/1999/xlink"><g id="comp_x5F_213-meetup"><g><g><g><path d="M416.245,270.736c22.929,37.576,13.164,87.178-22.928,112.546      c-15.168,10.724-32.343,15.43-49.604,14.909c-10.46,41.059-60.499,56.314-91.622,28.418c-0.959,0.786-2.267,1.482-3.226,2.528      c-34.085,23.624-80.464,15.169-104.089-19.44c-8.456-12.466-12.727-26.675-13.163-40.885      c-57.014-9.501-78.459-81.947-35.83-121.788c-24.672-40.886,0.523-93.627,46.552-100.166      c21.881-57.71,93.802-85.084,142.621-47.25c58.756-19.44,118.821,25.631,114.114,88.136      C434.901,198.73,445.1,246.066,416.245,270.736z" style="fill:#ED1C40;"/><path d="M206.415,452.498c-27.882,0-54.012-13.893-69.897-37.163      c-7.774-11.462-12.65-24.582-14.307-38.351c-26.348-7.138-47.171-27.37-55.314-54.339c-8.287-27.445-1.899-56.4,16.628-77.346      c-9.796-20.717-9.86-44.79,0.125-65.813c10.11-21.288,29.099-36.462,51.513-41.475c17.258-39.029,57.065-65.835,98.739-65.835      c19.156,0,37.347,5.66,52.934,16.42c8.593-2.362,17.368-3.557,26.157-3.557c26.871,0,52.762,11.297,71.031,30.995      c16.487,17.776,25.33,40.601,25.308,64.937c16.64,7.629,28.521,22.563,32.395,41.205c3.837,18.455-1.025,36.733-13.067,50.35      c20.64,41.254,8.473,92.184-29.592,118.938c-14.209,10.046-30.731,15.759-48.029,16.645      c-9.767,25.474-34.295,42.677-62.101,42.679c-13.291,0-26.189-4.086-37.071-11.635      C238.196,447.894,222.551,452.497,206.415,452.498z M233.902,92.176c-35.408,0-69.215,23.944-82.214,58.229      c-1.292,3.408-4.336,5.843-7.944,6.355c-18.237,2.591-33.948,14.294-42.027,31.306c-8.226,17.322-7.243,37.431,2.631,53.793      c2.441,4.045,1.718,9.247-1.734,12.473c-17.054,15.938-23.403,39.899-16.569,62.533c6.812,22.561,24.462,38.293,47.214,42.084      c4.708,0.785,8.206,4.787,8.352,9.558c0.393,12.818,4.35,25.12,11.443,35.578c12.14,17.783,32.094,28.414,53.362,28.414      c12.846-0.001,25.301-3.841,36.076-11.114c1.036-0.956,2.036-1.651,2.756-2.152c0.183-0.127,0.365-0.246,0.528-0.373      c3.815-3.128,9.32-2.988,12.992,0.305c8.484,7.604,18.917,11.624,30.17,11.624c21.287-0.001,39.827-14.42,45.087-35.064      c1.156-4.539,5.286-7.659,9.992-7.526c0.756,0.022,1.511,0.034,2.267,0.034c14.859,0,29.128-4.535,41.263-13.113      c31.67-22.261,40.518-65.815,20.164-99.172c-2.558-4.191-1.694-9.619,2.038-12.81c10.669-9.122,15.304-22.913,12.398-36.89      c-2.915-14.022-12.636-24.841-26.005-28.94c-4.468-1.37-7.391-5.651-7.04-10.312c1.62-21.518-5.39-41.888-19.74-57.359      c-14.497-15.631-35.043-24.596-56.367-24.596c-8.369,0-16.745,1.367-24.894,4.063c-3.163,1.047-6.636,0.45-9.268-1.589      C265.886,97.48,250.349,92.176,233.902,92.176z" style="fill:#B21530;"/></g><g><path d="M99.363,400.298c0.96,4.97-2.004,9.678-6.974,10.724c-4.708,0.958-9.502-2.006-10.46-6.975      c-0.959-4.707,2.005-9.677,6.713-10.724C93.348,392.278,98.316,395.329,99.363,400.298z" style="fill:#ED1C40;"/><path d="M90.613,421.2c-8.999,0-16.769-6.393-18.494-15.209c-2.042-10.159,4.386-20.214,14.352-22.43      c1.326-0.294,2.684-0.443,4.042-0.443c8.954,0,16.791,6.358,18.636,15.119c0.012,0.055,0.023,0.109,0.033,0.164      c2.01,10.402-4.462,20.244-14.733,22.405C93.144,421.073,91.875,421.2,90.613,421.2z M91.67,401.918l-2.093,0.44      c0.037,0.179,0.216,0.76,0.935,0.76c0.098,0,0.198-0.011,0.296-0.032c0.25-0.056,1.03-0.286,0.928-0.983      C91.721,402.043,91.699,401.98,91.67,401.918z M90.613,401.2c-0.074,0-0.147,0.008-0.218,0.022      c-0.504,0.105-0.901,0.655-0.85,0.974l2.063-0.399C91.425,401.488,91.084,401.2,90.613,401.2z" style="fill:#B21530;"/></g><g><path d="M240.113,465.542c-5.493,4.012-6.974,11.682-3.226,17.436c4.01,5.753,11.682,7.235,17.435,3.226      c5.492-4.01,6.975-11.681,2.965-17.436C253.626,463.104,245.866,461.532,240.113,465.542L240.113,465.542z" style="fill:#ED1C40;"/><path d="M247.216,498.462L247.216,498.462c-7.342,0-14.27-3.651-18.533-9.767      c-0.06-0.085-0.118-0.172-0.175-0.26c-6.634-10.184-4.127-23.787,5.707-30.969c0.06-0.044,0.12-0.087,0.18-0.129      c3.784-2.637,8.203-4.031,12.778-4.031c7.473,0,14.343,3.692,18.417,9.886c6.971,10.161,4.63,23.786-5.371,31.087      c-0.059,0.044-0.118,0.086-0.179,0.128C256.234,497.06,251.799,498.462,247.216,498.462z M245.188,477.391      c0.834,1.08,2.198,1.394,3.324,0.671c0.972-0.771,1.493-2.254,0.571-3.577c-0.066-0.095-0.131-0.191-0.194-0.288      c-0.533-0.825-1.448-0.89-1.715-0.89c-0.438,0-0.858,0.127-1.25,0.378C244.808,474.568,244.491,476.18,245.188,477.391z" style="fill:#B21530;"/></g><g><path d="M168.142,48.524c5.492-1.22,8.979-6.712,7.758-12.205c-0.96-5.753-6.451-9.241-11.943-7.934      c-5.492,1.221-8.979,6.712-7.934,12.205C157.244,46.345,162.649,49.831,168.142,48.524L168.142,48.524z" style="fill:#ED1C40;"/><path d="M165.826,58.798C165.825,58.798,165.825,58.798,165.826,58.798      c-9.516,0-17.569-6.634-19.585-16.132c-0.015-0.069-0.028-0.138-0.042-0.207c-2.046-10.751,4.91-21.42,15.515-23.82      c1.499-0.351,3.034-0.528,4.563-0.528c9.602,0,17.735,6.838,19.441,16.299c2.249,10.777-4.578,21.427-15.332,23.859      C168.887,58.621,167.353,58.798,165.826,58.798z M165.839,38.64c0.021,0.063,0.043,0.107,0.063,0.138      c0.025-0.005,0.05-0.011,0.071-0.016c0.09-0.02,0.19-0.162,0.165-0.275c-0.023-0.105-0.045-0.211-0.065-0.317      C165.959,38.241,165.838,38.442,165.839,38.64z" style="fill:#B21530;"/></g><g><path d="M50.047,219.406c-8.719-6.016-20.661-3.749-26.677,5.23c-6.015,8.719-3.748,20.922,4.97,26.939      c8.717,6.189,20.661,4.009,26.675-4.971C61.032,237.539,58.764,225.596,50.047,219.406z" style="fill:#ED1C40;"/><path d="M39.278,265.091c-5.979,0-11.744-1.841-16.673-5.324c-13.27-9.204-16.632-27.457-7.504-40.752      c5.466-8.119,14.513-12.965,24.214-12.965c5.877,0,11.553,1.772,16.413,5.125c0.037,0.025,0.074,0.051,0.111,0.078      c13.203,9.375,16.501,27.333,7.51,40.881C57.904,260.261,48.915,265.091,39.278,265.091z M39.314,226.049      c-3.039,0-5.894,1.553-7.636,4.153c-0.025,0.037-0.051,0.075-0.076,0.112c-2.878,4.172-1.771,10.139,2.419,13.031      c0.036,0.025,0.072,0.05,0.108,0.076c1.539,1.093,3.319,1.67,5.148,1.67c2.997,0,5.705-1.477,7.429-4.052      c2.946-4.44,1.902-10.345-2.394-13.44C42.821,226.585,41.094,226.049,39.314,226.049z" style="fill:#B21530;"/></g><g><path d="M299.167,59.42c9.241-5.492,11.943-17.436,6.711-26.415c-5.491-9.24-17.172-12.205-26.151-6.713      c-8.979,5.493-11.943,17.436-6.448,26.676C278.507,61.949,290.187,64.913,299.167,59.42L299.167,59.42z" style="fill:#ED1C40;"/><path d="M289.385,72.186C289.384,72.186,289.384,72.186,289.385,72.186      c-10.171,0-19.654-5.436-24.748-14.185c-8.202-13.792-3.795-31.878,9.871-40.238c4.52-2.764,9.689-4.225,14.953-4.225      c10.165,0,19.75,5.502,25.014,14.359c8.138,13.964,3.567,31.898-10.143,40.086C299.815,70.733,294.647,72.186,289.385,72.186z       M289.461,33.538c-1.603,0-3.122,0.433-4.517,1.286c-4.375,2.676-5.753,8.523-3.071,13.034c1.573,2.7,4.434,4.328,7.512,4.328      l0,0c1.6,0,3.178-0.448,4.564-1.296c0.036-0.022,0.072-0.044,0.109-0.066c4.353-2.587,5.779-8.321,3.18-12.783      C295.578,35.249,292.655,33.538,289.461,33.538z" style="fill:#B21530;"/></g><g><path d="M118.573,119.983c6.712-4.708,8.195-13.949,3.748-20.661c-4.446-6.713-13.686-8.195-20.138-3.749      c-6.712,4.708-8.194,13.949-3.748,20.661C102.881,123.034,112.034,124.516,118.573,119.983z" style="fill:#ED1C40;"/><path d="M110.267,132.584L110.267,132.584c-8.197,0-15.749-4.067-20.202-10.878      c-7.429-11.213-4.583-26.632,6.375-34.319c4.155-2.863,8.962-4.352,13.972-4.352c8.213,0,15.782,4.025,20.246,10.767      c7.462,11.263,4.617,26.682-6.343,34.369C120.135,131.069,115.292,132.584,110.267,132.584z M110.413,103.035      c-0.654,0-1.627,0.134-2.554,0.773c-2.1,1.474-2.618,4.592-1.086,6.904c1.108,1.694,2.812,1.872,3.495,1.872      c0.651,0,1.632-0.142,2.609-0.819c2.123-1.489,2.64-4.607,1.108-6.919C112.902,103.211,111.126,103.035,110.413,103.035z" style="fill:#B21530;"/></g><g><path d="M457.13,262.979c-6.448,1.482-10.723,7.934-9.239,14.734c1.221,6.45,7.757,10.722,14.209,9.239      c6.452-1.222,10.723-7.758,9.242-14.471C470.033,266.033,463.582,261.759,457.13,262.979z" style="fill:#ED1C40;"/><path d="M459.507,297.247C459.506,297.247,459.506,297.247,459.507,297.247      c-10.44-0.001-19.423-7.367-21.415-17.537c-2.521-11.904,4.989-23.763,16.798-26.477c0.127-0.029,0.255-0.056,0.383-0.081      c1.341-0.253,2.712-0.382,4.075-0.382c10.516,0,19.66,7.413,21.777,17.639c1.265,5.841,0.115,12.03-3.16,16.993      c-3.233,4.9-8.135,8.211-13.815,9.339C462.625,297.076,461.064,297.247,459.507,297.247z M459.179,272.778      c-1.007,0.333-1.819,1.421-1.518,2.804c0.02,0.09,0.038,0.181,0.055,0.271c0.158,0.833,1.054,1.394,1.791,1.394      c0.119,0,0.234-0.014,0.354-0.041c0.126-0.029,0.252-0.056,0.379-0.079c0.514-0.098,0.845-0.456,1.032-0.74      c0.193-0.293,0.49-0.91,0.305-1.752c-0.012-0.055-0.023-0.109-0.034-0.164C461.322,273.389,460.115,272.697,459.179,272.778z" style="fill:#B21530;"/></g><g><path d="M491.739,213.462c-0.958-4.968-5.752-7.933-10.461-6.973c-4.97,0.959-7.933,6.014-6.974,10.984      c0.96,4.708,5.755,7.933,10.723,6.975C489.736,223.139,492.961,218.432,491.739,213.462z" style="fill:#ED1C40;"/><path d="M483.267,234.617C483.266,234.617,483.266,234.617,483.267,234.617      c-9.082-0.001-16.971-6.371-18.761-15.146c-0.007-0.035-0.014-0.069-0.021-0.104c-0.947-4.912-0.03-9.94,2.582-14.157      c2.787-4.499,7.141-7.527,12.264-8.53c1.225-0.246,2.479-0.371,3.726-0.371c8.931,0,16.65,6.297,18.452,15.01      c2.32,9.991-3.702,19.957-13.804,22.764c-0.259,0.072-0.521,0.133-0.784,0.184C485.718,234.499,484.488,234.617,483.267,234.617      z M482.233,215.943c0.135,0.144,0.31,0.264,0.521,0.324l-0.112-0.403L482.233,215.943z M483.346,215.728l0.097,0.5      c0.266-0.107,0.505-0.288,0.627-0.484c0.03-0.048,0.063-0.117,0.055-0.165L483.346,215.728z M481.999,215.594      c0.042,0.093,0.1,0.187,0.171,0.275l0.448-0.092l-0.269-0.964C482.147,214.869,481.997,215.236,481.999,215.594z       M483.267,214.617c-0.058,0-0.104,0.006-0.133,0.012l0.193,1.004l0.776-0.158C484.074,215.332,483.896,214.617,483.267,214.617z      " style="fill:#B21530;"/></g><g><path d="M433.737,143.212c-7.496,5.23-9.24,15.431-4.272,22.929c4.97,7.496,15.169,9.241,22.665,4.272      c7.237-5.231,8.981-15.431,4.013-22.928C451.174,139.9,440.972,137.981,433.737,143.212z" style="fill:#ED1C40;"/><path d="M442.838,183.222c-8.796,0-16.911-4.32-21.708-11.555c-8.078-12.192-5.08-28.254,6.817-36.608      c4.368-3.136,9.517-4.793,14.895-4.793c8.75,0,16.85,4.389,21.666,11.741c7.978,12.037,5.126,28.094-6.521,36.512      c-0.109,0.079-0.22,0.156-0.332,0.23C453.239,181.675,448.115,183.222,442.838,183.222z M442.842,150.265      c-0.817,0-2.044,0.182-3.245,1.051c-0.046,0.033-0.092,0.065-0.138,0.098c-2.975,2.075-3.702,6.118-1.658,9.204      c1.559,2.351,4.042,2.604,5.037,2.604c1.268,0,2.506-0.356,3.594-1.033c2.735-2.111,3.36-6.184,1.375-9.179      C446.67,151.274,444.825,150.265,442.842,150.265z" style="fill:#B21530;"/></g><g><path d="M355.222,335.509c-2.702-17.957-35.657-4.01-37.573-23.623      c-2.704-27.897,38.096-88.137,34.871-111.587c-2.965-20.923-16.913-25.37-29.117-25.63c-11.683-0.262-14.734,1.745-18.656,4.011      c-2.527,1.482-5.754,4.272-10.2-0.262c-5.491-5.23-9.675-10.199-16.911-11.245c-10.724-1.744-15.43,1.744-23.189,8.456      c-2.964,2.528-10.461,11.246-17.435,7.933c-2.964-1.483-13.425-6.713-20.922-9.938c-14.21-6.19-34.871,4.01-42.368,17.434      c-11.246,19.964-33.127,98.599-36.353,109.059c-7.498,23.189,9.502,42.368,32.168,41.061      c9.677-0.522,15.954-4.011,22.143-15.169c3.487-6.451,36.353-93.889,38.882-98.161c1.743-2.964,7.757-6.975,12.727-4.446      c4.969,2.702,6.015,8.195,5.23,13.164c-0.959,8.456-24.409,61.81-25.194,67.736c-2.964,19.965,23.451,23.188,33.651,3.486      c3.225-6.188,39.838-80.725,43.063-85.694c3.748-5.492,6.452-7.236,10.2-6.974c2.702,0,7.236,0.784,6.19,9.502      c-1.221,8.195-30.6,63.03-33.912,76.453c-4.01,17.959,5.754,36.092,21.706,44.113      C314.162,350.157,358.708,358.875,355.222,335.509L355.222,335.509z" style="fill:#FFFFFF;"/><path d="M334.144,360.978c-0.001,0-0.001,0-0.003,0c-12.786-0.001-27.807-3.554-34.39-6.846      c-20.496-10.307-31.84-33.532-26.994-55.236c0.017-0.073,0.033-0.146,0.051-0.217c0.036-0.146,0.074-0.294,0.114-0.445      c-3.698,7.453-6.276,12.634-7.079,14.175c-5.94,11.475-16.944,18.617-28.706,18.617c-7.33,0-14.07-2.94-18.491-8.066      c-4.503-5.221-6.356-12.35-5.221-20.078c0.487-3.438,2.877-9.695,11.236-30.466c4.947-12.293,13.22-32.849,13.929-37.05      c0.015-0.121,0.031-0.241,0.05-0.36c0.062-0.395,0.095-0.749,0.107-1.061c-2.524,5.889-10.545,26.639-17.109,43.621      c-12.958,33.522-19.271,49.698-21.163,53.198c-0.017,0.032-0.035,0.063-0.052,0.096c-7.481,13.487-16.557,19.56-30.349,20.304      c-0.88,0.051-1.808,0.078-2.719,0.078c-14.02,0-26.517-6.124-34.287-16.803c-7.603-10.447-9.51-24.05-5.238-37.329      c0.482-1.569,1.448-4.888,2.666-9.075c12.085-41.54,25.636-86.129,34.511-101.884c7.882-14.113,25.408-24.38,41.656-24.38      c4.813,0,9.327,0.904,13.418,2.686c4.97,2.138,11.864,5.403,20.465,9.694c1.645-0.742,4.405-3.349,5.512-4.394      c0.732-0.692,1.374-1.289,1.897-1.735c6.091-5.27,13.055-11.293,24.623-11.293c2.077,0,4.23,0.184,6.58,0.563      c9.477,1.401,15.235,7.021,20.316,11.982c0.193,0.188,0.387,0.377,0.582,0.567l0.054-0.032      c5.044-2.924,9.815-5.162,21.303-5.162c0.705,0,1.442,0.008,2.212,0.025c21.952,0.469,35.733,12.624,38.795,34.225      c1.963,14.274-6.952,34.508-17.275,57.937c-8.755,19.87-18.678,42.391-17.544,54.088c0.109,1.117,0.175,1.149,0.973,1.538      c2.09,1.019,5.883,1.537,9.551,2.038c9.183,1.254,24.552,3.354,26.985,19.523c1.301,8.716-1.803,14.46-4.636,17.746      C355.207,357.878,346.348,360.978,334.144,360.978z M292.251,303.369c-2.811,12.853,4.099,26.667,16.464,32.885      c3.284,1.642,14.935,4.723,25.427,4.724c0.001,0,0.002,0,0.002,0c8.013,0,10.87-1.804,11.197-2.287      c0.044-0.099,0.148-0.644-0.01-1.706c-0.032-0.216-0.07-0.348-0.093-0.415c-1.255-1.087-6.813-1.846-9.819-2.257      c-9.077-1.239-25.974-3.548-27.724-21.454c-1.639-16.912,8.458-39.828,19.148-64.089c7.947-18.038,16.955-38.482,15.769-47.108      c-1.672-11.8-7.301-16.736-19.424-16.995c-0.624-0.014-1.212-0.021-1.774-0.021c-7.021,0-8.53,0.875-11.27,2.463l-0.396,0.229      c-0.123,0.072-0.306,0.187-0.493,0.303c-1.834,1.137-5.248,3.254-9.848,3.254c-2.994,0-7.472-0.931-11.868-5.342      c-0.695-0.664-1.371-1.323-2.035-1.971c-4.084-3.987-6.353-6.087-9.301-6.514c-0.059-0.008-0.116-0.017-0.175-0.027      c-1.29-0.209-2.45-0.316-3.45-0.316c-3.464,0-5.306,1.027-11.591,6.464c-0.37,0.316-0.753,0.686-1.197,1.105      c-3.703,3.497-10.595,10.005-19.493,10.006c-2.641,0-5.191-0.575-7.578-1.708c-0.062-0.029-0.123-0.059-0.184-0.09      c-10.833-5.419-17.072-8.264-20.399-9.695c-1.599-0.696-3.426-1.04-5.473-1.04c-8.836,0-19.924,6.486-24.212,14.164      c-8.957,15.9-26.244,75.319-32.751,97.688c-1.308,4.498-2.253,7.747-2.776,9.443c-0.014,0.043-0.027,0.086-0.041,0.129      c-2.344,7.25-1.506,14.167,2.358,19.479c4.241,5.828,11.502,9.001,19.719,8.522c5.392-0.291,9.003-1.106,13.932-9.959      c1.741-3.407,12.345-30.841,20.092-50.882c14.409-37.277,17.601-45.285,18.972-47.601c2.959-5.032,10.077-10.151,17.927-10.151      c2.807,0,5.478,0.635,7.94,1.888c0.081,0.041,0.161,0.083,0.241,0.127c8.053,4.378,11.917,13.094,10.358,23.337      c-0.733,5.553-5.468,17.731-15.207,41.929c-4.142,10.292-9.284,23.068-10.018,26.016c-0.154,1.124-0.254,3.015,0.594,3.999      c0.61,0.707,1.86,1.129,3.346,1.129c3.336,0,7.966-2.059,10.957-7.836c0.971-1.863,5.454-10.904,10.644-21.373      c20.147-40.632,30.77-61.867,32.912-65.168c0.042-0.064,0.084-0.128,0.128-0.192c3.61-5.29,8.891-11.363,17.758-11.363      c0.346,0,0.694,0.009,1.048,0.028c6.159,0.099,9.864,2.823,11.897,5.115c3.358,3.785,4.662,9.025,3.876,15.575      c-0.011,0.094-0.023,0.188-0.038,0.282c-0.741,4.98-5.029,14.197-16.191,37.345C302.847,278.54,293.795,297.313,292.251,303.369      z" style="fill:#B21530;"/></g><g><path d="M364.19,429.975c-8.979,6.451-11.246,19.18-4.969,28.42c6.188,9.24,18.656,11.419,27.897,5.23      c9.24-6.451,11.419-19.18,5.229-28.42C385.897,425.964,373.431,423.438,364.19,429.975z" style="fill:#ED1C40;"/><path d="M375.674,477.127c-0.001,0-0.001,0-0.002,0c-9.981,0-19.237-4.923-24.759-13.168      c-9.236-13.596-5.914-32.509,7.442-42.105c5.138-3.635,11.077-5.534,17.236-5.534c9.874,0,19.203,4.921,24.956,13.162      c0.037,0.052,0.073,0.105,0.109,0.158c9.243,13.8,5.738,32.724-7.813,42.185c-0.053,0.037-0.106,0.074-0.16,0.109      C387.61,475.331,381.729,477.127,375.674,477.127z M375.592,436.319c-1.999,0-3.944,0.629-5.626,1.819      c-4.573,3.286-5.71,9.871-2.473,14.637c1.866,2.785,4.834,4.352,8.18,4.352c2.047,0,4.051-0.607,5.8-1.757      c4.592-3.269,5.76-9.742,2.621-14.52C382.076,438.012,378.904,436.319,375.592,436.319z" style="fill:#B21530;"/></g></g></g></g><g id="Layer_1"/></svg>