<?xml version="1.0" ?><!DOCTYPE svg  PUBLIC '-//W3C//DTD SVG 1.1//EN'  'http://www.w3.org/Graphics/SVG/1.1/DTD/svg11.dtd'><svg height="512px" style="enable-background:new 0 0 512 512;" version="1.1" viewBox="0 0 512 512" width="512px" xml:space="preserve" xmlns="http://www.w3.org/2000/svg" xmlns:xlink="http://www.w3.org/1999/xlink"><g id="comp_x5F_228-Netko"><g><g><g><path d="M229.645,305.323c-0.306,23.114-18.275,41.543-41.43,42.424      c-22.027,0.868-43.485-18.155-45.793-40.67c-0.297-3.8,0-7.927,0-11.984c0-32.19-10.131-42.44-41.998-42.726      c-27.246-0.292-41.414-9.061-49.243-29.571c-6.963-18.134-2.329-33.919,10.139-46.802c12.145-12.299,28.094-15.816,44.883-9.972      c17.7,6.151,26.655,19.61,28.981,37.745c0.569,3.232,0,6.764,0.284,10.244c0.287,33.061,11.618,44.782,44.347,45.081      C211.692,259.665,229.645,276.356,229.645,305.323L229.645,305.323z" style="fill:#EC008C;"/><g><path d="M186.76,357.775c-26.666,0-51.526-22.75-54.287-49.678c-0.008-0.081-0.016-0.161-0.022-0.241       c-0.237-3.037-0.165-6.028-0.094-8.92c0.031-1.279,0.063-2.565,0.063-3.844c0-13.67-1.962-22.031-6.177-26.313       c-4.186-4.254-12.419-6.292-25.911-6.412c-31.083-0.334-49.118-11.438-58.496-36.004c-8.022-20.892-3.773-40.72,12.295-57.323       c0.023-0.024,0.047-0.048,0.07-0.072c10.142-10.271,22.751-15.7,36.464-15.7c6.179,0,12.512,1.114,18.822,3.31       c20.29,7.052,32.593,22.854,35.585,45.709c0.45,2.723,0.391,5.242,0.338,7.473c-0.03,1.268-0.058,2.466,0.021,3.437       c0.02,0.242,0.031,0.484,0.033,0.727c0.241,27.689,7.321,34.92,34.438,35.168c37.44,0.673,59.74,21.693,59.74,56.231       c0,0.044,0,0.088-0.001,0.133c-0.182,13.758-5.506,26.686-14.99,36.401c-9.486,9.719-22.292,15.358-36.059,15.883       C187.993,357.764,187.374,357.775,186.76,357.775z M152.381,306.178c1.834,17.205,18.5,32.236,35.439,31.577       c17.89-0.681,31.554-14.646,31.824-32.498c-0.025-23.522-13.486-35.689-40.011-36.167c-14.392-0.131-25.589-2.483-33.972-7.447       c4.656,8.159,6.759,19.156,6.759,33.45c0,1.44-0.034,2.89-0.069,4.331C152.292,301.873,152.235,304.188,152.381,306.178z        M68.47,182.984c-10.528,10.898-13.13,22.75-7.955,36.228c5.381,14.095,13.948,22.876,40.015,23.156       c13.872,0.124,24.598,2.243,32.602,6.785c-5.076-8.503-7.498-19.942-7.661-34.718c-0.13-1.869-0.089-3.603-0.053-5.145       c0.035-1.503,0.068-2.922-0.084-3.789c-0.027-0.153-0.05-0.307-0.07-0.461c-1.997-15.571-9.098-24.968-22.345-29.572       c-4.196-1.46-8.316-2.2-12.251-2.2C82.319,173.268,74.852,176.537,68.47,182.984z" style="fill:#B10069;"/></g></g><g><path d="M285.031,211.931c0.895-28.338,17.656-45.545,40.456-46.734      c21.979-1.133,41.016,15.52,43.932,38.255c6.361,50.798,6.361,50.798,56.336,57.515c24.247,3.181,40.165,22.734,38.137,47.264      c-1.736,22.165-21.1,39.679-43.322,38.83c-23.13-0.906-40.177-18.984-41.024-43.21c-0.322-4.699,0-9.076,0-13.727      c-0.883-24.801-14.453-38.212-39.322-38.534c-19.64-0.283-38.726-2.046-49.126-22.178      C287.34,222.713,285.926,214.816,285.031,211.931L285.031,211.931z" style="fill:#D5E14D;"/><g><path d="M422.118,357.09c-0.642,0-1.285-0.012-1.931-0.036c-28.259-1.107-49.523-23.255-50.631-52.687       c-0.231-3.52-0.155-6.749-0.081-9.874c0.033-1.383,0.066-2.773,0.069-4.189c-0.743-19.337-10.106-28.464-29.452-28.714       c-16.419-0.237-43.854-0.63-57.803-27.438c-3.52-6.335-5.237-13.127-6.267-17.199c-0.209-0.825-0.425-1.679-0.544-2.062       c-0.328-1.06-0.479-2.167-0.443-3.276c0.506-16.027,5.54-29.824,14.557-39.901c9.002-10.06,21.234-15.767,35.374-16.504       c27.134-1.415,50.816,19.257,54.371,46.97c2.718,21.701,4.355,34.782,9.038,39.563c4.637,4.734,16.739,6.361,38.711,9.313       c29.546,3.876,49.229,28.27,46.771,57.999C471.749,335.972,449.021,357.09,422.118,357.09z M381.427,261.291       c4.922,7.543,7.707,17.114,8.112,28.478c0.004,0.118,0.006,0.237,0.006,0.355c0,1.639-0.037,3.245-0.075,4.843       c-0.067,2.847-0.131,5.535,0.052,8.199c0.008,0.111,0.014,0.224,0.018,0.335c0.667,19.065,13.588,32.868,31.422,33.567       c0.381,0.015,0.77,0.021,1.157,0.021c16.257,0,30.523-13.297,31.804-29.641c1.577-19.065-10.542-34.085-29.468-36.567       C403.496,268.065,390.574,266.328,381.427,261.291z M295.09,210.784c0.104,0.4,0.21,0.822,0.322,1.267       c0.847,3.346,2.126,8.403,4.406,12.47c0.057,0.1,0.11,0.2,0.163,0.302c7.122,13.786,19.188,16.463,40.386,16.769       c11.46,0.148,21.153,2.774,28.828,7.631c-5.292-9.334-6.951-22.586-9.699-44.528c-2.23-17.391-16.751-30.378-33.494-29.511       C308.003,176.122,296.254,189.716,295.09,210.784z" style="fill:#A0A93A;"/></g></g><g><path d="M346.047,327.941c0,19.496-14.127,37.518-33.41,41.033c-8.628,1.748-17.843,1.145-26.482,1.748      c-20.188,1.428-32.829,14.231-33.988,34.616c-0.552,8.427-0.273,16.857-1.729,25.273c-3.47,21.831-23.043,36.961-44.075,35.225      c-22.142-2.051-39.426-20.972-39.15-43.065c0.301-21.81,16.726-39.859,38.323-41.893c2.282-0.295,4.294,0,6.607,0      c39.138-0.866,49.519-11.621,49.519-50.883c0-31.702,25.898-51.766,55.291-42.751      C334.821,292.177,346.329,308.757,346.047,327.941L346.047,327.941z" style="fill:#D5E14D;"/><g><path d="M209.648,475.973c-1.365,0-2.747-0.058-4.108-0.17c-27.483-2.545-48.667-25.89-48.327-53.156       c0.372-26.933,20.662-49.129,47.227-51.708c1.828-0.223,3.844-0.208,5.884-0.116c0.559,0.025,1.126,0.054,1.718,0.057       c17.381-0.396,27.366-2.868,32.366-8.013c5.017-5.162,7.254-15.3,7.254-32.87c0-31.308,22.053-54.917,51.296-54.917       c5.551,0,11.199,0.862,16.792,2.564c22.046,6.151,36.619,26.37,36.297,50.37c-0.035,24.613-17.866,46.419-41.521,50.781       c-6.533,1.313-12.961,1.453-19.179,1.588c-2.98,0.065-5.795,0.127-8.495,0.315c-15.281,1.081-23.825,9.798-24.702,25.208       c-0.173,2.655-0.26,5.229-0.351,7.954c-0.199,5.921-0.404,12.042-1.496,18.389C256.306,457.18,234.541,475.973,209.648,475.973       z M207.749,390.748c-0.379,0-0.675,0.016-0.932,0.049c-0.115,0.015-0.229,0.027-0.344,0.038       c-16.451,1.549-29.03,15.338-29.262,32.074c-0.21,16.9,12.999,31.389,30.074,32.971c0.717,0.059,1.545,0.093,2.363,0.093       c15.183,0,28.473-11.578,30.913-26.931c0.007-0.044,0.015-0.089,0.022-0.134c0.867-5.012,1.041-10.213,1.226-15.719       c0.092-2.762,0.188-5.616,0.377-8.504c0.421-7.41,2.144-14.1,5.003-19.896c-10.45,4.77-23.117,5.828-34.827,6.087       c-1.014,0.028-1.99-0.031-2.943-0.074C208.86,390.776,208.308,390.748,207.749,390.748z M302.958,295.079       c-18.134,0-31.296,14.685-31.296,34.917c0,15.877-1.663,27.197-5.49,35.776c5.626-2.792,12.102-4.518,19.277-5.025       c3.188-0.223,6.377-0.292,9.461-0.359c5.617-0.122,10.924-0.238,15.741-1.214c0.063-0.013,0.128-0.025,0.191-0.037       c14.133-2.576,25.204-16.279,25.204-31.195c0-0.049,0-0.098,0.001-0.147c0.219-14.836-8.524-27.258-21.755-30.909       c-0.091-0.025-0.182-0.052-0.272-0.079C310.286,295.66,306.563,295.079,302.958,295.079z" style="fill:#A0A93A;"/></g></g><g><path d="M209.547,226.725c-22.775-0.284-40.617-16.881-42.363-39.54      c-1.735-22.719,14.978-42.482,38.592-45.373c6.639-0.902,13.249-0.336,20.188-0.603c20.142-0.864,33.1-13.098,35.401-33.446      c0.884-7.872,0.285-15.734,1.167-23.556c2.305-23.864,21.025-39.268,44.934-38.121c20.697,1.183,38.292,19.766,38.583,41.582      c0.564,23.563-16.428,42.199-39.763,43.667c-3.743,0.262-7.758,0-11.785,0c-29.664,0.553-42.352,13.652-42.047,43.906      C252.452,206.958,235.442,227.306,209.547,226.725L209.547,226.725z" style="fill:#D5E14D;"/><g><path d="M210.623,236.737c-0.431,0-0.864-0.005-1.3-0.015c-28.001-0.348-49.958-20.859-52.109-48.769       c-2.132-27.912,18.633-52.521,47.283-56.059c4.057-0.546,7.956-0.622,11.567-0.622c0.837,0,1.677,0.004,2.521,0.008       c0.814,0.004,1.632,0.009,2.453,0.009c1.835,0,3.236-0.022,4.542-0.073c15.149-0.65,24.104-9.149,25.849-24.578       c0.389-3.463,0.454-7.055,0.522-10.857c0.074-4.064,0.149-8.266,0.635-12.616c2.719-27.758,24.251-47.139,52.391-47.139       c0.98,0,1.979,0.024,2.968,0.072c26.188,1.496,47.713,24.538,48.102,51.38c0.669,28.893-20.446,52.033-49.133,53.838       c-1.283,0.09-2.763,0.136-4.452,0.136c-1.359,0-2.741-0.03-4.134-0.06c-1.237-0.027-2.485-0.055-3.735-0.057       c-24.277,0.474-32.389,9.015-32.14,33.805c0.001,0.034,0.001,0.067,0.001,0.101       C262.451,212.024,241.623,236.737,210.623,236.737z M216.063,151.273c-2.929,0-6.039,0.054-8.942,0.449       c-0.044,0.006-0.087,0.011-0.131,0.017c-18.348,2.246-31.174,17.157-29.836,34.686c1.336,17.337,15.012,30.084,32.517,30.302       c0.385,0.008,0.668,0.011,0.951,0.011c19.621,0,31.814-15.879,31.831-41.447c-0.113-11.774,1.663-21.585,5.361-29.469       c-6.16,3.184-13.36,5.033-21.422,5.379c-1.616,0.063-3.253,0.089-5.354,0.089c-0.855,0-1.708-0.004-2.556-0.009       C217.672,151.277,216.867,151.273,216.063,151.273z M304.977,56.027c-18.028,0-30.782,11.439-32.491,29.142       c-0.006,0.053-0.011,0.106-0.017,0.159c-0.389,3.441-0.453,7.023-0.521,10.816c-0.074,4.096-0.151,8.332-0.646,12.735       c-0.774,6.845-2.558,12.994-5.243,18.347c7.566-3.725,16.975-5.677,28.255-5.887c1.488-0.036,2.977,0.027,4.452,0.06       c1.245,0.027,2.479,0.055,3.695,0.055c1.219,0,2.241-0.03,3.125-0.092c18.119-1.14,30.902-15.207,30.465-33.452       c-0.001-0.036-0.002-0.071-0.002-0.106c-0.218-16.31-13.569-30.841-29.154-31.731       C306.311,56.043,305.641,56.027,304.977,56.027z" style="fill:#A0A93A;"/></g></g></g></g></g><g id="Layer_1"/></svg>