<?xml version="1.0" ?><!DOCTYPE svg  PUBLIC '-//W3C//DTD SVG 1.1//EN'  'http://www.w3.org/Graphics/SVG/1.1/DTD/svg11.dtd'><svg height="512px" style="enable-background:new 0 0 512 512;" version="1.1" viewBox="0 0 512 512" width="512px" xml:space="preserve" xmlns="http://www.w3.org/2000/svg" xmlns:xlink="http://www.w3.org/1999/xlink"><g id="comp_x5F_231-nimblr"><g><g><g><path d="M256.001,161.808c-31.23,0-91.921,17.807-119.053,61.138L96.294,33v287.408      c0,87.73,71.525,158.592,159.707,158.592c88.26,0,159.705-70.932,159.705-158.592      C415.706,232.846,344.379,161.808,256.001,161.808L256.001,161.808z" style="fill:#F77C38;"/><path d="M256.001,489c-45.324,0-87.928-17.508-119.965-49.299      c-32.077-31.829-49.742-74.195-49.742-119.293V33c0-5.116,3.86-9.406,8.948-9.944c5.088-0.535,9.761,2.85,10.831,7.852      l36.201,169.136c31.787-33.125,82.901-48.236,113.728-48.236c45.38,0,88.013,17.534,120.044,49.372      c32.024,31.832,49.661,74.174,49.661,119.229c0,45.079-17.653,87.435-49.709,119.265C343.962,471.481,301.347,489,256.001,489z       M106.294,127.502v192.906c0,81.934,67.158,148.592,149.707,148.592c82.548,0,149.705-66.658,149.705-148.592      c0-81.938-67.157-148.601-149.705-148.601c-30.341,0-86.467,17.939-110.577,56.445c-2.161,3.451-6.199,5.248-10.209,4.542      s-7.192-3.774-8.044-7.756L106.294,127.502z" style="fill:#B95D2A;"/></g><g><path d="M256.001,438.633c-65.83,0-119.053-52.918-119.053-118.225      c0-65.297,53.223-118.226,119.053-118.226c65.827,0,119.051,52.928,119.051,118.226      C375.052,385.705,321.819,438.633,256.001,438.633z" style="fill:#FFFFFF;"/><path d="M256.001,448.633c-71.16,0-129.053-57.521-129.053-128.225      c0-70.704,57.893-128.226,129.053-128.226c71.159,0,129.051,57.522,129.051,128.226      C385.052,391.111,327.16,448.633,256.001,448.633z M256.001,212.183c-60.132,0-109.053,48.55-109.053,108.226      c0,59.675,48.921,108.225,109.053,108.225c60.131,0,109.051-48.55,109.051-108.225      C365.052,260.732,316.132,212.183,256.001,212.183z" style="fill:#B95D2A;"/></g><path d="M305.27,287.893c13.989,0,24.393,10.297,24.393,24.223c0,13.971-10.439,24.223-24.393,24.223     c-14.104,0-24.393-10.396-24.393-24.223C280.877,298.182,291.281,287.893,305.27,287.893z" style="fill:#F77C38;"/><path d="M185.249,312.115c0-14.025,10.492-24.223,24.391-24.223c13.988,0,24.394,10.297,24.394,24.223     c0,13.846-10.305,24.223-24.394,24.223C195.77,336.338,185.249,326.178,185.249,312.115" style="fill:#F77C38;"/></g></g></g><g id="Layer_1"/></svg>