<?xml version="1.0" ?><!DOCTYPE svg  PUBLIC '-//W3C//DTD SVG 1.1//EN'  'http://www.w3.org/Graphics/SVG/1.1/DTD/svg11.dtd'><svg height="512px" style="enable-background:new 0 0 512 512;" version="1.1" viewBox="0 0 512 512" width="512px" xml:space="preserve" xmlns="http://www.w3.org/2000/svg" xmlns:xlink="http://www.w3.org/1999/xlink"><g id="comp_x5F_243-outlook"><g><g><g><path d="M471.624,126.283H284.746V54.219c-0.001-4.298-1.892-8.364-5.198-11.104      c-3.282-2.738-7.681-3.922-11.819-3.053L37.731,83.3c-6.814,1.275-11.73,7.211-11.73,14.157v317.106      c0,6.919,4.916,12.883,11.73,14.157l229.997,43.24c0.862,0.17,1.754,0.259,2.646,0.259c3.334,0,6.582-1.152,9.172-3.318      c3.309-2.734,5.199-6.828,5.199-11.099v-72.067h186.878c7.938,0,14.375-6.46,14.375-14.419V140.7      C486,132.747,479.563,126.283,471.624,126.283z" style="fill:#0071C5;"/><path d="M270.375,482.219c-1.532,0-3.073-0.15-4.58-0.447L35.884,438.548c-11.517-2.154-19.883-12.242-19.883-23.985V97.457      c0-11.742,8.366-21.83,19.892-23.986l229.902-43.22c1.523-0.312,3.089-0.469,4.654-0.469c5.626,0,11.133,2.008,15.504,5.655      c5.577,4.621,8.791,11.474,8.793,18.781v62.066h176.878c6.516,0,12.642,2.545,17.247,7.167      c4.598,4.612,7.129,10.739,7.128,17.252v230.614c0,13.465-10.935,24.419-24.375,24.419H294.746v62.067      c0,7.315-3.218,14.17-8.829,18.807C281.607,480.213,276.072,482.219,270.375,482.219z M270.449,49.781      c-0.229,0-0.454,0.023-0.667,0.067c-0.068,0.015-0.138,0.028-0.206,0.041L39.579,93.127c-2.077,0.389-3.578,2.208-3.578,4.329      v317.106c0,2.121,1.501,3.94,3.569,4.328l230.006,43.241c0.318,0.063,0.564,0.087,0.799,0.087c1.015,0,1.994-0.352,2.757-0.989      c1.027-0.85,1.614-2.117,1.614-3.428v-72.067c0-5.522,4.478-10,10-10h186.878c2.412,0,4.375-1.982,4.375-4.419V140.7      c0-1.596-0.81-2.647-1.293-3.131c-0.479-0.48-1.516-1.286-3.082-1.286H284.746c-5.522,0-10-4.477-10-10V54.219      c0-1.332-0.575-2.573-1.578-3.404C272.37,50.151,271.389,49.781,270.449,49.781z"/></g><g><g><polygon points="429.736,155.112 284.746,155.112 284.746,187.845 341.419,223.984      " style="fill:#FFFFFF;"/><path d="M341.418,233.984c-1.862,0-3.73-0.519-5.376-1.568l-56.673-36.139c-2.88-1.836-4.623-5.016-4.623-8.432v-32.733       c0-5.523,4.478-10,10-10h144.99c4.27,0,8.068,2.711,9.457,6.749c1.388,4.038,0.06,8.512-3.308,11.137l-88.317,68.872       C345.769,233.273,343.597,233.984,341.418,233.984z M294.746,182.362l46.094,29.393l59.812-46.642H294.746V182.362z"/></g><g><path d="M351.08,252.984c-2.592,2.02-5.726,3.026-8.831,3.026c-2.674,0-5.376-0.744-7.708-2.249       l-49.795-31.755v134.9h172.505v-186.75L351.08,252.984z" style="fill:#FFFFFF;"/><path d="M457.251,366.907H284.746c-5.522,0-10-4.478-10-10v-134.9c0-3.651,1.99-7.013,5.192-8.769       c3.199-1.755,7.104-1.627,10.185,0.337l49.795,31.755c1.519,0.981,3.619,0.853,5.016-0.234L451.1,162.272       c3.015-2.351,7.104-2.779,10.538-1.102c3.435,1.677,5.613,5.165,5.613,8.986v186.75       C467.251,362.43,462.773,366.907,457.251,366.907z M294.746,346.907h152.505V190.642l-90.02,70.227       c-4.258,3.317-9.576,5.143-14.982,5.143c-4.69,0-9.231-1.33-13.13-3.847l-34.373-21.92V346.907z"/></g></g><g><g><path d="M155.373,183.939c-39.618,0-71.874,38.805-71.874,86.484c0,47.683,32.256,86.485,71.874,86.485       s71.876-38.803,71.876-86.485C227.249,222.745,194.991,183.939,155.373,183.939z M155.373,328.08       c-23.776,0-43.123-25.857-43.123-57.656c0-31.797,19.347-57.654,43.123-57.654s43.13,25.858,43.13,57.654       C198.503,302.223,179.149,328.08,155.373,328.08z" style="fill:#FFFFFF;"/></g><g><g><path d="M155.373,366.909c-45.146,0-81.874-43.283-81.874-96.485c0-53.202,36.729-96.484,81.874-96.484        c45.146,0,81.876,43.283,81.876,96.484C237.249,323.626,200.52,366.909,155.373,366.909z M155.373,193.939        c-34.118,0-61.874,34.311-61.874,76.484s27.756,76.485,61.874,76.485c34.119,0,61.876-34.312,61.876-76.485        S189.492,193.939,155.373,193.939z M155.373,338.08c-29.292,0-53.123-30.351-53.123-67.656        c0-37.305,23.831-67.654,53.123-67.654c29.296,0,53.13,30.35,53.13,67.654C208.503,307.729,184.669,338.08,155.373,338.08z         M155.373,222.77c-17.955,0-33.123,21.823-33.123,47.654c0,25.832,15.168,47.656,33.123,47.656        c17.958,0,33.13-21.824,33.13-47.656C188.503,244.592,173.331,222.77,155.373,222.77z"/></g></g></g></g></g></g><g id="Layer_1"/></svg>