<?xml version="1.0" ?><!DOCTYPE svg  PUBLIC '-//W3C//DTD SVG 1.1//EN'  'http://www.w3.org/Graphics/SVG/1.1/DTD/svg11.dtd'><svg height="512px" style="enable-background:new 0 0 512 512;" version="1.1" viewBox="0 0 512 512" width="512px" xml:space="preserve" xmlns="http://www.w3.org/2000/svg" xmlns:xlink="http://www.w3.org/1999/xlink"><g id="comp_x5F_68-creative-commons-pd"><g><g><g><path d="M256,36.001c-121.533,0-220,98.556-220,219.999c0,121.532,98.467,219.999,220,219.999      c121.532,0,219.999-98.467,219.999-219.999C475.999,134.557,377.532,36.001,256,36.001z M256,434.749      c-123.484,0-209.177-122.417-168.727-237.652l69.904,31.137c-1.863,9.314-2.928,19.072-2.928,29.185      c0,87.823,65.557,112.573,106.808,112.573c20.313,0,47.459-5.943,70.435-26.169l-32.024-38.944      c-4.88,5.59-15.612,14.813-32.201,14.813c-33.533,0-47.638-35.394-47.815-63.78c204.387,91.015,192.056,85.604,193.299,85.87      C382.322,397.137,323.507,434.749,256,434.749L256,434.749z M428.273,301.688l-198.709-88.711      c16.677-30.16,48.701-27.234,66.267-9.758l35.838-36.902c-24.039-20.669-51.451-24.396-69.281-24.396      c-42.048,0-71.768,18.186-89.332,45.774l-66.443-29.629c32.024-48.702,87.025-80.903,149.476-80.903      c98.556,0,178.749,80.193,178.749,178.75c0,15.967-2.129,31.403-6.031,46.128C428.539,301.951,428.452,301.863,428.273,301.688      L428.273,301.688z" style="fill:#FFFFFF;"/><path d="M256,485.999c-61.45,0-119.212-23.92-162.646-67.354C49.921,375.211,26.001,317.449,26.001,256      c0-61.416,23.92-119.166,67.353-162.611C136.798,49.933,194.56,26.001,256,26.001c61.44,0,119.202,23.932,162.646,67.388      c43.433,43.445,67.353,101.195,67.353,162.611c0,61.449-23.92,119.211-67.354,162.646      C375.212,462.079,317.45,485.999,256,485.999z M256,46.001c-115.794,0-210,94.205-210,209.999s94.206,209.999,210,209.999      c115.793,0,209.999-94.205,209.999-209.999S371.794,46.001,256,46.001z M256,444.749c-31.547,0-61.405-7.418-88.744-22.047      c-25.607-13.701-48.117-33.607-65.098-57.564c-17.001-23.986-28.348-51.866-32.812-80.624      c-4.752-30.614-1.895-61.14,8.492-90.729c0.925-2.636,2.911-4.765,5.476-5.871c2.566-1.105,5.478-1.088,8.028,0.048      l69.904,31.137c4.271,1.902,6.654,6.511,5.737,11.096c-1.814,9.07-2.733,18.229-2.733,27.224      c0,35.95,11.495,63.337,34.166,81.399c23.987,19.11,51.798,21.174,62.642,21.174c12.323,0,34.896-2.455,56.255-17.669      l-18.906-22.991c-7.005,5.179-17.438,10.36-31.14,10.36c-37.653,0-57.586-37.085-57.815-73.718      c-0.021-3.397,1.684-6.573,4.528-8.432c2.844-1.86,6.437-2.148,9.54-0.766c45.183,20.121,79.776,35.529,106.265,47.328      c65.019,28.96,82.113,36.574,85.49,38.002c2.901,0.757,5.319,2.779,6.571,5.521c1.313,2.876,1.19,6.202-0.332,8.973      C388.234,407.141,324.813,444.749,256,444.749z M93.427,210.785c-13.831,49.012-4.93,100.493,25.048,142.787      c32.062,45.233,82.188,71.177,137.525,71.177c57.819,0,111.386-29.713,142.331-78.242c-0.588-0.261-1.205-0.534-1.853-0.821      c-11.172-4.956-32.805-14.592-74.832-33.312c-1.585-0.706-3.199-1.425-4.843-2.157l22.412,27.255      c3.425,4.165,2.931,10.295-1.116,13.857c-28.33,24.939-60.43,28.663-77.042,28.663c-12.946,0-46.18-2.488-75.104-25.531      c-19.025-15.157-41.704-44.297-41.704-97.042c0-7.686,0.584-15.466,1.74-23.221L93.427,210.785z M413.726,351.713      c-0.153,0.017-0.313,0.03-0.473,0.041C413.419,351.743,413.573,351.729,413.726,351.713z M231.266,272.12      c3.991,18.605,14.896,37.572,36,37.572c12.228,0,20.202-6.5,24.133-10.791C274.058,291.178,254.141,282.307,231.266,272.12z       M428.807,312.04c-1.061,0-2.124-0.169-3.15-0.51c-0.979-0.325-1.79-0.733-2.461-1.158l-197.708-88.265      c-2.557-1.142-4.518-3.303-5.407-5.958c-0.888-2.656-0.623-5.562,0.732-8.012c9.838-17.792,25.961-27.997,44.233-27.997      c10.555,0,21.084,3.392,30.019,9.512l21.573-22.213c-18.983-12.646-39.516-15.52-54.25-15.52      c-35.786,0-63.76,14.228-80.896,41.145c-2.661,4.18-7.982,5.779-12.508,3.763l-66.443-29.629c-2.68-1.195-4.7-3.507-5.524-6.323      c-0.824-2.816-0.371-5.853,1.242-8.304c35.167-53.48,94.169-85.409,157.832-85.409c104.076,0,188.749,84.673,188.749,188.75      c0,16.372-2.142,32.753-6.365,48.689c-0.706,2.667-2.483,4.923-4.91,6.235C432.087,311.635,430.451,312.04,428.807,312.04z       M244.852,208.85l176.942,78.994c2.022-10.547,3.044-21.242,3.044-31.932c0-93.049-75.7-168.75-168.749-168.75      c-52.963,0-102.331,24.74-134.278,66.731l47.753,21.295c21.056-27.976,53.682-43.268,92.824-43.268      c29.188,0,55.399,9.272,75.801,26.813c2.091,1.797,3.347,4.379,3.471,7.133c0.123,2.754-0.896,5.438-2.816,7.416l-35.838,36.902      c-1.862,1.917-4.415,3.01-7.088,3.033c-2.662,0.049-5.243-1.025-7.139-2.911c-6.398-6.366-15.271-10.166-23.732-10.166      C259.256,200.141,251.683,201.859,244.852,208.85z"/></g></g></g></g><g id="Layer_1"/></svg>