<?xml version="1.0" ?><!DOCTYPE svg  PUBLIC '-//W3C//DTD SVG 1.1//EN'  'http://www.w3.org/Graphics/SVG/1.1/DTD/svg11.dtd'><svg height="512px" style="enable-background:new 0 0 512 512;" version="1.1" viewBox="0 0 512 512" width="512px" xml:space="preserve" xmlns="http://www.w3.org/2000/svg" xmlns:xlink="http://www.w3.org/1999/xlink"><g id="comp_x5F_253-phabricator"><g><g><g><path d="M470.489,218.426l-89.95-89.949l-0.092,0.093c-69.642-67.974-181.2-67.51-250.191,1.484      c-47.201,47.293-25.781,25.872-88.746,88.372c-20.679,20.68-20.679,54.435,0,75.114c64.82,64.355,43.028,42.657,90.322,89.951      l0.092-0.093c69.642,67.971,181.198,67.601,250.192-1.486c47.293-47.197,25.872-25.872,88.372-88.372      C491.169,272.86,491.169,239.105,470.489,218.426z" style="fill:#0A1F4D;"/><g><path d="M256.354,444.055c-0.006,0-0.003,0-0.009,0c-48.841-0.003-95.016-18.58-130.216-52.35       c-0.485-0.337-0.943-0.719-1.368-1.143l-19.198-19.203c-18.628-18.637-18.628-18.637-45.913-45.721l-25.185-25.002       c-24.633-24.634-24.633-64.674-0.026-89.282c17.03-16.904,27.88-27.663,35.589-35.307       c18.906-18.746,18.906-18.746,44.524-44.416l8.625-8.643c35.497-35.498,82.69-55.044,132.895-55.044       c48.832,0,94.993,18.567,130.171,52.318c0.485,0.337,0.942,0.718,1.366,1.142l89.95,89.949       c24.607,24.608,24.607,64.648,0,89.257c-26.997,26.996-38.334,38.352-46.315,46.345       c-10.498,10.516-15.193,15.218-42.064,42.034C353.727,424.492,306.545,444.055,256.354,444.055z M137.758,375.274       c0.401,0.289,0.787,0.611,1.151,0.968c31.588,30.83,73.294,47.81,117.436,47.813c0.002,0,0.005,0,0.008,0       c44.847,0,86.998-17.477,118.687-49.209c26.867-26.812,31.559-31.512,42.051-42.021c7.983-7.996,19.323-19.354,46.326-46.356       c16.811-16.81,16.811-44.162,0-60.972l-88.805-88.804c-0.401-0.289-0.786-0.611-1.15-0.967       c-31.567-30.811-73.258-47.78-117.39-47.78c-44.862,0-87.033,17.465-118.745,49.179l-8.619,8.636       c-25.655,25.707-25.655,25.707-44.598,44.49c-7.708,7.643-18.556,18.399-35.555,35.273       c-16.783,16.784-16.783,44.136,0.026,60.946l25.158,24.976c27.313,27.111,27.313,27.111,45.969,45.776L137.758,375.274z"/></g></g><g><path d="M163.292,348.88c-51.358-51.271-51.358-134.427,0-185.699      c51.272-51.357,134.428-51.271,185.785,0c51.271,51.272,51.357,134.428,0,185.784C297.72,400.237,214.65,400.151,163.292,348.88      z" style="fill:#FFFFFF;"/><path d="M256.269,397.376c-37.758,0-73.287-14.709-100.042-41.419c-26.732-26.687-41.454-62.174-41.454-99.926      c0-37.752,14.722-73.24,41.454-99.928c26.654-26.699,62.131-41.409,99.883-41.409c37.759,0,73.284,14.706,100.032,41.409      c55.126,55.127,55.126,144.813,0.006,199.933C329.443,382.696,293.974,397.376,256.269,397.376z M256.11,134.695      c-32.404,0-62.854,12.625-85.741,35.551c-22.959,22.92-35.596,53.382-35.596,85.786c0,32.403,12.637,62.864,35.583,85.771      c22.979,22.94,53.49,35.573,85.912,35.573c32.369,0,62.82-12.603,85.743-35.488c47.316-47.314,47.316-124.313-0.006-171.636      C319.04,147.325,288.533,134.695,256.11,134.695z"/></g><g><path d="M325.549,261.641l-0.092-12.057c0,0,20.123-18.36,19.566-19.658l-8.809-18.546      c-0.558-1.299-27.355-0.465-27.355-0.465l-8.72-8.624c0,0,0.187-26.428-1.111-26.984l-18.64-8.532      c-1.298-0.556-19.194,19.474-19.194,19.474l-12.149-0.185c0,0-19.009-19.845-20.307-19.289l-18.547,7.697      c-1.299,0.464,0.185,26.799,0.185,26.799l-8.439,8.439c0,0-27.077-0.835-27.542,0.371l-7.51,18.36      c-0.556,1.299,19.474,19.474,19.474,19.474l0.092,11.963c0,0-20.123,18.362-19.566,19.659l8.81,18.546      c0.556,1.3,27.355,0.464,27.355,0.464l8.716,8.626c0,0-0.184,29.488,1.113,29.951l18.64,7.696      c1.297,0.558,19.195-21.792,19.195-21.792l12.146,0.187c0,0,19.012,22.069,20.216,21.605l18.547-6.956      c1.299-0.554-0.185-29.766-0.185-29.766l8.438-8.438c0,0,27.079,0.835,27.542-0.464l7.513-18.36      C345.58,279.816,325.549,261.641,325.549,261.641L325.549,261.641z" style="fill:#0A1F4D;"/><g><path d="M231.576,354.83c-1.31,0-2.658-0.267-3.872-0.767l-18.505-7.641c-6.375-2.477-6.748-8.889-7.022-13.591       c-0.155-2.646-0.268-6.245-0.338-10.701c-0.063-4.003-0.079-7.95-0.081-10.794l-2.708-2.681c-3.199,0.073-7.724,0.155-12,0.155       c-11.243,0-17.494,0-20.445-6.561l-8.752-18.423c-0.055-0.115-0.107-0.232-0.158-0.35c-2.787-6.499,1.756-11.282,4.762-14.447       c1.708-1.798,4.092-4.163,7.085-7.031c2.495-2.39,4.984-4.719,6.876-6.474l-0.025-3.18c-1.888-1.741-4.38-4.061-6.878-6.441       c-2.981-2.841-5.355-5.187-7.057-6.97c-2.992-3.137-7.505-7.868-4.808-14.327l7.468-18.258c2.51-6.279,8.96-6.611,12.071-6.771       c1.96-0.101,4.535-0.15,7.872-0.15c4.518,0,9.431,0.092,12.844,0.172l2.258-2.258c-0.118-2.478-0.258-5.709-0.361-8.983       c-0.126-4.017-0.169-7.273-0.128-9.676c0.07-4.101,0.188-10.92,6.827-13.506l18.405-7.638c1.218-0.504,2.581-0.775,3.897-0.775       c4.779,0,7.458,2.22,17.839,12.567c2.499,2.491,4.918,4.958,6.707,6.797l3.462,0.052c1.65-1.814,3.795-4.154,6.009-6.515       c9.806-10.458,12.597-12.902,17.506-12.902c1.353,0,2.755,0.286,3.998,0.818c0.076,0.032,0.151,0.066,0.227,0.1l18.578,8.504       c5.937,2.651,6.335,8.828,6.6,12.927c0.156,2.417,0.271,5.688,0.341,9.721c0.059,3.41,0.076,6.771,0.079,9.291l2.711,2.681       c3.194-0.073,7.714-0.155,11.986-0.155c11.25,0,17.504,0,20.458,6.557l8.753,18.427c0.055,0.115,0.106,0.231,0.157,0.349       c2.787,6.5-1.756,11.283-4.762,14.448c-1.708,1.798-4.092,4.164-7.086,7.031c-2.494,2.39-4.983,4.718-6.876,6.474l0.025,3.271       c1.882,1.733,4.363,4.036,6.849,6.393c2.965,2.811,5.319,5.117,7,6.854c2.604,2.691,7.873,8.14,4.619,14.665l-7.261,17.745       c-2.476,6.37-9.117,6.724-12.335,6.896c-2.059,0.109-4.873,0.165-8.363,0.165c-4.313,0-8.885-0.083-12.113-0.156l-2.277,2.277       c0.121,2.799,0.272,6.595,0.381,10.445c0.125,4.426,0.168,8.006,0.127,10.644c-0.072,4.723-0.173,11.19-6.596,13.929       c-0.136,0.058-0.272,0.112-0.41,0.164l-18.547,6.956c-1.123,0.421-2.355,0.644-3.555,0.644c-5.235,0-7.855-2.697-18.112-14.127       c-2.481-2.766-4.892-5.506-6.682-7.555l-2.813-0.044c-1.649,2.024-3.789,4.63-5.994,7.257       C239.805,351.83,237.06,354.83,231.576,354.83z M250.714,313.028c0.051,0,0.103,0,0.154,0.001l12.146,0.187       c2.857,0.044,5.559,1.308,7.423,3.473c5.066,5.881,11.063,12.624,14.837,16.628l6.889-2.584       c-0.02-5.532-0.321-14.461-0.711-22.127c-0.144-2.824,0.916-5.577,2.916-7.577l8.438-8.438c1.95-1.952,4.628-2.998,7.379-2.925       c0.085,0.003,8.51,0.26,15.84,0.26c1.795,0,3.239-0.016,4.399-0.039l2.937-7.176c-3.599-3.563-9.432-9.036-14.531-13.663       c-2.069-1.878-3.259-4.536-3.28-7.33l-0.092-12.057c-0.021-2.837,1.164-5.551,3.26-7.463       c5.083-4.638,10.897-10.143,14.521-13.777l-3.667-7.722c-1.21-0.027-2.757-0.046-4.725-0.046       c-7.276,0-15.592,0.256-15.675,0.259c-2.761,0.086-5.395-0.958-7.344-2.885l-8.72-8.624c-1.916-1.896-2.986-4.485-2.968-7.18       c0.049-6.984-0.05-15.173-0.271-20.109l-7.841-3.589c-3.543,3.603-8.883,9.36-13.376,14.389       c-1.932,2.163-4.709,3.376-7.609,3.336l-12.149-0.185c-2.674-0.041-5.22-1.151-7.07-3.082       c-4.987-5.207-10.927-11.18-14.674-14.72l-7.491,3.109c0.038,4.939,0.328,12.696,0.703,19.338c0.16,2.843-0.9,5.62-2.914,7.633       l-8.439,8.439c-1.951,1.951-4.617,3.026-7.379,2.924c-0.09-0.002-9.071-0.277-16.568-0.277c-1.47,0-2.688,0.011-3.696,0.027       l-2.947,7.204c3.584,3.592,9.502,9.169,14.661,13.85c2.069,1.877,3.258,4.535,3.28,7.329l0.092,11.963       c0.022,2.838-1.163,5.551-3.259,7.464c-5.083,4.639-10.897,10.144-14.521,13.778l3.668,7.722       c1.207,0.028,2.748,0.047,4.709,0.047c7.279,0,15.606-0.257,15.69-0.26c2.723-0.085,5.396,0.957,7.346,2.888l8.716,8.626       c1.913,1.893,2.982,4.478,2.966,7.17c-0.05,7.998,0.05,17.337,0.288,22.857l7.266,3c3.561-4.04,9.007-10.593,13.59-16.315       C244.809,314.405,247.682,313.028,250.714,313.028z M336.486,275.481c-0.396,0.623-0.704,1.253-0.938,1.881l0.128-0.313       C335.899,276.504,336.171,275.979,336.486,275.481z M214.104,183.675l-0.08,0.033c-0.145,0.06-0.292,0.117-0.44,0.17       C213.762,183.814,213.935,183.747,214.104,183.675z"/></g></g><g><path d="M283.912,253.571c0.648,15.858-11.868,29.304-27.911,30.046      c-16.043,0.74-29.767-11.591-30.417-27.449c-0.648-15.856,11.87-29.303,27.913-29.952      C269.539,225.474,283.265,237.808,283.912,253.571z" style="fill:#FFFFFF;"/><path d="M254.63,293.648c-21.038,0-38.185-16.283-39.038-37.071c-0.424-10.361,3.26-20.271,10.372-27.905      c7.086-7.606,16.72-12.027,27.128-12.449c0.556-0.026,1.17-0.04,1.779-0.04c21.036,0,38.181,16.242,39.032,36.977      c0.872,21.307-15.924,39.45-37.44,40.445C255.85,293.635,255.237,293.648,254.63,293.648z M254.871,236.184      c-0.302,0-0.607,0.007-0.912,0.021c-5.166,0.209-9.89,2.375-13.361,6.101c-3.442,3.695-5.226,8.473-5.022,13.454      c0.417,10.158,9.455,18.34,19.964,17.869c10.558-0.488,18.804-9.303,18.381-19.648      C273.518,244.168,264.972,236.184,254.871,236.184z"/></g></g></g></g><g id="Layer_1"/></svg>