<?xml version="1.0" ?><!DOCTYPE svg  PUBLIC '-//W3C//DTD SVG 1.1//EN'  'http://www.w3.org/Graphics/SVG/1.1/DTD/svg11.dtd'><svg height="512px" style="enable-background:new 0 0 512 512;" version="1.1" viewBox="0 0 512 512" width="512px" xml:space="preserve" xmlns="http://www.w3.org/2000/svg" xmlns:xlink="http://www.w3.org/1999/xlink"><g id="_x32_9_x2C__PSD_x2C__File_Type_x2C__Photoshop"><g><path d="M236.076,278.19c13.052,0,20.428,7.89,20.428,21.099c0,14.709-8.583,23.448-22.484,23.448    c-3.777,0-6.526-0.219-8.75-0.859v-42.407C227.147,278.83,230.757,278.19,236.076,278.19z" style="fill:#4FC7EC;"/><polygon points="362.628,60.905 419.462,117.917 419.242,118.127 363.11,118.169 362.586,60.947   " style="fill:#242238;"/><path d="M130.098,100.721H306.36v101.771H130.098h-0.43h-37.34V100.721h37.34H130.098z" style="fill:#242238;"/><path d="M419.672,118.127v333.021H130.098V202.492H306.36V100.721H130.098V60.853h232.488l0.042,0.052    l-0.042,0.042l0.524,57.222l56.132-0.042l0.22-0.209L419.672,118.127z M341.487,336.272l4.154-15.035    c-4.89-2.202-11.74-4.165-21.035-4.165c-19.442,0-31.183,10.766-31.183,24.824c0,11.992,8.929,19.566,22.632,24.341    c9.903,3.547,13.817,6.484,13.817,11.615c0,5.381-4.533,8.928-13.095,8.928c-7.942,0-15.644-2.57-20.657-5.141l-3.799,15.411    c4.648,2.572,13.944,5.017,23.366,5.017c22.62,0,33.258-11.741,33.258-25.56c0-11.613-6.85-19.198-21.403-24.582    c-10.639-4.038-15.286-6.357-15.286-11.614c0-4.281,3.913-7.953,11.981-7.953C332.317,332.358,338.183,334.688,341.487,336.272z     M271.779,332.538c6.872-8.1,10.649-20.04,10.649-34.099c0-14.069-4.984-25.999-12.359-33.249    c-7.732-7.669-19.231-11.509-35.368-11.509c-15.958,0-27.289,1.28-35.357,2.979v141.735h25.925v-51.369    c2.403,0.431,5.487,0.641,8.918,0.641C249.642,347.667,262.851,342.978,271.779,332.538z" style="fill:#4FC7EC;"/><g><path d="M327.543,351.926c-10.639-4.038-15.286-6.357-15.286-11.614c0-4.281,3.913-7.953,11.981-7.953     c8.079,0,13.944,2.33,17.249,3.914l4.154-15.035c-4.89-2.202-11.74-4.165-21.035-4.165c-19.442,0-31.183,10.766-31.183,24.824     c0,11.992,8.929,19.566,22.632,24.341c9.903,3.547,13.817,6.484,13.817,11.615c0,5.381-4.533,8.928-13.095,8.928     c-7.942,0-15.644-2.57-20.657-5.141l-3.799,15.411c4.648,2.572,13.944,5.017,23.366,5.017c22.62,0,33.258-11.741,33.258-25.56     C348.946,364.895,342.097,357.31,327.543,351.926z" style="fill:#242238;"/><path d="M234.702,253.681c-15.958,0-27.289,1.28-35.357,2.979v142.028h26.229v-51.662     c2.099,0.431,5.335,0.641,8.766,0.641c15.454,0,28.588-4.689,37.516-15.129c6.872-8.1,10.611-20.04,10.611-34.099     c0-14.069-5.003-25.999-12.379-33.249C262.356,257.521,250.838,253.681,234.702,253.681z M234.171,322.737     c-3.776,0-6.499-0.219-8.598-0.859v-42.407c1.049-0.641,5.335-1.28,10.654-1.28c13.052,0,20.428,7.89,20.428,21.099     C256.656,313.998,248.073,322.737,234.171,322.737z" style="fill:#242238;"/></g><g><path d="M247.04,134.18c-4.228-3.189-9.467-4.69-17.797-4.69c-5.005,0-10.243,0.325-13.243,0.913v43.058     c2,0.325,5.962,0.651,11.103,0.651c8.583,0,15.524-1.826,20.141-5.655c4.228-3.578,7.242-9.37,7.242-17.763     C254.485,142.951,251.593,137.558,247.04,134.18z M229.266,166.368c-1.239,0-2.266,0-3.266-0.188v-28.685     c1-0.2,2.101-0.388,4.304-0.388c8.52,0,13.859,4.816,13.786,13.912C244.09,161.49,238.246,166.431,229.266,166.368z" style="fill:#4FC7EC;"/><path d="M197.592,147.641c-5.655-2.151-8.121-3.379-8.121-6.18c0-2.276,2.078-4.229,6.369-4.229     c4.291,0,7.417,1.238,9.169,2.088l2.213-8.005c-2.602-1.165-6.242-2.214-11.184-2.214c-10.345,0-16.588,5.729-16.588,13.199     c0,6.379,4.753,10.408,12.034,12.947c5.267,1.888,7.344,3.441,7.344,6.179c0,2.864-2.402,4.753-6.956,4.753     c-4.228,0-8.331-1.375-10.996-2.739l-2.014,8.194c2.476,1.364,7.417,2.665,12.422,2.665c12.035,0,17.69-6.242,17.69-13.586     C208.976,154.534,205.335,150.505,197.592,147.641z" style="fill:#4FC7EC;"/><path d="M169.548,133.004c-2.927-2.339-7.157-3.515-13.274-3.515c-6.043,0-10.273,0.398-13.273,0.913V174     h9v-16.025c1,0.137,2.374,0.199,3.675,0.199c5.844,0,11.002-1.427,14.38-4.616c2.602-2.476,4.101-6.117,4.101-10.408     C174.156,138.859,172.349,135.218,169.548,133.004z M155.602,150.567c-1.427,0-2.602-0.063-3.602-0.262v-12.936     c1-0.199,2.374-0.399,4.389-0.399c4.941,0,7.732,2.414,7.732,6.442C164.121,147.903,160.868,150.567,155.602,150.567z" style="fill:#4FC7EC;"/></g><path d="M363.11,128.661c-5.756,0-10.438-4.638-10.491-10.395l-0.524-57.223    c-0.054-5.794,4.601-10.534,10.396-10.587c0.032,0,0.065,0,0.098,0c5.75,0,10.437,4.634,10.49,10.396l0.428,46.819l45.728-0.034    c0.003,0,0.007,0,0.009,0c5.791,0,10.487,4.692,10.491,10.484c0.004,5.794-4.689,10.496-10.483,10.5l-56.131,0.042    C363.116,128.661,363.112,128.661,363.11,128.661z" style="fill:#3B95B1;"/><path d="M130.098,212.983h-37.77c-5.795,0-10.492-4.697-10.492-10.492V100.721    c0-5.794,4.697-10.492,10.492-10.492h37.77c5.795,0,10.492,4.697,10.492,10.492c0,5.795-4.697,10.492-10.492,10.492H102.82V192    h27.278c5.795,0,10.492,4.697,10.492,10.492S135.893,212.983,130.098,212.983z" style="fill:#3B95B1;"/><path d="M419.672,461.64H130.098c-5.794,0-10.492-4.697-10.492-10.492V202.492    c0-5.794,4.697-10.492,10.492-10.492h165.771v-80.787H130.098c-5.794,0-10.492-4.697-10.492-10.492V60.853    c0-5.794,4.697-10.492,10.492-10.492h232.488c2.935,0,5.722,1.228,7.7,3.365l56.796,56.973c1.974,1.969,3.082,4.642,3.082,7.428    v333.021C430.164,456.942,425.467,461.64,419.672,461.64z M140.59,440.655h268.59v-318.19l-50.96-51.121H140.59v18.885h165.77    c5.795,0,10.492,4.697,10.492,10.492v101.771c0,5.794-4.697,10.492-10.492,10.492H140.59V440.655z" style="fill:#3B95B1;"/></g></g><g id="Layer_1"/></svg>