<?xml version="1.0" ?><!DOCTYPE svg  PUBLIC '-//W3C//DTD SVG 1.1//EN'  'http://www.w3.org/Graphics/SVG/1.1/DTD/svg11.dtd'><svg height="512px" style="enable-background:new 0 0 512 512;" version="1.1" viewBox="0 0 512 512" width="512px" xml:space="preserve" xmlns="http://www.w3.org/2000/svg" xmlns:xlink="http://www.w3.org/1999/xlink"><g id="comp_x5F_267-python"><g><g><g><path d="M194.005,240.252h105.054c29.216,0,52.529-24.101,52.529-53.414V86.603      c0-28.525-24.002-49.871-52.529-54.691c-35.214-5.804-73.479-5.509-105.054,0.097c-44.462,7.87-52.527,24.298-52.527,54.693      v21.453H246.63v31.959H102.032c-30.591,0-57.349,18.394-65.709,53.315c-9.64,40.035-10.032,65.02,0,106.826      c7.477,31.085,25.28,53.314,55.872,53.314h36.101v-48.001C128.296,270.845,158.298,240.252,194.005,240.252L194.005,240.252z" style="fill:#347AB4;"/><g><path d="M128.296,363.569H92.195c-32.842,0-56.137-21.655-65.595-60.976       c-10.146-42.276-10.145-69.37,0-111.505c4.521-18.885,14.243-34.559,28.112-45.314c13.21-10.245,29.573-15.66,47.319-15.66       H236.63v-11.959h-95.152c-5.523,0-10-4.477-10-10V86.702c0-13.954,1.423-29.889,11.979-42.278       c9.452-11.094,24.504-17.96,48.806-22.261c16.512-2.932,35.127-4.482,53.829-4.482c18.655,0,37.023,1.469,54.594,4.365       c16.345,2.762,31.383,10.299,42.385,21.229c11.941,11.865,18.519,27.253,18.519,43.329v100.235       c0,34.967-28.051,63.414-62.529,63.414H194.005c-29.677,0-55.709,25.849-55.709,55.316v48.001       C138.296,359.092,133.819,363.569,128.296,363.569z M102.032,150.114c-28.213,0-49.142,17.063-55.984,45.643       c-9.526,39.563-9.525,62.475-0.001,102.165c5.008,20.821,17.081,45.647,46.148,45.647h26.101v-38.001       c0-19.263,8.159-38.487,22.386-52.743c14.527-14.557,33.464-22.573,53.323-22.573h105.054       c23.451,0,42.529-19.476,42.529-43.414V86.603c0-24.529-22.233-41.12-44.195-44.831c-16.46-2.713-33.733-4.092-51.302-4.092       c-17.549,0-34.956,1.444-50.337,4.175c-39.908,7.064-44.275,19.689-44.275,44.847v11.453h95.152c5.523,0,10,4.477,10,10v31.959       c0,5.523-4.477,10-10,10H102.032z" style="fill:#275C87;"/></g></g><g><path d="M474.975,209.372c-7.575-30.395-21.935-53.315-52.527-53.315h-39.443v46.626      c0,36.199-30.692,66.691-65.71,66.691H212.24c-28.724,0-52.528,24.594-52.528,53.414v100.138      c0,28.524,24.788,45.246,52.528,53.413c33.247,9.737,65.215,11.509,105.054,0c26.462-7.675,52.529-23.116,52.529-53.413v-20.997      H264.867v-32.417h157.58c30.593,0,41.904-21.346,52.527-53.314C485.992,283.244,485.501,251.57,474.975,209.372L474.975,209.372      z" style="fill:#FFCA1D;"/><g><path d="M264.431,494.32c-17.747,0-35.738-2.743-55.001-8.385       c-38.515-11.339-59.718-33.715-59.718-63.01V322.788c0-34.374,28.634-63.414,62.528-63.414h105.054       c29.678,0,55.71-26.491,55.71-56.691v-46.626c0-5.523,4.478-10,10-10h39.443c17.276,0,31.546,6.279,42.412,18.664       c8.734,9.955,15.217,23.77,19.818,42.232c11.191,44.863,11.126,78.483-0.219,112.415c-10.11,30.424-23.23,60.144-62.012,60.144       h-147.58v12.417h94.956c5.522,0,10,4.478,10,10v20.997c0,20.844-10.365,48.696-59.744,63.018       C300.563,491.581,282.364,494.32,264.431,494.32z M212.24,279.374c-23.053,0-42.528,19.881-42.528,43.414v100.138       c0,26.51,28.415,38.834,45.353,43.82c17.639,5.166,33.33,7.574,49.366,7.574c16.028,0,32.413-2.482,50.088-7.589       c30.059-8.718,45.305-23.457,45.305-43.806v-10.997h-94.956c-5.522,0-10-4.478-10-10v-32.417c0-5.522,4.478-10,10-10h157.58       c21.148,0,31.204-10.857,43.037-46.468c10.189-30.476,10.126-59.805-0.213-101.252c-7.883-31.631-21.09-45.735-42.824-45.735       h-29.443v36.626c0,41.571-34.671,76.691-75.71,76.691H212.24z" style="fill:#BF9816;"/></g></g><path d="M187.414,89.594c-10.479,0-18.975-8.591-18.975-19.164c0.094-10.668,8.496-19.259,18.975-19.259     c10.386,0,18.976,8.685,18.976,19.259C206.39,81.003,197.894,89.594,187.414,89.594z" style="fill:#FFFFFF;"/><path d="M314.908,460.076c-10.479,0-18.976-8.591-18.976-19.164c0.095-10.668,8.496-19.259,18.976-19.259     c10.385,0,18.976,8.685,18.976,19.259C333.884,451.485,325.388,460.076,314.908,460.076z" style="fill:#FFFFFF;"/></g></g></g><g id="Layer_1"/></svg>