<?xml version="1.0" ?><!DOCTYPE svg  PUBLIC '-//W3C//DTD SVG 1.1//EN'  'http://www.w3.org/Graphics/SVG/1.1/DTD/svg11.dtd'><svg height="512px" style="enable-background:new 0 0 512 512;" version="1.1" viewBox="0 0 512 512" width="512px" xml:space="preserve" xmlns="http://www.w3.org/2000/svg" xmlns:xlink="http://www.w3.org/1999/xlink"><g id="comp_x5F_371-wechat"><g><g><g><path d="M342.248,169.517c8.712,0,17.221,0.724,25.616,1.759      C352.687,104.625,282.682,54.21,198.504,54.21c-95.28,0-172.503,64.541-172.503,144.134c0,45.889,25.819,86.602,65.866,112.945      l-22.742,45.605l61.953-26.608c13.285,4.731,27.09,8.627,41.835,10.44c-2.015-8.796-3.16-17.813-3.16-27.068      C169.753,234.178,247.116,169.517,342.248,169.517z M256.004,119.066c11.904,0,21.559,9.685,21.559,21.623      c0,11.942-9.654,21.62-21.559,21.62c-11.913,0-21.563-9.678-21.563-21.62C234.44,128.75,244.091,119.066,256.004,119.066z       M141.002,162.309c-11.907,0-21.562-9.678-21.562-21.62c0-11.938,9.655-21.623,21.562-21.623      c11.904,0,21.562,9.685,21.562,21.623C162.563,152.631,152.906,162.309,141.002,162.309z" style="fill:#51C332;"/><path d="M69.127,366.895c-2.696,0-5.342-1.09-7.272-3.133c-2.881-3.051-3.552-7.575-1.68-11.33      l18.878-37.856c-40.188-29.301-63.053-71.227-63.053-116.231c0-41.512,19.216-80.431,54.109-109.588      C104.487,60.03,150.085,44.21,198.504,44.21c87.039,0,162.17,52.185,178.957,124.176c0.275,0.915,0.424,1.885,0.424,2.89      c0,5.507-4.452,9.975-9.954,10c-0.428,0.001-0.858-0.022-1.29-0.075c-9.316-1.148-17.066-1.684-24.393-1.684      c-89.6,0-162.495,60.175-162.495,134.141c0,8.056,0.979,16.412,2.908,24.836c0.728,3.178-0.139,6.511-2.323,8.931      c-2.184,2.421-5.41,3.63-8.646,3.227c-12.724-1.564-25.6-4.646-40.238-9.644l-58.383,25.075      C71.798,366.63,70.457,366.895,69.127,366.895z M198.504,64.21c-89.604,0-162.503,60.172-162.503,134.134      c0,40.817,22.366,78.939,61.362,104.59c4.229,2.782,5.713,8.286,3.454,12.817l-10.565,21.186l36.88-15.84      c2.318-0.995,4.926-1.078,7.301-0.232c9.466,3.372,18.042,5.879,26.215,7.643c-0.595-5.004-0.895-9.967-0.895-14.85      c0-84.994,81.867-154.141,182.495-154.141c3.836,0,7.752,0.128,11.88,0.395C333.833,103.701,270.869,64.21,198.504,64.21z       M256.004,172.309c-17.404,0-31.563-14.185-31.563-31.62c0-17.437,14.159-31.623,31.563-31.623      c17.401,0,31.559,14.186,31.559,31.623C287.563,158.124,273.405,172.309,256.004,172.309z M256.004,129.066      c-6.376,0-11.563,5.214-11.563,11.623c0,6.407,5.188,11.62,11.563,11.62c6.373,0,11.559-5.212,11.559-11.62      C267.563,134.28,262.377,129.066,256.004,129.066z M141.002,172.309c-17.403,0-31.562-14.185-31.562-31.62      c0-17.437,14.159-31.623,31.562-31.623s31.562,14.186,31.562,31.623C172.563,158.124,158.405,172.309,141.002,172.309z       M141.002,129.066c-6.375,0-11.562,5.214-11.562,11.623c0,6.407,5.187,11.62,11.562,11.62s11.562-5.212,11.562-11.62      C152.563,134.28,147.377,129.066,141.002,129.066z" style="fill:#3D9226;"/></g><g><path d="M485.999,313.656c0-63.684-64.376-115.312-143.751-115.312      c-79.378,0-143.744,51.628-143.744,115.312c0,63.679,64.366,115.308,143.744,115.308c13.054,0,25.471-1.845,37.519-4.465      l77.483,33.291l-26.798-53.701C464.035,382.983,485.999,350.527,485.999,313.656z M299.125,306.448      c-11.906,0-21.563-9.681-21.563-21.625c0-11.938,9.656-21.616,21.563-21.616c11.91,0,21.561,9.682,21.561,21.616      C320.686,296.768,311.033,306.448,299.125,306.448z M385.373,306.448c-11.912,0-21.561-9.681-21.561-21.625      c0-11.938,9.648-21.616,21.561-21.616c11.911,0,21.563,9.682,21.563,21.616C406.936,296.768,397.284,306.448,385.373,306.448z" style="fill:#51C332;"/><path d="M457.247,467.79c-1.329,0-2.671-0.265-3.944-0.813l-74.571-32.039      c-13.383,2.742-25.051,4.025-36.483,4.025c-40.658,0-78.977-12.775-107.896-35.974c-29.565-23.717-45.848-55.442-45.848-89.334      c0-33.894,16.282-65.621,45.848-89.338c28.919-23.198,67.238-35.974,107.896-35.974c40.657,0,78.977,12.776,107.898,35.974      c29.568,23.717,45.853,55.444,45.853,89.338c0,36.167-19.077,69.945-52.668,93.845l22.867,45.824      c1.873,3.755,1.203,8.28-1.679,11.331C462.59,466.699,459.943,467.79,457.247,467.79z M379.767,414.499      c1.35,0,2.693,0.273,3.947,0.813l52.396,22.512l-14.606-29.27c-2.296-4.602-0.728-10.195,3.627-12.932      c32.327-20.316,50.868-50.191,50.868-81.966c0-58.069-60-105.312-133.751-105.312c-73.747,0-133.744,47.243-133.744,105.312      c0,58.066,59.997,105.308,133.744,105.308c10.857,0,22.104-1.346,35.394-4.236C378.344,414.575,379.056,414.499,379.767,414.499      z M385.373,316.448c-17.402,0-31.561-14.187-31.561-31.625c0-17.434,14.158-31.616,31.561-31.616      c17.403,0,31.563,14.183,31.563,31.616C416.936,302.262,402.776,316.448,385.373,316.448z M385.373,273.207      c-6.374,0-11.561,5.211-11.561,11.616c0,6.41,5.187,11.625,11.561,11.625c6.376,0,11.563-5.215,11.563-11.625      C396.936,278.418,391.749,273.207,385.373,273.207z M299.125,316.448c-17.403,0-31.563-14.187-31.563-31.625      c0-17.434,14.159-31.616,31.563-31.616c17.402,0,31.561,14.183,31.561,31.616C330.686,302.262,316.527,316.448,299.125,316.448z       M299.125,273.207c-6.376,0-11.563,5.211-11.563,11.616c0,6.41,5.187,11.625,11.563,11.625c6.374,0,11.561-5.215,11.561-11.625      C310.686,278.418,305.499,273.207,299.125,273.207z" style="fill:#3D9226;"/></g></g></g></g><g id="Layer_1"/></svg>