<?xml version="1.0" ?><!DOCTYPE svg  PUBLIC '-//W3C//DTD SVG 1.1//EN'  'http://www.w3.org/Graphics/SVG/1.1/DTD/svg11.dtd'><svg height="512px" style="enable-background:new 0 0 512 512;" version="1.1" viewBox="0 0 512 512" width="512px" xml:space="preserve" xmlns="http://www.w3.org/2000/svg" xmlns:xlink="http://www.w3.org/1999/xlink"><g id="comp_x5F_374-weixin"><g><g><g><path d="M476.088,323.317c0-58.016-58.016-105.235-123.184-105.235      c-69.039,0-123.183,47.219-123.183,105.235c0,58.017,54.218,105.235,123.183,105.235c14.373,0,28.971-3.8,43.643-7.375      L436.316,443l-11.021-36.193C454.49,384.909,476.088,355.938,476.088,323.317z" style="fill:#FFFFFF;"/><path d="M436.314,453c-1.646,0-3.302-0.406-4.809-1.233l-36.361-19.952      c-13.736,3.359-27.919,6.738-42.24,6.738c-35.628,0-69-11.818-93.971-33.277c-25.287-21.73-39.212-50.837-39.212-81.958      c0-31.127,13.916-60.233,39.183-81.956c24.961-21.46,58.344-33.279,94-33.279c72.193,0,133.184,52.771,133.184,115.235      c0,30.747-17.418,61.487-49.223,87.156l9.018,29.613c1.185,3.891-0.104,8.11-3.261,10.675      C440.8,452.242,438.564,453,436.314,453z M396.547,411.178c1.669,0,3.325,0.418,4.811,1.233l18.238,10.008l-3.867-12.699      c-1.226-4.025,0.2-8.388,3.566-10.913c30.175-22.632,46.793-49.441,46.793-75.489c0-51.623-51.832-95.235-113.184-95.235      c-62.409,0-113.183,42.722-113.183,95.235s50.774,95.235,113.183,95.235c12.292,0,25.064-3.125,38.587-6.434l2.688-0.657      C394.96,411.271,395.755,411.178,396.547,411.178z" style="fill:#78AB34;"/></g><g><path d="M312.91,305.071c-7.225,0-14.373-7.224-14.373-14.598c0-7.225,7.225-14.374,14.373-14.374      c11.023,0,18.174,7.224,18.174,14.374C331.084,297.922,323.859,305.071,312.91,305.071z" style="fill:#FFFFFF;"/><path d="M312.91,315.071c-12.756,0-24.373-11.724-24.373-24.598c0-12.757,11.617-24.374,24.373-24.374      c15.535,0,28.174,10.935,28.174,24.374C341.084,304.267,328.709,315.071,312.91,315.071z M312.91,286.1      c-1.676,0-4.373,2.698-4.373,4.374c0,1.939,2.79,4.598,4.373,4.598c5.442,0,8.174-2.947,8.174-4.598      C321.084,289.229,318.652,286.1,312.91,286.1z" style="fill:#78AB34;"/></g><g><path d="M392.674,305.071c-7.223,0-14.373-7.224-14.373-14.598c0-7.225,7.223-14.374,14.373-14.374      c10.799,0,18.174,7.224,18.174,14.374C410.92,297.922,403.473,305.071,392.674,305.071z" style="fill:#FFFFFF;"/><path d="M392.674,315.071c-12.756,0-24.373-11.724-24.373-24.598c0-12.757,11.617-24.374,24.373-24.374      c15.535,0,28.174,10.935,28.174,24.374c0.058,5.862-2.384,11.641-6.874,16.174C408.595,312.08,401.03,315.071,392.674,315.071z       M392.674,286.1c-1.676,0-4.373,2.698-4.373,4.374c0,1.939,2.79,4.598,4.373,4.598c4.167,0,6.346-1.746,7.09-2.497      c0.806-0.813,1.089-1.568,1.084-2.004C400.848,289.419,398.389,286.1,392.674,286.1z" style="fill:#78AB34;"/></g><g><path d="M352.904,187.19c5.67,0,11.295,0.29,16.859,0.836C356.297,120.519,288.307,69,204.055,69      c-88.952,0-168.143,64.453-168.143,143.643c0,44.527,29.48,84.072,69.33,113.961l-15.044,49.404l54.285-29.787      c19.058,4.644,38.02,9.554,56.716,10.021c-3.464-11.137-5.316-22.837-5.316-34.909C195.883,247.38,264.9,187.19,352.904,187.19z      " style="fill:#FFFFFF;"/><path d="M90.2,386.008c-2.25,0-4.484-0.758-6.307-2.238c-3.156-2.564-4.445-6.784-3.261-10.675      l13.03-42.789c-19.461-15.39-35.064-32.113-46.437-49.78c-14.142-21.971-21.313-44.81-21.313-67.883      c0-40.951,19.276-79.722,54.276-109.169C113.781,75.21,158.929,59,204.055,59c42.43,0,83.375,12.828,115.293,36.12      c31.557,23.029,52.874,55.069,60.086,90.277c0.228,0.837,0.349,1.719,0.349,2.629c0,5.518-4.468,9.991-9.983,10      c-0.345-0.005-0.674-0.015-1.013-0.048c-5.33-0.523-10.674-0.788-15.883-0.788c-81.067,0-147.021,55.689-147.021,124.142      c0,10.815,1.637,21.562,4.865,31.938c0.957,3.078,0.373,6.428-1.57,8.999c-1.942,2.571-4.999,4.048-8.228,3.969      c-18.535-0.463-37.103-4.987-55.064-9.381l-50.877,27.917C93.503,385.602,91.847,386.008,90.2,386.008z M204.055,79      c-85.722,0-158.143,61.201-158.143,133.643c0,36.732,23.202,74.363,65.33,105.961c3.367,2.525,4.792,6.888,3.566,10.913      l-7.89,25.91l32.753-17.973c2.19-1.202,4.752-1.54,7.178-0.949l3.56,0.87c13.021,3.185,25.513,6.24,37.73,7.81      c-1.5-7.859-2.257-15.839-2.257-23.853c0-38.864,17.398-75.226,48.99-102.386c31.32-26.927,73.237-41.756,118.031-41.756      c1.245,0,2.497,0.014,3.753,0.04C338.237,119.595,276.34,79,204.055,79z" style="fill:#78AB34;"/></g><g><path d="M233.839,155.932c0-9.761,9.76-19.621,24.806-19.621c9.76,0,19.621,9.76,19.621,19.621      c0,10.064-9.76,19.925-19.621,19.925C243.701,175.857,233.839,166.099,233.839,155.932z" style="fill:#FFFFFF;"/><path d="M258.645,185.857c-21.787,0-34.806-15.215-34.806-29.925c0-14.246,13.307-29.621,34.806-29.621      c15.226,0,29.621,14.396,29.621,29.621C288.266,171.594,274.147,185.857,258.645,185.857z M258.645,146.311      c-9.661,0-14.806,5.587-14.806,9.621c0,4.773,5.661,9.925,14.806,9.925c4.406,0,9.621-5.38,9.621-9.925      C268.266,151.616,262.961,146.311,258.645,146.311z" style="fill:#78AB34;"/></g><g><path d="M124.963,155.932c0-9.761,10.067-19.621,24.807-19.621c9.76,0,19.62,9.76,19.62,19.621      c0,10.064-9.761,19.925-19.62,19.925C135.03,175.857,124.863,166.099,124.963,155.932z" style="fill:#FFFFFF;"/><path d="M149.77,185.857c-10.426,0-19.831-3.7-26.483-10.418c-5.438-5.491-8.393-12.454-8.323-19.605      c0-16.234,15.614-29.522,34.806-29.522c15.225,0,29.62,14.396,29.62,29.621C179.39,171.594,165.272,185.857,149.77,185.857z       M149.77,146.311c-9.174,0-14.807,5.604-14.807,9.621c-0.018,1.871,0.882,3.766,2.535,5.435c2.826,2.854,7.299,4.49,12.272,4.49      c4.405,0,9.62-5.38,9.62-9.925C159.39,151.616,154.085,146.311,149.77,146.311z" style="fill:#78AB34;"/></g></g></g></g><g id="Layer_1"/></svg>