<?xml version="1.0" ?><!DOCTYPE svg  PUBLIC '-//W3C//DTD SVG 1.1//EN'  'http://www.w3.org/Graphics/SVG/1.1/DTD/svg11.dtd'><svg height="512px" style="enable-background:new 0 0 512 512;" version="1.1" viewBox="0 0 512 512" width="512px" xml:space="preserve" xmlns="http://www.w3.org/2000/svg" xmlns:xlink="http://www.w3.org/1999/xlink"><g id="comp_x5F_375-whatsapp"><g><g><g><path d="M411.5,98.52C369.974,56.895,314.673,34,255.901,34C134.594,34,35.883,132.712,35.883,254.018      c0,38.75,10.109,76.61,29.336,110.009L34.001,478l116.648-30.624c32.111,17.541,68.284,26.76,105.152,26.76h0.1      c121.209,0,222.098-98.712,222.098-220.018C477.999,195.347,453.026,140.145,411.5,98.52z" style="fill:#2CB742;"/><g><path d="M34.001,488c-2.636,0-5.206-1.043-7.109-2.967c-2.514-2.54-3.48-6.229-2.536-9.675       l30.131-110.008c-18.728-33.964-28.605-72.361-28.605-111.333C25.883,127.186,129.069,24,255.901,24       c61.508,0,119.281,23.957,162.678,67.457c44.767,44.872,69.42,102.64,69.42,162.661c0,61.229-24.353,118.98-68.571,162.616       c-44.045,43.465-102.12,67.401-163.526,67.401c-37.164,0-73.867-9.011-106.507-26.092L36.54,487.672       C35.701,487.893,34.848,488,34.001,488z M150.649,437.376c1.662,0,3.312,0.414,4.794,1.224       c30.582,16.706,65.286,25.536,100.358,25.536c117.051,0,212.197-94.214,212.197-210.018       c0-54.688-22.579-107.439-63.578-148.536C364.803,65.87,312.058,44,255.901,44C140.097,44,45.883,138.213,45.883,254.018       c0,36.882,9.683,73.197,28.002,105.02c1.331,2.312,1.683,5.059,0.978,7.631l-26.639,97.259l99.886-26.223       C148.946,437.484,149.799,437.376,150.649,437.376z" style="fill:#218932;"/></g></g><g><path d="M255.901,437.068c-32.903,0-65.114-8.819-93.161-25.47l-6.64-3.965L86.923,425.77l18.435-67.491      l-4.36-6.937c-18.334-29.139-27.949-62.735-27.949-97.324c0-100.792,82.062-182.852,182.953-182.852      c48.859,0,94.744,19.028,129.235,53.616c34.488,34.588,55.698,80.476,55.599,129.336      C440.835,355.011,356.691,437.068,255.901,437.068z" style="fill:#FFFFFF;"/><g><path d="M255.901,447.068c-34.675,0-68.655-9.292-98.266-26.871l-3.058-1.826l-65.118,17.071       c-3.457,0.904-7.131-0.101-9.644-2.638c-2.512-2.539-3.48-6.225-2.539-9.67l17.277-63.254l-2.022-3.217       c-19.287-30.654-29.483-66.149-29.483-102.646c0-106.339,86.559-192.852,192.953-192.852       c51.537,0,99.948,20.085,136.316,56.555c37.838,37.947,58.619,86.394,58.518,136.417c0,51.345-20.475,99.798-57.653,136.414       C356.177,426.997,307.424,447.068,255.901,447.068z M156.1,397.634c1.79,0,3.563,0.48,5.127,1.414l6.64,3.965       c26.501,15.732,56.95,24.056,88.034,24.056c96.459,0,174.934-77.585,174.934-172.95c0.091-44.697-18.618-88.114-52.68-122.275       c-32.588-32.68-75.97-50.677-122.154-50.677c-95.367,0-172.953,77.541-172.953,172.852c0,32.723,9.133,64.536,26.413,91.999       l4.363,6.939c1.49,2.37,1.918,5.257,1.18,7.957l-13.874,50.794l52.434-13.746C154.399,397.742,155.252,397.634,156.1,397.634z" style="fill:#218932;"/></g></g><g><path d="M356.196,300.103c-5.451-2.772-32.505-16.056-37.561-17.838      c-5.055-1.884-8.721-2.774-12.388,2.775c-3.666,5.55-14.172,17.838-17.444,21.605c-3.171,3.667-6.441,4.161-11.893,1.387      c-32.309-16.153-53.518-28.839-74.825-65.412c-5.649-9.711,5.649-9.018,16.154-30.028c1.784-3.668,0.893-6.839-0.496-9.613      c-1.387-2.775-12.388-29.832-16.946-40.833c-4.46-10.703-9.019-9.217-12.389-9.415c-3.171-0.198-6.839-0.198-10.505-0.198      c-3.667,0-9.612,1.388-14.668,6.838c-5.055,5.551-19.227,18.831-19.227,45.888s19.721,53.222,22.397,56.888      c2.774,3.666,38.752,59.167,93.953,83.052c34.886,15.064,48.564,16.352,66.007,13.775c10.604-1.586,32.508-13.28,37.065-26.165      c4.559-12.882,4.559-23.882,3.171-26.162C365.316,304.166,361.647,302.779,356.196,300.103z" style="fill:#2CB742;"/><g><path d="M313.503,370.025c-0.001,0-0.002,0-0.003,0c-15.019,0-31.028-4.388-57.104-15.647       c-46.994-20.334-81.034-62.005-97.144-85.035c-0.388-0.555-0.664-0.953-0.829-1.176c-0.017-0.022-0.076-0.103-0.092-0.125       l-0.223-0.304c-9-12.264-24.098-36.689-24.098-62.48c0-29.217,14.58-44.841,20.806-51.512c0.375-0.402,0.719-0.771,1.027-1.108       c8.465-9.127,18.247-10.105,22.062-10.105c3.759,0,7.646,0,11.129,0.218c0.112,0.005,0.264,0.003,0.423,0.003l0.465,0       c6.346,0,14.366,1.767,20.107,15.546c1.357,3.274,3.27,7.935,5.331,12.957c4.137,10.081,10.39,25.314,11.34,27.273       c3.193,6.379,3.377,12.591,0.533,18.437c-0.016,0.033-0.032,0.065-0.048,0.098c-5.346,10.693-10.941,16.545-14.643,20.417       c-0.373,0.391-0.782,0.817-1.16,1.223c19.849,33.583,39.759,45.264,70.001,60.384c0.189,0.097,0.362,0.181,0.518,0.254       c4.641-5.37,13.113-15.438,16.004-19.813c4.757-7.199,10.689-8.71,14.829-8.71c3.499,0,6.646,1.054,9.325,2.05       c6.536,2.347,35.813,16.874,38.601,18.285c0.841,0.413,1.638,0.793,2.388,1.151c4.999,2.389,9.724,4.646,12.357,9.592       c3.98,7.332,1.515,22.776-2.545,34.247c-6.371,18.014-32.691,30.876-45.013,32.719       C322.469,369.657,317.916,370.025,313.503,370.025z M174.447,256.199c0.242,0.325,0.643,0.892,1.194,1.68       c25.721,36.772,57.219,64.523,88.69,78.141c26.917,11.623,39.124,14.006,49.17,14.006c0,0,0.001,0,0.002,0       c3.458,0,6.975-0.291,11.403-0.945c8.583-1.284,26.217-11.459,29.099-19.607c2.8-7.91,3.448-14.469,3.419-17.652       c-0.878-0.456-2.011-0.997-3-1.47c-0.826-0.396-1.706-0.815-2.635-1.271c-0.043-0.021-0.084-0.042-0.126-0.063       c-6.862-3.49-32.318-15.898-36.352-17.319c-0.057-0.021-0.112-0.04-0.168-0.062c-0.398-0.148-0.739-0.271-1.031-0.372       c-4.783,6.958-16.406,20.384-17.759,21.94c-3.783,4.375-8.326,6.603-13.488,6.603c-3.275,0-6.706-0.936-10.49-2.861       c-32.841-16.419-56.116-30.133-78.93-69.29c-6.922-11.899,0.315-19.47,4.64-23.994c3.184-3.331,7.139-7.468,11.1-15.321       c-0.057-0.169-0.168-0.454-0.384-0.885c-0.987-1.975-4.329-10.05-11.945-28.605c-2.051-4.998-3.955-9.635-5.297-12.876       c-0.722-1.733-1.313-2.712-1.672-3.221l-0.431,0c-0.001,0-0.003,0-0.005,0c-0.56,0-1.104-0.009-1.629-0.04       c-2.896-0.181-6.465-0.181-9.917-0.181c-0.929,0-4.205,0.262-7.336,3.639c-0.295,0.325-0.695,0.753-1.13,1.22       c-5.392,5.778-15.428,16.532-15.428,37.867c0,14.675,7.371,33.135,20.222,50.647L174.447,256.199z" style="fill:#218932;"/></g></g></g></g></g><g id="Layer_1"/></svg>