<?xml version="1.0" ?><!DOCTYPE svg  PUBLIC '-//W3C//DTD SVG 1.1//EN'  'http://www.w3.org/Graphics/SVG/1.1/DTD/svg11.dtd'><svg height="512px" style="enable-background:new 0 0 512 512;" version="1.1" viewBox="0 0 512 512" width="512px" xml:space="preserve" xmlns="http://www.w3.org/2000/svg" xmlns:xlink="http://www.w3.org/1999/xlink"><g id="comp_x5F_377-wikipedia-w"><g><g><g><path d="M485.999,108.851l-0.214,8.767c-20.193,0.576-32.341,11.355-40.101,28.962      c-17.966,41.538-74.235,172.472-111.604,257.703h-9.773l-58.857-138.77c-23.355,45.705-49.082,93.424-71.287,138.77      c-0.216,0.216-10.78,0-10.78-0.216c-33.704-78.835-69.06-157.094-102.837-236.145c-8.191-19.187-35.5-50.304-54.328-50.088      c0-2.228-0.216-7.186-0.216-10.205h116.347v9.989c-13.797,0.79-37.943,9.558-31.117,24.577      c15.738,35.716,74.451,172.688,90.26,207.399c10.78-21.344,41.538-78.475,54.114-102.622      c-9.988-20.336-42.112-96.225-52.317-114.981c-6.971-12.792-25.942-13.941-40.1-14.157v-9.989l102.406,0.216v9.414      c-13.941,0.432-27.379,5.605-21.127,18.756c13.581,28.746,21.989,48.939,34.566,75.241c4.024-7.762,24.938-49.873,34.566-72.439      c6.397-14.803-2.804-20.553-27.739-21.126c0.215-2.588,0-7.402,0.215-9.775c31.908-0.215,79.842-0.215,88.465-0.431v9.773      c-16.17,0.575-32.913,9.198-41.753,22.781l-42.542,88.249c4.598,11.571,45.488,102.62,49.727,112.612l87.963-203.088      c-6.18-16.601-26.158-20.194-33.92-20.338v-9.989l91.842,0.79L485.999,108.851z" style="fill:#FFFFFF;"/><path d="M191.834,409.372c-1.626,0-3.766-0.038-5.582-0.099c-2.822-0.094-6.944-0.231-7.736-3.868      c-16.666-38.972-34.023-78.46-50.813-116.658c-17.09-38.883-34.763-79.09-51.756-118.86      c-7.75-18.153-33.565-47.054-49.535-47.054l-0.138,0c-1.311,0.013-2.622-0.504-3.572-1.444c-0.95-0.939-1.485-2.22-1.485-3.556      c0-0.996-0.045-2.556-0.094-4.234c-0.06-2.102-0.122-4.276-0.122-5.971c0-2.761,2.239-5,5-5h116.347c2.761,0,5,2.239,5,5v9.989      c0,2.65-2.068,4.84-4.714,4.992c-9.905,0.567-22.981,5.265-26.661,11.354c-1.18,1.954-1.239,3.855-0.19,6.163      c5.994,13.601,17.935,41.228,31.762,73.218c20.052,46.391,42.455,98.221,54.247,124.718      c7.101-13.677,17.563-33.356,27.75-52.519c7.89-14.841,15.374-28.918,20.467-38.657c-4.465-9.359-12.035-26.5-20.012-44.563      c-11.85-26.833-25.281-57.245-31.102-67.943c-5.327-9.776-21.078-11.323-35.784-11.547c-2.731-0.042-4.924-2.268-4.924-5v-9.989      c0-1.328,0.528-2.602,1.468-3.54c0.938-0.935,2.208-1.46,3.532-1.46c0.003,0,0.007,0,0.011,0l102.406,0.216      c2.757,0.006,4.989,2.243,4.989,5v9.414c0,2.701-2.146,4.914-4.845,4.998c-8.61,0.267-15.403,2.454-17.307,5.572      c-0.324,0.531-1.311,2.147,0.54,6.041c6.574,13.916,11.941,25.834,17.13,37.361c4.316,9.585,8.449,18.764,13.067,28.64      c7.826-15.7,22.284-45.353,29.82-63.015c1.705-3.945,2.016-6.792,0.934-8.48c-1.521-2.375-6.953-5.289-24.189-5.685      c-1.377-0.032-2.681-0.63-3.603-1.655c-0.921-1.025-1.379-2.384-1.265-3.757c0.09-1.087,0.09-2.85,0.09-4.555      c0-1.978,0-3.846,0.128-5.258c0.232-2.563,2.372-4.531,4.946-4.549c14.029-0.094,31.368-0.148,46.667-0.195      c19.814-0.061,36.927-0.114,41.706-0.234c1.34-0.037,2.65,0.478,3.616,1.419c0.965,0.941,1.509,2.232,1.509,3.58v9.773      c0,2.692-2.132,4.901-4.822,4.997c-14.824,0.527-29.878,8.653-37.57,20.252l-41.43,85.942      c4.385,10.452,19.6,44.619,32.004,72.47c4.723,10.605,9.073,20.374,12.219,27.473l82.556-190.605      c-5.652-11.745-20.945-15.173-28.574-15.315c-2.725-0.05-4.907-2.274-4.907-4.999v-9.989c0-1.333,0.532-2.612,1.479-3.551      c0.946-0.939,2.252-1.468,3.563-1.449l91.842,0.79c2.031,0.018,3.85,1.262,4.602,3.148l0.144,0.36      c0.25,0.627,0.37,1.298,0.354,1.974l-0.214,8.767c-0.064,2.658-2.198,4.8-4.855,4.876c-16.732,0.477-28.066,8.732-35.668,25.98      c-4.133,9.556-10.321,23.908-17.847,41.361c-24.313,56.388-65.006,150.764-93.754,216.333c-0.797,1.818-2.594,2.992-4.579,2.992      h-9.773c-2.007,0-3.819-1.2-4.604-3.048L265.02,277.306c-7.081,13.759-14.381,27.755-21.485,41.374      c-15.164,29.072-30.844,59.135-44.882,87.802c-0.244,0.497-0.568,0.95-0.96,1.341      C196.14,409.372,194.519,409.372,191.834,409.372z M187.935,401.996c0.015,0.036,0.029,0.068,0.045,0.104      c0.266,0.621,0.402,1.29,0.402,1.966C188.382,403.309,188.216,402.612,187.935,401.996z M186.775,399.285      c1.276,0.041,2.827,0.073,4.229,0.083c13.748-27.957,28.948-57.099,43.664-85.313c8.74-16.757,17.778-34.084,26.329-50.818      c0.884-1.729,2.707-2.778,4.63-2.722c1.941,0.069,3.667,1.257,4.426,3.045l57.564,135.722h3.195      c28.651-65.393,68.478-157.76,92.418-213.284c7.527-17.458,13.717-31.813,17.865-41.403      c7.963-18.069,19.904-28.326,36.368-31.176l-78.45-0.675v0.315c11.473,1.458,27.74,7.467,33.605,23.224      c0.45,1.209,0.416,2.547-0.098,3.731l-87.963,203.088c-0.792,1.829-2.596,3.013-4.588,3.013c-0.006,0-0.013,0-0.019,0      c-2-0.008-3.804-1.206-4.585-3.048c-1.6-3.772-8.636-19.571-16.782-37.863c-13.413-30.12-30.107-67.605-32.987-74.854      c-0.517-1.3-0.465-2.757,0.143-4.018l42.542-88.249c0.093-0.192,0.197-0.377,0.313-0.556      c8.646-13.284,24.349-22.631,40.943-24.668v-0.086c-7.708,0.073-21.445,0.116-36.801,0.163      c-13.564,0.042-28.737,0.089-41.771,0.165c0,0.001,0,0.002,0,0.004c14.975,0.861,23.506,4.035,27.386,10.089      c2.987,4.661,2.933,10.657-0.164,17.822c-9.636,22.583-30.463,64.55-34.718,72.757c-0.86,1.66-2.573,2.699-4.438,2.699      c-0.026,0-0.054,0-0.081,0c-1.896-0.031-3.611-1.131-4.43-2.842c-6.536-13.669-11.875-25.526-17.527-38.079      c-5.171-11.485-10.519-23.362-17.049-37.184c-3.444-7.245-1.922-12.447-0.039-15.533c3.82-6.257,11.917-8.795,18.838-9.788      l-90.557-0.19v0.086c12.458,0.415,31.768,2.486,39.49,16.656c6.019,11.063,19.539,41.676,31.467,68.686      c8.638,19.56,16.797,38.035,20.948,46.484c0.701,1.427,0.681,3.103-0.054,4.514c-5.094,9.782-13.145,24.924-21.667,40.956      c-12.792,24.062-26.02,48.943-32.418,61.61c-0.867,1.717-2.661,2.805-4.563,2.745c-1.923-0.039-3.653-1.177-4.45-2.927      c-9.839-21.604-35.731-81.505-58.575-134.354c-13.819-31.972-25.755-59.584-31.71-73.101c-2.395-5.27-2.141-10.62,0.759-15.419      c5.543-9.174,19.722-14.08,29.934-15.653v-0.51H31.1c0.006,0.229,0.013,0.456,0.019,0.679      c21.475,4.199,46.58,35.215,54.024,52.651c16.972,39.722,34.634,79.904,51.715,118.764      C153.343,322.229,170.376,360.98,186.775,399.285z"/></g></g></g></g><g id="Layer_1"/></svg>