<?xml version="1.0" ?><!DOCTYPE svg  PUBLIC '-//W3C//DTD SVG 1.1//EN'  'http://www.w3.org/Graphics/SVG/1.1/DTD/svg11.dtd'><svg height="512px" style="enable-background:new 0 0 512 512;" version="1.1" viewBox="0 0 512 512" width="512px" xml:space="preserve" xmlns="http://www.w3.org/2000/svg" xmlns:xlink="http://www.w3.org/1999/xlink"><g id="comp_x5F_380-wix"><g><g><g><path d="M305.112,168.036c0,8.496,1.355,21.315-18.701,28.579c-6.208,2.25-10.399,6.299-10.399,6.299      c0-20.214,3.076-27.53,11.345-31.86C293.715,167.723,305.112,168.036,305.112,168.036z"/><path d="M276.005,212.951c-1.323,0-2.659-0.263-3.93-0.803c-3.694-1.568-6.063-5.221-6.063-9.234      c0-20.248,2.733-33.402,16.705-40.719c6.921-3.625,16.507-4.167,21.604-4.167c0.682,0,1.065,0.012,1.065,0.012      c5.403,0.163,9.726,4.591,9.726,9.996c0,0.464,0.005,0.942,0.009,1.432c0.08,8.86,0.246,27.296-25.305,36.549      c-3.995,1.448-6.889,4.12-6.917,4.147C281.006,211.993,278.528,212.951,276.005,212.951z M293.945,179.189      c-0.788,0.219-1.45,0.461-1.948,0.722c-1.496,0.784-3.098,1.622-4.268,5.243C291.094,183.357,292.938,181.405,293.945,179.189z"/></g><g><path d="M208.382,204.907l-22.327,86.5l-18.569-70.792c-5.016-20.858-13.568-31.644-31.579-31.644      c-17.847,0-26.512,10.55-31.579,31.644L85.76,291.407l-22.327-86.5c-3.619-17.422-20.486-24.953-36.044-22.997l42.755,161.66      c0,0,14.104,1.018,21.165-2.582c9.272-4.727,13.68-8.372,19.294-30.365c5.001-19.607,18.98-77.208,20.292-81.309      c3.104-9.742,7.23-9.005,10.041,0c1.284,4.108,15.291,61.702,20.292,81.309c5.606,21.993,10.021,25.639,19.293,30.365      c7.056,3.6,21.165,2.582,21.165,2.582l42.755-161.66C228.517,179.909,211.955,187.733,208.382,204.907L208.382,204.907z" style="fill:#FFFFFF;"/><path d="M197.163,353.703c-0.001,0-0.001,0-0.001,0c-9.106,0-16.233-1.281-21.185-3.808      c-12.771-6.51-18.384-13.049-24.439-36.803c-2.193-8.597-6.117-24.494-9.912-39.868c-1.864-7.553-3.928-15.915-5.717-23.117      c-1.857,7.479-4.018,16.242-5.965,24.139c-3.69,14.965-7.505,30.438-9.65,38.849c-6.064,23.757-11.676,30.295-24.442,36.803      c-4.953,2.525-12.081,3.806-21.183,3.806c-2.958,0-5.017-0.143-5.242-0.159c-4.261-0.307-7.856-3.287-8.948-7.417      l-42.755-161.66c-0.738-2.788-0.235-5.759,1.378-8.15c1.613-2.391,4.18-3.969,7.042-4.329c2.006-0.252,4.05-0.38,6.075-0.38      c20.552,0,36.977,12.453,40.956,31.015l12.667,49.074l8.792-33.519c4.063-16.863,12.777-39.207,41.278-39.207      c28.491,0,37.208,22.341,41.276,39.202l8.793,33.522l12.667-49.076c3.984-18.563,20.392-31.016,40.912-31.016      c2.039,0,4.102,0.129,6.131,0.384c2.861,0.36,5.429,1.938,7.042,4.329c1.613,2.391,2.116,5.362,1.378,8.15l-42.755,161.66      c-1.092,4.13-4.687,7.11-8.948,7.417C202.18,353.561,200.121,353.703,197.163,353.703z M135.92,212.281      c4.642,0,10.936,2.438,14.561,14.054c0.733,2.344,3.935,15.249,10.562,42.097c3.786,15.337,7.7,31.196,9.875,39.72      c4.898,19.214,7.605,20.594,14.145,23.928c1.215,0.62,4.194,1.325,8.909,1.551l37.209-140.692      c-5.96,1.973-11.404,6.296-13.007,14.006c-0.032,0.155-0.068,0.309-0.108,0.462l-22.327,86.5      c-1.138,4.408-5.11,7.492-9.663,7.501c-0.006,0-0.013,0-0.02,0c-4.545,0-8.519-3.065-9.673-7.463l-18.569-70.792      c-0.017-0.066-0.034-0.133-0.05-0.199c-4.823-20.057-11.666-23.981-21.856-23.981c-10.194,0-17.038,3.924-21.855,23.979      c-0.016,0.067-0.033,0.135-0.051,0.202l-18.569,70.792c-1.154,4.397-5.128,7.463-9.673,7.463c-0.006,0-0.013,0-0.02,0      c-4.553-0.009-8.525-3.092-9.663-7.501l-22.327-86.5c-0.04-0.154-0.076-0.31-0.108-0.465      c-1.613-7.764-6.958-12.096-13.005-14.048L77.858,333.63c4.714-0.227,7.693-0.932,8.908-1.551      c6.536-3.331,9.24-4.71,14.146-23.93c2.125-8.331,5.931-23.766,9.611-38.691c6.791-27.542,10.075-40.781,10.845-43.19      C125.052,214.709,131.315,212.281,135.92,212.281z"/></g><g><path d="M305.099,217.377c0,0-2.673,3.857-8.775,7.04c-3.92,2.044-7.683,3.43-11.719,5.238      c-9.872,4.417-8.593,8.487-8.593,21.415v92.518c0,0,10.791,1.272,17.846-2.087c9.082-4.32,11.17-8.486,11.255-27.244v-91.421      l-0.014,0.006V217.377L305.099,217.377z" style="fill:#FFFFFF;"/><path d="M280.863,353.823c-3.337,0-5.757-0.273-6.022-0.305c-5.035-0.594-8.829-4.861-8.829-9.932v-92.518      c0-1.384-0.016-2.664-0.029-3.851c-0.122-10.327-0.237-20.081,14.538-26.692c1.44-0.646,2.852-1.241,4.247-1.83      c2.422-1.022,4.71-1.988,6.933-3.147c3.232-1.686,4.879-3.53,5.241-3.966c2.376-3.717,6.786-5.241,11.042-4.024      c4.291,1.228,7.115,5.354,7.115,9.818v4.936c0.009,0.173,0.014,0.347,0.014,0.522v91.421      c-0.09,19.948-2.467,29.381-16.959,36.274C293.565,352.715,287.747,353.823,280.863,353.823z M286.16,240.151      c-0.246,1.181-0.209,4.292-0.179,6.831c0.015,1.26,0.03,2.618,0.03,4.087v82.381c1.452-0.231,2.676-0.564,3.546-0.979      c4.432-2.108,5.483-2.608,5.555-18.261v-78.182c-0.867,0.375-1.723,0.736-2.569,1.093c-1.264,0.533-2.543,1.072-3.851,1.658      C287.176,239.459,286.459,239.927,286.16,240.151z"/></g><g><path d="M430.36,263.129l54.251-80.684c0,0-22.893-3.899-34.231,6.423      c-8.671,7.889-15.917,19.268-35.327,47.253c-0.307,0.475-4.075,6.873-8.522,0c-19.099-27.537-26.604-39.312-35.327-47.253      c-11.34-10.322-34.233-6.423-34.233-6.423l54.25,80.684l-54.1,80.434c0,0,23.844,3.014,35.177-7.309      c7.492-6.82,11.463-13.281,34.238-46.111c4.442-6.858,8.197-0.502,8.523,0c19.17,27.632,25.58,37.857,34.649,46.111      c11.339,10.322,34.767,7.309,34.767,7.309L430.36,263.129L430.36,263.129z" style="fill:#FFFFFF;"/><path d="M476.704,353.972c-0.001,0-0.001,0-0.002,0c-10.213,0-24.354-1.791-33.726-10.323      c-8.476-7.713-14.566-16.547-27.909-35.902c-1.344-1.948-2.764-4.01-4.272-6.193c-1.849,2.672-3.557,5.144-5.14,7.434      c-15.307,22.149-19.421,28.103-26.627,34.662c-9.367,8.532-23.664,10.323-34.008,10.323c-5.141,0-8.759-0.438-9.154-0.488      c-3.443-0.435-6.415-2.624-7.851-5.784s-1.13-6.838,0.807-9.718l50.347-74.854l-50.498-75.103      c-1.894-2.816-2.229-6.401-0.892-9.521c1.337-3.119,4.165-5.347,7.511-5.917c1.271-0.216,27.67-4.746,42.645,8.886      c8.189,7.456,15,17.335,28.569,37.018c1.355,1.966,2.782,4.036,4.288,6.216c1.515-2.193,2.948-4.272,4.309-6.245      c13.998-20.299,20.387-29.564,28.55-36.99c7.005-6.377,17.721-9.749,30.986-9.749c6.396,0,11.135,0.776,11.653,0.864      c3.346,0.57,6.175,2.798,7.512,5.917c1.338,3.12,1.002,6.704-0.892,9.521l-50.498,75.102l50.359,74.854      c1.936,2.876,2.242,6.55,0.813,9.708c-1.431,3.157-4.395,5.35-7.833,5.792C485.36,353.531,481.787,353.972,476.704,353.972z       M355.794,192.52l43.725,65.029c2.269,3.375,2.269,7.787-0.001,11.161l-43.178,64.195c4.063-0.868,7.245-2.243,9.224-4.044      c5.518-5.023,8.996-10.058,23.639-31.245c2.641-3.821,5.628-8.145,9.038-13.061c4.338-6.587,9.712-7.576,12.543-7.576      c4.897,0,9.482,2.775,12.601,7.62c3.012,4.342,5.709,8.253,8.149,11.795c12.822,18.599,18.129,26.296,24.905,32.464      c1.917,1.744,4.934,3.09,8.756,3.962l-43.131-64.109c-2.271-3.374-2.271-7.787-0.002-11.162l43.726-65.029      c-3.794,0.758-6.799,2.035-8.676,3.743c-6.464,5.881-12.443,14.553-25.546,33.553c-2.47,3.582-5.18,7.512-8.182,11.84      c-3.086,4.834-7.683,7.627-12.605,7.628c-2.831,0-8.208-0.988-12.544-7.577c-3.002-4.33-5.718-8.269-8.197-11.865      c-12.7-18.423-19.075-27.67-25.566-33.58C362.594,194.554,359.589,193.277,355.794,192.52z"/></g></g></g></g><g id="Layer_1"/></svg>