<?xml version="1.0" ?><!DOCTYPE svg  PUBLIC '-//W3C//DTD SVG 1.1//EN'  'http://www.w3.org/Graphics/SVG/1.1/DTD/svg11.dtd'><svg height="512px" style="enable-background:new 0 0 512 512;" version="1.1" viewBox="0 0 512 512" width="512px" xml:space="preserve" xmlns="http://www.w3.org/2000/svg" xmlns:xlink="http://www.w3.org/1999/xlink"><g id="comp_x5F_385-wpforms"><g><g><g><path d="M485.947,70.348v371.304c0,24.947-19.504,44.348-44.347,44.348H70.399      c-24.536-0.103-44.347-19.194-44.347-44.45V70.348c0-24.74,19.298-44.347,44.347-44.347h371.305      C466.341,26.001,485.947,45.3,485.947,70.348L485.947,70.348z" style="fill:#7EAABA;"/><g><path d="M441.601,495.999H70.399c-30.493-0.127-54.347-24.045-54.347-54.45V70.348       c0-30.475,23.872-54.347,54.347-54.347h371.305c30.417,0,54.243,23.872,54.243,54.347v371.304       C495.947,472.127,472.075,495.999,441.601,495.999z M70.399,36.001c-19.26,0-34.347,15.087-34.347,34.347v371.201       c0,19.237,15.105,34.37,34.389,34.45h371.159c19.26,0,34.347-15.087,34.347-34.348V70.348c0-19.26-15.041-34.347-34.243-34.347       H70.399z" style="fill:#001C1D;"/></g></g><g><path d="M447.658,441.549V70.348c0-3.079-2.67-5.954-5.954-5.954h-9.548l-113.229,76.58L256.001,89.75      l-62.827,51.224L79.947,64.292h-9.547c-3.286,0-5.955,2.874-5.955,5.953v371.304c0,3.081,2.669,5.955,5.955,5.955h371.305      C444.988,447.606,447.658,444.732,447.658,441.549L447.658,441.549z" style="fill:#FFFFFF;"/><g><path d="M441.875,457.507C441.874,457.507,441.874,457.507,441.875,457.507       c-0.096,0-0.19-0.001-0.286-0.003H70.399c-8.648,0-15.955-7.307-15.955-15.955V70.245c0-8.647,7.307-15.953,15.955-15.953       h9.547c1.999,0,3.952,0.599,5.607,1.72l107.067,72.51L249.682,82c3.676-2.997,8.953-3,12.632-0.005l57.164,46.534       L426.554,56.11c1.654-1.119,3.605-1.717,5.603-1.717h9.548c8.648,0,15.954,7.306,15.954,15.954v371.201       c0,4.11-1.579,8.033-4.445,11.046C450.242,455.716,446.109,457.507,441.875,457.507z M74.444,437.504h363.214V74.394h-2.438       l-110.691,74.863c-3.654,2.471-8.493,2.257-11.916-0.528l-56.607-46.081l-56.512,46.076c-3.423,2.791-8.271,3.006-11.927,0.529       L76.879,74.292h-2.435V437.504z" style="fill:#001C1D;"/></g></g><g><rect height="37.983" style="fill:#0399ED;" width="75.452" x="104.789" y="184.09"/><g><path d="M180.241,232.073h-75.452c-5.523,0-10-4.477-10-10V184.09c0-5.523,4.477-10,10-10h75.452       c5.523,0,10,4.477,10,10v37.983C190.241,227.596,185.764,232.073,180.241,232.073z M114.789,212.073h55.452V194.09h-55.452       V212.073z" style="fill:#001C1D;"/></g></g><g><rect height="38.292" style="fill:#0399ED;" width="75.452" x="104.789" y="260.465"/><g><path d="M180.241,308.757h-75.452c-5.523,0-10-4.478-10-10v-38.292c0-5.523,4.477-10,10-10h75.452       c5.523,0,10,4.477,10,10v38.292C190.241,304.279,185.764,308.757,180.241,308.757z M114.789,288.757h55.452v-18.292h-55.452       V288.757z" style="fill:#001C1D;"/></g></g><g><polygon points="191.635,109.256 247.068,64.394 125.422,64.394     " style="fill:#FFFFFF;"/><g><path d="M191.634,119.256c-1.952,0-3.909-0.57-5.608-1.721l-66.212-44.862       c-3.637-2.464-5.239-7.013-3.951-11.212c1.289-4.2,5.167-7.066,9.56-7.066h121.646c4.236,0,8.013,2.669,9.427,6.663       c1.414,3.994,0.157,8.445-3.136,11.11l-55.434,44.862C196.098,118.508,193.869,119.256,191.634,119.256z M158.009,74.394       l33.097,22.425l27.709-22.425H158.009z" style="fill:#001C1D;"/></g></g><g><rect height="37.983" style="fill:#0399ED;" width="201.204" x="206.007" y="184.09"/><g><path d="M407.211,232.073H206.007c-5.523,0-10-4.477-10-10V184.09c0-5.523,4.477-10,10-10h201.204       c5.522,0,10,4.477,10,10v37.983C417.211,227.596,412.733,232.073,407.211,232.073z M216.007,212.073h181.204V194.09H216.007       V212.073z" style="fill:#001C1D;"/></g></g><g><rect height="38.292" style="fill:#0399ED;" width="201.204" x="206.007" y="260.465"/><g><path d="M407.211,308.757H206.007c-5.523,0-10-4.478-10-10v-38.292c0-5.523,4.477-10,10-10h201.204       c5.522,0,10,4.477,10,10v38.292C417.211,304.279,412.733,308.757,407.211,308.757z M216.007,288.757h181.204v-18.292H216.007       V288.757z" style="fill:#001C1D;"/></g></g><g><polygon points="320.364,109.256 386.578,64.394 265.033,64.394 320.364,109.256     " style="fill:#FFFFFF;"/><g><path d="M320.365,119.256c-2.238,0-4.471-0.75-6.299-2.232l-55.331-44.862       c-3.29-2.667-4.542-7.117-3.127-11.108c1.415-3.992,5.19-6.659,9.425-6.659h121.545c4.393,0,8.271,2.867,9.56,7.066       c1.289,4.2-0.313,8.749-3.95,11.212l-66.214,44.862C324.274,118.686,322.317,119.256,320.365,119.256z M293.245,74.394       l27.653,22.421l33.092-22.421H293.245z" style="fill:#001C1D;"/></g></g><g><rect height="38.291" style="fill:#0399ED;" width="102.039" x="305.172" y="337.047"/><g><path d="M407.211,385.338H305.172c-5.522,0-10-4.478-10-10v-38.291c0-5.522,4.478-10,10-10h102.039       c5.522,0,10,4.478,10,10v38.291C417.211,380.86,412.733,385.338,407.211,385.338z M315.172,365.338h82.039v-18.291h-82.039       V365.338z" style="fill:#001C1D;"/></g></g></g></g></g><g id="Layer_1"/></svg>