<?xml version="1.0" ?><!DOCTYPE svg  PUBLIC '-//W3C//DTD SVG 1.1//EN'  'http://www.w3.org/Graphics/SVG/1.1/DTD/svg11.dtd'><svg height="512px" style="enable-background:new 0 0 512 512;" version="1.1" viewBox="0 0 512 512" width="512px" xml:space="preserve" xmlns="http://www.w3.org/2000/svg" xmlns:xlink="http://www.w3.org/1999/xlink"><g id="comp_x5F_395-youtube"><g><g><g><path d="M476.387,144.888c-5.291-19.919-20.878-35.608-40.67-40.933      C399.845,94.282,256,94.282,256,94.282s-143.845,0-179.718,9.674c-19.792,5.325-35.378,21.013-40.669,40.933      c-9.612,36.105-9.612,111.438-9.612,111.438s0,75.334,9.612,111.438c5.291,19.92,20.877,34.955,40.669,40.281      C112.155,417.719,256,417.719,256,417.719s143.845,0,179.717-9.674c19.792-5.326,35.379-20.361,40.67-40.281      c9.612-36.104,9.612-111.438,9.612-111.438S485.999,180.994,476.387,144.888z" style="fill:#FFFFFF;"/><g><path d="M256,427.719c-5.928,0-145.592-0.114-182.321-10.019c-23.347-6.283-41.638-24.435-47.73-47.369       c-9.834-36.938-9.947-110.875-9.947-114.005c0-3.129,0.113-77.065,9.949-114.011c6.206-23.363,24.497-41.764,47.734-48.017       C110.408,84.396,250.072,84.282,256,84.282S401.592,84.396,438.32,94.3c23.231,6.25,41.523,24.65,47.731,48.021       c9.834,36.94,9.947,110.876,9.947,114.005c0,3.13-0.113,77.067-9.949,114.01c-6.09,22.93-24.382,41.081-47.734,47.365       C401.592,427.604,261.928,427.719,256,427.719z M256,104.282c-1.425,0-142.922,0.108-177.114,9.329       c-16.355,4.4-29.231,17.369-33.607,33.845c-9.165,34.423-9.277,108.13-9.277,108.871c0,0.74,0.113,74.449,9.275,108.864       c4.328,16.292,16.889,28.7,33.604,33.198c34.197,9.222,175.694,9.33,177.119,9.33c1.425,0,142.923-0.108,177.113-9.329       c16.721-4.5,29.283-16.908,33.608-33.193c9.165-34.421,9.277-108.13,9.277-108.871c0-0.74-0.112-74.447-9.275-108.865       c-4.378-16.482-17.254-29.45-33.604-33.849C398.923,104.39,257.425,104.282,256,104.282z" style="fill:#FF0000;"/></g></g><g><polygon points="208.954,324.723 208.954,187.93 329.18,256.328     " style="fill:#FFFFFF;"/><g><path d="M208.954,334.723c-1.737,0-3.474-0.452-5.027-1.355c-3.079-1.791-4.973-5.083-4.973-8.645       V187.93c0-3.562,1.894-6.854,4.973-8.645c3.078-1.79,6.876-1.809,9.972-0.047l120.226,68.398       c3.125,1.778,5.055,5.097,5.055,8.692c0,3.596-1.931,6.914-5.056,8.692l-120.225,68.395       C212.365,334.287,210.66,334.723,208.954,334.723z M218.954,205.125v102.405l90.002-51.201L218.954,205.125z" style="fill:#FF0000;"/></g></g></g></g></g><g id="Layer_1"/></svg>