<?xml version="1.0" encoding="UTF-8"?>
<svg id="a" data-name="Ebene 1" xmlns="http://www.w3.org/2000/svg" viewBox="0 0 510.5 510.5">
  <g id="b" data-name="g13237">
    <circle cx="255.25" cy="255.25" r="254.75" fill="#006233" stroke="#006233" stroke-miterlimit="10"/>
    <g id="c" data-name="g9244">
      <path id="d" data-name="path3159" d="M136.49,271.15c-18.5,28.45-5.14,46.95,13.93,48.27,12.57.95,38.72-18.21,38.65-40.74l-7.14-4.1c4,11.56-.14,15.21-8.64,23.11-16.79,15.58-51.08,16.67-36.79-26.55Z" fill="#fff" fill-rule="evenodd" stroke="#fff" stroke-width=".4"/>
      <path id="e" data-name="path3115" d="M283.17,345.75c104.17,3,137.32-100.19,73.02-188.54l-6.36,9.73c4.14,41.17,10.15,81.76,10.72,123.96-12.57,15.14-30.86,9.51-34.51-7.31.21-22.82-7.07-42.12-16.29-60.55l-5.14,9.73c6,15.14,12.5,32.18,13.86,50.83-29.72,36.49-62.59,43.88-50.37-4.1-23.51,42.05,12.07,71.67,52.37,6.95,8.64,44.17,42.08,16.75,44.08,7.24,3.64-28.96,1.79-75.62-5.57-112.48,29.01,51.41,30.01,88.49,14.57,113.28-17.15,27.57-54.44,40.44-90.38,51.27h0Z" fill="#fff" fill-rule="evenodd" stroke="#fff"/>
      <path id="f" data-name="path3117" d="M342.26,229.1c-22.29,1.68-33.72-3-21.65-19.89,11.93-16.53,23.08-3.36,26.08,18.72,2.79,20.7-39.15,47.1-53.66,47.1-21.93,0-32.08-28.89-11.86-54.85-26.01,75.77,56.16,31.81,61.09,8.92ZM326.83,211.55c-2.71-.15-4.72,4.75-3.36,5.7,3.93,2.78,10.15,1.1,10.79-.29,1.36-3.07-3.64-5.27-7.43-5.41h0Z" fill="#fff" fill-rule="evenodd" stroke="#fff"/>
      <path id="g" data-name="path3140" d="M221.23,264.86c-21.43,43.15-.07,60.99,27.44,56.02,16-3,36.29-14.63,48.01-30.5.21-34.96-.29-69.62-3.29-103.48,10.72-13.09-.93-13.02-5-27.06-1.86,8.19-6.36,17.04-2,23.4,3.07,34.15,4.79,68.75,4.72,104-21.58,17.77-37.79,24.35-49.37,24.21-23.93-.22-29.08-20.84-20.5-46.59h0Z" fill="#fff" fill-rule="evenodd" stroke="#fff"/>
      <path id="h" data-name="path3150" d="M265.03,276.27c-.36-32.54-.86-69.48-3.72-92.22,11.15-12.65-.57-12.94-4.22-27.13-2.14,8.04-6.86,16.82-2.71,23.33,1.86,34.81,3.64,69.62,4,104.43,2.57-1.68,5.5-2.34,6.64-8.41h0Z" fill="#fff" fill-rule="evenodd" stroke="#fff"/>
      <path id="i" data-name="path3152" d="M181.86,274.74c-2.71-3.51-4.64-7.46-6.86-10.9-.36-4.9,2.86-9.43,3.29-11.92,3.64,5.78,5.79,10.17,8.72,13.02M190.86,267.2c5.36,2.19,11.93,2.19,18,2.34,23.43.44,48.08-3.51,45.44,28.96-2.29,28.81-25.65,45.49-46.58,45.27-29.79-.29-55.23-33.93-9.29-95.88,4.43-.73,10.22.51,15,.95,8.22.66,16.65-.15,26.29-8.04-1.14-20.4-1.14-39.71-3.57-58.14-4.14-6.51.57-15.21,2.71-23.33,3.64,14.19,15.29,14.48,4.22,27.21,2.64,20.48,2.93,41.32,2.93,53.75-5.57,8.7-9.93,17.92-26.22,21.43-16.65-2.49-24.15-26.33-41.51-18.43,4.79-21.5,48.87-26.4,53.3-9.43-2.93,17.7-44.08,10.6-55.01,67.79-3.36,17.63,14.79,33.86,33.44,32.54,18.22-1.24,37.65-14.19,39.58-35.98,1.5-18.21-23.58-16.09-34.08-15.87-15.29.37-24.93-2.05-30.72-5.48M200.44,237.44c2.71-2.63,12.22-4.46,15.65-.22-2.57,1.76-5.07,3.66-7.14,5.92-3.57-1.9-5.93-3.8-8.5-5.7Z" fill="#fff" fill-rule="evenodd" stroke="#fff" stroke-width=".4"/>
      <path id="j" data-name="path3161" d="M223.73,176.96c2.57,5.85,3.64,9.73,3.79,15.36-1.57,7.61-7.93,14.7-14.5,14.92-4.07.15-8.64-1.02-11.86-7.53-.36-.8-2.07-2.71-3.72-1.83-7.22,12.14-12.57,17.26-19.08,17.19-13-.22-9.15-12.07-21.15-15.72-5-.15-13.22,5.05-17.43,15.21-16,46.44-30.58-.15-24.36-21.79.93,20.7,5.79,32.98,10.79,32.62,3.64-.37,6.86-9,11.5-18.06,3.57-6.95,12.15-19.45,21.22-19.45,8.29.22,3.07,15.8,19.65,15.58,8-.15,15.36-6.44,22.79-19.01,1.64-.29,2.07,2.71,2.43,3.73,1.14,4.31,8.43,16.16,18.29,5.34-.5-2.34-.29-6.22-2.79-7.02l4.43-9.51Z" fill="#fff" fill-rule="evenodd" stroke="#fff"/>
      <path id="k" data-name="path3163" d="M275.81,138.49c-8.79,4.46-15.22.37-18.86-3.58,6.36-1.32,11.29-3.66,12.72-8.78-2.86-6.58-9.65-9.43-19.22-9.51-12.79.37-19.36,5.63-20.15,12.87,5.93.22,11.29-1.46,13.57,4.39-10.5,5.27-22.86,7.17-36.29,7.09-22.01,1.17-25.22-9-31.01-17.92-.43-.59-2.36-1.54-3.36-1.39-6.79,0-11.79,24.28-19.43,24.21-7.64-1.02-5.93-15.65-8.14-23.99-1.86,13.09,2.36,61.8,26.01,8.92.71-1.76,1.71-1.24,2.36.22,6.36,14.77,19.29,19.89,33.22,20.62,11.65.66,26.51-4.53,42.44-13.75,4.22,4.75,7.57,10.17,16.43,11.19,10.36.51,21.43-7.17,23.93-16.67,1.29-4.9,1.5-14.55-3.57-14.7-7.07-.22-12.22,17.33-10.57,33.13.14-.22.93-3.95.93-3.95M245.52,125.84c4.64-2.19,9.15-3.22,12.72,1.61-2.79,1.02-4.5,1.68-6,2.93-2-1.61-4.72-2.41-6.72-4.53ZM279.67,136.73c1.14-5.19,1.79-9.36,5.93-12.07.86,5.48,1,8.56-5.93,12.07Z" fill="#fff" fill-rule="evenodd" stroke="#fff" stroke-width=".4"/>
      <path id="l" data-name="path3169" d="M307.54,144.78c-1.36-4.46-2.71-8.34-3.14-13.16-1-9.8,7.22-15.36,14.65-14.55,7.64.8,12.72,3.73,20,6.29,5.72,1.97,13.43,3.51,20.79,5.63,4.14,1.9,0,6.87-1.07,7.53-18.43,7.39-31.51,19.09-43.22,19.6-7,.37-13.22-4.31-18.86-13.9-.36-18.58-1-40.37-2.79-54.05,2.71-2.78,3.29-4.83,4.57-7.09,1.43,18.06,2,37.08,2.36,56.24,1.5,3.29,3.36,6.07,6.72,7.46h0ZM319.32,146.24c-9.86,2.85-8.64-5.7-9.57-10.97-1.07-6.14-.36-13.09,7.29-11.34,9.93,2.71,19,6.29,27.79,10.09l-25.51,12.21Z" fill="#fff" fill-rule="evenodd" stroke="#fff" stroke-width=".4"/>
      <path id="m" data-name="path3173" d="M309.68,155.31l1.36,6.8h1.07l-.43-6.36" fill="#fff" fill-rule="evenodd" stroke="#fff" stroke-width=".4"/>
      <path id="n" data-name="path5196" d="M152.43,226.39l5-5.27,5.79,5.05-5.36,4.9-5.43-4.68Z" fill="#fff" fill-rule="evenodd" stroke="#fff" stroke-linecap="round" stroke-linejoin="round" stroke-width="4.01"/>
      <path id="o" data-name="path6168" d="M165.14,224.64l5.07-5.27,5.79,5.05-5.36,4.9-5.5-4.68Z" fill="#fff" fill-rule="evenodd" stroke="#fff" stroke-linecap="round" stroke-linejoin="round" stroke-width="4.01"/>
      <path id="p" data-name="path6170" d="M129.78,170.08l5.07-5.27,5.79,5.05-5.36,4.9-5.5-4.68Z" fill="#fff" fill-rule="evenodd" stroke="#fff" stroke-linecap="round" stroke-linejoin="round" stroke-width="4.01"/>
      <path id="q" data-name="path6172" d="M132.06,185.59l5.07-5.27,5.72,5.05-5.36,4.9-5.43-4.68Z" fill="#fff" fill-rule="evenodd" stroke="#fff" stroke-linecap="round" stroke-linejoin="round" stroke-width="4.01"/>
      <path id="r" data-name="path6174" d="M223.87,211.55l4.64-3.88,4.29,4.75-4.86,3.51-4.07-4.39Z" fill="#fff" fill-rule="evenodd" stroke="#fff" stroke-linecap="round" stroke-linejoin="round" stroke-width="4.01"/>
      <path id="s" data-name="path6176" d="M162.57,112.31l3.29-3.44,3.79,3.29-3.5,3.22-3.57-3.07Z" fill="#fff" fill-rule="evenodd" stroke="#fff" stroke-linecap="round" stroke-linejoin="round" stroke-width="4.01"/>
      <path id="t" data-name="path6178" d="M170.93,111.21l3.29-3.51,3.79,3.36-3.5,3.14-3.57-3Z" fill="#fff" fill-rule="evenodd" stroke="#fff" stroke-linecap="round" stroke-linejoin="round" stroke-width="4.01"/>
      <path id="u" data-name="path6180" d="M346.4,150.48l-3.14,2.71-3-3.14,3.29-2.49,2.86,2.93Z" fill="#fff" fill-rule="evenodd" stroke="#fff" stroke-linecap="round" stroke-linejoin="round" stroke-width="4.01"/>
      <path id="v" data-name="path9240" d="M198.51,247.53l-.36,5.78,9,.88,7.22-5.56-15.86-1.1h0Z" fill="#fff" fill-rule="evenodd" stroke="#fff" stroke-width=".4"/>
      <path id="w" data-name="path9242" d="M274.6,139.59l2.64-.59-.29,7.53-1.64.66-.71-7.61h0Z" fill="#fff" fill-rule="evenodd" stroke="#fff"/>
    </g>
    <path id="x" data-name="path2722" d="M254.88,442.82c101.42,0,183.95-84.47,183.95-188.27,0-57.12-24.9-108.08-64.08-142.53,23.51,28.32,37.8,65.6,37.8,106.18,0,90.15-70.54,163.28-157.67,163.28s-157.67-73.13-157.67-163.28c0-40.58,14.29-77.86,37.8-106.18-39.19,34.45-64.08,85.42-64.08,142.53,0,103.8,82.53,188.27,183.95,188.27h0Z" fill="#fff"/>
  </g>
</svg>