<?xml version="1.0" ?><!DOCTYPE svg  PUBLIC '-//W3C//DTD SVG 1.1//EN'  'http://www.w3.org/Graphics/SVG/1.1/DTD/svg11.dtd'><svg enable-background="new 0 0 1024 1024" height="1024px" id="Dribble" version="1.1" viewBox="0 0 1024 1024" width="1024px" xml:space="preserve" xmlns="http://www.w3.org/2000/svg" xmlns:xlink="http://www.w3.org/1999/xlink"><g id="Background"><linearGradient gradientTransform="matrix(0.9397 0.3421 0.3421 -0.9397 161.9932 812.5094)" gradientUnits="userSpaceOnUse" id="bg_2_" x1="555.2903" x2="-103.1275" y1="9.8103" y2="794.3874"><stop offset="0" style="stop-color:#000000"/><stop offset="0.1921" style="stop-color:#090909"/><stop offset="0.5054" style="stop-color:#212121"/><stop offset="0.8987" style="stop-color:#494948"/><stop offset="1" style="stop-color:#545453"/></linearGradient><circle cx="512" cy="512" fill="url(#bg_2_)" id="bg_1_" r="512"/></g><linearGradient gradientTransform="matrix(1 0 0 -1 123.2847 1198.7661)" gradientUnits="userSpaceOnUse" id="Shadow_1_" x1="202.6208" x2="750.5523" y1="872.8313" y2="324.8999"><stop offset="0" style="stop-color:#000000"/><stop offset="0.4833" style="stop-color:#090909;stop-opacity:0.5167"/><stop offset="1" style="stop-color:#181818;stop-opacity:0"/></linearGradient><path d="M615.528,1013.528L313.791,711.791c0,0-190.15-286.799,79.53-432.792  c69.292-37.513,0,0,0,0l0,0c0,0,187.804-87.895,320.741,51.054v-13.927l299.455,299.454c0,0-9.516,48.667-24.889,83.795  c-15.373,35.129-20.793,47.791-31.341,65.5s-19.843,33.16-30.483,47.316c-10.642,14.156-19.73,26.134-29.548,37.033  c-9.818,10.898-33.896,35.887-46.194,46.423s-44.14,35.865-60.996,46.332c-16.855,10.467-35.374,21.715-52.121,29.591  s-33.612,15.905-52.408,22.264c-18.795,6.359-34.15,11.148-43.452,13.493C632.782,1009.672,625.166,1011.647,615.528,1013.528z" fill="url(#Shadow_1_)" id="Shadow"/><path d="M512,250.57  C367.616,250.57,250.57,367.617,250.57,512S367.616,773.43,512,773.43c144.383,0,261.43-117.047,261.43-261.43  S656.383,250.57,512,250.57z M566.748,523.253c25.068,62.03,47.886,135.34,63.229,219.658  C614.634,658.593,591.817,585.283,566.748,523.253c-162.032,35.838-226.01,174.818-226.01,174.818S404.716,559.091,566.748,523.253  c-11.08-27.419-22.601-52.631-34.108-75.618c-64.369,21.952-152.621,37.89-272.64,36.437c120.02,1.454,208.271-14.484,272.64-36.437  c-57.854-115.554-115.423-174.83-115.423-174.83s57.569,59.276,115.423,174.83c129.73-44.243,162.416-112.919,162.416-112.919  S662.37,403.393,532.64,447.635C544.148,470.622,555.668,495.832,566.748,523.253c55.675-12.314,122.92-12.457,203.132,9.406  C689.668,510.796,622.423,510.939,566.748,523.253z" fill="none" id="Dribbble_1_" stroke="#FFFFFF" stroke-miterlimit="10" stroke-width="40"/></svg>