<?xml version="1.0" ?><!DOCTYPE svg  PUBLIC '-//W3C//DTD SVG 1.1//EN'  'http://www.w3.org/Graphics/SVG/1.1/DTD/svg11.dtd'><svg enable-background="new 0 0 1024 1024" height="1024px" id="Youtube_2_" version="1.1" viewBox="0 0 1024 1024" width="1024px" xml:space="preserve" xmlns="http://www.w3.org/2000/svg" xmlns:xlink="http://www.w3.org/1999/xlink"><g id="Background"><linearGradient gradientTransform="matrix(0.9397 0.3421 -0.3421 0.9397 840.8064 -105.4335)" gradientUnits="userSpaceOnUse" id="bg_2_" x1="231.4614" x2="-426.9566" y1="1084.9277" y2="300.3503"><stop offset="0" style="stop-color:#000000"/><stop offset="0.1921" style="stop-color:#090909"/><stop offset="0.5054" style="stop-color:#212121"/><stop offset="0.8987" style="stop-color:#494948"/><stop offset="1" style="stop-color:#545453"/></linearGradient><circle cx="512.001" cy="512" fill="url(#bg_2_)" id="bg_1_" r="512"/></g><g id="Youtube"><linearGradient gradientTransform="matrix(1 0 0 1 428.6797 183.0791)" gradientUnits="userSpaceOnUse" id="Shadow_1_" x1="-126.5381" x2="445.0784" y1="119.6045" y2="691.2209"><stop offset="0" style="stop-color:#000000"/><stop offset="0.4833" style="stop-color:#090909;stop-opacity:0.5167"/><stop offset="1" style="stop-color:#181818;stop-opacity:0"/></linearGradient><path d="M571.333,1020.667l-327.54-327.54l-0.543-0.96C243.25,692.167,199,397,262,343   c0,0,319-31.246,500-9.623h19.627l238.922,238.922c0,0-7.75,64.455-29.647,120.828c0,0-21.573,52.121-35.464,74.836   c0,0-24.988,40.49-37.416,56.053c0,0-43.909,54.386-74.832,78.619c0,0-10.133,9.746-29.313,23.066c0,0-17.172,12.713-32.249,21.673   c0,0-43.714,25.012-62.328,32.802s-18.614,7.79-18.614,7.79l0,0c0,0-8.426,3.406-16.605,6.251c0,0-11.1,3.872-15.84,5.37   c-4.741,1.498,4.74-1.498,4.74-1.498s-23.159,7.164-30.8,9.119c0,0-22.026,5.398-28.889,6.743c0,0-31.345,5.553-41.266,6.634   L571.333,1020.667z" fill="url(#Shadow_1_)" id="Shadow"/><path d="M813.714,425.619c-8.244-126.901-79.729-122.707-187.804-125.786   c-58.021-1.709-116.071-2.112-174.105-1.209c-164.298,3.127-233.243,0.604-241.519,126.994   c-1.786,53.471-1.916,106.814-0.387,160.269c8.198,137.81,52.407,135.276,241.907,139.573   c52.921,0.824,105.855,0.561,158.771-0.788c133.299-3.671,195.297-0.43,203.527-138.859   C815.629,532.386,815.499,479.063,813.714,425.619z M450.41,590.845c-0.321-57.301-0.292-114.636,0.087-171.931   c53.289,28.273,107.172,57.39,160.931,85.99C557.715,533.411,503.803,562.511,450.41,590.845z" fill="#FFFFFF" id="Youtube_1_"/></g></svg>