<?xml version="1.0" ?><!DOCTYPE svg  PUBLIC '-//W3C//DTD SVG 1.1//EN'  'http://www.w3.org/Graphics/SVG/1.1/DTD/svg11.dtd'><svg enable-background="new 0 0 512 512" height="512px" id="Layer_1" version="1.1" viewBox="0 0 512 512" width="512px" xml:space="preserve" xmlns="http://www.w3.org/2000/svg" xmlns:xlink="http://www.w3.org/1999/xlink"><g><g><path d="M481.857,102.698c13.854,0,25.126,11.271,25.126,25.126v257.899c0,13.854-11.271,25.126-25.126,25.126    H30.126C16.272,410.85,5,399.579,5,385.724V127.824c0-13.854,11.271-25.126,25.126-25.126H481.857 M481.857,97.698H30.126    C13.488,97.698,0,111.186,0,127.824v257.899c0,16.64,13.488,30.126,30.126,30.126h451.731c16.64,0,30.126-13.486,30.126-30.126    V127.824C511.983,111.186,498.496,97.698,481.857,97.698L481.857,97.698z" fill="#FF9900"/></g><g><g><path clip-rule="evenodd" d="M307.312,313.186c-25.279,18.657-61.932,28.58-93.491,28.58     c-44.233,0-84.063-16.351-114.208-43.568c-2.366-2.136-0.255-5.058,2.59-3.4c32.521,18.923,72.735,30.32,114.273,30.32     c28.021,0,58.821-5.814,87.161-17.836C307.912,305.468,311.496,310.098,307.312,313.186z" fill="#FF9900" fill-rule="evenodd"/><path clip-rule="evenodd" d="M317.833,301.178c-3.234-4.141-21.375-1.964-29.525-0.988     c-2.467,0.296-2.85-1.857-0.624-3.422c14.47-10.164,38.182-7.229,40.936-3.828c2.778,3.436-0.726,27.207-14.289,38.554     c-2.086,1.746-4.069,0.814-3.145-1.491C314.236,322.382,321.068,305.318,317.833,301.178z" fill="#FF9900" fill-rule="evenodd"/></g><g><path clip-rule="evenodd" d="M288.884,224.965v-9.876c0.006-1.503,1.139-2.505,2.503-2.502l44.266-0.004     c1.415,0,2.55,1.031,2.554,2.495l-0.004,8.47c-0.01,1.42-1.206,3.275-3.332,6.217l-22.928,32.738     c8.512-0.199,17.515,1.074,25.248,5.422c1.744,0.979,2.21,2.431,2.348,3.854v10.538c0,1.453-1.589,3.133-3.258,2.258     c-13.626-7.136-31.706-7.918-46.771,0.087c-1.539,0.82-3.15-0.835-3.15-2.288v-10.02c0-1.602,0.03-4.344,1.647-6.787     l26.564-38.11l-23.129-0.005C290.027,227.451,288.893,226.444,288.884,224.965z" fill-rule="evenodd"/><path clip-rule="evenodd" d="M127.415,286.65h-13.466c-1.282-0.083-2.307-1.046-2.41-2.275l0.009-69.117     c0-1.383,1.164-2.488,2.599-2.488l12.541-0.004c1.312,0.068,2.366,1.061,2.45,2.322v9.023h0.252     c3.269-8.727,9.428-12.799,17.724-12.799c8.422,0,13.702,4.072,17.474,12.799c3.267-8.727,10.684-12.799,18.604-12.799     c5.657,0,11.816,2.327,15.587,7.563c4.273,5.817,3.395,14.253,3.395,21.672l-0.011,43.615c0,1.382-1.164,2.488-2.597,2.488     h-13.451c-1.352-0.086-2.418-1.157-2.418-2.482l-0.003-36.64c0-2.909,0.252-10.183-0.377-12.945     c-1.006-4.654-4.022-5.964-7.918-5.964c-3.269,0-6.664,2.183-8.047,5.673c-1.383,3.491-1.256,9.308-1.256,13.237v36.634     c0,1.382-1.164,2.488-2.597,2.488h-13.451c-1.352-0.086-2.418-1.157-2.418-2.482l-0.013-36.64c0-7.709,1.257-19.054-8.296-19.054     c-9.68,0-9.303,11.054-9.303,19.054l-0.006,36.634C130.014,285.544,128.85,286.65,127.415,286.65z" fill-rule="evenodd"/><path clip-rule="evenodd" d="M376.311,211.312c19.989,0,30.798,17.163,30.798,38.979     c0,21.087-11.939,37.816-30.798,37.816c-19.61,0-30.296-17.164-30.296-38.544C346.015,228.038,356.826,211.312,376.311,211.312z      M376.437,225.42c-9.932,0-10.561,13.525-10.561,21.962c0,8.435-0.125,26.471,10.435,26.471     c10.436,0,10.937-14.546,10.937-23.416c0-5.817-0.251-12.799-2.011-18.328C383.727,227.311,380.709,225.42,376.437,225.42z" fill-rule="evenodd"/><path clip-rule="evenodd" d="M433.029,286.65h-13.416c-1.35-0.086-2.418-1.157-2.418-2.482l-0.021-69.143     c0.113-1.264,1.229-2.256,2.587-2.256l12.492-0.004c1.175,0.061,2.145,0.864,2.393,1.937v10.572h0.254     c3.771-9.454,9.049-13.963,18.352-13.963c6.032,0,11.942,2.182,15.714,8.145c3.521,5.527,3.521,14.835,3.521,21.526v43.491     c-0.152,1.226-1.25,2.177-2.581,2.177h-13.5c-1.247-0.08-2.253-0.995-2.398-2.177v-37.527c0-7.563,0.88-18.618-8.423-18.618     c-3.271,0-6.287,2.182-7.793,5.526c-1.886,4.219-2.14,8.438-2.14,13.092v37.215C435.628,285.544,434.465,286.65,433.029,286.65z" fill-rule="evenodd"/><path clip-rule="evenodd" d="M253.597,253.645c0,5.248,0.125,9.618-2.52,14.285     c-2.142,3.789-5.544,6.122-9.323,6.122c-5.164,0-8.188-3.938-8.188-9.768c0-11.469,10.288-13.555,20.031-13.555V253.645z      M267.173,286.479c-0.892,0.799-2.177,0.853-3.183,0.312c-4.472-3.718-5.272-5.436-7.717-8.975     c-7.395,7.531-12.63,9.789-22.204,9.789c-11.337,0-20.156-6.996-20.156-20.988c0-10.932,5.92-18.367,14.36-22.01     c7.307-3.207,17.512-3.791,25.323-4.667v-1.748c0-3.208,0.252-6.996-1.638-9.766c-1.639-2.478-4.787-3.499-7.559-3.499     c-5.137,0-9.703,2.632-10.824,8.086c-0.233,1.213-1.119,2.414-2.34,2.475l-13.053-1.411c-1.102-0.25-2.327-1.134-2.009-2.816     c3-15.835,17.3-20.619,30.115-20.619c6.551,0,15.119,1.749,20.283,6.706c6.552,6.122,5.92,14.285,5.92,23.177v20.98     c0,6.311,2.623,9.079,5.085,12.48c0.858,1.226,1.053,2.682-0.045,3.577c-2.751,2.307-7.638,6.552-10.327,8.944L267.173,286.479z" fill-rule="evenodd"/><path clip-rule="evenodd" d="M77.058,253.645c0,5.248,0.127,9.618-2.52,14.285     c-2.14,3.789-5.542,6.122-9.322,6.122c-5.164,0-8.188-3.938-8.188-9.768c0-11.469,10.288-13.555,20.029-13.555V253.645z      M90.636,286.479c-0.892,0.799-2.178,0.853-3.182,0.312c-4.474-3.718-5.275-5.436-7.72-8.975     c-7.392,7.531-12.628,9.789-22.202,9.789c-11.339,0-20.156-6.996-20.156-20.988c0-10.932,5.92-18.367,14.361-22.01     c7.307-3.207,17.512-3.791,25.321-4.667v-1.748c0-3.208,0.252-6.996-1.636-9.766c-1.638-2.478-4.789-3.499-7.559-3.499     c-5.136,0-9.704,2.632-10.824,8.086c-0.234,1.213-1.119,2.414-2.34,2.475l-13.052-1.411c-1.103-0.25-2.329-1.134-2.009-2.816     c2.999-15.835,17.298-20.619,30.114-20.619c6.552,0,15.117,1.749,20.283,6.706c6.55,6.122,5.921,14.285,5.921,23.177v20.98     c0,6.311,2.621,9.079,5.083,12.48c0.859,1.226,1.053,2.682-0.043,3.577c-2.751,2.307-7.639,6.552-10.328,8.944L90.636,286.479z" fill-rule="evenodd"/></g></g></g></svg>