<?xml version="1.0" ?><!DOCTYPE svg  PUBLIC '-//W3C//DTD SVG 1.1//EN'  'http://www.w3.org/Graphics/SVG/1.1/DTD/svg11.dtd'><svg enable-background="new 0 0 512 512" height="512px" id="Layer_1" version="1.1" viewBox="0 0 512 512" width="512px" xml:space="preserve" xmlns="http://www.w3.org/2000/svg" xmlns:xlink="http://www.w3.org/1999/xlink"><g><g><path d="M481.874,102.698c13.854,0,25.126,11.271,25.126,25.126v257.899c0,13.854-11.271,25.126-25.126,25.126    H30.143c-13.854,0-25.126-11.271-25.126-25.126V127.824c0-13.854,11.271-25.126,25.126-25.126H481.874 M481.874,97.698H30.143    c-16.638,0-30.126,13.488-30.126,30.126v257.899c0,16.64,13.488,30.126,30.126,30.126h451.731    c16.64,0,30.126-13.486,30.126-30.126V127.824C512,111.186,498.513,97.698,481.874,97.698L481.874,97.698z" fill="#0E4778"/></g></g><g><g><path d="M409.571,175.772c-4.971-2.779-12.761-4.186-23.423-4.186c-5.267,0-10.564,0.428-15.88,1.254    c-3.901,0.598-4.3,0.692-6.724,1.222c-4.986,1.084-5.756,6.075-5.756,6.075l-1.6,6.584c-0.91,4.213,1.491,4.039,2.56,3.711    c2.178-0.655,3.354-1.306,7.798-2.317c4.242-0.958,8.73-1.685,12.306-1.655c5.245,0,9.243,0.574,11.897,1.678    c2.649,1.159,3.966,3.138,3.966,5.959c0.01,0.666,0.027,1.301-0.221,1.85c-0.212,0.522-0.63,1.023-1.882,1.187    c-7.505,0.45-12.872,1.134-19.345,2.073c-6.39,0.896-11.98,2.437-16.65,4.574c-4.978,2.205-8.717,5.166-11.285,8.911    c-2.491,3.767-3.753,8.32-3.758,13.695c0,5.076,1.822,9.214,5.353,12.422c3.564,3.176,8.206,4.74,13.833,4.74    c3.505-0.02,6.255-0.271,8.224-0.767c1.951-0.489,4.073-1.184,6.326-2.162c1.676-0.698,3.483-1.714,5.396-2.988    c1.909-1.281,3.238-2.178,4.938-3.296l0.067,0.102l-0.484,2.113c0,0.026-0.033,0.035-0.033,0.054l0.015,0.032    c-0.54,2.55,0.984,4.668,3.505,4.913l0.031,0.048h0.216l0.009,0.01c1.679,0,7.412-0.004,10.085-0.01h1.881    c0.127,0,0.135-0.048,0.185-0.072c2.573-0.318,5.033-2.408,5.621-4.921l9.57-41.339c0.226-0.97,0.394-2.095,0.503-3.381    c0.117-1.31,0.257-2.382,0.213-3.166C417.056,182.876,414.542,178.545,409.571,175.772z M386.371,225.032    c-1.625,1.019-3.342,1.897-5.158,2.642c-2.409,0.976-4.707,1.493-6.829,1.493c-3.265,0-5.76-0.459-7.463-1.451    c-1.692-0.931-2.583-2.558-2.553-4.885c0-2.684,0.623-4.771,1.903-6.407c1.297-1.571,3.217-2.835,5.594-3.778    c2.366-0.802,5.285-1.466,8.644-1.943c2.993-0.375,8.901-1.054,9.666-1.06c0.758-0.003,1.256-0.427,0.918,1.597    c-0.153,0.87-1.857,7.88-2.639,11.068C388.222,223.261,386.952,224.653,386.371,225.032z" fill="#0D79BF"/><path d="M244.822,172.501c-2.81,0-6.493,2.274-8.241,5.029c0,0-18.796,32.211-20.639,35.432    c-0.999,1.731-2.021,0.632-2.197-0.01c-0.125-0.784-5.82-35.217-5.82-35.217c-0.632-2.772-3.533-5.149-7.154-5.139l-11.715,0.022    c-2.826,0-4.588,2.257-3.958,4.991c0,0,8.959,50.77,10.703,62.716c0.87,6.597-0.092,7.772-0.092,7.772l-11.614,20.253    c-1.694,2.743-0.766,4.989,2.046,4.989l13.575-0.013c2.811,0,6.543-2.228,8.208-4.988l52.247-88.356c0,0,4.992-7.548,0.384-7.482    C257.419,172.542,244.822,172.501,244.822,172.501" fill="#15467A"/><path d="M79.904,190.457c-3.95,2.898-9.429,4.346-16.545,4.346h-3.215c-2.834,0-4.627-2.246-3.998-5.006    l3.948-17.012c0.6-2.742,3.43-5.016,6.262-4.991l4.288-0.025c5.016,0,8.82,0.859,11.395,2.563c2.54,1.665,3.821,4.288,3.783,7.81    C85.891,183.447,83.876,187.561,79.904,190.457 M108.223,164.244c-1.634-3.183-4.076-5.759-7.186-7.712    c-3.242-1.999-6.999-3.371-11.395-4.202c-4.407-0.789-9.563-1.177-15.474-1.235l-27.373,0.025    c-2.845,0.033-5.637,2.264-6.293,4.998l-18.451,80.25c-0.641,2.739,1.133,5.013,3.967,5.013h13.116    c2.834,0,5.646-2.21,6.277-5.013l4.523-19.479c0.605-2.718,3.405-4.972,6.252-4.972h3.751c16.036-0.019,28.474-3.306,37.415-9.865    c8.929-6.556,13.39-15.242,13.365-25.984C110.743,171.345,109.928,167.398,108.223,164.244" fill="#15467A"/><path d="M318.015,190.79c-3.933,2.86-9.454,4.286-16.549,4.286h-3.257c-2.829,0.037-4.648-2.247-3.979-4.979    l3.941-17.041c0.576-2.691,3.442-4.991,6.225-4.965l4.313-0.026c5.031,0.026,8.799,0.868,11.398,2.541    c2.558,1.697,3.789,4.326,3.807,7.825C323.925,183.759,321.956,187.867,318.015,190.79 M346.314,164.535    c-1.637-3.18-4.101-5.738-7.229-7.733c-3.199-1.99-6.998-3.379-11.396-4.181c-4.354-0.772-9.528-1.205-15.425-1.218l-27.438,0.013    c-2.824,0.048-5.596,2.265-6.249,4.999l-18.439,80.272c-0.678,2.727,1.156,5.003,3.93,4.983l13.165-0.021    c2.794,0.021,5.635-2.235,6.295-4.962l4.446-19.479c0.628-2.731,3.466-5.016,6.299-4.975h3.743c16.065,0,28.512-3.303,37.43-9.865    c8.89-6.604,13.37-15.258,13.37-26.027C348.785,171.639,347.982,167.674,346.314,164.535" fill="#0D79BF"/><path d="M171.43,175.711c-4.982-2.782-12.766-4.184-23.423-4.184c-5.269,0-10.565,0.423-15.88,1.246    c-3.907,0.592-4.303,0.694-6.726,1.222c-4.99,1.087-5.755,6.079-5.755,6.079l-1.603,6.583c-0.908,4.217,1.492,4.041,2.559,3.712    c2.175-0.656,3.358-1.306,7.805-2.314c4.236-0.961,8.72-1.681,12.3-1.656c5.252,0,9.241,0.573,11.891,1.686    c2.656,1.158,3.964,3.129,3.964,5.94c0.021,0.677,0.03,1.316-0.199,1.859c-0.23,0.526-0.648,1.018-1.905,1.187    c-7.486,0.453-12.853,1.138-19.342,2.078c-6.389,0.901-11.975,2.439-16.65,4.574c-4.985,2.206-8.708,5.166-11.273,8.91    c-2.503,3.769-3.758,8.325-3.762,13.693c0,5.074,1.822,9.218,5.346,12.422c3.576,3.174,8.213,4.745,13.835,4.745    c3.506-0.024,6.261-0.279,8.233-0.772c1.944-0.496,4.077-1.184,6.309-2.157c1.684-0.709,3.492-1.72,5.405-2.992    c1.913-1.27,3.242-2.182,4.945-3.288l0.057,0.095l-0.484,2.105c0,0.026-0.031,0.041-0.031,0.065l0.026,0.031    c-0.548,2.548,0.976,4.666,3.497,4.907l0.031,0.049h0.218l0.011,0.016c1.672,0,7.413-0.008,10.094-0.016h1.869    c0.124,0,0.145-0.044,0.182-0.067c2.582-0.328,5.037-2.418,5.624-4.92l9.578-41.346c0.213-0.963,0.388-2.092,0.487-3.377    c0.122-1.315,0.268-2.386,0.231-3.158C178.914,182.819,176.397,178.491,171.43,175.711z M148.228,224.963    c-1.626,1.032-3.342,1.905-5.149,2.648c-2.416,0.974-4.722,1.488-6.846,1.488c-3.249,0-5.755-0.46-7.453-1.439    c-1.694-0.939-2.584-2.565-2.564-4.89c0-2.684,0.631-4.772,1.912-6.401c1.29-1.581,3.209-2.842,5.59-3.789    c2.375-0.806,5.294-1.458,8.647-1.931c2.992-0.374,8.905-1.05,9.66-1.066c0.75,0,1.255-0.42,0.919,1.593    c-0.142,0.874-1.848,7.889-2.639,11.07C150.073,223.205,148.803,224.594,148.228,224.963z" fill="#15467A"/><g><g><path d="M454.79,152.068h-11.738c-0.004,0-0.007,0.001-0.011,0.001l-0.003-0.001      c-2.704,0-5.455,2.083-6.193,4.72c-0.027,0.091-0.071,0.178-0.093,0.27c0,0-0.221,1.007-0.61,2.78l-16.27,73.749      c-0.378,1.671-0.625,2.738-0.702,3.02l0.03,0.042c-0.55,2.551,0.987,4.667,3.501,4.904l0.034,0.047h12.177      c2.679,0,5.414-2.063,6.173-4.67c0.034-0.109,0.085-0.213,0.111-0.323l17.59-79.555l-0.031-0.01      C459.348,154.32,457.599,152.068,454.79,152.068z" fill="#0D79BF"/></g></g><g><path d="M477.004,168.262c-0.394,0.108-0.828,0.196-1.312,0.262c-0.476,0.068-0.907,0.105-1.273,0.105     c-1.313,0-2.297-0.355-2.973-1.047c-0.684-0.709-1.022-1.83-1.022-3.377v-6.79h-1.449v-1.801h1.449v-3.671h2.155v3.671h4.425     v1.801h-4.425v5.82c0,0.667,0.013,1.189,0.044,1.57c0.033,0.375,0.142,0.728,0.319,1.058c0.164,0.301,0.394,0.525,0.693,0.667     c0.292,0.14,0.747,0.213,1.342,0.213c0.346,0,0.716-0.051,1.095-0.159c0.383-0.105,0.657-0.185,0.824-0.255h0.108V168.262z" fill="#0D79BF"/><path d="M498.229,168.374h-2.143v-7.269c0-0.546-0.022-1.077-0.08-1.59c-0.051-0.512-0.153-0.92-0.315-1.224     c-0.175-0.32-0.425-0.575-0.752-0.74c-0.328-0.167-0.798-0.246-1.417-0.246c-0.605,0-1.197,0.144-1.807,0.448     c-0.598,0.299-1.202,0.681-1.801,1.147c0.025,0.176,0.038,0.382,0.058,0.607c0.017,0.234,0.017,0.465,0.017,0.696v8.169h-2.143     v-7.269c0-0.559-0.031-1.097-0.077-1.604c-0.052-0.507-0.154-0.91-0.309-1.216c-0.181-0.324-0.431-0.574-0.762-0.735     c-0.328-0.165-0.803-0.244-1.408-0.244c-0.588,0-1.176,0.139-1.769,0.427c-0.591,0.288-1.177,0.66-1.767,1.111v9.53h-2.153     v-12.761h2.153v1.413c0.665-0.557,1.339-0.99,2.005-1.305c0.672-0.312,1.373-0.469,2.128-0.469c0.868,0,1.607,0.185,2.218,0.548     c0.605,0.371,1.05,0.872,1.346,1.523c0.87-0.732,1.665-1.261,2.379-1.581c0.718-0.326,1.485-0.491,2.294-0.491     c1.403,0,2.441,0.425,3.107,1.275c0.661,0.856,0.998,2.036,0.998,3.559V168.374z" fill="#0D79BF"/></g></g><path d="M463.5,387.376c0,3.935-3.19,7.124-7.125,7.124h-184.75c-3.935,0-7.125-3.19-7.125-7.124v-83.752   c0-3.935,3.19-7.124,7.125-7.124h184.75c3.935,0,7.125,3.19,7.125,7.124V387.376z" fill="#0D79BF"/><path d="M2.5,296.5h235.944c3.935,0,7.056,2.186,7.056,6.121v84.027c0,3.935-3.122,7.851-7.056,7.851H2.5" fill="#0E4778"/></g></svg>