<?xml version="1.0" ?><!DOCTYPE svg  PUBLIC '-//W3C//DTD SVG 1.1//EN'  'http://www.w3.org/Graphics/SVG/1.1/DTD/svg11.dtd'><svg enable-background="new 0 0 512 512" height="512px" id="Layer_1" version="1.1" viewBox="0 0 512 512" width="512px" xml:space="preserve" xmlns="http://www.w3.org/2000/svg" xmlns:xlink="http://www.w3.org/1999/xlink"><g><g><path d="M481.874,102.698c13.854,0,25.126,11.271,25.126,25.126v257.899c0,13.854-11.271,25.126-25.126,25.126    H30.143c-13.854,0-25.126-11.271-25.126-25.126V127.824c0-13.854,11.271-25.126,25.126-25.126H481.874 M481.874,97.698H30.143    c-16.638,0-30.126,13.488-30.126,30.126v257.899c0,16.64,13.488,30.126,30.126,30.126h451.731    c16.64,0,30.126-13.486,30.126-30.126V127.824C512,111.186,498.513,97.698,481.874,97.698L481.874,97.698z" fill="#E20613"/></g><g><path clip-rule="evenodd" d="M94.32,240.723v127.243c0,4.33,3.507,7.839,7.836,7.839h310.902    c4.328,0,7.837-3.509,7.837-7.839V150.092c0-4.328-3.509-7.837-7.837-7.837H378.71L224.454,295.275v-6.68L370.92,142.254h-6.557    L224.454,280.928v-6.683l131.989-131.991h-6.306l-125.684,124.57v-6.679l117.888-117.891h-6.554L227.115,250.186l-1.979-4.825    l103.105-103.107h-6.682l-94.444,93.827l-1.979-4.823l89.002-89.004H102.156c-4.329,0-7.836,3.509-7.836,7.837v29.272h101.931    c17.812,0,24.987,3.712,28.203,18.555c0.743,2.475-1.732,2.97-2.474,0.744c-1.261-3.786-5.195-12.371-23.748-12.371H94.32v6.68    h101.931c17.812,0,24.987,3.711,28.203,18.555c0.743,2.475-1.732,2.969-2.474,0.742c-1.261-3.784-5.195-12.371-23.748-12.371    H94.32v6.681h101.931c17.812,0,24.987,3.711,28.203,18.556c0.743,2.475-1.732,2.97-2.474,0.741    c-1.261-3.783-5.195-12.371-23.748-12.371H94.32v6.681h101.931c17.812,0,24.987,3.712,28.203,18.556    c0.743,2.475-1.732,2.97-2.474,0.742c-1.261-3.784-5.195-12.37-23.748-12.37H94.32v6.68h101.931    c17.812,0,24.987,3.711,28.203,18.554c0.743,2.478-1.732,2.97-2.474,0.743c-1.261-3.785-5.195-12.369-23.748-12.369H94.32    L94.32,240.723z" fill="#E20613" fill-rule="evenodd"/><path clip-rule="evenodd" d="M259.136,313.617c-2.393-3.232-6.281-4.969-10.291-4.969    c-7.183,0-12.027,5.507-12.027,12.509c0,7.122,4.905,12.268,12.205,12.268c3.062,0,6.568-0.787,9.575-4.38l8.658,6.431    c-4.453,8.166-14.821,9.318-18.472,9.318c-6.285,0-12.268-2.395-16.936-6.646c-4.965-4.487-7.237-10.35-7.237-17.054    c0-6.161,2.333-12.085,6.642-16.514c4.425-4.545,10.83-7.301,17.171-7.301c3.771,0,12.399-0.149,18.586,9.003L259.136,313.617    L259.136,313.617z" fill="#FFFFFF" fill-rule="evenodd"/><polygon clip-rule="evenodd" fill="#FFFFFF" fill-rule="evenodd" points="129.958,343.733 118.23,343.733 118.23,308.549     108.537,308.549 108.537,298.614 139.653,298.614 139.653,308.549 129.958,308.549 129.958,343.733   "/><path clip-rule="evenodd" d="M370.01,320.113c-1.777-1.314-3.885-2.366-6.188-2.366    c-4.607,0-8.227,3.555-8.227,8.229c0,4.873,3.489,8.295,8.427,8.295c2.103,0,4.408-0.857,5.987-2.308v10.139    c-2.633,1.316-5.526,1.905-8.425,1.905c-10.007,0-18.366-7.433-18.366-17.638c0-10.859,8.294-18.367,18.893-18.367    c2.765,0,5.528,0.659,7.898,1.977V320.113L370.01,320.113z" fill="#FFFFFF" fill-rule="evenodd"/><path clip-rule="evenodd" d="M281.553,298.614v14.394h0.117    c2.514-3.352,5.567-4.91,9.812-4.91c7.781,0,11.55,5.146,11.55,12.927v22.617h-10.891v-19.563c0-3.592-0.536-7.3-4.904-7.3    c-4.31,0-5.685,3.708-5.685,7.3v19.563H270.66v-45.027H281.553L281.553,298.614z" fill="#FFFFFF" fill-rule="evenodd"/><polygon clip-rule="evenodd" fill="#FFFFFF" fill-rule="evenodd" points="385.762,323.602 397.39,309.006 410.256,309.006     397.639,325.831 410.007,343.642 395.227,343.642 385.854,328.3 385.854,343.642 374.965,343.642 374.965,298.614     385.854,298.614 385.762,323.602   "/><polygon clip-rule="evenodd" fill="#FFFFFF" fill-rule="evenodd" points="182.173,343.675 171.283,343.675 171.283,298.614     182.173,298.614 182.173,343.675   "/><path clip-rule="evenodd" d="M167.303,316.923c-4.454-7.176-9.4-8.659-14.498-8.672    c-10.596-0.024-18.892,7.507-18.892,18.367c0,10.199,8.361,17.637,18.366,17.637c2.897,0,9.829-0.861,13.541-2.838v-11.878    c-3.959,3.215-5.69,5.195-11.104,4.979c-1.359-0.058-2.775-0.376-4.119-0.902l-0.003,0.016L167.303,316.923L167.303,316.923z     M144.871,328.938c-0.521-0.952-0.822-1.997-0.822-3.106c0-4.674,3.803-9.156,8.412-9.156c0.802,0,2,0.562,3.297,1.351    l-10.881,10.93L144.871,328.938L144.871,328.938z" fill="#FFFFFF" fill-rule="evenodd"/><path clip-rule="evenodd" d="M340.239,316.923c-4.454-7.176-9.402-8.659-14.499-8.672    c-10.596-0.024-18.89,7.507-18.89,18.367c0,10.199,8.358,17.637,18.363,17.637c2.901,0,9.83-0.861,13.54-2.838v-11.878    c-3.959,3.215-5.688,5.195-11.101,4.979c-1.36-0.058-2.776-0.376-4.121-0.902l-0.004,0.016L340.239,316.923L340.239,316.923z     M317.804,328.938c-0.52-0.952-0.821-1.997-0.821-3.106c0-4.674,3.805-9.156,8.412-9.156c0.802,0,2.001,0.562,3.297,1.351    l-10.878,10.93L317.804,328.938L317.804,328.938z" fill="#FFFFFF" fill-rule="evenodd"/><path clip-rule="evenodd" d="M219.755,316.923c-4.454-7.176-9.403-8.659-14.501-8.672    c-10.594-0.024-18.888,7.507-18.888,18.367c0,10.199,8.358,17.637,18.362,17.637c2.9,0,9.832-0.861,13.542-2.838v-11.878    c-3.959,3.215-5.691,5.195-11.104,4.979c-1.358-0.058-2.774-0.376-4.118-0.902l-0.004,0.016L219.755,316.923L219.755,316.923z     M197.32,328.938c-0.52-0.952-0.822-1.997-0.822-3.106c0-4.674,3.804-9.156,8.413-9.156c0.799,0,2.001,0.562,3.296,1.351    l-10.88,10.93L197.32,328.938L197.32,328.938z" fill="#FFFFFF" fill-rule="evenodd"/></g></g></svg>