<?xml version="1.0" ?><!DOCTYPE svg  PUBLIC '-//W3C//DTD SVG 1.1//EN'  'http://www.w3.org/Graphics/SVG/1.1/DTD/svg11.dtd'><svg enable-background="new 0 0 512 512" height="512px" id="Layer_1" version="1.1" viewBox="0 0 512 512" width="512px" xml:space="preserve" xmlns="http://www.w3.org/2000/svg" xmlns:xlink="http://www.w3.org/1999/xlink"><g><g><linearGradient gradientUnits="userSpaceOnUse" id="SVGID_1_" x1="0.0166" x2="512" y1="256.7739" y2="256.7739"><stop offset="0" style="stop-color:#BB2024"/><stop offset="1" style="stop-color:#841618"/></linearGradient><path d="M481.874,102.698c13.854,0,25.126,11.271,25.126,25.126v257.899    c0,13.854-11.271,25.126-25.126,25.126H30.143c-13.854,0-25.126-11.271-25.126-25.126V127.824    c0-13.854,11.271-25.126,25.126-25.126H481.874 M481.874,97.698H30.143c-16.638,0-30.126,13.488-30.126,30.126v257.899    c0,16.64,13.488,30.126,30.126,30.126h451.731c16.64,0,30.126-13.486,30.126-30.126V127.824    C512,111.186,498.513,97.698,481.874,97.698L481.874,97.698z" fill="url(#SVGID_1_)"/></g><g><linearGradient gradientUnits="userSpaceOnUse" id="SVGID_2_" x1="114.2319" x2="104.2396" y1="177.1382" y2="340.7169"><stop offset="0" style="stop-color:#A21B1F"/><stop offset="1" style="stop-color:#6F1214"/></linearGradient><path d="M184.017,258.649c5.715-45.774-23.124-82.881-64.415-82.881c-41.291,0-79.396,37.107-85.112,82.881    c-5.715,45.775,23.124,82.882,64.416,82.882C140.195,341.531,178.301,304.425,184.017,258.649z" fill="url(#SVGID_2_)"/><linearGradient gradientUnits="userSpaceOnUse" id="SVGID_3_" x1="101.6084" x2="127.5148" y1="194.0234" y2="327.2558"><stop offset="0" style="stop-color:#BB2024"/><stop offset="1" style="stop-color:#841618"/></linearGradient><path d="M181.675,256.174c5.197-41.622-21.026-75.363-58.572-75.363c-37.546,0-72.194,33.742-77.392,75.363    c-5.196,41.623,21.026,75.364,58.573,75.364C141.829,331.538,176.479,297.797,181.675,256.174z" fill="url(#SVGID_3_)"/><linearGradient gradientUnits="userSpaceOnUse" id="SVGID_4_" x1="177.9463" x2="47.0888" y1="211.1401" y2="211.1402"><stop offset="0" style="stop-color:#780000"/><stop offset="1" style="stop-color:#FFFFFF"/></linearGradient><path d="M123.006,186.084c26.06,0,46.798,15.382,55.895,38.173c-7.636-25.663-28.91-43.447-56.162-43.447    c-33.006,0-63.764,26.078-74.252,60.659C60.709,209.547,90.814,186.084,123.006,186.084z" fill="url(#SVGID_4_)"/><path d="M91.964,217.403h6.569c0,0,5.274,0.02,4.029,5.914c-1.245,5.894-10.797,51.097-10.797,51.097    s-3.39,13.492,10.987,14.787s19.98-8.019,23.413-24.267c3.433-16.249,9.783-46.3,9.783-46.3s0.016-1.23,1.259-1.23    s16.931,0,16.931,0s5.171,0.293,4.027,5.708c-1.145,5.417-10.797,51.099-10.797,51.099s-3.592,25.91-23.484,31.275    c-9.899,3.608-22.853,2.776-22.853,2.776s-30.347,0.093-32.845-23.964c0-10.824,1.725-16.529,1.725-16.529l10.235-48.436    c0,0,0.12-1.929,1.456-1.929C82.938,217.403,91.964,217.403,91.964,217.403z" fill="#FFFFFF"/><path d="M215.541,219.042c0,0,0.085-1.639,1.328-1.639s13.416,0,13.416,0s6.74,0.533,5.194,7.848    c-1.545,7.316-8.118,38.421-8.118,38.421l22.262-21.935h24.402c0,0,1.181,0.555,0,1.666c-1.18,1.11-35.228,32.012-35.228,32.012    l20.817,29.606c0,0,0.772,1.572-0.863,1.572c-1.635,0-20.603,0-20.603,0s-0.301,0.348-1.134-0.832    c-0.832-1.18-14.06-21.235-14.06-21.235l-3.189,15.093c0,0-0.827,6.837-6.066,6.837s-15.405,0-15.405,0s-1.347,0.576-0.746-2.267    C198.15,301.347,215.541,219.042,215.541,219.042z"/><path d="M318.616,240.806c-10.521-2.077-20.267-0.669-20.267-0.669s-15.512,1.092-20.925,11.593    c-2.91,5.423-3.483,8.138-3.483,8.138s-0.603,2.154,0.608,2.154c1.21,0,18.095,0,18.095,0s1.062,0.086,1.469-1.84    c0.408-1.925,2.927-6.048,6.951-6.325s4.395-0.323,4.395-0.323s10.581-0.54,8.99,6.988c-1.591,7.527-8.434,7.259-12.69,7.444    c-4.257,0.185-22.783,0.233-31.284,8.305c-4.014,3.354-4.985,9.367-4.985,9.367s-1.664,11.011,3.285,16.238    c4.949,5.227,10.064,6.384,15.181,6.384s16.074,0.823,22.144-8.216c-1.037,4.909-1.149,5.44-1.149,5.44s-0.322,1.204,0.649,1.157    c0.971-0.047,13.785,0,13.785,0s4.948,0.186,6.846-6.523c1.897-6.708,7.033-28.762,7.033-28.762s1.666-10.745,1.711-16.574    C335.02,248.954,329.09,242.882,318.616,240.806z M303.285,292.9c-7.634,5.367-17.172,1.573-16.983-4.533    c0.19-6.106,5.232-7.725,9.673-8.558c4.441-0.832,12.647-0.57,14.998-2.83C310.973,276.979,310.316,287.72,303.285,292.9z"/><path d="M337.862,285.104h17.693c0,0,0.883,0.025,1.022,1.367c0.139,1.341,0.369,5.319,5.088,7.216s10.917,0.555,13.184-1.435    c2.268-1.989,3.519-7.218-1.294-9.066c-4.812-1.851-16.195-4.626-16.195-4.626s-10.175-2.035-13.181-10.687    c-1.526-5.445-0.584-9.905-0.584-9.905s0.261-5.593,6.32-10.958c6.615-5.737,18.782-6.8,18.782-6.8s14.386-1.109,21.974,2.451    c7.587,3.562,11.011,9.808,10.641,17.533c0.086,0.74-0.74,0.741-0.74,0.741l-17.44-0.094c0,0-0.879,0.192-1.019-1.522    c-0.139-1.716-1.018-6.343-8.465-6.295c-7.448,0.046-9.206,4.079-9.113,6.295c0.092,2.216,1.434,4.668,13.831,7.073    c12.398,2.406,17.858,6.845,19.061,13.346c1.202,6.5-0.262,15.942-4.214,19.937c-3.952,3.995-8.092,6.735-20.768,8.586    c-13.509,0.6-18.689-0.972-18.689-0.972s-15.915-2.575-16.654-21.065C337.056,285.869,337.236,285.104,337.862,285.104z"/><path d="M420.221,218.192c0,0,0.126-0.789,0.959-0.789s15.267,0,15.267,0s5.178,0.036,3.832,6.411    c-1.348,6.375-5.465,25.861-5.465,25.861s6.384-10.534,23.611-9.629s18.165,16.066,17.092,21.142s-8.263,39.106-8.263,39.106    s-1.872,6.093-6.174,6.093c-4.303,0-15.752,0-15.752,0s-0.98,0.272-0.471-2.134c0.51-2.407,7.513-35.554,7.513-35.554    s3.239-12.76-7.349-12.621s-13.644,9.861-14.359,13.248c-0.718,3.387-6.444,30.494-6.444,30.494s-1.857,6.516-6.3,6.576    c-4.44,0.06-15.266,0-15.266,0s-1.174,0.488-0.745-1.534C402.334,302.841,420.221,218.192,420.221,218.192z"/><g><g><path d="M469.242,228.38v-7.364h3.131c0.785,0,1.358,0.066,1.715,0.198c0.357,0.132,0.642,0.368,0.856,0.706      c0.213,0.338,0.32,0.725,0.32,1.161c0,0.552-0.162,1.008-0.486,1.369c-0.325,0.36-0.811,0.586-1.457,0.68      c0.322,0.188,0.587,0.394,0.797,0.619c0.209,0.224,0.491,0.622,0.846,1.194l0.899,1.437h-1.779l-1.074-1.601      c-0.382-0.574-0.643-0.934-0.783-1.083c-0.141-0.148-0.29-0.252-0.447-0.307s-0.406-0.083-0.748-0.083h-0.302v3.074H469.242z       M470.729,224.131h1.1c0.714,0,1.159-0.03,1.337-0.091c0.177-0.06,0.315-0.164,0.416-0.311c0.102-0.148,0.15-0.331,0.15-0.552      c0-0.248-0.065-0.448-0.197-0.6c-0.133-0.153-0.319-0.249-0.56-0.289c-0.122-0.018-0.482-0.026-1.086-0.026h-1.16V224.131z"/></g><g><path d="M471.895,232.193c-4.078,0-7.395-3.317-7.395-7.395c0-4.079,3.316-7.396,7.395-7.396c4.079,0,7.396,3.317,7.396,7.396      C479.29,228.876,475.974,232.193,471.895,232.193z M471.895,219.117c-3.132,0-5.681,2.549-5.681,5.681      c0,3.131,2.549,5.68,5.681,5.68c3.133,0,5.682-2.549,5.682-5.68C477.576,221.666,475.027,219.117,471.895,219.117z"/></g></g></g></g></svg>