<?xml version="1.0" ?><svg enable-background="new 0 0 64 64" viewBox="0 0 64 64" xmlns="http://www.w3.org/2000/svg"><path d="M63.746 31.07c-.32-5.753-.275-11.46-.642-12.61-.367-1.152-6.007-4.88-8.254-5.893S43.112 6.72 40.452 5.247C37.794 3.777 32.382 0 31.558 0S29.31.83 27.98 1.52c-1.33.69-6.74 4.188-10.5 6.213-3.76 2.025-8.115 4.833-12.746 6.905s-4.43 2.305-4.63 3.176c-.14.598.32 3.452.457 7.64S.105 37.838.01 40.094c-.09 2.256.414 3.59 1.33 4.97.918 1.38 4.953 3.453 9.263 5.94 4.31 2.485 11.51 7.502 15.04 10.126s4.356 2.485 5.87 2.853c1.512.368 10.774-5.2 18.11-9.712 7.337-4.51 13.986-8.56 14.215-9.39.23-.83.23-8.054-.092-13.81zm-1.238 9.932c-.24-.207-4.608-5.213-4.85-5.006-.24.207-.446.725-.343.898s4.643 4.833 4.71 5.144-.205.83-.48.725c-.275-.104-4.092-3.9-4.608-3.97s-1.17.587-.722.967 4.16 3.556 4.16 3.798-.962 1.243-1.237 1.07c-.275-.173-3.645-3.728-4.16-3.728s-1.067.483-.792.725c.275.242 3.92 3.556 3.748 3.832-.172.276-.93 1.312-1.41.967s-3.267-3.728-3.783-3.728-.995.518-.79.76c.207.242 3.37 3.314 3.37 3.59 0 .276-.996.725-1.27.62-.276-.103-3.2-3.624-3.61-3.624-.415 0-1 .345-.793.552s3.44 3.728 3.37 3.867c-.07.14-.825.865-1.032.623-.206-.242-2.786-3.556-3.508-3.556s-.997.345-.86.518 3.473 3.383 3.198 3.625c-.275.24-1.032.724-1.34.517-.31-.207-3.234-3.21-3.68-3.28-.448-.07-.964.518-.758.76s3.68 3.038 3.267 3.28c-.413.242-1.582 1.38-1.995 1.14-.414-.243-2.924-3.177-3.543-3.143-.62.035-1.204.345-.86.725s3.13 2.83 2.89 3.105c-.242.276-.654.794-.998.518s-2.82-2.762-3.234-2.796-1.032.31-.825.587c.207.276 3.406 2.486 3.13 3.038-.275.552-1.376 1.208-1.582 1-.206-.206-2.958-3.072-3.405-3.003s-.86.344-.55.655c.31.31 2.992 2.693 2.854 3.038-.138.345-.86.932-1.032.725-.172-.208-3.473-3.522-3.714-3.42-.24.105-.86.968-.515 1.21s3.44 2.52 3.13 2.76c-.31.243-1.136 1.07-1.48.864-.344-.207-2.89-2.59-3.233-2.59s-.824.588-.343.968 2.58 2.07 2.544 2.244-.413.552-.79.414-2.752-2.21-3.165-2.175-1.1.518-.86.794 2.75 1.69 2.647 2.036-.722.898-1.135.656-11.9-7.216-15.58-9.426-8.35-5.076-10.998-6.7-3.92-1.932-4.264-3.382.275-8.044.447-11.703-.138-6.664-.206-7.596-.22-2.785-.16-3.222c.125-.953 2.11-1.75 5.96-3.544S23.626 5.71 25.644 4.466s4.77-2.9 5.502-2.762c.734.138 6.878 4.51 11.142 6.26 4.264 1.75 13.16 6.214 14.535 7.18s2.018 1.52 2.018 1.704c0 .184-.32.506.183.83.504.32 2.75 2.255 2.797 2.485.046.23.32 2.21.138 2.117-.183-.093-2.442-3.027-3.026-3.027s-.997.587-.688.932c.31.345 3.61 3.28 3.783 3.728.172.45.413 1.38.172 1.174-.243-.207-2.65-2.727-2.89-2.693-.24.035-.62.207-.48.794s3.334 3.418 3.403 3.66c.07.24.07 2.347-.07 2.208-.137-.138-2.613-3.245-2.82-3.176s-.274.794-.274.794 3.025 3.625 3.163 3.97c.138.345.344 3.142.138 2.693-.205-.45-2.647-3.142-2.853-3.176-.206-.033-.48.416-.344.83.138.415 3.198 3.695 3.3 3.9s.207 2.9.035 2.488-3.027-3.625-3.302-3.418c-.275.206-.653.586-.447.897.206.31 3.645 3.9 3.75 4.246s.24 2.106-.003 1.9zM9.926 22.532c.79.38 7.394 4.764 8.047 5.144s2.407.104 4.505-.794 5.777-2.727 5.915-3.107c.138-.38.103-6.974-.034-8.078-.14-1.105.032-5.455-.415-5.593s-8.597 4.04-11.005 5.49-8.425 4.53-8.665 4.832c-.55.69.86 1.726 1.65 2.106zm2.614-.898c.093-.304 6.706-3.9 9.045-5.49s4.85-3.003 5.09-2.554.894 8.803.275 9.39c-.62.587-7.29 3.832-8.116 3.314-.826-.517-6.672-3.417-6.294-4.66zm21.94 1.76c.104.45 6.88 3.59 7.43 3.764s1.478-.173 2.475-.587 9.698-5.073 10.592-5.522c.894-.45 1.41-.69 1.444-1.45s-1.34-1.933-4.262-3.625-9.63-4.592-12.552-5.87c-2.923-1.276-3.8-.89-4.402-.517-.894.552-.62 2.59-.653 3.728s-.17 9.633-.07 10.082zm1.65-12.772c.2-.22 5.985 2.14 11.212 4.833s7.36 3.867 7.29 4.35-6.12 3.28-8.7 4.453c-2.58 1.174-3.336 1.484-3.645 1.415-.31-.07-5.812-2.555-6.053-3.176-.24-.62-.034-5.627-.07-7.18s-.342-4.35-.033-4.695zm1.308 18.4c-.378-.518-5.4-3.28-6.053-3.418-.653-.138-1.788.656-3.198 1.52-1.41.862-3.226 2.006-3.164 2.416.172 1.14 5.434 3.418 6.396 3.625.96.207 4.606-2.244 5.26-2.693.654-.448 1.135-.932.757-1.45zm-5.95 2.486c-.55-.242-1.718-1.036-1.787-1.277-.074-.266 3.235-2.242 3.75-1.897s1.685.725 1.72 1.036-3.13 2.38-3.68 2.14zm-6.43-22.89c.688-.482 4.746-2.52 5.502-2.968s1.96.45 2.304.62.963-.172 1.135-.586c.17-.414-1.55-1.174-2.065-1.484-.516-.31-1.1-.276-2.098.104-.997.38-6.018 3.142-6.26 3.383s.024.916.242 1.036c.377.207.55.38 1.237-.104zM6.83 18.425c.38-.345.035-.552-.48-.863s-3.267 1.002-3.542 1.45.31 2.957.62 3.212c.377.31.893-.138 1.203-.552s-.17-1.312-.24-1.76 2.064-1.14 2.44-1.486zm2.41 14.948c1.134-.69 2.957-1.52 2.75-2.07-.206-.553-3.955-3.074-4.78-3.59s-2.128.124-2.27.55c-.103.312 0 4.35.034 5.04.034.69-.138 1.485.722 1.9s2.408-1.14 3.543-1.83zM8.035 30.44c.14-.28 1.582.76 1.548 1.07-.034.31-1.238 1.207-1.582 1s-.102-1.795.036-2.07zm18.88 8.18c-.79-.45-8.46-4.452-8.976-4.522s-12.165 6.18-12.176 6.387c-.034.62 3.473 2.106 7.875 4.626 4.4 2.52 12.345 7.147 13.033 7.596s1.65.242 2.098-.207.104-10.876.07-11.74c-.035-.862-1.135-1.69-1.926-2.14zm.378 12.43c-.55-.105-10.867-5.973-12.518-6.837s-2.89-1.795-2.854-1.968c.12-.603 7.155-5.558 7.877-5.386s7.222 3.486 7.463 3.97.583 10.323.033 10.22zM42.94 33.924c-.996-.138-9.104 4.164-9.284 4.8-.138.482.757 10.32.825 10.632s.587.898 1.274 1.07c.688.173 2.304-.483 4.918-1.864 2.615-1.38 12.38-7.112 12.725-7.7.344-.586.172-1.45-.07-1.83-.24-.38-9.387-4.97-10.384-5.108zm.344 11.565c-3.473 2.037-6.465 3.867-6.947 3.418s-1.135-7.146-1.1-7.63c.03-.43 8.907-5.247 9.8-4.902s6.982 3.004 7.017 3.59-5.296 3.487-8.77 5.524zm13.48-20.783c-.515 0-7.91 4.524-7.943 4.833-.17 1.588 3.68 2.313 5.367 3.004s3.336 1.415 3.748.932.138-4.453.07-6.628-.723-2.14-1.24-2.14zm-.205 7.112c-.483-.175-4.954-2.004-5.264-2.28-.346-.31 4.78-3.177 5.158-2.83.38.344.585 5.28.104 5.11z"/></svg>