<?xml version="1.0" ?><svg id="Layer_1" style="enable-background:new 0 0 512 512;" version="1.1" viewBox="0 0 512 512" xml:space="preserve" xmlns="http://www.w3.org/2000/svg" xmlns:xlink="http://www.w3.org/1999/xlink"><style type="text/css">
	.st0{fill:#EF3343;}
</style><g id="XMLID_847_"><path class="st0" d="M114.2,326.1h-11.4v51.3h11.4c5.6,0,10.1-1.9,13.4-5.7c3.3-3.8,5-8.7,5-14.6v-10.7   c0-5.9-1.7-10.7-5-14.5C124.3,328,119.8,326.1,114.2,326.1z" id="XMLID_856_"/><path class="st0" d="M365.6,285.9H40.3v133.9h276.3L365.6,285.9z M144.2,357.1c0,8.8-2.8,15.9-8.3,21.4   c-5.6,5.5-12.8,8.3-21.7,8.3H91.1v-70h23.1c8.9,0,16.1,2.8,21.7,8.3c5.6,5.5,8.3,12.7,8.3,21.4V357.1z M220.3,386.7h-10.6l-14-49.8   h-0.3l-14,49.8h-10.7l-16.6-70h12.3l10.4,50.4h0.3l13.3-50.4h10.3l13.4,50.5h0.3l10.3-50.5h12.3L220.3,386.7z M293.4,326.1h-33.1   v21.4h28.2v9.4h-28.2v29.9h-11.7v-70h44.8V326.1z" id="XMLID_851_"/><path class="st0" d="M352.9,6L352.9,6L107.4,6c-7.3,0-13.3,6-13.3,13.3v256.8h26.6V32.6h232.2v92.2h92.2v354.6   H120.7v-49.8H94.1v63.1c0,7.3,6,13.3,13.3,13.3h351c7.3,0,13.3-6,13.3-13.3V124.8L352.9,6z" id="XMLID_850_"/><rect class="st0" height="19.6" id="XMLID_849_" width="253.4" x="156.2" y="171.4"/><rect class="st0" height="19.6" id="XMLID_848_" width="213.3" x="156.2" y="209.5"/></g></svg>