<?xml version="1.0" ?><svg id="Layer_1" style="enable-background:new 0 0 512 512;" version="1.1" viewBox="0 0 512 512" xml:space="preserve" xmlns="http://www.w3.org/2000/svg" xmlns:xlink="http://www.w3.org/1999/xlink"><style type="text/css">
	.st0{fill:#2F9DD9;}
</style><g id="XMLID_828_"><path class="st0" d="M365.6,285.9H40.3v133.9h276.3L365.6,285.9z M146.1,366.6c0,6.5-2,11.7-6,15.6   c-4,3.9-9.1,5.8-15.4,5.8c-6.7,0-12-1.7-15.9-5.1c-3.9-3.4-5.8-8.4-5.7-15l0.1-0.3h11c0,3.9,0.9,6.7,2.8,8.6   c1.9,1.9,4.4,2.8,7.7,2.8c3,0,5.4-1.1,7.3-3.4c1.9-2.2,2.8-5.2,2.8-9V319h11.3V366.6z M206.9,355.5c-4.3,3.8-10.1,5.8-17.6,5.8   h-14.7V387h-11.4v-68h26.1c7.5,0,13.4,1.9,17.6,5.8c4.3,3.9,6.4,9,6.4,15.3C213.3,346.5,211.1,351.6,206.9,355.5z M277.4,377.8   c-1.9,2.6-4.9,5-8.9,7.1c-4.1,2.1-9.4,3.1-15.9,3.1c-8,0-14.6-2.6-19.8-7.8c-5.2-5.2-7.8-11.9-7.8-20.1v-14.2   c0-8.2,2.5-14.9,7.5-20.1c5-5.2,11.5-7.8,19.3-7.8c7.9,0,14.1,2,18.5,6c4.4,4,6.6,9.2,6.4,15.6l-0.1,0.3h-10.8   c0-3.8-1.2-6.9-3.6-9.3c-2.4-2.3-5.8-3.5-10.3-3.5c-4.7,0-8.5,1.8-11.4,5.3c-2.9,3.5-4.3,8-4.3,13.4v14.3c0,5.5,1.5,10,4.5,13.5   c3,3.5,6.9,5.3,11.8,5.3c3.6,0,6.5-0.4,8.6-1.2c2.1-0.8,3.7-1.8,4.8-3v-14.1h-14.3v-8.5h25.6V377.8z" id="XMLID_833_"/><path class="st0" d="M189.2,328.1h-14.7v24h14.7c4.2,0,7.4-1.1,9.5-3.4c2.1-2.2,3.2-5.1,3.2-8.6   c0-3.5-1.1-6.3-3.2-8.6C196.6,329.3,193.5,328.1,189.2,328.1z" id="XMLID_832_"/><path class="st0" d="M352.9,6L352.9,6H107.4c-7.3,0-13.3,6-13.3,13.3v256.8h26.6V32.6h232.2v92.2h92.2v354.6H120.7   v-49.8H94.1v63.1c0,7.3,6,13.3,13.3,13.3h351c7.3,0,13.3-6,13.3-13.3V124.8L352.9,6z" id="XMLID_831_"/><rect class="st0" height="19.6" id="XMLID_830_" width="253.4" x="156.2" y="171.4"/><rect class="st0" height="19.6" id="XMLID_829_" width="213.3" x="156.2" y="209.5"/></g></svg>