<?xml version="1.0" ?><svg id="Layer_1" style="enable-background:new 0 0 512 512;" version="1.1" viewBox="0 0 512 512" xml:space="preserve" xmlns="http://www.w3.org/2000/svg" xmlns:xlink="http://www.w3.org/1999/xlink"><style type="text/css">
	.st0{fill:#11B24C;}
</style><g id="XMLID_649_"><path class="st0" d="M365.6,285.9H40.3v133.9h276.3L365.6,285.9z M155.2,389.1h-11.7v-50.3l-0.3,0l-19.3,50.3h-8   l-19.6-51.3l-0.3,0.1v51.2H84.3v-70h15.3l20.1,53.8h0.3l20.2-53.8h14.9V389.1z M213.1,389.1l-22.8-30.3h-5.7v30.3h-11.7v-70h11.7   v29.7h4.6l22.7-29.7h13.7l0.1,0.2l-26.3,32.9l28.4,36.9H213.1z M268,389.1h-11.1l-25-70h12.5l16.7,51l1.3,5.1h0.3l1.2-5l16.7-51.1   H293L268,389.1z" id="XMLID_653_"/><path class="st0" d="M352.9,6L352.9,6L107.4,6c-7.3,0-13.3,6-13.3,13.3v256.8h26.6V32.6h232.2v92.2h92.2v354.6   H120.7v-49.8H94.1v63.1c0,7.3,6,13.3,13.3,13.3h351c7.3,0,13.3-6,13.3-13.3V124.8L352.9,6z" id="XMLID_652_"/><rect class="st0" height="19.6" id="XMLID_651_" width="253.4" x="156.2" y="171.4"/><rect class="st0" height="19.6" id="XMLID_650_" width="213.3" x="156.2" y="209.5"/></g></svg>