<?xml version="1.0" ?><svg id="Layer_1" style="enable-background:new 0 0 512 512;" version="1.1" viewBox="0 0 512 512" xml:space="preserve" xmlns="http://www.w3.org/2000/svg" xmlns:xlink="http://www.w3.org/1999/xlink"><style type="text/css">
	.st0{fill:#F47822;}
</style><g id="XMLID_908_"><path class="st0" d="M365.6,285.9H40.3v133.9h276.3L365.6,285.9z M164.2,387h-11.4v-48.9l-0.3,0L133.8,387H126   l-19.1-49.9l-0.3,0.1V387H95.3v-68h14.9l19.5,52.3h0.3l19.7-52.3h14.5V387z M225.1,355.5c-4.3,3.8-10.1,5.8-17.6,5.8h-14.7V387   h-11.4v-68h26.1c7.5,0,13.4,1.9,17.6,5.8c4.3,3.9,6.4,9,6.4,15.3C231.5,346.5,229.3,351.6,225.1,355.5z M281.6,382.7   c-4.2,3.6-9.6,5.3-16.3,5.3c-6,0-11.2-1.7-15.7-5.1c-4.5-3.4-6.7-8-6.5-13.9l0.1-0.3h10.9c0,2.9,1.1,5.3,3.2,7.2   c2.1,1.9,4.8,2.9,8.1,2.9c3.4,0,6.2-1,8.2-3.1c2-2,3-4.7,3-7.9c0-3.9-0.9-6.7-2.8-8.6c-1.9-1.9-4.7-2.9-8.6-2.9h-7.6v-8.9h7.6   c3.7,0,6.3-0.9,7.9-2.8c1.6-1.8,2.4-4.4,2.4-7.7c0-3-0.9-5.4-2.6-7.2c-1.7-1.9-4.3-2.8-7.6-2.8c-3.1,0-5.6,0.9-7.6,2.7   c-2,1.8-3,4.1-3,6.8h-10.9l-0.1-0.3c-0.2-5.2,1.8-9.6,6-13.1c4.2-3.5,9.4-5.3,15.7-5.3c6.6,0,11.9,1.6,15.7,4.9   c3.8,3.3,5.8,8,5.8,14.2c0,3.1-0.8,6-2.5,8.6c-1.7,2.6-4.1,4.6-7.1,6.1c3.5,1.4,6.1,3.4,7.9,6.2c1.8,2.8,2.8,6.1,2.8,10   C287.9,374.2,285.8,379.1,281.6,382.7z" id="XMLID_913_"/><path class="st0" d="M207.4,328.1h-14.7v24h14.7c4.2,0,7.4-1.1,9.5-3.4c2.1-2.2,3.2-5.1,3.2-8.6   c0-3.5-1.1-6.3-3.2-8.6C214.8,329.3,211.6,328.1,207.4,328.1z" id="XMLID_912_"/><path class="st0" d="M352.9,6L352.9,6H107.4c-7.3,0-13.3,6-13.3,13.3v256.8h26.6V32.6h232.2v92.2h92.2v354.6H120.7   v-49.8H94.1v63.1c0,7.3,6,13.3,13.3,13.3h351c7.3,0,13.3-6,13.3-13.3V124.8L352.9,6z" id="XMLID_911_"/><rect class="st0" height="19.6" id="XMLID_910_" width="253.4" x="156.2" y="171.4"/><rect class="st0" height="19.6" id="XMLID_909_" width="213.3" x="156.2" y="209.5"/></g></svg>