<?xml version="1.0" encoding="UTF-8"?><svg id="Ebene_2" xmlns="http://www.w3.org/2000/svg" viewBox="0 0 218.38 76.58"><g id="Ebene_1-2"><path d="m111.78,5.17c-1.36-.05-2.71.1-4,.43l6.09,17.65-16.26-7.39c-.23.94-.37,1.91-.41,2.9-.13,3.76,1.21,7.35,3.78,10.11,2.57,2.76,6.06,4.34,9.82,4.48.17,0,.33,0,.5,0,7.55,0,13.82-6,14.09-13.61.27-7.77-5.83-14.31-13.6-14.58Z" fill="#c5c6c6"/><polygon points="103.74 0 91.65 10.96 110.47 19.51 103.74 0" fill="#005e9e"/><polygon points="17.22 46.15 6.75 46.15 6.75 39.01 0 39.01 0 58.94 6.75 58.94 6.75 51.04 17.22 51.04 17.22 58.94 23.97 58.94 23.97 39.01 17.22 39.01 17.22 46.15" fill="#005e9e"/><polygon points="35.05 51.19 47.3 51.19 47.3 46.3 35.05 46.3 35.05 43.9 47.97 43.9 47.97 39.01 28.3 39.01 28.3 58.94 48.65 58.94 48.65 54.05 35.05 54.05 35.05 51.19" fill="#005e9e"/><path d="m70.74,52.57c-.78.67-1.62,1.17-2.51,1.47-.91.31-1.86.47-2.82.47-1.28,0-2.44-.16-3.46-.46-1-.3-1.87-.72-2.58-1.24-.68-.5-1.21-1.1-1.58-1.77-.36-.67-.54-1.38-.54-2.18,0-.73.17-1.38.53-2.01.37-.65.9-1.23,1.58-1.72.71-.51,1.58-.92,2.58-1.22,1.69-.5,3.89-.67,5.99-.13.79.2,1.64.63,2.51,1.26l.49.35,5.67-2.8-1.27-.98c-1.43-1.1-3-1.9-4.66-2.36-1.63-.45-3.41-.68-5.3-.68-2.14,0-4.13.24-5.92.7-1.82.47-3.42,1.16-4.75,2.05-1.36.91-2.45,2.02-3.22,3.32-.79,1.33-1.2,2.81-1.2,4.43s.4,3.04,1.2,4.35c.78,1.27,1.86,2.37,3.22,3.26,1.33.88,2.93,1.56,4.75,2.03,1.8.47,3.79.7,5.92.7s4-.27,5.82-.8c1.88-.55,3.49-1.44,4.81-2.66l1.08-1-5.84-2.79-.49.43Z" fill="#005e9e"/><path d="m102.31,41.23c-1.35-.89-2.96-1.57-4.79-2.02-1.74-.43-3.67-.65-5.73-.65-2.2,0-4.3.22-6.16.7-1.82.47-3.42,1.16-4.75,2.05-1.36.91-2.45,2.02-3.22,3.32-.79,1.33-1.2,2.81-1.2,4.43s.4,3.04,1.2,4.35c.78,1.27,1.86,2.37,3.22,3.26,1.33.88,2.93,1.56,4.75,2.03,1.8.47,3.79.7,5.93.7,2.16-.02,4.17-.27,5.98-.76,1.83-.49,3.44-1.19,4.78-2.07,1.37-.91,2.47-2.01,3.24-3.28.8-1.3,1.2-2.77,1.2-4.35s-.4-3.1-1.2-4.42c-.78-1.29-1.87-2.4-3.25-3.31Zm-10.72,13.28c-1.28,0-2.44-.16-3.46-.46-1-.3-1.87-.72-2.58-1.24-.68-.5-1.21-1.1-1.58-1.77-.36-.67-.54-1.38-.54-2.18,0-.73.17-1.38.53-2.01.37-.65.9-1.23,1.58-1.72.71-.51,1.58-.92,2.58-1.22,1.02-.3,2.19-.45,3.47-.45s2.45.15,3.49.45c1.01.29,1.89.71,2.59,1.22.68.49,1.21,1.07,1.58,1.72.36.63.53,1.29.53,2.02,0,.8-.18,1.51-.54,2.18-.37.68-.9,1.27-1.58,1.77-.71.52-1.58.94-2.6,1.24-1.03.31-2.2.46-3.48.46Z" fill="#005e9e"/><polygon points="109.66 58.94 116.41 58.94 116.41 51.49 128.16 51.49 128.16 46.61 116.41 46.61 116.41 43.9 128.88 43.9 128.88 39.01 109.66 39.01 109.66 58.94" fill="#005e9e"/><path d="m156.09,41.23c-1.35-.89-2.96-1.57-4.79-2.02-1.74-.43-3.67-.65-5.73-.65-2.22,0-4.3.22-6.16.7-1.82.47-3.42,1.16-4.75,2.05-1.37.91-2.45,2.02-3.22,3.32-.79,1.32-1.2,2.81-1.2,4.43s.41,3.04,1.2,4.35c.77,1.27,1.86,2.36,3.22,3.26,1.33.88,2.93,1.56,4.75,2.03,1.8.47,3.79.7,5.93.7,2.16-.02,4.17-.27,5.98-.76,1.83-.49,3.44-1.19,4.78-2.07,1.38-.91,2.47-2.01,3.24-3.28.8-1.3,1.2-2.77,1.2-4.35s-.4-3.1-1.2-4.42c-.78-1.29-1.87-2.4-3.25-3.31Zm-10.72,13.28c-1.28,0-2.44-.16-3.46-.46-1-.3-1.87-.72-2.58-1.24-.68-.5-1.21-1.1-1.58-1.77-.36-.67-.54-1.38-.54-2.18,0-.73.17-1.38.53-2.01.37-.65.9-1.23,1.58-1.72.71-.51,1.58-.92,2.58-1.22,1.02-.3,2.19-.45,3.47-.45s2.45.15,3.49.45c1.01.29,1.89.71,2.59,1.22.68.49,1.21,1.07,1.58,1.72.36.63.53,1.29.53,2.02,0,.8-.18,1.51-.54,2.18-.37.68-.9,1.28-1.58,1.77-.71.52-1.58.94-2.6,1.24-1.03.31-2.2.46-3.48.46Z" fill="#005e9e"/><path d="m182.68,49.19c1.3-1.07,1.97-2.43,1.97-4.04,0-1.25-.36-2.31-1.06-3.15-.65-.78-1.53-1.4-2.6-1.85-1.01-.42-2.16-.72-3.44-.89-1.23-.17-2.53-.25-3.84-.25h-10.27v19.93h6.75v-7.6h1.99l6.18,7.6h8.44l-7.36-8.23c1.32-.31,2.41-.82,3.25-1.52Zm-12.5-5.45h3.11c.57,0,1.17.02,1.79.07.57.04,1.08.14,1.54.28.37.11.66.27.87.48.09.09.19.23.19.55,0,.41-.12.57-.21.65-.23.22-.56.39-.97.5-.49.14-1.05.23-1.65.27-.66.04-1.31.06-1.97.06h-2.69v-2.86Z" fill="#005e9e"/><polygon points="209.64 39.01 203.02 50.55 196.48 39.01 187.66 39.01 187.66 58.94 194.19 58.94 194.19 46.84 200.77 58.94 205.27 58.94 211.86 46.84 211.86 58.94 218.38 58.94 218.38 39.01 209.64 39.01" fill="#005e9e"/><path d="m29.36,67.65h3.03c.61,0,1.15.07,1.61.21s.86.33,1.2.56c.34.23.62.5.85.81.22.3.4.62.53.93s.23.64.28.96c.06.32.09.62.09.89,0,.56-.1,1.1-.31,1.62-.2.52-.51.98-.91,1.39-.4.41-.9.73-1.49.98-.59.25-1.28.37-2.05.37h-2.83v-8.71Zm1.18,7.6h1.48c.5,0,.97-.07,1.42-.2.45-.14.84-.34,1.17-.61.34-.27.6-.61.8-1.01.2-.41.29-.88.29-1.42,0-.28-.04-.6-.13-.98s-.26-.73-.51-1.06c-.25-.34-.59-.62-1.04-.85s-1.01-.35-1.72-.35h-1.77v6.49Z" fill="#9a9a9a"/><path d="m38.36,70.53h1.1v.9h.02c.07-.16.17-.3.29-.42.12-.13.26-.24.41-.33.15-.09.32-.16.5-.21.18-.05.36-.08.54-.08s.34.02.49.07l-.05,1.19c-.09-.02-.18-.04-.27-.06s-.18-.02-.27-.02c-.54,0-.95.15-1.24.46-.29.3-.43.77-.43,1.41v2.93h-1.1v-5.83Z" fill="#9a9a9a"/><path d="m43.52,73.85c0,.25.06.49.17.69s.26.39.44.54c.18.15.39.26.62.34.24.08.48.12.74.12.34,0,.64-.08.9-.24s.49-.37.7-.63l.83.64c-.61.8-1.47,1.19-2.57,1.19-.46,0-.87-.08-1.24-.23-.37-.16-.69-.37-.94-.65-.26-.28-.46-.6-.59-.97-.14-.37-.21-.78-.21-1.21s.08-.84.23-1.21.36-.7.63-.97c.27-.27.58-.49.95-.65.37-.16.77-.23,1.2-.23.52,0,.95.09,1.31.27.36.18.65.42.88.71.23.29.39.62.5.98.1.36.15.74.15,1.11v.39h-4.66Zm3.48-.89c0-.25-.05-.47-.12-.68-.07-.21-.17-.38-.31-.54-.14-.15-.31-.27-.52-.36s-.45-.13-.73-.13-.52.05-.74.15c-.22.1-.41.24-.57.4-.16.16-.28.35-.36.55s-.13.4-.13.6h3.48Z" fill="#9a9a9a"/><path d="m49.51,67.06h1.1v4.37h.02c.14-.31.38-.56.72-.76.34-.19.74-.29,1.19-.29.28,0,.55.04.8.13.26.09.48.22.67.4.19.18.35.41.46.7.11.28.17.62.17,1v3.75h-1.1v-3.44c0-.27-.04-.5-.11-.69-.07-.19-.17-.35-.29-.47s-.26-.21-.42-.26c-.16-.05-.33-.08-.5-.08-.23,0-.44.04-.64.11-.2.07-.37.19-.52.35s-.26.36-.34.61c-.08.25-.12.54-.12.87v3h-1.1v-9.3Z" fill="#9a9a9a"/><path d="m57.16,73.85c0,.25.06.49.17.69s.26.39.44.54c.18.15.39.26.62.34.24.08.48.12.74.12.34,0,.64-.08.9-.24s.49-.37.7-.63l.83.64c-.61.8-1.47,1.19-2.57,1.19-.46,0-.87-.08-1.24-.23-.37-.16-.69-.37-.94-.65-.26-.28-.46-.6-.59-.97-.14-.37-.21-.78-.21-1.21s.08-.84.23-1.21.36-.7.63-.97c.27-.27.58-.49.95-.65.37-.16.77-.23,1.2-.23.52,0,.95.09,1.31.27.36.18.65.42.88.71.23.29.39.62.5.98.1.36.15.74.15,1.11v.39h-4.66Zm3.48-.89c0-.25-.05-.47-.12-.68-.07-.21-.17-.38-.31-.54-.14-.15-.31-.27-.52-.36s-.45-.13-.73-.13-.52.05-.74.15c-.22.1-.41.24-.57.4-.16.16-.28.35-.36.55s-.13.4-.13.6h3.48Z" fill="#9a9a9a"/><path d="m63.14,70.53h1.1v.9h.02c.14-.31.38-.56.72-.76.34-.19.74-.29,1.19-.29.28,0,.55.04.8.13.26.09.48.22.67.4.19.18.35.41.46.7.11.28.17.62.17,1v3.75h-1.1v-3.44c0-.27-.04-.5-.11-.69-.07-.19-.17-.35-.29-.47s-.26-.21-.42-.26c-.16-.05-.33-.08-.5-.08-.23,0-.44.04-.64.11-.2.07-.37.19-.52.35s-.26.36-.34.61c-.08.25-.12.54-.12.87v3h-1.1v-5.83Z" fill="#9a9a9a"/><path d="m73.65,67.65h1.18v8.71h-1.18v-8.71Z" fill="#9a9a9a"/><path d="m80.47,67.65h5.46v1.11h-4.28v2.73h3.98v1.11h-3.98v3.76h-1.18v-8.71Z" fill="#9a9a9a"/><path d="m87.22,70.53h1.1v.9h.02c.07-.16.17-.3.29-.42.12-.13.26-.24.41-.33.15-.09.32-.16.5-.21.18-.05.36-.08.54-.08s.34.02.49.07l-.05,1.19c-.09-.02-.18-.04-.27-.06s-.18-.02-.27-.02c-.54,0-.95.15-1.24.46-.29.3-.43.77-.43,1.41v2.93h-1.1v-5.83Z" fill="#9a9a9a"/><path d="m91.78,71.24c.31-.29.67-.5,1.08-.65.41-.14.82-.21,1.23-.21s.79.05,1.1.16c.31.11.56.25.75.43.2.18.34.39.44.62.09.23.14.48.14.73v2.98c0,.21,0,.39.01.57,0,.17.02.34.04.49h-.98c-.02-.29-.04-.59-.04-.89h-.02c-.25.38-.54.64-.87.8-.34.16-.72.23-1.17.23-.27,0-.53-.04-.77-.11-.25-.07-.46-.18-.64-.33s-.33-.33-.44-.55c-.11-.22-.16-.47-.16-.76,0-.38.08-.69.25-.95s.4-.46.69-.62c.29-.16.63-.27,1.02-.34.39-.07.8-.1,1.24-.1h.81v-.25c0-.15-.03-.29-.09-.44s-.14-.28-.26-.4c-.11-.12-.26-.21-.43-.28-.17-.07-.38-.1-.61-.1-.21,0-.4.02-.56.06-.16.04-.3.09-.44.15s-.25.13-.36.21c-.11.08-.21.16-.31.23l-.66-.69Zm1.08-3.67c.19,0,.36.07.52.2.16.13.24.3.24.5,0,.22-.07.41-.21.55s-.32.22-.55.22-.4-.07-.55-.22-.21-.33-.21-.55c0-.21.08-.37.24-.5.16-.13.33-.2.52-.2Zm2.04,5.98c-.26,0-.53.01-.8.04-.27.03-.52.08-.75.17-.23.08-.41.2-.55.34-.14.15-.21.34-.21.57,0,.34.11.58.34.73.22.15.53.22.91.22.3,0,.56-.05.77-.15.21-.1.38-.24.51-.4s.23-.35.28-.55.09-.4.09-.6v-.37h-.59Zm.47-5.98c.19,0,.36.07.52.2.16.13.24.3.24.5,0,.22-.07.41-.21.55s-.32.22-.55.22-.4-.07-.55-.22-.21-.33-.21-.55c0-.21.08-.37.24-.5.16-.13.33-.2.52-.2Z" fill="#9a9a9a"/><path d="m101.21,71.99c-.13-.16-.29-.3-.48-.41-.19-.11-.43-.17-.71-.17-.26,0-.49.05-.68.17-.19.11-.29.27-.29.49,0,.17.06.31.17.42.11.11.24.19.39.26.15.07.31.12.48.15.17.03.32.06.44.09.24.06.46.13.67.21.21.08.39.19.54.32s.27.29.36.48c.09.19.13.42.13.69,0,.33-.07.61-.21.84-.14.23-.32.42-.54.57s-.47.25-.75.32-.57.1-.85.1c-.48,0-.91-.07-1.27-.22-.36-.15-.69-.42-.98-.81l.83-.69c.18.18.38.34.6.48s.49.21.81.21c.14,0,.28-.01.42-.04.14-.03.27-.07.38-.13.11-.06.2-.14.27-.23.07-.09.1-.2.1-.33,0-.16-.05-.3-.15-.41-.1-.11-.23-.19-.37-.25s-.29-.11-.45-.15c-.16-.04-.3-.07-.42-.09-.24-.06-.46-.12-.67-.2-.21-.07-.4-.17-.56-.29s-.29-.28-.39-.47c-.1-.19-.15-.42-.15-.7,0-.3.06-.57.19-.79.13-.23.29-.41.5-.56s.45-.26.71-.33c.27-.07.53-.11.8-.11.39,0,.77.07,1.13.22.36.15.65.39.86.74l-.86.65Z" fill="#9a9a9a"/><path d="m104.4,73.85c0,.25.06.49.17.69s.26.39.44.54c.18.15.39.26.62.34.24.08.48.12.74.12.34,0,.64-.08.9-.24s.49-.37.7-.63l.83.64c-.61.8-1.47,1.19-2.57,1.19-.46,0-.87-.08-1.24-.23-.37-.16-.69-.37-.94-.65-.26-.28-.46-.6-.59-.97-.14-.37-.21-.78-.21-1.21s.08-.84.23-1.21.36-.7.63-.97c.27-.27.58-.49.95-.65.37-.16.77-.23,1.2-.23.52,0,.95.09,1.31.27.36.18.65.42.88.71.23.29.39.62.5.98.1.36.15.74.15,1.11v.39h-4.66Zm3.48-.89c0-.25-.05-.47-.12-.68-.07-.21-.17-.38-.31-.54-.14-.15-.31-.27-.52-.36s-.45-.13-.73-.13-.52.05-.74.15c-.22.1-.41.24-.57.4-.16.16-.28.35-.36.55s-.13.4-.13.6h3.48Z" fill="#9a9a9a"/><path d="m110.38,70.53h1.1v.9h.02c.14-.31.38-.56.72-.76.34-.19.74-.29,1.19-.29.28,0,.54.04.8.13s.48.22.67.4c.19.18.35.41.46.7.11.28.17.62.17,1v3.75h-1.1v-3.44c0-.27-.04-.5-.11-.69s-.17-.35-.29-.47-.26-.21-.42-.26c-.16-.05-.33-.08-.5-.08-.23,0-.44.04-.64.11-.2.07-.37.19-.51.35-.15.16-.26.36-.34.61-.08.25-.12.54-.12.87v3h-1.1v-5.83Z" fill="#9a9a9a"/><path d="m120.89,67.65h1.18v8.71h-1.18v-8.71Z" fill="#9a9a9a"/><path d="m128.73,67.65v5.34c0,.27.04.55.11.84.07.29.2.56.37.81.17.25.4.45.67.6.28.16.62.23,1.03.23s.75-.08,1.03-.23c.28-.16.5-.36.67-.6s.29-.51.37-.81c.07-.29.11-.57.11-.84v-5.34h1.18v5.52c0,.51-.09.97-.26,1.38-.17.41-.41.77-.71,1.08s-.66.54-1.07.7c-.41.16-.85.25-1.32.25s-.92-.08-1.32-.25c-.41-.16-.76-.4-1.07-.7-.3-.3-.54-.66-.71-1.08s-.26-.88-.26-1.38v-5.52h1.18Z" fill="#9a9a9a"/><path d="m136.06,70.53h1.03v.91h.02c.02-.08.09-.18.19-.31s.23-.24.39-.35.35-.21.56-.28c.22-.08.46-.12.72-.12.43,0,.8.09,1.09.27.29.18.54.45.72.81.19-.36.45-.63.8-.81.34-.18.69-.27,1.04-.27.45,0,.82.07,1.1.22.29.15.51.34.67.58.16.24.28.52.34.82.06.31.09.62.09.95v3.39h-1.1v-3.25c0-.22-.01-.43-.04-.64s-.09-.39-.18-.54c-.09-.16-.22-.28-.38-.38-.16-.09-.38-.14-.65-.14-.53,0-.91.16-1.14.49-.23.33-.34.75-.34,1.27v3.19h-1.1v-3.05c0-.28-.01-.53-.04-.76-.03-.23-.09-.43-.17-.6s-.21-.3-.37-.39c-.16-.09-.37-.14-.64-.14-.2,0-.39.04-.57.12-.18.08-.34.2-.48.35-.14.16-.25.36-.33.6-.08.24-.12.53-.12.86v3.03h-1.1v-5.83Z" fill="#9a9a9a"/><path d="m146.94,71.49h-1.25v-.96h1.25v-1.3c0-.78.15-1.36.45-1.74.3-.38.81-.57,1.54-.57.12,0,.25,0,.39.01.13,0,.28.03.44.07l-.12.98c-.11-.04-.21-.07-.31-.09-.1-.02-.2-.03-.32-.03-.21,0-.37.03-.49.09-.12.06-.22.15-.29.26-.07.11-.11.25-.13.41-.02.16-.03.34-.03.55v1.34h1.31v.96h-1.32v4.87h-1.1v-4.87Z" fill="#9a9a9a"/><path d="m150.31,73.44c0-.43.08-.82.24-1.19s.38-.69.66-.97c.28-.28.6-.5.98-.66.38-.16.78-.24,1.21-.24s.84.08,1.21.24c.38.16.7.38.98.66.28.28.5.6.66.97.16.37.24.77.24,1.19s-.08.83-.24,1.2c-.16.37-.38.7-.66.97-.28.27-.61.49-.98.65-.38.16-.78.24-1.21.24s-.84-.08-1.21-.24c-.38-.16-.7-.38-.98-.65-.28-.27-.5-.6-.66-.97s-.24-.77-.24-1.2Zm1.18,0c0,.29.04.57.14.82.09.25.22.46.38.64.16.18.36.32.6.42s.5.15.8.15.56-.05.8-.15.44-.24.6-.42c.16-.18.29-.39.38-.64.09-.25.13-.52.13-.82s-.04-.57-.13-.82c-.09-.25-.22-.46-.38-.64-.16-.18-.36-.32-.6-.42s-.5-.15-.8-.15-.56.05-.8.15-.44.24-.6.42c-.16.18-.29.39-.38.64-.09.25-.14.52-.14.82Z" fill="#9a9a9a"/><path d="m157.87,70.53h1.1v.9h.02c.07-.16.17-.3.29-.42.12-.13.26-.24.41-.33.15-.09.32-.16.5-.21.18-.05.36-.08.54-.08s.34.02.49.07l-.05,1.19c-.09-.02-.18-.04-.27-.06-.09-.02-.18-.02-.27-.02-.54,0-.95.15-1.24.46s-.43.77-.43,1.41v2.93h-1.1v-5.83Z" fill="#9a9a9a"/><path d="m162.62,70.53h1.03v.91h.02c.02-.08.09-.18.19-.31s.23-.24.39-.35.35-.21.56-.28c.22-.08.46-.12.72-.12.43,0,.8.09,1.09.27.29.18.54.45.72.81.19-.36.45-.63.8-.81.34-.18.69-.27,1.04-.27.45,0,.82.07,1.1.22.29.15.51.34.67.58.16.24.28.52.34.82.06.31.09.62.09.95v3.39h-1.1v-3.25c0-.22-.01-.43-.04-.64s-.09-.39-.18-.54c-.09-.16-.22-.28-.38-.38-.16-.09-.38-.14-.65-.14-.53,0-.91.16-1.14.49-.23.33-.34.75-.34,1.27v3.19h-1.1v-3.05c0-.28-.01-.53-.04-.76-.03-.23-.09-.43-.17-.6s-.21-.3-.37-.39c-.16-.09-.37-.14-.64-.14-.2,0-.39.04-.57.12-.18.08-.34.2-.48.35-.14.16-.25.36-.33.6-.08.24-.12.53-.12.86v3.03h-1.1v-5.83Z" fill="#9a9a9a"/><path d="m173.9,73.85c0,.25.05.49.17.69s.26.39.44.54.39.26.62.34.48.12.74.12c.34,0,.64-.08.89-.24.25-.16.49-.37.7-.63l.83.64c-.61.8-1.47,1.19-2.58,1.19-.46,0-.87-.08-1.25-.23-.37-.16-.69-.37-.94-.65-.26-.28-.46-.6-.59-.97-.14-.37-.21-.78-.21-1.21s.08-.84.23-1.21c.15-.37.36-.7.62-.97.27-.27.58-.49.95-.65.37-.16.77-.23,1.2-.23.52,0,.95.09,1.31.27s.65.42.88.71c.23.29.39.62.5.98.1.36.15.74.15,1.11v.39h-4.66Zm3.48-.89c0-.25-.05-.47-.12-.68s-.17-.38-.31-.54c-.14-.15-.31-.27-.52-.36-.21-.09-.45-.13-.73-.13s-.52.05-.74.15c-.23.1-.42.24-.57.4-.16.16-.28.35-.36.55-.08.2-.13.4-.13.6h3.48Z" fill="#9a9a9a"/><path d="m179.88,70.53h1.1v.9h.02c.14-.31.38-.56.72-.76.34-.19.74-.29,1.19-.29.28,0,.54.04.8.13s.48.22.67.4c.19.18.34.41.46.7.11.28.17.62.17,1v3.75h-1.1v-3.44c0-.27-.04-.5-.11-.69-.07-.19-.17-.35-.29-.47s-.26-.21-.42-.26c-.16-.05-.33-.08-.5-.08-.23,0-.44.04-.64.11-.2.07-.37.19-.51.35s-.26.36-.34.61c-.08.25-.12.54-.12.87v3h-1.1v-5.83Z" fill="#9a9a9a"/></g></svg>