<?xml version="1.0" ?><svg id="Layer_1" style="enable-background:new 0 0 512 512;" version="1.1" viewBox="0 0 512 512" xml:space="preserve" xmlns="http://www.w3.org/2000/svg" xmlns:xlink="http://www.w3.org/1999/xlink"><g><path d="M246.8,44.8L224.5,6H113.4v38.8H77v354.3L184.6,506H435V44.8H246.8z M128.6,140.5c3.3-4.3,9-4.7,12.7-0.9l17.9,18.2V75.2   c0-5.7,4-10.4,9-10.4s9,4.6,9,10.4v82.6l17.9-18.2c3.7-3.8,9.4-3.4,12.7,0.9c3.3,4.3,3,10.8-0.8,14.6l-32.8,33.4c0,0,0,0,0,0   l-0.1,0.1c-0.2,0.2-0.4,0.4-0.7,0.6c-0.1,0.1-0.2,0.1-0.2,0.2c-0.2,0.1-0.3,0.3-0.5,0.4c-0.1,0.1-0.2,0.1-0.3,0.2   c-0.2,0.1-0.3,0.2-0.5,0.3c-0.1,0.1-0.2,0.1-0.3,0.1c-0.2,0.1-0.4,0.2-0.5,0.2c-0.1,0-0.2,0.1-0.3,0.1c-0.2,0.1-0.4,0.1-0.6,0.2   c-0.1,0-0.2,0.1-0.3,0.1c-0.2,0-0.4,0.1-0.6,0.1c-0.1,0-0.2,0-0.2,0c-0.3,0-0.6,0.1-0.9,0.1c0,0,0,0,0,0s0,0,0,0   c-0.3,0-0.6,0-0.9-0.1c-0.1,0-0.2,0-0.2,0c-0.2,0-0.4-0.1-0.6-0.1c-0.1,0-0.2,0-0.3-0.1c-0.2-0.1-0.4-0.1-0.6-0.2   c-0.1,0-0.2-0.1-0.3-0.1c-0.2-0.1-0.4-0.1-0.5-0.2c-0.1,0-0.2-0.1-0.3-0.1c-0.2-0.1-0.3-0.2-0.5-0.3c-0.1-0.1-0.2-0.1-0.3-0.2   c-0.2-0.1-0.4-0.3-0.5-0.4c-0.1-0.1-0.2-0.1-0.2-0.2c-0.2-0.2-0.5-0.4-0.7-0.6l-0.1-0.1c0,0,0,0,0,0l-32.8-33.4   C125.6,151.3,125.3,144.8,128.6,140.5z M415.9,486.9H193.6v-97.1H96.1V63.9h17.3v121.5l55.5,50.3l55.5-50.3V63.9h191.4V486.9z"/><rect height="21.3" width="132.6" x="256" y="114.5"/><rect height="21.3" width="132.6" x="256" y="187.1"/><rect height="21.3" width="267" x="121.6" y="332.4"/><rect height="21.3" width="267" x="121.6" y="259.7"/><path d="M280.2,392.2h-24.2v63.2h10.5v-24h13.7c7,0,12.4-1.8,16.4-5.4c3.9-3.6,5.9-8.3,5.9-14.3c0-5.9-2-10.6-5.9-14.2   C292.6,394,287.1,392.2,280.2,392.2z M289,419.9c-2,2.1-4.9,3.1-8.8,3.1h-13.7v-22.3h13.7c3.9,0,6.8,1.1,8.8,3.2c2,2.1,3,4.8,3,8   S290.9,417.8,289,419.9z"/><path d="M338.7,419.3c-4.9-1.4-8.4-2.9-10.5-4.5c-2.1-1.6-3.2-3.6-3.2-6c0-2.7,1-4.8,2.9-6.5c1.9-1.7,4.7-2.5,8.2-2.5   c3.7,0,6.6,1,8.8,3c2.2,2,3.3,4.6,3.3,7.9h10.2l0.1-0.3c0.1-5.4-1.8-9.9-5.9-13.6c-4.1-3.7-9.6-5.5-16.4-5.5   c-6.4,0-11.6,1.6-15.6,4.9c-4.1,3.3-6.1,7.5-6.1,12.6c0,4.9,1.8,8.9,5.5,12c3.7,3.1,8.9,5.5,15.7,7.4c4.7,1.3,8,2.8,9.9,4.5   c1.9,1.7,2.8,3.8,2.8,6.5c0,2.7-1,4.8-3.1,6.4c-2.1,1.6-5,2.4-8.7,2.4c-3.8,0-7-1-9.6-2.9c-2.6-1.9-3.9-4.8-3.9-8.6H313l-0.1,0.3   c-0.1,6.2,2.2,11,6.9,14.4c4.8,3.4,10.4,5.1,16.8,5.1c6.7,0,12.1-1.6,16.2-4.7c4.1-3.1,6.2-7.3,6.2-12.5c0-5-1.7-9.1-5.2-12.3   C350.3,423.6,345.3,421.1,338.7,419.3z"/></g></svg>