<?xml version="1.0" ?><svg id="Layer_1" style="enable-background:new 0 0 512 512;" version="1.1" viewBox="0 0 512 512" xml:space="preserve" xmlns="http://www.w3.org/2000/svg" xmlns:xlink="http://www.w3.org/1999/xlink"><g><path d="M246.8,44.8L224.5,6H113.4v38.8H77v354.3L184.6,506H435V44.8H246.8z M128.6,140.5c3.3-4.3,9-4.7,12.7-0.9l17.9,18.2V75.2   c0-5.7,4-10.4,9-10.4s9,4.6,9,10.4v82.6l17.9-18.2c3.7-3.8,9.4-3.4,12.7,0.9c3.3,4.3,3,10.8-0.8,14.6l-32.8,33.4c0,0,0,0,0,0   l-0.1,0.1c-0.2,0.2-0.4,0.4-0.7,0.6c-0.1,0.1-0.2,0.1-0.2,0.2c-0.2,0.1-0.3,0.3-0.5,0.4c-0.1,0.1-0.2,0.1-0.3,0.2   c-0.2,0.1-0.3,0.2-0.5,0.3c-0.1,0.1-0.2,0.1-0.3,0.1c-0.2,0.1-0.4,0.2-0.5,0.2c-0.1,0-0.2,0.1-0.3,0.1c-0.2,0.1-0.4,0.1-0.6,0.2   c-0.1,0-0.2,0.1-0.3,0.1c-0.2,0-0.4,0.1-0.6,0.1c-0.1,0-0.2,0-0.2,0c-0.3,0-0.6,0.1-0.9,0.1c0,0,0,0,0,0s0,0,0,0   c-0.3,0-0.6,0-0.9-0.1c-0.1,0-0.2,0-0.2,0c-0.2,0-0.4-0.1-0.6-0.1c-0.1,0-0.2,0-0.3-0.1c-0.2-0.1-0.4-0.1-0.6-0.2   c-0.1,0-0.2-0.1-0.3-0.1c-0.2-0.1-0.4-0.1-0.5-0.2c-0.1,0-0.2-0.1-0.3-0.1c-0.2-0.1-0.3-0.2-0.5-0.3c-0.1-0.1-0.2-0.1-0.3-0.2   c-0.2-0.1-0.4-0.3-0.5-0.4c-0.1-0.1-0.2-0.1-0.2-0.2c-0.2-0.2-0.5-0.4-0.7-0.6l-0.1-0.1c0,0,0,0,0,0l-32.8-33.4   C125.6,151.3,125.3,144.8,128.6,140.5z M415.9,486.9H193.6v-97.1H96.1V63.9h17.3v121.5l55.5,50.3l55.5-50.3V63.9h191.4V486.9z"/><rect height="21.3" width="132.6" x="256" y="114.5"/><rect height="21.3" width="132.6" x="256" y="187.1"/><rect height="21.3" width="267" x="121.6" y="332.4"/><rect height="21.3" width="267" x="121.6" y="259.7"/><polygon points="231.9,402.4 249.7,402.4 249.7,453.1 259.5,453.1 259.5,402.4 277.6,402.4 277.6,394.6 231.9,394.6  "/><polygon points="331.4,394.6 319.8,394.6 307.4,416.2 295.2,394.6 283.7,394.6 301.7,423.6 283.3,453.1 294.9,453.1 307.6,431.1    320.3,453.1 332,453.1 313.4,423.6  "/><polygon points="337.4,402.4 355.2,402.4 355.2,453.1 365,453.1 365,402.4 383.1,402.4 383.1,394.6 337.4,394.6  "/></g></svg>