<?xml version="1.0" ?><svg id="Layer_1" style="enable-background:new 0 0 512 512;" version="1.1" viewBox="0 0 512 512" xml:space="preserve" xmlns="http://www.w3.org/2000/svg" xmlns:xlink="http://www.w3.org/1999/xlink"><g id="XMLID_264_"><path d="M365.6,285.9H40.3v133.9h276.3L365.6,285.9z M163.4,387.9l-5.3-16.3h-24.8l-5.4,16.3h-12.1l24.4-70h11.1   l24.1,70H163.4z M212.8,387.9h-11.1l-25-70h12.5l16.7,51l1.3,5.1h0.3l1.2-5l16.7-51.1h12.5L212.8,387.9z M261.5,387.9h-11.7v-70   h11.7V387.9z" id="XMLID_219_"/><polygon id="XMLID_218_" points="145.6,334.2 136.5,361.8 154.9,361.8 145.9,334.2  "/><path d="M352.9,6L352.9,6L107.4,6c-7.3,0-13.3,6-13.3,13.3v256.8h26.6V32.6h232.2v92.2h92.2v354.6H120.7v-49.8   H94.1v63.1c0,7.3,6,13.3,13.3,13.3h351c7.3,0,13.3-6,13.3-13.3V124.8L352.9,6z" id="XMLID_217_"/><rect height="19.6" id="XMLID_216_" width="253.4" x="156.2" y="171.4"/><rect height="19.6" id="XMLID_215_" width="213.3" x="156.2" y="209.5"/></g></svg>