<?xml version="1.0" ?><svg id="Layer_1" style="enable-background:new 0 0 512 512;" version="1.1" viewBox="0 0 512 512" xml:space="preserve" xmlns="http://www.w3.org/2000/svg" xmlns:xlink="http://www.w3.org/1999/xlink"><g id="XMLID_478_"><path d="M226.7,356H226h-15.5v22.5h15.8c4,0,7.1-0.9,9.3-2.8c2.2-1.8,3.3-4.5,3.3-8c0-3.5-1.1-6.3-3.2-8.4   C233.5,357.3,230.5,356.2,226.7,356z" id="XMLID_71_"/><path d="M231.6,344.8c2.1-1.7,3.1-4.1,3.1-7.3c0-3.5-1.1-6-3.3-7.7c-2.2-1.7-5.4-2.5-9.7-2.5h-11.3v20.1H223   C226.7,347.3,229.5,346.5,231.6,344.8z" id="XMLID_70_"/><path d="M365.6,285.9H40.3v133.9h276.3L365.6,285.9z M183.1,358.2c0,8.8-2.8,15.9-8.3,21.4   c-5.6,5.5-12.8,8.3-21.7,8.3h-23.1v-70h23.1c8.9,0,16.1,2.8,21.7,8.3c5.6,5.5,8.3,12.7,8.3,21.4V358.2z M244.1,382.7   c-4.3,3.4-10.2,5.1-17.8,5.1h-27.5v-70h22.9c7.7,0,13.8,1.6,18.1,4.8c4.4,3.2,6.5,8,6.5,14.3c0,3.1-0.9,5.8-2.6,8.3   c-1.7,2.5-4.2,4.3-7.3,5.6c4.5,0.7,7.9,2.7,10.4,5.8c2.4,3.1,3.6,6.8,3.6,11.1C250.5,374.3,248.4,379.3,244.1,382.7z" id="XMLID_66_"/><path d="M153.1,327.2h-11.4v51.3h11.4c5.6,0,10.1-1.9,13.4-5.7c3.3-3.8,5-8.7,5-14.6v-10.7c0-5.9-1.7-10.7-5-14.5   C163.1,329.1,158.7,327.2,153.1,327.2z" id="XMLID_65_"/><path d="M352.9,6L352.9,6H107.4c-7.3,0-13.3,6-13.3,13.3v256.8h26.6V32.6h232.2v92.2h92.2v354.6H120.7v-49.8H94.1   v63.1c0,7.3,6,13.3,13.3,13.3h351c7.3,0,13.3-6,13.3-13.3V124.8L352.9,6z" id="XMLID_64_"/><rect height="19.6" id="XMLID_63_" width="253.4" x="156.2" y="171.4"/><rect height="19.6" id="XMLID_62_" width="213.3" x="156.2" y="209.5"/></g></svg>