<?xml version="1.0" ?><svg id="Layer_1" style="enable-background:new 0 0 512 512;" version="1.1" viewBox="0 0 512 512" xml:space="preserve" xmlns="http://www.w3.org/2000/svg" xmlns:xlink="http://www.w3.org/1999/xlink"><g id="XMLID_244_"><path d="M261.6,327.3h-15.1V352h15.1c4.3,0,7.6-1.2,9.8-3.5c2.2-2.3,3.3-5.2,3.3-8.8c0-3.6-1.1-6.5-3.3-8.9   C269.2,328.5,266,327.3,261.6,327.3z" id="XMLID_304_"/><path d="M365.6,285.9H40.3v133.9h276.3L365.6,285.9z M141.8,355.4c-4.4,4-10.4,5.9-18.1,5.9h-15.1v26.5H96.8v-70   h26.8c7.7,0,13.8,2,18.1,6c4.4,4,6.6,9.2,6.6,15.7C148.4,346.2,146.2,351.5,141.8,355.4z M217.1,387.9h-11.7V358h-31.3v29.9h-11.7   v-70h11.7v30.8h31.3v-30.8h11.7V387.9z M279.8,355.4c-4.4,4-10.4,5.9-18.1,5.9h-15.1v26.5h-11.7v-70h26.8c7.7,0,13.8,2,18.1,6   c4.4,4,6.6,9.2,6.6,15.7C286.3,346.2,284.1,351.5,279.8,355.4z" id="XMLID_299_"/><path d="M123.6,327.3h-15.1V352h15.1c4.3,0,7.6-1.2,9.8-3.5c2.2-2.3,3.3-5.2,3.3-8.8c0-3.6-1.1-6.5-3.3-8.9   C131.2,328.5,128,327.3,123.6,327.3z" id="XMLID_298_"/><path d="M352.9,6L352.9,6L107.4,6c-7.3,0-13.3,6-13.3,13.3v256.8h26.6V32.6h232.2v92.2h92.2v354.6H120.7v-49.8   H94.1v63.1c0,7.3,6,13.3,13.3,13.3h351c7.3,0,13.3-6,13.3-13.3V124.8L352.9,6z" id="XMLID_297_"/><rect height="19.6" id="XMLID_296_" width="253.4" x="156.2" y="171.4"/><rect height="19.6" id="XMLID_295_" width="213.3" x="156.2" y="209.5"/></g></svg>