<?xml version="1.0" ?><!DOCTYPE svg  PUBLIC '-//W3C//DTD SVG 1.1//EN'  'http://www.w3.org/Graphics/SVG/1.1/DTD/svg11.dtd'><svg enable-background="new 0 0 128 128" height="128px" id="Layer_1" version="1.1" viewBox="0 0 128 128" width="128px" xml:space="preserve" xmlns="http://www.w3.org/2000/svg" xmlns:xlink="http://www.w3.org/1999/xlink"><path d="M127,101.41c0,2.242-1.818,4.061-4.061,4.061H5.061c-2.242,0-4.061-1.818-4.061-4.061V25.352  c0-2.243,1.818-4.061,4.061-4.061h117.879c2.242,0,4.061,1.818,4.061,4.061V101.41z" fill="#808080"/><g><path clip-rule="evenodd" d="M75.817,44.027c-0.316-4.002-1.534-7.756-3.183-11.379   c-1.451-3.19-0.104-6.205,3.264-7.172c1.886-0.542,4.191,0.554,5.267,2.658c1.696,3.321,2.853,6.853,3.613,10.496   c1.788,8.558,1.272,16.997-1.448,25.304c-0.507,1.548-1.074,3.075-1.809,4.526c-1.382,2.732-3.479,3.737-6.129,3.004   c-2.196-0.609-3.469-2.801-3.285-5.664c0.19-2.131,1.076-4.067,1.745-6.058c1.559-4.632,1.737-9.407,1.604-14.225   C75.442,45.006,75.232,44.409,75.817,44.027z" fill="#E6E6E6" fill-rule="evenodd"/><path clip-rule="evenodd" d="M68.777,51.187c-0.445,0.37-0.338,0.918-0.409,1.389   c-0.577,3.86-1.729,7.521-3.673,10.924c-1.386,2.426-3.255,3.451-5.464,2.921c-2.284-0.549-3.54-2.372-3.563-5.173   c-0.095-0.473,0.107-0.92,0.126-1.384c0.029-0.777,0.444-1.415,0.774-2.077c1.604-3.214,2.378-6.598,2.152-10.201   c-0.036-0.57-0.1-1.177,0.454-1.592c-0.236-2.744-0.992-5.37-2.477-7.657c-1.426-2.198-1.356-4.745,0.652-6.56   c1.716-1.551,4.118-1.393,6.397,0.343c1.657,1.323,2.542,3.158,3.286,5.062c1.599,4.088,2.372,8.32,2.106,12.72   C69.111,50.354,69.149,50.828,68.777,51.187z" fill="#E6E6E6" fill-rule="evenodd"/><path clip-rule="evenodd" d="M59.174,45.994c0.721,5.078-0.435,9.736-3.15,14.042   c-0.176,0.124-0.349,0.121-0.521-0.01c-0.911-4.276-2.64-8.133-5.733-11.312c-1.496-1.536-3.199-2.782-5.052-3.838   c-2.156-1.229-2.978-3.712-1.916-5.792c1.083-2.124,3.545-3.062,5.754-1.993c3.997,1.934,7.281,4.787,10.056,8.237   C58.794,45.556,58.987,45.772,59.174,45.994z" fill="#FFFFFF" fill-rule="evenodd"/><path clip-rule="evenodd" d="M68.777,51.187c-0.192-0.43-0.217-0.881-0.199-1.346   c0.246-6.411-1.455-12.295-4.831-17.721c4.661,2.978,8.568,6.717,11.566,11.386c0.127,0.199,0.334,0.349,0.504,0.521   c0.632,4.749,0.369,9.44-0.843,14.082c-0.694,2.664-1.691,5.209-2.867,7.69c-0.056-4.434-0.675-8.761-2.473-12.858   C69.373,52.346,69.064,51.771,68.777,51.187z" fill="#FFFFFF" fill-rule="evenodd"/><path clip-rule="evenodd" d="M55.503,60.026c0.174,0.004,0.347,0.006,0.521,0.01   c-0.119,0.403-0.238,0.808-0.356,1.211C55.544,60.85,55.412,60.453,55.503,60.026z" fill="#FFFFFF" fill-rule="evenodd"/></g><g><path clip-rule="evenodd" d="M53.988,94.901c-0.15-0.768-0.288-1.469-0.448-2.286   c-0.049-0.002-0.254-0.026-0.46-0.029c-1.542-0.025-2.674-0.759-3.175-2.062c-0.472-1.229-0.122-2.874,1.014-3.721   c0.722-0.538,1.651-0.817,2.513-1.145c0.307-0.117,0.689-0.044,1.038-0.045c1.278-0.005,2.555-0.002,3.833-0.002   c0.015,0.075,0.029,0.15,0.043,0.226c-0.62,0.151-1.241,0.305-1.928,0.473c0.092,0.113,0.196,0.253,0.314,0.38   c1.43,1.536,1.346,3.428-0.216,4.831c-0.259,0.231-0.541,0.444-0.769,0.704c-0.515,0.588-0.475,1.126,0.116,1.645   c0.425,0.374,0.873,0.721,1.316,1.072c1.917,1.522,1.525,4.154-0.501,5.363c-1.933,1.151-4.005,1.227-6.093,0.502   c-1.043-0.361-1.81-1.075-1.898-2.264c-0.093-1.258,0.553-2.175,1.623-2.672c0.868-0.405,1.849-0.572,2.786-0.823   C53.421,94.962,53.763,94.937,53.988,94.901z M53.969,100.722c0.02-0.065,0.041-0.13,0.062-0.194c0.196,0,0.394,0.015,0.588-0.002   c1.371-0.121,2.419-0.922,2.551-1.942c0.16-1.243-1.427-3.255-2.684-3.209c-0.956,0.034-1.971,0.206-2.835,0.594   c-1.716,0.77-1.827,2.877-0.214,3.854C52.186,100.276,53.119,100.43,53.969,100.722z M53.932,92.284   c0.978-0.098,1.885-0.688,2.024-1.514c0.267-1.591-0.098-3.038-1.296-4.163c-1.069-1.004-2.834-0.499-3.167,0.924   c-0.364,1.562,0.042,2.983,1.207,4.106C53.02,91.947,53.516,92.074,53.932,92.284z" fill="#FFFFFF" fill-rule="evenodd"/><path clip-rule="evenodd" d="M25.874,82.71c-0.641,0.581-1.192,1.08-1.744,1.579   c-0.061-0.016-0.121-0.03-0.182-0.046c0.497-0.751-0.064-1.043-0.491-1.368c-1.77-1.35-3.733-1.553-5.727-0.696   c-1.966,0.845-2.945,2.481-3.158,4.6c-0.4,4.007,2.173,6.921,4.861,7.652c1.371,0.373,2.73,0.438,4.098-0.022   c0.395-0.133,0.561-0.352,0.552-0.762c-0.016-0.696-0.01-1.394-0.001-2.09c0.004-0.415-0.074-0.643-0.597-0.573   C22.909,91.059,22.313,91,21.736,91c0.635-0.609,2.45-0.807,4.412-0.511c-0.067,0.587-0.154,1.16-0.194,1.737   c-0.048,0.689,0.192,1.578-0.154,2.018c-0.343,0.435-1.255,0.439-1.926,0.594c-2.047,0.469-4.109,0.758-6.19,0.222   c-2.736-0.704-4.566-2.87-4.976-5.672c-0.571-3.902,2.102-7.465,6.049-8.075c2.186-0.341,4.289-0.09,6.284,0.897   C25.29,82.333,25.521,82.496,25.874,82.71z" fill="#FFFFFF" fill-rule="evenodd"/><path clip-rule="evenodd" d="M43.446,95.068c-2.859-0.002-4.966-2.057-4.968-4.832   c-0.001-2.471,1.881-4.947,5.298-4.946c2.94,0,4.856,2.015,4.88,4.792C48.685,93.264,46.094,95.188,43.446,95.068z M46.773,91.168   c-0.04-1.595-0.397-3.076-1.403-4.335c-0.657-0.821-1.546-1.209-2.602-1.015c-1.107,0.203-1.991,0.816-2.247,1.931   c-0.518,2.252-0.077,4.362,1.517,6.064c1.458,1.559,3.985,0.83,4.539-1.234C46.7,92.123,46.711,91.639,46.773,91.168z" fill="#FFFFFF" fill-rule="evenodd"/><path clip-rule="evenodd" d="M32.395,95.068c-2.529,0.106-4.99-1.732-4.984-4.813   c0.006-2.892,2.135-4.951,5.283-4.964c3.406-0.014,4.902,2.639,4.9,4.841C37.591,92.815,35.352,95.187,32.395,95.068z    M35.73,91.064c-0.121-1.362-0.358-2.795-1.254-4.021c-0.7-0.956-1.635-1.437-2.829-1.218c-1.238,0.225-2.092,1.097-2.298,2.36   c-0.308,1.89,0.143,3.634,1.221,5.192c0.729,1.058,1.862,1.453,2.956,1.156C34.953,94.149,35.734,92.956,35.73,91.064z" fill="#FFFFFF" fill-rule="evenodd"/><path clip-rule="evenodd" d="M79.591,93.739c0.228-1.001,0.465-2,0.685-3.002   c0.326-1.484,0.651-2.968,0.951-4.457c0.097-0.48,0.295-0.687,0.821-0.688c0.53-0.002,0.782,0.15,0.893,0.682   c0.47,2.252,0.97,4.497,1.463,6.745c0.053,0.243,0.133,0.479,0.2,0.719c0.062,0.003,0.123,0.005,0.185,0.007   c0.116-0.507,0.245-1.011,0.349-1.521c0.406-1.999,0.801-3.999,1.213-5.998c0.042-0.199,0.133-0.455,0.285-0.546   c0.155-0.094,0.442-0.074,0.614,0.014c0.093,0.046,0.114,0.349,0.076,0.517c-0.596,2.669-1.223,5.33-1.799,8.002   c-0.119,0.553-0.404,0.596-0.87,0.611c-0.491,0.015-0.689-0.168-0.788-0.631c-0.477-2.228-0.977-4.451-1.47-6.677   c-0.062-0.28-0.137-0.557-0.207-0.835c-0.07,0.002-0.141,0.004-0.211,0.005c-0.199,0.848-0.401,1.695-0.598,2.545   c-0.389,1.693-0.795,3.381-1.146,5.082c-0.102,0.488-0.376,0.499-0.747,0.497c-0.378-0.002-0.73,0.036-0.845-0.477   c-0.618-2.773-1.255-5.546-1.883-8.319c-0.022-0.1-0.021-0.205-0.031-0.306c0.861-0.184,0.93-0.136,1.105,0.708   c0.478,2.293,0.958,4.588,1.44,6.881c0.031,0.152,0.1,0.298,0.149,0.446C79.481,93.741,79.535,93.739,79.591,93.739z" fill="#FFFFFF" fill-rule="evenodd"/><path clip-rule="evenodd" d="M59.27,80.799c1.105-0.839,2.303-0.386,3.61-0.573   c-0.894,0.684-0.813,1.552-0.831,2.341c-0.072,3.331-0.096,6.66-0.126,9.99c-0.014,1.589-0.002,1.589,1.493,1.991   c-0.375,0.302-1.729,0.385-3.433,0.231c0.06-0.915,0.16-1.823,0.169-2.731c0.03-2.745,0.018-5.49,0.039-8.234   c0.005-0.65,0.096-1.301,0.113-1.951C60.33,80.884,60.317,80.884,59.27,80.799z" fill="#FFFFFF" fill-rule="evenodd"/><path clip-rule="evenodd" d="M66.026,89.756c1.093-0.474,2.188-0.947,3.279-1.421   c0.708-0.307,0.843-0.655,0.478-1.328c-0.436-0.797-1.153-1.232-2.03-1.185c-1.066,0.058-1.832,0.672-2.181,1.696   c-0.687,2.018,0.309,5.19,2.449,6.253c1.167,0.578,2.329,0.557,3.543,0.154c-0.507,0.669-1.226,1-2.006,1.12   c-3.382,0.517-5.975-1.784-5.835-5.204c0.146-3.555,3.504-5.146,6.028-4.333c0.939,0.305,1.623,0.925,1.977,1.854   c0.058,0.151-0.047,0.511-0.164,0.558c-1.59,0.639-3.193,1.245-4.801,1.842c-0.216,0.081-0.468,0.065-0.703,0.095   C66.049,89.822,66.038,89.79,66.026,89.756z" fill="#FFFFFF" fill-rule="evenodd"/><path clip-rule="evenodd" d="M104.766,90.354c0.146,0.801,0.198,1.496,0.403,2.144   c0.387,1.221,1.098,1.664,2.411,1.637c0.963-0.019,1.563-0.563,1.924-1.725c0.096-0.308,0.082-0.789,0.611-0.589   c0.17,0.063,0.379,0.37,0.357,0.538c-0.196,1.458-1.265,2.517-2.782,2.675c-1.307,0.134-2.623-0.374-3.223-1.828   c-0.818-1.987-0.828-4.033-0.035-6.025c0.512-1.286,1.561-1.856,2.957-1.814c1.332,0.037,2.269,0.688,2.694,1.896   c0.289,0.821,0.329,1.733,0.456,2.609c0.062,0.428-0.227,0.489-0.577,0.487c-1.437-0.008-2.873-0.004-4.311-0.004   C105.417,90.354,105.183,90.354,104.766,90.354z M104.913,89.422c0.093,0.035,0.172,0.091,0.25,0.092   c1.325,0.008,2.65,0.009,3.975,0.012c0.379,0.001,0.518-0.228,0.438-0.555c-0.137-0.564-0.232-1.162-0.498-1.669   c-0.764-1.466-2.746-1.518-3.635-0.122C105.012,87.854,104.834,88.603,104.913,89.422z" fill="#FFFFFF" fill-rule="evenodd"/><path clip-rule="evenodd" d="M94.462,93.931c-0.269,0.203-0.45,0.349-0.64,0.483   c-1.399,0.993-3.328,0.777-4.286-0.475c-0.934-1.226-0.778-3.215,0.363-4.152c0.879-0.721,1.931-0.849,3.021-0.706   c0.51,0.066,1.011,0.196,1.579,0.309c0.099-0.883,0.156-1.709-0.322-2.441c-0.818-1.25-3.289-0.981-3.973,0.411   c-0.075,0.154-0.134,0.39-0.25,0.43c-0.181,0.059-0.427,0.021-0.602-0.063c-0.081-0.04-0.116-0.312-0.071-0.443   c0.4-1.148,1.275-1.733,2.436-1.888c0.487-0.065,1.007-0.043,1.49,0.051c1.507,0.298,2.154,1.094,2.172,2.628   c0.016,1.567-0.003,3.135,0.01,4.701c0.004,0.477,0.075,0.951,0.097,1.428c0.013,0.271,0.086,0.589-0.368,0.605   c-0.382,0.017-0.579-0.119-0.567-0.519C94.554,94.208,94.513,94.127,94.462,93.931z M94.557,91.494c0-1.29,0.003-1.305-1.274-1.534   c-0.466-0.084-0.949-0.136-1.418-0.104c-1.184,0.078-1.951,0.843-1.992,1.914c-0.055,1.422,0.515,2.184,1.806,2.416   C93.192,94.459,94.557,93.182,94.557,91.494z" fill="#FFFFFF" fill-rule="evenodd"/><path clip-rule="evenodd" d="M113.662,82.232c0,0.827-0.001,1.627,0.001,2.426   c0,0.948,0,0.947,0.983,0.955c0.173,0.001,0.361-0.035,0.518,0.021c0.132,0.048,0.333,0.23,0.313,0.305   c-0.037,0.145-0.193,0.271-0.327,0.374c-0.053,0.044-0.167,0.015-0.254,0.014c-1.442-0.002-1.223-0.043-1.23,1.294   c-0.011,1.764-0.008,3.525,0,5.288c0.004,0.944,0.353,1.226,1.294,1.144c0.173-0.015,0.363,0.156,0.546,0.241   c-0.141,0.207-0.244,0.543-0.428,0.595c-1.374,0.388-2.336-0.359-2.343-1.784c-0.008-2.023-0.014-4.049,0.007-6.072   c0.005-0.489-0.127-0.718-0.653-0.723c-0.182-0.002-0.36-0.235-0.541-0.363c0.176-0.111,0.352-0.315,0.525-0.315   c0.512,0,0.697-0.199,0.669-0.706c-0.035-0.586,0.029-1.179-0.019-1.762C112.666,82.487,113.023,82.29,113.662,82.232z" fill="#FFFFFF" fill-rule="evenodd"/><path clip-rule="evenodd" d="M98.629,88.194c0,1.979,0.001,3.958-0.001,5.938   c-0.001,0.318,0.08,0.672-0.446,0.68c-0.51,0.009-0.481-0.311-0.48-0.65c0.002-3.981,0.002-7.961-0.001-11.94   c-0.001-0.345-0.021-0.658,0.485-0.647c0.528,0.01,0.441,0.368,0.441,0.685C98.631,84.236,98.629,86.216,98.629,88.194z" fill="#FFFFFF" fill-rule="evenodd"/><path clip-rule="evenodd" d="M102.025,88.19c0,1.958,0.005,3.917-0.004,5.875   c-0.001,0.319,0.139,0.731-0.444,0.746c-0.569,0.015-0.483-0.369-0.483-0.709c-0.002-3.961,0-7.921-0.002-11.88   c0-0.343-0.027-0.66,0.482-0.651c0.463,0.009,0.453,0.291,0.452,0.614C102.023,84.188,102.025,86.188,102.025,88.19z" fill="#FFFFFF" fill-rule="evenodd"/></g></svg>