<?xml version="1.0" ?><!DOCTYPE svg  PUBLIC '-//W3C//DTD SVG 1.1//EN'  'http://www.w3.org/Graphics/SVG/1.1/DTD/svg11.dtd'><svg enable-background="new 0 0 128 128" height="128px" id="Layer_1" version="1.1" viewBox="0 0 128 128" width="128px" xml:space="preserve" xmlns="http://www.w3.org/2000/svg" xmlns:xlink="http://www.w3.org/1999/xlink"><path d="M126.69,101.471c0,2.242-1.818,4.061-4.061,4.061H4.751c-2.242,0-4.061-1.818-4.061-4.061V25.413  c0-2.243,1.818-4.061,4.061-4.061H122.63c2.242,0,4.061,1.818,4.061,4.061V101.471z" fill="#808080"/><g><path clip-rule="evenodd" d="M33.716,68.788c-1.117-0.972-3.348-0.958-3.063-2.987   c0.309-2.207,2.602-2.146,4.235-3.042c-0.459-0.273-0.853-0.507-1.246-0.745c-3.298-2-3.645-5.509-0.739-8.126   c2.102-1.891,4.681-2.583,7.449-2.594c5.545-0.025,11.09-0.008,16.635-0.01c1.874,0,3.732,0.018,5.594-0.381   c1.095-0.233,2.285-0.209,3.407-0.082c3.395,0.386,6.546,1.449,7.665,5.065c1.133,3.671-0.033,6.94-2.815,9.547   c-3.536,3.313-10.087,4.193-14.451,2.043c-4.176-2.058-5.265-7.239-2.414-11.552c0.401-0.606,0.884-1.158,1.506-1.963   c-2.397,0-4.593,0-6.752,0c1.857,5.2-0.241,8.545-6.115,9.503c-1.688,0.275-3.404,0.388-5.085,0.699   c-0.829,0.153-2.148,0.133-2.2,1.143c-0.056,1.104,1.251,1.027,2.082,1.2c2.311,0.477,4.665,0.783,6.937,1.399   c2.097,0.567,4.584,1.132,4.552,3.97c-0.033,2.765-2.452,3.459-4.553,4.055c-4.51,1.279-9.039,1.084-13.463-0.463   c-1.529-0.534-3.269-1.2-3.129-3.24c0.126-1.823,1.893-1.963,3.214-2.531C31.838,69.32,32.919,69.592,33.716,68.788z M69.099,58.03   c-0.012-2.855-1.741-4.704-4.443-4.751c-3.837-0.068-7.251,3.72-7.225,8.012c0.018,2.792,1.826,4.594,4.583,4.565   C65.922,65.814,69.116,62.288,69.099,58.03z M40.094,61.114c2.766,0.01,4.84-1.557,4.92-3.716c0.074-2.008-1.849-3.552-4.415-3.546   c-2.456,0.007-4.911,1.881-4.997,3.816C35.514,59.646,37.418,61.106,40.094,61.114z M38.472,74.216   c1.473,0.093,3.006,0.012,4.466-0.544c0.677-0.259,1.427-0.61,1.397-1.478c-0.027-0.742-0.75-1.021-1.32-1.281   c-3.231-1.476-6.436-1.194-9.597,0.247c-0.505,0.23-1.124,0.468-1.106,1.141c0.02,0.778,0.712,1.057,1.311,1.247   C35.17,74.038,36.763,74.306,38.472,74.216z" fill="#F5F9FC" fill-rule="evenodd"/><path clip-rule="evenodd" d="M121.075,63.885c0.183,2.215-0.712,3.226-2.549,3.76   c-3.849,1.12-7.695,1.498-11.515,0.122c-5.702-2.054-7.267-8.241-3.346-12.882c3.477-4.114,10.77-5.407,15.443-2.755   c1.972,1.12,3.143,2.778,3.495,5.014c0.253,1.597-0.204,2.382-2.056,2.326c-3.985-0.124-7.981,0.074-11.965-0.085   c-2.055-0.082-2.358,0.835-2.06,2.471c0.366,2.005,1.749,3.031,3.556,3.62c3.403,1.109,6.58,0.157,9.725-1.086   C120.178,64.239,120.553,64.091,121.075,63.885z M107.593,57.157c2.784,0,5.308,0.055,7.824-0.033   c0.791-0.026,2.06,0.605,2.318-0.526c0.272-1.198-0.673-2.1-1.765-2.642C113.081,52.519,109.403,53.825,107.593,57.157z" fill="#F5F9FC" fill-rule="evenodd"/><path clip-rule="evenodd" d="M18.494,50.746c4.818,0.02,8.423,2.269,9.21,5.744   c0.907,4.009-1.36,8.46-5.372,10.568c-3.261,1.714-6.722,2.001-10.219,1.133c-5.884-1.463-7.77-7.737-3.938-12.788   C10.412,52.452,14.236,50.726,18.494,50.746z M22.911,58.302c0.081-3.019-1.612-4.945-4.415-5.022   c-3.717-0.104-7.169,3.551-7.309,7.736c-0.092,2.781,1.657,4.724,4.352,4.839C19.415,66.019,22.798,62.553,22.911,58.302z" fill="#F5F9FC" fill-rule="evenodd"/><path clip-rule="evenodd" d="M84.336,53.777c2.407-1.465,4.793-2.629,7.555-2.748   c4.899-0.214,7.315,2.584,6.271,7.366c-0.59,2.702-1.291,5.381-1.849,8.089c-0.576,2.803-2.751,1.483-4.14,1.446   c-1.704-0.045-0.605-1.5-0.472-2.255c0.498-2.804,1.229-5.566,1.71-8.373c0.449-2.624-0.815-3.837-3.463-3.558   c-3.656,0.387-6.698,3.128-7.509,6.772c-0.441,1.986-0.914,3.965-1.303,5.96c-0.547,2.809-2.748,1.51-4.132,1.45   c-1.692-0.072-0.567-1.513-0.425-2.267c0.796-4.157,1.866-8.266,2.514-12.444c0.438-2.832,2.389-1.759,3.875-1.913   C85.016,51.092,83.707,52.796,84.336,53.777z" fill="#F5F9FC" fill-rule="evenodd"/></g></svg>