<?xml version="1.0" ?><!DOCTYPE svg  PUBLIC '-//W3C//DTD SVG 1.1//EN'  'http://www.w3.org/Graphics/SVG/1.1/DTD/svg11.dtd'><svg enable-background="new 0 0 128 128" height="128px" id="Layer_1" version="1.1" viewBox="0 0 128 128" width="128px" xml:space="preserve" xmlns="http://www.w3.org/2000/svg" xmlns:xlink="http://www.w3.org/1999/xlink"><path d="M127.185,101.471c0,2.242-1.818,4.061-4.061,4.061H5.245c-2.242,0-4.061-1.818-4.061-4.061V25.413  c0-2.243,1.818-4.061,4.061-4.061h117.879c2.242,0,4.061,1.818,4.061,4.061V101.471z" fill="#808080"/><g><path clip-rule="evenodd" d="M57.637,73.097c12.039-5.866,23.665-12.1,35.875-17.461   c0,6.886,0.015,13.566-0.008,20.248c-0.006,2.031,0.664,4.77-0.374,5.911c-1.225,1.348-4.01,0.432-6.111,0.438   c-15.975,0.031-31.946-0.021-47.917,0.063c-1.962,0.012-2.363-0.554-2.355-2.43c0.074-17.282,0.061-34.564-0.001-51.847   c-0.007-1.806,0.312-2.464,2.352-2.454c17.363,0.095,34.727,0.073,52.092,0.011c1.694-0.005,2.413,0.22,2.35,2.196   c-0.173,5.319-0.121,10.646-0.057,15.968c0.016,1.448-0.273,1.838-1.79,1.487c-2.96-0.687-5.748-1.86-8.628-2.767   c-1.383-0.436-3.968,1.407-3.988,2.821c-0.016,0.865,0.778,0.729,1.222,0.895c3.36,1.261,6.747,2.459,10.642,3.861   c-4.156,1.997-7.974,3.838-11.801,5.661c-0.809,0.387-1.624,0.803-2.48,1.049C67.938,59.27,61.877,64.969,57.637,73.097z" fill="#FFFFFF" fill-rule="evenodd"/><path clip-rule="evenodd" d="M37.848,94.48c-0.004-0.98-0.216-2.026,0.049-2.93   c0.381-1.297-1.459-3.614,1.422-3.805c4.158-0.275,5.268,0.529,5.682,3.703c0.16,1.222,0.163,2.454-0.167,3.653   c-0.314,1.143-0.929,2.563-1.994,2.579c-2.356,0.041-3.446,0.716-3.065,3.216c0.098,0.648-0.689,0.532-1.14,0.498   c-0.799-0.061-0.785-0.686-0.785-1.266C37.845,98.247,37.848,96.363,37.848,94.48z M43.176,92.819   c-0.39-1.226-0.075-3.082-1.752-3.086c-1.462,0-1.563,1.737-1.541,2.883c0.023,1.212-0.046,3.075,1.533,3.156   C43.153,95.861,42.648,93.867,43.176,92.819z" fill="#FFFFFF" fill-rule="evenodd"/><path clip-rule="evenodd" d="M47.464,90.115c-0.408,0.05-0.926,0.777-1.185,0.01   c-0.224-0.673-0.174-1.444,0.515-2.001c1.837-1.481,5.011-0.497,5.557,1.837c0.528,2.245,0.302,4.557,0.278,6.844   c-0.003,0.386-0.012,0.78-0.5,1c-1.241,0.563-5.169,0.114-5.68-0.835c-1.018-1.892-0.988-3.748,0.683-5.343   c1.098-0.225,2.198-0.446,3.524-0.714C49.785,89.284,48.733,89.284,47.464,90.115z M50.508,94.185   c0.089-0.97-0.381-1.051-1.03-1.063c-1.107-0.02-1.703,0.581-1.703,1.563c0.001,0.577,0.384,1.319,1.215,1.208   C50.035,95.755,50.334,94.902,50.508,94.185z" fill="#FFFFFF" fill-rule="evenodd"/><path clip-rule="evenodd" d="M57.089,93.229c1.123-1.339,1.218-2.854,1.679-4.199   c0.319-0.933,0.839-1.507,1.751-1.287c1.258,0.309,0.391,1.253,0.24,1.785c-0.894,3.138-1.89,6.25-2.873,9.363   c-0.414,1.312-1.085,2.4-2.65,2.502c-0.56,0.035-1.226,0.16-1.223-0.732c0-0.521-0.351-1.229,0.497-1.407   c2.071-0.435,1.678-1.922,1.315-3.243c-0.603-2.203-1.388-4.352-2.034-6.542c-0.161-0.542-0.808-1.313,0.111-1.689   c0.936-0.386,1.59,0.238,1.88,1.083C56.254,90.229,56.619,91.635,57.089,93.229z" fill="#FFFFFF" fill-rule="evenodd"/><path clip-rule="evenodd" d="M62.627,89.094c0.384-1.148,3.291-2.171,4.584-1.347   c0.929,0.591,1.388,0.445,2.271-0.01c1.813-0.928,3.28-0.094,3.474,1.952c0.179,1.859,0.061,3.748,0.077,5.624   c0.006,0.586,0.034,1.216-0.815,1.164c-0.722-0.047-0.576-0.647-0.583-1.101c-0.021-1.549-0.045-3.101-0.018-4.649   c0.015-0.99-0.18-1.9-1.31-1.976c-1.061-0.071-1.686,0.797-1.791,1.697c-0.175,1.531-0.077,3.093-0.134,4.64   c-0.02,0.513,0.277,1.306-0.558,1.374c-1.093,0.09-0.737-0.847-0.758-1.411c-0.041-1.304,0.004-2.611-0.013-3.916   c-0.01-0.81,0.026-1.665-0.802-2.169c-1.058-0.646-1.626,0.297-2.344,0.747C63.666,89.125,63.19,89.018,62.627,89.094z" fill="#FFFFFF" fill-rule="evenodd"/><path clip-rule="evenodd" d="M74.787,94.366c-0.041-2.012,1.279-2.617,2.959-2.876   c0.851-0.131,1.895,0.04,2.193-1.124c0.162-0.633-0.154-1.1-0.733-1.384c-1.037-0.507-1.893-0.237-2.564,0.647   c-0.385,0.506-0.879,0.937-1.377,0.387c-0.447-0.491,0.008-1.099,0.38-1.513c1.13-1.268,2.588-1.226,4.064-0.857   c1.343,0.335,1.607,1.42,1.728,2.626c0.191,1.894-0.496,3.823,0.571,5.706c0.541,0.956-0.796,1.079-1.069,0.746   c-0.934-1.14-1.696-0.28-2.54-0.031C76.332,97.311,74.843,96.342,74.787,94.366z M80.019,93.232   c0.092-0.629-0.221-0.918-0.972-0.747c-1.211,0.272-2.809,0.096-2.863,1.916c-0.032,1.018,0.88,1.276,1.757,1.184   C79.242,95.45,79.983,94.719,80.019,93.232z" fill="#FFFFFF" fill-rule="evenodd"/><path clip-rule="evenodd" d="M94.356,93.91c-0.347,1.788-1.25,2.752-2.914,2.908   c-1.654,0.157-2.844-0.522-3.463-2.107c-0.513-1.318-0.733-2.628-0.359-4.061c0.516-1.973,1.564-3.275,3.723-3.161   c2.227,0.119,2.898,1.796,3.319,3.648c0.244,1.08-0.178,1.503-1.255,1.438c-0.815-0.049-1.651-0.115-2.444,0.014   c-0.694,0.113-1.743-0.656-2.043,0.566c-0.188,0.775,0.321,1.435,0.911,1.898c0.786,0.62,1.646,0.63,2.483,0.04   C92.888,94.69,93.062,93.747,94.356,93.91z M90.945,91.5c0.709-0.44,2.208,0.712,2.213-0.918c0.002-1.074-0.917-1.922-2.16-1.844   c-1.204,0.081-2.06,0.912-2.01,2.042C89.047,92.063,90.275,91.157,90.945,91.5z" fill="#FFFFFF" fill-rule="evenodd"/><path clip-rule="evenodd" d="M83.738,91.96c-0.217-0.732,0.66-2.193-0.643-3.521   c-0.34-0.346,0.729-2.087,1.19-3.17c0.022-0.053,0.431,0.053,0.657,0.085c-0.871,1.407,2.199,1.766,0.747,3.815   c-1.123,1.588-0.839,4.198,0.069,6.241c0.234,0.527,1.196,0.922,0.252,1.393c-0.684,0.342-1.75,0.175-1.958-0.859   C83.83,94.84,83.86,93.687,83.738,91.96z" fill="#FFFFFF" fill-rule="evenodd"/><path clip-rule="evenodd" d="M62.627,89.094c0.563-0.076,1.039,0.031,1.281,0.62   c-0.042,1.7-0.044,3.403-0.147,5.102c-0.033,0.548,0.438,1.502-0.521,1.572c-1.004,0.073-0.703-0.9-0.705-1.469   C62.528,92.977,62.591,91.035,62.627,89.094z" fill="#FFFFFF" fill-rule="evenodd"/></g></svg>