<?xml version="1.0" ?><!DOCTYPE svg  PUBLIC '-//W3C//DTD SVG 1.1//EN'  'http://www.w3.org/Graphics/SVG/1.1/DTD/svg11.dtd'><svg enable-background="new 0 0 128 128" height="128px" id="Layer_1" version="1.1" viewBox="0 0 128 128" width="128px" xml:space="preserve" xmlns="http://www.w3.org/2000/svg" xmlns:xlink="http://www.w3.org/1999/xlink"><path d="M127,101.113c0,2.243-1.818,4.062-4.061,4.062H5.061c-2.242,0-4.061-1.818-4.061-4.062V25.056  c0-2.243,1.818-4.061,4.061-4.061h117.879c2.242,0,4.061,1.818,4.061,4.061V101.113z" fill="#808080"/><g><path clip-rule="evenodd" d="M121.021,66.236c-4.093,0.019-5.146-1.219-5.441-5.092   c-0.169-2.214,1.455-5.13-2.052-6.419c-0.603-0.22-0.599-1.812-0.196-1.959c2.068-0.759,2.517-3.295,4.7-3.936   c1.687-0.493,3.071-1.116,2.869,1.587c-0.063,0.847,0.39,1.398,1.282,1.443c1.108,0.056,1.705,0.488,1.705,1.72   c-0.002,1.284-0.858,1.366-1.761,1.747c-1.765,0.746-1.941,6.457-0.192,7.285c1.093,0.519,2.272,0.68,1.868,2.254   C123.358,66.6,121.772,65.899,121.021,66.236z" fill="#FFFFFF" fill-rule="evenodd"/><path clip-rule="evenodd" d="M101.192,58.733c0-1.253,0.126-2.52-0.026-3.753   c-0.318-2.582,0.911-3.516,3.236-3.037c1.792,0.37,3.455,0.939,5.234-0.161c0.667-0.415,1.477,0.103,1.509,1.033   c0.037,1.078,0.574,2.604-0.979,2.912c-4.05,0.803-3.832,3.794-3.757,6.776c0.041,1.737,0.162,3.237-2.457,3.28   c-2.646,0.047-2.9-1.273-2.775-3.292C101.257,61.243,101.192,59.985,101.192,58.733z" fill="#FFFFFF" fill-rule="evenodd"/><path clip-rule="evenodd" d="M59.083,58.722c-0.277,2.328-0.212,4.655,0.079,6.977   c0.184,0.521-0.081,0.812-0.517,1.018c-1.67,1.04-3.676,0.802-5.497,1.303c-2.083,0.573-2.868-1.435-2.45-3.23   c0.36-1.543,0.472-2.849,0.02-4.438c-0.718-2.521,1.256-4.26,3.739-3.292c1.44,0.563,2.877-0.549,4.158,0.418   c0.1,0.069,0.201,0.138,0.301,0.207C59.138,58.003,59.189,58.35,59.083,58.722z" fill="#FFFFFF" fill-rule="evenodd"/><path clip-rule="evenodd" d="M44.761,54.306c-2.088,4.771-4.169,9.547-6.272,14.312   c-0.333,0.753-0.666,1.546-1.188,2.16c-0.253,0.295-0.967,0.343-1.439,0.274c-0.734-0.105-0.702-0.82-0.445-1.226   c2.888-4.579-0.721-8.087-1.942-11.979c-0.28-0.893-0.83-1.704-1.062-2.603c-0.177-0.684-1.297-1.553-0.136-2.115   c1.014-0.491,1.999-0.127,2.484,1.139c1.045,2.72,2.169,5.41,3.412,8.485c1.745-2.586,2.454-5.283,3.458-7.819   c0.591-1.494,1.422-2.224,3.023-1.994C45.095,53.365,45.095,53.823,44.761,54.306z" fill="#FFFFFF" fill-rule="evenodd"/><path clip-rule="evenodd" d="M46.179,78.393c0.062,3.348-3.374,7.104-6.302,7.261   c-2.261,0.121-3.261-1.144-3.111-3.29c0.189-2.731,3.461-6.01,6.175-6.288C44.976,75.865,46.121,76.729,46.179,78.393z" fill="#FFFFFF" fill-rule="evenodd"/><path clip-rule="evenodd" d="M39.465,40.524c3.488,0.025,6.86,3.441,6.719,6.32   c-0.099,2.015-1.24,3.019-3.21,3.02c-2.945,0.003-6.376-3.486-6.232-6.309C36.846,41.524,38.087,40.663,39.465,40.524z" fill="#FFFFFF" fill-rule="evenodd"/><path clip-rule="evenodd" d="M44.761,54.306c-0.036-0.455-0.072-0.908-0.108-1.364   c0.267-1.709,1-3.02,2.946-3.057c1.775-0.035,2.961,0.978,3.638,2.516c0.729,1.663,0.756,3.296-0.951,4.453   c-1.628,1.102-2.996,0.354-4.198-0.808C45.569,55.545,45.199,54.891,44.761,54.306z" fill="#FFFFFF" fill-rule="evenodd"/><path clip-rule="evenodd" d="M51.649,70.854c0.053,2.229-2.033,4.724-4.081,4.75   c-1.951,0.024-2.761-1.185-2.768-2.99c-0.008-2.32,2.119-4.565,4.229-4.541C50.694,68.094,51.606,69.063,51.649,70.854z" fill="#FFFFFF" fill-rule="evenodd"/><path clip-rule="evenodd" d="M58.645,66.716c0.172-0.34,0.345-0.679,0.517-1.018   c2.825-0.023,2.711,1.816,2.399,3.784c0.052,0.42-0.084,0.761-0.431,1.009C56.826,71.521,59.081,68.233,58.645,66.716z" fill="#FFFFFF" fill-rule="evenodd"/><path clip-rule="evenodd" d="M61.741,54.359c-0.088,1.272,0.195,2.606-0.645,3.749   c-1.064,0.586-1.899,0.316-2.541-0.679l0.06,0.049c0.359-1.563-1.516-4.558,2.444-3.81C61.668,53.522,61.886,53.761,61.741,54.359z   " fill="#FFFFFF" fill-rule="evenodd"/><path clip-rule="evenodd" d="M61.741,54.359c-0.228-0.231-0.455-0.46-0.681-0.691   c0.031-0.413,0.056-0.824,0.095-1.233c0.085-0.907-0.012-2.188,1.205-2.134c1.47,0.063,1.52,1.509,1.526,2.619   C63.895,54.325,63.284,55.113,61.741,54.359z" fill="#FFFFFF" fill-rule="evenodd"/><path clip-rule="evenodd" d="M61.13,70.491c0.144-0.336,0.288-0.673,0.432-1.009   c1.518-0.363,2.515,0.04,2.322,1.793c-0.109,1.004-0.284,2.458-1.561,2.292C60.558,73.338,61.416,71.584,61.13,70.491z" fill="#FFFFFF" fill-rule="evenodd"/><path clip-rule="evenodd" d="M58.555,57.428c0.808,0.375,1.571,0.911,2.541,0.679   c-0.577,0.514-1.287,0.591-2.013,0.614C58.907,58.29,58.731,57.859,58.555,57.428z" fill="#FFFFFF" fill-rule="evenodd"/><g><g><path clip-rule="evenodd" d="M77.907,52.092c-1.485-0.665-3.073-0.766-4.564-0.109     c-1.035,0.456-1.542,1.074-3.033,0.172c-2.486-1.501-4.266-0.052-4.281,2.904c-0.023,4.277,0.06,8.556-0.032,12.832     c-0.045,2.014,0.411,3.076,2.746,3.055c2.321-0.021,2.509-1.269,2.406-3.013c-0.054-0.922-0.01-1.85-0.01-2.889     c0.561,0.123,0.874,0.142,1.144,0.26c3.729,1.638,6.937,0.498,8.493-3.033C82.439,58.495,81.052,53.5,77.907,52.092z      M73.693,62.949c-2.629,0.06-2.5-2.287-2.537-4.15c-0.037-1.836,0.208-4.01,2.404-4.06c2.505-0.055,2.472,2.305,2.634,4.185     C76.008,60.696,75.997,62.898,73.693,62.949z" fill="#FFFFFF" fill-rule="evenodd"/></g></g><g><g><path clip-rule="evenodd" d="M91.127,59.895c1.663-0.098,3.339-0.089,5.006-0.024     c1.748,0.068,2.128-0.799,1.927-2.343c-0.481-3.683-3.114-5.829-7.272-5.835c-3.779-0.008-6.243,1.695-7.074,4.893     c-0.939,3.617,0.178,7.107,2.762,8.631c2.891,1.701,7.894,1.226,9.983-0.973c0.65-0.685,1.389-1.486,0.905-2.472     c-0.443-0.903-1.484-0.415-2.264-0.542c-1.225-0.201-1.813,0.711-2.615,1.362c-0.963,0.782-2.127,0.822-3.184,0.059     c-0.634-0.456-1.062-1.229-0.856-1.906C88.868,59.354,90.182,59.95,91.127,59.895z M90.9,54.233c1.18,0.02,2.068,0.65,2.08,1.815     c0.018,1.633-1.427,1.006-2.282,1.239c-0.853-0.173-2.155,0.261-2.117-1.117C88.614,54.885,89.591,54.209,90.9,54.233z" fill="#FFFFFF" fill-rule="evenodd"/></g></g><g><g><path clip-rule="evenodd" d="M14.242,53.293c-1.308-0.812-2.736-1.029-4.199-0.55     c-1.33,0.435-2.437,1.577-4.073,0.348c-0.76-0.57-1.406,0.369-1.403,1.392c0.017,5.314,0.006,10.628,0.015,15.941     c0.001,0.779,0.135,1.455,1.181,1.415c0.997-0.037,1.127-0.686,1.198-1.47c0.145-1.64-0.27-3.319,0.342-5.02     c0.433,0.147,0.822,0.272,1.205,0.411c3.562,1.303,6.309,0.399,7.67-2.523C17.825,59.701,16.909,54.954,14.242,53.293z      M10.799,64.589c-2.225,0.033-3.696-1.874-3.713-4.808c-0.019-3.247,1.528-5.548,3.823-5.451     c3.274,0.139,3.098,2.734,3.349,4.599C14.28,62.792,13.124,64.555,10.799,64.589z" fill="#FFFFFF" fill-rule="evenodd"/></g></g><g><g><path clip-rule="evenodd" d="M29.688,57.645c-0.055-4.243-3.564-6.485-7.5-4.801     c-1.11,0.475-1.933,1.227-2.365,2.367c-0.172,0.452-0.032,0.815,0.443,0.972c1.247,0.41,1.86-0.472,2.62-1.208     c0.941-0.912,2.09-0.848,3.18-0.215c0.915,0.531,1.319,1.445,1.083,2.413c-0.368,1.505-1.718,0.684-2.631,0.897     c-0.298,0.07-0.627-0.001-0.938,0.035c-2.1,0.238-3.869,1.012-4.604,3.178c-0.496,1.458-0.456,2.958,0.68,4.117     c1.626,1.66,3.617,1.227,5.596,0.764c0.698-0.161,1.047-1.256,2.125-0.508c2.231,1.547,2.319-0.104,2.314-1.733     c-0.003-1.151-0.001-2.301,0-3.451C29.69,59.528,29.701,58.587,29.688,57.645z M23.596,64.809     c-1.356-0.026-2.442-0.694-2.318-2.284c0.184-2.356,1.926-2.625,3.565-2.662c1.25,0.033,2.455-0.13,2.294,1.483     C26.925,63.461,25.856,64.854,23.596,64.809z" fill="#FFFFFF" fill-rule="evenodd"/></g></g></g></svg>