<?xml version="1.0" ?><!DOCTYPE svg  PUBLIC '-//W3C//DTD SVG 1.1//EN'  'http://www.w3.org/Graphics/SVG/1.1/DTD/svg11.dtd'><svg enable-background="new 0 0 128 128" height="128px" id="Layer_1" version="1.1" viewBox="0 0 128 128" width="128px" xml:space="preserve" xmlns="http://www.w3.org/2000/svg" xmlns:xlink="http://www.w3.org/1999/xlink"><path d="M127.494,101.113c0,2.243-1.818,4.062-4.061,4.062H5.555c-2.242,0-4.061-1.818-4.061-4.062V25.056  c0-2.243,1.818-4.061,4.061-4.061h117.879c2.242,0,4.061,1.818,4.061,4.061V101.113z" fill="#808080"/><g><path clip-rule="evenodd" d="M19.898,72.548c-2.432,0.549-4.513-0.335-6.458-1.595   C8.13,67.51,5.283,60.159,6.918,54.047c0.727-2.718,2.428-4.794,4.905-6.074c5.894-3.045,11.898-3.103,17.625,0.248   c6.975,4.079,6.934,12.175,0.091,16.459c-3.395,2.126-7.131,2.615-11.051,2.306c-0.88-0.069-2.105-0.836-2.607,0.361   c-0.436,1.037,0.31,2.041,1.013,2.883C17.711,71.215,18.753,71.878,19.898,72.548z M20.236,61.872   c1.948-0.066,4.278-0.557,6.242-2.122c2.414-1.923,2.359-4.669-0.144-6.489c-2.125-1.546-4.584-1.858-7.121-1.606   c-3.579,0.356-5.192,2.172-5.036,5.556C14.322,60.394,16.063,61.853,20.236,61.872z" fill="#FFFFFF" fill-rule="evenodd"/><path clip-rule="evenodd" d="M44.676,62.664c0-2.493,0.037-4.986-0.011-7.476   c-0.034-1.834,0.856-2.771,2.6-3.117c2.209-0.442,4.432-0.501,6.644-0.215c3.895,0.502,6.038,2.859,6.084,6.511   c0.051,3.783-1.847,6.291-5.766,6.732c-2.865,0.323-3.898,1.508-3.597,4.268c0.222,2.015-0.283,3.405-2.838,3.429   c-2.576,0.021-3.232-1.213-3.151-3.457c0.079-2.223,0.018-4.45,0.018-6.674C44.666,62.664,44.671,62.664,44.676,62.664z    M50.568,58.664c0.562,0.899-0.628,2.93,1.477,2.996c1.755,0.054,2.226-1.586,2.248-3.083c0.021-1.484-0.329-3.14-2.12-3.166   C50.064,55.381,50.943,57.324,50.568,58.664z" fill="#FFFFFF" fill-rule="evenodd"/><path clip-rule="evenodd" d="M85.856,64.771c0.483-1.95,0.937-3.907,1.459-5.845   c0.574-2.131,2.854-3.124,4.781-2.17c0.962,0.477,0.919,1.246,0.656,2.042c-2.099,6.347-4.178,12.703-6.364,19.019   c-0.54,1.562-3.952,2.239-5.368,1.287c-0.977-0.656-0.579-1.498-0.193-2.111c1.992-3.175,1.274-6.252-0.011-9.432   c-0.999-2.475-1.813-5.034-2.568-7.597c-0.332-1.124-1.486-2.605,0.646-3.299c2.381-0.776,4.426,0.063,4.955,2.048   c0.276,1.032,0.43,2.095,0.654,3.141c0.203,0.944,0.428,1.884,0.644,2.824C85.384,64.709,85.62,64.74,85.856,64.771z" fill="#FFFFFF" fill-rule="evenodd"/><path clip-rule="evenodd" d="M122.86,66.259c0.052,6.399-0.65,7.077-7.163,6.954   c-0.354-0.007-0.712-0.015-1.066-0.043c-3.923-0.301-6.153-1.987-6.39-4.825c-0.238-2.852,1.664-4.762,5.537-5.781   c1.072-0.282,3.157,0.106,2.854-1.538c-0.333-1.796-2.287-1.079-3.653-0.936c-0.354,0.038-0.699,0.134-1.045,0.224   c-1.354,0.352-1.977-0.322-2.278-1.551c-0.337-1.37,0.587-1.783,1.571-1.99c1.475-0.31,2.98-0.625,4.477-0.648   c4.782-0.071,6.867,1.913,7.146,6.661C122.919,63.939,122.86,65.101,122.86,66.259z M117.252,67.263   c-0.086-0.955,0.07-2.179-1.43-1.993c-1.312,0.165-2.002,1.098-1.974,2.424c0.026,1.262,0.768,2.048,2.012,1.983   C117.391,69.597,117.17,68.296,117.252,67.263z" fill="#FFFFFF" fill-rule="evenodd"/><path clip-rule="evenodd" d="M75.848,66.139c0.003,0.178,0.035,0.362-0.002,0.533   c-0.439,1.998,1.183,4.65-1.739,5.86c-3.646,1.509-9.83,0.728-11.697-1.395c-2.008-2.282-1.288-6.059,1.574-7.462   c1.416-0.695,3.035-0.974,4.552-1.467c0.59-0.193,1.272-0.4,1.15-1.221c-0.109-0.735-0.747-1.035-1.375-1.034   c-0.967,0.003-1.953,0.086-2.896,0.296c-1.3,0.289-2.292,0.213-2.662-1.321c-0.4-1.666,0.779-2.003,1.929-2.259   c1.211-0.268,2.451-0.502,3.688-0.55c5.154-0.196,7.391,1.952,7.473,7.082C75.858,64.181,75.846,65.16,75.848,66.139z    M70.358,67.348c-0.121-0.913,0.163-2.198-1.349-2.094c-1.316,0.093-2.089,0.985-2.108,2.332c-0.018,1.247,0.658,2.114,1.916,2.119   C70.358,69.713,70.227,68.403,70.358,67.348z" fill="#FFFFFF" fill-rule="evenodd"/><path clip-rule="evenodd" d="M100.465,72.725c-6.19,0.034-6.19,0.034-3.891-5.781   c0.329-0.828,0.646-1.66,0.967-2.493c0.746-1.94,2.278-4.117-1.642-4.41c-0.861-0.063-1.132-1.044-1.01-1.929   c0.109-0.781,0.511-1.417,1.334-1.434c2.757-0.054,5.524-0.142,8.273,0.013c1.603,0.091,1.35,1.346,0.954,2.427   c-0.857,2.343-1.713,4.687-2.62,7.011c-0.634,1.626-0.628,2.807,1.561,2.896c1.212,0.051,2.052,0.535,2.004,1.948   c-0.052,1.457-1.026,1.726-2.188,1.747C102.959,72.741,101.713,72.725,100.465,72.725z" fill="#FFFFFF" fill-rule="evenodd"/></g></svg>