<?xml version="1.0" ?><svg style="enable-background:new 0 0 100 100;" version="1.1" viewBox="0 0 100 100" xml:space="preserve" xmlns="http://www.w3.org/2000/svg" xmlns:xlink="http://www.w3.org/1999/xlink"><style type="text/css">
	.st0{fill:#FFFFFF;}
	.st1{fill:#D43C89;}
	.st2{fill:#B2005F;}
	.st3{fill:none;stroke:#000000;stroke-width:3;stroke-linecap:round;stroke-linejoin:round;stroke-miterlimit:10;}
	
		.st4{fill-rule:evenodd;clip-rule:evenodd;fill:none;stroke:#000000;stroke-width:3;stroke-linecap:round;stroke-linejoin:round;stroke-miterlimit:10;}
	
		.st5{fill-rule:evenodd;clip-rule:evenodd;fill:none;stroke:#040404;stroke-width:3;stroke-linecap:round;stroke-linejoin:round;stroke-miterlimit:10;}
	.st6{fill-rule:evenodd;clip-rule:evenodd;}
	.st7{fill-rule:evenodd;clip-rule:evenodd;fill:#040404;}
	.st8{fill:url(#SVGID_1_);}
	.st9{fill:url(#SVGID_2_);}
	.st10{fill:url(#SVGID_3_);}
	.st11{fill:url(#SVGID_4_);}
	.st12{fill:url(#SVGID_5_);}
	.st13{fill:url(#SVGID_6_);}
	.st14{fill:url(#SVGID_7_);}
	.st15{fill:url(#SVGID_8_);}
	.st16{fill:url(#SVGID_9_);}
	.st17{fill:url(#SVGID_10_);}
	.st18{fill:url(#SVGID_11_);}
	.st19{fill:url(#SVGID_12_);}
	.st20{fill:url(#SVGID_13_);}
	.st21{fill:url(#SVGID_14_);}
	.st22{fill:url(#SVGID_15_);}
	.st23{fill:url(#SVGID_16_);}
	.st24{fill:url(#SVGID_17_);}
	.st25{fill:url(#SVGID_18_);}
	.st26{fill:url(#SVGID_19_);}
	.st27{fill:url(#SVGID_20_);}
	.st28{fill:url(#SVGID_21_);}
	.st29{fill:url(#SVGID_22_);}
	.st30{fill:url(#SVGID_23_);}
	.st31{fill:url(#SVGID_24_);}
	.st32{fill:url(#SVGID_25_);}
	.st33{fill:url(#SVGID_26_);}
	.st34{fill:url(#SVGID_27_);}
	.st35{fill:url(#SVGID_28_);}
	.st36{fill:url(#SVGID_29_);}
	.st37{fill:url(#SVGID_30_);}
	.st38{fill:url(#SVGID_31_);}
	.st39{fill:url(#SVGID_32_);}
	.st40{fill:url(#SVGID_33_);}
	.st41{fill:url(#SVGID_34_);}
	.st42{fill:url(#SVGID_35_);}
	.st43{fill:url(#SVGID_36_);}
	.st44{fill:url(#SVGID_37_);}
	.st45{fill:url(#SVGID_38_);}
	.st46{fill:url(#SVGID_39_);}
	.st47{fill:url(#SVGID_40_);}
	.st48{fill:url(#SVGID_41_);}
	.st49{fill:url(#SVGID_42_);}
	.st50{fill:url(#SVGID_43_);}
	.st51{fill:url(#SVGID_44_);}
	.st52{fill:url(#SVGID_45_);}
	.st53{fill:#040404;}
	.st54{fill:url(#SVGID_46_);}
	.st55{fill:url(#SVGID_47_);}
	.st56{fill:url(#SVGID_48_);}
	.st57{fill:url(#SVGID_49_);}
	.st58{fill:url(#SVGID_50_);}
	.st59{fill:url(#SVGID_51_);}
	.st60{fill:url(#SVGID_52_);}
	.st61{fill:url(#SVGID_53_);}
	.st62{fill:url(#SVGID_54_);}
	.st63{fill:url(#SVGID_55_);}
	.st64{fill:url(#SVGID_56_);}
	.st65{fill:url(#SVGID_57_);}
	.st66{fill:url(#SVGID_58_);}
	.st67{fill:url(#SVGID_59_);}
	.st68{fill:url(#SVGID_60_);}
	.st69{fill:url(#SVGID_61_);}
	.st70{fill:url(#SVGID_62_);}
	.st71{fill:none;stroke:#000000;stroke-width:3;stroke-miterlimit:10;}
	.st72{fill:none;stroke:#FFFFFF;stroke-miterlimit:10;}
	.st73{fill:#4BC9FF;}
	.st74{fill:#5500DD;}
	.st75{fill:#FF3A00;}
	.st76{fill:#FFC794;}
	.st77{fill:#F1F1F1;}
	.st78{fill:#EB4E00;}
	.st79{fill:#E6162D;}
	.st80{fill:#FF9933;}
	.st81{fill:#B92B27;}
	.st82{fill:#00ACED;}
	.st83{fill:#BD2125;}
	.st84{fill:#1877F2;}
	.st85{fill:#6665D2;}
	.st86{fill:#CE3056;}
	.st87{fill:#5BB381;}
	.st88{fill:#61C3EC;}
	.st89{fill:#E4B34B;}
	.st90{fill:#181EF2;}
	.st91{fill:#FF0000;}
	.st92{fill:#FE466C;}
	.st93{fill:#FA4778;}
	.st94{fill:#FF7700;}
	.st95{fill:#D95040;}
	.st96{fill:#58A55C;}
	.st97{fill:#4E86EC;}
	.st98{fill:#B6332A;}
	.st99{fill:#F3BD42;}
	.st100{fill-rule:evenodd;clip-rule:evenodd;fill:#1F6BF6;}
	.st101{fill:#520094;}
	.st102{fill:#4477E8;}
	.st103{fill:#3D1D1C;}
	.st104{fill:#FFE812;}
	.st105{fill:#344356;}
	.st106{fill:#00CC76;}
	.st107{fill-rule:evenodd;clip-rule:evenodd;fill:#345E90;}
	.st108{fill:#1F65D8;}
	.st109{fill:#EB3587;}
	.st110{fill-rule:evenodd;clip-rule:evenodd;fill:#603A88;}
	.st111{fill:#E3CE99;}
	.st112{fill:#783AF9;}
	.st113{fill:#FF515E;}
	.st114{fill:#FF4906;}
	.st115{fill:#503227;}
	.st116{fill:#4C7BD9;}
	.st117{fill:#69C9D0;}
	.st118{fill:#1B92D1;}
	.st119{fill:#EB4F4A;}
	.st120{fill:#513728;}
	.st121{fill:#FF6600;}
	.st122{fill-rule:evenodd;clip-rule:evenodd;fill:#B61438;}
	.st123{fill:#FFFC00;}
	.st124{fill:#141414;}
	.st125{fill:#94D137;}
	.st126{fill-rule:evenodd;clip-rule:evenodd;fill:#F1F1F1;}
	.st127{fill-rule:evenodd;clip-rule:evenodd;fill:#66E066;}
	.st128{fill:#464EB8;}
	.st129{fill:#7B83EB;}
	.st130{fill:#2D8CFF;}
	.st131{fill:#F1A300;}
	.st132{fill:#4BA2F2;}
	.st133{fill:#1A5099;}
	.st134{fill:#EE6060;}
	.st135{fill-rule:evenodd;clip-rule:evenodd;fill:#F48120;}
	.st136{fill:#222222;}
	.st137{fill:url(#SVGID_63_);}
	.st138{fill:#0077B5;}
	.st139{fill:#FFCC00;}
	.st140{fill:#EB3352;}
	.st141{fill:#F9D265;}
	.st142{fill:#F5B955;}
	.st143{fill:#DC322F;}
	.st144{fill:#4DA94C;}
	.st145{fill:#39802F;}
	.st146{fill:#F6BD41;}
	.st147{fill:#EB5141;}
	.st148{fill:#2165D6;}
	.st149{fill:#2F83F7;}
	.st150{fill:#DD2A7B;}
</style><g id="Layer_1"/><g id="Layer_2"><g><path class="st131" d="M96.801,47.392L75.684,10.905c-0.905-1.556-2.571-2.613-4.51-2.613H28.849c-1.916,0-3.609,1.062-4.51,2.594    c-2.233,3.855-7.573,13.08-9.738,16.819L3.199,47.397c-0.932,1.611-0.932,3.596,0,5.207l21.181,36.492    c0.905,1.574,2.571,2.613,4.51,2.613h42.257c1.939,0,3.609-1.039,4.51-2.594l21.14-36.51    C97.734,50.992,97.734,49.003,96.801,47.392z M38.403,26.885h23.236c6.888,0.211,6.898,10.217,0,10.432    c-5.616,0-17.713,0-23.236,0C31.516,37.106,31.505,27.098,38.403,26.885z M56.501,73.245H43.541c-2.876,0-5.207-2.331-5.207-5.207    c0-2.875,2.331-5.207,5.207-5.207c3.057,0,9.971,0,12.961,0C63.38,63.042,63.385,73.033,56.501,73.245z M71.083,55.28H28.936    c-6.882-0.208-6.903-10.216,0-10.431c0,0,42.146,0,42.146,0C77.965,45.057,77.986,55.065,71.083,55.28z"/><g><path d="M96.636,46.772L76.136,11.348c-1.175-2.021-3.262-3.227-5.58-3.227H29.466c-2.279,0-4.416,1.228-5.582,3.212l-6.12,10.57     c-0.881,1.613,1.46,2.952,2.407,1.393c0,0,6.116-10.563,6.116-10.563c0.664-1.13,1.882-1.832,3.179-1.832h41.089     c1.317,0,2.504,0.689,3.175,1.842l20.5,35.421c0.655,1.131,0.653,2.535-0.005,3.666L73.702,87.275     c-0.66,1.142-1.847,1.823-3.173,1.823H29.507c-1.325,0-2.51-0.687-3.175-1.843L5.77,51.831c-0.653-1.13-0.653-2.533,0-3.662     l11.068-19.116c0.899-1.583-1.471-2.966-2.406-1.393c0,0-11.069,19.116-11.069,19.116c-1.15,1.988-1.15,4.458,0.001,6.449     l20.56,35.42c1.164,2.025,3.251,3.234,5.583,3.234h41.022c2.331,0,4.417-1.2,5.58-3.211l20.521-35.442     C97.788,51.238,97.79,48.764,96.636,46.772z"/><path d="M43.729,63.848h7.794c1.826-0.03,1.828-2.751,0-2.781c0,0-7.794,0-7.794,0c-8.526,0.301-8.53,12.587,0,12.89     c0,0,12.582,0,12.582,0c8.527-0.302,8.53-12.587,0-12.89c-1.831,0.034-1.825,2.749,0,2.781c4.838,0.151,4.844,7.174,0,7.328     c0,0-12.582,0-12.582,0C38.891,71.023,38.885,64.002,43.729,63.848z"/><path d="M23.098,50.063c0,3.558,2.895,6.453,6.454,6.453h40.914c3.559,0,6.454-2.895,6.454-6.453     c0-3.559-2.895-6.454-6.454-6.454H29.552C25.993,43.609,23.098,46.504,23.098,50.063z M74.139,50.063     c0,2.025-1.648,3.672-3.673,3.672H29.552c-2.025,0-3.673-1.648-3.673-3.672c0-2.025,1.648-3.673,3.673-3.673h40.914     C72.491,46.39,74.139,48.038,74.139,50.063z"/><path d="M61.299,39.077c8.536-0.3,8.545-12.604,0-12.908c0,0-22.557,0-22.557,0c-8.537,0.301-8.544,12.605,0,12.908     C38.742,39.077,61.299,39.077,61.299,39.077z M35.069,32.623c0-2.025,1.648-3.673,3.673-3.673h22.557     c2.025,0,3.673,1.648,3.673,3.673s-1.648,3.673-3.673,3.673H38.742C36.717,36.296,35.069,34.648,35.069,32.623z"/></g></g></g></svg>