<?xml version="1.0" ?><svg style="enable-background:new 0 0 100 100;" version="1.1" viewBox="0 0 100 100" xml:space="preserve" xmlns="http://www.w3.org/2000/svg" xmlns:xlink="http://www.w3.org/1999/xlink"><style type="text/css">
	.st0{fill:#FFFFFF;}
	.st1{fill:#D43C89;}
	.st2{fill:#B2005F;}
	.st3{fill:none;stroke:#000000;stroke-width:3;stroke-linecap:round;stroke-linejoin:round;stroke-miterlimit:10;}
	
		.st4{fill-rule:evenodd;clip-rule:evenodd;fill:none;stroke:#000000;stroke-width:3;stroke-linecap:round;stroke-linejoin:round;stroke-miterlimit:10;}
	
		.st5{fill-rule:evenodd;clip-rule:evenodd;fill:none;stroke:#040404;stroke-width:3;stroke-linecap:round;stroke-linejoin:round;stroke-miterlimit:10;}
	.st6{fill-rule:evenodd;clip-rule:evenodd;}
	.st7{fill-rule:evenodd;clip-rule:evenodd;fill:#040404;}
	.st8{fill:url(#SVGID_1_);}
	.st9{fill:url(#SVGID_2_);}
	.st10{fill:url(#SVGID_3_);}
	.st11{fill:url(#SVGID_4_);}
	.st12{fill:url(#SVGID_5_);}
	.st13{fill:url(#SVGID_6_);}
	.st14{fill:url(#SVGID_7_);}
	.st15{fill:url(#SVGID_8_);}
	.st16{fill:url(#SVGID_9_);}
	.st17{fill:url(#SVGID_10_);}
	.st18{fill:url(#SVGID_11_);}
	.st19{fill:url(#SVGID_12_);}
	.st20{fill:url(#SVGID_13_);}
	.st21{fill:url(#SVGID_14_);}
	.st22{fill:url(#SVGID_15_);}
	.st23{fill:url(#SVGID_16_);}
	.st24{fill:url(#SVGID_17_);}
	.st25{fill:url(#SVGID_18_);}
	.st26{fill:url(#SVGID_19_);}
	.st27{fill:url(#SVGID_20_);}
	.st28{fill:url(#SVGID_21_);}
	.st29{fill:url(#SVGID_22_);}
	.st30{fill:url(#SVGID_23_);}
	.st31{fill:url(#SVGID_24_);}
	.st32{fill:url(#SVGID_25_);}
	.st33{fill:url(#SVGID_26_);}
	.st34{fill:url(#SVGID_27_);}
	.st35{fill:url(#SVGID_28_);}
	.st36{fill:url(#SVGID_29_);}
	.st37{fill:url(#SVGID_30_);}
	.st38{fill:url(#SVGID_31_);}
	.st39{fill:url(#SVGID_32_);}
	.st40{fill:url(#SVGID_33_);}
	.st41{fill:url(#SVGID_34_);}
	.st42{fill:url(#SVGID_35_);}
	.st43{fill:url(#SVGID_36_);}
	.st44{fill:url(#SVGID_37_);}
	.st45{fill:url(#SVGID_38_);}
	.st46{fill:url(#SVGID_39_);}
	.st47{fill:url(#SVGID_40_);}
	.st48{fill:url(#SVGID_41_);}
	.st49{fill:url(#SVGID_42_);}
	.st50{fill:url(#SVGID_43_);}
	.st51{fill:url(#SVGID_44_);}
	.st52{fill:url(#SVGID_45_);}
	.st53{fill:#040404;}
	.st54{fill:url(#SVGID_46_);}
	.st55{fill:url(#SVGID_47_);}
	.st56{fill:url(#SVGID_48_);}
	.st57{fill:url(#SVGID_49_);}
	.st58{fill:url(#SVGID_50_);}
	.st59{fill:url(#SVGID_51_);}
	.st60{fill:url(#SVGID_52_);}
	.st61{fill:url(#SVGID_53_);}
	.st62{fill:url(#SVGID_54_);}
	.st63{fill:url(#SVGID_55_);}
	.st64{fill:url(#SVGID_56_);}
	.st65{fill:url(#SVGID_57_);}
	.st66{fill:url(#SVGID_58_);}
	.st67{fill:url(#SVGID_59_);}
	.st68{fill:url(#SVGID_60_);}
	.st69{fill:url(#SVGID_61_);}
	.st70{fill:url(#SVGID_62_);}
	.st71{fill:none;stroke:#000000;stroke-width:3;stroke-miterlimit:10;}
	.st72{fill:none;stroke:#FFFFFF;stroke-miterlimit:10;}
	.st73{fill:#4BC9FF;}
	.st74{fill:#5500DD;}
	.st75{fill:#FF3A00;}
	.st76{fill:#FFC794;}
	.st77{fill:#F1F1F1;}
	.st78{fill:#EB4E00;}
	.st79{fill:#E6162D;}
	.st80{fill:#FF9933;}
	.st81{fill:#B92B27;}
	.st82{fill:#00ACED;}
	.st83{fill:#BD2125;}
	.st84{fill:#1877F2;}
	.st85{fill:#6665D2;}
	.st86{fill:#CE3056;}
	.st87{fill:#5BB381;}
	.st88{fill:#61C3EC;}
	.st89{fill:#E4B34B;}
	.st90{fill:#181EF2;}
	.st91{fill:#FF0000;}
	.st92{fill:#FE466C;}
	.st93{fill:#FA4778;}
	.st94{fill:#FF7700;}
	.st95{fill:#D95040;}
	.st96{fill:#58A55C;}
	.st97{fill:#4E86EC;}
	.st98{fill:#B6332A;}
	.st99{fill:#F3BD42;}
	.st100{fill-rule:evenodd;clip-rule:evenodd;fill:#1F6BF6;}
	.st101{fill:#520094;}
	.st102{fill:#4477E8;}
	.st103{fill:#3D1D1C;}
	.st104{fill:#FFE812;}
	.st105{fill:#344356;}
	.st106{fill:#00CC76;}
	.st107{fill-rule:evenodd;clip-rule:evenodd;fill:#345E90;}
	.st108{fill:#1F65D8;}
	.st109{fill:#EB3587;}
	.st110{fill-rule:evenodd;clip-rule:evenodd;fill:#603A88;}
	.st111{fill:#E3CE99;}
	.st112{fill:#783AF9;}
	.st113{fill:#FF515E;}
	.st114{fill:#FF4906;}
	.st115{fill:#503227;}
	.st116{fill:#4C7BD9;}
	.st117{fill:#69C9D0;}
	.st118{fill:#1B92D1;}
	.st119{fill:#EB4F4A;}
	.st120{fill:#513728;}
	.st121{fill:#FF6600;}
	.st122{fill-rule:evenodd;clip-rule:evenodd;fill:#B61438;}
	.st123{fill:#FFFC00;}
	.st124{fill:#141414;}
	.st125{fill:#94D137;}
	.st126{fill-rule:evenodd;clip-rule:evenodd;fill:#F1F1F1;}
	.st127{fill-rule:evenodd;clip-rule:evenodd;fill:#66E066;}
	.st128{fill:#464EB8;}
	.st129{fill:#7B83EB;}
	.st130{fill:#2D8CFF;}
	.st131{fill:#F1A300;}
	.st132{fill:#4BA2F2;}
	.st133{fill:#1A5099;}
	.st134{fill:#EE6060;}
	.st135{fill-rule:evenodd;clip-rule:evenodd;fill:#F48120;}
	.st136{fill:#222222;}
	.st137{fill:url(#SVGID_63_);}
	.st138{fill:#0077B5;}
	.st139{fill:#FFCC00;}
	.st140{fill:#EB3352;}
	.st141{fill:#F9D265;}
	.st142{fill:#F5B955;}
	.st143{fill:#DC322F;}
	.st144{fill:#4DA94C;}
	.st145{fill:#39802F;}
	.st146{fill:#F6BD41;}
	.st147{fill:#EB5141;}
	.st148{fill:#2165D6;}
	.st149{fill:#2F83F7;}
	.st150{fill:#DD2A7B;}
</style><g id="Layer_1"/><g id="Layer_2"><g><path class="st111" d="M80.882,50.35c0.146-1.311,0.218-2.429,0.218-3.352c0-4.76-0.801-4.784-3.886-4.784H58.879    c10.094-17.217-9.851-19.082-11.123-30.358c0-2.842,1.239-5.173,2.259-8.476c-6.436,1.7-11.512,8.136-11.512,14.96    c0.172,13.061,16.953,12.026,13.163,23.873c0,0-13.576,0-13.576,0c2.607-7.1-8.954-9.828-9.18-15.082c0-1.7,0.243-3.109,0.777-5.1    c-3.133,1.239-6.873,4.857-6.873,8.937c0,6.484,7.747,7.116,8.937,11.245H7.271c-3.084,0-3.886,0.024-3.886,4.784    c0,4.76,1.87,14.887,6.873,26.958s10.783,17.389,14.863,20.935c1.217,0.895,2.869,1.803,4.687,1.724c0,0,24.869,0,24.869,0    c1.813,0.071,3.479-0.817,4.687-1.725c2.186-1.894,4.857-4.323,7.626-7.99c8.063,3.491,18.719,2.338,24.529-4.323    C101.829,71.444,95.596,53.063,80.882,50.35z M76.754,81.145c-2.089,0-3.789-0.291-5.367-1.02    c3.459-6.57,6.685-15.989,8.087-22.076C92.644,60.743,92.007,80.823,76.754,81.145z"/><g><path d="M89.812,69.277c0-6.163-4.379-11.492-10.413-12.671c-0.737-0.145-1.439,0.315-1.612,1.036     c-1.685,6.978-4.455,14.868-7.89,21.536c-0.353,0.672-0.039,1.573,0.659,1.876C80.241,85.092,89.981,78.354,89.812,69.277z      M75.224,74.299c2.011-4.857,3.699-9.888,4.916-14.639c12.426,4.851,6.879,22.816-7.077,19.371     C73.815,77.502,74.521,76.003,75.224,74.299z"/><path d="M82.023,49.268c0.294-5.41,0.284-8.611-5.124-8.347c0,0-15.807,0-15.807,0c4.227-8.776,0.664-14.317-5.973-20.088     c-3.07-2.845-5.969-5.532-5.969-8.55c-0.014-2.577,1.379-5.287,2.172-7.974c0.343-0.99-0.668-2.05-1.676-1.747     c-7.078,1.87-12.415,8.806-12.415,16.134C37.128,30.922,50.478,31.16,50.753,39.062c0.002,0.573-0.143,1.208-0.276,1.859H39.862     c0.507-3.885-2.668-6.625-5.494-8.883c-4.456-3.437-4.386-4.387-3.135-9.333c0.135-0.506-0.026-1.044-0.416-1.392     c-0.389-0.349-0.944-0.447-1.43-0.254c-3.719,1.47-7.672,5.518-7.672,10.126c0.096,5.635,4.412,7.143,7.591,9.735     c0,0-16.183,0-16.183,0c-1.79,0.02-1.843,2.737,0,2.769c0,0,18.814,0,18.814,0c0.435,0,0.844-0.205,1.106-0.552     c1.193-2.248-2.475-4.831-4.157-5.952c-5.47-3.113-5.884-7.906-0.996-12.049c-0.868,4.106,1.366,6.449,4.728,9.047     c2.911,2.336,5.376,4.423,4.25,7.765c-0.248,0.846,0.454,1.765,1.338,1.741c0,0,13.426,0,13.426,0     c0.69,0,1.275-0.509,1.371-1.193c0.171-1.202,0.516-2.164,0.517-3.434c-0.286-9.946-13.805-9.876-13.522-20.367     c0-5.07,3.234-10.067,7.729-12.429c-3.143,7.495-0.448,11.31,5.509,16.598c6.866,5.947,9.173,10.579,4.346,18.722     c-0.574,0.876,0.137,2.138,1.182,2.104c1.031,0.108,19.858-0.237,20.207,0.182c0.48,0.287,0.446,4.677,0.177,6.326     c-0.079,0.717,0.406,1.376,1.115,1.512c11.432,1.965,17.991,15.382,12.499,25.61c-0.813,1.596,1.621,2.882,2.47,1.253     C101.335,67.19,94.51,52.199,82.023,49.268z"/><path d="M90.025,81.289c-5.397,6.161-15.215,7.156-22.696,3.936c-0.585-0.25-1.264-0.067-1.647,0.44     c-2.593,3.355-4.892,5.673-7.388,7.66c-0.999,0.9-2.307,1.397-3.684,1.397H30.017c-1.377,0-2.686-0.497-3.684-1.397     c-3.928-3.239-9.287-8.128-14.372-20.158c-4.622-11.151-6.692-21.159-6.692-26.13c0-2.41,0.241-3.017,0.385-3.164     c0.178-0.183,1.273-0.183,2.074-0.183c0.764,0,1.384-0.62,1.384-1.384c0-0.764-0.62-1.384-1.384-1.384     c-3.986,0-5.227,0.844-5.227,6.116c0,4.861,1.808,14.899,6.903,27.19c4.855,11.714,10.325,17.095,15.069,21.219     c1.586,1.238,3.464,2.076,5.545,2.045c0,0,24.594,0,24.594,0c2.078,0.028,3.959-0.802,5.542-2.043     c2.231-1.933,4.623-4.15,7.093-7.277c0.945,0.351,1.925,0.644,2.921,0.876c7.804,2.01,16.651,0.04,21.901-5.888     C93.254,81.798,91.299,79.963,90.025,81.289z"/></g></g></g></svg>