<?xml version="1.0" ?><svg style="enable-background:new 0 0 100 100;" version="1.1" viewBox="0 0 100 100" xml:space="preserve" xmlns="http://www.w3.org/2000/svg" xmlns:xlink="http://www.w3.org/1999/xlink"><style type="text/css">
	.st0{fill:#FFFFFF;}
	.st1{fill:#D43C89;}
	.st2{fill:#B2005F;}
	.st3{fill:none;stroke:#000000;stroke-width:3;stroke-linecap:round;stroke-linejoin:round;stroke-miterlimit:10;}
	
		.st4{fill-rule:evenodd;clip-rule:evenodd;fill:none;stroke:#000000;stroke-width:3;stroke-linecap:round;stroke-linejoin:round;stroke-miterlimit:10;}
	
		.st5{fill-rule:evenodd;clip-rule:evenodd;fill:none;stroke:#040404;stroke-width:3;stroke-linecap:round;stroke-linejoin:round;stroke-miterlimit:10;}
	.st6{fill-rule:evenodd;clip-rule:evenodd;}
	.st7{fill-rule:evenodd;clip-rule:evenodd;fill:#040404;}
	.st8{fill:url(#SVGID_1_);}
	.st9{fill:url(#SVGID_2_);}
	.st10{fill:url(#SVGID_3_);}
	.st11{fill:url(#SVGID_4_);}
	.st12{fill:url(#SVGID_5_);}
	.st13{fill:url(#SVGID_6_);}
	.st14{fill:url(#SVGID_7_);}
	.st15{fill:url(#SVGID_8_);}
	.st16{fill:url(#SVGID_9_);}
	.st17{fill:url(#SVGID_10_);}
	.st18{fill:url(#SVGID_11_);}
	.st19{fill:url(#SVGID_12_);}
	.st20{fill:url(#SVGID_13_);}
	.st21{fill:url(#SVGID_14_);}
	.st22{fill:url(#SVGID_15_);}
	.st23{fill:url(#SVGID_16_);}
	.st24{fill:url(#SVGID_17_);}
	.st25{fill:url(#SVGID_18_);}
	.st26{fill:url(#SVGID_19_);}
	.st27{fill:url(#SVGID_20_);}
	.st28{fill:url(#SVGID_21_);}
	.st29{fill:url(#SVGID_22_);}
	.st30{fill:url(#SVGID_23_);}
	.st31{fill:url(#SVGID_24_);}
	.st32{fill:url(#SVGID_25_);}
	.st33{fill:url(#SVGID_26_);}
	.st34{fill:url(#SVGID_27_);}
	.st35{fill:url(#SVGID_28_);}
	.st36{fill:url(#SVGID_29_);}
	.st37{fill:url(#SVGID_30_);}
	.st38{fill:url(#SVGID_31_);}
	.st39{fill:url(#SVGID_32_);}
	.st40{fill:url(#SVGID_33_);}
	.st41{fill:url(#SVGID_34_);}
	.st42{fill:url(#SVGID_35_);}
	.st43{fill:url(#SVGID_36_);}
	.st44{fill:url(#SVGID_37_);}
	.st45{fill:url(#SVGID_38_);}
	.st46{fill:url(#SVGID_39_);}
	.st47{fill:url(#SVGID_40_);}
	.st48{fill:url(#SVGID_41_);}
	.st49{fill:url(#SVGID_42_);}
	.st50{fill:url(#SVGID_43_);}
	.st51{fill:url(#SVGID_44_);}
	.st52{fill:url(#SVGID_45_);}
	.st53{fill:#040404;}
	.st54{fill:url(#SVGID_46_);}
	.st55{fill:url(#SVGID_47_);}
	.st56{fill:url(#SVGID_48_);}
	.st57{fill:url(#SVGID_49_);}
	.st58{fill:url(#SVGID_50_);}
	.st59{fill:url(#SVGID_51_);}
	.st60{fill:url(#SVGID_52_);}
	.st61{fill:url(#SVGID_53_);}
	.st62{fill:url(#SVGID_54_);}
	.st63{fill:url(#SVGID_55_);}
	.st64{fill:url(#SVGID_56_);}
	.st65{fill:url(#SVGID_57_);}
	.st66{fill:url(#SVGID_58_);}
	.st67{fill:url(#SVGID_59_);}
	.st68{fill:url(#SVGID_60_);}
	.st69{fill:url(#SVGID_61_);}
	.st70{fill:url(#SVGID_62_);}
	.st71{fill:none;stroke:#000000;stroke-width:3;stroke-miterlimit:10;}
	.st72{fill:none;stroke:#FFFFFF;stroke-miterlimit:10;}
	.st73{fill:#4BC9FF;}
	.st74{fill:#5500DD;}
	.st75{fill:#FF3A00;}
	.st76{fill:#FFC794;}
	.st77{fill:#F1F1F1;}
	.st78{fill:#EB4E00;}
	.st79{fill:#E6162D;}
	.st80{fill:#FF9933;}
	.st81{fill:#B92B27;}
	.st82{fill:#00ACED;}
	.st83{fill:#BD2125;}
	.st84{fill:#1877F2;}
	.st85{fill:#6665D2;}
	.st86{fill:#CE3056;}
	.st87{fill:#5BB381;}
	.st88{fill:#61C3EC;}
	.st89{fill:#E4B34B;}
	.st90{fill:#181EF2;}
	.st91{fill:#FF0000;}
	.st92{fill:#FE466C;}
	.st93{fill:#FA4778;}
	.st94{fill:#FF7700;}
	.st95{fill:#D95040;}
	.st96{fill:#58A55C;}
	.st97{fill:#4E86EC;}
	.st98{fill:#B6332A;}
	.st99{fill:#F3BD42;}
	.st100{fill-rule:evenodd;clip-rule:evenodd;fill:#1F6BF6;}
	.st101{fill:#520094;}
	.st102{fill:#4477E8;}
	.st103{fill:#3D1D1C;}
	.st104{fill:#FFE812;}
	.st105{fill:#344356;}
	.st106{fill:#00CC76;}
	.st107{fill-rule:evenodd;clip-rule:evenodd;fill:#345E90;}
	.st108{fill:#1F65D8;}
	.st109{fill:#EB3587;}
	.st110{fill-rule:evenodd;clip-rule:evenodd;fill:#603A88;}
	.st111{fill:#E3CE99;}
	.st112{fill:#783AF9;}
	.st113{fill:#FF515E;}
	.st114{fill:#FF4906;}
	.st115{fill:#503227;}
	.st116{fill:#4C7BD9;}
	.st117{fill:#69C9D0;}
	.st118{fill:#1B92D1;}
	.st119{fill:#EB4F4A;}
	.st120{fill:#513728;}
	.st121{fill:#FF6600;}
	.st122{fill-rule:evenodd;clip-rule:evenodd;fill:#B61438;}
	.st123{fill:#FFFC00;}
	.st124{fill:#141414;}
	.st125{fill:#94D137;}
	.st126{fill-rule:evenodd;clip-rule:evenodd;fill:#F1F1F1;}
	.st127{fill-rule:evenodd;clip-rule:evenodd;fill:#66E066;}
	.st128{fill:#464EB8;}
	.st129{fill:#7B83EB;}
	.st130{fill:#2D8CFF;}
	.st131{fill:#F1A300;}
	.st132{fill:#4BA2F2;}
	.st133{fill:#1A5099;}
	.st134{fill:#EE6060;}
	.st135{fill-rule:evenodd;clip-rule:evenodd;fill:#F48120;}
	.st136{fill:#222222;}
	.st137{fill:url(#SVGID_63_);}
	.st138{fill:#0077B5;}
	.st139{fill:#FFCC00;}
	.st140{fill:#EB3352;}
	.st141{fill:#F9D265;}
	.st142{fill:#F5B955;}
	.st143{fill:#DC322F;}
	.st144{fill:#4DA94C;}
	.st145{fill:#39802F;}
	.st146{fill:#F6BD41;}
	.st147{fill:#EB5141;}
	.st148{fill:#2165D6;}
	.st149{fill:#2F83F7;}
	.st150{fill:#DD2A7B;}
</style><g id="Layer_1"/><g id="Layer_2"><g><g><path class="st100" d="M50.036,3.524C7.432,2.887-12.164,54.113,18.155,81.96c0.757,0.682,1.215,1.627,1.253,2.646l0.253,8.267     c0.084,2.637,2.806,4.349,5.218,3.292l9.221-4.068c0.785-0.346,1.655-0.411,2.478-0.187c29.354,8.399,60.495-12.198,59.936-43.3     C96.515,22.705,76.221,3.524,50.036,3.524z M78.529,37.963L64.589,60.077c-2.215,3.514-6.97,4.392-10.293,1.9l-11.086-8.317     c-1.022-0.764-2.416-0.754-3.428,0.01L24.809,65.033c-1.995,1.518-4.612-0.879-3.266-2.998L35.485,39.92     c2.215-3.514,6.97-4.392,10.293-1.9l11.086,8.317c1.022,0.764,2.416,0.754,3.428-0.01l14.972-11.363     C77.26,33.446,79.876,35.843,78.529,37.963z"/></g><g><path d="M49.991,2.5c-45.364-0.022-62.7,52.324-31.772,81.859c-0.001,0.001,0.25,8.203,0.25,8.203     c0.01,3.493,3.979,5.993,7.132,4.496c0,0,9.146-4.034,9.146-4.034C108.373,109.493,121.687,5.668,49.991,2.5z M49.991,91.939     c-4.473,0-8.84-0.579-12.982-1.723c-1.12-0.305-2.322-0.215-3.387,0.256l-9.143,4.033c-1.424,0.677-3.224-0.451-3.223-2.031     c0,0-0.251-8.208-0.251-8.208c-0.051-1.385-0.655-2.667-1.707-3.614C-9.869,53.921,9.114,4.536,49.992,5.289     C109.319,6.035,109.314,91.199,49.991,91.939z"/><path d="M73.655,34.275L59.113,45.311c-0.495,0.373-1.159,0.376-1.652,0.007l-10.77-8.08c-3.709-2.908-9.589-1.821-12.015,2.219     c-0.949,1.572,1.354,3.02,2.358,1.487c1.608-2.689,5.529-3.414,7.986-1.471c0,0,10.768,8.078,10.768,8.078     c1.475,1.103,3.533,1.098,5.008-0.015l14.546-11.039c0.766-0.569,1.62,0.358,1.148,1.059c0,0-13.542,21.483-13.542,21.483     c-1.609,2.686-5.519,3.414-7.984,1.473c0,0-10.772-8.081-10.772-8.081c-1.476-1.102-3.534-1.096-5.008,0.015L24.64,63.487     c-0.752,0.559-1.624-0.34-1.149-1.059c0,0,9.797-15.541,9.797-15.541c0.957-1.564-1.361-3.022-2.358-1.487     c0,0-9.794,15.536-9.794,15.536c-2.146,3.307,2.071,7.194,5.192,4.771c0,0,14.541-11.037,14.541-11.037     c0.496-0.374,1.162-0.375,1.654-0.006l10.769,8.079c3.706,2.908,9.59,1.82,12.016-2.217c0,0,13.541-21.48,13.541-21.48     C80.988,35.741,76.783,31.853,73.655,34.275z"/></g></g></g></svg>