<?xml version="1.0" ?><svg style="enable-background:new 0 0 100 100;" version="1.1" viewBox="0 0 100 100" xml:space="preserve" xmlns="http://www.w3.org/2000/svg" xmlns:xlink="http://www.w3.org/1999/xlink"><style type="text/css">
	.st0{fill:#FFFFFF;}
	.st1{fill:#D43C89;}
	.st2{fill:#B2005F;}
	.st3{fill:none;stroke:#000000;stroke-width:3;stroke-linecap:round;stroke-linejoin:round;stroke-miterlimit:10;}
	
		.st4{fill-rule:evenodd;clip-rule:evenodd;fill:none;stroke:#000000;stroke-width:3;stroke-linecap:round;stroke-linejoin:round;stroke-miterlimit:10;}
	
		.st5{fill-rule:evenodd;clip-rule:evenodd;fill:none;stroke:#040404;stroke-width:3;stroke-linecap:round;stroke-linejoin:round;stroke-miterlimit:10;}
	.st6{fill-rule:evenodd;clip-rule:evenodd;}
	.st7{fill-rule:evenodd;clip-rule:evenodd;fill:#040404;}
	.st8{fill:url(#SVGID_1_);}
	.st9{fill:url(#SVGID_2_);}
	.st10{fill:url(#SVGID_3_);}
	.st11{fill:url(#SVGID_4_);}
	.st12{fill:url(#SVGID_5_);}
	.st13{fill:url(#SVGID_6_);}
	.st14{fill:url(#SVGID_7_);}
	.st15{fill:url(#SVGID_8_);}
	.st16{fill:url(#SVGID_9_);}
	.st17{fill:url(#SVGID_10_);}
	.st18{fill:url(#SVGID_11_);}
	.st19{fill:url(#SVGID_12_);}
	.st20{fill:url(#SVGID_13_);}
	.st21{fill:url(#SVGID_14_);}
	.st22{fill:url(#SVGID_15_);}
	.st23{fill:url(#SVGID_16_);}
	.st24{fill:url(#SVGID_17_);}
	.st25{fill:url(#SVGID_18_);}
	.st26{fill:url(#SVGID_19_);}
	.st27{fill:url(#SVGID_20_);}
	.st28{fill:url(#SVGID_21_);}
	.st29{fill:url(#SVGID_22_);}
	.st30{fill:url(#SVGID_23_);}
	.st31{fill:url(#SVGID_24_);}
	.st32{fill:url(#SVGID_25_);}
	.st33{fill:url(#SVGID_26_);}
	.st34{fill:url(#SVGID_27_);}
	.st35{fill:url(#SVGID_28_);}
	.st36{fill:url(#SVGID_29_);}
	.st37{fill:url(#SVGID_30_);}
	.st38{fill:url(#SVGID_31_);}
	.st39{fill:url(#SVGID_32_);}
	.st40{fill:url(#SVGID_33_);}
	.st41{fill:url(#SVGID_34_);}
	.st42{fill:url(#SVGID_35_);}
	.st43{fill:url(#SVGID_36_);}
	.st44{fill:url(#SVGID_37_);}
	.st45{fill:url(#SVGID_38_);}
	.st46{fill:url(#SVGID_39_);}
	.st47{fill:url(#SVGID_40_);}
	.st48{fill:url(#SVGID_41_);}
	.st49{fill:url(#SVGID_42_);}
	.st50{fill:url(#SVGID_43_);}
	.st51{fill:url(#SVGID_44_);}
	.st52{fill:url(#SVGID_45_);}
	.st53{fill:#040404;}
	.st54{fill:url(#SVGID_46_);}
	.st55{fill:url(#SVGID_47_);}
	.st56{fill:url(#SVGID_48_);}
	.st57{fill:url(#SVGID_49_);}
	.st58{fill:url(#SVGID_50_);}
	.st59{fill:url(#SVGID_51_);}
	.st60{fill:url(#SVGID_52_);}
	.st61{fill:url(#SVGID_53_);}
	.st62{fill:url(#SVGID_54_);}
	.st63{fill:url(#SVGID_55_);}
	.st64{fill:url(#SVGID_56_);}
	.st65{fill:url(#SVGID_57_);}
	.st66{fill:url(#SVGID_58_);}
	.st67{fill:url(#SVGID_59_);}
	.st68{fill:url(#SVGID_60_);}
	.st69{fill:url(#SVGID_61_);}
	.st70{fill:url(#SVGID_62_);}
	.st71{fill:none;stroke:#000000;stroke-width:3;stroke-miterlimit:10;}
	.st72{fill:none;stroke:#FFFFFF;stroke-miterlimit:10;}
	.st73{fill:#4BC9FF;}
	.st74{fill:#5500DD;}
	.st75{fill:#FF3A00;}
	.st76{fill:#FFC794;}
	.st77{fill:#F1F1F1;}
	.st78{fill:#EB4E00;}
	.st79{fill:#E6162D;}
	.st80{fill:#FF9933;}
	.st81{fill:#B92B27;}
	.st82{fill:#00ACED;}
	.st83{fill:#BD2125;}
	.st84{fill:#1877F2;}
	.st85{fill:#6665D2;}
	.st86{fill:#CE3056;}
	.st87{fill:#5BB381;}
	.st88{fill:#61C3EC;}
	.st89{fill:#E4B34B;}
	.st90{fill:#181EF2;}
	.st91{fill:#FF0000;}
	.st92{fill:#FE466C;}
	.st93{fill:#FA4778;}
	.st94{fill:#FF7700;}
	.st95{fill:#D95040;}
	.st96{fill:#58A55C;}
	.st97{fill:#4E86EC;}
	.st98{fill:#B6332A;}
	.st99{fill:#F3BD42;}
	.st100{fill-rule:evenodd;clip-rule:evenodd;fill:#1F6BF6;}
	.st101{fill:#520094;}
	.st102{fill:#4477E8;}
	.st103{fill:#3D1D1C;}
	.st104{fill:#FFE812;}
	.st105{fill:#344356;}
	.st106{fill:#00CC76;}
	.st107{fill-rule:evenodd;clip-rule:evenodd;fill:#345E90;}
	.st108{fill:#1F65D8;}
	.st109{fill:#EB3587;}
	.st110{fill-rule:evenodd;clip-rule:evenodd;fill:#603A88;}
	.st111{fill:#E3CE99;}
	.st112{fill:#783AF9;}
	.st113{fill:#FF515E;}
	.st114{fill:#FF4906;}
	.st115{fill:#503227;}
	.st116{fill:#4C7BD9;}
	.st117{fill:#69C9D0;}
	.st118{fill:#1B92D1;}
	.st119{fill:#EB4F4A;}
	.st120{fill:#513728;}
	.st121{fill:#FF6600;}
	.st122{fill-rule:evenodd;clip-rule:evenodd;fill:#B61438;}
	.st123{fill:#FFFC00;}
	.st124{fill:#141414;}
	.st125{fill:#94D137;}
	.st126{fill-rule:evenodd;clip-rule:evenodd;fill:#F1F1F1;}
	.st127{fill-rule:evenodd;clip-rule:evenodd;fill:#66E066;}
	.st128{fill:#464EB8;}
	.st129{fill:#7B83EB;}
	.st130{fill:#2D8CFF;}
	.st131{fill:#F1A300;}
	.st132{fill:#4BA2F2;}
	.st133{fill:#1A5099;}
	.st134{fill:#EE6060;}
	.st135{fill-rule:evenodd;clip-rule:evenodd;fill:#F48120;}
	.st136{fill:#222222;}
	.st137{fill:url(#SVGID_63_);}
	.st138{fill:#0077B5;}
	.st139{fill:#FFCC00;}
	.st140{fill:#EB3352;}
	.st141{fill:#F9D265;}
	.st142{fill:#F5B955;}
	.st143{fill:#DC322F;}
	.st144{fill:#4DA94C;}
	.st145{fill:#39802F;}
	.st146{fill:#F6BD41;}
	.st147{fill:#EB5141;}
	.st148{fill:#2165D6;}
	.st149{fill:#2F83F7;}
	.st150{fill:#DD2A7B;}
</style><g id="Layer_1"/><g id="Layer_2"><g><g><path class="st123" d="M96.174,71.202c-0.93-2.549-3.142-3.409-5.26-4.497c-4.369-2.316-7.785-5.241-10.147-8.702     c-0.857-1.536-2.916-3.829-1.226-4.878c5.286-3.232,10.825-6.796,8.43-13.581c-1.357-3.878-5.892-5.821-9.965-4.823     c-0.2,0.045-0.391,0.091-0.581,0.136c0.036-2.126-0.018-4.397-0.209-6.613C76.221,17.979,71.82,12.412,64.589,7.94     c-10.745-6.482-27.59-4.33-35.537,5.124c-4.861,5.044-6.803,12.657-6.468,21.783c-4.178-1.258-9.131,0.581-10.547,4.687     c-1.601,4.299,0.399,8.257,4.224,10.828c1.077,0.734,2.717,1.775,4.124,2.707c0.109,0.073,0.499,0.363,0.636,0.636     c0.154,0.309,0.154,0.645-0.073,1.263c-2.267,4.892-6.308,8.703-11.573,11.573c-2.244,1.19-4.569,1.98-5.55,4.651     C2.6,74.114,4.792,77.73,7.832,79.241c2.997,1.755,4.893,1.785,6.986,2.852c0.69,0.6,0.59,1.508,1.508,2.834     c3.803,5.093,9.619,2.124,15.161,4.306c5.918,2.647,8.863,6.491,18.504,6.549c9.61-0.066,12.628-3.895,18.513-6.55     c5.662-2.215,11.765,0.9,15.407-4.687c0.654-1.118,0.645-1.908,1.262-2.444c2.199-1.061,4.079-1.144,7.004-2.853     C95.211,77.751,97.4,74.159,96.174,71.202z"/><path class="st0" d="M90.111,75.058c-4.002,2.211-6.661,1.974-8.727,3.299c-1.754,1.133-0.722,3.573-1.992,4.45     c-1.572,1.087-6.205-0.073-12.19,1.901c-4.934,1.636-8.087,6.323-16.978,6.323c-8.909,0-11.97-4.669-16.978-6.323     c-5.985-1.974-10.627-0.813-12.19-1.901c-1.27-0.877-0.238-3.317-1.992-4.45c-2.065-1.334-4.724-1.097-8.727-3.299     c-2.549-1.407-1.106-2.275-0.256-2.686c14.492-7.009,16.795-17.846,16.905-18.659c0.128-0.969,0.265-1.736-0.804-2.732     c-1.032-0.959-5.629-3.801-6.899-4.688c-2.111-1.471-3.034-2.942-2.348-4.752c0.475-1.252,1.645-1.718,2.878-1.718     c2.425,0.068,5.532,1.775,7.009,2.102c0.833,0.215,1.47-0.05,1.362-1.078c-0.518-7.752-1.144-18.309,4.916-24.352     C44.375,3.712,71.234,8.341,72.393,28.766c0.402,4.614,0.055,9.549-0.11,12.08c-0.124,1.068,0.546,1.278,1.362,1.078     c2.121-0.402,8.112-4.26,9.887-0.384c0.685,1.809-0.247,3.281-2.348,4.752c-1.27,0.886-5.866,3.728-6.899,4.688     c-2.817,1.647,1.575,14.389,16.101,21.392C91.208,72.783,92.661,73.651,90.111,75.058z"/></g><g><path d="M97.086,70.543c-1.227-3.146-3.479-3.97-5.875-5.217c-5.192-2.813-8.843-6.157-11.132-10.958     c0.374-0.516,1.604-1.059,2.003-1.397c5.26-2.939,9.148-7.844,6.87-13.817c-1.479-4.107-5.868-6.452-10.352-5.853     c0.194-8.963-2.383-16.286-6.769-20.812c-1.246-1.353-3.319,0.417-2.122,1.856c4.586,4.75,6.385,11.978,6.061,20.637     c-0.039,0.897,0.876,1.622,1.738,1.395c3.446-1.064,7.643,0.369,8.806,3.774c1.787,4.67-1.752,8.173-5.76,10.447     c-1.811,1.175-4.211,2.215-3.074,4.866c2.722,5.999,7.975,10.291,14.345,13.345c2.974,1.354,3.894,4.901,1.403,7.353     c-1.802,1.973-5.714,3.292-7.679,3.823c-1.928,0.648-2.135,1.177-2.688,2.52c-2.23,5.972-9.618,2.798-14.965,5.054     c-5.883,2.547-8.645,6.356-17.905,6.419c-9.344-0.068-11.958-3.877-17.898-6.421c-2.824-0.932-5.242-1.028-7.422-1.115     c-2.887-0.137-5.179-0.185-6.886-2.614c-0.806-1.116-0.632-2.084-1.711-3.055c-0.359-0.323-0.9-0.585-1.729-0.833     c-3.188-0.734-10.521-3.732-8.785-8.435c0.627-1.746-1.987-2.701-2.646-0.977c-2.376,7.32,5.996,10.907,11.295,12.359     c1.683,4.914,5.568,6.414,10.396,6.375c3.117,0.039,6.83,0.493,9.863,2.708c9.235,6.385,21.723,6.462,31.093-0.015     c3.035-2.211,6.727-2.651,9.869-2.695c4.598,0.063,8.779-1.476,10.311-6.332C91.137,81.381,99.452,77.97,97.086,70.543z"/><path d="M9.74,67.819c0.227,0,0.457-0.055,0.67-0.17c4.391-2.379,7.843-5.379,10.261-8.917c1.305-2,3.551-5.156,0.758-6.849     c-4.445-2.779-9.884-5.935-7.733-11.742c1.16-3.398,5.368-4.843,8.807-3.771c0.422,0.101,0.869,0.001,1.208-0.271     c0.339-0.271,0.534-0.684,0.529-1.119c-0.03-2.35,0.038-4.509,0.202-6.416c0.631-7.338,3.189-11.175,5.861-14.229     c7.467-8.873,23.374-10.868,33.455-4.782c0.675,0.386,1.538,0.155,1.925-0.521c0.387-0.675,0.155-1.537-0.521-1.925     C60.66,4.523,55.559,3.212,50,3.212C32.889,3.437,20.758,15.055,21.415,33.292c-4.484-0.599-8.877,1.744-10.357,5.851     c-1.824,4.861,0.369,9.479,4.698,12.387c1.044,0.711,2.732,1.788,4.114,2.702c-1.832,4.697-5.875,8.155-10.802,10.937     C7.793,65.82,8.313,67.861,9.74,67.819z"/><path d="M10.031,75.73c2.305,1.268,4.196,1.771,5.715,2.175c1.152,0.307,2.062,0.548,2.798,1.024     c0.354,0.229,0.437,0.612,0.556,1.498c0.119,0.891,0.283,2.111,1.366,2.86c1.008,0.7,2.402,0.755,4.334,0.829     c2.18,0.083,4.893,0.187,8.04,1.225c6.008,2.429,8.502,6.323,17.169,6.301c8.633,0.022,11.197-3.864,17.169-6.301     c3.148-1.038,5.859-1.142,8.037-1.225c3.293-0.006,5.517-0.549,5.704-3.689c0.119-0.886,0.202-1.269,0.553-1.495     c0.732-0.47,1.636-0.711,2.78-1.015c1.525-0.405,3.421-0.909,5.737-2.188c2.43-1.167,3.155-3.783,0.203-5.15     c-14.072-6.887-17.01-18.063-15.517-18.773c0.944-0.861,5.103-3.435,6.646-4.497c1.021-0.715,4.129-2.89,2.822-6.339     c-1.867-4.561-7.746-1.87-10.958-0.617c0.172-2.629,0.45-7.24,0.072-11.588c-1.89-27.33-44.739-26.97-46.474-0.001     c-0.373,4.384-0.096,8.751,0.074,11.591c-3.234-1.257-9.093-3.964-10.963,0.619c-1.407,4.412,2.68,6.113,4.841,7.663     c1.603,1.039,4.026,2.608,4.628,3.167c1.478,0.604-1.455,11.944-15.516,18.776C7.053,71.797,7.402,74.473,10.031,75.73z      M25.283,61.136c2.769-4.252,3.225-7.453,3.24-7.566c0.134-1.004,0.317-2.38-1.241-3.832c-0.691-0.705-5.119-3.524-6.951-4.742     C18,43.371,18.345,42.46,18.53,41.972c1.149-2.232,6.327,0.983,8.081,1.246c2.026,0.583,3.31-1.004,3.091-2.512     c-0.5-7.6-1.083-17.467,4.497-22.982c7.151-8.427,24.051-8.913,31.639-0.001c5.533,5.404,5.02,15.433,4.514,22.722     c-0.222,1.262,0.416,2.928,2.264,2.877c2.174-0.202,4.267-1.625,6.541-2.04c2.421-0.589,3.873,1.49,0.548,3.714     c-3.414,2.604-9.23,4.556-8.181,8.64c0.014,0.117,1.884,11.941,17.389,19.455c-0.082,0.051-0.176,0.107-0.286,0.168     c-3.34,1.952-5.747,1.609-8.681,3.3c-1.873,1.242-1.608,2.98-2,4.409c-0.335,0.231-1.722,0.285-2.838,0.328     c-2.231,0.085-5.287,0.203-8.814,1.366c-1.786,0.592-3.286,1.512-4.874,2.486c-6.926,4.871-15.821,4.916-22.762,0.026     c-3.66-2.799-10.14-3.971-13.749-3.878c-1.114-0.043-2.501-0.097-2.816-0.311c-0.088-0.121-0.154-0.611-0.197-0.935     c-0.289-5.326-6.667-4.299-10.503-6.793c-0.106-0.059-0.198-0.113-0.278-0.162C17.3,70.098,22.067,66.073,25.283,61.136z"/></g></g></g></svg>