<?xml version="1.0" ?><!DOCTYPE svg  PUBLIC '-//W3C//DTD SVG 1.1//EN'  'http://www.w3.org/Graphics/SVG/1.1/DTD/svg11.dtd'><svg enable-background="new 0 0 158.52 155.031" height="155.031px" id="icons" version="1.1" viewBox="0 0 158.52 155.031" width="158.52px" xml:space="preserve" xmlns="http://www.w3.org/2000/svg" xmlns:xlink="http://www.w3.org/1999/xlink"><g><path d="M11.653,37.962L62.35,11.053c0,0,17.479-1,23.639-1c15.61,0,62.438,1,62.438,1s1,64.551,1,86.067   c0,5.759-1,23.035-1,23.035H62.35l-50.697,26.898c0,0,1-33.45,1-44.6c0-4-1-19.968-1-30C11.653,60.33,11.653,37.962,11.653,37.962z   " fill="#00AEEF"/><path d="M41.101,67.687c-4.459-3.15-7.934-3.4-11.021-0.087c0,0,0.035-4.029,0.035-8.537   c0-1.844-7.352-1.646-7.554-0.282c-0.86,5.825-0.025,25.925-0.025,31.797c0,2.484,5.253,2.222,5.507,0.516   c0.091-0.611,0.167-1.223,0.235-1.836c1.734,1.557,3.883,2.692,6.488,3.263c5.689,1.247,10.037-3.053,10.779-8.397   C47.527,78.234,46.391,71.423,41.101,67.687z M40.028,83.553c-1.37,4.404-6.149,5.42-9.026,2.616   c-2.121-2.066-3.196-9.665,0.168-13.228c2.351-2.491,5.661-2.394,7.631,0.476C40.474,75.855,41.075,80.188,40.028,83.553z" fill="#FFFFFF"/><path d="M59.068,59.702c0-2.318-7.321-2.911-7.321-0.062c0,4.694-0.531,7.806-0.495,11.757   c0.051,5.499,0,13.877,0,19.704c0,1.928,7.816,2.404,7.816,0c0-2.266,0.281-11.595,0-14.735   C58.601,71.139,59.068,66.334,59.068,59.702z" fill="#FFFFFF"/><path d="M87.116,69.901c0-3.073-7.001-3.448-7.001,0.052c0,4.552,0.214,5.988,0.214,10.349   c0,4,0.339,5.57-3.621,6.598c-3.329,0.864-4.298-1.335-4.578-4.228c-0.388-4.016,0.156-8.45,0.156-12.996   c0-2.597-8.496-2.955-8.496,1.064c0,16.588-0.148,21.041,5.607,22.827c3.452,1.071,8.121-0.83,10.956-3.16   c0.761,3.467,6.313,2.914,6.313,0.005C86.667,88.454,87.116,74.256,87.116,69.901z" fill="#FFFFFF"/><path d="M106.013,66.425c-2.633,0-4.047-0.673-5.774,1.036c-0.915-1.685-1.64-1.63-3.765-1.63   c-3.71,0-5.133-0.294-5.094,2.516c0.042,3.059-0.205,10.14-0.244,13.201c-0.031,2.4,0.123,6.623,0.123,9.047   c0,2.56,3.48,1.776,6.355,1.776c1.843,0,1.5-2.75,1.5-6.5c0-7.969,0.398-12.374,5.065-12.225c3.134,0.1,2.606-1.929,3.007-4.626   C107.485,67.007,107.783,66.425,106.013,66.425z" fill="#FFFFFF"/><path d="M131.816,69.341c-4.056-2.969-7.348-3.294-11.017-0.512c0-3.467-0.112-4.014-0.112-7.014   c0-3.36-8.607-2.392-8.5,0c0.119,2.657-3.24,13.915-3.154,19.714c0.03,2.068,0.654,7.686,0.654,9.536   c0,2.175,7.61,2.167,8.846-0.103c5.985,3.365,12.778,3.617,16.371-3.483C137.572,82.208,136.878,73.045,131.816,69.341z    M129.161,86.165c-2.255,3.697-5.409,3.085-7.692-0.056c-2.041-2.809-1.761-7.822-0.125-11.185   c2.236-4.595,7.018-3.488,8.777,1.265C131.214,79.141,130.775,83.519,129.161,86.165z" fill="#FFFFFF"/><path d="M157.261,88.154c0.226-6.823,0.702-13.755,0.409-20.578c-0.218-5.446-0.676-10.796-0.646-16.256   c0.025-4.458,0.131-8.914,0.224-13.37c0.174-8.379,0.747-16.959-0.241-25.3c-0.129-1.084-0.262-2.166-0.309-3.258   c-0.079-1.828,0.442-4.282-0.148-6.02c-0.865-2.549-6.332-1.552-8.438-1.628c-3.009-0.108-6.019-0.214-9.029-0.31   c-6.495-0.208-12.984-0.43-19.483-0.468c-11.986-0.07-23.972-0.142-35.957-0.186c-3.237-0.012-6.479-0.069-9.715,0.021   C68.326,0.955,62.07,0.28,57.14,3.138c-8.5,4.927-17.502,9.221-26.282,13.639c-7.47,3.758-15.315,6.741-22.564,10.923   c-2.993,1.726-6.628,2.935-6.636,6.738c-0.005,2.448-0.01,4.896-0.015,7.344C1.611,57.734,1.579,73.687,1.547,89.639   c-0.022,10.897-0.045,21.793-0.068,32.69c-0.012,5.837,0.003,11.674-0.057,17.51c-0.017,1.603-0.053,3.207-0.05,4.809   c0.015,2.426-0.952,7.51,1.678,9.008c2.656,1.513,7.372-1.7,9.587-2.996c3.664-2.189,7.434-4.206,11.19-6.231   c8.646-4.662,17.735-8.481,26.725-12.424c2.986-1.31,5.966-2.631,8.941-3.967c2.509-1.126,4.663-0.746,7.45-0.651   c4.445,0.152,8.886,0.253,13.334,0.326c9.15,0.15,18.274-0.557,27.42-0.615l21.479-0.134c6.31-0.039,12.62-0.24,18.928-0.395   c2.384-0.058,9.288,0.974,9.198-2.946c0.416-3.757-0.21-7.962-0.242-11.744C156.992,103.963,157,96.066,157.261,88.154z    M136.93,122.351c-8.869,0.093-17.723-0.343-26.585-0.647c-7.443-0.255-14.818,0.215-22.255,0.259   c-5.207,0.031-10.375-0.271-15.563-0.649c-3.599-0.262-7.201-0.556-10.811-0.61c-2.091-0.031-3.511,0.933-5.322,1.868   c-5.115,2.64-10.255,5.23-15.392,7.829c-11.206,5.67-22.411,11.34-33.617,17.01V34.872c0-0.924,7.403-4.671,8.462-5.328   c3.687-2.289,7.459-4.462,11.337-6.415c7.649-3.854,15.288-7.758,23.09-11.298c3.724-1.69,7.54-2.928,11.182-4.84   c3.695-0.027,7.389-0.073,11.083-0.073h31.579c10.994,0,21.977-0.017,32.969-0.261c5.084-0.113,10.168-0.226,15.252-0.339   c0.166,9.13,0.098,18.268,0.244,27.401c0.094,5.867,0.138,11.735,0.192,17.602c0.054,5.979-0.449,11.89-0.557,17.857   c-0.223,12.262,0.22,24.562,0.448,36.822l0.3,16.129C147.621,122.203,142.276,122.277,136.93,122.351z"/><path d="M157.67,67.575C157.723,68.821,157.62,66.33,157.67,67.575L157.67,67.575z"/><path d="M90.463,80.825c-0.342-4.248-0.132-6.05-0.118-10.067c0.004-1.241,0.612-4.439-0.525-5.359   c-1.036-0.838-3.649-0.342-4.845-0.35c-1.3-0.008-4.605-0.632-4.877,1.382c-0.238,1.758-0.074,3.042-0.058,4.835   c0.026,2.97,0.246,7.093,0.261,10.063c0.017,3.176-2.248,5.6-4.866,3.875c-1.301-0.857-0.911-4.115-0.977-5.527   c-0.14-3.021-0.167-6.033-0.127-9.058c0.014-1.02,0.025-2.04,0.051-3.06c0.017-0.644,0.202-1.462-0.386-1.927   c-0.457-0.361-1.322-0.261-1.867-0.281c-1.947-0.071-3.893-0.143-5.839-0.214c-0.873-0.032-1.678,0.349-1.724,1.344   c-0.081,1.773-0.103,3.549-0.134,5.323c-0.055,3.067,0.111,6.092,0.274,9.154c0.139,2.6,0.006,5.364,0.913,7.839   c2.087,5.693,9.749,7.181,14.588,4.025c0.216,1.425,1.032,1.21,2.946,1.21c1.742,0,3.478,0.055,5.221,0.041   c2.682-0.022,2.197-2.242,2.197-4.801C90.571,85.702,90.634,82.958,90.463,80.825z M87.723,85.941   c-0.033,1.352-0.107,4.783-0.171,4.783c-1.303-0.009-2.92,0.168-4.223,0.159c0.016-1.727-1.465-2.149-2.652-1.492   c-1.075,0.595-2.259,1.108-3.441,1.505c-2.41,0.81-5.858,0.776-7.716-1.195c-2.27-2.407-2.194-6.74-2.218-9.82   c-0.031-4.079,0.288-8.004,0.163-12.081c1.534-0.046,3.068,0.046,4.601,0c0.074,4.253,0.048,8.486-0.165,12.733   c-0.062,1.239-0.252,2.522,0.001,3.749c0.516,2.497,2.78,4.135,5.337,4.051c4.033-0.132,5.996-3.88,5.967-7.418   c-0.036-4.258-0.3-8.735-0.13-12.995c0.875,0.063,4.601,0,4.601,0c0,1.438-0.294,5.328-0.184,7.3   C87.596,77.051,87.768,84.115,87.723,85.941z"/><path d="M62.63,66.143c0.02-1.658-0.02-3.32,0.051-4.977c0.057-1.327,0.363-2.92,0.102-4.204c-0.377-1.851-2.573-1.49-3.952-1.453   c-1.074,0.028-2.146,0.094-3.218,0.158c-0.857,0.051-1.928-0.028-2.745,0.294c-1.583,0.623-0.707,2.057-0.707,5.451   c0,4.415,0.161,7.929,0.164,11.892c0.004,4.96-0.592,12.872-0.592,17.827c0,2.053,0.691,2.84,2.489,2.824   c1.097-0.01,5.191-0.003,6.285,0.091c0.777,0.067,1.587,0.019,1.892-0.858c0.431-1.241,0.226-2.865,0.266-4.186   c0.111-3.678-0.175-7.338-0.226-11.015C62.385,74.041,62.583,70.088,62.63,66.143z M59.594,85.97   c-0.006,1.671-0.053,3.341-0.093,5.011c-0.872-0.028-4.7-0.028-4.7-0.028s-0.201-4.274-0.25-5.938   c-0.128-4.369-0.058-6.678-0.076-11.049c-0.021-5.182-0.072-10.364,0.017-15.545l5.252-0.208c0,3.678,0.061,8.053-0.068,13.803   C59.572,76.658,59.612,81.346,59.594,85.97z"/><path d="M110.686,64.969c-2.196-0.728-6.384-0.336-8.394,1.57c0-1.629-1.495-1.806-2.781-1.753   c-0.788,0.032-3.59,0.008-4.377-0.029c-0.722-0.034-1.656-0.32-2.31,0.112c-1.211,0.799-0.508,3.513-0.492,4.704   c0.012,0.923,0.024,1.846,0.036,2.769c0.021,1.609-0.292,3.217-0.2,4.815c0.162,2.831,0.458,5.54,0.199,8.369   c-0.212,2.311-0.002,4.548-0.002,6.866c0,2.082,1.938,1.982,4.802,1.982c1.523,0,5.833,0.662,6.222-1.484   c0.361-1.992-0.11-4.407-0.115-6.41c-0.004-1.915-0.002-3.831-0.002-5.746c-0.001-1.861-0.221-3.48,1.066-4.989   c0.525-0.616,1.117-0.843,1.886-0.928c1-0.111,2.32,0.099,3.274-0.177c0.772-0.224,0.841-0.949,0.923-1.613   C111.178,66.829,111.864,65.359,110.686,64.969z M108.256,72.246c-0.024,0.138-2.011-0.016-2.279,0   c-3.363,0.207-5.183,2.85-5.425,5.815c-0.135,1.652-0.319,4.881-0.209,6.524c0.178,2.657,0.077,4.113,0.088,6.778   c-1.754-0.056-3.508-0.112-5.262-0.168c0.263-7.812-0.03-15.622,0.047-23.436c0.425,0.013,4.453,0.076,4.453,0.117   c0.023,1.017,0.076,2.043,1.139,2.541c1.264,0.592,1.918-0.479,2.571-1.289c0.508-0.63,1.366-1.121,2.086-1.423   c0.582-0.244,2.628-0.554,3.472-0.144C108.939,67.561,108.35,71.701,108.256,72.246z"/><path d="M48.146,79.884c-0.001-0.014-0.004,0.028-0.007,0.07C48.141,79.931,48.145,79.907,48.146,79.884z"/><path d="M50.928,78.621c-0.053-3.873-1.266-7.653-3.827-10.562c-3.565-4.05-10.15-5.415-14.974-2.724   c-0.013-1.541-0.072-3.079-0.156-4.618c-0.043-0.79-0.091-1.579-0.137-2.369c-0.031-0.53,0.064-1.29-0.209-1.782   c-0.404-0.729-1.25-0.559-1.937-0.525c-1.033,0.052-2.065,0.101-3.099,0.086c-2.916-0.043-4.162-0.576-4.335,0.995   c-0.143,1.293-0.034,2.796-0.09,4.101c-0.024,0.545-0.047,1.089-0.069,1.634c-0.131,3.202-0.271,6.403-0.33,9.608   c-0.063,3.406,0.275,6.756,0.368,10.156c0.063,2.326,0.08,4.654,0.067,6.981c-0.006,1.182-0.573,3.903,1.109,4.105   c1.305,0.157,2.698,0.046,4.012,0.068c1.276,0.022,3.493,0.489,3.477-1.421c1.713,1.239,3.31,1.707,5.429,1.983   c2.675,0.348,5.833-0.062,8.267-1.155C49.923,90.741,51.002,83.999,50.928,78.621z M48.14,79.954c0,2.8-0.958,5.877-2.641,8.092   c-1.61,2.119-4.153,3.404-6.759,3.492c-1.052,0.036-3.655-0.229-6.263-1.304c-2.195-0.904-2.722-1.813-3.648-1.686   c-0.907,0.125-1.033,0.842-1.033,2.17c0,0.096-2.66,0.084-2.66-0.017c0,0-0.043-5.026-0.058-6.701   c-0.038-4.356-0.064-8.706-0.214-13.059c-0.073-2.123-0.147-4.246-0.218-6.369c-0.045-1.358-0.102-2.716-0.134-4.074   c-0.017-0.729-0.023-1.458-0.03-2.188c0.1-0.088,0.887-0.01,1.015-0.009c1.24,0.007,2.489,0.013,3.726,0.09   c-0.165,2.617,0.236,7.274,0.184,9.896c-0.019,0.937,1.234,1.388,2.042,0.875c4.125-2.623,6.792-2.375,9.06-1.775   C45.834,68.796,48.14,73.516,48.14,79.954z"/><path d="M37.12,69.958c-2.996-0.388-5.626,1.237-6.926,3.879c-1.022,1.665-1.11,4.165-0.984,6.063   c0.139,2.09,0.264,3.811,1.405,5.616c0.79,1.249,2.313,2.89,5.934,2.89c2.202,0,3.849-1.299,5.049-3.038   c1.233-1.787,1.611-4.124,1.437-6.269C42.817,75.343,41.532,70.531,37.12,69.958z M40.305,80.147   c-0.012,0.156-0.014,0.171-0.013,0.138c-0.221,2.57-1.05,5.768-4.243,5.853c-3.585,0.095-4.286-4.011-4.38-6.698   c-0.065-1.843,0.135-3.595,1.083-5.244c0.92-1.278,2.255-2.033,3.851-1.659C39.867,73.301,40.421,77.309,40.305,80.147z"/><path d="M40.305,80.147c0-0.057-0.01,0.091-0.013,0.138C40.296,80.24,40.302,80.193,40.305,80.147z"/><path d="M122.874,71.292c-1.195,0.973-1.758,2.277-2.175,3.717c-0.536,1.695-0.388,3.648-0.351,5.399   c0.031,1.495,0.191,2.757,0.66,4.173c1.767,4.661,8.002,5.621,10.884,1.495c2.115-3.397,2.63-8.912,0.681-12.531   C130.739,70.139,126.059,68.607,122.874,71.292z M129.867,84.589c-0.566,0.774-1.804,1.593-3.017,1.555   c-3.837-0.12-5.311-5.314-4.588-8.682c0.378-2.417,1.793-4.985,4.5-5.03c1.298-0.022,2.513,0.763,3.177,1.76   c0.924,1.387,1.299,2.762,1.215,4.602C131.053,81.051,131.02,82.692,129.867,84.589z"/><path d="M141.465,78.109c-0.196-3.873-1.601-8.149-4.467-10.844c-3.892-3.66-9.657-3.602-14.391-1.81   c0.255-2.756,0.271-5.492,0.216-8.255c-0.043-2.154-2.651-1.711-4.087-1.709c-1.912,0.002-3.824,0.004-5.736,0.006   c-0.614,0.001-1.197,0.121-1.579,0.671c-0.513,0.739-0.213,1.83-0.154,2.656c0.092,1.29,0.161,2.582,0.222,3.874   c0.295,6.281,0.122,12.538-0.071,18.816c-0.093,3.048-0.28,6.08-0.271,9.131c0.005,1.755-0.178,3.614,2.172,3.595   c2.262-0.018,5.525-0.037,7.787-0.037c1.322,0,1.197-1.652,1.197-1.652s0.783,0.805,1.996,1.32c1.504,0.639,3.525,0.59,5.296,0.521   c3.38-0.131,6.706-2.201,8.75-4.831C140.868,86.312,141.669,82.144,141.465,78.109z M136.092,88.876   c-1.402,1.573-3.144,2.454-5.353,2.89c-1.606,0.317-3.694-0.063-5.468-0.843c-0.667-0.294-2.47-1.657-3.22-1.782   c-0.812-0.135-1.75,0.063-2.125,1.438c-0.806-0.029-2.141-0.039-2.947-0.039c-0.232,0-2.26,0.054-2.261-0.007   c-0.011-0.436-0.023-0.872-0.034-1.308c-0.043-1.648-0.033-2.295-0.03-3.944c0.004-2.216,0.02-4.013,0-6.228   c-0.02-2.239-0.219-3.631-0.477-5.849c-0.296-2.545-0.476-7.504-0.375-10.069c0.05-1.269-0.097-3.101,0-4.368   c0,0,5.555-0.067,5.648,0c0,0,0.243,1.252,0.243,1.877c0,1.506,0.181,3.559,0.187,5.065c0.002,0.627-0.231,2.765-0.03,3.175   c0.512,1.043,1.556,0.953,2.356,0.37c1.01-0.736,1.753-1.191,2.969-1.579c3.858-1.231,8.244-0.082,10.601,2.896   c2.882,3.643,3.495,9.263,2.527,13.775C137.944,86.017,137.233,87.595,136.092,88.876z"/></g></svg>