<?xml version="1.0" ?><svg enable-background="new 0 0 158.52 155.031" version="1.1" viewBox="0 0 158.52 155.031" xml:space="preserve" xmlns="http://www.w3.org/2000/svg" xmlns:xlink="http://www.w3.org/1999/xlink"><g id="icons"><g><path d="M150.249,40.245c-2.21-23.192-22.723-30.928-36.507-31.323C94.979,8.385,66.244,7.684,41.902,7.388    C22.74,7.155,11.235,20.381,11.235,41.134c0,28.018-1.6,48.268-1.6,66.665c0,21.884,11.304,37.883,37.493,39.185    c13.735,0.683,51.518-0.062,73.82-0.062c14.351,0,30.87-18.89,28.396-38.248C146.87,89.321,152.962,68.719,150.249,40.245z" fill="#FF7D26"/><path d="M149.848,85.293c0.301-11.7,0.444-23.399,0.702-35.099c0.128-5.793,0.229-11.589-0.022-17.38    c-0.217-5.007,0.05-10.676-2.487-15.154c-5.137-9.067-16.27-10.384-25.633-10.382c-17.498,0.004-34.861,1.262-52.365,0.626    C58.165,7.472,46.252,6.859,34.362,7.027C25.62,7.15,18.109,9.312,12.676,16.778C8.152,22.993,8.374,30.201,8.061,37.5    c-0.25,5.833-0.411,11.677-0.434,17.516c-0.033,8.615,0.549,17.227,0.108,25.827c-0.438,8.557-0.328,17.085-0.053,25.649    c0.325,10.13-1.402,23.526,5.121,32.075c4.948,6.486,12.242,8.046,19.885,8.504c11.35,0.679,22.688,1.776,34.065,1.749    c7.967-0.019,15.924-0.07,23.891,0.09c12.812,0.258,26.343,1.325,39.078-0.428c10.907-1.501,19.185-11.409,19.838-22.117    C150.394,112.694,149.581,98.975,149.848,85.293z M155.638,85.344c-0.165,11.459,0.151,22.919-0.108,34.38    c-0.216,9.578-1.18,18.005-8.157,25.245c-6.885,7.144-15.008,8.84-24.536,9.046c-11.545,0.249-23.11,0.168-34.657,0.097    c-11.289-0.07-22.552-1.123-33.833-0.827c-8.291,0.218-16.53,0.174-24.809-0.324c-8.743-0.526-17.067-4.147-22.249-11.456    c-5.849-8.249-5.097-18.632-5.421-28.248c-0.409-12.112,0.125-24.6,1.033-36.696c-0.008,0.121-0.017,0.242-0.025,0.363    c-0.339-9.048-0.737-18.091-0.823-27.146C1.904,34.228-0.46,16.403,13.882,6.059c9.11-6.57,19.461-5.25,30.041-4.78    c13.017,0.578,26.041-0.244,39.052,0.371c10.213,0.483,20.333,0.562,30.541-0.026c10.025-0.577,20.176-1.612,29.439,3.167    c5.639,2.91,10.383,7.687,12.297,13.844c1.964,6.319,1.514,13.933,1.452,20.478c-0.074,7.757-1.244,15.39-1.306,23.128    C155.336,69.944,156.061,77.643,155.638,85.344z"/><path d="M122.385,55.58l-0.132,13.469l-92.832,50.106L31.3,34.159l34.909,0.302l16.436,11.711l30.828,0.321    C118.443,46.541,122.433,50.609,122.385,55.58z" fill="#FFF399"/><path d="M138.82,70.53l-13.266,42.853c-1.089,3.929-4.684,6.635-8.761,6.595l-82.372-0.824l20.233-60.786    l75.581,0.757C136.148,59.184,140.4,64.832,138.82,70.53z" fill="#FEE000"/><path d="M134.143,56.213c-5.561,0.279-11.131,0.213-16.697,0.255c-0.001-3.061,1.153-8.256-0.222-11.073    c-1.491-3.055-8.884-1.678-11.527-1.674c-7.395,0.013-14.792-0.024-22.188,0.018c-2.168,0.012-5.053,0.467-7.164-0.069    c-2.466-0.627-4.284-3.543-6.055-5.566c-2.876-3.286-4.968-6.834-9.532-7.093c-5.703-0.324-11.566-0.029-17.28-0.008    c-4.215,0.016-10.129-0.836-14.186,0.233c-4.855,1.28-2.519,10.359-2.426,14.291c0.261,11.075-0.414,21.988-0.781,33.044    c-0.249,7.519-0.216,15.059-0.329,22.582c-0.078,5.165-0.156,10.329-0.234,15.494c-0.02,1.336-0.296,3.157,0.487,4.339    c1.161,1.753,3.643,1.246,5.504,1.296c12.396,0.327,24.787,0.675,37.179,1.137c10.449,0.389,21.352,1.607,31.78,0.663    c2.243-0.203,4.419-0.576,6.679-0.576c2.055,0,4.645,0.623,6.66,0.287c2.49-0.415,2.848-2.192,3.66-4.267    c3.669-9.369,6.975-18.858,10.148-28.406c1.543-4.642,3.021-9.307,4.54-13.957C133.155,74.11,140.525,55.892,134.143,56.213z     M61.132,37.339c2.501,2.55,5.002,5.1,7.503,7.65c0.96,0.979,1.918,2.323,3.048,3.108c2.417,1.678,6.498,0.972,9.385,1.036    c7.387,0.164,14.775,0.366,22.163,0.483c1.746,0.028,7.469-0.836,8.295,0.152c0.496,0.593,0.2,4.439,0.052,5.236    c-0.317,1.707,0.504,0.905-0.772,1.581c-1.561,0.827-6.005,0.15-7.871,0.173c-8.893,0.111-17.904,0.013-26.77-0.724    c-8.62-0.716-17.908-1.855-26.55-1.186c-4.757,0.368-5.091,5.307-6.413,9.2c-1.717,5.057-3.345,10.139-4.926,15.241    c-2.203,7.109-4.395,14.214-6.712,21.287c0.259-14.994,0.435-29.986,0.59-44.981c0.036-3.513,0.073-7.027,0.109-10.54    c0.02-1.905-0.619-5.268,0.073-7.057c0.522-1.35-0.304-0.593,1.434-0.925c2.72-0.521,6.099,0.06,8.868,0.087    C48.804,37.219,54.968,37.279,61.132,37.339z M126.328,73.727c-2.128,7.011-4.254,14.022-6.395,21.029    c-1.424,4.658-2.835,9.319-4.314,13.96c-0.597,1.872-1.736,9.086-3.408,10.08c-0.374,0.223-1.553-0.044-1.984-0.056    c-19.34-0.545-38.681-1.09-58.021-1.635c-6.685-0.188-13.37-0.377-20.054-0.565c2.614-10.681,6.635-20.869,10.003-31.313    c1.059-3.284,2.123-6.567,3.178-9.853c0.465-1.449,0.926-2.899,1.376-4.353c0.488-1.577,0.966-3.157,1.443-4.738    c0.321-1.062,1.002-5.663,1.906-6.323c1.385-1.012,6.873-0.116,8.636-0.132c2.48-0.023,4.96-0.016,7.44-0.005    c11.945,0.053,24.017,1.195,35.97,1.661c9.385,0.366,18.713,0.297,28.097,0.385C128.816,65.783,127.493,69.743,126.328,73.727z"/></g></g><g id="Isolation_Mode"/><g id="Calque_1"/><g id="_x30_16_soundcloud"/><g id="Layer_1"/></svg>