<?xml version="1.0" ?><!DOCTYPE svg  PUBLIC '-//W3C//DTD SVG 1.1//EN'  'http://www.w3.org/Graphics/SVG/1.1/DTD/svg11.dtd'><svg enable-background="new 0 0 158.52 155.031" height="155.031px" version="1.1" viewBox="0 0 158.52 155.031" width="158.52px" xml:space="preserve" xmlns="http://www.w3.org/2000/svg" xmlns:xlink="http://www.w3.org/1999/xlink"><g id="icons"><g><path d="M143.946,17.463c0.17-5.497-4.272-9.911-9.655-10.178c-1.002-0.05-2.005-0.099-3.007-0.149    c-5.618-0.278-11.236-0.557-16.854-0.835c-17.691-0.877-35.382-1.753-53.073-2.63C50.293,3.123,39.228,2.574,28.164,2.026    c-4.711-0.233-9.072,3.07-10.125,7.669c-0.604,2.637-0.621,5.567-0.888,8.249c-0.954,9.584-2.098,19.222-2.427,28.853    c-0.431,12.642,0.456,25.325,0.596,37.968c0.284,25.745-0.708,41.985-1.425,50.219c-0.42,4.821,2.954,9.342,7.66,10.415    c1.222,0.278,2.493,0.26,3.741,0.299c13.239,0.41,24.478,0.82,37.718,1.231c17.263,0.535,34.525,1.07,51.788,1.605    c4.613,0.143,9.227,0.286,13.84,0.429c2.167,0.067,4.255-0.087,6.225-1.161c3.515-1.915,4.986-5.339,5.227-9.154    c1.08-17.145,2.113-30.293,3.058-47.447c0.513-9.324,1.033-18.651,1.357-27.983c0.333-9.604,0.045-19.24-0.153-28.844    C144.239,28.735,144.106,23.099,143.946,17.463z" fill="#FF7D26"/><path d="M105.314,15.901c-13.979,0-27.957,0-41.936,0c-2.76,0-5.52,0-8.279,0c-0.428,0-0.855,0-1.283,0    c-0.004,0-0.002-3.445-0.002-3.656c0-0.75-0.142-8.51,0.127-8.51c1.913,0,3.826,0,5.74,0c15.001,0,30.003,0,45.004,0    c0.127,0,0.629-0.083,0.629,0.073c0,1.194,0,2.389,0,3.583C105.314,10.227,105.314,13.064,105.314,15.901z" fill="#999999"/><path d="M127.314,16.886c-16.287,0.098-32.582,0.263-48.864-0.203c-10.575-0.303-21.348-0.67-31.864,0.724    c-3.178,0.421-7.571,0.848-10.03,3.184c-2.071,1.967-2.902,5.407-3.633,8.049c-2.783,10.048-3.881,20.633-4.903,30.98    c-0.932,9.448-1.67,18.949-1.883,28.443c-0.227,10.121,1.344,20.371,2.692,30.375c0.641,4.756,1.331,9.505,2.06,14.248    c0.049,0.322,0.789,5.857,0.926,5.854c13.486-0.354,26.972-0.708,40.458-1.062c6.776-0.178,13.552-0.356,20.328-0.533    c0.851-0.022,1.647,0.169,2.293-0.393c1.964-1.706,3.928-3.412,5.892-5.118c6.585-5.72,13.171-11.439,19.756-17.159    c1.964-1.706,3.928-3.412,5.892-5.118c0.327-0.284,0.43-0.408,0.61-0.81c0.706-1.578,1.313-3.201,1.866-4.837    c2.283-6.751,3.602-13.882,3.665-21.015c0.071-7.964-0.327-15.946-0.859-23.889c-0.83-12.383-2.108-24.742-3.752-37.044    C127.757,20.002,127.544,18.442,127.314,16.886z" fill="#FFFFFF"/><path d="M94.126,109.184c-1.734,1.887-2.006,4.904-2.115,7.337c-0.16,3.573,0.214,7.17,0.726,10.702    c0.66,4.546,1.577,9.08,2.763,13.519c9.244-10.07,18.488-20.14,27.732-30.21c0.533-0.58,1.066-1.161,1.598-1.741    c-4.321-0.951-8.724-1.628-13.127-2.048c-3.438-0.328-6.934-0.511-10.378-0.168C98.891,106.817,95.873,107.281,94.126,109.184z" fill="#FFF399"/><path d="M75.092,41.093c-1.519-1.573-3.913-2.233-5.987-2.648c-2.733-0.548-5.569-0.672-8.344-0.448    c-2.396,0.193-4.958,0.611-7.08,1.807c-1.875,1.057-2.759,2.93-3.312,4.94c-1.24,4.509-1.551,11.018,1.014,15.159    c2.431,3.925,9.274,4.157,13.311,4.052c2.72-0.071,5.604-0.407,8.1-1.558c2.259-1.042,3.333-2.942,3.975-5.277    c0.781-2.839,0.951-5.885,0.704-8.811C77.272,45.916,76.841,42.904,75.092,41.093z" fill="#87C9FF"/><path d="M69.394,38.931c-3.581,0.242-7.166,0.206-10.755,0.191c-1.529-0.006-3.688-0.418-5.136,0.105    c-1.376,0.496-1.418,1.805-1.447,3.039c-0.048,2.062-0.065,4.121-0.047,6.183c0.021,2.361,0.04,4.722,0.06,7.083    c0.014,1.729,0.028,3.459,0.042,5.189c0.007,0.832-0.179,2.079,0.41,2.76c0.707,0.816,1.911,0.535,2.859,0.52    c1.045-0.017,2.09-0.018,3.135-0.031c1.415-0.017,2.824-0.018,4.238,0.031c1.883,0.065,3.748,0.461,5.634,0.5    c2.099,0.043,4.196-0.015,6.295-0.056c1.788-0.035,2.124-1.508,2.129-2.928c0.021-6.743,0.041-13.485,0.061-20.228    C76.886,38.325,71.294,38.802,69.394,38.931z M56.281,59.851c-0.006-5.453-0.003-10.9,0.18-16.349    c3.268-0.103,6.526-0.395,9.797-0.477c2.352-0.059,4.706,0.182,7.06,0.174l-0.784,16.8C67.114,59.839,61.702,59.779,56.281,59.851    z"/><path d="M106.314,75.879c-6.586,0.082-13.165,0.188-19.748,0.394c-8.676,0.272-17.395-0.077-26.072-0.26    c-1.644-0.035-3.289-0.071-4.933-0.106c-1.212-0.025-2.674,0.24-3.518-0.859c-0.881-1.148-0.37-2.878,0.991-3.365    c1.096-0.392,2.567-0.111,3.688-0.079c8.32,0.235,16.657,0.616,24.982,0.532c6.141-0.062,12.265-0.533,18.411-0.592    c2.031-0.02,4.178-0.188,6.199,0.043C108.969,71.891,109.108,75.841,106.314,75.879z"/><path d="M106.314,86.879c-7.478,0.336-14.95,0.477-22.434,0.625c-4.311,0.086-8.617-0.528-12.94-0.568    c-4.13-0.039-8.261-0.064-12.391-0.063c-1.304,0-2.609,0.005-3.913,0.017c-0.857,0.008-1.69,0.051-2.365-0.605    c-1.036-1.008-0.784-2.787,0.489-3.469c0.987-0.529,2.576-0.278,3.627-0.296c8.268-0.142,16.51,0.459,24.771,0.502    c6.803,0.035,13.621-0.165,20.422-0.314c1.557-0.034,3.179-0.215,4.734-0.12C109.158,82.501,109.159,86.885,106.314,86.879z"/><path d="M106.314,97.879c-3.209-0.106-6.421-0.312-9.629-0.379c-4.251-0.089-8.554,0.504-12.805,0.684    c-8.588,0.363-17.128-0.236-25.71-0.295c-1.438-0.01-2.924,0.108-4.356,0.01c-1.594,0.032-2.696-1.69-1.993-3.124    c0.521-1.061,1.537-1.205,2.582-1.232c1.864-0.047,3.746-0.04,5.609,0.032c4.163,0.162,8.325,0.455,12.491,0.524    c4.529,0.076,9.008-0.242,13.529-0.439c2.7-0.118,5.403-0.077,8.105-0.075c2.606,0.069,5.211-0.246,7.821-0.211    c1.568,0.021,3.853-0.259,5.326,0.424C109.348,94.754,108.581,97.95,106.314,97.879z"/><path d="M142.955,108.362c0-8.619-0.086-17.242,0.012-25.86c0.05-4.409,0.354-8.808,0.395-13.217    c0.041-4.357-0.29-8.667-0.631-13.007c-1.108-14.115-0.052-28.404,0.219-42.544c-0.214-7.197-5.87-12.612-13.048-12.637    c-8.078-0.028-16.157,0.121-24.234,0.209C88.096,1.498,70.511,1.767,52.94,1.434c-4.432-0.084-8.863-0.188-13.295-0.289    c-3.26-0.074-6.807-0.513-10.048-0.066c-2.977,0.41-5.618,1.055-7.949,3.094c-2.57,2.248-4.181,5.513-4.32,8.93    c-0.173,4.227,0.05,8.5,0.088,12.731c0.041,4.536,0.082,9.073,0.123,13.61c0.083,9.19,0.156,18.38,0.231,27.57    c0.148,18.162,0.894,36.322,0.335,54.483c-0.142,4.604-0.347,9.206-0.524,13.808c-0.136,3.53-0.706,7.356,0.589,10.745    c1.335,3.496,4.171,6.187,7.699,7.407c2.913,1.008,6.207,0.63,9.244,0.597c9.144-0.1,18.272-0.901,27.417-0.842    c4.536-0.08,9.023,0.481,13.542,0.756c4.449,0.27,8.929,0.107,13.384,0.084c8.997-0.046,17.99-0.406,26.987-0.497    c4.245-0.043,8.487-0.102,12.732-0.034c2.852,0.045,5.526-0.297,8.014-1.827c3.295-2.027,5.482-5.603,5.722-9.474    c0.165-2.333,0.042-4.711,0.043-7.046C142.959,126.236,142.955,117.299,142.955,108.362z M97.111,6.042    c2.038,0.016,4.076,0.044,6.114,0.066c-0.005,1.161-0.01,2.323-0.02,3.484c-0.011,1.347-0.023,2.693-0.034,4.04l-0.309,0.005    c-12.396,0.218-24.799,0.199-37.197,0.271c-3.383,0.02-6.765,0.03-10.147,0.02c-0.005-0.318-0.017-0.635-0.017-0.953    c-0.005-2.229,0.119-4.461,0.24-6.691C69.531,6.232,83.317,5.93,97.111,6.042z M125.362,56.645    c0.629,7.645,0.829,15.181,0.594,22.843c-0.276,8.997-0.278,17.975-0.1,26.969c-1.149-0.162-2.306-0.167-3.497-0.048    c-4.254,0.424-8.613,0.083-12.882,0.106c-3.532,0.019-7.068,0.214-10.598,0.347c-1.115,0.042-3.481-0.303-4.424,0.531    c-0.786,0.695-0.512,1.845-0.497,2.769c0.016,0.991,0.022,1.982,0.038,2.973c0.032,2.02-0.213,3.944-0.425,5.946    c-0.364,3.436-0.046,7.045,0.038,10.5c0.078,3.23,0.157,6.459,0.235,9.689c-4.24-0.343-8.483-0.656-12.733-0.852    c-15.341-0.705-30.675-1.223-46.021-0.67c-0.084-1.266-0.168-2.533-0.253-3.799c-0.449-6.752-0.536-13.546-0.455-20.311    c0.052-4.333,0.107-8.661,0.268-12.991c0.157-4.226,0.209-8.466-0.38-12.663c-0.462-3.292-0.927-6.508-0.958-9.84    c-0.018-1.981-0.037-3.962-0.055-5.944c-0.055-5.965,0.126-11.93,0.273-17.892c0.102-4.131,0.165-8.268,0.339-12.396    c0.184-4.367,0.536-8.716,0.596-13.089c0.047-3.479-0.04-6.957-0.055-10.436c5.794,0.134,11.57,0.447,17.353,0.624    c-0.003,0.854-0.007,1.707-0.007,2.56c0,1.294,0.041,2.507,0.502,3.746c0.94,2.524,3.383,4.1,5.991,4.341    c2.998,0.277,6.156-0.071,9.165-0.125c7.181-0.129,14.391-0.366,21.572-0.266c3.786,0.053,7.642,0.642,11.421,0.478    c2.832-0.123,5.526-1.73,6.512-4.501c0.648-1.821,0.493-3.77,0.503-5.672c0.003-0.6-0.001-1.199-0.001-1.799    c6.094,0.014,12.192,0.149,18.296,0.458c0.116,4.97,0.091,9.957-0.038,14.929C125.326,41.041,124.713,48.757,125.362,56.645z     M97.515,135.598c0.307-8.173,0.704-16.343,0.599-24.52c2.377-0.063,4.753-0.126,7.13-0.191c3.067-0.084,6.125,0.156,9.188-0.005    c2.15-0.113,4.286-0.411,6.441-0.443c0.644-0.01,1.287,0.015,1.929,0.047c-0.028,0.03-0.057,0.058-0.085,0.088    c-8.341,8.813-16.474,17.953-25.251,26.354C97.481,136.484,97.498,136.041,97.515,135.598z M100.113,25.439    c-3.843,0.206-7.827-0.153-11.674-0.216c-4.629,0.04-9.258,0.08-13.887,0.122c-4.501,0.041-9.003,0.082-13.504,0.122    c-1.642,0.015-3.677,0.338-4.655-1.353c-0.201-0.348-0.35-0.597-0.404-0.998c-0.011-0.084-0.098-0.94-0.069-0.379    c-0.064-1.21-0.135-2.421-0.202-3.633c2.378,0.039,4.758,0.045,7.143-0.014c4.144-0.102,8.275-0.276,12.416-0.473    c9.295-0.441,18.576-0.763,27.86-0.828c-0.011,1.261-0.021,2.521-0.032,3.782C103.087,23.685,102.472,25.24,100.113,25.439z     M138.51,69.285c-0.119,4.289-0.719,8.55-0.813,12.844c-0.191,8.754-0.123,17.521-0.175,26.276    c-0.053,8.923,0.045,17.846,0.101,26.768c0.016,2.558,0.129,5.123-0.096,7.67c-1.066,3.454-3.568,6.321-7.34,6.438    c-16.924,0.528-33.957,1.076-50.887,0.566c-4.527-0.136-8.991-0.963-13.507-1.241c-4.531-0.279-9.101-0.188-13.638-0.125    c-4.578,0.063-9.156,0.166-13.734,0.253c-3.077,0.031-6.35,0.373-9.423,0.035c-3.317-0.365-6.353-3.323-6.295-6.768    c-0.184-4.037,0.352-8.19,0.559-12.223c0.47-9.149,0.833-18.371,0.174-27.521c-0.652-9.06-1.561-18.035-1.789-27.124    c-0.229-9.139-0.107-18.275-0.049-27.415c0.058-9.104,0.268-18.211,0.441-27.313c0.068-3.574-0.618-8.012,1.686-11.047    c1.474-1.942,4.064-2.951,6.114-3.007c4.676-0.167,9.326-0.148,14.006-0.097c2.573,0.028,5.146,0.037,7.718,0.039    c-0.055,1.722,0.018,3.45,0.096,5.166c0.037,0.814,0.061,1.629,0.077,2.444c-2.255-0.02-4.51-0.047-6.764-0.095    c-2.376-0.051-4.752-0.104-7.128-0.159c-1.983-0.046-4.056-0.292-6.033-0.169c-2.343-0.079-2.257,2.349-2.312,3.975    c-0.181,5.355-0.456,10.725-0.25,16.082c0.168,4.37,0.526,8.71,0.459,13.089c-0.047,3.088-0.064,6.177-0.153,9.265    c-0.183,6.385-0.383,12.768-0.425,19.156c-0.013,1.988-0.069,3.984,0.005,5.971c0.161,4.26,0.954,8.452,0.86,12.729    c-0.135,6.116-0.778,12.2-0.886,18.324c-0.126,7.183-0.016,14.4,0.366,21.575c0.098,1.848,0.197,3.696,0.295,5.544    c0.079,1.479-0.185,4.216,2.043,4.125c1.792,0.104,3.685-0.147,5.482-0.223c2.019-0.085,4.042-0.108,6.062-0.149    c6.62-0.135,13.242-0.109,19.863-0.124c4.561-0.01,9.12,0.035,13.681,0.088c2.335,0.028,4.671,0.045,7.006,0.091    c2.304,0.045,4.607,0.108,6.91,0.168c1.063,0.028,2.126,0.058,3.189,0.094c0.927,0.031,2.087,0.297,2.842-0.398    c2.079-1.52,3.855-3.618,5.726-5.405c1.002-0.957,2.013-1.907,3.006-2.875c2.616-2.549,5.233-5.097,7.849-7.646    c4.782-4.659,9.568-9.314,14.352-13.971c0.788-0.766,1.575-1.533,2.363-2.3c0.903-0.88,0.877-1.856,0.831-3.044    c-0.063-1.632-0.136-3.263-0.171-4.896c-0.071-3.296-0.142-6.591-0.213-9.887c-0.156-7.213-0.086-14.432-0.1-21.646    c-0.017-8.275-0.592-16.554-0.286-24.827c0.166-4.488,0.68-8.958,0.752-13.452c0.091-5.73,0.092-11.446-0.009-17.177    c0.047-3.453-4.418-2.585-6.597-2.522c-2.91,0.084-5.821,0.145-8.732,0.197c-2.734,0.049-5.468,0.098-8.201,0.146    c0-0.038,0-0.076,0-0.114c-0.005-2.43-0.01-4.859-0.015-7.289c4.75,0.059,9.5,0.122,14.25,0.178    c2.041,0.024,4.081,0.039,6.122,0.037c1.522-0.001,3.134-0.142,4.61,0.307c3.251,0.952,5.149,3.905,5.292,7.177    c0.001,0.123,0.015,0.898,0.018,1.045c0.233,13.795,0.46,27.588,0.831,41.38C138.644,60.607,138.764,64.958,138.51,69.285z"/></g></g><g id="Isolation_Mode"/><g id="Calque_1"/><g id="_x30_16_soundcloud"/><g id="Layer_1"/></svg>