<?xml version="1.0" ?><!DOCTYPE svg  PUBLIC '-//W3C//DTD SVG 1.1//EN'  'http://www.w3.org/Graphics/SVG/1.1/DTD/svg11.dtd'><svg enable-background="new 0 0 1024 1024" height="1024px" id="Badoo" version="1.1" viewBox="0 0 1024 1024" width="1024px" xml:space="preserve" xmlns="http://www.w3.org/2000/svg" xmlns:xlink="http://www.w3.org/1999/xlink"><g id="Background"><linearGradient gradientTransform="matrix(0.9397 0.3421 0.3421 -0.9397 275.9532 765.9631)" gradientUnits="userSpaceOnUse" id="bg_1_" x1="464.5049" x2="-193.9113" y1="-72.5586" y2="712.0197"><stop offset="0" style="stop-color:#000000"/><stop offset="0.1921" style="stop-color:#090909"/><stop offset="0.5054" style="stop-color:#212121"/><stop offset="0.8987" style="stop-color:#494948"/><stop offset="1" style="stop-color:#545453"/></linearGradient><circle cx="512.47" cy="511.797" fill="url(#bg_1_)" id="bg" r="512"/></g><linearGradient gradientTransform="matrix(1 0 0 -1 214.3398 1116.0391)" gradientUnits="userSpaceOnUse" id="Shadow_1_" x1="10.5063" x2="625.8463" y1="823.4023" y2="208.0624"><stop offset="0" style="stop-color:#000000"/><stop offset="0.4833" style="stop-color:#090909;stop-opacity:0.5167"/><stop offset="1" style="stop-color:#181818;stop-opacity:0"/></linearGradient><path d="M599.654,1016.404l-259.971-260l-41.938-536.667l31.423-12.865l131.792,131.792  c0,0,191.371,54.129,205.038,66.232l20.063,0.042L986.59,705.424c0,0-17.125,40.632-31.387,63.694  c-14.262,23.062-33.706,54.117-55.877,78.08s-39.613,42.623-60.012,58.712c-20.399,16.089-57.681,43.005-80.327,54.739  c-22.647,11.733-44.777,23.302-69.331,31.655c-24.555,8.354-40.751,13.67-56.887,17.279  C616.635,1013.193,613.196,1014.269,599.654,1016.404z" fill="url(#Shadow_1_)" id="Shadow"/><path d="M512.25,333.325c-67.013,0-127.773,26.728-172.237,70.089V232.199c0-19.33-15.67-35-35-35h-5  c-19.33,0-35,15.67-35,35v350c0,2.357,0.236,4.661,0.682,6.889c4.751,132.086,113.31,237.713,246.556,237.713  c136.271,0,246.737-110.469,246.737-246.737C758.987,443.794,648.52,333.325,512.25,333.325z M512.25,751.801  c-94.696,0-171.737-77.041-171.737-171.736c0-94.696,77.041-171.738,171.737-171.738s171.737,77.042,171.737,171.738  C683.987,674.76,606.946,751.801,512.25,751.801z" fill="#FFFFFF"/><circle cx="423.584" cy="581.033" fill="#FFFFFF" r="51"/></svg>