<?xml version="1.0" ?><!DOCTYPE svg  PUBLIC '-//W3C//DTD SVG 1.1//EN'  'http://www.w3.org/Graphics/SVG/1.1/DTD/svg11.dtd'><svg enable-background="new 0 0 1024 1024" height="1024px" id="Dailymotion" version="1.1" viewBox="0 0 1024 1024" width="1024px" xml:space="preserve" xmlns="http://www.w3.org/2000/svg" xmlns:xlink="http://www.w3.org/1999/xlink"><g id="Background"><linearGradient gradientTransform="matrix(0.9397 0.3421 -0.3421 0.9397 840.8064 -105.4335)" gradientUnits="userSpaceOnUse" id="bg_2_" x1="231.4614" x2="-426.9566" y1="1084.9277" y2="300.3503"><stop offset="0" style="stop-color:#000000"/><stop offset="0.1921" style="stop-color:#090909"/><stop offset="0.5054" style="stop-color:#212121"/><stop offset="0.8987" style="stop-color:#494948"/><stop offset="1" style="stop-color:#545453"/></linearGradient><circle cx="512.001" cy="512" fill="url(#bg_2_)" id="bg_1_" r="512"/></g><linearGradient gradientTransform="matrix(1 0 0 1 428.6797 183.0791)" gradientUnits="userSpaceOnUse" id="Shadow_1_" x1="-4.4165" x2="483.6281" y1="164.6582" y2="652.7028"><stop offset="0" style="stop-color:#000000"/><stop offset="0.4833" style="stop-color:#090909;stop-opacity:0.5167"/><stop offset="1" style="stop-color:#181818;stop-opacity:0"/></linearGradient><path d="M607.803,1015.053L310.086,717.336C310.086,717.336,243,529,335,437s110-82,192-60  s114,30,114,30l79.552-246.75l300.961,300.961c0,0,1.328,14.781,1.664,21.529s0.901,53.306-0.877,71.284  c-1.778,17.978-4.946,43.935-8.464,59.991c-3.517,16.06-7.556,33.478-11.804,46.818s-11.136,33.178-14.784,42.014  c-3.649,8.836-13.021,30.02-17.2,38.177c-4.179,8.155-19.708,35.944-24.039,42.729s-8.769,14.082-16.381,24.513  c-7.612,10.433-19.983,26.569-26.243,33.847c-6.26,7.274-22.509,25.246-29.72,32.302s-21.157,20.284-29.813,27.496  c-8.654,7.212-29.518,23.546-37.172,28.841c-7.652,5.295-24.75,16.693-34.604,22.371c-9.855,5.678-31.404,17.264-39.188,20.911  c-7.781,3.646-19.351,9.147-31.675,13.869c-12.324,4.72-27.242,10.094-35.229,12.538  C657.995,1002.886,624.858,1012.125,607.803,1015.053z" fill="url(#Shadow_1_)" id="Shadow"/><path d="M588.135,188.5v191.667c0,0-49.333-68.667-147.333-53.667  c-42.271,6.47-84.707,24.195-117.318,52.147c-25.391,21.76-47.719,47.964-61.295,78.762c-8.092,18.354-14.451,39.559-16.904,59.516  c-9.865,80.269,20.014,172.017,87.937,219.709c19.356,13.592,43.987,27.799,66.831,34.379  c43.961,12.665,91.925,12.008,134.615-4.994c11.613-4.625,22.519-10.898,32.675-18.164c4.285-3.063,25.962-16.682,25.962-21.854  l-0.167,50.5l127.417-0.25v-616L588.135,188.5z M483.819,662.545c-61.307,0-111-49.696-111-111s49.693-111,111-111  c61.303,0,111,49.696,111,111S545.122,662.545,483.819,662.545z" fill="#FFFFFF" id="Dailymotion_1_"/></svg>