<?xml version="1.0" ?><!DOCTYPE svg  PUBLIC '-//W3C//DTD SVG 1.1//EN'  'http://www.w3.org/Graphics/SVG/1.1/DTD/svg11.dtd'><svg enable-background="new 0 0 1024 1024" height="1024px" id="Rss" version="1.1" viewBox="0 0 1024 1024" width="1024px" xml:space="preserve" xmlns="http://www.w3.org/2000/svg" xmlns:xlink="http://www.w3.org/1999/xlink"><g id="Background"><linearGradient gradientTransform="matrix(0.9397 0.3421 -0.3421 0.9397 840.8064 -105.4335)" gradientUnits="userSpaceOnUse" id="bg_2_" x1="231.4614" x2="-426.9566" y1="1084.9277" y2="300.3503"><stop offset="0" style="stop-color:#000000"/><stop offset="0.1921" style="stop-color:#090909"/><stop offset="0.5054" style="stop-color:#212121"/><stop offset="0.8987" style="stop-color:#494948"/><stop offset="1" style="stop-color:#545453"/></linearGradient><circle cx="512.001" cy="512" fill="url(#bg_2_)" id="bg_1_" r="512"/></g><linearGradient gradientTransform="matrix(1 0 0 1 428.6797 183.0791)" gradientUnits="userSpaceOnUse" id="Shadow_1_" x1="-126.6011" x2="427.4412" y1="154.8433" y2="708.8857"><stop offset="0" style="stop-color:#000000"/><stop offset="0.4833" style="stop-color:#090909;stop-opacity:0.5167"/><stop offset="1" style="stop-color:#181818;stop-opacity:0"/></linearGradient><path d="M633.95,1009.388L337.677,713.114c0,0-19.677-49.114,10.323-81.114  s78.35-29.088,78.35-29.088L316,492l11-79l71.899-6.356L316,324c0,0,255.667,1.667,305.667,26.333s51.58,19.173,51.58,19.173  l319.379,319.37c0,0-4.081,10.992-6.901,17.716c-2.818,6.726-4.108,10.042-7.604,17.552c-3.496,7.512-4.903,10.632-7.838,16.413  c-2.937,5.783-4.05,8.083-6.934,13.374c-2.883,5.291-3.654,6.871-7.07,12.729c-3.418,5.856-3.07,5.493-7.086,11.957  c-4.018,6.464-6.729,10.851-10.214,16.035c-3.483,5.184-4.657,7.029-8.25,12.059c-3.591,5.028-5.398,7.7-9.967,13.653  c-4.565,5.953-9.18,11.874-12.513,15.898c-3.333,4.026-5.421,6.565-8.292,9.866s-9.434,10.885-15.809,17.511  c-6.377,6.626-12.041,12.497-17.939,18.063c-5.898,5.564-7.548,7.361-15.201,13.994c-7.652,6.633-10.593,9.299-17.308,14.638  c-6.716,5.339-10.777,8.646-17.423,13.481c-6.646,4.836-10.524,7.647-14.847,10.584c-4.319,2.935-5.896,4.126-12.317,8.197  c-6.421,4.073-9.601,6.099-13.862,8.63" fill="url(#Shadow_1_)" id="Shadow"/><g id="Rss_1_"><circle cx="386.997" cy="662.018" fill="#FFFFFF" r="71.003"/><path d="M316,396v96c245,20,238.614,241.021,238.614,241.021h98.995C629.61,386.957,316,396,316,396z" fill="#FFFFFF"/><path d="M316,224.129V324c0,0,381-0.958,409,409.021h101.333C826.333,733.021,819,251.259,316,224.129z" fill="#FFFFFF"/></g></svg>