<?xml version="1.0" ?><!DOCTYPE svg  PUBLIC '-//W3C//DTD SVG 1.1//EN'  'http://www.w3.org/Graphics/SVG/1.1/DTD/svg11.dtd'><svg enable-background="new 0 0 1024 1024" height="1024px" id="Snapchat_1_" version="1.1" viewBox="0 0 1024 1024" width="1024px" xml:space="preserve" xmlns="http://www.w3.org/2000/svg" xmlns:xlink="http://www.w3.org/1999/xlink"><g id="Background"><linearGradient gradientTransform="matrix(0.9397 0.3421 0.3421 -0.9397 275.9552 765.9202)" gradientUnits="userSpaceOnUse" id="bg_2_" x1="464.1455" x2="-194.2722" y1="-72.9502" y2="711.6269"><stop offset="0" style="stop-color:#000000"/><stop offset="0.1921" style="stop-color:#090909"/><stop offset="0.5054" style="stop-color:#212121"/><stop offset="0.8987" style="stop-color:#494948"/><stop offset="1" style="stop-color:#545453"/></linearGradient><circle cx="512.001" cy="512" fill="url(#bg_2_)" id="bg_1_" r="512"/></g><linearGradient gradientTransform="matrix(1 0 0 -1 214.3398 1116.0391)" gradientUnits="userSpaceOnUse" id="Shadow_1_" x1="139.3618" x2="634.7414" y1="712.417" y2="217.0374"><stop offset="0" style="stop-color:#000000"/><stop offset="0.4833" style="stop-color:#090909;stop-opacity:0.5167"/><stop offset="1" style="stop-color:#181818;stop-opacity:0"/></linearGradient><path d="M571.04,1020.633l-344.586-344.59c0,0,155.88-83.71,129.88-111.71l-12.057-11.806  l-60.338-60.351c0,0-4.938-24.177,10.562-25.427s59,13.75,69.25,10s263.441-199.235,263.441-199.235l376.793,376.72  c0,0-10.042,31.767-14.246,42.293c-4.204,10.525-7.401,18.323-10.15,24.362s-5.167,11.407-8.313,17.665  c-3.147,6.258-4.038,8.246-7.718,14.987c-3.679,6.741-4.435,8.424-9.073,16.212c-4.64,7.788-8.347,14.107-13.473,21.804  c-5.126,7.697-11.602,17.24-16.562,23.86s-13.638,17.841-18.143,23.198c-4.505,5.356-13.813,16.193-19.741,22.444  c-5.927,6.251-12.633,13.243-18.239,18.599c-5.607,5.354-10.474,10.03-16.336,15.164c-5.863,5.133-11.407,10.036-18.23,15.46  s-7.442,6.096-14.491,11.299c-7.048,5.203-6.369,5.021-15.783,11.398c-9.414,6.377-9.925,6.843-16.239,10.813  c-6.315,3.97-7.533,4.844-13.847,8.539c-6.314,3.695-9.697,5.859-18.711,10.604" fill="url(#Shadow_1_)" id="Shadow"/><path d="M804,658.983c-7-19-45.5-5-87.5-53s-42-69.5-41.5-73.5s-4.5-10,26.5-21s39-18.5,42.5-24  s7-20-12-29s-58.5,23.5-59.5,3s0.267-115.5-14.117-142.5c-14.383-27-55.882-86-146.383-86s-132,59-146.383,86  c-14.384,27-13.117,122-14.117,142.5s-40.5-12-59.5-3s-15.5,23.5-12,29s11.5,13,42.5,24s26,17,26.5,21s0.5,25.5-41.5,73.5  s-80.5,34-87.5,53s36,33.5,47.334,36.167c11.333,2.667,37.166,0.333,34.916,25.333s14.75,20.5,14.75,20.5  c66.5-20,95.5,5.5,131.5,29.5s63.5,20.333,63.5,20.333s27.5,3.667,63.5-20.333s65-49.5,131.5-29.5c0,0,17,4.5,14.75-20.5  s23.583-22.667,34.916-25.333C768,692.483,811,677.983,804,658.983z" fill="#FFFFFF" id="Snapchat"/></svg>