<?xml version="1.0" ?><!DOCTYPE svg  PUBLIC '-//W3C//DTD SVG 1.1//EN'  'http://www.w3.org/Graphics/SVG/1.1/DTD/svg11.dtd'><svg enable-background="new 0 0 1024 1024" height="1024px" id="Whatsapp_1_" version="1.1" viewBox="0 0 1024 1024" width="1024px" xml:space="preserve" xmlns="http://www.w3.org/2000/svg" xmlns:xlink="http://www.w3.org/1999/xlink"><g id="Background"><linearGradient gradientTransform="matrix(0.9397 0.3421 0.3421 -0.9397 275.9552 765.9202)" gradientUnits="userSpaceOnUse" id="bg_2_" x1="464.1455" x2="-194.2722" y1="-72.9502" y2="711.6269"><stop offset="0" style="stop-color:#000000"/><stop offset="0.1921" style="stop-color:#090909"/><stop offset="0.5054" style="stop-color:#212121"/><stop offset="0.8987" style="stop-color:#494948"/><stop offset="1" style="stop-color:#545453"/></linearGradient><circle cx="512.001" cy="512" fill="url(#bg_2_)" id="bg_1_" r="512"/></g><linearGradient gradientTransform="matrix(1 0 0 -1 214.3398 1116.0391)" gradientUnits="userSpaceOnUse" id="Shadow_1_" x1="56.9604" x2="615.9818" y1="757.2754" y2="198.254"><stop offset="0" style="stop-color:#000000"/><stop offset="0.4833" style="stop-color:#090909;stop-opacity:0.5167"/><stop offset="1" style="stop-color:#181818;stop-opacity:0"/></linearGradient><path d="M410.506,1013.774L211.499,814.767l54.599-158.82c0,0-83.997-148.493-9-257.987  c0,0,71.996-137.993,167.992-151.492c0,0,106.495-40.498,184.491,0c0,0,82.495,32.6,92.995,45.548h17.777l297.805,297.803  c0,0-9.482,52.423-18.571,78.321c0,0-5.899,18.681-11.88,33.056c0,0-9.576,22.998-14.271,32.517c0,0-10.466,20.821-14.302,27.587  c0,0-12.211,21.006-16.731,27.912c0,0-22.071,32.616-33.313,45.978c0,0-13.916,16.556-18.723,21.762  c0,0-13.118,13.922-15.997,16.786c0,0-15.556,15.357-24.936,23.378c0,0-24.059,20.531-38.021,30.23c0,0-41.999,29.188-68.959,41.771  c0,0-40.587,19.554-64.652,27.154c0,0-48.785,15.362-73.673,19.313c0,0-23.208,3.908-32.761,4.939c0,0-17.217,1.889-26.202,2.396  c0,0-28.666,0.959-34.771,0.957c0,0-18.743-0.158-26.764-0.67c0,0-27.199-2.128-35.116-3.188c0,0-10.427-1.41-12.397-1.713  c0,0-10.686-1.722-12.336-2.015C423.783,1016.291,410.902,1013.854,410.506,1013.774z" fill="url(#Shadow_1_)" id="Shadow"/><path d="M725.683,297.42C670.012,240.111,593.048,209,514.455,209  c-167.024,0-301.291,135.905-299.652,301.289c0,52.393,14.736,103.166,39.298,149.01l-42.575,155.56l158.836-40.938  c44.205,24.563,93.33,36.028,142.453,36.028c165.383,0,299.659-135.905,299.659-301.297  C812.475,428.417,781.356,353.093,725.683,297.42z M643.813,721.519c-37.66,24.563-83.514,37.659-129.357,37.659  c-44.214,0-88.423-11.45-126.089-34.381l-9.818-4.909l-94.976,24.563l24.561-93.337l-6.547-9.819  c-72.047-116.268-37.659-270.187,80.232-342.232c117.899-72.047,270.18-37.659,342.227,80.232  C796.099,497.195,761.711,649.482,643.813,721.519z" fill="#FFFFFF" id="Circle"/><path d="M640.54,569.24c0,0-26.199-11.467-42.576-19.655c-1.637,0-3.274-1.629-4.916-1.629  c-4.908,0-8.187,1.629-11.456,3.276c0,0-1.641,1.632-24.563,27.825c-1.64,3.277-4.918,4.925-8.188,4.925h-1.639  c-1.641,0-4.91-1.646-6.548-3.277l-8.188-3.279c-18.014-8.186-34.391-18.004-47.485-31.116c-3.276-3.264-8.188-6.543-11.466-9.818  c-11.466-11.465-22.924-24.563-31.109-39.296l-1.641-3.28c-1.638-1.639-1.638-3.271-3.276-6.548c0-3.278,0-6.548,1.64-8.188  c0,0,6.549-8.188,11.464-13.097c3.271-3.278,4.911-8.188,8.188-11.466c3.27-4.908,4.909-11.466,3.27-16.373  c-1.63-8.188-21.283-52.402-26.191-62.221c-3.278-4.917-6.559-6.557-11.465-8.188h-4.909c-3.278,0-8.188,0-13.104,0  c-3.271,0-6.549,1.631-9.826,1.631l-1.631,1.64c-3.277,1.639-6.558,4.917-9.827,6.547c-3.277,3.279-4.917,6.558-8.187,9.827  c-11.466,14.735-18.014,32.749-18.014,50.764c0,13.095,3.277,26.2,8.186,37.657l1.641,4.917  c14.735,31.109,34.388,58.947,60.579,83.51l6.559,6.542c4.907,4.924,9.818,8.188,13.097,13.112  c34.388,29.473,73.686,50.754,117.9,62.219c4.908,1.633,11.456,1.633,16.372,3.278c4.911,0,11.46,0,16.377,0  c8.188,0,18.005-3.278,24.561-6.555c4.908-3.28,8.189-3.28,11.458-6.559l3.279-3.262c3.268-3.277,6.548-4.926,9.825-8.188  c3.27-3.278,6.549-6.557,8.187-9.834c3.271-6.541,4.91-14.729,6.549-22.915c0-3.277,0-8.188,0-11.465  c-0.001,0.003-1.64-1.645-4.919-3.277L640.54,569.24z" fill="#FFFFFF" id="Phone"/></svg>