<?xml version="1.0" ?><!DOCTYPE svg  PUBLIC '-//W3C//DTD SVG 1.1//EN'  'http://www.w3.org/Graphics/SVG/1.1/DTD/svg11.dtd'><svg height="140px" id="Layer_1" style="enable-background:new 0 0 140 140;" version="1.1" viewBox="0 0 140 140" width="140px" xml:space="preserve" xmlns="http://www.w3.org/2000/svg" xmlns:xlink="http://www.w3.org/1999/xlink"><style type="text/css">
<![CDATA[
	.st0{fill:#47BBF4;}
	.st1{fill:#7BEA06;}
	.st2{fill:#49E500;}
	.st3{fill:#7ED1B5;}
	.st4{fill:#1083DD;}
	.st5{fill:#7FBA0D;}
	.st6{fill:#E01726;}
	.st7{fill:#129AFF;}
	.st8{fill:#E2102E;}
	.st9{fill:#E2137A;}
	.st10{fill:#E2573B;}
	.st11{fill:#E2A60E;}
	.st12{fill:#E3443A;}
	.st13{fill:#1558BA;}
	.st14{fill:#159B81;}
	.st15{fill:#1644B7;}
	.st16{fill:#168BF4;}
	.st17{fill:#E51F32;}
	.st18{fill:#E6EFE8;}
	.st19{fill:#187FB8;}
	.st20{fill:#4C5054;}
	.st21{fill:#4C822A;}
	.st22{fill:#E8F9F8;}
	.st23{fill:#4F5459;}
	.st24{fill:#4FCCED;}
	.st25{fill:#B0C6C4;}
	.st26{fill:none;stroke:#33363A;stroke-width:3;stroke-linecap:round;stroke-linejoin:round;stroke-miterlimit:10;}
	.st27{fill:#859392;}
	.st28{fill:#1A68E5;}
	.st29{fill:#1A70F9;}
	.st30{fill:#1B8EED;}
	.st31{fill:#EA4606;}
	.st32{fill:#EA7B0C;}
	.st33{fill:#EAF4F9;}
	.st34{fill:#B70E10;}
	.st35{fill:#1CB1E6;}
	.st36{fill:#1CDDF7;}
	.st37{fill:#EDC211;}
	.st38{fill:#EF8114;}
	.st39{fill:#55932C;}
	.st40{fill:#569FEF;}
	.st41{fill:#BA30CE;}
	.st42{fill:#BA3A3A;}
	.st43{fill:#8CF41E;}
	.st44{fill:#59C96E;}
	.st45{fill:#8E0919;}
	.st46{fill:#20B5EC;}
	.st47{fill:#21CE52;}
	.st48{fill:#21D844;}
	.st49{fill:#F17250;}
	.st50{fill:#2364CE;}
	.st51{fill:#F2303F;}
	.st52{fill:#F24444;}
	.st53{fill:#F26B95;}
	.st54{fill:#F2A775;}
	.st55{fill:#2463FF;}
	.st56{fill:#24A9E6;}
	.st57{fill:#24AEF0;}
	.st58{fill:#F34B78;}
	.st59{fill:#25D600;}
	.st60{fill:#25D800;}
	.st61{fill:#F46300;}
	.st62{fill:#F4921E;}
	.st63{fill:#F4F1E6;}
	.st64{fill:#F72B2B;}
	.st65{fill:#F7441C;}
	.st66{fill:#F7851E;}
	.st67{fill:#5CAA4F;}
	.st68{fill:#F7A56D;}
	.st69{fill:#F7B257;}
	.st70{fill:#F7B92B;}
	.st71{fill:#F8571D;}
	.st72{fill:#F91D80;}
	.st73{fill:#F92E64;}
	.st74{fill:#F93838;}
	.st75{fill:#F9A121;}
	.st76{fill:#F9BD28;}
	.st77{fill:#F9D5AA;}
	.st78{fill:#5FB2A2;}
	.st79{fill:#9165B7;}
	.st80{fill:#95C675;}
	.st81{fill:#2A98F2;}
	.st82{fill:#2AC106;}
	.st83{fill:#C6232C;}
	.st84{fill:#C6402A;}
	.st85{fill:#FA7B7A;}
	.st86{fill:#FA9826;}
	.st87{fill:#2CC64D;}
	.st88{fill:#FB6620;}
	.st89{fill:#C7D5E0;}
	.st90{fill:#C8131A;}
	.st91{fill:#2DB487;}
	.st92{fill:#FC732D;}
	.st93{fill:#C8D8E8;}
	.st94{fill:#2ED3FF;}
	.st95{fill:#FF0DA9;}
	.st96{fill:#FF4743;}
	.st97{fill:#FF6155;}
	.st98{fill:#FF7639;}
	.st99{fill:#FF7676;}
	.st100{fill:#FF88AD;}
	.st101{fill:#FF9064;}
	.st102{fill:#FFA506;}
	.st103{fill:#FFBE8D;}
	.st104{fill:#FFEB5A;}
	.st105{fill:#FFF19C;}
	.st106{fill:#FFFDF5;}
	.st107{fill:#FFFFFF;}
	.st108{fill:#63C605;}
	.st109{fill:#64C0FF;}
	.st110{fill:#66A00A;}
	.st111{fill:#CAFFE9;}
	.st112{fill:#680719;}
	.st113{fill:none;stroke:#FCE2AE;stroke-width:3;stroke-linecap:round;stroke-linejoin:round;stroke-miterlimit:10;}
	.st114{fill:#CC2414;}
	.st115{fill:#CC4521;}
	.st116{fill:#9DEACE;}
	.st117{fill:#303030;}
	.st118{fill:#CE1721;}
	.st119{fill:#33363A;}
	.st120{fill:#337BD1;}
	.st121{fill:#6A7C7C;}
	.st122{fill:#37D660;}
	.st123{fill:#384948;}
	.st124{fill:#38B4F9;}
	.st125{fill:#6CA9EA;}
	.st126{fill:#6D8599;}
	.st127{fill:#0097E2;}
	.st128{fill:#00997C;}
	.st129{fill:#00A4DD;}
	.st130{fill:#0399FF;}
	.st131{fill:#D33F26;}
	.st132{fill:#0695ED;}
	.st133{fill:#0779EA;}
	.st134{fill:#079332;}
	.st135{fill:#D6381E;}
	.st136{fill:#3BAA00;}
	.st137{fill:#D6E5EA;}
	.st138{fill:#D6E7EA;}
	.st139{fill:#08A548;}
	.st140{fill:#08BC26;}
	.st141{fill:#D80B0B;}
	.st142{fill:#D8532B;}
	.st143{fill:#3DC8F9;}
	.st144{fill:#3E77BF;}
	.st145{fill:#3E8AF7;}
	.st146{fill:#D9E5ED;}
	.st147{fill:#72818E;}
	.st148{fill:#0A78DD;}
	.st149{fill:#0A8CDD;}
	.st150{fill:#A52D21;}
	.st151{fill:#76CEFF;}
	.st152{fill:#76DB00;}
	.st153{fill:#0C86EA;}
	.st154{fill:#DB0F4E;}
	.st155{fill:#A7B7B6;}
	.st156{fill:#0DBA5B;}
	.st157{fill:#79B259;}
	.st158{fill:#0E73D8;}
	.st159{fill:#0E78D8;}
	.st160{fill:#0E8971;}
	.st161{fill:#A981D3;}
	.st162{fill:#DD4B4B;}
	.st163{fill:#4087ED;}
	.st164{fill:#40A557;}
	.st165{fill:#40E269;}
	.st166{fill:#DFC7FF;}
	.st167{fill:#DFEFEF;}
	.st168{fill:#44FCB6;}
]]>
</style><g><g><path class="st119" d="M123.806,47.265c-1.454-3.461-3.276-6.8-5.385-9.914c-2.078-3.09-4.486-6.003-7.121-8.642    c-2.645-2.643-5.552-5.04-8.646-7.129c-3.12-2.113-6.456-3.921-9.914-5.389c-3.535-1.483-7.229-2.637-10.979-3.401    c-3.845-0.788-7.804-1.193-11.759-1.193c-3.961,0-7.916,0.405-11.765,1.193c-3.753,0.765-7.444,1.918-10.976,3.401    c-3.462,1.468-6.8,3.275-9.927,5.389c-3.086,2.089-5.994,4.486-8.64,7.129c-2.638,2.639-5.032,5.552-7.122,8.642    c-2.107,3.114-3.924,6.453-5.382,9.914c-1.497,3.531-2.644,7.232-3.415,10.985c-0.783,3.835-1.18,7.791-1.18,11.748    c0,3.969,0.396,7.924,1.18,11.768c0.771,3.752,1.918,7.444,3.415,10.97c1.458,3.458,3.274,6.812,5.382,9.927    c2.09,3.092,4.484,5.99,7.122,8.642c2.646,2.636,5.554,5.027,8.64,7.121c3.127,2.108,6.465,3.921,9.927,5.382    c3.531,1.498,7.223,2.639,10.976,3.403c3.849,0.796,7.804,1.193,11.765,1.193c3.955,0,7.914-0.397,11.759-1.193    c3.75-0.765,7.443-1.905,10.979-3.403c3.458-1.461,6.794-3.273,9.914-5.382c3.095-2.094,6.002-4.485,8.646-7.121    c2.635-2.651,5.043-5.55,7.121-8.642c2.108-3.114,3.931-6.469,5.385-9.927c1.492-3.525,2.646-7.218,3.416-10.97    c0.778-3.844,1.182-7.799,1.182-11.768c0-3.957-0.403-7.913-1.182-11.748C126.452,54.497,125.298,50.796,123.806,47.265z"/><path class="st20" d="M104.738,24.876c0.195-0.46,0.368-0.931,0.552-1.396c-0.863-0.655-1.74-1.294-2.637-1.899    c-3.12-2.113-6.456-3.921-9.914-5.389c-3.535-1.483-7.229-2.637-10.979-3.401c-3.845-0.788-7.804-1.193-11.759-1.193    c-3.961,0-7.916,0.405-11.765,1.193c-3.753,0.765-7.444,1.918-10.976,3.401c-3.462,1.468-6.8,3.275-9.927,5.389    c-3.086,2.089-5.994,4.486-8.64,7.129c-2.638,2.639-5.032,5.552-7.122,8.642c-2.107,3.114-3.924,6.453-5.382,9.914    c-0.196,0.462-0.369,0.935-0.554,1.402c0.862,0.654,1.736,1.293,2.63,1.899c3.126,2.108,6.465,3.921,9.927,5.382    c3.531,1.497,7.223,2.639,10.975,3.403c3.85,0.795,7.805,1.193,11.766,1.193c3.955,0,7.914-0.398,11.758-1.193    c3.751-0.765,7.444-1.906,10.979-3.403c3.459-1.461,6.795-3.273,9.914-5.382c3.096-2.094,6.003-4.486,8.646-7.121    c2.636-2.652,5.043-5.551,7.122-8.642C101.461,31.688,103.284,28.335,104.738,24.876z"/><g><path class="st53" d="M123.806,47.265c-1.454-3.461-3.276-6.8-5.385-9.914c-2.078-3.09-4.486-6.003-7.121-8.642     c-2.645-2.643-5.552-5.04-8.646-7.129c-3.12-2.113-6.456-3.921-9.914-5.389c-3.535-1.483-7.229-2.637-10.979-3.401     c-3.845-0.788-7.804-1.193-11.759-1.193c-3.961,0-7.916,0.405-11.765,1.193c-3.753,0.765-7.444,1.918-10.976,3.401     c-3.462,1.468-6.8,3.275-9.927,5.389c-3.086,2.089-5.994,4.486-8.64,7.129c-2.638,2.639-5.032,5.552-7.122,8.642     c-2.107,3.114-3.924,6.453-5.382,9.914c-1.497,3.531-2.644,7.232-3.415,10.985c-0.783,3.835-1.18,7.791-1.18,11.748     c0,3.969,0.396,7.924,1.18,11.768c0.771,3.752,1.918,7.444,3.415,10.97c1.458,3.458,3.274,6.812,5.382,9.927     c2.09,3.092,4.484,5.99,7.122,8.642c2.646,2.636,5.554,5.027,8.64,7.121c3.127,2.108,6.465,3.921,9.927,5.382     c3.531,1.498,7.223,2.639,10.976,3.403c3.849,0.796,7.804,1.193,11.765,1.193c3.955,0,7.914-0.397,11.759-1.193     c3.75-0.765,7.443-1.905,10.979-3.403c3.458-1.461,6.794-3.273,9.914-5.382c3.095-2.094,6.002-4.485,8.646-7.121     c2.635-2.651,5.043-5.55,7.121-8.642c2.108-3.114,3.931-6.469,5.385-9.927c1.492-3.525,2.646-7.218,3.416-10.97     c0.778-3.844,1.182-7.799,1.182-11.768c0-3.957-0.403-7.913-1.182-11.748C126.452,54.497,125.298,50.796,123.806,47.265z      M70.002,20.126c12.623,0,24.151,4.711,32.94,12.45c-0.125,0.185-7.225,10.998-26.059,18.052     C68.362,34.966,58.99,22.521,58.248,21.531C62.012,20.621,65.95,20.126,70.002,20.126z M58.052,21.573     c0,0.007-0.01,0.015-0.01,0.015s-0.06,0.015-0.15,0.029C57.948,21.603,57.996,21.595,58.052,21.573z M48.716,24.896     c0.668,0.887,9.892,13.393,18.527,28.736c-23.953,6.364-44.74,6.111-46.051,6.089C24.427,44.272,34.801,31.464,48.716,24.896z      M32.901,103.328c-7.945-8.839-12.782-20.519-12.782-33.33c0-0.532,0.026-1.054,0.042-1.575     c0.886,0.021,25.527,0.578,51.207-7.107c1.429,2.797,2.795,5.645,4.048,8.483c-0.659,0.176-1.313,0.374-1.967,0.595     c-26.914,8.695-40.569,32.908-40.569,32.908L32.901,103.328z M70.002,119.88c-11.778,0-22.601-4.092-31.14-10.926     c-0.178-0.139-0.386-0.302-0.642-0.509c0.256,0.207,0.464,0.37,0.642,0.509c0.291,0.227,0.48,0.365,0.48,0.365     s9.56-20.851,39.143-31.157c0.107-0.04,0.226-0.069,0.336-0.102c7.016,18.23,9.908,33.505,10.65,37.863     C83.489,118.467,76.905,119.88,70.002,119.88z M97.87,111.365c-0.508-3.009-3.163-17.649-9.709-35.621     c16.105-2.575,30.054,1.841,31.085,2.178C117.028,91.819,109.065,103.803,97.87,111.365z M85.13,67.868     c-0.361-0.853-0.712-1.711-1.082-2.568c-1.037-2.444-2.157-4.864-3.316-7.237c19.698-8.04,27.691-19.603,27.786-19.737     c6.995,8.493,11.229,19.345,11.346,31.177C119.145,69.346,102.265,65.71,85.13,67.868z" id="Dribbble_2_"/></g><g><path class="st26" d="M123.806,47.265c-1.454-3.461-3.276-6.8-5.385-9.914c-2.078-3.09-4.486-6.003-7.121-8.642     c-2.645-2.643-5.552-5.04-8.646-7.129c-3.12-2.113-6.456-3.921-9.914-5.389c-3.535-1.483-7.229-2.637-10.979-3.401     c-3.845-0.788-7.804-1.193-11.759-1.193c-3.961,0-7.916,0.405-11.765,1.193c-3.753,0.765-7.444,1.918-10.976,3.401     c-3.462,1.468-6.8,3.275-9.927,5.389c-3.086,2.089-5.994,4.486-8.64,7.129c-2.638,2.639-5.032,5.552-7.122,8.642     c-2.107,3.114-3.924,6.453-5.382,9.914c-1.497,3.531-2.644,7.232-3.415,10.985c-0.783,3.835-1.18,7.791-1.18,11.748     c0,3.969,0.396,7.924,1.18,11.768c0.771,3.752,1.918,7.444,3.415,10.97c1.458,3.458,3.274,6.812,5.382,9.927     c2.09,3.092,4.484,5.99,7.122,8.642c2.646,2.636,5.554,5.027,8.64,7.121c3.127,2.108,6.465,3.921,9.927,5.382     c3.531,1.498,7.223,2.639,10.976,3.403c3.849,0.796,7.804,1.193,11.765,1.193c3.955,0,7.914-0.397,11.759-1.193     c3.75-0.765,7.443-1.905,10.979-3.403c3.458-1.461,6.794-3.273,9.914-5.382c3.095-2.094,6.002-4.485,8.646-7.121     c2.635-2.651,5.043-5.55,7.121-8.642c2.108-3.114,3.931-6.469,5.385-9.927c1.492-3.525,2.646-7.218,3.416-10.97     c0.778-3.844,1.182-7.799,1.182-11.768c0-3.957-0.403-7.913-1.182-11.748C126.452,54.497,125.298,50.796,123.806,47.265z      M70.002,20.126c12.623,0,24.151,4.711,32.94,12.45c-0.125,0.185-7.225,10.998-26.059,18.052     C68.362,34.966,58.99,22.521,58.248,21.531C62.012,20.621,65.95,20.126,70.002,20.126z M58.052,21.573     c0,0.007-0.01,0.015-0.01,0.015s-0.06,0.015-0.15,0.029C57.948,21.603,57.996,21.595,58.052,21.573z M48.716,24.896     c0.668,0.887,9.892,13.393,18.527,28.736c-23.953,6.364-44.74,6.111-46.051,6.089C24.427,44.272,34.801,31.464,48.716,24.896z      M32.901,103.328c-7.945-8.839-12.782-20.519-12.782-33.33c0-0.532,0.026-1.054,0.042-1.575     c0.886,0.021,25.527,0.578,51.207-7.107c1.429,2.797,2.795,5.645,4.048,8.483c-0.659,0.176-1.313,0.374-1.967,0.595     c-26.914,8.695-40.569,32.908-40.569,32.908L32.901,103.328z M70.002,119.88c-11.778,0-22.601-4.092-31.14-10.926     c-0.178-0.139-0.386-0.302-0.642-0.509c0.256,0.207,0.464,0.37,0.642,0.509c0.291,0.227,0.48,0.365,0.48,0.365     s9.56-20.851,39.143-31.157c0.107-0.04,0.226-0.069,0.336-0.102c7.016,18.23,9.908,33.505,10.65,37.863     C83.489,118.467,76.905,119.88,70.002,119.88z M97.87,111.365c-0.508-3.009-3.163-17.649-9.709-35.621     c16.105-2.575,30.054,1.841,31.085,2.178C117.028,91.819,109.065,103.803,97.87,111.365z M85.13,67.868     c-0.361-0.853-0.712-1.711-1.082-2.568c-1.037-2.444-2.157-4.864-3.316-7.237c19.698-8.04,27.691-19.603,27.786-19.737     c6.995,8.493,11.229,19.345,11.346,31.177C119.145,69.346,102.265,65.71,85.13,67.868z" id="Dribbble_1_"/></g></g><g><line class="st26" x1="21.574" x2="27.467" y1="128.403" y2="128.403"/><line class="st26" x1="40.22" x2="72.663" y1="128.403" y2="128.403"/><line class="st26" x1="32.771" x2="33.87" y1="128.403" y2="128.403"/></g></g></svg>