<?xml version="1.0" ?><!DOCTYPE svg  PUBLIC '-//W3C//DTD SVG 1.1//EN'  'http://www.w3.org/Graphics/SVG/1.1/DTD/svg11.dtd'><svg height="140px" id="Layer_1" style="enable-background:new 0 0 140 140;" version="1.1" viewBox="0 0 140 140" width="140px" xml:space="preserve" xmlns="http://www.w3.org/2000/svg" xmlns:xlink="http://www.w3.org/1999/xlink"><style type="text/css">
<![CDATA[
	.st0{fill:#47BBF4;}
	.st1{fill:#7BEA06;}
	.st2{fill:#49E500;}
	.st3{fill:#7ED1B5;}
	.st4{fill:#1083DD;}
	.st5{fill:#7FBA0D;}
	.st6{fill:#E01726;}
	.st7{fill:#129AFF;}
	.st8{fill:#E2102E;}
	.st9{fill:#E2137A;}
	.st10{fill:#E2573B;}
	.st11{fill:#E2A60E;}
	.st12{fill:#E3443A;}
	.st13{fill:#1558BA;}
	.st14{fill:#159B81;}
	.st15{fill:#1644B7;}
	.st16{fill:#168BF4;}
	.st17{fill:#E51F32;}
	.st18{fill:#E6EFE8;}
	.st19{fill:#187FB8;}
	.st20{fill:#4C5054;}
	.st21{fill:#4C822A;}
	.st22{fill:#E8F9F8;}
	.st23{fill:#4F5459;}
	.st24{fill:#4FCCED;}
	.st25{fill:#B0C6C4;}
	.st26{fill:none;stroke:#33363A;stroke-width:3;stroke-linecap:round;stroke-linejoin:round;stroke-miterlimit:10;}
	.st27{fill:#859392;}
	.st28{fill:#1A68E5;}
	.st29{fill:#1A70F9;}
	.st30{fill:#1B8EED;}
	.st31{fill:#EA4606;}
	.st32{fill:#EA7B0C;}
	.st33{fill:#EAF4F9;}
	.st34{fill:#B70E10;}
	.st35{fill:#1CB1E6;}
	.st36{fill:#1CDDF7;}
	.st37{fill:#EDC211;}
	.st38{fill:#EF8114;}
	.st39{fill:#55932C;}
	.st40{fill:#569FEF;}
	.st41{fill:#BA30CE;}
	.st42{fill:#BA3A3A;}
	.st43{fill:#8CF41E;}
	.st44{fill:#59C96E;}
	.st45{fill:#8E0919;}
	.st46{fill:#20B5EC;}
	.st47{fill:#21CE52;}
	.st48{fill:#21D844;}
	.st49{fill:#F17250;}
	.st50{fill:#2364CE;}
	.st51{fill:#F2303F;}
	.st52{fill:#F24444;}
	.st53{fill:#F26B95;}
	.st54{fill:#F2A775;}
	.st55{fill:#2463FF;}
	.st56{fill:#24A9E6;}
	.st57{fill:#24AEF0;}
	.st58{fill:#F34B78;}
	.st59{fill:#25D600;}
	.st60{fill:#25D800;}
	.st61{fill:#F46300;}
	.st62{fill:#F4921E;}
	.st63{fill:#F4F1E6;}
	.st64{fill:#F72B2B;}
	.st65{fill:#F7441C;}
	.st66{fill:#F7851E;}
	.st67{fill:#5CAA4F;}
	.st68{fill:#F7A56D;}
	.st69{fill:#F7B257;}
	.st70{fill:#F7B92B;}
	.st71{fill:#F8571D;}
	.st72{fill:#F91D80;}
	.st73{fill:#F92E64;}
	.st74{fill:#F93838;}
	.st75{fill:#F9A121;}
	.st76{fill:#F9BD28;}
	.st77{fill:#F9D5AA;}
	.st78{fill:#5FB2A2;}
	.st79{fill:#9165B7;}
	.st80{fill:#95C675;}
	.st81{fill:#2A98F2;}
	.st82{fill:#2AC106;}
	.st83{fill:#C6232C;}
	.st84{fill:#C6402A;}
	.st85{fill:#FA7B7A;}
	.st86{fill:#FA9826;}
	.st87{fill:#2CC64D;}
	.st88{fill:#FB6620;}
	.st89{fill:#C7D5E0;}
	.st90{fill:#C8131A;}
	.st91{fill:#2DB487;}
	.st92{fill:#FC732D;}
	.st93{fill:#C8D8E8;}
	.st94{fill:#2ED3FF;}
	.st95{fill:#FF0DA9;}
	.st96{fill:#FF4743;}
	.st97{fill:#FF6155;}
	.st98{fill:#FF7639;}
	.st99{fill:#FF7676;}
	.st100{fill:#FF88AD;}
	.st101{fill:#FF9064;}
	.st102{fill:#FFA506;}
	.st103{fill:#FFBE8D;}
	.st104{fill:#FFEB5A;}
	.st105{fill:#FFF19C;}
	.st106{fill:#FFFDF5;}
	.st107{fill:#FFFFFF;}
	.st108{fill:#63C605;}
	.st109{fill:#64C0FF;}
	.st110{fill:#66A00A;}
	.st111{fill:#CAFFE9;}
	.st112{fill:#680719;}
	.st113{fill:none;stroke:#FCE2AE;stroke-width:3;stroke-linecap:round;stroke-linejoin:round;stroke-miterlimit:10;}
	.st114{fill:#CC2414;}
	.st115{fill:#CC4521;}
	.st116{fill:#9DEACE;}
	.st117{fill:#303030;}
	.st118{fill:#CE1721;}
	.st119{fill:#33363A;}
	.st120{fill:#337BD1;}
	.st121{fill:#6A7C7C;}
	.st122{fill:#37D660;}
	.st123{fill:#384948;}
	.st124{fill:#38B4F9;}
	.st125{fill:#6CA9EA;}
	.st126{fill:#6D8599;}
	.st127{fill:#0097E2;}
	.st128{fill:#00997C;}
	.st129{fill:#00A4DD;}
	.st130{fill:#0399FF;}
	.st131{fill:#D33F26;}
	.st132{fill:#0695ED;}
	.st133{fill:#0779EA;}
	.st134{fill:#079332;}
	.st135{fill:#D6381E;}
	.st136{fill:#3BAA00;}
	.st137{fill:#D6E5EA;}
	.st138{fill:#D6E7EA;}
	.st139{fill:#08A548;}
	.st140{fill:#08BC26;}
	.st141{fill:#D80B0B;}
	.st142{fill:#D8532B;}
	.st143{fill:#3DC8F9;}
	.st144{fill:#3E77BF;}
	.st145{fill:#3E8AF7;}
	.st146{fill:#D9E5ED;}
	.st147{fill:#72818E;}
	.st148{fill:#0A78DD;}
	.st149{fill:#0A8CDD;}
	.st150{fill:#A52D21;}
	.st151{fill:#76CEFF;}
	.st152{fill:#76DB00;}
	.st153{fill:#0C86EA;}
	.st154{fill:#DB0F4E;}
	.st155{fill:#A7B7B6;}
	.st156{fill:#0DBA5B;}
	.st157{fill:#79B259;}
	.st158{fill:#0E73D8;}
	.st159{fill:#0E78D8;}
	.st160{fill:#0E8971;}
	.st161{fill:#A981D3;}
	.st162{fill:#DD4B4B;}
	.st163{fill:#4087ED;}
	.st164{fill:#40A557;}
	.st165{fill:#40E269;}
	.st166{fill:#DFC7FF;}
	.st167{fill:#DFEFEF;}
	.st168{fill:#44FCB6;}
]]>
</style><g><g><g><path class="st165" d="M19.518,31.267h0.008h11.823c0.675,0,1.225-0.558,1.225-1.229c0-0.004-0.145-10.175-0.145-13.004v-0.035     c0-2.324,0.482-4.347,1.332-6.047l0.402-0.759c-0.045,0.007-0.09,0.03-0.136,0.073L11.062,33.134     c-0.044,0.034-0.076,0.085-0.088,0.134c0.476-0.239,1.127-0.557,1.217-0.598C14.188,31.762,16.614,31.267,19.518,31.267z"/><path class="st165" d="M104.867,20.268c-2.913-1.06-8.825-2.153-16.251-3.036c-5.977-0.705-13-0.647-17.241-0.519     c-0.507-3.5-2.95-6.697-5.691-7.803c-7.291-2.948-18.558-2.238-21.448-1.424c-2.297,0.644-4.845,1.968-6.26,4.004     c-0.949,1.362-1.564,3.106-1.567,5.54c0,1.379,0.039,4.622,0.07,7.511c0.034,2.889,0.076,5.478,0.076,5.497     c0,2.574-2.083,4.671-4.661,4.676H20.072c-2.522,0-4.448,0.426-5.917,1.094c-1.479,0.675-2.521,1.582-3.316,2.65     c-1.58,2.131-1.853,4.754-1.845,7.436c0,0,0.027,2.193,0.553,6.428c0.437,3.28,3.979,26.195,7.342,33.163     c1.305,2.709,2.173,3.839,4.735,5.032c5.711,2.458,18.759,5.19,24.871,5.972c6.105,0.781,9.934,2.429,12.22-2.375     c0.006-0.012,0.456-1.197,1.071-2.931c1.987-6.03,2.26-11.382,2.26-15.25c0-0.395,0.575-0.413,0.575,0     c0,2.73-0.521,12.403,6.758,15c2.873,1.023,8.833,1.932,14.884,2.647c5.478,0.633,9.454,2.794,9.454,16.896     c0,8.579-1.798,9.758-11.18,9.758c-7.609,0-10.511,0.197-10.511-5.87c0-4.903,4.836-4.39,8.413-4.39     c1.601,0,0.442-1.194,0.442-4.219c0-3.012,1.872-4.75,0.102-4.792c-12.384-0.347-19.666-0.018-19.666,15.528     c0,14.116,5.376,16.734,22.945,16.734c13.782,0,18.641-0.454,24.323-18.174c1.129-3.5,3.854-14.174,5.498-32.101     c1.044-11.334-0.98-45.542-2.586-54.177C110.555,23.729,107.569,21.243,104.867,20.268z M87.482,66.587     c-1.701-0.058-3.339,0.047-4.866,0.293c0.428-3.482,1.859-7.756,6.935-7.58c5.616,0.196,6.405,5.524,6.426,9.135     C93.606,67.375,90.674,66.702,87.482,66.587z"/><path class="st128" d="M10.839,38.458c-1.58,2.131-1.853,4.754-1.845,7.436c0,0,0.027,2.193,0.553,6.428     c0.437,3.28,3.979,26.195,7.342,33.163c1.305,2.709,2.173,3.839,4.735,5.032c5.711,2.458,18.759,5.19,24.871,5.972     c1.747,0.224,3.301,0.514,4.691,0.708c1.361-0.361,2.459-1.251,3.332-3.083c0.006-0.012,0.456-1.197,1.07-2.931     c1.988-6.03,2.261-11.382,2.261-15.25c0-0.395,0.575-0.413,0.575,0c0,1.984-0.26,7.626,2.383,11.563     c1.054-4.514,1.238-8.506,1.238-11.563c0-0.395,0.575-0.413,0.575,0c0,2.73-0.521,12.403,6.758,15     c2.873,1.023,8.833,1.932,14.884,2.647c5.478,0.633,9.454,2.794,9.454,16.896c0,8.579-1.798,9.758-11.18,9.758     c-1.13,0-2.145,0.002-3.073-0.011c-0.366,0.005-0.729,0.011-1.123,0.011c-7.609,0-10.511,0.197-10.511-5.87     c0-4.903,4.835-4.39,8.413-4.39c1.602,0,0.441-1.194,0.441-4.219c0-3.012,1.873-4.75,0.102-4.792     c-0.59-0.017-1.164-0.031-1.729-0.043c-8.744,0.262-13.739,2.701-13.739,15.571c0,13.647,5.027,16.547,21.238,16.725     c11.904-0.115,16.508-1.554,21.834-18.164c1.129-3.5,3.854-14.174,5.498-32.101c1.043-11.334-0.98-45.542-2.586-54.177     c-0.943-5.046-3.929-7.531-6.631-8.507c-2.914-1.06-8.825-2.153-16.251-3.036c-3.243-0.382-6.791-0.539-10.038-0.583     c-1.1,0.015-2.117,0.038-3.007,0.065c-0.004-0.026-0.013-0.05-0.017-0.076c-1.556,0.009-2.981,0.04-4.18,0.076     c-0.508-3.5-2.951-6.697-5.691-7.803c-3.39-1.371-7.635-1.945-11.503-2.091c-2.607,0.102-4.718,0.377-5.749,0.667     c-2.297,0.644-4.845,1.968-6.26,4.004c-0.949,1.362-1.564,3.106-1.567,5.54c0,1.379,0.039,4.622,0.07,7.511     c0.034,2.889,0.076,5.478,0.076,5.497c0,2.574-2.083,4.671-4.661,4.676h-4.195h-7.626c-2.522,0-4.448,0.426-5.917,1.094     C12.677,36.482,11.634,37.39,10.839,38.458z M85.354,59.301c0.69,0.024,1.307,0.128,1.859,0.295     c0.679-0.214,1.449-0.326,2.337-0.295c5.616,0.196,6.405,5.524,6.426,9.135c-1.267-0.567-2.702-1.012-4.244-1.331     c0.031,0.459,0.044,0.908,0.048,1.331c-2.1-0.939-4.653-1.549-7.424-1.763c-0.592,0.052-1.176,0.116-1.74,0.208     c0.012-0.099,0.027-0.2,0.041-0.3c-1.475-0.016-2.9,0.084-4.238,0.3C78.847,63.398,80.279,59.124,85.354,59.301z"/></g><g><path class="st26" d="M34.027,10.265L11.062,33.134c-0.044,0.034-0.076,0.085-0.088,0.134"/><path class="st26" d="M33.761,10.952"/><path class="st26" d="M104.867,20.268c-2.913-1.06-8.825-2.153-16.251-3.036c-5.977-0.705-13-0.647-17.241-0.519     c-0.507-3.5-2.95-6.697-5.691-7.803c-7.291-2.948-18.558-2.238-21.448-1.424c-2.297,0.644-4.845,1.968-6.26,4.004     c-0.949,1.362-1.564,3.106-1.567,5.54c0,1.379,0.039,4.622,0.07,7.511c0.034,2.889,0.076,5.478,0.076,5.497     c0,2.574-2.083,4.671-4.661,4.676H20.072c-2.522,0-4.448,0.426-5.917,1.094c-1.479,0.675-2.521,1.582-3.316,2.65     c-1.58,2.131-1.853,4.754-1.845,7.436c0,0,0.027,2.193,0.553,6.428c0.437,3.28,3.979,26.195,7.342,33.163     c1.305,2.709,2.173,3.839,4.735,5.032c5.711,2.458,18.759,5.19,24.871,5.972c6.105,0.781,9.934,2.429,12.22-2.375     c0.006-0.012,0.456-1.197,1.071-2.931c1.987-6.03,2.26-11.382,2.26-15.25c0-0.395,0.575-0.413,0.575,0     c0,2.73-0.521,12.403,6.758,15c2.873,1.023,8.833,1.932,14.884,2.647c5.478,0.633,9.454,2.794,9.454,16.896     c0,8.579-1.798,9.758-11.18,9.758c-7.609,0-10.511,0.197-10.511-5.87c0-4.903,4.836-4.39,8.413-4.39     c1.601,0,0.442-1.194,0.442-4.219c0-3.012,1.872-4.75,0.102-4.792c-12.384-0.347-19.666-0.018-19.666,15.528     c0,14.116,5.376,16.734,22.945,16.734c13.782,0,18.641-0.454,24.323-18.174c1.129-3.5,3.854-14.174,5.498-32.101     c1.044-11.334-0.98-45.542-2.586-54.177C110.555,23.729,107.569,21.243,104.867,20.268z M87.482,66.587     c-1.701-0.058-3.339,0.047-4.866,0.293c0.428-3.482,1.859-7.756,6.935-7.58c5.616,0.196,6.405,5.524,6.426,9.135     C93.606,67.375,90.674,66.702,87.482,66.587z"/></g><line class="st26" x1="62.377" x2="62.377" y1="78.66" y2="65.226"/><line class="st26" x1="71.511" x2="71.511" y1="24.116" y2="17.398"/><g><g><line class="st26" x1="90.076" x2="90.211" y1="50.856" y2="49.188"/><line class="st26" x1="90.51" x2="90.501" y1="45.564" y2="45.642"/></g><g><g><line class="st26" x1="76.942" x2="75.858" y1="52.459" y2="51.185"/><line class="st26" x1="73.504" x2="73.556" y1="48.412" y2="48.47"/></g><g><line class="st26" x1="102.771" x2="104.048" y1="54.576" y2="53.492"/><line class="st26" x1="106.821" x2="106.762" y1="51.14" y2="51.189"/></g></g></g></g><g><path class="st97" d="M131.006,102.68c0,3.602-2.919,6.52-6.521,6.52h-3.594c-3.602,0-6.521-2.919-6.521-6.52V14.013    c0-3.601,2.919-6.519,6.521-6.52h3.594c3.602,0,6.521,2.919,6.521,6.52V102.68z"/><path class="st135" d="M120.892,7.493h3.594c3.602,0,6.521,2.919,6.521,6.52v88.667c0,3.602-2.919,6.52-6.521,6.52h-3.594"/><path class="st26" d="M131.006,102.68c0,3.602-2.919,6.52-6.521,6.52h-3.594c-3.602,0-6.521-2.919-6.521-6.52V14.013    c0-3.601,2.919-6.519,6.521-6.52h3.594c3.602,0,6.521,2.919,6.521,6.52V102.68z"/><g><polygon class="st77" points="115,105.179 122.688,132.507 130.378,105.179    "/><polygon class="st69" points="120.892,105.179 122.688,132.507 130.378,105.179    "/><polygon class="st26" points="115,105.179 122.688,132.507 130.378,105.179    "/></g><g><polygon class="st119" points="118.332,117.023 122.688,132.507 127.046,117.023    "/><polygon class="st26" points="118.332,117.023 122.688,132.507 127.046,117.023    "/></g><g><g><line class="st26" x1="122.689" x2="122.689" y1="14.991" y2="63.889"/><line class="st26" x1="122.689" x2="122.688" y1="71.692" y2="78.449"/><line class="st26" x1="122.689" x2="122.689" y1="85.897" y2="86.901"/><line class="st26" x1="122.689" x2="122.689" y1="95.507" y2="94.01"/></g></g></g></g></svg>