<?xml version="1.0" ?><!DOCTYPE svg  PUBLIC '-//W3C//DTD SVG 1.1//EN'  'http://www.w3.org/Graphics/SVG/1.1/DTD/svg11.dtd'><svg height="140px" id="Layer_1" style="enable-background:new 0 0 140 140;" version="1.1" viewBox="0 0 140 140" width="140px" xml:space="preserve" xmlns="http://www.w3.org/2000/svg" xmlns:xlink="http://www.w3.org/1999/xlink"><style type="text/css">
<![CDATA[
	.st0{fill:#47BBF4;}
	.st1{fill:#7BEA06;}
	.st2{fill:#49E500;}
	.st3{fill:#7ED1B5;}
	.st4{fill:#1083DD;}
	.st5{fill:#7FBA0D;}
	.st6{fill:#E01726;}
	.st7{fill:#129AFF;}
	.st8{fill:#E2102E;}
	.st9{fill:#E2137A;}
	.st10{fill:#E2573B;}
	.st11{fill:#E2A60E;}
	.st12{fill:#E3443A;}
	.st13{fill:#1558BA;}
	.st14{fill:#159B81;}
	.st15{fill:#1644B7;}
	.st16{fill:#168BF4;}
	.st17{fill:#E51F32;}
	.st18{fill:#E6EFE8;}
	.st19{fill:#187FB8;}
	.st20{fill:#4C5054;}
	.st21{fill:#4C822A;}
	.st22{fill:#E8F9F8;}
	.st23{fill:#4F5459;}
	.st24{fill:#4FCCED;}
	.st25{fill:#B0C6C4;}
	.st26{fill:none;stroke:#33363A;stroke-width:3;stroke-linecap:round;stroke-linejoin:round;stroke-miterlimit:10;}
	.st27{fill:#859392;}
	.st28{fill:#1A68E5;}
	.st29{fill:#1A70F9;}
	.st30{fill:#1B8EED;}
	.st31{fill:#EA4606;}
	.st32{fill:#EA7B0C;}
	.st33{fill:#EAF4F9;}
	.st34{fill:#B70E10;}
	.st35{fill:#1CB1E6;}
	.st36{fill:#1CDDF7;}
	.st37{fill:#EDC211;}
	.st38{fill:#EF8114;}
	.st39{fill:#55932C;}
	.st40{fill:#569FEF;}
	.st41{fill:#BA30CE;}
	.st42{fill:#BA3A3A;}
	.st43{fill:#8CF41E;}
	.st44{fill:#59C96E;}
	.st45{fill:#8E0919;}
	.st46{fill:#20B5EC;}
	.st47{fill:#21CE52;}
	.st48{fill:#21D844;}
	.st49{fill:#F17250;}
	.st50{fill:#2364CE;}
	.st51{fill:#F2303F;}
	.st52{fill:#F24444;}
	.st53{fill:#F26B95;}
	.st54{fill:#F2A775;}
	.st55{fill:#2463FF;}
	.st56{fill:#24A9E6;}
	.st57{fill:#24AEF0;}
	.st58{fill:#F34B78;}
	.st59{fill:#25D600;}
	.st60{fill:#25D800;}
	.st61{fill:#F46300;}
	.st62{fill:#F4921E;}
	.st63{fill:#F4F1E6;}
	.st64{fill:#F72B2B;}
	.st65{fill:#F7441C;}
	.st66{fill:#F7851E;}
	.st67{fill:#5CAA4F;}
	.st68{fill:#F7A56D;}
	.st69{fill:#F7B257;}
	.st70{fill:#F7B92B;}
	.st71{fill:#F8571D;}
	.st72{fill:#F91D80;}
	.st73{fill:#F92E64;}
	.st74{fill:#F93838;}
	.st75{fill:#F9A121;}
	.st76{fill:#F9BD28;}
	.st77{fill:#F9D5AA;}
	.st78{fill:#5FB2A2;}
	.st79{fill:#9165B7;}
	.st80{fill:#95C675;}
	.st81{fill:#2A98F2;}
	.st82{fill:#2AC106;}
	.st83{fill:#C6232C;}
	.st84{fill:#C6402A;}
	.st85{fill:#FA7B7A;}
	.st86{fill:#FA9826;}
	.st87{fill:#2CC64D;}
	.st88{fill:#FB6620;}
	.st89{fill:#C7D5E0;}
	.st90{fill:#C8131A;}
	.st91{fill:#2DB487;}
	.st92{fill:#FC732D;}
	.st93{fill:#C8D8E8;}
	.st94{fill:#2ED3FF;}
	.st95{fill:#FF0DA9;}
	.st96{fill:#FF4743;}
	.st97{fill:#FF6155;}
	.st98{fill:#FF7639;}
	.st99{fill:#FF7676;}
	.st100{fill:#FF88AD;}
	.st101{fill:#FF9064;}
	.st102{fill:#FFA506;}
	.st103{fill:#FFBE8D;}
	.st104{fill:#FFEB5A;}
	.st105{fill:#FFF19C;}
	.st106{fill:#FFFDF5;}
	.st107{fill:#FFFFFF;}
	.st108{fill:#63C605;}
	.st109{fill:#64C0FF;}
	.st110{fill:#66A00A;}
	.st111{fill:#CAFFE9;}
	.st112{fill:#680719;}
	.st113{fill:none;stroke:#FCE2AE;stroke-width:3;stroke-linecap:round;stroke-linejoin:round;stroke-miterlimit:10;}
	.st114{fill:#CC2414;}
	.st115{fill:#CC4521;}
	.st116{fill:#9DEACE;}
	.st117{fill:#303030;}
	.st118{fill:#CE1721;}
	.st119{fill:#33363A;}
	.st120{fill:#337BD1;}
	.st121{fill:#6A7C7C;}
	.st122{fill:#37D660;}
	.st123{fill:#384948;}
	.st124{fill:#38B4F9;}
	.st125{fill:#6CA9EA;}
	.st126{fill:#6D8599;}
	.st127{fill:#0097E2;}
	.st128{fill:#00997C;}
	.st129{fill:#00A4DD;}
	.st130{fill:#0399FF;}
	.st131{fill:#D33F26;}
	.st132{fill:#0695ED;}
	.st133{fill:#0779EA;}
	.st134{fill:#079332;}
	.st135{fill:#D6381E;}
	.st136{fill:#3BAA00;}
	.st137{fill:#D6E5EA;}
	.st138{fill:#D6E7EA;}
	.st139{fill:#08A548;}
	.st140{fill:#08BC26;}
	.st141{fill:#D80B0B;}
	.st142{fill:#D8532B;}
	.st143{fill:#3DC8F9;}
	.st144{fill:#3E77BF;}
	.st145{fill:#3E8AF7;}
	.st146{fill:#D9E5ED;}
	.st147{fill:#72818E;}
	.st148{fill:#0A78DD;}
	.st149{fill:#0A8CDD;}
	.st150{fill:#A52D21;}
	.st151{fill:#76CEFF;}
	.st152{fill:#76DB00;}
	.st153{fill:#0C86EA;}
	.st154{fill:#DB0F4E;}
	.st155{fill:#A7B7B6;}
	.st156{fill:#0DBA5B;}
	.st157{fill:#79B259;}
	.st158{fill:#0E73D8;}
	.st159{fill:#0E78D8;}
	.st160{fill:#0E8971;}
	.st161{fill:#A981D3;}
	.st162{fill:#DD4B4B;}
	.st163{fill:#4087ED;}
	.st164{fill:#40A557;}
	.st165{fill:#40E269;}
	.st166{fill:#DFC7FF;}
	.st167{fill:#DFEFEF;}
	.st168{fill:#44FCB6;}
]]>
</style><g><g><path class="st107" d="M132.375,70c0,34.445-27.922,62.383-62.369,62.383c-34.455,0-62.381-27.938-62.381-62.383    c0-34.451,27.926-62.383,62.381-62.383C104.453,7.617,132.375,35.549,132.375,70z"/><path class="st33" d="M70.006,7.617c34.447,0,62.369,27.932,62.369,62.383c0,34.445-27.922,62.383-62.369,62.383"/><path class="st26" d="M132.375,70c0,34.445-27.922,62.383-62.369,62.383c-34.455,0-62.381-27.938-62.381-62.383    c0-34.451,27.926-62.383,62.381-62.383C104.453,7.617,132.375,35.549,132.375,70z"/></g><g><g><path class="st144" d="M69.998,20.797c-27.176,0-49.215,22.119-49.215,49.414c0,21.828,14.102,40.346,33.666,46.881     c2.461,0.457,3.355-1.07,3.355-2.379c0-1.176-0.041-4.281-0.068-8.404c-13.691,2.988-16.58-6.625-16.58-6.625     c-2.234-5.707-5.463-7.223-5.463-7.223c-4.469-3.068,0.338-3.008,0.338-3.008c4.938,0.35,7.535,5.094,7.535,5.094     c4.396,7.551,11.523,5.369,14.328,4.104c0.445-3.193,1.719-5.371,3.125-6.605c-10.928-1.25-22.416-5.484-22.416-24.418     c0-5.396,1.914-9.805,5.062-13.264c-0.508-1.25-2.195-6.271,0.482-13.072c0,0,4.133-1.328,13.535,5.064     c3.928-1.096,8.135-1.643,12.322-1.664c4.178,0.021,8.389,0.568,12.322,1.664c9.391-6.393,13.52-5.064,13.52-5.064     c2.686,6.801,0.994,11.822,0.486,13.072c3.156,3.459,5.062,7.867,5.062,13.264c0,18.979-11.508,23.156-22.475,24.379     c1.768,1.525,3.342,4.543,3.342,9.154c0,6.604-0.061,11.93-0.061,13.553c0,1.322,0.887,2.859,3.383,2.373     c19.543-6.547,33.629-25.053,33.629-46.875C119.215,42.916,97.178,20.797,69.998,20.797z"/></g><g><path class="st144" d="M69.998,20.797c-27.176,0-49.215,22.119-49.215,49.414c0,21.828,14.102,40.346,33.666,46.881     c2.461,0.457,3.355-1.07,3.355-2.379c0-1.176-0.041-4.281-0.068-8.404c-13.691,2.988-16.58-6.625-16.58-6.625     c-2.234-5.707-5.463-7.223-5.463-7.223c-4.469-3.068,0.338-3.008,0.338-3.008c4.938,0.35,7.535,5.094,7.535,5.094     c4.396,7.551,11.523,5.369,14.328,4.104c0.445-3.193,1.719-5.371,3.125-6.605c-10.928-1.25-22.416-5.484-22.416-24.418     c0-5.396,1.914-9.805,5.062-13.264c-0.508-1.25-2.195-6.271,0.482-13.072c0,0,4.133-1.328,13.535,5.064     c3.928-1.096,8.135-1.643,12.322-1.664c4.178,0.021,8.389,0.568,12.322,1.664c9.391-6.393,13.52-5.064,13.52-5.064     c2.686,6.801,0.994,11.822,0.486,13.072c3.156,3.459,5.062,7.867,5.062,13.264c0,18.979-11.508,23.156-22.475,24.379     c1.768,1.525,3.342,4.543,3.342,9.154c0,6.604-0.061,11.93-0.061,13.553c0,1.322,0.887,2.859,3.383,2.373     c19.543-6.547,33.629-25.053,33.629-46.875C119.215,42.916,97.178,20.797,69.998,20.797z"/></g><path class="st40" d="M69.998,20.797c-27.176,0-49.215,22.119-49.215,49.414c0,21.828,14.102,40.346,33.666,46.881    c2.461,0.457,3.355-1.07,3.355-2.379c0-1.176-0.041-4.281-0.068-8.404c-13.691,2.988-16.58-6.625-16.58-6.625    c-2.234-5.707-5.463-7.223-5.463-7.223c-4.469-3.068,0.338-3.008,0.338-3.008c4.938,0.35,7.535,5.094,7.535,5.094    c4.396,7.551,11.523,5.369,14.328,4.104c0.445-3.193,1.719-5.371,3.125-6.605c-10.928-1.25-22.416-5.484-22.416-24.418    c0-5.396,1.914-9.805,5.062-13.264c-0.508-1.25-2.195-6.271,0.482-13.072c0,0,4.133-1.328,13.535,5.064    c3.928-1.096,8.135-1.643,12.322-1.664V20.797C70.002,20.797,70,20.797,69.998,20.797z"/><g><path class="st125" d="M45.863,97.443c-0.314-0.477-0.91-1.283-1.771-2.094C44.652,96.178,45.246,96.873,45.863,97.443z"/></g></g><g><g><g><path class="st119" d="M69.998,23.797c25.484,0,46.217,20.821,46.217,46.414c0,19.805-12.436,37.344-31.01,43.835      c0.003-0.529,0.008-1.224,0.014-2.058c0.018-2.55,0.045-6.402,0.045-10.828c0-2.543-0.438-4.896-1.254-6.906      c3.98-0.821,8.473-2.356,12.191-5.482c5.438-4.569,8.195-11.684,8.195-21.145c0-5.278-1.579-9.956-4.697-13.929      c0.7-2.679,1.29-7.554-1.062-13.509c-0.329-0.835-1.017-1.479-1.871-1.754c-0.3-0.096-0.961-0.258-2.015-0.258      c-2.471,0-6.683,0.88-12.963,4.937c-3.748-0.923-7.702-1.401-11.799-1.422c-4.074,0.021-8.025,0.499-11.77,1.421      c-6.287-4.056-10.502-4.936-12.975-4.936c-1.055,0-1.715,0.162-2.016,0.258c-0.855,0.275-1.544,0.92-1.873,1.757      c-2.346,5.958-1.756,10.831-1.057,13.508c-3.118,3.98-4.697,8.657-4.697,13.927c0,5.661,0,22.115,20.371,26.622      c-0.283,0.694-0.521,1.429-0.709,2.198c-0.851,0.268-1.903,0.499-3.004,0.499c-2.571,0-4.564-1.274-6.095-3.896      c-0.374-0.655-3.684-6.148-9.924-6.59c-0.06-0.005-0.118-0.007-0.177-0.008c-0.012,0-0.044,0-0.055,0      c-2.65,0-4.494,1.048-5.061,2.874c-0.9,2.898,2.068,4.938,3.044,5.606c0.169,0.116,0.216,0.156,0.389,0.229      c0.31,0.183,2.353,1.505,3.952,5.549c0.443,1.288,3.598,9.174,14.442,9.174c0.646,0,1.308-0.029,1.985-0.088      c0.006,0.692,0.012,1.332,0.018,1.91c0.01,0.958,0.017,1.748,0.021,2.335c-18.581-6.486-31.019-24.021-31.019-43.831      C23.783,44.618,44.516,23.797,69.998,23.797 M69.998,20.797c-27.176,0-49.215,22.119-49.215,49.414      c0,21.828,14.102,40.346,33.666,46.881c0.305,0.057,0.585,0.083,0.842,0.083c1.827,0,2.514-1.315,2.514-2.462      c0-1.176-0.041-4.281-0.068-8.404c-1.841,0.401-3.488,0.576-4.958,0.576c-9.46,0-11.622-7.201-11.622-7.201      c-2.234-5.707-5.463-7.223-5.463-7.223c-4.299-2.952-0.014-3.008,0.318-3.008c0.013,0,0.02,0,0.02,0      c4.938,0.35,7.535,5.094,7.535,5.094c2.456,4.218,5.765,5.399,8.695,5.399c2.315,0,4.395-0.737,5.633-1.296      c0.445-3.193,1.719-5.371,3.125-6.605c-10.928-1.25-22.416-5.484-22.416-24.418c0-5.396,1.914-9.805,5.062-13.264      c-0.508-1.25-2.195-6.271,0.482-13.072c0,0,0.356-0.114,1.098-0.114c1.783,0,5.795,0.663,12.438,5.179      c3.928-1.096,8.135-1.643,12.322-1.664c4.178,0.021,8.389,0.568,12.322,1.664c6.634-4.516,10.642-5.179,12.424-5.179      c0.74,0,1.096,0.114,1.096,0.114c2.686,6.801,0.994,11.822,0.486,13.072c3.156,3.459,5.062,7.867,5.062,13.264      c0,18.979-11.508,23.156-22.475,24.379c1.768,1.525,3.342,4.543,3.342,9.154c0,6.604-0.061,11.93-0.061,13.553      c0,1.151,0.672,2.465,2.493,2.465c0.271,0,0.566-0.029,0.89-0.092c19.543-6.547,33.629-25.053,33.629-46.875      C119.215,42.916,97.178,20.797,69.998,20.797L69.998,20.797z"/></g></g><g><g><path class="st119" d="M69.998,23.797c25.484,0,46.217,20.821,46.217,46.414c0,19.805-12.436,37.344-31.01,43.835      c0.003-0.529,0.008-1.224,0.014-2.058c0.018-2.55,0.045-6.402,0.045-10.828c0-2.543-0.438-4.896-1.254-6.906      c3.98-0.821,8.473-2.356,12.191-5.482c5.438-4.569,8.195-11.684,8.195-21.145c0-5.278-1.579-9.956-4.697-13.929      c0.7-2.679,1.29-7.554-1.062-13.509c-0.329-0.835-1.017-1.479-1.871-1.754c-0.3-0.096-0.961-0.258-2.015-0.258      c-2.471,0-6.683,0.88-12.963,4.937c-3.748-0.923-7.702-1.401-11.799-1.422c-4.074,0.021-8.025,0.499-11.77,1.421      c-6.287-4.056-10.502-4.936-12.975-4.936c-1.055,0-1.715,0.162-2.016,0.258c-0.855,0.275-1.544,0.92-1.873,1.757      c-2.346,5.958-1.756,10.831-1.057,13.508c-3.118,3.98-4.697,8.657-4.697,13.927c0,5.661,0,22.115,20.371,26.622      c-0.283,0.694-0.521,1.429-0.709,2.198c-0.851,0.268-1.903,0.499-3.004,0.499c-2.571,0-4.564-1.274-6.095-3.896      c-0.374-0.655-3.684-6.148-9.924-6.59c-0.06-0.005-0.118-0.007-0.177-0.008c-0.012,0-0.044,0-0.055,0      c-2.65,0-4.494,1.048-5.061,2.874c-0.9,2.898,2.068,4.938,3.044,5.606c0.169,0.116,0.216,0.156,0.389,0.229      c0.31,0.183,2.353,1.505,3.952,5.549c0.443,1.288,3.598,9.174,14.442,9.174c0.646,0,1.308-0.029,1.985-0.088      c0.006,0.692,0.012,1.332,0.018,1.91c0.01,0.958,0.017,1.748,0.021,2.335c-18.581-6.486-31.019-24.021-31.019-43.831      C23.783,44.618,44.516,23.797,69.998,23.797 M69.998,20.797c-27.176,0-49.215,22.119-49.215,49.414      c0,21.828,14.102,40.346,33.666,46.881c0.305,0.057,0.585,0.083,0.842,0.083c1.827,0,2.514-1.315,2.514-2.462      c0-1.176-0.041-4.281-0.068-8.404c-1.841,0.401-3.488,0.576-4.958,0.576c-9.46,0-11.622-7.201-11.622-7.201      c-2.234-5.707-5.463-7.223-5.463-7.223c-4.299-2.952-0.014-3.008,0.318-3.008c0.013,0,0.02,0,0.02,0      c4.938,0.35,7.535,5.094,7.535,5.094c2.456,4.218,5.765,5.399,8.695,5.399c2.315,0,4.395-0.737,5.633-1.296      c0.445-3.193,1.719-5.371,3.125-6.605c-10.928-1.25-22.416-5.484-22.416-24.418c0-5.396,1.914-9.805,5.062-13.264      c-0.508-1.25-2.195-6.271,0.482-13.072c0,0,0.356-0.114,1.098-0.114c1.783,0,5.795,0.663,12.438,5.179      c3.928-1.096,8.135-1.643,12.322-1.664c4.178,0.021,8.389,0.568,12.322,1.664c6.634-4.516,10.642-5.179,12.424-5.179      c0.74,0,1.096,0.114,1.096,0.114c2.686,6.801,0.994,11.822,0.486,13.072c3.156,3.459,5.062,7.867,5.062,13.264      c0,18.979-11.508,23.156-22.475,24.379c1.768,1.525,3.342,4.543,3.342,9.154c0,6.604-0.061,11.93-0.061,13.553      c0,1.151,0.672,2.465,2.493,2.465c0.271,0,0.566-0.029,0.89-0.092c19.543-6.547,33.629-25.053,33.629-46.875      C119.215,42.916,97.178,20.797,69.998,20.797L69.998,20.797z"/></g></g><g><g><path class="st119" d="M44.092,95.35c0.561,0.828,1.154,1.523,1.771,2.094C45.549,96.967,44.953,96.16,44.092,95.35      L44.092,95.35z"/></g></g></g></g></svg>