<?xml version="1.0" ?><!DOCTYPE svg  PUBLIC '-//W3C//DTD SVG 1.1//EN'  'http://www.w3.org/Graphics/SVG/1.1/DTD/svg11.dtd'><svg height="140px" id="Layer_1" style="enable-background:new 0 0 140 140;" version="1.1" viewBox="0 0 140 140" width="140px" xml:space="preserve" xmlns="http://www.w3.org/2000/svg" xmlns:xlink="http://www.w3.org/1999/xlink"><style type="text/css">
<![CDATA[
	.st0{fill:#47BBF4;}
	.st1{fill:#7BEA06;}
	.st2{fill:#49E500;}
	.st3{fill:#7ED1B5;}
	.st4{fill:#1083DD;}
	.st5{fill:#7FBA0D;}
	.st6{fill:#E01726;}
	.st7{fill:#129AFF;}
	.st8{fill:#E2102E;}
	.st9{fill:#E2137A;}
	.st10{fill:#E2573B;}
	.st11{fill:#E2A60E;}
	.st12{fill:#E3443A;}
	.st13{fill:#1558BA;}
	.st14{fill:#159B81;}
	.st15{fill:#1644B7;}
	.st16{fill:#168BF4;}
	.st17{fill:#E51F32;}
	.st18{fill:#E6EFE8;}
	.st19{fill:#187FB8;}
	.st20{fill:#4C5054;}
	.st21{fill:#4C822A;}
	.st22{fill:#E8F9F8;}
	.st23{fill:#4F5459;}
	.st24{fill:#4FCCED;}
	.st25{fill:#B0C6C4;}
	.st26{fill:none;stroke:#33363A;stroke-width:3;stroke-linecap:round;stroke-linejoin:round;stroke-miterlimit:10;}
	.st27{fill:#859392;}
	.st28{fill:#1A68E5;}
	.st29{fill:#1A70F9;}
	.st30{fill:#1B8EED;}
	.st31{fill:#EA4606;}
	.st32{fill:#EA7B0C;}
	.st33{fill:#EAF4F9;}
	.st34{fill:#B70E10;}
	.st35{fill:#1CB1E6;}
	.st36{fill:#1CDDF7;}
	.st37{fill:#EDC211;}
	.st38{fill:#EF8114;}
	.st39{fill:#55932C;}
	.st40{fill:#569FEF;}
	.st41{fill:#BA30CE;}
	.st42{fill:#BA3A3A;}
	.st43{fill:#8CF41E;}
	.st44{fill:#59C96E;}
	.st45{fill:#8E0919;}
	.st46{fill:#20B5EC;}
	.st47{fill:#21CE52;}
	.st48{fill:#21D844;}
	.st49{fill:#F17250;}
	.st50{fill:#2364CE;}
	.st51{fill:#F2303F;}
	.st52{fill:#F24444;}
	.st53{fill:#F26B95;}
	.st54{fill:#F2A775;}
	.st55{fill:#2463FF;}
	.st56{fill:#24A9E6;}
	.st57{fill:#24AEF0;}
	.st58{fill:#F34B78;}
	.st59{fill:#25D600;}
	.st60{fill:#25D800;}
	.st61{fill:#F46300;}
	.st62{fill:#F4921E;}
	.st63{fill:#F4F1E6;}
	.st64{fill:#F72B2B;}
	.st65{fill:#F7441C;}
	.st66{fill:#F7851E;}
	.st67{fill:#5CAA4F;}
	.st68{fill:#F7A56D;}
	.st69{fill:#F7B257;}
	.st70{fill:#F7B92B;}
	.st71{fill:#F8571D;}
	.st72{fill:#F91D80;}
	.st73{fill:#F92E64;}
	.st74{fill:#F93838;}
	.st75{fill:#F9A121;}
	.st76{fill:#F9BD28;}
	.st77{fill:#F9D5AA;}
	.st78{fill:#5FB2A2;}
	.st79{fill:#9165B7;}
	.st80{fill:#95C675;}
	.st81{fill:#2A98F2;}
	.st82{fill:#2AC106;}
	.st83{fill:#C6232C;}
	.st84{fill:#C6402A;}
	.st85{fill:#FA7B7A;}
	.st86{fill:#FA9826;}
	.st87{fill:#2CC64D;}
	.st88{fill:#FB6620;}
	.st89{fill:#C7D5E0;}
	.st90{fill:#C8131A;}
	.st91{fill:#2DB487;}
	.st92{fill:#FC732D;}
	.st93{fill:#C8D8E8;}
	.st94{fill:#2ED3FF;}
	.st95{fill:#FF0DA9;}
	.st96{fill:#FF4743;}
	.st97{fill:#FF6155;}
	.st98{fill:#FF7639;}
	.st99{fill:#FF7676;}
	.st100{fill:#FF88AD;}
	.st101{fill:#FF9064;}
	.st102{fill:#FFA506;}
	.st103{fill:#FFBE8D;}
	.st104{fill:#FFEB5A;}
	.st105{fill:#FFF19C;}
	.st106{fill:#FFFDF5;}
	.st107{fill:#FFFFFF;}
	.st108{fill:#63C605;}
	.st109{fill:#64C0FF;}
	.st110{fill:#66A00A;}
	.st111{fill:#CAFFE9;}
	.st112{fill:#680719;}
	.st113{fill:none;stroke:#FCE2AE;stroke-width:3;stroke-linecap:round;stroke-linejoin:round;stroke-miterlimit:10;}
	.st114{fill:#CC2414;}
	.st115{fill:#CC4521;}
	.st116{fill:#9DEACE;}
	.st117{fill:#303030;}
	.st118{fill:#CE1721;}
	.st119{fill:#33363A;}
	.st120{fill:#337BD1;}
	.st121{fill:#6A7C7C;}
	.st122{fill:#37D660;}
	.st123{fill:#384948;}
	.st124{fill:#38B4F9;}
	.st125{fill:#6CA9EA;}
	.st126{fill:#6D8599;}
	.st127{fill:#0097E2;}
	.st128{fill:#00997C;}
	.st129{fill:#00A4DD;}
	.st130{fill:#0399FF;}
	.st131{fill:#D33F26;}
	.st132{fill:#0695ED;}
	.st133{fill:#0779EA;}
	.st134{fill:#079332;}
	.st135{fill:#D6381E;}
	.st136{fill:#3BAA00;}
	.st137{fill:#D6E5EA;}
	.st138{fill:#D6E7EA;}
	.st139{fill:#08A548;}
	.st140{fill:#08BC26;}
	.st141{fill:#D80B0B;}
	.st142{fill:#D8532B;}
	.st143{fill:#3DC8F9;}
	.st144{fill:#3E77BF;}
	.st145{fill:#3E8AF7;}
	.st146{fill:#D9E5ED;}
	.st147{fill:#72818E;}
	.st148{fill:#0A78DD;}
	.st149{fill:#0A8CDD;}
	.st150{fill:#A52D21;}
	.st151{fill:#76CEFF;}
	.st152{fill:#76DB00;}
	.st153{fill:#0C86EA;}
	.st154{fill:#DB0F4E;}
	.st155{fill:#A7B7B6;}
	.st156{fill:#0DBA5B;}
	.st157{fill:#79B259;}
	.st158{fill:#0E73D8;}
	.st159{fill:#0E78D8;}
	.st160{fill:#0E8971;}
	.st161{fill:#A981D3;}
	.st162{fill:#DD4B4B;}
	.st163{fill:#4087ED;}
	.st164{fill:#40A557;}
	.st165{fill:#40E269;}
	.st166{fill:#DFC7FF;}
	.st167{fill:#DFEFEF;}
	.st168{fill:#44FCB6;}
]]>
</style><g><g><path class="st64" d="M62.295,59.083v21.837c0,0,21.147-0.028,29.756-0.028c-4.662,14.155-11.91,21.865-29.756,21.865    c-18.061,0-32.151-14.666-32.151-32.758c0-18.09,14.091-32.756,32.151-32.756c9.548,0,15.714,3.362,21.37,8.045    c4.527-4.534,4.149-5.18,15.666-16.076c-9.776-8.916-22.771-14.353-37.036-14.353C31.897,14.861,7.253,39.547,7.253,70    s24.644,55.139,55.042,55.139c45.438,0,56.542-39.632,52.86-66.056H62.295z"/><path class="st141" d="M7.399,73.802c1.951,28.677,25.775,51.337,54.896,51.337c38.19,0,52.125-27.998,53.412-52.619    c-0.104-1.998-0.29-3.95-0.552-5.833h-52.86v14.233c0,0,21.147-0.028,29.756-0.028c-0.919,2.79-1.94,5.326-3.123,7.605    c1.153-0.001,2.212-0.001,3.123-0.001c-4.662,14.155-11.91,21.865-29.756,21.865c-18.061,0-32.151-14.666-32.151-32.758    c0-1.287,0.08-2.554,0.219-3.802c-0.139-1.248-0.219-2.515-0.219-3.802c0-18.09,14.091-32.756,32.151-32.756    c9.548,0,15.714,3.362,21.37,8.045c3.876-3.883,4.163-4.92,11.396-11.979c-9.154-6.809-20.486-10.845-32.767-10.845    C33.174,22.465,9.35,45.125,7.399,73.802z"/><path class="st26" d="M62.295,59.083v21.837c0,0,21.147-0.028,29.756-0.028c-4.662,14.155-11.91,21.865-29.756,21.865    c-18.061,0-32.151-14.666-32.151-32.758c0-18.09,14.091-32.756,32.151-32.756c9.548,0,15.714,3.362,21.37,8.045    c4.527-4.534,4.149-5.18,15.666-16.076c-9.776-8.916-22.771-14.353-37.036-14.353C31.897,14.861,7.253,39.547,7.253,70    s24.644,55.139,55.042,55.139c45.438,0,56.542-39.632,52.86-66.056H62.295z"/><g><polygon class="st20" points="122.132,36.336 122.132,25.703 114.55,25.703 114.55,36.336 103.632,36.336 103.632,43.933      114.55,43.933 114.55,54.87 122.132,54.87 122.132,43.933 132.747,43.933 132.747,36.336    "/><polygon class="st119" points="122.132,36.336 122.132,32.178 114.55,32.178 114.55,36.336 114.55,42.812 103.632,42.812      103.632,43.933 114.55,43.933 114.55,50.408 114.55,54.87 122.132,54.87 122.132,50.408 122.132,43.933 132.747,43.933      132.747,42.812 122.132,42.812    "/><polygon class="st26" points="122.132,36.336 122.132,25.703 114.55,25.703 114.55,36.336 103.632,36.336 103.632,43.933      114.55,43.933 114.55,54.87 122.132,54.87 122.132,43.933 132.747,43.933 132.747,36.336    "/></g><path class="st26" d="M72.469,80.921c0,0,21.147-0.028,29.756-0.028"/></g><g><line class="st26" x1="75.038" x2="78.038" y1="69.809" y2="69.809"/><line class="st26" x1="87.186" x2="90.186" y1="69.809" y2="69.809"/><line class="st26" x1="99.334" x2="102.334" y1="69.809" y2="69.809"/></g></g></svg>