<?xml version="1.0" ?><!DOCTYPE svg  PUBLIC '-//W3C//DTD SVG 1.1//EN'  'http://www.w3.org/Graphics/SVG/1.1/DTD/svg11.dtd'><svg height="140px" id="Layer_1" style="enable-background:new 0 0 140 140;" version="1.1" viewBox="0 0 140 140" width="140px" xml:space="preserve" xmlns="http://www.w3.org/2000/svg" xmlns:xlink="http://www.w3.org/1999/xlink"><style type="text/css">
<![CDATA[
	.st0{fill:#47BBF4;}
	.st1{fill:#7BEA06;}
	.st2{fill:#49E500;}
	.st3{fill:#7ED1B5;}
	.st4{fill:#1083DD;}
	.st5{fill:#7FBA0D;}
	.st6{fill:#E01726;}
	.st7{fill:#129AFF;}
	.st8{fill:#E2102E;}
	.st9{fill:#E2137A;}
	.st10{fill:#E2573B;}
	.st11{fill:#E2A60E;}
	.st12{fill:#E3443A;}
	.st13{fill:#1558BA;}
	.st14{fill:#159B81;}
	.st15{fill:#1644B7;}
	.st16{fill:#168BF4;}
	.st17{fill:#E51F32;}
	.st18{fill:#E6EFE8;}
	.st19{fill:#187FB8;}
	.st20{fill:#4C5054;}
	.st21{fill:#4C822A;}
	.st22{fill:#E8F9F8;}
	.st23{fill:#4F5459;}
	.st24{fill:#4FCCED;}
	.st25{fill:#B0C6C4;}
	.st26{fill:none;stroke:#33363A;stroke-width:3;stroke-linecap:round;stroke-linejoin:round;stroke-miterlimit:10;}
	.st27{fill:#859392;}
	.st28{fill:#1A68E5;}
	.st29{fill:#1A70F9;}
	.st30{fill:#1B8EED;}
	.st31{fill:#EA4606;}
	.st32{fill:#EA7B0C;}
	.st33{fill:#EAF4F9;}
	.st34{fill:#B70E10;}
	.st35{fill:#1CB1E6;}
	.st36{fill:#1CDDF7;}
	.st37{fill:#EDC211;}
	.st38{fill:#EF8114;}
	.st39{fill:#55932C;}
	.st40{fill:#569FEF;}
	.st41{fill:#BA30CE;}
	.st42{fill:#BA3A3A;}
	.st43{fill:#8CF41E;}
	.st44{fill:#59C96E;}
	.st45{fill:#8E0919;}
	.st46{fill:#20B5EC;}
	.st47{fill:#21CE52;}
	.st48{fill:#21D844;}
	.st49{fill:#F17250;}
	.st50{fill:#2364CE;}
	.st51{fill:#F2303F;}
	.st52{fill:#F24444;}
	.st53{fill:#F26B95;}
	.st54{fill:#F2A775;}
	.st55{fill:#2463FF;}
	.st56{fill:#24A9E6;}
	.st57{fill:#24AEF0;}
	.st58{fill:#F34B78;}
	.st59{fill:#25D600;}
	.st60{fill:#25D800;}
	.st61{fill:#F46300;}
	.st62{fill:#F4921E;}
	.st63{fill:#F4F1E6;}
	.st64{fill:#F72B2B;}
	.st65{fill:#F7441C;}
	.st66{fill:#F7851E;}
	.st67{fill:#5CAA4F;}
	.st68{fill:#F7A56D;}
	.st69{fill:#F7B257;}
	.st70{fill:#F7B92B;}
	.st71{fill:#F8571D;}
	.st72{fill:#F91D80;}
	.st73{fill:#F92E64;}
	.st74{fill:#F93838;}
	.st75{fill:#F9A121;}
	.st76{fill:#F9BD28;}
	.st77{fill:#F9D5AA;}
	.st78{fill:#5FB2A2;}
	.st79{fill:#9165B7;}
	.st80{fill:#95C675;}
	.st81{fill:#2A98F2;}
	.st82{fill:#2AC106;}
	.st83{fill:#C6232C;}
	.st84{fill:#C6402A;}
	.st85{fill:#FA7B7A;}
	.st86{fill:#FA9826;}
	.st87{fill:#2CC64D;}
	.st88{fill:#FB6620;}
	.st89{fill:#C7D5E0;}
	.st90{fill:#C8131A;}
	.st91{fill:#2DB487;}
	.st92{fill:#FC732D;}
	.st93{fill:#C8D8E8;}
	.st94{fill:#2ED3FF;}
	.st95{fill:#FF0DA9;}
	.st96{fill:#FF4743;}
	.st97{fill:#FF6155;}
	.st98{fill:#FF7639;}
	.st99{fill:#FF7676;}
	.st100{fill:#FF88AD;}
	.st101{fill:#FF9064;}
	.st102{fill:#FFA506;}
	.st103{fill:#FFBE8D;}
	.st104{fill:#FFEB5A;}
	.st105{fill:#FFF19C;}
	.st106{fill:#FFFDF5;}
	.st107{fill:#FFFFFF;}
	.st108{fill:#63C605;}
	.st109{fill:#64C0FF;}
	.st110{fill:#66A00A;}
	.st111{fill:#CAFFE9;}
	.st112{fill:#680719;}
	.st113{fill:none;stroke:#FCE2AE;stroke-width:3;stroke-linecap:round;stroke-linejoin:round;stroke-miterlimit:10;}
	.st114{fill:#CC2414;}
	.st115{fill:#CC4521;}
	.st116{fill:#9DEACE;}
	.st117{fill:#303030;}
	.st118{fill:#CE1721;}
	.st119{fill:#33363A;}
	.st120{fill:#337BD1;}
	.st121{fill:#6A7C7C;}
	.st122{fill:#37D660;}
	.st123{fill:#384948;}
	.st124{fill:#38B4F9;}
	.st125{fill:#6CA9EA;}
	.st126{fill:#6D8599;}
	.st127{fill:#0097E2;}
	.st128{fill:#00997C;}
	.st129{fill:#00A4DD;}
	.st130{fill:#0399FF;}
	.st131{fill:#D33F26;}
	.st132{fill:#0695ED;}
	.st133{fill:#0779EA;}
	.st134{fill:#079332;}
	.st135{fill:#D6381E;}
	.st136{fill:#3BAA00;}
	.st137{fill:#D6E5EA;}
	.st138{fill:#D6E7EA;}
	.st139{fill:#08A548;}
	.st140{fill:#08BC26;}
	.st141{fill:#D80B0B;}
	.st142{fill:#D8532B;}
	.st143{fill:#3DC8F9;}
	.st144{fill:#3E77BF;}
	.st145{fill:#3E8AF7;}
	.st146{fill:#D9E5ED;}
	.st147{fill:#72818E;}
	.st148{fill:#0A78DD;}
	.st149{fill:#0A8CDD;}
	.st150{fill:#A52D21;}
	.st151{fill:#76CEFF;}
	.st152{fill:#76DB00;}
	.st153{fill:#0C86EA;}
	.st154{fill:#DB0F4E;}
	.st155{fill:#A7B7B6;}
	.st156{fill:#0DBA5B;}
	.st157{fill:#79B259;}
	.st158{fill:#0E73D8;}
	.st159{fill:#0E78D8;}
	.st160{fill:#0E8971;}
	.st161{fill:#A981D3;}
	.st162{fill:#DD4B4B;}
	.st163{fill:#4087ED;}
	.st164{fill:#40A557;}
	.st165{fill:#40E269;}
	.st166{fill:#DFC7FF;}
	.st167{fill:#DFEFEF;}
	.st168{fill:#44FCB6;}
]]>
</style><g><g><path class="st83" d="M70.002,8.174c-34.138,0-61.83,27.677-61.83,61.83c0,25.306,15.229,47.062,37.02,56.624    c-0.175-4.309-0.031-9.503,1.066-14.202c1.194-5.015,7.955-33.681,7.955-33.681s-1.976-3.953-1.976-9.788    c0-9.164,5.32-16.002,11.929-16.002c5.621,0,8.339,4.218,8.339,9.284c0,5.647-3.608,14.104-5.46,21.932    c-1.546,6.569,3.289,11.912,9.761,11.912c11.714,0,19.6-15.045,19.6-32.867c0-13.55-9.124-23.689-25.724-23.689    c-18.753,0-30.436,13.979-30.436,29.595c0,5.398,1.582,9.19,4.071,12.128c1.147,1.359,1.304,1.898,0.887,3.453    c-0.29,1.133-0.978,3.879-1.259,4.96c-0.413,1.562-1.679,2.133-3.089,1.551C32.212,87.686,28.193,78.23,28.193,67.59    c0-17.561,14.808-38.629,44.184-38.629c23.607,0,39.146,17.092,39.146,35.422c0,24.255-13.484,42.375-33.368,42.375    c-6.668,0-12.944-3.609-15.101-7.698c0,0-3.593,14.24-4.347,16.991c-1.309,4.761-3.875,9.529-6.224,13.24    c5.559,1.645,11.437,2.535,17.519,2.535c34.146,0,61.826-27.681,61.826-61.822C131.828,35.851,104.147,8.174,70.002,8.174z" id="Pinterest"/><g><path class="st112" d="M69.066,54.431l-0.201-0.201l-0.051,0.049C68.896,54.333,68.988,54.375,69.066,54.431z"/></g><g><path class="st8" d="M12.421,74.253c0-34.152,27.693-61.829,61.831-61.829c15.99,0,30.563,6.071,41.539,16.033     C104.479,15.997,88.157,8.174,70.002,8.174c-34.138,0-61.83,27.677-61.83,61.83c0,18.015,7.742,34.202,20.049,45.5     C18.399,104.563,12.421,90.105,12.421,74.253z"/></g></g><path class="st26" d="M113.646,26.211c-0.149-0.149-0.308-0.29-0.459-0.438c-0.58-0.566-1.165-1.127-1.766-1.671   c-0.249-0.224-0.509-0.438-0.761-0.658c-0.518-0.453-1.035-0.904-1.567-1.339c-0.298-0.243-0.606-0.475-0.908-0.713   c-0.501-0.395-1.002-0.788-1.517-1.166c-0.332-0.247-0.674-0.481-1.012-0.721c-0.498-0.353-0.996-0.703-1.505-1.041   c-0.359-0.239-0.726-0.468-1.091-0.699c-0.502-0.318-1.005-0.634-1.517-0.938c-0.382-0.227-0.769-0.446-1.157-0.666   c-0.508-0.287-1.019-0.57-1.535-0.844c-0.401-0.211-0.807-0.417-1.213-0.621c-0.516-0.258-1.037-0.511-1.561-0.756   c-0.418-0.194-0.838-0.384-1.261-0.569c-0.527-0.231-1.059-0.455-1.594-0.672c-0.431-0.175-0.862-0.347-1.297-0.512   c-0.54-0.205-1.085-0.398-1.632-0.589c-0.441-0.154-0.883-0.307-1.329-0.45c-0.555-0.178-1.112-0.343-1.673-0.507   c-0.449-0.13-0.897-0.262-1.35-0.383c-0.573-0.152-1.15-0.288-1.729-0.425c-0.451-0.105-0.901-0.216-1.355-0.312   c-0.596-0.126-1.199-0.233-1.801-0.343c-0.447-0.08-0.89-0.168-1.339-0.239c-0.635-0.1-1.276-0.178-1.917-0.259   c-0.426-0.054-0.848-0.117-1.274-0.162c-0.715-0.075-1.437-0.124-2.157-0.174c-0.362-0.025-0.721-0.063-1.084-0.083   c-1.088-0.057-2.183-0.088-3.285-0.088c-34.138,0-61.83,27.677-61.83,61.83c0,1.007,0.032,2.006,0.08,3.001   c0.013,0.264,0.028,0.525,0.045,0.788c0.051,0.852,0.119,1.699,0.204,2.541c0.017,0.148,0.026,0.298,0.042,0.445   c0.11,1.001,0.246,1.994,0.402,2.98c0.025,0.158,0.055,0.315,0.08,0.473c0.149,0.894,0.317,1.782,0.505,2.662   c0.024,0.118,0.048,0.237,0.073,0.354c0.453,2.068,1.01,4.096,1.664,6.081c0.002,0.005,0.004,0.011,0.005,0.016   c5.508,16.709,17.946,30.274,33.919,37.283c-0.175-4.309-0.031-9.503,1.066-14.202c1.194-5.015,7.955-33.681,7.955-33.681   s-1.976-3.953-1.976-9.788c0-9.164,5.32-16.002,11.929-16.002c1.883,0,3.433,0.481,4.671,1.302l-0.022,0.021   c0.082,0.055,0.174,0.096,0.252,0.152l-0.053-0.054c2.34,1.653,3.491,4.575,3.491,7.863c0,5.647-3.608,14.104-5.46,21.932   c-1.546,6.569,3.289,11.912,9.761,11.912c11.714,0,19.6-15.045,19.6-32.867c0-13.55-9.124-23.689-25.724-23.689   c-18.753,0-30.436,13.979-30.436,29.595c0,5.398,1.582,9.19,4.071,12.128c1.147,1.359,1.304,1.898,0.887,3.453   c-0.29,1.133-0.978,3.879-1.259,4.96c-0.413,1.562-1.679,2.133-3.089,1.551C32.212,87.686,28.193,78.23,28.193,67.59   c0-17.561,14.808-38.629,44.184-38.629c23.607,0,39.146,17.092,39.146,35.422c0,24.255-13.484,42.375-33.368,42.375   c-6.668,0-12.944-3.609-15.101-7.698c0,0-3.593,14.24-4.347,16.991c-1.309,4.761-3.875,9.529-6.224,13.24   c5.559,1.645,11.437,2.535,17.519,2.535c34.146,0,61.826-27.681,61.826-61.822C131.828,52.891,124.876,37.405,113.646,26.211z"/></g></svg>