<?xml version="1.0" ?><!DOCTYPE svg  PUBLIC '-//W3C//DTD SVG 1.1//EN'  'http://www.w3.org/Graphics/SVG/1.1/DTD/svg11.dtd'><svg height="140px" id="Layer_1" style="enable-background:new 0 0 140 140;" version="1.1" viewBox="0 0 140 140" width="140px" xml:space="preserve" xmlns="http://www.w3.org/2000/svg" xmlns:xlink="http://www.w3.org/1999/xlink"><style type="text/css">
<![CDATA[
	.st0{fill:#47BBF4;}
	.st1{fill:#7BEA06;}
	.st2{fill:#49E500;}
	.st3{fill:#7ED1B5;}
	.st4{fill:#1083DD;}
	.st5{fill:#7FBA0D;}
	.st6{fill:#E01726;}
	.st7{fill:#129AFF;}
	.st8{fill:#E2102E;}
	.st9{fill:#E2137A;}
	.st10{fill:#E2573B;}
	.st11{fill:#E2A60E;}
	.st12{fill:#E3443A;}
	.st13{fill:#1558BA;}
	.st14{fill:#159B81;}
	.st15{fill:#1644B7;}
	.st16{fill:#168BF4;}
	.st17{fill:#E51F32;}
	.st18{fill:#E6EFE8;}
	.st19{fill:#187FB8;}
	.st20{fill:#4C5054;}
	.st21{fill:#4C822A;}
	.st22{fill:#E8F9F8;}
	.st23{fill:#4F5459;}
	.st24{fill:#4FCCED;}
	.st25{fill:#B0C6C4;}
	.st26{fill:none;stroke:#33363A;stroke-width:3;stroke-linecap:round;stroke-linejoin:round;stroke-miterlimit:10;}
	.st27{fill:#859392;}
	.st28{fill:#1A68E5;}
	.st29{fill:#1A70F9;}
	.st30{fill:#1B8EED;}
	.st31{fill:#EA4606;}
	.st32{fill:#EA7B0C;}
	.st33{fill:#EAF4F9;}
	.st34{fill:#B70E10;}
	.st35{fill:#1CB1E6;}
	.st36{fill:#1CDDF7;}
	.st37{fill:#EDC211;}
	.st38{fill:#EF8114;}
	.st39{fill:#55932C;}
	.st40{fill:#569FEF;}
	.st41{fill:#BA30CE;}
	.st42{fill:#BA3A3A;}
	.st43{fill:#8CF41E;}
	.st44{fill:#59C96E;}
	.st45{fill:#8E0919;}
	.st46{fill:#20B5EC;}
	.st47{fill:#21CE52;}
	.st48{fill:#21D844;}
	.st49{fill:#F17250;}
	.st50{fill:#2364CE;}
	.st51{fill:#F2303F;}
	.st52{fill:#F24444;}
	.st53{fill:#F26B95;}
	.st54{fill:#F2A775;}
	.st55{fill:#2463FF;}
	.st56{fill:#24A9E6;}
	.st57{fill:#24AEF0;}
	.st58{fill:#F34B78;}
	.st59{fill:#25D600;}
	.st60{fill:#25D800;}
	.st61{fill:#F46300;}
	.st62{fill:#F4921E;}
	.st63{fill:#F4F1E6;}
	.st64{fill:#F72B2B;}
	.st65{fill:#F7441C;}
	.st66{fill:#F7851E;}
	.st67{fill:#5CAA4F;}
	.st68{fill:#F7A56D;}
	.st69{fill:#F7B257;}
	.st70{fill:#F7B92B;}
	.st71{fill:#F8571D;}
	.st72{fill:#F91D80;}
	.st73{fill:#F92E64;}
	.st74{fill:#F93838;}
	.st75{fill:#F9A121;}
	.st76{fill:#F9BD28;}
	.st77{fill:#F9D5AA;}
	.st78{fill:#5FB2A2;}
	.st79{fill:#9165B7;}
	.st80{fill:#95C675;}
	.st81{fill:#2A98F2;}
	.st82{fill:#2AC106;}
	.st83{fill:#C6232C;}
	.st84{fill:#C6402A;}
	.st85{fill:#FA7B7A;}
	.st86{fill:#FA9826;}
	.st87{fill:#2CC64D;}
	.st88{fill:#FB6620;}
	.st89{fill:#C7D5E0;}
	.st90{fill:#C8131A;}
	.st91{fill:#2DB487;}
	.st92{fill:#FC732D;}
	.st93{fill:#C8D8E8;}
	.st94{fill:#2ED3FF;}
	.st95{fill:#FF0DA9;}
	.st96{fill:#FF4743;}
	.st97{fill:#FF6155;}
	.st98{fill:#FF7639;}
	.st99{fill:#FF7676;}
	.st100{fill:#FF88AD;}
	.st101{fill:#FF9064;}
	.st102{fill:#FFA506;}
	.st103{fill:#FFBE8D;}
	.st104{fill:#FFEB5A;}
	.st105{fill:#FFF19C;}
	.st106{fill:#FFFDF5;}
	.st107{fill:#FFFFFF;}
	.st108{fill:#63C605;}
	.st109{fill:#64C0FF;}
	.st110{fill:#66A00A;}
	.st111{fill:#CAFFE9;}
	.st112{fill:#680719;}
	.st113{fill:none;stroke:#FCE2AE;stroke-width:3;stroke-linecap:round;stroke-linejoin:round;stroke-miterlimit:10;}
	.st114{fill:#CC2414;}
	.st115{fill:#CC4521;}
	.st116{fill:#9DEACE;}
	.st117{fill:#303030;}
	.st118{fill:#CE1721;}
	.st119{fill:#33363A;}
	.st120{fill:#337BD1;}
	.st121{fill:#6A7C7C;}
	.st122{fill:#37D660;}
	.st123{fill:#384948;}
	.st124{fill:#38B4F9;}
	.st125{fill:#6CA9EA;}
	.st126{fill:#6D8599;}
	.st127{fill:#0097E2;}
	.st128{fill:#00997C;}
	.st129{fill:#00A4DD;}
	.st130{fill:#0399FF;}
	.st131{fill:#D33F26;}
	.st132{fill:#0695ED;}
	.st133{fill:#0779EA;}
	.st134{fill:#079332;}
	.st135{fill:#D6381E;}
	.st136{fill:#3BAA00;}
	.st137{fill:#D6E5EA;}
	.st138{fill:#D6E7EA;}
	.st139{fill:#08A548;}
	.st140{fill:#08BC26;}
	.st141{fill:#D80B0B;}
	.st142{fill:#D8532B;}
	.st143{fill:#3DC8F9;}
	.st144{fill:#3E77BF;}
	.st145{fill:#3E8AF7;}
	.st146{fill:#D9E5ED;}
	.st147{fill:#72818E;}
	.st148{fill:#0A78DD;}
	.st149{fill:#0A8CDD;}
	.st150{fill:#A52D21;}
	.st151{fill:#76CEFF;}
	.st152{fill:#76DB00;}
	.st153{fill:#0C86EA;}
	.st154{fill:#DB0F4E;}
	.st155{fill:#A7B7B6;}
	.st156{fill:#0DBA5B;}
	.st157{fill:#79B259;}
	.st158{fill:#0E73D8;}
	.st159{fill:#0E78D8;}
	.st160{fill:#0E8971;}
	.st161{fill:#A981D3;}
	.st162{fill:#DD4B4B;}
	.st163{fill:#4087ED;}
	.st164{fill:#40A557;}
	.st165{fill:#40E269;}
	.st166{fill:#DFC7FF;}
	.st167{fill:#DFEFEF;}
	.st168{fill:#44FCB6;}
]]>
</style><g><path class="st104" d="M130.135,102.061c-16.734-2.75-24.272-19.898-24.582-20.624   c-0.023-0.05-0.048-0.098-0.072-0.145c-0.854-1.73-1.049-3.161-0.588-4.252c0.914-2.146,4.421-3.255,6.735-3.99   c0.676-0.21,1.308-0.412,1.837-0.616c2.281-0.901,3.915-1.877,4.992-2.986c1.289-1.319,1.536-2.585,1.52-3.413   c-0.04-2.003-1.574-3.785-4.02-4.657c-0.822-0.343-1.77-0.52-2.723-0.52c-0.653,0-1.619,0.089-2.533,0.516   c-1.96,0.913-3.717,1.411-5.221,1.484c-0.794-0.042-1.358-0.217-1.725-0.38c0.043-0.783,0.095-1.584,0.151-2.421l0.019-0.357   c0.537-8.472,1.205-19.016-1.598-25.278c-1.916-4.285-4.487-7.971-7.652-10.962c-2.656-2.507-5.737-4.535-9.164-6.038   c-5.964-2.608-11.526-2.998-14.309-2.998h-0.004c-0.111,0-0.211,0-0.307,0.003c-0.771,0.006-2.039,0.019-2.15,0.019   c-2.778,0-8.346,0.392-14.316,3.022c-3.411,1.5-6.484,3.532-9.128,6.037c-3.149,2.982-5.719,6.659-7.626,10.929   c-2.799,6.258-2.135,16.794-1.602,25.262v0.011c0.06,0.904,0.118,1.853,0.174,2.775c-0.413,0.187-1.073,0.385-2.055,0.385   c-1.58,0-3.455-0.502-5.578-1.494c-0.624-0.291-1.341-0.435-2.123-0.435c-1.262,0-2.592,0.37-3.749,1.046   c-1.456,0.852-2.394,2.053-2.648,3.387c-0.167,0.881-0.159,2.628,1.781,4.393c1.069,0.97,2.64,1.867,4.664,2.668   c0.532,0.204,1.16,0.407,1.833,0.616c2.313,0.735,5.824,1.845,6.738,3.994c0.465,1.087,0.267,2.518-0.588,4.25   c-0.024,0.05-0.049,0.096-0.068,0.144c-0.215,0.497-2.207,5.004-6.302,9.757c-2.321,2.698-4.882,4.959-7.605,6.708   c-3.319,2.144-6.913,3.543-10.682,4.161c-1.479,0.241-2.533,1.557-2.45,3.05c0.021,0.427,0.127,0.856,0.299,1.272l0.004,0.01   c0.601,1.392,1.988,2.576,4.238,3.623c2.759,1.274,6.873,2.348,12.244,3.191c0.271,0.511,0.554,1.805,0.748,2.689   c0.203,0.94,0.418,1.906,0.721,2.934c0.325,1.113,1.177,2.443,3.354,2.443c0.827,0,1.781-0.183,2.879-0.398   c1.609-0.316,3.816-0.748,6.567-0.748c1.521,0,3.109,0.135,4.699,0.399c3.069,0.507,5.709,2.371,8.771,4.529   c4.48,3.159,9.546,6.729,17.294,6.729c0.211,0,0.423-0.004,0.632-0.022c0.255,0.012,0.573,0.022,0.907,0.022   c7.748,0,12.817-3.574,17.29-6.729l0.008-0.006c3.058-2.154,5.702-4.015,8.767-4.522c1.59-0.264,3.173-0.399,4.7-0.399   c2.627,0,4.707,0.334,6.567,0.696c1.212,0.238,2.154,0.353,2.878,0.353h0.072h0.071c1.594,0,2.767-0.873,3.216-2.401   c0.294-1.006,0.509-1.952,0.716-2.906c0.183-0.827,0.474-2.155,0.744-2.678c5.375-0.841,9.489-1.91,12.248-3.188   c2.247-1.04,3.63-2.224,4.229-3.611c0.185-0.416,0.286-0.848,0.312-1.287C132.671,103.616,131.617,102.304,130.135,102.061z" id="Snapchat"/><path class="st104" d="M130.135,102.061c-16.734-2.75-24.272-19.898-24.582-20.624   c-0.023-0.05-0.048-0.098-0.072-0.145c-0.854-1.73-1.049-3.161-0.588-4.252c0.914-2.146,4.421-3.255,6.735-3.99   c0.676-0.21,1.308-0.412,1.837-0.616c2.281-0.901,3.915-1.877,4.992-2.986c1.289-1.319,1.536-2.585,1.52-3.413   c-0.04-2.003-1.574-3.785-4.02-4.657c-0.822-0.343-1.77-0.52-2.723-0.52c-0.653,0-1.619,0.089-2.533,0.516   c-1.96,0.913-3.717,1.411-5.221,1.484c-0.794-0.042-1.358-0.217-1.725-0.38c0.043-0.783,0.095-1.584,0.151-2.421l0.019-0.357   c0.537-8.472,1.205-19.016-1.598-25.278c-1.916-4.285-4.487-7.971-7.652-10.962c-2.656-2.507-5.737-4.535-9.164-6.038   c-5.964-2.608-11.526-2.998-14.309-2.998h-0.004c-0.111,0-0.211,0-0.307,0.003c-0.771,0.006-2.039,0.019-2.15,0.019   c-2.778,0-8.346,0.392-14.316,3.022c-3.411,1.5-6.484,3.532-9.128,6.037c-3.149,2.982-5.719,6.659-7.626,10.929   c-2.799,6.258-2.135,16.794-1.602,25.262v0.011c0.06,0.904,0.118,1.853,0.174,2.775c-0.413,0.187-1.073,0.385-2.055,0.385   c-1.58,0-3.455-0.502-5.578-1.494c-0.624-0.291-1.341-0.435-2.123-0.435c-1.262,0-2.592,0.37-3.749,1.046   c-1.456,0.852-2.394,2.053-2.648,3.387c-0.167,0.881-0.159,2.628,1.781,4.393c1.069,0.97,2.64,1.867,4.664,2.668   c0.532,0.204,1.16,0.407,1.833,0.616c2.313,0.735,5.824,1.845,6.738,3.994c0.465,1.087,0.267,2.518-0.588,4.25   c-0.024,0.05-0.049,0.096-0.068,0.144c-0.215,0.497-2.207,5.004-6.302,9.757c-2.321,2.698-4.882,4.959-7.605,6.708   c-3.319,2.144-6.913,3.543-10.682,4.161c-1.479,0.241-2.533,1.557-2.45,3.05c0.021,0.427,0.127,0.856,0.299,1.272l0.004,0.01   c0.601,1.392,1.988,2.576,4.238,3.623c2.759,1.274,6.873,2.348,12.244,3.191c0.271,0.511,0.554,1.805,0.748,2.689   c0.203,0.94,0.418,1.906,0.721,2.934c0.325,1.113,1.177,2.443,3.354,2.443c0.827,0,1.781-0.183,2.879-0.398   c1.609-0.316,3.816-0.748,6.567-0.748c1.521,0,3.109,0.135,4.699,0.399c3.069,0.507,5.709,2.371,8.771,4.529   c4.48,3.159,9.546,6.729,17.294,6.729c0.211,0,0.423-0.004,0.632-0.022c0.255,0.012,0.573,0.022,0.907,0.022   c7.748,0,12.817-3.574,17.29-6.729l0.008-0.006c3.058-2.154,5.702-4.015,8.767-4.522c1.59-0.264,3.173-0.399,4.7-0.399   c2.627,0,4.707,0.334,6.567,0.696c1.212,0.238,2.154,0.353,2.878,0.353h0.072h0.071c1.594,0,2.767-0.873,3.216-2.401   c0.294-1.006,0.509-1.952,0.716-2.906c0.183-0.827,0.474-2.155,0.744-2.678c5.375-0.841,9.489-1.91,12.248-3.188   c2.247-1.04,3.63-2.224,4.229-3.611c0.185-0.416,0.286-0.848,0.312-1.287C132.671,103.616,131.617,102.304,130.135,102.061z" id="Snapchat_2_"/><path class="st105" d="M70,14.436c-0.606,0.005-1.185,0.011-1.258,0.011c-2.778,0-8.346,0.392-14.316,3.022   c-3.411,1.5-6.484,3.532-9.128,6.037c-3.149,2.982-5.719,6.659-7.626,10.929c-2.799,6.258-2.135,16.794-1.602,25.262v0.011   c0.06,0.904,0.118,1.853,0.174,2.775c-0.413,0.187-1.073,0.385-2.055,0.385c-1.58,0-3.455-0.502-5.578-1.494   c-0.624-0.291-1.341-0.435-2.123-0.435c-1.262,0-2.592,0.37-3.749,1.046c-1.456,0.852-2.394,2.053-2.648,3.387   c-0.167,0.881-0.159,2.628,1.781,4.393c1.069,0.97,2.64,1.867,4.664,2.668c0.532,0.204,1.16,0.407,1.833,0.616   c2.313,0.735,5.824,1.845,6.738,3.994c0.465,1.087,0.267,2.518-0.588,4.25c-0.024,0.05-0.049,0.096-0.068,0.144   c-0.215,0.497-2.207,5.004-6.302,9.757c-2.321,2.698-4.882,4.959-7.605,6.708c-3.319,2.144-6.913,3.543-10.682,4.161   c-1.479,0.241-2.533,1.557-2.45,3.05c0.021,0.427,0.127,0.856,0.299,1.272l0.004,0.01c0.601,1.392,1.988,2.576,4.238,3.623   c2.759,1.274,6.873,2.348,12.244,3.191c0.271,0.511,0.554,1.805,0.748,2.689c0.203,0.94,0.418,1.906,0.721,2.934   c0.325,1.113,1.177,2.443,3.354,2.443c0.827,0,1.781-0.183,2.879-0.398c1.609-0.316,3.816-0.748,6.567-0.748   c1.521,0,3.109,0.135,4.699,0.399c3.069,0.507,5.709,2.371,8.771,4.529c4.48,3.159,9.546,6.729,17.294,6.729   c0.211,0,0.423-0.004,0.632-0.022c0.041,0.002,0.093,0.003,0.138,0.005V14.436z"/><g><path class="st107" d="M103.926,65.129l-0.019,0.357c-0.057,0.837-0.108,1.638-0.151,2.421c0.366,0.164,0.931,0.339,1.725,0.38    c1.504-0.073,3.261-0.57,5.221-1.484c0.914-0.426,1.88-0.516,2.533-0.516c0.953,0,1.9,0.178,2.723,0.52    c1.29,0.46,2.316,1.178,3.014,2.042c0.837-1.096,1.02-2.113,1.006-2.813c-0.04-2.003-1.574-3.785-4.02-4.657    c-0.822-0.343-1.77-0.52-2.723-0.52c-0.653,0-1.619,0.089-2.533,0.516c-1.96,0.913-3.717,1.411-5.221,1.484    c-0.589-0.031-1.049-0.135-1.398-0.254C104.031,63.461,103.979,64.307,103.926,65.129z"/><path class="st107" d="M7.715,106.396c0.231,0.536,0.582,1.041,1.053,1.52c0.324-0.207,0.691-0.358,1.095-0.424    c3.769-0.618,7.362-2.018,10.682-4.16c2.724-1.75,5.284-4.01,7.605-6.709c4.095-4.753,6.087-9.259,6.302-9.756    c0.02-0.048,0.044-0.093,0.068-0.144c0.854-1.73,1.053-3.162,0.588-4.249c-0.154-0.363-0.388-0.694-0.672-1    c-0.266,0.611-2.255,5.042-6.286,9.722c-2.321,2.698-4.882,4.959-7.605,6.708c-3.319,2.144-6.913,3.543-10.682,4.161    c-1.479,0.241-2.533,1.557-2.45,3.05c0.021,0.427,0.127,0.856,0.299,1.272L7.715,106.396z"/><path class="st107" d="M105.566,81.467c-0.285,0.307-0.519,0.638-0.674,1.001c-0.461,1.091-0.267,2.522,0.588,4.252    c0.024,0.048,0.049,0.095,0.072,0.145c0.31,0.726,7.848,17.873,24.582,20.624c0.402,0.066,0.769,0.216,1.093,0.421    c0.468-0.477,0.818-0.98,1.049-1.515c0.185-0.416,0.286-0.848,0.312-1.287c0.083-1.493-0.971-2.805-2.453-3.047    C113.536,99.333,105.989,82.45,105.566,81.467z"/><path class="st107" d="M22.739,67.415c1.157-0.677,2.487-1.046,3.749-1.046c0.782,0,1.499,0.144,2.123,0.434    c2.123,0.991,3.998,1.494,5.578,1.494c0.981,0,1.642-0.198,2.055-0.385c-0.056-0.923-0.114-1.872-0.174-2.775v-0.012    c-0.053-0.819-0.104-1.662-0.154-2.514c-0.409,0.139-0.971,0.257-1.727,0.257c-1.58,0-3.455-0.502-5.578-1.494    c-0.624-0.291-1.341-0.435-2.123-0.435c-1.262,0-2.592,0.37-3.749,1.046c-1.456,0.852-2.394,2.053-2.648,3.387    c-0.138,0.726-0.138,2.043,0.946,3.471C21.477,68.306,22.048,67.82,22.739,67.415z"/><path class="st107" d="M37.672,39.862c1.907-4.27,4.477-7.946,7.626-10.929c2.644-2.504,5.717-4.536,9.128-6.037    c5.971-2.629,11.538-3.022,14.316-3.022c0.111,0,1.379-0.014,2.15-0.02c0.096-0.002,0.195-0.002,0.307-0.002h0.004    c2.782,0,8.345,0.39,14.309,2.998c3.427,1.502,6.508,3.53,9.164,6.037c3.165,2.991,5.736,6.677,7.652,10.962    c1.352,3.021,1.892,7.039,2.033,11.339c0.174-6.237-0.122-12.497-2.033-16.767c-1.916-4.285-4.487-7.971-7.652-10.962    c-2.656-2.507-5.737-4.535-9.164-6.038c-5.964-2.608-11.526-2.998-14.309-2.998h-0.004c-0.111,0-0.211,0-0.307,0.003    c-0.771,0.006-2.039,0.019-2.15,0.019c-2.778,0-8.346,0.392-14.316,3.022c-3.411,1.5-6.484,3.532-9.128,6.037    c-3.149,2.982-5.719,6.659-7.626,10.929c-1.911,4.273-2.207,10.541-2.033,16.782C35.779,46.912,36.319,42.887,37.672,39.862z"/></g><path class="st26" d="M130.135,102.061c-16.734-2.75-24.272-19.898-24.582-20.624   c-0.023-0.05-0.048-0.098-0.072-0.145c-0.854-1.73-1.049-3.161-0.588-4.252c0.914-2.146,4.421-3.255,6.735-3.99   c0.676-0.21,1.308-0.412,1.837-0.616c2.281-0.901,3.915-1.877,4.992-2.986c1.289-1.319,1.536-2.585,1.52-3.413   c-0.04-2.003-1.574-3.785-4.02-4.657c-0.822-0.343-1.77-0.52-2.723-0.52c-0.653,0-1.619,0.089-2.533,0.516   c-1.96,0.913-3.717,1.411-5.221,1.484c-0.794-0.042-1.358-0.217-1.725-0.38c0.043-0.783,0.095-1.584,0.151-2.421l0.019-0.357   c0.537-8.472,1.205-19.016-1.598-25.278c-1.916-4.285-4.487-7.971-7.652-10.962c-2.656-2.507-5.737-4.535-9.164-6.038   c-5.964-2.608-11.526-2.998-14.309-2.998h-0.004c-0.111,0-0.211,0-0.307,0.003c-0.771,0.006-2.039,0.019-2.15,0.019   c-2.778,0-8.346,0.392-14.316,3.022c-3.411,1.5-6.484,3.532-9.128,6.037c-3.149,2.982-5.719,6.659-7.626,10.929   c-2.799,6.258-2.135,16.794-1.602,25.262v0.011c0.06,0.904,0.118,1.853,0.174,2.775c-0.413,0.187-1.073,0.385-2.055,0.385   c-1.58,0-3.455-0.502-5.578-1.494c-0.624-0.291-1.341-0.435-2.123-0.435c-1.262,0-2.592,0.37-3.749,1.046   c-1.456,0.852-2.394,2.053-2.648,3.387c-0.167,0.881-0.159,2.628,1.781,4.393c1.069,0.97,2.64,1.867,4.664,2.668   c0.532,0.204,1.16,0.407,1.833,0.616c2.313,0.735,5.824,1.845,6.738,3.994c0.465,1.087,0.267,2.518-0.588,4.25   c-0.024,0.05-0.049,0.096-0.068,0.144c-0.215,0.497-2.207,5.004-6.302,9.757c-2.321,2.698-4.882,4.959-7.605,6.708   c-3.319,2.144-6.913,3.543-10.682,4.161c-1.479,0.241-2.533,1.557-2.45,3.05c0.021,0.427,0.127,0.856,0.299,1.272l0.004,0.01   c0.601,1.392,1.988,2.576,4.238,3.623c2.759,1.274,6.873,2.348,12.244,3.191c0.271,0.511,0.554,1.805,0.748,2.689   c0.203,0.94,0.418,1.906,0.721,2.934c0.325,1.113,1.177,2.443,3.354,2.443c0.827,0,1.781-0.183,2.879-0.398   c1.609-0.316,3.816-0.748,6.567-0.748c1.521,0,3.109,0.135,4.699,0.399c3.069,0.507,5.709,2.371,8.771,4.529   c4.48,3.159,9.546,6.729,17.294,6.729c0.211,0,0.423-0.004,0.632-0.022c0.255,0.012,0.573,0.022,0.907,0.022   c7.748,0,12.817-3.574,17.29-6.729l0.008-0.006c3.058-2.154,5.702-4.015,8.767-4.522c1.59-0.264,3.173-0.399,4.7-0.399   c2.627,0,4.707,0.334,6.567,0.696c1.212,0.238,2.154,0.353,2.878,0.353h0.072h0.071c1.594,0,2.767-0.873,3.216-2.401   c0.294-1.006,0.509-1.952,0.716-2.906c0.183-0.827,0.474-2.155,0.744-2.678c5.375-0.841,9.489-1.91,12.248-3.188   c2.247-1.04,3.63-2.224,4.229-3.611c0.185-0.416,0.286-0.848,0.312-1.287C132.671,103.616,131.617,102.304,130.135,102.061z" id="Snapchat_1_"/><g><path class="st26" d="M29.921,108.439c0,0-6.006,3.539-5.258,6.229"/><path class="st26" d="M40.571,88.824c0,0,2.567-9.723-8.833-14.546"/><line class="st26" x1="37.323" x2="38.31" y1="96.103" y2="94.869"/></g><g><path class="st26" d="M109.854,108.439c0,0,6.006,3.539,5.258,6.229"/><path class="st26" d="M99.204,88.824c0,0-2.567-9.723,8.833-14.546"/><line class="st26" x1="102.452" x2="101.466" y1="96.103" y2="94.869"/></g><g><g><g><line class="st26" x1="112.617" x2="113.917" y1="22.027" y2="20.728"/><line class="st26" x1="116.738" x2="116.678" y1="17.907" y2="17.965"/></g><g><g><line class="st26" x1="100.487" x2="100.487" y1="14.042" y2="12.206"/><line class="st26" x1="100.486" x2="100.487" y1="8.212" y2="8.298"/></g><g><line class="st26" x1="120.602" x2="122.441" y1="34.158" y2="34.158"/><line class="st26" x1="126.432" x2="126.348" y1="34.158" y2="34.158"/></g></g></g><g><g><line class="st26" x1="27.383" x2="26.083" y1="22.209" y2="20.911"/><line class="st26" x1="23.262" x2="23.32" y1="18.087" y2="18.148"/></g><g><g><line class="st26" x1="19.396" x2="17.562" y1="34.339" y2="34.339"/><line class="st26" x1="13.568" x2="13.653" y1="34.34" y2="34.34"/></g><g><line class="st26" x1="39.514" x2="39.514" y1="14.226" y2="12.387"/><line class="st26" x1="39.514" x2="39.514" y1="8.394" y2="8.48"/></g></g></g></g></g></svg>