<?xml version="1.0" ?><!DOCTYPE svg  PUBLIC '-//W3C//DTD SVG 1.1//EN'  'http://www.w3.org/Graphics/SVG/1.1/DTD/svg11.dtd'><svg height="140px" id="Layer_1" style="enable-background:new 0 0 140 140;" version="1.1" viewBox="0 0 140 140" width="140px" xml:space="preserve" xmlns="http://www.w3.org/2000/svg" xmlns:xlink="http://www.w3.org/1999/xlink"><style type="text/css">
<![CDATA[
	.st0{fill:#47BBF4;}
	.st1{fill:#7BEA06;}
	.st2{fill:#49E500;}
	.st3{fill:#7ED1B5;}
	.st4{fill:#1083DD;}
	.st5{fill:#7FBA0D;}
	.st6{fill:#E01726;}
	.st7{fill:#129AFF;}
	.st8{fill:#E2102E;}
	.st9{fill:#E2137A;}
	.st10{fill:#E2573B;}
	.st11{fill:#E2A60E;}
	.st12{fill:#E3443A;}
	.st13{fill:#1558BA;}
	.st14{fill:#159B81;}
	.st15{fill:#1644B7;}
	.st16{fill:#168BF4;}
	.st17{fill:#E51F32;}
	.st18{fill:#E6EFE8;}
	.st19{fill:#187FB8;}
	.st20{fill:#4C5054;}
	.st21{fill:#4C822A;}
	.st22{fill:#E8F9F8;}
	.st23{fill:#4F5459;}
	.st24{fill:#4FCCED;}
	.st25{fill:#B0C6C4;}
	.st26{fill:none;stroke:#33363A;stroke-width:3;stroke-linecap:round;stroke-linejoin:round;stroke-miterlimit:10;}
	.st27{fill:#859392;}
	.st28{fill:#1A68E5;}
	.st29{fill:#1A70F9;}
	.st30{fill:#1B8EED;}
	.st31{fill:#EA4606;}
	.st32{fill:#EA7B0C;}
	.st33{fill:#EAF4F9;}
	.st34{fill:#B70E10;}
	.st35{fill:#1CB1E6;}
	.st36{fill:#1CDDF7;}
	.st37{fill:#EDC211;}
	.st38{fill:#EF8114;}
	.st39{fill:#55932C;}
	.st40{fill:#569FEF;}
	.st41{fill:#BA30CE;}
	.st42{fill:#BA3A3A;}
	.st43{fill:#8CF41E;}
	.st44{fill:#59C96E;}
	.st45{fill:#8E0919;}
	.st46{fill:#20B5EC;}
	.st47{fill:#21CE52;}
	.st48{fill:#21D844;}
	.st49{fill:#F17250;}
	.st50{fill:#2364CE;}
	.st51{fill:#F2303F;}
	.st52{fill:#F24444;}
	.st53{fill:#F26B95;}
	.st54{fill:#F2A775;}
	.st55{fill:#2463FF;}
	.st56{fill:#24A9E6;}
	.st57{fill:#24AEF0;}
	.st58{fill:#F34B78;}
	.st59{fill:#25D600;}
	.st60{fill:#25D800;}
	.st61{fill:#F46300;}
	.st62{fill:#F4921E;}
	.st63{fill:#F4F1E6;}
	.st64{fill:#F72B2B;}
	.st65{fill:#F7441C;}
	.st66{fill:#F7851E;}
	.st67{fill:#5CAA4F;}
	.st68{fill:#F7A56D;}
	.st69{fill:#F7B257;}
	.st70{fill:#F7B92B;}
	.st71{fill:#F8571D;}
	.st72{fill:#F91D80;}
	.st73{fill:#F92E64;}
	.st74{fill:#F93838;}
	.st75{fill:#F9A121;}
	.st76{fill:#F9BD28;}
	.st77{fill:#F9D5AA;}
	.st78{fill:#5FB2A2;}
	.st79{fill:#9165B7;}
	.st80{fill:#95C675;}
	.st81{fill:#2A98F2;}
	.st82{fill:#2AC106;}
	.st83{fill:#C6232C;}
	.st84{fill:#C6402A;}
	.st85{fill:#FA7B7A;}
	.st86{fill:#FA9826;}
	.st87{fill:#2CC64D;}
	.st88{fill:#FB6620;}
	.st89{fill:#C7D5E0;}
	.st90{fill:#C8131A;}
	.st91{fill:#2DB487;}
	.st92{fill:#FC732D;}
	.st93{fill:#C8D8E8;}
	.st94{fill:#2ED3FF;}
	.st95{fill:#FF0DA9;}
	.st96{fill:#FF4743;}
	.st97{fill:#FF6155;}
	.st98{fill:#FF7639;}
	.st99{fill:#FF7676;}
	.st100{fill:#FF88AD;}
	.st101{fill:#FF9064;}
	.st102{fill:#FFA506;}
	.st103{fill:#FFBE8D;}
	.st104{fill:#FFEB5A;}
	.st105{fill:#FFF19C;}
	.st106{fill:#FFFDF5;}
	.st107{fill:#FFFFFF;}
	.st108{fill:#63C605;}
	.st109{fill:#64C0FF;}
	.st110{fill:#66A00A;}
	.st111{fill:#CAFFE9;}
	.st112{fill:#680719;}
	.st113{fill:none;stroke:#FCE2AE;stroke-width:3;stroke-linecap:round;stroke-linejoin:round;stroke-miterlimit:10;}
	.st114{fill:#CC2414;}
	.st115{fill:#CC4521;}
	.st116{fill:#9DEACE;}
	.st117{fill:#303030;}
	.st118{fill:#CE1721;}
	.st119{fill:#33363A;}
	.st120{fill:#337BD1;}
	.st121{fill:#6A7C7C;}
	.st122{fill:#37D660;}
	.st123{fill:#384948;}
	.st124{fill:#38B4F9;}
	.st125{fill:#6CA9EA;}
	.st126{fill:#6D8599;}
	.st127{fill:#0097E2;}
	.st128{fill:#00997C;}
	.st129{fill:#00A4DD;}
	.st130{fill:#0399FF;}
	.st131{fill:#D33F26;}
	.st132{fill:#0695ED;}
	.st133{fill:#0779EA;}
	.st134{fill:#079332;}
	.st135{fill:#D6381E;}
	.st136{fill:#3BAA00;}
	.st137{fill:#D6E5EA;}
	.st138{fill:#D6E7EA;}
	.st139{fill:#08A548;}
	.st140{fill:#08BC26;}
	.st141{fill:#D80B0B;}
	.st142{fill:#D8532B;}
	.st143{fill:#3DC8F9;}
	.st144{fill:#3E77BF;}
	.st145{fill:#3E8AF7;}
	.st146{fill:#D9E5ED;}
	.st147{fill:#72818E;}
	.st148{fill:#0A78DD;}
	.st149{fill:#0A8CDD;}
	.st150{fill:#A52D21;}
	.st151{fill:#76CEFF;}
	.st152{fill:#76DB00;}
	.st153{fill:#0C86EA;}
	.st154{fill:#DB0F4E;}
	.st155{fill:#A7B7B6;}
	.st156{fill:#0DBA5B;}
	.st157{fill:#79B259;}
	.st158{fill:#0E73D8;}
	.st159{fill:#0E78D8;}
	.st160{fill:#0E8971;}
	.st161{fill:#A981D3;}
	.st162{fill:#DD4B4B;}
	.st163{fill:#4087ED;}
	.st164{fill:#40A557;}
	.st165{fill:#40E269;}
	.st166{fill:#DFC7FF;}
	.st167{fill:#DFEFEF;}
	.st168{fill:#44FCB6;}
]]>
</style><g><g><g><g><path class="st65" d="M112.367,65.385c-2.65,0-5.147,0.506-7.491,1.518c-0.496-5.84-2.31-11.186-5.44-16.033      c-3.13-4.848-7.228-8.676-12.296-11.477c-5.069-2.805-10.543-4.205-16.416-4.205c-2.537,0-5.089,0.311-7.663,0.934      c-1.189,0.389-1.785,1.598-1.785,3.623v63.549c0,0.23,0.086,0.508,0.262,0.816c0.171,0.312,0.432,0.525,0.778,0.643      l50.108,0.061c5.337,0,9.915-1.93,13.735-5.783c3.826-3.857,5.729-8.508,5.729-13.961c0-5.412-1.903-10.047-5.729-13.9      C122.339,67.312,117.739,65.385,112.367,65.385z"/><path class="st62" d="M112.367,65.385c-2.65,0-5.147,0.506-7.491,1.518c-0.496-5.84-2.31-11.186-5.44-16.033      c-3.13-4.848-7.228-8.676-12.296-11.477c-5.069-2.805-10.543-4.205-16.416-4.205c-2.537,0-5.089,0.311-7.663,0.934      c-1.189,0.389-1.785,1.598-1.785,3.623v63.549c0,0.23,0.086,0.508,0.262,0.816c0.171,0.312,0.432,0.525,0.778,0.643      l50.108,0.061c5.337,0,9.915-1.93,13.735-5.783c3.826-3.857,5.729-8.508,5.729-13.961c0-5.412-1.903-10.047-5.729-13.9      C122.339,67.312,117.739,65.385,112.367,65.385z"/><path class="st65" d="M109.054,65.682c-1.441,0.248-2.838,0.643-4.178,1.221c-0.042-0.496-0.107-0.984-0.168-1.475      c-2.312,0.104-4.511,0.58-6.582,1.475c-0.496-5.84-2.31-11.186-5.44-16.033c-3.13-4.848-7.228-8.676-12.296-11.477      c-4.056-2.244-8.374-3.572-12.944-4.021c-1.456,0.152-2.916,0.395-4.385,0.75c-1.189,0.389-1.785,1.598-1.785,3.623v63.549      c0,0.23,0.086,0.508,0.262,0.816c0.171,0.312,0.432,0.525,0.778,0.643l43.531,0.053c5.262-0.041,9.784-1.965,13.562-5.775      c3.826-3.857,5.729-8.508,5.729-13.961c0-5.412-1.903-10.047-5.729-13.9C116.432,68.164,112.975,66.346,109.054,65.682z"/><path class="st65" d="M12.319,71.051c-1.151,0-2.14,0.418-2.968,1.256c-0.825,0.836-1.24,1.859-1.24,3.064v16.939      c0,1.559,0.561,2.734,1.674,3.533c1.113,0.797,2.304,1.082,3.571,0.848c1.189-0.232,2.023-0.662,2.506-1.285      c0.479-0.623,0.72-1.654,0.72-3.096V75.371c0-1.205-0.414-2.229-1.239-3.064C14.519,71.469,13.511,71.051,12.319,71.051z"/><path class="st62" d="M25.566,55.805c-1.152,0-2.142,0.42-2.965,1.258c-0.825,0.834-1.239,1.84-1.239,3.008v39.484      c0,1.129,0.393,1.977,1.181,2.539c0.784,0.566,1.797,0.85,3.023,0.85c1.271,0,2.295-0.283,3.079-0.85      c0.791-0.562,1.184-1.41,1.184-2.539V60.07c0-1.168-0.414-2.174-1.239-3.008C27.765,56.225,26.756,55.805,25.566,55.805z"/><path class="st65" d="M38.872,61.006c-1.191,0-2.207,0.428-3.052,1.283c-0.844,0.854-1.268,1.889-1.268,3.096v36.037h-0.001      c0,1.133,0.403,1.979,1.211,2.541c0.804,0.566,1.842,0.848,3.109,0.848c1.228,0,2.236-0.281,3.024-0.848      c0.788-0.562,1.181-1.408,1.181-2.541V65.385c0-1.207-0.412-2.242-1.24-3.096C41.012,61.434,40.022,61.006,38.872,61.006z"/><path class="st62" d="M53.387,37.639c-1.268-0.311-2.516,0.059-3.743,1.111c-1.229,1.049-1.845,2.531-1.845,4.439v58.408l0,0      c0,2.143,1.42,3.213,4.264,3.213c2.841,0,4.262-1.07,4.262-3.213V43.189C56.324,39.918,55.345,38.068,53.387,37.639z"/><g><path class="st98" d="M34.553,101.422L34.553,101.422c-0.001,0,0,0.014,0,0.021V101.422z"/></g></g></g></g><g><g><g><path class="st26" d="M112.367,65.385c-2.65,0-5.147,0.506-7.491,1.518c-0.496-5.84-2.31-11.186-5.44-16.033      c-3.13-4.848-7.228-8.676-12.296-11.477c-5.069-2.805-10.543-4.205-16.416-4.205c-2.537,0-5.089,0.311-7.663,0.934      c-1.189,0.389-1.785,1.598-1.785,3.623v63.549c0,0.23,0.086,0.508,0.262,0.816c0.171,0.312,0.432,0.525,0.778,0.643      l50.108,0.061c5.337,0,9.915-1.93,13.735-5.783c3.826-3.857,5.729-8.508,5.729-13.961c0-5.412-1.903-10.047-5.729-13.9      C122.339,67.312,117.739,65.385,112.367,65.385z"/><path class="st26" d="M112.367,65.385c-2.65,0-5.147,0.506-7.491,1.518c-0.496-5.84-2.31-11.186-5.44-16.033      c-3.13-4.848-7.228-8.676-12.296-11.477c-5.069-2.805-10.543-4.205-16.416-4.205c-2.537,0-5.089,0.311-7.663,0.934      c-1.189,0.389-1.785,1.598-1.785,3.623v63.549c0,0.23,0.086,0.508,0.262,0.816c0.171,0.312,0.432,0.525,0.778,0.643      l50.108,0.061c5.337,0,9.915-1.93,13.735-5.783c3.826-3.857,5.729-8.508,5.729-13.961c0-5.412-1.903-10.047-5.729-13.9      C122.339,67.312,117.739,65.385,112.367,65.385z"/><path class="st26" d="M12.319,71.051c-1.151,0-2.14,0.418-2.968,1.256c-0.825,0.836-1.24,1.859-1.24,3.064v16.939      c0,1.559,0.561,2.734,1.674,3.533c1.113,0.797,2.304,1.082,3.571,0.848c1.189-0.232,2.023-0.662,2.506-1.285      c0.479-0.623,0.72-1.654,0.72-3.096V75.371c0-1.205-0.414-2.229-1.239-3.064C14.519,71.469,13.511,71.051,12.319,71.051z"/><path class="st26" d="M25.566,55.805c-1.152,0-2.142,0.42-2.965,1.258c-0.825,0.834-1.239,1.84-1.239,3.008v39.484      c0,1.129,0.393,1.977,1.181,2.539c0.784,0.566,1.797,0.85,3.023,0.85c1.271,0,2.295-0.283,3.079-0.85      c0.791-0.562,1.184-1.41,1.184-2.539V60.07c0-1.168-0.414-2.174-1.239-3.008C27.765,56.225,26.756,55.805,25.566,55.805z"/><path class="st26" d="M38.872,61.006c-1.191,0-2.207,0.428-3.052,1.283c-0.844,0.854-1.268,1.889-1.268,3.096v36.037h-0.001      c0,1.133,0.403,1.979,1.211,2.541c0.804,0.566,1.842,0.848,3.109,0.848c1.228,0,2.236-0.281,3.024-0.848      c0.788-0.562,1.181-1.408,1.181-2.541V65.385c0-1.207-0.412-2.242-1.24-3.096C41.012,61.434,40.022,61.006,38.872,61.006z"/><path class="st26" d="M53.387,37.639c-1.268-0.311-2.516,0.059-3.743,1.111c-1.229,1.049-1.845,2.531-1.845,4.439v58.408l0,0      c0,2.143,1.42,3.213,4.264,3.213c2.841,0,4.262-1.07,4.262-3.213V43.189C56.324,39.918,55.345,38.068,53.387,37.639z"/><g><path class="st26" d="M34.553,101.422L34.553,101.422c-0.001,0,0,0.014,0,0.021V101.422z"/></g></g></g></g><path class="st26" d="M106.007,89.312c0,3.314,2.689,6.002,6.006,6.002c4.144,0,7.505-3.359,7.505-7.504   c0-5.182-4.201-9.381-9.383-9.381c-6.477,0-11.725,5.248-11.725,11.727c0,8.094,6.562,14.656,14.657,14.656"/></g></svg>