<?xml version="1.0" ?><!DOCTYPE svg  PUBLIC '-//W3C//DTD SVG 1.1//EN'  'http://www.w3.org/Graphics/SVG/1.1/DTD/svg11.dtd'><svg height="140px" id="Layer_1" style="enable-background:new 0 0 140 140;" version="1.1" viewBox="0 0 140 140" width="140px" xml:space="preserve" xmlns="http://www.w3.org/2000/svg" xmlns:xlink="http://www.w3.org/1999/xlink"><style type="text/css">
<![CDATA[
	.st0{fill:#47BBF4;}
	.st1{fill:#7BEA06;}
	.st2{fill:#49E500;}
	.st3{fill:#7ED1B5;}
	.st4{fill:#1083DD;}
	.st5{fill:#7FBA0D;}
	.st6{fill:#E01726;}
	.st7{fill:#129AFF;}
	.st8{fill:#E2102E;}
	.st9{fill:#E2137A;}
	.st10{fill:#E2573B;}
	.st11{fill:#E2A60E;}
	.st12{fill:#E3443A;}
	.st13{fill:#1558BA;}
	.st14{fill:#159B81;}
	.st15{fill:#1644B7;}
	.st16{fill:#168BF4;}
	.st17{fill:#E51F32;}
	.st18{fill:#E6EFE8;}
	.st19{fill:#187FB8;}
	.st20{fill:#4C5054;}
	.st21{fill:#4C822A;}
	.st22{fill:#E8F9F8;}
	.st23{fill:#4F5459;}
	.st24{fill:#4FCCED;}
	.st25{fill:#B0C6C4;}
	.st26{fill:none;stroke:#33363A;stroke-width:3;stroke-linecap:round;stroke-linejoin:round;stroke-miterlimit:10;}
	.st27{fill:#859392;}
	.st28{fill:#1A68E5;}
	.st29{fill:#1A70F9;}
	.st30{fill:#1B8EED;}
	.st31{fill:#EA4606;}
	.st32{fill:#EA7B0C;}
	.st33{fill:#EAF4F9;}
	.st34{fill:#B70E10;}
	.st35{fill:#1CB1E6;}
	.st36{fill:#1CDDF7;}
	.st37{fill:#EDC211;}
	.st38{fill:#EF8114;}
	.st39{fill:#55932C;}
	.st40{fill:#569FEF;}
	.st41{fill:#BA30CE;}
	.st42{fill:#BA3A3A;}
	.st43{fill:#8CF41E;}
	.st44{fill:#59C96E;}
	.st45{fill:#8E0919;}
	.st46{fill:#20B5EC;}
	.st47{fill:#21CE52;}
	.st48{fill:#21D844;}
	.st49{fill:#F17250;}
	.st50{fill:#2364CE;}
	.st51{fill:#F2303F;}
	.st52{fill:#F24444;}
	.st53{fill:#F26B95;}
	.st54{fill:#F2A775;}
	.st55{fill:#2463FF;}
	.st56{fill:#24A9E6;}
	.st57{fill:#24AEF0;}
	.st58{fill:#F34B78;}
	.st59{fill:#25D600;}
	.st60{fill:#25D800;}
	.st61{fill:#F46300;}
	.st62{fill:#F4921E;}
	.st63{fill:#F4F1E6;}
	.st64{fill:#F72B2B;}
	.st65{fill:#F7441C;}
	.st66{fill:#F7851E;}
	.st67{fill:#5CAA4F;}
	.st68{fill:#F7A56D;}
	.st69{fill:#F7B257;}
	.st70{fill:#F7B92B;}
	.st71{fill:#F8571D;}
	.st72{fill:#F91D80;}
	.st73{fill:#F92E64;}
	.st74{fill:#F93838;}
	.st75{fill:#F9A121;}
	.st76{fill:#F9BD28;}
	.st77{fill:#F9D5AA;}
	.st78{fill:#5FB2A2;}
	.st79{fill:#9165B7;}
	.st80{fill:#95C675;}
	.st81{fill:#2A98F2;}
	.st82{fill:#2AC106;}
	.st83{fill:#C6232C;}
	.st84{fill:#C6402A;}
	.st85{fill:#FA7B7A;}
	.st86{fill:#FA9826;}
	.st87{fill:#2CC64D;}
	.st88{fill:#FB6620;}
	.st89{fill:#C7D5E0;}
	.st90{fill:#C8131A;}
	.st91{fill:#2DB487;}
	.st92{fill:#FC732D;}
	.st93{fill:#C8D8E8;}
	.st94{fill:#2ED3FF;}
	.st95{fill:#FF0DA9;}
	.st96{fill:#FF4743;}
	.st97{fill:#FF6155;}
	.st98{fill:#FF7639;}
	.st99{fill:#FF7676;}
	.st100{fill:#FF88AD;}
	.st101{fill:#FF9064;}
	.st102{fill:#FFA506;}
	.st103{fill:#FFBE8D;}
	.st104{fill:#FFEB5A;}
	.st105{fill:#FFF19C;}
	.st106{fill:#FFFDF5;}
	.st107{fill:#FFFFFF;}
	.st108{fill:#63C605;}
	.st109{fill:#64C0FF;}
	.st110{fill:#66A00A;}
	.st111{fill:#CAFFE9;}
	.st112{fill:#680719;}
	.st113{fill:none;stroke:#FCE2AE;stroke-width:3;stroke-linecap:round;stroke-linejoin:round;stroke-miterlimit:10;}
	.st114{fill:#CC2414;}
	.st115{fill:#CC4521;}
	.st116{fill:#9DEACE;}
	.st117{fill:#303030;}
	.st118{fill:#CE1721;}
	.st119{fill:#33363A;}
	.st120{fill:#337BD1;}
	.st121{fill:#6A7C7C;}
	.st122{fill:#37D660;}
	.st123{fill:#384948;}
	.st124{fill:#38B4F9;}
	.st125{fill:#6CA9EA;}
	.st126{fill:#6D8599;}
	.st127{fill:#0097E2;}
	.st128{fill:#00997C;}
	.st129{fill:#00A4DD;}
	.st130{fill:#0399FF;}
	.st131{fill:#D33F26;}
	.st132{fill:#0695ED;}
	.st133{fill:#0779EA;}
	.st134{fill:#079332;}
	.st135{fill:#D6381E;}
	.st136{fill:#3BAA00;}
	.st137{fill:#D6E5EA;}
	.st138{fill:#D6E7EA;}
	.st139{fill:#08A548;}
	.st140{fill:#08BC26;}
	.st141{fill:#D80B0B;}
	.st142{fill:#D8532B;}
	.st143{fill:#3DC8F9;}
	.st144{fill:#3E77BF;}
	.st145{fill:#3E8AF7;}
	.st146{fill:#D9E5ED;}
	.st147{fill:#72818E;}
	.st148{fill:#0A78DD;}
	.st149{fill:#0A8CDD;}
	.st150{fill:#A52D21;}
	.st151{fill:#76CEFF;}
	.st152{fill:#76DB00;}
	.st153{fill:#0C86EA;}
	.st154{fill:#DB0F4E;}
	.st155{fill:#A7B7B6;}
	.st156{fill:#0DBA5B;}
	.st157{fill:#79B259;}
	.st158{fill:#0E73D8;}
	.st159{fill:#0E78D8;}
	.st160{fill:#0E8971;}
	.st161{fill:#A981D3;}
	.st162{fill:#DD4B4B;}
	.st163{fill:#4087ED;}
	.st164{fill:#40A557;}
	.st165{fill:#40E269;}
	.st166{fill:#DFC7FF;}
	.st167{fill:#DFEFEF;}
	.st168{fill:#44FCB6;}
]]>
</style><g><g><g><path class="st60" d="M70.018,8.633h-0.035l0,0c-33.828,0-61.35,27.523-61.35,61.363c0,13.422,4.33,25.869,11.684,35.971     l-7.643,22.801l23.586-7.539c9.701,6.424,21.279,10.139,33.758,10.139c33.832,0,61.35-27.531,61.35-61.369     C131.367,36.158,103.85,8.633,70.018,8.633z M105.725,95.291c-1.477,4.184-7.357,7.646-12.047,8.658     c-3.209,0.684-7.393,1.225-21.494-4.619c-18.035-7.471-29.648-25.797-30.549-26.986c-0.867-1.188-7.289-9.703-7.289-18.508     c0-8.803,4.475-13.096,6.279-14.936c1.479-1.516,3.932-2.197,6.275-2.197c0.76,0,1.441,0.031,2.057,0.066     c1.803,0.074,2.705,0.186,3.895,3.033c1.48,3.57,5.088,12.373,5.52,13.275c0.428,0.9,0.863,2.131,0.25,3.318     c-0.574,1.227-1.082,1.77-1.982,2.816c-0.902,1.045-1.77,1.838-2.668,2.959c-0.83,0.973-1.77,2.021-0.721,3.822     c1.049,1.77,4.65,7.648,9.955,12.373c6.85,6.098,12.402,8.047,14.389,8.877c1.477,0.615,3.246,0.467,4.328-0.686     c1.373-1.48,3.066-3.934,4.797-6.348c1.225-1.734,2.777-1.951,4.396-1.338c1.66,0.576,10.428,4.906,12.23,5.809     c1.801,0.902,2.99,1.336,3.426,2.092C107.205,87.535,107.205,91.104,105.725,95.291z"/></g><path class="st82" d="M36.26,121.229c9.701,6.424,21.279,10.139,33.758,10.139c31.689,0,57.838-24.154,61.021-55.021    c-3.184-30.869-29.332-55.02-61.021-55.02h-0.035c-31.672,0-57.811,24.125-61.018,54.973c1.129,11.004,5.164,21.168,11.352,29.668    l-2.828,8.436c0.887,1.459,1.826,2.883,2.828,4.258l-2.877,8.584L36.26,121.229z M34.346,53.836    c0-8.803,4.475-13.096,6.279-14.936c1.479-1.516,3.932-2.197,6.275-2.197c0.76,0,1.441,0.031,2.057,0.066    c1.803,0.074,2.705,0.186,3.895,3.033c1.48,3.57,5.088,12.373,5.52,13.275c0.428,0.9,0.863,2.131,0.25,3.318    c-0.574,1.227-1.082,1.77-1.982,2.816c-0.234,0.27-0.465,0.523-0.695,0.771c1.164,2.82,2.207,5.328,2.428,5.787    c0.428,0.9,0.863,2.131,0.25,3.318c-0.5,1.066-0.949,1.617-1.65,2.432c1.65,2.176,3.752,4.635,6.234,6.846    c6.85,6.098,12.402,8.047,14.389,8.877c1.477,0.615,3.246,0.467,4.328-0.686c1.373-1.48,3.066-3.934,4.797-6.348    c1.225-1.734,2.777-1.951,4.396-1.338c1.66,0.576,10.428,4.906,12.23,5.809c1.801,0.902,2.99,1.336,3.426,2.092    c0.434,0.762,0.434,4.33-1.047,8.518c-0.311,0.881-0.826,1.727-1.475,2.527c1.293,0.621,2.164,1.029,2.521,1.648    c0.434,0.762,0.434,4.33-1.047,8.518c-1.477,4.184-7.357,7.646-12.047,8.658c-3.209,0.684-7.393,1.225-21.494-4.619    c-18.035-7.471-29.648-25.797-30.549-26.986c-0.867-1.188-7.289-9.703-7.289-18.508c0-2.531,0.377-4.68,0.947-6.514    C34.721,58.035,34.346,55.945,34.346,53.836z"/><g><path class="st139" d="M91.115,78.873c0.414,0.143,1.252,0.512,2.312,1.002L52.42,38.869c0.143,0.273,0.285,0.582,0.432,0.934     c1.48,3.57,5.088,12.373,5.52,13.275c0.428,0.9,0.863,2.131,0.25,3.318c-0.574,1.227-1.082,1.77-1.982,2.816     c-0.902,1.045-1.77,1.838-2.668,2.959c-0.83,0.973-1.77,2.021-0.721,3.822c1.049,1.77,4.65,7.648,9.955,12.373     c6.85,6.098,12.402,8.047,14.389,8.877c1.477,0.615,3.246,0.467,4.328-0.686c1.373-1.48,3.066-3.934,4.797-6.348     C87.943,78.477,89.496,78.26,91.115,78.873z"/><path class="st67" d="M34.352,53.891l-0.404,0.404l0.441,0.441C34.373,54.453,34.352,54.172,34.352,53.891z"/></g><g><path class="st26" d="M70.018,8.633h-0.035l0,0c-33.828,0-61.35,27.523-61.35,61.363c0,13.422,4.33,25.869,11.684,35.971     l-7.643,22.801l23.586-7.539c9.701,6.424,21.279,10.139,33.758,10.139c33.832,0,61.35-27.531,61.35-61.369     C131.367,36.158,103.85,8.633,70.018,8.633z M105.725,95.291c-1.477,4.184-7.357,7.646-12.047,8.658     c-3.209,0.684-7.393,1.225-21.494-4.619c-18.035-7.471-29.648-25.797-30.549-26.986c-0.867-1.188-7.289-9.703-7.289-18.508     c0-8.803,4.475-13.096,6.279-14.936c1.479-1.516,3.932-2.197,6.275-2.197c0.76,0,1.441,0.031,2.057,0.066     c1.803,0.074,2.705,0.186,3.895,3.033c1.48,3.57,5.088,12.373,5.52,13.275c0.428,0.9,0.863,2.131,0.25,3.318     c-0.574,1.227-1.082,1.77-1.982,2.816c-0.902,1.045-1.77,1.838-2.668,2.959c-0.83,0.973-1.77,2.021-0.721,3.822     c1.049,1.77,4.65,7.648,9.955,12.373c6.85,6.098,12.402,8.047,14.389,8.877c1.477,0.615,3.246,0.467,4.328-0.686     c1.373-1.48,3.066-3.934,4.797-6.348c1.225-1.734,2.777-1.951,4.396-1.338c1.66,0.576,10.428,4.906,12.23,5.809     c1.801,0.902,2.99,1.336,3.426,2.092C107.205,87.535,107.205,91.104,105.725,95.291z"/></g></g><g><g><line class="st26" x1="86.164" x2="87.895" y1="52.463" y2="50.73"/><line class="st26" x1="91.656" x2="91.574" y1="46.973" y2="47.051"/></g><g><g><line class="st26" x1="70.002" x2="70.002" y1="41.822" y2="39.377"/><line class="st26" x1="70" x2="70.002" y1="34.055" y2="34.172"/></g><g><line class="st26" x1="96.803" x2="99.252" y1="68.625" y2="68.625"/><line class="st26" x1="104.57" x2="104.457" y1="68.625" y2="68.625"/></g></g></g></g></svg>