<?xml version="1.0" ?><svg viewBox="0 0 63 63" xmlns="http://www.w3.org/2000/svg" xmlns:xlink="http://www.w3.org/1999/xlink"><defs><style>.cls-1,.cls-8{fill:#fff;}.cls-1,.cls-2,.cls-5,.cls-6,.cls-7{stroke-linecap:round;}.cls-1,.cls-2,.cls-3,.cls-4,.cls-5,.cls-6,.cls-7{stroke-miterlimit:10;}.cls-1,.cls-4,.cls-6{fill-rule:evenodd;}.cls-1{stroke:url(#linear-gradient);}.cls-2,.cls-3,.cls-5,.cls-6,.cls-7{fill:none;}.cls-2{stroke:url(#linear-gradient-2);}.cls-3,.cls-5{stroke:#e0e0e0;}.cls-4{fill:url(#linear-gradient-3);stroke:url(#linear-gradient-4);}.cls-6{stroke:url(#linear-gradient-5);}.cls-7{stroke:url(#linear-gradient-6);}</style><linearGradient gradientUnits="userSpaceOnUse" id="linear-gradient" x1="20.45" x2="45.45" y1="32.05" y2="32.05"><stop offset="0" stop-color="#a900bf"/><stop offset="0.48" stop-color="#d661ad"/><stop offset="0.83" stop-color="#f3a3a1"/><stop offset="1" stop-color="#ffbc9c"/></linearGradient><linearGradient id="linear-gradient-2" x1="20.45" x2="21.45" xlink:href="#linear-gradient" y1="28.15" y2="28.15"/><linearGradient id="linear-gradient-3" x1="17.56" x2="39.58" xlink:href="#linear-gradient" y1="34.33" y2="34.33"/><linearGradient id="linear-gradient-4" x1="17.06" x2="40.08" xlink:href="#linear-gradient" y1="34.33" y2="34.33"/><linearGradient id="linear-gradient-5" x1="37.45" x2="42.95" xlink:href="#linear-gradient" y1="21.4" y2="21.4"/><linearGradient id="linear-gradient-6" x1="20.45" x2="21.45" xlink:href="#linear-gradient" y1="42.15" y2="42.15"/></defs><title/><g data-name="Layer 78" id="Layer_78"><path class="cls-1" d="M21,25.55v-7a3,3,0,0,1,3-3H38l7,8v22a3,3,0,0,1-3,3H24a3,3,0,0,1-3-3v-1"/><line class="cls-2" x1="20.95" x2="20.95" y1="28.55" y2="27.75"/><path class="cls-3" d="M18,36.55v2a1,1,0,0,0,1,1H38a1,1,0,0,0,1-1v-1"/><path class="cls-4" d="M38.83,38.62H18.32a.81.81,0,0,1-.76-.86V30.9a.81.81,0,0,1,.76-.85H38.83a.81.81,0,0,1,.75.85v6.86A.81.81,0,0,1,38.83,38.62Z"/><path class="cls-5" d="M38,23v.31a1.28,1.28,0,0,0,1.28,1.3l2.87,0a.26.26,0,0,0,.26-.25V24"/><path class="cls-6" d="M38,18.83v3.86A1.28,1.28,0,0,0,39.24,24h3.21"/><line class="cls-7" x1="20.95" x2="20.95" y1="42.55" y2="41.75"/><path class="cls-5" d="M43,42.48v2.93a1,1,0,0,1-1,1l-.34,0"/><path class="cls-8" d="M21.92,36.76a.15.15,0,0,1,0-.07l1.58-4.85q.1-.27.57-.27c.32,0,.51.08.58.25l1.58,4.85s0,.06,0,.07-.06.18-.19.25a.76.76,0,0,1-.39.1c-.17,0-.27-.05-.32-.16L25,35.85h-2l-.33,1.07a.28.28,0,0,1-.3.17.7.7,0,0,1-.36-.1A.26.26,0,0,1,21.92,36.76Zm1.34-1.54h1.59l-.8-2.57Z"/><path class="cls-8" d="M26.83,36.83V32a.38.38,0,0,1,.12-.3.49.49,0,0,1,.3-.1.71.71,0,0,1,.38.1.88.88,0,0,1,.29.35l1.12,2,1.14-2a.88.88,0,0,1,.29-.35.67.67,0,0,1,.37-.1.5.5,0,0,1,.31.1.38.38,0,0,1,.12.3v4.82a.21.21,0,0,1-.13.19.56.56,0,0,1-.3.07.54.54,0,0,1-.29-.07.21.21,0,0,1-.13-.19v-3.6l-1.07,1.86a.37.37,0,0,1-.31.18.31.31,0,0,1-.29-.18l-1.08-1.9v3.64a.22.22,0,0,1-.12.19.56.56,0,0,1-.3.07A.54.54,0,0,1,27,37,.21.21,0,0,1,26.83,36.83Z"/><path class="cls-8" d="M32.32,36.83v-5a.25.25,0,0,1,.08-.18.3.3,0,0,1,.2-.08h1.52c1.23,0,1.84.51,1.84,1.53a1.53,1.53,0,0,1-.3,1,1.47,1.47,0,0,1-.83.48l1.13,2a.27.27,0,0,1,0,.12.34.34,0,0,1-.17.27.53.53,0,0,1-.35.13.38.38,0,0,1-.33-.23L34,34.73h-.81v2.1A.22.22,0,0,1,33,37a.56.56,0,0,1-.3.07.54.54,0,0,1-.29-.07A.21.21,0,0,1,32.32,36.83Zm.84-2.73h1c.66,0,1-.3,1-.89s-.34-.89-1-.89h-1Z"/></g></svg>