<?xml version="1.0" ?><svg viewBox="0 0 63 63" xmlns="http://www.w3.org/2000/svg" xmlns:xlink="http://www.w3.org/1999/xlink"><defs><style>.cls-1,.cls-7{fill:#fff;}.cls-1,.cls-2,.cls-5,.cls-6,.cls-8{stroke-linecap:round;}.cls-1,.cls-2,.cls-3,.cls-4,.cls-5,.cls-6,.cls-8{stroke-miterlimit:10;}.cls-1,.cls-4,.cls-6{fill-rule:evenodd;}.cls-1{stroke:url(#linear-gradient);}.cls-2,.cls-3,.cls-5,.cls-6,.cls-8{fill:none;}.cls-2{stroke:url(#linear-gradient-2);}.cls-3,.cls-5{stroke:#e0e0e0;}.cls-4{fill:url(#linear-gradient-3);stroke:url(#linear-gradient-4);}.cls-6{stroke:url(#linear-gradient-5);}.cls-8{stroke:url(#linear-gradient-6);}</style><linearGradient gradientUnits="userSpaceOnUse" id="linear-gradient" x1="20.45" x2="45.45" y1="32.05" y2="32.05"><stop offset="0" stop-color="#a900bf"/><stop offset="0.48" stop-color="#d661ad"/><stop offset="0.83" stop-color="#f3a3a1"/><stop offset="1" stop-color="#ffbc9c"/></linearGradient><linearGradient id="linear-gradient-2" x1="20.45" x2="21.45" xlink:href="#linear-gradient" y1="28.15" y2="28.15"/><linearGradient id="linear-gradient-3" x1="17.43" x2="39.45" xlink:href="#linear-gradient" y1="34.33" y2="34.33"/><linearGradient id="linear-gradient-4" x1="16.93" x2="39.95" xlink:href="#linear-gradient" y1="34.33" y2="34.33"/><linearGradient id="linear-gradient-5" x1="37.45" x2="42.95" xlink:href="#linear-gradient" y1="21.4" y2="21.4"/><linearGradient id="linear-gradient-6" x1="20.45" x2="21.45" xlink:href="#linear-gradient" y1="42.15" y2="42.15"/></defs><title/><g data-name="Layer 14" id="Layer_14"><path class="cls-1" d="M21,25.55v-7a3,3,0,0,1,3-3H38l7,8v22a3,3,0,0,1-3,3H24a3,3,0,0,1-3-3v-1"/><line class="cls-2" x1="20.95" x2="20.95" y1="28.55" y2="27.75"/><path class="cls-3" d="M18,36.55v2a1,1,0,0,0,1,1H38a1,1,0,0,0,1-1v-1"/><path class="cls-4" d="M38.69,38.62H18.19a.81.81,0,0,1-.76-.86V30.9a.81.81,0,0,1,.76-.85h20.5a.81.81,0,0,1,.76.85v6.86A.81.81,0,0,1,38.69,38.62Z"/><path class="cls-5" d="M38,23v.31a1.28,1.28,0,0,0,1.28,1.3l2.87,0a.26.26,0,0,0,.26-.25V24"/><path class="cls-6" d="M38,18.83v3.86A1.28,1.28,0,0,0,39.24,24h3.21"/><path class="cls-7" d="M22.77,36.43V31.61a.36.36,0,0,1,.12-.3.5.5,0,0,1,.31-.1.65.65,0,0,1,.38.1,1.09,1.09,0,0,1,.29.35l1.12,2,1.13-2a1.09,1.09,0,0,1,.29-.35.63.63,0,0,1,.38-.1.49.49,0,0,1,.3.1.36.36,0,0,1,.12.3v4.82a.22.22,0,0,1-.12.19.73.73,0,0,1-.3.07.7.7,0,0,1-.3-.07.23.23,0,0,1-.13-.19v-3.6l-1.07,1.86a.36.36,0,0,1-.31.18.31.31,0,0,1-.29-.18l-1.07-1.9v3.64a.22.22,0,0,1-.12.19.73.73,0,0,1-.3.07.66.66,0,0,1-.3-.07A.21.21,0,0,1,22.77,36.43Z"/><path class="cls-7" d="M28.27,36.43v-5a.23.23,0,0,1,.09-.18.36.36,0,0,1,.23-.08h1.57a1.9,1.9,0,0,1,1.27.4,1.52,1.52,0,0,1,.48,1.25v.06a1.53,1.53,0,0,1-.49,1.25,2,2,0,0,1-1.31.41h-1v1.85a.23.23,0,0,1-.13.19.66.66,0,0,1-.3.07.73.73,0,0,1-.3-.07A.22.22,0,0,1,28.27,36.43ZM29.12,34h1a.92.92,0,0,0,.7-.25,1,1,0,0,0,.25-.73v-.09a.94.94,0,0,0-.25-.72,1,1,0,0,0-.7-.24h-1Z"/><path class="cls-7" d="M32.29,35.41a.31.31,0,0,1,.09-.26.47.47,0,0,1,.3-.07.59.59,0,0,1,.35.07.27.27,0,0,1,.09.23.56.56,0,0,0,.25.46,1.14,1.14,0,0,0,.7.19,1.08,1.08,0,0,0,.73-.22A.94.94,0,0,0,35,35.1V35c0-.55-.33-.82-1-.82-.18,0-.27-.1-.27-.31s.09-.32.27-.32a1,1,0,0,0,.62-.17.82.82,0,0,0,.21-.65c0-.52-.27-.77-.8-.77a.93.93,0,0,0-.64.17.56.56,0,0,0-.19.44c0,.21-.13.32-.4.32a.59.59,0,0,1-.36-.08.42.42,0,0,1-.08-.29,1.19,1.19,0,0,1,.08-.41,1.3,1.3,0,0,1,.26-.4,1.15,1.15,0,0,1,.53-.33,2.22,2.22,0,0,1,.81-.13c1.07,0,1.61.45,1.61,1.34a1.74,1.74,0,0,1-.17.79,1,1,0,0,1-.47.46A1.14,1.14,0,0,1,35.88,35v.14a1.48,1.48,0,0,1-.5,1.24,2.11,2.11,0,0,1-1.32.39,1.91,1.91,0,0,1-1.32-.4A1.22,1.22,0,0,1,32.29,35.41Z"/><line class="cls-8" x1="20.95" x2="20.95" y1="42.55" y2="41.75"/><path class="cls-5" d="M43,42.48v2.93a1,1,0,0,1-1,1l-.34,0"/></g></svg>