<?xml version="1.0" ?><svg viewBox="0 0 63 63" xmlns="http://www.w3.org/2000/svg" xmlns:xlink="http://www.w3.org/1999/xlink"><defs><style>.cls-1,.cls-7{fill:#fff;}.cls-1,.cls-2,.cls-5,.cls-6,.cls-8{stroke-linecap:round;}.cls-1,.cls-2,.cls-3,.cls-4,.cls-5,.cls-6,.cls-8{stroke-miterlimit:10;}.cls-1,.cls-4,.cls-6{fill-rule:evenodd;}.cls-1{stroke:url(#linear-gradient);}.cls-2,.cls-3,.cls-5,.cls-6,.cls-8{fill:none;}.cls-2{stroke:url(#linear-gradient-2);}.cls-3,.cls-5{stroke:#e0e0e0;}.cls-4{fill:url(#linear-gradient-3);stroke:url(#linear-gradient-4);}.cls-6{stroke:url(#linear-gradient-5);}.cls-8{stroke:url(#linear-gradient-6);}</style><linearGradient gradientUnits="userSpaceOnUse" id="linear-gradient" x1="20.45" x2="45.45" y1="32.05" y2="32.05"><stop offset="0" stop-color="#a900bf"/><stop offset="0.48" stop-color="#d661ad"/><stop offset="0.83" stop-color="#f3a3a1"/><stop offset="1" stop-color="#ffbc9c"/></linearGradient><linearGradient id="linear-gradient-2" x1="20.45" x2="21.45" xlink:href="#linear-gradient" y1="28.15" y2="28.15"/><linearGradient id="linear-gradient-3" x1="16.95" x2="38.98" xlink:href="#linear-gradient" y1="34.48" y2="34.48"/><linearGradient id="linear-gradient-4" x1="16.45" x2="39.48" xlink:href="#linear-gradient" y1="34.48" y2="34.48"/><linearGradient id="linear-gradient-5" x1="37.45" x2="42.95" xlink:href="#linear-gradient" y1="21.4" y2="21.4"/><linearGradient id="linear-gradient-6" x1="20.45" x2="21.45" xlink:href="#linear-gradient" y1="42.15" y2="42.15"/></defs><title/><g data-name="Layer 42" id="Layer_42"><path class="cls-1" d="M21,25.55v-7a3,3,0,0,1,3-3H38l7,8v22a3,3,0,0,1-3,3H24a3,3,0,0,1-3-3v-1"/><line class="cls-2" x1="20.95" x2="20.95" y1="28.55" y2="27.75"/><path class="cls-3" d="M18,36.55v2a1,1,0,0,0,1,1H38a1,1,0,0,0,1-1v-1"/><path class="cls-4" d="M38.22,38.77H17.71a.82.82,0,0,1-.76-.86V31.05a.82.82,0,0,1,.76-.86H38.22a.82.82,0,0,1,.76.86v6.86A.82.82,0,0,1,38.22,38.77Z"/><path class="cls-5" d="M38,23v.31a1.28,1.28,0,0,0,1.28,1.3l2.87,0a.26.26,0,0,0,.26-.25V24"/><path class="cls-6" d="M38,18.83v3.86A1.28,1.28,0,0,0,39.24,24h3.21"/><path class="cls-7" d="M21.77,31.72a.43.43,0,0,1,.07-.25.25.25,0,0,1,.21-.11h3.32a.24.24,0,0,1,.21.1.49.49,0,0,1,0,.52.22.22,0,0,1-.2.11H24.14v4.48a.23.23,0,0,1-.13.19.58.58,0,0,1-.3.07.6.6,0,0,1-.3-.07.22.22,0,0,1-.12-.19V32.09H22.05a.21.21,0,0,1-.2-.11A.38.38,0,0,1,21.77,31.72Z"/><path class="cls-7" d="M25.42,36.5s0,0,0-.06L27,31.58q.09-.27.57-.27c.31,0,.5.09.57.25l1.59,4.86a.2.2,0,0,1,0,.07q0,.13-.18.24a.82.82,0,0,1-.4.1c-.17,0-.27,0-.31-.16l-.33-1.07h-2l-.33,1.07c0,.11-.13.16-.29.16a.74.74,0,0,1-.36-.09A.3.3,0,0,1,25.42,36.5ZM26.76,35h1.59l-.8-2.57Z"/><path class="cls-7" d="M30.33,36.57v-5a.25.25,0,0,1,.08-.18.27.27,0,0,1,.2-.07h1.52c1.23,0,1.84.51,1.84,1.53a1.36,1.36,0,0,1-1.13,1.47l1.12,2a.2.2,0,0,1,0,.11.36.36,0,0,1-.16.28.61.61,0,0,1-.35.13.37.37,0,0,1-.33-.24L32,34.47h-.81v2.1a.22.22,0,0,1-.12.19.6.6,0,0,1-.3.07.58.58,0,0,1-.3-.07A.22.22,0,0,1,30.33,36.57Zm.84-2.73h1c.66,0,1-.29,1-.89s-.33-.89-1-.89h-1Z"/><line class="cls-8" x1="20.95" x2="20.95" y1="42.55" y2="41.75"/><path class="cls-5" d="M43,42.48v2.93a1,1,0,0,1-1,1l-.34,0"/></g></svg>