<?xml version="1.0" ?><svg viewBox="0 0 63 63" xmlns="http://www.w3.org/2000/svg" xmlns:xlink="http://www.w3.org/1999/xlink"><defs><style>.cls-1,.cls-7{fill:#fff;}.cls-1,.cls-2,.cls-5,.cls-6,.cls-8{stroke-linecap:round;}.cls-1,.cls-2,.cls-3,.cls-4,.cls-5,.cls-6,.cls-8{stroke-miterlimit:10;}.cls-1,.cls-4,.cls-6{fill-rule:evenodd;}.cls-1{stroke:url(#linear-gradient);}.cls-2,.cls-3,.cls-5,.cls-6,.cls-8{fill:none;}.cls-2{stroke:url(#linear-gradient-2);}.cls-3,.cls-5{stroke:#e0e0e0;}.cls-4{fill:url(#linear-gradient-3);stroke:url(#linear-gradient-4);}.cls-6{stroke:url(#linear-gradient-5);}.cls-8{stroke:url(#linear-gradient-6);}</style><linearGradient gradientUnits="userSpaceOnUse" id="linear-gradient" x1="20.45" x2="45.45" y1="32.05" y2="32.05"><stop offset="0" stop-color="#a900bf"/><stop offset="0.48" stop-color="#d661ad"/><stop offset="0.83" stop-color="#f3a3a1"/><stop offset="1" stop-color="#ffbc9c"/></linearGradient><linearGradient id="linear-gradient-2" x1="20.45" x2="21.45" xlink:href="#linear-gradient" y1="28.15" y2="28.15"/><linearGradient id="linear-gradient-3" x1="17.56" x2="39.58" xlink:href="#linear-gradient" y1="34.33" y2="34.33"/><linearGradient id="linear-gradient-4" x1="17.06" x2="40.08" xlink:href="#linear-gradient" y1="34.33" y2="34.33"/><linearGradient id="linear-gradient-5" x1="37.45" x2="42.95" xlink:href="#linear-gradient" y1="21.4" y2="21.4"/><linearGradient id="linear-gradient-6" x1="20.45" x2="21.45" xlink:href="#linear-gradient" y1="42.15" y2="42.15"/></defs><title/><g data-name="Layer 63" id="Layer_63"><path class="cls-1" d="M21,25.55v-7a3,3,0,0,1,3-3H38l7,8v22a3,3,0,0,1-3,3H24a3,3,0,0,1-3-3v-1"/><line class="cls-2" x1="20.95" x2="20.95" y1="28.55" y2="27.75"/><path class="cls-3" d="M18,36.55v2a1,1,0,0,0,1,1H38a1,1,0,0,0,1-1v-1"/><path class="cls-4" d="M38.83,38.62H18.32a.81.81,0,0,1-.76-.86V30.9a.81.81,0,0,1,.76-.85H38.83a.81.81,0,0,1,.75.85v6.86A.81.81,0,0,1,38.83,38.62Z"/><path class="cls-5" d="M38,23v.31a1.28,1.28,0,0,0,1.28,1.3l2.87,0a.26.26,0,0,0,.26-.25V24"/><path class="cls-6" d="M38,18.83v3.86A1.28,1.28,0,0,0,39.24,24h3.21"/><path class="cls-7" d="M20.24,36.47a.29.29,0,0,1,.05-.16l1.38-2.21-1.34-2.2a.35.35,0,0,1-.07-.2.3.3,0,0,1,.17-.25.7.7,0,0,1,.37-.11.38.38,0,0,1,.32.23l1.1,1.91,1.12-1.91a.36.36,0,0,1,.32-.23.66.66,0,0,1,.36.11.3.3,0,0,1,.17.25.41.41,0,0,1-.06.2l-1.35,2.2,1.39,2.21a.54.54,0,0,1,0,.16.31.31,0,0,1-.18.27.65.65,0,0,1-.37.12.29.29,0,0,1-.26-.18l-1.19-2-1.17,2a.31.31,0,0,1-.27.18.65.65,0,0,1-.36-.12A.31.31,0,0,1,20.24,36.47Z"/><path class="cls-7" d="M24.47,36.51s0,0,0-.07l1.59-4.85q.11-.27.57-.27c.32,0,.51.08.58.25l1.58,4.85a.41.41,0,0,1,0,.07c0,.1-.07.18-.19.25a1,1,0,0,1-.4.1.3.3,0,0,1-.31-.17l-.33-1.07h-2l-.32,1.07a.28.28,0,0,1-.3.17.65.65,0,0,1-.36-.1A.27.27,0,0,1,24.47,36.51ZM25.81,35H27.4l-.8-2.57Z"/><path class="cls-7" d="M29.38,36.58v-5a.23.23,0,0,1,.09-.18.38.38,0,0,1,.24-.08h1.56a2,2,0,0,1,1.28.4A1.56,1.56,0,0,1,33,33v.06a1.53,1.53,0,0,1-.49,1.26,2,2,0,0,1-1.31.4h-1v1.85a.22.22,0,0,1-.12.19.73.73,0,0,1-.3.07.7.7,0,0,1-.3-.07A.21.21,0,0,1,29.38,36.58Zm.85-2.48h1a1,1,0,0,0,.71-.25,1,1,0,0,0,.24-.73V33a.85.85,0,0,0-1-1h-1Z"/><path class="cls-7" d="M33.74,36.58v-5a.19.19,0,0,1,.13-.19.56.56,0,0,1,.3-.07.6.6,0,0,1,.3.07.2.2,0,0,1,.12.19v2.27l1.95-2.41a.29.29,0,0,1,.24-.12.58.58,0,0,1,.33.13.38.38,0,0,1,.16.29.22.22,0,0,1-.06.15l-1.54,1.8,1.82,2.6a.19.19,0,0,1,0,.14.36.36,0,0,1-.15.27.56.56,0,0,1-.34.12.35.35,0,0,1-.31-.15L35.11,34.4l-.52.61v1.57a.22.22,0,0,1-.12.19.73.73,0,0,1-.3.07.7.7,0,0,1-.3-.07A.23.23,0,0,1,33.74,36.58Z"/><line class="cls-8" x1="20.95" x2="20.95" y1="42.55" y2="41.75"/><path class="cls-5" d="M43,42.48v2.93a1,1,0,0,1-1,1l-.34,0"/></g></svg>