<?xml version="1.0" ?><!DOCTYPE svg  PUBLIC '-//W3C//DTD SVG 1.1//EN'  'http://www.w3.org/Graphics/SVG/1.1/DTD/svg11.dtd'><svg height="512px" style="enable-background:new 0 0 512 512;" version="1.1" viewBox="0 0 512 512" width="512px" xml:space="preserve" xmlns="http://www.w3.org/2000/svg" xmlns:xlink="http://www.w3.org/1999/xlink"><g id="comp_x5F_6-adobe"><g><g><g><path d="M313.641,70h165.561v372L313.641,70z M198.359,70H32.799v372L198.359,70z M256,207.66      L360.141,442h-70.719l-29.741-74.399h-76.24L256,207.66L256,207.66z" style="fill:#D30000;"/><path d="M479.197,452.001c-3.883,0-7.501-2.271-9.132-5.935l-165.561-372      c-1.377-3.093-1.095-6.673,0.749-9.513c1.845-2.84,5.001-4.553,8.387-4.553h165.561c5.522,0,10,4.477,10,10v372      c0,4.722-3.303,8.8-7.922,9.781C480.584,451.93,479.886,452.001,479.197,452.001z M329.037,80l140.164,314.937V80H329.037z       M32.803,452.001c-0.689,0-1.386-0.071-2.083-0.22c-4.619-0.981-7.921-5.06-7.921-9.781V70c0-5.523,4.477-10,10-10h165.561      c3.386,0,6.542,1.713,8.386,4.553c1.844,2.839,2.126,6.419,0.75,9.513l-165.561,372      C40.304,449.729,36.686,452.001,32.803,452.001z M42.799,80v314.937L182.963,80H42.799z M360.161,452c-0.007,0-0.013,0-0.021,0      h-70.719c-4.09,0-7.768-2.49-9.285-6.288l-27.228-68.111H183.44c-3.398,0-6.565-1.727-8.406-4.583      c-1.841-2.856-2.105-6.453-0.701-9.549l72.56-159.94c1.621-3.575,5.184-5.869,9.106-5.869c0.013,0,0.025,0,0.039,0      c3.938,0.015,7.5,2.34,9.1,5.939l103.885,233.766c0.727,1.386,1.138,2.963,1.138,4.636C370.161,447.522,365.684,452,360.161,452      z M296.193,432h48.561l-88.848-199.928l-56.948,125.528h60.723c4.09,0,7.768,2.49,9.285,6.288L296.193,432z" style="fill:#700000;"/></g></g></g></g><g id="Layer_1"/></svg>