<?xml version="1.0" ?><!DOCTYPE svg  PUBLIC '-//W3C//DTD SVG 1.1//EN'  'http://www.w3.org/Graphics/SVG/1.1/DTD/svg11.dtd'><svg height="512px" style="enable-background:new 0 0 512 512;" version="1.1" viewBox="0 0 512 512" width="512px" xml:space="preserve" xmlns="http://www.w3.org/2000/svg" xmlns:xlink="http://www.w3.org/1999/xlink"><g id="comp_x5F_12-algolia"><g><g><g><path d="M418.198,36.003H93.899c-31.919,0-57.847,25.928-57.847,57.847v324.2      c0,32.018,25.928,57.947,57.847,57.947h324.203c32.017,0,57.846-25.93,57.846-57.848V93.85      C476.048,61.931,450.118,36.003,418.198,36.003z" style="fill:#5468FF;"/><g><path d="M418.102,485.997H93.899c-37.411,0-67.847-30.481-67.847-67.947V93.85       c0-37.411,30.436-67.847,67.847-67.847h324.299c18.142,0,35.19,7.08,48.006,19.935c12.788,12.829,19.8,29.856,19.743,47.943       v324.268C485.947,455.561,455.512,485.997,418.102,485.997z M93.899,46.003c-26.383,0-47.847,21.464-47.847,47.847v324.2       c0,26.438,21.464,47.947,47.847,47.947h324.203c26.382,0,47.846-21.464,47.846-47.848V93.85       c0.04-12.765-4.899-24.755-13.908-33.792c-9.035-9.063-21.053-14.055-33.841-14.055H93.899z" style="fill:#3F4EBF;"/></g></g><g><path d="M222.397,118.559c0-10.607,8.544-19.151,19.151-19.151h44.491      c10.607,0,19.152,8.543,19.152,19.151v15.125c0,1.768-1.67,2.947-3.241,2.456c-12.08-3.34-24.651-5.009-37.421-5.009      c-13.257,0-26.222,1.767-38.694,5.401c-1.671,0.492-3.341-0.786-3.341-2.456v-15.517H222.397z" style="fill:#FFFFFF;"/><g><path d="M225.101,146.638c-6.952,0-12.607-5.635-12.607-12.562v-14.132       c-0.064-0.453-0.097-0.916-0.097-1.385c0-16.074,13.077-29.151,29.151-29.151h44.491c16.074,0,29.152,13.077,29.152,29.151       v15.125c0,6.929-5.612,12.567-12.511,12.568c-1.183,0-2.356-0.168-3.493-0.5c-11.125-3.066-22.785-4.621-34.658-4.621       c-12.428,0-24.505,1.683-35.897,5.002C227.5,146.465,226.304,146.638,225.101,146.638z M232.447,117.595       c0.031,0.317,0.047,0.638,0.047,0.963v5.969c10.359-2.258,21.091-3.397,32.035-3.397c10.402,0,20.679,1.041,30.662,3.1v-5.672       c0-5.046-4.105-9.151-9.152-9.151h-44.491C236.828,109.408,232.93,113,232.447,117.595z" style="fill:#3F4EBF;"/></g></g><g><path d="M128.828,161.271l9.036-9.036c7.464-7.464,19.544-7.464,27.009,0l7.562,7.562      c1.08,1.081,0.983,2.946-0.293,3.929c-6.09,4.42-11.885,9.232-17.287,14.633c-5.303,5.304-10.213,11.097-14.535,17.089      c-0.982,1.276-2.848,1.473-3.928,0.294l-7.563-7.563C121.364,180.814,121.364,168.735,128.828,161.271L128.828,161.271z" style="fill:#FFFFFF;"/><g><path d="M138.176,206.526c-3.372,0-6.616-1.382-8.947-3.803l-7.472-7.471       c-5.457-5.385-8.501-12.644-8.527-20.394c-0.025-7.797,3.002-15.134,8.527-20.658l9.036-9.036       c5.498-5.499,12.805-8.527,20.575-8.527s15.077,3.028,20.576,8.527l7.562,7.563c2.552,2.553,3.88,6.092,3.646,9.712       c-0.235,3.632-2.024,6.99-4.908,9.21c-0.075,0.058-0.151,0.115-0.228,0.17c-6.078,4.411-11.341,8.863-16.091,13.612       c-4.883,4.884-9.424,10.223-13.495,15.867c-0.061,0.084-0.123,0.167-0.186,0.25       C145.844,204.666,142.081,206.526,138.176,206.526z M151.368,156.638c-2.427,0-4.711,0.948-6.433,2.669l-9.037,9.036       c-1.729,1.729-2.677,4.019-2.668,6.45c0.008,2.382,0.939,4.609,2.622,6.271l1.64,1.64c3.241-3.987,6.684-7.807,10.29-11.414       c3.603-3.602,7.438-7.04,11.604-10.398l-1.585-1.585C156.08,157.585,153.795,156.638,151.368,156.638z" style="fill:#3F4EBF;"/></g></g><g><path d="M264.432,412.593c-68.75,0-124.337-55.689-124.337-124.338      c0-68.652,55.687-124.339,124.337-124.339c68.75,0,124.339,55.588,124.339,124.339      C388.771,356.808,333.084,412.593,264.432,412.593z" style="fill:#FFFFFF;"/><g><path d="M264.432,422.593c-74.074,0-134.337-60.264-134.337-134.338       c0-74.075,60.264-134.339,134.337-134.339c35.922,0,69.668,13.963,95.021,39.317c25.354,25.354,39.317,59.1,39.317,95.022       C398.771,362.329,338.506,422.593,264.432,422.593z M264.432,173.916c-63.046,0-114.337,51.292-114.337,114.339       c0,63.046,51.292,114.338,114.337,114.338c63.047,0,114.339-51.292,114.339-114.338       C378.771,225.208,327.479,173.916,264.432,173.916z" style="fill:#3F4EBF;"/></g></g><g><path d="M264.432,200.549c-48.419,0-87.605,39.187-87.605,87.608c0,48.418,39.186,87.605,87.605,87.605      c48.42,0,87.607-39.188,87.607-87.605C352.039,239.736,312.753,200.549,264.432,200.549L264.432,200.549z" style="fill:#FFFFFF;"/><g><path d="M264.432,385.763c-53.819,0-97.605-43.785-97.605-97.605c0-53.821,43.786-97.608,97.605-97.608       c53.821,0,97.607,43.787,97.607,97.608C362.039,341.978,318.253,385.763,264.432,385.763z M264.432,210.549       c-42.792,0-77.605,34.815-77.605,77.608c0,42.792,34.813,77.605,77.605,77.605c42.793,0,77.607-34.813,77.607-77.605       C342.039,245.364,307.225,210.549,264.432,210.549z" style="fill:#3F4EBF;"/></g></g><g><path d="M307.268,265.331l-41.417,21.518c-1.267,0.633-2.673-0.281-2.673-1.619v-46.76      c0-1.055,0.914-1.898,1.898-1.827c18.424,0.702,34.386,11.039,42.964,26.087C308.533,263.644,308.181,264.839,307.268,265.331z" style="fill:#FFFFFF;"/><g><path d="M265.001,297.054c-6.52,0-11.823-5.305-11.823-11.824v-46.76       c0-6.723,5.648-12.164,12.378-11.816c21.42,0.85,40.544,12.479,51.172,31.124c0.039,0.067,0.076,0.136,0.113,0.204       c1.502,2.784,1.832,5.998,0.929,9.048c-0.91,3.07-2.955,5.594-5.757,7.104c-0.045,0.023-0.09,0.048-0.135,0.071l-41.417,21.518       c-0.047,0.024-0.094,0.048-0.141,0.071C268.671,296.618,266.832,297.054,265.001,297.054z M273.178,247.824v23.949       l21.236-11.032C288.81,254.345,281.426,249.854,273.178,247.824z" style="fill:#3F4EBF;"/></g></g></g></g></g><g id="Layer_1"/></svg>