<?xml version="1.0" ?><!DOCTYPE svg  PUBLIC '-//W3C//DTD SVG 1.1//EN'  'http://www.w3.org/Graphics/SVG/1.1/DTD/svg11.dtd'><svg height="512px" style="enable-background:new 0 0 512 512;" version="1.1" viewBox="0 0 512 512" width="512px" xml:space="preserve" xmlns="http://www.w3.org/2000/svg" xmlns:xlink="http://www.w3.org/1999/xlink"><g id="comp_x5F_30-atlassian"><g><g><g><path d="M153.234,238.396c-6.918-7.366-17.699-6.918-22.28,2.516l-113.021,225.5      c-4.492,8.985,2.155,19.497,12.038,19.497h157.223c5.21,0.09,9.883-2.876,12.039-7.547      C233.283,408.466,212.799,302.003,153.234,238.396L153.234,238.396z" style="fill:#094AA5;"/><g><path d="M187.425,495.911C187.424,495.911,187.425,495.911,187.425,495.911l-0.231-0.002H29.972       c-8.167,0-15.621-4.172-19.94-11.16c-4.308-6.971-4.698-15.497-1.042-22.809l113.001-225.462       c4.034-8.25,11.628-13.173,20.33-13.173c6.647,0,13.282,3.005,18.203,8.246c30.103,32.146,51.634,75.677,60.636,122.585       c9.053,47.175,4.474,92.813-12.897,128.524C204.495,490.714,196.328,495.911,187.425,495.911z M142.321,243.305       c-0.386,0-1.412,0-2.371,1.975c-0.019,0.038-0.037,0.075-0.056,0.112l-113.021,225.5c-0.736,1.474-0.209,2.727,0.171,3.341       c0.311,0.504,1.22,1.676,2.927,1.676h157.223c0.058,0,0.115,0.001,0.172,0.002h0.058c1.188,0,2.234-0.667,2.729-1.74       c0.029-0.063,0.059-0.126,0.089-0.188c32.059-65.81,12.182-168.427-44.309-228.75       C144.806,244.029,143.451,243.305,142.321,243.305z" style="fill:#07387C;"/></g></g><g><path d="M255.068,33.29c-109.876,173.752-7.638,313.184,58.396,445.161      c2.246,4.583,6.918,7.549,12.039,7.549h156.504c10.063,0,16.53-10.602,12.039-19.497c0,0-210.679-422.792-215.98-433.303      C273.306,23.676,261.177,23.497,255.068,33.29z" style="fill:#2681FF;"/><g><path d="M482.008,495.999H325.504c-8.854,0-17.104-5.161-21.019-13.148       c-8.021-16.03-16.446-31.915-25.365-48.732c-31.583-59.551-64.242-121.128-76.988-187.875       c-14.603-76.465-0.051-147.871,44.485-218.298C251.269,20.485,258.917,16,267.042,16c8.521,0,15.985,4.758,19.969,12.728       c5.236,10.38,213.88,429.085,215.986,433.314c3.667,7.263,3.303,15.8-0.998,22.789       C497.696,491.824,490.223,495.999,482.008,495.999z M267.042,36c-1.177,0-2.48,0.965-3.489,2.582       c-93.312,147.559-28.979,268.858,33.235,386.165c8.582,16.181,17.456,32.912,25.62,49.229c0.616,1.258,1.817,2.023,3.096,2.023       h156.504c1.69,0,2.579-1.033,2.958-1.649c0.378-0.614,0.9-1.864,0.154-3.341c-2.13-4.274-210.752-422.937-215.982-433.306       C268.567,36.563,267.868,36,267.042,36z" style="fill:#1D61BF;"/></g></g></g></g></g><g id="Layer_1"/></svg>