<?xml version="1.0" ?><!DOCTYPE svg  PUBLIC '-//W3C//DTD SVG 1.1//EN'  'http://www.w3.org/Graphics/SVG/1.1/DTD/svg11.dtd'><svg height="512px" style="enable-background:new 0 0 512 512;" version="1.1" viewBox="0 0 512 512" width="512px" xml:space="preserve" xmlns="http://www.w3.org/2000/svg" xmlns:xlink="http://www.w3.org/1999/xlink"><g id="comp_x5F_34-avianex"><g><g><path d="M362.288,446H105.867c-31.435,0-55.433-28.085-50.53-59.135l43.845-277.688     C103.109,84.313,124.54,66,149.713,66h256.421c31.434,0,55.432,28.084,50.529,59.134l-43.846,277.688     C408.892,427.687,387.46,446,362.288,446z" style="fill:#2C3441;"/><path d="M362.288,456H105.867c-17.912,0-34.858-7.81-46.494-21.428     c-11.636-13.617-16.708-31.574-13.914-49.267l43.845-277.688C94.028,77.708,119.433,56,149.713,56h256.421     c17.911,0,34.857,7.81,46.493,21.427s16.707,31.575,13.914,49.267l-43.846,277.688C417.973,434.291,392.567,456,362.288,456z      M149.713,76c-20.377,0-37.474,14.609-40.653,34.737L65.215,388.425c-1.88,11.906,1.533,23.991,9.363,33.155     S93.813,436,105.867,436h256.421c20.377,0,37.474-14.609,40.651-34.737l43.846-277.688c1.88-11.907-1.533-23.991-9.363-33.155     C429.591,81.256,418.188,76,406.134,76H149.713z" style="fill:#212731;"/></g><g><path d="M370.622,357.268l-27.321,11.526l-98.523-93.913c-12.712,10.244-22.712,18.369-35.602,31.119     l18.867,46.827l-15.282,10.845l-34.662-52.08l-44.737-41.065l13.404-13.146L192.065,276     c15.625-10.875,20.375-13.75,32.223-21.863l-17.503-25.273l-58.738-85.205l16.05-24.673l7.599-4.098l88.021,95.962l4.185,3.841     c16.563-16.05,28.855-27.66,28.855-27.66c6.575-5.55,18.357-2.477,26.211,6.743c7.685,8.965,9.049,21.089,2.306,26.723     c-1.537,1.111-13.234,9.732-30.139,21.857l3.843,6.231L376,350.523L370.622,357.268L370.622,357.268z" style="fill:#FFFFFF;"/><path d="M343.303,378.794c-2.522,0-5.005-0.954-6.901-2.762l-92.166-87.854     c-7.656,6.232-14.967,12.399-23.273,20.314l16.357,40.597c1.73,4.294,0.287,9.214-3.488,11.893l-15.282,10.845     c-2.205,1.565-4.95,2.167-7.609,1.678c-2.659-0.493-5.005-2.041-6.503-4.292l-33.992-51.072L126.6,277.894     c-2.021-1.855-3.191-4.459-3.236-7.202c-0.045-2.742,1.038-5.384,2.996-7.305l13.404-13.146c2.855-2.8,7.105-3.63,10.804-2.11     l40.27,16.553c6.804-4.695,11.389-7.757,15.848-10.735c1.215-0.811,2.408-1.608,3.628-2.426l-11.75-16.966l-58.75-85.223     c-2.3-3.336-2.359-7.731-0.149-11.128l16.049-24.673c0.913-1.403,2.163-2.555,3.637-3.349l7.599-4.098     c4.028-2.173,9.021-1.333,12.115,2.042l84.917,92.578c12.802-12.341,21.805-20.846,21.909-20.945     c0.136-0.128,0.274-0.252,0.416-0.372c3.974-3.354,9.006-5.126,14.556-5.126c9.155,0,18.77,4.87,25.718,13.026     c6.389,7.453,9.656,16.646,8.944,25.196c-0.527,6.332-3.312,11.902-7.84,15.685c-0.18,0.15-0.364,0.293-0.554,0.431     c-0.29,0.209-0.951,0.693-1.947,1.423c-3.476,2.544-10.676,7.814-20.398,14.829l79.042,99.449     c2.899,3.647,2.896,8.813-0.01,12.456l-5.378,6.744c-1.041,1.306-2.393,2.33-3.932,2.979l-27.321,11.526     C345.934,378.536,344.613,378.794,343.303,378.794z M244.776,264.881c2.493,0,4.978,0.928,6.902,2.762l93.777,89.39l17.183-7.25     l-75.487-94.976c-0.247-0.311-0.476-0.635-0.684-0.973l-3.843-6.231c-2.757-4.471-1.585-10.313,2.684-13.375     c13.596-9.751,23.734-17.173,28.064-20.342c0.694-0.509,1.234-0.904,1.607-1.176c0.436-0.481,0.571-1.371,0.614-1.883     c0.197-2.365-0.789-6.545-4.218-10.544c-3.548-4.165-7.832-6.019-10.513-6.019c-0.402,0-1.11,0.045-1.549,0.331     c-2.011,1.903-13.568,12.854-28.453,27.278c-3.805,3.685-9.819,3.768-13.721,0.186l-4.185-3.841     c-0.211-0.194-0.414-0.396-0.607-0.607l-82.189-89.604l-10.077,15.491l54.937,79.691l17.491,25.256     c1.515,2.188,2.096,4.889,1.613,7.506c-0.483,2.618-1.989,4.934-4.184,6.438c-4.826,3.305-8.547,5.789-12.145,8.192     c-5.295,3.536-10.77,7.192-20.016,13.628c-2.788,1.941-6.371,2.332-9.514,1.041l-39.202-16.113l-1.173,1.15l36.973,33.938     c0.592,0.544,1.117,1.157,1.563,1.826l28.953,43.503l0.44-0.313l-15.917-39.504c-1.506-3.737-0.622-8.013,2.243-10.847     c13.614-13.468,24.155-21.961,36.36-31.796C240.341,265.613,242.562,264.881,244.776,264.881z" style="fill:#212731;"/></g></g></g><g id="Layer_1"/></svg>