<?xml version="1.0" ?><!DOCTYPE svg  PUBLIC '-//W3C//DTD SVG 1.1//EN'  'http://www.w3.org/Graphics/SVG/1.1/DTD/svg11.dtd'><svg height="512px" style="enable-background:new 0 0 512 512;" version="1.1" viewBox="0 0 512 512" width="512px" xml:space="preserve" xmlns="http://www.w3.org/2000/svg" xmlns:xlink="http://www.w3.org/1999/xlink"><g id="comp_x5F_36-baidu"><g><g><g><path d="M307.96,173.161c27.958,7.188,58.516-17.788,68.099-55.791      c12.541-49.415-15.771-79.42-33.24-81.759c-28.676-3.771-58.514,17.788-68.099,55.795      C265.131,129.405,279.918,165.974,307.96,173.161L307.96,173.161z" style="fill:#2B33E0;"/><path d="M317.735,184.394C317.733,184.394,317.736,184.394,317.735,184.394      c-4.145,0-8.271-0.521-12.266-1.548c-16.695-4.279-30.019-16.798-37.507-35.247c-7.053-17.375-8.097-38.201-2.939-58.64      c4.74-18.795,14.163-34.821,27.249-46.346c12.761-11.238,28.403-17.427,44.047-17.427c2.604,0,5.229,0.172,7.803,0.51      c11.396,1.526,23.338,10.054,31.969,22.817c7.538,11.148,18.817,35.237,9.66,71.316      C376.319,157.233,347.711,184.394,317.735,184.394z M336.319,45.187c-23.334,0-44.677,20.012-51.903,48.665      c-8.228,32.604,3.448,63.835,26.026,69.623c2.377,0.611,4.828,0.92,7.292,0.92c20.61,0,41.517-21.267,48.628-49.469      c7.24-28.53-1.178-46.834-6.84-55.208c-6.018-8.899-13.565-13.597-18.031-14.194C339.802,45.301,338.054,45.187,336.319,45.187z      " style="fill:#2026A8;"/></g><g><path d="M245.866,96.254c0,38.803-22.703,70.26-50.712,70.26c-28.006,0-50.714-31.457-50.714-70.26      c0-38.798,22.708-70.253,50.714-70.253C223.163,26.001,245.866,57.455,245.866,96.254L245.866,96.254z" style="fill:#2B33E0;"/><path d="M195.153,176.514c-16.843,0-32.458-8.781-43.968-24.726      c-10.799-14.961-16.747-34.683-16.747-55.534c0-20.849,5.947-40.569,16.747-55.529c11.509-15.944,27.124-24.724,43.967-24.724      c16.845,0,32.459,8.78,43.968,24.724c10.798,14.959,16.745,34.679,16.745,55.529c0,20.851-5.947,40.573-16.744,55.533      C227.613,167.732,211.998,176.514,195.153,176.514z M195.153,36.001c-10.247,0-20.103,5.835-27.751,16.431      c-8.359,11.58-12.963,27.143-12.963,43.822c0,16.682,4.604,32.247,12.963,43.828c7.648,10.596,17.504,16.432,27.751,16.432      c10.248,0,20.104-5.835,27.751-16.431c8.358-11.581,12.961-27.146,12.961-43.829c0-16.681-4.603-32.244-12.961-43.823      C215.257,41.836,205.401,36.001,195.153,36.001z" style="fill:#2026A8;"/></g><g><path d="M417.585,160.001c-29.48,0.454-52.777,28.483-52.151,72.055      c0.632,43.483,25.002,63.344,54.479,62.891c29.393-0.445,52.774-20.932,52.145-64.419      C474.421,170,424.665,159.912,417.585,160.001L417.585,160.001z" style="fill:#2B33E0;"/><path d="M418.93,304.954c-17.946-0.001-33.406-6.397-44.709-18.5      c-11.96-12.805-18.456-31.565-18.786-54.253c-0.333-23.161,5.477-43.341,16.8-58.361c11.382-15.098,27.433-23.564,45.196-23.838      c0.052,0,0.197-0.001,0.249-0.001c6.167,0,27.551,3.928,44.336,21.381c14.206,14.771,20.949,34.71,20.045,59.268      c0.281,22.827-5.714,41.799-17.345,54.874c-11.058,12.431-26.498,19.146-44.651,19.422      C419.686,304.951,419.309,304.954,418.93,304.954z M417.659,170c-11.38,0.176-21.868,5.815-29.454,15.878      c-8.501,11.276-13.037,27.625-12.772,46.033c0.489,33.707,16.344,53.041,43.497,53.042c0.277,0,0.552-0.002,0.83-0.007      c27.376-0.414,42.793-20.197,42.299-54.275c-0.003-0.179,0-0.357,0.007-0.535c0.735-18.828-4.021-33.815-14.135-44.545      C436.034,172.973,420.27,170.052,417.659,170z" style="fill:#2026A8;"/></g><g><path d="M87.363,130.568c28.832-2.023,54.417,28.043,57.141,67.145      c2.729,39.106-18.427,72.452-47.258,74.471c-28.829,2.021-54.417-28.038-57.149-67.142      C37.376,165.934,58.531,132.592,87.363,130.568L87.363,130.568z" style="fill:#2B33E0;"/><path d="M94.5,282.28c-33.102,0-61.38-33.621-64.378-76.542c-1.463-21.032,3.272-41.345,13.333-57.199      c10.671-16.815,26.017-26.741,43.208-27.947c1.144-0.08,2.304-0.121,3.448-0.121c33.104,0,61.378,33.623,64.369,76.546      c1.468,21.027-3.265,41.34-13.326,57.196c-10.671,16.817-26.017,26.741-43.21,27.945C96.802,282.239,95.643,282.28,94.5,282.28z       M90.111,140.472c-0.679,0-1.368,0.024-2.048,0.072c-10.695,0.75-20.541,7.396-27.722,18.712      c-7.791,12.276-11.437,28.29-10.268,45.092c2.231,31.942,22.161,57.932,44.427,57.932c0.679,0,1.367-0.024,2.046-0.072      c10.696-0.749,20.54-7.393,27.721-18.709c7.79-12.276,11.434-28.29,10.262-45.089      C132.302,166.462,112.377,140.472,90.111,140.472z" style="fill:#2026A8;"/></g><g><path d="M379.026,326.883c-25.181-22.188-46.592-40.339-80.012-86.879      c-16.58-22.999-35.665-25.96-55.556-25.96c-19.98,0-41.038,7.009-57.162,30.362c-16.132,23.268-34.5,46.091-70.157,75.826      c-35.574,29.83-50.719,50.405-50.719,80.777c0,30.362,17.294,80.768,66.394,80.768c49.103,0,72.843-10.878,111.73-10.878      c38.889,0,64.602,15.1,113.707,15.1c49.105,0,69.619-46.636,69.619-76.903C426.871,378.723,418.362,361.566,379.026,326.883      L379.026,326.883z" style="fill:#2B33E0;"/><path d="M357.251,495.999c-27.058,0-47.663-4.482-65.843-8.438c-15.75-3.426-30.627-6.662-47.864-6.662      c-17.509,0-32.074,2.35-47.495,4.837c-17.555,2.831-37.453,6.041-64.235,6.041c-55.654,0-76.394-55.675-76.394-90.768      c0-35.892,19.907-59.606,54.293-88.439c33.757-28.151,51.741-49.885,68.364-73.862c15.877-22.996,37.878-34.665,65.38-34.665      c21.793,0,44.59,3.648,63.668,30.112c31.469,43.822,51.913,61.815,75.586,82.648l2.925,2.575      c40.222,35.465,51.233,54.749,51.232,89.716C436.87,445.181,412.168,495.999,357.251,495.999z M243.544,460.899      c19.387,0,35.285,3.458,52.115,7.119c18.035,3.924,36.685,7.98,61.592,7.98c45.046,0,59.619-45.074,59.619-66.903      c0.001-26.646-6.425-41.178-44.457-74.712l-2.913-2.564c-24.589-21.64-45.824-40.328-78.608-85.982      c-13.138-18.225-27.342-21.793-47.433-21.793c-20.827,0-36.833,8.519-48.933,26.044c-17.562,25.33-36.517,48.249-71.981,77.824      C86.876,357.821,75.42,375.587,75.42,401.01c0,27.36,15.311,70.768,56.394,70.768c25.18,0,43.416-2.941,61.051-5.786      C209.099,463.373,224.432,460.899,243.544,460.899z" style="fill:#2026A8;"/></g></g></g></g><g id="Layer_1"/></svg>