<?xml version="1.0" ?><!DOCTYPE svg  PUBLIC '-//W3C//DTD SVG 1.1//EN'  'http://www.w3.org/Graphics/SVG/1.1/DTD/svg11.dtd'><svg height="512px" style="enable-background:new 0 0 512 512;" version="1.1" viewBox="0 0 512 512" width="512px" xml:space="preserve" xmlns="http://www.w3.org/2000/svg" xmlns:xlink="http://www.w3.org/1999/xlink"><g id="comp_x5F_40-bimobject"><g><g><g><path d="M436,46.001H76.001c-16.5,0-29.999,13.501-29.999,30v359.998c0,16.501,13.499,30,29.999,30H436      c16.5,0,29.998-13.499,29.998-30V76.001C465.998,59.502,452.5,46.001,436,46.001z" style="fill:#0099E5;"/><path d="M436,475.999H76.001c-22.056,0-39.999-17.944-39.999-40V76.001c0-22.056,17.943-40,39.999-40H436      c22.055,0,39.998,17.944,39.998,40v359.998C475.998,458.055,458.055,475.999,436,475.999z M76.001,56.001      c-11.027,0-19.999,8.972-19.999,20v359.998c0,11.028,8.972,20,19.999,20H436c11.027,0,19.998-8.972,19.998-20V76.001      c0-11.028-8.971-20-19.998-20H76.001z" style="fill:#0073AC;"/></g><g><path d="M375.999,287.314c0,46.312-10.687,77.434-97.31,77.434h-15.845      c-41.343,0-58.501-13.967-66-36.372H196V360h-56V140h56v73.531h1.031c4.313-28.593,37.219-36.375,65.344-36.375h16.219      c86.625,0,97.313,31.032,97.313,77.344v32.814H375.999z" style="fill:#0099E5;"/><path d="M278.689,374.748h-15.845c-25.109,0-43.8-4.994-56.845-15.422V370h-76V130h76v51.557      c13.035-9.361,32.228-14.401,56.375-14.401h16.219c43.706,0,71.739,7.705,88.224,24.246      c16.776,16.834,19.089,40.275,19.089,63.098v22.814l0.093,10c0,22.83-2.312,46.279-19.082,63.137      C350.426,367.027,322.391,374.748,278.689,374.748z M186,318.376h18.043l2.285,6.826c5.136,15.346,15.538,29.546,56.517,29.546      h15.845c77.593,0,86.614-24.363,87.267-62.046l-0.05-5.388V254.5c0-40.679-6.077-67.344-87.313-67.344h-16.219      c-15.41,0-51.662,2.715-55.456,27.866l-1.283,8.509H186V150h-36v200h36V318.376z" style="fill:#0073AC;"/></g><g><path d="M310,262.763v16.402c0,15.543-2.436,24.209-27.505,24.209h-32.446      c-20.699,0-31.587-4.656-31.587-25.571v-13.607c0-20.986,10.888-25.57,31.587-25.57h32.446      C307.564,238.482,310,247.221,310,262.763L310,262.763z" style="fill:#0099E5;"/><path d="M282.495,313.374h-32.446c-12.444,0-41.587,0-41.587-35.571v-13.607      c0-35.57,29.143-35.57,41.587-35.57l33.046-0.002c14.883,0,24.169,2.971,30.108,9.633c6.271,7.034,6.797,16.338,6.797,24.506      v16.402c0,8.237-0.538,17.617-6.958,24.666C307.031,310.431,297.61,313.374,282.495,313.374z M283.095,248.623l-0.543,0.002      h-32.503c-9.046,0-14.857,1.004-17.767,3.069c-1.045,0.742-3.82,2.712-3.82,12.501v13.607c0,9.756,2.782,11.736,3.83,12.481      c2.921,2.079,8.73,3.09,17.757,3.09h32.446c11.751,0,14.937-2.104,15.76-3.009c1.547-1.698,1.745-6.878,1.745-11.2v-16.402      c0-4.313-0.196-9.482-1.725-11.196C297.486,250.681,294.428,248.623,283.095,248.623z" style="fill:#0073AC;"/></g></g></g></g><g id="Layer_1"/></svg>