<?xml version="1.0" ?><!DOCTYPE svg  PUBLIC '-//W3C//DTD SVG 1.1//EN'  'http://www.w3.org/Graphics/SVG/1.1/DTD/svg11.dtd'><svg height="512px" style="enable-background:new 0 0 512 512;" version="1.1" viewBox="0 0 512 512" width="512px" xml:space="preserve" xmlns="http://www.w3.org/2000/svg" xmlns:xlink="http://www.w3.org/1999/xlink"><g id="comp_x5F_44-bitbucket"><g><g><g><path d="M51.327,59.178c-7.716-0.088-14.117,6.05-14.206,13.855c0,0.789,0.089,1.666,0.177,2.455      L96.84,436.862c1.49,9.119,9.383,15.873,18.678,15.959h285.607c6.929,0.089,12.891-4.91,14.032-11.75l59.541-365.496      c1.228-7.628-3.946-14.819-11.575-16.047c-0.789-0.087-1.578-0.175-2.453-0.175L51.327,59.178L51.327,59.178z M302.036,320.322      h-91.198l-24.642-128.907h137.937L302.036,320.322L302.036,320.322z" style="fill:#2684FF;"/><path d="M401.308,462.822C401.307,462.822,401.308,462.822,401.308,462.822l-0.183-0.001H115.518      c-14.296-0.132-26.263-10.371-28.547-24.346L27.431,77.114c-0.028-0.172-0.052-0.345-0.071-0.519      c-0.124-1.111-0.238-2.312-0.238-3.562c0-0.038,0-0.076,0-0.114c0.149-13.091,10.934-23.742,24.042-23.742l0.168,0.001      l409.342,0.176c1.411,0,2.581,0.129,3.521,0.232c0.165,0.018,0.354,0.043,0.518,0.069c13.054,2.101,21.962,14.441,19.859,27.509      l-59.544,365.514C423.076,454.367,413.104,462.822,401.308,462.822z M401.125,442.821c0.043,0,0.086,0,0.128,0.001h0.055      c1.981,0,3.657-1.429,3.986-3.397l59.534-365.457c0.339-2.103-1.051-4.107-3.121-4.534c-0.437-0.047-0.78-0.08-1.037-0.08      L51.323,69.178c-0.037,0-0.104,0.004-0.11,0c-2.269,0-4.032,1.709-4.091,3.904c0.006,0.255,0.053,0.727,0.087,1.047      l59.498,361.107c0.712,4.359,4.456,7.544,8.903,7.585H401.125z M302.036,330.322h-91.198c-4.799,0-8.921-3.409-9.822-8.122      l-24.642-128.907c-0.56-2.928,0.216-5.953,2.116-8.25c1.9-2.297,4.726-3.627,7.707-3.627h137.937c2.947,0,5.745,1.3,7.646,3.554      c1.899,2.253,2.709,5.23,2.211,8.136l-22.097,128.907C311.069,326.813,306.907,330.322,302.036,330.322z M219.107,310.322      h74.497l18.668-108.907H198.289L219.107,310.322z" style="fill:#1D63BF;"/></g></g></g></g><g id="Layer_1"/></svg>