<?xml version="1.0" ?><!DOCTYPE svg  PUBLIC '-//W3C//DTD SVG 1.1//EN'  'http://www.w3.org/Graphics/SVG/1.1/DTD/svg11.dtd'><svg height="512px" style="enable-background:new 0 0 512 512;" version="1.1" viewBox="0 0 512 512" width="512px" xml:space="preserve" xmlns="http://www.w3.org/2000/svg" xmlns:xlink="http://www.w3.org/1999/xlink"><g id="comp_x5F_47-blackberry"><g><g><g><path d="M175.171,131.003c0,21.027-14.737,44.122-65.149,44.122H47.028l18.871-79.797h60.926      C164.657,95.328,175.171,116.267,175.171,131.003z M288.574,95.328h-60.925l-16.803,79.797h62.99      c48.345,0,62.994-23.095,62.994-44.122C336.919,116.267,326.405,95.328,288.574,95.328L288.574,95.328z M105.798,212.958H44.873      l-18.872,79.796h62.993c50.412,0,65.15-21.027,65.15-44.123C154.145,233.984,143.629,212.958,105.798,212.958L105.798,212.958z       M267.636,212.958h-60.924l-16.804,79.796h62.993c48.343,0,62.989-21.027,62.989-44.123      C315.891,233.984,305.378,212.958,267.636,212.958L267.636,212.958z M437.743,164.611h-60.926l-16.805,79.796h62.994      c48.344,0,62.991-21.027,62.991-44.122C486.089,185.639,475.574,164.611,437.743,164.611z M412.583,288.532h-60.926      l-16.805,79.793h62.992c50.412,0,62.994-21.027,62.994-44.12C460.839,309.558,450.413,288.532,412.583,288.532L412.583,288.532z       M242.388,336.875H181.46l-16.803,79.797h62.992c50.411,0,62.99-23.094,62.99-44.121      C290.731,357.902,280.217,336.875,242.388,336.875L242.388,336.875z" style="fill:#333333;"/><path d="M227.649,426.672h-62.992c-3.014,0-5.867-1.359-7.766-3.699c-1.898-2.341-2.641-5.412-2.02-8.361l16.802-79.797      c0.975-4.627,5.057-7.939,9.786-7.939h60.928c20.072,0,35.53,5.313,45.944,15.793c7.891,7.941,12.377,18.855,12.308,29.945      C300.64,388.823,293.527,426.672,227.649,426.672z M176.982,406.672h50.667c35.162,0,52.99-11.479,52.99-34.121      c0.018-2.808-0.581-9.835-6.494-15.784c-6.43-6.472-17.412-9.892-31.758-9.892h-52.814L176.982,406.672z M397.845,378.325      h-62.992c-3.014,0-5.867-1.359-7.766-3.699c-1.898-2.341-2.641-5.412-2.02-8.361l16.805-79.793      c0.975-4.627,5.057-7.939,9.785-7.939h60.926c19.628,0,34.856,5.098,45.263,15.152c8.257,7.978,12.993,19.103,12.993,30.521      C470.839,348.895,458.175,378.325,397.845,378.325z M347.178,358.325h50.667c46.971,0,52.994-18.234,52.994-34.12      c0-6.022-2.759-25.673-38.256-25.673h-52.813L347.178,358.325z M252.901,302.754h-62.993c-3.014,0-5.867-1.359-7.766-3.699      c-1.899-2.341-2.641-5.412-2.02-8.361l16.804-79.796c0.975-4.627,5.057-7.939,9.786-7.939h60.924      c19.591,0,34.807,5.097,45.224,15.148c8.281,7.99,13.031,19.116,13.031,30.526c0,15.811-5.857,29.083-16.938,38.382      C296.507,297.458,277.648,302.754,252.901,302.754z M202.233,282.754h50.668c35.161,0,52.989-11.48,52.989-34.123      c0-12.412-10.05-25.674-38.255-25.674h-52.81L202.233,282.754z M88.994,302.754H26.001c-3.057,0-5.946-1.398-7.843-3.796      s-2.592-5.53-1.889-8.506l18.872-79.796c1.067-4.512,5.095-7.698,9.731-7.698h60.925c19.626,0,34.867,5.095,45.297,15.142      c8.293,7.988,13.049,19.117,13.049,30.532C164.145,268.845,154.381,302.754,88.994,302.754z M38.642,282.754h50.352      c20.893,0,36.087-3.752,45.16-11.15c6.723-5.482,9.991-12.997,9.991-22.972c0-12.412-10.074-25.674-38.347-25.674H52.784      L38.642,282.754z M423.007,254.408h-62.994c-3.014,0-5.867-1.359-7.766-3.7s-2.641-5.412-2.02-8.361l16.805-79.796      c0.975-4.627,5.057-7.939,9.785-7.939h60.926c20.072,0,35.531,5.313,45.946,15.793c7.891,7.94,12.377,18.854,12.309,29.944      c0,15.749-5.857,29.021-16.938,38.319C466.612,249.112,447.754,254.408,423.007,254.408z M372.338,234.408h50.669      c35.162,0,52.991-11.48,52.991-34.122c0.018-2.807-0.582-9.833-6.495-15.784c-6.431-6.471-17.413-9.891-31.76-9.891h-52.813      L372.338,234.408z M273.837,185.125h-62.99c-3.014,0-5.867-1.359-7.766-3.699c-1.898-2.34-2.641-5.412-2.02-8.361l16.803-79.797      c0.975-4.627,5.057-7.939,9.786-7.939h60.925c20.093,0,35.556,5.307,45.96,15.773c10.79,10.854,12.336,23.431,12.297,29.961      c0,14.735-5.975,28.056-16.822,37.447C317.273,179.535,298.374,185.125,273.837,185.125z M223.172,165.125h50.665      c34.174,0,52.994-12.118,52.994-34.122c0.021-3.483-0.794-10.081-6.481-15.802c-6.42-6.459-17.408-9.873-31.775-9.873h-52.811      L223.172,165.125z M110.021,185.125H47.028c-3.057,0-5.946-1.398-7.843-3.796c-1.896-2.397-2.592-5.531-1.889-8.505      l18.871-79.797c1.067-4.512,5.095-7.699,9.731-7.699h60.926c19.634,0,34.872,5.082,45.292,15.104      c8.296,7.979,13.054,19.122,13.054,30.571C185.171,143.699,179.751,185.125,110.021,185.125z M59.669,165.125h50.353      c35.563,0,55.149-12.118,55.149-34.122c0-6.023-2.765-25.675-38.346-25.675H73.811L59.669,165.125z"/></g></g></g></g><g id="Layer_1"/></svg>