<?xml version="1.0" ?><!DOCTYPE svg  PUBLIC '-//W3C//DTD SVG 1.1//EN'  'http://www.w3.org/Graphics/SVG/1.1/DTD/svg11.dtd'><svg height="512px" style="enable-background:new 0 0 512 512;" version="1.1" viewBox="0 0 512 512" width="512px" xml:space="preserve" xmlns="http://www.w3.org/2000/svg" xmlns:xlink="http://www.w3.org/1999/xlink"><g id="comp_x5F_55-centercode"><g><g><g><path d="M475.824,249.741C471.39,90.827,304.052-10.71,161.279,57.661      C96.276,88.788,47.857,151.13,37.926,227.925C21.697,353.14,114.722,468.866,244.813,475.696      C370.827,482.259,479.459,380.099,475.824,249.741z M404.349,316.073c-90.364,74.313-179.31,111.736-240.321,97.725      c-31.304-138.162-21.018-255.486,29.974-305.412C262.018,133.482,429.09,211.431,404.349,316.073z" style="fill:#F89A3E;"/><path d="M256.305,485.996c-0.002,0-0.001,0-0.003,0c-3.983-0.001-8.023-0.105-12.008-0.313      c-32.896-1.727-64.195-10.077-93.031-24.817c-27.629-14.124-51.771-33.445-71.755-57.427      c-20.103-24.123-34.846-51.559-43.82-81.544c-9.272-30.979-11.855-63.028-7.679-95.255      C38.044,149.044,86.25,82.501,156.96,48.642c31.367-15.021,64.58-22.638,98.714-22.638c29.235,0,57.974,5.59,85.419,16.615      c27.005,10.848,51.451,26.419,72.661,46.282c44.752,41.909,70.346,98.931,72.065,160.562      c1.749,62.716-21.271,121.917-64.817,166.694c-21.278,21.88-46.235,39.087-74.176,51.142      C318.072,479.704,287.614,485.996,256.305,485.996z M255.674,46.004c-31.121,0-61.426,6.957-90.076,20.676      C101.026,97.601,57.006,158.358,47.843,229.208c-7.484,57.745,9.657,116.582,47.028,161.427      c37.75,45.301,91.186,71.963,150.466,75.075c3.636,0.189,7.327,0.285,10.964,0.286c56.137,0,110.941-23.248,150.364-63.784      c39.748-40.871,60.759-94.921,59.162-152.192C462.688,137.525,368.414,46.004,255.674,46.004z M191.004,426.698      c-10.271,0-20.101-1.061-29.215-3.154c-3.745-0.859-6.666-3.789-7.515-7.536c-15.693-69.264-21.252-134.602-16.076-188.953      c5.361-56.296,22.238-99.802,48.806-125.815c2.762-2.703,6.834-3.573,10.458-2.236c41.237,15.215,245.48,97.298,216.618,219.37      c-0.503,2.129-1.69,4.033-3.38,5.423C330.01,390.154,251.987,426.698,191.004,426.698z M172.37,405.246      c5.906,0.965,12.148,1.452,18.634,1.452c54.89,0,129.218-35.009,204.31-96.153c7.812-39.993-14.844-80.404-67.39-120.171      c-47.777-36.158-106.805-60.895-131.263-70.298C153.49,168.434,144.216,276.271,172.37,405.246z" style="fill:#1B1900;"/></g><g><path d="M320.902,267.211c-3.371,31.215-31.394,53.739-62.608,50.37      c-31.216-3.371-53.739-31.395-50.37-62.608c3.37-31.215,31.392-53.74,62.608-50.37      C301.658,207.973,324.27,235.996,320.902,267.211L320.902,267.211z" style="fill:#62C9D3;"/><g><path d="M264.476,327.915c-2.407,0-4.849-0.132-7.255-0.392c-36.62-3.955-63.194-36.982-59.239-73.624       c3.67-33.995,32.203-59.631,66.368-59.631c2.408,0,4.849,0.132,7.256,0.392c36.617,3.964,63.19,36.991,59.239,73.623       C327.173,302.279,298.641,327.915,264.476,327.915z M264.35,214.269c-23.928,0-43.912,17.96-46.483,41.777       c-2.771,25.677,15.846,48.822,41.501,51.592c1.696,0.184,3.415,0.276,5.108,0.276c23.929,0,43.912-17.961,46.484-41.778       c2.77-25.67-15.85-48.814-41.504-51.592C267.763,214.362,266.043,214.269,264.35,214.269z" style="fill:#1B1900;"/></g></g></g></g></g><g id="Layer_1"/></svg>