<?xml version="1.0" ?><!DOCTYPE svg  PUBLIC '-//W3C//DTD SVG 1.1//EN'  'http://www.w3.org/Graphics/SVG/1.1/DTD/svg11.dtd'><svg height="512px" style="enable-background:new 0 0 512 512;" version="1.1" viewBox="0 0 512 512" width="512px" xml:space="preserve" xmlns="http://www.w3.org/2000/svg" xmlns:xlink="http://www.w3.org/1999/xlink"><g id="comp_x5F_56-chrome"><g><g><g id="XMLID_13_"><g><g><path d="M198.96,288.716c-5.28-9.171-8.41-19.75-8.71-31.07c-0.9-36.311,27.77-66.48,64.109-67.4        c36.29-0.93,66.471,27.78,67.381,64.08c0.3,11.97-2.62,23.28-7.971,33.09c-10.87,19.931-31.779,33.69-56.1,34.32        C232.68,322.355,210.6,308.966,198.96,288.716z" style="fill:#4B8BF5;"/></g><g><path d="M313.78,287.426l-90.16,165.17c-92.59-15.15-164.32-94.36-166.771-191.561        c-1.26-49.68,15.79-95.57,45-131.22l0.061,0.05l97.05,158.851c11.64,20.25,33.72,33.64,58.71,33.02        c24.32-0.63,45.229-14.39,56.1-34.32L313.78,287.426z" style="fill:#19A15F;"/></g><g><path d="M455.149,250.965c2.78,109.99-84.13,201.4-194.109,204.181        c-12.76,0.32-25.271-0.561-37.42-2.55l90.16-165.17l-0.011-0.011c5.351-9.81,8.271-21.12,7.971-33.09        c-0.91-36.3-31.091-65.01-67.381-64.08l188.08-4.59C450.12,206.015,454.569,227.985,455.149,250.965z" style="fill:#FFCE42;"/></g><g><path d="M442.439,185.655l-188.08,4.59c-36.34,0.92-65.01,31.09-64.109,67.4        c0.3,11.32,3.43,21.899,8.71,31.07l-97.05-158.851l-0.061-0.05c35.45-43.271,88.83-71.45,149.12-72.96        C337.979,54.655,413.359,108.575,442.439,185.655z" style="fill:#DE5145;"/></g></g><g><g><path d="M255.923,465.21c-11.38,0-22.792-0.924-33.919-2.746c-98.959-16.192-172.621-100.8-175.151-201.177        c-1.271-50.119,15.514-99.062,47.262-137.81c38.644-47.168,95.724-75.095,156.605-76.619c1.785-0.045,3.598-0.068,5.383-0.068        c43.22,0,84.729,13.11,120.039,37.914c34.625,24.323,60.786,58.011,75.654,97.421c8.263,21.904,12.755,44.98,13.351,68.588        c2.915,115.321-88.533,211.514-203.854,214.43C259.508,465.188,257.702,465.21,255.923,465.21z M256.103,66.79        c-1.622,0-3.249,0.021-4.88,0.062c-55.062,1.379-106.686,26.639-141.638,69.301c-28.71,35.04-43.889,79.301-42.738,124.629        c2.288,90.784,68.899,167.303,158.388,181.945c10.063,1.647,20.388,2.483,30.688,2.483c1.617,0,3.239-0.021,4.866-0.062        c104.294-2.637,187-89.633,184.364-193.931c-0.54-21.36-4.601-42.231-12.07-62.033        C405.464,115.977,334.341,66.79,256.103,66.79z"/></g><g><path d="M256.006,331.756c-27.042,0-52.223-14.582-65.716-38.057c-6.231-10.824-9.703-23.201-10.037-35.789        c-1.035-41.773,32.096-76.604,73.854-77.662c20.512-0.53,40.071,7.15,54.764,21.465        c14.247,13.882,22.368,32.477,22.867,52.361c0.333,13.313-2.844,26.497-9.188,38.129        c-12.917,23.685-37.679,38.831-64.62,39.529C257.28,331.748,256.64,331.756,256.006,331.756z M256.072,200.223        c-0.483,0-0.971,0.007-1.457,0.019c-30.742,0.779-55.13,26.419-54.368,57.156c0.245,9.26,2.797,18.37,7.379,26.329        c9.939,17.291,28.477,28.029,48.38,28.029c0.47,0,0.943-0.006,1.416-0.018c19.824-0.514,38.056-11.668,47.568-29.111        c4.663-8.55,6.998-18.25,6.753-28.052C310.991,224.605,286.018,200.223,256.072,200.223z"/></g><g><path d="M223.53,462.737c-1.687,0-3.396-0.428-4.965-1.327c-4.791-2.747-6.448-8.858-3.7-13.649l0.027-0.049l90.11-165.077        c2.646-4.848,8.722-6.634,13.568-3.986c4.848,2.646,6.633,8.721,3.986,13.568l-90.16,165.17        c-0.033,0.062-0.067,0.123-0.103,0.184l-0.08,0.14C230.367,460.933,226.997,462.737,223.53,462.737z"/></g><g><path d="M199.929,300.296c-3.376,0-6.672-1.71-8.554-4.807l-0.96-1.579L93.377,135.078c-2.88-4.713-1.394-10.867,3.319-13.746        c4.713-2.88,10.868-1.394,13.747,3.319l98.021,160.449c2.869,4.719,1.369,10.87-3.351,13.739        C203.491,299.826,201.699,300.296,199.929,300.296z"/></g><g><path d="M254.354,200.245c-5.409,0-9.859-4.318-9.992-9.756c-0.135-5.521,4.232-10.106,9.753-10.241l188.08-4.59        c5.542-0.143,10.106,4.232,10.241,9.753c0.135,5.521-4.231,10.106-9.753,10.241l-188.08,4.59        C254.521,200.244,254.438,200.245,254.354,200.245z"/></g></g></g></g></g></g><g id="Layer_1"/></svg>