<?xml version="1.0" ?><!DOCTYPE svg  PUBLIC '-//W3C//DTD SVG 1.1//EN'  'http://www.w3.org/Graphics/SVG/1.1/DTD/svg11.dtd'><svg height="512px" style="enable-background:new 0 0 512 512;" version="1.1" viewBox="0 0 512 512" width="512px" xml:space="preserve" xmlns="http://www.w3.org/2000/svg" xmlns:xlink="http://www.w3.org/1999/xlink"><g id="comp_x5F_57-cloudscale"><g><g><g id="XMLID_14_"><g><g><path d="M256,36c121.29,0,220,98.71,220,220s-98.71,220-220,220c-121.3,0-220-98.71-220-220        S134.7,36,256,36z M423.14,256c0-92.14-75-167.14-167.14-167.14c-92.14,0-167.14,75-167.14,167.14        c0,92.14,75,167.14,167.14,167.14C348.14,423.14,423.14,348.14,423.14,256z" style="fill:#04517D;"/></g><g><path d="M338.83,171.17l-47.471,47.47c-15.379-14.35-44.569-31.73-67.24-31.73        c-47.62,0-88.68,38.81-86.81,91.31c-0.94-5.91-1.31-12-1.31-18.189C136,193,190.18,136,257.31,136        C287.1,136,317.74,153.08,338.83,171.17z" style="fill:#47AE33;"/></g></g><g><g><path d="M137.3,288.221c-4.862,0-9.087-3.535-9.866-8.431c-0.965-6.065-1.434-12.529-1.434-19.76        c0-35.21,13.602-68.633,38.301-94.112C189.255,140.177,222.286,126,257.31,126c39.726,0,74.532,26.037,87.845,37.421        c3.559,2.861,4.799,7.897,2.713,12.173c-2.422,4.964-8.408,7.025-13.371,4.604c-0.667-0.325-1.307-0.732-1.891-1.201        c-0.097-0.077-0.192-0.156-0.287-0.237C308.404,158.247,280.363,146,257.31,146c-37.729,0-71.794,20.415-92.027,50.829        c16.78-12.784,37.561-19.919,58.837-19.919c27.146,0,58.935,20.391,73.853,34.223c0.11,0.097,0.219,0.195,0.324,0.295        c3.999,3.809,4.153,10.139,0.344,14.138c-3.58,3.759-9.389,4.122-13.395,0.987c-0.244-0.19-0.482-0.392-0.708-0.602h-0.001        c-15.299-14.275-42.082-29.042-60.417-29.042c-20.757,0-40.919,8.556-55.316,23.475c-14.645,15.175-22.28,35.588-21.5,57.479        c0.188,5.282-3.768,9.799-9.029,10.309C137.947,288.205,137.622,288.221,137.3,288.221z"/></g><g><path d="M256,486C129.178,486,26,382.822,26,256S129.178,26,256,26s230,103.178,230,230S382.822,486,256,486z M256,46        C140.206,46,46,140.206,46,256c0,115.794,94.206,210,210,210c115.795,0,210-94.206,210-210C466,140.206,371.795,46,256,46z"/></g><g><path d="M256,433.14c-97.675,0-177.14-79.465-177.14-177.14c0-97.675,79.465-177.14,177.14-177.14        c97.676,0,177.14,79.465,177.14,177.14C433.14,353.675,353.676,433.14,256,433.14z M256,98.86        c-86.647,0-157.14,70.493-157.14,157.14S169.353,413.14,256,413.14c86.646,0,157.14-70.492,157.14-157.14        S342.646,98.86,256,98.86z"/></g><g><path d="M250,290c-16.542,0-30-13.458-30-30s13.458-30,30-30s30,13.458,30,30S266.542,290,250,290z"/></g><g><path d="M270,250c-2.559,0-5.119-0.976-7.071-2.929c-3.905-3.905-3.905-10.237,0-14.143l80.001-80        c3.904-3.904,10.236-3.905,14.142,0s3.905,10.237-0.001,14.142l-79.999,80C275.119,249.024,272.559,250,270,250z"/></g></g></g></g></g></g><g id="Layer_1"/></svg>