<?xml version="1.0" ?><!DOCTYPE svg  PUBLIC '-//W3C//DTD SVG 1.1//EN'  'http://www.w3.org/Graphics/SVG/1.1/DTD/svg11.dtd'><svg height="512px" style="enable-background:new 0 0 512 512;" version="1.1" viewBox="0 0 512 512" width="512px" xml:space="preserve" xmlns="http://www.w3.org/2000/svg" xmlns:xlink="http://www.w3.org/1999/xlink"><g id="comp_x5F_58-cloudsmith"><g><g><g><path d="M409.951,408.005c0,43.03-34.871,77.994-77.902,77.994c-43.033,0-77.904-34.964-77.904-77.994      c0-43.033,34.871-77.904,77.904-77.904C375.08,330.101,409.951,364.972,409.951,408.005z" style="fill:#12587F;"/><g><path d="M332.049,495.999c-48.471,0-87.904-39.474-87.904-87.994c0-48.471,39.433-87.904,87.904-87.904       c48.47,0,87.902,39.434,87.902,87.904C419.951,456.525,380.519,495.999,332.049,495.999z M332.049,340.101       c-37.442,0-67.903,30.462-67.903,67.904c0,37.492,30.461,67.994,67.903,67.994c37.441,0,67.902-30.502,67.902-67.994       C399.951,370.563,369.49,340.101,332.049,340.101z" style="fill:#001223;"/></g></g><g><path d="M332.049,181.807c43.031,0,74.193-34.87,74.193-77.902s-31.162-77.903-74.193-77.903      c-43.033,0-81.613,34.871-81.613,77.903s-27.451,70.483-70.484,70.483c-43.032,0-77.903,38.582-77.903,81.612      c0,43.032,34.871,74.194,77.903,74.194c43.033,0,77.903-31.162,77.903-74.194C257.854,212.97,289.016,181.807,332.049,181.807z" style="fill:#549ABC;"/><g><path d="M179.952,340.194c-23.6,0-45.589-8.4-61.915-23.652C101.278,300.886,92.049,279.385,92.049,256       c0-49.659,40.254-91.612,87.903-91.612c37.308,0,60.484-23.176,60.484-60.483c0-47.648,41.954-87.903,91.613-87.903       c23.384,0,44.885,9.229,60.541,25.988c15.252,16.327,23.652,38.315,23.652,61.916s-8.4,45.588-23.652,61.915       c-15.656,16.758-37.157,25.987-60.541,25.987c-37.797,0-64.194,26.397-64.194,64.193c0,23.385-9.229,44.886-25.987,60.542       C225.541,331.794,203.552,340.194,179.952,340.194z M332.049,36.001c-38.818,0-71.613,31.096-71.613,67.903       c0,23.824-7.619,44.036-22.034,58.45c-14.415,14.415-34.626,22.034-58.45,22.034c-36.807,0-67.903,32.794-67.903,71.612       c0,36.597,29.192,64.194,67.903,64.194s67.903-27.598,67.903-64.194c0-23.483,8.484-44.899,23.889-60.304       c15.405-15.405,36.822-23.889,60.306-23.889c36.597,0,64.193-29.192,64.193-67.902       C396.242,65.193,368.646,36.001,332.049,36.001z" style="fill:#001223;"/></g></g></g></g></g><g id="Layer_1"/></svg>