<?xml version="1.0" ?><!DOCTYPE svg  PUBLIC '-//W3C//DTD SVG 1.1//EN'  'http://www.w3.org/Graphics/SVG/1.1/DTD/svg11.dtd'><svg height="512px" style="enable-background:new 0 0 512 512;" version="1.1" viewBox="0 0 512 512" width="512px" xml:space="preserve" xmlns="http://www.w3.org/2000/svg" xmlns:xlink="http://www.w3.org/1999/xlink"><g id="comp_x5F_59-codepen"><g><g><g><g><path d="M256.001,501c-5.609,0-11.205-1.57-16.107-4.69l-220-140C11.24,350.803,6,341.257,6,331V181       c0-10.949,5.965-21.029,15.564-26.298c9.597-5.269,21.304-4.89,30.542,0.988l220,140C280.76,301.197,286,310.743,286,321v150       c0,10.949-5.966,21.029-15.563,26.298C265.932,499.771,260.961,501,256.001,501z M66,314.531L226,416.35v-78.881L66,235.65       V314.531z"/></g><g><path d="M255.999,501c-4.961,0-9.93-1.229-14.435-3.702C231.965,492.029,226,481.949,226,471V321       c0-10.257,5.24-19.803,13.894-25.31l220-140c9.238-5.878,20.943-6.256,30.543-0.988C500.034,159.971,506,170.051,506,181v150       c0,10.257-5.24,19.803-13.894,25.31l-220,140C267.204,499.43,261.607,501,255.999,501z M286,337.469v78.881l160-101.818V235.65       L286,337.469z"/></g><g><path d="M35.999,361c-4.961,0-9.93-1.229-14.435-3.702C11.965,352.029,6,341.949,6,331V181c0-10.257,5.24-19.803,13.894-25.31       l220-140c9.238-5.878,20.944-6.256,30.543-0.988C280.034,19.971,286,30.051,286,41v150c0,10.257-5.24,19.803-13.894,25.31       l-220,140C47.205,359.43,41.607,361,35.999,361z M66,197.468v78.881l160-101.818V95.65L66,197.468z"/></g><g><path d="M476.001,361c-5.608,0-11.205-1.57-16.107-4.69l-220-140C231.24,210.803,226,201.257,226,191V41       c0-10.949,5.965-21.029,15.564-26.298c9.598-5.268,21.305-4.891,30.542,0.988l220,140C500.76,161.197,506,170.743,506,181v150       c0,10.949-5.966,21.029-15.563,26.298C485.932,359.771,480.961,361,476.001,361z M286,174.532L446,276.35v-78.881L286,95.65       V174.532z"/></g></g><g><g><path d="M256,481c-1.87,0-3.735-0.523-5.369-1.563l-220-140C27.747,337.601,26,334.419,26,331V181       c0-3.65,1.988-7.01,5.188-8.766c3.2-1.756,7.103-1.629,10.181,0.33l220,140c2.884,1.836,4.631,5.018,4.631,8.437v150       c0,3.649-1.988,7.01-5.188,8.766C259.311,480.59,257.653,481,256,481z M46,325.511l200,127.272V326.489L46,199.217V325.511z" style="fill:#FFFFFF;"/></g><g><path d="M256,481c-1.653,0-3.31-0.409-4.812-1.234c-3.2-1.756-5.188-5.116-5.188-8.766V321       c0-3.419,1.747-6.601,4.631-8.437l220-140c3.083-1.959,6.982-2.085,10.182-0.33C484.012,173.99,486,177.35,486,181v150       c0,3.419-1.747,6.601-4.631,8.437l-220,140C259.734,480.477,257.869,481,256,481z M266,326.489v126.294l200-127.272V199.217       L266,326.489z" style="fill:#FFFFFF;"/></g><g><path d="M36,341c-1.653,0-3.31-0.409-4.812-1.234C27.988,338.01,26,334.649,26,331V181       c0-3.419,1.747-6.601,4.631-8.437l220-140c3.079-1.96,6.982-2.085,10.181-0.33C264.012,33.99,266,37.35,266,41v150       c0,3.419-1.747,6.601-4.631,8.437l-220,140C39.735,340.477,37.869,341,36,341z M46,186.489v126.294l200-127.272V59.217       L46,186.489z" style="fill:#FFFFFF;"/></g><g><path d="M476,341c-1.869,0-3.734-0.523-5.369-1.563l-220-140C247.747,197.601,246,194.419,246,191V41       c0-3.65,1.988-7.01,5.188-8.766c3.2-1.756,7.101-1.629,10.181,0.33l220,140c2.884,1.835,4.631,5.018,4.631,8.437v150       c0,3.649-1.988,7.01-5.188,8.766C479.311,340.59,477.653,341,476,341z M266,185.511l200,127.272V186.489L266,59.217V185.511z" style="fill:#FFFFFF;"/></g></g></g></g></g><g id="Layer_1"/></svg>