<?xml version="1.0" ?><!DOCTYPE svg  PUBLIC '-//W3C//DTD SVG 1.1//EN'  'http://www.w3.org/Graphics/SVG/1.1/DTD/svg11.dtd'><svg height="512px" style="enable-background:new 0 0 512 512;" version="1.1" viewBox="0 0 512 512" width="512px" xml:space="preserve" xmlns="http://www.w3.org/2000/svg" xmlns:xlink="http://www.w3.org/1999/xlink"><g id="comp_x5F_82-deploydog"><g><g><path d="M442.102,427.877H69.898C38.474,427.877,13,402.404,13,370.982V141.021c0-31.424,25.474-56.898,56.898-56.898h372.204     c31.425,0,56.898,25.474,56.898,56.898v229.962C499,402.404,473.526,427.877,442.102,427.877z"/><g><path d="M361.922,156.923h43.127v199.868h-43.127v-17.266c-16.518,20.686-44.045,20.104-61.563,12.262      c-21.855-9.76-36.955-31.781-36.955-59.895c0-24.857,12.346-48.298,36.12-59.059c16.849-7.593,43.96-8.843,62.397,10.76V156.923      z M307.951,291.893c0,15.182,11.344,27.945,27.695,27.945c16.516,0,27.693-13.68,27.693-27.443      c0-14.264-11.428-27.693-27.693-27.693C319.295,264.701,307.951,278.379,307.951,291.893z M200.34,156.923h43.127v199.868      H200.34v-17.266c-16.516,20.686-44.045,20.104-61.562,12.262c-21.856-9.76-36.955-31.781-36.955-59.895      c0-24.857,12.346-48.298,36.121-59.059c16.85-7.593,43.96-8.843,62.396,10.76V156.923z M146.369,291.893      c0,15.182,11.345,27.945,27.695,27.945c16.516,0,27.695-13.68,27.695-27.443c0-14.264-11.429-27.693-27.695-27.693      C157.629,264.701,146.369,278.379,146.369,291.893z" style="fill:#FFFFFF;"/></g></g></g></g><g id="Layer_1"/></svg>