<?xml version="1.0" ?><!DOCTYPE svg  PUBLIC '-//W3C//DTD SVG 1.1//EN'  'http://www.w3.org/Graphics/SVG/1.1/DTD/svg11.dtd'><svg height="512px" style="enable-background:new 0 0 512 512;" version="1.1" viewBox="0 0 512 512" width="512px" xml:space="preserve" xmlns="http://www.w3.org/2000/svg" xmlns:xlink="http://www.w3.org/1999/xlink"><g id="comp_x5F_104-Ea"><g><g><g id="_x31_18-Ea_x2C__electronics_arts_x2C__sports_10_"><g><g><g><g><path d="M294.653,134.07H132.522l-27.023,54.191h162.132L294.653,134.07z" style="fill:#2299F8;"/><path d="M267.631,198.261H105.499c-3.464,0-6.681-1.792-8.504-4.738          c-1.822-2.945-1.991-6.625-0.445-9.724l27.023-54.191c1.692-3.393,5.158-5.538,8.949-5.538h162.131          c3.464,0,6.681,1.792,8.504,4.738c1.822,2.945,1.991,6.625,0.445,9.724l-27.022,54.191          C274.888,196.117,271.423,198.261,267.631,198.261z M121.66,178.261h139.784l17.049-34.191H138.709L121.66,178.261z" style="fill:#1A73BA;"/></g><g><path d="M338.945,134.07L224.477,323.737h-99.441l30.887-54.189h57.661l27.029-54.193H78.475          l-27.018,54.193h42.23L37.942,377.93h218.796l82.207-144.419l17.077,45.047h-9.791l-22.559,45.18h59.373l27.022,54.192          h63.989L338.945,134.07z" style="fill:#2299F8;"/><path d="M474.058,387.93h-63.989c-3.792,0-7.257-2.145-8.949-5.538l-24.261-48.654h-53.186          c-3.465,0-6.683-1.794-8.505-4.74c-1.822-2.947-1.989-6.627-0.441-9.727l22.559-45.18c1.012-2.026,2.656-3.607,4.624-4.551          l-4.783-12.619l-71.697,125.956c-1.778,3.124-5.096,5.053-8.69,5.053H37.942c-3.486,0-6.721-1.815-8.536-4.791          c-1.816-2.976-1.951-6.683-0.356-9.783l48.249-93.808H51.457c-3.464,0-6.681-1.792-8.503-4.737s-1.991-6.625-0.446-9.725          l27.019-54.193c1.691-3.394,5.157-5.538,8.949-5.538h162.137c3.464,0,6.681,1.792,8.504,4.738s1.991,6.625,0.445,9.725          l-27.029,54.193c-1.692,3.393-5.157,5.537-8.949,5.537h-51.85l-19.487,34.189h76.586l111.552-184.834          c1.845-3.057,5.205-4.888,8.747-4.832c3.568,0.066,6.832,2.03,8.562,5.152l135.112,243.859          c1.716,3.098,1.666,6.872-0.131,9.923C480.876,386.057,477.599,387.93,474.058,387.93z M416.256,367.93h40.829          l-118.51-213.893L233.038,328.904c-1.81,3-5.058,4.833-8.562,4.833h-99.441c-3.563,0-6.856-1.896-8.646-4.976          c-1.79-3.081-1.806-6.881-0.042-9.977l30.887-54.189c1.779-3.121,5.096-5.048,8.688-5.048h51.473l17.054-34.193H84.663          l-17.047,34.193h26.071c3.486,0,6.721,1.815,8.536,4.791c1.816,2.976,1.951,6.683,0.356,9.783L54.331,367.93h196.593          l79.331-139.366c1.917-3.367,5.624-5.325,9.465-5.023c3.862,0.3,7.203,2.803,8.576,6.425l17.077,45.047          c1.165,3.073,0.746,6.521-1.121,9.227c-1.867,2.704-4.943,4.318-8.229,4.318h-3.606l-12.573,25.18h43.203          c3.792,0,7.257,2.145,8.949,5.538L416.256,367.93z" style="fill:#1A73BA;"/></g></g></g></g></g></g></g></g><g id="Layer_1"/></svg>