<?xml version="1.0" ?><!DOCTYPE svg  PUBLIC '-//W3C//DTD SVG 1.1//EN'  'http://www.w3.org/Graphics/SVG/1.1/DTD/svg11.dtd'><svg height="512px" style="enable-background:new 0 0 512 512;" version="1.1" viewBox="0 0 512 512" width="512px" xml:space="preserve" xmlns="http://www.w3.org/2000/svg" xmlns:xlink="http://www.w3.org/1999/xlink"><g id="comp_x5F_156-grav"><g><g><g><path d="M256,486c-61.435,0-119.193-23.924-162.634-67.365C49.924,375.193,26,317.436,26,256      c0-61.435,23.924-119.193,67.366-162.634C136.807,49.924,194.565,26,256,26c61.436,0,119.193,23.924,162.635,67.366      C462.076,136.807,486,194.565,486,256c0,61.436-23.924,119.193-67.365,162.635S317.436,486,256,486z M256,46      C140.206,46,46,140.206,46,256c0,115.794,94.206,210,210,210c115.794,0,210-94.206,210-210C466,140.206,371.794,46,256,46z" style="fill:#221E1F;"/></g><g><path d="M342.806,159.166c6.863,8.346,29.77,2.226,14.375-14.932      C348.928,134.96,335.571,150.634,342.806,159.166z" style="fill:#FFFFFF;"/><path d="M401.232,267.673c-12.612-22.35-25.688-34.128-50.544-28.193      c10.758-7.419,21.796-5.657,21.796-5.657c0.277-5.936,0-12.056-8.718-23.093c3.615-11.593,0.277-20.773,0.277-20.773      c14.374-7.976,24.854-22.629,26.988-40.066c3.339-28.75-17.437-54.901-46.187-58.241c-20.494-2.317-40.526,7.142-50.359,23.835      c-21.515,37.189,1.3,65.754,20.775,75.492c-13.355-1.299-31.811-11.037-37.189-31.811c-6.12-23.834,2.597-46.186,8.254-56.944      c0,0-4.08-5.379-7.42-8.253c0,0-12.798,0-22.813,4.914c11.036-14.096,23.371-13.354,23.371-13.354      c0-5.935-0.558-13.818-3.339-20.032c-5.008-10.201-22.073-11.964-29.399,2.598c0.092-0.186,0.278-0.371,0.371-0.465      c-4.637,11.037-1.019,51.843,15.675,80.872c-2.319,1.298-8.44,5.656-12.058,9.274c-20.033,8.996-52.121,55.923-52.121,55.923      c-26.153,10.015-71.597,47.206-65.475,73.913c0.278,2.784,1.297,5.102,2.781,6.958c-2.596,2.04-5.1,4.636-7.697,7.696      c-11.037,12.798-4.917,32.646,16.414,22.629c14.655-6.677,27.453-18.731,33.667-28.191c0,0-5.101-4.638-15.117-4.082      c25.689-6.122,31.81-8.717,42.846-8.44c7.42,3.618,7.42-31.81,7.42-31.81c0-13.633-2.041-28.75-10.294-38.488      c11.592,11.315,26.987,30.327,25.968,56.202c-0.743,16.971-14.097,21.33-14.097,21.33      c-8.439,15.396-40.065,61.116-28.194,98.306c0,0-8.994-13.817-9.459-20.494c-16.138,17.99-43.125,48.503-22.815,59.819      c24.67,13.632,100.903-82.171,117.04-131.974c32.09-19.291,51.38-43.866,59.263-60.282      c20.403,40.341,88.383,87.64,93.761,54.718C426.922,276.577,405.87,276.111,401.232,267.673z M255.443,207.299      c-2.782,2.781-7.141,2.781-9.738,0c-2.783-2.505-2.783-6.863,0-9.459c2.598-2.783,6.956-2.783,9.738,0      C258.039,200.343,258.039,204.703,255.443,207.299z M260.079,183.185c2.783-2.781,7.143-2.781,9.74,0      c2.779,2.505,2.779,6.957,0,9.739c-2.505,2.597-6.864,2.597-9.74,0C257.484,190.141,257.484,185.782,260.079,183.185z       M297.825,226.311l-8.994,8.996c-4.081,4.359-11.037,4.359-15.396,0l-9.739-9.738c-4.08-4.358-4.08-11.036,0-15.396l8.997-8.994      c4.08-4.082,11.035-4.082,15.396,0l9.736,10.016C301.906,215.274,301.906,222.23,297.825,226.311z M312.944,185.504      c-18.458-13.355-31.348-40.063-11.038-63.157c20.033-23.093,37.747-15.951,55.461,0.742c11.036,10.48,27.172,23.092,15.951,44.7      C361.726,189.585,331.493,198.582,312.944,185.504z" style="fill:#FFFFFF;"/></g></g></g></g><g id="Layer_1"/></svg>