<?xml version="1.0" ?><!DOCTYPE svg  PUBLIC '-//W3C//DTD SVG 1.1//EN'  'http://www.w3.org/Graphics/SVG/1.1/DTD/svg11.dtd'><svg height="512px" style="enable-background:new 0 0 512 512;" version="1.1" viewBox="0 0 512 512" width="512px" xml:space="preserve" xmlns="http://www.w3.org/2000/svg" xmlns:xlink="http://www.w3.org/1999/xlink"><g id="comp_x5F_193-korvue"><g><g><g><path d="M409.883,46.054h-307.86c-30.785,0-56.018,25.23-56.018,56.018v307.953      c0,30.693,25.232,55.922,56.018,55.922h307.954c31.069,0,56.019-25.229,56.019-56.016V102.071      C465.901,71.284,440.67,46.054,409.883,46.054z" style="fill:#33588D;"/><path d="M409.977,475.946H102.022c-36.402,0-66.018-29.572-66.018-65.922V102.071      c0-36.402,29.615-66.018,66.018-66.018h307.86c36.344,0,66.002,29.602,66.112,65.987v307.89      C475.995,446.332,446.379,475.946,409.977,475.946z M102.022,56.054c-25.374,0-46.018,20.644-46.018,46.018v307.953      c0,25.321,20.644,45.922,46.018,45.922h307.954c25.375,0,46.019-20.643,46.019-46.016V102.071      c-0.077-25.36-20.764-46.018-46.112-46.018H102.022z" style="fill:#26426A;"/></g><g><polygon points="128.008,127.773 218.388,127.773 218.388,236.983 276.571,127.773 380.981,127.773       304.532,250 128.008,250     " style="fill:#FFFFFF;"/><path d="M304.532,260H128.008c-5.523,0-10-4.477-10-10V127.773c0-5.523,4.477-10,10-10h90.38      c5.523,0,10,4.477,10,10v69.172l39.358-73.875c1.737-3.261,5.131-5.298,8.825-5.298h104.41c3.636,0,6.985,1.974,8.747,5.154      c1.763,3.18,1.659,7.066-0.269,10.149l-76.449,122.227C311.183,258.225,307.979,260,304.532,260z M228.111,240h70.881      l63.939-102.227h-80.357L228.111,240z M138.008,240h70.845c-0.303-0.957-0.465-1.972-0.465-3.017v-99.21h-70.38V240z" style="fill:#26426A;"/></g><g><polygon points="280.337,383.947 218.483,290 218.483,383.947 128.102,383.947 128.102,280 308.394,280       391.807,383.947     " style="fill:#FFFFFF;"/><path d="M391.826,393.947c-0.006,0.001-0.012,0.001-0.02,0h-111.47c-3.364,0-6.503-1.691-8.353-4.501      l-43.501-66.072v60.573c0,5.522-4.477,10-10,10h-90.382c-5.523,0-10-4.478-10-10V280c0-5.522,4.477-10,10-10h180.292      c3.032,0,5.901,1.376,7.8,3.741l83.07,103.521c1.594,1.771,2.563,4.114,2.563,6.685      C401.826,389.47,397.35,393.947,391.826,393.947z M285.726,373.947h85.234L303.597,290h-73.141L285.726,373.947z       M138.102,373.947h70.382V290h-70.382V373.947z" style="fill:#26426A;"/></g></g></g></g><g id="Layer_1"/></svg>