<?xml version="1.0" ?><!DOCTYPE svg  PUBLIC '-//W3C//DTD SVG 1.1//EN'  'http://www.w3.org/Graphics/SVG/1.1/DTD/svg11.dtd'><svg height="512px" style="enable-background:new 0 0 512 512;" version="1.1" viewBox="0 0 512 512" width="512px" xml:space="preserve" xmlns="http://www.w3.org/2000/svg" xmlns:xlink="http://www.w3.org/1999/xlink"><g id="comp_x5F_209-mcdonalds"><g><g><g id="_x38_6-mcdonalds_8_"><g><g><g><path d="M354.682,58.104c-39.863,0-75.412,53.262-98.678,136.517         c-23.235-83.253-58.817-136.517-98.686-136.517c-70.062,0-126.876,177.199-126.876,395.791h56.388         c0-202.988,31.577-360,70.487-360c38.944,0,70.488,144.379,70.488,331.73h56.387c0-187.351,31.576-331.73,70.488-331.73         c38.938,0,70.488,157.014,70.488,360h56.391C481.563,235.304,424.748,58.104,354.682,58.104L354.682,58.104z" style="fill:#FFC400;"/><path d="M481.559,463.896h-56.391c-5.522,0-10-4.478-10-10c0-97.084-7.264-187.354-20.453-254.184         c-14.958-75.791-32.729-95.816-40.035-95.816c-7.896,0-25.217,18.472-40.059,87.705         c-13.174,61.456-20.43,144.568-20.43,234.026c0,5.522-4.478,10-10,10h-56.387c-5.523,0-10-4.478-10-10         c0-89.475-7.251-172.587-20.418-234.026c-14.836-69.232-32.168-87.704-40.07-87.704c-7.301,0-25.063,20.026-40.024,95.816         c-13.196,66.844-20.463,157.114-20.463,254.184c0,5.522-4.477,10-10,10H30.441c-5.523,0-10-4.478-10-10         c0-106.726,13.368-207.202,37.643-282.92c11.999-37.427,26.09-66.97,41.882-87.808         c17.633-23.266,36.929-35.063,57.352-35.063c22.926,0,44.373,13.883,63.744,41.263         c13.102,18.518,24.808,42.543,34.946,71.678c10.146-29.14,21.854-53.166,34.946-71.678         c19.366-27.38,40.807-41.263,63.728-41.263c20.424,0,39.721,11.797,57.354,35.063c15.794,20.838,29.886,50.381,41.884,87.808         c24.274,75.719,37.642,176.195,37.64,282.92C491.559,459.418,487.081,463.896,481.559,463.896z M435.143,443.896h36.377         c-0.802-100.953-13.742-195.373-36.646-266.814c-22.202-69.256-51.432-108.977-80.192-108.977         c-33.148,0-66.438,48.302-89.047,129.208c-1.208,4.321-5.146,7.309-9.631,7.309c-0.001,0-0.001,0-0.001,0         c-4.487-0.001-8.424-2.99-9.63-7.312c-22.58-80.904-55.871-129.205-89.054-129.205c-28.759,0-57.986,39.72-80.189,108.977         C54.226,248.523,41.284,342.942,40.48,443.896h36.374c0.485-94.529,7.833-182.291,20.816-248.057         c6.613-33.497,14.409-59.909,23.171-78.501c10.458-22.19,22.73-33.442,36.475-33.442c24.845,0,44.906,34.827,59.626,103.513         c12.958,60.465,20.308,141.182,20.832,228.217h36.447c0.523-87.021,7.879-167.736,20.844-228.218         c14.725-68.686,34.781-103.513,59.614-103.513c13.751,0,26.026,11.251,36.486,33.441         c8.763,18.591,16.559,45.003,23.17,78.502C427.313,261.591,434.658,349.354,435.143,443.896z" style="fill:#BF9300;"/></g></g></g></g></g></g></g><g id="Layer_1"/></svg>