<?xml version="1.0" ?><!DOCTYPE svg  PUBLIC '-//W3C//DTD SVG 1.1//EN'  'http://www.w3.org/Graphics/SVG/1.1/DTD/svg11.dtd'><svg height="512px" style="enable-background:new 0 0 512 512;" version="1.1" viewBox="0 0 512 512" width="512px" xml:space="preserve" xmlns="http://www.w3.org/2000/svg" xmlns:xlink="http://www.w3.org/1999/xlink"><g id="comp_x5F_230-nike"><g><g><g id="_x36_3-nike_8_"><g><g><g><g><path d="M255.943,236.305l-79.283,20.813c-28.004,6.947-52.498,16.208-76.101,8.1          c-32.084-13.89-31.511-50.039-7.591-88.497c-42.288,35.001-118.39,146.9-15.466,158.204          c13.112,1.727,36.454-2.88,61.81-13.579l116.632-48.002l230.055-94.316l-201.471,49.759L255.943,236.305z" style="fill:#191818;"/><path d="M83.431,345.278c-2.543,0-4.938-0.143-7.121-0.425c-39.822-4.402-53.558-23.265-58.067-38.319          c-7.585-25.327,5.572-55.693,17.946-76.708c13.524-22.969,32.838-46.27,50.405-60.809c3.776-3.125,9.261-3.053,12.954,0.172          c3.692,3.225,4.502,8.65,1.914,12.813c-13.43,21.591-18.624,42.001-14.25,55.996c2.53,8.096,8.082,13.95,16.966,17.886          c5.016,1.676,10.335,2.491,16.247,2.491c12.387,0,26.055-3.644,40.526-7.501c4.284-1.142,8.713-2.323,13.239-3.446          l79.216-20.795l28.58-7.517c0.049-0.013,0.098-0.025,0.146-0.038l201.471-49.759c5.084-1.255,10.277,1.625,11.903,6.604          c1.626,4.979-0.866,10.37-5.713,12.356l-230.055,94.317l-116.62,47.996C121.031,339.913,99.246,345.278,83.431,345.278z           M65.995,220.963c-4.575,6.246-8.843,12.676-12.573,19.011c-14.634,24.854-20.324,46.454-16.021,60.822          c4.041,13.492,17.9,21.631,41.193,24.188c0.071,0.008,0.143,0.017,0.214,0.026c1.351,0.178,2.906,0.268,4.623,0.268          c13.049,0,32.485-4.914,51.994-13.146l116.714-48.036l104.357-42.784l-69.493,17.164l-28.515,7.5L179.2,266.79          c-0.043,0.012-0.087,0.023-0.131,0.034c-4.38,1.086-8.746,2.25-12.968,3.376c-15.773,4.204-30.671,8.176-45.678,8.176          c-8.303,0-15.863-1.211-23.112-3.7c-0.245-0.085-0.486-0.178-0.724-0.281c-14.342-6.209-24.186-16.731-28.466-30.43          C65.933,236.965,65.24,229.228,65.995,220.963z"/></g></g></g></g></g></g></g></g><g id="Layer_1"/></svg>