<?xml version="1.0" ?><!DOCTYPE svg  PUBLIC '-//W3C//DTD SVG 1.1//EN'  'http://www.w3.org/Graphics/SVG/1.1/DTD/svg11.dtd'><svg height="512px" style="enable-background:new 0 0 512 512;" version="1.1" viewBox="0 0 512 512" width="512px" xml:space="preserve" xmlns="http://www.w3.org/2000/svg" xmlns:xlink="http://www.w3.org/1999/xlink"><g id="comp_x5F_232-nintendo-switch"><g><g><g><path d="M130.155,37.465C86.361,45.32,51.109,77.724,40.014,120.34      c-4.024,15.417-4.32,24.45-3.828,143.855c0.195,109.583,0.294,112.136,2.159,120.68c10.114,45.658,42.519,78.163,88.67,88.865      c5.989,1.374,13.648,1.669,62.941,1.866c50.962,0.393,56.265,0.293,57.64-1.082c1.374-1.374,1.473-18.95,1.473-218.187      c0-147.782-0.294-217.302-0.883-218.579c-0.885-1.668-2.455-1.767-55.872-1.668C148.911,36.189,135.853,36.484,130.155,37.465      L130.155,37.465z" style="fill:#CF201B;"/><g><path d="M226.083,485.807c-8.494,0-20.15-0.077-36.204-0.2c-49.943-0.2-57.856-0.458-65.101-2.119       c-50.14-11.627-85.194-46.779-96.197-96.449c-2.134-9.773-2.201-13.216-2.396-122.825       c-0.495-120.057-0.223-129.636,4.152-146.399C42.383,71.55,80.872,36.146,128.39,27.623c6.57-1.132,19.098-1.431,63.901-1.532       c8.596-0.016,15.846-0.027,21.97-0.027c17.168,0,24.818,0.089,29.232,0.338c4.101,0.232,10.297,0.583,13.526,6.67       c0.087,0.164,0.17,0.331,0.247,0.499c1.252,2.715,1.354,2.937,1.581,58.497c0.148,36.352,0.221,90.084,0.221,164.27       c0,103.832-0.032,154.947-0.222,183.358c-0.097,14.521-0.235,23.337-0.449,28.583c-0.237,5.802-0.409,9.994-3.73,13.316       C250.456,485.807,245.776,485.807,226.083,485.807z M214.261,46.064c-6.114,0-13.352,0.011-21.929,0.027       c-41.422,0.094-55.554,0.381-60.479,1.229c-39.797,7.138-72.074,36.794-82.162,75.539       c-3.724,14.265-3.985,24.829-3.505,141.295c0.192,108.087,0.319,111.214,1.929,118.588       c9.263,41.817,38.847,71.444,81.159,81.257c5.089,1.167,14.741,1.424,60.723,1.607c16.043,0.124,27.657,0.2,36.087,0.2       c2.448,0,8.037,0,12.405-0.104c0.55-17.674,0.581-74.739,0.581-209.364c0-117.585-0.189-188.041-0.564-210.115       C232.639,46.081,223.478,46.064,214.261,46.064z" style="fill:#9B1814;"/></g></g><g><path d="M212.541,256.044v184.505l-37.118-0.489c-34.171-0.394-37.804-0.588-44.678-2.257      c-29.358-7.563-51.061-30.148-57.247-59.605c-1.964-9.229-1.964-235.763-0.098-244.797      c5.498-25.629,23.271-46.837,47.133-56.363c11.979-4.812,17.576-5.401,56.56-5.499l35.251-0.099v184.604H212.541z" style="fill:#FFFFFF;"/><g><path d="M212.541,450.549c-0.044,0-0.088,0-0.132-0.001l-37.118-0.489       c-33.941-0.391-38.747-0.558-46.905-2.538c-0.045-0.011-0.09-0.022-0.135-0.034c-32.878-8.47-57.608-34.232-64.539-67.233       c-2.193-10.31-2.294-238.275-0.104-248.876c6.232-29.052,26.121-52.81,53.219-63.627c14.055-5.646,21.989-6.116,60.242-6.212       l35.249-0.099c0.009,0,0.019,0,0.028,0c2.646,0,5.186,1.049,7.061,2.919c1.881,1.876,2.939,4.424,2.939,7.081v182.618       c0.129,0.642,0.197,1.306,0.197,1.986v184.505c0,2.675-1.072,5.238-2.976,7.117       C217.693,449.515,215.168,450.549,212.541,450.549z M133.173,428.102c5.576,1.35,8.721,1.571,42.365,1.959l27.003,0.355V258.03       c-0.129-0.642-0.197-1.306-0.197-1.986V81.467l-25.223,0.071c-38.677,0.097-42.686,0.691-52.86,4.778       c-20.835,8.317-36.147,26.588-41.026,48.917c-1.627,13.958-1.549,227.748,0.091,241.104       C88.824,402.118,107.438,421.447,133.173,428.102z" style="fill:#9B1814;"/></g></g><g><path d="M140.048,137.019c-4.314,0.819-10.936,4.167-14.506,7.216      c-7.216,6.249-10.861,15.176-10.266,25.664c0.298,5.431,0.595,6.919,2.826,11.308c3.273,6.695,8.108,11.605,14.805,14.878      c4.612,2.306,5.802,2.53,11.827,2.753c5.43,0.222,7.365,0,11.01-1.266c14.953-5.059,24.028-19.565,21.424-34.517      C174.268,145.425,157.381,133.523,140.048,137.019z" style="fill:#FFFFFF;"/><g><path d="M147.84,208.914C147.839,208.914,147.839,208.914,147.84,208.914       c-0.996,0-2.112-0.027-3.514-0.084c-7.146-0.265-9.771-0.741-15.891-3.801c-8.508-4.158-15.022-10.685-19.281-19.358       c-2.925-5.768-3.506-8.729-3.862-15.224c-0.765-13.456,4.102-25.456,13.704-33.771c5.015-4.284,13.203-8.329,19.126-9.47       c2.641-0.529,5.336-0.797,8.014-0.797c20.032,0,37.614,15.057,40.899,35.023c3.436,19.721-8.37,38.942-28.086,45.613       C154.997,208.417,152.069,208.914,147.84,208.914z M146.136,146.408c-1.37,0-2.753,0.139-4.111,0.413       c-0.038,0.007-0.075,0.015-0.112,0.022c-2.283,0.433-7.39,2.872-9.875,4.995c-4.897,4.241-7.194,10.142-6.777,17.494       c0.239,4.358,0.268,4.415,1.756,7.342c0.023,0.046,0.047,0.093,0.07,0.14c2.32,4.746,5.565,8.015,10.212,10.286       c3.144,1.572,3.144,1.572,7.807,1.745c1.064,0.043,1.948,0.069,2.734,0.069c2.125,0,2.815-0.16,4.625-0.788       c10.385-3.514,16.6-13.325,14.853-23.354C165.587,154.263,156.488,146.408,146.136,146.408z" style="fill:#9B1814;"/></g></g><g><path d="M293.353,36.581c-0.391,0.295-0.586,98.979-0.586,219.463c0,198.647,0.096,218.776,1.471,219.365      c2.455,0.884,73.154,0.59,81.895-0.394c37.018-4.222,69.717-26.708,87.392-60.094c2.259-4.32,5.302-11.488,6.873-15.907      c5.696-17.088,5.597-12.569,5.597-143.462c0-104.477-0.194-120.091-1.473-126.668c-9.032-47.43-45.266-83.27-92.792-91.419      c-6.383-1.08-16.202-1.375-47.919-1.375C311.814,35.992,293.65,36.287,293.353,36.581z" style="fill:#CF201B;"/><g><path d="M322.706,485.936c-28.751,0-29.92-0.42-31.855-1.117c-0.186-0.067-0.369-0.139-0.55-0.217       c-6.36-2.724-6.605-8.873-6.865-15.384c-0.214-5.354-0.353-14.347-0.449-29.154c-0.188-28.771-0.22-80.021-0.22-184.02       c0-62.254,0.051-115.792,0.146-154.827c0.05-20.44,0.112-36.33,0.184-47.229c0.036-5.622,0.076-9.998,0.119-12.978       c0.083-5.739,0.131-9.04,3.501-11.92c2.829-2.64,4.898-2.675,15.746-2.858c6.158-0.104,14.216-0.161,22.688-0.161       c2.808,0,5.721,0.006,8.703,0.02c32.612,0,42.345,0.297,49.542,1.515c51.514,8.833,91.129,47.853,100.947,99.409       c1.464,7.529,1.649,21.949,1.649,128.539v6.631c0.002,121.802,0.002,121.802-5.601,138.473l-0.51,1.521       c-0.021,0.063-0.042,0.126-0.064,0.188c-1.624,4.568-4.849,12.247-7.433,17.189c-19.254,36.368-54.804,60.799-95.121,65.396       C370.884,485.669,340.416,485.936,322.706,485.936z M303.318,465.81c4.238,0.072,10.493,0.126,19.388,0.126       c23.804,0,48.247-0.4,52.308-0.857c33.742-3.848,63.531-24.348,79.672-54.835c2.042-3.906,4.88-10.634,6.26-14.497l0.489-1.46       c4.561-13.571,4.561-13.571,4.559-132.102v-6.632c0-100.464-0.192-119.12-1.289-124.76       c-8.249-43.315-41.479-76.065-84.666-83.471c-5.639-0.954-16.013-1.23-46.229-1.23c-2.996-0.013-5.88-0.02-8.658-0.02       c-9.111,0-16.664,0.065-21.997,0.152c-0.237,25.71-0.388,104.515-0.388,209.821       C302.767,389.423,302.796,447.083,303.318,465.81z M300.383,43.693c-0.315,0.312-0.65,0.602-1.005,0.869       c0.137-0.103,0.269-0.208,0.396-0.315C299.979,44.076,300.182,43.891,300.383,43.693z" style="fill:#9B1814;"/></g></g><g><path d="M388.161,244.704c11.019,2.888,19.984,11.246,23.709,21.959      c2.354,6.612,2.279,16.337-0.078,22.419c-4.329,11.168-12.765,18.995-23.631,21.883c-17.629,4.561-36.398-6.078-41.49-23.555      c-1.52-5.32-1.442-14.364,0.304-19.911C352.22,250.251,370.532,240.068,388.161,244.704L388.161,244.704z" style="fill:#FFFFFF;"/><g><path d="M379.842,322.021c-19.726,0-37.314-13.083-42.771-31.814       c-2.103-7.359-1.938-18.391,0.365-25.711c5.523-18.162,22.843-30.912,42.09-30.912c3.764,0,7.524,0.487,11.179,1.448       c14.297,3.747,25.744,14.345,30.611,28.347c3.137,8.812,3.064,20.896-0.199,29.317c-5.454,14.069-16.529,24.251-30.387,27.933       C387.139,321.559,383.497,322.021,379.842,322.021z M379.525,253.584c-10.521,0-19.971,6.918-22.983,16.824       c-1.159,3.684-1.271,10.699-0.256,14.256c2.925,10.036,12.837,17.357,23.556,17.357c1.966,0,3.923-0.248,5.814-0.738       c7.656-2.034,13.649-7.657,16.812-15.815c1.522-3.927,1.514-11.147-0.019-15.451c-2.659-7.648-9.096-13.615-16.823-15.64       C383.623,253.851,381.573,253.584,379.525,253.584z" style="fill:#9B1814;"/></g></g></g></g></g><g id="Layer_1"/></svg>