<?xml version="1.0" ?><!DOCTYPE svg  PUBLIC '-//W3C//DTD SVG 1.1//EN'  'http://www.w3.org/Graphics/SVG/1.1/DTD/svg11.dtd'><svg height="512px" style="enable-background:new 0 0 512 512;" version="1.1" viewBox="0 0 512 512" width="512px" xml:space="preserve" xmlns="http://www.w3.org/2000/svg" xmlns:xlink="http://www.w3.org/1999/xlink"><g id="comp_x5F_272-raspberry-pi"><g><g><g><path d="M256.458,490.999h-0.898c-22.674,0-43.018-8.802-60.487-26.167      c-19.231-6.822-33.676-16.485-46.394-26c-12.98-3.883-46.171-24.925-51.687-65.195c-0.742-2.114-1.507-4.187-2.272-6.263      c-2.702-7.326-5.492-14.891-7.374-24.413c-19.224-22.021-20.586-44.635-18.292-59.832c3.218-21.319,15.711-41.47,31.989-51.761      l2.038-3.58c0.289-37.545,16.144-56.166,35.197-68.984c-3.391-1.825-6.449-4.573-8.217-9.081      c-10.689-3.486-14.233-9.389-15.794-15.152c-4.141-2.735-12.36-8.71-12.864-18.36c-6.752-5.666-8.036-12.035-7.523-17.155      c-5.265-6.384-7.126-12.471-5.556-18.157c-6.17-9-3.751-15.348-1.028-19.916c-2.21-5.542-2.023-11.254,0.614-15.728      c3.244-5.503,9.506-8.417,17.672-8.141c3.399-3.597,9.259-7.029,19.244-7.029c0.964,0,1.837,0.032,2.581,0.07      c2.399-2.329,6.083-4.389,12.542-4.389c0.905,0,1.867,0.04,2.876,0.119c3.499-2.549,7.459-3.839,11.805-3.839      c2.78,0,5.697,0.506,9.032,1.578c2.684-1.606,5.484-2.474,8.353-2.585l0.411-0.006c3.924,0,7.219,1.42,10.126,2.674      c0.783,0.337,1.54,0.664,2.268,0.944c2.246-0.6,4.292-0.893,6.216-0.893c4.686,0,7.66,1.723,10.051,3.107      c0.569,0.33,1.093,0.633,1.603,0.891c1.594-0.264,3.086-0.393,4.524-0.393c8.444,0,12.844,4.539,16.727,8.543      c0.003,0.003,0.005,0.005,0.008,0.008l4.054-0.059c0.905-0.007,1.8,0.221,2.583,0.676c12.817,7.442,20.809,20.02,25.423,29.915      c4.615-9.895,12.607-22.474,25.421-29.915c0.784-0.456,1.675-0.694,2.584-0.676l4.055,0.059c0.003-0.003,0.006-0.006,0.009-0.01      c3.882-4.003,8.281-8.542,16.726-8.542c1.422,0,2.896,0.126,4.469,0.383c0.466-0.245,0.945-0.526,1.464-0.829      c2.417-1.414,5.424-3.173,10.175-3.173c1.941,0,4.007,0.296,6.274,0.902c0.728-0.284,1.479-0.613,2.259-0.953      C332.339,22.433,335.62,21,339.537,21c3.061,0,5.981,0.865,8.866,2.634c3.371-1.054,6.289-1.551,9.035-1.551      c4.335,0,8.278,1.278,11.754,3.804c0.976-0.075,1.907-0.113,2.786-0.113c6.397,0,10.054,1.998,12.566,4.385      c0.759-0.04,1.654-0.074,2.646-0.074c9.984,0,15.845,3.433,19.245,7.029c8.191-0.279,14.481,2.65,17.739,8.177      c2.632,4.465,2.829,10.154,0.644,15.668c2.74,4.545,5.131,10.867-1.039,19.925c1.574,5.682-0.278,11.765-5.532,18.145      c0.564,5.148-0.697,11.54-7.546,17.206c-0.517,9.635-8.724,15.601-12.861,18.334c-1.567,5.813-5.11,11.75-15.794,15.17      c-1.764,4.527-4.813,7.269-8.191,9.081c19.04,12.817,34.882,31.439,35.17,68.966l2.041,3.584      c16.24,10.301,28.695,30.433,31.889,51.71c2.281,15.195,0.893,37.817-18.373,59.879c-1.881,9.522-4.671,17.087-7.374,24.412      c-0.766,2.076-1.531,4.149-2.273,6.264c-5.525,40.348-38.706,61.342-51.688,65.198c-14.654,10.961-28.287,19.612-46.387,25.998      C299.469,482.197,279.153,490.999,256.458,490.999z M104.52,47.097c-3.926,0-6.765,1.149-7.995,3.237      c-1.264,2.144-0.951,5.351,0.837,8.581c0.894,1.615,0.825,3.591-0.179,5.141l-0.164,0.252c-2.88,4.438-4.195,6.464,0.834,12.644      c1.249,1.535,1.476,3.661,0.578,5.424c-0.682,1.34-2.279,4.477,4.433,11.773c1.11,1.208,1.558,2.883,1.198,4.483      c-0.71,3.156-0.641,6.938,5.261,11.059c1.498,1.046,2.306,2.825,2.108,4.642c-0.581,5.323,4.284,9.255,9.119,12.399      c0.351,0.228,0.663,0.431,0.925,0.609c1.085,0.733,1.839,1.864,2.1,3.147c0.734,3.616,1.566,7.714,11.715,10.348      c1.802,0.468,3.195,1.898,3.615,3.712c1.167,5.041,4.729,6.192,11.452,7.949l0.758,0.199c1.962,0.516,3.418,2.167,3.685,4.178      s-0.708,3.984-2.468,4.994c-19.039,10.923-39.343,26.027-39.255,67.239c0.002,0.871-0.224,1.727-0.654,2.484l-3.322,5.838      c-0.427,0.75-1.041,1.377-1.782,1.82c-11.776,7.033-25.118,23.79-28.376,45.373c-2.009,13.31-0.73,33.258,16.774,52.707      c0.617,0.687,1.033,1.53,1.2,2.438c1.722,9.337,4.376,16.531,7.186,24.148c0.827,2.241,1.681,4.558,2.5,6.909      c0.113,0.323,0.192,0.658,0.236,0.997c5.103,39.096,39.219,56.089,45.284,57.59c0.653,0.161,1.266,0.453,1.804,0.856      c12.49,9.389,26.649,18.976,45.515,25.5c0.728,0.252,1.387,0.668,1.927,1.216c15.925,16.161,33.651,24.017,54.191,24.017h0.898      c20.557,0,38.251-7.853,54.093-24.008c0.544-0.554,1.209-0.975,1.943-1.227c17.735-6.105,31.02-14.608,45.509-25.498      c0.54-0.406,1.157-0.698,1.814-0.859c6.061-1.484,40.157-18.412,45.271-57.587c0.044-0.34,0.124-0.674,0.236-0.997      c0.819-2.352,1.674-4.67,2.501-6.911c2.81-7.616,5.464-14.811,7.186-24.146c0.167-0.908,0.583-1.753,1.201-2.438      c17.549-19.496,18.851-39.453,16.854-52.762c-3.233-21.537-16.534-38.281-28.283-45.322c-0.737-0.442-1.349-1.067-1.774-1.814      l-3.324-5.838c-0.432-0.757-0.657-1.614-0.655-2.485c0.089-41.211-20.215-56.316-39.253-67.239      c-1.76-1.01-2.735-2.983-2.469-4.994c0.268-2.011,1.723-3.662,3.685-4.178l0.948-0.248c6.604-1.72,10.104-2.852,11.258-7.889      c0.42-1.831,1.831-3.272,3.652-3.731c10.098-2.544,10.938-6.686,11.68-10.339c0.261-1.284,1.016-2.415,2.101-3.148      c0.263-0.178,0.574-0.38,0.925-0.608c4.835-3.145,9.7-7.077,9.119-12.4c-0.199-1.83,0.622-3.621,2.139-4.663      c5.947-4.088,5.988-7.845,5.244-10.98c-0.385-1.616,0.06-3.318,1.185-4.541c6.712-7.296,5.115-10.434,4.434-11.773      c-0.894-1.755-0.673-3.872,0.563-5.405c5.065-6.286,3.738-8.293,0.833-12.692l-0.124-0.188      c-1.025-1.553-1.104-3.547-0.202-5.175c1.774-3.207,2.08-6.4,0.816-8.544c-1.515-2.568-5.478-3.721-10.778-3.109      c-1.848,0.219-3.655-0.613-4.702-2.146c-2.28-3.337-6.617-5.029-12.89-5.029c-1.34,0-2.491,0.078-3.331,0.135      c-0.618,0.042-1.092,0.067-1.388,0.067c-1.507,0-2.933-0.679-3.882-1.849c-1.113-1.371-2.164-2.666-6.612-2.666      c-1.098,0-2.347,0.085-3.711,0.254c-1.438,0.177-2.877-0.275-3.953-1.24c-2.058-1.846-4.243-2.706-6.876-2.706      c-2.191,0-4.762,0.569-8.091,1.792c-1.63,0.597-3.448,0.308-4.812-0.761C342.124,31.22,340.528,31,339.537,31      c-1.829,0-3.805,0.862-6.092,1.861c-1.463,0.638-2.975,1.298-4.64,1.814c-0.978,0.303-2.024,0.299-2.998-0.012      c-1.91-0.609-3.558-0.917-4.896-0.917c-2.041,0-3.268,0.718-5.125,1.805c-1.167,0.683-2.49,1.457-4.104,2.073      c-0.898,0.343-1.876,0.42-2.817,0.221c-1.504-0.318-2.87-0.479-4.061-0.479c-4.041,0-5.847,1.687-9.546,5.503      c-0.515,0.531-1.039,1.071-1.583,1.614c-0.955,0.956-2.262,1.49-3.608,1.464l-4.768-0.069      c-15.857,9.956-22.734,29.978-24.49,35.991c-0.623,2.132-2.578,3.598-4.8,3.598c0,0,0,0,0,0c-2.222,0-4.177-1.466-4.799-3.599      c-1.755-6.013-8.626-26.034-24.491-35.99l-4.768,0.069c-1.315,0.022-2.653-0.509-3.608-1.464      c-0.543-0.542-1.067-1.083-1.581-1.613c-3.701-3.816-5.507-5.504-9.548-5.504c-1.19,0-2.557,0.161-4.061,0.479      c-0.905,0.19-1.845,0.128-2.716-0.184c-1.734-0.619-3.13-1.428-4.362-2.141c-1.831-1.06-3.041-1.761-5.039-1.761      c-1.319,0-2.943,0.304-4.825,0.904c-0.966,0.31-2.003,0.315-2.975,0.02c-1.66-0.505-3.176-1.16-4.644-1.792      c-2.311-0.997-4.307-1.857-6.167-1.857l-0.118,0.001c-1.504,0.059-3.116,0.742-4.834,2.085      c-1.378,1.077-3.219,1.356-4.854,0.735c-3.248-1.233-5.786-1.808-7.989-1.808c-2.641,0-4.842,0.872-6.927,2.742      c-1.076,0.965-2.516,1.417-3.953,1.24c-1.401-0.173-2.68-0.261-3.801-0.261c-4.495,0-5.473,1.291-6.418,2.54      c-0.945,1.248-2.421,1.981-3.986,1.981c-0.296,0-0.769-0.025-1.388-0.067c-0.84-0.057-1.992-0.135-3.332-0.135      c-6.273,0-10.609,1.692-12.888,5.028c-1.047,1.534-2.86,2.363-4.703,2.147C106.291,47.152,105.377,47.097,104.52,47.097z" style="fill:#FFFFFF;"/></g><path d="M387.413,227.77c-1.348,16.796-88.83-58.473-73.74-60.987     C354.721,160.047,388.761,184.027,387.413,227.77z" style="fill:#C41949;"/><path d="M348.791,311.392c-22.006,14.192-53.711,5.03-70.776-20.478     c-17.065-25.509-13.113-57.665,8.893-71.856c22.005-14.191,53.711-5.029,70.777,20.479     C374.749,265.047,370.796,297.2,348.791,311.392L348.791,311.392z" style="fill:#C41949;"/><path d="M294.895,58.477c0.619,3.251,1.393,5.263,2.245,5.881c4.179-4.488,7.584-9.055,13.001-13.389     c0,2.555-1.315,5.263,1.934,7.274c2.864-3.869,6.811-7.351,11.996-10.292c-2.476,4.333-0.465,5.65,0.928,7.43     c3.948-3.405,7.74-6.81,15.015-9.519c-2.013,2.399-4.798,4.798-1.857,7.583c4.103-2.553,8.203-5.107,17.878-6.888     c-2.167,2.399-6.733,4.876-3.948,7.275c5.109-1.935,10.834-3.405,17.104-4.179c-3.02,2.477-5.496,4.875-3.02,6.811     c5.495-1.703,13.08-3.948,20.432-2.013l-4.644,4.722c-0.541,0.618,10.911,0.464,18.495,0.618     c-2.786,3.87-5.572,7.508-7.197,14.085c0.774,0.775,4.489,0.31,8.049,0c-3.638,7.662-9.906,9.519-11.376,12.846     c2.244,1.704,5.262,1.239,8.667,0.078c-2.631,5.34-8.048,9.055-12.382,13.39c1.084,0.773,3.018,1.238,7.507,0.696     c-4.024,4.257-8.822,8.126-14.549,11.608c1.006,1.161,4.488,1.161,7.738,1.239c-5.185,5.031-11.841,7.662-18.108,10.989     c3.095,2.089,5.339,1.625,7.739,1.625c-4.411,3.638-11.919,5.495-18.884,7.74c1.315,2.089,2.633,2.63,5.495,3.172     c-7.353,4.102-17.955,2.245-20.895,4.334c0.696,2.089,2.786,3.405,5.184,4.488c-11.917,0.697-44.344-0.464-50.612-24.997     c12.15-13.389,34.361-29.021,72.514-48.446c-29.718,9.905-56.495,23.216-78.937,41.403     C263.861,101.738,282.048,70.782,294.895,58.477L294.895,58.477z" style="fill:#6BC048;"/><path d="M256.907,155.375c21.735-0.269,48.592,15.989,48.502,31.168     c-0.09,13.472-18.862,24.34-48.322,24.16c-28.832-0.359-48.233-13.652-48.143-26.766     C208.944,173.249,232.477,154.748,256.907,155.375L256.907,155.375z" style="fill:#C41949;"/><path d="M150.305,137.262c2.863-0.542,4.18-1.162,5.495-3.173c-6.966-2.167-14.473-4.102-18.884-7.74     c2.399,0,4.644,0.542,7.74-1.625c-6.269-3.327-12.925-5.959-18.11-10.99c3.25-0.078,6.733,0,7.739-1.239     c-5.727-3.482-10.525-7.352-14.549-11.608c4.488,0.542,6.423,0.077,7.506-0.696c-4.334-4.334-9.828-8.049-12.382-13.39     c3.327,1.161,6.423,1.548,8.667-0.078c-1.47-3.25-7.739-5.185-11.376-12.847c3.56,0.31,7.275,0.774,8.049,0     c-1.625-6.578-4.489-10.293-7.198-14.086c7.585-0.077,19.039,0,18.497-0.619l-4.644-4.721c7.353-1.935,14.938,0.31,20.432,2.013     c2.477-1.936-0.077-4.334-3.019-6.812c6.269,0.852,11.918,2.245,17.104,4.18c2.708-2.399-1.781-4.876-3.947-7.276     c9.675,1.782,13.775,4.335,17.878,6.889c2.94-2.786,0.154-5.186-1.858-7.584c7.275,2.631,11.068,6.114,15.015,9.519     c1.316-1.78,3.405-3.096,0.928-7.43c5.186,2.942,9.132,6.424,11.996,10.293c3.173-2.012,1.935-4.798,1.935-7.275     c5.417,4.334,8.822,8.9,13.002,13.39c0.851-0.619,1.547-2.631,2.245-5.882c12.847,12.306,31.033,43.264,4.643,55.569     c-22.444-18.188-49.222-31.499-78.941-41.405c38.155,19.348,60.367,35.059,72.518,48.448     c-6.192,24.611-38.697,25.695-50.615,24.998c2.399-1.083,4.488-2.476,5.185-4.489     C168.259,139.428,157.734,141.286,150.305,137.262L150.305,137.262z" style="fill:#6BC048;"/><path d="M200.411,165.526c15.089,2.514-72.394,77.693-73.741,60.986     C125.322,182.771,159.455,158.699,200.411,165.526z" style="fill:#C41949;"/><path d="M107.539,333.307c-21.286-16.885-28.113-66.196,11.317-88.291     C142.658,238.729,126.939,341.84,107.539,333.307z" style="fill:#C41949;"/><path d="M189.274,421.51c-11.947,7.095-41.137,4.221-61.796-25.061     c-13.922-24.608-12.125-49.58-2.335-56.944c14.641-8.804,37.274,3.054,54.699,22.993     C195.023,380.462,201.938,412.168,189.274,421.51z" style="fill:#C41949;"/><path d="M165.562,313.996c-22.005-14.191-25.958-46.347-8.893-71.855     c17.066-25.508,48.772-34.67,70.778-20.478c22.005,14.19,25.957,46.345,8.892,71.856     C219.184,319.026,187.478,328.188,165.562,313.996z" style="fill:#C41949;"/><path d="M257.356,471.629c-26.407,1.076-52.275-21.287-51.916-29.013     c-0.359-11.406,32.156-20.298,53.263-19.759c21.286-0.898,49.938,6.735,50.028,16.975     C309.182,449.712,282.864,472.076,257.356,471.629L257.356,471.629z" style="fill:#C41949;"/><path d="M310.259,359.444c0.18,26.677-23.532,48.322-52.813,48.502     c-29.281,0.18-53.172-21.376-53.352-47.964v-0.538c-0.18-26.677,23.533-48.321,52.813-48.501     c29.28-0.181,53.173,21.377,53.352,47.961V359.444z" style="fill:#C41949;"/><path d="M384.089,397.798c-22.723,31.077-53.53,32.243-64.938,23.62     c-11.946-11.136-2.875-45.715,13.563-64.669c18.771-20.927,38.892-34.58,52.902-23.891     C395.048,342.108,400.617,376.959,384.089,397.798L384.089,397.798z" style="fill:#C41949;"/><path d="M404.658,332.049c-19.31,8.444-35.029-94.58-11.317-88.292     C432.772,265.944,425.945,315.253,404.658,332.049z" style="fill:#C41949;"/></g></g></g><g id="Layer_1"/></svg>