<?xml version="1.0" ?><!DOCTYPE svg  PUBLIC '-//W3C//DTD SVG 1.1//EN'  'http://www.w3.org/Graphics/SVG/1.1/DTD/svg11.dtd'><svg height="512px" style="enable-background:new 0 0 512 512;" version="1.1" viewBox="0 0 512 512" width="512px" xml:space="preserve" xmlns="http://www.w3.org/2000/svg" xmlns:xlink="http://www.w3.org/1999/xlink"><g id="comp_x5F_287-safari"><g><g><g><circle cx="256" cy="256" r="220" style="fill:#CFD8DC;"/><g><path d="M256,486c-61.435,0-119.193-23.924-162.634-67.365C49.924,375.193,26,317.436,26,256       c0-61.435,23.924-119.193,67.366-162.634C136.807,49.924,194.565,26,256,26c61.436,0,119.193,23.924,162.635,67.366       C462.076,136.807,486,194.565,486,256c0,61.436-23.924,119.193-67.365,162.635S317.436,486,256,486z M256,46       C140.206,46,46,140.206,46,256c0,115.794,94.206,210,210,210c115.794,0,210-94.206,210-210C466,140.206,371.794,46,256,46z" style="fill:#9BA2A5;"/></g></g><g><g><path d="M256.052,446.048c-19.173,0-38.258-2.926-56.725-8.696       C99.33,406.102,43.399,299.325,74.648,199.328c12.321-39.425,36.472-73.028,69.843-97.178       c32.256-23.342,71.838-36.198,111.455-36.198c19.173,0,38.258,2.926,56.725,8.697c99.997,31.25,155.928,138.027,124.68,238.023       c-12.32,39.425-36.472,73.028-69.844,97.179C335.251,433.192,295.669,446.048,256.052,446.048z M255.947,85.952       c-74.715,0-139.901,47.96-162.208,119.342c-27.96,89.471,22.083,185.008,111.555,212.968       c16.533,5.167,33.611,7.786,50.759,7.786c74.715,0,139.903-47.959,162.209-119.341       c27.959-89.471-22.084-185.009-111.555-212.969C290.173,88.571,273.095,85.952,255.947,85.952z" style="fill:#69A1FF;"/></g><g><path d="M300.744,122.831c-0.988,0-1.993-0.147-2.985-0.458c-5.271-1.647-8.21-7.256-6.563-12.528       l8.948-28.635c1.647-5.271,7.263-8.206,12.527-6.562c5.271,1.647,8.21,7.256,6.563,12.528l-8.948,28.635       C308.949,120.089,305.002,122.831,300.744,122.831z" style="fill:#69A1FF;"/></g><g><path d="M202.313,437.81c-0.988,0-1.993-0.147-2.986-0.458c-5.271-1.647-8.209-7.256-6.562-12.527       l8.948-28.635c1.648-5.272,7.256-8.209,12.528-6.563c5.271,1.647,8.209,7.256,6.562,12.527l-8.948,28.635       C210.519,435.068,206.571,437.81,202.313,437.81z" style="fill:#69A1FF;"/></g><g><path d="M388.884,196.401c-3.602,0-7.08-1.951-8.867-5.362c-2.563-4.892-0.674-10.936,4.218-13.499       l26.574-13.92c4.895-2.563,10.937-0.673,13.499,4.218c2.563,4.892,0.674,10.936-4.218,13.499l-26.574,13.92       C392.034,196.033,390.447,196.401,388.884,196.401z" style="fill:#69A1FF;"/></g><g><path d="M96.559,349.523c-3.601,0-7.08-1.95-8.867-5.361c-2.563-4.893-0.674-10.937,4.218-13.499       l26.575-13.921c4.891-2.562,10.935-0.675,13.499,4.218c2.563,4.893,0.674,10.937-4.218,13.499L101.19,348.38       C99.709,349.155,98.122,349.523,96.559,349.523z" style="fill:#69A1FF;"/></g><g><path d="M427.81,319.692c-0.988,0-1.993-0.147-2.985-0.458l-28.635-8.948       c-5.271-1.647-8.21-7.256-6.563-12.527c1.647-5.272,7.262-8.211,12.527-6.563l28.635,8.948       c5.271,1.647,8.21,7.256,6.563,12.527C436.015,316.951,432.067,319.692,427.81,319.692z" style="fill:#69A1FF;"/></g><g><path d="M112.831,221.261c-0.988,0-1.993-0.147-2.986-0.458l-28.635-8.948       c-5.271-1.647-8.209-7.256-6.562-12.528c1.647-5.271,7.257-8.206,12.528-6.562l28.635,8.948       c5.271,1.647,8.209,7.256,6.562,12.528C121.036,218.52,117.089,221.261,112.831,221.261z" style="fill:#69A1FF;"/></g><g><path d="M186.407,133.127c-3.601,0-7.08-1.951-8.867-5.362l-13.92-26.575       c-2.563-4.893-0.674-10.936,4.218-13.499c4.892-2.563,10.936-0.674,13.499,4.218l13.92,26.575       c2.563,4.893,0.674,10.936-4.218,13.499C189.558,132.76,187.971,133.127,186.407,133.127z" style="fill:#69A1FF;"/></g><g><path d="M339.53,425.451c-3.602,0-7.08-1.95-8.867-5.361l-13.921-26.574       c-2.563-4.893-0.674-10.936,4.218-13.499c4.894-2.561,10.936-0.675,13.499,4.218l13.921,26.574       c2.563,4.893,0.674,10.936-4.218,13.499C342.681,425.083,341.094,425.451,339.53,425.451z" style="fill:#69A1FF;"/></g></g><g><g><path d="M264.227,261.795c0,2.331-1.689,4.532-4.174,4.532c-2.279,0-4.456-1.639-4.456-4.122       c0-2.33,1.639-4.532,4.123-4.532C262.024,257.673,264.227,259.389,264.227,261.795z" style="fill:#FF3D00;"/><path d="M260.053,276.327c-7.971,0-14.456-6.335-14.456-14.122c0-8.013,6.335-14.532,14.123-14.532       c7.999,0,14.507,6.335,14.507,14.122C274.227,269.808,267.868,276.327,260.053,276.327z M260.053,256.327       c-3.212,0-5.826,2.453-5.826,5.468c0,3.241,2.464,5.878,5.493,5.878c3.186,0,5.877-2.504,5.877-5.468       C265.597,259.019,263.059,256.327,260.053,256.327z" style="fill:#BF2E00;"/></g><g><path d="M372.608,165.903c-11.857,7.582-122.087,76.53-125.567,80.539l-98.247,110.545       c11.582-7.395,122.132-76.765,125.306-80.43L372.608,165.903z" style="fill:#FF3D00;"/><path d="M148.8,366.987c-2.844,0-5.651-1.21-7.614-3.511c-3.239-3.797-3.182-9.401,0.134-13.132       l98.247-110.546c2.396-2.669,12.188-9.594,110.27-71.352c8.724-5.493,15.027-9.462,17.385-10.969       c4.204-2.69,9.755-1.865,12.995,1.936c3.241,3.8,3.182,9.408-0.14,13.139l-98.462,110.603       c-1.895,2.185-4.363,4.591-112.063,72.543c-7.66,4.833-13.227,8.346-15.376,9.718       C152.518,366.475,150.651,366.987,148.8,366.987z M254.128,253.521l-50.802,57.161c28.721-18.218,58.893-37.512,63.724-41.245       l50.99-57.277C289.422,230.28,258.927,249.755,254.128,253.521z" style="fill:#BF2E00;"/></g></g></g></g></g><g id="Layer_1"/></svg>