<?xml version="1.0" ?><!DOCTYPE svg  PUBLIC '-//W3C//DTD SVG 1.1//EN'  'http://www.w3.org/Graphics/SVG/1.1/DTD/svg11.dtd'><svg height="512px" style="enable-background:new 0 0 512 512;" version="1.1" viewBox="0 0 512 512" width="512px" xml:space="preserve" xmlns="http://www.w3.org/2000/svg" xmlns:xlink="http://www.w3.org/1999/xlink"><g id="comp_x5F_328-Sun_Contract"><g><g><g><g><path d="M26.001,423.355c3.973-16.314,7.535-31.562,11.459-47.551       c18.335,1.853,27.342-8.683,31.976-23.935c8.291-26.481,15.794-53.326,24.103-81.577c-20.828,10.512-40.613,2.896-61.038,6.504       c3.197-13.434,5.729-25.372,9.275-36.958c0.366-1.834,5.053-3.294,7.571-3.294c16.855-0.377,33.359,0,50.624,0       c6.094-22.839,11.832-45.308,17.985-67.835c5.364-19.568,13.63-37.713,24.742-54.388c25.116-37.713,74.011-31.916,95.175,1.079       c14.351,22.513,21.896,47.166,28.684,72.534c13.696,52.598,26.205,105.175,39.515,157.772       c1.813,7.283,4.688,14.152,7.905,20.719c5.032,9.752,13.289,10.146,17.255-0.378c6.809-17.444,12.55-35.579,17.218-54.085       c12.925-50.02,24.803-100.807,38.084-150.849c5.392-20.295,15.065-38.457,29.056-54.063       c9.701-11.239,21.586-17.743,36.299-18.102c11.113-0.406,21.88,0,34.11,0c-3.973,16.313-7.561,31.525-11.471,47.132       c-19.427-2.546-28.029,9.462-32.721,25.032c-7.897,26.102-15.05,52.586-22.948,80.5c20.851-9.395,40.561-3.263,61.052-5.804       c-3.621,14.127-6.5,26.854-9.706,39.907c-19.391,0-38.063,0-57.847,0c-3.565,14.15-6.794,28.316-10.759,42.448       c-7.557,29.028-15.46,57.642-33.726,81.934c-23.369,30.886-65.37,31.579-89.438,1.134       c-15.094-19.227-22.64-41.727-28.745-64.908c-13.984-54.434-27.275-108.843-41.265-163.237       c-2.869-9.439-6.48-18.859-10.425-27.543c-1.424-3.31-6.128-6.922-9.35-7.282c-2.532-0.348-7.139,4.352-7.881,7.631       c-6.827,20.285-13.306,40.973-18.694,61.664c-12.182,47.463-22.94,95.351-36.577,142.534       c-4.689,17.022-14.396,32.981-23.73,48.235c-9.699,16.328-25.138,24.663-44.183,25.389       C47.552,423.717,37.46,423.355,26.001,423.355L26.001,423.355z" style="fill:#FFFFFF;"/><path d="M57.584,433.717c-4.937,0-9.782-0.084-14.912-0.173c-5.329-0.093-10.838-0.188-16.672-0.188       c-3.068,0-5.967-1.409-7.863-3.821c-1.896-2.413-2.579-5.563-1.853-8.545c1.809-7.429,3.532-14.636,5.244-21.792       c2.005-8.384,4.078-17.053,6.219-25.776c1.188-4.84,5.758-8.068,10.717-7.565c1.054,0.106,2.078,0.16,3.045,0.16       c6.843,0,13.803-2.065,18.356-17.053c5.729-18.301,10.995-36.473,16.569-55.711c0.769-2.651,1.54-5.313,2.315-7.986       c-4.884,0.721-9.505,0.884-13.76,0.884c-3.256,0-6.475-0.109-9.587-0.215c-3.081-0.104-5.991-0.203-8.908-0.203       c-4.836,0-8.73,0.29-12.256,0.913c-3.315,0.588-6.705-0.537-9.015-2.987c-2.311-2.451-3.232-5.899-2.452-9.176       c0.714-3.002,1.396-5.929,2.062-8.794c2.307-9.916,4.488-19.288,7.299-28.512c2.038-7.667,11.389-10.584,17.078-10.63       c5.092-0.113,10.626-0.168,16.916-0.168c5.564,0,11.129,0.042,16.738,0.083c3.125,0.023,6.264,0.047,9.423,0.063       c1.708-6.451,3.393-12.876,5.074-19.285c3.539-13.489,7.199-27.437,10.948-41.164c5.62-20.5,14.389-39.775,26.067-57.298       c12.905-19.378,32.871-30.493,54.776-30.493c22.694,0,44.588,12.154,57.138,31.719c15.53,24.363,23.298,50.58,29.926,75.348       c8.22,31.566,16.12,63.557,23.761,94.495c5.134,20.786,10.441,42.279,15.788,63.409c1.348,5.415,3.48,11.069,6.696,17.753       c6.324-16.384,11.803-33.697,16.291-51.49c5.661-21.91,11.208-44.314,16.572-65.982c6.91-27.913,14.056-56.776,21.543-84.986       c5.825-21.93,16.327-41.478,31.214-58.104c11.968-13.83,26.602-21.06,43.497-21.49c3.478-0.126,7.093-0.185,11.373-0.185       c3.643,0,7.313,0.043,11.072,0.087c3.862,0.045,7.855,0.093,11.974,0.093c3.068,0,5.968,1.409,7.863,3.822       s2.579,5.563,1.853,8.544c-1.366,5.611-2.688,11.092-3.991,16.504c-2.53,10.5-4.921,20.417-7.495,30.692       c-1.233,4.927-5.965,8.147-11,7.485c-1.301-0.17-2.552-0.257-3.717-0.257c-6.559,0-13.294,2.212-18.129,18.259       c-5.587,18.463-10.738,36.904-16.192,56.427c-0.622,2.228-1.247,4.463-1.874,6.707c5.519-0.815,10.733-0.992,15.506-0.992       c3.23,0,6.44,0.09,9.544,0.178c3.109,0.087,6.047,0.17,9.009,0.17c4.402,0,7.995-0.191,11.306-0.602       c3.279-0.407,6.554,0.834,8.738,3.318c2.185,2.483,3,5.885,2.179,9.089c-2.227,8.688-4.195,16.949-6.1,24.938       c-1.186,4.973-2.36,9.898-3.582,14.872c-1.098,4.471-5.106,7.614-9.711,7.614h-50.027c-0.467,1.901-0.932,3.802-1.396,5.703       c-2.347,9.6-4.772,19.525-7.527,29.354c-6.796,26.104-15.262,58.569-35.388,85.334c-13.259,17.524-32.637,27.562-53.184,27.562       c-19.924,0-38.911-9.563-52.092-26.236c-16.553-21.085-24.474-45.411-30.571-68.563c-6.932-26.983-13.788-54.336-20.419-80.788       c-6.763-26.979-13.754-54.872-20.806-82.291c-2.478-8.119-5.66-16.603-9.241-24.646c-7.527,22.477-13.198,41.253-17.802,58.933       c-4.043,15.753-8.01,31.881-11.845,47.479c-7.694,31.287-15.65,63.64-24.786,95.254c-5.111,18.507-15.559,35.595-24.788,50.677       c-11.246,18.896-29.352,29.345-52.368,30.222C57.838,433.715,57.711,433.717,57.584,433.717z M38.676,413.474       c1.464,0.023,2.911,0.048,4.344,0.073c4.971,0.086,9.67,0.168,14.368,0.17c16.058-0.66,28.095-7.556,35.782-20.495       c0.022-0.038,0.045-0.075,0.068-0.113c8.976-14.669,18.258-29.837,22.619-45.671c0.011-0.041,0.023-0.081,0.034-0.121       c9.031-31.247,16.943-63.421,24.595-94.535c3.848-15.645,7.826-31.823,11.903-47.709c4.853-18.634,10.828-38.355,18.802-62.068       c1.783-6.253,9.021-14.758,17.184-14.758c0.5,0,1.001,0.031,1.494,0.092c6.723,0.804,14.422,6.665,17.269,13.144       c4.223,9.303,7.976,19.225,10.856,28.699c0.042,0.138,0.081,0.277,0.117,0.417c7.085,27.546,14.104,55.546,20.891,82.624       c6.624,26.424,13.473,53.748,20.375,80.616c5.534,21.015,12.64,43.023,26.926,61.222c9.48,11.993,22.408,18.612,36.381,18.612       c14.225,0,27.79-7.146,37.217-19.605c16.447-21.873,23.939-47.366,32.022-78.419c0.016-0.061,0.032-0.121,0.05-0.182       c2.674-9.533,5.067-19.324,7.382-28.793c1.091-4.466,2.183-8.933,3.308-13.397c1.12-4.442,5.115-7.557,9.697-7.557h49.982       c0.569-2.371,1.134-4.742,1.702-7.124c0.943-3.96,1.903-7.986,2.904-12.106c-3.099-0.007-6.169-0.094-9.143-0.177       c-3.103-0.087-6.033-0.17-8.982-0.17c-8.137,0-16.9,0.556-25.854,4.591c-3.546,1.597-7.694,0.994-10.639-1.544       c-2.944-2.539-4.15-6.555-3.092-10.296c2.28-8.06,4.499-16,6.69-23.847c5.483-19.628,10.663-38.169,16.309-56.827       c6.162-20.45,17.774-31.337,34.535-32.393c1.845-7.487,3.638-14.93,5.509-22.691c0.343-1.423,0.687-2.851,1.032-4.284       c-3.514-0.042-6.948-0.081-10.359-0.081c-4.055,0-7.454,0.055-10.699,0.173c-0.041,0.001-0.081,0.003-0.121,0.004       c-11.229,0.274-20.707,5.062-28.973,14.639c-0.041,0.047-0.083,0.094-0.124,0.141c-12.793,14.27-21.822,31.077-26.837,49.955       c-7.443,28.045-14.568,56.826-21.459,84.659c-5.376,21.716-10.936,44.171-16.608,66.125       c-4.801,19.032-10.714,37.61-17.563,55.166c-3.373,8.898-9.934,14.209-17.56,14.209c-7.18,0-13.711-4.676-17.918-12.828       c-0.032-0.062-0.063-0.124-0.094-0.187c-4.131-8.433-6.873-15.646-8.629-22.703c-5.352-21.147-10.666-42.669-15.807-63.482       c-7.625-30.877-15.51-62.806-23.681-94.185c-6.207-23.195-13.454-47.739-27.439-69.678       c-8.893-13.865-24.336-22.493-40.288-22.493c-15.321,0-28.863,7.665-38.131,21.582c-10.491,15.743-18.371,33.065-23.421,51.488       c-3.72,13.621-7.367,27.52-10.894,40.961c-2.334,8.896-4.676,17.824-7.073,26.809c-1.168,4.377-5.132,7.422-9.662,7.422       c-5.824,0-11.562-0.042-17.256-0.085c-5.559-0.042-11.075-0.083-16.589-0.083c-5.904,0-11.114,0.049-15.9,0.151       c-1.759,6.158-3.307,12.554-4.866,19.208c0.375-0.003,0.753-0.005,1.136-0.005c3.255,0,6.474,0.109,9.585,0.215       c3.082,0.104,5.993,0.203,8.91,0.203c7.563,0,15.71-0.58,24.041-4.784c3.559-1.797,7.845-1.307,10.907,1.245       c3.063,2.553,4.317,6.68,3.192,10.504c-2.556,8.691-5.036,17.249-7.486,25.704c-5.605,19.344-10.899,37.615-16.667,56.039       c-7.066,23.26-21.528,29.926-33.676,30.994c-1.473,6.08-2.915,12.109-4.323,17.997       C40.217,407.042,39.451,410.245,38.676,413.474z"/></g></g></g></g></g><g id="Layer_1"/></svg>