<?xml version="1.0" ?><!DOCTYPE svg  PUBLIC '-//W3C//DTD SVG 1.1//EN'  'http://www.w3.org/Graphics/SVG/1.1/DTD/svg11.dtd'><svg height="512px" style="enable-background:new 0 0 512 512;" version="1.1" viewBox="0 0 512 512" width="512px" xml:space="preserve" xmlns="http://www.w3.org/2000/svg" xmlns:xlink="http://www.w3.org/1999/xlink"><g id="comp_x5F_366-vnv"><g><g><g><path d="M102.707,305.636c-21.157,0-28.789-18.86-28.789-18.86l-34.683-69.18      c0,0-6.453-11.231,6.452-11.231h20.351c6.453,0,8.19,5.398,11.665,11.231l22.771,46.224c0,0,3.226,8.126,13.092,8.126      c9.865,0,13.091-8.126,13.091-8.126l22.771-46.224c3.476-5.895,5.212-11.231,11.665-11.231h20.351      c12.905,0,6.453,11.231,6.453,11.231l-34.622,69.18c0,0-7.569,18.86-28.788,18.86H102.707z" style="fill:#FFFFFF;"/><path d="M124.485,315.636h-21.778c-25.745,0-36.226-20.983-37.845-24.611l-34.471-68.757c-1.228-2.25-5.108-10.499-0.76-18.013      c2.083-3.6,6.56-7.891,16.056-7.891h20.351c11.296,0,16.011,8.511,18.828,13.596c0.452,0.816,0.919,1.662,1.429,2.518      c0.136,0.228,0.262,0.461,0.379,0.699l22.771,46.224c0.204,0.414,0.18,0.276,0.276,0.579c0.522,0.934,1.605,1.966,3.845,1.966      c2.238,0,3.322-1.032,3.844-1.966c0.097-0.303,0.072-0.165,0.276-0.579l22.771-46.224c0.111-0.225,0.229-0.445,0.356-0.66      c0.497-0.843,0.954-1.674,1.395-2.474c2.821-5.116,7.542-13.678,18.884-13.678h20.351c9.496,0,13.973,4.291,16.057,7.89      c4.346,7.51,0.472,15.754-0.757,18.009l-34.405,68.747C160.709,294.677,150.277,315.636,124.485,315.636z M83.173,282.984      c0.677,1.544,6.022,12.651,19.534,12.651h21.778c14.292,0,19.457-12.459,19.508-12.585c0.102-0.255,0.215-0.505,0.338-0.751      l32.999-65.936h-15.648c-0.557,0.792-1.348,2.226-1.959,3.335c-0.472,0.856-0.961,1.741-1.484,2.639l-22.478,45.629      c-2.341,5.404-9.416,13.978-22.195,13.978c-12.779,0-19.855-8.573-22.196-13.978l-22.469-45.611      c-0.54-0.919-1.043-1.826-1.53-2.705c-0.605-1.092-1.386-2.502-1.938-3.286l-15.627-0.001l33.053,65.929      C83.003,282.584,83.063,282.697,83.173,282.984z"/></g><g><path d="M387.452,305.636c-21.158,0-28.79-18.86-28.79-18.86l-34.682-69.18      c0,0-6.453-11.231,6.452-11.231h20.351c6.453,0,8.189,5.398,11.664,11.231l22.771,46.224c0,0,3.229,8.126,13.093,8.126      s13.092-8.126,13.092-8.126l22.832-46.224c3.474-5.895,5.212-11.231,11.665-11.231h20.412c12.906,0,6.453,11.231,6.453,11.231      l-34.683,69.18c0,0-7.569,18.86-28.79,18.86H387.452L387.452,305.636z" style="fill:#FFFFFF;"/><path d="M409.292,315.636h-21.84c-25.744,0-36.226-20.98-37.846-24.61l-34.471-68.759c-1.229-2.252-5.106-10.5-0.76-18.011      c2.084-3.6,6.561-7.891,16.057-7.891h20.351c11.296,0,16.01,8.51,18.826,13.595c0.452,0.816,0.919,1.663,1.429,2.519      c0.136,0.228,0.263,0.461,0.38,0.699l22.771,46.224c0.203,0.413,0.179,0.274,0.275,0.576c0.522,0.936,1.607,1.969,3.847,1.969      s3.323-1.033,3.846-1.968c0.098-0.307,0.074-0.17,0.28-0.587l22.832-46.224c0.108-0.22,0.226-0.437,0.351-0.648      c0.496-0.841,0.951-1.67,1.392-2.47c2.821-5.118,7.544-13.684,18.889-13.684h20.412c9.497,0,13.974,4.291,16.058,7.891      c4.348,7.514,0.467,15.763-0.761,18.013l-34.465,68.747C445.511,294.691,435.077,315.636,409.292,315.636z M367.917,282.984      c0.676,1.543,6.021,12.651,19.535,12.651h21.84c13.55,0,18.854-11.084,19.525-12.626c0.112-0.296,0.175-0.417,0.325-0.716      l33.053-65.93h-15.707c-0.558,0.792-1.35,2.229-1.962,3.339c-0.472,0.856-0.96,1.741-1.482,2.639l-22.54,45.633      c-2.344,5.403-9.42,13.971-22.193,13.971c-12.778,0-19.854-8.574-22.196-13.977l-22.469-45.612      c-0.54-0.92-1.044-1.827-1.531-2.707c-0.604-1.091-1.386-2.5-1.938-3.284l-15.627-0.001l33.052,65.929      C367.747,282.584,367.807,282.697,367.917,282.984z"/></g><g><path d="M266.035,206.364c21.156,0,28.787,18.861,28.787,18.861l34.685,69.183      c0,0,6.452,11.228-6.453,11.228h-20.35c-6.455,0-8.191-5.398-11.665-11.228l-22.771-46.226c0,0-3.226-8.128-13.092-8.128      s-13.092,8.128-13.092,8.128l-22.771,46.226c-3.474,5.829-5.212,11.228-11.664,11.228h-20.413      c-12.905,0-6.452-11.228-6.452-11.228l34.684-69.183c0,0,7.568-18.861,28.789-18.861H266.035L266.035,206.364z" style="fill:#FFFFFF;"/><path d="M323.054,315.636h-20.35c-11.296,0-16.01-8.508-18.826-13.591c-0.452-0.815-0.919-1.662-1.43-2.518      c-0.136-0.229-0.263-0.462-0.38-0.7l-22.771-46.226c-0.204-0.415-0.18-0.276-0.276-0.58c-0.522-0.935-1.606-1.967-3.845-1.967      c-2.896,0-3.79,1.798-3.797,1.816c-0.098,0.248-0.207,0.492-0.324,0.73l-22.771,46.226c-0.118,0.238-0.244,0.472-0.38,0.7      c-0.51,0.855-0.977,1.701-1.429,2.517c-2.817,5.084-7.532,13.592-18.826,13.592h-20.413c-9.498,0-13.974-4.291-16.057-7.891      c-4.346-7.511-0.469-15.756,0.76-18.008l34.467-68.751c1.634-3.681,12.068-24.622,37.85-24.622h21.778      c25.742,0,36.224,20.982,37.844,24.613l34.473,68.76c1.229,2.252,5.106,10.497,0.76,18.008      C337.028,311.345,332.551,315.636,323.054,315.636z M191.355,295.636h15.687c0.553-0.783,1.334-2.194,1.94-3.286      c0.487-0.878,0.99-1.784,1.53-2.703l22.469-45.612c2.341-5.405,9.416-13.98,22.196-13.98c12.78,0,19.855,8.575,22.196,13.98      l22.468,45.612c0.54,0.92,1.044,1.826,1.531,2.706c0.604,1.09,1.385,2.499,1.937,3.281l15.627,0.002l-33.053-65.928      c-0.146-0.291-0.205-0.405-0.315-0.692c-0.677-1.544-6.021-12.651-19.532-12.651h-21.778c-14.293,0-19.458,12.459-19.508,12.585      c-0.103,0.257-0.217,0.51-0.341,0.757L191.355,295.636z"/></g></g></g></g><g id="Layer_1"/></svg>