<?xml version="1.0" ?><!DOCTYPE svg  PUBLIC '-//W3C//DTD SVG 1.1//EN'  'http://www.w3.org/Graphics/SVG/1.1/DTD/svg11.dtd'><svg height="512px" style="enable-background:new 0 0 512 512;" version="1.1" viewBox="0 0 512 512" width="512px" xml:space="preserve" xmlns="http://www.w3.org/2000/svg" xmlns:xlink="http://www.w3.org/1999/xlink"><g id="comp_x5F_370-waze"><g><g><g><path d="M485.999,227.171c0-103.321-90.305-187.376-201.254-187.376      c-110.972,0-201.251,84.055-201.071,189.592c0.056,0.375,5.315,37.706-11.476,57.399c-7.157,8.357-17.568,12.452-31.818,12.452      c-7.944,0-14.379,6.456-14.379,14.416c0,39.916,29.275,67.769,88.778,83.948c-1.642,5.359-2.529,11.05-2.529,16.948      c0,31.842,25.746,57.654,57.5,57.654c31.758,0,57.494-25.813,57.494-57.654c0-0.46-0.023-0.913-0.034-1.37      c17.96,0.91,37.124,1.37,57.535,1.37c0,31.842,25.748,57.654,57.503,57.654c31.758,0,57.502-25.813,57.502-57.654      c0-10.535-2.832-20.403-7.754-28.903C448.432,352.417,485.999,293.801,485.999,227.171z" style="fill:#496269;"/><g><path d="M342.248,482.205c-33.843,0-61.949-25.091-66.772-57.687       c-13.426-0.095-26.426-0.396-38.835-0.898c-4.433,33.033-32.74,58.585-66.89,58.585c-37.22,0-67.5-30.35-67.5-67.654       c0-3.345,0.244-6.671,0.73-9.958c-57.728-17.815-86.979-48.38-86.979-90.938c0-13.463,10.937-24.416,24.379-24.416       c11.293,0,18.99-2.846,24.223-8.957c11.364-13.328,10.475-40.23,9.173-49.47c-0.064-0.457-0.101-0.946-0.102-1.407       c-0.087-51.318,20.251-100.001,57.27-137.083c19.543-19.576,42.657-34.972,68.701-45.761       c26.854-11.125,55.486-16.765,85.101-16.765c116.485,0,211.254,88.542,211.254,197.376c0,33.969-9.436,67.492-27.286,96.946       c-15.694,25.896-37.634,48.32-63.798,65.296c3.18,7.963,4.835,16.503,4.835,25.138       C409.75,451.855,379.469,482.205,342.248,482.205z M227.209,403.181c0.168,0,0.337,0.004,0.507,0.013       c17.771,0.9,36.958,1.357,57.029,1.357c5.522,0,10,4.478,10,10c0,26.276,21.31,47.654,47.503,47.654       c26.192,0,47.502-21.378,47.502-47.654c0-8.391-2.216-16.652-6.408-23.893c-2.753-4.755-1.154-10.84,3.58-13.628       c55.777-32.843,89.077-88.865,89.077-149.859c0-97.805-85.796-177.376-191.254-177.376c-52.803,0-103.703,20.65-139.647,56.656       c-33.081,33.138-51.328,76.533-51.424,122.261c0.778,6.043,4.619,42.881-13.866,64.562       c-9.076,10.599-22.337,15.964-39.428,15.964c-2.415,0-4.379,1.981-4.379,4.416c0,35.102,26.627,59.404,81.402,74.299       c2.612,0.71,4.825,2.449,6.132,4.819c1.308,2.371,1.598,5.17,0.805,7.759c-1.387,4.529-2.091,9.246-2.091,14.02       c0,26.276,21.309,47.654,47.5,47.654c26.188,0,47.494-21.378,47.494-47.654c0-0.186-0.008-0.369-0.014-0.554l-0.017-0.583       c-0.065-2.78,1.03-5.461,3.023-7.4C222.107,404.192,224.612,403.181,227.209,403.181z" style="fill:#374A4F;"/></g></g><g><path d="M370.831,364.526c-8.422-4.85-18.175-7.637-28.583-7.637c-21.209,0-39.726,11.526-49.693,28.664      c-2.59,0.106-5.191,0.17-7.81,0.17c-23.92,0-46.041-0.633-66.343-1.883c-10.18-16.188-28.156-26.951-48.652-26.951      c-15.022,0-28.694,5.784-38.938,15.246c-41.751-9.931-66.695-25.213-73.879-45.566c15.184-2.857,27.6-9.913,37.115-21.046      c25.53-29.896,18.372-78.353,18.2-78.353c0-87.438,77.364-158.554,172.496-158.554c95.13,0,172.499,71.115,172.499,158.554      C457.244,285.786,422.445,337.089,370.831,364.526z" style="fill:#FFFFFF;"/><g><path d="M284.745,395.724c-23.935,0-46.462-0.64-66.958-1.901c-3.214-0.198-6.136-1.932-7.851-4.658       c-8.771-13.947-23.794-22.274-40.187-22.274c-11.943,0-23.362,4.472-32.152,12.592c-2.446,2.261-5.857,3.156-9.099,2.383       c-45.384-10.795-72.634-28.278-80.995-51.967c-0.971-2.752-0.691-5.792,0.766-8.32c1.457-2.529,3.947-4.296,6.815-4.835       c13.007-2.448,23.266-8.243,31.363-17.716c19.219-22.506,17.587-60.245,16.046-69.649c-0.16-0.709-0.244-1.448-0.244-2.206       c0-92.941,81.867-168.554,182.496-168.554c100.63,0,182.499,75.613,182.499,168.554c0,60.096-35.145,116.111-91.72,146.186       c-3.04,1.615-6.699,1.555-9.684-0.164c-7.16-4.123-15.318-6.303-23.593-6.303c-16.82,0-32.55,9.078-41.049,23.691       c-1.717,2.952-4.821,4.824-8.233,4.964C290.046,395.665,287.356,395.724,284.745,395.724z M223.879,374.145       c18.775,1.049,39.223,1.579,60.866,1.579c0.739,0,1.488-0.005,2.249-0.016c12.564-17.905,33.248-28.818,55.254-28.818       c9.835,0,19.557,2.165,28.433,6.3c47.358-27.107,76.563-74.95,76.563-126.019c0-81.913-72.896-148.554-162.499-148.554       c-89.382,0-162.14,66.322-162.495,147.96c1.048,6.323,1.471,18.523,0.474,29.712c-2.021,22.683-9.308,41.953-21.071,55.728       c-8.126,9.508-18.1,16.463-29.758,20.776c9.559,11.618,28.701,21.297,56.35,28.406c11.829-9.265,26.369-14.311,41.504-14.311       C191.291,346.89,211.159,356.984,223.879,374.145z M102.551,229.621c0.878,3.746,4.46,7.55,9.698,7.55       C107.571,237.171,103.644,233.959,102.551,229.621z" style="fill:#374A4F;"/></g></g><path d="M227.823,198.34c7.935,0,14.377-6.457,14.379-14.41c0-7.959-6.443-14.417-14.377-14.417h-0.289     c-7.937,0-14.234,6.458-14.234,14.417C213.302,191.886,219.89,198.34,227.823,198.34z" style="fill:#496269;"/><path d="M342.828,198.34c7.925,0,14.367-6.457,14.367-14.41c0-7.959-6.442-14.417-14.367-14.417h-0.299     c-7.936,0-14.225,6.458-14.225,14.417C328.305,191.886,334.912,198.34,342.828,198.34z" style="fill:#496269;"/><path d="M359.779,241.931c-7.813-1.735-15.408,3.141-17.188,10.895     c-6.129,27.327-29.906,46.413-57.847,46.413c-27.913,0-51.716-19.086-57.843-46.413c-1.756-7.786-9.426-12.567-17.19-10.895     c-7.735,1.755-12.596,9.452-10.87,17.24c9.118,40.584,44.442,68.894,85.903,68.894c41.49,0,76.825-28.332,85.934-68.894     C372.405,251.382,367.543,243.684,359.779,241.931z" style="fill:#496269;"/></g></g></g><g id="Layer_1"/></svg>