<?xml version="1.0" ?><!DOCTYPE svg  PUBLIC '-//W3C//DTD SVG 1.1//EN'  'http://www.w3.org/Graphics/SVG/1.1/DTD/svg11.dtd'><svg height="512px" style="enable-background:new 0 0 512 512;" version="1.1" viewBox="0 0 512 512" width="512px" xml:space="preserve" xmlns="http://www.w3.org/2000/svg" xmlns:xlink="http://www.w3.org/1999/xlink"><g id="comp_x5F_379-windows"><g><g><g><polygon points="50.887,107.667 207.229,86.122 207.229,237.185 50.887,237.185     " style="fill:#F8682C;"/><g><path d="M207.229,247.185H50.887c-5.523,0-10-4.477-10-10V107.667c0-4.995,3.686-9.225,8.635-9.906       l156.343-21.545c2.864-0.396,5.756,0.469,7.936,2.368c2.179,1.899,3.429,4.648,3.429,7.538v151.063       C217.229,242.708,212.752,247.185,207.229,247.185z M60.887,227.185h136.343V97.595L60.887,116.383V227.185z" style="fill:#BA4E21;"/></g></g><g><polygon points="51.017,406.413 207.1,427.921 207.1,278.979 51.017,278.979     " style="fill:#00B4F1;"/><g><path d="M207.1,437.921c-0.454,0-0.91-0.031-1.365-0.094L49.651,416.319       c-4.948-0.682-8.635-4.911-8.635-9.906V278.979c0-5.522,4.477-10,10-10H207.1c5.523,0,10,4.478,10,10v148.942       c0,2.891-1.25,5.639-3.429,7.538C211.838,437.057,209.5,437.921,207.1,437.921z M61.017,397.696L197.1,416.448v-127.47H61.017       V397.696z" style="fill:#0087B5;"/></g></g><g><polygon points="250.957,432.318 458.637,460.979 458.637,281.021 250.957,281.021     " style="fill:#FFC300;"/><g><path d="M458.637,470.979c-0.454,0-0.911-0.031-1.367-0.094l-207.68-28.66       c-4.948-0.683-8.633-4.912-8.633-9.906V281.021c0-5.522,4.477-10,10-10h207.68c5.522,0,10,4.478,10,10v179.957       c0,2.891-1.251,5.64-3.43,7.539C463.375,470.114,461.037,470.979,458.637,470.979z M260.956,423.604l187.681,25.9V291.021       H260.956V423.604z" style="fill:#BF9200;"/></g></g><g><polygon points="248.48,80.366 248.48,237.185 461.113,237.185 461.113,51.021 248.48,80.366     " style="fill:#91C300;"/><g><path d="M461.113,247.185H248.48c-5.523,0-10-4.477-10-10V80.366c0-4.995,3.685-9.223,8.633-9.906       l212.633-29.345c2.866-0.397,5.758,0.468,7.938,2.367c2.179,1.899,3.43,4.648,3.43,7.539v186.164       C471.113,242.708,466.636,247.185,461.113,247.185z M258.48,227.185h192.633V62.496L258.48,89.081V227.185z" style="fill:#6D9200;"/></g></g></g></g></g><g id="Layer_1"/></svg>