<?xml version="1.0" ?><!DOCTYPE svg  PUBLIC '-//W3C//DTD SVG 1.1//EN'  'http://www.w3.org/Graphics/SVG/1.1/DTD/svg11.dtd'><svg height="512px" style="enable-background:new 0 0 512 512;" version="1.1" viewBox="0 0 512 512" width="512px" xml:space="preserve" xmlns="http://www.w3.org/2000/svg" xmlns:xlink="http://www.w3.org/1999/xlink"><g id="comp_x5F_388-xiaomi"><g><g><g><path d="M240.952,90H45.3v332h60.197V150.368h135.455c24.892,0,45.148,20.311,45.148,45.267V422h60.197      V195.635C346.299,137.395,299.043,90,240.952,90z" style="fill:#FFFFFF;"/><path d="M346.298,432h-60.197c-5.522,0-10-4.478-10-10V195.635c0-19.446-15.768-35.267-35.148-35.267      H115.497V422c0,5.522-4.477,10-10,10H45.3c-5.523,0-10-4.478-10-10V90c0-5.523,4.477-10,10-10h195.652      c30.771,0,59.729,12.045,81.538,33.916c21.802,21.863,33.809,50.884,33.808,81.719V422C356.298,427.522,351.82,432,346.298,432z       M296.101,412h40.197V195.635c0-25.503-9.933-49.509-27.97-67.597C290.298,109.958,266.37,100,240.952,100H55.3v312h40.197      V150.368c0-5.523,4.477-10,10-10h135.455c30.409,0,55.148,24.792,55.148,55.267V412z" style="fill:#FF6700;"/></g><g><rect height="211.271" style="fill:#FFFFFF;" width="60.201" x="165.701" y="210.729"/><path d="M225.902,432h-60.201c-5.523,0-10-4.478-10-10V210.729c0-5.523,4.477-10,10-10h60.201      c5.523,0,10,4.477,10,10V422C235.902,427.522,231.425,432,225.902,432z M175.701,412h40.201V220.729h-40.201V412z" style="fill:#FF6700;"/></g><g><rect height="332" style="fill:#FFFFFF;" width="60.199" x="406.501" y="90"/><path d="M466.7,432h-60.199c-5.522,0-10-4.478-10-10V90c0-5.523,4.478-10,10-10H466.7      c5.522,0,10,4.477,10,10v332C476.7,427.522,472.223,432,466.7,432z M416.501,412H456.7V100h-40.199V412z" style="fill:#FF6700;"/></g></g></g></g><g id="Layer_1"/></svg>