<?xml version="1.0" encoding="UTF-8"?><svg id="a" xmlns="http://www.w3.org/2000/svg" xmlns:xlink="http://www.w3.org/1999/xlink" viewBox="0 0 4023.25 788.6"><defs><linearGradient id="b" x1="411.38" y1="365.87" x2="346.67" y2="426.66" gradientTransform="translate(-4402.32 -4647.25) scale(12.68)" gradientUnits="userSpaceOnUse"><stop offset=".01" stop-color="#1a0"/><stop offset=".52" stop-color="#0098e9"/><stop offset="1" stop-color="#007f2b"/></linearGradient><linearGradient id="c" x1="336.34" y1="441.92" x2="414.85" y2="363.23" gradientTransform="translate(-4402.32 -4647.25) scale(12.68)" gradientUnits="userSpaceOnUse"><stop offset=".01" stop-color="#00ff25"/><stop offset=".52" stop-color="#00d4d1"/><stop offset="1" stop-color="#1e00bf"/></linearGradient><linearGradient id="d" x1="397.13" y1="381.65" x2="347.07" y2="428.68" gradientTransform="translate(-4402.32 -4647.25) scale(12.68)" gradientUnits="userSpaceOnUse"><stop offset="0" stop-color="#ffd500"/><stop offset=".52" stop-color="#bf6000"/><stop offset="1" stop-color="#fdff00"/><stop offset="1" stop-color="#064093"/></linearGradient><linearGradient id="e" x1="339.07" y1="440.16" x2="399.81" y2="379.29" gradientTransform="translate(-4402.32 -4647.25) scale(12.68)" gradientUnits="userSpaceOnUse"><stop offset="0" stop-color="#8815ff"/><stop offset=".52" stop-color="#bf00aa"/><stop offset="1" stop-color="#064093"/><stop offset="1" stop-color="#b600ff"/></linearGradient><linearGradient id="f" x1="385.18" y1="399.5" x2="347.34" y2="435.06" gradientTransform="translate(-4024.26 -5023.86) rotate(3.97) scale(12.68)" gradientUnits="userSpaceOnUse"><stop offset=".01" stop-color="#00a7aa"/><stop offset=".52" stop-color="#557cff"/><stop offset="1" stop-color="#00b3d4"/></linearGradient><linearGradient id="g" x1="341.27" y1="441.93" x2="387.19" y2="395.9" gradientTransform="translate(-4165.6 -4888.12) rotate(2.51) scale(12.68)" gradientUnits="userSpaceOnUse"><stop offset=".01" stop-color="#3ff6ff"/><stop offset=".52" stop-color="#9a55ff"/><stop offset="1" stop-color="#00a7bf"/></linearGradient></defs><path d="M15.15,761.2S-20.26,380.6,400.5,250.56C821.26,120.59,804.73,0,804.73,0c0,0,75.88,297.89-231.47,354.38C20.09,456.04,15.15,761.2,15.15,761.2Z" fill="url(#b)"/><path d="M812.96,73.8c-7.66,33.68-60.63,135.38-410.59,243.47C107.04,408.54,32.37,620.96,14.47,744.26c.14,10.85.68,16.94.68,16.94,0,0,4.93-305.16,558.11-406.82,209.11-38.41,240.8-188.51,239.7-280.58Z" fill="url(#c)"/><path d="M14.99,786.72S-12.43,492.31,313.07,391.71c325.48-100.55,312.7-193.82,312.7-193.82,0,0,58.69,230.44-179.05,274.14C18.82,550.66,14.99,786.72,14.99,786.72Z" fill="url(#d)"/><path d="M632.12,250.97c-5.93,26.08-46.9,104.73-317.6,188.34C86.06,509.91,28.3,674.22,14.46,769.62c.11,8.38.53,13.09.53,13.09,0,0,3.81-236.06,431.73-314.69,161.74-29.73,186.26-145.83,185.4-217.06Z" fill="url(#e)"/><path d="M0,783.34s-5.28-223.48,245.49-282.33c250.75-58.81,246-129.84,246-129.84,0,0,32.22,176.87-149.42,197.39C15.23,605.5,0,783.34,0,783.34Z" fill="url(#f)"/><path d="M490.02,407.37c-5.34,19.5-38.9,77.55-246.12,131.76C69,584.91,19.92,707.1,6.3,778.69c-.19,6.35-.01,9.91-.01,9.91,0,0,10.69-178.17,336.48-223.43,123.18-17.07,145.53-103.96,147.25-157.79Z" fill="url(#g)"/><path d="M1075.13,481.84c-3.33,0-6.02-1.11-8.05-3.33-2.04-2.22-3.05-4.8-3.05-7.77V104.44c0-2.96,1.11-5.55,3.33-7.77,2.22-2.22,4.8-3.33,7.77-3.33h209.24c2.96,0,5.55,1.11,7.77,3.33,2.22,2.22,3.33,4.81,3.33,7.77,0,3.33-1.11,6.02-3.33,8.05-2.22,2.04-4.81,3.05-7.77,3.05h-199.8l1.67-2.22v159.84l-2.22-4.44h175.38c2.96,0,5.55,1.11,7.77,3.33,2.22,2.22,3.33,4.81,3.33,7.77,0,3.33-1.11,6.02-3.33,8.05-2.22,2.04-4.81,3.05-7.77,3.05h-176.49l3.33-4.44v184.26c0,2.97-1.02,5.55-3.05,7.77-2.04,2.22-4.72,3.33-8.05,3.33Z"/><path d="M1485.82,487.39c-27.75,0-52.27-5.91-73.54-17.76-21.28-11.84-38.02-28.58-50.23-50.23s-18.31-47.08-18.31-76.31c0-31.08,6.01-57.53,18.04-79.37,12.02-21.83,27.56-38.57,46.62-50.23,19.05-11.66,39.31-17.48,60.77-17.48,15.54,0,30.71,2.5,45.51,7.49,14.79,5,28.03,12.77,39.68,23.31s21.09,23.68,28.3,39.4c7.22,15.73,11.19,34.51,11.93,56.33,0,2.97-1.11,5.65-3.33,8.05-2.22,2.41-4.81,3.61-7.77,3.61h-226.44l-3.33-21.09h223.67l-5.55,5v-9.99c-1.86-19.61-8.05-36.08-18.59-49.4-10.54-13.32-23.22-23.4-38.02-30.25-14.8-6.84-30.16-10.27-46.07-10.27-11.1,0-22.75,2.5-34.96,7.49-12.21,4.99-23.5,12.58-33.86,22.75-10.36,10.18-18.78,23.03-25.25,38.57-6.48,15.54-9.71,33.67-9.71,54.39,0,22.57,4.53,43.29,13.6,62.16,9.06,18.87,22.56,34.05,40.51,45.51,17.94,11.47,40.05,17.21,66.32,17.21,12.57,0,24.42-2.12,35.52-6.38,11.1-4.25,21.09-9.89,29.97-16.93,8.88-7.02,16.1-14.61,21.65-22.75,2.96-3.33,6.1-5,9.43-5,2.58,0,4.8,1.02,6.66,3.05,1.85,2.04,2.78,4.35,2.78,6.94s-.75,4.81-2.22,6.66c-11.47,14.8-26.18,27.75-44.12,38.85-17.95,11.1-37.83,16.65-59.66,16.65Z"/><path d="M1900.96,204.9c3.33,0,6.01,1.11,8.05,3.33,2.03,2.22,3.05,4.81,3.05,7.77v254.75c0,2.97-1.11,5.55-3.33,7.77-2.22,2.22-4.81,3.33-7.77,3.33-3.33,0-6.02-1.11-8.05-3.33-2.04-2.22-3.05-4.8-3.05-7.77v-78.81l8.88-7.21c0,11.85-2.97,23.87-8.88,36.08-5.92,12.21-14.07,23.31-24.42,33.3-10.36,9.99-22.57,18.04-36.63,24.14-14.07,6.11-29.23,9.16-45.51,9.16-24.79,0-46.9-6.47-66.32-19.42-19.43-12.95-34.69-30.52-45.79-52.72-11.1-22.2-16.65-47.17-16.65-74.92s5.64-53,16.93-74.65c11.28-21.65,26.64-38.66,46.07-51.06,19.42-12.39,41.35-18.59,65.77-18.59,15.9,0,30.89,2.87,44.96,8.6,14.06,5.74,26.36,13.79,36.91,24.14,10.54,10.36,18.77,22.48,24.7,36.35,5.91,13.88,8.88,28.96,8.88,45.23l-8.88-13.88v-80.48c0-2.96,1.01-5.55,3.05-7.77,2.03-2.22,4.72-3.33,8.05-3.33ZM1784.41,466.3c20.72,0,39.21-5.45,55.5-16.37,16.28-10.91,29.04-25.89,38.29-44.96,9.24-19.05,13.88-40.6,13.88-64.66s-4.63-43.75-13.88-62.44c-9.25-18.68-22.02-33.48-38.29-44.4-16.29-10.91-34.78-16.37-55.5-16.37s-38.67,5.27-54.95,15.82c-16.29,10.54-29.14,25.07-38.57,43.57-9.44,18.51-14.15,39.78-14.15,63.83s4.62,45.61,13.88,64.66c9.25,19.06,22.01,34.05,38.3,44.96,16.28,10.92,34.77,16.37,55.5,16.37Z"/><path d="M1978.66,202.68h128.76c2.96,0,5.46,1.11,7.49,3.33,2.03,2.22,3.05,4.63,3.05,7.21,0,2.97-1.02,5.46-3.05,7.49-2.04,2.04-4.54,3.05-7.49,3.05h-128.76c-2.59,0-5-1.11-7.21-3.33-2.22-2.22-3.33-4.62-3.33-7.22,0-2.96,1.11-5.45,3.33-7.49,2.22-2.03,4.62-3.05,7.21-3.05ZM2035.27,121.09c3.33,0,6.01,1.11,8.05,3.33,2.03,2.22,3.05,4.81,3.05,7.77v289.15c0,12.21,1.57,21.19,4.72,26.92,3.14,5.74,7.12,9.43,11.93,11.1,4.8,1.67,9.44,2.5,13.88,2.5,2.58,0,4.8-.36,6.66-1.11,1.85-.74,4.07-1.11,6.66-1.11s4.8,1.02,6.66,3.05c1.85,2.04,2.78,4.35,2.78,6.94,0,3.33-2.13,6.2-6.38,8.6-4.26,2.41-9.53,3.61-15.82,3.61-2.22,0-6.2-.09-11.93-.28-5.74-.18-11.85-1.85-18.32-5-6.48-3.14-11.93-8.88-16.37-17.21-4.44-8.33-6.66-20.62-6.66-36.91V132.19c0-2.96,1.11-5.55,3.33-7.77,2.22-2.22,4.8-3.33,7.77-3.33Z"/><path d="M2300.55,201.57c22.2,0,40.6,4.81,55.22,14.43,14.61,9.63,25.53,22.57,32.75,38.85,7.21,16.29,10.82,34.23,10.82,53.83v162.06c0,2.97-1.11,5.55-3.33,7.77-2.22,2.22-4.81,3.33-7.77,3.33-3.33,0-6.02-1.11-8.05-3.33-2.04-2.22-3.05-4.8-3.05-7.77v-162.06c0-15.9-2.59-30.33-7.77-43.29-5.19-12.95-13.32-23.31-24.42-31.08s-25.9-11.66-44.4-11.66c-15.91,0-31.45,3.89-46.62,11.66-15.18,7.77-27.66,18.13-37.46,31.08-9.81,12.96-14.71,27.39-14.71,43.29v162.06c0,2.97-1.11,5.55-3.33,7.77-2.22,2.22-4.81,3.33-7.77,3.33-3.33,0-6.02-1.11-8.05-3.33-2.04-2.22-3.05-4.8-3.05-7.77V82.24c0-2.96,1.11-5.55,3.33-7.77,2.22-2.22,4.8-3.33,7.77-3.33,3.33,0,6.01,1.11,8.05,3.33,2.03,2.22,3.05,4.81,3.05,7.77v193.7l-13.88,26.64c0-13.32,3.33-26.08,9.99-38.29s15.44-23.03,26.36-32.47c10.91-9.44,23.03-16.83,36.35-22.2,13.32-5.36,26.64-8.05,39.96-8.05Z"/><path d="M2616.35,487.39c-27.75,0-52.27-5.91-73.54-17.76-21.28-11.84-38.02-28.58-50.23-50.23s-18.31-47.08-18.31-76.31c0-31.08,6.01-57.53,18.04-79.37,12.02-21.83,27.56-38.57,46.62-50.23,19.05-11.66,39.31-17.48,60.77-17.48,15.54,0,30.71,2.5,45.51,7.49,14.79,5,28.03,12.77,39.68,23.31s21.09,23.68,28.3,39.4c7.22,15.73,11.19,34.51,11.93,56.33,0,2.97-1.11,5.65-3.33,8.05-2.22,2.41-4.81,3.61-7.77,3.61h-226.44l-3.33-21.09h223.67l-5.55,5v-9.99c-1.86-19.61-8.05-36.08-18.59-49.4-10.54-13.32-23.22-23.4-38.02-30.25-14.8-6.84-30.16-10.27-46.07-10.27-11.1,0-22.75,2.5-34.96,7.49-12.21,4.99-23.5,12.58-33.86,22.75-10.36,10.18-18.78,23.03-25.25,38.57-6.48,15.54-9.71,33.67-9.71,54.39,0,22.57,4.53,43.29,13.6,62.16,9.06,18.87,22.56,34.05,40.51,45.51,17.94,11.47,40.05,17.21,66.32,17.21,12.57,0,24.42-2.12,35.52-6.38,11.1-4.25,21.09-9.89,29.97-16.93,8.88-7.02,16.1-14.61,21.65-22.75,2.96-3.33,6.1-5,9.43-5,2.58,0,4.8,1.02,6.66,3.05,1.85,2.04,2.78,4.35,2.78,6.94s-.75,4.81-2.22,6.66c-11.47,14.8-26.18,27.75-44.12,38.85-17.95,11.1-37.83,16.65-59.66,16.65Z"/><path d="M2811.15,481.84c-3.33,0-6.02-1.11-8.05-3.33-2.04-2.22-3.05-4.8-3.05-7.77v-254.75c0-2.96,1.11-5.55,3.33-7.77,2.22-2.22,4.8-3.33,7.77-3.33,3.33,0,6.01,1.11,8.05,3.33,2.03,2.22,3.05,4.81,3.05,7.77v93.8l-9.43,14.43c0-14.43,2.5-29.04,7.49-43.84,5-14.79,12.3-28.58,21.92-41.35,9.62-12.77,21.37-23.12,35.24-31.08,13.88-7.95,29.88-11.93,48.01-11.93,5.18,0,10.73.75,16.65,2.22,5.92,1.48,8.88,5,8.88,10.54,0,3.33-.93,6.1-2.78,8.33-1.86,2.22-4.26,3.33-7.21,3.33-2.22,0-4.91-.83-8.05-2.5-3.15-1.67-7.68-2.5-13.6-2.5-11.85,0-23.5,3.52-34.96,10.54-11.47,7.03-21.92,16.37-31.36,28.03-9.43,11.66-16.93,24.33-22.48,38.02-5.55,13.69-8.33,27.01-8.33,39.96v138.75c0,2.97-1.11,5.55-3.33,7.77-2.22,2.22-4.81,3.33-7.77,3.33Z"/><path d="M3029.27,470.74c0,2.97-1.11,5.55-3.33,7.77-2.22,2.22-4.81,3.33-7.77,3.33-3.33,0-6.02-1.11-8.05-3.33-2.04-2.22-3.05-4.8-3.05-7.77V82.24c0-2.96,1.11-5.55,3.33-7.77,2.22-2.22,4.8-3.33,7.77-3.33,3.33,0,6.01,1.11,8.05,3.33,2.03,2.22,3.05,4.81,3.05,7.77v388.5Z"/><path d="M3135.26,158.28c-5.92,0-10.64-1.67-14.15-5-3.52-3.33-5.27-7.58-5.27-12.77v-4.44c0-5.18,1.85-9.44,5.55-12.76,3.69-3.33,8.51-5,14.43-5,5.18,0,9.52,1.67,13.04,5,3.51,3.33,5.27,7.59,5.27,12.76v4.44c0,5.19-1.76,9.44-5.27,12.77-3.52,3.33-8.05,5-13.6,5ZM3146.36,470.74c0,2.97-1.11,5.55-3.33,7.77-2.22,2.22-4.81,3.33-7.77,3.33-3.33,0-6.02-1.11-8.05-3.33-2.04-2.22-3.05-4.8-3.05-7.77V207.12c0-2.96,1.11-5.55,3.33-7.77,2.22-2.22,4.8-3.33,7.77-3.33,3.33,0,6.01,1.11,8.05,3.33,2.03,2.22,3.05,4.81,3.05,7.77v263.62Z"/><path d="M3355.59,196.02c16.65,0,32.19,2.97,46.62,8.88,14.43,5.92,27.1,13.69,38.02,23.31,10.91,9.63,19.42,19.98,25.53,31.08,6.1,11.1,9.16,22.02,9.16,32.75l-7.21-20.54v-55.5c0-2.96,1.01-5.55,3.05-7.77,2.03-2.22,4.72-3.33,8.05-3.33s6.01,1.11,8.05,3.33c2.03,2.22,3.05,4.81,3.05,7.77v238.65c0,28.49-5.83,53.09-17.48,73.81-11.65,20.72-27.66,36.63-48.01,47.73-20.35,11.1-44.04,16.65-71.04,16.65-14.8,0-29.69-1.94-44.68-5.83s-27.47-8.79-37.46-14.71c-9.99-5.92-14.98-12.21-14.98-18.87,0-2.97.83-5.37,2.5-7.22,1.67-1.86,3.97-2.77,6.94-2.77,3.69,0,7.12,2.03,10.27,6.1,3.14,4.07,8.79,7.77,16.93,11.1,3.33,1.11,7.86,2.58,13.6,4.44,5.73,1.85,12.67,3.42,20.81,4.72,8.13,1.29,17.21,1.94,27.19,1.94,35.15,0,62.8-10.82,82.97-32.47,20.16-21.64,30.25-49.86,30.25-84.64v-54.95l5.55.56c-4.44,15.91-10.92,29.42-19.42,40.52-8.52,11.1-18.23,20.08-29.14,26.92-10.92,6.85-22.39,11.85-34.41,14.99-12.03,3.14-23.59,4.72-34.69,4.72-25.53,0-48.38-6.38-68.54-19.15-20.17-12.76-36.17-30.15-48.01-52.17-11.85-22.01-17.76-46.9-17.76-74.65s5.91-52.63,17.76-74.65c11.84-22.01,27.84-39.31,48.01-51.89,20.16-12.57,43.01-18.87,68.54-18.87ZM3356.7,217.11c-21.46,0-40.79,5.37-58,16.09-17.21,10.74-30.72,25.44-40.51,44.12-9.81,18.69-14.71,40.06-14.71,64.1s4.9,44.96,14.71,63.83c9.8,18.87,23.31,33.77,40.51,44.68,17.21,10.92,36.54,16.37,58,16.37s40.7-5.27,57.72-15.82c17.01-10.54,30.53-25.16,40.51-43.84,9.99-18.68,14.99-40.42,14.99-65.21s-5-46.52-14.99-65.21c-9.99-18.68-23.5-33.2-40.51-43.57-17.02-10.35-36.27-15.54-57.72-15.54Z"/><path d="M3703.02,201.57c22.2,0,40.6,4.81,55.22,14.43,14.61,9.63,25.53,22.57,32.75,38.85,7.21,16.29,10.82,34.23,10.82,53.83v162.06c0,2.97-1.11,5.55-3.33,7.77-2.22,2.22-4.81,3.33-7.77,3.33-3.33,0-6.02-1.11-8.05-3.33-2.04-2.22-3.05-4.8-3.05-7.77v-162.06c0-15.9-2.59-30.33-7.77-43.29-5.19-12.95-13.32-23.31-24.42-31.08s-25.9-11.66-44.4-11.66c-15.91,0-31.45,3.89-46.62,11.66-15.18,7.77-27.66,18.13-37.46,31.08-9.81,12.96-14.71,27.39-14.71,43.29v162.06c0,2.97-1.11,5.55-3.33,7.77-2.22,2.22-4.81,3.33-7.77,3.33-3.33,0-6.02-1.11-8.05-3.33-2.04-2.22-3.05-4.8-3.05-7.77V82.24c0-2.96,1.11-5.55,3.33-7.77,2.22-2.22,4.8-3.33,7.77-3.33,3.33,0,6.01,1.11,8.05,3.33,2.03,2.22,3.05,4.81,3.05,7.77v193.7l-13.88,26.64c0-13.32,3.33-26.08,9.99-38.29s15.44-23.03,26.36-32.47c10.91-9.44,23.03-16.83,36.35-22.2,13.32-5.36,26.64-8.05,39.96-8.05Z"/><path d="M3868.41,202.68h128.76c2.96,0,5.46,1.11,7.49,3.33,2.03,2.22,3.05,4.63,3.05,7.21,0,2.97-1.02,5.46-3.05,7.49-2.04,2.04-4.54,3.05-7.49,3.05h-128.76c-2.59,0-5-1.11-7.21-3.33-2.22-2.22-3.33-4.62-3.33-7.22,0-2.96,1.11-5.45,3.33-7.49,2.22-2.03,4.62-3.05,7.21-3.05ZM3925.02,121.09c3.33,0,6.01,1.11,8.05,3.33,2.03,2.22,3.05,4.81,3.05,7.77v289.15c0,12.21,1.57,21.19,4.72,26.92,3.14,5.74,7.12,9.43,11.93,11.1,4.8,1.67,9.44,2.5,13.88,2.5,2.58,0,4.8-.36,6.66-1.11,1.85-.74,4.07-1.11,6.66-1.11s4.8,1.02,6.66,3.05c1.85,2.04,2.78,4.35,2.78,6.94,0,3.33-2.13,6.2-6.38,8.6-4.26,2.41-9.53,3.61-15.82,3.61-2.22,0-6.2-.09-11.93-.28-5.74-.18-11.85-1.85-18.32-5-6.48-3.14-11.93-8.88-16.37-17.21-4.44-8.33-6.66-20.62-6.66-36.91V132.19c0-2.96,1.11-5.55,3.33-7.77,2.22-2.22,4.8-3.33,7.77-3.33Z"/><path d="M1062.53,621.05c1.4,0,2.87.38,4.42,1.12,1.55.75,2.72,1.73,3.53,2.93l36.45,56.1-7.5-.3,37.35-55.8c1.9-2.7,4.35-4.05,7.35-4.05,2.4,0,4.55.85,6.45,2.55,1.9,1.7,2.85,3.9,2.85,6.6v86.85c0,2.6-.85,4.78-2.55,6.53-1.7,1.75-3.95,2.62-6.75,2.62s-5.08-.87-6.83-2.62c-1.75-1.75-2.62-3.92-2.62-6.53v-70.65l5.85,1.35-30.6,46.65c-.9,1.1-2.02,2.05-3.38,2.85-1.35.8-2.73,1.15-4.12,1.05-1.3.1-2.62-.25-3.97-1.05-1.35-.8-2.47-1.75-3.38-2.85l-28.65-45.3,3.9-7.95v75.9c0,2.6-.8,4.78-2.4,6.53-1.6,1.75-3.7,2.62-6.3,2.62s-4.55-.87-6.15-2.62c-1.6-1.75-2.4-3.92-2.4-6.53v-86.85c0-2.5.92-4.65,2.78-6.45,1.85-1.8,4.07-2.7,6.67-2.7Z"/><path d="M1252.28,686.15c0,8.2-1.83,15.43-5.47,21.67-3.65,6.25-8.55,11.13-14.7,14.62-6.15,3.5-13.03,5.25-20.62,5.25s-14.47-1.75-20.62-5.25c-6.15-3.5-11.05-8.37-14.7-14.62-3.65-6.25-5.47-13.47-5.47-21.67s1.82-15.42,5.47-21.67c3.65-6.25,8.55-11.15,14.7-14.7,6.15-3.55,13.02-5.33,20.62-5.33s14.48,1.78,20.62,5.33c6.15,3.55,11.05,8.45,14.7,14.7,3.65,6.25,5.47,13.48,5.47,21.67ZM1234.28,686.15c0-5.1-1.03-9.53-3.07-13.28-2.05-3.75-4.8-6.67-8.25-8.77-3.45-2.1-7.28-3.15-11.48-3.15s-8.02,1.05-11.47,3.15c-3.45,2.1-6.2,5.02-8.25,8.77-2.05,3.75-3.08,8.17-3.08,13.28s1.02,9.38,3.08,13.12c2.05,3.75,4.8,6.67,8.25,8.77,3.45,2.1,7.27,3.15,11.47,3.15s8.03-1.05,11.48-3.15c3.45-2.1,6.2-5.02,8.25-8.77,2.05-3.75,3.07-8.12,3.07-13.12Z"/><path d="M1345.88,686.15c0,8.2-1.83,15.43-5.47,21.67-3.65,6.25-8.55,11.13-14.7,14.62-6.15,3.5-13.03,5.25-20.62,5.25s-14.47-1.75-20.62-5.25c-6.15-3.5-11.05-8.37-14.7-14.62-3.65-6.25-5.47-13.47-5.47-21.67s1.82-15.42,5.47-21.67c3.65-6.25,8.55-11.15,14.7-14.7,6.15-3.55,13.02-5.33,20.62-5.33s14.48,1.78,20.62,5.33c6.15,3.55,11.05,8.45,14.7,14.7,3.65,6.25,5.47,13.48,5.47,21.67ZM1327.88,686.15c0-5.1-1.03-9.53-3.07-13.28-2.05-3.75-4.8-6.67-8.25-8.77-3.45-2.1-7.28-3.15-11.48-3.15s-8.02,1.05-11.47,3.15c-3.45,2.1-6.2,5.02-8.25,8.77-2.05,3.75-3.08,8.17-3.08,13.28s1.02,9.38,3.08,13.12c2.05,3.75,4.8,6.67,8.25,8.77,3.45,2.1,7.27,3.15,11.47,3.15s8.03-1.05,11.48-3.15c3.45-2.1,6.2-5.02,8.25-8.77,2.05-3.75,3.07-8.12,3.07-13.12Z"/><path d="M1363.28,645.95c2.9,0,5.35,1.25,7.35,3.75l50.1,62.25c1.3,1.6,1.95,3.4,1.95,5.4,0,2.5-.95,4.65-2.85,6.45-1.9,1.8-4,2.7-6.3,2.7-2.9,0-5.35-1.3-7.35-3.9l-50.1-62.25c-1.3-1.6-1.95-3.4-1.95-5.4,0-2.6.92-4.75,2.78-6.45,1.85-1.7,3.97-2.55,6.38-2.55ZM1363.43,726.35c-2,0-3.97-.77-5.92-2.33-1.95-1.55-2.92-3.42-2.92-5.62,0-2,.75-3.9,2.25-5.7l22.95-28.05,9,15-18.15,22.95c-1.9,2.5-4.3,3.75-7.2,3.75ZM1413.38,645.95c2.4,0,4.42.83,6.08,2.47,1.65,1.65,2.47,3.53,2.47,5.62,0,1-.15,2-.45,3-.3,1-.85,1.95-1.65,2.85l-22.65,27.6-9.45-13.05,18.45-24.45c2-2.7,4.4-4.05,7.2-4.05Z"/><path d="M1525.13,621.2c9.6,0,16.75,2.25,21.45,6.75,4.7,4.5,7.05,11.15,7.05,19.95,0,4.7-1.15,8.83-3.45,12.38-2.3,3.55-5.7,6.3-10.2,8.25s-10.05,2.92-16.65,2.92l.6-6.75c3.1,0,6.65.43,10.65,1.28,4,.85,7.88,2.35,11.62,4.5,3.75,2.15,6.85,5.15,9.3,9,2.45,3.85,3.67,8.77,3.67,14.77,0,6.6-1.08,12-3.22,16.2-2.15,4.2-4.98,7.45-8.48,9.75-3.5,2.3-7.25,3.88-11.25,4.72-4,.85-7.85,1.28-11.55,1.28h-37.35c-2.6,0-4.78-.87-6.53-2.62-1.75-1.75-2.62-3.92-2.62-6.53v-86.7c0-2.6.87-4.77,2.62-6.53s3.92-2.62,6.53-2.62h37.8ZM1522.43,638.9h-26.7l1.95-2.4v27.15l-1.8-1.35h27c2.9,0,5.5-.95,7.8-2.85,2.3-1.9,3.45-4.65,3.45-8.25,0-4.3-1.08-7.42-3.23-9.38-2.15-1.95-4.98-2.92-8.47-2.92ZM1523.63,680h-27.3l1.35-1.2v31.65l-1.5-1.5h28.5c4.6,0,8.25-1.22,10.95-3.67,2.7-2.45,4.05-6.12,4.05-11.03,0-4.5-.9-7.75-2.7-9.75-1.8-2-3.95-3.25-6.45-3.75-2.5-.5-4.8-.75-6.9-.75Z"/><path d="M1640.63,644.45c2.6,0,4.75.85,6.45,2.55,1.7,1.7,2.55,3.9,2.55,6.6v63.45c0,2.6-.85,4.78-2.55,6.53-1.7,1.75-3.85,2.62-6.45,2.62s-4.75-.87-6.45-2.62c-1.7-1.75-2.55-3.92-2.55-6.53v-7.35l3.3,1.35c0,1.3-.7,2.88-2.1,4.73-1.4,1.85-3.3,3.67-5.7,5.47-2.4,1.8-5.23,3.33-8.48,4.58-3.25,1.25-6.78,1.88-10.57,1.88-6.9,0-13.15-1.77-18.75-5.33-5.6-3.55-10.03-8.45-13.28-14.7-3.25-6.25-4.88-13.42-4.88-21.52s1.62-15.42,4.88-21.67c3.25-6.25,7.62-11.15,13.12-14.7,5.5-3.55,11.6-5.33,18.3-5.33,4.3,0,8.25.65,11.85,1.95,3.6,1.3,6.72,2.95,9.38,4.95,2.65,2,4.7,4.03,6.15,6.07,1.45,2.05,2.17,3.78,2.17,5.18l-5.4,1.95v-10.95c0-2.6.85-4.77,2.55-6.53,1.7-1.75,3.85-2.62,6.45-2.62ZM1610.33,711.2c4.4,0,8.25-1.1,11.55-3.3,3.3-2.2,5.87-5.2,7.72-9,1.85-3.8,2.78-8.05,2.78-12.75s-.93-9.1-2.78-12.9c-1.85-3.8-4.42-6.8-7.72-9-3.3-2.2-7.15-3.3-11.55-3.3s-8.1,1.1-11.4,3.3c-3.3,2.2-5.88,5.2-7.72,9-1.85,3.8-2.78,8.1-2.78,12.9s.92,8.95,2.78,12.75c1.85,3.8,4.42,6.8,7.72,9,3.3,2.2,7.1,3.3,11.4,3.3Z"/><path d="M1664.47,713.75c-1-1.4-1.45-3.2-1.35-5.4.1-2.2,1.4-4.1,3.9-5.7,1.6-1,3.3-1.42,5.1-1.28,1.8.15,3.55,1.08,5.25,2.78,2.9,2.9,5.95,5.15,9.15,6.75,3.2,1.6,7.2,2.4,12,2.4,1.5-.1,3.15-.32,4.95-.67,1.8-.35,3.38-1.15,4.73-2.4,1.35-1.25,2.02-3.17,2.02-5.78,0-2.2-.75-3.95-2.25-5.25-1.5-1.3-3.48-2.4-5.92-3.3-2.45-.9-5.17-1.75-8.17-2.55-3.1-.9-6.28-1.9-9.53-3-3.25-1.1-6.22-2.52-8.92-4.28-2.7-1.75-4.9-4.07-6.6-6.97-1.7-2.9-2.55-6.55-2.55-10.95,0-5,1.4-9.25,4.2-12.75,2.8-3.5,6.42-6.2,10.88-8.1,4.45-1.9,9.12-2.85,14.03-2.85,3.1,0,6.35.38,9.75,1.12,3.4.75,6.65,1.95,9.75,3.6,3.1,1.65,5.7,3.83,7.8,6.53,1.1,1.5,1.75,3.3,1.95,5.4.2,2.1-.75,4-2.85,5.7-1.5,1.2-3.25,1.73-5.25,1.58-2-.15-3.65-.83-4.95-2.02-1.7-2.2-3.98-3.95-6.83-5.25-2.85-1.3-6.13-1.95-9.83-1.95-1.5,0-3.13.18-4.88.52-1.75.35-3.28,1.1-4.58,2.25-1.3,1.15-1.95,2.98-1.95,5.48,0,2.3.75,4.12,2.25,5.47,1.5,1.35,3.52,2.45,6.07,3.3,2.55.85,5.27,1.68,8.18,2.48,3,.8,6.05,1.75,9.15,2.85,3.1,1.1,5.95,2.55,8.55,4.35,2.6,1.8,4.7,4.12,6.3,6.97,1.6,2.85,2.4,6.48,2.4,10.88,0,5.1-1.5,9.45-4.5,13.05-3,3.6-6.75,6.33-11.25,8.17-4.5,1.85-9.1,2.78-13.8,2.78-5.9,0-11.8-1.03-17.7-3.08-5.9-2.05-10.8-5.67-14.7-10.88Z"/><path d="M1779.22,727.7c-8.5,0-15.88-1.77-22.12-5.33-6.25-3.55-11.05-8.37-14.4-14.47-3.35-6.1-5.03-13-5.03-20.7,0-9,1.82-16.67,5.47-23.03,3.65-6.35,8.42-11.22,14.33-14.62,5.9-3.4,12.15-5.1,18.75-5.1,5.1,0,9.92,1.05,14.48,3.15,4.55,2.1,8.57,4.98,12.07,8.62,3.5,3.65,6.27,7.88,8.33,12.67,2.05,4.8,3.08,9.9,3.08,15.3-.1,2.4-1.05,4.35-2.85,5.85-1.8,1.5-3.9,2.25-6.3,2.25h-57.3l-4.5-15h55.05l-3.3,3v-4.05c-.2-2.9-1.23-5.5-3.08-7.8-1.85-2.3-4.15-4.12-6.9-5.47-2.75-1.35-5.68-2.03-8.78-2.03s-5.8.4-8.4,1.2c-2.6.8-4.85,2.15-6.75,4.05-1.9,1.9-3.4,4.45-4.5,7.65-1.1,3.2-1.65,7.25-1.65,12.15,0,5.4,1.12,9.98,3.38,13.73s5.15,6.6,8.7,8.55c3.55,1.95,7.32,2.92,11.33,2.92,3.7,0,6.65-.3,8.85-.9,2.2-.6,3.97-1.32,5.33-2.17,1.35-.85,2.57-1.58,3.67-2.17,1.8-.9,3.5-1.35,5.1-1.35,2.2,0,4.02.75,5.48,2.25,1.45,1.5,2.17,3.25,2.17,5.25,0,2.7-1.4,5.15-4.2,7.35-2.6,2.2-6.25,4.12-10.95,5.78-4.7,1.65-9.55,2.47-14.55,2.47Z"/><path d="M1875.82,638.45c-2.6,0-4.78-.8-6.53-2.4-1.75-1.6-2.62-3.7-2.62-6.3s.87-4.67,2.62-6.22c1.75-1.55,3.92-2.33,6.53-2.33h66.6c2.6,0,4.77.8,6.53,2.4,1.75,1.6,2.62,3.7,2.62,6.3s-.88,4.68-2.62,6.22c-1.75,1.55-3.93,2.33-6.53,2.33h-66.6ZM1908.97,726.2c-2.8,0-5.1-.87-6.9-2.62-1.8-1.75-2.7-3.92-2.7-6.53v-87h19.5v87c0,2.6-.93,4.78-2.78,6.53-1.85,1.75-4.23,2.62-7.12,2.62Z"/><path d="M2007.97,644.45c7.2,0,12.67,1.55,16.42,4.65,3.75,3.1,6.32,7.23,7.72,12.38,1.4,5.15,2.1,10.88,2.1,17.17v38.4c0,2.6-.85,4.78-2.55,6.53-1.7,1.75-3.85,2.62-6.45,2.62s-4.75-.87-6.45-2.62c-1.7-1.75-2.55-3.92-2.55-6.53v-38.4c0-3.3-.4-6.27-1.2-8.92-.8-2.65-2.25-4.77-4.35-6.38-2.1-1.6-5.1-2.4-9-2.4s-7.05.8-9.75,2.4c-2.7,1.6-4.72,3.73-6.07,6.38-1.35,2.65-2.03,5.62-2.03,8.92v38.4c0,2.6-.85,4.78-2.55,6.53-1.7,1.75-3.85,2.62-6.45,2.62s-4.75-.87-6.45-2.62c-1.7-1.75-2.55-3.92-2.55-6.53v-92.7c0-2.6.85-4.77,2.55-6.53,1.7-1.75,3.85-2.62,6.45-2.62s4.75.88,6.45,2.62c1.7,1.75,2.55,3.93,2.55,6.53v37.2l-2.25-.45c.9-1.7,2.15-3.53,3.75-5.48,1.6-1.95,3.55-3.77,5.85-5.47,2.3-1.7,4.85-3.08,7.65-4.12,2.8-1.05,5.85-1.58,9.15-1.58Z"/><path d="M2091.52,727.7c-8.5,0-15.88-1.77-22.12-5.33-6.25-3.55-11.05-8.37-14.4-14.47-3.35-6.1-5.03-13-5.03-20.7,0-9,1.82-16.67,5.47-23.03,3.65-6.35,8.42-11.22,14.33-14.62,5.9-3.4,12.15-5.1,18.75-5.1,5.1,0,9.92,1.05,14.48,3.15,4.55,2.1,8.57,4.98,12.07,8.62,3.5,3.65,6.27,7.88,8.33,12.67,2.05,4.8,3.08,9.9,3.08,15.3-.1,2.4-1.05,4.35-2.85,5.85-1.8,1.5-3.9,2.25-6.3,2.25h-57.3l-4.5-15h55.05l-3.3,3v-4.05c-.2-2.9-1.23-5.5-3.08-7.8-1.85-2.3-4.15-4.12-6.9-5.47-2.75-1.35-5.68-2.03-8.78-2.03s-5.8.4-8.4,1.2c-2.6.8-4.85,2.15-6.75,4.05-1.9,1.9-3.4,4.45-4.5,7.65-1.1,3.2-1.65,7.25-1.65,12.15,0,5.4,1.12,9.98,3.38,13.73s5.15,6.6,8.7,8.55c3.55,1.95,7.32,2.92,11.33,2.92,3.7,0,6.65-.3,8.85-.9,2.2-.6,3.97-1.32,5.33-2.17,1.35-.85,2.57-1.58,3.67-2.17,1.8-.9,3.5-1.35,5.1-1.35,2.2,0,4.02.75,5.48,2.25,1.45,1.5,2.17,3.25,2.17,5.25,0,2.7-1.4,5.15-4.2,7.35-2.6,2.2-6.25,4.12-10.95,5.78-4.7,1.65-9.55,2.47-14.55,2.47Z"/><path d="M2184.37,644.45c8,0,13.9,1.93,17.7,5.78,3.8,3.85,6.3,8.83,7.5,14.92l-2.55-1.35,1.2-2.4c1.2-2.3,3.05-4.77,5.55-7.42,2.5-2.65,5.52-4.9,9.08-6.75,3.55-1.85,7.52-2.78,11.92-2.78,7.2,0,12.67,1.55,16.42,4.65,3.75,3.1,6.32,7.23,7.73,12.38,1.4,5.15,2.1,10.88,2.1,17.17v38.4c0,2.6-.85,4.78-2.55,6.53-1.7,1.75-3.85,2.62-6.45,2.62s-4.75-.87-6.45-2.62c-1.7-1.75-2.55-3.92-2.55-6.53v-38.4c0-3.3-.4-6.27-1.2-8.92-.8-2.65-2.25-4.77-4.35-6.38-2.1-1.6-5.1-2.4-9-2.4s-7.05.8-9.75,2.4c-2.7,1.6-4.72,3.73-6.08,6.38-1.35,2.65-2.02,5.62-2.02,8.92v38.4c0,2.6-.85,4.78-2.55,6.53-1.7,1.75-3.85,2.62-6.45,2.62s-4.75-.87-6.45-2.62c-1.7-1.75-2.55-3.92-2.55-6.53v-38.4c0-3.3-.4-6.27-1.2-8.92-.8-2.65-2.25-4.77-4.35-6.38-2.1-1.6-5.1-2.4-9-2.4s-7.05.8-9.75,2.4c-2.7,1.6-4.72,3.73-6.07,6.38-1.35,2.65-2.03,5.62-2.03,8.92v38.4c0,2.6-.85,4.78-2.55,6.53-1.7,1.75-3.85,2.62-6.45,2.62s-4.75-.87-6.45-2.62c-1.7-1.75-2.55-3.92-2.55-6.53v-61.95c0-2.6.85-4.77,2.55-6.53,1.7-1.75,3.85-2.62,6.45-2.62s4.75.88,6.45,2.62c1.7,1.75,2.55,3.93,2.55,6.53v6.45l-2.25-.45c.9-1.7,2.15-3.53,3.75-5.48,1.6-1.95,3.55-3.77,5.85-5.47,2.3-1.7,4.85-3.08,7.65-4.12,2.8-1.05,5.85-1.58,9.15-1.58Z"/><path d="M2318.32,727.7c-8.5,0-15.88-1.77-22.12-5.33-6.25-3.55-11.05-8.37-14.4-14.47-3.35-6.1-5.03-13-5.03-20.7,0-9,1.82-16.67,5.47-23.03,3.65-6.35,8.42-11.22,14.33-14.62,5.9-3.4,12.15-5.1,18.75-5.1,5.1,0,9.92,1.05,14.48,3.15,4.55,2.1,8.57,4.98,12.07,8.62,3.5,3.65,6.27,7.88,8.33,12.67,2.05,4.8,3.08,9.9,3.08,15.3-.1,2.4-1.05,4.35-2.85,5.85-1.8,1.5-3.9,2.25-6.3,2.25h-57.3l-4.5-15h55.05l-3.3,3v-4.05c-.2-2.9-1.23-5.5-3.08-7.8-1.85-2.3-4.15-4.12-6.9-5.47-2.75-1.35-5.68-2.03-8.78-2.03s-5.8.4-8.4,1.2c-2.6.8-4.85,2.15-6.75,4.05-1.9,1.9-3.4,4.45-4.5,7.65-1.1,3.2-1.65,7.25-1.65,12.15,0,5.4,1.12,9.98,3.38,13.73s5.15,6.6,8.7,8.55c3.55,1.95,7.32,2.92,11.33,2.92,3.7,0,6.65-.3,8.85-.9,2.2-.6,3.97-1.32,5.33-2.17,1.35-.85,2.57-1.58,3.67-2.17,1.8-.9,3.5-1.35,5.1-1.35,2.2,0,4.02.75,5.48,2.25,1.45,1.5,2.17,3.25,2.17,5.25,0,2.7-1.4,5.15-4.2,7.35-2.6,2.2-6.25,4.12-10.95,5.78-4.7,1.65-9.55,2.47-14.55,2.47Z"/></svg>