<?xml version="1.0" ?><svg height="72" viewBox="0 0 72 72" width="72" xmlns="http://www.w3.org/2000/svg"><g fill="none" fill-rule="evenodd"><path d="M36,72 L36,72 C55.882251,72 72,55.882251 72,36 L72,36 C72,16.117749 55.882251,-3.65231026e-15 36,0 L36,0 C16.117749,3.65231026e-15 -2.4348735e-15,16.117749 0,36 L0,36 C2.4348735e-15,55.882251 16.117749,72 36,72 Z" fill="#005089"/><path d="M33.84,31.4578065 L39.7741935,32.9036129 L39.7811613,39.84 L36.8500645,39.84 L36.8036129,32.9210323 L33.8492903,32.9314839 L33.8411613,42.7931613 L39.7811613,42.8140645 L39.7811613,45.78 L33.8492903,45.8020645 L33.8434839,48.7296774 L42.7215484,48.7529032 L42.7552258,29.9469677 L33.8086452,29.94 L33.84,31.4578065 Z M23.9411613,29.5788387 L23.9156129,29.9341935 L23.552129,29.9423226 L18,29.94 L18,42.8140645 L26.9210323,42.8140645 L26.9129032,24 L23.9423226,24 L23.9411613,29.5788387 Z M20.9810323,32.9163871 L23.94,32.9233548 L23.9411613,39.8411613 L20.9705806,39.8051613 L20.9810323,32.9163871 Z M28.9254194,42.8070968 L31.8367742,42.8094194 L31.8611613,29.9550968 L28.9451613,29.94 C28.8290323,30.3882581 28.808129,42.0371613 28.9254194,42.8070968 Z M28.8859355,26.9624516 L31.8634839,26.9659355 L31.8565161,24.0174194 L28.9381935,24 L28.8859355,26.9624516 Z M44.7317419,31.0873548 L44.7317419,31.2882581 C44.8397419,31.6169032 49.7380645,32.6539355 50.6682581,32.9303226 L50.6717419,39.8098065 L47.7034839,39.8260645 L47.7011613,32.9094194 L44.7503226,32.9094194 C44.6341935,34.9277419 44.7305806,40.4415484 44.7317419,42.8140645 L50.6276129,42.8152258 L50.6763871,45.7474839 L44.7363871,45.7869677 L44.7329032,48.7076129 L53.6028387,48.7540645 C53.7340645,47.7565161 53.6446452,32.2985806 53.6434839,29.94 L44.667871,29.94 L44.7317419,31.0873548 Z" fill="#FFF"/></g></svg>