<?xml version="1.0" ?><!DOCTYPE svg  PUBLIC '-//W3C//DTD SVG 1.1//EN'  'http://www.w3.org/Graphics/SVG/1.1/DTD/svg11.dtd'><svg enable-background="new 0 0 512 512" height="512px" id="Layer_1" version="1.1" viewBox="0 0 512 512" width="512px" xml:space="preserve" xmlns="http://www.w3.org/2000/svg" xmlns:xlink="http://www.w3.org/1999/xlink"><g><g><path d="M481.874,102.698c13.854,0,25.126,11.271,25.126,25.126v257.899c0,13.854-11.271,25.126-25.126,25.126    H30.143c-13.854,0-25.126-11.271-25.126-25.126V127.824c0-13.854,11.271-25.126,25.126-25.126H481.874 M481.874,97.698H30.143    c-16.638,0-30.126,13.488-30.126,30.126v257.899c0,16.64,13.488,30.126,30.126,30.126h451.731    c16.64,0,30.126-13.486,30.126-30.126V127.824C512,111.186,498.513,97.698,481.874,97.698L481.874,97.698z" fill="#004289"/></g><g><g><path d="M235.972,214.642c0.058,0.763,0.37,1.567,0.951,2.402c1.271,1.819,3.379,5.075,7.098,8.793     c3.719,3.717,7.29,6.089,8.899,7.309c0.764,0.577,1.591,0.871,2.392,0.886c0,0,1.217,0.104,2.439-0.886     c1.568-1.271,5.182-3.591,8.898-7.309c3.718-3.718,5.827-6.975,7.097-8.793c0.584-0.836,0.896-1.642,0.951-2.404h0.013     c0-0.007-0.007-0.016-0.007-0.024s0.007-0.018,0.007-0.026l-0.015-0.004c-0.058-0.76-0.367-1.564-0.949-2.398     c-1.27-1.819-3.379-5.075-7.097-8.792c-3.717-3.718-7.27-6.119-8.898-7.308c-1.26-0.918-2.439-0.887-2.439-0.887     c-0.801,0.015-1.628,0.308-2.392,0.887c-1.609,1.218-5.181,3.59-8.899,7.308c-3.719,3.717-5.827,6.974-7.098,8.792     c-0.581,0.836-0.894,1.641-0.951,2.402l-0.012,0c0,0.008,0.007,0.019,0.007,0.026s-0.007,0.017-0.007,0.024L235.972,214.642z" fill="#E56606"/><path d="M401.679,241.922c0.041,0.574,0.277,1.179,0.713,1.806c0.957,1.37,2.543,3.819,5.336,6.616     c2.799,2.795,5.487,4.581,6.698,5.496c0.572,0.438,1.196,0.655,1.798,0.668c0,0,0.913,0.075,1.832-0.668     c1.18-0.954,3.899-2.7,6.697-5.496c2.794-2.796,4.379-5.246,5.337-6.616c0.438-0.627,0.674-1.232,0.711-1.806h0.013     c0-0.008-0.004-0.016-0.004-0.02c0-0.007,0.004-0.011,0.004-0.019l-0.013-0.004c-0.039-0.571-0.274-1.177-0.711-1.804     c-0.958-1.369-2.543-3.818-5.337-6.613c-2.798-2.798-5.47-4.603-6.697-5.497c-0.945-0.692-1.832-0.668-1.832-0.668     c-0.602,0.012-1.226,0.233-1.798,0.668c-1.211,0.915-3.899,2.699-6.698,5.497c-2.793,2.795-4.379,5.245-5.336,6.613     c-0.436,0.629-0.672,1.233-0.713,1.808h-0.011c0,0.008,0.005,0.012,0.005,0.019c0,0.004-0.005,0.012-0.005,0.02H401.679z" fill="#E56606"/><path d="M464.265,251.849c-79.356,16.166-159.683,17.156-224.845,13.962     c-46.126-2.263-82.929-15.141-110.029-27.354c-11.214-5.054-22.059-8.057-32.374-10.97c-26.167-7.385-55.922,3.061-57.294,28.066     c-1.844,33.629,43.14,32.278,43.14,32.278c-34.502-2.066-35.549-22.54-35.312-27.655c0.18-3.884,0.449-9.904,6.559-15.834     c6.11-5.93,16.776-8.485,24.675-8.485c38.699,0,62.419,35.097,130.754,49.058c87.12,17.8,208.68,3.674,222.395,2.449     c13.718-1.224,14.452-6.613,19.35-12.246c4.899-5.633,16.166-14.451,20.574-19.839     C476.267,249.89,469.357,250.812,464.265,251.849z" fill="#E56606"/></g><g><path d="M96.394,334.653H74.442l-3.847,8.948c-0.948,2.202-1.422,3.847-1.422,4.934     c0,0.864,0.411,1.625,1.233,2.279c0.822,0.655,2.599,1.08,5.331,1.275v1.547H57.884v-1.547c2.369-0.418,3.902-0.962,4.6-1.631     c1.421-1.338,2.996-4.056,4.725-8.153l19.945-46.664h1.463l19.736,47.166c1.589,3.791,3.032,6.251,4.328,7.38     c1.296,1.129,3.101,1.763,5.415,1.902v1.547h-22.37v-1.547c2.258-0.111,3.784-0.487,4.579-1.129s1.191-1.422,1.191-2.342     c0-1.227-0.558-3.163-1.672-5.812L96.394,334.653z M95.223,331.56l-9.617-22.914l-9.868,22.914H95.223z" fill="#E56606"/><path d="M134.903,294.179v50.803c0,2.397,0.174,3.986,0.522,4.767c0.348,0.781,0.885,1.373,1.61,1.777     c0.725,0.404,2.076,0.606,4.056,0.606v1.505h-18.774v-1.505c1.756,0,2.955-0.182,3.596-0.544     c0.641-0.362,1.143-0.962,1.505-1.798c0.362-0.836,0.543-2.439,0.543-4.809v-34.788c0-4.321-0.098-6.976-0.293-7.966     c-0.195-0.989-0.509-1.665-0.94-2.028c-0.433-0.361-0.983-0.543-1.652-0.543c-0.725,0-1.645,0.224-2.76,0.669l-0.71-1.464     l11.415-4.683H134.903z" fill="#E56606"/><path d="M158.737,314.207v30.774c0,2.397,0.173,3.993,0.522,4.787c0.348,0.795,0.864,1.388,1.547,1.777     c0.683,0.391,1.93,0.586,3.743,0.586v1.505h-18.607v-1.505c1.867,0,3.122-0.182,3.763-0.544c0.641-0.362,1.15-0.962,1.526-1.798     c0.376-0.836,0.564-2.439,0.564-4.809v-14.76c0-4.153-0.125-6.843-0.376-8.07c-0.195-0.892-0.502-1.512-0.92-1.86     s-0.99-0.522-1.714-0.522c-0.781,0-1.729,0.209-2.843,0.627l-0.585-1.506l11.541-4.683H158.737z M155.266,294.179     c1.171,0,2.167,0.411,2.99,1.233c0.822,0.822,1.233,1.819,1.233,2.989c0,1.171-0.412,2.175-1.233,3.011     c-0.823,0.837-1.819,1.255-2.99,1.255s-2.174-0.418-3.011-1.255c-0.836-0.836-1.254-1.84-1.254-3.011     c0-1.17,0.411-2.167,1.234-2.989C153.057,294.59,154.067,294.179,155.266,294.179z" fill="#E56606"/><path d="M166.556,319.141l11.791-4.767h1.589v8.948c1.979-3.372,3.965-5.735,5.958-7.087     c1.993-1.353,4.09-2.028,6.293-2.028c3.847,0,7.052,1.505,9.617,4.516c3.15,3.68,4.725,8.475,4.725,14.384     c0,6.606-1.896,12.07-5.687,16.391c-3.123,3.541-7.053,5.311-11.792,5.311c-2.063,0-3.847-0.293-5.352-0.878     c-1.115-0.418-2.37-1.255-3.763-2.509v11.666c0,2.619,0.16,4.285,0.481,4.996c0.32,0.711,0.878,1.275,1.672,1.693     s2.237,0.627,4.328,0.627v1.548h-20.07v-1.548h1.045c1.533,0.028,2.843-0.265,3.931-0.878c0.529-0.307,0.941-0.802,1.233-1.484     c0.293-0.683,0.439-2.418,0.439-5.205v-36.21c0-2.481-0.112-4.057-0.334-4.726c-0.223-0.669-0.579-1.171-1.066-1.505     c-0.488-0.335-1.15-0.502-1.986-0.502c-0.669,0-1.52,0.195-2.551,0.586L166.556,319.141z M179.936,325.789v14.3     c0,3.095,0.125,5.13,0.376,6.105c0.39,1.616,1.345,3.038,2.864,4.265c1.519,1.227,3.435,1.84,5.749,1.84     c2.787,0,5.045-1.087,6.774-3.262c2.258-2.843,3.387-6.843,3.387-12c0-5.854-1.282-10.355-3.847-13.506     c-1.784-2.174-3.903-3.262-6.355-3.262c-1.338,0-2.663,0.335-3.972,1.004C183.908,321.775,182.25,323.28,179.936,325.789z" fill="#E56606"/><path d="M233.833,348.117c-3.93,3.039-6.397,4.795-7.401,5.269c-1.505,0.696-3.108,1.046-4.809,1.046     c-2.648,0-4.829-0.906-6.543-2.719c-1.714-1.812-2.572-4.194-2.572-7.149c0-1.867,0.418-3.484,1.254-4.851     c1.143-1.896,3.129-3.68,5.958-5.352c2.829-1.673,7.533-3.707,14.112-6.105v-1.505c0-3.818-0.606-6.439-1.819-7.861     c-1.212-1.421-2.976-2.132-5.29-2.132c-1.756,0-3.15,0.475-4.181,1.422c-1.06,0.947-1.589,2.035-1.589,3.261l0.083,2.426     c0,1.282-0.328,2.271-0.982,2.969c-0.655,0.696-1.513,1.045-2.571,1.045c-1.032,0-1.875-0.362-2.53-1.087     c-0.655-0.725-0.983-1.715-0.983-2.969c0-2.397,1.227-4.6,3.68-6.606c2.453-2.007,5.896-3.011,10.328-3.011     c3.401,0,6.188,0.571,8.363,1.715c1.645,0.864,2.857,2.216,3.638,4.056c0.502,1.198,0.753,3.651,0.753,7.358v13.004     c0,3.652,0.069,5.89,0.209,6.711c0.139,0.823,0.369,1.374,0.69,1.652c0.32,0.278,0.69,0.418,1.108,0.418     c0.445,0,0.836-0.098,1.171-0.293c0.585-0.362,1.714-1.38,3.387-3.053v2.342c-3.122,4.182-6.105,6.272-8.948,6.272     c-1.366,0-2.453-0.475-3.261-1.422C234.279,352.021,233.86,350.403,233.833,348.117z M233.833,345.399v-14.593     c-4.209,1.673-6.927,2.857-8.153,3.555c-2.203,1.227-3.778,2.509-4.725,3.847c-0.948,1.338-1.421,2.801-1.421,4.39     c0,2.008,0.599,3.674,1.798,4.997c1.198,1.324,2.578,1.986,4.139,1.986C227.588,349.581,230.376,348.188,233.833,345.399z" fill="#E56606"/><path d="M247.966,315.336h17.854v1.547h-0.878c-1.254,0-2.195,0.272-2.822,0.815     c-0.627,0.544-0.94,1.22-0.94,2.028c0,1.087,0.46,2.592,1.38,4.516l9.324,19.317l8.571-21.157     c0.474-1.143,0.711-2.271,0.711-3.387c0-0.502-0.098-0.878-0.293-1.129c-0.223-0.307-0.571-0.55-1.045-0.731     c-0.475-0.182-1.311-0.272-2.509-0.272v-1.547h12.46v1.547c-1.031,0.112-1.826,0.335-2.383,0.669     c-0.559,0.335-1.171,0.962-1.84,1.882c-0.251,0.391-0.726,1.464-1.422,3.22l-15.596,38.217c-1.506,3.707-3.479,6.509-5.917,8.404     c-2.439,1.896-4.788,2.844-7.045,2.844c-1.645,0-2.997-0.475-4.056-1.422c-1.06-0.948-1.589-2.035-1.589-3.262     c0-1.17,0.383-2.111,1.15-2.822c0.767-0.711,1.819-1.065,3.157-1.065c0.919,0,2.174,0.306,3.763,0.919     c1.114,0.419,1.812,0.628,2.091,0.628c0.836,0,1.749-0.433,2.738-1.297s1.986-2.536,2.989-5.018l2.719-6.647l-13.757-28.894     c-0.418-0.863-1.087-1.937-2.007-3.219c-0.697-0.976-1.269-1.631-1.714-1.966c-0.641-0.445-1.672-0.836-3.094-1.171V315.336z" fill="#E56606"/><path d="M295.424,345.525c1.31,0,2.411,0.453,3.304,1.358c0.892,0.906,1.338,2.001,1.338,3.282     c0,1.282-0.454,2.377-1.359,3.282c-0.906,0.906-2,1.359-3.282,1.359s-2.377-0.453-3.282-1.359c-0.906-0.905-1.359-2-1.359-3.282     c0-1.31,0.453-2.41,1.359-3.303C293.047,345.972,294.142,345.525,295.424,345.525z" fill="#E56606"/><path d="M341.335,339.086c-1.032,5.046-3.053,8.927-6.063,11.645s-6.342,4.077-9.993,4.077     c-4.349,0-8.14-1.825-11.373-5.478c-3.234-3.651-4.851-8.586-4.851-14.802c0-6.021,1.791-10.913,5.373-14.677     c3.582-3.763,7.882-5.645,12.899-5.645c3.763,0,6.857,0.997,9.282,2.989c2.426,1.994,3.638,4.063,3.638,6.21     c0,1.06-0.342,1.917-1.024,2.571c-0.684,0.655-1.638,0.982-2.864,0.982c-1.645,0-2.885-0.529-3.721-1.589     c-0.475-0.585-0.788-1.7-0.941-3.345s-0.718-2.899-1.693-3.764c-0.976-0.836-2.327-1.254-4.056-1.254     c-2.788,0-5.032,1.031-6.731,3.094c-2.259,2.732-3.388,6.342-3.388,10.83c0,4.571,1.122,8.606,3.366,12.104     c2.244,3.499,5.275,5.247,9.095,5.247c2.731,0,5.185-0.934,7.358-2.801c1.533-1.282,3.024-3.609,4.475-6.983L341.335,339.086z" fill="#E56606"/><path d="M365.544,314.207c5.798,0,10.453,2.202,13.966,6.606c2.982,3.764,4.474,8.084,4.474,12.962     c0,3.429-0.822,6.899-2.467,10.411c-1.646,3.513-3.909,6.161-6.795,7.945c-2.885,1.783-6.098,2.676-9.638,2.676     c-5.771,0-10.355-2.3-13.757-6.899c-2.871-3.874-4.307-8.223-4.307-13.046c0-3.512,0.871-7.003,2.613-10.474     s4.035-6.035,6.879-7.693C359.355,315.037,362.366,314.207,365.544,314.207z M364.248,316.925c-1.479,0-2.963,0.439-4.453,1.317     c-1.492,0.878-2.697,2.418-3.617,4.62s-1.38,5.032-1.38,8.488c0,5.575,1.108,10.384,3.324,14.425     c2.216,4.043,5.136,6.063,8.76,6.063c2.704,0,4.935-1.114,6.69-3.345s2.634-6.063,2.634-11.499c0-6.801-1.463-12.153-4.39-16.057     C369.836,318.263,367.313,316.925,364.248,316.925z" fill="#E56606"/><path d="M401.001,322.36c2.787-2.787,4.433-4.39,4.935-4.809c1.254-1.059,2.605-1.881,4.056-2.467     c1.449-0.585,2.885-0.878,4.307-0.878c2.397,0,4.46,0.697,6.188,2.091c1.728,1.395,2.885,3.415,3.471,6.062     c2.87-3.345,5.296-5.54,7.275-6.585c1.979-1.046,4.014-1.568,6.104-1.568c2.034,0,3.84,0.522,5.415,1.568     c1.574,1.045,2.822,2.753,3.742,5.122c0.612,1.616,0.92,4.153,0.92,7.609v16.475c0,2.397,0.181,4.042,0.543,4.934     c0.278,0.614,0.795,1.137,1.548,1.568c0.752,0.433,1.979,0.648,3.679,0.648v1.505h-18.899v-1.505h0.795     c1.645,0,2.927-0.32,3.847-0.962c0.641-0.445,1.101-1.156,1.38-2.133c0.111-0.474,0.167-1.825,0.167-4.056v-16.475     c0-3.121-0.376-5.323-1.129-6.606c-1.087-1.783-2.829-2.676-5.227-2.676c-1.478,0-2.962,0.37-4.453,1.108     s-3.297,2.111-5.415,4.118l-0.083,0.46l0.083,1.798v18.272c0,2.62,0.146,4.251,0.439,4.893c0.293,0.641,0.843,1.178,1.651,1.609     c0.809,0.433,2.188,0.648,4.14,0.648v1.505H411.12v-1.505c2.118,0,3.575-0.251,4.369-0.753c0.795-0.502,1.345-1.255,1.652-2.258     c0.139-0.474,0.209-1.854,0.209-4.14v-16.475c0-3.121-0.46-5.365-1.38-6.731c-1.228-1.784-2.941-2.676-5.144-2.676     c-1.505,0-2.997,0.404-4.474,1.212c-2.314,1.228-4.098,2.607-5.353,4.14v20.53c0,2.509,0.174,4.14,0.523,4.893     c0.348,0.752,0.863,1.316,1.547,1.693c0.683,0.376,2.069,0.564,4.16,0.564v1.505H388.29v-1.505c1.756,0,2.982-0.188,3.68-0.564     c0.696-0.377,1.227-0.976,1.589-1.799c0.362-0.821,0.544-2.418,0.544-4.787v-14.635c0-4.209-0.126-6.927-0.377-8.153     c-0.195-0.92-0.502-1.554-0.92-1.902s-0.989-0.522-1.714-0.522c-0.781,0-1.715,0.209-2.802,0.627l-0.627-1.506l11.54-4.683h1.798     V322.36z" fill="#E56606"/></g><g><path d="M139.979,155.836h-4.501c-11.35-0.078-16.226,0.123-18.277,3.399v0.491v14.48H71.644v7.593h45.557v18.125     H84.38v7.593h69.07c-0.589,8.35-7.49,21.307-17.446,33.834c5.812,2.488,12.028,4.956,18.636,7.331     c14.313-18.653,21.986-38.984,22.568-48.758h-37.229v-18.125h46.781v-7.593h-46.781V155.836z" fill="#004289"/><path d="M236.634,155.836c-11.351-0.078-16.226,0.123-18.277,3.399v0.491c0,1.663-0.982,10.883-13.063,23.054     c-11.102,11.185-18.125,15.43-18.125,15.43s0.648,1.483,1.389,2.612c0.74,1.131,1.794,2.041,1.794,2.041     s7.204-2.353,16.085-7.036v67.231c7.336,1.259,14.92,2.289,22.779,2.995V178.95c5.79-6.417,9.949-14.117,10.206-23.114H236.634z" fill="#004289"/><path d="M427.036,165.389c-4.108,0-19.96,0.517-36.984,1.118v-10.67h-4.502     c-11.35-0.078-16.227,0.123-18.276,3.399v0.491v7.603c-10.42,0.384-19.291,0.72-23.677,0.887v-4.378h-3.685     c-11.351-0.079-16.227,0.122-18.278,3.398v0.491v29.073h45.64v20.35H335.84v7.592h31.434v41.123     c7.679-0.558,15.271-1.216,22.778-1.965v-39.158h33.476v-7.592h-33.476v-20.35h39.516v-3.827     c1.904-0.071,4.771-0.652,5.631-5.378c0.979-5.388,1.306-8.816,1.47-11.266C436.833,173.88,436.833,165.389,427.036,165.389z      M416.911,178.289c-0.245,2.447-1.132,8.191-1.559,10.919h-71.756v-13.072c7.48-0.28,64.763-2.419,68.578-2.419     C416.259,173.717,417.239,175.023,416.911,178.289z" fill="#004289"/><path d="M299.428,155.836h-4.5c-11.352-0.078-16.228,0.123-18.279,3.399v0.491v22.48h-43.352v7.593h43.352v78.318     c7.045,0.137,14.051,0.233,20.953,0.233c0.002,0,0,0,0.005,0c0.61,0,1.213-0.01,1.821-0.011V189.8h12.737v-7.593h-12.737V155.836     z" fill="#004289"/><path d="M81.686,277.812c-13.471,0-27.431-6.612-27.431-22.778c0-11.83,11.798-16.835,18.13-18.67     c-6.6,1.005-13.708,3.548-18.275,7.979c-6.109,5.93-6.379,11.95-6.559,15.834c-0.237,5.115,0.809,25.589,35.312,27.655     c0,0-0.141,0.004-0.361,0.011c0.579,0.016,0.899,0.012,0.899,0.012c25.037,0,45.277-11.737,60.479-26.896     c-6.033-3.154-11.646-6.266-17.017-9.169C113.029,266.156,96.064,277.812,81.686,277.812z" fill="#004289"/><polygon fill="#004289" points="444.185,156.689 447.541,156.689 447.541,165.633 448.882,165.633 448.882,156.689      452.24,156.689 452.24,155.561 444.185,155.561    "/><polygon fill="#004289" points="461.578,155.561 458.391,164.025 455.216,155.561 453.384,155.561 453.384,165.633      454.65,165.633 454.65,157.253 454.681,157.253 457.826,165.633 458.969,165.633 462.116,157.253 462.144,157.253      462.144,165.633 463.413,165.633 463.413,155.561    "/></g></g></g></svg>