<?xml version="1.0" ?><!DOCTYPE svg  PUBLIC '-//W3C//DTD SVG 1.1//EN'  'http://www.w3.org/Graphics/SVG/1.1/DTD/svg11.dtd'><svg enable-background="new 0 0 512 512" height="512px" id="Layer_1" version="1.1" viewBox="0 0 512 512" width="512px" xml:space="preserve" xmlns="http://www.w3.org/2000/svg" xmlns:xlink="http://www.w3.org/1999/xlink"><g><g><path d="M482.722,103.198c13.854,0,25.126,11.271,25.126,25.126v257.9c0,13.854-11.271,25.126-25.126,25.126H30.99    c-13.854,0-25.126-11.271-25.126-25.126v-257.9c0-13.854,11.271-25.126,25.126-25.126H482.722 M482.722,98.198H30.99    c-16.638,0-30.126,13.488-30.126,30.126v257.9c0,16.639,13.488,30.126,30.126,30.126h451.732    c16.639,0,30.126-13.487,30.126-30.126v-257.9C512.848,111.686,499.36,98.198,482.722,98.198L482.722,98.198z" fill="#004289"/></g><g><path clip-rule="evenodd" d="M239.028,205.657l-13.35,18.379    c-6.691,9.214-4.62,25.541,4.518,32.139l24.747,17.866c4.247,3.065,4.58,6.104,2.566,9.343l3.595,2.67l12.525-17.353    c7.741-10.723,7.066-25.315-4.414-33.678l-24.951-18.174c-2.99-2.178-3.297-5.217-1.643-8.625L239.028,205.657L239.028,205.657z     M260.439,124.395l-20.778,28.738c-9.746,13.478-6.202,36.494,7.111,46.265l34.161,25.073c6.927,5.083,7.828,18.025,2.787,24.663    l2.897,2.173l23.563-33.153c10.581-14.887,9.966-36.884-6.647-48.949l-36.541-26.533c-5.114-3.714-7.668-10.026-3.409-16.053    L260.439,124.395L260.439,124.395z M205.678,304.62h27.538l4.907,16.694c15.001,0,30,0,45.001,0l4.907-16.694h27.536    l-3.608-12.279c-34.223,0-68.448,0-102.671,0L205.678,304.62L205.678,304.62z M207.759,380.82h-16.499v-13.814h16.499    C219.893,367.006,219.155,380.82,207.759,380.82L207.759,380.82z M264.291,380.82h-16.498v-13.814h16.498    C276.425,367.006,275.687,380.82,264.291,380.82L264.291,380.82z M320.824,380.82h-16.499v-13.814h16.499    C332.958,367.006,332.22,380.82,320.824,380.82L320.824,380.82z M206.636,356.204h-15.375v-12.916h14.794    C215.297,343.288,215.631,356.204,206.636,356.204L206.636,356.204z M263.169,356.204h-15.376v-12.916h14.794    C271.83,343.288,272.164,356.204,263.169,356.204L263.169,356.204z M319.702,356.204h-15.377v-12.916h14.794    C328.363,343.288,328.696,356.204,319.702,356.204L319.702,356.204z M229.352,373.128c-1.174-7.938-4.372-9.841-10.771-12.662    c4.838-2.83,7.811-6.993,7.811-12.697c0-11.407-9.344-16.054-19.537-16.054h-28.474v60.546h28.208    C218.636,392.261,231.401,386.993,229.352,373.128L229.352,373.128z M285.884,373.128c-1.173-7.938-4.373-9.841-10.77-12.662    c4.839-2.83,7.809-6.993,7.809-12.697c0-11.407-9.342-16.054-19.534-16.054h-28.476v60.546h28.209    C275.168,392.261,287.935,386.993,285.884,373.128L285.884,373.128z M342.417,373.128c-1.174-7.938-4.372-9.841-10.77-12.662    c4.838-2.83,7.809-6.993,7.809-12.697c0-11.407-9.343-16.054-19.536-16.054h-28.475v60.546h28.21    C331.7,392.261,344.468,386.993,342.417,373.128L342.417,373.128z" fill="#004289" fill-rule="evenodd"/></g></g></svg>