<?xml version="1.0" ?><!DOCTYPE svg  PUBLIC '-//W3C//DTD SVG 1.1//EN'  'http://www.w3.org/Graphics/SVG/1.1/DTD/svg11.dtd'><svg enable-background="new 0 0 512 512" height="512px" id="Layer_1" version="1.1" viewBox="0 0 512 512" width="512px" xml:space="preserve" xmlns="http://www.w3.org/2000/svg" xmlns:xlink="http://www.w3.org/1999/xlink"><g><g><path d="M481.874,103.032c13.854,0,25.126,11.271,25.126,25.126v257.899c0,13.855-11.271,25.127-25.126,25.127    H30.143c-13.854,0-25.126-11.271-25.126-25.127V128.158c0-13.854,11.271-25.126,25.126-25.126H481.874 M481.874,98.032H30.143    c-16.638,0-30.126,13.488-30.126,30.126v257.899c0,16.641,13.488,30.127,30.126,30.127h451.731    c16.64,0,30.126-13.486,30.126-30.127V128.158C512,111.52,498.513,98.032,481.874,98.032L481.874,98.032z" fill="#1D1941"/></g><g><path d="M173.693,143.667v-29.109h28.903v29.109H173.693L173.693,143.667z M342.423,114.558v206.159h-168.73    V172.792h28.903v118.881h28.771v-0.008h41.418v-0.086c22.506-0.744,40.538-19.174,40.538-41.858    c0-14.866-7.758-27.894-19.424-35.34c6.165-7.457,9.872-17.022,9.872-27.452c0-23.805-19.296-43.327-43.104-43.327v-0.047h-29.301    v-28.999H342.423L342.423,114.558z M260.667,172.792v0.027c0.006,0,0.012-0.003,0.012-0.003c8.247,0,14.931,6.688,14.931,14.937    c0,8.244-6.684,14.928-14.931,14.928l-7.595,0.509l0.021,27.065h18.289c8.945,0,16.2,7.252,16.2,16.197    c0,8.474-6.517,15.419-14.81,16.128v-0.094h-41.418v-89.694H260.667L260.667,172.792z M316.904,373.975v29.482h-14.264v-29.475    l-26.167-43.85h17.358l15.942,27.275l16.196-27.275h17.038L316.904,373.975L316.904,373.975z M261.103,373.125h-17.387    l8.674-22.189L261.103,373.125L261.103,373.125z M260.096,330.107h-14.88l-28.672,73.346h15.316l6.263-16.02h28.595l6.299,16.037    h16.123L260.096,330.107L260.096,330.107z M187.918,359.262v-14.809h16.2c4.074,0.002,7.375,3.309,7.375,7.379    c0,4.078-3.306,7.381-7.383,7.381v0.049H187.918L187.918,359.262z M225.416,351.428c0-11.77-9.542-21.311-21.31-21.311v0.039    h-30.452v73.301h14.264v-30.719h16.2C215.881,372.73,225.416,363.191,225.416,351.428L225.416,351.428z" fill="#1D1941"/></g></g></svg>