<?xml version="1.0" ?><!DOCTYPE svg  PUBLIC '-//W3C//DTD SVG 1.1//EN'  'http://www.w3.org/Graphics/SVG/1.1/DTD/svg11.dtd'><svg enable-background="new 0 0 512 512" height="512px" id="Layer_1" version="1.1" viewBox="0 0 512 512" width="512px" xml:space="preserve" xmlns="http://www.w3.org/2000/svg" xmlns:xlink="http://www.w3.org/1999/xlink"><g><g><path d="M482.722,103.198c13.854,0,25.126,11.271,25.126,25.126v257.9c0,13.854-11.271,25.126-25.126,25.126H30.99    c-13.854,0-25.126-11.271-25.126-25.126v-257.9c0-13.854,11.271-25.126,25.126-25.126H482.722 M482.722,98.198H30.99    c-16.638,0-30.126,13.488-30.126,30.126v257.9c0,16.639,13.488,30.126,30.126,30.126h451.732    c16.639,0,30.126-13.487,30.126-30.126v-257.9C512.848,111.686,499.36,98.198,482.722,98.198L482.722,98.198z" fill="#0077BD"/></g><g><path clip-rule="evenodd" d="M257.556,353.582c-25.791-23.518-42.229-57.397-42.229-95.077    c0-37.93,16.438-71.815,42.229-95.332V353.582L257.556,353.582z" fill="#0096D8" fill-rule="evenodd"/><path clip-rule="evenodd" d="M257.556,353.582c22.759,20.482,53.104,33.125,86.229,33.125    c70.802,0,128.204-57.398,128.204-128.202c0-71.056-57.402-128.458-128.204-128.458c-33.124,0-63.47,12.644-86.229,33.126    c-26.043,23.516-42.229,57.402-42.229,95.332C215.327,296.185,231.513,330.064,257.556,353.582L257.556,353.582z" fill="#0096D8" fill-rule="evenodd"/><path clip-rule="evenodd" d="M299.025,244.85c-0.505-4.552-1.264-9.103-2.024-13.655H218.36    c1.012-4.552,2.279-9.104,3.542-13.654h71.309c-1.518-4.552-3.539-9.104-5.563-13.657h-60.181    c2.274-4.551,4.548-9.102,7.331-13.399h45.517c-3.035-4.806-6.32-9.357-9.863-13.657H244.66    c4.045-4.803,8.343-9.355,12.896-13.654c-22.758-20.482-53.102-33.126-86.228-33.126c-70.803,0-128.204,57.401-128.204,128.458    c0,70.804,57.401,128.202,128.204,128.202c33.126,0,63.47-12.643,86.228-33.125l0,0l0,0c4.551-4.297,9.104-8.851,12.896-13.653    H244.66c-3.539-4.299-6.827-8.852-9.862-13.656h45.517c2.779-4.297,5.311-8.851,7.333-13.398h-60.181    c-2.023-4.553-3.795-9.107-5.565-13.66h71.309c1.518-4.548,2.782-9.101,3.79-13.654c0.761-4.549,1.52-9.102,2.024-13.655    c0.507-4.297,0.76-8.851,0.76-13.399C299.785,253.701,299.532,249.149,299.025,244.85L299.025,244.85z" fill="#0077BD" fill-rule="evenodd"/><path clip-rule="evenodd" d="M401.186,287.839c0-2.279,2.022-4.049,4.299-4.049    c2.275,0,4.047,1.77,4.047,4.049c0,2.529-1.771,4.297-4.047,4.297C403.208,292.136,401.186,290.368,401.186,287.839    L401.186,287.839z M405.484,291.125c1.77,0,3.034-1.518,3.034-3.286c0-1.518-1.265-3.036-3.034-3.036s-3.287,1.519-3.287,3.036    C402.197,289.607,403.715,291.125,405.484,291.125L405.484,291.125z M404.978,289.861h-1.012v-3.797h1.519    c0.505,0,0.758,0,1.011,0.257c0.252,0.249,0.505,0.506,0.505,1.012c0,0.251-0.253,0.756-0.758,0.756l0.758,1.772h-1.011    l-0.505-1.518h-0.507V289.861L404.978,289.861z M404.978,287.839h0.507c0,0,0.251,0,0.505-0.255v-0.251c0-0.256,0-0.506,0-0.506    c-0.254,0-0.505,0-0.759,0h-0.253V287.839L404.978,287.839z" fill="#FFFFFF" fill-rule="evenodd"/><polygon clip-rule="evenodd" fill="#06326E" fill-rule="evenodd" points="179.167,241.562 197.374,241.562 186.5,294.666     168.293,294.666 179.167,241.562   "/><path clip-rule="evenodd" d="M171.581,229.93c-1.012,5.058-1.517,7.839-3.034,13.655    c-8.85-4.045-20.988-6.068-30.091,0c-8.598,5.816-11.632,14.92-10.875,24.783c0.507,4.804,4.046,9.607,8.852,11.631    c8.345,3.286,16.437,2.023,25.287-2.785c-1.265,6.071-2.022,10.875-3.288,15.174c-10.62,3.035-20.735,4.047-31.608,0.254    c-9.61-3.285-17.195-12.392-17.954-22.255c-2.024-15.676,5.058-31.607,19.471-38.938    C141.995,225.127,157.421,226.138,171.581,229.93L171.581,229.93z" fill="#06326E" fill-rule="evenodd"/><path clip-rule="evenodd" d="M354.153,259.012c0,6.828,4.298,11.631,14.159,15.172    c7.585,2.78,8.597,3.536,8.597,5.815c0,3.542-3.286,5.054-10.619,5.054c-5.564,0-10.622-0.756-16.69-2.273l-2.529,12.644h1.013    l3.287,0.505c1.012,0.257,2.783,0.507,4.804,0.507c4.552,0.255,7.839,0.505,10.369,0.505c19.469,0,28.574-5.814,28.574-17.951    c0-7.589-3.795-11.888-13.148-15.173c-7.84-2.781-8.599-3.286-8.599-5.815c0-3.036,3.033-4.553,9.104-4.553    c3.537,0,8.596,0.254,13.149,0.76l2.779-12.392c-4.804-0.505-12.138-1.012-16.435-1.012    C361.23,240.804,354.153,249.149,354.153,259.012L354.153,259.012z" fill="#06326E" fill-rule="evenodd"/><path clip-rule="evenodd" d="M340.749,281.011c-1.01,4.549-1.769,9.103-2.274,13.905h-17.703    l1.519-8.089l0.253-0.506c-5.31,5.814-10.874,9.863-20.481,9.863c-10.875,0-16.69-8.096-16.69-18.465    c0-3.536,0.254-5.56,1.519-11.124l4.804-24.78H309.9l-5.059,24.78c-0.503,2.784-1.266,5.309-1.266,8.095    c0,3.285,3.036,6.32,8.093,6.065c7.839,0,11.634-6.572,12.898-14.411l5.31-24.529h19.218L340.749,281.011L340.749,281.011z" fill="#06326E" fill-rule="evenodd"/><path clip-rule="evenodd" d="M286.89,241.31l-6.069,14.667l-3.036-0.506    c-4.803-0.76-9.356,3.034-11.631,7.078c-4.299,10.117-5.814,21.241-8.091,32.117h-19.221l0.762-3.541    c3.539-16.69,7.839-33.125,10.113-49.815h16.943c0.506,2.781-0.759,5.562-1.012,8.345c3.792-3.541,7.333-10.368,20.988-8.598    L286.89,241.31L286.89,241.31z" fill="#06326E" fill-rule="evenodd"/><path clip-rule="evenodd" d="M290.934,237.01c-13.401-1.769-17.193,5.058-20.734,8.598    c0.252-2.782,1.264-5.564,1.011-8.345h-16.689c-2.273,16.69-6.572,33.123-9.86,49.813l-1.011,3.541h18.963    c2.276-10.875,3.541-21.999,7.839-32.113c2.276-4.047,6.828-7.84,11.634-7.081l3.033,0.506L290.934,237.01L290.934,237.01z" fill="#FFFFFF" fill-rule="evenodd"/><polygon clip-rule="evenodd" fill="#FFFFFF" fill-rule="evenodd" points="183.466,237.264 201.673,237.264 190.799,290.618     172.592,290.618 183.466,237.264   "/><path clip-rule="evenodd" d="M175.627,225.631c-1.012,5.058-1.517,7.839-3.035,13.656    c-8.85-4.046-20.735-6.07-30.09,0c-8.598,5.815-11.379,14.92-10.875,24.778c0.759,4.81,4.046,9.613,8.852,11.636    c8.598,3.287,16.436,2.019,25.54-2.784c-1.266,6.071-2.276,10.873-3.541,15.172c-10.621,3.036-20.736,4.047-31.355,0.255    c-9.609-3.291-17.448-12.393-17.954-22.255c-2.277-15.677,4.805-31.606,19.472-38.94    C146.041,220.828,161.466,221.838,175.627,225.631L175.627,225.631z" fill="#FFFFFF" fill-rule="evenodd"/><path clip-rule="evenodd" d="M358.197,254.711c0,6.83,4.551,11.634,14.161,15.17    c7.586,2.53,8.597,3.541,8.597,5.82c0,3.537-3.287,5.055-10.621,5.055c-5.309,0-10.618-0.757-16.435-2.273l-2.529,12.643h0.76    l3.285,0.506c1.265,0.25,2.782,0.505,5.059,0.505c4.299,0.252,7.588,0.506,10.113,0.506c19.471,0,28.574-5.814,28.574-18.207    c0-7.334-3.792-11.631-13.149-14.917c-7.585-2.784-8.597-3.288-8.597-5.817c0-3.036,3.035-4.552,9.104-4.552    c3.539,0,8.599,0.252,13.148,0.758l2.783-12.391c-4.807-0.759-12.14-1.012-16.438-1.012    C365.53,236.505,358.197,244.597,358.197,254.711L358.197,254.711z" fill="#FFFFFF" fill-rule="evenodd"/><path clip-rule="evenodd" d="M344.796,276.709c-0.759,4.553-1.77,9.105-2.276,13.909h-16.94    l1.262-8.596l0,0c-5.309,5.816-10.872,9.858-20.734,9.858c-10.619,0-16.688-8.091-16.688-18.459c0-3.541,0.505-5.56,1.515-11.125    l5.06-24.78h17.952l-5.057,24.78c-0.506,2.779-1.265,5.311-1.265,8.09c0,3.292,3.036,6.322,8.093,6.071    c7.839,0,12.39-6.577,13.906-14.416l5.058-24.525h18.461L344.796,276.709L344.796,276.709z" fill="#FFFFFF" fill-rule="evenodd"/><path clip-rule="evenodd" d="M245.419,241.31l-5.815,14.667l-3.036-0.506    c-5.055-0.76-9.606,3.034-11.886,7.078c-4.298,10.117-5.815,21.241-8.089,32.117h-19.218l0.758-3.541    c3.541-16.69,7.839-33.125,10.367-49.815h16.944c0.25,2.781-1.013,5.562-1.269,8.345c3.795-3.541,7.338-10.368,20.991-8.598    L245.419,241.31L245.419,241.31z" fill="#06326E" fill-rule="evenodd"/><path clip-rule="evenodd" d="M243.901,251.93l-3.035-0.506    c-5.057-0.759-9.354,3.034-11.632,7.081c-4.297,10.114-5.562,21.238-7.839,32.113h-18.964l0.758-3.541    c3.542-16.69,7.586-33.123,10.117-49.813h16.687c0.254,2.781-1.012,5.562-1.264,8.345c3.791-3.54,7.586-10.367,20.734-8.598    L243.901,251.93L243.901,251.93z" fill="#FFFFFF" fill-rule="evenodd"/></g></g></svg>