<?xml version="1.0" ?><!DOCTYPE svg  PUBLIC '-//W3C//DTD SVG 1.1//EN'  'http://www.w3.org/Graphics/SVG/1.1/DTD/svg11.dtd'><svg enable-background="new 0 0 512 512" height="512px" id="Layer_1" version="1.1" viewBox="0 0 512 512" width="512px" xml:space="preserve" xmlns="http://www.w3.org/2000/svg" xmlns:xlink="http://www.w3.org/1999/xlink"><g><g><path d="M482.722,103.198c13.854,0,25.126,11.271,25.126,25.126v257.9c0,13.854-11.271,25.126-25.126,25.126H30.99    c-13.854,0-25.126-11.271-25.126-25.126v-257.9c0-13.854,11.271-25.126,25.126-25.126H482.722 M482.722,98.198H30.99    c-16.638,0-30.126,13.488-30.126,30.126v257.9c0,16.639,13.488,30.126,30.126,30.126h451.732    c16.639,0,30.126-13.487,30.126-30.126v-257.9C512.848,111.686,499.36,98.198,482.722,98.198L482.722,98.198z" fill="#004280"/></g><g><path clip-rule="evenodd" d="M98.681,280.258l-0.308,0.301    c-4.944,5.038-10.667,7.707-16.56,7.707c-12.302,0-21.236-9.233-21.236-21.972c0-12.715,8.934-21.955,21.236-21.955    c5.893,0,11.616,2.673,16.56,7.725l0.308,0.308l7.913-9.573l-0.212-0.257c-6.576-7.78-14.476-11.56-24.185-11.56    c-9.736,0-18.647,3.28-25.062,9.19c-6.977,6.404-10.656,15.434-10.656,26.123c0,10.688,3.679,19.742,10.656,26.146    c6.416,5.939,15.326,9.195,25.062,9.195c9.709,0,17.609-3.783,24.185-11.562l0.212-0.237L98.681,280.258L98.681,280.258z" fill="#004280" fill-rule="evenodd"/><polygon clip-rule="evenodd" fill="#004280" fill-rule="evenodd" points="114.59,300.33 128.57,300.33 128.57,232.087     114.59,232.087 114.59,300.33   "/><path clip-rule="evenodd" d="M183.336,285.495c-3.736,2.269-7.205,3.416-10.325,3.416    c-4.517,0-6.56-2.386-6.56-7.695v-36.215h14.243V232.15h-14.243v-21.236l-13.701,7.336v13.9h-11.82v12.851h11.82v38.526    c0,10.488,6.217,17.659,15.503,17.853c6.298,0.119,10.094-1.756,12.401-3.132l0.143-0.096l3.357-13.161L183.336,285.495    L183.336,285.495z" fill="#004280" fill-rule="evenodd"/><polygon clip-rule="evenodd" fill="#004280" fill-rule="evenodd" points="194.908,300.33 208.901,300.33 208.901,232.087     194.908,232.087 194.908,300.33   "/><path clip-rule="evenodd" d="M217.053,220.12c-12.771-18.09-33.978-28.881-55.557-28.881    c-21.573,0-42.787,10.791-55.537,28.881l-0.655,0.929h16.085l0.171-0.194c10.952-11.291,25.241-17.269,39.935-17.269    c14.694,0,28.978,5.978,39.946,17.269l0.187,0.194h16.07L217.053,220.12L217.053,220.12z" fill="#E40520" fill-rule="evenodd"/><path clip-rule="evenodd" d="M235.597,248.303l-0.189,0.253v35.302l0.137,0.216    c4.404,6.811,11.581,10.884,19.209,10.884c11.784,0,17.762-9.937,17.762-29.518c0-17.508-6.617-27.53-18.155-27.53    C247.358,237.91,241.046,241.408,235.597,248.303L235.597,248.303z M470.862,300.09v0.24c-2.104,0-7.597,0-8.447,0    c-0.48-0.968-17.695-37.424-17.695-37.424l-12.851,18.019c0,0,0,17.792,0,19.405c-1.329,0-6.668,0-7.981,0    c0-1.716,0-88.652,0-89.652c0.704-0.4,6.099-3.496,7.981-4.556c0,2.889,0,65.095,0,65.095l4.357-6.772    c-0.01,0.024,19.561-28.309,22.064-31.918c0.7,0,6.383,0,8.733,0c-1.86,2.487-17.244,23.665-17.244,23.665    S468.871,295.988,470.862,300.09L470.862,300.09z M311.837,301.756h-3.386c-6.875-0.397-19.253-3.587-19.253-21.346    c0-15.776,13.022-21.377,25.223-21.377c6.133,0,12.186,1.409,16.572,3.873l1.317,0.724v-9.732    c0-10.791-5.271-16.254-15.691-16.254c-6.424,0-12.225,1.613-18.158,4.968c-0.529-1.203-2.378-5.289-2.885-6.44    c6.21-3.28,13.884-5.112,21.698-5.112c15.487,0,23.015,7.074,23.015,21.647c0,0,0,45.919,0,47.624c-1.324,0-6.663,0-7.979,0    c0-1.414,0-9.891,0-9.891l-1.545,1.717C325.31,298.161,319.113,301.33,311.837,301.756L311.837,301.756z M256.999,301.756h-3.156    c-6.602-0.407-11.994-3.274-16.883-8.927l-1.553-1.812c0,0,0,7.933,0,9.312c-1.305,0-6.643,0-7.961,0c0-1.716,0-88.652,0-89.652    c0.674-0.4,6.094-3.496,7.961-4.556c0,2.787,0,36.275,0,36.275l1.541-1.693c5.883-6.492,12.385-9.646,19.861-9.646    c14.968,0,23.558,12.469,23.558,34.238C280.367,286.732,271.244,300.842,256.999,301.756L256.999,301.756z M297.018,279.75    c0,10.144,5.254,15.721,14.796,15.721c8.129,0,15.339-3.838,20.342-10.815l0.155-0.24V269.55l-0.447-0.255    c-5.091-2.904-10.3-4.078-17.974-4.078C303.339,265.217,297.018,270.65,297.018,279.75L297.018,279.75z M366.322,240.603    c4.112-6.149,10.565-9.543,18.11-9.543c15.043,0,23.018,9.597,23.018,27.752c0,0,0,39.818,0,41.519c-1.317,0-6.662,0-7.999,0    c0-1.7,0-39.798,0-39.798c0-15.446-5.366-22.623-16.979-22.623c-11.123,0-17.768,8.466-17.768,22.623c0,0,0,38.098,0,39.798    c-1.307,0-6.669,0-7.975,0c0-1.705,0-66.112,0-67.803c1.306,0,6.668,0,7.975,0c0,1.402,0,10.512,0,10.512L366.322,240.603    L366.322,240.603z" fill="#004280" fill-rule="evenodd"/></g></g></svg>