<?xml version="1.0" ?><!DOCTYPE svg  PUBLIC '-//W3C//DTD SVG 1.1//EN'  'http://www.w3.org/Graphics/SVG/1.1/DTD/svg11.dtd'><svg enable-background="new 0 0 512 512" height="512px" id="Layer_1" version="1.1" viewBox="0 0 512 512" width="512px" xml:space="preserve" xmlns="http://www.w3.org/2000/svg" xmlns:xlink="http://www.w3.org/1999/xlink"><g><g><path d="M481.874,102.698c13.854,0,25.126,11.271,25.126,25.126v257.899c0,13.854-11.271,25.126-25.126,25.126    H30.143c-13.854,0-25.126-11.271-25.126-25.126V127.824c0-13.854,11.271-25.126,25.126-25.126H481.874 M481.874,97.698H30.143    c-16.638,0-30.126,13.488-30.126,30.126v257.899c0,16.64,13.488,30.126,30.126,30.126h451.731    c16.64,0,30.126-13.486,30.126-30.126V127.824C512,111.186,498.513,97.698,481.874,97.698L481.874,97.698z" fill="#FF8000"/></g><g><linearGradient gradientTransform="matrix(1.1598 0 0 -1.1598 61.1152 474.6348)" gradientUnits="userSpaceOnUse" id="path7283_1_" x1="125.0054" x2="268.7959" y1="240.3379" y2="240.3379"><stop offset="0" style="stop-color:#FF8000"/><stop offset="0.2743" style="stop-color:#FF8101"/><stop offset="0.4835" style="stop-color:#FF8507"/><stop offset="0.7465" style="stop-color:#FD9D2E"/><stop offset="0.8523" style="stop-color:#FCA73F"/><stop offset="0.9231" style="stop-color:#FBAF4C"/><stop offset="0.9813" style="stop-color:#FAB85A"/><stop offset="1" style="stop-color:#FABE64"/></linearGradient><path d="M365.46,177.841l-57.734-57.669c0,0-7.479-7.479-18.042-7.479    c0,0-10.562,0-18.042,7.479c0,0-7.479,7.479-7.479,18.042c0,0,0,10.563,7.479,18.042l14.04,13.975h-53.864    c0,0-10.693,0-18.172,7.544c0,0-7.545,7.479-7.545,18.108c0,0,0,10.628,7.545,18.173c0,0,7.479,7.479,18.172,7.479h53.864    l-14.04,14.04c0,0-7.479,7.479-7.479,18.042c0,0,0,10.563,7.479,18.043c0,0,7.479,7.413,18.042,7.413c0,0,10.562,0,18.042-7.413    l57.669-57.735c0,0,7.479-7.479,7.479-18.042C372.874,195.883,372.874,185.32,365.46,177.841" fill="url(#path7283_1_)" id="path7283_4_"/><linearGradient gradientTransform="matrix(1.1598 0 0 -1.1598 61.1152 474.6348)" gradientUnits="userSpaceOnUse" id="path7285_1_" x1="53.9014" x2="112.6172" y1="241.6387" y2="241.6387"><stop offset="0" style="stop-color:#FF8000"/><stop offset="0.2743" style="stop-color:#FF8101"/><stop offset="0.4835" style="stop-color:#FF8507"/><stop offset="0.7465" style="stop-color:#FD9D2E"/><stop offset="0.8523" style="stop-color:#FCA73F"/><stop offset="0.9231" style="stop-color:#FBAF4C"/><stop offset="0.9813" style="stop-color:#FAB85A"/><stop offset="1" style="stop-color:#FABE64"/></linearGradient><path d="M157.681,160.324c0,0,14.106,0,24.078,9.972c0,0,9.973,9.972,9.973,24.078    c0,0,0,14.105-9.973,24.078c0,0-9.972,9.973-24.078,9.973c0,0-14.105,0-24.078-9.973c0,0-9.972-9.972-9.972-24.078    c0,0,0-14.106,9.972-24.078C133.604,170.296,143.576,160.324,157.681,160.324" fill="url(#path7285_1_)" id="path7285_4_"/><path d="M66.216,376.531c0,0-4.74,0.928-8.961,0.928c-12.464,0-19.468-6.799-19.468-19.571    v-14.42c0-12.771,6.901-19.569,19.468-19.569c4.634,0,8.961,0.927,8.961,0.927c1.337,0.207,1.956,0.928,1.956,2.061v6.282    c0,1.135-0.721,1.753-1.956,1.648c0,0-4.431-0.619-8.24-0.619c-6.696,0-8.858,3.914-8.858,9.476v13.904    c0,5.771,2.37,9.581,8.961,9.581c4.018,0,8.24-0.618,8.24-0.618c1.133-0.103,1.854,0.413,1.854,1.546v6.282    C68.172,375.501,67.658,376.222,66.216,376.531" fill="#FF8000" id="path4056_4_"/><path d="M84.758,376.428h-7.417c-1.135,0-1.958-0.824-1.958-1.957v-69.214    c0-1.137,0.823-1.959,1.958-1.959h7.417c1.132,0,1.956,0.822,1.956,1.959v69.214C86.713,375.604,85.89,376.428,84.758,376.428" fill="#FF8000" id="path4058_4_"/><path d="M104.84,376.428h-7.415c-1.133,0-1.958-0.824-1.958-1.957v-47.585    c0-1.133,0.825-1.958,1.958-1.958h7.415c1.134,0,1.959,0.825,1.959,1.958v47.585C106.8,375.604,105.975,376.428,104.84,376.428     M104.84,314.63h-7.415c-1.133,0-1.958-0.824-1.958-1.956v-7.417c0-1.137,0.825-1.959,1.958-1.959h7.415    c1.134,0,1.959,0.822,1.959,1.959v7.417C106.8,313.806,105.975,314.63,104.84,314.63" fill="#FF8000" id="path4060_4_"/><path d="M143.98,376.531c0,0-4.738,0.928-8.958,0.928c-12.465,0-19.468-6.799-19.468-19.571    v-14.42c0-12.771,6.9-19.569,19.468-19.569c4.634,0,8.958,0.927,8.958,0.927c1.339,0.207,1.958,0.928,1.958,2.061v6.282    c0,1.135-0.721,1.753-1.958,1.648c0,0-4.429-0.619-8.24-0.619c-6.694,0-8.858,3.914-8.858,9.476v13.904    c0,5.771,2.371,9.581,8.962,9.581c4.016,0,8.24-0.618,8.24-0.618c1.132-0.103,1.853,0.413,1.853,1.546v6.282    C145.938,375.501,145.422,376.222,143.98,376.531" fill="#FF8000" id="path4062_4_"/><path d="M190.023,376.428h-8.344c-1.132,0-2.058-0.927-2.574-1.957l-14.008-26.882l12.771-20.703    c0.618-0.929,1.544-1.958,2.679-1.958h8.344c1.132,0,1.749,1.029,1.132,1.958l-12.773,20.496l14.111,27.089    C191.877,375.398,191.156,376.428,190.023,376.428 M162.523,376.428h-7.417c-1.132,0-1.958-0.824-1.958-1.957v-69.214    c0-1.137,0.826-1.959,1.958-1.959h7.417c1.132,0,1.958,0.822,1.958,1.959v69.214C164.48,375.604,163.655,376.428,162.523,376.428" fill="#FF8000" id="path4064_4_"/><path d="M220.615,354.9h-8.651c-5.562,0-7.829,2.37-7.829,6.799c0,3.913,2.267,6.18,6.798,6.18    c3.193,0,6.696-1.236,9.682-2.781V354.9z M229.987,376.428h-6.9c-1.132,0-1.956-0.824-1.956-1.957v-0.926    c-3.297,2.059-7.622,3.914-12.465,3.914c-9.989,0-15.862-5.049-15.862-15.45c0-10.61,6.489-15.862,17.922-15.862    c3.504,0,8.551,0.409,9.888,0.619v-4.121c0-5.357-2.369-8.24-8.445-8.24c-6.077,0-13.804,1.751-13.804,1.751    c-1.235,0.308-1.956-0.514-1.956-1.649v-6.281c0-1.135,0.721-1.854,1.956-2.164c0,0,6.696-2.162,15.348-2.162    c13.699,0,18.23,6.386,18.23,18.746v31.826C231.944,375.604,231.12,376.428,229.987,376.428" fill="#808080" id="path4066_4_"/><path d="M277.884,376.428h-7.415c-1.132,0-1.957-0.824-1.957-1.957v-32.033    c0-4.838-1.443-7.932-6.9-7.932c-3.193,0-6.696,1.443-9.58,2.989v36.976c0,1.133-0.823,1.957-1.957,1.957h-7.415    c-1.135,0-1.958-0.824-1.958-1.957v-47.585c0-1.133,0.823-1.958,1.958-1.958h6.9c1.133,0,1.958,0.825,1.958,1.958v1.546    c2.985-2.267,7.414-4.533,13.283-4.533c11.229,0,15.039,6.798,15.039,17.51v33.062    C279.84,375.604,279.017,376.428,277.884,376.428" fill="#808080" id="path4068_4_"/><path d="M314.348,335.847c-2.78-1.133-5.87-1.958-8.651-1.958c-5.666,0-7.828,3.606-7.828,8.756    v15.965c0,5.15,2.162,8.754,7.828,8.754c2.781,0,5.871-1.03,8.651-2.369V335.847z M323.721,376.428h-6.902    c-1.133,0-1.956-0.824-1.956-1.957v-0.616c-3.193,1.955-7.106,3.604-11.535,3.604c-11.434,0-16.789-7.006-16.789-18.026v-17.511    c0-11.021,5.355-18.023,16.789-18.023c4.223,0,7.931,1.235,11.021,2.782v-21.424c0-1.137,0.825-1.959,1.958-1.959h7.415    c1.133,0,1.958,0.822,1.958,1.959v69.214C325.679,375.604,324.854,376.428,323.721,376.428" fill="#808080" id="path4070_4_"/><path d="M362.245,342.645c0-5.149-2.062-8.756-7.727-8.756c-2.781,0-5.974,1.032-8.755,2.37    v30.384h7.93c6.182,0,8.552-3.397,8.552-8.548V342.645z M354.725,376.428h-18.333c-1.135,0-1.958-0.824-1.958-1.957v-69.214    c0-1.137,0.823-1.959,1.958-1.959h7.415c1.134,0,1.957,0.822,1.957,1.959v21.833c3.09-1.853,6.901-3.191,11.124-3.191    c11.432,0,16.688,7.003,16.688,18.023v16.48C373.575,369.628,367.495,376.428,354.725,376.428" fill="#FF8000" id="path4072_4_"/><path d="M419.514,376.428h-6.901c-1.133,0-1.957-0.824-1.957-1.957v-1.546    c-2.986,2.269-7.416,4.534-13.287,4.534c-11.227,0-15.038-6.799-15.038-17.511v-33.062c0-1.133,0.823-1.958,1.958-1.958h7.417    c1.132,0,1.957,0.825,1.957,1.958v32.033c0,4.841,1.441,7.929,6.899,7.929c3.192,0,6.695-1.439,9.58-2.986v-36.976    c0-1.133,0.824-1.958,1.956-1.958h7.416c1.133,0,1.957,0.825,1.957,1.958v47.585C421.471,375.604,420.646,376.428,419.514,376.428    " fill="#FF8000" id="path4074_4_"/><path d="M449.076,394.144c-0.412,1.03-1.03,1.854-2.162,1.854h-8.345    c-1.132,0-1.955-0.927-1.544-1.955l5.87-17.202l-16.378-49.954c-0.307-1.028,0.312-1.958,1.547-1.958h8.138    c1.132,0,1.955,0.723,2.265,1.854l10.507,32.651l11.021-32.651c0.412-1.028,1.133-1.854,2.266-1.854h8.138    c1.235,0,1.955,1.029,1.544,2.062L449.076,394.144z" fill="#FF8000" id="path4076_4_"/></g></g></svg>