<?xml version="1.0" ?><!DOCTYPE svg  PUBLIC '-//W3C//DTD SVG 1.1//EN'  'http://www.w3.org/Graphics/SVG/1.1/DTD/svg11.dtd'><svg enable-background="new 0 0 512 512" height="512px" id="Layer_1" version="1.1" viewBox="0 0 512 512" width="512px" xml:space="preserve" xmlns="http://www.w3.org/2000/svg" xmlns:xlink="http://www.w3.org/1999/xlink"><g><g><path d="M482.722,102.198c13.854,0,25.126,11.271,25.126,25.126v257.9c0,13.854-11.271,25.126-25.126,25.126H30.99    c-13.854,0-25.126-11.271-25.126-25.126v-257.9c0-13.854,11.271-25.126,25.126-25.126H482.722 M482.722,97.198H30.99    c-16.638,0-30.126,13.488-30.126,30.126v257.9c0,16.639,13.488,30.126,30.126,30.126h451.732    c16.639,0,30.126-13.487,30.126-30.126v-257.9C512.848,110.686,499.36,97.198,482.722,97.198L482.722,97.198z" fill="#1D1D1B"/></g><g><path clip-rule="evenodd" d="M244.651,216.627h22.561c0,0,22.333-0.452,22.105,19.852    c-0.225,15.115-21.653,17.372-21.653,17.372h-23.013V216.627L244.651,216.627z M312.14,289.498    c0.633,2.953,2.768,6.207,9.889,6.535c9.477,0.228,14.891-3.384,14.891-3.384v6.995c0,0-10.378,2.479-15.339,2.479    c-5.189,0-20.531-1.126-20.531-15.337c0-11.503,12.635-15.114,19.854-15.114c12.633,0.45,18.723,4.964,18.498,17.821    C339.4,289.682,318.614,289.541,312.14,289.498L312.14,289.498z M312.166,283.853h17.309c0,0,0-6.54-8.347-6.54    C314.846,277.312,312.792,280.696,312.166,283.853L312.166,283.853z M366.923,276.786c2.499-2.712,6.704-4.892,13.762-4.892    c13.985,0,16.24,11.73,16.016,14.892c-0.228,3.157-1.354,15.114-17.597,15.114c-6.131,0-9.888-2.092-12.181-4.692v3.789h-11.055    v-40.606h11.055V276.786L366.923,276.786z M376.396,295.583c6.543-0.227,9.474-5.862,9.474-8.569c0-2.711-1.578-8.347-9.926-8.347    c-6.477,0-8.446,4.891-9.021,7.283v2.944C367.489,291.33,369.473,295.583,376.396,295.583L376.396,295.583z M471.82,294.457    l0.226,6.313c0,0-5.188,1.13-8.57,1.13c-3.386,0-12.184-2.029-12.184-10.604c0-3.489,0-8.439,0-13.084h-9.248v-5.863h9.248    c0-4.055,0-6.994,0-6.994h11.279v6.994h9.249v5.863h-9.249v11.281c0,0,0,5.642,4.513,5.642    C471.596,295.135,471.82,294.457,471.82,294.457L471.82,294.457z M437.531,222.718h13.085v31.354h11.054v-31.354h13.31v-6.542    h-37.448V222.718L437.531,222.718z M433.02,224.298l1.354-6.545c0,0-5.639-2.479-15.564-2.479    c-9.701,0-25.268,5.414-25.268,20.076c0,14.438,16.468,19.402,26.621,19.402c10.15,0,13.533-1.578,13.533-1.578l-1.126-7.221    c0,0-4.512,1.354-12.183,1.354c-7.444-0.225-15.114-6.09-15.114-12.63c0.225-5.868,6.994-12.407,15.791-12.407    C427.831,222.269,433.02,224.298,433.02,224.298L433.02,224.298z M333.308,216.4c0,0,18.501-0.902,18.501,9.928    c0,9.247-10.604,9.924-10.604,9.924s2.934,0.455,4.287,2.484c1.129,1.803,8.572,15.336,8.572,15.336h-11.279    c0,0-1.806-2.251-2.707-3.832c-0.677-1.581-2.707-4.964-2.707-4.964s-1.58-5.641-6.993-5.641c-0.139,0-2.345-0.082-4.061-0.147    v14.584h-10.83V216.4H333.308L333.308,216.4z M326.316,233.32h5.865c0,0,8.121-0.452,8.572-5.414    c0.225-4.739-7.896-5.414-7.896-5.414h-6.542V233.32L326.316,233.32z M371.66,239.186h18.046v-6.994H371.66v-8.569h19.626V216.4    h-30.681v37.672h30.906v-6.766H371.66V239.186L371.66,239.186z M415.65,268.062h11.054v-7.671H415.65V268.062L415.65,268.062z     M415.65,300.997h11.054v-28.648H415.65V300.997L415.65,300.997z M295.184,254.072h10.829V216.4h-10.829V254.072L295.184,254.072z     M244.651,263.552h22.561c0,0,22.333-0.454,22.105,19.851c-0.225,15.115-21.653,17.368-21.653,17.368h-23.013V263.552    L244.651,263.552z M255.705,293.781h7.219c0,0,14.89-0.904,14.89-12.408c0-11.509-15.791-12.635-15.791-12.635h-6.317V293.781    L255.705,293.781z M255.705,246.856h7.219c0,0,14.89-1.129,14.89-12.408c0-11.731-15.791-12.635-15.791-12.635h-6.317V246.856    L255.705,246.856z" fill="#1D1D1B" fill-rule="evenodd"/><path clip-rule="evenodd" d="M143.364,239.055v75.476c0,0-43.767-7.894-43.767-37.896    C99.597,252.705,131.996,242.158,143.364,239.055L143.364,239.055z M143.364,237.646c-26.305-1.904-85.951,10.426-85.951,37.41    c0,17.594,31.583,43.313,83.018,43.99c2.03,0,60.458-2.258,59.554-64.974c-0.757-52.67-40.181-61.896-52.787-63.502v-3.209    c50.259,3.19,89.785,33.414,89.785,70.096c0,38.805-44.214,70.387-98.583,70.387c-54.368,0-98.358-31.582-98.358-70.387    c0-38.798,43.99-70.381,98.358-70.381c1.665,0,3.318,0.029,4.964,0.089V237.646L143.364,237.646z" fill="#1D1D1B" fill-rule="evenodd"/></g></g></svg>