<?xml version="1.0" ?><!DOCTYPE svg  PUBLIC '-//W3C//DTD SVG 1.1//EN'  'http://www.w3.org/Graphics/SVG/1.1/DTD/svg11.dtd'><svg enable-background="new 0 0 512 512" height="512px" id="Layer_1" version="1.1" viewBox="0 0 512 512" width="512px" xml:space="preserve" xmlns="http://www.w3.org/2000/svg" xmlns:xlink="http://www.w3.org/1999/xlink"><g><g><path d="M482.641,103.198c13.854,0,25.126,11.271,25.126,25.126v257.9c0,13.854-11.271,25.126-25.126,25.126    H30.909c-13.854,0-25.126-11.271-25.126-25.126v-257.9c0-13.854,11.271-25.126,25.126-25.126H482.641 M482.641,98.198H30.909    c-16.638,0-30.126,13.488-30.126,30.126v257.9c0,16.639,13.488,30.126,30.126,30.126h451.732    c16.639,0,30.126-13.487,30.126-30.126v-257.9C512.767,111.686,499.279,98.198,482.641,98.198L482.641,98.198z" fill="#00B5E5"/></g><g><g><path d="M59.37,333.212V287.63H45.998v-14.107h43.013v14.107H75.638v45.582H59.37z" fill="#00AFD8"/><path d="M96.961,333.212v-59.689h17.002c6.659,0,11.3,0.306,13.923,0.917c2.623,0.612,4.886,1.638,6.789,3.078     c2.147,1.631,3.798,3.711,4.954,6.238c1.155,2.527,1.733,5.314,1.733,8.357c0,4.621-1.135,8.38-3.404,11.273     c-2.271,2.896-5.58,4.818-9.929,5.771l16.268,24.055h-18.388L112.21,309.85v23.362H96.961z M112.21,301.736h3.017     c3.506,0,6.067-0.599,7.685-1.795c1.618-1.195,2.427-3.07,2.427-5.626c0-2.99-0.754-5.117-2.263-6.38     c-1.508-1.265-4.043-1.896-7.604-1.896h-3.261V301.736z" fill="#00AFD8"/><path d="M143.481,333.212l20.589-59.689h20.386l20.63,59.689h-16.186l-3.017-10.683h-23.118l-3.099,10.683     H143.481z M166.272,310.91h16.186l-6.075-19.693c-0.19-0.598-0.448-1.562-0.775-2.895c-0.326-1.331-0.747-3.043-1.264-5.137     c-0.354,1.468-0.7,2.867-1.039,4.199c-0.34,1.331-0.687,2.609-1.04,3.832L166.272,310.91z" fill="#00AFD8"/><path d="M210.795,333.212v-59.689h15.697l22.547,30.7c0.434,0.627,1.146,1.882,2.139,3.772     c0.992,1.889,2.088,4.138,3.283,6.747c-0.326-2.473-0.564-4.674-0.713-6.604c-0.15-1.931-0.225-3.643-0.225-5.138v-29.478h15.615     v59.689h-15.615l-22.547-30.823c-0.463-0.626-1.189-1.882-2.181-3.771c-0.993-1.891-2.073-4.111-3.241-6.667     c0.326,2.501,0.562,4.716,0.713,6.646c0.148,1.931,0.225,3.644,0.225,5.138v29.478H210.795z" fill="#00AFD8"/><path d="M284.591,313.927c2.419,2.746,4.804,4.798,7.155,6.156c2.351,1.359,4.695,2.039,7.033,2.039     c2.174,0,3.961-0.585,5.361-1.753c1.399-1.168,2.1-2.65,2.1-4.444c0-1.984-0.605-3.513-1.813-4.587     c-1.211-1.074-3.948-2.181-8.216-3.323c-5.844-1.576-9.976-3.629-12.395-6.156s-3.629-5.993-3.629-10.396     c0-5.708,1.909-10.362,5.729-13.964c3.817-3.603,8.771-5.402,14.86-5.402c3.289,0,6.407,0.441,9.357,1.325     c2.947,0.883,5.741,2.221,8.378,4.016l-5.097,11.701c-1.849-1.575-3.745-2.766-5.688-3.566c-1.943-0.802-3.866-1.204-5.77-1.204     c-1.957,0-3.547,0.47-4.77,1.406c-1.224,0.939-1.835,2.141-1.835,3.609c0,1.495,0.536,2.69,1.61,3.587     c1.073,0.897,3.146,1.753,6.218,2.568l0.734,0.204c6.631,1.794,10.994,3.766,13.087,5.912c1.413,1.469,2.487,3.228,3.221,5.28     c0.734,2.053,1.102,4.328,1.102,6.829c0,6.334-2.08,11.422-6.238,15.27c-4.158,3.846-9.704,5.769-16.635,5.769     c-4.159,0-7.944-0.708-11.355-2.12c-3.411-1.413-6.692-3.629-9.846-6.646L284.591,313.927z" fill="#00AFD8"/><path d="M330.458,333.212v-59.689h36.572v13.088h-20.712v10.355h19.529v12.803h-19.529v23.443H330.458z" fill="#00AFD8"/><path d="M375.878,333.212v-59.689h36.571v13.088h-20.712v10.355h19.53v12.803h-19.53v10.069h20.712v13.374     H375.878z" fill="#00AFD8"/><path d="M423.213,333.212v-59.689h17.002c6.659,0,11.3,0.306,13.923,0.917c2.623,0.612,4.887,1.638,6.788,3.078     c2.148,1.631,3.799,3.711,4.954,6.238c1.154,2.527,1.733,5.314,1.733,8.357c0,4.621-1.136,8.38-3.404,11.273     c-2.271,2.896-5.579,4.818-9.928,5.771l16.268,24.055h-18.388l-13.7-23.362v23.362H423.213z M438.461,301.736h3.018     c3.507,0,6.068-0.599,7.685-1.795c1.617-1.195,2.427-3.07,2.427-5.626c0-2.99-0.754-5.117-2.263-6.38     c-1.509-1.265-4.043-1.896-7.604-1.896h-3.263V301.736z" fill="#00AFD8"/></g><g><path d="M145.31,262.701v-79.586h21.799c8.988,0,15.267,0.291,18.836,0.87c3.569,0.58,6.641,1.576,9.215,2.99     c2.935,1.631,5.172,3.814,6.713,6.551c1.541,2.736,2.311,5.898,2.311,9.486c0,4.531-1.151,8.127-3.452,10.791     c-2.302,2.664-5.972,4.684-11.008,6.061c5.653,0.435,10.075,2.419,13.264,5.953c3.188,3.534,4.784,8.254,4.784,14.161     c0,4.24-0.897,7.974-2.691,11.198c-1.794,3.227-4.358,5.727-7.692,7.502c-2.718,1.45-6.07,2.482-10.057,3.099     c-3.987,0.617-10.511,0.925-19.57,0.925H145.31z M165.424,214.917h4.349c5.362,0,9.042-0.588,11.035-1.767     c1.992-1.177,2.99-3.216,2.99-6.116c0-3.007-0.933-5.118-2.799-6.333c-1.867-1.213-5.5-1.821-10.9-1.821h-4.675V214.917z      M165.424,246.446h7.61c5.146,0,8.788-0.643,10.927-1.93c2.139-1.286,3.207-3.434,3.207-6.441c0-3.334-0.978-5.663-2.936-6.986     c-1.957-1.322-5.581-1.984-10.872-1.984h-7.937V246.446z" fill="#006E90"/><path d="M211.468,262.701l27.453-79.586h27.181l27.507,79.586h-21.581l-4.023-14.243h-30.822l-4.133,14.243     H211.468z M241.855,232.965h21.583l-8.101-26.257c-0.254-0.796-0.598-2.083-1.033-3.859c-0.435-1.775-0.997-4.059-1.686-6.85     c-0.471,1.957-0.933,3.824-1.386,5.599c-0.454,1.776-0.916,3.479-1.386,5.11L241.855,232.965z" fill="#006E90"/><path d="M301.22,262.701v-79.586h20.929l30.062,40.934c0.578,0.834,1.529,2.51,2.854,5.029     c1.322,2.519,2.78,5.518,4.377,8.997c-0.436-3.298-0.754-6.233-0.952-8.807c-0.199-2.573-0.299-4.855-0.299-6.849v-39.304h20.82     v79.586h-20.82l-30.062-41.098c-0.617-0.833-1.585-2.509-2.908-5.029c-1.323-2.519-2.765-5.481-4.322-8.888     c0.436,3.335,0.753,6.289,0.952,8.861c0.198,2.573,0.299,4.857,0.299,6.85v39.304H301.22z" fill="#006E90"/><path d="M396.08,262.701v-79.586h21.473v36.15l25.17-36.15h25.278l-29.41,38.814l31.965,40.771h-27.072     l-25.931-35.716v35.716H396.08z" fill="#006E90"/></g><linearGradient gradientUnits="userSpaceOnUse" id="SVGID_1_" x1="39.7686" x2="127.9072" y1="190.7979" y2="190.7979"><stop offset="0" style="stop-color:#E70000;stop-opacity:0"/><stop offset="0.3317" style="stop-color:#DE0000;stop-opacity:0.4506"/><stop offset="0.7362" style="stop-color:#CD0000"/><stop offset="0.7931" style="stop-color:#C20000"/><stop offset="0.8916" style="stop-color:#A60000"/><stop offset="1" style="stop-color:#800000"/></linearGradient><rect fill="url(#SVGID_1_)" height="15.772" width="88.139" x="39.769" y="182.912"/><linearGradient gradientUnits="userSpaceOnUse" id="SVGID_2_" x1="39.7686" x2="127.9072" y1="221.415" y2="221.415"><stop offset="0" style="stop-color:#E70000;stop-opacity:0"/><stop offset="0.3317" style="stop-color:#DE0000;stop-opacity:0.4506"/><stop offset="0.7362" style="stop-color:#CD0000"/><stop offset="0.7931" style="stop-color:#C20000"/><stop offset="0.8916" style="stop-color:#A60000"/><stop offset="1" style="stop-color:#800000"/></linearGradient><rect fill="url(#SVGID_2_)" height="15.772" width="88.139" x="39.769" y="213.529"/><linearGradient gradientUnits="userSpaceOnUse" id="SVGID_3_" x1="39.7686" x2="127.9072" y1="254.8145" y2="254.8145"><stop offset="0" style="stop-color:#E70000;stop-opacity:0"/><stop offset="0.3317" style="stop-color:#DE0000;stop-opacity:0.4506"/><stop offset="0.7362" style="stop-color:#CD0000"/><stop offset="0.7931" style="stop-color:#C20000"/><stop offset="0.8916" style="stop-color:#A60000"/><stop offset="1" style="stop-color:#800000"/></linearGradient><rect fill="url(#SVGID_3_)" height="15.773" width="88.139" x="39.769" y="246.928"/></g></g></svg>