<?xml version="1.0" ?><!DOCTYPE svg  PUBLIC '-//W3C//DTD SVG 1.1//EN'  'http://www.w3.org/Graphics/SVG/1.1/DTD/svg11.dtd'><svg enable-background="new 0 0 512 512" height="512px" id="Layer_1" version="1.1" viewBox="0 0 512 512" width="512px" xml:space="preserve" xmlns="http://www.w3.org/2000/svg" xmlns:xlink="http://www.w3.org/1999/xlink"><g><g><path d="M481.874,102.698c13.854,0,25.126,11.271,25.126,25.126v257.899c0,13.854-11.271,25.126-25.126,25.126    H30.143c-13.854,0-25.126-11.271-25.126-25.126V127.824c0-13.854,11.271-25.126,25.126-25.126H481.874 M481.874,97.698H30.143    c-16.638,0-30.126,13.488-30.126,30.126v257.899c0,16.64,13.488,30.126,30.126,30.126h451.731    c16.64,0,30.126-13.486,30.126-30.126V127.824C512,111.186,498.513,97.698,481.874,97.698L481.874,97.698z" fill="#0069B3"/></g><g><path d="M164.106,375.949H154.8v5.403c0.1,1.199,0.1,2.102,1.001,2.9c0.2,0.103,0.5,0.4,1.1,0.4    c0.2,0,0.601-0.101,1-0.4c1.101-0.8,1.101-1.901,1.001-3.101v-2.303h5.103c0.1,2.103,0.1,5.203-0.701,7.104    c-0.8,1.701-2.602,3.102-6.604,3.102c-2.201,0-4.703-0.601-5.904-2.502c-1.401-2.2-1.3-5.603-1.3-8.305v-3.402    c0-1.501,0-3.001,0-4.604c0-0.4,0-2.801,0.4-4.502c1.101-4.704,5.603-4.904,7.004-4.904c0.9,0,1.501,0.101,1.801,0.101    c1.6,0.303,3.102,1.002,4.103,2.303c1.301,2.001,1.301,5.004,1.301,7.306L164.106,375.949L164.106,375.949z M158.903,371.848    v-4.003c-0.1-0.9-0.2-1.701-0.801-2.302c-0.3-0.301-0.7-0.501-1.201-0.501c-0.2,0-0.601,0.101-1.1,0.4    c-0.801,0.501-0.801,1.302-1.001,2.302v4.104H158.903L158.903,371.848z" fill="#0069B3"/><polygon fill="#1D1D1B" points="172.512,352.334 172.512,388.857 167.108,388.857 167.108,352.334   "/><path d="M190.523,375.949h-9.306v5.403c0.1,1.199,0.2,2.102,1.001,2.9c0.2,0.103,0.5,0.4,1.101,0.4    c0.2,0,0.601-0.101,1.101-0.4c1-0.8,1-1.901,0.9-3.101v-2.303h5.203c0,2.103,0,5.203-0.8,7.104    c-0.801,1.701-2.602,3.102-6.604,3.102c-2.202,0-4.704-0.601-5.904-2.502c-1.401-2.2-1.301-5.603-1.301-8.305v-3.402    c0-1.501,0-3.001,0-4.604c0-0.4,0-2.801,0.4-4.502c1.101-4.704,5.604-4.904,7.004-4.904c0.9,0,1.5,0.101,1.901,0.101    c1.5,0.303,3.002,1.002,4.002,2.303c1.3,2.001,1.3,5.004,1.3,7.306v5.403H190.523z M185.319,371.848v-4.003    c-0.1-0.9-0.201-1.701-0.8-2.302c-0.301-0.301-0.702-0.501-1.201-0.501c-0.101,0-0.601,0.101-1.101,0.4    c-0.801,0.501-0.801,1.302-1.001,2.302v4.104H185.319L185.319,371.848z" fill="#1D1D1B"/><path d="M202.531,370.847c0-2.302,0-4.203-0.5-5.004c-0.2-0.3-0.5-0.601-1.401-0.601c-0.3,0-0.701,0.101-1.001,0.2    c-0.6,0.501-0.8,1.302-1,2.102c-0.1,2.502-0.1,5.003-0.1,7.505c0,2.402,0.1,4.804,0.2,7.205c0,0.299,0.1,0.602,0.1,0.801    c0.1,0.6,0.3,1.601,1.901,1.601c1.801,0,1.901-1.601,1.901-3.302c0-1.301,0-2.502,0-3.702l5.304,0.101c0,1.301,0,2.602,0,3.903    c-0.101,1.999-0.2,3.701-1.501,5.303c-0.601,0.899-1.301,1.2-1.701,1.5c-0.601,0.201-2.102,0.7-4.002,0.7    c-0.701,0-4.203,0-6.004-2.401c-1.401-1.802-1.501-4.102-1.501-6.303c-0.101-2.902-0.2-5.705-0.101-8.605    c0.101-1.401,0.201-2.802,0.3-4.304c0.101-1.301,0.2-1.601,0.401-2.302c1.101-3.103,3.501-3.803,4.502-4.001    c1.101-0.302,2.402-0.302,2.702-0.302c3.402,0,5.203,1.801,5.904,2.901c0.9,1.4,0.8,3.302,0.9,7.005H202.531L202.531,370.847z" fill="#1D1D1B"/><path d="M211.336,361.241v-7.205h5.403v7.205h2.103v4.702h-2.103v15.711c0,1.199,0,1.999,0.4,2.399    c0.3,0.199,0.701,0.199,1.101,0.302c0.2,0,0.401,0.099,0.701,0.099l-0.101,4.403c-1.102,0-2.202,0-3.402,0    c-1.201,0.101-2.302,0.101-3.103-0.802c-0.3-0.398-0.5-0.601-0.7-1.1c-0.101-0.401-0.2-0.802-0.2-1.802v-19.212h-2.202v-4.702    L211.336,361.241L211.336,361.241z" fill="#1D1D1B"/><path d="M226.246,361.241l-0.2,5.303c0.5-1.901,0.8-2.603,1.302-3.303c1.3-2.103,2.9-2.302,5.204-2.502    l-0.103,6.604c-1.9-0.1-3.701-0.2-4.901,1.302c-0.902,1.102-1.002,2.103-1.002,3.502v16.711h-5.504v-27.616H226.246    L226.246,361.241z" fill="#1D1D1B"/><path d="M233.851,369.845c0.101-2.101,0-3.802,1.101-5.703c0.9-1.501,2.502-3.103,6.203-3.103    c3.803,0,5.304,1.401,6.105,3.103c1.101,2.202,0.899,5.005,0.899,10.106c0,1.602,0.101,3.203,0.101,4.804    c0,0.2,0.1,4.402-0.802,6.503c-1.2,2.902-3.702,3.703-6.604,3.703c-2.603,0-5.104-1-6.205-3.603c-0.9-2.3-0.801-6.805-0.801-9.205    C233.851,374.248,233.851,372.048,233.851,369.845L233.851,369.845L233.851,369.845z M242.956,372.646c0-1.399,0-2.7-0.1-4.103    c0-0.1,0-1.401-0.399-2.302c-0.399-0.801-1.001-0.9-1.303-0.9c-0.699,0-1.601,0.602-1.801,2.103c-0.2,1.001-0.2,2.901-0.2,5.603    c0,2.002,0,4.104,0,6.205c0,2.201,0.103,3.803,0.502,4.602c0.299,0.602,0.801,1.002,1.401,1.002c0.399,0,0.801-0.101,1.001-0.4    c0.898-0.801,0.799-2.2,0.898-4.603V372.646L242.956,372.646z" fill="#1D1D1B"/><path d="M256.766,361.241l0.1,2.399c0.3-0.199,0.5-0.601,0.801-0.801c0.5-0.501,1.901-1.9,4.203-1.9    c0.5,0,1.401,0,2.4,0.7c1.701,1.101,1.901,2.603,2.102,4.503v22.715h-5.401v-20.013c0-1.001-0.102-1.802-0.901-2.401    c-0.399-0.301-0.7-0.301-0.9-0.301c-0.699,0-1.2,0.5-1.399,0.602c-1.103,1.2-1.103,2.9-1.001,4.303v17.812h-5.203v-27.616    L256.766,361.241L256.766,361.241z" fill="#1D1D1B"/><path d="M275.378,361.241v27.616h-5.304v-27.616H275.378L275.378,361.241z M275.478,352.334v5.305h-5.304v-5.305    H275.478L275.478,352.334z" fill="#1D1D1B"/><path d="M288.086,370.847c0-2.302,0-4.203-0.502-5.004c-0.198-0.3-0.599-0.601-1.398-0.601    c-0.4,0-0.801,0.101-1.102,0.2c-0.601,0.501-0.801,1.302-0.899,2.102c-0.102,2.502-0.2,5.003-0.2,7.505    c0,2.402,0.1,4.804,0.2,7.205c0,0.299,0.1,0.602,0.1,0.801c0.102,0.6,0.4,1.601,1.901,1.601c1.9,0,1.9-1.601,1.9-3.302    c0-1.301,0-2.502,0-3.702l5.304,0.101c0,1.301,0,2.602,0,3.903c-0.101,1.999-0.199,3.701-1.4,5.303    c-0.701,0.899-1.4,1.2-1.802,1.5c-0.599,0.201-2.102,0.7-3.901,0.7c-0.801,0-4.203,0-6.005-2.401    c-1.4-1.802-1.501-4.102-1.602-6.303c0-2.902-0.199-5.705,0-8.605c0-1.401,0.101-2.802,0.2-4.304    c0.101-1.301,0.199-1.601,0.399-2.302c1.103-3.103,3.503-3.803,4.504-4.001c1.102-0.302,2.502-0.302,2.802-0.302    c3.302,0,5.202,1.801,5.804,2.901c0.9,1.4,0.9,3.302,0.9,7.005H288.086L288.086,370.847z" fill="#1D1D1B"/><path d="M312,370.847c0-2.302,0-4.203-0.499-5.004c-0.199-0.3-0.5-0.601-1.401-0.601c-0.299,0-0.699,0.101-1,0.2    c-0.602,0.501-0.8,1.302-1,2.102c-0.101,2.502-0.101,5.003-0.101,7.505c0,2.402,0.101,4.804,0.199,7.205    c0,0.299,0.102,0.602,0.102,0.801c0.1,0.6,0.3,1.601,1.9,1.601c1.8,0,1.9-1.601,1.9-3.302c0-1.301,0-2.502,0-3.702l5.303,0.101    c0,1.301,0,2.602,0,3.903c-0.1,1.999-0.199,3.701-1.5,5.303c-0.601,0.899-1.301,1.2-1.702,1.5c-0.6,0.201-2.101,0.7-4.001,0.7    c-0.701,0-4.203,0-6.005-2.401c-1.399-1.802-1.501-4.102-1.501-6.303c-0.101-2.902-0.2-5.705-0.101-8.605    c0.101-1.401,0.2-2.802,0.301-4.304c0.1-1.301,0.2-1.601,0.399-2.302c1.102-3.103,3.502-3.803,4.504-4.001    c1.102-0.302,2.401-0.302,2.702-0.302c3.4,0,5.201,1.801,5.902,2.901c0.9,1.4,0.801,3.302,0.9,7.005H312L312,370.847z" fill="#E53212"/><path d="M319.905,369.845c-0.1-3.301,0.102-5.202,0.901-6.604c1.602-2.302,5.401-2.402,5.902-2.402    c0.2,0,3.503,0.102,5.005,1.501c1.101,1.001,1.301,2.604,1.501,5.805v20.813h-5.104v-2.202c-0.2,0.4-0.5,0.901-0.8,1.301    c-0.801,0.802-2.302,1.102-3.403,1.102c-0.799,0-2.801-0.101-3.9-2.603c-0.7-1.602-0.602-4.102-0.602-5.703v-1.699    c0.2-2.303,0.602-3.805,2.402-5.104c0.601-0.601,3.101-2.102,3.602-2.502c1.501-0.799,2.301-0.999,2.501-2.801    c0.102-0.5,0.102-0.7,0.102-1.001c0-0.3,0-1.2-0.7-1.801c-0.2,0-0.602-0.2-1.001-0.2c-0.501,0-0.701,0.1-0.9,0.5    c-0.601,0.7-0.701,1.802-0.601,3.602L319.905,369.845L319.905,369.845z M326.609,375.949c0,0.1-0.7,0.601-1.101,1.102    c-0.5,0.5-0.802,1.602-0.802,3.502c0,0.602,0.102,1.301,0.2,1.901c0,0.799,0,1.398,0.602,1.901    c0.199,0.099,0.399,0.299,0.801,0.299c0.3,0,0.601-0.101,0.801-0.2c0.6-0.399,0.8-1,0.8-1.601c0.2-1.199,0.2-4.202,0.102-8.105    C327.61,375.148,327.11,375.549,326.609,375.949L326.609,375.949L326.609,375.949z" fill="#1D1D1B"/><path d="M340.719,378.352c-0.101,2.803-0.101,4.803,0.501,5.703c0.3,0.601,1.101,0.899,1.9,0.899    c2.001,0,2.201-2.5,2.201-3.002c0-0.198,0-0.799-0.2-1.299c-0.399-1.201-1-1.702-2.602-3.403c-1.001-0.9-2.002-1.901-2.902-2.901    c-0.3-0.301-0.601-0.501-0.899-0.9c-0.802-0.7-2.702-2.5-2.702-5.804c0-0.501,0.1-1.9,0.702-3.201    c0.698-1.803,2.199-3.504,6.202-3.504c3.604,0,5.003,1.102,5.903,2.503c1.2,2.001,1.102,4.303,1.102,6.604l-4.804-0.1    c0.102-1.701,0.2-4.904-2.201-4.904c-1.101,0-1.9,1.102-1.9,2.202c0,1.4,1.399,2.601,2.502,3.603    c0.601,0.699,1.101,1.3,1.701,2.001c0.601,0.5,1.198,1,1.8,1.602c2.102,2.102,3.202,4.003,3.202,6.904c0,0.4,0,4.003-1.301,5.703    c-0.801,1.102-2.9,2.102-6.203,2.102c-4.504,0-6.104-2.501-6.705-4.604c-0.1-0.5-0.2-1.101-0.2-2.4v-3.803H340.719    L340.719,378.352z" fill="#1D1D1B"/><path d="M358.431,352.334v10.907c1.5-1.301,2.9-2.402,4.803-2.402c1.4,0,2.302,0.602,2.701,0.901    c1.901,1.399,1.901,3.702,1.901,5.903v21.313h-5.303v-20.112c0-0.101,0.199-2.901-1.802-2.901c-0.201,0-0.901,0-1.3,0.5    c-0.902,0.899-1.001,2.603-1.001,3.603v18.812h-5.305v-36.523L358.431,352.334L358.431,352.334z" fill="#1D1D1B"/><path d="M368.286,338.115c0,0-113.358,0-113.676,0c-9.314,0-15.63-9.313-15.63-15.946    c0-6.156,0.156-169.25,0-175.565c-0.159-6.315,10.893-16.104,18.312-16.104c7.423,0.158,110.835,0,110.835,0v82.257h-60.311    V173.76c0,0-3.948-0.158-9,0c-2.526,0.158-6.788,2.684-6.788,6.789c-0.159,8.525,0,107.045,0,109.571    c0,2.366,1.577,5.524,6.788,5.683c5.21,0.316,9.156,0,9.156,0v-42.154h60.312L368.286,338.115L368.286,338.115z" fill="#E53212"/><path d="M168.406,130.5c12.473,0.158,103.413,0,103.413,0v123.148l-68.837-0.158c0,0,0,35.365,0,36.156    c0,0.629,1.737,5.998,7.894,6.314c1.264,0,8.526,0,8.526,0v-30.473h52.574l-0.157,72.626H167.933c0,0-15.631-2.525-17.051-17.685    c0.158-5.682,0-171.301,0-174.144C150.881,143.604,156.881,130.5,168.406,130.5L168.406,130.5L168.406,130.5z M219.561,173.444    c0,0-4.579-0.316-8.685-0.158c-4.263,0.158-7.894,4.263-7.894,6.789c0,2.527,0,32.682,0,32.682h16.578V173.444L219.561,173.444z" fill="#0069B3"/><path d="M271.977,265.489H238.98c0,29.997,0,54.312,0,56.68c0,6.474,6.313,15.789,15.472,15.946h17.367    L271.977,265.489L271.977,265.489z" fill="#1D1D1B"/><path d="M271.819,253.648V130.5c-7.579,0-13.104,0-14.526,0c-7.419,0-18.472,9.789-18.312,16.104    c0,3.631,0,59.364,0,107.044H271.819L271.819,253.648z" fill="#1D1D1B"/></g></g></svg>