<?xml version="1.0" ?><!DOCTYPE svg  PUBLIC '-//W3C//DTD SVG 1.1//EN'  'http://www.w3.org/Graphics/SVG/1.1/DTD/svg11.dtd'><svg enable-background="new 0 0 512 512" height="512px" id="Layer_1" version="1.1" viewBox="0 0 512 512" width="512px" xml:space="preserve" xmlns="http://www.w3.org/2000/svg" xmlns:xlink="http://www.w3.org/1999/xlink"><g><g><path d="M481.874,102.698c13.854,0,25.126,11.271,25.126,25.126v257.899c0,13.854-11.271,25.126-25.126,25.126    H30.143c-13.854,0-25.126-11.271-25.126-25.126V127.824c0-13.854,11.271-25.126,25.126-25.126H481.874 M481.874,97.698H30.143    c-16.638,0-30.126,13.488-30.126,30.126v257.899c0,16.64,13.488,30.126,30.126,30.126h451.731    c16.64,0,30.126-13.486,30.126-30.126V127.824C512,111.186,498.513,97.698,481.874,97.698L481.874,97.698z" fill="#E2051C"/></g><g><polygon fill="#1D1D1B" points="106.509,310.936 199.93,310.936 198.5,319.207 176.004,319.207 179.246,314.491 132.742,314.491     129.501,319.207 114.629,319.207   "/><path d="M191.275,340.529h-85.151l8.127-8.272h30.798l-2.764,4.023h36.753    C183.961,336.28,188.547,337.989,191.275,340.529L191.275,340.529z" fill="#1D1D1B"/><polygon fill="#1D1D1B" points="106.089,321.601 198.084,321.601 196.654,329.872 114.208,329.872   "/><polygon fill="#1D1D1B" points="201.774,300.283 200.343,308.55 177.729,308.55 180.962,303.831 134.458,303.831 131.21,308.55     116.381,308.55 108.255,300.283   "/><path d="M138.012,291.833c0.876-1.147,2.152-1.959,3.61-2.208h45.864c7.079,0.131,13.397,3.762,14.324,8.271    h-83.564L106.8,286.234h25.719L138.012,291.833L138.012,291.833z" fill="#1D1D1B"/><path d="M319.579,310.936h91.842c2.036,1.709,3.416,3.759,3.786,5.949c0.146,0.791,0.146,1.56,0.03,2.314h-22.949    l0.654-3.773h-13.048l-0.643,3.773l-24.929,0.008l0.656-3.781h-13.05l-0.643,3.781h-13.59L319.579,310.936L319.579,310.936z" fill="#1D1D1B"/><path d="M424.767,300.283l-0.982,5.703H397.23c3.831,0.149,7.464,1.092,10.457,2.562h-80.786l-3.76-3.845h10.584    l0.77-4.422L424.767,300.283L424.767,300.283z" fill="#1D1D1B"/><polygon fill="#1D1D1B" points="316.803,321.601 340.861,321.601 340.092,326.051 353.143,326.051 353.91,321.601     378.826,321.601 378.057,326.051 391.106,326.051 391.874,321.601 414.822,321.601 413.384,329.872 324.921,329.872   "/><polygon fill="#1D1D1B" points="383.796,292.777 426.078,292.777 425.18,297.896 324.594,297.896 319.564,292.777     358.883,292.777 359.722,287.932 384.639,287.932   "/><polygon fill="#1D1D1B" points="412.973,332.257 411.546,340.529 313.882,340.529 309.48,336.047 330.876,336.047     327.157,332.257   "/><polygon fill="#1D1D1B" points="264.734,300.283 276.714,300.283 275.292,308.55 263.296,308.55   "/><polygon fill="#1D1D1B" points="247.843,308.55 249.282,300.283 261.261,300.283 259.839,308.55   "/><polygon fill="#1D1D1B" points="245.999,319.207 247.438,310.936 259.418,310.936 257.993,319.207   "/><polygon fill="#1D1D1B" points="244.156,329.872 245.592,321.601 257.574,321.601 256.15,329.872   "/><polygon fill="#1D1D1B" points="242.309,340.529 243.748,332.257 255.729,332.257 254.303,340.529   "/><polygon fill="#1D1D1B" points="240.271,332.257 238.848,340.529 208.255,340.529 200.129,332.257   "/><polygon fill="#1D1D1B" points="307.073,332.257 305.634,340.529 273.296,340.529 274.721,332.257   "/><polygon fill="#1D1D1B" points="271.188,332.257 269.75,340.529 257.766,340.529 259.204,332.257   "/><polygon fill="#1D1D1B" points="273.025,321.601 271.6,329.872 259.611,329.872 261.048,321.601   "/><polygon fill="#1D1D1B" points="274.877,310.936 273.453,319.207 261.459,319.207 262.897,310.936   "/><polygon fill="#1D1D1B" points="308.925,321.601 304.224,329.872 278.012,329.872 276.574,321.601 289.381,321.601     290.006,325.141 294.11,325.141 296.118,321.601   "/><polygon fill="#1D1D1B" points="299.809,300.283 312.615,300.283 311.174,308.55 298.383,308.55   "/><polygon fill="#1D1D1B" points="280.263,300.283 293.069,300.283 291.646,308.55 278.822,308.55   "/><polygon fill="#1D1D1B" points="289.792,319.207 276.985,319.207 278.423,310.936 291.23,310.936   "/><polygon fill="#1D1D1B" points="310.762,310.936 309.336,319.207 296.531,319.207 297.969,310.936   "/><polygon fill="#1D1D1B" points="242.114,321.601 237.432,329.872 214.88,329.872 206.759,321.601 222.59,321.601 223.198,325.141     227.316,325.141 229.325,321.601   "/><polygon fill="#1D1D1B" points="224.852,308.55 215.594,308.55 207.472,300.283 226.275,300.283   "/><polygon fill="#1D1D1B" points="245.813,300.283 244.382,308.55 231.584,308.55 233.015,300.283   "/><polygon fill="#1D1D1B" points="223.007,319.207 215.465,319.207 207.344,310.936 224.433,310.936   "/><polygon fill="#1D1D1B" points="243.969,310.936 242.538,319.207 229.739,319.207 231.169,310.936   "/><path d="M213.808,342.914h18.345l-4.122,11.072h5.88l-3.205,8.877h-5.967l-9.187,24.7    c-0.396,1.061-1.454,1.862-2.561,1.87h-18.51c0,0,3.675-3.395,6.304-10.562c1.837-4.992,3.724-10.213,5.76-16.009h-8.389    l1.53-8.877h10.063L213.808,342.914L213.808,342.914z" fill="#1D1D1B"/><polygon fill="#1D1D1B" points="281.559,292.777 289.579,292.777 290.419,287.932 305.934,287.932 305.092,292.777     317.742,292.777 315.891,297.896 280.676,297.904   "/><path d="M212.095,297.896l-5.028-5.119h15.72l0.839-4.846h15.516l-0.842,4.846h12.28l0.84-4.846h11.978    l-0.825,4.846h6.78c3.847,0,7.307,2.033,7.732,4.541c0.029,0.19,0.029,0.393-0.012,0.586L212.095,297.896L212.095,297.896z" fill="#1D1D1B"/><path d="M253.884,342.914l-12.734,37.64h8.347l7.864-37.64h11.975l-2.307,11.072h10.146l1.906-11.072h19.702    l-1.911,11.072h6.44l-1.539,8.877h-6.438l-4.202,24.24c-0.229,1.259-1.381,2.282-2.604,2.33h-17.494l4.602-26.57h-10.456    l-5.553,26.57h-17.807c-1.489,0-2.721-1.219-2.757-2.732l-0.299,0.897c-0.407,1.044-1.459,1.835-2.559,1.835h-13.098    c0,0,4.195-3.916,6.326-10.481l12.471-36.038H253.884L253.884,342.914z" fill="#1D1D1B"/><path d="M368.982,378.362l-1.525,8.773c-0.24,1.249-1.396,2.268-2.621,2.298l-35.241-0.021l3.163-8.86h10.926    l0.384-2.19h-38.434l3.176-8.873h36.797l1.152-6.634h-38.461l3.176-8.869h36.81l1.155-6.653h-30.927l-4.332-4.415l91.328-0.004    c2.761,0.004,4.983,1.709,4.983,3.802c0,0.127-0.014,0.249-0.027,0.376l-1.196,6.896h6.467l-1.524,8.854h-6.48l-2.678,15.522    L368.982,378.362L368.982,378.362L368.982,378.362z M374.352,347.364h13.063l-1.152,6.63h-13.064L374.352,347.364L374.352,347.364    L374.352,347.364z M371.66,362.863h13.062l-1.15,6.626H370.52L371.66,362.863L371.66,362.863z" fill="#1D1D1B"/><path d="M186.745,387.128c-0.235,1.239-1.375,2.259-2.59,2.307h-33.891v-6.508    c-2.821,3.873-4.916,6.508-4.916,6.508h-28.261c0,0,6.488-7.22,12.876-16.451c7.692-11.119,13.186-21.168,13.186-21.168h22.188    c1.145-0.066,2.049-1.032,2.049-2.216c0-1.227-0.981-2.215-2.186-2.215h-29.302c-1.203,0-2.187,0.988-2.187,2.215    c0,1.234,0.911,2.216,2.114,2.216c0.662,0,1.203,0.55,1.203,1.227c0,0.186-0.048,0.364-0.12,0.519    c-2.329,3.833-8.048,13.113-12.451,19.306c-5.705,8.021-13.233,16.569-13.233,16.569H86.466c0,0,6.502-6.787,13.391-15.625    c4.608-5.905,8.446-11.661,11.062-15.8c0.064-0.146,0.099-0.312,0.099-0.499c0-0.668-0.528-1.218-1.189-1.222l-16.068-0.016    l13.119-13.359h86.255c0.307,0.586,0.521,1.198,0.626,1.827c0.115,0.614,0.115,1.219,0.015,1.797L186.745,387.128L186.745,387.128    L186.745,387.128z M152.721,379.47h9.529l3.982-22.991c-2.337,4.53-6.005,11.456-9.245,16.584    C155.583,375.293,154.116,377.468,152.721,379.47L152.721,379.47z" fill="#1D1D1B"/><path d="M113.111,128.306h287.454c14.015,0,25.37,11.354,25.37,25.371v91.312c0,14-11.355,25.36-25.37,25.36    H113.111c-14.01,0-25.371-11.36-25.371-25.36v-91.312C87.741,139.66,99.102,128.306,113.111,128.306L113.111,128.306z" fill="#E2051C"/><path d="M341.389,209.477c-14.019,0-25.371-11.369-25.371-25.371c0-3.534,0.728-6.895,2.037-9.958    c1.667,8.561,9.203,15.028,18.248,15.028l47.395,0.014c10.271,0,18.604,8.319,18.604,18.591c0,4.545-1.639,8.703-4.347,11.937    c-0.77-5.782-5.724-10.241-11.723-10.241H341.389L341.389,209.477z" fill="#FFFFFF"/><path d="M400.565,168.905l-61.713-0.013c-5.995,0-10.954,4.459-11.737,10.241    c-2.708-3.233-4.332-7.392-4.332-11.938c0-10.27,8.333-18.589,18.605-18.589l59.177,0.015V168.905L400.565,168.905z" fill="#FFFFFF"/><path d="M409.067,224.69c0-3.534-0.725-6.91-2.036-9.957c-1.668,8.561-9.203,15.027-18.263,15.027h-72.751v20.286    h67.68C397.701,250.046,409.067,238.692,409.067,224.69L409.067,224.69z" fill="#FFFFFF"/><path d="M226.406,250.046h-20.293v-76.084c0-14.002,11.354-25.357,25.357-25.357h3.046    c-4.99,4.63-8.109,11.255-8.109,18.589L226.406,250.046L226.406,250.046z" fill="#FFFFFF"/><path d="M233.162,174.004v-6.809c0-10.27,8.327-18.589,18.604-18.589h32.141c10.271,0,18.592,8.319,18.592,18.589    c0,4.546-1.624,8.705-4.331,11.938c-0.782-5.782-5.727-10.241-11.726-10.241h-43.527    C238.869,168.892,235.303,170.914,233.162,174.004L233.162,174.004z" fill="#FFFFFF"/><path d="M309.267,184.106c0-3.534-0.729-6.895-2.023-9.958c-1.667,8.561-9.217,15.028-18.264,15.028h-55.817v20.3    h50.746C297.912,209.477,309.267,198.108,309.267,184.106L309.267,184.106z" fill="#FFFFFF"/><path d="M104.656,184.106c0-3.534,0.721-6.895,2.031-9.958c1.054,5.412,4.458,10,9.117,12.635    c-3.44,2.323-6.276,5.47-8.219,9.159C105.718,192.409,104.656,188.378,104.656,184.106L104.656,184.106z" fill="#FFFFFF"/><path d="M165.528,184.106v-10.115c0.731,5.312,4.986,9.487,10.377,10.115H165.528L165.528,184.106z" fill="#FFFFFF"/><path d="M165.528,207.781c0-10.271,8.334-18.604,18.603-18.604h13.584v20.3h-20.464    c-6.018,0.028-10.925,4.458-11.722,10.199L165.528,207.781L165.528,207.781z" fill="#FFFFFF"/><path d="M197.657,168.892l-70.18-0.015c-5.996,0-10.946,4.474-11.722,10.255    c-2.708-3.233-4.339-7.392-4.339-11.938c0-10.27,8.334-18.589,18.604-18.589h67.638L197.657,168.892L197.657,168.892z" fill="#FFFFFF"/><path d="M158.759,209.49l-31.282-0.013c-5.996,0-10.946,4.458-11.722,10.241    c-2.708-3.234-4.339-7.392-4.339-11.937c0-10.271,8.334-18.591,18.604-18.591h36.853c-4.993,4.63-8.113,11.254-8.113,18.591    L158.759,209.49L158.759,209.49z" fill="#FFFFFF"/><path d="M104.656,224.69c0-3.534,0.721-6.91,2.031-9.957c1.658,8.561,9.203,15.027,18.263,15.027h69.111v20.286    H130.02C116.011,250.046,104.656,238.692,104.656,224.69L104.656,224.69z" fill="#FFFFFF"/></g></g></svg>