<?xml version="1.0" ?><!DOCTYPE svg  PUBLIC '-//W3C//DTD SVG 1.1//EN'  'http://www.w3.org/Graphics/SVG/1.1/DTD/svg11.dtd'><svg enable-background="new 0 0 512 512" height="512px" id="Layer_1" version="1.1" viewBox="0 0 512 512" width="512px" xml:space="preserve" xmlns="http://www.w3.org/2000/svg" xmlns:xlink="http://www.w3.org/1999/xlink"><g><g><path d="M481.874,102.698c13.854,0,25.126,11.271,25.126,25.126v257.899c0,13.854-11.271,25.126-25.126,25.126    H30.143c-13.854,0-25.126-11.271-25.126-25.126V127.824c0-13.854,11.271-25.126,25.126-25.126H481.874 M481.874,97.698H30.143    c-16.638,0-30.126,13.488-30.126,30.126v257.899c0,16.64,13.488,30.126,30.126,30.126h451.731    c16.64,0,30.126-13.486,30.126-30.126V127.824C512,111.186,498.513,97.698,481.874,97.698L481.874,97.698z" fill="#2C2F88"/></g><g><polygon fill="#2C2F88" points="131.446,392.256 386.013,392.256 386.013,123.5 131.446,123.5   "/><polygon fill="#E83A8D" points="386.132,130.476 378.564,143.246 131.091,137.569 131.091,136.27   "/><polygon fill="#E83A8D" points="377.737,144.901 369.933,157.67 135.466,151.759 134.875,150.813   "/><polygon fill="#E83A8D" points="368.987,159.445 361.302,172.095 144.097,166.184 143.506,165.356   "/><polygon fill="#E83A8D" points="360.238,173.869 352.789,186.639 153.201,180.727 152.611,179.781   "/><polygon fill="#E83A8D" points="351.842,188.293 344.275,201.064 161.833,195.153 161.242,194.207   "/><polygon fill="#E83A8D" points="343.093,202.838 335.526,215.489 170.819,209.578 170.229,208.75   "/><polygon fill="#E83A8D" points="334.461,217.263 326.895,230.032 180.042,224.121 179.45,223.175   "/><polygon fill="#E83A8D" points="325.949,231.688 318.263,244.458 188.673,238.546 188.083,237.6   "/><polygon fill="#E83A8D" points="317.436,246.113 309.633,258.883 197.305,252.97 196.713,252.144   "/><polygon fill="#E83A8D" points="308.804,260.657 301.119,273.425 206.409,267.396 205.818,266.566   "/><polygon fill="#E83A8D" points="300.173,275.083 292.487,287.852 215.396,281.939 214.805,280.994   "/><polygon fill="#E83A8D" points="291.542,289.506 283.855,302.277 224.382,296.363 223.79,295.419   "/><polygon fill="#E83A8D" points="282.91,304.051 275.343,316.7 233.131,310.789 232.539,309.961   "/><polygon fill="#E83A8D" points="274.396,318.474 266.592,331.245 241.762,325.332 241.171,324.389   "/><polygon fill="#E83A8D" points="265.411,333.371 257.606,346.615 249.33,339.758 249.095,338.812   "/><path d="M131.091,339.286h255.041H131.091z" fill="#E83A8D"/><line fill="none" stroke="#E83A8D" stroke-miterlimit="2.6131" stroke-width="1.5301" x1="131.091" x2="386.132" y1="339.286" y2="339.286"/><path d="M131.091,324.859h255.041H131.091z" fill="#E83A8D"/><line fill="none" stroke="#E83A8D" stroke-miterlimit="2.6131" stroke-width="1.5301" x1="131.091" x2="386.132" y1="324.859" y2="324.859"/><path d="M131.091,310.434h255.041H131.091z" fill="#E83A8D"/><line fill="none" stroke="#E83A8D" stroke-miterlimit="2.6131" stroke-width="1.5301" x1="131.091" x2="386.132" y1="310.434" y2="310.434"/><path d="M131.091,295.891h255.041H131.091z" fill="#E83A8D"/><line fill="none" stroke="#E83A8D" stroke-miterlimit="2.6131" stroke-width="1.5301" x1="131.091" x2="386.132" y1="295.891" y2="295.891"/><path d="M131.091,281.466h255.041H131.091z" fill="#E83A8D"/><line fill="none" stroke="#E83A8D" stroke-miterlimit="2.6131" stroke-width="1.5301" x1="131.091" x2="386.132" y1="281.466" y2="281.466"/><path d="M131.091,267.04h255.041H131.091z" fill="#E83A8D"/><line fill="none" stroke="#E83A8D" stroke-miterlimit="2.6131" stroke-width="1.5301" x1="131.091" x2="386.132" y1="267.04" y2="267.04"/><path d="M131.091,252.616h255.041H131.091z" fill="#E83A8D"/><line fill="none" stroke="#E83A8D" stroke-miterlimit="2.6131" stroke-width="1.5301" x1="131.091" x2="386.132" y1="252.616" y2="252.616"/><path d="M131.091,238.073h255.041H131.091z" fill="#E83A8D"/><line fill="none" stroke="#E83A8D" stroke-miterlimit="2.6131" stroke-width="1.5301" x1="131.091" x2="386.132" y1="238.073" y2="238.073"/><path d="M131.091,223.647h255.041H131.091z" fill="#E83A8D"/><line fill="none" stroke="#E83A8D" stroke-miterlimit="2.6131" stroke-width="1.5301" x1="131.091" x2="386.132" y1="223.647" y2="223.647"/><path d="M131.091,209.222h255.041H131.091z" fill="#E83A8D"/><line fill="none" stroke="#E83A8D" stroke-miterlimit="2.6131" stroke-width="1.5301" x1="131.091" x2="386.132" y1="209.222" y2="209.222"/><path d="M131.091,194.798h255.041H131.091z" fill="#E83A8D"/><line fill="none" stroke="#E83A8D" stroke-miterlimit="2.6131" stroke-width="1.5301" x1="131.091" x2="386.132" y1="194.798" y2="194.798"/><path d="M131.091,180.254h255.041H131.091z" fill="#E83A8D"/><line fill="none" stroke="#E83A8D" stroke-miterlimit="2.6131" stroke-width="1.5301" x1="131.091" x2="386.132" y1="180.254" y2="180.254"/><path d="M131.091,165.83h255.041H131.091z" fill="#E83A8D"/><line fill="none" stroke="#E83A8D" stroke-miterlimit="2.6131" stroke-width="1.5301" x1="131.091" x2="386.132" y1="165.83" y2="165.83"/><path d="M131.091,151.404h255.041H131.091z" fill="#E83A8D"/><line fill="none" stroke="#E83A8D" stroke-miterlimit="2.6131" stroke-width="1.5301" x1="131.091" x2="386.132" y1="151.404" y2="151.404"/><path d="M284.446,354.892v28.022h19.037l2.365-5.32c-3.43,0.119-5.912,0.235-9.46,0.235c-1.064,0-2.011,0-4.021,0    v-6.973h0.474c2.012,0,4.256,0.115,6.618,0.234l2.367-5.438c-1.183,0.117-1.419,0.117-3.075,0.117    c-2.954,0.117-3.665,0.117-6.384,0.117v-5.793h0.944c2.366,0,5.438,0.119,9.579,0.236l2.246-5.439L284.446,354.892    L284.446,354.892z M211.73,354.892l2.01,2.957l-10.76,25.065h7.803l1.775-4.256h11.115l1.771,4.256h8.16l-12.298-28.022H211.73    L211.73,354.892z M221.426,373.573h-6.74l3.311-8.04L221.426,373.573L221.426,373.573z M177.322,353.117h-7.921v29.797h19.154    l2.246-5.32c-2.483,0.119-5.675,0.235-9.104,0.235c-1.182,0-2.128,0-4.375,0V353.117L177.322,353.117z M266.002,356.31    c-3.074-1.418-5.794-2.009-8.514-2.009c-6.03,0-10.168,3.312-10.168,8.04c0,2.957,1.3,4.966,4.729,7.213l4.02,2.722    c1.893,1.299,2.603,2.244,2.603,3.664c0,1.773-1.656,2.837-4.139,2.837c-2.129,0-3.429-0.591-5.794-2.48l-2.128,4.963    c3.547,1.895,5.321,2.366,8.396,2.366c6.977,0,11.351-3.43,11.351-8.748c0-3.076-1.418-5.087-4.965-7.569l-4.14-2.956    c-1.773-1.183-2.246-1.773-2.246-2.719c0-1.537,1.183-2.482,3.191-2.482c1.775,0,3.312,0.591,5.676,2.129L266.002,356.31    L266.002,356.31z M322.638,354.892v28.022h7.921v-22.819h1.539h0.117c3.548,0,5.438,1.419,5.438,4.021    c0,2.72-2.247,4.491-5.794,4.491c-0.354,0-0.591,0-1.182-0.117l9.576,14.425h8.749l-7.923-11.586    c3.431-2.011,4.849-4.257,4.849-7.687c0-5.914-4.139-8.751-12.532-8.751H322.638L322.638,354.892z" fill="#FFFFFF"/></g></g></svg>