<?xml version="1.0" ?><!DOCTYPE svg  PUBLIC '-//W3C//DTD SVG 1.1//EN'  'http://www.w3.org/Graphics/SVG/1.1/DTD/svg11.dtd'><svg enable-background="new 0 0 512 512" height="512px" id="Layer_1" version="1.1" viewBox="0 0 512 512" width="512px" xml:space="preserve" xmlns="http://www.w3.org/2000/svg" xmlns:xlink="http://www.w3.org/1999/xlink"><g><g><path d="M481.874,102.698c13.854,0,25.126,11.271,25.126,25.126v257.899c0,13.854-11.271,25.126-25.126,25.126    H30.143c-13.854,0-25.126-11.271-25.126-25.126V127.824c0-13.854,11.271-25.126,25.126-25.126H481.874 M481.874,97.698H30.143    c-16.638,0-30.126,13.488-30.126,30.126v257.899c0,16.64,13.488,30.126,30.126,30.126h451.731    c16.64,0,30.126-13.486,30.126-30.126V127.824C512,111.186,498.513,97.698,481.874,97.698L481.874,97.698z" fill="#06326E"/></g><g><polygon fill="#F8CC15" points="41.17,323.204 256.22,376.843 471.002,323.232 471.017,143.118 41.171,143.118   "/><path clip-rule="evenodd" d="M81.004,294.783h40.155v-31.849    c8.576-0.022,17.146,0.075,25.727-0.068c1.279-0.046,2.567-0.028,3.835-0.211c5.199-0.334,10.38-1.251,14.836-2.735    c4.456-1.485,8.192-3.482,11.341-5.824c3.15-2.343,5.713-5.03,7.793-8.205c2.081-3.176,3.678-6.838,4.713-10.996    c1.036-4.157,1.507-8.807,1.377-13.314c-0.13-4.506-0.86-8.87-2.084-12.665c-1.224-3.795-2.94-7.023-5.191-9.872    c-2.251-2.849-5.037-5.319-8.353-7.354c-3.315-2.035-7.161-3.635-11.869-4.725c-4.709-1.09-10.28-1.576-15.826-1.576H81.004    V294.783z M121.159,210.453c6.349,0.132,12.661-0.458,19.048,0.553c1.371,0.234,2.714,0.632,3.901,1.149    c1.188,0.517,2.22,1.153,3.126,1.896c4.342,3.874,5.141,8.126,4.361,12.927c-0.446,2.097-1.288,4.082-3.122,5.977    c-0.81,0.826-1.779,1.575-2.912,2.229c-3.968,2.349-9.467,2.799-14.606,2.771h-9.796V210.453z" fill="#06326E" fill-rule="evenodd"/><path clip-rule="evenodd" d="M157.422,295.152h40.155v-31.849    c8.576-0.023,17.146,0.074,25.727-0.065c1.279-0.05,2.568-0.031,3.835-0.212c5.198-0.337,10.38-1.253,14.837-2.738    c4.457-1.483,8.191-3.483,11.341-5.824c3.149-2.343,5.713-5.029,7.794-8.204c2.079-3.176,3.678-6.839,4.713-10.996    c1.035-4.156,1.506-8.807,1.377-13.314c-0.129-4.506-0.862-8.871-2.083-12.666c-1.226-3.795-2.941-7.022-5.194-9.87    c-2.249-2.849-5.036-5.32-8.352-7.354c-3.314-2.036-7.16-3.636-11.868-4.726c-4.71-1.089-10.281-1.576-15.825-1.576h-66.456    V295.152z M197.577,210.821c6.349,0.132,12.662-0.458,19.048,0.553c1.371,0.234,2.714,0.633,3.902,1.149    c1.189,0.518,2.22,1.153,3.125,1.897c4.344,3.873,5.143,8.126,4.363,12.927c-0.447,2.096-1.287,4.082-3.124,5.977    c-0.808,0.825-1.778,1.574-2.911,2.229c-3.969,2.348-9.467,2.799-14.607,2.771h-9.796V210.821z" fill="#06326E" fill-rule="evenodd"/><path clip-rule="evenodd" d="M157.646,261.799c1.733-0.34,3.546-0.591,5.329-1.15    c3.945-0.982,7.71-2.661,11.017-4.654c3.306-1.992,6.136-4.37,8.488-7.174c2.352-2.804,4.226-6.033,5.596-9.71    c1.37-3.678,2.235-7.805,2.561-12.11c0.326-4.306,0.111-8.789-0.614-12.833c-0.727-4.042-1.965-7.645-3.665-10.801    c-1.699-3.156-3.858-5.867-6.514-8.231c-2.655-2.364-5.805-4.384-9.487-5.945c-3.837-1.627-8.259-2.692-12.71-3.227V261.799z" fill="#F8CC15" fill-rule="evenodd"/><path clip-rule="evenodd" d="M274.007,192.184h24.478c5.332,0,9.325,1.268,11.979,3.804    c1.328,1.268,2.325,2.804,2.987,4.608c0.666,1.804,0.997,3.877,0.997,6.218c0,4.811-1.448,8.571-4.341,11.28    c-1.447,1.354-3.274,2.37-5.481,3.048c-4.082,1.401-10.272,0.925-15.829,1.015v17.686h-14.79V192.184z M288.797,212.503h3.608    c2.84,0,4.834-0.493,5.981-1.479c1.318-1.149,1.71-2.418,1.725-3.787c0-1.496-0.499-2.763-1.496-3.803    c-0.499-0.521-1.215-0.911-2.154-1.171c-1.815-0.566-4.965-0.345-7.664-0.39V212.503z" fill="#06326E" fill-rule="evenodd"/><path clip-rule="evenodd" d="M314.765,215.168c0.477-2.211,1.165-3.949,2.063-5.218    c0.45-0.634,0.999-1.226,1.646-1.776c0.646-0.55,1.396-1.058,2.24-1.523c2.475-1.439,7.722-2.144,11.896-2.114    c3.965,0,7.152,0.222,9.559,0.667c1.203,0.222,2.305,0.564,3.307,1.027c1.003,0.464,1.904,1.047,2.707,1.752    c2.13,1.736,3.632,5.832,3.641,9.265v15.247c0.011,2.793,0.247,3.962,0.802,5.392c0.225,0.588,0.51,1.239,0.856,1.955h-12.418    c-0.949-1.706-1.025-2.121-1.203-2.93c-0.074-0.365-0.151-0.798-0.228-1.296c-1.726,1.661-3.45,2.858-5.169,3.576    c-2.576,1.043-5.299,1.426-8.16,1.43c-4.117,0-7.244-0.953-9.379-2.861c-1.067-0.953-1.867-2.018-2.4-3.194    c-0.535-1.175-0.801-2.462-0.801-3.859c0-1.312,0.191-2.507,0.577-3.584c0.385-1.078,0.961-2.04,1.729-2.886    c0.771-0.845,1.865-1.582,3.283-2.21c1.419-0.628,3.164-1.149,5.234-1.561c4.964-0.996,8.183-1.696,9.655-2.097    c1.531-0.417,3.092-0.949,4.683-1.576c0-1.626-0.336-2.764-1.008-3.415c-0.938-0.837-2.155-0.953-3.545-0.975    c-1.083,0-2.03,0.086-2.844,0.26c-1.338,0.343-2.218,0.571-3.179,1.95c-0.34,0.51-0.643,1.138-0.902,1.886L314.765,215.168z     M338.887,223.458c-1.871,0.668-3.768,1.237-5.689,1.723c-1.343,0.357-2.441,0.712-3.293,1.065    c-0.851,0.352-1.453,0.702-1.812,1.048c-0.795,0.776-1.102,1.59-1.104,2.438c0,1.041,0.363,1.892,1.09,2.553    c0.915,0.802,1.999,0.978,3.2,0.991c1.476,0,2.847-0.357,4.114-1.073c2.148-1.183,3.01-2.827,3.296-4.393    C338.956,226.593,338.869,224.968,338.887,223.458z" fill="#06326E" fill-rule="evenodd"/><path clip-rule="evenodd" d="M352.007,205.318h13.96l7.122,22.983l6.612-22.983h13.038    l-13.698,36.889c-0.779,2.104-1.566,3.866-2.363,5.286c-0.797,1.421-1.599,2.5-2.413,3.237c-1.148,1.042-2.596,1.822-4.346,2.343    c-1.75,0.519-3.8,0.78-6.148,0.78c-0.954,0-2.168-0.063-3.641-0.196c-1.474-0.128-3.206-0.325-5.199-0.584l-1.04-9.233    c2.044,0.648,4.165,0.909,6.366,0.91c1.561,0,2.821-0.357,3.784-1.073c0.482-0.358,0.928-0.857,1.336-1.498    s0.78-1.421,1.116-2.344L352.007,205.318z" fill="#06326E" fill-rule="evenodd"/><path clip-rule="evenodd" d="M274.007,247.804h24.478c5.332,0,9.325,1.268,11.979,3.803    c1.328,1.268,2.325,2.803,2.987,4.608c0.666,1.804,0.997,3.876,0.997,6.218c0,4.811-1.448,8.572-4.341,11.28    c-1.447,1.354-3.274,2.37-5.481,3.047c-4.082,1.402-10.272,0.925-15.829,1.017v17.685h-14.79V247.804z M288.797,268.119h3.608    c2.84,0,4.834-0.49,5.981-1.478c1.318-1.148,1.71-2.419,1.725-3.786c0-1.496-0.499-2.765-1.496-3.803    c-0.499-0.521-1.215-0.912-2.154-1.172c-1.815-0.567-4.965-0.346-7.664-0.391V268.119z" fill="#06326E" fill-rule="evenodd"/><path clip-rule="evenodd" d="M319.729,265.276c1.777-1.707,3.867-2.986,6.268-3.84    s5.11-1.28,8.136-1.28c3.456,0,6.49,0.5,9.101,1.503c2.612,1.005,4.803,2.507,6.567,4.511c1.42,1.616,2.485,3.418,3.194,5.404    c0.71,1.99,1.064,4.166,1.064,6.527c0,5.311-1.76,9.661-5.282,13.054c-1.761,1.696-3.859,2.966-6.295,3.814    c-2.436,0.848-5.208,1.273-8.318,1.273c-2.773,0-5.282-0.354-7.526-1.057c-2.242-0.705-4.221-1.762-5.932-3.172    c-2.104-1.744-3.68-3.761-4.729-6.044c-1.052-2.288-1.577-4.846-1.577-7.676C314.398,273.031,316.175,268.691,319.729,265.276z     M329.531,285.09c1.436,1.677,3.009,2.196,4.696,2.211c1.907,0,3.475-0.726,4.698-2.179c0.613-0.725,1.071-1.67,1.377-2.835    s0.46-2.55,0.46-4.154c0-2.989-0.618-5.217-1.852-6.678c-1.412-1.653-2.945-2.184-4.585-2.196c-1.929,0-3.521,0.743-4.778,2.228    c-0.629,0.742-1.101,1.679-1.416,2.806c-0.313,1.132-0.471,2.456-0.471,3.972C327.661,281.342,328.284,283.617,329.531,285.09z" fill="#06326E" fill-rule="evenodd"/><path clip-rule="evenodd" d="M379.742,260.937h12.321v5.624    c1.842-2.299,3.707-3.94,5.591-4.925c2.136-1.104,4.439-1.473,6.892-1.479c3.664,0,6.529,1.089,8.6,3.267    c1.034,1.091,1.81,2.477,2.329,4.157c0.519,1.682,0.774,3.664,0.774,5.939v21.941h-13.296v-18.984c0-2.167-0.4-3.7-1.202-4.6    c-0.986-1.073-2.126-1.334-3.38-1.351c-1.605,0-2.904,0.609-3.902,1.822c-0.498,0.605-0.872,1.453-1.12,2.544    c-0.251,1.087-0.374,2.418-0.374,3.988v16.58h-13.232V260.937z" fill="#06326E" fill-rule="evenodd"/><path clip-rule="evenodd" d="M438.682,247.804v13.133h7.283v9.688h-7.283v12.23    c0,0.737,0.036,1.349,0.106,1.834c0.07,0.488,0.177,0.851,0.317,1.088c1.245,1.612,2.496,1.099,4.03,0.891    c0.683-0.141,1.463-0.352,2.342-0.631l0.973,9.134c-3.122,0.682-6.177,1.069-9.166,1.073c-3.294,0-5.721-0.423-7.281-1.269    c-1.562-0.845-2.715-2.127-3.463-3.848c-0.375-0.859-0.654-1.988-0.841-3.381c-0.188-1.394-0.28-3.052-0.28-4.979v-12.144h-4.877    v-9.688h4.877v-6.339L438.682,247.804z" fill="#06326E" fill-rule="evenodd"/><rect clip-rule="evenodd" fill="#06326E" fill-rule="evenodd" height="34.524" width="13.231" x="359.489" y="260.937"/></g></g></svg>