<?xml version="1.0" ?><!DOCTYPE svg  PUBLIC '-//W3C//DTD SVG 1.1//EN'  'http://www.w3.org/Graphics/SVG/1.1/DTD/svg11.dtd'><svg enable-background="new 0 0 512 512" height="512px" id="Layer_1" version="1.1" viewBox="0 0 512 512" width="512px" xml:space="preserve" xmlns="http://www.w3.org/2000/svg" xmlns:xlink="http://www.w3.org/1999/xlink"><g><g><path d="M481.874,102.698c13.854,0,25.126,11.271,25.126,25.126v257.899c0,13.854-11.271,25.126-25.126,25.126    H30.143c-13.854,0-25.126-11.271-25.126-25.126V127.824c0-13.854,11.271-25.126,25.126-25.126H481.874 M481.874,97.698H30.143    c-16.638,0-30.126,13.488-30.126,30.126v257.899c0,16.64,13.488,30.126,30.126,30.126h451.731    c16.64,0,30.126-13.486,30.126-30.126V127.824C512,111.186,498.513,97.698,481.874,97.698L481.874,97.698z" fill="#862165"/></g><g><g><path d="M381.904,169.282l35.68-6.385V299.91h-35.68V169.282z M434.019,169.282V299.91h35.717V162.897     L434.019,169.282z M331.066,299.91h35.708V199.695h-35.708V299.91z M95.108,213.867c-4.513-0.294-14.962-0.969-14.962-10.376     c0-11.348,15.042-11.348,20.685-11.348c9.92,0,22.767,2.928,31.943,5.673c0,0,5.118,1.804,9.473,3.652l0.405,0.11v-0.413v-30.674     l-0.554-0.164c-10.829-3.787-23.42-7.431-46.763-7.431c-40.249,0-54.51,23.445-54.51,43.531c0,11.58,4.962,38.832,51.058,41.976     c3.907,0.239,14.276,0.838,14.276,10.557c0,8.025-8.489,12.757-22.768,12.757c-15.648,0-30.832-3.99-40.05-7.774v32.013     c13.805,3.618,29.362,5.427,47.601,5.427c39.353,0,56.98-22.184,56.98-44.171C147.921,232.283,128.195,216.083,95.108,213.867z      M310.94,198.228c-32.999,1.061-49.753,15.865-49.753,45.297v56.386h36.006v-45.982c0-17.621,2.307-25.178,23.218-25.897v-29.285     C316.892,197.997,310.94,198.228,310.94,198.228z M214.082,199.581c-0.795,1.998-6.512,18.146-20.339,34.884v-71.568     l-36.844,7.281V299.91h36.844V259.81c10.671,16,15.938,40.101,15.938,40.101h44.133c-4.363-18.149-23.463-51.612-23.463-51.612     c17.143-21.728,24.666-44.879,25.863-48.718H214.082z M348.911,190.082c9.727,0,17.604-7.875,17.604-17.592     c0-9.718-7.877-17.604-17.604-17.604c-9.71,0-17.588,7.886-17.588,17.604C331.323,182.207,339.201,190.082,348.911,190.082z" fill="#862165"/><g><path d="M81.685,367.302v-21.159c0-2.412-0.896-4.061-3.308-4.061c-1.861,0-3.653,1.163-5.513,2.956v22.264H62.455v-21.159      c0-2.412-0.894-4.061-3.308-4.061c-1.927,0-3.649,1.163-5.512,2.956v22.264H43.228v-33.772h9.168l0.757,4.616      c3.032-3.098,6.133-5.303,10.477-5.303c4.614,0,7.165,2.273,8.403,5.303c3.037-3.029,6.343-5.303,10.546-5.303      c6.269,0,9.579,3.93,9.579,10.474v23.985H81.685z"/><path d="M113.58,367.987c-9.303,0-16.126-6.684-16.126-17.502c0-10.819,6.892-17.643,16.194-17.643      c9.372,0,16.266,6.753,16.266,17.572C129.915,361.231,122.951,367.987,113.58,367.987z M113.648,341.387      c-3.996,0-6.131,3.513-6.131,9.028c0,5.444,2.202,9.165,6.131,9.165c3.998,0,6.205-3.654,6.205-9.095      C119.854,345.038,117.646,341.387,113.648,341.387z"/><path d="M154.992,367.302v-21.159c0-2.412-0.967-4.061-3.445-4.061c-2,0-3.862,1.163-5.721,3.022v22.197h-10.409v-33.772h9.167      l0.758,4.616c3.035-2.958,6.273-5.303,10.547-5.303c6.271,0,9.58,3.93,9.58,10.474v23.985H154.992z"/><path d="M201.434,353.03h-20.262c0.551,5.308,3.721,7.375,8.271,7.375c3.721,0,7.373-1.377,11.094-3.509l1.036,7.304      c-3.652,2.337-8.133,3.787-13.439,3.787c-10.129,0-17.369-5.374-17.369-17.434c0-11.024,6.757-17.711,15.918-17.711      c10.34,0,14.956,7.719,14.956,17.503C201.638,351.378,201.572,352.482,201.434,353.03z M186.409,339.596      c-2.896,0-4.961,2.55-5.308,7.718h10.614C191.369,342.213,189.581,339.596,186.409,339.596z"/><path d="M225.394,367.987c-3.031,8.822-7.167,11.854-14.54,11.854c-2.071,0-2.962-0.206-3.927-0.41l-1.31-8.341      c1.102,0.343,2.135,0.551,4.135,0.551c2.342,0,4.413-0.895,5.513-3.241l0.415-1.029l-12.27-33.014l11.162-1.315l6.551,21.303      l6.2-20.814h10.062L225.394,367.987z"/><path d="M255.987,367.709c-5.445,0-10.548-0.892-14.475-2.408v-46.107l10.403-1.652v19.707c2.138-2.2,5.034-4.405,9.032-4.405      c6.887,0,12.127,5.235,12.127,16.674C273.075,362.063,266.392,367.709,255.987,367.709z M257.64,342.146      c-2.201,0-3.997,1.303-5.724,3.242v13.366c1.38,0.417,2.207,0.623,3.79,0.623c4.066,0,6.962-2.48,6.962-9.17      C262.668,344.554,260.604,342.146,257.64,342.146z"/><path d="M293.261,367.987c-9.305,0-16.126-6.684-16.126-17.502c0-10.819,6.895-17.643,16.194-17.643      c9.375,0,16.265,6.753,16.265,17.572C309.594,361.231,302.634,367.987,293.261,367.987z M293.329,341.387      c-3.994,0-6.133,3.513-6.133,9.028c0,5.444,2.201,9.165,6.133,9.165c3.998,0,6.205-3.654,6.205-9.095      C299.534,345.038,297.327,341.387,293.329,341.387z"/><path d="M329.573,367.987c-9.301,0-16.127-6.684-16.127-17.502c0-10.819,6.892-17.643,16.201-17.643      c9.365,0,16.257,6.753,16.257,17.572C345.904,361.231,338.943,367.987,329.573,367.987z M329.647,341.387      c-4.002,0-6.137,3.513-6.137,9.028c0,5.444,2.207,9.165,6.137,9.165c3.991,0,6.196-3.654,6.196-9.095      C335.844,345.038,333.639,341.387,329.647,341.387z"/><path d="M371.604,367.783l-9.786-16.194v15.713h-10.404v-48.108l10.404-1.652v29.842l9.024-13.854h11.165l-10.613,15.37      l11.032,17.367L371.604,367.783z"/><path d="M413.844,353.03h-20.266c0.555,5.308,3.727,7.375,8.266,7.375c3.729,0,7.379-1.377,11.104-3.509l1.025,7.304      c-3.646,2.337-8.13,3.787-13.43,3.787c-10.135,0-17.37-5.374-17.37-17.434c0-11.024,6.755-17.711,15.918-17.711      c10.343,0,14.957,7.719,14.957,17.503C414.049,351.378,413.974,352.482,413.844,353.03z M398.819,339.596      c-2.897,0-4.961,2.55-5.31,7.718h10.611C403.776,342.213,401.986,339.596,398.819,339.596z"/><path d="M430.025,348.558v18.744h-10.404v-33.772h9.099l1.103,6.681c2.064-3.852,4.889-7.022,9.854-7.367l1.729,10.605      C436.369,343.799,432.579,345.8,430.025,348.558z"/><path d="M457.784,367.852c-5.373,0-10.398-1.514-13.919-3.38l1.241-7.925c4.004,2.481,8.892,3.999,12.755,3.999      c2.896,0,4.268-0.966,4.268-2.553c0-1.722-0.962-2.475-5.722-3.649c-8.471-2.205-12.059-4.479-12.059-10.821      c0-6.274,4.689-10.481,12.953-10.481c4.553,0,8.961,0.904,12.473,2.487l-1.301,7.92c-3.656-1.994-7.86-3.163-11.101-3.163      c-2.48,0-3.583,0.895-3.583,2.206c0,1.381,0.962,2.132,5.725,3.443c8.959,2.413,12.128,4.687,12.128,10.962      C471.643,363.985,466.745,367.852,457.784,367.852z"/></g></g></g></g></svg>