<?xml version="1.0" ?><!DOCTYPE svg  PUBLIC '-//W3C//DTD SVG 1.1//EN'  'http://www.w3.org/Graphics/SVG/1.1/DTD/svg11.dtd'><svg enable-background="new 0 0 512 512" height="512px" id="Layer_1" version="1.1" viewBox="0 0 512 512" width="512px" xml:space="preserve" xmlns="http://www.w3.org/2000/svg" xmlns:xlink="http://www.w3.org/1999/xlink"><g><g><path d="M481.874,102.698c13.854,0,25.126,11.271,25.126,25.126v257.899c0,13.854-11.271,25.126-25.126,25.126    H30.143c-13.854,0-25.126-11.271-25.126-25.126V127.824c0-13.854,11.271-25.126,25.126-25.126H481.874 M481.874,97.698H30.143    c-16.638,0-30.126,13.488-30.126,30.126v257.899c0,16.64,13.488,30.126,30.126,30.126h451.731    c16.64,0,30.126-13.486,30.126-30.126V127.824C512,111.186,498.513,97.698,481.874,97.698L481.874,97.698z" fill="#009644"/></g><g><rect fill="#FFFFFF" height="36.584" width="171.857" x="173.383" y="326.583"/><path clip-rule="evenodd" d="M369.411,323.879l-0.014-185.112l0,0    c0-1.923-0.385-3.846-1.119-5.623c-0.735-1.777-1.825-3.406-3.186-4.767c-1.359-1.36-2.991-2.45-4.768-3.185    c-1.777-0.735-3.701-1.119-5.623-1.119l0,0H164.446l0,0c-1.54,0-3.078,0.244-4.542,0.72c-1.463,0.475-2.851,1.182-4.096,2.087    c-1.245,0.904-2.347,2.005-3.251,3.25c-0.905,1.244-1.612,2.632-2.088,4.094c-0.475,1.464-0.719,3.003-0.719,4.542l0,0v185.112    H369.411L369.411,323.879z" fill="#009644" fill-rule="evenodd"/><path clip-rule="evenodd" d="M231.266,206.077c-1.306,6.515-1.537,13.244-0.686,19.833    c0.853,6.589,2.788,13.039,5.71,19.005c2.92,5.967,6.827,11.45,11.498,16.174l0,0l14.738-14.804l0,0    c-3.125-3.108-5.737-6.736-7.684-10.693c-1.945-3.955-3.226-8.239-3.77-12.615c-0.545-4.375-0.354-8.842,0.56-13.155    c0.913-4.313,2.551-8.475,4.818-12.262c2.265-3.787,5.162-7.201,8.809-10.17c3.647-2.968,8.047-5.49,12.759-7.118    c4.714-1.628,9.739-2.364,14.731-2.174c4.992,0.189,9.947,1.303,14.538,3.273c4.588,1.969,8.809,4.795,12.394,8.272l0,0    l14.628-14.68l0,0c-5.418-5.419-11.854-9.828-18.878-12.891c-7.022-3.062-14.636-4.777-22.297-5.034    c-7.66-0.257-15.37,0.944-22.558,3.552c-7.189,2.608-13.857,6.623-19.313,11.252c-5.455,4.629-9.7,9.873-13.011,15.645    C234.944,193.26,232.566,199.562,231.266,206.077L231.266,206.077z" fill="#1D1D1B" fill-rule="evenodd"/><path clip-rule="evenodd" d="M222.549,270.122c4.217,1.939,8.766,3.155,13.387,3.582    c4.622,0.423,9.314,0.054,13.815-1.07c3.468-0.874,6.817-2.218,9.921-3.996c3.102-1.774,5.961-3.979,8.479-6.524    c2.519-2.544,4.695-5.431,6.537-8.922c1.844-3.492,3.353-7.59,4.159-11.826c0.809-4.236,0.916-8.61,0.341-12.891    c-0.576-4.282-1.84-8.47-3.728-12.355c-1.888-3.886-4.401-7.467-7.403-10.571l0,0l14.641-14.68l0,0    c5.303,5.312,9.626,11.608,12.653,18.478c3.026,6.869,4.754,14.312,5.064,21.811c0.31,7.5-0.798,15.057-3.217,22.162    c-1.983,5.762-4.823,11.231-8.41,16.159c-3.585,4.93-7.913,9.319-12.792,12.969c-4.881,3.654-10.312,6.567-16.047,8.629    c-7.195,2.561-14.875,3.778-22.509,3.542c-7.636-0.238-15.226-1.933-22.234-4.966c-7.011-3.032-13.44-7.403-18.862-12.781l0,0    l14.766-14.567l0,0C214.45,265.523,218.334,268.184,222.549,270.122L222.549,270.122z" fill="#FFFFFF" fill-rule="evenodd"/><path clip-rule="evenodd" d="M149.75,323.879v54.214l0,0c0,1.902-0.042,3.833,0.619,5.622    c0.662,1.784,1.78,3.412,3.153,4.769c1.375,1.36,3.004,2.449,4.781,3.185c1.777,0.733,3.701,1.117,5.625,1.117l0,0h190.253l0,0    c1.924,0,3.849-0.384,5.626-1.117c1.777-0.735,3.407-1.824,4.755-3.19c1.347-1.36,2.411-2.997,3.22-4.769    c0.81-1.77,1.629-3.656,1.629-5.616l0,0v-54.214H149.75L149.75,323.879L149.75,323.879z M205.679,338.388l-3.789,0.123l0,0    c0.257-1.26,0.353-2.576-0.989-3.648c-1.525-1.086-2.993-1.1-4.438-1.015c-0.886,0.069-1.898,0.329-2.591,0.598    c-0.329,0.128-0.544,0.24-0.747,0.37c-0.202,0.133-0.391,0.285-0.565,0.454c-1.107,1.135-1.077,2.28-0.444,3.205    c0.306,0.368,0.63,0.522,0.943,0.607l0,0l6.881,1.81l0,0c1.006,0.297,2.164,0.803,2.948,1.728    c0.334,0.393,0.598,0.849,0.771,1.336c0.456,1.307,0.257,2.61-0.197,3.816c-0.415,1.065-1.342,2.345-2.405,3.309    c-0.363,0.336-0.749,0.644-1.253,0.974c-0.503,0.332-1.125,0.688-1.773,0.989c-2.076,0.962-4.154,1.211-6.051,1.197    c-1.261-0.007-2.652-0.144-3.739-0.374c-0.53-0.112-0.952-0.246-1.353-0.426c-0.403-0.176-0.784-0.4-1.136-0.666    c-0.351-0.263-0.672-0.565-0.935-0.858c-1.641-1.935-1.933-4.145-1.271-6.024l0,0l4.346-0.458l0,0    c-0.062,0.291-0.107,0.591-0.135,0.89c-0.062,1.149-0.143,2.337,0.804,3.385c0.522,0.509,0.906,0.746,1.551,0.973    c0.261,0.084,0.603,0.178,0.95,0.243c1.067,0.21,2.137,0.16,3.206-0.033c1.407-0.312,2.844-0.696,4.156-2.059    c0.909-1.197,1.251-2.421,0.585-3.469c-0.437-0.629-0.772-0.719-1.157-0.836l0,0l-5.837-1.391l0,0    c-1.218-0.345-2.438-0.547-3.523-1.601c-0.28-0.268-0.529-0.569-0.74-0.896c-0.339-0.535-0.574-1.141-0.685-1.768    c-0.222-1.258,0.068-2.532,0.836-3.676c0.379-0.571,0.867-1.133,1.411-1.637c0.543-0.497,1.143-0.936,1.783-1.3    c0.641-0.366,1.323-0.657,2.153-0.904c0.828-0.249,1.802-0.452,2.785-0.556c1.971-0.205,3.982,0.008,5.87,0.608    c0.614,0.181,1.197,0.473,1.708,0.858c0.512,0.385,0.953,0.865,1.296,1.407c0.342,0.542,0.585,1.144,0.715,1.771    C205.848,336.434,205.86,337.426,205.679,338.388L205.679,338.388L205.679,338.388L205.679,338.388z M229.066,353.818    l-1.505-16.491l-10.348,16.491h-3.692l-1.296-22.438h4.027l0.766,15.876l10.128-15.876h3.788l1.379,16.224l9.891-16.224h4.374    l-13.875,22.438H229.066L229.066,353.818L229.066,353.818z M250.353,353.818h-4.277l6.213-22.409h4.068L250.353,353.818    L250.353,353.818L250.353,353.818z M280.411,334.919h-7.228l-5.058,18.912h-4.207l5.084-18.912h-7.438l1.004-3.51l18.791,0.014    L280.411,334.919L280.411,334.919L280.411,334.919z M306.671,338.413l-3.927,0.501l0,0c-0.14-1.285-0.413-2.645-1.791-3.771    c-0.232-0.175-0.483-0.324-0.783-0.465c-0.299-0.139-0.647-0.271-1.002-0.379c-0.355-0.107-0.719-0.19-1.085-0.251    c-2.362-0.337-4.703,0.085-6.8,1.431c-0.598,0.385-1.151,0.834-1.651,1.34c-0.498,0.504-0.942,1.065-1.32,1.664    c-0.849,1.255-1.466,2.552-1.896,3.842c-0.417,1.275-0.688,2.487-0.672,3.471c0.007,0.918,0.204,1.852,0.591,2.716    c0.293,0.611,0.74,1.212,1.424,1.706c0.306,0.217,0.639,0.395,1.018,0.548c0.379,0.159,0.807,0.292,1.241,0.386    c1.829,0.417,3.869,0.074,5.607-0.677c0.967-0.411,2.054-1.126,3.118-2.071c0.551-0.493,1.059-1.038,1.521-1.618    c0.458-0.583,0.869-1.202,1.227-1.852l0,0l3.816,0.583l0,0c-0.502,1.01-1.109,1.965-1.809,2.847    c-0.702,0.881-1.494,1.688-2.359,2.409c-0.866,0.722-1.806,1.354-2.917,1.914c-1.109,0.56-2.39,1.043-3.711,1.348    c-1.323,0.304-2.69,0.425-4.044,0.353c-1.355-0.068-2.695-0.334-3.613-0.588c-0.916-0.254-1.408-0.5-1.867-0.798    c-0.459-0.297-0.884-0.643-1.262-1.031c-0.379-0.394-0.71-0.829-1.016-1.351c-0.306-0.525-0.584-1.14-0.788-1.775    c-0.432-1.315-0.496-2.678-0.354-3.959c0.361-3.026,1.487-6.144,4.073-9.043c0.463-0.511,0.96-0.997,1.518-1.461    c0.561-0.467,1.183-0.915,1.84-1.308c2.187-1.31,4.364-1.841,6.475-2.051c1.478-0.146,3.1-0.075,4.395,0.133    c0.641,0.103,1.166,0.232,1.677,0.408c0.509,0.176,1.004,0.399,1.475,0.665c0.893,0.491,1.864,1.247,2.637,2.412    c0.36,0.553,0.631,1.166,0.805,1.804C306.627,337.084,306.7,337.75,306.671,338.413L306.671,338.413L306.671,338.413    L306.671,338.413z M330.171,353.831h-4.221l2.827-9.987l-12.579-0.013l-2.701,10h-4.207l6.045-22.408h4.25l-2.34,8.939h12.507    l2.451-8.939h3.943L330.171,353.831L330.171,353.831L330.171,353.831z" fill="#1D1D1B" fill-rule="evenodd"/></g></g></svg>