<?xml version="1.0" ?><!DOCTYPE svg  PUBLIC '-//W3C//DTD SVG 1.1//EN'  'http://www.w3.org/Graphics/SVG/1.1/DTD/svg11.dtd'><svg enable-background="new 0 0 512 512" height="512px" id="Layer_1" version="1.1" viewBox="0 0 512 512" width="512px" xml:space="preserve" xmlns="http://www.w3.org/2000/svg" xmlns:xlink="http://www.w3.org/1999/xlink"><g><g><path d="M482.722,103.198c13.854,0,25.126,11.271,25.126,25.126v257.9c0,13.854-11.271,25.126-25.126,25.126H30.99    c-13.854,0-25.126-11.271-25.126-25.126v-257.9c0-13.854,11.271-25.126,25.126-25.126H482.722 M482.722,98.198H30.99    c-16.638,0-30.126,13.488-30.126,30.126v257.9c0,16.639,13.488,30.126,30.126,30.126h451.732    c16.639,0,30.126-13.487,30.126-30.126v-257.9C512.848,111.686,499.36,98.198,482.722,98.198L482.722,98.198z" fill="#E30613"/></g><g><path d="M234.317,142.333h-82.923l82.431,0.023C233.991,142.344,234.155,142.333,234.317,142.333z" fill="none"/><path d="M77.176,359.685v15.667h17.546C84.865,375.202,78.007,368.664,77.176,359.685z" fill="none"/><path d="M334.087,142.379l-35.919-0.012l35.713,0.022C333.95,142.39,334.018,142.379,334.087,142.379z" fill="#DB383C"/><path d="M160.592,352.826l42.491-187.957c2.798-12.295,18.367-22.261,30.742-22.514l-82.431-0.023    c-12.444,0-28.396,10.081-31.241,22.537L77.663,352.826c-0.258,1.146-0.402,2.271-0.487,3.371v3.487    c0.832,8.979,7.689,15.518,17.546,15.667h82.929C165.409,375.165,157.783,365.144,160.592,352.826z" fill="#E20613"/><path d="M298.168,142.367l-63.851-0.035c-0.162,0-0.326,0.012-0.492,0.023L298.168,142.367z" fill="#2C4F7A"/><path d="M260.896,352.826l42.479-187.957c2.799-12.203,18.168-22.101,30.507-22.479l-35.713-0.022l-64.343-0.012    c-12.375,0.252-27.944,10.218-30.742,22.514l-42.491,187.957c-2.81,12.317,4.817,22.339,17.059,22.525h100.31    C265.713,375.165,258.098,365.144,260.896,352.826z" fill="#0069B3"/><path d="M423.932,142.401l-89.821-0.022c-0.011,0-0.023,0-0.023,0c-0.069,0-0.137,0.011-0.206,0.011    c-12.339,0.379-27.708,10.277-30.507,22.479l-42.479,187.957c-2.798,12.317,4.817,22.339,17.065,22.525h12.146h55.645h26.572    c12.064-0.597,23.787-10.38,26.538-22.446l42.481-187.957C444.185,152.506,436.387,142.401,423.932,142.401z" fill="#00919D"/><path d="M235.562,279.312h1.56c1.435,0,2.397-0.482,2.851-1.434l4.053-6.066h10.855l-2.264,3.99h13.017    l-1.652,6.114h-15.487c-1.784,2.684-3.98,3.944-6.618,3.795h-8.067L235.562,279.312 M233.778,288.075h28.517l-1.817,6.641h-11.469    l-1.75,6.409h11.159l-1.817,6.642h-11.159l-2.593,9.472c-0.641,1.585,0.202,2.296,2.52,2.134h9.094l-1.686,6.171h-17.461    c-3.31,0-4.445-1.893-3.406-5.689l3.314-12.087h-7.133l1.812-6.642h7.132l1.75-6.409h-6.818L233.778,288.075z M279.291,271.768    l-0.447,3.889c0,0,5.378-4.04,10.264-4.04h18.053l-6.905,24.989c-0.572,2.857-3.027,4.278-7.362,4.278h-20.461l-4.793,17.549    c-0.275,0.939,0.115,1.421,1.146,1.421h4.026l-1.479,5.448h-10.236c-3.929,0-5.562-1.181-4.914-3.555l13.543-49.979H279.291z     M294.579,278.83h-16.112l-1.928,6.744c0,0,2.683-1.938,7.167-2.007c4.474-0.069,9.578,0,9.578,0L294.579,278.83z     M288.741,294.474c1.19,0.162,1.858-0.309,1.938-1.422l0.986-3.556h-16.138l-1.353,4.978H288.741z M277.856,302.548h9.303    l-0.173,4.024h2.477c1.25,0,1.87-0.4,1.87-1.192l0.734-2.603h7.73l-1.032,3.795c-0.872,3.166-3.188,4.817-6.951,4.979h-4.954    l-0.021,6.881c-0.093,1.102,0.905,1.663,2.957,1.663h4.656l-1.502,5.447h-11.171c-3.13,0.149-4.667-1.343-4.633-4.509    L277.856,302.548z" fill="#FFFFFF"/><path d="M317.39,279.589l2.156-7.593h10.906l-0.469,2.785c0,0,5.572-2.785,9.586-2.785c4.015,0,13.486,0,13.486,0    l-2.144,7.593h-2.123l-10.173,35.804h2.123l-2.019,7.111h-2.122l-0.883,3.084h-10.562l0.883-3.084h-20.838l2.03-7.111h2.088    l10.184-35.804H317.39 M329.156,279.589l-2.774,9.689c0,0,4.747-1.823,8.842-2.339c0.906-3.384,2.088-7.351,2.088-7.351H329.156z     M325.096,293.821l-2.787,10.149c0,0,5.264-2.592,8.878-2.811c1.043-3.922,2.087-7.339,2.087-7.339H325.096z M327.138,315.393    l2.087-7.363h-8.141l-2.1,7.363H327.138z M353.517,271.525h10.252l0.435,3.784c-0.068,0.962,0.506,1.422,1.721,1.422h1.812    l-1.835,6.411h-7.535c-2.878,0.149-4.357-0.95-4.496-3.326L353.517,271.525z M350.511,285.277h33.213l-1.949,6.881H371.2    l-1.812,6.399h10.562l-1.962,6.868h-11.765l-2.661,4.027h5.757l1.33,8.062c0.16,0.802,0.871,1.193,2.087,1.193h1.789l-1.881,6.638    h-6.328c-3.281,0.163-4.978-0.94-5.117-3.312l-1.525-7.362l-5.241,7.833c-1.239,2.212-3.142,3.245-5.711,3.084h-9.668l1.881-6.641    h3.018c1.237,0,2.27-0.549,3.198-1.661l8.2-11.86h-10.573l1.96-6.868h11.47l1.822-6.399h-11.479L350.511,285.277z" fill="#FFFFFF"/><path d="M165.145,238.473c-1.261,6.182-4.186,10.93-8.722,14.302c-4.495,3.314-10.293,4.977-17.392,4.977    c-6.68,0-11.578-1.697-14.703-5.104c-2.168-2.42-3.246-5.493-3.246-9.209c0-1.536,0.184-3.188,0.55-4.965l7.564-36.469h11.422    l-7.46,36.056c-0.229,0.999-0.321,1.927-0.309,2.765c-0.012,1.846,0.447,3.359,1.376,4.541c1.353,1.755,3.549,2.626,6.605,2.626    c3.515,0,6.412-0.86,8.659-2.592c2.248-1.721,3.716-4.163,4.375-7.34l7.484-36.056h11.364L165.145,238.473" fill="#FFFFFF"/><path d="M175.667,224.115h8.068l-0.923,4.703l1.158-1.342c2.615-2.798,5.792-4.187,9.542-4.187    c3.395,0,5.842,0.987,7.38,2.971c1.514,1.984,1.926,4.725,1.21,8.246l-4.445,22.181h-8.292l4.014-20.104    c0.413-2.076,0.299-3.625-0.338-4.622c-0.63-0.998-1.835-1.491-3.572-1.491c-2.133,0-3.927,0.665-5.39,1.984    c-1.468,1.331-2.437,3.177-2.914,5.528l-3.698,18.705h-8.309L175.667,224.115" fill="#FFFFFF"/><path d="M268.189,224.115h8.074l-0.917,4.703l1.145-1.342c2.616-2.798,5.807-4.187,9.544-4.187    c3.394,0,5.848,0.987,7.372,2.971c1.504,1.984,1.94,4.725,1.205,8.246l-4.426,22.181h-8.303l4.014-20.104    c0.413-2.076,0.297-3.625-0.333-4.622c-0.653-0.998-1.836-1.491-3.566-1.491c-2.135,0-3.922,0.665-5.402,1.984    c-1.467,1.331-2.442,3.177-2.899,5.528l-3.717,18.705h-8.299L268.189,224.115" fill="#FFFFFF"/><path d="M213.117,224.126h8.946l-7.008,32.547h-8.929L213.117,224.126 M215.933,212.268h9.026l-1.686,7.902h-9.026    L215.933,212.268z" fill="#FFFFFF"/><path d="M229.982,254.195c-2.34-2.236-3.521-5.251-3.533-9.082c0-0.654,0.04-1.399,0.128-2.213    c0.084-0.826,0.193-1.629,0.349-2.375c1.062-5.287,3.319-9.484,6.802-12.581c3.475-3.108,7.666-4.667,12.574-4.667    c4.02,0,7.208,1.124,9.541,3.371c2.335,2.26,3.506,5.31,3.506,9.187c0,0.664-0.054,1.433-0.139,2.259    c-0.102,0.837-0.228,1.641-0.372,2.431c-1.038,5.208-3.292,9.359-6.772,12.398c-3.481,3.062-7.662,4.587-12.535,4.587    C235.493,257.511,232.315,256.41,229.982,254.195 M247.03,247.752c1.578-1.709,2.707-4.302,3.395-7.753    c0.104-0.539,0.195-1.1,0.252-1.663c0.058-0.551,0.08-1.067,0.08-1.537c0-2.006-0.51-3.565-1.536-4.667    c-1.021-1.112-2.472-1.663-4.347-1.663c-2.478,0-4.495,0.871-6.078,2.614c-1.594,1.744-2.725,4.382-3.436,7.891    c-0.098,0.539-0.178,1.079-0.251,1.606c-0.058,0.539-0.075,1.043-0.064,1.502c0,1.995,0.511,3.533,1.538,4.622    c1.02,1.09,2.465,1.629,4.363,1.629C243.435,250.332,245.454,249.472,247.03,247.752" fill="#FFFFFF"/><path d="M308.101,203.93h23.441c4.508,0,7.992,1.021,10.391,3.027c2.386,2.031,3.578,4.944,3.578,8.739v0.115    c0,0.722-0.047,1.537-0.116,2.42c-0.113,0.871-0.263,1.755-0.458,2.672c-1.031,5.023-3.43,9.06-7.134,12.122    c-3.716,3.051-8.118,4.587-13.188,4.587h-12.569l-3.889,19.072h-10.884L308.101,203.93 M313.961,228.439h10.423    c2.718,0,4.876-0.632,6.447-1.881c1.558-1.262,2.592-3.188,3.165-5.803c0.091-0.481,0.149-0.917,0.218-1.319    c0.035-0.378,0.079-0.756,0.079-1.123c0-1.87-0.663-3.223-1.994-4.072c-1.331-0.861-3.418-1.272-6.308-1.272h-8.854    L313.961,228.439z" fill="#FFFFFF"/><path d="M394.229,262.983c-3.441,7.314-6.72,11.581-8.647,13.565c-1.927,1.962-5.745,6.526-14.943,6.181    l0.791-5.584c7.741-2.384,11.928-13.133,14.313-17.892l-2.845-35.048l5.987-0.079h5.022l0.538,21.984l9.416-21.984h9.53    L394.229,262.983" fill="#FFFFFF"/><path d="M367.577,226.775l-3.786,2.604c-3.956-3.097-7.569-5.012-14.542-1.778    c-9.496,4.404-17.432,38.179,8.718,27.053l1.489,1.768l10.287,0.264l6.755-30.69L367.577,226.775 M361.726,243.554    c-1.65,4.874-5.344,8.097-8.233,7.179c-2.89-0.895-3.922-5.597-2.248-10.482c1.653-4.886,5.368-8.098,8.235-7.18    C362.367,233.966,363.413,238.668,361.726,243.554" fill="#FFFFFF"/></g></g></svg>