<?xml version="1.0" ?><!DOCTYPE svg  PUBLIC '-//W3C//DTD SVG 1.1//EN'  'http://www.w3.org/Graphics/SVG/1.1/DTD/svg11.dtd'><svg enable-background="new 0 0 512 512" height="512px" id="Layer_1" version="1.1" viewBox="0 0 512 512" width="512px" xml:space="preserve" xmlns="http://www.w3.org/2000/svg" xmlns:xlink="http://www.w3.org/1999/xlink"><g><g><path d="M481.874,102.698c13.854,0,25.126,11.271,25.126,25.126v257.899c0,13.854-11.271,25.126-25.126,25.126    H30.143c-13.854,0-25.126-11.271-25.126-25.126V127.824c0-13.854,11.271-25.126,25.126-25.126H481.874 M481.874,97.698H30.143    c-16.638,0-30.126,13.488-30.126,30.126v257.899c0,16.64,13.488,30.126,30.126,30.126h451.731    c16.64,0,30.126-13.486,30.126-30.126V127.824C512,111.186,498.513,97.698,481.874,97.698L481.874,97.698z" fill="#9B0033"/></g><g><path d="M192.1,195.533h204.45c20.537,0.028,37.62,6.516,52.05,19.818c14.197,13.157,21.139,28.826,21.354,47.951    l2.931-0.026l-2.931-0.028c-0.216,18.729-7.145,34.223-21.366,47.587l0.012-0.013c-14.44,13.31-31.534,19.982-52.05,20.005H192.1    c-1.619,0-2.929,1.311-2.929,2.93c0,1.616,1.31,2.926,2.929,2.926h204.45c21.805,0.026,40.614-7.285,56.027-21.56l0.011-0.014    c15.256-14.225,23.066-31.611,23.228-51.807v-0.055c-0.161-20.553-7.96-38.141-23.239-52.199    c-15.425-14.282-34.243-21.398-56.026-21.371H192.1c-1.619,0-2.929,1.31-2.929,2.927    C189.171,194.223,190.481,195.533,192.1,195.533z M192.1,195.533h204.45c20.537,0.028,37.62,6.516,52.05,19.818    c14.197,13.157,21.139,28.826,21.354,47.951l2.931-0.026l-2.931-0.028c-0.216,18.729-7.145,34.223-21.366,47.587l0.012-0.013    c-14.44,13.31-31.534,19.982-52.05,20.005H192.1c-1.619,0-2.929,1.311-2.929,2.93c0,1.616,1.31,2.926,2.929,2.926h204.45    c21.805,0.026,40.614-7.285,56.027-21.56l0.011-0.014c15.256-14.225,23.066-31.611,23.228-51.807v-0.055    c-0.161-20.553-7.96-38.141-23.239-52.199c-15.425-14.282-34.243-21.398-56.026-21.371H192.1c-1.619,0-2.929,1.31-2.929,2.927    C189.171,194.223,190.481,195.533,192.1,195.533z" fill="#9B0033"/><path clip-rule="evenodd" d="M173.961,193.927c11.715,6.804,20.972,16.063,27.775,27.59    c6.804,11.715,10.203,24.751,10.392,38.922c-0.189,14.363-3.588,27.398-10.392,38.926c-6.803,11.526-16.061,20.783-27.775,27.778    c-11.528,6.799-24.375,10.201-38.925,10.391c-14.172-0.189-27.21-3.592-38.736-10.391c-11.714-6.995-20.973-16.252-27.587-27.778    c-6.992-11.527-10.392-24.376-10.581-38.926c0.189-14.171,3.589-27.207,10.581-38.922c6.614-11.527,15.873-20.787,27.587-27.59    c11.526-6.799,24.564-10.392,38.736-10.579C149.397,183.535,162.433,187.128,173.961,193.927 M135.036,167.664    c-17.195,0.19-32.878,4.345-46.861,12.661c-13.795,8.313-24.754,19.462-33.255,33.254c-8.315,13.986-12.471,29.667-12.66,46.861    c0.189,17.195,4.345,32.879,12.66,46.861c8.501,13.982,19.46,25.132,33.255,33.634c13.983,8.128,29.666,12.28,46.861,12.66    c17.383-0.188,33.067-4.347,47.048-12.66c13.981-8.502,25.13-19.651,33.446-33.634c8.124-13.982,12.469-29.666,12.661-46.861    c-0.192-17.194-4.349-32.875-12.661-46.861c-8.315-13.792-19.464-24.94-33.446-33.254    C168.104,172.009,152.419,167.854,135.036,167.664z" fill="#9B0033" fill-rule="evenodd"/><polyline fill="#9B0033" points="251.622,233.61 258.046,233.61 264.847,252.313 271.84,233.61 278.074,233.61 267.495,260.252     262.391,260.252 251.622,233.61   "/><path d="M325.502,239.844h5.857v20.217h-5.857V239.844z M325.312,232.474h6.047v5.104h-6.047V232.474z     M307.173,239.844h5.67v3.97c0.566-1.322,1.511-2.458,2.454-3.214c0.946-0.944,2.269-1.322,3.97-1.135v6.049h-0.189    c-2.081,0-3.591,0.566-4.534,1.701c-1.134,1.131-1.7,3.022-1.7,5.477v7.369h-5.67V239.844z M294.892,248.347    c-0.19-1.322-0.566-2.266-1.326-3.209c-0.753-0.759-1.699-1.136-2.832-1.136c-1.321,0-2.267,0.377-3.023,1.136    c-0.755,0.943-1.322,1.887-1.509,3.209H294.892z M291.112,260.631c-1.322,0-2.838-0.379-4.157-0.945    c-1.323-0.377-2.456-1.134-3.402-2.079c-0.943-0.943-1.511-1.891-2.076-3.212c-0.569-1.323-0.946-2.833-0.946-4.349    c0-1.507,0.188-2.83,0.754-4.157c0.568-1.323,1.135-2.454,2.081-3.397c0.944-0.948,1.887-1.702,3.212-2.271    c1.323-0.565,2.644-0.756,4.156-0.756c1.701,0,3.024,0.379,4.346,0.947c1.324,0.564,2.269,1.323,3.024,2.454    c0.756,0.948,1.32,2.079,1.889,3.402c0.378,1.323,0.568,2.835,0.568,4.158l-0.19,0.756v0.756h-13.982    c0.189,1.322,0.754,2.268,1.701,3.024c0.944,0.564,1.888,0.944,3.211,0.944c0.946,0,1.699-0.191,2.646-0.569    c0.569-0.187,1.322-0.754,2.267-1.51l3.212,2.835c-0.941,1.322-2.076,2.266-3.399,2.833    C294.701,260.252,292.999,260.631,291.112,260.631z" fill="#9B0033"/><path d="M349.122,260.439c-2.08,0-3.972-0.378-6.048-1.131c-1.889-0.568-3.589-1.702-5.291-3.215l3.59-3.966    c1.133,0.943,2.266,1.7,3.592,2.267c1.321,0.568,2.645,0.943,4.157,0.943c1.32,0,2.266-0.187,2.833-0.754    c0.566-0.378,0.942-0.948,0.942-1.699v-1.136l-0.942-0.757l-1.513-0.754l-2.833-0.947l-3.591-0.944l-2.833-1.51l-1.7-2.271    c-0.379-0.944-0.568-1.887-0.568-3.21v-0.189l0.568-3.212c0.566-0.943,1.133-1.887,2.076-2.455    c0.757-0.757,1.703-1.323,2.836-1.703c1.133-0.377,2.453-0.564,3.778-0.564c1.89,0,3.592,0.377,5.291,0.944    s3.212,1.323,4.534,2.456l-3.021,4.345l-3.592-1.887c-1.132-0.568-2.266-0.756-3.398-0.756c-1.139,0-1.893,0.188-2.459,0.756    c-0.565,0.375-0.946,0.944-0.946,1.51v0.19l0.381,1.133l0.755,0.756l1.89,0.756l2.833,0.754l3.591,1.325    c0.946,0.375,1.89,0.945,2.646,1.51l1.513,2.079c0.377,0.942,0.566,1.889,0.566,3.024v0.186c0,1.322-0.189,2.457-0.757,3.402    c-0.378,0.947-0.943,1.891-1.889,2.645c-0.946,0.568-1.889,1.136-3.215,1.513C351.768,260.252,350.442,260.439,349.122,260.439" fill="#9B0033"/><path d="M366.126,239.844h5.857v20.217h-5.857V239.844z M365.937,232.474h6.047v5.104h-6.047V232.474z" fill="#9B0033"/><path d="M408.451,239.844h5.671v2.835l1.133-1.135l1.32-1.131l1.513-0.756l1.892-0.191    c2.267,0,3.966,0.756,5.102,2.079c1.322,1.323,1.889,3.022,1.889,5.48v13.037h-5.857v-11.335c0-1.323-0.189-2.267-0.754-3.024    c-0.57-0.564-1.512-0.944-2.647-0.944s-2.077,0.379-2.646,0.944c-0.568,0.758-0.943,1.701-0.943,3.024v11.335h-5.671V239.844     M390.312,253.636l2.078-0.375c0.567-0.189,0.946-0.376,1.513-0.947c0.378-0.375,0.754-0.944,0.944-1.509    c0.188-0.566,0.379-1.135,0.379-1.891l-0.379-1.89c-0.19-0.564-0.566-1.135-0.944-1.51l-1.513-0.948l-2.078-0.377l-1.89,0.377    l-1.511,0.948c-0.568,0.375-0.944,0.945-1.133,1.51l-0.379,1.89c0,1.513,0.567,2.647,1.512,3.399    C387.854,253.261,388.992,253.636,390.312,253.636z M389.745,266.111l-4.724-0.57c-1.7-0.188-3.021-0.757-4.345-1.51l2.078-4.346    l3.213,1.51l3.589,0.379c1.888,0,3.401-0.379,4.347-1.322c0.944-0.943,1.323-2.267,1.323-4.158v-0.942    c-0.757,0.942-1.702,1.887-2.648,2.455c-0.943,0.567-2.266,0.754-3.966,0.754c-1.136,0-2.269-0.187-3.401-0.564    c-0.943-0.379-1.89-0.945-2.835-1.889c-0.755-0.756-1.321-1.701-1.89-2.836c-0.566-1.322-0.756-2.645-0.756-4.157    c0-1.511,0.189-2.833,0.756-3.969c0.568-1.323,1.135-2.266,1.89-3.022c0.945-0.946,1.892-1.511,3.024-1.89l3.212-0.568    c1.7,0,3.022,0.379,3.966,0.947c0.946,0.564,1.892,1.131,2.648,2.08v-2.648h5.668v15.683c0,3.589-0.758,6.235-2.457,7.935    c-0.945,0.948-2.269,1.702-3.59,2.079L389.745,266.111z" fill="#9B0033"/><path d="M266.357,293.506c-2.077,0-3.967-0.377-6.045-1.131c-1.892-0.569-3.589-1.702-5.292-3.214l3.592-3.967    c1.133,0.944,2.267,1.7,3.589,2.267c1.323,0.569,2.646,0.943,4.156,0.943c1.324,0,2.269-0.188,2.837-0.754    c0.566-0.377,0.943-0.945,0.943-1.7v-1.135l-0.943-0.757l-1.513-0.753l-2.835-0.948l-3.589-0.943l-2.837-1.511l-1.697-2.269    c-0.38-0.945-0.569-1.889-0.569-3.212v-0.189l0.569-3.212c0.563-0.943,1.133-1.888,2.076-2.455c0.759-0.757,1.7-1.323,2.833-1.703    c1.138-0.377,2.459-0.564,3.781-0.564c1.889,0,3.589,0.377,5.291,0.944c1.701,0.566,3.214,1.323,4.535,2.458l-3.023,4.346    l-3.591-1.89c-1.131-0.568-2.269-0.757-3.402-0.757c-1.132,0-1.889,0.188-2.453,0.757c-0.569,0.374-0.946,0.943-0.946,1.509v0.192    l0.377,1.131l0.757,0.757l1.889,0.756l2.835,0.754l3.589,1.325c0.946,0.375,1.89,0.945,2.648,1.51l1.51,2.08    c0.377,0.945,0.564,1.888,0.564,3.023v0.188c0,1.323-0.188,2.456-0.753,3.401c-0.381,0.946-0.946,1.89-1.89,2.645    c-0.944,0.568-1.89,1.135-3.213,1.512C269.003,293.318,267.682,293.506,266.357,293.506" fill="#9B0033"/><path d="M319.832,293.698c-1.511,0-2.836-0.38-4.155-0.944c-1.323-0.57-2.456-1.326-3.402-2.271    c-0.944-0.944-1.511-1.889-2.076-3.21c-0.569-1.323-0.946-2.837-0.946-4.157c0-1.511,0.377-2.833,0.946-4.16    c0.565-1.321,1.132-2.454,2.076-3.397c0.946-0.947,2.079-1.7,3.402-2.271c1.319-0.564,2.645-0.757,4.345-0.757    c1.889,0,3.4,0.379,4.724,0.949c1.321,0.566,2.267,1.322,3.213,2.453l-3.402,3.78c-0.566-0.758-1.322-1.322-2.076-1.702    c-0.569-0.377-1.512-0.563-2.647-0.563l-1.89,0.377l-1.511,1.322l-1.135,1.7l-0.377,2.078v0.19c0,0.756,0.189,1.513,0.377,2.078    c0.189,0.756,0.565,1.32,1.135,1.887c0.378,0.569,0.944,0.949,1.511,1.136c0.566,0.188,1.324,0.378,2.267,0.378    c0.947,0,1.701-0.19,2.458-0.564l2.078-1.516l3.4,3.402c-0.944,0.945-2.079,1.889-3.4,2.646    C323.422,293.318,321.91,293.698,319.832,293.698 M297.157,281.414c-0.187-1.323-0.566-2.267-1.32-3.211    c-0.758-0.755-1.702-1.135-2.838-1.135c-1.32,0-2.266,0.38-3.022,1.135c-0.756,0.944-1.322,1.888-1.51,3.211H297.157z     M293.38,293.698c-1.323,0-2.834-0.38-4.159-0.944c-1.32-0.379-2.455-1.135-3.399-2.081c-0.946-0.943-1.512-1.89-2.079-3.212    c-0.566-1.322-0.944-2.832-0.944-4.345c0-1.511,0.188-2.833,0.755-4.16c0.568-1.321,1.135-2.454,2.079-3.397    c0.945-0.947,1.89-1.7,3.212-2.271c1.322-0.564,2.644-0.757,4.155-0.757c1.702,0,3.025,0.379,4.349,0.949    c1.322,0.566,2.269,1.322,3.022,2.453c0.755,0.947,1.323,2.078,1.892,3.4c0.374,1.324,0.566,2.837,0.566,4.158l-0.192,0.756v0.757    h-13.981c0.189,1.323,0.758,2.269,1.7,3.025c0.945,0.564,1.892,0.942,3.211,0.942c0.949,0,1.702-0.189,2.646-0.568    c0.568-0.188,1.325-0.754,2.271-1.51l3.211,2.835c-0.945,1.323-2.077,2.267-3.403,2.833    C296.971,293.318,295.268,293.698,293.38,293.698z" fill="#9B0033"/><path d="M341.939,293.506c-2.077,0-3.779-0.752-5.099-2.078c-1.137-1.324-1.703-3.023-1.703-5.478v-13.04h5.668    v11.338c0,1.323,0.38,2.267,0.945,3.025c0.567,0.564,1.514,0.943,2.646,0.943c0.943,0,1.889-0.379,2.645-0.943    c0.567-0.759,0.947-1.702,0.947-3.025V272.91h5.665v20.219h-5.665v-2.833l-1.139,1.132l-1.32,1.135l-1.512,0.756L341.939,293.506" fill="#9B0033"/><path d="M417.9,288.595c0.756,0,1.511-0.19,2.079-0.378l1.51-1.136c0.377-0.566,0.757-1.131,0.943-1.699    l0.38-2.266v-0.19l-0.38-2.268l-0.943-1.702l-1.51-1.131c-0.568-0.19-1.323-0.377-2.079-0.377l-1.892,0.377l-1.512,1.131    l-1.134,1.702c-0.188,0.567-0.376,1.322-0.376,2.268v0.19l0.376,2.266c0.192,0.568,0.569,1.133,1.134,1.699l1.512,1.136    L417.9,288.595 M416.575,293.506c-1.32,0-2.453-0.188-3.588-0.752c-0.945-0.379-1.891-0.948-2.837-1.892    c-0.942-0.945-1.509-2.079-2.078-3.401c-0.566-1.322-0.754-2.646-0.754-4.345v-0.19c0-1.7,0.188-3.212,0.754-4.534    c0.569-1.323,1.136-2.267,2.078-3.21c0.759-0.948,1.703-1.516,2.837-1.894c1.135-0.564,2.268-0.757,3.588-0.757    c1.513,0,2.836,0.379,3.783,0.949c0.941,0.566,1.888,1.131,2.454,2.078v-10.018h5.667v27.588h-5.667v-2.833    c-0.566,0.944-1.513,1.7-2.454,2.267C419.411,293.129,418.088,293.506,416.575,293.506z M395.036,281.414    c-0.188-1.323-0.566-2.267-1.319-3.211c-0.759-0.755-1.703-1.135-2.838-1.135c-1.322,0-2.267,0.38-3.024,1.135    c-0.755,0.944-1.32,1.888-1.511,3.211H395.036z M391.259,293.698c-1.326,0-2.836-0.38-4.159-0.944    c-1.32-0.379-2.458-1.135-3.398-2.081c-0.946-0.943-1.513-1.89-2.08-3.212c-0.566-1.322-0.944-2.832-0.944-4.345    c0-1.511,0.186-2.833,0.753-4.16c0.57-1.321,1.136-2.454,2.079-3.397c0.945-0.947,1.892-1.7,3.212-2.271    c1.325-0.564,2.646-0.757,4.158-0.757c1.699,0,3.024,0.379,4.348,0.949c1.323,0.566,2.266,1.322,3.022,2.453    c0.753,0.947,1.323,2.078,1.888,3.4c0.378,1.324,0.568,2.837,0.568,4.158l-0.19,0.756v0.757h-13.98    c0.187,1.323,0.756,2.269,1.699,3.025c0.945,0.564,1.892,0.942,3.211,0.942c0.946,0,1.702-0.189,2.646-0.568    c0.566-0.188,1.322-0.754,2.269-1.51l3.213,2.835c-0.946,1.323-2.08,2.267-3.403,2.833    C394.848,293.318,393.146,293.698,391.259,293.698z M362.724,272.91h5.671v3.971c0.566-1.322,1.513-2.458,2.456-3.215    c0.943-0.942,2.269-1.322,3.968-1.135v6.05h-0.188c-2.078,0-3.592,0.566-4.537,1.702c-1.133,1.131-1.699,3.022-1.699,5.476v7.37    h-5.671V272.91z" fill="#9B0033"/><path clip-rule="evenodd" d="M438.306,187.128h8.125v1.887h-2.834v7.748h-2.267v-7.748h-3.024    V187.128 M458.524,187.128v9.635h-2.266v-6.233l-2.459,4.154h-0.374l-2.458-4.154v6.233h-2.267v-9.635h2.452l2.646,4.156    l2.459-4.156H458.524z" fill="#9B0033" fill-rule="evenodd"/><path clip-rule="evenodd" d="M190.21,215.658h-6.993v7.183h6.993V215.658z M183.218,197.521h6.993v6.988    h-6.993V197.521z M201.359,179.001h-7.18v-6.993h7.18V179.001z M215.343,164.452h13.792v-7.557h-13.792v22.107h-13.983v7.179    h-11.905v4.914h-6.237v6.427h-7.557v11.148h-7.179v6.989h-4.724v7.183h-5.291c-10.582,15.681-18.896,31.175-24.943,46.861    c-13.605-19.088-26.266-30.423-37.979-34.202c-3.212-0.946-5.48-0.19-6.803,2.643c-1.322,2.834-0.188,6.424,3.78,10.584    c11.904,13.036,22.863,31.557,32.878,55.174c1.511,3.778,4.914,5.858,10.392,6.423c5.102,0.378,8.504-1.511,10.016-5.669    c7.369-19.46,15.873-36.088,25.699-50.26v-8.126h5.668v-6.991h6.045v-8.503h6.993v-7.934h7.181v-7.183h5.67v-8.69h6.232v-5.857    h6.049v-14.93h6.989v-7.179h8.126v-7.18h-8.126v7.18h-6.989v7.179h-6.995v6.995h-6.988v-6.995h6.988v-21.729H215.343z" fill-rule="evenodd"/><rect fill="#A10045" height="7.37" width="6.989" x="215.343" y="164.452"/><rect fill="#FFFFFF" height="6.988" width="6.993" x="183.218" y="197.521"/><rect fill="#9B0033" height="7.557" width="7.56" x="237.069" y="156.895"/><polyline points="237.261,156.895 237.261,149.337 229.698,149.337 229.698,156.895   "/><rect fill="#9B0033" height="7.56" width="7.56" x="237.069" y="141.777"/></g></g></svg>