<?xml version="1.0" ?><!DOCTYPE svg  PUBLIC '-//W3C//DTD SVG 1.1//EN'  'http://www.w3.org/Graphics/SVG/1.1/DTD/svg11.dtd'><svg enable-background="new 0 0 512 512" height="512px" id="Layer_1" version="1.1" viewBox="0 0 512 512" width="512px" xml:space="preserve" xmlns="http://www.w3.org/2000/svg" xmlns:xlink="http://www.w3.org/1999/xlink"><g><g><path d="M481.874,102.698c13.854,0,25.126,11.271,25.126,25.126v257.899c0,13.854-11.271,25.126-25.126,25.126    H30.143c-13.854,0-25.126-11.271-25.126-25.126V127.824c0-13.854,11.271-25.126,25.126-25.126H481.874 M481.874,97.698H30.143    c-16.638,0-30.126,13.488-30.126,30.126v257.899c0,16.64,13.488,30.126,30.126,30.126h451.731    c16.64,0,30.126-13.486,30.126-30.126V127.824C512,111.186,498.513,97.698,481.874,97.698L481.874,97.698z" fill="#FFEC00"/></g><g><rect fill="#1D1D1B" height="126.254" width="423.76" x="42.758" y="162"/><g><path d="M61.898,212l-11.76-40.6h6.016l6.741,26.614     c0.726,2.788,1.35,5.558,1.875,8.309c1.128-4.339,1.793-6.841,1.995-7.505L75.2,171.4h7.074l6.349,20.549     c1.592,5.096,2.741,9.887,3.446,14.374c0.564-2.566,1.3-5.511,2.207-8.834l6.953-26.088h5.895L94.971,212h-5.653l-9.341-30.935     c-0.786-2.585-1.25-4.172-1.391-4.764c-0.464,1.865-0.897,3.453-1.3,4.764L67.884,212H61.898z" fill="#FFEC00" stroke="#FFEC00" stroke-width="2.4669"/><path d="M112.717,212v-40.6h32.045v4.791h-26.18v12.435h24.518v4.763     h-24.518v13.82h27.208V212H112.717z" fill="#FFEC00" stroke="#FFEC00" stroke-width="2.4669"/><path d="M151.896,198.956l5.532-0.443     c0.262,2.031,0.872,3.697,1.829,4.999c0.957,1.302,2.443,2.354,4.459,3.157c2.015,0.803,4.283,1.205,6.802,1.205     c2.237,0,4.212-0.305,5.925-0.914c1.713-0.609,2.988-1.444,3.824-2.506c0.836-1.062,1.254-2.22,1.254-3.476     c0-1.274-0.403-2.386-1.209-3.337c-0.806-0.951-2.137-1.75-3.991-2.396c-1.189-0.424-3.819-1.084-7.89-1.98     c-4.071-0.895-6.923-1.74-8.556-2.534c-2.116-1.015-3.693-2.275-4.731-3.78c-1.039-1.504-1.557-3.189-1.557-5.054     c0-2.049,0.635-3.964,1.905-5.747c1.27-1.781,3.124-3.134,5.562-4.057c2.438-0.923,5.149-1.385,8.132-1.385     c3.285,0,6.182,0.485,8.691,1.454s4.438,2.396,5.789,4.279c1.35,1.883,2.076,4.016,2.177,6.397l-5.623,0.388     c-0.302-2.566-1.325-4.505-3.068-5.816c-1.744-1.311-4.318-1.966-7.724-1.966c-3.547,0-6.132,0.595-7.754,1.786     c-1.623,1.191-2.434,2.627-2.434,4.307c0,1.458,0.574,2.659,1.723,3.6c1.128,0.942,4.076,1.907,8.843,2.894     c4.766,0.988,8.036,1.852,9.81,2.59c2.58,1.089,4.484,2.469,5.714,4.14c1.229,1.671,1.844,3.596,1.844,5.774     c0,2.16-0.675,4.195-2.025,6.106c-1.351,1.911-3.291,3.397-5.819,4.459c-2.53,1.062-5.376,1.592-8.541,1.592     c-4.011,0-7.372-0.536-10.082-1.606c-2.711-1.07-4.837-2.682-6.379-4.833C152.789,204.103,151.977,201.67,151.896,198.956z" fill="#FFEC00" stroke="#FFEC00" stroke-width="2.4669"/><path d="M206.464,212v-35.809h-14.602V171.4h35.128v4.791h-14.662V212     H206.464z" fill="#FFEC00" stroke="#FFEC00" stroke-width="2.4669"/><path d="M233.128,212v-40.6h32.045v4.791h-26.18v12.435h24.518v4.763     h-24.518v13.82h27.208V212H233.128z" fill="#FFEC00" stroke="#FFEC00" stroke-width="2.4669"/><path d="M274.394,212v-40.6h19.65c3.95,0,6.953,0.365,9.009,1.094     c2.056,0.73,3.698,2.018,4.928,3.864s1.844,3.887,1.844,6.12c0,2.88-1.018,5.309-3.053,7.284     c-2.036,1.976-5.18,3.231-9.433,3.767c1.552,0.683,2.731,1.357,3.537,2.021c1.713,1.44,3.336,3.24,4.867,5.4l7.709,11.05h-7.376     l-5.865-8.447c-1.713-2.437-3.124-4.302-4.232-5.594c-1.108-1.292-2.101-2.197-2.978-2.714c-0.877-0.517-1.769-0.876-2.676-1.08     c-0.665-0.129-1.753-0.194-3.265-0.194h-6.802V212H274.394z M280.259,189.318h12.606c2.68,0,4.776-0.254,6.288-0.762     s2.66-1.32,3.446-2.437s1.179-2.331,1.179-3.642c0-1.92-0.761-3.499-2.282-4.735c-1.522-1.237-3.926-1.856-7.21-1.856h-14.027     V189.318z" fill="#FFEC00" stroke="#FFEC00" stroke-width="2.4669"/><path d="M318.954,212v-40.6h6.017l23.277,31.876V171.4h5.623V212h-6.016     l-23.278-31.904V212H318.954z" fill="#FFEC00" stroke="#FFEC00" stroke-width="2.4669"/><path d="M186.451,239.462h5.865v23.458c0,4.08-0.504,7.32-1.511,9.721     c-1.008,2.4-2.827,4.353-5.457,5.857c-2.63,1.505-6.082,2.257-10.354,2.257c-4.152,0-7.548-0.655-10.188-1.967     c-2.641-1.311-4.525-3.207-5.653-5.69c-1.129-2.483-1.693-5.876-1.693-10.178v-23.458h5.865v23.43     c0,3.527,0.358,6.126,1.073,7.796c0.715,1.672,1.945,2.959,3.688,3.864c1.743,0.904,3.874,1.356,6.394,1.356     c4.313,0,7.387-0.896,9.221-2.687c1.834-1.79,2.751-5.234,2.751-10.33V239.462z" fill="#FFEC00" stroke="#FFEC00" stroke-width="2.4669"/><path d="M202.02,280.062v-40.601h6.016l23.278,31.877v-31.877h5.623     v40.601h-6.016l-23.278-31.904v31.904H202.02z" fill="#FFEC00" stroke="#FFEC00" stroke-width="2.4669"/><path d="M247.791,280.062v-40.601h5.865v40.601H247.791z" fill="#FFEC00" stroke="#FFEC00" stroke-width="2.4669"/><path d="M262.211,260.289c0-6.74,1.975-12.016,5.925-15.828     s9.05-5.719,15.297-5.719c4.092,0,7.779,0.896,11.065,2.687c3.284,1.791,5.789,4.289,7.512,7.491     c1.724,3.204,2.585,6.836,2.585,10.898c0,4.118-0.907,7.801-2.721,11.051s-4.384,5.71-7.709,7.38     c-3.325,1.672-6.913,2.507-10.763,2.507c-4.172,0-7.9-0.923-11.186-2.77c-3.285-1.846-5.773-4.366-7.467-7.561     C263.058,267.23,262.211,263.853,262.211,260.289z M268.257,260.372c0,4.893,1.437,8.747,4.308,11.562     c2.872,2.815,6.475,4.223,10.808,4.223c4.414,0,8.047-1.421,10.898-4.265c2.853-2.843,4.278-6.877,4.278-12.103     c0-3.305-0.61-6.19-1.829-8.655c-1.22-2.465-3.003-4.376-5.351-5.733c-2.349-1.357-4.983-2.036-7.906-2.036     c-4.151,0-7.724,1.307-10.717,3.919C269.753,249.898,268.257,254.26,268.257,260.372z" fill="#FFEC00" stroke="#FFEC00" stroke-width="2.4669"/><path d="M312.092,280.062v-40.601h6.017l23.277,31.877v-31.877h5.623     v40.601h-6.016l-23.278-31.904v31.904H312.092z" fill="#FFEC00" stroke="#FFEC00" stroke-width="2.4669"/></g><rect fill="#FFEC00" height="109.485" stroke="#FFEC00" stroke-width="0.691" width="7.476" x="429.396" y="169.554"/><rect fill="#FFEC00" height="111.249" stroke="#FFEC00" stroke-width="0.6167" width="7.358" x="386.588" y="168.428"/><g><path d="M114.531,343.139v-28.04h5.425l6.447,19.854     c0.595,1.85,1.028,3.232,1.301,4.15c0.309-1.02,0.792-2.518,1.449-4.494l6.521-19.51h4.849v28.04h-3.474V319.67l-7.915,23.469     h-3.251l-7.877-23.87v23.87H114.531z" fill="#1D1D1B" stroke="#1D1D1B" stroke-width="2.4669"/><path d="M145.241,329.482c0-4.654,1.214-8.298,3.642-10.931     c2.427-2.633,5.561-3.95,9.401-3.95c2.514,0,4.781,0.619,6.8,1.855c2.019,1.237,3.558,2.962,4.617,5.174s1.588,4.721,1.588,7.526     c0,2.844-0.557,5.388-1.672,7.632s-2.694,3.943-4.738,5.097c-2.043,1.154-4.249,1.731-6.614,1.731     c-2.564,0-4.855-0.638-6.875-1.913c-2.019-1.274-3.548-3.016-4.589-5.222S145.241,331.943,145.241,329.482z M148.957,329.54     c0,3.379,0.882,6.041,2.647,7.985s3.979,2.916,6.642,2.916c2.712,0,4.945-0.981,6.697-2.945c1.753-1.963,2.629-4.749,2.629-8.358     c0-2.282-0.375-4.274-1.124-5.977s-1.846-3.022-3.288-3.959c-1.443-0.938-3.063-1.406-4.858-1.406     c-2.552,0-4.747,0.902-6.586,2.706C149.876,322.307,148.957,325.319,148.957,329.54z" fill="#1D1D1B" stroke="#1D1D1B" stroke-width="2.4669"/><path d="M175.896,343.139v-28.04h3.697l14.306,22.016v-22.016h3.456     v28.04h-3.697l-14.306-22.034v22.034H175.896z" fill="#1D1D1B" stroke="#1D1D1B" stroke-width="2.4669"/><path d="M203.486,343.139v-28.04h19.694v3.31h-16.089v8.588h15.067v3.289     h-15.067v9.545h16.721v3.309H203.486z" fill="#1D1D1B" stroke="#1D1D1B" stroke-width="2.4669"/><path d="M236.463,343.139v-11.878l-10.497-16.162h4.385l5.369,8.454     c0.991,1.581,1.914,3.163,2.769,4.744c0.817-1.467,1.808-3.118,2.973-4.954l5.276-8.244h4.199l-10.869,16.162v11.878H236.463z" fill="#1D1D1B" stroke="#1D1D1B" stroke-width="2.4669"/><path d="M270.296,343.139v-24.73h-8.974v-3.31h21.589v3.31H273.9v24.73     H270.296z" fill="#1D1D1B" stroke="#1D1D1B" stroke-width="2.4669"/><path d="M286.664,343.139v-28.04h12.076c2.428,0,4.273,0.252,5.536,0.756     c1.264,0.504,2.273,1.394,3.028,2.668c0.756,1.275,1.134,2.685,1.134,4.228c0,1.989-0.626,3.666-1.877,5.03     s-3.183,2.231-5.796,2.601c0.953,0.473,1.678,0.938,2.174,1.396c1.053,0.995,2.05,2.238,2.991,3.729l4.737,7.632h-4.533     l-3.604-5.834c-1.053-1.683-1.92-2.971-2.601-3.863c-0.682-0.893-1.292-1.518-1.83-1.874c-0.539-0.357-1.087-0.605-1.645-0.746     c-0.409-0.089-1.077-0.134-2.007-0.134h-4.18v12.451H286.664z M290.269,327.474h7.747c1.647,0,2.936-0.175,3.864-0.525     s1.635-0.912,2.118-1.684s0.725-1.609,0.725-2.515c0-1.326-0.468-2.417-1.402-3.271c-0.936-0.854-2.413-1.282-4.432-1.282h-8.62     V327.474z" fill="#1D1D1B" stroke="#1D1D1B" stroke-width="2.4669"/><path d="M311.095,343.139l10.46-28.04h3.883l11.147,28.04h-4.106     l-3.177-8.492h-11.389l-2.991,8.492H311.095z M318.953,331.624h9.234l-2.843-7.765c-0.867-2.359-1.512-4.297-1.933-5.814     c-0.347,1.798-0.836,3.583-1.468,5.355L318.953,331.624z" fill="#1D1D1B" stroke="#1D1D1B" stroke-width="2.4669"/><path d="M339.428,343.139v-28.04h3.697l14.306,22.016v-22.016h3.455     v28.04h-3.696l-14.307-22.034v22.034H339.428z" fill="#1D1D1B" stroke="#1D1D1B" stroke-width="2.4669"/><path d="M365.717,334.13l3.4-0.306c0.16,1.402,0.535,2.553,1.124,3.452     c0.588,0.899,1.502,1.626,2.74,2.181s2.632,0.832,4.181,0.832c1.374,0,2.588-0.211,3.641-0.632     c1.053-0.42,1.837-0.997,2.351-1.73s0.771-1.533,0.771-2.4c0-0.88-0.248-1.648-0.743-2.305c-0.496-0.657-1.313-1.208-2.453-1.654     c-0.73-0.294-2.347-0.749-4.849-1.368c-2.502-0.618-4.255-1.201-5.258-1.75c-1.301-0.701-2.27-1.571-2.908-2.61     c-0.638-1.039-0.956-2.203-0.956-3.491c0-1.415,0.39-2.737,1.17-3.969c0.78-1.23,1.92-2.164,3.419-2.802     c1.498-0.638,3.164-0.956,4.997-0.956c2.02,0,3.8,0.334,5.342,1.004c1.542,0.669,2.728,1.654,3.558,2.955     s1.275,2.773,1.338,4.418l-3.456,0.268c-0.186-1.771-0.814-3.11-1.886-4.017c-1.071-0.904-2.653-1.357-4.746-1.357     c-2.181,0-3.769,0.411-4.766,1.233s-1.496,1.814-1.496,2.975c0,1.007,0.354,1.836,1.06,2.486c0.693,0.65,2.505,1.316,5.434,1.999     c2.93,0.682,4.939,1.278,6.029,1.788c1.585,0.752,2.756,1.705,3.512,2.859c0.755,1.154,1.133,2.483,1.133,3.988     c0,1.491-0.415,2.897-1.244,4.217c-0.83,1.32-2.022,2.347-3.577,3.079c-1.555,0.733-3.304,1.101-5.248,1.101     c-2.465,0-4.53-0.37-6.196-1.109s-2.973-1.853-3.92-3.338S365.767,336.005,365.717,334.13z" fill="#1D1D1B" stroke="#1D1D1B" stroke-width="2.4669"/><path d="M392.507,343.139v-28.04h18.375v3.31h-14.771v8.684h12.782v3.309     h-12.782v12.738H392.507z" fill="#1D1D1B" stroke="#1D1D1B" stroke-width="2.4669"/><path d="M415.638,343.139v-28.04h19.693v3.31h-16.089v8.588h15.067v3.289     h-15.067v9.545h16.721v3.309H415.638z" fill="#1D1D1B" stroke="#1D1D1B" stroke-width="2.4669"/><path d="M440.998,343.139v-28.04h12.076c2.428,0,4.273,0.252,5.536,0.756     c1.264,0.504,2.273,1.394,3.028,2.668c0.756,1.275,1.134,2.685,1.134,4.228c0,1.989-0.626,3.666-1.877,5.03     s-3.183,2.231-5.796,2.601c0.953,0.473,1.678,0.938,2.174,1.396c1.053,0.995,2.05,2.238,2.991,3.729l4.737,7.632h-4.533     l-3.604-5.834c-1.053-1.683-1.92-2.971-2.601-3.863c-0.682-0.893-1.292-1.518-1.83-1.874c-0.539-0.357-1.087-0.605-1.645-0.746     c-0.409-0.089-1.077-0.134-2.007-0.134h-4.18v12.451H440.998z M444.603,327.474h7.747c1.647,0,2.936-0.175,3.864-0.525     s1.635-0.912,2.118-1.684s0.725-1.609,0.725-2.515c0-1.326-0.468-2.417-1.402-3.271c-0.936-0.854-2.413-1.282-4.432-1.282h-8.62     V327.474z" fill="#1D1D1B" stroke="#1D1D1B" stroke-width="2.4669"/></g></g></g></svg>