<?xml version="1.0" ?><!DOCTYPE svg  PUBLIC '-//W3C//DTD SVG 1.1//EN'  'http://www.w3.org/Graphics/SVG/1.1/DTD/svg11.dtd'><svg enable-background="new 0 0 512 512" height="512px" id="Layer_1" version="1.1" viewBox="0 0 512 512" width="512px" xml:space="preserve" xmlns="http://www.w3.org/2000/svg" xmlns:xlink="http://www.w3.org/1999/xlink"><g><g><path d="M482.308,102.531c13.854,0,25.126,11.271,25.126,25.126v257.9c0,13.854-11.271,25.126-25.126,25.126    H30.576c-13.854,0-25.126-11.271-25.126-25.126v-257.9c0-13.854,11.271-25.126,25.126-25.126H482.308 M482.308,97.531H30.576    c-16.638,0-30.126,13.488-30.126,30.126v257.9c0,16.639,13.488,30.126,30.126,30.126h451.732    c16.639,0,30.126-13.487,30.126-30.126v-257.9C512.434,111.019,498.946,97.531,482.308,97.531L482.308,97.531z" fill="#00B5E5"/></g><g><g><path d="M60.117,334.916v-45.39H46.8v-14.048h42.833v14.048H76.316v45.39H60.117z" fill="#00AFD8"/><path d="M97.55,334.916v-59.438h16.93c6.631,0,11.252,0.305,13.864,0.915c2.612,0.608,4.866,1.63,6.76,3.064     c2.139,1.623,3.783,3.694,4.933,6.211c1.15,2.518,1.726,5.293,1.726,8.323c0,4.602-1.13,8.344-3.39,11.226     c-2.261,2.883-5.556,4.797-9.887,5.746l16.199,23.952h-18.31l-13.642-23.264v23.264H97.55z M112.734,303.574h3.004     c3.492,0,6.042-0.595,7.653-1.787c1.61-1.19,2.416-3.058,2.416-5.604c0-2.978-0.75-5.094-2.253-6.353     c-1.501-1.258-4.026-1.888-7.572-1.888h-3.248V303.574z" fill="#00AFD8"/><path d="M143.874,334.916l20.503-59.438h20.3l20.543,59.438h-16.119l-3.004-10.637h-23.02l-3.085,10.637H143.874z      M166.569,312.708h16.118l-6.049-19.61c-0.189-0.594-0.446-1.556-0.771-2.882c-0.325-1.325-0.744-3.03-1.258-5.115     c-0.352,1.462-0.697,2.856-1.035,4.182c-0.339,1.326-0.684,2.599-1.036,3.815L166.569,312.708z" fill="#00AFD8"/><path d="M210.904,334.916v-59.438h15.63l22.451,30.572c0.434,0.623,1.145,1.874,2.132,3.755     s2.078,4.122,3.269,6.72c-0.324-2.463-0.562-4.655-0.71-6.578c-0.149-1.922-0.224-3.627-0.224-5.115v-29.354h15.55v59.438h-15.55     l-22.451-30.692c-0.461-0.623-1.186-1.874-2.172-3.756c-0.988-1.881-2.064-4.094-3.229-6.638     c0.325,2.491,0.562,4.695,0.711,6.618c0.148,1.922,0.223,3.627,0.223,5.115v29.353H210.904z" fill="#00AFD8"/><path d="M284.389,315.713c2.41,2.735,4.783,4.777,7.125,6.131c2.341,1.354,4.676,2.03,7.005,2.03     c2.165,0,3.944-0.582,5.338-1.747c1.394-1.163,2.091-2.639,2.091-4.425c0-1.975-0.603-3.498-1.806-4.566     c-1.206-1.07-3.933-2.172-8.182-3.31c-5.818-1.568-9.934-3.614-12.342-6.131c-2.41-2.517-3.613-5.967-3.613-10.354     c0-5.684,1.901-10.317,5.705-13.904c3.802-3.586,8.734-5.38,14.798-5.38c3.274,0,6.38,0.44,9.317,1.319     c2.937,0.88,5.718,2.213,8.343,3.999l-5.075,11.652c-1.84-1.568-3.729-2.754-5.663-3.553c-1.936-0.797-3.851-1.197-5.745-1.197     c-1.948,0-3.532,0.468-4.75,1.401s-1.827,2.131-1.827,3.592c0,1.488,0.534,2.681,1.604,3.573s3.134,1.746,6.191,2.559l0.73,0.202     c6.604,1.787,10.949,3.749,13.033,5.887c1.406,1.463,2.477,3.215,3.207,5.258c0.73,2.044,1.097,4.311,1.097,6.8     c0,6.309-2.07,11.376-6.213,15.207c-4.141,3.828-9.662,5.743-16.563,5.743c-4.141,0-7.91-0.704-11.308-2.111     s-6.664-3.613-9.806-6.617L284.389,315.713z" fill="#00AFD8"/><path d="M330.063,334.916v-59.438h36.418v13.033h-20.625v10.312h19.448v12.749h-19.448v23.344H330.063z" fill="#00AFD8"/><path d="M375.291,334.916v-59.438h36.418v13.033h-20.624v10.312h19.448v12.749h-19.448v10.028h20.624v13.315     H375.291z" fill="#00AFD8"/><path d="M422.427,334.916v-59.438h16.931c6.632,0,11.252,0.305,13.864,0.915c2.612,0.608,4.866,1.63,6.761,3.064     c2.139,1.623,3.781,3.694,4.933,6.211c1.15,2.518,1.726,5.293,1.726,8.323c0,4.602-1.131,8.344-3.39,11.226     c-2.261,2.883-5.555,4.797-9.886,5.746l16.198,23.952h-18.31l-13.642-23.264v23.264H422.427z M437.612,303.574h3.005     c3.491,0,6.042-0.595,7.651-1.787c1.61-1.19,2.416-3.058,2.416-5.604c0-2.978-0.751-5.094-2.253-6.353     c-1.501-1.258-4.026-1.888-7.571-1.888h-3.248V303.574z" fill="#00AFD8"/></g><g><path d="M232.585,178.848l10.789,40.816c0.509,1.838,0.978,3.753,1.408,5.747c0.43,1.994,0.879,4.281,1.349,6.861     c0.587-3.05,1.085-5.561,1.495-7.536c0.41-1.974,0.811-3.666,1.202-5.072l10.086-40.816h23.635l-24.279,85.855h-21.697     l-10.615-36.653c-0.392-1.291-1.036-3.812-1.935-7.565c-0.392-1.68-0.704-2.991-0.938-3.929c-0.196,0.821-0.469,1.975-0.821,3.46     c-0.899,3.792-1.583,6.471-2.052,8.034l-10.439,36.653h-21.757l-24.22-85.855h23.633l9.852,41.05     c0.469,2.112,0.929,4.223,1.378,6.334c0.449,2.111,0.87,4.281,1.261,6.509c0.352-1.642,0.732-3.362,1.144-5.161     c0.41-1.798,1.026-4.359,1.847-7.683l10.791-41.05H232.585z" fill="#006E90"/><path d="M291.228,264.703v-85.855h23.634v85.855H291.228z" fill="#006E90"/><path d="M333.745,264.703v-85.855h24.454c9.577,0,16.253,0.439,20.026,1.319c3.773,0.879,7.027,2.356,9.765,4.427     c3.088,2.346,5.463,5.337,7.125,8.973c1.662,3.636,2.492,7.644,2.492,12.022c0,6.647-1.632,12.051-4.896,16.215     c-3.265,4.164-8.024,6.929-14.279,8.298l23.399,34.601h-26.449L355.678,231.1v33.604H333.745z M355.678,219.43h4.339     c5.044,0,8.728-0.86,11.055-2.58c2.326-1.72,3.489-4.418,3.489-8.093c0-4.3-1.084-7.36-3.255-9.178     c-2.17-1.817-5.815-2.727-10.938-2.727h-4.69V219.43z" fill="#006E90"/><path d="M410.744,264.703v-85.855h52.604v18.825h-29.791v14.896h28.09v18.414h-28.09v14.485h29.791v19.235     H410.744z" fill="#006E90"/></g><linearGradient gradientUnits="userSpaceOnUse" id="SVGID_1_" x1="47.5068" x2="154.6221" y1="186.7197" y2="186.7197"><stop offset="0" style="stop-color:#41E700;stop-opacity:0"/><stop offset="0.7362" style="stop-color:#3ACD00"/><stop offset="0.7811" style="stop-color:#36BE00"/><stop offset="0.9265" style="stop-color:#299100"/><stop offset="1" style="stop-color:#248000"/></linearGradient><rect fill="url(#SVGID_1_)" height="17" width="107.115" x="47.507" y="178.22"/><linearGradient gradientUnits="userSpaceOnUse" id="SVGID_2_" x1="47.5068" x2="154.6221" y1="219.7178" y2="219.7178"><stop offset="0" style="stop-color:#41E700;stop-opacity:0"/><stop offset="0.7362" style="stop-color:#3ACD00"/><stop offset="0.7811" style="stop-color:#36BE00"/><stop offset="0.9265" style="stop-color:#299100"/><stop offset="1" style="stop-color:#248000"/></linearGradient><rect fill="url(#SVGID_2_)" height="17" width="107.115" x="47.507" y="211.218"/><linearGradient gradientUnits="userSpaceOnUse" id="SVGID_3_" x1="47.5068" x2="154.6221" y1="255.7168" y2="255.7168"><stop offset="0" style="stop-color:#41E700;stop-opacity:0"/><stop offset="0.7362" style="stop-color:#3ACD00"/><stop offset="0.7811" style="stop-color:#36BE00"/><stop offset="0.9265" style="stop-color:#299100"/><stop offset="1" style="stop-color:#248000"/></linearGradient><rect fill="url(#SVGID_3_)" height="17" width="107.115" x="47.507" y="247.217"/></g></g></svg>