<?xml version="1.0" ?><!DOCTYPE svg  PUBLIC '-//W3C//DTD SVG 1.1//EN'  'http://www.w3.org/Graphics/SVG/1.1/DTD/svg11.dtd'><svg enable-background="new 0 0 512 512" height="512px" id="Layer_1" version="1.1" viewBox="0 0 512 512" width="512px" xml:space="preserve" xmlns="http://www.w3.org/2000/svg" xmlns:xlink="http://www.w3.org/1999/xlink"><g><g><path d="M481.874,102.698c13.854,0,25.126,11.271,25.126,25.126v257.899c0,13.854-11.271,25.126-25.126,25.126    H30.143c-13.854,0-25.126-11.271-25.126-25.126V127.824c0-13.854,11.271-25.126,25.126-25.126H481.874 M481.874,97.698H30.143    c-16.638,0-30.126,13.488-30.126,30.126v257.899c0,16.64,13.488,30.126,30.126,30.126h451.731    c16.64,0,30.126-13.486,30.126-30.126V127.824C512,111.186,498.513,97.698,481.874,97.698L481.874,97.698z" fill="#23356C"/></g><g><path d="M119.439,286.171h-15.918L89.86,236.627c-1.428-4.872-2.259-9.98-3.091-15.09h-0.116    c-0.596,4.991-1.546,9.863-2.852,14.852l-13.545,49.782H55.049l-20.792-80.195H48.04l12.354,48.708    c1.428,5.35,2.377,10.452,3.092,15.802h0.114c0.834-5.229,1.784-10.339,3.209-15.207l13.663-49.303h14.141l14.016,49.423    c1.188,4.277,2.374,9.622,3.206,14.729h0.124c0.83-4.991,1.659-9.623,2.847-14.017l12.479-50.135h12.946L119.439,286.171" fill="#23356C"/><path d="M163.606,287.358c-16.397,0-27.094-9.146-27.094-29.938c0-17.823,11.526-31.485,29.468-31.485    c15.799,0,26.973,8.791,26.973,29.58C192.952,273.695,181.067,287.358,163.606,287.358 M164.912,236.628    c-7.729,0-15.206,5.939-15.206,19.485c0,13.305,5.228,20.318,15.081,20.318c8.202,0,15.088-6.418,15.088-20.079    C179.876,243.758,175.007,236.628,164.912,236.628z" fill="#23356C"/><path d="M230.263,238.527c-11.761-2.254-17.465,5.942-17.465,23.645v23.999h-12.711v-59.048h12.116    c0,3.329-0.352,8.554-1.185,13.072h0.231c2.616-7.965,8.555-15.33,19.607-14.142L230.263,238.527" fill="#23356C"/><rect fill="#23356C" height="80.952" width="12.714" x="237.651" y="205.219"/><path d="M298.594,286.173c0-3.094,0.241-7.727,0.832-11.051h-0.238c-3.206,7.246-10.099,12.236-19.243,12.236    c-14.497,0-21.746-10.692-21.746-27.803c0-20.315,11.768-33.384,30.891-33.384c2.851,0,5.701,0.239,8.914,0.475V205.22h12.587    v80.953H298.594 M298.003,237.34c-3.213-0.712-6.299-1.067-9.387-1.067c-10.1,0-16.988,6.177-16.988,22.096    c0,11.878,3.683,18.535,11.761,18.535c9.387,0,14.614-11.17,14.614-21.267V237.34z" fill="#23356C"/><path d="M338.757,256.826c-1.782,0-3.918,0-5.945-0.238v29.583h-12.946v-80.193    c6.185-0.24,13.07-0.477,20.558-0.477c19.005,0,29.461,9.267,29.461,24.116C369.884,245.183,357.415,256.826,338.757,256.826     M339.472,216.075c-2.497,0-4.515,0-6.66,0.237v29.347c1.786,0.238,3.807,0.474,5.704,0.474    c10.813-0.119,17.938-6.061,17.938-15.445C356.453,221.539,351.108,216.075,339.472,216.075z" fill="#23356C"/><path d="M406.501,286.173c0-3.805,0.124-7.727,0.595-10.935l-0.118-0.116c-2.851,7.006-10.213,12.236-19.6,12.236    c-10.104,0-16.516-6.773-16.516-16.397c0-13.303,13.182-20.552,34.812-20.552v-3.443c0-7.251-3.091-11.172-12.361-11.172    c-5.463,0-12.12,1.783-16.87,4.277l-2.495-10.215c5.943-2.257,13.902-3.921,21.507-3.921c17.938,0,22.931,7.841,22.931,19.607    v24.47c0,5.109,0.117,11.169,0.353,16.16H406.501 M405.675,258.964c-17.706,0-22.574,4.866-22.574,10.453    c0,4.516,3.088,7.962,8.077,7.962c8.673,0,14.497-8.316,14.497-16.752V258.964z" fill="#23356C"/><path d="M452.747,290.326c-7.365,19.72-15.208,25.779-28.628,25.779c-2.259,0-5.462-0.352-7.486-0.71l1.423-11.05    c2.028,0.595,4.872,0.95,7.249,0.95c5.583,0,10.811-2.73,14.735-13.305l2.135-5.82l-22.091-59.048h14.256l9.618,26.967    c1.9,5.228,3.327,10.457,4.636,15.447h0.115c1.191-4.752,3.687-12.474,5.821-18.413l8.434-24.001h13.664L452.747,290.326" fill="#23356C"/><polyline fill="#23356C" points="457.048,206.291 452.829,206.291 452.829,204.763 463.013,204.763 463.013,206.291     458.755,206.291 458.755,217.626 457.048,217.626 457.048,206.291   "/><path d="M464.782,204.763h2.55l3.034,9.108c0.431,1.275,0.506,1.526,0.594,1.904h0.036    c0.219-0.7,0.271-0.845,0.683-2.065l3.072-8.947h2.266v12.863h-1.619v-10.76h-0.036l-3.702,10.76h-1.525l-3.683-10.94h-0.052    v10.94h-1.617V204.763" fill="#23356C"/></g></g></svg>