<?xml version="1.0" ?><!DOCTYPE svg  PUBLIC '-//W3C//DTD SVG 1.1//EN'  'http://www.w3.org/Graphics/SVG/1.1/DTD/svg11.dtd'><svg enable-background="new 0 0 1024 1024" height="1024px" id="Dropbox" version="1.1" viewBox="0 0 1024 1024" width="1024px" xml:space="preserve" xmlns="http://www.w3.org/2000/svg" xmlns:xlink="http://www.w3.org/1999/xlink"><g id="Background"><linearGradient gradientTransform="matrix(0.9397 0.3421 0.3421 -0.9397 275.9532 765.9631)" gradientUnits="userSpaceOnUse" id="bg_1_" x1="464.1323" x2="-194.2839" y1="-72.9106" y2="711.6677"><stop offset="0" style="stop-color:#003399"/><stop offset="0.1665" style="stop-color:#003CA2"/><stop offset="0.4381" style="stop-color:#0054BA"/><stop offset="0.7789" style="stop-color:#007CE2"/><stop offset="1" style="stop-color:#0099FF"/></linearGradient><circle cx="512.001" cy="512" fill="url(#bg_1_)" id="bg" r="512"/></g><linearGradient gradientTransform="matrix(1 0 0 -1 214.3398 1116.0391)" gradientUnits="userSpaceOnUse" id="Shadow_2_" x1="93.1616" x2="688.5768" y1="866.8623" y2="271.447"><stop offset="0" style="stop-color:#000000"/><stop offset="0.1236" style="stop-color:#000309;stop-opacity:0.8764"/><stop offset="0.3252" style="stop-color:#000B21;stop-opacity:0.6748"/><stop offset="0.5797" style="stop-color:#001849;stop-opacity:0.4203"/><stop offset="0.8744" style="stop-color:#002B80;stop-opacity:0.1256"/><stop offset="1" style="stop-color:#003399;stop-opacity:0"/></linearGradient><path d="M653.507,1004.194L335.599,686.267v-18.496L210.41,542.585l110.188-86.123  L210.41,346.268L512,334.887l301.59,11.381l208.639,208.625c0,0-1.19,12.775-1.647,16.601s-5.308,47.413-16.002,80.668  s-25.359,76.403-45.212,109.04c-19.854,32.637-40.008,63.757-59.822,85.404c-19.814,21.646-44.689,46.88-61.633,60.285  c-16.943,13.406-44.711,33.883-61.134,43.414c-16.423,9.532-40.311,23.372-63.704,32.697  C689.68,992.328,675.634,998.38,653.507,1004.194z" fill="url(#Shadow_2_)" id="Shadow_1_"/><polygon fill="#FFFFFF" id="XMLID_11_" points="388.234,231.038 210.41,346.268 334.177,445.85 512,334.887 "/><polygon fill="#FFFFFF" id="XMLID_10_" points="210.41,542.585 388.234,659.238 512,555.388 334.177,445.85 "/><polygon fill="#FFFFFF" id="XMLID_9_" points="512,555.388 637.188,659.238 813.59,544.008 691.246,445.85 "/><polygon fill="#FFFFFF" id="XMLID_8_" points="813.59,346.268 637.188,231.038 512,334.887 691.246,445.85 "/><polygon fill="#FFFFFF" id="XMLID_7_" points="513.423,578.15 388.234,682 335.599,646.436 335.599,686.267 513.423,792.962   691.246,686.267 691.246,646.436 637.188,682 "/></svg>