<?xml version="1.0" ?><!DOCTYPE svg  PUBLIC '-//W3C//DTD SVG 1.1//EN'  'http://www.w3.org/Graphics/SVG/1.1/DTD/svg11.dtd'><svg enable-background="new 0 0 1024 1024" height="1024px" id="Edmodo_2_" version="1.1" viewBox="0 0 1024 1024" width="1024px" xml:space="preserve" xmlns="http://www.w3.org/2000/svg" xmlns:xlink="http://www.w3.org/1999/xlink"><g id="Background"><linearGradient gradientTransform="matrix(0.9397 0.3421 0.3421 -0.9397 275.9532 765.9631)" gradientUnits="userSpaceOnUse" id="bg_1_" x1="464.1323" x2="-194.2839" y1="-72.9106" y2="711.6677"><stop offset="0" style="stop-color:#1752A2"/><stop offset="0.1782" style="stop-color:#1559AB"/><stop offset="0.4688" style="stop-color:#0F6AC3"/><stop offset="0.8336" style="stop-color:#0587EB"/><stop offset="1" style="stop-color:#0096FF"/></linearGradient><circle cx="512.001" cy="512" fill="url(#bg_1_)" id="bg" r="512"/></g><g id="Edmodo_1_"><linearGradient gradientTransform="matrix(1 0 0 -1 214.3398 1116.0391)" gradientUnits="userSpaceOnUse" id="Shadow_1_" x1="91.123" x2="669.6504" y1="830.4395" y2="251.9122"><stop offset="0" style="stop-color:#000000;stop-opacity:0.8"/><stop offset="0.1185" style="stop-color:#010509;stop-opacity:0.7052"/><stop offset="0.3117" style="stop-color:#051121;stop-opacity:0.5506"/><stop offset="0.5558" style="stop-color:#0A2549;stop-opacity:0.3554"/><stop offset="0.8382" style="stop-color:#124180;stop-opacity:0.1294"/><stop offset="1" style="stop-color:#1752A2;stop-opacity:0"/></linearGradient><path d="M596.552,1017.052L269.336,689.813c0,0-55.761-275.191-14.707-346.688   c41.054-71.497,170.991-134.994,428.979-83.996l62.361,26.619l275.669,275.74c0,0-4.937,48.718-14.128,79.891   c-9.19,31.173-17.445,58.324-29.428,82.839c-11.981,24.516-18.926,43.244-41.738,74.361   c-22.812,31.117-39.655,53.542-59.655,72.779c-20,19.236-44.268,42.539-70.989,60.071s-56.491,36.268-83.083,47.382   c-26.592,11.115-45.38,19.545-72.434,26.318C623.131,1011.904,607.214,1015.396,596.552,1017.052z" fill="url(#Shadow_1_)" id="Shadow"/><path d="M750.015,289.864c-35.358-37.399-89.134-55.579-164.399-55.579H438.388   c-136.375,0-208.458,64.46-208.458,186.413v128.939c0,52.095,4.876,105.234,40.248,141.036   c27.802,28.138,69.305,41.809,137.136,44.749l104.285,109.789l107.512-109.818c47.156-1.99,93.932-9.524,127.539-39.7   c32.798-29.45,47.424-74.494,47.424-146.055V420.699C794.071,364.018,779.66,321.22,750.015,289.864z M757.38,552.228   c0,123.109-43.229,150.858-154.411,153.241h0.027L512,800.263l-88.255-94.755h0.105c-129.88-2.47-157.23-39.708-157.23-153.28   V420.729c0-84.731,36.272-153.42,171.768-153.42h147.228c137.626,0,171.766,68.689,171.766,153.42L757.38,552.228L757.38,552.228z" fill="#FFFFFF"/><path d="M673.561,424.473c-11.246-35.114-44.145-60.542-82.993-60.542c-34.605,0-64.499,20.172-78.566,49.399   c-14.068-29.227-43.961-49.399-78.567-49.399c-38.85,0-71.746,25.428-82.992,60.542l-85.699-0.26v38.527l82.382,0.26   c5.815,42.484,42.229,75.219,86.311,75.219c34.606,0,64.499-20.171,78.567-49.396c14.067,29.227,43.961,49.396,78.566,49.396   c44.08,0,80.493-32.734,86.311-75.219h82.903v-38.527H673.561z M433.433,516.205c-35.911,0-65.129-29.218-65.129-65.129   c0-35.914,29.218-65.13,65.129-65.13c35.912,0,65.13,29.216,65.13,65.13C498.563,486.987,469.345,516.205,433.433,516.205z    M590.566,516.205c-35.912,0-65.129-29.218-65.129-65.129c0-35.914,29.217-65.13,65.129-65.13c35.913,0,65.129,29.216,65.129,65.13   C655.695,486.987,626.479,516.205,590.566,516.205z" fill="#FFFFFF"/><path d="M594.976,597.058c6.026,5.55,4.41,16.72-4.594,23.198c-46.481,33.515-110.282,33.515-156.764,0   c-9.005-6.479-10.62-17.648-4.594-23.198l0,0c6.034-5.589,15.727-5.225,22.374-0.488c35.938,25.912,85.264,25.912,121.2,0   C579.25,591.833,588.941,591.469,594.976,597.058L594.976,597.058z" fill="#FFFFFF"/><ellipse cx="438.295" cy="469.575" fill="#FFFFFF" rx="22.475" ry="24.308"/><ellipse cx="585.981" cy="469.575" fill="#FFFFFF" rx="22.475" ry="24.308"/></g></svg>