<?xml version="1.0" ?><!DOCTYPE svg  PUBLIC '-//W3C//DTD SVG 1.1//EN'  'http://www.w3.org/Graphics/SVG/1.1/DTD/svg11.dtd'><svg enable-background="new 0 0 1024 1023.998" height="1023.998px" id="Facebook_2_" version="1.1" viewBox="0 0 1024 1023.998" width="1024px" xml:space="preserve" xmlns="http://www.w3.org/2000/svg" xmlns:xlink="http://www.w3.org/1999/xlink"><g id="Background"><linearGradient gradientTransform="matrix(0.9397 0.3421 0.3421 -0.9397 121.8422 586.5784)" gradientUnits="userSpaceOnUse" id="bg_1_" x1="670.2959" x2="11.8961" y1="-188.7544" y2="595.8377"><stop offset="0" style="stop-color:#091435"/><stop offset="0.1677" style="stop-color:#0E1A3E"/><stop offset="0.4413" style="stop-color:#1B2C56"/><stop offset="0.7844" style="stop-color:#30497E"/><stop offset="1" style="stop-color:#3F5D9A"/></linearGradient><circle cx="512.001" cy="511.999" fill="url(#bg_1_)" id="bg" r="512"/></g><linearGradient gradientTransform="matrix(1 0 0 -1 8.3398 1000.0381)" gradientUnits="userSpaceOnUse" id="Shadow_1_" x1="400.1396" x2="890.3864" y1="639.5186" y2="149.2717"><stop offset="0" style="stop-color:#000000"/><stop offset="0.2696" style="stop-color:#010409;stop-opacity:0.7304"/><stop offset="0.7079" style="stop-color:#050D21;stop-opacity:0.2921"/><stop offset="1" style="stop-color:#081535;stop-opacity:0"/></linearGradient><path d="M635.896,1008.824L447.25,820.18l0.688-2.07l-0.375-182.859l-96.313-96.07l0.396-1.848  L467,433.999l32-126l13-51l49-23l101.333-23.167l9.917-6.583l0.5-0.319l349.684,349.652  C1022.434,553.582,1008.795,906.649,635.896,1008.824z" fill="url(#Shadow_1_)" id="Shadow"/><path d="M672.75,305.64V203.89c-3.736,0-7.473-0.007-11.209,0.001  c-8.996,0.02-17.993-0.022-26.99,0.001c-10.972,0.028-21.942-0.046-32.915,0.001c-9.667,0.042-19.337-0.097-29.003,0.003  c-14.592,0.151-28.443,0.868-42.438,5.375c-13.493,4.346-26.158,11.955-36.948,21.081c-6.248,5.284-12.031,10.943-17.269,17.234  c-2.121,2.613-4.097,5.33-5.942,8.14c-5.538,8.431-9.913,17.704-13.567,27.535c-0.821,2.213-1.628,4.432-2.397,6.662  c-5.634,16.324-5.82,34.143-5.82,51.297c0,2.148,0,4.363,0,6.629c0,33.984,0,79.291,0,79.291h-97v112h93.5h2.5v281h111v-283.5  L659,537.999l13.583-110.125L558.75,427.64v-85c0,0-0.25-36.25,30.5-36.75L672.75,305.64z" fill="#FFFFFF" id="Facebook_1_"/></svg>