<?xml version="1.0" ?><!DOCTYPE svg  PUBLIC '-//W3C//DTD SVG 1.1//EN'  'http://www.w3.org/Graphics/SVG/1.1/DTD/svg11.dtd'><svg enable-background="new 0 0 1024 1024" height="1024px" id="GoogleDrive" version="1.1" viewBox="0 0 1024 1024" width="1024px" xml:space="preserve" xmlns="http://www.w3.org/2000/svg" xmlns:xlink="http://www.w3.org/1999/xlink"><g id="Background"><linearGradient gradientTransform="matrix(1 0 0 -1 214.3398 1116.0391)" gradientUnits="userSpaceOnUse" id="bg_1_" x1="472.8232" x2="122.4993" y1="122.7856" y2="1085.2924"><stop offset="0" style="stop-color:#BCBEC0"/><stop offset="0.2402" style="stop-color:#C5C7C8"/><stop offset="0.6306" style="stop-color:#DDDEDF"/><stop offset="1" style="stop-color:#FAFAFA"/></linearGradient><circle cx="512.001" cy="512" fill="url(#bg_1_)" id="bg" r="512"/></g><linearGradient gradientTransform="matrix(1 0 0 -1 214.3398 1116.0391)" gradientUnits="userSpaceOnUse" id="Shadow_1_" x1="153.5161" x2="635.5864" y1="699.7666" y2="217.6963"><stop offset="0" style="stop-color:#000000;stop-opacity:0.6"/><stop offset="0.1046" style="stop-color:#090909;stop-opacity:0.5373"/><stop offset="0.2752" style="stop-color:#212121;stop-opacity:0.4349"/><stop offset="0.4907" style="stop-color:#484849;stop-opacity:0.3056"/><stop offset="0.7426" style="stop-color:#7E7F80;stop-opacity:0.1545"/><stop offset="1" style="stop-color:#BCBEC0;stop-opacity:0"/></linearGradient><path d="M534.386,1023.521L278.255,767.384l-19.512-153.968l275.643-363.674l66.508-41.144  l411.645,411.64c0,0-14.833,66.593-35.901,107.116c-21.067,40.524-36.143,69.144-57.884,95.65s-43.501,52.191-65.996,71.134  c-22.495,18.943-45.041,38.513-73.965,54.94s-51.493,29.25-77.567,38.813c-26.073,9.563-55.751,19.684-79.018,24.217  c-23.268,4.532-34.515,6.476-42.907,7.508c-8.392,1.032-19.302,2.256-26.184,2.756S534.386,1023.521,534.386,1023.521z" fill="url(#Shadow_1_)" id="Shadow"/><polygon fill="#4688F4" points="745.735,767.384 278.268,767.384 367.161,613.416 834.629,613.416 "/><polygon fill="#20A464" points="511.997,362.564 278.265,767.403 189.371,613.436 423.104,208.597 "/><polygon fill="#FFCF49" points="600.892,208.598 834.626,613.436 656.839,613.436 423.105,208.597 "/><linearGradient gradientTransform="matrix(1 0 0 -1 214.3398 1116.0391)" gradientUnits="userSpaceOnUse" id="SVGID_1_" x1="92.124" x2="213.5541" y1="441.9082" y2="320.4779"><stop offset="0" style="stop-color:#0B2637;stop-opacity:0.45"/><stop offset="0.0466" style="stop-color:#102C40;stop-opacity:0.429"/><stop offset="0.368" style="stop-color:#2D4F76;stop-opacity:0.2844"/><stop offset="0.6454" style="stop-color:#42699E;stop-opacity:0.1596"/><stop offset="0.8652" style="stop-color:#4F79B6;stop-opacity:0.0606"/><stop offset="1" style="stop-color:#547FBF;stop-opacity:0"/></linearGradient><polygon fill="url(#SVGID_1_)" points="278.285,767.384 367.179,613.416 456.071,767.384 "/><linearGradient gradientTransform="matrix(1 0 0 -1 214.3398 1116.0391)" gradientUnits="userSpaceOnUse" id="SVGID_2_" x1="172.4136" x2="304.6062" y1="871.0898" y2="738.8973"><stop offset="0" style="stop-color:#014D5C;stop-opacity:0.5"/><stop offset="0.1973" style="stop-color:#02565C;stop-opacity:0.4013"/><stop offset="0.5191" style="stop-color:#066E5C;stop-opacity:0.2405"/><stop offset="0.923" style="stop-color:#0D965C;stop-opacity:0.0385"/><stop offset="1" style="stop-color:#0E9E5C;stop-opacity:0"/></linearGradient><polygon fill="url(#SVGID_2_)" points="423.105,208.597 482.593,413.495 511.997,362.563 "/></svg>