<?xml version="1.0" ?><!DOCTYPE svg  PUBLIC '-//W3C//DTD SVG 1.1//EN'  'http://www.w3.org/Graphics/SVG/1.1/DTD/svg11.dtd'><svg enable-background="new 0 0 1024 1024" height="1024px" id="Instagram_2_" version="1.1" viewBox="0 0 1024 1024" width="1024px" xml:space="preserve" xmlns="http://www.w3.org/2000/svg" xmlns:xlink="http://www.w3.org/1999/xlink"><g id="Background"><linearGradient gradientTransform="matrix(0.9397 0.3421 0.3421 -0.9397 122.3097 586.3499)" gradientUnits="userSpaceOnUse" id="bg_1_" x1="669.9531" x2="11.5176" y1="-189.1147" y2="595.4474"><stop offset="0" style="stop-color:#20254C"/><stop offset="0.0571" style="stop-color:#29254D"/><stop offset="0.1502" style="stop-color:#41234F"/><stop offset="0.2679" style="stop-color:#692152"/><stop offset="0.4039" style="stop-color:#A01F57"/><stop offset="0.5333" style="stop-color:#DA1C5C"/><stop offset="0.5924" style="stop-color:#DC255A"/><stop offset="0.6889" style="stop-color:#E13D56"/><stop offset="0.8106" style="stop-color:#EA654E"/><stop offset="0.9515" style="stop-color:#F69C44"/><stop offset="1" style="stop-color:#FBB040"/></linearGradient><circle cx="512.001" cy="512" fill="url(#bg_1_)" id="bg" r="512"/></g><linearGradient gradientTransform="matrix(1 0 0 -1 8.3398 1000.04)" gradientUnits="userSpaceOnUse" id="Shadow_1_" x1="289.8169" x2="865.8931" y1="702.0508" y2="125.9745"><stop offset="0" style="stop-color:#000000;stop-opacity:0.85"/><stop offset="0.2068" style="stop-color:#040409;stop-opacity:0.6742"/><stop offset="0.544" style="stop-color:#0E1021;stop-opacity:0.3876"/><stop offset="0.9674" style="stop-color:#1F2349;stop-opacity:0.0277"/><stop offset="1" style="stop-color:#20254C;stop-opacity:0"/></linearGradient><path d="M564.542,1021.417L280,736.875L278.875,735l-9.772-381.901  c0,0,29.998-106.604,139.493-106.604s250.169,0,250.169,0s48.315,10.945,57.315,28.776h16.398l288.968,288.966  c0,0-5.924,46.839-12.128,69.719c0,0-12.438,46.392-22.56,69.75c0,0-13.658,32.226-22.135,47.624c0,0-7.117,13.825-14.726,26.011  c0,0-12.305,19.639-17.562,27.067c0,0-12.303,17.122-16.608,22.576c0,0-10.664,13.647-18.386,22.284  c0,0-11.057,12.513-17.765,19.309c0,0-6.57,6.95-14.039,13.941c0,0-23.227,21.293-33.406,29.231c0,0-38.493,28.975-56.518,39.278  c0,0-26.515,15.543-43.138,23.099c0,0-33.204,14.739-45.364,18.994c0,0-12.729,4.69-23.185,7.827c0,0-16.249,4.968-25.785,7.307  c0,0-10.217,2.662-19.06,4.483c0,0-11.486,2.598-22.819,4.37c0,0-17.959,2.747-23.312,3.363L564.542,1021.417z" fill="url(#Shadow_1_)" id="Shadow"/><g id="Instagram_3_"><path d="M255.358,612.506c0,91.127,73.874,165,165,165   h183.283c91.127,0,165-73.873,165-165V411.495c0-91.127-73.873-165-165-165H420.358c-91.127,0-165,73.873-165,165V612.506z" fill="none" stroke="#FFFFFF" stroke-miterlimit="10" stroke-width="45"/><circle cx="512.001" cy="512" fill="none" r="121.412" stroke="#FFFFFF" stroke-miterlimit="10" stroke-width="45"/><circle cx="658.765" cy="364.563" fill="#FFFFFF" r="33.136"/></g></svg>