<?xml version="1.0" ?><!DOCTYPE svg  PUBLIC '-//W3C//DTD SVG 1.1//EN'  'http://www.w3.org/Graphics/SVG/1.1/DTD/svg11.dtd'><svg enable-background="new 0 0 1024 1024" height="1024px" id="Mail" version="1.1" viewBox="0 0 1024 1024" width="1024px" xml:space="preserve" xmlns="http://www.w3.org/2000/svg" xmlns:xlink="http://www.w3.org/1999/xlink"><g id="Background"><linearGradient gradientTransform="matrix(0.9397 0.3421 0.3421 -0.9397 122.0587 586.4846)" gradientUnits="userSpaceOnUse" id="bg_1_" x1="670.3545" x2="11.9384" y1="-189.7622" y2="594.816"><stop offset="0" style="stop-color:#001D3E"/><stop offset="0.1202" style="stop-color:#002547"/><stop offset="0.3161" style="stop-color:#003B5F"/><stop offset="0.5635" style="stop-color:#005F87"/><stop offset="0.8499" style="stop-color:#0090BE"/><stop offset="1" style="stop-color:#00ACDD"/></linearGradient><circle cx="511.918" cy="512.876" fill="url(#bg_1_)" id="bg" r="512"/></g><linearGradient gradientTransform="matrix(1 0 0 -1 8.3398 1000.04)" gradientUnits="userSpaceOnUse" id="Shadow_1_" x1="265.4429" x2="867.3614" y1="728.7266" y2="126.8081"><stop offset="0" style="stop-color:#000000"/><stop offset="0.2402" style="stop-color:#000409;stop-opacity:0.7598"/><stop offset="0.6306" style="stop-color:#001021;stop-opacity:0.3694"/><stop offset="1" style="stop-color:#001D3E;stop-opacity:0"/></linearGradient><path d="M549.771,1023.837L218.018,692.085V328.944l3.683-5.549H802.3l220.786,220.684  c0,0-1.835,29.761-5.768,51.186c-3.934,21.426-3.668,22.258-7.288,36.552s-8.369,31.82-12.334,43.249  c-3.965,11.428-6.229,18.318-10.632,28.91c-4.403,10.593-8.047,19.281-12.041,27.534c-3.995,8.253-5.743,12.146-10.269,20.506  c-4.525,8.36-17.498,30.476-23.375,39.729s-15.318,22.677-22.409,31.742c-7.091,9.064-12.492,15.938-18.313,22.608  c-5.822,6.67-10.248,11.811-16.37,18.187s-7.609,8.119-14.125,14.39c-6.517,6.271-10.049,9.741-15.883,14.912  s-19.595,16.647-26.186,22.031s-16.073,12.397-24.74,18.278c-8.667,5.882-28.679,18.807-38.679,24.347s-27.85,15.085-39.646,20.313  c-11.798,5.229-25.189,11.085-37.291,15.336c-12.103,4.251-18.737,6.611-31.487,10.361s-28.044,7.541-37.269,9.414  c-9.226,1.873-9.206,2.377-17.981,3.837s-12.73,2.142-18.865,2.944c-6.135,0.802-10.747,1.428-16.751,2.014  S554.811,1023.495,549.771,1023.837z" fill="url(#Shadow_1_)" id="Shadow"/><g id="Mail_1_"><polygon fill="#FFFFFF" points="590.791,530.131 512,594.739 433.209,530.131 369.021,582.765 226.04,700.01 512,700.01    797.96,700.01 654.979,582.765  "/><polygon fill="#FFFFFF" points="405.125,510.515 311.571,419.729 218.018,328.944 218.018,510.516 218.018,692.085    311.571,601.298  "/><polygon fill="#FFFFFF" points="511.999,573.11 657.15,448.253 802.299,323.396 511.999,323.396 221.701,323.396 366.85,448.253     "/><polygon fill="#FFFFFF" points="712.429,419.73 618.874,510.515 712.429,601.3 805.982,692.085 805.982,510.515 805.982,328.944     "/></g></svg>