<?xml version="1.0" ?><!DOCTYPE svg  PUBLIC '-//W3C//DTD SVG 1.1//EN'  'http://www.w3.org/Graphics/SVG/1.1/DTD/svg11.dtd'><svg enable-background="new 0 0 1024 1024" height="1024px" version="1.1" viewBox="0 0 1024 1024" width="1024px" xml:space="preserve" xmlns="http://www.w3.org/2000/svg" xmlns:xlink="http://www.w3.org/1999/xlink"><g id="Background"><linearGradient gradientTransform="matrix(0.9397 0.3421 -0.3421 0.9397 412.0643 -288.1289)" gradientUnits="userSpaceOnUse" id="bg_1_" x1="696.8169" x2="38.4004" y1="1109.9336" y2="325.3549"><stop offset="0" style="stop-color:#005CDC"/><stop offset="0.1641" style="stop-color:#0065DF"/><stop offset="0.4318" style="stop-color:#007DE7"/><stop offset="0.7677" style="stop-color:#00A5F4"/><stop offset="1" style="stop-color:#00C4FF"/></linearGradient><circle cx="512.001" cy="512" fill="url(#bg_1_)" id="bg" r="512"/></g><g id="Messenger"><linearGradient gradientUnits="userSpaceOnUse" id="Shadow_1_" x1="277.4907" x2="843.1685" y1="339.3896" y2="905.0674"><stop offset="0" style="stop-color:#000000;stop-opacity:0.8"/><stop offset="0.0946" style="stop-color:#000409;stop-opacity:0.7243"/><stop offset="0.249" style="stop-color:#000E21;stop-opacity:0.6008"/><stop offset="0.444" style="stop-color:#001F49;stop-opacity:0.4448"/><stop offset="0.672" style="stop-color:#003680;stop-opacity:0.2624"/><stop offset="0.9249" style="stop-color:#0053C6;stop-opacity:0.0601"/><stop offset="1" style="stop-color:#005CDC;stop-opacity:0"/></linearGradient><path d="M475.819,1022.741L270.952,817.874L308,683c0,0-132.867-123.886-66.87-276.878   s204.105-167.339,241.488-167.231s154.492,2.239,215.989,53.237l32.671,16.025l286.143,286.144c0,0-6.679,41.538-16.41,69.861   s-20.438,55.785-27.695,70.221s-36.855,66.198-52.478,85.876s-23.285,31.295-45.047,52.023s-53.967,48.931-75.167,62.672   s-63.565,38.788-89.732,48.984s-38.183,15.769-63.759,22.043s-54.232,12.42-73.68,14.372s-50.669,3.595-56.075,3.623   S478.134,1022.908,475.819,1022.741z" fill="url(#Shadow_1_)" id="Shadow"/><path d="M512,238.891   c-155.541,0-281.633,118.619-281.633,264.943c0,69.376,28.358,132.513,74.749,179.744l-10.61,101.532l94.169-43.032   c37.248,17.095,79.092,26.699,123.325,26.699c155.542,0,281.633-118.619,281.633-264.942   C793.633,357.51,667.542,238.891,512,238.891z" fill="none" stroke="#FFFFFF" stroke-miterlimit="10" stroke-width="40"/><polygon fill="#FCFCFC" points="332.421,585.326 481.896,438.674 556.926,505.039 691.579,438.674 541.519,585.326    466.822,518.961  "/></g></svg>