<?xml version="1.0" ?><!DOCTYPE svg  PUBLIC '-//W3C//DTD SVG 1.1//EN'  'http://www.w3.org/Graphics/SVG/1.1/DTD/svg11.dtd'><svg enable-background="new 0 0 1024 1024" height="1024px" id="Layer_1" version="1.1" viewBox="0 0 1024 1024" width="1024px" xml:space="preserve" xmlns="http://www.w3.org/2000/svg" xmlns:xlink="http://www.w3.org/1999/xlink"><g id="Background"><linearGradient gradientTransform="matrix(0.9397 0.3421 0.3421 -0.9397 122.0587 586.4846)" gradientUnits="userSpaceOnUse" id="bg_1_" x1="670.1338" x2="11.7176" y1="-188.9102" y2="595.6682"><stop offset="0" style="stop-color:#E35200"/><stop offset="0.1665" style="stop-color:#E55B00"/><stop offset="0.4381" style="stop-color:#EC7300"/><stop offset="0.7789" style="stop-color:#F79B00"/><stop offset="1" style="stop-color:#FFB800"/></linearGradient><circle cx="512.001" cy="512" fill="url(#bg_1_)" id="bg" r="512"/></g><linearGradient gradientTransform="matrix(1 0 0 -1 8.3398 1000.04)" gradientUnits="userSpaceOnUse" id="Shadow_1_" x1="293.7378" x2="847.78" y1="662.1182" y2="108.0759"><stop offset="0" style="stop-color:#000000"/><stop offset="0.0925" style="stop-color:#090300;stop-opacity:0.9075"/><stop offset="0.2433" style="stop-color:#210D00;stop-opacity:0.7567"/><stop offset="0.4339" style="stop-color:#491C00;stop-opacity:0.5661"/><stop offset="0.6567" style="stop-color:#803200;stop-opacity:0.3433"/><stop offset="0.9038" style="stop-color:#C64D00;stop-opacity:0.0962"/><stop offset="1" style="stop-color:#E35800;stop-opacity:0"/></linearGradient><path d="M633.95,1009.388L337.677,713.114c0,0-19.677-49.114,10.323-81.114  s78.35-29.088,78.35-29.088L316,492l11-79l71.899-6.356L316,324c0,0,255.667,1.667,305.667,26.333s51.58,19.173,51.58,19.173  l319.379,319.37c0,0-4.081,10.992-6.901,17.716c-2.819,6.725-4.109,10.042-7.605,17.552c-3.496,7.511-4.903,10.631-7.838,16.413  c-2.936,5.783-4.049,8.083-6.933,13.374c-2.883,5.291-3.654,6.871-7.071,12.729s-3.07,5.493-7.086,11.957  c-4.017,6.464-6.729,10.851-10.214,16.035c-3.483,5.184-4.657,7.03-8.249,12.059c-3.591,5.028-5.399,7.7-9.967,13.653  c-4.566,5.953-9.18,11.874-12.513,15.899c-3.333,4.026-5.421,6.565-8.292,9.866s-9.434,10.885-15.81,17.511  s-12.04,12.497-17.938,18.063c-5.899,5.565-7.548,7.361-15.201,13.994s-10.593,9.299-17.308,14.638s-10.777,8.646-17.422,13.481  c-6.646,4.836-10.525,7.648-14.847,10.584c-4.32,2.935-5.897,4.126-12.318,8.198c-6.421,4.073-9.6,6.098-13.862,8.63" fill="url(#Shadow_1_)" id="Shadow"/><g id="RSS_1_"><circle cx="386.997" cy="662.018" fill="#FFFFFF" r="71.003"/><path d="M316,396v96c245,20,238.614,241.021,238.614,241.021h98.995C629.61,386.957,316,396,316,396z" fill="#FFFFFF"/><path d="M316,224.129V324c0,0,381-0.958,409,409.021h101.333C826.333,733.021,819,251.259,316,224.129z" fill="#FFFFFF"/></g></svg>