<?xml version="1.0" ?><!DOCTYPE svg  PUBLIC '-//W3C//DTD SVG 1.1//EN'  'http://www.w3.org/Graphics/SVG/1.1/DTD/svg11.dtd'><svg enable-background="new 0 0 1024 1024" height="1024px" id="Tinder_2_" version="1.1" viewBox="0 0 1024 1024" width="1024px" xml:space="preserve" xmlns="http://www.w3.org/2000/svg" xmlns:xlink="http://www.w3.org/1999/xlink"><g id="Background"><linearGradient gradientTransform="matrix(0.9397 0.3421 0.3421 -0.9397 275.9532 765.9631)" gradientUnits="userSpaceOnUse" id="bg_1_" x1="464.1323" x2="-194.2839" y1="-72.9106" y2="711.6677"><stop offset="0" style="stop-color:#E80066"/><stop offset="0.1393" style="stop-color:#EA0964"/><stop offset="0.3666" style="stop-color:#EE215E"/><stop offset="0.6534" style="stop-color:#F54954"/><stop offset="0.9858" style="stop-color:#FF8047"/><stop offset="1" style="stop-color:#FF8246"/></linearGradient><circle cx="512.001" cy="512" fill="url(#bg_1_)" id="bg" r="512"/></g><linearGradient gradientTransform="matrix(1 0 0 -1 214.3398 1116.0391)" gradientUnits="userSpaceOnUse" id="Shadow_1_" x1="122.3208" x2="641.3615" y1="742.6475" y2="223.6068"><stop offset="0" style="stop-color:#000000"/><stop offset="0.091" style="stop-color:#090004;stop-opacity:0.909"/><stop offset="0.2395" style="stop-color:#21000F;stop-opacity:0.7605"/><stop offset="0.4271" style="stop-color:#490020;stop-opacity:0.5729"/><stop offset="0.6464" style="stop-color:#800038;stop-opacity:0.3536"/><stop offset="0.8895" style="stop-color:#C60057;stop-opacity:0.1105"/><stop offset="1" style="stop-color:#E80066;stop-opacity:0"/></linearGradient><path d="M597.052,1016.968l-271.65-271.687c0,0-61.068-175.614,69.599-298.281  c0,0,26.667,46,50,56s158.667-210,104.667-286.667l-22.182-33.766L1003.24,656.79c0,0-2.071,6.893-2.74,9.002  s-4.089,12.602-5.845,17.472s-3.002,8.456-5.316,14.297c-2.313,5.842-2.696,6.889-4.427,10.997  c-1.731,4.109-4.03,9.526-5.992,13.819s-4.703,10.255-7.085,15.042s-8.664,17.526-15.22,28.646  c-6.557,11.121-14.182,23.967-22.02,35.079c-7.837,11.113-8.371,12.431-16.604,22.85s-15.511,19.698-24.379,29.356  s-15.306,16.727-23.475,24.547c-8.169,7.821-16.872,16.242-26.984,24.606c-10.113,8.364-14.629,12.201-22.539,18.067  c-7.91,5.865-19.097,14.178-30.198,21.185c-11.101,7.007-17.06,10.925-27.477,16.636s-18.308,10.222-30.452,15.832  c-12.146,5.611-12.958,6.56-28.39,12.52c-15.431,5.96-16.343,6.742-30.296,11.165c-13.953,4.422-25.982,8.18-37.712,10.952  c-11.729,2.771-18.996,4.441-25.872,5.729S597.052,1016.968,597.052,1016.968z" fill="url(#Shadow_1_)" id="Shadow"/><path d="M580.362,236.578c35.065,37.836,67.536,78.374,94.54,122.397  c70.258,114.533,126.727,303.889,1.049,403.783c-62.703,49.838-155.049,61.688-231.968,45.458  c-65.563-13.833-131.554-56.693-157.375-120.697c-30.65-75.971-2.637-161.614,36.445-228.918  c7.905-13.611,16.491-26.822,25.625-39.639c17.315-24.293,35.685-45.688,55.823-67.716c0,0-5.525,56.7,33.353,99.559  c0,0,153.175-97.168,87.324-271.75C525.177,179.055,561.572,216.305,580.362,236.578z" fill="#FFFFFF" id="Tinder_1_"/></svg>