<?xml version="1.0" ?><!DOCTYPE svg  PUBLIC '-//W3C//DTD SVG 1.1//EN'  'http://www.w3.org/Graphics/SVG/1.1/DTD/svg11.dtd'><svg enable-background="new 0 0 1024 1024" height="1024px" id="Tumblr_2_" version="1.1" viewBox="0 0 1024 1024" width="1024px" xml:space="preserve" xmlns="http://www.w3.org/2000/svg" xmlns:xlink="http://www.w3.org/1999/xlink"><g id="Background"><linearGradient gradientTransform="matrix(0.9397 0.3421 0.3421 -0.9397 122.0987 586.4661)" gradientUnits="userSpaceOnUse" id="bg_1_" x1="670.1016" x2="11.6826" y1="-188.9409" y2="595.6349"><stop offset="0" style="stop-color:#041121"/><stop offset="0.1665" style="stop-color:#0B192A"/><stop offset="0.4381" style="stop-color:#1E2E42"/><stop offset="0.7789" style="stop-color:#3C506A"/><stop offset="1" style="stop-color:#536987"/></linearGradient><circle cx="512.001" cy="512" fill="url(#bg_1_)" id="bg" r="512"/></g><linearGradient gradientTransform="matrix(1 0 0 -1 8.3398 1000.04)" gradientUnits="userSpaceOnUse" id="Shadow_1_" x1="346.1738" x2="866.0507" y1="646.0537" y2="126.1768"><stop offset="0" style="stop-color:#000000"/><stop offset="0.3739" style="stop-color:#030609;stop-opacity:0.6261"/><stop offset="0.982" style="stop-color:#0B1421;stop-opacity:0.018"/><stop offset="1" style="stop-color:#0B1522;stop-opacity:0"/></linearGradient><path d="M684.609,994.026L443.487,752.904l-5.987-9.237V519.591l-27.016-8.566L352.5,453.026  l1.25-70.526v-27.75C353.75,354.75,455,398,472,240l68.5-9.974l453.659,454.243c0,0-12.631,33.665-21.249,50.678  c0,0-11.133,22.501-18.366,34.563c0,0-11.915,19.896-17.896,28.594c0,0-7.914,11.761-13.885,19.636c0,0-21.481,27.179-27.008,33.34  c0,0-16.074,17.597-22.133,23.546c0,0-17.813,17.187-24.992,23.335c0,0-13.354,11.424-19.823,16.434c0,0-9.939,7.717-14.862,11.262  s-23.689,16.476-31.743,21.364c0,0-26.945,15.813-36.122,20.399c0,0-15.397,7.696-22.446,10.823c0,0-13.388,6.019-22.212,9.435  L684.609,994.026z" fill="url(#Shadow_1_)" id="Shadow"/><path d="M661.084,351.943v101.25l-120.25,0.083c0,5.778,0.002,11.558-0.001,17.336  c-0.007,13.984-0.001,27.971,0.003,41.956c0.006,17.059-0.009,34.116-0.007,51.176c0.002,12.755,0.032,25.51,0.021,38.264  c-0.017,19.464,1.221,40.189,11.955,57.082c2.877,4.527,6.644,8.568,10.859,11.887c5.334,4.198,12.148,6.772,18.852,7.759  c2.864,0.429,5.78,0.683,8.725,0.793c11.772,0.44,23.97-1.402,34.961-3.467c15.436-2.897,30.54-7.727,45.299-13.034  c0,0,0,115.333,0,115.334c0,1.439-30.247,6.891-33.253,7.499c-11.082,2.244-22.233,4.182-33.452,5.605  c-39.21,4.979-79.185,3.102-116.501-10.668c-27.896-10.292-49.052-25.938-61.9-53.282c-17.852-37.987-16.062-77.156-15.909-118.125  c0.083-22.247,0.063-44.499,0.028-66.745c-0.029-19.883-0.038-39.766-0.021-59.646c0.008-9.832,0.042-19.665,0.016-29.497  c0-0.159-0.006-0.317-0.007-0.476h-58v-100c0,0,96,11,110-123h78v122L661.084,351.943" fill="#FFFFFF" id="Tumblr_1_"/></svg>