<?xml version="1.0" ?><!DOCTYPE svg  PUBLIC '-//W3C//DTD SVG 1.1//EN'  'http://www.w3.org/Graphics/SVG/1.1/DTD/svg11.dtd'><svg enable-background="new 0 0 1024 1024" height="1024px" id="Twich_3_" version="1.1" viewBox="0 0 1024 1024" width="1024px" xml:space="preserve" xmlns="http://www.w3.org/2000/svg" xmlns:xlink="http://www.w3.org/1999/xlink"><g id="Background"><linearGradient gradientTransform="matrix(0.9397 0.3421 0.3421 -0.9397 122.9679 437.8215)" gradientUnits="userSpaceOnUse" id="SVGID_1_" x1="720.1328" x2="61.7166" y1="-328.9106" y2="455.6677"><stop offset="0" style="stop-color:#6414A4"/><stop offset="0.2088" style="stop-color:#641DAB"/><stop offset="0.5493" style="stop-color:#6535BE"/><stop offset="0.9769" style="stop-color:#665DDC"/><stop offset="1" style="stop-color:#665FDE"/></linearGradient><circle cx="512.001" cy="512" fill="url(#SVGID_1_)" r="512"/></g><linearGradient gradientTransform="matrix(1 0 0 -1 -41.6602 860.04)" gradientUnits="userSpaceOnUse" id="SVGID_2_" x1="328.1445" x2="919.2114" y1="580.585" y2="-10.4821"><stop offset="0" style="stop-color:#000000;stop-opacity:0.8"/><stop offset="0.1174" style="stop-color:#050109;stop-opacity:0.7061"/><stop offset="0.3089" style="stop-color:#140421;stop-opacity:0.5529"/><stop offset="0.5508" style="stop-color:#2D0949;stop-opacity:0.3594"/><stop offset="0.8307" style="stop-color:#4E107F;stop-opacity:0.1355"/><stop offset="1" style="stop-color:#6414A4;stop-opacity:0"/></linearGradient><path d="M1023.651,530.944L766.903,274.197h-475.16l-34.646,92.805v368.744l287.271,287.245  C805.809,1006.683,1014.077,794.165,1023.651,530.944z" fill="url(#SVGID_2_)"/><g id="Twich"><rect fill="#FFFFFF" height="139.825" width="45.784" x="466.216" y="412.786"/><rect fill="#FFFFFF" height="139.825" width="45.783" x="593.668" y="412.786"/><path d="M291.743,274.197l-34.646,92.805v368.744h128.689v68.057h73.006l64.345-68.057h103.941   l139.825-136.113V274.197H291.743z M721.12,574.885l-81.668,80.432H509.525l-65.582,69.295v-69.295H338.765V319.981H721.12V574.885   z" fill="#FFFFFF" id="Twich_1_"/></g></svg>