<?xml version="1.0" ?><!DOCTYPE svg  PUBLIC '-//W3C//DTD SVG 1.1//EN'  'http://www.w3.org/Graphics/SVG/1.1/DTD/svg11.dtd'><svg enable-background="new 0 0 1024 1024" height="1024px" id="Youtube" version="1.1" viewBox="0 0 1024 1024" width="1024px" xml:space="preserve" xmlns="http://www.w3.org/2000/svg" xmlns:xlink="http://www.w3.org/1999/xlink"><g id="Background"><linearGradient gradientTransform="matrix(0.9397 0.342 0.342 -0.9397 -83.4503 730.1777)" gradientUnits="userSpaceOnUse" id="bg_1_" x1="814.1367" x2="155.7213" y1="16.3535" y2="800.978"><stop offset="0" style="stop-color:#740700"/><stop offset="0.1565" style="stop-color:#7D0A03"/><stop offset="0.4117" style="stop-color:#95120C"/><stop offset="0.7317" style="stop-color:#BD1F1A"/><stop offset="1" style="stop-color:#E32B27"/></linearGradient><circle cx="512.001" cy="512" fill="url(#bg_1_)" id="bg" r="512"/></g><linearGradient gradientTransform="matrix(1 0 0 -1 8.3398 1000.04)" gradientUnits="userSpaceOnUse" id="Shadow_1_" x1="293.8013" x2="865.4174" y1="697.3574" y2="125.7414"><stop offset="0" style="stop-color:#000000"/><stop offset="0.1525" style="stop-color:#090101;stop-opacity:0.8475"/><stop offset="0.4011" style="stop-color:#210505;stop-opacity:0.5989"/><stop offset="0.7128" style="stop-color:#490A0B;stop-opacity:0.2872"/><stop offset="1" style="stop-color:#731012;stop-opacity:0"/></linearGradient><path d="M571.333,1020.667l-327.54-327.54l-0.543-0.96C243.25,692.167,199,397,262,343  c0,0,319-31.246,500-9.623h19.627l238.922,238.922c0,0-7.75,64.455-29.648,120.828c0,0-21.573,52.121-35.463,74.836  c0,0-24.989,40.49-37.416,56.053c0,0-43.91,54.385-74.831,78.619c0,0-10.134,9.746-29.313,23.066c0,0-17.172,12.713-32.249,21.673  c0,0-43.714,25.012-62.328,32.802s-18.614,7.79-18.614,7.79l0,0c0,0-8.426,3.406-16.606,6.251c0,0-11.099,3.872-15.84,5.37  s4.741-1.498,4.741-1.498s-23.16,7.164-30.8,9.119c0,0-22.027,5.398-28.889,6.743c0,0-31.345,5.553-41.266,6.634L571.333,1020.667z" fill="url(#Shadow_1_)" id="Shadow"/><path d="M625.91,299.833c-58.021-1.709-116.071-2.112-174.105-1.209  c-164.298,3.127-233.243,0.604-241.519,126.994c-1.786,53.471-1.916,106.815-0.387,160.269  c8.198,137.809,52.407,135.276,241.907,139.573c52.921,0.824,105.855,0.561,158.77-0.788  c133.299-3.671,195.297-0.43,203.528-138.859c1.525-53.427,1.396-106.749-0.39-160.193  C805.47,298.718,733.983,302.912,625.91,299.833z M450.41,590.845c-0.321-57.301-0.292-114.636,0.087-171.931  c53.289,28.274,107.172,57.39,160.931,85.99C557.715,533.411,503.803,562.511,450.41,590.845z" fill="#FFFFFF" id="Youtube_1_"/></svg>