<?xml version="1.0" ?><!DOCTYPE svg  PUBLIC '-//W3C//DTD SVG 1.1//EN'  'http://www.w3.org/Graphics/SVG/1.1/DTD/svg11.dtd'><svg enable-background="new 0 0 1024 1024" height="1024px" id="OneDrive_1_" version="1.1" viewBox="0 0 1024 1024" width="1024px" xml:space="preserve" xmlns="http://www.w3.org/2000/svg" xmlns:xlink="http://www.w3.org/1999/xlink"><g id="Background"><linearGradient gradientTransform="matrix(0.9397 0.3421 0.3421 -0.9397 275.9532 765.9631)" gradientUnits="userSpaceOnUse" id="bg_1_" x1="464.1323" x2="-194.2839" y1="-72.9106" y2="711.6677"><stop offset="0" style="stop-color:#093BB2"/><stop offset="0.2048" style="stop-color:#0941BB"/><stop offset="0.5387" style="stop-color:#0951D3"/><stop offset="0.9581" style="stop-color:#096BFB"/><stop offset="1" style="stop-color:#096EFF"/></linearGradient><circle cx="512.001" cy="512" fill="url(#bg_1_)" id="bg" r="512"/></g><path d="M803.431,546.258c39.892,5.517,69.003,40.525,67.148,80.754c0,35.329-19.75,77.022-67.148,77.022H418.757  c-73.729,0-100.502-50.472-100.502-102.479c0-87.773,96.991-90.188,96.991-90.188s7.9-95.236,92.603-114.546  c52.896-15.158,109.44,6.494,138.686,53.104c30.569-15.615,66.48-16.9,98.089-3.511C783.696,463.541,807.398,503.78,803.431,546.258  z" fill="#FFFFFF"/><path d="M293.897,604.849c0-96.99,102.478-111.475,102.478-111.475c9.77-56.262,51.145-101.826,106.208-116.959  c55.587-17.62,116.197,2.583,150.095,50.031c15.373-8.29,32.87-11.804,50.25-10.094c-7.09-57.202-44.891-105.947-98.526-127.054  c-71.072-29.483-152.886,0.362-188.277,68.684c-34.635-19.813-76.97-20.639-112.352-2.194  c-43.982,24.141-69.162,72.336-63.856,122.227c-50.808,4.422-89.011,48.25-86.458,99.187c1.581,52.282,43.406,94.394,95.675,96.333  h64.295C300.299,653.059,293.505,629.166,293.897,604.849z" fill="#F9F9F9"/></svg>