<?xml version="1.0" ?><!DOCTYPE svg  PUBLIC '-//W3C//DTD SVG 1.1//EN'  'http://www.w3.org/Graphics/SVG/1.1/DTD/svg11.dtd'><svg enable-background="new 0 0 1024 1024" height="1024px" id="Tinder" version="1.1" viewBox="0 0 1024 1024" width="1024px" xml:space="preserve" xmlns="http://www.w3.org/2000/svg" xmlns:xlink="http://www.w3.org/1999/xlink"><g id="Background"><linearGradient gradientTransform="matrix(0.9397 0.3421 0.3421 -0.9397 275.9532 765.9631)" gradientUnits="userSpaceOnUse" id="bg_1_" x1="464.1323" x2="-194.2839" y1="-72.9106" y2="711.6677"><stop offset="0" style="stop-color:#E80066"/><stop offset="0.1393" style="stop-color:#EA0964"/><stop offset="0.3666" style="stop-color:#EE215E"/><stop offset="0.6534" style="stop-color:#F54954"/><stop offset="0.9858" style="stop-color:#FF8047"/><stop offset="1" style="stop-color:#FF8246"/></linearGradient><circle cx="512.001" cy="512" fill="url(#bg_1_)" id="bg" r="512"/></g><path d="M580.362,236.578c35.065,37.836,67.536,78.374,94.54,122.397  c70.258,114.533,126.727,303.889,1.049,403.783c-62.703,49.838-155.049,61.688-231.968,45.458  c-65.563-13.833-131.554-56.693-157.375-120.697c-30.65-75.971-2.637-161.614,36.445-228.918  c7.905-13.611,16.491-26.822,25.625-39.639c17.315-24.293,35.685-45.688,55.823-67.716c0,0-5.525,56.7,33.353,99.559  c0,0,153.175-97.168,87.324-271.75C525.177,179.055,561.572,216.305,580.362,236.578z" fill="#FFFFFF" id="Tinder_1_"/></svg>