<?xml version="1.0" ?><svg height="60px" version="1.1" viewBox="0 0 60 60" width="60px" xmlns="http://www.w3.org/2000/svg" xmlns:sketch="http://www.bohemiancoding.com/sketch/ns" xmlns:xlink="http://www.w3.org/1999/xlink"><title/><desc/><defs/><g fill="none" fill-rule="evenodd" id="soical" stroke="none" stroke-width="1"><g id="social" transform="translate(-773.000000, -738.000000)"><g id="slices" transform="translate(173.000000, 138.000000)"/><g fill="#000000" id="square-black" transform="translate(173.000000, 138.000000)"><path d="M602.995937,600 L657.004063,600 C658.658673,600 660,601.33731 660,602.995937 L660,657.004063 C660,658.658673 658.66269,660 657.004063,660 L602.995937,660 C601.341327,660 600,658.66269 600,657.004063 L600,602.995937 C600,601.341327 601.33731,600 602.995937,600 Z" id="square-67"/></g><g fill="#FFFFFF" id="icon" transform="translate(182.000000, 150.000000)"><path d="M630.340634,621.504075 C630.340634,624.436864 629.854277,627.078368 622.143028,627.301334 L622.159471,622.134231 C622.159471,622.093558 622.153413,622.02 622.143029,621.982788 C622.091969,621.801923 621.928406,621.668654 621.733689,621.668654 C621.623782,621.668654 621.521663,621.725769 621.415217,621.830481 L610.242753,632.998269 L617.74241,633 L626.059882,633 C632.640472,633 636,629.209615 636,622.1325 L636,617.188558 L636,607.285096 L630.340634,613.405321 L630.340634,621.504075 Z M611.659799,614.495925 C611.659799,611.563136 612.146155,608.921632 619.857405,608.698666 L619.840961,613.865769 C619.840961,613.906442 619.847019,613.98 619.857404,614.017212 C619.908463,614.198077 620.072026,614.331346 620.266744,614.331346 C620.376651,614.331346 620.47877,614.274231 620.585215,614.169519 L631.75768,603.001731 L624.258022,603 L615.940551,603 C609.359961,603 606.000433,606.790385 606.000433,613.8675 L606.000433,618.811442 L606.000433,628.714904 L611.659799,622.594679 L611.659799,614.495925 Z" id="flattr"/></g></g></g></svg>