<?xml version="1.0" ?><svg height="60px" version="1.1" viewBox="0 0 60 60" width="60px" xmlns="http://www.w3.org/2000/svg" xmlns:sketch="http://www.bohemiancoding.com/sketch/ns" xmlns:xlink="http://www.w3.org/1999/xlink"><title/><desc/><defs/><g fill="none" fill-rule="evenodd" id="soical" stroke="none" stroke-width="1"><g id="social" transform="translate(-973.000000, -138.000000)"><g id="slices" transform="translate(173.000000, 138.000000)"/><g fill="#000000" id="square-black" transform="translate(173.000000, 138.000000)"><path d="M802.995937,0 L857.004063,0 C858.658673,0 860,1.33730974 860,2.99593743 L860,57.0040626 C860,58.6586731 858.66269,60 857.004063,60 L802.995937,60 C801.341327,60 800,58.6626903 800,57.0040626 L800,2.99593743 C800,1.34132688 801.33731,0 802.995937,0 Z" id="square-9"/></g><g fill="#FFFFFF" id="icon" transform="translate(182.000000, 150.000000)"><path d="M835.634589,9.92307692 C835.60164,13.556406 834.000023,16.5315784 830.860539,18.7546703 C827.784804,20.9328722 823.482071,22.0399291 818.071242,22.0447634 L816.852838,22.0447634 C816.436676,22.0447634 815.960345,22.4073366 815.872242,22.791319 L814.401705,28.9005053 C814.089405,30.2292499 812.732758,31.2734608 811.31451,31.2734608 L807.233109,31.2734608 L807.195862,31.4295399 C806.988855,32.2893565 807.566899,33 808.486611,33 L812.746367,33 C813.667512,33 814.580061,32.3073125 814.787068,31.4295399 L816.255455,25.3307128 C816.451001,24.4778025 817.361402,23.7719932 818.284695,23.7719932 L819.502382,23.7719932 C824.711935,23.7671589 828.753224,22.7395228 831.65705,20.6828693 C834.556578,18.6296688 836.006342,15.9093337 835.999895,12.5446541 C836.004193,11.5584549 835.875978,10.6917322 835.634589,9.92307692 Z M823.782623,14.395019 C822.558465,15.25878 820.860904,15.6923077 818.657148,15.6923077 L817.661154,15.6923077 C816.78334,15.6923077 816.229327,15.020274 816.423334,14.1960444 L817.646125,9.11362453 C817.831935,8.29532463 818.708382,7.61538462 819.586195,7.62329089 L820.914871,7.61538462 C822.468293,7.61538462 823.64873,7.87233869 824.445252,8.38163484 C825.230161,8.87775386 825.629105,9.66113436 825.61476,10.7153049 C825.637986,12.3011728 825.013611,13.5292815 823.782623,14.395019 Z M834.03377,6.04674906 C833.504435,5.03077149 832.710789,4.20573006 831.697961,3.58289776 C830.647168,2.94456511 829.425184,2.50562334 828.00049,2.24000368 C826.567201,1.98777069 824.89324,1.86376788 822.97216,1.84615385 L814.080182,1.8524949 C813.156172,1.86376788 812.250786,2.57607948 812.037333,3.45044021 L806.042016,29.090135 C805.835009,29.967314 806.413052,30.6923077 807.332764,30.6923077 L811.592519,30.6923077 C812.513663,30.6923077 813.426212,29.9856326 813.633219,29.090135 L815.101606,22.8681531 C815.297152,21.9980197 816.207552,21.2779579 817.130845,21.2779579 L818.348532,21.2779579 C823.558082,21.273026 827.59937,20.2246386 830.503195,18.1264547 C833.402722,16.0317936 834.852486,13.2565261 834.846039,9.82390286 C834.852486,8.31543685 834.58746,7.0542719 834.03377,6.04674906" id="paypal"/></g></g></g></svg>