<?xml version="1.0" encoding="UTF-8"?>
<svg xmlns="http://www.w3.org/2000/svg" viewBox="0 0 1265 630">
    <path fill="currentColor" d="M952.79,1.31c-76.36,10.15-148.76,50.97-229.17,129.22-19.58,18.99-33.04,33.07-64.98,68.1-22.75,24.99-26.11,28.16-27.79,27.17-1.09-.65-9.89-10.15-19.68-21.17C498.01,76.83,424.62,23.03,339.65,5.78c-55.39-11.24-112.85-4.15-165.08,20.3C87.04,67.12,22.95,153.44,5.04,254.5c-4.06,22.59-5.04,34.71-5.04,61.66,0,42.78,5.34,78.47,17.41,116.23,33.43,105.21,113.25,177.56,214.04,194.15,62.71,10.37,132.24-2.84,193.56-36.56,24.03-13.21,44.31-27.28,69.53-48.13,31.75-26.08,54.99-49.11,104.94-103.68,17.41-19.1,32.34-34.71,33.04-34.71.79,0,7.62,7.2,15.23,15.93,17.01,19.54,58.55,63.74,76.16,81.09,81.11,79.78,142.63,115.14,220.17,126.92,5.74.87,19.19,1.31,34.62,1.31,21.07,0,27.6-.44,39.56-2.51,64.29-10.91,119.19-41.36,164.09-90.8,45.2-49.88,73.39-114.05,81.4-185.42,1.88-16.92,1.58-61.44-.59-78.58-7.71-61.23-27.2-116.45-56.18-159.01-9.4-13.97-29.08-36.23-42.04-47.47-36-31.65-82.79-53.04-136.3-62.21-17.01-2.84-58.75-3.71-75.86-1.42ZM326.6,132.16c33.23,7.75,66.86,25.43,99.9,52.49,11.77,9.6,29.38,25.54,40.85,37,14.44,14.52,87.04,92.77,87.04,93.86,0,1.75-63.3,70.83-78.63,86-48.66,47.8-93.67,78.03-136,91.56-19.98,6.33-31.75,8.08-55.88,8.08-18.79,0-23.24-.33-33.04-2.51-58.36-12.99-101.08-55-119.68-117.54-15.83-53.37-12.86-104.01,8.9-151.15,24.93-54.13,69.83-89.93,125.22-99.86,6.23-1.09,14.44-1.42,28.98-1.09,17.01.33,22.25.87,32.34,3.16ZM1005.41,130.09c32.34,5.02,59.84,18.66,83.18,41.25,43.42,41.91,64.19,116.01,51.14,183.02-13.25,68.21-60.83,123.43-121.56,141.33-14.64,4.26-27.6,6-44.9,6-30.66,0-55.29-6.77-86.05-23.46-32.34-17.46-63.5-42.67-102.57-83.05-24.53-25.32-73.49-78.47-73.79-80.11-.3-1.75,46.09-54.02,66.07-74.32,67.46-68.76,120.77-101.82,178.04-110.66,12.86-1.96,37.78-1.96,50.44,0Z"/>
</svg>