<!DOCTYPE svg PUBLIC "-//W3C//DTD SVG 20010904//EN" "http://www.w3.org/TR/2001/REC-SVG-20010904/DTD/svg10.dtd">
<svg version="1.0" xmlns="http://www.w3.org/2000/svg" width="230pt" height="70pt" viewBox="0 0 12000 3600" preserveAspectRatio="xMidYMid meet">
<g id="layer101" fill="#1a171c" stroke="none">
<path d="M7750 3485 c-167 -34 -303 -106 -415 -219 -93 -95 -135 -162 -179 -283 -30 -86 -31 -93 -31 -258 0 -190 9 -232 73 -363 129 -260 412 -422 738 -422 204 0 367 61 488 184 84 85 128 156 167 268 38 112 49 188 49 346 l0 132 -530 0 c-417 0 -530 3 -530 13 0 27 59 134 94 170 21 20 61 50 89 65 47 24 62 27 157 27 96 0 110 -3 164 -29 34 -17 82 -53 114 -86 l55 -57 156 115 c86 63 158 116 160 118 7 7 -57 75 -119 125 -80 65 -201 122 -311 149 -99 23 -285 26 -389 5z m430 -967 c0 -45 -40 -126 -81 -167 -54 -55 -111 -76 -204 -76 -71 0 -89 4 -148 33 -76 38 -129 93 -151 160 -31 89 -55 82 284 82 l300 0 0 -32z"/>
<path d="M9525 3489 c-298 -58 -519 -243 -611 -514 -37 -106 -46 -321 -19 -440 20 -91 87 -228 149 -307 91 -115 254 -217 413 -259 120 -32 302 -36 427 -10 117 24 241 80 306 138 l45 40 -112 119 c-61 66 -129 137 -152 158 l-40 39 -37 -33 c-61 -53 -108 -70 -201 -70 -116 0 -181 25 -254 99 -79 80 -103 153 -97 294 3 87 8 111 31 160 63 128 164 189 317 191 94 1 135 -14 206 -76 l36 -32 149 154 c81 85 148 160 149 166 0 17 -108 94 -175 124 -105 48 -178 62 -335 66 -80 1 -167 -2 -195 -7z"/>
<path d="M1730 1735 l1735 -1735 855 0 855 0 -970 970 -970 970 651 0 651 0 60 30 c72 36 145 110 178 183 l25 52 0 633 0 632 -780 0 -780 0 0 -760 c0 -418 -3 -760 -8 -760 -4 0 -349 342 -767 760 l-760 760 -855 0 -855 0 1735 -1735z"/>
<path d="M5400 2310 l0 -1160 230 0 230 0 0 518 1 517 20 -38 c28 -53 103 -123 165 -153 79 -38 150 -54 249 -54 235 0 386 85 470 263 62 130 67 182 72 755 l5 512 -231 0 -231 0 0 -377 c-1 -208 -5 -422 -9 -475 -11 -118 -41 -192 -97 -234 -33 -26 -47 -29 -121 -33 -106 -4 -156 14 -212 74 -72 79 -74 91 -79 598 l-4 447 -229 0 -229 0 0 -1160z"/>
</g>
<g id="layer102" fill="#006ab3" stroke="none">
<path d="M10980 3485 c-267 -57 -467 -211 -571 -441 -100 -220 -83 -516 40 -724 104 -175 266 -293 486 -353 67 -18 106 -22 240 -22 188 0 261 17 415 92 127 63 256 187 317 308 72 141 88 209 88 375 -1 163 -14 228 -70 346 -94 195 -269 339 -495 405 -97 28 -349 36 -450 14z m361 -421 c74 -34 139 -103 170 -182 33 -81 33 -242 1 -323 -30 -76 -90 -142 -160 -176 -49 -24 -72 -28 -162 -31 -90 -3 -114 -1 -164 19 -76 28 -147 93 -183 168 -26 52 -28 65 -28 181 0 138 12 181 76 261 89 113 297 151 450 83z"/>
<path d="M1730 1735 l1735 -1735 853 2 852 3 -1732 1733 -1733 1732 -855 0 -855 0 1735 -1735z"/>
<path d="M7843 2863 c147 -2 387 -2 535 0 147 1 26 2 -268 2 -294 0 -415 -1 -267 -2z"/>
</g>


</svg>