<?xml version="1.0" ?><svg id="Layer_1" style="enable-background:new 0 0 512 512;" version="1.1" viewBox="0 0 512 512" xml:space="preserve" xmlns="http://www.w3.org/2000/svg" xmlns:xlink="http://www.w3.org/1999/xlink"><g><path d="M246.8,44.8L224.5,6H113.4v38.8H77v354.3L184.6,506H435V44.8H246.8z M128.6,140.5c3.3-4.3,9-4.7,12.7-0.9l17.9,18.2V75.2   c0-5.7,4-10.4,9-10.4s9,4.6,9,10.4v82.6l17.9-18.2c3.7-3.8,9.4-3.4,12.7,0.9c3.3,4.3,3,10.8-0.8,14.6l-32.8,33.4c0,0,0,0,0,0   l-0.1,0.1c-0.2,0.2-0.4,0.4-0.7,0.6c-0.1,0.1-0.2,0.1-0.2,0.2c-0.2,0.1-0.3,0.3-0.5,0.4c-0.1,0.1-0.2,0.1-0.3,0.2   c-0.2,0.1-0.3,0.2-0.5,0.3c-0.1,0.1-0.2,0.1-0.3,0.1c-0.2,0.1-0.4,0.2-0.5,0.2c-0.1,0-0.2,0.1-0.3,0.1c-0.2,0.1-0.4,0.1-0.6,0.2   c-0.1,0-0.2,0.1-0.3,0.1c-0.2,0-0.4,0.1-0.6,0.1c-0.1,0-0.2,0-0.2,0c-0.3,0-0.6,0.1-0.9,0.1c0,0,0,0,0,0s0,0,0,0   c-0.3,0-0.6,0-0.9-0.1c-0.1,0-0.2,0-0.2,0c-0.2,0-0.4-0.1-0.6-0.1c-0.1,0-0.2,0-0.3-0.1c-0.2-0.1-0.4-0.1-0.6-0.2   c-0.1,0-0.2-0.1-0.3-0.1c-0.2-0.1-0.4-0.1-0.5-0.2c-0.1,0-0.2-0.1-0.3-0.1c-0.2-0.1-0.3-0.2-0.5-0.3c-0.1-0.1-0.2-0.1-0.3-0.2   c-0.2-0.1-0.4-0.3-0.5-0.4c-0.1-0.1-0.2-0.1-0.2-0.2c-0.2-0.2-0.5-0.4-0.7-0.6l-0.1-0.1c0,0,0,0,0,0l-32.8-33.4   C125.6,151.3,125.3,144.8,128.6,140.5z M415.9,486.9H193.6v-97.1H96.1V63.9h17.3v121.5l55.5,50.3l55.5-50.3V63.9h191.4V486.9z"/><rect height="21.3" width="132.6" x="256" y="114.5"/><rect height="21.3" width="132.6" x="256" y="187.1"/><rect height="21.3" width="267" x="121.6" y="332.4"/><rect height="21.3" width="267" x="121.6" y="259.7"/><path d="M254.1,395.4l-19.8,56.9h9.8l4.4-13.3h20.2l4.3,13.3h9.8l-19.6-56.9H254.1z M251.1,431.1l7.4-22.4h0.2l7.3,22.4H251.1z"/><path d="M302.9,406.8c2.3-3.1,5.3-4.6,9.2-4.6c4,0,7,1,9.1,3c2.1,2,3.1,4.9,3.1,8.7h9.2l0.1-0.2c0.1-5.9-1.8-10.6-5.6-14   c-3.8-3.4-9.1-5.1-15.8-5.1c-6.5,0-11.8,2.2-15.9,6.7s-6.1,10.2-6.1,17.1v10.8c0,7,2.1,12.7,6.2,17.1c4.1,4.5,9.5,6.7,16.1,6.7   c6.5,0,11.7-1.8,15.5-5.3c3.8-3.5,5.7-8.2,5.6-13.9l-0.1-0.2h-9.1c0,3.8-1,6.8-3,8.8c-2,2-5,3-8.8,3c-4,0-7.1-1.5-9.4-4.6   c-2.3-3.1-3.4-6.9-3.4-11.7v-10.9C299.5,413.7,300.6,409.8,302.9,406.8z"/><polygon points="354.4,426.7 376.7,426.7 376.7,419.1 354.4,419.1 354.4,403 380.4,403 380.4,395.4 345,395.4 345,452.3    380.7,452.3 380.7,444.7 354.4,444.7  "/></g></svg>