<?xml version="1.0" ?><svg id="Layer_1" style="enable-background:new 0 0 512 512;" version="1.1" viewBox="0 0 512 512" xml:space="preserve" xmlns="http://www.w3.org/2000/svg" xmlns:xlink="http://www.w3.org/1999/xlink"><g><path d="M246.8,44.8L224.5,6H113.4v38.8H77v354.3L184.6,506H435V44.8H246.8z M128.6,140.5c3.3-4.3,9-4.7,12.7-0.9l17.9,18.2V75.2   c0-5.7,4-10.4,9-10.4s9,4.6,9,10.4v82.6l17.9-18.2c3.7-3.8,9.4-3.4,12.7,0.9c3.3,4.3,3,10.8-0.8,14.6l-32.8,33.4c0,0,0,0,0,0   l-0.1,0.1c-0.2,0.2-0.4,0.4-0.7,0.6c-0.1,0.1-0.2,0.1-0.2,0.2c-0.2,0.1-0.3,0.3-0.5,0.4c-0.1,0.1-0.2,0.1-0.3,0.2   c-0.2,0.1-0.3,0.2-0.5,0.3c-0.1,0.1-0.2,0.1-0.3,0.1c-0.2,0.1-0.4,0.2-0.5,0.2c-0.1,0-0.2,0.1-0.3,0.1c-0.2,0.1-0.4,0.1-0.6,0.2   c-0.1,0-0.2,0.1-0.3,0.1c-0.2,0-0.4,0.1-0.6,0.1c-0.1,0-0.2,0-0.2,0c-0.3,0-0.6,0.1-0.9,0.1c0,0,0,0,0,0s0,0,0,0   c-0.3,0-0.6,0-0.9-0.1c-0.1,0-0.2,0-0.2,0c-0.2,0-0.4-0.1-0.6-0.1c-0.1,0-0.2,0-0.3-0.1c-0.2-0.1-0.4-0.1-0.6-0.2   c-0.1,0-0.2-0.1-0.3-0.1c-0.2-0.1-0.4-0.1-0.5-0.2c-0.1,0-0.2-0.1-0.3-0.1c-0.2-0.1-0.3-0.2-0.5-0.3c-0.1-0.1-0.2-0.1-0.3-0.2   c-0.2-0.1-0.4-0.3-0.5-0.4c-0.1-0.1-0.2-0.1-0.2-0.2c-0.2-0.2-0.5-0.4-0.7-0.6l-0.1-0.1c0,0,0,0,0,0l-32.8-33.4   C125.6,151.3,125.3,144.8,128.6,140.5z M415.9,486.9H193.6v-97.1H96.1V63.9h17.3v121.5l55.5,50.3l55.5-50.3V63.9h191.4V486.9z"/><rect height="21.3" width="132.6" x="256" y="114.5"/><rect height="21.3" width="132.6" x="256" y="187.1"/><rect height="21.3" width="267" x="121.6" y="332.4"/><rect height="21.3" width="267" x="121.6" y="259.7"/><path d="M253,422.2c2.6-1.1,4.6-2.6,6.1-4.7c1.5-2.1,2.2-4.4,2.2-7c0-5.3-1.8-9.3-5.5-12c-3.6-2.7-8.7-4-15.2-4h-19.2v58.5h23   c6.3,0,11.3-1.4,14.9-4.3c3.6-2.9,5.4-7,5.4-12.5c0-3.5-1-6.6-3-9.2C259.6,424.4,256.7,422.8,253,422.2z M231.2,402.4h9.4   c3.5,0,6.2,0.7,8.1,2.1c1.8,1.4,2.8,3.6,2.8,6.5c0,2.6-0.9,4.7-2.6,6.1c-1.8,1.4-4.1,2.2-7.2,2.2h-10.5V402.4z M252.2,443   c-1.8,1.5-4.4,2.3-7.8,2.3h-13.2v-18.8h12.9h0.5c3.2,0.1,5.8,1,7.6,2.8c1.8,1.7,2.7,4.1,2.7,7C254.9,439.2,254,441.4,252.2,443z"/><polygon points="306.2,439.6 306,439.6 289.2,394.6 276.4,394.6 276.4,453.1 286.1,453.1 286.1,410.3 286.4,410.2 302.8,453.1    309.5,453.1 325.6,411 325.8,411 325.8,453.1 335.6,453.1 335.6,394.6 323.1,394.6  "/><path d="M372.8,394.6h-22.4v58.5h9.8v-22.2h12.7c6.5,0,11.5-1.7,15.2-5c3.7-3.3,5.5-7.7,5.5-13.2c0-5.4-1.8-9.8-5.5-13.2   C384.4,396.2,379.3,394.6,372.8,394.6z M381,420.2c-1.8,1.9-4.5,2.9-8.2,2.9h-12.7v-20.7h12.7c3.6,0,6.3,1,8.2,3   c1.8,2,2.7,4.5,2.7,7.4C383.7,415.8,382.8,418.2,381,420.2z"/></g></svg>