<?xml version="1.0" ?><svg id="Layer_1" style="enable-background:new 0 0 512 512;" version="1.1" viewBox="0 0 512 512" xml:space="preserve" xmlns="http://www.w3.org/2000/svg" xmlns:xlink="http://www.w3.org/1999/xlink"><g><path d="M246.8,44.8L224.5,6H113.4v38.8H77v354.3L184.6,506H435V44.8H246.8z M128.6,140.5c3.3-4.3,9-4.7,12.7-0.9l17.9,18.2V75.2   c0-5.7,4-10.4,9-10.4s9,4.6,9,10.4v82.6l17.9-18.2c3.7-3.8,9.4-3.4,12.7,0.9c3.3,4.3,3,10.8-0.8,14.6l-32.8,33.4c0,0,0,0,0,0   l-0.1,0.1c-0.2,0.2-0.4,0.4-0.7,0.6c-0.1,0.1-0.2,0.1-0.2,0.2c-0.2,0.1-0.3,0.3-0.5,0.4c-0.1,0.1-0.2,0.1-0.3,0.2   c-0.2,0.1-0.3,0.2-0.5,0.3c-0.1,0.1-0.2,0.1-0.3,0.1c-0.2,0.1-0.4,0.2-0.5,0.2c-0.1,0-0.2,0.1-0.3,0.1c-0.2,0.1-0.4,0.1-0.6,0.2   c-0.1,0-0.2,0.1-0.3,0.1c-0.2,0-0.4,0.1-0.6,0.1c-0.1,0-0.2,0-0.2,0c-0.3,0-0.6,0.1-0.9,0.1c0,0,0,0,0,0s0,0,0,0   c-0.3,0-0.6,0-0.9-0.1c-0.1,0-0.2,0-0.2,0c-0.2,0-0.4-0.1-0.6-0.1c-0.1,0-0.2,0-0.3-0.1c-0.2-0.1-0.4-0.1-0.6-0.2   c-0.1,0-0.2-0.1-0.3-0.1c-0.2-0.1-0.4-0.1-0.5-0.2c-0.1,0-0.2-0.1-0.3-0.1c-0.2-0.1-0.3-0.2-0.5-0.3c-0.1-0.1-0.2-0.1-0.3-0.2   c-0.2-0.1-0.4-0.3-0.5-0.4c-0.1-0.1-0.2-0.1-0.2-0.2c-0.2-0.2-0.5-0.4-0.7-0.6l-0.1-0.1c0,0,0,0,0,0l-32.8-33.4   C125.6,151.3,125.3,144.8,128.6,140.5z M415.9,486.9H193.6v-97.1H96.1V63.9h17.3v121.5l55.5,50.3l55.5-50.3V63.9h191.4V486.9z"/><rect height="21.3" width="132.6" x="256" y="114.5"/><rect height="21.3" width="132.6" x="256" y="187.1"/><rect height="21.3" width="267" x="121.6" y="332.4"/><rect height="21.3" width="267" x="121.6" y="259.7"/><path d="M248.8,395.4H230v56.9h18.8c7.2,0,13.1-2.2,17.6-6.7c4.5-4.5,6.8-10.3,6.8-17.4v-8.6c0-7.1-2.3-12.9-6.8-17.4   C261.9,397.6,256.1,395.4,248.8,395.4z M263.7,428.2c0,4.8-1.3,8.8-4,11.9c-2.7,3.1-6.3,4.6-10.9,4.6h-9.3V403h9.3   c4.6,0,8.2,1.5,10.9,4.6c2.7,3.1,4,7,4,11.8V428.2z"/><path d="M307.2,394.6c-6.8,0-12.4,2.3-16.6,6.9c-4.3,4.6-6.4,10.3-6.4,17.3v10.2c0,7,2.1,12.7,6.4,17.3c4.3,4.6,9.8,6.9,16.6,6.9   c7,0,12.7-2.3,17-6.9c4.4-4.6,6.5-10.3,6.5-17.3v-10.2c0-6.9-2.2-12.7-6.6-17.3C319.8,396.9,314.1,394.6,307.2,394.6z M321.3,428.9   c0,4.8-1.3,8.8-3.8,11.8c-2.5,3-5.9,4.6-10.3,4.6c-4.2,0-7.5-1.5-9.9-4.6c-2.4-3.1-3.6-7-3.6-11.8v-10.3c0-4.7,1.2-8.6,3.6-11.7   c2.4-3,5.7-4.6,9.9-4.6c4.3,0,7.7,1.5,10.3,4.6c2.5,3,3.8,6.9,3.8,11.7V428.9z"/><path d="M354.3,406.8c2.3-3.1,5.3-4.6,9.2-4.6c4,0,7,1,9.1,3c2.1,2,3.1,4.9,3.1,8.7h9.2l0.1-0.2c0.1-5.9-1.8-10.6-5.6-14   c-3.8-3.4-9.1-5.1-15.8-5.1c-6.5,0-11.8,2.2-15.9,6.7s-6.1,10.2-6.1,17.1v10.8c0,7,2.1,12.7,6.2,17.1c4.1,4.5,9.5,6.7,16.1,6.7   c6.5,0,11.7-1.8,15.5-5.3c3.8-3.5,5.7-8.2,5.6-13.9l-0.1-0.2h-9.1c0,3.8-1,6.8-3,8.8c-2,2-5,3-8.8,3c-4,0-7.1-1.5-9.4-4.6   c-2.3-3.1-3.4-6.9-3.4-11.7v-10.9C351,413.7,352.1,409.8,354.3,406.8z"/></g></svg>