<?xml version="1.0" ?><svg id="Layer_1" style="enable-background:new 0 0 512 512;" version="1.1" viewBox="0 0 512 512" xml:space="preserve" xmlns="http://www.w3.org/2000/svg" xmlns:xlink="http://www.w3.org/1999/xlink"><g><path d="M246.8,44.8L224.5,6H113.4v38.8H77v354.3L184.6,506H435V44.8H246.8z M128.6,140.5c3.3-4.3,9-4.7,12.7-0.9l17.9,18.2V75.2   c0-5.7,4-10.4,9-10.4s9,4.6,9,10.4v82.6l17.9-18.2c3.7-3.8,9.4-3.4,12.7,0.9c3.3,4.3,3,10.8-0.8,14.6l-32.8,33.4c0,0,0,0,0,0   l-0.1,0.1c-0.2,0.2-0.4,0.4-0.7,0.6c-0.1,0.1-0.2,0.1-0.2,0.2c-0.2,0.1-0.3,0.3-0.5,0.4c-0.1,0.1-0.2,0.1-0.3,0.2   c-0.2,0.1-0.3,0.2-0.5,0.3c-0.1,0.1-0.2,0.1-0.3,0.1c-0.2,0.1-0.4,0.2-0.5,0.2c-0.1,0-0.2,0.1-0.3,0.1c-0.2,0.1-0.4,0.1-0.6,0.2   c-0.1,0-0.2,0.1-0.3,0.1c-0.2,0-0.4,0.1-0.6,0.1c-0.1,0-0.2,0-0.2,0c-0.3,0-0.6,0.1-0.9,0.1c0,0,0,0,0,0s0,0,0,0   c-0.3,0-0.6,0-0.9-0.1c-0.1,0-0.2,0-0.2,0c-0.2,0-0.4-0.1-0.6-0.1c-0.1,0-0.2,0-0.3-0.1c-0.2-0.1-0.4-0.1-0.6-0.2   c-0.1,0-0.2-0.1-0.3-0.1c-0.2-0.1-0.4-0.1-0.5-0.2c-0.1,0-0.2-0.1-0.3-0.1c-0.2-0.1-0.3-0.2-0.5-0.3c-0.1-0.1-0.2-0.1-0.3-0.2   c-0.2-0.1-0.4-0.3-0.5-0.4c-0.1-0.1-0.2-0.1-0.2-0.2c-0.2-0.2-0.5-0.4-0.7-0.6l-0.1-0.1c0,0,0,0,0,0l-32.8-33.4   C125.6,151.3,125.3,144.8,128.6,140.5z M415.9,486.9H193.6v-97.1H96.1V63.9h17.3v121.5l55.5,50.3l55.5-50.3V63.9h191.4V486.9z"/><rect height="21.3" width="132.6" x="256" y="114.5"/><rect height="21.3" width="132.6" x="256" y="187.1"/><rect height="21.3" width="267" x="121.6" y="332.4"/><rect height="21.3" width="267" x="121.6" y="259.7"/><polygon points="250.2,439.1 250,439.1 233.7,395.4 221.2,395.4 221.2,452.3 230.7,452.3 230.7,410.7 230.9,410.6 246.9,452.3    253.4,452.3 269.1,411.4 269.3,411.4 269.3,452.3 278.8,452.3 278.8,395.4 266.7,395.4  "/><path d="M314.3,394.6c-6.8,0-12.4,2.3-16.6,6.9c-4.3,4.6-6.4,10.3-6.4,17.3v10.2c0,7,2.1,12.7,6.4,17.3c4.3,4.6,9.8,6.9,16.6,6.9   c7,0,12.7-2.3,17-6.9c4.4-4.6,6.5-10.3,6.5-17.3v-10.2c0-6.9-2.2-12.7-6.6-17.3C327,396.9,321.3,394.6,314.3,394.6z M328.4,428.9   c0,4.8-1.3,8.8-3.8,11.8c-2.5,3-5.9,4.6-10.3,4.6c-4.2,0-7.5-1.5-9.9-4.6s-3.6-7-3.6-11.8v-10.3c0-4.7,1.2-8.6,3.6-11.7   c2.4-3,5.7-4.6,9.9-4.6c4.3,0,7.7,1.5,10.3,4.6c2.5,3,3.8,6.9,3.8,11.7V428.9z"/><polygon points="370,436.9 369.1,441 368.8,441 367.8,436.8 354.2,395.4 344.1,395.4 364.4,452.3 373.4,452.3 393.7,395.4    383.6,395.4  "/></g></svg>