<?xml version="1.0" ?><svg id="Layer_1" style="enable-background:new 0 0 512 512;" version="1.1" viewBox="0 0 512 512" xml:space="preserve" xmlns="http://www.w3.org/2000/svg" xmlns:xlink="http://www.w3.org/1999/xlink"><g><path d="M246.8,44.8L224.5,6H113.4v38.8H77v354.3L184.6,506H435V44.8H246.8z M128.6,140.5c3.3-4.3,9-4.7,12.7-0.9l17.9,18.2V75.2   c0-5.7,4-10.4,9-10.4s9,4.6,9,10.4v82.6l17.9-18.2c3.7-3.8,9.4-3.4,12.7,0.9c3.3,4.3,3,10.8-0.8,14.6l-32.8,33.4c0,0,0,0,0,0   l-0.1,0.1c-0.2,0.2-0.4,0.4-0.7,0.6c-0.1,0.1-0.2,0.1-0.2,0.2c-0.2,0.1-0.3,0.3-0.5,0.4c-0.1,0.1-0.2,0.1-0.3,0.2   c-0.2,0.1-0.3,0.2-0.5,0.3c-0.1,0.1-0.2,0.1-0.3,0.1c-0.2,0.1-0.4,0.2-0.5,0.2c-0.1,0-0.2,0.1-0.3,0.1c-0.2,0.1-0.4,0.1-0.6,0.2   c-0.1,0-0.2,0.1-0.3,0.1c-0.2,0-0.4,0.1-0.6,0.1c-0.1,0-0.2,0-0.2,0c-0.3,0-0.6,0.1-0.9,0.1c0,0,0,0,0,0s0,0,0,0   c-0.3,0-0.6,0-0.9-0.1c-0.1,0-0.2,0-0.2,0c-0.2,0-0.4-0.1-0.6-0.1c-0.1,0-0.2,0-0.3-0.1c-0.2-0.1-0.4-0.1-0.6-0.2   c-0.1,0-0.2-0.1-0.3-0.1c-0.2-0.1-0.4-0.1-0.5-0.2c-0.1,0-0.2-0.1-0.3-0.1c-0.2-0.1-0.3-0.2-0.5-0.3c-0.1-0.1-0.2-0.1-0.3-0.2   c-0.2-0.1-0.4-0.3-0.5-0.4c-0.1-0.1-0.2-0.1-0.2-0.2c-0.2-0.2-0.5-0.4-0.7-0.6l-0.1-0.1c0,0,0,0,0,0l-32.8-33.4   C125.6,151.3,125.3,144.8,128.6,140.5z M415.9,486.9H193.6v-97.1H96.1V63.9h17.3v121.5l55.5,50.3l55.5-50.3V63.9h191.4V486.9z"/><rect height="21.3" width="132.6" x="256" y="114.5"/><rect height="21.3" width="132.6" x="256" y="187.1"/><rect height="21.3" width="267" x="121.6" y="332.4"/><rect height="21.3" width="267" x="121.6" y="259.7"/><polygon points="256,439.1 255.8,439.1 239.4,395.4 227,395.4 227,452.3 236.5,452.3 236.5,410.7 236.7,410.6 252.6,452.3    259.2,452.3 274.8,411.4 275.1,411.4 275.1,452.3 284.6,452.3 284.6,395.4 272.4,395.4  "/><path d="M320.7,395.4h-21.8v56.9h9.5v-21.6h12.3c6.3,0,11.2-1.6,14.7-4.8c3.6-3.2,5.3-7.5,5.3-12.8c0-5.3-1.8-9.6-5.3-12.8   C331.9,397,327,395.4,320.7,395.4z M328.7,420.3c-1.8,1.9-4.4,2.8-7.9,2.8h-12.3V403h12.3c3.5,0,6.2,1,7.9,2.9   c1.8,1.9,2.7,4.3,2.7,7.2S330.5,418.4,328.7,420.3z"/><path d="M379.1,422.8c2.5-1.2,4.5-2.9,5.9-5.1c1.4-2.2,2.1-4.6,2.1-7.2c0-5.2-1.6-9.2-4.8-11.9c-3.2-2.7-7.6-4.1-13.1-4.1   c-5.3,0-9.6,1.5-13.1,4.4c-3.5,3-5.1,6.6-5,11l0.1,0.2h9.1c0-2.3,0.8-4.2,2.5-5.7c1.7-1.5,3.8-2.3,6.4-2.3c2.8,0,4.9,0.8,6.3,2.3   c1.5,1.6,2.2,3.6,2.2,6c0,2.8-0.7,4.9-2,6.4c-1.4,1.5-3.6,2.3-6.6,2.3h-6.3v7.5h6.3c3.2,0,5.6,0.8,7.2,2.4c1.6,1.6,2.4,4,2.4,7.2   c0,2.7-0.8,4.9-2.5,6.6c-1.7,1.7-4,2.6-6.8,2.6c-2.8,0-5-0.8-6.8-2.4c-1.8-1.6-2.6-3.6-2.6-6h-9.1l-0.1,0.2   c-0.1,4.9,1.7,8.8,5.5,11.6c3.8,2.8,8.2,4.2,13.2,4.2c5.5,0,10.1-1.5,13.6-4.5c3.5-3,5.3-7.1,5.3-12.3c0-3.3-0.8-6-2.3-8.3   C384.2,425.7,381.9,424,379.1,422.8z"/></g></svg>