<?xml version="1.0" ?><svg id="Layer_1" style="enable-background:new 0 0 512 512;" version="1.1" viewBox="0 0 512 512" xml:space="preserve" xmlns="http://www.w3.org/2000/svg" xmlns:xlink="http://www.w3.org/1999/xlink"><g><path d="M246.8,44.8L224.5,6H113.4v38.8H77v354.3L184.6,506H435V44.8H246.8z M128.6,140.5c3.3-4.3,9-4.7,12.7-0.9l17.9,18.2V75.2   c0-5.7,4-10.4,9-10.4s9,4.6,9,10.4v82.6l17.9-18.2c3.7-3.8,9.4-3.4,12.7,0.9c3.3,4.3,3,10.8-0.8,14.6l-32.8,33.4c0,0,0,0,0,0   l-0.1,0.1c-0.2,0.2-0.4,0.4-0.7,0.6c-0.1,0.1-0.2,0.1-0.2,0.2c-0.2,0.1-0.3,0.3-0.5,0.4c-0.1,0.1-0.2,0.1-0.3,0.2   c-0.2,0.1-0.3,0.2-0.5,0.3c-0.1,0.1-0.2,0.1-0.3,0.1c-0.2,0.1-0.4,0.2-0.5,0.2c-0.1,0-0.2,0.1-0.3,0.1c-0.2,0.1-0.4,0.1-0.6,0.2   c-0.1,0-0.2,0.1-0.3,0.1c-0.2,0-0.4,0.1-0.6,0.1c-0.1,0-0.2,0-0.2,0c-0.3,0-0.6,0.1-0.9,0.1c0,0,0,0,0,0s0,0,0,0   c-0.3,0-0.6,0-0.9-0.1c-0.1,0-0.2,0-0.2,0c-0.2,0-0.4-0.1-0.6-0.1c-0.1,0-0.2,0-0.3-0.1c-0.2-0.1-0.4-0.1-0.6-0.2   c-0.1,0-0.2-0.1-0.3-0.1c-0.2-0.1-0.4-0.1-0.5-0.2c-0.1,0-0.2-0.1-0.3-0.1c-0.2-0.1-0.3-0.2-0.5-0.3c-0.1-0.1-0.2-0.1-0.3-0.2   c-0.2-0.1-0.4-0.3-0.5-0.4c-0.1-0.1-0.2-0.1-0.2-0.2c-0.2-0.2-0.5-0.4-0.7-0.6l-0.1-0.1c0,0,0,0,0,0l-32.8-33.4   C125.6,151.3,125.3,144.8,128.6,140.5z M415.9,486.9H193.6v-97.1H96.1V63.9h17.3v121.5l55.5,50.3l55.5-50.3V63.9h191.4V486.9z"/><rect height="21.3" width="132.6" x="256" y="114.5"/><rect height="21.3" width="132.6" x="256" y="187.1"/><rect height="21.3" width="267" x="121.6" y="332.4"/><rect height="21.3" width="267" x="121.6" y="259.7"/><path d="M256.4,419.7c-4.4-1.3-7.6-2.6-9.5-4c-1.9-1.4-2.9-3.2-2.9-5.4c0-2.4,0.9-4.3,2.6-5.9c1.7-1.5,4.2-2.3,7.4-2.3   c3.3,0,6,0.9,8,2.7c2,1.8,3,4.2,3,7.1h9.1l0.1-0.2c0.1-4.8-1.6-8.9-5.3-12.2c-3.7-3.3-8.6-4.9-14.7-4.9c-5.7,0-10.4,1.5-14.1,4.5   c-3.6,3-5.5,6.7-5.5,11.3c0,4.4,1.7,8,5,10.8c3.3,2.7,8,5,14.2,6.7c4.3,1.2,7.2,2.6,8.9,4.1c1.7,1.5,2.5,3.5,2.5,5.8   c0,2.4-0.9,4.3-2.8,5.8c-1.9,1.4-4.5,2.1-7.8,2.1c-3.4,0-6.3-0.9-8.6-2.6c-2.4-1.7-3.5-4.3-3.5-7.7h-9.1l-0.1,0.2   c-0.1,5.6,2,9.9,6.3,13c4.3,3.1,9.3,4.6,15.1,4.6c6,0,10.9-1.4,14.6-4.2c3.7-2.8,5.5-6.6,5.5-11.3c0-4.5-1.6-8.2-4.7-11   C266.9,423.7,262.4,421.4,256.4,419.7z"/><polygon points="307.4,436.9 306.4,441 306.2,441 305.2,436.8 291.6,395.4 281.5,395.4 301.8,452.3 310.8,452.3 331.1,395.4    321,395.4  "/><path d="M360.3,430.2h11.9V442c-0.9,1-2.3,1.8-4,2.5c-1.8,0.7-4.2,1-7.2,1c-4,0-7.3-1.5-9.8-4.4c-2.5-3-3.8-6.7-3.8-11.3v-12   c0-4.5,1.2-8.3,3.6-11.2c2.4-2.9,5.6-4.4,9.5-4.4c3.7,0,6.6,1,8.6,2.9c2,2,3,4.5,3,7.7h9l0.1-0.2c0.1-5.4-1.7-9.7-5.4-13   c-3.7-3.3-8.9-5-15.5-5c-6.6,0-12,2.2-16.2,6.5c-4.2,4.3-6.3,9.9-6.3,16.8v11.9c0,6.9,2.2,12.5,6.5,16.8s9.9,6.5,16.6,6.5   c5.4,0,9.8-0.9,13.3-2.6c3.4-1.7,5.9-3.7,7.5-5.9v-21.5h-21.4V430.2z"/></g></svg>