<?xml version="1.0" ?><!DOCTYPE svg  PUBLIC '-//W3C//DTD SVG 1.1//EN'  'http://www.w3.org/Graphics/SVG/1.1/DTD/svg11.dtd'><svg enable-background="new 0 0 128 128" id="Social_Icons" version="1.1" viewBox="0 0 128 128" xml:space="preserve" xmlns="http://www.w3.org/2000/svg" xmlns:xlink="http://www.w3.org/1999/xlink"><g id="_x35__stroke"><g id="Behance_1_"><rect clip-rule="evenodd" fill="none" fill-rule="evenodd" height="128" width="128"/><path clip-rule="evenodd" d="M58.725,32.316    c2.416,3.319,3.627,7.284,3.627,11.909c0,4.759-1.212,8.598-3.658,11.493c-1.37,1.619-3.379,3.103-6.036,4.44    c4.034,1.455,7.074,3.749,9.144,6.89c2.047,3.133,3.078,6.949,3.078,11.434c0,4.626-1.174,8.776-3.53,12.444    c-1.49,2.428-3.357,4.477-5.599,6.14c-2.521,1.908-5.494,3.207-8.933,3.92c-3.439,0.705-7.157,1.047-11.176,1.047H0V24h38.224    C47.872,24.141,54.698,26.91,58.725,32.316z M15.767,37.55v17.218h19.236c3.424,0,6.216-0.646,8.369-1.938    c2.137-1.292,3.214-3.579,3.214-6.845c0-3.645-1.415-6.044-4.245-7.217c-2.453-0.809-5.569-1.218-9.355-1.218H15.767z     M15.767,67.679V88.49h19.206c3.432,0,6.111-0.46,8.015-1.374c3.469-1.708,5.2-4.945,5.2-9.741c0-4.069-1.671-6.853-5.035-8.375    c-1.881-0.846-4.523-1.292-7.91-1.322H15.767z M112.7,45.502c4.087,1.797,7.451,4.648,10.1,8.538    c2.416,3.43,3.966,7.41,4.674,11.931c0.414,2.643,0.579,6.474,0.512,11.456H85.366c0.256,5.784,2.273,9.845,6.126,12.169    c2.333,1.448,5.14,2.175,8.437,2.175c3.469,0,6.307-0.884,8.482-2.643c1.197-0.958,2.25-2.279,3.153-3.972h15.616    c-0.414,3.415-2.31,6.897-5.667,10.432c-5.238,5.606-12.576,8.412-22.006,8.412c-7.789,0-14.66-2.361-20.598-7.098    c-5.968-4.729-8.933-12.436-8.933-23.098c0-10.001,2.687-17.671,8.053-23.009c5.381-5.323,12.342-8.004,20.914-8.004    C104.038,42.792,108.621,43.697,112.7,45.502z M89.821,58.539c-2.16,2.198-3.522,5.175-4.079,8.932h26.363    c-0.278-4.009-1.648-7.039-4.072-9.125c-2.453-2.071-5.471-3.103-9.084-3.103C95.037,55.243,91.981,56.342,89.821,58.539z     M81.791,37.349h33.897v-9.711H81.791V37.349z" fill="#1769FF" fill-rule="evenodd" id="Behance"/></g></g></svg>