<?xml version="1.0" ?><!DOCTYPE svg  PUBLIC '-//W3C//DTD SVG 1.1//EN'  'http://www.w3.org/Graphics/SVG/1.1/DTD/svg11.dtd'><svg enable-background="new 0 0 128 128" id="Social_Icons" version="1.1" viewBox="0 0 128 128" xml:space="preserve" xmlns="http://www.w3.org/2000/svg" xmlns:xlink="http://www.w3.org/1999/xlink"><g id="_x32__stroke"><g id="Blogger_1_"><rect clip-rule="evenodd" fill="none" fill-rule="evenodd" height="128" width="128"/><path clip-rule="evenodd" d="M124.736,49.524    c-2.702-1.156-14.293,0.128-17.513-2.78c-2.272-2.096-2.417-5.888-3.304-10.948c-1.485-8.472-2.104-10.392-3.649-13.728    C94.649,10.18,81.175,0,68.934,0H40.562C18.239,0,0,18.22,0,40.456v47.172C0,109.824,18.239,128,40.562,128h46.616    c22.322,0,40.437-18.176,40.566-40.372L128,54.956C128,54.956,128,50.916,124.736,49.524 M41.075,33.06H63.57    c4.292,0,7.769,3.464,7.769,7.696c0,4.236-3.477,7.74-7.769,7.74H41.075c-4.292,0-7.769-3.504-7.769-7.74    C33.307,36.524,36.784,33.06,41.075,33.06 M86.792,94.728H41.075c-4.292,0-7.769-3.508-7.769-7.696c0-4.236,3.477-7.7,7.769-7.7    h45.717c4.248,0,7.724,3.464,7.724,7.7C94.517,91.22,91.04,94.728,86.792,94.728" fill="#FF6500" fill-rule="evenodd" id="Blogger"/></g></g></svg>