<?xml version="1.0" ?><!DOCTYPE svg  PUBLIC '-//W3C//DTD SVG 1.1//EN'  'http://www.w3.org/Graphics/SVG/1.1/DTD/svg11.dtd'><svg enable-background="new 0 0 128 128" id="Social_Icons" version="1.1" viewBox="0 0 128 128" xml:space="preserve" xmlns="http://www.w3.org/2000/svg" xmlns:xlink="http://www.w3.org/1999/xlink"><g id="_x33__stroke"><g id="Buffer_1_"><rect clip-rule="evenodd" fill="none" fill-rule="evenodd" height="128" width="128"/><path clip-rule="evenodd" d="M60.813,0.702L2.727,27.666    c-1.743,0.808-1.735,3.272,0.012,4.072l58.533,26.76c1.731,0.792,3.724,0.792,5.455,0l58.537-26.76    c1.747-0.8,1.751-3.264,0.012-4.072L67.19,0.702C65.169-0.234,62.834-0.234,60.813,0.702z M125.275,96.574l-11.997-5.568    c-1.739-0.808-3.748-0.812-5.491-0.016L66.73,109.758c-1.731,0.792-3.724,0.792-5.455,0L20.214,90.99    c-1.743-0.796-3.752-0.792-5.491,0.016L2.725,96.574c-1.743,0.808-1.735,3.272,0.012,4.072l58.537,26.76    c1.731,0.792,3.724,0.792,5.455,0l58.533-26.76C127.01,99.846,127.018,97.382,125.275,96.574z M125.275,62.272l-11.997-5.568    c-1.739-0.808-3.748-0.812-5.491-0.016L66.73,75.456c-1.731,0.792-3.724,0.792-5.455,0L20.214,56.688    c-1.743-0.796-3.752-0.792-5.491,0.016L2.725,62.272c-1.743,0.808-1.735,3.272,0.012,4.072l58.537,26.76    c1.731,0.792,3.724,0.792,5.455,0l58.533-26.76C127.01,65.544,127.018,63.08,125.275,62.272z" fill="#333333" fill-rule="evenodd" id="Buffer"/></g></g></svg>