<?xml version="1.0" ?><!DOCTYPE svg  PUBLIC '-//W3C//DTD SVG 1.1//EN'  'http://www.w3.org/Graphics/SVG/1.1/DTD/svg11.dtd'><svg enable-background="new 0 0 128 128" id="Social_Icons" version="1.1" viewBox="0 0 128 128" xml:space="preserve" xmlns="http://www.w3.org/2000/svg" xmlns:xlink="http://www.w3.org/1999/xlink"><g id="_x33__stroke"><g id="Dribbble_1_"><rect clip-rule="evenodd" fill="none" fill-rule="evenodd" height="128" width="128"/><path clip-rule="evenodd" d="M126.705,51.12    c-0.843-4.109-2.107-8.165-3.741-12.033c-1.596-3.793-3.59-7.45-5.901-10.867c-2.28-3.386-4.915-6.577-7.805-9.467    c-2.898-2.897-6.081-5.524-9.476-7.811c-3.417-2.318-7.075-4.297-10.868-5.907c-3.869-1.625-7.918-2.89-12.027-3.725    C72.674,0.444,68.339,0,64.004,0c-4.343,0-8.678,0.444-12.893,1.309c-4.109,0.835-8.159,2.1-12.027,3.725    c-3.793,1.61-7.451,3.59-10.876,5.907c-3.387,2.288-6.57,4.914-9.468,7.811c-2.89,2.89-5.517,6.081-7.805,9.467    c-2.311,3.417-4.305,7.074-5.901,10.867c-1.641,3.868-2.898,7.924-3.741,12.033C0.437,55.327,0,59.662,0,63.996    c0,4.35,0.437,8.684,1.295,12.899c0.843,4.109,2.1,8.158,3.741,12.018c1.596,3.793,3.59,7.465,5.901,10.882    c2.288,3.386,4.915,6.562,7.805,9.467c2.898,2.89,6.081,5.509,9.468,7.804c3.424,2.31,7.082,4.297,10.876,5.9    c3.869,1.641,7.918,2.89,12.027,3.725c4.215,0.873,8.55,1.309,12.893,1.309c4.335,0,8.67-0.436,12.885-1.309    c4.109-0.835,8.159-2.085,12.027-3.725c3.793-1.603,7.451-3.59,10.868-5.9c3.394-2.295,6.578-4.914,9.476-7.804    c2.89-2.905,5.524-6.081,7.805-9.467c2.311-3.417,4.305-7.089,5.901-10.882c1.633-3.861,2.898-7.909,3.741-12.018    c0.858-4.214,1.295-8.549,1.295-12.899C128,59.662,127.563,55.327,126.705,51.12z M118.645,63.454    c-0.79-0.173-19.29-4.154-38.068-1.791c-0.391-0.933-0.775-1.874-1.182-2.815c-1.136-2.679-2.363-5.328-3.635-7.932    c21.585-8.812,30.346-21.478,30.451-21.628C113.873,38.598,118.517,50.488,118.645,63.454z M100.1,22.99    c-0.135,0.203-7.918,12.056-28.555,19.784c-9.34-17.165-19.606-30.802-20.426-31.885c4.132-1.001,8.445-1.543,12.885-1.543    C77.837,9.347,90.474,14.509,100.1,22.99z M50.908,10.934c0,0.008-0.008,0.015-0.008,0.015s-0.068,0.015-0.166,0.03    C50.795,10.965,50.848,10.957,50.908,10.934z M40.68,14.577c0.73,0.971,10.838,14.675,20.298,31.486    c-26.244,6.976-49.026,6.698-50.464,6.675C14.059,35.806,25.431,21.771,40.68,14.577z M9.34,63.996    c0-0.579,0.03-1.151,0.045-1.723c0.971,0.023,27.975,0.632,56.116-7.789c1.565,3.063,3.063,6.186,4.433,9.294    c-0.723,0.196-1.438,0.414-2.153,0.655c-29.496,9.527-44.458,36.062-44.458,36.062s0.023,0.023,0.023,0.03    C14.639,90.839,9.34,78.039,9.34,63.996z M64.004,118.661c-13.231,0-25.364-4.703-34.824-12.53    c0.723,0.587,1.227,0.956,1.227,0.956S40.883,84.24,73.299,72.944c0.12-0.045,0.248-0.075,0.369-0.113    c7.692,19.98,10.86,36.717,11.673,41.495C78.785,117.111,71.568,118.661,64.004,118.661z M94.546,109.329    c-0.557-3.296-3.47-19.34-10.642-39.034c17.649-2.822,32.935,2.017,34.064,2.386C115.536,87.912,106.813,101.044,94.546,109.329z" fill="#EC4989" fill-rule="evenodd" id="Dribbble"/></g></g></svg>