<?xml version="1.0" ?><!DOCTYPE svg  PUBLIC '-//W3C//DTD SVG 1.1//EN'  'http://www.w3.org/Graphics/SVG/1.1/DTD/svg11.dtd'><svg enable-background="new 0 0 128 128" id="Social_Icons" version="1.1" viewBox="0 0 128 128" xml:space="preserve" xmlns="http://www.w3.org/2000/svg" xmlns:xlink="http://www.w3.org/1999/xlink"><g id="_x36__stroke"><g id="Fancy"><rect clip-rule="evenodd" fill="none" fill-rule="evenodd" height="128" width="128"/><path clip-rule="evenodd" d="M84.723,82.553H70.529v16.748    c0,3.606-2.923,6.529-6.529,6.529c-3.606,0-6.529-2.923-6.529-6.529V82.553H43.277c-2.508,0-4.542-2.033-4.542-4.542V48.489    c0-0.096,0.009-0.19,0.014-0.285C39.052,34.515,50.237,23.509,64,23.509s24.948,11.006,25.251,24.696    c0.006,0.095,0.014,0.189,0.014,0.285v29.522C89.265,80.52,87.232,82.553,84.723,82.553z M14.308,0h99.385    C121.594,0,128,6.413,128,14.323v99.354c0,7.911-6.406,14.323-14.307,14.323H14.308C6.406,128,0,121.587,0,113.677V14.323    C0,6.413,6.406,0,14.308,0z" fill="#46A5E3" fill-rule="evenodd" id="Fancy_1_"/></g></g></svg>