<?xml version="1.0" ?><!DOCTYPE svg  PUBLIC '-//W3C//DTD SVG 1.1//EN'  'http://www.w3.org/Graphics/SVG/1.1/DTD/svg11.dtd'><svg enable-background="new 0 0 128 128" id="Social_Icons" version="1.1" viewBox="0 0 128 128" xml:space="preserve" xmlns="http://www.w3.org/2000/svg" xmlns:xlink="http://www.w3.org/1999/xlink"><g id="_x33__stroke"><g id="Feedly_1_"><rect clip-rule="evenodd" fill="none" fill-rule="evenodd" height="128" width="128"/><path clip-rule="evenodd" d="M120.738,58.4    c-14.644-14.509-29.292-29.009-43.924-43.522c-2.14-2.084-4.152-4.461-6.976-5.654c-2.804-1.319-6.056-1.51-9.068-0.872    c-2.636,0.598-5.016,2.029-6.92,3.914C37.385,28.579,20.917,44.894,4.445,61.202c-1.896,1.874-3.376,4.216-3.98,6.819    c-1.352,4.687,0.344,9.941,3.812,13.316c11.608,11.502,23.228,22.991,34.832,34.501c2.592,2.619,6.248,4.144,9.956,4.101    c9.496,0.055,18.988-0.008,28.48,0.032c4.272,0.269,8.592-1.244,11.616-4.275c10.52-10.388,21.008-20.816,31.524-31.212    c1.712-1.719,3.568-3.332,4.964-5.329c2.56-3.653,2.984-8.578,1.488-12.718C125.97,63.111,123.162,60.817,120.738,58.4     M38.521,76.923c-1.788,2.108-4.932,1.553-7.352,1.181c-2.132-1.692-4.084-3.653-5.804-5.749c-0.996-1.161,0.28-2.369,1.068-3.189    c10.832-10.681,21.624-21.41,32.436-32.108c1.452-1.403,2.768-2.96,4.4-4.16c1.404-0.697,2.488,0.808,3.424,1.609    c1.988,2.1,4.24,3.962,6.064,6.208c0.94,1.113-0.092,2.405-0.916,3.201C60.725,54.906,49.601,65.896,38.521,76.923     M72.606,102.236c-1.728,1.926-3.532,3.815-5.56,5.424c-1.864,0.444-3.844,0.341-5.728,0.071c-1.812-0.907-3.036-2.651-4.52-3.994    c-1.056-1.018-2.708-2.548-1.348-4.017c2.296-2.528,4.752-4.941,7.292-7.239c0.944-0.788,2.356-0.396,3.12,0.46    c2.172,2.08,4.308,4.196,6.404,6.359C73.09,100.025,73.542,101.4,72.606,102.236 M71.958,73.404    c-6.168,6.101-12.356,12.195-18.488,18.336c-1.72,2.092-4.752,1.43-7.112,1.236c-2.276-1.45-4.044-3.593-5.872-5.547    c-1.22-1.145-0.08-2.643,0.86-3.502c6.176-6.093,12.344-12.187,18.488-18.312c1.12-1.082,2.132-2.326,3.488-3.146    c1.36-0.578,2.352,0.792,3.256,1.561c2.052,2.179,4.392,4.097,6.264,6.43C73.666,71.503,72.71,72.667,71.958,73.404" fill="#2BB24C" fill-rule="evenodd" id="Feedly"/></g></g></svg>