<?xml version="1.0" ?><!DOCTYPE svg  PUBLIC '-//W3C//DTD SVG 1.1//EN'  'http://www.w3.org/Graphics/SVG/1.1/DTD/svg11.dtd'><svg enable-background="new 0 0 128 128" id="Social_Icons" version="1.1" viewBox="0 0 128 128" xml:space="preserve" xmlns="http://www.w3.org/2000/svg" xmlns:xlink="http://www.w3.org/1999/xlink"><g id="_x35__stroke"><g id="Google_Plus"><rect clip-rule="evenodd" fill="none" fill-rule="evenodd" height="128" width="128"/><path clip-rule="evenodd" d="M40.654,55.935v16.13    c0,0,15.619-0.021,21.979-0.021C59.189,82.5,53.834,88.194,40.654,88.194c-13.338,0-23.748-10.832-23.748-24.194    s10.41-24.194,23.748-24.194c7.052,0,11.607,2.483,15.784,5.944c3.344-3.35,3.065-3.828,11.573-11.877    c-7.222-6.586-16.822-10.6-27.357-10.6C18.201,23.273,0,41.507,0,64c0,22.493,18.201,40.727,40.654,40.727    c33.561,0,41.763-29.275,39.044-48.792H40.654z M113.912,56.742V42.628h-10.063v14.113H89.358v10.081h14.491v14.517h10.063V66.823    H128V56.742H113.912z" fill="#F93F2D" fill-rule="evenodd" id="Google_Plus_1_"/></g></g></svg>