<?xml version="1.0" ?><!DOCTYPE svg  PUBLIC '-//W3C//DTD SVG 1.1//EN'  'http://www.w3.org/Graphics/SVG/1.1/DTD/svg11.dtd'><svg enable-background="new 0 0 128 128" id="Social_Icons" version="1.1" viewBox="0 0 128 128" xml:space="preserve" xmlns="http://www.w3.org/2000/svg" xmlns:xlink="http://www.w3.org/1999/xlink"><g id="_x34__stroke"><g id="Periscope"><rect clip-rule="evenodd" fill="none" fill-rule="evenodd" height="128" width="128"/><path clip-rule="evenodd" d="M64,19.822c-2.372,0-4.677,0.288-6.889,0.817    c4.012,1.994,6.782,6.159,6.782,10.992c0,6.765-5.413,12.249-12.089,12.249c-6.427,0-11.669-5.087-12.052-11.501    c-3.572,4.995-5.684,11.132-5.684,17.772C34.068,66.902,47.469,80.48,64,80.48c16.532,0,29.933-13.578,29.933-30.329    S80.532,19.822,64,19.822z M113.333,49.986C113.333,87.155,73.883,128,64,128c-9.882,0-49.334-40.845-49.334-78.014    C14.667,22.379,36.754,0,64,0C91.248,0,113.333,22.379,113.333,49.986z" fill="#35A3C6" fill-rule="evenodd" id="Periscope_1_"/></g></g></svg>