<?xml version="1.0" ?><!DOCTYPE svg  PUBLIC '-//W3C//DTD SVG 1.1//EN'  'http://www.w3.org/Graphics/SVG/1.1/DTD/svg11.dtd'><svg enable-background="new 0 0 128 128" id="Social_Icons" version="1.1" viewBox="0 0 128 128" xml:space="preserve" xmlns="http://www.w3.org/2000/svg" xmlns:xlink="http://www.w3.org/1999/xlink"><g id="_x37__stroke"><g id="Pocket"><rect clip-rule="evenodd" fill="none" fill-rule="evenodd" height="128" width="128"/><path clip-rule="evenodd" d="M64.089,65.128    c-0.324-0.301-0.57-0.523-0.809-0.752c-7.747-7.442-15.485-14.893-23.243-22.323c-3.554-3.403-9.008-3.278-12.394,0.24    c-3.335,3.465-3.289,8.953,0.218,12.342c10.053,9.712,20.135,19.395,30.234,29.06c3.365,3.22,8.546,3.187,11.959,0.008    c1.367-1.273,2.7-2.582,4.047-3.877c8.635-8.299,17.265-16.604,25.909-24.893c2.077-1.992,3.165-4.398,2.892-7.263    c-0.347-3.643-2.268-6.265-5.717-7.521c-3.438-1.252-6.565-0.496-9.218,2.038c-4.342,4.147-8.664,8.317-12.994,12.478    C71.37,58.128,67.765,61.594,64.089,65.128z M64.067,6.688c17.398,0,34.796-0.005,52.194,0.003    c5.391,0.003,10.025,3.481,11.368,8.535c0.212,0.798,0.345,1.643,0.346,2.467c0.008,13.594,0.075,27.189-0.048,40.782    c-0.125,13.888-4.326,26.462-12.875,37.441c-9.513,12.219-21.782,20.266-36.903,23.761c-34.72,8.023-67.887-14.386-76.074-45.75    c-1.091-4.181-1.835-8.424-1.871-12.742C0.084,46.724-0.006,32.263,0,17.803C0.003,11.716,5.433,6.696,11.773,6.691    C29.204,6.68,46.636,6.688,64.067,6.688z" fill="#F43B53" fill-rule="evenodd" id="Pocket_1_"/></g></g></svg>