<?xml version="1.0" ?><!DOCTYPE svg  PUBLIC '-//W3C//DTD SVG 1.1//EN'  'http://www.w3.org/Graphics/SVG/1.1/DTD/svg11.dtd'><svg enable-background="new 0 0 128 128" id="Social_Icons" version="1.1" viewBox="0 0 128 128" xml:space="preserve" xmlns="http://www.w3.org/2000/svg" xmlns:xlink="http://www.w3.org/1999/xlink"><g id="_x35__stroke"><g id="Product_Hunt"><rect clip-rule="evenodd" fill="none" fill-rule="evenodd" height="128" width="128"/><path clip-rule="evenodd" d="M72.532,44.8L72.532,44.8H54.4V64h18.132    c5.304,0,9.6-4.3,9.6-9.6C82.132,49.1,77.836,44.8,72.532,44.8 M64,0C28.652,0,0,28.652,0,64s28.652,64,64,64    c35.344,0,64-28.652,64-64S99.344,0,64,0 M72.532,76.8L72.532,76.8H54.4V96H41.6V32h30.932c12.372,0,22.4,10.028,22.4,22.4    S84.904,76.8,72.532,76.8" fill="#DE5425" fill-rule="evenodd" id="Product_Hunt_1_"/></g></g></svg>