<?xml version="1.0" ?><!DOCTYPE svg  PUBLIC '-//W3C//DTD SVG 1.1//EN'  'http://www.w3.org/Graphics/SVG/1.1/DTD/svg11.dtd'><svg enable-background="new 0 0 128 128" id="Social_Icons" version="1.1" viewBox="0 0 128 128" xml:space="preserve" xmlns="http://www.w3.org/2000/svg" xmlns:xlink="http://www.w3.org/1999/xlink"><g id="_x32__stroke"><g id="Scoopit"><rect clip-rule="evenodd" fill="none" fill-rule="evenodd" height="128" width="128"/><path clip-rule="evenodd" d="M83.622,90.814h16.529v15.89H83.622V90.814z     M44.126,20.568c-4.682,0.051-11.6,0.042-16.277,0l-0.028,14.168h16.291L44.126,20.568z M69.044,20.568l-16.553-0.009    l0.023,21.856L27.756,42.41l0.037,32.14l0.005,32.177h16.436l-0.047-52.974l8.295-0.005l-0.019,38.027    c0,1.919,0.117,3.833,0.364,5.737c0.686,5.471,3.025,8.295,8.108,9.304c5.602,1.111,11.992,0.537,17.612-0.065l0.023-11.32    c-0.378,0.009-3.776,0.009-4.15,0c-3.646-0.126-5.326-1.667-5.345-5.317L69.03,53.744l9.537,0.005l0.005-11.283l-9.551-0.005    L69.044,20.568z M83.617,38.605l2.259,44.441c3.3-0.065,8.762-0.047,12.062-0.014l2.236-44.585l0.042-17.893H83.608L83.617,38.605    z M0,128V0h128v128H0z" fill="#66AD2B" fill-rule="evenodd" id="Scoopit_1_"/></g></g></svg>