<?xml version="1.0" ?><!DOCTYPE svg  PUBLIC '-//W3C//DTD SVG 1.1//EN'  'http://www.w3.org/Graphics/SVG/1.1/DTD/svg11.dtd'><svg enable-background="new 0 0 128 128" id="Social_Icons" version="1.1" viewBox="0 0 128 128" xml:space="preserve" xmlns="http://www.w3.org/2000/svg" xmlns:xlink="http://www.w3.org/1999/xlink"><g id="_x37__stroke"><g id="Sketch_1_"><rect clip-rule="evenodd" fill="none" fill-rule="evenodd" height="128" width="128"/><path clip-rule="evenodd" d="M105.576,51.347L94.527,35.958l7.864-5.825    l12.257,9.286L105.576,51.347z M64,106.013L33.585,66.021h60.831L64,106.013z M25.591,30.147l10.175,6.035L24.074,53.516    L13.351,39.419L25.591,30.147z M46.604,39.991l37.349,0.297l10.489,14.609H36.548L46.604,39.991z M41.142,18.369h45.718    l6.296,4.77l-8.149,6.033l-39.796-0.314l-10.049-5.96L41.142,18.369z M125.796,33.915l-19.277-14.604    c-0.432-0.454-0.92-0.826-1.456-1.101L92.076,8.37c-0.966-0.729-2.142-1.125-3.352-1.125H39.277c-1.21,0-2.389,0.396-3.352,1.125    L2.203,33.915c-2.451,1.857-2.93,5.354-1.067,7.803l58.443,76.844c2.224,2.925,6.617,2.925,8.842,0l58.445-76.844    C128.727,39.269,128.247,35.772,125.796,33.915z" fill="#FFC100" fill-rule="evenodd" id="Sketch"/></g></g></svg>