<?xml version="1.0" ?><!DOCTYPE svg  PUBLIC '-//W3C//DTD SVG 1.1//EN'  'http://www.w3.org/Graphics/SVG/1.1/DTD/svg11.dtd'><svg enable-background="new 0 0 128 128" id="Social_Icons" version="1.1" viewBox="0 0 128 128" xml:space="preserve" xmlns="http://www.w3.org/2000/svg" xmlns:xlink="http://www.w3.org/1999/xlink"><g id="_x31__stroke"><g id="Soundcloud_1_"><rect fill="none" height="128" width="128"/><path clip-rule="evenodd" d="M54.976,98.429V32.711    c0-2.094,0.615-3.342,1.846-3.745C59.483,28.322,62.124,28,64.745,28c6.075,0,11.734,1.45,16.975,4.349    c5.242,2.899,9.48,6.856,12.717,11.869c3.236,5.014,5.113,10.54,5.629,16.581c2.422-1.047,5.003-1.57,7.743-1.57    c5.559,0,10.314,1.993,14.265,5.98c3.951,3.987,5.927,8.779,5.927,14.376c0,5.638-1.976,10.45-5.927,14.436    c-3.951,3.987-8.686,5.98-14.206,5.98l-51.819-0.06c-0.357-0.121-0.626-0.342-0.804-0.664    C55.065,98.953,54.976,98.671,54.976,98.429z M41.039,96.678c0,2.215,1.469,3.322,4.408,3.322c2.938,0,4.407-1.107,4.407-3.322    V36.275c0-3.383-1.087-5.687-3.062-5.942c-1.338-0.173-2.577-0.171-3.847,0.917c-1.271,1.087-1.906,3.052-1.906,5.025    L41.039,96.678L41.039,96.678z M27.339,96.496c0,1.168,0.417,2.044,1.251,2.628c0.834,0.584,1.906,0.876,3.216,0.876    c1.271,0,2.313-0.292,3.127-0.876c0.814-0.584,1.221-1.46,1.221-2.628V59.228c0-1.248-0.427-2.315-1.281-3.201    c-0.854-0.886-1.876-1.329-3.067-1.329c-1.231,0-2.283,0.443-3.157,1.329c-0.874,0.886-1.31,1.953-1.31,3.201L27.339,96.496    L27.339,96.496z M13.699,94.564c0,1.168,0.407,2.044,1.221,2.628c0.814,0.584,1.856,0.876,3.127,0.876    c1.31,0,2.372-0.292,3.187-0.876c0.814-0.584,1.221-1.46,1.221-2.628V53.731c0-1.208-0.427-2.245-1.281-3.111    c-0.854-0.866-1.896-1.299-3.127-1.299c-1.191,0-2.214,0.433-3.067,1.299c-0.854,0.866-1.281,1.903-1.281,3.111V94.564z M0,87.074    c0,1.611,0.576,2.829,1.727,3.654c1.152,0.825,2.383,1.117,3.693,0.876c1.231-0.242,2.095-0.685,2.591-1.329    c0.496-0.644,0.745-1.711,0.745-3.201V69.557c0-1.248-0.427-2.305-1.281-3.171c-0.854-0.866-1.896-1.299-3.127-1.299    c-1.191,0-2.214,0.433-3.067,1.299C0.427,67.251,0,68.309,0,69.557V87.074z" fill="#FF4300" fill-rule="evenodd" id="Soundcloud"/></g></g></svg>