<?xml version="1.0" ?><!DOCTYPE svg  PUBLIC '-//W3C//DTD SVG 1.1//EN'  'http://www.w3.org/Graphics/SVG/1.1/DTD/svg11.dtd'><svg enable-background="new 0 0 128 128" id="Social_Icons" version="1.1" viewBox="0 0 128 128" xml:space="preserve" xmlns="http://www.w3.org/2000/svg" xmlns:xlink="http://www.w3.org/1999/xlink"><g id="_x31__stroke"><g id="Viadeo_1_"><rect fill="none" height="128" width="128"/><g id="Viadeo"><path clip-rule="evenodd" d="M112.253,2.905C106.861,14.42,96.885,16.54,96.885,16.54     c-9.976,2.539-13.466,6.412-13.466,6.412c-9.976,10.076-2.11,22.297-2.11,22.297c21.54-4.92,29.406-22.716,29.406-22.716     c-0.964,11.96-26.593,26.066-26.593,26.066c8.491,8.348,16.592,7.328,21.931,4.135c7.085-4.24,10.497-13.53,10.497-13.53     C123.427,18.581,112.253,2.905,112.253,2.905z M76.934,37.764c0.234,3.533,4.115,66.473-29.042,79.087     c0,0,3.047,0.576,6.486,0.419c0,0,42.195-26.746,22.843-78.642C77.22,38.628,77.142,38.314,76.934,37.764z M59.274,0     c10.601,17.901,16.357,33.943,17.66,37.764v-0.157C74.329,10.023,59.274,0,59.274,0z" fill="#FF7452" fill-rule="evenodd"/><path clip-rule="evenodd" d="M87.821,82.332c0,6.359-1.511,12.274-4.532,17.77     c-3.021,5.496-7.085,9.735-12.242,12.719c-5.131,2.983-10.783,4.475-16.904,4.475c-6.147,0-11.773-1.492-16.904-4.475     c-5.131-2.983-9.22-7.223-12.242-12.719c-3.021-5.496-4.532-11.41-4.532-17.77c0-9.84,3.308-18.241,9.924-25.202     c6.616-6.935,14.534-10.416,23.754-10.416c4.376,0,8.465,0.811,12.268,2.382c0.391-4.03,1.797-7.773,3.334-10.835     c-4.793-1.753-9.976-2.617-15.576-2.617c-13.31,0-24.327,4.92-33.053,14.786c-7.918,8.924-11.903,19.497-11.903,31.64     c0,12.274,4.193,23.004,12.554,32.164C30.154,123.42,40.938,128,54.143,128c13.153,0,23.937-4.58,32.298-13.766     c8.387-9.186,12.554-19.916,12.554-32.164c0-6.569-1.146-12.667-3.438-18.267c-3.855,2.382-7.501,3.612-10.523,4.266     C86.91,72.414,87.821,77.177,87.821,82.332z" fill="#2A2A2A" fill-rule="evenodd"/></g></g></g></svg>