<?xml version="1.0" ?><!DOCTYPE svg  PUBLIC '-//W3C//DTD SVG 1.1//EN'  'http://www.w3.org/Graphics/SVG/1.1/DTD/svg11.dtd'><svg enable-background="new 0 0 128 128" id="Social_Icons" version="1.1" viewBox="0 0 128 128" xml:space="preserve" xmlns="http://www.w3.org/2000/svg" xmlns:xlink="http://www.w3.org/1999/xlink"><g id="_x37__stroke"><g id="Vine_1_"><rect clip-rule="evenodd" fill="none" fill-rule="evenodd" height="128" width="128"/><path clip-rule="evenodd" d="M119.652,63.632c-3.269,0.76-6.435,1.096-9.28,1.096    c-16.021,0-28.352-11.28-28.352-30.892c0-9.612,3.686-14.612,8.899-14.612c4.959,0,8.264,4.488,8.264,13.588    c0,5.176-1.377,10.844-2.388,14.2c0,0,4.936,8.68,18.433,6.016c2.865-6.412,4.424-14.724,4.424-22.012    C119.652,11.408,109.733,0,91.554,0C72.867,0,61.933,14.484,61.933,33.58c0,18.92,8.772,35.164,23.238,42.564    c-6.082,12.264-13.823,23.072-21.897,31.216C48.63,89.508,35.39,65.696,29.955,19.224H8.348    c9.982,77.396,39.735,102.041,47.598,106.773c4.452,2.692,8.284,2.564,12.351,0.256c6.388-3.664,25.567-22.992,36.196-45.636    c4.459-0.012,9.82-0.528,15.16-1.748V63.632z" fill="#00B687" fill-rule="evenodd" id="Vine"/></g></g></svg>