<?xml version="1.0" ?><svg viewBox="0 0 512 512" xmlns="http://www.w3.org/2000/svg"><defs><style>.cls-1{fill:#ff9499;}.cls-2{opacity:0.3;}.cls-3{fill:#fff;}.cls-4{opacity:0.2;}.cls-5{fill:#3f456b;}</style></defs><title/><g id="Colors"><path class="cls-1" d="M478.59,391.27c-1.83,35.79-15,65.79-45.19,86.74a99,99,0,0,1-48,17.41c-20.26,1.87-39.41-2.55-57.83-10.54a153.07,153.07,0,0,1-39.84-25.54C277,450,267,439.82,256.78,429.89c-1.89-1.83-2.59-.51-3.75.61-10.34,9.92-20.3,20.29-31.16,29.6-15.09,12.93-32,23.18-51,29.42-13.42,4.41-27.24,7.21-41.42,6.31-23.59-1.49-44.55-9.88-62.37-25.58C48.69,454,37.84,433.6,33.71,409.55c-2.5-14.55-1-28.87,2.71-43.08,3.44-13.15,9.4-25.28,15-37.55q13.2-29,26.76-57.78,11.06-23.5,22.47-46.84,17.13-35,34.55-69.84,21.12-42.06,42.63-83.91c5.78-11.17,12.48-21.82,21.52-30.8,12.62-12.54,27.56-20.62,45.21-23,29.39-4,53.24,6.27,72.32,28.6,9.73,11.39,16.31,24.64,23.06,37.82,7.43,14.5,15,28.91,22.41,43.43q12.42,24.39,24.58,48.91c7.13,14.34,14.24,28.69,21.17,43.13q16.73,34.88,33.19,69.88,12.94,27.54,25.54,55.24c6,13.11,10.44,26.68,11.75,41.13C478.76,387,478.59,389.12,478.59,391.27ZM173.88,274.1c.53-5.27.77-10.59,1.63-15.8,3.55-21.63,14.63-38.62,32.59-51,13.7-9.43,29.07-13.93,45.73-14.17,23.54-.34,44.17,6.82,61,23.67A73.27,73.27,0,0,1,334.74,253c3.47,15.38,2.52,30.8-.79,46-5.5,25.25-16.72,48.14-30.9,69.53C294.78,381,285.56,392.88,276.69,405a2.42,2.42,0,0,0,.21,3.63c14.48,15.61,29.7,30.37,47.84,41.78,17.58,11.06,36.4,18.21,57.52,16.25,28.72-2.67,49.29-17.57,60.92-43.83,9.23-20.82,7.7-42.11-1.26-62.63-10.81-24.73-22.2-49.22-33.71-73.64-13.33-28.29-27-56.44-40.67-84.56-8.92-18.33-18.08-36.55-27.31-54.73-11.67-23-23.33-46-35.37-68.79-7-13.17-16.66-23.83-31.31-28.79-18.82-6.38-35.77-2.77-50.79,10.05C215.92,65.53,211.16,73,207,80.84Q199.37,95,192,109.28c-12.65,24.79-25.33,49.58-37.79,74.46-9.93,19.81-19.64,39.73-29.3,59.67q-13.39,27.64-26.45,55.45c-9.36,20-18.67,40-27.68,60.11-6.52,14.56-10,29.79-7.92,45.9a72.3,72.3,0,0,0,61.79,61.78c21,2.84,40-2.92,57.92-13.4,19.86-11.61,36.31-27.18,51.66-44.07,1.37-1.5,1.24-2.53.12-4.07-8.23-11.28-16.68-22.41-24.48-34-13-19.24-23.4-39.78-30-62.13C176.51,297.61,174.11,286.08,173.88,274.1Zm133.17-2c-.29-2.45-.55-6.73-1.32-10.92-2.5-13.46-9.15-24.36-20.92-31.62-15.53-9.58-32.21-10.83-49-4.45-15.22,5.77-25.46,16.68-29.61,32.88-3.07,12-2.08,23.81.62,35.6,3.76,16.38,10.78,31.47,19.09,46a356.69,356.69,0,0,0,27.78,40.84c1.56,2,2.47,2,3.91-.05,5-7.05,10.38-13.88,15.23-21,11.08-16.39,20.88-33.47,27.64-52.17A109.3,109.3,0,0,0,307.05,272.15Z"/><g class="cls-2"><path class="cls-3" d="M177,251.32S197,205,257,205s76.51,43.28,76.51,43.28S321,193.15,257,193.15,177,251.32,177,251.32Z"/></g><g class="cls-2"><path class="cls-3" d="M177,74.32S196.68,28,255.72,28,331,71.28,331,71.28s-12.31-55.13-75.28-55.13S177,74.32,177,74.32Z"/></g><g class="cls-4"><path class="cls-5" d="M40.92,434.32S65,484,128,484s101.6-30.81,101.6-30.81S195,496,129,496s-88.08-61.68-88.08-61.68"/></g><g class="cls-4"><path class="cls-5" d="M467.6,434.32S443.52,484,380.52,484s-101.6-30.81-101.6-30.81S313.52,496,379.52,496s88.08-61.68,88.08-61.68"/></g></g><g id="Lines"><path class="cls-5" d="M134.7,501c-1.87,0-3.73-.06-5.57-.18-25-1.57-46.95-10.6-65.36-26.82-18.82-16.59-30.59-38-35-63.6-2.41-14-1.49-28.8,2.8-45.2,3.12-11.91,8.22-23,13.15-33.73q1.07-2.31,2.12-4.63c8.3-18.21,17.06-37.13,26.79-57.83,7.49-15.93,15.06-31.72,22.5-46.91,10.07-20.56,22-44.94,34.57-69.88,12.65-25.19,27.6-54.86,42.66-84,7.1-13.71,14.23-23.9,22.43-32,13.84-13.74,30-22,48.06-24.45,30.23-4.15,56.07,6,76.8,30.3,9.66,11.31,16.33,24.36,22.78,37l.94,1.82q5,9.87,10.16,19.69c4,7.78,8.2,15.81,12.25,23.75,7.42,14.6,15.47,30.61,24.6,49,6.83,13.73,14.09,28.38,21.19,43.18,11.35,23.65,22.52,47.17,33.21,69.93,7.55,16.06,15.67,33.63,25.57,55.29,7,15.27,11,29.25,12.18,42.75a41.57,41.57,0,0,1,.08,5c0,.64,0,1.28,0,1.92a2.09,2.09,0,0,1,0,.25c-2,39.7-17.94,70.18-47.32,90.59a103.9,103.9,0,0,1-50.43,18.28c-19.47,1.81-39.19-1.77-60.28-10.92a158.41,158.41,0,0,1-41.14-26.36c-8.44-7.38-16.53-15.32-24.35-23l-4.86-4.76c-2.61,2.53-5.23,5.1-7.77,7.61-7.14,7-14.53,14.28-22.31,20.95C208.69,478,191,488.19,172.43,494.27,158.7,498.78,146.29,501,134.7,501ZM256.9,20.83a85.71,85.71,0,0,0-11.68.83c-15.85,2.18-30.11,9.46-42.37,21.63-7.45,7.4-14,16.79-20.59,29.56-15,29.06-30,58.7-42.61,83.85-12.5,24.91-24.47,49.26-34.53,69.79-7.42,15.15-15,30.89-22.43,46.78C73,293.93,64.23,312.81,56,331c-.7,1.55-1.42,3.11-2.13,4.66-5,10.81-9.67,21-12.56,32.09-3.93,15-4.79,28.38-2.63,41,4,23.3,14.69,42.74,31.76,57.79,16.7,14.72,36.68,22.91,59.37,24.34,12,.77,24.62-1.16,39.56-6.07,17.28-5.67,33.86-15.25,49.29-28.47,7.53-6.44,14.79-13.58,21.81-20.48,3-2.94,6.07-6,9.15-8.93l.3-.31A7.24,7.24,0,0,1,255,424h.11a7.31,7.31,0,0,1,5.14,2.33q3.41,3.31,6.79,6.66c7.73,7.58,15.71,15.43,23.93,22.61a148.62,148.62,0,0,0,38.54,24.71c19.52,8.47,37.63,11.79,55.38,10.15a94.13,94.13,0,0,0,45.64-16.54c27.05-18.8,41.13-45.87,43-82.77,0-.67,0-1.34,0-2a32,32,0,0,0,0-3.82c-1.12-12.35-4.82-25.27-11.32-39.5-9.88-21.62-18-39.16-25.52-55.19-10.68-22.73-21.84-46.23-33.17-69.85-7.08-14.75-14.32-29.36-21.14-43.06-9.11-18.32-17.14-34.3-24.56-48.87-4-7.91-8.18-15.93-12.2-23.68q-5.12-9.86-10.2-19.74l-.93-1.83C328.07,70.92,322,59,313.06,48.55,297.18,30,278.72,20.83,256.9,20.83ZM478.59,391.27h0Zm-343.26,81.1A84.54,84.54,0,0,1,124,471.6a77.08,77.08,0,0,1-66.08-66.08c-2-15.62.67-31.51,8.32-48.6C74.84,337.73,83.54,319,94,296.74c8.19-17.47,16.85-35.63,26.48-55.51,8.6-17.75,18.81-38.73,29.33-59.73,11.55-23.07,23.48-46.42,35-69l2.8-5.49c4.31-8.44,9.07-17.5,15-28.52,4-7.39,9.07-15.85,17-22.59,16.6-14.17,35.33-17.86,55.64-11,14.46,4.9,25.62,15.11,34.12,31.2,11.58,21.91,23,44.37,34,66.08l1.41,2.78c11.21,22.08,19.64,39,27.35,54.8,15.26,31.34,28,57.72,40.7,84.62,10.92,23.17,22.57,48.15,33.76,73.77,10.14,23.22,10.56,45.64,1.25,66.66-12.31,27.79-34.8,44-65,46.78-20,1.85-39.25-3.54-60.64-17-19.71-12.39-35.75-28.5-48.84-42.61a7.33,7.33,0,0,1-.58-10q3.64-5,7.33-9.87c6.37-8.55,13-17.38,18.9-26.34,15.44-23.29,25.31-45.48,30.17-67.83,3.53-16.21,3.8-30.55.8-43.84a68.39,68.39,0,0,0-18.62-33.77c-15.22-15.28-34-22.52-57.34-22.2-16,.23-30.49,4.7-43,13.29a71.41,71.41,0,0,0-25.45,30.23,81.86,81.86,0,0,0-6.56,32.45h0c-.12,27.73,11.7,59.43,35.12,94.21,5.76,8.56,12,17.05,18.08,25.27q3.15,4.27,6.29,8.56c3.48,4.78,1.21,8.56-.46,10.39-19,20.86-35.26,34.74-52.83,45C168.16,467.48,151.77,472.37,135.33,472.37ZM255.83,51.55c-10.61,0-20.46,4-29.82,12-6.63,5.66-11.13,13.13-14.64,19.7-5.88,11-10.6,20-14.88,28.35l-2.8,5.49c-11.53,22.57-23.44,45.91-35,68.94-10.5,21-20.69,41.89-29.27,59.61-9.61,19.84-18.26,38-26.42,55.39-10.4,22.2-19.08,40.9-27.64,60-6.87,15.34-9.34,29.48-7.53,43.21a67,67,0,0,0,57.5,57.47c18,2.44,35.88-1.74,54.73-12.76,16.34-9.55,31.64-22.53,49.45-42l-5.45-7.42c-6.12-8.3-12.44-16.88-18.33-25.62-24.55-36.47-36.94-70.06-36.82-99.83a91.88,91.88,0,0,1,7.38-36.38,81.47,81.47,0,0,1,29-34.5c14.13-9.72,30.44-14.79,48.49-15,25.86-.37,47.57,8.09,64.57,25.14a78.32,78.32,0,0,1,21.29,38.64c3.32,14.74,3.06,30.49-.79,48.15-5.13,23.59-15.47,46.89-31.61,71.24-6.09,9.19-12.76,18.13-19.22,26.78q-3.12,4.18-6.22,8.38c12.46,13.37,27.51,28.27,45.62,39.66,19.44,12.22,36.73,17.14,54.4,15.5,26.78-2.49,45.89-16.24,56.81-40.87,8.13-18.35,7.7-38.07-1.28-58.61-11.14-25.5-22.75-50.4-33.64-73.5-12.65-26.86-25.4-53.21-40.64-84.51-7.68-15.77-16.09-32.63-27.28-54.65l-1.41-2.78c-11-21.68-22.38-44.1-33.92-65.94-7.25-13.72-16.57-22.36-28.49-26.4A50.1,50.1,0,0,0,255.83,51.55ZM173.93,274.1h0ZM255.64,387c-3.28,0-5.27-2.58-5.93-3.43a356.16,356.16,0,0,1-28.17-41.42c-10-17.41-16.2-32.46-19.62-47.36-3.33-14.5-3.52-26.56-.6-38,4.45-17.33,15.75-29.88,32.69-36.31,18.44-7,36.91-5.31,53.43,4.87,12.53,7.73,20.34,19.5,23.2,35,.61,3.25.91,6.54,1.14,8.95.08.88.16,1.66.23,2.3a4.51,4.51,0,0,1,0,.73,114.39,114.39,0,0,1-6.9,36.61c-6.13,17-15.09,33.88-28.2,53.27-3,4.43-6.21,8.76-9.31,12.95-2,2.68-4,5.45-6,8.19-.62.88-2.54,3.57-5.88,3.64Zm.7-160.75a52.67,52.67,0,0,0-18.78,3.62c-14,5.3-22.9,15.2-26.55,29.45-2.51,9.79-2.3,20.35.66,33.24,3.19,13.9,9.08,28.09,18.55,44.63a337.94,337.94,0,0,0,25.31,37.55c1.36-1.87,2.73-3.71,4.07-5.52,3-4.11,6.18-8.35,9.06-12.61,12.63-18.68,21.23-34.9,27.08-51.07a104.59,104.59,0,0,0,6.3-33.14c-.07-.63-.14-1.36-.21-2.15-.23-2.35-.5-5.26-1-8.07-2.33-12.58-8.6-22.09-18.62-28.27A48.61,48.61,0,0,0,256.34,226.21Z"/></g></svg>