<?xml version="1.0" encoding="utf-8"?>
<!-- Generator: Adobe Illustrator 26.0.3, SVG Export Plug-In . SVG Version: 6.00 Build 0)  -->
<svg version="1.1" id="Ebene_1" xmlns="http://www.w3.org/2000/svg" xmlns:xlink="http://www.w3.org/1999/xlink" x="0px" y="0px"
	 viewBox="0 0 512 512" style="enable-background:new 0 0 512 512;" xml:space="preserve">
<style type="text/css">
	.st0{fill:#767C93;}
	.st1{fill:#FFB666;}
	.st2{opacity:0.2;}
	.st3{fill:#3F456B;}
	.st4{opacity:0.1;}
	.st5{fill:#FFFFFF;}
</style>
<g id="Colors">
	<path class="st0" d="M369.9,196.1c0,22.1,0.2,40.8-0.1,59.4c-0.4,14.2,4.1,28.1,12.7,39.4c2.8,3.8,5.8,7.4,8.3,11.4
		c3.4,5.5,2.5,9.4-2.4,13.6c-12.5,10.6-25.1,21.2-37.6,31.8c-6.7,5.7-11.6,5.6-18.3,0.2c-10-8.2-18.1-18.1-25.1-29
		c-1.7-2.6-2.6-2.6-4.8-0.5c-11.6,11.3-23.9,21.8-39.2,27.7c-23.9,9.2-48.6,10.6-73.3,3.9c-27.1-7.4-44.1-25.6-50.2-53
		c-7.3-33.2-2.1-63.9,22.5-89.1c13.9-14.3,31.5-22.3,50.6-27.3c22.3-5.9,45.2-7.9,68.1-10.3c4.3-0.4,9.9,0.7,12.6-2
		s0.7-8.1,0.8-12.2c0.2-6.1-0.2-12.2-1.3-18.2c-2.5-13.4-10.4-21.9-23.4-25.3c-12.2-3.4-25.3-1.8-36.4,4.4
		c-9.9,5.4-15.7,14-18.3,24.9c-1.9,8-5.2,10.3-13.4,9.5c-15.6-1.6-31.1-3.2-46.7-4.9c-7.1-0.8-10.3-5.4-8.9-12.5
		c6.4-31.1,24.2-53.5,53.3-65.7c40-16.8,80.9-18.1,121.6-2.3c30.1,11.7,45.7,34.7,47.9,66.8C370.5,157.7,369.5,178.7,369.9,196.1z
		 M294.7,232.5c0-3.4-0.2-8.8,0.1-14.1c0.1-2.9-0.9-3.8-3.8-3.7c-12.5,0.5-25,1.2-37.1,4.6c-26.9,7.4-40.3,25.2-38.5,51.7
		c0.9,13.5,5.5,25.4,18.9,31.1c13.6,5.8,26.4,2.7,37.8-6.2c7.6-5.9,12.6-13.7,16.4-22.5C293.9,261,294.4,247.7,294.7,232.5
		L294.7,232.5z"/>
	<path class="st1" d="M260.7,453.2c-41.6-0.4-77.4-5.5-112.3-16.3c-42.3-13-81.8-34-116.1-62c-4-3.2-7.9-6.5-11.7-10
		c-1.9-1.7-3.7-4-2-6.6c1.9-2.9,4.7-1.8,7.1-0.6c9.5,4.8,18.8,10,28.4,14.5c33.5,16,68.8,28,105.1,35.7c19.1,4.1,38.5,7.1,58,9
		c19.7,1.9,39.6,2.9,59.4,2c40.6-1.9,80.5-8,119.4-19.9c14.5-4.3,28.8-9.4,42.7-15.3c2.9-1.2,6-1.7,9.2-1.4c5.1,0.6,7.4,5.2,4.8,9.7
		c-1.1,1.7-2.5,3.2-4.2,4.3c-27.7,19-58.1,32.1-90.2,41.7c-20.6,6.1-41.7,10.3-63,12.8C282.1,452.5,268.9,453.7,260.7,453.2z"/>
	<path class="st1" d="M444.9,366.7c-10.3-0.6-21.4,1.1-32.5,2.4c-2.4,0.3-4.7,0.3-5.9-1.6c-1.4-2.4,0.8-4.1,2.5-5.4
		c6.1-4.7,13.2-7.7,20.6-9.8c18.9-5.3,38-6.5,57.2-1.7c7.6,1.9,9.4,3.8,9.1,11.8c-1.2,27-10.5,50.5-30.6,69.1
		c-0.4,0.5-0.9,0.9-1.4,1.2c-1.7,1-3.6,2.4-5.6,0.7c-1.6-1.4-1-3.4-0.4-5.2c3.3-8.8,6.7-17.5,9.9-26.3c2.4-7.1,4.2-14.4,5.3-21.8
		c1.4-8.3-3.7-13.1-14.2-13.5C454.7,366.5,450.3,366.7,444.9,366.7z"/>
	<g class="st2">
		<path class="st3" d="M18,365c0,0,104,74,237,74s199-48,199-48s-68,62.4-203,62.4C251,453.4,117,457,18,365z"/>
	</g>
	<g class="st2">
		<path class="st3" d="M140,301c0,0,12,46,91,40c0,0,42-2,72-20c0,0-19,33-75,36S146,333,140,301z"/>
	</g>
	<g class="st2">
		<path class="st3" d="M214,265c0.2-1.5-0.6-3.6-0.7-5.2c-0.3-4.4-0.1-8.8,0.7-13.1c2.2-13,9.8-25.2,20.9-32.4
			c13.7-8.9,32-12.8,48.1-14.3c0,0,15.5-1.5,11.8,14.8C294.8,214.8,222,205,214,265z"/>
	</g>
	<g class="st2">
		<path class="st3" d="M330,348l56.5-48.5c0,0,11,7.5,4.2,17.5L351,352C351,352,342,361,330,348z"/>
	</g>
	<g class="st2">
		<path class="st3" d="M147,135c0,0-4,13,8,15s44,5,44,5s13,2,16-9s13.5-29,37.2-30.5s33.8,10,38.8,17.8c0,0-4-30.2-37-30.2
			s-46,27-52,39L147,135z"/>
	</g>
	<g class="st4">
		<path class="st5" d="M151.7,121c0,0,23.3-45,110.3-48s106,53,106,53s-3.7-67-105.3-67C262.7,59,178.3,56,151.7,121z"/>
	</g>
	<g class="st4">
		<path class="st5" d="M295,172c0,0-140,14-157.5,108.5C137.5,280.5,116,177,295,172z"/>
	</g>
	<g class="st4">
		<path class="st5" d="M215.9,280.5c0,0-4.9,38.5,38.1,37.5s40.8-71.3,40.8-71.3s-1.9,51.3-43.8,58.3
			C250.9,305,226.7,310,215.9,280.5z"/>
	</g>
</g>
<g id="Lines">
	<path class="st3" d="M220.9,363.1c-10.8,0-21.6-1.5-32.1-4.4c-28.7-7.9-47.3-27.5-53.7-56.8c-8.3-37.5-0.2-69,23.8-93.7
		c13.1-13.5,29.9-22.6,52.9-28.6c21-5.6,42.8-7.8,63.8-9.9l5.1-0.5c1.5-0.1,3-0.2,4.5-0.1c1.5,0,4,0,4.9-0.4c0.1-1.4,0-2.8-0.2-4.2
		c-0.2-1.6-0.3-3.1-0.3-4.7c0.2-5.8-0.2-11.5-1.2-17.2c-2.1-11.4-8.6-18.4-19.8-21.3c-11-3-22.8-1.6-32.7,4
		c-8.2,4.5-13.4,11.6-15.8,21.7c-2.5,10.4-8.1,14.4-18.7,13.3c-17.4-1.7-32.6-3.3-46.7-4.9c-6.2-0.7-9.4-3.6-11.1-5.8
		s-3.4-6.4-2.1-12.6c6.8-33.2,25.8-56.5,56.2-69.3c41.9-17.6,84-18.4,125.4-2.4c31.5,12.2,48.7,36.1,51.1,71.1
		c0.9,13.8,0.9,27.3,0.8,40.3c0,6.8-0.1,13.3,0,19.3v0.1c0,6.9,0,13.5,0,19.8c0,13.8,0.1,26.8-0.1,39.7
		c-0.4,13.1,3.7,25.9,11.7,36.3l1.8,2.4c2.3,3,4.6,6.1,6.7,9.4c4.6,7.5,3.5,14.2-3.4,20l-6.2,5.2c-10.4,8.9-20.9,17.7-31.4,26.6
		c-8.5,7.2-16.1,7.2-24.7,0.2c-9.1-7.4-17.2-16.7-24.8-28.2c-11.1,10.7-23.7,21.2-39.3,27.2C251.1,360.2,236.1,363.1,220.9,363.1z
		 M284.3,179.1c-0.9,0-1.8,0-2.6,0.1l-5.1,0.5c-20.6,2.1-41.9,4.3-62.2,9.6c-21.1,5.6-36.4,13.8-48.3,25.9
		c-21.9,22.5-28.8,50.1-21.2,84.6c5.7,25.8,21.4,42.4,46.6,49.3c23.4,6.4,46.9,5.1,70.1-3.7c14.7-5.6,26.7-16.1,37.5-26.6
		c1-1,3.4-3.3,6.7-2.9s5,3.1,5.8,4.3c7.4,11.5,15.2,20.6,24,27.8c4.9,4,7.1,4,11.9-0.1c10.5-8.9,21-17.7,31.4-26.6l6.2-5.2
		c3.3-2.8,3.2-4.1,1.3-7.1s-3.9-5.7-6.1-8.6l-1.9-2.4c-9.3-12.2-14.1-27.2-13.7-42.5c0.2-12.8,0.1-25.7,0.1-39.5
		c0-6.3,0-12.9,0-19.8c-0.1-6.2-0.1-12.7,0-19.5c0.1-12.8,0.2-26.1-0.7-39.6c-2.2-30.8-17.2-51.8-44.7-62.5
		c-38.8-15-78.5-14.3-117.9,2.3c-27.3,11.5-44.2,32.3-50.3,62.1c-0.3,1.5-0.5,3.5,0.4,4.7s2.7,1.6,4.1,1.8
		c14.1,1.6,29.3,3.1,46.6,4.9c5.6,0.6,6.7-0.2,8-5.7c3.1-12.8,10.1-22.3,20.8-28.1c12.2-6.8,26.5-8.6,40-4.9
		c14.9,3.9,24.3,13.9,27.1,29.1c1.1,6.3,1.6,12.8,1.4,19.2c0,1.1,0.1,2.3,0.3,3.4c0.4,3.9,1,8.7-2.5,12.2s-8.3,3.4-12.2,3.4
		L284.3,179.1z M248.1,310.1c-5.4,0-10.8-1.2-15.8-3.3c-13.5-5.7-20.7-17.3-21.9-35.4c-2-28.7,13-48.9,42.1-56.9
		c13-3.6,26-4.3,38.3-4.8c2.5-0.3,4.9,0.5,6.8,2.2c2.4,2.4,2.2,5.6,2.2,6.7c-0.2,3.8-0.1,7.6-0.1,10.7c0,1.2,0,2.2,0,3.2v0.1
		c-0.3,16.2-0.9,29.7-6.6,42.9c-4.6,10.6-10.4,18.6-17.9,24.4C266.5,306.7,257.3,310.1,248.1,310.1L248.1,310.1z M289.7,219.8
		c-11.2,0.4-23.1,1.2-34.5,4.4c-24.8,6.8-36.5,22.4-34.8,46.5c1,14.1,6,22.7,15.9,26.9c11.1,4.7,22.1,2.8,32.8-5.5
		c6.1-4.8,11-11.5,14.9-20.5c5-11.5,5.5-23.9,5.8-39c0-0.9,0-1.9,0-3.1C289.6,226.7,289.6,223.3,289.7,219.8L289.7,219.8z
		 M294.7,232.5L294.7,232.5z"/>
	<path class="st3" d="M264.5,458.4c-1.5,0-2.8,0-4-0.1c-42.6-0.4-78.7-5.7-113.6-16.5C104,428.5,64,407.2,29.1,378.8
		c-3.6-2.9-7.8-6.4-11.9-10.2c-6.4-5.8-4.1-11-2.8-13c1.7-2.6,5.7-6.3,13.6-2.3c3.7,1.9,7.4,3.8,11,5.7c5.7,3,11.5,6,17.3,8.8
		c33.2,15.8,68.1,27.7,104,35.3c19,4.1,38.1,7.1,57.4,8.9c22.5,2.2,41.2,2.8,58.7,2c42.8-2,81.4-8.4,118.2-19.7
		c14.3-4.3,28.4-9.3,42.2-15.1c3.7-1.6,7.7-2.2,11.7-1.8c6.1,0.4,10.7,5.7,10.3,11.8c-0.1,1.9-0.7,3.7-1.8,5.3
		c-1.4,2.4-3.4,4.4-5.7,5.9c-26.2,17.9-56.1,31.8-91.6,42.3c-20.9,6.1-42.3,10.5-63.9,12.9C281.8,457.6,271.6,458.4,264.5,458.4z
		 M27.2,364.2c2.9,2.5,5.7,4.8,8.2,6.9c33.9,27.5,72.7,48.3,114.4,61.1c34,10.6,69.3,15.7,110.9,16.1h0.3c8.6,0.5,23.4-1.1,33.7-2.3
		c21.1-2.4,41.9-6.6,62.2-12.6c34.4-10.2,63.5-23.6,88.8-41c1.1-0.7,2.1-1.6,2.8-2.8c0.3-0.4,0.4-1,0.3-1.5
		c-0.3-0.4-0.8-0.6-1.3-0.6c-2.3-0.3-4.6,0.1-6.7,1c-14.1,5.9-28.6,11.1-43.3,15.5c-37.5,11.5-77,18-120.6,20.1
		c-18,0.8-37.1,0.2-60.1-2c-19.7-1.9-39.3-4.9-58.6-9.1c-36.7-7.8-72.4-20-106.2-36.1c-6-2.9-11.9-6-17.6-9L27.2,364.2z"/>
	<path class="st3" d="M460.2,439.3c-1.9,0-3.7-0.7-5.1-2c-4.4-3.8-2.4-9-1.7-10.8l1.6-4.2c2.7-7.2,5.6-14.7,8.3-22
		c2.3-6.8,4-13.8,5.1-20.9c0.5-3.3-0.5-4.5-0.8-4.9c-1.3-1.6-4.4-2.6-8.7-2.8c-2.8-0.1-5.6-0.1-8.9-0.1c-1.6,0-3.3,0-5,0h-0.3
		c-8.3-0.5-17.2,0.6-26.6,1.8l-5,0.6c-2.1,0.2-7.9,0.9-10.8-4.1c-1.6-2.8-2.3-7.2,3.8-11.9s13.3-8,22.3-10.6
		c21.2-6,40.7-6.5,59.8-1.7c10.2,2.6,13.3,6.7,12.8,16.9c-1.3,29.6-12.1,54-32.2,72.6c-0.1,0.1-0.2,0.2-0.2,0.2
		c-0.6,0.6-1.3,1.2-2,1.6l-0.3,0.2C464.5,438.5,462.4,439.2,460.2,439.3z M454.1,361.6c1.8,0,3.5,0,5.2,0.1c7.4,0.3,12.8,2.5,16,6.5
		c1.9,2.3,4,6.5,2.9,12.8c-1.1,7.7-3,15.3-5.5,22.7c-2.7,7.3-5.5,14.7-8.2,21.8c16.7-16.5,25.4-37.3,26.6-63.3
		c0.2-5.3,0.2-5.3-5.3-6.7c-17.4-4.4-35.2-3.8-54.7,1.6c-5.5,1.4-10.7,3.7-15.6,6.6l1.4-0.2c9.4-1.2,19.1-2.4,28.3-1.9
		c1.7,0,3.3,0,4.8,0L454.1,361.6z"/>
</g>
</svg>
