<?xml version="1.0" ?><svg viewBox="0 0 512 512" xmlns="http://www.w3.org/2000/svg"><defs><style>.cls-1{fill:#7dd1d8;}.cls-2{opacity:0.15;}.cls-3{fill:#3f456b;}.cls-4{opacity:0.2;}.cls-5{fill:#fff;}.cls-6{fill:#dae1ea;}</style></defs><title/><g id="Colors"><path class="cls-1" d="M365.76,127l-2.66-1.22L400,61.94a14.11,14.11,0,0,0-24.48-14L337,114.51q-77.19-28.28-156.39-2.29c-1.63.54-3.24,1.09-4.86,1.68l-38.21-66a14.11,14.11,0,0,0-24.48,14l36.5,63-3.8,1.92C78.06,166.37,40.42,224.62,31.41,302.37H479.94C471,224.47,433.22,166.26,365.76,127ZM152.48,239.59a18.91,18.91,0,0,1-18.73-18.79,18.74,18.74,0,0,1,37.48,0A19,19,0,0,1,152.48,239.59Zm206.64,0a18.78,18.78,0,1,1,18.62-19A19.06,19.06,0,0,1,359.12,239.58Z"/><g class="cls-2"><polygon class="cls-3" points="480 302.37 30.28 302.37 32.16 288.25 478.12 288.25 480 302.37"/></g><g class="cls-4"><circle class="cls-5" cx="390.62" cy="51.16" r="8.47"/></g><g class="cls-4"><circle class="cls-5" cx="122.48" cy="51.16" r="8.47"/></g><g class="cls-4" data-name="&lt;编组&gt;" id="_编组_"><path class="cls-5" d="M152.59,188.52a32,32,0,1,1-32,32A32,32,0,0,1,152.59,188.52Zm17.87,32a17.88,17.88,0,1,0-17.87,17.88A17.87,17.87,0,0,0,170.46,220.51Z"/></g><g class="cls-4" data-name="&lt;编组&gt;" id="_编组_2"><path class="cls-5" d="M359.1,189a32,32,0,1,1-32,32A32,32,0,0,1,359.1,189ZM377,221a17.88,17.88,0,1,0-17.88,17.88A17.88,17.88,0,0,0,377,221Z"/></g><rect class="cls-1" height="132.88" width="447.05" x="32.5" y="336.36"/><g class="cls-2"><rect class="cls-3" height="17.51" width="447.05" x="32.5" y="452.76"/></g><g class="cls-2"><rect class="cls-5" height="17.51" width="447.05" x="32.5" y="337.39"/></g><g class="cls-2"><rect class="cls-3" height="133.91" width="83.43" x="395.08" y="336.36"/></g><g class="cls-4"><rect class="cls-5" height="133.91" width="111.25" x="98.43" y="336.36"/></g><g class="cls-2"><path class="cls-3" d="M395.08,302.37s15.8-147.65-85.83-196.4c0,0,144.55,17.17,170.3,196.4Z"/></g><g class="cls-4" data-name="&lt;编组&gt;" id="_编组_3"><path class="cls-5" d="M253.52,99.87l2.2,0c.1-.14.2-.26.31-.39S255.15,99.57,253.52,99.87Z"/><path class="cls-5" d="M258.91,99.81l-3.19,0-2.2,0C122.94,102.47,66.86,199.67,66,201.2c.8-1,42.43-55.55,123.87-76.78-43.48,25.84-92.38,77.28-92.38,178H210.7s-5.2-118.7,33.68-186c3.84-.17,7.73-.25,11.7-.25,125.09,0,188.4,83.82,189.37,85.12C444.52,199.65,384,99.81,258.91,99.81ZM152,238.5A17.51,17.51,0,1,1,169.5,221,17.51,17.51,0,0,1,152,238.5Z"/></g><rect class="cls-6" height="33.99" width="396.57" x="58.25" y="302.37"/><g class="cls-2"><rect class="cls-3" height="33.99" width="83.43" x="371.39" y="302.37"/></g><g class="cls-4"><rect class="cls-5" height="33.99" width="111.25" x="121.09" y="302.37"/></g><g class="cls-2"><rect class="cls-3" height="17.51" width="397.6" x="57.22" y="302.37"/></g><g class="cls-4"><ellipse class="cls-5" cx="251.91" cy="130.35" rx="89.62" ry="27.81"/></g></g><g id="Lines"><path class="cls-3" d="M479.94,307.37H31.41a5,5,0,0,1-5-5.58c4.58-39.54,16.68-74.61,36-104.24s46.21-54.66,80.22-74.6l-33.87-58.5a19.11,19.11,0,1,1,33.14-19L178,107.82l1-.35c52.31-17.15,104.67-16.84,155.72.93l36.47-63a19.11,19.11,0,0,1,33.15,19L370.07,123.7C403.46,143.47,430,168.28,449,197.47c19.3,29.66,31.39,64.76,35.92,104.33a5,5,0,0,1-5,5.57Zm-442.86-10h437.2c-4.81-35.74-16.13-67.49-33.67-94.45-18.42-28.32-44.38-52.38-77.15-71.51L361,130.3a5,5,0,0,1-2.69-3,5,5,0,0,1,.43-4l36.94-63.81a9.11,9.11,0,0,0-15.81-9L341.33,117a5,5,0,0,1-6.05,2.19c-50.13-18.35-101.65-19.11-153.12-2.23-1.58.53-3.13,1.06-4.71,1.63a5,5,0,0,1-6-2.2l-38.2-66a9.11,9.11,0,1,0-15.82,9.05l36.48,63a5,5,0,0,1-2.07,7l-3.66,1.85c-32.89,19.2-58.92,43.33-77.38,71.72C53.26,229.94,41.93,261.66,37.08,297.37Zm115.46-52.78h-.07A23.78,23.78,0,0,1,135.76,204a23.52,23.52,0,0,1,16.74-6.88,23.68,23.68,0,0,1,16.65,40.57A23.48,23.48,0,0,1,152.54,244.59Zm0-10a13.57,13.57,0,0,0,9.59-4,13.68,13.68,0,0,0-9.62-23.48h-.05a13.56,13.56,0,0,0-9.61,4,13.74,13.74,0,0,0-4.06,9.76,14,14,0,0,0,13.75,13.79Zm206.38,10a23.78,23.78,0,0,1-.2-47.56h.15c12.86,0,23.79,10.73,23.91,23.5a24.18,24.18,0,0,1-23.55,24.05h-.31Zm0-37.56h-.09a13.57,13.57,0,0,0-9.6,4.12,13.5,13.5,0,0,0,.21,19.43,13.49,13.49,0,0,0,9.7,4h0a13.78,13.78,0,1,0-.22-27.55Z"/><path class="cls-3" d="M479.55,474.24H32.5a5,5,0,0,1-5-5V336.36a5,5,0,0,1,5-5H479.55a5,5,0,0,1,5,5V469.24A5,5,0,0,1,479.55,474.24Zm-442-10H474.55V341.36H37.5Z"/><path class="cls-3" d="M58.25,341.36a5,5,0,0,1-5-5v-34a5,5,0,0,1,10,0v34A5,5,0,0,1,58.25,341.36Z"/><path class="cls-3" d="M454.83,341.36a5,5,0,0,1-5-5v-34a5,5,0,0,1,10,0v34A5,5,0,0,1,454.83,341.36Z"/></g></svg>