<?xml version="1.0" ?><svg viewBox="0 0 512 512" xmlns="http://www.w3.org/2000/svg"><defs><style>.cls-1{fill:#ffbc5a;}.cls-2{fill:#8dd3b7;}.cls-3{fill:#e95a6b;}.cls-4{fill:#8bd0f7;}.cls-5{opacity:0.2;}.cls-6{fill:#fff;}.cls-7{fill:#3f456b;}.cls-8{opacity:0.15;}</style></defs><title/><g id="Colors"><path class="cls-1" d="M468.84,141.85A240,240,0,0,1,497,255c0,133.1-107.9,241-241,241q-9.15,0-18.14-.67L351,317l-.25-.16a113.14,113.14,0,0,0-94.75-175H468.84Z"/><path class="cls-2" d="M157.83,311.33h0a113.16,113.16,0,0,0,192.91,5.52l.25.16L237.86,495.33C113.23,486.05,15,382,15,255A239.84,239.84,0,0,1,50.26,129.43Z"/><path class="cls-3" d="M256,141.85a113.18,113.18,0,0,0-98.16,169.47h0L50.26,129.43a241.07,241.07,0,0,1,418.57,12.42Z"/><circle class="cls-4" cx="256" cy="255" r="73"/><g class="cls-5"><path class="cls-6" d="M253.64,13C47.23,20,18,206,18,206S58.32,35,255,35,492,205.5,492,205.5,462.06,20,253.64,13Z"/></g><g class="cls-5"><path class="cls-7" d="M256.34,494C462.75,487,492,301,492,301S451.66,472,255,472,18,301.5,18,301.5,47.92,487,256.34,494Z"/></g><g class="cls-5"><path class="cls-6" d="M146.69,284.3S149,385,256,385,365.31,284.3,365.31,284.3,345,368,256,368,146.69,284.3,146.69,284.3Z"/></g><g class="cls-8"><path class="cls-7" d="M365.31,227S345,143.3,256,143.3,146.69,227,146.69,227,149,125.3,256,125.3q7.8,0,14.86.7H458l10.29,16.12H319.69C364,171,365.31,227,365.31,227Z"/></g><g class="cls-5"><polygon class="cls-6" points="311.93 157.12 476.29 157.12 466 141 270.69 141 311.93 157.12"/></g><g class="cls-8"><path class="cls-7" d="M307.5,355.5,219.12,493.2,238,495,342.5,331.5S327,348,307.5,355.5Z"/></g><g class="cls-8"><polygon class="cls-7" points="50.26 129.43 145 289.5 143 255 60 112.5 50.26 129.43"/></g><g class="cls-8"><path class="cls-7" d="M184.57,270.09S198,312,256,312s70.75-38.94,70.75-38.94S314,328,256,328,184.57,270.09,184.57,270.09Z"/></g><g class="cls-5"><path class="cls-6" d="M326.75,240s-13.44-41.91-71.44-41.91S184.57,237,184.57,237s12.74-54.94,70.74-54.94S326.75,240,326.75,240Z"/></g></g><g id="Lines"><path class="cls-7" d="M256,501A246,246,0,0,1,82.05,81.05,246,246,0,0,1,430,429,244.4,244.4,0,0,1,256,501Zm0-482A236,236,0,0,0,89.12,421.88,236,236,0,0,0,422.88,88.12,234.48,234.48,0,0,0,256,19Z"/><path class="cls-7" d="M256,373.15A118.15,118.15,0,1,1,374.15,255,118.28,118.28,0,0,1,256,373.15Zm0-226.3A108.15,108.15,0,1,0,364.15,255,108.26,108.26,0,0,0,256,146.85Z"/><path class="cls-7" d="M256,333a78,78,0,1,1,78-78A78.09,78.09,0,0,1,256,333Zm0-146a68,68,0,1,0,68,68A68.07,68.07,0,0,0,256,187Z"/><path class="cls-7" d="M468.84,146.85H254.53a5,5,0,0,1,0-10H468.84a5,5,0,0,1,0,10Z"/><path class="cls-7" d="M160,320a5,5,0,0,1-4.3-2.45L45.85,131.81a5,5,0,0,1,8.61-5.09L164.3,312.45a5,5,0,0,1-1.76,6.85A4.87,4.87,0,0,1,160,320Z"/><path class="cls-7" d="M238.67,499.62a4.93,4.93,0,0,1-2.67-.78,5,5,0,0,1-1.55-6.9L346.77,314.33a5,5,0,0,1,8.46,5.34L242.9,497.29A5,5,0,0,1,238.67,499.62Z"/></g></svg>