<?xml version="1.0" ?><svg viewBox="0 0 512 512" xmlns="http://www.w3.org/2000/svg"><defs><style>.cls-1{fill:#8cc0f4;}.cls-2{opacity:0.15;}.cls-3{fill:#3f456b;}.cls-4{fill:#f5f6f7;}.cls-5{opacity:0.2;}.cls-6{fill:#fff;}</style></defs><title/><g id="Colors"><path class="cls-1" d="M247.84,13.27V13h15.91v.27Z"/><path class="cls-1" d="M26.6,226.66h.28v6.87H26.6Z"/><path class="cls-1" d="M27,233.52a206.73,206.73,0,0,1,8.3-61.63,210.26,210.26,0,0,1,37.59-72A225.68,225.68,0,0,1,143,41.38C223.46-2.11,326.31,5.58,399.08,61c40.52,30.88,70.3,75.76,81.08,125.71a202.38,202.38,0,0,1,4.33,53.49c-4.67,89-67.59,164.73-150.64,193.55a236.15,236.15,0,0,1-87.25,12.94A258.48,258.48,0,0,1,195.47,439a5.18,5.18,0,0,0-4.36.65q-45,27.22-90.16,54.37c-.5.3-1,.55-1.77.95v-2.37q0-51.33,0-102.66a4.15,4.15,0,0,0-1.48-3.44A222.35,222.35,0,0,1,65,349.58a208.43,208.43,0,0,1-26.39-51A206.34,206.34,0,0,1,27,233.52Zm372.4-62.61-.28-.38-2.47,1.34q-51.53,28.63-103,57.31c-1.32.74-2,.54-3-.47Q261.79,199.84,233,171c-1-1-1.46-1.09-2.45,0-7,7.85-14.15,15.63-21.24,23.43L116.63,296.33c-1.48,1.63-2.94,3.27-4.41,4.91a7.12,7.12,0,0,0,2.84-1.05Q166.51,271.6,217.94,243c1.37-.76,2.1-.57,3.16.49q28.71,28.82,57.46,57.56c1,1.05,1.53,1.15,2.57,0q17.75-19.65,35.59-39.21l74.53-81.95Q395.31,175.39,399.36,170.91Z"/><g class="cls-2"><path class="cls-3" d="M399,174c-26,39-62.44,87.49-87.28,114.81Q293.9,308.4,276.13,328c-1,1.16-1.53,1.06-2.57,0q-28.71-28.8-57.46-57.56c-1.06-1.06-1.79-1.25-3.16-.49C178,280,147,290,115,302l113-91,53,31Z"/></g><path class="cls-4" d="M399.36,170.91q-4,4.47-8.11,9l-74.53,81.95Q298.9,281.4,281.13,301c-1,1.16-1.53,1.06-2.57,0q-28.71-28.8-57.46-57.56c-1.06-1.06-1.79-1.25-3.16-.49q-51.41,28.65-102.88,57.21a7.12,7.12,0,0,1-2.84,1.05c1.47-1.64,2.93-3.28,4.41-4.91l92.65-101.87c7.09-7.8,14.2-15.58,21.24-23.43,1-1.1,1.48-1,2.45,0q28.77,28.86,57.59,57.69c1,1,1.69,1.21,3,.47q51.49-28.71,103-57.31l2.47-1.34Z"/><g class="cls-2"><path class="cls-3" d="M101,495l85-75s142.33,50,258.67-68.5c0,0-75.67,128.5-253.67,88.5Z"/></g><g class="cls-2"><path class="cls-3" d="M101,390V367s-44-34-62-68C39,299,57,353,101,390Z"/></g><g class="cls-5"><path class="cls-6" d="M31,191S81,31,257,31,481,187,481,187,437.67,13,256.33,13C256.33,13,80,3,31,191Z"/></g></g><g id="Lines"><g data-name="7iXMx4.tif" id="_7iXMx4.tif"><path class="cls-3" d="M99.18,500a5,5,0,0,1-5-5V476.83q0-43.36,0-86.73a228.6,228.6,0,0,1-33.35-37.65,214.9,214.9,0,0,1-27-52.19,212.53,212.53,0,0,1-3.37-129.78A216,216,0,0,1,68.94,96.73,231.57,231.57,0,0,1,140.62,37C222.9-7.49,328,.58,402.11,57.05c42.58,32.45,72,78.13,82.93,128.64a208,208,0,0,1,4.45,54.8c-2.32,44.09-18.57,86.34-47,122.2a234.34,234.34,0,0,1-107,75.81,239.38,239.38,0,0,1-89.11,13.21,261.32,261.32,0,0,1-52.11-7.83l-.34-.06-.23.14C167.1,460,140,476.35,113.85,492.12l-10.32,6.21c-.41.25-.83.47-1.33.73l-.65.35A5.1,5.1,0,0,1,99.18,500ZM255.31,18.4A231.42,231.42,0,0,0,145.38,45.77,221.61,221.61,0,0,0,76.77,103,206.18,206.18,0,0,0,40.06,173.3a202.63,202.63,0,0,0,3.21,123.64A204.75,204.75,0,0,0,69,346.7a218.17,218.17,0,0,0,32.05,36.13,9.11,9.11,0,0,1,3.12,7.14q0,43.44,0,86.86v9.43l4.51-2.71c26.17-15.77,53.24-32.07,79.83-48.15a10.12,10.12,0,0,1,8.15-1.22,251.88,251.88,0,0,0,50.14,7.54,229.46,229.46,0,0,0,85.4-12.67,224.35,224.35,0,0,0,102.44-72.58C461.79,322.25,477.29,282,479.5,240a198.3,198.3,0,0,0-4.23-52.17C465,140.32,436.15,95.56,396,65,355.59,34.18,305.5,18.4,255.31,18.4Zm24.55,288.45a6.84,6.84,0,0,1-4.84-2.28Q260.46,290,245.89,275.38q-13.56-13.56-27.1-27.15-44,24.51-87.92,48.9l-13.38,7.43a11.94,11.94,0,0,1-4.77,1.66,5,5,0,0,1-4.22-8.32l1.38-1.54c1-1.14,2-2.27,3.06-3.4l97-106.63c5.56-6.1,11.3-12.4,16.89-18.64a6.67,6.67,0,0,1,4.78-2.44h.15a6.69,6.69,0,0,1,4.78,2.24q13.86,13.89,27.73,27.77,14.28,14.31,28.57,28.62c29.53-16.46,59.5-33.11,88.5-49.23l12.87-7.15,1.75-.95.77-.42a5,5,0,0,1,6.45,1.49l.25.34a5,5,0,0,1-.33,6.3L400.59,177,395,183.23,315.17,271c-10,10.94-20.25,22.25-30.32,33.42a6.81,6.81,0,0,1-4.84,2.48Zm-60.47-69.34a7.29,7.29,0,0,1,5.25,2.43q14.15,14.2,28.32,28.37,13.38,13.41,26.76,26.81c9.38-10.38,18.86-20.8,28-30.9l68.52-75.34c-26.46,14.71-53.58,29.78-80.28,44.66a7,7,0,0,1-9-1.31q-14.91-15-29.86-29.9Q244.52,189.67,231.88,177c-4.88,5.41-9.79,10.81-14.57,16.06l-82,90.16q40.11-22.29,80.2-44.61A8.08,8.08,0,0,1,219.39,237.51Z"/><path class="cls-3" d="M279.86,306.85a6.84,6.84,0,0,1-4.84-2.28Q260.46,290,245.89,275.38q-13.56-13.56-27.1-27.15-44,24.51-87.92,48.9l-13.38,7.43a11.94,11.94,0,0,1-4.77,1.66,5,5,0,0,1-4.22-8.32l1.38-1.54c1-1.14,2-2.27,3.06-3.4l97-106.63c5.56-6.1,11.3-12.4,16.89-18.64a6.21,6.21,0,0,1,9.71-.2q13.86,13.89,27.73,27.77,14.28,14.31,28.57,28.62c29.53-16.46,59.5-33.11,88.5-49.23l12.87-7.15,1.75-.95.77-.42a5,5,0,0,1,6.45,1.49l.25.34a5,5,0,0,1-.33,6.3L400.59,177,395,183.23,315.17,271c-10,10.94-20.25,22.25-30.32,33.42a6.81,6.81,0,0,1-4.84,2.48Zm-60.47-69.34a7.29,7.29,0,0,1,5.25,2.43q14.15,14.2,28.32,28.37,13.38,13.41,26.76,26.81c9.38-10.38,18.86-20.8,28-30.9l68.52-75.34c-26.46,14.71-53.58,29.78-80.28,44.66a7,7,0,0,1-9-1.31q-14.91-15-29.86-29.9Q244.52,189.67,231.88,177c-4.88,5.41-9.79,10.81-14.57,16.06l-82,90.16q40.11-22.29,80.2-44.61A8.08,8.08,0,0,1,219.39,237.51Z"/></g></g></svg>