<?xml version="1.0" encoding="UTF-8"?>
<!DOCTYPE svg PUBLIC "-//W3C//DTD SVG 1.1//EN" "http://www.w3.org/Graphics/SVG/1.1/DTD/svg11.dtd">
<!-- Creator: CorelDRAW -->
<svg xmlns="http://www.w3.org/2000/svg" xml:space="preserve" width="6.82666in" height="6.82666in" style="shape-rendering:geometricPrecision; text-rendering:geometricPrecision; image-rendering:optimizeQuality; fill-rule:evenodd; clip-rule:evenodd"
viewBox="0 0 6.82666 6.82666"
 xmlns:xlink="http://www.w3.org/1999/xlink">
 <defs>
  <style type="text/css">
   <![CDATA[
    .fil1 {fill:none}
    .fil0 {fill:#0288D1}
   ]]>
  </style>
 </defs>
 <g id="Layer_x0020_1">
  <metadata id="CorelCorpID_0Corel-Layer"/>
  <g id="_203413680">
   <path id="_203414544" class="fil0" d="M5.56865 3.19806l-0.189465 0 -0.275543 -0.456425 0 0.378902 -0.000917323 -0.000901575 0 0.0787992 -0.145472 0 0 -0.000358268 -0.146394 0 -0.0516654 -0.129177 -0.301417 0 -0.0516654 0.137744 -0.163606 0c-0.0688307,0 -0.155012,-0.0172008 -0.206642,-0.0688661 -0.0516654,-0.0516535 -0.0774843,-0.120547 -0.0774843,-0.232472 0,-0.0861181 0.0172008,-0.172276 0.0774843,-0.241142 0.0430236,-0.0517047 0.120543,-0.068878 0.21526,-0.068878l0.137811 -3.93701e-006 0 0.129154 -0.137811 0c-0.0516654,0 -0.0774488,0.00859449 -0.111965,0.0344685 -0.0257953,0.0258189 -0.0430236,0.0774685 -0.0430236,0.137744 3.93701e-006,0.0689016 0.00862205,0.111953 0.0430236,0.146378 0.0258976,0.025874 0.0602992,0.0344921 0.103343,0.0344921l0.0602874 0 0.198031 -0.473606 0.0861496 0 0.12915 0 0.241134 0.576925 0 -0.0294252 0 -0.194492 0 -0.0172008 0 -0.335807 0.215272 0 0.249661 0.421929 0 -0.421929 0.146453 0 0 0.59415 1.1811e-005 0zm-0.955862 -0.499472l-0.103346 0.241118 0.198087 0 -0.0947402 -0.241118z"/>
   <path id="_203414448" class="fil0" d="M2.39112 3.19806l-0.0861417 0 -0.0516417 0 0 -0.0516378 0 -0.422 -0.00861811 0.019752 0 -0.00023622 -0.200327 0.454122 -0.00634252 0 -0.0460433 0 -0.0745236 0 -0.206646 -0.473638 0 0.473638 -0.292764 0 -0.0602756 -0.129177 -0.292815 0 -0.0602913 0.129177 -0.151362 0 0.254744 -0.602791 0.215264 0 0.24111 0.576925 0 -0.576925 0.0516535 0 0.176484 0 0.00406299 0.00863386 0.000307087 0 0.10865 0.236457 0.0780197 0.177165 0.00274803 -0.0089252 0.172228 -0.413319 0.232508 0 0 0.60278 1.1811e-005 0zm-1.27446 -0.258354l0.189465 0 -0.0947126 -0.241118 -0.094752 0.241118z"/>
   <polygon id="_203414376" class="fil0" points="2.98531,2.72443 2.64946,2.72443 2.64946,2.83637 2.97668,2.83637 2.97668,2.95691 2.64946,2.95691 2.64946,3.0775 2.98531,3.0775 2.98531,3.20664 2.50309,3.20664 2.50309,2.59527 2.98531,2.59527 "/>
   <path id="_203414424" class="fil0" d="M3.59949 2.94647l0.000783465 0.000535433c0.00325591,0.00344094 0.00604331,0.00688189 0.00841732,0.010189 0.0165118,0.0216378 0.0298346,0.0537835 0.0305157,0.100945l0.000137795 0.00244094 7.48031e-005 0.0013622 -2.3622e-005 0.000744094c0.00019685,0.00474016 0.000318898,0.00958268 0.000318898,0.0148228l0 0.120555 -0.129138 0 0 -0.0689252c0,-0.0344409 0,-0.0861181 -0.0258858,-0.120547 -0.00812205,-0.0081378 -0.0163701,-0.0135 -0.0253228,-0.017315 -0.0129055,-0.00835827 -0.037374,-0.00849213 -0.0779685,-0.00849213l-0.155035 -3.93701e-006 0 0.215283 -0.14637 0 0 -0.602791 0.327252 0c0.0774449,0 0.129134,0 0.17222,0.0258346 0.0421929,0.0253386 0.0676772,0.0673583 0.0686457,0.133894 -0.00200787,0.0916299 -0.0608189,0.141925 -0.10311,0.158874 0,0 0.0287283,0.0057874 0.0544882,0.0325945zm-0.122787 -0.10015c0.00250394,-0.00268898 0.00479134,-0.00573228 0.00672441,-0.00922441 0.00780315,-0.0123465 0.0167441,-0.0345787 0.0119252,-0.0649291 -0.00019685,-0.0027874 -0.000704724,-0.0053622 -0.00129921,-0.0078622l-0.000307087 -0.00199606 -8.66142e-005 1.1811e-005c-0.0042874,-0.014752 -0.0152244,-0.023815 -0.0261339,-0.0293268 -0.0172559,-0.00858268 -0.0431024,-0.00857874 -0.0689252,-0.00857874l-0.172236 -3.93701e-006 0 0.137799 0.17224 0c0.0258189,0 0.0516614,0 0.0689213,-0.00862992 0.00259055,-0.00129921 0.0048937,-0.00309843 0.00711024,-0.00511811l2.3622e-005 0.000114173c0,0 0.000877953,-0.000917323 0.00204331,-0.00225591z"/>
   <polygon id="_203413728" class="fil0" points="3.88947,3.19806 3.74306,3.19806 3.74306,2.59527 3.88947,2.59527 "/>
   <path id="_203414304" class="fil0" d="M3.3642 4.00752l-0.172244 0 0 0.0257835 0 0.0516811 0 0.0516772 0 0.0947244 -0.283051 0 -0.164736 -0.189461 -0.000555118 0.000641732 -0.00805118 -0.00926378 -0.189437 0.198083 -0.551106 0 0 -0.602768 0.559736 0 0.152921 0.16748 0.0321339 0.0350709 0.00435827 -0.00451969 0.180858 -0.198031 0.456378 0c0.0885787,0 0.187752,0.0218583 0.225339,0.111976 0.00451969,0.0178425 0.00714173,0.037685 0.00714173,0.0602244 -1.1811e-005,0.172224 -0.120571,0.206701 -0.249685,0.206701zm0.103331 -0.18087c-0.00861417,-0.0516614 -0.0431024,-0.0775354 -0.0947953,-0.0775354l-0.18078 0 0 0.155 0.189449 0c0.0516654,1.1811e-005 0.086126,-0.0258071 0.086126,-0.0774646zm-0.421945 0.353035l0 -0.490831 -0.223902 0.24113 0.223902 0.249701zm-0.921398 -0.430571l0 0.111965 0.318626 0 0 0.120587 -0.318626 0 0 0.129201 0.353055 0 0.163606 -0.180882 -0.154984 -0.18087 -0.361677 0z"/>
   <path id="_203413896" class="fil0" d="M4.2253 3.99889c0.0172047,0.0257835 0.0258228,0.0602835 0.0258228,0.111976l0 0.12052 -0.146362 0 0 -0.0774724c0,-0.0345039 -3.93701e-006,-0.0947402 -0.0258858,-0.120606 -0.0171693,-0.0257874 -0.0516575,-0.0257874 -0.103295,-0.0257874l-0.154988 0 0 0.223866 -0.146366 0 0 -0.61139 0.327197 0c0.0688425,0 0.129118,3.93701e-006 0.172252,0.025811 0.0430236,0.0258583 0.0774488,0.0689173 0.0774488,0.137811 0,0.094689 -0.060248,0.146366 -0.103323,0.163618 0.0430787,0.0171496 0.0688937,0.0344291 0.0775,0.0516535zm-0.155035 -0.111953c0.0172283,-0.00862992 0.0258701,-0.0344882 0.0258701,-0.0602717 0.00862598,-0.0344173 -0.00864173,-0.0516693 -0.0258701,-0.0602992 -0.0171732,-0.00861024 -0.0430472,-0.0086063 -0.0688425,-0.0086063l-0.17226 -3.93701e-006 0 0.137799 0.172248 0c0.0257992,0 0.0516654,0 0.0688543,-0.00861811z"/>
   <polygon id="_203413872" class="fil0" points="4.81949,3.74912 4.48362,3.74912 4.48362,3.86107 4.81085,3.86107 4.81085,3.98165 4.48362,3.98165 4.48362,4.10223 4.81949,4.10223 4.81949,4.23138 4.33728,4.23138 4.33728,3.61999 4.81949,3.61999 "/>
   <path id="_203414040" class="fil0" d="M5.18112 4.23139l-0.275571 0 0 -0.129154 0.275571 0c0.0257992,0 0.0430472,0 0.060311,-0.017248 0.00862205,-0.00861811 0.0171772,-0.025811 0.0171772,-0.0430591 0,-0.017252 -0.00855512,-0.0344055 -0.0171772,-0.0430354 -0.00864567,-0.00859843 -0.0259094,-0.0172244 -0.0517165,-0.0172244 -0.137783,-0.00862205 -0.30139,0 -0.30139,-0.189417 0,-0.0861339 0.0516654,-0.18087 0.206677,-0.18087l0.284154 0 0 0.146378 -0.266925 0c-0.0258071,0 -0.0430709,3.93701e-006 -0.0602992,0.00861024 -0.0171732,0.00862992 -0.0171772,0.0258819 -0.0171772,0.0430827 3.93701e-006,0.0258465 0.0171772,0.0344528 0.0344055,0.043 0.0172638,0.00862992 0.0344606,0.00862992 0.0516614,0.00862992l0.0775039 0c0.0775118,0 0.129177,0.0172283 0.163606,0.0516772 0.0258465,0.0258504 0.0430669,0.0689094 0.0430669,0.129169 3.93701e-006,0.129138 -0.0774961,0.189461 -0.223878,0.189461z"/>
   <path id="_203413824" class="fil0" d="M5.92168 4.17107c-0.0344016,0.0344882 -0.0947126,0.0603228 -0.18087,0.0603228l-0.27548 0 0 -0.129154 0.275484 0c0.0258425,0 0.0431063,0 0.0603071,-0.0172362 0.00858268,-0.00862992 0.0172283,-0.0258228 0.0172283,-0.0430709 0,-0.017252 -0.00864567,-0.0344055 -0.0172283,-0.0430354 -0.00861811,-0.00859843 -0.0258228,-0.0172244 -0.0516654,-0.0172244 -0.13772,-0.00862205 -0.301378,0 -0.301378,-0.189417 3.93701e-006,-0.0818583 0.0468228,-0.15578 0.162303,-0.177736 0.013811,-0.00190945 0.0283976,-0.00313386 0.044374,-0.00313386l0.284181 0 0 0.146378 -0.189476 0 -0.068874 0 -0.0086063 0c-0.0258425,0 -0.0430433,3.93701e-006 -0.0602441,0.00861024 -0.00866929,0.00862992 -0.0172913,0.0258819 -0.0172913,0.0430827 0,0.0258465 0.00861811,0.0344528 0.0344921,0.043 0.0172008,0.00862992 0.0344252,0.00862992 0.0516496,0.00862992l0.0085748 0 0.0689134 0c0.0376378,0 0.0660945,0.00464567 0.0921378,0.0137992 0.0238386,0.00862598 0.102815,0.0439606 0.120472,0.136146 0.00152756,0.00966142 0.00264961,0.0197402 0.00264961,0.0309016 0,0.051689 -0.0172244,0.0947362 -0.0516535,0.129138z"/>
  </g>
 </g>
 <rect class="fil1" width="6.82666" height="6.82666"/>
</svg>
