<?xml version="1.0" encoding="UTF-8"?>
<!DOCTYPE svg PUBLIC "-//W3C//DTD SVG 1.1//EN" "http://www.w3.org/Graphics/SVG/1.1/DTD/svg11.dtd">
<!-- Creator: CorelDRAW -->
<svg xmlns="http://www.w3.org/2000/svg" xml:space="preserve" width="6.82666in" height="6.82666in" style="shape-rendering:geometricPrecision; text-rendering:geometricPrecision; image-rendering:optimizeQuality; fill-rule:evenodd; clip-rule:evenodd"
viewBox="0 0 6.82666 6.82666"
 xmlns:xlink="http://www.w3.org/1999/xlink">
 <defs>
  <style type="text/css">
   <![CDATA[
    .fil1 {fill:none}
    .fil0 {fill:#862065}
   ]]>
  </style>
 </defs>
 <g id="Layer_x0020_1">
  <metadata id="CorelCorpID_0Corel-Layer"/>
  <path class="fil0" d="M4.90147 2.70766c0.139382,-0.0250984 0.271142,-0.0507165 0.412236,-0.0742283l0 1.59948 -0.412236 0 0 -1.52525zm-4.03283 0.529776c0.0264528,0.156449 0.142827,0.384091 0.594791,0.418331 0.0102598,0 0.0269173,0.000362205 0.0468543,0.00195276 0.0568622,0.00608661 0.134555,0.030248 0.134555,0.121744 0,0.0740276 -0.0646378,0.120358 -0.169713,0.138996 -0.214713,0.0320433 -0.415543,-0.029378 -0.621795,-0.0812835l0 0.379287c0.203276,0.0507992 0.470606,0.0802244 0.689657,0.0620354 0.403201,-0.0335039 0.588264,-0.278642 0.588264,-0.523795 0,-0.296799 -0.230831,-0.486413 -0.626598,-0.519366 -0.0577283,0 -0.181374,-0.00825591 -0.181374,-0.123697 0,-0.13189 0.181374,-0.13189 0.247346,-0.13189 0.194394,0 0.420717,0.0760945 0.519413,0.10713l0 -0.370976 -0.0165 -0.00824409c-0.131906,-0.0412126 -0.288555,-0.0906772 -0.560642,-0.0906772 -0.351055,0.0120748 -0.537685,0.16637 -0.612114,0.342146 -0.0371299,0.0876969 -0.0479449,0.184795 -0.0321457,0.278307zm2.63126 0.995476l0.41224 0 0 -0.519421c0,-0.206118 0,-0.296795 0.247339,-0.305051l3.93701e-006 -0.346268c0,-0.0174134 -0.109213,-0.00780709 -0.123177,-0.00715748 -0.350937,0.0163504 -0.516516,0.177528 -0.534709,0.477264 -0.0137441,0.226602 -0.00169685,0.471953 -0.00169685,0.700634zm2.06119 -1.52525l0 1.52525 0.41224 0 0 -1.59948 -0.41224 0.0742283zm-1.23671 1.52525l0.412244 0 0 -1.15423 -0.173157 0 -0.239087 0 0 1.15423zm-1.4016 -1.15423c-0.00825984,0 -0.0824921,0.206122 -0.247346,0.40398l3.93701e-006 -0.816217 0 -0.0330157 -0.41224 0.0906811 0 1.5088 0.41224 0 0 -0.445193c0.164854,0.189606 0.19787,0.445193 0.19787,0.445193l0.527681 0c-0.0494685,-0.164906 -0.28035,-0.593598 -0.28035,-0.593598 0.206122,-0.255583 0.296799,-0.56063 0.305059,-0.56063l-0.00825984 0 -0.247327 0 -0.247331 0zm1.60772 -0.123693c0.115386,0 0.206118,-0.0906772 0.206118,-0.206122 3.93701e-006,-0.115437 -0.0907323,-0.206114 -0.206122,-0.206114 -0.115437,0 -0.206118,0.0906772 -0.206118,0.206114 0,0.115445 0.0906811,0.206122 0.206122,0.206122z"/>
 </g>
 <rect class="fil1" width="6.82666" height="6.82666"/>
</svg>
