<?xml version="1.0" encoding="UTF-8"?>
<!DOCTYPE svg PUBLIC "-//W3C//DTD SVG 1.1//EN" "http://www.w3.org/Graphics/SVG/1.1/DTD/svg11.dtd">
<!-- Creator: CorelDRAW -->
<svg xmlns="http://www.w3.org/2000/svg" xml:space="preserve" width="6.82666in" height="6.82666in" style="shape-rendering:geometricPrecision; text-rendering:geometricPrecision; image-rendering:optimizeQuality; fill-rule:evenodd; clip-rule:evenodd"
viewBox="0 0 6.82666 6.82666"
 xmlns:xlink="http://www.w3.org/1999/xlink">
 <defs>
  <style type="text/css">
   <![CDATA[
    .fil4 {fill:none}
    .fil2 {fill:#212121}
    .fil0 {fill:#C42E8C}
    .fil1 {fill:#FFFFFE}
    .fil3 {fill:#FFFFFE;fill-rule:nonzero}
   ]]>
  </style>
 </defs>
 <g id="Layer_x0020_1">
  <metadata id="CorelCorpID_0Corel-Layer"/>
  <g id="_414287760">
   <rect id="_414288432" class="fil0" x="1.32692" y="0.853329" width="4.17282" height="5.12" rx="0.315299" ry="0.315299"/>
   <path id="_414288384" class="fil1" d="M3.32018 5.37452c0,-0.0495827 -0.0145472,-0.0884961 -0.0423504,-0.116295 -0.0285276,-0.0283661 -0.0645748,-0.0429173 -0.108055,-0.0429173 -0.0674449,0 -0.122035,0.0294961 -0.164224,0.0891063 -0.0417835,0.0589961 -0.0636063,0.123571 -0.0636063,0.194287 0,0.0429173 0.0145512,0.079122 0.0423504,0.108622 0.0278031,0.0295394 0.0645748,0.0440472 0.110362,0.0440472 0.0371732,0 0.072815,-0.0116772 0.106882,-0.0346299 0.0345079,-0.0233583 0.062311,-0.0578701 0.0845394,-0.105185 0.0223858,-0.0467598 0.0341024,-0.091815 0.0341024,-0.137035zm0.0605748 -0.194854c0.0507559,0.0484528 0.0764173,0.113024 0.0764173,0.192752 0,0.0667205 -0.016815,0.130689 -0.049626,0.193161 -0.0333386,0.0622717 -0.0785551,0.110201 -0.135291,0.144264 -0.0568583,0.0333386 -0.121433,0.0500276 -0.192717,0.0500276 -0.0623071,0 -0.114764,-0.0132559 -0.156953,-0.0400472 -0.0423465,-0.0266693 -0.0724094,-0.0596024 -0.0896654,-0.0990827 -0.0178228,-0.0396417 -0.0262283,-0.079689 -0.0262283,-0.119732 0,-0.0373819 0.00553937,-0.0768622 0.0172165,-0.118043 0.0156772,-0.0551969 0.0395197,-0.103083 0.0712795,-0.143693 0.0318031,-0.0412205 0.0718543,-0.0735866 0.120343,-0.0969449 0.0478858,-0.0233976 0.103043,-0.0356417 0.164791,-0.0356417 0.0823937,0.000566929 0.149232,0.0245276 0.200433,0.0729803zm-0.900976 0.0306299c0.0385118,0 0.0674409,0.00771654 0.0874055,0.0239646 0.0195197,0.016122 0.0311969,0.0389134 0.0346299,0.0690197l0.131858 -0.0055748c-0.00440551,-0.0573031 -0.0278031,-0.103488 -0.0712835,-0.138728 -0.042752,-0.0344685 -0.103488,-0.0517244 -0.182047,-0.0517244 -0.0773858,0 -0.135854,0.0172559 -0.176469,0.0523307 -0.0406102,0.0350354 -0.0612992,0.0790827 -0.0612992,0.13198 0,0.0306693 0.00670472,0.0568937 0.020689,0.079685 0.0132559,0.0228346 0.0322047,0.0406535 0.0561654,0.0550394 0.0233622,0.0145472 0.0618701,0.0318031 0.113594,0.0534606 0.0517638,0.0212598 0.0835276,0.0362087 0.0946811,0.045748 0.0166496,0.0128504 0.0250945,0.0289291 0.0250945,0.0473583 0,0.0216575 -0.0105472,0.0400433 -0.0301024,0.0549961 -0.0200866,0.0151142 -0.0529016,0.0229528 -0.0980748,0.0229528 -0.0540315,0 -0.0906811,-0.0111102 -0.111331,-0.0335 -0.0122835,-0.0138189 -0.0195197,-0.0406102 -0.0210945,-0.0795276l-0.13089 0.0067126c-0.00112992,0.0417441 0.0067126,0.0789567 0.0245315,0.111894 0.017252,0.0322047 0.046752,0.0572992 0.0885354,0.075685 0.0423504,0.0183898 0.091815,0.0272402 0.149236,0.0272402 0.0834055,0 0.148547,-0.0193976 0.195461,-0.0596102 0.0467559,-0.0389094 0.0695866,-0.0862323 0.0695866,-0.142563 0,-0.0444528 -0.0155591,-0.0812205 -0.0467913,-0.110157 -0.0212205,-0.0195591 -0.0697087,-0.0450551 -0.146972,-0.0762913 -0.0507559,-0.0212165 -0.0835276,-0.0373386 -0.0986417,-0.049626 -0.0149528,-0.0116772 -0.0222244,-0.0266299 -0.0222244,-0.0450157 0,-0.0189528 0.00783465,-0.0350748 0.0244843,-0.0479252 0.016126,-0.0116811 0.0429173,-0.0178228 0.0812677,-0.0178228zm1.29029 -0.0924961l-0.136992 0 -0.139858 0.630961 0.477846 0 0.0228307 -0.105228 -0.339724 0 0.115898 -0.525732zm0.757843 0.25672c0,-0.0495827 -0.0138189,-0.0884961 -0.0423504,-0.116295 -0.0283661,-0.0283661 -0.0640079,-0.0423504 -0.107894,-0.0423504 -0.066878,0 -0.121469,0.0295 -0.163823,0.0885394 -0.0423465,0.0589961 -0.0634409,0.124138 -0.0634409,0.194287 0,0.0434803 0.0138583,0.079689 0.0423465,0.109189 0.0278071,0.0289724 0.0645748,0.0434803 0.110201,0.0434803 0.0367717,0 0.0729803,-0.0116772 0.106925,-0.0346299 0.0339449,-0.0227913 0.0624331,-0.0578701 0.0846575,-0.105185 0.0222677,-0.0467598 0.033378,-0.091815 0.033378,-0.137035zm0.0607362 -0.194854c0.0511575,0.0484528 0.0768189,0.113024 0.0768189,0.192752 0,0.0667205 -0.016689,0.130689 -0.0500276,0.193161 -0.0335,0.0622717 -0.0779921,0.110201 -0.13485,0.144264 -0.0567323,0.0333386 -0.121307,0.0500276 -0.192591,0.0500276 -0.0624724,0 -0.114764,-0.0132559 -0.15711,-0.0400472 -0.0423543,-0.0266693 -0.0724173,-0.0596024 -0.0896732,-0.0990827 -0.0178228,-0.0396417 -0.0261024,-0.079689 -0.0261024,-0.119732 0,-0.0373819 0.0055748,-0.0768622 0.017252,-0.118043 0.0155591,-0.0551969 0.0389134,-0.103083 0.0712835,-0.143693 0.0316417,-0.0412205 0.0718504,-0.0735866 0.119776,-0.0969449 0.0482913,-0.0233976 0.103488,-0.0356417 0.165358,-0.0356417 0.0823937,0.000566929 0.149232,0.0245276 0.199866,0.0729803z"/>
   <path id="_414288624" class="fil2" d="M4.60421 2.11697c-0.094685,0.0645787 -0.190453,0.129717 -0.284567,0.193161 -0.346394,-0.318469 -0.637063,-0.371933 -0.917185,-0.175339 -0.214413,0.149677 -0.399894,0.485563 -0.178772,0.890996 -0.0985197,0.0622717 -0.192594,0.121874 -0.286264,0.181476 -0.276724,-0.368657 -0.242217,-1.03299 0.275717,-1.38153 0.458291,-0.308488 1.12703,-0.172067 1.39107,0.291232z"/>
   <path id="_414287856" class="fil1" d="M3.64023 2.72498c0.157071,0.405433 0.0975079,0.693835 -0.18148,0.890429 -0.114197,0.0808228 -0.24561,0.118039 -0.383772,0.113591 -0.222094,-0.00727165 -0.396461,-0.113591 -0.529571,-0.29337 -0.0985197,0.0667126 -0.190894,0.129146 -0.288969,0.195461 0.21724,0.308488 0.505079,0.467701 0.868728,0.454894 0.400299,-0.0134173 0.703819,-0.207142 0.877579,-0.571961 0.157677,-0.329016 0.129717,-0.655327 -0.0640118,-0.979496 -0.108618,0.0691457 -0.204425,0.13028 -0.298504,0.190453z"/>
   <path id="_414287880" class="fil3" d="M5.01714 2.85307c0.00784646,-0.442205 -0.164524,-0.843929 -0.451004,-1.13762 -0.286732,-0.293945 -0.687783,-0.479709 -1.13694,-0.489626l-0.0050748 -0.000106299 0 -3.93701e-006 -6.29921e-005 0 -3.93701e-006 0.000232283c-0.00163386,-3.14961e-005 -0.00325591,-0.000133858 -0.00485827,-0.000291339 -0.43074,-0.00673622 -0.827437,0.166713 -1.1193,0.45115 -0.293217,0.285756 -0.480516,0.683335 -0.490228,1.12265l-0.000106299 0.00530709 -3.93701e-006 0 0 4.72441e-005 0.000228346 3.93701e-006c-3.14961e-005,0.00166929 -0.000137795,0.00332283 -0.00030315,0.00496063 -0.00694882,0.445768 0.165354,0.848752 0.452016,1.14256 0.287382,0.294547 0.689752,0.479461 1.14172,0.487902l0.00239764 4.33071e-005c0.434272,0.00758268 0.833043,-0.167453 1.1253,-0.455134 0.292591,-0.288 0.478362,-0.688728 0.486217,-1.13207zm-0.363634 -1.2226c0.308311,0.316075 0.493823,0.748476 0.48537,1.22451 -0.00844882,0.476768 -0.208079,0.907559 -0.5225,1.21705 -0.31465,0.309717 -0.74435,0.498157 -1.21267,0.489976l-0.00239764 -4.33071e-005c-0.485638,-0.00907087 -0.918134,-0.207917 -1.22718,-0.524657 -0.308469,-0.316161 -0.493878,-0.749744 -0.486386,-1.2293 -0.000133858,-0.00187795 -0.000188976,-0.00377559 -0.000149606,-0.00569291l0.000224409 3.93701e-006 0.000110236 -0.00526378c0.0104488,-0.472791 0.211799,-0.900453 0.526988,-1.20762 0.314126,-0.306138 0.741469,-0.492787 1.20583,-0.485524 0.00191732,-0.000145669 0.0038622,-0.000200787 0.00582677,-0.000161417l-3.93701e-006 0.000228346 0.00501575 0.000106299c0.482614,0.0106575 0.91365,0.210362 1.22192,0.526382z"/>
  </g>
 </g>
 <rect class="fil4" width="6.82666" height="6.82666"/>
</svg>
