<?xml version="1.0" ?><svg enable-background="new 0 0 24 24" id="Layer_1" version="1.1" viewBox="0 0 24 24" xml:space="preserve" xmlns="http://www.w3.org/2000/svg" xmlns:xlink="http://www.w3.org/1999/xlink"><g><path d="M3.8131714,12.3039551c0,0.2405396,0.1251221,0.4036255,0.3391724,0.4036255   c0.1558838,0,0.2966309-0.0964966,0.3855591-0.2532349c0.1094971-0.1925659,0.1044922-0.3741455,0.1044922-0.5911255v-0.1209106   C4.239563,11.7423096,3.8131714,11.8282471,3.8131714,12.3039551z" fill="#303C42"/><path d="M11.1203613,12.3039551c0,0.2405396,0.1256104,0.4036255,0.3388062,0.4036255   c0.156311,0,0.2974243-0.0964966,0.3863525-0.2532349c0.1091309-0.1925659,0.1044922-0.3741455,0.1044922-0.5911255v-0.1209106   C11.5463867,11.7423096,11.1203613,11.8282471,11.1203613,12.3039551z" fill="#303C42"/><path d="M17.0343018,10.6950073c-0.4108276,0-0.4373779,0.5595093-0.4373779,0.9088135   s-0.0050659,1.0958862,0.432312,1.0958862c0.4318848,0,0.4529419-0.6020508,0.4529419-0.9699097   c0-0.2406006-0.0105591-0.5296021-0.0834351-0.7584229C17.3363647,10.7729492,17.2112427,10.6950073,17.0343018,10.6950073z" fill="#303C42"/><path d="M22,3H2C0.8969727,3,0,3.8969727,0,5v14c0,1.1030273,0.8969727,2,2,2h20c1.1030273,0,2-0.8969727,2-2V5   C24,3.8969727,23.1030273,3,22,3z M11.8817139,10.8195801c-0.0673828-0.102417-0.197998-0.1453857-0.3126221-0.1453857   c-0.2123413,0-0.4014893,0.1091309-0.4483032,0.3358154c-0.0096436,0.0492554-0.0463257,0.098999-0.0968628,0.1015625   l-0.5397339-0.0581665c-0.0459595-0.0105591-0.0964966-0.0467529-0.0834351-0.116272   c0.1242676-0.6564331,0.7162476-0.8544922,1.2462769-0.8544922c0.2713623,0,0.6260986,0.072937,0.8401489,0.2776489   c0.2705078,0.2536621,0.2443848,0.5911255,0.2443848,0.9598389v0.8683472c0,0.2612305,0.1091309,0.3758545,0.2106934,0.5169678   c0.0357666,0.0501709,0.0438232,0.1112671-0.001709,0.1474609c-0.1141968,0.0956421-0.3155518,0.2717896-0.4276733,0.3707886   l-0.0012207-0.001709c-0.0366821,0.0333252-0.09021,0.0354614-0.1314697,0.0130615   c-0.1849976-0.1537476-0.2182617-0.2245483-0.319397-0.371582c-0.3062744,0.3121948-0.5232544,0.4053345-0.9193115,0.4053345   c-0.4689941,0-0.8342896-0.289917-0.8342896-0.8688354c0-0.4528809,0.244812-0.760498,0.5945435-0.9113159   c0.3024902-0.1323242,0.7246704-0.1567383,1.0482788-0.1934204v-0.0720215   C11.9500122,11.0905151,11.9597168,10.9341431,11.8817139,10.8195801z M6.0697021,10.2744751   c0-0.0577393,0.0488281-0.1036377,0.1078491-0.1036377h0.519104c0.0547485,0.0029297,0.0977173,0.0441895,0.1015015,0.0964966   v0.373291h0.0101318c0.1352539-0.361084,0.3901367-0.5300293,0.734375-0.5300293   c0.3480225,0,0.5662842,0.1689453,0.7230225,0.5300293c0.1343994-0.361084,0.4415283-0.5300293,0.7693481-0.5300293   c0.2342529,0,0.4891968,0.0964355,0.6459351,0.3130493c0.1760864,0.2409668,0.1402588,0.5906982,0.1402588,0.8973999   l-0.0004272,1.8049927c0,0.057312-0.0484009,0.1032715-0.1078491,0.1032715H9.1567993   c-0.0560303-0.003418-0.1002808-0.0476074-0.1002808-0.1027832v-1.5164185c0-0.1209106,0.0101318-0.4213257-0.0151367-0.5359497   c-0.0426025-0.1933594-0.1672974-0.2468872-0.3282471-0.2468872c-0.1352539,0-0.276001,0.0901489-0.333252,0.2351074   c-0.057312,0.1436768-0.0522461,0.3846436-0.0522461,0.5477295v1.5159302c0,0.057312-0.0480347,0.1032715-0.1066284,0.1032715   H7.6635742c-0.0560303-0.003418-0.1002808-0.0476074-0.1002808-0.1027832v-1.5164185   c0-0.3189697,0.0518188-0.7891235-0.343811-0.7891235c-0.4006958,0-0.3850708,0.4575195-0.3850708,0.7891235v1.5159302   c0,0.057312-0.0484619,0.1032715-0.1074219,0.1032715H6.1695557c-0.0535278-0.003418-0.0956421-0.0429688-0.0998535-0.0935669   V10.2744751z M5.2039795,13.2219849c-0.0366211,0.0333252-0.0897217,0.0354614-0.1309814,0.0130615   c-0.1854248-0.1537476-0.2182617-0.2245483-0.3198242-0.371582c-0.3059082,0.3121948-0.5228882,0.4053345-0.9193726,0.4053345   C3.3644409,13.2687988,3,12.9788818,3,12.3999634c0-0.4528809,0.244812-0.760498,0.5944824-0.9113159   c0.3025513-0.1323242,0.7243042-0.1567383,1.0479126-0.1934204v-0.0720215c0-0.1326904,0.0109253-0.2890625-0.0678711-0.4036255   c-0.0673828-0.102417-0.197998-0.1453857-0.3126221-0.1453857c-0.2127686,0-0.4015503,0.1091309-0.4483032,0.3358154   c-0.0092773,0.0492554-0.0463257,0.098999-0.0964966,0.1015625l-0.5405884-0.0581665   c-0.0454712-0.0105591-0.0960083-0.0467529-0.083374-0.116272c0.1242676-0.6564331,0.7158203-0.8544922,1.2467041-0.8544922   c0.2713623,0,0.6256714,0.072937,0.8392944,0.2776489c0.2713623,0.2536621,0.2452393,0.5911255,0.2452393,0.9598389v0.8683472   c0,0.2612305,0.1087036,0.3758545,0.2106323,0.5169678c0.0349731,0.0501709,0.043396,0.1108398-0.0020752,0.1474609   c-0.1137695,0.0956421-0.3168335,0.2717896-0.4276733,0.3707886L5.2039795,13.2219849z M14.1730957,14.3278198   c-1.0462036,0.7719116-2.5634155,1.1831665-3.8699951,1.1831665c-1.8306885,0-3.4793701-0.677124-4.7269287-1.803772   c-0.0981445-0.0880737-0.0109863-0.2089844,0.1065674-0.140686c1.3470459,0.7836304,3.0112915,1.2546997,4.7303467,1.2546997   c1.1599731,0,2.4345093-0.2401733,3.6079102-0.7382202C14.197937,14.0084839,14.3462524,14.2006226,14.1730957,14.3278198z    M14.463623,15.0853882c-0.0863647,0.0725098-0.1685181,0.0337524-0.1306152-0.0615234   c0.1268311-0.3151245,0.4095459-1.0217285,0.2755737-1.1932373c-0.1339722-0.1714478-0.8848267-0.0808716-1.22229-0.0404053   c-0.1015625,0.0117798-0.117981-0.0775146-0.0256958-0.1415405c0.5991211-0.4209595,1.5804443-0.2995605,1.6945801-0.1588745   C15.1702271,13.6314087,15.0248413,14.6160278,14.463623,15.0853882z M15.5073242,13.050354   c0,0.0598145-0.0661621,0.1289673-0.1348267,0.0935669c-0.5641479-0.2957764-1.3128662-0.3286743-1.9364624,0.0037842   c-0.0635986,0.0332642-0.1306152-0.0349731-0.1306152-0.0947876v-0.4154663c0-0.0665894,0.0021362-0.1795044,0.0686646-0.2810059   l1.0997314-1.5775146l-0.9577026-0.0004272c-0.0581665,0-0.1053467-0.041687-0.1057739-0.102356v-0.4086914   c0.0004272-0.0623779,0.0467529-0.1040649,0.1036377-0.1036377l1.8323975-0.0004272   c0.0581665,0,0.1053467,0.0425415,0.1053467,0.1032104v0.3513794c0,0.0581665-0.0501709,0.1343994-0.1381836,0.2565918   l-0.9488525,1.3554688c0.3522339-0.0084229,0.7255249,0.0438232,1.0452881,0.2241211   c0.0725098,0.0404663,0.0918579,0.100708,0.0973511,0.1592407V13.050354z M17.0292358,13.2900391   c-0.8123169,0-1.2543335-0.7112427-1.2543335-1.5952148c0-0.8915405,0.4483032-1.5842285,1.2543335-1.5842285   c0.8270874,0,1.2749634,0.7103882,1.2749634,1.6132813C18.3041992,12.5973511,17.8095703,13.2900391,17.0292358,13.2900391z    M21.0103149,13.1395264c-0.0063477,0.0505371-0.0518188,0.0901489-0.1074829,0.0901489h-0.5582275   c-0.0518188-0.0033569-0.0935669-0.041748-0.0994263-0.0901489v-1.553894c0-0.3126221,0.0361938-0.7706299-0.348877-0.7706299   c-0.1352539,0-0.2595825,0.0905762-0.3223267,0.2287598c-0.0779419,0.1744385-0.088501,0.3493042-0.088501,0.5418701v1.5404053   c-0.0012207,0.057312-0.0488892,0.1036377-0.1082764,0.1036377h-0.5561523   c-0.0551758-0.0037842-0.098999-0.0480347-0.098999-0.1032104l-0.0012817-2.8616943   c0.0046387-0.0522461,0.0509644-0.0935669,0.1069946-0.0935669h0.5170288   c0.0484009,0.001709,0.0892944,0.0349731,0.098999,0.0800781v0.4373169h0.0109253   c0.1558838-0.3909912,0.3745728-0.578064,0.7592773-0.578064c0.2498169,0,0.4946289,0.0905762,0.6505127,0.3374634   c0.145813,0.229248,0.145813,0.6143188,0.145813,0.8907471V13.1395264z" fill="#303C42"/></g><g/><g/><g/><g/><g/><g/><g/><g/><g/><g/><g/><g/><g/><g/><g/></svg>