<?xml version="1.0" ?><svg enable-background="new 0 0 24 24" id="Layer_1" version="1.1" viewBox="0 0 24 24" xml:space="preserve" xmlns="http://www.w3.org/2000/svg" xmlns:xlink="http://www.w3.org/1999/xlink"><g><polygon fill="#303C42" points="10.3338013,10.5126343 9.0803223,10.5126343 9.0803223,9.9890137 10.3041382,9.9890137    10.3041382,9.4516602 9.0803223,9.4516602 9.0803223,8.9793701 10.3338013,8.9793701 10.3338013,8.4332275 8.5449829,8.4332275    8.5449829,11.0548096 10.3338013,11.0548096  "/><path d="M11.2415161,10.1018066h0.5741577c0.1928711,0,0.3123169,0.0200195,0.3903809,0.1118774   c0.09729,0.1260376,0.0843506,0.3526611,0.0843506,0.510437l0.0025024,0.3306885h0.5402832v-0.5153198   c0-0.2339478-0.0129395-0.3502197-0.0889282-0.4806519c-0.0476074-0.0761719-0.1478271-0.1685181-0.2651367-0.2207642   c0.1394653-0.0645142,0.3774414-0.2808838,0.3774414-0.6984863c0-0.2926025-0.1018677-0.463562-0.2705688-0.5808105   c-0.1737061-0.1172485-0.3753662-0.1255493-0.6488647-0.1255493h-1.2317505v2.621582h0.5361328V10.1018066z M11.2410889,8.9798584   h0.659729c0.0927124,0,0.1904297,0.0053711,0.2539063,0.0473633c0.0692749,0.0380859,0.1123047,0.1192017,0.1123047,0.2315063   c0,0.1143188-0.0413208,0.206665-0.1102295,0.2491455c-0.0743408,0.0522461-0.1611938,0.0537109-0.2651367,0.0537109h-0.651001   L11.2410889,8.9798584z" fill="#303C42"/><path d="M6.8188477,11.0552979L7.59552,9.0023193l0.0020752,2.0529785h0.5490723v-2.621582H7.2539673   l-0.6434326,1.7785034L5.9094849,8.4337158H5.0350952v2.4823608l-0.911499-2.4823608H3.3286133l-0.9591064,2.621582h0.581665   l0.2078857-0.5846558h1.1148682l0.2058716,0.5846558h1.0897827V9.0003662l0.7778931,2.0544434L6.8188477,11.0552979z    M3.3499146,9.9240112l0.3640747-1.0447998l0.3662109,1.0447998H3.3499146z" fill="#303C42"/><path d="M14.9351196,9.4604492c-0.0050049,0.0083618-0.0426025,0.1026001-0.0426025,0.2843018   c0,0.1797485,0.0246582,0.2662354,0.0426025,0.3052979c0.0187988,0.0058594,0.0534668,0.0126953,0.1052246,0.0126953   l0.2321777-0.6345215h-0.1829224c-0.0018921,0-0.0038452,0-0.0056763,0   C14.9630737,9.4282227,14.9503174,9.4436646,14.9351196,9.4604492z" fill="#303C42"/><rect fill="#303C42" height="2.621582" width="0.5465698" x="13.1668091" y="8.4337158"/><path d="M15.0395508,11.0552979h0.6271362l0.2012329-0.5846558h1.1123657l0.2087402,0.5846558h1.09021V9.0877686   l1.0163574,1.9675293h0.7582397v-2.621582h-0.5477905v1.8258667l-0.9420166-1.8258667h-0.8154907v2.4794312l-0.9068604-2.4794312   h-0.802124l-0.7565918,2.0613403h-0.2401123c-0.1398315,0-0.2910156-0.03125-0.373291-0.1353149   c-0.1005859-0.131897-0.1473999-0.3345947-0.1473999-0.6149902c0-0.2754517,0.0622559-0.4835815,0.1536865-0.5939331   c0.1060791-0.1211548,0.2158813-0.1553345,0.4125366-0.1553345h0.5073242V8.4337158h-0.5181885   c-0.3690796,0-0.6409302,0.0962524-0.8133545,0.3052979c-0.2296753,0.2808838-0.2885742,0.6364746-0.2885742,1.0252686   c0,0.4762573,0.0985718,0.7781372,0.2872925,1.0008545C14.4490967,10.9874268,14.7785645,11.0548096,15.0395508,11.0552979z    M16.4274292,8.8792114l0.3712158,1.0447998h-0.7390747L16.4274292,8.8792114z" fill="#303C42"/><path d="M11.843811,12.9456177c-0.0007324,0-0.0015259,0-0.0015259,0h-1.711853l-0.6814575,0.8587646   l-0.659729-0.8587646H6.6355591v2.621582h2.121582l0.6856079-0.867981l0.659729,0.867981h1.0408936v-0.8792114h0.6680908   c0.4680786,0,0.932373-0.1504517,0.932373-0.8787231C12.7438354,13.0846558,12.2682495,12.9456177,11.843811,12.9456177z    M8.486145,15.0216064H7.1700439V14.499939h1.175354v-0.5353394h-1.175354V13.487854h1.3424072l0.5858154,0.7634277   L8.486145,15.0216064z M10.6098022,15.3288574l-0.8225708-1.0687866l0.8225708-1.0335693V15.3288574z M11.8360596,14.1550903   h-0.0012207h-0.6914673v-0.6677246h0.6981812c0.1937256,0,0.3273315,0.0922852,0.3273315,0.3218994   C12.1688843,14.0354614,12.041626,14.1550903,11.8360596,14.1550903z" fill="#303C42"/><path d="M15.1530762,13.6505127c0-0.2989502-0.1064453-0.4630737-0.2747192-0.5822754   c-0.177063-0.1098633-0.3741455-0.1231079-0.6451416-0.1231079h-1.2363281v2.621582h0.5377808V14.609314h0.5720825   c0.1953735,0,0.3143921,0.022522,0.3928833,0.116272c0.0993652,0.1221313,0.0864258,0.3555908,0.0864258,0.5133667v0.3277588   h0.5374146v-0.5197144c-0.001709-0.2310181-0.0125732-0.3502197-0.0889893-0.4782104   c-0.0450439-0.0761719-0.1431885-0.1694946-0.2617798-0.2202759   C14.9130249,14.2835083,15.1522827,14.0700684,15.1530762,13.6505127z M14.4499512,14.0227051   c-0.0718384,0.0498047-0.1607666,0.0541992-0.2651367,0.0541992h-0.6509399V13.487854h0.659729   c0.0943604,0,0.1903687,0.0024414,0.2554932,0.0473633c0.0693359,0.0424805,0.1106567,0.1240845,0.1106567,0.2359009   C14.5597534,13.8829956,14.5184326,13.973877,14.4499512,14.0227051z" fill="#303C42"/><path d="M18.670105,13.973877l-0.2877197-0.0097656c-0.0914307,0-0.1515503-0.0068359-0.2087402-0.0298462   c-0.0672607-0.0297852-0.1169434-0.0961914-0.1169434-0.1953735c0-0.0830078,0.0217285-0.1460571,0.0809937-0.1890259   c0.0534668-0.0424805,0.1165161-0.0473633,0.2146606-0.0473633h0.9820557v-0.5578613h-1.0731201   c-0.5620117,0-0.7657471,0.3995972-0.7657471,0.7805786c0,0.8289185,0.6275635,0.7918091,1.1278076,0.8108521   c0.0939331,0,0.1498413,0.0180664,0.1907959,0.0581055c0.0375977,0.0371094,0.0651245,0.0967407,0.0651245,0.1734009   c0,0.0713501-0.0258789,0.1309204-0.0626221,0.1709595c-0.045105,0.0498657-0.1173096,0.0650024-0.2183838,0.0650024h-1.0388794   v0.5621948h1.0430298c0.539917,0,0.8417969-0.2633057,0.8417969-0.8274536c0-0.269104-0.0563354-0.4293213-0.1607666-0.5553589   C19.1602783,14.0402832,18.9606934,13.9821777,18.670105,13.973877z" fill="#303C42"/><path d="M20.8584595,13.973877l-0.288147-0.0097656c-0.0905762,0-0.151123-0.0068359-0.2087402-0.0298462   c-0.0664063-0.0297852-0.1165161-0.0961914-0.1165161-0.1953735c0-0.0830078,0.0217285-0.1460571,0.0806274-0.1890259   c0.053833-0.0424805,0.1173096-0.0473633,0.2150269-0.0473633h0.9824829v-0.5578613h-1.0739136   c-0.5612183,0-0.7658081,0.3995972-0.7658081,0.7805786c0,0.8289185,0.6279907,0.7918091,1.1286011,0.8108521   c0.0935669,0,0.1491089,0.0180664,0.1908569,0.0581055c0.0367432,0.0371094,0.0646973,0.0967407,0.0646973,0.1734009   c0,0.0713501-0.0263062,0.1309204-0.0621948,0.1709595c-0.0455322,0.0498657-0.1177368,0.0650024-0.218811,0.0650024h-1.0384521   v0.5621948h1.0430298c0.539917,0,0.8409424-0.2633057,0.8409424-0.8274536c0-0.269104-0.055542-0.4293213-0.1607056-0.5553589   C21.3490601,14.0402832,21.1490479,13.9821777,20.8584595,13.973877z" fill="#303C42"/><path d="M22,3H2C0.8974609,3,0,3.8969727,0,5v14c0,1.1030273,0.8974609,2,2,2h20c1.1025391,0,2-0.8969727,2-2V5   C24,3.8969727,23.1025391,3,22,3z M6.0096436,11.2296753l-0.0701294-0.1860962v0.0102539   c0,0.2388916-0.1657715,0.4328003-0.3699341,0.4328003H4.4802246c-0.1503296,0-0.2852173-0.1060181-0.3424072-0.2681885   l-0.1115112-0.3165283H3.4058228l-0.1130981,0.3184814c-0.0568237,0.1611938-0.1920776,0.2667236-0.3407593,0.2667236H2.3699341   c-0.1244507,0-0.2405396-0.0733032-0.309021-0.194397c-0.0680542-0.1221313-0.0801392-0.2755127-0.0308838-0.4088745   l0.9586792-2.621582C3.0467529,8.1035156,3.1807861,8,3.3290405,8h0.7949829c0.1482544,0,0.2814331,0.1030273,0.340332,0.2617798   l0.2008057,0.5480957V8.4332275c0-0.2388306,0.1653442-0.4327393,0.3699341-0.4327393h0.8747559   c0.1436768,0,0.2752075,0.0986328,0.3361816,0.2515259l0.3502808,0.8900146l0.3181763-0.8773193   c0.0576172-0.1602173,0.1920776-0.2642212,0.3399048-0.2642212h0.8927002c0.0751343,0,0.140686,0.0327148,0.199585,0.0776367   c0.0584717-0.0449219,0.1240234-0.0776367,0.199585-0.0776367h1.7887573c0.0693359,0,0.1306763,0.0283203,0.1854248,0.0668945   c0.055481-0.0385742,0.1164551-0.0668945,0.185791-0.0668945h1.2317505c0.3186035,0,0.5820923,0.0131836,0.8338623,0.1831665   c0.0254517,0.0180664,0.0438232,0.0410156,0.0667725,0.0605469c0.0601196-0.1426392,0.1837158-0.2437134,0.3294678-0.2437134   h0.5465698c0.1849365,0,0.3319092,0.1611938,0.3590698,0.3677979c0.2396851-0.2427979,0.5662231-0.3677979,1.0054321-0.3677979   h0.5181885c0.0822754,0,0.1595459,0.0317383,0.2208862,0.0859375c0.0621948-0.0546875,0.1394653-0.0859375,0.2213135-0.0859375   h0.802124c0.1477661,0,0.2810059,0.1035156,0.3398438,0.2622681l0.1966553,0.5383301V8.4332275   c0-0.2388306,0.1657715-0.4327393,0.3703613-0.4327393h0.8154907c0.1298828,0,0.2496948,0.0791016,0.3165283,0.2090454   l0.2546997,0.4938354V8.4327393C19.1352539,8.1939087,19.3013916,8,19.5060425,8h0.5477905   c0.2045898,0,0.3699341,0.1939087,0.3699341,0.4327393v2.621582c0,0.2388916-0.1661987,0.4328003-0.3699341,0.4328003h-0.7582397   c-0.1307373,0-0.2505493-0.0791626-0.317749-0.2090454L18.649231,10.640625v0.4136963   c0,0.2388916-0.1661987,0.4328003-0.3699951,0.4328003h-1.09021c-0.1490479,0-0.2830811-0.1050415-0.3415527-0.2662354   l-0.1131592-0.3184814h-0.6171265l-0.109375,0.3140869c-0.055542,0.1636353-0.1916504,0.2711182-0.3415527,0.2711182h-0.6271362   c-0.2384644,0-0.6651611-0.050354-0.9695435-0.3487549c-0.034668,0.1973267-0.1766357,0.3487549-0.3557739,0.3487549h-0.5469971   c-0.0605469,0-0.1160889-0.0214844-0.1674194-0.0523071c-0.0505371,0.0308228-0.1052246,0.0523071-0.1661987,0.0523071h-0.5402832   c-0.2033691,0-0.3687134-0.1919556-0.3703613-0.4293823l-0.0020752-0.3306885l0.0007935-0.0576172   c0-0.0351563,0.0008545-0.0879517-0.0016479-0.1323853c-0.0246582-0.0019531-0.0576172-0.003418-0.1039429-0.003418h-0.2042236   v0.5206909c0,0.2388916-0.1657715,0.4328003-0.3699341,0.4328003h-0.5361328c-0.0692749,0-0.1298218-0.0283813-0.185791-0.0669556   c-0.0546875,0.0385742-0.1160889,0.0669556-0.1854248,0.0669556H8.5454102c-0.0755615,0-0.1411133-0.0332031-0.199585-0.0776978   c-0.0588379,0.0444946-0.1243896,0.0776978-0.199585,0.0776978H7.597168c-0.2045898,0-0.3699341-0.1934814-0.3699341-0.432312   v-0.0107422L7.15625,11.2301636c-0.0592651,0.1567993-0.1912231,0.2579346-0.3381958,0.2579346H6.3474731   C6.2012939,11.4880981,6.0685425,11.3869629,6.0096436,11.2296753z M20.7918701,15.9990234c-0.0007324,0-0.0015869,0-0.0015869,0   H19.746521c-0.152832,0-0.2835083-0.1089478-0.340332-0.2633057c-0.2033081,0.1685181-0.472229,0.2633057-0.8049927,0.2633057   h-1.0430298c-0.0588989,0-0.1115112-0.019043-0.1607666-0.046936c-0.0488281,0.0278931-0.1018677,0.046936-0.1603394,0.046936   h-1.7871094c-0.0596924,0-0.1143799-0.019043-0.1636353-0.0488281c-0.0496826,0.0288086-0.1035767,0.0488281-0.1628418,0.0488281   h-0.5374146c-0.2050171,0-0.3703613-0.1939087-0.3703613-0.4328003v-0.3809814   c0.0008545-0.0371094,0.0008545-0.093811-0.0016479-0.1401978c-0.0246582-0.0019531-0.0593262-0.0039063-0.1085815-0.0039063   h-0.2020874v0.5250854c0,0.2393799-0.1657715,0.4328003-0.3699341,0.4328003h-0.538208   c-0.2050171,0-0.3703613-0.1939087-0.3703613-0.4328003v-0.6662598c-0.1900024,0.1323853-0.4522095,0.2192993-0.8138428,0.2192993   h-0.2976685v0.4469604c0,0.2393799-0.1657715,0.4328003-0.3703613,0.4328003h-1.0409546   c-0.1056519,0-0.206665-0.0527954-0.2768555-0.1450806l-0.3878784-0.5109253l-0.4088135,0.5177612   C8.958374,15.9491577,8.8602295,16,8.7571411,16h-2.121582c-0.2045898,0-0.3699341-0.194397-0.3699341-0.4332886v-2.621582   c0-0.2398071,0.1657715-0.4332275,0.3699341-0.4332275h2.1536865c0.1056519,0,0.2054443,0.0517578,0.2752075,0.1436157   l0.3891602,0.5065308l0.4053955-0.5119019c0.0701904-0.0884399,0.1682739-0.1382446,0.2714233-0.1382446h1.7111206   c0.374939,0,0.638855,0.097168,0.8262939,0.2407837c0.0605469-0.1416626,0.1824951-0.2407837,0.3273926-0.2407837h1.2367554   c0.28479,0,0.5603638,0.0126953,0.8187866,0.1743774c0.0280151,0.019043,0.0459595,0.0439453,0.0718384,0.0644531   c0.0609741-0.1401367,0.1816406-0.2388306,0.3261108-0.2388306h1.7871094c0.1386108,0,0.2554932,0.0932617,0.3189697,0.225647   c0.1762085-0.1397095,0.4100342-0.225647,0.704834-0.225647h1.0730591c0.1616211,0,0.2943726,0.1216431,0.3457642,0.2891846   c0.1837158-0.1744385,0.4346313-0.2891846,0.769104-0.2891846h1.0739136c0.2042236,0,0.3695679,0.1939087,0.3695679,0.4332275   v0.5578613c0,0.1528931-0.0668335,0.2872314-0.1691284,0.3643799c0.0029297,0.0039063,0.0070801,0.0083008,0.0108643,0.0126953   C21.9165039,14.1008301,22,14.3734131,22,14.7397461C22,15.527832,21.5488281,15.9990234,20.7918701,15.9990234z" fill="#303C42"/><polygon fill="#303C42" points="15.4495239,15.5667114 17.2366333,15.5667114 17.2366333,15.0230713 15.9823608,15.0201416    15.9823608,14.4989624 17.2057495,14.4989624 17.2057495,13.9641113 15.9823608,13.9641113 15.9823608,13.4868774    17.2366333,13.4868774 17.2366333,12.9451294 15.4495239,12.9451294  "/></g><g/><g/><g/><g/><g/><g/><g/><g/><g/><g/><g/><g/><g/><g/><g/></svg>