<?xml version="1.0" ?><svg enable-background="new 0 0 24 24" id="Layer_1" version="1.1" viewBox="0 0 24 24" xml:space="preserve" xmlns="http://www.w3.org/2000/svg" xmlns:xlink="http://www.w3.org/1999/xlink"><g><path d="M8.0723877,11.8491821c-0.0472412,0-0.1081543,0.0090332-0.1837158,0.0251465   c-0.0758057,0.0171509-0.1436157,0.0526733-0.2044067,0.1060791l-0.3323364,1.3804932   c0.0200195,0.00354,0.0377808,0.006897,0.0528564,0.0100708c0.0148315,0.003418,0.031189,0.0058594,0.0474854,0.0075073   c0.0172729,0.0019531,0.0369873,0.0029297,0.060791,0.0029297c0.0238647,0,0.0536499,0.000061,0.0905151,0.000061   c0.1176147,0,0.2283936-0.0289307,0.3325195-0.0856934c0.1043701-0.0568848,0.194458-0.133667,0.2699585-0.2293091   c0.0754395-0.0960083,0.1351929-0.2042236,0.1787109-0.3251343c0.0435791-0.1208496,0.0656128-0.2470093,0.0656128-0.3782349   c0-0.1611938-0.0269775-0.2869263-0.0806274-0.3778076C8.31604,11.8947754,8.2166748,11.8491821,8.0723877,11.8491821z" fill="#303C42"/><path d="M16.3729858,11.8445435c-0.1105347,0-0.208252,0.0321045-0.2919312,0.09552   c-0.0840454,0.0641479-0.1546021,0.1447754-0.2114258,0.2420044c-0.0574951,0.0977173-0.1000977,0.2042236-0.1289063,0.3200073   c-0.0285645,0.1160278-0.0426025,0.225708-0.0426025,0.329895c0,0.1682129,0.0271606,0.2991943,0.0804443,0.3934326   c0.0540771,0.09375,0.1511841,0.1409302,0.2923584,0.1409302c0.1109619,0,0.2081909-0.0318604,0.2923584-0.0959473   c0.0834961-0.0636597,0.1541138-0.1443481,0.2114258-0.2417603c0.0571289-0.097229,0.1000977-0.2040405,0.1289063-0.3200073   c0.0281982-0.1156616,0.0426025-0.2259521,0.0426025-0.3300171c0-0.1677246-0.0270386-0.2990112-0.0808716-0.3931274   C16.6116333,11.8917236,16.5140381,11.8445435,16.3729858,11.8445435z" fill="#303C42"/><path d="M5.382019,11.7147217c0.039856-0.2661743-0.1628418-0.4093018-0.4399414-0.5046997l0.0899048-0.3605957   l-0.2194901-0.0546875L4.7249756,11.145813c-0.0576782-0.0144043-0.1169434-0.0279541-0.1758423-0.0413818l0.0881348-0.3533936   l-0.2192993-0.0546875l-0.0899658,0.3604126c-0.0477905-0.0108643-0.0946655-0.0216064-0.1401367-0.0328979l0.0002441-0.0011597   L3.885437,10.9471436l-0.0584106,0.234436c0,0,0.1628418,0.0372925,0.1594238,0.0396118   c0.0888672,0.0221558,0.1049194,0.0809937,0.1022339,0.1276245l-0.102356,0.4107666   c0.0061035,0.0015869,0.0140381,0.0037842,0.0228271,0.0073242c-0.0073242-0.0018311-0.0151367-0.0038452-0.0231934-0.0057373   l-0.1435547,0.5753784c-0.0108643,0.0269775-0.0384521,0.0675049-0.1005859,0.052124   c0.0021973,0.0031738-0.1594849-0.0397949-0.1594849-0.0397949l-0.1089478,0.2512207l0.2855835,0.071167   c0.0531006,0.0133057,0.1052246,0.0272827,0.1564331,0.0404053L3.824585,13.076355l0.2192383,0.0546875l0.0899658-0.3607788   c0.0598755,0.0162354,0.117981,0.03125,0.1748657,0.0453491l-0.0895996,0.3591309l0.2194214,0.0546875l0.0908813-0.3640137   c0.3742065,0.0708618,0.6556396,0.0422974,0.7741089-0.2962036c0.095459-0.272522-0.0047607-0.4297485-0.2016602-0.5322876   C5.2451782,12.0038452,5.3532104,11.9095459,5.382019,11.7147217z M4.2050781,12.5061035l0.1205444-0.4830933   c0.1487427,0.0371094,0.6258545,0.1105957,0.5549316,0.3948364C4.8127441,12.6904297,4.3538818,12.5430908,4.2050781,12.5061035z    M4.3807373,11.8018188l0.1092529-0.4381714c0.1239014,0.0308838,0.5228882,0.088501,0.4584961,0.3471069   C4.8865967,11.9586792,4.5046387,11.8327026,4.3807373,11.8018188z" fill="#303C42"/><path d="M22,3H2C0.8974609,3,0,3.8969727,0,5v14c0,1.1030273,0.8974609,2,2,2h20c1.1025391,0,2-0.8969727,2-2V5   C24,3.8969727,23.1025391,3,22,3z M18.3013306,10.3809204c0.0284424-0.0621948,0.0662842-0.1157837,0.1134644-0.1613159   c0.046875-0.045166,0.1019287-0.0812378,0.1637573-0.1084595c0.0619507-0.0267334,0.1282959-0.0401001,0.1987305-0.0401001   c0.104248,0,0.1984863,0.0310059,0.2823486,0.0930786c0.0839233,0.0623779,0.1262817,0.1574097,0.1262817,0.28479   c0,0.0706787-0.0150757,0.1369629-0.0432129,0.1992188c-0.0281982,0.0621948-0.0661011,0.1157837-0.1130981,0.1613159   c-0.0472412,0.0452271-0.1016235,0.0811768-0.1635742,0.1080933c-0.0625,0.0272217-0.1287231,0.0401001-0.1995239,0.0401001   c-0.1040115,0-0.1983032-0.0310059-0.2819214-0.0930786c-0.0839844-0.0617065-0.1262207-0.1567383-0.1262207-0.28479   C18.2583618,10.5093384,18.2728882,10.4432983,18.3013306,10.3809204z M10.0027466,10.3809204   c0.0288086-0.0621948,0.0664673-0.1157837,0.1136475-0.1613159c0.0470581-0.045166,0.1016235-0.0812378,0.1636353-0.1084595   c0.0623169-0.0267334,0.1286621-0.0401001,0.1993408-0.0401001c0.1040039,0,0.197876,0.0310059,0.2819214,0.0930786   c0.0837402,0.0623779,0.1259155,0.1574097,0.1259155,0.28479c0,0.0706787-0.0142822,0.1369629-0.0429077,0.1992188   c-0.0284424,0.0621948-0.06604,0.1157837-0.1132202,0.1613159c-0.0467529,0.0452271-0.1018066,0.0811768-0.1636353,0.1080933   c-0.0623779,0.0272217-0.128479,0.0401001-0.1989136,0.0401001c-0.1040649,0-0.1984863-0.0310059-0.2822266-0.0930786   c-0.0844116-0.0617065-0.1262207-0.1567383-0.1262207-0.28479C9.960083,10.5093384,9.9743652,10.4432983,10.0027466,10.3809204z    M6.4403076,12.4838257c-0.2671509,1.0714111-1.3525391,1.7234497-2.4242554,1.4562988   c-1.0712891-0.2671509-1.7234497-1.352356-1.4561157-2.4237671c0.2670288-1.0715332,1.352356-1.7236328,2.4237671-1.456543   C6.0553589,10.3269653,6.7074585,11.4122925,6.4403076,12.4838257z M9.0675659,12.9655151   c-0.0858154,0.2068481-0.2022095,0.3862915-0.3502808,0.5393677c-0.1479492,0.1528931-0.3226318,0.2733765-0.5241089,0.3624268   c-0.2011719,0.0890503-0.4198608,0.133606-0.6546631,0.133606c-0.0303345,0-0.0837402-0.0008545-0.1591797-0.0023804   c-0.0753784-0.0015869-0.1620483-0.0093384-0.2590942-0.0224609c-0.0977173-0.0136719-0.2009888-0.0338135-0.3100586-0.060791   c-0.1090088-0.0265503-0.2125244-0.0636597-0.3099976-0.1108398l0.8717651-3.6630859l0.7808228-0.1210327l-0.3121338,1.2999268   c0.0668335-0.0301514,0.1341553-0.0534668,0.201355-0.0704346c0.0672607-0.0167236,0.1394043-0.0254517,0.2165527-0.0254517   c0.161499,0,0.3009644,0.0289307,0.4181519,0.0857544c0.1177979,0.057312,0.2149658,0.1346436,0.2929688,0.2318115   c0.0769043,0.0976563,0.1340942,0.211853,0.1710815,0.3426514c0.0366821,0.1312256,0.0551147,0.2722778,0.0551147,0.4232788   C9.1958618,12.5397949,9.1533813,12.7589722,9.0675659,12.9655151z M10.0056152,13.9307861H9.2598267l0.6298218-2.6502686   h0.7509155L10.0056152,13.9307861z M11.5057373,13.2125244c0.0200195,0.0488281,0.0560913,0.0864868,0.1083374,0.1130981   c0.052002,0.0270386,0.1264648,0.0407104,0.2241821,0.0407104c0.0804443,0,0.1588135-0.0076904,0.2346191-0.0228271   c0.0753174-0.0149536,0.1516724-0.0357666,0.2289429-0.0629272l0.055603,0.574646   c-0.100769,0.0369263-0.2098999,0.0687256-0.3275146,0.09552c-0.1177368,0.0270996-0.2572021,0.0401611-0.418335,0.0401611   c-0.2316895,0-0.4113159-0.0344238-0.5393066-0.1029053c-0.1278076-0.0689697-0.2181396-0.163269-0.2722168-0.2825928   c-0.0532837-0.1188965-0.0771484-0.2559814-0.0704346-0.4104004c0.006897-0.1547852,0.0302124-0.3174438,0.0704346-0.4888306   l0.4940796-2.0859375l0.7811279-0.1210327l-0.1917725,0.781189h0.8365479l-0.151062,0.614624h-0.831543l-0.2214966,0.927002   c-0.0203857,0.0772705-0.0319824,0.1494751-0.0352173,0.2165527C11.4770508,13.105957,11.4855957,13.1638184,11.5057373,13.2125244   z M13.5741577,13.2075806c0.0737915,0.105957,0.210144,0.1586914,0.40802,0.1586914   c0.0977173,0,0.1919556-0.0101929,0.2822266-0.0301514c0.0909424-0.0201416,0.1712646-0.0455322,0.2420044-0.0755005   l0.0557251,0.5994873c-0.0943604,0.0366211-0.1983643,0.0696411-0.3125,0.0985718   c-0.1143188,0.0279541-0.2504883,0.0424194-0.4083252,0.0424194c-0.208374,0-0.3847046-0.0304565-0.5289917-0.0905151   c-0.1443481-0.0609741-0.2636108-0.1419067-0.357605-0.2444458c-0.0944214-0.1027832-0.1622314-0.2227783-0.2041626-0.3605347   c-0.0419312-0.1376343-0.0633545-0.2822266-0.0633545-0.4331055c0-0.2282715,0.0369263-0.4435425,0.1107788-0.6450806   c0.0737305-0.2017212,0.1799316-0.3781128,0.317749-0.52948c0.1373291-0.1506348,0.3046265-0.2699585,0.5015259-0.3575439   c0.1960449-0.0870972,0.4154663-0.1310425,0.6572876-0.1310425c0.1513672,0,0.2865601,0.0143433,0.4055176,0.0430298   c0.1195068,0.0289307,0.2275391,0.0662842,0.3253174,0.1132202l-0.2572021,0.5848389   c-0.0671997-0.0272827-0.1369629-0.0512695-0.2091064-0.0730591c-0.0721436-0.0222168-0.1602173-0.0328979-0.2644653-0.0328979   c-0.2489014,0-0.4457397,0.0858154-0.5921631,0.2568359c-0.1459351,0.1711426-0.2194214,0.4015503-0.2194214,0.6905518   C13.4630127,12.9631348,13.5,13.1016235,13.5741577,13.2075806z M17.3960571,12.907959   c-0.0635376,0.2009277-0.1577759,0.3825684-0.2822266,0.5440063c-0.1242065,0.1611328-0.27948,0.2929688-0.4660034,0.3953857   c-0.1862793,0.102356-0.4022827,0.1537476-0.647583,0.1537476c-0.1779785,0-0.3325806-0.0270996-0.4637451-0.0808105   c-0.1307983-0.0537109-0.2390747-0.1290283-0.3247681-0.2266846c-0.0858154-0.097229-0.1500244-0.2123413-0.1940308-0.3450928   c-0.0439453-0.1326294-0.0651245-0.279541-0.0651245-0.4404907c0-0.2019043,0.0324097-0.4037476,0.0979614-0.6049805   c0.0651855-0.2017212,0.1619263-0.3829346,0.289978-0.5440674c0.1270752-0.1613159,0.2837524-0.2932129,0.4683228-0.3960571   c0.1843262-0.1021729,0.3963623-0.1535645,0.6345215-0.1535645c0.1748047,0,0.3286133,0.0272217,0.4615479,0.0808716   c0.1323242,0.0535889,0.241333,0.1295776,0.3275146,0.2267456c0.0852051,0.0976563,0.1500244,0.2123413,0.1935425,0.3452759   c0.0438843,0.1323853,0.0655518,0.2796631,0.0655518,0.4407349C17.4915161,12.5042114,17.4595337,12.7060547,17.3960571,12.907959z    M17.5577393,13.9307861l0.6298218-2.6502686h0.7512817l-0.6346436,2.6502686H17.5577393z M21.4367065,12.4995728   l-0.3430786,1.4309692h-0.7507324l0.3325195-1.4008789c0.0202637-0.0874634,0.0361938-0.1719971,0.0479736-0.2546387   c0.0118408-0.0818481,0.0111694-0.1540527-0.0026855-0.2164917c-0.0132446-0.0617676-0.0444946-0.1122437-0.0929565-0.1514282   c-0.0491943-0.0384521-0.1235962-0.0578613-0.2244263-0.0578613c-0.097229,0-0.196167,0.010498-0.2971191,0.0306396   l-0.4888916,2.0505981H18.866333l0.6100464-2.5294189c0.0565796-0.0165405,0.119812-0.036438,0.1885376-0.0581055   c0.0690308-0.0216675,0.1461182-0.0418091,0.2322388-0.0599976c0.085144-0.0187378,0.1812744-0.0338745,0.2869873-0.0456543   c0.1057129-0.0120239,0.2261353-0.0178833,0.3599854-0.0178833c0.3933105,0,0.6644897,0.114563,0.8141479,0.3429565   C21.5078735,11.7907715,21.5337524,12.1033936,21.4367065,12.4995728z" fill="#303C42"/></g><g/><g/><g/><g/><g/><g/><g/><g/><g/><g/><g/><g/><g/><g/><g/></svg>