<?xml version="1.0" ?><svg enable-background="new 0 0 24 24" id="Layer_1" version="1.1" viewBox="0 0 24 24" xml:space="preserve" xmlns="http://www.w3.org/2000/svg" xmlns:xlink="http://www.w3.org/1999/xlink"><g><path d="M10.5,10.75c0,1.359436,0.581543,2.5789795,1.5,3.4456787c0.918457-0.8666992,1.5-2.0862427,1.5-3.4456787   S12.918457,8.1710205,12,7.3043213C11.081543,8.1710205,10.5,9.390564,10.5,10.75z" fill="#303C42"/><path d="M22,3H2C0.8969727,3,0,3.8969727,0,5v14c0,1.1030273,0.8969727,2,2,2h20c1.1030273,0,2-0.8969727,2-2V5   C24,3.8969727,23.1030273,3,22,3z M8.9857178,17.7415161c0.1368408,0,0.2615356-0.0455933,0.380127-0.1307373l0.1520386,0.2554321   c-0.1581421,0.1246338-0.3040771,0.1733398-0.5230103,0.1733398c-0.4683228,0-0.7754517-0.3223267-0.7754517-0.7632446   s0.3071289-0.7632446,0.7754517-0.7632446c0.2189331,0,0.3648682,0.048645,0.5230103,0.1733398l-0.1520386,0.2554321   c-0.1185913-0.0852051-0.2432861-0.1307983-0.380127-0.1307983c-0.2523804,0.0030518-0.4378662,0.1854858-0.4378662,0.465271   C8.5478516,17.5560303,8.7333374,17.7385254,8.9857178,17.7415161z M10.1550903,18.0031738H9.8364868v-1.4536743h0.3186035   V18.0031738z M9.9942627,16.2688599c-0.1259155,0-0.2214966-0.0956421-0.2214966-0.2215576   s0.0955811-0.2245483,0.2214966-0.2245483c0.1259766,0,0.2246094,0.0986328,0.2246094,0.2245483   S10.1202393,16.2688599,9.9942627,16.2688599z M11.4153442,16.8505859c-0.0668945-0.0274048-0.1337891-0.036499-0.1976318-0.036499   c-0.2067871,0-0.3101807,0.1337891-0.3101807,0.3740234v0.8149414h-0.3162842v-1.4534912H10.90448v0.1763306   c0.0820923-0.1276855,0.2006836-0.2128296,0.3831177-0.2128296c0.0638428,0,0.1550903,0.012146,0.2250366,0.0395508   L11.4153442,16.8505859z M12.5415039,16.8505859c-0.0668945-0.0274048-0.1337891-0.036499-0.1976318-0.036499   c-0.2067871,0-0.3101807,0.1337891-0.3101807,0.3740234v0.8149414h-0.3162231v-1.4534912h0.3132324v0.1763306   c0.0820313-0.1276855,0.2006836-0.2128296,0.3831177-0.2128296c0.0638428,0,0.1550903,0.012146,0.2250366,0.0395508   L12.5415039,16.8505859z M14.2260132,17.3873291c0,0.1153564-0.019165,0.2144775-0.0576782,0.2974854   c-0.0383911,0.0829468-0.0890503,0.1506958-0.1517944,0.2033691c-0.0626831,0.0526733-0.1345825,0.0913086-0.2154541,0.1160889   c-0.0809937,0.0247803-0.1639404,0.0372314-0.2489014,0.0372314c-0.085022,0-0.1680298-0.0124512-0.2489624-0.0372314   s-0.1530151-0.0634155-0.2162476-0.1160889c-0.0632935-0.0526733-0.1138306-0.1204224-0.1517944-0.2033691   c-0.0379639-0.0830078-0.0568848-0.1821289-0.0568848-0.2974854v-0.8378906h0.3187256v0.809082   c0,0.0697632,0.0090942,0.1292114,0.0272827,0.1783447c0.0182495,0.0490723,0.0432739,0.0887451,0.0751343,0.1190796   s0.0695801,0.0523682,0.1130981,0.065979c0.043457,0.0137329,0.0900269,0.0205078,0.1396484,0.0205078   c0.0495605,0,0.0960693-0.0067749,0.1395874-0.0205078c0.0435181-0.0136108,0.0812378-0.0356445,0.1130981-0.065979   s0.0568848-0.0700073,0.0750732-0.1190796c0.0183105-0.0491333,0.0273438-0.1085815,0.0273438-0.1783447v-0.809082h0.3187256   V17.3873291z M15.1176758,18.0395508c-0.2371826,0-0.4561157-0.0608521-0.6294556-0.1885986l0.1489868-0.2462769   c0.1064453,0.0820923,0.2645874,0.1520386,0.4835205,0.1520386c0.2158813,0,0.3314209-0.0638428,0.3314209-0.1763306   c0-0.0821533-0.0820923-0.1277466-0.2553711-0.1520386l-0.1490479-0.0213013   c-0.3253174-0.0455933-0.501709-0.1915894-0.501709-0.428772c0-0.2888794,0.2371826-0.46521,0.6051025-0.46521   c0.2310791,0,0.440918,0.0516968,0.5929565,0.1520386l-0.1368408,0.2554321   c-0.0881958-0.0547485-0.2675781-0.1246948-0.453064-0.1246948c-0.1733398,0-0.2767334,0.0638428-0.2767334,0.1702881   c0,0.0973511,0.1094971,0.1246948,0.2463379,0.1428833l0.1489868,0.0213013   c0.3162231,0.0455933,0.5078125,0.1794434,0.5078125,0.4348145C15.7805786,17.8418579,15.5372925,18.0395508,15.1176758,18.0395508   z M15.25,15.5c-1.2597046,0-2.3989868-0.5012817-3.25-1.3043213C11.1489868,14.9987183,10.0097046,15.5,8.75,15.5   C6.1308594,15.5,4,13.3691406,4,10.75S6.1308594,6,8.75,6c1.2597046,0,2.3989868,0.5012817,3.25,1.3043213   C12.8510132,6.5012817,13.9902954,6,15.25,6C17.8691406,6,20,8.1308594,20,10.75S17.8691406,15.5,15.25,15.5z" fill="#303C42"/></g><g/><g/><g/><g/><g/><g/><g/><g/><g/><g/><g/><g/><g/><g/><g/></svg>