<?xml version="1.0" ?><svg enable-background="new 0 0 24 24" id="Layer_1" version="1.1" viewBox="0 0 24 24" xml:space="preserve" xmlns="http://www.w3.org/2000/svg" xmlns:xlink="http://www.w3.org/1999/xlink"><path d="M22,3H2C0.8974609,3,0,3.8969727,0,5v14c0,1.1030273,0.8974609,2,2,2h20c1.1025391,0,2-0.8969727,2-2V5  C24,3.8969727,23.1025391,3,22,3z M10.5380859,16.0068359c-0.2626953,0-0.5253906-0.0996094-0.7255983-0.2993164  l-2.9814329-2.9814453c-0.3994141-0.4003906-0.3994141-1.0517578,0-1.4516602l2.9814329-2.9814453  c0.3994265-0.3989258,1.0507936-0.4003906,1.4521608-0.0004883L11.7841797,8.8125l-0.7070313,0.7070313L10.5576172,9  l-3.0195313,2.980957L10.5195313,15l3.0185547-2.980957l-1.3222656-1.3603516l0.7070313-0.7070313l1.3222656,1.3222656  C14.4394531,11.4672852,14.5458984,11.7255859,14.5458984,12s-0.1064453,0.5327148-0.3007813,0.7265625l-2.9804688,2.9804688  C11.0644531,15.9067383,10.8017578,16.0068359,10.5380859,16.0068359z M17.1679688,12.7265625l-2.9804811,2.9804688  c-0.2001829,0.199707-0.4628782,0.2998047-0.7265501,0.2998047c-0.2626953,0-0.5253906-0.0996094-0.7255859-0.2993164  l-0.5058594-0.5063477l0.7070313-0.7070313L13.4423828,15l3.0185547-2.980957L13.4804688,9l-3.0185547,2.980957l1.3115234,1.3496094  l-0.7070313,0.7070313l-1.3115234-1.3115234C9.5605469,12.5327148,9.4541016,12.2744141,9.4541016,12  s0.1064453-0.5327148,0.3007813-0.7265625l2.9804688-2.9804688c0.3994141-0.3989258,1.0507813-0.4003906,1.452136-0.0004883  l2.9804811,2.9814453C17.3623047,11.4672852,17.46875,11.7255859,17.46875,12S17.3623047,12.5327148,17.1679688,12.7265625z" fill="#303C42"/><g/><g/><g/><g/><g/><g/><g/><g/><g/><g/><g/><g/><g/><g/><g/></svg>