<?xml version="1.0" ?><svg enable-background="new 0 0 24 24" id="Layer_1" version="1.1" viewBox="0 0 24 24" xml:space="preserve" xmlns="http://www.w3.org/2000/svg" xmlns:xlink="http://www.w3.org/1999/xlink"><g><path d="M22,3H2C0.8969727,3,0,3.8969727,0,5v14c0,1.1030273,0.8969727,2,2,2h20c1.1030273,0,2-0.8969727,2-2V5   C24,3.8969727,23.1030273,3,22,3z M13.9746094,15h-0.5512695l-0.4301758,2.5820313C12.953125,17.8232422,12.7446289,18,12.5,18   h-2.4995117c-0.2851563,0-0.5571289-0.121582-0.746582-0.3334961C9.0894165,17.4832764,9.0164795,17.2436523,9.0166016,17   H7.0063477c-0.3041992,0-0.5888672-0.1347656-0.7807617-0.3691406c-0.1899414-0.2324219-0.2651367-0.5341797-0.2060547-0.828125   l1.3295898-8.9492188C7.421875,6.3666992,7.8496094,6,8.3447266,6h4.6245117c1.3491211,0,2.5097046,0.8867188,2.8886108,2.1437378   C17.1138306,8.5233154,18,9.6714478,18,11C18,13.2055664,16.1943359,15,13.9746094,15z" fill="#303C42"/><path d="M15.5463867,8.0561523C15.3632813,8.0214844,15.175293,8,14.9814453,8h-4.0849609   c-0.5107422,0-0.9379883,0.3813477-0.9941406,0.8862305l-0.3984375,3.5581055   c-0.015625,0.1416016,0.0292969,0.2827148,0.1245117,0.3891602C9.7231445,12.9394531,9.8588867,13,10.0009766,13h1.9560547   C14.1865234,13,16,11.2055664,16,9c0-0.1865234-0.0219727-0.3676758-0.0546875-0.5439453   C15.9072266,8.2529297,15.7490234,8.0942383,15.5463867,8.0561523z" fill="#303C42"/></g><g/><g/><g/><g/><g/><g/><g/><g/><g/><g/><g/><g/><g/><g/><g/></svg>