<?xml version="1.0" ?><svg height="64px" id="Layer_1" style="enable-background:new 0 0 64 64;" version="1.1" viewBox="0 0 64 64" width="64px" xml:space="preserve" xmlns="http://www.w3.org/2000/svg" xmlns:xlink="http://www.w3.org/1999/xlink"><path d="M46.612,12.356C44.97,3.646,34.728,0.612,29.398,2.572c-13.534,4.977-11.155,18.212-7.87,22.793s12.004,8.2,18.402,4.468  C46.33,26.1,48.254,21.066,46.612,12.356z M34.664,22.026c0.17,0.114,3.114,5.09,3.114,5.09l-1.755,0.623  c0,0-2.322-4.978-2.718-5.035c-0.396-0.056-0.85,0.453-0.736,0.622s2.264,4.58,2.264,4.58s-2.322,0.17-2.605-0.056  c-0.284-0.225-1.7-2.883-1.926-2.996s-1.36,0.68-1.36,0.68s1.473,2.205,1.19,2.318c-0.283,0.113-5.04-0.68-7.418-4.41  S18.81,9.414,28.152,4.89C30.8,3.608,36.93,3.42,40.95,6.756c4.02,3.337,4.02,10.972,3.68,10.86c-0.34-0.114-2.66-5.09-3.51-5.26  s-0.907,0.508-0.737,0.678c0.17,0.17,3.398,5.825,3.398,6.165s-0.34,1.81-0.51,1.81s-3.34-5.712-3.793-5.77  c-0.453-0.055-0.793,1.076-0.68,1.245c0.113,0.17,3.68,5.373,3.624,5.995c-0.056,0.622-1.075,1.866-1.245,1.753  c-0.17-0.113-3-5.316-3.398-5.373c-0.396-0.057-0.963,0.452-0.68,0.68c0.283,0.225,3.34,5.54,3.228,5.71  c-0.113,0.17-1.642,1.076-1.642,1.076s-2.548-4.75-2.888-4.864c-0.338-0.113-1.3,0.452-1.13,0.565L34.664,22.026z M29.454,7.153  c-0.51,0-1.472,0.566-3.058,2.32c-1.585,1.752-1.982,3.28-1.982,3.62s0.906,0.565,1.19,0.565c0.282,0,0.395-1.188,1.47-2.828  c1.077-1.64,3.06-2.375,3.06-2.375S29.784,7.153,29.454,7.153z M52.784,31.416c-4.587-0.51-14.78,1.584-16.308,11.03  c-1.53,9.444,2.152,15.156,9.173,18.55C52.67,64.39,63.825,58.96,63.995,48.1c0.17-10.858-5.133-16.01-11.212-16.684L52.784,31.416z   M61.051,46.743c0,0-0.225,2.997-0.565,2.6c-0.34-0.395-2.888-4.58-3.114-4.636c-0.226-0.057-0.792,0.848-0.792,0.848  s3.51,4.864,3.454,5.26c-0.057,0.396-1.19,2.036-1.19,2.036s-2.83-5.428-3.17-5.485c-0.34-0.057-0.85,0.51-0.793,0.735  c0.056,0.226,3.51,5.316,3.227,5.77c-0.283,0.45-0.85,1.526-1.076,1.356c-0.226-0.17-2.887-5.26-3.17-5.26  c-0.283,0-0.963,0.565-0.85,0.848c0.114,0.283,3.4,4.977,3.23,5.316c-0.17,0.34-1.36,0.962-1.53,0.792  c-0.17-0.17-2.718-4.75-3.058-4.807s-0.85,0.452-0.85,0.452s2.89,5.034,2.606,5.26c-0.283,0.226-2.04,0.34-2.04,0.34  s-2.434-4.243-2.774-4.412c-0.34-0.17-0.793,0.396-0.793,0.68c0,0.282,2.606,3.788,2.323,3.788c-0.283,0-1.53,0.057-1.87-0.17  c-0.34-0.226-1.868-2.997-2.32-3.11c-0.454-0.114-0.964,0.565-0.85,0.79c0.113,0.227,1.416,2.207,1.246,2.207  c-0.17,0-4.248-0.735-6.57-3.96c-2.322-3.223-2.718-10.8,0.226-15.44c2.945-4.637,9.4-6.447,14.043-5.146  c3.137,0.88,6.284,4.468,6.907,6.844c0.623,2.375,0.283,4.41,0.283,4.41s-1.585-3.11-1.925-3.166c-0.34-0.057-0.906,0.51-0.85,0.68  c0.058,0.17,2.606,4.58,2.606,4.58L61.051,46.743z M47.576,36.223c-0.566,0.227-1.87,0.906-3.737,2.602s-2.548,3.45-2.548,3.79  c0,0.338,0.793,0.678,1.076,0.62c0.283-0.055,0.68-1.64,2.208-3.166c1.53-1.528,3.567-2.49,3.68-2.66  C48.368,37.241,47.908,36.089,47.576,36.223L47.576,36.223z M14.563,31.813C3.972,32.037-0.614,41.086,0.066,47.872  s6.4,12.896,13.987,13.63c7.588,0.736,16.478-7.352,14.893-17.25c-1.587-9.896-9.32-12.55-14.384-12.44L14.563,31.813z M25.83,47.59  c0,0-2.378-4.58-3.17-4.637c-0.794-0.057-0.907,0.566-0.68,0.792c0.226,0.226,3.453,4.298,3.34,4.864  c-0.113,0.564-0.34,1.3-0.51,1.3s-2.945-4.355-3.34-4.468c-0.397-0.113-0.907,0.68-0.794,0.905c0.113,0.226,3.51,4.92,3.51,4.92  l-0.848,1.47c0,0-2.888-4.524-3.114-4.58c-0.227-0.057-1.02,0.62-0.85,0.79c0.17,0.17,3.342,4.638,3.172,4.978  c-0.17,0.34-0.396,0.848-0.566,0.848s-2.66-4.185-3-4.298s-0.85,0.68-0.85,0.68s3.228,4.014,2.888,4.41s-1.02,0.68-1.02,0.68  s-2.66-4.412-2.887-4.412s-0.962,0.68-0.905,0.848c0.057,0.17,3.058,4.016,2.718,4.243c-0.34,0.226-1.925,0.735-1.925,0.735  l-2.492-3.733c0,0-0.963,0.283-0.85,0.68c0.114,0.395,2.153,3.392,1.926,3.506c-0.227,0.114-1.02,0.114-1.19,0  C14.223,58,12.24,55.17,11.9,55s-1.076,0.226-1.076,0.396s2.208,2.77,1.925,2.94c-0.284,0.17-3.625-0.508-6.74-3.562  c-3.114-3.054-6.543-9.61-1.472-16.232c3.68-4.807,8.55-5.147,10.08-5.203c4.923-0.183,9.342,2.09,10.814,7.238  S25.829,47.59,25.83,47.59L25.83,47.59z M10.37,36.055c-0.395,0.17-1.81,1.414-3.057,2.715c-1.246,1.3-2.152,2.6-2.095,2.996  c0.057,0.396,1.36,0.622,1.53,0.283s0.112-0.623,1.13-2.037c1.02-1.414,3.06-2.545,3.172-2.715c0.114-0.17-0.375-1.374-0.68-1.244  L10.37,36.055z"/></svg>