<?xml version="1.0" ?><svg height="64" viewBox="0 0 64 64" width="64" xmlns="http://www.w3.org/2000/svg"><path d="m55.93 12.17c-7.29-7.77-18.78-12.09-25.79-11.01-24.97 3.84-28.21 21.27-28.68 27.34s-.34 23.63 16.94 31.25 29.76.81 38.67-10 6.15-29.82-1.14-37.58zm-7.09 40.43c-10.26 7.29-24.71 8.57-36.72-1.08s-8.3-27.95-5.8-33.28 11.4-13.18 23.75-14.85c6.58-.89 21 4 27.07 14.78s1.96 27.14-8.3 34.43zm-34.59-33c.27-.13.3-2.13 2.53-4.22a13.8 13.8 0 0 1 4.59-2.8c.1-.1 0-1.05-.31-1.21s-2.39.7-5.16 2.9-3.68 5-3.31 5.16a3.88 3.88 0 0 0 1.66.16zm28.11 23.4c.3-.47 9-21.23 9.35-22.31s-.71-1.55-1.42-1.65-26-.33-26.83-.13c-.41.1-.78.67-1.42 2s-9.18 19.09-9.55 20.55 1.76 3 3.24 3 22.61-.24 24.23-.31a2.5 2.5 0 0 0 2.4-1.15zm-24.6-.94c-.07-.37 7.35-17.86 7.72-18.06s22.25 0 22.62.17-7 17.75-7.36 17.82-22.92.45-22.98.08zm10.9 10.56c0 .1 3.24 5.13 3.24 5.13a1.32 1.32 0 0 0 1-.4c.24-.27-3-5.4-3.14-5.51s-1.07.69-1.1.79zm3.34-.62c0 .1 3.24 4.83 3.24 4.83a1.3 1.3 0 0 0 1-.41c.24-.27-3-5.09-3.13-5.2s-1.04.67-1.11.78zm-5.09.47c-.17-.07-1.19.61-1.19.61a22 22 0 0 0 2.84 3.64c.2 0 .71-.33.81-.5a24.68 24.68 0 0 0 -2.43-3.76zm8.16-1.18c.07.31 3.34 4.86 3.45 4.93a1.36 1.36 0 0 0 .87-.41 47.65 47.65 0 0 0 -3.1-5 6.42 6.42 0 0 0 -1.19.47zm4.09-1.15a5.78 5.78 0 0 0 -1.22.54s3.06 4.32 3.2 4.38a1.51 1.51 0 0 0 .92-.47 34 34 0 0 0 -2.87-4.46zm1.55-.74c-.1.37 3 4.56 3.21 4.73s.57-.21.74-.48-2.66-4.6-2.84-4.65-1.08.39-1.08.39zm3.64-2.4c-.17-.07-1.08.85-1.08.85a46.35 46.35 0 0 0 3.14 3.94 1.11 1.11 0 0 0 .71-.6c.13-.35-2.6-4.19-2.77-4.19zm1.65-2.91c-.2 0-1.08.64-1.08.64.14.41 4 5.77 4 5.77s.64-.23.67-.47a51.41 51.41 0 0 0 -3.59-5.94zm1.79-2.09c-.2 0-.91.67-.91.67.2.41 4.09 5.5 4.19 5.5a1.53 1.53 0 0 0 .67-.47 41.76 41.76 0 0 0 -3.95-5.7zm2.1-2.26c-.21 0-.85.59-.85.74a34.92 34.92 0 0 0 4 5.47c.27 0 .37-.31.54-.65s-3.49-5.56-3.69-5.59zm1.75-2.74c-.27 0-.94.73-.94.88a31.36 31.36 0 0 0 3.84 4.76c.27.1.44-.31.61-.58s-3.24-5.06-3.51-5.06zm1.49-3.47c-.24-.11-1.09.66-1.05.87a40.53 40.53 0 0 0 4.22 5.1c.2.07.5-.47.47-.71a57.68 57.68 0 0 0 -3.64-5.29zm.87-3.85c-.17-.07-.81 1.08-.81 1.08.06.47 4.45 5.17 4.45 5.17a1.66 1.66 0 0 0 .34-.71 48.53 48.53 0 0 0 -3.98-5.54zm1.48-2.6c-.17-.06-.81 1-.77 1.08a25.4 25.4 0 0 0 3.29 3.24c.13 0 .2-.27.23-.64a20.08 20.08 0 0 0 -2.71-3.68z" fill="#1d1d1b"/></svg>