<?xml version="1.0" ?><!DOCTYPE svg  PUBLIC '-//W3C//DTD SVG 1.1//EN'  'http://www.w3.org/Graphics/SVG/1.1/DTD/svg11.dtd'><svg id="Layer_1" style="enable-background:new 0 0 35 58;" version="1.1" viewBox="0 0 35 58" xml:space="preserve" xmlns="http://www.w3.org/2000/svg" xmlns:xlink="http://www.w3.org/1999/xlink"><path d="M7.866,6.437C8.073,6.188,7.99,5.731,7.617,5.565C7.244,5.399,5.212,6.437,3.844,9.301  s-1.374,4.311-1.161,4.525c0.166,0.166,0.829,0.042,1.161-0.083c0.332-0.125,0.207-1.038,0.912-3.404S7.658,6.686,7.866,6.437z   M16.324,4.818C5.917,5.482,4.756,16.982,5.793,22.379c1.037,5.397,4.561,9.175,9.288,9.05c4.727-0.125,11.817-1.495,12.024-13.119  C27.312,6.686,19.554,4.612,16.324,4.818z M16.241,30.101c-1.161,0.041-7.712-0.374-8.21-7.39  C7.534,15.695,10.81,9.301,17.195,8.886c2.732-0.178,8.5,1.038,8.541,10.835C25.778,29.519,17.402,30.059,16.241,30.101z   M34.983,5.316c-0.124-0.581-2.405-3.446-2.695-3.57c-0.29-0.125-3.98-0.125-4.188-0.041c-0.207,0.083-0.083,3.072-0.083,3.072  c-2.985-4.069-9.744-5.854-16.129-4.11C5.502,2.41,2.061,5.357,0.651,12.996c-1.41,7.639-0.207,12.662,0.58,14.987  c0.788,2.325,3.027,8.469,11.278,9.964c8.251,1.495,14.18-3.529,14.18-3.529s0.124,1.536,0.041,3.736  c-0.083,2.2-0.373,6.767-2.737,8.884c-2.363,2.117-7.007,1.661-11.154,0.747s-4.188-5.812-4.354-6.435  c-0.166-0.623-5.349-2.408-5.68-1.91C2.476,39.94,2.766,46.25,3.968,48.45c1.202,2.2,4.312,6.767,8.21,8.179  c3.898,1.411,8.334,2.366,14.346-0.415c6.012-2.782,7.505-10.254,7.754-12.662C34.527,41.144,35.107,5.897,34.983,5.316z   M32.163,36.162c-0.249-0.083-2.281-2.533-2.488-2.449c-0.207,0.083-0.166,1.329,0,1.329c0.166,0,2.28,1.785,2.363,2.076  c0.083,0.291,0.249,2.906,0.041,2.823c-0.207-0.083-2.239-3.695-2.654-3.57c-0.415,0.125-0.083,1.204-0.083,1.204  s2.695,3.238,2.695,3.404c0,0.166,0,1.287-0.207,1.245c-0.207-0.041-2.156-2.491-2.322-2.408c-0.166,0.083-0.58,0.955-0.332,1.204  s2.405,2.449,2.363,2.615c-0.041,0.166-0.124,1.162-0.29,0.913c-0.166-0.249-2.115-2.325-2.446-2.159  c-0.332,0.166-0.581,0.706-0.415,0.913c0.166,0.208,2.405,2.2,2.363,2.615s-0.166,1.536-1.244,2.906s-1.741,1.91-1.949,1.868  c-0.207-0.041-1.824-2.117-2.032-2.159c-0.207-0.041-0.663,0.498-0.539,0.706c0.124,0.207,1.783,2.242,1.783,2.242  s-0.912,0.83-1.12,0.747c-0.207-0.083-1.824-2.449-2.032-2.449c-0.207,0-0.622,0.581-0.498,0.789  c0.124,0.208,1.659,1.993,1.534,2.159c-0.124,0.166-0.954,0.415-1.078,0.374c-0.124-0.042-1.368-2.2-1.576-2.2  c-0.207,0-0.58,0.498-0.58,0.996c0,0.498,1.285,1.951,1.037,1.951s-0.705,0.249-0.829,0.125s-1.202-2.366-1.368-2.366  c-0.166,0-0.705,0.125-0.622,0.623c0.083,0.498,0.954,1.91,0.746,1.91c-0.207,0-0.58,0.166-0.705,0s-0.788-1.951-1.037-1.951  s-0.954,0.042-0.788,0.581c0.166,0.54,0.58,1.495,0.58,1.495s-1.161,0.083-1.244-0.041c-0.083-0.125-0.58-1.702-0.954-1.744  c-0.373-0.042-0.871,0.332-0.705,0.706c0.166,0.374,0.373,1.204,0.166,1.204s-4.768-0.706-7.298-3.363  c-2.529-2.657-3.69-4.484-4.271-6.642c-0.58-2.159-0.041-3.446,0.249-3.446s2.985,0.789,2.985,0.913s0.829,5.189,3.441,6.31  s5.349,1.536,8.707,1.495c3.359-0.041,5.1-1.245,6.219-3.031c1.12-1.785,1.7-2.657,1.949-8.428c0.249-5.771,0.663-8.843,0.332-9.05  c-0.332-0.207-0.912,0.249-0.995,0.54c-0.083,0.291-5.556,6.31-12.812,5.646S3.761,28.98,2.476,25.991  c-1.285-2.989-1.741-8.137-0.539-13.659C3.139,6.811,6.539,2.991,12.261,1.704s11.776,0.623,13.683,2.449  c1.907,1.827,2.861,3.363,3.276,2.947c0.236-0.237,0-4.151,0.124-4.151c0.124,0,2.737,0,2.82,0.332  c0.083,0.332-0.166,5.148-0.166,5.148s-1.285-1.619-1.534-1.453c-0.249,0.166-0.498,0.913-0.332,1.038  c0.166,0.125,1.783,1.661,1.783,1.827c0,0.166,0.207,1.827,0.041,1.744c-0.166-0.083-2.198-1.951-2.363-1.827  c-0.166,0.125-0.29,0.996-0.041,1.121c0.249,0.125,2.446,2.076,2.446,2.076s0.249,2.906,0.124,2.906s-2.363-2.74-2.571-2.574  c-0.207,0.166-0.207,0.996,0.041,1.287c0.249,0.291,2.363,2.242,2.363,2.366c0,0.125,0.124,2.076,0,2.076  c-0.124,0-2.571-2.657-2.695-2.408c-0.124,0.249-0.166,1.079,0,1.245c0.166,0.166,2.695,2.117,2.737,2.283  c0.041,0.166,0,1.91-0.166,1.868c-0.166-0.041-1.617-1.91-1.949-1.785c-0.332,0.125-0.332,1.245-0.166,1.328  c0.166,0.083,2.405,1.951,2.405,2.242c0,0.291,0.249,2.533,0.041,2.449c-0.207-0.083-2.198-2.283-2.405-2.117  c-0.207,0.166-0.332,1.204-0.124,1.245s2.571,1.993,2.571,2.117s0.124,2.242-0.041,2.076c-0.166-0.166-2.405-2.034-2.405-2.034  s-0.124,1.079,0.041,1.329c0.166,0.249,2.322,1.744,2.322,1.91c0,0.166,0.207,1.744,0,1.661c-0.207-0.083-2.405-1.827-2.488-1.536  c-0.083,0.291-0.166,1.204,0,1.329c0.166,0.125,2.488,1.287,2.529,1.578C32.205,34.086,32.412,36.245,32.163,36.162z M27.208,47.06  c-0.187-0.062-0.498,0.623-0.435,0.81c0.062,0.187,1.244,1.308,1.244,1.308s0.311-0.623,0.373-0.872  C28.452,48.056,27.395,47.122,27.208,47.06z M27.893,45.814l1.555,1.681c0.311,0.249,0.746-0.374,0.746-0.56  c0-0.187-1.493-1.868-1.804-1.993S27.893,45.814,27.893,45.814z" style="fill:#232021;"/></svg>