<?xml version="1.0" ?><svg enable-background="new 0 0 64 64" viewBox="0 0 64 64" xmlns="http://www.w3.org/2000/svg"><path d="M49.92 43.788c-.07-14.398-.57-30.15-.713-35.78s-1.14-6.202-2.71-6.915C44.927.38 34.66-.404 25.603.238S14.94 1.986 14.193 2.59c-2.637 2.138-.142 21.027.286 34.07s.854 23.45 1.995 24.733 7.13 1.853 13.62 2.28c6.49.43 12.55.57 16.544-.427 3.992-.998 3.35-5.06 3.28-19.458zm-4.28 11.475c-.284 2.71-1.283 4.063-2.28 4.277-1 .214-17.115.285-19.61.285s-6.42.285-6.99-2.922-.926-20.456-1.283-29.865c-.357-9.41-1.925-22.31.07-23.593.77-.494 12.338-2.067 17.828-2.067s10.34.356 11.125 1.212 2.14 3.42 2.353 18.176c.215 14.754-.926 31.79-1.212 34.497zM29.598 6.415c1.33.475 2.377-.998 2.044-1.663-.332-.665-1.615-1.093-2.33-.428-.712.665-.448 1.83.287 2.09zm.855 45.807c-1.236.19-2.187 1.426-2.33 2.09-.143.666.238 2.52 2.472 2.9s3.993-1.378 3.565-3.09c-.427-1.71-2.39-2.102-3.708-1.9zm2.282 2.71c-.238 1.234-1.76.95-2.282.807-.523-.145-1.474-1.903.523-2.33.978-.21 1.997.284 1.76 1.52zm-11.837-8.317c-.523.333-.856.333-.618.903.237.57 4.468 5.892 4.848 5.417.38-.475-3.987-6.475-4.23-6.32zm1.38-6.653c-.476.19-.904.38-.904.95s7.464 8.79 7.89 8.458c.43-.332-6.373-9.653-6.987-9.408zm-.62-6.985c-.38.048-.902.713-.76 1.188.143.475 13.55 15.443 13.882 14.873.33-.57-12.78-16.104-13.122-16.06zm.856-6.557c-.38-.143-.95.475-.856.998.095.523 17.447 19.435 17.97 19.672.523.238.428-.19.428-.618 0-.427-17.227-19.934-17.542-20.052zM39.58 40.2c.19 0 .333 0 .143-.665-.19-.665-16.598-21.25-16.83-21.193-.38.095-.855.618-.712.903.144.285 17.21 20.955 17.4 20.955zM23.607 11.642c-.333.143-.808.57-.665.95.143.38 17.542 21.716 17.922 22s.475.334.665-.047c.19-.38-17.415-23.12-17.924-22.903zm6.798.95c-.428.048-.76.618-.57.855.19.238 10.554 12.877 10.934 13.067.38.19.52-.047.616-.333.095-.282-10.5-13.64-10.982-13.587zm5.04-.57c-.57 0-.81.285-.81.665 0 .38 6.514 7.983 6.847 8.078.333.095.238-.143.285-.38.047-.238-5.81-8.363-6.323-8.363zm5.324.57c.52.428.426.238.57-.143.14-.38-.79-3.194-1.57-3.28-.43-.05-.95.57-.904.76.048.19 1.38 2.234 1.902 2.66z"/></svg>