<?xml version="1.0" ?><svg enable-background="new 0 0 64 64" viewBox="0 0 64 64" xmlns="http://www.w3.org/2000/svg"><path d="M18.704 6.49c.287.048 4.492 3.316 9.033 6.343 4.54 3.027 14.72 12.398 15.103 12.542.383.144 1.386-1.153 1.625-2.355.24-1.2-.67-20.71-.62-21.24.047-.528.095-1.393-3.3-1.68-3.393-.29-14.05.047-18.065 1.104S17.318 3.27 17.318 4.04c0 .768.348 2.276 1.386 2.45zM30.46 1.396c6.74-.53 11.854.144 11.902.48.048.337.956 20.423.717 20.135-.24-.286-13.86-10.666-16.825-12.876s-6.452-5.142-6.5-5.478c-.03-.202 3.966-1.73 10.705-2.26zm-5.734 3.22c.526.144.717 0 3.49-.72 2.77-.722 9.94.095 10.61.047.668-.048 1.146-.96.62-1.394s-3.393-.386-6.404-.338-7.726 1.085-8.412 1.297c-.62.192-.43.96.096 1.105zM62.436 22.3c-1.817-7.64-4.828-10.14-9.512-15.57s-7.15-6.178-7.408-5.334c-.19.625.19 12.83.24 19.99s0 19.99.334 20.422c.334.432 2.39.288 3.585.288 1.195 0 11.518.288 12.044.048.524-.24 1.67-2.403 2.053-4.325.382-1.923.477-7.88-1.34-15.52zm.095 13.406c-.333-.144-8.266-10.427-8.935-10.043-.67.384-.574 1.25-.43 1.297.143.048 8.985 9.707 9.08 9.947.096.24-.142 2.643-.62 2.5-.478-.145-9.606-11.197-10.037-11.197s-.478.48-.287.673c.19.192 8.986 10.38 8.843 10.524s-2.485.384-3.06 0c-.573-.384-4.874-5.91-5.304-5.718-.43.19-.383 1.103-.096 1.343.287.24 4.35 4.47 4.206 4.47s-2.486-.05-2.773-.145c-.287-.097-3.346-3.94-3.632-3.797s-.717.433-.478.674c.24.24 2.724 2.93 2.39 2.98-.335.047-3.776.43-4.063 0-.287-.433-.143-15.81-.287-23.835-.143-8.025-.43-12.013-.19-12.157.42-.255 7.264 6.872 6.93 6.872s-1.244 0-1.29.288c-.05.288 1.05 1.01 1.72 1.442s3.728 3.075 4.875 5.334c1.147 2.26 1.53 4.084 1.53 4.084s-5.784-7.93-6.835-7.88c-1.052.047-.526.864-.24 1.104.288.24 7.36 8.024 7.36 8.024s1.483 4.18.814 3.508c-.667-.673-7.645-8.938-8.075-8.89-.43.048-.19.96.382 1.538.574.577 7.934 8.313 7.934 8.313s.43 1.25.527 2.548c.096 1.297.096 1.97.096 1.97s-8.077-9.85-8.46-9.85c-.382 0-.86.287-.573.624.286.336 8.984 10.33 8.984 10.33s.33 3.266-.003 3.122zM43.224 43.97c-8.507 0-23.47-.532-23.8-.383-.43.192-.48 14.608-.192 15.857.288 1.25 2.773 2.547 5.736 3.027 2.963.483 7.934 1.203 15.58-.815 7.648-2.018 12.762-5.862 16.25-9.514 3.49-3.65 6.262-7.736 5.784-8.312-.48-.577-10.85.144-19.358.144zm15.15 4.085c-.286-.384-1.624-2.547-1.958-2.258-.335.288-.478.288-.287.48.19.192 1.48 2.162 1.386 2.403-.095.24-1.147 1.73-1.386 1.442-.24-.288-2.437-3.7-2.772-3.652s-.812.384-.62.577c.19.192 2.628 3.556 2.58 3.844-.048.29-.812 1.444-1.243 1.203-.43-.24-3.632-5.96-4.015-5.862-.382.097-.908.337-.812.53.095.19 4.3 5.86 4.3 6.055 0 .192-1.337 1.586-1.672 1.442-.334-.144-4.827-7.64-5.162-7.592-.333.048-.81.336-.62.625.19.287 4.875 7.303 4.78 7.543-.096.24-1.29 1.25-1.435 1.01-.143-.24-5.735-8.506-6.213-8.602-.478-.094-1.004.53-.765.723.24.192 6.5 8.073 6.403 8.217-.094.143-2.436 1.873-2.58 1.68s-6.165-9.946-6.5-9.946c-.335 0-.43.336-.43.336s6.31 9.947 6.165 10.043c-.143.096-1.577.865-2.15.673-.575-.192-6.166-9.514-6.453-9.514s-.86.53-.62.865c.238.336 6.403 8.986 6.164 9.13-.24.144-1.72.53-2.056.288-.333-.24-5.16-7.785-5.543-7.785-.38 0-.955.432-.716.625.24.192 5.066 7.16 5.066 7.16s-1.768.384-2.055.24c-.286-.144-4.54-6.247-4.778-6.2-.24.05-.765.53-.62.626.142.098 4.396 5.528 4.06 5.528-.333 0-1.767.336-2.197.048-.43-.288-3.202-5.142-3.585-5.19-.383-.048-1.243.144-.908.53.335.383 3.632 4.708 3.25 4.708-.382 0-1.673.192-1.816 0-.142-.192-3.153-4.036-3.345-4.036-.19 0-.86.53-.62.77.238.24 2.675 2.69 2.197 2.69-.478 0-3.68-.384-5.162-.913-1.48-.53-2.82-1.297-2.82-1.297s-.095-11.388 0-12.013c.037-.242 20.934.24 25.57.144 4.636-.097 13.62-.578 13.86-.385.24.188-1.576 3.456-1.862 3.07zM15.12 35.13c-.67.24-11.56 10.633-11.614 10.907-.43 2.114 2.007 4.085 6.882 9.13s5.687 4.9 6.452 4.805c.765-.096.43-20.567.19-22.104-.238-1.538-1.24-2.98-1.91-2.74zm-.192 20.47c-.335-.53-4.062-3.412-5.783-5.142-1.72-1.73-3.728-3.892-3.537-4.565.106-.373 8.89-9.178 9.13-8.553.238.624.525 18.788.19 18.26zM11.2 42.385c-.287 0-3.263 2.973-3.49 3.46-.334.72.48 1.49.86 1.442.383-.048.67-.192.86-.96.192-.77 1.483-1.97 2.008-2.596.527-.623.05-1.344-.238-1.344zm-7.503 1.538c.67.24 3.01-2.403 6.452-6.055 3.44-3.652 19.88-20.615 20.024-21 .143-.383-.383-1.49-.908-2.065S15.216 5.53 14.69 5.24c-.527-.288-5.163 3.94-8.7 8.553-3.536 4.613-5.065 9.37-5.734 13.79-.67 4.422.096 9.083.908 11.34.812 2.26 1.99 4.805 2.533 5zM3.6 20.665c1.435-3.7 5.832-8.986 6.835-9.995s3.776-3.652 4.158-3.652c.382 0 12.57 7.833 12.665 8.265S16.553 27.73 13.925 30.42c-2.63 2.69-9.798 9.61-10.18 9.466-.597-.225-1.912-4.47-2.246-7.544-.337-3.075.666-7.977 2.1-11.677zm4.016 1.298c.717 0 1.434-1.2 2.294-2.547.86-1.345 6.118-6.727 6.452-8.025.335-1.295-1.186-1.304-1.434-1.15-.62.383-4.636 4.564-6.69 7.207-2.056 2.643-1.34 4.517-.622 4.517z"/></svg>