<?xml version="1.0" ?><svg enable-background="new 0 0 64 64" viewBox="0 0 64 64" xmlns="http://www.w3.org/2000/svg"><path d="M43.743 2.27c-7.1-3.264-14.475-2.89-20.93.372-6.453 3.263-8.734 7.84-9.772 11.095-2.764 8.67.463 14.918 4.06 22.842 3.595 7.923 12.54 27.13 15.12 27.41 2.58.28 4.886-5.5 8.573-12.68 3.688-7.18 10.88-21.725 11.986-29.65 1.106-7.924-1.937-16.13-9.036-19.39zm7.606 19.718c-.486-.28-7.4-8.6-7.816-8.67-.415-.07-1.106.07-.622.488.484.42 8.02 9.02 8.02 9.51s-.345 2.517-.69 2.238c-.346-.28-6.57-8.95-7.19-9.02-.623-.07-.83.77-.416 1.12s6.915 8.67 6.915 9.09.07 1.258-.276 1.188c-.346-.07-6.154-8.32-6.846-8.11-.692.21-.623.628-.416 1.048s6.638 8.18 6.638 8.18-.553 1.96-.968 1.82c-.415-.14-5.255-7.203-5.878-7.203s-1.176.42-.69 1.05c.483.628 6.015 7.27 5.946 7.62-.07.35-1.245 3.357-1.452 3.008-.207-.35-5.324-8.67-5.878-8.74-.553-.07-.69.07-.415.768.277.7 5.878 8.04 5.947 8.67s-.207 1.82-.69 1.4c-.485-.42-5.74-8.18-6.294-8.32-.553-.14-1.037.07-.622.628.415.56 6.43 8.113 6.223 8.533-.207.42-.277 2.168-.62 1.678-.348-.49-5.465-8.11-5.95-8.11s-1.244.42-.69.91c.553.49 6.154 7.76 6.016 8.11s-.622 2.17-1.037 1.75c-.416-.42-4.703-6.715-5.256-6.855-.553-.14-1.106.28-.69.98.414.698 5.53 6.502 5.323 6.922-.207.42.138 2.238-.83 1.468s-4.495-6.014-5.255-6.014c-.76 0-1.106.56-.69 1.12.414.56 5.116 6.293 5.116 6.293s-.485 1.468-.692 1.26-4.218-6.154-4.91-6.224-.968.21-.76.63c.206.42 4.978 5.942 4.91 6.5-.07.56-.07 2.798-.762 1.96s-4.08-4.896-4.495-4.826c-.415.07-.9.14-.484.84.415.698 4.287 4.544 4.15 5.034-.14.49-.554 1.33-.83 1.26-.278-.07-3.182-4.197-3.735-4.057-.552.14-.62.28-.483.84.138.56 3.596 3.916 3.457 4.335-.138.42-.346 1.19-.76.7-.416-.49-2.698-3.357-3.044-3.357s-1.036.35-.62.77 3.456 3.775 3.25 4.125c-.208.35-.9 2.028-1.522 1.4S22.79 41.357 18.78 33.735s-6.43-12.936-4.77-18.67 4.84-8.46 6.36-9.44c3.42-2.2 7.676-4.265 13.485-4.056s9.058 1.887 9.888 2.376c.83.49.553.98.76 1.19.208.21 5.187 5.943 5.602 6.222s.76 2.726.207 2.237c-.553-.49-7.468-9.02-8.436-9.09-.968-.07-1.037.84-.622 1.05.415.21 9.197 9.09 9.68 9.928.485.84.692 3.846.07 2.937s-7.122-9.23-8.02-9.72c-.9-.49-1.177.84-.692 1.12.484.28 8.505 9.65 8.85 10.348.346.7.69 2.098.207 1.818zM19.4 9.75c-1.383.35-4.08 4.476-4.495 7.903-.415 3.426.855 6.936 1.52 7.272.278.14.9.21 1.038-.63.138-.838-1.314-4.684-1.245-6.852s2.905-5.804 3.666-6.363.9-1.68-.483-1.33zm8.85 1.19c-2.834 2.238-2.557 6.084-.898 7.972s6.016 2.657 7.814 1.12c1.797-1.54 2.903-5.315 1.105-7.903-1.798-2.59-5.617-3.09-8.02-1.19zm4.357 8.11c-1.868.56-2.836-.908-3.18-2.866-.348-1.958.83-2.168 1.934-2.727 1.604-.81 3.734.21 4.08 1.678.346 1.47-.968 3.357-2.835 3.916z"/></svg>