<?xml version="1.0" ?><svg height="64px" id="Layer_1" style="enable-background:new 0 0 64 64;" version="1.1" viewBox="0 0 64 64" width="64px" xml:space="preserve" xmlns="http://www.w3.org/2000/svg" xmlns:xlink="http://www.w3.org/1999/xlink"><path d="M59.415,20.59c-2.174-8.02-6.412-10.566-13.422-13.87c-7.01-3.306-17.66-2.927-23.474-1.464S10.78,9.916,6.814,15.822  c-3.967,5.906-3.37,8.67-1.467,16.364s10.108,14.196,10.108,14.196s-1.793,5.906-2.337,8.182c-0.543,2.276,0.543,3.143,2.445,2.98  c1.902-0.163,11.465-6.448,11.465-6.448s5.325,0.92,14.02-0.434c8.693-1.354,10.595-5.04,15.05-9.428S61.588,28.61,59.415,20.59z   M48.928,32.673c0.163,0.163,6.14,4.93,6.14,4.93L53.6,39.88c0,0-5.76-4.768-6.03-4.714c-0.273,0.054-0.653,1.084-0.653,1.084  s5.76,4.172,5.543,4.552c-0.217,0.38-1.902,1.626-1.902,1.626l-4.673-3.74c0,0-1.14,0.49-1.032,0.76c0.11,0.27,5.162,3.575,5,3.738  c-0.164,0.163-2.772,1.517-2.772,1.517l-4.455-3.522c0,0-1.304,0.705-1.087,1.03c0.217,0.325,4.184,3.09,3.804,3.25  c-0.38,0.164-3.26,1.085-3.26,1.085s-2.934-2.763-3.152-2.818c-0.217-0.054-0.978,0.488-0.924,0.705  c0.054,0.217,2.88,2.547,2.717,2.655c-0.163,0.11-3.912,1.517-8.368,1.03c-4.456-0.488-5.76-1.084-6.684-0.975  c-0.923,0.108-8.802,7.207-9.563,6.665c-0.22-0.157,2.554-7.098,2.337-7.315s-3.804-2.167-8.314-8.778S4.588,24.6,6.38,19.398  S17.358,7.858,23.01,6.665s13.15-1.788,21.138,1.03c7.988,2.817,11.41,7.206,12.933,10.24c1.52,3.035,1.63,8.29,1.63,8.29  s-6.793-5.85-7.12-5.743c-0.325,0.108-0.38,0.975-0.216,1.138c0.163,0.163,7.227,5.58,7.227,5.852c0,0.27-0.053,2.818-0.108,2.655  c-0.054-0.163-6.9-6.07-7.064-6.07c-0.163,0-0.87,0.65-0.543,1.03c0.326,0.38,7.28,5.907,7.28,6.34c0,0.434-0.65,2.493-0.705,2.33  c-0.054-0.162-6.684-5.85-7.01-5.85c-0.326,0-0.76,0.812-0.598,1.03c0.163,0.216,7.01,5.418,7.01,5.688s-1.25,2.005-1.25,2.005  s-5.706-4.877-5.923-4.877c-0.22,0-0.925,0.758-0.762,0.92L48.928,32.673z M56.698,21.295c0,0,0.217-0.433,0.217-0.758  s-5.923-5.31-5.923-5.31c-0.326,0.163-0.76,1.192-0.543,1.41C50.666,16.851,56.697,21.295,56.698,21.295L56.698,21.295z   M17.358,11.865c-0.653,0.272-3.48,1.79-5.272,3.848c-1.793,2.06-2.88,4.714-2.99,5.04c-0.108,0.324,0.98,0.65,1.196,0.595  c0.217-0.054,0.49-1.572,2.663-4.172s5-3.793,5.108-4.172C18.173,12.624,17.708,11.721,17.358,11.865L17.358,11.865z M28.878,1.355  c0.216-0.054,0.488-0.596-0.164-1.03s-6.505,1.11-6.684,1.192c-0.598,0.27-0.598,1.084-0.11,1.354c0.49,0.273,6.74-1.46,6.957-1.515  L28.878,1.355z M39.418,1.842c0.38,0.054,0.218-1.463,0.055-1.626S33.823,0,33.823,0c-0.273,0.217-0.436,1.084-0.164,1.3  C33.929,1.517,39.037,1.788,39.418,1.842L39.418,1.842z M46.591,3.034c0.218-0.054,0.38-0.975,0.273-1.192  c-0.11-0.217-3.858-1.084-3.858-1.084c-0.326,0.054-0.435,1.138-0.272,1.355C42.897,2.33,46.374,3.089,46.591,3.034L46.591,3.034z   M53.385,7.044c0.272-0.054,0.435-0.542,0.326-0.975c-0.11-0.435-2.837-2.816-3.206-2.71c-0.38,0.11-0.706,0.813-0.652,1.192  C49.907,4.931,53.113,7.097,53.385,7.044L53.385,7.044z M58.71,12.408c1.086,1.03,1.466,3.034,1.63,3.09  c0.162,0.053,0.868-0.326,0.868-0.65s-0.49-1.898-1.195-3.09c-0.706-1.192-1.496-1.788-1.74-1.788c-0.597,0-1.03,0.704-1.14,0.975  C57.023,11.215,57.623,11.379,58.71,12.408L58.71,12.408z M63.436,24.112c0.435-0.054-0.38-4.768-0.543-4.93  c-0.163-0.164-1.14,0-1.14,0c-0.164,0.324,0.325,4.442,0.325,4.82C62.078,24.382,63.002,24.166,63.436,24.112z M63.762,28.339  c-0.163-0.055-1.195,0.053-1.195,0.053c-0.163,0.38,0,4.552,0,5.04s1.032,0.108,1.304-0.11c0.273-0.216,0.055-4.93-0.108-4.984  L63.762,28.339z M60.23,39.39c0,0.38,0.706,0.433,1.087,0.38c0.38-0.055,2.12-3.415,2.12-3.415l-0.87-0.542  C62.295,35.977,60.23,39.011,60.23,39.39z M58.22,42.695c-0.217,0.163-3.152,3.414-3.37,3.847c-0.216,0.433,0.544,0.65,0.816,0.65  s3.478-3.576,3.423-3.793c-0.055-0.215-0.87-0.703-0.87-0.703L58.22,42.695z M45.233,52.56c-0.49,0.324,0.163,0.974,0.49,1.19  c0.325,0.218,5.324-2.49,5.38-2.762c0.053-0.27-0.38-1.192-0.38-1.192c-0.165,0.27-5,2.438-5.49,2.763V52.56z M40.886,53.86  c-0.38,0.054-4.293,0.596-4.673,0.758c-0.38,0.163-0.217,1.246-0.217,1.246l5.27-0.867C41.266,54.997,41.213,53.813,40.886,53.86z   M30.072,54.673c-0.38-0.054-1.687-0.144-2.01-0.11c-0.98,0.11-0.544,1.247-0.544,1.247s2.5,0.108,2.826-0.054  C30.67,55.594,30.454,54.726,30.072,54.673z M23.986,56.406c-0.217,0.054-4.293,2.493-4.727,2.926  c-0.436,0.433,0.325,1.138,0.597,1.192s4.347-2.763,4.62-3.035C24.746,57.219,24.203,56.351,23.986,56.406L23.986,56.406z   M14.912,60.578c0,0-1.358,0.76-2.445,1.03s-2.065-0.217-2.228-0.217c-0.164,0-0.49,1.518-0.49,1.518s0.815,0.163,1.685,0.054  c0.87-0.11,3.695-0.76,3.858-1.138c0.162-0.378-0.218-1.246-0.38-1.246V60.578z M9.478,52.126c-0.272,0-1.95,6.722-1.902,7.152  c0.054,0.488,0.978,0.38,1.413,0.27c0.434-0.108,1.847-6.826,1.847-7.15s-1.087-0.272-1.36-0.272H9.478z M11.218,49.146  c0.488-0.163,0.705-2.276,0.65-2.493c-0.053-0.217-0.868-0.38-1.25-0.27c-0.38,0.107-0.542,2.058-0.597,2.437  C10.021,48.82,10.729,49.308,11.218,49.146z M8.608,43.239c-0.162-0.218-0.488-0.597-1.683-1.897s-1.576-2.71-1.576-2.71L3.827,39.5  c0.815,2.44,3.804,4.878,4.13,4.986C8.282,44.594,8.771,43.456,8.608,43.239L8.608,43.239z M0.187,30.234  c-0.11,1.463,1.195,5.473,1.413,5.69c0.216,0.216,1.03-0.11,1.303-0.326c0.272-0.218-1.195-5.42-1.358-5.582s-1.36,0.217-1.36,0.217  L0.187,30.234z M2.035,18.204c0,0-0.543,0.218-1.358,3.198s-0.713,3.936-0.598,4.28c0.11,0.326,1.14,0.49,1.304,0.38  c0.163-0.11,0.163-1.084,0.326-2.763c0.163-1.68,1.195-4.498,1.25-4.714C3.013,18.368,2.035,18.205,2.035,18.204L2.035,18.204z   M4.263,15.008c0.217-0.055,0.652-0.814,1.304-2.168s2.554-3.36,2.5-3.63c-0.055-0.272-0.98-0.326-0.98-0.326s-0.488,0.434-1.9,2.06  c-1.414,1.625-2.106,2.944-2.23,3.25c-0.216,0.542,1.088,0.867,1.306,0.813L4.263,15.008z M11.163,7.638  c0.49,0.054,5.815-3.414,5.815-3.414s-0.11-1.03-0.435-1.138s-0.815,0.108-3.097,1.192s-3.315,1.842-3.315,2.113  c0,0.217,0.544,1.193,1.033,1.247H11.163z"/></svg>