<?xml version="1.0" ?><svg enable-background="new 0 0 64 64" viewBox="0 0 64 64" xmlns="http://www.w3.org/2000/svg"><path d="M63.63 29.98c-1.12-2.397-3.01-1.41-3.01-1.41s-.42-15.225-.35-18.82-1.118-5.71-2.377-6.625S47.47.87 45.93 1.01c-1.538.14-4.406.282-6.435.14-2.03-.14-7.695.07-12.452.565s-10.842-.282-16.158.353S5.22 5.31 5.15 7s.56 23.402.56 23.402-3.105-2.675-3.848-1.974c-3.288 3.1-1.54 7.683.07 8.95s9.164 5.78 9.164 5.78.28 7.472.7 10.996c.42 3.524.14 4.722 3.707 7.4 3.568 2.68 8.324 2.89 11.542 1.904s4.477-3.383 5.037-6.344c.56-2.96.63-10.784.63-10.784.7.634 2.798.846 2.798.846s-.28 10.22.77 13.11 3.147 3.313 5.455 3.383 5.456.42 8.954-2.257c3.496-2.678 4.475-4.652 4.685-6.978s-1.19-11.066-1.05-11.77 1.19-.776 2.17-1.552c.98-.775 3.148-1.903 4.897-4.16s3.355-4.58 2.236-6.975zM7.14 5.555c.77-1.128 1.68-1.903 6.156-2.044s9.234.39 12.872.037 7.52-1.198 9.863-1.022c2.344.176 7.66.352 10.354.317 2.693-.035 9.094.6 10.493 1.656s2.028 3.24 1.993 6.554c-.035 3.313.315 10.925.385 13.744.07 2.82.175 4.053-.035 4.37-.21.317-2.273 2.22-2.378 2.01-.106-.212-1.085-15.578-1.435-18.256-.35-2.678-.665-5.25-3.323-5.71-2.658-.457-9.304-.633-16.684-.457-7.38.176-14.375.493-18.118.81s-6.575.635-7.205 2.68.07 8.175.07 13.532.49 9.092.21 9.198c-.28.106-2.798-1.656-3.008-1.833-.25-.208-.28-14.097-.456-16.105-.174-2.01-.524-8.353.245-9.48zM34.95 39.39s-.56-.53-2.974-1.94c-2.413-1.41-2.938-1.41-3.917-1.303-.98.106-5.563.07-8.64-.106s-5.457-1.48-6.297-1.866c0 0 .455-16.352.7-18.396.245-2.044 1.224-4.123 2.623-4.58S27.92 9.503 31.276 9.22s14.236-.88 16.72-.88c2.483 0 4.72.105 5.386 1.41s1.19 7.012 1.434 12.58c.245 5.568.385 9.62.28 9.868-.105.247-4.022 2.608-6.995 3.1s-5.454.353-7.8.036c-2.34-.317-3.705-.352-4.265-.14-.56.21-1.084.845-1.154 1.373s.07 2.82.07 2.82zm-3.92 4.474c-1.993-1.27-2.028-1.586-2.377-1.374-.35.21-.595.493-.49.67s.245.634.245.634-1.084-1.092-1.434-.987c-.35.106-.665.458-.595.6.07.14 1.747 1.937 2.062 2.184.315.25.63.74.665.954.035.21-.105 1.374-.175 1.27s-2.623-3.807-3.113-3.807c-.49 0-.805.458-.736.74.07.282 4.057 4.758 4.092 5.04.035.282.14 1.974-.07 1.833-.21-.142-3.777-5.146-4.302-5.146s-.7.6-.63.81c.07.212 4.722 5.604 4.827 5.886.106.282.28 1.938-.034 1.692s-4.372-5.64-4.687-5.498c-.316.14-.77 1.198-.526 1.48.245.282 5.072 5.18 5.107 5.357.036.178-.384 2.328-.56 2.15s-4.44-6.024-4.72-5.954c-.28.07-.596 1.128-.42 1.374.174.246 4.126 5.074 4.126 5.39 0 .318-.28.706-.49.424s-4.057-4.687-4.232-4.652c-.175.035-.77.564-.63.846.14.282 3.847 4.16 3.812 4.37-.035.21-.175.388-.455.247-.28-.14-3.95-3.912-4.09-3.877-.14.035-.875.6-.7.88.174.283 3.776 3.138 3.322 3.384s-1.68.282-1.82 0-2.063-2.714-2.412-2.714c-.35 0-1.048.247-.873.53s1.68 1.867 1.504 1.937c-.173.07-2.9-.916-4.3-2.044s-2.623-3.24-2.59-5.954.667-7.366.946-9.198.175-2.115-.385-2.432c-.56-.317-5.14-2.573-7.8-4.3S2.244 33.26 1.964 32.66s-.07-2.75.21-2.926c.148-.093 4.477 3.454 6.68 4.476 2.204 1.022 6.156 2.82 8.464 3.1s6.995.635 8.85.46 3.462-.212 3.916.034c.455.247 2.763 3.207 5.84 3.383 3.08.176 6.647-1.198 7.276-1.233.63-.035 1.047.423.767 1.304-.28.88-2.064 3.242-5.316 3.63-3.25.386-5.626.245-7.62-1.024zm30.606-10.572c-1.504 2.326-3.498 4.546-6.016 5.92s-3.777 1.94-4.267 2.01-.77.07-.874.317c-.107.245.103 2.29.103 2.29s-1.05-1.34-1.364-1.058c-.316.282-.35.493-.176.775s1.82 2.36 1.82 2.537.314 1.797.174 1.727c-.14-.07-1.61-2.395-1.96-2.395-.35 0-.595 1.022-.455 1.374.14.35 2.343 2.783 2.378 3.206.036.423.246 3.066.07 2.855-.174-.21-2.692-4.44-3.077-4.052-.385.387-.63.67-.42.986.21.317 3.183 4.123 3.288 4.722.106.6-.664 1.515-.91 1.34-.243-.177-2.55-4.3-2.97-4.44-.42-.142-1.014.492-.77.704.246.21 2.87 4.44 2.87 4.652 0 .21-.84 1.27-1.015.987s-2.483-4.72-2.938-4.793-.77.634-.77.952 2.8 4.334 2.59 4.51-.84.564-1.085.247c-.245-.317-2.064-3.49-2.623-3.56s-1.155.494-.945.67 2.938 3.314 2.553 3.35c-.386.034-1.925.28-2.205.07-.28-.212-1.994-3.278-2.308-3.314-.315-.035-.944.282-.874.6.07.316 1.54 2.325 1.26 2.5-.28.177-2.1-.457-2.73-.774-.63-.318-.907-.706-1.117-3.666s-.21-7.19-.21-7.19 3.113.283 5.316-1.056c2.204-1.34 3.812-4.3 3.777-5.463-.035-1.163-.98-2.01-1.82-2.15s-2.902.458-3.776.6c-.873.14-2.762.774-3.74.457-.24-.078.07-3.383.244-3.454.175-.07 4.092.952 7.205.81 3.112-.14 7.17-.633 10.177-2.466s6.715-4.758 7.275-4.722c.557.032 1.817 1.054.313 3.38zm-42.777 5.71c-1.436-.353-3.45-1.5-3.92-1.13-.98.776-.21 1.34.77 1.657.98.315 4.267.67 4.72.67s1.016-.39.77-.636c-.243-.247-.907-.212-2.342-.564zM7.56 9.044c-.07.952.468 1.714.84 1.938.174.106.454.21.7-.317.244-.53-.316-3.242.104-3.84s3.113-.353 3.638-.46.315-.528-.07-.986c-.385-.46-2.1-.494-3.917-.036s-1.225 2.75-1.295 3.7zm19.447 8.74c-2.31-1.374-5.236-1.285-7.45-.247-3.534 1.656-4.618 5.99-4.023 8.846.595 2.855 2.238 5.004 5.35 6.52 3.114 1.515 5.842 1.41 8.22-.634 2.378-2.045 2.623-6.027 2.1-8.635s-1.89-4.476-4.198-5.85zm1.608 7.436c-.455 3.35-2.553 5.252-5.107 5.428s-4.336-1.233-5.63-2.643c-1.294-1.41-1.61-5.71 1.294-8.317 1.39-1.25 3.603-2.044 6.05-1.128 2.45.917 3.85 3.313 3.394 6.66zm14.9 8.39c4.127-.46 5.91-2.045 7.345-5.252s.804-5.744-.21-7.33c-1.014-1.586-3.288-4.934-7.87-4.9-4.582.036-5.977 1.237-7.765 2.997-1.504 1.48-2.378 3.912-2.134 4.863.246.952.386 3.63 2.834 6.38 2.45 2.747 3.674 3.7 7.8 3.24zm-7.73-13.11c1.13-1.205 3.358-3.032 5.946-2.96s4.968 1.444 6.017 2.96 1.47 3.91.525 6.06c-.944 2.15-2.973 4.37-6.75 4.3-3.777-.07-5.176-2.255-6.366-5.004-1.19-2.75.033-4.723.628-5.357zm-15.425-.39c-1.19.212-2.273 2.15-2.658 2.96-.385.812-.07 1.69.28 1.904.804.493 1.014-1.55 1.434-2.185.42-.636 1.678-1.376 1.958-1.8.28-.422.175-1.09-1.015-.88zm17.768 4.054c-.034-.6.596-1.868 1.575-2.573.98-.703.804-1.302 0-1.41-.804-.104-1.84.66-2.413 1.8-1.084 2.15-.63 3.347 0 3.417.63.072.874-.633.84-1.232zM52.53 5.71c.513.093 2.472.21 2.868.28.396.07.77 1.434.933 1.975.165.54 1.098.493 1.378.188s.21-1.81-1.166-3.007c-1.375-1.198-4.4-1.07-4.616-.822-.35.398.093 1.29.606 1.385z"/></svg>