<?xml version="1.0" ?><svg id="Layer_1" style="enable-background:new 0 0 62 62;" version="1.1" viewBox="0 0 62 62" xml:space="preserve" xmlns="http://www.w3.org/2000/svg" xmlns:xlink="http://www.w3.org/1999/xlink"><path d="M53.049,9.165c-6.88-7.274-16.315-9.42-23.196-9.141C22.579,0.318,16.583,2.677,10.49,7.297  c-6.094,4.62-9.338,12.679-9.141,21.526C1.545,37.669,2.528,45.04,9.9,53.297s20.641,10.615,29.88,7.175  c9.239-3.44,16.218-10.026,19.265-19.167C62.695,30.354,59.929,16.438,53.049,9.165z M55.801,40.372  c-3.293,6.34-7.077,11.009-12.581,14.252c-5.504,3.244-12.925,4.57-19.068,2.85c-6.143-1.72-12.483-6.045-16.562-12.925  c-4.079-6.88-3.833-14.252-3.293-19.756c0.541-5.504,2.359-9.78,5.947-13.761c3.588-3.981,10.37-7.617,19.511-8.649  c7.284-0.822,13.564,1.917,18.528,5.701c4.964,3.784,6.88,7.421,6.88,7.421s-3.538-1.13-3.735-0.885  c-0.197,0.246-0.639,1.327-0.197,1.474c0.442,0.147,4.423,1.13,4.718,1.327c0.295,0.197,0.934,2.113,0.688,1.966  c-0.246-0.147-4.079-1.671-4.374-1.622c-0.295,0.049-0.393,1.327-0.098,1.425c0.295,0.098,4.62,1.376,4.964,1.72  c0.344,0.344,0.393,1.327,0.393,1.327s-4.767-1.474-4.915-1.474s0.049,1.278,0.049,1.278s5.111,1.523,5.111,1.671  c0,0.147,0.147,1.179,0.147,1.179s-4.423-1.818-4.767-1.622c-0.344,0.197-0.541,0.786-0.098,0.934  c0.442,0.147,4.718,2.212,4.865,2.457C58.062,26.906,59.094,34.032,55.801,40.372z M10.784,13.882  c0.246-0.049,0.442-0.688,2.506-2.506c2.064-1.818,4.03-2.506,4.177-2.556c0.147-0.049,0.049-1.032-0.491-1.179  c-0.541-0.147-1.524,0.59-4.03,2.457S10.006,12.83,9.9,13.096C9.801,13.342,10.539,13.932,10.784,13.882z M47.84,26.611  c-0.197-0.295-3.735-2.457-3.391-6.192c0.344-3.735,3.882-5.111,4.374-5.603c0.491-0.491-0.295-2.408-4.816-5.062  C39.485,7.1,34.177,6.56,25.675,8.133c-8.502,1.573-12.286,5.16-14.449,7.323c-2.162,2.162-2.579,4.05-2.703,4.423  c-0.344,1.032,0.59,1.671,1.278,1.868c0.688,0.197,5.947-0.049,6.143-0.049c0.197,0,0.295,1.474,0.246,1.72  c-0.049,0.246-1.179,0.393-1.376,0.786c-0.197,0.393,9.239,16.758,9.387,17.102c0.147,0.344,1.032,1.032,1.573,0.983  c0.541-0.049,4.767-8.305,5.013-8.748c0.246-0.442-3.194-9.141-3.686-9.534c-0.491-0.393-3.44-0.344-3.981-0.393  c-0.541-0.049-0.344-1.376-0.147-1.72c0.197-0.344,12.434-0.098,12.827,0c0.393,0.098,0.098,1.278,0.098,1.573  s-3.391,0.147-3.686,0.049c-0.295-0.098-0.393,1.081-0.197,1.622c0.197,0.541,6.831,14.498,7.323,15.333  c0.491,0.836,1.769,1.229,2.31,0.786C42.188,40.814,48.036,26.906,47.84,26.611z M40.468,37.325c0,0-5.603-11.058-5.111-11.058  s2.998,0.098,2.998-0.098c0-0.197,0.688-5.897-0.147-6.241c-0.836-0.344-17.348-0.442-17.545-0.098  c-0.197,0.344-0.246,6.094,0.639,6.094s3.44-0.098,3.686,0.049c0.246,0.147,2.9,6.585,2.85,6.88c-0.049,0.295-2.654,4.57-2.654,4.57  s-7.421-12.286-6.979-12.286s0.786-0.295,0.786-0.295s-0.098-5.455-0.491-5.603c-0.393-0.147-5.258,0-5.357-0.295  c0,0,5.308-6.045,14.645-7.765c9.338-1.72,17.741,2.801,17.397,3.391c-0.344,0.59-5.455,4.227-3.047,8.109  c2.408,3.883,2.9,4.227,2.9,4.374C45.038,27.201,40.468,37.325,40.468,37.325z M8.917,26.464c-2.605,0.836-0.885,9.534,1.13,14.793  c2.015,5.259,6.733,8.207,8.109,8.502c1.376,0.295,3.047-1.032,2.949-2.064c-0.098-1.032-6.34-14.252-8.109-18.233  S9.777,26.188,8.917,26.464z M18.549,47.055c-0.344,0.098-3.588-0.885-6.094-6.782s-2.457-10.075-1.917-10.419  C10.832,29.668,18.893,46.957,18.549,47.055z M32.31,37.325c-0.836-0.147-1.868,1.867-3.784,5.504s-4.669,8.797-3.342,10.026  c1.327,1.229,7.372,1.13,9.19,0.639c1.818-0.491,3.489-2.162,3.489-3.489S33.229,37.487,32.31,37.325z M33.391,45.286  c0.48-0.107,2.85,3.686,1.769,5.013c-1.081,1.327-5.258,1.818-5.357,1.474C29.705,51.429,32.949,45.384,33.391,45.286z   M52.263,26.021c-0.835,0.442-10.083,19.786-10.222,20.297c-0.147,0.54,1.327,1.425,2.605,1.376  c1.278-0.049,3.882-0.737,7.912-5.603c4.03-4.865,3.096-11.893,2.85-14.252C55.162,25.481,53.098,25.579,52.263,26.021z   M52.263,38.16c-1.229,3.096-4.325,5.504-4.816,4.767c-0.269-0.403,5.062-9.927,5.455-9.878  C53.295,33.098,53.491,35.064,52.263,38.16z" style="fill:#1D1D1B;"/></svg>