<?xml version="1.0" ?><svg enable-background="new 0 0 64 64" viewBox="0 0 64 64" xmlns="http://www.w3.org/2000/svg"><path d="M13.71 22.17c1.79 1.843 7.95 9.04 10.255 10.78s4.577 1.535 6.78.58c2.203-.955 2.89-2.968 2.65-5.082s-4.68-15.316-6.023-19.92S24.584.785 21.282.103s-7.297 2.25-9.396 3.82S7.962 7.026 7.618 9.55c-.344 2.524.688 6.174 1.824 8.118 0 0 2.478 2.66 4.267 4.503zM9.785 8.87c.21-1.33 1.136-2.456 3.44-4.127s5.61-3.888 8.02-2.967 3.58 3.718 5.506 9.858 4.957 15.42 4.92 16.238c-.032.82-3.405 2.558-4.06 2.285-.653-.273-10.29-10.028-13.11-13.098S9.302 11.906 9.784 8.87zm6.952-2.013c.757-.273.93-1.092.31-1.296-.62-.205-1.205.17-2.478.92s-3 2.564-3.064 2.9c-.138.716.344 1.16.826 1.194.482.034.585-.614 1.48-1.67s2.168-1.775 2.925-2.048zm36.65 19.477c.14-.648-.17-5.287-2.442-7.64-2.27-2.355-5.885-3.992-7.71-4.265s-2.752.715-3.75 2.762-4.135 10.652-4.37 11.94c-.62 3.376 1.17 5.9 2.098 6.037s2.822-.137 6.16-1.707c3.34-1.568 9.877-6.48 10.015-7.128zM43.24 29.47c-.242-.273-1.515-2.388-1.722-2.32-.206.068-.723.512-.55.853s1.41 1.978 1.376 2.115c-.034.136-.413.648-.654.443-.24-.203-1.308-1.772-1.617-1.772s-.963.307-.79.648 1.307 1.603 1.204 1.876c-.103.274-1.824 1.502-2.856.786-1.03-.716-1.41-1.74-1.272-2.592.16-.997 2.34-7.197 3.338-9.55.998-2.355 1.514-3.89 2.27-3.958.758-.068 3.89-.205 6.47 2.49 2.582 2.695 2.48 2.66 2.513 3.445.033.786.07 1.263-.173.956s-2.237-3.378-2.856-3.207c-.62.17-.687.92-.55 1.092s2.72 3.513 2.684 3.684c-.033.17-.928 1.056-1.135.75s-2.65-4.47-3.064-4.367-.62.785-.447 1.092c.17.307 2.89 3.786 2.65 4.025s-.93.99-1.17.75c-.24-.24-2.238-3.07-2.513-3.07-.275 0-.826.75-.654.99s2.34 2.762 2.236 2.898c-.104.136-.483.546-.69.41-.205-.137-1.79-2.662-2.03-2.662s-.86.785-.756.99 1.756 2.284 1.584 2.557c-.173.275-.586.923-.827.65zM56.9 40.965c-.24-1.978-1.48-2.08-4.783-3.172s-10.318-2.38-11.22-2.32c-1.03.068-1.892 3.07-2.27 3.923-.38.853-.93 2.115-.964 3.718s.448 2.217 2.444 4.434 6.023 6.652 7.227 7.81c1.206 1.16 2.444.956 3.58.206 1.136-.75 3.235-3.718 4.68-6.48 1.447-2.763 1.55-6.14 1.31-8.12zm-2.41 5.355c-.138-.1-4.784-5.695-5.265-5.49s-.93.647-.654.886c.277.24 5.336 5.594 5.336 5.594s-.482 1.433-.62 1.296c-.137-.136-4.61-4.98-4.99-4.912-.378.068-.79.375-.584.58.207.205 5.026 5.22 5.026 5.22s-.38.852-.482.75c-.103-.103-3.75-4.162-4.13-4.06-.38.102-.723.99-.482 1.16s3.717 3.513 3.717 3.513-.413.512-1.273.375c-.86-.136-5.23-4.332-7.537-6.48-2.307-2.15-2.96-2.56-2.892-3.514.07-.955 1.17-4.16 1.72-4.468.19-.106 6.712 1.296 7.71 1.603.998.307 1.583.648 1.583.648s-.136.99.69 2.083 3.89 2.865 3.82 3.616c-.07.75-.55 1.704-.69 1.602zm.93-2.557c-.172-.136-3.58-4.025-3.648-4.4-.022-.12 1.342.17 1.514.273.172.102 2.34 2.49 2.375 2.627.036.135-.067 1.636-.24 1.5zm-25.64-1.706c-.446.205-2.03 3.172-3.44 6.072s-5.334 9.617-5.162 10.504c.172.887 1.377 2.32 2.237 3.172.86.853 1.686 1.296 3.097 1.433s7.502.852 8.363.75c.86-.103 1.72-.444 1.927-1.127.206-.682.31-18.113-.413-19.545-.725-1.434-6.22-1.442-6.61-1.263zm4.13 9.108c-.31-.41-2.546-3.616-2.65-3.547-.102.068-.825.546-.618.99.206.442 3.27 4.365 3.27 4.604s.068 1.296 0 1.194c-.07-.102-2.48-3.616-2.857-3.343s-.723.887-.413 1.4c.31.51 3.2 3.512 3.304 3.853.103.34-.103 1.467-.103 1.467s-3.235-4.298-3.545-4.127c-.31.17-.344 1.023-.275 1.228.07.205 3.614 4.264 3.614 4.264s-.38.92-.482.82c-.103-.103-3.648-3.855-4.026-3.617s-.243 1.16.1 1.537 3.064 2.592 3.064 2.797c0 .205-.998.24-1.1.205-.104-.035-2.754-2.66-3.03-2.56-.274.103-.55.41-.378.683.172.273 1.55 1.603 1.55 1.603s-3.752-.887-4.613-1.16c-.86-.273-1.686-.785-1.617-1.57.07-.784 5.23-10.37 5.92-11.835.687-1.466 1.444-2.626 1.685-2.796.255-.18 1.55-.17 1.55.102s-.31.648.103.853c.413.204 1.514.477 1.514.68s.275 2.866.07 2.628c-.207-.24-2.03-3.036-2.34-2.83s-.793.92-.552 1.295c.24.375 2.822 3.002 2.856 3.275s.31 2.317 0 1.908zM9.718 34.553c-.413.307.067 4.783.38 5.014.274.205 1.1.136 1.272-.136.17-.27-.207-3.17-.14-3.716.07-.546.896-.102 1.343-.34.447-.24.206-.65 0-.854s-2.443-.274-2.856.033zm19.34 3.82c-.068-1.092-.033-1.433-.653-2.08s-6.745-2.116-8.638-2.73c-1.893-.614-6.883-1.876-7.502-2.15-.62-.272-2.356-.718-3.614-.17-1.72.75-1.79 3.65-1.55 5.424.243 1.774.656 6.31 1.07 7.13.412.818 2.442 3.478 3.303 3.785.86.307 1.273.136 4.37-.82 3.098-.954 11.805-4.536 12.734-5.218.93-.68.55-2.08.482-3.17zm-3.234.34c-.206.376-5.472 2.423-9.843 3.685s-5.06 1.262-5.78.785c-.724-.478-1.378-3.718-1.618-6.242-.24-2.522-.343-4.364 1.137-4.466.412-.03 8.534 2.25 11.666 2.968 3.132.717 3.89.683 4.2.99.308.306.446 1.91.24 2.284z"/></svg>