<?xml version="1.0" ?><svg enable-background="new 0 0 500 500" id="Layer_1" version="1.1" viewBox="0 0 500 500" xml:space="preserve" xmlns="http://www.w3.org/2000/svg" xmlns:xlink="http://www.w3.org/1999/xlink"><g><path d="M442.919,366.23C399.231-6.743,488.493,36.284,104.75,78.657c-40.719,1.791-54.192,45.458-45.241,79.752   c7.098,83.218,17.475,166.172,25.519,249.286c5.956,51.266,66.394,46.673,104.644,40.883   c65.659-6.643,131.355-13.383,196.962-20.601C419.346,427.773,445.798,398.973,442.919,366.23z" fill="#3F3756"/><path d="M70.762,249.619c0.586-26.827-34.027-141.591,15.998-163.647c22.397-7.725,272.498-33.167,272.498-33.167   c71.544-10.251,59.172,121.385,64.171,154.833c-96.866,10.23-252.662,34.322-349.542,44.667L70.762,249.619z" fill="#DD5E50"/><path d="M138.925,78.781c-6.283,6.565-2.494,27.884-1.262,36.731c2.484,23.297,2.415,46.809,4.933,70.137   c1.393,18.458,3.137,36.885,4.671,55.328c0.721,3.228,12.596-2.571,15.534-2.509c-0.32,1.598-1.144,2.394-2.913,2.595   c-17.263,2.068-34.523,4.17-51.8,6.122c-8.516-0.69-36.325,10.481-34.966-4.014C67.876,169.986,27.282,73.921,138.925,78.781z" fill="#CF4135"/><path d="M328.31,214.22c20.241-1.134,40.478-5.429,60.709-7.719c4.609-1.675,25.835-1.504,25.705-6.223   c-1.398-34.917-5.606-69.878-12.819-104.101c-5.429-28.363-33.211-32.481-56.481-39.634   c85.035-11.875,69.542,89.911,79.338,145.069c-0.151,10.416-32.721,7.818-41.307,10.323c-8.362,0.898-16.735,1.712-25.093,2.635   C349.944,214.082,334.038,221.118,328.31,214.22z" fill="#E47A6D"/><path d="M383.762,99.222c-0.541,31.658-47.631,31.653-48.167-0.001C336.136,67.564,383.226,67.569,383.762,99.222z" fill="#E4796C"/><path d="M72.568,252.311c15.394,245.424,18.615,200.891,244.534,179.333c34.237-3.33,129.97-0.42,123.659-65.008   c-1.998-25.665-17.331-158.998-17.331-158.998l-90.578,10.667c0.2,102.505-139.232,119.36-167.756,23.039L72.568,252.311z" fill="#BC4762"/><path d="M421.122,225.728c-0.357-4.143-1.491-8.208-1.245-12.409c-0.146-0.108-0.296-0.206-0.445-0.305v-3.981   c-97.18,8.961-247.318,32.941-344.336,43.303c2.367,44.359,9.47,88.478,12.855,132.809c-1.488,73.042,58.044,66.144,111.902,58.72   c-36.215-13.939-42.739-122.567-47.833-159.359c2.442-1.296,3.723,0.198,4.935,2.358c24.929,40.84,86.688,51.567,121.909,18.24   c-0.001-0.002,55.183-76.317,55.183-76.317c-0.272,4.051-0.947,8.053-1.636,12.055c28.273-9.986,59.517-7.372,88.877-11.776   C421.257,227.951,421.218,226.844,421.122,225.728z" fill="#A42E45"/><path d="M331.386,222.73c-1.865,109.198-164.294,109.18-166.143-0.004   C167.107,113.533,329.536,113.55,331.386,222.73z" fill="#92457C"/><path d="M233.012,438.055c225.785-29.948,206.206-2.6,188.559-224.789   C458.396,454.156,458.596,410.784,233.012,438.055z" fill="#CA647E"/><path d="M310.799,276.036c51.769-78.048-37.468-161.577-115.453-116.164   C273.761,94.698,376.599,198.829,310.799,276.036z" fill="#A76295"/><path d="M369.866,370.576c1.688,1.868,5.024,4.534,5.436,6.821C374.246,377.795,367.179,371.321,369.866,370.576z" fill="#413756"/><path d="M371.59,192.403c0.316,3.48-1.785,2.174-1.412-0.608c0.097-0.749-0.333-1.995,0.772-1.987   C372.222,189.918,371.341,191.523,371.59,192.403z" fill="#403756"/><path d="M374.96,189.839c1.173,0.667,2.056,2.098,2.431,3.943C376.3,193.141,375.344,191.591,374.96,189.839z" fill="#433855"/><path d="M103.648,204.327c0.306-1.026,0.223-2.292,0.881-3.361C107.715,197.526,104.113,209.995,103.648,204.327z" fill="#433755"/><path d="M109.681,204.36c-0.824-1.647-1.268-3.358-0.963-5.713C109.929,200.73,109.849,202.54,109.681,204.36z" fill="#423755"/><path d="M375.085,106.39c-0.494,28.904-43.488,28.9-43.977-0.001C331.602,77.486,374.596,77.491,375.085,106.39z" fill="#D1905B"/><path d="M374.348,113.23c-12.505-16.638-26.021-20.022-43.046-7.254C332.521,71.715,384.246,80.621,374.348,113.23z   " fill="#BF723E"/><path d="M379.168,104.179c-4.152-34.528-54.451-28.475-50.84,5.879   C333.103,142.514,381.974,136.401,379.168,104.179z M372.791,113.2c-6.506,21.836-40.955,16.204-39.833-6.713l0,0l0,0v0l0,0   C334.086,74.784,381.951,83.025,372.791,113.2z" fill="#3F3756"/><path d="M442.919,366.23C408.702-67.197,435.857,62.07,104.745,78.645c-40.714,1.802-50.012,30.449-45.526,79.803   c34.2,358.442-10.787,301.856,327.423,269.528C419.346,427.773,445.798,398.973,442.919,366.23z M75.661,246.8   c-0.233-49.485-43.675-153.052,32.122-161.183c80.808-8.267,161.266-20.169,241.97-29.08c0,0-0.001,0-0.001,0   c79.881-9.365,60.478,92.55,70.675,143.616c-0.083,9.557-18.223,6.771-79.192,15.462c-14.316,2.934-3.551-45.653-53.984-69.572   c-64.892-31.579-133.038,21.77-125.131,91.604c0,0,0,0,0,0C156.286,243.832,80.854,249.437,75.661,246.8z M195.346,161.891   c47.513-42.248,124.676-12.6,132.927,50.012c9.404,58.521-51.508,107.168-106.716,87.15   C164.026,279.804,148.709,200.958,195.346,161.891C195.346,161.891,195.346,161.891,195.346,161.891z M437.146,371.508   c-4.768,52.649-51.502,47.904-91.475,52.973c-214.499,24.065-131.056,15.848-187.204,20.161   c-43.808,5.698-65.43-13.156-68.862-61.643c-3.512-38.792-8.043-77.482-12.04-116.226c-1.582-8.122-0.83-12.903,8.58-13.955   c13.844-0.953,65.298-7.221,72.493-8.081c5.164-1.347,8.12,5.122,9.328,9.714c31.024,80.277,148.51,69.09,164.885-13.998   c0,0,0,0,0,0c1.912-4.722,0.005-16.673,3.991-18.387c20.412-6.003,42.936-5.244,64.042-9.022c6.712-0.185,20.805-5.35,21.402,5.004   C425.249,263.287,436.027,320.645,437.146,371.508z" fill="#3F3756"/></g></svg>