<?xml version="1.0" ?><!DOCTYPE svg  PUBLIC '-//W3C//DTD SVG 1.1//EN'  'http://www.w3.org/Graphics/SVG/1.1/DTD/svg11.dtd'><svg enable-background="new 0 0 128 128" height="128px" id="Layer_1" version="1.1" viewBox="0 0 128 128" width="128px" xml:space="preserve" xmlns="http://www.w3.org/2000/svg" xmlns:xlink="http://www.w3.org/1999/xlink"><path d="M127.292,100.715c0,2.243-1.817,4.061-4.061,4.061H5.353c-2.242,0-4.061-1.817-4.061-4.061V24.658  c0-2.243,1.818-4.061,4.061-4.061h117.878c2.243,0,4.061,1.818,4.061,4.061V100.715z" fill="#808080"/><g><path clip-rule="evenodd" d="M51.901,50.494c2.668,0,4.625,0.189,6.526-0.057   c1.72-0.221,3.379-0.916,4.557-1.255c-2.752-3.672-5.671-7.009-7.917-10.749c-1.694-2.821-0.101-4.493,3.082-4.368   c4.155,0.163,7.689,0.124,9.537-5.012c0.985-2.739,4.127-5.048,7.923-3.731c3.493,1.212,4.112,4.082,3.985,7.339   c-0.025,0.64,0.241,1.292,0.497,2.544c1.715-0.397,3.334-1.22,4.797-1c1.985,0.298,3.851,1.396,5.769,2.15   c-0.703,1.487-1.063,3.337-2.176,4.391c-2.889,2.732-6.107,5.114-10.365,8.591c4.429,0,7.725-0.349,10.879,0.167   c1.331,0.216,3.532,2.506,3.335,3.424c-1.013,4.708-2.141,9.561-4.362,13.763c-0.984,1.863-4.586,3.057-7.1,3.251   c-6.042,0.468-12.154,0.356-18.213,0.03c-1.377-0.075-3.227-1.695-3.879-3.069C56.431,61.967,54.507,56.831,51.901,50.494z    M72.932,44.164c-0.508-0.658-1.017-1.316-1.524-1.974c1.612-1.658,3.29-3.258,4.822-4.987c2.719-3.067,1.701-6.147-1.045-8.152   c-0.948-0.693-3.953,0.431-5.346,1.558c-2.877,2.328-4.772,5.113-0.518,8.302c0.773,0.58,0.856,2.7,0.527,3.909   c-0.208,0.764-2.188,1.854-2.647,1.581c-1.177-0.7-2.294-1.949-2.785-3.228c-0.509-1.324-0.252-2.943-0.358-4.978   c-2.499-0.244-4.864-0.475-7.834-0.765c2.845,7.517,11.671,14.579,15.97,13.669c5.791-1.224,14.468-8.758,14.54-14.452   C81.548,38.223,77.24,41.193,72.932,44.164z M75.442,52.999c0.607,3.66,0.987,6.953,1.763,10.15   c0.326,1.35,1.753,3.658,2.217,3.549c2.66-0.622,6.388-1.144,7.471-3.018c1.656-2.871,1.457-6.813,2.111-10.681   C84.745,52.999,80.335,52.999,75.442,52.999z M56.34,53.276c1.963,5.276,3.245,9.386,5.128,13.199   c0.352,0.714,4.534,0.443,4.558,0.277c0.673-4.611,1.036-9.267,1.475-14.169C63.647,52.822,60.646,53.009,56.34,53.276z    M75.498,66.662c-1.135-4.929-2.166-9.412-3.197-13.896c-0.403,0.055-0.805,0.11-1.207,0.164c-0.51,4.482-1.017,8.964-1.559,13.733   C71.762,66.662,73.174,66.662,75.498,66.662z" fill="#FFFFFF" fill-rule="evenodd"/><path clip-rule="evenodd" d="M70.844,88.082c-0.006,6.53-5.189,11.906-11.462,11.887   c-7.264-0.022-12.759-5.213-12.765-12.056c-0.007-8.284,4.712-12.907,13.209-13.196C65.307,74.53,71.982,80.452,70.844,88.082z    M53.223,86.444c-0.022,5.006,2.425,8.39,5.981,8.042c4.189-0.41,4.824-3.724,5.115-7.222c0.335-4.041-1.585-6.979-5.32-6.819   C55.976,80.574,52.095,82.001,53.223,86.444z" fill="#FFFFFF" fill-rule="evenodd"/><path clip-rule="evenodd" d="M98.315,88.24c-0.01,6.813-5.2,11.786-12.246,11.786   c-7.924-0.002-11.271-4.174-11.593-13.07c-0.268-7.439,4.422-12.089,10.528-12.166C93.479,74.683,98.327,79.655,98.315,88.24z    M92.26,89.811c-0.425-5.527-1.213-8.97-5.77-9.402c-3.179-0.301-5.7,2.969-5.869,7.135c-0.165,4.092,2.022,6.926,5.712,6.536   C88.75,93.823,90.882,90.874,92.26,89.811z" fill="#FFFFFF" fill-rule="evenodd"/><path clip-rule="evenodd" d="M21.455,99.688c-2.185,0-3.474,0-5.318,0   c0-6.382,0-12.551,0-19.008c-2.424-0.362-4.346-0.65-6.543-0.98c0-1.507,0-2.93,0-4.613c2.006-0.215,3.8-0.407,4.969-0.533   c1.582-3.159,2.305-6.777,4.5-8.371c2.152-1.563,5.798-1.31,8.793-1.337c1.046-0.01,2.107,1.521,3.161,2.349   c-1.063,0.632-2.053,1.565-3.202,1.842c-5.205,1.256-5.222,1.188-4.848,5.385c1.754,0.198,3.564,0.402,5.792,0.655   c0.1,1.395,0.202,2.815,0.33,4.604c-2.604,0.285-4.865,0.531-7.634,0.834C21.455,86.858,21.455,93.034,21.455,99.688z" fill="#FFFFFF" fill-rule="evenodd"/><path clip-rule="evenodd" d="M110.807,94.243c2.328,0.159,4.241-0.031,5.921,0.507   c1.303,0.417,2.313,1.745,3.455,2.668c-1.112,0.86-2.188,2.4-3.345,2.464c-5.02,0.275-10.064,0.118-16.03,0.118   c3.329-6.466,6.334-12.303,9.583-18.61c-3.308-0.176-5.772-0.307-8.274-0.438c-1.129-3.586-0.454-5.349,3.508-5.181   c4.682,0.199,9.38,0.048,14.99,0.048C117.159,82.308,114.104,88.048,110.807,94.243z" fill="#FFFFFF" fill-rule="evenodd"/><path clip-rule="evenodd" d="M34.779,64.872c2.908,0,4.229,0,5.625,0   c0.231,0.48,0.623,0.91,0.617,1.334c-0.129,10.03-0.193,20.065-0.602,30.084c-0.051,1.234-1.975,2.393-3.032,3.585   c-0.87-1.188-2.47-2.363-2.494-3.567C34.694,86.014,34.779,75.714,34.779,64.872z" fill="#FFFFFF" fill-rule="evenodd"/></g></svg>