<?xml version="1.0" ?><!DOCTYPE svg  PUBLIC '-//W3C//DTD SVG 1.1//EN'  'http://www.w3.org/Graphics/SVG/1.1/DTD/svg11.dtd'><svg enable-background="new 0 0 128 128" height="128px" id="Layer_1" version="1.1" viewBox="0 0 128 128" width="128px" xml:space="preserve" xmlns="http://www.w3.org/2000/svg" xmlns:xlink="http://www.w3.org/1999/xlink"><path d="M127.467,100.715c0,2.243-1.817,4.061-4.061,4.061H5.528c-2.242,0-4.061-1.817-4.061-4.061V24.658  c0-2.243,1.818-4.061,4.061-4.061h117.878c2.243,0,4.061,1.818,4.061,4.061V100.715z" fill="#808080"/><g><path clip-rule="evenodd" d="M24.576,48.434c0.672-0.537,1.301-1.042,1.932-1.544   c1.489-1.182,2.935-2.423,4.476-3.533c3.383-2.44,7.09-3.189,11.068-1.706c2.122,0.791,3.605,2.303,4.02,4.61   c0.385,2.144-0.342,4.019-1.756,5.605c-2.441,2.737-5.575,3.913-9.196,3.846c-2.625-0.047-4.842-0.991-6.593-3.017   C27.273,51.245,25.922,49.879,24.576,48.434z" fill="#FFFFFF" fill-rule="evenodd"/><path clip-rule="evenodd" d="M22.733,49.937c1.722,2.088,3.381,4.085,5.017,6.103   c0.207,0.258,0.323,0.603,0.429,0.925c0.887,2.666,0.487,5.202-0.982,7.532c-1.845,2.928-4.43,4.688-8.023,4.632   c-3-0.048-5.599-2.367-6.042-5.352c-0.473-3.199,0.518-5.965,2.8-8.135C18.027,53.646,20.365,51.903,22.733,49.937z" fill="#FFFFFF" fill-rule="evenodd"/><path clip-rule="evenodd" d="M91.827,80.3c-1.271,0-2.443,0-3.663,0c0-4.361,0-8.706,0-13.093   c1.149,0,2.293,0,3.478,0c0.025,0.373,0.051,0.72,0.077,1.088c3.031-1.975,5.187-1.875,7.24,0.346   c0.854-1.035,1.959-1.628,3.293-1.723c3.081-0.219,5.278,1.326,5.457,4.408c0.173,2.959,0.038,5.933,0.038,8.945   c-1.189,0-2.376,0-3.673,0c0-0.232,0-0.479,0-0.723c-0.002-2.223,0.022-4.445-0.02-6.666c-0.01-0.603-0.091-1.264-0.358-1.784   c-0.502-0.981-1.624-1.382-2.629-1.108c-0.78,0.212-1.22,0.906-1.23,2.093c-0.021,2.456-0.009,4.913-0.01,7.371   c0,0.256,0,0.512,0,0.814c-1.243,0-2.444,0-3.718,0c0-0.248,0-0.478,0-0.707c0-2.136,0.015-4.273-0.013-6.41   c-0.007-0.567-0.066-1.161-0.24-1.697c-0.376-1.149-1.121-1.542-2.384-1.509c-0.978,0.028-1.632,0.921-1.64,2.171   c-0.016,2.479-0.005,4.957-0.006,7.436C91.827,79.783,91.827,80.013,91.827,80.3z" fill="#FFFFFF" fill-rule="evenodd"/><path clip-rule="evenodd" d="M116.157,80.737c-3.566-0.006-6.154-1.906-6.935-5.099   c-0.843-3.438,0.576-6.782,3.465-8.173c3.412-1.645,7.767-0.569,9.774,2.467c0.928,1.403,1.001,3.047,0.846,4.641   C122.926,78.46,120.221,80.745,116.157,80.737z M119.665,73.771c0-0.193,0.016-0.387-0.001-0.578   c-0.238-2.641-3.151-4.206-5.307-2.854c-1.969,1.235-2.288,4.749-0.546,6.313c1.132,1.015,2.468,1.159,3.827,0.59   C119.146,76.612,119.647,75.308,119.665,73.771z" fill="#FFFFFF" fill-rule="evenodd"/><path clip-rule="evenodd" d="M48.194,80.737c-3.245,0.003-5.746-1.551-6.712-4.273   c-1.001-2.819-0.554-6.712,2.62-8.682c3.32-2.06,8.187-1.077,10.352,2.124c0.897,1.324,0.988,2.88,0.876,4.383   C55.025,78.365,52.341,80.734,48.194,80.737z M48.187,77.533c2.113-0.004,3.511-1.508,3.514-3.78   c0.003-2.291-1.391-3.777-3.481-3.82c-2.494-0.053-3.531,1.923-3.54,3.809C44.668,76.009,46.091,77.538,48.187,77.533z" fill="#FFFFFF" fill-rule="evenodd"/><path clip-rule="evenodd" d="M22.922,47.223c-1.164-1.286-2.372-2.5-3.436-3.83   c-0.974-1.217-0.776-2.621-0.152-3.931c1.157-2.423,3.161-3.92,5.607-4.868c1.264-0.491,2.575-0.699,3.944-0.549   c2.304,0.251,3.375,1.697,2.968,3.987c-0.322,1.825-1.307,3.242-2.687,4.374c-1.962,1.609-3.992,3.136-5.997,4.695   C23.123,47.139,23.059,47.156,22.922,47.223z" fill="#FFFFFF" fill-rule="evenodd"/><path clip-rule="evenodd" d="M83.016,78.823c-1.072,0.895-2.086,1.501-3.337,1.702   c-3.161,0.509-5.657-1.553-5.66-4.737c-0.003-2.841,0-5.679,0-8.569c1.237,0,2.439,0,3.711,0c0,0.251,0,0.479,0,0.709   c0,1.986-0.006,3.973,0.004,5.958c0.002,0.384,0.038,0.768,0.094,1.147c0.314,2.21,2.024,2.761,3.767,2.313   c0.658-0.169,0.998-0.721,1.122-1.363c0.09-0.457,0.129-0.931,0.131-1.397c0.013-2.435,0.006-4.866,0.006-7.358   c1.236,0,2.436,0,3.675,0c0,4.335,0,8.66,0,13.039c-1.147,0-2.306,0-3.512,0C83.016,79.841,83.016,79.42,83.016,78.823z" fill="#FFFFFF" fill-rule="evenodd"/><path clip-rule="evenodd" d="M21.427,48.447c-2.302,1.833-4.501,3.667-6.792,5.375   c-1.31,0.974-2.855,1.41-4.533,1.211c-1.599-0.19-2.782-1.417-2.876-3.018c-0.154-2.588,1.097-4.549,2.86-6.244   c1.254-1.204,2.747-2.016,4.497-2.272c1.473-0.214,2.741,0.133,3.73,1.316C19.311,46.011,20.338,47.182,21.427,48.447z" fill="#FFFFFF" fill-rule="evenodd"/><path clip-rule="evenodd" d="M41.127,64.89c-2.041,0.205-2.522,0.666-2.33,2.266   c0.853,0,1.718,0,2.647,0c-0.1,0.777-0.168,1.476-0.297,2.164c-0.023,0.124-0.287,0.281-0.448,0.289   c-0.617,0.033-1.236,0.014-1.939,0.014c0,3.565,0,7.097,0,10.66c-1.272,0-2.459,0-3.745,0c0-3.528,0-7.058,0-10.647   c-0.71,0-1.322,0-2.018,0c0.097-0.778,0.169-1.489,0.292-2.192c0.019-0.112,0.264-0.25,0.416-0.263   c0.399-0.036,0.804-0.013,1.342-0.013c-0.291-1.982,0.292-3.563,1.975-4.621c1.258-0.79,2.663-0.769,4.106-0.754   C41.127,62.858,41.127,63.853,41.127,64.89z" fill="#FFFFFF" fill-rule="evenodd"/><path clip-rule="evenodd" d="M64.841,69.639c0.124-0.912,0.226-1.665,0.335-2.462   c0.428,0,0.809,0,1.305,0c0-0.648,0-1.259,0-1.866c0-1.394,0-1.396,1.332-1.876c0.724-0.262,1.447-0.515,2.173-0.769   c0.037-0.012,0.084,0.004,0.199,0.012c0,1.455,0,2.918,0,4.462c0.825,0,1.582,0,2.448,0c-0.117,0.863-0.222,1.633-0.337,2.485   c-0.553,0-1.082,0.013-1.61-0.004c-0.348-0.013-0.496,0.101-0.493,0.472c0.013,1.945-0.013,3.891,0.015,5.835   c0.015,1.01,0.455,1.462,1.454,1.627c0.248,0.04,0.5,0.064,0.775,0.1c0,0.869,0,1.719,0,2.651c-0.19,0.017-0.395,0.062-0.594,0.047   c-0.83-0.056-1.672-0.063-2.485-0.213c-1.907-0.351-2.673-1.18-2.762-3.116c-0.103-2.153-0.082-4.313-0.115-6.471   c-0.003-0.272,0-0.547,0-0.914C65.938,69.639,65.439,69.639,64.841,69.639z" fill="#FFFFFF" fill-rule="evenodd"/><path clip-rule="evenodd" d="M56.595,80.271c0-4.37,0-8.682,0-13.049c1.174,0,2.332,0,3.545,0   c0,0.431,0,0.849,0,1.494c0.98-1.404,2.216-1.87,3.784-1.833c-0.153,1.063-0.301,2.084-0.453,3.146   c-0.273,0-0.524,0.007-0.772-0.001c-1.345-0.035-2.093,0.56-2.299,1.881c-0.076,0.481-0.102,0.976-0.104,1.465   c-0.01,2.283-0.004,4.566-0.004,6.897C59.054,80.271,57.853,80.271,56.595,80.271z" fill="#FFFFFF" fill-rule="evenodd"/><path clip-rule="evenodd" d="M69.241,89.867c-0.337-0.294-0.44-2.141-0.231-2.914   c0.349-0.071,0.654-0.078,0.907-0.195c0.536-0.253,0.925,0.151,1.381,0.215c0.418,0.059,0.892-0.245,1.3-0.172   c0.238,0.044,0.525,0.501,0.566,0.803c0.09,0.629,0.041,1.277,0.022,1.918c-0.002,0.11-0.133,0.217-0.203,0.325   c-0.073-0.106-0.207-0.211-0.212-0.321c-0.022-0.531-0.001-1.065-0.018-1.6c-0.013-0.462-0.146-0.874-0.71-0.874   c-0.563,0-0.78,0.336-0.764,0.878c0.018,0.535,0.016,1.069-0.009,1.601c-0.005,0.109-0.141,0.212-0.216,0.316   c-0.069-0.11-0.194-0.219-0.199-0.33c-0.021-0.555-0.023-1.11-0.007-1.666c0.016-0.484-0.163-0.805-0.679-0.797   c-0.507,0.007-0.779,0.296-0.785,0.813c-0.004,0.576-0.003,1.151-0.018,1.728C69.366,89.684,69.29,89.771,69.241,89.867z" fill="#FFFFFF" fill-rule="evenodd"/><path clip-rule="evenodd" d="M35.07,86.959c0.42-0.076,0.664-0.151,0.909-0.156   c0.477-0.009,0.956,0.022,1.435,0.036c0,0.062,0.001,0.122,0.003,0.182c0.128-0.074,0.251-0.162,0.386-0.223   c0.76-0.344,1.397-0.026,1.492,0.806c0.074,0.634,0.037,1.28,0.024,1.919c-0.003,0.109-0.142,0.214-0.218,0.321   c-0.07-0.112-0.194-0.221-0.2-0.335c-0.024-0.49,0.001-0.981-0.019-1.473c-0.021-0.488-0.09-0.989-0.742-0.983   c-0.63,0.006-0.748,0.434-0.725,0.969c0.021,0.491,0.016,0.983-0.004,1.474c-0.006,0.119-0.119,0.234-0.181,0.352   c-0.082-0.12-0.228-0.238-0.234-0.36c-0.026-0.554-0.018-1.111-0.012-1.666c0.006-0.454-0.178-0.761-0.657-0.766   c-0.5-0.007-0.807,0.244-0.815,0.775c-0.007,0.576,0.003,1.153-0.015,1.729c-0.003,0.098-0.119,0.192-0.183,0.289   c-0.081-0.099-0.231-0.195-0.232-0.296C35.063,88.644,35.07,87.732,35.07,86.959z" fill="#FFFFFF" fill-rule="evenodd"/><path clip-rule="evenodd" d="M58.237,86.863c0.399-0.063,0.703-0.161,0.999-0.141   c0.385,0.026,0.819,0.058,1.133,0.249c0.551,0.334,0.692,1.389,0.379,2.117c-0.269,0.627-0.82,0.908-1.575,0.798   c-0.142-0.021-0.281-0.063-0.514-0.116c-0.022,0.404-0.027,0.756-0.068,1.105c-0.011,0.088-0.144,0.16-0.222,0.24   c-0.064-0.074-0.186-0.146-0.185-0.22c0.006-1.344,0.026-2.685,0.05-4.027C58.234,86.841,58.294,86.814,58.237,86.863z    M58.609,88.335c0,0.127,0.018,0.258-0.003,0.38c-0.148,0.852,0.675,1.037,1.284,0.699c0.667-0.371,0.772-1.752,0.122-2.15   c-0.281-0.171-0.734-0.184-1.065-0.099c-0.164,0.044-0.246,0.465-0.33,0.727C58.574,88.027,58.609,88.187,58.609,88.335z" fill="#FFFFFF" fill-rule="evenodd"/><path clip-rule="evenodd" d="M44.762,86.825c1.189-0.281,1.958,0.042,2.107,0.939   c0.074,0.44,0.062,0.986-0.145,1.354c-0.197,0.349-0.667,0.646-1.073,0.748c-0.4,0.103-0.87-0.064-1.382-0.124   c0-1.412-0.015-2.888,0.007-4.36c0.116-0.006,0.231-0.011,0.347-0.017C44.668,85.839,44.712,86.311,44.762,86.825z M44.708,88.281   c0,0.149-0.036,0.311,0.007,0.447c0.082,0.258,0.171,0.683,0.324,0.713c0.336,0.067,0.784,0.041,1.059-0.14   c0.593-0.389,0.495-1.736-0.138-2.065c-0.271-0.142-0.679-0.181-0.958-0.078c-0.165,0.061-0.213,0.478-0.289,0.74   C44.68,88.019,44.708,88.153,44.708,88.281z" fill="#FFFFFF" fill-rule="evenodd"/><path clip-rule="evenodd" d="M64.347,89.933c-0.206-0.112-0.415-0.223-0.645-0.348   c-0.471,0.286-1.017,0.55-1.506,0.126c-0.219-0.189-0.377-0.671-0.3-0.946c0.255-0.906,1.112-0.813,1.852-0.889   c-0.141-1.211-1.058-0.638-1.667-0.733c-0.01-0.079-0.02-0.158-0.029-0.238c0.345-0.084,0.719-0.289,1.029-0.218   c0.368,0.084,0.796,0.334,0.986,0.642c0.189,0.309,0.116,0.778,0.153,1.177C64.262,88.939,64.297,89.375,64.347,89.933z    M63.786,88.554c-0.094-0.065-0.276-0.282-0.486-0.312c-0.545-0.072-0.982,0.276-1.008,0.727c-0.025,0.438,0.226,0.612,0.625,0.621   C63.407,89.599,63.771,89.252,63.786,88.554z" fill="#FFFFFF" fill-rule="evenodd"/><path clip-rule="evenodd" d="M43.189,88.286c-0.001,0.996-0.536,1.613-1.407,1.619   c-0.871,0.005-1.428-0.619-1.43-1.602c-0.002-0.938,0.608-1.644,1.425-1.649C42.625,86.648,43.189,87.302,43.189,88.286z    M41.814,87.01c-0.562-0.018-0.927,0.447-0.946,1.196c-0.021,0.866,0.293,1.364,0.876,1.378c0.552,0.015,0.954-0.504,0.981-1.263   C42.752,87.577,42.368,87.026,41.814,87.01z" fill="#FFFFFF" fill-rule="evenodd"/><path clip-rule="evenodd" d="M76.721,89.563c-0.631,0.492-1.47,0.475-2.005-0.044   c-0.536-0.519-0.607-1.604-0.15-2.245c0.426-0.594,1.217-0.799,1.873-0.433c0.227,0.128,0.444,0.35,0.558,0.583   c0.271,0.555,0.077,0.824-0.539,0.834c-0.427,0.006-0.854,0.008-1.28,0.005c-0.438-0.003-0.499,0.226-0.376,0.582   c0.19,0.555,0.731,0.832,1.335,0.682c0.181-0.045,0.362-0.09,0.543-0.134C76.692,89.449,76.704,89.506,76.721,89.563z M74.673,87.7   c0.049,0.107,0.099,0.214,0.148,0.32c0.456,0,0.916,0.015,1.37-0.009c0.148-0.006,0.378-0.086,0.412-0.185   c0.041-0.127-0.031-0.393-0.135-0.448c-0.28-0.149-0.633-0.348-0.903-0.285C75.24,87.167,74.968,87.487,74.673,87.7z" fill="#FFFFFF" fill-rule="evenodd"/><path clip-rule="evenodd" d="M54.549,89.592c-0.434,0.399-0.974,0.395-1.496,0.238   c-0.833-0.253-1.208-1.259-0.866-2.186c0.302-0.814,1.174-1.207,1.978-0.845c0.236,0.107,0.467,0.314,0.6,0.536   c0.352,0.582,0.149,0.913-0.516,0.922c-0.425,0.006-0.851,0.005-1.278,0.006c-0.394,0.002-0.467,0.209-0.364,0.545   c0.168,0.553,0.725,0.867,1.312,0.729c0.191-0.046,0.378-0.104,0.567-0.156C54.506,89.451,54.527,89.521,54.549,89.592z    M54.437,87.959c0.031-0.622-0.297-0.857-0.792-0.913c-0.563-0.063-0.898,0.231-1.023,0.913   C53.225,87.959,53.815,87.959,54.437,87.959z" fill="#FFFFFF" fill-rule="evenodd"/><path clip-rule="evenodd" d="M78.162,86.634c0.298,0.224,0.425,0.316,0.566,0.422   c0.421-0.347,0.879-0.567,1.402-0.26c0.495,0.29,0.508,0.793,0.506,1.292c-0.002,0.488,0.008,0.979-0.011,1.468   c-0.004,0.099-0.113,0.193-0.174,0.291c-0.084-0.097-0.234-0.19-0.238-0.29c-0.026-0.53-0.002-1.064-0.022-1.597   c-0.02-0.475-0.133-0.908-0.738-0.921c-0.535-0.011-0.846,0.337-0.852,0.951c-0.007,0.512,0.01,1.023-0.014,1.533   c-0.006,0.11-0.137,0.215-0.21,0.324c-0.072-0.085-0.206-0.169-0.206-0.256C78.156,88.665,78.162,87.738,78.162,86.634z" fill="#FFFFFF" fill-rule="evenodd"/><path clip-rule="evenodd" d="M67.983,86.862c-0.17,0.469-0.338,0.937-0.506,1.405   c-0.245,0.681-0.468,1.371-0.736,2.041c-0.197,0.492-0.525,0.833-1.141,0.72c0.012-0.122,0-0.188,0.021-0.201   c0.893-0.516,0.942-0.645,0.578-1.608c-0.3-0.785-0.609-1.567-0.794-2.407c0.736,0.584,0.739,1.572,1.254,2.328   c0.563-0.716,0.454-1.753,1.083-2.389C67.823,86.788,67.903,86.826,67.983,86.862z" fill="#FFFFFF" fill-rule="evenodd"/><path clip-rule="evenodd" d="M84.636,89.343c0.252,0.085,0.457,0.22,0.646,0.2   c0.224-0.023,0.542-0.13,0.62-0.294c0.071-0.153-0.067-0.479-0.21-0.64c-0.162-0.179-0.435-0.254-0.658-0.378   c-0.428-0.237-0.686-0.646-0.429-1.049c0.175-0.273,0.635-0.416,0.991-0.499c0.203-0.045,0.458,0.15,0.689,0.238   c-0.019,0.07-0.039,0.142-0.058,0.212c-0.163-0.021-0.336-0.087-0.49-0.056c-0.245,0.049-0.479,0.162-0.717,0.249   c0.146,0.229,0.259,0.49,0.444,0.675c0.159,0.156,0.485,0.172,0.596,0.342c0.178,0.276,0.373,0.658,0.311,0.938   c-0.054,0.246-0.439,0.548-0.708,0.578c-0.349,0.042-0.727-0.158-1.088-0.263C84.573,89.596,84.602,89.487,84.636,89.343z" fill="#FFFFFF" fill-rule="evenodd"/><path clip-rule="evenodd" d="M82.577,85.932c-0.241,0.833,0.363,0.82,0.878,0.903   c-0.007,0.055-0.015,0.108-0.021,0.163c-0.261,0.042-0.521,0.084-0.864,0.139c0,0.599-0.027,1.213,0.01,1.822   c0.029,0.474,0.229,0.579,0.981,0.653c0.008,0.061,0.017,0.12,0.024,0.181c-0.247,0.035-0.562,0.18-0.727,0.079   c-0.291-0.177-0.61-0.469-0.699-0.775c-0.121-0.413-0.006-0.89-0.048-1.333c-0.026-0.295-0.15-0.579-0.251-0.938   c0.139-0.253,0.326-0.592,0.513-0.933C82.44,85.906,82.508,85.919,82.577,85.932z" fill="#FFFFFF" fill-rule="evenodd"/><path clip-rule="evenodd" d="M51.146,89.895c-0.647-0.04-0.955-0.308-0.956-0.881   c-0.003-1.068-0.011-2.137,0.009-3.203c0.002-0.143,0.154-0.282,0.237-0.424c0.063,0.138,0.178,0.274,0.181,0.414   c0.016,0.853,0.013,1.707,0.008,2.562c-0.004,0.468-0.058,0.948,0.459,1.225C51.128,89.611,51.119,89.737,51.146,89.895z" fill="#FFFFFF" fill-rule="evenodd"/><path clip-rule="evenodd" d="M48.018,86.816c0.153,0,0.387,0,0.709,0   c0,0.919,0.006,1.825-0.009,2.731c0,0.099-0.111,0.195-0.173,0.294c-0.083-0.098-0.238-0.19-0.242-0.292   c-0.023-0.614,0.009-1.232-0.026-1.845C48.262,87.441,48.131,87.184,48.018,86.816z" fill="#FFFFFF" fill-rule="evenodd"/></g></svg>