<?xml version="1.0" ?><!DOCTYPE svg  PUBLIC '-//W3C//DTD SVG 1.1//EN'  'http://www.w3.org/Graphics/SVG/1.1/DTD/svg11.dtd'><svg enable-background="new 0 0 128 128" height="128px" id="Layer_1" version="1.1" viewBox="0 0 128 128" width="128px" xml:space="preserve" xmlns="http://www.w3.org/2000/svg" xmlns:xlink="http://www.w3.org/1999/xlink"><path d="M126.961,100.715c0,2.243-1.817,4.061-4.061,4.061H5.022c-2.242,0-4.061-1.817-4.061-4.061V24.658  c0-2.243,1.818-4.061,4.061-4.061H122.9c2.243,0,4.061,1.818,4.061,4.061V100.715z" fill="#808080"/><g><path clip-rule="evenodd" d="M23.372,68.309c-3.502-0.006-6.207-2.604-6.219-5.975   c-0.012-3.322,2.957-6.227,6.332-6.195c3.396,0.03,6.178,2.8,6.148,6.122C29.603,65.84,27.042,68.314,23.372,68.309z    M19.672,62.277c-0.011,2.27,1.611,3.956,3.789,3.938c2.162-0.017,3.695-1.587,3.723-3.811c0.028-2.263-1.571-4.02-3.702-4.064   C21.345,58.296,19.683,60.014,19.672,62.277z" fill="#FFFFFF" fill-rule="evenodd"/><path clip-rule="evenodd" d="M13.384,59.196c-1.312-0.316-2.426-0.83-3.521-0.793   c-1.601,0.052-2.789,0.996-3.265,2.623c-0.476,1.624-0.21,3.132,1.06,4.273c1.268,1.137,2.853,1.311,4.335,0.557   c0.533-0.271,0.727-1.209,1.241-2.142c-1.298-0.127-2.099-0.205-2.981-0.291c0-0.642,0-1.221,0-1.88c1.535,0,3.014,0,4.784,0   c0,1.541,0.024,3.068-0.022,4.593c-0.008,0.275-0.251,0.599-0.475,0.806c-2.35,2.188-7.213,1.756-9.302-0.81   c-2.116-2.599-1.563-6.68,1.184-8.731c2.304-1.721,5.408-1.634,8.027,0.349C14.049,58.292,13.648,58.838,13.384,59.196z" fill="#FFFFFF" fill-rule="evenodd"/><path clip-rule="evenodd" d="M70.034,68.455c0-4.234,0-8.02,0-12.206   c2.216,0.219,4.361,0.239,6.412,0.689c2.236,0.492,3.634,2.702,3.674,5.145c0.044,2.599-1.225,4.933-3.429,5.488   C74.602,68.099,72.395,68.163,70.034,68.455z M70.987,62.277c-0.003,0-0.008,0-0.012,0c0,0.499,0,0.996,0,1.493   c0.003,3.798,0.497,4.178,4.29,3.288c0.054-0.013,0.108-0.022,0.162-0.037c2.816-0.748,4.267-3.343,3.447-6.164   c-0.744-2.555-2.894-3.697-6.526-3.569c-0.965,0.035-1.428,0.301-1.376,1.339C71.034,59.841,70.987,61.061,70.987,62.277z" fill="#FFFFFF" fill-rule="evenodd"/><path clip-rule="evenodd" d="M66.66,68.35c-0.428-0.323-0.938-0.581-1.267-0.985   c-0.803-0.989-1.46-2.1-2.301-3.049c-0.391-0.442-1.049-0.826-1.625-0.892c-2.583-0.298-2.723-0.131-2.723,2.475   c0,0.734,0,1.468,0,2.202c-0.255,0.001-0.509,0.004-0.765,0.006c-0.429-3.779-0.049-7.599-0.226-11.745   c2.232,0.101,4.369,0.075,6.47,0.333c1.656,0.203,2.682,1.319,2.726,3.062c0.039,1.619-0.76,2.723-2.312,3.261   c-0.248,0.086-0.47,0.25-0.849,0.456c1.12,1.542,2.176,2.994,3.231,4.446C66.899,68.063,66.779,68.207,66.66,68.35z M61.461,62.436   c0.719,0,1.448,0.076,2.155-0.016c1.291-0.166,2.141-0.846,2.236-2.247c0.093-1.365-0.524-2.278-1.827-2.583   c-0.903-0.21-1.857-0.261-2.789-0.274c-2.457-0.039-2.457-0.015-2.486,2.382C58.717,62.477,58.717,62.477,61.461,62.436z" fill="#FFFFFF" fill-rule="evenodd"/><path clip-rule="evenodd" d="M94.553,61.91c2.15,0,4.25,0,6.351,0   c0.006,0.19,0.012,0.379,0.019,0.569c-0.478,0.064-0.955,0.167-1.434,0.183c-0.831,0.03-1.665-0.004-2.496,0.007   c-2.876,0.04-2.584-0.416-2.722,2.665c-0.07,1.573,0.477,2.041,1.967,1.983c1.709-0.067,3.427,0.055,5.14,0.108   c0.067,0.001,0.13,0.148,0.195,0.229c-0.747,0.659-5.693,0.885-8.329,0.357c-0.028-0.348-0.088-0.722-0.088-1.095   c-0.007-3.426-0.004-6.853-0.004-10.261c2.938,0,5.714,0,8.488,0c0.003,0.216,0.005,0.433,0.007,0.648c-0.924,0-1.849,0-2.774,0   c-0.333,0-0.665,0-0.999,0C93.835,57.304,93.785,57.368,94.553,61.91z" fill="#FFFFFF" fill-rule="evenodd"/><path clip-rule="evenodd" d="M43.75,68.046c1.199-2.695,2.39-5.394,3.598-8.083   c0.452-1.01,0.902-2.023,1.42-3c0.427-0.802,1.126-0.864,1.505-0.06c1.73,3.679,3.373,7.398,5.046,11.103   c-0.17,0.115-0.343,0.229-0.515,0.343c-0.401-0.578-0.964-1.104-1.167-1.745c-0.423-1.343-1.224-1.854-2.582-1.658   c-0.433,0.063-0.886,0.039-1.328,0.004c-2.163-0.167-4.247-0.242-4.81,2.6c-0.059,0.296-0.521,0.513-0.795,0.766   C43.998,68.226,43.874,68.136,43.75,68.046z M46.599,63.973c2.111,0,3.833,0,5.84,0c-0.984-2.191-1.869-4.158-2.95-6.562   C48.43,59.815,47.562,61.788,46.599,63.973z" fill="#FFFFFF" fill-rule="evenodd"/><path clip-rule="evenodd" d="M111.644,58.172c-1.263-0.367-2.334-0.834-3.443-0.958   c-1.243-0.14-2.543,0.103-2.845,1.643c-0.317,1.616,0.703,2.29,2.1,2.636c0.86,0.211,1.711,0.471,2.551,0.752   c1.354,0.455,2.344,1.228,2.352,2.827c0.011,1.648-0.951,2.523-2.37,3.024c-1.972,0.694-4.489,0.001-5.933-1.968   c0.405,0.111,0.808,0.233,1.215,0.335c1.261,0.316,2.512,0.813,3.785,0.883c1.19,0.066,2.133-0.694,2.284-1.988   c0.142-1.211-0.679-1.794-1.705-2.13c-0.842-0.275-1.694-0.521-2.544-0.772c-2.283-0.674-3.192-1.826-2.829-3.593   c0.343-1.667,2.284-2.869,4.269-2.643C110.278,56.418,111.282,57.004,111.644,58.172z" fill="#FFFFFF" fill-rule="evenodd"/><path clip-rule="evenodd" d="M114.368,65.899c0.854,0.333,1.265,0.549,1.703,0.653   c1.265,0.305,2.571,0.864,3.798,0.732c0.781-0.084,1.783-1.096,2.086-1.915c0.396-1.075-0.541-1.802-1.595-2.133   c-0.791-0.248-1.586-0.481-2.386-0.702c-2.225-0.614-3.234-1.679-3.098-3.287c0.145-1.689,1.46-2.866,3.613-2.998   c1.497-0.093,2.916,0.283,3.9,1.829c-0.426-0.086-0.849-0.186-1.277-0.257c-1.117-0.188-2.283-0.631-3.341-0.45   c-0.684,0.117-1.638,1.125-1.687,1.79c-0.049,0.673,0.723,1.663,1.4,2.069c0.918,0.549,2.103,0.64,3.151,0.99   c1.412,0.47,2.442,1.265,2.397,2.963c-0.042,1.661-1.077,2.469-2.465,2.941C118.543,68.814,115.848,67.975,114.368,65.899z" fill="#FFFFFF" fill-rule="evenodd"/><path clip-rule="evenodd" d="M41.361,58.665c-0.333-0.219-0.641-0.429-0.956-0.625   c-2.347-1.46-4.898-1.11-6.577,0.897c-1.517,1.816-1.506,4.983,0.025,6.79c1.677,1.978,4.222,2.273,6.6,0.801   c0.376-0.233,0.834-0.337,1.325-0.316c-2.072,2.484-5.424,2.819-7.824,0.993c-2.25-1.711-3-5.5-1.577-7.968   c1.573-2.726,4.843-3.772,7.755-2.479C41.597,57.406,41.714,57.574,41.361,58.665z" fill="#FFFFFF" fill-rule="evenodd"/><path clip-rule="evenodd" d="M90.876,68.228c-1.048,0-2.097,0-3.145,0   c-4.592,0.002-4.592,0.002-4.595-4.566c0-1.886-0.012-3.771,0.005-5.657c0.005-0.507,0.088-1.014,0.136-1.522   c0.175-0.016,0.35-0.033,0.525-0.049c0.092,0.5,0.257,1.001,0.262,1.503c0.026,2.605,0.046,5.211-0.003,7.818   c-0.022,1.13,0.36,1.601,1.536,1.552c1.739-0.072,3.484-0.019,5.227-0.019C90.843,67.601,90.859,67.914,90.876,68.228z" fill="#FFFFFF" fill-rule="evenodd"/></g></svg>