<?xml version="1.0" ?><!DOCTYPE svg  PUBLIC '-//W3C//DTD SVG 1.1//EN'  'http://www.w3.org/Graphics/SVG/1.1/DTD/svg11.dtd'><svg enable-background="new 0 0 128 128" height="128px" id="Layer_1" version="1.1" viewBox="0 0 128 128" width="128px" xml:space="preserve" xmlns="http://www.w3.org/2000/svg" xmlns:xlink="http://www.w3.org/1999/xlink"><path d="M126.869,101.236c0,2.243-1.817,4.061-4.061,4.061H4.93c-2.242,0-4.061-1.817-4.061-4.061V25.18  c0-2.243,1.818-4.061,4.061-4.061h117.878c2.243,0,4.061,1.818,4.061,4.061V101.236z" fill="#808080"/><g><path clip-rule="evenodd" d="M20.524,69.83c-0.788,0.027-0.339,0.859-0.74,1.138   c-0.009-1.437-0.575-2.689-1.262-3.91c-0.352-0.626-0.587-0.857-1.097-0.069c-1.56,2.417-1.734,5.003-1.123,7.718   c-0.761,0.204-1.532,1.628-2.273-0.021c0.928,0.155,1.206-0.188,1.115-1.146c-0.252-2.688,0.171-5.251,1.715-7.548   c0.175-0.261,0.485-0.563,0.159-0.871c-0.706-0.668-1.414-1.687-2.32-1.64c-0.695,0.037-0.967,1.212-1.24,2.016   c-1.043,3.087-0.494,6.083,0.453,9.064c-1.261,0.485-2.516,1.039-3.844,0.195c0.357-0.057,0.713-0.111,1.189-0.186   c-2.218-4.233-2.621-8.559-1.198-13.032c0.369-0.425,0.025-0.537-0.292-0.616c-0.83-0.215-1.641-0.549-2.528-0.444   c0-0.376,0-0.754,0-1.132c3.323,0.721,3.324,0.722,4.988-2.213c0.09-0.161,0.148-0.341,0.223-0.512   c0.359-0.306,0.67-0.643-0.039-0.863c-1.695-0.527-3.342-1.268-5.172-1.228c0-0.377,0-0.754,0-1.133   c1.086,0.236,2.277,0.267,3.242,0.75c2.183,1.092,3.849,0.847,5.076-1.354c0.345,0.014,0.691,0.027,1.037,0.041   c-0.32,0.7-1.271,1.007-1.206,1.945l0.025-0.028c-0.397-0.156-0.492,0.06-0.485,0.398c0.015,0.224-0.059,0.539,0.061,0.661   c1.499,1.535,3.07,1.702,4.942,0.571c0.323-0.194,0.653-0.377,0.979-0.564c-0.351-1.306-1.057-2.395-2.04-3.31   c-0.227-0.357-0.458-0.709-0.874-0.882c-0.005-0.069-0.004-0.14,0.004-0.21c3.397,0,6.797,0,10.195,0c0,0.286,0,0.574,0,0.86   c-2.599,0-5.197,0-8.112,0c0.623,0.785,1.043,1.224,1.353,1.73c0.573,0.937,1.15,1.204,2.272,0.673   c1.294-0.611,2.729-0.977,4.198-1.045c0.002,0.274,0.006,0.549,0.009,0.823c-1.378,0.402-2.759,0.791-4.131,1.217   c-0.406,0.126-1.054,0.236-0.393,0.881c0.174,0.323,0.317,0.675,0.536,0.968c0.603,0.805,0.627,2.24,1.592,2.458   c0.895,0.205,1.97-0.382,2.966-0.62c-0.048,0.722,0.163,1.253,0.832,1.28c-0.225,0.29-0.492,0.63-0.756,0.972   c-0.182-0.267,0.176-0.75-0.454-0.863c-1.259-0.222-2.277,0.602-1.959,1.804c1.047,3.953,0.547,7.722-1.163,11.377   c-0.15,0.321-0.306,0.598,0.097,0.834c-0.181,0.462-0.396,0.489-0.569,0.012c-0.214-0.603-0.553-0.223-0.858-0.142   c1.824-3.75,2.787-7.6,1.471-11.754c-0.27-0.854-0.697-1.204-1.536-0.851c-0.658,0.276-1.4,0.386-0.841,1.547   c1.119,2.324,1.516,4.823,1.015,7.404c-0.318-0.008-0.637-0.017-0.955-0.025c0.129-2.032,0.199-4.067-0.568-6.008   c-0.799-2.024-0.907-2-2.597-0.57c-0.785,0.664-0.958,1.132-0.333,2.055C19.986,67.425,20.503,68.563,20.524,69.83z M13.728,56.744   c-0.605,0.686-1.188,1.383-1.336,2.332c-0.696,1.097-0.478,1.74,0.841,2.139c0.703,0.213,1.098,0.374,1.575-0.371   c0.495-0.773,1.204-1.411,1.818-2.108c0.139-0.115,0.413-0.266,0.394-0.341C16.859,57.762,14.531,56.618,13.728,56.744z    M23.116,58.478l0.006,0.006c-0.246-0.84-0.354-2.01-1.517-1.819c-0.864,0.14-1.648,0.833-2.437,1.327   c-0.553,0.347-0.18,0.581,0.168,0.78c0.59,0.667,1.29,1.269,1.747,2.019c0.945,1.553,1.847,0.227,2.556-0.102   c0.861-0.4,0.161-1.043-0.242-1.517C23.402,58.901,23.549,58.572,23.116,58.478z M20.236,61.728   c-0.122-1.316-1.318-1.786-2.065-2.608c-0.195-0.216-0.417-0.042-0.583,0.138c-0.452,0.492-1.169,0.763-1.284,1.538   c-0.277,0.311-0.512,0.678-0.842,0.915c-0.331,0.239-0.335,0.417-0.064,0.644c0.755,0.632,1.53,1.239,2.278,1.878   c0.247,0.21,0.394,0.116,0.591-0.048c0.721-0.6,1.468-1.169,2.172-1.788C20.772,62.104,20.399,61.924,20.236,61.728z M12.63,62.138   c-1.458-1.127-1.578-1.07-1.909,0.896c-0.956,4.745-0.208,9.406,1.843,11.503c0.427-0.318,0.164-0.729,0.046-1.021   c-1.406-3.52-0.893-6.916,0.68-10.212C13.716,62.413,13.047,62.411,12.63,62.138z" fill="#FFFFFF" fill-rule="evenodd"/><path clip-rule="evenodd" d="M15.557,52.794c0.042-0.83-0.595-0.414-0.891-0.421   c-2.476-0.063-4.951-0.078-7.427-0.108c0.014-0.469-0.178-0.907,0.709-0.883c3.349,0.086,6.702,0.035,10.054,0.035   c-0.008,0.07-0.009,0.141-0.004,0.21c-0.783,0.037-0.783,0.982-1.404,1.208C16.248,52.821,15.902,52.809,15.557,52.794z" fill="#FFFFFF" fill-rule="evenodd"/><path clip-rule="evenodd" d="M34.151,52.653c2.283,0.424,2.283,0.424,2.283,2.767   c0,2.497,0,2.527,2.473,2.484c1.208-0.021,2.852,0.553,3.496-0.249c0.604-0.755,0.156-2.336,0.219-3.551   c0.04-0.728-0.442-1.766,1.094-1.644c0.928,0.075,1.213,0.356,1.206,1.261c-0.037,3.77-0.059,7.542,0.015,11.313   c0.021,1.041-0.547,0.871-1.141,0.855c-0.559-0.014-1.257,0.271-1.194-0.805c0.079-1.362-0.026-2.734,0.029-4.1   c0.032-0.754-0.235-0.983-0.961-0.964c-1.46,0.042-2.923,0.042-4.383,0.001c-0.69-0.018-0.888,0.23-0.865,0.903   c0.047,1.364-0.05,2.737,0.033,4.099c0.058,0.99-0.499,0.925-1.138,0.862c-0.531-0.051-1.202,0.305-1.187-0.788   C34.187,60.953,34.151,56.807,34.151,52.653z" fill="#FFFFFF" fill-rule="evenodd"/><path clip-rule="evenodd" d="M121.948,59.203c0.001,1.839-0.001,3.678,0.001,5.516   c0,0.426,0.077,0.955-0.414,1.094c-0.461,0.129-1.122,0.316-1.418-0.214c-0.394-0.704-0.698-0.234-1.066-0.066   c-2.765,1.253-6.127,0.167-6.705-2.428c-0.372-1.68-0.807-3.597,0.739-5.154c1.34-1.35,2.879-1.779,4.735-1.538   c0.68,0.087,1.234,1.186,1.768,0.532c0.38-0.463,0.141-1.438,0.168-2.184c0.012-0.329,0.026-0.663-0.007-0.99   c-0.083-0.808,0.019-1.29,1.076-1.272c0.946,0.015,1.174,0.294,1.142,1.188C121.902,55.523,121.947,57.364,121.948,59.203z    M114.377,62.715c-0.286,0.138-0.688,0.318-0.496,0.66c0.208,0.376,0.529,0.174,0.731-0.133c0.547,0.24,1.081,0.524,1.646,0.711   c1.289,0.429,2.32-0.052,3.085-1.079c0.775-1.042,0.729-2.559-0.102-3.546c-0.83-0.985-1.892-1.34-3.155-0.89   C114.262,59.088,113.804,60.235,114.377,62.715z" fill="#FFFFFF" fill-rule="evenodd"/><path clip-rule="evenodd" d="M90.432,63.625c-1.084-2.037-0.857-4.369,0.568-5.88   c1.441-1.529,3.688-1.829,5.836-0.752c0.404,0.202,0.571,0.435,0.808-0.266c0.188-0.554,1.008-0.213,1.53-0.208   c0.689,0.011,0.404,0.631,0.406,0.984c0.026,2.405,0.018,4.812,0.013,7.216c-0.003,1.142-0.754,1.785-1.603,1.1   c-1.248-1.009-2.409-0.315-3.452-0.121c-0.804,0.149-1.379,0.04-2.048-0.182C92.716,63.895,91.295,64.063,90.432,63.625z    M97.549,61.186c-0.003-1.781-1.269-2.915-3.247-2.907c-1.19,0.005-2.347,1.438-2.345,2.906c0.002,1.501,1.575,3.421,2.863,3.497   C95.642,64.73,97.55,62.283,97.549,61.186z" fill="#FFFFFF" fill-rule="evenodd"/><path clip-rule="evenodd" d="M102.093,61.231c0-1.226,0.027-2.454-0.01-3.681   c-0.02-0.611,0.188-0.817,0.799-0.78c1.229,0.076,2.413-0.086,3.632-0.415c1.554-0.418,3.341,1.192,3.495,3.117   c0.154,1.923,0.058,3.866,0.09,5.801c0.017,0.923-0.662,0.569-1.101,0.613c-0.512,0.054-1.025,0.142-1.015-0.707   c0.026-1.79,0.023-3.587-0.086-5.373c-0.057-0.931-0.618-1.591-1.672-1.541c-0.983,0.046-1.736,0.442-1.893,1.527   c-0.066,0.465-0.115,0.935-0.121,1.404c-0.018,1.275-0.078,2.554,0.016,3.822c0.075,1.01-0.516,0.87-1.136,0.882   c-0.611,0.013-1.084,0.047-1.024-0.849c0.086-1.269,0.022-2.546,0.022-3.822H102.093z" fill="#FFFFFF" fill-rule="evenodd"/><path clip-rule="evenodd" d="M68.416,65.828c-0.684-0.061-1.437,0.394-2.001-0.483   c-0.229-0.354-0.791,0.136-1.065,0.288c-2.599,1.442-6.676-0.914-6.438-4.305c0.292-0.057,0.893,0.078,0.813-0.242   c-0.432-1.728,0.978-0.847,1.535-1.15c-0.067,0.508-0.213,1.021-0.185,1.523c0.085,1.464,1.488,2.975,2.655,2.936   c1.15-0.037,2.487-1.262,2.806-2.57c0.334-1.374-0.227-2.606-1.521-3.347c0.293-0.722-1.407-0.779-0.56-1.684   c0.415-0.492,0.803-0.104,1.224,0.004c0.346,0.087,0.553,0.72,1.034,0.281c0.14,0.209,0.36,0.361,0.563,0.209   c0.273-0.206-0.043-0.498,0.003-0.753c0.38,0,0.759,0.002,1.137,0.003c0.085,0.085,0.169,0.17,0.253,0.256   c-0.001,0.379-0.003,0.758-0.007,1.138c-0.6,0.107-1.105,0.389-0.953,1.068c0.109,0.496-0.012,1.323,0.952,1.196   c0,0.283,0,0.567-0.001,0.852c-0.184,0.025-0.405,0.045-0.405,0.282c0,0.235,0.222,0.256,0.405,0.282   c0.001,1.133,0.001,2.266,0.001,3.401C67.944,65.092,68.522,65.563,68.416,65.828z" fill="#FFFFFF" fill-rule="evenodd"/><path clip-rule="evenodd" d="M79.158,61.541c0-0.707,0.003-1.414,0-2.121   c-0.002-0.493,0.166-1.08-0.694-1.028c-0.466,0.027-0.505-0.37-0.458-0.701c0.047-0.318-0.252-0.853,0.346-0.896   c0.96-0.071,0.827-0.769,0.798-1.345c-0.038-0.767,0.031-1.205,1.021-1.176c0.868,0.028,1.208,0.244,1.082,1.119   c-0.098,0.68-0.001,1.22,0.928,1.106c0.8-0.096,0.577,0.544,0.605,0.969c0.032,0.482,0.063,1.011-0.671,0.931   c-0.836-0.09-0.899,0.392-0.878,1.04c0.034,0.988,0.005,1.979,0.01,2.966c0.005,0.828-0.221,1.688,1.168,1.748   c0.74,0.033,0.277,0.938,0.367,1.441c0.097,0.561-0.337,0.539-0.729,0.571c-2.032,0.17-2.88-0.599-2.89-2.647   c-0.003-0.66-0.001-1.318-0.001-1.978C79.161,61.541,79.161,61.541,79.158,61.541z" fill="#FFFFFF" fill-rule="evenodd"/><path clip-rule="evenodd" d="M56.827,61.044c0.281,0.714-0.023,0.9-0.712,0.891   c-1.887-0.027-3.773-0.018-5.661,0.006c-0.398,0.004-1.013-0.289-1.036,0.521c-0.833-0.494-1.187,0.633-1.895,0.564   c-1.202-3.869,1.128-6.968,5.028-6.688c0.051,0.381,0.295,0.479,0.637,0.433c0.053-0.049,0.115-0.075,0.188-0.078   c0.032,0.606,0.048,1.21-0.605,1.552c-2.047-0.035-2.722,0.362-3.218,1.918c1.646,0,3.277,0,4.91,0   C55.185,60.634,55.925,61.056,56.827,61.044z M48.822,60.933c-0.02-0.409-0.372-0.604-0.662-0.791   c-0.144-0.095-0.36,0.144-0.335,0.322c0.048,0.367,0.165,0.742,0.612,0.806C48.63,61.296,48.778,61.168,48.822,60.933z" fill="#FFFFFF" fill-rule="evenodd"/><path clip-rule="evenodd" d="M85.309,59.06c0-1.882,0.053-3.764-0.022-5.643   c-0.034-0.835,0.314-0.944,0.982-0.884c0.565,0.051,1.188-0.209,1.172,0.84c-0.061,3.902-0.058,7.807-0.002,11.71   c0.016,1.063-0.645,0.755-1.193,0.823c-0.721,0.089-0.992-0.149-0.971-0.922c0.054-1.974,0.018-3.95,0.018-5.924   C85.298,59.06,85.304,59.06,85.309,59.06z" fill="#FFFFFF" fill-rule="evenodd"/><path clip-rule="evenodd" d="M71.456,61.091c-0.001-1.132,0.072-2.271-0.023-3.395   c-0.086-1.014,0.288-1.445,1.235-1.19c0.829,0.224,1.579,0.098,2.388-0.067c0.468-0.094,1.332-0.475,1.298,0.647   c-0.021,0.725,0.33,1.621-1.087,1.429c-1.33-0.179-1.647,0.882-1.692,1.931c-0.064,1.459-0.08,2.927-0.006,4.385   c0.046,0.886-0.244,1.078-1.1,1.104c-0.975,0.03-1.059-0.393-1.026-1.164C71.492,63.546,71.456,62.317,71.456,61.091z" fill="#FFFFFF" fill-rule="evenodd"/><path clip-rule="evenodd" d="M55.365,72.739c-0.525,0.388-0.686,0.97-1.284,0.816   c-0.662-0.169-1.098-0.086-1.048,0.772c0.033,0.537-0.406,0.531-0.803,0.515c-0.439-0.018-0.536-0.278-0.534-0.66   c0.01-1.272-0.004-2.547,0.012-3.821c0.004-0.34-0.153-0.817,0.449-0.841c0.414-0.019,0.844-0.09,1.085,0.423   c0.254,0.543,0.57,1.059,0.878,1.621c0.555-0.424,0.644-1.085,1.021-1.548c0.303-0.371,0.736-0.609,1.237-0.477   c0.516,0.139,0.342,0.61,0.348,0.956c0.021,1.083,0.012,2.168,0.005,3.252c-0.002,0.512,0.098,1.083-0.711,1.101   c-0.901,0.018-0.594-0.647-0.65-1.1C55.339,73.474,55.365,73.19,55.365,72.739z" fill="#FFFFFF" fill-rule="evenodd"/><path clip-rule="evenodd" d="M114.396,72.894c-0.688,1.15-1.355,0.73-2.066-0.372   c0,0.772-0.01,1.237,0.004,1.7c0.011,0.398-0.125,0.622-0.561,0.627c-0.422,0.003-0.763-0.074-0.767-0.591   c-0.009-1.368-0.016-2.737-0.019-4.105c-0.001-0.297,0.054-0.586,0.42-0.618c0.364-0.035,0.77-0.152,1.039,0.226   c0.135,0.191,0.223,0.417,0.344,0.618c0.234,0.387,0.248,1.029,0.803,1.063c0.722,0.048,0.422-0.716,0.6-1.071   c0.324-0.646,0.684-1.001,1.396-0.862c0.735,0.146,0.382,0.76,0.4,1.155c0.053,1.034,0.032,2.075,0.006,3.112   c-0.013,0.459,0.249,1.109-0.654,1.084c-0.832-0.021-0.672-0.603-0.695-1.102C114.636,73.486,114.714,73.195,114.396,72.894z" fill="#FFFFFF" fill-rule="evenodd"/><path clip-rule="evenodd" d="M68.165,71.999c0-0.893,0.025-1.364-0.007-1.829   c-0.033-0.499,0.188-0.676,0.659-0.671c0.424,0.005,0.732,0.075,0.727,0.61c-0.015,1.366,0,2.734-0.002,4.102   c-0.001,0.292-0.034,0.582-0.409,0.625c-0.387,0.044-0.761,0.029-1.005-0.348c-0.401-0.623-0.803-1.245-1.431-2.218   c0,0.816-0.011,1.255,0.003,1.694c0.019,0.528-0.053,0.92-0.745,0.898c-0.623-0.021-0.655-0.384-0.653-0.847   c0.007-1.225-0.008-2.451,0.008-3.678c0.004-0.297-0.14-0.727,0.335-0.798c0.401-0.059,0.836-0.152,1.122,0.334   C67.12,70.474,67.528,71.041,68.165,71.999z" fill="#FFFFFF" fill-rule="evenodd"/><path clip-rule="evenodd" d="M104.943,72.091c0-0.048,0-0.094,0-0.141   c0-2.525,0.528-2.936,3.092-2.455c0.378,0.07,0.597,0.156,0.585,0.596c-0.015,0.416-0.186,0.603-0.594,0.589   c-0.188-0.007-0.386-0.049-0.563-0.008c-0.396,0.093-1.1-0.285-1.083,0.478c0.016,0.663,0.657,0.307,1.015,0.361   c0.418,0.063,0.884-0.05,0.878,0.606c-0.004,0.667-0.497,0.521-0.899,0.588c-0.364,0.061-1.006-0.221-0.992,0.432   c0.017,0.726,0.691,0.415,1.106,0.479c0.457,0.071,1.136-0.249,1.129,0.621c-0.004,0.86-0.686,0.601-1.144,0.614   C104.94,74.932,104.94,74.923,104.943,72.091z" fill="#FFFFFF" fill-rule="evenodd"/><path clip-rule="evenodd" d="M59.282,72.08c0-0.141,0-0.283,0-0.425   c0.001-2.119,0.826-2.736,2.873-2.136c0.375,0.108,0.726,0.321,0.733,0.747c0.011,0.649-0.528,0.346-0.843,0.404   c-0.227,0.043-0.47,0.002-0.706,0.015c-0.326,0.017-0.715,0.003-0.674,0.488c0.036,0.395,0.385,0.335,0.654,0.35   c0.234,0.015,0.476-0.021,0.706,0.017c0.165,0.025,0.397,0.096,0.456,0.217c0.141,0.284-0.15,0.429-0.332,0.529   c-0.277,0.152-0.602,0.222-0.903,0.337c-0.302,0.115-0.676,0.184-0.541,0.653c0.101,0.355,0.413,0.329,0.69,0.342   c0.237,0.011,0.473-0.005,0.708,0.005c0.451,0.02,0.871,0.082,0.841,0.69c-0.028,0.55-0.441,0.511-0.816,0.548   C59.284,75.147,59.284,75.149,59.282,72.08z" fill="#FFFFFF" fill-rule="evenodd"/><path clip-rule="evenodd" d="M40.229,74.839c-0.611,0.034-0.855-0.175-0.679-0.67   c0.474-1.331,0.895-2.688,1.485-3.966c0.327-0.705,1.153-0.672,1.459-0.038c0.631,1.31,1.125,2.699,1.528,4.098   c0.238,0.828-0.67,0.713-0.882,0.501c-0.93-0.943-1.745-1.067-2.621,0.017C40.451,74.861,40.25,74.835,40.229,74.839z" fill="#FFFFFF" fill-rule="evenodd"/><path clip-rule="evenodd" d="M95.45,73.15c-0.609-0.215-1.075-0.381-1.541-0.544   c-0.782-0.272-1.114-0.88-1.03-1.641c0.092-0.819,0.568-1.375,1.453-1.453c0.28-0.025,0.563-0.03,0.845-0.019   c0.509,0.022,1.213,0.009,1.21,0.633c-0.005,0.608-0.613,0.663-1.186,0.555c-0.334-0.063-0.859-0.179-0.933,0.326   c-0.08,0.554,0.455,0.479,0.804,0.516c0.888,0.092,1.541,0.468,1.647,1.421c0.095,0.851-0.309,1.455-1.11,1.748   c-0.933,0.342-1.845,0.294-2.682-0.293c-0.179-0.124-0.179-0.314-0.055-0.487c0.241-0.337,0.576-0.543,0.968-0.35   C94.421,73.848,94.891,73.79,95.45,73.15z" fill="#FFFFFF" fill-rule="evenodd"/><path clip-rule="evenodd" d="M34.248,72.177c0-0.282-0.067-0.586,0.015-0.842   c0.196-0.617-0.588-1.602,0.635-1.833c1.693-0.322,2.741,0.186,3.115,1.463c0.322,1.097-0.147,1.795-1.506,1.927   c-0.75,0.074-0.986,0.31-0.916,1.019c0.045,0.46,0.109,0.978-0.653,0.943c-0.7-0.03-0.689-0.495-0.691-0.982   C34.246,73.308,34.246,72.742,34.248,72.177z M36.206,71.764c0.347-0.045,0.66-0.182,0.658-0.569   c-0.004-0.399-0.317-0.504-0.676-0.514c-0.382-0.009-0.614,0.109-0.6,0.547C35.603,71.645,35.808,71.805,36.206,71.764z" fill="#FFFFFF" fill-rule="evenodd"/><path clip-rule="evenodd" d="M82.872,69.479c0.233,0.013,0.474,0.003,0.702,0.047   c0.4,0.079,0.958,0.115,0.869,0.662c-0.067,0.41-0.469,0.643-0.991,0.536c-0.423-0.086-1.08-0.326-1.145,0.335   c-0.053,0.55,0.621,0.43,1.006,0.499c0.846,0.155,1.396,0.608,1.411,1.486c0.016,0.827-0.401,1.424-1.228,1.682   c-0.899,0.283-1.819,0.326-2.511-0.366c-0.454-0.455,0.123-0.743,0.479-0.868c0.229-0.079,0.54,0.104,0.816,0.13   c0.409,0.037,0.953,0.163,1.047-0.384c0.088-0.521-0.457-0.503-0.806-0.545c-1.016-0.12-1.734-0.54-1.625-1.687   C81.008,69.838,81.795,69.451,82.872,69.479z" fill="#FFFFFF" fill-rule="evenodd"/><path clip-rule="evenodd" d="M118.815,72.405c-0.57-0.749-0.754-1.541-0.116-2.323   c0.72-0.88,1.711-0.605,2.629-0.476c0.214,0.03,0.604,0.163,0.541,0.53c-0.061,0.347-0.324,0.578-0.688,0.602   c-0.229,0.016-0.466-0.076-0.695-0.074c-0.302,0.003-0.753-0.136-0.761,0.354c-0.005,0.402,0.37,0.48,0.721,0.508   c0.875,0.064,1.585,0.385,1.723,1.351c0.107,0.773-0.204,1.382-0.93,1.737c-0.923,0.453-1.869,0.414-2.699-0.127   c-0.703-0.459,0.005-0.746,0.28-1.056c0.269,0.067,0.537,0.129,0.803,0.203c0.473,0.133,1.033,0.184,1.139-0.374   c0.105-0.557-0.479-0.523-0.879-0.592C119.521,72.606,119.171,72.495,118.815,72.405z" fill="#FFFFFF" fill-rule="evenodd"/><path clip-rule="evenodd" d="M61.26,59.937c-0.557,0.303-1.967-0.578-1.535,1.15   c0.08,0.319-0.521,0.185-0.813,0.242c-0.067-2.874,1.418-4.628,4.204-4.983c0.528-0.067,1.038-0.131,1.34,0.449   c-0.848,0.905,0.853,0.962,0.56,1.684c-1.094-0.36-2.126-0.295-3.07,0.425c-0.091-0.136-0.161-0.334-0.375-0.253   c-0.253,0.097-0.192,0.337-0.192,0.542C61.686,59.496,61.374,59.7,61.26,59.937z M61.507,57.842   c0.219-0.145,0.379-0.223,0.493-0.344c0.037-0.039-0.059-0.197-0.093-0.3c-0.145,0.081-0.311,0.141-0.423,0.252   C61.433,57.496,61.491,57.65,61.507,57.842z" fill="#FFFFFF" fill-rule="evenodd"/><path clip-rule="evenodd" d="M45.226,69.685c1.528-0.7,1.624,0.57,2.066,1.311   c0.556-0.23,0.57-0.758,0.792-1.146c0.26-0.455,0.551-0.287,0.943-0.132c0.526,0.208,0.314,0.465,0.167,0.744   c-0.635,1.202-1.36,2.371-1.159,3.834c0.059,0.418-0.197,0.568-0.605,0.558c-0.378-0.011-0.667-0.121-0.688-0.531   c-0.042-0.837,0.073-1.68-0.403-2.464C45.925,71.183,45.611,70.446,45.226,69.685z" fill="#FFFFFF" fill-rule="evenodd"/><path clip-rule="evenodd" d="M86.664,69.682c1.495-0.712,1.549,0.695,2.154,1.368   c0.591-0.731,0.678-2.085,2.161-1.383c-0.244,0.502-0.47,1.045-0.761,1.549c-0.53,0.913-0.929,1.847-0.783,2.939   c0.049,0.361-0.047,0.67-0.491,0.688c-0.335,0.015-0.818-0.013-0.731-0.428C88.592,72.572,87.33,71.271,86.664,69.682z" fill="#FFFFFF" fill-rule="evenodd"/><path clip-rule="evenodd" d="M75.734,70.029c-0.005,0.233,0.008,0.59-0.249,0.584   c-1.673-0.032-0.979,1.217-1.087,1.995c-0.075,0.556,0.023,1.133-0.035,1.693c-0.056,0.52-0.458,0.699-0.926,0.601   c-0.459-0.094-0.672-0.56-0.452-0.865c0.667-0.926-0.249-1.862,0.118-2.802c0.125-0.318-0.353-0.598-0.797-0.561   c-0.465,0.043-0.532-0.259-0.522-0.626c0.008-0.244,0.028-0.513,0.33-0.518c1.082-0.017,2.165-0.01,3.248,0.007   C75.647,69.542,75.738,69.768,75.734,70.029z" fill="#FFFFFF" fill-rule="evenodd"/><path clip-rule="evenodd" d="M52.771,58.245c0.653-0.342,0.637-0.946,0.605-1.552   c1.642-0.007,3.148,1.579,3.453,3.651c0.034,0.229,0,0.467-0.001,0.7c-0.902,0.012-1.643-0.41-2.364-0.88   C54.358,59.12,53.497,58.741,52.771,58.245z" fill="#FFFFFF" fill-rule="evenodd"/><path clip-rule="evenodd" d="M100.1,72.615c-0.18-0.761,0.549-2.074-1.181-2.029   c-0.058,0.002-0.152-0.396-0.184-0.615c-0.04-0.281,0.123-0.442,0.4-0.445c1.064-0.005,2.142-0.202,3.169,0.271   c0.242,0.11,0.404,0.222,0.389,0.491c-0.014,0.294-0.219,0.406-0.474,0.376c-0.936-0.11-0.934,0.478-0.905,1.144   c0.034,0.748,0.001,1.501,0.025,2.25c0.015,0.507-0.135,0.799-0.706,0.793c-0.584-0.007-0.523-0.412-0.532-0.778   C100.092,73.604,100.1,73.134,100.1,72.615z" fill="#FFFFFF" fill-rule="evenodd"/><path clip-rule="evenodd" d="M51.989,64.473c1.038,0.08,1.763-0.592,2.424-1.189   c0.904-0.817,1.441,0.03,1.885,0.399c0.643,0.533-0.197,0.9-0.504,1.114c-1.308,0.906-2.675,1.748-4.388,1.102   C51.601,65.424,51.794,64.95,51.989,64.473z" fill="#FFFFFF" fill-rule="evenodd"/><path clip-rule="evenodd" d="M51.989,64.473c-0.195,0.477-0.389,0.951-0.584,1.426   c-2.008,0.006-3.195-1.096-3.882-2.874c0.708,0.069,1.061-1.058,1.895-0.564C50.049,63.419,50.904,64.094,51.989,64.473z" fill="#FFFFFF" fill-rule="evenodd"/><path clip-rule="evenodd" d="M68.662,60.195c-0.964,0.127-0.843-0.7-0.952-1.196   c-0.152-0.679,0.354-0.96,0.953-1.068C68.663,58.686,68.662,59.44,68.662,60.195z" fill="#FFFFFF" fill-rule="evenodd"/><path clip-rule="evenodd" d="M90.432,63.625c0.863,0.439,2.284,0.271,2.059,1.892   C91.537,65.179,90.816,64.583,90.432,63.625z" fill="#FFFFFF" fill-rule="evenodd"/><path clip-rule="evenodd" d="M20.753,70.967c0.124,1.123,0.176,2.243-0.056,3.36   C20.336,73.201,20.016,72.074,20.753,70.967z" fill="#FFFFFF" fill-rule="evenodd"/><path clip-rule="evenodd" d="M21.129,74.758c0.941-0.12,1.026-0.971,1.374-1.601   c0.189,0.717-0.3,1.352-0.252,2.05C21.763,75.342,21.337,75.326,21.129,74.758z" fill="#FFFFFF" fill-rule="evenodd"/><path clip-rule="evenodd" d="M67.28,56.535c-0.046,0.256,0.271,0.548-0.003,0.753   c-0.203,0.151-0.424,0-0.563-0.209C66.561,56.541,66.819,56.432,67.28,56.535z" fill="#FFFFFF" fill-rule="evenodd"/><path clip-rule="evenodd" d="M68.661,61.611c-0.184-0.026-0.405-0.046-0.405-0.282   c0-0.237,0.222-0.257,0.405-0.282C68.661,61.235,68.661,61.423,68.661,61.611z" fill="#FFFFFF" fill-rule="evenodd"/><path clip-rule="evenodd" d="M22.251,75.207c0.202,0.044,0.481,0.044,0.416,0.346   c-0.021,0.098-0.271,0.147-0.416,0.221l-0.002-0.001C22.249,75.583,22.249,75.396,22.251,75.207z" fill="#FFFFFF" fill-rule="evenodd"/><path clip-rule="evenodd" d="M68.416,65.828c0.106-0.265-0.472-0.736,0.246-0.816   C68.625,65.298,68.952,65.693,68.416,65.828z" fill="#FFFFFF" fill-rule="evenodd"/><path clip-rule="evenodd" d="M53.188,56.771c-0.341,0.045-0.586-0.052-0.637-0.433   C52.963,56.189,53.041,56.532,53.188,56.771z" fill="#FFFFFF" fill-rule="evenodd"/><path clip-rule="evenodd" d="M22.642,72.354c0.059-0.176,0.12-0.35,0.18-0.524   C22.761,72.005,22.701,72.179,22.642,72.354z" fill="#FFFFFF" fill-rule="evenodd"/><path clip-rule="evenodd" d="M19.794,74.386c0.014-0.107,0.029-0.214,0.041-0.32   c0.09,0.06,0.178,0.118,0.269,0.177C20.001,74.291,19.898,74.337,19.794,74.386z" fill="#FFFFFF" fill-rule="evenodd"/><path clip-rule="evenodd" d="M23.05,74.08c-0.02,0.189-0.038,0.379-0.057,0.568   C22.774,74.436,22.802,74.247,23.05,74.08z" fill="#FFFFFF" fill-rule="evenodd"/><path clip-rule="evenodd" d="M19.464,74.758c0.003-0.179,0.049-0.32,0.27-0.306   C19.684,74.589,19.769,74.844,19.464,74.758z" fill="#FFFFFF" fill-rule="evenodd"/><path clip-rule="evenodd" d="M23.839,75.282c-0.036-0.012-0.095-0.022-0.096-0.036   c-0.001-0.037,0.023-0.076,0.035-0.113c0.034,0.012,0.095,0.022,0.095,0.034C23.875,75.205,23.851,75.243,23.839,75.282z" fill="#FFFFFF" fill-rule="evenodd"/><path clip-rule="evenodd" d="M23.658,71.523c-0.02,0.188-0.041,0.375-0.06,0.563   C23.366,71.872,23.399,71.686,23.658,71.523z" fill="#FFFFFF" fill-rule="evenodd"/><path clip-rule="evenodd" d="M18.581,74.74c0.086-0.061,0.173-0.06,0.257,0.005   C18.75,74.858,18.665,74.856,18.581,74.74z" fill="#FFFFFF" fill-rule="evenodd"/><path clip-rule="evenodd" d="M68.67,56.794c-0.084-0.085-0.168-0.171-0.253-0.256   C68.617,56.508,68.705,56.592,68.67,56.794z" fill="#FFFFFF" fill-rule="evenodd"/><path clip-rule="evenodd" d="M114.377,62.715c0.283,0.083,0.265,0.302,0.235,0.527   c-0.202,0.307-0.523,0.509-0.731,0.133C113.689,63.034,114.091,62.853,114.377,62.715z" fill="#FFFFFF" fill-rule="evenodd"/><path clip-rule="evenodd" d="M48.822,60.933c-0.043,0.235-0.191,0.364-0.385,0.337   c-0.448-0.064-0.564-0.439-0.612-0.806c-0.025-0.178,0.191-0.417,0.335-0.322C48.45,60.329,48.802,60.523,48.822,60.933z" fill="#FFFFFF" fill-rule="evenodd"/><path clip-rule="evenodd" d="M61.507,57.842c-0.016-0.191-0.074-0.346-0.024-0.393   c0.113-0.111,0.278-0.171,0.423-0.252c0.035,0.103,0.13,0.262,0.093,0.3C61.886,57.619,61.726,57.697,61.507,57.842z" fill="#FFFFFF" fill-rule="evenodd"/><path clip-rule="evenodd" d="M61.946,58.903c-0.094,0.281-0.33,0.286-0.567,0.289   c0-0.204-0.061-0.444,0.192-0.542C61.785,58.569,61.854,58.768,61.946,58.903z" fill="#FFFFFF" fill-rule="evenodd"/></g></svg>