<?xml version="1.0" ?><!DOCTYPE svg  PUBLIC '-//W3C//DTD SVG 1.1//EN'  'http://www.w3.org/Graphics/SVG/1.1/DTD/svg11.dtd'><svg enable-background="new 0 0 128 128" height="128px" id="Layer_1" version="1.1" viewBox="0 0 128 128" width="128px" xml:space="preserve" xmlns="http://www.w3.org/2000/svg" xmlns:xlink="http://www.w3.org/1999/xlink"><path d="M127.506,101.47c0,2.243-1.817,4.061-4.061,4.061H5.567c-2.242,0-4.061-1.817-4.061-4.061V25.413  c0-2.243,1.818-4.061,4.061-4.061h117.878c2.243,0,4.061,1.818,4.061,4.061V101.47z" fill="#808080"/><g><path clip-rule="evenodd" d="M21.287,75.74c5.295,0,10.402,0,15.51,0   c1.236,0,1.286,0.028,1.023,1.202c-0.201,0.9,0.02,2.09-0.628,2.64c-0.65,0.552-1.786,0.166-2.705,0.17   c-6.005,0.016-12.009-0.009-18.012,0.026c-0.855,0.005-1.074-0.21-1.141-1.093c-0.151-1.96,0.453-3.545,1.546-5.164   c4.97-7.362,9.83-14.799,14.724-22.214c0.158-0.237,0.393-0.447,0.401-0.783c-0.343-0.205-0.712-0.105-1.059-0.105   c-4.312-0.01-8.624-0.019-12.937,0.005c-0.812,0.006-1.194-0.157-0.924-1.071c0.27-0.909-0.026-2.152,0.684-2.706   c0.657-0.513,1.793-0.145,2.716-0.147c5.374-0.012,10.747,0.011,16.12-0.023c0.824-0.005,1.022,0.245,1.084,1.06   c0.139,1.844-0.412,3.363-1.425,4.907c-4.814,7.345-9.528,14.757-14.277,22.146C21.779,74.917,21.583,75.253,21.287,75.74z" fill="#FCFDFD" fill-rule="evenodd"/><path clip-rule="evenodd" d="M51.49,68.387c-2.355,0-4.71,0.026-7.063-0.015   c-0.717-0.014-0.953,0.213-0.831,0.906c0.126,0.716,0.15,1.455,0.314,2.16c0.897,3.882,3.915,5.905,8.017,5.444   c1.758-0.197,3.36-0.752,4.728-1.887c0.498-0.413,0.783-0.41,1.151,0.185c1.251,2.018,1.281,2.058-0.763,3.266   c-3.211,1.896-6.651,2.363-10.25,1.437c-2.194-0.566-4.054-1.774-5.264-3.687c-3.147-4.97-3.875-10.267-1.417-15.713   c2.232-4.949,7.248-7.248,12.245-5.834c3.561,1.007,5.395,3.639,6.402,6.993c0.568,1.892,0.69,3.836,0.665,5.804   c-0.01,0.724-0.216,0.974-0.971,0.958C56.133,68.355,53.811,68.387,51.49,68.387z M49.332,65.302c1.66,0,3.318-0.009,4.977,0.006   c0.49,0.003,0.839-0.045,0.804-0.683c-0.095-1.75-0.438-3.419-1.462-4.885c-1.824-2.609-5.462-2.957-7.729-0.725   c-1.521,1.498-2.103,3.397-2.303,5.468c-0.068,0.702,0.219,0.841,0.837,0.83C46.08,65.283,47.706,65.302,49.332,65.302z" fill="#FCFDFD" fill-rule="evenodd"/><path clip-rule="evenodd" d="M115.233,68.387c-2.322,0-4.646,0.035-6.967-0.02   c-0.808-0.019-0.981,0.271-0.844,0.979c0.094,0.487,0.106,0.99,0.199,1.479c1.087,5.726,7.232,8.025,12.304,4.608   c1.333-0.897,1.333-0.897,2.154,0.501c0.701,1.193,0.713,1.212-0.422,1.996c-3.365,2.324-7.056,2.941-10.994,1.954   c-2.234-0.562-4.124-1.786-5.338-3.744c-3.221-5.204-3.887-10.679-1.064-16.256c2.282-4.514,7.164-6.57,11.925-5.245   c2.91,0.81,4.758,2.786,5.883,5.497c0.97,2.333,1.262,4.789,1.218,7.303c-0.013,0.723-0.238,0.978-0.986,0.964   C119.946,68.358,117.59,68.387,115.233,68.387z M113.164,65.302c1.588,0,3.18-0.048,4.764,0.021   c0.867,0.036,1.066-0.276,1.002-1.077c-0.105-1.302-0.361-2.55-0.966-3.715c-1.934-3.734-6.604-4.04-9.001-0.581   c-0.969,1.398-1.371,2.983-1.522,4.658c-0.057,0.639,0.26,0.704,0.762,0.7C109.856,65.292,111.511,65.302,113.164,65.302z" fill="#FCFDFD" fill-rule="evenodd"/><path clip-rule="evenodd" d="M64.157,66.491c0.001-2.521-0.035-5.041,0.023-7.559   c0.019-0.818-0.258-1.03-1.009-0.965c-0.657,0.056-1.324,0.022-1.988,0.007c-0.344-0.008-0.824,0.131-0.917-0.353   c-0.09-0.459-0.247-1.013,0.288-1.358c2.737-1.773,4.797-4.146,6.273-7.042c0.348-0.686,0.993-0.4,1.509-0.357   c0.533,0.046,0.352,0.55,0.366,0.882c0.024,0.53-0.013,1.063,0.009,1.592c0.042,1.12-0.469,2.577,0.188,3.266   c0.662,0.697,2.134,0.163,3.248,0.218c0.463,0.024,0.929,0.024,1.392,0c0.635-0.032,0.786,0.21,0.679,0.839   c-0.396,2.315-0.377,2.296-2.684,2.329c-0.915,0.013-2.088-0.412-2.674,0.19c-0.536,0.551-0.142,1.706-0.146,2.591   c-0.017,3.946,0.021,7.891-0.016,11.836c-0.033,3.676,1.258,4.644,5.048,4.278c0.519-0.05,1.124-0.549,1.507-0.207   c0.514,0.458,0.388,1.293,0.596,1.952c0.119,0.378-0.156,0.54-0.445,0.655c-2.614,1.034-5.285,1.319-7.948,0.296   c-2.489-0.959-3.206-3.121-3.28-5.533C64.097,71.532,64.157,69.01,64.157,66.491z" fill="#FCFDFD" fill-rule="evenodd"/><path clip-rule="evenodd" d="M93.517,60.43c0-4.773,0.022-9.547-0.02-14.32   c-0.008-0.902,0.262-1.23,1.161-1.25c0.889-0.02,1.776-0.195,2.659-0.332c0.557-0.086,0.817,0.106,0.802,0.677   c-0.013,0.464-0.008,0.927-0.008,1.391c0,8.618-0.001,17.236,0.005,25.854c0,0.563,0.023,1.127,0.076,1.688   c0.186,2.022,1.067,2.799,3.092,2.826c0.423,0.005,1.048-0.342,1.252,0.207c0.258,0.7,0.321,1.48,0.406,2.231   c0.031,0.274-0.299,0.309-0.52,0.371c-1.757,0.494-3.52,0.586-5.284,0.038c-2.339-0.726-3.392-2.452-3.521-4.768   c-0.225-4.04-0.049-8.086-0.092-12.129c-0.009-0.828-0.002-1.658-0.002-2.485C93.521,60.43,93.52,60.43,93.517,60.43z" fill="#FCFDFD" fill-rule="evenodd"/><path clip-rule="evenodd" d="M79.813,66.684c0-2.621-0.018-5.241,0.013-7.86   c0.008-0.641-0.175-0.898-0.837-0.855c-0.727,0.048-1.46,0.024-2.188,0.003c-0.336-0.009-0.825,0.147-0.889-0.371   c-0.059-0.461-0.235-1.004,0.297-1.362c0.304-0.203,0.606-0.405,0.902-0.62c2.183-1.592,3.862-3.614,5.136-5.988   c0.177-0.33,0.255-0.74,0.768-0.818c1.044-0.161,1.289,0.019,1.29,1.085c0.001,1.326,0.035,2.654-0.018,3.979   c-0.029,0.725,0.161,1.004,0.934,0.966c1.257-0.063,2.522,0.027,3.778-0.033c0.827-0.038,0.977,0.31,0.815,1.007   c-0.583,2.539,0.163,2.12-2.521,2.159c-0.763,0.012-1.526,0.02-2.289-0.004c-0.485-0.014-0.721,0.119-0.718,0.665   c0.024,4.875,0.022,9.751,0.048,14.625c0.001,0.493,0.086,0.994,0.201,1.476c0.268,1.135,0.952,1.877,2.138,2.073   c0.423,0.069,0.854,0.125,1.282,0.131c1.967,0.025,1.954,0.021,2.248,2c0.076,0.501-0.074,0.716-0.563,0.836   c-2,0.489-4.005,0.606-5.992,0.015c-2.261-0.673-3.651-2.418-3.754-4.955c-0.11-2.713-0.025-5.438-0.025-8.155   C79.851,66.684,79.832,66.684,79.813,66.684z" fill="#FCFDFD" fill-rule="evenodd"/><path clip-rule="evenodd" d="M11.954,67.703c0,3.684-0.02,7.366,0.017,11.048   c0.007,0.776-0.208,1.081-1.011,1.022c-0.857-0.063-1.729-0.069-2.586,0.002c-0.835,0.069-0.98-0.288-0.979-1.035   c0.025-6.668,0.009-13.337,0.022-20.006c0.002-0.854-0.343-1.895,0.162-2.514c0.484-0.594,1.556-0.333,2.365-0.458   c2.014-0.313,2.013-0.304,2.012,1.688C11.954,60.868,11.955,64.285,11.954,67.703z" fill="#FCFDFD" fill-rule="evenodd"/><path clip-rule="evenodd" d="M9.652,46.498c1.582-0.008,2.861,1.242,2.881,2.816   c0.021,1.574-1.237,2.895-2.784,2.923c-1.596,0.028-2.925-1.276-2.935-2.879C6.804,47.802,8.093,46.505,9.652,46.498z" fill="#FCFDFD" fill-rule="evenodd"/></g></svg>