<?xml version="1.0" ?><!DOCTYPE svg  PUBLIC '-//W3C//DTD SVG 1.1//EN'  'http://www.w3.org/Graphics/SVG/1.1/DTD/svg11.dtd'><svg enable-background="new 0 0 128 128" height="128px" id="Layer_1" version="1.1" viewBox="0 0 128 128" width="128px" xml:space="preserve" xmlns="http://www.w3.org/2000/svg" xmlns:xlink="http://www.w3.org/1999/xlink"><path d="M127.014,101.481c0,2.243-1.817,4.061-4.061,4.061H5.075c-2.242,0-4.061-1.817-4.061-4.061V25.425  c0-2.243,1.818-4.061,4.061-4.061h117.878c2.243,0,4.061,1.818,4.061,4.061V101.481z" fill="#808080"/><g><path clip-rule="evenodd" d="M76.674,47.136c1.42-0.99,2.887-1.381,4.485-1.299   c2.347,0.117,3.699,1.184,3.997,3.494c0.445,3.489,0.343,7.023,0.106,10.509c-0.11,1.634-1.882,0.47-2.858,0.747   c-0.754,0.211-1.088-0.228-1.078-1.027c0.029-2.448,0.013-4.896,0.009-7.345c-0.002-0.529-0.01-1.06-0.046-1.588   c-0.063-0.966-0.587-1.459-1.561-1.529c-1.998-0.142-2.904,0.659-2.904,2.604c0,2.572-0.024,5.143,0.014,7.712   c0.014,0.893-0.285,1.234-1.203,1.211c-3.329-0.083-2.804,0.435-2.829-2.733c-0.029-3.55,0.023-7.101-0.024-10.649   c-0.014-0.964,0.287-1.362,1.253-1.253c0.403,0.046,0.82,0.048,1.223,0C76.057,45.896,76.606,46.123,76.674,47.136z" fill="#F8FBFC" fill-rule="evenodd"/><path clip-rule="evenodd" d="M61.099,54.741c0,1.854-0.021,3.323,0.008,4.791   c0.015,0.762-0.25,1.232-1.054,1.065c-0.94-0.195-2.132,0.648-2.819-0.69c-0.136-0.264-0.419,0.046-0.61,0.149   c-0.58,0.306-1.175,0.546-1.83,0.655c-3.562,0.594-6.243-1.249-5.276-5.854c0.313-1.481,1.516-2.146,2.882-2.519   c1.072-0.292,2.178-0.263,3.275-0.345c0.474-0.037,1.297,0.509,1.399-0.583c0.123-1.307-0.292-2.08-1.31-2.265   c-0.316-0.058-0.65-0.047-0.975-0.036c-1.182,0.034-2.366,0.041-3.543,0.136c-0.741,0.062-1.009-0.164-1.033-0.926   c-0.058-1.889-0.095-1.907,1.846-2.221c1.9-0.309,3.81-0.461,5.7,0.061c1.887,0.521,2.965,1.772,3.228,3.715   C61.224,51.62,61.025,53.376,61.099,54.741z M57.239,55.7c-0.379-0.357,0.441-1.262-0.536-1.401   c-0.831-0.118-1.705-0.123-2.534,0.192c-0.795,0.3-0.917,0.982-0.952,1.686c-0.026,0.567-0.041,1.2,0.59,1.488   c1.008,0.459,2.007,0.195,2.949-0.229C57.516,57.095,57.056,56.351,57.239,55.7z" fill="#F8FBFC" fill-rule="evenodd"/><path clip-rule="evenodd" d="M98.896,55.179c0,1.468-0.021,2.938,0.009,4.409   c0.016,0.714-0.232,1.146-0.979,1.01c-0.989-0.182-2.207,0.608-2.957-0.7c-0.108-0.188-0.431,0.088-0.636,0.199   c-0.616,0.332-1.263,0.562-1.961,0.653c-3.894,0.502-5.998-1.879-5.022-5.984c0.327-1.377,1.439-2.021,2.711-2.393   c1.106-0.325,2.252-0.313,3.394-0.377c0.53-0.029,1.438,0.451,1.424-0.726c-0.012-0.983-0.103-1.934-1.34-2.124   c-0.44-0.068-0.896-0.045-1.345-0.038c-0.979,0.021-1.957,0.069-2.937,0.086c-0.472,0.006-1.236,0.351-1.163-0.544   c0.067-0.816-0.684-2.026,0.722-2.365c1.993-0.478,4.04-0.651,6.074-0.298c2.586,0.446,3.895,2.042,3.989,4.783   c0.051,1.467,0.01,2.938,0.01,4.408C98.89,55.179,98.893,55.179,98.896,55.179z M95.015,55.795   c-0.264-0.461,0.422-1.328-0.479-1.489c-0.822-0.146-1.708-0.138-2.537,0.174c-0.663,0.25-0.934,0.756-0.945,1.425   c-0.01,0.599-0.207,1.305,0.426,1.68c0.969,0.573,1.966,0.263,2.947-0.08C95.354,57.18,94.824,56.396,95.015,55.795z" fill="#F8FBFC" fill-rule="evenodd"/><path clip-rule="evenodd" d="M27.04,50.95c0-2.73-0.008-5.462,0.003-8.194   c0.006-1.461,0.271-1.714,1.71-1.731c2.534-0.029,2.534-0.029,2.534,2.479c0,5.015,0.001,10.029-0.001,15.043   c0,1.721-0.278,2.021-1.953,2.012c-2.632-0.01-2.272,0.25-2.29-2.272C27.026,55.842,27.04,53.396,27.04,50.95z" fill="#F8FBFC" fill-rule="evenodd"/><path clip-rule="evenodd" d="M43.521,50.698c0-2.852,0.024-5.707-0.015-8.561   c-0.012-0.83,0.215-1.13,1.095-1.133c2.871-0.008,2.871-0.044,2.871,2.875c0,5.136-0.022,10.273,0.02,15.411   c0.007,0.972-0.208,1.366-1.271,1.349c-2.7-0.042-2.701,0.007-2.701-2.725C43.521,55.509,43.521,53.105,43.521,50.698z" fill="#F8FBFC" fill-rule="evenodd"/><path clip-rule="evenodd" d="M63.391,53.177c0-2.038,0.034-4.077-0.018-6.114   c-0.02-0.805,0.243-1.122,1.04-1.075c0.649,0.041,1.303,0.005,1.956,0.013c0.2,0.004,0.54-0.013,0.581,0.082   c0.601,1.377,1.303,0.282,1.963,0.103c0.735-0.201,1.686-0.73,2.183-0.14c0.548,0.65,0.167,1.718,0.169,2.604   c0.002,0.277-0.226,0.407-0.504,0.42c-0.243,0.012-0.487,0.02-0.731,0.046c-2.278,0.235-2.67,0.663-2.67,2.916   c-0.001,2.486-0.028,4.974,0.015,7.46c0.015,0.85-0.271,1.157-1.123,1.132c-3.465-0.108-2.792,0.487-2.855-2.802   C63.366,56.274,63.391,54.726,63.391,53.177z" fill="#F8FBFC" fill-rule="evenodd"/><path clip-rule="evenodd" d="M33.114,50.178c-0.651,0.128-0.692-0.236-0.67-0.78   c0.162-4.079,4.286-8.179,8.404-8.36c0.592-0.028,0.758,0.128,0.754,0.734C41.579,45.772,37.203,50.139,33.114,50.178z" fill="#F8FBFC" fill-rule="evenodd"/><path clip-rule="evenodd" d="M41.597,59.935c0.057,0.408-0.057,0.657-0.648,0.646   c-4.132-0.081-8.442-4.378-8.524-8.487c-0.012-0.638,0.195-0.75,0.768-0.704c4.134,0.338,7.853,3.871,8.367,7.978   C41.579,59.527,41.581,59.692,41.597,59.935z" fill="#F8FBFC" fill-rule="evenodd"/><path clip-rule="evenodd" d="M83.623,67.618c-0.624-0.138-1.449,0.684-1.634-0.239   c-0.16-0.813,0.849-0.683,1.365-0.843c1.132-0.35,2.309-0.49,3.501-0.339c0.871,0.111,1.735,0.281,2.044,1.259   c0.308,0.979-0.294,1.621-0.953,2.21c-0.181,0.161-0.379,0.303-0.575,0.458c0.152,0.48,0.61,0.348,0.903,0.478   c1.741,0.774,2.205,2.348,1.087,3.897c-0.82,1.136-2.014,1.765-3.271,2.268c-1.37,0.548-2.819,0.795-4.286,0.907   c-1.194,0.092-1.569-0.409-1.167-1.525c0.885-2.45,1.785-4.895,2.679-7.341C83.451,68.437,83.672,68.089,83.623,67.618z    M81.567,76.563c1.736,0.018,3.674-0.428,5.006-1.119c0.766-0.397,1.489-0.86,1.983-1.588c0.42-0.615,0.565-1.273,0.012-1.904   c-0.739-0.843-4.293-1.093-5.121-0.356c-0.111,0.099-0.162,0.273-0.217,0.422C82.684,73.503,82.143,74.989,81.567,76.563z    M86.276,67.141c-0.578,0.105-1.311-0.175-1.519,0.676c-0.195,0.804-1.094,1.863-0.591,2.29c0.595,0.506,1.614-0.299,2.4-0.681   c0.44-0.214,0.841-0.493,1.143-0.89c0.43-0.57,0.254-0.994-0.375-1.217C86.998,67.198,86.619,67.195,86.276,67.141z" fill="#ECF5F9" fill-rule="evenodd"/><path clip-rule="evenodd" d="M28.707,75.177c-1.933,1.38-3.564,2.981-4.057,5.439   c-0.073,0.363-0.209,0.782-0.688,0.678c-0.508-0.11-0.406-0.565-0.303-0.905c0.377-1.244,0.808-2.473,1.173-3.72   c0.119-0.409,0.456-0.79,0.212-1.405c-1.607,1.406-3.153,2.762-3.897,4.796c-0.153,0.42-0.283,0.849-0.451,1.264   c-0.116,0.28-0.322,0.485-0.667,0.388c-0.376-0.108-0.325-0.423-0.292-0.703c0.088-0.739,0.449-1.389,0.701-2.073   c0.65-1.753,1.254-3.525,1.888-5.285c0.121-0.336,0.243-0.81,0.709-0.673c0.545,0.155,0.386,0.604,0.235,1.01   c-0.208,0.561-0.384,1.131-0.643,1.906c1.107-0.534,1.638-1.444,2.471-1.962c0.501-0.312,1.001-0.977,1.607-0.497   c0.58,0.457-0.074,1.023-0.19,1.542c-0.034,0.152-0.088,0.299-0.146,0.494c0.44,0.165,0.607-0.182,0.832-0.355   c0.773-0.6,1.53-1.219,2.304-1.814c0.314-0.241,0.697-0.302,1.029-0.07c0.402,0.276,0.194,0.638,0.049,0.982   c-0.902,2.14-1.617,4.344-2.245,6.578c-0.111,0.394-0.188,0.885-0.758,0.721c-0.515-0.147-0.318-0.613-0.222-0.933   c0.51-1.715,1.055-3.419,1.588-5.127c0.01-0.13,0.021-0.262,0.033-0.393C28.892,75.098,28.799,75.138,28.707,75.177z" fill="#ECF5F9" fill-rule="evenodd"/><path clip-rule="evenodd" d="M14.031,71.021c0.687,0.073,1.486,0.105,1.784,0.941   c0.271,0.763,0.001,1.442-0.593,1.989c-0.231,0.213-0.507,0.33-0.77,0.124c-0.278-0.221-0.147-0.481-0.004-0.76   c0.562-1.087,0.416-1.329-0.767-1.243c-1.417,0.105-2.705,0.585-3.814,1.485c-0.375,0.306-0.796,0.647-0.687,1.213   c0.106,0.55,0.652,0.585,1.061,0.694c1.102,0.292,2.226,0.498,3.33,0.788c1.659,0.435,2.19,1.703,1.362,3.17   c-1.064,1.886-5.159,3.758-7.25,3.321c-1.006-0.209-1.582-0.798-1.643-1.838c-0.057-0.952,0.925-2.69,1.612-2.857   c0.19-0.045,0.42-0.069,0.546,0.151c0.137,0.24,0.089,0.476-0.083,0.679c-0.339,0.405-0.711,0.784-0.913,1.292   c-0.377,0.963-0.063,1.625,0.932,1.607c2.314-0.042,4.297-0.939,5.771-2.741c0.737-0.9,0.447-1.561-0.709-1.862   c-1.142-0.298-2.315-0.484-3.447-0.814c-1.879-0.548-2.223-2.016-0.789-3.364C10.361,71.683,12.089,71.13,14.031,71.021z" fill="#ECF5F9" fill-rule="evenodd"/><path clip-rule="evenodd" d="M119.223,73.472c-0.781,0.604-1.312,1.121-1.938,1.471   c-1.066,0.598-1.837,0.142-1.95-1.072c-0.083-0.87,0.034-1.709,0.447-2.493c1.195-2.277,3.191-3.656,5.394-4.804   c0.372-0.193,0.689-0.087,1.002,0.181c0.309,0.262,0.319,0.527,0.164,0.865c-1.345,2.94-2.035,6.102-3.066,9.147   c-0.198,0.581-0.484,1.121-0.896,1.588c-0.7,0.797-1.58,1.152-2.624,0.993c-0.482-0.073-1.268,0.02-1.174-0.735   c0.098-0.781,0.783-0.291,1.195-0.262c0.814,0.061,1.457-0.207,1.906-0.863C118.473,76.333,118.796,75.005,119.223,73.472z    M120.905,68.032c-0.954,0.366-1.743,0.927-2.467,1.581c-1.01,0.913-1.882,1.925-2.082,3.335c-0.051,0.374-0.224,0.893,0.173,1.11   c0.405,0.227,0.76-0.182,1.047-0.447C119.229,72.094,120.145,70.124,120.905,68.032z" fill="#ECF5F9" fill-rule="evenodd"/><path clip-rule="evenodd" d="M72.305,76.44c-0.711,0.626-1.181,1.075-1.688,1.479   c-0.509,0.408-1.132,0.598-1.715,0.281c-0.553-0.3-0.591-0.929-0.61-1.516c-0.036-1.156,0.387-2.161,1.039-3.075   c1.218-1.702,2.886-2.856,4.718-3.808c0.394-0.205,0.754-0.242,1.122,0.092c0.349,0.313,0.277,0.638,0.122,0.991   c-1.238,2.808-1.954,5.785-2.886,8.694c-0.727,2.27-2.043,3.213-3.893,2.897c-0.426-0.073-1.029-0.072-0.953-0.692   c0.093-0.753,0.697-0.355,1.072-0.296c1.098,0.174,1.813-0.334,2.305-1.23C71.546,79.148,71.87,77.932,72.305,76.44z    M73.864,71.229c-2.072,1.123-3.986,2.402-4.522,4.91c-0.078,0.363-0.245,0.87,0.218,1.095c0.379,0.184,0.688-0.172,0.95-0.405   C72.194,75.326,73.104,73.342,73.864,71.229z" fill="#ECF5F9" fill-rule="evenodd"/><path clip-rule="evenodd" d="M34.17,73.752c0.417-0.359,0.775-0.68,1.146-0.985   c0.576-0.477,1.228-0.74,1.909-0.296c0.708,0.461,0.836,1.21,0.597,1.961c-0.86,2.692-2.537,4.774-5.085,5.974   c-0.911,0.428-1.442,0.891-1.66,1.822c-0.11,0.477-0.273,0.941-0.458,1.393c-0.198,0.48-0.13,1.439-0.874,1.196   c-0.875-0.283-0.189-1.058-0.027-1.558c0.867-2.677,1.794-5.329,2.697-7.992c0.196-0.578,0.351-1.174,0.58-1.739   c0.18-0.444,0.095-1.24,0.859-1.1C34.576,72.56,33.989,73.258,34.17,73.752z M32.298,79.422c2.12-1.045,3.602-2.68,4.427-4.9   c0.139-0.37,0.387-0.815-0.052-1.11c-0.433-0.29-0.749,0.104-1.053,0.363C33.884,75.258,32.966,77.242,32.298,79.422z" fill="#ECF5F9" fill-rule="evenodd"/><path clip-rule="evenodd" d="M47.156,73.943c-0.175-0.172-0.379-0.05-0.574-0.053   c-0.438-0.005-1.117,0.428-1.195-0.329c-0.066-0.632,0.655-0.635,1.106-0.675c1.016-0.087,1.57-0.59,1.886-1.561   c0.328-1.009,0.891-1.925,1.611-2.721c0.537-0.592,1.227-0.907,1.978-0.562c0.785,0.363,0.935,1.185,1.051,1.963   c0.041,0.264-0.104,0.499-0.363,0.57c-0.35,0.096-0.487-0.155-0.62-0.438c-0.194-0.409-0.035-1.131-0.692-1.145   c-0.645-0.015-0.904,0.625-1.208,1.097c-0.414,0.64-0.784,1.309-0.938,2.163c0.468-0.044,0.863-0.092,1.258-0.116   c0.291-0.018,0.605-0.013,0.668,0.362c0.058,0.342-0.161,0.61-0.466,0.594c-2.4-0.128-2.691,1.728-3.208,3.37   c-0.636,2.02-1.247,4.047-1.899,6.061c-0.155,0.479-0.052,1.414-0.864,1.158c-0.793-0.251-0.187-1.008-0.067-1.48   c0.655-2.564,1.501-5.074,2.391-7.568C47.091,74.414,47.267,74.21,47.156,73.943z" fill="#ECF5F9" fill-rule="evenodd"/><path clip-rule="evenodd" d="M110.828,69.679c1.148-0.978,2.02-1.744,2.917-2.477   c0.338-0.273,0.738-0.66,1.194-0.31c0.426,0.324,0.259,0.826,0.106,1.246c-0.813,2.262-1.548,4.546-2.127,6.879   c-0.098,0.391-0.213,0.753-0.702,0.63c-0.543-0.135-0.361-0.601-0.274-0.912c0.447-1.608,0.945-3.202,1.4-4.807   c0.107-0.375,0.384-0.729,0.221-1.289c-2.039,1.516-3.464,3.382-4.301,5.699c-0.084,0.229-0.157,0.464-0.217,0.7   c-0.09,0.352-0.252,0.636-0.664,0.545c-0.438-0.098-0.427-0.457-0.323-0.782c0.785-2.442,1.583-4.881,2.375-7.319   c0.101-0.313,0.297-0.516,0.627-0.43c0.336,0.087,0.41,0.38,0.328,0.688C111.247,68.278,111.081,68.811,110.828,69.679z" fill="#ECF5F9" fill-rule="evenodd"/><path clip-rule="evenodd" d="M63.95,72.831c1.103-0.955,1.952-1.706,2.822-2.431   c0.371-0.311,0.819-0.703,1.298-0.314c0.467,0.378,0.163,0.894,0.005,1.352c-0.738,2.153-1.47,4.308-2.017,6.521   c-0.097,0.395-0.104,1.028-0.773,0.834c-0.566-0.168-0.32-0.659-0.214-1.037c0.565-1.98,1.141-3.961,1.761-6.113   c-2.243,1.683-3.771,3.667-4.594,6.18c-0.141,0.43-0.13,1.158-0.842,0.882c-0.543-0.212-0.221-0.779-0.093-1.184   c0.698-2.208,1.41-4.414,2.125-6.619c0.108-0.335,0.177-0.807,0.684-0.677c0.594,0.153,0.354,0.623,0.265,1.003   C64.274,71.655,64.15,72.077,63.95,72.831z" fill="#ECF5F9" fill-rule="evenodd"/><path clip-rule="evenodd" d="M91.867,75.141c2.396-1.303,3.762-3.394,4.627-5.906   c0.16-0.465,0.214-1.436,0.945-1.143c0.82,0.332,0.139,1.073-0.065,1.564c-0.845,2.026-1.895,3.97-2.452,6.113   c-0.084,0.326-0.229,0.655-0.657,0.562c-0.429-0.091-0.442-0.398-0.319-0.758c0.063-0.185,0.088-0.386,0.185-0.845   c-0.87,0.654-1.54,1.186-2.238,1.672c-0.359,0.251-0.764,0.559-1.229,0.241c-0.522-0.356-0.362-0.882-0.205-1.332   c0.79-2.271,1.738-4.479,2.752-6.658c0.152-0.331,0.34-0.6,0.728-0.45c0.503,0.193,0.316,0.558,0.17,0.911   c-0.823,1.95-1.638,3.903-2.455,5.856c-0.002,0.095-0.004,0.188-0.007,0.282C91.719,75.215,91.792,75.177,91.867,75.141z" fill="#ECF5F9" fill-rule="evenodd"/><path clip-rule="evenodd" d="M53.116,77.541c1.398-2.003,2.6-3.723,3.802-5.446   c0.163-0.233,0.317-0.476,0.49-0.702c0.203-0.266,0.431-0.548,0.805-0.299c0.373,0.251,0.22,0.566,0.027,0.852   c-0.365,0.541-0.738,1.075-1.11,1.611c-1.951,2.815-3.897,5.636-5.859,8.443c-0.234,0.335-0.45,0.964-1.001,0.588   c-0.534-0.366-0.114-0.847,0.177-1.138c1.509-1.508,1.768-3.354,1.636-5.365c-0.079-1.178,0.006-2.366,0.034-3.549   c0.008-0.386-0.112-0.911,0.499-0.93c0.646-0.02,0.495,0.521,0.499,0.897C53.124,74.053,53.116,75.604,53.116,77.541z" fill="#ECF5F9" fill-rule="evenodd"/><path clip-rule="evenodd" d="M99.969,74.451c1.464-2.1,2.755-3.961,4.062-5.815   c0.261-0.369,0.497-1.043,1.088-0.591c0.495,0.379-0.021,0.799-0.256,1.14c-2.219,3.217-4.442,6.431-6.678,9.637   c-0.26,0.371-0.525,1.039-1.096,0.608c-0.46-0.35-0.04-0.854,0.259-1.155c1.466-1.479,1.716-3.276,1.59-5.25   c-0.093-1.461,0.003-2.932,0.021-4.4c0.005-0.387,0.08-0.778,0.586-0.737c0.449,0.036,0.422,0.424,0.422,0.751   C99.969,70.468,99.969,72.3,99.969,74.451z" fill="#ECF5F9" fill-rule="evenodd"/><path clip-rule="evenodd" d="M38.192,79.606c0.731-2.884,1.733-5.679,2.752-8.467   c0.238-0.649,0.485-1.295,0.75-1.934c0.136-0.326,0.259-0.794,0.738-0.617c0.539,0.201,0.325,0.63,0.183,1.028   c-0.965,2.723-1.922,5.445-2.865,8.174c-0.225,0.651-0.398,1.324-0.564,1.994c-0.094,0.381-0.178,0.774-0.676,0.641   C38.114,80.318,38.136,79.944,38.192,79.606z" fill="#ECF5F9" fill-rule="evenodd"/><path clip-rule="evenodd" d="M104.738,74.8c0.594-2.211,1.348-4.475,2.229-6.698   c0.146-0.372,0.388-0.525,0.752-0.359c0.331,0.151,0.294,0.442,0.182,0.729c-0.861,2.188-1.558,4.432-2.193,6.693   c-0.097,0.349-0.318,0.586-0.718,0.454C104.626,75.5,104.698,75.188,104.738,74.8z" fill="#ECF5F9" fill-rule="evenodd"/><path clip-rule="evenodd" d="M61.097,71.344c-0.063,0.193-0.116,0.391-0.189,0.579   c-0.761,1.968-1.402,3.976-1.967,6.009c-0.111,0.396-0.166,1.015-0.811,0.809c-0.549-0.177-0.296-0.658-0.196-1.042   c0.558-2.121,1.284-4.188,2.058-6.236c0.125-0.329,0.235-0.75,0.724-0.669C60.976,70.836,61.098,71.07,61.097,71.344z" fill="#ECF5F9" fill-rule="evenodd"/><path clip-rule="evenodd" d="M19.665,74.124c-0.057,0.187-0.102,0.388-0.175,0.576   c-0.77,1.976-1.406,3.993-1.975,6.035c-0.109,0.395-0.162,1.017-0.825,0.772c-0.564-0.208-0.252-0.671-0.157-1.048   c0.535-2.138,1.289-4.205,2.055-6.27c0.113-0.302,0.229-0.638,0.663-0.587C19.55,73.639,19.647,73.845,19.665,74.124z" fill="#ECF5F9" fill-rule="evenodd"/><path clip-rule="evenodd" d="M41.588,79.031c0.616-2.244,1.363-4.528,2.26-6.763   c0.117-0.293,0.363-0.459,0.689-0.323c0.353,0.146,0.307,0.477,0.208,0.734c-0.845,2.21-1.544,4.467-2.194,6.739   c-0.087,0.303-0.28,0.541-0.61,0.476C41.513,79.811,41.541,79.448,41.588,79.031z" fill="#ECF5F9" fill-rule="evenodd"/><path clip-rule="evenodd" d="M99.975,45.745c-0.087,0.058-0.254,0.11-0.264,0.184   c-0.02,0.176,0.119,0.276,0.294,0.305c0.296,0.047,0.484-0.438,0.86-0.137c0.161,0.13,0.692-0.338,0.573,0.323   c-0.02,0.117,0.022,0.677-0.24,0.313c-0.307-0.426-0.795,0.798-0.813-0.178C100.381,46.243,100.405,45.891,99.975,45.745z" fill="#ECF5F9" fill-rule="evenodd"/><path clip-rule="evenodd" d="M62.019,68.685c-0.137,0.427-0.149,0.982-0.71,1.123   c-0.304,0.076-0.592-0.187-0.516-0.49c0.119-0.472,0.12-1.105,0.769-1.216C61.885,68.045,62.026,68.342,62.019,68.685z" fill="#ECF5F9" fill-rule="evenodd"/><path clip-rule="evenodd" d="M20.585,71.548c-0.18,0.396-0.142,0.991-0.756,1.075   c-0.347,0.048-0.552-0.28-0.458-0.549c0.156-0.445,0.094-1.122,0.817-1.156C20.582,70.9,20.589,71.229,20.585,71.548z" fill="#ECF5F9" fill-rule="evenodd"/><path clip-rule="evenodd" d="M108.215,66.727c-0.431-0.042-0.6-0.283-0.53-0.582   c0.103-0.445,0.112-1.013,0.696-1.141c0.314-0.07,0.592,0.172,0.526,0.487C108.807,65.976,108.721,66.519,108.215,66.727z" fill="#ECF5F9" fill-rule="evenodd"/><path clip-rule="evenodd" d="M45.758,69.797c-0.178,0.39-0.12,0.991-0.728,1.115   c-0.344,0.069-0.564-0.193-0.492-0.522c0.099-0.458,0.119-1.031,0.712-1.161C45.6,69.151,45.749,69.422,45.758,69.797z" fill="#ECF5F9" fill-rule="evenodd"/><path clip-rule="evenodd" d="M28.707,75.177c0.092-0.039,0.185-0.079,0.276-0.118   c-0.012,0.131-0.023,0.263-0.033,0.393C28.869,75.36,28.787,75.269,28.707,75.177z" fill="#0186D2" fill-rule="evenodd"/><path clip-rule="evenodd" d="M91.867,75.141c-0.075,0.036-0.148,0.074-0.223,0.11   c0.003-0.095,0.005-0.188,0.007-0.282C91.724,75.026,91.795,75.084,91.867,75.141z" fill="#0186D2" fill-rule="evenodd"/></g></svg>