<?xml version="1.0" ?><!DOCTYPE svg  PUBLIC '-//W3C//DTD SVG 1.1//EN'  'http://www.w3.org/Graphics/SVG/1.1/DTD/svg11.dtd'><svg enable-background="new 0 0 128 128" height="128px" id="Layer_1" version="1.1" viewBox="0 0 128 128" width="128px" xml:space="preserve" xmlns="http://www.w3.org/2000/svg" xmlns:xlink="http://www.w3.org/1999/xlink"><path d="M127.174,102c0,2.243-1.817,4.061-4.061,4.061H5.235c-2.242,0-4.061-1.817-4.061-4.061V25.943  c0-2.243,1.818-4.061,4.061-4.061h117.878c2.243,0,4.061,1.818,4.061,4.061V102z" fill="#808080"/><g><path clip-rule="evenodd" d="M84.294,30.691c1.678,0,3.355,0,5.033,0   c0.842,0.099,1.691,0.089,2.534,0.221c2.661,0.42,5.232,1.146,7.707,2.208c3.345,1.438,6.389,3.358,9.069,5.819   c2.812,2.581,5.142,5.546,6.905,8.95c1.498,2.893,2.575,5.924,3.163,9.131c0.192,1.047,0.313,2.098,0.325,3.163   c0.002,0.116-0.04,0.24,0.046,0.347c0,1.617,0,3.235,0,4.852c-0.098,0.679-0.052,1.367-0.144,2.046   c-0.436,3.229-1.351,6.315-2.73,9.269c-1.381,2.952-3.153,5.648-5.345,8.053c-2.272,2.492-4.862,4.611-7.799,6.291   c-3.32,1.9-6.851,3.215-10.623,3.868c-0.899,0.155-1.805,0.26-2.719,0.27c-0.131,0-0.27-0.045-0.391,0.043   c-1.678,0-3.355,0-5.033,0c-0.842-0.099-1.69-0.088-2.531-0.219c-2.646-0.413-5.2-1.14-7.661-2.19   c-3.075-1.314-5.89-3.056-8.427-5.239c-0.218-0.188-0.506-0.348-0.474-0.711c0.083-0.22,0.261-0.364,0.418-0.523   c0.735-0.743,1.499-1.464,2.171-2.269c0.123-0.147,0.278-0.273,0.34-0.498c-0.151-0.127-0.336-0.075-0.502-0.076   c-1.721-0.005-3.444-0.013-5.165,0.004c-0.448,0.005-0.769-0.142-1.033-0.5c-0.561-0.757-1.136-1.506-1.654-2.294   c-0.127-0.195-0.341-0.405-0.198-0.647c0.127-0.214,0.403-0.156,0.624-0.157c3.293-0.005,6.587-0.016,9.88,0.01   c0.587,0.004,0.94-0.182,1.212-0.698c0.377-0.714,0.771-1.419,1.12-2.149c0.156-0.329,0.116-0.394-0.248-0.397   c-0.809-0.01-1.617-0.004-2.425-0.004c-3.788,0-7.575-0.013-11.362,0.012c-0.654,0.006-1.02-0.208-1.246-0.825   c-0.256-0.702-0.562-1.387-0.814-2.092c-0.197-0.551-0.109-0.679,0.468-0.687c0.867-0.011,1.736-0.003,2.604-0.003   c4.625,0,9.251,0,13.877,0c0.806,0,0.804-0.002,1.021-0.755c0.079-0.272,0.143-0.551,0.249-0.814   c0.123-0.36,0.484-0.506,0.711-0.772c0.144-0.167,0.313-0.313,0.448-0.49c0.877-0.677,1.463-1.536,1.604-2.653   c0.105-0.823,0.093-1.645-0.229-2.43c-0.201-0.495-0.531-0.897-0.959-1.22c-0.188-0.142-0.406-0.264-0.466-0.524   c-0.026-0.583-0.09-1.166,0.039-1.745c0.127-0.188,0.315-0.108,0.482-0.099c0.229,0.013,0.349-0.083,0.401-0.306   c0.055-0.238,0.048-0.505,0.265-0.678c0.71-0.099,0.714-0.099,0.837-0.841c0.083-0.5,0.19-0.993,0.287-1.489   c0.115-0.597,0.117-0.61-0.466-0.681c-0.562-0.068-1.122-0.127-1.688-0.148c-0.191-0.007-0.391,0.016-0.551-0.13   c-0.149-0.202-0.175-0.445-0.217-0.68c-0.053-0.299-0.21-0.445-0.519-0.437c-0.164,0.005-0.33-0.001-0.494-0.001   c-5.946,0-11.892,0-17.838,0c-0.968-0.001-1.013-0.059-0.782-0.999c0.149-0.611,0.332-1.212,0.509-1.817   c0.209-0.713,0.304-0.781,1.04-0.781c2.906-0.004,5.812-0.002,8.717-0.002c2.517,0,5.033,0,7.55,0c0.119,0,0.239-0.001,0.359-0.003   c0.23-0.002,0.345-0.1,0.26-0.336c-0.317-0.89-0.65-1.772-1.059-2.624c-0.088-0.179-0.243-0.253-0.438-0.263   c-0.164-0.007-0.329-0.007-0.494-0.007c-4.449,0-8.896,0-13.345,0c-0.943,0-0.987-0.077-0.574-0.919   c0.349-0.714,0.744-1.402,1.132-2.094c0.243-0.431,0.57-0.594,1.06-0.592c3.31,0.012,6.62,0.007,9.93,0.003   c0.173-0.001,0.414,0.089,0.5-0.088c0.08-0.165-0.12-0.319-0.217-0.464c-0.508-0.76-1.063-1.487-1.607-2.22   c-0.246-0.332-0.542-0.466-0.956-0.462c-1.661,0.014-3.325,0.008-4.987,0.003c-0.234-0.001-0.553,0.079-0.664-0.152   c-0.125-0.258,0.152-0.453,0.312-0.644c0.818-0.98,1.765-1.835,2.648-2.75c0.437-0.583,1.029-0.998,1.591-1.441   c4.343-3.423,9.243-5.605,14.69-6.552c0.854-0.149,1.717-0.235,2.587-0.235C84.063,30.734,84.188,30.775,84.294,30.691z" fill="#FFFFFF" fill-rule="evenodd"/><path clip-rule="evenodd" d="M65.225,38.96c-0.531,0.667-1.192,1.208-1.768,1.83   c-0.458,0.496-0.904,1.001-1.428,1.584c1.023,0,1.928,0,2.834,0c1.003,0,2.007,0.007,3.011-0.002   c0.347-0.004,0.608,0.019,0.858,0.367c0.666,0.926,1.366,1.828,1.988,2.785c0.063,0.095,0.099,0.208,0.165,0.356   c-0.208,0-0.381,0-0.553,0c-3.459,0-6.918,0.004-10.377-0.006c-0.311-0.001-0.518,0.051-0.684,0.347   c-0.544,0.968-1.086,1.933-1.567,2.984c0.227,0,0.415,0,0.602,0c4.672,0,9.345,0.006,14.018-0.01c0.337,0,0.503,0.103,0.623,0.396   c0.413,1.008,0.838,2.013,1.208,3.119c-0.198,0-0.368,0-0.537,0c-5.632,0-11.262,0.005-16.893-0.009   c-0.358-0.002-0.514,0.095-0.609,0.444c-0.259,0.938-0.56,1.867-0.754,2.891c0.175,0,0.345,0,0.515,0   c6.2,0,12.399,0.002,18.6-0.008c0.4,0,0.698,0.005,0.691,0.526c-0.004,0.241,0.09,0.482,0.138,0.724   c-0.162,0.188-0.385,0.128-0.588,0.136c-0.642,0.026-1.282-0.017-1.927,0.075c-1.517,0.21-2.813,0.799-3.77,2.034   c-1.015,0.779-1.465,1.798-1.528,3.089c-0.083,1.689,0.755,2.726,2.123,3.479c0.669,0.37,1.412,0.577,2.08,0.949   c0.209,0.118,0.423,0.228,0.575,0.419c0.171,0.216,0.252,0.443,0.05,0.689c-0.179,0.138-0.389,0.143-0.599,0.149   c-1.243,0.04-2.477-0.027-3.692-0.329c-0.496-0.122-0.516-0.093-0.625,0.402c-0.043,0.198-0.033,0.426-0.238,0.557   c-0.684,0.011-0.68,0.011-0.829,0.735c-0.108,0.528-0.193,1.06-0.296,1.589c-0.092,0.47-0.042,0.526,0.447,0.619   c0.589,0.111,1.188,0.164,1.783,0.19c1.297,0.056,2.597,0.127,3.893-0.06c0.686-0.101,1.348-0.273,1.992-0.527   c0.159-0.063,0.317-0.19,0.506-0.07c-0.105,0.513-0.271,1.006-0.415,1.507c-0.073,0.253-0.187,0.304-0.404,0.291   c-0.134-0.006-0.269-0.001-0.404-0.001c-5.704,0-11.41,0-17.155,0c0.244,0.838,0.644,1.6,0.88,2.411   c0.238,0.813,0.716,0.942,1.493,0.935c4.537-0.041,9.074-0.02,13.612-0.02c0.162,0,0.326,0,0.566,0   c-0.388,0.763-0.744,1.478-1.112,2.186c-0.175,0.336-0.366,0.664-0.561,0.989c-0.13,0.217-0.282,0.343-0.589,0.341   c-3.534-0.018-7.068-0.011-10.602-0.011c-0.119,0-0.239,0-0.383,0c0.043,0.344,0.274,0.562,0.441,0.804   c0.538,0.785,1.092,1.561,1.691,2.301c0.154,0.19,0.303,0.225,0.515,0.224c2.066-0.004,4.132-0.003,6.28-0.003   c-0.967,1.375-2.208,2.414-3.293,3.595c-0.458,0.605-1.08,1.031-1.666,1.492c-3.715,2.92-7.867,4.949-12.465,6.051   c-1.616,0.387-3.246,0.705-4.92,0.68c-0.061,0-0.12,0.001-0.167,0.046c-1.678,0-3.355,0-5.033,0   c-0.842-0.099-1.691-0.088-2.534-0.221c-2.662-0.42-5.232-1.146-7.708-2.209c-3.344-1.438-6.383-3.363-9.069-5.816   c-2.49-2.277-4.604-4.869-6.28-7.808c-1.888-3.31-3.195-6.828-3.845-10.585c-0.156-0.9-0.26-1.805-0.269-2.719   c-0.002-0.131,0.044-0.27-0.044-0.392c0-1.677,0-3.355,0-5.033c0.099-0.842,0.088-1.691,0.222-2.533   c0.419-2.662,1.141-5.233,2.21-7.707c1.315-3.044,3.024-5.847,5.197-8.359c2.44-2.82,5.258-5.186,8.505-7.034   c3.299-1.878,6.808-3.165,10.55-3.811c0.885-0.152,1.775-0.251,2.675-0.261c0.13,0,0.269,0.046,0.391-0.043   c1.647,0,3.295,0,4.943,0c0.678,0.096,1.365,0.051,2.044,0.142c3.26,0.439,6.373,1.369,9.347,2.771   c2.616,1.232,5.023,2.785,7.226,4.657C64.785,38.473,65.044,38.678,65.225,38.96z" fill="#E6E6E6" fill-rule="evenodd"/><path clip-rule="evenodd" d="M95.889,60.185c0.497-0.561,0.998-1.118,1.625-1.543   c1.027-0.697,2.144-1.131,3.386-1.265c1.388-0.151,2.77-0.196,4.098,0.294c1.923,0.713,3.113,2.092,3.563,4.1   c0.237,1.063,0.16,2.121,0.015,3.19c-0.107,0.786-0.316,1.524-0.614,2.257c-0.448,1.098-1.172,1.961-2.111,2.66   c-0.216,0.354-0.581,0.523-0.928,0.676c-2.213,0.965-4.501,1.111-6.799,0.411c-2.15-0.656-3.304-2.243-3.67-4.406   c-0.323-1.909-0.072-3.756,0.807-5.502C95.424,60.728,95.672,60.47,95.889,60.185z" fill="#808080" fill-rule="evenodd"/><path clip-rule="evenodd" d="M68.925,59.465c0.777-1.039,1.816-1.667,3.071-1.958   c0.841-0.194,1.691-0.241,2.55-0.214c0.254,0.008,0.508-0.008,0.76-0.014c0.888-0.002,1.762,0.143,2.645,0.187   c0.354,0.019,0.244,0.257,0.222,0.405c-0.073,0.488-0.184,0.969-0.281,1.453c-0.073,0.354-0.189,0.705-0.214,1.063   c-0.026,0.4-0.266,0.359-0.508,0.303c-0.112-0.025-0.214-0.09-0.335-0.054c-0.2,0.146-0.427,0.114-0.646,0.08   c-0.685-0.102-1.372-0.09-2.054-0.032c-0.558,0.048-1.162,0.122-1.302,0.852c-0.051,0.376,0.18,0.574,0.465,0.735   c0.557,0.315,1.158,0.531,1.75,0.767c0.263,0.105,0.527,0.209,0.694,0.459c2.512,1.424,2.169,5.465,0,6.83   c-0.375,0.37-0.847,0.543-1.341,0.684c-1.655,0.468-3.347,0.38-5.031,0.31c-0.684-0.026-1.37-0.093-2.047-0.226   c-0.515-0.102-0.656-0.268-0.545-0.772c0.103-0.475,0.062-0.989,0.351-1.419c0.128-0.262,0.155-0.544,0.184-0.829   c0.026-0.271,0.121-0.407,0.461-0.309c1.354,0.395,2.747,0.449,4.148,0.412c0.157-0.005,0.273-0.103,0.42-0.11   c0.095-0.102,0.213-0.161,0.339-0.214c0.35-0.146,0.552-0.415,0.577-0.787c0.025-0.381-0.237-0.591-0.531-0.764   c-0.362-0.215-0.757-0.354-1.141-0.521c-0.658-0.285-1.313-0.58-1.888-1.02c-0.942-0.717-1.433-1.65-1.433-2.846   C68.265,61.033,68.324,60.18,68.925,59.465z" fill="#808080" fill-rule="evenodd"/><path clip-rule="evenodd" d="M80.593,55.406c0.143-0.262,0.174-0.553,0.187-0.839   c0.01-0.206,0.083-0.244,0.266-0.242c1.211,0.006,2.421,0.005,3.633,0.002c0.142,0,0.281-0.007,0.24,0.202   c-0.196,0.997-0.395,1.996-0.6,3.035c0.603,0,1.192,0.004,1.781-0.003c0.174-0.002,0.299,0.015,0.26,0.235   c-0.159,0.902-0.331,1.804-0.471,2.708c-0.051,0.336-0.21,0.429-0.52,0.389c-0.146-0.02-0.297,0.005-0.445,0.011   c-0.18,0.139-0.393,0.118-0.594,0.108c-0.335-0.018-0.53,0.105-0.572,0.455c-0.022,0.172-0.049,0.352-0.183,0.486   c-0.241,0.668-0.281,1.379-0.44,2.067c-0.217,0.947-0.363,1.91-0.544,2.867c-0.088,0.474,0.368,0.978,0.984,1.003   c0.377,0.015,0.764,0.08,1.146-0.064c0.182-0.067,0.407-0.115,0.309,0.297c-0.187,0.789-0.299,1.598-0.444,2.398   c-0.051,0.286-0.146,0.353-0.38,0.391c-0.184,0.032-0.361,0.099-0.542,0.149c-0.113,0.104-0.251,0.156-0.402,0.185   c-0.829,0.162-1.674,0.182-2.502,0.064c-2.03-0.289-2.649-1.842-2.49-3.521c0.073-0.79,0.244-1.567,0.389-2.346   c0.59-3.163,1.166-6.329,1.742-9.494C80.436,55.757,80.461,55.564,80.593,55.406z" fill="#808080" fill-rule="evenodd"/><path clip-rule="evenodd" d="M91.844,62.854c-0.469,0.79-0.678,1.681-0.885,2.557   c-0.4,1.693-0.735,3.403-1.003,5.124c-0.053,0.341-0.149,0.612-0.587,0.515c-0.099-0.021-0.208,0.006-0.312,0.012   c-0.19,0.105-0.396,0.119-0.608,0.119c-0.69-0.003-1.378,0.002-2.066-0.002c-0.741-0.004-0.805-0.089-0.682-0.812   c0.551-3.232,1.198-6.445,1.723-9.681c0.085-0.531,0.171-1.064,0.244-1.598c0.027-0.196,0.063-0.384,0.206-0.534   c0.035-0.276,0.083-0.55,0.101-0.827c0.013-0.193,0.136-0.161,0.249-0.162c1.12,0,2.24,0.007,3.362-0.006   c0.233-0.002,0.249,0.094,0.266,0.289c0.035,0.475-0.163,0.916-0.197,1.43c0.528-0.386,0.868-0.903,1.375-1.244   c0.957-0.646,1.973-0.785,3.073-0.462c0.263,0.077,0.181,0.26,0.133,0.384c-0.321,0.851-0.656,1.695-1.004,2.536   c-0.041,0.1-0.063,0.191-0.063,0.294c-0.047,0.716-0.213,0.872-0.897,0.777c-0.895-0.124-1.613,0.136-2.112,0.914   C92.069,62.615,91.938,62.718,91.844,62.854z" fill="#808080" fill-rule="evenodd"/><path clip-rule="evenodd" d="M91.844,62.854c0.512-1.166,1.227-1.612,2.443-1.393   c0.59,0.105,0.679-0.145,0.79-0.542c0.017-0.059,0.028-0.111,0.091-0.133c0.24-0.201,0.48-0.4,0.721-0.601   c-0.361,0.684-0.77,1.34-1.005,2.092c-0.351,1.122-0.503,2.266-0.423,3.429c0.08,1.164,0.375,2.282,1.066,3.258   c0.812,1.146,1.953,1.765,3.293,2.087c1.012,0.243,2.038,0.224,3.052,0.159c1.429-0.091,2.782-0.498,3.978-1.332   c-0.263,0.584-0.809,0.868-1.306,1.187c-1.262,0.811-2.665,1.111-4.157,1.164c-1.203,0.044-2.373-0.023-3.507-0.456   c-1.793-0.683-2.836-2.004-3.236-3.849c-0.345-1.593-0.254-3.17,0.265-4.72c0.264-0.787,0.266-0.762-0.566-0.794   C92.779,62.387,92.313,62.604,91.844,62.854z" fill="#B3B3B3" fill-rule="evenodd"/><path clip-rule="evenodd" d="M80.593,55.406c-0.116,0.76-0.22,1.522-0.355,2.279   c-0.193,1.069-0.414,2.134-0.616,3.204c-0.297,1.581-0.572,3.168-0.878,4.749c-0.175,0.912-0.435,1.833-0.375,2.774   c0.11,1.708,0.923,2.702,2.836,2.809c0.824,0.046,1.647,0.003,2.46-0.161c-0.03,0.203-0.083,0.405-0.085,0.609   c-0.003,0.235-0.203,0.21-0.315,0.24c-0.856,0.236-1.742,0.374-2.619,0.37c-1.126-0.004-2.219-0.238-2.875-1.329   c-0.418-0.695-0.492-1.473-0.375-2.234c0.254-1.656,0.575-3.303,0.881-4.949c0.289-1.562,0.599-3.118,0.886-4.68   c0.194-1.056,0.375-2.114,0.548-3.174c0.06-0.368,0.185-0.606,0.616-0.509C80.411,55.423,80.504,55.406,80.593,55.406z" fill="#B3B3B3" fill-rule="evenodd"/><path clip-rule="evenodd" d="M87.874,58.553c-0.153,1.078-0.327,2.152-0.508,3.225   c-0.18,1.062-0.366,2.122-0.558,3.179c-0.259,1.429-0.555,2.851-0.795,4.281c-0.086,0.518-0.145,1.038-0.277,1.545   c-0.061,0.229,0.062,0.268,0.268,0.266c1.018-0.004,2.035,0.006,3.054,0.012c-0.158,0.167-0.125,0.405-0.144,0.591   c-0.034,0.346-0.172,0.395-0.476,0.391c-1.105-0.019-2.214-0.019-3.321-0.002c-0.326,0.005-0.416-0.092-0.354-0.412   c0.271-1.428,0.525-2.861,0.789-4.291c0.296-1.604,0.611-3.207,0.884-4.814c0.186-1.089,0.328-2.185,0.46-3.282   C86.978,58.556,86.952,58.553,87.874,58.553z" fill="#B3B3B3" fill-rule="evenodd"/><path clip-rule="evenodd" d="M67.128,68.901c-0.066,0.462-0.108,0.927-0.204,1.381   c-0.122,0.589-0.117,0.574,0.464,0.68c1.523,0.276,3.058,0.286,4.594,0.26c1.315-0.022,2.584-0.272,3.76-0.896   c-0.287,0.434-0.707,0.732-1.078,1.08c-0.912,0.421-1.872,0.715-2.864,0.779c-0.67,0.042-1.347,0.173-2.027,0.04   c-0.26-0.051-0.538-0.012-0.806-0.01c-0.963,0.004-1.913-0.134-2.861-0.273c-0.241-0.036-0.314-0.119-0.251-0.408   c0.189-0.856,0.319-1.728,0.467-2.596c0.027-0.16,0.127-0.274,0.269-0.212C66.766,68.804,66.979,68.756,67.128,68.901z" fill="#B3B3B3" fill-rule="evenodd"/><path clip-rule="evenodd" d="M72.715,61.607c-0.076-0.467,0.203-0.737,0.574-0.874   c0.909-0.336,1.863-0.224,2.799-0.158c0.246,0.018,0.502-0.004,0.746,0.059c-0.034,0.185-0.063,0.374-0.104,0.557   c-0.121,0.541-0.239,0.606-0.805,0.455c-0.055-0.014-0.113-0.017-0.171-0.025c-0.164,0.134-0.364,0.139-0.556,0.114   c-0.744-0.099-1.488-0.102-2.235-0.051C72.872,61.692,72.785,61.674,72.715,61.607z" fill="#B3B3B3" fill-rule="evenodd"/><path clip-rule="evenodd" d="M72.715,61.607c1.014-0.221,2.027-0.016,3.04,0.015   c-0.004,0.625-0.01,1.25-0.014,1.874c-0.833-0.373-1.672-0.733-2.494-1.125C72.947,62.228,72.626,62.047,72.715,61.607z" fill="#E6E6E6" fill-rule="evenodd"/><path clip-rule="evenodd" d="M83.575,61.953c0.032-0.274,0.049-0.553,0.105-0.824   c0.032-0.161,0.133-0.27,0.347-0.247c0.295,0.032,0.597,0.016,0.896,0.022c0.056,0.301-0.104,0.579-0.093,0.875   c0.007,0.211-0.144,0.188-0.274,0.187C84.229,61.965,83.902,61.958,83.575,61.953z" fill="#B3B3B3" fill-rule="evenodd"/><path clip-rule="evenodd" d="M36.195,62.416c-0.382,0.831-0.776,1.655-1.145,2.492   c-0.467,1.066-0.902,2.145-1.373,3.209c-0.393,0.893-0.82,1.771-1.157,2.688c-0.143,0.389-0.475,0.18-0.715,0.256   c-0.203,0.115-0.426,0.122-0.653,0.122c-0.657-0.003-1.315,0.009-1.973-0.004c-0.517-0.01-0.625-0.104-0.704-0.614   c-0.097-0.622-0.07-1.252-0.1-1.878c-0.065-1.373-0.154-2.743-0.221-4.115c-0.068-1.386-0.11-2.775-0.241-4.157   c-0.032-0.333,0.064-0.653,0.04-0.845c-0.13,1.184-0.433,2.474-0.69,3.773c-0.018,0.089-0.056,0.17-0.132,0.229   c-0.15,0.704-0.308,1.406-0.447,2.111c-0.296,1.498-0.586,2.996-0.871,4.495c-0.054,0.281,0.012,0.666-0.195,0.816   c-0.188,0.14-0.542,0.052-0.824,0.065c-0.138,0.112-0.303,0.113-0.469,0.114c-0.627,0.004-1.256,0.008-1.883-0.001   c-0.578-0.008-0.659-0.106-0.558-0.672c0.266-1.5,0.562-2.996,0.848-4.493c0.626-3.288,1.236-6.58,1.879-9.865   c0.037-0.187,0.038-0.391,0.184-0.542c0.142-0.213,0.142-0.468,0.17-0.704c0.029-0.236,0.129-0.302,0.346-0.301   c1.962,0.004,3.923,0.005,5.885-0.002c0.199,0,0.276,0.066,0.25,0.259c-0.001,0.015,0.001,0.03,0,0.044   C31.382,56.45,31.532,58,31.559,59.55c0.018,1.026,0.059,2.054,0.068,3.082c0,0.062,0.011,0.117,0.075,0.145   c0.266,0.483,0.099,0.983,0.089,1.379c0.282-0.832,0.715-1.711,1.105-2.606c0.812-1.862,1.611-3.729,2.441-5.583   c0.061-0.137,0.116-0.276,0.245-0.367c0.029-0.032,0.078-0.058,0.084-0.093c0.15-0.81,0.651-0.959,1.419-0.929   c1.733,0.064,3.471,0.021,5.208,0.019c0.248,0,0.406-0.063,0.324,0.363c-0.357,1.864-0.735,3.723-1.09,5.586   c-0.356,1.863-0.709,3.727-1.085,5.587c-0.3,1.488-0.546,2.987-0.827,4.48c-0.051,0.272-0.141,0.541-0.533,0.437   c-0.111-0.029-0.237,0.004-0.356,0.01c-0.176,0.1-0.368,0.113-0.566,0.112c-0.733-0.001-1.467,0.005-2.201-0.002   c-0.613-0.006-0.696-0.092-0.591-0.687c0.238-1.342,0.504-2.677,0.759-4.017c0.376-1.971,0.74-3.944,1.123-5.915   c0.069-0.352,0.146-0.702,0.264-1.042c0.016-0.057-0.083-0.021-0.022-0.018c0.007,0,0.009,0.012,0.001,0.034   C37.129,60.521,36.777,61.521,36.195,62.416z" fill="#808080" fill-rule="evenodd"/><path clip-rule="evenodd" d="M43.745,58.733c-0.044-1.035,0.808-0.918,1.415-1.072   c1.551-0.392,3.138-0.44,4.723-0.356c1.154,0.062,2.261,0.378,3.156,1.152c0.628,0.542,0.977,1.29,1.045,2.113   c0.095,1.14-0.076,2.265-0.302,3.387c-0.254,1.26-0.462,2.531-0.672,3.801c-0.165,0.997-0.4,1.982-0.461,2.997   c-0.011,0.185-0.119,0.316-0.353,0.295c-0.207-0.019-0.418,0.005-0.627,0.011c-0.272,0.181-0.581,0.097-0.874,0.106   c-0.388,0.013-0.777,0.011-1.166,0.001c-0.504-0.013-0.587-0.105-0.602-0.618c-0.004-0.129,0.048-0.264-0.034-0.427   c-0.819,0.685-1.764,1.073-2.807,1.179c-0.877,0.09-1.757,0.131-2.617-0.171c-1.388-0.486-2.34-1.802-2.365-3.276   c-0.014-0.783,0.019-1.553,0.331-2.289c0.101-0.239,0.22-0.457,0.427-0.618c0.924-1.376,2.31-2.01,3.86-2.343   c0.938-0.201,1.895-0.279,2.857-0.278c0.163,0,0.324-0.004,0.473,0.076c0.085-0.067,0.185-0.091,0.291-0.105   c0.574-0.08,0.795-0.585,0.476-1.089c-0.171-0.269-0.434-0.401-0.735-0.469c-0.705-0.158-1.417-0.212-2.137-0.158   c-1.073,0.084-2.136,0.23-3.185,0.479c-0.612,0.146-0.715,0.05-0.571-0.565C43.431,59.906,43.408,59.272,43.745,58.733z" fill="#808080" fill-rule="evenodd"/><path clip-rule="evenodd" d="M58.784,66.461c0.283,0.955,1.046,1.329,1.917,1.52   c1.728,0.381,3.404,0.083,5.051-0.47c0.204-0.069,0.402-0.157,0.651-0.256c-0.204,1.058-0.442,2.074-0.58,3.105   c-0.06,0.433-0.349,0.397-0.594,0.498c-0.115,0.049-0.273-0.06-0.363,0.097c-0.615,0.327-1.303,0.338-1.962,0.372   c-1.071,0.051-2.151,0.103-3.22-0.077c-1.273-0.213-2.469-0.605-3.435-1.514c-1.007-0.945-1.524-2.141-1.632-3.494   c-0.128-1.625,0.021-3.222,0.674-4.747c0.221-0.516,0.507-0.98,0.871-1.401c0.249-0.27,0.493-0.545,0.75-0.808   c1.319-1.346,2.905-2.009,4.807-2.007c1.33,0.002,2.565,0.229,3.666,1c0.943,0.662,1.534,1.564,1.738,2.7   c0.256,1.422,0.032,2.815-0.296,4.195c-0.046,0.19-0.12,0.347-0.378,0.304c-0.16-0.025-0.327,0.005-0.492,0.009   c-0.208,0.162-0.455,0.125-0.69,0.125c-1.838,0.003-3.677,0.001-5.515,0.001c-0.149,0-0.299,0.003-0.448,0.005   c-0.305,0.002-0.488,0.115-0.443,0.458C58.879,66.211,58.875,66.347,58.784,66.461z" fill="#808080" fill-rule="evenodd"/><path clip-rule="evenodd" d="M56.163,60.094c-0.43,0.794-0.872,1.58-1.103,2.467   c-0.457,1.75-0.567,3.509,0.04,5.229c0.609,1.727,1.964,2.685,3.677,3.159c1.387,0.385,2.816,0.295,4.232,0.263   c0.621-0.013,1.239-0.167,1.858-0.257c-0.073,0.772-0.077,0.755-0.763,0.907c-0.984,0.217-1.974,0.327-2.983,0.369   c-1.324,0.057-2.615-0.031-3.868-0.464c-1.915-0.66-3.093-1.974-3.424-3.988c-0.391-2.373-0.013-4.601,1.35-6.618   C55.449,60.758,55.74,60.362,56.163,60.094z" fill="#B3B3B3" fill-rule="evenodd"/><path clip-rule="evenodd" d="M41.962,64.947c-0.491,0.888-0.646,1.834-0.646,2.849   c0,1.461,1.018,2.999,2.632,3.318c1.598,0.317,3.167,0.147,4.577-0.789c0.24-0.159,0.417-0.406,0.704-0.502   c0.009,0.088-0.014,0.163-0.04,0.25c-0.223,0.753-0.063,0.971,0.685,0.972c0.597,0.003,1.195,0.01,1.792,0.016   c0,0.074,0.001,0.149,0,0.225c-0.006,0.74-0.015,0.749-0.728,0.749c-0.809,0-1.617-0.011-2.425,0.006   c-0.267,0.005-0.385-0.057-0.357-0.346c0.024-0.252,0.005-0.508,0.005-0.764c-0.281-0.019-0.376,0.229-0.555,0.346   c-0.882,0.569-1.835,0.903-2.898,0.945c-0.781,0.032-1.534,0.021-2.287-0.26c-1.195-0.447-1.98-1.689-2.087-2.826   c-0.097-1.035,0.007-2.031,0.514-2.94C41.122,65.712,41.372,65.165,41.962,64.947z" fill="#B3B3B3" fill-rule="evenodd"/><path clip-rule="evenodd" d="M24.796,55.602c-0.017,0.659-0.223,1.286-0.343,1.928   c-0.228,1.212-0.424,2.432-0.649,3.647c-0.208,1.126-0.442,2.249-0.655,3.374c-0.235,1.241-0.458,2.484-0.691,3.725   c-0.156,0.827-0.294,1.658-0.494,2.476c-0.07,0.283,0,0.297,0.227,0.297c0.868-0.002,1.736,0.007,2.603,0.013   c0,0.028,0,0.06,0,0.089c-0.005,0.884-0.005,0.884-0.864,0.885c-0.869,0-1.737-0.007-2.605,0.003   c-0.32,0.005-0.424-0.019-0.339-0.419c0.346-1.638,0.622-3.289,0.935-4.934c0.285-1.499,0.593-2.996,0.875-4.496   c0.346-1.847,0.675-3.698,1.014-5.546c0.019-0.1,0.065-0.196,0.084-0.298C24.036,55.564,24.035,55.564,24.796,55.602z" fill="#B3B3B3" fill-rule="evenodd"/><path clip-rule="evenodd" d="M27.132,63.572c0.16-0.917,0.314-1.834,0.482-2.748   c0.114-0.626,0.246-1.247,0.388-1.959c0.08,0.69,0.063,1.294,0.092,1.891c0.043,0.89,0.099,1.782,0.133,2.672   c0.066,1.762,0.173,3.523,0.284,5.281c0.043,0.687-0.039,1.386,0.13,2.073c0.062,0.253,0.143,0.265,0.334,0.265   c0.943,0.001,1.886,0.008,2.83,0.014c-0.403,0.974-0.403,0.974-1.455,0.974c-0.793,0-1.587-0.009-2.381,0.003   c-0.293,0.007-0.388-0.104-0.393-0.394c-0.014-0.907-0.026-1.816-0.09-2.723c-0.083-1.155-0.106-2.317-0.203-3.468   C27.231,64.827,27.36,64.182,27.132,63.572z" fill="#B3B3B3" fill-rule="evenodd"/><path clip-rule="evenodd" d="M36.195,62.416c0.13-0.581,0.438-1.094,0.665-1.636   c0.231-0.553,0.474-1.107,0.78-1.642c-0.12,0.684-0.234,1.369-0.36,2.051c-0.233,1.254-0.471,2.507-0.711,3.759   c-0.216,1.125-0.436,2.247-0.656,3.371c-0.165,0.837-0.333,1.676-0.503,2.513c-0.053,0.261,0.126,0.211,0.267,0.212   c1.017,0.006,2.033,0.01,3.049,0.016c-0.16,0.181-0.131,0.432-0.151,0.631c-0.032,0.316-0.154,0.351-0.415,0.346   c-1.135-0.009-2.271-0.009-3.407,0c-0.302,0.004-0.363-0.06-0.297-0.385c0.336-1.65,0.63-3.31,0.947-4.964   c0.263-1.382,0.536-2.758,0.804-4.14C36.214,62.507,36.199,62.462,36.195,62.416z" fill="#B3B3B3" fill-rule="evenodd"/><path clip-rule="evenodd" d="M68.925,59.465c-0.335,0.748-0.552,1.506-0.556,2.35   c-0.006,1.561,0.766,2.592,2.064,3.287c0.709,0.382,1.471,0.663,2.199,1.008c0.22,0.104,0.457,0.207,0.603,0.42   c0.309,0.459,0.134,1.104-0.37,1.37c-0.163,0.085-0.332,0.167-0.524,0.166c0.073-0.436-0.19-0.667-0.527-0.828   c-0.758-0.36-1.541-0.667-2.278-1.06c-0.945-0.504-1.807-1.166-2.03-2.272C67.172,62.247,67.358,60.609,68.925,59.465z" fill="#B3B3B3" fill-rule="evenodd"/><path clip-rule="evenodd" d="M43.745,58.733c-0.127,0.708-0.227,1.422-0.424,2.118   c-0.037,0.132-0.054,0.233,0.198,0.168c1.478-0.382,2.982-0.615,4.514-0.572c0.489,0.014,0.979,0.081,1.45,0.253   c0.657,0.241,0.934,0.997,0.587,1.598c-0.074,0.126-0.148,0.118-0.245,0.118c-0.224-0.001-0.448-0.009-0.672-0.014   c-0.078-0.579-0.683-0.803-1.512-0.88c-1.716-0.161-3.399,0.052-5.055,0.5c-0.275,0.075-0.294-0.061-0.251-0.242   c0.185-0.77,0.33-1.544,0.444-2.326c0.049-0.343,0.2-0.597,0.588-0.622C43.499,58.823,43.636,58.83,43.745,58.733z" fill="#B3B3B3" fill-rule="evenodd"/><path clip-rule="evenodd" d="M58.784,66.461c-0.091-0.988-0.091-0.989,0.909-0.988   c2.089,0.004,4.177,0.011,6.265,0.015c-0.061,0.271-0.129,0.541-0.178,0.814c-0.05,0.271-0.258,0.154-0.391,0.154   C63.187,66.463,60.985,66.461,58.784,66.461z" fill="#B3B3B3" fill-rule="evenodd"/><path clip-rule="evenodd" d="M35.582,55.601c-0.333,0.979-0.806,1.899-1.208,2.849   c-0.757,1.784-1.531,3.559-2.302,5.336c-0.096,0.22-0.252,0.411-0.37,0.649c0-0.552,0-1.104,0-1.659   c0.493-1.159,0.984-2.319,1.48-3.476c0.473-1.104,0.976-2.196,1.417-3.313C34.811,55.454,35.203,55.597,35.582,55.601z" fill="#B3B3B3" fill-rule="evenodd"/><path clip-rule="evenodd" d="M102.644,67.45c-0.916,0.559-1.832,0.695-2.755,0.013   c-0.636-0.468-0.85-1.164-0.932-1.881c-0.142-1.224,0.138-2.379,0.758-3.449c0.083-0.142,0.163-0.275,0.308-0.359   c0.908-0.717,2.385-0.281,2.869,0.494c0.307,0.494,0.495,1.01,0.497,1.602c0,0.854,0.002,1.705-0.262,2.53   C103.009,66.772,102.887,67.138,102.644,67.45z" fill="#FFFFFF" fill-rule="evenodd"/><path clip-rule="evenodd" d="M102.644,67.45c0.2-0.684,0.527-1.336,0.565-2.062   c0.045-0.895,0.168-1.78-0.195-2.663c-0.392-0.953-1.558-1.425-2.533-1.081c-0.148,0.052-0.306,0.086-0.458,0.129   c0.226-0.594,1.403-1.371,2.379-1.24c0.671,0.089,1.464,0.5,1.691,1.406c0.472,1.884,0.178,3.614-1.001,5.172   C102.982,67.255,102.794,67.34,102.644,67.45z" fill="#B3B3B3" fill-rule="evenodd"/><path clip-rule="evenodd" d="M48.087,67.9c-0.587,0.432-1.252,0.498-1.929,0.337   c-0.719-0.17-1.05-1.124-0.691-1.88c0.131-0.181,0.327-0.25,0.534-0.298c0.673-0.152,1.355-0.215,2.044-0.168   c0.483,0.034,0.629,0.227,0.573,0.703C48.562,67.079,48.397,67.518,48.087,67.9z" fill="#E6E6E6" fill-rule="evenodd"/><path clip-rule="evenodd" d="M48.087,67.9c0.134-0.443,0.351-0.86,0.423-1.323   c0.051-0.317,0.015-0.559-0.393-0.566c-0.901-0.02-1.794,0.028-2.65,0.348c0.2-0.722,0.823-0.949,1.425-1.139   c0.779-0.247,1.6-0.203,2.411-0.202c0.245,0.001,0.22,0.143,0.207,0.289C49.411,66.376,49.032,67.294,48.087,67.9z" fill="#B3B3B3" fill-rule="evenodd"/><path clip-rule="evenodd" d="M59.667,61.594c0.305-0.536,0.716-0.951,1.335-1.095   c0.773-0.182,1.508-0.181,2.114,0.461c0.437,0.466,0.425,1.027,0.414,1.598c-0.003,0.167-0.133,0.127-0.228,0.127   c-0.283-0.001-0.566-0.008-0.849-0.013c-0.533-1.106-1.443-1.29-2.533-1.039C59.836,61.652,59.744,61.659,59.667,61.594z" fill="#B3B3B3" fill-rule="evenodd"/><path clip-rule="evenodd" d="M59.667,61.594c0.584-0.191,1.177-0.266,1.771-0.07   c0.551,0.183,0.941,0.532,1.017,1.148c-0.998,0.005-1.997,0.008-2.995,0.017c-0.229,0.003-0.285-0.058-0.193-0.288   C59.379,62.12,59.478,61.836,59.667,61.594z" fill="#E6E6E6" fill-rule="evenodd"/></g></svg>