<?xml version="1.0" ?><!DOCTYPE svg  PUBLIC '-//W3C//DTD SVG 1.1//EN'  'http://www.w3.org/Graphics/SVG/1.1/DTD/svg11.dtd'><svg enable-background="new 0 0 128 128" height="128px" id="Layer_1" version="1.1" viewBox="0 0 128 128" width="128px" xml:space="preserve" xmlns="http://www.w3.org/2000/svg" xmlns:xlink="http://www.w3.org/1999/xlink"><path d="M127.65,100.715c0,2.243-1.817,4.061-4.061,4.061H5.712c-2.242,0-4.061-1.817-4.061-4.061V24.658  c0-2.243,1.818-4.061,4.061-4.061H123.59c2.243,0,4.061,1.818,4.061,4.061V100.715z" fill="#808080"/><g><path clip-rule="evenodd" d="M6.877,80.174c0.387-4.235,0.844-8.468,1.135-12.71   c0.209-3.031,0.503-3.445,3.449-2.94c0.664,0.113,1.539,0.84,1.744,1.471c0.874,2.679,1.524,5.429,2.272,8.147   c0.157,0.571,0.383,1.124,0.809,2.352c1.113-3.682,2.176-6.636,2.869-9.675c0.551-2.413,2.16-2.542,4.009-2.406   c2.268,0.166,1.401,2.029,1.491,3.195c0.287,3.705,0.395,7.422,0.571,11.134c0.051,1.061,0.25,2.151-1.402,2.207   c-1.72,0.058-1.726-1.055-1.737-2.248c-0.025-2.669-0.045-5.337-0.101-8.004c-0.016-0.758-0.148-1.515-0.227-2.27   c-0.214-0.024-0.427-0.051-0.641-0.074c-0.79,2.541-1.583,5.08-2.367,7.622c-0.31,1.003-0.433,2.111-0.956,2.982   c-0.409,0.683-1.263,1.379-1.999,1.478c-0.439,0.06-1.317-0.939-1.508-1.604c-0.934-3.249-1.695-6.546-2.541-9.82   c-0.071-0.273-0.322-0.502-1.107-0.72c0,0.972,0.03,1.946-0.006,2.916c-0.076,2.1-0.37,4.207-0.236,6.289   c0.172,2.676-0.907,3.82-3.521,3.648C6.877,80.82,6.877,80.497,6.877,80.174z" fill="#FFFFFF" fill-rule="evenodd"/><path clip-rule="evenodd" d="M49.666,69.912c0-2.252,0-4.229,0-6.148   c3.174-0.664,3.289-0.584,3.292,2.308c0.004,4.194,0.029,8.389-0.054,12.579c-0.015,0.743-0.448,2.055-0.805,2.097   c-0.795,0.091-1.663-0.454-2.873-0.866c-2.765,1.709-4.855,1.735-6.709-0.189c-1.856-1.926-2.152-6.204-0.596-8.617   C43.368,68.83,45.827,68.372,49.666,69.912z M49.726,74.873c0.013-1.836-0.328-3.457-2.61-3.576   c-1.709-0.091-2.965,1.517-2.979,3.674c-0.015,2.157,1.218,3.721,2.946,3.737C48.865,78.725,49.723,77.478,49.726,74.873z" fill="#FFFFFF" fill-rule="evenodd"/><path clip-rule="evenodd" d="M122.518,80.632c-4.653,1.62-4.88-2.688-7.313-5.09   c-0.375,1.453-0.715,2.396-0.845,3.367c-0.141,1.069-0.014,2.084-1.651,2.059c-1.613-0.026-1.612-1.031-1.608-2.104   c0.015-4.445,0.054-8.892,0.096-13.338c0.01-1.064-0.076-2.179,1.553-2.14c1.651,0.039,1.445,1.215,1.455,2.236   c0.025,2.726,0.01,5.453,0.01,8.609c2.745-1.72,2.822-6.473,7.407-4.813c-0.898,1.108-1.911,2.104-2.583,3.292   c-0.357,0.631-0.429,1.768-0.094,2.383C119.972,76.979,121.261,78.725,122.518,80.632z" fill="#FFFFFF" fill-rule="evenodd"/><path clip-rule="evenodd" d="M66.66,81.203c-1.223-0.443-2.242-0.814-3.625-1.317   c0.011-0.007-0.364,0.271-0.767,0.499c-3.263,1.851-6.36,0.353-6.665-3.377c-0.202-2.479-0.039-4.988-0.039-7.694   c1.042,0,1.95,0,3.08,0c0.152,2.479,0.189,4.968,0.494,7.421c0.218,1.75,1.889,2.487,3.163,1.434   c0.576-0.473,0.949-1.469,0.998-2.256c0.134-2.154,0.046-4.322,0.046-6.64c1.217,0,2.15,0,3.313,0   C66.66,73.029,66.66,76.776,66.66,81.203z" fill="#FFFFFF" fill-rule="evenodd"/><path clip-rule="evenodd" d="M33.376,81.055c-3.854,0.037-6.074-2.126-6.069-5.917   c0.004-3.837,2.334-6.273,6.089-6.368c3.348-0.085,6.186,2.676,6.25,6.078C39.716,78.451,37.124,81.018,33.376,81.055z    M36.104,75.291c0-2.534-1.1-4.223-2.627-4.301c-1.673-0.087-2.961,1.644-2.957,3.969c0.004,2.513,1.099,4.045,2.895,3.906   C35.814,78.679,35.958,76.829,36.104,75.291z" fill="#FFFFFF" fill-rule="evenodd"/><path clip-rule="evenodd" d="M97.255,68.779c1.408,0.534,2.392,0.907,3.374,1.28   c-0.049,0.201-0.098,0.402-0.146,0.604c0.749-0.526,1.428-1.247,2.26-1.54c2.857-1.014,5.207,0.532,5.442,3.601   c0.169,2.167,0.229,4.363,0.053,6.525c-0.048,0.601-1.104,1.12-1.696,1.677c-0.47-0.588-1.272-1.136-1.346-1.767   c-0.204-1.755,0.129-3.593-0.221-5.301c-0.189-0.929-1.334-1.663-2.05-2.485c-0.823,0.838-2.144,1.565-2.36,2.538   c-0.394,1.771-0.005,3.703-0.221,5.536c-0.064,0.549-0.997,1.267-1.628,1.382c-0.395,0.071-1.379-0.821-1.396-1.309   C97.195,76.152,97.255,72.776,97.255,68.779z" fill="#FFFFFF" fill-rule="evenodd"/><path clip-rule="evenodd" d="M79.652,72.636c0-2.016,0.031-4.031-0.013-6.045   c-0.024-1.17,0.113-2.063,1.589-2.148c1.59-0.092,1.632,0.892,1.627,2.029c-0.014,3.306,0.072,6.614-0.028,9.92   c-0.045,1.502,0.479,2.05,1.937,1.958c1.124-0.069,2.269-0.092,3.382,0.041c0.51,0.062,0.97,0.55,1.452,0.845   c-0.355,0.555-0.688,1.571-1.07,1.591c-2.651,0.134-5.317,0.121-7.969-0.023c-0.34-0.018-0.861-1.054-0.891-1.639   c-0.106-2.172-0.042-4.352-0.042-6.528C79.634,72.636,79.644,72.636,79.652,72.636z" fill="#FFFFFF" fill-rule="evenodd"/><path clip-rule="evenodd" d="M68.778,78.611c1.842,0.128,2.971,0.323,4.073,0.229   c0.491-0.04,1.076-0.584,1.331-1.055c0.105-0.195-0.459-0.922-0.862-1.188c-0.804-0.529-1.743-0.846-2.561-1.357   c-2.184-1.359-2.524-4.01-0.328-5.258c1.504-0.854,3.623-0.684,5.477-0.775c0.252-0.012,0.561,1.114,1.002,2.055   c-1.405-0.144-2.278-0.375-3.109-0.267c-0.53,0.068-1.283,0.566-1.401,1.013c-0.104,0.391,0.43,1.141,0.876,1.445   c0.789,0.536,1.78,0.771,2.593,1.28c2.079,1.309,2.148,4.707-0.107,5.52c-1.837,0.66-4.039,0.378-6.074,0.325   C69.407,80.57,69.157,79.467,68.778,78.611z" fill="#FFFFFF" fill-rule="evenodd"/><path clip-rule="evenodd" d="M80.463,58.725c5.072,0.911,9.53,0.968,13.578-1.543   c4.041-2.509,6.14-6.269,6.666-10.993c1.438,3.085,0.1,7.834-3,10.772C93.571,60.881,86.29,61.779,80.463,58.725z" fill="#FFFFFF" fill-rule="evenodd"/><path clip-rule="evenodd" d="M91.4,69.444c2.3-0.7,3.351-0.32,3.189,2.095   c-0.17,2.573,0.049,5.174-0.105,7.748c-0.035,0.578-0.897,1.512-1.421,1.542c-0.526,0.03-1.566-0.841-1.588-1.352   C91.328,76.182,91.4,72.875,91.4,69.444z" fill="#FFFFFF" fill-rule="evenodd"/><path clip-rule="evenodd" d="M98.256,50.98c-6.233-5.803-10.327-6.109-16.75-1.387   c2.282-4.588,8.871-5.705,13.238-3.718C97.903,47.312,99.01,48.843,98.256,50.98z" fill="#FFFFFF" fill-rule="evenodd"/><path clip-rule="evenodd" d="M98.209,63.137c0.752-2.727,1.504-5.455,2.256-8.182   c0.345,0.119,0.689,0.238,1.034,0.357c-0.936,2.725-1.871,5.45-2.807,8.174C98.532,63.37,98.37,63.252,98.209,63.137z" fill="#FFFFFF" fill-rule="evenodd"/></g></svg>