<?xml version="1.0" ?><!DOCTYPE svg  PUBLIC '-//W3C//DTD SVG 1.1//EN'  'http://www.w3.org/Graphics/SVG/1.1/DTD/svg11.dtd'><svg enable-background="new 0 0 128 128" height="128px" id="Layer_1" version="1.1" viewBox="0 0 128 128" width="128px" xml:space="preserve" xmlns="http://www.w3.org/2000/svg" xmlns:xlink="http://www.w3.org/1999/xlink"><path d="M127.166,101.288c0,2.242-1.818,4.061-4.061,4.061H5.227c-2.243,0-4.061-1.818-4.061-4.061V25.231  c0-2.243,1.818-4.061,4.061-4.061h117.878c2.242,0,4.061,1.818,4.061,4.061V101.288z" fill="#808080"/><g><path clip-rule="evenodd" d="M18.563,62.352c-1.583,1.583-3.416,2.615-5.643,2.649   c-2.587,0.037-4.205-2.02-3.767-4.669c0.577-3.488,4.161-7.118,7.675-7.444c2.437-0.227,4.667,0.701,6.535,2.273   c3.494,2.939,4.754,6.721,3.511,11.095c-1.235,4.353-4.308,6.905-8.774,7.565c-7.19,1.063-13.305-5.65-11.685-12.731   c0.058-0.252,0.147-0.497,0.218-0.735c0,0.887-0.092,1.783,0.017,2.653c0.372,2.993,2.742,4.763,5.891,4.493   c2.466-0.213,4.594-1.225,6.53-2.708c0.221-0.17,0.444-0.339,0.805-0.613c-0.121,0.701-0.21,1.234-0.307,1.767   c-0.11,0.614-0.127,1.183,0.651,1.364c0.675,0.158,1.253-0.17,1.415-0.91c0.286-1.307,0.499-2.627,0.742-3.944   c0.065-0.361,0.146-0.721,0.188-1.084c0.093-0.811-0.218-1.216-1.033-1.215c-1.656,0.004-3.313,0.045-4.968,0.109   c-0.739,0.03-1.205,0.563-1.144,1.234c0.065,0.715,0.555,0.872,1.177,0.855C17.251,62.34,17.907,62.352,18.563,62.352z    M20.423,53.998c-1.345-0.02-1.965,0.569-1.72,1.592c0.192,0.808,0.623,1.61,1.125,2.283c1.189,1.598,2.754,2.638,4.822,2.729   c0.705,0.031,1.267-0.372,1.272-1.004c0.004-0.454-0.094-0.958-0.302-1.357c-0.847-1.625-2.112-2.872-3.722-3.735   C21.355,54.214,20.721,54.098,20.423,53.998z" fill="#FFFFFF" fill-rule="evenodd"/><path clip-rule="evenodd" d="M89.262,66.929c-0.814,0-1.58,0.054-2.332-0.024   c-0.318-0.034-0.828-0.307-0.866-0.534c-0.079-0.475,0.068-1.094,0.706-1.124c1.313-0.06,2.629-0.049,3.941-0.004   c0.564,0.021,0.723,0.477,0.639,0.978c-0.264,1.58-0.539,3.159-0.837,4.733c-0.029,0.152-0.266,0.396-0.382,0.382   c-0.368-0.045-0.753-0.139-1.074-0.314c-0.167-0.093-0.213-0.402-0.327-0.645c-1.894,1.519-3.965,1.534-5.986,0.396   c-2.164-1.219-2.42-3.331-2.178-5.788c-0.273,0.428-0.444,0.679-0.599,0.939c-1.568,2.643-3.149,5.279-4.691,7.938   c-0.424,0.732-0.987,1.059-1.81,0.953c-0.554-0.072-0.75-0.354-0.438-0.865c0.531-0.877,1.108-1.729,1.589-2.631   c0.175-0.327,0.25-0.797,0.167-1.155c-0.478-2.071-0.993-4.136-1.546-6.188c-0.168-0.622-0.105-1.005,0.562-1.196   c0.684-0.194,1.188-0.01,1.383,0.646c0.217,0.729,0.348,1.482,0.512,2.226c0.187,0.836,0.368,1.674,0.607,2.766   c0.408-0.708,0.7-1.212,0.989-1.717c0.535-0.935,1.061-1.874,1.602-2.805c0.723-1.239,1.128-1.392,2.439-0.934   c1.491-2.45,3.682-3.498,6.525-3.112c1.28,0.173,2.461,0.624,3.198,1.781c0.506,0.797,0.271,1.612-0.508,1.776   c-0.238,0.05-0.666-0.075-0.775-0.257c-1.078-1.818-4.368-2.183-6.081,0.152c-0.892,1.216-1.136,2.597-0.821,4.047   c0.345,1.589,1.614,2.485,3.312,2.438C87.793,69.744,88.887,68.763,89.262,66.929z" fill="#FFFFFF" fill-rule="evenodd"/><path clip-rule="evenodd" d="M35.551,63.415c-0.244,1.359-0.491,2.719-0.733,4.08   c-0.17,0.955-0.322,1.915-0.505,2.869c-0.164,0.849-0.625,1.158-1.482,0.972c-0.768-0.169-0.658-0.739-0.554-1.313   c0.534-2.943,1.05-5.89,1.587-8.833c0.181-0.989,0.567-1.293,1.548-1.311c1.038-0.02,1.222,0.121,1.508,1.198   c0.455,1.723,0.902,3.448,1.394,5.326c0.204-0.283,0.34-0.448,0.451-0.627c1.024-1.651,2.013-3.327,3.089-4.942   c0.274-0.411,0.793-0.833,1.258-0.912c1.516-0.26,1.921,0.202,1.657,1.711c-0.507,2.896-1.012,5.792-1.572,8.678   c-0.072,0.372-0.395,0.863-0.719,0.984c-0.942,0.354-1.474-0.146-1.313-1.155c0.206-1.296,0.456-2.584,0.685-3.877   c0.174-0.979,0.347-1.958,0.408-3c-0.159,0.246-0.324,0.488-0.477,0.736c-0.822,1.345-1.657,2.681-2.453,4.041   c-0.388,0.663-0.955,0.729-1.622,0.67c-0.656-0.059-0.75-0.532-0.875-1.037c-0.351-1.423-0.729-2.841-1.096-4.263   C35.672,63.409,35.611,63.412,35.551,63.415z" fill="#FFFFFF" fill-rule="evenodd"/><path clip-rule="evenodd" d="M112.01,63.859c2.086-2.052,4.474-1.342,5.265,0.422   c0.183-0.201,0.349-0.387,0.518-0.568c0.978-1.051,2.193-1.311,3.533-0.962c1.211,0.317,1.986,1.543,1.803,2.884   c-0.219,1.611-0.506,3.216-0.808,4.813c-0.156,0.83-0.666,1.099-1.53,0.876c-0.732-0.185-0.602-0.742-0.51-1.271   c0.196-1.138,0.406-2.275,0.584-3.416c0.209-1.338-0.176-2.081-1.11-2.223c-1.086-0.166-2.189,0.669-2.393,1.806   c-0.254,1.422-0.51,2.842-0.766,4.263c-0.11,0.616-0.475,0.888-1.105,0.87c-0.821-0.022-1.068-0.246-0.954-1.058   c0.149-1.065,0.355-2.123,0.537-3.184c0.036-0.206,0.077-0.413,0.1-0.622c0.121-1.228-0.288-1.956-1.161-2.077   c-1.021-0.143-2.125,0.663-2.317,1.708c-0.262,1.421-0.477,2.849-0.775,4.261c-0.073,0.337-0.33,0.778-0.618,0.902   c-0.964,0.415-1.609-0.146-1.429-1.184c0.377-2.175,0.766-4.345,1.16-6.514c0.065-0.362,0.021-0.931,0.584-0.829   c0.433,0.079,0.828,0.408,1.216,0.664C111.936,63.492,111.948,63.7,112.01,63.859z" fill="#FFFFFF" fill-rule="evenodd"/><path clip-rule="evenodd" d="M106.082,63.997c0.499-1.052,0.961-1.375,1.726-1.252   c0.388,0.063,0.603,0.193,0.521,0.672c-0.4,2.324-0.771,4.654-1.145,6.982c-0.093,0.584-0.321,0.947-1.005,0.963   c-0.827,0.02-1.016-0.461-1.005-1.021c-0.71,0.364-1.377,0.861-2.124,1.061c-1.909,0.511-3.684-0.585-4.156-2.502   c-0.453-1.832-0.031-3.483,1.202-4.913C101.317,62.569,104.202,61.761,106.082,63.997z M103.182,64.216   c-0.805,0.009-1.616,0.563-2.093,1.572c-0.527,1.116-0.724,2.282,0.048,3.359c0.229,0.321,0.708,0.562,1.111,0.645   c2,0.413,3.784-1.75,3.294-3.949C105.313,64.813,104.581,64.226,103.182,64.216z" fill="#FFFFFF" fill-rule="evenodd"/><path clip-rule="evenodd" d="M65.973,67.53c0.018,1.321,0.608,2.078,1.778,2.288   c1.169,0.211,2.227-0.024,3.165-0.807c0.206-0.172,0.757-0.289,0.83-0.192c0.202,0.269,0.426,0.78,0.3,0.986   c-0.286,0.465-0.714,0.934-1.196,1.165c-1.37,0.655-2.838,0.755-4.294,0.295c-2.126-0.673-3.016-2.722-2.313-5.211   c0.781-2.763,3.885-4.26,6.545-3.159c1.38,0.571,2.274,2.385,1.896,3.865c-0.16,0.625-0.641,0.771-1.212,0.77   c-1.55-0.002-3.1,0-4.648,0C66.539,67.53,66.256,67.53,65.973,67.53z M70.757,66.032c0.147-1.006-0.249-1.603-1.172-1.805   c-1.478-0.325-2.895,0.422-3.337,1.805C67.765,66.032,69.264,66.032,70.757,66.032z" fill="#FFFFFF" fill-rule="evenodd"/><path clip-rule="evenodd" d="M57.478,64.049c0.829-1.023,1.815-1.519,3.065-1.425   c1.658,0.125,2.79,1.362,2.593,3.028c-0.193,1.639-0.517,3.264-0.829,4.886c-0.146,0.757-0.679,1.007-1.506,0.79   c-0.681-0.178-0.598-0.704-0.513-1.208c0.192-1.139,0.419-2.271,0.592-3.413c0.209-1.378-0.187-2.126-1.156-2.286   c-1.129-0.188-2.293,0.583-2.533,1.745c-0.285,1.388-0.514,2.786-0.756,4.182c-0.105,0.61-0.343,1.021-1.063,1.01   c-0.914-0.014-1.169-0.279-1.009-1.198c0.375-2.173,0.756-4.344,1.138-6.514c0.069-0.396,0.014-0.902,0.625-0.916   c0.571-0.013,1.028,0.199,1.231,0.781C57.407,63.648,57.425,63.799,57.478,64.049z" fill="#FFFFFF" fill-rule="evenodd"/><path clip-rule="evenodd" d="M44.935,67.403c0.001-2.794,1.948-4.798,4.648-4.784   c2.517,0.014,4.133,1.596,4.14,4.056c0.01,2.796-1.929,4.823-4.615,4.83C46.559,71.512,44.934,69.915,44.935,67.403z    M46.811,67.354c-0.012,1.312,0.698,2.249,1.86,2.458c1.162,0.208,2.3-0.402,2.827-1.519c0.615-1.298,0.418-2.839-0.543-3.525   c-0.401-0.286-0.952-0.48-1.442-0.498C48.037,64.215,46.827,65.646,46.811,67.354z" fill="#FFFFFF" fill-rule="evenodd"/><path clip-rule="evenodd" d="M95.341,63.968c0.64-0.971,1.446-1.52,2.606-1.306   c0.921,0.169,1.327,0.967,0.878,1.769c-0.244,0.436-0.505,0.743-1.11,0.338c-0.739-0.496-1.641-0.276-2.082,0.593   c-0.455,0.896-0.712,1.901-0.979,2.88c-0.198,0.732-0.249,1.503-0.414,2.246c-0.174,0.792-0.666,1.063-1.48,0.838   c-0.679-0.185-0.665-0.679-0.556-1.257c0.404-2.142,0.775-4.289,1.16-6.434c0.066-0.369-0.021-0.854,0.547-0.896   c0.566-0.042,1.04,0.136,1.271,0.714C95.238,63.593,95.271,63.744,95.341,63.968z" fill="#FFFFFF" fill-rule="evenodd"/></g></svg>