<?xml version="1.0" ?><!DOCTYPE svg  PUBLIC '-//W3C//DTD SVG 1.1//EN'  'http://www.w3.org/Graphics/SVG/1.1/DTD/svg11.dtd'><svg enable-background="new 0 0 128 128" height="128px" id="Layer_1" version="1.1" viewBox="0 0 128 128" width="128px" xml:space="preserve" xmlns="http://www.w3.org/2000/svg" xmlns:xlink="http://www.w3.org/1999/xlink"><path d="M127.146,100.715c0,2.243-1.818,4.062-4.061,4.062H5.206c-2.243,0-4.061-1.818-4.061-4.062V24.658  c0-2.242,1.818-4.061,4.061-4.061h117.879c2.242,0,4.061,1.818,4.061,4.061V100.715z" fill="#808080"/><g><path clip-rule="evenodd" d="M13.755,57.612c0,2.097,0,4.193,0,6.29   c0,4.362-0.014,8.726,0.015,13.088c0.004,0.718-0.129,1.011-0.94,0.993c-2.621-0.056-5.245-0.038-7.868-0.007   c-0.615,0.007-0.792-0.159-0.79-0.786c0.021-10.409,0.021-20.819,0-31.229c-0.001-0.645,0.208-0.773,0.805-0.771   c4.251,0.024,8.504,0.031,12.757-0.005c0.675-0.007,0.879,0.252,1.021,0.843c1.375,5.738,2.774,11.471,4.168,17.205   c0.075,0.305,0.167,0.606,0.417,0.912c0.406-1.645,0.817-3.29,1.217-4.935c1.067-4.396,2.14-8.789,3.181-13.19   c0.144-0.608,0.368-0.839,1.03-0.833c4.253,0.033,8.505,0.027,12.757,0.004c0.591-0.003,0.81,0.12,0.809,0.769   c-0.02,10.411-0.02,20.82,0,31.229c0.001,0.623-0.172,0.795-0.791,0.788c-2.623-0.032-5.246-0.04-7.868,0.002   c-0.721,0.012-0.938-0.171-0.934-0.914c0.029-6.156,0.018-12.314,0.01-18.471c0-0.34,0.075-0.694-0.149-1.187   c-0.482,1.749-0.932,3.356-1.368,4.966c-1.34,4.951-2.683,9.901-4.002,14.857c-0.144,0.537-0.347,0.761-0.945,0.748   c-2.014-0.04-4.031-0.04-6.046,0c-0.628,0.013-0.834-0.217-0.99-0.799c-1.671-6.261-3.376-12.512-5.072-18.766   c-0.077-0.283-0.167-0.561-0.252-0.842C13.869,57.585,13.812,57.599,13.755,57.612z" fill="#FFFFFF" fill-rule="evenodd"/><path clip-rule="evenodd" d="M47.467,61.614c-0.002-5.162,0.011-10.324-0.016-15.484   c-0.004-0.694,0.124-0.95,0.894-0.944c5.464,0.036,10.929,0.001,16.395,0.024c5.311,0.023,9.488,2.787,10.974,7.469   c1.31,4.128,0.884,8.106-1.969,11.545c-1.915,2.309-4.594,3.235-7.481,3.662c-1.705,0.251-3.417,0.115-5.125,0.176   c-1.172,0.043-2.354-0.175-3.516,0.132c-0.018,1.157-0.045,2.313-0.051,3.469c-0.008,1.822-0.026,3.644,0.01,5.466   c0.012,0.623-0.129,0.862-0.813,0.853c-2.843-0.038-5.687-0.033-8.528-0.002c-0.626,0.006-0.79-0.184-0.787-0.797   C47.478,71.992,47.467,66.803,47.467,61.614z M57.57,56.931c0,0.91,0.005,1.821-0.004,2.732c-0.004,0.344,0.046,0.594,0.482,0.583   c2.012-0.051,4.033,0.149,6.032-0.186c1.8-0.302,2.729-1.449,2.726-3.286c-0.005-1.817-0.807-2.748-2.712-3.017   c-2.002-0.282-4.023-0.064-6.035-0.13c-0.427-0.014-0.498,0.215-0.492,0.571C57.578,55.108,57.57,56.019,57.57,56.931z" fill="#FFFFFF" fill-rule="evenodd"/><path clip-rule="evenodd" d="M79.726,61.563c0-5.163,0.012-10.324-0.015-15.485   c-0.004-0.667,0.149-0.894,0.861-0.891c5.465,0.031,10.931,0.001,16.396,0.021c5.758,0.02,10.136,3.232,11.303,8.556   c0.923,4.21,0.26,8.165-3.066,11.261c-2.294,2.137-5.189,2.854-8.226,2.993c-2.094,0.097-4.194,0.06-6.293,0.017   c-0.707-0.015-0.864,0.217-0.854,0.885c0.036,2.731-0.01,5.465,0.032,8.197c0.01,0.707-0.214,0.87-0.887,0.861   c-2.787-0.035-5.575-0.045-8.362,0.004c-0.758,0.013-0.909-0.23-0.904-0.936C79.739,71.886,79.726,66.724,79.726,61.563z    M89.849,56.951c0,0.909,0,1.819,0,2.729c0,0.287-0.005,0.569,0.409,0.56c2.063-0.046,4.14,0.184,6.187-0.205   c1.778-0.338,2.688-1.555,2.629-3.367c-0.057-1.761-0.849-2.648-2.74-2.915c-2-0.283-4.02-0.063-6.027-0.125   c-0.454-0.014-0.462,0.27-0.46,0.594C89.852,55.133,89.848,56.042,89.849,56.951z" fill="#FFFFFF" fill-rule="evenodd"/><path clip-rule="evenodd" d="M10.168,91.696c-0.512,0.425-0.996,0.815-1.654,0.9   c-1.753,0.226-3.166-0.652-3.691-2.348c-0.309-0.998-0.307-2.004-0.06-3.02c0.578-2.382,3.586-3.61,5.519-1.562   c-0.132-0.805,0.303-0.824,0.842-0.818c1.715,0.02,1.717,0.002,1.714,1.735c-0.005,1.986,0.016,3.976-0.032,5.962   c-0.042,1.733-0.858,2.942-2.317,3.36c-1.753,0.502-3.444,0.425-4.86-0.936c-0.099-0.094-0.172-0.216-0.246-0.333   c-0.252-0.398-0.596-0.887-0.425-1.283c0.16-0.367,0.745-0.134,1.137-0.141c0.648-0.008,1.244-0.118,1.806,0.568   c0.649,0.795,2.104,0.221,2.303-0.8C10.282,92.584,10.339,92.179,10.168,91.696z M10.318,88.683   c0.017-0.452-0.079-0.883-0.299-1.273c-0.518-0.919-1.868-1.005-2.408-0.119c-0.506,0.83-0.538,1.74-0.056,2.602   c0.457,0.815,1.634,0.93,2.272,0.242C10.202,89.731,10.331,89.226,10.318,88.683z" fill="#FFFFFF" fill-rule="evenodd"/><path clip-rule="evenodd" d="M31.034,92.177c0.075,0.597-0.057,0.801-0.599,0.805   c-1.919,0.013-1.919,0.04-1.919-1.863c0-2.844,0.014-5.688-0.013-8.532c-0.005-0.58,0.087-0.819,0.752-0.808   c1.922,0.033,1.923-0.002,1.923,1.949c0,0.578,0,1.156,0,1.858c0.702-0.618,1.407-0.985,2.271-0.979   c1.519,0.01,2.73,0.947,3.183,2.536c0.342,1.198,0.278,2.393-0.08,3.588C35.831,93.142,32.946,94.078,31.034,92.177z    M34.196,88.664c-0.019-0.121-0.039-0.396-0.105-0.659c-0.218-0.872-0.735-1.354-1.45-1.323c-0.83,0.039-1.277,0.54-1.475,1.313   c-0.204,0.799-0.167,1.586,0.169,2.334c0.453,1.007,1.786,1.118,2.416,0.216C34.111,90.027,34.192,89.431,34.196,88.664z" fill="#FFFFFF" fill-rule="evenodd"/><path clip-rule="evenodd" d="M43.16,92.33c-1.167,0.82-2.34,1.094-3.622,0.746   c-1.08-0.293-1.68-1.055-1.725-2.15c-0.05-1.241,0.4-1.952,1.498-2.388c0.962-0.383,1.998-0.395,2.997-0.591   c0.429-0.084,0.846-0.185,0.83-0.732c-0.018-0.554-0.426-0.737-0.893-0.801c-0.636-0.087-1.253-0.034-1.537,0.654   c-0.148,0.361-0.399,0.315-0.667,0.318c-0.304,0.003-0.606,0.001-0.911,0c-1.092-0.001-1.231-0.248-0.697-1.237   c0.041-0.072,0.081-0.146,0.127-0.214c1.101-1.611,5.272-1.832,6.559-0.35c0.423,0.486,0.559,1.071,0.566,1.689   c0.015,1.407,0.001,2.817,0.021,4.224c0.006,0.478,0.08,0.953,0.122,1.428c-0.523,0.013-1.047,0.045-1.569,0.032   C43.795,92.946,43.183,93.21,43.16,92.33z M43.125,89.813c-0.094-0.149,0.223-0.569-0.253-0.485   c-0.614,0.111-1.225,0.274-1.818,0.472c-0.436,0.145-0.633,0.506-0.573,0.974c0.063,0.49,0.413,0.686,0.845,0.76   C42.377,91.711,43.083,91.038,43.125,89.813z" fill="#FFFFFF" fill-rule="evenodd"/><path clip-rule="evenodd" d="M124.844,32.864c-0.003,3.552-2.79,6.355-6.329,6.366   c-3.554,0.011-6.431-2.856-6.423-6.401c0.006-3.536,2.889-6.379,6.456-6.367C122.065,26.473,124.848,29.305,124.844,32.864z    M113.391,32.828c-0.004,2.832,2.257,5.11,5.084,5.125c2.802,0.014,5.13-2.29,5.142-5.089c0.014-2.793-2.298-5.114-5.105-5.123   C115.688,27.731,113.393,30.012,113.391,32.828z" fill="#FFFFFF" fill-rule="evenodd"/><path clip-rule="evenodd" d="M22.937,84.61c2.448,0.013,4.255,1.874,4.223,4.351   c-0.033,2.496-1.845,4.286-4.313,4.261c-2.411-0.027-4.197-1.864-4.187-4.309C18.668,86.424,20.484,84.599,22.937,84.61z    M24.513,88.873c-0.059-0.329-0.088-0.718-0.202-1.079c-0.221-0.692-0.688-1.129-1.451-1.108c-0.729,0.019-1.146,0.473-1.359,1.125   c-0.227,0.694-0.242,1.411-0.037,2.109c0.208,0.712,0.628,1.22,1.454,1.215s1.23-0.525,1.444-1.231   C24.455,89.593,24.461,89.255,24.513,88.873z" fill="#FFFFFF" fill-rule="evenodd"/><path clip-rule="evenodd" d="M47.471,87.435c0-1.652,0.02-3.305-0.012-4.956   c-0.01-0.545,0.157-0.694,0.699-0.696c1.98-0.006,1.98-0.026,1.98,1.956c0,2.837-0.016,5.673,0.014,8.509   c0.006,0.582-0.154,0.735-0.731,0.731c-1.949-0.015-1.949,0.009-1.949-1.908C47.47,89.857,47.471,88.646,47.471,87.435z" fill="#FFFFFF" fill-rule="evenodd"/><path clip-rule="evenodd" d="M114.717,43.69c0.013,2.39-1.903,4.316-4.288,4.312   c-2.376-0.004-4.318-1.953-4.304-4.317c0.014-2.333,1.927-4.249,4.268-4.275C112.771,39.383,114.705,41.299,114.717,43.69z    M110.463,46.708c1.663-0.011,2.972-1.339,2.97-3.015c-0.002-1.661-1.329-2.984-2.994-2.989c-1.686-0.005-3.052,1.376-3.021,3.056   C107.444,45.411,108.799,46.72,110.463,46.708z" fill="#FFFFFF" fill-rule="evenodd"/><path clip-rule="evenodd" d="M17.257,87.347c0,1.657-0.02,3.313,0.011,4.97   c0.01,0.508-0.137,0.652-0.648,0.661c-2.026,0.032-2.026,0.052-2.026-2.001c0-2.815,0.015-5.633-0.012-8.447   c-0.005-0.566,0.133-0.752,0.726-0.749c1.949,0.015,1.949-0.011,1.949,1.922C17.257,84.917,17.257,86.132,17.257,87.347z" fill="#FFFFFF" fill-rule="evenodd"/><path clip-rule="evenodd" d="M54.927,84.614c1.546-0.001,2.569,0.72,2.839,2.004   c0.045,0.219,0.242,0.535-0.157,0.589c-0.284,0.039-0.621,0.179-0.814-0.297c-0.541-1.318-1.717-1.801-2.991-1.283   c-0.49,0.198-0.847,0.521-0.89,1.088c-0.045,0.588,0.304,0.921,0.779,1.148c0.806,0.385,1.698,0.46,2.548,0.69   c1.43,0.389,2.104,1.378,1.82,2.68c-0.041,0.186-0.093,0.384-0.197,0.538c-0.921,1.372-2.304,1.473-3.754,1.299   c-1.292-0.153-2.137-0.947-2.384-2.176c-0.042-0.204-0.281-0.526,0.124-0.6c0.317-0.058,0.671-0.159,0.857,0.356   c0.527,1.469,1.802,1.995,3.319,1.439c0.614-0.225,1.061-0.579,1.071-1.305c0.01-0.704-0.434-1.053-1.019-1.237   c-0.682-0.213-1.386-0.355-2.076-0.545c-1.618-0.441-2.225-1.148-2.084-2.407c0.123-1.109,1.155-1.898,2.597-1.982   C54.65,84.607,54.789,84.614,54.927,84.614z" fill="#FFFFFF" fill-rule="evenodd"/><path clip-rule="evenodd" d="M93.181,88.911c-0.01,2.835-1.877,4.567-4.495,4.165   c-1.765-0.27-2.925-1.765-3.072-3.955c-0.209-3.102,2.275-5.241,5.029-4.337C92.235,85.308,93.187,86.854,93.181,88.911z    M92.18,88.877c0.005-1.966-1.136-3.397-2.726-3.424c-1.609-0.028-2.773,1.341-2.831,3.328c-0.056,1.902,1.033,3.375,2.57,3.479   C90.945,92.377,92.176,90.983,92.18,88.877z" fill="#FFFFFF" fill-rule="evenodd"/><path clip-rule="evenodd" d="M105.271,84.609c1.775-0.001,2.877,0.736,3.112,1.962   c0.043,0.224,0.247,0.599-0.217,0.646c-0.293,0.029-0.604,0.132-0.771-0.36c-0.443-1.299-1.959-1.81-3.173-1.14   c-0.418,0.229-0.669,0.564-0.68,1.055c-0.012,0.502,0.254,0.829,0.678,1.047c0.821,0.421,1.741,0.496,2.616,0.728   c0.846,0.224,1.523,0.641,1.811,1.519c0.271,0.827-0.002,1.761-0.665,2.322c-1.123,0.951-3.497,1.018-4.669,0.13   c-0.556-0.421-0.856-1.002-0.994-1.666c-0.044-0.208-0.197-0.546,0.217-0.566c0.29-0.016,0.604-0.146,0.774,0.354   c0.531,1.57,2.245,2.143,3.688,1.295c0.463-0.271,0.753-0.652,0.737-1.203c-0.019-0.564-0.361-0.929-0.857-1.108   c-0.566-0.205-1.159-0.34-1.742-0.499c-0.24-0.066-0.485-0.106-0.722-0.178c-1.396-0.425-1.934-1.037-1.892-2.146   c0.039-1.084,0.763-1.828,2.079-2.11C104.895,84.626,105.2,84.617,105.271,84.609z" fill="#FFFFFF" fill-rule="evenodd"/><path clip-rule="evenodd" d="M59.008,88.793c0.031-3.005,2.262-4.833,4.922-4.032   c1.87,0.564,2.878,2.518,2.566,4.97c-0.256,2.015-1.67,3.351-3.614,3.413C60.55,93.22,58.98,91.457,59.008,88.793z M65.544,88.792   c-0.014-0.176-0.016-0.482-0.067-0.778c-0.313-1.774-1.729-2.852-3.265-2.497c-1.293,0.299-2.149,1.521-2.199,3.137   c-0.054,1.772,0.736,3.158,2.017,3.525c0.157,0.045,0.323,0.064,0.488,0.077C64.283,92.394,65.518,91.032,65.544,88.792z" fill="#FFFFFF" fill-rule="evenodd"/><path clip-rule="evenodd" d="M76.13,91.657c-0.913,1.223-1.988,1.621-3.299,1.438   c-1.259-0.176-2.082-0.905-2.153-2.228c-0.104-1.872-0.046-3.752-0.069-5.628c-0.006-0.408,0.228-0.415,0.531-0.424   c0.361-0.011,0.481,0.131,0.478,0.485c-0.013,1.353-0.006,2.705-0.004,4.057c0,0.304,0.002,0.608,0.019,0.911   c0.06,1.109,0.495,1.733,1.346,1.938c1.094,0.263,2.062-0.095,2.592-0.982c0.377-0.631,0.532-1.327,0.535-2.059   c0.004-1.24,0.008-2.483,0.001-3.726c-0.001-0.352-0.022-0.637,0.493-0.634c0.487,0.004,0.52,0.241,0.518,0.619   c-0.01,2.263,0.002,4.526-0.011,6.789c-0.002,0.28,0.18,0.678-0.4,0.707c-0.589,0.029-0.517-0.329-0.517-0.689   C76.188,92.098,76.162,91.964,76.13,91.657z" fill="#FFFFFF" fill-rule="evenodd"/><path clip-rule="evenodd" d="M95.524,85.999c0.618-0.835,1.292-1.283,2.161-1.377   c2.123-0.233,3.233,0.73,3.283,2.892c0.036,1.599,0.01,3.197,0.023,4.797c0.004,0.367-0.008,0.618-0.506,0.614   c-0.483-0.003-0.525-0.228-0.521-0.609c0.012-1.518,0.012-3.033,0.002-4.549c-0.009-1.401-0.548-2.147-1.639-2.298   c-1.213-0.169-2.299,0.522-2.669,1.726c-0.33,1.08-0.128,2.192-0.169,3.29c-0.024,0.633-0.022,1.269,0.001,1.901   c0.014,0.384-0.104,0.532-0.51,0.536c-0.415,0.004-0.503-0.157-0.501-0.534c0.013-2.288,0.006-4.576,0.008-6.864   c0.001-0.343-0.11-0.718,0.491-0.717c0.585,0.001,0.506,0.354,0.506,0.71C95.486,85.622,95.502,85.729,95.524,85.999z" fill="#FFFFFF" fill-rule="evenodd"/><path clip-rule="evenodd" d="M79.398,88.928c0-0.828-0.028-1.658,0.011-2.484   c0.024-0.54-0.087-0.832-0.709-0.771c-0.31,0.03-0.767,0.181-0.739-0.449c0.022-0.568,0.439-0.417,0.721-0.39   c0.591,0.059,0.792-0.165,0.725-0.739c-0.041-0.355,0.006-0.718-0.012-1.077c-0.019-0.366-0.005-0.617,0.501-0.614   c0.498,0.002,0.533,0.243,0.508,0.614c-0.016,0.192-0.004,0.387-0.004,0.579c0,1.132,0,1.148,1.119,1.216   c0.352,0.021,0.496,0.121,0.492,0.48c-0.004,0.354-0.197,0.408-0.481,0.395c-0.166-0.008-0.335,0.02-0.496-0.005   c-0.515-0.074-0.655,0.138-0.646,0.645c0.032,1.573,0.035,3.147,0.003,4.721c-0.017,0.774,0.27,1.153,1.06,1.083   c0.289-0.025,0.551-0.076,0.561,0.364c0.01,0.428-0.216,0.486-0.565,0.514c-1.506,0.115-2.039-0.354-2.045-1.846   C79.396,90.418,79.398,89.673,79.398,88.928z" fill="#FFFFFF" fill-rule="evenodd"/><path clip-rule="evenodd" d="M68.889,87.351c0,1.652-0.005,3.304,0.003,4.957   c0.002,0.363,0,0.622-0.504,0.618c-0.49-0.004-0.516-0.242-0.516-0.616c0.008-3.333,0.012-6.665-0.006-9.997   c-0.002-0.437,0.129-0.565,0.559-0.567c0.448-0.002,0.473,0.22,0.469,0.565C68.884,83.99,68.889,85.671,68.889,87.351z" fill="#FFFFFF" fill-rule="evenodd"/><path clip-rule="evenodd" d="M84.289,88.92c0,1.159-0.014,2.318,0.008,3.478   c0.007,0.392-0.114,0.524-0.515,0.524c-0.413,0-0.512-0.158-0.51-0.539c0.012-2.346,0.013-4.691,0-7.038   c-0.002-0.392,0.129-0.526,0.525-0.535c0.429-0.009,0.502,0.185,0.498,0.55C84.28,86.546,84.289,87.733,84.289,88.92z" fill="#FFFFFF" fill-rule="evenodd"/><path clip-rule="evenodd" d="M84.294,82.609c-0.026,0.369,0.131,0.761-0.479,0.768   c-0.801,0.01-0.48-0.554-0.528-0.92c-0.054-0.402-0.053-0.744,0.559-0.712C84.623,81.784,84.146,82.351,84.294,82.609z" fill="#FFFFFF" fill-rule="evenodd"/></g></svg>