<?xml version="1.0" ?><!DOCTYPE svg  PUBLIC '-//W3C//DTD SVG 1.1//EN'  'http://www.w3.org/Graphics/SVG/1.1/DTD/svg11.dtd'><svg enable-background="new 0 0 128 128" height="128px" id="Layer_1" version="1.1" viewBox="0 0 128 128" width="128px" xml:space="preserve" xmlns="http://www.w3.org/2000/svg" xmlns:xlink="http://www.w3.org/1999/xlink"><path d="M127.054,101.236c0,2.243-1.818,4.062-4.061,4.062H5.114c-2.242,0-4.061-1.818-4.061-4.062V25.179  c0-2.243,1.818-4.061,4.061-4.061h117.879c2.242,0,4.061,1.818,4.061,4.061V101.236z" fill="#808080"/><g><path clip-rule="evenodd" d="M109.506,75.094c-20.771,0-41.542,0-62.313,0   c0.482-2.413,0.945-4.834,1.434-7.241c0.465-2.298,0.782-4.653,1.204-6.975c0.227-1.252,0.218-1.286-1.107-1.299   c-0.555-0.005-1.112,0.015-1.667,0.002c-0.473-0.01-0.741,0.163-0.856,0.656c-0.212,0.924-0.505,1.866-0.618,2.77   c-0.505,4.072-1.449,8.058-2.172,12.087c-7.937,0-15.875,0-23.813,0c0.096-0.473-0.184-0.854-0.322-1.265   c-0.794-2.34-1.609-4.672-2.422-7.007c-0.442-1.272-0.891-2.542-1.378-3.93c-0.448,0.567-0.37,1.077-0.45,1.529   c-0.647,3.553-1.259,7.114-1.881,10.672c-1.928,0-3.859-0.049-5.785,0.021c-0.767,0.028-1.06-0.15-0.891-0.913   c0.266-0.168,0.398-0.449,0.422-0.727c0.275-3.172,1.082-6.254,1.613-9.382c0.512-3.021,1.159-6.021,1.747-9.03   c2.301,0,4.6,0,6.9,0c1.445,3.945,2.89,7.891,4.334,11.837c0.384-0.829,0.536-1.588,0.671-2.348c0.56-3.163,1.114-6.326,1.67-9.489   c13.279,0,26.558,0,39.836,0c-0.171,1.094-0.3,2.197-0.53,3.279c-0.178,0.838-0.682,1.333-1.648,1.249   c-0.771-0.066-1.555-0.035-2.332-0.011c-3.335,0.104-2.409-0.543-3.128,2.709c-0.161,0.728,0.132,0.827,0.725,0.813   c0.963-0.023,1.926-0.006,2.889-0.006c2.393,0,2.393,0,1.982,2.33c-0.288,1.639-0.288,1.639-1.917,1.638   c-0.63,0-1.26,0.001-1.89,0.001c-2.695,0-2.669,0.006-3.185,2.642c-0.147,0.747,0.089,0.891,0.769,0.883   c2.741-0.029,5.482-0.05,8.222-0.003c0.827,0.015,1.169-0.241,1.308-1.059c0.428-2.552,0.919-5.092,1.404-7.634   c0.435-2.278,0.892-4.554,1.336-6.831c2.152,0,4.304,0,6.455,0c0.156,0.908-0.173,1.759-0.331,2.624   c-0.673,3.674-1.378,7.341-2.079,11.009c-0.133,0.697-0.045,1.133,0.848,1.062c0.883-0.069,1.779-0.053,2.665-0.002   c0.651,0.037,0.909-0.207,1.023-0.84c0.833-4.621,1.694-9.235,2.547-13.853c2.227,0,4.451,0,6.677,0   c-0.011,0.185-0.001,0.373-0.034,0.553c-0.827,4.4-1.636,8.804-2.51,13.195c-0.161,0.812,0.067,0.973,0.798,0.94   c0.962-0.041,1.932-0.063,2.892,0.006c0.693,0.049,0.897-0.273,0.998-0.862c0.282-1.64,0.612-3.272,0.893-4.913   c0.504-2.968,1.354-5.881,1.415-8.919c4.303,0,8.605,0,12.907,0c0.013,1.381-0.439,2.689-0.627,4.039   c-0.074,0.529-0.476,0.49-0.843,0.49c-0.962,0.002-1.926-0.014-2.889-0.015c-2.67-0.002-2.652,0.003-3.141,2.573   c-0.13,0.679,0.011,0.953,0.744,0.934c1.481-0.038,2.965-0.004,4.448-0.013c0.477-0.004,0.789,0.042,0.634,0.676   c-0.209,0.86-0.371,1.738-0.473,2.618c-0.069,0.589-0.358,0.714-0.879,0.7c-0.963-0.023-1.927,0-2.892,0   c-2.56,0.001-2.543,0.004-2.97,2.501c-0.129,0.753,0.03,1.046,0.859,1.031c2.629-0.049,5.263-0.083,7.892-0.007   c1.008,0.03,1.306-0.335,1.471-1.258c0.854-4.763,1.774-9.514,2.67-14.27c3.487,0,6.974,0,10.46,0   c0.327,0.372,0.808,0.282,1.217,0.387c1.643,0.421,3.123,1.059,4.145,2.527c1.029,1.48,0.593,3.167,0.459,4.663   c-0.208,2.306-1.936,3.66-4.146,4.207c-0.898,0.221-1.004,0.497-0.676,1.323c0.906,2.286,1.715,4.612,2.562,6.924   c-2.226,0-4.45,0-6.677,0c-0.683-3.173-1.805-6.212-2.782-9.318c-0.386,1.553-0.676,3.101-0.976,4.648   C110.121,71.98,109.812,73.536,109.506,75.094z M34.511,59.587c0-0.004,0-0.007,0-0.011c-0.817,0-1.632,0-2.448,0   c-2.556-0.002-2.529,0.001-2.914,2.537c-0.109,0.724,0.002,0.999,0.795,0.972c1.52-0.054,3.041,0.003,4.56-0.023   c0.613-0.01,0.791,0.206,0.656,0.795c-0.172,0.757-0.338,1.52-0.423,2.289c-0.074,0.681-0.338,0.978-1.058,0.937   c-0.961-0.053-1.927-0.017-2.892-0.017c-2.693,0-2.683,0.004-3.107,2.61c-0.096,0.59-0.02,0.909,0.687,0.903   c2.855-0.022,5.71-0.018,8.565-0.007c0.531,0.002,0.801-0.189,0.9-0.74c0.56-3.133,1.139-6.263,1.736-9.389   c0.121-0.639-0.062-0.877-0.721-0.864C37.403,59.607,35.957,59.587,34.511,59.587z M113.062,64.479   c0.657-0.026,1.506-0.069,2.296-0.439c1.125-0.529,1.721-1.709,1.465-3.045c-0.22-1.146-1.07-1.616-2.134-1.772   c-0.475-0.069-0.957-0.073-1.435-0.115c-0.537-0.048-0.782,0.155-0.864,0.726c-0.159,1.13-0.41,2.247-0.628,3.37   C111.509,64.507,111.508,64.506,113.062,64.479z" fill="#FFFFFF" fill-rule="evenodd"/></g></svg>