<?xml version="1.0" ?><!DOCTYPE svg  PUBLIC '-//W3C//DTD SVG 1.1//EN'  'http://www.w3.org/Graphics/SVG/1.1/DTD/svg11.dtd'><svg enable-background="new 0 0 128 128" height="128px" id="Layer_1" version="1.1" viewBox="0 0 128 128" width="128px" xml:space="preserve" xmlns="http://www.w3.org/2000/svg" xmlns:xlink="http://www.w3.org/1999/xlink"><path d="M127.299,101.512c0,2.243-1.817,4.061-4.061,4.061H5.36c-2.242,0-4.061-1.817-4.061-4.061V25.455  c0-2.243,1.818-4.061,4.061-4.061h117.878c2.243,0,4.061,1.818,4.061,4.061V101.512z" fill="#808080"/><g><path clip-rule="evenodd" d="M20.4,47.285c1.823,0,3.645-0.009,5.468,0.003   c3.021,0.018,5.591,2.427,5.777,5.444c0.135,2.184-0.283,4.252-1.512,6.101c-1.158,1.74-2.82,2.799-4.77,3.444   c-2.226,0.734-4.522,0.884-6.846,0.79c-0.561-0.021-1.123-0.042-1.684-0.042c-0.353-0.001-0.626,0.147-0.732,0.514   c-0.295,1.018-0.602,2.032-0.88,3.055c-0.287,1.053-0.543,2.114-0.816,3.17c-0.147,0.572-0.462,0.826-1.045,0.83   c-1.271,0.005-2.541,0.01-3.811,0.01c-0.667,0-0.954-0.31-0.845-0.986c0.104-0.656,0.269-1.304,0.42-1.951   c1.492-6.433,2.987-12.864,4.481-19.296c0.192-0.829,0.567-1.13,1.421-1.13c1.791-0.001,3.583,0,5.374,0   C20.4,47.254,20.4,47.27,20.4,47.285z M19.421,58.646c0.55-0.039,1.02-0.056,1.483-0.11c1.181-0.14,2.313-0.436,3.275-1.179   c1.083-0.836,1.461-1.951,1.238-3.289c-0.204-1.223-0.997-1.897-2.108-2.268c-1.158-0.387-2.353-0.399-3.551-0.297   c-0.586,0.051-0.967,0.38-1.114,0.972c-0.144,0.585-0.329,1.16-0.462,1.748c-0.243,1.063-0.477,2.13-0.68,3.199   c-0.129,0.676,0.115,1.012,0.791,1.127C18.689,58.617,19.098,58.621,19.421,58.646z" fill="#FFFFFF" fill-rule="evenodd"/><path clip-rule="evenodd" d="M80.974,47.301c1.832,0,3.667-0.062,5.496,0.015   c2.237,0.094,5.225,1.465,5.673,4.888c0.396,3.023-0.327,5.75-2.552,7.947c-1.253,1.238-2.816,1.934-4.506,2.363   c-1.95,0.496-3.933,0.635-5.939,0.526c-0.601-0.031-1.203-0.029-1.806-0.02c-0.302,0.005-0.54,0.151-0.632,0.465   c-0.313,1.065-0.636,2.126-0.929,3.196c-0.286,1.041-0.537,2.091-0.812,3.135c-0.135,0.513-0.464,0.761-0.997,0.763   c-1.303,0.004-2.604,0.006-3.905,0.004c-0.524-0.001-0.794-0.233-0.745-0.765c0.054-0.575,0.189-1.145,0.32-1.708   c1.467-6.342,2.941-12.681,4.413-19.021c0.067-0.293,0.129-0.587,0.206-0.878c0.165-0.627,0.571-0.944,1.217-0.945   c1.833-0.001,3.665,0,5.497,0C80.974,47.276,80.974,47.289,80.974,47.301z M80.407,58.69c1.238-0.098,2.444-0.271,3.572-0.816   c1.736-0.837,2.482-2.422,1.962-4.192c-0.336-1.139-1.213-1.662-2.267-1.974c-1.065-0.315-2.159-0.293-3.25-0.237   c-0.635,0.031-1.031,0.38-1.197,1.001c-0.25,0.932-0.497,1.867-0.708,2.808c-0.176,0.777-0.335,1.563-0.429,2.354   c-0.065,0.564,0.15,0.816,0.708,0.909C79.328,58.631,79.871,58.645,80.407,58.69z" fill="#FFFFFF" fill-rule="evenodd"/><path clip-rule="evenodd" d="M52.96,78.464c-0.698,0-1.396,0.003-2.093,0   c-0.5-0.003-0.653-0.161-0.569-0.647c0.041-0.238,0.139-0.48,0.268-0.687c1.062-1.705,2.139-3.4,3.208-5.102   c0.226-0.361,0.383-0.737,0.25-1.181c-0.075-0.249-0.144-0.499-0.191-0.755c-0.949-5.112-1.895-10.226-2.838-15.34   c-0.049-0.267-0.089-0.534-0.125-0.802c-0.099-0.759,0.343-1.27,1.104-1.285c1.021-0.02,2.04-0.051,3.06-0.059   c0.953-0.007,1.428,0.384,1.585,1.326c0.376,2.257,0.732,4.518,1.102,6.776c0.14,0.852,0.297,1.701,0.447,2.553   c0.017,0.09,0.02,0.202,0.074,0.267c0.086,0.104,0.203,0.227,0.322,0.246c0.093,0.013,0.247-0.098,0.307-0.194   c1.815-2.929,3.622-5.862,5.434-8.792c0.328-0.531,0.694-1.04,1.004-1.582c0.207-0.361,0.508-0.525,0.889-0.531   c1.465-0.02,2.933-0.037,4.399-0.017c0.544,0.007,0.72,0.385,0.437,0.865c-1.187,2.02-2.361,4.044-3.581,6.042   c-3.383,5.545-6.783,11.078-10.184,16.61c-0.387,0.629-0.83,1.224-1.243,1.835c-0.264,0.391-0.626,0.534-1.098,0.513   c-0.655-0.027-1.311-0.007-1.966-0.007C52.96,78.5,52.96,78.482,52.96,78.464z" fill="#FFFFFF" fill-rule="evenodd"/><path clip-rule="evenodd" d="M41.275,68.772c-0.352,0.191-0.608,0.328-0.86,0.469   c-0.628,0.348-1.261,0.688-1.879,1.052c-1.176,0.694-2.472,0.851-3.793,0.805c-0.721-0.027-1.46-0.107-2.151-0.303   c-1.61-0.456-2.55-1.549-2.748-3.228c-0.171-1.456-0.028-2.873,0.702-4.176c0.828-1.48,2.172-2.278,3.73-2.792   c1.391-0.46,2.829-0.562,4.279-0.592c1.144-0.024,2.289-0.062,3.433-0.096c0.134-0.003,0.27-0.036,0.403-0.03   c0.533,0.022,0.78-0.303,0.868-0.756c0.076-0.394,0.145-0.806,0.107-1.2c-0.074-0.772-0.496-1.238-1.266-1.321   c-0.937-0.102-1.887-0.154-2.828-0.125c-1.374,0.043-2.736,0.23-4.063,0.609c-0.208,0.06-0.405,0.16-0.606,0.244   c-0.529,0.221-1.008-0.039-0.965-0.598c0.068-0.899,0.184-1.801,0.372-2.682c0.101-0.471,0.502-0.777,1.005-0.879   c1.717-0.349,3.451-0.54,5.203-0.588c1.429-0.038,2.85,0.008,4.252,0.324c1.268,0.287,2.329,0.934,3.224,1.861   c0.969,1.006,1.295,2.239,1.048,3.577c-0.459,2.482-0.985,4.954-1.497,7.428c-0.266,1.283-0.555,2.56-0.846,3.838   c-0.143,0.622-0.514,0.953-1.161,0.976c-1.206,0.041-2.414,0.051-3.621,0.062c-0.357,0.003-0.452-0.123-0.431-0.491   C41.211,69.729,41.241,69.298,41.275,68.772z M37.656,67.611c0.548-0.051,1.026-0.076,1.499-0.144   c1.127-0.156,2.026-0.673,2.556-1.719c0.415-0.818,0.611-1.7,0.652-2.613c0.025-0.574-0.159-0.756-0.738-0.732   c-0.863,0.032-1.726,0.065-2.585,0.143c-0.872,0.082-1.729,0.251-2.519,0.661c-1.059,0.55-1.499,1.383-1.357,2.562   c0.113,0.939,0.587,1.496,1.51,1.716C37.016,67.564,37.373,67.578,37.656,67.611z" fill="#FFFFFF" fill-rule="evenodd"/><path clip-rule="evenodd" d="M101.753,68.784c-0.212,0.085-0.347,0.127-0.472,0.192   c-0.799,0.424-1.596,0.851-2.393,1.28c-0.747,0.401-1.512,0.733-2.374,0.8c-1.189,0.093-2.367,0.107-3.52-0.27   c-1.634-0.535-2.563-1.74-2.702-3.448c-0.088-1.073-0.004-2.12,0.36-3.133c0.625-1.733,1.919-2.774,3.589-3.411   c1.296-0.495,2.644-0.711,4.025-0.746c1.394-0.036,2.788-0.067,4.181-0.127c1.019-0.042,1.119-0.012,1.379-1.162   c0.068-0.296,0.064-0.626,0.018-0.93c-0.106-0.698-0.529-1.096-1.252-1.252c-0.977-0.213-1.962-0.194-2.951-0.124   c-1.349,0.095-2.688,0.248-3.995,0.622c-0.169,0.049-0.331,0.121-0.488,0.198c-0.604,0.293-1.082,0.032-1.032-0.624   c0.063-0.827,0.168-1.654,0.322-2.468c0.092-0.497,0.438-0.868,0.956-0.958c1.053-0.185,2.107-0.389,3.171-0.473   c1.346-0.104,2.702-0.158,4.052-0.122c1.746,0.049,3.429,0.379,4.845,1.536c0.864,0.706,1.526,1.536,1.715,2.666   c0.129,0.78,0.04,1.559-0.121,2.325c-0.716,3.402-1.439,6.804-2.164,10.204c-0.198,0.931-0.484,1.191-1.437,1.226   c-1.112,0.037-2.227,0.043-3.341,0.053c-0.375,0.005-0.456-0.088-0.443-0.466C101.696,69.739,101.726,69.307,101.753,68.784z    M98.253,67.634c0.522-0.051,1.032-0.08,1.534-0.153c1.14-0.164,2.033-0.701,2.563-1.762c0.4-0.802,0.579-1.666,0.639-2.552   c0.04-0.597-0.169-0.805-0.767-0.775c-1.029,0.049-2.059,0.093-3.081,0.203c-0.806,0.087-1.591,0.306-2.293,0.747   c-0.793,0.498-1.169,1.216-1.13,2.149c0.048,1.117,0.565,1.787,1.589,2.024C97.618,67.588,97.944,67.597,98.253,67.634z" fill="#FFFFFF" fill-rule="evenodd"/><path clip-rule="evenodd" d="M112.683,70.528c-0.645,0-1.291-0.003-1.936,0.001   c-0.426,0.002-0.674-0.202-0.618-0.623c0.104-0.813,0.229-1.626,0.406-2.425c1.396-6.301,2.808-12.599,4.217-18.897   c0.043-0.191,0.099-0.385,0.183-0.56c0.173-0.362,0.452-0.603,0.873-0.604c1.3-0.002,2.602-0.004,3.903,0.013   c0.491,0.006,0.888,0.553,0.775,1.027c-1.669,7.016-3.339,14.033-5.008,21.05c-0.033,0.142-0.058,0.285-0.082,0.429   c-0.091,0.515-0.214,0.629-0.747,0.636c-0.655,0.009-1.312,0.002-1.967,0.002C112.683,70.56,112.683,70.544,112.683,70.528z" fill="#FFFFFF" fill-rule="evenodd"/></g></svg>