<?xml version="1.0" ?><!DOCTYPE svg  PUBLIC '-//W3C//DTD SVG 1.1//EN'  'http://www.w3.org/Graphics/SVG/1.1/DTD/svg11.dtd'><svg enable-background="new 0 0 128 128" height="128px" id="Layer_1" version="1.1" viewBox="0 0 128 128" width="128px" xml:space="preserve" xmlns="http://www.w3.org/2000/svg" xmlns:xlink="http://www.w3.org/1999/xlink"><path d="M126.825,101.113c0,2.242-1.818,4.061-4.061,4.061H4.886c-2.243,0-4.061-1.818-4.061-4.061V25.057  c0-2.243,1.818-4.061,4.061-4.061h117.878c2.242,0,4.061,1.818,4.061,4.061V101.113z" fill="#808080"/><g><path clip-rule="evenodd" d="M9.922,68.716c-1.038,0-2.076,0.005-3.112-0.002   c-1.376-0.007-2.239-0.734-2.355-2.102c-0.18-2.107-0.184-4.222,0.003-6.33c0.117-1.323,0.991-2.064,2.324-2.07   c2.075-0.009,4.15-0.013,6.224,0c1.625,0.012,2.478,0.825,2.508,2.449c0.036,1.878,0.036,3.759-0.002,5.637   c-0.033,1.589-0.889,2.396-2.478,2.415C11.996,68.727,10.959,68.716,9.922,68.716z" fill="#FFFFFF" fill-rule="evenodd"/><path clip-rule="evenodd" d="M49.635,64.463c0,1.881,0.053,3.765-0.016,5.641   c-0.063,1.736-1.022,2.573-2.757,2.573c-1.725,0-3.45-0.012-5.174,0.008c-0.412,0.005-0.554-0.119-0.529-0.532   c0.031-0.526,0.034-1.059-0.001-1.585c-0.028-0.436,0.106-0.576,0.555-0.569c1.489,0.027,2.979,0.017,4.468,0.007   c0.64-0.005,0.885-0.26,0.908-0.823c0.015-0.358-0.116-0.479-0.475-0.471c-0.94,0.02-1.88,0.009-2.822,0.006   c-1.543-0.006-2.598-0.996-2.617-2.553c-0.031-2.509-0.003-5.017-0.015-7.525c-0.002-0.339,0.113-0.447,0.442-0.435   c0.548,0.02,1.098,0.032,1.645-0.003c0.427-0.027,0.52,0.139,0.517,0.537c-0.019,2.038-0.009,4.078-0.007,6.115   c0,1.073,0.16,1.234,1.214,1.236c0.392,0.002,0.785,0.016,1.175-0.005c0.696-0.039,0.935-0.296,0.936-0.992   c0.005-2.097,0.013-4.195-0.006-6.291c-0.004-0.442,0.093-0.643,0.579-0.601c0.507,0.043,1.02,0.033,1.527,0.002   c0.394-0.024,0.502,0.122,0.5,0.5c-0.015,1.921-0.007,3.84-0.007,5.762C49.662,64.463,49.648,64.463,49.635,64.463z" fill="#FFFFFF" fill-rule="evenodd"/><path clip-rule="evenodd" d="M19.918,66.438c0-1.821-0.01-3.643,0.002-5.464   c0.011-1.523,0.495-2.28,1.648-2.663c0.248-0.083,0.497-0.101,0.751-0.101c1.195-0.001,2.39-0.013,3.585,0.002   c1.604,0.02,2.454,0.781,2.509,2.391c0.065,1.938,0.057,3.88,0.012,5.818c-0.029,1.262-1.114,2.258-2.392,2.288   c-1.018,0.023-2.037,0.019-3.055,0.001c-0.361-0.006-0.48,0.12-0.475,0.474c0.016,1-0.007,1.998,0.01,2.997   c0.007,0.374-0.101,0.528-0.5,0.503c-0.527-0.033-1.059-0.036-1.585,0c-0.438,0.03-0.521-0.157-0.518-0.544   C19.926,70.238,19.918,68.34,19.918,66.438z M25.857,63.517c0-0.627,0.004-1.254-0.001-1.88c-0.004-0.488-0.21-0.774-0.745-0.763   c-0.606,0.015-1.213,0.005-1.821,0.006c-0.503,0-0.769,0.263-0.774,0.756c-0.009,1.214-0.007,2.427-0.001,3.643   c0.001,0.463,0.239,0.749,0.707,0.77c0.645,0.027,1.292,0.048,1.934,0.013c0.449-0.024,0.701-0.314,0.702-0.783   C25.858,64.691,25.857,64.103,25.857,63.517z" fill="#FFFFFF" fill-rule="evenodd"/><path clip-rule="evenodd" d="M64.888,58.225c0.941,0,1.882-0.028,2.82,0.007   c1.393,0.056,2.194,0.815,2.265,2.194c0.103,2.015,0.111,4.036-0.002,6.048c-0.081,1.437-0.991,2.232-2.422,2.241   c-1.155,0.006-2.313,0.011-3.468-0.002c-1.798-0.02-2.584-0.794-2.603-2.582c-0.009-0.86-0.082-1.728,0.064-2.58   c0.19-1.1,0.874-1.732,2.004-1.8c1.074-0.066,2.154-0.03,3.229-0.063c0.23-0.005,0.617,0.182,0.634-0.276   c0.015-0.451-0.318-0.531-0.684-0.531c-1.509-0.002-3.019-0.032-4.526,0.012c-0.584,0.016-0.751-0.171-0.698-0.728   c0.048-0.505,0.027-1.02,0.004-1.527c-0.015-0.341,0.117-0.438,0.443-0.434c0.979,0.017,1.959,0.007,2.938,0.007   C64.888,58.214,64.888,58.22,64.888,58.225z M65.716,64.212c0-0.002,0-0.003,0-0.003c-0.275-0.001-0.549,0.009-0.822-0.003   c-0.45-0.018-0.813,0.012-0.819,0.624c-0.011,0.976,0.102,1.208,0.798,1.25c0.469,0.026,0.938,0.012,1.409,0.009   c1.098-0.004,1.265-0.2,1.148-1.3c-0.04-0.374-0.217-0.575-0.598-0.576C66.459,64.21,66.088,64.212,65.716,64.212z" fill="#FFFFFF" fill-rule="evenodd"/><path clip-rule="evenodd" d="M39.051,63.449c0,0.941,0.014,1.881-0.003,2.822   c-0.027,1.519-0.96,2.437-2.472,2.445c-1.156,0.005-2.311,0.015-3.467-0.003c-1.787-0.024-2.56-0.815-2.565-2.607   c-0.002-0.743-0.015-1.489,0.021-2.232c0.064-1.263,0.803-2.047,2.063-2.124c1.093-0.065,2.192-0.03,3.288-0.06   c0.211-0.006,0.561,0.153,0.557-0.292c-0.003-0.381-0.253-0.51-0.581-0.513c-0.862-0.011-1.724-0.006-2.586-0.007   c-0.764-0.001-1.528-0.018-2.292,0.006c-0.365,0.011-0.476-0.115-0.459-0.473c0.027-0.587,0.022-1.175,0.002-1.764   c-0.012-0.317,0.071-0.448,0.419-0.445c1.9,0.018,3.8-0.015,5.7,0.026c1.551,0.035,2.35,0.893,2.373,2.459   C39.063,61.608,39.051,62.529,39.051,63.449z M34.787,66.088c0,0.008,0.001,0.014,0.001,0.021c0.41-0.023,0.83,0.002,1.227-0.082   c0.676-0.141,0.458-0.72,0.475-1.156c0.015-0.41-0.186-0.667-0.637-0.664c-0.587,0.005-1.175,0-1.763,0   c-0.928,0.001-0.96,0.032-0.958,0.953c0.001,0.705,0.184,0.897,0.892,0.925C34.278,66.097,34.533,66.088,34.787,66.088z" fill="#FFFFFF" fill-rule="evenodd"/><path clip-rule="evenodd" d="M83.249,68.718c-0.803,0-1.605,0.001-2.409-0.001   c-1.821-0.006-2.711-0.863-2.74-2.69c-0.023-1.529-0.004-3.058-0.006-4.586c0-0.45-0.033-0.898,0.054-1.348   c0.225-1.146,0.918-1.816,2.088-1.854c1.39-0.046,2.783-0.046,4.173-0.003c1.249,0.038,2.033,0.821,2.125,2.074   c0.054,0.74,0.008,1.49,0.038,2.232c0.015,0.358-0.23,0.409-0.463,0.499c-1.62,0.637-3.242,1.272-4.859,1.912   c-0.26,0.102-0.609,0.135-0.492,0.576c0.1,0.376,0.326,0.562,0.715,0.56c1.471-0.002,2.939,0.023,4.41-0.013   c0.532-0.013,0.736,0.128,0.671,0.675c-0.075,0.634,0.267,1.468-0.135,1.863c-0.369,0.363-1.192,0.083-1.815,0.101   C84.152,68.727,83.701,68.718,83.249,68.718z M82.427,60.904c0-0.009-0.001-0.019-0.001-0.027c-0.156,0-0.313,0-0.468,0   c-1.145,0.001-1.365,0.253-1.279,1.388c0.021,0.294,0.11,0.311,0.351,0.219c0.853-0.333,1.713-0.646,2.567-0.974   c0.133-0.05,0.347-0.063,0.309-0.276c-0.033-0.185-0.18-0.317-0.37-0.327C83.166,60.89,82.795,60.904,82.427,60.904z" fill="#FFFFFF" fill-rule="evenodd"/><path clip-rule="evenodd" d="M54.794,68.718c-0.881-0.001-1.763-0.013-2.644,0.003   c-0.321,0.008-0.457-0.081-0.444-0.424c0.023-0.587,0.026-1.176-0.001-1.764c-0.019-0.38,0.14-0.455,0.48-0.451   c1.234,0.016,2.468,0.01,3.702,0.004c0.214-0.002,0.43-0.021,0.64-0.06c0.353-0.063,0.493-0.318,0.46-0.643   c-0.033-0.337-0.183-0.595-0.592-0.588c-0.646,0.007-1.292-0.008-1.939,0.003c-1.401,0.021-2.885-0.962-2.731-2.755   c0.049-0.563-0.012-1.138,0.032-1.703c0.1-1.304,0.844-2.067,2.149-2.103c1.781-0.05,3.564-0.016,5.346-0.034   c0.329-0.004,0.392,0.14,0.386,0.423c-0.014,0.587-0.028,1.177,0.004,1.76c0.022,0.404-0.137,0.499-0.507,0.495   c-1.351-0.015-2.702-0.011-4.054,0c-0.326,0.002-0.693-0.021-0.773,0.441c-0.088,0.508,0.115,0.765,0.677,0.779   c0.725,0.019,1.45-0.001,2.174,0.008c1.436,0.016,2.396,0.932,2.462,2.366c0.026,0.585,0.024,1.175,0.007,1.761   c-0.045,1.482-1.069,2.474-2.542,2.479C56.322,68.719,55.558,68.718,54.794,68.718z" fill="#FFFFFF" fill-rule="evenodd"/><path clip-rule="evenodd" d="M72.097,62.554c0-1.801-0.002-3.602,0.002-5.402   c0.004-1.816,0.95-2.809,2.759-2.855c0.542-0.014,1.237-0.235,1.589,0.101c0.326,0.309,0.069,1,0.102,1.524   c0.005,0.078-0.012,0.159,0.002,0.235c0.108,0.578-0.141,0.724-0.698,0.696c-0.864-0.041-1.15,0.254-1.13,0.961   c0.01,0.31,0.133,0.397,0.426,0.401c0.444,0.006,1.024-0.196,1.301,0.085c0.3,0.308,0.09,0.893,0.096,1.357   c0.016,1.205,0.004,1.23-1.218,1.208c-0.514-0.008-0.612,0.182-0.608,0.646c0.021,2.193-0.009,4.386,0.021,6.577   c0.008,0.529-0.152,0.684-0.66,0.64c-0.485-0.043-0.98-0.034-1.468-0.004c-0.42,0.03-0.527-0.131-0.522-0.532   C72.108,66.312,72.097,64.431,72.097,62.554z" fill="#FFFFFF" fill-rule="evenodd"/><path clip-rule="evenodd" d="M106.555,63.65c0,0.941,0.031,1.881-0.007,2.821   c-0.052,1.204-0.976,2.173-2.167,2.221c-1.31,0.053-2.627,0.052-3.938-0.006c-1.232-0.057-2.155-0.98-2.277-2.214   c-0.09-0.897-0.089-1.804,0.027-2.7c0.174-1.343,1.124-2.095,2.663-2.111c1.527-0.015,3.058-0.015,4.585,0.005   c0.399,0.006,0.552-0.09,0.538-0.516c-0.018-0.54-0.063-1.053-0.36-1.52c-0.312-0.493-0.723-0.828-1.331-0.833   c-1.782-0.018-3.564-0.026-5.348-0.038c-0.156-0.001-0.313-0.008-0.47,0c-0.235,0.014-0.301-0.104-0.303-0.32   c-0.001-0.22,0.073-0.313,0.305-0.312c1.901,0.01,3.806-0.043,5.703,0.034c1.388,0.057,2.249,1.022,2.378,2.433   c0.017,0.175,0.04,0.351,0.041,0.526c0.004,0.843,0.001,1.686,0.001,2.528C106.582,63.65,106.568,63.65,106.555,63.65z    M103.18,62.289c-0.783,0-1.567,0-2.352,0.001c-0.037,0-0.077,0-0.116,0.002c-1.193,0.072-1.886,0.75-1.938,1.928   c-0.028,0.626-0.028,1.254-0.01,1.88c0.034,1.208,0.771,1.962,1.992,1.998c1.117,0.031,2.235,0.03,3.352-0.002   c1.171-0.034,1.803-0.67,1.838-1.848c0.035-1.177,0.007-2.353,0.027-3.528c0.006-0.337-0.115-0.443-0.442-0.436   C104.748,62.299,103.965,62.29,103.18,62.289z" fill="#FFFFFF" fill-rule="evenodd"/><path clip-rule="evenodd" d="M4.705,58.208c-0.237-3.062,2.152-5.694,5.139-5.722   c3.13-0.03,5.586,2.548,5.398,5.714c-0.427-0.212-0.812-0.483-1.274-0.577c-0.187-0.038-0.185-0.228-0.238-0.371   c-0.63-1.739-2.028-2.78-3.738-2.786c-1.75-0.008-3.149,1.016-3.787,2.788c-0.077,0.215-0.171,0.353-0.41,0.436   C5.434,57.817,5.097,58.018,4.705,58.208z" fill="#FFFFFF" fill-rule="evenodd"/><path clip-rule="evenodd" d="M123.571,60.397c0,1.567,0.007,3.135-0.003,4.701   c-0.004,0.43-0.03,0.862-0.085,1.288c-0.175,1.379-1.064,2.245-2.459,2.305c-1.212,0.053-2.43,0.048-3.642,0   c-1.37-0.054-2.332-0.98-2.374-2.351c-0.053-1.898-0.061-3.803,0.01-5.7c0.058-1.575,1.145-2.488,2.831-2.506   c1.489-0.018,2.977-0.02,4.466,0.005c0.442,0.007,0.624-0.089,0.599-0.575c-0.041-0.821-0.007-1.646-0.014-2.468   c0-0.246,0.028-0.404,0.343-0.404c0.323,0,0.33,0.181,0.33,0.415C123.57,56.871,123.571,58.635,123.571,60.397z M122.902,62.641   c0-1.135-0.004-2.273,0.004-3.408c0.003-0.291-0.028-0.481-0.4-0.477c-1.625,0.023-3.253-0.021-4.875,0.048   c-1.281,0.056-2.029,0.916-2.035,2.19c-0.008,1.685-0.006,3.37-0.001,5.056c0.005,1.192,0.411,1.74,1.595,1.949   c1.238,0.221,2.505,0.203,3.743,0.025c1.413-0.206,1.968-0.944,1.97-2.386C122.905,64.64,122.903,63.64,122.902,62.641z" fill="#FFFFFF" fill-rule="evenodd"/><path clip-rule="evenodd" d="M93.376,58.131c0.665,0,1.332,0.005,1.997-0.001   c0.229-0.003,0.367,0.046,0.367,0.318c0.002,0.287-0.162,0.313-0.378,0.312c-1.096-0.002-2.193-0.005-3.29,0.004   c-0.331,0.002-0.667,0.014-0.993,0.071c-0.818,0.142-1.304,0.616-1.394,1.439c-0.069,0.64-0.056,1.29-0.061,1.934   c-0.008,1.097-0.009,2.193-0.001,3.29c0.016,1.864,0.755,2.603,2.605,2.608c1.058,0.004,2.114,0.002,3.172,0   c0.225,0,0.431-0.016,0.419,0.321c-0.01,0.301-0.197,0.289-0.397,0.288c-1.292-0.005-2.586,0.028-3.876-0.024   c-1.51-0.063-2.479-1.032-2.518-2.553c-0.048-1.9-0.041-3.799-0.004-5.698c0.024-1.337,1.044-2.256,2.471-2.306   C92.122,58.113,92.749,58.131,93.376,58.131z" fill="#FFFFFF" fill-rule="evenodd"/><path clip-rule="evenodd" d="M109.692,64.425c0-1.175,0.003-2.35-0.001-3.523   c-0.008-2.111,1.309-2.876,3.222-2.772c0.225,0.01,0.31,0.095,0.311,0.318c0.002,0.234-0.11,0.313-0.322,0.31   c-0.177-0.002-0.353-0.004-0.527,0.006c-1.369,0.072-2.065,0.791-2.07,2.172c-0.008,2.27-0.002,4.54-0.002,6.81   c0,0.117,0.024,0.242-0.006,0.352c-0.059,0.22,0.204,0.6-0.283,0.615c-0.493,0.018-0.31-0.365-0.313-0.589   C109.684,66.891,109.692,65.657,109.692,64.425z" fill="#FFFFFF" fill-rule="evenodd"/></g></svg>