<?xml version="1.0" ?><!DOCTYPE svg  PUBLIC '-//W3C//DTD SVG 1.1//EN'  'http://www.w3.org/Graphics/SVG/1.1/DTD/svg11.dtd'><svg enable-background="new 0 0 128 128" height="128px" id="Layer_1" version="1.1" viewBox="0 0 128 128" width="128px" xml:space="preserve" xmlns="http://www.w3.org/2000/svg" xmlns:xlink="http://www.w3.org/1999/xlink"><path d="M126.764,101.412c0,2.243-1.817,4.061-4.061,4.061H4.825c-2.242,0-4.061-1.817-4.061-4.061V25.355  c0-2.243,1.818-4.061,4.061-4.061h117.878c2.243,0,4.061,1.818,4.061,4.061V101.412z" fill="#808080"/><g><path clip-rule="evenodd" d="M61.014,65.774c-0.278,2.844,0.319,5.783-0.377,8.694   c-0.617,2.58-2.2,4.16-4.781,4.469c-5.386,0.642-10.799,0.624-16.185-0.002c-2.435-0.282-3.976-1.854-4.596-4.21   c-0.688-2.625-0.693-5.286,0.083-7.889c0.734-2.46,3.128-3.983,6.303-4.023c4.305-0.056,8.612-0.061,12.917,0.009   c1.167,0.019,1.723-0.222,1.544-1.479c-0.073-0.512-0.001-1.042-0.005-1.564c-0.022-2.536-0.435-2.958-2.966-2.966   c-4.11-0.013-8.221-0.057-12.33,0.011c-1.234,0.019-1.691-0.233-1.675-1.593c0.042-3.72-0.031-3.785,3.631-3.703   c4.427,0.1,8.869-0.398,13.278,0.301c2.597,0.415,4.18,1.938,4.76,4.509C61.317,59.439,60.785,62.584,61.014,65.774z    M48.032,68.025c-1.959,0-3.937,0.163-5.874-0.045c-2.115-0.225-2.512,0.903-2.591,2.571c-0.126,2.676,0.543,3.425,3.183,3.437   c3.397,0.014,6.794,0.016,10.19,0.009c2.474-0.004,2.957-0.495,2.974-2.983c0.004-0.59-0.046-1.181,0.008-1.764   c0.085-0.938-0.287-1.26-1.227-1.237C52.476,68.064,50.253,68.028,48.032,68.025z" fill="#FFFFFF" fill-rule="evenodd"/><path clip-rule="evenodd" d="M89.98,63.111c-0.269,3.178,0.388,7.088-0.375,10.978   c-0.545,2.785-1.91,4.392-4.742,4.887c-3.885,0.68-7.814,0.188-11.721,0.321c-0.717,0.025-1.437,0.004-2.153,0.004   c-2.996,0-2.85-0.011-3.042-2.933c-0.134-2.011,0.488-2.504,2.439-2.418c3.844,0.167,7.699,0.052,11.55,0.054   c2.47,0,2.969-0.493,2.993-2.958c0.006-0.521-0.059-1.052,0.012-1.564c0.172-1.26-0.404-1.516-1.563-1.491   c-3.522,0.073-7.049-0.021-10.57,0.056c-1.631,0.036-3.205-0.278-4.778-0.535c-2.317-0.377-4.058-2.395-4.249-5.208   c-0.221-3.25-0.084-6.522-0.134-9.783c-0.012-0.761,0.282-1.061,1.027-1.019c0.586,0.035,1.181,0.061,1.761-0.004   c1.68-0.187,2.346,0.465,2.241,2.205c-0.136,2.276-0.035,4.566-0.073,6.849c-0.025,1.537,0.525,2.314,2.22,2.279   c4.176-0.082,8.355-0.092,12.53-0.011c1.328,0.025,1.643-0.407,1.604-1.659c-0.086-2.804,0.015-5.612-0.041-8.418   c-0.018-0.926,0.243-1.208,1.189-1.255c3.876-0.196,3.874-0.233,3.875,3.667C89.981,57.568,89.98,59.983,89.98,63.111z" fill="#FFFFFF" fill-rule="evenodd"/><path clip-rule="evenodd" d="M8.399,67.932c0-3-0.021-6.001,0.005-9.001   c0.043-4.947,2.35-7.328,7.292-7.412c3.977-0.067,7.962-0.143,11.934,0.031c4.773,0.21,6.942,2.424,7.078,7.106   c0.057,1.933,0.045,3.812-0.757,5.712c-1.192,2.818-3.503,3.499-6.079,3.588c-4.17,0.145-8.348,0.094-12.521,0.032   c-1.447-0.021-2.103,0.291-1.998,1.941c0.159,2.534-0.018,5.087,0.065,7.628c0.044,1.301-0.254,1.82-1.706,1.781   c-3.331-0.085-3.334,0-3.334-3.386c0-2.675,0-5.348,0-8.021C8.386,67.932,8.392,67.932,8.399,67.932z M20.982,62.809   c0-0.008,0-0.017,0-0.024c2.022,0,4.044,0.018,6.066-0.005c2.059-0.024,2.79-0.868,2.751-3.107   c-0.036-2.094-0.727-2.825-2.797-2.841c-3.523-0.027-7.045-0.031-10.569-0.014c-2.561,0.012-2.966,0.423-3.038,2.939   c-0.017,0.587,0.047,1.18-0.006,1.761c-0.096,1.019,0.294,1.354,1.331,1.314C16.806,62.754,18.895,62.809,20.982,62.809z" fill="#FFFFFF" fill-rule="evenodd"/><path clip-rule="evenodd" d="M119.366,62.656c0,3.266,0.104,6.535-0.027,9.797   c-0.167,4.186-1.856,6.266-5.942,6.627c-4.864,0.432-9.79,0.567-14.65-0.088c-4.089-0.554-5.41-1.835-5.559-5.881   c-0.246-6.851-0.103-13.714-0.146-20.574c-0.004-0.765,0.319-0.961,1.042-1.038c3.821-0.405,3.93-0.324,3.935,3.49   c0.004,5.291,0.007,10.584,0.034,15.875c0.014,2.628,0.487,3.113,3.084,3.131c3.528,0.024,7.056,0.018,10.583-0.009   c2.099-0.017,2.665-0.564,2.678-2.702c0.034-5.879,0.085-11.76-0.016-17.638c-0.03-1.714,0.411-2.434,2.162-2.142   c0.51,0.084,1.049,0.064,1.565,0.001c1.07-0.131,1.321,0.371,1.309,1.353c-0.045,3.266-0.018,6.532-0.018,9.799   C119.389,62.656,119.378,62.656,119.366,62.656z" fill="#E6E6E6" fill-rule="evenodd"/></g></svg>