<?xml version="1.0" ?><!DOCTYPE svg  PUBLIC '-//W3C//DTD SVG 1.1//EN'  'http://www.w3.org/Graphics/SVG/1.1/DTD/svg11.dtd'><svg enable-background="new 0 0 128 128" height="128px" id="Layer_1" version="1.1" viewBox="0 0 128 128" width="128px" xml:space="preserve" xmlns="http://www.w3.org/2000/svg" xmlns:xlink="http://www.w3.org/1999/xlink"><path d="M127.342,101.417c0,2.243-1.818,4.061-4.062,4.061H5.402c-2.242,0-4.061-1.817-4.061-4.061V25.36  c0-2.243,1.818-4.061,4.061-4.061H123.28c2.243,0,4.062,1.818,4.062,4.061V101.417z" fill="#808080"/><g><path clip-rule="evenodd" d="M48.443,55.763c0.538,0.144,1.077,0.288,1.695,0.452   c-0.164,0.692-0.321,1.364-0.468,1.983c-0.832-0.157-1.609-0.369-2.399-0.433c-0.961-0.079-1.649,0.327-1.818,0.917   c-0.194,0.658,0.033,1.217,0.726,1.601c0.62,0.342,1.28,0.604,1.917,0.916c1.875,0.918,2.523,2.026,2.32,3.937   c-0.159,1.505-1.296,2.649-3.136,3.021c-1.501,0.303-3.006,0.168-4.583-0.198c0.174-0.728,0.34-1.421,0.494-2.074   c0.833,0.152,1.592,0.307,2.357,0.421c0.273,0.041,0.569,0.013,0.845-0.031c0.788-0.126,1.316-0.598,1.457-1.263   c0.134-0.644-0.184-1.293-0.908-1.682c-0.6-0.323-1.242-0.569-1.865-0.851c-1.803-0.815-2.563-2.43-2.028-4.304   c0.375-1.319,1.389-1.896,2.604-2.24c0.175-0.048,0.344-0.114,0.516-0.172C46.924,55.763,47.685,55.763,48.443,55.763z" fill="#FFFFFF" fill-rule="evenodd"/><path clip-rule="evenodd" d="M96.052,55.763c0,4.114,0,8.229,0,12.399c-0.599,0-1.147,0-1.75,0   c0-0.45,0-0.88,0-1.464c-0.666,1.002-1.468,1.576-2.543,1.685c-1.957,0.199-3.334-0.91-3.59-3.062   c-0.116-0.967-0.065-1.999,0.147-2.949c0.461-2.073,2.137-3.303,4.283-3.329c0.493-0.007,0.985-0.002,1.606-0.002   c0-1.115,0-2.196,0-3.278C94.822,55.763,95.438,55.763,96.052,55.763z M94.357,62.519c-0.057-0.012-0.116-0.024-0.174-0.039   c0-0.424,0.024-0.853-0.011-1.273c-0.018-0.175-0.123-0.427-0.26-0.494c-1.331-0.632-3.154,0.08-3.523,1.503   c-0.236,0.907-0.242,1.911-0.162,2.855c0.094,1.085,0.652,1.62,1.472,1.742c0.767,0.115,1.635-0.351,1.975-1.304   C94.015,64.555,94.139,63.521,94.357,62.519z" fill="#FFFFFF" fill-rule="evenodd"/><path clip-rule="evenodd" d="M112.539,72.818c-0.03-0.546-0.064-1.094-0.101-1.687   c0.313,0,0.494-0.011,0.673,0.002c1.373,0.091,1.978-0.27,2.588-1.511c0.396-0.806,0.551-1.547,0.166-2.475   c-0.972-2.332-1.799-4.725-2.679-7.095c-0.099-0.261-0.183-0.528-0.297-0.87c0.655,0,1.244-0.044,1.823,0.026   c0.19,0.023,0.427,0.313,0.506,0.531c0.675,1.862,1.318,3.734,1.992,5.662c0.073-0.107,0.151-0.185,0.182-0.275   c0.612-1.788,1.231-3.571,1.814-5.368c0.138-0.422,0.317-0.627,0.783-0.587c0.47,0.039,0.944,0.009,1.499,0.009   c-0.641,1.704-1.259,3.356-1.884,5.009c-0.635,1.678-1.282,3.355-1.911,5.039c-0.616,1.647-1.483,3.056-3.309,3.589   C113.771,72.818,113.155,72.818,112.539,72.818z" fill="#FFFFFF" fill-rule="evenodd"/><path clip-rule="evenodd" d="M13.053,55.763c0.664,0.293,0.961,0.781,0.855,1.517   c-0.041,0.276-0.033,0.568-0.002,0.851c0.092,0.882-0.118,1.523-1.044,1.912c-0.398,0.167-0.688,0.687-0.94,1.098   c-0.289,0.477-0.647,0.726-1.201,0.718c-0.448-0.009-0.901-0.027-1.347,0.008c-0.627,0.046-1.103-0.168-1.437-0.701   c0-0.238,0-0.474,0-0.711c0.614-0.953,1.627-0.422,2.558-0.625c-0.902-0.931-1.73-1.788-2.558-2.643c0-0.474,0-0.948,0-1.422   c0.379,0,0.758,0,1.136,0c0.93,0.827,1.859,1.653,2.833,2.521c0.121-0.946-0.309-2.021,0.861-2.521   C12.864,55.763,12.958,55.763,13.053,55.763z" fill="#FFFFFF" fill-rule="evenodd"/><path clip-rule="evenodd" d="M19.593,55.763c0.987,0.69,1.026,1.219,0.168,2.083   c-0.596,0.6-1.177,1.218-1.884,1.947c0.471,0,0.831-0.012,1.19,0.003c0.845,0.033,1.344,0.449,1.308,1.079   c-0.035,0.62-0.494,0.948-1.333,0.951c-0.308,0-0.62-0.021-0.923,0.005c-0.877,0.074-1.54-0.104-1.926-1.049   c-0.175-0.419-0.71-0.731-1.139-1.001c-0.449-0.282-0.695-0.608-0.673-1.146c0.022-0.449,0.039-0.901-0.003-1.347   c-0.069-0.765,0.194-1.289,0.95-1.524c0.094,0,0.189,0,0.285,0c1.108,0.547,0.603,1.62,0.771,2.545   c0.968-0.885,1.875-1.714,2.783-2.545C19.307,55.763,19.45,55.763,19.593,55.763z" fill="#FFFFFF" fill-rule="evenodd"/><path clip-rule="evenodd" d="M7.938,62.871c0.382-0.472,0.869-0.663,1.477-0.602   c0.374,0.039,0.757,0.031,1.133,0.003c0.716-0.055,1.187,0.179,1.499,0.887c0.176,0.397,0.613,0.684,0.943,1.009   c0.079,0.078,0.209,0.103,0.313,0.158c0.772,0.416,0.97,3.238,0.225,3.705c-0.259,0.165-0.713,0.225-0.979,0.106   c-0.262-0.115-0.499-0.497-0.558-0.798c-0.092-0.471-0.024-0.971-0.024-1.457c-0.067-0.039-0.132-0.078-0.199-0.118   C11.18,66.393,10.597,67.03,10,67.646c-0.848,0.875-1.312,0.849-2.062-0.084c0-0.191,0-0.381,0-0.569   c0.811-0.872,1.622-1.744,2.488-2.673c-0.91-0.163-1.928,0.266-2.488-0.738C7.938,63.343,7.938,63.107,7.938,62.871z" fill="#FFFFFF" fill-rule="evenodd"/><path clip-rule="evenodd" d="M86.816,55.763c0,4.112,0,8.224,0,12.396   c-0.612,0-1.186,0-1.848,0c0-4.138,0-8.267,0-12.396C85.583,55.763,86.198,55.763,86.816,55.763z" fill="#FFFFFF" fill-rule="evenodd"/><path clip-rule="evenodd" d="M19.166,55.763c-0.908,0.832-1.814,1.66-2.783,2.545   c-0.168-0.926,0.338-1.999-0.771-2.545C16.798,55.763,17.982,55.763,19.166,55.763z" fill="#FFFFFF" fill-rule="evenodd"/><path clip-rule="evenodd" d="M12.769,55.763c-1.17,0.5-0.741,1.575-0.861,2.521   c-0.975-0.868-1.904-1.694-2.833-2.521C10.308,55.763,11.539,55.763,12.769,55.763z" fill="#FFFFFF" fill-rule="evenodd"/><path clip-rule="evenodd" d="M7.938,63.581c0.56,1.004,1.578,0.575,2.488,0.738   c-0.866,0.929-1.677,1.801-2.488,2.673C7.938,65.856,7.938,64.717,7.938,63.581z" fill="#FFFFFF" fill-rule="evenodd"/><path clip-rule="evenodd" d="M7.938,57.186c0.828,0.855,1.656,1.712,2.558,2.643   c-0.931,0.203-1.944-0.327-2.558,0.625C7.938,59.366,7.938,58.276,7.938,57.186z" fill="#FFFFFF" fill-rule="evenodd"/><path clip-rule="evenodd" d="M121.634,57.753c-0.118-0.375-0.234-0.749-0.37-1.173   c-0.16,0.382-0.321,0.768-0.571,1.362c-0.219-0.569-0.361-0.941-0.505-1.313c-0.035-0.002-0.07-0.005-0.108-0.006   c-0.035,0.341-0.068,0.685-0.105,1.027c-0.062,0.001-0.123,0.001-0.186,0.001c0-0.629,0-1.257,0-1.887c0.141,0,0.284,0,0.425,0   c0.135,0.512,0.269,1.022,0.404,1.531c0.065,0,0.131,0,0.195,0c0.133-0.51,0.264-1.019,0.396-1.531   c0.235,0.009,0.496-0.094,0.442,0.357C121.586,56.659,121.634,57.209,121.634,57.753z" fill="#FFFFFF" fill-rule="evenodd"/><path clip-rule="evenodd" d="M119.504,55.763c-0.185,0.128-0.368,0.256-0.687,0.479   c0,0.365,0,0.882,0,1.4c-0.07,0.002-0.141,0.004-0.212,0.007c-0.022-0.49-0.043-0.979-0.066-1.455   c-0.203-0.146-0.402-0.287-0.6-0.43C118.461,55.763,118.982,55.763,119.504,55.763z" fill="#FFFFFF" fill-rule="evenodd"/><path clip-rule="evenodd" d="M53.825,56.009c0.091-0.04,0.113-0.057,0.135-0.058   c1.861-0.158,1.871-0.16,2.314,1.637c0.622,2.521,1.229,5.047,1.848,7.57c0.014,0.055,0.07,0.104,0.145,0.2   c0.434-1.615,0.855-3.175,1.28-4.734c0.375-1.366,0.767-2.73,1.12-4.102c0.111-0.418,0.267-0.62,0.754-0.614   c1.549,0.02,1.565-0.008,1.994,1.496c0.75,2.627,1.476,5.263,2.271,8.105c0.116-0.565,0.182-0.956,0.276-1.342   c0.624-2.524,1.269-5.041,1.87-7.568c0.128-0.54,0.344-0.759,0.902-0.683c0.368,0.049,0.752,0.008,1.235,0.008   c-0.317,1.239-0.615,2.399-0.917,3.559c-0.697,2.7-1.405,5.394-2.085,8.098c-0.114,0.461-0.275,0.657-0.795,0.653   c-1.751-0.024-1.783,0.007-2.25-1.703c-0.692-2.527-1.336-5.07-2.004-7.605c-0.016-0.056-0.078-0.098-0.107-0.137   c-0.765,2.825-1.553,5.631-2.266,8.458c-0.187,0.747-0.457,1.041-1.259,0.99c-1.624-0.104-1.248,0.25-1.653-1.285   C55.716,63.48,54.826,60,53.927,56.522C53.887,56.366,53.863,56.203,53.825,56.009z" fill="#FFFFFF" fill-rule="evenodd"/><path clip-rule="evenodd" d="M33.565,68.08c0-3.979,0-8.016,0-12.265   c1.954,0.12,3.888,0.137,5.789,0.393c1.247,0.167,2.03,1.1,2.229,2.371c0.203,1.292-0.254,2.322-1.417,2.994   c-0.076,0.042-0.135,0.114-0.208,0.182c2.265,1.224,2.81,3.506,1.157,5.153c-0.553,0.549-1.392,1.052-2.143,1.121   C37.198,68.19,35.398,68.08,33.565,68.08z M35.936,62.886c0,1.155,0,2.292,0,3.508c0.328,0,0.606,0.013,0.881-0.002   c0.423-0.021,0.85-0.034,1.267-0.098c0.902-0.142,1.422-0.753,1.437-1.641c0.014-0.969-0.449-1.626-1.388-1.75   C37.422,62.812,36.692,62.886,35.936,62.886z M35.887,61.09c0.784-0.073,1.448-0.073,2.082-0.209   c0.788-0.173,1.201-0.831,1.157-1.643c-0.045-0.832-0.424-1.272-1.312-1.397c-0.51-0.071-1.036-0.063-1.552-0.032   c-0.132,0.006-0.353,0.24-0.36,0.377C35.872,59.102,35.887,60.019,35.887,61.09z" fill="#FFFFFF" fill-rule="evenodd"/><path clip-rule="evenodd" d="M29.445,62.764c1.022,1.772,2.033,3.526,3.142,5.446   c-1.017,0-1.853,0.024-2.686-0.024c-0.158-0.01-0.338-0.29-0.448-0.48c-0.783-1.375-1.534-2.771-2.337-4.135   c-0.137-0.233-0.467-0.353-0.71-0.524c-0.059,0.055-0.125,0.114-0.186,0.171c0,1.391-0.028,2.783,0.015,4.174   c0.019,0.638-0.145,0.913-0.823,0.836c-0.485-0.054-0.98-0.009-1.502-0.009c0-4.128,0-8.165,0-12.372   c1.807,0.086,3.604,0.06,5.368,0.292c1.432,0.188,2.302,1.306,2.503,2.725c0.228,1.578-0.341,2.792-1.659,3.538   C29.898,62.53,29.668,62.647,29.445,62.764z M26.261,61.288c1.071,0.062,2.128,0.209,2.865-0.786   c0.376-0.509,0.365-1.408-0.04-1.945c-0.736-0.97-1.777-0.772-2.826-0.75C26.261,59,26.261,60.122,26.261,61.288z" fill="#FFFFFF" fill-rule="evenodd"/><path clip-rule="evenodd" d="M99.457,63.85c0,1.402,0,2.837,0,4.32c-0.655,0-1.258,0-1.912,0   c0-4.054,0-8.104,0-12.197c1.493,0,2.99-0.145,4.447,0.035c1.918,0.236,3.014,1.46,3.137,3.117c0.15,1.985-0.875,3.667-2.724,4.234   C101.496,63.639,100.516,63.682,99.457,63.85z M99.457,57.484c0,1.132,0,2.167,0,3.201c0,1.482,0.115,1.579,1.602,1.342   c1.226-0.195,2.065-1.135,2.072-2.316c0.007-1.216-0.735-2.055-2.024-2.217C100.603,57.429,100.081,57.484,99.457,57.484z" fill="#FFFFFF" fill-rule="evenodd"/><path clip-rule="evenodd" d="M69.451,63.865c0.007-2.442,1.21-4.243,3.289-4.706   c2.927-0.648,5.13,0.694,5.281,3.829c0.116,2.366-0.786,4.174-2.518,4.989c-1.89,0.89-4.262,0.389-5.313-1.137   C69.574,65.945,69.445,64.918,69.451,63.865z M71.396,63.657c0.064,0.441,0.09,0.893,0.201,1.322   c0.287,1.132,0.989,1.722,2.019,1.748c1.111,0.029,2.007-0.529,2.218-1.678c0.174-0.946,0.177-1.978-0.005-2.922   c-0.235-1.206-1.479-1.772-2.666-1.419C72.052,61.038,71.446,62.078,71.396,63.657z" fill="#FFFFFF" fill-rule="evenodd"/><path clip-rule="evenodd" d="M110.578,62.708c0.264-1.474-0.349-2.275-1.79-2.206   c-0.859,0.042-1.706,0.297-2.613,0.47c0.024,0.032-0.028-0.019-0.046-0.079c-0.438-1.357-0.419-1.494,0.991-1.66   c1.182-0.139,2.406-0.167,3.58-0.008c1.161,0.156,1.774,1.014,1.83,2.201c0.051,1.158,0.026,2.318,0.035,3.478   c0.003,0.616-0.006,1.23,0.003,1.845c0.021,1.618,0.023,1.618-1.725,1.398c0-0.411,0-0.84,0-1.477   c-0.824,1.199-1.786,1.738-3.038,1.724c-1.201-0.016-2.046-0.607-2.357-1.662c-0.35-1.184,0.048-2.345,1.015-3   c1.083-0.73,2.324-0.875,3.578-0.985C110.224,62.73,110.403,62.72,110.578,62.708z M108.494,66.869   c1.144,0.039,2.115-1.135,2.148-2.482c0.002-0.114-0.239-0.349-0.328-0.333c-0.866,0.165-1.762,0.286-2.577,0.6   c-0.539,0.21-0.683,0.814-0.483,1.401C107.446,66.611,107.846,66.885,108.494,66.869z" fill="#FFFFFF" fill-rule="evenodd"/><path clip-rule="evenodd" d="M16.35,65.691c0,0.66,0.006,1.098-0.004,1.533   c-0.015,0.608-0.305,0.988-0.935,1.028c-0.572,0.038-1.021-0.379-1.052-1.007c-0.032-0.637-0.083-1.29,0.021-1.908   c0.062-0.363,0.377-0.71,0.641-1.004c0.43-0.475,0.979-0.856,1.353-1.366c0.31-0.419,0.596-0.704,1.133-0.689   c0.615,0.013,1.229-0.018,1.844,0.011c0.655,0.031,1.019,0.433,0.972,1.046c-0.045,0.638-0.451,0.899-1.045,0.916   c-0.44,0.011-0.878,0.001-1.317,0.001c-0.051,0.075-0.1,0.15-0.151,0.224c0.686,0.63,1.384,1.246,2.05,1.896   c0.572,0.558,0.622,1.167,0.184,1.606c-0.44,0.438-1.01,0.366-1.603-0.213C17.792,67.129,17.15,66.486,16.35,65.691z" fill="#FFFFFF" fill-rule="evenodd"/><path clip-rule="evenodd" d="M79.211,59.211c0.603,0,1.141,0,1.724,0c0,0.54,0,1.045,0,1.503   c0.349-0.392,0.672-0.924,1.14-1.239c0.452-0.307,1.059-0.395,1.691-0.611c0,0.78,0,1.357,0,1.922   c-1.951,0.292-2.585,1.012-2.649,3.008c-0.023,0.735-0.004,1.469-0.006,2.201c0,0.707,0,1.416,0,2.173c-0.646,0-1.246,0-1.899,0   C79.211,65.197,79.211,62.231,79.211,59.211z" fill="#FFFFFF" fill-rule="evenodd"/></g></svg>