<?xml version="1.0" ?><!DOCTYPE svg  PUBLIC '-//W3C//DTD SVG 1.1//EN'  'http://www.w3.org/Graphics/SVG/1.1/DTD/svg11.dtd'><svg enable-background="new 0 0 1024 1024" height="1024px" id="Steam_2_" version="1.1" viewBox="0 0 1024 1024" width="1024px" xml:space="preserve" xmlns="http://www.w3.org/2000/svg" xmlns:xlink="http://www.w3.org/1999/xlink"><g id="Background"><linearGradient gradientTransform="matrix(0.9397 0.3421 0.3421 -0.9397 275.9532 765.9631)" gradientUnits="userSpaceOnUse" id="bg_1_" x1="464.1323" x2="-194.2839" y1="-72.9106" y2="711.6677"><stop offset="0" style="stop-color:#141414"/><stop offset="0.1689" style="stop-color:#1D1D1D"/><stop offset="0.4445" style="stop-color:#353535"/><stop offset="0.7902" style="stop-color:#5D5D5D"/><stop offset="1" style="stop-color:#787878"/></linearGradient><circle cx="512.001" cy="512" fill="url(#bg_1_)" id="bg" r="512"/></g><g id="Steam_1_"><linearGradient gradientTransform="matrix(1 0 0 -1 214.3398 1116.0391)" gradientUnits="userSpaceOnUse" id="Shadow_1_" x1="129.3008" x2="689.2598" y1="831.5166" y2="271.5574"><stop offset="0" style="stop-color:#000000"/><stop offset="0.5523" style="stop-color:#090909;stop-opacity:0.4477"/><stop offset="1" style="stop-color:#141414;stop-opacity:0"/></linearGradient><path d="M628.247,1010.747L187.58,570.022c0,0-42.08-143.022,37.92-150.522l106.122,5.639   l71.412,71.396L523,587c0,0,31.5-61,85-56.5l41.633-79.73c0,0-39.299-141.103,114.034-138.436l67.308,17.908l192.906,192.93   c0,0-0.779,21.036-1.363,28.092c-0.584,7.057-2.857,41.979-10.924,73.257c-8.065,31.279-20.876,80.842-43.77,120.889   c-22.895,40.047-24.812,45.553-40.817,66.511s-45.559,55.674-60.297,69.298s-41.007,37.299-63.936,52.258   c-22.93,14.959-60.428,36.75-78.48,44.572s-42.803,18.221-63.798,24.086S628.247,1010.747,628.247,1010.747z" fill="url(#Shadow_1_)" id="Shadow"/><circle cx="745.55" cy="416.131" fill="#FFFFFF" r="56.749"/><path d="M602.443,515.176c-59.049,0-106.917,47.87-106.917,106.915c0,59.048,47.867,106.917,106.917,106.917   c59.044,0,106.915-47.869,106.915-106.917C709.358,563.046,661.487,515.176,602.443,515.176z M602.443,694.074   c-39.692,0-71.984-32.292-71.984-71.983c0-39.689,32.292-71.981,71.984-71.981c39.69,0,71.981,32.292,71.981,71.981   C674.425,661.782,642.134,694.074,602.443,694.074z" fill="#FFFFFF"/><path d="M745.55,294.992c-66.903,0-121.139,54.236-121.139,121.137c0,66.906,54.233,121.142,121.139,121.142   c66.9,0,121.138-54.234,121.138-121.142C866.688,349.229,812.45,294.992,745.55,294.992z M745.55,497.689   c-44.968,0-81.559-36.592-81.559-81.562c0-44.969,36.591-81.557,81.559-81.557c44.97,0,81.558,36.588,81.558,81.557   C827.107,461.099,790.52,497.689,745.55,497.689z" fill="#FFFFFF"/><path d="M259.466,395.293c-56.418,0-102.154,45.737-102.154,102.151c0,56.417,45.736,102.152,102.154,102.152   c56.413,0,102.151-45.735,102.151-102.152C361.617,441.03,315.879,395.293,259.466,395.293z M259.466,566.222   c-37.925,0-68.778-30.854-68.778-68.776s30.853-68.776,68.778-68.776c37.923,0,68.775,30.854,68.775,68.776   S297.39,566.222,259.466,566.222z" fill="#FFFFFF"/><polygon fill="#FFFFFF" points="706.05,605.269 600.458,515.176 627.08,441.532 775.771,533.469  "/><path d="M620.767,574.684c23.365,8.384,34.881,35.878,25.719,61.401l0,0c-9.163,25.526-35.531,39.421-58.896,31.035   L249.157,545.649c-23.365-8.385-34.88-35.876-25.715-61.402l0,0c9.161-25.523,35.529-39.419,58.893-31.035L620.767,574.684z" fill="#FFFFFF"/></g></svg>