<?xml version="1.0" ?><!DOCTYPE svg  PUBLIC '-//W3C//DTD SVG 1.1//EN'  'http://www.w3.org/Graphics/SVG/1.1/DTD/svg11.dtd'><svg enable-background="new 0 0 1024 1024" height="1024px" id="Swarm" version="1.1" viewBox="0 0 1024 1024" width="1024px" xml:space="preserve" xmlns="http://www.w3.org/2000/svg" xmlns:xlink="http://www.w3.org/1999/xlink"><g id="Background"><linearGradient gradientTransform="matrix(0.9397 0.342 0.342 -0.9397 121.6961 586.334)" gradientUnits="userSpaceOnUse" id="bg_1_" x1="670.5215" x2="12.1704" y1="-189.0049" y2="595.6736"><stop offset="0" style="stop-color:#FF4F00"/><stop offset="0.213" style="stop-color:#FF5800"/><stop offset="0.5603" style="stop-color:#FF7000"/><stop offset="0.9965" style="stop-color:#FF9800"/><stop offset="1" style="stop-color:#FF9800"/></linearGradient><circle cx="512.001" cy="512" fill="url(#bg_1_)" id="bg" r="512"/></g><linearGradient gradientTransform="matrix(1 0 0 -1 8.3398 1000.04)" gradientUnits="userSpaceOnUse" id="Shadow_1_" x1="286.3242" x2="873.5975" y1="721.0791" y2="133.8059"><stop offset="0" style="stop-color:#000000"/><stop offset="0.0849" style="stop-color:#090300;stop-opacity:0.9151"/><stop offset="0.2235" style="stop-color:#210A00;stop-opacity:0.7765"/><stop offset="0.3985" style="stop-color:#491700;stop-opacity:0.6015"/><stop offset="0.6031" style="stop-color:#802800;stop-opacity:0.3969"/><stop offset="0.8298" style="stop-color:#C63D00;stop-opacity:0.1702"/><stop offset="1" style="stop-color:#FF4F00;stop-opacity:0"/></linearGradient><path d="M648.311,246.686h-1.353L623,241.666c-84.667,13-67.063,173.558-67.063,173.558  l38.146,38.17l1.394,0.125v22.417l-0.673-0.382l-126.01-125.768L465,351.333L355,301c-172-21-110.719,124.375-110.719,124.375  l2.343,3.017l177.878,177.85L426,607.25c0,0-57.667,120.583-58.417,124.333s3.063,9.235,3.063,9.235l267.412,267.46  c4.078-1.023,40.121-11.995,40.121-11.995c7.121-2.39,45.792-18.195,45.792-18.195c8.696-3.847,29.837-14.713,29.837-14.713  c7.082-3.712,26.723-15.325,26.723-15.325c5.281-3.201,25.435-16.695,32.305-21.589s23.263-17.917,23.263-17.917  c6.607-5.31,22.988-19.965,22.988-19.965c6.8-6.16,20.578-20.088,20.578-20.088c4.044-4.13,23.496-25.997,23.496-25.997  c6.025-7.019,17.325-21.713,17.325-21.713c5.928-7.704,14.063-19.582,14.063-19.582c4.479-6.448,15.81-24.618,15.81-24.618  c4.36-7.104,12.126-21.243,12.126-21.243c4.069-7.396,13.902-27.725,13.902-27.725c4.294-9.019,10.352-23.852,10.352-23.852  c1.922-4.688,10.368-27.95,10.368-27.95c2.313-6.684,8.281-26.872,8.281-26.872c2.653-9.196,8.729-36.447,8.729-36.447  L648.311,246.686z" fill="url(#Shadow_1_)" id="Shadow"/><g id="Swarm_1_"><path d="M434.29,589.655c-0.858,0.344-1.803,2.491-2.236,3.195c-1.733,2.817-3.321,5.728-4.923,8.62   c-2.286,4.132-4.557,8.272-6.796,12.431c-2.803,5.203-5.535,10.441-8.258,15.688c-2.995,5.766-6.005,11.523-8.97,17.304   c-3.133,6.106-6.175,12.258-9.202,18.415c-6.417,13.056-13.001,26.044-18.805,39.389c-1.653,3.804-3.24,7.637-4.724,11.51   c-1.184,3.092-2.239,6.237-3.062,9.446c-1.797,6.982,0.158,14.771,7.343,17.825c4.826,2.054,9.893,3.774,14.852,5.471   c4.506,1.54,8.951,3.216,13.394,4.931c31.946,12.33,118.263,30.826,118.263,30.826C432.608,704.554,434.29,589.655,434.29,589.655z   " fill="#FFFFFF"/><path d="M677.164,715.923c-32.379-30.07-55.507-68.633-69.303-110.474c-7.92-24.021-12.201-49.086-13.368-74.32   c-0.167-3.604-0.271-7.214-0.318-10.829c-0.707-18.641,1.535-38.818,3.955-58.093c0.434-3.332,0.947-6.608,1.542-9.114   c0.594-2.505,1.271-4.239,2.018-4.482c-2.406,0.789-4.812,1.604-7.207,2.448c-2.397,0.846-4.786,1.719-7.174,2.616   c-16.537,5.496-32.652,13.289-46.968,23.531c-2.861,2.048-5.652,4.195-8.359,6.439c-3.156,2.362-6.164,4.868-9.021,7.505   c-30.38,27.323-42.71,69.92-37.505,110.104c0.73,9.037,2.121,18.022,3.959,26.898c6.84,33.021,20.669,65.058,40.091,92.643   c17.763,25.229,40.582,47.425,69.542,59.182c27.922,11.332,64.824,10.051,93.154,0.024c11.371-4.022,22.607-8.909,33.028-15.019   c0.849-0.499,12.17-9.011,12.47-8.865c-11.355-5.487-21.844-11.397-31.529-17.657C695.866,731.801,686.149,724.268,677.164,715.923   z" fill="#FFFFFF"/><path d="M385.714,292.785c-46.646-17.631-97.206-21.622-141.989,2.904c-23.352,12.789-39.466,31.688-37.563,59.192   c1.944,28.098,21.546,57.044,42.284,75.13c5.887,5.134,12.436,9.9,19.225,13.78c14.008,8.004,30.412,13.581,46.301,16.392   c97.151,17.188,193.555-24.662,208.5-30.641C522.473,429.543,480.623,328.656,385.714,292.785z" fill="#FFFFFF"/><path d="M649.576,345.869c14.229-25.906,20.42-55.157,8.774-83.243c-6.073-14.646-16.413-25.532-33.343-26.553   c-17.298-1.043-36.426,8.175-49.005,18.896c-3.57,3.043-6.967,6.503-9.84,10.172c-5.924,7.569-10.55,16.728-13.445,25.799   c-17.706,55.469,0.679,115.08,3.219,124.282C555.938,415.224,620.631,398.579,649.576,345.869z" fill="#FFFFFF"/><path d="M802.516,540.978c-8.63-18.799-20.616-35.534-34.685-50.541c-8.203-8.752-17-16.172-26.881-22.977   c-22.568-15.544-51.521-27.533-76.861-10.636c-2.803,2.239-5.184,4.76-7.21,7.503c-4.559,6.173-7.316,13.466-9.005,21.208   c-0.563,2.581-1.007,5.211-1.358,7.867c-2.02,16.051-1.057,32.03,1.767,47.7c0.563,3.135,1.203,6.256,1.905,9.362   c10.539,38.629,25.111,75.621,48.524,108.316c2.093,2.871,4.259,5.679,6.503,8.411c6.734,8.201,14.178,15.738,22.506,22.325   c2.828,2.023,5.775,3.923,8.851,5.681c2.704,1.548,5.508,2.925,8.409,4.107c3.29,1.177,6.625,2.108,9.981,2.753   c25.364,4.886,45.112-11.735,54.474-34.238c1.434-3.442,2.692-7.011,3.778-10.655c2.168-8.898,3.567-17.925,4.256-27.055   C819.769,599.667,814.399,569.006,802.516,540.978z" fill="#FFFFFF"/></g></svg>