<?xml version="1.0" ?><!DOCTYPE svg  PUBLIC '-//W3C//DTD SVG 1.1//EN'  'http://www.w3.org/Graphics/SVG/1.1/DTD/svg11.dtd'><svg enable-background="new 0 0 1024 1024" height="1024px" id="Wechat" version="1.1" viewBox="0 0 1024 1024" width="1024px" xml:space="preserve" xmlns="http://www.w3.org/2000/svg" xmlns:xlink="http://www.w3.org/1999/xlink"><g id="Background"><linearGradient gradientTransform="matrix(0.9397 0.3421 0.3421 -0.9397 275.9532 765.9631)" gradientUnits="userSpaceOnUse" id="SVGID_1_" x1="464.1323" x2="-194.2839" y1="-72.9106" y2="711.6677"><stop offset="0" style="stop-color:#005A00"/><stop offset="0.1478" style="stop-color:#006301"/><stop offset="0.3887" style="stop-color:#007B04"/><stop offset="0.6929" style="stop-color:#00A308"/><stop offset="1" style="stop-color:#00D20D"/></linearGradient><circle cx="512.001" cy="512" fill="url(#SVGID_1_)" r="512"/></g><linearGradient gradientTransform="matrix(1 0 0 -1 214.3398 1116.0391)" gradientUnits="userSpaceOnUse" id="SVGID_2_" x1="8.9321" x2="604.0819" y1="781.5137" y2="186.3639"><stop offset="0" style="stop-color:#000000;stop-opacity:0.8"/><stop offset="0.1826" style="stop-color:#000900;stop-opacity:0.6539"/><stop offset="0.4803" style="stop-color:#002100;stop-opacity:0.4157"/><stop offset="0.8541" style="stop-color:#004900;stop-opacity:0.1167"/><stop offset="1" style="stop-color:#005A00;stop-opacity:0"/></linearGradient><path d="M449.755,1020.254l-269.86-269.85l44.736-140.293c0,0-116.994-191.586,46.498-320.782  c163.492-129.196,331.302,0,331.302,0l131.16,131.092l85.864,51.046l184.137,184.123c0,0-3.663,12.213-5.468,17.562  c-1.805,5.348-3.758,11.234-6.346,18.013c-2.589,6.778-6.214,16.172-9.565,23.759s-8.386,18.728-12.298,26.365  s-8.937,17.384-13.822,25.692c-4.885,8.308-11.846,19.946-17.651,28.478c-5.807,8.531-16.838,24.232-24.204,33.357  c-7.367,9.125-14.67,18.013-20.804,24.736c-6.133,6.725-11.729,12.959-19.143,20.235s-16.431,15.949-23.104,21.753  c-6.674,5.804-9.12,8.19-17.744,15.003c-8.624,6.813-25.008,19.2-33.306,24.743s-18.338,12.079-24.992,16.006  c-6.655,3.927-20.626,11.932-28.939,16.121c-8.313,4.188-15.087,7.8-26.549,12.725s-19.244,8.215-26.716,10.973  c-7.473,2.757-19.56,7.193-30.232,10.349s-21.857,6.394-31.601,8.614c-9.744,2.22-13.73,3.188-21.304,4.595  c-7.572,1.406-18.739,3.494-29.448,4.808c-10.709,1.314-20.551,2.467-29.185,3.047c-8.634,0.581-16.542,1.025-21.105,1.164  c-4.564,0.14-12.874,0.318-16.938,0.312c-4.063-0.007-26.49-0.587-30.312-0.816c-3.822-0.229-14.77-1.012-18.736-1.396  S449.755,1020.254,449.755,1020.254z" fill="url(#SVGID_2_)"/><circle cx="714.62" cy="551.47" fill="#FFFFFF" r="28.949"/><circle cx="602.497" cy="551.47" fill="#FFFFFF" r="28.949"/><circle cx="503.067" cy="394.312" fill="#FFFFFF" r="42.734"/><circle cx="334.882" cy="394.312" fill="#FFFFFF" r="42.734"/><path d="M842.48,659.338c16.942-24.977,23.873-49.754,23.697-80.451c-0.521-90.814-86.402-164.548-194.176-169.098  c-26.311-113.763-135.155-196.642-262.064-191.825c-142.833,5.421-254.445,119.868-249.292,255.626  c1.906,50.206,19.528,96.287,48.189,134.164l-28.941,142.65l171.292-48.978c24.593,6.275,50.598,9.172,77.41,8.154  c28.053-1.064,45.619-3.271,70.614-12.082c37.779,34.771,101.857,53.416,162.736,53.066c44.698-0.259,81.701-9.855,115.287-30.207  l95.023,16.75L842.48,659.338z M429.637,671.247c-30.581,1.162-59.932-3.482-86.83-12.875l-111.416,37.182l21.185-96.098  c-31.132-33.924-50.604-77.513-52.431-125.639C195.83,360.132,291.58,264.206,414.01,259.559  c106.344-4.037,197.691,58.666,222.727,150.626c-7.991,0.488-8.207,0.509-13.479,0.988c-64.232,5.836-177.009,61.693-168.05,174.807  c2.259,28.512,9.76,55.182,24.126,78.137C463.426,668.151,446.795,670.596,429.637,671.247z M758.959,687.524  c-26.857,17.225-60.202,28.043-96.635,29.426c-92.376,3.508-169.588-54.937-172.458-130.527  c-2.776-73.146,69.688-139.722,162.067-143.229c92.379-3.507,169.59,54.936,172.459,130.528  c0.935,24.644-6.148,48.066-19.317,68.568l22.255,55.951L758.959,687.524z" fill="#FFFFFF"/></svg>