<?xml version="1.0" ?><svg style="enable-background:new 0 0 100 100;" version="1.1" viewBox="0 0 100 100" xml:space="preserve" xmlns="http://www.w3.org/2000/svg" xmlns:xlink="http://www.w3.org/1999/xlink"><style type="text/css">
	.st0{fill:#FFFFFF;}
	.st1{fill:#D43C89;}
	.st2{fill:#B2005F;}
	.st3{fill:none;stroke:#000000;stroke-width:3;stroke-linecap:round;stroke-linejoin:round;stroke-miterlimit:10;}
	
		.st4{fill-rule:evenodd;clip-rule:evenodd;fill:none;stroke:#000000;stroke-width:3;stroke-linecap:round;stroke-linejoin:round;stroke-miterlimit:10;}
	
		.st5{fill-rule:evenodd;clip-rule:evenodd;fill:none;stroke:#040404;stroke-width:3;stroke-linecap:round;stroke-linejoin:round;stroke-miterlimit:10;}
	.st6{fill-rule:evenodd;clip-rule:evenodd;}
	.st7{fill-rule:evenodd;clip-rule:evenodd;fill:#040404;}
	.st8{fill:url(#SVGID_1_);}
	.st9{fill:url(#SVGID_2_);}
	.st10{fill:url(#SVGID_3_);}
	.st11{fill:url(#SVGID_4_);}
	.st12{fill:url(#SVGID_5_);}
	.st13{fill:url(#SVGID_6_);}
	.st14{fill:url(#SVGID_7_);}
	.st15{fill:url(#SVGID_8_);}
	.st16{fill:url(#SVGID_9_);}
	.st17{fill:url(#SVGID_10_);}
	.st18{fill:url(#SVGID_11_);}
	.st19{fill:url(#SVGID_12_);}
	.st20{fill:url(#SVGID_13_);}
	.st21{fill:url(#SVGID_14_);}
	.st22{fill:url(#SVGID_15_);}
	.st23{fill:url(#SVGID_16_);}
	.st24{fill:url(#SVGID_17_);}
	.st25{fill:url(#SVGID_18_);}
	.st26{fill:url(#SVGID_19_);}
	.st27{fill:url(#SVGID_20_);}
	.st28{fill:url(#SVGID_21_);}
	.st29{fill:url(#SVGID_22_);}
	.st30{fill:url(#SVGID_23_);}
	.st31{fill:url(#SVGID_24_);}
	.st32{fill:url(#SVGID_25_);}
	.st33{fill:url(#SVGID_26_);}
	.st34{fill:url(#SVGID_27_);}
	.st35{fill:url(#SVGID_28_);}
	.st36{fill:url(#SVGID_29_);}
	.st37{fill:url(#SVGID_30_);}
	.st38{fill:url(#SVGID_31_);}
	.st39{fill:url(#SVGID_32_);}
	.st40{fill:url(#SVGID_33_);}
	.st41{fill:url(#SVGID_34_);}
	.st42{fill:url(#SVGID_35_);}
	.st43{fill:url(#SVGID_36_);}
	.st44{fill:url(#SVGID_37_);}
	.st45{fill:url(#SVGID_38_);}
	.st46{fill:url(#SVGID_39_);}
	.st47{fill:url(#SVGID_40_);}
	.st48{fill:url(#SVGID_41_);}
	.st49{fill:url(#SVGID_42_);}
	.st50{fill:url(#SVGID_43_);}
	.st51{fill:url(#SVGID_44_);}
	.st52{fill:url(#SVGID_45_);}
	.st53{fill:#040404;}
	.st54{fill:url(#SVGID_46_);}
	.st55{fill:url(#SVGID_47_);}
	.st56{fill:url(#SVGID_48_);}
	.st57{fill:url(#SVGID_49_);}
	.st58{fill:url(#SVGID_50_);}
	.st59{fill:url(#SVGID_51_);}
	.st60{fill:url(#SVGID_52_);}
	.st61{fill:url(#SVGID_53_);}
	.st62{fill:url(#SVGID_54_);}
	.st63{fill:url(#SVGID_55_);}
	.st64{fill:url(#SVGID_56_);}
	.st65{fill:url(#SVGID_57_);}
	.st66{fill:url(#SVGID_58_);}
	.st67{fill:url(#SVGID_59_);}
	.st68{fill:url(#SVGID_60_);}
	.st69{fill:url(#SVGID_61_);}
	.st70{fill:url(#SVGID_62_);}
	.st71{fill:none;stroke:#000000;stroke-width:3;stroke-miterlimit:10;}
	.st72{fill:none;stroke:#FFFFFF;stroke-miterlimit:10;}
	.st73{fill:#4BC9FF;}
	.st74{fill:#5500DD;}
	.st75{fill:#FF3A00;}
	.st76{fill:#FFC794;}
	.st77{fill:#F1F1F1;}
	.st78{fill:#EB4E00;}
	.st79{fill:#E6162D;}
	.st80{fill:#FF9933;}
	.st81{fill:#B92B27;}
	.st82{fill:#00ACED;}
	.st83{fill:#BD2125;}
	.st84{fill:#1877F2;}
	.st85{fill:#6665D2;}
	.st86{fill:#CE3056;}
	.st87{fill:#5BB381;}
	.st88{fill:#61C3EC;}
	.st89{fill:#E4B34B;}
	.st90{fill:#181EF2;}
	.st91{fill:#FF0000;}
	.st92{fill:#FE466C;}
	.st93{fill:#FA4778;}
	.st94{fill:#FF7700;}
	.st95{fill:#D95040;}
	.st96{fill:#58A55C;}
	.st97{fill:#4E86EC;}
	.st98{fill:#B6332A;}
	.st99{fill:#F3BD42;}
	.st100{fill-rule:evenodd;clip-rule:evenodd;fill:#1F6BF6;}
	.st101{fill:#520094;}
	.st102{fill:#4477E8;}
	.st103{fill:#3D1D1C;}
	.st104{fill:#FFE812;}
	.st105{fill:#344356;}
	.st106{fill:#00CC76;}
	.st107{fill-rule:evenodd;clip-rule:evenodd;fill:#345E90;}
	.st108{fill:#1F65D8;}
	.st109{fill:#EB3587;}
	.st110{fill-rule:evenodd;clip-rule:evenodd;fill:#603A88;}
	.st111{fill:#E3CE99;}
	.st112{fill:#783AF9;}
	.st113{fill:#FF515E;}
	.st114{fill:#FF4906;}
	.st115{fill:#503227;}
	.st116{fill:#4C7BD9;}
	.st117{fill:#69C9D0;}
	.st118{fill:#1B92D1;}
	.st119{fill:#EB4F4A;}
	.st120{fill:#513728;}
	.st121{fill:#FF6600;}
	.st122{fill-rule:evenodd;clip-rule:evenodd;fill:#B61438;}
	.st123{fill:#FFFC00;}
	.st124{fill:#141414;}
	.st125{fill:#94D137;}
	.st126{fill-rule:evenodd;clip-rule:evenodd;fill:#F1F1F1;}
	.st127{fill-rule:evenodd;clip-rule:evenodd;fill:#66E066;}
	.st128{fill:#464EB8;}
	.st129{fill:#7B83EB;}
	.st130{fill:#2D8CFF;}
	.st131{fill:#F1A300;}
	.st132{fill:#4BA2F2;}
	.st133{fill:#1A5099;}
	.st134{fill:#EE6060;}
	.st135{fill-rule:evenodd;clip-rule:evenodd;fill:#F48120;}
	.st136{fill:#222222;}
	.st137{fill:url(#SVGID_63_);}
	.st138{fill:#0077B5;}
	.st139{fill:#FFCC00;}
	.st140{fill:#EB3352;}
	.st141{fill:#F9D265;}
	.st142{fill:#F5B955;}
	.st143{fill:#DC322F;}
	.st144{fill:#4DA94C;}
	.st145{fill:#39802F;}
	.st146{fill:#F6BD41;}
	.st147{fill:#EB5141;}
	.st148{fill:#2165D6;}
	.st149{fill:#2F83F7;}
	.st150{fill:#DD2A7B;}
</style><g id="Layer_1"/><g id="Layer_2"><g><path class="st120" d="M79.568,9.862c0-1.349-0.104-2.732-0.173-4.047c-2.905,0-5.361,0-8.128,0c0,3.078,0,6.018,0,8.923    C58.228-3.454,31.389,2.287,23.849,20.41c-4.807,11.586-4.565,23.277,0.484,34.725c5.326,12.071,20.613,17.189,32.615,13.765    c5.37-1.118,10.752-4.455,14.388-8.647c-0.724,9.564,0.157,21.492-9.823,26.666c-11.483,6.087-25.283,1.453-30.47-10.272    c-2.629,0-5.257,0-8.059,0c0.588,7.747,4.634,12.797,10.998,16.048c7.644,3.943,15.841,4.323,24.176,2.974    c10.618-1.729,17.57-7.713,19.991-18.331c0.865-3.77,1.349-7.678,1.349-11.552C79.671,47.146,79.602,28.504,79.568,9.862z     M70.056,48.806c-3.169,8.597-9.675,14.2-20.925,13.973c-28.008-1.099-26.173-52.33,0.968-52.122    C69.859,10.089,75.43,33.535,70.056,48.806z"/><g><path d="M49.364,71.197c2.754,0,5.447-0.359,7.937-1.069c0.773-0.221,1.22-1.025,1-1.797c-0.221-0.773-1.035-1.219-1.797-1     c-29.759,6.934-40.567-24.506-31.128-46.198c7.31-17.607,33.3-21.842,44.565-5.344c0.763,1.145,2.682,0.523,2.636-0.848     c0,0,0-7.407,0-7.407h5.244c0.132,1.359,0.115,16.009,0.121,17.747c0.029,1.909,2.883,1.907,2.909-0.005     c-0.041-3.054,0.087-16.472-0.204-19.274c-0.041-0.773-0.679-1.378-1.452-1.378h-8.072c-0.803,0-1.454,0.651-1.454,1.454v4.821     c-13.443-14.798-39.8-8.983-46.978,9.116c-4.896,11.799-4.73,23.786,0.493,35.628C27.812,66.138,39.02,71.198,49.364,71.197z"/><path d="M80.858,30.876c-0.04-1.885-2.868-1.932-2.909,0.004c0.011,9.521,0.01,22.075-0.107,34.759     c0,3.627-0.438,7.378-1.304,11.149c-2.207,9.682-8.488,15.433-18.666,17.091C44.04,96.26,27.091,92.311,24.798,77.877     c0,0,5.452,0,5.452,0c8.178,17.998,38.178,17.373,41.243-4.004c0.736-4.574,0.837-9.086,1.148-13.63     c0.134-1.361-1.725-2.115-2.571-1.027c-1.891,2.341-6.05,5.447-8.791,6.479c-0.747,0.295-1.112,1.14-0.817,1.887     c0.295,0.748,1.143,1.114,1.887,0.817c2.17-0.831,5.041-2.689,7.159-4.532c-0.41,8.181-0.838,17.463-8.753,21.472     c-10.173,5.689-23.738,1.272-28.249-9.505c-0.233-0.525-0.754-0.865-1.33-0.865h-8.003c-0.82-0.018-1.532,0.746-1.45,1.564     c0.994,17.407,21.588,23.211,36.615,20.216c11.462-1.867,18.54-8.366,21.036-19.314c0.914-3.981,1.377-7.95,1.377-11.783     C80.868,52.968,80.869,40.404,80.858,30.876z"/><path d="M60.756,11.878c-3.705-2.003-7.389-2.804-11.127-2.406C30.286,9.861,23.916,33.513,29.701,49.287     c4.686,14.773,22.563,18.799,33.719,10.834C77.598,49.984,76.48,20.078,60.756,11.878z M68.546,48.296     c-5.369,16.856-30.273,17.62-36.1,0.032c-5.14-14.127,0.086-36.017,17.787-35.99C68.276,11.6,73.685,34.211,68.546,48.296z"/></g></g></g></svg>