<?xml version="1.0" ?><svg style="enable-background:new 0 0 100 100;" version="1.1" viewBox="0 0 100 100" xml:space="preserve" xmlns="http://www.w3.org/2000/svg" xmlns:xlink="http://www.w3.org/1999/xlink"><style type="text/css">
	.st0{fill:#FFFFFF;}
	.st1{fill:#D43C89;}
	.st2{fill:#B2005F;}
	.st3{fill:none;stroke:#000000;stroke-width:3;stroke-linecap:round;stroke-linejoin:round;stroke-miterlimit:10;}
	
		.st4{fill-rule:evenodd;clip-rule:evenodd;fill:none;stroke:#000000;stroke-width:3;stroke-linecap:round;stroke-linejoin:round;stroke-miterlimit:10;}
	
		.st5{fill-rule:evenodd;clip-rule:evenodd;fill:none;stroke:#040404;stroke-width:3;stroke-linecap:round;stroke-linejoin:round;stroke-miterlimit:10;}
	.st6{fill-rule:evenodd;clip-rule:evenodd;}
	.st7{fill-rule:evenodd;clip-rule:evenodd;fill:#040404;}
	.st8{fill:url(#SVGID_1_);}
	.st9{fill:url(#SVGID_2_);}
	.st10{fill:url(#SVGID_3_);}
	.st11{fill:url(#SVGID_4_);}
	.st12{fill:url(#SVGID_5_);}
	.st13{fill:url(#SVGID_6_);}
	.st14{fill:url(#SVGID_7_);}
	.st15{fill:url(#SVGID_8_);}
	.st16{fill:url(#SVGID_9_);}
	.st17{fill:url(#SVGID_10_);}
	.st18{fill:url(#SVGID_11_);}
	.st19{fill:url(#SVGID_12_);}
	.st20{fill:url(#SVGID_13_);}
	.st21{fill:url(#SVGID_14_);}
	.st22{fill:url(#SVGID_15_);}
	.st23{fill:url(#SVGID_16_);}
	.st24{fill:url(#SVGID_17_);}
	.st25{fill:url(#SVGID_18_);}
	.st26{fill:url(#SVGID_19_);}
	.st27{fill:url(#SVGID_20_);}
	.st28{fill:url(#SVGID_21_);}
	.st29{fill:url(#SVGID_22_);}
	.st30{fill:url(#SVGID_23_);}
	.st31{fill:url(#SVGID_24_);}
	.st32{fill:url(#SVGID_25_);}
	.st33{fill:url(#SVGID_26_);}
	.st34{fill:url(#SVGID_27_);}
	.st35{fill:url(#SVGID_28_);}
	.st36{fill:url(#SVGID_29_);}
	.st37{fill:url(#SVGID_30_);}
	.st38{fill:url(#SVGID_31_);}
	.st39{fill:url(#SVGID_32_);}
	.st40{fill:url(#SVGID_33_);}
	.st41{fill:url(#SVGID_34_);}
	.st42{fill:url(#SVGID_35_);}
	.st43{fill:url(#SVGID_36_);}
	.st44{fill:url(#SVGID_37_);}
	.st45{fill:url(#SVGID_38_);}
	.st46{fill:url(#SVGID_39_);}
	.st47{fill:url(#SVGID_40_);}
	.st48{fill:url(#SVGID_41_);}
	.st49{fill:url(#SVGID_42_);}
	.st50{fill:url(#SVGID_43_);}
	.st51{fill:url(#SVGID_44_);}
	.st52{fill:url(#SVGID_45_);}
	.st53{fill:#040404;}
	.st54{fill:url(#SVGID_46_);}
	.st55{fill:url(#SVGID_47_);}
	.st56{fill:url(#SVGID_48_);}
	.st57{fill:url(#SVGID_49_);}
	.st58{fill:url(#SVGID_50_);}
	.st59{fill:url(#SVGID_51_);}
	.st60{fill:url(#SVGID_52_);}
	.st61{fill:url(#SVGID_53_);}
	.st62{fill:url(#SVGID_54_);}
	.st63{fill:url(#SVGID_55_);}
	.st64{fill:url(#SVGID_56_);}
	.st65{fill:url(#SVGID_57_);}
	.st66{fill:url(#SVGID_58_);}
	.st67{fill:url(#SVGID_59_);}
	.st68{fill:url(#SVGID_60_);}
	.st69{fill:url(#SVGID_61_);}
	.st70{fill:url(#SVGID_62_);}
	.st71{fill:none;stroke:#000000;stroke-width:3;stroke-miterlimit:10;}
	.st72{fill:none;stroke:#FFFFFF;stroke-miterlimit:10;}
	.st73{fill:#4BC9FF;}
	.st74{fill:#5500DD;}
	.st75{fill:#FF3A00;}
	.st76{fill:#FFC794;}
	.st77{fill:#F1F1F1;}
	.st78{fill:#EB4E00;}
	.st79{fill:#E6162D;}
	.st80{fill:#FF9933;}
	.st81{fill:#B92B27;}
	.st82{fill:#00ACED;}
	.st83{fill:#BD2125;}
	.st84{fill:#1877F2;}
	.st85{fill:#6665D2;}
	.st86{fill:#CE3056;}
	.st87{fill:#5BB381;}
	.st88{fill:#61C3EC;}
	.st89{fill:#E4B34B;}
	.st90{fill:#181EF2;}
	.st91{fill:#FF0000;}
	.st92{fill:#FE466C;}
	.st93{fill:#FA4778;}
	.st94{fill:#FF7700;}
	.st95{fill:#D95040;}
	.st96{fill:#58A55C;}
	.st97{fill:#4E86EC;}
	.st98{fill:#B6332A;}
	.st99{fill:#F3BD42;}
	.st100{fill-rule:evenodd;clip-rule:evenodd;fill:#1F6BF6;}
	.st101{fill:#520094;}
	.st102{fill:#4477E8;}
	.st103{fill:#3D1D1C;}
	.st104{fill:#FFE812;}
	.st105{fill:#344356;}
	.st106{fill:#00CC76;}
	.st107{fill-rule:evenodd;clip-rule:evenodd;fill:#345E90;}
	.st108{fill:#1F65D8;}
	.st109{fill:#EB3587;}
	.st110{fill-rule:evenodd;clip-rule:evenodd;fill:#603A88;}
	.st111{fill:#E3CE99;}
	.st112{fill:#783AF9;}
	.st113{fill:#FF515E;}
	.st114{fill:#FF4906;}
	.st115{fill:#503227;}
	.st116{fill:#4C7BD9;}
	.st117{fill:#69C9D0;}
	.st118{fill:#1B92D1;}
	.st119{fill:#EB4F4A;}
	.st120{fill:#513728;}
	.st121{fill:#FF6600;}
	.st122{fill-rule:evenodd;clip-rule:evenodd;fill:#B61438;}
	.st123{fill:#FFFC00;}
	.st124{fill:#141414;}
	.st125{fill:#94D137;}
	.st126{fill-rule:evenodd;clip-rule:evenodd;fill:#F1F1F1;}
	.st127{fill-rule:evenodd;clip-rule:evenodd;fill:#66E066;}
	.st128{fill:#464EB8;}
	.st129{fill:#7B83EB;}
	.st130{fill:#2D8CFF;}
	.st131{fill:#F1A300;}
	.st132{fill:#4BA2F2;}
	.st133{fill:#1A5099;}
	.st134{fill:#EE6060;}
	.st135{fill-rule:evenodd;clip-rule:evenodd;fill:#F48120;}
	.st136{fill:#222222;}
	.st137{fill:url(#SVGID_63_);}
	.st138{fill:#0077B5;}
	.st139{fill:#FFCC00;}
	.st140{fill:#EB3352;}
	.st141{fill:#F9D265;}
	.st142{fill:#F5B955;}
	.st143{fill:#DC322F;}
	.st144{fill:#4DA94C;}
	.st145{fill:#39802F;}
	.st146{fill:#F6BD41;}
	.st147{fill:#EB5141;}
	.st148{fill:#2165D6;}
	.st149{fill:#2F83F7;}
	.st150{fill:#DD2A7B;}
</style><g id="Layer_1"/><g id="Layer_2"><g><path class="st144" d="M58.488,52.145c-0.542-0.489-1.376-0.082-1.376,0.67v13.489c0,0.487-0.374,0.882-0.834,0.882H25.315    c-0.461,0-0.834,0.395-0.834,0.882v17.939c0,0.487,2.965,1.785,3.426,1.785c12.095,0,32.855,0,44.748,0    c0.461,0,3.491-1.298,3.491-1.785V68.482c0-0.258-0.107-0.503-0.293-0.67L58.488,52.145z"/><path d="M90.055,20.145c0,0-11.537,9.459-11.537,9.459v-11.21c0-4.252-3.459-7.71-7.71-7.71H26.083    c-0.759,0.063-2.003-0.23-2.575,0.404L2.914,31.572c-0.596,0.439-0.358,1.489-0.409,2.102c0.003,10.33-0.002,38.007,0,47.947    c0,4.252,3.458,7.71,7.71,7.71c9.599-0.001,35.483,0,45.424,0c1.829-0.044,1.823-2.736,0-2.775c0,0-28.757,0-28.757,0V67.729    h29.173c0.766,0,1.387-0.621,1.387-1.387V53.017l18.301,15.628v12.975c0,2.721-2.214,4.935-4.935,4.935h-6.839    c-1.823,0.02-1.82,2.751,0,2.775c0,0,6.839,0,6.839,0c4.252,0,7.71-3.459,7.71-7.71V70.938l11.626,9.531    c2.823,2.364,7.485,0.09,7.353-3.591c0,0,0-53.216,0-53.216C97.621,19.94,92.862,17.676,90.055,20.145z M24.108,14.404v17.882    H6.131L24.108,14.404z M24.108,86.556H10.215c-2.721,0-4.935-2.214-4.935-4.935V67.729h18.828V86.556z M54.667,64.954H26.882    v-6.197c-0.016-0.949-0.757-1.399-1.469-1.361c-0.658,0.035-1.292,0.487-1.306,1.361c0,0,0,6.197,0,6.197H5.28V35.061h18.828    v13.415c0.016,0.876,0.649,1.327,1.306,1.361c0.712,0.037,1.452-0.414,1.469-1.361c0,0,0-13.415,0-13.415h27.785    C54.656,42.513,54.676,57.505,54.667,64.954z M75.743,64.996L58.21,50.024l17.533-14.527V64.996z M75.743,31.893L57.442,47.056    V33.674c0-0.766-0.621-1.387-1.387-1.387H26.882V13.458h43.925c2.722,0,4.935,2.214,4.935,4.935V31.893z M94.722,76.879    c0.067,1.42-1.771,2.33-2.844,1.424c0,0-13.36-10.954-13.36-10.954V33.192l13.295-10.9c1.089-0.964,2.968-0.095,2.909,1.369    C94.722,23.662,94.722,76.879,94.722,76.879z"/><g><polygon class="st145" points="75.743,64.996 58.21,50.024 75.743,35.497    "/><path class="st146" d="M75.743,31.893L57.442,47.056V33.674c0-0.766-0.621-1.387-1.387-1.387H26.882V13.458h43.925     c2.722,0,4.935,2.214,4.935,4.935V31.893z"/><path class="st144" d="M94.722,76.879c0.067,1.42-1.771,2.33-2.844,1.424c0,0-13.36-10.954-13.36-10.954V33.192l13.295-10.9     c1.089-0.964,2.968-0.095,2.909,1.369C94.722,23.662,94.722,76.879,94.722,76.879z"/><g><polygon class="st147" points="24.108,14.404 24.108,32.286 6.131,32.286     "/><path class="st148" d="M24.108,86.556H10.215c-2.722,0-4.935-2.214-4.935-4.935V67.729h18.828V86.556z"/><path class="st149" d="M24.108,48.476V35.061H5.28v29.892h18.828c0,0,0-6.197,0-6.197c0.014-0.874,0.648-1.326,1.306-1.361      v-7.558C24.757,49.803,24.124,49.353,24.108,48.476z"/></g></g></g></g></svg>