<?xml version="1.0" ?><svg style="enable-background:new 0 0 100 100;" version="1.1" viewBox="0 0 100 100" xml:space="preserve" xmlns="http://www.w3.org/2000/svg" xmlns:xlink="http://www.w3.org/1999/xlink"><style type="text/css">
	.st0{fill:#FFFFFF;}
	.st1{fill:#D43C89;}
	.st2{fill:#B2005F;}
	.st3{fill:none;stroke:#000000;stroke-width:3;stroke-linecap:round;stroke-linejoin:round;stroke-miterlimit:10;}
	
		.st4{fill-rule:evenodd;clip-rule:evenodd;fill:none;stroke:#000000;stroke-width:3;stroke-linecap:round;stroke-linejoin:round;stroke-miterlimit:10;}
	
		.st5{fill-rule:evenodd;clip-rule:evenodd;fill:none;stroke:#040404;stroke-width:3;stroke-linecap:round;stroke-linejoin:round;stroke-miterlimit:10;}
	.st6{fill-rule:evenodd;clip-rule:evenodd;}
	.st7{fill-rule:evenodd;clip-rule:evenodd;fill:#040404;}
	.st8{fill:url(#SVGID_1_);}
	.st9{fill:url(#SVGID_2_);}
	.st10{fill:url(#SVGID_3_);}
	.st11{fill:url(#SVGID_4_);}
	.st12{fill:url(#SVGID_5_);}
	.st13{fill:url(#SVGID_6_);}
	.st14{fill:url(#SVGID_7_);}
	.st15{fill:url(#SVGID_8_);}
	.st16{fill:url(#SVGID_9_);}
	.st17{fill:url(#SVGID_10_);}
	.st18{fill:url(#SVGID_11_);}
	.st19{fill:url(#SVGID_12_);}
	.st20{fill:url(#SVGID_13_);}
	.st21{fill:url(#SVGID_14_);}
	.st22{fill:url(#SVGID_15_);}
	.st23{fill:url(#SVGID_16_);}
	.st24{fill:url(#SVGID_17_);}
	.st25{fill:url(#SVGID_18_);}
	.st26{fill:url(#SVGID_19_);}
	.st27{fill:url(#SVGID_20_);}
	.st28{fill:url(#SVGID_21_);}
	.st29{fill:url(#SVGID_22_);}
	.st30{fill:url(#SVGID_23_);}
	.st31{fill:url(#SVGID_24_);}
	.st32{fill:url(#SVGID_25_);}
	.st33{fill:url(#SVGID_26_);}
	.st34{fill:url(#SVGID_27_);}
	.st35{fill:url(#SVGID_28_);}
	.st36{fill:url(#SVGID_29_);}
	.st37{fill:url(#SVGID_30_);}
	.st38{fill:url(#SVGID_31_);}
	.st39{fill:url(#SVGID_32_);}
	.st40{fill:url(#SVGID_33_);}
	.st41{fill:url(#SVGID_34_);}
	.st42{fill:url(#SVGID_35_);}
	.st43{fill:url(#SVGID_36_);}
	.st44{fill:url(#SVGID_37_);}
	.st45{fill:url(#SVGID_38_);}
	.st46{fill:url(#SVGID_39_);}
	.st47{fill:url(#SVGID_40_);}
	.st48{fill:url(#SVGID_41_);}
	.st49{fill:url(#SVGID_42_);}
	.st50{fill:url(#SVGID_43_);}
	.st51{fill:url(#SVGID_44_);}
	.st52{fill:url(#SVGID_45_);}
	.st53{fill:#040404;}
	.st54{fill:url(#SVGID_46_);}
	.st55{fill:url(#SVGID_47_);}
	.st56{fill:url(#SVGID_48_);}
	.st57{fill:url(#SVGID_49_);}
	.st58{fill:url(#SVGID_50_);}
	.st59{fill:url(#SVGID_51_);}
	.st60{fill:url(#SVGID_52_);}
	.st61{fill:url(#SVGID_53_);}
	.st62{fill:url(#SVGID_54_);}
	.st63{fill:url(#SVGID_55_);}
	.st64{fill:url(#SVGID_56_);}
	.st65{fill:url(#SVGID_57_);}
	.st66{fill:url(#SVGID_58_);}
	.st67{fill:url(#SVGID_59_);}
	.st68{fill:url(#SVGID_60_);}
	.st69{fill:url(#SVGID_61_);}
	.st70{fill:url(#SVGID_62_);}
	.st71{fill:none;stroke:#000000;stroke-width:3;stroke-miterlimit:10;}
	.st72{fill:none;stroke:#FFFFFF;stroke-miterlimit:10;}
	.st73{fill:#4BC9FF;}
	.st74{fill:#5500DD;}
	.st75{fill:#FF3A00;}
	.st76{fill:#FFC794;}
	.st77{fill:#F1F1F1;}
	.st78{fill:#EB4E00;}
	.st79{fill:#E6162D;}
	.st80{fill:#FF9933;}
	.st81{fill:#B92B27;}
	.st82{fill:#00ACED;}
	.st83{fill:#BD2125;}
	.st84{fill:#1877F2;}
	.st85{fill:#6665D2;}
	.st86{fill:#CE3056;}
	.st87{fill:#5BB381;}
	.st88{fill:#61C3EC;}
	.st89{fill:#E4B34B;}
	.st90{fill:#181EF2;}
	.st91{fill:#FF0000;}
	.st92{fill:#FE466C;}
	.st93{fill:#FA4778;}
	.st94{fill:#FF7700;}
	.st95{fill:#D95040;}
	.st96{fill:#58A55C;}
	.st97{fill:#4E86EC;}
	.st98{fill:#B6332A;}
	.st99{fill:#F3BD42;}
	.st100{fill-rule:evenodd;clip-rule:evenodd;fill:#1F6BF6;}
	.st101{fill:#520094;}
	.st102{fill:#4477E8;}
	.st103{fill:#3D1D1C;}
	.st104{fill:#FFE812;}
	.st105{fill:#344356;}
	.st106{fill:#00CC76;}
	.st107{fill-rule:evenodd;clip-rule:evenodd;fill:#345E90;}
	.st108{fill:#1F65D8;}
	.st109{fill:#EB3587;}
	.st110{fill-rule:evenodd;clip-rule:evenodd;fill:#603A88;}
	.st111{fill:#E3CE99;}
	.st112{fill:#783AF9;}
	.st113{fill:#FF515E;}
	.st114{fill:#FF4906;}
	.st115{fill:#503227;}
	.st116{fill:#4C7BD9;}
	.st117{fill:#69C9D0;}
	.st118{fill:#1B92D1;}
	.st119{fill:#EB4F4A;}
	.st120{fill:#513728;}
	.st121{fill:#FF6600;}
	.st122{fill-rule:evenodd;clip-rule:evenodd;fill:#B61438;}
	.st123{fill:#FFFC00;}
	.st124{fill:#141414;}
	.st125{fill:#94D137;}
	.st126{fill-rule:evenodd;clip-rule:evenodd;fill:#F1F1F1;}
	.st127{fill-rule:evenodd;clip-rule:evenodd;fill:#66E066;}
	.st128{fill:#464EB8;}
	.st129{fill:#7B83EB;}
	.st130{fill:#2D8CFF;}
	.st131{fill:#F1A300;}
	.st132{fill:#4BA2F2;}
	.st133{fill:#1A5099;}
	.st134{fill:#EE6060;}
	.st135{fill-rule:evenodd;clip-rule:evenodd;fill:#F48120;}
	.st136{fill:#222222;}
	.st137{fill:url(#SVGID_63_);}
	.st138{fill:#0077B5;}
	.st139{fill:#FFCC00;}
	.st140{fill:#EB3352;}
	.st141{fill:#F9D265;}
	.st142{fill:#F5B955;}
	.st143{fill:#DC322F;}
	.st144{fill:#4DA94C;}
	.st145{fill:#39802F;}
	.st146{fill:#F6BD41;}
	.st147{fill:#EB5141;}
	.st148{fill:#2165D6;}
	.st149{fill:#2F83F7;}
	.st150{fill:#DD2A7B;}
</style><g id="Layer_1"/><g id="Layer_2"><g><g><path class="st115" d="M65.222,8.439c-9.411-5.47-21.033-5.47-30.443,0c-4.601-2.646-9.819-4.032-15.127-4.018v30.409     c-0.038,33.56,27.137,60.797,60.697,60.835c0,0,0-91.243,0-91.243C75.041,4.407,69.823,5.793,65.222,8.439z"/><path class="st77" d="M75.147,29.752c-0.705,9.194-11.602,14.534-19.283,9.432c0,0-5.889,5.856-5.889,5.856l-5.872-5.906     c-8.115,5.367-19.49-0.983-19.301-10.693c0.538-16.096,23.327-17.064,25.24-1.085C52.287,10.774,76.076,13.039,75.147,29.752z"/><path d="M41.338,28.408c-4.582-0.077-5.884-6.45-1.717-8.328c-0.829-0.254-1.691-0.382-2.558-0.378     c-11.517,0.451-11.508,16.93,0,17.376c5.761,0.175,10.082-5.706,8.328-11.161C44.654,27.479,43.063,28.457,41.338,28.408z"/><path d="M60.68,20.093c-0.06,0.018-0.12,0.036-0.18,0.056c2.194,0.97,3.187,3.535,2.217,5.73     c-1.431,3.422-6.533,3.404-7.952-0.012c-3.536,12.63,15.606,16.596,16.965,3.348C72.284,23.278,66.451,18.269,60.68,20.093z"/></g><g><path d="M40.105,21.046c0.526-0.24,0.849-0.781,0.812-1.358c-0.247-1.748-2.635-1.55-3.974-1.683     c-5.464-0.111-10.276,4.706-10.16,10.171c-0.002,5.652,4.656,10.238,10.286,10.161c5.402,0.115,10.18-4.667,10.058-10.067     c-0.14-1.337,0.068-3.72-1.668-3.985c-0.579-0.043-1.12,0.272-1.366,0.796c-0.507,1.079-1.615,1.754-2.802,1.714     C38.127,26.738,37.233,22.347,40.105,21.046z M41.225,29.58c1.123,0.014,2.18-0.258,3.098-0.8     c-0.261,3.787-3.427,6.77-7.275,6.77c-4.101,0.053-7.481-3.274-7.48-7.377c-0.002-3.879,3.006-7.071,6.817-7.361     C34.071,24.46,36.885,29.592,41.225,29.58z"/><path d="M57.625,26.597c-0.687-0.304-1.231-0.849-1.531-1.535c-0.233-0.531-0.759-0.857-1.351-0.833     c-1.74,0.206-1.587,2.652-1.715,3.931c-0.201,13.47,19.295,14.281,20.31,0.904c0.648-6.924-6.259-12.743-12.946-10.607     c-1.341,0.233-1.614,2.118-0.347,2.665c0.731,0.323,1.292,0.911,1.582,1.658C62.634,25.165,59.966,27.722,57.625,26.597z      M64.12,26.197c0.773-1.72,0.629-3.751-0.356-5.356c4.062,0.212,7.164,4.062,6.79,8.098c-0.097,3.971-3.735,7.292-7.701,7.045     c-3.788-0.105-7.019-3.398-7.047-7.202C58.741,30.615,62.742,29.376,64.12,26.197z"/><path d="M64.512,13.806c-5.886-0.651-11.883,2.74-14.43,8.052c-3.98-8.873-16.566-11.163-23.465-4.004     C15.008,29.581,29.01,48.676,43.632,41.046c0,0,5.361,5.391,5.361,5.391c0.542,0.546,1.425,0.548,1.97,0.005l5.379-5.349     c8.889,4.932,20.49-1.271,21.259-11.44c0.565-5.919-2.477-11.521-7.749-14.271c-0.678-0.355-1.523-0.093-1.879,0.591     c-0.356,0.682-0.092,1.523,0.591,1.879c4.261,2.223,6.72,6.751,6.263,11.536c-0.642,8.598-10.794,13.537-17.962,8.786     c-0.551-0.347-1.269-0.269-1.729,0.189l-5.15,5.121l-5.138-5.167c-0.462-0.464-1.184-0.545-1.738-0.191     c-4.477,2.941-10.796,2.193-14.517-1.641c-4.572-4.384-4.575-12.277-0.004-16.663c6.937-7.061,19.343-2.597,20.074,7.322     c0.154,1.67,2.605,1.679,2.774,0.013c0.469-6.298,6.539-11.31,12.811-10.579C66.062,16.733,66.339,14.007,64.512,13.806z"/><path d="M82.043,46.433c0,0,0-42.465,0-42.465c0.002-0.801-0.678-1.436-1.476-1.393c-5.3,0-10.532,1.329-15.188,3.853     c-9.554-5.237-21.192-5.237-30.745,0c-4.656-2.524-9.888-3.853-15.188-3.853c-0.795-0.041-1.48,0.59-1.476,1.393V34.67     c-0.735,33.726,28.949,63.479,62.677,62.819c0.747,0.011,1.411-0.641,1.395-1.393c0,0,0-45.32,0-45.32     c-0.044-1.845-2.751-1.822-2.786,0c0,0,0,43.91,0,43.91c-32.421-0.781-58.536-27.415-58.5-60.014V5.391     c4.628,0.21,9.16,1.526,13.186,3.842c0.433,0.249,0.964,0.247,1.395-0.004c9.048-5.26,20.29-5.26,29.338,0     c0.432,0.251,0.963,0.252,1.395,0.004c4.026-2.315,8.558-3.632,13.186-3.842v41.042C79.274,48.25,82.017,48.272,82.043,46.433z"/></g></g></g></svg>