<?xml version="1.0" ?><svg style="enable-background:new 0 0 100 100;" version="1.1" viewBox="0 0 100 100" xml:space="preserve" xmlns="http://www.w3.org/2000/svg" xmlns:xlink="http://www.w3.org/1999/xlink"><style type="text/css">
	.st0{fill:#FFFFFF;}
	.st1{fill:#D43C89;}
	.st2{fill:#B2005F;}
	.st3{fill:none;stroke:#000000;stroke-width:3;stroke-linecap:round;stroke-linejoin:round;stroke-miterlimit:10;}
	
		.st4{fill-rule:evenodd;clip-rule:evenodd;fill:none;stroke:#000000;stroke-width:3;stroke-linecap:round;stroke-linejoin:round;stroke-miterlimit:10;}
	
		.st5{fill-rule:evenodd;clip-rule:evenodd;fill:none;stroke:#040404;stroke-width:3;stroke-linecap:round;stroke-linejoin:round;stroke-miterlimit:10;}
	.st6{fill-rule:evenodd;clip-rule:evenodd;}
	.st7{fill-rule:evenodd;clip-rule:evenodd;fill:#040404;}
	.st8{fill:url(#SVGID_1_);}
	.st9{fill:url(#SVGID_2_);}
	.st10{fill:url(#SVGID_3_);}
	.st11{fill:url(#SVGID_4_);}
	.st12{fill:url(#SVGID_5_);}
	.st13{fill:url(#SVGID_6_);}
	.st14{fill:url(#SVGID_7_);}
	.st15{fill:url(#SVGID_8_);}
	.st16{fill:url(#SVGID_9_);}
	.st17{fill:url(#SVGID_10_);}
	.st18{fill:url(#SVGID_11_);}
	.st19{fill:url(#SVGID_12_);}
	.st20{fill:url(#SVGID_13_);}
	.st21{fill:url(#SVGID_14_);}
	.st22{fill:url(#SVGID_15_);}
	.st23{fill:url(#SVGID_16_);}
	.st24{fill:url(#SVGID_17_);}
	.st25{fill:url(#SVGID_18_);}
	.st26{fill:url(#SVGID_19_);}
	.st27{fill:url(#SVGID_20_);}
	.st28{fill:url(#SVGID_21_);}
	.st29{fill:url(#SVGID_22_);}
	.st30{fill:url(#SVGID_23_);}
	.st31{fill:url(#SVGID_24_);}
	.st32{fill:url(#SVGID_25_);}
	.st33{fill:url(#SVGID_26_);}
	.st34{fill:url(#SVGID_27_);}
	.st35{fill:url(#SVGID_28_);}
	.st36{fill:url(#SVGID_29_);}
	.st37{fill:url(#SVGID_30_);}
	.st38{fill:url(#SVGID_31_);}
	.st39{fill:url(#SVGID_32_);}
	.st40{fill:url(#SVGID_33_);}
	.st41{fill:url(#SVGID_34_);}
	.st42{fill:url(#SVGID_35_);}
	.st43{fill:url(#SVGID_36_);}
	.st44{fill:url(#SVGID_37_);}
	.st45{fill:url(#SVGID_38_);}
	.st46{fill:url(#SVGID_39_);}
	.st47{fill:url(#SVGID_40_);}
	.st48{fill:url(#SVGID_41_);}
	.st49{fill:url(#SVGID_42_);}
	.st50{fill:url(#SVGID_43_);}
	.st51{fill:url(#SVGID_44_);}
	.st52{fill:url(#SVGID_45_);}
	.st53{fill:#040404;}
	.st54{fill:url(#SVGID_46_);}
	.st55{fill:url(#SVGID_47_);}
	.st56{fill:url(#SVGID_48_);}
	.st57{fill:url(#SVGID_49_);}
	.st58{fill:url(#SVGID_50_);}
	.st59{fill:url(#SVGID_51_);}
	.st60{fill:url(#SVGID_52_);}
	.st61{fill:url(#SVGID_53_);}
	.st62{fill:url(#SVGID_54_);}
	.st63{fill:url(#SVGID_55_);}
	.st64{fill:url(#SVGID_56_);}
	.st65{fill:url(#SVGID_57_);}
	.st66{fill:url(#SVGID_58_);}
	.st67{fill:url(#SVGID_59_);}
	.st68{fill:url(#SVGID_60_);}
	.st69{fill:url(#SVGID_61_);}
	.st70{fill:url(#SVGID_62_);}
	.st71{fill:none;stroke:#000000;stroke-width:3;stroke-miterlimit:10;}
	.st72{fill:none;stroke:#FFFFFF;stroke-miterlimit:10;}
	.st73{fill:#4BC9FF;}
	.st74{fill:#5500DD;}
	.st75{fill:#FF3A00;}
	.st76{fill:#FFC794;}
	.st77{fill:#F1F1F1;}
	.st78{fill:#EB4E00;}
	.st79{fill:#E6162D;}
	.st80{fill:#FF9933;}
	.st81{fill:#B92B27;}
	.st82{fill:#00ACED;}
	.st83{fill:#BD2125;}
	.st84{fill:#1877F2;}
	.st85{fill:#6665D2;}
	.st86{fill:#CE3056;}
	.st87{fill:#5BB381;}
	.st88{fill:#61C3EC;}
	.st89{fill:#E4B34B;}
	.st90{fill:#181EF2;}
	.st91{fill:#FF0000;}
	.st92{fill:#FE466C;}
	.st93{fill:#FA4778;}
	.st94{fill:#FF7700;}
	.st95{fill:#D95040;}
	.st96{fill:#58A55C;}
	.st97{fill:#4E86EC;}
	.st98{fill:#B6332A;}
	.st99{fill:#F3BD42;}
	.st100{fill-rule:evenodd;clip-rule:evenodd;fill:#1F6BF6;}
	.st101{fill:#520094;}
	.st102{fill:#4477E8;}
	.st103{fill:#3D1D1C;}
	.st104{fill:#FFE812;}
	.st105{fill:#344356;}
	.st106{fill:#00CC76;}
	.st107{fill-rule:evenodd;clip-rule:evenodd;fill:#345E90;}
	.st108{fill:#1F65D8;}
	.st109{fill:#EB3587;}
	.st110{fill-rule:evenodd;clip-rule:evenodd;fill:#603A88;}
	.st111{fill:#E3CE99;}
	.st112{fill:#783AF9;}
	.st113{fill:#FF515E;}
	.st114{fill:#FF4906;}
	.st115{fill:#503227;}
	.st116{fill:#4C7BD9;}
	.st117{fill:#69C9D0;}
	.st118{fill:#1B92D1;}
	.st119{fill:#EB4F4A;}
	.st120{fill:#513728;}
	.st121{fill:#FF6600;}
	.st122{fill-rule:evenodd;clip-rule:evenodd;fill:#B61438;}
	.st123{fill:#FFFC00;}
	.st124{fill:#141414;}
	.st125{fill:#94D137;}
	.st126{fill-rule:evenodd;clip-rule:evenodd;fill:#F1F1F1;}
	.st127{fill-rule:evenodd;clip-rule:evenodd;fill:#66E066;}
	.st128{fill:#464EB8;}
	.st129{fill:#7B83EB;}
	.st130{fill:#2D8CFF;}
	.st131{fill:#F1A300;}
	.st132{fill:#4BA2F2;}
	.st133{fill:#1A5099;}
	.st134{fill:#EE6060;}
	.st135{fill-rule:evenodd;clip-rule:evenodd;fill:#F48120;}
	.st136{fill:#222222;}
	.st137{fill:url(#SVGID_63_);}
	.st138{fill:#0077B5;}
	.st139{fill:#FFCC00;}
	.st140{fill:#EB3352;}
	.st141{fill:#F9D265;}
	.st142{fill:#F5B955;}
	.st143{fill:#DC322F;}
	.st144{fill:#4DA94C;}
	.st145{fill:#39802F;}
	.st146{fill:#F6BD41;}
	.st147{fill:#EB5141;}
	.st148{fill:#2165D6;}
	.st149{fill:#2F83F7;}
	.st150{fill:#DD2A7B;}
</style><g id="Layer_1"/><g id="Layer_2"><g><g><g><path class="st114" d="M40.901,50.741c11.341-0.557,22.574-1.481,33.935-2.27c4.155-0.244,8.085-1.973,11.072-4.872      c7.131-7.698,6.081-20.093-2.27-26.461c-4.87-3.765-11.563-4.118-16.801-0.886c-1.795,1.244-3.514,2.593-5.148,4.041      c-4.642-17.841-26.708-23.367-38.28-8.553C11.947,26.23,21.424,51.173,40.901,50.741z M72.759,24.141      c5.106-4.681,11.702,0.734,11.459,6.726c0.355,6.662-7.781,12.395-12.622,6.283C68.629,33.147,69.129,27.555,72.759,24.141z       M36.14,18.605c3.997-6.089,13.688-5.638,17.05,0.858c4.214,6.863,1.455,17.516-6.556,20.056      C34.625,42.604,29.604,26.768,36.14,18.605z"/><path class="st114" d="M84.191,52.844c-4.857-0.707-9.732-1.14-14.642-0.886c-7.833,0.803-15.694,1.467-23.527,2.159      c-1.793,0.008-3.439,0.996-4.29,2.574c-0.407,0.582-0.271,1.383,0.305,1.799c3.432,3.432,6.809,6.92,10.214,10.352      c1.198,1.108,1.846,2.688,1.771,4.318c-0.214,2.989,0.772,6.471-1.328,8.968c-1.661,2.076-3.156,4.263-4.844,6.532l4.789,2.021      c2.181,0.903,4.587,1.115,6.892,0.609c7.889-1.744,14.774-3.463,22.635-5.29c2.547-0.407,4.476-2.519,4.65-5.093      c-0.55-2.369,1.259-15.607-0.996-15.196c-4.816,0.913-8.657,1.72-13.473,2.661c-0.745,0.043-1.31,0.696-1.246,1.439      c0.509,1.783-1.276,7.673,1.218,7.556l2.242-0.554l2.602-0.498c0.057,0.792,0.057,1.588,0,2.38      c-0.055,0.36-0.415,0.941-0.72,0.941c-2.059,0.537-4.148,0.953-6.255,1.246c-1.35,0.341-2.702-0.825-2.547-2.214      c-0.138-3.571,0-7.169,0-10.767c0.097-1.537,1.247-2.802,2.768-3.045l2.353-0.443l13.618-2.546      c2.284-0.327,1.199-3.248,1.439-4.872C87.9,54.87,86.309,53.048,84.191,52.844z"/><path class="st114" d="M50.616,74.213c-0.034-0.978-0.606-1.894-1.107-2.713c-3.598-3.654-7.252-7.252-11.072-10.767      c-0.991-0.971-2.224-1.659-3.57-1.993c-5.813-1.19-11.625-2.27-17.493-3.128c-3.412-0.722-6.719,2.055-6.615,5.536      c0,4.512-0.221,17.272-0.221,21.645c-0.24,3.699,1.863,7.152,5.259,8.636c5.384,2.401,11.033,4.157,16.829,5.231      c2.495,0.641,5.125-0.343,6.588-2.463c2.768-3.847,5.757-7.473,8.608-11.238C51.225,78.337,50.616,80.358,50.616,74.213z       M33.289,85.561c0.044,2.208-2.177,3.891-4.29,3.266c0,0-10.629-2.934-10.629-2.934c-1.248-0.351-2.123-1.472-2.159-2.768      V65.272c-0.024-1.595,1.523-2.831,3.072-2.463l11.431,2.629c1.587,0.302,2.744,1.678,2.768,3.294L33.289,85.561z"/></g></g><g><path d="M84.566,31.063c0.225-7.17-7.696-13.095-13.649-7.641c-5.665,4.895-4.3,16.224,3.642,17.689     C80.127,42.025,84.79,36.335,84.566,31.063z M71.852,36.429c-2.502-3.376-2.081-8.092,0.997-10.986     c4.148-3.753,9.162,1.018,8.922,5.665C82.099,36.215,75.777,41.355,71.852,36.429z"/><path d="M69.814,65.942l15.706-2.94c3.256-0.484,2.522-3.71,2.591-6.126c0.111-2.835-2.014-5.268-4.767-5.53     c-12.509-2.241-25.385,0.445-37.891,1.24c-3.121-0.174-7.858,3.882-4.784,6.761c3.389,3.39,6.649,6.761,10.041,10.177     c0.879,0.813,1.353,1.966,1.297,3.228l0.002,4.932c0.117,2.821-2.756,4.842-4.122,7.2c-0.739,1.264-3.255,3.267-1.109,4.433     c3.739,1.588,8.217,3.873,12.357,2.668c7.704-1.703,15.506-3.516,23.05-5.269c3.249-0.489,5.739-3.128,5.899-6.436     c0,0,0-3.014,0-3.014c-0.04-1.844-2.761-1.834-2.796,0c0,0,0,2.964,0,2.964c-0.146,1.917-1.6,3.438-3.501,3.708     c-7.62,1.771-15.484,3.599-23.252,5.316c-3.103,0.839-6.264-0.575-9.038-1.826c1.941-3.189,5.558-5.842,5.307-9.821     c0,0-0.002-4.792-0.002-4.792c0.272-4.387-3.913-6.711-6.429-9.647c-1.906-2.004-4.034-3.987-5.85-5.984     c0.615-1.149,1.825-1.828,3.121-1.809l4.08-0.359c11.044-0.803,22.229-2.944,33.282-0.896c1.349,0.129,2.363,1.291,2.309,2.7     v3.082c-0.02,0.349,0.051,0.273-0.277,0.345l-15.704,2.94c-2.16,0.345-3.765,2.111-3.906,4.381c0,3.532-0.135,7.024-0.002,10.585     c-0.206,2.203,2.01,4.111,4.16,3.586c2.062-0.288,4.135-0.7,6.165-1.224c1.059-0.158,1.719-1.302,1.841-2.094     c0.059-1.387,0.521-4.183-1.645-3.933c-1.045,0.189-3.312,0.637-4.313,0.918v-5.955c4.467-0.955,9.109-1.755,13.654-2.645     c0,0,0,4.528,0,4.528c0.024,1.834,2.769,1.838,2.796,0c0,0,0-5.184,0-5.184c0.11-1.242-0.901-2.652-2.641-2.219     c-4.725,0.896-9.449,1.792-14.174,2.715c-1.443,0.145-2.517,1.408-2.431,2.853v6.444c0.085,1.796,1.147,2.631,2.933,2.312     c0.626-0.159,2.459-0.62,3.075-0.709c-0.004,0.106-0.008,0.212-0.015,0.318c-1.875,0.476-3.787,0.851-5.688,1.114     c-0.253,0.101-0.683-0.01-0.78-0.193c-0.495-3.285-0.034-7.713-0.142-11.129C68.278,66.789,68.917,66.087,69.814,65.942z"/><path d="M53.813,19.157c-3.801-7.283-14.606-7.838-19.144-1.016c-4.981,6.394-4.115,17.625,3.249,21.825     C50.625,46.44,60.449,29.68,53.813,19.157z M34.317,27.669c-0.254-6.211,5.252-13.365,11.988-11.234     c12.55,4.25,6.21,27.303-7.033,21.085C35.724,35.634,34.488,31.454,34.317,27.669z"/><path d="M26.029,43.099c-3.61-3.859-5.831-8.884-6.252-14.15c-0.164-1.813-2.912-1.615-2.787,0.224     c0.802,11.848,10.624,23.108,22.953,22.888c11.413-0.49,22.654-1.473,34.059-2.247c17.276-0.905,22.76-23.24,9.449-33.382     c-5.231-4.044-12.521-4.428-18.211-0.917c-1.256,0.871-2.485,1.8-3.671,2.776C52.992-6.179,19.127-0.809,17.008,24.759     c-0.117,1.84,2.578,2.07,2.785,0.245c0.382-4.328,1.96-8.46,4.558-11.945c8.952-12.193,28.596-9.545,33.987,4.587     c0.812,1.432,1.079,5.65,3.552,4.049c15.446-16.277,34.989,5.507,21.968,20.92c-2.701,2.622-6.26,4.187-10.05,4.41     c-7.979,0.645-15.88,1.073-23.818,1.671C40.911,49.434,32.854,50.568,26.029,43.099z"/><path d="M51.475,76.069c-0.026-0.674-0.004-1.844-0.039-2.77c-0.271-1.133-0.76-2.242-1.481-3.165     c-3.529-3.583-6.538-6.53-9.47-9.276c-1.365-1.23-3.23,0.758-1.911,2.041c2.878,2.695,5.834,5.589,9.296,9.103     c0.343,0.526,0.607,1.094,0.785,1.692c-0.011,0.952,0.016,1.807,0.025,2.429c0.041,2.137,0.041,2.137-1.111,3.618     c-3.211,4.281-6.711,8.54-9.909,12.95c-1.123,1.633-3.18,2.367-5.086,1.847c-5.599-1.038-11.073-2.74-16.281-5.062     c-2.799-1.222-4.546-4.092-4.345-7.23c0.004-4.487,0.217-16.889,0.218-21.359c-0.069-2.564,2.34-4.583,4.92-4.046     c5.191,0.759,10.644,1.734,17.162,3.069c1.801,0.336,2.357-2.341,0.561-2.74c-6.571-1.345-12.074-2.329-17.248-3.084     c-3.705-0.745-7.323,1.677-8.061,5.385c-0.335,3.384-0.07,7.069-0.24,12.241c-0.054,4.123-0.108,8.386-0.105,10.443     c-0.274,4.219,2.145,8.191,6.009,9.879c5.386,2.402,11.058,4.166,16.856,5.244c2.948,0.747,6.189-0.439,7.927-2.977     c3.143-4.33,6.655-8.609,9.829-12.843C51.438,79.324,51.532,79.022,51.475,76.069z"/><path d="M30.749,63.779c-0.239,0.019-12.344-2.966-12.135-2.688c-2.14,0.005-3.876,1.751-3.87,3.886l0.001,17.635     c0.053,1.899,1.317,3.521,3.153,4.037l10.469,2.89c2.902,0.901,6.098-1.518,6.004-4.559c0,0,0.191-16.612,0.191-16.612     C34.528,66.122,32.904,64.188,30.749,63.779z M31.575,84.958c0.048,1.261-1.245,2.254-2.457,1.887l-10.469-2.89     c-0.645-0.181-1.09-0.752-1.109-1.382V64.974c-0.019-0.671,0.662-1.223,1.317-1.061l11.318,2.602     c0.908,0.173,1.577,0.969,1.591,1.857L31.575,84.958z"/></g></g></g></svg>