<?xml version="1.0" ?><svg style="enable-background:new 0 0 100 100;" version="1.1" viewBox="0 0 100 100" xml:space="preserve" xmlns="http://www.w3.org/2000/svg" xmlns:xlink="http://www.w3.org/1999/xlink"><style type="text/css">
	.st0{fill:#FFFFFF;}
	.st1{fill:#D43C89;}
	.st2{fill:#B2005F;}
	.st3{fill:none;stroke:#000000;stroke-width:3;stroke-linecap:round;stroke-linejoin:round;stroke-miterlimit:10;}
	
		.st4{fill-rule:evenodd;clip-rule:evenodd;fill:none;stroke:#000000;stroke-width:3;stroke-linecap:round;stroke-linejoin:round;stroke-miterlimit:10;}
	
		.st5{fill-rule:evenodd;clip-rule:evenodd;fill:none;stroke:#040404;stroke-width:3;stroke-linecap:round;stroke-linejoin:round;stroke-miterlimit:10;}
	.st6{fill-rule:evenodd;clip-rule:evenodd;}
	.st7{fill-rule:evenodd;clip-rule:evenodd;fill:#040404;}
	.st8{fill:url(#SVGID_1_);}
	.st9{fill:url(#SVGID_2_);}
	.st10{fill:url(#SVGID_3_);}
	.st11{fill:url(#SVGID_4_);}
	.st12{fill:url(#SVGID_5_);}
	.st13{fill:url(#SVGID_6_);}
	.st14{fill:url(#SVGID_7_);}
	.st15{fill:url(#SVGID_8_);}
	.st16{fill:url(#SVGID_9_);}
	.st17{fill:url(#SVGID_10_);}
	.st18{fill:url(#SVGID_11_);}
	.st19{fill:url(#SVGID_12_);}
	.st20{fill:url(#SVGID_13_);}
	.st21{fill:url(#SVGID_14_);}
	.st22{fill:url(#SVGID_15_);}
	.st23{fill:url(#SVGID_16_);}
	.st24{fill:url(#SVGID_17_);}
	.st25{fill:url(#SVGID_18_);}
	.st26{fill:url(#SVGID_19_);}
	.st27{fill:url(#SVGID_20_);}
	.st28{fill:url(#SVGID_21_);}
	.st29{fill:url(#SVGID_22_);}
	.st30{fill:url(#SVGID_23_);}
	.st31{fill:url(#SVGID_24_);}
	.st32{fill:url(#SVGID_25_);}
	.st33{fill:url(#SVGID_26_);}
	.st34{fill:url(#SVGID_27_);}
	.st35{fill:url(#SVGID_28_);}
	.st36{fill:url(#SVGID_29_);}
	.st37{fill:url(#SVGID_30_);}
	.st38{fill:url(#SVGID_31_);}
	.st39{fill:url(#SVGID_32_);}
	.st40{fill:url(#SVGID_33_);}
	.st41{fill:url(#SVGID_34_);}
	.st42{fill:url(#SVGID_35_);}
	.st43{fill:url(#SVGID_36_);}
	.st44{fill:url(#SVGID_37_);}
	.st45{fill:url(#SVGID_38_);}
	.st46{fill:url(#SVGID_39_);}
	.st47{fill:url(#SVGID_40_);}
	.st48{fill:url(#SVGID_41_);}
	.st49{fill:url(#SVGID_42_);}
	.st50{fill:url(#SVGID_43_);}
	.st51{fill:url(#SVGID_44_);}
	.st52{fill:url(#SVGID_45_);}
	.st53{fill:#040404;}
	.st54{fill:url(#SVGID_46_);}
	.st55{fill:url(#SVGID_47_);}
	.st56{fill:url(#SVGID_48_);}
	.st57{fill:url(#SVGID_49_);}
	.st58{fill:url(#SVGID_50_);}
	.st59{fill:url(#SVGID_51_);}
	.st60{fill:url(#SVGID_52_);}
	.st61{fill:url(#SVGID_53_);}
	.st62{fill:url(#SVGID_54_);}
	.st63{fill:url(#SVGID_55_);}
	.st64{fill:url(#SVGID_56_);}
	.st65{fill:url(#SVGID_57_);}
	.st66{fill:url(#SVGID_58_);}
	.st67{fill:url(#SVGID_59_);}
	.st68{fill:url(#SVGID_60_);}
	.st69{fill:url(#SVGID_61_);}
	.st70{fill:url(#SVGID_62_);}
	.st71{fill:none;stroke:#000000;stroke-width:3;stroke-miterlimit:10;}
	.st72{fill:none;stroke:#FFFFFF;stroke-miterlimit:10;}
	.st73{fill:#4BC9FF;}
	.st74{fill:#5500DD;}
	.st75{fill:#FF3A00;}
	.st76{fill:#FFC794;}
	.st77{fill:#F1F1F1;}
	.st78{fill:#EB4E00;}
	.st79{fill:#E6162D;}
	.st80{fill:#FF9933;}
	.st81{fill:#B92B27;}
	.st82{fill:#00ACED;}
	.st83{fill:#BD2125;}
	.st84{fill:#1877F2;}
	.st85{fill:#6665D2;}
	.st86{fill:#CE3056;}
	.st87{fill:#5BB381;}
	.st88{fill:#61C3EC;}
	.st89{fill:#E4B34B;}
	.st90{fill:#181EF2;}
	.st91{fill:#FF0000;}
	.st92{fill:#FE466C;}
	.st93{fill:#FA4778;}
	.st94{fill:#FF7700;}
	.st95{fill:#D95040;}
	.st96{fill:#58A55C;}
	.st97{fill:#4E86EC;}
	.st98{fill:#B6332A;}
	.st99{fill:#F3BD42;}
	.st100{fill-rule:evenodd;clip-rule:evenodd;fill:#1F6BF6;}
	.st101{fill:#520094;}
	.st102{fill:#4477E8;}
	.st103{fill:#3D1D1C;}
	.st104{fill:#FFE812;}
	.st105{fill:#344356;}
	.st106{fill:#00CC76;}
	.st107{fill-rule:evenodd;clip-rule:evenodd;fill:#345E90;}
	.st108{fill:#1F65D8;}
	.st109{fill:#EB3587;}
	.st110{fill-rule:evenodd;clip-rule:evenodd;fill:#603A88;}
	.st111{fill:#E3CE99;}
	.st112{fill:#783AF9;}
	.st113{fill:#FF515E;}
	.st114{fill:#FF4906;}
	.st115{fill:#503227;}
	.st116{fill:#4C7BD9;}
	.st117{fill:#69C9D0;}
	.st118{fill:#1B92D1;}
	.st119{fill:#EB4F4A;}
	.st120{fill:#513728;}
	.st121{fill:#FF6600;}
	.st122{fill-rule:evenodd;clip-rule:evenodd;fill:#B61438;}
	.st123{fill:#FFFC00;}
	.st124{fill:#141414;}
	.st125{fill:#94D137;}
	.st126{fill-rule:evenodd;clip-rule:evenodd;fill:#F1F1F1;}
	.st127{fill-rule:evenodd;clip-rule:evenodd;fill:#66E066;}
	.st128{fill:#464EB8;}
	.st129{fill:#7B83EB;}
	.st130{fill:#2D8CFF;}
	.st131{fill:#F1A300;}
	.st132{fill:#4BA2F2;}
	.st133{fill:#1A5099;}
	.st134{fill:#EE6060;}
	.st135{fill-rule:evenodd;clip-rule:evenodd;fill:#F48120;}
	.st136{fill:#222222;}
	.st137{fill:url(#SVGID_63_);}
	.st138{fill:#0077B5;}
	.st139{fill:#FFCC00;}
	.st140{fill:#EB3352;}
	.st141{fill:#F9D265;}
	.st142{fill:#F5B955;}
	.st143{fill:#DC322F;}
	.st144{fill:#4DA94C;}
	.st145{fill:#39802F;}
	.st146{fill:#F6BD41;}
	.st147{fill:#EB5141;}
	.st148{fill:#2165D6;}
	.st149{fill:#2F83F7;}
	.st150{fill:#DD2A7B;}
</style><g id="Layer_1"/><g id="Layer_2"><g><path d="M90.847,37.703c-1.297-9.037-5.712-14.595-12.929-14.73c-4-0.248-7.899,1.33-10.611,4.199    c-7.125-11.44-17.045-21.828-26.972-16.138c-8.492-5.349-20.353,0.51-20.768,10.677c-5.34,2.578-7.937,8.698-7.256,14.363    c-4.165,4.128-4.895,9.963-2.183,17.066c8.18,17.754,24.068,40.404,44.192,39.854C83.779,92.666,95.785,63.469,90.847,37.703z"/><path class="st140" d="M85.006,69.539c-5.18,12.425-17.226,20.453-30.688,20.455c-9.357,0-18.357-4.881-26.711-14.463    C21.77,68.291,16.812,60.349,12.87,51.926c-2.219-5.979-1.71-10.47,1.496-13.669c0.605-0.496,1.307-1.107,1.088-1.973    c-1.045-4.874,1.428-10.341,6.174-12.224c0.567-0.238,0.931-0.797,0.919-1.411c-0.295-8.617,10.082-13.688,16.894-8.609    c0.518,0.374,1.218,0.378,1.741,0.009c6.418-4.523,13.48,1.853,16.18,4.762c3.142,3.66,6.005,7.606,8.51,11.729    c0.266,0.438,0.737,0.71,1.25,0.721c0.515,0.034,0.995-0.24,1.279-0.666c2.058-3.082,5.638-4.863,9.38-4.625    c6.249,0.149,9.079,4.987,10.227,12.892C89.816,49.185,88.777,59.79,85.006,69.539z"/><path class="st141" d="M78.937,66.28c-3.948,9.717-13.964,16.565-24.752,16.568c-18.042-0.766-28.563-20.296-35.547-34.145    c-1.278-3.644-1.379-5.863,0-7.051c1.379-1.188,4.148-0.325,5.605,1.525c1.457,1.85,10.907,14.281,11.21,14.898    c0.302,0.627,1.015,0.941,1.682,0.74c0.588-0.517,0.653-1.41,0.146-2.007L21.934,34.948c-3.262-4.829,3.802-9.545,7.23-4.977    c0,0,13.026,17.79,13.026,17.79c0.331,0.682,1.086,0.802,1.738,0.56c0.617-0.426,0.426-1.3,0-1.917l-14.685-22.42    c-3.269-4.829,3.799-9.546,7.23-4.977c0,0,15.851,23.227,15.851,23.227c1.317,1.66,2.957,0.447,1.85-1.379    c-1.995-3.363-8.968-15.201-10.089-17.297c-3.311-6.641,2.789-7.676,8.508-1.569c4.831,5.93,9.136,12.269,12.869,18.945    c0.957,1.829,3.355,3.758,4.361,1.267c0.661-1.424,1.525-11.49,7.264-11.21c2.074,0,3.643,2.063,4.394,7.264    C83.232,47.653,82.352,57.351,78.937,66.28z"/><path d="M20.728,43.594c0.913,0.088,1.951,0.686,2.583,1.488c1.544,1.96,10.51,13.77,11.036,14.619    c0.497,1.035,1.521,1.653,2.615,1.653c2.239,0.085,3.092-2.947,1.759-4.477c0,0-15.328-21.833-15.328-21.833    c-0.891-1.227-0.621-2.954,0.602-3.848c1.336-1.005,3.223-0.721,4.205,0.639l12.964,17.706c2.178,3.213,6.585,0.385,4.264-2.979    c0,0-14.726-22.479-14.726-22.479c-0.934-1.285-0.595-3.138,0.693-3.916c1.344-0.93,3.15-0.62,4.086,0.665L51.37,44.113    c2.208,2.941,6.474,0.776,4.34-3.045c-1.97-3.32-8.958-15.186-10.057-17.238c-0.811-1.517-1.009-2.888-0.471-3.26    c0.494-0.34,2.749-0.443,6.538,3.399c4.745,5.831,9.01,12.114,12.669,18.658c1.472,2.805,5.202,5.084,7.04,1.185    c1.082-3.033,1.641-10.319,5.904-10.342c1.781,0,2.588,3.745,2.911,5.978c0.297,1.941,3.226,1.528,2.968-0.429    c-0.305-2.114-1.233-8.547-5.804-8.547c-6.548-0.12-7.618,8.051-8.7,12.076c-0.195,0.881-1.483-0.975-1.691-1.367    c-3.765-6.733-8.143-13.179-13.015-19.16c-4.623-4.842-8.633-5.298-10.524-3.919c-4.443,3.54,1.382,9.718,4.384,15.553    c0,0-9.93-14.55-9.93-14.55c-4.692-6.154-13.958,0.218-9.698,6.68c0,0,6.334,9.67,6.334,9.67l-3.945-5.387    c-4.655-6.124-13.994,0.199-9.671,6.721c0,0,3.989,5.655,3.989,5.655c-1.836-1.739-5.043-2.651-7.037-0.949    c-2.356,2.031-1.542,5.529-0.436,8.683c0.697,1.848,3.445,0.881,2.831-0.993C19.236,45.989,18.728,43.508,20.728,43.594z"/><path d="M82.479,44.823c-0.828,0.039-1.467,0.741-1.428,1.568c0.324,6.972-0.775,13.812-3.269,20.331    c-3.932,9.407-13.164,15.524-23.351,15.605c-8.734,0-16.224-6.429-20.916-11.759c-3.701-4.7-7.045-9.741-9.939-14.983    c-0.4-0.726-1.312-0.989-2.038-0.589c-0.725,0.4-0.988,1.313-0.588,2.038c2.972,5.384,6.407,10.562,10.26,15.452    c5.154,5.857,13.366,12.839,23.232,12.839c11.462-0.088,21.733-6.974,26.167-17.544c2.581-6.914,3.799-14.143,3.437-21.531    C84.008,45.424,83.303,44.794,82.479,44.823z"/><path class="st142" d="M67.524,50.992c-0.032-2.492-3.758-2.562-3.811-0.045c0.196,5.703,1.586,11.301,4.08,16.434    c1.202,2.147,4.465,0.479,3.363-1.749C69.022,61.037,67.693,56.081,67.524,50.992z"/><path class="st142" d="M56.942,49.479c-4.899,3.855-8.974,8.654-11.983,14.113c-0.655,0.939-0.321,2.278,0.704,2.793    c0.942,0.483,2.097,0.111,2.58-0.832c2.744-5.004,6.451-9.416,10.907-12.981C61.15,51.064,59.05,48.051,56.942,49.479z"/><path d="M59.162,6.309c5.131,2.219,9.466,5.944,12.432,10.683c1.169,2.327,4.501,0.6,3.554-1.704    C71.713,9.611,66.558,5.137,60.417,2.61C57.977,1.828,56.741,5.44,59.162,6.309z"/><path d="M30.262,93.893c-8.044-4.501-14.649-11.725-18.373-20.29c-0.605-2.507-4.369-1.6-3.744,0.919    c3.973,9.647,11.191,17.646,20.29,22.734C30.659,98.416,32.457,95.136,30.262,93.893z"/></g></g></svg>