<?xml version="1.0" ?><svg style="enable-background:new 0 0 100 100;" version="1.1" viewBox="0 0 100 100" xml:space="preserve" xmlns="http://www.w3.org/2000/svg" xmlns:xlink="http://www.w3.org/1999/xlink"><style type="text/css">
	.st0{fill:#FFFFFF;}
	.st1{fill:#D43C89;}
	.st2{fill:#B2005F;}
	.st3{fill:none;stroke:#000000;stroke-width:3;stroke-linecap:round;stroke-linejoin:round;stroke-miterlimit:10;}
	
		.st4{fill-rule:evenodd;clip-rule:evenodd;fill:none;stroke:#000000;stroke-width:3;stroke-linecap:round;stroke-linejoin:round;stroke-miterlimit:10;}
	
		.st5{fill-rule:evenodd;clip-rule:evenodd;fill:none;stroke:#040404;stroke-width:3;stroke-linecap:round;stroke-linejoin:round;stroke-miterlimit:10;}
	.st6{fill-rule:evenodd;clip-rule:evenodd;}
	.st7{fill-rule:evenodd;clip-rule:evenodd;fill:#040404;}
	.st8{fill:url(#SVGID_1_);}
	.st9{fill:url(#SVGID_2_);}
	.st10{fill:url(#SVGID_3_);}
	.st11{fill:url(#SVGID_4_);}
	.st12{fill:url(#SVGID_5_);}
	.st13{fill:url(#SVGID_6_);}
	.st14{fill:url(#SVGID_7_);}
	.st15{fill:url(#SVGID_8_);}
	.st16{fill:url(#SVGID_9_);}
	.st17{fill:url(#SVGID_10_);}
	.st18{fill:url(#SVGID_11_);}
	.st19{fill:url(#SVGID_12_);}
	.st20{fill:url(#SVGID_13_);}
	.st21{fill:url(#SVGID_14_);}
	.st22{fill:url(#SVGID_15_);}
	.st23{fill:url(#SVGID_16_);}
	.st24{fill:url(#SVGID_17_);}
	.st25{fill:url(#SVGID_18_);}
	.st26{fill:url(#SVGID_19_);}
	.st27{fill:url(#SVGID_20_);}
	.st28{fill:url(#SVGID_21_);}
	.st29{fill:url(#SVGID_22_);}
	.st30{fill:url(#SVGID_23_);}
	.st31{fill:url(#SVGID_24_);}
	.st32{fill:url(#SVGID_25_);}
	.st33{fill:url(#SVGID_26_);}
	.st34{fill:url(#SVGID_27_);}
	.st35{fill:url(#SVGID_28_);}
	.st36{fill:url(#SVGID_29_);}
	.st37{fill:url(#SVGID_30_);}
	.st38{fill:url(#SVGID_31_);}
	.st39{fill:url(#SVGID_32_);}
	.st40{fill:url(#SVGID_33_);}
	.st41{fill:url(#SVGID_34_);}
	.st42{fill:url(#SVGID_35_);}
	.st43{fill:url(#SVGID_36_);}
	.st44{fill:url(#SVGID_37_);}
	.st45{fill:url(#SVGID_38_);}
	.st46{fill:url(#SVGID_39_);}
	.st47{fill:url(#SVGID_40_);}
	.st48{fill:url(#SVGID_41_);}
	.st49{fill:url(#SVGID_42_);}
	.st50{fill:url(#SVGID_43_);}
	.st51{fill:url(#SVGID_44_);}
	.st52{fill:url(#SVGID_45_);}
	.st53{fill:#040404;}
	.st54{fill:url(#SVGID_46_);}
	.st55{fill:url(#SVGID_47_);}
	.st56{fill:url(#SVGID_48_);}
	.st57{fill:url(#SVGID_49_);}
	.st58{fill:url(#SVGID_50_);}
	.st59{fill:url(#SVGID_51_);}
	.st60{fill:url(#SVGID_52_);}
	.st61{fill:url(#SVGID_53_);}
	.st62{fill:url(#SVGID_54_);}
	.st63{fill:url(#SVGID_55_);}
	.st64{fill:url(#SVGID_56_);}
	.st65{fill:url(#SVGID_57_);}
	.st66{fill:url(#SVGID_58_);}
	.st67{fill:url(#SVGID_59_);}
	.st68{fill:url(#SVGID_60_);}
	.st69{fill:url(#SVGID_61_);}
	.st70{fill:url(#SVGID_62_);}
	.st71{fill:none;stroke:#000000;stroke-width:3;stroke-miterlimit:10;}
	.st72{fill:none;stroke:#FFFFFF;stroke-miterlimit:10;}
	.st73{fill:#4BC9FF;}
	.st74{fill:#5500DD;}
	.st75{fill:#FF3A00;}
	.st76{fill:#FFC794;}
	.st77{fill:#F1F1F1;}
	.st78{fill:#EB4E00;}
	.st79{fill:#E6162D;}
	.st80{fill:#FF9933;}
	.st81{fill:#B92B27;}
	.st82{fill:#00ACED;}
	.st83{fill:#BD2125;}
	.st84{fill:#1877F2;}
	.st85{fill:#6665D2;}
	.st86{fill:#CE3056;}
	.st87{fill:#5BB381;}
	.st88{fill:#61C3EC;}
	.st89{fill:#E4B34B;}
	.st90{fill:#181EF2;}
	.st91{fill:#FF0000;}
	.st92{fill:#FE466C;}
	.st93{fill:#FA4778;}
	.st94{fill:#FF7700;}
	.st95{fill:#D95040;}
	.st96{fill:#58A55C;}
	.st97{fill:#4E86EC;}
	.st98{fill:#B6332A;}
	.st99{fill:#F3BD42;}
	.st100{fill-rule:evenodd;clip-rule:evenodd;fill:#1F6BF6;}
	.st101{fill:#520094;}
	.st102{fill:#4477E8;}
	.st103{fill:#3D1D1C;}
	.st104{fill:#FFE812;}
	.st105{fill:#344356;}
	.st106{fill:#00CC76;}
	.st107{fill-rule:evenodd;clip-rule:evenodd;fill:#345E90;}
	.st108{fill:#1F65D8;}
	.st109{fill:#EB3587;}
	.st110{fill-rule:evenodd;clip-rule:evenodd;fill:#603A88;}
	.st111{fill:#E3CE99;}
	.st112{fill:#783AF9;}
	.st113{fill:#FF515E;}
	.st114{fill:#FF4906;}
	.st115{fill:#503227;}
	.st116{fill:#4C7BD9;}
	.st117{fill:#69C9D0;}
	.st118{fill:#1B92D1;}
	.st119{fill:#EB4F4A;}
	.st120{fill:#513728;}
	.st121{fill:#FF6600;}
	.st122{fill-rule:evenodd;clip-rule:evenodd;fill:#B61438;}
	.st123{fill:#FFFC00;}
	.st124{fill:#141414;}
	.st125{fill:#94D137;}
	.st126{fill-rule:evenodd;clip-rule:evenodd;fill:#F1F1F1;}
	.st127{fill-rule:evenodd;clip-rule:evenodd;fill:#66E066;}
	.st128{fill:#464EB8;}
	.st129{fill:#7B83EB;}
	.st130{fill:#2D8CFF;}
	.st131{fill:#F1A300;}
	.st132{fill:#4BA2F2;}
	.st133{fill:#1A5099;}
	.st134{fill:#EE6060;}
	.st135{fill-rule:evenodd;clip-rule:evenodd;fill:#F48120;}
	.st136{fill:#222222;}
	.st137{fill:url(#SVGID_63_);}
	.st138{fill:#0077B5;}
	.st139{fill:#FFCC00;}
	.st140{fill:#EB3352;}
	.st141{fill:#F9D265;}
	.st142{fill:#F5B955;}
	.st143{fill:#DC322F;}
	.st144{fill:#4DA94C;}
	.st145{fill:#39802F;}
	.st146{fill:#F6BD41;}
	.st147{fill:#EB5141;}
	.st148{fill:#2165D6;}
	.st149{fill:#2F83F7;}
	.st150{fill:#DD2A7B;}
</style><g id="Layer_1"/><g id="Layer_2"><g><path class="st81" d="M70.89,80.696c11.552-7.287,19.422-20.33,19.394-36.132c0-30.317-19.634-41.086-40.157-41.086    c-59.584,2.756-50.551,95.648,9.192,82.02c8.089,14.455,20.137,10.957,23.246,9.818c0,0-0.417-2.544-1.147-7.279    C75.606,87.889,73.016,84.972,70.89,80.696z M44.373,62.583c0,0,0.316,2.351,0.969,6.625c5.454-0.002,8.154,2.826,10.041,6.479    c-1.682,0.652-3.765,0.653-5.525,0.716c-9.555,0-20.998-4.127-20.998-29.881c0-25.749,11.984-32.859,21.54-32.859    c9.553,0,20.665,6.128,20.665,31.879c-0.056,11.636-2.289,19.295-5.964,23.723C57.155,59.013,46.845,61.47,44.373,62.583z"/><g><path d="M63.872,69.96c0.544,0.725,1.773,0.739,2.308-0.005c4.046-5.371,6.098-13.568,6.098-24.364     c0-28.708-13.707-32.994-21.878-32.994c-5.336,0-22.745,2.449-22.745,33.966c-0.32,23.519,10.219,33.85,27.99,30.35     c0.479-0.118,0.859-0.48,1-0.949c0.138-0.367,0.115-0.777-0.066-1.129c-1.493-2.89-4.13-6.673-9.988-7.13     c-0.294-1.948-0.503-3.402-0.632-4.309C49.562,62.274,57.585,61.85,63.872,69.96z M44.009,69.261     c0.103,0.68,0.689,1.183,1.377,1.183c3.491-0.018,5.895,1.212,7.81,4.109c-11.044,0.872-22.386-0.895-22.755-27.991     c0-28.931,15.277-31.18,19.959-31.18c12.311,0,19.092,10.728,19.092,30.208c0,9.244-1.536,16.389-4.571,21.276     c-7.877-8.811-17.775-7.137-21.067-5.653c-0.561,0.253-0.891,0.845-0.808,1.456C43.045,62.669,43.359,65.009,44.009,69.261z"/><path d="M50.13,2.5c-8.305,0-16.749,2.713-23.777,7.639c-1.47,1.08,0.069,3.306,1.6,2.282     C46.376-1.08,88.849,1.919,88.545,44.621c0.013,1.812,2.762,1.844,2.786,0C91.331,18.246,75.929,2.5,50.13,2.5z"/><path d="M89.15,53.228c-0.751-0.168-1.496,0.302-1.665,1.053C85.105,64.829,78.895,73.677,70,79.193     c-0.308,0.188-0.524,0.496-0.62,0.842c-0.103,0.34-0.073,0.706,0.086,1.024c1.906,3.836,4.51,7.424,10.478,7.982     c0.35,2.262,0.615,3.926,0.777,4.943c-4.579,1.366-13.735,2.203-20.265-9.463c-0.191-0.343-0.519-0.588-0.898-0.676     c-26.661,5.344-48.701-9.611-48.103-38.643c0-14.3,6.271-23.473,11.533-28.65c1.294-1.267-0.633-3.266-1.954-1.986     C15.394,20.115,8.669,29.936,8.669,45.201c0.552,42.282,35.035,44.288,49.862,41.552C63.738,95.437,70.449,97.5,75.646,97.5     c3.155,0,5.754-0.76,7.119-1.261c0.628-0.23,1.003-0.873,0.895-1.533c-0.001-0.004-0.414-2.521-1.136-7.202     c-0.102-0.666-0.668-1.163-1.341-1.18c-4.577-0.117-6.831-2.143-8.663-5.437c8.973-5.946,15.233-15.129,17.682-25.993     C90.372,54.143,89.9,53.398,89.15,53.228z"/></g></g></g></svg>