<?xml version="1.0" ?><svg style="enable-background:new 0 0 100 100;" version="1.1" viewBox="0 0 100 100" xml:space="preserve" xmlns="http://www.w3.org/2000/svg" xmlns:xlink="http://www.w3.org/1999/xlink"><style type="text/css">
	.st0{fill:#FFFFFF;}
	.st1{fill:#D43C89;}
	.st2{fill:#B2005F;}
	.st3{fill:none;stroke:#000000;stroke-width:3;stroke-linecap:round;stroke-linejoin:round;stroke-miterlimit:10;}
	
		.st4{fill-rule:evenodd;clip-rule:evenodd;fill:none;stroke:#000000;stroke-width:3;stroke-linecap:round;stroke-linejoin:round;stroke-miterlimit:10;}
	
		.st5{fill-rule:evenodd;clip-rule:evenodd;fill:none;stroke:#040404;stroke-width:3;stroke-linecap:round;stroke-linejoin:round;stroke-miterlimit:10;}
	.st6{fill-rule:evenodd;clip-rule:evenodd;}
	.st7{fill-rule:evenodd;clip-rule:evenodd;fill:#040404;}
	.st8{fill:url(#SVGID_1_);}
	.st9{fill:url(#SVGID_2_);}
	.st10{fill:url(#SVGID_3_);}
	.st11{fill:url(#SVGID_4_);}
	.st12{fill:url(#SVGID_5_);}
	.st13{fill:url(#SVGID_6_);}
	.st14{fill:url(#SVGID_7_);}
	.st15{fill:url(#SVGID_8_);}
	.st16{fill:url(#SVGID_9_);}
	.st17{fill:url(#SVGID_10_);}
	.st18{fill:url(#SVGID_11_);}
	.st19{fill:url(#SVGID_12_);}
	.st20{fill:url(#SVGID_13_);}
	.st21{fill:url(#SVGID_14_);}
	.st22{fill:url(#SVGID_15_);}
	.st23{fill:url(#SVGID_16_);}
	.st24{fill:url(#SVGID_17_);}
	.st25{fill:url(#SVGID_18_);}
	.st26{fill:url(#SVGID_19_);}
	.st27{fill:url(#SVGID_20_);}
	.st28{fill:url(#SVGID_21_);}
	.st29{fill:url(#SVGID_22_);}
	.st30{fill:url(#SVGID_23_);}
	.st31{fill:url(#SVGID_24_);}
	.st32{fill:url(#SVGID_25_);}
	.st33{fill:url(#SVGID_26_);}
	.st34{fill:url(#SVGID_27_);}
	.st35{fill:url(#SVGID_28_);}
	.st36{fill:url(#SVGID_29_);}
	.st37{fill:url(#SVGID_30_);}
	.st38{fill:url(#SVGID_31_);}
	.st39{fill:url(#SVGID_32_);}
	.st40{fill:url(#SVGID_33_);}
	.st41{fill:url(#SVGID_34_);}
	.st42{fill:url(#SVGID_35_);}
	.st43{fill:url(#SVGID_36_);}
	.st44{fill:url(#SVGID_37_);}
	.st45{fill:url(#SVGID_38_);}
	.st46{fill:url(#SVGID_39_);}
	.st47{fill:url(#SVGID_40_);}
	.st48{fill:url(#SVGID_41_);}
	.st49{fill:url(#SVGID_42_);}
	.st50{fill:url(#SVGID_43_);}
	.st51{fill:url(#SVGID_44_);}
	.st52{fill:url(#SVGID_45_);}
	.st53{fill:#040404;}
	.st54{fill:url(#SVGID_46_);}
	.st55{fill:url(#SVGID_47_);}
	.st56{fill:url(#SVGID_48_);}
	.st57{fill:url(#SVGID_49_);}
	.st58{fill:url(#SVGID_50_);}
	.st59{fill:url(#SVGID_51_);}
	.st60{fill:url(#SVGID_52_);}
	.st61{fill:url(#SVGID_53_);}
	.st62{fill:url(#SVGID_54_);}
	.st63{fill:url(#SVGID_55_);}
	.st64{fill:url(#SVGID_56_);}
	.st65{fill:url(#SVGID_57_);}
	.st66{fill:url(#SVGID_58_);}
	.st67{fill:url(#SVGID_59_);}
	.st68{fill:url(#SVGID_60_);}
	.st69{fill:url(#SVGID_61_);}
	.st70{fill:url(#SVGID_62_);}
	.st71{fill:none;stroke:#000000;stroke-width:3;stroke-miterlimit:10;}
	.st72{fill:none;stroke:#FFFFFF;stroke-miterlimit:10;}
	.st73{fill:#4BC9FF;}
	.st74{fill:#5500DD;}
	.st75{fill:#FF3A00;}
	.st76{fill:#FFC794;}
	.st77{fill:#F1F1F1;}
	.st78{fill:#EB4E00;}
	.st79{fill:#E6162D;}
	.st80{fill:#FF9933;}
	.st81{fill:#B92B27;}
	.st82{fill:#00ACED;}
	.st83{fill:#BD2125;}
	.st84{fill:#1877F2;}
	.st85{fill:#6665D2;}
	.st86{fill:#CE3056;}
	.st87{fill:#5BB381;}
	.st88{fill:#61C3EC;}
	.st89{fill:#E4B34B;}
	.st90{fill:#181EF2;}
	.st91{fill:#FF0000;}
	.st92{fill:#FE466C;}
	.st93{fill:#FA4778;}
	.st94{fill:#FF7700;}
	.st95{fill:#D95040;}
	.st96{fill:#58A55C;}
	.st97{fill:#4E86EC;}
	.st98{fill:#B6332A;}
	.st99{fill:#F3BD42;}
	.st100{fill-rule:evenodd;clip-rule:evenodd;fill:#1F6BF6;}
	.st101{fill:#520094;}
	.st102{fill:#4477E8;}
	.st103{fill:#3D1D1C;}
	.st104{fill:#FFE812;}
	.st105{fill:#344356;}
	.st106{fill:#00CC76;}
	.st107{fill-rule:evenodd;clip-rule:evenodd;fill:#345E90;}
	.st108{fill:#1F65D8;}
	.st109{fill:#EB3587;}
	.st110{fill-rule:evenodd;clip-rule:evenodd;fill:#603A88;}
	.st111{fill:#E3CE99;}
	.st112{fill:#783AF9;}
	.st113{fill:#FF515E;}
	.st114{fill:#FF4906;}
	.st115{fill:#503227;}
	.st116{fill:#4C7BD9;}
	.st117{fill:#69C9D0;}
	.st118{fill:#1B92D1;}
	.st119{fill:#EB4F4A;}
	.st120{fill:#513728;}
	.st121{fill:#FF6600;}
	.st122{fill-rule:evenodd;clip-rule:evenodd;fill:#B61438;}
	.st123{fill:#FFFC00;}
	.st124{fill:#141414;}
	.st125{fill:#94D137;}
	.st126{fill-rule:evenodd;clip-rule:evenodd;fill:#F1F1F1;}
	.st127{fill-rule:evenodd;clip-rule:evenodd;fill:#66E066;}
	.st128{fill:#464EB8;}
	.st129{fill:#7B83EB;}
	.st130{fill:#2D8CFF;}
	.st131{fill:#F1A300;}
	.st132{fill:#4BA2F2;}
	.st133{fill:#1A5099;}
	.st134{fill:#EE6060;}
	.st135{fill-rule:evenodd;clip-rule:evenodd;fill:#F48120;}
	.st136{fill:#222222;}
	.st137{fill:url(#SVGID_63_);}
	.st138{fill:#0077B5;}
	.st139{fill:#FFCC00;}
	.st140{fill:#EB3352;}
	.st141{fill:#F9D265;}
	.st142{fill:#F5B955;}
	.st143{fill:#DC322F;}
	.st144{fill:#4DA94C;}
	.st145{fill:#39802F;}
	.st146{fill:#F6BD41;}
	.st147{fill:#EB5141;}
	.st148{fill:#2165D6;}
	.st149{fill:#2F83F7;}
	.st150{fill:#DD2A7B;}
</style><g id="Layer_1"/><g id="Layer_2"><g><path class="st77" d="M90.155,57.152c-1.352,0.809-0.28,2.801-0.481,4.106c-1.838,35.574-82.427,34.504-79.459-2.873    c0.095-0.556-0.158-1.113-0.637-1.41c-2.695-1.664-4.304-4.549-4.305-7.715c-0.037-7.721,9.323-11.953,15.064-6.789    c0.465,0.411,1.147,0.464,1.668,0.13c14.985-9.938,40.892-9.903,55.853,0.14c0.532,0.347,1.232,0.287,1.698-0.145    c5.674-5.347,15.255-1.132,15.2,6.67C94.77,52.535,93.008,55.556,90.155,57.152z"/><path d="M85.696,37.427c-2.621-0.005-5.142,0.854-7.2,2.439c-7.217-4.443-16.491-7.087-26.225-7.458l-1.726-0.018l5.981-18.256    c1.901,0.748,2.876-2.079,0.918-2.631c0,0-1.52-0.359-1.52-0.359c-0.697-0.162-1.411,0.234-1.636,0.918l-6.665,20.342    c-9.749,0.338-19,2.916-26.265,7.333c-7.586-5.78-18.976-0.033-18.858,9.522c0.001,3.825,1.798,7.334,4.852,9.559    c-2.063,41.383,86.681,41.513,84.972,0.252C101.914,52.584,97.295,37.477,85.696,37.427z M90.155,57.152    c-1.352,0.809-0.28,2.801-0.481,4.106c-1.838,35.574-82.427,34.504-79.459-2.873c0.095-0.556-0.158-1.113-0.637-1.41    c-2.695-1.664-4.304-4.549-4.305-7.715c-0.037-7.721,9.323-11.953,15.064-6.789c0.464,0.411,1.147,0.464,1.668,0.13    c14.985-9.938,40.892-9.903,55.853,0.14c0.532,0.347,1.231,0.287,1.698-0.145c5.674-5.347,15.255-1.132,15.2,6.67    C94.77,52.535,93.008,55.556,90.155,57.152z"/><path d="M63.987,48.378c-4.254,0-7.848,3.604-7.848,7.871c0.392,10.242,15.204,10.345,15.591,0    C71.729,51.909,68.256,48.378,63.987,48.378z"/><path class="st143" d="M63.987,61.219c-6.838-0.249-6.692-9.751,0-10.04C70.56,51.391,70.656,61.012,63.987,61.219z"/><path d="M43.906,56.248c0-4.326-3.486-7.845-7.77-7.845c-10.343,0.511-10.512,15.14,0,15.591    C40.42,63.994,43.906,60.52,43.906,56.248z"/><path class="st143" d="M31.067,56.249c0.305-6.71,9.742-6.806,10.04,0C40.899,62.926,31.278,62.828,31.067,56.249z"/><path d="M62.444,71.911c-4.004,4.814-20.863,4.816-24.863,0c-1.619-1.574-4.019,0.805-2.439,2.437    c5.335,6.174,24.401,6.172,29.738,0C66.449,72.722,64.078,70.336,62.444,71.911z"/><path d="M81.335,10.065c-3.706,0-6.941,2.024-8.679,5.021L61.49,12.456c-1.773-0.392-2.406,2.251-0.635,2.698l10.751,2.531    c-1.646,6.188,3.319,12.539,9.729,12.448C94.643,29.584,94.647,10.615,81.335,10.065z M74.072,20.099    c0.342-9.615,14.187-9.607,14.525,0C88.233,29.721,74.436,29.718,74.072,20.099z"/><path class="st77" d="M81.335,12.812c4.005,0,7.263,3.269,7.263,7.287c-0.365,9.653-14.162,9.651-14.525,0    C74.072,16.081,77.33,12.812,81.335,12.812z"/></g></g></svg>