<?xml version="1.0" ?><svg style="enable-background:new 0 0 100 100;" version="1.1" viewBox="0 0 100 100" xml:space="preserve" xmlns="http://www.w3.org/2000/svg" xmlns:xlink="http://www.w3.org/1999/xlink"><style type="text/css">
	.st0{fill:#FFFFFF;}
	.st1{fill:#D43C89;}
	.st2{fill:#B2005F;}
	.st3{fill:none;stroke:#000000;stroke-width:3;stroke-linecap:round;stroke-linejoin:round;stroke-miterlimit:10;}
	
		.st4{fill-rule:evenodd;clip-rule:evenodd;fill:none;stroke:#000000;stroke-width:3;stroke-linecap:round;stroke-linejoin:round;stroke-miterlimit:10;}
	
		.st5{fill-rule:evenodd;clip-rule:evenodd;fill:none;stroke:#040404;stroke-width:3;stroke-linecap:round;stroke-linejoin:round;stroke-miterlimit:10;}
	.st6{fill-rule:evenodd;clip-rule:evenodd;}
	.st7{fill-rule:evenodd;clip-rule:evenodd;fill:#040404;}
	.st8{fill:url(#SVGID_1_);}
	.st9{fill:url(#SVGID_2_);}
	.st10{fill:url(#SVGID_3_);}
	.st11{fill:url(#SVGID_4_);}
	.st12{fill:url(#SVGID_5_);}
	.st13{fill:url(#SVGID_6_);}
	.st14{fill:url(#SVGID_7_);}
	.st15{fill:url(#SVGID_8_);}
	.st16{fill:url(#SVGID_9_);}
	.st17{fill:url(#SVGID_10_);}
	.st18{fill:url(#SVGID_11_);}
	.st19{fill:url(#SVGID_12_);}
	.st20{fill:url(#SVGID_13_);}
	.st21{fill:url(#SVGID_14_);}
	.st22{fill:url(#SVGID_15_);}
	.st23{fill:url(#SVGID_16_);}
	.st24{fill:url(#SVGID_17_);}
	.st25{fill:url(#SVGID_18_);}
	.st26{fill:url(#SVGID_19_);}
	.st27{fill:url(#SVGID_20_);}
	.st28{fill:url(#SVGID_21_);}
	.st29{fill:url(#SVGID_22_);}
	.st30{fill:url(#SVGID_23_);}
	.st31{fill:url(#SVGID_24_);}
	.st32{fill:url(#SVGID_25_);}
	.st33{fill:url(#SVGID_26_);}
	.st34{fill:url(#SVGID_27_);}
	.st35{fill:url(#SVGID_28_);}
	.st36{fill:url(#SVGID_29_);}
	.st37{fill:url(#SVGID_30_);}
	.st38{fill:url(#SVGID_31_);}
	.st39{fill:url(#SVGID_32_);}
	.st40{fill:url(#SVGID_33_);}
	.st41{fill:url(#SVGID_34_);}
	.st42{fill:url(#SVGID_35_);}
	.st43{fill:url(#SVGID_36_);}
	.st44{fill:url(#SVGID_37_);}
	.st45{fill:url(#SVGID_38_);}
	.st46{fill:url(#SVGID_39_);}
	.st47{fill:url(#SVGID_40_);}
	.st48{fill:url(#SVGID_41_);}
	.st49{fill:url(#SVGID_42_);}
	.st50{fill:url(#SVGID_43_);}
	.st51{fill:url(#SVGID_44_);}
	.st52{fill:url(#SVGID_45_);}
	.st53{fill:#040404;}
	.st54{fill:url(#SVGID_46_);}
	.st55{fill:url(#SVGID_47_);}
	.st56{fill:url(#SVGID_48_);}
	.st57{fill:url(#SVGID_49_);}
	.st58{fill:url(#SVGID_50_);}
	.st59{fill:url(#SVGID_51_);}
	.st60{fill:url(#SVGID_52_);}
	.st61{fill:url(#SVGID_53_);}
	.st62{fill:url(#SVGID_54_);}
	.st63{fill:url(#SVGID_55_);}
	.st64{fill:url(#SVGID_56_);}
	.st65{fill:url(#SVGID_57_);}
	.st66{fill:url(#SVGID_58_);}
	.st67{fill:url(#SVGID_59_);}
	.st68{fill:url(#SVGID_60_);}
	.st69{fill:url(#SVGID_61_);}
	.st70{fill:url(#SVGID_62_);}
	.st71{fill:none;stroke:#000000;stroke-width:3;stroke-miterlimit:10;}
	.st72{fill:none;stroke:#FFFFFF;stroke-miterlimit:10;}
	.st73{fill:#4BC9FF;}
	.st74{fill:#5500DD;}
	.st75{fill:#FF3A00;}
	.st76{fill:#FFC794;}
	.st77{fill:#F1F1F1;}
	.st78{fill:#EB4E00;}
	.st79{fill:#E6162D;}
	.st80{fill:#FF9933;}
	.st81{fill:#B92B27;}
	.st82{fill:#00ACED;}
	.st83{fill:#BD2125;}
	.st84{fill:#1877F2;}
	.st85{fill:#6665D2;}
	.st86{fill:#CE3056;}
	.st87{fill:#5BB381;}
	.st88{fill:#61C3EC;}
	.st89{fill:#E4B34B;}
	.st90{fill:#181EF2;}
	.st91{fill:#FF0000;}
	.st92{fill:#FE466C;}
	.st93{fill:#FA4778;}
	.st94{fill:#FF7700;}
	.st95{fill:#D95040;}
	.st96{fill:#58A55C;}
	.st97{fill:#4E86EC;}
	.st98{fill:#B6332A;}
	.st99{fill:#F3BD42;}
	.st100{fill-rule:evenodd;clip-rule:evenodd;fill:#1F6BF6;}
	.st101{fill:#520094;}
	.st102{fill:#4477E8;}
	.st103{fill:#3D1D1C;}
	.st104{fill:#FFE812;}
	.st105{fill:#344356;}
	.st106{fill:#00CC76;}
	.st107{fill-rule:evenodd;clip-rule:evenodd;fill:#345E90;}
	.st108{fill:#1F65D8;}
	.st109{fill:#EB3587;}
	.st110{fill-rule:evenodd;clip-rule:evenodd;fill:#603A88;}
	.st111{fill:#E3CE99;}
	.st112{fill:#783AF9;}
	.st113{fill:#FF515E;}
	.st114{fill:#FF4906;}
	.st115{fill:#503227;}
	.st116{fill:#4C7BD9;}
	.st117{fill:#69C9D0;}
	.st118{fill:#1B92D1;}
	.st119{fill:#EB4F4A;}
	.st120{fill:#513728;}
	.st121{fill:#FF6600;}
	.st122{fill-rule:evenodd;clip-rule:evenodd;fill:#B61438;}
	.st123{fill:#FFFC00;}
	.st124{fill:#141414;}
	.st125{fill:#94D137;}
	.st126{fill-rule:evenodd;clip-rule:evenodd;fill:#F1F1F1;}
	.st127{fill-rule:evenodd;clip-rule:evenodd;fill:#66E066;}
	.st128{fill:#464EB8;}
	.st129{fill:#7B83EB;}
	.st130{fill:#2D8CFF;}
	.st131{fill:#F1A300;}
	.st132{fill:#4BA2F2;}
	.st133{fill:#1A5099;}
	.st134{fill:#EE6060;}
	.st135{fill-rule:evenodd;clip-rule:evenodd;fill:#F48120;}
	.st136{fill:#222222;}
	.st137{fill:url(#SVGID_63_);}
	.st138{fill:#0077B5;}
	.st139{fill:#FFCC00;}
	.st140{fill:#EB3352;}
	.st141{fill:#F9D265;}
	.st142{fill:#F5B955;}
	.st143{fill:#DC322F;}
	.st144{fill:#4DA94C;}
	.st145{fill:#39802F;}
	.st146{fill:#F6BD41;}
	.st147{fill:#EB5141;}
	.st148{fill:#2165D6;}
	.st149{fill:#2F83F7;}
	.st150{fill:#DD2A7B;}
</style><g id="Layer_1"/><g id="Layer_2"><g><g><path class="st103" d="M50.208,7.556C6.123,7.324-14.318,53.867,25.774,74.543c-0.705,2.429-4.527,15.63-4.68,16.667     c-0.109,0.811,0.509,1.491,1.511,1.143C24.053,92.15,39.385,81.38,42.039,79.51C105.612,87.119,118.13,10.476,50.208,7.556z"/><path class="st104" d="M27.433,53.943c-0.086,3.333-5.216,3.346-5.307,0c0,0,0-15.763,0-15.763h-4.14     c-3.429-0.087-3.436-5.107,0-5.196c0,0,13.587,0,13.587,0c3.431,0.091,3.435,5.105,0,5.196c0,0-4.14,0-4.14,0V53.943z"/><path class="st104" d="M49.733,56.076c-1.191,0.628-3.495,0.475-3.895-0.806c0,0-1.314-3.44-1.314-3.44l-8.091,0l-1.315,3.442     c-0.398,1.279-2.703,1.433-3.893,0.804c-0.732-0.337-1.435-1.265-0.629-3.768l6.347-16.705c1.299-3.426,5.766-3.441,7.073,0.003     c0,0,6.344,16.698,6.344,16.698C51.167,54.812,50.464,55.74,49.733,56.076z"/><path class="st104" d="M63.143,56.09H54.63c-1.402,0-2.543-1.091-2.543-2.432V35.637c0.091-3.492,5.324-3.503,5.417,0     c0,0,0,15.588,0,15.588h5.639C66.492,51.308,66.499,56.005,63.143,56.09z"/><path class="st104" d="M83.914,54.092c-0.236,2.275-3.433,3.113-4.745,1.231c0,0-6.222-8.245-6.222-8.245l-0.921,0.921v5.789     c-0.087,3.492-5.216,3.505-5.308,0.001c0,0,0-18.152,0-18.152c0.092-3.495,5.213-3.502,5.307,0c0,0,0,5.703,0,5.703l7.403-7.403     c0.888-0.901,2.432-0.707,3.298,0.193c0.901,0.856,1.096,2.418,0.195,3.298l-6.047,6.046l6.531,8.653     C83.83,52.687,84.013,53.395,83.914,54.092z"/><polygon class="st103" points="37.829,47.131 43.129,47.131 40.479,39.602    "/></g><g><path d="M2.5,43.69c0,12.796,7.959,24.507,21.352,31.521c-1.721,5.945-4.274,14.847-4.418,15.838     c-0.272,1.792,1.422,3.275,3.256,2.643c0.715-0.188,3.456-1.478,19.916-13.083c1.468-1.078-0.091-3.281-1.595-2.261     c-9.414,6.637-16.877,11.634-18.712,12.539c0.465-1.84,2.159-7.828,4.529-16.004c0.187-0.643-0.114-1.328-0.714-1.625     C13.061,66.79,5.267,55.736,5.267,43.689c2.352-46.363,87.11-46.371,89.465,0c0,19.286-20.067,34.977-44.733,34.977     c-1.823,0.028-1.813,2.74,0,2.767c26.191,0,47.5-16.932,47.5-37.745C94.986-6.352,5.01-6.348,2.5,43.69z"/><path d="M51.988,56.033c0.722,0.823,1.796,1.346,2.994,1.346h8.536c1.185,0,2.248-0.512,2.97-1.32     c2.199,3.134,7.356,1.517,7.32-2.373c0,0,0-3.819,0-3.819l4.672,6.189c2.045,2.866,6.834,1.623,7.234-1.867     c0.31-1.503-0.818-4.476-2.717-3.27c-0.609,0.462-0.727,1.331-0.265,1.939c0.971,1.34-0.994,2.866-2.04,1.535     c0,0-6.24-8.267-6.24-8.267c-0.476-0.662-1.53-0.739-2.083-0.145c-0.448,0.497-1.39,1.143-1.328,1.901v5.803     c-0.034,1.676-2.521,1.687-2.555,0.004c0,0,0-18.202,0-18.202c0.024-1.67,2.526-1.682,2.554,0c0,0,0,5.719,0,5.719     c-0.043,1.196,1.546,1.852,2.362,0.978c0,0,7.424-7.424,7.424-7.424c0.709-0.669,2.305,0.671,1.544,1.545     c0,0-6.064,6.062-6.064,6.062c-0.488,0.488-0.542,1.261-0.126,1.812l3.932,5.209c1.105,1.429,3.287-0.192,2.209-1.667     c0,0-3.207-4.248-3.207-4.248l5.214-5.212c3.239-3.437-2.012-8.706-5.46-5.455c0,0-5.061,5.061-5.061,5.061v-2.378     c-0.17-5.34-7.917-5.348-8.089,0c0,0,0,14.903,0,14.903c-0.629-0.414-1.386-0.656-2.201-0.656h-4.27V35.486     c-0.167-5.336-8.028-5.348-8.2,0c0,0,0,13.733,0,13.733l-5.404-14.224c-1.747-4.756-8.224-4.641-9.792,0.232     c-0.105-2.105-1.855-3.785-3.99-3.785H18.239c-5.255,0.16-5.3,7.802,0,7.977c0,0,2.767,0,2.767,0v14.423     c0.178,5.188,7.916,5.185,8.089,0c0,0,0-14.422,0-14.422c1.83-0.027,4.314,0.334,5.621-1.2c0,0-5.15,13.56-5.15,13.56     c-1.178,3.657,0.352,4.99,1.371,5.459c1.916,0.991,5.153,0.471,5.773-1.569c0,0,0.978-2.562,0.978-2.562l6.207,0.001l0.966,2.527     C45.73,58.235,50.476,58.501,51.988,56.033z M53.816,35.486c0.029-1.67,2.633-1.683,2.665,0c0,0,0,15.631,0,15.631     c0,0.764,0.62,1.384,1.384,1.384h5.654c1.529,0.022,1.535,2.086,0,2.111c0,0-8.536,0-8.536,0c-0.643,0-1.166-0.474-1.166-1.056     V35.486z M31.862,36.652h-4.151c-0.764,0-1.384,0.62-1.384,1.384v15.806c-0.025,1.511-2.526,1.526-2.554,0c0,0,0-15.806,0-15.806     c0-0.764-0.62-1.384-1.384-1.384h-4.151c-1.612-0.029-1.612-2.414,0-2.442h13.624C33.473,34.239,33.479,36.622,31.862,36.652z      M47.459,54.68c0,0-1.317-3.449-1.317-3.449c-0.204-0.536-0.719-0.89-1.293-0.89l-8.113-0.001c-0.574,0-1.088,0.354-1.293,0.89     l-1.329,3.482c-0.162,0.312-1.59,0.318-2.021,0.012c-0.246-0.113-0.288-0.869,0.084-2.029l6.376-16.785     c0.869-2.254,3.647-2.197,4.493,0.036c0,0,6.337,16.676,6.337,16.676c0.396,1.231,0.355,1.989,0.114,2.101     C49.044,55.025,47.635,55.049,47.459,54.68z"/><path d="M42.098,39.002c-0.382-1.209-2.229-1.211-2.611,0c0,0-2.658,7.55-2.658,7.55c-0.33,0.864,0.379,1.869,1.305,1.843h5.315     c0.925,0.025,1.636-0.978,1.305-1.843C44.755,46.552,42.098,39.002,42.098,39.002z M40.089,45.628l0.704-1.999l0.704,1.999     H40.089z"/></g></g></g></svg>