<?xml version="1.0" ?><svg style="enable-background:new 0 0 100 100;" version="1.1" viewBox="0 0 100 100" xml:space="preserve" xmlns="http://www.w3.org/2000/svg" xmlns:xlink="http://www.w3.org/1999/xlink"><style type="text/css">
	.st0{fill:#FFFFFF;}
	.st1{fill:#D43C89;}
	.st2{fill:#B2005F;}
	.st3{fill:none;stroke:#000000;stroke-width:3;stroke-linecap:round;stroke-linejoin:round;stroke-miterlimit:10;}
	
		.st4{fill-rule:evenodd;clip-rule:evenodd;fill:none;stroke:#000000;stroke-width:3;stroke-linecap:round;stroke-linejoin:round;stroke-miterlimit:10;}
	
		.st5{fill-rule:evenodd;clip-rule:evenodd;fill:none;stroke:#040404;stroke-width:3;stroke-linecap:round;stroke-linejoin:round;stroke-miterlimit:10;}
	.st6{fill-rule:evenodd;clip-rule:evenodd;}
	.st7{fill-rule:evenodd;clip-rule:evenodd;fill:#040404;}
	.st8{fill:url(#SVGID_1_);}
	.st9{fill:url(#SVGID_2_);}
	.st10{fill:url(#SVGID_3_);}
	.st11{fill:url(#SVGID_4_);}
	.st12{fill:url(#SVGID_5_);}
	.st13{fill:url(#SVGID_6_);}
	.st14{fill:url(#SVGID_7_);}
	.st15{fill:url(#SVGID_8_);}
	.st16{fill:url(#SVGID_9_);}
	.st17{fill:url(#SVGID_10_);}
	.st18{fill:url(#SVGID_11_);}
	.st19{fill:url(#SVGID_12_);}
	.st20{fill:url(#SVGID_13_);}
	.st21{fill:url(#SVGID_14_);}
	.st22{fill:url(#SVGID_15_);}
	.st23{fill:url(#SVGID_16_);}
	.st24{fill:url(#SVGID_17_);}
	.st25{fill:url(#SVGID_18_);}
	.st26{fill:url(#SVGID_19_);}
	.st27{fill:url(#SVGID_20_);}
	.st28{fill:url(#SVGID_21_);}
	.st29{fill:url(#SVGID_22_);}
	.st30{fill:url(#SVGID_23_);}
	.st31{fill:url(#SVGID_24_);}
	.st32{fill:url(#SVGID_25_);}
	.st33{fill:url(#SVGID_26_);}
	.st34{fill:url(#SVGID_27_);}
	.st35{fill:url(#SVGID_28_);}
	.st36{fill:url(#SVGID_29_);}
	.st37{fill:url(#SVGID_30_);}
	.st38{fill:url(#SVGID_31_);}
	.st39{fill:url(#SVGID_32_);}
	.st40{fill:url(#SVGID_33_);}
	.st41{fill:url(#SVGID_34_);}
	.st42{fill:url(#SVGID_35_);}
	.st43{fill:url(#SVGID_36_);}
	.st44{fill:url(#SVGID_37_);}
	.st45{fill:url(#SVGID_38_);}
	.st46{fill:url(#SVGID_39_);}
	.st47{fill:url(#SVGID_40_);}
	.st48{fill:url(#SVGID_41_);}
	.st49{fill:url(#SVGID_42_);}
	.st50{fill:url(#SVGID_43_);}
	.st51{fill:url(#SVGID_44_);}
	.st52{fill:url(#SVGID_45_);}
	.st53{fill:#040404;}
	.st54{fill:url(#SVGID_46_);}
	.st55{fill:url(#SVGID_47_);}
	.st56{fill:url(#SVGID_48_);}
	.st57{fill:url(#SVGID_49_);}
	.st58{fill:url(#SVGID_50_);}
	.st59{fill:url(#SVGID_51_);}
	.st60{fill:url(#SVGID_52_);}
	.st61{fill:url(#SVGID_53_);}
	.st62{fill:url(#SVGID_54_);}
	.st63{fill:url(#SVGID_55_);}
	.st64{fill:url(#SVGID_56_);}
	.st65{fill:url(#SVGID_57_);}
	.st66{fill:url(#SVGID_58_);}
	.st67{fill:url(#SVGID_59_);}
	.st68{fill:url(#SVGID_60_);}
	.st69{fill:url(#SVGID_61_);}
	.st70{fill:url(#SVGID_62_);}
	.st71{fill:none;stroke:#000000;stroke-width:3;stroke-miterlimit:10;}
	.st72{fill:none;stroke:#FFFFFF;stroke-miterlimit:10;}
	.st73{fill:#4BC9FF;}
	.st74{fill:#5500DD;}
	.st75{fill:#FF3A00;}
	.st76{fill:#FFC794;}
	.st77{fill:#F1F1F1;}
	.st78{fill:#EB4E00;}
	.st79{fill:#E6162D;}
	.st80{fill:#FF9933;}
	.st81{fill:#B92B27;}
	.st82{fill:#00ACED;}
	.st83{fill:#BD2125;}
	.st84{fill:#1877F2;}
	.st85{fill:#6665D2;}
	.st86{fill:#CE3056;}
	.st87{fill:#5BB381;}
	.st88{fill:#61C3EC;}
	.st89{fill:#E4B34B;}
	.st90{fill:#181EF2;}
	.st91{fill:#FF0000;}
	.st92{fill:#FE466C;}
	.st93{fill:#FA4778;}
	.st94{fill:#FF7700;}
	.st95{fill:#D95040;}
	.st96{fill:#58A55C;}
	.st97{fill:#4E86EC;}
	.st98{fill:#B6332A;}
	.st99{fill:#F3BD42;}
	.st100{fill-rule:evenodd;clip-rule:evenodd;fill:#1F6BF6;}
	.st101{fill:#520094;}
	.st102{fill:#4477E8;}
	.st103{fill:#3D1D1C;}
	.st104{fill:#FFE812;}
	.st105{fill:#344356;}
	.st106{fill:#00CC76;}
	.st107{fill-rule:evenodd;clip-rule:evenodd;fill:#345E90;}
	.st108{fill:#1F65D8;}
	.st109{fill:#EB3587;}
	.st110{fill-rule:evenodd;clip-rule:evenodd;fill:#603A88;}
	.st111{fill:#E3CE99;}
	.st112{fill:#783AF9;}
	.st113{fill:#FF515E;}
	.st114{fill:#FF4906;}
	.st115{fill:#503227;}
	.st116{fill:#4C7BD9;}
	.st117{fill:#69C9D0;}
	.st118{fill:#1B92D1;}
	.st119{fill:#EB4F4A;}
	.st120{fill:#513728;}
	.st121{fill:#FF6600;}
	.st122{fill-rule:evenodd;clip-rule:evenodd;fill:#B61438;}
	.st123{fill:#FFFC00;}
	.st124{fill:#141414;}
	.st125{fill:#94D137;}
	.st126{fill-rule:evenodd;clip-rule:evenodd;fill:#F1F1F1;}
	.st127{fill-rule:evenodd;clip-rule:evenodd;fill:#66E066;}
	.st128{fill:#464EB8;}
	.st129{fill:#7B83EB;}
	.st130{fill:#2D8CFF;}
	.st131{fill:#F1A300;}
	.st132{fill:#4BA2F2;}
	.st133{fill:#1A5099;}
	.st134{fill:#EE6060;}
	.st135{fill-rule:evenodd;clip-rule:evenodd;fill:#F48120;}
	.st136{fill:#222222;}
	.st137{fill:url(#SVGID_63_);}
	.st138{fill:#0077B5;}
	.st139{fill:#FFCC00;}
	.st140{fill:#EB3352;}
	.st141{fill:#F9D265;}
	.st142{fill:#F5B955;}
	.st143{fill:#DC322F;}
	.st144{fill:#4DA94C;}
	.st145{fill:#39802F;}
	.st146{fill:#F6BD41;}
	.st147{fill:#EB5141;}
	.st148{fill:#2165D6;}
	.st149{fill:#2F83F7;}
	.st150{fill:#DD2A7B;}
</style><g id="Layer_1"/><g id="Layer_2"><g><path class="st136" d="M86.651,90.298c-24.32,0.47-48.66,0.477-72.981,0.064c-7.856-0.134-11.753-7.153-7.834-14.148    c11.587-20.681,23.58-41.146,35.838-61.444c4.268-7.067,11.574-7.235,16.383-0.525c2.76,3.851,5.175,8.044,7.016,12.386    c0.227,0.535,0.164,1.192-0.036,1.905c-0.75,2.912-4.712,4.46-6.857,2.192c-2.816-3.727-4.992-7.929-8.276-13.367    C37.148,39.309,25.161,59.935,12.609,81.534h74.699c-5.707-9.846-10.83-18.685-16.562-28.573    c-3.054,5.197-5.313,9.724-8.28,13.737c-2.855,3.446-8.57-0.153-7.029-4.231c3.119-6.413,6.922-12.508,10.626-18.628    c2.72-4.493,6.214-4.929,9.01-0.349c6.682,10.944,13.325,21.937,19.334,33.249C97.876,83.272,94.092,90.155,86.651,90.298z"/><path d="M86.952,92.034c-24.288,0.468-49.09,0.481-73.573,0.064C4.423,92.11-0.276,83.351,4.243,75.68    c11.049-19.72,22.865-39.98,36.126-61.939c4.61-7.962,13.727-8.193,18.931-0.624c2.949,4.115,5.38,8.407,7.225,12.756    c1.83,5.079-5.842,9.896-9.443,5.572c-2.516-3.312-4.823-7.516-7.161-11.476c0,0-13.597,23.397-13.597,23.396    c-0.993,1.635-3.439,0.214-2.514-1.461c0,0,14.838-25.533,14.838-25.533c0.508-0.946,1.978-0.948,2.502-0.021    c0.986,1.633,1.874,3.156,2.709,4.59c1.933,3.316,3.601,6.181,5.544,8.751c2.052,1.566,4.702-0.691,4.446-2.683    c-1.762-4.153-4.087-8.257-6.912-12.198c-4.091-5.884-10.452-5.751-14.078,0.432C29.615,37.176,17.813,57.41,6.78,77.102    c-3.434,5.794-0.115,12.099,6.648,12.088c24.756,0.422,49.475,0.4,73.468-0.064c6.273,0.024,9.609-6.11,6.557-11.524    c-6-11.296-12.616-22.253-19.433-33.418c-3.234-5.29-5.74-1.282-7.876,2.463c-3.247,5.345-6.604,10.871-9.357,16.533    c-0.768,2.384,2.674,4.954,4.642,2.712c2.919-3.939,5.503-9.07,8.219-13.662c0.519-0.947,1.997-0.943,2.512,0.008    c0,0,16.685,28.785,16.685,28.785c0.578,0.926-0.178,2.211-1.258,2.183c0,0-14.671,0-14.671,0c-1.906-0.024-1.913-2.886,0-2.908    h12.147l-14.16-24.428c-2.307,4.035-4.537,8.244-7.174,11.8c-4.047,4.9-11.832-0.137-9.558-5.762    c3.185-6.544,7.052-12.742,10.768-18.883c3.514-5.633,8.093-5.839,11.562-0.356c6.841,11.204,13.482,22.203,19.52,33.571    C100.075,83.539,95.383,92.045,86.952,92.034z M31.312,49.097c-0.694-0.403-1.584-0.168-1.988,0.526L11.078,81.02    c-0.571,0.921,0.168,2.22,1.257,2.185c0,0,54.389,0,54.389,0c0.803,0,1.454-0.651,1.454-1.454c0-0.803-0.651-1.454-1.454-1.454    H14.862l16.977-29.213C32.242,50.391,32.006,49.5,31.312,49.097z"/></g></g></svg>