<?xml version="1.0" ?><svg style="enable-background:new 0 0 100 100;" version="1.1" viewBox="0 0 100 100" xml:space="preserve" xmlns="http://www.w3.org/2000/svg" xmlns:xlink="http://www.w3.org/1999/xlink"><style type="text/css">
	.st0{fill:#FFFFFF;}
	.st1{fill:#D43C89;}
	.st2{fill:#B2005F;}
	.st3{fill:none;stroke:#000000;stroke-width:3;stroke-linecap:round;stroke-linejoin:round;stroke-miterlimit:10;}
	
		.st4{fill-rule:evenodd;clip-rule:evenodd;fill:none;stroke:#000000;stroke-width:3;stroke-linecap:round;stroke-linejoin:round;stroke-miterlimit:10;}
	
		.st5{fill-rule:evenodd;clip-rule:evenodd;fill:none;stroke:#040404;stroke-width:3;stroke-linecap:round;stroke-linejoin:round;stroke-miterlimit:10;}
	.st6{fill-rule:evenodd;clip-rule:evenodd;}
	.st7{fill-rule:evenodd;clip-rule:evenodd;fill:#040404;}
	.st8{fill:url(#SVGID_1_);}
	.st9{fill:url(#SVGID_2_);}
	.st10{fill:url(#SVGID_3_);}
	.st11{fill:url(#SVGID_4_);}
	.st12{fill:url(#SVGID_5_);}
	.st13{fill:url(#SVGID_6_);}
	.st14{fill:url(#SVGID_7_);}
	.st15{fill:url(#SVGID_8_);}
	.st16{fill:url(#SVGID_9_);}
	.st17{fill:url(#SVGID_10_);}
	.st18{fill:url(#SVGID_11_);}
	.st19{fill:url(#SVGID_12_);}
	.st20{fill:url(#SVGID_13_);}
	.st21{fill:url(#SVGID_14_);}
	.st22{fill:url(#SVGID_15_);}
	.st23{fill:url(#SVGID_16_);}
	.st24{fill:url(#SVGID_17_);}
	.st25{fill:url(#SVGID_18_);}
	.st26{fill:url(#SVGID_19_);}
	.st27{fill:url(#SVGID_20_);}
	.st28{fill:url(#SVGID_21_);}
	.st29{fill:url(#SVGID_22_);}
	.st30{fill:url(#SVGID_23_);}
	.st31{fill:url(#SVGID_24_);}
	.st32{fill:url(#SVGID_25_);}
	.st33{fill:url(#SVGID_26_);}
	.st34{fill:url(#SVGID_27_);}
	.st35{fill:url(#SVGID_28_);}
	.st36{fill:url(#SVGID_29_);}
	.st37{fill:url(#SVGID_30_);}
	.st38{fill:url(#SVGID_31_);}
	.st39{fill:url(#SVGID_32_);}
	.st40{fill:url(#SVGID_33_);}
	.st41{fill:url(#SVGID_34_);}
	.st42{fill:url(#SVGID_35_);}
	.st43{fill:url(#SVGID_36_);}
	.st44{fill:url(#SVGID_37_);}
	.st45{fill:url(#SVGID_38_);}
	.st46{fill:url(#SVGID_39_);}
	.st47{fill:url(#SVGID_40_);}
	.st48{fill:url(#SVGID_41_);}
	.st49{fill:url(#SVGID_42_);}
	.st50{fill:url(#SVGID_43_);}
	.st51{fill:url(#SVGID_44_);}
	.st52{fill:url(#SVGID_45_);}
	.st53{fill:#040404;}
	.st54{fill:url(#SVGID_46_);}
	.st55{fill:url(#SVGID_47_);}
	.st56{fill:url(#SVGID_48_);}
	.st57{fill:url(#SVGID_49_);}
	.st58{fill:url(#SVGID_50_);}
	.st59{fill:url(#SVGID_51_);}
	.st60{fill:url(#SVGID_52_);}
	.st61{fill:url(#SVGID_53_);}
	.st62{fill:url(#SVGID_54_);}
	.st63{fill:url(#SVGID_55_);}
	.st64{fill:url(#SVGID_56_);}
	.st65{fill:url(#SVGID_57_);}
	.st66{fill:url(#SVGID_58_);}
	.st67{fill:url(#SVGID_59_);}
	.st68{fill:url(#SVGID_60_);}
	.st69{fill:url(#SVGID_61_);}
	.st70{fill:url(#SVGID_62_);}
	.st71{fill:none;stroke:#000000;stroke-width:3;stroke-miterlimit:10;}
	.st72{fill:none;stroke:#FFFFFF;stroke-miterlimit:10;}
	.st73{fill:#4BC9FF;}
	.st74{fill:#5500DD;}
	.st75{fill:#FF3A00;}
	.st76{fill:#FFC794;}
	.st77{fill:#F1F1F1;}
	.st78{fill:#EB4E00;}
	.st79{fill:#E6162D;}
	.st80{fill:#FF9933;}
	.st81{fill:#B92B27;}
	.st82{fill:#00ACED;}
	.st83{fill:#BD2125;}
	.st84{fill:#1877F2;}
	.st85{fill:#6665D2;}
	.st86{fill:#CE3056;}
	.st87{fill:#5BB381;}
	.st88{fill:#61C3EC;}
	.st89{fill:#E4B34B;}
	.st90{fill:#181EF2;}
	.st91{fill:#FF0000;}
	.st92{fill:#FE466C;}
	.st93{fill:#FA4778;}
	.st94{fill:#FF7700;}
	.st95{fill:#D95040;}
	.st96{fill:#58A55C;}
	.st97{fill:#4E86EC;}
	.st98{fill:#B6332A;}
	.st99{fill:#F3BD42;}
	.st100{fill-rule:evenodd;clip-rule:evenodd;fill:#1F6BF6;}
	.st101{fill:#520094;}
	.st102{fill:#4477E8;}
	.st103{fill:#3D1D1C;}
	.st104{fill:#FFE812;}
	.st105{fill:#344356;}
	.st106{fill:#00CC76;}
	.st107{fill-rule:evenodd;clip-rule:evenodd;fill:#345E90;}
	.st108{fill:#1F65D8;}
	.st109{fill:#EB3587;}
	.st110{fill-rule:evenodd;clip-rule:evenodd;fill:#603A88;}
	.st111{fill:#E3CE99;}
	.st112{fill:#783AF9;}
	.st113{fill:#FF515E;}
	.st114{fill:#FF4906;}
	.st115{fill:#503227;}
	.st116{fill:#4C7BD9;}
	.st117{fill:#69C9D0;}
	.st118{fill:#1B92D1;}
	.st119{fill:#EB4F4A;}
	.st120{fill:#513728;}
	.st121{fill:#FF6600;}
	.st122{fill-rule:evenodd;clip-rule:evenodd;fill:#B61438;}
	.st123{fill:#FFFC00;}
	.st124{fill:#141414;}
	.st125{fill:#94D137;}
	.st126{fill-rule:evenodd;clip-rule:evenodd;fill:#F1F1F1;}
	.st127{fill-rule:evenodd;clip-rule:evenodd;fill:#66E066;}
	.st128{fill:#464EB8;}
	.st129{fill:#7B83EB;}
	.st130{fill:#2D8CFF;}
	.st131{fill:#F1A300;}
	.st132{fill:#4BA2F2;}
	.st133{fill:#1A5099;}
	.st134{fill:#EE6060;}
	.st135{fill-rule:evenodd;clip-rule:evenodd;fill:#F48120;}
	.st136{fill:#222222;}
	.st137{fill:url(#SVGID_63_);}
	.st138{fill:#0077B5;}
	.st139{fill:#FFCC00;}
	.st140{fill:#EB3352;}
	.st141{fill:#F9D265;}
	.st142{fill:#F5B955;}
	.st143{fill:#DC322F;}
	.st144{fill:#4DA94C;}
	.st145{fill:#39802F;}
	.st146{fill:#F6BD41;}
	.st147{fill:#EB5141;}
	.st148{fill:#2165D6;}
	.st149{fill:#2F83F7;}
	.st150{fill:#DD2A7B;}
</style><g id="Layer_1"/><g id="Layer_2"><g><g><path class="st79" d="M73.397,48.549c-1.314-0.399-2.216-0.657-1.533-2.383c5.033-13.409-7.597-15.071-20.803-9.416     c0,0-2.989,1.301-2.216-1.056c1.456-4.702,1.237-8.631-1.03-10.91c-5.152-5.165-18.871,0.193-30.632,11.954     C8.385,45.535,3.271,54.874,3.271,62.95c0,15.432,19.799,24.822,39.159,24.822c25.389,0,42.277-14.749,42.277-26.458     C84.72,54.23,78.756,50.211,73.397,48.549z"/><path class="st77" d="M42.495,82.234c-15.458,1.533-28.803-5.462-29.807-15.599c-1.058-24.473,52.225-29.73,55.956-5.539     C69.661,71.246,57.939,80.714,42.495,82.234z"/><path class="st80" d="M89.926,20.589c-6.132-6.801-15.174-9.39-23.521-7.613c-1.932,0.412-3.156,2.319-2.744,4.238     c0.412,1.932,2.306,3.156,4.238,2.744c13.098-2.893,24.605,9.876,20.391,22.594c-1.338,4.509,5.24,6.64,6.801,2.203     C97.713,36.645,96.065,27.382,89.926,20.589z"/><path class="st80" d="M79.194,42.792c1.623,0.515,3.349-0.361,3.877-1.984c2.94-8.629-5.084-17.528-13.964-15.47     c-1.662,0.348-2.718,1.997-2.37,3.658c0.361,1.662,1.997,2.718,3.645,2.357c1.984-0.425,4.148,0.193,5.603,1.803     c1.456,1.623,1.855,3.826,1.224,5.758C76.695,40.525,77.571,42.264,79.194,42.792z"/><path d="M44.028,53.302c-7.355-1.919-15.664,1.752-18.858,8.231c-3.259,6.608-0.103,13.95,7.317,16.346     c7.703,2.486,16.772-1.327,19.927-8.45C55.531,62.448,51.64,55.273,44.028,53.302z M38.411,70.177     c-3.249,5.211-12.149,2.467-8.695-3.852C32.946,61.202,41.754,63.859,38.411,70.177z M43.345,63.865     c-1.113,2.019-4.608,1.073-3.349-1.34C41.114,60.541,44.531,61.445,43.345,63.865z"/></g><path d="M65.977,72.296c-5.411,6.881-17.14,11.354-27.581,11.204C3.726,82.957,1.92,49.131,38.854,44.221    c1.828-0.152,2.092,2.57,0.276,2.774C18.672,48.657,4.476,66.872,23.164,77.281c11.544,6.48,32.761,3.398,40.657-6.751    C72.982,58.653,61.6,47.924,45.9,46.889c-1.82-0.161-1.645-2.872,0.194-2.781C64.076,45.189,76.627,58.656,65.977,72.296z     M73.611,79.783c-33.379,23.381-100.237-1.55-57.006-43.813c9.376-9.22,24.269-18.695,32.23-11.806    c2.465,2.479,2.994,6.472,1.54,11.575c14.518-6.269,27.938-3.483,22.524,11.047c-0.253,0.423,0.234,0.328,0.633,0.506    C91.458,53.053,87.729,70.34,73.611,79.783z M72.706,49.955c-2.019-0.418-3.407-1.93-2.397-4.198    c4.575-11.859-6.657-12.488-18.715-7.503c-1.734,0.905-5.06,0.648-4.052-2.763c1.844-6.258,0.889-10.783-5.157-10.892    C28.522,24.436,4.31,48.619,5.242,62.85c0,11.367,13.947,23.125,37.287,23.125C72.843,86.955,97.741,59.055,72.706,49.955z     M96.203,45.02c-2.223,6.137-11.173,3.182-9.371-3.032c3.821-11.544-6.633-23.147-18.526-20.528    c-6.407,1.154-8.368-8.07-2.056-9.623C85.457,7.595,102.391,26.362,96.203,45.02z M66.831,14.564    c-2.725,0.658-1.88,4.684,0.895,4.17c13.75-3.198,26.364,10.704,21.759,24.11c-0.794,2.711,3.156,3.959,4.067,1.304    C99.073,27.516,83.955,10.779,66.831,14.564z M75.837,38.452c1.117-3.105-1.908-6.475-5.124-5.681    c-1.142,0.249-2.321,0.037-3.315-0.6c-3.318-2.024-2.318-7.355,1.477-8.069c9.827-2.232,18.614,7.511,15.405,17.074    C82.243,46.715,74.247,44.06,75.837,38.452z M78.49,39.31c-0.616,2.065,2.435,3.064,3.139,1.006    c2.56-7.511-4.446-15.283-12.173-13.487c-1.404,0.248-1.782,2.259-0.551,2.996c0.831,0.561,1.824-0.022,2.73,0.061    C76.368,29.736,80.087,34.85,78.49,39.31z M53.656,59.173c4.845,10.172-5.612,20.927-16.031,20.584    c-10.197,0.238-18.21-9.253-13.395-18.923C29.309,49.902,47.918,47.553,53.656,59.173z M26.73,62.066    c-2.963,5.787,0.193,12.342,6.405,14.204c9.564,3.438,22.479-5.802,18.01-15.888c-1.33-2.761-4.024-4.844-7.389-5.715    C37.264,52.933,29.617,56.141,26.73,62.066z"/></g></g></svg>