<?xml version="1.0" ?><svg enable-background="new 0 0 500 500" id="Layer_1" version="1.1" viewBox="0 0 500 500" xml:space="preserve" xmlns="http://www.w3.org/2000/svg" xmlns:xlink="http://www.w3.org/1999/xlink"><g><path d="M372.333,371.429c-2.201-92.721-5.391-185.416-8.94-278.094c0.841-36.972-20.832-35.232-50.283-34.592   c-55.875,1.583-112.144,0.329-167.795,4.302c-19.853,5.388-18.538,28.557-18.048,45.047c-0.077,42.148,4.612,198.307,6.128,242.477   c2.826,20.803-3.869,65.99,8.859,80.038c10.227,12.777,27.957,9.834,42.521,10.667c51.167,0.414,102.346,0.24,153.507-0.664   C381.967,444.794,371.689,400.259,372.333,371.429z" fill="#3F3756"/><path d="M145.045,428.396c12.826,20.486,204.43,8.482,212.499,6.654c10.248-5.619,9.1-14.924,12.001-36.688   c-0.242-101.222-6.903-229.218-10.996-317.135c-2.504-8.615-5.504-17.115-20.504-18.365s-183.871,0.886-195.174,5.75   c-11.303,4.864-13.826,22.25-13.076,34c1.278,20.02,6.75,251.508,6.75,265.75C136.545,380.862,135.502,421.929,145.045,428.396z" fill="#AAA169"/><path d="M366.349,394.277c-3.354-70.905-5.614-141.875-7.957-212.827c-0.738-23.149-1.202-46.302-1.936-69.45   c-0.845-32.809,3.555-47.958-36.376-46.538c-1.04,2.725,2.203,11.025-1.344,11.764c-2.712-0.688-8.614,1.555-9.764-1.329   c0.213-3.271-1.795-7.169,0.152-10.048c-5.021,0.283-10.18-0.131-15.131,0.557c1.072,0.92,2.714,0.44,4.021,0.519   c3.664-0.046,1.627,5.633,2.396,7.965c1.181,4.334-4.309,1.043-6.124,2.882c1.694,1.672,4.609,0.329,6.803,0.736l1.176,203.174   c-47.508,0.841-95.858,6.488-142.955,4.039c6.29,9.823,37.982,3.692,49.337,3.628c30.585-1.712,61.261-2.248,91.907-2.405   c2.794-0.155,2.013,2.644,2.157,4.415c2.237,25.326,3.139,50.71,5.429,76.009c0.588,20.627,5.504,42.506,0.165,62.631   c-2.497,6.154-12.106,1.267-17.159,3.23c17.876,0.181,35.755-0.715,53.631,0.07C364.987,433.168,366.96,409.496,366.349,394.277z    M319.833,280.762c-5.687,0.279-11.369,0.64-17.057,0.898l7.112-0.364l-0.903-202.784c3.884,0.002,7.769,0.014,11.653,0.006   L319.833,280.762z" fill="#8E8349"/><path d="M141.092,94.504c-2.282,62.329,3.456,124.98,2.989,187.35c0.928,32.076,0.971,64.234,1.595,96.271   c0.929,19.443-3.318,42.184,10.388,57.787c-9.533-2.867-16.316-11.639-14.568-21.738c-0.043-14.027-0.784-28.036-1.045-42.059   c-1.157-51.369-2.628-102.732-4.258-154.088c-1.02-31.274-1.923-62.553-3.261-93.815c0.102-15.539-3.371-32.235,3.073-46.893   c6.887-13.219,24.492-7.159,36.575-8.821c38.405-0.8,76.828-2.148,115.203-2.981c-30.689,6.253-64.52,3.233-96.287,4.848   c-13.587,0.57-27.343,0.708-40.617,3.989C143.476,77.833,143.184,87.776,141.092,94.504z" fill="#BCB483"/><path d="M157.376,282.807c21.941,7.398,178.281-6.72,185.668-4.859c0.001-0.004,6.668-1.336,7.668-10.919   c1-9.583-3.667-165.537-3.667-165.537c-1.027-20.675-10.379-21.676-29.938-21.629c-4.624-0.001-143.473,1.462-152.851,1.731   c-26.614,1.264-19.214,26.785-18.835,40.234c1.184,33.168,3.828,99.901,5.413,133.035   C150.833,254.862,150.706,278.877,157.376,282.807z" fill="#EDD6B2"/><path d="M300.717,79.681c0.953,12.304-2.21,181.872,1.24,200.145l9.086-0.415   c-0.358-26.51-4.27-169.09-2.053-199.549L300.717,79.681z" fill="#E5C597"/><path d="M320.638,79.862c-0.364,24.694-2.452,173.8-3.084,199.963c0,0,27.959-0.352,31.126-7.027s0-79.686,0-79.686   l-2.069-97.699c0,0-1.19-8.884-6.002-11.926C335.795,80.446,320.638,79.862,320.638,79.862z" fill="#E5C597"/><path d="M274.379,154.696c3.589-25.962-5.055-12.43-9.251-30.736c-2.615-26.709,36.422-37.69,51.419-19.098   c12.508,21.143-7.343,38.749-27.085,38.084C289.462,142.946,274.344,156.045,274.379,154.696z" fill="#DAB983"/><polygon fill="#CAA064" points="300.712,95.969 300.685,141.389 308.129,137.93 308.596,98.389  "/><path d="M294.511,131.3c-21.433-6.118-11.783-27.081,0.847-13.562C304.749,104.498,316.786,121.502,294.511,131.3z" fill="#D86458"/><path d="M301.134,127.425c-0.304-4.592,0.345-9.161,0.327-13.746C311.341,112.435,305.887,124.367,301.134,127.425z   " fill="#C8453A"/><path d="M175.045,285.352c0,0-9.174,0.932-12.92-11.112c-3.746-12.044-8.761-118.41-8.754-132.56   c0.007-14.15-4.382-45.983,3.729-49.983s154.945-7.365,169.695-5.349c14.75,2.016,19.815,11.282,19.815,11.282   s-0.399-12.566-9.94-15.874s-43.509-1.664-43.509-1.664c-14.463,2.451-133.442-4.093-142.615,6.253   c-5.689,5.832-6.244,10.457-6.123,20.582c0.762,35.929,2.959,72.922,4.493,104.353c2.074,13.892-1.234,57.543,7.133,70.393   C159.929,285.991,175.045,285.352,175.045,285.352z" fill="#F1DFC3"/><path d="M372.333,371.429c-2.201-92.721-5.391-185.416-8.94-278.094c0.841-36.972-20.832-35.232-50.283-34.592   c-55.875,1.583-112.144,0.329-167.795,4.302c-19.853,5.388-18.538,28.557-18.048,45.047c-0.077,42.148,4.612,198.307,6.128,242.477   c2.826,20.803-3.869,65.99,8.859,80.038c10.227,12.777,27.957,9.834,42.521,10.667c51.167,0.414,102.346,0.24,153.507-0.664   C381.967,444.794,371.689,400.259,372.333,371.429z M316.193,433.039c-19.6,0.371-97.306,0.395-136.771,1.951   c-13.79,0.243-34.726-0.993-36.253-18.544c-1.856-129.91-9.107-296.64-8.89-322.882c0.678-27.842,18.623-23.468,39.737-23.942   c17.014-0.379,124.391-3.17,135.108-3.773h0c0,0,0,0,0,0c17.247-0.244,46.347-4.518,46.63,20.484   c2.129,78.985,3.795,143.636,9.378,282.167C366.406,450.888,359.019,427.979,316.193,433.039z" fill="#3F3756"/><path d="M142.965,95.414c0,0,0-0.001,0-0.001l-0.09-0.072c-0.001,0.01-0.002,0.021-0.004,0.031   C142.903,95.382,142.935,95.393,142.965,95.414z" fill="#3F3756"/><path d="M232.181,409.809c-11.394,0.376-14.922-48.608-3.99-50.218c9.11-2.34,64.829-12.05,66.71-1.598   c3.561,11.172,11.631,41.288-4.317,45.383C271.479,406.886,251.551,410.347,232.181,409.809z" fill="#8E8349"/><path d="M315.677,428.244c5.501-34.014-2.357-69.203-2.064-103.607c-0.528-12.245-1.816-24.455-2.569-36.656   c0.014-0.943,0.263-1.357,1.277-1.322c2.005,0.589,6.247-1.312,6.82,1.243c0.567,16.436,0.657,32.878,1.623,49.31   c0.101,24.476,10.423,71.99-4.781,91.184C315.88,428.345,315.779,428.295,315.677,428.244z" fill="#AAA169"/><path d="M295.256,394.505c-3.698,9.077-52.3,10.287-63.627,11.576c-9.548,1.981-13.874-46.336-4.576-46.391   c19.768-2.963,39.867-6.177,59.908-5.566c6.747-0.07,5.661,8.253,6.947,12.999C294.496,376.155,297.033,385.572,295.256,394.505z" fill="#EDD6B2"/><path d="M245.755,375.497c-0.34-3.154-0.002-6.945,4.162-5.184c3.061,2.283,34.092,5.666,23.875,10.904   c-26.178,11.391-27.981,25.204-27.984-5.718C245.79,375.498,245.772,375.498,245.755,375.497z" fill="#3F3756"/><path d="M274.061,378.901c-7.966,4.245-15.677,8.133-23.625,12.272c-3.542,1.77-1.882-5.391-2.288-7.307   c0.706-1.864-1.478-12.883,0.566-11.689C257.022,375.015,265.741,376.218,274.061,378.901z" fill="#D86458"/><path d="M274.587,377.163c-8.116-2.596-16.54-4.244-24.67-6.851c-4.15-1.754-4.517,2.024-4.162,5.185   c0.018,0,0.035,0.001,0.053,0.001c1.417,4.575-2.888,24.143,6.174,17.523C254.417,390.263,282.108,379.983,274.587,377.163z    M265.32,382.932c-19.829,9.446-15.817,13.362-16.982-9.142c-0.132-0.796,0.006-1.123,0.878-0.843   c7.644,2.612,15.668,3.718,23.324,6.188C270.018,380.463,267.677,381.712,265.32,382.932z" fill="#3F3756"/><path d="M297.939,380.086c-2.134-8.763-0.184-28.187-12.423-28.466c-11.195,0.504-62.059,0.079-64.233,11.548   c-1.816,10.595-3.826,45.811,11.919,45.195c13.841-0.42,27.603-2.647,41.357-4.22C291.839,402.45,299.989,399.422,297.939,380.086z    M294.013,390.498c-0.707,8.71-11.653,8.128-18.135,9.632c-14.525,1.883-29.092,3.982-43.738,4.482   c-9.152,1.899-13.292-44.404-4.385-44.454c18.944-2.839,38.204-5.919,57.409-5.334c3.489,0.363,4.296,0.971,5.116,4.429   C292.249,369.584,295.376,379.855,294.013,390.498z" fill="#3F3756"/><path d="M319.349,106.366c-10.344-18.532-41.041-14.953-51.508,2.037c-6.57,10.014-4.64,21.87,3.908,28.882   c1.676,1.375,2.154,3.29,2.077,5.327c0.454,3.94-1.812,11.329,0.064,14.237c5.49-3.349,10.947-9.302,16.989-12.38   C310.158,146.017,330.335,125.023,319.349,106.366z M314.072,130.715c-1.456,1.703-2.974,3.361-4.891,4.582c0,0,0,0,0,0   c-2.627,2.039-5.44,3.716-8.728,4.465c0,0,0,0,0,0c-2.866,1.334-5.961,1.639-9.043,1.882c-6.29,1.834-10.279,7.966-16.124,11.721   c-0.003-6.49,2.966-12.916-2.44-17.908c-19.019-18.185,6.862-43.628,28.136-38.016C316.474,99.768,325.274,118.097,314.072,130.715   z" fill="#3F3756"/><path d="M266.782,195.818c-1.65,0.848-2.676,2.246-3.434,3.956c-3.09-3.623-10.009-3.151-9.901,2.486   c0.074,4.846,9.257,11.242,13.508,9.228C272.66,208.386,277.685,192.519,266.782,195.818z M270.461,199.885   c-0.487,2.976-2.912,10.424-6.476,9.763c-3.183-1.333-6.481-3.293-8.017-6.499c-1.374-3.531,3.715-4.373,5.349-1.745   c0.794,0.849,1.53,2.231,2.595,2.212c1.452-0.026,0.985-1.847,1.554-2.789C266.153,198.798,270.655,196.101,270.461,199.885z" fill="#3F3756"/><path d="M303.972,111.872c-3.607-0.621-6.808,1.095-8.964,4.323c-9.739-11.721-21.611,6.001-8.66,12.572   C299.069,140.175,317.268,115.917,303.972,111.872z M306.02,119.194c-1.558,5.141-6.069,8.737-10.715,11.034   c-4.071-0.504-8.301-2.815-10.985-6.158c-5.082-5.378,3.17-13.843,8.142-7.425c3.559,5.831,4.722-1.95,8.944-2.225c0,0,0,0,0,0   C304.722,113.868,307.205,115.68,306.02,119.194z" fill="#3F3756"/><path d="M219.002,204.122c-2.967-22.927,23.73-12.711,21.607-30.196c-0.808-5.119-6.454-8.258-8.75-12.939   c-10.721-12.001,4.755-32.385,18.462-25.18c7.728,4.276,12.918,16.612,9.6,24.493c-1.686,5.54-8.198,9.241-7.572,15.312   c0.864,8.521,12.151,6.668,17.999,10.012c13.592,4.423,11.7,48.122,14.314,61.565c0.594,6.458,0.768,12.295,1.301,18.757   c0.404,4.899,1.87,4.613-3.215,4.944c-19.163,1.193-38.396,1.589-57.5,3.611c-2.373-0.122-0.995-8.254-1.684-10.377   C223.059,244.191,219.079,223.945,219.002,204.122z" fill="#DAB983"/><path d="M189.044,122.112c-10.621,0-17.889-0.027-25.156,0.028c-2.944,0.051-1.652-4.671-2.04-6.629   c1.182-3.089,14.768-1.504,18.536-2.356c16.698-0.74,33.401-0.363,50.102-0.405c2.641,0.179,1.599,4.953,2.059,6.944   c-0.064,3.084-9.153,1.343-11.718,2.035C209.114,121.696,197.406,122.381,189.044,122.112z" fill="#DAB983"/><path d="M212.468,141.247c-0.004,1.563,0.33,3.713-1.809,3.618c-9.028,0.329-18.057,0.649-27.078,1.162   c-5.647,0.322-11.317,0.263-16.939,1.033c-1.679,0.23-2.21-0.46-2.285-2.239c0.417-2.483-2.375-7.809,1.35-8.256   c14.938-1.017,30.001,0.832,44.844-1.395C213.057,134.904,212.155,139.537,212.468,141.247z" fill="#DAB983"/><path d="M202.635,251.385c0.923,0.102,4.91-0.255,5.411,1.351c-0.328,2.913,2.208,8.619-1.245,9.946   c-11.76,1.711-23.647,2.157-35.471,3.229c-3.667,0.32-3.746,0.348-4.21-3.234c0.36-2.679-2.98-8.526,0.881-9.139   C179.858,252.842,190.559,252.196,202.635,251.385z" fill="#DAB983"/><path d="M189.128,196.402c2.52,0.348,17.15-2.022,16.982,0.694c-0.489,3.059,2.668,9.494-1.356,10.581   c-12.372,0.996-24.816,0.362-37.219,0.545c-2.576-0.001-2.545-0.054-2.725-2.769c0.367-2.468-2.447-8.03,1.38-8.175   C173.899,196.713,181.199,196.321,189.128,196.402z" fill="#DAB983"/><path d="M202.254,159.343c6.99-0.793,5.709,1.459,5.903,7.265c0.789,4.452-34.501,2.947-39.809,3.807   c-3.478,0.014-3.481-0.006-3.551-3.987c0.319-1.755-1.117-5.359,1.625-5.316C178.366,160.556,190.31,159.899,202.254,159.343z" fill="#DAB983"/><path d="M172.624,236.45c-9.268,1.049-6.657-2.293-7.105-9.47c-0.03-0.867,0.335-1.223,1.18-1.216   c11.003-0.011,21.992-0.523,32.976-1.101c3.737-0.099,4.738-0.367,4.655,3.71c-0.061,1.981,1.489,5.791-1.492,6.192   C192.802,235.632,182.723,236.359,172.624,236.45z" fill="#DAB983"/><path d="M167.991,83.845c-0.232,0.057-0.464,0.097-0.697,0.137C167.529,83.972,167.763,83.944,167.991,83.845z" fill="#3F3756"/><path d="M351.644,234.007c-0.441-37.053-1.484-74.109-2.204-111.195c1.01-53.676-10.436-43.677-55.113-45.073   c-40.099,0.35-80.229-0.114-120.291,1.548c-17.814-0.435-34.511,4.982-30.879,26.39c0.652,46.695,3.838,93.29,5.47,139.95   c0.694,44.68,5.671,43.29,47.626,40.798c40.682-1.644,81.373-3.12,122.037-5.157c9.416-1.727,20.955,1.845,28.993-3.986   C355.908,267.275,350.623,246.861,351.644,234.007z M348.671,264.822c-0.734,17.393-23.027,10.761-34.696,12.485h0   c-5.256,0.107-10.493,0.631-15.755,0.637c-44.259,1.712-88.679,5.039-132.864,5.875c0,0,0,0,0,0   c-1.111,0.053-2.179-0.086-3.139-0.707c0,0,0,0,0,0c-2.204-0.595-4.144-2.059-5.443-3.838c-6.674-17.424-3.402-39.401-5.206-58.102   c-2.214-34.657-3.592-69.459-4.76-104.202c-0.272-6.747,0.017-13.489,0.012-20.234c2.484-18.58,31.276-11.73,44.639-13.851   c39.849-0.953,79.714-1.098,119.602-1.291c12.059-0.426,30.394-3.288,32.855,12.769c0,0,0,0,0,0c0,0,0,0,0,0   C348.256,150.724,347.042,208.166,348.671,264.822z" fill="#3F3756"/><path d="M287.338,267.382c-1.852-18.271-2.442-36.637-4.571-54.883c-2.365-18.984-4.148-30.361-25.446-33.68   c-10.324-4.706,13.219-15.281,1.928-35.845c-13.957-25.426-45.9,4.594-28.222,21.205c3.431,3.862,8.202,6.82,7.523,12.679   c-1.283,8.949-15.354,6.309-18.766,14.517c-5.053,10.748-1.443,23.277-1.165,34.683c1.661,15.604,2.067,31.302,3.619,46.905   c0.277,2.151,0.787,2.535,2.915,2.455c14.234-0.536,28.47-1.037,42.702-1.632C273.302,272.497,288.373,275.907,287.338,267.382z    M280.013,269.263c-17.827,1.161-35.723,1.546-53.491,3.515c-2.242-0.229-0.906-8.006-1.567-10.101   c-0.469-19.404-4.171-39.113-4.243-58.406c-1.937-11.832,6.872-16.018,16.138-19.902c3.834-1.87,5.223-4.653,4.98-10.526   c-0.111-5.439-5.46-8.143-8.291-12.18c-10.105-11.507,3.189-30.749,16.308-23.89c7.189,4.163,11.182,15.591,8.095,23.262   c-3.49,6.156-13.02,16.707-2.302,21.145c6.89,2.694,17.061,2.74,19.395,11.241c4.468,17.217,5.08,35.133,6.757,52.772   c0.554,6.286,1.249,12.56,1.744,18.85C283.912,269.812,284.744,268.941,280.013,269.263z" fill="#3F3756"/><path d="M233.226,114.277c-1.782-4.148-12.665-1.845-16.848-2.694c-17.992-0.324-35.982-0.241-53.941,1.122   c-4.696,0.288-2.417,6.65-1.934,9.612c0.307,1.191,1.007,1.695,2.192,1.641c10.323-0.475,20.671-0.118,31.004-0.221   c0-0.023,0-0.047,0-0.071c12.51-0.336,25.102,0.891,37.533-0.889C234.769,122.168,233.275,116.894,233.226,114.277z    M230.355,121.051c-22.424,0.922-46.823,0.685-66.492,0.75c-2.802,0.144-1.679-3.933-2.015-5.73   c20.679-4.696,45.699-1.412,67.781-2.389C231.705,112.786,232.653,121.802,230.355,121.051z" fill="#3F3756"/><path d="M213.956,138.498c-0.353-3.912-0.654-4.17-4.592-4.12c-6.196,0.385-12.414,0.109-18.335,0.197   c-5.143,0.788-29.133-2.433-28.872,3.249c0.329,2.99-0.727,9.737,3.303,10.017c14.639-0.734,29.311-0.662,43.961-1.07   C214.712,147.566,214.658,142.275,213.956,138.498z M212.05,142.437c0.421,3.934-23.959,1.611-28.389,2.841   c-3.294-0.754-19.903,2.952-18.891-1.041c0.35-2.24-2.253-6.854,1.327-7.119c9.628-0.421,19.258-0.216,28.886-0.285   c5.077-0.036,10.153-0.066,15.179-0.919C212.849,135.801,211.717,140.591,212.05,142.437z" fill="#403856"/><path d="M209.189,251.412c-0.187-1.187-1.073-1.787-2.22-1.581c-13.043,0.545-26.242,0.514-39.222,2.406   c-5.323,0.907-1.476,8.235-1.76,11.825c0.214,2.583,0.254,3.747,4.352,3.484c12.066-0.778,24.153-1.272,36.165-2.711   C211.797,263.726,209.064,255.404,209.189,251.412z M207.067,261.135c-0.115,0.965-0.529,1.34-1.495,1.486   c-11.216,1.632-22.555,2.058-33.833,3.08c-3.498,0.305-3.573,0.332-4.015-3.084c0.343-2.556-2.843-8.132,0.841-8.717   c12.693-0.264,24.381-2.485,37.268-1.633C207.922,253.633,206.877,258.642,207.067,261.135z" fill="#3F3756"/><path d="M208.324,197.343c0.507-4.597-17.933-1.303-21.836-2.243c0-0.032,0-0.064,0-0.097   c-6.582-0.023-13.163,0.061-19.738,0.393c-6.425-0.236-3.43,7.065-3.357,11.04c0.378,2.736,0.833,3.082,3.638,3.084   c12.67-0.179,25.372-0.221,38.028-0.492C210.642,208.315,207.972,201.193,208.324,197.343z M204.187,207.072   c-12.013,0.889-24.085,0.323-36.124,0.486c-4.249,0.664-2.199-4.82-3.157-7.413c-2.94-5.045,34.565-2.512,39.405-3.602   c0.935-0.035,1.171,0.162,1.193,1.087C205.074,200.396,208.032,206.22,204.187,207.072z" fill="#3F3756"/><path d="M209.072,159.117c-1.474-2.315-5.533-0.32-7.946-0.786c-6.138,1.328-37.319-1.538-37.734,3.543   c-0.429,7.876-0.502,10.674,8.311,9.696c0.001,0.035,0.003,0.07,0.004,0.104c10.958-0.467,21.922-0.833,32.872-1.452   C211.443,170.895,209.621,163.645,209.072,159.117z M205.91,168.07c-12.309,0.793-24.673,1.377-37.03,1.56   c-4.774,0.807-3.106-3.115-3.48-6.355c-0.095-1.215,0.312-1.698,1.611-1.73c11.593-0.483,23.186-1.055,34.779-1.538   c1.691,0.435,5.029-1.114,5.471,1.19C207.111,163.309,208.85,167.533,205.91,168.07z" fill="#3F3756"/><path d="M205.749,225.206c1.629-4.756-33.423-0.34-38.448-1.277c-5.508,0.087-2.521,8.06-2.566,11.563   c0.831,5.039,9.29,1.739,13.033,2.63c0-0.113,0.001-0.225,0.001-0.338c8.236,0.138,16.482-0.203,24.659-1.229   C207.898,235.939,205.577,228.972,205.749,225.206z M203.652,232.472c-0.994,4.555-30.018,3.128-35.654,3.714   c-2.972-1.032-1.045-6.458-1.636-9.04c0.032-2.09,3.144-0.838,4.5-1.19c9.583-0.061,19.151-0.57,28.719-1.05   C204.895,223.952,203.06,229.01,203.652,232.472z" fill="#3F3756"/><path d="M265.17,211.196c-17.154-5.684-10.882-18.864-1.542-9.167C270.19,188.211,277.325,203.45,265.17,211.196z" fill="#D86458"/><path d="M266.782,195.818c-1.65,0.848-2.676,2.245-3.434,3.956c-3.091-3.623-10.009-3.15-9.901,2.486   c0.074,4.846,9.258,11.242,13.508,9.227C272.659,208.386,277.685,192.518,266.782,195.818z M270.461,199.885   c-0.487,2.976-2.913,10.424-6.476,9.762c-3.183-1.333-6.482-3.292-8.017-6.499c-1.374-3.531,3.715-4.372,5.349-1.744   c0.794,0.849,1.53,2.231,2.595,2.212c1.452-0.026,0.985-1.847,1.554-2.789C266.153,198.798,270.655,196.101,270.461,199.885z" fill="#3F3756"/></g></svg>