<?xml version="1.0" ?><svg enable-background="new 0 0 500 500" id="Layer_1" version="1.1" viewBox="0 0 500 500" xml:space="preserve" xmlns="http://www.w3.org/2000/svg" xmlns:xlink="http://www.w3.org/1999/xlink"><g><path d="M459.082,294.919c-3.628-32.836-38.529-51.303-69.189-47.969c-2.152,0.183-2.15,0.224-1.641-1.915   c7.651-33.178-8.429-68.318-39.432-82.87c-26.022-13.067-42.585-6.638-67.32-0.646c-11.735-14.446-26.15-25.43-43.116-33.035   C167.571,92.855,82,156.529,92.113,233.899c0.058,0.511,0.155,0.967-0.607,0.979c-6.637,1.997-12.225,6.95-17.829,10.948   C20.38,284.655,31.94,363.745,98.541,378.31c47.193,7.305,95.456,0.166,143.039,1.74c50.585-0.651,102.172,4.531,152.088-5.174   C429.949,366.994,465.735,334.903,459.082,294.919z" fill="#58454D"/><path d="M92.671,237.51c-38.736,15.829-76.182,87.044-21.077,125.292c78.361,28.769,200.324,8.632,288.006,14.19   c24.983-0.216,62.35-12.272,78.012-28.869c45.532-48.765-0.416-106.68-53.88-97.842c0,0,9.851-38.972-9.652-60.839   c-19.503-21.867-38.619-33.536-65.6-30.731c-26.981,2.805-27.185,7.683-27.185,7.683C215.047,87.423,91.554,120.731,92.671,237.51z   " fill="#E67263"/><path d="M238.488,374.712c50.114-7.944,104.118-16.59,145.131-48.734c21.143-17.023,45.097-47.574,25.892-74.034   c60.903,12.196,56.692,84.337,6.221,108.779c-31.627,16.727-68.528,15.339-103.291,15.392   C287.811,375.938,263.03,375.771,238.488,374.712z" fill="#DA4F41"/><path d="M277.454,162.014c-30.956-15.589-56.503-28.434-92.122-17.03c-42.652,14.917-86.189,57.885-89.526,104.391   C82.801,140.569,201.95,81.28,277.454,162.014z" fill="#EC8E81"/><path d="M93.294,238.569c-56.814,34.819-22.693,126.006,36.168,136.839   C39.955,378.963,13.075,278.939,93.294,238.569z" fill="#DA4F41"/><path d="M380.635,262.429c-7.112-46.191-40.283-98.613-92.132-97.803   C350.259,139.626,403.507,203.479,380.635,262.429z" fill="#DA4F41"/><path d="M352.874,220.73c-0.019,1.435-0.808,4.128-2.446,4.105c-2.589-0.684-3.843,3.324-6.566,1.419   c-0.733-0.402-1.186-0.396-1.698,0.248c-1.966,1.936-5.828,1.588-7.826,3.198c-2.527,2.013-5.324,0.582-6.167-1.937   c-0.283-4.005-7.564-13.607-1.403-14.963c1.499-0.085,2.758-1.511,4.253-0.584c0.87,0.443,1.688-0.02,2.525,0.009   c1.933,0.067,3.844,0.813,5.756-0.507c0.72-0.498,1.996-0.15,2.879,0.425c0.648,0.422,0.907,0.351,1.271-0.378   C348.469,204.676,352.785,216.213,352.874,220.73z" fill="#EC8E81"/><path d="M305.813,223.98c-0.28-4.138,4.657-2.48,6.919-4.472c4.514-2.392,6.249,5.297,5.037,8.533   c-0.993,3.093-4.585,1.6-6.703,3.134C307.507,233.216,306.142,226.207,305.813,223.98z" fill="#EC8E81"/><path d="M294.722,285.127c-0.919-1.1-2.343-1.057-3.715-0.9c-6.592,1.028-13.19-0.541-19.788,0.42   c-3.771,0.295-0.82-9.874-1.813-12.66c-2.305-18.145,0.351-36.942-3.114-54.768c-0.109-2.32-12.583-0.647-13.808-1.133   c1.344,2.563-4.103,128.842-0.152,130.102c6.681-0.528,16.278-21.118,22.028-26.707c7.334-9.782,13.703-20.252,19.99-30.728   C295.003,287.641,295.708,286.308,294.722,285.127z" fill="#EC8E81"/><path d="M252.124,340.373c1.276-1.718,0.849-2.668-1.231-4.586c-12.594-12.355-24.294-25.713-36.798-38.083   c-3.839-3.598,7.35-2.294,9.124-3.26c1.619-0.416,3.292,0.007,4.924-0.492c0.709-0.217,1.744-0.458,2.352,0.501   c-1.777,0.825-19.91,0.442-15.608,3.003c10.679,10.766,20.982,21.898,31.576,32.741c1.825,3.336,9.979,7.06,6.191,10.804   C252.477,340.792,252.3,340.582,252.124,340.373z" fill="#E4C39E"/><path d="M230.786,294.452c0.7-0.657,1.377-1.491,2.307-0.285C232.366,294.604,231.563,294.421,230.786,294.452z" fill="#E4C39E"/><path d="M230.786,219.015l1.154,70.305l-27.768,1.921l49.182,52.598l37.989-55.848l-26.004,0.148l-2.955-71.066   C262.384,217.072,231.84,214.901,230.786,219.015z" fill="#EDD5B8"/><path d="M247.776,216.506c0,0-9.975,3.642-10.907,5.65s2.398,68.688,0.733,71.398   c-1.665,2.71-24.899-0.204-24.363,2.583c0.536,2.787,42.045,44.864,42.045,44.864l-1.931,2.838l-49.182-52.598l27.768-1.921   l-1.154-70.305C230.786,219.015,241.589,215.35,247.776,216.506z" fill="#E4C29C"/><path d="M244.635,218.847c-0.132,0.05-0.266,0.089-0.399,0.134C244.377,218.969,244.514,218.944,244.635,218.847z" fill="#58454D"/><path d="M290.844,285.938c-4.22-0.86-22.182,2.362-23.478-0.33c-2.214-22.718,0.872-47.026-3.417-69.055   c-9.851-2.693-21.127-1.546-31.432-1.435c-2.761,0.177-3.44,0.927-3.467,3.574c-1.276,22.788,3.161,47.763,0.655,69.592   c-3.596,0.785-30.988-1.493-26.335,4.463c15.477,17.354,31.952,33.81,47.64,50.978c4.12,5.2,9.163-8.941,12.037-11.322   C265.208,326.919,299.664,285.631,290.844,285.938z M286.77,291.808c-11.317,16.186-22.212,32.66-33.272,49.02   c-0.498,1.265-0.825-0.098-1.374-0.455c-15.243-15.67-30.487-31.362-45.477-47.261c4.762-1.758,28.43,0.684,28.092-5.029   c-1.171-19.87-1.139-39.782-1.702-59.675c0.651-2.448-2.192-9.379,0.785-9.749c8.899,0.3,17.781-0.092,26.668-0.186   c0.918-0.041,0.86,0.489,0.844,1.096c-0.178,6.59,0.174,13.171,0.366,19.754c0.648,16.364,0.721,32.808,1.67,49.117   c2.473,4.311,19.62,0.052,25.133,0.922C287.854,290.277,287.309,291.041,286.77,291.808z" fill="#58454D"/><path d="M459.082,294.919c-3.628-32.836-38.529-51.303-69.189-47.969c-2.152,0.183-2.15,0.224-1.641-1.915   c7.651-33.178-8.429-68.318-39.432-82.87c-26.022-13.067-42.585-6.638-67.32-0.646c-11.735-14.446-26.15-25.43-43.116-33.035   C167.571,92.855,82,156.529,92.113,233.899c0.058,0.511,0.155,0.967-0.607,0.979c-6.637,1.997-12.225,6.95-17.829,10.948   C20.38,284.655,31.94,363.745,98.541,378.31c47.193,7.305,95.456,0.166,143.039,1.74c50.585-0.651,102.172,4.531,152.088-5.174   C429.949,366.994,465.735,334.903,459.082,294.919z M444.827,332.686c-37.113,58.539-138.374,38.662-198.756,40.213   c-39.924-1.122-79.866,0.797-119.774,0.177c0.001,0,0.001,0,0.002,0c-50.667,4.386-98.493-42.454-72.801-92.509   c8.051-16.331,21.948-29.711,38.498-37.27c1.627-1.079,1.622-1.078,2.122,0.811c2.003,7.909,4.217,11.886,3.691,0.606c0,0,0,0,0,0   c-9.47-108.051,110.703-161.599,180.318-76.525c3.101,5.717,16.108-5.408,22.711-5.091c62.884-12.314,97.92,49.196,76.514,104.147   c10.473-13.553,15.412-15.381,32.343-11.803c0,0,0,0,0,0C445.763,260.28,465.023,302.397,444.827,332.686z" fill="#58454D"/></g></svg>