<?xml version="1.0" ?><svg enable-background="new 0 0 500 500" id="Layer_1" version="1.1" viewBox="0 0 500 500" xml:space="preserve" xmlns="http://www.w3.org/2000/svg" xmlns:xlink="http://www.w3.org/1999/xlink"><g><path d="M425.46,100.891c-1.242-34.498-24.689-41.595-55.004-40.735c-34.385,0.338-68.761,0.908-103.153,0.583   c-43.478-0.162-87.014,0.801-130.372,4.111c-22.509,2.117-57.603,3.725-61.711,31.81c-3.163,72.828,2.159,146.091,9.109,218.617   c2.344,22.104,8.648,39.124,33.8,40.439c13.505,1.087,27.014,0.377,40.517-0.131c1.283-0.048,1.538,0.172,1.364,1.4   c-3.406,26.428-8.623,52.766-9.418,79.442c-0.77,10.782,12.259-6.733,14.865-8.547c23.882-23.345,45.052-51.535,70.327-72.522   c27.95-1.594,55.894-3.206,83.891-3.662c23.759-0.916,47.747,0.672,71.193-4.082c43.528-8.026,26.026-80.096,31.853-113.082   C423.545,190.001,426.609,145.42,425.46,100.891z" fill="#58454D"/><path d="M91.859,78.143c-28.205,15.022-8.364,197.519-4.447,233.475c7.695,29.273,3.541,34.91,22.117,39.756   c18.576,4.847,54.321,0,54.321,0l-11.576,85.317h1.911l78.019-84.101c0,0,142.138-5.387,159.514-7.646   c17.376-2.259,23.284-22.415,25.369-37.185c2.085-14.77,8.01-196.134,5.387-212.539s-12.048-27.253-24.095-30.265   C363.652,64.727,129.79,58.14,91.859,78.143z" fill="#EACDA8"/><path d="M378.317,63.988c0,0,28.679,20.931,7.574,99.858s-70.123,43.17-124.328,90.414   s-70.566,126.275-84.281,144.851c-13.716,18.576-18.185,32.288-18.185,32.288l73.109-78.808c0,0,152.496-4.673,163.495-8.537   c11-3.864,18.492-20.993,20.895-33.161c2.404-12.168,7.156-211.666,5.475-217.868C415.298,69.251,398.891,62.686,378.317,63.988z" fill="#E1B98B"/><path d="M260.907,290.609c0,0-81.668-24.674-94.179-51.434c-12.511-26.759-27.518-51.418,0-91.051   c30.891-23.724,70.81-14.408,86.246,3.475c0,0,29.859-26.467,53.112-24.674c23.252,1.792,42.964,19.975,46.328,39.163   C361.511,216.941,297.346,275.172,260.907,290.609z" fill="#E67263"/><path d="M235.763,281.907c16.196-34.68,75.406-56.589,105.793-62.811c-2.601,2.818-63.628,79.155-83.951,71.512   C252.045,289.74,235.763,281.907,235.763,281.907z" fill="#DB5244"/><path d="M232.321,280.586c0,0-65.323-38.544-69.802-71.863c-6.183-53.556,20.867-64.869,49.229-74.96   c-37.876-1.572-65.224,24.295-59.08,71.009C155.015,245.053,205.723,268.88,232.321,280.586z" fill="#EC8B7E"/><path d="M205.442,136.807c-0.026,0.003-0.054,0.002-0.072,0.022C205.394,136.822,205.418,136.814,205.442,136.807z" fill="#58454D"/><path d="M349.007,146.755c-23.555-35.998-69.663-25.913-94.802-0.288c-1.085,1.073-1.726,1.071-2.88,0.19   c-54.311-45.872-121.764,3.826-99.263,70.058c10.871,36.601,47.566,54.521,80.318,68.015c12.363,2.41,25.762,13.797,38.143,6.222   C314.137,261.817,381.537,204.448,349.007,146.755z M344.558,202.567c-14.744,36.011-46.005,62.124-77.676,83.208   c-6.88,5.539-27.008-5.333-35.508-7.805v0c-26.414-11.598-55.276-25.858-68.335-53.176c-9.335-20.295-10.948-45.292,0.06-65.247   c17.758-29.23,60.694-29.616,83.884-6.719c2.489,2.595,6.186,3.222,8.577,0.242c11.978-8.592,24.526-17.54,39.175-20.661   C336.335,123.134,362.082,166.781,344.558,202.567z" fill="#58454D"/><path d="M193.492,368.91c0.04-0.108,0.031-0.191-0.027-0.246C193.462,368.738,193.481,368.826,193.492,368.91z" fill="#58454D"/><path d="M217.37,305.995c-0.01,0.03-0.015,0.051-0.026,0.083c0.029-0.014,0.048-0.033,0.076-0.047   C217.404,306.019,217.384,306.009,217.37,305.995z" fill="#58454D"/><path d="M425.46,100.891c-1.242-34.498-24.689-41.595-55.004-40.735c-34.385,0.338-68.761,0.908-103.153,0.583   c-43.478-0.162-87.014,0.801-130.372,4.111c-22.509,2.117-57.603,3.725-61.711,31.81c-3.163,72.828,2.159,146.091,9.109,218.617   c2.344,22.104,8.648,39.124,33.8,40.439c13.505,1.087,27.014,0.377,40.517-0.131c1.283-0.048,1.538,0.172,1.364,1.4   c-3.406,26.428-8.623,52.766-9.418,79.442c-0.77,10.782,12.259-6.733,14.865-8.547c23.882-23.345,45.052-51.535,70.327-72.522   c27.95-1.594,55.894-3.206,83.891-3.662c23.759-0.916,47.747,0.672,71.193-4.082c43.528-8.026,26.026-80.096,31.853-113.082   C423.545,190.001,426.609,145.42,425.46,100.891z M414.754,262.922c-2.172,22.46,6.039,69.513-21.84,77.126   c-37.324,8.415-65.556,1.496-139.775,8.744c-7.996,1.75-18.735-1.65-25.372,3.27c-76.534,83.933-71.576,80.742-72.771,80.235   c4.893-22.826,7.839-46.016,11.2-69.103c-0.182-4.536,3.929-11.788-0.693-14.701l0,0v0c-18.791-2.451-51.096,6.448-65.357-7.332   c-10.881-18.354-8.662-41.547-11.762-62.104c-4.572-49.146-10.66-132.078-5.63-181.364c3.66-26.538,48.989-22.963,69.189-26.085   c0.089-0.058,0.18-0.062,0.273-0.011c51.247-3.423,217.615-3.795,218.006-3.732c15.174-0.681,37.824-1.486,44.139,15.628   C423.711,104.492,414.761,262.815,414.754,262.922z" fill="#58454D"/><path d="M187.916,379.995c-0.105,0.163-0.211,0.325-0.315,0.488C187.825,380.425,187.898,380.233,187.916,379.995z" fill="#58454D"/></g></svg>