<?xml version="1.0" ?><svg enable-background="new 0 0 500 500" id="Layer_1" version="1.1" viewBox="0 0 500 500" xml:space="preserve" xmlns="http://www.w3.org/2000/svg" xmlns:xlink="http://www.w3.org/1999/xlink"><g><path d="M452.404,199.986c-3.587-33.215-5.847-96.378-52.378-92.218c-50.254,6.56-99.327,21.08-148.671,32.478   c-65.471,19.345-136.195,29.097-196.506,60.748c-10.99,17.695-12.642,63.937,10.905,71.628   c22.08,2.786,41.766,13.081,63.027,19.085c3.819,1.25,3.808,1.248,3.44,5.309c-1.52,16.797-0.626,33.539,0.905,50.291   c-0.707,26.663,96.96,39.522,119.694,44.628c9.66,1.528,13.257-0.225,17.33-9.197c6.518-14.356,12.467-28.962,18.461-43.544   c33.048,3.838,69.311,17.497,103.337,24.728C449.5,376.96,454.911,237.947,452.404,199.986z M160.213,303.236   c-0.072-1.55,0.345-1.646,1.688-1.232c29.23,9.114,58.516,18.062,88.165,25.733c4.754,0.139-2.035,19.472-2.126,23.348   c-1.413,5.584-3.393,7.849-9.367,7.569c-25.627-3.807-51.938-8.875-75.64-19.68C156.279,334.805,162.025,311.648,160.213,303.236z" fill="#58454D"/><path d="M135.377,293.063c0,0-1.614,57.864,5.038,64.626s109.274,31.792,119.524,29.707   c10.25-2.085,27.622-52.987,27.622-52.987l-31.555-7.644c0,0-6.08,34.544-13.787,36.483c-7.707,1.938-79.073-16.75-83.91-23.412   c-4.837-6.662-0.521-41.041-0.521-41.041L135.377,293.063z" fill="#99BCD8"/><path d="M57.084,200.998c-9.869,13.46-10.248,56.2,6.951,68.608c-0.002,0,24.667,3.073,24.667,3.073   c-15.789-24.911-23.872-46.408-9.147-77.49L57.084,200.998z" fill="#F5AB4E"/><path d="M49.383,229.305c-0.456,0.925,16.709,12.57,17.852,12.074c0.793,7.006,7.01,24.242,14.148,29.794   l-20.1-2.327C57.302,263.218,48.867,237.596,49.383,229.305z" fill="#F29335"/><path d="M57.084,200.998l19.596-5.066c-3.66,2.566-7.826,30.443-7.444,33.022c0,0-0.918,0.178-7.52,1.336   c-6.602,1.158-10.539-1.336-10.539-1.336L57.084,200.998z" fill="#F8C06E"/><path d="M83.375,191.159c10.013-10.601,288.834-72.797,278.987-72.683c-40.642,62.197-39.845,167.232-7.568,231.916   c0,0-255.22-70.34-255.22-70.34c-20.47-11.658-30.237-42.992-27.2-65.282C73.646,209.095,83.375,191.159,83.375,191.159z" fill="#EF7F5F"/><path d="M362.362,118.476l47.155-7.826c-43.411,41.059-52,203.624-10.736,250.513l-43.988-10.771   C321.617,287.207,323.989,179.375,362.362,118.476z" fill="#F6B052"/><path d="M388.67,341.011c0,0,7.47,17.75,16.157,17.648c8.686-0.102,26.233-22.339,31.444-42.143   s11.466-63.063,10.771-88.774s2.78-59.414-9.381-83.389c-16.286-38.447-29.907-36.337-41.934-12.72   C434.647,171.27,419.007,300.319,388.67,341.011z" fill="#F29335"/><path d="M335.3,281.749c3.401,22.982,10.014,45.635,19.489,66.536c-66.617-15.454-133.393-32.797-199.07-52.174   c-33.033-10.143-75.685-12.177-83.694-53.326C159.484,254.577,247.839,269.516,335.3,281.749z" fill="#E85E40"/><path d="M76.62,206.857c2.692-8.255,8.231-15.7,16.969-17.846c87.018-26.023,176.546-44.203,264.86-65.556   c-5.164,11.529-11.301,23.531-15.227,35.914c-88.059,17.125-176.578,34.869-265.226,48.56   C77.338,207.943,76.324,208.176,76.62,206.857z" fill="#F2977B"/><path d="M388.573,337.544c-20.007-57.336-14.86-144.866,7.987-200.939   C433.733,181.921,417.843,286.464,388.573,337.544z" fill="#E85E40"/><path d="M70.751,231.524c86.278,3.028,172.556,7.44,258.859,9.815c3.854,0.138,0.944-5.049,2.206-7.292   c0.012,4.035,0.024,8.068,0.036,12.102c-56.611-1.977-113.861-4.501-170.519-7.581c56.192,4.309,112.358,9.291,168.51,14.201   c1.439,0.143,1.346-1.249,2.137-1.708c0.604,6.159,0.811,12.375,1.326,18.559c-86.581-10.672-174.475-20.321-261.224-30.056   C71.337,236.933,70.841,234.262,70.751,231.524z" fill="#E85E40"/><path d="M370.083,287.698c3.342,24.526,6.575,50.099,20.981,71.033c-11.486-2.914-22.382-5.559-33.811-8.294   c-12.263-19.72-17.373-45.307-21.21-68.4C346.945,282.145,359.325,284.819,370.083,287.698z" fill="#F29335"/><path d="M344.991,158.386c4.04-13.203,9.844-25.943,17.522-37.449c12.404-5.46,27.149-6.727,40.805-8.35   c-6.572,7.009-11.186,15.388-15.033,24.113c-2.768,3.916-3.67,15.483-8.187,16.24C368.476,154.233,356.34,158.398,344.991,158.386z   " fill="#F8C06F"/><path d="M332.633,226.304c0.013,3.72,0.029,7.441,0.039,11.161c0.007,2.358,0.005,2.419,2.443,2.349   c10.376-0.267,20.756,0.877,31.11,0.024c2.149,0.046,0.643-2.379,1.505-3.51c-0.06,12.405,0.119,24.8,0.747,37.191   c-11.344-0.226-22.938-3.405-34.417-3.869c-0.997-5.738-1.057-11.588-1.374-17.399c10.655-0.156,22.041,1.434,32.815,2.689   c2.458,0.247,0.827-3.701,1.318-5.184c0.07-1.341-0.559-1.93-1.803-2.113c-9.935-1.34-19.984-1.536-29.972-2.318   c-3.369-0.163-0.498,3.996-2.422,5.549C332.142,242.753,332.263,234.432,332.633,226.304z" fill="#F29435"/><path d="M444.021,242.632c-1.482,1.898-4.259,1.98-5.519,3.921c-1.91,4.183-5.729,4.592-8.866,1.352   c-4.441-5.564-6.072-1.63-9.795-5.337c0.465-8.669,0.882-17.331,0.811-26.021c9.827-3.178,6.144-1.135,14.936,1.995   c1.252,0.778,1.691,0.567,2.036-0.882c0.725-3.15,0.853-7.174,4.357-8.549C447.648,206.202,443.531,238.381,444.021,242.632z" fill="#F8C070"/><path d="M417.928,188.473c2.647-1.352,2.489,3.009,5.085,2.858c0.546,0.062,1.011,0.832,1.527,1.292   c0.054-2.789,3.333-4.611,4.716-1.413c0.793,2.224,0.974,4.587,1.504,7.258c0.899-2.66,1.379-17.012,4.73-8.246   c0.043,0.723,0.565,0.889,1.122,1.044c0.778,0.217,0.775-0.455,0.933-0.864c0.927-2.919,3.758-0.561,5.682-1.643   c-0.122,7.603,5.119,22.67-8.195,16.264c-1.134-0.522-2.152-0.673-2.75,1.007c-1.428,3.78-6.526-1.088-8.045,3.306   C417.292,217.246,419.293,191.936,417.928,188.473z" fill="#F8C070"/><path d="M156.108,342.459c-11.522-3.795,1.569-33.895-12.665-34.963c-4.534,0.003-4.534,0.003-4.737,4.409   c-0.966-23.087-4.717-18.58,16.479-12.598c0.966,0.298,1.365,0.526,1.036,1.747C154.396,314.165,153.231,329.808,156.108,342.459z" fill="#79A2C8"/><path d="M340.854,170.384c12.42-1.564,24.757-3.971,37.129-5.759c4.591-0.561,0.233,6.87,0.103,9.318   c-13.106,1.96-26.27,3.471-39.422,5.076C339.016,176.044,339.815,173.184,340.854,170.384z" fill="#F8C06F"/><path d="M279.341,334.004c-3.288,0.641-3.002,6.314-4.533,8.926c-1.485,4.149-11.083-1.033-20.295,6.781   C261.366,324.736,253.398,327.581,279.341,334.004z" fill="#79A2C8"/><path d="M331.07,172.926c-85.265,13.042-170.395,26.356-255.765,38.399c-0.904,1.351-1.629,5.095,1.074,4.47   c86.864-13.729,174.118-24.422,261.389-36.803c0.586-2.406,1.172-4.812,1.758-7.217C336.707,172.15,333.863,172.402,331.07,172.926   z" fill="#F2967A"/><path d="M452.404,199.986c-3.587-33.215-5.847-96.378-52.378-92.218c-50.254,6.56-99.327,21.08-148.671,32.478   c-65.471,19.345-136.195,29.097-196.506,60.748c-10.99,17.695-12.642,63.937,10.905,71.628   c22.08,2.786,41.766,13.081,63.027,19.085c3.819,1.25,3.808,1.248,3.44,5.309c-1.52,16.797-0.626,33.539,0.905,50.291   c-0.707,26.663,96.96,39.522,119.694,44.628c9.66,1.528,13.257-0.225,17.33-9.197c6.518-14.356,12.467-28.962,18.461-43.544   c33.048,3.838,69.311,17.497,103.337,24.728C449.5,376.96,454.911,237.947,452.404,199.986z M75.456,260.831   c-4.231-6.277-6.623-13.285-8.047-20.653c-0.488-8.643-1.637-4.99-1.403,0.861l0,0c1.573,9.941,4.558,19.353,10.674,27.699   c-28.774,4.797-33.788-70.19-4.548-68.942c-9.803,21.886-4.326,48.617,9.25,68.021C79.124,265.725,77.171,263.375,75.456,260.831z    M279.926,338.436c-5.799,13.506-10.462,27.455-16.064,41.035c-2.575,6.244-2.818,6.248-9.467,5.242   c-20.917-5.318-113.469-15.87-114.095-38.684c-0.463-11.958-0.833-24.025-1.625-35.891c-0.697-20.863-3.078-15.392,15.468-10.509   c0.893,0.275,1.261,0.487,0.957,1.615c-2.175,10.453-1.062,21.312-1.629,31.93c-1.539,13.442,14.375,15.543,24.009,18.734   c14.558,4.325,29.163,8.458,44.162,11.018c30.593,8.044,32.292-3.059,38.11-29.793c0.642-2.711,0.638-2.71,3.408-1.992   c4.963,1.288,9.925,2.565,14.888,3.852C281.654,335.732,281.146,335.594,279.926,338.436z M160.213,303.236   c-0.072-1.55,0.345-1.646,1.688-1.232c29.23,9.114,58.516,18.062,88.165,25.733c4.754,0.139-2.035,19.472-2.126,23.348   c-1.413,5.584-3.393,7.849-9.367,7.569c-25.627-3.807-51.938-8.875-75.64-19.68C156.279,334.805,162.025,311.648,160.213,303.236z    M350.492,344.346c-64.224-14.88-128.857-31.699-192.359-50.415c-31.923-9.802-73.131-11.767-80.873-51.529c0,0,0,0,0,0   c0,0,0,0-0.001,0c-2.081-9.167-3.533-18.89-1.467-28.186c0,0,0,0,0,0c0.086-0.968,0.129-1.909,0.752-2.701h0l0,0   c2.005-9.626,7.93-19.528,18.034-22.009c85.83-25.667,174.135-43.599,261.244-64.661c-5.081,11.369-11.156,23.212-15.02,35.423   c0,0,0,0,0,0c-1.918,6.419-3.917,12.813-5.378,19.355c0,0,0,0,0,0c-3.859,18.115-6.161,36.524-6.573,55.047   c0-0.001,0-0.002,0.001-0.003c0.011,3.916,0.023,7.83,0.035,11.745c0,0,0,0-0.001,0c0,0,0.001,0,0.001,0   c0.207,7.606,0.939,15.174,1.409,22.778l0,0h0c0.455,3.62,0.909,7.241,1.364,10.861l0,0   C334.945,302.259,341.338,324.149,350.492,344.346z M379.716,351.86c-7.79-1.909-15.579-3.825-23.382-5.679   c-1.042-0.248-1.471-0.87-1.86-1.733c-12.845-28.428-19.857-59.404-21.108-90.516l0,0h0c-1.151-25.077,0.628-50.584,6.802-74.998   l0,0c4.412-19.064,10.999-38.088,21.885-54.502c11.423-5.028,25.004-6.196,37.581-7.69c-9.503,10.135-14.562,23.253-19.219,36.099   c0,0,0,0,0,0c-1.419,4.872-2.838,9.743-4.257,14.614c0,0,0,0,0,0c-0.355,2.413-1.105,4.729-1.749,7.07h0   c-4.423,21.14-6.78,42.605-7.533,64.18c0,0,0,0,0,0c-0.057,11.862,0.114,23.715,0.715,35.564c0,0,0,0,0,0c0,0,0,0,0,0   c0.382,3.954,0.324,7.979,1.017,11.888c0,0,0,0,0,0l0,0c3.197,23.464,6.29,47.93,20.072,67.957   C385.447,353.3,382.585,352.563,379.716,351.86z M388.351,335.32c-19.648-56.555-14.612-141.964,7.841-197.272   C432.687,182.538,417.087,285.173,388.351,335.32z M442.917,241.43c2.87,20.098-21.606,155.907-51.604,98.246   c17.771-29.692,25.481-64.24,29.222-98.305h0c0.43-8.024,0.816-16.042,0.751-24.085h0c-2.22-28.032-3.417-60.304-21.842-83.027   c-2.036-2.867,6.445-11.123,8.91-13.196c24.639-14.499,32.56,54.193,33.802,69.323c0,0.001-0.001,0.001-0.001,0.001   c0,0,0.001,0,0.001,0c0.568,3.878,0.354,7.808,0.746,11.698c0,0,0,0,0,0c0.352,2.894,0.439,5.798,0.354,8.709c0,0,0,0,0,0   C443.852,221.013,443.527,231.223,442.917,241.43z" fill="#58454D"/><path d="M138.911,311.294c0.079,0.157,0.137,0.316,0.19,0.476C139.069,311.608,139.015,311.448,138.911,311.294z" fill="#58454D"/></g></svg>