<?xml version="1.0" ?><svg enable-background="new 0 0 500 500" id="Layer_1" version="1.1" viewBox="0 0 500 500" xml:space="preserve" xmlns="http://www.w3.org/2000/svg" xmlns:xlink="http://www.w3.org/1999/xlink"><g><path d="M400.918,137.065c-5.209-23.404-25.668-38.89-40.817-56.095c-14.984-12.662-46.573-10.051-66.018-14.162   c-22.397-2.639-44.803-5.199-67.209-7.756c-18.709,0.115-49.661-12.513-63.491,2.8c-11.64,14.606-11.032,34.705-16.479,51.93   c-14.306,63.438-27.336,127.153-40.867,190.758c-2.044,15.905-10.174,31.87-5.556,47.884c5.837,15.851,14.65,30.689,24.348,44.503   c7.455,10.642,19.322,16.645,31.837,19.236c48.338,9.572,96.605,24.282,145.395,29.569c25.128-2.912,39.215-23.712,42.999-47.355   c5.799-23.324,10.886-46.814,16.164-70.259C373.172,264.405,394.831,201.322,400.918,137.065z" fill="#58454D"/><path d="M166.28,61.643c13.969-13.958,168.785,14.429,181.595,14.2c9.651,2.86,14.074,11.345,14.584,21.243   c-11.646,85.986-42.319,196.472-59.096,277.115c-4.614,15.979-22.207,26.009-41.552,21.841   c-6.747-0.78-141.231-28.694-145.68-30.777s-12.559-10.904-14.867-18.637c-2.308-7.734,3.422-20.381,3.422-20.381l52.217-247.699   C156.904,78.548,161.024,65.432,166.28,61.643z" fill="#54667A"/><path d="M127.398,218.512c2.23,61.12,60.327,156.542,133.633,176.047   C76.478,351.249,86.755,405.775,127.398,218.512z" fill="#364659"/><path d="M105.622,356.552c0,0,20.261,48.386,38.639,54.692s135.304,29.216,151.276,31.868   c15.972,2.652,34.367-11.403,39.269-18.888c15.819-55.698,53.503-227.017,64.783-283.691c1.349-15.844-32.464-48.901-39.009-56.019   c11.295,24.314-37.376,187.462-36.471,199.121c-0.005-0.001-18.803,85.844-21.195,91.953c-2.392,6.108-9.921,15.499-17.308,18.972   c-6.639,8.826-150.425-26.476-162.156-26.925c0-0.002-5.329-1.707-9.874-4.643C109.031,360.057,105.622,356.552,105.622,356.552z" fill="#EA6F64"/><path d="M110.17,360.556c0,0,7.497,5.932,18.713,8.152c24.352,3.004,137.291,35.247,160.525,24.105l28.068,44.902   c-19.612,18.07-161.015-25.814-178.52-29.351C129.772,400.841,109.271,369.258,110.17,360.556z" fill="#E04E44"/><path d="M147.826,184.163c6.617-33.322,14.426-66.408,20.444-99.846c2.156-21.341,27.222-9.981,41.266-9.659   c18.633,2.398,37.269,4.776,55.919,7.036c17.399,2.106,34.801,4.196,52.216,6.17c9.8,2.368,32.061-1.972,29.699,13.75   c-7.363,33.978-14.141,68.133-20.838,102.261c-2.376,17.238-21.27,10.005-32.934,8.639c-32.546-5.106-65.096-10.194-97.688-15.001   C185.816,194.076,147.662,196.12,147.826,184.163z" fill="#EDD5B8"/><path d="M216.534,156.163c2.188-15.28,6.786-31.391,9.962-46.702c0.219-1.286,1.235-3.113,2.733-1.916   c16.508,11.275,32.709,23.011,48.549,35.205c1.066,0.854,1.073,1.073-0.213,1.642c-17.359,6.704-36.043,9.377-53.815,14.899   C220.637,160.06,216.124,161.421,216.534,156.163z" fill="#EA6F64"/><path d="M345.187,91.999c-11.053-6.073-24.993-4.474-37.197-7.131c-22.877-2.903-45.775-5.646-68.679-8.327   c-15.006-1.811-30.035-3.411-45.034-5.267c-9.513-1.492-22.706-4.433-25.37,8.262c-5.414,19.655-8.716,39.812-12.897,59.753   c-2.897,14.421-6.251,28.752-8.524,43.298c-1.228,5.636,3.665,9.497,8.756,10.198c39.899,6.809,79.889,13.116,119.945,18.939   c13.073,0.062,40.712,12.192,48.515-0.809c7.37-23.205,10.503-47.723,16.142-71.432C341.423,128.175,354.075,98.647,345.187,91.999   z M346.175,102.08c-7.273,33.57-13.971,67.317-20.587,101.035c-2.348,17.031-21.015,9.886-32.54,8.536   c-22.077-3.456-44.151-6.928-66.244-10.28c-20.364-3.046-40.707-6.245-61.128-8.891c-6.07-0.877-15.97-0.863-16.654-8.84   c6.538-32.923,14.254-65.612,20.199-98.651c2.13-21.085,26.895-9.861,40.771-9.544c27.156,3.51,54.327,6.902,81.522,10.102   c14.618,1.808,29.27,3.329,43.909,4.932C341.57,90.641,348.327,95.1,346.175,102.08z" fill="#58454D"/><path d="M278.034,140.946c-15.665-11.549-30.758-24.197-47.513-34.13c-2.76-1.594-4.562,0.294-5.202,3.038   c-3.964,15.341-8.442,30.631-10.491,46.381c-0.431,4.247,4.01,6.189,7.632,4.772C228.192,158.045,288.058,148.409,278.034,140.946z    M277.005,144.191c-18.276,6.684-37.689,10.24-56.464,15.344c-7.52,0.459-0.349-15.677-0.299-20.672   c1.891-3.759,5.481-34.193,9.327-30.832c16.202,11.066,32.1,22.583,47.644,34.549C278.26,143.417,278.267,143.632,277.005,144.191z   " fill="#58454D"/><path d="M336.898,229.97c0.314,0.055,0.758,0.243,0.692,0.484c-0.635,2.307,2.125,2.962,2.321,4.855   c0.046,0.445,0.505,0.393,0.856,0.44c3.053,0.281,1.599,2.448,2.07,4.609c1.614-5.702,5.912-3.078,4.373,1.88   c3.888-1.611,2.809,1.836,4.701,1.813c2.384-0.697,2.546,1.395,3.65,2.729c1.418,0.482,2.391,1.29,2.261,2.958   c-0.01,0.131,0.111,0.392,0.164,0.39c1.73-0.057,2.425,1.819,3.995,2.103c3.126,0.44,1.942,4.032,2.275,6.341   c1.022-3.135,3.246-2.17,5.735-2.399c6.921-1.626-4.204,27.971-4.061,32.764c-0.857-1.367,0.706-3.566-1.094-4.307   c-2.164-0.72-2.68-1.31-2.429-3.555c0.104-3.254-2.44-5.101-2.89-8.22c-2.357,3.159-3.201,3.736-6.461,1.228   c-4.04,0.191-1.826-6.968-6.068-6.502c-3.915,0.986-2.206-3.816-4.326-2.789c-5.384,1.394-1.03-6.736-4.809-5.668   c-0.769,0.183-1.343-0.493-1.579-1.175c-0.266-0.771-0.638-0.8-1.365-0.675c-3.441,0.63-1.792-3.598-2.999-5.434   C333.577,244.552,335.145,237.239,336.898,229.97z" fill="#EF8980"/><path d="M364.519,107.797c1.045-6.355,1.05-12.188-0.216-18.79c13.685,17.831,37.065,35.492,33.082,60.424   c-8.125-8.157-14.426-19.406-23.196-27.561C371.161,117.369,363.968,113.583,364.519,107.797z" fill="#EF8980"/><path d="M293.096,390.669c1.992-1.238,5.257-8.564,7.374-5.888c4.588,6.606,9.024,13.303,13.479,19.988   c4.807,7.094,9.296,14.373,13.998,21.525c2.205,2.375-0.995,2.964-2.002,4.792c-2.003,0.636-4.601,4.449-6.385,1.87   c-2.373-3.221-4.679-6.479-6.631-9.959C307.187,411.883,298.344,401.626,293.096,390.669z" fill="#EF8980"/><path d="M310.718,438.853c-8.947-13.837-18.039-27.786-26.417-42.046c1.189-0.645,2.873-1.805,3.573-0.035   c3.365,4.903,6.649,9.855,9.939,14.804c5.109,8.649,12.15,17.138,16.028,26.04C312.799,438.028,311.758,438.44,310.718,438.853z" fill="#EF8980"/><path d="M395.341,157.91c-10.501-14.109-21.942-27.499-32.329-41.677c0.227-1.092,0.454-2.184,0.68-3.275   c10.215,10.594,19.256,23.72,29.235,35.029C396.776,152.045,397.178,152.433,395.341,157.91z" fill="#EF8980"/><path d="M302.366,377.994c10.567,14.889,19.361,31.056,29.736,46.14c-0.495,0.58-0.991,1.16-1.487,1.741   c-10.361-13.313-19.389-29.448-29.07-43.84C300.022,380.651,301.895,379.405,302.366,377.994z" fill="#EF8980"/><path d="M281.671,398.458c8.421,14.277,18.301,28.002,27.971,41.518c-0.589,0.182-1.179,0.363-1.814,0.283   c-11.622-12.402-18.539-28.107-28.844-41.405C279.879,398.723,280.775,398.591,281.671,398.458z" fill="#EA6E63"/><path d="M316.072,436.487c-9.182-13.738-18.393-28.419-26.508-43.072c0.346-0.273,0.692-0.546,1.038-0.819   c9.355,14.105,18.368,28.739,27.909,42.86C317.699,435.8,316.886,436.144,316.072,436.487z" fill="#EF8980"/><path d="M300.308,383.934c9.088,14.41,18.822,28.678,26.961,43.567c-0.894,1.075-1.881,2.051-3.045,2.836   c-0.089-0.96,0.544-1.448,1.275-1.776c2.703-1.814-3.869-8.02-4.624-10.601c-7.125-10.82-13.457-22.926-21.322-32.888   C299.805,384.693,300.057,384.313,300.308,383.934z" fill="#EF8980"/><path d="M163.564,372.59c1.209,0.25,2.462,0.31,3.611,0.824C165.908,373.417,164.635,373.444,163.564,372.59z" fill="#53454E"/><path d="M148.317,223.704c13.768,1.354,27.391,4.03,41.002,6.483c7.038,2.917,35.043,1.723,32.224,12.272   c-2.111,5.755-7.848,44.333-13.943,41.584c-18.849-2.642-37.452-6.967-56.16-10.51c-7.213-1.739-19.656-1.161-17.399-12.1   c1.272-8.72,3.712-17.184,5.608-25.767C141.082,230.379,140.406,222.917,148.317,223.704z" fill="#EDD5B8"/><polygon fill="#66809D" points="145.646,203.984 144.474,209.808 315.766,236.941 316.576,231.33  "/><polygon fill="#66809D" points="234.988,244.233 233.473,251.62 308.668,262.606 310.538,255.089  "/><polygon fill="#66809D" points="231.599,261.138 230.016,268.878 276.184,277.096 278.031,269.186  "/><polygon fill="#66809D" points="213.515,330.556 212.661,337.677 256.841,345.401 258.901,337.304  "/><polygon fill="#66809D" points="218.699,309.816 217.172,317.913 293.609,329.183 294.651,320.992  "/><path d="M131.915,291.207c0,0-3.47,0.558-3.943,4.451c-0.474,3.893-10.178,37.313-7.362,40.249   c2.816,2.936,52.346,11.554,52.346,11.554s19.453,5.128,22.729,2.462c3.276-2.666,8.15-28.446,9.426-32.104s1.28-11.15,0-12.974   C203.831,303.019,131.915,291.207,131.915,291.207z" fill="#EDD5B8"/><path d="M149.4,294.132c4.596,14.913,28.824,46.504,41.725,56.545l-68.741-12.547c0,0-2.368-1.892-3.125-4.733   c-0.758-2.841,9.669-40.275,9.669-40.275C129.158,289.341,150.247,294.622,149.4,294.132z" fill="#E4C39D"/><path d="M315.993,230.236c-52.071-8.469-104.173-16.802-156.298-24.949c-4.31-0.657-8.63-1.243-12.943-1.882   c-3.187-0.512-2.285,3.757-3.026,5.617c-0.383,1.245,0.13,1.372,0.924,1.508c47.235,7.993,94.618,15.078,141.905,22.761   c9.406,1.392,18.798,2.865,28.179,4.418c0.646,0.101,1.396,0.236,1.724-0.7C316.991,234.841,319.013,230.637,315.993,230.236z    M315.443,234.466c-0.147,0.602,0.332,1.811-1.092,1.519c-12.084-1.866-24.16-3.781-36.229-5.745   c-34.591-5.523-69.212-10.862-103.805-16.374c-3.513-1.457-31.986-2.959-28.988-5.971c1.162-4.274,0.667-3.516,4.547-2.838   c46.32,7.797,92.715,15.142,139.111,22.465c8.22,1.319,16.43,2.702,24.641,4.076C316.006,231.997,316.038,232.036,315.443,234.466z   " fill="#58454D"/><path d="M222.452,238.223c-3.873-6.55-35.078-8.27-44.396-11.509c-9.137-0.412-31.519-9.019-37.09-0.747   c-2.998,9.45-4.216,19.395-6.824,28.976c-3.346,6.193-3.298,16.131,5.285,17.48c22.491,5.016,45.276,10.005,68.139,13.055   c8.219-1.411,7.228-14.554,10.008-20.896C218.756,255.87,223.821,246.939,222.452,238.223z M221.063,242.626   c-2.08,5.672-7.733,43.687-13.739,40.977c-22.327-3.446-44.623-8.082-66.704-12.753c-13.037-3.293-0.725-25.669-0.26-34.92   c1.646-4.707,0.088-11.243,7.019-11.778c14.086,0.852,28.019,4.011,41.929,6.378C196.244,233.405,223.842,232.229,221.063,242.626z   " fill="#58454D"/><path d="M206.859,307.134c1.095-7.431-41.666-9.598-49.528-12.543c-8.476-0.054-30.363-12.218-30.676,2.527   c0,0.185-0.001,0.37-0.001,0.555c-2.032,6.06-3.967,12.758-4.439,19.144c-1.765,6.923-8.509,22.368,3.617,22.758   c2.025,1.322,4.322,1.465,6.656,1.388c5.617,2.158,12.271,2.93,18.312,3.329c4.41,1.924,10.576,2.235,15.26,2.774   c8.326,1.542,16.75,2.567,24.954,4.71c7.547,0.224,8.363-5.052,9.73-11.193C203.079,329.524,206.644,318.497,206.859,307.134z    M204.476,315.388c-1.059,8.569-3.759,16.782-5.539,25.195c-0.202,6.057-3.782,11.173-10.404,8.941   c-11.509-1.458-22.859-4.142-34.311-6.065c-10.529-3.436-25.243-0.876-33.112-9.297c-0.386-10.796,4.859-21.829,6.012-32.783   c0.739-4.058,2.528-10.36,7.911-9.154c15.562,2.816,31.219,5.233,46.763,8.22c6.608,1.194,13.211,2.417,19.826,3.573   C206.789,305.012,204.838,311.709,204.476,315.388z" fill="#58454D"/><path d="M293.743,319.857c-21.056-2.429-41.991-5.953-62.968-9c-9.635-0.426-12.814-5.97-14.462,6.187   c1.678,3.941,17.362,3.194,22.176,4.839c17.919,2.776,35.843,5.519,53.768,8.254c1.646,0.247,1.768,0.083,1.991-1.646   C293.893,326.172,297.04,320.172,293.743,319.857z M293.454,323.552c-0.891,1.478,0.455,4.899-2.008,4.858   c-13.468-2.032-27.259-4.181-40.766-6.261c-10.66-1.475-21.245-3.568-31.926-4.79c-1.752-0.768,0.308-4.326,0.022-6.041   c17.482,0.487,37.745,5.358,56.114,7.47C277.94,320.07,294.878,320.011,293.454,323.552z" fill="#57454D"/><path d="M310.288,254.245c-20.443-2.993-40.912-5.827-61.357-8.816c-4.496-0.668-8.992-1.326-13.521-1.737   c-2.339,0.947-2.198,4.965-2.769,7.196c-0.339,1.724,1.37,1.851,2.612,2.11c17.024,2.627,34.106,4.832,51.163,7.222   c4.355-0.339,22.928,5.479,23.712,1.505C309.75,259.558,312.774,255.172,310.288,254.245z M309.626,256.616   c-1.018,1.376-0.227,5.308-2.239,5.248c-14.456-2.046-28.657-4.417-43.066-6.576c-9.83-1.433-19.643-3-29.503-4.216   c-1.424-0.923,0.535-3.83,0.416-5.424c0.155-0.773,0.465-0.935,1.341-0.777C260.227,249.6,287.767,250.445,309.626,256.616z" fill="#58454D"/><path d="M257.324,335.995c-14.444-1.425-28.644-4.549-43.081-5.969c-2.336,0.538-1.681,4.742-2.414,6.718   c-0.179,1.34,0.304,1.981,1.675,2.25c14.428,2.467,28.895,4.894,43.32,7.244C259.91,346.807,260.927,334.795,257.324,335.995z    M257.85,339.12c-0.985,1.495-0.232,5.353-2.541,5.201c-13.744-1.99-27.381-4.641-41.115-6.691   c-1.666-1.04,0.139-4.131-0.135-5.906c0.057-0.609,0.305-0.82,0.897-0.678C228.577,334.7,245.79,334.168,257.85,339.12z" fill="#58454D"/><path d="M277.738,268.026c-14.504-2.426-29.799-5.189-44.177-7.53c-4.269-0.424-3.287,4.379-4.257,7.094   c-0.233,1.978-0.25,1.945,1.714,2.337c14.453,2.69,28.997,4.866,43.413,7.763c2.308,0.47,2.724,0.158,3.145-2.144   C277.257,273.583,280.174,268.413,277.738,268.026z M277.152,270.635c-0.93,1.511-0.329,4.977-2.252,5.361   c-11.16-1.765-22.302-3.633-33.442-5.516c-10.146-2.648-11.703,1.655-9.63-8.151c0.026-0.793,0.475-0.567,0.941-0.483   c14.506,2.679,29.083,4.949,43.6,7.562C277.04,269.528,277.433,269.773,277.152,270.635z" fill="#57454D"/><path d="M343.551,241.563c0.014,0.038,0.016,0.067,0.033,0.108c0.012-0.032,0.024-0.064,0.036-0.096   C343.598,241.573,343.573,241.566,343.551,241.563z" fill="#58454D"/><path d="M400.918,137.065c-5.209-23.404-25.668-38.89-40.817-56.095c-11.297-9.546-19.472-8.934-133.228-21.918   c-18.709,0.115-49.661-12.513-63.491,2.8c-11.64,14.606-11.032,34.705-16.479,51.93c-14.306,63.438-27.336,127.153-40.867,190.758   c-2.044,15.905-10.174,31.87-5.556,47.884c5.837,15.851,14.65,30.689,24.348,44.503c7.455,10.642,19.322,16.645,31.837,19.236   c48.338,9.572,96.605,24.282,145.395,29.569c25.128-2.912,39.215-23.712,42.999-47.355c5.799-23.324,10.886-46.814,16.164-70.259   C373.172,264.405,394.831,201.322,400.918,137.065z M106.118,351.122c-5.249-14.483,3.658-30.013,5.305-44.665   c17.718-80.481,38.718-184.015,46.421-221.226c5.561-35.841,14.928-25.71,163.352-10.687c42.449,0.731,44.514,15.08,34.671,52.813   c-8.922,39.936-17.721,79.902-26.609,119.848c-7.384,33.528-14.647,67.09-22.1,100.601c-8.619,52.101-23.266,51.194-69.796,39.477   c0,0,0,0,0,0C118.63,363.592,114.983,367.573,106.118,351.122z M396.026,147.278c-8.503,36.853-16.612,73.89-25.158,110.769   c0,0,0,0,0-0.001c-6.041,27.531-22.687,100.925-28.826,129.823c-2.722,12.506-3.316,26.148-11.981,36.355c0,0,0,0,0,0l0,0   c-7.956,9.825-22.522,15.837-25.272,15.474c0,0,0,0,0,0c-23.772,1.445-47.12-8.225-70.522-11.749   c-16.992-3.473-33.981-6.96-50.97-10.449c-42.904-6.111-52.069-12.496-71.155-51.935c25.459,9.904,53.56,12.433,80.167,18.676   c28.723,5.051,57.121,12.629,86.148,15.603c0,0,0,0,0,0c16.434-2.555,25.892-19.085,29.262-35.321   c8.36-37.503,17.266-74.917,25.894-112.377c0,0,0,0,0,0c0,0,0,0,0,0c10.359-45.112,20.48-90.28,30.801-135.401h0   c1.773-8.537,2.971-16.481,1.188-25.04C378.187,108.104,399.69,124.347,396.026,147.278L396.026,147.278z" fill="#58454D"/></g></svg>