<?xml version="1.0" ?><svg enable-background="new 0 0 500 500" id="Layer_1" version="1.1" viewBox="0 0 500 500" xml:space="preserve" xmlns="http://www.w3.org/2000/svg" xmlns:xlink="http://www.w3.org/1999/xlink"><g><path d="M456.226,242.9c11.308-59.611-83.852-26.76-116.182-28.955c-37.914-30.403,15.408-113.679-32.38-143.407   c-10.051-6.251-20.394-6.054-30.905-1.393c-9.558,4.372-2.137,17.169-3.59,25.25c4.501,69.526-62.274,121.017-125.876,130.364   c-2.97,0.954-2.695-11.285-5.304-14.322c-10.86-20.286-41.897-11.722-60.711-10.64c-36.664,3.209-39.646,24.254-38.134,56.185   c1.062,46.448,1.585,93.069,7.011,139.255c2.257,22.873,11.43,41.318,37.653,38.798c20.361-3.101,58.412,5.307,63.069-21.705   c38.98,21.487,236.765,23.819,254.536-25.734c2.473-5.466-3.579-13.498,2.013-17.119c18.84-8.072,27.665-27.432,19.171-46.521   c-1.759-5.402,6.109-6.463,9.173-9.371c15.962-9.852,18.762-30.19,11.44-46.406C441.117,256.187,454.45,253.625,456.226,242.9z" fill="#58454D"/><path d="M149.011,407.536c15.081,23.712,244.243,14.138,248.024-11.701c9.945-17.24,3.077-21.924,8.853-29.284   c5.776-7.361,20.64-10.929,20.346-25.65c-0.294-14.721-4.137-21.967-1.993-24.589c35.536-16.598,20.38-32.457,18.351-58.608   c52.704-68.112-83.685-40.108-104.252-40.25c-30.228-16.055-5.305-89.924-13.663-115.215c-6.024-17.397-12.582-31.3-28.775-32.787   c-16.193-1.487-20.743,4.684-20.743,4.684c12.66,86.381-51.455,141.79-132.546,155.91   C144.287,236.659,151.247,388.72,149.011,407.536z" fill="#EDD5B8"/><path d="M275.427,78.512c0,0,24.214,79.897-14.57,128.094s-85.396,37.908-96.551,61.12   c-11.155,23.211,5.373,40.001,15.51,58.372c10.138,18.371-6.278,46.927,21.692,60.306s165.504,28.204,177.012,6.685   c11.507-21.52-2.676-34.076,13.114-40.846s30.691-12.613,27.089-22.572c-3.603-9.96-16.457-9.574-11.87-19.637   c4.587-10.062,32.575-15.016,31.797-30.606c-0.779-15.59-13.867-15.506-11.338-27.425c2.529-11.919,29.168-17.981,24.053-28.667   s6.468,4.257,2.007,17.417c-4.461,13.16-14.057,15.682-9.761,25.796s5.425,29.022,0.009,35.851   c-5.416,6.828-18.891,10.826-20.016,15.853s5.802,22.665-0.561,33.307c-6.363,10.642-19.3,14.1-20.973,19.676   c-1.673,5.576,3.002,21.424-9.261,28.946c-20.619,17.372-212.132,33.582-244.511,7.355c2.321-21.556-1.827-150.939-4.367-177.49   C211.102,219.868,293.105,160.859,275.427,78.512z" fill="#E4C39D"/><path d="M325.102,143.502c-7.085,13.052-21.143,56.387-2.753,74.45l15.99-1.956c0,0-18.154-11.615-16.92-28.998   C322.652,169.615,325.102,143.502,325.102,143.502z" fill="#E4C39D"/><path d="M51.961,214.799c-7.11,2.984-13.402,198.745,20.454,215.765c16.176,3.01,65.234-0.723,71.703-8.419   c9.958-8.872,7.776-206.821-9.903-216.475C124.266,200.882,62.587,208.278,51.961,214.799z" fill="#9CC4CF"/><path d="M146.412,280.129c0,0-16.905,21.069-26.05,49.173c-9.145,28.104-2.939,37.084-22.882,40.735   c-38.811,7.544-42.927-20.101-50.323-40.271c0,0,5.737,76.264,12.102,88.086c6.365,11.822,27.621,15.726,49.061,12.547   s32.246-1.148,38.092-15.1C152.258,401.346,146.412,280.129,146.412,280.129z" fill="#7EADBB"/><path d="M63.82,315.362c0,0,1.338-80.13,11.208-83.308c38.875-7.698,43.145-8.087,55.24,24.873   c0,0-0.26-29.612-11.487-34.567s-42.022-0.235-50.11,5.475C54.59,237.406,65.758,304.524,63.82,315.362z" fill="#B1D1DA"/><path d="M48.095,312.009c0,0,13.35-26.364,9.033-37.633c-4.316-11.268-8.477-30.89,3.708-44.385   c12.184-13.495,53.902-19.682,63.824-14.498c9.922,5.184,19.272,27.849,19.272,27.849s-1.237-33.497-12.738-38.285   c-11.501-4.788-71.404-2.254-79.233,9.742C44.131,226.795,48.095,312.009,48.095,312.009z" fill="#B1D1DA"/><path d="M130.273,299.803c-0.002-0.025-0.003-0.051-0.005-0.076c0.002,0.026,0,0.051,0.002,0.077   C130.271,299.803,130.272,299.803,130.273,299.803z" fill="#58454D"/><path d="M60.938,285.083c-0.033-0.006-0.068-0.001-0.102,0c0.037,0.032,0.064,0.066,0.106,0.098   C60.941,285.148,60.94,285.115,60.938,285.083z" fill="#58454D"/><path d="M64.587,364.104c-0.001,0.014-0.001,0.028-0.002,0.042c0.003-0.001,0.008,0,0.011-0.001   C64.592,364.131,64.591,364.117,64.587,364.104z" fill="#58454D"/><path d="M60.345,269.153c-0.003-0.056-0.005-0.112-0.009-0.168c-0.009,0.062-0.019,0.124-0.028,0.186   C60.32,269.165,60.333,269.159,60.345,269.153z" fill="#58454D"/><path d="M127.325,249.06L127.325,249.06c-0.002,0.035-0.004,0.07-0.006,0.105c0.014-0.008,0.026-0.017,0.041-0.025   C127.346,249.114,127.341,249.086,127.325,249.06z" fill="#58454D"/><path d="M279.772,105.567c-0.036,0.449-0.061,0.899-0.052,1.352C279.729,106.468,279.748,106.017,279.772,105.567z" fill="#58454D"/><path d="M279.794,105.171c0.003-0.046,0.006-0.092,0.009-0.137C279.798,105.079,279.799,105.125,279.794,105.171z" fill="#58454D"/><path d="M456.226,242.9c11.308-59.611-83.852-26.76-116.182-28.955c-37.914-30.403,15.408-113.679-32.38-143.407   c-10.051-6.251-20.394-6.054-30.905-1.393c-9.558,4.372-2.137,17.169-3.59,25.25c4.501,69.526-62.274,121.017-125.876,130.364   c-2.97,0.954-2.695-11.285-5.304-14.322c-10.86-20.286-41.897-11.722-60.711-10.64c-36.664,3.209-39.646,24.254-38.134,56.185   c1.062,46.448,1.585,93.069,7.011,139.255c2.257,22.873,11.43,41.318,37.653,38.798c20.361-3.101,58.412,5.307,63.069-21.705   c38.98,21.487,236.765,23.819,254.536-25.734c2.473-5.466-3.579-13.498,2.013-17.119c18.84-8.072,27.665-27.432,19.171-46.521   c-1.759-5.402,6.109-6.463,9.173-9.371c15.962-9.852,18.762-30.19,11.44-46.406C441.117,256.187,454.45,253.625,456.226,242.9z    M146.126,385.644c-1.894,12.715,2.643,34.515-14.058,37.683c-14.932,3.24-30.252,3.148-45.425,4.179   c-10.922,0.921-22.368-3.35-25.129-14.887c-9.432-40.412-7.593-82.815-10.999-123.936c-1.309-44.124-13.692-81.932,45.635-83.026   c32.821-1.63,41.997-4.264,43.197,32.698c2.395,13.618,2.829,27.881,3.653,41.773c0,0,0,0,0,0   C144.808,315.225,145.937,350.496,146.126,385.644z M445.966,246.273c-4.202,5.858-9.743,11.769-6.37,19.468   c6.467,14.596,6.294,33.164-8.524,42.552c-22.282,9.771-2.044,22.357-9.381,38.301c-3.224,13.983-24.09,14.155-22.777,27.473   c0.673,5.194,0.999,10.352-1.365,15.376c-28.966,35.932-201.018,37.286-243.936,15.6c0.076-52.214-1.844-111.699-5.202-164.451   c21.605-2.17,42.764-9.698,60.793-21.816c1.264-0.668,0.688-1.769-0.571-0.997c-18.437,9.597-41.438,18.574-61.674,16.924   c73.544-13.624,144.461-71.884,131.952-153.827l0,0c-2.023-7.209,3.831-7.162,9.33-8.201   c69.045,11.493,5.392,105.615,43.681,142.717c-4.393,0.561-8.443,1.038-12.537,1.057c0,0,0,0,0,0   c-8.755,0.425-7.772,1.702,0.123,2.597c0.072-0.061,0.141-0.057,0.206,0.012c15.421,1.16,30.862,0.129,46.255-0.332   c0,0-0.001,0-0.001,0c4.445-0.474,8.928-0.473,13.4-0.654c0,0,0,0,0,0c11.768-0.691,23.514-2.33,35.292-2.614c0,0-0.001,0-0.001,0   c10.419-0.914,23.177-0.985,30.602,7.5c0.004-0.005,0.005-0.009,0.01-0.014c0,0,0,0,0,0l0-0.001c0,0,0,0,0,0.001   C451.014,229.228,450.056,239.284,445.966,246.273z" fill="#58454D"/><path d="M356.965,219.092c-0.33,0.01-0.652,0.051-0.97,0.107C356.317,219.158,356.639,219.115,356.965,219.092z" fill="#58454D"/><path d="M192.947,256.655c7.896,0.589,3.169,9.676-0.237,12.764c-4.403,5.168-8.105,10.745-10.573,17.082   c-2.562,4.407-2.156,11.935-7.154,14.217c-2.191,0.452-3.913-0.69-5.317-2.221C155.452,281.619,174.727,258.894,192.947,256.655z" fill="#E4C39D"/><path d="M281.822,115.182c0.827,2.828,0.112,5.889,0.32,8.822C281.543,121.081,281.086,118.153,281.822,115.182z" fill="#E5C6A1"/><path d="M130.268,299.727c0.004-13.868-2.565-42.494-3.845-53.145c-0.048-16.206-6.512-25.934-23.897-23.487   c-38.885,1.572-40.856,8.614-38.47,45.596c1.691,42.151,2.934,84.042,6.721,126.033c0.182,12.222,11.246,3.367,14.044,8.597   c0.078,1.533-1.075,1.97-2.269,1.985c-5.217,0-13.079,1.184-14.618-5.4c-2.061-9.718-1.873-19.786-2.984-29.645   c-1.357-35.307-3.715-70.379-4.678-105.77c0.427-28.49-3.36-42.421,30.275-45.047c31.972-3.982,39.589,2.175,40.708,34.555   c2.184,37.289,3.618,74.633,4.661,111.976c-0.734,15.169,5.464,44.719-19.069,37.115c1.67-3.641,7.923-1.249,11.21-2.935   c8.18-3.436,3.491-19.377,4.48-26.726C132.313,348.853,131.798,324.26,130.268,299.727z" fill="#58454D"/><path d="M124.66,215.494c-1.467-0.106-2.841-0.616-4.248-0.983C121.926,214.416,123.363,214.653,124.66,215.494z" fill="#ACCED7"/><path d="M134.136,225.946c-0.756-0.984-1.292-2.077-1.636-3.267C133.497,223.542,133.958,224.673,134.136,225.946z" fill="#ACCED7"/><path d="M118.781,214.508c-1.194-0.154-2.448,0.349-3.595-0.325C116.417,213.925,117.616,214.034,118.781,214.508z" fill="#ACCED7"/><path d="M100.159,214.836c-1.147,0.674-2.401,0.17-3.595,0.325C97.71,214.487,98.964,214.992,100.159,214.836z" fill="#ACCED7"/><path d="M95.584,215.163c-0.693,0.6-1.525,0.218-2.288,0.325C94.002,214.978,94.731,214.64,95.584,215.163z" fill="#ACCED7"/><path d="M187.069,251.437c19.396-9.238,40.927-14.241,57.833-28.103   C228.685,237.778,206.753,243.262,187.069,251.437z" fill="#E5C6A1"/><path d="M251.11,217.783c3.857-4.691,7.863-9.672,11.757-14.382C259.657,208.677,255.669,213.606,251.11,217.783z" fill="#E5C6A1"/><path d="M244.901,223.335c1.925-1.785,3.612-3.836,5.886-5.228C249.028,220.078,247.301,222.086,244.901,223.335z" fill="#E5C6A1"/><path d="M108.32,403.336c0.332,10.816-15.93,11.124-15.907,0.375C92.287,392.849,108.506,391.758,108.32,403.336z" fill="#DB5143"/><path d="M100.442,391.485c-14.593-0.363-14.917,23.888-0.298,23.811   C114.71,415.342,115.554,391.541,100.442,391.485z M100.037,410.832c-9.507,0.029-8.56-15.15,0.412-14.99   C109.394,395.766,109.11,411.215,100.037,410.832z" fill="#58454D"/></g></svg>