<?xml version="1.0" ?><!DOCTYPE svg  PUBLIC '-//W3C//DTD SVG 1.1//EN'  'http://www.w3.org/Graphics/SVG/1.1/DTD/svg11.dtd'><svg height="140px" id="Layer_1" style="enable-background:new 0 0 140 140;" version="1.1" viewBox="0 0 140 140" width="140px" xml:space="preserve" xmlns="http://www.w3.org/2000/svg" xmlns:xlink="http://www.w3.org/1999/xlink"><style type="text/css">
<![CDATA[
	.st0{fill:#47BBF4;}
	.st1{fill:#7BEA06;}
	.st2{fill:#49E500;}
	.st3{fill:#7ED1B5;}
	.st4{fill:#1083DD;}
	.st5{fill:#7FBA0D;}
	.st6{fill:#E01726;}
	.st7{fill:#129AFF;}
	.st8{fill:#E2102E;}
	.st9{fill:#E2137A;}
	.st10{fill:#E2573B;}
	.st11{fill:#E2A60E;}
	.st12{fill:#E3443A;}
	.st13{fill:#1558BA;}
	.st14{fill:#159B81;}
	.st15{fill:#1644B7;}
	.st16{fill:#168BF4;}
	.st17{fill:#E51F32;}
	.st18{fill:#E6EFE8;}
	.st19{fill:#187FB8;}
	.st20{fill:#4C5054;}
	.st21{fill:#4C822A;}
	.st22{fill:#E8F9F8;}
	.st23{fill:#4F5459;}
	.st24{fill:#4FCCED;}
	.st25{fill:#B0C6C4;}
	.st26{fill:none;stroke:#33363A;stroke-width:3;stroke-linecap:round;stroke-linejoin:round;stroke-miterlimit:10;}
	.st27{fill:#859392;}
	.st28{fill:#1A68E5;}
	.st29{fill:#1A70F9;}
	.st30{fill:#1B8EED;}
	.st31{fill:#EA4606;}
	.st32{fill:#EA7B0C;}
	.st33{fill:#EAF4F9;}
	.st34{fill:#B70E10;}
	.st35{fill:#1CB1E6;}
	.st36{fill:#1CDDF7;}
	.st37{fill:#EDC211;}
	.st38{fill:#EF8114;}
	.st39{fill:#55932C;}
	.st40{fill:#569FEF;}
	.st41{fill:#BA30CE;}
	.st42{fill:#BA3A3A;}
	.st43{fill:#8CF41E;}
	.st44{fill:#59C96E;}
	.st45{fill:#8E0919;}
	.st46{fill:#20B5EC;}
	.st47{fill:#21CE52;}
	.st48{fill:#21D844;}
	.st49{fill:#F17250;}
	.st50{fill:#2364CE;}
	.st51{fill:#F2303F;}
	.st52{fill:#F24444;}
	.st53{fill:#F26B95;}
	.st54{fill:#F2A775;}
	.st55{fill:#2463FF;}
	.st56{fill:#24A9E6;}
	.st57{fill:#24AEF0;}
	.st58{fill:#F34B78;}
	.st59{fill:#25D600;}
	.st60{fill:#25D800;}
	.st61{fill:#F46300;}
	.st62{fill:#F4921E;}
	.st63{fill:#F4F1E6;}
	.st64{fill:#F72B2B;}
	.st65{fill:#F7441C;}
	.st66{fill:#F7851E;}
	.st67{fill:#5CAA4F;}
	.st68{fill:#F7A56D;}
	.st69{fill:#F7B257;}
	.st70{fill:#F7B92B;}
	.st71{fill:#F8571D;}
	.st72{fill:#F91D80;}
	.st73{fill:#F92E64;}
	.st74{fill:#F93838;}
	.st75{fill:#F9A121;}
	.st76{fill:#F9BD28;}
	.st77{fill:#F9D5AA;}
	.st78{fill:#5FB2A2;}
	.st79{fill:#9165B7;}
	.st80{fill:#95C675;}
	.st81{fill:#2A98F2;}
	.st82{fill:#2AC106;}
	.st83{fill:#C6232C;}
	.st84{fill:#C6402A;}
	.st85{fill:#FA7B7A;}
	.st86{fill:#FA9826;}
	.st87{fill:#2CC64D;}
	.st88{fill:#FB6620;}
	.st89{fill:#C7D5E0;}
	.st90{fill:#C8131A;}
	.st91{fill:#2DB487;}
	.st92{fill:#FC732D;}
	.st93{fill:#C8D8E8;}
	.st94{fill:#2ED3FF;}
	.st95{fill:#FF0DA9;}
	.st96{fill:#FF4743;}
	.st97{fill:#FF6155;}
	.st98{fill:#FF7639;}
	.st99{fill:#FF7676;}
	.st100{fill:#FF88AD;}
	.st101{fill:#FF9064;}
	.st102{fill:#FFA506;}
	.st103{fill:#FFBE8D;}
	.st104{fill:#FFEB5A;}
	.st105{fill:#FFF19C;}
	.st106{fill:#FFFDF5;}
	.st107{fill:#FFFFFF;}
	.st108{fill:#63C605;}
	.st109{fill:#64C0FF;}
	.st110{fill:#66A00A;}
	.st111{fill:#CAFFE9;}
	.st112{fill:#680719;}
	.st113{fill:none;stroke:#FCE2AE;stroke-width:3;stroke-linecap:round;stroke-linejoin:round;stroke-miterlimit:10;}
	.st114{fill:#CC2414;}
	.st115{fill:#CC4521;}
	.st116{fill:#9DEACE;}
	.st117{fill:#303030;}
	.st118{fill:#CE1721;}
	.st119{fill:#33363A;}
	.st120{fill:#337BD1;}
	.st121{fill:#6A7C7C;}
	.st122{fill:#37D660;}
	.st123{fill:#384948;}
	.st124{fill:#38B4F9;}
	.st125{fill:#6CA9EA;}
	.st126{fill:#6D8599;}
	.st127{fill:#0097E2;}
	.st128{fill:#00997C;}
	.st129{fill:#00A4DD;}
	.st130{fill:#0399FF;}
	.st131{fill:#D33F26;}
	.st132{fill:#0695ED;}
	.st133{fill:#0779EA;}
	.st134{fill:#079332;}
	.st135{fill:#D6381E;}
	.st136{fill:#3BAA00;}
	.st137{fill:#D6E5EA;}
	.st138{fill:#D6E7EA;}
	.st139{fill:#08A548;}
	.st140{fill:#08BC26;}
	.st141{fill:#D80B0B;}
	.st142{fill:#D8532B;}
	.st143{fill:#3DC8F9;}
	.st144{fill:#3E77BF;}
	.st145{fill:#3E8AF7;}
	.st146{fill:#D9E5ED;}
	.st147{fill:#72818E;}
	.st148{fill:#0A78DD;}
	.st149{fill:#0A8CDD;}
	.st150{fill:#A52D21;}
	.st151{fill:#76CEFF;}
	.st152{fill:#76DB00;}
	.st153{fill:#0C86EA;}
	.st154{fill:#DB0F4E;}
	.st155{fill:#A7B7B6;}
	.st156{fill:#0DBA5B;}
	.st157{fill:#79B259;}
	.st158{fill:#0E73D8;}
	.st159{fill:#0E78D8;}
	.st160{fill:#0E8971;}
	.st161{fill:#A981D3;}
	.st162{fill:#DD4B4B;}
	.st163{fill:#4087ED;}
	.st164{fill:#40A557;}
	.st165{fill:#40E269;}
	.st166{fill:#DFC7FF;}
	.st167{fill:#DFEFEF;}
	.st168{fill:#44FCB6;}
]]>
</style><g><g><path class="st13" d="M53.527,90.436c0.475-2.974,3.045-5.166,6.078-5.166h12.646c24.853,0,44.304-10.013,49.987-38.977    c0.168-0.858,0.445-2.507,0.445-2.507c1.612-10.717-0.017-17.992-5.851-24.588c-6.427-7.264-18.036-10.379-32.892-10.379H40.83    c-3.04,0-5.624,2.195-6.104,5.167L16.775,126.935c-0.357,2.23,1.382,4.246,3.659,4.246h26.617l6.681-42.062L53.527,90.436z"/><path class="st120" d="M34.727,19.9c0.479-2.971,3.063-5.167,6.104-5.167h43.111c14.855,0,26.465,3.115,32.892,10.379    c3.855,4.364,5.842,9.047,6.302,14.801c0.688-8.656-1.199-14.944-6.302-20.715c-6.427-7.264-18.036-10.379-32.892-10.379H40.83    c-3.04,0-5.624,2.195-6.104,5.167L16.775,126.935c-0.147,0.924,0.078,1.801,0.538,2.522L34.727,19.9z"/><path class="st26" d="M53.527,90.436c0.475-2.974,3.045-5.166,6.078-5.166h12.646c24.853,0,44.304-10.013,49.987-38.977    c0.168-0.858,0.445-2.507,0.445-2.507c1.612-10.717-0.017-17.992-5.851-24.588c-6.427-7.264-18.036-10.379-32.892-10.379H40.83    c-3.04,0-5.624,2.195-6.104,5.167L16.775,126.935c-0.357,2.23,1.382,4.246,3.659,4.246h26.617l6.681-42.062L53.527,90.436z"/></g><g><path class="st15" d="M69.738,60.548c0.157-0.986,1.009-1.713,2.014-1.713h4.19c8.234,0,14.68-3.316,16.562-12.914    c0.056-0.284,0.147-0.83,0.147-0.83c0.535-3.551-0.005-5.963-1.938-8.148c-2.129-2.406-5.976-3.438-10.898-3.438H65.531    c-1.008,0-1.864,0.728-2.022,1.712l-5.948,37.426c-0.118,0.739,0.458,1.406,1.213,1.406h8.819l2.214-13.938L69.738,60.548z"/><path class="st107" d="M69.738,54.26c0.157-0.985,1.009-1.712,2.014-1.712h4.19c8.234,0,14.68-3.317,16.562-12.914    c0.056-0.285,0.147-0.831,0.147-0.831c0.535-3.551-0.005-5.962-1.938-8.147c-2.129-2.407-5.976-3.439-10.898-3.439H65.531    c-1.008,0-1.864,0.728-2.022,1.712l-5.948,37.425c-0.118,0.739,0.458,1.407,1.213,1.407h8.819l2.214-13.938L69.738,54.26z"/><path class="st26" d="M69.738,54.26c0.157-0.985,1.009-1.712,2.014-1.712h4.19c8.234,0,14.68-3.317,16.562-12.914    c0.056-0.285,0.147-0.831,0.147-0.831c0.535-3.551-0.005-5.962-1.938-8.147c-2.129-2.407-5.976-3.439-10.898-3.439H65.531    c-1.008,0-1.864,0.728-2.022,1.712l-5.948,37.425c-0.118,0.739,0.458,1.407,1.213,1.407h8.819l2.214-13.938L69.738,54.26z"/></g></g></svg>