<?xml version="1.0" ?><!DOCTYPE svg  PUBLIC '-//W3C//DTD SVG 1.1//EN'  'http://www.w3.org/Graphics/SVG/1.1/DTD/svg11.dtd'><svg height="140px" id="Layer_1" style="enable-background:new 0 0 140 140;" version="1.1" viewBox="0 0 140 140" width="140px" xml:space="preserve" xmlns="http://www.w3.org/2000/svg" xmlns:xlink="http://www.w3.org/1999/xlink"><style type="text/css">
<![CDATA[
	.st0{fill:#47BBF4;}
	.st1{fill:#7BEA06;}
	.st2{fill:#49E500;}
	.st3{fill:#7ED1B5;}
	.st4{fill:#1083DD;}
	.st5{fill:#7FBA0D;}
	.st6{fill:#E01726;}
	.st7{fill:#129AFF;}
	.st8{fill:#E2102E;}
	.st9{fill:#E2137A;}
	.st10{fill:#E2573B;}
	.st11{fill:#E2A60E;}
	.st12{fill:#E3443A;}
	.st13{fill:#1558BA;}
	.st14{fill:#159B81;}
	.st15{fill:#1644B7;}
	.st16{fill:#168BF4;}
	.st17{fill:#E51F32;}
	.st18{fill:#E6EFE8;}
	.st19{fill:#187FB8;}
	.st20{fill:#4C5054;}
	.st21{fill:#4C822A;}
	.st22{fill:#E8F9F8;}
	.st23{fill:#4F5459;}
	.st24{fill:#4FCCED;}
	.st25{fill:#B0C6C4;}
	.st26{fill:none;stroke:#33363A;stroke-width:3;stroke-linecap:round;stroke-linejoin:round;stroke-miterlimit:10;}
	.st27{fill:#859392;}
	.st28{fill:#1A68E5;}
	.st29{fill:#1A70F9;}
	.st30{fill:#1B8EED;}
	.st31{fill:#EA4606;}
	.st32{fill:#EA7B0C;}
	.st33{fill:#EAF4F9;}
	.st34{fill:#B70E10;}
	.st35{fill:#1CB1E6;}
	.st36{fill:#1CDDF7;}
	.st37{fill:#EDC211;}
	.st38{fill:#EF8114;}
	.st39{fill:#55932C;}
	.st40{fill:#569FEF;}
	.st41{fill:#BA30CE;}
	.st42{fill:#BA3A3A;}
	.st43{fill:#8CF41E;}
	.st44{fill:#59C96E;}
	.st45{fill:#8E0919;}
	.st46{fill:#20B5EC;}
	.st47{fill:#21CE52;}
	.st48{fill:#21D844;}
	.st49{fill:#F17250;}
	.st50{fill:#2364CE;}
	.st51{fill:#F2303F;}
	.st52{fill:#F24444;}
	.st53{fill:#F26B95;}
	.st54{fill:#F2A775;}
	.st55{fill:#2463FF;}
	.st56{fill:#24A9E6;}
	.st57{fill:#24AEF0;}
	.st58{fill:#F34B78;}
	.st59{fill:#25D600;}
	.st60{fill:#25D800;}
	.st61{fill:#F46300;}
	.st62{fill:#F4921E;}
	.st63{fill:#F4F1E6;}
	.st64{fill:#F72B2B;}
	.st65{fill:#F7441C;}
	.st66{fill:#F7851E;}
	.st67{fill:#5CAA4F;}
	.st68{fill:#F7A56D;}
	.st69{fill:#F7B257;}
	.st70{fill:#F7B92B;}
	.st71{fill:#F8571D;}
	.st72{fill:#F91D80;}
	.st73{fill:#F92E64;}
	.st74{fill:#F93838;}
	.st75{fill:#F9A121;}
	.st76{fill:#F9BD28;}
	.st77{fill:#F9D5AA;}
	.st78{fill:#5FB2A2;}
	.st79{fill:#9165B7;}
	.st80{fill:#95C675;}
	.st81{fill:#2A98F2;}
	.st82{fill:#2AC106;}
	.st83{fill:#C6232C;}
	.st84{fill:#C6402A;}
	.st85{fill:#FA7B7A;}
	.st86{fill:#FA9826;}
	.st87{fill:#2CC64D;}
	.st88{fill:#FB6620;}
	.st89{fill:#C7D5E0;}
	.st90{fill:#C8131A;}
	.st91{fill:#2DB487;}
	.st92{fill:#FC732D;}
	.st93{fill:#C8D8E8;}
	.st94{fill:#2ED3FF;}
	.st95{fill:#FF0DA9;}
	.st96{fill:#FF4743;}
	.st97{fill:#FF6155;}
	.st98{fill:#FF7639;}
	.st99{fill:#FF7676;}
	.st100{fill:#FF88AD;}
	.st101{fill:#FF9064;}
	.st102{fill:#FFA506;}
	.st103{fill:#FFBE8D;}
	.st104{fill:#FFEB5A;}
	.st105{fill:#FFF19C;}
	.st106{fill:#FFFDF5;}
	.st107{fill:#FFFFFF;}
	.st108{fill:#63C605;}
	.st109{fill:#64C0FF;}
	.st110{fill:#66A00A;}
	.st111{fill:#CAFFE9;}
	.st112{fill:#680719;}
	.st113{fill:none;stroke:#FCE2AE;stroke-width:3;stroke-linecap:round;stroke-linejoin:round;stroke-miterlimit:10;}
	.st114{fill:#CC2414;}
	.st115{fill:#CC4521;}
	.st116{fill:#9DEACE;}
	.st117{fill:#303030;}
	.st118{fill:#CE1721;}
	.st119{fill:#33363A;}
	.st120{fill:#337BD1;}
	.st121{fill:#6A7C7C;}
	.st122{fill:#37D660;}
	.st123{fill:#384948;}
	.st124{fill:#38B4F9;}
	.st125{fill:#6CA9EA;}
	.st126{fill:#6D8599;}
	.st127{fill:#0097E2;}
	.st128{fill:#00997C;}
	.st129{fill:#00A4DD;}
	.st130{fill:#0399FF;}
	.st131{fill:#D33F26;}
	.st132{fill:#0695ED;}
	.st133{fill:#0779EA;}
	.st134{fill:#079332;}
	.st135{fill:#D6381E;}
	.st136{fill:#3BAA00;}
	.st137{fill:#D6E5EA;}
	.st138{fill:#D6E7EA;}
	.st139{fill:#08A548;}
	.st140{fill:#08BC26;}
	.st141{fill:#D80B0B;}
	.st142{fill:#D8532B;}
	.st143{fill:#3DC8F9;}
	.st144{fill:#3E77BF;}
	.st145{fill:#3E8AF7;}
	.st146{fill:#D9E5ED;}
	.st147{fill:#72818E;}
	.st148{fill:#0A78DD;}
	.st149{fill:#0A8CDD;}
	.st150{fill:#A52D21;}
	.st151{fill:#76CEFF;}
	.st152{fill:#76DB00;}
	.st153{fill:#0C86EA;}
	.st154{fill:#DB0F4E;}
	.st155{fill:#A7B7B6;}
	.st156{fill:#0DBA5B;}
	.st157{fill:#79B259;}
	.st158{fill:#0E73D8;}
	.st159{fill:#0E78D8;}
	.st160{fill:#0E8971;}
	.st161{fill:#A981D3;}
	.st162{fill:#DD4B4B;}
	.st163{fill:#4087ED;}
	.st164{fill:#40A557;}
	.st165{fill:#40E269;}
	.st166{fill:#DFC7FF;}
	.st167{fill:#DFEFEF;}
	.st168{fill:#44FCB6;}
]]>
</style><g><g><line class="st26" x1="7.273" x2="12.523" y1="113.653" y2="113.653"/><line class="st26" x1="22.854" x2="36.707" y1="113.653" y2="113.653"/><line class="st26" x1="17.248" x2="18.229" y1="113.653" y2="113.653"/></g><rect class="st18" height="66.682" width="52.072" x="45.77" y="45.708"/><path class="st107" d="M80.961,70.868c0,0-3.691-1.979-8.213-1.979c-6.635,0-6.971,4.184-6.971,5.236   c0,5.754,14.922,7.959,14.922,21.434c0,10.6-6.689,17.426-15.713,17.426c-10.824,0-16.363-6.771-16.363-6.771l2.9-9.623   c0,0,5.691,4.91,10.494,4.91c3.135,0,4.412-2.482,4.412-4.297c0-7.504-12.242-7.84-12.242-20.17   c0-10.377,7.412-20.422,22.375-20.422c5.764,0,8.615,1.66,8.615,1.66L80.961,70.868z"/><g><g><path class="st80" d="M119.689,35.173c-0.4-0.037-8.898-0.668-8.898-0.668s-5.904-5.889-6.551-6.539     c-0.65-0.652-1.914-0.453-2.406-0.307c-0.07,0.02-1.289,0.398-3.303,1.021c-1.975-5.701-5.453-10.941-11.572-10.941     c-0.168,0-0.346,0.008-0.518,0.018c-1.742-2.312-3.898-3.32-5.762-3.32c-14.26,0-21.074,17.92-23.211,27.021     c-5.543,1.725-9.479,2.953-9.979,3.111c-3.096,0.977-3.193,1.072-3.598,4c-0.309,2.221-8.4,65.121-8.4,65.121l63.062,11.873     l34.172-7.43c0,0-11.992-81.498-12.068-82.059C120.58,35.517,120.094,35.206,119.689,35.173z M85.973,31.968     c0,0.217-0.002,0.42-0.002,0.621c-3.475,1.08-7.242,2.254-11.021,3.432c2.121-8.23,6.096-12.207,9.576-13.707     C85.398,24.522,85.973,27.692,85.973,31.968z M80.285,18.28c0.621,0,1.238,0.213,1.832,0.623     c-4.572,2.16-9.469,7.604-11.537,18.473c-3.023,0.941-5.979,1.865-8.713,2.715C64.291,31.796,70.045,18.28,80.285,18.28z      M82.744,66.743c0,0-3.691-1.979-8.215-1.979c-6.635,0-6.969,4.184-6.969,5.234c0,5.756,14.92,7.961,14.92,21.436     c0,10.6-6.689,17.424-15.713,17.424c-10.824,0-16.361-6.77-16.361-6.77l2.898-9.623c0,0,5.691,4.91,10.496,4.91     c3.133,0,4.412-2.484,4.412-4.297c0-7.504-12.244-7.842-12.244-20.172c0-10.375,7.414-20.42,22.377-20.42     c5.762,0,8.613,1.66,8.613,1.66L82.744,66.743z M89.711,31.427c0-0.381,0.002-0.75,0.002-1.158c0-3.541-0.49-6.395-1.275-8.658     c3.154,0.396,5.256,4.006,6.607,8.156C93.465,30.259,91.664,30.819,89.711,31.427z"/></g><g><path class="st157" d="M35.492,113.69l63.062,11.873l34.172-7.43c0,0-11.992-81.498-12.068-82.059     c-0.078-0.559-0.564-0.869-0.969-0.902c-0.4-0.037-8.898-0.668-8.898-0.668s-5.904-5.889-6.551-6.539     c-0.65-0.652-1.914-0.453-2.406-0.307c-0.07,0.02-1.289,0.398-3.303,1.021c-1.975-5.701-5.453-10.941-11.572-10.941     c-0.168,0-0.346,0.008-0.518,0.018c-1.742-2.312-3.898-3.32-5.762-3.32c-14.26,0-17.777,17.92-19.914,27.021 M85.973,31.968     c0,0.217-0.002,0.42-0.002,0.621c-3.475,1.08-7.242,2.254-11.021,3.432c2.121-8.23,6.096-12.207,9.576-13.707     C85.398,24.522,85.973,27.692,85.973,31.968z M80.285,18.28c0.621,0,1.238,0.213,1.832,0.623     c-4.572,2.16-9.469,7.604-11.537,18.473c-3.023,0.941-5.979,1.865-8.713,2.715C64.291,31.796,70.045,18.28,80.285,18.28z      M82.744,66.743c0,0-3.691-1.979-8.215-1.979c-6.635,0-6.969,4.184-6.969,5.234c0,5.756,14.92,7.961,14.92,21.436     c0,10.6-6.689,17.424-15.713,17.424c-10.824,0-16.361-6.77-16.361-6.77l2.898-9.623c0,0,5.691,4.91,10.496,4.91     c3.133,0,4.412-2.484,4.412-4.297c0-7.504-12.244-7.842-12.244-20.172c0-10.375,7.414-20.42,22.377-20.42     c5.762,0,8.613,1.66,8.613,1.66L82.744,66.743z M89.711,31.427c0-0.381,0.002-0.75,0.002-1.158c0-3.541-0.49-6.395-1.275-8.658     c3.154,0.396,5.256,4.006,6.607,8.156C93.465,30.259,91.664,30.819,89.711,31.427z"/></g><path class="st39" d="M98.555,125.563l34.172-7.43c0,0-11.992-81.498-12.068-82.059c-0.078-0.559-0.564-0.869-0.969-0.902    c-0.4-0.037-8.898-0.668-8.898-0.668s-5.904-5.889-6.551-6.539c-0.348-0.348-0.863-0.445-1.35-0.449    c-1.299,2.197-1.029,6.369-1.029,6.369l-4.02,91.543L98.555,125.563z"/><path class="st119" d="M86.959,17.739c-0.168,0-0.346,0.008-0.518,0.018c-1.742-2.312-3.898-3.32-5.762-3.32    c-14.203,0-21.021,17.777-23.184,26.914l4.404-1.365c2.439-8.301,8.184-21.705,18.385-21.705c0.621,0,1.238,0.213,1.832,0.623    c-4.561,2.154-9.441,7.58-11.52,18.391l4.375-1.352c2.125-8.178,6.086-12.135,9.553-13.629c0.873,2.209,1.447,5.379,1.447,9.654    c0,0.197,0,0.381-0.002,0.566l3.74-1.156c0-0.361,0.002-0.719,0.002-1.109c0-3.541-0.49-6.395-1.275-8.658    c3.145,0.395,5.244,3.986,6.594,8.121l3.49-1.082C96.545,22.96,93.066,17.739,86.959,17.739z"/><path class="st26" d="M86.959,17.739c-0.168,0-0.346,0.008-0.518,0.018c-1.742-2.312-3.898-3.32-5.762-3.32    c-14.203,0-21.021,17.777-23.184,26.914l4.404-1.365c2.439-8.301,8.184-21.705,18.385-21.705c0.621,0,1.238,0.213,1.832,0.623    c-4.561,2.154-9.441,7.58-11.52,18.391l4.375-1.352c2.125-8.178,6.086-12.135,9.553-13.629c0.873,2.209,1.447,5.379,1.447,9.654    c0,0.197,0,0.381-0.002,0.566l3.74-1.156c0-0.361,0.002-0.719,0.002-1.109c0-3.541-0.49-6.395-1.275-8.658    c3.145,0.395,5.244,3.986,6.594,8.121l3.49-1.082C96.545,22.96,93.066,17.739,86.959,17.739z"/><path class="st21" d="M112.219,34.612c-0.852-0.064-1.428-0.107-1.428-0.107s-5.904-5.889-6.551-6.539    c-0.348-0.348-0.863-0.445-1.35-0.449c-1.299,2.197-1.029,6.369-1.029,6.369l-4.02,91.543l0.713,0.135l18.184-3.953    L112.219,34.612z"/><g><path class="st26" d="M119.689,35.173c-0.4-0.037-8.898-0.668-8.898-0.668s-5.904-5.889-6.551-6.539     c-0.65-0.652-1.914-0.453-2.406-0.307c-0.07,0.02-1.289,0.398-3.303,1.021c-1.975-5.701-5.453-10.941-11.572-10.941     c-0.168,0-0.346,0.008-0.518,0.018c-1.742-2.312-3.898-3.32-5.762-3.32c-14.26,0-21.074,17.92-23.211,27.021     c-5.543,1.725-9.479,2.953-9.979,3.111c-3.096,0.977-3.193,1.072-3.598,4c-0.309,2.221-8.4,65.121-8.4,65.121l63.062,11.873     l34.172-7.43c0,0-11.992-81.498-12.068-82.059C120.58,35.517,120.094,35.206,119.689,35.173z M85.973,31.968     c0,0.217-0.002,0.42-0.002,0.621c-3.475,1.08-7.242,2.254-11.021,3.432c2.121-8.23,6.096-12.207,9.576-13.707     C85.398,24.522,85.973,27.692,85.973,31.968z M80.285,18.28c0.621,0,1.238,0.213,1.832,0.623     c-4.572,2.16-9.469,7.604-11.537,18.473c-3.023,0.941-5.979,1.865-8.713,2.715C64.291,31.796,70.045,18.28,80.285,18.28z      M82.744,66.743c0,0-3.691-1.979-8.215-1.979c-6.635,0-6.969,4.184-6.969,5.234c0,5.756,14.92,7.961,14.92,21.436     c0,10.6-6.689,17.424-15.713,17.424c-10.824,0-16.361-6.77-16.361-6.77l2.898-9.623c0,0,5.691,4.91,10.496,4.91     c3.133,0,4.412-2.484,4.412-4.297c0-7.504-12.244-7.842-12.244-20.172c0-10.375,7.414-20.42,22.377-20.42     c5.762,0,8.613,1.66,8.613,1.66L82.744,66.743z M89.711,31.427c0-0.381,0.002-0.75,0.002-1.158c0-3.541-0.49-6.395-1.275-8.658     c3.154,0.396,5.256,4.006,6.607,8.156C93.465,30.259,91.664,30.819,89.711,31.427z"/></g></g></g></svg>