<?xml version="1.0" ?><!DOCTYPE svg  PUBLIC '-//W3C//DTD SVG 1.1//EN'  'http://www.w3.org/Graphics/SVG/1.1/DTD/svg11.dtd'><svg height="512px" style="enable-background:new 0 0 512 512;" version="1.1" viewBox="0 0 512 512" width="512px" xml:space="preserve" xmlns="http://www.w3.org/2000/svg" xmlns:xlink="http://www.w3.org/1999/xlink"><g id="comp_x5F_4-acquisitions-incorporated"><g><g><path d="M430.859,437.91H291v-150l50-10l9.475,40.051l-21.646-0.051l2.172,30h96.356l-3.593-30.488     L301,68.638h119.171l9.609-44.548H82.22l9.609,44.548H211L88.236,317.422l-3.593,30.488H181l2.172-30l-21.646,0.051L171,277.91     l50,10v150H81.141L71,487.91h170h30h170L430.859,437.91z M256,234.804l-60-20l60-110.713l60,110.713L256,234.804z" style="fill:#D30000;"/><path d="M441,497.91H71c-3,0-5.843-1.348-7.742-3.671c-1.899-2.323-2.655-5.376-2.058-8.316l10.14-50     c0.946-4.662,5.044-8.013,9.801-8.013H211V296.108l-32.492-6.498l-4.334,18.321l8.974-0.021c2.754,0.02,5.44,1.146,7.337,3.181     c1.897,2.034,2.861,4.767,2.66,7.541l-2.171,30c-0.379,5.229-4.731,9.278-9.974,9.278H84.644c-2.856,0-5.576-1.221-7.473-3.355     c-1.898-2.135-2.792-4.979-2.458-7.814l3.593-30.488c0.133-1.132,0.459-2.233,0.963-3.255L194.914,78.638H91.829     c-4.71,0-8.782-3.287-9.775-7.892l-9.609-44.548c-0.638-2.954,0.096-6.038,1.994-8.39c1.898-2.352,4.758-3.718,7.781-3.718     H429.78c3.022,0,5.883,1.367,7.781,3.718c1.898,2.352,2.631,5.436,1.994,8.39l-9.609,44.548     c-0.993,4.604-5.065,7.892-9.775,7.892H317.086l115.646,234.359c0.504,1.021,0.83,2.123,0.964,3.255l3.516,29.837     c0.108,0.591,0.165,1.199,0.165,1.821c0,5.522-4.477,10-10,10c-0.006,0-0.014,0-0.02,0H331c-5.242,0-9.596-4.049-9.974-9.278     l-2.172-30c-0.201-2.774,0.763-5.507,2.66-7.541c1.892-2.029,4.54-3.181,7.313-3.181c0.008,0,0.016,0,0.023,0l8.975,0.021     l-4.334-18.321L301,296.108V427.91h129.859c4.757,0,8.855,3.351,9.801,8.013l10.141,50c0.596,2.94-0.159,5.993-2.059,8.316     S444.001,497.91,441,497.91z M83.232,477.91h345.537l-6.085-30H291c-5.522,0-10-4.478-10-10v-150     c0-4.767,3.364-8.871,8.039-9.806l50-10c5.28-1.061,10.452,2.261,11.692,7.504l9.475,40.051c0.705,2.979,0.006,6.116-1.896,8.515     c-1.897,2.393-4.783,3.787-7.836,3.787c-0.008,0-0.016,0-0.023,0l-10.871-0.025l0.723,9.975h75.806l-2.074-17.607L292.032,73.063     c-1.529-3.1-1.35-6.77,0.476-9.705c1.824-2.936,5.036-4.72,8.492-4.72h111.098l5.296-24.548H94.607l5.295,24.548H211     c3.457,0,6.668,1.785,8.493,4.72s2.004,6.605,0.475,9.705L97.966,320.303l-2.075,17.607h75.807l0.722-9.975l-10.871,0.025     c-0.008,0-0.016,0-0.023,0c-3.053,0-5.938-1.395-7.835-3.787c-1.902-2.398-2.601-5.536-1.896-8.515l9.475-40.051     c1.24-5.243,6.412-8.566,11.692-7.504l50,10c4.674,0.935,8.039,5.039,8.039,9.806v150c0,5.522-4.477,10-10,10H89.316     L83.232,477.91z M256,244.804c-1.068,0-2.136-0.171-3.162-0.513l-60-20c-2.805-0.935-5.052-3.063-6.139-5.813     c-1.086-2.75-0.9-5.839,0.509-8.438l60-110.713c1.749-3.226,5.123-5.235,8.792-5.235s7.044,2.009,8.792,5.235l60,110.713     c1.408,2.599,1.595,5.689,0.509,8.438c-1.086,2.75-3.334,4.878-6.139,5.813l-60,20C258.136,244.633,257.068,244.804,256,244.804z      M210.472,209.087L256,224.263l45.527-15.176L256,125.078L210.472,209.087z" style="fill:#9E0000;"/></g></g></g><g id="Layer_1"/></svg>