<?xml version="1.0" ?><!DOCTYPE svg  PUBLIC '-//W3C//DTD SVG 1.1//EN'  'http://www.w3.org/Graphics/SVG/1.1/DTD/svg11.dtd'><svg height="512px" style="enable-background:new 0 0 512 512;" version="1.1" viewBox="0 0 512 512" width="512px" xml:space="preserve" xmlns="http://www.w3.org/2000/svg" xmlns:xlink="http://www.w3.org/1999/xlink"><g id="_x32_1_x2C__Edge_Animate_x2C__Adobe"><g><g><rect height="492" style="fill:#FF4A19;" width="492" x="10" y="10"/><g><path d="M501.508,512H10.492C4.697,512,0,507.303,0,501.508V10.492C0,4.697,4.697,0,10.492,0h491.016      C507.303,0,512,4.697,512,10.492v491.016C512,507.303,507.303,512,501.508,512z M21,491h470V21H21V491z" style="fill:#BF3813;"/></g></g><g><rect height="426" style="fill:#260600;" width="426" x="43" y="43"/><g><path d="M480,469.508c0,5.795-4.697,10.492-10.492,10.492H43.492C37.698,480,33,475.303,33,469.508      V43.492C33,37.698,37.698,33,43.492,33h426.016C475.303,33,480,37.698,480,43.492V469.508z M54,458h404V54H54V458z" style="fill:#1D0500;"/></g></g><g><g><g id="XMLID_18_"><path d="M152.361,304.67l-17.731,58.815c-0.291,2.027-1.164,2.703-2.907,2.703h-29.651       c-2.038,0-2.621-1.013-2.038-3.379c15.697-51.713,42.154-137.904,60.759-196.379c0.874-3.379,1.743-6.762,2.325-18.592       c0-1.349,0.874-2.025,1.747-2.025h40.116c1.456,0,1.747,0.336,2.325,1.689c21.516,69.288,45.062,145.679,67.155,215.644       c0.583,2.03,0,3.043-1.741,3.043h-32.56c-1.455,0-2.038-0.676-2.62-2.03l-18.604-59.488H152.361z M211.086,271.549       c-5.815-22.646-20.06-68.278-25.875-91.935h-0.287c-4.363,22.307-16.279,60.501-25.001,91.935H211.086z" id="XMLID_16_" style="fill:#FF4A19;"/></g><g id="XMLID_11_"><path d="M290.212,240.729c0-11.494,0.497-21.278-0.073-28.04       c0-1.689,0.286-2.706,1.996-2.706c0,0,45.821-13.672,73.201-11.507c21.927,1.734,46.846,13.86,46.846,68.616v96.327       c0,1.693-0.862,2.707-2.288,2.707h-29.705c-1.715,0-2.571-1.014-2.571-3.043v-96.332c0-21.967-9.32-37.033-26.457-37.033       c-10.572,0-15.464,1.636-26.67,6.881V363.42c0,2.031-0.574,2.707-2.289,2.707h-29.992c-1.431,0-1.997-0.676-1.997-3.043       V240.729z" id="XMLID_54_" style="fill:#FF4A19;"/></g></g></g></g></g><g id="Layer_1"/></svg>