<?xml version="1.0" ?><!DOCTYPE svg  PUBLIC '-//W3C//DTD SVG 1.1//EN'  'http://www.w3.org/Graphics/SVG/1.1/DTD/svg11.dtd'><svg height="512px" style="enable-background:new 0 0 512 512;" version="1.1" viewBox="0 0 512 512" width="512px" xml:space="preserve" xmlns="http://www.w3.org/2000/svg" xmlns:xlink="http://www.w3.org/1999/xlink"><g id="comp_x5F_19-android"><g><g><g><path d="M135.563,361.034c0,16.111,12.969,29.083,29.082,29.083h19.551l0.296,60.03      c0,36.254,54.234,35.961,54.234,0v-60.03h36.55v60.03c0,36.059,54.527,36.155,54.527,0v-60.03h19.848      c15.917,0,28.886-12.972,28.886-29.083V206.237H135.563V361.034z" style="fill:#A4CA39;"/><path d="M211.528,487.229c-0.001,0-0.001,0-0.003,0c-18.403-0.002-37.034-12.739-37.034-37.081      l-0.247-50.03h-9.6c-21.55,0-39.082-17.532-39.082-39.083V206.237c0-5.523,4.477-10,10-10h242.974c5.522,0,10,4.477,10,10      v154.797c0,21.551-17.444,39.083-38.886,39.083h-9.848v50.03c0,24.344-18.732,37.08-37.236,37.08      c-18.531,0-37.291-12.736-37.291-37.08v-50.03h-16.55v50.03c0,11.135-4.217,21.002-11.875,27.783      C230.081,483.926,221.087,487.229,211.528,487.229z M145.563,216.237v144.797c0,10.522,8.56,19.083,19.082,19.083h19.551      c5.503,0,9.973,4.447,10,9.95l0.296,60.031c0,12.655,9.177,17.129,17.035,17.13c0,0,0.001,0,0.001,0      c4.602,0,8.999-1.557,12.063-4.27c3.407-3.018,5.135-7.328,5.135-12.812v-60.03c0-5.522,4.477-10,10-10h36.55      c5.522,0,10,4.478,10,10v60.03c0,12.607,9.314,17.08,17.291,17.08c7.951,0,17.236-4.473,17.236-17.08v-60.03      c0-5.522,4.478-10,10-10h19.848c10.414,0,18.886-8.561,18.886-19.083V216.237H145.563z" style="fill:#7B982B;"/></g><g><path d="M261,54.772h-10c-66.274,0-120,53.726-120,120l0,0h250l0,0      C381,108.498,327.274,54.772,261,54.772z" style="fill:#A4CA39;"/><path d="M381,184.772H131c-5.523,0-10-4.477-10-10c0-71.682,58.318-130,130-130h10      c71.683,0,130,58.318,130,130C391,180.295,386.522,184.772,381,184.772z M141.451,164.772H370.55      c-5.066-55.988-52.265-100-109.55-100h-10C193.715,64.772,146.517,108.784,141.451,164.772z" style="fill:#7B982B;"/></g><g><path d="M436,354.772L436,354.772c-13.807,0-25-11.193-25-25v-100c0-13.807,11.193-25,25-25l0,0      c13.807,0,25,11.193,25,25v100C461,343.579,449.807,354.772,436,354.772z" style="fill:#A4CA39;"/><path d="M436,364.772c-19.299,0-35-15.701-35-35v-100c0-19.299,15.701-35,35-35s35,15.701,35,35v100      C471,349.071,455.299,364.772,436,364.772z M436,214.772c-8.271,0-15,6.729-15,15v100c0,8.271,6.729,15,15,15s15-6.729,15-15      v-100C451,221.501,444.271,214.772,436,214.772z" style="fill:#7B982B;"/></g><g><path d="M76,354.772L76,354.772c-13.807,0-25-11.193-25-25v-100c0-13.807,11.193-25,25-25l0,0      c13.807,0,25,11.193,25,25v100C101,343.579,89.807,354.772,76,354.772z" style="fill:#A4CA39;"/><path d="M76,364.772c-19.299,0-35-15.701-35-35v-100c0-19.299,15.701-35,35-35s35,15.701,35,35v100      C111,349.071,95.299,364.772,76,364.772z M76,214.772c-8.271,0-15,6.729-15,15v100c0,8.271,6.729,15,15,15s15-6.729,15-15v-100      C91,221.501,84.271,214.772,76,214.772z" style="fill:#7B982B;"/></g><g><path d="M201.511,114.257c0-0.093-0.076-0.172-0.172-0.172c-0.094,0-0.167,0.079-0.167,0.172      c0,0.094,0.076,0.172,0.167,0.172C201.436,114.429,201.511,114.351,201.511,114.257z" style="fill:#A4CA39;"/><path d="M201.339,124.429c-5.606,0-10.167-4.563-10.167-10.172s4.561-10.172,10.167-10.172      c5.609,0,10.172,4.563,10.172,10.172S206.948,124.429,201.339,124.429z M201.339,104.429c-5.419,0-9.828,4.409-9.828,9.828      s4.409,9.828,9.828,9.828c5.422,0,9.833-4.409,9.833-9.828S206.761,104.429,201.339,104.429z" style="fill:#7B982B;"/></g><g><path d="M313.068,114.257c0-0.171-0.138-0.316-0.307-0.316c-0.178,0-0.316,0.145-0.316,0.316      c0,0.172,0.139,0.316,0.316,0.316C312.931,114.573,313.068,114.429,313.068,114.257z" style="fill:#A4CA39;"/><path d="M312.762,124.573c-5.688,0-10.316-4.628-10.316-10.316c0-5.688,4.628-10.316,10.316-10.316      c5.683,0,10.307,4.628,10.307,10.316C323.068,119.945,318.444,124.573,312.762,124.573z M312.762,104.573      c-5.345,0-9.693,4.344-9.693,9.684c0,5.34,4.349,9.684,9.693,9.684c5.34,0,9.684-4.344,9.684-9.684      C322.445,108.917,318.102,104.573,312.762,104.573z" style="fill:#7B982B;"/></g><g><line style="fill:#A4CA39;" x1="361" x2="331" y1="34.772" y2="74.772"/><path d="M330.992,84.772c-2.088,0-4.193-0.651-5.992-2c-4.418-3.313-5.313-9.582-2-14l30-40      c3.314-4.418,9.582-5.313,14-2s5.313,9.582,2,14l-30,40C337.035,83.391,334.032,84.772,330.992,84.772z" style="fill:#7B982B;"/></g><g><line style="fill:#A4CA39;" x1="151" x2="181" y1="34.772" y2="74.772"/><path d="M181.008,84.772c-3.041,0-6.043-1.381-8.008-4l-30-40c-3.313-4.418-2.418-10.687,2-14      c4.419-3.314,10.686-2.418,14,2l30,40c3.313,4.418,2.418,10.687-2,14C185.201,84.121,183.095,84.772,181.008,84.772z" style="fill:#7B982B;"/></g></g></g></g><g id="Layer_1"/></svg>