<?xml version="1.0" ?><!DOCTYPE svg  PUBLIC '-//W3C//DTD SVG 1.1//EN'  'http://www.w3.org/Graphics/SVG/1.1/DTD/svg11.dtd'><svg height="512px" style="enable-background:new 0 0 512 512;" version="1.1" viewBox="0 0 512 512" width="512px" xml:space="preserve" xmlns="http://www.w3.org/2000/svg" xmlns:xlink="http://www.w3.org/1999/xlink"><g id="comp_x5F_42-Bit_Connect"><g><g><g><g><path d="M167.407,186.342c0-19.07,0-37.77,0-56.114c0-1.439-2.114-3.593-3.9-4.702       c-12.123-8.613-18.504-20.482-16.731-35.617c1.767-15.474,9.954-26.258,24.573-31.646c17.805-6.454,38.095,2.16,45.925,19.444       c8.188,17.62,1.812,38.493-14.569,48.215c-3.205,1.765-4.297,3.584-3.949,7.181c0,15.832,0,31.656-0.351,47.848       c0,2.527,0,6.133,0,6.133s3.587,0.72,5.7,1.076c6.433,1.061,12.827,3.219,18.868,5.729c2.151,0.715,3.586,1.811,3.586,1.811       s2.857-2.494,3.553-2.86c28.841-24.864,57.704-49.664,86.555-74.477c12.135-10.433,24.559-21.222,36.69-31.657       c2.135-1.829,3.215-3.245,2.485-6.519c-3.95-17.59,0.728-33.071,14.939-44.217c13.934-11.142,29.261-12.952,45.284-5.398       c16.025,7.58,24.22,21.239,24.558,38.83c0.692,30.978-31.354,52.89-59.51,40.688c-3.19-1.452-4.955-0.725-7.437,1.075       c-38.854,32.007-77.677,63.664-116.862,95.346c-1.418,1.413-2.847,2.502-4.594,3.936       c46.628,39.208,53.416,109.023,14.913,157.917c11.043,13.319,22.456,27.021,33.859,39.928c1.042,1.117,3.553,1.117,5.337,1.117       c19.961-3.645,39.188,8.974,44.193,28.788c4.967,20.118-6.805,40.636-26.379,46.034c-14.619,4.295-27.797,0.709-38.143-10.088       c-10.68-10.774-13.165-24.104-8.869-38.863c0.694-2.88,0.694-4.647-1.056-7.178c-9.282-11.134-18.509-22.675-27.461-34.174       c-1.407-1.469-2.484-2.89-3.89-4.711c-62.365,41.413-141.083,11.554-164.954-51.067c-13.165-33.82-11.014-66.898,7.487-98.573       C105.092,209.014,132.854,191.737,167.407,186.342L167.407,186.342z" style="fill:#FB8614;"/><path d="M312.41,496c-12.608,0-24.216-5.145-33.57-14.878c-12.703-12.854-16.678-29.403-11.517-47.906       c-7.818-9.409-16.162-19.785-24.84-30.892c-18.538,10.504-39.066,16.017-59.888,16.017c-49.618,0-94.695-30.795-112.167-76.63       c-14.429-37.067-11.68-73.149,8.196-107.178c17.276-29.607,44.397-49.013,78.783-56.495v-44.58       c-15.57-11.198-22.68-26.651-20.563-44.713c2.215-19.4,12.952-33.196,31.047-39.865c5.065-1.836,10.323-2.758,15.678-2.758       c18.452,0,35.257,10.778,42.813,27.459c10.191,21.928,2.62,47.707-17.626,60.364c0,14.596-0.006,29.65-0.305,44.852       c5.154,1.056,10.645,2.758,16.649,5.161c21.917-18.892,43.846-37.749,65.772-56.602l19.273-16.574       c6.19-5.322,12.455-10.737,18.718-16.149c5.607-4.846,11.214-9.691,16.763-14.467c-3.969-20.904,2.726-39.313,18.984-52.064       C374.628,20.092,385.567,16,397.05,16c7.669,0,15.501,1.859,23.281,5.527c19.12,9.044,29.874,25.976,30.291,47.683       c0.319,14.28-5.044,27.827-15.104,38.114c-10.066,10.294-23.909,16.199-37.979,16.199c-6.439,0-12.75-1.206-18.782-3.587       c-36.219,29.83-72.721,59.619-111.404,90.913c19.482,19.882,31.513,45.745,34.203,73.975       c2.813,29.52-4.876,58.748-21.731,83.172c8.896,10.703,17.686,21.169,26.551,31.275c2.27-0.325,4.562-0.489,6.838-0.489       c22.179,0,41.508,15.2,47.005,36.965c6.232,25.244-8.724,51.266-33.334,58.101C321.999,495.275,317.13,496,312.41,496z        M244.719,379.216c3.003,0,5.961,1.35,7.923,3.891l0.267,0.346c1.15,1.491,1.981,2.568,2.928,3.558       c0.236,0.246,0.46,0.505,0.67,0.774c9.575,12.299,18.744,23.709,27.251,33.914c0.192,0.229,0.373,0.469,0.544,0.715       c4.063,5.876,3.571,10.986,2.553,15.21c-0.037,0.151-0.077,0.302-0.12,0.451c-3.422,11.757-1.339,21.252,6.37,29.028       c0.039,0.04,0.079,0.081,0.118,0.121c7.794,8.135,17.259,10.6,28.104,7.412c0.053-0.016,0.106-0.03,0.159-0.045       c14.313-3.947,22.983-19.198,19.329-33.998c-3.238-12.82-14.594-21.811-27.601-21.811c-1.692,0-3.403,0.156-5.088,0.463       c-0.593,0.108-1.193,0.163-1.796,0.163c-3.021,0-8.643,0-12.649-4.297c-0.062-0.065-0.122-0.132-0.182-0.199       c-11.431-12.938-22.636-26.383-34.063-40.166c-3.009-3.629-3.075-8.866-0.158-12.569       c35.262-44.778,29.336-108.064-13.492-144.076c-2.275-1.914-3.582-4.741-3.564-7.714c0.018-2.973,1.358-5.784,3.657-7.67       l1.093-0.89c1.131-0.917,2.025-1.641,2.787-2.399c0.245-0.244,0.502-0.475,0.771-0.692       c40.674-32.885,78.877-64.054,116.791-95.288c0.158-0.13,0.32-0.255,0.486-0.376c2.408-1.748,5.752-3.754,10.263-3.754       c2.334,0,4.654,0.532,7.089,1.626c3.974,1.711,8.14,2.58,12.383,2.58c8.721,0,17.352-3.711,23.679-10.182       c6.266-6.407,9.606-14.829,9.408-23.715c-0.272-14.143-6.609-24.23-18.836-30.013C406.71,37.217,401.747,36,397.05,36       c-6.926,0-13.475,2.545-20.022,7.78C366.22,52.257,362.4,63.75,365.6,77.997c2.131,9.563-3.584,14.46-5.735,16.304       c-5.918,5.089-11.919,10.276-17.922,15.464c-6.276,5.424-12.554,10.849-18.756,16.182l-19.274,16.574       c-22.426,19.283-44.854,38.569-67.27,57.894c-0.373,0.321-0.769,0.615-1.184,0.877c-0.477,0.366-1.563,1.279-2.323,1.942       c-3.707,3.235-8.78,3.638-12.541,0.501c-0.161-0.095-0.453-0.249-0.775-0.356c-0.231-0.077-0.458-0.162-0.683-0.255       c-6.312-2.623-11.761-4.29-16.658-5.097c-2.275-0.382-5.89-1.107-6.042-1.138c-4.67-0.938-8.031-5.04-8.031-9.804v-6.133       c0-0.072,0-0.145,0.002-0.217c0.346-15.939,0.349-31.834,0.349-47.214c-0.524-7.167,2.487-12.636,8.956-16.264       c12.007-7.203,16.52-22.369,10.493-35.335c-4.364-9.632-14.018-15.8-24.636-15.8c-3.024,0-5.989,0.519-8.813,1.542       c-10.935,4.031-16.686,11.465-18.045,23.379c-1.259,10.745,2.802,19.309,12.411,26.205c1.986,1.303,8.285,5.99,8.285,12.979       v56.114c0,4.927-3.589,9.12-8.458,9.88c-32.718,5.108-57.296,21.39-73.054,48.394c-16.646,28.498-18.934,58.746-6.805,89.905       c14.562,38.199,52.128,63.819,93.504,63.819c19.831,0,39.403-6.035,56.599-17.455       C240.891,379.76,242.813,379.216,244.719,379.216z" style="fill:#BC650F;"/></g></g></g></g></g><g id="Layer_1"/></svg>