<?xml version="1.0" ?><!DOCTYPE svg  PUBLIC '-//W3C//DTD SVG 1.1//EN'  'http://www.w3.org/Graphics/SVG/1.1/DTD/svg11.dtd'><svg height="512px" style="enable-background:new 0 0 512 512;" version="1.1" viewBox="0 0 512 512" width="512px" xml:space="preserve" xmlns="http://www.w3.org/2000/svg" xmlns:xlink="http://www.w3.org/1999/xlink"><g id="comp_x5F_43-Bit_Shares"><g><g><g><path d="M143.991,54.255c-6.089-5.196-11.845-10.414-18.217-16.255c0,0.903,0,1.54,0,2.15      c0,44.153,0,88.366,0,132.529c0,0.941,0.605,2.136,1.199,2.749c31.285,31.607,62.577,63.201,93.868,94.818      c0.583,0.59,1.229,0.902,1.516,1.232c4.551-1.846,8.813-3.697,13.076-4.949c2.127-0.594,2.43-1.498,2.43-3.348      c0-40.504,0-81.316,0-122.126c0-1.839-0.645-3.053-1.827-4.286C205.346,109.168,174.678,81.846,143.991,54.255z" style="fill:#004D7B;"/><g><path d="M222.359,281.479c-2.39,0-4.734-0.856-6.574-2.462c-0.485-0.35-1.246-0.921-2.054-1.738       c-16.826-17.001-33.653-33.996-50.48-50.991l-43.386-43.824c-0.023-0.024-0.047-0.048-0.071-0.073       c-1.943-2.004-4.02-5.607-4.02-9.71V38c0-3.966,2.343-7.557,5.973-9.153c3.63-1.596,7.861-0.898,10.784,1.782       c6.833,6.264,12.22,11.128,17.952,16.02c0.065,0.056,0.13,0.113,0.194,0.17c15.119,13.594,30.491,27.353,45.356,40.658       c15.299,13.694,31.119,27.854,46.689,41.856c0.183,0.165,0.359,0.336,0.53,0.513c3.102,3.234,4.61,6.9,4.61,11.208v122.126       c0,8.86-6.013,11.918-9.659,12.956c-3.021,0.891-6.28,2.229-9.73,3.644c-0.778,0.319-1.563,0.642-2.358,0.964       C224.896,281.24,223.622,281.479,222.359,281.479z M135.774,170.104l41.69,42.111c15.698,15.854,31.395,31.709,47.094,47.57       c1.092-0.435,2.193-0.861,3.304-1.269l0.001-115.649c-15.072-13.551-30.364-27.239-45.167-40.489       c-14.843-13.286-30.19-27.022-45.295-40.603c-0.545-0.466-1.086-0.93-1.626-1.396V170.104z" style="fill:#001D30;"/></g></g><g><path d="M189.131,319.811c2.258,0,4.781,0.285,7.039,0c0.874,0,1.712-0.6,1.979-1.156      c1.714-4.842,3.409-9.721,5.104-13.666c-25.681-25.959-51.664-52.175-76.771-78.715c0,31.077,0,62.176,0,93.538      c0.847,0,1.96,0,2.798,0C149.332,319.811,169.109,319.811,189.131,319.811z" style="fill:#004D7B;"/><g><path d="M193.843,329.938c-0.935,0-1.881-0.035-2.815-0.073c-0.646-0.025-1.283-0.054-1.896-0.054       h-62.648c-5.523,0-10-4.478-10-10v-93.538c0-4.095,2.497-7.776,6.302-9.291c3.804-1.515,8.149-0.556,10.963,2.419       c24.057,25.43,49.258,50.902,73.629,75.536l2.986,3.019c2.865,2.896,3.687,7.24,2.079,10.982       c-1.415,3.291-2.869,7.405-4.408,11.761l-0.457,1.293c-0.12,0.339-0.258,0.671-0.414,0.995       c-1.843,3.835-5.854,6.488-10.158,6.795C196.029,329.886,194.99,329.938,193.843,329.938z M136.482,309.811h52.648       c0.502,0,1.016,0.011,1.537,0.027c0.296-0.822,0.594-1.641,0.893-2.45c-18.182-18.378-36.803-37.213-55.078-56.172V309.811z" style="fill:#001D30;"/></g></g><g><path d="M172.837,446.77c18.985,16.303,40.841,25.223,65.522,27.23c0-24.371,0-48.129,0-71.9      c-5.126-2.285-10.214-4.293-15.329-6.58C206.571,412.416,189.846,429.607,172.837,446.77z" style="fill:#00548C;"/><g><path d="M238.36,484c-0.27,0-0.541-0.011-0.812-0.033c-26.932-2.19-50.896-12.153-71.226-29.61       c-2.106-1.809-3.366-4.411-3.477-7.186c-0.112-2.773,0.935-5.469,2.889-7.44c15.852-15.995,31.615-32.178,46.859-47.828       l3.274-3.36c2.927-3.004,7.417-3.864,11.245-2.151c2.487,1.112,4.946,2.146,7.549,3.241c2.528,1.063,5.142,2.162,7.77,3.334       c3.605,1.607,5.928,5.186,5.928,9.134V474c0,2.793-1.168,5.459-3.222,7.353C243.285,483.062,240.862,484,238.36,484z        M187.848,445.808c12.258,8.63,25.647,14.194,40.512,16.838v-53.967c-0.48-0.202-0.963-0.405-1.453-0.611       c-0.502-0.211-1.008-0.424-1.517-0.639C213.133,420.013,200.549,432.925,187.848,445.808z" style="fill:#001D30;"/></g></g><g><path d="M289.273,396.182c-3.963,1.451-7.668,3.457-11.635,4.859c-1.701,0.555-2.244,1.438-2.244,3.16      c0,22.291,0,44.891,0,67.191c0,0.605,0,1.434,0,2.607c24.926-2.006,46.713-11.197,65.715-27.475      c-16.707-16.871-33.139-33.74-49.572-50.344C291.26,395.912,289.836,395.912,289.273,396.182z" style="fill:#007FAE;"/><g><path d="M275.394,484c-2.503,0-4.927-0.94-6.78-2.65c-2.052-1.894-3.219-4.558-3.219-7.35v-69.799       c0-6.011,3.357-10.716,8.99-12.616c1.649-0.589,3.373-1.36,5.196-2.176c1.905-0.854,3.874-1.734,6.021-2.531       c1.479-0.597,3.127-0.898,4.91-0.898c4.03,0,6.572,1.648,7.994,3.03c0.047,0.046,0.093,0.091,0.139,0.138       c8.066,8.149,16.277,16.511,24.217,24.596c8.283,8.435,16.848,17.157,25.354,25.746c1.954,1.974,3,4.671,2.886,7.445       c-0.113,2.775-1.376,5.379-3.485,7.186c-20.604,17.649-44.634,27.692-71.419,29.848C275.929,483.989,275.661,484,275.394,484z        M285.395,408.708v53.935c14.839-2.657,28.289-8.301,40.708-17.078c-5.899-5.983-11.773-11.965-17.511-17.808       c-6.594-6.715-13.374-13.619-20.095-20.427c-0.246,0.11-0.494,0.221-0.744,0.333       C286.979,408.01,286.195,408.36,285.395,408.708z" style="fill:#001D30;"/></g></g><g><path d="M196.978,357.094c-0.83-1.893-1.369-2.445-3.266-2.445c-21.373,0-42.436,0-63.827,0      c-0.794,0-1.625,0-2.417,0c2.142,24.326,10.526,45.33,25.959,63.352c16.209-16.65,32.439-32.764,48.129-48.885      C200.188,365.295,198.306,361.203,196.978,357.094z" style="fill:#00548C;"/><g><path d="M153.429,428c-0.106,0-0.213-0.002-0.319-0.005c-2.808-0.09-5.449-1.356-7.277-3.49       c-16.688-19.488-25.954-42.052-28.325-68.979c-0.246-2.794,0.692-5.563,2.587-7.631c1.894-2.068,4.57-3.246,7.375-3.246h66.243       c5.792,0,9.972,2.837,12.424,8.431c0.134,0.307,0.253,0.62,0.356,0.938c0.665,2.056,1.522,4.186,2.43,6.44       c0.693,1.722,1.41,3.502,2.048,5.283c1.289,3.596,0.417,7.611-2.248,10.349c-7.836,8.051-15.957,16.252-23.81,24.184       c-7.967,8.046-16.205,16.365-24.32,24.702C158.708,426.912,156.123,428,153.429,428z M138.882,364.648       c2.572,14.168,7.679,26.773,15.448,38.13c5.506-5.604,11-11.152,16.372-16.577c6.326-6.389,12.826-12.953,19.193-19.455       c-0.277-0.691-0.554-1.39-0.828-2.098H138.882z" style="fill:#001D30;"/></g></g><g><path d="M276.154,282.73c4.807,1.732,9.316,3.443,14.455,5.463c16.402-16.609,33.117-33.78,50.111-50.93      c-18.699-16.045-40.494-25.467-65.715-27.195c0,1.163,0,2.01,0,2.845c0,22.324,0,44.633,0,66.969c0,0.293-0.285,0.834,0,1.127      C275.293,281.611,275.563,282.457,276.154,282.73z" style="fill:#64C6EF;"/><g><path d="M290.607,298.193c-1.229,0-2.469-0.227-3.655-0.693c-5.277-2.073-9.653-3.728-14.188-5.362       c-0.272-0.098-0.541-0.208-0.804-0.329c-3.767-1.74-5.277-4.905-5.883-6.271c-0.827-1.58-1.468-3.77-1.071-6.517v-68.953       c0-2.771,1.149-5.417,3.175-7.309c2.025-1.892,4.746-2.855,7.509-2.668c26.73,1.831,50.801,11.784,71.543,29.583       c2.107,1.808,3.368,4.411,3.48,7.185c0.111,2.774-0.935,5.47-2.889,7.442c-9.451,9.538-18.935,19.204-28.105,28.55       c-7.391,7.532-14.724,15.005-21.994,22.367C295.81,297.159,293.232,298.193,290.607,298.193z M285.006,275.328       c1.017,0.38,2.044,0.768,3.095,1.168c5.743-5.83,11.524-11.722,17.342-17.651c6.632-6.759,13.426-13.683,20.261-20.613       c-12.397-8.712-26.022-14.372-40.697-16.906V275.328z" style="fill:#001D30;"/></g></g><g><path d="M318.061,328c22.436,0,45.145,0,68.166,0c-1.91-24.045-10.549-45.102-25.967-63.402      c-16.225,16.387-32.199,32.768-48.148,49.197C314.014,318.166,315.896,323.053,318.061,328z" style="fill:#37A1D6;"/><g><path d="M386.227,338h-68.166c-3.974,0-7.569-2.353-9.162-5.992c-1.185-2.708-2.268-5.35-3.315-7.903       c-0.916-2.234-1.781-4.345-2.641-6.319c-1.619-3.718-0.831-8.046,1.994-10.956c13.146-13.541,30.506-31.379,48.217-49.268       c1.977-1.996,4.707-3.079,7.508-2.956c2.807,0.112,5.437,1.4,7.246,3.548c16.706,19.829,26.224,43.063,28.288,69.054       c0.221,2.781-0.73,5.528-2.623,7.577C391.68,336.835,389.017,338,386.227,338z M324.697,318h50.18       c-2.493-13.934-7.647-26.56-15.589-38.188c-12.809,12.999-25.119,25.629-35.402,36.212c0.067,0.163,0.134,0.326,0.201,0.49       C324.289,317.007,324.492,317.502,324.697,318z" style="fill:#001D30;"/></g></g><g><path d="M336.064,358c-5.646,0-11.045,0-16.697,0c-0.514,0-1.588,0.551-1.875,1.1      c-1.58,4.086-3.203,8.158-4.572,11.943c16.148,16.334,32.012,32.625,48.148,48.922c14.801-17.666,23.137-38.313,25.035-61.965      c-1.361,0-2.16,0-3.238,0C367.26,358,351.668,358,336.064,358z" style="fill:#007FAE;"/><g><path d="M361.067,429.965c-2.663,0-5.223-1.063-7.104-2.964c-8.475-8.558-17.009-17.252-25.262-25.66       c-7.606-7.75-15.217-15.504-22.893-23.268c-2.713-2.743-3.604-6.804-2.292-10.432c1.063-2.939,2.277-6.056,3.451-9.068       l1.197-3.08c0.136-0.352,0.292-0.695,0.466-1.028c1.991-3.807,6.406-6.465,10.736-6.465h66.736       c2.791,0,5.455,1.167,7.349,3.218c1.893,2.051,2.843,4.8,2.619,7.582c-2.059,25.653-11.257,48.393-27.338,67.587       c-1.807,2.157-4.438,3.453-7.25,3.569C361.345,429.962,361.206,429.965,361.067,429.965z M324.537,368.576       c6.17,6.256,12.305,12.507,18.438,18.754c5.6,5.705,11.328,11.541,17.074,17.372c7.433-11.097,12.294-23.234,14.702-36.702       h-49.99C324.686,368.192,324.611,368.385,324.537,368.576z" style="fill:#001D30;"/></g></g></g></g></g><g id="Layer_1"/></svg>