<?xml version="1.0" ?><!DOCTYPE svg  PUBLIC '-//W3C//DTD SVG 1.1//EN'  'http://www.w3.org/Graphics/SVG/1.1/DTD/svg11.dtd'><svg height="512px" style="enable-background:new 0 0 512 512;" version="1.1" viewBox="0 0 512 512" width="512px" xml:space="preserve" xmlns="http://www.w3.org/2000/svg" xmlns:xlink="http://www.w3.org/1999/xlink"><g id="comp_x5F_71-creative-commons-sa"><g><g><circle cx="256" cy="256" r="229.5"/><path d="M155.375,220.898c12.057-77.811,74.658-88.755,100.996-88.755     c92.557,0,118.244,76.513,118.244,124.459c0,58.983-38.021,123.254-119.542,123.254c-36.076,0-91.907-18.548-101.459-89.959     h57.963c1.392,27.915,18.178,41.918,50.545,41.918c21.608,0,53.788-16.879,53.788-76.789c0-76.512-45.534-74.75-52.583-74.75     c-30.697,0-47.948,13.541-51.75,40.623h16.879l-45.629,45.629l-45.442-45.629H155.375L155.375,220.898z" style="fill:#FFFFFF;"/></g></g></g><g id="Layer_1"/></svg>