<?xml version="1.0" ?><!DOCTYPE svg  PUBLIC '-//W3C//DTD SVG 1.1//EN'  'http://www.w3.org/Graphics/SVG/1.1/DTD/svg11.dtd'><svg height="512px" style="enable-background:new 0 0 512 512;" version="1.1" viewBox="0 0 512 512" width="512px" xml:space="preserve" xmlns="http://www.w3.org/2000/svg" xmlns:xlink="http://www.w3.org/1999/xlink"><g id="comp_x5F_74-creative-commons-share"><g><g><circle cx="256" cy="256" r="229.5"/><g><g><path d="M231,321h-70c-5.523,0-10-4.478-10-10V141c0-5.523,4.477-10,10-10h120c5.522,0,10,4.477,10,10       v60c0,5.523-4.478,10-10,10h-40v100C241,316.522,236.523,321,231,321z M171,301h50V201c0-5.523,4.477-10,10-10h40v-40H171V301z       " style="fill:#FFFFFF;"/></g><g><path d="M351,381H231c-5.523,0-10-4.478-10-10V201c0-5.523,4.477-10,10-10h120c5.522,0,10,4.477,10,10       v170C361,376.522,356.522,381,351,381z M241,361h100V211H241V361z" style="fill:#FFFFFF;"/></g></g></g></g></g><g id="Layer_1"/></svg>