<?xml version="1.0" ?><!DOCTYPE svg  PUBLIC '-//W3C//DTD SVG 1.1//EN'  'http://www.w3.org/Graphics/SVG/1.1/DTD/svg11.dtd'><svg height="512px" style="enable-background:new 0 0 512 512;" version="1.1" viewBox="0 0 512 512" width="512px" xml:space="preserve" xmlns="http://www.w3.org/2000/svg" xmlns:xlink="http://www.w3.org/1999/xlink"><g id="comp_x5F_69-creative-commons-pd-alt"><g><circle cx="256" cy="256" r="229.5"/><g><path d="M334.883,182.333h-57.087v147.227h57.087c22.965,0,75.117-5.473,75.117-73.614     C410,187.913,357.848,182.333,334.883,182.333z" style="fill:#FFFFFF;"/><path d="M335.742,298.763h-21.355v-85.524l20.819-0.107c4.076,0,37.558-2.253,37.558,42.815     C372.764,282.346,361.496,298.763,335.742,298.763z"/><path d="M188.903,182.333h-73.184v147.333h37.127V282.13h28.975c58.054,0,61.273-40.241,61.273-49.898     C243.094,198.966,225.066,182.333,188.903,182.333L188.903,182.333z" style="fill:#FFFFFF;"/><path d="M183.646,254.552h-31.335v-44.64h30.368C215.837,209.912,213.584,254.552,183.646,254.552L183.646,254.552z"/></g></g></g><g id="Layer_1"/></svg>