<?xml version="1.0" ?><!DOCTYPE svg  PUBLIC '-//W3C//DTD SVG 1.1//EN'  'http://www.w3.org/Graphics/SVG/1.1/DTD/svg11.dtd'><svg height="512px" style="enable-background:new 0 0 512 512;" version="1.1" viewBox="0 0 512 512" width="512px" xml:space="preserve" xmlns="http://www.w3.org/2000/svg" xmlns:xlink="http://www.w3.org/1999/xlink"><g id="comp_x5F_85-deviantart"><g><g><g><path d="M399.806,109.679L311.544,250l6.651,29.189h81.61v114.774H260L240,410l-36.221,67.729      c-0.27,0-7.729,7.73-8.268,8.27h-83.317v-83.767L195.961,260l-6.651-27.279h-77.115V118.037H250L270,100l33.814-65.73      c0.271,0,7.729-7.729,8.27-8.269h87.722V109.679z" style="fill:#009544;"/><path d="M195.512,495.999h-83.317c-5.523,0-10-4.478-10-10v-83.767c0-1.785,0.478-3.537,1.383-5.075l81.706-138.733      l-3.829-15.703h-69.26c-5.523,0-10-4.477-10-10V118.037c0-5.523,4.477-10,10-10h133.962l15.788-14.238l32.978-64.104      c0.673-1.307,1.609-2.423,2.726-3.298c0.816-0.775,2.928-2.912,6.287-6.364c0.571-0.587,0.971-0.996,1.085-1.11      c1.875-1.871,4.416-2.922,7.064-2.922h87.722c5.522,0,10,4.477,10,10v83.678c0,1.884-0.532,3.729-1.535,5.324l-86.056,136.814      l3.958,17.372h73.633c5.522,0,10,4.478,10,10v114.774c0,5.522-4.478,10-10,10H263.514l-15.661,12.558l-35.255,65.924      c-0.667,1.246-1.575,2.313-2.649,3.154c-0.822,0.781-2.95,2.936-6.337,6.417c-0.54,0.555-0.915,0.94-1.026,1.051      C200.71,494.944,198.165,495.999,195.512,495.999z M205.455,487.589c-0.541,0.092-1.092,0.14-1.651,0.141      C204.389,487.729,204.94,487.676,205.455,487.589z M122.194,475.999h69.101c0.79-0.809,1.642-1.677,2.432-2.475      c0.738-0.745,1.411-1.424,2.048-2.032l35.407-66.208c0.637-1.191,1.509-2.241,2.563-3.086l20-16.036      c1.774-1.423,3.981-2.198,6.255-2.198h129.806v-94.774h-71.61c-4.667,0-8.713-3.229-9.75-7.778l-6.651-29.189      c-0.59-2.586-0.127-5.301,1.285-7.546l86.727-137.88V36.001h-73.507c-0.802,0.821-1.669,1.704-2.469,2.512      c-0.701,0.707-1.341,1.353-1.949,1.936l-32.988,64.126c-0.554,1.075-1.297,2.042-2.195,2.852l-20,18.037      c-1.837,1.657-4.223,2.574-6.697,2.574H122.194v94.684h67.115c4.61,0,8.623,3.152,9.715,7.631l6.651,27.279      c0.617,2.53,0.223,5.2-1.099,7.444l-82.383,139.883V475.999z M303.748,24.27c-0.557,0.004-1.082,0.053-1.574,0.135      C302.689,24.319,303.215,24.273,303.748,24.27z"/></g></g></g></g><g id="Layer_1"/></svg>