<?xml version="1.0" ?><!DOCTYPE svg  PUBLIC '-//W3C//DTD SVG 1.1//EN'  'http://www.w3.org/Graphics/SVG/1.1/DTD/svg11.dtd'><svg height="512px" style="enable-background:new 0 0 512 512;" version="1.1" viewBox="0 0 512 512" width="512px" xml:space="preserve" xmlns="http://www.w3.org/2000/svg" xmlns:xlink="http://www.w3.org/1999/xlink"><g id="comp_x5F_94-dislike"><g><g><g><path d="M132.939,268.744V90.289c0-7.033,5.697-12.742,12.716-12.742H43.959      c-7.025,0-12.715,5.709-12.715,12.742v178.456c0,7.035,5.69,12.744,12.715,12.746h94.319l-3.661-6.424      C133.499,273.135,132.939,270.965,132.939,268.744z" style="fill:#1872D9;"/><path d="M138.278,291.49H43.959c-12.526-0.004-22.715-10.207-22.715-22.746V90.289      c0-12.54,10.19-22.742,22.715-22.742h101.696c5.523,0,10,4.477,10,10s-4.477,10-10,10c-1.498,0-2.716,1.23-2.716,2.742v178.456      c0,0.489,0.112,0.931,0.332,1.311l3.695,6.484c1.764,3.096,1.748,6.896-0.042,9.976S141.84,291.49,138.278,291.49z       M43.959,87.546c-1.497,0-2.715,1.23-2.715,2.742v178.456c0,1.514,1.219,2.746,2.718,2.746h79.142      c-0.109-0.907-0.165-1.824-0.165-2.746V90.289c0-0.928,0.056-1.843,0.164-2.742H43.959z" style="fill:#1256A3;"/></g><g><path d="M479.631,199.833l-40.775-92.007c-8.111-18.376-26.365-30.28-46.455-30.28H201.083h-12.713      c-7.019,0-12.716,5.709-12.716,12.742v178.456c0,2.221,0.56,4.391,1.679,6.322l3.66,6.424l45.514,79.871v60.342      c0,7.039,5.697,12.75,12.705,12.75h38.146c28.041,0,50.84-22.873,50.84-50.984v-76.482h101.707      c28.043,0,50.852-22.873,50.85-50.988v-50.987C480.756,203.229,480.375,201.468,479.631,199.833z" style="fill:#BCDFFD;"/><path d="M277.359,444.453h-38.146c-12.52,0-22.705-10.206-22.705-22.75v-57.692l-47.863-83.994      c-1.944-3.354-2.99-7.273-2.99-11.272V90.289c0-12.54,10.19-22.742,22.716-22.742H392.4c24.06,0,45.885,14.226,55.604,36.242      l40.752,91.955c1.327,2.934,2,6.052,2,9.268v50.987c0.001,16.263-6.33,31.57-17.827,43.098      c-11.505,11.536-26.783,17.89-43.022,17.89h-91.707v66.482C338.199,417.096,310.906,444.453,277.359,444.453z M188.371,87.546      c-1.498,0-2.716,1.23-2.716,2.742v178.456c0,0.489,0.111,0.93,0.332,1.31l49.21,86.356c0.859,1.509,1.312,3.215,1.312,4.951      v60.342c0,1.517,1.213,2.75,2.705,2.75h38.146c22.52,0,40.84-18.386,40.84-40.984v-76.482c0-5.522,4.478-10,10-10h101.707      c10.887,0,21.136-4.266,28.861-12.012c7.731-7.754,11.989-18.044,11.988-28.976v-50.988c0-0.356-0.076-0.705-0.226-1.034      c-0.015-0.031-0.028-0.062-0.042-0.092l-40.775-92.007c-6.526-14.787-21.171-24.332-37.313-24.332H188.371z" style="fill:#8DA7BE;"/></g></g></g></g><g id="Layer_1"/></svg>