<?xml version="1.0" ?><!DOCTYPE svg  PUBLIC '-//W3C//DTD SVG 1.1//EN'  'http://www.w3.org/Graphics/SVG/1.1/DTD/svg11.dtd'><svg height="512px" style="enable-background:new 0 0 512 512;" version="1.1" viewBox="0 0 512 512" width="512px" xml:space="preserve" xmlns="http://www.w3.org/2000/svg" xmlns:xlink="http://www.w3.org/1999/xlink"><g id="comp_x5F_106-Earth"><g><g><g><path d="M256.002,36.001C135.026,36.001,36.596,134.697,36.596,256      c0,121.299,98.431,219.999,219.407,219.999c120.971,0,219.402-98.7,219.402-219.999      C475.404,134.697,376.974,36.001,256.002,36.001z" style="fill:#F2F2F2;"/><g><path d="M256.002,485.999C129.507,485.999,26.596,382.822,26.596,256       c0-126.822,102.912-229.999,229.407-229.999c126.493,0,229.402,103.177,229.402,229.999       C485.404,382.822,382.495,485.999,256.002,485.999z M256.002,46.001C140.535,46.001,46.596,140.206,46.596,256       s93.939,209.999,209.407,209.999c115.464,0,209.402-94.205,209.402-209.999S371.467,46.001,256.002,46.001z" style="fill:#B6B6B6;"/></g></g><g><path d="M342.644,418.639c-50.852-0.238-89.089-10.62-117.022-18.262      c-16.321-4.481-29.176-8.013-39.658-8.013c-11.851,0-27.09,3.792-39.234,11.757c-31.799-23.723-55.791-57.342-67.199-96.394      c22.891-0.74,72.609,12.778,126.985,39.371c64.935,31.719,108.56,45.266,145.906,45.266c10.565,0,20.048-0.522,28.402-1.265      C369.318,401.797,356.571,411.148,342.644,418.639z" style="fill:#3366FF;"/><g><path d="M342.644,428.639c-0.016,0-0.031,0-0.047,0c-52.464-0.246-91.275-10.863-119.614-18.616       c-15.599-4.283-27.891-7.658-37.019-7.658c-8.857,0-22.375,2.658-33.75,10.119c-3.514,2.303-8.095,2.165-11.464-0.347       c-33.92-25.306-59.07-61.389-70.818-101.605c-0.867-2.967-0.313-6.169,1.501-8.672s4.684-4.026,7.774-4.127       c0.698-0.022,1.421-0.033,2.162-0.033c28.051,0,80.109,16.242,129.54,40.416c63.494,31.015,105.817,44.249,141.513,44.249       c9.234,0,18.235-0.4,27.518-1.226c4.262-0.377,8.283,1.99,10.021,5.895c1.738,3.903,0.803,8.48-2.327,11.391       c-12.485,11.607-26.028,21.372-40.253,29.022C345.924,428.229,344.296,428.639,342.644,428.639z M185.963,382.364       c11.824,0,25.263,3.69,42.279,8.362c26.811,7.335,63.338,17.327,111.88,17.892c3.484-1.945,6.924-4.036,10.311-6.266       c-38.48-0.463-83.022-14.38-148.306-46.269c-44.827-21.923-84.5-33.922-108.308-37.348       c11.044,28.466,29.686,53.979,53.697,73.341C159.228,385.927,173.13,382.364,185.963,382.364z" style="fill:#264DBF;"/></g></g><g><path d="M244.832,253.417c-76.368-41.477-129.112-56.339-165.905-46.748      c9.037-32.62,26.781-61.609,50.612-84.296c44.677,2.634,123.359,41.212,161.886,73.653      c21.92,18.445,103.855,80.709,144.906,96.175c-2.053,10.305-5.101,20.243-8.806,29.862h-22.519      C390.525,322.063,358.202,314.922,244.832,253.417z" style="fill:#3366FF;"/><g><path d="M427.525,332.063h-22.519c-16.844,0-50.814-7.94-164.943-69.856       c-59.896-32.531-104.973-48.343-137.81-48.343c-7.487,0-14.487,0.835-20.805,2.482c-3.46,0.901-7.138-0.112-9.647-2.66       c-2.509-2.548-3.467-6.241-2.512-9.687c9.374-33.833,27.823-64.563,53.354-88.869c2.007-1.911,4.713-2.901,7.483-2.74       c47.695,2.812,127.895,42.436,167.739,75.986c25.09,21.113,104.172,80.219,141.99,94.467c4.58,1.725,7.238,6.512,6.282,11.312       c-2.057,10.322-5.093,20.627-9.281,31.503C435.37,329.518,431.661,332.063,427.525,332.063z M102.254,193.864       c36.759,0,83.581,16.131,147.351,50.766c83.64,45.375,134.474,67.434,155.402,67.434h15.532       c1.635-4.715,3.023-9.321,4.184-13.881c-45.028-20.43-120.897-78.652-139.736-94.505       c-35.496-29.889-107.933-66.322-151.726-70.963c-17.494,17.517-31.027,38.489-39.74,61.477       C96.375,193.973,99.289,193.864,102.254,193.864z" style="fill:#264DBF;"/></g></g><g><path d="M435.751,217.104c-4.258-4.98-8.646-10.277-12.955-15.545      c-14.559-17.813-34.479-42.188-61.073-68.881c-26.702-26.802-52.93-45.591-76.79-58.633      C359.881,86.011,419.881,143.326,435.751,217.104z" style="fill:#3366FF;"/><g><path d="M435.755,227.105c-2.854,0-5.655-1.222-7.604-3.502c-3.787-4.429-8.07-9.569-13.095-15.712       c-14.426-17.651-34.173-41.812-60.417-68.154c-23.506-23.593-48.572-42.743-74.502-56.916       c-4.271-2.334-6.24-7.403-4.667-12.008s6.24-7.412,11.039-6.642c38.719,6.181,74.293,23.808,102.877,50.976       c28.339,26.935,47.692,61.223,55.998,99.191c0.252,0.878,0.387,1.807,0.387,2.766c0,5.434-4.335,9.856-9.734,9.997       C435.942,227.104,435.849,227.105,435.755,227.105z M357.787,114.97c3.709,3.45,7.383,7,11.02,10.65       c12.063,12.107,22.755,23.725,32.203,34.478C389.4,142.594,374.719,127.293,357.787,114.97z" style="fill:#264DBF;"/></g></g></g></g></g><g id="Layer_1"/></svg>