<?xml version="1.0" ?><!DOCTYPE svg  PUBLIC '-//W3C//DTD SVG 1.1//EN'  'http://www.w3.org/Graphics/SVG/1.1/DTD/svg11.dtd'><svg height="512px" style="enable-background:new 0 0 512 512;" version="1.1" viewBox="0 0 512 512" width="512px" xml:space="preserve" xmlns="http://www.w3.org/2000/svg" xmlns:xlink="http://www.w3.org/1999/xlink"><g id="comp_x5F_114-EOS"><g><g><g><path d="M256.089,500.998h-0.344c-6.578,0-12.68-1.786-18.138-5.309l-137.594-87.118l-0.218-0.155      c-4.844-3.443-8.777-7.896-11.692-13.237l-0.206-0.398c-0.537-1.099-1.861-3.956-2.559-6.759l-0.074-0.317      c-1.155-5.379-1.279-10.259-0.371-14.504l0.647-3.022l0.184-0.176l44.289-204.249c0.982-4.673,3.067-9.31,6.016-13.346      l92.307-127.266c6.167-8.855,16.403-14.139,27.409-14.139h0.699c11.021,0,21.265,5.286,27.427,14.146l92.229,127.241      c3.064,4.133,5.12,8.783,6.11,13.823l44.755,206.097c0.203,0.713,0.46,1.76,0.531,3.043c0.345,3.61,0.452,7.925-1.051,12.864      c-0.671,2.828-1.726,5.305-2.513,6.918l-0.31,0.583c-2.404,4.2-4.946,7.372-7.77,9.696l-0.57,0.437l-7.705,5.448      l-133.521,84.488C268.659,499.099,262.11,500.998,256.089,500.998z M111.187,391.975l137.242,86.896      c2.209,1.432,4.603,2.127,7.315,2.127h0.344c2.343,0,5.193-0.852,7.453-2.226l133.118-84.234l6.678-4.736      c0.61-0.557,1.533-1.637,2.753-3.72c0.425-0.915,0.757-1.852,0.923-2.61l0.251-0.932c0.467-1.45,0.555-2.792,0.327-5.22      c-0.102-0.36-0.221-0.835-0.311-1.399l-44.687-205.8c-0.411-2.131-1.278-4.098-2.579-5.845l-0.075-0.102L267.479,36.607      c-2.421-3.51-6.547-5.605-11.036-5.605h-0.699c-4.479,0-8.6,2.097-11.025,5.609l-0.134,0.19l-92.387,127.376      c-1.29,1.767-2.216,3.8-2.626,5.753l-44.61,205.731c-0.113,1.011-0.343,1.92-0.646,2.732c-0.071,1.021-0.018,2.61,0.46,4.912      c0.147,0.521,0.52,1.498,0.992,2.49C107.179,388.321,108.955,390.347,111.187,391.975z"/></g><polygon points="234.786,367.58 277.404,367.58 312.711,255.267 256.082,154.285 199.441,254.942    " style="fill:#FFFFFF;"/><polygon points="249.088,138.042 249.088,75.199 175.003,177.588 193.519,236.922    " style="fill:#FFFFFF;"/><polygon points="168.681,203.376 141.085,330.498 184.404,253.498    " style="fill:#FFFFFF;"/><polygon points="337.172,177.585 263.084,75.196 263.084,138.042 318.645,236.572    " style="fill:#FFFFFF;"/><polygon points="371.09,329.77 343.848,203.723 328.113,253.498    " style="fill:#FFFFFF;"/><polygon points="189.994,271.865 136.168,367.58 220.08,367.58    " style="fill:#FFFFFF;"/><polygon points="292.1,367.58 375.981,367.58 322.137,271.514    " style="fill:#FFFFFF;"/><polygon points="239.289,381.688 256.082,435.035 272.852,381.688    " style="fill:#FFFFFF;"/><polygon points="268.679,442.057 363.743,381.688 287.533,381.688    " style="fill:#FFFFFF;"/><polygon points="148.382,381.688 243.487,442.057 224.619,381.688    " style="fill:#FFFFFF;"/></g></g></g><g id="Layer_1"/></svg>