<?xml version="1.0" ?><!DOCTYPE svg  PUBLIC '-//W3C//DTD SVG 1.1//EN'  'http://www.w3.org/Graphics/SVG/1.1/DTD/svg11.dtd'><svg height="512px" style="enable-background:new 0 0 512 512;" version="1.1" viewBox="0 0 512 512" width="512px" xml:space="preserve" xmlns="http://www.w3.org/2000/svg" xmlns:xlink="http://www.w3.org/1999/xlink"><g id="comp_x5F_115-erlang"><g><g><g><path d="M109.491,119.929H36.513v272.076h81.846C84.97,356.669,65.42,307.828,65.487,249.518      C65.42,197.991,81.61,153.652,109.491,119.929z M255.114,126.444c-30.835,0.067-57.168,22.505-59.923,55.894h114.138      C308.591,148.949,286.151,126.512,255.114,126.444L255.114,126.444z M410.098,119.995h0.203l-0.067-0.066L410.098,119.995z       M410.301,119.995c21.094,28.687,32.716,65.501,31.036,109.302c0.337,4.031,0.337,7.859,0,16.189H191.16      c-0.135,73.696,26.133,130.933,93.111,131.203c46.018-0.202,79.271-34.263,102.045-71.279l64.762,32.38      c-11.688,20.759-24.521,38.831-38.896,54.281h63.305V119.995H410.301z" style="fill:#A90533;"/><path d="M475.487,402.071h-63.305c-3.979,0-7.579-2.359-9.168-6.007      c-1.589-3.648-0.864-7.892,1.847-10.805c11.595-12.463,22.188-26.695,32.209-43.293l-47.172-23.585      c-29.92,45.162-65.406,68.131-105.583,68.308c-34.892-0.141-62.601-14.911-80.214-42.715      c-15.298-24.147-23.016-57.29-22.941-98.506c0.01-5.516,4.484-9.982,10-9.982h240.43c-0.007-2.064-0.08-3.702-0.218-5.356      c-0.034-0.405-0.043-0.811-0.027-1.216c1.51-39.379-7.956-73.575-28.141-101.674c-1.382-1.314-2.396-3.028-2.85-4.991      c-1.049-4.535,1.171-9.194,5.353-11.238l0.136-0.066c1.761-0.86,3.686-1.165,5.541-0.949h64.104c5.522,0,10,4.477,10,10v272.076      C485.487,397.594,481.01,402.071,475.487,402.071z M433.817,382.071h31.67V129.995h-36.814      c16.19,28.541,23.988,62.406,22.679,99.088c0.323,4.247,0.313,8.484-0.022,16.807c-0.217,5.361-4.627,9.596-9.992,9.596H201.316      c1.089,32.339,7.833,59.086,19.679,77.784c13.977,22.063,35.279,33.306,63.316,33.419c34.945-0.153,66.427-22.534,93.487-66.52      c2.716-4.414,8.354-6.022,12.989-3.704l64.762,32.38c2.449,1.225,4.288,3.398,5.09,6.017c0.802,2.617,0.495,5.448-0.848,7.834      C451.568,357.302,442.983,370.324,433.817,382.071z M118.358,402.005H36.513c-5.523,0-10-4.478-10-10V119.929      c0-5.523,4.477-10,10-10h72.979c3.873,0,7.398,2.237,9.048,5.741c1.649,3.504,1.127,7.646-1.341,10.631      c-27.35,33.081-41.773,75.684-41.711,123.204c-0.063,53.959,17.276,100.852,50.14,135.632c2.743,2.902,3.495,7.158,1.915,10.825      S122.352,402.005,118.358,402.005z M46.513,382.005h50.353c-27.201-36.239-41.437-81.594-41.378-132.499      c-0.059-44.746,11.689-85.675,34.157-119.577H46.513V382.005z M309.329,192.338H195.191c-2.795,0-5.462-1.17-7.356-3.226      c-1.894-2.056-2.84-4.811-2.61-7.596c1.521-18.425,9.573-35.125,22.675-47.023c12.773-11.6,29.534-18.01,47.192-18.048      c36.985,0.08,63.381,27.086,64.235,65.672c0.059,2.69-0.968,5.291-2.85,7.214C314.597,191.254,312.02,192.338,309.329,192.338z       M207.146,172.338h91.105c-4.269-21.795-20.654-35.845-43.159-35.894C232.121,136.495,213.349,151.057,207.146,172.338z" style="fill:#7F0426;"/></g></g></g></g><g id="Layer_1"/></svg>