<?xml version="1.0" ?><!DOCTYPE svg  PUBLIC '-//W3C//DTD SVG 1.1//EN'  'http://www.w3.org/Graphics/SVG/1.1/DTD/svg11.dtd'><svg height="512px" style="enable-background:new 0 0 512 512;" version="1.1" viewBox="0 0 512 512" width="512px" xml:space="preserve" xmlns="http://www.w3.org/2000/svg" xmlns:xlink="http://www.w3.org/1999/xlink"><g id="comp_x5F_127-finder"><g><g><g><path d="M304.737,428.627c-4.867-45.879-1.813-124.391,11.108-152.098      c2.09-4.438,1.745-9.64-0.891-13.808c-2.642-4.143-7.202-6.644-12.106-6.644h-71.184c4.156-59.1,29.953-129.42,55.248-172.555      c8.568-14.612,15.876-26.109,22.728-32.986c5.587-5.608,5.587-14.723,0-20.329c-5.596-5.609-14.692-5.609-20.282,0      c-11.184,11.223-23.102,30.072-35.527,53.313c-27.949,52.273-51.362,126.792-51.362,186.934c0,7.938,6.424,14.378,14.338,14.378      h66.429C274.51,321.49,271,383.15,276.104,428.627c2.784,24.806,8.129,44.8,16.593,53.284c2.749,2.765,6.253,4.088,9.782,4.088      c3.556,0,7.164-1.383,9.979-4.088c5.652-5.346,5.765-14.517,0.539-20.296C309.275,457.468,306.491,445.167,304.737,428.627z" style="fill:#487EBE;"/><g><path d="M302.479,495.999c-6.369,0-12.361-2.499-16.873-7.037c-9.695-9.719-16.059-29.094-19.439-59.22       c-4.556-40.59-2.453-95.933,4.757-134.909h-54.118c-13.42,0-24.338-10.936-24.338-24.378       c0-56.723,20.625-131.95,52.543-191.648c14.374-26.884,26.213-44.569,37.262-55.657c4.595-4.61,10.711-7.148,17.223-7.148       c6.511,0,12.627,2.537,17.224,7.145c9.466,9.499,9.467,24.951,0.004,34.449c-6.44,6.465-13.988,18.714-21.186,30.987       c-21.655,36.929-46.554,100.511-52.92,157.496h60.23c8.361,0,16.039,4.212,20.538,11.267c4.51,7.133,5.065,15.885,1.506,23.444       c-11.628,24.935-15.1,100.699-10.211,146.783c2.33,21.978,5.502,26.979,5.813,27.424c8.854,9.855,8.349,25.184-1.164,34.181       C314.771,493.557,308.768,495.999,302.479,495.999z M299.496,36.001c-0.67,0-1.958,0.165-3.056,1.266       c-9.497,9.531-20.551,26.204-33.792,50.97c-30.483,57.015-50.181,128.54-50.181,182.219c0,2.414,1.946,4.378,4.338,4.378       h66.429c3.06,0,5.951,1.4,7.848,3.802c1.896,2.4,2.589,5.537,1.881,8.514c-8.785,36.907-11.761,97.25-6.922,140.363       c3.832,34.139,10.882,44.477,13.735,47.337c0.763,0.768,1.668,1.15,2.702,1.15c1.096,0,2.18-0.461,3.051-1.299       c1.697-1.605,1.694-4.561,0.051-6.378c-3.546-3.95-7.951-11.884-10.788-38.641c-4.752-44.792-2.489-126.333,11.99-157.379       c0.646-1.374,0.536-2.945-0.28-4.236c-0.786-1.233-2.16-1.988-3.654-1.988h-71.184c-2.774,0-5.423-1.152-7.315-3.182       s-2.855-4.753-2.661-7.52c4.438-63.107,31.624-134.326,56.597-176.912c9.09-15.501,16.696-27.383,24.27-34.985       c1.707-1.713,1.707-4.5,0.001-6.212C301.458,36.166,300.168,36.001,299.496,36.001z" style="fill:#365F8F;"/></g></g><g><g><path d="M122.389,333.434c53.69,20.538,90.326,27.812,113.928,27.812c0.751,0,1.535-0.011,2.333-0.025       c1.105-15.786,2.851-31.01,5.181-44.489h-50c-15.074,0-27.338-12.281-27.338-27.378c0-63.438,21.573-155.81,47.338-205.831       H38.169c-8.027,0-14.339,6.331-14.339,14.38v316.346c0,8.048,6.31,14.379,14.339,14.379h201.352       c-1.869-17.384-2.548-18.443-2.152-38.639c-0.347,0.003-0.712,0.012-1.052,0.012c-27.303,0-66.891-7.792-124.17-29.697       c-7.397-2.827-11.097-11.136-8.285-18.556C106.671,334.302,114.959,330.537,122.389,333.434z M113.83,155.423       c0-7.937,6.423-14.379,14.343-14.379c7.916,0,14.339,6.442,14.339,14.379v28.756c0,7.937-6.422,14.378-14.339,14.378       c-7.92,0-14.343-6.441-14.343-14.378V155.423z" style="fill:#39B8E7;"/></g><g><g><path d="M239.541,438.627c-0.007,0-0.013,0-0.02,0H38.169c-13.648,0-24.339-10.709-24.339-24.379        V97.902c0-13.671,10.691-24.38,24.339-24.38H213.83c3.487,0,6.722,1.816,8.538,4.794c1.815,2.977,1.949,6.685,0.352,9.785        c-25.49,49.488-46.228,139.769-46.228,201.252c0,9.582,7.778,17.378,17.338,17.378h50c2.95,0,5.75,1.303,7.649,3.56        c1.9,2.256,2.707,5.236,2.205,8.144c-2.215,12.816-3.964,27.853-5.059,43.484c-0.362,5.169-4.612,9.205-9.792,9.3        c-0.86,0.016-1.706,0.027-2.516,0.027c-28.58,0-68.113-9.579-117.5-28.472c-0.561-0.219-1.078-0.317-1.594-0.317        c-1.463,0-3.269,0.872-4.004,2.821c-0.866,2.284,0.258,4.828,2.499,5.685C166.102,370.23,206.677,380,236.317,380l0.967-0.012        c0.028,0,0.057,0,0.084,0c2.67,0,5.231,1.068,7.11,2.969c1.899,1.92,2.941,4.526,2.888,7.228        c-0.314,16.071,0.044,19.216,1.234,29.639c0.234,2.052,0.499,4.365,0.792,7.08c0.097,0.56,0.148,1.136,0.148,1.724        C249.541,434.149,245.064,438.627,239.541,438.627z M38.169,93.521c-2.514,0-4.339,1.842-4.339,4.38v316.346        c0,2.537,1.825,4.379,4.339,4.379h190.169c-0.702-6.318-1.063-10.671-1.076-18.882        c-30.959-1.691-70.821-11.797-118.688-30.103c-12.512-4.782-18.822-18.886-14.063-31.439        c3.551-9.413,12.68-15.747,22.711-15.747c3.012,0,5.973,0.559,8.799,1.66c51.809,19.818,84.176,25.798,103.397,26.919        c0.74-8.487,1.654-16.61,2.732-24.305H193.83c-20.588,0-37.338-16.768-37.338-37.378c0-58.529,18.088-142.221,41.545-195.831        H38.169z M128.173,208.557c-13.423,0-24.343-10.936-24.343-24.378v-28.756c0-13.442,10.92-24.379,24.343-24.379        c13.42,0,24.339,10.937,24.339,24.379v28.756C152.512,197.621,141.594,208.557,128.173,208.557z M128.173,151.044        c-2.395,0-4.343,1.964-4.343,4.379v28.756c0,2.414,1.948,4.378,4.343,4.378c2.393,0,4.339-1.964,4.339-4.378v-28.756        C132.512,153.008,130.566,151.044,128.173,151.044z" style="fill:#2B8AAD;"/></g></g></g><g><g><path d="M473.83,83.523h-150c-1.313,2.11-2.639,4.3-3.974,6.576       c-22.949,39.135-39.11,77.751-46.026,130.911h46.81c9.392,0,18.016,4.73,23.067,12.654c5.067,8.013,8.461,17.842,4.463,26.335       c-4.866,10.434-8.069,52.084-10,74.66c19.761-4.413,36.15-10.94,60.168-20.124c7.349-2.875,15.69,0.841,18.504,8.313       c2.839,7.42-0.86,15.729-8.29,18.556c-28.614,10.943-55.292,18.352-78.247,23.038c-0.632,22.229,0.002,44.794,1.913,62.813       c0.05,0.468,0.101,0.92,0.15,1.371H473.83c8.028,0,14.34-6.331,14.34-14.379V97.902       C488.17,89.852,481.858,83.521,473.83,83.523z M372.513,184.179c0,7.937-6.424,14.378-14.347,14.378       c-7.912,0-14.336-6.441-14.336-14.378l2.083-28.756c0-7.937,4.341-14.379,12.253-14.379c7.923,0,14.347,6.442,14.347,14.379       V184.179z" style="fill:#F3F3F3;"/></g><g><g><path d="M473.83,438.627H332.368c-5.099,0-9.38-3.835-9.939-8.903l-0.154-1.409        c-1.928-18.168-2.625-40.951-1.966-64.155c0.132-4.644,3.444-8.585,7.996-9.514c25.099-5.124,50.896-12.722,76.675-22.58        c1.481-0.564,2.16-1.675,2.435-2.286c0.275-0.618,0.655-1.875,0.088-3.356c-0.749-1.99-2.559-2.859-4.028-2.859        c-0.507,0-1.009,0.097-1.492,0.285l-5.179,1.983c-21.72,8.322-37.412,14.335-56.453,18.588        c-3.109,0.692-6.361-0.134-8.76-2.229s-3.655-5.209-3.384-8.383l0.441-5.209c2.843-33.67,5.592-62.389,10.46-72.826        c2.508-5.328-1.338-12.788-3.853-16.763c-3.186-4.998-8.657-8-14.615-8h-46.81c-2.877,0-5.614-1.239-7.514-3.401        c-1.898-2.162-2.774-5.036-2.402-7.889c6.327-48.634,20.478-88.913,47.316-134.68c1.323-2.256,2.705-4.543,4.107-6.799        c1.825-2.935,5.036-4.719,8.492-4.719h150c13.65,0,24.34,10.708,24.34,24.378v316.346        C498.17,427.918,487.479,438.627,473.83,438.627z M341.456,418.627H473.83c2.515,0,4.34-1.842,4.34-4.379V97.902        c0-2.537-1.823-4.378-4.336-4.378H329.449c-0.326,0.546-0.648,1.092-0.967,1.636c-23.615,40.27-36.474,74.602-43.099,115.852        h35.256c12.826,0,24.602,6.459,31.499,17.278c8.263,13.064,10.012,25.491,5.079,35.97c-3.228,6.921-6.131,36.979-7.888,57.201        c12.502-3.646,24.815-8.364,40.316-14.304l5.12-1.961c2.743-1.073,5.696-1.632,8.707-1.632        c10.044,0,19.177,6.335,22.727,15.763c2.313,6.044,2.131,12.676-0.532,18.624c-2.658,5.939-7.475,10.485-13.56,12.802        c-24.119,9.224-48.297,16.552-71.979,21.82C339.884,389.01,340.343,404.907,341.456,418.627z M358.166,208.557        c-13.419,0-24.336-10.936-24.336-24.378c0-0.241,0.009-0.482,0.026-0.723l2.06-28.429c0.172-13.922,9.477-23.983,22.25-23.983        c13.425,0,24.347,10.937,24.347,24.379v28.756C382.513,197.621,371.591,208.557,358.166,208.557z M353.838,184.437        c0.133,2.294,2.023,4.12,4.328,4.12c2.396,0,4.347-1.964,4.347-4.378v-28.756c0-2.415-1.95-4.379-4.347-4.379        c-1.495,0-2.253,1.473-2.253,4.379c0,0.241-0.009,0.482-0.026,0.723L353.838,184.437z" style="fill:#B6B6B6;"/></g></g></g></g></g></g><g id="Layer_1"/></svg>