<?xml version="1.0" ?><!DOCTYPE svg  PUBLIC '-//W3C//DTD SVG 1.1//EN'  'http://www.w3.org/Graphics/SVG/1.1/DTD/svg11.dtd'><svg height="512px" style="enable-background:new 0 0 512 512;" version="1.1" viewBox="0 0 512 512" width="512px" xml:space="preserve" xmlns="http://www.w3.org/2000/svg" xmlns:xlink="http://www.w3.org/1999/xlink"><g id="comp_x5F_7-adsense"><g><g><g><path d="M461.679,262.35c-2.495-3.96-6.885-6.351-11.549-6.351H307.023l-98.702,212.076      c-2.251,4.84-7.109,7.923-12.428,7.923h-0.03c0.01,0,0.02,0.001,0.029,0.001h164.56c5.323,0,10.174-3.083,12.422-7.924      l89.683-192.5C464.533,271.313,464.198,266.31,461.679,262.35z" style="fill:#4686F4;"/><g><path d="M360.452,485.999h-164.56c-0.102,0-0.21-0.002-0.316-0.005c-5.39-0.152-9.713-4.569-9.713-9.996       c0-5.522,4.477-10,10-10c1.467,0,2.786-0.84,3.391-2.14l98.703-212.079c1.642-3.526,5.178-5.781,9.066-5.781H450.13       c8.06,0,15.727,4.223,20.01,11.02c4.354,6.843,4.919,15.366,1.489,22.764l-89.69,192.516       C378.075,480.617,369.64,485.999,360.452,485.999z M220.317,465.999h140.135c1.434,0,2.75-0.838,3.353-2.136l89.688-192.511       c0.533-1.15,0.44-2.55-0.251-3.635c-0.677-1.074-1.86-1.719-3.111-1.719h-136.73L220.317,465.999z" style="fill:#3565B7;"/></g></g><g><path d="M403.41,55.58c1.973-4.261,1.671-9.268-0.849-13.228c-2.524-3.961-6.886-6.352-11.578-6.352      H253.857c-5.32,0-10.173,3.08-12.42,7.946L49.456,456.44c-1.979,4.264-1.672,9.244,0.85,13.204      c2.521,3.957,6.884,6.354,11.573,6.354h137.094h0.03c5.319,0,10.177-3.083,12.429-7.923l98.702-212.076L403.41,55.58z" style="fill:#F3B90F;"/><g><path d="M199.003,485.998H61.879c-8.146,0-15.625-4.104-20.006-10.979       c-4.37-6.862-4.925-15.38-1.487-22.787L232.372,39.728c3.845-8.328,12.284-13.727,21.486-13.727h137.126       c8.149,0,15.63,4.104,20.011,10.977c4.368,6.865,4.924,15.388,1.49,22.804L220.498,472.295       C216.625,480.619,208.187,485.998,199.003,485.998z M253.857,46.001c-1.43,0-2.741,0.839-3.341,2.139L58.522,460.66       c-0.548,1.181-0.468,2.535,0.218,3.613c0.688,1.079,1.861,1.725,3.138,1.725h137.124c1.437,0,2.757-0.841,3.362-2.142       L394.344,51.36c0.542-1.169,0.461-2.571-0.22-3.64c-0.685-1.074-1.86-1.72-3.141-1.72H253.857z" style="fill:#B68B0B;"/></g></g></g></g></g><g id="Layer_1"/></svg>