<?xml version="1.0" ?><!DOCTYPE svg  PUBLIC '-//W3C//DTD SVG 1.1//EN'  'http://www.w3.org/Graphics/SVG/1.1/DTD/svg11.dtd'><svg height="512px" style="enable-background:new 0 0 512 512;" version="1.1" viewBox="0 0 512 512" width="512px" xml:space="preserve" xmlns="http://www.w3.org/2000/svg" xmlns:xlink="http://www.w3.org/1999/xlink"><g id="comp_x5F_152-google-play"><g><g><g><path d="M430.472,227.608c17.25,12.85,17.25,41.79,1.08,54.641l-45.509,25.77l-67.441-53.09      l67.607-52.077L430.472,227.608z" style="fill:#FFC801;"/></g><path d="M386.396,307.769l-0.01-0.01h-0.01l-67.835-52.801l-0.021-0.02l-0.01,0.01l0.021,0.021     l-0.021-0.021l-0.03-0.03l-0.239,0.181l-249.79,190.25v7.95c0,10.503,2.458,21.705,10.845,25.595     c11.051,5.125,27.177-4.892,27.177-4.892L386.396,307.769z" style="fill:#F93647;"/><g><polygon points="318.242,255.099 68.452,445.349 68.452,60.588 318.182,255.019     " style="fill:#00D3FF;"/></g><path d="M68.452,56.738v3.85l249.729,194.431l0.061,0.08l0.239-0.181l0.021-0.01l0.1-0.08l67.607-51.685     c0,0-217.432-129.992-280.464-167.482c-2.742-1.631-9.313-5.768-17.192-3.188C79.113,35.565,68.452,46.793,68.452,56.738z" style="fill:#00EF77;"/></g></g></g><g id="Layer_1"/></svg>