<?xml version="1.0" ?><!DOCTYPE svg  PUBLIC '-//W3C//DTD SVG 1.1//EN'  'http://www.w3.org/Graphics/SVG/1.1/DTD/svg11.dtd'><svg height="512px" style="enable-background:new 0 0 512 512;" version="1.1" viewBox="0 0 512 512" width="512px" xml:space="preserve" xmlns="http://www.w3.org/2000/svg" xmlns:xlink="http://www.w3.org/1999/xlink"><g id="comp_x5F_154-google-wallet"><g><g><g><path d="M182.125,97.565c38.607,62.222,77.738,127.813,98.375,178.535      c-8.521,34.708-20.393,74.723-33.229,107.374c-13.552-53.699-37.938-122.138-68.229-170.603      C185.719,175.497,181.406,137.3,182.125,97.565z" style="fill:#FFD14D;"/><g><path d="M247.275,393.475c-0.213,0-0.426-0.007-0.64-0.021c-4.335-0.276-7.997-3.32-9.06-7.532       c-16.044-63.572-41.095-126.282-67.013-167.75c-1.314-2.102-1.8-4.618-1.364-7.058c4.392-24.586,3.836-49.613,3.249-76.108       c-0.271-12.226-0.552-24.868-0.321-37.621c0.081-4.433,3.07-8.284,7.344-9.46c4.275-1.18,8.814,0.602,11.151,4.369       c39.057,62.947,78.099,128.325,99.141,180.039c0.794,1.952,0.951,4.105,0.449,6.153       c-9.598,39.088-21.856,78.688-33.634,108.647C255.067,390.977,251.362,393.475,247.275,393.475z M189.53,210.826       c22.042,36.212,43.273,86.645,59.054,139.707c7.639-22.667,15.081-48.189,21.423-73.654       c-17.316-41.592-46.454-92.424-77.591-143.516c0.009,0.4,0.018,0.799,0.027,1.198       C192.998,159.617,193.572,185.486,189.53,210.826z"/></g></g><g><path d="M434.818,48.502c-1.848-6.981-8.42-11.809-15.605-11.809h-90.664      c-5.443,0-9.242,5.135-8.012,10.576c13.553,47.746,22.9,98.058,27.209,149.91c49.492,88.51,81.836,183.076,93.027,278.052      c16.225-62.12,25.98-137.075,25.98-208.436C466.754,191.225,454.33,117.811,434.818,48.502z" style="fill:#4C8CF5;"/><g><path d="M440.779,485.231c-0.231,0-0.463-0.008-0.696-0.023c-4.797-0.332-8.678-4.031-9.241-8.807       c-10.909-92.585-41.804-184.887-91.824-274.341c-0.697-1.247-1.119-2.628-1.237-4.052       c-4.16-50.07-13.198-99.867-26.863-148.008c-0.049-0.173-0.094-0.349-0.134-0.525c-1.285-5.683,0.026-11.504,3.598-15.973       c3.457-4.327,8.621-6.809,14.168-6.809h90.664c11.851,0,22.221,7.875,25.25,19.164       c21.426,76.131,32.291,150.468,32.291,220.938c0,70.063-9.588,146.956-26.305,210.963       C449.293,482.185,445.296,485.231,440.779,485.231z M357.529,194.191c41.281,74.251,69.735,150.478,84.891,227.29       c9.233-50.005,14.334-104.151,14.334-154.686c0-68.66-10.619-141.193-31.562-215.584c-0.014-0.05-0.028-0.101-0.041-0.151       c-0.659-2.49-3.212-4.367-5.938-4.367h-88.447C344.248,94.711,353.247,144.311,357.529,194.191z"/></g></g><g><path d="M149.258,178.101H53.563c-6.673,0-10.781,7.7-6.673,13.039      c43.329,55.756,73.619,120.956,94.154,192.316h106.272c-16.634-71.567-39.736-137.281-84.709-198.683      C159.526,180.667,154.392,178.101,149.258,178.101z" style="fill:#1DA362;"/><g><path d="M247.316,393.456H141.043c-4.458,0-8.377-2.95-9.61-7.234c-21.225-73.756-52.326-137.327-92.44-188.946       c-4.215-5.478-4.918-12.709-1.866-18.909c3.118-6.333,9.416-10.266,16.435-10.266h95.696c8.229,0,16.409,4.089,21.348,10.671       c0.023,0.031,0.046,0.062,0.068,0.092c51.098,69.763,73.005,144.773,86.382,202.328c0.69,2.971-0.013,6.095-1.91,8.483       C253.25,392.064,250.366,393.456,247.316,393.456z M148.531,373.456h86.111c-19.04-77.317-43.288-132.493-80.061-182.717       c-1.205-1.58-3.338-2.639-5.323-2.639H57.171C96.374,239.419,127.09,301.738,148.531,373.456z"/></g></g><g><path d="M182.183,97.452c70.334,110.892,133.481,240.78,141.899,377.854h116.746      c-12.32-141.695-70.232-272.096-147.035-377.854H182.183z" style="fill:#DE5347;"/><g><path d="M440.828,485.307H324.082c-5.285,0-9.657-4.112-9.981-9.387c-6.945-113.104-52.858-235.15-140.363-373.112       c-1.953-3.08-2.075-6.979-0.317-10.175c1.757-3.196,5.115-5.181,8.762-5.181h111.61c3.202,0,6.21,1.533,8.092,4.124       c59.917,82.507,134.389,215.906,148.906,382.864c0.242,2.792-0.698,5.559-2.592,7.624       C446.305,484.131,443.631,485.307,440.828,485.307z M333.4,465.307h96.429c-16.047-154.604-84.578-278.954-141.151-357.854       h-88.435c36.087,58.393,64.088,112.639,85.38,165.364C312.456,339.261,328.512,403.963,333.4,465.307z"/></g></g></g></g></g><g id="Layer_1"/></svg>