<?xml version="1.0" ?><!DOCTYPE svg  PUBLIC '-//W3C//DTD SVG 1.1//EN'  'http://www.w3.org/Graphics/SVG/1.1/DTD/svg11.dtd'><svg height="512px" style="enable-background:new 0 0 512 512;" version="1.1" viewBox="0 0 512 512" width="512px" xml:space="preserve" xmlns="http://www.w3.org/2000/svg" xmlns:xlink="http://www.w3.org/1999/xlink"><g id="comp_x5F_162-hips"><g><g><g><path d="M204.823,342.331h-29.396c-6.584,0-11.941-5.389-11.941-12.012V185.276c0-6.624,5.357-12.013,11.941-12.013h29.396      c6.849,0,12.013,5.165,12.013,12.013v145.043C216.836,337.167,211.672,342.331,204.823,342.331z M183.486,322.331h13.351      V193.264h-13.351V322.331z"/></g><g><path d="M156.667,342.331h-19.622c-12.014,0-21.787-9.741-21.787-21.716v-88.118c0-0.108,0.002-0.303,0.016-0.581      c0.02-0.418-0.031-1.903-1.532-3.478c-1.533-1.608-6.686-5.348-21.401-5.348c-14.741,0-19.89,3.749-21.419,5.361      c-1.531,1.612-1.532,3.139-1.517,3.429l0.018,0.616v97.822c0,6.848-5.165,12.012-12.013,12.012H27.942      c-6.808,0-11.941-5.164-11.941-12.012V129.646c0-6.807,5.134-11.939,11.941-11.939h29.396c6.849,0,12.013,5.133,12.013,11.939      v43.7c8.042-2.349,16.503-3.534,25.296-3.534l0.55,0.001c19.283,0.08,35.84,5.083,49.197,14.87      c16.048,11.587,24.214,27.688,24.214,47.813v97.822C168.609,337.167,163.475,342.331,156.667,342.331z M135.259,232.705v87.911      c0,0.962,0.785,1.716,1.787,1.716h11.563v-89.834c0-13.527-5.227-23.876-15.979-31.64c-9.936-7.28-22.543-10.982-37.529-11.044      l-0.454-0.001c-11.257,0-21.324,2.328-30.778,7.115l-14.518,7.352v-66.573H36.001v184.625h13.421v-89.615      c-0.132-3.266,0.362-11.045,6.992-18.032c7.301-7.693,19.389-11.594,35.927-11.594c16.503,0,28.574,3.886,35.878,11.549      C132.962,219.616,135.522,226.19,135.259,232.705z"/></g><g><path d="M425.691,345.995c-13.031,0-25.806-2.174-37.968-6.463c-10.903-3.82-17.168-12.683-17.168-24.309v-24.726      c0-6.634,5.374-12.031,11.979-12.031c2.382,0,4.708,0.711,6.728,2.057l0.428,0.302c5.893,4.388,18.404,11.749,36.002,11.749      c4.618,0,15.428-0.338,16.926-3.438c0.005-0.017,0.009-0.031,0.013-0.044c-0.241-0.383-1.202-1.367-3.499-2.378l-38.514-16.885      c-18.306-8.041-29.567-21.452-32.575-38.787c-4.731-27.979,15.615-44.9,20.033-48.205l0.255-0.189      c11.845-8.613,27.97-12.979,47.927-12.979c14.812,0,29.312,2.606,43.097,7.745l0.1,0.038c4.794,1.846,7.772,6.138,7.772,11.202      v32.127c0,6.602-5.369,11.972-11.969,11.972c-1.976,0-3.922-0.498-5.651-1.442c-13.234-6.871-25.334-8.316-33.163-8.316      c-3.284,0-6.125,0.245-8.488,0.593l33.311,14.631c14.152,6.091,24.349,16.091,30.239,29.692      c4.866,11.147,5.789,22.794,2.731,34.587c-7.304,28.08-31.303,37.488-39.054,39.826l-0.026,0.011l-0.54,0.159      C444.819,345.388,433.479,345.995,425.691,345.995z M390.556,304.579v10.645c0,3.226,0.816,4.396,3.8,5.44      c10.181,3.59,20.425,5.331,31.336,5.331c9.206,0,17.196-0.913,23.122-2.643c0.146-0.046,0.279-0.085,0.401-0.121      c4.816-1.412,20.898-7.445,25.663-25.762c1.932-7.451,1.371-14.514-1.716-21.586c-3.861-8.917-10.358-15.229-19.872-19.325      l-41.396-18.182c-6.284-2.661-10.297-7.569-11.016-13.48c-0.699-5.749,1.969-11.471,7.139-15.307      c5.386-4.004,16.547-6.595,28.426-6.595c7.692,0,18.57,1.074,30.783,5.483v-14.087c-9.988-3.135-20.38-4.721-30.969-4.721      c-15.603,0-27.747,3.064-36.1,9.108l-0.064,0.048c-2.554,1.895-15.153,12.193-12.338,28.841      c1.852,10.671,8.69,18.486,20.899,23.85l38.519,16.887c14.631,6.437,17.623,18.672,14.103,27.945l-0.086,0.22      c-5.739,14.104-21.165,16.006-35.498,16.006C411.273,312.574,399.393,308.827,390.556,304.579z"/></g><g><g><path d="M252.835,397.889h-29.397c-6.583,0-11.94-5.356-11.94-11.941V254.06c0-36.917,18.038-57.283,33.17-67.868       c17.415-12.182,38.136-16.522,51.722-16.522c23.694,0,45.875,9.146,62.455,25.755c16.547,16.574,25.639,38.705,25.6,62.315       c0,23.602-9.12,45.747-25.68,62.338c-16.589,16.621-38.767,25.774-62.448,25.774c-11.295,0-21.82-2.106-31.469-6.284v46.379       C264.849,392.755,259.684,397.889,252.835,397.889z M231.498,377.889h13.351v-76.083l16.1,12.395       c10.186,7.841,21.755,11.652,35.369,11.652c37.565,0,68.128-30.563,68.128-68.129c0.03-18.279-6.985-35.379-19.753-48.168       c-12.802-12.823-29.956-19.885-48.302-19.885c-10.058,0-26.636,3.381-40.258,12.91c-16.346,11.434-24.634,28.754-24.634,51.479       V377.889z M296.391,312.503c-15.054,0-28.072-5.388-38.696-16.013c-10.623-10.623-16.009-23.642-16.009-38.693       c0-14.67,5.665-28.42,15.952-38.719c10.298-10.31,24.061-15.987,38.753-15.987c14.67,0,28.42,5.665,38.718,15.952       c10.309,10.298,15.986,24.061,15.986,38.754c0.043,14.633-5.597,28.388-15.879,38.7       C324.925,306.818,311.137,312.503,296.391,312.503z M296.391,223.091c-19.461,0-34.705,15.245-34.705,34.706       c0,9.689,3.32,17.721,10.151,24.553c6.832,6.832,14.863,10.153,24.554,10.153c9.393,0,18.151-3.597,24.662-10.127       c6.503-6.521,10.069-15.24,10.042-24.55C331.095,238.335,315.851,223.091,296.391,223.091z"/></g></g><g><path d="M190.089,175.654c-16.968,0-30.772-13.805-30.772-30.772c0.107-16.995,13.912-30.771,30.772-30.771      c16.967,0,30.771,13.804,30.771,30.771C220.861,161.85,207.057,175.654,190.089,175.654z M190.089,134.111      c-5.902,0-10.734,4.86-10.772,10.834c0,5.876,4.833,10.709,10.772,10.709s10.771-4.833,10.771-10.772      C200.861,138.842,196.129,134.111,190.089,134.111z"/></g><path d="M206.836,185.276c0-1.366-0.648-2.013-2.013-2.013h-29.396c-1.15,0-1.941,1.007-1.941,2.013     v145.043c0,1.003,0.792,2.012,1.941,2.012h29.396c1.365,0,2.013-0.647,2.013-2.012V185.276z" style="fill:#007DBB;"/><path d="M138.484,192.75c-11.572-8.479-26.091-12.865-43.341-12.937     c-13.008-0.071-24.868,2.66-35.792,8.192v-58.36c0-1.294-0.647-1.939-2.013-1.939H27.942c-1.294,0-1.941,0.646-1.941,1.939     v200.674c0,1.364,0.647,2.012,1.941,2.012H57.41c1.366,0,2.013-0.647,2.013-2.012v-97.822c0-0.575-2.013-19.406,32.919-19.406     c34.859,0,32.917,18.759,32.917,19.406v88.118c0,6.469,5.248,11.716,11.787,11.716h19.622c1.294,0,1.941-0.647,1.941-2.012     v-97.822C158.609,215.678,151.924,202.454,138.484,192.75z" style="fill:#007DBB;"/><path d="M482.327,271.884c-4.887-11.284-13.225-19.405-25.084-24.51l-41.398-18.184     c-6.182-2.587-6.613-8.05-1.869-11.57c5.318-3.954,31.84-9.992,60.374,4.887c1.222,0.719,2.876-0.216,2.876-1.726v-32.127     c0-0.935-0.432-1.51-1.365-1.869c-12.723-4.743-25.947-7.115-39.604-7.115c-19.046,0-32.559,4.169-42.046,11.067     c-0.358,0.289-20.412,14.375-16.316,38.597c2.444,14.088,11.356,24.581,26.738,31.338l38.524,16.89     c8.336,3.667,10.925,9.561,8.77,15.238c-2.661,6.54-9.488,9.774-26.235,9.774c-17.464,0-32.128-6.396-41.975-13.729     c-1.51-1.006-3.161,0.146-3.161,1.652v24.726c0,7.476,3.52,12.435,10.493,14.878c11.212,3.953,22.712,5.894,34.643,5.894     c9.128,0,18.544-0.862,26.091-3.092c0.504-0.213,25.875-6.394,32.773-32.916C487.071,290.283,486.28,280.94,482.327,271.884     L482.327,271.884z" style="fill:#007DBB;"/><g><path d="M296.391,179.67c-22.784,0-74.893,14.446-74.893,74.39v131.888c0,0.576,0.432,1.941,1.94,1.941      h29.397c1.366,0,2.013-0.647,2.013-1.941v-63.823c11.858,9.129,25.73,13.729,41.469,13.729      c43.484,0,78.128-34.859,78.128-78.129C374.517,214.385,339.802,179.67,296.391,179.67z M296.391,302.503      c-12.363,0-22.927-4.384-31.625-13.083c-8.768-8.769-13.08-19.262-13.08-31.623c0-24.797,19.837-44.706,44.705-44.706      c24.796,0,44.704,19.837,44.704,44.706C341.167,282.45,321.474,302.503,296.391,302.503z" style="fill:#007DBB;"/></g><path d="M190.089,124.111c-11.428,0-20.699,9.272-20.772,20.771c0,11.213,9.128,20.772,20.772,20.772     c11.644,0,20.771-9.416,20.771-20.772C210.861,133.238,201.517,124.111,190.089,124.111L190.089,124.111z" style="fill:#81BD41;"/></g></g></g><g id="Layer_1"/></svg>