<?xml version="1.0" ?><!DOCTYPE svg  PUBLIC '-//W3C//DTD SVG 1.1//EN'  'http://www.w3.org/Graphics/SVG/1.1/DTD/svg11.dtd'><svg height="512px" style="enable-background:new 0 0 512 512;" version="1.1" viewBox="0 0 512 512" width="512px" xml:space="preserve" xmlns="http://www.w3.org/2000/svg" xmlns:xlink="http://www.w3.org/1999/xlink"><g id="comp_x5F_168-hubspot"><g><g><g><path d="M266.197,216.109c-22.551,21.293-36.655,51.48-36.655,84.991c0,26.326,8.714,50.582,23.359,70.08      l-44.473,44.74c-3.953-1.438-8.176-2.245-12.579-2.245c-9.702,0-18.776,3.774-25.605,10.602      c-6.828,6.827-10.602,15.989-10.602,25.696c0,9.701,3.773,18.775,10.602,25.605c6.829,6.826,15.993,10.42,25.605,10.42      c9.703,0,18.777-3.505,25.695-10.42c6.829-6.83,10.602-15.994,10.602-25.605c0-3.774-0.538-7.369-1.707-10.873l44.923-45.102      c19.765,15.183,44.381,24.169,71.244,24.169c64.599,0,116.797-52.38,116.797-116.977c0-58.578-42.854-107.093-99.007-115.628      v-55.343c15.723-6.65,25.335-21.384,25.335-38.545c0-23.449-18.777-43.034-42.227-43.034c-23.448,0-41.956,19.585-41.956,43.034      c0,17.161,9.613,31.895,25.335,38.545v54.983c-13.655,1.887-26.593,6.019-38.362,12.219      c-24.796-18.778-105.565-76.997-151.746-112.126c1.078-3.953,1.798-8.085,1.798-12.397c0-25.875-21.113-46.898-47.078-46.898      c-25.875,0-46.898,21.023-46.898,46.898c0,25.965,21.023,46.988,46.898,46.988c8.805,0,16.98-2.606,24.078-6.828      L266.197,216.109z M346.606,363.095c-34.229,0-61.991-27.763-61.991-61.994c0-34.229,27.762-61.99,61.991-61.99      c34.23,0,61.992,27.761,61.992,61.99C408.599,335.332,380.837,363.095,346.606,363.095z" style="fill:#FF7A59;"/><path d="M195.85,495.999c-12.46,0-24.064-4.74-32.675-13.348c-8.728-8.729-13.532-20.334-13.532-32.678      c0-12.406,4.806-24.044,13.531-32.768c8.728-8.726,20.332-13.53,32.676-13.53c3.236,0,6.459,0.342,9.638,1.02l34.43-34.637      c-13.357-20.529-20.375-44.193-20.375-68.958c0-31.189,11.052-60.422,31.354-83.522l-132.101-92.843      c-7.444,3.385-15.388,5.152-23.3,5.152c-31.374,0-56.898-25.565-56.898-56.988c0-31.374,25.524-56.898,56.898-56.898      c31.473,0,57.078,25.524,57.078,56.898c0,2.709-0.223,5.452-0.677,8.28c27.012,20.422,64.196,47.644,94.433,69.779      c19.323,14.146,36.39,26.64,47.284,34.776c8.647-3.993,17.773-6.988,27.271-8.951V136.38      c-15.784-9.198-25.335-25.779-25.335-44.704c0-29.243,23.308-53.034,51.956-53.034c28.798,0,52.227,23.791,52.227,53.034      c0,18.925-9.551,35.506-25.335,44.704v40.891c26.354,5.889,50.297,20.172,68.126,40.802      c19.914,23.042,30.881,52.561,30.881,83.119c0,70.016-56.881,126.977-126.797,126.977c-25.28,0-49.354-7.266-70.15-21.097      l-34.959,35.099c0.436,2.519,0.65,5.106,0.65,7.804c0,12.345-4.805,23.95-13.53,32.676      C220.004,491.259,208.368,495.999,195.85,495.999z M195.85,423.676c-7.003,0-13.585,2.726-18.535,7.674      c-4.947,4.946-7.672,11.561-7.672,18.624c0,7.003,2.725,13.586,7.674,18.535c4.831,4.829,11.414,7.49,18.533,7.49      c7.281,0,13.722-2.591,18.625-7.492c4.946-4.947,7.671-11.529,7.671-18.533c0-2.78-0.39-5.302-1.193-7.708      c-1.197-3.587-0.268-7.543,2.401-10.222l44.923-45.102c3.548-3.563,9.188-3.937,13.177-0.874      c18.82,14.458,41.35,22.1,65.152,22.1c58.888,0,106.797-47.989,106.797-106.977c0-53.299-38.064-97.77-90.51-105.742      c-4.886-0.743-8.497-4.944-8.497-9.886v-55.343c0-4.018,2.404-7.645,6.104-9.21c12.041-5.093,19.23-16.06,19.23-29.335      c0-18.215-14.457-33.034-32.227-33.034c-17.621,0-31.956,14.819-31.956,33.034c0,13.275,7.189,24.241,19.23,29.335      c3.7,1.565,6.104,5.192,6.104,9.21v54.983c0,4.994-3.685,9.222-8.632,9.906c-12.488,1.726-24.288,5.48-35.069,11.16      c-3.432,1.81-7.604,1.469-10.698-0.875c-10.044-7.606-29.473-21.829-51.969-38.298c-32.242-23.603-72.367-52.978-99.794-73.841      c-3.244-2.468-4.666-6.658-3.593-10.59c0.973-3.566,1.445-6.761,1.445-9.766c0-20.346-16.633-36.898-37.078-36.898      c-20.346,0-36.898,16.553-36.898,36.898c0,20.396,16.553,36.988,36.898,36.988c6.536,0,12.917-1.824,18.966-5.423      c3.386-2.014,7.639-1.852,10.862,0.413l146.624,103.05c2.457,1.727,4.008,4.466,4.224,7.462      c0.217,2.995-0.925,5.929-3.108,7.991c-21.616,20.41-33.521,48.012-33.521,77.72c0,23.318,7.384,45.475,21.355,64.074      c2.983,3.973,2.599,9.532-0.904,13.056l-44.472,44.74c-2.747,2.763-6.849,3.682-10.51,2.348      C202.013,424.229,198.931,423.676,195.85,423.676z M346.606,373.095c-39.696,0-71.991-32.297-71.991-71.994      c0-39.695,32.295-71.99,71.991-71.99s71.992,32.295,71.992,71.99C418.599,340.798,386.303,373.095,346.606,373.095z       M346.606,249.11c-28.668,0-51.991,23.322-51.991,51.99c0,28.67,23.323,51.994,51.991,51.994      c28.669,0,51.992-23.324,51.992-51.994C398.599,272.433,375.275,249.11,346.606,249.11z" style="fill:#BF5C43;"/></g></g></g></g><g id="Layer_1"/></svg>