<?xml version="1.0" ?><!DOCTYPE svg  PUBLIC '-//W3C//DTD SVG 1.1//EN'  'http://www.w3.org/Graphics/SVG/1.1/DTD/svg11.dtd'><svg height="512px" style="enable-background:new 0 0 512 512;" version="1.1" viewBox="0 0 512 512" width="512px" xml:space="preserve" xmlns="http://www.w3.org/2000/svg" xmlns:xlink="http://www.w3.org/1999/xlink"><g id="comp_x5F_172-inbox"><g><path d="M26.001,227.072v0.185c0-0.06,0.008-0.119,0.01-0.179L26.001,227.072z" style="fill:#13AEF5;"/><g><g><path d="M83.499,472.145h344.997h28.753c15.874,0,28.75-12.912,28.75-28.824V227.113l-230,140.02      L83.499,472.145z" style="fill:#53C4F7;"/><g><path d="M457.249,482.145H83.499c-4.483,0-8.418-2.983-9.628-7.3s0.599-8.911,4.429-11.242l402.5-245.031       c3.087-1.879,6.947-1.947,10.1-0.176c3.15,1.771,5.101,5.104,5.101,8.718V443.32       C495.999,464.729,478.616,482.145,457.249,482.145z M119.157,462.145h338.092c10.339,0,18.75-8.444,18.75-18.824V244.909       L119.157,462.145z"/></g></g><g><path d="M480.735,216.098l-79.398-65.236l-60.213-49.472l-67.188-55.202      c-10.551-8.474-25.3-8.45-36.015,0.113L31.262,216.098c-3.114,2.559-4.978,6.302-5.214,10.307h459.904      C485.717,222.399,483.854,218.656,480.735,216.098z" style="fill:#375BC1;"/><g><path d="M485.952,236.405H26.048c-2.754,0-5.387-1.136-7.276-3.14c-1.889-2.004-2.869-4.699-2.707-7.449       c0.401-6.796,3.626-13.154,8.849-17.445l206.66-169.797c0.035-0.029,0.07-0.057,0.105-0.085       c6.966-5.567,15.628-8.633,24.388-8.633c8.708,0,17.278,3.032,24.131,8.536c0.029,0.023,0.058,0.046,0.087,0.07l206.799,169.91       c5.223,4.284,8.451,10.646,8.851,17.447c0.162,2.749-0.817,5.443-2.707,7.447C491.338,235.27,488.706,236.405,485.952,236.405z        M46.64,216.405h418.716L267.636,53.954c-3.355-2.681-7.354-4.098-11.568-4.098c-4.282,0-8.381,1.459-11.856,4.22       L46.64,216.405z"/></g></g><g><path d="M255.999,367.273L26.001,227.256v216.021c0,15.912,16.188,28.826,32.063,28.826h26.205      L255.999,367.273z" style="fill:#13AEF5;"/><g><path d="M84.269,482.104H58.063c-22.407,0-42.063-18.143-42.063-38.826V227.256c0-3.614,1.95-6.947,5.101-8.718       c3.149-1.771,7.011-1.704,10.099,0.176l229.998,140.017c2.979,1.813,4.798,5.049,4.8,8.536s-1.813,6.725-4.79,8.541       l-171.73,104.83C87.91,481.597,86.107,482.104,84.269,482.104z M36.001,245.051v198.226c0,9.501,10.928,18.826,22.063,18.826       h23.394l155.33-94.818L36.001,245.051z"/></g></g><g><path d="M485.952,226.405H26.048c-0.013,0.224-0.028,0.447-0.037,0.672      c-0.002,0.06-0.01,0.119-0.01,0.179l229.998,140.017l230-140.017C485.999,226.97,485.969,226.689,485.952,226.405z" style="fill:#477CE3;"/><g><path d="M255.999,377.273c-1.802,0-3.603-0.486-5.2-1.458L20.801,235.798c-2.98-1.814-4.8-5.052-4.8-8.542       c0-0.242,0.009-0.483,0.024-0.723c0.009-0.192,0.019-0.36,0.029-0.529l0.01-0.163c0.299-5.295,4.68-9.436,9.984-9.436h459.904       c5.296,0,9.674,4.129,9.983,9.417l0.008,0.113c0.032,0.438,0.056,0.877,0.056,1.321c0,3.49-1.819,6.727-4.8,8.542l-230,140.018       C259.602,376.787,257.801,377.273,255.999,377.273z M60.26,236.405l195.739,119.161l195.74-119.161H60.26z"/></g></g><g><polygon points="218.823,163.631 178.173,204.393 255.999,282.432 448.825,89.084 408.173,48.321       255.997,200.908     " style="fill:#E3E3E3;"/><g><path d="M255.999,292.432c-2.657,0-5.205-1.058-7.081-2.938l-77.826-78.039c-3.893-3.903-3.893-10.22,0-14.123l40.65-40.762       c1.876-1.881,4.424-2.938,7.081-2.938l0,0c2.657,0,5.205,1.058,7.081,2.939l30.093,30.177L401.092,41.259       c1.877-1.881,4.424-2.938,7.081-2.938s5.204,1.057,7.081,2.938l40.652,40.763c3.892,3.903,3.892,10.22,0,14.123L263.08,289.493       C261.203,291.374,258.656,292.432,255.999,292.432z M192.296,204.393l63.703,63.878L434.702,89.084l-26.529-26.602       L263.078,207.97c-1.877,1.881-4.424,2.938-7.081,2.938l0,0c-2.657,0-5.205-1.058-7.081-2.939l-30.093-30.177L192.296,204.393z"/></g></g></g></g></g><g id="Layer_1"/></svg>