<?xml version="1.0" ?><!DOCTYPE svg  PUBLIC '-//W3C//DTD SVG 1.1//EN'  'http://www.w3.org/Graphics/SVG/1.1/DTD/svg11.dtd'><svg height="512px" style="enable-background:new 0 0 512 512;" version="1.1" viewBox="0 0 512 512" width="512px" xml:space="preserve" xmlns="http://www.w3.org/2000/svg" xmlns:xlink="http://www.w3.org/1999/xlink"><g id="comp_x5F_180-itunes-note"><g><g><g><path d="M449.05,381.039c-6.506,27.853-27.649,43.506-56.011,48.793      c-24.904,4.573-45.64,5.692-65.564-10.367c-24.293-20.432-24.599-54.283-2.742-75.63c17.279-16.466,28.776-19.822,65.268-26.225      c6.1-1.118,11.385-2.542,15.858-7.522c6.506-7.318,4.472,9.834,4.472-151.892c0-11.385-5.591-14.536-17.279-12.503      c-8.337,1.423-166.889,35.171-166.889,35.171c-10.368,2.236-13.622,5.286-13.622,16.975c0,238.572,1.119,213.593-2.54,229.452      c-4.269,18.499-24.732,32.424-39.777,40.151c-17.077,9.453-47.979,13.621-64.445,10.571      c-43.913-8.233-59.364-58.956-29.581-88.029c17.28-16.465,41.574-19.82,78.067-26.226c6.099-1.118,11.385-2.54,15.857-7.521      c10.267-11.689,1.829-246.834,5.286-260.658c0.813-5.286,3.05-9.758,7.217-13.113c4.27-3.559,11.995-5.591,13.621-5.591      c207.366-38.83,232.676-43.811,236.234-43.811c11.69-0.813,18.397,6.099,18.397,17.891      C451.082,401.141,451.996,368.335,449.05,381.039z" style="fill:#00C1FF;"/><path d="M118.287,488.999c-5.378,0-10.2-0.388-14.331-1.152c-24.655-4.623-43.52-21.115-50.485-44.121      c-6.663-22.006-0.779-44.771,15.74-60.897c0.029-0.027,0.058-0.056,0.087-0.084c18.426-17.556,42.882-21.811,76.731-27.699      l6.506-1.136c4.539-0.832,7.185-1.598,9.32-3.522c0.893-3.247,2.871-15.669,3.413-62.26      c0.386-33.182-0.011-73.243-0.361-108.589c-0.568-57.371-0.657-79.134,0.663-85.771c1.28-7.913,4.886-14.316,10.723-19.04      c5.523-4.565,14.043-7.203,18.462-7.746c53.183-9.958,94.374-17.688,126.283-23.675      c100.21-18.803,107.467-20.165,111.063-20.237c17.085-1.045,28.775,10.409,28.775,27.887      c0.05,85.813,0.144,148.776,0.211,194.75c0.19,128.837,0.19,128.837-1.811,135.766c-0.144,0.499-0.307,1.055-0.486,1.826      c-7.001,29.974-29.7,49.985-63.919,56.365c-7.959,1.461-18.361,3.133-28.473,3.133c-17.679,0-32.042-4.939-45.2-15.545      c-0.055-0.044-0.108-0.088-0.161-0.133c-13.694-11.518-21.585-27.25-22.219-44.299c-0.64-17.208,6.081-33.594,18.926-46.139      c0.029-0.028,0.059-0.057,0.089-0.085c19.549-18.629,33.223-22.306,70.438-28.835c5.139-0.942,7.852-1.8,10.147-4.355      c0.606-0.683,1.176-1.239,1.646-1.678c0.682-4.747,0.612-21.165,0.475-54.182c-0.089-21.066-0.21-49.917-0.21-89.35      c0-1.538-0.144-2.487-0.269-3.02c-0.267-0.033-0.635-0.06-1.121-0.06c-1.136,0-2.54,0.145-4.176,0.429      c-6.467,1.104-111.75,23.442-166.521,35.1c-3.632,0.783-4.794,1.396-5.116,1.612c-0.142,0.34-0.588,1.712-0.588,5.582      c0,57.028,0.064,99.239,0.111,130.061c0.137,89.81,0.137,89.81-2.186,98.739c-0.214,0.823-0.454,1.743-0.721,2.9      c-5.117,22.174-27.164,37.641-44.817,46.729C158.945,485.062,134.985,488.999,118.287,488.999z M83.138,397.183      c-11.045,10.811-14.979,26.038-10.526,40.748c4.762,15.727,17.849,27.037,35.008,30.254c2.869,0.532,6.565,0.814,10.666,0.814      c16.501,0,36.307-4.335,47.093-10.306c0.091-0.05,0.182-0.099,0.274-0.146c19.373-9.95,31.985-22.162,34.602-33.504      c0.317-1.372,0.6-2.463,0.854-3.439c1.644-6.318,1.672-8.069,1.542-93.673c-0.047-30.828-0.111-73.049-0.111-130.092      c0-15.911,6.032-23.411,21.514-26.75c6.508-1.385,158.874-33.813,167.314-35.253c2.772-0.482,5.259-0.719,7.572-0.719      c13.394,0,21.39,8.628,21.39,23.08c0,39.39,0.121,68.217,0.209,89.266c0.123,29.158,0.185,43.794-0.228,51.712      c-0.424,8.141-1.427,12.506-6.252,16.858c-0.358,0.323-0.539,0.488-0.728,0.699c-6.718,7.479-14.634,9.451-21.529,10.715      c-35.122,6.162-44.89,9.079-60.124,23.583c-8.729,8.545-13.3,19.569-12.873,31.047c0.42,11.305,5.756,21.838,15.027,29.669      c9.515,7.643,19.563,11.051,32.566,11.051c8.497,0,17.735-1.496,24.834-2.8c26.664-4.971,42.85-18.845,48.078-41.231      c0.286-1.234,0.544-2.126,0.751-2.844c1.212-4.194,1.198-13.708,1.025-130.186c-0.067-45.978-0.161-108.947-0.211-194.774      C440.877,43,436.919,43,434.3,43c-0.366,0-0.742,0.014-1.127,0.041c-0.164,0.011-0.328,0.019-0.492,0.022      c-3.33,0.268-25.812,4.486-107.954,19.899c-31.981,6.001-73.285,13.751-126.641,23.742c-0.397,0.074-0.798,0.125-1.201,0.15      c-1.598,0.289-6.022,1.763-7.858,3.293c-0.043,0.036-0.087,0.072-0.131,0.107c-2.015,1.622-3.126,3.732-3.604,6.843      c-0.039,0.254-0.088,0.506-0.146,0.756c-0.989,5.741-0.608,44.245-0.239,81.484c0.368,37.139,0.785,79.234,0.304,113.445      c-0.265,18.813-0.768,33.135-1.538,43.782c-1.285,17.769-3.113,22.94-6.037,26.27c-0.024,0.028-0.049,0.056-0.074,0.083      c-6.68,7.438-14.597,9.41-21.494,10.675l-6.61,1.154C117.979,380.226,97.171,383.845,83.138,397.183z M196.733,86.863      c-0.163,0.008-0.325,0.012-0.488,0.012C196.374,86.875,196.539,86.878,196.733,86.863z" style="fill:#0091BF;"/></g></g></g></g><g id="Layer_1"/></svg>