<?xml version="1.0" ?><!DOCTYPE svg  PUBLIC '-//W3C//DTD SVG 1.1//EN'  'http://www.w3.org/Graphics/SVG/1.1/DTD/svg11.dtd'><svg height="512px" style="enable-background:new 0 0 512 512;" version="1.1" viewBox="0 0 512 512" width="512px" xml:space="preserve" xmlns="http://www.w3.org/2000/svg" xmlns:xlink="http://www.w3.org/1999/xlink"><g id="comp_x5F_214-megaport"><g><g><g><path d="M256,26.001c-127.057,0-230,102.943-230,229.999c0,127.057,102.943,229.999,230,229.999      c127.056,0,229.999-102.942,229.999-229.999C485.999,128.944,383.057,26.001,256,26.001z" style="fill:#ED1C24;"/><path d="M256,495.999c-64.122,0-124.395-24.96-169.717-70.282C40.961,380.395,16.001,320.121,16.001,256      s24.96-124.394,70.282-169.716C131.606,40.961,191.879,16.001,256,16.001c64.122,0,124.394,24.96,169.716,70.283      c45.322,45.322,70.282,105.595,70.282,169.716s-24.96,124.395-70.282,169.717S320.122,495.999,256,495.999z M256,36.001      c-121.308,0-220,98.691-220,219.999s98.691,219.999,220,219.999c121.307,0,219.999-98.691,219.999-219.999      S377.308,36.001,256,36.001z" style="fill:#B2151B;"/></g><g><path d="M335.295,274.178v-81.242l-55.184-55.182V67.643l-24.204-17.806l-24.206,17.806v70.111      l-55.182,55.182v81.519l-55.18,55.183v80.685l24.205,17.808l24.206-17.808v-60.745l31.069-30.976l30.974,30.976v60.745      L256,428.129l24.297-17.808v-60.745l30.975-30.976l30.978,30.976v60.745l24.111,17.808l24.208-17.808h0.093v-80.776      L335.295,274.178z M286.882,274.548L256,305.43l-31.069-31.066V212.97l30.976-30.978l30.975,30.978V274.548z" style="fill:#FFFFFF;"/><path d="M145.544,438.129c-2.082,0-4.164-0.648-5.926-1.945l-24.205-17.808      c-2.562-1.885-4.074-4.875-4.074-8.055v-80.685c0-2.652,1.054-5.195,2.929-7.071l52.251-52.253v-77.377      c0-2.652,1.054-5.196,2.929-7.071l52.252-52.252V67.643c0-3.18,1.513-6.171,4.075-8.055l24.206-17.806      c3.525-2.593,8.327-2.594,11.851,0l24.204,17.806c2.562,1.884,4.074,4.875,4.074,8.055v65.969l52.255,52.252      c1.875,1.875,2.929,4.419,2.929,7.071v77.1l52.438,52.438c1.875,1.876,2.929,4.419,2.929,7.071v80.776      c0,3.687-1.994,6.906-4.963,8.641l-23.412,17.223c-3.531,2.596-8.342,2.592-11.867-0.012l-24.111-17.808      c-2.553-1.886-4.059-4.87-4.059-8.044v-56.603l-20.978-20.977l-20.975,20.976v56.604c0,3.187-1.519,6.182-4.089,8.065      l-24.297,17.808c-3.524,2.585-8.317,2.579-11.837-0.01l-24.207-17.808c-2.562-1.885-4.074-4.876-4.074-8.056v-56.604      l-20.985-20.985l-21.059,20.995v56.594c0,3.18-1.513,6.171-4.074,8.055l-24.206,17.808      C149.708,437.48,147.626,438.129,145.544,438.129z M241.793,405.264l14.218,10.459l14.286-10.471v-55.676      c0-2.652,1.054-5.195,2.929-7.071l30.975-30.976c3.906-3.904,10.236-3.904,14.143,0l30.978,30.976      c1.875,1.875,2.929,4.419,2.929,7.071v55.699l14.123,10.431l14.289-10.511v-71.508l-52.438-52.438      c-1.875-1.876-2.929-4.419-2.929-7.071v-77.1l-52.255-52.252c-1.875-1.875-2.929-4.419-2.929-7.071V72.701l-14.204-10.45      l-14.206,10.45v65.053c0,2.652-1.054,5.196-2.929,7.071l-52.253,52.252v77.376c0,2.652-1.054,5.195-2.929,7.071l-52.251,52.253      v71.485l14.205,10.45l14.206-10.45v-55.688c0-2.657,1.058-5.205,2.939-7.082l31.069-30.976      c3.907-3.896,10.23-3.889,14.132,0.011l30.974,30.976c1.875,1.876,2.929,4.419,2.929,7.071V405.264z M256,315.43      c-2.559,0-5.118-0.977-7.071-2.929l-31.069-31.066c-1.875-1.875-2.929-4.419-2.929-7.071V212.97      c0-2.652,1.054-5.195,2.929-7.071l30.976-30.978c1.875-1.875,4.419-2.929,7.071-2.929s5.196,1.054,7.071,2.929l30.975,30.978      c1.875,1.875,2.929,4.419,2.929,7.071v61.578c0,2.652-1.054,5.195-2.929,7.071l-30.882,30.882      C261.119,314.453,258.56,315.43,256,315.43z M234.932,270.221L256,291.288l20.882-20.883v-53.294l-20.975-20.977l-20.976,20.977      V270.221z" style="fill:#B2151B;"/></g></g></g></g><g id="Layer_1"/></svg>