<?xml version="1.0" ?><!DOCTYPE svg  PUBLIC '-//W3C//DTD SVG 1.1//EN'  'http://www.w3.org/Graphics/SVG/1.1/DTD/svg11.dtd'><svg height="512px" style="enable-background:new 0 0 512 512;" version="1.1" viewBox="0 0 512 512" width="512px" xml:space="preserve" xmlns="http://www.w3.org/2000/svg" xmlns:xlink="http://www.w3.org/1999/xlink"><g id="comp_x5F_215-mendeley"><g><g><g><path d="M474.929,305.737c-8.839-8.912-21.345-13.798-34.786-12.361      c-31.121-0.719-35.72-25.082-26.951-71.009c16.388-41.327-10.709-94.512-62.816-94.009c-55.63,0.502-58.72,58.936-94.082,58.936      c-34.571,0-38.811-58.434-94.081-58.936c-52.396-0.575-79.131,52.683-62.816,94.009c8.768,45.927,4.168,70.29-26.953,71.009      c-15.237-1.651-26.592,4.674-38.092,16.171c-14.302,14.16-13.872,68.136,30.617,73.741c33.853,4.24,58.648-30.833,43.986-63.103      c-33.995-74.531,133.611-76.256,105.294-5.894c-0.073,0.071-0.145,0.142-0.216,0.288c-19.262,30.759,4.887,70.002,42.261,68.423      c37.447,1.508,61.378-37.807,42.26-68.423c-0.071-0.146-0.143-0.217-0.214-0.288c-28.318-70.362,139.288-68.638,105.293,5.894      c-3.308,7.186-4.816,15.309-4.098,23.718c3.522,38.379,49.376,53.256,75.394,25.3      C487.724,358.564,491.533,322.052,474.929,305.737L474.929,305.737z" style="fill:#A71925;"/><path d="M442.527,393.647C442.527,393.647,442.528,393.647,442.527,393.647      c-12.915,0-25.351-4.632-35.016-13.042c-10.268-8.934-16.637-21.644-17.935-35.788c-0.852-9.96,0.869-19.901,4.972-28.813      c4.688-10.278,4.851-18.964,0.467-25.781c-6.779-10.544-24.283-17.356-44.592-17.356c-19.153,0-35.717,6.198-42.196,15.791      c-3.837,5.681-4.155,12.555-0.967,20.99c10.287,16.753,10.727,37.007,1.156,54.267c-9.964,17.969-29.138,29.131-50.039,29.131      c-0.688,0-1.379-0.012-2.075-0.035c-0.734,0.026-1.463,0.039-2.189,0.039c-20.902,0-40.072-11.17-50.027-29.151      c-9.551-17.249-9.078-37.501,1.246-54.263c3.185-8.432,2.865-15.303-0.97-20.979c-6.479-9.592-23.043-15.789-42.199-15.789      c-20.307,0-37.81,6.813-44.59,17.359c-4.384,6.817-4.222,15.502,0.479,25.81c7.992,17.591,6.673,37.537-3.524,53.37      c-9.772,15.174-26.223,24.232-44.005,24.232c-2.247,0-4.534-0.144-6.798-0.427c-21.622-2.725-37.338-15.447-44.262-35.826      c-6.725-19.792-3.276-43.927,7.852-54.944c8.981-8.979,21.728-19.324,40.432-19.324c1.654,0,3.352,0.082,5.058,0.245      c11.134-0.396,14.467-4.521,15.575-5.893c6.116-7.57,6.563-24.697,1.362-52.343c-9.173-24.146-5.786-52.428,8.926-74.053      c14.146-20.794,37.001-32.719,62.706-32.719c0.313,0,0.634,0.001,0.949,0.005c35.477,0.323,52.725,21.413,66.584,38.359      c10.748,13.141,17.318,20.576,27.387,20.576c10.438,0,17-7.482,27.702-20.708c13.665-16.888,30.671-37.906,66.29-38.228      l0.822-0.004c25.727,0,48.626,11.991,62.827,32.9c14.694,21.634,18.075,49.849,8.911,73.878      c-5.2,27.644-4.754,44.767,1.361,52.336c1.108,1.372,4.441,5.498,15.582,5.893c1.662-0.155,3.337-0.233,4.991-0.233      c14.042,0,27.252,5.513,37.204,15.522c9.571,9.438,14.657,24.588,13.952,41.578c-0.646,15.569-5.899,29.037-14.093,36.218      C471.31,387.543,457.369,393.647,442.527,393.647z M418.087,298.018c0.569,7.349-0.706,16.123-5.355,26.318      c-2.672,5.803-3.784,12.264-3.232,18.716c1.842,20.064,18.011,30.595,33.028,30.596c9.418,0,18.325-3.998,25.081-11.257      c0.29-0.312,0.6-0.604,0.927-0.877c3.346-2.781,6.969-11.271,7.418-22.115c0.466-11.211-2.537-21.129-8.033-26.528      c-0.03-0.03-0.062-0.061-0.092-0.091c-7.012-7.07-16.685-10.518-26.623-9.46c-0.429,0.046-0.866,0.066-1.293,0.054      C431.335,303.175,424.037,301.38,418.087,298.018z M67.747,303.116c-8.986,0-16.859,4.038-26.326,13.503      c-4.501,4.456-7.885,20.016-3.021,34.332c3.062,9.013,10.374,20.218,27.818,22.415c1.436,0.18,2.887,0.271,4.306,0.271      c11.115,0,21.025-5.489,27.19-15.062c6.595-10.241,7.374-22.726,2.136-34.254c-4.646-10.188-5.92-18.959-5.35-26.306      c-5.951,3.363-13.249,5.158-21.826,5.356c-0.439,0.011-0.875-0.009-1.309-0.056C70.133,303.185,68.916,303.116,67.747,303.116z       M222.301,320.222c-6.521,10.658-6.788,23.024-0.717,33.988c6.531,11.797,18.692,18.839,32.53,18.839      c0.582,0,1.167-0.012,1.757-0.037c0.275-0.013,0.551-0.012,0.825-0.001c0.564,0.023,1.125,0.034,1.682,0.034      c13.843,0,26.01-7.039,32.548-18.829c6.006-10.831,5.75-23.526-0.666-34.034c-0.485-0.666-0.889-1.392-1.196-2.156      c-7.656-19.021-2.817-32.558,2.591-40.563c10.403-15.401,32.373-24.597,58.77-24.597c16.026,0,35.377,3.895,49.383,14.034      c-1.387-11.782-0.17-26.86,3.563-46.409c0.118-0.619,0.294-1.225,0.526-1.811c7.198-18.153,4.705-39.684-6.506-56.189      c-10.572-15.565-27.009-24.137-46.282-24.137l-0.636,0.003c-26.191,0.236-38.207,15.087-50.929,30.81      c-11.188,13.828-22.759,28.127-43.25,28.127c-20.039,0-31.645-14.191-42.869-27.915c-12.947-15.831-25.176-30.784-51.303-31.021      l-0.749-0.004c-19.257,0-35.654,8.512-46.17,23.969c-11.226,16.501-13.718,38.102-6.505,56.373      c0.229,0.581,0.404,1.183,0.521,1.797c3.732,19.551,4.949,34.629,3.561,46.412c14.006-10.141,33.358-14.038,49.384-14.038      c26.398,0,48.369,9.193,58.771,24.594c5.408,8.005,10.247,21.541,2.591,40.565C223.211,318.809,222.799,319.546,222.301,320.222      z" style="fill:#7D131C;"/></g><path d="M256.457,280.97h-0.327c-23.56,0-34.092-20.36-34.092-34.093     c0-18.838,15.309-34.092,34.092-34.092h0.327c18.838,0,34.092,15.254,34.092,34.092     C290.549,260.447,280.125,280.97,256.457,280.97z" style="fill:#FFFFFF;"/></g></g></g><g id="Layer_1"/></svg>