<?xml version="1.0" ?><!DOCTYPE svg  PUBLIC '-//W3C//DTD SVG 1.1//EN'  'http://www.w3.org/Graphics/SVG/1.1/DTD/svg11.dtd'><svg height="512px" style="enable-background:new 0 0 512 512;" version="1.1" viewBox="0 0 512 512" width="512px" xml:space="preserve" xmlns="http://www.w3.org/2000/svg" xmlns:xlink="http://www.w3.org/1999/xlink"><g id="comp_x5F_221-Monero"><g><g><g><path d="M256.253,284.215c-47.643-48.11-94.639-95.241-141.966-143.384c0,61.938,0,123.123,0,184.673      c-1.731,0-3.05,0.334-4.061,0.334c-19.093,0-38.171,0-57.552,0c-2.729,0-4.093-0.668-4.749-3.467      c-7.844-26.478-11.284-53.262-9.229-81.112c3.431-46.798,19.417-88.734,49.379-124.827      c33.028-40.249,74.897-66.011,125.982-76.006c67.363-13.038,128.677,2.755,181.784,47.111      c40.509,33.718,64.986,77.383,74.539,129.645c6.486,35.405,3.768,70.163-6.454,104.525c-1.045,2.731-2.041,3.797-5.106,3.797      c-19.064,0-38.123,0-57.534,0c-1.057,0-2.373,0-3.767,0c0-61.548,0-122.805,0-184.33      C350.557,189.307,303.571,236.44,256.253,284.215L256.253,284.215z" style="fill:#F16822;"/><g><path d="M110.227,335.838H52.675c-10.354,0-13.491-7.314-14.399-10.838       c-8.499-28.771-11.623-56.405-9.552-84.477c3.641-49.673,21.021-93.574,51.657-130.478       c34.791-42.396,79.132-69.136,131.756-79.433C227.953,27.551,243.662,26,258.846,26c52.366,0,100.615,18.122,143.406,53.861       c41.627,34.649,67.862,80.249,77.966,135.522c6.518,35.573,4.261,72.306-6.706,109.175c-0.072,0.243-0.154,0.484-0.245,0.722       c-2.595,6.784-7.456,10.224-14.446,10.224H397.52c-5.522,0-10-4.478-10-10V165.699c-30.634,31.246-61.539,62.403-91.584,92.693       c-10.845,10.933-21.702,21.879-32.578,32.859c-1.878,1.896-4.436,2.963-7.104,2.963c0,0,0,0,0,0       c-2.669,0-5.227-1.067-7.105-2.964c-15.525-15.678-30.982-31.251-46.404-46.79c-25.713-25.908-52.144-52.539-78.456-79.222       v160.265c0,5.522-4.477,10-10,10c-0.352,0-0.775,0.054-1.311,0.121C112.227,335.72,111.294,335.838,110.227,335.838z        M56.45,315.838h47.837V140.831c0-4.06,2.455-7.717,6.213-9.255c3.758-1.539,8.072-0.651,10.918,2.245       c31.885,32.435,64.235,65.03,95.52,96.552c13.073,13.172,26.171,26.369,39.315,39.634c8.504-8.581,16.998-17.143,25.482-25.698       c35.638-35.928,72.488-73.079,108.627-110.117c2.839-2.913,7.16-3.813,10.928-2.279c3.767,1.533,6.229,5.195,6.229,9.262       v174.33h47.795c9.353-33.076,11.062-64.688,5.23-96.521c-9.239-50.542-33.16-92.181-71.101-123.761       C350.335,62.558,306.399,46,258.846,46c-13.912,0-28.341,1.428-42.888,4.243c-47.921,9.376-88.353,33.781-120.152,72.532       C67.847,156.455,52,196.55,48.669,241.99C46.862,266.484,49.408,290.681,56.45,315.838z" style="fill:#B54E1A;"/></g></g><g><path d="M70.049,370.179c30.304,0,60.604,0,91.229,0c0-38.501,0-77.016,0-116.192      c31.639,31.959,62.99,63.609,94.288,95.231c31.68-31.997,62.984-63.269,94.684-95.231c0,38.848,0,77.361,0,115.851      c30.604,0,60.588,0,91.883,0c-18.045,29.256-40.496,52.962-68.764,71.184c-27.907,18.238-58.549,29.588-91.564,33.364      C181.37,486.437,103.397,428.981,70.049,370.179L70.049,370.179z" style="fill:#4D4D4D;"/><g><path d="M255.038,485.999c-96.544,0-164.677-59.734-193.688-110.887       c-1.755-3.096-1.733-6.892,0.058-9.967c1.792-3.075,5.082-4.967,8.641-4.967h81.229V253.986c0-4.054,2.447-7.707,6.196-9.249       c3.748-1.542,8.058-0.668,10.91,2.213l39.514,39.907c15.93,16.087,31.809,32.123,47.671,48.148       c14.833-14.959,29.721-29.907,44.185-44.43c14.432-14.489,28.872-28.988,43.395-43.632c2.854-2.877,7.165-3.748,10.908-2.205       c3.747,1.543,6.192,5.194,6.192,9.247v105.851h81.883c3.625,0,6.966,1.961,8.732,5.126c1.766,3.166,1.682,7.039-0.222,10.124       c-19.304,31.298-42.809,55.614-71.856,74.339c-29.436,19.237-61.7,30.988-95.846,34.895       C273.672,485.433,264.266,485.999,255.038,485.999z M88.293,380.179c30.214,42.416,88.102,85.82,166.744,85.82       c8.435,0,17.04-0.519,25.575-1.543c31.079-3.555,60.428-14.254,87.285-31.807c21.637-13.947,39.913-31.317,55.521-52.813       h-73.169c-5.522,0-10-4.478-10-10v-91.591c-8.789,8.838-17.559,17.644-26.325,26.445       c-16.766,16.833-34.103,34.24-51.252,51.563c-1.878,1.896-4.438,2.964-7.106,2.964c0,0,0,0-0.001,0       c-2.669,0-5.229-1.068-7.106-2.966c-18.224-18.412-36.465-36.834-54.771-55.32l-22.409-22.633v91.88c0,5.522-4.477,10-10,10       H88.293z" style="fill:#3A3A3A;"/></g></g></g></g></g><g id="Layer_1"/></svg>