<?xml version="1.0" ?><!DOCTYPE svg  PUBLIC '-//W3C//DTD SVG 1.1//EN'  'http://www.w3.org/Graphics/SVG/1.1/DTD/svg11.dtd'><svg height="512px" style="enable-background:new 0 0 512 512;" version="1.1" viewBox="0 0 512 512" width="512px" xml:space="preserve" xmlns="http://www.w3.org/2000/svg" xmlns:xlink="http://www.w3.org/1999/xlink"><g id="comp_x5F_227-netflix"><g><g><g><g><polygon points="299.005,254 299.005,28 385.025,28 385.025,477      " style="fill:#860000;"/></g><g><polygon points="212.985,255.26 212.985,484 126.975,484 126.975,38.41      " style="fill:#860000;"/></g><g><polygon points="385.025,477 385.025,484 303.715,484 126.975,38.41 126.975,28 211.765,28      " style="fill:#ED0000;"/></g></g><g><path d="M385.025,18h-86.021c-5.522,0-10,4.477-10,10v171.615L222.331,24.443c-0.592-1.554-1.547-2.891-2.741-3.943      c-1.788-1.573-4.117-2.5-6.604-2.5h-15.801h-67.549h-2.661c-5.522,0-10,4.477-10,10v12.325V484c0,5.522,4.478,10,10,10h86.011      c5.522,0,10-4.478,10-10V309.269l66.653,178.234c1.2,3.21,3.936,5.527,7.188,6.254c0.705,0.157,1.435,0.243,2.179,0.243h19.433      h62.429h4.159c5.522,0,10-4.478,10-10v-8.863V28C395.025,22.477,390.548,18,385.025,18z M202.985,474h-66.011V90.748      l66.011,166.422V474z M310.505,474l-79.879-201.387l-8.275-22.127c-0.389-1.04-0.941-1.975-1.611-2.798L137.568,38h67.334      l168.246,436H310.505z M309.005,252.218V38h66.021v385.307L309.005,252.218z"/></g></g></g></g><g id="Layer_1"/></svg>