<?xml version="1.0" ?><!DOCTYPE svg  PUBLIC '-//W3C//DTD SVG 1.1//EN'  'http://www.w3.org/Graphics/SVG/1.1/DTD/svg11.dtd'><svg height="512px" style="enable-background:new 0 0 512 512;" version="1.1" viewBox="0 0 512 512" width="512px" xml:space="preserve" xmlns="http://www.w3.org/2000/svg" xmlns:xlink="http://www.w3.org/1999/xlink"><g id="comp_x5F_239-openid"><g><g><g><path d="M234.849,419v6.623c-79.268-9.958-139.334-53.393-139.334-105.757      c0-39.313,33.873-73.595,84.485-92.511L178.023,180C88.892,202.497,26.001,256.607,26.001,319.866      c0,76.288,90.871,139.128,208.95,149.705l0.018-0.009V419H234.849z" style="fill:#B2B2B2;"/><g><path d="M234.939,479.57c-0.293,0-0.587-0.013-0.88-0.039c-59.253-5.308-113.819-23.779-153.646-52.013       c-41.537-29.445-64.412-67.678-64.412-107.652c0-66.388,62.637-125.095,159.575-149.563c2.919-0.737,6.014-0.119,8.427,1.68       c2.413,1.8,3.886,4.591,4.012,7.599l1.977,47.356c0.181,4.322-2.438,8.27-6.49,9.784       c-23.862,8.918-43.715,21.389-57.413,36.063c-13.459,14.418-20.573,30.698-20.573,47.081       c0,43.963,50.105,82.706,120.537,94.374c1.692-3.121,4.997-5.24,8.797-5.24h0.12c5.523,0,10,4.478,10,10v50.563       c0,3.793-2.146,7.26-5.541,8.95C238.036,479.207,236.491,479.57,234.939,479.57z M168.554,192.939       c-37.662,11.021-69.725,27.883-93.266,49.131c-25.702,23.198-39.287,50.1-39.287,77.796       c0,67.232,80.496,125.674,188.968,138.61V434.32c-37.035-5.864-70.686-19.099-95.503-37.666       c-28.342-21.206-43.951-48.477-43.951-76.788c0-21.54,8.975-42.54,25.953-60.729c14.443-15.472,34.478-28.692,58.244-38.484       L168.554,192.939z"/></g></g><g><polygon points="304.772,436.713 304.67,436.713 304.67,221.667 304.67,213.667 304.67,42.429       234.849,78.25 234.849,221.667 234.969,221.667 234.969,469.563     " style="fill:#F7931E;"/><g><path d="M234.969,479.563c-1.869,0-3.731-0.523-5.358-1.557c-2.891-1.834-4.642-5.02-4.642-8.443V223.222       c-0.079-0.506-0.12-1.026-0.12-1.555V78.25c0-3.75,2.098-7.186,5.435-8.897l69.822-35.822c3.099-1.59,6.805-1.453,9.777,0.364       c2.974,1.816,4.787,5.049,4.787,8.534v392.854c0.627,4.322-1.635,8.594-5.64,10.479l-69.803,32.85       C237.874,479.247,236.419,479.563,234.969,479.563z M244.849,220.112c0.079,0.506,0.12,1.026,0.12,1.555v232.138l49.701-23.39       V58.798l-49.821,25.561V220.112z"/></g></g><g><path d="M485.999,291.938l-9.446-100.114l-35.938,20.331C415.087,196.649,382.5,177.5,340,177.261      l0.002,36.406v7.498c3.502,0.968,6.923,2.024,10.301,3.125c14.145,4.611,27.176,10.352,38.666,17.128l-37.786,21.254      L485.999,291.938z" style="fill:#B2B2B2;"/><g><path d="M485.999,301.938c-0.707,0-1.417-0.075-2.121-0.228l-134.816-29.266c-4.059-0.881-7.149-4.179-7.768-8.285       s1.367-8.167,4.986-10.203l21.64-12.172c-6.513-2.943-13.436-5.613-20.717-7.987c-3.628-1.183-6.855-2.162-9.866-2.995       c-4.334-1.198-7.335-5.142-7.335-9.638L330,177.261c0-2.662,1.062-5.214,2.948-7.091c1.875-1.864,4.41-2.909,7.052-2.909       c0.019,0,0.037,0,0.057,0c43.172,0.243,77.156,19.11,100.73,33.308l30.842-17.448c2.95-1.669,6.546-1.729,9.55-0.162       c3.005,1.568,5.012,4.552,5.33,7.926l9.446,100.114c0.3,3.176-0.934,6.304-3.32,8.421       C490.787,301.059,488.42,301.938,485.999,301.938z M379.026,258.484l95.732,20.781l-6.712-71.139l-22.508,12.733       c-3.151,1.784-7.021,1.723-10.115-0.157c-21.143-12.843-49.445-30.034-85.423-33l0.001,25.993       c1.101,0.345,2.232,0.707,3.399,1.087c14.968,4.879,28.643,10.943,40.647,18.022c3.08,1.816,4.956,5.14,4.92,8.716       c-0.037,3.576-1.98,6.86-5.098,8.614L379.026,258.484z"/></g></g></g></g></g><g id="Layer_1"/></svg>