<?xml version="1.0" ?><!DOCTYPE svg  PUBLIC '-//W3C//DTD SVG 1.1//EN'  'http://www.w3.org/Graphics/SVG/1.1/DTD/svg11.dtd'><svg height="512px" style="enable-background:new 0 0 512 512;" version="1.1" viewBox="0 0 512 512" width="512px" xml:space="preserve" xmlns="http://www.w3.org/2000/svg" xmlns:xlink="http://www.w3.org/1999/xlink"><g id="comp_x5F_241-opera"><g><g><g><path d="M395.324,442.491c-44.584,25.255-110.89,29.072-155.909-0.991      c61.263-20.96,118.52-98.601,118.52-185.513c0-86.606-55.755-164.72-117.02-185.987c45.563-29.858,110.263-25.567,155.72,0.302      C512.072,171.223,511.637,341.977,395.324,442.491z" style="fill:#D12828;"/><g><path d="M315.41,472.754c-30.879,0-59.078-7.932-81.548-22.938c-3.164-2.112-4.854-5.837-4.363-9.608       c0.491-3.771,3.08-6.938,6.679-8.17c28.278-9.674,56.399-33.044,77.155-64.117c22.313-33.405,34.602-73.157,34.602-111.934       c0-38.818-12.041-78.601-33.904-112.021c-20.439-31.245-48.285-54.761-76.395-64.519c-3.601-1.25-6.178-4.438-6.645-8.22       c-0.468-3.783,1.255-7.502,4.443-9.591c22.38-14.666,50.041-22.418,79.99-22.418c30.185,0,60.782,7.953,86.157,22.393       c0.583,0.332,1.131,0.721,1.636,1.163c29.253,25.575,51.917,55.842,67.362,89.961c14.904,32.926,22.41,67.835,22.307,103.759       c-0.103,35.964-7.824,70.877-22.95,103.769c-15.682,34.101-38.585,64.312-68.073,89.795c-0.497,0.43-1.037,0.811-1.609,1.135       C375.707,465.097,345.576,472.754,315.41,472.754z M262.124,442.455c15.772,6.773,33.864,10.299,53.286,10.299       c26.414,0,52.697-6.56,74.131-18.483c53.563-46.635,83.149-109.748,83.345-177.833c0.195-67.981-28.941-131.132-82.068-177.935       c-22.237-12.441-48.968-19.284-75.394-19.284c-18.665,0-36.216,3.401-51.696,9.939c25.264,13.538,48.57,35.628,67.04,63.86       c23.968,36.637,37.167,80.309,37.167,122.97c0,42.688-13.485,86.385-37.971,123.043       C311.496,406.678,287.501,428.958,262.124,442.455z"/></g></g><g><path d="M320.215,56.338c-157.838,0-234.254,207.544-136.787,329.309      c33.849,42.104,82.166,70.107,136.787,70.107c33.662,0,65.193-10.293,92.18-28.189c-40.619,36.352-94.5,58.424-153.294,58.424      c-3.616,0-7.418,0-11.035-0.278C126.116,480.053,29.113,379.434,29.113,256c0-127.05,102.938-229.988,229.987-229.988h0.743      c58.516,0.278,111.932,22.35,152.459,58.517C385.408,66.539,353.783,56.338,320.215,56.338L320.215,56.338z" style="fill:#FF1B2D;"/><g><path d="M259.101,495.988c-3.61,0-7.694,0-11.646-0.296c-61.63-2.896-119.095-29.088-161.823-73.759       C42.737,377.086,19.113,318.157,19.113,256c0-64.118,24.959-124.389,70.279-169.708c45.32-45.32,105.59-70.279,169.708-70.279       h0.743c58.646,0.278,114.979,21.834,158.73,60.711c2.285,1.833,3.748,4.648,3.748,7.806c0,5.455-4.366,9.889-9.795,9.998       c-1.985,0.048-4.013-0.501-5.784-1.686c-25.92-17.338-55.841-26.503-86.528-26.503c-63.411,0-119.103,37.12-148.976,99.296       c-34.432,71.666-26.583,155.573,19.996,213.764c34.396,42.785,80.208,66.356,128.98,66.356       c30.523,0,60.488-9.172,86.653-26.523c4.368-2.896,10.235-1.928,13.439,2.22c3.206,4.149,2.662,10.069-1.244,13.565       C375.129,474.335,318.319,495.988,259.101,495.988z M259.796,36.012h-0.695C137.799,36.012,39.113,134.698,39.113,256       c0,117.76,91.986,214.274,209.416,219.721c0.102,0.005,0.203,0.011,0.304,0.019c3.234,0.249,6.81,0.249,10.268,0.249       c22.914,0,45.431-3.534,66.833-10.329c-1.903,0.063-3.811,0.095-5.719,0.095c-28.083,0-55.291-6.873-80.866-20.43       c-24.02-12.73-45.457-30.701-63.714-53.412c-26.092-32.597-41.595-72.748-44.846-116.131       c-3.059-40.826,4.695-81.909,22.423-118.809c15.605-32.48,38.294-59.766,65.615-78.907       c30.048-21.053,64.16-31.728,101.388-31.728c1.872,0,3.738,0.03,5.605,0.09C304.649,39.681,282.409,36.119,259.796,36.012z"/></g></g></g></g></g><g id="Layer_1"/></svg>