<?xml version="1.0" ?><!DOCTYPE svg  PUBLIC '-//W3C//DTD SVG 1.1//EN'  'http://www.w3.org/Graphics/SVG/1.1/DTD/svg11.dtd'><svg height="512px" style="enable-background:new 0 0 512 512;" version="1.1" viewBox="0 0 512 512" width="512px" xml:space="preserve" xmlns="http://www.w3.org/2000/svg" xmlns:xlink="http://www.w3.org/1999/xlink"><g id="comp_x5F_244-page4"><g><g><g><path d="M256,485.999c-127.057,0-230-102.942-230-229.999c0-127.056,102.943-229.999,230-229.999      c19.381,0,38.302,2.411,56.294,6.957L65.23,382.13H256V485.999z" style="fill:#48638E;"/><path d="M256,495.999c-64.122,0-124.395-24.96-169.717-70.282C40.961,380.395,16.001,320.121,16.001,256      s24.96-124.394,70.283-169.716C131.606,40.961,191.879,16.001,256,16.001c19.909,0,39.673,2.443,58.744,7.262      c3.196,0.808,5.789,3.139,6.932,6.231c1.142,3.093,0.687,6.549-1.218,9.24L84.556,372.13H256c5.523,0,10,4.478,10,10v103.869      C266,491.521,261.523,495.999,256,495.999z M83.289,392.13c38.39,48.602,96.831,80.681,162.711,83.645V392.13H83.289z       M256,36.001c-121.308,0-220,98.691-220,219.999c0,39.679,10.561,76.941,29.016,109.118L295.398,39.525      C282.469,37.184,269.272,36.001,256,36.001z" style="fill:#364A6B;"/></g><g><polygon points="256,340 270,160 140,340     " style="fill:#48638E;"/><path d="M256,350H140c-3.755,0-7.194-2.104-8.904-5.447c-1.709-3.344-1.402-7.363,0.797-10.407l130-180      c2.623-3.633,7.346-5.076,11.55-3.533c4.207,1.543,6.874,5.696,6.526,10.164l-13.999,180C265.565,345.981,261.223,350,256,350z       M159.558,330h87.19l10.522-135.295L159.558,330z" style="fill:#364A6B;"/></g><g><path d="M345.031,382.13v85.97c42.384-17.806,78.367-47.947,103.314-85.97H345.031z" style="fill:#48638E;"/><path d="M345.032,478.1c-1.941,0-3.871-0.565-5.536-1.671c-2.789-1.854-4.465-4.98-4.465-8.329v-85.97      c0-5.522,4.478-10,10-10h103.314c3.675,0,7.054,2.016,8.8,5.249c1.745,3.233,1.577,7.164-0.438,10.236      c-26.319,40.114-63.597,71.133-107.803,89.704C347.66,477.842,346.343,478.1,345.032,478.1z M355.031,392.13v60.354      c28.798-14.501,53.9-35.033,73.816-60.354H355.031z" style="fill:#364A6B;"/></g><g><path d="M485.999,256c0,34.593-7.604,67.424-21.331,96.822H345.031V43.9      C427.851,78.678,485.999,160.569,485.999,256z" style="fill:#48638E;"/><path d="M464.668,362.822H345.031c-5.522,0-10-4.478-10-10V43.9c0-3.349,1.676-6.475,4.465-8.328      c2.787-1.853,6.32-2.189,9.407-0.892c43.042,18.074,79.679,48.13,105.949,86.917c26.918,39.745,41.146,86.22,41.146,134.402      c0,35.405-7.493,69.404-22.271,101.053C472.086,360.572,468.553,362.822,464.668,362.822z M355.031,342.822H458.2      c11.814-27.33,17.799-56.507,17.799-86.822c0-83.729-46.998-159.273-120.968-196.487V342.822z" style="fill:#364A6B;"/></g><path d="M420.11,241.55v-14.039l-56.659,24.674v10.303l56.659,24.506v-13.79l-11.964-4.736v-22.015     L420.11,241.55z M397.596,264.563l-17.611-6.896l17.611-6.978V264.563z" style="fill:#FFFFFF;"/><path d="M420.11,313.081h-22.017v-9.141c0-12.792-4.651-20.936-17.362-20.936     c-12.794,0-17.197,8.807-17.197,21.518v21.021h56.658v-12.462H420.11z M387.544,313.081h-13.459v-6.399     c0-5.483,1.08-10.715,6.646-10.715c4.903,0,6.813,3.903,6.813,8.807V313.081z" style="fill:#FFFFFF;"/><polygon points="363.534,159.138 420.192,159.138 420.192,119.593 408.646,119.593 408.646,146.676      397.098,146.676 397.098,122.086 385.551,122.086 385.551,146.676 374.999,146.676 374.999,119.593 363.451,119.593      363.451,159.138    " style="fill:#FFFFFF;"/><path d="M416.122,170.603h-29.576v22.099h11.548v-10.137h9.14c7.145,13.127,1.079,29.327-15.452,29.327     c-18.693,0-23.512-21.02-12.877-31.32l-9.638-8.807c-13.459,14.539-10.135,53.087,22.515,53.087     C420.027,224.852,428.916,195.027,416.122,170.603L416.122,170.603z" style="fill:#FFFFFF;"/></g></g></g><g id="Layer_1"/></svg>