<?xml version="1.0" ?><!DOCTYPE svg  PUBLIC '-//W3C//DTD SVG 1.1//EN'  'http://www.w3.org/Graphics/SVG/1.1/DTD/svg11.dtd'><svg height="512px" style="enable-background:new 0 0 512 512;" version="1.1" viewBox="0 0 512 512" width="512px" xml:space="preserve" xmlns="http://www.w3.org/2000/svg" xmlns:xlink="http://www.w3.org/1999/xlink"><g id="_x31__x2C__Acrobat_x2C__Adobe"><g><g><rect height="492" style="fill:#DC1D00;" width="492" x="10" y="10"/><path d="M501.508,512H10.492C4.697,512,0,507.303,0,501.508V10.492C0,4.697,4.697,0,10.492,0h491.016     C507.303,0,512,4.697,512,10.492v491.016C512,507.303,507.303,512,501.508,512z M21,491h470V21H21V491z" style="fill:#A51600;"/></g><g><path d="M426.789,313.971c-0.246-2.456-2.457-30.948-53.059-29.722s-62.883,4.421-62.883,4.421     s-37.833-38.32-51.586-68.042c0,0,16.701-48.884,15.964-79.589c-0.734-30.706-8.107-48.392-31.686-48.146     c-23.583,0.246-27.023,20.88-23.919,51.594c2.784,27.556,17.038,59.926,17.038,59.926s-10.887,33.9-25.301,67.635     c-14.409,33.733-24.234,51.423-24.234,51.423s-48.72,16.292-69.846,35.946c-21.127,19.649-29.709,34.748-18.589,49.864     c9.58,13.019,43.155,15.968,73.123-23.338c29.967-39.3,43.479-63.866,43.479-63.866s45.734-12.528,59.96-15.969     c14.225-3.437,31.418-6.138,31.418-6.138s41.762,42.002,82.046,40.53C428.998,339.029,427.035,316.426,426.789,313.971z      M109.17,402.65c-25.055-14.987,52.57-61.165,66.57-62.641C175.74,340.01,135.402,418.336,109.17,402.65z M228.31,133.178     c0-24.316,7.861-30.951,14-30.951c6.142,0,13.02,2.948,13.265,24.075c0.246,21.123-13.265,62.391-13.265,62.391     C237.643,183.78,228.31,157.495,228.31,133.178z M260.655,299.726c-25.137,6.138-37.75,12.526-37.75,12.526s0,0,10.317-23.09     c10.317-23.091,20.88-54.535,20.88-54.535c14.246,26.532,42.495,57.729,42.495,57.729S285.789,293.582,260.655,299.726z      M321.082,297.597c0,0,81.717-14.816,81.717,13.103C402.799,338.61,352.193,327.235,321.082,297.597z" style="fill:#F1F1F1;"/></g></g></g><g id="Layer_1"/></svg>