<?xml version="1.0" ?><!DOCTYPE svg  PUBLIC '-//W3C//DTD SVG 1.1//EN'  'http://www.w3.org/Graphics/SVG/1.1/DTD/svg11.dtd'><svg height="512px" style="enable-background:new 0 0 512 512;" version="1.1" viewBox="0 0 512 512" width="512px" xml:space="preserve" xmlns="http://www.w3.org/2000/svg" xmlns:xlink="http://www.w3.org/1999/xlink"><g id="comp_x5F_73-creative-commons-sampling-plus"><g><g><circle cx="256" cy="256" r="229.5"/><g><polygon points="275.72,212.755 268.49,142.416 264.854,210.228 263.855,210.174 267.834,135.973       268.83,135.949 276.714,212.653     " style="fill:#FFFFFF;"/></g><g><polygon points="228.285,221.806 227.287,221.738 230.834,169.966 231.83,169.938 237.565,215.51       236.573,215.635 231.48,175.171     " style="fill:#FFFFFF;"/></g><g><path d="M255.995,376c-5.018,0-9.286-3.735-9.917-8.751l-7.208-57.277      c-0.689-5.479,3.193-10.481,8.673-11.171c2.744-0.341,5.373,0.458,7.396,2.035c1.4-0.624,2.966-0.933,4.6-0.847      c5.516,0.295,9.746,5.006,9.45,10.521l-3.004,56.025c-0.277,5.17-4.454,9.273-9.627,9.458      C256.237,375.998,256.115,376,255.995,376z" style="fill:#FFFFFF;"/></g><g><path d="M292.997,386c-5.113,0-9.42-3.868-9.944-8.978l-7.502-72.992      c-0.565-5.494,3.431-10.405,8.925-10.97c1.195-0.124,2.358-0.03,3.458,0.245l0.085-1.427c0.33-5.514,5.101-9.702,10.58-9.385      c5.513,0.33,9.715,5.067,9.385,10.58l-5.001,83.523c-0.312,5.199-4.562,9.289-9.77,9.4C293.141,385.999,293.068,386,292.997,386      z" style="fill:#FFFFFF;"/></g><g><path d="M227.796,231.772c-0.23,0-0.461-0.008-0.694-0.024c-5.51-0.377-9.67-5.15-9.293-10.66      l3.547-51.772c0.352-5.136,4.546-9.166,9.693-9.313c5.173-0.126,9.563,3.64,10.206,8.748l5.735,45.573      c0.689,5.479-3.193,10.48-8.673,11.17c-0.43,0.054-0.867,0.059-1.279,0.079C235.531,229.244,231.919,231.772,227.796,231.772z" style="fill:#FFFFFF;"/></g><g><path d="M218.995,360c-4.946,0-9.176-3.632-9.892-8.564l-14.888-102.607l-14.658,98.641      c-0.729,4.906-4.942,8.53-9.89,8.53c-0.042,0-0.084,0-0.126-0.001c-5.002-0.062-9.188-3.811-9.801-8.775l-9.481-76.876      l-9.87,12.004c-1.899,2.31-4.733,3.648-7.724,3.648H90c-5.523,0-10-4.478-10-10s4.477-10,10-10h37.942l21.667-26.351      c2.539-3.088,6.673-4.366,10.514-3.252c3.84,1.115,6.646,4.411,7.135,8.379l3.329,26.993l13.854-93.238      c0.729-4.902,4.938-8.53,9.891-8.53c0.006,0,0.012,0,0.018,0c4.962,0.008,9.167,3.654,9.879,8.564l15.306,105.491      c1.251-0.443,2.613-0.641,4.02-0.547c5.51,0.378,9.67,5.15,9.293,10.66l-3.873,56.516c-0.35,5.101-4.49,9.116-9.598,9.31      C219.25,359.998,219.122,360,218.995,360z" style="fill:#FFFFFF;"/></g><g><path d="M329.996,370c-5.009,0-9.265-3.718-9.913-8.713l-15.51-119.465      c-1.121,0.349-2.322,0.503-3.565,0.43c-5.513-0.33-9.715-5.066-9.385-10.58l3.728-62.27c0.309-5.148,4.481-9.218,9.636-9.396      c5.166-0.187,9.599,3.592,10.264,8.707l12.099,93.193l5.013-66.655c0.376-5.002,4.4-8.952,9.41-9.234      c4.997-0.278,9.451,3.191,10.387,8.12l19.096,100.64l11.445-23.199c1.684-3.415,5.161-5.576,8.968-5.576H430      c5.522,0,10,4.478,10,10s-4.478,10-10,10h-32.115l-21.917,44.424c-1.902,3.856-6.055,6.072-10.317,5.484      c-4.261-0.58-7.674-3.819-8.476-8.044l-10.549-55.598l-6.654,88.483c-0.385,5.113-4.575,9.107-9.701,9.246      C330.179,369.999,330.087,370,329.996,370z" style="fill:#FFFFFF;"/></g><g><path d="M276.205,222.705c-2.98,0-5.711-1.328-7.562-3.469c-1.456,0.693-3.101,1.041-4.824,0.95      c-5.516-0.296-9.746-5.006-9.451-10.521l3.979-74.201c0.279-5.213,4.522-9.334,9.741-9.461c5.185-0.126,9.657,3.78,10.191,8.975      l7.884,76.704c0.565,5.494-3.431,10.405-8.925,10.97C276.892,222.688,276.547,222.705,276.205,222.705z" style="fill:#FFFFFF;"/></g><g><path d="M260,290c-5.523,0-10-4.478-10-10v-40c0-5.523,4.477-10,10-10c5.522,0,10,4.477,10,10v40      C270,285.522,265.522,290,260,290z" style="fill:#FFFFFF;"/></g><g><path d="M280,270h-40c-5.523,0-10-4.478-10-10c0-5.523,4.477-10,10-10h40c5.522,0,10,4.477,10,10      C290,265.522,285.522,270,280,270z" style="fill:#FFFFFF;"/></g></g></g></g><g id="Layer_1"/></svg>