<?xml version="1.0" ?><!DOCTYPE svg  PUBLIC '-//W3C//DTD SVG 1.1//EN'  'http://www.w3.org/Graphics/SVG/1.1/DTD/svg11.dtd'><svg height="512px" style="enable-background:new 0 0 512 512;" version="1.1" viewBox="0 0 512 512" width="512px" xml:space="preserve" xmlns="http://www.w3.org/2000/svg" xmlns:xlink="http://www.w3.org/1999/xlink"><g id="comp_x5F_305-skype"><g><g><g><path d="M462.172,301.034c2.978-14.379,4.828-29.681,4.828-44.983      c0-116.566-94.383-210.845-210.847-210.845c-15.302,0-30.502,1.746-44.982,4.827c-19.514-15.096-43.75-24.032-70.145-24.032      c-63.47,0-115.025,51.556-115.025,115.025c0,26.394,8.936,50.63,23.93,70.043c-2.979,14.377-4.828,29.68-4.828,44.982      c0,116.566,94.383,210.843,210.846,210.843c15.303,0,30.501-1.745,44.982-4.825c19.515,14.993,43.751,23.93,70.043,23.93      c63.469,0,115.024-51.557,115.024-115.024C486.101,344.683,477.166,320.445,462.172,301.034L462.172,301.034z" style="fill:#00AFF0;"/><path d="M370.974,495.999c-26.136,0-51.074-8.021-72.416-23.246c-14.266,2.749-28.578,4.142-42.609,4.142      c-59.009,0-114.47-22.955-156.166-64.637c-41.709-41.694-64.68-97.17-64.68-156.207c0-13.68,1.397-27.981,4.157-42.574      c-15.231-21.255-23.258-46.206-23.258-72.451c0-68.939,56.086-125.025,125.025-125.025c26.254,0,51.234,8.056,72.536,23.344      c14.261-2.748,28.566-4.139,42.591-4.139c59.009,0,114.471,22.956,156.167,64.638c41.709,41.695,64.68,97.17,64.68,156.207      c0,13.675-1.397,27.975-4.157,42.574c15.268,21.298,23.257,46.226,23.155,72.389      C495.998,439.913,439.912,495.999,370.974,495.999z M300.931,452.069c2.185,0,4.33,0.716,6.093,2.07      c18.613,14.301,40.727,21.859,63.95,21.859c57.911,0,105.024-47.114,105.024-105.024c0.091-23.24-7.427-45.298-21.74-63.827      c-1.784-2.31-2.47-5.283-1.878-8.141c3.065-14.806,4.62-29.258,4.62-42.956c0-110.747-90.1-200.845-200.847-200.845      c-14.095,0-28.53,1.55-42.902,4.608c-2.874,0.611-5.874-0.073-8.2-1.872c-18.554-14.354-40.694-21.941-64.025-21.941      c-57.911,0-105.025,47.114-105.025,105.025c0,23.322,7.554,45.429,21.844,63.93c1.784,2.31,2.47,5.284,1.878,8.142      c-3.065,14.798-4.62,29.25-4.62,42.953c0,110.746,90.099,200.843,200.846,200.843c14.097,0,28.531-1.55,42.902-4.606      C299.54,452.142,300.237,452.069,300.931,452.069z" style="fill:#0083B4;"/></g><g><path d="M262.315,395.007c-67.371,0-123.754-29.989-123.754-66.757c0-16.431,9.242-31.426,30.297-31.426      c32.042,0,35.021,46.111,90.479,46.111c26.394,0,43.443-11.707,43.443-27.011c0-19.204-16.432-22.184-43.134-28.755      c-64.189-15.816-120.982-22.595-120.982-89.555c0-60.8,60.183-83.291,112.046-83.291c56.591,0,113.793,22.491,113.793,56.895      c0,17.357-11.708,32.661-31.118,32.661c-29.063,0-29.988-34.405-77.026-34.405c-26.394,0-43.134,7.189-43.134,23.107      c0,20.334,21.362,22.389,70.966,33.891c42.52,9.552,93.151,27.524,93.151,79.697      C377.342,366.865,318.699,395.007,262.315,395.007L262.315,395.007z" style="fill:#FFFFFF;"/><path d="M262.315,405.007c-34.293,0-66.921-7.38-91.873-20.781      c-27.008-14.505-41.881-34.384-41.881-55.976c0-24.778,16.194-41.426,40.297-41.426c18.042,0,28.679,10.867,38.965,21.377      c11.902,12.16,24.21,24.734,51.513,24.734c19.065,0,33.443-7.313,33.443-17.011c0-8.919-4.417-11.451-31.507-18.062      l-4.017-0.983c-5.742-1.414-11.491-2.772-17.051-4.085c-28.814-6.805-56.03-13.232-76.321-26.22      c-23.7-15.168-35.22-37.725-35.22-68.96c0-31.124,14.295-56.355,41.341-72.967c21.339-13.106,50-20.324,80.705-20.324      c29.768,0,59.775,6.005,82.329,16.476c26.738,12.414,41.464,30.32,41.464,50.419c0,24.32-17.677,42.661-41.118,42.661      c-16.653,0-26.439-8.884-35.073-16.722c-10.018-9.094-19.479-17.683-41.953-17.683c-9.962,0-33.134,1.277-33.134,13.107      c0,3.674,0.51,6.325,7.333,9.577c7.868,3.75,21.066,6.712,39.333,10.812c5.127,1.15,10.643,2.389,16.559,3.76      c18.296,4.11,45.11,11.226,65.881,25.335c23.232,15.781,35.012,37.348,35.012,64.103      C387.342,374.077,322.532,405.007,262.315,405.007z M168.858,306.824c-18.319,0-20.297,14.983-20.297,21.426      c0,30.235,53.156,56.757,113.754,56.757c27.613,0,54.246-7.272,73.07-19.952c21.204-14.282,31.956-34.094,31.956-58.885      c0-20.004-8.586-35.561-26.25-47.559c-17.952-12.195-42.323-18.614-59.094-22.381c-5.933-1.375-11.402-2.603-16.487-3.745      c-19.541-4.386-33.66-7.554-43.558-12.272c-12.602-6.006-18.728-15.044-18.728-27.631c0-12.365,6.903-33.107,53.134-33.107      c30.198,0,44.17,12.684,55.396,22.875c8.346,7.577,13.099,11.53,21.63,11.53c14.51,0,21.118-11.747,21.118-22.661      c0-24.981-48.501-46.895-103.793-46.895c-47.074,0-102.046,19.195-102.046,73.291c0,50.549,34.739,61.215,96.139,75.715      c5.606,1.324,11.403,2.693,17.236,4.13l3.977,0.974c13.05,3.185,23.358,5.7,31.353,10.352      c10.227,5.952,15.412,15.083,15.412,27.14c0,21.791-21.977,37.011-53.443,37.011c-35.713,0-53.106-17.77-65.806-30.745      C183.925,312.377,178.043,306.824,168.858,306.824z" style="fill:#0083B4;"/></g></g></g></g><g id="Layer_1"/></svg>