<?xml version="1.0" ?><!DOCTYPE svg  PUBLIC '-//W3C//DTD SVG 1.1//EN'  'http://www.w3.org/Graphics/SVG/1.1/DTD/svg11.dtd'><svg height="512px" style="enable-background:new 0 0 512 512;" version="1.1" viewBox="0 0 512 512" width="512px" xml:space="preserve" xmlns="http://www.w3.org/2000/svg" xmlns:xlink="http://www.w3.org/1999/xlink"><g id="comp_x5F_312-soundcloud"><g><g><g><g><path d="M108.528,357.331c-6.866,0-12.484-5.498-12.769-12.365l-3.686-44.947       c-0.046-0.558-0.045-1.118,0.003-1.676l3.684-42.758c0.305-6.779,5.915-12.2,12.767-12.2c6.422,0,11.935,4.915,12.822,11.433       c0.021,0.153,0.038,0.306,0.052,0.46l3.84,43.035c0.051,0.577,0.053,1.157,0.004,1.734l-3.84,45.217       c-0.01,0.114-0.021,0.229-0.035,0.343C120.571,352.29,115.05,357.331,108.528,357.331z" style="fill:#B94A0B;"/></g><g><path d="M125.609,357.729c-6.924,0-12.499-5.153-13.253-12.253c-0.012-0.109-0.021-0.218-0.029-0.327       l-3.311-45.217c-0.029-0.4-0.035-0.803-0.016-1.203l3.311-69.916c0.009-0.195,0.024-0.391,0.045-0.585       c0.755-7.1,6.33-12.252,13.253-12.252c7.11,0,12.917,5.776,13.106,12.949l3.83,69.728c0.025,0.465,0.019,0.932-0.021,1.395       l-3.815,44.929C138.42,352.057,132.655,357.729,125.609,357.729z" style="fill:#B94A0B;"/></g><g><path d="M142.491,357.993c-7.213,0-12.958-5.276-13.661-12.547c-0.01-0.104-0.019-0.209-0.025-0.314       l-2.913-44.887c-0.021-0.328-0.026-0.657-0.015-0.985l2.913-86.068c0.007-0.208,0.021-0.416,0.041-0.623       c0.702-7.271,6.447-12.548,13.661-12.548c7.36,0,13.364,5.914,13.507,13.239l3.503,85.93c0.016,0.396,0.009,0.792-0.022,1.187       l-3.488,44.621C155.721,352.21,149.769,357.993,142.491,357.993z" style="fill:#B94A0B;"/></g><g><path d="M42.455,334.027c-5.614,0-10.209-3.843-11.434-9.562c-0.054-0.252-0.098-0.507-0.133-0.763       l-3.112-23.171c-0.118-0.876-0.119-1.764-0.003-2.64l3.112-23.57c0.035-0.263,0.08-0.524,0.135-0.783       c1.224-5.721,5.819-9.564,11.434-9.564c5.609,0,10.204,3.84,11.432,9.555c0.039,0.182,0.073,0.364,0.102,0.548l3.708,23.57       c0.164,1.038,0.162,2.096-0.004,3.134l-3.708,23.171c-0.028,0.176-0.061,0.35-0.098,0.523       C52.657,330.188,48.063,334.027,42.455,334.027z" style="fill:#B94A0B;"/></g><g><path d="M58.08,348.193c-6.281,0-11.254-4.808-11.633-11.08l-4.196-36.778       c-0.085-0.744-0.086-1.496-0.003-2.24l4.203-37.76c0.411-6.058,5.47-10.86,11.629-10.86c5.644,0,10.427,3.934,11.632,9.565       c0.06,0.281,0.108,0.564,0.144,0.85l4.766,38.069c0.104,0.833,0.104,1.676-0.003,2.509l-4.766,37.336       c-0.035,0.273-0.081,0.545-0.139,0.814C68.515,344.256,63.73,348.193,58.08,348.193z" style="fill:#B94A0B;"/></g><g><path d="M74.829,354.814c-5.915,0-10.975-4.336-12.032-10.31c-0.05-0.286-0.089-0.574-0.114-0.864       l-3.84-43.562c-0.051-0.574-0.051-1.152-0.002-1.727l3.84-45.088c0.006-0.067,0.012-0.134,0.019-0.201       c0.67-6.348,5.885-11.135,12.129-11.135c6.414,0,11.674,5.091,12.033,11.486l4.537,44.779c0.069,0.682,0.068,1.369-0.004,2.051       l-4.536,43.252C86.479,349.801,81.229,354.814,74.829,354.814z" style="fill:#B94A0B;"/></g><g><path d="M91.58,356.47c-6.63,0-12.061-5.238-12.369-11.793l-3.818-44.623       c-0.048-0.559-0.049-1.12-0.002-1.679l3.819-46.089c0.299-6.565,5.733-11.814,12.37-11.814c6.363,0,11.615,4.638,12.49,11.028       c0.02,0.148,0.037,0.296,0.051,0.445l4.236,46.346c0.056,0.615,0.055,1.234-0.003,1.85l-4.236,44.887       c-0.013,0.14-0.029,0.279-0.048,0.418C103.194,351.833,97.942,356.47,91.58,356.47z" style="fill:#B94A0B;"/></g><g><path d="M248.685,357.529c-8.362,0-15.333-6.614-15.872-15.059c-0.002-0.033-0.004-0.066-0.006-0.1       l-2.252-42.518c-0.012-0.236-0.017-0.473-0.012-0.709l2.183-117.328c0-0.267,0.011-0.534,0.032-0.8       c0.339-4.228,2.336-8.268,5.48-11.084c0.163-0.146,0.331-0.287,0.503-0.422c2.786-2.184,6.293-3.387,9.877-3.387       c2.822,0,5.762,0.902,8.159,2.49c4.055,2.481,6.848,6.88,7.514,11.883c0.049,0.365,0.077,0.733,0.086,1.101l2.583,117.515       c0.006,0.275,0,0.551-0.017,0.826l-2.569,42.274C264.173,350.692,257.212,357.529,248.685,357.529z" style="fill:#B94A0B;"/></g><g><path d="M230.875,357.993c-4.433,0-8.586-1.914-11.692-5.39c-0.139-0.155-0.273-0.315-0.403-0.48       c-2.129-2.706-3.259-5.906-3.267-9.256c-2.053-43.231-2.053-43.36-2.053-43.666c0-0.058,0-0.116,0.001-0.174l1.854-106.461       c0.009-0.523,0.06-1.045,0.15-1.561l0.084-0.477c0.334-4.834,2.889-9.183,6.977-11.785c0.041-0.026,0.082-0.052,0.123-0.077       c2.6-1.602,5.345-2.415,8.159-2.415c3.947,0,6.905,1.69,7.876,2.246c0.137,0.078,0.271,0.159,0.405,0.244       c4.02,2.557,6.629,6.862,7.158,11.811c0.031,0.286,0.049,0.573,0.055,0.86l2.185,107.782c0.005,0.244,0.001,0.488-0.012,0.731       l-2.052,38.796l-0.188,4.182c-0.071,4.278-1.809,8.098-4.921,10.834C238.44,356.447,234.662,357.993,230.875,357.993z" style="fill:#B94A0B;"/></g><g><path d="M159.969,357.529c-7.194,0-13.126-5.56-13.798-12.932c-0.008-0.085-0.015-0.17-0.02-0.255       l-2.912-44.488c-0.021-0.321-0.027-0.644-0.017-0.966l2.909-92.978c0.107-7.647,6.274-13.836,13.838-13.836       c7.404,0,13.563,5.899,14.021,13.431c0.005,0.084,0.009,0.168,0.012,0.252l3.309,93.087c0.013,0.366,0.006,0.732-0.021,1.097       l-3.309,44.488c-0.004,0.056-0.009,0.111-0.014,0.167C173.295,351.97,167.277,357.529,159.969,357.529z" style="fill:#B94A0B;"/></g><g><path d="M422.276,357.729H277.747c-0.424,0-0.848-0.027-1.268-0.081       c-8.357-1.067-14.424-7.801-14.424-16.01V176.322c0-11.062,8.563-14.337,11.62-15.443c11.337-4.497,24.073-6.873,36.845-6.873       c25.625,0,50.117,9.556,68.965,26.907c15.719,14.471,26.392,33.294,30.758,53.919c3.982-0.785,8.024-1.181,12.098-1.181       c16.541,0,32.102,6.466,43.816,18.207c11.745,11.772,18.193,27.417,18.155,44.054       C484.313,329.988,456.483,357.729,422.276,357.729z M282.056,337.729h140.221c23.179,0,42.036-18.769,42.036-41.838       c0.025-11.309-4.348-21.921-12.313-29.905c-7.936-7.953-18.468-12.333-29.658-12.333c-5.604,0-11.143,1.107-16.463,3.29       c-2.939,1.206-6.272,0.944-8.985-0.704c-2.714-1.647-4.484-4.486-4.77-7.647c-3.844-42.52-38.926-74.584-81.603-74.584       c-9.891,0-19.703,1.751-28.464,5.073L282.056,337.729z" style="fill:#B94A0B;"/></g><g><path d="M212.934,357.793c-8.051,0-14.559-6.127-15.138-14.253c-0.005-0.069-0.009-0.139-0.013-0.208       l-2.186-43.432c-0.013-0.248-0.016-0.496-0.01-0.744l2.186-90.503c0.003-0.141,0.01-0.282,0.019-0.423       c0.55-8.266,7.06-14.499,15.141-14.499c7.969,0,14.394,6.233,14.944,14.499c0.008,0.126,0.014,0.252,0.018,0.379l2.582,90.503       c0.008,0.293,0.004,0.586-0.014,0.879l-2.569,43.213C227.695,351.282,221.061,357.793,212.934,357.793z" style="fill:#B94A0B;"/></g><g><path d="M177.447,357.729c-7.338,0-13.577-5.89-14.202-13.408c-0.006-0.082-0.012-0.165-0.017-0.247       l-2.582-44.29c-0.017-0.283-0.021-0.566-0.014-0.851l2.58-96.105c0.097-7.749,6.576-14.261,14.235-14.261       c7.441,0,13.768,5.977,14.402,13.607c0.014,0.175,0.024,0.351,0.03,0.526l2.913,96.198c0.009,0.32,0.004,0.64-0.017,0.959       l-2.913,44.29c-0.004,0.058-0.008,0.115-0.013,0.173C191.213,351.964,185.022,357.729,177.447,357.729z" style="fill:#B94A0B;"/></g><g><path d="M195.125,357.729c-7.687,0-13.938-5.937-14.539-13.809c-0.004-0.058-0.008-0.116-0.012-0.174       l-2.583-43.958c-0.017-0.287-0.021-0.575-0.013-0.862l2.58-93.717c0.095-7.952,6.593-14.392,14.566-14.392       c8.108,0,14.472,6.303,14.567,14.384l2.777,93.704c0.009,0.309,0.004,0.618-0.016,0.927l-2.766,43.729       C209.474,351.41,203.024,357.729,195.125,357.729z" style="fill:#B94A0B;"/></g></g><g><path d="M111.441,256.166l3.84,43.035l-3.84,45.217c-0.198,1.656-1.457,2.913-2.913,2.913      s-2.78-1.257-2.78-2.913l-3.708-45.217l3.708-43.035c0-1.456,1.258-2.781,2.78-2.781      C109.984,253.385,111.243,254.71,111.441,256.166z" style="fill:#F7620E;"/><path d="M125.609,225.976c-1.854,0-3.112,1.457-3.31,3.311l-3.311,69.915l3.311,45.217      c0.197,1.854,1.456,3.311,3.31,3.311c1.655,0,3.111-1.456,3.111-3.311l3.84-45.217l-3.84-69.915      C128.721,227.433,127.265,225.976,125.609,225.976z" style="fill:#F7620E;"/><path d="M142.491,210.021c-2.052,0-3.509,1.455-3.707,3.509l-2.913,86.067l2.913,44.887      c0.198,2.051,1.655,3.509,3.707,3.509c1.854,0,3.51-1.458,3.51-3.509l3.509-44.887l-3.509-86.068      C146.001,211.477,144.346,210.021,142.491,210.021z" style="fill:#F7620E;"/><path d="M42.455,273.975c-0.927,0-1.457,0.729-1.655,1.656l-3.112,23.57l3.112,23.171      c0.198,0.926,0.729,1.655,1.655,1.655c0.928,0,1.456-0.729,1.655-1.655l3.708-23.171l-3.708-23.57      C43.911,274.704,43.383,273.975,42.455,273.975z" style="fill:#F7620E;"/><path d="M58.08,259.475c-0.928,0-1.656,0.73-1.656,1.657l-4.237,38.069l4.237,37.14      c0,1.128,0.729,1.853,1.656,1.853c0.926,0,1.655-0.725,1.854-1.656l4.766-37.336l-4.766-38.069      C59.735,260.205,59.006,259.475,58.08,259.475z" style="fill:#F7620E;"/><path d="M74.829,251.929c-1.125,0-2.052,0.927-2.185,2.185l-3.84,45.088l3.84,43.562      c0.199,1.126,1.126,2.052,2.185,2.052c1.126,0,2.053-0.926,2.053-2.052l4.568-43.562l-4.568-45.088      C76.882,252.855,75.955,251.929,74.829,251.929L74.829,251.929z" style="fill:#F7620E;"/><path d="M91.58,250.472c-1.259,0-2.383,0.928-2.383,2.384l-3.841,46.346l3.841,44.887      c0,1.454,1.124,2.382,2.383,2.382c1.258,0,2.383-0.928,2.582-2.382l4.236-44.887l-4.236-46.346      C93.963,251.399,92.838,250.472,91.58,250.472z" style="fill:#F7620E;"/><path d="M251.399,177.05c-0.729-0.529-1.854-0.927-2.781-0.927c-1.456,0-2.78,0.53-3.707,1.257      c-1.258,1.127-2.053,2.781-2.186,4.437v0.53l-2.185,116.984l1.126,21.519l1.126,20.985c0.198,3.112,2.78,5.694,5.892,5.694      c3.112,0,5.694-2.582,5.694-5.694l2.583-42.504l-2.583-117.515C254.114,179.83,253.056,177.977,251.399,177.05L251.399,177.05z" style="fill:#F7620E;"/><path d="M233.723,187.18c-0.928-0.53-1.854-0.928-2.914-0.928c-1.059,0-2.052,0.397-2.912,0.928      c-1.456,0.927-2.384,2.581-2.384,4.436l-0.198,1.125l-1.854,106.461c0,0,0,0.196,2.053,43.428v0.2      c0,1.126,0.397,2.185,1.126,3.11c1.126,1.26,2.581,2.054,4.236,2.054c1.457,0,2.78-0.728,3.708-1.656      c1.127-0.926,1.655-2.184,1.655-3.708l0.199-4.436l2.052-38.796l-2.185-107.782C236.106,189.761,235.18,188.106,233.723,187.18      L233.723,187.18z" style="fill:#F7620E;"/><path d="M159.969,202.075c-2.051,0-3.84,1.854-3.84,4.038l-2.912,93.088l2.912,44.488      c0.199,2.185,1.854,3.84,3.84,3.84c2.186,0,3.841-1.655,4.04-3.84l3.309-44.488l-3.309-93.088      C163.876,203.93,162.221,202.075,159.969,202.075L159.969,202.075z" style="fill:#F7620E;"/><path d="M422.341,243.652c-7.148,0-13.968,1.457-20.259,4.038c-4.237-46.873-43.562-83.684-91.562-83.684      c-11.784,0-23.173,2.186-33.3,6.225c-4.039,1.456-5.165,2.912-5.165,6.091v165.315c0,3.31,2.581,5.693,5.691,6.091h144.529      c28.666,0,52.036-23.173,52.036-51.838C474.378,267.022,451.009,243.652,422.341,243.652L422.341,243.652z" style="fill:#F7620E;"/><path d="M212.934,203.731c-2.78,0-4.965,2.185-5.163,5.163l-2.186,90.503l2.186,43.432      c0.198,2.78,2.383,4.964,5.163,4.964c2.781,0,4.966-2.184,4.966-4.964l2.582-43.432l-2.582-90.503      C217.701,205.916,215.715,203.731,212.934,203.731L212.934,203.731z" style="fill:#F7620E;"/><path d="M177.447,198.566c-2.185,0-4.236,2.053-4.236,4.437l-2.582,96.198l2.582,44.29      c0.198,2.383,2.052,4.237,4.236,4.237c2.384,0,4.238-1.854,4.437-4.237l2.913-44.29l-2.913-96.198      C181.686,200.619,179.831,198.566,177.447,198.566z" style="fill:#F7620E;"/><path d="M195.125,200.817c-2.582,0-4.567,2.053-4.567,4.568l-2.583,93.815l2.583,43.958      c0.197,2.584,2.052,4.569,4.567,4.569s4.568-2.052,4.568-4.569l2.78-43.958l-2.78-93.815      C199.693,202.804,197.707,200.817,195.125,200.817L195.125,200.817z" style="fill:#F7620E;"/></g></g></g></g><g id="Layer_1"/></svg>