<?xml version="1.0" ?><!DOCTYPE svg  PUBLIC '-//W3C//DTD SVG 1.1//EN'  'http://www.w3.org/Graphics/SVG/1.1/DTD/svg11.dtd'><svg height="512px" style="enable-background:new 0 0 512 512;" version="1.1" viewBox="0 0 512 512" width="512px" xml:space="preserve" xmlns="http://www.w3.org/2000/svg" xmlns:xlink="http://www.w3.org/1999/xlink"><g id="comp_x5F_352-usb"><g><g><g><path d="M485.999,255.964c0,2.223-1.22,4.375-3.227,5.378l-63.89,38.363      c-1.006,0.573-2.008,1.003-3.228,1.003c-1.005,0-2.223-0.214-3.228-0.788c-2.007-1.219-3.228-3.227-3.228-5.592v-25.529H238.038      c18.142,28.396,29.041,76.654,49.908,76.654h19.146v-19.216c0-3.585,2.796-6.383,6.381-6.383h63.893      c3.585,0,6.382,2.798,6.382,6.383v63.889c0,3.586-2.797,6.383-6.382,6.383h-63.893c-3.585,0-6.381-2.797-6.381-6.383v-19.145      h-19.146c-54.066,0-58.154-102.183-89.418-102.183h-71.921c-5.81,21.942-25.743,38.362-49.477,38.362      c-28.181-0.071-51.128-23.016-51.128-51.197c0-28.18,22.947-51.126,51.128-51.126c23.734,0,43.741,16.348,49.477,38.363      c28.037,0,31.479,6.811,53.493-43.313c28.754-63.89,41.661-58.87,78.087-58.87c5.377-14.986,19.361-25.527,36.142-25.527      c21.151,0,38.363,17.138,38.363,38.363s-17.139,38.363-38.363,38.363c-16.78,0-30.765-10.613-36.142-25.528h-21.368      c-20.867,0-31.766,48.33-49.908,76.654h222.361v-25.527c0-2.366,1.218-4.374,3.227-5.593c2.008-1.219,4.591-1.004,6.384,0.215      l63.89,38.363C484.779,251.59,485.999,253.742,485.999,255.964z" style="fill:#FFFFFF;"/><path d="M377.364,406.509h-63.893c-9.032,0-16.381-7.35-16.381-16.383v-9.145h-9.146c-37.223,0-53.757-37.378-67.043-67.411      c-6.853-15.491-15.381-34.771-22.375-34.771h-64.736c-9.299,22.929-31.603,38.362-56.662,38.362      c-33.717-0.085-61.128-27.538-61.128-61.197c0-33.705,27.422-61.126,61.128-61.126c25.194,0,47.537,15.488,56.736,38.485      c0.661,0.02,1.301,0.04,1.923,0.06c2.204,0.069,4.106,0.129,5.843,0.129c9.299,0,12.778,0,29.312-37.645      c12.943-28.759,23.231-44.865,34.438-53.937c12.553-10.163,25.69-11.004,39.168-11.004c2.034,0,4.145,0.021,6.346,0.044      c0.274,0.003,0.549,0.006,0.826,0.009c8.352-15.689,24.398-25.487,42.607-25.487c26.668,0,48.363,21.696,48.363,48.363      s-21.695,48.363-48.363,48.363c-18.199,0-34.256-9.815-42.62-25.528h-14.889c-7.31,0-17.448,22.688-24.157,37.701      c-2.827,6.326-5.705,12.767-8.771,18.954h195.381v-15.527c0-5.801,3.006-11.088,8.039-14.142      c2.44-1.481,5.264-2.264,8.165-2.264c3.086,0,6.173,0.908,8.733,2.563l63.207,37.953c5.174,2.501,8.582,8.007,8.582,14.038      c0,5.877-3.252,11.356-8.323,14.099l-63.646,38.216c-0.064,0.039-0.13,0.077-0.196,0.115c-1.743,0.993-4.488,2.314-8.179,2.314      c-2.055,0-5.144-0.365-8.189-2.105c-0.077-0.044-0.153-0.09-0.229-0.136c-5.033-3.056-8.037-8.342-8.037-14.139v-15.529H255.005      c3.058,6.176,5.931,12.604,8.751,18.917c6.716,15.027,16.864,37.737,24.188,37.737h9.146v-9.216      c0-9.033,7.349-16.383,16.381-16.383h63.893c9.033,0,16.382,7.35,16.382,16.383v63.889      C393.746,399.159,386.397,406.509,377.364,406.509z M317.091,386.509h56.655v-56.654h-56.655v15.599c0,5.522-4.478,10-10,10      h-19.146c-20.293,0-31.055-24.082-42.448-49.577c-4.99-11.167-10.15-22.714-15.887-31.693      c-1.966-3.078-2.098-6.984-0.343-10.188c1.755-3.203,5.118-5.195,8.771-5.195H409.2c5.522,0,10,4.478,10,10v19.052      l52.924-31.779l-52.852-31.735v19.007c0,5.523-4.478,10-10,10H186.911c-3.655,0-7.019-1.994-8.773-5.201      c-1.754-3.207-1.619-7.115,0.352-10.193c5.745-8.97,10.914-20.535,15.912-31.72c11.385-25.477,22.138-49.541,42.417-49.541      h21.368c4.215,0,7.978,2.643,9.407,6.608c4.144,11.494,14.638,18.92,26.734,18.92c15.64,0,28.363-12.724,28.363-28.363      s-12.724-28.363-28.363-28.363c-12.117,0-22.608,7.42-26.729,18.904c-1.425,3.973-5.191,6.623-9.412,6.623      c-2.613,0-5.107-0.025-7.496-0.05c-2.13-0.021-4.173-0.043-6.142-0.043c-20.938,0-31.448,0-55.331,53.067      c-16.841,38.347-25.14,49.52-47.587,49.52c-2.052,0-4.2-0.068-6.474-0.14c-2.676-0.084-5.442-0.171-8.552-0.171      c-4.552,0-8.529-3.074-9.677-7.479c-4.738-18.185-21.104-30.885-39.8-30.885c-22.678,0-41.128,18.449-41.128,41.126      c0,22.659,18.461,41.14,41.153,41.197c18.594,0,34.964-12.716,39.785-30.922c1.161-4.386,5.13-7.44,9.667-7.44h71.921      c20.016,0,30.046,22.675,40.666,46.681c12.07,27.287,24.551,55.502,48.752,55.502h19.146c5.522,0,10,4.478,10,10V386.509z"/></g></g></g></g><g id="Layer_1"/></svg>