<?xml version="1.0" ?><!DOCTYPE svg  PUBLIC '-//W3C//DTD SVG 1.1//EN'  'http://www.w3.org/Graphics/SVG/1.1/DTD/svg11.dtd'><svg height="512px" style="enable-background:new 0 0 512 512;" version="1.1" viewBox="0 0 512 512" width="512px" xml:space="preserve" xmlns="http://www.w3.org/2000/svg" xmlns:xlink="http://www.w3.org/1999/xlink"><g id="comp_x5F_355-utorrent"><g><g><g id="_x31_4-utorrent_9_"><g><g><g><path d="M454.873,322.227c-14.27,0.136-25.596-0.996-33.711-3.311         c-24.523-7.033-32.111-17.092-32.111-17.092c-1.732-2.592-4.759-4-7.866-3.563c-3.081,0.421-5.663,2.541-6.654,5.497         c-0.108,0.326-11.653,33.826-40.719,48.379c-30.165,15.133-84.849,11.444-85.399,11.413         c-2.972-0.273-5.607,1.106-7.232,3.449c-1.65,2.347-1.95,5.376-0.801,7.996l41.963,95.329         c1.32,3.011,4.259,4.886,7.448,4.886c0.413,0,0.849-0.028,1.297-0.113c78.413-12.622,144.128-66.995,171.52-141.9         c0.927-2.505,0.547-5.32-0.992-7.521C460.071,323.521,457.375,322.056,454.873,322.227L454.873,322.227z" style="fill:#FFFFFF;"/><path d="M289.79,485.21c-7.192,0-13.711-4.267-16.606-10.869l-41.957-95.316         c-2.544-5.802-1.862-12.608,1.773-17.778c3.626-5.227,9.813-8.184,16.151-7.67c1.175,0.073,6.745,0.392,14.633,0.392         c16.461,0,46.866-1.399,65.543-10.77c25.071-12.553,35.636-42.372,35.739-42.672c2.195-6.546,7.859-11.23,14.765-12.174         c0.793-0.111,1.639-0.17,2.476-0.17c5.824,0,11.264,2.806,14.68,7.539c0.94,1.017,8.082,8.176,26.933,13.582         c7.183,2.048,17.498,3.023,30.641,2.926c5.763-0.263,11.663,2.708,15.184,7.621c0.022,0.031,0.045,0.063,0.066,0.094         c3.424,4.897,4.237,11.148,2.176,16.722c-28.609,78.234-97.272,135.06-179.202,148.286         C291.814,485.126,290.833,485.21,289.79,485.21z M250.729,373.688l40.191,91.303         c73.339-12.326,134.861-62.976,161.372-132.753c-13.92-0.019-25.315-1.265-33.872-3.705         c-21.318-6.113-31.657-14.671-35.541-18.634c-3.757,9.196-17.156,37.444-44.591,51.18         c-21.232,10.652-52.235,12.89-74.504,12.89C258.121,373.968,253.582,373.816,250.729,373.688z" style="fill:#00863E;"/></g><g><path d="M256.003,36.79c-121.285,0-219.968,98.951-219.968,220.563         c0,96.416,64.204,183.229,156.147,211.129c0.77,0.247,1.563,0.362,2.368,0.362c2.252,0,4.426-0.937,5.988-2.653         c2.12-2.312,2.724-5.617,1.57-8.545c-86.696-219.18-102.394-270.182-104.87-281.928         c11.689-6.175,50.839-14.724,61.232-13.016c3.055,4.388,9.378,19.883,14.988,33.662         c21.308,52.278,53.508,131.295,98.244,134.489c31.751,2.288,60.323-9.787,76.684-32.226         c9.929-13.65,13.307-29.062,8.851-40.231c-6.791-16.981-38.052-88.522-49.164-113.917l49-12.295         c10.697,25.505,49.494,116.515,67.808,138.569c7.997,9.595,21.749,15.491,40.856,17.479c4.533,0.385,8.468-2.784,8.936-7.253         c0.879-7.775,1.292-15.744,1.292-23.625C475.965,135.741,377.284,36.79,256.003,36.79L256.003,36.79z" style="fill:#FFFFFF;"/><path d="M194.55,478.844c-1.828,0-3.621-0.272-5.33-0.811         C93.133,448.851,26.035,358.112,26.035,257.353c0-127.132,103.163-230.563,229.968-230.563         c126.802,0,229.962,103.431,229.962,230.564c0,8.466-0.456,16.793-1.355,24.748c-0.96,9.179-8.757,16.161-18.128,16.161         h-0.001c-0.527,0-1.063-0.022-1.589-0.067c-0.063-0.005-0.126-0.011-0.188-0.018c-21.783-2.266-37.766-9.339-47.504-21.022         c-17.259-20.785-49.762-94.825-66.01-133.186l-29.218,7.332c15.908,36.397,38.78,88.953,44.551,103.381         c5.724,14.348,1.872,33.438-10.049,49.827c-16.971,23.275-45.093,36.619-77.164,36.619c-2.75,0-5.551-0.102-8.325-0.301         c-23.197-1.657-44.695-19.186-65.716-53.589c-16.726-27.374-30.219-60.48-41.062-87.081         c-3.355-8.243-8.465-20.792-11.716-27.589c-10.895,0.671-31.257,5.043-43.354,9.09         c6.305,21.458,28.149,84.916,102.271,272.309c2.581,6.547,1.238,13.815-3.499,18.981         C204.509,476.686,199.63,478.844,194.55,478.844z M256.003,46.79c-115.776,0-209.968,94.458-209.968,210.563         c0,90.754,59.576,172.6,145.364,200.403C107.7,246.033,90.335,191.448,87.454,177.78c-0.921-4.369,1.166-8.819,5.114-10.905         c11.969-6.323,47.032-14.395,62.528-14.395c1.915,0,3.549,0.116,4.997,0.354c2.666,0.438,5.042,1.937,6.585,4.154         c3.466,4.979,8.603,17.331,16.042,35.605c19.141,46.962,51.166,125.535,89.694,128.286c2.305,0.166,4.622,0.25,6.895,0.25         c25.608,0,47.841-10.349,60.997-28.393c7.79-10.71,10.792-22.738,7.643-30.635c-6.501-16.256-36.459-84.869-49.037-113.613         c-1.18-2.695-1.112-5.773,0.184-8.415c1.297-2.641,3.69-4.578,6.544-5.293l49-12.295c4.795-1.204,9.745,1.276,11.655,5.832         c23.037,54.926,52.547,119.51,66.279,136.048c6.034,7.24,16.918,11.854,32.354,13.714c0.69-6.719,1.037-13.66,1.037-20.725         C465.965,141.249,371.776,46.79,256.003,46.79z" style="fill:#00863E;"/></g></g></g></g></g></g></g><g id="Layer_1"/></svg>