<?xml version="1.0" ?><!DOCTYPE svg  PUBLIC '-//W3C//DTD SVG 1.1//EN'  'http://www.w3.org/Graphics/SVG/1.1/DTD/svg11.dtd'><svg height="512px" style="enable-background:new 0 0 512 512;" version="1.1" viewBox="0 0 512 512" width="512px" xml:space="preserve" xmlns="http://www.w3.org/2000/svg" xmlns:xlink="http://www.w3.org/1999/xlink"><g id="comp_x5F_394-yoast"><g><g><g><path d="M100.008,453.786c-0.982,0-1.981-0.146-2.969-0.453c-19.595-6.086-37.219-18.401-49.627-34.677      c-12.898-16.919-19.716-36.998-19.716-58.064V160.51c0-25.965,10.301-50.339,29.004-68.633      c18.659-18.249,43.509-28.299,69.973-28.299H290c5.522,0,10,4.477,10,10s-4.478,10-10,10H126.673      c-43.548,0-78.978,34.512-78.978,76.932v200.082c0,33.25,22.73,63.532,55.276,73.642c5.274,1.638,8.222,7.242,6.583,12.516      C108.223,451.036,104.272,453.786,100.008,453.786z" style="fill:#A4286A;"/></g><g><path d="M349.947,33h64.811C274.612,401.486,272.764,407.76,234.755,447.133      c-20.272,21.053-48.048,30.896-76.311,31.867v-49.799c47.95-7.504,62.957-48.633,62.957-73.389      c0-19.586,0.585-7.568-80.013-212.812h59.839l49.119,147.908L349.947,33L349.947,33z" style="fill:#9FDA4F;"/><g><path d="M158.444,489c-2.588,0-5.081-1.004-6.948-2.809c-1.95-1.884-3.051-4.479-3.051-7.191v-49.799       c0-4.926,3.587-9.118,8.454-9.88c43.112-6.747,54.503-44.492,54.503-63.509v-0.423c0.002-10.35,0.002-10.35-20.936-62.188       c-11.993-29.692-30.118-74.564-58.385-146.546c-1.209-3.078-0.817-6.555,1.045-9.288c1.862-2.732,4.956-4.368,8.263-4.368       h59.839c4.309,0,8.132,2.759,9.49,6.848l40.338,121.466l89.563-231.917c1.488-3.855,5.195-6.397,9.328-6.397h64.811       c3.288,0,6.366,1.616,8.232,4.323s2.283,6.158,1.114,9.231l-9.365,24.627C283.032,407.511,280.516,414.127,241.95,454.078       c-20.586,21.378-50.123,33.781-83.162,34.916C158.673,488.998,158.558,489,158.444,489z M168.444,437.373v30.835       c23.559-2.85,44.273-12.606,59.107-28.012c35.728-37.01,38.217-43.555,168.493-386.123L400.256,43h-43.451l-97.13,251.51       c-1.521,3.937-5.32,6.494-9.568,6.395c-4.219-0.101-7.92-2.84-9.25-6.846L194.012,153h-37.947       c25.187,63.989,41.743,104.979,52.945,132.711c21.975,54.404,22.395,55.444,22.392,69.683v0.418       c0,16.79-5.552,34.573-15.231,48.791C204.909,421.146,188.523,432.36,168.444,437.373z" style="fill:#77A43B;"/></g></g><g><path d="M474.305,457.814H280c-5.522,0-10-4.478-10-10s4.478-10,10-10h184.305v-280.91      c0-24.084-8.863-42.884-26.343-55.878c-4.433-3.295-5.354-9.559-2.06-13.991c3.294-4.432,9.559-5.355,13.991-2.06      c22.512,16.734,34.411,41.607,34.411,71.929v290.91C484.305,453.337,479.827,457.814,474.305,457.814z" style="fill:#A4286A;"/></g></g></g></g><g id="Layer_1"/></svg>