<?xml version="1.0" ?><svg id="Layer_1" style="enable-background:new 0 0 72 72;" version="1.1" viewBox="0 0 72 72" xml:space="preserve" xmlns="http://www.w3.org/2000/svg" xmlns:xlink="http://www.w3.org/1999/xlink"><style type="text/css">
	.st0{fill:#0066DC;}
</style><g><path class="st0" d="M36,72C16.1,72,0,55.9,0,36C0,16.1,16.1,0,36,0c19.9,0,36,16.1,36,36C72,55.9,55.9,72,36,72z M41.8,60.7h10.7   V8.8l-11,2.3v16.3c-2.5-3.2-6-4.7-10.5-4.7c-4.7,0-9,1.7-12.5,5.2c-3.9,3.8-6,8.6-6,14c0,5.9,2.2,10.9,6.6,14.7   c3.3,2.9,7.2,4.4,11.7,4.4c4.5,0,7.8-1.2,11.1-4.4V60.7z M23.4,41.7c0-5,4.1-9.3,9.3-9.3c5.2,0,9.1,4.1,9.1,9.4   c0,5.2-4,9.1-8.7,9.1C27.5,51,23.4,47,23.4,41.7z"/></g></svg>