<?xml version="1.0" ?><svg height="72" viewBox="0 0 72 72" width="72" xmlns="http://www.w3.org/2000/svg"><g fill="none" fill-rule="evenodd"><path d="M36,72 L36,72 C55.882251,72 72,55.882251 72,36 L72,36 C72,16.117749 55.882251,-3.65231026e-15 36,0 L36,0 C16.117749,3.65231026e-15 -2.4348735e-15,16.117749 0,36 L0,36 C2.4348735e-15,55.882251 16.117749,72 36,72 Z" fill="#ECECEC"/><g transform="translate(13 25)"><path d="M46.8292683,10.1695828 C46.8292683,15.7864719 42.2171072,20.3418803 36.5173021,20.3418803 C30.8119899,20.3418803 26.1970752,15.7864719 26.1970752,10.1695828 C26.1970752,4.55540841 30.8119899,0 36.5173021,0 C42.2171072,0 46.8292683,4.55540841 46.8292683,10.1695828" fill="#FF007F"/><path d="M20.6294395,10.1695828 C20.6294395,15.7864719 16.0145249,20.3418803 10.3092127,20.3418803 C4.61216113,20.3418803 0,15.7864719 0,10.1695828 C0,4.55540841 4.61216113,0 10.3092127,0 C16.0145249,0 20.6294395,4.55540841 20.6294395,10.1695828" fill="#0960D5"/></g></g></svg>