<?xml version="1.0" ?><svg height="60px" version="1.1" viewBox="0 0 60 60" width="60px" xmlns="http://www.w3.org/2000/svg" xmlns:sketch="http://www.bohemiancoding.com/sketch/ns" xmlns:xlink="http://www.w3.org/1999/xlink"><title/><desc/><defs/><g fill="none" fill-rule="evenodd" id="soical" stroke="none" stroke-width="1"><g id="social" transform="translate(-573.000000, -438.000000)"><g id="slices" transform="translate(173.000000, 138.000000)"/><g fill="#000000" id="square-black" transform="translate(173.000000, 138.000000)"><path d="M402.995937,300 L457.004063,300 C458.658673,300 460,301.33731 460,302.995937 L460,357.004063 C460,358.658673 458.66269,360 457.004063,360 L402.995937,360 C401.341327,360 400,358.66269 400,357.004063 L400,302.995937 C400,301.341327 401.33731,300 402.995937,300 Z" id="square-35"/></g><g id="icon" transform="translate(182.000000, 150.000000)"><g id="delicious" transform="translate(407.153846, 304.153846)"><rect fill="#B1B6BA" height="13.8461538" id="Blue" width="13.8461538" x="13.8461538" y="0"/><rect fill="#FFFFFF" height="13.8461538" id="White" width="13.8461538" x="0" y="0"/><rect fill="#FFFFFF" height="13.8461538" id="Grey" width="13.8461538" x="13.8461538" y="13.8461538"/><rect fill="#B1B6BA" height="13.8461538" id="Black" width="13.8461538" x="0" y="13.8461538"/></g></g></g></g></svg>