<?xml version="1.0" ?><svg height="60px" version="1.1" viewBox="0 0 60 60" width="60px" xmlns="http://www.w3.org/2000/svg" xmlns:sketch="http://www.bohemiancoding.com/sketch/ns" xmlns:xlink="http://www.w3.org/1999/xlink"><title/><desc/><defs/><g fill="none" fill-rule="evenodd" id="soical" stroke="none" stroke-width="1"><g id="social" transform="translate(-773.000000, -638.000000)"><g id="slices" transform="translate(173.000000, 138.000000)"/><g fill="#000000" id="square-black" transform="translate(173.000000, 138.000000)"><path d="M602.995937,500 L657.004063,500 C658.658673,500 660,501.33731 660,502.995937 L660,557.004063 C660,558.658673 658.66269,560 657.004063,560 L602.995937,560 C601.341327,560 600,558.66269 600,557.004063 L600,502.995937 C600,501.341327 601.33731,500 602.995937,500 Z" id="square-57"/></g><g fill="#FFFFFF" id="icon" transform="translate(182.000000, 150.000000)"><path d="M614.643722,511.228743 C614.529517,511.245774 614.42926,511.271942 614.315055,511.290634 L612.427618,507.615385 L606.83069,508.225157 L609.111307,512.697929 C597.30981,517.369251 602.53884,528.384615 602.53884,528.384615 L620.54665,523.415884 L615.598338,513.787461 C624.478884,511.340895 631.894377,516.342856 631.894377,516.342856 L625.781783,517.92544 L624.022063,514.791841 C622.366087,514.497339 620.481265,514.407618 618.472212,514.728704 L622.6346,522.836434 L640.615385,517.871856 C640.615385,517.871441 634.094789,508.054437 614.643722,511.228743 L614.643722,511.228743 Z M607.411306,522.678591 C607.411306,522.678591 605.676432,519.005834 610.725873,515.86102 L613.411003,521.127991 L607.411306,522.678591 L607.411306,522.678591 Z" id="deviantart"/></g></g></g></svg>