<?xml version="1.0" ?><svg height="60px" version="1.1" viewBox="0 0 60 60" width="60px" xmlns="http://www.w3.org/2000/svg" xmlns:sketch="http://www.bohemiancoding.com/sketch/ns" xmlns:xlink="http://www.w3.org/1999/xlink"><title/><desc/><defs/><g fill="none" fill-rule="evenodd" id="soical" stroke="none" stroke-width="1"><g id="social" transform="translate(-373.000000, -138.000000)"><g id="slices" transform="translate(173.000000, 138.000000)"/><g fill="#000000" id="square-black" transform="translate(173.000000, 138.000000)"><path d="M202.995937,0 L257.004063,0 C258.658673,0 260,1.33730974 260,2.99593743 L260,57.0040626 C260,58.6586731 258.66269,60 257.004063,60 L202.995937,60 C201.341327,60 200,58.6626903 200,57.0040626 L200,2.99593743 C200,1.34132688 201.33731,0 202.995937,0 Z" id="square-3"/></g><g fill="#FFFFFF" id="icon" transform="translate(182.000000, 150.000000)"><path d="M212.550752,21.2427659 C212.246308,21.2920356 211.93386,21.3176516 211.615385,21.3176516 C208.429126,21.3176516 205.846154,18.7536263 205.846154,15.5907405 C205.846154,12.4278547 208.429126,9.8638294 211.615385,9.8638294 C214.801643,9.8638294 217.384615,12.4278547 217.384615,15.5907405 C217.384615,16.1025609 217.316978,16.5986995 217.190092,17.0708292 L221.638437,23.8888893 L238.253005,6.39440625 L238.100746,13.2497817 L221.472656,29.5077217 L212.550752,21.2427659 Z M219.052473,12.457934 C219.313367,12.4977206 219.50245,12.6433651 219.599768,12.9148649 L221.682253,10.9525382 L226.649282,15.6390691 L240.461538,1.84615385 L240.461538,14.3582955 L232.024111,20.7509179 L233.560857,22.3762074 L221.458852,34.1538462 L210.499309,23.5324938 C206.566726,22.9929211 203.538462,19.6428814 203.538462,15.5907405 C203.538462,11.1627004 207.154623,7.57306496 211.615385,7.57306496 C214.956317,7.57306496 217.823478,9.58663935 219.052473,12.457934 L219.052473,12.457934 Z" id="foursquare"/></g></g></g></svg>