<?xml version="1.0" ?><svg height="60px" version="1.1" viewBox="0 0 60 60" width="60px" xmlns="http://www.w3.org/2000/svg" xmlns:sketch="http://www.bohemiancoding.com/sketch/ns" xmlns:xlink="http://www.w3.org/1999/xlink"><title/><desc/><defs/><g fill="none" fill-rule="evenodd" id="soical" stroke="none" stroke-width="1"><g id="social" transform="translate(-673.000000, -538.000000)"><g id="slices" transform="translate(173.000000, 138.000000)"/><g fill="#000000" id="square-black" transform="translate(173.000000, 138.000000)"><path d="M502.995937,400 L557.004063,400 C558.658673,400 560,401.33731 560,402.995937 L560,457.004063 C560,458.658673 558.66269,460 557.004063,460 L502.995937,460 C501.341327,460 500,458.66269 500,457.004063 L500,402.995937 C500,401.341327 501.33731,400 502.995937,400 Z" id="square-46"/></g><g fill="#FFFFFF" id="icon" transform="translate(182.000000, 150.000000)"><path d="M520.899062,425.002807 C524.944908,424.971653 527.821862,423.098213 529.528677,419.3821 L529.6184,419.3821 L529.6184,425.049345 C529.6184,425.471648 529.588492,426.12664 529.528677,427.016631 C529.406969,427.938159 529.082138,428.929302 528.5546,429.991213 C528.025815,430.990433 527.1722,431.841577 525.995415,432.543877 C524.831923,433.309253 523.2086,433.706941 521.124615,433.738479 C519.116231,433.738479 517.418138,433.254254 516.028262,432.286187 C514.608062,431.33389 513.777708,429.787754 513.5372,427.649316 L511.770569,427.649316 C511.951677,430.428131 512.909554,432.411186 514.646277,433.597711 C516.336892,434.736929 518.481523,435.307692 521.079338,435.307692 C523.646,435.307692 525.647323,434.862697 527.081646,433.972323 C528.5006,433.113871 529.519123,432.043882 530.139292,430.763897 C530.758215,429.483526 531.127908,428.265463 531.248369,427.110476 C531.339754,425.955104 531.384615,425.127805 531.384615,424.627811 L531.384615,401.254609 L529.617569,401.254609 L529.617569,406.40686 L529.527846,406.40686 C528.848277,404.518034 527.723415,403.089589 526.152431,402.121138 C524.567323,401.168841 522.815231,400.692308 520.898231,400.692308 C517.559785,400.754999 515.023446,401.949217 513.287969,404.275729 C511.505554,406.586088 510.615385,409.436057 510.615385,412.824096 C510.615385,416.30598 511.460277,419.186333 513.151308,421.465923 C514.859369,423.793205 517.440569,424.972038 520.899062,425.002807 L520.899062,425.002807 Z M514.511692,405.5411 C515.899908,403.433046 518.029169,402.340366 520.899062,402.26229 C523.843308,402.340751 526.024492,403.402278 527.444692,405.447639 C528.863646,407.493386 529.573954,409.952205 529.573954,412.82525 C529.573954,415.698295 528.863646,418.141345 527.444692,420.155553 C526.024492,422.29476 523.843308,423.38744 520.899062,423.433978 C518.120554,423.387056 516.005831,422.325529 514.556554,420.249013 C513.091492,418.23519 512.359585,415.760217 512.359585,412.82525 C512.359585,410.076819 513.076954,407.648769 514.511692,405.5411 L514.511692,405.5411 Z" id="goodreads"/></g></g></g></svg>