<?xml version="1.0" ?><svg height="60px" version="1.1" viewBox="0 0 60 60" width="60px" xmlns="http://www.w3.org/2000/svg" xmlns:sketch="http://www.bohemiancoding.com/sketch/ns" xmlns:xlink="http://www.w3.org/1999/xlink"><title/><desc/><defs/><g fill="none" fill-rule="evenodd" id="soical" stroke="none" stroke-width="1"><g id="social" transform="translate(-873.000000, -238.000000)"><g id="slices" transform="translate(173.000000, 138.000000)"/><g fill="#000000" id="square-black" transform="translate(173.000000, 138.000000)"><path d="M702.995937,100 L757.004063,100 C758.658673,100 760,101.33731 760,102.995937 L760,157.004063 C760,158.658673 758.66269,160 757.004063,160 L702.995937,160 C701.341327,160 700,158.66269 700,157.004063 L700,102.995937 C700,101.341327 701.33731,100 702.995937,100 Z" id="square-18"/></g><g id="icon" transform="translate(182.000000, 150.000000)"><g id="play_store" transform="translate(708.461538, 101.000000)"><path d="M18.3076923,10.6203459 L2.52728106,2 C1.70485715,2 1.03846154,2.66475248 1.03846154,3.48514851 L1.03846154,30.5148515 C1.03846154,31.3352475 1.70485715,32 2.52728106,32 C2.52728106,32 11.1806001,27.244086 18.3076923,23.3439795 L18.3076923,10.6203459 Z" fill="#FFFFFF" id="Mask"/><path d="M21.5106871,12.370042 L27.5394489,15.6633663 C30.2199196,17.1072277 27.5394489,18.3366337 27.5394489,18.3366337 C27.5394489,18.2531683 2.52728106,32 2.52728106,32 C2.4790684,32 2.43139195,31.9977155 2.38435454,31.9932491 L21.5106871,12.370042 Z" fill="#CCCCCC" id="Mask"/><path d="M2.52823098,2.00051891 L27.5394489,15.6633663 C30.2199196,17.1072277 27.5394489,18.3366337 27.5394489,18.3366337 C27.5394489,18.3101555 25.0222692,19.6755337 21.5849861,21.552341 L2.52823098,2.00051891 Z" fill="#CCCCCC" id="Mask"/><path d="M21.5430894,12.3877424 L27.5394489,15.6633663 C30.2199196,17.1072277 27.5394489,18.3366337 27.5394489,18.3366337 C27.5394489,18.3101555 25.0222692,19.6755337 21.5849861,21.552341 L17.0977657,16.9485492 L21.5430894,12.3877424 Z" fill="#FFFFFF" id="Mask"/></g></g></g></g></svg>