<?xml version="1.0" ?><svg height="60px" version="1.1" viewBox="0 0 60 60" width="60px" xmlns="http://www.w3.org/2000/svg" xmlns:sketch="http://www.bohemiancoding.com/sketch/ns" xmlns:xlink="http://www.w3.org/1999/xlink"><title/><desc/><defs/><g fill="none" fill-rule="evenodd" id="soical" stroke="none" stroke-width="1"><g id="social" transform="translate(-273.000000, -638.000000)"><g id="slices" transform="translate(173.000000, 138.000000)"/><g fill="#000000" id="square-black" transform="translate(173.000000, 138.000000)"><path d="M102.995937,500 L157.004063,500 C158.658673,500 160,501.33731 160,502.995937 L160,557.004063 C160,558.658673 158.66269,560 157.004063,560 L102.995937,560 C101.341327,560 100,558.66269 100,557.004063 L100,502.995937 C100,501.341327 101.33731,500 102.995937,500 Z" id="square-52"/></g><g fill="#FFFFFF" id="icon" transform="translate(182.000000, 150.000000)"><path d="M109.031851,534.173753 L133.421875,534.237042 L139.736751,524.214432 L115.021372,523.806603 L109.031851,534.173753 Z M127.229905,502.209923 L114.921828,502.209923 L126.208834,522.968637 L139.228666,523.144419 L127.229905,502.209923 Z M102.538462,523.166923 L107.753681,534.078538 L119.980056,513.504244 L114.172232,502.547776 L102.538462,523.166923 Z" id="drive"/></g></g></g></svg>