<?xml version="1.0" ?><svg height="60px" version="1.1" viewBox="0 0 60 60" width="60px" xmlns="http://www.w3.org/2000/svg" xmlns:sketch="http://www.bohemiancoding.com/sketch/ns" xmlns:xlink="http://www.w3.org/1999/xlink"><title/><desc/><defs/><g fill="none" fill-rule="evenodd" id="soical" stroke="none" stroke-width="1"><g id="social" transform="translate(-1073.000000, -738.000000)"><g id="slices" transform="translate(173.000000, 138.000000)"/><g fill="#000000" id="square-black" transform="translate(173.000000, 138.000000)"><path d="M902.995937,600 L957.004063,600 C958.658673,600 960,601.33731 960,602.995937 L960,657.004063 C960,658.658673 958.66269,660 957.004063,660 L902.995937,660 C901.341327,660 900,658.66269 900,657.004063 L900,602.995937 C900,601.341327 901.33731,600 902.995937,600 Z" id="square-70"/></g><g fill="#FFFFFF" id="icon" transform="translate(182.000000, 150.000000)"><path d="M917.206202,607.268746 C917.206202,607.268746 920.678082,605.315979 924.45097,604.095276 C928.223858,602.874573 932.913549,602.375 932.913549,602.375 L932.913549,622.988995 C932.913549,624.620252 932.706356,625.850254 932.291964,626.679038 C931.877573,627.507821 931.173775,628.191887 930.18055,628.731254 C929.187325,629.270621 928.065852,629.540301 926.816099,629.540301 C925.382172,629.540301 924.237678,629.129204 923.382584,628.306998 C922.527489,627.484791 922.099949,626.422517 922.099949,625.120143 C922.099949,623.804613 922.60642,622.669986 923.619378,621.716226 C924.632336,620.762467 925.941268,620.285595 927.546215,620.285595 C928.072426,620.285595 928.536144,620.331638 928.93738,620.423725 C929.338617,620.515812 929.993083,620.752604 930.900799,621.134107 L930.900799,609.347526 C930.900799,609.347526 928.536357,609.347526 925.416851,610.352905 C922.297346,611.358285 919.159754,612.998103 919.159754,612.998103 L919.159754,626.994763 C919.159754,628.586554 918.949273,629.826422 918.528303,630.714405 C918.107334,631.602388 917.383803,632.309474 916.35769,632.835686 C915.331577,633.361898 914.213393,633.625 913.003106,633.625 C911.569178,633.625 910.434551,633.220481 909.59919,632.41143 C908.763828,631.602379 908.346154,630.546682 908.346154,629.244308 C908.346154,627.863002 908.846048,626.702064 909.84585,625.76146 C910.845653,624.820856 912.154585,624.350562 913.772687,624.350562 C914.7988,624.350562 915.943294,624.653129 917.206202,625.258273 L917.206202,607.268746 Z" id="itunes"/></g></g></g></svg>