<?xml version="1.0" ?><svg height="60px" version="1.1" viewBox="0 0 60 60" width="60px" xmlns="http://www.w3.org/2000/svg" xmlns:sketch="http://www.bohemiancoding.com/sketch/ns" xmlns:xlink="http://www.w3.org/1999/xlink"><title/><desc/><defs/><g fill="none" fill-rule="evenodd" id="soical" stroke="none" stroke-width="1"><g id="social" transform="translate(-573.000000, -138.000000)"><g id="slices" transform="translate(173.000000, 138.000000)"/><g fill="#000000" id="square-black" transform="translate(173.000000, 138.000000)"><path d="M402.995937,0 L457.004063,0 C458.658673,0 460,1.33730974 460,2.99593743 L460,57.0040626 C460,58.6586731 458.66269,60 457.004063,60 L402.995937,60 C401.341327,60 400,58.6626903 400,57.0040626 L400,2.99593743 C400,1.34132688 401.33731,0 402.995937,0 Z" id="square-5"/></g><g fill="#FFFFFF" id="icon" transform="translate(182.000000, 150.000000)"><path d="M421.098153,11.0377664 L421.098153,20.2307883 C421.098153,20.2307883 429.582507,22.9747852 430.664934,15.2919578 C430.837242,6.76561799 421.098152,6.80887504 421.098152,6.80887504 C421.098152,6.80887504 414.994952,6.40921755 411.964891,11.4279752 C409.66989,15.4254904 412.613797,19.0224078 412.613797,19.0224078 L408.674534,22.6193251 C408.674534,22.6193251 402.744559,15.1142277 408.544386,6.98660507 C416.076462,-1.76260253 428.823617,3.49500922 428.823617,3.49500922 C428.823617,3.49500922 438.670858,7.60819001 435.295263,18.5334151 C430.620023,28.4806548 421.098153,24.7746408 421.098153,24.7746408 L421.098153,29.8691581 C421.098153,29.8691581 421.227383,32.5223674 418.024097,33.7213398 C414.821727,34.9203123 411.87782,32.4636421 411.87782,32.4636421 L411.87782,27.6371424 C413.339692,29.1699464 415.610493,29.8677016 416.387714,27.6371426 L416.387714,11.0377664 L421.098153,11.0377664 Z" id="path"/></g></g></g></svg>