<?xml version="1.0" ?><svg height="60px" version="1.1" viewBox="0 0 60 60" width="60px" xmlns="http://www.w3.org/2000/svg" xmlns:sketch="http://www.bohemiancoding.com/sketch/ns" xmlns:xlink="http://www.w3.org/1999/xlink"><title/><desc/><defs/><g fill="none" fill-rule="evenodd" id="soical" stroke="none" stroke-width="1"><g id="social" transform="translate(-473.000000, -238.000000)"><g id="slices" transform="translate(173.000000, 138.000000)"/><g fill="#000000" id="square-black" transform="translate(173.000000, 138.000000)"><path d="M302.995937,100 L357.004063,100 C358.658673,100 360,101.33731 360,102.995937 L360,157.004063 C360,158.658673 358.66269,160 357.004063,160 L302.995937,160 C301.341327,160 300,158.66269 300,157.004063 L300,102.995937 C300,101.341327 301.33731,100 302.995937,100 Z" id="square-14"/></g><g fill="#FFFFFF" id="icon" transform="translate(182.000000, 150.000000)"><path d="M304.793062,126.848278 L310.615385,121.025956 L310.615385,133.266124 C308.203088,131.622005 306.200648,129.421047 304.793062,126.848278 Z M302.538462,118 C302.538462,111.00964 306.423603,104.926704 312.152305,101.792744 L318.552136,108.192575 L303.341675,123.403036 C302.819443,121.694174 302.538462,119.8799 302.538462,118 Z M321,99.5384615 C323.44823,99.5384615 325.785155,100.015016 327.923077,100.880424 L327.923077,112.666886 L315.597655,100.341464 C317.306427,99.8193498 319.120411,99.5384615 321,99.5384615 Z M339.461538,118 C339.461538,120.44823 338.984984,122.785155 338.119576,124.923077 L331.385517,124.923077 L331.385517,102.734491 C336.260628,106.057577 339.461538,111.654982 339.461538,118 Z M314.077825,135.119941 L314.077825,128.384615 L336.266124,128.384615 C332.943109,133.260235 327.345407,136.461538 321,136.461538 C318.552081,136.461538 316.215439,135.985105 314.077825,135.119941 Z" id="picasa"/></g></g></g></svg>