<?xml version="1.0" ?><svg height="60px" version="1.1" viewBox="0 0 60 60" width="60px" xmlns="http://www.w3.org/2000/svg" xmlns:sketch="http://www.bohemiancoding.com/sketch/ns" xmlns:xlink="http://www.w3.org/1999/xlink"><title/><desc/><defs/><g fill="none" fill-rule="evenodd" id="soical" stroke="none" stroke-width="1"><g id="social" transform="translate(-373.000000, -338.000000)"><g id="slices" transform="translate(173.000000, 138.000000)"/><g fill="#000000" id="square-black" transform="translate(173.000000, 138.000000)"><path d="M202.995937,200 L257.004063,200 C258.658673,200 260,201.33731 260,202.995937 L260,257.004063 C260,258.658673 258.66269,260 257.004063,260 L202.995937,260 C201.341327,260 200,258.66269 200,257.004063 L200,202.995937 C200,201.341327 201.33731,200 202.995937,200 Z" id="square-23"/></g><g fill="#FFFFFF" id="icon" transform="translate(182.000000, 150.000000)"><path d="M230.236471,204.358551 C230.046111,204.235162 230.007169,204.120952 229.810595,204.017417 C229.595792,203.894028 229.37374,203.780885 229.151895,203.666889 L229.151895,216.700657 C229.153345,217.867515 228.662427,219.098417 227.954428,220.278298 L227.892494,220.382047 C225.843482,223.794886 221.53252,225.78448 217.489181,224.377248 C213.56246,223.010575 212.513926,219.09308 214.593387,215.62794 L214.65615,215.523551 C216.703091,212.112207 219.512184,209.19147 225.645667,211.166926 L225.645667,202.44843 C224.198599,202.044961 222.947689,201.846154 221.330146,201.846154 C211.971638,201.846154 205.023806,209.062278 205.023806,217.952692 L205.023806,218.068396 C205.023806,226.958811 211.915504,234.059231 221.217877,234.059231 C230.575349,234.059231 237.524217,226.843534 237.524217,217.952692 L237.524217,217.837202 C237.524217,217.144259 237.477611,216.464339 237.396206,215.795732 C242.269963,214.486912 244.279825,209.290483 241.961534,209.104119 C237.579109,209.235406 232.287347,205.692775 230.236471,204.358551 Z" id="Rdio"/></g></g></g></svg>