<?xml version="1.0" ?><svg height="60px" version="1.1" viewBox="0 0 60 60" width="60px" xmlns="http://www.w3.org/2000/svg" xmlns:sketch="http://www.bohemiancoding.com/sketch/ns" xmlns:xlink="http://www.w3.org/1999/xlink"><title/><desc/><defs/><g fill="none" fill-rule="evenodd" id="soical" stroke="none" stroke-width="1"><g id="social" transform="translate(-773.000000, -438.000000)"><g id="slices" transform="translate(173.000000, 138.000000)"/><g fill="#000000" id="square-black" transform="translate(173.000000, 138.000000)"><path d="M602.995937,300 L657.004063,300 C658.658673,300 660,301.33731 660,302.995937 L660,357.004063 C660,358.658673 658.66269,360 657.004063,360 L602.995937,360 C601.341327,360 600,358.66269 600,357.004063 L600,302.995937 C600,301.341327 601.33731,300 602.995937,300 Z" id="square-37"/></g><g fill="#FFFFFF" id="icon" transform="translate(182.000000, 150.000000)"><path d="M640.489126,312.958391 C640.895579,311.737864 641.517429,310.300224 642.376377,309.434439 L635.296275,309.434439 C635.179314,309.398165 635.057061,309.373626 634.937983,309.341086 C634.55323,308.732956 631.919758,305.307692 621.394337,305.307692 C609.84326,305.307692 607.79618,309.434439 607.79618,309.434439 L600.411768,309.434439 C601.353805,310.383975 602.008469,312.017924 602.409099,313.302465 C601.048437,315.121519 600.230769,317.375867 600.230769,319.824923 C600.230769,325.817134 605.067445,330.692308 611.012869,330.692308 C614.308413,330.692308 617.259426,329.190654 619.238764,326.833885 L621.686475,330.289022 L623.79918,326.699989 C625.777988,329.134642 628.781925,330.692308 632.140978,330.692308 C638.085871,330.692308 642.923077,325.817134 642.923077,319.824923 C642.923077,317.222234 642.008559,314.831324 640.489126,312.958391 Z M611.192572,328.384615 C606.420734,328.384615 602.538462,324.502872 602.538462,319.731034 C602.538462,314.959195 606.420734,311.076923 611.192572,311.076923 C615.963882,311.076923 619.846154,314.959195 619.846154,319.731034 C619.846154,324.502872 615.963882,328.384615 611.192572,328.384615 Z M607.5208,316.059261 C606.539998,317.040063 606,318.343908 606,319.731034 C606,321.118161 606.539998,322.422006 607.5208,323.402277 C608.501601,324.383079 609.805447,324.923077 611.192573,324.923077 C614.05541,324.923077 616.384615,322.593872 616.384615,319.731034 C616.384615,316.867667 614.05541,314.538462 611.192573,314.538462 C609.805447,314.538462 608.501601,315.078459 607.5208,316.059261 Z M608.336502,322.586575 C607.573844,321.823916 607.153846,320.809616 607.153846,319.731067 C607.153846,318.651923 607.573844,317.638217 608.336502,316.875559 C609.099756,316.112305 610.113461,315.692308 611.192605,315.692308 C613.419306,315.692308 615.230769,317.504365 615.230769,319.731067 C615.230769,321.957768 613.419306,323.769231 611.192605,323.769231 C610.113461,323.769231 609.099756,323.349233 608.336502,322.586575 C608.336502,322.586575 609.099756,323.349233 608.336502,322.586575 Z M609.461538,319.73103 C609.461538,320.686855 610.236744,321.461538 611.192569,321.461538 C612.148394,321.461538 612.923077,320.686855 612.923077,319.73103 C612.923077,318.775205 612.148394,318 611.192569,318 C610.236744,318 609.461538,318.775205 609.461538,319.73103 Z M631.961538,328.384615 C627.189846,328.384615 623.307692,324.502872 623.307692,319.731034 C623.307692,314.959195 627.189846,311.076923 631.961538,311.076923 C636.733231,311.076923 640.615385,314.959195 640.615385,319.731034 C640.615385,324.502872 636.733231,328.384615 631.961538,328.384615 Z M628.29003,316.059261 C627.309229,317.040063 626.769231,318.343908 626.769231,319.731034 C626.769231,321.118161 627.309229,322.422006 628.29003,323.402277 C629.270832,324.383079 630.574678,324.923077 631.961804,324.923077 C634.824641,324.923077 637.153846,322.593872 637.153846,319.731034 C637.153846,316.867667 634.824641,314.538462 631.961804,314.538462 C630.574678,314.538462 629.270832,315.078459 628.29003,316.059261 Z M629.105733,322.586575 C628.343075,321.823916 627.923077,320.809616 627.923077,319.731067 C627.923077,318.651923 628.343075,317.638217 629.105733,316.875559 C629.868987,316.112305 630.882692,315.692308 631.961836,315.692308 C634.188537,315.692308 636,317.504365 636,319.731067 C636,321.957768 634.188537,323.769231 631.961836,323.769231 C630.882692,323.769231 629.868987,323.349233 629.105733,322.586575 C629.105733,322.586575 629.868987,323.349233 629.105733,322.586575 Z M630.230769,319.73103 C630.230769,320.686855 631.005974,321.461538 631.961799,321.461538 C632.917625,321.461538 633.692308,320.686855 633.692308,319.73103 C633.692308,318.775205 632.917625,318 631.961799,318 C631.005974,318 630.230769,318.775205 630.230769,319.73103 Z M621.360736,306.461538 C628.644376,306.461538 631.384615,309.54779 631.384615,309.54779 C631.384615,309.54779 623.596154,308.225187 621,318 C618.403846,308.225187 610.615385,309.54779 610.615385,309.54779 C610.615385,309.54779 613.356146,306.461538 620.639786,306.461538 L621.360736,306.461538 Z" id="trip_advisor"/></g></g></g></svg>