<?xml version="1.0" ?><svg height="60px" version="1.1" viewBox="0 0 60 60" width="60px" xmlns="http://www.w3.org/2000/svg" xmlns:sketch="http://www.bohemiancoding.com/sketch/ns" xmlns:xlink="http://www.w3.org/1999/xlink"><title/><desc/><defs/><g fill="none" fill-rule="evenodd" id="soical" stroke="none" stroke-width="1"><g id="social" transform="translate(-773.000000, -238.000000)"><g id="slices" transform="translate(173.000000, 138.000000)"/><g fill="#000000" id="square-black" transform="translate(173.000000, 138.000000)"><path d="M602.995937,100 L657.004063,100 C658.658673,100 660,101.33731 660,102.995937 L660,157.004063 C660,158.658673 658.66269,160 657.004063,160 L602.995937,160 C601.341327,160 600,158.66269 600,157.004063 L600,102.995937 C600,101.341327 601.33731,100 602.995937,100 Z" id="square-17"/></g><g fill="#FFFFFF" id="icon" transform="translate(182.000000, 150.000000)"><path d="M619.00637,132.525289 C620.210286,133.192196 621.575393,133.160491 622.49202,132.404369 C626.168169,129.374348 629.974658,124.27135 631.051705,121.908237 C633.076228,122.092567 634.471028,121.618838 634.471028,121.618838 L634.458303,117.883571 C634.458303,117.883571 631.489387,117.937026 630.923678,117.945137 C626.617035,118.006335 623.645034,113.010617 625.396151,108.789823 C626.609322,105.865977 628.743363,107.97324 629.123587,108.881988 C629.503812,109.790736 629.420517,112.225739 628.866762,114.012267 C629.541603,115.517877 633.205026,116.316395 634.040287,115.057051 C635.06913,112.292098 635.518767,107.315182 632.851795,104.734558 C631.092581,103.032453 626.675649,102.167944 623.443353,104.107098 C620.210672,106.046252 620.273914,110.16677 620.527269,112.226476 C620.781009,114.286919 621.478216,118.649278 625.787944,121.073221 C626.168169,121.49718 621.064057,127.835928 620.781009,127.557221 C614.442901,121.315799 612.731504,107.864117 612.731504,107.864117 L607.153846,107.803288 C607.153846,107.803288 610.196415,127.374734 619.00637,132.525289 Z" id="vine"/></g></g></g></svg>