<?xml version="1.0" ?><svg height="60px" version="1.1" viewBox="0 0 60 60" width="60px" xmlns="http://www.w3.org/2000/svg" xmlns:sketch="http://www.bohemiancoding.com/sketch/ns" xmlns:xlink="http://www.w3.org/1999/xlink"><title/><desc/><defs/><g fill="none" fill-rule="evenodd" id="soical" stroke="none" stroke-width="1"><g id="social" transform="translate(-373.000000, -538.000000)"><g id="slices" transform="translate(173.000000, 138.000000)"/><g fill="#000000" id="square-black" transform="translate(173.000000, 138.000000)"><path d="M202.995937,400 L257.004063,400 C258.658673,400 260,401.33731 260,402.995937 L260,457.004063 C260,458.658673 258.66269,460 257.004063,460 L202.995937,460 C201.341327,460 200,458.66269 200,457.004063 L200,402.995937 C200,401.341327 201.33731,400 202.995937,400 Z" id="square-43"/></g><g fill="#FFFFFF" id="icon" transform="translate(182.000000, 150.000000)"><path d="M204.626046,409.016897 C207.70815,403.285788 213.889191,399.538462 221.016298,399.538462 C225.630008,399.538462 229.845419,401.498501 233.083557,404.264989 C232.158433,404.086506 231.148311,404.287094 230.131209,404.867164 C227.750032,406.228712 226.971499,410.082473 230.05894,412.017951 C231.987616,413.219437 232.673759,416.22745 232.609292,418.06468 C232.545646,419.904775 228.126159,428.355295 228.126159,428.355295 L223.823286,413.626755 C223.823286,413.626755 223.675464,412.593518 223.675464,412.2955 C223.675464,411.919703 223.799881,411.459577 224.032291,411.196765 C224.192433,411.021966 224.436751,410.654766 224.725826,410.654766 L226.764958,410.654766 L226.764958,409.017306 L215.678256,409.017306 L215.678256,410.654766 L216.022355,410.654766 C216.385341,410.654766 216.740116,411.1415 217.082572,411.491098 C217.487442,411.907831 217.99743,413.475699 218.614179,415.102106 L220.226268,420.396422 L216.752024,428.400325 L212.940252,412.403572 C212.940252,412.403572 213.053172,411.307293 213.283529,411.121032 C213.433404,410.99331 213.664583,410.654766 213.931074,410.654766 L214.035782,410.654766 L214.035782,409.017306 L204.626046,409.017306 L204.626046,409.016897 Z M206.799451,411.796894 C206.799451,411.796894 205.90266,410.654356 204.950846,410.654356 L203.985071,410.654356 C203.052967,412.701181 202.538462,415.450066 202.538462,417.969298 C202.538462,425.548279 207.200625,432.048585 213.842381,434.818757 L206.799451,411.796894 L206.799451,411.796894 Z M236.917503,408.870753 C237.268581,410.531547 237.196313,412.546441 236.511401,414.762742 C234.724799,420.529466 230.302027,430.903182 228.589747,434.854781 C235.016749,431.994139 239.494545,425.607228 239.494545,418.181758 C239.494134,414.781164 238.552175,411.597942 236.917503,408.870753 L236.917503,408.870753 Z M221.389961,424.441766 L216.665383,435.946557 C218.060665,436.27978 219.516719,436.461538 221.016298,436.461538 C222.568847,436.461538 224.074996,436.269546 225.515446,435.912989 L221.389961,424.441766 L221.389961,424.441766 Z" id="wordpress"/></g></g></g></svg>