<?xml version="1.0" encoding="utf-8"?>
<!-- Generator: Adobe Illustrator 25.4.1, SVG Export Plug-In . SVG Version: 6.00 Build 0)  -->
<svg version="1.1" id="Capa_1" xmlns="http://www.w3.org/2000/svg" xmlns:xlink="http://www.w3.org/1999/xlink" x="0px" y="0px"
	 viewBox="0 0 128 128" style="enable-background:new 0 0 128 128;" xml:space="preserve">
<style type="text/css">
	.st0{fill:#41A5ED;}
	.st1{fill:#2C7BD5;}
	.st2{fill:#195ABE;}
	.st3{fill:#103E91;}
	.st4{fill:#2166C3;}
	.st5{fill:#FFFFFF;}
	.st6{opacity:0.2;enable-background:new    ;}
</style>
<path class="st0" d="M113,34.2H14.6V10.3c0-3.2,2.6-5.8,5.8-5.8h86.7c3.2,0,5.8,2.6,5.8,5.8L113,34.2L113,34.2z"/>
<rect x="14.6" y="34.2" class="st1" width="98.4" height="29.8"/>
<rect x="14.6" y="64" class="st2" width="98.4" height="29.8"/>
<path class="st3" d="M107.2,123.5H20.5c-3.2,0-5.8-2.6-5.8-5.8V93.8H113v23.9C113,120.9,110.4,123.5,107.2,123.5z"/>
<path class="st4" d="M59.5,96.5h-53c-3.5,0-6.4-2.9-6.4-6.4V37.9c0-3.5,2.9-6.4,6.4-6.4h53c3.5,0,6.4,2.9,6.4,6.4v52.2
	C65.9,93.6,63.1,96.5,59.5,96.5z"/>
<g>
	<path class="st5" d="M19.3,82.4l-8.9-35.9h7.1L21,62.8c0.9,4.4,1.8,8.9,2.4,12.5h0.1c0.6-3.8,1.6-8,2.6-12.6L30,46.5h7L40.6,63
		c0.9,4.3,1.7,8.2,2.2,12.1h0.1c0.6-4,1.5-8,2.5-12.4l3.8-16.2H56l-9.8,35.9H39l-3.8-16.9c-0.9-4-1.6-7.4-2.1-11.3H33
		c-0.6,3.8-1.3,7.3-2.4,11.4l-4.2,16.9L19.3,82.4L19.3,82.4z"/>
</g>
<path class="st6" d="M65.9,37.3c0,0.2,0,0.4,0,0.6v52.2c0,3.5-2.9,6.4-6.4,6.4H29.7v5.7h35.2c3.5,0,6.4-2.9,6.4-6.4V43.6
	C71.3,40.4,69,37.7,65.9,37.3z"/>
</svg>
