<?xml version="1.0" encoding="utf-8"?>
<!-- Generator: Adobe Illustrator 25.4.1, SVG Export Plug-In . SVG Version: 6.00 Build 0)  -->
<svg version="1.1"
	 id="svg2" inkscape:version="0.91+devel r" sodipodi:docname="application-pdf.svg" xmlns:cc="http://creativecommons.org/ns#" xmlns:dc="http://purl.org/dc/elements/1.1/" xmlns:inkscape="http://www.inkscape.org/namespaces/inkscape" xmlns:rdf="http://www.w3.org/1999/02/22-rdf-syntax-ns#" xmlns:sodipodi="http://sodipodi.sourceforge.net/DTD/sodipodi-0.dtd" xmlns:svg="http://www.w3.org/2000/svg"
	 xmlns="http://www.w3.org/2000/svg" xmlns:xlink="http://www.w3.org/1999/xlink" x="0px" y="0px" viewBox="0 0 48 48"
	 style="enable-background:new 0 0 48 48;" xml:space="preserve">
<style type="text/css">
	.st0{fill:#D41A1A;}
	.st1{clip-path:url(#SVGID_00000054981015669829549360000005003757434059593114_);filter:url(#filter4201);}
	.st2{opacity:0.392;}
	.st3{fill:#E55A5A;}
	.st4{fill:#FFFFFF;}
</style>
<filter  height="1.12" id="filter4201" inkscape:collect="always" style="color-interpolation-filters:sRGB" width="1.12" x="-0.06" y="-0.06">
	<feGaussianBlur  id="feGaussianBlur4203" inkscape:collect="always" stdDeviation="0.2826087"></feGaussianBlur>
</filter>
<sodipodi:namedview  bordercolor="#666666" borderopacity="1" gridtolerance="10" guidetolerance="10" id="namedview20" inkscape:current-layer="svg2" inkscape:cx="2.7786735" inkscape:cy="17.55297" inkscape:pageopacity="0" inkscape:pageshadow="2" inkscape:window-height="1026" inkscape:window-maximized="0" inkscape:window-width="959" inkscape:window-x="960" inkscape:window-y="27" inkscape:zoom="4.1313825" objecttolerance="10" pagecolor="#ffffff" showgrid="false">
	</sodipodi:namedview>
<path id="path4-6" inkscape:connector-curvature="0" class="st0" d="M7,0C5.9,0,4.9,1,4.9,2.1v43.9C4.9,46.9,6,48,7,48h33.4
	c1,0,2.1-1.1,2.1-2.1V13.5L28.9,0H7z"/>
<g>
	<defs>
		<path id="SVGID_1_" d="M28.1-0.9l15.7,15.7H30.5c-1.2,0-2.4-1.2-2.4-2.4C28.1,12.4,28.1-0.9,28.1-0.9z"/>
	</defs>
	<clipPath id="SVGID_00000040540695190908024040000016511443635290719382_">
		<use xlink:href="#SVGID_1_"  style="overflow:visible;"/>
	</clipPath>
	
		<g id="path8-3" inkscape:connector-curvature="0" style="clip-path:url(#SVGID_00000040540695190908024040000016511443635290719382_);filter:url(#filter4201);">
		<path class="st2" d="M28.8,0.3l13.6,13.6H30.9c-1,0-2.1-1.1-2.1-2.1C28.8,11.8,28.8,0.3,28.8,0.3z"/>
	</g>
</g>
<path id="path8" inkscape:connector-curvature="0" class="st3" d="M28.9,0l13.6,13.6H31c-1,0-2.1-1.1-2.1-2.1
	C28.9,11.5,28.9,0,28.9,0z"/>
<path id="path70" inkscape:connector-curvature="0" class="st4" d="M19.4,12.6c-1.2,0-2.3,1.2-2,2.4c0.2,1.9,1.4,3.4,2.3,4.9
	c0.1,0.6-0.2,1.1-0.2,1.7c-0.6,3.3-1.5,6.7-3,9.7c-1.8,0.8-3.8,1.6-4.8,3.4c-0.7,1.2,0.3,2.9,1.6,3c1.3,0.2,2.2-0.9,2.9-1.8
	c0.7-1,1.2-2.1,1.8-3.2c3.6-1.5,7.5-2.5,11.4-2.9c1.6,1.1,3.3,2.5,5.3,2.5c1.2,0,2.1-1.2,2-2.3c-0.1-1.1-1-1.8-2-2
	c-1.6-0.5-3.3-0.2-4.8-0.2c-3.1-2.5-5.9-5.3-8.1-8.5c0.2-2,0.5-4.1-0.5-5.9C20.8,13,20.1,12.6,19.4,12.6 M19.5,14.4
	c0.3,0.1,0.4,0.6,0.5,0.9C20,15.8,20,16.4,20,17c-0.4-0.8-0.9-1.6-0.9-2.5C19.3,14.5,19.4,14.4,19.5,14.4 M21.4,22.1
	c1.8,2.3,3.9,4.4,6.1,6.3c-2.9,0.4-5.8,1.2-8.6,2.2c1.1-2.8,1.9-5.7,2.4-8.6C21.3,22,21.3,22,21.4,22.1 M32.8,29.7
	c0.7,0.1,1.5,0,2.1,0.5c0.1,0.4-0.5,0.5-0.8,0.3c-0.6-0.2-1.2-0.5-1.7-0.8C32.5,29.8,32.7,29.7,32.8,29.7 M15,34.4
	c-0.3,0.6-0.8,1.2-1.3,1.7c-0.2,0.3-0.6-0.2-0.4-0.5c0.4-0.7,1.2-1.1,1.9-1.5C15.1,34.2,15.1,34.3,15,34.4"/>
</svg>
