<?xml version="1.0" encoding="utf-8"?>
<!-- Generator: Adobe Illustrator 25.4.1, SVG Export Plug-In . SVG Version: 6.00 Build 0)  -->
<svg version="1.1" id="Capa_1" xmlns="http://www.w3.org/2000/svg" xmlns:xlink="http://www.w3.org/1999/xlink" x="0px" y="0px"
	 viewBox="0 0 128 128" style="enable-background:new 0 0 128 128;" xml:space="preserve">
<style type="text/css">
	.st0{fill:#21A365;}
	.st1{fill:#107C41;}
	.st2{fill:#185B37;}
	.st3{fill:#33C481;}
	.st4{fill:#17864C;}
	.st5{fill:#FFFFFF;}
	.st6{opacity:0.2;enable-background:new    ;}
</style>
<rect x="63.7" y="34.2" class="st0" width="49.3" height="29.8"/>
<rect x="63.7" y="64" class="st1" width="49.3" height="29.8"/>
<rect x="14.5" y="34.2" class="st1" width="49.2" height="29.8"/>
<path class="st2" d="M63.7,93.8V64H14.6v29.8v4.3v19.6c0,3.2,2.6,5.8,5.8,5.8h86.7c3.2,0,5.8-2.6,5.8-5.8V93.8H63.7z"/>
<path class="st3" d="M107.1,4.5H63.6v29.8H113v-24C112.9,7.1,110.3,4.5,107.1,4.5z"/>
<path class="st0" d="M63.7,4.5H20.5c-3.2,0-5.8,2.6-5.8,5.8v23.9h49.1V4.5H63.7z"/>
<path class="st4" d="M59.5,96.5h-53c-3.5,0-6.4-2.9-6.4-6.4V37.9c0-3.5,2.9-6.4,6.4-6.4h53c3.5,0,6.4,2.9,6.4,6.4v52.2
	C65.9,93.6,63.1,96.5,59.5,96.5z"/>
<g>
	<path class="st5" d="M40.5,82.4l-3.9-7.1c-1.6-2.8-2.6-4.7-3.7-6.8h-0.1c-0.9,2.1-1.8,4-3.3,6.8L26,82.4h-7.6l10.8-18.1L18.7,46.5
		h7.7l3.9,7.4c1.2,2.2,2.1,4,3,6h0.2c1-2.2,1.7-3.8,2.9-6l3.9-7.4h7.6L37.2,64l11.1,18.4H40.5z"/>
</g>
<path class="st6" d="M66.7,37.3c0,0.2,0,0.4,0,0.6v52.2c0,3.5-2.9,6.4-6.4,6.4H30.4v5.7h35.2c3.5,0,6.4-2.9,6.4-6.4V43.6
	C72.1,40.4,69.7,37.7,66.7,37.3z"/>
</svg>
