<svg xmlns="http://www.w3.org/2000/svg" viewBox="0 0 96 96" fill="#FFF">
	<path fill="#FFB900" d="M45,24l-4.2426-4.2426C39.6321,18.6321,38.106,18,36.5147,18H9c-1.6569,0-3,1.3431-3,3v56 c0,0.5523,0.4477,1,1,1h82c0.5523,0,1-0.4477,1-1V27c0-1.6569-1.3431-3-3-3H45z"/>
	<path fill="#FFD75E" d="M45,24l-4.2426,4.2426C39.6321,29.3679,38.106,30,36.5147,30H6v47c0,0.5523,0.4477,1,1,1h82 c0.5523,0,1-0.4477,1-1V27c0-1.6569-1.3431-3-3-3H45z"/>
	<linearGradient id="a" x1="48" x2="48" y1="24" y2="78" gradientUnits="userSpaceOnUse">
		<stop offset="0" stop-color="#fff" stop-opacity="0"/>
		<stop offset="1" stop-color="#ffd75e" stop-opacity=".3"/>
	</linearGradient>
	<path fill="url(#a)" d="M45,24l-4.2426,4.2426C39.6321,29.3679,38.106,30,36.5147,30H6v47c0,0.5523,0.4477,1,1,1h82 c0.5523,0,1-0.4477,1-1V27c0-1.6569-1.3431-3-3-3H45z"/>
	<path opacity=".4" d="M6,30v1h30.6005c1.8565,0,3.637-0.7375,4.9497-2.0503L46.5,24H45l-4.2426,4.2426 C39.6321,29.3679,38.106,30,36.5147,30H6z"/>
	<path fill="#DA7B16" d="M89,78H7c-0.5523,0-1-0.4477-1-1l0,0h84l0,0C90,77.5523,89.5523,78,89,78z"/>
	<path fill="#E99E0C" d="M44 59L44 59c-.5523 0-1-.4477-1-1v-8c0-.5523.4477-1 1-1l0 0c.5523 0 1 .4477 1 1v8C45 58.5523 44.5523 59 44 59zM49 59L49 59c-.5523 0-1-.4477-1-1v-8c0-.5523.4477-1 1-1l0 0c.5523 0 1 .4477 1 1v8C50 58.5523 49.5523 59 49 59zM54 59L54 59c-.5523 0-1-.4477-1-1v-8c0-.5523.4477-1 1-1l0 0c.5523 0 1 .4477 1 1v8C55 58.5523 54.5523 59 54 59zM59 59L59 59c-.5523 0-1-.4477-1-1v-8c0-.5523.4477-1 1-1l0 0c.5523 0 1 .4477 1 1v8C60 58.5523 59.5523 59 59 59zM64 59L64 59c-.5523 0-1-.4477-1-1v-8c0-.5523.4477-1 1-1l0 0c.5523 0 1 .4477 1 1v8C65 58.5523 64.5523 59 64 59zM69 59L69 59c-.5523 0-1-.4477-1-1v-8c0-.5523.4477-1 1-1l0 0c.5523 0 1 .4477 1 1v8C70 58.5523 69.5523 59 69 59zM74 59L74 59c-.5523 0-1-.4477-1-1v-8c0-.5523.4477-1 1-1l0 0c.5523 0 1 .4477 1 1v8C75 58.5523 74.5523 59 74 59zM79 59L79 59c-.5523 0-1-.4477-1-1v-8c0-.5523.4477-1 1-1l0 0c.5523 0 1 .4477 1 1v8C80 58.5523 79.5523 59 79 59zM84 59L84 59c-.5523 0-1-.4477-1-1v-8c0-.5523.4477-1 1-1l0 0c.5523 0 1 .4477 1 1v8C85 58.5523 84.5523 59 84 59zM89 59L89 59c-.5523 0-1-.4477-1-1v-8c0-.5523.4477-1 1-1l0 0c.5523 0 1 .4477 1 1v8C90 58.5523 89.5523 59 89 59zM38 47H11c-1.1046 0-2 .8954-2 2h2c.5523 0 1 .4477 1 1v8c0 .5523-.4477 1-1 1H9c0 1.1046.8954 2 2 2h27c1.1046 0 2-.8954 2-2V49C40 47.8954 39.1045 47 38 47zM37 58c0 .5523-.4477 1-1 1h-8c-.5523 0-1-.4477-1-1v-8c0-.5523.4477-1 1-1h8c.5523 0 1 .4477 1 1V58zM8 59H6V49h2c.5523 0 1 .4477 1 1v8C9 58.5523 8.5523 59 8 59z"/>
</svg>