<?xml version="1.0" ?><svg enable-background="new 0 0 24 24" id="Layer_1" version="1.1" viewBox="0 0 24 24" xml:space="preserve" xmlns="http://www.w3.org/2000/svg" xmlns:xlink="http://www.w3.org/1999/xlink"><g><path d="M22,3H2C0.8969727,3,0,3.8969727,0,5v14c0,1.1030273,0.8969727,2,2,2h20c1.1030273,0,2-0.8969727,2-2V5   C24,3.8969727,23.1030273,3,22,3z" fill="#303C42"/><path d="M23,19c0,0.5512695-0.4487305,1-1,1H2c-0.5512695,0-1-0.4487305-1-1V5c0-0.5512695,0.4487305-1,1-1h20   c0.5512695,0,1,0.4487305,1,1V19z" fill="#FAFBFB"/><path d="M9.1970215,17.0875244l-0.1495361-0.0213623c-0.1373291-0.0183105-0.2471924-0.0457764-0.2471924-0.1434326   c0-0.1068115,0.1037598-0.1708984,0.27771-0.1708984c0.1861572,0,0.3662109,0.0701904,0.4547119,0.1251221l0.1373291-0.2563477   c-0.1525879-0.100708-0.3631592-0.1525879-0.5950928-0.1525879c-0.3692627,0-0.6072388,0.177002-0.6072388,0.4669189   c0,0.2380371,0.1769409,0.3845215,0.503479,0.4302979l0.1495361,0.0213623   c0.1739502,0.024353,0.2563477,0.0701294,0.2563477,0.1525269c0,0.112915-0.1159668,0.177063-0.3326416,0.177063   c-0.2197266,0-0.378418-0.0701904-0.4852295-0.1526489L8.409668,17.81073C8.5836182,17.9389038,8.8033447,18,9.0413818,18   c0.4211426,0,0.6652832-0.1984253,0.6652832-0.4760742C9.706665,17.2675781,9.5144043,17.1333008,9.1970215,17.0875244z" fill="#303C42"/><path d="M17.7875366,16.6816406v-0.177002h-0.3143311v1.4587402h0.3173828v-0.8178711   c0-0.2410889,0.1037598-0.3753662,0.3112183-0.3753662c0.0641479,0,0.1312866,0.0091553,0.1984253,0.0366211l0.0976563-0.2990723   c-0.0701904-0.0274658-0.1618042-0.0396729-0.2258301-0.0396729   C17.9889526,16.4680176,17.8699341,16.5534668,17.7875366,16.6816406z" fill="#303C42"/><path d="M10.7473145,17.697876c-0.1586914,0-0.2105713-0.0977173-0.2105713-0.2441406v-0.6591797h0.5187378   v-0.289917h-0.5187378v-0.4425049h-0.3204346v0.4425049H9.9202881v0.289917h0.2960205v0.6652832   C10.2163086,17.7985229,10.3475342,18,10.7229004,18c0.1373291,0,0.2959595-0.0427856,0.3966675-0.112915l-0.0914917-0.2716064   C10.9334106,17.6704102,10.8296509,17.697876,10.7473145,17.697876z" fill="#303C42"/><path d="M5.7394409,16.4680176c-0.1860962-0.0030518-0.3783569,0.0549316-0.5126343,0.2593994   c-0.100708-0.1617432-0.2593994-0.2593994-0.4821777-0.2593994c-0.1556396,0-0.3082275,0.0457764-0.4272461,0.2166748v-0.1800537H4   v1.4587402h0.3204346v-0.8087158c0-0.2532959,0.1403809-0.3875732,0.3570557-0.3875732   c0.2105713,0,0.3173828,0.1373291,0.3173828,0.3845215v0.8117676h0.3204346v-0.8087158   c0-0.2532959,0.1464844-0.3875732,0.3570557-0.3875732c0.2166138,0,0.3203735,0.1373291,0.3203735,0.3845215v0.8117676h0.3204346   v-0.9155273C6.3131714,16.7030029,6.0934448,16.4710693,5.7394409,16.4680176z" fill="#303C42"/><path d="M7.7841187,16.6816406c-0.100708-0.1312256-0.2532959-0.213623-0.4608154-0.213623   c-0.4089355,0-0.7293701,0.3204346-0.7293701,0.7659302C6.5939331,17.6795044,6.9143677,18,7.3233032,18   c0.2075195,0,0.3601074-0.0824585,0.4608154-0.2136841v0.177063h0.3173828v-0.7294312v-0.7293091H7.7841187V16.6816406z    M7.3629761,17.7008667c-0.2746582,0-0.4425049-0.2105713-0.4425049-0.4669189   c0-0.2562866,0.1678467-0.4668579,0.4425049-0.4668579c0.2623901,0,0.4393921,0.201416,0.4393921,0.4668579   C7.8023682,17.4995117,7.6253662,17.7008667,7.3629761,17.7008667z" fill="#303C42"/><path d="M19.6826172,16.6816406c-0.100708-0.1312256-0.2532959-0.213623-0.4608154-0.213623   c-0.4089355,0-0.7293701,0.3204346-0.7293701,0.7659302C18.4924316,17.6795044,18.8128662,18,19.2218018,18   c0.2075195,0,0.3601074-0.0824585,0.4608154-0.2136841v0.177063H20v-0.7294312v-1.3151855h-0.3173828V16.6816406z    M19.2614746,17.7008667c-0.2746582,0-0.4424438-0.2105713-0.4424438-0.4669189   c0-0.2562866,0.1677856-0.4668579,0.4424438-0.4668579c0.2624512,0,0.4394531,0.201416,0.4394531,0.4668579   C19.7009277,17.4995117,19.5239258,17.7008667,19.2614746,17.7008667z" fill="#303C42"/><path d="M14.8518066,16.7670898c0.1373291,0,0.2624512,0.0457764,0.3814697,0.1312256l0.1525879-0.2563477   c-0.1586914-0.1251221-0.3051758-0.1739502-0.5249023-0.1739502c-0.4699707,0-0.7781982,0.3234863-0.7781982,0.7659302   C14.0827637,17.6765137,14.3909912,18,14.8609619,18c0.2197266,0,0.3662109-0.0488281,0.5249023-0.1740112l-0.1525879-0.2563477   c-0.1190186,0.0855103-0.2441406,0.1312256-0.3814697,0.1312256c-0.2532959-0.0029907-0.4394531-0.1861572-0.4394531-0.4669189   C14.4123535,16.9532471,14.5985107,16.7701416,14.8518066,16.7670898z" fill="#303C42"/><path d="M16.7377319,16.6816406c-0.100708-0.1312256-0.2532959-0.213623-0.4608154-0.213623   c-0.4088745,0-0.7293091,0.3204346-0.7293091,0.7659302C15.5476074,17.6795044,15.868042,18,16.2769165,18   c0.2075195,0,0.3601074-0.0824585,0.4608154-0.2136841v0.177063h0.3173828v-0.7294312v-0.7293091h-0.3173828V16.6816406z    M16.3166504,17.7008667c-0.2747192,0-0.4425659-0.2105713-0.4425659-0.4669189   c0-0.2562866,0.1678467-0.4668579,0.4425659-0.4668579c0.2623901,0,0.4393921,0.201416,0.4393921,0.4668579   C16.7560425,17.4995117,16.5790405,17.7008667,16.3166504,17.7008667z" fill="#303C42"/><path d="M12.0442505,16.4680176c-0.4272461,0-0.7263184,0.3112793-0.7263184,0.7659302   C11.3179321,17.697876,11.6292114,18,12.0656128,18c0.2197266,0,0.4211426-0.0549927,0.5981445-0.2045288l-0.1556396-0.2349243   c-0.1220703,0.0976563-0.27771,0.1525269-0.4241943,0.1525269c-0.2044678,0-0.390625-0.0945435-0.4364014-0.3570557h1.083374   c0.0030518-0.0396118,0.0061035-0.0792847,0.0061035-0.1220703C12.7339478,16.7792969,12.453186,16.4680176,12.0442505,16.4680176z    M11.6505737,17.105835c0.0335693-0.2105713,0.1617432-0.3540039,0.3875732-0.3540039   c0.2044678,0,0.3356934,0.1281738,0.3692627,0.3540039H11.6505737z" fill="#303C42"/><path d="M13.3778687,16.6816406v-0.177002h-0.3143311v1.4587402h0.3173218v-0.8178711   c0-0.2410889,0.1037598-0.3753662,0.3113403-0.3753662c0.0640259,0,0.1312256,0.0091553,0.1983032,0.0366211l0.0976563-0.2990723   c-0.0701904-0.0274658-0.1617432-0.0396729-0.2258301-0.0396729   C13.5792847,16.4680176,13.4602051,16.5534668,13.3778687,16.6816406z" fill="#303C42"/><path d="M15.25,6C13.9902954,6,12.8510132,6.5012817,12,7.3043213C11.1489868,6.5012817,10.0097046,6,8.75,6   C6.1308594,6,4,8.1308594,4,10.75s2.1308594,4.75,4.75,4.75c1.2597046,0,2.3989868-0.5012817,3.25-1.3043213   C12.8510132,14.9987183,13.9902954,15.5,15.25,15.5c2.6191406,0,4.75-2.1308594,4.75-4.75S17.8691406,6,15.25,6z" fill="#303C42"/><path d="M11.5,10.75c0-0.6699219,0.190979-1.2904053,0.5-1.8352661c0.309021,0.5448608,0.5,1.1653442,0.5,1.8352661   s-0.190979,1.2904053-0.5,1.8352661C11.690979,12.0404053,11.5,11.4199219,11.5,10.75z" fill="#E55325"/><path d="M5,10.75C5,8.6821289,6.6821289,7,8.75,7c1.008728,0,1.9216309,0.4047852,2.5963135,1.0548706   C10.8151855,8.8217163,10.5,9.7486572,10.5,10.75s0.3151855,1.9282837,0.8463135,2.6951294   C10.6716309,14.0952148,9.758728,14.5,8.75,14.5C6.6821289,14.5,5,12.8178711,5,10.75z" fill="#EF4423"/><path d="M15.25,14.5c-1.008728,0-1.9216309-0.4047852-2.5963135-1.0548706   C13.1848145,12.6782837,13.5,11.7513428,13.5,10.75s-0.3151855-1.9282837-0.8463135-2.6951294   C13.3283691,7.4047852,14.241272,7,15.25,7C17.3178711,7,19,8.6821289,19,10.75S17.3178711,14.5,15.25,14.5z" fill="#FAA629"/><path d="M22,4h-0.5v13.5c0,0.5512695-0.4487305,1-1,1H1V19c0,0.5512695,0.4487305,1,1,1h20   c0.5512695,0,1-0.4487305,1-1V5C23,4.4487305,22.5512695,4,22,4z" fill="#010101" opacity="0.1"/><linearGradient gradientUnits="userSpaceOnUse" id="SVGID_1_" x1="-0.7076802" x2="24.7076797" y1="6.0743113" y2="17.9256878"><stop offset="0" style="stop-color:#FFFFFF;stop-opacity:0.2"/><stop offset="1" style="stop-color:#FFFFFF;stop-opacity:0"/></linearGradient><path d="M22,3H2C0.8969727,3,0,3.8969727,0,5v14c0,1.1030273,0.8969727,2,2,2h20   c1.1030273,0,2-0.8969727,2-2V5C24,3.8969727,23.1030273,3,22,3z" fill="url(#SVGID_1_)"/></g><g/><g/><g/><g/><g/><g/><g/><g/><g/><g/><g/><g/><g/><g/><g/></svg>