<?xml version="1.0" ?><svg enable-background="new 0 0 24 24" id="Layer_1" version="1.1" viewBox="0 0 24 24" xml:space="preserve" xmlns="http://www.w3.org/2000/svg" xmlns:xlink="http://www.w3.org/1999/xlink"><g><path d="M22,3H2C0.8974609,3,0,3.8969727,0,5v14c0,1.1030273,0.8974609,2,2,2h20c1.1025391,0,2-0.8969727,2-2V5   C24,3.8969727,23.1025391,3,22,3z" fill="#303C42"/><path d="M23,19c0,0.5512695-0.4482422,1-1,1H2c-0.5517578,0-1-0.4487305-1-1V5c0-0.5512695,0.4482422-1,1-1h20   c0.5517578,0,1,0.4487305,1,1V19z" fill="#CFD8DC"/><path d="M9.7111816,11.7007446c-0.4377441-0.1013184-0.5180664-0.2387695-0.5180664-0.4725952   c0-0.2557983,0.250061-0.4719849,0.5462036-0.4719849c0.3026733,0,0.5485229,0.2103271,0.5485229,0.4690552h0.2564087   c0-0.1983032-0.0861206-0.3829346-0.2419434-0.5197144C10.1511841,10.572876,9.951416,10.5,9.7393188,10.5   c-0.4424438,0-0.8023071,0.3267822-0.8023071,0.7281494c0,0.2033081,0.059082,0.3590088,0.1797485,0.4760742   c0.1135254,0.109314,0.2837524,0.187561,0.536438,0.2460327c0.6207275,0.1436768,0.7483521,0.3268433,0.7485352,0.5574951   c0,0.3074951-0.2906494,0.5576782-0.6483765,0.5576782H9.7512207c-0.1858521,0-0.3634644-0.0708008-0.4869995-0.1937866   c-0.1049194-0.1044312-0.1624146-0.2384644-0.1624146-0.3773804H8.8453979c0,0.2074585,0.0847778,0.4058228,0.2377319,0.5584717   c0.1714478,0.1712036,0.4147949,0.2687378,0.6679077,0.2687378H9.75354c0.239624,0,0.465332-0.0827637,0.635437-0.2333984   c0.173584-0.1538086,0.2692261-0.3599243,0.2692261-0.5805054C10.6569824,11.9893188,10.1785889,11.8087158,9.7111816,11.7007446z" fill="#303C42"/><path d="M12.7696533,11.6710815h-0.0072021c-0.1661987-0.2584229-0.4528198-0.3894653-0.7540283-0.3894653   c-0.569519,0-1.0408936,0.4318848-1.0408936,1.0125732c0,0.5838623,0.4605103,1.0197144,1.0408936,1.0197144   c0.3012085,0,0.5878296-0.1309814,0.7540283-0.3857422h0.0072021v1.1222534h0.2479858v-2.7192993h-0.2479858V11.6710815z    M12.0084229,13.0908813c-0.453125,0-0.7926636-0.3327637-0.7926636-0.7860718   c0-0.4568481,0.3323364-0.8001099,0.7926636-0.8001099c0.4393311,0,0.7755127,0.364502,0.7755127,0.7963257   C12.7839355,12.7330322,12.4477539,13.0908813,12.0084229,13.0908813z" fill="#303C42"/><path d="M17.3352661,11.6709595H17.328064c-0.1663208-0.2618408-0.4495239-0.3895874-0.7541504-0.3895874   c-0.5700684,0-1.0407715,0.4321289-1.0407715,1.0128174c0,0.5840454,0.4605103,1.0193481,1.0407715,1.0193481   c0.3010254,0,0.5840454-0.1309814,0.7541504-0.3855591h0.0072021v0.3397827h0.2475586v-1.9365234h-0.2475586V11.6709595z    M16.5739136,13.0908813c-0.4528809,0-0.7927246-0.3330078-0.7927246-0.7860718   c0-0.4568481,0.3327637-0.8001099,0.7927246-0.8001099c0.4390869,0,0.7752075,0.364502,0.7752075,0.7963257   C17.3491211,12.7330322,17.0130005,13.0908813,16.5739136,13.0908813z" fill="#303C42"/><path d="M18.3322144,11.6107178h-0.0065918v-0.2797241h-0.2481689v1.9369507h0.2481689v-1.1331177   c0-0.3469849,0.2121582-0.5629272,0.552002-0.5911255v-0.2622681   C18.6262207,11.2991333,18.4387207,11.362915,18.3322144,11.6107178z" fill="#303C42"/><path d="M19.9837036,11.2813721c-0.5558472,0-1.0055542,0.4675903-1.0055542,1.0196533   c0,0.5560303,0.449707,1.0125122,1.0089722,1.0125122c0.4285889,0,0.8109131-0.276062,0.9520874-0.6795654h-0.2615967   c-0.1062622,0.2868042-0.3966675,0.4569092-0.6939087,0.4569092c-0.3789063,0-0.7331543-0.3187256-0.7509766-0.7010498h1.7630615   C20.9957886,12.3648071,21,12.3435059,21,12.3190308C21,11.7595215,20.550293,11.2813721,19.9837036,11.2813721z    M19.2327271,12.166626c0.0603638-0.3788452,0.3682251-0.6620483,0.7543945-0.6620483   c0.3894653,0,0.6937256,0.2832031,0.7575073,0.6620483H19.2327271z" fill="#303C42"/><path d="M14.9262695,12.3526001c0,0.227417-0.0316772,0.4199219-0.2025757,0.5831909   c-0.1210938,0.1138916-0.2492676,0.1567993-0.4126587,0.1567993c-0.4447632,0-0.5905151-0.2954102-0.5905151-0.6974487v-1.0706787   h-0.2489014v1.0745239c0,0.2167969,0.0319824,0.4515991,0.1704712,0.6260376   c0.1602783,0.2026367,0.4162598,0.2915649,0.6689453,0.2915649c0.2562256,0,0.508728-0.1102905,0.6226807-0.348938h0.007019   v0.3026123h0.2348022v-1.9458008h-0.2492676V12.3526001z" fill="#303C42"/><path d="M7,9.5H4c-0.5517578,0-1,0.4487305-1,1v3c0,0.5512695,0.4482422,1,1,1h3c0.5517578,0,1-0.4487305,1-1v-3   C8,9.9487305,7.5517578,9.5,7,9.5z M7,14v-0.5H4v-3h3v3h0.0009766L7,14z" fill="#303C42"/><path d="M5.8529663,11.5H5.1470337C5.0658569,11.5,5,11.5657959,5,11.6470337v0.7058716   C5,12.4341431,5.0658569,12.5,5.1470337,12.5h0.7059326C5.9341431,12.5,6,12.4341431,6,12.3529053v-0.7058716   C6,11.5657959,5.9341431,11.5,5.8529663,11.5z" fill="#303C42"/><path d="M22,4h-0.5v13.5c0,0.5512695-0.4487305,1-1,1H1V19c0,0.5512695,0.4487305,1,1,1h20   c0.5512695,0,1-0.4487305,1-1V5C23,4.4487305,22.5512695,4,22,4z" fill="#010101" opacity="0.1"/><linearGradient gradientUnits="userSpaceOnUse" id="SVGID_1_" x1="-0.7076151" x2="24.7076149" y1="6.0743418" y2="17.9256592"><stop offset="0" style="stop-color:#FFFFFF;stop-opacity:0.2"/><stop offset="1" style="stop-color:#FFFFFF;stop-opacity:0"/></linearGradient><path d="M22,3H2C0.8974609,3,0,3.8969727,0,5v14c0,1.1030273,0.8974609,2,2,2h20   c1.1025391,0,2-0.8969727,2-2V5C24,3.8969727,23.1025391,3,22,3z" fill="url(#SVGID_1_)"/></g><g/><g/><g/><g/><g/><g/><g/><g/><g/><g/><g/><g/><g/><g/><g/></svg>