<?xml version="1.0" ?><svg enable-background="new 0 0 24 24" id="Layer_1" version="1.1" viewBox="0 0 24 24" xml:space="preserve" xmlns="http://www.w3.org/2000/svg" xmlns:xlink="http://www.w3.org/1999/xlink"><g><path d="M22,3H2C0.8974609,3,0,3.8969727,0,5v14c0,1.1030273,0.8974609,2,2,2h20c1.1025391,0,2-0.8969727,2-2V5   C24,3.8969727,23.1025391,3,22,3z" fill="#303C42"/><path d="M23,19c0,0.5512695-0.4482422,1-1,1H2c-0.5517578,0-1-0.4487305-1-1V5c0-0.5512695,0.4482422-1,1-1h20   c0.5517578,0,1,0.4487305,1,1V19z" fill="#989898"/><path d="M5.8834229,8.5003052c-1.8681641,0-3.5921631,1.678833-3.850769,3.7498169   C1.7741089,14.321167,3.0788574,16,4.9470215,16c1.868103,0,3.5921631-1.678833,3.850769-3.7498779   C9.0563354,10.1791382,7.7515869,8.5003052,5.8834229,8.5003052z M7.1397095,12.9541016c0,0-0.1625366,1.1722412-1.0625,1.4150391   c-0.447937,0.163208-1.0339355,0.1255493-1.0339355,0.1255493s-1.3730469,0.0042725-1.486084-1.0841675   c0-0.4897461,0.078064-0.7478027,0.078064-0.7478027l0.4630127-2.1914673c0,0,0.0054321-0.0872192,0.065918-0.0872192   s0.468811,0,0.468811,0h0.2971802c0,0,0.2386475,0.0008545,0.182373,0.2674561   c-0.0563965,0.2667236-0.4885254,2.3118286-0.4885254,2.3118286s-0.1534424,0.6104736,0.4971313,0.6690063   c0.6504517,0.0586548,0.9039307-0.3627319,1.0592651-1.0979004c0.1553345-0.7350464,0.442627-2.0947876,0.442627-2.0947876   s0.0006714-0.055603,0.0569458-0.055603c0.0562134,0,0.7659912,0,0.7659912,0s0.2340088,0.0131836,0.1821899,0.2581787   C7.576416,10.8873291,7.1397095,12.9541016,7.1397095,12.9541016z" fill="#D32E2E"/><path d="M11.2762451,13.008667c0,0,1.5404663-1.3980713,1.593811-1.4483032   c0.0534058-0.0502319,0-0.0753784,0-0.0753784h-1.1040649l-1.0071411,0.9924316c0,0,0.2973633-1.4073486,0.3673096-1.7383423   c0.0698853-0.3309326-0.2350464-0.3550415-0.2350464-0.3550415s-0.5507202,0-0.6069946,0   c-0.0562134,0-0.0600586,0.0741577-0.0600586,0.0741577s-0.7868042,3.7237549-0.8140259,3.852356   c-0.0271606,0.1286621,0.0337524,0.1025391,0.0337524,0.1025391s0.4599609,0,0.6969604,0   c0.2370605,0,0.2744751-0.3092651,0.2744751-0.3092651l0.1442871-0.6829224c0,0,0.5984497,0.9074097,0.6361084,0.9608154   c0.0376587,0.0533447,0.0512695,0.0376587,0.0512695,0.0376587s0.8581543,0,0.9321899,0   c0.0739746,0,0.0390015-0.071167,0.0390015-0.071167L11.2762451,13.008667z" fill="#303C42"/><path d="M14.8875732,11.4428711c-0.4760132-0.0939331-0.9169312-0.0302734-0.9169312-0.0302734   s-0.7018433,0.0493774-0.9467163,0.5244751c-0.1316528,0.2453613-0.1576538,0.3682251-0.1576538,0.3682251   s-0.0272217,0.0974731,0.0275269,0.0974731s0.8186646,0,0.8186646,0s0.0480347,0.0038452,0.0665283-0.083252   c0.0184326-0.0870972,0.1323853-0.2736206,0.3144531-0.2861938c0.1821289-0.0125732,0.1988525-0.0145874,0.1988525-0.0145874   s0.4786987-0.0244751,0.4067383,0.3161621c-0.0719604,0.3405762-0.3815918,0.3283691-0.5742188,0.336792   c-0.1925659,0.0083618-1.0307617,0.0106201-1.4153442,0.3757324c-0.1815796,0.1517334-0.2255859,0.4238281-0.2255859,0.4238281   s-0.0752563,0.4981689,0.1486816,0.7346802s0.4553223,0.2887573,0.6867676,0.2887573   c0.2315063,0,0.7272949,0.0372925,1.0018921-0.3716431c-0.046936,0.2221069-0.052002,0.2461548-0.052002,0.2461548   s-0.0146484,0.0544434,0.0292969,0.0523071c0.0440063-0.0020752,0.6237793,0,0.6237793,0s0.223877,0.0084229,0.3096924-0.295105   c0.0858765-0.3034668,0.3181763-1.3012695,0.3181763-1.3012695s0.0754395-0.4862061,0.0774536-0.7498779   C15.6296997,11.8115234,15.3614502,11.5368042,14.8875732,11.4428711z M14.1939087,13.7998047   c-0.3453369,0.2427979-0.7769165,0.071167-0.7683105-0.2050781c0.0085449-0.2763062,0.2366333-0.3495483,0.437561-0.387207   s0.5722046-0.0258179,0.6785278-0.1280518C14.541687,13.0794678,14.5120239,13.5654297,14.1939087,13.7998047z" fill="#303C42"/><path d="M18.147583,11.5267944c-0.3432617-0.1610718-0.9941406-0.1109009-0.9941406-0.1109009   s-0.5504761,0.0480957-0.8497925,0.3076782c-0.2741699,0.2427368-0.2859497,0.4957886-0.2859497,0.4957886   s-0.0426025,0.2017822,0.0264282,0.4481812c0.1360474,0.3913574,0.5963745,0.4834595,0.5963745,0.4834595   s0.5150146,0.1256104,0.7327271,0.2092896s0.1611328,0.3201904,0.0585327,0.4102173   c-0.1025391,0.0900269-0.3829956,0.1506958-0.5964966,0.0648804c-0.213501-0.0857544-0.223938-0.2658081-0.2302246-0.3264771   s-0.0462036-0.0618896-0.0462036-0.0618896h-0.8005371c-0.0283203,0-0.036499,0.034668-0.0344238,0.0507202   c0.0334473,0.8364868,0.753479,0.9530029,0.753479,0.9530029s0.234436,0.071106,0.8456421,0.0439453   c0.5734863-0.0836792,0.7608032-0.2077026,0.9395752-0.3883667c0.178833-0.1807251,0.2450562-0.6079102,0.1906128-0.9020386   c-0.0543823-0.2941284-0.3013916-0.4949341-0.8623047-0.6037598c-0.5609741-0.1088867-0.6216431-0.2197876-0.6257935-0.3200684   s0.0753174-0.2827148,0.4122925-0.28479c0.3369751-0.0021973,0.37677,0.2072144,0.3829956,0.28479   c0.0062866,0.0776367,0.0460815,0.0689087,0.0460815,0.0689087l0.7890625,0.0042114c0,0,0.0374146-0.000061,0.0335083-0.0335083   C18.645813,11.97052,18.4909058,11.6879883,18.147583,11.5267944z" fill="#303C42"/><path d="M21.2130127,11.4084473c-0.77948-0.0408936-1.0682983,0.4356689-1.0682983,0.4356689   s0.1863403-0.8815918,0.2472534-1.1700439s-0.1734009-0.2900391-0.1734009-0.2900391s-0.6530151,0-0.6906738,0   s-0.043396,0.0357056-0.043396,0.0357056s-0.8092651,3.8297729-0.8286133,3.9212646   c-0.0192871,0.0914917,0.0337524,0.069397,0.0337524,0.069397s0.4898071,0.0026855,0.6907349,0   s0.2849731-0.2975464,0.2849731-0.2975464s0.2590942-1.2264404,0.2915649-1.3796387   c0.0324097-0.1531982,0.1706543-0.5931396,0.6496582-0.5994263s0.3325195,0.5710449,0.3325195,0.5710449   s-0.3168945,1.4996948-0.3399048,1.6085815c-0.0230713,0.1088867,0.0212402,0.0965576,0.0212402,0.0965576s0.5180664,0,0.7127075,0   s0.2792969-0.2756958,0.2792969-0.2756958s0.3253174-1.5396729,0.3738403-1.7692871   C22.0348511,12.135376,21.9924316,11.4494019,21.2130127,11.4084473z" fill="#303C42"/><path d="M22,4h-0.5v13.5c0,0.5512695-0.4487305,1-1,1H1V19c0,0.5512695,0.4487305,1,1,1h20   c0.5512695,0,1-0.4487305,1-1V5C23,4.4487305,22.5512695,4,22,4z" fill="#010101" opacity="0.1"/><linearGradient gradientUnits="userSpaceOnUse" id="SVGID_1_" x1="-0.7076151" x2="24.7076149" y1="6.0743418" y2="17.9256592"><stop offset="0" style="stop-color:#FFFFFF;stop-opacity:0.2"/><stop offset="1" style="stop-color:#FFFFFF;stop-opacity:0"/></linearGradient><path d="M22,3H2C0.8974609,3,0,3.8969727,0,5v14c0,1.1030273,0.8974609,2,2,2h20   c1.1025391,0,2-0.8969727,2-2V5C24,3.8969727,23.1025391,3,22,3z" fill="url(#SVGID_1_)"/></g><g/><g/><g/><g/><g/><g/><g/><g/><g/><g/><g/><g/><g/><g/><g/></svg>