<?xml version="1.0" ?><svg enable-background="new 0 0 24 24" id="Layer_1" version="1.1" viewBox="0 0 24 24" xml:space="preserve" xmlns="http://www.w3.org/2000/svg" xmlns:xlink="http://www.w3.org/1999/xlink"><g><path d="M22,3H2C0.8969727,3,0,3.8969727,0,5v14c0,1.1030273,0.8969727,2,2,2h20c1.1030273,0,2-0.8969727,2-2V5   C24,3.8969727,23.1030273,3,22,3z" fill="#303C42"/><path d="M2,4h20c0.5512695,0,1,0.4487305,1,1v9.0224609H1V5C1,4.4487305,1.4487305,4,2,4z" fill="#3D82C4"/><path d="M22,20H2c-0.5512695,0-1-0.4487305-1-1v-3.9775391h22V19C23,19.5512695,22.5512695,20,22,20z" fill="#FCB316"/><path d="M14.8910522,11.6013794c0.024292,0.0344238,0.0657349,0.0551758,0.1103516,0.0551758h0.9448853   c0.0547485,0,0.1037598-0.03125,0.12323-0.0784912c0.1161499-0.2825928,0.1906738-0.4627686,0.215271-0.5209351   c0.0626831,0,0.3529053,0.0003662,0.6640625,0.0007935h0.0175781c0.357605,0.0003662,0.7374878,0.0007935,0.8284302,0.0007935   c0.0267944,0.105957,0.0933228,0.3865356,0.1207886,0.5021362c0.0131836,0.0558472,0.0667725,0.0955811,0.1286621,0.0955811   h0.8240356c0.039856,0,0.0776367-0.0167236,0.1026001-0.0454102s0.0345459-0.0662842,0.026001-0.1022339L18.100769,7.7630615   c-0.0133667-0.0556641-0.0667114-0.0952759-0.1286011-0.0952759h-0.8049927c-0.3219604,0-0.5067139,0.098999-0.6176147,0.3310547   l-1.6686401,3.4869995C14.862915,11.5235596,14.8667603,11.5668945,14.8910522,11.6013794z M17.2510376,8.7437134   l0.0797119,0.3447876l0.2728882,1.1518555h-0.9795532L17.2510376,8.7437134z" fill="#303C42"/><path d="M9.6544189,11.6117554c0.0250244,0.0273438,0.0618286,0.0431519,0.100647,0.0431519h0.9116211   c0.064209,0,0.1190796-0.0427246,0.1298218-0.1011353l0.692749-3.7481079   c0.0064697-0.0352783-0.0041504-0.0714722-0.0291748-0.0987549c-0.0250244-0.0273438-0.0618286-0.0431519-0.100647-0.0431519   h-0.9122925c-0.0641479,0-0.1190186,0.0427246-0.1297607,0.1010742l-0.6920776,3.7481079   C9.6187744,11.5482178,9.6294556,11.5844727,9.6544189,11.6117554z" fill="#303C42"/><path d="M11.6836548,11.4732056c0.3109131,0.1005859,0.7450562,0.163147,1.1613159,0.1672974h0.0014648   c1.1935425-0.0002441,1.9702148-0.5162964,1.9787598-1.3148193c0.0045166-0.4390869-0.2990112-0.7711792-0.9516602-1.0435791   c-0.3994751-0.1790771-0.6442871-0.2979736-0.6419678-0.4800415c0-0.1637573,0.2238159-0.3294678,0.6538086-0.3294678   C13.8956909,8.4724121,13.90802,8.47229,13.920105,8.47229c0.3570557,0,0.6092529,0.074707,0.7678223,0.1309204   c0.0369263,0.0130005,0.078125,0.0101929,0.1124268-0.0079346c0.0343018-0.0180054,0.0580444-0.0491943,0.0646973-0.0852051   l0.1065674-0.5782471c0.0109863-0.0596313-0.0272827-0.1176147-0.0897217-0.1361084   c-0.1959229-0.0578003-0.5128174-0.126709-0.909668-0.126709c-1.125,0-1.9151001,0.5221558-1.9213867,1.2693481   c-0.0070801,0.5532227,0.5648804,0.8618774,0.9960327,1.0460205c0.4421997,0.1881714,0.5907593,0.3085938,0.5887451,0.4771729   c-0.0031128,0.2580566-0.3544922,0.3756104-0.6796875,0.3756104c-0.4628296,0-0.7122803-0.0643921-1.0651245-0.1998291   c-0.0370483-0.0142212-0.0790405-0.012085-0.1141357,0.0058594c-0.0351563,0.0177002-0.0595093,0.0493774-0.0662842,0.0858765   l-0.1129761,0.6088867C11.5865479,11.3964233,11.6229858,11.4536133,11.6836548,11.4732056z" fill="#303C42"/><path d="M6.012146,8.5269165C5.9668579,8.494751,5.90448,8.4932251,5.8574829,8.5229492   C5.8104858,8.5526123,5.7894897,8.6068726,5.805481,8.6573486l0.9222412,2.9072266   c0.0164185,0.0518188,0.0678711,0.0874023,0.1264038,0.0874023H6.854248l1.0620728-0.0014038   c0.0525513,0,0.0999756-0.0289917,0.1207886-0.0734863l1.7432861-3.7405396   c0.0175171-0.0375366,0.0133667-0.0807495-0.0109863-0.1148682S9.7037354,7.6669922,9.6594238,7.6669922H9.6593018   L8.7003174,7.6674194c-0.0541382,0-0.1027832,0.0307007-0.1225586,0.0772705l-1.1219482,2.6443481L7.335144,9.986084   c-0.0015259-0.0053711-0.00354-0.0106812-0.0060425-0.0157471C7.1520386,9.5910645,6.6761475,8.9976807,6.012146,8.5269165z" fill="#303C42"/><path d="M5.0870972,7.8922729c0.7544556,0.2505493,1.371521,0.6480713,1.784668,1.1495972   C6.8972778,9.072876,6.9364624,9.0898438,6.9766235,9.0898438c0.0184937,0,0.0371704-0.003479,0.0547485-0.0109253   c0.0560303-0.0236206,0.086792-0.0800781,0.0740967-0.1356812L6.8859253,7.9855347   C6.885437,7.9834595,6.8849487,7.9814453,6.8843384,7.9794312C6.8054199,7.7058716,6.555481,7.6652222,6.3743896,7.6584473   c-0.001709,0-0.003479-0.000061-0.005127-0.000061L5.131958,7.6565552H5.1317139   c-0.0639038,0-0.1186523,0.0424194-0.1296997,0.1005249S5.0267944,7.8723145,5.0870972,7.8922729z" fill="#303C42"/><polygon fill="#303C42" points="4.6793213,18.9327393 6.4401245,18.9327393 6.4401245,18.3954468 5.3469849,18.3954468    5.3429565,17.8991699 6.4512939,17.8991699 6.4512939,17.3842163 5.3467407,17.3842163 5.354187,16.8879395 6.4624634,16.8879395    6.4624634,16.3505859 4.678772,16.3505859  "/><rect fill="#303C42" height="2.7985849" width="0.649292" x="6.9115601" y="16.1341553"/><path d="M8.9573975,16.9849243c-0.5858765,0-1.0112915,0.4814453-1.0112915,1.048584   C7.946106,18.5148926,8.2558594,19,8.9387207,19c0.2985229,0,0.6343994-0.0932617,0.8545532-0.2798462l-0.2164307-0.3768921   c-0.175415,0.1193848-0.3022461,0.1865234-0.5299072,0.1865234c-0.3582153,0-0.4515381-0.2462158-0.4515381-0.3918457h1.3023682   C9.8977661,17.4923706,9.6738892,16.9849243,8.9573975,16.9849243z M8.6029053,17.7573853   c0.0410767-0.1865845,0.1978149-0.3694458,0.4030151-0.3694458c0.2164307,0,0.3096924,0.175415,0.3096924,0.3694458H8.6029053z" fill="#303C42"/><path d="M11.2859497,18.4849854c-0.276123,0-0.4851074-0.2125854-0.4851074-0.4812622   c0-0.3097534,0.2164307-0.5037842,0.5410767-0.5037842c0.1044922,0,0.2089844,0.0335083,0.3059692,0.0745239l0.2089844-0.425415   c-0.1455078-0.0932007-0.4141846-0.1641235-0.6380615-0.1641235c-0.6419067,0-1.0672607,0.4179688-1.0672607,1.0523071   C10.1515503,18.6566772,10.5806274,19,11.1777954,19c0.2163696,0,0.5111694-0.0820923,0.6903076-0.1940308l-0.2313843-0.4291382   C11.5322266,18.4290771,11.4090576,18.4849854,11.2859497,18.4849854z" fill="#303C42"/><path d="M13.1677856,18.4626465c-0.1454468,0-0.1865234-0.0784302-0.1865234-0.2425537   C12.9812622,18.0596313,13,17.7835693,13,17.5222778h0.5334473l0.0114136-0.4700928h-0.5336914l0.0148926-0.6381226h-0.6268921   l0.0022583,0.6381226h-0.293335l-0.0148926,0.4700928h0.2797852c0,0.250061-0.0185547,0.4814453-0.0185547,0.7127686   C12.3544312,18.6678467,12.3804932,19,12.9066162,19c0.2202759,0,0.4515381-0.0708618,0.6419067-0.1866455l-0.1417847-0.4403076   C13.3321533,18.4177856,13.2575073,18.4626465,13.1677856,18.4626465z" fill="#303C42"/><path d="M14.5337524,17.3170776h-0.0073242v-0.2648926h-0.6494141l-0.0148315,1.8805542h0.6491699   l0.0111694-1.0858154c0-0.0373535,0.1680298-0.2200928,0.3843994-0.2200928c0.0970459,0,0.1680298,0.0186157,0.2314453,0.0372314   l0.0858765-0.6417847c-0.0673218-0.0149536-0.1419678-0.0223999-0.2127686-0.0223999   C14.7576294,16.9998779,14.6307373,17.1566162,14.5337524,17.3170776z" fill="#303C42"/><path d="M16.4002075,16.9849243c-0.6939697,0-1.0523071,0.4403687-1.0523071,1.0075073   C15.3479004,18.5596313,15.7062378,19,16.4002075,19c0.6941528,0,1.0523071-0.4403687,1.0523071-1.0075684   C17.4525146,17.425293,17.0943604,16.9849243,16.4002075,16.9849243z M16.4002075,18.5073853   c-0.3095703,0-0.4028931-0.2686768-0.4028931-0.5149536c0-0.2462158,0.0933228-0.5148926,0.4028931-0.5148926   c0.3097534,0,0.4030762,0.2686768,0.4030762,0.5148926C16.8032837,18.2387085,16.7099609,18.5073853,16.4002075,18.5073853z" fill="#303C42"/><path d="M19.0631104,16.9849243c-0.2314453,0-0.4590454,0.1269531-0.6083374,0.2724609v-0.2052002H17.805603   l-0.0150757,1.8805542h0.6608276l0.003418-1.2164307c0.0858765-0.0820313,0.2351685-0.1716309,0.3396606-0.1716309   c0.1940308,0,0.2351074,0.1193848,0.2351074,0.2723999c0,0.3880615-0.0038452,0.7537842-0.0075073,1.1156616h0.649231   c0.0038452-0.4141846,0.0075073-0.8283691,0.0075073-1.2126465C19.678772,17.2051392,19.4624023,16.9849243,19.0631104,16.9849243z   " fill="#303C42"/><path d="M23,14V5c0-0.5512695-0.4487305-1-1-1h-0.5v10H23z" fill="#010101" opacity="0.1"/><path d="M21.5,15v2.5c0,0.5512695-0.4487305,1-1,1H1V19c0,0.5512695,0.4487305,1,1,1h20   c0.5512695,0,1-0.4487305,1-1v-4H21.5z" fill="#010101" opacity="0.1"/><linearGradient gradientUnits="userSpaceOnUse" id="SVGID_1_" x1="-0.7076802" x2="24.7076797" y1="6.0743113" y2="17.9256878"><stop offset="0" style="stop-color:#FFFFFF;stop-opacity:0.2"/><stop offset="1" style="stop-color:#FFFFFF;stop-opacity:0"/></linearGradient><path d="M22,3H2C0.8969727,3,0,3.8969727,0,5v14c0,1.1030273,0.8969727,2,2,2h20   c1.1030273,0,2-0.8969727,2-2V5C24,3.8969727,23.1030273,3,22,3z" fill="url(#SVGID_1_)"/></g><g/><g/><g/><g/><g/><g/><g/><g/><g/><g/><g/><g/><g/><g/><g/></svg>