<?xml version="1.0" ?><svg data-name="Layer 1" id="Layer_1" viewBox="0 0 32 32" xmlns="http://www.w3.org/2000/svg"><defs><style>.cls-1{fill:#f9dcc4;}.cls-2{fill:#fff2e9;}.cls-3{fill:#edbe9d;}.cls-4{fill:#3d405b;}</style></defs><path class="cls-1" d="M23.5,2h-12a.47.47,0,0,0-.35.15l-5,5A.47.47,0,0,0,6,7.5v20A2.5,2.5,0,0,0,8.5,30h15A2.5,2.5,0,0,0,26,27.5V4.5A2.5,2.5,0,0,0,23.5,2Z"/><path class="cls-2" d="M15,2h7a1,1,0,0,1,0,2H15a1,1,0,0,1,0-2Z"/><path class="cls-2" d="M6,13.5v-2a1,1,0,0,1,2,0v2a1,1,0,0,1-2,0Z"/><path class="cls-2" d="M6,24.5v-8a1,1,0,0,1,2,0v8a1,1,0,0,1-2,0Z"/><path class="cls-3" d="M24,20v4a4,4,0,0,1-4,4H11a1,1,0,0,0-1,1h0a1,1,0,0,0,1,1H23.5A2.5,2.5,0,0,0,26,27.5V20a1,1,0,0,0-1-1h0A1,1,0,0,0,24,20Z"/><path class="cls-3" d="M11.69,2a.47.47,0,0,0-.54.11l-5,5A.47.47,0,0,0,6,7.69.5.5,0,0,0,6.5,8h3A2.5,2.5,0,0,0,12,5.5v-3A.5.5,0,0,0,11.69,2Z"/><path class="cls-4" d="M23.5,2h-12a.41.41,0,0,0-.19,0,.36.36,0,0,0-.16.11l-5,5A.36.36,0,0,0,6,7.31.41.41,0,0,0,6,7.5v20A2.5,2.5,0,0,0,8.5,30h15A2.5,2.5,0,0,0,26,27.5V4.5A2.5,2.5,0,0,0,23.5,2ZM11,3.71V5.5A1.5,1.5,0,0,1,9.5,7H7.71ZM25,27.5A1.5,1.5,0,0,1,23.5,29H8.5A1.5,1.5,0,0,1,7,27.5V8H9.5A2.5,2.5,0,0,0,12,5.5V3H23.5A1.5,1.5,0,0,1,25,4.5Z"/><path class="cls-4" d="M21.5,11.4a1.2,1.2,0,0,1-.81-.3,2.12,2.12,0,0,0-1.39-.5,2.15,2.15,0,0,0-1.4.5,1.23,1.23,0,0,1-1.61,0,2.12,2.12,0,0,0-1.39-.5,2.15,2.15,0,0,0-1.4.5,1.17,1.17,0,0,1-.8.3,1.2,1.2,0,0,1-.81-.3,2.12,2.12,0,0,0-1.39-.5.5.5,0,0,0,0,1,1.15,1.15,0,0,1,.8.3,2.12,2.12,0,0,0,1.4.5,2.07,2.07,0,0,0,1.39-.5,1.23,1.23,0,0,1,1.61,0,2.2,2.2,0,0,0,2.79,0,1.18,1.18,0,0,1,.81-.3,1.15,1.15,0,0,1,.8.3,2.12,2.12,0,0,0,1.4.5.5.5,0,0,0,0-1Z"/><path class="cls-4" d="M21.5,16.4a1.2,1.2,0,0,1-.81-.3,2.12,2.12,0,0,0-1.39-.5,2.15,2.15,0,0,0-1.4.5,1.23,1.23,0,0,1-1.61,0,2.12,2.12,0,0,0-1.39-.5,2.15,2.15,0,0,0-1.4.5,1.17,1.17,0,0,1-.8.3,1.2,1.2,0,0,1-.81-.3,2.12,2.12,0,0,0-1.39-.5.5.5,0,0,0,0,1,1.15,1.15,0,0,1,.8.3,2.12,2.12,0,0,0,1.4.5,2.07,2.07,0,0,0,1.39-.5,1.23,1.23,0,0,1,1.61,0,2.2,2.2,0,0,0,2.79,0,1.18,1.18,0,0,1,.81-.3,1.15,1.15,0,0,1,.8.3,2.12,2.12,0,0,0,1.4.5.5.5,0,0,0,0-1Z"/><path class="cls-4" d="M21.5,21.4a1.2,1.2,0,0,1-.81-.3,2.12,2.12,0,0,0-1.39-.5,2.15,2.15,0,0,0-1.4.5,1.23,1.23,0,0,1-1.61,0,2.12,2.12,0,0,0-1.39-.5,2.15,2.15,0,0,0-1.4.5,1.17,1.17,0,0,1-.8.3,1.2,1.2,0,0,1-.81-.3,2.12,2.12,0,0,0-1.39-.5.5.5,0,0,0,0,1,1.15,1.15,0,0,1,.8.3,2.12,2.12,0,0,0,1.4.5,2.07,2.07,0,0,0,1.39-.5,1.23,1.23,0,0,1,1.61,0,2.2,2.2,0,0,0,2.79,0,1.18,1.18,0,0,1,.81-.3,1.15,1.15,0,0,1,.8.3,2.12,2.12,0,0,0,1.4.5.5.5,0,0,0,0-1Z"/></svg>