<?xml version="1.0" ?><svg data-name="Layer 1" id="Layer_1" viewBox="0 0 32 32" xmlns="http://www.w3.org/2000/svg"><defs><style>.cls-1{fill:#f9dcc4;}.cls-2{fill:#ef6461;}.cls-3{fill:#db5252;}.cls-4{fill:#3d405b;}.cls-5{fill:#ef877f;}.cls-6{fill:#edbe9d;}.cls-7{fill:#fff2e9;}</style></defs><rect class="cls-1" height="28" rx="2.5" width="20" x="6" y="2"/><path class="cls-2" d="M26.5,25H5.5a.5.5,0,0,0-.5.5v2A2.5,2.5,0,0,0,7.5,30h17A2.5,2.5,0,0,0,27,27.5v-2A.5.5,0,0,0,26.5,25Z"/><path class="cls-3" d="M17,30H8a1,1,0,0,1,0-2h9a1,1,0,0,1,0,2Z"/><path class="cls-4" d="M12.5,21h-3a.52.52,0,0,1-.41-.21A.48.48,0,0,1,9,20.34L11.81,12H9.5a.5.5,0,0,1,0-1h3a.52.52,0,0,1,.41.21.48.48,0,0,1,.06.45L10.19,20H12.5a.5.5,0,0,1,0,1Z"/><path class="cls-4" d="M16,21a.5.5,0,0,1-.5-.5v-9a.5.5,0,0,1,1,0v9A.5.5,0,0,1,16,21Z"/><path class="cls-4" d="M19.5,21a.5.5,0,0,1-.5-.5v-9a.5.5,0,0,1,.5-.5h2A1.5,1.5,0,0,1,23,12.5v3A1.5,1.5,0,0,1,21.5,17H20v3.5A.5.5,0,0,1,19.5,21Zm.5-5h1.5a.5.5,0,0,0,.5-.5v-3a.5.5,0,0,0-.5-.5H20Z"/><path class="cls-2" d="M24.5,2H7.5A2.5,2.5,0,0,0,5,4.5v2a.5.5,0,0,0,.5.5h21a.5.5,0,0,0,.5-.5v-2A2.5,2.5,0,0,0,24.5,2Z"/><path class="cls-4" d="M18.5,6h-2a.5.5,0,0,0,0,1h2a.5.5,0,0,0,0-1Z"/><path class="cls-4" d="M22.5,6h-2a.5.5,0,0,0,0,1h2a.5.5,0,0,0,0-1Z"/><path class="cls-4" d="M11,6.5a.5.5,0,0,0-.5-.5h-2a.5.5,0,0,0,0,1h2A.5.5,0,0,0,11,6.5Z"/><path class="cls-4" d="M14.5,6h-2a.5.5,0,0,0,0,1h2a.5.5,0,0,0,0-1Z"/><path class="cls-5" d="M18,4H9A1,1,0,0,1,9,2h9a1,1,0,0,1,0,2Z"/><path class="cls-5" d="M24,4H22a1,1,0,0,1,0-2h2a1,1,0,0,1,0,2Z"/><path class="cls-6" d="M24,16v4a4,4,0,0,1-4,4H11a1,1,0,0,0-1,1h0a1,1,0,0,0,1,1H23.5A2.5,2.5,0,0,0,26,23.5V16a1,1,0,0,0-1-1h0A1,1,0,0,0,24,16Z"/><path class="cls-7" d="M6,11V9A1,1,0,0,1,8,9v2a1,1,0,0,1-2,0Z"/><path class="cls-4" d="M26.5,7a.5.5,0,0,0,.5-.5v-2A2.5,2.5,0,0,0,24.5,2H7.5A2.5,2.5,0,0,0,5,4.5v2a.5.5,0,0,0,.5.5H6V25H5.5a.5.5,0,0,0-.5.5v2A2.5,2.5,0,0,0,7.5,30h17A2.5,2.5,0,0,0,27,27.5v-2a.5.5,0,0,0-.5-.5H26V7ZM26,27.5A1.5,1.5,0,0,1,24.5,29H7.5A1.5,1.5,0,0,1,6,27.5V26H26ZM25,25H7V6.5A.5.5,0,0,0,6.5,6H6V4.5A1.5,1.5,0,0,1,7.5,3h17A1.5,1.5,0,0,1,26,4.5V6H24.5a.5.5,0,0,0,0,1H25Z"/></svg>