<?xml version="1.0" ?><!DOCTYPE svg  PUBLIC '-//W3C//DTD SVG 1.1//EN'  'http://www.w3.org/Graphics/SVG/1.1/DTD/svg11.dtd'><svg height="140px" id="Layer_1" style="enable-background:new 0 0 140 140;" version="1.1" viewBox="0 0 140 140" width="140px" xml:space="preserve" xmlns="http://www.w3.org/2000/svg" xmlns:xlink="http://www.w3.org/1999/xlink"><style type="text/css">
<![CDATA[
	.st0{fill:#47BBF4;}
	.st1{fill:#7BEA06;}
	.st2{fill:#49E500;}
	.st3{fill:#7ED1B5;}
	.st4{fill:#1083DD;}
	.st5{fill:#7FBA0D;}
	.st6{fill:#E01726;}
	.st7{fill:#129AFF;}
	.st8{fill:#E2102E;}
	.st9{fill:#E2137A;}
	.st10{fill:#E2573B;}
	.st11{fill:#E2A60E;}
	.st12{fill:#E3443A;}
	.st13{fill:#1558BA;}
	.st14{fill:#159B81;}
	.st15{fill:#1644B7;}
	.st16{fill:#168BF4;}
	.st17{fill:#E51F32;}
	.st18{fill:#E6EFE8;}
	.st19{fill:#187FB8;}
	.st20{fill:#4C5054;}
	.st21{fill:#4C822A;}
	.st22{fill:#E8F9F8;}
	.st23{fill:#4F5459;}
	.st24{fill:#4FCCED;}
	.st25{fill:#B0C6C4;}
	.st26{fill:none;stroke:#33363A;stroke-width:3;stroke-linecap:round;stroke-linejoin:round;stroke-miterlimit:10;}
	.st27{fill:#859392;}
	.st28{fill:#1A68E5;}
	.st29{fill:#1A70F9;}
	.st30{fill:#1B8EED;}
	.st31{fill:#EA4606;}
	.st32{fill:#EA7B0C;}
	.st33{fill:#EAF4F9;}
	.st34{fill:#B70E10;}
	.st35{fill:#1CB1E6;}
	.st36{fill:#1CDDF7;}
	.st37{fill:#EDC211;}
	.st38{fill:#EF8114;}
	.st39{fill:#55932C;}
	.st40{fill:#569FEF;}
	.st41{fill:#BA30CE;}
	.st42{fill:#BA3A3A;}
	.st43{fill:#8CF41E;}
	.st44{fill:#59C96E;}
	.st45{fill:#8E0919;}
	.st46{fill:#20B5EC;}
	.st47{fill:#21CE52;}
	.st48{fill:#21D844;}
	.st49{fill:#F17250;}
	.st50{fill:#2364CE;}
	.st51{fill:#F2303F;}
	.st52{fill:#F24444;}
	.st53{fill:#F26B95;}
	.st54{fill:#F2A775;}
	.st55{fill:#2463FF;}
	.st56{fill:#24A9E6;}
	.st57{fill:#24AEF0;}
	.st58{fill:#F34B78;}
	.st59{fill:#25D600;}
	.st60{fill:#25D800;}
	.st61{fill:#F46300;}
	.st62{fill:#F4921E;}
	.st63{fill:#F4F1E6;}
	.st64{fill:#F72B2B;}
	.st65{fill:#F7441C;}
	.st66{fill:#F7851E;}
	.st67{fill:#5CAA4F;}
	.st68{fill:#F7A56D;}
	.st69{fill:#F7B257;}
	.st70{fill:#F7B92B;}
	.st71{fill:#F8571D;}
	.st72{fill:#F91D80;}
	.st73{fill:#F92E64;}
	.st74{fill:#F93838;}
	.st75{fill:#F9A121;}
	.st76{fill:#F9BD28;}
	.st77{fill:#F9D5AA;}
	.st78{fill:#5FB2A2;}
	.st79{fill:#9165B7;}
	.st80{fill:#95C675;}
	.st81{fill:#2A98F2;}
	.st82{fill:#2AC106;}
	.st83{fill:#C6232C;}
	.st84{fill:#C6402A;}
	.st85{fill:#FA7B7A;}
	.st86{fill:#FA9826;}
	.st87{fill:#2CC64D;}
	.st88{fill:#FB6620;}
	.st89{fill:#C7D5E0;}
	.st90{fill:#C8131A;}
	.st91{fill:#2DB487;}
	.st92{fill:#FC732D;}
	.st93{fill:#C8D8E8;}
	.st94{fill:#2ED3FF;}
	.st95{fill:#FF0DA9;}
	.st96{fill:#FF4743;}
	.st97{fill:#FF6155;}
	.st98{fill:#FF7639;}
	.st99{fill:#FF7676;}
	.st100{fill:#FF88AD;}
	.st101{fill:#FF9064;}
	.st102{fill:#FFA506;}
	.st103{fill:#FFBE8D;}
	.st104{fill:#FFEB5A;}
	.st105{fill:#FFF19C;}
	.st106{fill:#FFFDF5;}
	.st107{fill:#FFFFFF;}
	.st108{fill:#63C605;}
	.st109{fill:#64C0FF;}
	.st110{fill:#66A00A;}
	.st111{fill:#CAFFE9;}
	.st112{fill:#680719;}
	.st113{fill:none;stroke:#FCE2AE;stroke-width:3;stroke-linecap:round;stroke-linejoin:round;stroke-miterlimit:10;}
	.st114{fill:#CC2414;}
	.st115{fill:#CC4521;}
	.st116{fill:#9DEACE;}
	.st117{fill:#303030;}
	.st118{fill:#CE1721;}
	.st119{fill:#33363A;}
	.st120{fill:#337BD1;}
	.st121{fill:#6A7C7C;}
	.st122{fill:#37D660;}
	.st123{fill:#384948;}
	.st124{fill:#38B4F9;}
	.st125{fill:#6CA9EA;}
	.st126{fill:#6D8599;}
	.st127{fill:#0097E2;}
	.st128{fill:#00997C;}
	.st129{fill:#00A4DD;}
	.st130{fill:#0399FF;}
	.st131{fill:#D33F26;}
	.st132{fill:#0695ED;}
	.st133{fill:#0779EA;}
	.st134{fill:#079332;}
	.st135{fill:#D6381E;}
	.st136{fill:#3BAA00;}
	.st137{fill:#D6E5EA;}
	.st138{fill:#D6E7EA;}
	.st139{fill:#08A548;}
	.st140{fill:#08BC26;}
	.st141{fill:#D80B0B;}
	.st142{fill:#D8532B;}
	.st143{fill:#3DC8F9;}
	.st144{fill:#3E77BF;}
	.st145{fill:#3E8AF7;}
	.st146{fill:#D9E5ED;}
	.st147{fill:#72818E;}
	.st148{fill:#0A78DD;}
	.st149{fill:#0A8CDD;}
	.st150{fill:#A52D21;}
	.st151{fill:#76CEFF;}
	.st152{fill:#76DB00;}
	.st153{fill:#0C86EA;}
	.st154{fill:#DB0F4E;}
	.st155{fill:#A7B7B6;}
	.st156{fill:#0DBA5B;}
	.st157{fill:#79B259;}
	.st158{fill:#0E73D8;}
	.st159{fill:#0E78D8;}
	.st160{fill:#0E8971;}
	.st161{fill:#A981D3;}
	.st162{fill:#DD4B4B;}
	.st163{fill:#4087ED;}
	.st164{fill:#40A557;}
	.st165{fill:#40E269;}
	.st166{fill:#DFC7FF;}
	.st167{fill:#DFEFEF;}
	.st168{fill:#44FCB6;}
]]>
</style><g><g><path class="st119" d="M104.805,82.516c-0.071-0.139-0.141-0.274-0.222-0.408c-2.985-3.812-5.979-7.078-5.979-14.418V43.213    c0-10.332,0.821-19.853-6.788-26.916c-6.249-5.702-16.041-7.885-23.653-7.885h-3.265C51.043,9.217,36.37,15.204,33.092,32.336    c-0.539,2.182,1.099,2.994,2.182,3.263l15.226,1.904c1.629-0.274,2.448-1.638,2.718-2.985c1.353-5.983,6.249-8.977,11.681-9.526    h1.092c3.267,0,6.8,1.361,8.699,4.086c2.172,3.259,1.903,7.616,1.903,11.428v2.172c-3.534,0.268-7.617,0.536-11.694,1.072    c-6.25,0.827-12.5,1.913-17.66,4.362c-10.059,4.08-16.856,12.782-16.856,25.556c0,3.287,0.452,6.224,1.253,8.849    c3.109,10.186,11.744,15.359,22.131,15.359c4.346,0,7.877-0.553,11.133-1.356c5.176-1.637,9.514-4.628,14.679-10.071    c2.99,4.079,3.815,5.992,8.974,10.341c1.363,0.534,2.722,0.534,3.802-0.27c3.267-2.725,8.98-7.622,11.966-10.336    C105.543,85.2,105.44,83.777,104.805,82.516z M64.897,56.262c3.531-0.812,7.619-1.085,11.694-1.085v3.266    c0,6.253,0.269,11.146-2.99,16.587c-1.904,3.803-5.173,6.253-8.704,7.078c-0.536,0-1.355,0.27-2.175,0.27    c-5.973,0-9.506-4.624-9.506-11.421C53.217,62.248,58.376,58.176,64.897,56.262z"/><path class="st26" d="M104.805,82.516c-0.071-0.139-0.141-0.274-0.222-0.408c-2.985-3.812-5.979-7.078-5.979-14.418V43.213    c0-10.332,0.821-19.853-6.788-26.916c-6.249-5.702-16.041-7.885-23.653-7.885h-3.265C51.043,9.217,36.37,15.204,33.092,32.336    c-0.539,2.182,1.099,2.994,2.182,3.263l15.226,1.904c1.629-0.274,2.448-1.638,2.718-2.985c1.353-5.983,6.249-8.977,11.681-9.526    h1.092c3.267,0,6.8,1.361,8.699,4.086c2.172,3.259,1.903,7.616,1.903,11.428v2.172c-3.534,0.268-7.617,0.536-11.694,1.072    c-6.25,0.827-12.5,1.913-17.66,4.362c-10.059,4.08-16.856,12.782-16.856,25.556c0,3.287,0.452,6.224,1.253,8.849    c3.109,10.186,11.744,15.359,22.131,15.359c4.346,0,7.877-0.553,11.133-1.356c5.176-1.637,9.514-4.628,14.679-10.071    c2.99,4.079,3.815,5.992,8.974,10.341c1.363,0.534,2.722,0.534,3.802-0.27c3.267-2.725,8.98-7.622,11.966-10.336    C105.543,85.2,105.44,83.777,104.805,82.516z M64.897,56.262c3.531-0.812,7.619-1.085,11.694-1.085v3.266    c0,6.253,0.269,11.146-2.99,16.587c-1.904,3.803-5.173,6.253-8.704,7.078c-0.536,0-1.355,0.27-2.175,0.27    c-5.973,0-9.506-4.624-9.506-11.421C53.217,62.248,58.376,58.176,64.897,56.262z"/><path class="st86" d="M67.851,119.069c-0.469,0.015-0.95,0.015-1.406,0.015c-12.39,0.008-23.38-3.522-33.863-8.378H17.546v-7.772    c-1.473-0.814-2.944-1.632-4.417-2.45c-0.579-0.303-1.181-0.463-1.762-0.463c-0.744,0-1.513,0.281-2.069,0.803    c-0.561,0.529-0.893,1.291-0.885,2.067c-0.008,1.005,0.536,1.932,1.299,2.534c15.603,13.561,32.713,26.15,55.721,26.163    c0.445,0,0.904-0.013,1.361-0.021c14.635-0.327,31.182-5.275,44.032-13.349l0.078-0.049c1.681-1.007,3.362-2.153,4.946-3.421    c0.987-0.73,1.666-1.875,1.666-3.063c-0.006-0.349-0.077-0.673-0.172-0.979h-10.644C93.815,115.799,80.343,118.799,67.851,119.069    z"/><path class="st32" d="M117.345,110.706h-10.644c-12.886,5.094-29.192,14.381-41.688,14.649c-0.47,0.016-0.947,0.016-1.406,0.016    c-12.39,0.007-20.543-2.11-31.026-6.968l-12.584-6.444c-2.305-0.851-4.612-2.042-6.835-3.582    c14.69,12.376,30.943,23.2,52.271,23.211c0.445,0,0.904-0.013,1.361-0.021c14.635-0.327,31.182-5.275,44.032-13.349l0.078-0.049    c1.681-1.007,3.362-2.153,4.946-3.421c0.987-0.73,1.666-1.875,1.666-3.063C117.511,111.336,117.439,111.012,117.345,110.706z"/><path class="st32" d="M118.603,103.809c1.103-0.008,2.093,0.072,2.776,0.215c0.338,0.074,0.593,0.162,0.727,0.233    c0.056,0.015,0.091,0.036,0.112,0.052c0.028,0.094,0.072,0.34,0.066,0.682c0.014,1.303-0.535,3.724-1.3,6.086    c-0.736,2.36-1.638,4.73-2.229,6.305c-0.146,0.359-0.239,0.759-0.239,1.194c-0.013,0.63,0.246,1.398,0.8,1.905    c0.535,0.506,1.228,0.709,1.807,0.709h0.031c0.87-0.006,1.609-0.354,2.244-0.855c6.01-5.405,8.106-14.041,8.189-18.903    l-0.011-0.774v-0.008c-0.061-1.281-0.329-2.261-0.863-3.07l-0.058-0.081l-0.063-0.079c-0.546-0.596-1.066-0.819-1.632-1.066    c-1.688-0.651-4.143-0.999-7.097-1.007c-1.195,0-2.464,0.075-3.766,0.224v8.249C118.265,103.816,118.44,103.809,118.603,103.809z"/><path class="st86" d="M113.751,108.149c-0.613-0.008-1.246,0.139-1.832,0.412c-0.66,0.26-1.333,0.564-1.97,0.833l-0.937,0.394    l-1.214,0.484v0.014c-0.362,0.148-0.73,0.277-1.098,0.42h10.644C116.862,109.152,115.364,108.149,113.751,108.149z"/><path class="st86" d="M32.581,110.706c-5.096-2.361-10.074-5.033-15.035-7.772v7.772H32.581z"/><path class="st86" d="M115.04,95.903l-2.367,0.79l-0.042,0.022l-1.344,0.435v0.058c-1.568,0.652-2.997,1.464-4.32,2.427    c-0.827,0.616-1.511,1.436-1.543,2.69c-0.022,0.68,0.322,1.463,0.896,1.926c0.572,0.465,1.24,0.623,1.825,0.623    c0.14,0,0.271-0.005,0.386-0.029l0.117-0.008l0.084-0.015c1.16-0.244,2.846-0.411,4.824-0.688c1.519-0.17,3.108-0.29,4.542-0.316    v-8.249c-0.999,0.114-2.025,0.269-3.05,0.494L115.04,95.903z"/><g><path class="st26" d="M131.576,100.657v-0.008c-0.061-1.281-0.329-2.261-0.863-3.07l-0.058-0.081l-0.063-0.079     c-0.546-0.596-1.066-0.819-1.632-1.066c-1.688-0.651-4.143-0.999-7.097-1.007c-1.195,0-2.464,0.075-3.766,0.224     c-0.999,0.114-2.025,0.269-3.05,0.494l-0.008-0.16l-2.367,0.79l-0.042,0.022l-1.344,0.435v0.058     c-1.568,0.652-2.997,1.464-4.32,2.427c-0.827,0.616-1.511,1.436-1.543,2.69c-0.022,0.68,0.322,1.463,0.896,1.926     c0.572,0.465,1.24,0.623,1.825,0.623c0.14,0,0.271-0.005,0.386-0.029l0.117-0.008l0.084-0.015     c1.16-0.244,2.846-0.411,4.824-0.688c1.519-0.17,3.108-0.29,4.542-0.316c0.167-0.002,0.343-0.009,0.505-0.009     c1.103-0.008,2.093,0.072,2.776,0.215c0.338,0.074,0.593,0.162,0.727,0.233c0.056,0.015,0.091,0.036,0.112,0.052     c0.028,0.094,0.072,0.34,0.066,0.682c0.014,1.303-0.535,3.724-1.3,6.086c-0.736,2.36-1.638,4.73-2.229,6.305     c-0.146,0.359-0.239,0.759-0.239,1.194c-0.013,0.63,0.246,1.398,0.8,1.905c0.535,0.506,1.228,0.709,1.807,0.709h0.031     c0.87-0.006,1.609-0.354,2.244-0.855c6.01-5.405,8.106-14.041,8.189-18.903L131.576,100.657z"/><path class="st26" d="M113.751,108.149c-0.613-0.008-1.246,0.139-1.832,0.412c-0.66,0.26-1.333,0.564-1.97,0.833l-0.937,0.394     l-1.214,0.484v0.014c-0.362,0.148-0.73,0.277-1.098,0.42c-12.886,5.094-26.358,8.094-38.851,8.363     c-0.469,0.015-0.95,0.015-1.406,0.015c-12.39,0.008-23.38-3.522-33.863-8.378c-5.096-2.361-10.074-5.033-15.035-7.772     c-1.473-0.814-2.944-1.632-4.417-2.45c-0.579-0.303-1.181-0.463-1.762-0.463c-0.744,0-1.513,0.281-2.069,0.803     c-0.561,0.529-0.893,1.291-0.885,2.067c-0.008,1.005,0.536,1.932,1.299,2.534c15.603,13.561,32.713,26.15,55.721,26.163     c0.445,0,0.904-0.013,1.361-0.021c14.635-0.327,31.182-5.275,44.032-13.349l0.078-0.049c1.681-1.007,3.362-2.153,4.946-3.421     c0.987-0.73,1.666-1.875,1.666-3.063c-0.006-0.349-0.077-0.673-0.172-0.979C116.862,109.152,115.364,108.149,113.751,108.149z"/></g></g></g></svg>