<?xml version="1.0" ?><!DOCTYPE svg  PUBLIC '-//W3C//DTD SVG 1.1//EN'  'http://www.w3.org/Graphics/SVG/1.1/DTD/svg11.dtd'><svg height="140px" id="Layer_1" style="enable-background:new 0 0 140 140;" version="1.1" viewBox="0 0 140 140" width="140px" xml:space="preserve" xmlns="http://www.w3.org/2000/svg" xmlns:xlink="http://www.w3.org/1999/xlink"><style type="text/css">
<![CDATA[
	.st0{fill:#47BBF4;}
	.st1{fill:#7BEA06;}
	.st2{fill:#49E500;}
	.st3{fill:#7ED1B5;}
	.st4{fill:#1083DD;}
	.st5{fill:#7FBA0D;}
	.st6{fill:#E01726;}
	.st7{fill:#129AFF;}
	.st8{fill:#E2102E;}
	.st9{fill:#E2137A;}
	.st10{fill:#E2573B;}
	.st11{fill:#E2A60E;}
	.st12{fill:#E3443A;}
	.st13{fill:#1558BA;}
	.st14{fill:#159B81;}
	.st15{fill:#1644B7;}
	.st16{fill:#168BF4;}
	.st17{fill:#E51F32;}
	.st18{fill:#E6EFE8;}
	.st19{fill:#187FB8;}
	.st20{fill:#4C5054;}
	.st21{fill:#4C822A;}
	.st22{fill:#E8F9F8;}
	.st23{fill:#4F5459;}
	.st24{fill:#4FCCED;}
	.st25{fill:#B0C6C4;}
	.st26{fill:none;stroke:#33363A;stroke-width:3;stroke-linecap:round;stroke-linejoin:round;stroke-miterlimit:10;}
	.st27{fill:#859392;}
	.st28{fill:#1A68E5;}
	.st29{fill:#1A70F9;}
	.st30{fill:#1B8EED;}
	.st31{fill:#EA4606;}
	.st32{fill:#EA7B0C;}
	.st33{fill:#EAF4F9;}
	.st34{fill:#B70E10;}
	.st35{fill:#1CB1E6;}
	.st36{fill:#1CDDF7;}
	.st37{fill:#EDC211;}
	.st38{fill:#EF8114;}
	.st39{fill:#55932C;}
	.st40{fill:#569FEF;}
	.st41{fill:#BA30CE;}
	.st42{fill:#BA3A3A;}
	.st43{fill:#8CF41E;}
	.st44{fill:#59C96E;}
	.st45{fill:#8E0919;}
	.st46{fill:#20B5EC;}
	.st47{fill:#21CE52;}
	.st48{fill:#21D844;}
	.st49{fill:#F17250;}
	.st50{fill:#2364CE;}
	.st51{fill:#F2303F;}
	.st52{fill:#F24444;}
	.st53{fill:#F26B95;}
	.st54{fill:#F2A775;}
	.st55{fill:#2463FF;}
	.st56{fill:#24A9E6;}
	.st57{fill:#24AEF0;}
	.st58{fill:#F34B78;}
	.st59{fill:#25D600;}
	.st60{fill:#25D800;}
	.st61{fill:#F46300;}
	.st62{fill:#F4921E;}
	.st63{fill:#F4F1E6;}
	.st64{fill:#F72B2B;}
	.st65{fill:#F7441C;}
	.st66{fill:#F7851E;}
	.st67{fill:#5CAA4F;}
	.st68{fill:#F7A56D;}
	.st69{fill:#F7B257;}
	.st70{fill:#F7B92B;}
	.st71{fill:#F8571D;}
	.st72{fill:#F91D80;}
	.st73{fill:#F92E64;}
	.st74{fill:#F93838;}
	.st75{fill:#F9A121;}
	.st76{fill:#F9BD28;}
	.st77{fill:#F9D5AA;}
	.st78{fill:#5FB2A2;}
	.st79{fill:#9165B7;}
	.st80{fill:#95C675;}
	.st81{fill:#2A98F2;}
	.st82{fill:#2AC106;}
	.st83{fill:#C6232C;}
	.st84{fill:#C6402A;}
	.st85{fill:#FA7B7A;}
	.st86{fill:#FA9826;}
	.st87{fill:#2CC64D;}
	.st88{fill:#FB6620;}
	.st89{fill:#C7D5E0;}
	.st90{fill:#C8131A;}
	.st91{fill:#2DB487;}
	.st92{fill:#FC732D;}
	.st93{fill:#C8D8E8;}
	.st94{fill:#2ED3FF;}
	.st95{fill:#FF0DA9;}
	.st96{fill:#FF4743;}
	.st97{fill:#FF6155;}
	.st98{fill:#FF7639;}
	.st99{fill:#FF7676;}
	.st100{fill:#FF88AD;}
	.st101{fill:#FF9064;}
	.st102{fill:#FFA506;}
	.st103{fill:#FFBE8D;}
	.st104{fill:#FFEB5A;}
	.st105{fill:#FFF19C;}
	.st106{fill:#FFFDF5;}
	.st107{fill:#FFFFFF;}
	.st108{fill:#63C605;}
	.st109{fill:#64C0FF;}
	.st110{fill:#66A00A;}
	.st111{fill:#CAFFE9;}
	.st112{fill:#680719;}
	.st113{fill:none;stroke:#FCE2AE;stroke-width:3;stroke-linecap:round;stroke-linejoin:round;stroke-miterlimit:10;}
	.st114{fill:#CC2414;}
	.st115{fill:#CC4521;}
	.st116{fill:#9DEACE;}
	.st117{fill:#303030;}
	.st118{fill:#CE1721;}
	.st119{fill:#33363A;}
	.st120{fill:#337BD1;}
	.st121{fill:#6A7C7C;}
	.st122{fill:#37D660;}
	.st123{fill:#384948;}
	.st124{fill:#38B4F9;}
	.st125{fill:#6CA9EA;}
	.st126{fill:#6D8599;}
	.st127{fill:#0097E2;}
	.st128{fill:#00997C;}
	.st129{fill:#00A4DD;}
	.st130{fill:#0399FF;}
	.st131{fill:#D33F26;}
	.st132{fill:#0695ED;}
	.st133{fill:#0779EA;}
	.st134{fill:#079332;}
	.st135{fill:#D6381E;}
	.st136{fill:#3BAA00;}
	.st137{fill:#D6E5EA;}
	.st138{fill:#D6E7EA;}
	.st139{fill:#08A548;}
	.st140{fill:#08BC26;}
	.st141{fill:#D80B0B;}
	.st142{fill:#D8532B;}
	.st143{fill:#3DC8F9;}
	.st144{fill:#3E77BF;}
	.st145{fill:#3E8AF7;}
	.st146{fill:#D9E5ED;}
	.st147{fill:#72818E;}
	.st148{fill:#0A78DD;}
	.st149{fill:#0A8CDD;}
	.st150{fill:#A52D21;}
	.st151{fill:#76CEFF;}
	.st152{fill:#76DB00;}
	.st153{fill:#0C86EA;}
	.st154{fill:#DB0F4E;}
	.st155{fill:#A7B7B6;}
	.st156{fill:#0DBA5B;}
	.st157{fill:#79B259;}
	.st158{fill:#0E73D8;}
	.st159{fill:#0E78D8;}
	.st160{fill:#0E8971;}
	.st161{fill:#A981D3;}
	.st162{fill:#DD4B4B;}
	.st163{fill:#4087ED;}
	.st164{fill:#40A557;}
	.st165{fill:#40E269;}
	.st166{fill:#DFC7FF;}
	.st167{fill:#DFEFEF;}
	.st168{fill:#44FCB6;}
]]>
</style><g><g><g><path class="st47" d="M62.383,93.789c-0.078,10.188-4.024,18.758-11.453,25.706c-0.387,0.361-0.765,0.738-1.143,1.107     c-3.845,2.961-8.012,5.3-12.732,6.581c-2.008,0.547-4.056,0.86-6.103,1.161c-1.583,0.235-2.613-0.648-3.205-2.082     c0.009-4.42,0.013-8.836,0.017-13.256c0.078-1.301-0.441-2.695,0.593-3.841c0.515-0.568,1.099-0.959,1.884-1.156     c2.304-0.582,4.643-1.048,6.742-2.307c3.861-2.315,6.27-5.66,7.334-10.016c0.167-0.687,0.326-1.378,0.485-2.068     c-9.283-0.018-18.562-0.034-27.836-0.043c-0.802-0.005-1.595-0.033-2.381-0.249c-2.36-0.657-4.171-2.824-4.18-5.274     c-0.013-14.089,0.013-28.18,0.025-42.271c-0.198-2.249,0-4.36,1.884-5.97c1.021-0.869,2.15-1.394,3.498-1.394     c13.643-0.004,27.284,0.003,40.928-0.009c3.609-0.006,5.643,1.125,5.643,7.373C62.383,46.82,62.499,78.439,62.383,93.789z"/><path class="st156" d="M27.758,126.285c0.593,1.419,1.619,2.294,3.194,2.06c2.047-0.301,4.095-0.614,6.103-1.161     c4.721-1.281,8.888-3.62,12.732-6.581c0.378-0.369,0.756-0.746,1.143-1.107c7.429-6.948,11.375-15.518,11.453-25.706     c0.032-4.137,0.046-9.458,0.051-15.042c-0.01-12.409-0.051-23.864-0.051-24.482c0-6.249-2.033-7.379-5.643-7.374     c-13.644,0.013-27.285,0.004-40.928,0.009c-1.348,0-2.477,0.525-3.498,1.395c-1.234,1.055-1.738,2.327-1.887,3.71     c-0.002,0.727-0.002,1.453-0.002,2.179c0.003,0.027,0.003,0.053,0.005,0.081c-0.011,11.28-0.02,22.561-0.021,33.841     c0.035,2.429,1.832,4.568,4.175,5.221c0.786,0.216,1.579,0.244,2.381,0.249c9.274,0.009,18.553,0.025,27.836,0.043     c-0.159,0.69-0.318,1.382-0.485,2.068c-0.603,2.465-1.651,4.595-3.135,6.409c1.207,0.002,2.412,0.003,3.62,0.006     c-0.159,0.69-0.318,1.382-0.485,2.068c-1.064,4.356-3.473,7.701-7.334,10.016c-2.1,1.259-4.438,1.725-6.742,2.307     c-0.785,0.197-1.369,0.588-1.884,1.156c-0.361,0.4-0.526,0.832-0.6,1.278c-0.001,0.593-0.001,1.186-0.003,1.779     c0.016,0.263,0.024,0.525,0.01,0.784C27.763,123.089,27.759,124.687,27.758,126.285z"/><path class="st26" d="M62.383,93.789c-0.078,10.188-4.024,18.758-11.453,25.706c-0.387,0.361-0.765,0.738-1.143,1.107     c-3.845,2.961-8.012,5.3-12.732,6.581c-2.008,0.547-4.056,0.86-6.103,1.161c-1.583,0.235-2.613-0.648-3.205-2.082     c0.009-4.42,0.013-8.836,0.017-13.256c0.078-1.301-0.441-2.695,0.593-3.841c0.515-0.568,1.099-0.959,1.884-1.156     c2.304-0.582,4.643-1.048,6.742-2.307c3.861-2.315,6.27-5.66,7.334-10.016c0.167-0.687,0.326-1.378,0.485-2.068     c-9.283-0.018-18.562-0.034-27.836-0.043c-0.802-0.005-1.595-0.033-2.381-0.249c-2.36-0.657-4.171-2.824-4.18-5.274     c-0.013-14.089,0.013-28.18,0.025-42.271c-0.198-2.249,0-4.36,1.884-5.97c1.021-0.869,2.15-1.394,3.498-1.394     c13.643-0.004,27.284,0.003,40.928-0.009c3.609-0.006,5.643,1.125,5.643,7.373C62.383,46.82,62.499,78.439,62.383,93.789z"/><path class="st26" d="M50.763,93.618c-9.282-0.018-18.562-0.034-27.836-0.043"/></g><g><path class="st47" d="M129.579,93.789c-0.078,10.188-4.024,18.758-11.454,25.706c-0.387,0.361-0.764,0.738-1.142,1.107     c-3.845,2.961-8.012,5.3-12.732,6.581c-2.008,0.547-4.056,0.86-6.103,1.161c-1.583,0.235-2.614-0.648-3.205-2.082     c0.008-4.42,0.013-8.836,0.017-13.256c0.078-1.301-0.441-2.695,0.592-3.841c0.515-0.568,1.1-0.959,1.885-1.156     c2.304-0.582,4.643-1.048,6.742-2.307c3.861-2.315,6.27-5.66,7.333-10.016c0.168-0.687,0.326-1.378,0.485-2.068     c-9.282-0.018-18.561-0.034-27.835-0.043c-0.802-0.005-1.595-0.033-2.381-0.249c-2.36-0.657-4.172-2.824-4.18-5.274     c-0.013-14.089,0.013-28.18,0.025-42.271c-0.198-2.249,0-4.36,1.884-5.97c1.021-0.869,2.15-1.394,3.498-1.394     c13.643-0.004,27.284,0.003,40.928-0.009c3.609-0.006,5.643,1.125,5.643,7.373C129.579,46.82,129.694,78.439,129.579,93.789z"/><path class="st156" d="M94.954,126.285c0.592,1.419,1.619,2.294,3.194,2.06c2.047-0.301,4.095-0.614,6.103-1.161     c4.721-1.281,8.888-3.62,12.732-6.581c0.378-0.369,0.755-0.746,1.142-1.107c7.43-6.948,11.376-15.518,11.454-25.706     c0.031-4.137,0.046-9.458,0.051-15.042c-0.01-12.409-0.051-23.864-0.051-24.482c0-6.249-2.033-7.379-5.643-7.374     c-13.644,0.013-27.285,0.004-40.928,0.009c-1.348,0-2.477,0.525-3.498,1.395c-1.234,1.055-1.738,2.327-1.887,3.71     c-0.002,0.727-0.002,1.453-0.002,2.179c0.002,0.027,0.002,0.053,0.005,0.081c-0.011,11.28-0.02,22.561-0.021,33.841     c0.034,2.429,1.832,4.568,4.175,5.221c0.786,0.216,1.579,0.244,2.381,0.249c9.274,0.009,18.553,0.025,27.835,0.043     c-0.159,0.69-0.317,1.382-0.485,2.068c-0.602,2.465-1.65,4.595-3.134,6.409c1.207,0.002,2.412,0.003,3.619,0.006     c-0.159,0.69-0.317,1.382-0.485,2.068c-1.063,4.356-3.472,7.701-7.333,10.016c-2.1,1.259-4.438,1.725-6.742,2.307     c-0.785,0.197-1.37,0.588-1.885,1.156c-0.36,0.4-0.525,0.832-0.6,1.278c-0.001,0.593-0.001,1.186-0.002,1.779     c0.016,0.263,0.024,0.525,0.01,0.784C94.958,123.089,94.955,124.687,94.954,126.285z"/><path class="st26" d="M129.579,93.789c-0.078,10.188-4.024,18.758-11.454,25.706c-0.387,0.361-0.764,0.738-1.142,1.107     c-3.845,2.961-8.012,5.3-12.732,6.581c-2.008,0.547-4.056,0.86-6.103,1.161c-1.583,0.235-2.614-0.648-3.205-2.082     c0.008-4.42,0.013-8.836,0.017-13.256c0.078-1.301-0.441-2.695,0.592-3.841c0.515-0.568,1.1-0.959,1.885-1.156     c2.304-0.582,4.643-1.048,6.742-2.307c3.861-2.315,6.27-5.66,7.333-10.016c0.168-0.687,0.326-1.378,0.485-2.068     c-9.282-0.018-18.561-0.034-27.835-0.043c-0.802-0.005-1.595-0.033-2.381-0.249c-2.36-0.657-4.172-2.824-4.18-5.274     c-0.013-14.089,0.013-28.18,0.025-42.271c-0.198-2.249,0-4.36,1.884-5.97c1.021-0.869,2.15-1.394,3.498-1.394     c13.643-0.004,27.284,0.003,40.928-0.009c3.609-0.006,5.643,1.125,5.643,7.373C129.579,46.82,129.694,78.439,129.579,93.789z"/><path class="st26" d="M117.958,93.618c-9.283-0.018-18.562-0.034-27.836-0.043"/></g></g><g><g><line class="st26" x1="70.001" x2="69.999" y1="21.276" y2="18.231"/><line class="st26" x1="70.001" x2="69.999" y1="11.617" y2="11.758"/></g><g><g><line class="st26" x1="46.426" x2="44.275" y1="26.132" y2="23.983"/><line class="st26" x1="39.594" x2="39.696" y1="19.303" y2="19.404"/></g><g><line class="st26" x1="93.572" x2="95.725" y1="26.135" y2="23.979"/><line class="st26" x1="100.405" x2="100.304" y1="19.303" y2="19.402"/></g></g></g></g></svg>