<?xml version="1.0" ?><!DOCTYPE svg  PUBLIC '-//W3C//DTD SVG 1.1//EN'  'http://www.w3.org/Graphics/SVG/1.1/DTD/svg11.dtd'><svg height="140px" id="Layer_1" style="enable-background:new 0 0 140 140;" version="1.1" viewBox="0 0 140 140" width="140px" xml:space="preserve" xmlns="http://www.w3.org/2000/svg" xmlns:xlink="http://www.w3.org/1999/xlink"><style type="text/css">
<![CDATA[
	.st0{fill:#47BBF4;}
	.st1{fill:#7BEA06;}
	.st2{fill:#49E500;}
	.st3{fill:#7ED1B5;}
	.st4{fill:#1083DD;}
	.st5{fill:#7FBA0D;}
	.st6{fill:#E01726;}
	.st7{fill:#129AFF;}
	.st8{fill:#E2102E;}
	.st9{fill:#E2137A;}
	.st10{fill:#E2573B;}
	.st11{fill:#E2A60E;}
	.st12{fill:#E3443A;}
	.st13{fill:#1558BA;}
	.st14{fill:#159B81;}
	.st15{fill:#1644B7;}
	.st16{fill:#168BF4;}
	.st17{fill:#E51F32;}
	.st18{fill:#E6EFE8;}
	.st19{fill:#187FB8;}
	.st20{fill:#4C5054;}
	.st21{fill:#4C822A;}
	.st22{fill:#E8F9F8;}
	.st23{fill:#4F5459;}
	.st24{fill:#4FCCED;}
	.st25{fill:#B0C6C4;}
	.st26{fill:none;stroke:#33363A;stroke-width:3;stroke-linecap:round;stroke-linejoin:round;stroke-miterlimit:10;}
	.st27{fill:#859392;}
	.st28{fill:#1A68E5;}
	.st29{fill:#1A70F9;}
	.st30{fill:#1B8EED;}
	.st31{fill:#EA4606;}
	.st32{fill:#EA7B0C;}
	.st33{fill:#EAF4F9;}
	.st34{fill:#B70E10;}
	.st35{fill:#1CB1E6;}
	.st36{fill:#1CDDF7;}
	.st37{fill:#EDC211;}
	.st38{fill:#EF8114;}
	.st39{fill:#55932C;}
	.st40{fill:#569FEF;}
	.st41{fill:#BA30CE;}
	.st42{fill:#BA3A3A;}
	.st43{fill:#8CF41E;}
	.st44{fill:#59C96E;}
	.st45{fill:#8E0919;}
	.st46{fill:#20B5EC;}
	.st47{fill:#21CE52;}
	.st48{fill:#21D844;}
	.st49{fill:#F17250;}
	.st50{fill:#2364CE;}
	.st51{fill:#F2303F;}
	.st52{fill:#F24444;}
	.st53{fill:#F26B95;}
	.st54{fill:#F2A775;}
	.st55{fill:#2463FF;}
	.st56{fill:#24A9E6;}
	.st57{fill:#24AEF0;}
	.st58{fill:#F34B78;}
	.st59{fill:#25D600;}
	.st60{fill:#25D800;}
	.st61{fill:#F46300;}
	.st62{fill:#F4921E;}
	.st63{fill:#F4F1E6;}
	.st64{fill:#F72B2B;}
	.st65{fill:#F7441C;}
	.st66{fill:#F7851E;}
	.st67{fill:#5CAA4F;}
	.st68{fill:#F7A56D;}
	.st69{fill:#F7B257;}
	.st70{fill:#F7B92B;}
	.st71{fill:#F8571D;}
	.st72{fill:#F91D80;}
	.st73{fill:#F92E64;}
	.st74{fill:#F93838;}
	.st75{fill:#F9A121;}
	.st76{fill:#F9BD28;}
	.st77{fill:#F9D5AA;}
	.st78{fill:#5FB2A2;}
	.st79{fill:#9165B7;}
	.st80{fill:#95C675;}
	.st81{fill:#2A98F2;}
	.st82{fill:#2AC106;}
	.st83{fill:#C6232C;}
	.st84{fill:#C6402A;}
	.st85{fill:#FA7B7A;}
	.st86{fill:#FA9826;}
	.st87{fill:#2CC64D;}
	.st88{fill:#FB6620;}
	.st89{fill:#C7D5E0;}
	.st90{fill:#C8131A;}
	.st91{fill:#2DB487;}
	.st92{fill:#FC732D;}
	.st93{fill:#C8D8E8;}
	.st94{fill:#2ED3FF;}
	.st95{fill:#FF0DA9;}
	.st96{fill:#FF4743;}
	.st97{fill:#FF6155;}
	.st98{fill:#FF7639;}
	.st99{fill:#FF7676;}
	.st100{fill:#FF88AD;}
	.st101{fill:#FF9064;}
	.st102{fill:#FFA506;}
	.st103{fill:#FFBE8D;}
	.st104{fill:#FFEB5A;}
	.st105{fill:#FFF19C;}
	.st106{fill:#FFFDF5;}
	.st107{fill:#FFFFFF;}
	.st108{fill:#63C605;}
	.st109{fill:#64C0FF;}
	.st110{fill:#66A00A;}
	.st111{fill:#CAFFE9;}
	.st112{fill:#680719;}
	.st113{fill:none;stroke:#FCE2AE;stroke-width:3;stroke-linecap:round;stroke-linejoin:round;stroke-miterlimit:10;}
	.st114{fill:#CC2414;}
	.st115{fill:#CC4521;}
	.st116{fill:#9DEACE;}
	.st117{fill:#303030;}
	.st118{fill:#CE1721;}
	.st119{fill:#33363A;}
	.st120{fill:#337BD1;}
	.st121{fill:#6A7C7C;}
	.st122{fill:#37D660;}
	.st123{fill:#384948;}
	.st124{fill:#38B4F9;}
	.st125{fill:#6CA9EA;}
	.st126{fill:#6D8599;}
	.st127{fill:#0097E2;}
	.st128{fill:#00997C;}
	.st129{fill:#00A4DD;}
	.st130{fill:#0399FF;}
	.st131{fill:#D33F26;}
	.st132{fill:#0695ED;}
	.st133{fill:#0779EA;}
	.st134{fill:#079332;}
	.st135{fill:#D6381E;}
	.st136{fill:#3BAA00;}
	.st137{fill:#D6E5EA;}
	.st138{fill:#D6E7EA;}
	.st139{fill:#08A548;}
	.st140{fill:#08BC26;}
	.st141{fill:#D80B0B;}
	.st142{fill:#D8532B;}
	.st143{fill:#3DC8F9;}
	.st144{fill:#3E77BF;}
	.st145{fill:#3E8AF7;}
	.st146{fill:#D9E5ED;}
	.st147{fill:#72818E;}
	.st148{fill:#0A78DD;}
	.st149{fill:#0A8CDD;}
	.st150{fill:#A52D21;}
	.st151{fill:#76CEFF;}
	.st152{fill:#76DB00;}
	.st153{fill:#0C86EA;}
	.st154{fill:#DB0F4E;}
	.st155{fill:#A7B7B6;}
	.st156{fill:#0DBA5B;}
	.st157{fill:#79B259;}
	.st158{fill:#0E73D8;}
	.st159{fill:#0E78D8;}
	.st160{fill:#0E8971;}
	.st161{fill:#A981D3;}
	.st162{fill:#DD4B4B;}
	.st163{fill:#4087ED;}
	.st164{fill:#40A557;}
	.st165{fill:#40E269;}
	.st166{fill:#DFC7FF;}
	.st167{fill:#DFEFEF;}
	.st168{fill:#44FCB6;}
]]>
</style><g><g><g><g><path class="st74" d="M47.774,86.708c2.021-0.517,3.384-2.41,3.52-4.827c0.127-2.47-1.132-4.662-3.206-5.449l-5.729-2.37      c-19.622-8.223-20.498-8.546-21.489-8.558c-1.515-0.058-2.865,0.714-3.797,2.201c-1.972,3.217-2.806,13.346-2.126,20.07      c0.241,2.22,0.639,4.069,1.209,5.174c0.789,1.524,2.121,2.437,3.636,2.485c0.974,0.055,1.574-0.114,19.834-6.08      C39.625,89.354,47.737,86.727,47.774,86.708z"/><path class="st74" d="M58.005,94.307c-2.267-0.884-4.703-0.336-6.071,1.403l-4.017,4.826      c-13.753,16.399-14.315,17.157-14.654,18.129c-0.202,0.581-0.288,1.183-0.216,1.79c0.084,0.866,0.464,1.729,1.11,2.525      c3.185,3.854,18.47,9.569,23.351,8.723c1.7-0.316,2.931-1.287,3.458-2.737c0.317-0.931,0.355-1.575,0.407-21.065      c0,0,0.048-8.607,0.049-8.699C61.55,97.095,60.214,95.176,58.005,94.307z"/><path class="st74" d="M76.471,77.65c0,0-0.085,0.146-0.108,0.177c1.024-0.398,2.853-0.85,6.183-1.653      c20.734-5.101,21.535-5.376,22.355-5.919c1.252-0.854,1.882-2.294,1.777-4.047c0-0.06,0.007-0.112,0-0.178      c-0.533-5.167-9.46-18.629-13.853-20.812c-1.557-0.76-3.118-0.705-4.404,0.169c-0.8,0.533-1.395,1.333-12.495,16.757      c0,0-5.018,6.947-5.079,7.012c-1.325,1.631-1.337,3.977-0.05,5.986C72.137,77.219,74.399,78.23,76.471,77.65z"/><path class="st74" d="M58.606,11.525c-0.425-1.555-1.621-2.671-3.352-3.115c-5.289-1.336-25.517,4.428-29.271,8.361      c-1.198,1.272-1.649,2.849-1.29,4.234c0.59,1.238,25.659,41.305,25.659,41.305c3.712,6.105,6.733,5.161,7.721,4.848      c0.984-0.311,3.988-1.26,3.647-8.379C61.367,50.435,58.897,13.252,58.606,11.525z"/><path class="st74" d="M86.254,91.224c0,0-8.002-2.687-8.107-2.737c-1.932-0.76-4.146-0.063-5.633,1.812      c-1.539,1.912-1.78,4.425-0.549,6.336l3.221,5.324c10.838,17.878,11.663,19.139,12.447,19.76      c1.203,0.966,2.734,1.124,4.333,0.466c4.606-1.864,14.663-14.86,15.373-19.861c0.244-1.736-0.292-3.239-1.474-4.193      C105.092,97.54,104.496,97.307,86.254,91.224z"/></g><g><path class="st114" d="M47.774,86.708c2.021-0.517,3.384-2.41,3.52-4.827c0.127-2.47-1.132-4.662-3.206-5.449l-5.729-2.37      c-19.622-8.223-17.457-2.379-18.445-2.388c-1.516-0.061-2.867,0.713-3.799,2.199c-1.975,3.217-5.848,7.178-5.168,13.902      c0.241,2.22,0.639,4.069,1.209,5.174c0.789,1.524,2.121,2.437,3.636,2.485c0.974,0.055,1.574-0.114,19.834-6.08      C39.625,89.354,47.737,86.727,47.774,86.708z"/><path class="st114" d="M58.005,94.307c-2.267-0.884-3.045,4.348-4.414,6.089c0,0-4.001,4.827-4.014,4.827      c-13.756,16.398-15.976,12.471-16.314,13.443c-0.202,0.581-0.288,1.183-0.216,1.79c0.084,0.866,0.464,1.729,1.11,2.525      c3.185,3.854,18.47,9.569,23.351,8.723c1.7-0.316,2.931-1.287,3.458-2.737c0.317-0.931,0.355-1.575,0.407-21.065      c0,0,0.048-8.607,0.049-8.699C61.55,97.095,60.214,95.176,58.005,94.307z"/><path class="st114" d="M76.471,77.65c0,0-0.085,0.146-0.108,0.177c1.024-0.398,2.853-0.85,6.183-1.653      c20.734-5.101,21.535-5.376,22.355-5.919c1.252-0.854,1.882-2.294,1.777-4.047c0-0.06,0.007-0.112,0-0.178      c-0.533-5.167-6.95-12.769-11.344-14.953c-1.559-0.76-3.12-0.705-4.402,0.17c-0.803,0.534-3.905-4.525-15.006,10.898      c0,0-5.018,6.947-5.079,7.012c-1.325,1.631-1.337,3.977-0.05,5.986C72.137,77.219,74.399,78.23,76.471,77.65z"/><path class="st114" d="M58.606,11.525c-0.425-1.555-1.621-2.671-3.352-3.115c-5.289-1.336-15.037,6.5-18.788,10.434      c-1.201,1.272-1.651,2.85-1.291,4.234c0.588,1.237,15.178,39.232,15.178,39.232c3.712,6.105,6.733,5.161,7.721,4.848      c0.984-0.311,3.988-1.26,3.647-8.379C61.367,50.435,58.897,13.252,58.606,11.525z"/><path class="st114" d="M86.254,91.224c0,0-4.966-1.02-5.07-1.07c-1.935-0.76-4.148-0.063-5.635,1.812      c-1.539,1.914-1.779,4.425-0.547,6.337l0.184,3.656c10.838,17.878,11.663,19.139,12.447,19.76      c1.203,0.966,2.734,1.124,4.333,0.466c4.606-1.864,14.663-14.86,15.373-19.861c0.244-1.736-0.292-3.239-1.474-4.193      C105.092,97.54,104.496,97.307,86.254,91.224z"/></g></g><g><path class="st26" d="M47.774,86.708c2.021-0.517,3.384-2.41,3.52-4.827c0.127-2.47-1.132-4.662-3.206-5.449l-5.729-2.37     c-19.622-8.223-20.498-8.546-21.489-8.558c-1.515-0.058-2.865,0.714-3.797,2.201c-1.972,3.217-2.806,13.346-2.126,20.07     c0.241,2.22,0.639,4.069,1.209,5.174c0.789,1.524,2.121,2.437,3.636,2.485c0.974,0.055,1.574-0.114,19.834-6.08     C39.625,89.354,47.737,86.727,47.774,86.708z"/><path class="st26" d="M58.005,94.307c-2.267-0.884-4.703-0.336-6.071,1.403l-4.017,4.826     c-13.753,16.399-14.315,17.157-14.654,18.129c-0.202,0.581-0.288,1.183-0.216,1.79c0.084,0.866,0.464,1.729,1.11,2.525     c3.185,3.854,18.47,9.569,23.351,8.723c1.7-0.316,2.931-1.287,3.458-2.737c0.317-0.931,0.355-1.575,0.407-21.065     c0,0,0.048-8.607,0.049-8.699C61.55,97.095,60.214,95.176,58.005,94.307z"/><path class="st26" d="M76.471,77.65c0,0-0.085,0.146-0.108,0.177c1.024-0.398,2.853-0.85,6.183-1.653     c20.734-5.101,21.535-5.376,22.355-5.919c1.252-0.854,1.882-2.294,1.777-4.047c0-0.06,0.007-0.112,0-0.178     c-0.024-0.225-0.068-0.471-0.122-0.726c-0.16-0.82-0.444-1.685-0.834-2.574c-2.514-6.161-9.258-15.704-12.896-17.512     c-1.557-0.76-3.118-0.705-4.404,0.169c-0.8,0.533-1.395,1.333-12.495,16.757c0,0-5.018,6.947-5.079,7.012     c-1.325,1.631-1.337,3.977-0.05,5.986C72.137,77.219,74.399,78.23,76.471,77.65z"/><path class="st26" d="M58.606,11.525c-0.425-1.555-1.621-2.671-3.352-3.115c-5.289-1.336-25.517,4.428-29.271,8.361     c-1.198,1.272-1.649,2.849-1.29,4.234c0.59,1.238,25.659,41.305,25.659,41.305c3.712,6.105,6.733,5.161,7.721,4.848     c0.984-0.311,3.988-1.26,3.647-8.379C61.367,50.435,58.897,13.252,58.606,11.525z"/><path class="st26" d="M105.866,98.129c-0.773-0.59-1.37-0.822-19.611-6.906c0,0-8.002-2.687-8.107-2.737     c-1.932-0.76-4.146-0.063-5.633,1.812c-1.539,1.912-1.78,4.425-0.549,6.336l3.221,5.324     c10.838,17.878,11.663,19.139,12.447,19.76c1.203,0.966,2.734,1.124,4.333,0.466c4.606-1.864,14.663-14.86,15.373-19.861     C107.583,100.586,107.047,99.083,105.866,98.129z"/></g></g><g><g><line class="st26" x1="111.886" x2="113.571" y1="48.249" y2="47.018"/><line class="st26" x1="117.227" x2="117.15" y1="44.338" y2="44.398"/></g><g><g><line class="st26" x1="118.745" x2="120.804" y1="63.25" y2="63.568"/><line class="st26" x1="125.287" x2="125.19" y1="64.262" y2="64.247"/></g><g><line class="st26" x1="99.659" x2="99.977" y1="37.183" y2="35.12"/><line class="st26" x1="100.67" x2="100.656" y1="30.639" y2="30.735"/></g></g></g></g></svg>