<?xml version="1.0" ?><!DOCTYPE svg  PUBLIC '-//W3C//DTD SVG 1.1//EN'  'http://www.w3.org/Graphics/SVG/1.1/DTD/svg11.dtd'><svg enable-background="new 0 0 1024 1024" height="1024px" id="G_x2B__2_" version="1.1" viewBox="0 0 1024 1024" width="1024px" xml:space="preserve" xmlns="http://www.w3.org/2000/svg" xmlns:xlink="http://www.w3.org/1999/xlink"><g id="Background"><linearGradient gradientTransform="matrix(0.9397 0.3421 -0.3421 0.9397 840.8064 -105.4335)" gradientUnits="userSpaceOnUse" id="bg_2_" x1="231.4614" x2="-426.9566" y1="1084.9277" y2="300.3503"><stop offset="0" style="stop-color:#000000"/><stop offset="0.1921" style="stop-color:#090909"/><stop offset="0.5054" style="stop-color:#212121"/><stop offset="0.8987" style="stop-color:#494948"/><stop offset="1" style="stop-color:#545453"/></linearGradient><circle cx="512.001" cy="512" fill="url(#bg_2_)" id="bg_1_" r="512"/></g><linearGradient gradientTransform="matrix(1 0 0 1 428.6797 183.0791)" gradientUnits="userSpaceOnUse" id="Shadow_1_" x1="-119.5313" x2="439.4443" y1="138.1445" y2="697.1201"><stop offset="0" style="stop-color:#000000;stop-opacity:0.75"/><stop offset="0.4833" style="stop-color:#090909;stop-opacity:0.3876"/><stop offset="1" style="stop-color:#181818;stop-opacity:0"/></linearGradient><path d="M544.486,1022.986l-246.95-246.874c0,0-2.036-144.612,54.464-165.612S463.5,582,498,573  s-21.5-26-16-61s15.5-31.5-38.5-47S317,338,339,305.5S385.5,227,439.5,220s180-4,194-6l28.073-6.853l359.538,359.565  c0,0-3.78,36.178-10.379,61.591c-6.601,25.413-10.985,41.242-16.093,54.997c-5.104,13.755-16.164,42.73-27.643,63.699  c-11.479,20.969-28.259,49.667-41.413,66.873s-20.073,27.46-36.816,44.809c-16.742,17.351-21.222,23.25-39.496,38.534  c-18.276,15.284-27.375,23.297-43.524,34.186c-16.15,10.887-26.034,18.036-43.688,27.485c-17.651,9.45-46.145,23.562-62.628,29.722  c-16.481,6.158-41.563,14.58-52.513,17.43C635.971,1008.885,584.973,1021.973,544.486,1022.986z" fill="url(#Shadow_1_)" id="Shadow"/><g id="G_x2B__1_"><polygon fill="#FFFFFF" id="_x2B_" points="813.338,464.648 751.782,464.648 751.782,403.092 712.593,403.092 712.593,464.648    651.036,464.648 651.036,503.837 712.593,503.837 712.593,565.394 751.782,565.394 751.782,503.837 813.338,503.837  "/><path d="M622.014,593.122c-20.704-23.292-52.498-47.692-68.023-61.372   c-15.528-13.679-49.911-38.079,16.267-85.402c66.177-47.323,56.937-109.063,43.625-146.404   c-13.31-37.34-39.928-54.716-44.733-61.372c-4.808-6.654,1.107-4.806,1.107-4.806s41.407,16.267,91.318-26.619H524.412   c-34.693-1.534-70.188,1.229-104.005,9.086c-37.896,8.803-72.655,34.563-94.086,66.783c-3.577,5.377-6.949,11.068-9.686,16.928   c-15.982,34.253-16.833,73.261-3.224,108.504c3.854,9.987,9.4,20.311,16.164,28.655c17.376,21.443,53.236,44.364,85.032,46.585   c31.795,2.218,46.214,1.479,46.214,1.479s-24.031,43.255,15.712,80.965c0,0-26.064,3.882-74.313,10.537   c-48.247,6.654-119.97,33.827-134.758,102.223c-14.788,68.396,31.673,104.998,67.229,121.266   c43.851,20.063,94.635,22.551,141.818,16.787c25.228-3.082,50.876-8.532,74.149-19.006c29.577-13.31,55.087-33.644,72.093-55.825   c24.648-32.15,35.231-79.387,19.452-117.891C637.619,613.033,630.028,602.137,622.014,593.122z M463.108,460.212   c-25.625-3.882-45.912-23.292-57.559-38.819c-14.12-18.827-21.231-44.859-25.487-67.646c-2.314-12.398-2.729-26.047-2.291-38.623   c0.897-25.708,10.645-50.549,28.547-65.846c11.796-10.081,27.134-16.016,45.813-15.325c43.632,1.616,72.623,44.738,85.957,82.075   c5.546,15.528,10.537,42.146,11.091,56.011c0.557,13.864,1.109,45.474-17.746,63.772   C512.581,454.112,488.735,464.094,463.108,460.212z M592.438,710.688c-8.872,87.25-141.228,71.723-158.973,69.504   c-17.746-2.22-110.173-25.879-97.603-105.735c1.863-11.849,7.021-24.321,14.631-33.586c13.946-16.983,34.412-28.376,54.914-35.374   c24.953-8.515,50.66-15.282,76.073-13.771c13.195,0.786,26.313,3.807,39.207,9.974C559.375,620.21,597.015,665.685,592.438,710.688   z" fill="#FFFFFF" id="g"/></g></svg>