<?xml version="1.0" ?><!DOCTYPE svg  PUBLIC '-//W3C//DTD SVG 1.1//EN'  'http://www.w3.org/Graphics/SVG/1.1/DTD/svg11.dtd'><svg enable-background="new 0 0 1024 1024" height="1024px" version="1.1" viewBox="0 0 1024 1024" width="1024px" xml:space="preserve" xmlns="http://www.w3.org/2000/svg" xmlns:xlink="http://www.w3.org/1999/xlink"><g id="Background"><linearGradient gradientTransform="matrix(0.9397 0.3421 -0.3421 0.9397 412.0643 -288.1289)" gradientUnits="userSpaceOnUse" id="bg_1_" x1="696.8169" x2="38.4004" y1="1109.9336" y2="325.3549"><stop offset="0" style="stop-color:#000000"/><stop offset="0.1921" style="stop-color:#090909"/><stop offset="0.5054" style="stop-color:#212121"/><stop offset="0.8987" style="stop-color:#494948"/><stop offset="1" style="stop-color:#545453"/></linearGradient><circle cx="512.001" cy="512" fill="url(#bg_1_)" id="bg" r="512"/></g><g id="Periscope"><linearGradient gradientUnits="userSpaceOnUse" id="Shadow_1_" x1="363.2017" x2="889.2498" y1="332.8584" y2="858.9065"><stop offset="0" style="stop-color:#000000"/><stop offset="0.4833" style="stop-color:#090909;stop-opacity:0.5167"/><stop offset="1" style="stop-color:#181818;stop-opacity:0"/></linearGradient><path d="M682.583,994.896L440.032,752.345C440.032,752.345,280,431,351,348s129-122,243-77   l71.227,21.303l343.679,343.603c0,0-3.997,15.602-6.494,23.668s-8.626,26.939-13.076,37.992s-17.192,42.061-30.096,63.864   s-33.456,54.371-50.404,74.103s-37.63,43.188-57.729,60.077s-48.775,40.352-75.256,55.254S717.352,984.006,682.583,994.896z" fill="url(#Shadow_1_)" id="Shadow"/><path d="M733.113,451.717c0,122.117-144.514,341.679-221.113,341.679c-76.599,0-221.113-219.562-221.113-341.679   S389.883,230.604,512,230.604S733.113,329.6,733.113,451.717z" fill="#FFFFFF"/><path d="M512,321.757c-21.728,0-42.204,5.341-60.202,14.769c18.773,3.429,33.008,19.856,33.008,39.619   c0,22.25-18.037,40.287-40.287,40.287c-21.313,0-38.748-16.552-40.18-37.5c-14.055,20.757-22.266,45.796-22.266,72.752   c0,71.756,58.17,129.926,129.927,129.926s129.927-58.17,129.927-129.926C641.927,379.927,583.757,321.757,512,321.757z"/></g></svg>