<?xml version="1.0" ?><!DOCTYPE svg  PUBLIC '-//W3C//DTD SVG 1.1//EN'  'http://www.w3.org/Graphics/SVG/1.1/DTD/svg11.dtd'><svg enable-background="new 0 0 1024 1024" height="1024px" id="Skype" version="1.1" viewBox="0 0 1024 1024" width="1024px" xml:space="preserve" xmlns="http://www.w3.org/2000/svg" xmlns:xlink="http://www.w3.org/1999/xlink"><g id="Background"><linearGradient gradientTransform="matrix(0.9397 0.3421 0.3421 -0.9397 704.6954 948.6584)" gradientUnits="userSpaceOnUse" id="bg_2_" x1="-1.2241" x2="-659.6418" y1="-47.9048" y2="736.6723"><stop offset="0" style="stop-color:#000000"/><stop offset="0.1921" style="stop-color:#090909"/><stop offset="0.5054" style="stop-color:#212121"/><stop offset="0.8987" style="stop-color:#494948"/><stop offset="1" style="stop-color:#545453"/></linearGradient><circle cx="512.001" cy="512" fill="url(#bg_2_)" id="bg_1_" r="512"/></g><linearGradient gradientTransform="matrix(1 0 0 -1 643.0195 1299.1191)" gradientUnits="userSpaceOnUse" id="Shadow_1_" x1="-382" x2="229.7771" y1="1035.541" y2="423.7639"><stop offset="0" style="stop-color:#000000;stop-opacity:0.8"/><stop offset="0.4833" style="stop-color:#090909;stop-opacity:0.4134"/><stop offset="1" style="stop-color:#181818;stop-opacity:0"/></linearGradient><path d="M592.141,1017.765L304.191,729.815c0,0-80.673-181.431-71.117-260.063  c9.556-78.632-78.939-125.826,81.553-255.224c0,0,146.498,8.82,160.245,19.207c13.747,10.387,153.236-9.728,186.986,40.828s0,0,0,0  l58.146,24.937l297.049,297.049c0,0-10.563,55.346-21.24,83.396c-10.674,28.053-15.56,41.369-24.769,59.072  c-9.209,17.704-13.449,27.866-27.667,48.887c-14.218,21.018-30.407,43.136-39.708,53.868c-9.301,10.729-21.406,24.567-32.987,35.589  c-11.582,11.019-17.343,16.906-29.688,26.958c-12.35,10.049-25.768,20.693-36.785,28.161c-11.02,7.465-33.52,21.817-44.701,27.823  c-11.181,6.009-31.815,16.461-42.354,20.938c-10.538,4.474-32.066,13.046-43.196,16.61c-11.13,3.567-32.692,9.74-37.608,10.94  S604.016,1016.043,592.141,1017.765z" fill="url(#Shadow_1_)" id="Shadow"/><g id="Skype_1_"><path d="M798.296,585.732   c-3.216-6.894-7.201-13.447-12.058-19.528c-3.586-4.489-0.938-11.231,0.188-16.124c8.41-36.491,4.222-74.576-4.515-110.625   c-2.469-10.19-5.634-20.234-9.621-29.934c-15.708-38.217-40.055-75.167-70.188-103.522c-16.595-15.613-36.028-29.874-56.028-40.846   c-30.918-16.961-64.44-26.616-99.359-30.838c-15.21-1.839-30.497-3.795-45.847-3.52c-7.688,0.138-15.363,0.805-22.903,2.336   c-6.594,1.339-13.912,4.331-20.504,1.456c-12.315-5.371-24.563-11.353-37.63-14.722c-9.436-2.433-19.289-3.514-28.965-4.483   c-26.598-2.664-52.521,1.837-77.261,11.886c-17.449,7.086-33.323,17.963-47.468,30.327c-18.594,16.253-34.483,43.33-41.756,66.768   c-7.646,24.642-11.749,51.798-6.972,77.367c2.213,11.842,5.936,23.364,10.701,34.417c2,4.643,4.771,8.903,6.766,13.546   c2.12,4.927,1.109,8.471-0.168,13.505c-4.327,17.059-4.558,35.378-4.384,52.884c0.416,41.951,10.603,86.146,29.051,123.732   c18.74,38.182,45.897,72.535,80.8,97.118c34.466,24.275,72.986,42.331,114.521,50.28c23.166,4.434,46.41,2.234,69.554-1.053   c10.062-1.431,30.658-7.659,39.889-1.065c0.009,0.005,91.613,66.097,189.104-19.396c28.959-25.396,50.082-61.905,54.881-100.385   C811.436,638.761,809.689,610.146,798.296,585.732z" fill="none" id="border" stroke="#FFFFFF" stroke-miterlimit="10" stroke-width="35"/><path d="M646.232,424.643c9.029-6.705,15.573-16.729,16.554-28.289c0.904-10.679-4.417-22.072-11.23-30.105   c-10.564-12.46-23.794-23.661-37.343-32.738c-7.881-5.279-16.366-10.018-25.03-13.894c-21.971-9.83-46.13-14.741-70.141-15.404   c-13.255-0.366-27.028,0.054-40.182,1.845c-36.2,4.93-72.772,15.128-99.146,41.81c-6.606,6.687-12.719,14.245-17.938,22.069   c-6.23,9.341-11.019,19.515-13.747,30.44c-6.712,26.851-3.017,61.454,12.886,84.299c18.979,27.27,51.695,41.711,82.715,50.304   c19.338,5.355,39.065,7.941,58.689,11.854c11.74,2.339,23.441,4.938,34.925,8.354c14.3,4.256,31.374,9.756,40.38,22.472   c15.67,22.125,7.164,53.749-15.249,67.131c-22.643,13.52-53.035,16.654-78.132,8.983c-13.42-4.104-26.328-10.066-37.063-19.241   c-12.254-10.476-19.416-25.06-30.948-36.128c-12.028-11.553-34.204-19.294-50.195-11.927   c-26.491,12.211-25.932,52.458-10.547,73.163c6.021,8.106,14.042,16.583,22.042,22.736c44.917,34.551,107.154,40.284,161.897,36.54   c16.079-1.1,33.266-3.354,48.602-8.54c34-11.5,67-32.5,81.5-69s10-66.5,3.5-86.001c-14.568-43.701-60.104-62.443-100.636-73.081   c-9.729-2.554-19.521-4.845-29.365-6.918c-18.573-3.91-37.018-8.268-55.673-11.763c-19.589-3.669-48.646-8.799-53.224-32.369   c-4.389-22.617,10.231-45.247,30.63-53.082c22.805-8.758,50.3-7.755,72.756,1.497c11.946,4.922,26.256,12.463,35.674,21.443   c15.801,15.065,29.682,37.02,54.911,31.637C634.308,431.416,641.124,428.434,646.232,424.643z" fill="#FFFFFF" id="s"/></g></svg>