<?xml version="1.0" ?><!DOCTYPE svg  PUBLIC '-//W3C//DTD SVG 1.1//EN'  'http://www.w3.org/Graphics/SVG/1.1/DTD/svg11.dtd'><svg enable-background="new 0 0 1024 1024" height="1024px" id="Swarm" version="1.1" viewBox="0 0 1024 1024" width="1024px" xml:space="preserve" xmlns="http://www.w3.org/2000/svg" xmlns:xlink="http://www.w3.org/1999/xlink"><g id="Background"><linearGradient gradientTransform="matrix(0.9397 0.3421 -0.3421 0.9397 840.8064 -105.4335)" gradientUnits="userSpaceOnUse" id="bg_2_" x1="231.4614" x2="-426.9566" y1="1084.9277" y2="300.3503"><stop offset="0" style="stop-color:#000000"/><stop offset="0.1921" style="stop-color:#090909"/><stop offset="0.5054" style="stop-color:#212121"/><stop offset="0.8987" style="stop-color:#494948"/><stop offset="1" style="stop-color:#545453"/></linearGradient><circle cx="512.001" cy="512" fill="url(#bg_2_)" id="bg_1_" r="512"/></g><linearGradient gradientTransform="matrix(1 0 0 1 428.6797 183.0791)" gradientUnits="userSpaceOnUse" id="Shadow_1_" x1="-134.0156" x2="453.2573" y1="95.8828" y2="683.1556"><stop offset="0" style="stop-color:#000000"/><stop offset="0.4833" style="stop-color:#090909;stop-opacity:0.5167"/><stop offset="1" style="stop-color:#181818;stop-opacity:0"/></linearGradient><path d="M648.311,246.686h-1.353L623,241.666c-84.667,13-67.063,173.558-67.063,173.558  l38.146,38.169l1.394,0.125v22.417l-0.673-0.382l-126.01-125.768L465,351.333L355,301c-172-21-110.719,124.375-110.719,124.375  l2.343,3.017l177.878,177.851L426,607.25c0,0-57.667,120.583-58.417,124.333s3.063,9.235,3.063,9.235l267.411,267.46  c4.078-1.023,40.121-11.995,40.121-11.995c7.121-2.391,45.792-18.195,45.792-18.195c8.696-3.847,29.837-14.713,29.837-14.713  c7.082-3.712,26.724-15.325,26.724-15.325c5.28-3.201,25.435-16.695,32.305-21.589s23.263-17.917,23.263-17.917  c6.607-5.31,22.988-19.965,22.988-19.965c6.8-6.16,20.578-20.088,20.578-20.088c4.044-4.13,23.496-25.997,23.496-25.997  c6.024-7.02,17.325-21.713,17.325-21.713c5.928-7.704,14.063-19.582,14.063-19.582c4.479-6.448,15.811-24.618,15.811-24.618  c4.359-7.104,12.125-21.243,12.125-21.243c4.069-7.396,13.902-27.725,13.902-27.725c4.294-9.02,10.352-23.853,10.352-23.853  c1.923-4.688,10.368-27.95,10.368-27.95c2.313-6.684,8.281-26.872,8.281-26.872c2.653-9.195,8.729-36.446,8.729-36.446  L648.311,246.686z" fill="url(#Shadow_1_)" id="Shadow"/><g id="Swarm_1_"><path d="M434.29,589.655c-0.858,0.344-1.803,2.491-2.236,3.194c-1.732,2.817-3.32,5.729-4.923,8.62   c-2.286,4.133-4.557,8.272-6.796,12.432c-2.803,5.203-5.535,10.44-8.258,15.688c-2.995,5.766-6.005,11.523-8.97,17.304   c-3.134,6.106-6.176,12.259-9.202,18.415c-6.417,13.057-13.001,26.044-18.806,39.39c-1.652,3.804-3.239,7.637-4.724,11.51   c-1.184,3.092-2.239,6.237-3.062,9.446c-1.797,6.981,0.157,14.771,7.343,17.824c4.826,2.055,9.893,3.774,14.852,5.472   c4.506,1.54,8.951,3.216,13.395,4.931c31.945,12.33,118.263,30.826,118.263,30.826C432.608,704.554,434.29,589.655,434.29,589.655z   " fill="#FFFFFF"/><path d="M677.164,715.923c-32.379-30.07-55.507-68.633-69.303-110.474c-7.92-24.021-12.201-49.086-13.368-74.32   c-0.167-3.604-0.271-7.214-0.318-10.829c-0.707-18.641,1.535-38.817,3.955-58.093c0.435-3.332,0.947-6.608,1.542-9.114   c0.594-2.505,1.271-4.239,2.019-4.481c-2.406,0.789-4.813,1.604-7.207,2.447c-2.397,0.847-4.786,1.72-7.175,2.616   c-16.536,5.496-32.651,13.289-46.968,23.531c-2.86,2.048-5.651,4.195-8.358,6.438c-3.156,2.362-6.164,4.868-9.021,7.506   c-30.38,27.322-42.71,69.92-37.505,110.104c0.729,9.037,2.121,18.022,3.959,26.898c6.84,33.021,20.669,65.058,40.091,92.643   c17.764,25.229,40.582,47.425,69.542,59.182c27.922,11.332,64.824,10.052,93.154,0.024c11.371-4.021,22.606-8.909,33.028-15.019   c0.849-0.499,12.17-9.012,12.47-8.865c-11.355-5.487-21.844-11.397-31.529-17.657C695.866,731.801,686.149,724.268,677.164,715.923   z" fill="#FFFFFF"/><path d="M385.714,292.785c-46.646-17.631-97.206-21.622-141.989,2.904c-23.352,12.789-39.466,31.688-37.563,59.192   c1.944,28.098,21.546,57.044,42.284,75.13c5.887,5.134,12.436,9.9,19.225,13.78c14.008,8.004,30.412,13.581,46.301,16.392   c97.151,17.188,193.556-24.662,208.5-30.641C522.473,429.543,480.623,328.656,385.714,292.785z" fill="#FFFFFF"/><path d="M649.576,345.869c14.229-25.906,20.42-55.157,8.773-83.243c-6.072-14.646-16.413-25.532-33.343-26.553   c-17.298-1.043-36.426,8.175-49.005,18.896c-3.57,3.043-6.967,6.503-9.84,10.172c-5.924,7.569-10.55,16.728-13.445,25.799   c-17.706,55.469,0.679,115.08,3.219,124.282C555.938,415.224,620.631,398.579,649.576,345.869z" fill="#FFFFFF"/><path d="M802.516,540.978c-8.63-18.799-20.615-35.533-34.685-50.541c-8.203-8.752-17-16.172-26.881-22.977   c-22.568-15.544-51.521-27.533-76.861-10.636c-2.803,2.239-5.184,4.76-7.21,7.503c-4.559,6.173-7.316,13.466-9.005,21.208   c-0.563,2.581-1.007,5.211-1.358,7.867c-2.02,16.051-1.057,32.029,1.768,47.7c0.563,3.135,1.203,6.256,1.905,9.361   c10.538,38.629,25.11,75.621,48.523,108.316c2.093,2.871,4.259,5.679,6.503,8.411c6.734,8.2,14.178,15.737,22.506,22.324   c2.828,2.023,5.775,3.924,8.852,5.682c2.704,1.548,5.508,2.925,8.409,4.106c3.29,1.178,6.625,2.108,9.98,2.753   c25.364,4.887,45.112-11.734,54.474-34.237c1.435-3.442,2.692-7.012,3.778-10.655c2.168-8.898,3.567-17.925,4.256-27.055   C819.77,599.667,814.398,569.006,802.516,540.978z" fill="#FFFFFF"/></g></svg>