<?xml version="1.0" ?><svg enable-background="new 0 0 32 32" version="1.1" viewBox="0 0 32 32" xml:space="preserve" xmlns="http://www.w3.org/2000/svg" xmlns:xlink="http://www.w3.org/1999/xlink"><g id="Outline_copy_2"><g><g><rect height="9.901" width="26.165" x="2.918" y="17.008"/></g><g><path d="M2.918,32h23.176c1.644,0,2.989-1.345,2.989-2.989v-1.101H2.918V32z"/></g><rect fill="#FF0000" height="1" width="26.165" x="2.918" y="26.909"/><g><g><path d="M5.907,0C4.263,0,2.918,1.345,2.918,2.989v13.019h26.165V0H5.907z"/></g><polygon fill="#FF0000" points="2.918,16.432 2.918,17.008 29.083,17.008 29.083,16.432 29.083,16.008 2.918,16.008    "/></g><g opacity="0.25"><path d="M5.907,0C4.263,0,2.917,1.345,2.917,2.989v7.064L12.971,0H5.907z" fill="#FFFFFF"/></g></g><g><path d="M12.367,22.656h0.938v0.169c0,0.686-0.125,1.128-0.375,1.329s-0.803,0.301-1.659,0.301    c-0.971,0-1.568-0.158-1.792-0.476s-0.335-1.166-0.335-2.546c0-0.812,0.151-1.347,0.454-1.604c0.303-0.256,0.937-0.384,1.9-0.384    c0.702,0,1.171,0.105,1.406,0.315c0.235,0.211,0.354,0.628,0.354,1.254l0.004,0.111h-0.938V21c0-0.322-0.061-0.528-0.182-0.619    c-0.121-0.09-0.398-0.135-0.831-0.135c-0.579,0-0.928,0.071-1.044,0.213c-0.117,0.142-0.175,0.562-0.175,1.262    c0,0.942,0.052,1.5,0.156,1.674c0.104,0.173,0.443,0.26,1.016,0.26c0.464,0,0.765-0.049,0.903-0.145    c0.138-0.097,0.207-0.308,0.207-0.635L12.367,22.656z" fill="#FFFFFF"/><path d="M16.871,23.467h-2.124l-0.307,0.944h-0.988l1.638-4.922h1.402l1.663,4.922h-0.971L16.871,23.467z     M16.654,22.778l-0.851-2.563l-0.837,2.563H16.654z" fill="#FFFFFF"/><path d="M18.58,24.411V19.49H21c0.688,0,1.17,0.149,1.445,0.45s0.412,0.827,0.412,1.579    c0,1.229-0.111,2.019-0.332,2.368s-0.719,0.524-1.496,0.524H18.58z M19.514,23.625h1.331c0.447,0,0.736-0.103,0.867-0.309    c0.131-0.205,0.195-0.659,0.195-1.361c0-0.726-0.059-1.188-0.176-1.385s-0.395-0.295-0.83-0.295h-1.388V23.625z" fill="#FFFFFF"/></g></g></svg>