<?xml version="1.0" ?><svg id="Layer_1" style="enable-background:new 0 0 512 512;" version="1.1" viewBox="0 0 512 512" xml:space="preserve" xmlns="http://www.w3.org/2000/svg" xmlns:xlink="http://www.w3.org/1999/xlink"><style type="text/css">
	.st0{fill:#EF3343;}
</style><g id="XMLID_959_"><path class="st0" d="M365.6,285.9H40.3v133.9h276.3L365.6,285.9z M142.1,358.9c0,8.5-2.7,15.4-8.1,20.8   c-5.4,5.4-12.4,8-21.1,8H90.5v-68H113c8.6,0,15.6,2.7,21.1,8.1c5.4,5.4,8.1,12.3,8.1,20.8V358.9z M226.4,387.8H215v-48.9l-0.3,0   L196,387.8h-7.8l-19.1-49.9l-0.3,0.1v49.8h-11.4v-68h14.9l19.5,52.3h0.3l19.7-52.3h14.5V387.8z M294,378.6c-1.9,2.6-4.9,5-8.9,7.1   c-4.1,2.1-9.4,3.1-15.9,3.1c-8,0-14.6-2.6-19.8-7.8c-5.2-5.2-7.8-11.9-7.8-20.1v-14.2c0-8.2,2.5-14.9,7.5-20.1   c5-5.2,11.5-7.8,19.3-7.8c7.9,0,14.1,2,18.5,6c4.4,4,6.6,9.2,6.4,15.6l-0.1,0.3h-10.8c0-3.8-1.2-6.9-3.6-9.3s-5.8-3.5-10.3-3.5   c-4.7,0-8.5,1.8-11.4,5.3c-2.9,3.5-4.3,8-4.3,13.4v14.3c0,5.5,1.5,10,4.5,13.5c3,3.5,6.9,5.3,11.8,5.3c3.6,0,6.5-0.4,8.6-1.2   c2.1-0.8,3.7-1.8,4.8-3v-14.1h-14.3v-8.5H294V378.6z" id="XMLID_964_"/><path class="st0" d="M113,328.9h-11.1v49.9H113c5.5,0,9.8-1.8,13-5.5c3.2-3.7,4.8-8.4,4.8-14.2v-10.4   c0-5.7-1.6-10.4-4.8-14.1C122.8,330.7,118.4,328.9,113,328.9z" id="XMLID_963_"/><path class="st0" d="M352.9,6L352.9,6L107.4,6c-7.3,0-13.3,6-13.3,13.3v256.8h26.6V32.6h232.2v92.2h92.2v354.6   H120.7v-49.8H94.1v63.1c0,7.3,6,13.3,13.3,13.3h351c7.3,0,13.3-6,13.3-13.3V124.8L352.9,6z" id="XMLID_962_"/><rect class="st0" height="19.6" id="XMLID_961_" width="253.4" x="156.2" y="171.4"/><rect class="st0" height="19.6" id="XMLID_960_" width="213.3" x="156.2" y="209.5"/></g></svg>