<?xml version="1.0" ?><svg id="Layer_1" style="enable-background:new 0 0 512 512;" version="1.1" viewBox="0 0 512 512" xml:space="preserve" xmlns="http://www.w3.org/2000/svg" xmlns:xlink="http://www.w3.org/1999/xlink"><style type="text/css">
	.st0{fill:#11B24C;}
</style><g id="XMLID_599_"><path class="st0" d="M191,328.7h-15.1v24.7H191c4.3,0,7.6-1.2,9.8-3.5c2.2-2.3,3.3-5.2,3.3-8.8   c0-3.6-1.1-6.5-3.3-8.9C198.6,329.9,195.4,328.7,191,328.7z" id="XMLID_609_"/><path class="st0" d="M365.6,285.9H40.3v133.9h276.3L365.6,285.9z M143.5,356.9c-4.4,4-10.4,5.9-18.1,5.9h-15.1   v26.5H98.6v-70h26.8c7.7,0,13.8,2,18.1,6c4.4,4,6.6,9.2,6.6,15.7C150.1,347.6,147.9,352.9,143.5,356.9z M209.2,356.9   c-4.4,4-10.4,5.9-18.1,5.9h-15.1v26.5h-11.7v-70H191c7.7,0,13.8,2,18.1,6c4.4,4,6.6,9.2,6.6,15.7   C215.7,347.6,213.5,352.9,209.2,356.9z M278.7,328.7h-21.6v60.6h-11.7v-60.6h-21.3v-9.4h54.6V328.7z" id="XMLID_604_"/><path class="st0" d="M125.4,328.7h-15.1v24.7h15.1c4.3,0,7.6-1.2,9.8-3.5c2.2-2.3,3.3-5.2,3.3-8.8   c0-3.6-1.1-6.5-3.3-8.9C133,329.9,129.7,328.7,125.4,328.7z" id="XMLID_603_"/><path class="st0" d="M352.9,6L352.9,6H107.4c-7.3,0-13.3,6-13.3,13.3v256.8h26.6V32.6h232.2v92.2h92.2v354.6H120.7   v-49.8H94.1v63.1c0,7.3,6,13.3,13.3,13.3h351c7.3,0,13.3-6,13.3-13.3V124.8L352.9,6z" id="XMLID_602_"/><rect class="st0" height="19.6" id="XMLID_601_" width="253.4" x="156.2" y="171.4"/><rect class="st0" height="19.6" id="XMLID_600_" width="213.3" x="156.2" y="209.5"/></g></svg>