<?xml version="1.0" ?><svg id="Layer_1" style="enable-background:new 0 0 512 512;" version="1.1" viewBox="0 0 512 512" xml:space="preserve" xmlns="http://www.w3.org/2000/svg" xmlns:xlink="http://www.w3.org/1999/xlink"><style type="text/css">
	.st0{fill:#7361AB;}
</style><g id="XMLID_993_"><path class="st0" d="M365.6,285.9H40.3v133.9h276.3L365.6,285.9z M163.7,388.8h-49.3v-7.3l34.2-53.3h-33.9v-9.4   h47.7v7l-34.3,53.7h35.5V388.8z M190.6,388.8H179v-70h11.7V388.8z M254.2,356.3c-4.4,4-10.4,5.9-18.1,5.9h-15.1v26.5h-11.7v-70   h26.8c7.7,0,13.8,2,18.1,6c4.4,4,6.6,9.2,6.6,15.7C260.8,347.1,258.6,352.3,254.2,356.3z" id="XMLID_998_"/><path class="st0" d="M236.1,328.1h-15.1v24.7h15.1c4.3,0,7.6-1.2,9.8-3.5c2.2-2.3,3.3-5.2,3.3-8.8   s-1.1-6.5-3.3-8.9C243.7,329.3,240.4,328.1,236.1,328.1z" id="XMLID_997_"/><path class="st0" d="M352.9,6L352.9,6L107.4,6c-7.3,0-13.3,6-13.3,13.3v256.8h26.6V32.6h232.2v92.2h92.2v354.6   H120.7v-49.8H94.1v63.1c0,7.3,6,13.3,13.3,13.3h351c7.3,0,13.3-6,13.3-13.3V124.8L352.9,6z" id="XMLID_996_"/><rect class="st0" height="19.6" id="XMLID_995_" width="253.4" x="156.2" y="171.4"/><rect class="st0" height="19.6" id="XMLID_994_" width="213.3" x="156.2" y="209.5"/></g></svg>