<?xml version="1.0" ?><svg enable-background="new 0 0 500 500" id="Layer_1" version="1.1" viewBox="0 0 500 500" xml:space="preserve" xmlns="http://www.w3.org/2000/svg" xmlns:xlink="http://www.w3.org/1999/xlink"><g><path d="M423.998,165.726c-3.176-19.151-21.124-25.033-36.572-32.418c-29.226-10.905-80.436-35.597-110.392-27.878   c-10.386,1.558-17.718,19.71-24.67,27.405c-6.742,9.641-11.168,21.727-6.323,33.165c2.156,3.939,1.37,4.687-2.509,6.241   c-19.187,10.914-38.337,21.884-57.942,32.055c-20.361,10.563-40.294,21.952-60.963,31.922c-13.704,6.61-24.508,16.288-32.04,29.495   c-10.335,19.63-24.157,41.485-14.04,63.901c8.373,21.51,15.773,48.506,34.688,62.853c17.119,9.483,34.572-2.142,50.395-9.056   c46.001-21.819,88.851-49.632,135.115-70.907c3.23-0.915,7.283-4.737,10.44-2.189c7.538,7.666,12.643,17.36,18.878,26.056   c6.554,9.764,18.358,31.367,28.387,12.175c6.381-11.611,12.064-23.582,17.797-35.507c11.971-20.399,19.475-43.195,29.589-64.563   C413.974,222.064,428.97,195.082,423.998,165.726z" fill="#3F3756"/><path d="M252.86,141.277c25.866-4.22,132.599,33.12,149.899,47.073c8.723,12.258-6.638,56.731-8.566,67.561   l2.867,0.833c9.147-13.185,40.554-84.537,14.296-107.667c-14.571-11.495-116.052-50.955-139.747-38.096   C265.73,114.366,248.63,140.974,252.86,141.277z" fill="#CE7C53"/><path d="M80.693,298.577c0,0,17-45.167,31.5-52c14.5-6.833,131.751-76.338,137.786-74.167   c6.035,2.172,10.516,23.872,10.136,27.553C248.018,209.967,98.864,293.084,80.693,298.577z" fill="#CE7C53"/><path d="M78.36,308.327c-1.776,8.581,20.328,90.548,51.002,83.249c50.404-11.651,135.33-71.558,178.748-86   c50.33,61.192,33.111,71.106,77.42-26.999c5.603-22.863,31.022-82.812,14.666-92.197c-12.771-7.568-131.194-55.642-150.647-41.292   c-5.43,6.154,1.818,25.799,5.439,35.394c3.622,9.595,6.372,16.975,3.122,21.41C254.86,206.327,77.039,298.715,78.36,308.327z" fill="#CE6052"/><path d="M78.353,314.521c23.266,50.443,52.835,81.343,111.842,33.887c11.665-10.831,39.237-10.355,59.784-22.76   s49.881-36.697,61.381-27.697s17,30.5,27.25,22.75c34.403-29.031,56.881-81.24,67.15-118.26   c2.51,8.149-39.571,141.905-57.779,150.384c-5.724,1.992-32.788-45.916-40.121-46.416c-7.333-0.5-154.75,82.917-178.5,85.167   C90.597,390.312,86.372,333.997,78.353,314.521z" fill="#BB4337"/><path d="M223.82,189.879c19.391-9.391,25.957-28.169,34.412,2.878c5.438,10.236-30.539,25.587-38.186,30.453   C218.957,212.513,221.703,200.589,223.82,189.879z" fill="#BB5D37"/><path d="M259.869,202.442c-9.376,19.636-46.926,31.696-64.97,44.687c-22.321,11.613-44.371,23.678-66.566,35.488   c-16.999,8.817-34.23,18.704-48.22,31.905c-2.574-15.928,44.081-32.619,56.252-41.88   C177.433,249.36,222.65,231.782,259.869,202.442z" fill="#D97B6F"/><path d="M402.508,190.433c-10.318-1.773-20.471-7.923-30.546-11.613c-16.652-6.406-33.677-11.781-50.787-16.826   c-17.411-5.718-35.289-9.863-53.194-13.652c-5.661-0.409-15.486-2.701-17.542,4.474c-0.435,0.671-0.686,3.641-1.728,2.758   c-5.523-25.867,53.875-2.561,65.968-0.144C344.113,166.034,375.708,174.196,402.508,190.433z" fill="#D97B6E"/><path d="M274.369,140.5c-7.203-0.67-14.096-1.627-21.392-0.602c11.343-13.667,20.446-35.354,41.662-31.046   c2.337,0.245,2.459,0.469,1.114,2.509C288.673,120.829,283.337,133.05,274.369,140.5z" fill="#D9946F"/><path d="M416.472,161.706c7.993,31.442-8.914,63.061-20.283,91.677c4.48-17.837,18.992-48.946,8.465-65.358   C408.13,179.082,413.05,170.648,416.472,161.706z" fill="#BB5D37"/><path d="M129.048,240.931c-17.283,13.578-32.77,32.493-41.851,53.132c-0.78,0.685-1.56,1.369-2.605,2.286   C92.709,273.577,105.637,250.457,129.048,240.931z" fill="#D9946E"/><path d="M208.166,199.363c-1.129,10.694-2.913,21.326-3.688,32.06c-2.182,1.402-4.526,2.499-6.844,3.645   c3.257-10.852,3.955-22.888,6.837-33.69C205.661,200.628,206.862,199.902,208.166,199.363z" fill="#BB5D37"/><path d="M280.725,141.632c5.85-11.255,13.87-22.155,22.367-31.663c0.799,0.137,1.599,0.274,2.398,0.411   c-6.11,10.459-14.517,21.406-21.456,31.919C282.932,142.077,281.829,141.855,280.725,141.632z" fill="#D9946E"/><path d="M298.528,145.88c4.543-8.687,10.538-16.768,15.659-25.203c2.172-2.185,3.76-8.4,7.578-6.154   c-6.67,10.088-13.671,19.972-19.285,30.728C301.953,147.3,299.966,146.19,298.528,145.88z" fill="#D9946E"/><path d="M217.356,192.145c-1.015,11.403-2.559,22.808-2.443,34.263c-1.031,0.571-2.062,1.142-3.093,1.713   c0.64-11.262,1.99-22.951,2.204-34.082C215.055,193.266,216.198,192.693,217.356,192.145z" fill="#BB5D37"/><path d="M415.516,158.863c-5.564,8.242-7.919,18.22-12.713,26.922c-0.554-0.497-1.108-0.994-1.662-1.491   c5.98-7.808,7.746-18.855,13.548-27.154C414.964,157.714,415.24,158.288,415.516,158.863z" fill="#BC5D37"/><path d="M222.551,333.551c-16.521-1.351,9.436-17.94,13.556-8.61C235.887,330.684,227.345,333.137,222.551,333.551z   " fill="#BB4337"/><path d="M405.553,163.972c-0.199,2.67-1.607-1.161-0.99-2.063C405.48,161.775,405.401,163.377,405.553,163.972z" fill="#433955"/><path d="M403.558,165.777c-0.216,1.295-1.682-0.103-1.591-0.888C402.096,163.198,403.458,165.087,403.558,165.777z" fill="#433956"/><path d="M247.559,188.464c-0.279-2.184,1.482-2.335,1.437-0.06c-0.17,2.004,1.267,5.003,0.107,6.558   C247.68,193.618,248.021,190.451,247.559,188.464z" fill="#403755"/><path d="M423.998,165.726c-3.176-19.151-21.124-25.033-36.572-32.418c-29.226-10.905-80.436-35.597-110.392-27.878   c-10.386,1.558-17.718,19.71-24.67,27.405c-6.742,9.641-11.168,21.727-6.323,33.165c2.156,3.939,1.37,4.687-2.509,6.241   c-19.187,10.914-38.337,21.884-57.942,32.055c-20.361,10.563-40.294,21.952-60.963,31.922c-13.704,6.61-24.508,16.288-32.04,29.495   c-10.335,19.63-24.157,41.485-14.04,63.901c8.373,21.51,15.773,48.506,34.688,62.853c17.119,9.483,34.572-2.142,50.395-9.056   c46.001-21.819,88.851-49.632,135.115-70.907c3.23-0.915,7.283-4.737,10.44-2.189c7.538,7.666,12.643,17.36,18.878,26.056   c6.554,9.764,18.358,31.367,28.387,12.175c6.381-11.611,12.064-23.582,17.797-35.507c11.971-20.399,19.475-43.195,29.589-64.563   C413.974,222.064,428.97,195.082,423.998,165.726z M88.554,287.557c8.529-22.505,24.168-39.87,46.701-48.776   c27.959-14.366,81.717-42.349,105.344-58.718c3.273-3.385,9.586-4.478,11.505,0.958c1.41,6.741,9.378,15.968,1.445,21.174   c-29.236,21.662-149.69,77.31-168.124,93.487C86.383,292.704,87.443,290.119,88.554,287.557z M367.179,313.151   c-2.844,4.657-16.919,39.893-21.618,35.962c-10.902-12.593-18.633-27.638-29.258-40.4c0,0,0,0,0,0   c-6.854-8.31-13.53-5.711-21.743-1.252c-33.449,15.003-110.733,60.777-147.529,75.711c-11.279,5.259-27.041,10.373-35.346-2.3   c-14.096-19.692-23.522-42.887-29.045-66.351c0,0,0,0,0,0c-1.292-9.532,10.114-15.203,16.901-19.642   c32.909-18.853,66.392-36.595,100.168-53.841c20.492-11.705,42.619-21.735,60.538-37.255c8.563-15.25-9.684-31.354-9.741-47.203   c0,0,0,0,0,0c-7.688-32.347,99.71,13.188,113.706,17.509c11.404,5.829,37.754,9.722,39.463,24.285c0,0,0,0,0-0.001   C399.629,238.016,381.521,276.074,367.179,313.151z M415.905,199.074c-4.351,17.665-11.015,34.621-18.47,51.185   c4.258-17.19,17.943-45.767,8-61.761c0,0,0,0,0,0c0,0,0,0,0,0c-13.619-16.482-99.839-41.72-121.942-47.22c0,0,0,0,0,0   c-9.293-1.863-18.615-3.279-28.13-2.176c10.273-12.377,18.519-32.022,37.734-28.12c0,0,0,0,0,0   c14.937,0.396,111.861,28.266,121.82,48.329c0,0,0,0,0,0C420.805,171.753,419.093,186.137,415.905,199.074z" fill="#3F3756"/></g></svg>