<?xml version="1.0" ?><svg enable-background="new 0 0 500 500" id="Layer_1" version="1.1" viewBox="0 0 500 500" xml:space="preserve" xmlns="http://www.w3.org/2000/svg" xmlns:xlink="http://www.w3.org/1999/xlink"><g><path d="M444.466,227.674c-12.938-43.69-66.328-63.67-105.011-40.199c-48.516-18.056-99.448-42.977-146.149-64.318   c6.241-46.048-35.247-87.414-81.362-79.24C23.3,60.904,37.09,185.655,125.172,187.518c7.947,37.696,22.329,78.467,27.303,114.688   c-96.242,24.247-67.467,168.447,31.059,153.884c49.028-7.516,73.541-55.625,63.988-100.803   c24.818-18.46,50.606-35.566,75.326-54.146C374.833,352.805,467.585,301.344,444.466,227.674z M320.174,298.478   c-24.974,16.994-49.043,35.277-73.995,52.311c-16.991-33.521-48.5-55.166-88.931-50.544c-8.61-37.8-18.393-75.335-27.438-113.036   c28.586-6.757,56.633-24.738,62.493-57.761c44.068,15.294,94.558,42.583,140.608,62.143   C296.505,218.492,297.998,265.792,320.174,298.478z" fill="#3F3756"/><path d="M190.363,114.589c-1.527,89.386-134.486,89.372-136-0.003C55.89,25.203,188.85,25.217,190.363,114.589z" fill="#A7943F"/><path d="M81.113,60.531c-19.742,56.896,61,104.077,104.082,80.103c0,0-18.409,40.499-54.056,41.394   c-35.648,0.895-64.913-16.968-71.28-40.62C48.324,106.309,60.289,75.489,81.113,60.531z" fill="#8A7627"/><path d="M97.533,51.266c56.345-7.741,95.838,33.334,86.104,92.847C207.901,91.576,159.302,29.773,97.533,51.266z" fill="#B9A95D"/><path d="M104.783,156.548c-1.853-10.318-13.285-51.104,13.376-54.874c26.375-5.45,29.988,29.786,32.374,45.226   L104.783,156.548z" fill="#E7A746"/><path d="M100.384,124.626c11.05,12.186,36.526,20.146,50.148,22.273l-45.75,9.649   C103.998,153.228,100.141,129.308,100.384,124.626z" fill="#DC8A2C"/><path d="M106.319,108.169c21.011-11.09,36.789,12.795,42.024,25.671C144.041,114.154,132.69,89.305,106.319,108.169   z" fill="#EBB963"/><path d="M122.541,83.464c0.171,11.718-18.235,11.718-18.062-0.001C104.308,71.747,122.714,71.746,122.541,83.464z" fill="#E7A746"/><path d="M105.491,79.308c1.684,0.491,13.379,0.091,13.853,5.601c1.095,2.263,2.247,2.589,2.247,2.589   C125.37,75.99,112.562,69.61,105.491,79.308z" fill="#ECB963"/><path d="M443.151,249.692c-1.513,88.592-133.292,88.579-134.793-0.003   C309.872,161.1,441.651,161.114,443.151,249.692z" fill="#DB5273"/><path d="M329.948,200.259c0.298,54.682,55.331,94.313,107.566,76.455c-16.021,47.015-88,54.74-118.858,11.708   C302.797,265.434,307.978,211.104,329.948,200.259z" fill="#CC3653"/><path d="M354.581,185.69c47.302-6.442,87.005,44.445,85.327,84.706C459.449,216.616,406.84,169.251,354.581,185.69z   " fill="#E36F8C"/><path d="M357.241,283.423c-12.172-62.835,45.885-69.777,46.333-3.253l-45.802,4.753L357.241,283.423z" fill="#A7943F"/><path d="M370.603,234.925c2.258-0.304,26.086,13.645,26.045,19.398c1.759,3.599,5.105,9.166,5.105,9.166   C399.816,247.346,393.407,230.969,370.603,234.925z" fill="#B9A95D"/><path d="M356.226,260.563c6.712,8.83,36.267,19.941,47.348,19.607l-45.802,4.753   C356.728,283.085,356.099,261.153,356.226,260.563z" fill="#8A7627"/><path d="M377.209,214.3c0.181,12.41-19.312,12.41-19.129-0.001C357.898,201.89,377.392,201.89,377.209,214.3z" fill="#A7943F"/><path d="M362.451,206.268c4.118-0.866,14.121,5.369,10.744,11.812c-0.881,1.937-0.923,4.593-0.923,4.593   C384.493,216.802,373.768,198.279,362.451,206.268z" fill="#B9A95D"/><path d="M245.321,378.464c-1.666,97.545-146.763,97.53-148.415-0.003   C98.573,280.919,243.67,280.934,245.321,378.464z" fill="#E7A746"/><path d="M195.896,424.811c-54.301,1.409-91.726-60.725-66.047-108.025   c-98.202,76.457,42.961,201.822,107.312,95.495C225.361,420.192,211.169,424.811,195.896,424.811z" fill="#DC8A2C"/><path d="M133.197,314.665c52.437-16.473,114.352,25.918,107.886,87.091   C263.521,336.837,191.324,280.037,133.197,314.665z" fill="#ECB964"/><path d="M378.188,235.347c-1.091,0-2.182,0-3.273,0C376.006,235.008,377.097,235.009,378.188,235.347z" fill="#A7943F"/><path d="M152.599,144.395c-3.114-17.348-8.069-44.431-30.19-44.828c-29.891,1.765-24.955,35.757-19.174,56.367   c0.86,3.604,5.329,1.819,7.899,1.488c12.829-2.726,25.628-5.588,38.398-8.58C152.042,148.82,153.197,146.695,152.599,144.395z    M148.442,145.747c-14.031,2.275-29.383,7.386-42.59,9.067c-1.659-15.61-10.639-38.691,6.188-48.824h0   C136.321,91.031,149.071,128.003,148.442,145.747z" fill="#3F3756"/><path d="M113.803,73.275c-13.543,0.071-13.948,20.141-0.32,20.378C126.694,93.987,126.846,73.244,113.803,73.275z    M120.364,85.221c-2.871,11.623-20.019,3.257-12.902-6.312c0,0,0,0,0,0c0,0,0,0,0,0C111.701,72.518,122.788,77.95,120.364,85.221z" fill="#3F3756"/><path d="M405.451,275.735c0.871-57.025-59.883-59.857-50.319,0.623c0.822,3.141-0.641,10.08,4.05,9.877   c14.707-1.115,29.32-3.58,44.031-4.844C406.301,281.283,405.682,277.906,405.451,275.735z M401.402,278.581   c-13.654,2.005-27.46,3.324-41.111,5.235c-3.414,0.132-1.893-6.944-2.379-9.271c0.207-9.745-1.79-20.26,2.864-29.26   c5.913-13.185,25.654-13.016,33.089-1.22c6.456,9.942,7.035,21.924,8.418,33.326C402.406,278.254,402.136,278.472,401.402,278.581z   " fill="#3F3756"/><path d="M367.624,203.251c-14.138-0.339-14.78,22.192,0.07,22.255C382.036,225.804,382.021,202.931,367.624,203.251   z M373.478,220.853c-11.968,9.321-21.5-12.54-6.562-14.847c0,0,0,0,0,0C375.621,205.15,379.423,215.698,373.478,220.853z" fill="#3F3756"/><path d="M354.604,257.559c-0.004,0.001-0.007,0.002-0.011,0.003c0.003,0.003,0.006,0.006,0.01,0.009h0   C354.603,257.567,354.604,257.563,354.604,257.559z" fill="#3F3756"/><path d="M444.466,227.674c-12.938-43.69-66.328-63.67-105.011-40.199c-48.516-18.056-99.448-42.977-146.149-64.318   c6.241-46.048-35.247-87.414-81.362-79.24C23.3,60.904,37.09,185.655,125.172,187.518c7.947,37.696,22.329,78.467,27.303,114.688   c-96.242,24.247-67.467,168.447,31.059,153.884c49.028-7.516,73.541-55.625,63.988-100.803   c24.818-18.46,50.606-35.566,75.326-54.146C374.833,352.805,467.585,301.344,444.466,227.674z M92.651,172.157   C52.244,152.79,44.729,92.887,79.947,64.76c0,0,0,0,0,0c0,0,0,0,0,0c7.51-6.479,16.083-10.911,25.689-13.359c0,0,0,0,0,0   C225.831,32.569,205.039,217.064,92.651,172.157z M241.668,392.213c-1.974,9.354-5.367,18.525-10.96,26.369l0,0c0,0,0,0,0,0   c-63.7,84.95-182.485-15.979-108.778-92.287c0,0,0,0,0,0c5.278-5.177,11.506-9.399,18.207-12.494c0,0,0,0,0,0   C191.153,287.179,254.212,336.197,241.668,392.213z M320.174,298.478c-24.974,16.994-49.043,35.277-73.995,52.311   c-16.991-33.521-48.5-55.166-88.931-50.544c-8.61-37.8-18.393-75.335-27.438-113.036c28.586-6.757,56.633-24.738,62.493-57.761   c44.068,15.294,94.558,42.583,140.608,62.143C296.505,218.492,297.998,265.792,320.174,298.478z M439.662,264.119   c-1.516,5.82-3.236,11.795-6.435,16.992c0,0,0,0,0,0c-31.278,58.557-123.854,35.071-122.899-31.702   C316.445,154.036,454.832,169.722,439.662,264.119z" fill="#3F3756"/><path d="M149.265,416.256c-0.731-14.754-15.675-50.634,14.893-56.916c9.583-2.001,19.5,3.583,22.333,7.583   c4.398,7.653,11.207,31.724,11.75,39.083L149.265,416.256z" fill="#DB5273"/><path d="M150.233,367.042c19.631-6.427,32.323-0.098,42.622,16.775c0,0-3.419-14.875-8.058-18.739   C175.403,356.372,158.187,358.39,150.233,367.042z" fill="#E36E8C"/><path d="M147.837,407.148c-0.6,0.031,10.332,7.602,10.357,7.386l-8.93,2.201L147.837,407.148z" fill="#CC3653"/><path d="M169.732,338.902c0.176,12.043-18.742,12.043-18.564-0.001   C150.992,326.859,169.909,326.859,169.732,338.902z" fill="#DB5273"/><path d="M153.372,332.897c6.194-1.773,13.94,5.579,15.376,10.165C173.459,332.818,160.812,323.95,153.372,332.897z" fill="#E36E8C"/><path d="M200.175,403.426c-5.084-16.734-6.308-44.732-28.798-45.896c-27.576,1.036-30.766,19.994-26.977,42.595   c3.827,19.961,0.149,20.381,21.065,15.152c10.642-2.489,21.225-5.228,31.937-7.414   C200.055,407.334,200.697,406.163,200.175,403.426z M195.784,405.096c-11.748,2.756-23.538,5.443-35.349,7.87c0,0,0,0,0,0   c-12.317,3.41-8.949,3.633-11.185-8.009c-1.198-13.035-7.129-30.945,5.856-39.803c0,0,0,0,0,0   c15.78-9.657,32.058-1.565,35.846,16.232C191.804,385.123,199.062,403.933,195.784,405.096z" fill="#3F3756"/><path d="M160.398,326.839c-15.287,0.033-15.531,23.714-0.1,23.765C175.769,350.445,175.764,327.043,160.398,326.839   z M168.398,340.772c-4.649,14.859-24.97,0.242-12.508-8.811c0,0,0,0,0,0c0,0,0,0,0,0   C161.65,327.969,170.366,333.652,168.398,340.772z" fill="#3F3756"/></g></svg>