<?xml version="1.0" ?><svg enable-background="new 0 0 500 500" id="Layer_1" version="1.1" viewBox="0 0 500 500" xml:space="preserve" xmlns="http://www.w3.org/2000/svg" xmlns:xlink="http://www.w3.org/1999/xlink"><g><path d="M296.268,329.697c29.293-79.942,140.339-165.188,136.68-246.971c-1.774-34.113-38.673-37.989-65.959-37.486   c-40.863-0.981-80.925,0.286-120.274,3.139c-31.802,4.172-68.133,2.717-95.235,21.942c-16.213,13.892-28.446,32.849-30.631,54.31   c-0.303,1.689,0.469,2.439,1.877,2.292c20.843-0.51,41.717-0.368,62.552-1.616c2.857-0.118,2.67-0.385,1.844,2.331   c-19.134,57.705-61.042,103.656-91.226,155.56C66.763,328.334,45.779,410.76,103.66,441.89   c17.452,9.119,37.507,9.347,56.746,10.584c57.536,4.475,115.462,1.994,173.107,1.329c41.814-0.199,69.121-40.912,85.095-75.074   c2.47-6.484,8.814-19.317-2.163-20.776c-26.22-4.247-52.83-5.411-79.137-9.11c-14.742-1.879-29.503-3.61-44.297-5.032   C289.911,343.978,295.927,331.859,296.268,329.697z" fill="#58454D"/><path d="M124.307,122.166c9.666-37.99,36.75-65.664,86.589-66.772c23.289-6.042,160.452-8.291,181.182-3.733   c-27.894,10.221-47.034,34.401-56.746,61.149L124.307,122.166z" fill="#EDD5B9"/><path d="M192.732,122.166c-2.776,38.989-138.048,201.755-121.073,254.996c5.685,40.484,21.644,62.078,47.009,68.174   s206.366,4.283,206.366,4.283c-152.185-98.591,142.272-275.68,99.644-381.384c-32.596-41.645-80.551,20.911-87.757,46.043   L192.732,122.166z" fill="#E6BC97"/><path d="M297.995,308.657c2.969-47.105,37.681-84.106,46.351-129.379c2.293-14.013,1.883-28.88-7.632-40.301   c-6.82-3.375-15.773-2.697-23.348-4.19c-43.823-4.704-89.059,1.451-129.478,19.242c4.656-10.282,9.375-20.673,12.153-31.644   c0.229-1.017,0.746-1.211,1.643-1.255c31.469-1.616,62.932-3.36,94.397-5.052c15.245-0.838,28.006-2.409,43.251-3.267   c3.206-0.181,5.901-1.636,6.237-4.77c25.37-67.031,111.082-81.409,80.027,11.678C393.576,190.351,334.855,243.074,297.995,308.657z   " fill="#DBA278"/><path d="M87.617,420.718c21.832,12.778,48.952,9.262,73.176,7.81c42.747-3.57,86.985-19.306,128.909-7.705   c5.373,10.808,13.347,19.71,22.82,26.925c-10.037,2.408-111.896-0.097-116.499-0.261   C159.516,441.774,114.433,452.182,87.617,420.718z" fill="#DBA278"/><path d="M177.286,170.892c4.499-1.776-6.364,13.408-6.766,14.845c-8.356,12.374-13.038,26.261-18.762,39.815   c-7.077,22.667-5.193,47.493-15.546,69.214c-10.709,26.945-31.42,47.365-47.742,70.668c-7.981,13.708-6.816,30.099-4.886,45.216   c0.073,0.686,0.305,1.513-0.797,1.667C49.303,319.171,137.724,245.837,177.286,170.892z" fill="#ECCBAD"/><path d="M288.63,350.914c0.104,0.013,96.48,10.859,127.308,11.414c3.686,0.056-6.816,18.856-7.824,21.464   c-15.312,36.241-60.049,86.591-100.078,52.272C277.417,409.351,284.361,351.261,288.63,350.914z" fill="#E4C39D"/><path d="M203.861,118.362c9.741-1.498,19.372-3.598,28.632-6.968c19.138-5.708,39.761-9.267,55.835-21.963   c12.786-11.996,24.128-25.989,37.303-37.243c18.976-0.184,37.257-0.293,56.331,0.841c-23.063,12.554-40.006,32.465-49.635,56.706   c-0.363,1.029-0.892,1.431-1.959,1.489c-11.911,0.648-23.821,1.326-35.731,2.007C264.379,114.946,234.126,116.758,203.861,118.362z   " fill="#E4C39D"/><path d="M130.958,334.371c0,0-34.342,17.84-38.994,36.581c-14.977,84.01,62.8,3.079,55.408-25.509   C140.389,332.212,136.729,332.379,130.958,334.371z" fill="#ECCBAD"/><path d="M110.072,347.625c0.034-0.008,0.07-0.014,0.101-0.024c0,0,0,0,0,0c-0.034-0.004-0.069-0.008-0.103-0.012   C110.069,347.6,110.072,347.614,110.072,347.625z" fill="#58454D"/><path d="M144.403,344.469c0.114,0.008,0.227,0.016,0.341,0.024c0.004-0.012,0.008-0.025,0.011-0.037   C144.645,344.463,144.531,344.469,144.403,344.469z" fill="#58454D"/><path d="M126.624,380.662c-0.047,0.001-0.095,0.002-0.142,0.002c0.046,0.012,0.093,0.014,0.139,0.025   C126.622,380.681,126.622,380.67,126.624,380.662z" fill="#58454D"/><path d="M296.268,329.697c29.293-79.942,140.339-165.188,136.68-246.971c-1.774-34.113-38.673-37.989-65.959-37.486   c-40.863-0.981-80.925,0.286-120.274,3.139c-31.802,4.172-68.133,2.717-95.235,21.942c-16.213,13.892-28.446,32.849-30.631,54.31   c-0.303,1.689,0.469,2.439,1.877,2.292c20.843-0.51,41.717-0.368,62.552-1.616c2.857-0.118,2.67-0.385,1.844,2.331   c-19.134,57.705-61.042,103.656-91.226,155.56C66.763,328.334,45.779,410.76,103.66,441.89   c17.452,9.119,37.507,9.347,56.746,10.584c57.536,4.475,115.462,1.994,173.107,1.329c41.814-0.199,69.121-40.912,85.095-75.074   c2.47-6.484,8.814-19.317-2.163-20.776c-8.441-1.367-121.74-13.979-123.434-14.142   C289.911,343.978,295.927,331.859,296.268,329.697z M129.871,119.178c8.904-28.574,31.888-55.357,63.163-58.189   c61.31-6.866,123.004-8.172,184.649-6.022c-22.818,11.169-35.931,32.565-47.21,53.253C330.315,108.23,130,119.168,129.871,119.178z    M311.162,355.123c22.592,1.942,45.04,5.256,67.662,6.881c11.126,0.862,22.248,1.79,33.413,1.991c1.669,0.03,0.919,0.912,0.7,1.623   c-11.989,30.127-28.622,63.209-60.263,76.24c-41.112,17.067-68.255-31.402-65.62-67.243   C289.023,346.014,285.111,354.031,311.162,355.123z M287.07,330.766c-10.591,28.44-12.223,60.939,0.345,89.004l0,0   c5.229,10.519,12.99,19.183,22.21,26.205c-15.803,3.792-32.735,0.144-48.933,0.914c-30.286-0.613-60.692,0.2-90.815-3.433   c-31.427-0.924-70.38-1.34-85.993-34.154c-28.863-77.941,35.206-147.469,75.917-207.623c12.675-20.475,24.764-41.55,33.31-64.118   c6.19-18.768,1.716-11.265,23.892-13.788c41.401-2.226,76.923-4.113,118.845-6.474c5.879,0.01,4.602-6.562,7.109-10.196   c26.663-64.812,105.087-69.14,75.057,16.253C388.427,200.574,318.159,254.542,287.07,330.766z" fill="#58454D"/><path d="M127.292,385.68c0.009,0.008,0.018,0.009,0.027,0.016c0.002-0.005,0.002-0.009,0.004-0.015   C127.312,385.68,127.302,385.68,127.292,385.68L127.292,385.68z" fill="#58454D"/><polygon fill="#58454D" points="105.421,342.607 105.419,342.61 105.422,342.611  "/><path d="M342.25,181.768c30.424,10.909-51.713,1.003-145.758,4.321c-2.457,0.502-8.574-1.238-3.715-3.625   C242.125,176.346,292.629,180.458,342.25,181.768z" fill="#58454D"/><path d="M189.19,212.681c29.885,0.827,59.727,2.492,89.587,3.889c14.062,0.695,28.122,1.417,42.183,2.128   c4.475-0.506,5.669,6.479,0.764,6.486C316.566,224.953,124.005,215.26,189.19,212.681z" fill="#58454D"/><path d="M110.173,347.601c-2.067-0.412-16.964-0.703-10.557-4.479c11.682-1.639,123.812,5.988,123.921,5.995   c3.328,0.715,11.068,0.139,12.132,3.777c-2.651,4.16-15.227,1.413-20.092,1.826C164.784,351.646,127.176,349.435,110.173,347.601z" fill="#58454D"/><path d="M100.478,380.279c4.86,0.049,107.087,1.113,109.602,8.455c-3.018,4.261-10.737,1.556-15.378,1.791   c-110.002-8.349-70.805-3.529-95.444-7.636C97.914,382.573,96.757,382.139,100.478,380.279z" fill="#58454D"/><path d="M191.023,248.326c16.255,0.101,31.988,1.007,47.739,1.272c2.164-0.124,4.975,0.838,4.747,3.346   c-0.28,4.278-5.598,2.798-8.518,2.889c-25.679-1.064-51.414-1.507-76.993-4.173C136.34,246.984,188.224,247.971,191.023,248.326z" fill="#58454D"/><path d="M137.816,322.57c-9.502-1.109-1.802-12.702,3.992-13.816c2.922-1.166,3.621,1.526,4.134,3.85   C147.584,317.042,141.935,322.272,137.816,322.57z" fill="#ECCBAD"/></g></svg>