<?xml version="1.0" ?><svg enable-background="new 0 0 500 500" id="Layer_1" version="1.1" viewBox="0 0 500 500" xml:space="preserve" xmlns="http://www.w3.org/2000/svg" xmlns:xlink="http://www.w3.org/1999/xlink"><g><path d="M472.11,394.927c-5.792-52.277,6.164-118.038-20.002-164.291c-31.845-58.726-118.463-38.242-129.729,23.964   c-2.177,48.468,3.634,97.178,5.59,145.65c0.236,3.408,1.581,4.571,4.963,4.447c21.472-0.784,42.943-1.573,64.415-2.36   c0-0.155,0-0.309,0-0.463c24.279-0.294,48.612-0.873,72.837-2.856C472.794,399,472.024,396.669,472.11,394.927z" fill="#3F3756"/><path d="M379.337,85.143c-52.697,0.925-51.532,79.428-0.339,79.776C431.127,164.84,431.717,85.484,379.337,85.143z" fill="#3F3756"/><path d="M218.312,162.269c-38.437-0.043-39.195,59.063-0.62,59.452   C256.447,221.297,257.247,163.187,218.312,162.269z" fill="#3F3756"/><path d="M295.05,400.515c-2.037-21.034-3.19-42.143-4.586-63.229c-2.653-24.015,0.479-50.489-12.532-71.914   c-32.313-53.8-106.699-22.42-108.585,34.803c-2.291,35.858-0.893,71.869,0.898,107.688c0.57,2.228,0.974,2.509,3.257,2.428   c19.786-0.701,39.571-1.403,59.357-2.104c0-0.005,0-0.01,0-0.014c20.181-0.69,40.362-1.389,60.545-2.042   C295.831,405.764,294.936,402.286,295.05,400.515z" fill="#3F3756"/><path d="M97.792,253.245c-3.978-29.43-47.739-25.406-46.995,4.126C53.217,290.253,101.287,286.164,97.792,253.245z" fill="#3F3756"/><path d="M130.88,407.388c-2.483-28.867,1.855-59.945-9.089-87.235c-11.839-27.714-49.313-33.638-71.421-14.756   c-31.111,22.449-20.872,62.441-21.043,95.426c0.905,3.914-1.72,12.53,3.129,13.703c31.32,1.384,61.794-1.989,95.62-2.404   C130.577,412.333,131.038,409.311,130.88,407.388z" fill="#3F3756"/><path d="M416.453,124.932c-0.84,49.169-73.977,49.161-74.809-0.002C342.484,75.764,415.621,75.771,416.453,124.932z   " fill="#C7A955"/><path d="M332.217,401.249l136.685-5c-9.417-66.315,25.651-184.911-77.996-198.254   C284.435,212.78,336.087,340.547,332.217,401.249z" fill="#DBB25D"/><path d="M244.842,192.318c-0.609,35.638-53.62,35.633-54.223-0.001   C191.227,156.679,244.238,156.685,244.842,192.318z" fill="#A7943F"/><path d="M172.536,407.499l119.367-5.25c-8.83-40.059,19.128-159.427-63.995-163.304   c-41.005,2.304-55.755,45.316-56.255,52.185C169.108,312.276,170.724,388.391,172.536,407.499z" fill="#C7A955"/><path d="M96.381,256.577c-0.494,28.919-43.51,28.914-44-0.001C52.875,227.658,95.892,227.663,96.381,256.577z" fill="#DBB25D"/><path d="M32.201,412.749l95.618-4.083c0,0-0.5-61.771-3.258-75.192c-12.992-52.45-81.846-42.477-93.075,2.611   C29.06,354.203,32.888,398.808,32.201,412.749z" fill="#A7943F"/><path d="M331.774,237.391c-0.749,80.996,54.405,140.023,135.36,144.542c1.379,20.656,2.439,12.247-23.351,14.688   c-29.112,1.009-58.224,2.045-87.336,3.059c-3.878-0.694-23.545,2.792-23.542-0.583c-1.769-37.27-5.951-74.485-6.812-111.769   C326.452,270.601,324.672,253.079,331.774,237.391z" fill="#CC973F"/><path d="M463.797,274.639c-18.513-31.47-6.604-22.345-39.704-40.039c-6.525-4.178-6.607-12.674-9.933-19.017   c-7.811-14.831-25.684-13.775-39.663-13.737C420.44,185.805,460.068,231.929,463.797,274.639z" fill="#E3C279"/><path d="M181.894,268.819c-11.725,63.555,46.919,131.805,108.501,127.402c-0.002,1.796,1.652,6.228-0.327,6.792   c-38.203,1.484-76.422,2.71-114.622,4.322c-1.165,0.058-1.56-0.246-1.639-1.48c-0.142-14.075-1.442-28.089-1.918-42.149   C172.523,332.661,164.652,296.439,181.894,268.819z" fill="#B28C38"/><path d="M285.435,304.354c-1.582-0.227-2.354-1.335-2.723-2.713c-3.239-14.222-15.483-23.249-27.19-30.618   c-20.074-11.166-12.273-28.771-40.831-27.87C252.493,228.055,287.728,268.017,285.435,304.354z" fill="#D3BA72"/><path d="M45.293,314.321c-18.801,47.144,36.631,90.123,80.636,88.024c-0.196,1.66,1.543,5.185-1.11,5.228   c-29.956,0.971-60.015,1.086-89.876,3.647c-0.863,0.111-1.312-0.077-1.309-1.105c-0.311-11.969-1.395-23.912-1.908-35.884   C29.742,353.647,30.035,330.157,45.293,314.321z" fill="#8A7628"/><path d="M124.848,364.006c-4.54-19.661-6.734-31.646-27.772-40.013c-15.226-6.195-15.581-22.289-35.554-22.058   C102.832,285.472,130.66,325.658,124.848,364.006z" fill="#B9A95D"/><path d="M370.982,89.865c-25.986,20.424,3.147,63.851,31.376,63.969   C354.731,188.418,313.783,106.098,370.982,89.865z" fill="#B28C38"/><path d="M415.67,121.14c0.318,3.263-2.006,1.431-3.018-0.097c-0.855-2.565-2.94-3.486-5.292-4.099   c-15.121-3.926-3.037-17.753-16.901-24.393c-0.838-0.56-2.165-0.968-1.909-2.468C403.01,93.567,414.193,106.352,415.67,121.14z" fill="#D3BA72"/><path d="M212.271,166.825c-15.954,14.348,1.155,44.634,19.128,47.988   C196.168,233.202,173.315,177.348,212.271,166.825z" fill="#8A7628"/><path d="M244.281,189.701c0,1.072,0,2.145,0,3.584c-23.887-11.284-9.849-17.528-28.229-27.032   C230.329,165.277,242.926,175.374,244.281,189.701z" fill="#B9A95D"/><path d="M75.238,236.558c-22.838,10.206-10.092,34.102,9.278,40.344c-33.911,15.698-46.737-40.962-8.634-40.453   C75.706,236.715,75.481,236.688,75.238,236.558z" fill="#CC973F"/><path d="M75.238,236.558c10.756-0.138,19.017,9.006,20.202,17.207c-0.075,1.543-1.387,1.499-2.336,1.616   c-5.145,0.635-10.256-3.234-11.153-8.347C81.788,241.069,79.297,239.903,75.238,236.558z" fill="#E3C278"/><path d="M268.414,293.87c-2.665,13.648-22.087-9.672-7.754-9.446C263.966,286.263,268.172,289.842,268.414,293.87z" fill="#D3BA72"/><path d="M108.869,345.898c-6.376,0.635-12.683-13.232-3.264-12.219   C110.627,334.758,116.704,344.735,108.869,345.898z" fill="#B9A95D"/><path d="M472.11,394.927c-5.792-52.277,6.164-118.038-20.002-164.291c-31.845-58.726-118.463-38.242-129.729,23.964   c-2.177,48.468,3.634,97.178,5.59,145.65c0.236,3.408,1.581,4.571,4.963,4.447c21.472-0.784,42.943-1.573,64.415-2.36   c0-0.155,0-0.309,0-0.463c24.279-0.294,48.612-0.873,72.837-2.856C472.794,399,472.024,396.669,472.11,394.927z M464.702,393.921   c-35.779,1.022-71.546,2.46-107.32,3.658c-3.838-0.673-22.975,2.726-22.997-0.569c-1.654-27.596-3.63-55.176-5.45-82.76   c-0.59-28.809-7.4-63.007,11.741-87.325c28.345-34.892,80.99-33.975,105.306,4.899c28.326,43.607,13.977,99.265,19.526,148.42l0,0   C464.937,382.964,467.776,393.807,464.702,393.921z" fill="#3F3756"/><path d="M379.337,85.143c-52.697,0.925-51.532,79.428-0.339,79.776C431.127,164.84,431.717,85.484,379.337,85.143z    M401.174,152.742C401.174,152.742,401.174,152.742,401.174,152.742c-35.237,27.328-78.479-21.914-46.52-53.242   C390.72,67.338,438.117,121.361,401.174,152.742z" fill="#3F3756"/><path d="M218.312,162.269c-38.437-0.043-39.195,59.063-0.62,59.452   C256.447,221.297,257.247,163.187,218.312,162.269z M230.282,213.503c-27.833,15.829-53.441-25.205-25.717-42.672   C232.912,154.174,259,196.513,230.282,213.503z" fill="#3F3756"/><path d="M97.792,253.245c-3.978-29.43-47.739-25.406-46.995,4.126C53.217,290.253,101.287,286.164,97.792,253.245z    M89.445,270.433c-1.5,1.716-3.252,3.16-5.359,4.113h0c-31.435,14.676-43.419-38.17-8.025-37.596c0,0,0,0,0,0c0,0,0.001,0,0.001,0   c9.902,0.632,17.033,8.475,18.178,16.093c0,0,0,0,0,0c0,0,0,0,0,0C95.646,259.667,93.828,265.419,89.445,270.433z" fill="#3F3756"/><path d="M295.05,400.515c-2.037-21.034-3.19-42.143-4.586-63.229c-2.653-24.015,0.479-50.489-12.532-71.914   c-32.313-53.8-106.699-22.42-108.585,34.803c-2.291,35.858-0.893,71.869,0.898,107.688c0.57,2.228,0.974,2.509,3.257,2.428   c19.786-0.701,39.571-1.403,59.357-2.104c0-0.005,0-0.01,0-0.014c20.181-0.69,40.362-1.389,60.545-2.042   C295.831,405.764,294.936,402.286,295.05,400.515z M288.367,400.204c-37.133,1.441-74.282,2.635-111.412,4.202   c-2.871,0.101-1.254-4.511-1.723-6.341c1.65-51.849-23.206-129.741,39.867-153.244c36.748-14.661,70.99,24.157,68.763,59.488   C284.174,335.898,288.455,369.865,288.367,400.204z" fill="#3F3756"/><path d="M130.88,407.388c-2.483-28.867,1.855-59.945-9.089-87.235c-11.839-27.714-49.313-33.638-71.421-14.756   c-31.111,22.449-20.872,62.441-21.043,95.426c0.905,3.914-1.72,12.53,3.129,13.703c31.32,1.384,61.794-1.989,95.62-2.404   C130.577,412.333,131.038,409.311,130.88,407.388z M123.464,406.443c-27.565,0.696-55.149,1.387-82.684,3.019   c-1.707-0.358-5.482,1.859-5.832-0.55C34.023,372.02,21.3,321.853,63.531,302.83h0c25.338-12.053,55.753,7.673,59.183,34.584   c1.09,21.268,0.841,42.654,1.827,63.954h0c0,0,0,0,0,0C124.307,402.966,126.071,406.411,123.464,406.443z" fill="#3F3756"/></g></svg>