<?xml version="1.0" ?><svg enable-background="new 0 0 500 500" id="Layer_1" version="1.1" viewBox="0 0 500 500" xml:space="preserve" xmlns="http://www.w3.org/2000/svg" xmlns:xlink="http://www.w3.org/1999/xlink"><g><path d="M432.559,208.283c-3.56-10.167-9.605-19.53-10.606-30.47c-0.736-6.211-1.079-12.462-2.213-18.636   c-4.1-32.198-35.147-32.21-45.521-58.3c-1.772-4.384-4.212-8.422-7.262-12.056c-13.114-20.593-38.596-21.633-60.676-23.201   c-50.076-0.509-103.428-0.649-149.272,21.965c-4.539,2.373-8.812,5.166-12.151,9.126c-0.975,1.156-1.273,0.814-1.892-0.225   c-11.319-19.433-37.194-24.114-57.239-16.948c-25.071,8.24-19.413,39.549-20.868,60.417c2.794,46.856,4.941,94.497,15.736,140.288   c7.628,23.836,38.231,19.219,57.151,13.705c24.956-11.306,5.5-14.929,45.054-8.143c53.324,7.679,70.086,65.679,76.98,111.499   c3.614,13.695-3.022,37.968,17.986,36.998l0,0c2.272,0.207,4.434-0.54,6.683-0.265c0,0-0.001,0-0.001,0   c37.019-4.619,37.425-47.72,38.024-76.762c2.806-51.121,25.337-82.26,74.178-98.724   C419.183,252.337,443.144,234.229,432.559,208.283z" fill="#3F3756"/><path d="M88.395,83.27c-40.932,16.333-8.085,152.302-7.254,179.499c2.77,45.592,56.085,36.529,73.256,13.001   c5.998-10.5,6.998-50,5.248-79.75C153.74,141.329,156.559,69.182,88.395,83.27z" fill="#5E78BB"/><path d="M68.863,149.772c0,0,21.84,129.019,53.311,120.009c31.471-9.01,19.869-69.459,21.281-85.26   s10.943-38.039,10.943-38.039s10.005,103.536,2.126,123.662c-7.879,20.127-34.766,23.328-45.08,23.377s-24.271-0.06-28.33-21.934   C79.056,249.712,68.863,149.772,68.863,149.772z" fill="#4058A2"/><path d="M70.395,145.115c0,0,3.772-42.91,21.194-41.914s23.701,0.694,29.941-1.806   c6.24-2.5,16.954,12.673,21.347,20.587c4.393,7.913,0.843,26.913,0.618,33.413s-4.739,16.432-4.732,32.591   c0.007,16.159,5.613,34.909,5.613,34.909s-0.794-42.233,0.686-48.078c1.48-5.845,6.957-21.171,6.832-26.296   c-1.338-19.887-11.664-66.058-45.376-64.998C63.31,78.74,69.183,125.499,70.395,145.115z" fill="#7A8FC7"/><path d="M129.382,136.841c-0.448,29.037-35.43,29.033-35.875-0.001C93.955,107.804,128.936,107.808,129.382,136.841   z" fill="#4058A2"/><path d="M109.215,114.943c0,0-13.821,5.244-13.821,13.244s2.75,19,10.5,19.917c7.75,0.917,22-5.5,20.667-15   S116.036,112.782,109.215,114.943z" fill="#EBD1BC"/><path d="M96.645,134.604c12.527-13.549,3.036-6.807,18.098-1.583c6.787,0.819,8.986-1.334,9.736,1.583   C121.072,148.39,100.966,151.876,96.645,134.604z" fill="#E2BFA3"/><path d="M155.395,278.52c63.897-3.122,93.565,38.727,107.499,102.253c4.001,21.997,1.251,45.747,7.251,48.247   c64.368,14.236,39.441-96.652,60.248-127.252c27.872-52.751,86.109-38.661,98.755-72.514c1.997-18.818-11.836-36.818-11.67-44.651   c0.167-7.833-2.833-40.833-12.333-48.5c-9.5-7.667-24-15.5-30.333-25.833c-6.333-10.333-13.333-30.352-39.333-35.926   c-34.865-11.859-167.074-3.814-192.668,28.094C149.689,121.918,169.596,256.735,155.395,278.52z" fill="#EBD1BC"/><path d="M144.846,100.639c28.968,11.121,19.778,121.663,43.301,138.797c19.331,19.668,58.916,35.829,80.624,79.749   c28.363,56.537,23.465,78.586,11.374,110.87c0,0-11.622-0.92-12.481-4.323s-6.404-72.46-23.462-97.96   c-27.356-48.828-53.741-44.474-88.807-49.25c0,0,8.449-55.62,2.6-85.185C152.145,163.77,144.846,100.639,144.846,100.639z" fill="#E2BFA3"/><path d="M351.148,88.99c8.686,9.664,11.298,44.96,33.665,50.795c17.332,6.985,22.432,22.235,24.548,39.944   c2.117,17.708,15.162,26.581,7.306,40.645c-7.856,14.064-53.856,13.963-76.856,29.847c-29.969,25.276-25.123,70.155-22,91.884   c16.503-88.04,68.622-66.479,111.535-108.664c2.798-12.336-5.725-33.791-8.989-45.454c-10.703-68.419-17.206-41.016-50.959-83.16   C366.42,95.805,359.485,90.209,351.148,88.99z" fill="#E2BFA3"/><path d="M144.846,229.252C144.846,229.252,144.846,229.252,144.846,229.252   C144.867,229.247,144.87,229.24,144.846,229.252z" fill="#3F3756"/><path d="M432.559,208.283c-3.56-10.167-9.605-19.53-10.606-30.47c-0.736-6.211-1.079-12.462-2.213-18.636   c-4.1-32.198-35.147-32.21-45.521-58.3c-1.772-4.384-4.212-8.422-7.262-12.056c-13.114-20.593-38.596-21.633-60.676-23.201   c-50.076-0.509-103.428-0.649-149.272,21.965c-13.54,7.08-12.18,12.029-14.042,8.901c-11.319-19.433-37.194-24.114-57.239-16.948   c-25.071,8.24-19.413,39.549-20.868,60.417c2.794,46.856,4.941,94.497,15.736,140.288c7.628,23.836,38.231,19.219,57.151,13.705   c24.956-11.306,5.5-14.929,45.054-8.143c53.324,7.679,70.086,65.679,76.98,111.499c3.614,13.695-3.022,37.968,17.986,36.998l0,0   c39.183,3.57,43.941-39.947,44.706-77.027c2.806-51.121,25.337-82.26,74.178-98.724   C419.183,252.337,443.144,234.229,432.559,208.283z M156.361,244.4c0.476,18.804-9.88,40.701-30.506,42.974   c-12.461,1.764-31.603,6.594-36.915-9.112c-10.146-46.185-12.852-94.027-16.238-141.087c0.125-15.036-1.051-44.712,16.922-49.194   c35.151-10.443,51.951,12.313,56.15,44.524l0,0c0,0,0,0,0,0c3.143,11.969,3.417,24.494-0.909,36.214   c-5.491,18.631,1.837,26.981-0.075,74.81c0,0,0,0,0,0c-0.123,17.042-3.157,29.249-20.461,35.345c-1.436,0.7-1.124,2.12,0.518,1.527   c46.635-5.409,10.036-86.012,25.452-119.115C153.268,188.873,157.048,216.605,156.361,244.4z M361.612,264.842   c-81.159,42.548-19.686,150.584-78.15,160.887l0,0c-17.862,3.029-10.717-7.414-13.169-19.898   c-6.784-66.398-32.175-134.91-110.639-131.699c8.351-19.098,5.682-40.865,4.552-61.278c-2.772-32.654-5.081-65.559-13.373-97.388   c-2.648-5.019,8.38-11.801,12.168-14.136c17.035-10.039,36.522-13.623,55.765-15.58c-23.306-1.75-53.16,3.312-71.105,19.652   c10.925-30.548,193.883-45.364,210.2-14.39v0c7.281,7.695,8.84,18.628,15.196,26.926c11.948,14.787,34.963,20.404,37.298,41.991   c2.282,14.517,2.355,29.42,9.801,42.58C443.234,244.336,391.798,246.199,361.612,264.842z" fill="#3F3756"/><path d="M412.684,193.404c1.01,6.734,6.7,12.887,6.686,19.576c-6.236-9.101-14.646-18.39-11.983-30.218   c0.185-1.24,0.284-2.698,1.973-3.033C412.304,183.767,410.997,188.953,412.684,193.404z" fill="#3F3756"/><path d="M244.202,307.236c-1.588,1.454-4.417-3.057-5.513-4.235c-7.006-9.758-16.594-16.297-26.968-21.881   c-3.082-2.066-8.186-3.577-9.921-6.731C219.613,277.752,236.79,289.782,244.202,307.236z" fill="#3F3756"/><path d="M395.34,143.377c-11.85-9.358-28.806-13.127-32.871-29.726c-0.573-2.712-3.086-6.19-1.933-8.764   c2.615,0.951,3.846,4.937,5.153,7.341C370.86,126.89,387.66,130.992,395.34,143.377z" fill="#3F3756"/><path d="M109.199,139.787c-4.487,0.24-9.224-3.503-7.865-7.451c0.791-0.323,0.725,0.569,0.97,0.967   c1.644,2.67,4.322,3.24,7.13,3.494C115.792,136.91,114.53,139.815,109.199,139.787z" fill="#403856"/><path d="M128.882,128.215c-4.468-27.558-39.373-17.418-35.914,7.94C96.932,163.009,133.199,151.171,128.882,128.215   z M121.784,132.432c-0.158,0.495-0.156,0.96-0.226,1.44l0,0c-1.829,13.272-21.101,15.386-23.235,1.647   C94.482,115.987,124.493,110.378,121.784,132.432z" fill="#3F3756"/></g></svg>