<?xml version="1.0" ?><svg height="72" viewBox="0 0 72 72" width="72" xmlns="http://www.w3.org/2000/svg"><g fill="none" fill-rule="evenodd"><path d="M36,72 L36,72 C55.882251,72 72,55.882251 72,36 L72,36 C72,16.117749 55.882251,-3.65231026e-15 36,0 L36,0 C16.117749,3.65231026e-15 -2.4348735e-15,16.117749 0,36 L0,36 C2.4348735e-15,55.882251 16.117749,72 36,72 Z" fill="#EC4989"/><path d="M47.4545775,52.9985302 C47.2457223,51.7624787 46.1534662,45.7458992 43.4637502,38.3606326 C50.0822014,37.3023693 55.8144294,39.1169381 56.2377844,39.2552178 C55.3261598,44.9670175 52.0550362,49.8914692 47.4545775,52.9985302 L47.4545775,52.9985302 L47.4545775,52.9985302 Z M36.0014112,56.4978541 C31.0396895,56.4978541 26.4900335,54.734082 22.9423179,51.7991651 C23.2132651,52.0192839 23.4023637,52.1575636 23.4023637,52.1575636 C23.4023637,52.1575636 27.331099,43.5898642 39.4870348,39.3539891 C39.5321926,39.3370569 39.5801729,39.3257687 39.6253307,39.3116585 C42.5097901,46.8041625 43.6980067,53.0803692 44.0028224,54.8723617 C41.5445405,55.9165148 38.8378903,56.4978541 36.0014112,56.4978541 L36.0014112,56.4978541 L36.0014112,56.4978541 Z M15.5025578,35.998589 C15.5025578,35.7812923 15.5138472,35.5668176 15.519492,35.3523429 C15.8835774,35.360809 26.0102311,35.5893939 36.5630623,32.4315362 C37.1501147,33.5801047 37.7117657,34.7512493 38.2254366,35.91675 C37.9544893,35.9901229 37.6863644,36.0719619 37.4182395,36.162267 C26.3573823,39.7349638 20.7465161,49.6854606 20.7465161,49.6854606 C20.7465161,49.6854606 20.7549832,49.6939267 20.7549832,49.6967488 C17.4895043,46.0647892 15.5025578,41.264507 15.5025578,35.998589 L15.5025578,35.998589 L15.5025578,35.998589 Z M27.254895,17.4662826 C27.5286647,17.8303251 31.3191039,22.9692516 34.8668195,29.2736786 C25.0252249,31.8897055 16.4819192,31.7852901 15.9428471,31.776824 C17.272182,25.4272444 21.536779,20.1641484 27.254895,17.4662826 L27.254895,17.4662826 L27.254895,17.4662826 Z M31.0904922,16.1004174 C31.0904922,16.1032395 31.0876698,16.1060615 31.0876698,16.1060615 C31.0876698,16.1060615 31.0622685,16.1117056 31.0255777,16.1173496 C31.0481566,16.1117056 31.0679132,16.1088835 31.0904922,16.1004174 L31.0904922,16.1004174 L31.0904922,16.1004174 Z M49.5374846,20.6213181 C49.486682,20.6975131 46.5683542,25.1422188 38.8294232,28.0404492 C35.3268654,21.6033864 31.4771565,16.4898583 31.1695184,16.0834852 C32.7189981,15.7081545 34.3362145,15.504968 36.0014112,15.504968 C41.1889222,15.504968 45.9276768,17.4408842 49.5374846,20.6213181 L49.5374846,20.6213181 L49.5374846,20.6213181 Z M56.4917975,35.7954024 C56.1954489,35.7304956 49.2580702,34.2376389 42.2162639,35.123758 C42.0695008,34.7738256 41.9255601,34.4210712 41.7731522,34.0683168 C41.3469748,33.0636722 40.8869289,32.0703157 40.4099488,31.0938915 C48.5044981,27.789288 51.7897336,23.0398025 51.8292468,22.9833617 C54.7024167,26.4742195 56.4438173,30.9330355 56.4917975,35.7954024 L56.4917975,35.7954024 L56.4917975,35.7954024 Z M59.5145528,31.1700864 C59.1984477,29.6292551 58.72429,28.108178 58.1118363,26.6576518 C57.5134944,25.235346 56.7655671,23.8638368 55.8991004,22.5826327 C55.0439231,21.3127168 54.0560945,20.1161738 52.9723055,19.0325122 C51.8856941,17.9460286 50.6918328,16.9611382 49.4189451,16.1032395 C48.1375904,15.2340526 46.7659199,14.4918573 45.3434468,13.8879417 C43.89275,13.278382 42.3743165,12.8042801 40.8333039,12.4910342 C39.2527783,12.1665001 37.6270947,12 36.0014112,12 C34.3729053,12 32.7472217,12.1665001 31.1666961,12.4910342 C29.6256835,12.8042801 28.10725,13.278382 26.6565532,13.8879417 C25.2340801,14.4918573 23.8624096,15.2340526 22.5782325,16.1032395 C21.3081672,16.9611382 20.1143059,17.9460286 19.0276945,19.0325122 C17.9439055,20.1161738 16.9588993,21.3127168 16.1008996,22.5826327 C15.2344329,23.8638368 14.4865056,25.235346 13.8881637,26.6576518 C13.2728876,28.108178 12.8015523,29.6292551 12.4854472,31.1700864 C12.1636973,32.7476042 12,34.3730966 12,35.998589 C12,37.6297254 12.1636973,39.2552178 12.4854472,40.8355576 C12.8015523,42.376389 13.2728876,43.894644 13.8881637,45.3423482 C14.4865056,46.764654 15.2344329,48.1418073 16.1008996,49.4230113 C16.9588993,50.6929273 17.9439055,51.8838262 19.0276945,52.9731319 C20.1143059,54.0567935 21.3081672,55.0388618 22.5782325,55.8995826 C23.8624096,56.7659474 25.2340801,57.5109648 26.6565532,58.1120583 C28.10725,58.727262 29.6256835,59.1957199 31.1666961,59.5089658 C32.7472217,59.8363219 34.3729053,60 36.0014112,60 C37.6270947,60 39.2527783,59.8363219 40.8333039,59.5089658 C42.3743165,59.1957199 43.89275,58.727262 45.3434468,58.1120583 C46.7659199,57.5109648 48.1375904,56.7659474 49.4189451,55.8995826 C50.6918328,55.0388618 51.8856941,54.0567935 52.9723055,52.9731319 C54.0560945,51.8838262 55.0439231,50.6929273 55.8991004,49.4230113 C56.7655671,48.1418073 57.5134944,46.764654 58.1118363,45.3423482 C58.72429,43.894644 59.1984477,42.376389 59.5145528,40.8355576 C59.8363027,39.2552178 60,37.6297254 60,35.998589 C60,34.3730966 59.8363027,32.7476042 59.5145528,31.1700864 L59.5145528,31.1700864 L59.5145528,31.1700864 Z" fill="#FFF"/></g></svg>