<?xml version="1.0" ?><svg style="enable-background:new 0 0 100 100;" version="1.1" viewBox="0 0 100 100" xml:space="preserve" xmlns="http://www.w3.org/2000/svg" xmlns:xlink="http://www.w3.org/1999/xlink"><style type="text/css">
	.st0{fill:#FFFFFF;}
	.st1{fill:#D43C89;}
	.st2{fill:#B2005F;}
	.st3{fill:none;stroke:#000000;stroke-width:3;stroke-linecap:round;stroke-linejoin:round;stroke-miterlimit:10;}
	
		.st4{fill-rule:evenodd;clip-rule:evenodd;fill:none;stroke:#000000;stroke-width:3;stroke-linecap:round;stroke-linejoin:round;stroke-miterlimit:10;}
	
		.st5{fill-rule:evenodd;clip-rule:evenodd;fill:none;stroke:#040404;stroke-width:3;stroke-linecap:round;stroke-linejoin:round;stroke-miterlimit:10;}
	.st6{fill-rule:evenodd;clip-rule:evenodd;}
	.st7{fill-rule:evenodd;clip-rule:evenodd;fill:#040404;}
	.st8{fill:url(#SVGID_1_);}
	.st9{fill:url(#SVGID_2_);}
	.st10{fill:url(#SVGID_3_);}
	.st11{fill:url(#SVGID_4_);}
	.st12{fill:url(#SVGID_5_);}
	.st13{fill:url(#SVGID_6_);}
	.st14{fill:url(#SVGID_7_);}
	.st15{fill:url(#SVGID_8_);}
	.st16{fill:url(#SVGID_9_);}
	.st17{fill:url(#SVGID_10_);}
	.st18{fill:url(#SVGID_11_);}
	.st19{fill:url(#SVGID_12_);}
	.st20{fill:url(#SVGID_13_);}
	.st21{fill:url(#SVGID_14_);}
	.st22{fill:url(#SVGID_15_);}
	.st23{fill:url(#SVGID_16_);}
	.st24{fill:url(#SVGID_17_);}
	.st25{fill:url(#SVGID_18_);}
	.st26{fill:url(#SVGID_19_);}
	.st27{fill:url(#SVGID_20_);}
	.st28{fill:url(#SVGID_21_);}
	.st29{fill:url(#SVGID_22_);}
	.st30{fill:url(#SVGID_23_);}
	.st31{fill:url(#SVGID_24_);}
	.st32{fill:url(#SVGID_25_);}
	.st33{fill:url(#SVGID_26_);}
	.st34{fill:url(#SVGID_27_);}
	.st35{fill:url(#SVGID_28_);}
	.st36{fill:url(#SVGID_29_);}
	.st37{fill:url(#SVGID_30_);}
	.st38{fill:url(#SVGID_31_);}
	.st39{fill:url(#SVGID_32_);}
	.st40{fill:url(#SVGID_33_);}
	.st41{fill:url(#SVGID_34_);}
	.st42{fill:url(#SVGID_35_);}
	.st43{fill:url(#SVGID_36_);}
	.st44{fill:url(#SVGID_37_);}
	.st45{fill:url(#SVGID_38_);}
	.st46{fill:url(#SVGID_39_);}
	.st47{fill:url(#SVGID_40_);}
	.st48{fill:url(#SVGID_41_);}
	.st49{fill:url(#SVGID_42_);}
	.st50{fill:url(#SVGID_43_);}
	.st51{fill:url(#SVGID_44_);}
	.st52{fill:url(#SVGID_45_);}
	.st53{fill:#040404;}
	.st54{fill:url(#SVGID_46_);}
	.st55{fill:url(#SVGID_47_);}
	.st56{fill:url(#SVGID_48_);}
	.st57{fill:url(#SVGID_49_);}
	.st58{fill:url(#SVGID_50_);}
	.st59{fill:url(#SVGID_51_);}
	.st60{fill:url(#SVGID_52_);}
	.st61{fill:url(#SVGID_53_);}
	.st62{fill:url(#SVGID_54_);}
	.st63{fill:url(#SVGID_55_);}
	.st64{fill:url(#SVGID_56_);}
	.st65{fill:url(#SVGID_57_);}
	.st66{fill:url(#SVGID_58_);}
	.st67{fill:url(#SVGID_59_);}
	.st68{fill:url(#SVGID_60_);}
	.st69{fill:url(#SVGID_61_);}
	.st70{fill:url(#SVGID_62_);}
	.st71{fill:none;stroke:#000000;stroke-width:3;stroke-miterlimit:10;}
	.st72{fill:none;stroke:#FFFFFF;stroke-miterlimit:10;}
	.st73{fill:#4BC9FF;}
	.st74{fill:#5500DD;}
	.st75{fill:#FF3A00;}
	.st76{fill:#FFC794;}
	.st77{fill:#F1F1F1;}
	.st78{fill:#EB4E00;}
	.st79{fill:#E6162D;}
	.st80{fill:#FF9933;}
	.st81{fill:#B92B27;}
	.st82{fill:#00ACED;}
	.st83{fill:#BD2125;}
	.st84{fill:#1877F2;}
	.st85{fill:#6665D2;}
	.st86{fill:#CE3056;}
	.st87{fill:#5BB381;}
	.st88{fill:#61C3EC;}
	.st89{fill:#E4B34B;}
	.st90{fill:#181EF2;}
	.st91{fill:#FF0000;}
	.st92{fill:#FE466C;}
	.st93{fill:#FA4778;}
	.st94{fill:#FF7700;}
	.st95{fill:#D95040;}
	.st96{fill:#58A55C;}
	.st97{fill:#4E86EC;}
	.st98{fill:#B6332A;}
	.st99{fill:#F3BD42;}
	.st100{fill-rule:evenodd;clip-rule:evenodd;fill:#1F6BF6;}
	.st101{fill:#520094;}
	.st102{fill:#4477E8;}
	.st103{fill:#3D1D1C;}
	.st104{fill:#FFE812;}
	.st105{fill:#344356;}
	.st106{fill:#00CC76;}
	.st107{fill-rule:evenodd;clip-rule:evenodd;fill:#345E90;}
	.st108{fill:#1F65D8;}
	.st109{fill:#EB3587;}
	.st110{fill-rule:evenodd;clip-rule:evenodd;fill:#603A88;}
	.st111{fill:#E3CE99;}
	.st112{fill:#783AF9;}
	.st113{fill:#FF515E;}
	.st114{fill:#FF4906;}
	.st115{fill:#503227;}
	.st116{fill:#4C7BD9;}
	.st117{fill:#69C9D0;}
	.st118{fill:#1B92D1;}
	.st119{fill:#EB4F4A;}
	.st120{fill:#513728;}
	.st121{fill:#FF6600;}
	.st122{fill-rule:evenodd;clip-rule:evenodd;fill:#B61438;}
	.st123{fill:#FFFC00;}
	.st124{fill:#141414;}
	.st125{fill:#94D137;}
	.st126{fill-rule:evenodd;clip-rule:evenodd;fill:#F1F1F1;}
	.st127{fill-rule:evenodd;clip-rule:evenodd;fill:#66E066;}
	.st128{fill:#464EB8;}
	.st129{fill:#7B83EB;}
	.st130{fill:#2D8CFF;}
	.st131{fill:#F1A300;}
	.st132{fill:#4BA2F2;}
	.st133{fill:#1A5099;}
	.st134{fill:#EE6060;}
	.st135{fill-rule:evenodd;clip-rule:evenodd;fill:#F48120;}
	.st136{fill:#222222;}
	.st137{fill:url(#SVGID_63_);}
	.st138{fill:#0077B5;}
	.st139{fill:#FFCC00;}
	.st140{fill:#EB3352;}
	.st141{fill:#F9D265;}
	.st142{fill:#F5B955;}
	.st143{fill:#DC322F;}
	.st144{fill:#4DA94C;}
	.st145{fill:#39802F;}
	.st146{fill:#F6BD41;}
	.st147{fill:#EB5141;}
	.st148{fill:#2165D6;}
	.st149{fill:#2F83F7;}
	.st150{fill:#DD2A7B;}
</style><g id="Layer_1"/><g id="Layer_2"><g><path class="st134" d="M83.5,47.679c-5.441,39.555-61.365,39.54-66.797,0c-0.08-0.723,0.494-1.373,1.225-1.371    c0,0,12.55,0,12.55,0c0.592,0.002,1.099,0.423,1.211,1.004c4.212,19.782,32.197,19.77,36.401,0    c0.112-0.581,0.62-1.002,1.211-1.004h12.974C83.002,46.308,83.585,46.955,83.5,47.679z M50.209,81.464    c-4.237-0.09-7.722,3.399-7.634,7.635c0.519,9.72,14.48,9.738,14.984,0C57.648,84.994,54.317,81.535,50.209,81.464z     M18.051,40.582H30.32c0.724-0.001,1.353-0.5,1.518-1.205c4.698-18.886,31.414-18.874,36.105,0    c0.165,0.705,0.793,1.204,1.517,1.205h12.324c0.859,0.002,1.558-0.692,1.561-1.552c-2.294-16.245-16.356-28.749-33.242-28.745    c-6.687-0.011-13.224,1.983-18.767,5.723V5.165c0-0.861-0.698-1.559-1.559-1.559H18.051c-0.861,0-1.559,0.698-1.559,1.559v33.858    C16.492,39.884,17.19,40.582,18.051,40.582z"/><path d="M84.693,47.853c-5.578,40.984-63.613,40.972-69.185,0.004c-0.204-1.532,1.105-3.01,2.657-2.978c0,0,12.461,0,12.461,0    c1.284,0.004,2.389,0.919,2.63,2.176c3.879,18.069,29.4,18.058,33.27-0.008c0.24-1.25,1.345-2.165,2.626-2.168h3.308    c1.902,0.031,1.922,2.875,0,2.91c0,0-3.115,0-3.115,0c-4.682,20.956-34.239,20.937-38.909,0H18.428    c5.217,37.167,58.118,37.17,63.343-0.002c0,0-3.176,0.002-3.176,0.002c-1.923-0.034-1.903-2.88,0-2.91c0,0,3.437,0,3.437,0    C83.607,44.873,84.875,46.282,84.693,47.853z M58.955,88.493c-0.254,11.811-17.025,12.092-17.78,0.336    c-0.102-4.964,3.948-9.072,8.888-9.061C54.847,79.762,58.873,83.716,58.955,88.493z M56.047,88.549    c-0.463-7.892-11.826-7.708-11.962,0.231C44.554,96.669,55.918,96.472,56.047,88.549z M18.292,42.107H30.47    c1.399-0.002,2.601-0.955,2.92-2.314c4.26-17.276,28.745-17.267,33-0.004c0.319,1.363,1.52,2.316,2.923,2.318h12.226    c1.78,0.048,3.286-1.683,2.975-3.444C81.203,15.042,53.532,1.504,32.932,13.65c0,0,0-8.148,0-8.148    c0-1.656-1.347-3.003-3.003-3.003H18.292c-1.655,0-3.002,1.347-3.002,3.003v10.457c0.044,1.922,2.873,1.907,2.91,0    c0,0,0-10.457,0-10.457c0-0.051,0.041-0.093,0.092-0.093h11.638c0.051,0,0.093,0.042,0.093,0.093v10.761    c0,0.538,0.297,1.032,0.772,1.285c0.475,0.251,1.05,0.221,1.497-0.079c5.281-3.563,11.406-5.419,17.811-5.431    c15.522-0.039,29.545,11.811,31.442,27.158c0,0-12.229,0-12.229,0c-5.187-20.331-33.669-20.319-38.847,0c0,0-12.176,0-12.176,0    c-0.051,0-0.092-0.042-0.092-0.093V21.62c-0.03-1.906-2.877-1.917-2.91,0c0,0,0,17.484,0,17.484    C15.29,40.76,16.637,42.107,18.292,42.107z"/></g></g></svg>