<?xml version="1.0" ?><svg style="enable-background:new 0 0 100 100;" version="1.1" viewBox="0 0 100 100" xml:space="preserve" xmlns="http://www.w3.org/2000/svg" xmlns:xlink="http://www.w3.org/1999/xlink"><style type="text/css">
	.st0{fill:#FFFFFF;}
	.st1{fill:#D43C89;}
	.st2{fill:#B2005F;}
	.st3{fill:none;stroke:#000000;stroke-width:3;stroke-linecap:round;stroke-linejoin:round;stroke-miterlimit:10;}
	
		.st4{fill-rule:evenodd;clip-rule:evenodd;fill:none;stroke:#000000;stroke-width:3;stroke-linecap:round;stroke-linejoin:round;stroke-miterlimit:10;}
	
		.st5{fill-rule:evenodd;clip-rule:evenodd;fill:none;stroke:#040404;stroke-width:3;stroke-linecap:round;stroke-linejoin:round;stroke-miterlimit:10;}
	.st6{fill-rule:evenodd;clip-rule:evenodd;}
	.st7{fill-rule:evenodd;clip-rule:evenodd;fill:#040404;}
	.st8{fill:url(#SVGID_1_);}
	.st9{fill:url(#SVGID_2_);}
	.st10{fill:url(#SVGID_3_);}
	.st11{fill:url(#SVGID_4_);}
	.st12{fill:url(#SVGID_5_);}
	.st13{fill:url(#SVGID_6_);}
	.st14{fill:url(#SVGID_7_);}
	.st15{fill:url(#SVGID_8_);}
	.st16{fill:url(#SVGID_9_);}
	.st17{fill:url(#SVGID_10_);}
	.st18{fill:url(#SVGID_11_);}
	.st19{fill:url(#SVGID_12_);}
	.st20{fill:url(#SVGID_13_);}
	.st21{fill:url(#SVGID_14_);}
	.st22{fill:url(#SVGID_15_);}
	.st23{fill:url(#SVGID_16_);}
	.st24{fill:url(#SVGID_17_);}
	.st25{fill:url(#SVGID_18_);}
	.st26{fill:url(#SVGID_19_);}
	.st27{fill:url(#SVGID_20_);}
	.st28{fill:url(#SVGID_21_);}
	.st29{fill:url(#SVGID_22_);}
	.st30{fill:url(#SVGID_23_);}
	.st31{fill:url(#SVGID_24_);}
	.st32{fill:url(#SVGID_25_);}
	.st33{fill:url(#SVGID_26_);}
	.st34{fill:url(#SVGID_27_);}
	.st35{fill:url(#SVGID_28_);}
	.st36{fill:url(#SVGID_29_);}
	.st37{fill:url(#SVGID_30_);}
	.st38{fill:url(#SVGID_31_);}
	.st39{fill:url(#SVGID_32_);}
	.st40{fill:url(#SVGID_33_);}
	.st41{fill:url(#SVGID_34_);}
	.st42{fill:url(#SVGID_35_);}
	.st43{fill:url(#SVGID_36_);}
	.st44{fill:url(#SVGID_37_);}
	.st45{fill:url(#SVGID_38_);}
	.st46{fill:url(#SVGID_39_);}
	.st47{fill:url(#SVGID_40_);}
	.st48{fill:url(#SVGID_41_);}
	.st49{fill:url(#SVGID_42_);}
	.st50{fill:url(#SVGID_43_);}
	.st51{fill:url(#SVGID_44_);}
	.st52{fill:url(#SVGID_45_);}
	.st53{fill:#040404;}
	.st54{fill:url(#SVGID_46_);}
	.st55{fill:url(#SVGID_47_);}
	.st56{fill:url(#SVGID_48_);}
	.st57{fill:url(#SVGID_49_);}
	.st58{fill:url(#SVGID_50_);}
	.st59{fill:url(#SVGID_51_);}
	.st60{fill:url(#SVGID_52_);}
	.st61{fill:url(#SVGID_53_);}
	.st62{fill:url(#SVGID_54_);}
	.st63{fill:url(#SVGID_55_);}
	.st64{fill:url(#SVGID_56_);}
	.st65{fill:url(#SVGID_57_);}
	.st66{fill:url(#SVGID_58_);}
	.st67{fill:url(#SVGID_59_);}
	.st68{fill:url(#SVGID_60_);}
	.st69{fill:url(#SVGID_61_);}
	.st70{fill:url(#SVGID_62_);}
	.st71{fill:none;stroke:#000000;stroke-width:3;stroke-miterlimit:10;}
	.st72{fill:none;stroke:#FFFFFF;stroke-miterlimit:10;}
	.st73{fill:#4BC9FF;}
	.st74{fill:#5500DD;}
	.st75{fill:#FF3A00;}
	.st76{fill:#FFC794;}
	.st77{fill:#F1F1F1;}
	.st78{fill:#EB4E00;}
	.st79{fill:#E6162D;}
	.st80{fill:#FF9933;}
	.st81{fill:#B92B27;}
	.st82{fill:#00ACED;}
	.st83{fill:#BD2125;}
	.st84{fill:#1877F2;}
	.st85{fill:#6665D2;}
	.st86{fill:#CE3056;}
	.st87{fill:#5BB381;}
	.st88{fill:#61C3EC;}
	.st89{fill:#E4B34B;}
	.st90{fill:#181EF2;}
	.st91{fill:#FF0000;}
	.st92{fill:#FE466C;}
	.st93{fill:#FA4778;}
	.st94{fill:#FF7700;}
	.st95{fill:#D95040;}
	.st96{fill:#58A55C;}
	.st97{fill:#4E86EC;}
	.st98{fill:#B6332A;}
	.st99{fill:#F3BD42;}
	.st100{fill-rule:evenodd;clip-rule:evenodd;fill:#1F6BF6;}
	.st101{fill:#520094;}
	.st102{fill:#4477E8;}
	.st103{fill:#3D1D1C;}
	.st104{fill:#FFE812;}
	.st105{fill:#344356;}
	.st106{fill:#00CC76;}
	.st107{fill-rule:evenodd;clip-rule:evenodd;fill:#345E90;}
	.st108{fill:#1F65D8;}
	.st109{fill:#EB3587;}
	.st110{fill-rule:evenodd;clip-rule:evenodd;fill:#603A88;}
	.st111{fill:#E3CE99;}
	.st112{fill:#783AF9;}
	.st113{fill:#FF515E;}
	.st114{fill:#FF4906;}
	.st115{fill:#503227;}
	.st116{fill:#4C7BD9;}
	.st117{fill:#69C9D0;}
	.st118{fill:#1B92D1;}
	.st119{fill:#EB4F4A;}
	.st120{fill:#513728;}
	.st121{fill:#FF6600;}
	.st122{fill-rule:evenodd;clip-rule:evenodd;fill:#B61438;}
	.st123{fill:#FFFC00;}
	.st124{fill:#141414;}
	.st125{fill:#94D137;}
	.st126{fill-rule:evenodd;clip-rule:evenodd;fill:#F1F1F1;}
	.st127{fill-rule:evenodd;clip-rule:evenodd;fill:#66E066;}
	.st128{fill:#464EB8;}
	.st129{fill:#7B83EB;}
	.st130{fill:#2D8CFF;}
	.st131{fill:#F1A300;}
	.st132{fill:#4BA2F2;}
	.st133{fill:#1A5099;}
	.st134{fill:#EE6060;}
	.st135{fill-rule:evenodd;clip-rule:evenodd;fill:#F48120;}
	.st136{fill:#222222;}
	.st137{fill:url(#SVGID_63_);}
	.st138{fill:#0077B5;}
	.st139{fill:#FFCC00;}
	.st140{fill:#EB3352;}
	.st141{fill:#F9D265;}
	.st142{fill:#F5B955;}
	.st143{fill:#DC322F;}
	.st144{fill:#4DA94C;}
	.st145{fill:#39802F;}
	.st146{fill:#F6BD41;}
	.st147{fill:#EB5141;}
	.st148{fill:#2165D6;}
	.st149{fill:#2F83F7;}
	.st150{fill:#DD2A7B;}
</style><g id="Layer_1"/><g id="Layer_2"><g><g><path class="st85" d="M85.22,24.958c-11.459-8.575-22.438-8.334-22.438-8.334l-1.122,1.282     c13.623,4.087,19.954,10.097,19.954,10.097c-19.491-10.731-44.317-10.654-64.59,0c0,0,6.571-6.331,20.996-10.418l-0.801-0.962     c0,0-10.899-0.24-22.438,8.334c0,0-11.54,20.755-11.54,46.319c0,0,6.732,11.54,24.442,12.101c0,0,2.965-3.526,5.369-6.571     c-10.177-3.045-14.024-9.376-14.024-9.376c6.394,4.001,12.859,6.505,20.916,8.094c13.108,2.698,29.413-0.076,41.591-8.094     c0,0-4.007,6.491-14.505,9.456c2.404,2.965,5.289,6.411,5.289,6.411c17.71-0.561,24.441-12.101,24.441-12.02     C96.759,45.713,85.22,24.958,85.22,24.958z M35.055,63.824c-4.488,0-8.174-3.927-8.174-8.815     c0.328-11.707,16.102-11.671,16.348,0C43.229,59.897,39.622,63.824,35.055,63.824z M64.304,63.824     c-4.488,0-8.174-3.927-8.174-8.815c0.36-11.684,15.937-11.689,16.348,0C72.478,59.897,68.872,63.824,64.304,63.824z"/></g><g><path d="M64.193,47.63c2.334,0,4.465,1.302,5.698,3.484c0.256,0.452,0.726,0.706,1.21,0.706c1.029,0.026,1.747-1.183,1.208-2.074     c-1.708-3.019-4.818-4.894-8.117-4.894c-12.607,0.418-12.524,19.726,0,20.216c5.312,0,9.473-4.44,9.473-10.108     c-0.033-1.828-2.747-1.825-2.779,0c0,4.11-2.94,7.329-6.695,7.329C55.358,61.976,55.299,47.89,64.193,47.63z"/><path d="M44.737,54.982c0.211-5.297-4.149-10.216-9.474-10.131c-12.608,0.419-12.523,19.727,0,20.215     C40.576,65.067,44.737,60.627,44.737,54.982z M28.569,54.959c-0.157-6.239,7.012-9.771,11.312-5.363     c4.305,4.223,1.52,12.82-4.618,12.693C31.573,62.288,28.569,59.001,28.569,54.959z"/><path d="M86.094,24.562c-10.864-8.869-24.123-9.672-24.451-8.483c0,0-1.11,1.268-1.11,1.268     c-0.669,0.722-0.299,1.989,0.647,2.245c0.674,0.202,1.328,0.409,1.965,0.62c-9.388-1.933-19.11-1.551-28.487,0.298     c1.233-0.426,2.539-0.838,3.918-1.229c0.946-0.234,1.333-1.5,0.688-2.227c-0.411-0.44-1.054-1.537-1.83-1.45     c-0.02-0.083-12.775,0.089-23.438,8.957c-0.078,0.141-1.943,3.515-4.18,9.224c-0.626,1.723,1.884,2.697,2.587,1.014     c1.821-4.647,3.413-7.747,3.883-8.63c4.241-3.105,8.396-4.973,11.883-6.096c-7.792,3.468-11.499,6.977-11.703,7.174     c-1.146,1.104,0.232,2.987,1.629,2.22c18.938-10.094,43.589-10.543,62.559,0.004c1.369,0.775,2.794-1.151,1.615-2.231     c-0.222-0.211-4.747-4.436-14.232-8.206c4.014,0.839,9.827,2.756,15.764,7.133c1.277,2.416,10.979,21.53,11.101,44.45     c-1.563,2.222-8.137,10.217-22.156,10.904c-0.682-0.818-2.069-2.485-3.488-4.216c9.308-3.242,12.995-9.069,13.157-9.332     c0.773-1.24-0.729-2.707-1.947-1.889C62.612,77.828,38.071,77.51,20.207,66.105c-1.166-0.879-2.784,0.641-1.983,1.861     c0.156,0.257,3.703,5.949,12.729,9.243c-1.455,1.805-2.906,3.551-3.608,4.393c-8.549-0.112-18.133-4.802-22.157-10.959     c0.048-9.99,1.869-20.379,5.411-30.886c0.569-1.73-2.029-2.612-2.632-0.888c-3.59,11.159-5.989,22.27-5.37,32.881     c0.288,0.493,7.253,12.084,25.33,12.656c0.424,0.014,0.834-0.168,1.107-0.494c0.03-0.035,2.975-3.538,5.339-6.532     c0.612-0.734,0.225-1.943-0.693-2.192c4.547,1.498,20.09,4.356,32.365,0.304c-0.616,0.444-0.728,1.402-0.237,1.981     c2.357,2.907,5.217,6.324,5.245,6.358c0.275,0.327,0.651,0.51,1.11,0.497c16.405-0.52,23.844-10.359,25.241-12.444     C98.707,47.531,86.21,24.87,86.094,24.562z"/></g></g></g></svg>