<?xml version="1.0" ?><svg style="enable-background:new 0 0 100 100;" version="1.1" viewBox="0 0 100 100" xml:space="preserve" xmlns="http://www.w3.org/2000/svg" xmlns:xlink="http://www.w3.org/1999/xlink"><style type="text/css">
	.st0{fill:#FFFFFF;}
	.st1{fill:#D43C89;}
	.st2{fill:#B2005F;}
	.st3{fill:none;stroke:#000000;stroke-width:3;stroke-linecap:round;stroke-linejoin:round;stroke-miterlimit:10;}
	
		.st4{fill-rule:evenodd;clip-rule:evenodd;fill:none;stroke:#000000;stroke-width:3;stroke-linecap:round;stroke-linejoin:round;stroke-miterlimit:10;}
	
		.st5{fill-rule:evenodd;clip-rule:evenodd;fill:none;stroke:#040404;stroke-width:3;stroke-linecap:round;stroke-linejoin:round;stroke-miterlimit:10;}
	.st6{fill-rule:evenodd;clip-rule:evenodd;}
	.st7{fill-rule:evenodd;clip-rule:evenodd;fill:#040404;}
	.st8{fill:url(#SVGID_1_);}
	.st9{fill:url(#SVGID_2_);}
	.st10{fill:url(#SVGID_3_);}
	.st11{fill:url(#SVGID_4_);}
	.st12{fill:url(#SVGID_5_);}
	.st13{fill:url(#SVGID_6_);}
	.st14{fill:url(#SVGID_7_);}
	.st15{fill:url(#SVGID_8_);}
	.st16{fill:url(#SVGID_9_);}
	.st17{fill:url(#SVGID_10_);}
	.st18{fill:url(#SVGID_11_);}
	.st19{fill:url(#SVGID_12_);}
	.st20{fill:url(#SVGID_13_);}
	.st21{fill:url(#SVGID_14_);}
	.st22{fill:url(#SVGID_15_);}
	.st23{fill:url(#SVGID_16_);}
	.st24{fill:url(#SVGID_17_);}
	.st25{fill:url(#SVGID_18_);}
	.st26{fill:url(#SVGID_19_);}
	.st27{fill:url(#SVGID_20_);}
	.st28{fill:url(#SVGID_21_);}
	.st29{fill:url(#SVGID_22_);}
	.st30{fill:url(#SVGID_23_);}
	.st31{fill:url(#SVGID_24_);}
	.st32{fill:url(#SVGID_25_);}
	.st33{fill:url(#SVGID_26_);}
	.st34{fill:url(#SVGID_27_);}
	.st35{fill:url(#SVGID_28_);}
	.st36{fill:url(#SVGID_29_);}
	.st37{fill:url(#SVGID_30_);}
	.st38{fill:url(#SVGID_31_);}
	.st39{fill:url(#SVGID_32_);}
	.st40{fill:url(#SVGID_33_);}
	.st41{fill:url(#SVGID_34_);}
	.st42{fill:url(#SVGID_35_);}
	.st43{fill:url(#SVGID_36_);}
	.st44{fill:url(#SVGID_37_);}
	.st45{fill:url(#SVGID_38_);}
	.st46{fill:url(#SVGID_39_);}
	.st47{fill:url(#SVGID_40_);}
	.st48{fill:url(#SVGID_41_);}
	.st49{fill:url(#SVGID_42_);}
	.st50{fill:url(#SVGID_43_);}
	.st51{fill:url(#SVGID_44_);}
	.st52{fill:url(#SVGID_45_);}
	.st53{fill:#040404;}
	.st54{fill:url(#SVGID_46_);}
	.st55{fill:url(#SVGID_47_);}
	.st56{fill:url(#SVGID_48_);}
	.st57{fill:url(#SVGID_49_);}
	.st58{fill:url(#SVGID_50_);}
	.st59{fill:url(#SVGID_51_);}
	.st60{fill:url(#SVGID_52_);}
	.st61{fill:url(#SVGID_53_);}
	.st62{fill:url(#SVGID_54_);}
	.st63{fill:url(#SVGID_55_);}
	.st64{fill:url(#SVGID_56_);}
	.st65{fill:url(#SVGID_57_);}
	.st66{fill:url(#SVGID_58_);}
	.st67{fill:url(#SVGID_59_);}
	.st68{fill:url(#SVGID_60_);}
	.st69{fill:url(#SVGID_61_);}
	.st70{fill:url(#SVGID_62_);}
	.st71{fill:none;stroke:#000000;stroke-width:3;stroke-miterlimit:10;}
	.st72{fill:none;stroke:#FFFFFF;stroke-miterlimit:10;}
	.st73{fill:#4BC9FF;}
	.st74{fill:#5500DD;}
	.st75{fill:#FF3A00;}
	.st76{fill:#FFC794;}
	.st77{fill:#F1F1F1;}
	.st78{fill:#EB4E00;}
	.st79{fill:#E6162D;}
	.st80{fill:#FF9933;}
	.st81{fill:#B92B27;}
	.st82{fill:#00ACED;}
	.st83{fill:#BD2125;}
	.st84{fill:#1877F2;}
	.st85{fill:#6665D2;}
	.st86{fill:#CE3056;}
	.st87{fill:#5BB381;}
	.st88{fill:#61C3EC;}
	.st89{fill:#E4B34B;}
	.st90{fill:#181EF2;}
	.st91{fill:#FF0000;}
	.st92{fill:#FE466C;}
	.st93{fill:#FA4778;}
	.st94{fill:#FF7700;}
	.st95{fill:#D95040;}
	.st96{fill:#58A55C;}
	.st97{fill:#4E86EC;}
	.st98{fill:#B6332A;}
	.st99{fill:#F3BD42;}
	.st100{fill-rule:evenodd;clip-rule:evenodd;fill:#1F6BF6;}
	.st101{fill:#520094;}
	.st102{fill:#4477E8;}
	.st103{fill:#3D1D1C;}
	.st104{fill:#FFE812;}
	.st105{fill:#344356;}
	.st106{fill:#00CC76;}
	.st107{fill-rule:evenodd;clip-rule:evenodd;fill:#345E90;}
	.st108{fill:#1F65D8;}
	.st109{fill:#EB3587;}
	.st110{fill-rule:evenodd;clip-rule:evenodd;fill:#603A88;}
	.st111{fill:#E3CE99;}
	.st112{fill:#783AF9;}
	.st113{fill:#FF515E;}
	.st114{fill:#FF4906;}
	.st115{fill:#503227;}
	.st116{fill:#4C7BD9;}
	.st117{fill:#69C9D0;}
	.st118{fill:#1B92D1;}
	.st119{fill:#EB4F4A;}
	.st120{fill:#513728;}
	.st121{fill:#FF6600;}
	.st122{fill-rule:evenodd;clip-rule:evenodd;fill:#B61438;}
	.st123{fill:#FFFC00;}
	.st124{fill:#141414;}
	.st125{fill:#94D137;}
	.st126{fill-rule:evenodd;clip-rule:evenodd;fill:#F1F1F1;}
	.st127{fill-rule:evenodd;clip-rule:evenodd;fill:#66E066;}
	.st128{fill:#464EB8;}
	.st129{fill:#7B83EB;}
	.st130{fill:#2D8CFF;}
	.st131{fill:#F1A300;}
	.st132{fill:#4BA2F2;}
	.st133{fill:#1A5099;}
	.st134{fill:#EE6060;}
	.st135{fill-rule:evenodd;clip-rule:evenodd;fill:#F48120;}
	.st136{fill:#222222;}
	.st137{fill:url(#SVGID_63_);}
	.st138{fill:#0077B5;}
	.st139{fill:#FFCC00;}
	.st140{fill:#EB3352;}
	.st141{fill:#F9D265;}
	.st142{fill:#F5B955;}
	.st143{fill:#DC322F;}
	.st144{fill:#4DA94C;}
	.st145{fill:#39802F;}
	.st146{fill:#F6BD41;}
	.st147{fill:#EB5141;}
	.st148{fill:#2165D6;}
	.st149{fill:#2F83F7;}
	.st150{fill:#DD2A7B;}
</style><g id="Layer_1"/><g id="Layer_2"><g><g><path d="M50,2.5C23.808,2.5,2.5,23.864,2.5,50.123c2.609,63.179,92.4,63.16,95,0C97.5,23.864,76.192,2.5,50,2.5z M50,94.972     c-24.666,0-44.733-20.119-44.733-44.849c2.457-59.498,87.018-59.481,89.466,0C94.733,74.853,74.666,94.972,50,94.972z"/><path class="st1" d="M5,50.123c2.479,60.023,87.543,59.977,90,0C92.537-9.868,7.472-9.886,5,50.123z"/><g><path class="st2" d="M61.815,48.894c13.511-1.693,26.917,1.016,28.247,1.312c-0.063-9.609-3.505-18.435-9.141-25.357      c-0.865,1.164-7.663,9.905-22.652,16.044C59.557,43.496,60.731,46.198,61.815,48.894z"/><path class="st2" d="M76.886,20.398c-7.157-6.392-16.572-10.265-26.896-10.265c-3.272,0.021-6.46,0.423-9.5,1.143      c1.119,1.503,8.487,11.578,15.137,23.811C70.068,29.669,76.169,21.436,76.886,20.398z"/><path class="st2" d="M48.414,37.549C41.7,25.569,34.438,15.494,33.361,14.012c-11.337,5.376-19.844,15.874-22.462,28.489      C12.715,42.523,29.435,42.586,48.414,37.549z"/><path class="st2" d="M53.147,50.444c0.524-0.168,1.048-0.336,1.593-0.483c-1.006-2.29-2.117-4.601-3.269-6.849      c-20.098,6.03-39.629,5.778-41.39,5.757c-0.358,10.687,3.64,20.826,10.332,28.218C21.335,75.51,32.379,57.167,53.147,50.444z"/><path class="st2" d="M56.973,56.696C34.809,64.445,26.835,79.86,26.14,81.295c10.407,8.53,26.949,10.872,39.461,5.186      c-0.593-3.464-2.862-15.498-8.383-29.868C57.136,56.655,57.034,56.676,56.973,56.696z"/><path class="st2" d="M65.002,54.713c5.154,14.227,7.249,25.797,7.68,28.206c8.83-6.012,15.134-15.503,16.9-26.518      C88.228,55.969,77.364,52.736,65.002,54.713z"/></g></g><g><path d="M53.185,51.85c1.186-0.372,3.002-0.628,2.386-2.348c-0.952-2.168-2.04-4.447-3.234-6.775     c-0.305-0.594-0.988-0.885-1.627-0.694c-18.467,5.542-36.591,5.619-40.067,5.572c-1.43,0.01-1.488,1.491-1.42,2.6     c0,10.108,3.723,19.809,10.482,27.315c0.593,0.689,1.781,0.57,2.22-0.228C23.058,75.357,33.552,58.206,53.185,51.85z      M20.557,74.26c-5.5-6.734-8.526-15.137-8.568-23.876c5.492-0.024,21.699-0.541,38.405-5.367c0.623,1.395,1.61,2.954,1.928,4.197     C34.51,54.98,23.874,69.208,20.557,74.26z"/><path d="M81.571,24.34c-0.535-0.708-1.674-0.663-2.181,0.048c-0.696,0.935-7.205,9.305-21.407,15.122     c-0.728,0.281-1.078,1.205-0.717,1.899c0.934,1.892,1.797,3.793,2.57,5.66c0.58,1.056,0.701,3.024,2.286,2.869     c13.491-1.69,26.819,1.222,26.952,1.252c0.832,0.208,1.714-0.499,1.683-1.363C90.697,40.591,87.434,31.54,81.571,24.34z      M71.011,46.639c-2.633,0-5.395,0.121-8.176,0.422c-0.774-1.867-1.551-3.683-2.446-5.557     c11.224-4.873,17.544-11.118,20.088-14.06c4.466,6.018,7.075,13.257,7.464,20.701C84.972,47.613,78.507,46.639,71.011,46.639z"/><path d="M54.258,35.56c0.33,0.611,1.068,0.876,1.7,0.635c14.53-5.452,20.643-13.832,21.292-14.769     c0.399-0.576,0.306-1.36-0.216-1.827c-9.793-8.845-23.766-12.323-36.574-9.171c-0.454,0.107-0.823,0.437-0.983,0.876     c-0.159,0.439-0.086,0.929,0.192,1.304C40.47,13.684,47.688,23.473,54.258,35.56z M50,12.055c8.875,0,17.425,3.107,24.22,8.776     c-1.927,2.348-7.44,8.087-18.117,12.335c-5.118-9.262-10.502-17.057-12.946-20.469C45.421,12.285,47.715,12.07,50,12.055z"/><path d="M89.321,55.13c-0.586-0.187-3.741-1.153-8.377-1.797c-1.813-0.22-2.172,2.468-0.38,2.748     c3.057,0.424,5.415,0.989,6.758,1.354c-1.773,9.136-6.91,17.397-14.331,23.083c-1.059-5.409-3.116-14.284-6.749-24.617     c2.898-0.358,5.924-0.465,9.022-0.316c1.808,0.077,1.951-2.66,0.131-2.771c-3.879-0.186-7.663,0.009-11.245,0.582     c-0.835,0.114-1.39,1.055-1.083,1.844c4.48,12.365,6.688,22.803,7.605,27.924c0.145,0.96,1.349,1.475,2.139,0.902     c9.321-6.345,15.683-16.331,17.457-27.395C90.376,55.994,89.974,55.339,89.321,55.13z"/><path d="M11.431,43.475c4.336-0.002,18.915-0.184,36.792-4.855c0.414-0.11,0.754-0.406,0.921-0.801     c0.167-0.395,0.141-0.845-0.068-1.22c-2.19-3.907-4.653-7.99-7.321-12.135c-1.012-1.516-3.286-0.044-2.326,1.504     c2.282,3.545,4.412,7.042,6.345,10.418c-14.742,3.693-27.839,4.239-32.583,4.308c2.695-10.516,9.9-19.525,19.627-24.505     c0.825,1.156,2.222,3.143,3.931,5.694c0.426,0.637,1.289,0.804,1.919,0.378c0.635-0.427,0.803-1.289,0.377-1.925     c-2.388-3.565-4.179-6.049-4.671-6.726c-0.392-0.538-1.107-0.721-1.71-0.437c-11.549,5.477-19.987,16.18-22.571,28.631     C9.902,42.629,10.584,43.487,11.431,43.475z"/><path d="M58.28,56.098c-0.244-0.822-1.441-1.053-1.839-0.776c-21.487,7.11-34.276,25.699-31.456,27.109     c11.394,9.093,27.661,11.2,40.955,5.379c0.587-0.254,0.925-0.877,0.817-1.509C66.001,81.887,63.662,70.106,58.28,56.098z      M50.021,88.293c-8.136,0-15.858-2.536-22.405-7.346c2.054-3.592,10.163-15.829,28.562-22.592     c4.572,12.2,6.781,22.506,7.66,27.325C59.468,87.414,54.826,88.293,50.021,88.293z"/></g></g></g></svg>