<?xml version="1.0" ?><svg style="enable-background:new 0 0 100 100;" version="1.1" viewBox="0 0 100 100" xml:space="preserve" xmlns="http://www.w3.org/2000/svg" xmlns:xlink="http://www.w3.org/1999/xlink"><style type="text/css">
	.st0{fill:#FFFFFF;}
	.st1{fill:#D43C89;}
	.st2{fill:#B2005F;}
	.st3{fill:none;stroke:#000000;stroke-width:3;stroke-linecap:round;stroke-linejoin:round;stroke-miterlimit:10;}
	
		.st4{fill-rule:evenodd;clip-rule:evenodd;fill:none;stroke:#000000;stroke-width:3;stroke-linecap:round;stroke-linejoin:round;stroke-miterlimit:10;}
	
		.st5{fill-rule:evenodd;clip-rule:evenodd;fill:none;stroke:#040404;stroke-width:3;stroke-linecap:round;stroke-linejoin:round;stroke-miterlimit:10;}
	.st6{fill-rule:evenodd;clip-rule:evenodd;}
	.st7{fill-rule:evenodd;clip-rule:evenodd;fill:#040404;}
	.st8{fill:url(#SVGID_1_);}
	.st9{fill:url(#SVGID_2_);}
	.st10{fill:url(#SVGID_3_);}
	.st11{fill:url(#SVGID_4_);}
	.st12{fill:url(#SVGID_5_);}
	.st13{fill:url(#SVGID_6_);}
	.st14{fill:url(#SVGID_7_);}
	.st15{fill:url(#SVGID_8_);}
	.st16{fill:url(#SVGID_9_);}
	.st17{fill:url(#SVGID_10_);}
	.st18{fill:url(#SVGID_11_);}
	.st19{fill:url(#SVGID_12_);}
	.st20{fill:url(#SVGID_13_);}
	.st21{fill:url(#SVGID_14_);}
	.st22{fill:url(#SVGID_15_);}
	.st23{fill:url(#SVGID_16_);}
	.st24{fill:url(#SVGID_17_);}
	.st25{fill:url(#SVGID_18_);}
	.st26{fill:url(#SVGID_19_);}
	.st27{fill:url(#SVGID_20_);}
	.st28{fill:url(#SVGID_21_);}
	.st29{fill:url(#SVGID_22_);}
	.st30{fill:url(#SVGID_23_);}
	.st31{fill:url(#SVGID_24_);}
	.st32{fill:url(#SVGID_25_);}
	.st33{fill:url(#SVGID_26_);}
	.st34{fill:url(#SVGID_27_);}
	.st35{fill:url(#SVGID_28_);}
	.st36{fill:url(#SVGID_29_);}
	.st37{fill:url(#SVGID_30_);}
	.st38{fill:url(#SVGID_31_);}
	.st39{fill:url(#SVGID_32_);}
	.st40{fill:url(#SVGID_33_);}
	.st41{fill:url(#SVGID_34_);}
	.st42{fill:url(#SVGID_35_);}
	.st43{fill:url(#SVGID_36_);}
	.st44{fill:url(#SVGID_37_);}
	.st45{fill:url(#SVGID_38_);}
	.st46{fill:url(#SVGID_39_);}
	.st47{fill:url(#SVGID_40_);}
	.st48{fill:url(#SVGID_41_);}
	.st49{fill:url(#SVGID_42_);}
	.st50{fill:url(#SVGID_43_);}
	.st51{fill:url(#SVGID_44_);}
	.st52{fill:url(#SVGID_45_);}
	.st53{fill:#040404;}
	.st54{fill:url(#SVGID_46_);}
	.st55{fill:url(#SVGID_47_);}
	.st56{fill:url(#SVGID_48_);}
	.st57{fill:url(#SVGID_49_);}
	.st58{fill:url(#SVGID_50_);}
	.st59{fill:url(#SVGID_51_);}
	.st60{fill:url(#SVGID_52_);}
	.st61{fill:url(#SVGID_53_);}
	.st62{fill:url(#SVGID_54_);}
	.st63{fill:url(#SVGID_55_);}
	.st64{fill:url(#SVGID_56_);}
	.st65{fill:url(#SVGID_57_);}
	.st66{fill:url(#SVGID_58_);}
	.st67{fill:url(#SVGID_59_);}
	.st68{fill:url(#SVGID_60_);}
	.st69{fill:url(#SVGID_61_);}
	.st70{fill:url(#SVGID_62_);}
	.st71{fill:none;stroke:#000000;stroke-width:3;stroke-miterlimit:10;}
	.st72{fill:none;stroke:#FFFFFF;stroke-miterlimit:10;}
	.st73{fill:#4BC9FF;}
	.st74{fill:#5500DD;}
	.st75{fill:#FF3A00;}
	.st76{fill:#FFC794;}
	.st77{fill:#F1F1F1;}
	.st78{fill:#EB4E00;}
	.st79{fill:#E6162D;}
	.st80{fill:#FF9933;}
	.st81{fill:#B92B27;}
	.st82{fill:#00ACED;}
	.st83{fill:#BD2125;}
	.st84{fill:#1877F2;}
	.st85{fill:#6665D2;}
	.st86{fill:#CE3056;}
	.st87{fill:#5BB381;}
	.st88{fill:#61C3EC;}
	.st89{fill:#E4B34B;}
	.st90{fill:#181EF2;}
	.st91{fill:#FF0000;}
	.st92{fill:#FE466C;}
	.st93{fill:#FA4778;}
	.st94{fill:#FF7700;}
	.st95{fill:#D95040;}
	.st96{fill:#58A55C;}
	.st97{fill:#4E86EC;}
	.st98{fill:#B6332A;}
	.st99{fill:#F3BD42;}
	.st100{fill-rule:evenodd;clip-rule:evenodd;fill:#1F6BF6;}
	.st101{fill:#520094;}
	.st102{fill:#4477E8;}
	.st103{fill:#3D1D1C;}
	.st104{fill:#FFE812;}
	.st105{fill:#344356;}
	.st106{fill:#00CC76;}
	.st107{fill-rule:evenodd;clip-rule:evenodd;fill:#345E90;}
	.st108{fill:#1F65D8;}
	.st109{fill:#EB3587;}
	.st110{fill-rule:evenodd;clip-rule:evenodd;fill:#603A88;}
	.st111{fill:#E3CE99;}
	.st112{fill:#783AF9;}
	.st113{fill:#FF515E;}
	.st114{fill:#FF4906;}
	.st115{fill:#503227;}
	.st116{fill:#4C7BD9;}
	.st117{fill:#69C9D0;}
	.st118{fill:#1B92D1;}
	.st119{fill:#EB4F4A;}
	.st120{fill:#513728;}
	.st121{fill:#FF6600;}
	.st122{fill-rule:evenodd;clip-rule:evenodd;fill:#B61438;}
	.st123{fill:#FFFC00;}
	.st124{fill:#141414;}
	.st125{fill:#94D137;}
	.st126{fill-rule:evenodd;clip-rule:evenodd;fill:#F1F1F1;}
	.st127{fill-rule:evenodd;clip-rule:evenodd;fill:#66E066;}
	.st128{fill:#464EB8;}
	.st129{fill:#7B83EB;}
	.st130{fill:#2D8CFF;}
	.st131{fill:#F1A300;}
	.st132{fill:#4BA2F2;}
	.st133{fill:#1A5099;}
	.st134{fill:#EE6060;}
	.st135{fill-rule:evenodd;clip-rule:evenodd;fill:#F48120;}
	.st136{fill:#222222;}
	.st137{fill:url(#SVGID_63_);}
	.st138{fill:#0077B5;}
	.st139{fill:#FFCC00;}
	.st140{fill:#EB3352;}
	.st141{fill:#F9D265;}
	.st142{fill:#F5B955;}
	.st143{fill:#DC322F;}
	.st144{fill:#4DA94C;}
	.st145{fill:#39802F;}
	.st146{fill:#F6BD41;}
	.st147{fill:#EB5141;}
	.st148{fill:#2165D6;}
	.st149{fill:#2F83F7;}
	.st150{fill:#DD2A7B;}
</style><g id="Layer_1"/><g id="Layer_2"><g><g><path class="st93" d="M75.058,3.618H25.603c-6.793,0-8.824,5.142-8.824,8.38v78.594c0,3.873,1.968,5.015,3.047,5.46     c1.079,0.444,3.936,0.762,5.968-1.27l23.87-27.806c0.381-0.444,0.571-0.444,0.825-0.444h14.856c6.349,0,7.555-4.38,8.253-7.047     c0.572-2.222,7.11-33.965,9.142-43.995C84.263,7.744,82.295,3.618,75.058,3.618z M72.137,17.013l-2.222,10.729     c-0.254,1.143-1.333,2.158-2.666,2.158H47.95c-2.158,0-3.936,1.778-3.936,3.936v2.349c0,2.158,1.778,3.936,3.936,3.936h16.316     c1.524,0,2.793,1.46,2.476,3.047C66.424,44.82,64.71,53.2,64.519,54.088c-0.127,0.952-1.143,2.158-2.666,2.158H48.521     c-2.793,0.063-3.365,0.127-5.015,2.158c-1.651,2.031-16.252,20.315-16.252,20.315C27.127,78.911,27,78.848,27,78.657V16.505     c0-1.46,1.206-2.666,2.666-2.666h40.059C71.122,13.839,72.519,15.236,72.137,17.013z"/></g><g><path d="M74.911,2.5H25.766c-6.978,0-10.157,5.036-10.157,9.715c0.046,1.844,2.741,1.809,2.775,0c0-2.578,1.554-6.94,7.382-6.94     h49.145c2.708,0,4.524,0.608,5.553,1.859c1.275,1.55,1.51,4.26,0.721,8.275c-2.116,10.448-8.527,41.546-9.066,43.643     c-0.824,3.144-1.969,5.967-6.86,5.967H50.496c-0.561,0-1.176,0.112-1.872,0.926L24.94,93.533     c-1.615,1.578-3.903,1.125-4.386,0.926c-0.931-0.384-2.169-1.231-2.169-4.143V17.764c-0.011-1.797-2.75-1.841-2.775,0     c0,0,0,72.551,0,72.551c-0.319,6.648,6.849,9.463,11.399,5.067c0,0,23.685-27.589,23.685-27.589h14.565     c7.437,0,8.86-5.429,9.546-8.045c0.589-2.291,7.196-34.39,9.101-43.796C85.545,7.537,83.258,2.582,74.911,2.5z"/><path d="M47.972,31.393h19.179c1.904,0,3.588-1.359,4.008-3.251l2.207-10.656c0.584-2.347-1.366-4.868-3.755-4.829H29.803     c-2.226,0-4.036,1.811-4.036,4.037v61.762c-0.04,1.484,1.905,2.15,2.748,0.898c0.684-0.856,14.532-18.196,16.118-20.147     c1.278-1.573,1.377-1.575,3.939-1.633c1.818-0.086,1.769-2.743-0.063-2.775c-2.995,0.069-4.038,0.207-6.029,2.657     c-1.233,1.517-9.804,12.244-13.938,17.418v-58.18c0-0.685,0.578-1.263,1.262-1.263h39.808c0.667,0.074,1.2,0.631,1.041,1.475     c0.004,0-2.21,10.65-2.207,10.653c-0.113,0.509-0.639,1.059-1.294,1.059H47.972c-2.922,0-5.298,2.376-5.298,5.298v2.334     c0,2.922,2.376,5.299,5.298,5.299h16.214c0.667,0.055,1.209,0.539,1.098,1.379c-0.311,1.617-2.021,9.974-2.203,10.821     c-0.028,0.384-0.421,1.007-1.292,1.049c0,0-7.416,0-7.416,0c-1.821,0.025-1.823,2.747,0,2.775h7.416     c2.183,0,3.769-1.694,4.016-3.288c0.231-1.089,1.883-9.165,2.202-10.823c0.528-2.307-1.462-4.748-3.821-4.688     c0,0-16.214,0-16.214,0c-1.368,0-2.524-1.156-2.524-2.524v-2.334C45.449,32.549,46.604,31.393,47.972,31.393z"/></g></g></g></svg>