<?xml version="1.0" ?><svg style="enable-background:new 0 0 100 100;" version="1.1" viewBox="0 0 100 100" xml:space="preserve" xmlns="http://www.w3.org/2000/svg" xmlns:xlink="http://www.w3.org/1999/xlink"><style type="text/css">
	.st0{fill:#FFFFFF;}
	.st1{fill:#D43C89;}
	.st2{fill:#B2005F;}
	.st3{fill:none;stroke:#000000;stroke-width:3;stroke-linecap:round;stroke-linejoin:round;stroke-miterlimit:10;}
	
		.st4{fill-rule:evenodd;clip-rule:evenodd;fill:none;stroke:#000000;stroke-width:3;stroke-linecap:round;stroke-linejoin:round;stroke-miterlimit:10;}
	
		.st5{fill-rule:evenodd;clip-rule:evenodd;fill:none;stroke:#040404;stroke-width:3;stroke-linecap:round;stroke-linejoin:round;stroke-miterlimit:10;}
	.st6{fill-rule:evenodd;clip-rule:evenodd;}
	.st7{fill-rule:evenodd;clip-rule:evenodd;fill:#040404;}
	.st8{fill:url(#SVGID_1_);}
	.st9{fill:url(#SVGID_2_);}
	.st10{fill:url(#SVGID_3_);}
	.st11{fill:url(#SVGID_4_);}
	.st12{fill:url(#SVGID_5_);}
	.st13{fill:url(#SVGID_6_);}
	.st14{fill:url(#SVGID_7_);}
	.st15{fill:url(#SVGID_8_);}
	.st16{fill:url(#SVGID_9_);}
	.st17{fill:url(#SVGID_10_);}
	.st18{fill:url(#SVGID_11_);}
	.st19{fill:url(#SVGID_12_);}
	.st20{fill:url(#SVGID_13_);}
	.st21{fill:url(#SVGID_14_);}
	.st22{fill:url(#SVGID_15_);}
	.st23{fill:url(#SVGID_16_);}
	.st24{fill:url(#SVGID_17_);}
	.st25{fill:url(#SVGID_18_);}
	.st26{fill:url(#SVGID_19_);}
	.st27{fill:url(#SVGID_20_);}
	.st28{fill:url(#SVGID_21_);}
	.st29{fill:url(#SVGID_22_);}
	.st30{fill:url(#SVGID_23_);}
	.st31{fill:url(#SVGID_24_);}
	.st32{fill:url(#SVGID_25_);}
	.st33{fill:url(#SVGID_26_);}
	.st34{fill:url(#SVGID_27_);}
	.st35{fill:url(#SVGID_28_);}
	.st36{fill:url(#SVGID_29_);}
	.st37{fill:url(#SVGID_30_);}
	.st38{fill:url(#SVGID_31_);}
	.st39{fill:url(#SVGID_32_);}
	.st40{fill:url(#SVGID_33_);}
	.st41{fill:url(#SVGID_34_);}
	.st42{fill:url(#SVGID_35_);}
	.st43{fill:url(#SVGID_36_);}
	.st44{fill:url(#SVGID_37_);}
	.st45{fill:url(#SVGID_38_);}
	.st46{fill:url(#SVGID_39_);}
	.st47{fill:url(#SVGID_40_);}
	.st48{fill:url(#SVGID_41_);}
	.st49{fill:url(#SVGID_42_);}
	.st50{fill:url(#SVGID_43_);}
	.st51{fill:url(#SVGID_44_);}
	.st52{fill:url(#SVGID_45_);}
	.st53{fill:#040404;}
	.st54{fill:url(#SVGID_46_);}
	.st55{fill:url(#SVGID_47_);}
	.st56{fill:url(#SVGID_48_);}
	.st57{fill:url(#SVGID_49_);}
	.st58{fill:url(#SVGID_50_);}
	.st59{fill:url(#SVGID_51_);}
	.st60{fill:url(#SVGID_52_);}
	.st61{fill:url(#SVGID_53_);}
	.st62{fill:url(#SVGID_54_);}
	.st63{fill:url(#SVGID_55_);}
	.st64{fill:url(#SVGID_56_);}
	.st65{fill:url(#SVGID_57_);}
	.st66{fill:url(#SVGID_58_);}
	.st67{fill:url(#SVGID_59_);}
	.st68{fill:url(#SVGID_60_);}
	.st69{fill:url(#SVGID_61_);}
	.st70{fill:url(#SVGID_62_);}
	.st71{fill:none;stroke:#000000;stroke-width:3;stroke-miterlimit:10;}
	.st72{fill:none;stroke:#FFFFFF;stroke-miterlimit:10;}
	.st73{fill:#4BC9FF;}
	.st74{fill:#5500DD;}
	.st75{fill:#FF3A00;}
	.st76{fill:#FFC794;}
	.st77{fill:#F1F1F1;}
	.st78{fill:#EB4E00;}
	.st79{fill:#E6162D;}
	.st80{fill:#FF9933;}
	.st81{fill:#B92B27;}
	.st82{fill:#00ACED;}
	.st83{fill:#BD2125;}
	.st84{fill:#1877F2;}
	.st85{fill:#6665D2;}
	.st86{fill:#CE3056;}
	.st87{fill:#5BB381;}
	.st88{fill:#61C3EC;}
	.st89{fill:#E4B34B;}
	.st90{fill:#181EF2;}
	.st91{fill:#FF0000;}
	.st92{fill:#FE466C;}
	.st93{fill:#FA4778;}
	.st94{fill:#FF7700;}
	.st95{fill:#D95040;}
	.st96{fill:#58A55C;}
	.st97{fill:#4E86EC;}
	.st98{fill:#B6332A;}
	.st99{fill:#F3BD42;}
	.st100{fill-rule:evenodd;clip-rule:evenodd;fill:#1F6BF6;}
	.st101{fill:#520094;}
	.st102{fill:#4477E8;}
	.st103{fill:#3D1D1C;}
	.st104{fill:#FFE812;}
	.st105{fill:#344356;}
	.st106{fill:#00CC76;}
	.st107{fill-rule:evenodd;clip-rule:evenodd;fill:#345E90;}
	.st108{fill:#1F65D8;}
	.st109{fill:#EB3587;}
	.st110{fill-rule:evenodd;clip-rule:evenodd;fill:#603A88;}
	.st111{fill:#E3CE99;}
	.st112{fill:#783AF9;}
	.st113{fill:#FF515E;}
	.st114{fill:#FF4906;}
	.st115{fill:#503227;}
	.st116{fill:#4C7BD9;}
	.st117{fill:#69C9D0;}
	.st118{fill:#1B92D1;}
	.st119{fill:#EB4F4A;}
	.st120{fill:#513728;}
	.st121{fill:#FF6600;}
	.st122{fill-rule:evenodd;clip-rule:evenodd;fill:#B61438;}
	.st123{fill:#FFFC00;}
	.st124{fill:#141414;}
	.st125{fill:#94D137;}
	.st126{fill-rule:evenodd;clip-rule:evenodd;fill:#F1F1F1;}
	.st127{fill-rule:evenodd;clip-rule:evenodd;fill:#66E066;}
	.st128{fill:#464EB8;}
	.st129{fill:#7B83EB;}
	.st130{fill:#2D8CFF;}
	.st131{fill:#F1A300;}
	.st132{fill:#4BA2F2;}
	.st133{fill:#1A5099;}
	.st134{fill:#EE6060;}
	.st135{fill-rule:evenodd;clip-rule:evenodd;fill:#F48120;}
	.st136{fill:#222222;}
	.st137{fill:url(#SVGID_63_);}
	.st138{fill:#0077B5;}
	.st139{fill:#FFCC00;}
	.st140{fill:#EB3352;}
	.st141{fill:#F9D265;}
	.st142{fill:#F5B955;}
	.st143{fill:#DC322F;}
	.st144{fill:#4DA94C;}
	.st145{fill:#39802F;}
	.st146{fill:#F6BD41;}
	.st147{fill:#EB5141;}
	.st148{fill:#2165D6;}
	.st149{fill:#2F83F7;}
	.st150{fill:#DD2A7B;}
</style><g id="Layer_1"/><g id="Layer_2"><g><g><g><path class="st150" d="M74.688,19.762c-7.401,0.226-7.399,10.874,0,11.1C82.089,30.635,82.087,19.987,74.688,19.762z"/><path class="st150" d="M50,26.187c-13.117,0-23.75,10.661-23.75,23.813c1.251,31.587,46.254,31.579,47.5,0      C73.75,36.848,63.117,26.187,50,26.187z M50,65.458c-8.514,0-15.417-6.921-15.417-15.458c0.812-20.504,30.025-20.498,30.834,0      C65.417,58.537,58.514,65.458,50,65.458z"/><path class="st150" d="M95.972,30.931C95.629,14.7,85.303,4.368,69.068,4.029c-3.898-0.376-34.236-0.383-38.137,0      C14.7,4.371,4.368,14.697,4.028,30.931c-0.376,3.893-0.383,34.24,0,38.137C4.332,85.247,14.751,95.67,30.931,95.971      c3.898,0.38,34.236,0.38,38.137,0c4.923-0.225,8.285-1.006,11.227-2.15c10.31-4.118,15.348-13.279,15.676-24.753      C96.348,65.17,96.355,34.832,95.972,30.931z M68.689,87.647c-3.836,0.367-33.54,0.372-37.378,0      c-4.509-0.206-6.958-0.959-8.588-1.593c-14.07-6.526-9.708-19.725-10.371-37.841c0.014-4.208-0.009-12.695,0.001-16.902      c0.562-12.545,6.47-18.352,18.958-18.958c3.84-0.367,33.536-0.372,37.378,0c12.548,0.562,18.35,6.47,18.958,18.958      c0.248,2.998,0.428,19.366,0,27.649C88.109,74.518,87.4,86.734,68.689,87.647z"/></g></g><g><path d="M97.214,30.954C96.853,14.058,85.949,3.145,69.048,2.785c-4.018-0.377-34.075-0.383-38.096,0     C14.058,3.148,3.145,14.05,2.785,30.954c-0.377,4.013-0.384,34.082,0,38.099c0.332,16.854,11.31,27.841,28.167,28.168     C35.89,97.447,37.531,97.5,50,97.5c12.47,0,14.11-0.053,19.048-0.279c4.607-0.209,8.195-0.899,11.636-2.236     c10.798-4.147,16.29-14.362,16.53-25.932C97.592,65.041,97.599,34.968,97.214,30.954z M94.31,68.92     c-0.292,15.376-10.011,25.109-25.395,25.396c-3.924,0.373-33.904,0.379-37.831,0C15.709,94.025,5.978,84.306,5.69,68.92     c-0.223-4.887-0.276-6.512-0.276-18.917c0.35-19.721-2.294-34.648,14.955-42.271c3.132-1.217,6.437-1.847,10.715-2.043     C35.971,5.467,37.597,5.415,50,5.415c12.403,0,14.029,0.052,18.916,0.275c4.278,0.195,7.583,0.825,10.716,2.043     c17.227,7.592,14.613,22.57,14.954,42.27C94.585,62.409,94.532,64.035,94.31,68.92z"/><path d="M74.59,31.958c3.584,0,6.5-2.927,6.5-6.525c-0.305-8.635-12.696-8.633-13,0C68.09,29.031,71.007,31.958,74.59,31.958z      M74.59,21.628c5.011,0.16,5.01,7.453,0,7.612C69.579,29.08,69.581,21.787,74.59,21.628z"/><g><g><path d="M87.606,67.175c-0.828-0.033-1.482,0.585-1.518,1.386c-0.561,11.685-5.765,16.946-17.485,17.487       c-3.743,0.363-33.33,0.366-37.075,0c-16.809-0.455-18.153-12.159-17.549-26.548c0.027-4.018,0.099-14.328,0.065-19.687       c-0.008-1.88-2.884-1.932-2.908,0c0.05,5.377-0.032,15.633-0.065,19.657c-0.189,6.026-0.046,14.351,1.75,18.232       c6.183,14.108,19.607,10.977,37.245,11.52c21.597-0.243,37.34,2.487,38.928-20.529C89.028,67.891,88.407,67.211,87.606,67.175z       "/><path d="M87.11,22.341c-6-13.992-19.782-11.042-37.245-11.519c-21.251-0.008-37.829-1.932-38.928,20.53       c-0.036,1.915,2.772,2.042,2.905,0.132c0.561-11.685,5.764-16.947,17.485-17.487c3.771-0.365,33.301-0.367,37.076,0       c11.718,0.528,16.924,5.812,17.486,17.487c0.264,3.085,0.413,19.151-0.001,27.415c-0.035,1.885,2.805,2.025,2.906,0.087       c0,0,0.27-8.963,0.27-8.963c0-12.316-0.047-13.781-0.271-18.671C88.579,26.647,87.781,24.064,87.11,22.341z"/></g><g><path d="M25,50c0,13.785,11.244,25,25.065,25c33.252-1.374,33.242-48.631,0-50C36.244,25,25,36.215,25,50z M72.225,50       c0,12.187-9.941,22.103-22.16,22.103c-29.4-1.215-29.391-42.997,0-44.207C62.284,27.897,72.225,37.813,72.225,50z"/><path d="M50.043,66.5c21.946-0.907,21.94-32.097,0-33C40.921,33.5,33.5,40.902,33.5,50C33.5,59.098,40.921,66.5,50.043,66.5z        M50.043,36.356c7.543,0,13.679,6.121,13.679,13.644s-6.136,13.645-13.679,13.645C31.895,62.894,31.9,37.103,50.043,36.356z"/></g></g></g></g></g></svg>