<?xml version="1.0" ?><svg style="enable-background:new 0 0 100 100;" version="1.1" viewBox="0 0 100 100" xml:space="preserve" xmlns="http://www.w3.org/2000/svg" xmlns:xlink="http://www.w3.org/1999/xlink"><style type="text/css">
	.st0{fill:#FFFFFF;}
	.st1{fill:#D43C89;}
	.st2{fill:#B2005F;}
	.st3{fill:none;stroke:#000000;stroke-width:3;stroke-linecap:round;stroke-linejoin:round;stroke-miterlimit:10;}
	
		.st4{fill-rule:evenodd;clip-rule:evenodd;fill:none;stroke:#000000;stroke-width:3;stroke-linecap:round;stroke-linejoin:round;stroke-miterlimit:10;}
	
		.st5{fill-rule:evenodd;clip-rule:evenodd;fill:none;stroke:#040404;stroke-width:3;stroke-linecap:round;stroke-linejoin:round;stroke-miterlimit:10;}
	.st6{fill-rule:evenodd;clip-rule:evenodd;}
	.st7{fill-rule:evenodd;clip-rule:evenodd;fill:#040404;}
	.st8{fill:url(#SVGID_1_);}
	.st9{fill:url(#SVGID_2_);}
	.st10{fill:url(#SVGID_3_);}
	.st11{fill:url(#SVGID_4_);}
	.st12{fill:url(#SVGID_5_);}
	.st13{fill:url(#SVGID_6_);}
	.st14{fill:url(#SVGID_7_);}
	.st15{fill:url(#SVGID_8_);}
	.st16{fill:url(#SVGID_9_);}
	.st17{fill:url(#SVGID_10_);}
	.st18{fill:url(#SVGID_11_);}
	.st19{fill:url(#SVGID_12_);}
	.st20{fill:url(#SVGID_13_);}
	.st21{fill:url(#SVGID_14_);}
	.st22{fill:url(#SVGID_15_);}
	.st23{fill:url(#SVGID_16_);}
	.st24{fill:url(#SVGID_17_);}
	.st25{fill:url(#SVGID_18_);}
	.st26{fill:url(#SVGID_19_);}
	.st27{fill:url(#SVGID_20_);}
	.st28{fill:url(#SVGID_21_);}
	.st29{fill:url(#SVGID_22_);}
	.st30{fill:url(#SVGID_23_);}
	.st31{fill:url(#SVGID_24_);}
	.st32{fill:url(#SVGID_25_);}
	.st33{fill:url(#SVGID_26_);}
	.st34{fill:url(#SVGID_27_);}
	.st35{fill:url(#SVGID_28_);}
	.st36{fill:url(#SVGID_29_);}
	.st37{fill:url(#SVGID_30_);}
	.st38{fill:url(#SVGID_31_);}
	.st39{fill:url(#SVGID_32_);}
	.st40{fill:url(#SVGID_33_);}
	.st41{fill:url(#SVGID_34_);}
	.st42{fill:url(#SVGID_35_);}
	.st43{fill:url(#SVGID_36_);}
	.st44{fill:url(#SVGID_37_);}
	.st45{fill:url(#SVGID_38_);}
	.st46{fill:url(#SVGID_39_);}
	.st47{fill:url(#SVGID_40_);}
	.st48{fill:url(#SVGID_41_);}
	.st49{fill:url(#SVGID_42_);}
	.st50{fill:url(#SVGID_43_);}
	.st51{fill:url(#SVGID_44_);}
	.st52{fill:url(#SVGID_45_);}
	.st53{fill:#040404;}
	.st54{fill:url(#SVGID_46_);}
	.st55{fill:url(#SVGID_47_);}
	.st56{fill:url(#SVGID_48_);}
	.st57{fill:url(#SVGID_49_);}
	.st58{fill:url(#SVGID_50_);}
	.st59{fill:url(#SVGID_51_);}
	.st60{fill:url(#SVGID_52_);}
	.st61{fill:url(#SVGID_53_);}
	.st62{fill:url(#SVGID_54_);}
	.st63{fill:url(#SVGID_55_);}
	.st64{fill:url(#SVGID_56_);}
	.st65{fill:url(#SVGID_57_);}
	.st66{fill:url(#SVGID_58_);}
	.st67{fill:url(#SVGID_59_);}
	.st68{fill:url(#SVGID_60_);}
	.st69{fill:url(#SVGID_61_);}
	.st70{fill:url(#SVGID_62_);}
	.st71{fill:none;stroke:#000000;stroke-width:3;stroke-miterlimit:10;}
	.st72{fill:none;stroke:#FFFFFF;stroke-miterlimit:10;}
	.st73{fill:#4BC9FF;}
	.st74{fill:#5500DD;}
	.st75{fill:#FF3A00;}
	.st76{fill:#FFC794;}
	.st77{fill:#F1F1F1;}
	.st78{fill:#EB4E00;}
	.st79{fill:#E6162D;}
	.st80{fill:#FF9933;}
	.st81{fill:#B92B27;}
	.st82{fill:#00ACED;}
	.st83{fill:#BD2125;}
	.st84{fill:#1877F2;}
	.st85{fill:#6665D2;}
	.st86{fill:#CE3056;}
	.st87{fill:#5BB381;}
	.st88{fill:#61C3EC;}
	.st89{fill:#E4B34B;}
	.st90{fill:#181EF2;}
	.st91{fill:#FF0000;}
	.st92{fill:#FE466C;}
	.st93{fill:#FA4778;}
	.st94{fill:#FF7700;}
	.st95{fill:#D95040;}
	.st96{fill:#58A55C;}
	.st97{fill:#4E86EC;}
	.st98{fill:#B6332A;}
	.st99{fill:#F3BD42;}
	.st100{fill-rule:evenodd;clip-rule:evenodd;fill:#1F6BF6;}
	.st101{fill:#520094;}
	.st102{fill:#4477E8;}
	.st103{fill:#3D1D1C;}
	.st104{fill:#FFE812;}
	.st105{fill:#344356;}
	.st106{fill:#00CC76;}
	.st107{fill-rule:evenodd;clip-rule:evenodd;fill:#345E90;}
	.st108{fill:#1F65D8;}
	.st109{fill:#EB3587;}
	.st110{fill-rule:evenodd;clip-rule:evenodd;fill:#603A88;}
	.st111{fill:#E3CE99;}
	.st112{fill:#783AF9;}
	.st113{fill:#FF515E;}
	.st114{fill:#FF4906;}
	.st115{fill:#503227;}
	.st116{fill:#4C7BD9;}
	.st117{fill:#69C9D0;}
	.st118{fill:#1B92D1;}
	.st119{fill:#EB4F4A;}
	.st120{fill:#513728;}
	.st121{fill:#FF6600;}
	.st122{fill-rule:evenodd;clip-rule:evenodd;fill:#B61438;}
	.st123{fill:#FFFC00;}
	.st124{fill:#141414;}
	.st125{fill:#94D137;}
	.st126{fill-rule:evenodd;clip-rule:evenodd;fill:#F1F1F1;}
	.st127{fill-rule:evenodd;clip-rule:evenodd;fill:#66E066;}
	.st128{fill:#464EB8;}
	.st129{fill:#7B83EB;}
	.st130{fill:#2D8CFF;}
	.st131{fill:#F1A300;}
	.st132{fill:#4BA2F2;}
	.st133{fill:#1A5099;}
	.st134{fill:#EE6060;}
	.st135{fill-rule:evenodd;clip-rule:evenodd;fill:#F48120;}
	.st136{fill:#222222;}
	.st137{fill:url(#SVGID_63_);}
	.st138{fill:#0077B5;}
	.st139{fill:#FFCC00;}
	.st140{fill:#EB3352;}
	.st141{fill:#F9D265;}
	.st142{fill:#F5B955;}
	.st143{fill:#DC322F;}
	.st144{fill:#4DA94C;}
	.st145{fill:#39802F;}
	.st146{fill:#F6BD41;}
	.st147{fill:#EB5141;}
	.st148{fill:#2165D6;}
	.st149{fill:#2F83F7;}
	.st150{fill:#DD2A7B;}
</style><g id="Layer_1"/><g id="Layer_2"><g><g><path class="st106" d="M96.016,39.744C92.024,8.546,50.272-3.26,25.207,10.963C-12.474,32.265,3.399,77.179,42.212,82.329     c0,0,0.52,0.103,0.52,0.103c1.223,0.242,1.552,0.575,1.637,0.706c0.157,0.245,0.075,0.727,0.012,0.992     c-0.533,2.241-1.191,4.402-0.761,6.908c1.268,6.699,8.309,3.4,11.868,1.069c4.503-2.645,8.746-5.628,11.939-7.931     C82.525,73.653,98.457,60.571,96.016,39.744z"/><path class="st77" d="M32.534,53.849h-7.981c-1.206,0-2.184-0.978-2.184-2.184V34.914c0.072-2.874,4.293-2.885,4.367,0     c0,0,0,14.567,0,14.567h5.796C35.409,49.551,35.416,53.777,32.534,53.849z"/><path class="st77" d="M40.859,51.606c-0.071,2.875-4.294,2.884-4.368,0c0-3.39,0-13.523,0-16.751     c0.071-2.875,4.294-2.884,4.368,0C40.859,34.855,40.859,51.606,40.859,51.606z"/><path class="st77" d="M60.598,51.606c0.063,2.049-2.787,2.991-3.951,1.283c0,0-7.863-10.83-7.863-10.83v9.548     c-0.069,2.874-4.295,2.884-4.367,0c0,0,0-16.272,0-16.272c-0.04-2.069,2.766-2.987,3.951-1.283c0,0,7.864,10.83,7.864,10.83     V34.855c0.069-2.875,4.295-2.884,4.367,0C60.598,34.855,60.598,51.606,60.598,51.606z"/><path class="st77" d="M76.51,53.446H65.702c-1.206,0-2.184-0.978-2.184-2.184c0.003-4.175-0.002-12.577,0-16.751     c0-1.206,0.978-2.184,2.184-2.184h10.473c2.879,0.075,2.882,4.293,0,4.367h-8.289v4.008h6.726c2.878,0.072,2.881,4.295,0,4.367     h-6.726v4.008h8.624C79.385,49.147,79.393,53.374,76.51,53.446z"/></g><g><path d="M58.392,31.29c-1.97,0-3.574,1.603-3.574,3.573v5.714l-5.327-7.336c-1.967-2.78-6.508-1.315-6.465,2.1     c0,0,0,16.24,0,16.24c0.124,4.71,7.022,4.715,7.147,0c0,0,0-5.236,0-5.236l5.327,7.336c1.97,2.776,6.507,1.318,6.465-2.1     c0,0,0-16.719,0-16.719C61.965,32.893,60.362,31.29,58.392,31.29z M59.177,51.582c0.026,0.741-1.013,1.068-1.421,0.462     c0,0-7.848-10.809-7.848-10.809c-0.741-1.089-2.564-0.491-2.522,0.819c0,0,0,9.529,0,9.529c-0.001,1.022-1.568,1.032-1.571,0     c0,0,0-16.24,0-16.24c-0.022-0.737,1.005-1.077,1.421-0.462c0,0,7.848,10.809,7.848,10.809c0.735,1.087,2.566,0.493,2.522-0.819     c0,0,0-10.007,0-10.007c0.001-1.02,1.568-1.031,1.571,0C59.177,34.864,59.177,51.582,59.177,51.582z"/><path d="M76.452,47.665c0,0-7.212,0-7.212,0v-1.212h5.319c4.711-0.123,4.711-7.024,0-7.147c0,0-5.319,0-5.319,0v-1.213h6.879     c4.718-0.146,4.724-6.998,0-7.146c0,0-10.453,0-10.453,0c-1.97,0-3.573,1.603-3.573,3.573v16.719c0,1.97,1.603,3.573,3.573,3.573     h10.787C81.164,54.686,81.165,47.791,76.452,47.665z M76.452,52.024c0,0-10.787,0-10.787,0c-0.433,0-0.785-0.352-0.785-0.785     V34.52c0-0.433,0.352-0.785,0.785-0.785h10.453c1.024,0.009,1.029,1.562,0,1.57c0,0-8.273,0-8.273,0     c-0.77,0-1.394,0.624-1.394,1.394V40.7c0,0.77,0.624,1.394,1.394,1.394h6.713c1.023,0.004,1.029,1.566,0,1.571     c0,0-6.713,0-6.713,0c-0.77,0-1.394,0.624-1.394,1.394v4c0,0.77,0.624,1.394,1.394,1.394h8.607     C77.474,50.453,77.483,52.022,76.452,52.024z"/><path d="M87.653,19.182C72.364,2.394,44.228-0.831,24.594,9.787C2.028,21.469-4.588,48.281,11.002,67.006     c7.706,9.745,19.747,14.959,31.995,16.841c-1.514,4.584-1.677,12.396,4.988,12.49c3.027-0.022,6.044-1.87,8.191-3.128     c4.544-2.669,8.814-5.671,12.026-7.988c7.044-5.082,15.029-10.843,21.074-18.369C100.654,52.719,100.33,32.497,87.653,19.182z      M66.57,82.959c-3.162,2.282-7.361,5.235-11.806,7.845c-7.048,4.601-11.695,3.707-9.19-5.744     c0.744-2.309,0.041-3.601-2.564-4.079C5.358,76.497-10.744,32.909,25.903,12.248C49.98-0.983,88.418,8.839,94.268,38.043     C97.823,59.222,81.891,72.249,66.57,82.959z"/><path d="M35.118,34.864c0.032,1.837,2.758,1.828,2.788,0c0.002-1.02,1.566-1.031,1.57,0c0,0,0,16.719,0,16.719     c-0.007,1.022-1.563,1.03-1.57,0c0,0,0-11.883,0-11.883c-0.032-1.83-2.756-1.834-2.788,0c0,0,0,9.448,0,9.448     c-0.649-0.665-1.556-1.079-2.557-1.079H28.17V34.923c-0.145-4.714-6.998-4.727-7.147,0c0,0,0,16.719,0,16.719     c0,1.97,1.603,3.574,3.573,3.574h7.965c1.255,0.011,2.455-0.685,3.084-1.766c1.807,3.029,6.646,1.713,6.619-1.867     c0,0,0-16.719,0-16.719C42.141,30.156,35.242,30.149,35.118,34.864z M32.561,52.427c0,0-7.965,0-7.965,0     c-0.433,0-0.785-0.352-0.785-0.786V34.923c0.006-1.019,1.565-1.032,1.571,0c0,0,0,14.539,0,14.539     c0,0.77,0.624,1.394,1.394,1.394h5.785C33.585,50.858,33.589,52.425,32.561,52.427z"/></g></g></g></svg>