<?xml version="1.0" ?><svg style="enable-background:new 0 0 100 100;" version="1.1" viewBox="0 0 100 100" xml:space="preserve" xmlns="http://www.w3.org/2000/svg" xmlns:xlink="http://www.w3.org/1999/xlink"><style type="text/css">
	.st0{fill:#FFFFFF;}
	.st1{fill:#D43C89;}
	.st2{fill:#B2005F;}
	.st3{fill:none;stroke:#000000;stroke-width:3;stroke-linecap:round;stroke-linejoin:round;stroke-miterlimit:10;}
	
		.st4{fill-rule:evenodd;clip-rule:evenodd;fill:none;stroke:#000000;stroke-width:3;stroke-linecap:round;stroke-linejoin:round;stroke-miterlimit:10;}
	
		.st5{fill-rule:evenodd;clip-rule:evenodd;fill:none;stroke:#040404;stroke-width:3;stroke-linecap:round;stroke-linejoin:round;stroke-miterlimit:10;}
	.st6{fill-rule:evenodd;clip-rule:evenodd;}
	.st7{fill-rule:evenodd;clip-rule:evenodd;fill:#040404;}
	.st8{fill:url(#SVGID_1_);}
	.st9{fill:url(#SVGID_2_);}
	.st10{fill:url(#SVGID_3_);}
	.st11{fill:url(#SVGID_4_);}
	.st12{fill:url(#SVGID_5_);}
	.st13{fill:url(#SVGID_6_);}
	.st14{fill:url(#SVGID_7_);}
	.st15{fill:url(#SVGID_8_);}
	.st16{fill:url(#SVGID_9_);}
	.st17{fill:url(#SVGID_10_);}
	.st18{fill:url(#SVGID_11_);}
	.st19{fill:url(#SVGID_12_);}
	.st20{fill:url(#SVGID_13_);}
	.st21{fill:url(#SVGID_14_);}
	.st22{fill:url(#SVGID_15_);}
	.st23{fill:url(#SVGID_16_);}
	.st24{fill:url(#SVGID_17_);}
	.st25{fill:url(#SVGID_18_);}
	.st26{fill:url(#SVGID_19_);}
	.st27{fill:url(#SVGID_20_);}
	.st28{fill:url(#SVGID_21_);}
	.st29{fill:url(#SVGID_22_);}
	.st30{fill:url(#SVGID_23_);}
	.st31{fill:url(#SVGID_24_);}
	.st32{fill:url(#SVGID_25_);}
	.st33{fill:url(#SVGID_26_);}
	.st34{fill:url(#SVGID_27_);}
	.st35{fill:url(#SVGID_28_);}
	.st36{fill:url(#SVGID_29_);}
	.st37{fill:url(#SVGID_30_);}
	.st38{fill:url(#SVGID_31_);}
	.st39{fill:url(#SVGID_32_);}
	.st40{fill:url(#SVGID_33_);}
	.st41{fill:url(#SVGID_34_);}
	.st42{fill:url(#SVGID_35_);}
	.st43{fill:url(#SVGID_36_);}
	.st44{fill:url(#SVGID_37_);}
	.st45{fill:url(#SVGID_38_);}
	.st46{fill:url(#SVGID_39_);}
	.st47{fill:url(#SVGID_40_);}
	.st48{fill:url(#SVGID_41_);}
	.st49{fill:url(#SVGID_42_);}
	.st50{fill:url(#SVGID_43_);}
	.st51{fill:url(#SVGID_44_);}
	.st52{fill:url(#SVGID_45_);}
	.st53{fill:#040404;}
	.st54{fill:url(#SVGID_46_);}
	.st55{fill:url(#SVGID_47_);}
	.st56{fill:url(#SVGID_48_);}
	.st57{fill:url(#SVGID_49_);}
	.st58{fill:url(#SVGID_50_);}
	.st59{fill:url(#SVGID_51_);}
	.st60{fill:url(#SVGID_52_);}
	.st61{fill:url(#SVGID_53_);}
	.st62{fill:url(#SVGID_54_);}
	.st63{fill:url(#SVGID_55_);}
	.st64{fill:url(#SVGID_56_);}
	.st65{fill:url(#SVGID_57_);}
	.st66{fill:url(#SVGID_58_);}
	.st67{fill:url(#SVGID_59_);}
	.st68{fill:url(#SVGID_60_);}
	.st69{fill:url(#SVGID_61_);}
	.st70{fill:url(#SVGID_62_);}
	.st71{fill:none;stroke:#000000;stroke-width:3;stroke-miterlimit:10;}
	.st72{fill:none;stroke:#FFFFFF;stroke-miterlimit:10;}
	.st73{fill:#4BC9FF;}
	.st74{fill:#5500DD;}
	.st75{fill:#FF3A00;}
	.st76{fill:#FFC794;}
	.st77{fill:#F1F1F1;}
	.st78{fill:#EB4E00;}
	.st79{fill:#E6162D;}
	.st80{fill:#FF9933;}
	.st81{fill:#B92B27;}
	.st82{fill:#00ACED;}
	.st83{fill:#BD2125;}
	.st84{fill:#1877F2;}
	.st85{fill:#6665D2;}
	.st86{fill:#CE3056;}
	.st87{fill:#5BB381;}
	.st88{fill:#61C3EC;}
	.st89{fill:#E4B34B;}
	.st90{fill:#181EF2;}
	.st91{fill:#FF0000;}
	.st92{fill:#FE466C;}
	.st93{fill:#FA4778;}
	.st94{fill:#FF7700;}
	.st95{fill:#D95040;}
	.st96{fill:#58A55C;}
	.st97{fill:#4E86EC;}
	.st98{fill:#B6332A;}
	.st99{fill:#F3BD42;}
	.st100{fill-rule:evenodd;clip-rule:evenodd;fill:#1F6BF6;}
	.st101{fill:#520094;}
	.st102{fill:#4477E8;}
	.st103{fill:#3D1D1C;}
	.st104{fill:#FFE812;}
	.st105{fill:#344356;}
	.st106{fill:#00CC76;}
	.st107{fill-rule:evenodd;clip-rule:evenodd;fill:#345E90;}
	.st108{fill:#1F65D8;}
	.st109{fill:#EB3587;}
	.st110{fill-rule:evenodd;clip-rule:evenodd;fill:#603A88;}
	.st111{fill:#E3CE99;}
	.st112{fill:#783AF9;}
	.st113{fill:#FF515E;}
	.st114{fill:#FF4906;}
	.st115{fill:#503227;}
	.st116{fill:#4C7BD9;}
	.st117{fill:#69C9D0;}
	.st118{fill:#1B92D1;}
	.st119{fill:#EB4F4A;}
	.st120{fill:#513728;}
	.st121{fill:#FF6600;}
	.st122{fill-rule:evenodd;clip-rule:evenodd;fill:#B61438;}
	.st123{fill:#FFFC00;}
	.st124{fill:#141414;}
	.st125{fill:#94D137;}
	.st126{fill-rule:evenodd;clip-rule:evenodd;fill:#F1F1F1;}
	.st127{fill-rule:evenodd;clip-rule:evenodd;fill:#66E066;}
	.st128{fill:#464EB8;}
	.st129{fill:#7B83EB;}
	.st130{fill:#2D8CFF;}
	.st131{fill:#F1A300;}
	.st132{fill:#4BA2F2;}
	.st133{fill:#1A5099;}
	.st134{fill:#EE6060;}
	.st135{fill-rule:evenodd;clip-rule:evenodd;fill:#F48120;}
	.st136{fill:#222222;}
	.st137{fill:url(#SVGID_63_);}
	.st138{fill:#0077B5;}
	.st139{fill:#FFCC00;}
	.st140{fill:#EB3352;}
	.st141{fill:#F9D265;}
	.st142{fill:#F5B955;}
	.st143{fill:#DC322F;}
	.st144{fill:#4DA94C;}
	.st145{fill:#39802F;}
	.st146{fill:#F6BD41;}
	.st147{fill:#EB5141;}
	.st148{fill:#2165D6;}
	.st149{fill:#2F83F7;}
	.st150{fill:#DD2A7B;}
</style><g id="Layer_1"/><g id="Layer_2"><g><g><path class="st77" d="M89.462,52.991c3.79,0.788,5.693-3.165,6.45-6.207c1.228-5.456-1.582-9.911-7.014-11.187     c-5.697-1.232-12.032-0.81-15.988,4.031c-0.177,0.209-0.741-0.287-0.691-0.665c0.655-4.985,1.305-9.971,1.996-14.951     c0.428-3.087-0.211-4.506-2.989-5.933c-6.319-3.336-17.256-2.787-18.931,5.582c-1.141,5.532-1.859,11.55-2.627,17.052     C28.041,25.159-1.383,41.394,4.585,68.767c1.244,6.276,4.889,10.665,10.835,13.08c9.949,3.739,22.059,2.117,30.543-4.246     c2.565,7.009,11.952,6.837,17.952,5.018c3.267-0.967,2.906-4.411,3.462-7.284c1.865,3.642,3.748,7.307,8.071,7.96     c7.816,1.279,20.261-0.764,19.606-10.972c-0.198-3.686-2.838-8.031-7.534-6.582c-0.058,0.018-0.143-0.054-0.282-0.112     c-1.188-2.151-2.294-4.42-3.656-6.523c-0.904-1.395-0.678-2.287,0.247-3.586C85.283,53.481,86.964,52.532,89.462,52.991z"/><path class="st116" d="M31.379,79.203C14.221,81.457,5.286,73.295,9.138,55.885c1.483-8.693,8.103-14.692,17.013-16.319     c9.369-1.938,22.191,0.725,23.694,11.884C52.285,64.662,45.454,77.661,31.379,79.203z"/><path class="st116" d="M77.957,57.547c2.032,3.739,4.106,7.455,6.168,11.178c0.803,1.709,2.493,1.351,4.062,1.221     c1.703-0.195,2.2,0.165,2.522,1.859c1.328,7.51-9.128,7.851-14.249,7.36c-1.794-0.181-2.995-1.389-3.776-2.949     c-2.14-4.274-4.24-8.569-6.356-12.856c-0.434-0.526-0.739-2.297-1.386-2.21c-0.669,4.931-1.365,9.858-1.998,14.793     c-0.381,2.97-0.396,3.071-3.405,3.242c-4.207,0.258-10.162,0.733-9.779-5.161c1.778-16.18,3.975-32.361,6.368-48.462     c0.655-3.504,2.459-4.858,6.01-5.022c1.751-0.145,8.336,0.214,7.848,2.865c-1.306,10.791-3.137,21.486-4.115,32.304     c3.17-4.539,6.39-8.433,9.716-12.759c3.593-4.642,9.446-4.229,13.575-2.819c2.992,1.021,3.799,6.291,1.451,8.384     c-0.207,0.185-0.574,0.25-0.871,0.262c-0.606,0.026-1.225,0.036-1.823-0.05c-2.562-0.367-4.501,0.671-6.031,2.63     c-1.323,1.693-2.636,3.395-3.9,5.132C77.812,56.731,77.808,57.272,77.957,57.547z"/><path class="st77" d="M31.775,48.304c-8.674-0.793-10.996,10.454-9.676,17.197c0.332,2.567,1.836,4.516,4.575,4.769     c4.121,0.492,7.394-1.365,9.145-5.486c1.679-3.952,1.953-8.095,1.03-12.274C36.247,49.784,34.551,48.471,31.775,48.304z"/></g><g><path d="M89.088,54.342c4.419,1.02,7.249-3.547,8.038-7.252c3.223-13.279-15.177-16.859-23.301-10.345     c0.547-4.166,1.096-8.33,1.672-12.491c0.519-3.744-0.455-5.665-3.722-7.344c-5.402-2.836-13.759-3.095-18.32,1.479     c-1.239,1.343,0.764,3.207,2.015,1.905c3.793-3.624,10.682-3.178,15.037-0.918c2.201,1.131,2.599,1.93,2.243,4.497     c-0.689,4.967-1.341,9.955-1.993,14.928c-0.22,1.704,1.969,3.07,3.122,1.741c2.489-2.938,5.862-4.277,10.274-4.094     c6.348-0.029,11.774,3.102,10.267,10.033c-0.538,2.123-1.97,5.82-4.833,5.133c-2.858-0.524-5.146,0.484-7,3.082     c-0.982,1.378-1.696,2.954-0.281,5.136c1.328,2.053,2.419,4.29,3.597,6.425c0.152,0.274,0.408,0.498,0.697,0.619     c0.154,0.081,0.623,0.33,1.208,0.148c3.413-1.096,5.492,2.04,5.724,5.317c0.519,9.276-11.036,10.539-17.955,9.506     c-3.603-0.427-5.454-4.075-7.059-7.237c-0.579-1.16-2.44-0.824-2.59,0.456c0,0-0.193,1.257-0.193,1.257     c-0.344,1.854-0.172,4.353-2.309,4.895c-5.335,1.611-13.972,1.937-16.196-4.171c-0.409-0.949-1.486-1.215-2.46-0.568     c-6.606,5.775-19.527,7.613-28.793,4.006C3.653,75.955,3.365,59.194,8.329,49.342c6.802-14.639,28.641-16.913,40.604-7.414     c0.815,0.506,1.966-0.062,2.07-1.011c0.778-5.591,1.465-11.351,2.602-16.907c0.371-1.761-2.29-2.38-2.71-0.592     c-1.017,4.913-1.646,9.95-2.335,14.86C26.048,24.439-2.62,41.03,3.284,68.99c3.204,18.674,29.837,19.672,42.053,10.553     c3.59,6.281,12.595,6.225,18.928,4.321c2.038-0.646,3.371-2.174,3.795-4.33c1.761,2.87,4.137,4.569,7.069,5.05     c8.742,1.436,21.848-1.151,21.174-12.391c-0.124-2.293-1.124-5.349-3.561-7.049c-1.409-0.983-3.065-1.323-4.829-0.997     c-0.205-0.38-0.409-0.762-0.613-1.145c-0.824-1.549-1.677-3.152-2.666-4.678c-0.481-0.742-0.516-0.997,0.212-2.018     C86.089,54.562,87.272,54.01,89.088,54.342z"/><path d="M71.276,23.644c0.825-4.889-10.238-5.266-13.261-3.468c-1.773,0.959-2.829,2.648-3.302,5.179     c-0.583,3.123-0.994,6.272-1.402,9.405c-0.712,5.427-1.452,10.885-2.163,16.308C47.88,31.949,16.036,34.599,9.672,49.886     c-0.756,1.661,1.647,2.84,2.491,1.219c5.188-12.896,33.655-15.945,36.276,0.568c2.224,12.332-3.774,24.612-17.257,26.089     c-16.301,2.201-24.307-5.569-20.631-21.645c0.313-1.791-2.381-2.285-2.728-0.498C4.488,70.34,10.177,80.846,26.217,80.913     c9.337,0.17,18.832-3.836,22.596-11.966c-0.187,1.639-0.373,3.285-0.476,4.932c-0.307,6.914,5.955,7.057,11.221,6.621     c3.611-0.206,4.225-0.787,4.694-4.443c0.459-3.58,0.951-7.155,1.442-10.731c1.87,3.796,3.771,7.668,5.662,11.447     c1.712,3.747,5.075,3.944,8.506,3.874c5.46-0.001,13.586-2.062,12.083-9.156c-0.527-3.466-3.065-3.128-5.636-2.856     c-0.457,0.061-0.746-0.021-1.083-0.629c-2.014-3.624-4.068-7.323-6.046-10.954c2.395-2.722,4.283-7.629,8.422-6.955     c1.37,0.075,2.606,0.353,3.807-0.55c3.097-2.486,2.036-9.553-1.923-10.713c-6.215-2.121-11.859-0.897-15.089,3.277     c-2.145,2.714-4.593,5.987-6.702,8.557C68.848,41.918,70.106,32.347,71.276,23.644z M64.402,55.146     c-0.253,1.587,1.395,2.672,2.519,1.358c0.342-0.474,0.664-0.927,0.975-1.363c2.786-3.916,5.784-7.528,8.693-11.332     c3.561-4.602,9.578-3.176,12.001-2.35c1.899,0.531,2.574,4.902,0.968,5.931c-0.522,0.022-1.073,0.032-1.563-0.037     c-5.463-1.01-8.263,4.493-11.227,8.301c-0.538,0.74-0.488,1.868-0.128,2.533c2.014,3.703,4.114,7.472,6.161,11.164     c0.744,1.34,1.888,2.06,3.269,2.072c0.854-0.001,2.183-0.219,2.941-0.174c0.041,0.084,0.121,0.293,0.21,0.762     c1.247,5.753-7.966,6.172-12.717,5.704c-1.116-0.112-1.988-0.826-2.668-2.183c-2.355-4.695-5.101-10.326-7.447-15.078     c-0.582-1.261-2.739-0.882-2.892,0.479c-0.793,5.345-1.436,11.344-2.309,16.608c-0.295,0.105-1.221,0.158-1.787,0.19     c-3.077,0.11-8.774,0.98-8.295-3.678c1.777-16.104,3.95-32.16,6.334-48.19c0.517-2.763,1.702-3.742,4.698-3.88     c2.622-0.121,4.561,0.213,6.28,1.083C67.528,33.364,65.372,44.688,64.402,55.146z"/><path d="M27.927,71.684c9.346,0.06,12.153-11.74,10.265-19.483c-0.718-3.249-2.908-5.076-6.334-5.282     c-10.024-0.877-12.872,12.03-10.873,19.87C21.709,70.103,24.621,71.785,27.927,71.684z M23.524,57.885     c0.781-4.405,3.361-8.796,8.168-8.199c2.205,0.133,3.34,1.064,3.792,3.112c0.885,4.005,0.564,7.843-0.951,11.407     c-1.47,3.46-4.13,5.064-7.685,4.64C22.284,68.583,23.037,61.043,23.524,57.885z"/></g></g></g></svg>