<?xml version="1.0" ?><svg style="enable-background:new 0 0 100 100;" version="1.1" viewBox="0 0 100 100" xml:space="preserve" xmlns="http://www.w3.org/2000/svg" xmlns:xlink="http://www.w3.org/1999/xlink"><style type="text/css">
	.st0{fill:#FFFFFF;}
	.st1{fill:#D43C89;}
	.st2{fill:#B2005F;}
	.st3{fill:none;stroke:#000000;stroke-width:3;stroke-linecap:round;stroke-linejoin:round;stroke-miterlimit:10;}
	
		.st4{fill-rule:evenodd;clip-rule:evenodd;fill:none;stroke:#000000;stroke-width:3;stroke-linecap:round;stroke-linejoin:round;stroke-miterlimit:10;}
	
		.st5{fill-rule:evenodd;clip-rule:evenodd;fill:none;stroke:#040404;stroke-width:3;stroke-linecap:round;stroke-linejoin:round;stroke-miterlimit:10;}
	.st6{fill-rule:evenodd;clip-rule:evenodd;}
	.st7{fill-rule:evenodd;clip-rule:evenodd;fill:#040404;}
	.st8{fill:url(#SVGID_1_);}
	.st9{fill:url(#SVGID_2_);}
	.st10{fill:url(#SVGID_3_);}
	.st11{fill:url(#SVGID_4_);}
	.st12{fill:url(#SVGID_5_);}
	.st13{fill:url(#SVGID_6_);}
	.st14{fill:url(#SVGID_7_);}
	.st15{fill:url(#SVGID_8_);}
	.st16{fill:url(#SVGID_9_);}
	.st17{fill:url(#SVGID_10_);}
	.st18{fill:url(#SVGID_11_);}
	.st19{fill:url(#SVGID_12_);}
	.st20{fill:url(#SVGID_13_);}
	.st21{fill:url(#SVGID_14_);}
	.st22{fill:url(#SVGID_15_);}
	.st23{fill:url(#SVGID_16_);}
	.st24{fill:url(#SVGID_17_);}
	.st25{fill:url(#SVGID_18_);}
	.st26{fill:url(#SVGID_19_);}
	.st27{fill:url(#SVGID_20_);}
	.st28{fill:url(#SVGID_21_);}
	.st29{fill:url(#SVGID_22_);}
	.st30{fill:url(#SVGID_23_);}
	.st31{fill:url(#SVGID_24_);}
	.st32{fill:url(#SVGID_25_);}
	.st33{fill:url(#SVGID_26_);}
	.st34{fill:url(#SVGID_27_);}
	.st35{fill:url(#SVGID_28_);}
	.st36{fill:url(#SVGID_29_);}
	.st37{fill:url(#SVGID_30_);}
	.st38{fill:url(#SVGID_31_);}
	.st39{fill:url(#SVGID_32_);}
	.st40{fill:url(#SVGID_33_);}
	.st41{fill:url(#SVGID_34_);}
	.st42{fill:url(#SVGID_35_);}
	.st43{fill:url(#SVGID_36_);}
	.st44{fill:url(#SVGID_37_);}
	.st45{fill:url(#SVGID_38_);}
	.st46{fill:url(#SVGID_39_);}
	.st47{fill:url(#SVGID_40_);}
	.st48{fill:url(#SVGID_41_);}
	.st49{fill:url(#SVGID_42_);}
	.st50{fill:url(#SVGID_43_);}
	.st51{fill:url(#SVGID_44_);}
	.st52{fill:url(#SVGID_45_);}
	.st53{fill:#040404;}
	.st54{fill:url(#SVGID_46_);}
	.st55{fill:url(#SVGID_47_);}
	.st56{fill:url(#SVGID_48_);}
	.st57{fill:url(#SVGID_49_);}
	.st58{fill:url(#SVGID_50_);}
	.st59{fill:url(#SVGID_51_);}
	.st60{fill:url(#SVGID_52_);}
	.st61{fill:url(#SVGID_53_);}
	.st62{fill:url(#SVGID_54_);}
	.st63{fill:url(#SVGID_55_);}
	.st64{fill:url(#SVGID_56_);}
	.st65{fill:url(#SVGID_57_);}
	.st66{fill:url(#SVGID_58_);}
	.st67{fill:url(#SVGID_59_);}
	.st68{fill:url(#SVGID_60_);}
	.st69{fill:url(#SVGID_61_);}
	.st70{fill:url(#SVGID_62_);}
	.st71{fill:none;stroke:#000000;stroke-width:3;stroke-miterlimit:10;}
	.st72{fill:none;stroke:#FFFFFF;stroke-miterlimit:10;}
	.st73{fill:#4BC9FF;}
	.st74{fill:#5500DD;}
	.st75{fill:#FF3A00;}
	.st76{fill:#FFC794;}
	.st77{fill:#F1F1F1;}
	.st78{fill:#EB4E00;}
	.st79{fill:#E6162D;}
	.st80{fill:#FF9933;}
	.st81{fill:#B92B27;}
	.st82{fill:#00ACED;}
	.st83{fill:#BD2125;}
	.st84{fill:#1877F2;}
	.st85{fill:#6665D2;}
	.st86{fill:#CE3056;}
	.st87{fill:#5BB381;}
	.st88{fill:#61C3EC;}
	.st89{fill:#E4B34B;}
	.st90{fill:#181EF2;}
	.st91{fill:#FF0000;}
	.st92{fill:#FE466C;}
	.st93{fill:#FA4778;}
	.st94{fill:#FF7700;}
	.st95{fill:#D95040;}
	.st96{fill:#58A55C;}
	.st97{fill:#4E86EC;}
	.st98{fill:#B6332A;}
	.st99{fill:#F3BD42;}
	.st100{fill-rule:evenodd;clip-rule:evenodd;fill:#1F6BF6;}
	.st101{fill:#520094;}
	.st102{fill:#4477E8;}
	.st103{fill:#3D1D1C;}
	.st104{fill:#FFE812;}
	.st105{fill:#344356;}
	.st106{fill:#00CC76;}
	.st107{fill-rule:evenodd;clip-rule:evenodd;fill:#345E90;}
	.st108{fill:#1F65D8;}
	.st109{fill:#EB3587;}
	.st110{fill-rule:evenodd;clip-rule:evenodd;fill:#603A88;}
	.st111{fill:#E3CE99;}
	.st112{fill:#783AF9;}
	.st113{fill:#FF515E;}
	.st114{fill:#FF4906;}
	.st115{fill:#503227;}
	.st116{fill:#4C7BD9;}
	.st117{fill:#69C9D0;}
	.st118{fill:#1B92D1;}
	.st119{fill:#EB4F4A;}
	.st120{fill:#513728;}
	.st121{fill:#FF6600;}
	.st122{fill-rule:evenodd;clip-rule:evenodd;fill:#B61438;}
	.st123{fill:#FFFC00;}
	.st124{fill:#141414;}
	.st125{fill:#94D137;}
	.st126{fill-rule:evenodd;clip-rule:evenodd;fill:#F1F1F1;}
	.st127{fill-rule:evenodd;clip-rule:evenodd;fill:#66E066;}
	.st128{fill:#464EB8;}
	.st129{fill:#7B83EB;}
	.st130{fill:#2D8CFF;}
	.st131{fill:#F1A300;}
	.st132{fill:#4BA2F2;}
	.st133{fill:#1A5099;}
	.st134{fill:#EE6060;}
	.st135{fill-rule:evenodd;clip-rule:evenodd;fill:#F48120;}
	.st136{fill:#222222;}
	.st137{fill:url(#SVGID_63_);}
	.st138{fill:#0077B5;}
	.st139{fill:#FFCC00;}
	.st140{fill:#EB3352;}
	.st141{fill:#F9D265;}
	.st142{fill:#F5B955;}
	.st143{fill:#DC322F;}
	.st144{fill:#4DA94C;}
	.st145{fill:#39802F;}
	.st146{fill:#F6BD41;}
	.st147{fill:#EB5141;}
	.st148{fill:#2165D6;}
	.st149{fill:#2F83F7;}
	.st150{fill:#DD2A7B;}
</style><g id="Layer_1"/><g id="Layer_2"><g><path class="st83" d="M76.951,13.114C61.971-1.752,34.264,2.505,23.281,14.73c-6.174,6.249-9.714,14.547-9.714,22.767    c0,10.32,4.314,18.241,11.54,21.188c1.932,0.84,4.08-0.127,4.602-2.3c0.244-0.918,0.809-3.184,1.055-4.167    c0.526-1.942,0.101-2.876-1.046-4.229c-2.09-2.474-3.063-5.399-3.063-9.206c0-11.309,8.416-23.327,24.015-23.327    c12.377,0,20.065,7.038,20.065,18.368c0.05,9.939-3.716,25.587-14.938,26.068c-2.268,0-4.305-0.932-5.59-2.557    c-2.949-3.707-0.067-8.664,0.906-12.719c1.328-4.303,2.583-8.368,2.583-11.611c0-5.547-3.408-9.274-8.48-9.274    c-10.61,0.251-13.742,14.74-9.913,23.259c-0.812,3.442-5.638,23.908-6.554,27.767c-5.536,26.361,5.61,29.735,13.33,3.771    c0.437-1.592,1.967-7.615,2.904-11.316c2.863,2.759,7.472,4.624,11.957,4.624C84.132,72.149,96.362,31.132,76.951,13.114z"/><g><path d="M28.058,58.926c0-0.764-0.62-1.384-1.384-1.384c-7.412-2.087-11.471-10.064-11.545-19.987     c0-7.815,3.378-15.714,9.267-21.672c1.256-1.295-0.664-3.228-1.968-1.946c-6.398,6.472-10.067,15.081-10.067,23.618     c0,10.847,4.615,19.204,12.343,22.355C25.891,60.44,27.986,60.688,28.058,58.926z"/><path d="M77.781,12.304C65.636-0.056,41.885-0.326,28.143,9.226c-0.635,0.424-0.806,1.283-0.382,1.919     c0.423,0.635,1.283,0.807,1.919,0.382c20.875-13.806,54.408-4.59,55.158,23.353c0.231,17.76-9.696,35.36-27.932,35.442     c-3.988,0-8.282-1.653-10.938-4.212c-0.725-0.74-2.078-0.346-2.302,0.657c-0.596,2.352-2.411,9.51-2.883,11.228     c-1.676,6.078-6.507,17.591-10.019,16.63c-2.981-0.8-2.047-13.384-0.565-19.694c1-4.186,4.788-20.299,6.522-27.619     c0.067-0.285,0.042-0.583-0.07-0.853c-3.399-7.527-0.933-20.934,8.589-21.215c4.286,0,7.055,3.077,7.055,7.84     c0,3.015-1.218,6.959-2.509,11.14c-1.177,4.432-4.011,9.888-0.664,13.918c1.543,1.95,3.966,3.068,6.648,3.068     C67.673,60.744,72.008,45.284,72.019,33.9c-0.167-28.902-46.62-25.136-46.633,4.933c0,4.132,1.072,7.325,3.376,10.053     c1.075,1.16,1.099,1.898,0.659,3.354c-0.272,1.088-0.735,2.94-0.95,3.745c-0.434,1.761,2.168,2.465,2.674,0.712     c0.254-0.94,0.747-2.941,1.05-4.139c0.669-2.476,0.023-3.878-1.321-5.461c-1.856-2.197-2.721-4.823-2.721-8.264     c0-10.577,7.89-21.818,22.514-21.818c11.636,0,18.584,6.312,18.584,16.885c0.055,9.138-3.339,24.029-13.481,24.544     c-3.533,0.06-6.241-2.904-5.336-6.4c1.346-5.915,4.615-13.511,4.629-18.959c0-6.246-4.039-10.608-9.823-10.608     C33.949,22.67,29.928,37.52,33.927,47.104c-1.708,7.213-5.463,23.171-6.421,27.193c-0.05,0.21-4.609,21.081,2.54,23.002     c6.617,2.207,12.297-14.392,13.407-18.568c0.376-1.367,1.571-6.059,2.361-9.165c3.094,2.208,7.159,3.526,11.094,3.526     C85.194,73.461,97.992,31.023,77.781,12.304z"/></g></g></g></svg>