<?xml version="1.0" ?><svg style="enable-background:new 0 0 100 100;" version="1.1" viewBox="0 0 100 100" xml:space="preserve" xmlns="http://www.w3.org/2000/svg" xmlns:xlink="http://www.w3.org/1999/xlink"><style type="text/css">
	.st0{fill:#FFFFFF;}
	.st1{fill:#D43C89;}
	.st2{fill:#B2005F;}
	.st3{fill:none;stroke:#000000;stroke-width:3;stroke-linecap:round;stroke-linejoin:round;stroke-miterlimit:10;}
	
		.st4{fill-rule:evenodd;clip-rule:evenodd;fill:none;stroke:#000000;stroke-width:3;stroke-linecap:round;stroke-linejoin:round;stroke-miterlimit:10;}
	
		.st5{fill-rule:evenodd;clip-rule:evenodd;fill:none;stroke:#040404;stroke-width:3;stroke-linecap:round;stroke-linejoin:round;stroke-miterlimit:10;}
	.st6{fill-rule:evenodd;clip-rule:evenodd;}
	.st7{fill-rule:evenodd;clip-rule:evenodd;fill:#040404;}
	.st8{fill:url(#SVGID_1_);}
	.st9{fill:url(#SVGID_2_);}
	.st10{fill:url(#SVGID_3_);}
	.st11{fill:url(#SVGID_4_);}
	.st12{fill:url(#SVGID_5_);}
	.st13{fill:url(#SVGID_6_);}
	.st14{fill:url(#SVGID_7_);}
	.st15{fill:url(#SVGID_8_);}
	.st16{fill:url(#SVGID_9_);}
	.st17{fill:url(#SVGID_10_);}
	.st18{fill:url(#SVGID_11_);}
	.st19{fill:url(#SVGID_12_);}
	.st20{fill:url(#SVGID_13_);}
	.st21{fill:url(#SVGID_14_);}
	.st22{fill:url(#SVGID_15_);}
	.st23{fill:url(#SVGID_16_);}
	.st24{fill:url(#SVGID_17_);}
	.st25{fill:url(#SVGID_18_);}
	.st26{fill:url(#SVGID_19_);}
	.st27{fill:url(#SVGID_20_);}
	.st28{fill:url(#SVGID_21_);}
	.st29{fill:url(#SVGID_22_);}
	.st30{fill:url(#SVGID_23_);}
	.st31{fill:url(#SVGID_24_);}
	.st32{fill:url(#SVGID_25_);}
	.st33{fill:url(#SVGID_26_);}
	.st34{fill:url(#SVGID_27_);}
	.st35{fill:url(#SVGID_28_);}
	.st36{fill:url(#SVGID_29_);}
	.st37{fill:url(#SVGID_30_);}
	.st38{fill:url(#SVGID_31_);}
	.st39{fill:url(#SVGID_32_);}
	.st40{fill:url(#SVGID_33_);}
	.st41{fill:url(#SVGID_34_);}
	.st42{fill:url(#SVGID_35_);}
	.st43{fill:url(#SVGID_36_);}
	.st44{fill:url(#SVGID_37_);}
	.st45{fill:url(#SVGID_38_);}
	.st46{fill:url(#SVGID_39_);}
	.st47{fill:url(#SVGID_40_);}
	.st48{fill:url(#SVGID_41_);}
	.st49{fill:url(#SVGID_42_);}
	.st50{fill:url(#SVGID_43_);}
	.st51{fill:url(#SVGID_44_);}
	.st52{fill:url(#SVGID_45_);}
	.st53{fill:#040404;}
	.st54{fill:url(#SVGID_46_);}
	.st55{fill:url(#SVGID_47_);}
	.st56{fill:url(#SVGID_48_);}
	.st57{fill:url(#SVGID_49_);}
	.st58{fill:url(#SVGID_50_);}
	.st59{fill:url(#SVGID_51_);}
	.st60{fill:url(#SVGID_52_);}
	.st61{fill:url(#SVGID_53_);}
	.st62{fill:url(#SVGID_54_);}
	.st63{fill:url(#SVGID_55_);}
	.st64{fill:url(#SVGID_56_);}
	.st65{fill:url(#SVGID_57_);}
	.st66{fill:url(#SVGID_58_);}
	.st67{fill:url(#SVGID_59_);}
	.st68{fill:url(#SVGID_60_);}
	.st69{fill:url(#SVGID_61_);}
	.st70{fill:url(#SVGID_62_);}
	.st71{fill:none;stroke:#000000;stroke-width:3;stroke-miterlimit:10;}
	.st72{fill:none;stroke:#FFFFFF;stroke-miterlimit:10;}
	.st73{fill:#4BC9FF;}
	.st74{fill:#5500DD;}
	.st75{fill:#FF3A00;}
	.st76{fill:#FFC794;}
	.st77{fill:#F1F1F1;}
	.st78{fill:#EB4E00;}
	.st79{fill:#E6162D;}
	.st80{fill:#FF9933;}
	.st81{fill:#B92B27;}
	.st82{fill:#00ACED;}
	.st83{fill:#BD2125;}
	.st84{fill:#1877F2;}
	.st85{fill:#6665D2;}
	.st86{fill:#CE3056;}
	.st87{fill:#5BB381;}
	.st88{fill:#61C3EC;}
	.st89{fill:#E4B34B;}
	.st90{fill:#181EF2;}
	.st91{fill:#FF0000;}
	.st92{fill:#FE466C;}
	.st93{fill:#FA4778;}
	.st94{fill:#FF7700;}
	.st95{fill:#D95040;}
	.st96{fill:#58A55C;}
	.st97{fill:#4E86EC;}
	.st98{fill:#B6332A;}
	.st99{fill:#F3BD42;}
	.st100{fill-rule:evenodd;clip-rule:evenodd;fill:#1F6BF6;}
	.st101{fill:#520094;}
	.st102{fill:#4477E8;}
	.st103{fill:#3D1D1C;}
	.st104{fill:#FFE812;}
	.st105{fill:#344356;}
	.st106{fill:#00CC76;}
	.st107{fill-rule:evenodd;clip-rule:evenodd;fill:#345E90;}
	.st108{fill:#1F65D8;}
	.st109{fill:#EB3587;}
	.st110{fill-rule:evenodd;clip-rule:evenodd;fill:#603A88;}
	.st111{fill:#E3CE99;}
	.st112{fill:#783AF9;}
	.st113{fill:#FF515E;}
	.st114{fill:#FF4906;}
	.st115{fill:#503227;}
	.st116{fill:#4C7BD9;}
	.st117{fill:#69C9D0;}
	.st118{fill:#1B92D1;}
	.st119{fill:#EB4F4A;}
	.st120{fill:#513728;}
	.st121{fill:#FF6600;}
	.st122{fill-rule:evenodd;clip-rule:evenodd;fill:#B61438;}
	.st123{fill:#FFFC00;}
	.st124{fill:#141414;}
	.st125{fill:#94D137;}
	.st126{fill-rule:evenodd;clip-rule:evenodd;fill:#F1F1F1;}
	.st127{fill-rule:evenodd;clip-rule:evenodd;fill:#66E066;}
	.st128{fill:#464EB8;}
	.st129{fill:#7B83EB;}
	.st130{fill:#2D8CFF;}
	.st131{fill:#F1A300;}
	.st132{fill:#4BA2F2;}
	.st133{fill:#1A5099;}
	.st134{fill:#EE6060;}
	.st135{fill-rule:evenodd;clip-rule:evenodd;fill:#F48120;}
	.st136{fill:#222222;}
	.st137{fill:url(#SVGID_63_);}
	.st138{fill:#0077B5;}
	.st139{fill:#FFCC00;}
	.st140{fill:#EB3352;}
	.st141{fill:#F9D265;}
	.st142{fill:#F5B955;}
	.st143{fill:#DC322F;}
	.st144{fill:#4DA94C;}
	.st145{fill:#39802F;}
	.st146{fill:#F6BD41;}
	.st147{fill:#EB5141;}
	.st148{fill:#2165D6;}
	.st149{fill:#2F83F7;}
	.st150{fill:#DD2A7B;}
</style><g id="Layer_1"/><g id="Layer_2"><g><path class="st139" d="M57.347,52.459c-4.433,3.257-8.564,6.031-8.564,6.514c0,1.326,13.648,4.794,25.831,3.906    c0.054-0.326,0.508-0.768,0.466-0.753c0,0,20.704-21.187,20.704-21.187c0.452-0.452,0.634-1.115,0.483-1.734    c-0.109-0.391-0.483-0.863-1.28-0.999c-0.799-0.151-28.379-5.429-28.379-5.429s-0.408-0.09-0.77-0.272    c-0.347-0.182-0.484-0.648-0.484-0.648S51.724,7.368,51.345,6.645c-0.715-1.278-1.984-1.224-2.687,0    c-0.376,0.724-14.01,25.212-14.01,25.212s-0.136,0.466-0.483,0.648c-0.362,0.182-0.77,0.272-0.77,0.272s-27.58,5.278-28.379,5.414    c-0.799,0.151-1.161,0.62-1.283,0.996c-0.151,0.634,0.029,1.283,0.484,1.734L24.92,62.123c0,0,0.272,0.301,0.452,0.663    c0.061,0.391,0.014,0.814,0.014,0.814s-4.583,27.956-4.705,28.755c-0.122,0.799,0.287,1.419,0.62,1.659    c0.316,0.24,0.889,0.408,1.613,0.046c0.738-0.362,26.297-12.591,26.297-12.591s0.376-0.165,0.785-0.226    c0.391-0.075,0.77,0.226,0.77,0.226S76.34,93.698,77.063,94.06c1.45,0.713,2.388-0.474,2.25-1.705    c-0.09-0.544-3.605-21.911-3.605-21.911c3.393-2.096,5.504-4.01,7.148-6.755c-13.729,5.188-33.156,8.361-49.76,7.148    c-4.605-0.308-6.842-1.652-2.684-4.899c3.68-2.773,7.36-5.55,11.04-8.309c4.962-3.741,13.738-9.546,13.738-10.556    c0-1.086-8.277-3-15.576-3c-7.51,0-8.79,0.498-10.857,0.649c-1.885,0.122-2.97,0.014-3.107-0.544    c-0.226-0.95,0.709-1.494,2.276-2.186c2.73-1.222,7.177-2.293,7.661-2.412c0.753-0.211,11.897-3.121,21.685-2.067    c5.081,0.527,12.531,2.58,12.531,4.916C69.802,43.756,63.152,48.206,57.347,52.459z"/><path d="M59.942,48.738c-2.426,1.666-9.57,7.151-12.029,9.018c-3.844,4.923,16.837,7.112,26.671,6.493    c0.706-0.017,1.115-0.703,1.441-1.228c0,0,20.532-21.011,20.532-21.011c1.726-1.653,1.013-4.852-1.552-5.175    c-0.793-0.15-28.16-5.387-28.167-5.387C61.897,23.522,53.03,6.638,52.631,6.213c-1.082-2.232-4.163-2.247-5.252,0    c-0.328,0.667-10.296,18.485-14.011,25.234c-1.375,1.063,0.015,3.252,1.568,2.438c0.674-0.355,0.998-0.979,1.135-1.333    C37.265,30.581,49.588,7.935,50.053,7.56c0.373,0.71,12.788,23.016,13.888,24.993c0.137,0.354,0.465,0.98,1.157,1.343    c0.497,0.251,1.009,0.371,1.147,0.401c0.064,0.074,27.473,5.212,28.359,5.425c0.194,0.364-20.695,21.036-20.702,21.311    c-0.081,0.119-0.152,0.147-0.296,0.365c-9.009,0.51-18.554-1.358-22.227-2.623c2.363-1.824,7.886-6.016,10.261-7.674    c7.584-5.45,9.508-7.01,9.508-8.635c0-4.852-13.625-6.32-13.758-6.334c-10.281-1.108-21.995,2.068-22.111,2.1    c-1.521,0.372-5.326,1.356-7.811,2.468c-1.355,0.599-3.624,1.6-3.088,3.847c0.465,1.916,3.05,1.749,4.607,1.649    c3.469-0.345,3.85-0.618,10.69-0.641c5.518,0,10.92,1.079,13.25,1.849c-6.512,4.975-14.61,10.572-21.219,15.726    c-1.921,1.586-5.332,3.26-4.689,6.261c0.558,2.197,3.338,2.486,6.023,2.767c15.653,0.972,30.56-1.029,45.128-5.472    c-0.933,0.794-2.033,1.572-3.369,2.396c-0.502,0.31-0.767,0.892-0.671,1.473c0,0,3.496,21.248,3.581,21.759    c0.002,0.105,0.008,0.307-0.148,0.187c-0.706-0.353-24.047-11.516-26.065-12.481c-0.314-0.206-0.97-0.545-1.713-0.401    c-0.958-0.101-26.323,12.539-27.364,12.882c-0.136,0.093-0.144-0.028-0.131-0.175c0.118-0.777,4.63-28.298,4.686-28.652    c0.02-0.113,0.088-1.207-0.157-1.615c-0.255-0.514-0.606-0.914-0.712-1.028L5.505,39.933c-0.069-0.08-0.178-0.249,0.013-0.249    c0.801-0.136,21.133-4.028,21.998-4.193c1.874-0.383,1.332-3.196-0.547-2.857c-7.318,1.4-21.321,4.077-21.964,4.187    c-2.544,0.362-3.303,3.52-1.565,5.16c0,0,20.542,21.035,20.542,21.035c0.075,0.063,0.132,0.183,0.112,0.264    c-0.186,1.135-4.559,27.814-4.68,28.608c-0.352,2.684,2.114,4.35,4.297,3.22c0.72-0.352,25.881-12.393,26.09-12.494    c8.719,3.645,25.886,12.381,26.46,12.489c2.533,1.221,4.654-0.85,4.322-3.235c-0.079-0.473-2.748-16.702-3.428-20.834    c3.199-2.082,5.194-4.062,6.764-6.682c0.712-1.127-0.511-2.614-1.757-2.11c-15.003,5.474-32.129,8.059-48.817,7.024    c-0.82-0.085-2.926-0.305-3.494-0.66c0.062-0.217,0.402-0.74,1.55-1.603c5.508-4.122,10.534-8.037,16.236-12.074    c7.889-5.624,8.98-6.578,8.98-7.846c0-3.966-16.773-4.437-16.942-4.437c-6.909,0.024-7.509,0.303-10.88,0.647    c2.351-1.016,5.775-1.894,7.27-2.26c0.11-0.031,11.266-3.061,21.019-2.009c5.416,0.561,10.145,2.325,11.044,3.349    C67.133,43.57,63.012,46.532,59.942,48.738z"/></g></g></svg>