<?xml version="1.0" ?><svg style="enable-background:new 0 0 100 100;" version="1.1" viewBox="0 0 100 100" xml:space="preserve" xmlns="http://www.w3.org/2000/svg" xmlns:xlink="http://www.w3.org/1999/xlink"><style type="text/css">
	.st0{fill:#FFFFFF;}
	.st1{fill:#D43C89;}
	.st2{fill:#B2005F;}
	.st3{fill:none;stroke:#000000;stroke-width:3;stroke-linecap:round;stroke-linejoin:round;stroke-miterlimit:10;}
	
		.st4{fill-rule:evenodd;clip-rule:evenodd;fill:none;stroke:#000000;stroke-width:3;stroke-linecap:round;stroke-linejoin:round;stroke-miterlimit:10;}
	
		.st5{fill-rule:evenodd;clip-rule:evenodd;fill:none;stroke:#040404;stroke-width:3;stroke-linecap:round;stroke-linejoin:round;stroke-miterlimit:10;}
	.st6{fill-rule:evenodd;clip-rule:evenodd;}
	.st7{fill-rule:evenodd;clip-rule:evenodd;fill:#040404;}
	.st8{fill:url(#SVGID_1_);}
	.st9{fill:url(#SVGID_2_);}
	.st10{fill:url(#SVGID_3_);}
	.st11{fill:url(#SVGID_4_);}
	.st12{fill:url(#SVGID_5_);}
	.st13{fill:url(#SVGID_6_);}
	.st14{fill:url(#SVGID_7_);}
	.st15{fill:url(#SVGID_8_);}
	.st16{fill:url(#SVGID_9_);}
	.st17{fill:url(#SVGID_10_);}
	.st18{fill:url(#SVGID_11_);}
	.st19{fill:url(#SVGID_12_);}
	.st20{fill:url(#SVGID_13_);}
	.st21{fill:url(#SVGID_14_);}
	.st22{fill:url(#SVGID_15_);}
	.st23{fill:url(#SVGID_16_);}
	.st24{fill:url(#SVGID_17_);}
	.st25{fill:url(#SVGID_18_);}
	.st26{fill:url(#SVGID_19_);}
	.st27{fill:url(#SVGID_20_);}
	.st28{fill:url(#SVGID_21_);}
	.st29{fill:url(#SVGID_22_);}
	.st30{fill:url(#SVGID_23_);}
	.st31{fill:url(#SVGID_24_);}
	.st32{fill:url(#SVGID_25_);}
	.st33{fill:url(#SVGID_26_);}
	.st34{fill:url(#SVGID_27_);}
	.st35{fill:url(#SVGID_28_);}
	.st36{fill:url(#SVGID_29_);}
	.st37{fill:url(#SVGID_30_);}
	.st38{fill:url(#SVGID_31_);}
	.st39{fill:url(#SVGID_32_);}
	.st40{fill:url(#SVGID_33_);}
	.st41{fill:url(#SVGID_34_);}
	.st42{fill:url(#SVGID_35_);}
	.st43{fill:url(#SVGID_36_);}
	.st44{fill:url(#SVGID_37_);}
	.st45{fill:url(#SVGID_38_);}
	.st46{fill:url(#SVGID_39_);}
	.st47{fill:url(#SVGID_40_);}
	.st48{fill:url(#SVGID_41_);}
	.st49{fill:url(#SVGID_42_);}
	.st50{fill:url(#SVGID_43_);}
	.st51{fill:url(#SVGID_44_);}
	.st52{fill:url(#SVGID_45_);}
	.st53{fill:#040404;}
	.st54{fill:url(#SVGID_46_);}
	.st55{fill:url(#SVGID_47_);}
	.st56{fill:url(#SVGID_48_);}
	.st57{fill:url(#SVGID_49_);}
	.st58{fill:url(#SVGID_50_);}
	.st59{fill:url(#SVGID_51_);}
	.st60{fill:url(#SVGID_52_);}
	.st61{fill:url(#SVGID_53_);}
	.st62{fill:url(#SVGID_54_);}
	.st63{fill:url(#SVGID_55_);}
	.st64{fill:url(#SVGID_56_);}
	.st65{fill:url(#SVGID_57_);}
	.st66{fill:url(#SVGID_58_);}
	.st67{fill:url(#SVGID_59_);}
	.st68{fill:url(#SVGID_60_);}
	.st69{fill:url(#SVGID_61_);}
	.st70{fill:url(#SVGID_62_);}
	.st71{fill:none;stroke:#000000;stroke-width:3;stroke-miterlimit:10;}
	.st72{fill:none;stroke:#FFFFFF;stroke-miterlimit:10;}
	.st73{fill:#4BC9FF;}
	.st74{fill:#5500DD;}
	.st75{fill:#FF3A00;}
	.st76{fill:#FFC794;}
	.st77{fill:#F1F1F1;}
	.st78{fill:#EB4E00;}
	.st79{fill:#E6162D;}
	.st80{fill:#FF9933;}
	.st81{fill:#B92B27;}
	.st82{fill:#00ACED;}
	.st83{fill:#BD2125;}
	.st84{fill:#1877F2;}
	.st85{fill:#6665D2;}
	.st86{fill:#CE3056;}
	.st87{fill:#5BB381;}
	.st88{fill:#61C3EC;}
	.st89{fill:#E4B34B;}
	.st90{fill:#181EF2;}
	.st91{fill:#FF0000;}
	.st92{fill:#FE466C;}
	.st93{fill:#FA4778;}
	.st94{fill:#FF7700;}
	.st95{fill:#D95040;}
	.st96{fill:#58A55C;}
	.st97{fill:#4E86EC;}
	.st98{fill:#B6332A;}
	.st99{fill:#F3BD42;}
	.st100{fill-rule:evenodd;clip-rule:evenodd;fill:#1F6BF6;}
	.st101{fill:#520094;}
	.st102{fill:#4477E8;}
	.st103{fill:#3D1D1C;}
	.st104{fill:#FFE812;}
	.st105{fill:#344356;}
	.st106{fill:#00CC76;}
	.st107{fill-rule:evenodd;clip-rule:evenodd;fill:#345E90;}
	.st108{fill:#1F65D8;}
	.st109{fill:#EB3587;}
	.st110{fill-rule:evenodd;clip-rule:evenodd;fill:#603A88;}
	.st111{fill:#E3CE99;}
	.st112{fill:#783AF9;}
	.st113{fill:#FF515E;}
	.st114{fill:#FF4906;}
	.st115{fill:#503227;}
	.st116{fill:#4C7BD9;}
	.st117{fill:#69C9D0;}
	.st118{fill:#1B92D1;}
	.st119{fill:#EB4F4A;}
	.st120{fill:#513728;}
	.st121{fill:#FF6600;}
	.st122{fill-rule:evenodd;clip-rule:evenodd;fill:#B61438;}
	.st123{fill:#FFFC00;}
	.st124{fill:#141414;}
	.st125{fill:#94D137;}
	.st126{fill-rule:evenodd;clip-rule:evenodd;fill:#F1F1F1;}
	.st127{fill-rule:evenodd;clip-rule:evenodd;fill:#66E066;}
	.st128{fill:#464EB8;}
	.st129{fill:#7B83EB;}
	.st130{fill:#2D8CFF;}
	.st131{fill:#F1A300;}
	.st132{fill:#4BA2F2;}
	.st133{fill:#1A5099;}
	.st134{fill:#EE6060;}
	.st135{fill-rule:evenodd;clip-rule:evenodd;fill:#F48120;}
	.st136{fill:#222222;}
	.st137{fill:url(#SVGID_63_);}
	.st138{fill:#0077B5;}
	.st139{fill:#FFCC00;}
	.st140{fill:#EB3352;}
	.st141{fill:#F9D265;}
	.st142{fill:#F5B955;}
	.st143{fill:#DC322F;}
	.st144{fill:#4DA94C;}
	.st145{fill:#39802F;}
	.st146{fill:#F6BD41;}
	.st147{fill:#EB5141;}
	.st148{fill:#2165D6;}
	.st149{fill:#2F83F7;}
	.st150{fill:#DD2A7B;}
</style><g id="Layer_1"/><g id="Layer_2"><g><path class="st102" d="M18.958,85.616l10.998-2.571c17.717,10.752,41.393,5.459,52.673-12.444    C106.114,31.09,55.856-8.752,22.596,22.834C10.127,34.912,7.702,55.261,16.848,69.97c0,0-2.578,10.972-2.578,10.972    C13.546,83.64,16.244,86.351,18.958,85.616z"/><g><path d="M30.231,81.442c-0.323-0.203-0.714-0.271-1.086-0.181l-13.591,3.185l3.185-13.591     C3.407,46.183,20.155,12.668,50.006,12.833c1.866-0.016,1.875-2.833-0.002-2.854C19.257,9.617-0.503,44.658,15.827,70.778     c-0.001,0-3.577,15.257-3.577,15.257c-0.262,0.987,0.72,1.986,1.715,1.715c0,0,15.257-3.575,15.257-3.575     c18.099,11.443,43.604,5.412,54.673-12.855c11.835-17.965,5.903-44.1-12.539-55.184c-1.619-0.961-3.084,1.382-1.519,2.416     c27.895,17.601,20.586,60.348-11.57,67.684C48.59,88.434,38.633,86.732,30.231,81.442z"/><path class="st102" d="M37.641,91.259c-2.192-0.661-4.327-1.496-6.385-2.498c-2.254-1.234-9.826-2.314-9.162,1.924     c0.279,1.194,1.473,1.937,2.667,1.659c0.93-0.176,2.367-0.771,3.256-0.2c2.653,1.387,5.433,2.516,8.299,3.372     C39.107,96.315,40.407,92.163,37.641,91.259z"/><path class="st102" d="M12.025,76.22c0,0,0.784-3.37,0.784-3.37c0.127-0.544,0.036-1.111-0.24-1.596     c-1.602-2.819-2.879-5.813-3.803-8.917c-0.893-2.768-5.051-1.484-4.251,1.316c0.859,2.867,1.99,5.647,3.373,8.3     c0.569,0.881-0.026,2.333-0.2,3.251C7.095,78.073,11.284,79.067,12.025,76.22z"/><path class="st102" d="M15.429,89.922c0,0-3.502,0.819-3.502,0.819c-1.604,0.375-3.044-1.064-2.67-2.668l0.826-3.546     c0.595-2.869-3.601-3.852-4.337-1.01c0,0-1.637,7.026-1.637,7.026c-0.564,2.396,0.928,4.793,3.316,5.349     c0.665,0.155,1.361,0.155,2.033,0l7.018-1.613C19.35,93.531,18.318,89.316,15.429,89.922z"/><path class="st102" d="M45.619,7.173c2.916-0.296,5.853-0.296,8.769,0c2.911,0.201,3.296-4.081,0.397-4.432     c-3.18-0.32-6.386-0.321-9.566,0c-1.272,0.128-2.182,1.292-1.989,2.556C43.407,6.454,44.453,7.291,45.619,7.173z"/><path class="st102" d="M91.243,37.628c0.338,1.131,1.51,1.791,2.656,1.505c1.24-0.306,1.965-1.591,1.598-2.814     c-0.919-3.063-2.145-6.024-3.66-8.839c-1.417-2.549-5.266-0.528-3.932,2.078C89.288,32.128,90.406,34.833,91.243,37.628z"/><path class="st102" d="M13.59,23.153c0.99,0.738,2.379,0.589,3.194-0.339c1.599-1.821,4.206-4.686,6.028-6.173     c2.223-1.918-0.541-5.256-2.854-3.448c-2.473,2.019-4.737,4.283-6.756,6.756C12.397,20.935,12.57,22.393,13.59,23.153z"/><path class="st102" d="M83.358,22.803c0.754,0.926,2.112,1.076,3.059,0.35c1.02-0.76,1.193-2.219,0.389-3.204     c-2.019-2.473-4.283-4.737-6.756-6.756c-2.312-1.825-5.072,1.568-2.83,3.467C79.467,18.497,81.524,20.555,83.358,22.803z"/><path class="st102" d="M86.409,76.836c-0.958-0.712-2.306-0.551-3.061,0.373c-1.841,2.252-3.905,4.311-6.159,6.149     c-0.917,0.747-1.076,2.088-0.368,3.036c0.757,1.027,2.22,1.206,3.209,0.4c2.475-2.017,4.743-4.279,6.768-6.748     C87.605,79.06,87.432,77.597,86.409,76.836z"/><path class="st102" d="M54.38,92.82c-2.913,0.295-5.847,0.295-8.76-0.001c-2.912-0.202-3.299,4.089-0.398,4.44     c3.18,0.32,6.387,0.321,9.567,0c1.272-0.128,2.182-1.292,1.989-2.555C56.601,93.542,55.551,92.702,54.38,92.82z"/><path class="st102" d="M93.887,60.85c-1.145-0.283-2.314,0.377-2.651,1.507c-0.837,2.803-1.957,5.511-3.342,8.087     c-0.56,1.04-0.195,2.336,0.819,2.942c1.093,0.658,2.513,0.262,3.118-0.861c1.519-2.821,2.745-5.791,3.661-8.856     C95.857,62.444,95.129,61.157,93.887,60.85z"/><path class="st102" d="M97.252,45.215c-0.128-1.27-1.29-2.18-2.552-1.989c-1.166,0.176-1.995,1.233-1.875,2.406     c0.297,2.901,0.296,5.831,0,8.733c-0.215,2.925,4.07,3.327,4.428,0.417C97.572,51.601,97.572,48.395,97.252,45.215z"/><path class="st102" d="M70.441,87.897c-2.57,1.384-5.274,2.502-8.07,3.338c-2.785,0.92-1.518,5.035,1.308,4.254     c3.063-0.919,6.024-2.145,8.839-3.66c1.123-0.604,1.52-2.023,0.863-3.117C72.775,87.7,71.481,87.337,70.441,87.897z"/><path class="st102" d="M7.181,54.367c-0.294-2.903-0.294-5.834,0-8.737c0.211-2.925-4.075-3.323-4.433-0.414     c-0.32,3.18-0.32,6.386,0,9.566C3.104,57.687,7.391,57.295,7.181,54.367z"/><path class="st102" d="M8.764,37.635c0.836-2.801,1.955-5.507,3.339-8.082c0.559-1.04,0.195-2.335-0.819-2.942     c-1.059-0.634-2.433-0.235-2.979,0.872c-1.177,2.385-3.039,6.326-3.794,8.844C3.731,39.151,7.843,40.424,8.764,37.635z"/><path class="st102" d="M62.357,8.757c2.803,0.837,5.511,1.957,8.087,3.342c1.04,0.559,2.335,0.195,2.941-0.818     c0.659-1.093,0.262-2.514-0.862-3.118c-2.818-1.515-5.787-2.74-8.856-3.659C60.846,3.723,59.565,7.832,62.357,8.757z"/><path class="st102" d="M29.558,12.097c2.575-1.385,5.283-2.504,8.084-3.341c2.788-0.921,1.516-5.034-1.311-4.252     c-3.063,0.92-6.026,2.146-8.849,3.661c-1.124,0.603-1.521,2.022-0.865,3.116C27.226,12.293,28.519,12.656,29.558,12.097z"/></g></g></g></svg>