<?xml version="1.0" ?><svg style="enable-background:new 0 0 100 100;" version="1.1" viewBox="0 0 100 100" xml:space="preserve" xmlns="http://www.w3.org/2000/svg" xmlns:xlink="http://www.w3.org/1999/xlink"><style type="text/css">
	.st0{fill:#FFFFFF;}
	.st1{fill:#D43C89;}
	.st2{fill:#B2005F;}
	.st3{fill:none;stroke:#000000;stroke-width:3;stroke-linecap:round;stroke-linejoin:round;stroke-miterlimit:10;}
	
		.st4{fill-rule:evenodd;clip-rule:evenodd;fill:none;stroke:#000000;stroke-width:3;stroke-linecap:round;stroke-linejoin:round;stroke-miterlimit:10;}
	
		.st5{fill-rule:evenodd;clip-rule:evenodd;fill:none;stroke:#040404;stroke-width:3;stroke-linecap:round;stroke-linejoin:round;stroke-miterlimit:10;}
	.st6{fill-rule:evenodd;clip-rule:evenodd;}
	.st7{fill-rule:evenodd;clip-rule:evenodd;fill:#040404;}
	.st8{fill:url(#SVGID_1_);}
	.st9{fill:url(#SVGID_2_);}
	.st10{fill:url(#SVGID_3_);}
	.st11{fill:url(#SVGID_4_);}
	.st12{fill:url(#SVGID_5_);}
	.st13{fill:url(#SVGID_6_);}
	.st14{fill:url(#SVGID_7_);}
	.st15{fill:url(#SVGID_8_);}
	.st16{fill:url(#SVGID_9_);}
	.st17{fill:url(#SVGID_10_);}
	.st18{fill:url(#SVGID_11_);}
	.st19{fill:url(#SVGID_12_);}
	.st20{fill:url(#SVGID_13_);}
	.st21{fill:url(#SVGID_14_);}
	.st22{fill:url(#SVGID_15_);}
	.st23{fill:url(#SVGID_16_);}
	.st24{fill:url(#SVGID_17_);}
	.st25{fill:url(#SVGID_18_);}
	.st26{fill:url(#SVGID_19_);}
	.st27{fill:url(#SVGID_20_);}
	.st28{fill:url(#SVGID_21_);}
	.st29{fill:url(#SVGID_22_);}
	.st30{fill:url(#SVGID_23_);}
	.st31{fill:url(#SVGID_24_);}
	.st32{fill:url(#SVGID_25_);}
	.st33{fill:url(#SVGID_26_);}
	.st34{fill:url(#SVGID_27_);}
	.st35{fill:url(#SVGID_28_);}
	.st36{fill:url(#SVGID_29_);}
	.st37{fill:url(#SVGID_30_);}
	.st38{fill:url(#SVGID_31_);}
	.st39{fill:url(#SVGID_32_);}
	.st40{fill:url(#SVGID_33_);}
	.st41{fill:url(#SVGID_34_);}
	.st42{fill:url(#SVGID_35_);}
	.st43{fill:url(#SVGID_36_);}
	.st44{fill:url(#SVGID_37_);}
	.st45{fill:url(#SVGID_38_);}
	.st46{fill:url(#SVGID_39_);}
	.st47{fill:url(#SVGID_40_);}
	.st48{fill:url(#SVGID_41_);}
	.st49{fill:url(#SVGID_42_);}
	.st50{fill:url(#SVGID_43_);}
	.st51{fill:url(#SVGID_44_);}
	.st52{fill:url(#SVGID_45_);}
	.st53{fill:#040404;}
	.st54{fill:url(#SVGID_46_);}
	.st55{fill:url(#SVGID_47_);}
	.st56{fill:url(#SVGID_48_);}
	.st57{fill:url(#SVGID_49_);}
	.st58{fill:url(#SVGID_50_);}
	.st59{fill:url(#SVGID_51_);}
	.st60{fill:url(#SVGID_52_);}
	.st61{fill:url(#SVGID_53_);}
	.st62{fill:url(#SVGID_54_);}
	.st63{fill:url(#SVGID_55_);}
	.st64{fill:url(#SVGID_56_);}
	.st65{fill:url(#SVGID_57_);}
	.st66{fill:url(#SVGID_58_);}
	.st67{fill:url(#SVGID_59_);}
	.st68{fill:url(#SVGID_60_);}
	.st69{fill:url(#SVGID_61_);}
	.st70{fill:url(#SVGID_62_);}
	.st71{fill:none;stroke:#000000;stroke-width:3;stroke-miterlimit:10;}
	.st72{fill:none;stroke:#FFFFFF;stroke-miterlimit:10;}
	.st73{fill:#4BC9FF;}
	.st74{fill:#5500DD;}
	.st75{fill:#FF3A00;}
	.st76{fill:#FFC794;}
	.st77{fill:#F1F1F1;}
	.st78{fill:#EB4E00;}
	.st79{fill:#E6162D;}
	.st80{fill:#FF9933;}
	.st81{fill:#B92B27;}
	.st82{fill:#00ACED;}
	.st83{fill:#BD2125;}
	.st84{fill:#1877F2;}
	.st85{fill:#6665D2;}
	.st86{fill:#CE3056;}
	.st87{fill:#5BB381;}
	.st88{fill:#61C3EC;}
	.st89{fill:#E4B34B;}
	.st90{fill:#181EF2;}
	.st91{fill:#FF0000;}
	.st92{fill:#FE466C;}
	.st93{fill:#FA4778;}
	.st94{fill:#FF7700;}
	.st95{fill:#D95040;}
	.st96{fill:#58A55C;}
	.st97{fill:#4E86EC;}
	.st98{fill:#B6332A;}
	.st99{fill:#F3BD42;}
	.st100{fill-rule:evenodd;clip-rule:evenodd;fill:#1F6BF6;}
	.st101{fill:#520094;}
	.st102{fill:#4477E8;}
	.st103{fill:#3D1D1C;}
	.st104{fill:#FFE812;}
	.st105{fill:#344356;}
	.st106{fill:#00CC76;}
	.st107{fill-rule:evenodd;clip-rule:evenodd;fill:#345E90;}
	.st108{fill:#1F65D8;}
	.st109{fill:#EB3587;}
	.st110{fill-rule:evenodd;clip-rule:evenodd;fill:#603A88;}
	.st111{fill:#E3CE99;}
	.st112{fill:#783AF9;}
	.st113{fill:#FF515E;}
	.st114{fill:#FF4906;}
	.st115{fill:#503227;}
	.st116{fill:#4C7BD9;}
	.st117{fill:#69C9D0;}
	.st118{fill:#1B92D1;}
	.st119{fill:#EB4F4A;}
	.st120{fill:#513728;}
	.st121{fill:#FF6600;}
	.st122{fill-rule:evenodd;clip-rule:evenodd;fill:#B61438;}
	.st123{fill:#FFFC00;}
	.st124{fill:#141414;}
	.st125{fill:#94D137;}
	.st126{fill-rule:evenodd;clip-rule:evenodd;fill:#F1F1F1;}
	.st127{fill-rule:evenodd;clip-rule:evenodd;fill:#66E066;}
	.st128{fill:#464EB8;}
	.st129{fill:#7B83EB;}
	.st130{fill:#2D8CFF;}
	.st131{fill:#F1A300;}
	.st132{fill:#4BA2F2;}
	.st133{fill:#1A5099;}
	.st134{fill:#EE6060;}
	.st135{fill-rule:evenodd;clip-rule:evenodd;fill:#F48120;}
	.st136{fill:#222222;}
	.st137{fill:url(#SVGID_63_);}
	.st138{fill:#0077B5;}
	.st139{fill:#FFCC00;}
	.st140{fill:#EB3352;}
	.st141{fill:#F9D265;}
	.st142{fill:#F5B955;}
	.st143{fill:#DC322F;}
	.st144{fill:#4DA94C;}
	.st145{fill:#39802F;}
	.st146{fill:#F6BD41;}
	.st147{fill:#EB5141;}
	.st148{fill:#2165D6;}
	.st149{fill:#2F83F7;}
	.st150{fill:#DD2A7B;}
</style><g id="Layer_1"/><g id="Layer_2"><g><g><path class="st86" d="M3.63,62.22c0.563,12.911,18.923,12.908,19.484,0c0,0,0-9.73,0-9.73h-9.742     C8.011,52.489,3.63,56.864,3.63,62.22z"/><path class="st87" d="M62.234,47.511c5.362,0,9.742-4.375,9.742-9.73V13.417c-0.56-12.905-18.92-12.914-19.484,0     c0,0,0,24.364,0,24.364C52.492,43.136,56.872,47.511,62.234,47.511z"/><path class="st86" d="M37.765,52.489c-5.362,0-9.742,4.375-9.742,9.73v24.364c0.56,12.905,18.92,12.914,19.484,0     c0,0,0-24.364,0-24.364C47.508,56.864,43.128,52.489,37.765,52.489z"/><path class="st87" d="M96.37,37.78c-0.563-12.911-18.923-12.908-19.484,0c0,0,0,9.73,0,9.73h9.742     C91.989,47.511,96.37,43.136,96.37,37.78z"/><path class="st88" d="M13.372,47.511h24.393c12.921-0.559,12.93-18.897,0-19.461H13.372C0.45,28.61,0.445,46.948,13.372,47.511z"/><path class="st89" d="M62.234,76.853h-9.742v9.73c0,5.355,4.38,9.73,9.742,9.73C75.161,95.751,75.158,77.414,62.234,76.853z"/><path class="st89" d="M86.628,52.489H62.234c-12.923,0.56-12.928,18.898,0,19.461c0,0,24.393,0,24.393,0     C99.548,71.391,99.557,53.052,86.628,52.489z"/><path class="st88" d="M37.765,3.686c-12.926,0.562-12.924,18.9,0,19.461c0,0,9.742,0,9.742,0v-9.73     C47.508,8.061,43.128,3.686,37.765,3.686z"/></g><g><path d="M62.182,75.355h-9.701c-0.765,0-1.385,0.62-1.385,1.383v9.689c0,6.105,4.973,11.073,11.086,11.073     C76.887,96.891,76.885,75.962,62.182,75.355z M62.182,94.733c-4.585,0-8.316-3.726-8.316-8.305v-8.305h8.316     C73.204,78.558,73.203,94.298,62.182,94.733z"/><path d="M86.472,51.095h-24.29c-14.702,0.607-14.707,21.537,0,22.145c0,0,24.29,0,24.29,0     C101.172,72.635,101.18,51.704,86.472,51.095z M86.472,70.473h-24.29c-4.585,0-8.316-3.726-8.316-8.305s3.731-8.305,8.316-8.305     h24.29C97.489,54.296,97.498,70.036,86.472,70.473z"/><path d="M76.771,48.905h9.701c14.704-0.607,14.705-21.538,0-22.145c-6.112,0-11.086,4.967-11.086,11.073v9.689     C75.386,48.285,76.006,48.905,76.771,48.905z M78.156,37.832c0-4.579,3.731-8.305,8.316-8.305     c11.023,0.436,11.021,16.176,0,16.611h-8.316V37.832z"/><path d="M37.818,2.5c-14.706,0.608-14.704,21.538,0,22.145c0,0,9.701,0,9.701,0c0.765,0,1.385-0.62,1.385-1.383v-9.689     C48.903,7.467,43.93,2.5,37.818,2.5z M46.133,21.878h-8.316c-4.585,0-8.316-3.726-8.316-8.305     c0.437-11.01,16.196-11.008,16.631,0C46.133,13.572,46.133,21.878,46.133,21.878z"/><path d="M23.229,51.095h-9.701c-14.704,0.607-14.705,21.538,0,22.145c6.112,0,11.086-4.967,11.086-11.072v-9.689     C24.614,51.715,23.994,51.095,23.229,51.095z M21.844,62.168c-0.436,11.009-16.196,11.008-16.631,0     c0-4.579,3.731-8.305,8.316-8.305h8.316V62.168z"/><path d="M37.818,51.095c-6.112,0-11.086,4.967-11.086,11.072v24.26c0.606,14.683,21.562,14.691,22.172,0c0,0,0-24.26,0-24.26     C48.903,56.063,43.93,51.095,37.818,51.095z M46.133,86.427c-0.434,11.004-16.193,11.013-16.631,0c0,0,0-24.26,0-24.26     c0-4.579,3.731-8.305,8.316-8.305s8.316,3.726,8.316,8.305V86.427z"/><path d="M13.529,48.905c0,0,24.289,0,24.289,0c14.702-0.607,14.707-21.536,0-22.145c-1.827,0.036-1.816,2.735,0,2.767     c11.017,0.433,11.026,16.174,0,16.611c0,0-24.289,0-24.289,0c-11.017-0.433-11.027-16.174,0-16.611c0,0,18.216,0,18.216,0     c1.817-0.027,1.823-2.738,0-2.767c0,0-18.216,0-18.216,0C-1.171,27.365-1.182,48.295,13.529,48.905z"/><path d="M62.182,48.905c6.112,0,11.086-4.967,11.086-11.072c-0.036-1.824-2.738-1.814-2.77,0     c-0.434,11.004-16.194,11.013-16.631,0c0,0,0-24.26,0-24.26c0.434-11.003,16.193-11.014,16.631,0c0,0,0,18.714,0,18.714     c0.027,1.814,2.741,1.821,2.77,0c0,0,0-18.714,0-18.714c-0.605-14.681-21.562-14.692-22.172,0c0,0,0,24.26,0,24.26     C51.096,43.937,56.069,48.905,62.182,48.905z"/></g></g></g></svg>