<?xml version="1.0" ?><svg style="enable-background:new 0 0 100 100;" version="1.1" viewBox="0 0 100 100" xml:space="preserve" xmlns="http://www.w3.org/2000/svg" xmlns:xlink="http://www.w3.org/1999/xlink"><style type="text/css">
	.st0{fill:#FFFFFF;}
	.st1{fill:#D43C89;}
	.st2{fill:#B2005F;}
	.st3{fill:none;stroke:#000000;stroke-width:3;stroke-linecap:round;stroke-linejoin:round;stroke-miterlimit:10;}
	
		.st4{fill-rule:evenodd;clip-rule:evenodd;fill:none;stroke:#000000;stroke-width:3;stroke-linecap:round;stroke-linejoin:round;stroke-miterlimit:10;}
	
		.st5{fill-rule:evenodd;clip-rule:evenodd;fill:none;stroke:#040404;stroke-width:3;stroke-linecap:round;stroke-linejoin:round;stroke-miterlimit:10;}
	.st6{fill-rule:evenodd;clip-rule:evenodd;}
	.st7{fill-rule:evenodd;clip-rule:evenodd;fill:#040404;}
	.st8{fill:url(#SVGID_1_);}
	.st9{fill:url(#SVGID_2_);}
	.st10{fill:url(#SVGID_3_);}
	.st11{fill:url(#SVGID_4_);}
	.st12{fill:url(#SVGID_5_);}
	.st13{fill:url(#SVGID_6_);}
	.st14{fill:url(#SVGID_7_);}
	.st15{fill:url(#SVGID_8_);}
	.st16{fill:url(#SVGID_9_);}
	.st17{fill:url(#SVGID_10_);}
	.st18{fill:url(#SVGID_11_);}
	.st19{fill:url(#SVGID_12_);}
	.st20{fill:url(#SVGID_13_);}
	.st21{fill:url(#SVGID_14_);}
	.st22{fill:url(#SVGID_15_);}
	.st23{fill:url(#SVGID_16_);}
	.st24{fill:url(#SVGID_17_);}
	.st25{fill:url(#SVGID_18_);}
	.st26{fill:url(#SVGID_19_);}
	.st27{fill:url(#SVGID_20_);}
	.st28{fill:url(#SVGID_21_);}
	.st29{fill:url(#SVGID_22_);}
	.st30{fill:url(#SVGID_23_);}
	.st31{fill:url(#SVGID_24_);}
	.st32{fill:url(#SVGID_25_);}
	.st33{fill:url(#SVGID_26_);}
	.st34{fill:url(#SVGID_27_);}
	.st35{fill:url(#SVGID_28_);}
	.st36{fill:url(#SVGID_29_);}
	.st37{fill:url(#SVGID_30_);}
	.st38{fill:url(#SVGID_31_);}
	.st39{fill:url(#SVGID_32_);}
	.st40{fill:url(#SVGID_33_);}
	.st41{fill:url(#SVGID_34_);}
	.st42{fill:url(#SVGID_35_);}
	.st43{fill:url(#SVGID_36_);}
	.st44{fill:url(#SVGID_37_);}
	.st45{fill:url(#SVGID_38_);}
	.st46{fill:url(#SVGID_39_);}
	.st47{fill:url(#SVGID_40_);}
	.st48{fill:url(#SVGID_41_);}
	.st49{fill:url(#SVGID_42_);}
	.st50{fill:url(#SVGID_43_);}
	.st51{fill:url(#SVGID_44_);}
	.st52{fill:url(#SVGID_45_);}
	.st53{fill:#040404;}
	.st54{fill:url(#SVGID_46_);}
	.st55{fill:url(#SVGID_47_);}
	.st56{fill:url(#SVGID_48_);}
	.st57{fill:url(#SVGID_49_);}
	.st58{fill:url(#SVGID_50_);}
	.st59{fill:url(#SVGID_51_);}
	.st60{fill:url(#SVGID_52_);}
	.st61{fill:url(#SVGID_53_);}
	.st62{fill:url(#SVGID_54_);}
	.st63{fill:url(#SVGID_55_);}
	.st64{fill:url(#SVGID_56_);}
	.st65{fill:url(#SVGID_57_);}
	.st66{fill:url(#SVGID_58_);}
	.st67{fill:url(#SVGID_59_);}
	.st68{fill:url(#SVGID_60_);}
	.st69{fill:url(#SVGID_61_);}
	.st70{fill:url(#SVGID_62_);}
	.st71{fill:none;stroke:#000000;stroke-width:3;stroke-miterlimit:10;}
	.st72{fill:none;stroke:#FFFFFF;stroke-miterlimit:10;}
	.st73{fill:#4BC9FF;}
	.st74{fill:#5500DD;}
	.st75{fill:#FF3A00;}
	.st76{fill:#FFC794;}
	.st77{fill:#F1F1F1;}
	.st78{fill:#EB4E00;}
	.st79{fill:#E6162D;}
	.st80{fill:#FF9933;}
	.st81{fill:#B92B27;}
	.st82{fill:#00ACED;}
	.st83{fill:#BD2125;}
	.st84{fill:#1877F2;}
	.st85{fill:#6665D2;}
	.st86{fill:#CE3056;}
	.st87{fill:#5BB381;}
	.st88{fill:#61C3EC;}
	.st89{fill:#E4B34B;}
	.st90{fill:#181EF2;}
	.st91{fill:#FF0000;}
	.st92{fill:#FE466C;}
	.st93{fill:#FA4778;}
	.st94{fill:#FF7700;}
	.st95{fill:#D95040;}
	.st96{fill:#58A55C;}
	.st97{fill:#4E86EC;}
	.st98{fill:#B6332A;}
	.st99{fill:#F3BD42;}
	.st100{fill-rule:evenodd;clip-rule:evenodd;fill:#1F6BF6;}
	.st101{fill:#520094;}
	.st102{fill:#4477E8;}
	.st103{fill:#3D1D1C;}
	.st104{fill:#FFE812;}
	.st105{fill:#344356;}
	.st106{fill:#00CC76;}
	.st107{fill-rule:evenodd;clip-rule:evenodd;fill:#345E90;}
	.st108{fill:#1F65D8;}
	.st109{fill:#EB3587;}
	.st110{fill-rule:evenodd;clip-rule:evenodd;fill:#603A88;}
	.st111{fill:#E3CE99;}
	.st112{fill:#783AF9;}
	.st113{fill:#FF515E;}
	.st114{fill:#FF4906;}
	.st115{fill:#503227;}
	.st116{fill:#4C7BD9;}
	.st117{fill:#69C9D0;}
	.st118{fill:#1B92D1;}
	.st119{fill:#EB4F4A;}
	.st120{fill:#513728;}
	.st121{fill:#FF6600;}
	.st122{fill-rule:evenodd;clip-rule:evenodd;fill:#B61438;}
	.st123{fill:#FFFC00;}
	.st124{fill:#141414;}
	.st125{fill:#94D137;}
	.st126{fill-rule:evenodd;clip-rule:evenodd;fill:#F1F1F1;}
	.st127{fill-rule:evenodd;clip-rule:evenodd;fill:#66E066;}
	.st128{fill:#464EB8;}
	.st129{fill:#7B83EB;}
	.st130{fill:#2D8CFF;}
	.st131{fill:#F1A300;}
	.st132{fill:#4BA2F2;}
	.st133{fill:#1A5099;}
	.st134{fill:#EE6060;}
	.st135{fill-rule:evenodd;clip-rule:evenodd;fill:#F48120;}
	.st136{fill:#222222;}
	.st137{fill:url(#SVGID_63_);}
	.st138{fill:#0077B5;}
	.st139{fill:#FFCC00;}
	.st140{fill:#EB3352;}
	.st141{fill:#F9D265;}
	.st142{fill:#F5B955;}
	.st143{fill:#DC322F;}
	.st144{fill:#4DA94C;}
	.st145{fill:#39802F;}
	.st146{fill:#F6BD41;}
	.st147{fill:#EB5141;}
	.st148{fill:#2165D6;}
	.st149{fill:#2F83F7;}
	.st150{fill:#DD2A7B;}
</style><g id="Layer_1"/><g id="Layer_2"><g><g><path class="st75" d="M16.886,39.37c-1.705-0.045-3.238,1.488-3.193,3.193c0,0,0,29.566,0,29.566     c-0.015,1.821,1.503,2.531,3.193,2.537c1.725-0.005,3.245-0.694,3.237-2.537V42.563C20.161,40.832,18.628,39.322,16.886,39.37z"/><path class="st75" d="M92.638,50.873c-4.128-4.284-10.743-5.494-16.161-3.193C75.59,34.522,63.749,23.679,50.542,23.931     c-1.924,0-3.863,0.233-5.817,0.7c-0.904,0.292-1.356,1.196-1.356,2.712v47.585c0.017,0.393,0.319,0.981,0.787,1.094l38.051,0.044     C95.184,76.231,102.04,59.947,92.638,50.873z"/><path class="st75" d="M10.063,54.021c-0.084-4.274-6.341-4.292-6.43,0c0,0,0,12.683,0,12.683c-0.13,4.255,6.914,4.617,6.429,0     C10.063,66.705,10.063,54.021,10.063,54.021z"/><path class="st75" d="M37.377,25.768c-2.225-0.505-4.384,1.741-4.242,4.155v43.737c0,1.603,1.079,2.406,3.237,2.406     c2.158,0,3.236-0.802,3.236-2.406V29.923C39.608,27.473,38.864,26.088,37.377,25.768z"/><path class="st75" d="M26.989,43.262c-1.764-0.045-3.325,1.517-3.28,3.28v26.985c0,0.845,0.306,1.48,0.919,1.903     c1.718,1.174,5.653,0.851,5.555-1.903V46.543C30.23,44.808,28.724,43.221,26.989,43.262z"/></g><g><path d="M16.886,38.188c-2.415-0.056-4.572,2.101-4.516,4.516v29.011c0.161,2.946,2.089,3.753,4.516,3.873     c2.462-0.113,4.392-0.912,4.56-3.873c0,0,0-29.011,0-29.011C21.496,40.264,19.339,38.129,16.886,38.188z M18.679,71.716     c0,0.529-0.192,0.665-0.295,0.738c-0.615,0.482-2.32,0.498-2.95,0c-0.104-0.073-0.295-0.209-0.295-0.738V42.704     c-0.066-1.522,2.008-2.353,3.023-1.231c0.358,0.358,0.518,0.738,0.518,1.231V71.716z"/><path d="M39.801,28.918c-0.764,0-1.384,0.619-1.384,1.384v42.916c0,0.412,0,0.977-1.792,0.977c-1.792,0-1.792-0.565-1.792-0.977     V30.301c-0.173-1.494,1.331-3.062,2.452-2.732c1.768,0.405,2.414-2.235,0.652-2.689c-2.657-0.804-6.118,2.063-5.871,5.422     c0,0,0,42.916,0,42.916c0,1.125,0.444,3.744,4.559,3.744s4.559-2.619,4.559-3.744V30.301     C41.185,29.537,40.565,28.918,39.801,28.918z"/><path d="M26.799,42.008c-2.477-0.065-4.655,2.13-4.602,4.602c0,0,0,26.48,0,26.48c0.168,2.976,2.148,3.752,4.602,3.873     c2.427-0.115,4.355-0.932,4.516-3.872c0,0,0-26.48,0-26.48C31.382,44.161,29.243,41.958,26.799,42.008z M28.253,73.827     c-0.746,0.547-3.346,0.653-3.289-0.737c0,0,0-26.48,0-26.48c0.046-2.39,3.549-2.453,3.583,0c0,0,0,26.479,0,26.479     C28.548,73.618,28.356,73.754,28.253,73.827z"/><path d="M81.554,45.226c-1.523,0-3,0.207-4.409,0.616c-0.578-3.833-1.943-7.41-4.067-10.655     c-4.859-7.513-13.535-12.223-22.548-12.149c-1.987,0-4.016,0.244-6.029,0.724c-1.151,0.336-2.368,1.269-2.392,4.007     c0,0,0,37.13,0,37.13c0.038,1.815,2.73,1.825,2.767,0c0,0,0-37.129,0-37.129c0-0.572,0.091-1.211,0.344-1.333     c13.816-3.55,28.506,7.227,29.378,21.409c0.052,0.912,1.092,1.534,1.922,1.153c8.334-3.696,18.437,2.909,18.198,12.074     c0.199,7.057-6.089,13.307-13.117,13.122c0,0-36.725-0.043-36.725-0.043v-3.846c-0.026-1.825-2.742-1.811-2.767,0     c0,0,0,5.229,0,5.229c0,0.764,0.62,1.384,1.384,1.384h19.893l18.212,0.043c4.337,0,8.109-1.565,11.21-4.652     C102.891,62.443,95.609,45.119,81.554,45.226z"/><path d="M11.576,53.948c-0.168-6.03-8.903-6.047-9.075,0c0,0,0,12.446,0,12.446c-0.111,5.99,9.547,6.35,9.075,0     C11.576,66.394,11.576,53.948,11.576,53.948z M8.566,67.817c-0.893,0.843-3.397,0.577-3.298-1.422c0,0,0-12.446,0-12.446     c0.004-2.382,3.538-2.345,3.541,0C8.7,54.746,9.078,67.507,8.566,67.817z"/></g></g></g></svg>