<?xml version="1.0" ?><svg style="enable-background:new 0 0 100 100;" version="1.1" viewBox="0 0 100 100" xml:space="preserve" xmlns="http://www.w3.org/2000/svg" xmlns:xlink="http://www.w3.org/1999/xlink"><style type="text/css">
	.st0{fill:#FFFFFF;}
	.st1{fill:#D43C89;}
	.st2{fill:#B2005F;}
	.st3{fill:none;stroke:#000000;stroke-width:3;stroke-linecap:round;stroke-linejoin:round;stroke-miterlimit:10;}
	
		.st4{fill-rule:evenodd;clip-rule:evenodd;fill:none;stroke:#000000;stroke-width:3;stroke-linecap:round;stroke-linejoin:round;stroke-miterlimit:10;}
	
		.st5{fill-rule:evenodd;clip-rule:evenodd;fill:none;stroke:#040404;stroke-width:3;stroke-linecap:round;stroke-linejoin:round;stroke-miterlimit:10;}
	.st6{fill-rule:evenodd;clip-rule:evenodd;}
	.st7{fill-rule:evenodd;clip-rule:evenodd;fill:#040404;}
	.st8{fill:url(#SVGID_1_);}
	.st9{fill:url(#SVGID_2_);}
	.st10{fill:url(#SVGID_3_);}
	.st11{fill:url(#SVGID_4_);}
	.st12{fill:url(#SVGID_5_);}
	.st13{fill:url(#SVGID_6_);}
	.st14{fill:url(#SVGID_7_);}
	.st15{fill:url(#SVGID_8_);}
	.st16{fill:url(#SVGID_9_);}
	.st17{fill:url(#SVGID_10_);}
	.st18{fill:url(#SVGID_11_);}
	.st19{fill:url(#SVGID_12_);}
	.st20{fill:url(#SVGID_13_);}
	.st21{fill:url(#SVGID_14_);}
	.st22{fill:url(#SVGID_15_);}
	.st23{fill:url(#SVGID_16_);}
	.st24{fill:url(#SVGID_17_);}
	.st25{fill:url(#SVGID_18_);}
	.st26{fill:url(#SVGID_19_);}
	.st27{fill:url(#SVGID_20_);}
	.st28{fill:url(#SVGID_21_);}
	.st29{fill:url(#SVGID_22_);}
	.st30{fill:url(#SVGID_23_);}
	.st31{fill:url(#SVGID_24_);}
	.st32{fill:url(#SVGID_25_);}
	.st33{fill:url(#SVGID_26_);}
	.st34{fill:url(#SVGID_27_);}
	.st35{fill:url(#SVGID_28_);}
	.st36{fill:url(#SVGID_29_);}
	.st37{fill:url(#SVGID_30_);}
	.st38{fill:url(#SVGID_31_);}
	.st39{fill:url(#SVGID_32_);}
	.st40{fill:url(#SVGID_33_);}
	.st41{fill:url(#SVGID_34_);}
	.st42{fill:url(#SVGID_35_);}
	.st43{fill:url(#SVGID_36_);}
	.st44{fill:url(#SVGID_37_);}
	.st45{fill:url(#SVGID_38_);}
	.st46{fill:url(#SVGID_39_);}
	.st47{fill:url(#SVGID_40_);}
	.st48{fill:url(#SVGID_41_);}
	.st49{fill:url(#SVGID_42_);}
	.st50{fill:url(#SVGID_43_);}
	.st51{fill:url(#SVGID_44_);}
	.st52{fill:url(#SVGID_45_);}
	.st53{fill:#040404;}
	.st54{fill:url(#SVGID_46_);}
	.st55{fill:url(#SVGID_47_);}
	.st56{fill:url(#SVGID_48_);}
	.st57{fill:url(#SVGID_49_);}
	.st58{fill:url(#SVGID_50_);}
	.st59{fill:url(#SVGID_51_);}
	.st60{fill:url(#SVGID_52_);}
	.st61{fill:url(#SVGID_53_);}
	.st62{fill:url(#SVGID_54_);}
	.st63{fill:url(#SVGID_55_);}
	.st64{fill:url(#SVGID_56_);}
	.st65{fill:url(#SVGID_57_);}
	.st66{fill:url(#SVGID_58_);}
	.st67{fill:url(#SVGID_59_);}
	.st68{fill:url(#SVGID_60_);}
	.st69{fill:url(#SVGID_61_);}
	.st70{fill:url(#SVGID_62_);}
	.st71{fill:none;stroke:#000000;stroke-width:3;stroke-miterlimit:10;}
	.st72{fill:none;stroke:#FFFFFF;stroke-miterlimit:10;}
	.st73{fill:#4BC9FF;}
	.st74{fill:#5500DD;}
	.st75{fill:#FF3A00;}
	.st76{fill:#FFC794;}
	.st77{fill:#F1F1F1;}
	.st78{fill:#EB4E00;}
	.st79{fill:#E6162D;}
	.st80{fill:#FF9933;}
	.st81{fill:#B92B27;}
	.st82{fill:#00ACED;}
	.st83{fill:#BD2125;}
	.st84{fill:#1877F2;}
	.st85{fill:#6665D2;}
	.st86{fill:#CE3056;}
	.st87{fill:#5BB381;}
	.st88{fill:#61C3EC;}
	.st89{fill:#E4B34B;}
	.st90{fill:#181EF2;}
	.st91{fill:#FF0000;}
	.st92{fill:#FE466C;}
	.st93{fill:#FA4778;}
	.st94{fill:#FF7700;}
	.st95{fill:#D95040;}
	.st96{fill:#58A55C;}
	.st97{fill:#4E86EC;}
	.st98{fill:#B6332A;}
	.st99{fill:#F3BD42;}
	.st100{fill-rule:evenodd;clip-rule:evenodd;fill:#1F6BF6;}
	.st101{fill:#520094;}
	.st102{fill:#4477E8;}
	.st103{fill:#3D1D1C;}
	.st104{fill:#FFE812;}
	.st105{fill:#344356;}
	.st106{fill:#00CC76;}
	.st107{fill-rule:evenodd;clip-rule:evenodd;fill:#345E90;}
	.st108{fill:#1F65D8;}
	.st109{fill:#EB3587;}
	.st110{fill-rule:evenodd;clip-rule:evenodd;fill:#603A88;}
	.st111{fill:#E3CE99;}
	.st112{fill:#783AF9;}
	.st113{fill:#FF515E;}
	.st114{fill:#FF4906;}
	.st115{fill:#503227;}
	.st116{fill:#4C7BD9;}
	.st117{fill:#69C9D0;}
	.st118{fill:#1B92D1;}
	.st119{fill:#EB4F4A;}
	.st120{fill:#513728;}
	.st121{fill:#FF6600;}
	.st122{fill-rule:evenodd;clip-rule:evenodd;fill:#B61438;}
	.st123{fill:#FFFC00;}
	.st124{fill:#141414;}
	.st125{fill:#94D137;}
	.st126{fill-rule:evenodd;clip-rule:evenodd;fill:#F1F1F1;}
	.st127{fill-rule:evenodd;clip-rule:evenodd;fill:#66E066;}
	.st128{fill:#464EB8;}
	.st129{fill:#7B83EB;}
	.st130{fill:#2D8CFF;}
	.st131{fill:#F1A300;}
	.st132{fill:#4BA2F2;}
	.st133{fill:#1A5099;}
	.st134{fill:#EE6060;}
	.st135{fill-rule:evenodd;clip-rule:evenodd;fill:#F48120;}
	.st136{fill:#222222;}
	.st137{fill:url(#SVGID_63_);}
	.st138{fill:#0077B5;}
	.st139{fill:#FFCC00;}
	.st140{fill:#EB3352;}
	.st141{fill:#F9D265;}
	.st142{fill:#F5B955;}
	.st143{fill:#DC322F;}
	.st144{fill:#4DA94C;}
	.st145{fill:#39802F;}
	.st146{fill:#F6BD41;}
	.st147{fill:#EB5141;}
	.st148{fill:#2165D6;}
	.st149{fill:#2F83F7;}
	.st150{fill:#DD2A7B;}
</style><g id="Layer_1"/><g id="Layer_2"><g><g><path class="st132" d="M19.028,31.327c-1.632-3.942-1.923-8.459-1.429-12.714c0.129-1.429,0.517-2.722,0.647-4.152     c0.137-0.769-0.51-1.034-1.415-0.381c-20.135,15.905-6.13,27.923,1.422,46.308c5.636,11.881,4.584,12.738,1.688,24.91     c-0.517,2.334,1.688,0,2.464-0.646c6.544-5.389,14.744-13.623,10.638-22.835C28.959,51.426,23.835,41.453,19.028,31.327z"/><path class="st132" d="M92.458,61.825c-4.082-10.392-9.206-20.365-14.014-30.491c-1.632-3.942-1.923-8.459-1.429-12.714     c0.129-1.429,0.517-2.722,0.647-4.152c0.136-0.776-0.51-1.042-1.422-0.388C56.103,30.004,70.111,42,77.669,60.396     c5.636,11.881,4.584,12.738,1.688,24.91c-0.517,2.334,1.688,0,2.464-0.646C88.364,79.271,96.565,71.037,92.458,61.825z"/><path class="st133" d="M48.097,25.753c-2.665-6.722-1.967-13.947-0.912-20.881c0.388-1.429-0.388-1.559-1.559-0.654     C38.321,10.233,29.12,19.016,32.259,29.38c3.757,13.966,11.725,26.298,17.383,39.563c4.1,8.806,3.531,13.912,0.646,22.964     c-0.258,1.171-1.034,2.722-0.905,3.893c0.129,0.905,0.646,0.517,1.171,0.129c10.968-9.179,22.843-19.489,14.143-34.636     C59.695,49.19,53.647,37.538,48.097,25.753z"/></g><g><path d="M23.447,36.837c-4.539-7.804-5.315-13.393-3.59-22.009c0.219-1.943-1.569-3.165-3.688-1.623     c-3.782,3.167-8.363,7.524-10.239,13.153c-2.72,8.562,2.938,16.927,6.482,24.547c1.886,3.747,3.778,7.646,5.489,11.547     c5.03,10.276,3.168,12.185,0.894,22.352c-0.269,1.213-0.022,2.049,0.732,2.487c1.48,0.822,2.828-0.792,3.989-1.768     c5.084-4.36,9.801-8.777,11.65-14.849c1.696-6.221-1.208-10.379-3.235-15.581C29.26,48.932,26.113,42.462,23.447,36.837z      M32.497,69.862c-1.598,5.245-5.861,9.294-10.494,13.282c0.65-2.738,1.437-5.33,1.86-8.18c0.62-4.737-1.526-9.479-3.42-13.664     c-1.73-3.94-3.642-7.882-5.534-11.641c-7.161-14.246-11.698-21.63,1.895-33.327c-0.976,4.977-0.848,10.791,1.168,15.652     c0.811,1.86,1.796,3.876,2.985,6.108c2.63,5.553,5.769,12.009,8.415,18.111C31.124,60.328,33.961,65.803,32.497,69.862z"/><path d="M93.587,61.265c-3.179-8.138-7.463-16.848-11.045-24.421c-4.539-7.802-5.315-13.395-3.589-22.009     c0.231-1.88-1.479-3.148-3.614-1.695c-18.575,15.13-9.811,25.108-1.264,42.974c0.827,1.635,3.281,0.453,2.512-1.214     c-1.855-3.841-3.79-7.562-5.633-11.435c-2.713-5.546-5.006-10.962-3.287-16.234c1.472-4.412,5.002-8.079,8.234-10.906     c-0.977,4.982-0.852,10.803,1.165,15.667c3.392,7.157,7.139,14.583,10.577,22.316c1.854,4.685,5.556,10.805,3.949,15.561     c-1.598,5.246-5.86,9.293-10.493,13.281c3.102-10.655,2.404-13.447-2.248-23.375c-0.766-1.67-3.266-0.559-2.552,1.126     c1.884,4.274,4.472,9.209,3.896,13.686c-0.498,3.385-1.678,6.809-2.304,10.224c-0.369,1.536,0.234,2.637,1.552,2.713     c1.11,0.014,2.241-1.191,3.168-1.996C90.056,79.414,97.82,70.883,93.587,61.265z"/><path d="M52.503,31.711c-0.846-1.617-3.288-0.416-2.496,1.246c5.415,10.903,9.323,19.318,13.915,30.032     c7.213,12.65-3.296,22.238-12.621,30.359c3.165-9.971,4.171-15.415-0.313-25.04c-5.371-12.588-13.899-26.354-17.23-39.177     c-2.78-9.608,5.42-17.261,12.009-22.902c-1.326,6.704-1.263,14.13,1.096,20.164c0.704,1.702,3.239,0.689,2.598-1.021     c-1.849-4.719-2.062-10.12-1.459-15.627c0.059-1.904,1.674-5.792-0.074-6.942c-0.575-0.384-1.578-0.6-3.114,0.587     c-7.621,6.257-17.058,15.411-13.748,26.473c3.346,12.938,11.914,26.856,17.346,39.512c3.805,8.225,3.443,12.816,0.824,21.106     c-0.389,1.97-2.47,5.629-0.067,6.885c0.804,0.383,1.768-0.152,2.285-0.581c10.758-8.774,23.23-20.385,15.018-34.927     C61.856,51.088,57.946,42.673,52.503,31.711z"/></g></g></g></svg>