<?xml version="1.0" ?><svg style="enable-background:new 0 0 100 100;" version="1.1" viewBox="0 0 100 100" xml:space="preserve" xmlns="http://www.w3.org/2000/svg" xmlns:xlink="http://www.w3.org/1999/xlink"><style type="text/css">
	.st0{fill:#FFFFFF;}
	.st1{fill:#D43C89;}
	.st2{fill:#B2005F;}
	.st3{fill:none;stroke:#000000;stroke-width:3;stroke-linecap:round;stroke-linejoin:round;stroke-miterlimit:10;}
	
		.st4{fill-rule:evenodd;clip-rule:evenodd;fill:none;stroke:#000000;stroke-width:3;stroke-linecap:round;stroke-linejoin:round;stroke-miterlimit:10;}
	
		.st5{fill-rule:evenodd;clip-rule:evenodd;fill:none;stroke:#040404;stroke-width:3;stroke-linecap:round;stroke-linejoin:round;stroke-miterlimit:10;}
	.st6{fill-rule:evenodd;clip-rule:evenodd;}
	.st7{fill-rule:evenodd;clip-rule:evenodd;fill:#040404;}
	.st8{fill:url(#SVGID_1_);}
	.st9{fill:url(#SVGID_2_);}
	.st10{fill:url(#SVGID_3_);}
	.st11{fill:url(#SVGID_4_);}
	.st12{fill:url(#SVGID_5_);}
	.st13{fill:url(#SVGID_6_);}
	.st14{fill:url(#SVGID_7_);}
	.st15{fill:url(#SVGID_8_);}
	.st16{fill:url(#SVGID_9_);}
	.st17{fill:url(#SVGID_10_);}
	.st18{fill:url(#SVGID_11_);}
	.st19{fill:url(#SVGID_12_);}
	.st20{fill:url(#SVGID_13_);}
	.st21{fill:url(#SVGID_14_);}
	.st22{fill:url(#SVGID_15_);}
	.st23{fill:url(#SVGID_16_);}
	.st24{fill:url(#SVGID_17_);}
	.st25{fill:url(#SVGID_18_);}
	.st26{fill:url(#SVGID_19_);}
	.st27{fill:url(#SVGID_20_);}
	.st28{fill:url(#SVGID_21_);}
	.st29{fill:url(#SVGID_22_);}
	.st30{fill:url(#SVGID_23_);}
	.st31{fill:url(#SVGID_24_);}
	.st32{fill:url(#SVGID_25_);}
	.st33{fill:url(#SVGID_26_);}
	.st34{fill:url(#SVGID_27_);}
	.st35{fill:url(#SVGID_28_);}
	.st36{fill:url(#SVGID_29_);}
	.st37{fill:url(#SVGID_30_);}
	.st38{fill:url(#SVGID_31_);}
	.st39{fill:url(#SVGID_32_);}
	.st40{fill:url(#SVGID_33_);}
	.st41{fill:url(#SVGID_34_);}
	.st42{fill:url(#SVGID_35_);}
	.st43{fill:url(#SVGID_36_);}
	.st44{fill:url(#SVGID_37_);}
	.st45{fill:url(#SVGID_38_);}
	.st46{fill:url(#SVGID_39_);}
	.st47{fill:url(#SVGID_40_);}
	.st48{fill:url(#SVGID_41_);}
	.st49{fill:url(#SVGID_42_);}
	.st50{fill:url(#SVGID_43_);}
	.st51{fill:url(#SVGID_44_);}
	.st52{fill:url(#SVGID_45_);}
	.st53{fill:#040404;}
	.st54{fill:url(#SVGID_46_);}
	.st55{fill:url(#SVGID_47_);}
	.st56{fill:url(#SVGID_48_);}
	.st57{fill:url(#SVGID_49_);}
	.st58{fill:url(#SVGID_50_);}
	.st59{fill:url(#SVGID_51_);}
	.st60{fill:url(#SVGID_52_);}
	.st61{fill:url(#SVGID_53_);}
	.st62{fill:url(#SVGID_54_);}
	.st63{fill:url(#SVGID_55_);}
	.st64{fill:url(#SVGID_56_);}
	.st65{fill:url(#SVGID_57_);}
	.st66{fill:url(#SVGID_58_);}
	.st67{fill:url(#SVGID_59_);}
	.st68{fill:url(#SVGID_60_);}
	.st69{fill:url(#SVGID_61_);}
	.st70{fill:url(#SVGID_62_);}
	.st71{fill:none;stroke:#000000;stroke-width:3;stroke-miterlimit:10;}
	.st72{fill:none;stroke:#FFFFFF;stroke-miterlimit:10;}
	.st73{fill:#4BC9FF;}
	.st74{fill:#5500DD;}
	.st75{fill:#FF3A00;}
	.st76{fill:#FFC794;}
	.st77{fill:#F1F1F1;}
	.st78{fill:#EB4E00;}
	.st79{fill:#E6162D;}
	.st80{fill:#FF9933;}
	.st81{fill:#B92B27;}
	.st82{fill:#00ACED;}
	.st83{fill:#BD2125;}
	.st84{fill:#1877F2;}
	.st85{fill:#6665D2;}
	.st86{fill:#CE3056;}
	.st87{fill:#5BB381;}
	.st88{fill:#61C3EC;}
	.st89{fill:#E4B34B;}
	.st90{fill:#181EF2;}
	.st91{fill:#FF0000;}
	.st92{fill:#FE466C;}
	.st93{fill:#FA4778;}
	.st94{fill:#FF7700;}
	.st95{fill:#D95040;}
	.st96{fill:#58A55C;}
	.st97{fill:#4E86EC;}
	.st98{fill:#B6332A;}
	.st99{fill:#F3BD42;}
	.st100{fill-rule:evenodd;clip-rule:evenodd;fill:#1F6BF6;}
	.st101{fill:#520094;}
	.st102{fill:#4477E8;}
	.st103{fill:#3D1D1C;}
	.st104{fill:#FFE812;}
	.st105{fill:#344356;}
	.st106{fill:#00CC76;}
	.st107{fill-rule:evenodd;clip-rule:evenodd;fill:#345E90;}
	.st108{fill:#1F65D8;}
	.st109{fill:#EB3587;}
	.st110{fill-rule:evenodd;clip-rule:evenodd;fill:#603A88;}
	.st111{fill:#E3CE99;}
	.st112{fill:#783AF9;}
	.st113{fill:#FF515E;}
	.st114{fill:#FF4906;}
	.st115{fill:#503227;}
	.st116{fill:#4C7BD9;}
	.st117{fill:#69C9D0;}
	.st118{fill:#1B92D1;}
	.st119{fill:#EB4F4A;}
	.st120{fill:#513728;}
	.st121{fill:#FF6600;}
	.st122{fill-rule:evenodd;clip-rule:evenodd;fill:#B61438;}
	.st123{fill:#FFFC00;}
	.st124{fill:#141414;}
	.st125{fill:#94D137;}
	.st126{fill-rule:evenodd;clip-rule:evenodd;fill:#F1F1F1;}
	.st127{fill-rule:evenodd;clip-rule:evenodd;fill:#66E066;}
	.st128{fill:#464EB8;}
	.st129{fill:#7B83EB;}
	.st130{fill:#2D8CFF;}
	.st131{fill:#F1A300;}
	.st132{fill:#4BA2F2;}
	.st133{fill:#1A5099;}
	.st134{fill:#EE6060;}
	.st135{fill-rule:evenodd;clip-rule:evenodd;fill:#F48120;}
	.st136{fill:#222222;}
	.st137{fill:url(#SVGID_63_);}
	.st138{fill:#0077B5;}
	.st139{fill:#FFCC00;}
	.st140{fill:#EB3352;}
	.st141{fill:#F9D265;}
	.st142{fill:#F5B955;}
	.st143{fill:#DC322F;}
	.st144{fill:#4DA94C;}
	.st145{fill:#39802F;}
	.st146{fill:#F6BD41;}
	.st147{fill:#EB5141;}
	.st148{fill:#2165D6;}
	.st149{fill:#2F83F7;}
	.st150{fill:#DD2A7B;}
</style><g id="Layer_1"/><g id="Layer_2"><g><path d="M51.825,75.715c0,0-1.12,1.292-1.12,1.292c-0.997,1.08-1.882-0.654-2.53-1.292c-1.504-1.735-3.944-1.735-5.449,0    c-1.003,1.156-1.322,2.788-0.988,4.263c-0.089-0.07-0.178-0.129-0.267-0.199v1.999c1.776,1.506,3.39,3.078,4.791,4.572    c2.131,2.275,5.346,2.274,7.477,0.001c1.402-1.496,3.019-3.07,4.798-4.579v-1.999c-0.092,0.071-0.183,0.132-0.274,0.204    C59.295,75.709,54.563,72.502,51.825,75.715z"/><g><path class="st76" d="M76.706,75.659c-8.964,0.259-16.69,5.493-22.845,11.094c-2.201,2.035-5.52,2.036-7.721-0.001     c-6.156-5.6-13.882-10.834-22.845-11.093c-10.426-0.206-16.192,0.474-19.133,1.047c0.973,10.108,9.383,17.852,19.675,17.852     h52.327c10.293,0,18.703-7.744,19.675-17.852C92.898,76.133,87.13,75.456,76.706,75.659z"/><path class="st77" d="M31.22,43.062c-2.941,0-5.325,2.384-5.325,5.325v13.466c0.217,7.041,10.435,7.035,10.65,0V48.387     C36.545,45.446,34.161,43.062,31.22,43.062z"/><path class="st77" d="M68.78,43.062c-2.941,0-5.325,2.384-5.325,5.325v13.466c0.217,7.041,10.435,7.035,10.651,0V48.387     C74.105,45.446,71.721,43.062,68.78,43.062z"/><path class="st78" d="M76.163,3.446c-14.004,0.021-38.326-0.015-52.327,0C12.053,3.446,2.5,12.999,2.5,24.783v51.122     c3.198-0.752,9.354-1.555,20.854-1.335c5.852,0.114,11.827,2.24,17.838,6.298v-6.247h17.622v6.242     c6.008-4.055,11.981-6.179,17.831-6.293c11.495-0.217,17.657,0.583,20.855,1.335V43.062V24.783     C97.5,12.999,87.947,3.446,76.163,3.446z M36.545,61.853c-0.216,7.035-10.433,7.041-10.65,0V48.387     c0.218-7.041,10.434-7.036,10.65,0V61.853z M74.105,61.853c-0.216,7.035-10.433,7.041-10.651,0V48.387     c0.218-7.041,10.435-7.036,10.651,0V61.853z"/><path class="st78" d="M41.193,74.622v6.247c0.092,0.062,0.184,0.115,0.276,0.178c-0.345-1.321-0.015-2.782,1.02-3.817     c1.554-1.554,4.073-1.554,5.626,0c0.669,0.571,1.583,2.124,2.613,1.156c0,0,1.156-1.156,1.156-1.156     c2.827-2.876,7.714-0.005,6.647,3.817c0.094-0.065,0.189-0.119,0.283-0.183v-6.242H41.193z"/></g><g><path d="M25.157,47.68v13.088c0.311,8.835,12.993,8.836,13.305,0c0,0,0-13.088,0-13.088     C38.151,38.847,25.469,38.842,25.157,47.68z M35.47,47.68v13.088c-0.125,4.84-7.196,4.849-7.323,0c0,0,0-5.774,0-5.774     c1.926,1.72,5.241,0.169,5.157-2.442c0,0,0-3.924,0-3.924c0.061-2.336-2.638-3.959-4.647-2.785     C30.451,42.634,35.494,43.955,35.47,47.68z"/><path d="M61.529,47.68v13.088c0.311,8.835,12.993,8.836,13.305,0c0,0,0-13.088,0-13.088     C74.523,38.847,61.841,38.842,61.529,47.68z M71.843,47.68v13.088c-0.125,4.84-7.196,4.849-7.323,0c0,0,0-5.774,0-5.774     c1.925,1.721,5.241,0.169,5.157-2.442c0,0,0-3.924,0-3.924c0.061-2.336-2.638-3.959-4.647-2.784     C66.823,42.634,71.867,43.955,71.843,47.68z"/><path d="M97.489,31.537c-0.051-1.952-2.94-1.996-2.991,0c-0.004,7.215,0.003,34.855,0,42.576     c-4.937-0.859-9.968-0.996-14.978-1.02c-6.915-0.267-12.977,1.017-19.638,5.262c-0.212-5.355-6.655-7.111-9.886-2.935     c-3.236-4.174-9.681-2.413-9.885,2.936c-6.982-4.492-13.319-5.568-20.639-5.26c-4.84,0.051-9.354,0.213-13.98,1.016V24.739     c0-10.607,8.598-19.237,19.167-19.237h50.673c10.569,0,19.167,8.629,19.167,19.237c0.025,1.988,2.969,1.956,2.991,0     c0-12.263-9.94-22.239-22.158-22.239H24.658C12.44,2.5,2.5,12.476,2.5,24.739v50.523C2.557,87.575,12.362,97.527,24.658,97.5     c0,0,9.342,0,9.342,0c1.98-0.049,1.957-2.963,0-3.002c0,0-9.342,0-9.342,0c-9.967,0-18.11-7.525-19.052-17.349     c5.234-0.957,10.582-1.05,15.902-1.05c9.56-0.755,19.092,5.358,24.748,10.815c2.132,1.978,5.346,1.977,7.478-0.001     C59.351,81.51,68.788,75.396,78.293,76.1c5.314-0.007,10.643,0.086,15.843,1.002c0.083,9.355-9.118,17.544-18.805,17.396     c0,0-33.739,0-33.739,0c-1.954,0.02-1.972,2.975,0,3.002c0,0,33.738,0,33.738,0c12.005,0,21.722-9.439,22.122-21.49     C97.553,67.619,97.457,39.473,97.489,31.537z M56.227,80.104c0,0-4.496,4.38-4.496,4.38c-0.974,0.95-2.498,0.948-3.472,0     l-4.481-4.365c-2.15-2.238,1.104-5.504,3.335-3.346c0,0,1.12,1.124,1.12,1.124c0.972,0.975,2.553,0.975,3.525,0l1.12-1.123     C55.097,74.616,58.356,77.877,56.227,80.104z"/></g><path d="M58.262,79.978c1.033-4.269-3.699-7.475-6.437-4.263c0,0-1.12,1.292-1.12,1.292c-0.997,1.08-1.882-0.654-2.53-1.292    c-1.504-1.735-3.944-1.735-5.449,0c-1.003,1.156-1.322,2.788-0.988,4.263c-0.089-0.07,3.123,4.878,4.523,6.372    c2.131,2.275,5.346,2.274,7.477,0.001C55.141,84.855,58.353,79.906,58.262,79.978z"/></g></g></svg>