<?xml version="1.0" ?><svg style="enable-background:new 0 0 100 100;" version="1.1" viewBox="0 0 100 100" xml:space="preserve" xmlns="http://www.w3.org/2000/svg" xmlns:xlink="http://www.w3.org/1999/xlink"><style type="text/css">
	.st0{fill:#FFFFFF;}
	.st1{fill:#D43C89;}
	.st2{fill:#B2005F;}
	.st3{fill:none;stroke:#000000;stroke-width:3;stroke-linecap:round;stroke-linejoin:round;stroke-miterlimit:10;}
	
		.st4{fill-rule:evenodd;clip-rule:evenodd;fill:none;stroke:#000000;stroke-width:3;stroke-linecap:round;stroke-linejoin:round;stroke-miterlimit:10;}
	
		.st5{fill-rule:evenodd;clip-rule:evenodd;fill:none;stroke:#040404;stroke-width:3;stroke-linecap:round;stroke-linejoin:round;stroke-miterlimit:10;}
	.st6{fill-rule:evenodd;clip-rule:evenodd;}
	.st7{fill-rule:evenodd;clip-rule:evenodd;fill:#040404;}
	.st8{fill:url(#SVGID_1_);}
	.st9{fill:url(#SVGID_2_);}
	.st10{fill:url(#SVGID_3_);}
	.st11{fill:url(#SVGID_4_);}
	.st12{fill:url(#SVGID_5_);}
	.st13{fill:url(#SVGID_6_);}
	.st14{fill:url(#SVGID_7_);}
	.st15{fill:url(#SVGID_8_);}
	.st16{fill:url(#SVGID_9_);}
	.st17{fill:url(#SVGID_10_);}
	.st18{fill:url(#SVGID_11_);}
	.st19{fill:url(#SVGID_12_);}
	.st20{fill:url(#SVGID_13_);}
	.st21{fill:url(#SVGID_14_);}
	.st22{fill:url(#SVGID_15_);}
	.st23{fill:url(#SVGID_16_);}
	.st24{fill:url(#SVGID_17_);}
	.st25{fill:url(#SVGID_18_);}
	.st26{fill:url(#SVGID_19_);}
	.st27{fill:url(#SVGID_20_);}
	.st28{fill:url(#SVGID_21_);}
	.st29{fill:url(#SVGID_22_);}
	.st30{fill:url(#SVGID_23_);}
	.st31{fill:url(#SVGID_24_);}
	.st32{fill:url(#SVGID_25_);}
	.st33{fill:url(#SVGID_26_);}
	.st34{fill:url(#SVGID_27_);}
	.st35{fill:url(#SVGID_28_);}
	.st36{fill:url(#SVGID_29_);}
	.st37{fill:url(#SVGID_30_);}
	.st38{fill:url(#SVGID_31_);}
	.st39{fill:url(#SVGID_32_);}
	.st40{fill:url(#SVGID_33_);}
	.st41{fill:url(#SVGID_34_);}
	.st42{fill:url(#SVGID_35_);}
	.st43{fill:url(#SVGID_36_);}
	.st44{fill:url(#SVGID_37_);}
	.st45{fill:url(#SVGID_38_);}
	.st46{fill:url(#SVGID_39_);}
	.st47{fill:url(#SVGID_40_);}
	.st48{fill:url(#SVGID_41_);}
	.st49{fill:url(#SVGID_42_);}
	.st50{fill:url(#SVGID_43_);}
	.st51{fill:url(#SVGID_44_);}
	.st52{fill:url(#SVGID_45_);}
	.st53{fill:#040404;}
	.st54{fill:url(#SVGID_46_);}
	.st55{fill:url(#SVGID_47_);}
	.st56{fill:url(#SVGID_48_);}
	.st57{fill:url(#SVGID_49_);}
	.st58{fill:url(#SVGID_50_);}
	.st59{fill:url(#SVGID_51_);}
	.st60{fill:url(#SVGID_52_);}
	.st61{fill:url(#SVGID_53_);}
	.st62{fill:url(#SVGID_54_);}
	.st63{fill:url(#SVGID_55_);}
	.st64{fill:url(#SVGID_56_);}
	.st65{fill:url(#SVGID_57_);}
	.st66{fill:url(#SVGID_58_);}
	.st67{fill:url(#SVGID_59_);}
	.st68{fill:url(#SVGID_60_);}
	.st69{fill:url(#SVGID_61_);}
	.st70{fill:url(#SVGID_62_);}
	.st71{fill:none;stroke:#000000;stroke-width:3;stroke-miterlimit:10;}
	.st72{fill:none;stroke:#FFFFFF;stroke-miterlimit:10;}
	.st73{fill:#4BC9FF;}
	.st74{fill:#5500DD;}
	.st75{fill:#FF3A00;}
	.st76{fill:#FFC794;}
	.st77{fill:#F1F1F1;}
	.st78{fill:#EB4E00;}
	.st79{fill:#E6162D;}
	.st80{fill:#FF9933;}
	.st81{fill:#B92B27;}
	.st82{fill:#00ACED;}
	.st83{fill:#BD2125;}
	.st84{fill:#1877F2;}
	.st85{fill:#6665D2;}
	.st86{fill:#CE3056;}
	.st87{fill:#5BB381;}
	.st88{fill:#61C3EC;}
	.st89{fill:#E4B34B;}
	.st90{fill:#181EF2;}
	.st91{fill:#FF0000;}
	.st92{fill:#FE466C;}
	.st93{fill:#FA4778;}
	.st94{fill:#FF7700;}
	.st95{fill:#D95040;}
	.st96{fill:#58A55C;}
	.st97{fill:#4E86EC;}
	.st98{fill:#B6332A;}
	.st99{fill:#F3BD42;}
	.st100{fill-rule:evenodd;clip-rule:evenodd;fill:#1F6BF6;}
	.st101{fill:#520094;}
	.st102{fill:#4477E8;}
	.st103{fill:#3D1D1C;}
	.st104{fill:#FFE812;}
	.st105{fill:#344356;}
	.st106{fill:#00CC76;}
	.st107{fill-rule:evenodd;clip-rule:evenodd;fill:#345E90;}
	.st108{fill:#1F65D8;}
	.st109{fill:#EB3587;}
	.st110{fill-rule:evenodd;clip-rule:evenodd;fill:#603A88;}
	.st111{fill:#E3CE99;}
	.st112{fill:#783AF9;}
	.st113{fill:#FF515E;}
	.st114{fill:#FF4906;}
	.st115{fill:#503227;}
	.st116{fill:#4C7BD9;}
	.st117{fill:#69C9D0;}
	.st118{fill:#1B92D1;}
	.st119{fill:#EB4F4A;}
	.st120{fill:#513728;}
	.st121{fill:#FF6600;}
	.st122{fill-rule:evenodd;clip-rule:evenodd;fill:#B61438;}
	.st123{fill:#FFFC00;}
	.st124{fill:#141414;}
	.st125{fill:#94D137;}
	.st126{fill-rule:evenodd;clip-rule:evenodd;fill:#F1F1F1;}
	.st127{fill-rule:evenodd;clip-rule:evenodd;fill:#66E066;}
	.st128{fill:#464EB8;}
	.st129{fill:#7B83EB;}
	.st130{fill:#2D8CFF;}
	.st131{fill:#F1A300;}
	.st132{fill:#4BA2F2;}
	.st133{fill:#1A5099;}
	.st134{fill:#EE6060;}
	.st135{fill-rule:evenodd;clip-rule:evenodd;fill:#F48120;}
	.st136{fill:#222222;}
	.st137{fill:url(#SVGID_63_);}
	.st138{fill:#0077B5;}
	.st139{fill:#FFCC00;}
	.st140{fill:#EB3352;}
	.st141{fill:#F9D265;}
	.st142{fill:#F5B955;}
	.st143{fill:#DC322F;}
	.st144{fill:#4DA94C;}
	.st145{fill:#39802F;}
	.st146{fill:#F6BD41;}
	.st147{fill:#EB5141;}
	.st148{fill:#2165D6;}
	.st149{fill:#2F83F7;}
	.st150{fill:#DD2A7B;}
</style><g id="Layer_1"/><g id="Layer_2"><g><path class="st82" d="M96.421,21.122c-3.417,1.518-7.088,2.539-10.941,3c3.935-2.357,6.952-6.088,8.373-10.537    c-3.678,2.182-7.755,3.767-12.098,4.624c-3.474-3.703-8.423-6.017-13.901-6.017C55.746,12.03,46.437,23.859,49.302,35.577    C33.473,34.784,19.44,27.2,10.042,15.673c-5.129,8.364-2.217,20.325,5.896,25.431c-3.121-0.1-6.06-0.957-8.627-2.382    c-0.119,9.305,6.482,17.161,15.279,18.914c-2.703,0.754-5.817,0.872-8.602,0.328c2.425,7.566,9.459,13.076,17.793,13.229    c-7.535,6.021-18.084,9.16-28.201,7.888c40.682,25.037,85.655-7.765,83.333-48.101C90.636,28.292,93.868,24.939,96.421,21.122z"/><g><path d="M70.657,70.288C58.434,84.413,31.532,91.903,9.606,80.634c8.481-0.248,16.461-3.133,23.152-8.379     c1.024-0.757,0.442-2.507-0.835-2.492c-6.741-0.124-12.736-4.084-15.544-10.065c2.317,0.165,4.583-0.069,6.756-0.663     c1.396-0.357,1.327-2.452-0.094-2.712c-7.475-1.498-13.069-7.708-13.938-15.154c2.225,0.905,4.611,1.416,7.012,1.493     c0.613,0.016,1.182-0.375,1.372-0.967c0.19-0.593-0.035-1.24-0.553-1.585c-3.62-2.419-6.199-6.068-7.261-10.276     c-0.189-0.747-0.944-1.199-1.693-1.011c-0.747,0.188-1.199,0.946-1.011,1.693c0.81,3.209,2.379,6.137,4.553,8.564     c-1.128-0.354-2.222-0.821-3.255-1.395c-0.882-0.525-2.104,0.187-2.071,1.219c-0.09,7.599,4.101,14.486,10.489,18.021     c-0.73-0.046-1.469-0.14-2.206-0.278c-0.999-0.215-1.928,0.829-1.584,1.796c2.262,7.061,8.144,12.225,15.222,13.69     c-7.034,4.541-15.668,6.483-24.068,5.476c-1.433-0.216-2.155,1.805-0.918,2.558c23.286,15.463,55.146,8.693,69.553-7.966     C73.902,70.838,71.954,68.975,70.657,70.288z"/><path d="M97.172,20.523c-0.399-0.474-1.065-0.63-1.632-0.377c-1.653,0.734-3.359,1.342-5.107,1.822     c2.012-2.167,3.539-4.759,4.449-7.61c0.411-1.169-0.985-2.298-2.04-1.623c-3.371,2-7.014,3.436-10.84,4.272     c-3.784-3.727-8.941-5.85-14.271-5.85c-12.203-0.096-21.88,11.049-20.123,23.111c-14.099-1.189-27.221-8.1-36.223-19.14     c-0.566-0.75-1.84-0.65-2.286,0.181c-1.796,3.091-2.746,6.624-2.746,10.216c0.056,1.846,2.745,1.829,2.788,0     c0-2.423,0.5-4.812,1.457-7.014c9.827,11.148,23.788,17.917,38.633,18.66c0.897,0.071,1.652-0.838,1.428-1.706     c-4.128-17.149,17.85-29.016,29.862-15.983c0.328,0.35,0.81,0.505,1.287,0.413c3.065-0.605,6.026-1.565,8.844-2.863     c-1.479,2.515-3.578,4.644-6.131,6.173c-0.565,0.338-0.816,1.024-0.603,1.647c0.212,0.623,0.837,1.012,1.484,0.934     c2.274-0.271,4.506-0.736,6.675-1.388c-1.85,2.124-3.935,4.027-6.234,5.687c-1.051,0.85-0.367,2.407-0.525,3.578     c0.02,11.45-4.221,23.654-11.475,32.908c-1.102,1.431,1.044,3.157,2.2,1.712c8.006-10.239,12.477-23.68,12.036-36.381     c3.591-2.696,6.678-5.957,9.184-9.703C97.61,21.679,97.572,20.997,97.172,20.523z"/></g></g></g></svg>