<?xml version="1.0" ?><svg style="enable-background:new 0 0 100 100;" version="1.1" viewBox="0 0 100 100" xml:space="preserve" xmlns="http://www.w3.org/2000/svg" xmlns:xlink="http://www.w3.org/1999/xlink"><style type="text/css">
	.st0{fill:#FFFFFF;}
	.st1{fill:#D43C89;}
	.st2{fill:#B2005F;}
	.st3{fill:none;stroke:#000000;stroke-width:3;stroke-linecap:round;stroke-linejoin:round;stroke-miterlimit:10;}
	
		.st4{fill-rule:evenodd;clip-rule:evenodd;fill:none;stroke:#000000;stroke-width:3;stroke-linecap:round;stroke-linejoin:round;stroke-miterlimit:10;}
	
		.st5{fill-rule:evenodd;clip-rule:evenodd;fill:none;stroke:#040404;stroke-width:3;stroke-linecap:round;stroke-linejoin:round;stroke-miterlimit:10;}
	.st6{fill-rule:evenodd;clip-rule:evenodd;}
	.st7{fill-rule:evenodd;clip-rule:evenodd;fill:#040404;}
	.st8{fill:url(#SVGID_1_);}
	.st9{fill:url(#SVGID_2_);}
	.st10{fill:url(#SVGID_3_);}
	.st11{fill:url(#SVGID_4_);}
	.st12{fill:url(#SVGID_5_);}
	.st13{fill:url(#SVGID_6_);}
	.st14{fill:url(#SVGID_7_);}
	.st15{fill:url(#SVGID_8_);}
	.st16{fill:url(#SVGID_9_);}
	.st17{fill:url(#SVGID_10_);}
	.st18{fill:url(#SVGID_11_);}
	.st19{fill:url(#SVGID_12_);}
	.st20{fill:url(#SVGID_13_);}
	.st21{fill:url(#SVGID_14_);}
	.st22{fill:url(#SVGID_15_);}
	.st23{fill:url(#SVGID_16_);}
	.st24{fill:url(#SVGID_17_);}
	.st25{fill:url(#SVGID_18_);}
	.st26{fill:url(#SVGID_19_);}
	.st27{fill:url(#SVGID_20_);}
	.st28{fill:url(#SVGID_21_);}
	.st29{fill:url(#SVGID_22_);}
	.st30{fill:url(#SVGID_23_);}
	.st31{fill:url(#SVGID_24_);}
	.st32{fill:url(#SVGID_25_);}
	.st33{fill:url(#SVGID_26_);}
	.st34{fill:url(#SVGID_27_);}
	.st35{fill:url(#SVGID_28_);}
	.st36{fill:url(#SVGID_29_);}
	.st37{fill:url(#SVGID_30_);}
	.st38{fill:url(#SVGID_31_);}
	.st39{fill:url(#SVGID_32_);}
	.st40{fill:url(#SVGID_33_);}
	.st41{fill:url(#SVGID_34_);}
	.st42{fill:url(#SVGID_35_);}
	.st43{fill:url(#SVGID_36_);}
	.st44{fill:url(#SVGID_37_);}
	.st45{fill:url(#SVGID_38_);}
	.st46{fill:url(#SVGID_39_);}
	.st47{fill:url(#SVGID_40_);}
	.st48{fill:url(#SVGID_41_);}
	.st49{fill:url(#SVGID_42_);}
	.st50{fill:url(#SVGID_43_);}
	.st51{fill:url(#SVGID_44_);}
	.st52{fill:url(#SVGID_45_);}
	.st53{fill:#040404;}
	.st54{fill:url(#SVGID_46_);}
	.st55{fill:url(#SVGID_47_);}
	.st56{fill:url(#SVGID_48_);}
	.st57{fill:url(#SVGID_49_);}
	.st58{fill:url(#SVGID_50_);}
	.st59{fill:url(#SVGID_51_);}
	.st60{fill:url(#SVGID_52_);}
	.st61{fill:url(#SVGID_53_);}
	.st62{fill:url(#SVGID_54_);}
	.st63{fill:url(#SVGID_55_);}
	.st64{fill:url(#SVGID_56_);}
	.st65{fill:url(#SVGID_57_);}
	.st66{fill:url(#SVGID_58_);}
	.st67{fill:url(#SVGID_59_);}
	.st68{fill:url(#SVGID_60_);}
	.st69{fill:url(#SVGID_61_);}
	.st70{fill:url(#SVGID_62_);}
	.st71{fill:none;stroke:#000000;stroke-width:3;stroke-miterlimit:10;}
	.st72{fill:none;stroke:#FFFFFF;stroke-miterlimit:10;}
	.st73{fill:#4BC9FF;}
	.st74{fill:#5500DD;}
	.st75{fill:#FF3A00;}
	.st76{fill:#FFC794;}
	.st77{fill:#F1F1F1;}
	.st78{fill:#EB4E00;}
	.st79{fill:#E6162D;}
	.st80{fill:#FF9933;}
	.st81{fill:#B92B27;}
	.st82{fill:#00ACED;}
	.st83{fill:#BD2125;}
	.st84{fill:#1877F2;}
	.st85{fill:#6665D2;}
	.st86{fill:#CE3056;}
	.st87{fill:#5BB381;}
	.st88{fill:#61C3EC;}
	.st89{fill:#E4B34B;}
	.st90{fill:#181EF2;}
	.st91{fill:#FF0000;}
	.st92{fill:#FE466C;}
	.st93{fill:#FA4778;}
	.st94{fill:#FF7700;}
	.st95{fill:#D95040;}
	.st96{fill:#58A55C;}
	.st97{fill:#4E86EC;}
	.st98{fill:#B6332A;}
	.st99{fill:#F3BD42;}
	.st100{fill-rule:evenodd;clip-rule:evenodd;fill:#1F6BF6;}
	.st101{fill:#520094;}
	.st102{fill:#4477E8;}
	.st103{fill:#3D1D1C;}
	.st104{fill:#FFE812;}
	.st105{fill:#344356;}
	.st106{fill:#00CC76;}
	.st107{fill-rule:evenodd;clip-rule:evenodd;fill:#345E90;}
	.st108{fill:#1F65D8;}
	.st109{fill:#EB3587;}
	.st110{fill-rule:evenodd;clip-rule:evenodd;fill:#603A88;}
	.st111{fill:#E3CE99;}
	.st112{fill:#783AF9;}
	.st113{fill:#FF515E;}
	.st114{fill:#FF4906;}
	.st115{fill:#503227;}
	.st116{fill:#4C7BD9;}
	.st117{fill:#69C9D0;}
	.st118{fill:#1B92D1;}
	.st119{fill:#EB4F4A;}
	.st120{fill:#513728;}
	.st121{fill:#FF6600;}
	.st122{fill-rule:evenodd;clip-rule:evenodd;fill:#B61438;}
	.st123{fill:#FFFC00;}
	.st124{fill:#141414;}
	.st125{fill:#94D137;}
	.st126{fill-rule:evenodd;clip-rule:evenodd;fill:#F1F1F1;}
	.st127{fill-rule:evenodd;clip-rule:evenodd;fill:#66E066;}
	.st128{fill:#464EB8;}
	.st129{fill:#7B83EB;}
	.st130{fill:#2D8CFF;}
	.st131{fill:#F1A300;}
	.st132{fill:#4BA2F2;}
	.st133{fill:#1A5099;}
	.st134{fill:#EE6060;}
	.st135{fill-rule:evenodd;clip-rule:evenodd;fill:#F48120;}
	.st136{fill:#222222;}
	.st137{fill:url(#SVGID_63_);}
	.st138{fill:#0077B5;}
	.st139{fill:#FFCC00;}
	.st140{fill:#EB3352;}
	.st141{fill:#F9D265;}
	.st142{fill:#F5B955;}
	.st143{fill:#DC322F;}
	.st144{fill:#4DA94C;}
	.st145{fill:#39802F;}
	.st146{fill:#F6BD41;}
	.st147{fill:#EB5141;}
	.st148{fill:#2165D6;}
	.st149{fill:#2F83F7;}
	.st150{fill:#DD2A7B;}
</style><g id="Layer_1"/><g id="Layer_2"><g><g><path class="st101" d="M94.357,4.571c0-0.249-0.039-0.498-0.075-0.936c-26.954,0-53.901,0.011-80.854-0.031     c-1.24-0.002-1.786,0.356-2.203,1.528c-1.567,4.412-3.255,8.78-4.912,13.159c-0.177,0.469-0.447,0.903-0.674,1.353     c0,21.457,0,42.913,0,64.37c7.439,0.113,14.843-0.127,22.279,0.215c0,4.148,0,8.156,0,12.164c4.023,0,8.045,0,12.068,0     c3.169-3.23,6.449-6.36,9.466-9.727c1.769-1.974,3.651-2.764,6.301-2.633c4.319,0.214,8.657,0.114,12.984,0.009     c0.863-0.021,1.924-0.437,2.533-1.037c7.413-7.31,14.769-14.679,22.101-22.07c0.486-0.49,0.948-1.281,0.95-1.933     C94.371,40.86,94.361,22.716,94.357,4.571z M86.51,54.516c0.002,1.062-0.289,1.829-1.049,2.576     c-4.079,4.012-8.085,8.1-12.193,12.082c-0.582,0.564-2.581,0.973-3.393,0.983c-6.442,0.079-11.91,0.009-18.352,0.088     c-0.812,0.01-1.806,0.427-2.394,0.991c-3.853,3.642-7.247,7.334-11.153,10.983c0-3.69-0.12-7.113-0.116-10.754     c0.02-1.08-0.352-1.271-1.427-1.261l-6.837,0.02c-1.323-0.006-8.545,0.004-9.784,0c0-19.6,0-38.814,0-58.474     c22.229-0.001,44.472,0.001,66.697,0C86.435,27.885,86.506,38.532,86.51,54.516z"/><path class="st101" d="M72.653,28.926c0.005-0.899-0.74-1.625-1.64-1.628c-2.167-0.007-4.794-0.026-4.794-0.026     s-1.588,0.411-1.58,1.626c0.041,5.837,0.063,17.09,0.088,21.322c0.005,0.911,0.752,1.638,1.663,1.63     c1.621-0.014,3.159-0.034,4.693,0.032c1.254,0.054,1.607-0.38,1.598-1.618C72.629,43.153,72.657,36.039,72.653,28.926z"/><path class="st101" d="M49.932,28.926c0.006-0.899-0.74-1.625-1.64-1.628c-2.167-0.007-4.794-0.026-4.794-0.026     s-1.588,0.411-1.58,1.626c0.041,5.837,0.063,17.09,0.088,21.322c0.005,0.911,0.752,1.638,1.663,1.63     c1.62-0.014,3.159-0.034,4.693,0.032c1.254,0.054,1.607-0.38,1.598-1.618C49.908,43.153,49.937,36.039,49.932,28.926z"/></g><g><path d="M95.476,4.846c0-0.2-0.017-0.402-0.044-0.666l-0.035-0.379c-0.06-0.718-0.66-1.271-1.381-1.271     C67.34,2.537,40.293,2.533,13.651,2.5c-1.838-0.003-2.889,0.726-3.497,2.44C8.386,9.94,6.436,14.956,4.522,19.829     c0,0,0,63.981,0,63.981c0,0.763,0.617,1.383,1.38,1.386c6.88,0.043,13.9,0.003,20.764,0.114c0,0,0,10.804,0,10.804     c0,0.765,0.621,1.386,1.386,1.386h11.995c0.372,0,0.728-0.15,0.989-0.415c3.164-3.222,6.403-6.314,9.453-9.714     c1.49-1.663,2.931-2.262,5.161-2.158c4.409,0.217,8.781,0.112,13.008,0.011c1.231-0.03,2.619-0.604,3.457-1.429     c6.47-6.382,13.454-13.356,21.977-21.947c0.65-0.654,1.343-1.757,1.347-2.894C95.489,40.858,95.478,22.705,95.476,4.846z      M92.667,58.946c-0.001,0.161-0.218,0.623-0.542,0.949c-8.517,8.585-15.493,15.552-21.956,21.926     c-0.341,0.336-1.048,0.619-1.578,0.632c-4.177,0.101-8.496,0.205-12.804-0.007c-3.046-0.157-5.32,0.798-7.363,3.076     c-2.866,3.194-5.961,6.168-8.958,9.207H29.438V84.023c0-0.732-0.569-1.338-1.299-1.383c-5.928-0.324-11.859-0.101-17.793-0.2     c0,0-3.052-0.011-3.052-0.011V20.17c0.471-0.841,1.271-2.972,1.607-3.902c1.291-3.397,2.626-6.91,3.865-10.399     c0.209-0.587,0.202-0.59,0.882-0.597c26.229,0.035,52.798,0.034,79.057,0.03C92.706,23.005,92.717,41.007,92.667,58.946z"/><path d="M87.63,32.6l0.001-14.987c-0.036-1.792-2.729-1.848-2.772,0c-0.032,13.206,0.011,22.151,0.022,36.88     c0.001,0.711-0.157,1.107-0.629,1.57c-4.057,3.99-8.005,8.02-12.111,12.002c-0.322,0.312-0.978,0.581-1.432,0.586     c-6.403,0.078-12.809,0.009-19.212,0.088c-1.147,0.014-2.482,0.565-3.322,1.37c-3.031,2.907-5.937,5.864-8.869,8.8     c-0.012-2.446-0.029-4.95,0.017-7.425c0.146-1.722-1.134-2.933-2.822-2.809c-1.821,0.046-1.796,2.785,0.051,2.771     c-0.055,2.883-0.021,5.778-0.012,8.626c0.087,1.131-0.201,3.319,1.509,3.339c0.608,0.062,1.161-0.576,1.569-0.947     c3.56-3.409,6.882-6.943,10.475-10.354c0.333-0.319,0.991-0.594,1.438-0.599c6.402-0.079,12.809-0.01,19.212-0.088     c1.16-0.014,2.496-0.564,3.326-1.368c2.38-2.308,4.762-4.687,7.065-6.987c1.683-1.681,3.365-3.362,5.059-5.028     c1.01-0.992,1.461-2.088,1.458-3.553C87.628,44.18,87.629,39.969,87.63,32.6z"/><path d="M29.721,68.694h-8.315V13.151l62.834,0.001c0.765,0,1.386-0.621,1.386-1.386s-0.621-1.386-1.386-1.386L20.02,10.38     c-0.765,0-1.386,0.621-1.386,1.386V70.08c0,0.765,0.621,1.386,1.386,1.386h9.701C31.552,71.421,31.537,68.731,29.721,68.694z"/><path d="M70.405,26.575c-2.526,0.016-4.488-0.085-5.005,0.019c-0.962,0.249-2.585,1.147-2.572,2.93     c0.024,3.383,0.042,8.642,0.056,13.203c0.011,3.078,0.02,5.84,0.029,7.495c0.005,0.796,0.319,1.541,0.886,2.099     c1.661,1.561,4.572,0.569,6.611,0.892c1.849,0.198,3.144-1.142,2.997-2.966c-0.036-4.897-0.033-9.794-0.03-14.692l0.002-6.034     C73.373,27.902,72.04,26.58,70.405,26.575z M65.744,50.348c-0.202-5.316-0.04-15.722-0.163-20.778     c0.045-0.07,0.22-0.179,0.385-0.247c0.673,0.005,2.702,0.017,4.43,0.023c0.112,0,0.211,0.087,0.211,0.195     c-0.004,6.843-0.013,14.092,0.025,20.906C69.017,50.318,67.336,50.515,65.744,50.348z"/><path d="M50.6,27.214c-0.462-0.453-1.122-0.68-1.915-0.648c-1.584,0.044-3.318,0.046-5.308,0.002     c-1.771-0.084-2.673,1.309-2.573,2.573c0.019,7.168,0.02,14.336,0.002,21.503c-0.096,1.487,1.055,2.678,2.593,2.556     c1.63-0.04,3.484-0.063,5.244,0.018c0.477,0,1.3-0.081,1.921-0.683c1.085-1.138,1.161-3.519-0.636-3.602     c-0.773-0.001-1.398,0.635-1.386,1.408c-1.427,0.218-3.493-0.052-4.964,0.083c0.017-7.027,0.016-14.054-0.002-21.079     c1.829,0.036,3.457,0.036,4.955-0.003c-0.017,2.568-0.014,5.135-0.012,7.703l0.002,8.909c0.029,1.819,2.741,1.823,2.772,0     c0,0-0.002-8.912-0.002-8.912c-0.003-2.588-0.006-5.176,0.013-7.764C51.307,28.69,51.239,27.838,50.6,27.214z"/></g></g></g></svg>