<?xml version="1.0" ?><svg style="enable-background:new 0 0 100 100;" version="1.1" viewBox="0 0 100 100" xml:space="preserve" xmlns="http://www.w3.org/2000/svg" xmlns:xlink="http://www.w3.org/1999/xlink"><style type="text/css">
	.st0{fill:#FFFFFF;}
	.st1{fill:#D43C89;}
	.st2{fill:#B2005F;}
	.st3{fill:none;stroke:#000000;stroke-width:3;stroke-linecap:round;stroke-linejoin:round;stroke-miterlimit:10;}
	
		.st4{fill-rule:evenodd;clip-rule:evenodd;fill:none;stroke:#000000;stroke-width:3;stroke-linecap:round;stroke-linejoin:round;stroke-miterlimit:10;}
	
		.st5{fill-rule:evenodd;clip-rule:evenodd;fill:none;stroke:#040404;stroke-width:3;stroke-linecap:round;stroke-linejoin:round;stroke-miterlimit:10;}
	.st6{fill-rule:evenodd;clip-rule:evenodd;}
	.st7{fill-rule:evenodd;clip-rule:evenodd;fill:#040404;}
	.st8{fill:url(#SVGID_1_);}
	.st9{fill:url(#SVGID_2_);}
	.st10{fill:url(#SVGID_3_);}
	.st11{fill:url(#SVGID_4_);}
	.st12{fill:url(#SVGID_5_);}
	.st13{fill:url(#SVGID_6_);}
	.st14{fill:url(#SVGID_7_);}
	.st15{fill:url(#SVGID_8_);}
	.st16{fill:url(#SVGID_9_);}
	.st17{fill:url(#SVGID_10_);}
	.st18{fill:url(#SVGID_11_);}
	.st19{fill:url(#SVGID_12_);}
	.st20{fill:url(#SVGID_13_);}
	.st21{fill:url(#SVGID_14_);}
	.st22{fill:url(#SVGID_15_);}
	.st23{fill:url(#SVGID_16_);}
	.st24{fill:url(#SVGID_17_);}
	.st25{fill:url(#SVGID_18_);}
	.st26{fill:url(#SVGID_19_);}
	.st27{fill:url(#SVGID_20_);}
	.st28{fill:url(#SVGID_21_);}
	.st29{fill:url(#SVGID_22_);}
	.st30{fill:url(#SVGID_23_);}
	.st31{fill:url(#SVGID_24_);}
	.st32{fill:url(#SVGID_25_);}
	.st33{fill:url(#SVGID_26_);}
	.st34{fill:url(#SVGID_27_);}
	.st35{fill:url(#SVGID_28_);}
	.st36{fill:url(#SVGID_29_);}
	.st37{fill:url(#SVGID_30_);}
	.st38{fill:url(#SVGID_31_);}
	.st39{fill:url(#SVGID_32_);}
	.st40{fill:url(#SVGID_33_);}
	.st41{fill:url(#SVGID_34_);}
	.st42{fill:url(#SVGID_35_);}
	.st43{fill:url(#SVGID_36_);}
	.st44{fill:url(#SVGID_37_);}
	.st45{fill:url(#SVGID_38_);}
	.st46{fill:url(#SVGID_39_);}
	.st47{fill:url(#SVGID_40_);}
	.st48{fill:url(#SVGID_41_);}
	.st49{fill:url(#SVGID_42_);}
	.st50{fill:url(#SVGID_43_);}
	.st51{fill:url(#SVGID_44_);}
	.st52{fill:url(#SVGID_45_);}
	.st53{fill:#040404;}
	.st54{fill:url(#SVGID_46_);}
	.st55{fill:url(#SVGID_47_);}
	.st56{fill:url(#SVGID_48_);}
	.st57{fill:url(#SVGID_49_);}
	.st58{fill:url(#SVGID_50_);}
	.st59{fill:url(#SVGID_51_);}
	.st60{fill:url(#SVGID_52_);}
	.st61{fill:url(#SVGID_53_);}
	.st62{fill:url(#SVGID_54_);}
	.st63{fill:url(#SVGID_55_);}
	.st64{fill:url(#SVGID_56_);}
	.st65{fill:url(#SVGID_57_);}
	.st66{fill:url(#SVGID_58_);}
	.st67{fill:url(#SVGID_59_);}
	.st68{fill:url(#SVGID_60_);}
	.st69{fill:url(#SVGID_61_);}
	.st70{fill:url(#SVGID_62_);}
	.st71{fill:none;stroke:#000000;stroke-width:3;stroke-miterlimit:10;}
	.st72{fill:none;stroke:#FFFFFF;stroke-miterlimit:10;}
	.st73{fill:#4BC9FF;}
	.st74{fill:#5500DD;}
	.st75{fill:#FF3A00;}
	.st76{fill:#FFC794;}
	.st77{fill:#F1F1F1;}
	.st78{fill:#EB4E00;}
	.st79{fill:#E6162D;}
	.st80{fill:#FF9933;}
	.st81{fill:#B92B27;}
	.st82{fill:#00ACED;}
	.st83{fill:#BD2125;}
	.st84{fill:#1877F2;}
	.st85{fill:#6665D2;}
	.st86{fill:#CE3056;}
	.st87{fill:#5BB381;}
	.st88{fill:#61C3EC;}
	.st89{fill:#E4B34B;}
	.st90{fill:#181EF2;}
	.st91{fill:#FF0000;}
	.st92{fill:#FE466C;}
	.st93{fill:#FA4778;}
	.st94{fill:#FF7700;}
	.st95{fill:#D95040;}
	.st96{fill:#58A55C;}
	.st97{fill:#4E86EC;}
	.st98{fill:#B6332A;}
	.st99{fill:#F3BD42;}
	.st100{fill-rule:evenodd;clip-rule:evenodd;fill:#1F6BF6;}
	.st101{fill:#520094;}
	.st102{fill:#4477E8;}
	.st103{fill:#3D1D1C;}
	.st104{fill:#FFE812;}
	.st105{fill:#344356;}
	.st106{fill:#00CC76;}
	.st107{fill-rule:evenodd;clip-rule:evenodd;fill:#345E90;}
	.st108{fill:#1F65D8;}
	.st109{fill:#EB3587;}
	.st110{fill-rule:evenodd;clip-rule:evenodd;fill:#603A88;}
	.st111{fill:#E3CE99;}
	.st112{fill:#783AF9;}
	.st113{fill:#FF515E;}
	.st114{fill:#FF4906;}
	.st115{fill:#503227;}
	.st116{fill:#4C7BD9;}
	.st117{fill:#69C9D0;}
	.st118{fill:#1B92D1;}
	.st119{fill:#EB4F4A;}
	.st120{fill:#513728;}
	.st121{fill:#FF6600;}
	.st122{fill-rule:evenodd;clip-rule:evenodd;fill:#B61438;}
	.st123{fill:#FFFC00;}
	.st124{fill:#141414;}
	.st125{fill:#94D137;}
	.st126{fill-rule:evenodd;clip-rule:evenodd;fill:#F1F1F1;}
	.st127{fill-rule:evenodd;clip-rule:evenodd;fill:#66E066;}
	.st128{fill:#464EB8;}
	.st129{fill:#7B83EB;}
	.st130{fill:#2D8CFF;}
	.st131{fill:#F1A300;}
	.st132{fill:#4BA2F2;}
	.st133{fill:#1A5099;}
	.st134{fill:#EE6060;}
	.st135{fill-rule:evenodd;clip-rule:evenodd;fill:#F48120;}
	.st136{fill:#222222;}
	.st137{fill:url(#SVGID_63_);}
	.st138{fill:#0077B5;}
	.st139{fill:#FFCC00;}
	.st140{fill:#EB3352;}
	.st141{fill:#F9D265;}
	.st142{fill:#F5B955;}
	.st143{fill:#DC322F;}
	.st144{fill:#4DA94C;}
	.st145{fill:#39802F;}
	.st146{fill:#F6BD41;}
	.st147{fill:#EB5141;}
	.st148{fill:#2165D6;}
	.st149{fill:#2F83F7;}
	.st150{fill:#DD2A7B;}
</style><g id="Layer_1"/><g id="Layer_2"><g><g><path class="st110" d="M53.594,7.893c23.205,3.568,33.907,14.603,36.862,37.975c0.274,2.159-0.53,5.407,2.55,5.467     c3.219,0.062,2.443-3.139,2.47-5.3C95.749,24.023,76.556,3.617,54.265,2.864c-1.682,0.242-5.162-1.16-5.379,2.61     C48.742,8.015,51.672,7.598,53.594,7.893z"/><path class="st110" d="M89.405,71.246c-7.788-5.494-17.581-16.008-25.212-4.297c-2.547,3.856-6.112,4.024-9.84,2.333     c-10.277-4.66-18.212-11.839-22.861-22.285c-5.482-12.975,7.939-10.538,7.69-19.584c-0.268-4.925-12.225-21.383-16.947-23.12     c-1.954-0.719-3.9-0.672-5.888-0.004C5.276,8.013,0.69,17.119,5.082,27.901c13.103,32.167,36.162,54.561,67.904,68.229     c1.81,0.778,3.82,1.089,4.838,1.369c7.227,0.073,15.692-6.89,18.137-13.8C98.314,77.052,93.34,74.413,89.405,71.246z"/><path class="st110" d="M58.154,14.284c-2.232-0.269-5.179-1.321-5.7,1.777c-0.545,3.251,2.739,2.921,4.85,3.393     c14.332,3.203,19.322,8.42,21.682,22.636c0.345,2.073-0.34,5.299,3.182,4.764c2.61-0.398,1.668-3.163,1.886-4.778     C84.17,28.427,72.474,16.003,58.154,14.284z"/><path class="st110" d="M59.511,25.39c-1.49,0.037-2.952,0.198-3.5,1.79c-0.822,2.38,0.908,2.947,2.669,3.23     c5.879,0.944,8.973,4.411,9.561,10.274c0.159,1.591,1.169,2.881,2.706,2.699c2.13-0.254,2.323-2.15,2.257-3.951     C73.309,32.845,65.864,25.232,59.511,25.39z"/></g><g><path d="M91.301,71.096c-3.372-2.702-6.919-5.229-10.438-7.654c-7.076-5.003-13.269-4.481-17.998,2.621     c-1.879,2.844-4.413,3.416-7.972,1.801c-1.709-0.742-2.847,1.784-1.17,2.577c4.854,2.202,8.831,1.228,11.503-2.818     c3.886-5.806,8.162-5.912,14.01-1.865c3.497,2.409,7.024,4.922,10.345,7.587c3.889,2.972,6.189,5.026,4.567,9.604     c-2.458,6.64-10.776,13.482-17.316,12.509C43.658,83.484,19.739,58.986,6.858,27.668C2.786,17.874,7.065,9.471,17.148,6.175     c1.726-0.581,3.326-0.583,4.888-0.01c4.058,1.494,15.609,17.262,15.847,21.631c0.163,2.981-1.912,4.646-4.238,6.224     c-4.819,3.274-5.883,7.74-3.251,13.654c3.577,8.038,9.269,14.545,16.917,19.338c1.598,0.958,3.059-1.382,1.503-2.397     c-7.163-4.49-12.491-10.577-15.836-18.091c-5.147-11.343,8.104-9.001,7.731-18.882C40.406,22.097,28.168,5.408,23.012,3.51     C15.962,0.913,6.264,7.932,3.966,13.587c-2.043,4.457-1.949,9.695,0.272,15.146C17.03,60.14,39.892,83.115,72.188,97.021     c9.723,4.937,21.443-4.592,24.629-13.129C99.209,77.14,94.824,73.789,91.301,71.096z"/><path d="M52.454,9.394c22.929,2.779,34.458,14.716,36.462,37.817c0.029,1.825,0.085,5.224,3.834,5.297     c3.419,0.147,4.225-2.893,3.915-5.604c0.011-1.122-0.006-2.396-1.426-2.469c-0.78-0.01-1.422,0.616-1.432,1.397     c-0.035,1.018,0.277,3.021-0.207,3.675c-0.114,0.118-0.414,0.189-0.795,0.172c-0.742-0.014-1.021-0.019-1.061-2.513     C89.713,22.405,77.25,9.465,52.66,6.572c-2.167-0.159-2.156-0.355-2.132-0.784c0.031-0.534,0.148-0.917,0.332-1.078     c0.765-0.504,2.623-0.013,3.642-0.168c19.677,0.724,37.222,17.469,39.142,37.38c0.195,1.838,2.968,1.59,2.816-0.271     C94.365,19.888,74.743,1.636,53.132,1.7c-2.589-0.368-5.349,0.578-5.429,3.927C47.51,9.034,50.85,9.277,52.454,9.394z"/><path d="M57.463,12.892c-1.945-0.323-5.559-0.917-6.232,3.076c-0.638,3.286,2.058,4.6,4.721,4.783     c13.841,2.577,19.432,7.66,21.536,21.442c0.148,3.157,0.514,6.499,4.757,5.882c3.879-0.803,2.86-4.029,3.068-6.115     C85.466,27.429,72.739,14.324,57.463,12.892z M81.82,45.277c-0.578,0.087-0.899,0.026-1.007-0.061     c-2.214-16.669-7.034-24.074-24.479-27.268c-0.837-0.114-1.984-0.272-2.255-0.641c-0.106-0.144-0.127-0.461-0.058-0.869     c0.106-0.633,0.222-0.959,1.143-0.959c15.022,0.533,28.3,13.36,27.3,27.84C82.527,45.169,82.349,45.197,81.82,45.277z"/><path d="M59.534,24.074c-1.253,0.031-3.862,0.097-4.766,2.725c-1.129,2.974,1.094,4.804,3.755,5.055     c5.121,0.822,7.751,3.653,8.278,8.909c0.197,2.307,1.942,4.236,4.252,3.936c3.659-0.436,3.525-4.146,3.481-5.291     C74.9,32.564,66.474,23.675,59.534,24.074z M70.72,41.891c-0.743,0.055-0.994-0.66-1.104-1.408     c-0.656-6.55-4.238-10.394-10.644-11.422c-1.746-0.367-1.824-0.348-1.529-1.339c0.188-0.543,0.53-0.777,2.162-0.818     c5.376-0.338,12.461,7.218,12.102,12.534C71.79,41.763,71.246,41.829,70.72,41.891z"/></g></g></g></svg>