<?xml version="1.0" ?><svg style="enable-background:new 0 0 100 100;" version="1.1" viewBox="0 0 100 100" xml:space="preserve" xmlns="http://www.w3.org/2000/svg" xmlns:xlink="http://www.w3.org/1999/xlink"><style type="text/css">
	.st0{fill:#FFFFFF;}
	.st1{fill:#D43C89;}
	.st2{fill:#B2005F;}
	.st3{fill:none;stroke:#000000;stroke-width:3;stroke-linecap:round;stroke-linejoin:round;stroke-miterlimit:10;}
	
		.st4{fill-rule:evenodd;clip-rule:evenodd;fill:none;stroke:#000000;stroke-width:3;stroke-linecap:round;stroke-linejoin:round;stroke-miterlimit:10;}
	
		.st5{fill-rule:evenodd;clip-rule:evenodd;fill:none;stroke:#040404;stroke-width:3;stroke-linecap:round;stroke-linejoin:round;stroke-miterlimit:10;}
	.st6{fill-rule:evenodd;clip-rule:evenodd;}
	.st7{fill-rule:evenodd;clip-rule:evenodd;fill:#040404;}
	.st8{fill:url(#SVGID_1_);}
	.st9{fill:url(#SVGID_2_);}
	.st10{fill:url(#SVGID_3_);}
	.st11{fill:url(#SVGID_4_);}
	.st12{fill:url(#SVGID_5_);}
	.st13{fill:url(#SVGID_6_);}
	.st14{fill:url(#SVGID_7_);}
	.st15{fill:url(#SVGID_8_);}
	.st16{fill:url(#SVGID_9_);}
	.st17{fill:url(#SVGID_10_);}
	.st18{fill:url(#SVGID_11_);}
	.st19{fill:url(#SVGID_12_);}
	.st20{fill:url(#SVGID_13_);}
	.st21{fill:url(#SVGID_14_);}
	.st22{fill:url(#SVGID_15_);}
	.st23{fill:url(#SVGID_16_);}
	.st24{fill:url(#SVGID_17_);}
	.st25{fill:url(#SVGID_18_);}
	.st26{fill:url(#SVGID_19_);}
	.st27{fill:url(#SVGID_20_);}
	.st28{fill:url(#SVGID_21_);}
	.st29{fill:url(#SVGID_22_);}
	.st30{fill:url(#SVGID_23_);}
	.st31{fill:url(#SVGID_24_);}
	.st32{fill:url(#SVGID_25_);}
	.st33{fill:url(#SVGID_26_);}
	.st34{fill:url(#SVGID_27_);}
	.st35{fill:url(#SVGID_28_);}
	.st36{fill:url(#SVGID_29_);}
	.st37{fill:url(#SVGID_30_);}
	.st38{fill:url(#SVGID_31_);}
	.st39{fill:url(#SVGID_32_);}
	.st40{fill:url(#SVGID_33_);}
	.st41{fill:url(#SVGID_34_);}
	.st42{fill:url(#SVGID_35_);}
	.st43{fill:url(#SVGID_36_);}
	.st44{fill:url(#SVGID_37_);}
	.st45{fill:url(#SVGID_38_);}
	.st46{fill:url(#SVGID_39_);}
	.st47{fill:url(#SVGID_40_);}
	.st48{fill:url(#SVGID_41_);}
	.st49{fill:url(#SVGID_42_);}
	.st50{fill:url(#SVGID_43_);}
	.st51{fill:url(#SVGID_44_);}
	.st52{fill:url(#SVGID_45_);}
	.st53{fill:#040404;}
	.st54{fill:url(#SVGID_46_);}
	.st55{fill:url(#SVGID_47_);}
	.st56{fill:url(#SVGID_48_);}
	.st57{fill:url(#SVGID_49_);}
	.st58{fill:url(#SVGID_50_);}
	.st59{fill:url(#SVGID_51_);}
	.st60{fill:url(#SVGID_52_);}
	.st61{fill:url(#SVGID_53_);}
	.st62{fill:url(#SVGID_54_);}
	.st63{fill:url(#SVGID_55_);}
	.st64{fill:url(#SVGID_56_);}
	.st65{fill:url(#SVGID_57_);}
	.st66{fill:url(#SVGID_58_);}
	.st67{fill:url(#SVGID_59_);}
	.st68{fill:url(#SVGID_60_);}
	.st69{fill:url(#SVGID_61_);}
	.st70{fill:url(#SVGID_62_);}
	.st71{fill:none;stroke:#000000;stroke-width:3;stroke-miterlimit:10;}
	.st72{fill:none;stroke:#FFFFFF;stroke-miterlimit:10;}
	.st73{fill:#4BC9FF;}
	.st74{fill:#5500DD;}
	.st75{fill:#FF3A00;}
	.st76{fill:#FFC794;}
	.st77{fill:#F1F1F1;}
	.st78{fill:#EB4E00;}
	.st79{fill:#E6162D;}
	.st80{fill:#FF9933;}
	.st81{fill:#B92B27;}
	.st82{fill:#00ACED;}
	.st83{fill:#BD2125;}
	.st84{fill:#1877F2;}
	.st85{fill:#6665D2;}
	.st86{fill:#CE3056;}
	.st87{fill:#5BB381;}
	.st88{fill:#61C3EC;}
	.st89{fill:#E4B34B;}
	.st90{fill:#181EF2;}
	.st91{fill:#FF0000;}
	.st92{fill:#FE466C;}
	.st93{fill:#FA4778;}
	.st94{fill:#FF7700;}
	.st95{fill:#D95040;}
	.st96{fill:#58A55C;}
	.st97{fill:#4E86EC;}
	.st98{fill:#B6332A;}
	.st99{fill:#F3BD42;}
	.st100{fill-rule:evenodd;clip-rule:evenodd;fill:#1F6BF6;}
	.st101{fill:#520094;}
	.st102{fill:#4477E8;}
	.st103{fill:#3D1D1C;}
	.st104{fill:#FFE812;}
	.st105{fill:#344356;}
	.st106{fill:#00CC76;}
	.st107{fill-rule:evenodd;clip-rule:evenodd;fill:#345E90;}
	.st108{fill:#1F65D8;}
	.st109{fill:#EB3587;}
	.st110{fill-rule:evenodd;clip-rule:evenodd;fill:#603A88;}
	.st111{fill:#E3CE99;}
	.st112{fill:#783AF9;}
	.st113{fill:#FF515E;}
	.st114{fill:#FF4906;}
	.st115{fill:#503227;}
	.st116{fill:#4C7BD9;}
	.st117{fill:#69C9D0;}
	.st118{fill:#1B92D1;}
	.st119{fill:#EB4F4A;}
	.st120{fill:#513728;}
	.st121{fill:#FF6600;}
	.st122{fill-rule:evenodd;clip-rule:evenodd;fill:#B61438;}
	.st123{fill:#FFFC00;}
	.st124{fill:#141414;}
	.st125{fill:#94D137;}
	.st126{fill-rule:evenodd;clip-rule:evenodd;fill:#F1F1F1;}
	.st127{fill-rule:evenodd;clip-rule:evenodd;fill:#66E066;}
	.st128{fill:#464EB8;}
	.st129{fill:#7B83EB;}
	.st130{fill:#2D8CFF;}
	.st131{fill:#F1A300;}
	.st132{fill:#4BA2F2;}
	.st133{fill:#1A5099;}
	.st134{fill:#EE6060;}
	.st135{fill-rule:evenodd;clip-rule:evenodd;fill:#F48120;}
	.st136{fill:#222222;}
	.st137{fill:url(#SVGID_63_);}
	.st138{fill:#0077B5;}
	.st139{fill:#FFCC00;}
	.st140{fill:#EB3352;}
	.st141{fill:#F9D265;}
	.st142{fill:#F5B955;}
	.st143{fill:#DC322F;}
	.st144{fill:#4DA94C;}
	.st145{fill:#39802F;}
	.st146{fill:#F6BD41;}
	.st147{fill:#EB5141;}
	.st148{fill:#2165D6;}
	.st149{fill:#2F83F7;}
	.st150{fill:#DD2A7B;}
</style><g id="Layer_1"/><g id="Layer_2"><g><g><g><path class="st125" d="M94.861,52.927c-9.972-22.342-48.887-20.406-54.745,4.042c-3.238,13.797,8.967,25.973,21.941,27.989      c5.602,1.138,11.399,0.462,16.843-1.106c3.269,1.266,6.181,3.316,9.349,4.838c-0.819-2.745-1.693-5.459-2.625-8.161      C94.711,74.57,99.518,63.205,94.861,52.927z M63.059,54.957c-0.811,2.531-4.488,3.292-6.27,1.367      c-1.965-1.782-1.2-5.505,1.378-6.301C61.017,48.819,64.309,52.108,63.059,54.957z M81.674,55.318      c-0.996,2.272-4.429,2.802-6.117,1.044c-1.433-1.371-1.433-3.789-0.165-5.273C78.349,47.692,83.392,51.528,81.674,55.318z"/></g><g><path class="st125" d="M7.286,26.949c-8.017,12.807-2.706,28.4,9.563,36.224c-1.165,3.3-2.271,6.597-3.32,9.92      c3.786-1.98,7.571-4.05,11.36-6.061c4.543,1.456,9.376,2.17,14.21,2.011c-1.281-3.661-1.573-7.629-0.99-11.458      c2.552-14.923,18.794-23.355,32.963-22.072C64.685,7.255,21.92,3.162,7.286,26.949z M30.371,31.204      c-0.668,3.242-5.012,4.807-7.556,2.632c-2.947-2.077-2.12-7.226,1.34-8.274C27.545,24.258,31.396,27.698,30.371,31.204z       M53.896,30.256c0.031,3.731-4.95,6.061-7.746,3.529c-2.9-2.077-2.077-7.132,1.328-8.177      C50.558,24.378,54.139,26.973,53.896,30.256z"/></g></g><g><path d="M95.619,52.257c-3.757-8.888-13.815-15.097-23.553-16.099C67.982,8.777,27.302,2.019,10.017,21.726     c-1.212,1.364,0.794,3.196,2.039,1.88c15.429-17.376,50.246-12.621,56.96,10.503c-18.504-0.888-36.727,14.432-31.723,33.291     c-3.961-0.054-7.915-0.705-11.778-1.943c-0.356-0.113-0.743-0.079-1.074,0.096c-2.745,1.457-5.488,2.945-8.231,4.406     c0.702-2.137,1.439-4.3,2.23-6.54c0.211-0.599-0.011-1.265-0.541-1.617C6.073,54.158,1.432,39.837,8.848,27.832     c0.946-1.543-1.386-3.003-2.36-1.457c-7.986,12.895-3.463,28.56,8.985,37.126c-1.062,3.038-2.029,5.946-2.948,8.86     c-0.389,1.128,0.912,2.24,1.966,1.646c3.582-1.874,7.164-3.828,10.741-5.731c4.58,1.401,9.282,2.036,13.972,1.88     c0.326-0.011,0.633-0.135,0.872-0.346c2.057,4.745,5.41,8.56,9.922,11.502c1.545,0.96,3.025-1.303,1.51-2.328     c-7.358-4.578-12.028-13.521-9.985-21.88c3.613-16.538,26.146-22.845,40.321-15.159C92.4,47.024,98.13,59.461,92.585,70     c-1.592,3.254-4.344,6.283-8.18,9.005c-0.502,0.357-0.709,1.001-0.508,1.583c0.553,1.604,1.087,3.221,1.597,4.832     c-2.082-1.171-4.145-2.397-6.442-3.286c-0.283-0.109-0.593-0.124-0.884-0.04c-8.599,2.436-15.694,2.132-23.154-1.179     c-1.671-0.74-2.8,1.734-1.161,2.519c7.931,3.526,15.539,3.939,24.622,1.456c3.188,1.196,6.057,3.62,9.331,4.713     c0.886,0.021,1.618-0.924,1.329-1.784c-0.708-2.371-1.474-4.776-2.284-7.164C96.202,73.995,100.154,62.649,95.619,52.257z"/><path d="M59.266,58.636c4.524,0.13,7.053-5.517,3.707-8.716c-1.491-1.513-3.613-2.011-5.418-1.282     C52.28,50.483,53.544,58.676,59.266,58.636z M57.023,52.963c0.749-3.305,5.549-1.74,4.579,1.307     C60.659,57.01,56.314,55.968,57.023,52.963z"/><path d="M77.827,58.642c7.372-0.168,6.48-10.666-0.457-10.283C71.11,48.965,71.344,58.616,77.827,58.642z M76.139,51.894     c1.033-1.22,2.758-1.001,3.653,0.331c0.196,0.286,0.792,1.298,0.241,2.28c-0.385,1.453-2.863,1.791-3.79,0.752     C75.323,54.413,75.337,52.835,76.139,51.894z"/><path d="M22.188,35.016c6.069,4.613,13.573-3.91,7.871-9.264C23.482,20.103,15.871,29.747,22.188,35.016z M22.694,29.666     c0.768-4.595,7.383-3.043,6.493,1.261C28.13,35.059,21.989,33.925,22.694,29.666z"/><path d="M45.265,34.951c1.722,1.524,4.187,1.735,6.274,0.784c4.32-1.818,4.946-7.772,1.167-10.435     C46.083,20.705,39.271,29.925,45.265,34.951z M45.822,29.66c0.617-4.163,6.891-3.395,6.594,0.808     c-0.028,1.362-1.05,2.305-2.012,2.736C48.064,34.394,45.289,32.206,45.822,29.66z"/></g></g></g></svg>