<?xml version="1.0" ?><svg style="enable-background:new 0 0 100 100;" version="1.1" viewBox="0 0 100 100" xml:space="preserve" xmlns="http://www.w3.org/2000/svg" xmlns:xlink="http://www.w3.org/1999/xlink"><style type="text/css">
	.st0{fill:#FFFFFF;}
	.st1{fill:#D43C89;}
	.st2{fill:#B2005F;}
	.st3{fill:none;stroke:#000000;stroke-width:3;stroke-linecap:round;stroke-linejoin:round;stroke-miterlimit:10;}
	
		.st4{fill-rule:evenodd;clip-rule:evenodd;fill:none;stroke:#000000;stroke-width:3;stroke-linecap:round;stroke-linejoin:round;stroke-miterlimit:10;}
	
		.st5{fill-rule:evenodd;clip-rule:evenodd;fill:none;stroke:#040404;stroke-width:3;stroke-linecap:round;stroke-linejoin:round;stroke-miterlimit:10;}
	.st6{fill-rule:evenodd;clip-rule:evenodd;}
	.st7{fill-rule:evenodd;clip-rule:evenodd;fill:#040404;}
	.st8{fill:url(#SVGID_1_);}
	.st9{fill:url(#SVGID_2_);}
	.st10{fill:url(#SVGID_3_);}
	.st11{fill:url(#SVGID_4_);}
	.st12{fill:url(#SVGID_5_);}
	.st13{fill:url(#SVGID_6_);}
	.st14{fill:url(#SVGID_7_);}
	.st15{fill:url(#SVGID_8_);}
	.st16{fill:url(#SVGID_9_);}
	.st17{fill:url(#SVGID_10_);}
	.st18{fill:url(#SVGID_11_);}
	.st19{fill:url(#SVGID_12_);}
	.st20{fill:url(#SVGID_13_);}
	.st21{fill:url(#SVGID_14_);}
	.st22{fill:url(#SVGID_15_);}
	.st23{fill:url(#SVGID_16_);}
	.st24{fill:url(#SVGID_17_);}
	.st25{fill:url(#SVGID_18_);}
	.st26{fill:url(#SVGID_19_);}
	.st27{fill:url(#SVGID_20_);}
	.st28{fill:url(#SVGID_21_);}
	.st29{fill:url(#SVGID_22_);}
	.st30{fill:url(#SVGID_23_);}
	.st31{fill:url(#SVGID_24_);}
	.st32{fill:url(#SVGID_25_);}
	.st33{fill:url(#SVGID_26_);}
	.st34{fill:url(#SVGID_27_);}
	.st35{fill:url(#SVGID_28_);}
	.st36{fill:url(#SVGID_29_);}
	.st37{fill:url(#SVGID_30_);}
	.st38{fill:url(#SVGID_31_);}
	.st39{fill:url(#SVGID_32_);}
	.st40{fill:url(#SVGID_33_);}
	.st41{fill:url(#SVGID_34_);}
	.st42{fill:url(#SVGID_35_);}
	.st43{fill:url(#SVGID_36_);}
	.st44{fill:url(#SVGID_37_);}
	.st45{fill:url(#SVGID_38_);}
	.st46{fill:url(#SVGID_39_);}
	.st47{fill:url(#SVGID_40_);}
	.st48{fill:url(#SVGID_41_);}
	.st49{fill:url(#SVGID_42_);}
	.st50{fill:url(#SVGID_43_);}
	.st51{fill:url(#SVGID_44_);}
	.st52{fill:url(#SVGID_45_);}
	.st53{fill:#040404;}
	.st54{fill:url(#SVGID_46_);}
	.st55{fill:url(#SVGID_47_);}
	.st56{fill:url(#SVGID_48_);}
	.st57{fill:url(#SVGID_49_);}
	.st58{fill:url(#SVGID_50_);}
	.st59{fill:url(#SVGID_51_);}
	.st60{fill:url(#SVGID_52_);}
	.st61{fill:url(#SVGID_53_);}
	.st62{fill:url(#SVGID_54_);}
	.st63{fill:url(#SVGID_55_);}
	.st64{fill:url(#SVGID_56_);}
	.st65{fill:url(#SVGID_57_);}
	.st66{fill:url(#SVGID_58_);}
	.st67{fill:url(#SVGID_59_);}
	.st68{fill:url(#SVGID_60_);}
	.st69{fill:url(#SVGID_61_);}
	.st70{fill:url(#SVGID_62_);}
	.st71{fill:none;stroke:#000000;stroke-width:3;stroke-miterlimit:10;}
	.st72{fill:none;stroke:#FFFFFF;stroke-miterlimit:10;}
	.st73{fill:#4BC9FF;}
	.st74{fill:#5500DD;}
	.st75{fill:#FF3A00;}
	.st76{fill:#FFC794;}
	.st77{fill:#F1F1F1;}
	.st78{fill:#EB4E00;}
	.st79{fill:#E6162D;}
	.st80{fill:#FF9933;}
	.st81{fill:#B92B27;}
	.st82{fill:#00ACED;}
	.st83{fill:#BD2125;}
	.st84{fill:#1877F2;}
	.st85{fill:#6665D2;}
	.st86{fill:#CE3056;}
	.st87{fill:#5BB381;}
	.st88{fill:#61C3EC;}
	.st89{fill:#E4B34B;}
	.st90{fill:#181EF2;}
	.st91{fill:#FF0000;}
	.st92{fill:#FE466C;}
	.st93{fill:#FA4778;}
	.st94{fill:#FF7700;}
	.st95{fill:#D95040;}
	.st96{fill:#58A55C;}
	.st97{fill:#4E86EC;}
	.st98{fill:#B6332A;}
	.st99{fill:#F3BD42;}
	.st100{fill-rule:evenodd;clip-rule:evenodd;fill:#1F6BF6;}
	.st101{fill:#520094;}
	.st102{fill:#4477E8;}
	.st103{fill:#3D1D1C;}
	.st104{fill:#FFE812;}
	.st105{fill:#344356;}
	.st106{fill:#00CC76;}
	.st107{fill-rule:evenodd;clip-rule:evenodd;fill:#345E90;}
	.st108{fill:#1F65D8;}
	.st109{fill:#EB3587;}
	.st110{fill-rule:evenodd;clip-rule:evenodd;fill:#603A88;}
	.st111{fill:#E3CE99;}
	.st112{fill:#783AF9;}
	.st113{fill:#FF515E;}
	.st114{fill:#FF4906;}
	.st115{fill:#503227;}
	.st116{fill:#4C7BD9;}
	.st117{fill:#69C9D0;}
	.st118{fill:#1B92D1;}
	.st119{fill:#EB4F4A;}
	.st120{fill:#513728;}
	.st121{fill:#FF6600;}
	.st122{fill-rule:evenodd;clip-rule:evenodd;fill:#B61438;}
	.st123{fill:#FFFC00;}
	.st124{fill:#141414;}
	.st125{fill:#94D137;}
	.st126{fill-rule:evenodd;clip-rule:evenodd;fill:#F1F1F1;}
	.st127{fill-rule:evenodd;clip-rule:evenodd;fill:#66E066;}
	.st128{fill:#464EB8;}
	.st129{fill:#7B83EB;}
	.st130{fill:#2D8CFF;}
	.st131{fill:#F1A300;}
	.st132{fill:#4BA2F2;}
	.st133{fill:#1A5099;}
	.st134{fill:#EE6060;}
	.st135{fill-rule:evenodd;clip-rule:evenodd;fill:#F48120;}
	.st136{fill:#222222;}
	.st137{fill:url(#SVGID_63_);}
	.st138{fill:#0077B5;}
	.st139{fill:#FFCC00;}
	.st140{fill:#EB3352;}
	.st141{fill:#F9D265;}
	.st142{fill:#F5B955;}
	.st143{fill:#DC322F;}
	.st144{fill:#4DA94C;}
	.st145{fill:#39802F;}
	.st146{fill:#F6BD41;}
	.st147{fill:#EB5141;}
	.st148{fill:#2165D6;}
	.st149{fill:#2F83F7;}
	.st150{fill:#DD2A7B;}
</style><g id="Layer_1"/><g id="Layer_2"><g><g><path class="st126" d="M82.773,17.048c-38.434-37.321-98.728,8.848-72.606,55.645c-0.001,0-6.545,23.896-6.545,23.896     l24.455-6.412C74.864,114.914,119.655,54.965,82.773,17.048z"/><path class="st127" d="M50.143,88.745c-7.593,0.027-14.974-2.253-21.34-6.295c0,0-14.796,3.879-14.796,3.879l3.95-14.421     c-4.438-6.577-6.941-14.291-6.907-22.275C10.98,15.084,53.475-2.531,77.796,22.018C102.312,46.358,84.702,88.821,50.143,88.745z"/><path class="st126" d="M71.585,59.476c-1.175-0.588-6.953-3.431-8.03-3.823c-1.077-0.392-1.861-0.588-2.644,0.589     c-0.784,1.176-3.034,3.822-3.72,4.605c-0.685,0.785-1.371,0.883-2.546,0.295c-2.539,0.339-15.564-10.676-15.988-13.97     c-0.685-1.175-0.073-1.812,0.516-2.398c1.023-1.123,2.318-2.535,2.937-4.018c0.392-0.785,0.196-1.471-0.098-2.059     c-0.294-0.588-2.578-6.4-3.623-8.723c-0.88-1.957-1.807-1.996-2.644-2.031c-1.983,0.031-3.518-0.484-5.386,1.443     c-7.004,6.741-3.792,16.214,0.685,21.955c0.587,0.784,8.13,13.028,20.075,17.738c9.927,3.915,11.947,3.136,14.102,2.94     c2.155-0.196,6.953-2.842,7.932-5.586c0.979-2.744,0.979-5.096,0.686-5.587C73.544,60.358,72.76,60.064,71.585,59.476z"/></g><g><path d="M77.964,21.851c-13.416-13.904-36.807-15.395-51.875-3.3c-1.425,1.134,0.26,3.277,1.694,2.186     c23.859-18.569,59.01-1.301,58.925,28.933C86.7,69.828,70.296,86.227,50.126,86.227c-7.121,0.024-14.034-2.125-19.999-5.918     c-0.318-0.188-0.7-0.24-1.055-0.147L17.025,83.32l3.202-11.689c0.102-0.375,0.043-0.774-0.163-1.102     c-9.668-13.7-8.366-33.598,3.3-45.752c1.215-1.325-0.762-3.206-2.026-1.883c-6.788,7.3-10.529,16.798-10.533,26.745     c-0.017,7.8,2.314,15.374,6.594,21.847c0,0-3.674,13.413-3.674,13.413c-0.3,0.981,0.692,2.001,1.684,1.703     c0,0,13.806-3.62,13.806-3.62C69.034,107.092,110.293,55.326,77.964,21.851z"/><path d="M83.418,16.402C44.483-21.442-16.819,24.896,9.089,72.643c-0.001,0-6.327,23.101-6.327,23.101     c-0.3,0.982,0.696,2,1.684,1.703c0,0,23.68-6.21,23.68-6.21C75.648,115.892,120.907,54.643,83.418,16.402z M50.121,93.937     c-7.382-0.003-14.699-1.866-21.158-5.389c-0.31-0.168-0.672-0.211-1.013-0.123l-21.889,5.74l5.845-21.343     c0.098-0.356,0.049-0.737-0.136-1.057C-5.299,42.77,16.451,5.082,50.14,5.376c23.813-0.48,44.778,20.485,44.277,44.298     C94.407,74.08,74.545,93.937,50.121,93.937z"/><path d="M43.577,41.64c0.761-1.524,0.117-2.812-0.094-3.234c-0.792-1.843-2.71-6.71-3.496-8.423     c-1.112-2.469-2.529-2.73-3.767-2.781c-2.361,0.015-4.073-0.533-6.518,2.075c-1.24,1.323-4.145,4.42-4.145,10.222     c0.061,5.74,3.481,10.629,5.14,12.929c5.652,8.378,12.714,14.55,19.883,17.378c6.625,2.612,9.798,3.144,11.849,3.143     c0.987-0.002,1.634-0.114,2.474-0.198c1.301-0.118,3.18-0.884,4.904-1.999c0.642-0.415,0.825-1.271,0.411-1.912     c-0.416-0.643-1.272-0.823-1.912-0.411c-1.976,1.209-2.962,1.537-4.295,1.638c-1.793,0.212-4.028,0.474-12.416-2.833     c-6.753-2.625-13.608-8.791-18.901-16.779c-3.971-5.15-6.912-13.446-0.974-19.285c1.515-1.74,2.758-1.136,4.385-1.204     c0.607,0.025,0.859,0.036,1.363,1.157c0.693,1.501,2.896,7.071,3.542,8.52c0.308,0.622,0.11,0.678-0.068,1.092     c-0.55,1.199-1.614,2.276-2.426,3.207c-0.529,0.526-1.935,1.923-0.721,4.005c0.852,1.461,3.204,5.19,6.621,8.235     c3.812,3.399,7.174,4.858,8.789,5.559c1.248,0.46,2.761,1.801,4.819-0.304c0.573-0.655,2.882-3.355,3.721-4.616     c0.25-0.41,0.31-0.23,0.945-0.038c1.477,0.586,7.062,3.353,9.218,4.421c0.068,0.54,0.013,2.193-0.732,4.281     c-0.591,1.702,1.962,2.642,2.605,0.929c0.957-2.682,1.194-5.519,0.548-6.601c-0.506-0.889-1.721-1.333-2.755-1.856     c-0.066-0.033-6.663-3.309-7.941-3.773c-0.901-0.329-2.781-1.015-4.19,1.104c-0.695,1.042-2.81,3.537-3.503,4.329     c-0.266,0.289-0.197,0.215-0.811-0.041c-2.424-1.122-4.818-1.92-8.874-5.459c-3.121-2.783-5.287-6.217-6.073-7.565     c-0.076-0.132-0.098-0.207-0.107-0.212c0.5-0.597,1.089-1.156,1.614-1.844C42.505,43.602,43.155,42.617,43.577,41.64z"/></g></g></g></svg>