<?xml version="1.0" ?><svg style="enable-background:new 0 0 100 100;" version="1.1" viewBox="0 0 100 100" xml:space="preserve" xmlns="http://www.w3.org/2000/svg" xmlns:xlink="http://www.w3.org/1999/xlink"><style type="text/css">
	.st0{fill:#FFFFFF;}
	.st1{fill:#D43C89;}
	.st2{fill:#B2005F;}
	.st3{fill:none;stroke:#000000;stroke-width:3;stroke-linecap:round;stroke-linejoin:round;stroke-miterlimit:10;}
	
		.st4{fill-rule:evenodd;clip-rule:evenodd;fill:none;stroke:#000000;stroke-width:3;stroke-linecap:round;stroke-linejoin:round;stroke-miterlimit:10;}
	
		.st5{fill-rule:evenodd;clip-rule:evenodd;fill:none;stroke:#040404;stroke-width:3;stroke-linecap:round;stroke-linejoin:round;stroke-miterlimit:10;}
	.st6{fill-rule:evenodd;clip-rule:evenodd;}
	.st7{fill-rule:evenodd;clip-rule:evenodd;fill:#040404;}
	.st8{fill:url(#SVGID_1_);}
	.st9{fill:url(#SVGID_2_);}
	.st10{fill:url(#SVGID_3_);}
	.st11{fill:url(#SVGID_4_);}
	.st12{fill:url(#SVGID_5_);}
	.st13{fill:url(#SVGID_6_);}
	.st14{fill:url(#SVGID_7_);}
	.st15{fill:url(#SVGID_8_);}
	.st16{fill:url(#SVGID_9_);}
	.st17{fill:url(#SVGID_10_);}
	.st18{fill:url(#SVGID_11_);}
	.st19{fill:url(#SVGID_12_);}
	.st20{fill:url(#SVGID_13_);}
	.st21{fill:url(#SVGID_14_);}
	.st22{fill:url(#SVGID_15_);}
	.st23{fill:url(#SVGID_16_);}
	.st24{fill:url(#SVGID_17_);}
	.st25{fill:url(#SVGID_18_);}
	.st26{fill:url(#SVGID_19_);}
	.st27{fill:url(#SVGID_20_);}
	.st28{fill:url(#SVGID_21_);}
	.st29{fill:url(#SVGID_22_);}
	.st30{fill:url(#SVGID_23_);}
	.st31{fill:url(#SVGID_24_);}
	.st32{fill:url(#SVGID_25_);}
	.st33{fill:url(#SVGID_26_);}
	.st34{fill:url(#SVGID_27_);}
	.st35{fill:url(#SVGID_28_);}
	.st36{fill:url(#SVGID_29_);}
	.st37{fill:url(#SVGID_30_);}
	.st38{fill:url(#SVGID_31_);}
	.st39{fill:url(#SVGID_32_);}
	.st40{fill:url(#SVGID_33_);}
	.st41{fill:url(#SVGID_34_);}
	.st42{fill:url(#SVGID_35_);}
	.st43{fill:url(#SVGID_36_);}
	.st44{fill:url(#SVGID_37_);}
	.st45{fill:url(#SVGID_38_);}
	.st46{fill:url(#SVGID_39_);}
	.st47{fill:url(#SVGID_40_);}
	.st48{fill:url(#SVGID_41_);}
	.st49{fill:url(#SVGID_42_);}
	.st50{fill:url(#SVGID_43_);}
	.st51{fill:url(#SVGID_44_);}
	.st52{fill:url(#SVGID_45_);}
	.st53{fill:#040404;}
	.st54{fill:url(#SVGID_46_);}
	.st55{fill:url(#SVGID_47_);}
	.st56{fill:url(#SVGID_48_);}
	.st57{fill:url(#SVGID_49_);}
	.st58{fill:url(#SVGID_50_);}
	.st59{fill:url(#SVGID_51_);}
	.st60{fill:url(#SVGID_52_);}
	.st61{fill:url(#SVGID_53_);}
	.st62{fill:url(#SVGID_54_);}
	.st63{fill:url(#SVGID_55_);}
	.st64{fill:url(#SVGID_56_);}
	.st65{fill:url(#SVGID_57_);}
	.st66{fill:url(#SVGID_58_);}
	.st67{fill:url(#SVGID_59_);}
	.st68{fill:url(#SVGID_60_);}
	.st69{fill:url(#SVGID_61_);}
	.st70{fill:url(#SVGID_62_);}
	.st71{fill:none;stroke:#000000;stroke-width:3;stroke-miterlimit:10;}
	.st72{fill:none;stroke:#FFFFFF;stroke-miterlimit:10;}
	.st73{fill:#4BC9FF;}
	.st74{fill:#5500DD;}
	.st75{fill:#FF3A00;}
	.st76{fill:#FFC794;}
	.st77{fill:#F1F1F1;}
	.st78{fill:#EB4E00;}
	.st79{fill:#E6162D;}
	.st80{fill:#FF9933;}
	.st81{fill:#B92B27;}
	.st82{fill:#00ACED;}
	.st83{fill:#BD2125;}
	.st84{fill:#1877F2;}
	.st85{fill:#6665D2;}
	.st86{fill:#CE3056;}
	.st87{fill:#5BB381;}
	.st88{fill:#61C3EC;}
	.st89{fill:#E4B34B;}
	.st90{fill:#181EF2;}
	.st91{fill:#FF0000;}
	.st92{fill:#FE466C;}
	.st93{fill:#FA4778;}
	.st94{fill:#FF7700;}
	.st95{fill:#D95040;}
	.st96{fill:#58A55C;}
	.st97{fill:#4E86EC;}
	.st98{fill:#B6332A;}
	.st99{fill:#F3BD42;}
	.st100{fill-rule:evenodd;clip-rule:evenodd;fill:#1F6BF6;}
	.st101{fill:#520094;}
	.st102{fill:#4477E8;}
	.st103{fill:#3D1D1C;}
	.st104{fill:#FFE812;}
	.st105{fill:#344356;}
	.st106{fill:#00CC76;}
	.st107{fill-rule:evenodd;clip-rule:evenodd;fill:#345E90;}
	.st108{fill:#1F65D8;}
	.st109{fill:#EB3587;}
	.st110{fill-rule:evenodd;clip-rule:evenodd;fill:#603A88;}
	.st111{fill:#E3CE99;}
	.st112{fill:#783AF9;}
	.st113{fill:#FF515E;}
	.st114{fill:#FF4906;}
	.st115{fill:#503227;}
	.st116{fill:#4C7BD9;}
	.st117{fill:#69C9D0;}
	.st118{fill:#1B92D1;}
	.st119{fill:#EB4F4A;}
	.st120{fill:#513728;}
	.st121{fill:#FF6600;}
	.st122{fill-rule:evenodd;clip-rule:evenodd;fill:#B61438;}
	.st123{fill:#FFFC00;}
	.st124{fill:#141414;}
	.st125{fill:#94D137;}
	.st126{fill-rule:evenodd;clip-rule:evenodd;fill:#F1F1F1;}
	.st127{fill-rule:evenodd;clip-rule:evenodd;fill:#66E066;}
	.st128{fill:#464EB8;}
	.st129{fill:#7B83EB;}
	.st130{fill:#2D8CFF;}
	.st131{fill:#F1A300;}
	.st132{fill:#4BA2F2;}
	.st133{fill:#1A5099;}
	.st134{fill:#EE6060;}
	.st135{fill-rule:evenodd;clip-rule:evenodd;fill:#F48120;}
	.st136{fill:#222222;}
	.st137{fill:url(#SVGID_63_);}
	.st138{fill:#0077B5;}
	.st139{fill:#FFCC00;}
	.st140{fill:#EB3352;}
	.st141{fill:#F9D265;}
	.st142{fill:#F5B955;}
	.st143{fill:#DC322F;}
	.st144{fill:#4DA94C;}
	.st145{fill:#39802F;}
	.st146{fill:#F6BD41;}
	.st147{fill:#EB5141;}
	.st148{fill:#2165D6;}
	.st149{fill:#2F83F7;}
	.st150{fill:#DD2A7B;}
</style><g id="Layer_1"/><g id="Layer_2"><g><g><path class="st130" d="M50,2.5C23.766,2.5,2.5,23.823,2.5,50.126c2.502,63.175,92.507,63.157,95,0C97.5,23.823,76.233,2.5,50,2.5     z"/><path class="st77" d="M78.285,63.557c-0.051,2.506-2.059,3.352-4.005,1.965c-3.629-2.54-7.233-5.115-10.851-7.669     c0.009,1.182-0.007,3.966-0.001,5.177c-0.001,2.246-1.117,3.339-3.41,3.34l-19.536,0.002c-3.31,0.001-6.619,0.002-9.929-0.002     c-6.257-0.007-10.462-4.106-10.464-10.201l0-19.205c0-2.278,1.081-3.34,3.4-3.34c7.951,0.151,21.843,0.017,29.638,0.003     c5.525,0.006,9.522,3.442,10.19,8.52c3.656-2.58,7.297-5.181,10.963-7.748c1.691-1.227,3.917-0.833,4.005,1.966     C78.309,45.151,78.338,54.754,78.285,63.557z"/></g><g><path d="M79.308,61.947c-0.004-0.175,0.005-2.736-0.001-2.998c-0.04-1.827-2.732-1.814-2.767,0     c0.004,2.155,0.006,2.594-0.02,5.256c-4.237-2.957-8.299-6.222-12.603-9.054c0.001-3.377,0.002-6.755-0.002-10.133     c4.306-2.829,8.367-6.097,12.605-9.053c0.038,3.909,0.015,12.782,0.022,16.707c0.022,1.814,2.741,1.82,2.767,0     c-0.001-2.235-0.002-12.414-0.002-14.45c-0.003-0.255-0.01-0.83-0.023-2.586c-0.088-2.851-2.277-3.462-4.143-2.087     c-3.793,2.727-7.558,5.492-11.34,8.234c-0.691-5.396-4.826-9.048-10.54-9.055c0,0-5.457-0.002-5.458-0.002     c-1.814,0.036-1.824,2.73,0,2.767c0,0,5.456,0.002,5.456,0.002c4.713,0.006,7.883,3.177,7.889,7.892     c-0.038,7.037,0.094,14.274-0.049,21.288c-0.048,0.02-0.231,0.08-0.711,0.08L40.11,64.757c-3.398,0-6.797,0.002-10.196-0.002     c-4.97-0.005-8.058-3.098-8.059-8.073c0.037-7.004-0.08-14.136,0.044-21.114c0.055-0.021,0.241-0.075,0.697-0.075l17.334,0.107     c1.826-0.017,1.827-2.73,0.017-2.767c0,0-17.343-0.107-17.343-0.107c-2.399,0-3.516,1.128-3.517,3.549     c-0.001,6.803-0.002,13.606,0,20.408c0.001,6.478,4.351,10.834,10.823,10.84c1.854,0.002,3.708,0.003,5.562,0.003     c2.958-0.018,21.559,0.01,24.916-0.003c4.293,0.059,3.46-3.779,3.528-6.799c0-0.75-0.001-1.501,0-2.251     c1.297,0.942,2.594,1.884,3.889,2.828c2.441,1.779,4.883,3.559,7.336,5.322c0.127,0.092,1.03,0.715,1.991,0.715     c0.293,0,0.591-0.059,0.874-0.206C79.789,66.289,79.196,62.584,79.308,61.947z"/><path d="M50,2.5C23.809,2.5,2.5,23.864,2.5,50.123c2.609,63.179,92.401,63.16,95,0C97.5,23.864,76.192,2.5,50,2.5z M50,94.972     c-24.666,0-44.733-20.119-44.733-44.849c2.457-59.498,87.018-59.481,89.466,0C94.733,74.853,74.666,94.972,50,94.972z"/></g></g></g></svg>