<?xml version="1.0" ?><!DOCTYPE svg  PUBLIC '-//W3C//DTD SVG 1.1//EN'  'http://www.w3.org/Graphics/SVG/1.1/DTD/svg11.dtd'><svg enable-background="new 0 0 158.52 155.031" height="155.031px" id="icons" version="1.1" viewBox="0 0 158.52 155.031" width="158.52px" xml:space="preserve" xmlns="http://www.w3.org/2000/svg" xmlns:xlink="http://www.w3.org/1999/xlink"><path d="M85.637,148.252c7.368-0.186,14.734-0.365,22.084-0.947c16.802-1.327,27.935-5.216,34.351-15.455  c8.456-13.496,5.765-28.185,6.771-43.132c0.87-12.975,0.256-33.895-2.171-50.552c-2.682-18.411-16.717-23.199-37.665-26.177  C95.25,10.034,75.723,7.356,62.903,8.022c-12.373,0.642-24.387,1.771-34.32,9.896c-9.311,7.614-12.172,18.896-13.079,30.379  c-1.035,13.099-0.288,26.813-0.288,43.293c0,11.884-0.907,25.144,3.414,36.372c4.786,12.428,14.321,16.06,27.094,18.978  C54.922,149.035,76.301,148.483,85.637,148.252z" fill="#6EBB20"/><path d="M152.761,45.261c-0.249-7.14,0.897-15.155-1.812-21.956c-2.806-7.044-8.893-12.879-15.842-15.797  c-6.385-2.682-13.306-1.985-20.068-2.115c-8.84-0.169-17.628,0.134-26.463,0.331c-4.222,0.094-8.461,0.344-12.682,0.22  c-4.403-0.13-8.79-0.725-13.198-0.744c-6.721-0.03-13.455,0.06-20.175,0.173c-4.773,0.08-10.184-0.103-14.876,0.989  c-7.288,1.696-13.716,6.711-17.336,13.235c-4.173,7.52-3.278,16.345-3.346,24.646c-0.069,8.58-0.083,17.162-0.23,25.741  C6.432,87.556,5.579,105.229,6.206,122.8c0.224,6.27,0.799,12.801,4.275,18.225c4.449,6.943,12.856,9.352,20.701,9.075  c15.857-0.558,31.755-0.247,47.618-0.178c11.344,0.05,22.776-0.311,34.1,0.229c6.086,0.29,12.886,0.851,18.864-0.75  c6.791-1.819,12.654-6.651,16.052-12.764c2.951-5.31,3.004-10.542,2.999-16.417c-0.007-8.365,0.084-16.655,0.641-25  C152.56,78.671,153.338,61.838,152.761,45.261z M147.934,77.82c-0.19,8.599-0.807,17.169-1.193,25.754  c-0.343,7.634-0.085,15.355-0.807,22.966c-0.558,5.891-4.205,11.006-8.851,14.499c-5.023,3.776-10.391,4.077-16.364,4.257  c-12.186,0.366-24.468-0.2-36.625-1.082c-7.73-0.561-15.461-1.408-23.216-0.741c-8.268,0.711-16.446,1.384-24.754,1.508  c-8.033,0.12-14.732-2.821-20.094-8.793c-4.47-4.978-3.919-11.19-4.121-17.407c-0.578-17.771-0.837-35.483,0.163-53.24  c0.493-8.752,0.345-17.52,0.439-26.282c0.043-4.007-0.32-8.399,0.69-12.313c1.856-7.193,7.894-13.287,15.09-15.148  c4.442-1.149,9.627-0.945,14.168-1.057c10.41-0.256,20.829-0.518,31.24-0.354c6.837,0.108,13.688-0.266,20.521-0.47  c3.995-0.12,8.038-0.356,12.035-0.162c4.335,0.21,8.585,0.997,12.919,1.193c4.334,0.197,8.645,0.068,12.747,1.683  c6.821,2.687,13.133,9.32,14.3,16.734c1.13,7.182,1.41,14.514,1.522,21.771C147.878,60.028,148.13,68.925,147.934,77.82z"/><g><path d="M118.318,44.689c-0.818-4.379-3.422-6.537-5.775-7.385c-2.54-0.918-7.689-1.869-14.159-2.631   c-5.205-0.613-8.323-2.564-12.019-2.45c-0.444-3.038-2.574-5.813-4.959-6.774c-3.263-1.313-10.56-2.359-15.911-2.354   c-7.172,3.724-3.461,16.7-3.026,19.545c0.301,1.967,1.242,4.919-0.091,6.679c-1.566,2.067-4.629,2.39-9.289,1.617   c-5.795-0.962-16.932-0.783-21.419,6.262c-0.85,1.335-2.183,5.07-2.174,7.937c0.009,2.872,1.253,22.831,4.399,28.77   c5.429,10.248,25.468,10.865,30.794,11.544c5.317,0.68,8.654-1.89,10.643-6.06c0.007-0.01,0.398-0.826,0.937-2.333   c1.727-5.232,1.967-10.023,1.967-13.023c0-1,0.501-1,0.501,0c0,2-0.453,10.553,5.887,12.805c2.503,0.888,7.695,1.573,12.97,2.192   c4.77,0.548,8.232,2.372,8.232,14.611c0,7.446-1.564,8.44-9.74,8.44c-6.627,0-9.153,0.158-9.153-5.107   c0-4.255,4.208-3.816,7.328-3.816c1.393,0,0.382-1.04,0.382-3.665c0-2.612,1.633-4.123,0.088-4.161   c-10.786-0.297-17.133-0.013-17.133,13.476c0,12.246,4.687,14.52,19.995,14.52c12.003,0,16.234-0.393,21.19-15.771   c0.981-3.036,0.353-12.3,1.788-27.854C121.479,79.865,119.716,52.181,118.318,44.689z M100.395,75.499   c-1.483-0.052-2.909,0.042-4.239,0.255c0.374-3.023,1.622-6.732,6.042-6.577c4.893,0.168,5.579,4.793,5.596,7.926   C105.73,76.183,103.177,75.597,100.395,75.499z" fill="#FFFFFF"/><path d="M33.531,49.849c6.376-4.357,13.117-3.282,20.319-3.792c1.051-0.074,3.341-0.241,4.384-0.387   c0,0-0.929-8.499-0.675-11.413c0.316-3.627,1.023-7.351,2.995-10.47c-2.536,0.554-4.866,1.46-6.727,2.839   c-7.378,5.468-16.003,14.024-20.084,19.959c-0.79,1.149-1.564,2.926-2.235,4.922C32.131,50.899,32.81,50.341,33.531,49.849z" fill="#FFFFFF"/></g><path d="M110.153,76.095c-0.289-4.11-1.599-8.675-7.311-8.984c-4.519-0.244-7.732,4.436-7.673,7.843  c0.029,1.682,1.238,2.778,2.816,2.61c1.23-0.131,2.797-0.432,4.577-0.294c1.656,0.128,3.645,0.753,5.171,0.968  C109.134,78.435,110.145,77.288,110.153,76.095z M98.06,73.761c2.102-4.798,8.617-3.713,9,1.503  C105.684,74.792,102.661,73.547,98.06,73.761z"/><path d="M127.1,76.403c-0.205-6.895-1.128-13.693-1.361-20.58c-0.191-5.648,0.747-12.791-2.518-17.788  c-2.075-3.176-5.105-4.128-8.591-4.875c-4.721-0.64-9.325-1.859-14.022-2.603c-2.232-0.354-4.473-0.597-6.731-0.719  c-1.678-0.09-4.363,0.445-5.031-1.117c-0.719-1.68-2.021-3.667-3.549-4.733c-4.618-3.214-11.587-3.665-16.99-3.643  c-6.066,0.024-11.683,1.408-16.489,5.182c-4.529,3.556-8.705,7.522-12.604,11.759c-2.569,2.792-5.186,5.771-6.928,9.168  c-2.46,4.795-0.686,11.298-0.14,16.371c0.827,7.674,2.655,15.335,4.312,22.879c0.772,3.515,1.783,8.03,4.546,10.503  c1.62,1.45,3.797,2.151,5.818,2.833c2.6,0.873,5.247,1.503,7.918,2.118c3.16,0.728,6.137,1.933,9.259,2.76  c5.185,1.374,11.893,2.289,14.636-3.434c-0.047,0.086,1.34-3.92,1.783-6.026c2.447,3.707,6.329,4.201,10.354,4.803  c4.607,0.689,11.598,0.114,13.561,5.2c1.288,3.337,1.339,7.451,1.039,10.979c-0.096,1.506-0.224,3.477-1.675,4.335  c-1.903,0.953-4.47,0.723-6.529,0.697c-1.919-0.025-4.044,0.13-5.913-0.384c-1.441-0.396-1.18-1.347-1.535-2.558  c-0.632-2.159,2.23-2.438,3.858-2.407c0.845,0.016,1.861,0.166,2.689-0.095c2.997-0.96,1.049-4.988,1.765-7.181  c1.499-4.866-2.58-4.696-6.088-4.777c-6.488-0.149-12.618,1.509-14.854,8.179c-1.211,3.613-1.216,7.717-0.914,11.492  c1.11,13.877,16.069,14.006,26.855,13.429c6.544-0.35,12.471-2.583,15.438-8.839c1.886-3.622,3.113-7.518,4.117-11.46  C125.835,103.121,127.577,89.559,127.1,76.403z M102.143,35.031c-0.027,0,0.043,0.099-0.027,0.12  C102.12,35.131,102.135,35.031,102.143,35.031z M55.455,29.136c0.075-0.057,0.156-0.102,0.232-0.158  c-0.559,1.72-0.837,3.542-0.993,5.334c-0.203,2.329,0.54,9.122,0.54,9.122c-0.833,0.116-2.664,0.25-3.504,0.309  c-4.732,0.335-9.214-0.181-13.491,1.558C43.071,39.088,49.187,33.924,55.455,29.136z M120.523,107.579  c-0.443,6.354-3.09,16.342-7.983,20.727c-1.834,1.691-4.052,2.43-6.495,2.743c-3.714,0.475-7.581,0.815-11.325,0.799  c-3.219-0.014-6.87-0.271-9.82-1.672c-2.962-1.407-4.06-4.047-4.583-7.116c-0.633-3.715-0.514-8.549,1.024-11.948  c2.209-4.881,8.659-4.392,13.166-4.26c-0.473,1.553-0.515,3.114-0.257,4.713c-3.923-0.066-7.832,0.927-7.938,5.536  c-0.163,7.102,6.665,6.741,11.94,6.678c2.747-0.033,6.153-0.039,8.233-2.13c1.92-1.929,2.05-4.966,2.071-7.528  c0.046-5.695-0.778-13.87-7.383-15.686c-4.832-1.329-9.022-1.131-13.899-2.482c-1.486-0.412-3.735-1.656-4.462-2.971  c-0.752-1.358-1.095-2.917-1.238-4.45c-0.15-1.658,0.338-3.516-0.102-5.122c-0.524-1.913-3.064-1.965-3.88-0.301  c-0.524,1.07-0.402,2.559-0.495,3.719c-0.269,3.371-1.117,6.486-2.303,9.768c-0.804,2.222-4.383,3.715-6.217,3.361  c-2.828-0.546-5.613-1.292-8.462-1.467c-3.096-0.19-6.128-1.111-9.084-1.989c-2.223-0.66-5.026-1.188-7.002-2.52  c-2.418-1.473-3.176-5.173-3.916-7.713c-2.023-6.943-4.085-13.847-4.897-21.051c-0.403-3.574-0.996-7.9-0.619-11.694  c0.007-0.01,0.015-0.018,0.022-0.028c1.988-3.012,6.673-3.592,9.912-4.458c2.413-0.645,4.885-1.293,7.391-1.396  c1.842-0.075,6.173,1.159,7.424-0.493c1.065-1.406-0.486-4.565-0.726-6.137c-0.348-2.274-0.784-4.849-0.155-7.109  c0.571-2.053,0.786-4.208,1.855-6.094c0.312-0.55,0.974-1.068,1.57-1.618c6.336-1.49,13.699-0.006,19.427,2.226  c2.501,0.955,2.708,5.671,5.385,6.358c2.436,0.625,5.561-0.033,8.089,0.06c1.128,0.041,2.261,0.056,3.387,0.124  c4.403,0.267,8.79,0.848,13.174,1.758c2.447,0.508,5.402,0.883,6.952,3.081c1.733,2.388,1.795,5.63,2.081,8.461  c1.229,12.164,1.627,24.303,1.672,36.52C121.826,92.382,121.051,99.989,120.523,107.579z"/></svg>