<?xml version="1.0" ?><!DOCTYPE svg  PUBLIC '-//W3C//DTD SVG 1.1//EN'  'http://www.w3.org/Graphics/SVG/1.1/DTD/svg11.dtd'><svg enable-background="new 0 0 158.52 155.031" height="155.031px" id="icons" version="1.1" viewBox="0 0 158.52 155.031" width="158.52px" xml:space="preserve" xmlns="http://www.w3.org/2000/svg" xmlns:xlink="http://www.w3.org/1999/xlink"><g><path d="M145.859,62.311c-1.481-10.733-0.946-29.04-7.803-37.489C122.166,5.245,113.542,8.253,97.491,8.051   c-9.354-0.117-37.344-3.588-46.687-3.175c-8.571,0.381-17.062,2.488-24.24,7.322C12.933,21.379,6.557,33.792,6.557,49.401   c0,27.832-0.326,46.408,2.666,62.849c3.344,18.364,12.919,25.859,30.806,33.35c16.51,6.916,35.468,5.648,52.848,3.717   c16.811-1.867,36.914-2.515,47.533-17.721c5.325-7.628,6.265-17.454,7.118-26.422C148.885,90.882,147.815,76.49,145.859,62.311z" fill="#DB4437"/><path d="M57.016,70.893c-2.331,2.332-2.333,10.859,0,13.189c3.185,3.181,12.794-0.017,18.004-0.017   c-2.821,8.55-7.208,13.206-18.004,13.206c-10.926,0-21.539-8.857-21.539-19.783s8.527-19.783,19.454-19.783   c5.777,0,10.451,1.449,15.015,3.818c5.25,2.725,12.281-6.153,6.606-10.901c-6.892-5.767-10.905-6.436-19.535-6.436   c-18.392,0-34.344,11.792-34.344,33.302c0,21.424,13.867,33.302,32.259,33.302c27.491,0,41.507-25.691,29.898-39.896   C80.711,65.853,62.67,65.239,57.016,70.893z" fill="#FFFFFF"/><path d="M130.431,70.378c-2.326-2.326-11.07,0-11.07,0s0.24-10.829-2.085-13.155c-1.661-1.661-7.735-1.661-9.396,0   c-2.325,2.325-2.085,11.967-2.085,11.967s-9.054-1.204-11.446,1.188c-1.661,1.661-1.661,7.735,0,9.396   c2.392,2.392,12.488,0,12.488,0s-1.349,11.139,1.043,13.531c1.661,1.661,7.735,1.661,9.396,0   c2.392-2.392,2.085-13.531,2.085-13.531s8.744,2.326,11.07,0C132.092,78.113,132.092,72.039,130.431,70.378z" fill="#FFFFFF"/><path d="M155.138,27.529c-0.562-14.894-13.985-26.281-28.569-25.68c-8.787,0.362-17.563,0.963-26.353,1.282   C91.479,3.449,82.78,2.41,74.044,2.426c-8.715,0.016-17.354,0.94-26.079,0.49c-8.157-0.421-16.689-1.499-24.793,0.026   c-7.701,1.449-14.47,6.02-18.061,13.081c-3.814,7.5-2.87,16.222-2.72,24.359c0.273,14.912,0.46,29.777,0.633,44.686   c0.038,0.836,0.077,1.672,0.115,2.509c0.362,7.888,0.908,15.773,1.23,23.661c0.339,8.308-0.966,17.515,2.558,25.281   c2.943,6.485,8.647,11.814,15.258,14.434c5.662,2.244,11.935,1.705,17.896,1.668c17.684-0.109,35.192,1.442,52.847,2.039   c8.982,0.303,17.841-0.338,26.79-1.005c5.589-0.417,11.471-0.273,16.758-2.391c7.232-2.874,13.24-8.826,15.932-16.157   c2.356-6.415,1.723-13.974,1.848-20.682c0.249-13.346,1.042-26.709,0.925-40.056C155.045,58.748,155.728,43.155,155.138,27.529z    M149.663,91.327c-0.428,7.323-0.942,14.636-1.006,21.973c-0.049,5.013,0.05,10.199-0.201,15.135   c-0.379,7.444-5.509,14.263-12.015,17.615c-5.206,2.682-11.27,2.656-16.984,2.929c-8.937,0.428-17.889,0.414-26.831,0.176   c-8.764-0.233-17.517-0.714-26.276-1.063c-8.668-0.345-17.361-0.084-26.016-0.64c-5.113-0.328-10.642-0.107-15.388-2.303   c-6.682-3.091-12.79-10.338-13.556-17.836C10,113.216,8.773,99.102,8.099,84.95c-0.003-0.232-0.006-0.464-0.009-0.696   c-0.099-7.548,0.218-15.06-0.02-22.612c0.09-4.102,0.617-8.199,0.902-12.29c0.213-4.073,0.052-8.159-0.005-12.235   c-0.109-7.701-0.829-15.915,4.673-22.088c5.204-5.837,12.705-6.458,20.038-6.647C51.184,7.929,68.71,9.348,86.204,8.663   c8.676-0.34,17.341-0.719,26.022-0.946c6.139-0.161,12.976-1.102,19.069,0.139c7.542,1.535,13.986,7.645,16.31,14.927   c1.452,4.549,1.121,10.005,1.385,14.699c0.365,9.049,1.131,18.079,1.408,27.131C150.671,73.541,150.184,82.418,149.663,91.327z"/><path d="M135.161,69.525c-0.828-1.062-2.294-0.777-3.463-0.742c-2.72,0.081-5.44,0.163-8.161,0.244   c0.242-2.592,0.426-5.231,0.249-7.834c-0.076-1.118,0.013-2.901-0.941-3.727c-1.337-1.158-4.848-0.525-6.432-0.544   c-1.907-0.023-4.917-0.705-5.501,1.761c-0.739,3.122-0.812,6.675-0.479,9.981c-2.161,0.023-4.321,0.046-6.482,0.069   c-0.92,0.01-2.006-0.139-2.914,0.031c-3.051,0.572-2.003,4.041-1.894,6.416c0.059,1.558-0.843,6.219,1.931,6.154   c1.131-0.026,2.262-0.053,3.393-0.08c2.295-0.054,4.591-0.108,6.886-0.162c-0.045,3.617-0.096,7.233-0.174,10.851   c-0.068,3.125,3.677,2.277,5.794,2.255c1.474-0.016,2.948-0.031,4.421-0.047c2.199-0.023,1.849-2.256,1.816-3.836   c-0.064-3.033-0.073-6.06-0.007-9.09c1.75,0.076,3.5,0.154,5.251,0.187c1.587,0.03,3.174,0.061,4.762,0.091   c2.515,0.048,2.269-2.369,2.302-4.161C135.554,75.345,136.507,71.251,135.161,69.525z M121.645,77.616   c-3.068,0.003-1.933,5.437-1.873,7.534c0.053,1.868,0.091,3.735,0.113,5.603c-1.604-0.05-3.205-0.106-4.806-0.209   c0.045-1.878,0.072-3.757,0.075-5.634c0.003-1.643,0.38-3.947-0.067-5.525c-0.079-2.135-2.182-2.042-3.703-2.015   c-2.826,0.05-5.653,0.099-8.479,0.149c-0.039-1.515-0.015-3.043,0.067-4.557c3.043,0.034,6.086,0.068,9.129,0.102   c2.493,0.028,2.969-1.477,3.216-3.694c0.281-2.664,0.408-5.601,0.056-8.352c1.328-0.016,2.656-0.033,3.985-0.049   c-0.284,3.271-0.011,6.716,0.451,9.887c0.184,2.549,4.614,1.855,6.29,1.905c1.76,0.053,3.52,0.105,5.28,0.158   c0.024,1.539,0.049,3.077,0.073,4.616C128.183,77.577,124.915,77.613,121.645,77.616z"/><path d="M94.648,71.159c-0.576-2.907-7.807-2.213-10.232-2.332c-4.135-0.308-8.354-0.244-12.501-0.121   c-2.774,0.011-5.566,0.3-8.334,0.457c-2.869,0.163-6.287-0.591-6.137,3.291c0.143,3.693,0.058,7.405,0.058,11.101   c0,2.723,2.348,2.434,4.326,2.432c4.528-0.004,9.056-0.009,13.584-0.013c-1.555,3.68-3.86,6.969-7.747,8.55   c-2.42,0.985-5.696,1.398-8.042,1.332c-10.931-0.512-19.185-9.147-17.951-20.318c1.018-9.224,9.042-15.94,17.899-16.836   c1.799,0.047,4.331,0.136,6.346,0.834c2.204,0.764,4.26,1.964,6.021,3.494c1.228,1.058,2.288-0.184,3.081-1.013   c1.817-1.898,3.72-3.671,5.681-5.42c1.474-1.314,5.505-3.623,4.07-6.023c-1.392-2.327-5.26-4.436-7.507-5.474   c-4.404-2.034-9.581-3.215-14.409-3.574c-5.143-0.382-10.493,0.196-15.351,1.907c-3.049,1.074-6.441,1.9-9.079,3.81   c-2.804,2.03-5.241,5.029-7.326,7.775c-3.776,4.974-6.546,10.339-7.48,16.594c-1.582,10.595,1.665,21.99,8.203,30.42   c9.518,12.273,25.877,15.606,40.196,10.841c7.741-2.851,14.814-8.635,19.021-15.792C95.465,89.548,96.276,79.593,94.648,71.159z    M80.892,103.614c-6.598,5.893-15.828,8.109-24.514,7.243c-7.477-0.903-13.195-4.36-18.604-9.447   C30.885,94.93,27.64,86.47,27.192,77.163c-0.175-7.022,3.457-14.637,7.729-20.352c5.912-7.91,15.252-11.237,24.76-11.743   c7.178-0.346,15.134,2.188,20.971,6.702c-2.578,2.442-5.271,4.749-7.819,7.228c-9.271-6.755-22.646-4.936-29.898,4.234   c-3.81,5.033-6.01,11.374-5.107,17.718c1.155,8.122,6.979,15.154,14.78,17.726c3.916,1.291,8.166,1.366,12.211,0.715   c3.978-0.64,7.664-2.37,10.394-5.384c2.081-2.298,5.089-6.718,5.107-9.949c0.019-3.473-8.139-2.18-10.169-2.191   c-2.995-0.017-5.98,0.125-8.968,0.276c-0.112-3.036-0.176-6.063-0.156-9.102c10.123,0.137,20.246,0.227,30.367-0.107   C92.459,84.005,89.195,95.899,80.892,103.614z"/></g></svg>