<?xml version="1.0" ?><!DOCTYPE svg  PUBLIC '-//W3C//DTD SVG 1.1//EN'  'http://www.w3.org/Graphics/SVG/1.1/DTD/svg11.dtd'><svg enable-background="new 0 0 155.302 153.261" height="153.261px" id="icons" version="1.1" viewBox="0 0 155.302 153.261" width="155.302px" xml:space="preserve" xmlns="http://www.w3.org/2000/svg" xmlns:xlink="http://www.w3.org/1999/xlink"><g><g><path d="M150.421,46.929c-0.688-7.718-0.68-15.832-3.703-22.766c-4.561-10.461-15.318-14.642-25.783-16.545    C93.453,2.622,57.257-3.227,30.804,5.295c-11.831,3.812-16.36,7.052-23.248,18.233C3.423,30.24,5.335,40.333,5.609,47.51    c0.089,2.323,0.027,6.685-0.558,11.92c0,0,111.504,86.973,111.509,86.973c-0.002,0-0.004,0-0.006,0    c0.001,0,0.005-0.143,0.006-0.143c10.338-0.591,21.357-2.055,27.757-11.158c6.354-9.038,5.997-21.022,7.285-31.561    c1.087-8.893,1.957-17.831,2.132-26.794C153.87,69.802,151.513,59.195,150.421,46.929z" fill="#EE3D8C"/><path d="M114.693,136.652c-8.424-32.826-16.106-68.634-48.263-84.909c-18.038-9.129-43.379-4.886-61.379,7.686    c-2,11.963-3.448,28.463-2.977,35.467l67.076,55.618c14.783,0.457,29.306-3.349,44.052-4.076c1.138-0.056,2.189-0.036,3.352-0.036    h0.006C116.113,143.402,115.483,139.732,114.693,136.652z" fill="#F26A09"/><path d="M1.563,94.897c0.744,11.07,1.293,22.293,5.369,32.74c3.578,9.172,9.779,16.819,18.461,21.578    c11.504,6.307,30.827,0.905,43.544,1.299c-1.022-11.84,0.978-21.34-11.708-39.227C39.65,86.5,1.394,92.389,1.563,94.897z" fill="#FEE000"/></g><g><path d="M112.989,34.186c-2.634-0.325-7.598-0.305-10.719,3.858c-1.7,2.267-3.61,11.431,6.723,14.761    c3.487,1.124,8.901-1.611,10.394-4.912C123.023,39.854,116.675,34.64,112.989,34.186z" fill="#FFFFFF"/></g><g><g><path d="M84.404,139.089c-9.398-0.055-18.77-0.583-28.169-0.639c-9.549-0.056-21.677,1.096-29.164-6.104     c-7.958-7.654-6.331-20.824-7.402-30.941c-1.208-11.423-2.271-22.326-1.123-33.792c0.608-6.073,0.807-12.121,0.967-18.219     c0.13-4.984-0.109-10.145,1.927-14.812c4.12-9.441,12.588-12.432,22.08-13.357c9.756-1.002,19.529-1.487,29.331-1.545     c13.517,0.083,27.039-1.044,40.552-0.424c4.459,0.204,8.544,0.501,12.617,2.683c6.779,3.632,11.679,10.864,12.081,18.599     c0.444,17.353-1.817,34.716-0.116,51.992c0.802,8.14,0.487,16.396,0.095,24.554c-0.365,7.585-5.343,14.342-11.846,18.009     c-6.424,3.623-14.509,3.007-21.662,3.536c-3.244,0.198-6.56-0.314-9.83-0.203C91.293,138.602,87.861,139.022,84.404,139.089z      M84.314,133.379c9.536-0.24,19.113-1.136,28.516-2.573c5.522-0.844,9.877-1.27,13.947-5.552     c3.996-4.204,4.206-9.245,4.397-14.727c0.45-12.869,0.126-25.681-0.193-38.55c-0.145-6.112-0.055-12.216-0.053-18.329     c0.002-5.832,0.899-12.87-1.805-18.247c-4.029-8.016-11.307-8.668-19.134-8.81c-12.664-0.229-25.179-0.141-37.821-1.06     c-7.402-0.539-14.595-0.352-21.975,0.78c-6.143,0.943-14.46,1.074-19.396,5.21c-3.453,2.894-4.586,6.362-5.535,10.429     c-0.775,6.997-0.697,14.201-0.946,21.234c-0.276,7.789-0.541,15.602-0.05,23.387c0.52,8.256,1.701,16.536,1.905,24.804     c0.16,6.492,0.367,13.437,6.858,16.908c3.635,1.943,7.694,1.574,11.656,1.782C57.944,130.762,71.002,133.171,84.314,133.379z" fill="#FFFFFF"/></g><path d="M108.64,78.839c-0.198,3.314-0.896,6.55-2.065,9.657c-1.409,3.743-3.715,6.889-6.049,10.096    c-2.352,3.231-5.217,5.96-8.855,7.679c-3.661,1.73-7.578,2.397-11.588,2.618c-12.638,0.413-24.27-7.587-29.578-18.929    c-2.505-5.354-3.636-11.306-2.448-17.15c1.135-5.583,4.051-10.867,7.795-15.126c2.579-2.934,5.531-5.505,9.359-6.499    c1.819-0.593,3.526-1.547,5.35-2.158c2.117-0.71,4.305-1.222,6.524-1.469c5.574-0.619,10.927,0.497,15.78,3.386    c2.535,1.464,4.636,3.919,6.472,6.144c1.968,2.385,3.638,4.953,5.204,7.614C106.638,69.173,108.719,73.765,108.64,78.839z     M101.573,78.66c-0.327-6.877-2.802-13.153-8.38-17.468c-4.152-3.212-9.573-5.109-14.826-5.209c0.06,0.001,0.12,0.002,0.18,0.005    c-3.356,0.129-6.7,0.413-9.778,1.903c-2.048,0.991-4.153,2.083-5.968,3.467c-5.095,3.884-8.256,9.825-8.668,16.197    c-0.418,6.454,2.328,12.981,7.032,17.366c4.75,4.428,11.208,6.429,17.578,6.753c-0.438-0.012,0.159-0.023,0.24-0.027    c0.573-0.032,1.147-0.046,1.72-0.081c1.78-0.109,3.598-0.573,5.28-1.145c3.304-1.123,6.267-2.979,8.764-5.412    c4.249-4.141,6.42-10.697,6.832-16.527C101.576,78.541,101.574,78.6,101.573,78.66z" fill="#FFFFFF"/></g></g></svg>