<?xml version="1.0" ?><!DOCTYPE svg  PUBLIC '-//W3C//DTD SVG 1.1//EN'  'http://www.w3.org/Graphics/SVG/1.1/DTD/svg11.dtd'><svg enable-background="new 0 0 154.894 157.309" height="157.309px" id="icons" version="1.1" viewBox="0 0 154.894 157.309" width="154.894px" xml:space="preserve" xmlns="http://www.w3.org/2000/svg" xmlns:xlink="http://www.w3.org/1999/xlink"><g><path d="M151.323,62.371c-1.588-11.51-2.996-23.994-6.59-35.096c-1.4-4.324-3.438-8.234-6.129-11.42   c-0.16-0.393-0.412-0.764-0.779-1.094c-0.481-0.43-0.971-0.85-1.467-1.254c-1.336-1.223-2.801-2.289-4.402-3.164   C116.874,0.818,96.667,0.238,79.454,0.022C69.423-0.103,59.407,0.336,49.388,0.779c-9.191,0.408-18.297,2.668-25.994,7.852   C8.777,18.477,3.583,36.158,1.939,52.816c-1.771,17.932,0.723,36.26,3.932,53.891c3.586,19.693,12.781,36.947,31.963,44.98   c17.705,7.416,38.035,6.057,56.674,3.986c18.027-2.002,39.586-2.697,50.973-19.004c5.711-8.18,6.719-18.717,7.633-28.334   C154.568,93.01,153.421,77.576,151.323,62.371z" fill="#C4E9FA"/><g><path d="M134.019,87.028c0.344-2.535,0.539-5.111,0.539-7.736c0-31.478-25.658-57.002-57.301-57.002    c-3.146,0-6.229,0.26-9.229,0.752c-5.381-3.506-11.781-5.549-18.674-5.549c-18.893,0-34.191,15.307-34.191,34.197    c0,6.871,2.022,13.256,5.506,18.617c-0.471,2.93-0.711,5.928-0.711,8.984c0,31.484,25.647,57.006,57.299,57.006    c3.572,0,7.051-0.348,10.43-0.957c5.254,3.258,11.441,5.152,18.074,5.152c18.887,0,34.19-15.311,34.19-34.201    C139.95,99.153,137.767,92.519,134.019,87.028z" fill="#29AAE2"/><path d="M100.89,76.936c-9.385-7.174-21.617-6.037-32.563-7.992c-4.633-0.828-9.49-2.805-11.199-7.592    c-1.299-3.639,1.412-7.002,3.834-9.395c5.811-5.74,13.805-7.02,21.475-5.412c4.025,0.842,13.402,9.189,15.228,12.092    c1.492,2.367,6.531,2.094,8.07,0c5.082-6.91,1.193-14.52-4.289-17.994c-6.611-4.19-19.34-10.527-27.055-9.529    c-31.734,4.102-39.051,23.555-25.186,40.719C56.3,80.615,67.433,81.494,77.909,82.4c8.77,0.76,23.637,4.68,20.551,16.328    c-2.627,9.918-12.988,12.524-21.816,12.014c-9.412-0.543-19.076-6.447-22.664-15.438c-2.154-5.393-9.467-5.879-11.449,0    c-3.256,9.662,5.105,20.426,12.094,25.285c9.037,6.279,25.201,7.719,35.672,4.975c9.785-2.566,21.338-10.836,24.602-20.111    C118.585,94.963,109.097,83.211,100.89,76.936z" fill="#FFFFFF"/></g><g><path d="M113.292,90.591c-0.374-1.231-0.729-2.394-1.188-3.545c-0.429-1.161-0.955-2.3-1.589-3.386    c-1.263-2.163-2.809-4.257-4.764-5.861c-1.97-1.58-4.127-2.843-6.335-3.862c-4.452-1.994-9.038-3.096-13.524-4.169    c-4.489-1.081-8.95-2.014-13.343-3.022c-1.095-0.259-2.217-0.506-3.177-0.795c-0.993-0.289-1.933-0.674-2.787-1.127    c-1.718-0.902-2.972-2.198-3.208-3.544c-0.297-1.334,0.36-2.975,1.587-4.339c1.224-1.367,2.906-2.473,4.736-3.201    c1.825-0.734,3.851-1.109,5.802-1.121c2.041-0.018,3.979,0.349,5.876,1.055c3.809,1.411,7.129,4.157,10.521,7.153    c0.861,0.749,1.737,1.516,2.695,2.273c0.966,0.75,1.988,1.521,3.327,2.146c0.676,0.298,1.45,0.528,2.322,0.62    c0.215,0.026,0.441,0.031,0.664,0.036c0.257-0.002,0.597-0.022,0.68-0.041c0.461-0.054,0.778-0.127,1.161-0.229    c1.463-0.396,2.761-1.139,3.833-2.083c2.144-1.886,3.432-4.615,3.519-7.378c0.047-1.376-0.176-2.731-0.558-3.999    c-0.406-1.264-0.98-2.444-1.672-3.521c-1.379-2.157-3.312-3.835-5.128-5.271c-1.865-1.464-3.858-2.785-5.964-3.911    c-4.212-2.261-8.855-3.679-13.538-4.344c-4.678-0.712-9.435-0.729-14.046-0.373l-0.02,0.002c-4.804,0.452-9.558,1.884-13.758,4.4    c-2.095,1.267-3.951,2.91-5.572,4.729c-1.641,1.804-3.09,3.767-4.366,5.854c-0.629,1.049-1.204,2.136-1.69,3.264    c-0.465,1.135-0.872,2.295-1.167,3.482c-0.303,1.194-0.525,2.367-0.696,3.61l-0.107,0.862l-0.083,0.976    c-0.039,0.638-0.045,1.28-0.005,1.924c0.115,2.573,0.85,5.155,2.106,7.381c1.321,2.22,3.237,3.874,4.982,5.502    c0.898,0.803,1.762,1.615,2.549,2.569c0.825,0.901,1.661,1.841,2.679,2.498c2.046,1.292,4.22,2.313,6.413,3.229    c4.41,1.8,8.967,3.059,13.655,3.76c2.267,0.311,4.336,0.679,6.454,1.222c2.087,0.539,4.136,1.21,5.981,2.101    c1.821,0.874,3.511,2.057,4.223,3.322c0.351,0.63,0.451,1.211,0.359,1.884c-0.094,0.672-0.427,1.441-0.928,2.202    c-0.497,0.754-1.161,1.537-1.849,2.177c-0.693,0.65-1.456,1.205-2.281,1.649c-1.642,0.909-3.57,1.296-5.543,1.259    c-1.979-0.05-3.984-0.512-5.964-1.109c-0.991-0.304-1.974-0.669-2.953-1.06c-0.993-0.353-1.963-0.791-2.964-1.179l-2.879-1.211    c-0.813-0.389-1.607-0.812-2.387-1.335c-1.6-1-3.096-2.461-4.913-4.139c-0.912-0.831-1.996-1.666-3.266-2.345    c-1.281-0.661-2.763-1.004-4.126-1.025c-2.666-0.081-5.559,0.9-7.486,2.986c-2.001,2.023-2.882,4.951-2.771,7.692    c0.077,2.783,1.18,5.351,2.597,7.518c0.71,1.114,1.551,2.037,2.475,2.987c0.854,0.845,1.723,1.645,2.637,2.433    c1.825,1.566,3.844,2.971,5.986,4.174c2.142,1.207,4.426,2.166,6.748,2.914c2.317,0.779,4.689,1.309,7.057,1.706    c2.362,0.437,4.735,0.712,7.099,0.88c2.361,0.2,4.728,0.322,7.069,0.358c2.486,0.032,5.047-0.183,7.527-0.666    c2.477-0.533,4.901-1.306,7.24-2.304c2.353-0.979,4.448-2.509,6.302-4.25c1.869-1.72,3.661-3.503,5.23-5.492    c1.554-1.997,2.919-4.173,3.88-6.552c0.964-2.375,1.488-4.938,1.568-7.492c0.044-1.277-0.04-2.552-0.181-3.809    C113.902,93.034,113.61,91.806,113.292,90.591z M110.176,97.667c-0.15,2.023-0.61,4.071-1.435,6.022    c-0.417,0.971-0.868,1.943-1.408,2.877c-0.516,0.949-1.081,1.89-1.731,2.777c-1.276,1.798-2.905,3.353-4.717,4.635    c-1.828,1.266-3.813,2.284-5.838,3.159c-4.04,1.792-8.401,2.809-12.786,2.923c-4.493,0.139-8.983,0.019-13.344-0.67    c-4.362-0.625-8.594-1.866-12.362-4.014c-1.887-1.065-3.662-2.334-5.341-3.749c-0.838-0.706-1.663-1.45-2.451-2.215    c-0.72-0.726-1.45-1.521-2.015-2.38c-1.158-1.701-1.962-3.618-2.048-5.513c-0.107-1.879,0.472-3.686,1.638-4.882    c1.124-1.253,2.774-1.824,4.571-1.786c0.871,0.008,1.633,0.192,2.374,0.596c0.733,0.412,1.51,1.006,2.268,1.765    c1.518,1.51,3.116,3.376,5.075,4.851c0.957,0.762,2.003,1.43,3.104,1.969c0.558,0.282,1.117,0.486,1.628,0.729l1.588,0.697    c4.256,1.787,8.737,3.599,13.801,3.623c2.5-0.017,5.136-0.573,7.44-1.874c1.153-0.636,2.221-1.429,3.163-2.33    c0.947-0.909,1.753-1.867,2.487-2.994c0.716-1.122,1.344-2.438,1.553-3.979c0.226-1.531-0.125-3.239-0.892-4.536    c-0.76-1.316-1.785-2.284-2.827-3.074c-1.051-0.787-2.149-1.401-3.26-1.93c-4.441-2.052-9.109-2.977-13.673-3.555    c-4.379-0.597-8.724-1.732-12.833-3.347c-2.049-0.821-4.059-1.741-5.93-2.878c-1.862-1.185-3.185-3.014-4.697-4.402    c-1.432-1.502-2.75-3.063-3.667-4.841c-0.925-1.769-1.422-3.714-1.521-5.703c-0.031-0.497-0.021-0.999-0.003-1.501l0.05-0.733    l0.089-0.832c0.124-1.018,0.306-2.089,0.548-3.105c0.485-2.05,1.203-4.031,2.184-5.87c1.953-3.678,4.92-6.791,8.541-8.947    c3.629-2.132,7.803-3.361,12.041-3.723c4.448-0.326,8.834-0.275,13.113,0.396c4.272,0.627,8.42,1.816,12.218,3.774    c1.898,0.978,3.707,2.135,5.423,3.438c1.753,1.34,3.262,2.657,4.352,4.272c1.085,1.583,1.713,3.367,1.574,5.088    c-0.11,1.71-0.959,3.353-2.276,4.419c-0.651,0.533-1.407,0.916-2.174,1.092c-0.176,0.044-0.42,0.083-0.539,0.09    c-0.193,0.021-0.155,0.001-0.193,0.008c-0.068-0.008-0.135-0.006-0.21-0.02c-0.289-0.034-0.643-0.149-1.023-0.323    c-1.565-0.739-3.282-2.264-4.979-3.718c-3.408-2.967-7.181-6.168-11.922-7.912c-2.341-0.871-4.919-1.335-7.405-1.299    c-2.566,0.028-5.065,0.513-7.437,1.471c-2.359,0.96-4.568,2.385-6.366,4.393c-0.888,1.009-1.667,2.186-2.176,3.562    c-0.511,1.362-0.71,2.972-0.379,4.526c0.315,1.559,1.141,2.956,2.135,4.008c0.997,1.066,2.142,1.846,3.301,2.467    c2.3,1.251,4.835,1.812,6.991,2.314l3.346,0.763l3.344,0.679l6.612,1.398c4.368,0.956,8.767,1.734,12.921,3.358    c2.056,0.837,4.029,1.897,5.813,3.234c1.767,1.372,3.009,3.295,4.027,5.204c0.512,0.962,0.916,1.974,1.231,3.006    c0.341,1.018,0.6,2.07,0.811,3.034C110.162,93.628,110.319,95.641,110.176,97.667z"/><path d="M154.278,69.554c-0.251-11.384-0.49-22.755-0.345-34.196l0.032-4.306l-0.007-2.19c-0.018-0.813-0.08-1.623-0.184-2.425    c-0.393-3.22-1.526-6.271-3.042-9.064c-3.105-5.557-8.038-10.056-13.989-12.627c-2.958-1.287-6.254-2.002-9.459-2.088    l-8.587-0.183c-5.684-0.12-11.358-0.239-17.023-0.42C96.008,1.833,90.366,1.58,84.742,1.254c-3.06-0.189-5.864-0.056-8.75,0.011    c-2.864,0.097-5.717,0.288-8.568,0.431c-5.7,0.361-11.395,0.477-17.092,0.52c-5.698-0.039-11.399-0.183-17.101-0.028    c-1.427,0.013-2.852,0.083-4.281,0.141c-1.375,0.051-3.021,0.134-4.54,0.356c-3.089,0.427-6.178,1.302-9.049,2.732    c-2.871,1.421-5.5,3.416-7.624,5.85c-2.132,2.431-3.747,5.283-4.783,8.3c-0.52,1.508-0.9,3.058-1.144,4.622    c-0.123,0.791-0.206,1.551-0.261,2.376l-0.054,1.15l-0.022,1.107c-0.031,2.901-0.006,5.735,0.008,8.587L1.54,54.459l-0.038,8.517    l-0.23,8.51c-0.116,2.834-0.318,5.664-0.498,8.493l-0.567,8.479c-0.278,5.791-0.277,11.573,0.01,17.315    c0.274,5.743,0.706,11.45,1.085,17.11l0.271,4.232l0.119,2.111c0.038,0.75,0.116,1.599,0.238,2.381    c0.488,3.188,1.63,6.198,3.189,8.91c1.554,2.723,3.574,5.128,5.881,7.191c2.31,2.059,4.927,3.783,7.796,5.021    c1.434,0.617,2.931,1.111,4.476,1.447c0.773,0.168,1.552,0.293,2.35,0.376c0.861,0.091,1.532,0.1,2.266,0.135    c2.891,0.108,5.765,0.13,8.627,0.112c5.724-0.073,11.409-0.12,17.08-0.09c5.678,0.09,11.354,0.364,17.045,0.55l4.264,0.155    l4.268,0.08l8.54,0.14c11.394,0.074,22.794,0.28,34.253-0.102l4.306-0.183l2.143-0.12c0.779-0.046,1.571-0.131,2.345-0.253    c3.105-0.489,6.07-1.554,8.788-3.035c5.422-2.964,9.952-7.643,12.495-13.404c1.271-2.855,2.008-6.029,2.157-9.108    c0.17-2.897,0.265-5.745,0.352-8.604c0.163-5.712,0.264-11.414,0.316-17.125C155.028,92.217,154.471,80.946,154.278,69.554z     M149.596,90.97l-0.125,4.233c-0.119,2.827-0.27,5.658-0.434,8.489c-0.393,5.661-0.287,11.331-0.393,16.987    c-0.041,2.823-0.123,5.661-0.216,8.429c-0.063,2.532-0.56,4.898-1.505,7.203c-1.871,4.576-5.456,8.554-9.87,11.113    c-2.203,1.28-4.614,2.213-7.086,2.671c-0.62,0.114-1.233,0.197-1.865,0.252l-2.112,0.172l-4.213,0.284    c-5.634,0.328-11.301,0.54-16.973,0.572c-5.672,0.01-11.352-0.15-17.028-0.53c-11.355-0.807-22.718-1.106-34.14-1.188    l-17.051-0.032c-2.817-0.03-5.617-0.099-8.39-0.249c-0.677-0.041-1.446-0.077-1.934-0.142c-0.579-0.068-1.175-0.173-1.759-0.308    c-1.172-0.271-2.334-0.67-3.463-1.174c-4.519-2.031-8.475-5.693-10.969-10.041c-1.244-2.176-2.115-4.536-2.474-6.931    c-0.092-0.613-0.144-1.164-0.177-1.83l-0.117-2.151l-0.275-4.286C6.219,111.142,5.432,99.92,5.99,88.755    c0.32-5.703,0.701-11.415,0.674-17.126c-0.016-2.856-0.457-5.718-0.35-8.567l0.213-8.549l0.289-17.084    c0.045-2.838,0.078-5.693,0.166-8.48l0.041-1.025l0.066-0.98c0.053-0.595,0.136-1.249,0.247-1.862    c0.221-1.242,0.549-2.459,0.982-3.63c1.708-4.71,5.224-8.546,9.703-10.612c2.232-1.05,4.681-1.697,7.21-1.991    c1.294-0.156,2.475-0.19,3.946-0.218l4.248-0.094c11.346-0.292,22.719-0.471,34.06-0.578l8.491-0.099    c2.803-0.02,5.687-0.006,8.321,0.018c5.742,0.212,11.474,0.196,17.183,0.138c2.854,0.003,5.708-0.067,8.557-0.027    c2.849,0.037,5.694,0.198,8.538,0.356c2.826,0.151,5.725,0.284,8.479,0.506c2.541,0.21,4.915,0.892,7.156,1.952    c2.233,1.064,4.252,2.537,6.085,4.195c1.829,1.678,3.325,3.687,4.596,5.783c1.238,2.121,2.194,4.383,2.741,6.71    c0.133,0.582,0.236,1.168,0.307,1.755l0.202,2.062l0.381,4.215c0.461,5.64,0.668,11.32,0.76,16.999    c0.097,5.681,0.254,11.366,0.253,17.056l0.098,17.093C149.645,88.095,149.624,89.532,149.596,90.97z"/></g></g></svg>