<?xml version="1.0" ?><svg id="icons" style="enable-background:new 0 0 158.5 155;" version="1.1" viewBox="0 0 158.5 155" xml:space="preserve" xmlns="http://www.w3.org/2000/svg" xmlns:xlink="http://www.w3.org/1999/xlink"><style type="text/css">
	.st0{fill:#3F3F40;}
	.st1{fill:#9AFCE6;}
	.st2{fill:#FF0F50;}
	.st3{fill:#FFFFFF;}
</style><title/><path class="st0" d="M150.1,40.2c0-5-2.3-18.3-13.1-25.5c-12.1-8-39-6.4-58.7-6.4c-24.9,0-46.7-5.7-59.2,6.8  C5.8,28.5,5.6,33.9,5.6,69.1c0,20.6-0.3,43.5,12.8,60.4c11.3,14.6,24.8,18.7,42.2,19.1c10.3,0.2,29.7,2,39.9,0.5  c9.5-1.4,31-0.4,41.5-14.8c9.5-13,2.8-33.8,4.2-54.8C147.1,66.4,150.1,53.3,150.1,40.2z"/><path class="st1" d="M118.5,45.7c-8.3-2.5-15.4-7.8-20.2-15c-1.8-2.8-3.2-5.8-4.3-9c-0.7-1.8-1.7-1.8-3.3-1.9  c-3.9-0.1-8.1-0.6-12-0.2c-3.5,0.3-2.3,5.8-2.3,8.3c0,10,0.7,19.9,0.7,29.9c0,9.5-0.3,19-0.5,28.5c-0.1,7,0.2,14.4-5.5,19.5  c-11.7,10.4-32.2-1.8-26.4-17.1c1.3-3.5,4.1-6.3,7.6-7.6c2-0.8,4.2-1.3,6.3-1.7c1.4-0.3,3.7-0.1,4.8-1c1.4-1.2,0.8-4.2,0.8-5.7  c0-2.4,0-4.8,0-7.1c0-1.3,0.4-3.2-0.2-4.5c-0.8-1.8-2.9-1.4-4.5-1.2c-13,1.4-24.3,9.7-29.7,21.6C23.4,96.1,26.7,116,41.6,124  c16.2,8.6,36.8,1.7,46.2-13.6c4.8-7.9,5-16.1,4.8-25c-0.1-5.1,0.2-10.1,0.5-15.2c0.2-4.8,0.2-9.5,0.1-14.2c7.4,4.3,15,8.1,24.6,7.8  c2,0,1.5-1.9,1.6-3.6c0.1-2.5,0.2-5,0.3-7.4C119.9,48,120.7,46.4,118.5,45.7z"/><path class="st2" d="M128.5,54.7c-8.3-2.5-15.4-7.8-20.2-15c-1.8-2.8-3.2-5.8-4.3-9c-0.7-1.8-1.7-1.8-3.3-1.9  c-3.9-0.1-8.1-0.6-12-0.2c-3.5,0.3-2.3,5.8-2.3,8.3c0,10,0.7,19.9,0.7,29.9c0,9.5-0.3,19-0.5,28.5c-0.1,7,0.2,14.4-5.5,19.5  c-11.7,10.4-32.2-1.8-26.4-17.1c1.3-3.5,4.1-6.3,7.6-7.6c2-0.8,4.2-1.3,6.3-1.7c1.4-0.3,3.7-0.1,4.8-1c1.4-1.2,0.8-4.2,0.8-5.7  c0-2.4,0-4.8,0-7.1c0-1.3,0.4-3.2-0.2-4.4c-0.8-1.8-2.9-1.4-4.5-1.2c-13,1.4-24.3,9.7-29.7,21.6c-6.4,14.5-3.2,34.5,11.8,42.5  c16.2,8.6,36.8,1.7,46.2-13.6c4.8-7.9,5-16.1,4.8-25c-0.1-5.1,0.2-10.1,0.5-15.2c0.2-4.8,0.2-9.5,0.1-14.2c7.4,4.3,15,8.1,24.6,7.8  c2,0,1.5-1.9,1.6-3.6c0.1-2.5,0.2-5,0.3-7.4C129.9,57,130.7,55.4,128.5,54.7z"/><path class="st3" d="M123,67c-3.9-0.2-7.8-0.7-11.6-1.6c-6.9-1.8-14.3-6.6-14.5-6.8v38.5c-0.1,4.1-0.9,8.1-2.3,12  c-1.5,3.8-3.6,7.4-6.3,10.5c-3.2,3.7-7.2,6.6-11.6,8.7c-4.5,2.1-9.4,3.2-14.3,3.1c-5.9,0.1-16.8-1.9-22.7-10.1  c-6.8-9.4-6.7-15.6-6.5-20.6c0.4-8.9,3.4-14.4,4.2-15.8c2.1-3.8,4.9-7.1,8.1-9.9c2.9-2.4,6.1-4.3,9.6-5.7c3.8-1.6,7.8-2.4,11.9-2.5  v14.8c0,0-8.2,0.7-13,3.7c-4.5,2.8-6.9,7.3-7.1,13c-0.5,10.6,10.4,18.8,19.5,18c9.7-0.9,17.1-7.3,17.1-19.1V26.6h13.7  c0.6,3.4,7.7,20.8,25.9,25.7L123,67z"/><path d="M123.7,49.7c-9.2-2.7-16.9-8.9-21.6-17.2c-1-1.7-1.7-3.6-2.2-5.5c-0.5-1.8-0.8-2.7-2.8-3c-2-0.2-4-0.4-6-0.4  c-2.6-0.2-5.9-0.9-8.4-0.3c-1.5,0.4-2.6,1.7-2.7,3.3c-0.3,2.8,0.1,5.9,0.1,8.8c0.1,10.3,0.1,20.5,0.2,30.8  c0.1,7.4,0.1,14.8,0.1,22.2c0,4.5,0.6,9.5-0.5,13.9c-2.4,9.3-13.1,13.3-21.5,9.1c-1.4-0.8-2.8-1.7-4-2.8c-1.3-1.1-2.8-1.8-3.7-3.3  c-1.8-3.2-1.9-7.3-0.9-10.7c1.3-4.4,4.6-7.2,8.9-8.6c2.4-0.7,5-1.2,7.5-1.5c1.9-0.2,3.3-0.7,3.6-2.9c0.6-4,0.2-8.3,0.3-12.3  c0-1.6,0.4-3.5-0.9-4.8c-2.6-2.6-9.9-0.3-12.9,0.7c-8.7,2.6-16.1,8.3-21,16c-4,6.7-4.3,14.9-4.3,22.4c0,4.8-0.3,10.6,2.3,14.7  c1.5,2.4,3.2,4.6,5.1,6.7c5.4,6,14.9,10.4,23.1,9c9.3-1.5,18.7-2.1,25.8-9.1c6.8-6.5,11.1-15.2,12-24.6c0.5-5.1,0-10.3-0.3-15.4  s0.8-9.8,0.9-14.8c0-2,0-4,0.1-6c6.8,3.5,14.3,5.9,22,5.7c0.4,0,0.9,0,1.3,0c2.5-0.6,1.8-3.8,2-5.9c0.2-2.8,0.3-5.6,0.3-8.4  C125.8,53.5,126.3,50.4,123.7,49.7z M116.5,63.4c-4.6-0.7-9-2.2-13.1-4.4c-2.5-1.3-8.4-6-9.4-0.7c-0.6,2.9,0,6.5,0,9.4  c0,7.4,0,14.8,0,22.2c0.2,3.8,0,7.7-0.4,11.5c-1.4,8.9-6.3,16.9-13.7,22.2c-7.1,4.9-17.1,5.9-25.4,4c-7.6-1.8-12.8-7.1-16.1-14  C29,94.2,44,71,64.8,69.2v3.9c0,1.6,0.6,4.6,0,6s-6.4,1.8-8.2,2.5c-3.9,1.3-7.2,4-9.4,7.4c-8.3,13.8,4.4,31,19.8,29  c6.4-0.8,12.9-4.3,16.6-9.8c3.3-5,3-11.2,3-17c0-8,0-16-0.1-24c-0.1-7.3-0.7-14.6-0.1-21.9c0.4-5.2,0.1-10.6,0.1-15.8  c2.5-0.2,5-0.2,7.5,0c1.6,0.2,1.4,1.1,2.2,2.8c1.2,2.5,2.5,4.9,4.1,7.2c3.2,4.6,7.3,8.6,12,11.6c1.3,0.8,2.6,1.5,3.9,2.1  c1.2,0.5,3.3,0.9,3.8,1.9s0.2,3,0.3,4.1c0.2,1.5,0.4,3,0.6,4.6C119.4,63.8,118,63.6,116.5,63.4z"/><path d="M156.3,72.2c-0.1-13.5-0.2-27-0.3-40.5c0-5.4-0.4-10.4-2.9-15.2c-2.3-4.3-5.6-8-9.6-10.7c-9.1-6.2-20.4-4.8-30.8-4.6  c-5.6,0.1-11.2,0.1-16.8,0.1c-5.6,0-11.1,0.7-16.7,0.8C68.1,2.4,57.1,1.1,46,1c-6.7-0.1-13.4,0-20.1,0.5C16.5,2.2,8.3,8.1,4.7,16.8  c-3.7,8.8-2.3,19.4-2,28.7c0.4,11.3,0.5,22.6,0.3,33.9C3,90.7,3,102,3.3,113.3c0.2,5.5,0.3,11,0.4,16.5c0,3.8,0.8,7.5,2.3,10.9  c4.6,9.5,14.7,13.4,24.7,13.4c9.2,0,18.5-0.5,27.7-0.7c14.2-0.3,28.4,0.2,42.6,0.5c7.1,0.1,14.1,0,21.1-0.2  c6.8-0.2,13.8,0.1,20.1-2.6c10.8-4.5,13.7-15.4,13.7-26.1c-0.1-11.8,0.1-23.5,0.3-35.3C156.2,83.9,156.3,78.1,156.3,72.2z M151,46.5  c-0.4,9.1-0.5,18.2-0.5,27.3l-0.1,17c0,5.9,0,11.8-0.1,17.7c-0.1,10.8,1.6,24.6-5.9,33.4c-5.6,6.6-13.7,6.7-21.6,6.8  c-5.7,0-11.4,0-17.1,0.3c-8.6,0.4-17.2,0.4-25.7-0.1c-11-0.6-22-0.4-33-0.2c-9.4,0.2-21.5,2.1-29.7-3.5c-8.9-6-7.5-17.4-8.1-26.8  c-1.2-16.2-1.4-32.4-1.2-48.7C8,61.4,8.3,53.3,8.7,45.1C9,39.2,9.1,33.4,9.4,27.5c0.2-5.4,1.6-10.7,5.4-14.8C20.3,6.7,28,7,35.5,7.2  C43.7,7.4,51.8,7.9,60,7.7c15.8-0.3,31.5-0.9,47.3-0.7c5.6,0.1,11.2,0.1,16.8,0.3c5.8,0.2,11.1,0.6,16,4.1c4.7,3.3,8.1,8.1,9.6,13.6  c1,3.9,0.9,8.2,1,12.3C150.9,40.4,151.1,43.5,151,46.5z"/></svg>