<?xml version="1.0" ?><!DOCTYPE svg  PUBLIC '-//W3C//DTD SVG 1.1//EN'  'http://www.w3.org/Graphics/SVG/1.1/DTD/svg11.dtd'><svg enable-background="new 0 0 154.883 154.029" height="154.029px" id="icons" version="1.1" viewBox="0 0 154.883 154.029" width="154.883px" xml:space="preserve" xmlns="http://www.w3.org/2000/svg" xmlns:xlink="http://www.w3.org/1999/xlink"><g><path d="M107.661,3.142C90.71,2.598,35.338,4.821,19.603,16.509C4.52,27.714-18.598,147.271,31.981,146.058   c58.736-1.409,89.99-4.244,102.658-16.772c17.671-17.472,18.585-49.759,18.825-66.19C153.916,32.308,140.485,4.198,107.661,3.142z" fill="#00AEEF"/><path d="M98.53,45.734c8.372-6.313,5.771-9.186,0.271-8.201c-8.961,1.603-15.84,7.938-18.596,16.14   c-5.767,17.152-11.428,4.239-22.96-0.472c-8.075-3.297-27.241-9.696-12.077,4.041c-16.179,4.861,6.151,12.098,6.887,14.355   c-11.495,0.843-10.009,7.556-2.715,11.257c2.647,1.343,8.418,1.958,8.418,1.958c-1.804,2.829-3.394,7.844,1.651,8.727   c-7.536,5.979-8.821,9.497-20.016,7.504C27.362,98.9,19.86,90.181,18.421,94.017c-1.681,4.477,20.429,18.263,24.409,19.841   c10.302,4.087,23.369,6.24,33.973,5.246c17.825-1.673,32.851-9.258,41.731-25.167c4.239-7.594,1.952-12.882,4.939-16.8   c5.83-2.094,10.865-7.078,10.963-9.284c0.115-2.611-5.844-2.169-13.618-0.401C120.818,67.451,120.855,48.84,98.53,45.734z" fill="#FFFFFF"/><g><path d="M154.811,38.925c-0.069-3.942-0.189-7.89-0.42-11.85c-0.027-0.469-0.055-1.006-0.111-1.557    c-0.051-0.542-0.125-1.079-0.213-1.613c-0.178-1.067-0.425-2.119-0.731-3.148c-0.618-2.058-1.472-4.032-2.529-5.885    c-2.111-3.706-5.023-6.955-8.542-9.428c-3.51-2.476-7.669-4.122-11.997-4.614c-1.138-0.127-2.089-0.163-3.092-0.219l-2.968-0.131    l-5.909-0.19c-3.936-0.104-7.867-0.175-11.802-0.23c-3.934-0.05-7.869-0.075-11.816-0.049c-1.958,0.017-3.983,0.067-5.908,0.118    c-1.939,0.042-3.892,0.056-5.845,0.128L59.417,0.798c-7.848,0.16-15.693,0.219-23.571,0.174L29.92,0.904    c-1.006-0.001-1.955-0.011-3.017,0.008c-1.122,0.026-2.234,0.145-3.333,0.33c-2.2,0.364-4.304,1.098-6.303,2.009    c-1.997,0.921-3.886,2.067-5.591,3.446c-3.426,2.73-6.29,6.2-8.242,10.207c-0.97,2.002-1.728,4.132-2.157,6.341    c-0.222,1.11-0.37,2.204-0.446,3.361c-0.072,1.144-0.069,2.09-0.102,3.064c-0.098,3.9-0.237,7.829-0.3,11.791    c-0.06,3.885-0.062,7.754-0.048,11.616c-0.513,3.783-0.436,7.434-0.195,10.972c0.285,3.611,0.733,7.163,1.038,10.473    c0.081,0.839,0.134,1.556,0.158,2.422l0.085,2.643l0.273,5.285l0.275,5.283l0.183,5.283c0.082,1.761,0.069,3.522,0.088,5.284    c0.017,1.762,0.043,3.523,0.005,5.286c-0.027,3.525-0.1,7.052-0.067,10.578l0.101,5.288l0.107,2.643    c0.041,0.88,0.068,1.738,0.14,2.726c0.279,3.815,1.187,7.686,2.948,11.241c1.747,3.552,4.384,6.729,7.621,9.058    c3.23,2.343,7.003,3.843,10.862,4.485c0.977,0.161,1.915,0.264,2.938,0.324c0.939,0.051,1.857,0.058,2.745,0.067l5.309-0.002    l10.547-0.056l10.53-0.011c3.51,0.008,7.018,0.022,10.523,0.14l5.257,0.166l5.249,0.32l10.483,0.704    c3.959,0.197,7.916,0.308,11.871,0.348c3.956,0.02,7.908-0.047,11.853-0.161c3.945-0.107,7.884-0.242,11.814-0.421l2.945-0.136    l3.009-0.161c2.225-0.177,4.396-0.678,6.442-1.44c4.1-1.522,7.724-4.008,10.657-7.106c2.934-3.093,5.267-6.787,6.577-10.921    c0.326-1.032,0.582-2.092,0.761-3.169c0.085-0.548,0.155-1.063,0.204-1.654l0.051-0.788l0.032-0.748    c0.083-1.993,0.119-3.979,0.128-5.957c0.038-3.957-0.099-7.89-0.088-11.813c0.006-3.924-0.064-7.826,0.068-11.742l0.413-11.748    l0.213-5.877l0.113-5.883c0.072-3.923,0.133-7.848,0.159-11.775C154.84,54.67,154.958,46.808,154.811,38.925z M150.239,62.475    c-1.129,15.64-1.539,31.323-1.466,47.072c0.004,3.918,0.014,7.82-0.07,11.686c-0.042,1.933-0.109,3.856-0.221,5.764l-0.042,0.715    l-0.054,0.655c-0.031,0.342-0.098,0.787-0.165,1.181c-0.146,0.81-0.351,1.619-0.615,2.417c-2.141,6.402-7.649,12.01-14.035,14.374    c-1.597,0.591-3.251,0.96-4.903,1.088l-5.784,0.282c-3.903,0.175-7.799,0.322-11.692,0.414    c-7.785,0.183-15.563,0.147-23.312-0.228c-3.521-0.214-7.055-0.408-10.581-0.555c-3.527-0.121-7.056-0.257-10.59,0.103    c-1.767,0.147-3.529,0.172-5.29,0.099l-5.284-0.136l-10.564-0.208l-10.548-0.162l-5.239-0.106    c-0.869-0.027-1.71-0.052-2.526-0.114c-0.733-0.06-1.544-0.162-2.299-0.306c-3.063-0.58-5.963-1.826-8.381-3.663    c-2.423-1.833-4.345-4.252-5.632-7.015c-1.294-2.764-1.967-5.852-2.13-9.018l-0.28-10.42c-0.183-7.009-0.292-14.021-0.357-21.033    L8.107,84.84l-0.066-5.26l-0.025-2.631c-0.002-0.893-0.043-1.939-0.112-2.852C7.583,70.4,6.962,67,6.619,63.592    c-0.38-3.387-0.606-6.743-0.305-9.944l0.023-0.243c0.004-0.044,0.005-0.089,0.003-0.134c-0.139-3.912-0.357-7.821-0.198-11.716    c0.168-3.891,0.427-7.797,0.683-11.729c0.078-0.982,0.129-1.993,0.233-2.829c0.101-0.824,0.264-1.686,0.477-2.506    c0.429-1.651,1.045-3.249,1.857-4.747c1.648-2.974,3.867-5.663,6.567-7.755c2.703-2.069,5.746-3.691,8.941-4.543    c0.796-0.214,1.603-0.38,2.41-0.477l2.844-0.274l5.822-0.497C43.77,5.66,51.609,5.595,59.443,5.448    c3.918-0.084,7.838-0.106,11.761-0.108l11.777-0.064c3.931-0.063,7.908,0,11.772,0.157l11.704,0.605    c3.903,0.13,7.81,0.13,11.71,0.178l5.84,0.111l2.9,0.086c0.948,0.028,1.967,0.054,2.729,0.123    c6.725,0.548,13.062,4.878,16.686,10.915c0.913,1.502,1.655,3.107,2.203,4.766c0.271,0.83,0.494,1.673,0.659,2.523    c0.082,0.425,0.153,0.852,0.205,1.28c0.056,0.417,0.09,0.854,0.132,1.364c0.323,3.858,0.538,7.746,0.704,11.642    C150.566,46.82,150.61,54.65,150.239,62.475z"/><path d="M133.682,72.478c-0.976,0.209-1.947,0.318-2.968,0.375c-1.014,0.053-2.043,0.047-3.071-0.008    c-0.147-0.009-0.296-0.025-0.443-0.036c0.612-0.223,1.218-0.48,1.81-0.779c2.427-1.214,4.645-3.222,5.834-5.879V66.15    c0.199-0.391,0.225-0.874,0.021-1.3c-0.348-0.729-1.22-1.038-1.948-0.69l-0.247,0.118c-0.737,0.351-1.817,0.633-2.827,0.828    c-1.032,0.197-2.09,0.324-3.137,0.384c-1.047,0.057-2.088,0.043-3.07-0.064c-0.473-0.051-0.936-0.131-1.363-0.235    c-0.246-1.048-0.522-2.11-0.911-3.22c-0.527-1.521-1.182-2.995-1.948-4.404c-1.524-2.829-3.541-5.359-5.85-7.61    c-1.17-1.107-2.418-2.164-3.838-2.968c-1.394-0.844-2.927-1.451-4.475-1.949c-0.753-0.241-1.522-0.431-2.3-0.573    c0.395-0.2,0.708-0.412,1.097-0.656c0.85-0.564,2.297-1.221,2.297-2.439v-0.001l0.113-0.071c0.049-0.102,0.122-0.212,0.139-0.329    c0.095-0.641-0.328-1.237-0.969-1.331c-1.286-0.189-2.144,0.051-3.067,0.236c-0.555,0.13-1.226,0.283-1.757,0.444    c0.31-0.511,0.541-1.089,0.541-1.712v-0.003l0.157-0.144c0.014-0.125,0.077-0.254,0.05-0.383c-0.139-0.638-0.732-1.042-1.37-0.904    c-1.837,0.399-3.555,1.026-5.195,1.84c-0.429,0.216-0.625,0.448-1.039,0.693c0.054-0.132,0.398-0.245,0.398-0.384v-0.004    l-0.211-0.067c0.033-0.317-0.152-0.647-0.348-0.93c-0.434-0.628-1.35-0.785-1.978-0.35c-1.189,0.823-2.312,1.76-3.329,2.755    c-1.039,0.974-2.008,2.024-2.887,3.125c-1.805,2.167-3.314,4.532-4.706,6.935c-1.422,2.391-2.607,4.892-3.839,7.357l-1.78,3.719    l-0.222,0.451c-1.837-1.753-3.839-3.415-6.272-4.842c-1.675-0.877-3.233-1.631-4.868-2.414c-1.626-0.757-3.224-1.577-4.958-2.094    l-2.602-0.753c-0.869-0.243-1.73-0.501-2.553-0.841c-1.646-0.683-3.274-1.401-4.901-2.125c-3.248-1.463-6.485-2.949-9.655-4.639    l-0.858-0.149c-0.162-0.027-0.33-0.035-0.501-0.021c-1.13,0.09-1.974,1.079-1.884,2.208c0.075,0.955,0.178,1.871,0.417,2.742    c0.203,0.874,0.473,1.713,0.819,2.507c0.691,1.583,1.534,3.052,2.604,4.32c0.844,1.105,1.815,2.241,2.838,3.144    c-0.718,0.077-1.432,0.438-2.146,0.438h-0.002l-0.299-0.065c-1.135,0.353-1.806,1.459-1.507,2.624    c0.426,1.655,1.083,3.279,2.064,4.76c0.968,1.485,2.241,2.729,3.636,3.694c1.006,0.693,2.054,1.234,3.123,1.687    c-0.373,0.133-0.745,0.277-1.106,0.458c-0.804,0.401-1.547,0.908-2.209,1.444l-0.002,0.003l-0.566,0.926    c-0.343,0.563-0.3,1.304,0.156,1.827c0.56,0.641,1.07,1.269,1.671,1.81c0.561,0.568,1.148,1.096,1.775,1.562    c1.255,0.925,2.566,1.722,3.968,2.287c1.298,0.552,2.652,0.906,4.015,1.169c-0.089,0.098-0.18,0.191-0.266,0.294    c-0.592,0.727-1.099,1.656-1.258,2.726c-0.175,1.064,0.049,2.189,0.517,3.087c0.963,1.818,2.594,2.848,4.219,3.43    c0.419,0.146,0.843,0.261,1.271,0.349c-1.872,1.661-3.99,3.058-6.265,4.147c-3.329,1.623-7.063,2.528-10.787,2.438    c-7.432-0.043-14.763-3.021-19.802-8.187l-0.005-0.005c-0.584-0.584-1.518-0.695-2.231-0.22c-0.814,0.542-1.034,1.642-0.491,2.455    l0.065,0.098c5.834,8.752,14.522,15.668,24.381,19.663c2.463,1.006,4.996,1.84,7.574,2.5c2.581,0.648,5.209,1.096,7.85,1.389    c5.283,0.575,10.633,0.495,15.887-0.25c5.247-0.784,10.402-2.194,15.271-4.292c1.219-0.518,2.422-1.074,3.605-1.666    c1.181-0.597,2.357-1.212,3.425-2.011c2.148-1.591,3.991-3.54,6.063-5.101c7.942-5.795,14.329-13.819,17.991-23.338    c2.1-0.204,4.208-0.641,6.225-1.444c2.57-1.008,4.934-2.667,6.693-4.758l0.121-0.144c0.311-0.375,0.455-0.885,0.345-1.399    C135.446,72.853,134.57,72.287,133.682,72.478z M127.131,76.178c-2.084,0.597-4.322,0.748-6.574,0.608    c-1.002-0.062-1.958,0.56-2.274,1.561l-0.087,0.275c-1.145,4.641-3.203,9.049-5.984,12.977c-2.777,3.933-6.24,7.401-10.135,10.313    c-3.924,2.879-8.209,5.262-12.687,7.267c-4.498,1.967-9.258,3.392-14.132,4.238c-9.729,1.716-20.044,0.993-29.295-2.684    c-5.512-2.087-10.583-5.237-14.955-9.154c3.73,1.43,7.729,2.108,11.745,2.144c2.063,0.017,4.157-0.092,6.188-0.565    c2.034-0.449,3.987-1.214,5.858-2.097c3.748-1.782,7.034-4.432,9.602-7.561l0.158-0.193c0.278-0.343,0.402-0.806,0.298-1.27    c-0.181-0.806-0.981-1.313-1.786-1.132l-0.007,0.002c-1.217,0.168-2.462,0.063-3.559-0.339c-1.092-0.388-2.042-1.119-2.428-1.917    c-0.377-0.786-0.258-1.509,0.403-2.322c0.661-0.795,1.771-1.464,2.962-1.969c0.635-0.27,1.057-0.924,0.997-1.648    c-0.074-0.905-0.868-1.785-1.773-1.711l-0.054-0.202h-0.005c-0.635,0-1.259,0.115-1.865,0.019    c-0.606-0.075-1.198-0.077-1.77-0.221c-1.146-0.273-2.221-0.606-3.187-1.153c-0.989-0.499-1.851-1.159-2.639-1.915    c-0.395-0.379-0.754-0.781-1.088-1.215c-0.027-0.033-0.051-0.063-0.078-0.096c0.322-0.291,0.671-0.557,1.087-0.793    c1.026-0.587,2.325-0.984,3.667-1.287l0.33-0.074c0.443-0.101,0.791-0.549,0.833-1.027c0.053-0.592-0.386-1.238-0.978-1.238    h-0.003c-2.758-1-5.396-2.041-7.303-3.837c-0.951-0.893-1.698-1.877-2.21-2.997c-0.222-0.476-0.394-0.956-0.537-1.467    c0.316-0.086,0.634-0.167,0.949-0.242c0.527-0.125,1.052-0.23,1.558-0.312c0.501-0.082,1.001-0.129,1.364-0.132l0.404-0.002    c0.687-0.007,1.337-0.197,1.628-0.868c0.394-0.909-0.024-2.144-0.934-2.144h-0.002c-0.673-1-1.299-0.762-1.933-1.073    c-0.604-0.355-1.192-0.845-1.757-1.256c-1.113-0.844-2.068-1.92-2.868-3.021c-0.732-1.146-1.346-2.387-1.609-3.665    c-0.044-0.223-0.072-0.458-0.101-0.681c2.349,0.757,4.685,1.541,7.005,2.373c3.304,1.201,6.614,2.402,9.784,3.912    c0.792,0.377,1.587,0.748,2.368,1.146l2.315,1.252c1.523,0.841,3.091,1.725,4.534,2.589c1.334,0.831,2.624,1.912,3.874,3.052    c1.24,1.161,2.416,2.433,3.593,3.712c0.205,0.221,0.464,0.414,0.756,0.545c1.168,0.524,2.723,0.002,3.246-1.165l0.303-0.263    v-0.001l0.906-3.921c0.383-1.295,0.716-2.571,1.141-3.843c0.841-2.55,1.836-5.008,2.963-7.408    c1.158-2.384,2.516-4.647,4.135-6.694c0.832-1.005,1.713-1.952,2.67-2.816c0.097-0.083,0.196-0.154,0.295-0.236l-0.032,0.055    c-0.096,0.182,0.069,0.41,0.243,0.528c0.186,0.128,0.68,0.08,0.68-0.106v-0.003c1-1.022,2.803-1.726,4.406-2.241    c0.926-0.291,1.815-0.511,2.763-0.669c-0.19,0.26-0.43,0.516-0.682,0.753c-0.776,0.736-1.775,1.348-2.813,1.813l-0.103,0.043    c-0.403,0.182-0.604,0.648-0.445,1.067c0.165,0.437,0.65,0.657,1.086,0.492v0l2.519-0.753c0.826-0.244,1.651-0.476,2.477-0.682    c0.415-0.104,0.831-0.202,1.244-0.29c-0.4,0.21-0.816,0.408-1.244,0.591c-0.801,0.345-1.636,0.647-2.483,0.929l-1.286,0.407    l-0.658,0.198c-0.238,0.075-0.415,0.119-0.764,0.25c-0.472,0.179-0.788,0.656-0.739,1.184c0.059,0.633,0.62,1.099,1.253,1.041    l0.035-0.003h0.001c1.393,0.058,2.741,0.258,4.064,0.527c1.321,0.294,2.597,0.739,3.853,1.228c1.26,0.496,2.417,1.208,3.603,1.877    c0.595,0.333,1.211,0.648,1.832,0.977c0.616,0.335,1.213,0.711,1.8,1.111c1.179,0.803,2.072,1.931,2.896,3.074    c0.836,1.14,1.521,2.383,2.114,3.652c0.559,1.289,0.99,2.622,1.313,3.963c0.086,0.333,0.149,0.679,0.19,1.002l0.076,0.538    l0.054,0.501c0.081,0.709,0.14,1.427,0.156,2.154c0.016,0.595,0.35,1.165,0.919,1.45l0.596,0.299l0.002,0.002    c1.477,0.454,2.821,0.524,4.107,0.5c1.285-0.034,2.516-0.191,3.719-0.418c0.551-0.106,1.093-0.232,1.633-0.37    c-0.344,0.25-0.698,0.487-1.072,0.699c-1.969,1.126-4.276,1.751-6.634,2.008l-0.072,0.008c-0.406,0.045-0.772,0.311-0.926,0.72    c-0.219,0.579,0.074,1.226,0.654,1.443v0.001c2.165,0.962,4.351,1.425,6.578,1.758c0.344,0.048,0.696,0.054,1.041,0.092    C127.987,75.898,127.564,76.055,127.131,76.178z"/></g></g></svg>