<?xml version="1.0" ?><!DOCTYPE svg  PUBLIC '-//W3C//DTD SVG 1.1//EN'  'http://www.w3.org/Graphics/SVG/1.1/DTD/svg11.dtd'><svg enable-background="new 0 0 1024 1024" height="1024px" id="Steam" version="1.1" viewBox="0 0 1024 1024" width="1024px" xml:space="preserve" xmlns="http://www.w3.org/2000/svg" xmlns:xlink="http://www.w3.org/1999/xlink"><g id="Background"><rect fill="#141414" height="1024" id="bg_1_" width="1024"/></g><g id="Steam_1_"><circle cx="761.354" cy="409.644" fill="#FFFFFF" r="60.589"/><path d="M608.563,515.391c-63.043,0-114.15,51.109-114.15,114.149c0,63.043,51.106,114.151,114.15,114.151   c63.04,0,114.149-51.108,114.149-114.151C722.711,566.5,671.604,515.391,608.563,515.391z M608.563,706.396   c-42.377,0-76.854-34.479-76.854-76.854s34.478-76.854,76.854-76.854c42.379,0,76.854,34.479,76.854,76.854   S650.94,706.396,608.563,706.396z" fill="#FFFFFF"/><path d="M761.354,280.309c-71.433,0-129.336,57.906-129.336,129.333c0,71.434,57.904,129.337,129.336,129.337   c71.427,0,129.334-57.903,129.334-129.337C890.688,338.215,832.78,280.309,761.354,280.309z M761.354,496.721   c-48.012,0-87.078-39.065-87.078-87.079c0-48.012,39.066-87.075,87.078-87.075c48.013,0,87.075,39.063,87.075,87.075   S809.366,496.721,761.354,496.721z" fill="#FFFFFF"/><path d="M242.378,387.396c-60.235,0-109.066,48.833-109.066,109.063c0,60.234,48.831,109.066,109.066,109.066   c60.23,0,109.063-48.832,109.063-109.066C351.441,436.229,302.609,387.396,242.378,387.396z M242.378,569.891   c-40.491,0-73.432-32.94-73.432-73.432c0-40.489,32.941-73.43,73.432-73.43c40.49,0,73.429,32.939,73.429,73.43   C315.808,536.949,282.868,569.891,242.378,569.891z" fill="#FFFFFF"/><polygon fill="#FFFFFF" points="719.181,611.579 606.443,515.391 634.867,436.764 793.62,534.922  "/><path d="M628.126,578.925c24.946,8.95,37.24,38.305,27.458,65.558l0,0c-9.782,27.253-37.936,42.088-62.88,33.135   l-361.333-129.69c-24.946-8.95-37.24-38.303-27.456-65.557l0,0c9.781-27.251,37.933-42.086,62.878-33.135L628.126,578.925z" fill="#FFFFFF"/></g></svg>