    <svg id="tallui-logo" xmlns="http://www.w3.org/2000/svg" viewBox="0 0 100 100" xmlns:xlink="http://www.w3.org/1999/xlink" width="100" height="100">
        <g id="Octagon1">
            <path fill="url(#gradient1)" stroke="#22D3EE" stroke-width="2" d="M14.3,15.5c0.2-0.5,0.6-0.9,1.1-1.1l19.7-8.2c0.5-0.2,1.1-0.2,1.6,0
                l19.7,8.2c0.5,0.2,0.9,0.6,1.1,1.1l8.2,19.7c0.2,0.5,0.2,1.1,0,1.6l-8.2,19.7c-0.2,0.5-0.6,0.9-1.1,1.1l-19.7,8.2
                c-0.5,0.2-1.1,0.2-1.6,0l-19.7-8.2c-0.5-0.2-0.9-0.6-1.1-1.1L6.1,36.8c-0.2-0.5-0.2-1.1,0-1.6L14.3,15.5z"/>
                <defs>
                    <linearGradient id="gradient1" x1="17" x2="1" y1="1" y2="17" gradientUnits="userSpaceOnUse">
                        <stop stop-color="#22D3EE" />
                        <stop offset="1" stop-color="#99F6E4" />
                    </linearGradient>
                </defs>
        </g>
        <g>
            <defs>
                <linearGradient id="gradient2" x1="33" x2="1" y1="17" y2="17" gradientUnits="userSpaceOnUse">
                    <stop stop-color="#1d8c9b" />
                    <stop offset="1" stop-color="#2786b2" />
                 </linearGradient>
                <polygon id="path2050" points="31.7,85.5 31.7,14.1 16.5,14.1 36,-10.8 55.5,14.1 40.3,14.1 40.3,85.5"/>
            </defs>
            <clipPath id="tall_arrow">
                <use xlink:href="#path2050" overflow="visible"/>
            </clipPath>
            <g id="Octagon2" clip-path="url(#tall_arrow)">
                <path fill="url(#gradient2)" d="M15.2,16.3c0.2-0.5,0.6-0.9,1.1-1.1l19-7.9c0.5-0.2,1-0.2,1.5,0l19,7.9
                    c0.5,0.2,0.9,0.6,1.1,1.1l7.9,19c0.2,0.5,0.2,1,0,1.5l-7.9,19c-0.2,0.5-0.6,0.9-1.1,1.1l-19,7.9c-0.5,0.2-1,0.2-1.5,0l-19-7.9
                    c-0.5-0.2-0.9-0.6-1.1-1.1l-7.9-19c-0.2-0.5-0.2-1,0-1.5L15.2,16.3z"/>
            </g>
        </g>
    </svg>
    