<svg id="visual" xmlns="http://www.w3.org/2000/svg" xmlns:xlink="http://www.w3.org/1999/xlink" viewBox="0 0 199.82833 230.75219"><defs><style>.cls-1,.cls-2{stroke:#297ea6;}.cls-1{fill:url(#Unbenannter_Verlauf_23);}.cls-2{fill:none;stroke-width:2px;}.cls-3{fill:#297ea6;}</style><linearGradient id="Unbenannter_Verlauf_23" x1="149.04527" y1="201.19684" x2="50.3933" y2="30.32662" gradientUnits="userSpaceOnUse"><stop offset="0" stop-color="#297ea6" stop-opacity="0.05"/><stop offset="1" stop-color="#001829"/></linearGradient></defs><polygon class="cls-1" points="198.439 172.68 99.719 229.597 1 172.68 1 58.844 99.719 1.926 198.439 58.844 198.439 172.68"/><path class="cls-2" d="M107.44515,10.01989l98.91416,57.11069V181.352l-98.91416,57.11069L8.531,181.352V67.13058Z" transform="translate(-7.53099 -8.86517)"/><polygon class="cls-3" points="114.677 221.073 99.914 229.597 85.151 221.073 85.151 11.277 114.677 11.277 114.677 221.073"/><polygon class="cls-3" points="112.516 24.044 1 88.428 1 58.265 99.746 1.926 112.516 24.044"/><polygon class="cls-3" points="86.923 24.044 198.439 88.428 198.439 58.265 99.693 1.926 86.923 24.044"/></svg>