<?xml version="1.0" ?><!DOCTYPE svg  PUBLIC '-//W3C//DTD SVG 1.1//EN'  'http://www.w3.org/Graphics/SVG/1.1/DTD/svg11.dtd'><svg enable-background="new 0 0 512 512" height="512px" id="Layer_1" version="1.1" viewBox="0 0 512 512" width="512px" xml:space="preserve" xmlns="http://www.w3.org/2000/svg" xmlns:xlink="http://www.w3.org/1999/xlink"><g id="_x32_CO_1_"><circle cx="256" cy="256" fill="#008FBE" r="256"/><path d="M189.849,286.417h-39.651c1.041-1.806,2.408-3.65,4.089-5.548c1.681-1.887,5.673-5.727,11.975-11.509   c6.296-5.781,10.651-10.207,13.071-13.287c3.644-4.64,6.313-9.082,7.994-13.32c1.682-4.241,2.522-8.704,2.522-13.396   c0-8.241-2.94-15.134-8.813-20.677c-5.868-5.54-13.949-8.312-24.227-8.312c-9.377,0-17.198,2.392-23.451,7.175   c-6.248,4.786-9.969,12.672-11.151,23.662l19.894,1.988c0.379-5.825,1.801-9.993,4.262-12.503c2.462-2.511,5.776-3.766,9.952-3.766   c4.209,0,7.517,1.196,9.909,3.588c2.392,2.391,3.585,5.816,3.585,10.266c0,4.027-1.372,8.1-4.122,12.222   c-2.034,2.986-7.549,8.669-16.552,17.054c-11.178,10.37-18.663,18.7-22.453,24.975c-3.785,6.275-6.063,12.924-6.823,19.932h69.99   V286.417z" fill="#FFFFFF"/><path d="M251.861,200.064c-29.053,0-52.613,23.554-52.613,52.611c0,29.056,23.56,52.61,52.613,52.61   c16.103,0,30.497-7.256,40.15-18.657c-4.746-5.603-8.319-12.214-10.391-19.465c-5.38,11.026-16.666,18.641-29.759,18.641   c-18.293,0-33.132-14.833-33.132-33.129c0-18.297,14.839-33.13,33.132-33.13c13.093,0,24.379,7.615,29.759,18.641   c2.072-7.254,5.646-13.862,10.391-19.468C282.358,207.319,267.964,200.064,251.861,200.064z" fill="#FFFFFF"/><path d="M343.242,200.064c-29.059,0-52.613,23.554-52.613,52.611c0,29.056,23.554,52.61,52.613,52.61   c29.054,0,52.608-23.554,52.608-52.61S372.296,200.064,343.242,200.064z" fill="#FFFFFF"/><path d="M343.242,285.805c-18.299,0-33.132-14.833-33.132-33.129c0-18.297,14.833-33.13,33.132-33.13   c18.294,0,33.127,14.833,33.127,33.13C376.369,270.971,361.536,285.805,343.242,285.805z" fill="#008FBE"/></g></svg>