<?xml version="1.0" ?><!DOCTYPE svg  PUBLIC '-//W3C//DTD SVG 1.1//EN'  'http://www.w3.org/Graphics/SVG/1.1/DTD/svg11.dtd'><svg enable-background="new 0 0 512 512" height="512px" id="Layer_1" version="1.1" viewBox="0 0 512 512" width="512px" xml:space="preserve" xmlns="http://www.w3.org/2000/svg" xmlns:xlink="http://www.w3.org/1999/xlink"><g id="Google"><circle cx="256" cy="256" fill="#023C59" r="256"/><g id="g3025_1_"><path d="M216.067,242.474c-14.893-19.415-35.635-36.419-59.13-48.312    c-3.586-1.812-7.606-2.761-11.648-2.761c-9.157,0-17.51,4.722-21.818,12.336c-6.431,11.365-1.892,25.54,10.128,31.63    c36.26,18.335,59.651,53.311,62.397,93.736c0,0-0.007-0.092-0.007-0.104c-0.411-4.506,0.36-8.909,2.56-13.1    c0.293-0.584,0.642-1.203,1.078-1.883c11.311-17.604,17.288-37.868,17.288-58.592c0-4.346-0.321-8.662-0.851-12.95" fill="#2776BC" id="path34_1_"/><path d="M359.598,198.494c-4.37-18.083-10.856-35.736-19.29-52.494    c-4.511-8.952-14.199-14.738-24.703-14.738c-4.06,0-8.012,0.846-11.71,2.511c-13.606,6.121-19.399,21.599-12.931,34.421    c13.879,27.656,20.738,56.878,20.738,87.229s-6.896,59.537-20.509,86.738c-0.205,0.415-2.585,5.232-2.585,10.795    c-0.024,1.56,0.176,3.895,0.698,5.984c1.762,7.31,6.821,13.944,14.914,17.612c3.7,1.648,7.611,2.485,11.664,2.485    c9.962,0,19.193-5.211,23.957-13.396c5.454-9.672,10.959-22.375,15.756-38.728c1.515-4.926,2.788-9.553,3.982-14.551    c4.441-18.462,6.766-37.49,6.766-56.939C366.347,236.205,364.021,216.904,359.598,198.494" fill="#49AE48" id="path36_1_"/><path d="M244.222,171.471c-0.478-0.76-1.036-1.467-1.593-2.165    c-1.81-2.255-3.979-4.125-6.416-5.638c-4.128-2.555-9.09-4.04-14.118-4.04c-4.173,0-6.311,0.479-9.314,1.616    c-3.081,1.16-6.35,2.748-9.304,5.696c-2.933,2.923-4.693,5.904-5.922,9.014c-2.475,6.235-2.176,14.431,2.142,20.993    c9.072,13.785,14.413,29.424,16.369,45.527c0.528,4.288,0.849,8.604,0.849,12.95c0,20.724-5.977,40.988-17.288,58.592    c-0.394,0.618-0.743,1.253-1.078,1.883c-2.2,4.191-2.993,8.738-2.556,13.155c0.749,7.483,5.063,14.566,12.365,18.755    c1.883,1.071,3.881,1.882,5.948,2.482c2.448,0.697,4.975,1.092,7.537,1.092c9.18,0,17.505-4.423,22.267-11.834    c14.325-22.297,22.686-47.523,24.477-73.541c0.237-3.518,0.363-7.045,0.363-10.586    C268.951,225.765,260.404,196.736,244.222,171.471" fill="#EC184D" id="path38_1_"/><path d="M291.184,342.162c13.622-27.201,20.519-56.387,20.519-86.738    c0-10.433-0.754-18.04-1.328-22.856c-17.892-27.053-43.843-51.234-74.223-68.937c0.027,0.013,0.702,0.446,0.753,0.475    c2.105,1.431,3.876,2.932,5.725,5.199c0.45,0.558,1.078,1.346,1.593,2.165c16.182,25.265,24.729,54.294,24.729,83.954    c0,3.538-0.126,7.068-0.363,10.586c12.977,23.336,20.055,49.862,20.055,77.695c0,2.213,0.042,5.77-0.015,8.367    c0.127-2.909,0.899-5.982,2.01-8.664C290.814,342.981,290.988,342.563,291.184,342.162" fill="#F9BF1A" id="path40_1_"/></g></g></svg>