<?xml version="1.0" ?><!DOCTYPE svg  PUBLIC '-//W3C//DTD SVG 1.1//EN'  'http://www.w3.org/Graphics/SVG/1.1/DTD/svg11.dtd'><svg enable-background="new 0 0 512 512" height="512px" id="Layer_1" version="1.1" viewBox="0 0 512 512" width="512px" xml:space="preserve" xmlns="http://www.w3.org/2000/svg" xmlns:xlink="http://www.w3.org/1999/xlink"><g id="Maestro"><circle cx="256" cy="256" fill="#143B44" r="256"/><g><path d="M253.101,326.067c19.187-17.147,31.295-42.036,31.295-69.692c0-27.655-12.108-52.544-31.295-69.877    c-16.764-15.117-39.118-24.336-63.706-24.336c-52.531,0-95.188,42.22-95.188,94.213c0,51.992,42.657,94.027,95.188,94.027    C213.983,350.401,236.337,341.184,253.101,326.067L253.101,326.067z" fill="#009DDD"/><path d="M253.101,326.067c19.187-17.147,31.295-42.036,31.295-69.692c0-27.655-12.108-52.544-31.295-69.877    V326.067L253.101,326.067z" fill="#009DDD"/><path d="M316.997,162.162c-24.59,0-46.944,9.219-63.896,24.336c-3.352,3.134-6.519,6.454-9.497,9.955h19.183    c2.608,3.135,5.031,6.638,7.266,9.958h-33.716c-2.05,3.319-3.913,6.636-5.587,9.955h44.706c1.49,3.319,2.981,6.637,4.097,9.955    h-52.717c-1.117,3.32-2.049,6.637-2.795,10.141h58.307c1.303,6.268,2.047,13.09,2.047,19.912c0,10.324-1.678,20.465-4.843,29.867    h-52.717c1.117,3.32,2.422,6.638,3.913,9.956h44.706c-1.677,3.318-3.354,6.819-5.403,9.955h-33.716    c2.235,3.504,4.657,6.823,7.267,9.956h19.183c-2.978,3.504-6.147,6.822-9.686,9.958c16.952,15.117,39.306,24.335,63.896,24.335    c52.529,0,94.999-42.035,94.999-94.027C411.997,204.382,369.526,162.162,316.997,162.162L316.997,162.162z" fill="#ED1C2E"/><polygon fill="#FFFFFF" points="177.472,279.789 165.552,279.789 172.629,243.099 156.423,279.789 145.62,279.789     143.758,243.285 136.679,279.789 125.875,279.789 135.001,232.038 153.629,232.038 154.56,261.536 167.6,232.038 186.787,232.038       "/><path d="M309.73,279.237c-3.352,0.921-5.778,1.289-8.567,1.289c-5.963,0-9.314-2.95-9.314-8.481    c0-1.106,0.185-2.212,0.37-3.502l0.745-3.871l0.558-2.95l5.406-29.684h11.733l-1.674,8.849h6.145l-1.673,9.404h-6.151    l-2.98,16.224c-0.185,0.739-0.376,1.29-0.376,1.659c0,2.028,1.306,2.952,4.101,2.952c1.305,0,2.42-0.184,3.165-0.37    L309.73,279.237L309.73,279.237z" fill="#FFFFFF"/><path d="M344.191,241.256c-0.933-0.369-1.118-0.369-1.305-0.369c-0.558-0.183-0.93-0.183-0.93-0.369    c-0.372,0-0.742,0-1.306,0c-3.91,0-6.702,1.66-10.243,6.268l1.118-5.9h-10.806l-7.26,38.902h11.919    c4.285-23.782,5.963-28.024,11.735-28.024c0.372,0,0.93,0.183,1.488,0.183l1.307,0.369L344.191,241.256L344.191,241.256z" fill="#FFFFFF"/><path d="M262.787,253.24c0,4.795,2.794,8.296,9.131,10.693c4.843,2.029,5.585,2.581,5.585,4.426    c0,2.396-2.235,3.502-6.893,3.502c-3.537,0-6.889-0.552-10.8-1.659l-1.493,9.036h0.558l2.049,0.552    c0.749,0,1.863,0.184,3.167,0.184c2.797,0.37,5.031,0.37,6.707,0.37c12.482,0,18.445-4.057,18.445-12.906    c0-5.346-2.423-8.482-8.571-10.878c-5.031-1.844-5.588-2.398-5.588-4.241c0-2.027,2.051-3.133,5.962-3.133    c2.235,0,5.59,0.185,8.567,0.552l1.676-8.849c-3.166-0.553-7.824-0.737-10.432-0.737    C267.445,240.15,262.787,246.049,262.787,253.24L262.787,253.24z" fill="#FFFFFF"/><path d="M215.847,279.789h-9.687l0.186-4.056c-2.982,3.135-7.079,4.61-12.481,4.61    c-6.333,0-10.803-4.241-10.803-10.51c0-9.404,7.636-14.936,20.863-14.936c1.302,0,2.98,0,4.842,0.186    c0.374-1.29,0.374-1.844,0.374-2.398c0-2.58-2.05-3.502-7.638-3.502c-3.354,0-7.079,0.369-9.687,0.922l-1.676,0.553l-1.117,0.183    l1.675-8.664c5.961-1.475,9.686-2.029,14.158-2.029c10.244,0,15.46,3.873,15.46,11.247c0,2.027-0.185,3.501-0.93,7.744    l-2.422,13.825l-0.372,2.398l-0.374,2.028l-0.185,1.29L215.847,279.789L215.847,279.789z M207.277,262.458    c-1.304-0.184-1.862-0.184-2.608-0.184c-6.706,0-10.06,2.029-10.06,5.899c0,2.398,1.492,4.058,4.099,4.058    C203.552,272.23,207.09,268.173,207.277,262.458L207.277,262.458z" fill="#FFFFFF"/><path d="M254.779,278.868c-4.097,1.105-8.011,1.658-12.108,1.658c-13.226,0-20.12-6.085-20.12-17.515    c0-13.275,8.756-23.047,20.68-23.047c9.685,0,15.832,5.531,15.832,14.014c0,2.949-0.372,5.716-1.303,9.585h-23.658    c0,0.74,0,0.923,0,1.292c0,4.425,3.354,6.823,10.246,6.823c4.283,0,8.197-0.737,12.292-2.398L254.779,278.868L254.779,278.868z     M248.445,255.821c0-0.737,0-1.475,0-2.028c0-3.134-2.049-4.977-5.588-4.977c-3.726,0-6.334,2.581-7.452,7.005H248.445    L248.445,255.821z" fill="#FFFFFF"/><path d="M381.077,262.091c-1.866,12.905-10.994,18.618-23.103,18.618c-13.223,0-18.626-7.926-18.626-17.882    c0-13.642,9.126-23.046,23.285-23.046c12.294,0,18.814,7.743,18.814,17.515C381.447,259.694,381.447,259.876,381.077,262.091    L381.077,262.091z M368.781,257.114c0-4.057-1.678-7.744-6.521-7.744c-5.96,0-9.686,7.005-9.686,13.273    c0,5.162,2.608,8.666,6.706,8.666c2.608,0,8.196-3.504,9.129-9.404C368.781,260.43,368.781,258.771,368.781,257.114    L368.781,257.114z" fill="#FFFFFF"/></g></g></svg>