<?xml version="1.0" ?><!DOCTYPE svg  PUBLIC '-//W3C//DTD SVG 1.1//EN'  'http://www.w3.org/Graphics/SVG/1.1/DTD/svg11.dtd'><svg enable-background="new 0 0 512 512" height="512px" id="Layer_1" version="1.1" viewBox="0 0 512 512" width="512px" xml:space="preserve" xmlns="http://www.w3.org/2000/svg" xmlns:xlink="http://www.w3.org/1999/xlink"><g id="Skrill"><circle cx="256" cy="256" fill="#7F2371" r="256"/><path d="M343.762,214.91l25.94-4.39v94.142h-25.94V214.91z M381.647,214.91v89.752h25.967V210.52L381.647,214.91z    M306.8,304.662h25.965v-68.857H306.8V304.662z M135.263,245.543c-3.282-0.204-10.877-0.667-10.877-7.13   c0-7.799,10.936-7.799,15.037-7.799c7.213,0,16.553,2.014,23.222,3.9c0,0,3.722,1.24,6.889,2.51l0.295,0.075v-0.283V215.74   l-0.407-0.112c-7.871-2.604-17.026-5.108-33.995-5.108c-29.26,0-39.627,16.111-39.627,29.912c0,7.956,3.608,26.681,37.118,28.841   c2.842,0.165,10.38,0.575,10.38,7.254c0,5.515-6.172,8.766-16.553,8.766c-11.377,0-22.414-2.743-29.116-5.343v21.998   c10.035,2.486,21.346,3.728,34.605,3.728c28.609,0,41.424-15.243,41.424-30.351C173.657,258.196,159.317,247.067,135.263,245.543z    M292.172,234.797c-23.99,0.728-36.17,10.901-36.17,31.123v38.741h26.174V273.07c0-12.11,1.678-17.3,16.881-17.795v-20.122   C296.498,234.639,292.172,234.797,292.172,234.797z M221.754,235.728c-0.576,1.371-4.732,12.468-14.785,23.969V210.52   l-26.786,5.004v89.138h26.786v-27.554c7.757,10.997,11.588,27.554,11.588,27.554h32.082c-3.171-12.469-17.056-35.461-17.056-35.461   c12.46-14.929,17.932-30.837,18.803-33.473H221.754z M319.776,229.201c7.069,0,12.797-5.413,12.797-12.089   c0-6.678-5.728-12.095-12.797-12.095c-7.059,0-12.788,5.417-12.788,12.095C306.988,223.788,312.717,229.201,319.776,229.201z" fill="#FFFFFF"/></g></svg>