<?xml version="1.0" ?><!DOCTYPE svg  PUBLIC '-//W3C//DTD SVG 1.1//EN'  'http://www.w3.org/Graphics/SVG/1.1/DTD/svg11.dtd'><svg enable-background="new 0 0 512 512" height="512px" id="Layer_1" version="1.1" viewBox="0 0 512 512" width="512px" xml:space="preserve" xmlns="http://www.w3.org/2000/svg" xmlns:xlink="http://www.w3.org/1999/xlink"><g id="Solo"><circle cx="256" cy="256" fill="#CA3092" r="256"/><path d="M295.317,237.631c22.489,34.535,12.724,80.763-21.811,103.253c-34.535,22.489-80.763,12.725-103.253-21.81   l21.44-14.407c14.604,22.426,44.623,28.767,67.048,14.163c22.425-14.603,28.765-44.623,14.162-67.048L295.317,237.631z" fill="#FFFFFF"/><path d="M345.213,205.932c-22.533-34.504-68.776-44.21-103.282-21.676c-34.506,22.536-44.21,68.777-21.676,103.283l21.829-13.812   c-14.633-22.406-8.332-52.434,14.076-67.066c22.405-14.633,52.432-8.331,67.064,14.076L345.213,205.932z"/><path d="M114,255.282c0-78.268,63.451-141.718,141.718-141.718s141.718,63.451,141.718,141.718   S333.985,397,255.718,397S114,333.55,114,255.282z M255.718,387.079c72.788,0,131.797-59.008,131.797-131.797   s-59.009-131.797-131.797-131.797s-131.797,59.008-131.797,131.797S182.93,387.079,255.718,387.079z" fill="#FFFFFF"/></g></svg>