<?xml version="1.0" ?><!DOCTYPE svg  PUBLIC '-//W3C//DTD SVG 1.1//EN'  'http://www.w3.org/Graphics/SVG/1.1/DTD/svg11.dtd'><svg enable-background="new 0 0 512 512" height="512px" id="Layer_1" version="1.1" viewBox="0 0 512 512" width="512px" xml:space="preserve" xmlns="http://www.w3.org/2000/svg" xmlns:xlink="http://www.w3.org/1999/xlink"><g id="Switch"><circle cx="256" cy="256" fill="#009060" r="256"/><g id="Layer_14"><path d="M197.213,248.605l-18.862,19.202c12.797,12.573,30.531,20.371,50.141,20.371    c38.995,0,70.605-30.785,70.605-68.756c0-20.198-8.997-38.304-23.237-50.883l-18.695,19.031    c8.439,7.915,13.764,19.235,13.764,31.851c0,23.908-19,43.29-42.438,43.29C216.094,262.712,204.974,257.252,197.213,248.605z" fill="#FFFFFF"/><path d="M286.025,130.296c-38.992,0-70.606,30.782-70.606,68.756c0,20.198,9.001,38.304,23.24,50.883l18.695-19.035    c-8.441-7.912-13.767-19.231-13.767-31.848c0-23.911,19-43.29,42.439-43.29c12.398,0,23.522,5.457,31.282,14.107l18.862-19.205    C323.372,138.092,305.638,130.296,286.025,130.296z"/><polygon fill="#FFFFFF" points="325.587,356.609 328.812,340.941 342.162,340.941 338.937,356.609 346.047,356.609     353.252,321.536 346.164,321.536 343.364,335.08 330.014,335.08 332.792,321.536 325.705,321.536 318.475,356.609   "/><path d="M289.694,353.358c2.377,2.585,5.675,3.873,9.901,3.873c3.748,0,7.024-1.043,9.815-3.119    c2.796-2.086,4.891-5.097,6.287-9.034l-7.156-1.097c-0.752,2.375-1.895,4.167-3.425,5.381c-1.53,1.214-3.214,1.817-5.051,1.817    c-1.978,0-3.631-0.764-4.955-2.296c-1.329-1.533-1.991-3.697-1.991-6.508c0-2.571,0.509-5.141,1.53-7.716    c1.021-2.576,2.382-4.465,4.084-5.68c1.704-1.214,3.537-1.817,5.498-1.817c1.79,0,3.222,0.455,4.297,1.376    c1.077,0.916,1.802,2.394,2.179,4.436l6.804-0.671c-0.409-3.51-1.765-6.282-4.074-8.314c-2.306-2.032-5.33-3.05-9.066-3.05    c-3.327,0-6.402,0.877-9.228,2.634c-2.827,1.753-5.034,4.284-6.629,7.595c-1.591,3.31-2.387,6.958-2.387,10.943    C286.127,347.027,287.314,350.772,289.694,353.358z" fill="#FFFFFF"/><polygon fill="#FFFFFF" points="261.992,356.609 269.102,356.609 275.105,327.397 285.089,327.397 286.291,321.536     259.096,321.536 257.896,327.397 268.02,327.397   "/><polygon fill="#FFFFFF" points="247.489,356.609 254.692,321.536 247.607,321.536 240.377,356.609   "/><polygon fill="#FFFFFF" points="197.247,356.609 204.57,356.609 217.144,330.962 217.92,356.609 225.1,356.609 241.795,321.536     234.92,321.536 223.546,345.822 222.745,321.536 215.048,321.536 203.203,346.087 202.898,321.536 195.952,321.536   "/><path d="M162.448,351.463c0.896,1.807,2.429,3.212,4.603,4.226s4.745,1.518,7.709,1.518    c4.301,0,7.658-1.092,10.067-3.285c2.409-2.194,3.614-4.838,3.614-7.933c0-2.507-0.808-4.554-2.426-6.15    c-1.082-1.082-3.609-2.497-7.58-4.235c-2.637-1.166-4.341-2.081-5.11-2.752c-0.769-0.651-1.153-1.484-1.153-2.487    c0-1.067,0.421-1.953,1.261-2.654c0.837-0.7,2.24-1.052,4.201-1.052c1.993,0,3.499,0.445,4.52,1.342    c1.021,0.891,1.618,2.174,1.792,3.848l6.803-0.313c-0.22-3.202-1.44-5.768-3.662-7.702c-2.221-1.929-5.354-2.894-9.406-2.894    c-3.988,0-7.034,0.975-9.134,2.919c-2.105,1.949-3.156,4.392-3.156,7.344c0,1.689,0.355,3.168,1.06,4.426s1.675,2.287,2.909,3.075    c1.231,0.788,3.185,1.772,5.861,2.958c2.676,1.175,4.313,2.032,4.909,2.556c0.849,0.72,1.271,1.596,1.271,2.629    c0,1.2-0.516,2.218-1.552,3.066c-1.038,0.847-2.715,1.268-5.039,1.268c-2.793,0-4.71-0.622-5.743-1.866    c-0.644-0.764-1.013-2.238-1.107-4.426l-6.759,0.362C161.136,347.59,161.552,349.666,162.448,351.463z" fill="#FFFFFF"/></g></g></svg>