<?xml version="1.0" ?><!DOCTYPE svg  PUBLIC '-//W3C//DTD SVG 1.1//EN'  'http://www.w3.org/Graphics/SVG/1.1/DTD/svg11.dtd'><svg enable-background="new 0 0 512 512" height="512px" id="Layer_1" version="1.1" viewBox="0 0 512 512" width="512px" xml:space="preserve" xmlns="http://www.w3.org/2000/svg" xmlns:xlink="http://www.w3.org/1999/xlink"><g id="Visa_electron"><circle cx="256" cy="256" fill="#002D44" r="256"/><g><g><polygon fill="#FFFFFF" points="228.716,287.899 203.038,287.899 219.088,194.676 244.767,194.676    "/><path d="M181.433,194.676l-24.483,64.117l-2.895-13.807l0.002,0.005l-8.641-41.919c0,0-1.044-8.396-12.182-8.396     H92.763l-0.473,1.577c0,0,12.38,2.433,26.861,10.659l22.31,80.987h26.755l40.856-93.223H181.433z" fill="#FFFFFF"/><path d="M383.418,287.899h23.578l-20.559-93.223h-20.646c-9.533,0-11.854,6.947-11.854,6.947l-38.295,86.276     h26.764l5.354-13.847h32.646L383.418,287.899z M355.161,254.921l13.493-34.886l7.59,34.886H355.161z" fill="#FFFFFF"/><path d="M317.648,217.093l3.665-20.022c0,0-11.308-4.064-23.097-4.064c-12.743,0-43.006,5.268-43.006,30.861     c0,24.086,35.518,24.386,35.518,37.032c0,12.646-31.856,10.386-42.369,2.408l-3.821,20.928c0,0,11.466,5.267,28.989,5.267     c17.521,0,43.961-8.579,43.961-31.915c0-24.237-35.838-26.495-35.838-37.032C281.651,210.017,306.659,211.371,317.648,217.093z" fill="#FFFFFF"/></g><path d="M154.058,244.991l-8.641-41.919c0,0-1.044-8.396-12.182-8.396H92.763l-0.473,1.577    c0,0,19.453,3.811,38.114,18.086C148.24,227.984,154.058,244.991,154.058,244.991z" fill="#FAA634"/></g><g id="Layer_19"><path d="M361.976,325.544c0.937,1.762,2.31,3.1,4.112,4.012c1.801,0.913,3.696,1.369,5.684,1.369    c3.209,0,5.873-1.095,7.99-3.286c2.114-2.192,3.173-4.954,3.173-8.286c0-3.304-1.049-6.038-3.143-8.201    c-2.095-2.163-4.784-3.247-8.062-3.247c-2.123,0-4.046,0.478-5.766,1.432c-1.723,0.954-3.053,2.337-3.99,4.148    c-0.94,1.809-1.408,3.684-1.408,5.619C360.568,321.633,361.036,323.781,361.976,325.544z" fill="#FFFFFF"/><path d="M345.382,330.428h5.736v-6.803c0-3.747,0.16-6.208,0.48-7.383s0.759-1.987,1.315-2.437    c0.559-0.449,1.24-0.674,2.042-0.674c0.828,0,1.726,0.318,2.694,0.954l1.776-5.08c-1.212-0.733-2.469-1.1-3.776-1.1    c-0.927,0-1.753,0.237-2.48,0.706c-0.728,0.47-1.549,1.444-2.461,2.924v-3.131h-5.327v22.024H345.382z" fill="#FFFFFF"/><path d="M329.341,313.048h2.633v9.602c0,2.06,0.063,3.429,0.184,4.105c0.15,0.954,0.42,1.711,0.808,2.271    c0.386,0.561,0.995,1.017,1.827,1.369c0.83,0.354,1.762,0.529,2.794,0.529c1.687,0,3.197-0.291,4.531-0.871l-0.488-4.521    c-1.008,0.373-1.777,0.56-2.306,0.56c-0.382,0-0.706-0.097-0.969-0.291c-0.265-0.192-0.435-0.439-0.51-0.735    c-0.075-0.298-0.114-1.346-0.114-3.143v-8.876h3.918v-4.645h-3.918v-7.777l-5.755,3.401v4.376h-2.633v4.646H329.341z" fill="#FFFFFF"/><path d="M310.024,327.877c1.886,2.032,4.412,3.048,7.582,3.048c2.791,0,5.015-0.67,6.674-2.012    c1.661-1.34,2.782-3.325,3.367-5.951l-5.633-0.975c-0.284,1.534-0.774,2.616-1.47,3.245c-0.694,0.629-1.583,0.944-2.672,0.944    c-1.457,0-2.616-0.539-3.481-1.617c-0.864-1.078-1.294-2.925-1.294-5.538c0-2.35,0.424-4.026,1.276-5.029    c0.849-1.002,1.99-1.504,3.417-1.504c1.075,0,1.949,0.291,2.624,0.871c0.672,0.582,1.104,1.446,1.294,2.592l5.655-1.036    c-0.68-2.364-1.799-4.124-3.359-5.279c-1.558-1.153-3.657-1.731-6.295-1.731c-3.226,0-5.784,1.014-7.674,3.039    c-1.893,2.025-2.838,4.855-2.838,8.492C307.198,323.032,308.14,325.844,310.024,327.877z" fill="#FFFFFF"/><path d="M285.687,327.171c1.811,2.503,4.599,3.753,8.369,3.753c2.381,0,4.363-0.556,5.949-1.668    c1.585-1.114,2.745-2.735,3.478-4.864l-5.713-0.975c-0.315,1.107-0.777,1.908-1.389,2.406c-0.611,0.497-1.366,0.747-2.264,0.747    c-1.32,0-2.424-0.481-3.308-1.442s-1.347-2.304-1.388-4.034h14.368c0.081-4.464-0.808-7.779-2.674-9.942    c-1.862-2.163-4.408-3.247-7.633-3.247c-2.871,0-5.243,1.034-7.121,3.1c-1.879,2.068-2.818,4.925-2.818,8.575    C283.544,322.637,284.26,325.166,285.687,327.171z" fill="#FFFFFF"/><rect fill="#FFFFFF" height="30.402" width="5.735" x="273.606" y="300.026"/><polygon fill="#FFFFFF" points="245.767,330.428 268.523,330.428 268.523,325.305 251.81,325.305 251.81,317.031 266.831,317.031     266.831,311.909 251.81,311.909 251.81,305.169 267.952,305.169 267.952,300.026 245.767,300.026   "/><path d="M407.14,316.74c0-1.701-0.107-3.007-0.316-3.92c-0.212-0.911-0.585-1.728-1.123-2.447    c-0.539-0.718-1.332-1.31-2.378-1.772c-1.048-0.463-2.204-0.696-3.47-0.696c-2.871,0-5.254,1.245-7.145,3.733v-3.235h-5.325    v22.024h5.735v-9.976c0-2.459,0.145-4.147,0.439-5.06c0.293-0.912,0.832-1.644,1.622-2.197c0.788-0.553,1.679-0.83,2.674-0.83    c0.774,0,1.439,0.194,1.99,0.58c0.551,0.388,0.947,0.93,1.194,1.629c0.245,0.697,0.367,2.235,0.367,4.614v11.24h5.735V316.74    H407.14z" fill="#FFFFFF"/><path d="M293.83,312.365c1.172,0,2.163,0.439,2.981,1.316c0.816,0.879,1.243,2.162,1.284,3.847h-8.572    c-0.012-1.59,0.388-2.847,1.204-3.774C291.546,312.827,292.58,312.365,293.83,312.365z" fill="#002D44"/><path d="M371.752,312.655c1.495,0,2.752,0.58,3.765,1.742c1.014,1.162,1.519,2.82,1.519,4.976    c0,2.212-0.505,3.9-1.519,5.061c-1.014,1.16-2.27,1.742-3.765,1.742c-1.498,0-2.755-0.582-3.776-1.742    c-1.021-1.162-1.531-2.835-1.531-5.019c0-2.184,0.51-3.857,1.531-5.019C368.996,313.235,370.254,312.655,371.752,312.655z" fill="#002D44"/></g></g></svg>