<?xml version="1.0" ?><!DOCTYPE svg  PUBLIC '-//W3C//DTD SVG 1.1//EN'  'http://www.w3.org/Graphics/SVG/1.1/DTD/svg11.dtd'><svg enable-background="new 0 0 512 512" height="512px" id="Layer_1" version="1.1" viewBox="0 0 512 512" width="512px" xml:space="preserve" xmlns="http://www.w3.org/2000/svg" xmlns:xlink="http://www.w3.org/1999/xlink"><g id="Wire_transfer"><circle cx="256" cy="256" fill="#2363AF" r="256"/><g><g><path d="M98.567,281.299l1.786-8.169h5.682l1.42-6.52l13.351-7.594l-3.125,14.115h7.102l-1.786,8.169h-7.142     l-3.774,17.068c-0.677,3.094-1.015,4.859-1.015,5.293c0,0.844,0.284,1.503,0.852,1.975c0.568,0.473,1.596,0.71,3.084,0.71     c0.514,0,1.799-0.09,3.855-0.269l-1.826,8.17c-2.003,0.383-4.058,0.575-6.168,0.575c-4.113,0-7.101-0.747-8.968-2.244     c-1.866-1.496-2.8-3.573-2.8-6.232c0-1.253,0.5-4.142,1.501-8.669l3.612-16.378L98.567,281.299L98.567,281.299z" fill="#FFFFFF"/><path d="M131.681,273.13h10.875l-1.745,7.901c4.058-5.906,8.454-8.86,13.189-8.86     c1.677,0,3.476,0.396,5.397,1.189l-4.464,9.013c-1.055-0.357-2.178-0.537-3.368-0.537c-2.002,0-4.038,0.716-6.107,2.148     c-2.07,1.432-3.687,3.344-4.85,5.735c-1.163,2.391-2.313,6.181-3.449,11.372l-2.841,12.772h-11.646L131.681,273.13z" fill="#FFFFFF"/><path d="M172.1,284.675l-11.363-0.921c1.299-3.631,3.564-6.469,6.797-8.515c3.233-2.045,7.514-3.068,12.844-3.068     c5.545,0,9.644,1.055,12.296,3.165c2.651,2.109,3.977,4.685,3.977,7.728c0,1.227-0.115,2.531-0.345,3.912     c-0.23,1.381-1.035,5.012-2.414,10.893c-1.137,4.858-1.705,8.259-1.705,10.202c0,1.739,0.325,3.67,0.974,5.792h-11.322     c-0.46-1.483-0.744-3.017-0.852-4.603c-1.705,1.79-3.666,3.164-5.884,4.123c-2.219,0.96-4.451,1.439-6.696,1.439     c-3.571,0-6.52-1.105-8.847-3.318c-2.327-2.212-3.49-5.056-3.49-8.534c0-3.887,1.278-6.993,3.835-9.32     c2.557-2.326,7.122-3.733,13.696-4.219c5.546-0.435,9.253-0.959,11.119-1.573c0.487-1.534,0.731-2.762,0.731-3.683     c0-1.175-0.501-2.159-1.502-2.953c-1.001-0.792-2.489-1.189-4.464-1.189c-2.084,0-3.727,0.403-4.93,1.208     C173.351,282.047,172.532,283.193,172.1,284.675z M183.178,294.877c-0.704,0.179-1.637,0.346-2.8,0.499     c-5.843,0.665-9.658,1.636-11.444,2.914c-1.272,0.921-1.907,2.161-1.907,3.72c0,1.279,0.487,2.359,1.461,3.241     s2.258,1.323,3.855,1.323c1.758,0,3.415-0.403,4.971-1.208c1.555-0.806,2.719-1.841,3.49-3.107     c0.771-1.265,1.454-3.241,2.049-5.926L183.178,294.877z" fill="#FFFFFF"/><path d="M211.058,273.13h11.037l-1.136,5.293c2.76-2.25,5.336-3.854,7.731-4.813     c2.394-0.959,4.916-1.438,7.569-1.438c3.543,0,6.336,0.959,8.38,2.876c2.042,1.918,3.063,4.463,3.063,7.633     c0,1.433-0.447,4.143-1.339,8.132l-5.072,23.051h-11.647l5.113-23.128c0.758-3.451,1.137-5.509,1.137-6.175     c0-1.406-0.44-2.512-1.32-3.317c-0.878-0.805-2.103-1.208-3.672-1.208c-1.705,0-3.599,0.678-5.682,2.032     c-2.083,1.357-3.72,3.145-4.91,5.37c-0.866,1.586-1.839,4.82-2.922,9.704l-3.693,16.722h-11.646L211.058,273.13z" fill="#FFFFFF"/><path d="M251.151,302.471l11.282-1.687c1,2.25,2.245,3.842,3.734,4.775c1.487,0.934,3.517,1.399,6.086,1.399     c2.652,0,4.776-0.562,6.372-1.687c1.109-0.767,1.663-1.701,1.663-2.8c0-0.741-0.284-1.406-0.852-1.995     c-0.595-0.562-2.205-1.252-4.829-2.07c-7.035-2.199-11.39-3.938-13.067-5.217c-2.624-1.995-3.936-4.603-3.936-7.824     c0-3.222,1.272-5.995,3.815-8.323c3.543-3.247,8.806-4.871,15.786-4.871c5.545,0,9.739,0.959,12.579,2.876     c2.84,1.918,4.639,4.514,5.398,7.786l-10.755,1.764c-0.568-1.481-1.488-2.594-2.758-3.336c-1.732-0.997-3.815-1.496-6.25-1.496     c-2.434,0-4.186,0.384-5.255,1.151s-1.603,1.649-1.603,2.646c0,1.024,0.541,1.868,1.623,2.532     c0.676,0.409,2.854,1.125,6.533,2.148c5.682,1.559,9.482,3.094,11.403,4.602c2.705,2.123,4.058,4.68,4.058,7.672     c0,3.861-1.718,7.21-5.153,10.049c-3.436,2.838-8.278,4.257-14.528,4.257c-6.223,0-11.032-1.08-14.427-3.241     C254.676,309.42,252.37,306.384,251.151,302.471z" fill="#FFFFFF"/><path d="M328.905,273.13l-1.785,8.055h-8.238l-7.224,32.678h-11.647l7.224-32.678h-6.492l1.785-8.055h6.494     l0.933-4.181c0.757-3.425,1.474-5.74,2.15-6.942c0.921-1.636,2.294-2.933,4.119-3.892c1.827-0.96,4.214-1.439,7.163-1.439     c3.571,0,7.331,0.614,11.282,1.841l-2.273,7.863c-2.787-0.894-5.046-1.343-6.776-1.343c-1.326,0-2.314,0.397-2.963,1.189     c-0.434,0.512-0.88,1.854-1.339,4.028l-0.65,2.876L328.905,273.13L328.905,273.13z" fill="#FFFFFF"/><path d="M368.512,296.91h-29.218c-0.028,0.435-0.041,0.767-0.041,0.997c0,2.711,0.818,4.897,2.454,6.559     c1.637,1.662,3.632,2.492,5.987,2.492c3.868,0,6.885-1.892,9.049-5.676l10.429,1.649c-2.029,3.964-4.742,6.936-8.136,8.917     c-3.397,1.982-7.204,2.972-11.424,2.972c-5.79,0-10.497-1.732-14.122-5.197c-3.625-3.464-5.438-8.048-5.438-13.75     c0-5.573,1.637-10.534,4.91-14.881c4.464-5.88,10.836-8.821,19.114-8.821c5.275,0,9.469,1.541,12.58,4.622     c3.111,3.081,4.667,7.396,4.667,12.944C369.324,292.398,369.053,294.788,368.512,296.91z M358.691,290.198     c0.027-0.485,0.041-0.857,0.041-1.112c0-3.017-0.717-5.28-2.151-6.789s-3.354-2.263-5.762-2.263c-2.409,0-4.566,0.857-6.473,2.57     c-1.907,1.714-3.2,4.245-3.876,7.594H358.691z" fill="#FFFFFF"/><path d="M381.133,273.13h10.875l-1.745,7.901c4.058-5.906,8.455-8.86,13.188-8.86     c1.677,0,3.476,0.396,5.398,1.189l-4.464,9.013c-1.056-0.357-2.178-0.537-3.368-0.537c-2.003,0-4.038,0.716-6.108,2.148     c-2.069,1.432-3.687,3.344-4.849,5.735c-1.164,2.391-2.313,6.181-3.45,11.372l-2.84,12.772h-11.646L381.133,273.13z" fill="#FFFFFF"/></g><g><path d="M156.27,256.694h-14.485l-2.79-34.276l-17.382,34.276h-14.271l-7.135-53.849h13.68l3.97,36.102     l17.758-36.102h14.002l1.932,36.102l17.651-36.102h15.451L156.27,256.694z" fill="#FFFFFF"/><path d="M194.092,202.845h15.397l-11.91,53.849h-15.398L194.092,202.845z M198.598,182.361h15.398l-2.898,13.183     h-15.397L198.598,182.361z" fill="#FFFFFF"/><path d="M223.76,202.845h14.377l-2.307,10.446c5.365-7.809,11.177-11.713,17.436-11.713     c2.217,0,4.595,0.525,7.135,1.572l-5.902,11.916c-1.395-0.474-2.879-0.71-4.453-0.71c-2.647,0-5.338,0.947-8.073,2.839     c-2.737,1.894-4.874,4.42-6.412,7.581c-1.538,3.161-3.058,8.172-4.56,15.034l-3.755,16.885H211.85L223.76,202.845z" fill="#FFFFFF"/><path d="M310.939,234.281h-38.627c-0.036,0.576-0.054,1.015-0.054,1.318c0,3.584,1.081,6.474,3.247,8.672     c2.163,2.197,4.801,3.295,7.913,3.295c5.113,0,9.101-2.501,11.962-7.505l13.789,2.181c-2.684,5.239-6.269,9.169-10.758,11.789     c-4.489,2.62-9.522,3.929-15.101,3.929c-7.654,0-13.878-2.29-18.67-6.871c-4.794-4.58-7.189-10.639-7.189-18.177     c0-7.369,2.163-13.926,6.492-19.674c5.901-7.775,14.324-11.663,25.268-11.663c6.975,0,12.518,2.038,16.632,6.11     c4.112,4.075,6.169,9.779,6.169,17.114C312.012,228.316,311.654,231.476,310.939,234.281z M297.956,225.408     c0.035-0.642,0.053-1.132,0.053-1.47c0-3.988-0.947-6.98-2.843-8.975c-1.896-1.993-4.436-2.991-7.619-2.991     c-3.183,0-6.035,1.133-8.556,3.397c-2.523,2.265-4.23,5.612-5.124,10.04L297.956,225.408L297.956,225.408z" fill="#FFFFFF"/></g><polygon fill="#73AADC" points="329.438,204.968 329.438,248.506 363.335,226.736   "/><polygon fill="#73AADC" points="375.505,204.968 375.505,248.506 409.402,226.736   "/></g></g></svg>