<?xml version="1.0" ?><svg data-name="Layer 1" id="Layer_1" viewBox="0 0 63 63" xmlns="http://www.w3.org/2000/svg" xmlns:xlink="http://www.w3.org/1999/xlink"><defs><style>.cls-1,.cls-7{fill:#fff;}.cls-1,.cls-2,.cls-5,.cls-6,.cls-8{stroke-linecap:round;}.cls-1,.cls-2,.cls-3,.cls-4,.cls-5,.cls-6,.cls-8{stroke-miterlimit:10;}.cls-1,.cls-4,.cls-6{fill-rule:evenodd;}.cls-1{stroke:url(#linear-gradient);}.cls-2,.cls-3,.cls-5,.cls-6,.cls-8{fill:none;}.cls-2{stroke:url(#linear-gradient-2);}.cls-3,.cls-5{stroke:#e0e0e0;}.cls-4{fill:url(#linear-gradient-3);stroke:url(#linear-gradient-4);}.cls-6{stroke:url(#linear-gradient-5);}.cls-8{stroke:url(#linear-gradient-6);}</style><linearGradient gradientUnits="userSpaceOnUse" id="linear-gradient" x1="20.5" x2="45.5" y1="32.05" y2="32.05"><stop offset="0" stop-color="#a900bf"/><stop offset="0.48" stop-color="#d661ad"/><stop offset="0.83" stop-color="#f3a3a1"/><stop offset="1" stop-color="#ffbc9c"/></linearGradient><linearGradient id="linear-gradient-2" x2="21.5" xlink:href="#linear-gradient" y1="28.15" y2="28.15"/><linearGradient id="linear-gradient-3" x1="17.48" x2="39.5" xlink:href="#linear-gradient" y1="34.33" y2="34.33"/><linearGradient id="linear-gradient-4" x1="16.98" x2="40" xlink:href="#linear-gradient" y1="34.33" y2="34.33"/><linearGradient id="linear-gradient-5" x1="37.5" x2="43" xlink:href="#linear-gradient" y1="21.4" y2="21.4"/><linearGradient id="linear-gradient-6" x2="21.5" xlink:href="#linear-gradient" y1="42.15" y2="42.15"/></defs><title/><path class="cls-1" d="M21,25.55v-7a3,3,0,0,1,3-3H38l7,8v22a3,3,0,0,1-3,3H24a3,3,0,0,1-3-3v-1"/><line class="cls-2" x1="21" x2="21" y1="28.55" y2="27.75"/><path class="cls-3" d="M18,36.55v2a1,1,0,0,0,1,1H38a1,1,0,0,0,1-1v-1"/><path class="cls-4" d="M38.74,38.62H18.24a.81.81,0,0,1-.76-.86V30.9a.81.81,0,0,1,.76-.85h20.5a.81.81,0,0,1,.76.85v6.86A.81.81,0,0,1,38.74,38.62Z"/><path class="cls-5" d="M38,23v.31a1.28,1.28,0,0,0,1.28,1.3l2.87,0a.24.24,0,0,0,.25-.25V24"/><path class="cls-6" d="M38,18.83v3.86A1.28,1.28,0,0,0,39.28,24H42.5"/><path class="cls-7" d="M19.86,36.51v-5a.2.2,0,0,1,.13-.19.67.67,0,0,1,.3-.06.73.73,0,0,1,.3.06.21.21,0,0,1,.12.19v2.07h2V31.55a.2.2,0,0,1,.13-.19.67.67,0,0,1,.3-.06.73.73,0,0,1,.3.06.21.21,0,0,1,.12.19v5a.22.22,0,0,1-.12.19.6.6,0,0,1-.3.07.56.56,0,0,1-.3-.07.21.21,0,0,1-.13-.19V34.25h-2v2.26a.22.22,0,0,1-.12.19.6.6,0,0,1-.3.07.56.56,0,0,1-.3-.07A.21.21,0,0,1,19.86,36.51Z"/><path class="cls-7" d="M24.19,31.66a.41.41,0,0,1,.07-.25.23.23,0,0,1,.21-.11h3.32a.24.24,0,0,1,.21.1.43.43,0,0,1,.07.25.46.46,0,0,1-.08.27.24.24,0,0,1-.2.11H26.56v4.48a.23.23,0,0,1-.13.19.58.58,0,0,1-.3.07.6.6,0,0,1-.3-.07.22.22,0,0,1-.12-.19V32H24.47a.23.23,0,0,1-.2-.11A.38.38,0,0,1,24.19,31.66Z"/><path class="cls-7" d="M28.71,36.51V31.69a.38.38,0,0,1,.12-.3.49.49,0,0,1,.3-.09.71.71,0,0,1,.38.09,1,1,0,0,1,.3.36l1.11,2,1.14-2a.94.94,0,0,1,.29-.36.69.69,0,0,1,.38-.09.49.49,0,0,1,.3.09.38.38,0,0,1,.12.3v4.82a.21.21,0,0,1-.13.19.54.54,0,0,1-.29.07.56.56,0,0,1-.3-.07.21.21,0,0,1-.13-.19v-3.6l-1.07,1.86a.37.37,0,0,1-.31.18.31.31,0,0,1-.29-.18l-1.07-1.9v3.64a.21.21,0,0,1-.13.19.56.56,0,0,1-.3.07.54.54,0,0,1-.29-.07A.21.21,0,0,1,28.71,36.51Z"/><path class="cls-7" d="M34.21,36.51v-5a.21.21,0,0,1,.12-.19.78.78,0,0,1,.6,0,.21.21,0,0,1,.12.19v4.52h2.08a.21.21,0,0,1,.19.1.41.41,0,0,1,.07.25.43.43,0,0,1-.07.25.21.21,0,0,1-.19.1H34.58a.44.44,0,0,1-.26-.07A.21.21,0,0,1,34.21,36.51Z"/><line class="cls-8" x1="21" x2="21" y1="42.55" y2="41.75"/><path class="cls-5" d="M43,42.48v2.93a1,1,0,0,1-1,1l-.34,0"/></svg>