<?xml version="1.0" ?><svg viewBox="0 0 63 63" xmlns="http://www.w3.org/2000/svg" xmlns:xlink="http://www.w3.org/1999/xlink"><defs><style>.cls-1,.cls-8{fill:#fff;}.cls-1,.cls-2,.cls-5,.cls-6,.cls-7{stroke-linecap:round;}.cls-1,.cls-2,.cls-3,.cls-4,.cls-5,.cls-6,.cls-7{stroke-miterlimit:10;}.cls-1,.cls-4,.cls-6{fill-rule:evenodd;}.cls-1{stroke:url(#linear-gradient);}.cls-2,.cls-3,.cls-5,.cls-6,.cls-7{fill:none;}.cls-2{stroke:url(#linear-gradient-2);}.cls-3,.cls-5{stroke:#e0e0e0;}.cls-4{fill:url(#linear-gradient-3);stroke:url(#linear-gradient-4);}.cls-6{stroke:url(#linear-gradient-5);}.cls-7{stroke:url(#linear-gradient-6);}</style><linearGradient gradientUnits="userSpaceOnUse" id="linear-gradient" x1="20.45" x2="45.45" y1="32.05" y2="32.05"><stop offset="0" stop-color="#a900bf"/><stop offset="0.48" stop-color="#d661ad"/><stop offset="0.83" stop-color="#f3a3a1"/><stop offset="1" stop-color="#ffbc9c"/></linearGradient><linearGradient id="linear-gradient-2" x1="20.45" x2="21.45" xlink:href="#linear-gradient" y1="28.15" y2="28.15"/><linearGradient id="linear-gradient-3" x1="17.56" x2="39.58" xlink:href="#linear-gradient" y1="34.33" y2="34.33"/><linearGradient id="linear-gradient-4" x1="17.06" x2="40.08" xlink:href="#linear-gradient" y1="34.33" y2="34.33"/><linearGradient id="linear-gradient-5" x1="37.45" x2="42.95" xlink:href="#linear-gradient" y1="21.4" y2="21.4"/><linearGradient id="linear-gradient-6" x1="20.45" x2="21.45" xlink:href="#linear-gradient" y1="42.15" y2="42.15"/></defs><title/><g data-name="Layer 72" id="Layer_72"><path class="cls-1" d="M21,25.55v-7a3,3,0,0,1,3-3H38l7,8v22a3,3,0,0,1-3,3H24a3,3,0,0,1-3-3v-1"/><line class="cls-2" x1="20.95" x2="20.95" y1="28.55" y2="27.75"/><path class="cls-3" d="M18,36.55v2a1,1,0,0,0,1,1H38a1,1,0,0,0,1-1v-1"/><path class="cls-4" d="M38.83,38.62H18.32a.81.81,0,0,1-.76-.86V30.9a.81.81,0,0,1,.76-.85H38.83a.81.81,0,0,1,.75.85v6.86A.81.81,0,0,1,38.83,38.62Z"/><path class="cls-5" d="M38,23v.31a1.28,1.28,0,0,0,1.28,1.3l2.87,0a.26.26,0,0,0,.26-.25V24"/><path class="cls-6" d="M38,18.83v3.86A1.28,1.28,0,0,0,39.24,24h3.21"/><line class="cls-7" x1="20.95" x2="20.95" y1="42.55" y2="41.75"/><path class="cls-5" d="M43,42.48v2.93a1,1,0,0,1-1,1l-.34,0"/><path class="cls-8" d="M23.66,37.08V32.26a.38.38,0,0,1,.12-.3.52.52,0,0,1,.31-.1.65.65,0,0,1,.38.1,1,1,0,0,1,.29.35l1.12,2,1.14-2A1,1,0,0,1,27.3,32a.65.65,0,0,1,.38-.1.49.49,0,0,1,.3.1.38.38,0,0,1,.12.3v4.82a.22.22,0,0,1-.12.19.66.66,0,0,1-.3.07.73.73,0,0,1-.3-.07.22.22,0,0,1-.12-.19v-3.6l-1.08,1.86a.36.36,0,0,1-.31.18.32.32,0,0,1-.29-.18l-1.07-1.9v3.64a.22.22,0,0,1-.12.19.66.66,0,0,1-.3.07.73.73,0,0,1-.3-.07A.23.23,0,0,1,23.66,37.08Z"/><path class="cls-8" d="M28.86,36.51a.43.43,0,0,1,.12-.28.3.3,0,0,1,.25-.14.37.37,0,0,1,.21.09l.25.21a1.42,1.42,0,0,0,.36.21,1.59,1.59,0,0,0,.55.09,1.17,1.17,0,0,0,.73-.2.67.67,0,0,0,.28-.59.79.79,0,0,0-.27-.61,1.89,1.89,0,0,0-.65-.38l-.76-.31a1.52,1.52,0,0,1-.65-.5,1.25,1.25,0,0,1-.27-.82,1.35,1.35,0,0,1,.16-.69,1.08,1.08,0,0,1,.45-.45,2.42,2.42,0,0,1,.58-.23,2.84,2.84,0,0,1,.66-.07l.45,0a2.57,2.57,0,0,1,.47.08,1.21,1.21,0,0,1,.38.17.33.33,0,0,1,.15.25.55.55,0,0,1-.09.29.31.31,0,0,1-.26.14.49.49,0,0,1-.22-.07,1.59,1.59,0,0,0-.36-.14,1.67,1.67,0,0,0-.52-.08,1.38,1.38,0,0,0-.73.17.58.58,0,0,0-.27.52.55.55,0,0,0,.14.39,1.14,1.14,0,0,0,.37.27,4.18,4.18,0,0,0,.51.2c.19.07.37.15.56.24a2.8,2.8,0,0,1,.5.31,1.25,1.25,0,0,1,.37.49,1.58,1.58,0,0,1,.15.71A1.43,1.43,0,0,1,32,37a2.07,2.07,0,0,1-1.33.41,2.54,2.54,0,0,1-1.25-.29C29,36.92,28.86,36.72,28.86,36.51Z"/><path class="cls-8" d="M33.26,37.08v-5a.2.2,0,0,1,.12-.19.68.68,0,0,1,.6,0,.2.2,0,0,1,.12.19v5a.22.22,0,0,1-.12.19.66.66,0,0,1-.3.07.73.73,0,0,1-.3-.07A.22.22,0,0,1,33.26,37.08Z"/></g></svg>