<?xml version="1.0" ?><svg viewBox="0 0 63 63" xmlns="http://www.w3.org/2000/svg" xmlns:xlink="http://www.w3.org/1999/xlink"><defs><style>.cls-1,.cls-7{fill:#fff;}.cls-1,.cls-2,.cls-5,.cls-6,.cls-8{stroke-linecap:round;}.cls-1,.cls-2,.cls-3,.cls-4,.cls-5,.cls-6,.cls-8{stroke-miterlimit:10;}.cls-1,.cls-4,.cls-6{fill-rule:evenodd;}.cls-1{stroke:url(#linear-gradient);}.cls-2,.cls-3,.cls-5,.cls-6,.cls-8{fill:none;}.cls-2{stroke:url(#linear-gradient-2);}.cls-3,.cls-5{stroke:#e0e0e0;}.cls-4{fill:url(#linear-gradient-3);stroke:url(#linear-gradient-4);}.cls-6{stroke:url(#linear-gradient-5);}.cls-8{stroke:url(#linear-gradient-6);}</style><linearGradient gradientUnits="userSpaceOnUse" id="linear-gradient" x1="20.45" x2="45.45" y1="32.05" y2="32.05"><stop offset="0" stop-color="#a900bf"/><stop offset="0.48" stop-color="#d661ad"/><stop offset="0.83" stop-color="#f3a3a1"/><stop offset="1" stop-color="#ffbc9c"/></linearGradient><linearGradient id="linear-gradient-2" x1="20.45" x2="21.45" xlink:href="#linear-gradient" y1="28.15" y2="28.15"/><linearGradient id="linear-gradient-3" x1="17.43" x2="39.45" xlink:href="#linear-gradient" y1="34.33" y2="34.33"/><linearGradient id="linear-gradient-4" x1="16.93" x2="39.95" xlink:href="#linear-gradient" y1="34.33" y2="34.33"/><linearGradient id="linear-gradient-5" x1="37.45" x2="42.95" xlink:href="#linear-gradient" y1="21.4" y2="21.4"/><linearGradient id="linear-gradient-6" x1="20.45" x2="21.45" xlink:href="#linear-gradient" y1="42.15" y2="42.15"/></defs><title/><g data-name="Layer 18" id="Layer_18"><path class="cls-1" d="M21,25.55v-7a3,3,0,0,1,3-3H38l7,8v22a3,3,0,0,1-3,3H24a3,3,0,0,1-3-3v-1"/><line class="cls-2" x1="20.95" x2="20.95" y1="28.55" y2="27.75"/><path class="cls-3" d="M18,36.55v2a1,1,0,0,0,1,1H38a1,1,0,0,0,1-1v-1"/><path class="cls-4" d="M38.69,38.62H18.19a.81.81,0,0,1-.76-.86V30.9a.81.81,0,0,1,.76-.85h20.5a.81.81,0,0,1,.76.85v6.86A.81.81,0,0,1,38.69,38.62Z"/><path class="cls-5" d="M38,23v.31a1.28,1.28,0,0,0,1.28,1.3l2.87,0a.26.26,0,0,0,.26-.25V24"/><path class="cls-6" d="M38,18.83v3.86A1.28,1.28,0,0,0,39.24,24h3.21"/><path class="cls-7" d="M22.27,36.55v-5a.23.23,0,0,1,.09-.18.36.36,0,0,1,.24-.07h1.56a2,2,0,0,1,1.28.39A1.59,1.59,0,0,1,25.91,33v0a1.53,1.53,0,0,1-.49,1.26,2,2,0,0,1-1.31.4h-1v1.85a.22.22,0,0,1-.12.19.62.62,0,0,1-.31.07.54.54,0,0,1-.29-.07A.21.21,0,0,1,22.27,36.55Zm.85-2.48h1a.94.94,0,0,0,.7-.24,1,1,0,0,0,.25-.73V33a.86.86,0,0,0-.95-1h-1Z"/><path class="cls-7" d="M26.63,36.55V31.6c0-.18.14-.26.43-.26a.69.69,0,0,1,.36.09.93.93,0,0,1,.27.36L29.47,35V31.59a.21.21,0,0,1,.12-.19.75.75,0,0,1,.31-.06.65.65,0,0,1,.29.06.2.2,0,0,1,.13.19v5a.21.21,0,0,1-.13.19.54.54,0,0,1-.29.07.55.55,0,0,1-.51-.29l-1.91-3.41v3.44a.21.21,0,0,1-.13.19.54.54,0,0,1-.29.07.56.56,0,0,1-.3-.07A.21.21,0,0,1,26.63,36.55Z"/><path class="cls-7" d="M31.32,35.19V33a1.54,1.54,0,0,1,.49-1.27,1.92,1.92,0,0,1,1.28-.4,2.08,2.08,0,0,1,1.31.38,1.18,1.18,0,0,1,.51,1,.35.35,0,0,1-.1.3.47.47,0,0,1-.32.08c-.28,0-.42-.08-.43-.26a.83.83,0,0,0-1-.8c-.63,0-.94.32-.94,1v2.18a.84.84,0,0,0,.94,1,.86.86,0,0,0,1-1v-.61h-.81a.26.26,0,0,1-.2-.1.38.38,0,0,1-.07-.22.44.44,0,0,1,.07-.22.25.25,0,0,1,.2-.09h1.38a.23.23,0,0,1,.2.08.22.22,0,0,1,.08.19v1a1.53,1.53,0,0,1-.49,1.26,2,2,0,0,1-1.31.41,2,2,0,0,1-1.3-.41A1.53,1.53,0,0,1,31.32,35.19Z"/><line class="cls-8" x1="20.95" x2="20.95" y1="42.55" y2="41.75"/><path class="cls-5" d="M43,42.48v2.93a1,1,0,0,1-1,1l-.34,0"/></g></svg>