<?xml version="1.0" ?><svg viewBox="0 0 63 63" xmlns="http://www.w3.org/2000/svg" xmlns:xlink="http://www.w3.org/1999/xlink"><defs><style>.cls-1,.cls-7{fill:#fff;}.cls-1,.cls-2,.cls-5,.cls-6,.cls-8{stroke-linecap:round;}.cls-1,.cls-2,.cls-3,.cls-4,.cls-5,.cls-6,.cls-8{stroke-miterlimit:10;}.cls-1,.cls-4,.cls-6{fill-rule:evenodd;}.cls-1{stroke:url(#linear-gradient);}.cls-2,.cls-3,.cls-5,.cls-6,.cls-8{fill:none;}.cls-2{stroke:url(#linear-gradient-2);}.cls-3,.cls-5{stroke:#e0e0e0;}.cls-4{fill:url(#linear-gradient-3);stroke:url(#linear-gradient-4);}.cls-6{stroke:url(#linear-gradient-5);}.cls-8{stroke:url(#linear-gradient-6);}</style><linearGradient gradientUnits="userSpaceOnUse" id="linear-gradient" x1="21.45" x2="46.45" y1="30.05" y2="30.05"><stop offset="0" stop-color="#a900bf"/><stop offset="0.48" stop-color="#d661ad"/><stop offset="0.83" stop-color="#f3a3a1"/><stop offset="1" stop-color="#ffbc9c"/></linearGradient><linearGradient id="linear-gradient-2" x1="21.45" x2="22.45" xlink:href="#linear-gradient" y1="26.15" y2="26.15"/><linearGradient id="linear-gradient-3" x1="18.43" x2="40.45" xlink:href="#linear-gradient" y1="32.33" y2="32.33"/><linearGradient id="linear-gradient-4" x1="17.93" x2="40.95" xlink:href="#linear-gradient" y1="32.33" y2="32.33"/><linearGradient id="linear-gradient-5" x1="38.45" x2="43.95" xlink:href="#linear-gradient" y1="19.4" y2="19.4"/><linearGradient id="linear-gradient-6" x1="21.45" x2="22.45" xlink:href="#linear-gradient" y1="40.15" y2="40.15"/></defs><title/><g data-name="Layer 8" id="Layer_8"><path class="cls-1" d="M22,23.55v-7a3,3,0,0,1,3-3H39l7,8v22a3,3,0,0,1-3,3H25a3,3,0,0,1-3-3v-1"/><line class="cls-2" x1="21.95" x2="21.95" y1="26.55" y2="25.75"/><path class="cls-3" d="M19,34.55v2a1,1,0,0,0,1,1H39a1,1,0,0,0,1-1v-1"/><path class="cls-4" d="M39.69,36.62H19.19a.81.81,0,0,1-.76-.86V28.9a.81.81,0,0,1,.76-.85h20.5a.81.81,0,0,1,.76.85v6.86A.81.81,0,0,1,39.69,36.62Z"/><path class="cls-5" d="M39,21v.31a1.28,1.28,0,0,0,1.28,1.3l2.87,0a.26.26,0,0,0,.26-.25V22"/><path class="cls-6" d="M39,16.83v3.86A1.28,1.28,0,0,0,40.24,22h3.21"/><path class="cls-7" d="M25,29.63a.3.3,0,0,1,.17-.24.74.74,0,0,1,.36-.09c.16,0,.26.05.3.16l1.32,4.27,1.31-4.27c0-.11.13-.16.29-.16a.8.8,0,0,1,.36.09.3.3,0,0,1,.17.23.25.25,0,0,1,0,.07l-1.58,4.85a.31.31,0,0,1-.19.2.77.77,0,0,1-.34.08c-.3,0-.47-.09-.54-.27L25,29.69A.35.35,0,0,1,25,29.63Z"/><path class="cls-7" d="M29.93,34.52v-5a.2.2,0,0,1,.11-.19.44.44,0,0,1,.26-.07h1.46a2.11,2.11,0,0,1,1.17.28,1.1,1.1,0,0,1,.44,1,1.17,1.17,0,0,1-.68,1.22,1.2,1.2,0,0,1,.62.43,1.34,1.34,0,0,1,.21.82v.14a1.51,1.51,0,0,1-.44,1.2,1.67,1.67,0,0,1-1.15.37H30.3A.45.45,0,0,1,30,34.7.21.21,0,0,1,29.93,34.52Zm.84-3h.95c.54,0,.81-.26.81-.77S32.25,30,31.7,30h-.93Zm0,2.58h1a.81.81,0,0,0,.9-.93V33a.91.91,0,0,0-.23-.69,1,1,0,0,0-.67-.21h-1Z"/><line class="cls-8" x1="21.95" x2="21.95" y1="40.55" y2="39.75"/><path class="cls-5" d="M44,40.48v2.93a1,1,0,0,1-1,1l-.34,0"/></g></svg>