<?xml version="1.0" ?><svg viewBox="0 0 63 63" xmlns="http://www.w3.org/2000/svg" xmlns:xlink="http://www.w3.org/1999/xlink"><defs><style>.cls-1,.cls-7{fill:#fff;}.cls-1,.cls-2,.cls-5,.cls-6,.cls-8{stroke-linecap:round;}.cls-1,.cls-2,.cls-3,.cls-4,.cls-5,.cls-6,.cls-8{stroke-miterlimit:10;}.cls-1,.cls-4,.cls-6{fill-rule:evenodd;}.cls-1{stroke:url(#linear-gradient);}.cls-2,.cls-3,.cls-5,.cls-6,.cls-8{fill:none;}.cls-2{stroke:url(#linear-gradient-2);}.cls-3,.cls-5{stroke:#e0e0e0;}.cls-4{fill:url(#linear-gradient-3);stroke:url(#linear-gradient-4);}.cls-6{stroke:url(#linear-gradient-5);}.cls-8{stroke:url(#linear-gradient-6);}</style><linearGradient gradientUnits="userSpaceOnUse" id="linear-gradient" x1="20.7" x2="45.7" y1="32.55" y2="32.55"><stop offset="0" stop-color="#a900bf"/><stop offset="0.48" stop-color="#d661ad"/><stop offset="0.83" stop-color="#f3a3a1"/><stop offset="1" stop-color="#ffbc9c"/></linearGradient><linearGradient id="linear-gradient-2" x1="20.7" x2="21.7" xlink:href="#linear-gradient" y1="28.65" y2="28.65"/><linearGradient id="linear-gradient-3" x1="17.68" x2="39.7" xlink:href="#linear-gradient" y1="34.83" y2="34.83"/><linearGradient id="linear-gradient-4" x1="17.18" x2="40.2" xlink:href="#linear-gradient" y1="34.83" y2="34.83"/><linearGradient id="linear-gradient-5" x1="37.7" x2="43.2" xlink:href="#linear-gradient" y1="21.9" y2="21.9"/><linearGradient id="linear-gradient-6" x1="20.7" x2="21.7" xlink:href="#linear-gradient" y1="42.65" y2="42.65"/></defs><title/><g data-name="Layer 2" id="Layer_2"><path class="cls-1" d="M21.2,26.05v-7a3,3,0,0,1,3-3h14l7,8v22a3,3,0,0,1-3,3h-18a3,3,0,0,1-3-3v-1"/><line class="cls-2" x1="21.2" x2="21.2" y1="29.05" y2="28.25"/><path class="cls-3" d="M18.2,37.05v2a1,1,0,0,0,1,1h19a1,1,0,0,0,1-1v-1"/><path class="cls-4" d="M38.94,39.12H18.44a.81.81,0,0,1-.76-.86V31.4a.81.81,0,0,1,.76-.85h20.5a.81.81,0,0,1,.76.85v6.86A.81.81,0,0,1,38.94,39.12Z"/><path class="cls-5" d="M38.2,23.51v.31a1.28,1.28,0,0,0,1.28,1.3l2.87,0a.26.26,0,0,0,.26-.25v-.43"/><path class="cls-6" d="M38.2,19.33v3.86a1.28,1.28,0,0,0,1.29,1.28H42.7"/><path class="cls-7" d="M22.68,36.9a.26.26,0,0,1,.05-.15l1.38-2.22-1.34-2.2a.35.35,0,0,1-.07-.2.3.3,0,0,1,.17-.25.67.67,0,0,1,.37-.11.38.38,0,0,1,.32.23l1.1,1.92L25.78,32a.36.36,0,0,1,.32-.23.66.66,0,0,1,.36.11.3.3,0,0,1,.17.25.41.41,0,0,1-.06.2l-1.35,2.2,1.39,2.22a.5.5,0,0,1,.05.15.34.34,0,0,1-.18.28.72.72,0,0,1-.37.11.29.29,0,0,1-.26-.18l-1.19-2-1.17,2a.31.31,0,0,1-.27.18.72.72,0,0,1-.36-.11A.34.34,0,0,1,22.68,36.9Z"/><path class="cls-7" d="M27.33,37V32.19a.38.38,0,0,1,.12-.3.49.49,0,0,1,.3-.09.74.74,0,0,1,.38.09.86.86,0,0,1,.29.36l1.12,2,1.14-2a.86.86,0,0,1,.29-.36.68.68,0,0,1,.37-.09.52.52,0,0,1,.31.09.38.38,0,0,1,.12.3V37a.23.23,0,0,1-.13.19.56.56,0,0,1-.3.07.54.54,0,0,1-.29-.07.21.21,0,0,1-.13-.19v-3.6l-1.07,1.86a.37.37,0,0,1-.32.18.3.3,0,0,1-.28-.18l-1.08-1.9V37a.22.22,0,0,1-.12.19.56.56,0,0,1-.3.07.6.6,0,0,1-.3-.07A.22.22,0,0,1,27.33,37Z"/><path class="cls-7" d="M32.82,37v-5a.2.2,0,0,1,.13-.19.67.67,0,0,1,.3-.06.73.73,0,0,1,.3.06.21.21,0,0,1,.12.19v4.52h2.08a.22.22,0,0,1,.19.1.49.49,0,0,1,.07.25.52.52,0,0,1-.07.25.22.22,0,0,1-.19.1H33.2a.5.5,0,0,1-.27-.07A.23.23,0,0,1,32.82,37Z"/><line class="cls-8" x1="21.2" x2="21.2" y1="43.05" y2="42.25"/><path class="cls-5" d="M43.23,43v2.93a1,1,0,0,1-1,1l-.34,0"/></g></svg>