<?xml version="1.0" ?><!DOCTYPE svg  PUBLIC '-//W3C//DTD SVG 1.1//EN'  'http://www.w3.org/Graphics/SVG/1.1/DTD/svg11.dtd'><svg enable-background="new 0 0 128 128" id="Social_Icons" version="1.1" viewBox="0 0 128 128" xml:space="preserve" xmlns="http://www.w3.org/2000/svg" xmlns:xlink="http://www.w3.org/1999/xlink"><g id="_x31__stroke"><g id="Bankin_1_"><rect fill="none" height="128" width="128"/><linearGradient gradientUnits="userSpaceOnUse" id="Bankin_2_" x1="38.7615" x2="85.8727" y1="14.0539" y2="118.0539"><stop offset="0" style="stop-color:#2DCBFF"/><stop offset="1" style="stop-color:#8B78FE"/></linearGradient><path clip-rule="evenodd" d="M88.804,89.986    c-4.138,18.923-29.371,16.806-32.685,16.621c-0.84-0.047-1.61-0.097-2.294-0.147c-0.239-0.018-0.452-0.034-0.634-0.049    c-0.11-0.009-0.186-0.016-0.226-0.019c-0.525-0.046-0.904-0.518-0.833-1.038l5.159-37.485c0.051-0.368,0.32-0.669,0.682-0.763    c0.122-0.031,0.346-0.085,0.66-0.151c0.518-0.11,1.109-0.22,1.763-0.321c4.293-0.67,8.853-0.698,13.154,0.344    C76.678,67.735,92.942,71.064,88.804,89.986z M63.15,22.304c0.036-0.262,0.227-0.476,0.485-0.543    c0.087-0.023,0.246-0.06,0.47-0.108c0.368-0.078,0.788-0.156,1.253-0.228c3.054-0.476,6.298-0.497,9.358,0.245    c2.225,0.539,11.948,2.85,8.844,15.396c-3.104,12.547-18.887,12.928-21.244,12.797c-0.598-0.033-1.145-0.069-1.632-0.105    c-0.171-0.013-0.322-0.024-0.451-0.035c-0.078-0.006-0.133-0.011-0.161-0.014c-0.373-0.033-0.644-0.369-0.593-0.738L63.15,22.304z     M111.925,89.84c0.402-6.867-0.918-11.031-1.394-12.874c-4.021-12.941-14.51-19.894-14.51-19.894s11.237-7.787,12.335-25.33    C109.453,14.199,90.19,0,66.157,0C36.55,0,18.669,12.604,16.849,13.605c-0.333,0.183-0.977,0.566-0.826,1.112l4.694,15.014    c0.268,1.011,0.334,1.819,1.582,1.251c0,0,11.673-4.789,14.252-4.789c0,0-13.439,94.062-13.113,94.062    c-0.326,2.796,0,3.581,3.703,4.688c1.476,0.442,67.463,15.056,82.268-23.763C109.439,101.394,111.564,96.003,111.925,89.84z" fill="url(#Bankin_2_)" fill-rule="evenodd" id="Bankin"/></g></g></svg>