<?xml version="1.0" ?><svg id="Layer_1" style="enable-background:new 0 0 512 512;" version="1.1" viewBox="0 0 512 512" xml:space="preserve" xmlns="http://www.w3.org/2000/svg" xmlns:xlink="http://www.w3.org/1999/xlink"><style type="text/css">
	.st0{fill:#BFBFBF;}
	.st1{fill:#FFFFFF;}
	.st2{fill:#E0A41E;}
	.st3{fill:#FCE379;}
	.st4{fill:#F5BD2F;}
	.st5{fill:#CE8F11;}
</style><g id="XMLID_136_"><g id="XMLID_137_"><path class="st0" d="M132.9,506.2c-25.7,0-46.7-20.4-46.7-45.4v-38.2L66,407.3V274.9h20.2V77.4    c0-25,20.9-45.4,46.7-45.4h56.9V21.7h124.7L325.2,32h82.6c25.7,0,46.7,20.4,46.7,45.4v80.4l7.9,7.6v121.4h-7.9v173.9    c0,25-20.9,45.4-46.7,45.4H132.9z" id="XMLID_648_"/><path class="st1" d="M116.6,490.3c-25.7,0-46.7-20.4-46.7-45.4v-38.2l-20.2-15.2V259h20.2V61.5    c0-25,20.9-45.4,46.7-45.4h56.9V5.8h124.7l10.6,10.3h82.6c25.7,0,46.7,20.4,46.7,45.4V142l7.9,7.6V271h-7.9v173.9    c0,25-20.9,45.4-46.7,45.4H116.6z" id="XMLID_647_"/><g id="XMLID_138_"><g id="XMLID_139_"><path class="st2" d="M389.2,474.9H118.8c-18.3,0-33.1-14.8-33.1-33.1V64.6c0-18.3,14.8-33.1,33.1-33.1h270.4      c18.3,0,33.1,14.8,33.1,33.1v377.2C422.3,460.1,407.5,474.9,389.2,474.9z" id="XMLID_646_"/><path class="st3" d="M98.8,437.1V69.4c0-13.9,11.2-25.1,25.1-25.1h260.1c13.9,0,25.1,11.2,25.1,25.1v367.7      c0,13.9-11.2,25.1-25.1,25.1H123.9C110.1,462.2,98.8,450.9,98.8,437.1z" id="XMLID_645_"/></g><polygon class="st4" id="XMLID_644_" points="430.1,255.6 430.1,156 291.6,21.2 189.3,21.2    "/><polygon class="st5" id="XMLID_643_" points="189.3,21.2 189.3,31.5 199.9,31.5    "/><polygon class="st5" id="XMLID_642_" points="422.3,248 422.3,255.6 430.1,255.6    "/><path class="st4" d="M277.4,383.9H65.6V274.5h211.9c29.8,0,54,24.2,54,54v1.4     C331.4,359.7,307.3,383.9,277.4,383.9z" id="XMLID_641_"/><polygon class="st5" id="XMLID_640_" points="65.6,383.9 85.7,399.1 85.7,383.9    "/></g></g><g id="XMLID_2739_"><g id="XMLID_85_"><path class="st1" d="M155.2,344.4h-20.9l-4.5,13.4h-10.2l20.5-57.3h9.3l20.3,57.3h-10.2L155.2,344.4z M137,336.4     h15.5l-7.6-22.6h-0.2L137,336.4z" id="XMLID_91_"/><path class="st1" d="M210.2,344.4h-20.9l-4.5,13.4h-10.2l20.5-57.3h9.3l20.3,57.3h-10.2L210.2,344.4z      M192.1,336.4h15.5l-7.6-22.6h-0.2L192.1,336.4z" id="XMLID_88_"/><path class="st1" d="M277.2,339.1l0.1,0.2c0.1,5.8-1.8,10.4-5.8,14c-4,3.6-9.3,5.3-16.1,5.3     c-6.9,0-12.4-2.3-16.7-6.8c-4.3-4.5-6.4-10.3-6.4-17.3v-10.9c0-7,2.1-12.7,6.3-17.3c4.2-4.5,9.7-6.8,16.5-6.8     c6.9,0,12.4,1.7,16.4,5.2c4,3.4,5.9,8.2,5.8,14.1l-0.1,0.2h-9.5c0-3.8-1.1-6.8-3.2-8.8c-2.1-2-5.3-3.1-9.4-3.1     c-4,0-7.2,1.5-9.5,4.6c-2.3,3.1-3.5,7-3.5,11.7v11c0,4.8,1.2,8.7,3.6,11.8c2.4,3.1,5.6,4.6,9.7,4.6c4,0,7.1-1,9.2-3.1     c2.1-2,3.1-5,3.1-8.9H277.2z" id="XMLID_86_"/></g></g></g></svg>