<?xml version="1.0" ?><svg id="Layer_1" style="enable-background:new 0 0 512 512;" version="1.1" viewBox="0 0 512 512" xml:space="preserve" xmlns="http://www.w3.org/2000/svg" xmlns:xlink="http://www.w3.org/1999/xlink"><style type="text/css">
	.st0{fill:#BFBFBF;}
	.st1{fill:#FFFFFF;}
	.st2{fill:#084272;}
	.st3{fill:#3DA7E3;}
	.st4{fill:#2B66A1;}
	.st5{fill:#24323D;}
</style><g id="XMLID_116_"><g id="XMLID_117_"><path class="st0" d="M132.9,506.2c-25.7,0-46.7-20.4-46.7-45.4v-38.2L66,407.3V274.9h20.2V77.4    c0-25,20.9-45.4,46.7-45.4h56.9V21.7h124.7L325.2,32h82.6c25.7,0,46.7,20.4,46.7,45.4v80.4l7.9,7.6v121.4h-7.9v173.9    c0,25-20.9,45.4-46.7,45.4H132.9z" id="XMLID_693_"/><path class="st1" d="M116.6,490.3c-25.7,0-46.7-20.4-46.7-45.4v-38.2l-20.2-15.2V259h20.2V61.5    c0-25,20.9-45.4,46.7-45.4h56.9V5.8h124.7l10.6,10.3h82.6c25.7,0,46.7,20.4,46.7,45.4V142l7.9,7.6V271h-7.9v173.9    c0,25-20.9,45.4-46.7,45.4H116.6z" id="XMLID_692_"/><g id="XMLID_118_"><g id="XMLID_119_"><path class="st2" d="M389.2,474.9H118.8c-18.3,0-33.1-14.8-33.1-33.1V64.6c0-18.3,14.8-33.1,33.1-33.1h270.4      c18.3,0,33.1,14.8,33.1,33.1v377.2C422.3,460.1,407.5,474.9,389.2,474.9z" id="XMLID_691_"/><path class="st3" d="M98.8,437.1V69.4c0-13.9,11.2-25.1,25.1-25.1h260.1c13.9,0,25.1,11.2,25.1,25.1v367.7      c0,13.9-11.2,25.1-25.1,25.1H123.9C110.1,462.2,98.8,450.9,98.8,437.1z" id="XMLID_690_"/></g><polygon class="st4" id="XMLID_689_" points="430.1,255.6 430.1,156 291.6,21.2 189.3,21.2    "/><polygon class="st5" id="XMLID_688_" points="189.3,21.2 189.3,31.5 199.9,31.5    "/><polygon class="st5" id="XMLID_687_" points="422.3,248 422.3,255.6 430.1,255.6    "/><path class="st4" d="M277.4,383.9H65.6V274.5h211.9c29.8,0,54,24.2,54,54v1.4     C331.4,359.7,307.3,383.9,277.4,383.9z" id="XMLID_686_"/><polygon class="st5" id="XMLID_685_" points="65.6,383.9 85.7,399.1 85.7,383.9    "/></g></g><g id="XMLID_2815_"><g id="XMLID_92_"><path class="st1" d="M149.3,332.4H131v18.8h-7.6v-44.1h29v5.9H131v13.5h18.3V332.4z" id="XMLID_100_"/><path class="st1" d="M168.2,345.3h21.2v5.9h-28.8v-44.1h7.6V345.3z" id="XMLID_98_"/><path class="st1" d="M221.9,340.9h-16.1l-3.5,10.3h-7.8l15.8-44.1h7.2l15.6,44.1h-7.8L221.9,340.9z M207.9,334.8     h11.9l-5.8-17.4h-0.2L207.9,334.8z" id="XMLID_95_"/><path class="st1" d="M273.5,336.8l0.1,0.2c0.1,4.4-1.4,8-4.4,10.8c-3,2.7-7.2,4.1-12.4,4.1     c-5.3,0-9.5-1.7-12.8-5.2c-3.3-3.5-4.9-7.9-4.9-13.3V325c0-5.4,1.6-9.8,4.9-13.3c3.2-3.5,7.5-5.2,12.7-5.2c5.3,0,9.5,1.3,12.6,4     c3.1,2.6,4.5,6.3,4.5,10.9l-0.1,0.2h-7.3c0-2.9-0.8-5.2-2.5-6.8c-1.6-1.6-4-2.3-7.2-2.3c-3.1,0-5.5,1.2-7.3,3.6     c-1.8,2.4-2.7,5.4-2.7,9v8.5c0,3.7,0.9,6.7,2.7,9c1.8,2.4,4.3,3.6,7.5,3.6c3.1,0,5.4-0.8,7-2.4c1.6-1.6,2.4-3.8,2.4-6.8H273.5z" id="XMLID_93_"/></g></g></g></svg>