<?xml version="1.0" ?><svg id="Layer_1" style="enable-background:new 0 0 512 512;" version="1.1" viewBox="0 0 512 512" xml:space="preserve" xmlns="http://www.w3.org/2000/svg" xmlns:xlink="http://www.w3.org/1999/xlink"><style type="text/css">
	.st0{fill:#BFBFBF;}
	.st1{fill:#FFFFFF;}
	.st2{fill:#C41E4A;}
	.st3{fill:#F45671;}
	.st4{fill:#E03258;}
	.st5{fill:#A50C3B;}
	.st6{fill:#16896B;}
	.st7{fill:#49EBC8;}
	.st8{fill:#2EBC9A;}
	.st9{fill:#096047;}
	.st10{fill:#084272;}
	.st11{fill:#3DA7E3;}
	.st12{fill:#2B66A1;}
	.st13{fill:#24323D;}
</style><g id="XMLID_1_"><g id="XMLID_11_"><path class="st0" d="M1798,1732.3c-25.7,0-46.7-20.4-46.7-45.4v-38.2l-20.2-15.2V1501h20.2v-197.5    c0-25,20.9-45.4,46.7-45.4h56.9v-10.3h124.7l10.6,10.3h82.6c25.7,0,46.7,20.4,46.7,45.4v80.4l7.9,7.6V1513h-7.9v173.9    c0,25-20.9,45.4-46.7,45.4H1798z" id="XMLID_38_"/><path class="st1" d="M1781.7,1716.4c-25.7,0-46.7-20.4-46.7-45.4v-38.2l-20.2-15.2v-132.4h20.2v-197.5    c0-25,20.9-45.4,46.7-45.4h56.9v-10.3h124.7l10.6,10.3h82.6c25.7,0,46.7,20.4,46.7,45.4v80.4l7.9,7.6v121.4h-7.9V1671    c0,25-20.9,45.4-46.7,45.4H1781.7z" id="XMLID_35_"/><g id="XMLID_12_"><g id="XMLID_28_"><path class="st2" d="M2054.3,1701h-270.4c-18.3,0-33.1-14.8-33.1-33.1v-377.2c0-18.3,14.8-33.1,33.1-33.1h270.4      c18.3,0,33.1,14.8,33.1,33.1v377.2C2087.4,1686.2,2072.6,1701,2054.3,1701z" id="XMLID_32_"/><path class="st3" d="M1764,1663.1v-367.7c0-13.9,11.2-25.1,25.1-25.1h260.1c13.9,0,25.1,11.2,25.1,25.1v367.7      c0,13.9-11.2,25.1-25.1,25.1h-260.1C1775.2,1688.2,1764,1677,1764,1663.1z" id="XMLID_29_"/></g><polygon class="st4" id="XMLID_25_" points="2095.3,1481.7 2095.3,1382.1 1956.8,1247.3 1854.4,1247.3    "/><polygon class="st5" id="XMLID_22_" points="1854.4,1247.3 1854.4,1257.6 1865.1,1257.6    "/><polygon class="st5" id="XMLID_19_" points="2087.4,1474 2087.4,1481.7 2095.3,1481.7    "/><path class="st4" d="M1942.6,1609.9h-211.9v-109.4h211.9c29.8,0,54,24.2,54,54v1.4     C1996.6,1585.8,1972.4,1609.9,1942.6,1609.9z" id="XMLID_16_"/><polygon class="st5" id="XMLID_13_" points="1730.7,1609.9 1750.9,1625.2 1750.9,1609.9    "/></g></g><g id="XMLID_2_"><g id="XMLID_117_"><path class="st1" d="M1830.1,1565.2l0.1,0.2c0.1,5.8-1.8,10.4-5.8,14c-4,3.6-9.3,5.3-16.1,5.3     c-6.8,0-12.4-2.3-16.7-6.8c-4.3-4.5-6.4-10.3-6.4-17.3v-10.9c0-7,2.1-12.7,6.3-17.3c4.2-4.5,9.7-6.8,16.5-6.8     c6.9,0,12.4,1.7,16.4,5.2c4,3.4,5.9,8.2,5.8,14.1l-0.1,0.2h-9.5c0-3.8-1.1-6.8-3.2-8.8c-2.1-2-5.3-3.1-9.4-3.1     c-4,0-7.2,1.5-9.5,4.6c-2.3,3.1-3.5,7-3.5,11.7v11c0,4.8,1.2,8.7,3.6,11.8c2.4,3.1,5.6,4.6,9.7,4.6c4,0,7.1-1,9.2-3.1     c2.1-2,3.1-5,3.1-8.9H1830.1z" id="XMLID_124_"/><path class="st1" d="M1872.8,1570.5H1852l-4.5,13.4h-10.2l20.5-57.3h9.3l20.3,57.3h-10.2L1872.8,1570.5z      M1854.7,1562.5h15.5l-7.6-22.6h-0.2L1854.7,1562.5z" id="XMLID_121_"/><path class="st1" d="M1897.2,1583.9v-57.3h19.5c7.5,0,13.5,2.3,18.2,6.8c4.7,4.5,7,10.4,7,17.5v8.7     c0,7.2-2.3,13-7,17.5c-4.7,4.5-10.8,6.8-18.2,6.8H1897.2z M1907.1,1534.3v42h9.6c4.7,0,8.5-1.6,11.2-4.7c2.8-3.1,4.2-7.1,4.2-12     v-8.8c0-4.8-1.4-8.8-4.2-11.9c-2.8-3.1-6.5-4.7-11.2-4.7H1907.1z" id="XMLID_118_"/></g></g></g><g id="XMLID_41_"><g id="XMLID_51_"><path class="st0" d="M132.9,1732.3c-25.7,0-46.7-20.4-46.7-45.4v-38.2L66,1633.4V1501h20.2v-197.5    c0-25,20.9-45.4,46.7-45.4h56.9v-10.3h124.7l10.6,10.3h82.6c25.7,0,46.7,20.4,46.7,45.4v80.4l7.9,7.6V1513h-7.9v173.9    c0,25-20.9,45.4-46.7,45.4H132.9z" id="XMLID_78_"/><path class="st1" d="M116.6,1716.4c-25.7,0-46.7-20.4-46.7-45.4v-38.2l-20.2-15.2v-132.4h20.2v-197.5    c0-25,20.9-45.4,46.7-45.4h56.9v-10.3h124.7l10.6,10.3h82.6c25.7,0,46.7,20.4,46.7,45.4v80.4l7.9,7.6v121.4h-7.9V1671    c0,25-20.9,45.4-46.7,45.4H116.6z" id="XMLID_75_"/><g id="XMLID_52_"><g id="XMLID_68_"><path class="st6" d="M389.2,1701H118.8c-18.3,0-33.1-14.8-33.1-33.1v-377.2c0-18.3,14.8-33.1,33.1-33.1h270.4      c18.3,0,33.1,14.8,33.1,33.1v377.2C422.3,1686.2,407.5,1701,389.2,1701z" id="XMLID_72_"/><path class="st7" d="M98.8,1663.1v-367.7c0-13.9,11.2-25.1,25.1-25.1h260.1c13.9,0,25.1,11.2,25.1,25.1v367.7      c0,13.9-11.2,25.1-25.1,25.1H123.9C110.1,1688.2,98.8,1677,98.8,1663.1z" id="XMLID_69_"/></g><polygon class="st8" id="XMLID_65_" points="430.1,1481.7 430.1,1382.1 291.6,1247.3 189.3,1247.3    "/><polygon class="st9" id="XMLID_62_" points="189.3,1247.3 189.3,1257.6 199.9,1257.6    "/><polygon class="st9" id="XMLID_59_" points="422.3,1474 422.3,1481.7 430.1,1481.7    "/><path class="st8" d="M277.4,1609.9H65.6v-109.4h211.9c29.8,0,54,24.2,54,54v1.4     C331.4,1585.8,307.3,1609.9,277.4,1609.9z" id="XMLID_56_"/><polygon class="st9" id="XMLID_53_" points="65.6,1609.9 85.7,1625.2 85.7,1609.9    "/></g></g><g id="XMLID_42_"><g id="XMLID_171_"><path class="st1" d="M124.5,1581.7v-52.9h18c6.9,0,12.5,2.1,16.8,6.3c4.3,4.2,6.5,9.6,6.5,16.2v8     c0,6.6-2.2,12-6.5,16.2c-4.3,4.2-9.9,6.3-16.8,6.3H124.5z M133.6,1535.9v38.8h8.9c4.4,0,7.8-1.4,10.4-4.3     c2.6-2.9,3.8-6.6,3.8-11.1v-8.1c0-4.5-1.3-8.1-3.8-11c-2.6-2.9-6-4.3-10.4-4.3H133.6z" id="XMLID_177_"/><path class="st1" d="M220.7,1560c0,6.5-2.1,11.8-6.3,16.1c-4.2,4.3-9.6,6.4-16.3,6.4c-6.5,0-11.8-2.1-15.9-6.4     c-4.1-4.3-6.1-9.6-6.1-16.1v-9.5c0-6.4,2-11.8,6.1-16.1c4.1-4.3,9.4-6.4,15.9-6.4c6.6,0,12.1,2.1,16.2,6.4     c4.2,4.3,6.3,9.6,6.3,16.1V1560z M211.7,1550.4c0-4.4-1.2-8-3.6-10.9c-2.4-2.8-5.7-4.3-9.8-4.3c-4,0-7.2,1.4-9.5,4.3     c-2.3,2.8-3.5,6.5-3.5,10.9v9.6c0,4.5,1.2,8.1,3.5,11c2.3,2.8,5.5,4.3,9.4,4.3c4.2,0,7.4-1.4,9.8-4.3c2.4-2.8,3.6-6.5,3.6-11     V1550.4z" id="XMLID_174_"/><path class="st1" d="M272.4,1564.4l0.1,0.2c0.1,5.3-1.7,9.6-5.3,12.9c-3.7,3.3-8.6,4.9-14.8,4.9     c-6.3,0-11.5-2.1-15.4-6.2c-3.9-4.2-5.9-9.5-5.9-15.9v-10.1c0-6.4,1.9-11.8,5.8-15.9c3.9-4.2,8.9-6.3,15.2-6.3     c6.4,0,11.4,1.6,15.1,4.8c3.7,3.2,5.5,7.5,5.4,13l-0.1,0.2h-8.8c0-3.5-1-6.2-2.9-8.1c-2-1.9-4.9-2.8-8.7-2.8     c-3.7,0-6.6,1.4-8.8,4.3c-2.2,2.8-3.2,6.4-3.2,10.8v10.1c0,4.4,1.1,8,3.3,10.8c2.2,2.8,5.2,4.3,9,4.3c3.7,0,6.5-0.9,8.5-2.8     c1.9-1.9,2.9-4.6,2.9-8.2H272.4z" id="XMLID_172_"/></g></g></g><g id="XMLID_168_"><g id="XMLID_169_"><path class="st0" d="M132.9,506.2c-25.7,0-46.7-20.4-46.7-45.4v-38.2L66,407.3V274.9h20.2V77.4    c0-25,20.9-45.4,46.7-45.4h56.9V21.7h124.7L325.2,32h82.6c25.7,0,46.7,20.4,46.7,45.4v80.4l7.9,7.6v121.4h-7.9v173.9    c0,25-20.9,45.4-46.7,45.4H132.9z" id="XMLID_594_"/><path class="st1" d="M116.6,490.3c-25.7,0-46.7-20.4-46.7-45.4v-38.2l-20.2-15.2V259h20.2V61.5    c0-25,20.9-45.4,46.7-45.4h56.9V5.8h124.7l10.6,10.3h82.6c25.7,0,46.7,20.4,46.7,45.4V142l7.9,7.6V271h-7.9v173.9    c0,25-20.9,45.4-46.7,45.4H116.6z" id="XMLID_593_"/><g id="XMLID_170_"><g id="XMLID_54_"><path class="st10" d="M389.2,474.9H118.8c-18.3,0-33.1-14.8-33.1-33.1V64.6c0-18.3,14.8-33.1,33.1-33.1h270.4      c18.3,0,33.1,14.8,33.1,33.1v377.2C422.3,460.1,407.5,474.9,389.2,474.9z" id="XMLID_592_"/><path class="st11" d="M98.8,437.1V69.4c0-13.9,11.2-25.1,25.1-25.1h260.1c13.9,0,25.1,11.2,25.1,25.1v367.7      c0,13.9-11.2,25.1-25.1,25.1H123.9C110.1,462.2,98.8,450.9,98.8,437.1z" id="XMLID_591_"/></g><polygon class="st12" id="XMLID_590_" points="430.1,255.6 430.1,156 291.6,21.2 189.3,21.2    "/><polygon class="st13" id="XMLID_589_" points="189.3,21.2 189.3,31.5 199.9,31.5    "/><polygon class="st13" id="XMLID_588_" points="422.3,248 422.3,255.6 430.1,255.6    "/><path class="st12" d="M277.4,383.9H65.6V274.5h211.9c29.8,0,54,24.2,54,54v1.4     C331.4,359.7,307.3,383.9,277.4,383.9z" id="XMLID_587_"/><polygon class="st13" id="XMLID_586_" points="65.6,383.9 85.7,399.1 85.7,383.9    "/></g></g><g id="XMLID_2645_"><g id="XMLID_163_"><path class="st1" d="M181.9,350.1c-1.6,2.2-4.2,4.2-7.7,6c-3.5,1.7-8.1,2.6-13.7,2.6c-7,0-12.7-2.2-17.2-6.6     c-4.5-4.4-6.7-10-6.7-17v-12c0-6.9,2.2-12.6,6.5-17c4.3-4.4,9.9-6.6,16.7-6.6c6.8,0,12.2,1.7,16,5c3.8,3.4,5.7,7.7,5.6,13.2     l-0.1,0.2h-9.3c0-3.2-1-5.8-3.1-7.8c-2.1-2-5-3-8.9-3c-4.1,0-7.4,1.5-9.8,4.4c-2.5,3-3.7,6.7-3.7,11.3v12c0,4.6,1.3,8.4,3.9,11.4     c2.6,3,6,4.5,10.2,4.5c3.2,0,5.6-0.3,7.5-1c1.8-0.7,3.2-1.5,4.2-2.5v-11.9h-12.3v-7.2h22.2V350.1z" id="XMLID_180_"/><path class="st1" d="M207.1,357.8h-9.8v-57.3h9.8V357.8z" id="XMLID_166_"/><path class="st1" d="M256.3,333.4h-23.7v24.5h-9.8v-57.3h37.7v7.7h-27.9v17.5h23.7V333.4z" id="XMLID_164_"/></g></g></g></svg>