<?xml version="1.0" ?><svg enable-background="new 0 0 24 24" id="Layer_1" version="1.1" viewBox="0 0 24 24" xml:space="preserve" xmlns="http://www.w3.org/2000/svg" xmlns:xlink="http://www.w3.org/1999/xlink"><g><path d="M3.253418,9.977478H3.0939331v2.0256348H3.253418c0.3840942,0,0.6266479-0.0739746,0.8134155-0.2435303   c0.2055664-0.18396,0.3292236-0.4777832,0.3292236-0.7718506c0-0.293457-0.1236572-0.5785522-0.3292236-0.7625122   C3.8705444,10.0465088,3.6375122,9.977478,3.253418,9.977478z" fill="#303C42"/><path d="M22,3H2C0.8974609,3,0,3.8969727,0,5v14c0,1.1030273,0.8974609,2,2,2h20c1.1046143,0,2-0.8954468,2-2V5   C24,3.8969727,23.1025391,3,22,3z M19.2752075,9.4584351h0.8813477c0.6853638,0,1.0783691,0.3308716,1.0783691,0.9043579   c0,0.4690552-0.246521,0.7768555-0.6942139,0.8684082L21.5,12.5216675h-0.730957l-0.8226929-1.2305908h-0.0774536v1.2305908   h-0.593689V9.4584351z M17.1959229,9.4584351h1.6856079v0.519043H17.789856v0.6798706h1.0514526v0.5188599H17.789856v0.8269043   h1.0916748v0.5185547h-1.6856079V9.4584351z M14.6471558,9.4584351l0.812561,2.0575562l0.8231812-2.0575562h0.6442261   l-1.3163452,3.1418457h-0.3198242l-1.2931519-3.1418457H14.6471558z M4.4551392,12.1680298   c-0.2925415,0.2442017-0.6257935,0.3536377-1.0872192,0.3536377H2.5V9.4584351h0.8724976   c0.9639282,0,1.6358032,0.6297607,1.6358032,1.5337524C5.0083008,11.4429932,4.8027344,11.8788452,4.4551392,12.1680298z    M5.8761597,12.5216675H5.2817993V9.4584351h0.5943604V12.5216675z M7.1549683,12.5953369   c-0.4522705,0-0.7811279-0.1790771-1.0549927-0.5831909l0.3840332-0.3716431   c0.1368408,0.2660522,0.3651733,0.4085083,0.6486816,0.4085083c0.2651367,0,0.4614868-0.1838379,0.4614868-0.4320679   c0-0.1286011-0.0594482-0.2390137-0.1782227-0.3169556c-0.0597534-0.0369873-0.1782227-0.0919189-0.4108887-0.1744385   c-0.5582275-0.2019653-0.7496948-0.4180298-0.7496948-0.8400269c0-0.5013428,0.4112549-0.8777466,0.9503784-0.8777466   c0.3341064,0,0.6398315,0.1149292,0.8953857,0.3396606l-0.3109741,0.4093628   C7.6353149,9.9822388,7.4889526,9.9086914,7.3108521,9.9086914c-0.2561646,0-0.442749,0.1466064-0.442749,0.3395386   c0,0.1655273,0.1047363,0.2529907,0.4613647,0.3856812c0.6761475,0.2485962,0.8764648,0.4688721,0.8764648,0.9556274   C8.2059326,12.1824951,7.772644,12.5953369,7.1549683,12.5953369z M10.7470093,10.2803955   c-0.2470703-0.243042-0.4616699-0.3447266-0.7451782-0.3447266c-0.5575562,0-0.9958496,0.4639893-0.9958496,1.052063   c0,0.6203613,0.4248657,1.0566406,1.0234985,1.0566406c0.2694702,0,0.4799194-0.0964966,0.7175293-0.3355103v0.7033691   c-0.2702026,0.1279297-0.4893188,0.1784668-0.7451782,0.1784668c-0.9050903,0-1.6083984-0.6981812-1.6083984-1.5985107   c0-0.890686,0.7219238-1.6029663,1.6224365-1.6029663c0.2557373,0,0.4702148,0.0551147,0.7311401,0.1881104V10.2803955z    M10.940918,11.0010986c0-0.2250366,0.0453491-0.4393921,0.1274414-0.6343994   c0.2460327-0.585022,0.8220825-0.9955444,1.4937744-0.9955444c0.8952026,0,1.6209717,0.7294312,1.6209717,1.6294556   c0,0.1126099-0.0114136,0.2225952-0.0330811,0.3287964c-0.151123,0.7426758-0.8048096,1.3012695-1.5881348,1.3012695   C11.6665039,12.6306763,10.940918,11.901123,10.940918,11.0010986z M23,19c0,0.5513916-0.4486084,1-1,1h-9.3151855   C17.6268921,18.2025146,21.1010742,15.9723511,23,14.5637207V19z" fill="#303C42"/><path d="M20.623291,10.3949585c0-0.2980957-0.2011719-0.4540405-0.5714111-0.4540405h-0.1829834v0.9277954h0.173584   C20.4221191,10.8687134,20.623291,10.7028809,20.623291,10.3949585z" fill="#303C42"/></g><g/><g/><g/><g/><g/><g/><g/><g/><g/><g/><g/><g/><g/><g/><g/></svg>