<?xml version="1.0" ?><svg enable-background="new 0 0 24 24" id="Layer_1" version="1.1" viewBox="0 0 24 24" xml:space="preserve" xmlns="http://www.w3.org/2000/svg" xmlns:xlink="http://www.w3.org/1999/xlink"><g><path d="M22,3H2C0.8969727,3,0,3.8969727,0,5v14c0,1.1030273,0.8969727,2,2,2h20c1.1030273,0,2-0.8969727,2-2V5   C24,3.8969727,23.1030273,3,22,3z M13,18H5.5H5v-0.5v-11V6h0.5H13c3.3084106,0,6,2.6915894,6,6S16.3084106,18,13,18z" fill="#303C42"/><rect fill="#303C42" height="3.6938477" width="2.0754395" x="6.5658569" y="12.8025513"/><circle cx="7.6033325" cy="10.9413452" fill="#303C42" r="1.289856"/><path d="M17.3347778,11.5449829c-0.242981-3.2712402-2.815918-3.9780884-5.1552124-3.9780884h-2.493103v2.1765137   h0.3689575c0.6727905,0,1.0905151,0.4561768,1.0905151,1.1903076c0,0.7574463-0.4077148,1.2095947-1.0905151,1.2095947H9.6864624   v4.3547363h2.4933472c3.8015137,0,5.1254272-1.765625,5.1722412-4.3551025h-1.5011597V9.7421265h0.5983276   c0,0,0,1.3626099,0,1.8028564C16.5813599,11.5449829,16.9450073,11.5449829,17.3347778,11.5449829z M12.9936523,12.1429443   h-1.4787598V9.7427979h0.2987061h1.1328735v0.5979004c0,0-0.5098267,0-0.8336792,0c0,0.0823364,0,0.1768188,0,0.2778931h0.7883301   v0.5980835H12.112793c0,0.1195679,0,0.2327881,0,0.3283081c0.3334351-0.0001831,0.8808594-0.0001831,0.8808594-0.0001831   V12.1429443z M14.9278564,12.1433105l-0.1357422-0.4644775h-0.7822266l-0.1359253,0.4644775h-0.621521l0.7236328-2.4013672   h0.850708l0.7234497,2.4013672H14.9278564z" fill="#303C42"/><polygon fill="#303C42" points="14.3833618,10.4030151 14.1852417,11.0813599 14.618042,11.0813599 14.4194946,10.4030151  "/><path d="M10.5479736,10.9334717c0-0.5249023-0.2631836-0.5921631-0.4925537-0.5921631c0,0-0.1865845,0-0.3693848,0   c0,0.3331909,0,0.8704834,0,1.2036743c0.1825562,0,0.3693848,0,0.3693848,0   C10.3114014,11.5449829,10.5479736,11.4709473,10.5479736,10.9334717z" fill="#303C42"/></g><g/><g/><g/><g/><g/><g/><g/><g/><g/><g/><g/><g/><g/><g/><g/></svg>