<?xml version="1.0" ?><svg enable-background="new 0 0 24 24" id="Layer_1" version="1.1" viewBox="0 0 24 24" xml:space="preserve" xmlns="http://www.w3.org/2000/svg" xmlns:xlink="http://www.w3.org/1999/xlink"><g><path d="M22,3H2C0.8974609,3,0,3.8969727,0,5v14c0,1.1030273,0.8974609,2,2,2h20c1.1025391,0,2-0.8969727,2-2V5   C24,3.8969727,23.1025391,3,22,3z M21.8067017,12.2388916c-0.1417847,0.1804199-0.3461304,0.3008423-0.6071167,0.3566895   l-0.1184692,0.0256348L21.6000366,14h-1.1326294l-0.5012817-1.687439L19.6569214,14H8.9805908l0.4934692-2.6729736H8.8391724   L8.3459473,14H4.2885132l-0.7495728-2.1760864L3.152832,14H2.020813l0.6380005-3.4562378h1.1854248l0.7723389,2.117981   l0.3876953-2.1178589h6.8109131l-0.1424561,0.7832031h-1.0881958l-0.1113281,0.6049194l1.0482178,0.0009766l-0.1236572,0.677063   h-1.0498047l-0.1100464,0.6063232h1.7470093l0.4934692-2.6724854h1.1417236l-0.4710693,2.5352783h0.7816162l0.4672852-2.5352783   h1.1428833l-0.4706421,2.5352783h0.8016357l0.4672241-2.5352783h2.1862183l-0.1431885,0.7832031h-1.0762329l-0.1118774,0.6037598   l1.0444336-0.0018921l-0.1242065,0.6810303h-1.045105l-0.1112061,0.6063232h1.7346802l0.4921875-2.6725464h1.3242188   c0.5056152,0,0.8912354,0.0880127,1.1461182,0.2627563c0.2463989,0.1680908,0.3658447,0.4085693,0.3657227,0.7356567   C22.020813,11.822998,21.9487305,12.0567627,21.8067017,12.2388916z" fill="#303C42"/><path d="M20.3291626,11.2429199h-0.0776367h-0.0870361l-0.1717529,0.9276123h0.1259766h0.0980225   c0.2258301,0,0.3908691-0.0391846,0.5046387-0.1184692c0.0860596-0.0599365,0.1876831-0.1768188,0.1876831-0.3942261   c0-0.1804199-0.0873413-0.2754517-0.1611328-0.3234863C20.6535645,11.2730713,20.5166626,11.2429199,20.3291626,11.2429199z" fill="#303C42"/><polygon fill="#303C42" points="5.8730469,11.927002 6.9497681,11.927002 6.8262329,12.6099243 5.7390747,12.6099243    5.6270142,13.2161865 7.3603516,13.2161865 7.7073975,11.3269043 5.9771118,11.3269043  "/></g><g/><g/><g/><g/><g/><g/><g/><g/><g/><g/><g/><g/><g/><g/><g/></svg>