<?xml version="1.0" ?><svg enable-background="new 0 0 24 24" id="Layer_1" version="1.1" viewBox="0 0 24 24" xml:space="preserve" xmlns="http://www.w3.org/2000/svg" xmlns:xlink="http://www.w3.org/1999/xlink"><path d="M22,3H2C0.8974609,3,0,3.8969727,0,5v14c0,1.1030273,0.8974609,2,2,2h20c1.1025391,0,2-0.8969727,2-2V5  C24,3.8969727,23.1025391,3,22,3z M17.5082397,17.9781494c-0.0878906,0.0128784-0.0700073-0.079895-0.1062622-0.1183472  c-0.0285645-0.0463257-0.0640259-0.0863037-0.083313-0.1418457c-0.1384277-0.1454468-0.2623901-0.3054199-0.4140015-0.4378052  c-0.1499023-0.130127-0.2973633-0.2630615-0.4733276-0.3668213c-0.3305664-0.2337646-0.713623-0.4144287-1.15979-0.5327759  c-0.4391479-0.1270752-0.9317017-0.1781006-1.5026855-0.1418457c-0.2506714,0.0328979-0.4899902,0.0782471-0.6983032,0.1535645  c-0.2241821,0.0558472-0.4738159,0.0863037-0.7217407,0.1183472c-0.9685669,0.0598145-2.0471191-0.1713867-2.769165-0.5203857  c-0.385376-0.1784668-0.7399292-0.3881226-1.0411987-0.6508789c-0.1647339-0.1190796-0.2992554-0.2688599-0.4378052-0.4141846  c-0.126709-0.1534424-0.2598877-0.300415-0.3551025-0.4852295c-0.1265259-0.1575317-0.201355-0.3667603-0.3077393-0.5443726  c-0.0692139-0.2106323-0.1671753-0.3928223-0.2129517-0.6270752c-0.0723877-0.2114868-0.1167603-0.4511719-0.1418457-0.710022  c-0.0042114-0.071228-0.0360718-0.208374-0.0357666-0.3195801c0-0.0098877,0.0128174-0.0186768,0.0119629-0.0354614  c-0.005249-0.1008911-0.0292969-0.2564087,0-0.3431396c-0.005249-0.2344971,0.0368652-0.5228882,0.0829468-0.7456055  c0.0424194-0.2374878,0.1055908-0.4544067,0.1776123-0.6627197c0.0703125-0.2133179,0.1635742-0.4041138,0.24823-0.6034546  C7.624939,9.7633667,7.6681519,9.6647339,7.7218018,9.576416C7.7670288,9.4835815,7.8348999,9.4135132,7.8759155,9.31604  c0.0454712-0.0255737,0.0535889-0.0882568,0.0943604-0.1182861c0.0184326-0.0527344,0.0675659-0.074707,0.0829468-0.130188  C8.09198,9.0352783,8.1227417,8.9949341,8.1478271,8.9491577c0.0360718-0.0350342,0.0737915-0.0684204,0.0946655-0.1183472  c0.1409912-0.1390381,0.2672119-0.2930298,0.4141235-0.4259644C8.8031616,8.267334,8.967041,8.1472778,9.1184082,8.0143433  C9.2144165,7.9685669,9.2836914,7.895813,9.3786011,7.8486938c0.0720215-0.065918,0.177002-0.0992432,0.2485352-0.1657715  c0.1973267-0.0866699,0.3654175-0.2025146,0.579834-0.2722168c0.1848755-0.0951538,0.406311-0.1538086,0.6154175-0.2247314  c0.4542847-0.1165771,0.9127197-0.1967163,1.4790039-0.1775513c0.0203247,0.0024414,0.0306396-0.0201416,0.0354614,0  c1.0723267,0.0323486,1.8538818,0.3554077,2.5206299,0.7929077c0.6606445,0.4398804,1.1721191,1.0289307,1.5383911,1.7631836  c0.3582764,0.727356,0.5598145,1.7158813,0.390625,2.7573242c-0.0848389,0.4675293-0.2216797,0.8827515-0.390625,1.2660522  c-0.0968018,0.1795044-0.1831055,0.3692627-0.2958984,0.5325928c-0.0493774,0.0882568-0.102417,0.1735229-0.1656494,0.2485352  c-0.0211792,0.0455933-0.0512695,0.0825806-0.0825806,0.1183472c-0.013916,0.0216675-0.03125,0.039917-0.0474243,0.0592041  c-0.0053711,0.010498-0.0103149,0.0211792-0.0238037,0.0237427c0.003418,0.0210571-0.0108643,0.0241699-0.0116577,0.0117188  c-0.0924683-0.4283447-0.2907104-0.7506714-0.5682373-0.9941406c-0.0957642-0.1010742-0.2116089-0.1725464-0.3431396-0.2484741  c-0.0661621-0.038269-0.114502-0.0617065-0.2009888-0.0944824c-0.144043-0.0548096-0.3331299-0.1184082-0.5681763-0.0946655  c0.1177979-0.0596313,0.2931519-0.0621338,0.4735107-0.0593262c0.1496582,0.0160522,0.2736206,0.0574951,0.4020386,0.0946045  c0.1074829,0.0584106,0.2138672,0.1177368,0.3196411,0.1775513c0.2593994-0.7754517,0.1600342-1.8366089-0.1300049-2.5205078  c-0.2806396-0.7174072-0.6882935-1.3079224-1.21875-1.7750244c-0.5216064-0.4765015-1.1481934-0.8481445-1.9762573-1.0177612  c-0.4099121-0.088501-0.9255981-0.0742798-1.3019409,0.0119019C10.2634277,8.1652832,9.9364624,8.3354492,9.6508179,8.546814  C9.3853149,8.7822266,9.1276245,9.0256958,8.9525146,9.3515015C8.8894653,9.4147339,8.8623657,9.5139771,8.8104248,9.5882568  c-0.0363159,0.0897827-0.0770874,0.1752319-0.118103,0.2602539c-0.0611572,0.1873169-0.1312256,0.3657227-0.1658936,0.579895  c-0.0946045,0.3873901-0.1116333,0.9196777-0.0471191,1.3372803c0.048584,0.4483643,0.1800537,0.8138428,0.3197021,1.1713867  c0.0859375,0.1664429,0.1644287,0.340332,0.2598877,0.4970093c0.0907593,0.15802,0.2030029,0.2941284,0.3079834,0.4379272  c0.2384644,0.2585449,0.4945068,0.4993286,0.7926636,0.6983032c0.6044922,0.3936768,1.2983398,0.6975708,2.2484741,0.7453613  c0.0186768-0.0386963-0.0256958-0.1159058-0.0354614-0.1655884c-0.0142822-0.0569458-0.0197754-0.1223145-0.0357056-0.1774292  c-0.0134888-0.1274414-0.0176392-0.276123,0-0.4023438c0.0376587,0.0097656,0.0365601,0.0580444,0.0593872,0.0827637  c0.0201416,0.0231934,0.02771,0.059082,0.0592041,0.0709229c0.0238037,0.0667725,0.0754395,0.105835,0.1063843,0.1657104  c0.0893555,0.0921631,0.1588745,0.2039795,0.2722778,0.2720947c0.0901489,0.0914307,0.2107544,0.1520386,0.319397,0.2249146  c0.1172485,0.0604248,0.2177734,0.1373901,0.3551636,0.1774292c0.2350464,0.1237183,0.5502319,0.1673584,0.8638916,0.2130737  c0.315979,0.0427856,0.6209106,0.0966797,0.9109497,0.1656494c0.2672119,0.0917358,0.5394897,0.1782227,0.7575073,0.3192749  c0.1150513,0.0664673,0.2283936,0.1345215,0.3311768,0.2133179c0.0502319,0.0402222,0.1137085,0.0675659,0.1538696,0.1181641  c0.0622559,0.0247803,0.0895996,0.0839844,0.1538086,0.1063843c0.1837158,0.1752319,0.3651733,0.3528442,0.5209961,0.5560913  c0.064209,0.1172485,0.1519165,0.2108765,0.2011108,0.3435059c0.0431519,0.0474243,0.0557861,0.1253052,0.0945435,0.1773071  C17.4990234,17.8441162,17.5641479,17.9248047,17.5082397,17.9781494z M15.4511719,14.6766968  c0.0025024,0.0930786,0.0094604,0.190979-0.05896,0.2130127c-0.1387939-0.0545654-0.1621704-0.2244873-0.2249756-0.3549805  c-0.0112915-0.0479126-0.0210571-0.1199341,0-0.1657104c0.0094604-0.0022583,0.0116577-0.0119019,0.0236206-0.0119019  c0.0349121-0.0224609,0.0681763,0.0059814,0.1181641,0.0237427C15.3771362,14.4587402,15.4204102,14.5615234,15.4511719,14.6766968z   M14.6821899,15.0790405c-0.0187378,0.1235352-0.0879517,0.1962891-0.201355,0.2248535  c-0.2824707,0.0047607-0.4432983-0.2553101-0.3430786-0.5206909c0.0563354-0.0460205,0.0963135-0.1085815,0.2130127-0.0946655  c0.0022583-0.0134888,0.0120239-0.0065308,0.0120239,0C14.5725098,14.71521,14.6688232,14.8556519,14.6821899,15.0790405z" fill="#303C42"/><g/><g/><g/><g/><g/><g/><g/><g/><g/><g/><g/><g/><g/><g/><g/></svg>