<?xml version="1.0" ?><svg enable-background="new 0 0 24 24" id="Layer_1" version="1.1" viewBox="0 0 24 24" xml:space="preserve" xmlns="http://www.w3.org/2000/svg" xmlns:xlink="http://www.w3.org/1999/xlink"><g><path d="M8.3555908,11.2286377H8.3554077c-0.3510132,0-0.6411743,0.3917236-0.8651733,1.0042725   c-0.3000488,0.8206177-0.187561,1.0234985,0.1329956,1.0236816h0.0006714c0.3290405,0,0.5476074-0.2074585,0.8488159-1.0319214   h0.000061C8.7659302,11.4226074,8.6895142,11.2290649,8.3555908,11.2286377z" fill="#303C42"/><path d="M17.1640625,11.2111816h-0.1794434l-0.3153687,0.8500977l0.1845093,0.0001831h0.0014038   c0.3564453,0,0.5439453-0.173584,0.6481934-0.4546509C17.6144409,11.307373,17.4921265,11.2114258,17.1640625,11.2111816z" fill="#303C42"/><path d="M14.1820068,11.2286377h-0.0003662c-0.3508301,0-0.6411743,0.3917236-0.8649902,1.0042725   c-0.2998657,0.8206177-0.1879272,1.0234985,0.1328735,1.0236816h0.0007935c0.3288574,0,0.5476074-0.2074585,0.8486328-1.0319214   C14.5922852,11.4226074,14.515686,11.2290649,14.1820068,11.2286377z" fill="#303C42"/><path d="M22,3H2C0.8974609,3,0,3.8969727,0,5v14c0,1.1030273,0.8974609,2,2,2h20c1.1025391,0,2-0.8969727,2-2V5   C24,3.8969727,23.1025391,3,22,3z M6.041748,12.7510986c-0.1489868,0.6235962-0.5010986,0.9351196-0.868042,1.0910034   c-0.3669434,0.1560669-0.7488403,0.1560059-0.9577026,0.1560059H1.9960938l0.3278198-0.9006348h2.0739746   c0.1661377-0.0012207,0.2755737-0.0108643,0.3497925-0.0408936c0.074585-0.0300293,0.1137085-0.0792236,0.1395264-0.1554565   c0.0102539-0.0298462,0.0147095-0.0581055,0.013916-0.0842896c-0.0006104-0.026001-0.0066528-0.050415-0.0179443-0.0726318   c-0.0171509-0.0334473-0.0443726-0.0576172-0.0748291-0.0755615c-0.0302124-0.0183716-0.0636597-0.0304565-0.0941162-0.0397339   c-0.052002-0.0157471-0.1340942-0.039917-0.2042236-0.0600586c-0.0705566-0.0202026-0.1286621-0.0366821-0.1329346-0.0379028   c-0.1106567-0.0336914-0.2132568-0.0863037-0.2991943-0.1512451c-0.0856934-0.0646973-0.1542358-0.1415405-0.1965332-0.2232056   c-0.0343018-0.0669556-0.0500488-0.1439819-0.0472412-0.2344971c0.0028687-0.090332,0.0244141-0.194397,0.0651245-0.3151245   c0.1879272-0.5617676,0.4320679-0.8426514,0.7084961-0.9829712c0.2766724-0.1403198,0.5853271-0.1402588,0.9031372-0.1402588   H7.526123c-0.3125,0.1904907-0.5978394,0.4602661-0.8335571,0.7937622   c-0.0090332,0.0131226-0.017334,0.0274048-0.0264282,0.0405273H5.3757324c-0.0894775,0-0.1661377,0.0177002-0.2246094,0.0499878   c-0.0580444,0.0324707-0.0983887,0.0794678-0.1151123,0.1383057c-0.0159302,0.0566406-0.0074463,0.1121216,0.0205688,0.1577148   c0.0282593,0.0457153,0.0760498,0.081665,0.1381226,0.0993652c0.0375366,0.0109253,0.111084,0.0318604,0.1746216,0.0501709   c0.0639038,0.0183716,0.1181641,0.0341187,0.1181641,0.0341187c0.2425537,0.0695801,0.4090576,0.1784668,0.5012207,0.3282471   C6.0804443,12.3258667,6.0977783,12.5167847,6.041748,12.7510986z M7.3745117,14.0566406H7.3724365   c-0.5300293-0.0006104-0.7907715-0.2145386-0.9161987-0.3935547c-0.2211304-0.3167725-0.2235718-0.7974243-0.0072632-1.3900146   c0.1147461-0.3139038,0.2612915-0.5946045,0.4324951-0.836792c0.2635498-0.3729858,0.5863647-0.6540527,0.9422607-0.8226318   c0.2492065-0.1173096,0.5144653-0.1802368,0.7880859-0.1802368l0,0h0.000061h-0.000061   c0.418396,0.0004272,0.718811,0.1279907,0.8944702,0.3794556c0.2907104,0.4159546,0.1316528,1.0323486,0.0110474,1.3626099   C9.0608521,13.4237061,8.3400879,14.0566406,7.3745117,14.0566406z M11.6461182,12.6210327l-0.944397-0.0006104   l-0.5012817,1.3776855H9.1318359l0.9754639-2.6801758c0.2018433-0.5438232,0.6292725-0.8342896,1.2035522-0.8342896h2.0539551   c-0.312561,0.1904907-0.6462402,0.4602661-0.881958,0.7937622c-0.0090942,0.0131226-0.017334,0.0274048-0.0266113,0.0407104   c-0.3587036-0.0001831-1.052063-0.0003662-1.1135864-0.0003662c-0.1104736,0-0.1860352,0.0608521-0.2175293,0.1374512   l-0.1516113,0.4272461l0.9413452,0.0006714L11.6461182,12.6210327z M13.2007446,14.0566406h-0.0016479   c-0.5305176-0.0006104-0.7910156-0.2145386-0.9161987-0.3935547c-0.2214355-0.3167725-0.223999-0.7974243-0.0074463-1.3900146   c0.1146851-0.3139038,0.2611084-0.5946045,0.4324951-0.836792c0.2635498-0.3729858,0.5861206-0.6540527,0.9421997-0.8226318   c0.2489624-0.1173096,0.5145264-0.1802368,0.7879028-0.1802368c0.418396,0.0004272,0.718811,0.1279907,0.8946533,0.3794556   c0.2905273,0.4159546,0.1318359,1.0323486,0.0108643,1.3626099C14.8875122,13.4237061,14.1665039,14.0566406,13.2007446,14.0566406   z M17.4850464,12.4998169c0.0548096,0.0848999,0.0957642,0.1862793,0.1351318,0.2768555   c0.152832,0.3519897,0.3606567,1.2236328,0.3606567,1.2236328h-1.1428223c0,0-0.2744141-1.1861572-0.2971802-1.2371826   l-0.4651489,1.2371826h-1.0869751l1.2797241-3.5147705h1.1831665c0.5111084,0.0006104,0.8373413,0.1139526,0.9976196,0.3447876   c0.1322632,0.1901245,0.1390991,0.4494629,0.0201416,0.7702637C18.2756348,12.1223755,17.8078613,12.3798218,17.4850464,12.4998169   z M21.696167,11.3201294h-1.2523193l-0.9760742,2.6810303H18.493103l0.9755249-2.6810303h-0.6472778   c0.0288696-0.2481689-0.0195313-0.4647827-0.1459351-0.6470337c-0.0494385-0.0709839-0.1087036-0.1330566-0.1774292-0.1875H22   L21.696167,11.3201294z" fill="#303C42"/></g><g/><g/><g/><g/><g/><g/><g/><g/><g/><g/><g/><g/><g/><g/><g/></svg>