<svg xmlns="http://www.w3.org/2000/svg" width="1000px" height="1000px" viewBox="0 0 10000 10000" preserveAspectRatio="xMidYMid meet"><defs><linearGradient id="lg0" gradientUnits="userSpaceOnUse" x1="50.0%" y1="30.0%" x2="50.0%" y2="69.8%"><stop offset="0%" style="stop-color:rgb(97,0,201);"></stop><stop offset="2%" style="stop-color:rgb(108,18,204);"></stop><stop offset="81%" style="stop-color:rgb(187,14,221);"></stop><stop offset="99%" style="stop-color:rgb(191,0,215);"></stop><stop offset="100%" style="stop-color:rgb(202,0,226);"></stop></linearGradient></defs><g fill="#ececec"><path d="M2635 6939 c-476-37-941-284-1250-664-226-278-355-568-421-940-26-141-25-527 0-670 93-533 351-959 764-1263 397-293 904-407 1431-321 523 86 1017 387 1518 928 229 247 228 243 126 372-36 46-124 162-195 257 l-128 172-48 0 c-46 0-50-2-91-52-157-193-412-448-591-591-304-243-634-377-930-377-315 0-620 141-846 391-237 261-360 644-310 964 66 427 311 770 680 950 151 74 268 105 427 112 511 23 1002-284 1603-1003 59-71 196-246 304-389 463-616 728-915 1037-1174 435-363 849-545 1329-582 691-53 1321 254 1702 832 382 577 428 1371 119 2004-100 204-193 336-358 504-271 276-620 459-995 523-178 30-473 30-653 0-207-35-422-106-612-204-336-172-673-451-1011-832-84-95-96-114-96-145 0-32 25-69 193-291 l192-255 50-2 50-3 85 102 c117 141 394 417 516 514 452 362 870 480 1271 358 494-149 858-644 856-1164-1-395-211-789-539-1010-359-243-772-264-1189-61-216 106-406 251-656 500-239 239-372 397-674 801-313 417-503 645-726 870-630 636-1226 895-1934 839z"/></g><g fill="#b243e0"><path d="M2660 6930 c0-17 7-20 43-20 56 0 87 9 87 26 0 11-16 14-65 14-58 0-65-2-65-20z"/><path d="M2840 6936 c0-17 31-26 93-26 40 0 47 3 47 20 0 18-7 20-70 20-53 0-70-3-70-14z"/><path d="M7030 6930 c0-17 7-20 48-20 61 0 92 9 92 26 0 11-17 14-70 14-63 0-70-2-70-20z"/><path d="M7220 6936 c0-17 31-26 88-26 35 0 42 3 42 20 0 18-7 20-65 20-49 0-65-3-65-14z"/><path d="M2535 6933 c-125-18-405-96-405-114 0-5-11-9-24-9-14 0-31-7-40-15-8-8-21-15-29-15-31 0-47-13-47-36 0-13 2-24 4-24 2 0 38 16 80 35 151 69 321 117 529 150 23 4 37 11 37 20 0 15-35 18-105 8z"/><path d="M2990 6925 c0-8 13-16 33-19 17-3 64-10 102-16 423-65 854-295 1265-675 93-86 95-88 98-60 3 22-6 37-39 71-26 27-52 44-66 44-16 0-23 6-23 18 0 18-39 62-54 62-5 0-17 11-28 25-11 14-25 25-31 25-7 0-18 9-25 20-7 11-18 20-26 20-8 0-16 7-20 15-3 8-12 15-21 15-8 0-15 5-15 10 0 6-7 13-16 17-9 3-28 17-42 29-14 13-29 24-34 24-5 0-18 8-29 19-11 10-37 27-57 37-20 11-43 25-50 32-7 6-20 12-28 12-8 0-14 4-14 9 0 15-251 135-365 175-123 43-231 70-355 91-121 19-160 19-160 0z"/><path d="M6905 6933 c-147-20-475-112-475-134 0-5-11-9-25-9-20 0-25-5-25-25 l0-25 53 21 c147 59 325 110 447 129 119 18 130 21 130 36 0 14-35 16-105 7z"/><path fill="url(#lg0)" d="M7360 6927 c0-10 12-18 33-21 17-3 74-13 126-22 192-31 457-137 636-252 291-187 526-452 680-767 267-546 269-1177 5-1724-226-468-623-817-1101-971-121-39-273-69-374-76-118-8-145-13-145-29 0-29 172-16 429 30 158 28 248 59 405 137 371 185 660 484 850 880 133 276 185 496 193 819 8 280-18 475-92 698-40 118-112 274-148 317-13 16-43 62-67 102-25 39-48 72-52 72-5 0-8 6-8 14 0 7-11 25-25 40-14 15-25 31-25 36 0 5-6 13-12 17-7 4-18 17-24 28-6 11-20 24-32 30-12 5-22 17-22 25 0 18-70 90-88 90-7 0-12 6-12 13 0 18-73 87-92 87-9 0-18 9-21 20-3 11-12 23-21 26-9 3-30 19-47 35-17 16-37 29-45 29-8 0-14 4-14 9 0 14-111 82-237 144-176 89-405 157-582 173-61 6-71 5-71-9z"/><path d="M6263 6733 c-19-10-33-24-33-35 0-13-8-18-29-18-39 0-61-9-61-26 0-8-10-14-25-14-14 0-25-4-25-9 0-5-11-12-25-15-14-4-25-11-25-16 0-6-7-10-15-10-8 0-15-4-15-10 0-5-7-10-15-10-8 0-15-4-15-10 0-5-7-10-15-10-8 0-15-4-15-10 0-5-7-10-15-10-8 0-15-7-15-15 0-8-9-15-20-15-11 0-20-7-20-15 0-8-9-15-20-15-11 0-20-7-20-15 0-8-9-15-20-15-13 0-20-7-20-19 0-14-8-21-27-23-20-2-29-9-31-25-2-16-10-23-26-23-28 0-46-18-46-47 0-19-5-23-28-23-37 0-64-30-60-65 3-25 7-23 108 66 192 167 368 291 566 396 57 30 104 59 104 64 0 14-62 9-97-8z"/><path d="M1893 6713 c-7-2-13-11-13-19 0-8-10-14-25-14-14 0-25-4-25-10 0-5-7-10-15-10-8 0-15-4-15-10 0-5-7-10-15-10-8 0-15-4-15-10 0-5-7-10-15-10-8 0-15-7-15-15 0-8-9-15-20-15-11 0-20-6-20-14 0-8-10-16-22-18-15-2-24-11-26-25-2-16-10-23-26-23-30 0-48-22-44-55 3-25 5-24 81 40 81 67 190 144 265 185 23 13 42 27 42 32 0 9-57 10-77 1z"/><path d="M1417 6323 c-4-3-7-17-7-29 0-16-7-24-22-26-15-2-24-11-26-25-2-13-10-23-18-23-8 0-14-9-14-20 0-11-7-20-15-20-8 0-15-7-15-15 0-8-4-15-10-15-5 0-10-13-10-30 0-23-4-30-20-30-11 0-20-7-20-15 0-8-4-15-10-15-5 0-10-16-10-35 0-28-4-35-19-35-21 0-31-19-31-61 0-43 13-36 45 24 44 81 114 184 184 272 35 44 68 86 74 93 7 9 2 12-20 12-16 0-33-3-36-7z"/><path fill="url(#lg0)" d="M2629 6230 c-165-28-370-117-506-219-435-328-611-911-433-1431 143-415 505-732 919-805 111-19 121-19 121 4 0 15-11 20-61 25-95 11-223 52-338 109-58 28-107 55-109 59-2 5-10 8-18 8-8 0-14 5-14 10 0 6-6 10-14 10-8 0-16 7-20 15-3 8-14 15-25 15-10 0-21 9-24 20-4 15-14 20-40 20-33 0-36 3-39 33-3 28-7 32-35 35-30 3-33 6-33 38 0 23-6 38-20 46-11 7-20 19-20 26 0 7-7 15-15 18-8 4-15 10-15 15 0 4-17 35-38 67-56 88-88 166-116 287-40 174-46 221-46 348 0 310 123 615 339 840 178 186 394 300 671 355 74 15 85 20 88 40 3 21 0 22-55 21-32-1-79-5-104-9z"/><path d="M2860 6221 c0-16 11-19 84-25 155-13 348-77 518-173 43-23 82-43 88-43 5 0 10-4 10-10 0-5 7-10 15-10 8 0 15-4 15-8 0-5 12-15 27-23 15-8 40-26 57-41 17-16 36-28 42-28 7 0 14-7 18-15 3-8 14-15 25-15 10 0 21-9 24-20 3-12 14-20 26-20 12 0 21-6 21-13 0-23 35-47 68-47 28 0 32-3 32-28 0-22 23-50 108-135 96-96 112-108 138-105 28 4 23 9-116 149-362 361-686 556-1019 613-131 22-181 21-181-3z"/><path fill="url(#lg0)" d="M6966 6224 c-244-44-505-176-770-388-121-97-375-349-506-501-63-74-101-110-115-110-15 0-71 67-212 255-106 140-193 257-193 260 0 4 48 60 106 126 101 113 105 119 79 122-37 5-65-23-65-65 0-30-3-33-28-33-36 0-52-16-52-52 0-23-4-28-24-28-31 0-35-7-43-70-5-42-3-50 11-50 9 0 16-8 16-20 0-11 7-20 15-20 8 0 15-9 15-20 0-10 6-23 13-27 8-4 16-16 20-25 3-10 13-18 22-18 8 0 15-9 15-20 0-11 7-20 15-20 8 0 15-9 15-20 0-11 7-20 15-20 8 0 15-9 15-20 0-11 7-20 15-20 8 0 15-9 15-20 0-11 7-20 15-20 8 0 15-9 15-20 0-11 7-20 15-20 8 0 15-9 15-20 0-11 7-20 15-20 8 0 15-9 15-20 0-11 7-20 15-20 8 0 15-9 15-20 0-11 7-20 15-20 8 0 15-9 15-19 0-30 39-51 92-51 l47 0 103 118 c147 168 376 394 498 492 286 229 527 345 825 399 79 15 90 19 93 39 3 21 0 22-60 21-35 0-99-7-142-15z"/><path fill="url(#lg0)" d="M7240 6221 c0-16 11-19 75-25 42-4 115-18 163-32 92-27 275-108 305-135 9-9 30-22 45-30 15-8 31-20 35-26 4-7 17-13 27-13 11 0 20-6 20-13 0-24 35-47 70-47 l33 0-24 26 c-49 53-181 144-279 193-145 73-317 121-432 121-30 0-38-4-38-19z"/><path d="M4571 6043 c7-10 45-52 84-93 160-169 343-394 610-750 244-325 406-524 563-690 l71-75 1 35 c0 29-8 44-38 73-21 20-46 37-55 37-11 0-17 8-17 22 0 24-46 78-66 78-7 0-14 10-16 23-2 12-13 26-25 32-13 5-23 17-23 27 0 9-11 25-25 36-14 11-25 25-25 30 0 6-8 17-18 24-10 7-21 21-25 31-4 11-16 21-27 24-11 3-20 14-20 24 0 11-7 22-15 25-8 4-15 12-15 20 0 8-9 19-20 26-11 7-20 19-20 26 0 7-7 15-15 18-8 4-15 13-15 20 0 8-7 17-15 20-8 4-15 11-15 18 0 6-13 26-29 43-15 17-31 38-34 47-4 9-11 16-17 16-5 0-10 7-10 15 0 9-7 18-15 21-8 4-15 13-15 20 0 8-7 17-15 20-8 4-15 12-15 19 0 7-13 27-29 44-16 17-31 38-35 46-3 8-10 15-16 15-5 0-10 7-10 15 0 9-7 18-15 21-8 4-15 11-15 16 0 13-91 128-101 128-5 0-9 7-9 15 0 8-9 20-20 27-11 7-20 18-20 25 0 6-11 20-25 31-14 11-25 25-25 30 0 6-11 19-25 30-14 11-25 24-25 29 0 13-44 53-58 53-7 0-12 8-12 18 0 23-40 62-63 62-11 0-17 8-17 23 0 34-98 127-134 127-26 0-27-2-15-17z"/><path d="M8030 5850 c0-39 14-60 42-60 13 0 18-8 18-25 0-16 6-25 15-25 8 0 15-9 15-20 0-11 5-20 10-20 6 0 10-7 10-15 0-8 5-15 10-15 6 0 10-7 10-15 0-8 9-15 20-15 16 0 20-7 20-30 0-31 38-120 52-120 4 0 8-11 8-25 0-14 4-25 9-25 5 0 11-12 13-27 3-16 17-73 32-128 22-79 29-131 33-247 5-113 9-148 19-148 46 0 20 316-41 505-51 157-148 328-249 440 l-45 50-1-35z"/><path d="M1106 5834 c-3-9-6-24-6-35 0-10-4-19-9-19-10 0-41-84-41-111 0-10-4-19-9-21-18-7-91-334-91-409 0-44 28-37 35 9 42 249 76 370 159 565 16 37 16 37-8 37-13 0-27-7-30-16z"/><path d="M4210 5419 c0-38 24-69 53-69 11 0 17-8 17-23 0-29 18-47 47-47 19 0 23-5 23-31 0-22 5-32 19-36 11-3 21-15 23-27 2-11 13-25 26-31 12-5 22-18 22-28 0-11 9-21 20-24 11-3 20-14 20-25 0-11 9-22 20-25 11-3 20-14 20-24 0-11 7-19 15-19 9 0 15-9 15-21 0-12 8-23 20-26 11-3 20-14 20-24 0-11 7-19 15-19 8 0 15-9 15-20 0-11 7-20 15-20 8 0 15-9 15-20 0-11 7-20 15-20 8 0 15-9 15-20 0-11 7-20 15-20 8 0 15-9 15-20 0-11 7-20 15-20 8 0 15-9 15-20 0-11 7-20 15-20 8 0 15-9 15-20 0-11 5-20 10-20 6 0 10-7 10-15 0-9 6-18 14-21 8-3 16-14 19-25 3-10 12-19 21-19 9 0 16-8 16-20 0-11 7-20 15-20 8 0 15-9 15-20 0-11 7-23 15-26 8-4 15-13 15-21 0-8 9-17 20-20 11-3 20-14 20-25 0-11 9-22 20-25 11-3 20-14 20-25 0-11 8-22 19-25 11-3 21-15 23-27 2-13 11-22 25-24 15-2 23-11 25-30 2-19 10-28 25-30 15-2 23-11 25-30 2-21 9-28 31-30 22-3 27-8 27-31 0-35 17-51 52-51 25 0 28-3 28-33 0-42 28-70 65-65 26 3 22 8-75 118-135 151-321 384-562 705-186 246-349 449-451 560 l-46 50-1-36z"/><path d="M940 5150 c0-36 4-50 14-50 15 0 26 30 26 73 0 20-5 27-20 27-17 0-20-7-20-50z"/><path d="M940 4855 c0-48 2-55 20-55 16 0 20 7 20 33 0 47-10 77-26 77-10 0-14-15-14-55z"/><path d="M8340 4846 c0-19-12-78-26-132-15-55-29-111-32-126-2-16-8-28-13-28-5 0-9-11-9-25 0-14-4-25-8-25-14 0-52-89-52-120 0-23-4-30-20-30-11 0-20-7-20-15 0-8-4-15-10-15-5 0-10-7-10-15 0-8-4-15-10-15-5 0-10-9-10-20 0-11-7-20-15-20-9 0-15-9-15-25 0-18-5-25-19-25-27 0-43-24-39-62 l3-33 62 75 c146 176 252 417 278 633 6 53 5 57-14 57-17 0-21-6-21-34z"/><path fill="url(#lg0)" d="M4390 4801 c0-13-8-21-22-23-17-2-24-11-26-30-2-19-9-28-21-28-26 0-41-21-41-57 0-29-3-33-28-33-37 0-52-17-52-59 l1-36 55 60 c30 33 78 88 106 123 29 35 59 62 70 62 12 0 62-59 146-172 71-95 159-211 195-257 l67-84-18-29 c-10-15-82-98-160-182-437-476-877-775-1322-899-118-33-314-67-388-67-72 0-102-8-102-28 0-13 16-14 113-9 122 6 368 45 487 78 222 60 503 208 740 389 191 146 470 412 638 608 62 72 63 75 60 125-3 45-6 52-25 55-15 2-23 10-23 24 0 11-8 22-20 25-11 3-20 14-20 24 0 11-7 22-15 25-8 4-15 13-15 20 0 8-7 17-15 20-8 4-15 12-15 20 0 8-9 19-20 26-11 7-20 19-20 26 0 7-7 15-15 18-8 4-15 12-15 20 0 7-6 17-13 21-6 4-19 21-27 37-8 16-23 31-32 34-10 2-18 13-18 23 0 11-4 19-10 19-5 0-10 7-10 15 0 7-6 18-13 22-8 4-16 16-20 26-3 9-13 17-22 17-8 0-15 9-15 19 0 22-19 31-66 31-27 0-34-4-34-19z"/><path d="M950 4763 c0-43 18-148 46-265 22-91 29-108 45-108 23 0 23 10 4 75-14 45-43 185-60 288-7 44-35 52-35 10z"/><path d="M4031 4426 c-71-71-82-87-79-112 3-29 4-28 91 56 49 46 98 97 109 112 l19 28-28 0 c-22 0-46-18-112-84z"/><path d="M1050 4343 c0-37 29-123 41-123 5 0 9-10 9-22 0-33 14-50 37-46 19 3 18 9-22 107-43 108-65 136-65 84z"/><path d="M6055 4283 c296-279 625-461 919-508 119-19 126-19 126 5 0 16-7 20-30 20-44 0-167 27-257 56-79 25-317 138-341 161-7 7-20 13-28 13-8 0-14 5-14 10 0 6-7 10-15 10-8 0-15 5-15 10 0 6-6 10-14 10-8 0-16 7-20 15-3 8-12 15-21 15-8 0-15 5-15 10 0 6-9 10-20 10-11 0-20 7-20 15 0 9-8 19-17 22-10 4-24 15-31 25-7 10-21 18-30 18-10 0-22 10-27 23-6 13-21 23-37 25-19 2-28 9-28 21 0 9-15 31-33 49-24 24-42 32-67 32 l-35-1 70-66z"/><path d="M3862 4268 c-7-7-12-22-12-35 0-19-5-23-31-23-22 0-32-5-36-20-3-11-14-20-25-20-11 0-22-9-25-20-3-11-14-20-24-20-11 0-19-4-19-10 0-5-7-10-15-10-9 0-18-7-21-15-4-8-12-15-20-15-8 0-14-4-14-10 0-5-7-10-15-10-8 0-15-4-15-10 0-5-7-10-15-10-8 0-15-4-15-10 0-5-6-10-14-10-8 0-21-6-28-13-7-7-28-19-45-26-25-10-33-20-33-38 0-31 7-29 113 35 91 54 257 178 337 251 l55 50-35 1 c-20 0-41-5-48-12z"/><path d="M7922 4078 c-7-7-12-18-12-25 0-7-9-13-20-13-11 0-23-7-26-15-4-8-12-15-20-15-8 0-14-4-14-10 0-5-7-10-15-10-8 0-15-4-15-10 0-5-7-10-15-10-8 0-15-4-15-8 0-4-16-14-35-21-19-7-35-19-35-27 0-8-9-14-21-14-12 0-60-15-108-34-84-34-214-66-266-66-19 0-25-5-25-21 0-20 3-21 58-14 215 27 464 140 622 283 l45 41-35 1 c-20 0-41-5-48-12z"/><path d="M1180 4045 c0-28 4-35 20-35 16 0 20-7 20-35 0-19 5-35 10-35 6 0 10-7 10-15 0-8 5-15 10-15 6 0 10-7 10-15 0-8 5-15 10-15 6 0 10-7 10-15 0-8 5-15 10-15 6 0 10-7 10-15 0-8 7-15 15-15 8 0 15-9 15-20 0-11 6-20 14-20 8 0 16-10 18-22 2-15 11-24 26-26 15-2 22-10 22-26 0-30 22-48 55-44 25 3 24 5-40 81-66 80-162 217-205 295-29 51-40 53-40 7z"/><path d="M3267 3884 c-86-36-219-73-292-80-54-6-65-10-65-25 0-23 10-23 124-3 198 34 445 136 324 133-18 0-59-12-91-25z"/><path d="M5590 3773 c0-36 16-53 52-53 23 0 28-4 28-23 0-29 18-47 46-47 16 0 24-7 26-22 2-15 11-24 24-26 12-2 24-12 27-23 3-11 14-19 26-19 12 0 21-6 21-15 0-8 8-15 19-15 10 0 21-8 24-19 2-10 18-24 36-32 17-8 31-17 31-21 0-5 7-8 15-8 8 0 15-4 15-10 0-5 7-10 15-10 8 0 15-4 15-10 0-5 7-10 15-10 8 0 15-4 15-10 0-5 7-10 15-10 8 0 15-4 15-9 0-5 10-13 23-17 12-4 24-10 27-13 11-14 60-41 75-41 8 0 15-4 15-9 0-10 143-77 255-120 183-71 396-118 583-128 99-5 112-4 112 10 0 18-22 23-149 32-423 29-891 249-1316 619-110 96-105 93-105 59z"/><path d="M1570 3552 c0-33 27-62 58-62 15 0 22-6 22-20 0-11 8-24 18-27 9-4 21-12 25-20 4-7 14-13 21-13 8 0 16-7 20-15 3-8 12-15 21-15 8 0 15-4 15-10 0-5 7-10 15-10 8 0 15-4 15-10 0-5 7-10 15-10 8 0 15-4 15-10 0-5 11-12 25-16 14-3 25-9 25-13 0-11 67-41 90-41 11 0 20-6 20-13 0-21 201-102 355-142 185-48 445-72 445-40 0 16-26 21-148 30-222 15-483 97-705 222-91 51-287 188-301 212-4 5-20 20-36 31 l-30 21 0-29z"/></g><g fill="#bf00e0"><path fill="url(#lg0)" d="M2530 7011 c-426-74-755-240-1053-530-156-152-282-319-386-513 l-53-98 31 0 c16 0 33 5 36 10 3 6 15 10 25 10 13 0 40 32 86 103 110 167 181 255 303 378 165 164 299 262 490 359 268 136 509 194 796 194 178 0 261-11 465-60 573-137 1109-539 1706-1280 64-79 123-144 130-144 26 0 17 66-11 88-14 11-25 23-25 27 0 10-126 191-172 246-43 52-44 56-23 61 37 8-374 424-592 599-373 300-710 463-1117 540-160 31-488 36-636 10z"/><path fill="url(#lg0)" d="M6895 7011 c-555-92-1020-361-1535-887-96-99-190-198-208-222 l-34-42 35 0 c19 0 40 7 47 15 7 8 23 15 36 15 17 0 66 40 172 143 314 305 518 465 772 610 221 126 465 216 700 259 152 28 421 30 560 4 221-40 383-92 559-180 306-154 570-399 757-703 26-43 58-91 71-107 88-107 204-449 228-671 10-94 16-115 31-115 50 0-38 455-135 699-16 40-19 56-10 62 8 5-2 33-36 95-250 463-670 813-1148 958-209 63-309 79-542 82-167 2-233-1-320-15z"/><path fill="url(#lg0)" d="M2755 6231 c-6-5-46-16-91-25-263-49-488-169-665-353-164-171-268-375-319-623-25-123-25-140-1-140 15 0 20 10 25 59 18 156 109 376 214 517 60 79 144 169 159 169 4 0 40 25 78 56 248 200 533 271 873 218 123-19 374-121 487-198 17-12 46-21 68-21 35 0 37 1 37 34 0 21-6 36-15 40-8 3-15 12-15 20 0 31-271 164-420 206-128 36-394 62-415 41z"/><path fill="url(#lg0)" d="M7135 6232 c-6-5-44-15-85-21-371-62-709-259-1080-631-80-80-192-198-248-262-57-65-111-118-120-118-10 0-28 7-40 16-23 16-23 16-20-17 3-33 5-34 49-37 38-2 52 2 78 23 17 15 31 35 31 46 0 10 6 19 13 19 13 0 57 40 57 52 0 11 306 312 388 381 94 79 229 177 245 177 5 0 41 20 81 44 106 67 290 151 388 180 319 91 650 38 921-148 43-29 78-46 97-46 27 0 30 3 30 34 0 76-159 186-369 256-131 44-389 76-416 52z"/><path d="M5131 5385 c50-69 59-74 59-31 0 25-4 36-15 36-8 0-15 9-15 20 0 16-7 20-31 20 l-30 0 32-45z"/><path d="M5221 5265 c50-69 59-74 59-31 0 25-4 36-15 36-8 0-15 9-15 20 0 16-7 20-31 20 l-30 0 32-45z"/><path d="M1660 4843 c0-34 12-63 26-63 10 0 14 13 14 40 0 33-3 40-20 40-12 0-20-7-20-17z"/><path d="M9066 4838 c-10-38-7-48 14-48 16 0 20 7 20 35 0 40-24 49-34 13z"/><path d="M9056 4748 c-10-38-7-48 14-48 16 0 20 7 20 35 0 40-24 49-34 13z"/></g><g fill="#ac00db"><path fill="url(#lg0)" d="M1395 6304 c-73-84-132-164-209-281-64-99-78-111-119-104-5 1-6-3-3-8 4-5 2-11-3-13-24-8-161-416-161-480 0-15 8-18 43-18 l42 0 48 150 c53 164 162 394 246 522 28 42 51 81 51 86 0 5 7 12 15 16 8 3 15 12 15 20 0 7 7 16 15 20 9 3 15 18 15 36 0 25 4 30 25 30 29 0 38 16 33 55-3 27-5 26-53-31z"/><path d="M5600 6270 l-35-29 38-1 c35 0 37 2 37 30 0 17-1 30-3 30-1 0-18-13-37-30z"/><path fill="url(#lg0)" d="M5388 6074 c-144-139-164-155-190-152-18 3-33-1-41-11-11-14-10-15 8-1 11 8-4-8-33-37-57-56-72-86-72-139 0-47 6-57 122-206 89-114 103-128 130-128 30 0 31 0 26 48-5 50-37 106-136 235-38 50-42 60-31 75 21 27 226 250 311 337 59 60 78 87 78 108 0 15-2 27-5 27-3 0-78-70-167-156z"/><path fill="url(#lg0)" d="M7616 6145 c10-8 23-15 28-15 4 0 21-10 36-22 15-13 55-42 87-66 60-42 103-82 88-82-4 0 3-9 16-20 l24-19-32-1 c-17 0-35 5-38 10-3 6-11 10-17 10-5 0 12-19 38-42 142-122 260-277 325-423 31-72 34-75 66-75 33 0 33 0 33 48 0 85-86 258-188 377-106 124-243 228-385 295-90 42-113 50-81 25z"/><path fill="url(#lg0)" d="M3280 6145 c0-3 15-11 33-20 37-17 44-21 160-100 49-33 83-61 77-63-7-3 1-13 17-23 l28-19-40 0 c-23 0-46 5-53 12-6 6-14 10-16 7-3-2 31-28 75-58 132-88 235-176 412-350 98-97 167-158 167-148 0 9 7 17 16 17 14 0 16 8 12 45-5 37-16 56-67 114-183 207-445 413-661 521-85 43-160 73-160 65z"/><path fill="url(#lg0)" d="M2055 5877 c-199-170-336-420-380-691-41-249 3-582 101-783 25-51 50-93 55-93 5 0 9 16 9 35 0 24-5 35-15 35-11 0-15 11-15 35 0 20-16 81-35 136-92 265-100 527-24 756 11 35 27 63 34 63 7 0 16 12 20 27 10 40 85 190 128 253 45 67 175 214 202 228 11 6 14 11 8 11-7 1-13 6-13 12 0 5 5 7 12 3 7-4 8-3 4 4-13 22-41 12-91-31z"/><path fill="url(#lg0)" d="M4779 5907 c6-8 9-16 6-19-3-3 6-17 20-32 14-15 25-30 25-33 0-3 17-26 38-52 61-74 178-248 152-226 l-24 20 23-32 c22-33 52-59 36-32-5 8 1 5 13-5 26-23 28-28 7-20-15 6 426-589 445-601 6-4 10 9 10 29 0 20-4 36-10 36-5 0-10 11-10 24 0 14-5 28-11 31-5 4-15 17-20 28-5 12-63 101-128 197-77 113-113 176-105 178 15 4-36 72-218 298-148 183-189 224-228 224-26 0-30-3-21-13z"/><path fill="url(#lg0)" d="M6317 5856 c-171-115-409-334-605-558-47-54-94-100-104-104-14-4-29 3-50 23 l-29 28 3-45 3-45 56-3 56-3 85 90 c47 50 87 88 90 85 3-3 48 41 99 96 122 132 298 292 426 388 79 59 100 79 91 89-8 10-7 12 5 7 9-3 23-1 33 4 12 7 6 9-25 9-35 0-58-10-134-61z"/><path fill="url(#lg0)" d="M8902 5848 c76-186 136-411 159-601 17-146 7-463-20-602-40-203-92-356-181-535-64-127-150-263-226-355-85-104-81-95-45-95 28 0 31 3 31 30 0 25 4 30 25 30 20 0 25 5 25 25 0 18 5 25 20 25 13 0 20 7 20 20 0 11 7 20 15 20 8 0 15 7 15 15 0 8 5 15 10 15 6 0 10 7 10 15 0 8 5 15 10 15 6 0 10 7 10 15 0 8 5 15 10 15 6 0 10 11 10 25 0 16 6 25 15 25 9 0 15 9 15 25 0 14 6 25 13 25 14 0 97 161 97 189 0 11 5 21 10 23 17 5 90 232 116 358 13 64 28 158 34 210 13 125 13 372-1 501-8 77-7 104 2 109 23 15-59 307-130 463-29 64-32 67-64 67 l-35 0 30-72z"/><path d="M5580 4800 c31-44 40-45 40-6 0 33-2 36-31 36 l-30 0 21-30z"/><path d="M4461 4765 c19-19 35-35 36-35 2 0 3 16 3 35 0 33-2 35-36 35 l-36 0 33-35z"/><path d="M4540 4666 c41-60 50-64 50-22 0 20-4 36-10 36-5 0-10 7-10 15 0 10-10 15-30 15 l-31 0 31-44z"/><path d="M5678 4682 c12-16 28-35 37-42 15-12 16-10 13 26-3 36-5 39-37 42 l-33 3 20-29z"/><path d="M5760 4590 c31-44 40-45 40-6 0 33-2 36-31 36 l-30 0 21-30z"/><path d="M4621 4556 c17-25 44-60 60-78 l28-33 1 38 c0 26-4 37-15 37-8 0-15 9-15 20 0 11-7 20-15 20-8 0-15 9-15 20 0 16-7 20-31 20 l-30 0 32-44z"/><path d="M5868 4473 c11-16 29-37 41-47 21-19 21-19 21 15 0 43-15 59-53 59 l-28 0 19-27z"/><path d="M4771 4359 c12-17 37-46 56-65 18-18 33-40 33-48 0-7-18-36-40-62 l-41-49 26-3 c31-4 55 13 55 39 0 11 7 19 15 19 13 0 15 11 13 63 l-3 62-37 3 c-36 3-38 5-38 38 0 31-2 34-31 34 l-30 0 22-31z"/><path d="M6005 4334 c38-34 40-34 43-14 6 38-5 50-45 50 l-38-1 40-35z"/><path d="M6095 4250 c3-5 19-19 35-30 l30-21 0 30 c0 29-3 31-36 31-20 0-33-4-29-10z"/><path d="M6255 4120 c3-5 19-19 35-30 l30-21 0 30 c0 29-3 31-36 31-20 0-33-4-29-10z"/><path d="M4727 4080 l-38-45 27-3 c36-5 56 18 52 59 l-3 33-38-44z"/><path d="M4335 3694 c-132-112-126-104-82-104 33 0 37 3 37 25 0 21 5 25 30 25 27 0 30 3 30 30 0 28 3 30 35 30 38 0 49 13 43 50-3 18-14 12-93-56z"/><path d="M4150 3540 l-35-29 38-1 c35 0 37 2 37 30 0 17-1 30-3 30-1 0-18-13-37-30z"/><path d="M8283 3419 c-29-22-53-42-53-44 0-3 16-5 35-5 24 0 35 5 35 15 0 8 9 15 20 15 16 0 20 7 20 30 0 17-1 30-2 30-2 0-27-18-55-41z"/><path d="M3808 3322 c-37-22-35-32 7-32 31 0 35 3 35 25 0 29-6 30-42 7z"/><path d="M8028 3262 c-37-22-35-32 7-32 31 0 35 3 35 25 0 29-6 30-42 7z"/></g><g fill="#b200c8"><path fill="url(#lg0)" d="M2635 6953 c-255-31-448-88-656-193-333-168-581-405-787-751-28-46-27-49 3-49 20 0 25 5 25 25 0 16 6 25 15 25 8 0 15 7 15 15 0 8 4 15 10 15 5 0 12 11 16 24 3 14 12 27 20 30 8 3 14 10 14 16 0 5 9 20 19 32 10 13 46 57 80 99 227 285 582 519 931 613 182 49 271 60 480 60 257 0 419-28 655-110 119-42 353-156 448-219 92-61 94-61 78-42-51 63-409 256-586 315-116 39-294 78-417 91-91 10-296 13-363 4z"/><path fill="url(#lg0)" d="M6970 6949 c-529-65-1013-323-1475-784-142-142-149-150-122-153 25-3 44 12 145 111 234 230 423 377 662 515 640 368 1353 374 1950 18 36-22 74-46 84-55 11-9 16-10 12-4-11 20-185 138-254 172-155 78-326 135-497 166-107 19-399 28-505 14z"/><path d="M4020 6526 c0-2 14-14 30-26 17-12 30-19 30-16 0 2-13 14-30 26-16 12-30 19-30 16z"/><path fill="url(#lg0)" d="M7690 6116 c0-2 30-23 68-47 37-23 87-59 111-81 24-21 52-38 62-38 12 0 19-7 19-18 0-25 19-42 47-42 19 0 23-5 23-30 0-32 16-45 47-38 40 9-196 211-319 274-47 24-58 28-58 20z"/><path d="M3493 6035 c49-30 109-71 134-90 47-36 87-49 63-20-24 29-252 165-277 165-4 0 32-25 80-55z"/><path d="M3800 5823 c0-26 19-43 47-43 15 0 23-6 23-18 0-25 20-42 50-42 24 1 23 3-20 41-25 21-57 49-72 60-27 19-28 19-28 2z"/><path d="M5160 5696 c0-33 2-36 31-36 l30 0-21 30 c-31 44-40 45-40 6z"/><path d="M4340 5266 c0-33 2-36 31-36 l30 0-21 30 c-31 44-40 45-40 6z"/></g><g fill="#9a00d7"><path fill="url(#lg0)" d="M7896 5966 c151-141 251-278 317-436 35-84 35-104 2-98-14 3-25 5-25 4 0 0 14-43 30-94 34-109 53-253 48-375 l-3-88 45 3 45 3-1 190 c-1 171-4 200-28 290-31 118-95 257-168 362-63 92-222 253-249 253-10 0-19 6-19 13 0 12-59 57-75 57-5 0 32-38 81-84z"/><path d="M1177 5981 c-22-38-22-41 8-41 22 0 25 4 25 35 0 43-10 44-33 6z"/><path fill="url(#lg0)" d="M3570 5995 c0-2 44-39 98-82 147-117 291-252 382-358 44-52 78-95 74-95-3 0 0-7 7-17 13-15 11-16-24-10 l-39 6 41-42 c69-73 259-298 344-409 74-96 85-107 115-107 31-1 32 1 32 37 0 47-13 72-102 190-234 313-606 684-850 847-63 43-78 51-78 40z"/><path fill="url(#lg0)" d="M5223 5880 c-113-125-117-141-50-228 63-83 123-174 131-199 6-18 3-22-18-25-25-3-21-10 83-148 59-80 121-152 136-160 35-19 104-19 137-1 27 14 158 161 214 238 17 24 34 41 37 38 4-3 5-2 2 2-3 3 0 12 6 20 9 10 7 13-11 13-26 0-53-23-179-152-100-104-133-120-150-75-8 19-288 396-362 487-16 19-29 40-29 47 0 7 16 30 35 52 21 23 35 49 35 65 0 21 5 26 23 26 34 0 59 32 55 70-3 33-3 33-95-70z"/><path fill="url(#lg0)" d="M1090 5808 c-22-46-61-149-87-230-46-141-49-148-75-148-24 0-28-5-37-52-28-138-36-251-32-450 l1-48 45 0 45 0 0 110 c0 181 42 413 112 624 22 67 51 142 64 168 25 49 32 108 13 108-5 0-28-37-49-82z"/><path fill="url(#lg0)" d="M1749 5409 c-50-94-80-256-80-441 0-169 20-286 76-447 19-55 35-108 35-119 0-22 101-177 115-177 6 0 11 14 13 32 2 22-12 61-49 135-64 126-114 272-134 386-18 103-18 102-1 102 11 0 15 34 19 163 4 124 10 181 27 242 42 152 41 145 14 145-13 0-28-9-35-21z"/><path fill="url(#lg0)" d="M5190 5415 c8-10 9-15 1-15-9 0 134-225 225-353 35-48 42-63 24-52-17 10-11-12 7-26 15-12 16-12 8 1-8 13-7 13 8 1 18-15 23-26 7-16-5 3-10 3-10 0 0-9 149-190 260-318 l85-98 3 46 c3 46-8 64-152 253-7 9-6 16 2 20 7 5-24 51-84 127-53 66-149 193-215 283-110 148-123 162-151 162-26 0-29-2-18-15z"/><path fill="url(#lg0)" d="M9054 5378 c40-292 34-526-18-778-121-581-503-1086-1012-1339-186-91-262-113-576-166-24-4-38-11-38-20 0-34 227-5 405 52 113 36 338 141 374 174 11 11 25 19 31 19 5 0 10 5 10 10 0 6 7 10 15 10 8 0 15 5 15 10 0 6 7 10 15 10 8 0 15 5 15 10 0 6 7 10 15 10 9 0 18 7 21 15 4 8 12 15 20 15 8 0 19 9 26 20 7 11 18 20 24 20 16 0 44 34 44 53 0 11 8 17 23 17 30 0 127 98 127 128 0 15 6 22 18 22 19 0 52 29 52 46 0 5 9 15 20 22 11 7 20 18 20 26 0 8 7 16 15 20 8 3 15 12 15 21 0 8 5 15 10 15 6 0 10 7 10 15 0 8 5 15 10 15 6 0 16 12 23 28 6 15 19 35 28 45 27 30 135 245 174 347 50 129 100 329 121 483 13 97 21 127 32 127 29 0-1 488-33 540-3 6-18 10-32 10-25 0-25-1-19-52z"/><path d="M4381 4887 c-19-7-37-18-39-26-4-11 6-13 53-8 64 6 70 10 62 32-7 18-29 18-76 2z"/><path fill="url(#lg0)" d="M4447 4824 c-11-12-8-36 7-48 8-6 82-102 165-214 84-111 156-200 161-197 21 13 10 76-21 118-16 23-76 110-132 192-97 142-104 150-137 153-20 2-39 0-43-4z"/><path d="M5899 4441 c12-16 45-51 74-77 l52-47 3 28 c5 39-79 125-121 125 l-28 0 20-29z"/><path fill="url(#lg0)" d="M4790 4343 c1-14 34-50 53-56 11-4 17-17 17-35 0-23-23-54-109-148-398-435-762-717-1126-870-119-50-249-90-344-104-131-20-171-31-171-46 0-35 203-6 392 56 125 41 406 173 446 210 11 11 24 20 28 20 14 0 134 82 134 91 0 5 6 9 14 9 7 0 25 11 40 25 15 14 31 25 36 25 6 0 15 9 22 20 7 11 18 20 25 20 7 0 18 9 25 20 7 11 18 20 25 20 6 0 20 11 31 25 11 14 24 25 29 25 13 0 53 44 53 58 0 7 8 12 18 12 16 0 332 307 332 322 0 4 20 26 45 49 25 23 45 45 45 50 0 4 11 19 25 33 21 21 25 34 25 84 0 52-3 62-25 76-25 16-85 22-85 9z"/><path d="M1930 4170 c31-44 40-45 40-6 0 33-2 36-31 36 l-30 0 21-30z"/><path d="M2025 4070 c3-5 19-19 35-30 l30-21 0 30 c0 29-3 31-36 31-20 0-33-4-29-10z"/><path d="M6330 4066 c13-16 103-76 113-76 4 0 7 11 7 25 0 16-6 25-15 25-8 0-15 5-15 10 0 6-7 10-15 10-8 0-15 5-15 10 0 6-16 10-36 10-31 0-35-2-24-14z"/><path d="M2170 3962 c0-8 52-42 64-42 3 0 6 11 6 25 0 22-4 25-35 25-19 0-35-4-35-8z"/><path d="M6750 3846 c0-13 28-26 58-26 6 0 12 9 12 20 0 16-7 20-35 20-23 0-35-5-35-14z"/><path d="M5620 3741 c0-29 3-31 36-31 39 0 38 9-6 40 l-30 21 0-30z"/><path d="M6190 3326 c0-23 4-26 35-26 53 0 46 13-27 48-5 2-8-8-8-22z"/><path d="M1970 3265 c0-22 4-25 35-25 43 0 44 10 6 33-38 22-41 22-41-8z"/><path d="M6350 3245 c0-22 4-25 36-25 44 0 42 18-4 37-31 13-32 12-32-12z"/><path d="M2150 3185 c0-22 4-25 36-25 44 0 42 18-4 37-31 13-32 12-32-12z"/><path d="M6500 3185 c0-22 4-25 36-25 44 0 42 18-4 37-31 13-32 12-32-12z"/><path d="M6590 3150 c0-16 7-20 35-20 19 0 35-4 35-10 0-5 16-10 35-10 57 0 43 25-25 43-76 21-80 21-80-3z"/><path d="M6790 3100 c0-16 7-20 35-20 40 0 49 24 13 34-38 10-48 7-48-14z"/><path d="M2540 3080 c0-16 7-20 35-20 40 0 49 24 13 34-38 10-48 7-48-14z"/><path d="M2620 3070 c0-16 7-20 35-20 40 0 49 24 13 34-38 10-48 7-48-14z"/><path d="M6990 3070 c0-16 7-20 35-20 40 0 49 24 13 34-38 10-48 7-48-14z"/></g><g fill="#7c0ed1"><path d="M8190 5615 c0-14 32-65 40-65 11 0 13 30 4 54-6 15-44 24-44 11z"/><path fill="url(#lg0)" d="M5259 5563 c11-16 73-102 138-193 107-150 150-193 147-149-1 8-61 95-134 192-92 123-138 177-152 177-19 0-19 0 1-27z"/><path fill="url(#lg0)" d="M981 5473 c-39-169-53-269-58-415 l-5-148-29 0 c-28 0-29-1-29-54 0-197 116-611 231-824 85-157 263-404 332-461 15-12 17-11 17 8 0 11 5 21 10 21 14 0 13 67-1 76-8 5-8 9 1 14 8 5-3 22-34 54-143 147-321 500-390 771-49 194-60 287-59 495 0 172 3 211 28 335 38 192 41 215 22 215-11 0-21-25-36-87z"/><path fill="url(#lg0)" d="M4149 5473 c117-129 268-318 387-488 12-16 24-40 28-52 6-18 3-22-19-25-26-3-18-14 147-233 292-388 460-589 676-809 181-183 316-303 320-282 2 9 8 16 13 16 5 0 9 7 9 15 0 9 9 15 25 15 18 0 25-5 25-20 0-15 7-20 25-20 18 0 25-5 25-20 0-13 7-20 20-20 11 0 20-7 20-15 0-11 11-15 38-15 l37 1-26 22 c-15 12-79 65-144 117-125 101-378 352-519 513-139 160-270 325-493 622-320 425-611 765-655 765-15 0 0-21 61-87z"/><path fill="url(#lg0)" d="M8266 5433 c47-137 65-257 62-399 l-3-119-27-3 c-31-4-33-9-43-107-8-67-63-242-102-320-150-299-429-521-747-592-107-24-335-22-458 5-386 82-752 354-1250 932-51 60-71 76-96 78-18 2-32 0-32-5 0-11 62-103 128-191 42-55 53-75 43-81-9-6 37-60 160-186 192-197 314-302 464-404 179-122 299-179 495-236 90-26 105-28 275-26 276 3 407 30 589 124 451 230 695 697 647 1233-18 192-79 394-119 394-18 0-17-7 14-97z"/><path fill="url(#lg0)" d="M9091 4911 c-2-70-33-250-62-371-161-655-643-1190-1244-1383-179-58-304-72-615-72-215 1-337 18-523 73 l-97 29 0-22 c0-14 7-25 20-28 11-3 20-13 20-22 0-14 8-16 50-13 34 2 50-1 50-9 0-20 29-30 151-55 101-20 142-23 364-23 219 0 263 3 360 23 280 57 512 155 733 309 94 65 244 188 250 204 2 5 10 9 17 9 20 0 167 178 248 300 88 134 175 312 226 467 46 137 96 375 107 501 l7 82-26 0 c-16 0-27 7-30 18-3 9-5 2-6-17z"/><path fill="url(#lg0)" d="M1680 4871 c0-123 63-338 149-509 29-57 46-100 39-96-19 12 17-42 71-105 100-118 269-241 426-309 88-38 221-75 246-67 10 3 42-2 70-12 40-14 53-15 56-5 3 8 34 12 106 12 327 0 655 134 985 402 116 94 339 316 474 471 67 75 123 137 127 137 3 0 12-4 20-9 10-7 18-5 26 5 14 20 16 18 150-181 59-88 114-167 121-176 17-19 18-33 2-23-14 9-4-9 34-58 16-21 32-37 36-36 4 1 17-3 30-10 38-22 29-63-30-134-91-110-439-451-563-550-337-271-710-458-999-503-471-73-818-35-1188 129-38 16-38 16-38-7 0-25 33-47 70-47 11 0 20-4 20-10 0-5 11-10 25-10 14 0 25-4 25-9 0-5 37-19 82-32 55-16 83-29 86-41 5-21 11-23 139-49 145-30 456-37 629-14 270 36 518 119 769 258 98 54 317 196 379 246 21 17 43 31 49 31 48 0 599 564 634 649 23 54 10 106-45 176-25 33-116 152-201 265-85 113-164 212-175 220-32 23-71 28-122 17-43-10-56-22-179-161-149-171-371-390-490-485-228-183-483-311-705-352-85-16-319-16-395 0-152 31-325 109-446 201-224 169-391 453-430 734-12 85-12 86-41 86-26 0-28-3-28-39z"/><path d="M1610 3511 c0-29 3-31 36-31 39 0 38 9-6 40 l-30 21 0-30z"/><path d="M5930 3490 c0-20 5-30 15-30 8 0 15-4 15-10 0-5 7-10 15-10 8 0 15-4 15-10 0-5 7-10 15-10 8 0 15-4 15-10 0-5 7-10 15-10 8 0 15-4 15-10 0-5 5-10 11-10 6 0 17-7 25-15 9-8 26-15 40-15 15 0 24-6 24-15 0-10 11-15 35-15 46 0 44 11-5 39-22 12-87 54-145 92 l-105 69 0-30z"/><path d="M1710 3430 c0-28 3-30 35-30 31 0 35-3 35-25 0-16 6-25 15-25 8 0 15-4 15-10 0-5 11-10 25-10 16 0 25-6 25-15 0-9 9-15 25-15 14 0 25-6 25-13 0-18 43-37 80-37 45 0 36 14-32 50-35 19-105 62-155 96 l-93 63 0-29z"/><path d="M6370 3235 c0-20 5-25 25-25 14 0 25-4 25-9 0-12 56-31 91-31 16 0 29 5 29 11 0 10-19 19-120 59 l-50 20 0-25z"/></g><g fill="#9e00b1"><path fill="url(#lg0)" d="M2625 6944 c-232-33-387-74-553-147-519-228-934-717-1072-1261-24-94-26-136-6-136 9 0 18 20 26 53 58 260 208 565 387 787 71 88 222 236 308 301 224 172 473 285 762 346 115 24 150 27 338 27 176 1 230-3 332-22 135-25 309-75 421-121 86-35 97-32 15 5-162 73-309 118-478 149-86 16-412 29-480 19z"/><path fill="url(#lg0)" d="M6920 6934 c-489-67-955-320-1427-777-159-155-347-362-358-395-8-28 2-45 108-179 60-76 93-110 98-102 8 14 2 24-100 154-39 50-71 96-71 102 0 21 197 238 361 398 226 220 398 354 622 487 515 305 1095 379 1606 204 69-23 135-46 146-50 11-3-11 9-50 28-72 36-222 87-310 106-185 41-431 50-625 24z"/><path fill="url(#lg0)" d="M7818 6036 c90-67 227-208 293-301 53-75 149-252 164-302 4-14 14-23 25-23 20 0 18 15-8 67-5 10-22 47-38 83-79 176-238 360-411 476-79 53-96 53-25 0z"/><path fill="url(#lg0)" d="M3510 6036 c0-3 34-28 75-56 125-84 301-237 484-419 94-95 177-171 183-169 14 5-90 118-108 118-8 0-14 6-14 14 0 18-223 234-330 319-114 91-290 208-290 193z"/><path d="M5381 5425 c0-28 24-57 44-53 13 2 10 10-14 38-25 29-30 32-30 15z"/><path d="M4270 5364 c0-23 33-58 50-52 6 2-3 19-19 38-26 31-30 32-31 14z"/><path d="M5440 5343 c0-23 78-123 96-123 9 0 12 5 8 13-14 23-95 127-100 127-2 0-4-7-4-17z"/><path d="M8310 5335 c0-9 6-45 12-80 10-51 16-65 30-65 22 0 22 4 2 91-10 45-20 69-30 69-8 0-14-7-14-15z"/><path d="M950 5265 c0-40 24-49 34-12 10 37 7 47-14 47-16 0-20-7-20-35z"/><path d="M940 5175 c0-40 24-49 34-12 10 37 7 47-14 47-16 0-20-7-20-35z"/><path d="M4430 5174 c0-23 33-58 50-52 6 2-3 19-19 38-26 31-30 32-31 14z"/><path d="M8340 5145 c0-28 4-35 20-35 21 0 24 10 14 48-10 36-34 27-34-13z"/><path d="M4510 5074 c0-23 33-58 50-52 6 2-3 19-19 38-26 31-30 32-31 14z"/><path d="M4580 4984 c0-25 57-94 76-94 11 0 6 13-17 45-44 61-59 73-59 49z"/><path d="M940 4825 c0-28 4-35 20-35 21 0 24 10 14 48-10 36-34 27-34-13z"/><path d="M4700 4825 c0-30 80-135 103-135 16 0 14 6-14 44-17 25-44 60-60 78-24 29-28 30-29 13z"/><path d="M8326 4773 c-9-60-7-83 8-83 9 0 18 19 25 50 14 67 14 70-8 70-14 0-20-10-25-37z"/><path d="M4850 4621 c0-30 48-91 72-91 17 0 16 5-13 45-45 63-59 73-59 46z"/><path d="M980 4576 c0-52 12-86 31-86 22 0 23 6 8 66-12 47-39 61-39 20z"/><path d="M1020 4415 c0-30 3-35 24-35 23 0 24 2 13 35-6 19-16 35-24 35-8 0-13-13-13-35z"/><path d="M8170 4345 c0-43 10-44 33-6 22 38 22 41-8 41-22 0-25-4-25-35z"/><path d="M5082 4325 c2-20 11-33 26-40 12-5 22-17 22-25 0-22 20-40 43-40 18 0 17 1-2 28-11 15-36 45-56 67 l-35 40 2-30z"/><path d="M3700 4109 l0-30 30 21 c44 31 45 40 6 40-33 0-36-2-36-31z"/><path d="M5270 4102 c0-33 15-47 45-40 13 2 10 10-14 38 l-30 35-1-33z"/><path d="M7940 4069 l0-30 30 21 c44 31 45 40 6 40-33 0-36-2-36-31z"/><path d="M1190 4025 c0-31 3-35 25-35 30 0 30 3 8 41-23 38-33 37-33-6z"/><path d="M1250 3925 c0-32 2-35 30-35 l30 0-22 35 c-29 44-38 44-38 0z"/><path d="M5440 3922 c0-33 15-47 44-40 13 2 10 10-14 38 l-30 35 0-33z"/><path d="M3340 3895 c0-24 1-25 32-12 46 19 48 37 4 37-32 0-36-3-36-25z"/><path d="M7540 3850 c0-5-13-10-30-10-24 0-30-4-30-21 0-18 4-21 29-16 46 9 101 35 101 46 0 6-16 11-35 11-19 0-35-4-35-10z"/><path d="M2980 3790 c0-21 10-24 48-14 36 10 27 34-13 34-28 0-35-4-35-20z"/><path d="M2900 3780 c0-21 10-24 48-14 36 10 27 34-13 34-28 0-35-4-35-20z"/><path d="M7040 3786 c0-13 28-26 58-26 6 0 12 9 12 20 0 16-7 20-35 20-23 0-35-5-35-14z"/><path d="M7270 3780 c0-21 10-24 48-14 36 10 27 34-13 34-28 0-35-4-35-20z"/></g><g fill="#6300ca"><path fill="url(#lg0)" d="M5141 4233 c50-65 276-317 367-410 61-62 124-131 142-153 l32-40-26 0 c-13 0-28 4-31 10-3 5-16 15-28 22-29 15 85-89 178-164 199-159 507-334 716-406 420-147 831-162 1234-46 66 19 158 51 205 71 212 89 448 249 610 412 94 95 95 96 65 99-21 3-34-2-44-17-7-12-19-21-26-21-8 0-15-4-17-9-6-16-156-139-250-204-221-154-454-252-733-309-94-19-142-22-330-23-191 0-235 3-334 23-63 13-124 28-135 34-20 11-20 11-1 18 17 6 14 8-15 15-162 35-490 183-670 302-220 146-463 356-666 574-58 64-97 97-111 98-17 1-23 7-23 24 0 28-17 47-42 47-12 0-18 8-18 23 0 28-17 47-43 47-17 0-18-2-6-17z"/><path d="M1093 4198 c19-46 37-48 37-4 0 32-3 36-25 36-24 0-25-1-12-32z"/><path d="M3760 4180 l-35-29 38-1 c35 0 37 2 37 30 0 17-1 30-3 30-1 0-18-13-37-30z"/><path d="M3625 4085 c-248-176-542-275-815-275-208 0-374 40-577 139-68 33-123 59-123 57 0-9 126-89 195-123 180-90 326-119 554-110 149 5 245 21 361 58 83 27 250 99 250 108 0 4 16 13 35 20 19 7 35 19 35 27 0 8 10 14 25 14 14 0 25 5 25 10 0 6 7 10 15 10 8 0 15 5 15 10 0 6 7 10 15 10 8 0 15 5 15 10 0 6 7 10 15 10 8 0 15 7 15 15 0 8 9 15 20 15 16 0 20 7 20 30 0 17-1 30-2 29-2 0-43-29-93-64z"/><path fill="url(#lg0)" d="M1147 4083 c13-35 97-179 151-258 30-44 63-91 72-105 9-14 26-40 38-57 l23-33-25 0 c-13 0-26 6-29 13-2 6-7 9-11 6-10-10 126-151 225-234 254-212 515-337 864-411 179-39 459-45 650-14 339 54 619 163 915 357 126 83 263 187 324 245 l38 38-28-1 c-17 0-51-16-81-37-409-290-646-411-958-492-295-76-641-79-910-8-37 9-38 11-20 24 16 12 16 14 2 14-33 0-235 72-332 119-195 93-333 190-499 351-135 131-334 395-361 479-4 14-15 21-30 21-19 0-23-4-18-17z"/><path fill="url(#lg0)" d="M7863 4036 c-145-108-320-183-493-211-291-49-597 13-922 185-54 28-98 49-98 46 0-11 145-99 240-146 132-66 258-109 370-126 185-28 424-13 585 36 80 25 244 103 274 131 11 11 25 19 31 19 5 0 10 5 10 10 0 6 7 10 15 10 9 0 18 6 21 14 3 8 14 16 25 19 14 4 19 14 19 36 0 17-1 31-2 31-2-1-35-25-75-54z"/></g><g fill="#8a009c"><path fill="url(#lg0)" d="M2600 6934 c-465-57-895-290-1200-649-265-313-434-724-466-1137-6-83-5-88 13-88 18 0 21 9 27 94 22 320 140 665 319 931 287 428 713 714 1199 806 159 30 404 36 567 15 68-9 125-15 127-13 3 2-42 12-98 22-99 17-406 29-488 19z"/><path fill="url(#lg0)" d="M6975 6933 c-478-58-894-260-1335-649-123-108-336-323-438-442-69-80-75-105-39-149 13-15 99-128 191-250 92-123 174-223 182-223 12 0 11 6-7 31-31 43-255 342-314 416-38 50-46 67-39 82 16 35 180 214 341 372 458 450 874 686 1368 775 120 21 378 29 496 15 52-6 112-13 134-16 l40-5-40 11 c-127 32-405 49-540 32z"/><path fill="url(#lg0)" d="M7939 5953 c6-12 17-26 24-30 24-16 111-119 160-192 109-162 198-398 212-567 9-112 14-134 32-134 14 0 15 12 9 87-22 291-151 566-362 773-47 47-81 75-75 63z"/><path d="M3927 5714 c183-179 388-410 576-647 43-54 82-95 88-91 6 3 6 11 1 17-214 284-561 660-742 806-30 24 4-14 77-85z"/><path d="M4640 4905 c0-26 53-95 73-95 15 0 13 7-14 45-43 59-59 73-59 50z"/><path d="M8340 4855 c0-40 24-49 34-12 10 37 7 47-14 47-16 0-20-7-20-35z"/><path d="M940 4815 c0-28 4-35 20-35 21 0 24 10 14 48-10 36-34 27-34-13z"/><path d="M950 4750 c0-10 5-53 11-95 10-63 14-75 30-75 22 0 22 3 10 67-5 26-12 65-16 86-6 39-35 54-35 17z"/><path d="M4750 4755 c0-26 53-95 73-95 15 0 13 7-14 45-43 59-59 73-59 50z"/><path d="M4337 4753 c-4-3-7-19-7-35 0-23-4-28-23-28-31 0-47-18-47-54 l1-31 45 50 c24 28 54 62 65 78 l20 27-24 0 c-13 0-27-3-30-7z"/><path d="M8310 4686 c0-19-4-36-10-38-5-1-15-27-22-55-7-29-16-53-20-53-5 0-8-16-8-35 0-77 37-19 79 123 26 85 26 92 1 92-16 0-20-7-20-34z"/><path d="M4192 4588 c-7-7-12-25-12-41 0-25 2-28 15-17 9 7 25 26 36 42 l20 28-23 0 c-13 0-29-5-36-12z"/><path d="M4910 4542 c0-12 9-31 20-42 11-11 20-24 20-30 0-5 9-15 20-22 11-7 20-18 20-25 0-7 9-18 20-25 11-7 20-18 20-24 0-17 27-36 45-32 11 2-6 30-61 98-101 127-104 130-104 102z"/><path d="M1000 4485 c0-28 4-35 20-35 21 0 24 10 14 48-10 36-34 27-34-13z"/><path d="M1030 4393 c0-52 11-73 36-73 l24 0-18 47 c-20 54-42 68-42 26z"/><path d="M8180 4375 c0-16-6-25-15-25-8 0-15-7-15-15 0-8-4-15-10-15-5 0-10-7-10-15 0-8-4-15-10-15-5 0-10-9-10-20 0-11-7-20-15-20-10 0-15-11-15-35 0-32-2-35-30-35-28 0-30-2-30-37 l0-38 45 50 c46 51 165 222 165 237 0 4-11 8-25 8-20 0-25-5-25-25z"/><path d="M3880 4259 l0-30 30 21 c44 31 45 40 6 40-33 0-36-2-36-31z"/><path d="M1092 4229 c2-27 8-35 26-37 22-3 22-2 9 29-18 46-39 50-35 8z"/><path d="M3800 4200 c0-15-7-20-25-20-21 0-25-5-25-31 l0-30 28 20 c15 11 43 33 62 50 l35 30-37 1 c-31 0-38-3-38-20z"/><path d="M5190 4199 c0-30 21-52 45-47 13 2 10 10-14 38 l-30 35-1-26z"/><path d="M5260 4119 c0-30 21-52 45-47 13 2 10 10-14 38 l-30 35-1-26z"/><path d="M3630 4059 l0-30 30 21 c44 31 45 40 6 40-33 0-36-2-36-31z"/><path d="M1200 4010 c0-18 6-33 15-36 8-4 15-15 15-26 0-11 8-22 20-25 12-3 20-14 20-28 0-12 11-34 25-49 14-15 25-30 25-34 0-4 8-15 19-24 10-8 20-21 23-28 2-7 13-10 25-8 19 3 16 10-38 83-33 44-76 108-96 143-21 34-41 62-45 62-4 0-8-14-8-30z"/><path d="M3540 4005 c0-30 3-30 41-8 38 23 37 33-6 33-31 0-35-3-35-25z"/><path d="M5410 3959 c0-30 31-62 55-57 13 2 10 11-19 43-34 39-35 39-36 14z"/><path d="M3393 3943 c-23-12-33-24-33-40 0-20 3-22 27-12 43 16 103 52 103 61 0 14-63 8-97-9z"/><path d="M7672 3911 c-8-4-12-18-10-30 l3-21 43 21 c23 12 42 25 42 30 0 11-61 12-78 0z"/><path d="M7510 3830 c0-22 20-26 51-10 30 16 23 30-16 30-28 0-35-4-35-20z"/><path d="M3120 3820 c0-21 10-24 48-14 36 10 27 34-13 34-28 0-35-4-35-20z"/><path d="M3030 3800 c0-21 16-25 58-14 39 11 27 34-18 34-33 0-40-3-40-20z"/><path d="M6910 3806 c0-13 28-26 58-26 6 0 12 9 12 20 0 16-7 20-35 20-23 0-35-5-35-14z"/><path d="M7373 3813 c-25-3-33-9-33-25 0-18 4-19 38-14 81 14 92 18 92 32 0 14-24 16-97 7z"/><path d="M7050 3786 c0-13 28-26 58-26 6 0 12 9 12 20 0 16-7 20-35 20-23 0-35-5-35-14z"/></g><g fill="#6200b4"><path d="M4360 5265 c8-11 62-83 120-160 58-78 132-178 165-224 327-455 552-729 815-991 279-279 499-444 768-576 74-36 135-64 137-62 2 2-12 13-33 23-294 156-488 293-729 517-264 246-494 512-828 958-180 241-385 499-412 521-16 13-16 12-3-6z"/><path d="M8344 5118 c3-29 5-56 6-60 0-5 7-8 15-8 10 0 15 10 15 29 0 51-12 91-27 91-12 0-14-11-9-52z"/><path fill="url(#lg0)" d="M934 5083 c-10-52 3-291 21-403 91-553 387-1016 840-1313 72-47 264-141 272-133 2 2-32 23-77 47-178 92-331 209-490 376-131 136-221 262-304 424-155 298-226 583-226 899 0 116-3 140-15 140-8 0-17-14-21-37z"/><path d="M8346 4948 c-3-18-8-62-11-97-9-91-48-235-93-338-109-254-335-488-584-606-307-146-688-140-1040 14-51 22-123 56-160 75-38 19-68 32-68 30 0-7 122-78 207-120 437-216 899-189 1272 74 143 102 297 282 381 449 67 134 116 312 126 459 6 80 5 92-9 92-10 0-18-11-21-32z"/><path fill="url(#lg0)" d="M4272 4678 c-147-164-379-390-492-481-524-421-1024-505-1550-259-76 36-79 37-45 12 90-64 280-141 420-172 89-19 351-16 453 5 400 82 779 345 1229 855 74 83 142 152 150 152 8 0 11 5 8 10-3 6-17 10-30 10-18 0-54-33-143-132z"/></g><g fill="#57009f"><path d="M4578 4988 c5-7 67-92 137-188 417-572 770-959 1110-1216 81-61 119-86 100-66-5 5-48 40-95 77-324 253-633 591-1057 1158-102 136-190 247-195 247-7 0-7-4 0-12z"/><path d="M8346 4888 c-9-36-7-48 8-48 15 0 26 21 26 51 0 27-26 24-34-3z"/><path d="M945 4798 c38-356 178-709 393-993 105-138 359-370 455-415 18-9 18-7-3 7-138 101-305 261-405 388-212 271-352 601-399 944-9 61-16 116-16 121 0 6-7 10-16 10-14 0-15-9-9-62z"/><path fill="url(#lg0)" d="M8313 4705 c-135-543-599-914-1146-915-109 0-286 25-392 56-44 13-81 22-83 20-7-8 141-56 233-76 407-88 809 31 1097 323 162 165 272 367 329 602 22 95 23 115 6 115-9 0-24-44-44-125z"/><path fill="url(#lg0)" d="M4394 4796 c-11-6-68-65-126-131-138-156-378-391-498-487-242-193-487-317-720-363-128-26-320-30-443-11-59 10-131 24-159 32-27 9-52 13-55 10-9-9 152-54 256-71 120-20 284-16 415 10 237 47 479 169 730 369 130 103 416 383 416 408 0 10 6 18 13 18 19 0 67 53 67 73 0 9 6 17 13 17 19 0 47 33 47 53 0 9 5 17 11 17 19 0 79 58 65 63-6 3-21 0-32-7z"/></g><g fill="#5d0084"><path d="M2598 6913 c12-2 30-2 40 0 9 3-1 5-23 4-22 0-30-2-17-4z"/><path d="M6845 6900 c-42-11-1-11 50-1 34 7 35 9 10 9-16 0-43-4-60-8z"/><path fill="url(#lg0)" d="M2430 6893 c-14-2-65-15-115-29-408-109-775-375-1033-747-83-120-200-356-246-497-64-197-87-331-93-542-4-118-1-223 6-285 27-221 96-456 186-638 49-99 164-280 214-335 17-19 4 3-29 50-168 238-293 561-336 866-24 177-15 484 20 651 47 222 126 430 229 606 273 463 699 776 1217 893 51 11 36 17-20 7z"/><path fill="url(#lg0)" d="M6670 6864 c-423-113-850-387-1262-812-175-181-258-279-258-305 0-13 14-36 32-53 l32-29-22 29 c-29 38-28 52 9 95 516 596 989 932 1509 1071 58 16 94 29 80 29-14 0-68-12-120-25z"/><path fill="url(#lg0)" d="M8153 5714 c77-125 149-309 178-459 19-94 19-397 0-490-34-175-121-373-222-508-187-249-475-424-774-468-38-6-83-14-100-19 l-30-8 35-1 c58-2 220 28 305 56 352 115 637 396 763 753 58 165 67 226 66 440-1 178-3 203-28 293-14 54-40 134-56 177-31 78-117 232-147 260-8 8-4-3 10-26z"/><path d="M5228 5638 c5-7 69-94 142-193 121-165 213-279 149-185-43 65-291 390-296 390-3 0-1-6 5-12z"/><path d="M4327 5305 c83-101 263-332 378-485 171-228 455-581 455-566 0 3-45 61-101 128-55 68-180 229-277 358-198 265-375 488-452 570 l-52 55 49-60z"/><path d="M4257 4648 c-270-307-520-528-749-662-82-47-104-66-78-66 18 0 91 40 179 98 206 135 436 346 683 625 104 117 134 157 119 157-13 0-65-51-154-152z"/><path d="M3312 3885 c-112-49-328-104-412-106-19 0-44-5-55-10-28-13 121-3 215 15 133 26 300 85 300 106 0 13-8 12-48-5z"/><path d="M2728 3763 c12-2 30-2 40 0 9 3-1 5-23 4-22 0-30-2-17-4z"/><path d="M7103 3763 c9-2 25-2 35 0 9 3 1 5-18 5-19 0-27-2-17-5z"/></g><g fill="#4b006b"><path d="M1512 6381 c-523-518-701-1318-452-2026 34-96 125-295 134-295 4 0-7 26-23 57-79 160-147 375-180 572-26 155-29 439-6 594 64 424 245 790 544 1100 52 53 92 97 89 97-3 0-51-45-106-99z"/><path fill="url(#lg0)" d="M5744 6353 c-117-93-396-366-512-501-45-51-72-91-71-105 0-21 1-21 8-2 26 64 433 480 616 630 82 67 80 65 73 65-3 0-55-39-114-87z"/><path fill="url(#lg0)" d="M8310 5407 c0-3 10-45 22-94 20-76 23-114 23-288 0-213-5-253-56-408-101-309-317-566-594-709-163-83-299-122-490-138 l-100-9 110 4 c323 12 562 119 795 355 166 167 262 334 319 555 51 192 53 434 6 624-22 90-35 130-35 108z"/><path fill="url(#lg0)" d="M4252 4632 c-502-566-918-821-1405-862 l-102-9 115 5 c325 12 610 131 935 390 174 140 302 268 597 602 18 20 23 32 14 32-7 0-77-71-154-158z"/><path d="M1215 4020 c9-16 18-30 21-30 2 0-2 14-11 30-9 17-18 30-21 30-2 0 2-13 11-30z"/></g></svg>