<?xml version="1.0" ?><svg id="Layer_1" style="enable-background:new 0 0 512 512;" version="1.1" viewBox="0 0 512 512" xml:space="preserve" xmlns="http://www.w3.org/2000/svg" xmlns:xlink="http://www.w3.org/1999/xlink"><style type="text/css">
	.st0{fill:#11B24C;}
</style><g id="XMLID_879_"><polygon class="st0" id="XMLID_889_" points="126.5,334.8 117.6,361.7 135.5,361.7 126.8,334.8  "/><path class="st0" d="M365.6,285.9H40.3v133.9h276.3L365.6,285.9z M143.8,387l-5.2-15.9h-24.1l-5.2,15.9H97.5   l23.7-68h10.8l23.5,68H143.8z M207.4,387l-5.2-15.9h-24.1l-5.2,15.9h-11.7l23.7-68h10.8l23.5,68H207.4z M243.3,373.5   c2.7,3.7,6.5,5.5,11.2,5.5c4.6,0,8.2-1.2,10.6-3.6c2.4-2.4,3.6-5.9,3.6-10.5h10.9l0.1,0.3c0.1,6.9-2.1,12.4-6.7,16.6   c-4.6,4.2-10.8,6.3-18.6,6.3c-7.9,0-14.3-2.7-19.3-8c-4.9-5.3-7.4-12.2-7.4-20.5v-12.9c0-8.3,2.4-15.1,7.3-20.5   c4.9-5.4,11.2-8.1,19-8.1c8,0,14.3,2,18.9,6.1c4.6,4.1,6.8,9.7,6.7,16.8l-0.1,0.3h-11c0-4.5-1.2-8-3.7-10.4   c-2.5-2.4-6.1-3.6-10.8-3.6c-4.6,0-8.3,1.8-11,5.5c-2.7,3.7-4,8.3-4,13.9v13C239.2,365.1,240.5,369.8,243.3,373.5z" id="XMLID_884_"/><polygon class="st0" id="XMLID_883_" points="190.1,334.8 181.2,361.7 199.1,361.7 190.4,334.8  "/><path class="st0" d="M352.9,6L352.9,6H107.4c-7.3,0-13.3,6-13.3,13.3v256.8h26.6V32.6h232.2v92.2h92.2v354.6H120.7   v-49.8H94.1v63.1c0,7.3,6,13.3,13.3,13.3h351c7.3,0,13.3-6,13.3-13.3V124.8L352.9,6z" id="XMLID_882_"/><rect class="st0" height="19.6" id="XMLID_881_" width="253.4" x="156.2" y="171.4"/><rect class="st0" height="19.6" id="XMLID_880_" width="213.3" x="156.2" y="209.5"/></g></svg>