<?xml version="1.0" ?><svg id="Layer_1" style="enable-background:new 0 0 512 512;" version="1.1" viewBox="0 0 512 512" xml:space="preserve" xmlns="http://www.w3.org/2000/svg" xmlns:xlink="http://www.w3.org/1999/xlink"><style type="text/css">
	.st0{fill:#7361AB;}
</style><g id="XMLID_705_"><path class="st0" d="M365.6,285.9H40.3v133.9h276.3L365.6,285.9z M193.2,387.9l-5.3-16.3h-24.8l-5.4,16.3h-12.1   l24.4-70h11.1l24.1,70H193.2z M229.6,387.9h-11.7v-70h11.7V387.9z" id="XMLID_710_"/><polygon class="st0" id="XMLID_709_" points="175.5,334.1 166.3,361.7 184.7,361.7 175.7,334.1  "/><path class="st0" d="M352.9,6L352.9,6H107.4c-7.3,0-13.3,6-13.3,13.3v256.8h26.6V32.6h232.2v92.2h92.2v354.6H120.7   v-49.8H94.1v63.1c0,7.3,6,13.3,13.3,13.3h351c7.3,0,13.3-6,13.3-13.3V124.8L352.9,6z" id="XMLID_708_"/><rect class="st0" height="19.6" id="XMLID_707_" width="253.4" x="156.2" y="171.4"/><rect class="st0" height="19.6" id="XMLID_706_" width="213.3" x="156.2" y="209.5"/></g></svg>