<?xml version="1.0" ?><svg id="Layer_1" style="enable-background:new 0 0 512 512;" version="1.1" viewBox="0 0 512 512" xml:space="preserve" xmlns="http://www.w3.org/2000/svg" xmlns:xlink="http://www.w3.org/1999/xlink"><style type="text/css">
	.st0{fill:#F47822;}
</style><g id="XMLID_969_"><path class="st0" d="M116.5,356.9h-0.6h-15.5v22.5h15.8c4,0,7.1-0.9,9.3-2.8c2.2-1.8,3.3-4.5,3.3-8   c0-3.5-1.1-6.3-3.2-8.4C123.4,358.2,120.4,357.1,116.5,356.9z" id="XMLID_980_"/><path class="st0" d="M269.7,328.1h-15.1v24.7h15.1c4.3,0,7.6-1.2,9.8-3.5c2.2-2.3,3.3-5.2,3.3-8.8   s-1.1-6.5-3.3-8.9C277.3,329.3,274.1,328.1,269.7,328.1z" id="XMLID_979_"/><path class="st0" d="M121.5,345.7c2.1-1.7,3.1-4.1,3.1-7.3c0-3.5-1.1-6-3.3-7.7c-2.2-1.7-5.4-2.5-9.7-2.5h-11.3   v20.1h12.5C116.5,348.2,119.4,347.4,121.5,345.7z" id="XMLID_978_"/><path class="st0" d="M365.6,285.9H40.3v133.9h276.3L365.6,285.9z M133.9,383.6c-4.3,3.4-10.2,5.1-17.8,5.1H88.7   v-70h22.9c7.7,0,13.8,1.6,18.1,4.8c4.4,3.2,6.5,8,6.5,14.3c0,3.1-0.9,5.8-2.6,8.3c-1.7,2.5-4.2,4.3-7.3,5.6   c4.5,0.7,7.9,2.7,10.4,5.8c2.4,3.1,3.6,6.8,3.6,11.1C140.4,375.2,138.2,380.2,133.9,383.6z M225.2,388.8h-11.7v-50.3l-0.3,0   L194,388.8h-8l-19.6-51.3l-0.3,0.1v51.2h-11.7v-70h15.3l20.1,53.8h0.3l20.2-53.8h14.9V388.8z M287.9,356.3   c-4.4,4-10.4,5.9-18.1,5.9h-15.1v26.5h-11.7v-70h26.8c7.7,0,13.8,2,18.1,6c4.4,4,6.6,9.2,6.6,15.7   C294.5,347.1,292.3,352.3,287.9,356.3z" id="XMLID_973_"/><path class="st0" d="M352.9,6L352.9,6L107.4,6c-7.3,0-13.3,6-13.3,13.3v256.8h26.6V32.6h232.2v92.2h92.2v354.6   H120.7v-49.8H94.1v63.1c0,7.3,6,13.3,13.3,13.3h351c7.3,0,13.3-6,13.3-13.3V124.8L352.9,6z" id="XMLID_972_"/><rect class="st0" height="19.6" id="XMLID_971_" width="253.4" x="156.2" y="171.4"/><rect class="st0" height="19.6" id="XMLID_970_" width="213.3" x="156.2" y="209.5"/></g></svg>