<?xml version="1.0" ?><svg id="Layer_1" style="enable-background:new 0 0 512 512;" version="1.1" viewBox="0 0 512 512" xml:space="preserve" xmlns="http://www.w3.org/2000/svg" xmlns:xlink="http://www.w3.org/1999/xlink"><style type="text/css">
	.st0{fill:#EF3343;}
</style><g id="XMLID_714_"><path class="st0" d="M365.6,285.9H40.3v133.9h276.3L365.6,285.9z M116.1,373.3c2.7,3.7,6.5,5.5,11.2,5.5   c4.6,0,8.2-1.2,10.6-3.6c2.4-2.4,3.6-5.9,3.6-10.5h10.9l0.1,0.3c0.1,6.9-2.1,12.4-6.7,16.6c-4.6,4.2-10.8,6.3-18.6,6.3   c-7.9,0-14.3-2.7-19.3-8c-4.9-5.3-7.4-12.2-7.4-20.5v-12.9c0-8.3,2.4-15.1,7.3-20.5c4.9-5.4,11.2-8.1,19-8.1c8,0,14.3,2,18.9,6.1   c4.6,4.1,6.8,9.7,6.7,16.8l-0.1,0.3h-11c0-4.5-1.2-8-3.7-10.4c-2.5-2.4-6.1-3.6-10.8-3.6c-4.6,0-8.3,1.8-11,5.5   c-2.7,3.7-4,8.3-4,13.9v13C112,365,113.3,369.7,116.1,373.3z M218,358.1c0,8.5-2.7,15.4-8.1,20.8c-5.4,5.4-12.4,8-21.1,8h-22.5v-68   h22.5c8.6,0,15.6,2.7,21.1,8.1c5.4,5.4,8.1,12.3,8.1,20.8V358.1z M283.9,386.9h-11.7c-1.2-1-2-2.6-2.4-4.8   c-0.3-2.2-0.5-4.4-0.5-6.5v-5.5c0-3.5-1-6.3-3-8.3s-4.7-3.1-8.2-3.1h-13.4v28.2h-11.4v-68h23.4c7.6,0,13.4,1.7,17.6,5.1   c4.1,3.4,6.2,8.3,6.2,14.7c0,3.5-0.9,6.6-2.7,9.1c-1.8,2.5-4.5,4.6-8,6.1c3.8,1.2,6.6,3.2,8.3,5.9c1.7,2.7,2.5,6.1,2.5,10.2v5.7   c0,2,0.2,3.9,0.7,5.8c0.5,1.9,1.3,3.3,2.5,4.3V386.9z" id="XMLID_720_"/><path class="st0" d="M188.8,328h-11.1v49.9h11.1c5.5,0,9.8-1.8,13-5.5c3.2-3.7,4.8-8.4,4.8-14.2v-10.4   c0-5.7-1.6-10.4-4.8-14.1C198.6,329.8,194.3,328,188.8,328z" id="XMLID_719_"/><path class="st0" d="M256.7,328h-12.1v21.6h11.4c4.5,0,7.9-0.9,10-2.6c2.1-1.7,3.1-4.4,3.1-8c0-3.4-1-6.1-3.1-8.1   C264.1,329,260.9,328,256.7,328z" id="XMLID_718_"/><path class="st0" d="M352.9,6L352.9,6L107.4,6c-7.3,0-13.3,6-13.3,13.3v256.8h26.6V32.6h232.2v92.2h92.2v354.6   H120.7v-49.8H94.1v63.1c0,7.3,6,13.3,13.3,13.3h351c7.3,0,13.3-6,13.3-13.3V124.8L352.9,6z" id="XMLID_717_"/><rect class="st0" height="19.6" id="XMLID_716_" width="253.4" x="156.2" y="171.4"/><rect class="st0" height="19.6" id="XMLID_715_" width="213.3" x="156.2" y="209.5"/></g></svg>