<?xml version="1.0" ?><svg id="Layer_1" style="enable-background:new 0 0 512 512;" version="1.1" viewBox="0 0 512 512" xml:space="preserve" xmlns="http://www.w3.org/2000/svg" xmlns:xlink="http://www.w3.org/1999/xlink"><style type="text/css">
	.st0{fill:#7361AB;}
</style><g id="XMLID_857_"><path class="st0" d="M187.3,326.1c-5,0-9,1.8-11.8,5.5c-2.9,3.6-4.3,8.3-4.3,14v12.3c0,5.7,1.4,10.4,4.3,14.1   c2.9,3.7,6.8,5.5,11.8,5.5c5.2,0,9.3-1.8,12.3-5.5c3-3.6,4.5-8.3,4.5-14.1v-12.3c0-5.7-1.5-10.3-4.5-14   C196.5,327.9,192.4,326.1,187.3,326.1z" id="XMLID_867_"/><path class="st0" d="M117.5,326.8h-11.1v49.9h11.1c5.5,0,9.8-1.8,13-5.5c3.2-3.7,4.8-8.4,4.8-14.2v-10.4   c0-5.7-1.6-10.4-4.8-14.1C127.2,328.7,122.9,326.8,117.5,326.8z" id="XMLID_866_"/><path class="st0" d="M365.6,285.9H40.3v133.9h276.3L365.6,285.9z M146.6,356.9c0,8.5-2.7,15.4-8.1,20.8   c-5.4,5.4-12.4,8-21.1,8H95v-68h22.5c8.6,0,15.6,2.7,21.1,8.1c5.4,5.4,8.1,12.3,8.1,20.8V356.9z M215.4,357.9   c0,8.3-2.6,15.2-7.8,20.7c-5.2,5.5-12,8.2-20.4,8.2c-8.1,0-14.8-2.7-19.9-8.2c-5.1-5.5-7.7-12.4-7.7-20.7v-12.2   c0-8.3,2.5-15.2,7.6-20.7c5.1-5.5,11.7-8.2,19.9-8.2c8.3,0,15.1,2.7,20.3,8.2c5.2,5.5,7.9,12.4,7.9,20.7V357.9z M243.7,372.2   c2.7,3.7,6.5,5.5,11.2,5.5c4.6,0,8.2-1.2,10.6-3.6c2.4-2.4,3.6-5.9,3.6-10.5h10.9l0.1,0.3c0.1,6.9-2.1,12.4-6.7,16.6   c-4.6,4.2-10.8,6.3-18.6,6.3c-7.9,0-14.3-2.7-19.3-8c-4.9-5.3-7.4-12.2-7.4-20.5v-12.9c0-8.3,2.4-15.1,7.3-20.5s11.2-8.1,19-8.1   c8,0,14.3,2,18.9,6.1c4.6,4.1,6.8,9.7,6.7,16.8l-0.1,0.3h-11c0-4.5-1.2-8-3.7-10.4c-2.5-2.4-6.1-3.6-10.8-3.6   c-4.6,0-8.3,1.8-11,5.5c-2.7,3.7-4,8.3-4,13.9v13C239.6,363.9,241,368.5,243.7,372.2z" id="XMLID_861_"/><path class="st0" d="M352.9,6L352.9,6L107.4,6c-7.3,0-13.3,6-13.3,13.3v256.8h26.6V32.6h232.2v92.2h92.2v354.6   H120.7v-49.8H94.1v63.1c0,7.3,6,13.3,13.3,13.3h351c7.3,0,13.3-6,13.3-13.3V124.8L352.9,6z" id="XMLID_860_"/><rect class="st0" height="19.6" id="XMLID_859_" width="253.4" x="156.2" y="171.4"/><rect class="st0" height="19.6" id="XMLID_858_" width="213.3" x="156.2" y="209.5"/></g></svg>