<?xml version="1.0" ?><svg id="Layer_1" style="enable-background:new 0 0 512 512;" version="1.1" viewBox="0 0 512 512" xml:space="preserve" xmlns="http://www.w3.org/2000/svg" xmlns:xlink="http://www.w3.org/1999/xlink"><style type="text/css">
	.st0{fill:#2F9DD9;}
</style><g id="XMLID_947_"><path class="st0" d="M161.8,330.9c-4.3,0-7.7,1.6-10.2,4.7c-2.5,3.1-3.7,7.1-3.7,12v10.6c0,4.9,1.2,8.9,3.7,12.1   c2.5,3.1,5.9,4.7,10.1,4.7c4.5,0,8-1.6,10.6-4.7c2.6-3.1,3.9-7.2,3.9-12.1v-10.6c0-4.9-1.3-8.9-3.9-12   C169.8,332.5,166.3,330.9,161.8,330.9z" id="XMLID_958_"/><path class="st0" d="M365.6,285.9H40.3v133.9h276.3L365.6,285.9z M127,357.4c0,7.3-2.3,13.2-6.9,17.8   c-4.6,4.6-10.6,6.9-18,6.9H82.8v-58.3H102c7.4,0,13.4,2.3,18,6.9c4.6,4.6,6.9,10.6,6.9,17.8V357.4z M186,358.2   c0,7.1-2.2,13-6.7,17.7c-4.5,4.7-10.3,7-17.4,7c-7,0-12.6-2.3-17-7c-4.4-4.7-6.6-10.6-6.6-17.7v-10.5c0-7.1,2.2-13,6.5-17.7   c4.4-4.7,10-7,17-7c7.1,0,12.9,2.4,17.4,7c4.5,4.7,6.7,10.6,6.7,17.7V358.2z M210.2,370.5c2.3,3.1,5.6,4.7,9.6,4.7c4,0,7-1,9.1-3.1   c2.1-2.1,3.1-5.1,3.1-9h9.4l0.1,0.2c0.1,5.9-1.8,10.6-5.7,14.2c-3.9,3.6-9.2,5.4-15.9,5.4c-6.8,0-12.3-2.3-16.5-6.9   c-4.2-4.6-6.3-10.4-6.3-17.6v-11.1c0-7.1,2.1-13,6.2-17.6c4.2-4.6,9.6-6.9,16.3-6.9c6.9,0,12.3,1.7,16.2,5.2   c3.9,3.5,5.9,8.3,5.7,14.4l-0.1,0.2H232c0-3.9-1.1-6.9-3.2-9c-2.1-2.1-5.2-3.1-9.3-3.1c-4,0-7.1,1.6-9.4,4.7   c-2.3,3.1-3.5,7.1-3.5,11.9v11.2C206.7,363.3,207.9,367.3,210.2,370.5z M286,382.1l-12.7-21.9l-12.7,21.9h-11.5l18.3-29.4   l-17.9-28.9H261l12.2,21.5l12.3-21.5h11.5l-17.9,28.9l18.6,29.4H286z" id="XMLID_952_"/><path class="st0" d="M102,331.6h-9.5v42.7h9.5c4.7,0,8.4-1.6,11.1-4.7c2.7-3.2,4.1-7.2,4.1-12.2v-8.9   c0-4.9-1.4-9-4.1-12.1C110.4,333.2,106.7,331.6,102,331.6z" id="XMLID_951_"/><path class="st0" d="M352.9,6L352.9,6L107.4,6c-7.3,0-13.3,6-13.3,13.3v256.8h26.6V32.6h232.2v92.2h92.2v354.6   H120.7v-49.8H94.1v63.1c0,7.3,6,13.3,13.3,13.3h351c7.3,0,13.3-6,13.3-13.3V124.8L352.9,6z" id="XMLID_950_"/><rect class="st0" height="19.6" id="XMLID_949_" width="253.4" x="156.2" y="171.4"/><rect class="st0" height="19.6" id="XMLID_948_" width="213.3" x="156.2" y="209.5"/></g></svg>