<?xml version="1.0" ?><svg id="Layer_1" style="enable-background:new 0 0 512 512;" version="1.1" viewBox="0 0 512 512" xml:space="preserve" xmlns="http://www.w3.org/2000/svg" xmlns:xlink="http://www.w3.org/1999/xlink"><style type="text/css">
	.st0{fill:#11B24C;}
</style><g id="XMLID_936_"><polygon class="st0" id="XMLID_946_" points="208.4,337.4 200.8,360.3 216.1,360.3 208.7,337.4  "/><path class="st0" d="M365.6,285.9H40.3v133.9h276.3L365.6,285.9z M129.4,331.6h-27.6v17.8h23.5v7.8h-23.5v24.9H92   v-58.3h37.3V331.6z M177,382.1h-37v-58.3h9.7v50.5H177V382.1z M223.2,382.1l-4.4-13.6h-20.7l-4.5,13.6h-10.1l20.3-58.3h9.3   l20.1,58.3H223.2z M254,370.5c2.3,3.1,5.6,4.7,9.6,4.7c4,0,7-1,9.1-3.1c2.1-2.1,3.1-5.1,3.1-9h9.4l0.1,0.2   c0.1,5.9-1.8,10.6-5.7,14.2c-3.9,3.6-9.2,5.4-15.9,5.4c-6.8,0-12.3-2.3-16.5-6.9c-4.2-4.6-6.3-10.4-6.3-17.6v-11.1   c0-7.1,2.1-13,6.2-17.6s9.6-6.9,16.3-6.9c6.9,0,12.3,1.7,16.2,5.2c3.9,3.5,5.9,8.3,5.7,14.4l-0.1,0.2h-9.4c0-3.9-1.1-6.9-3.2-9   c-2.1-2.1-5.2-3.1-9.3-3.1c-4,0-7.1,1.6-9.4,4.7c-2.3,3.1-3.5,7.1-3.5,11.9v11.2C250.5,363.3,251.6,367.3,254,370.5z" id="XMLID_940_"/><path class="st0" d="M352.9,6L352.9,6L107.4,6c-7.3,0-13.3,6-13.3,13.3v256.8h26.6V32.6h232.2v92.2h92.2v354.6   H120.7v-49.8H94.1v63.1c0,7.3,6,13.3,13.3,13.3h351c7.3,0,13.3-6,13.3-13.3V124.8L352.9,6z" id="XMLID_939_"/><rect class="st0" height="19.6" id="XMLID_938_" width="253.4" x="156.2" y="171.4"/><rect class="st0" height="19.6" id="XMLID_937_" width="213.3" x="156.2" y="209.5"/></g></svg>