<?xml version="1.0" ?><svg id="Layer_1" style="enable-background:new 0 0 512 512;" version="1.1" viewBox="0 0 512 512" xml:space="preserve" xmlns="http://www.w3.org/2000/svg" xmlns:xlink="http://www.w3.org/1999/xlink"><style type="text/css">
	.st0{fill:#F47822;}
</style><g id="XMLID_797_"><path class="st0" d="M365.6,285.9H40.3v133.9h276.3L365.6,285.9z M155.6,389.7H144v-29.9h-31.3v29.9H101v-70h11.7   v30.8H144v-30.8h11.7V389.7z M217.8,389.7h-44.5v-70H185v60.7h32.8V389.7z M275.6,357.2c-4.4,4-10.4,5.9-18.1,5.9h-15.1v26.5h-11.7   v-70h26.8c7.7,0,13.8,2,18.1,6c4.4,4,6.6,9.2,6.6,15.7C282.2,348,280,353.2,275.6,357.2z" id="XMLID_802_"/><path class="st0" d="M257.5,329h-15.1v24.7h15.1c4.3,0,7.6-1.2,9.8-3.5c2.2-2.3,3.3-5.2,3.3-8.8s-1.1-6.5-3.3-8.9   C265,330.2,261.8,329,257.5,329z" id="XMLID_801_"/><path class="st0" d="M352.9,6L352.9,6L107.4,6c-7.3,0-13.3,6-13.3,13.3v256.8h26.6V32.6h232.2v92.2h92.2v354.6   H120.7v-49.8H94.1v63.1c0,7.3,6,13.3,13.3,13.3h351c7.3,0,13.3-6,13.3-13.3V124.8L352.9,6z" id="XMLID_800_"/><rect class="st0" height="19.6" id="XMLID_799_" width="253.4" x="156.2" y="171.4"/><rect class="st0" height="19.6" id="XMLID_798_" width="213.3" x="156.2" y="209.5"/></g></svg>