<?xml version="1.0" ?><svg id="Layer_1" style="enable-background:new 0 0 512 512;" version="1.1" viewBox="0 0 512 512" xml:space="preserve" xmlns="http://www.w3.org/2000/svg" xmlns:xlink="http://www.w3.org/1999/xlink"><style type="text/css">
	.st0{fill:#F47822;}
</style><g id="XMLID_667_"><path class="st0" d="M365.6,285.9H40.3v133.9h276.3L365.6,285.9z M145,389.1h-11.7v-29.9H102v29.9H90.3v-70H102   v30.8h31.3v-30.8H145V389.1z M210.1,328.5h-21.6v60.6h-11.7v-60.6h-21.3v-9.4h54.6V328.5z M292.8,389.1h-11.7v-50.3l-0.3,0   l-19.3,50.3h-8L234,337.8l-0.3,0.1v51.2H222v-70h15.3l20.1,53.8h0.3l20.2-53.8h14.9V389.1z" id="XMLID_671_"/><path class="st0" d="M352.9,6L352.9,6L107.4,6c-7.3,0-13.3,6-13.3,13.3v256.8h26.6V32.6h232.2v92.2h92.2v354.6   H120.7v-49.8H94.1v63.1c0,7.3,6,13.3,13.3,13.3h351c7.3,0,13.3-6,13.3-13.3V124.8L352.9,6z" id="XMLID_670_"/><rect class="st0" height="19.6" id="XMLID_669_" width="253.4" x="156.2" y="171.4"/><rect class="st0" height="19.6" id="XMLID_668_" width="213.3" x="156.2" y="209.5"/></g></svg>