<?xml version="1.0" ?><svg id="Layer_1" style="enable-background:new 0 0 512 512;" version="1.1" viewBox="0 0 512 512" xml:space="preserve" xmlns="http://www.w3.org/2000/svg" xmlns:xlink="http://www.w3.org/1999/xlink"><style type="text/css">
	.st0{fill:#11B24C;}
</style><g id="XMLID_981_"><path class="st0" d="M365.6,285.9H40.3v133.9h276.3L365.6,285.9z M125.4,364.2c0,5.7-1.7,10.2-5.2,13.6   c-3.5,3.4-7.9,5-13.4,5c-5.8,0-10.4-1.5-13.9-4.5c-3.4-3-5.1-7.3-4.9-13l0.1-0.2h9.5c0,3.4,0.8,5.8,2.4,7.5   c1.6,1.6,3.9,2.4,6.7,2.4c2.6,0,4.7-1,6.3-2.9c1.6-1.9,2.5-4.5,2.5-7.8v-41.4h9.8V364.2z M174.6,382l-4.5-13.8h-21l-4.5,13.8h-10.2   l20.6-59.1h9.4l20.4,59.1H174.6z M216.4,382H207l-21.1-59.1h10.5l14.1,43.1l1.1,4.3h0.2l1-4.2l14.1-43.2h10.5L216.4,382z    M279.1,382l-4.5-13.8h-21l-4.5,13.8h-10.2l20.6-59.1h9.4l20.4,59.1H279.1z" id="XMLID_987_"/><polygon class="st0" id="XMLID_986_" points="264.1,336.6 256.3,359.9 271.9,359.9 264.3,336.6  "/><polygon class="st0" id="XMLID_985_" points="159.6,336.6 151.9,359.9 167.5,359.9 159.9,336.6  "/><path class="st0" d="M352.9,6L352.9,6H107.4c-7.3,0-13.3,6-13.3,13.3v256.8h26.6V32.6h232.2v92.2h92.2v354.6H120.7   v-49.8H94.1v63.1c0,7.3,6,13.3,13.3,13.3h351c7.3,0,13.3-6,13.3-13.3V124.8L352.9,6z" id="XMLID_984_"/><rect class="st0" height="19.6" id="XMLID_983_" width="253.4" x="156.2" y="171.4"/><rect class="st0" height="19.6" id="XMLID_982_" width="213.3" x="156.2" y="209.5"/></g></svg>