<?xml version="1.0" ?><svg id="Layer_1" style="enable-background:new 0 0 512 512;" version="1.1" viewBox="0 0 512 512" xml:space="preserve" xmlns="http://www.w3.org/2000/svg" xmlns:xlink="http://www.w3.org/1999/xlink"><style type="text/css">
	.st0{fill:#EF3343;}
</style><g id="XMLID_610_"><path class="st0" d="M365.6,285.9H40.3v133.9h276.3L365.6,285.9z M158,388.3h-11.4v-48.9l-0.3,0l-18.7,48.9h-7.8   l-19.1-49.9l-0.3,0.1v49.8H89.1v-68H104l19.5,52.3h0.3l19.7-52.3H158V388.3z M228.6,360.4c0,8.3-2.6,15.2-7.8,20.7   c-5.2,5.5-12,8.2-20.4,8.2c-8.1,0-14.8-2.7-19.9-8.2c-5.1-5.5-7.7-12.4-7.7-20.7v-12.2c0-8.3,2.5-15.2,7.6-20.7   c5.1-5.5,11.7-8.2,19.9-8.2c8.3,0,15.1,2.7,20.3,8.2c5.2,5.5,7.9,12.4,7.9,20.7V360.4z M271.1,388.3h-10.8l-24.3-68h12.1l16.2,49.6   l1.2,5h0.3l1.2-4.9l16.3-49.7h12.1L271.1,388.3z" id="XMLID_615_"/><path class="st0" d="M200.5,328.7c-5,0-9,1.8-11.8,5.5c-2.9,3.6-4.3,8.3-4.3,14v12.3c0,5.7,1.4,10.4,4.3,14.1   c2.9,3.7,6.8,5.5,11.8,5.5c5.2,0,9.3-1.8,12.3-5.5c3-3.6,4.5-8.3,4.5-14.1v-12.3c0-5.7-1.5-10.3-4.5-14   C209.7,330.5,205.6,328.7,200.5,328.7z" id="XMLID_614_"/><path class="st0" d="M352.9,6L352.9,6H107.4c-7.3,0-13.3,6-13.3,13.3v256.8h26.6V32.6h232.2v92.2h92.2v354.6H120.7   v-49.8H94.1v63.1c0,7.3,6,13.3,13.3,13.3h351c7.3,0,13.3-6,13.3-13.3V124.8L352.9,6z" id="XMLID_613_"/><rect class="st0" height="19.6" id="XMLID_612_" width="253.4" x="156.2" y="171.4"/><rect class="st0" height="19.6" id="XMLID_611_" width="213.3" x="156.2" y="209.5"/></g></svg>