<?xml version="1.0" ?><svg id="Layer_1" style="enable-background:new 0 0 512 512;" version="1.1" viewBox="0 0 512 512" xml:space="preserve" xmlns="http://www.w3.org/2000/svg" xmlns:xlink="http://www.w3.org/1999/xlink"><style type="text/css">
	.st0{fill:#EF3343;}
</style><g id="XMLID_786_"><polygon class="st0" id="XMLID_796_" points="270.4,338.8 253.6,364.7 271.8,364.7 271.8,336.2 271.5,336.1  "/><path class="st0" d="M365.6,285.9H40.3v133.9h276.3L365.6,285.9z M163.1,389.7h-11.7v-50.3l-0.3,0l-19.3,50.3h-8   l-19.6-51.3l-0.3,0.1v51.2H92.2v-70h15.3l20.1,53.8h0.3l20.2-53.8h14.9V389.7z M225.8,357.2c-4.4,4-10.4,5.9-18.1,5.9h-15.1v26.5   h-11.7v-70h26.8c7.7,0,13.8,2,18.1,6c4.4,4,6.6,9.2,6.6,15.7C232.4,348,230.2,353.2,225.8,357.2z M292.3,374.1h-8.8v15.5h-11.6   v-15.5h-29.3l-0.3-7.2l29.2-47.3h12v45h8.8V374.1z" id="XMLID_791_"/><path class="st0" d="M207.6,329h-15.1v24.7h15.1c4.3,0,7.6-1.2,9.8-3.5c2.2-2.3,3.3-5.2,3.3-8.8s-1.1-6.5-3.3-8.9   C215.2,330.2,212,329,207.6,329z" id="XMLID_790_"/><path class="st0" d="M352.9,6L352.9,6L107.4,6c-7.3,0-13.3,6-13.3,13.3v256.8h26.6V32.6h232.2v92.2h92.2v354.6   H120.7v-49.8H94.1v63.1c0,7.3,6,13.3,13.3,13.3h351c7.3,0,13.3-6,13.3-13.3V124.8L352.9,6z" id="XMLID_789_"/><rect class="st0" height="19.6" id="XMLID_788_" width="253.4" x="156.2" y="171.4"/><rect class="st0" height="19.6" id="XMLID_787_" width="213.3" x="156.2" y="209.5"/></g></svg>