<?xml version="1.0" ?><svg id="Layer_1" style="enable-background:new 0 0 512 512;" version="1.1" viewBox="0 0 512 512" xml:space="preserve" xmlns="http://www.w3.org/2000/svg" xmlns:xlink="http://www.w3.org/1999/xlink"><style type="text/css">
	.st0{fill:#11B24C;}
</style><g id="XMLID_26_"><path class="st0" d="M187.7,329h-11.4v51.3h11.4c5.6,0,10.1-1.9,13.4-5.7c3.3-3.8,5-8.7,5-14.6v-10.7   c0-5.9-1.7-10.7-5-14.5C197.8,330.9,193.3,329,187.7,329z" id="XMLID_156_"/><path class="st0" d="M365.6,285.9H40.3v133.9h276.3L365.6,285.9z M143.9,357.2c-4.4,4-10.4,5.9-18.1,5.9h-15.1v26.5   H99v-70h26.8c7.7,0,13.8,2,18.1,6c4.4,4,6.6,9.2,6.6,15.7C150.5,348,148.3,353.2,143.9,357.2z M217.7,360c0,8.8-2.8,15.9-8.3,21.4   c-5.6,5.5-12.8,8.3-21.7,8.3h-23.1v-70h23.1c8.9,0,16.1,2.8,21.7,8.3c5.6,5.5,8.3,12.7,8.3,21.4V360z M278.3,329h-33.1v21.4h28.2   v9.4h-28.2v29.9h-11.7v-70h44.8V329z" id="XMLID_56_"/><path class="st0" d="M125.8,329h-15.1v24.7h15.1c4.3,0,7.6-1.2,9.8-3.5c2.2-2.3,3.3-5.2,3.3-8.8s-1.1-6.5-3.3-8.9   C133.4,330.2,130.1,329,125.8,329z" id="XMLID_55_"/><path class="st0" d="M352.9,6L352.9,6L107.4,6c-7.3,0-13.3,6-13.3,13.3v256.8h26.6V32.6h232.2v92.2h92.2v354.6   H120.7v-49.8H94.1v63.1c0,7.3,6,13.3,13.3,13.3h351c7.3,0,13.3-6,13.3-13.3V124.8L352.9,6z" id="XMLID_29_"/><rect class="st0" height="19.6" id="XMLID_28_" width="253.4" x="156.2" y="171.4"/><rect class="st0" height="19.6" id="XMLID_27_" width="213.3" x="156.2" y="209.5"/></g></svg>