<?xml version="1.0" ?><svg id="Layer_1" style="enable-background:new 0 0 512 512;" version="1.1" viewBox="0 0 512 512" xml:space="preserve" xmlns="http://www.w3.org/2000/svg" xmlns:xlink="http://www.w3.org/1999/xlink"><style type="text/css">
	.st0{fill:#EF3343;}
</style><g id="XMLID_899_"><path class="st0" d="M365.6,285.9H40.3v133.9h276.3L365.6,285.9z M180.5,355.3c-4.3,3.8-10.1,5.8-17.6,5.8h-14.7   v25.8h-11.4v-68h26.1c7.5,0,13.4,1.9,17.6,5.8c4.3,3.9,6.4,9,6.4,15.3C186.9,346.3,184.7,351.5,180.5,355.3z M241.1,382.8   c-4.4,3.4-10.2,5-17.4,5c-6.9,0-12.9-1.8-18.1-5.5c-5.1-3.7-7.6-8.9-7.5-15.6l0.1-0.3h10.9c0,4.1,1.4,7.2,4.2,9.2   c2.8,2.1,6.3,3.1,10.3,3.1c4,0,7.1-0.8,9.4-2.5c2.2-1.7,3.3-4,3.3-6.9c0-2.8-1-5.2-3-7c-2-1.8-5.6-3.4-10.7-4.9   c-7.3-2-13-4.7-16.9-8c-4-3.3-6-7.6-6-12.9c0-5.5,2.2-10,6.5-13.6c4.4-3.6,10-5.3,16.8-5.3c7.4,0,13.2,2,17.6,5.9   c4.4,3.9,6.5,8.8,6.4,14.6l-0.1,0.3h-10.9c0-3.6-1.2-6.4-3.6-8.6c-2.4-2.1-5.6-3.2-9.5-3.2c-3.8,0-6.8,0.9-8.9,2.7   c-2.1,1.8-3.1,4.1-3.1,7c0,2.6,1.1,4.8,3.4,6.5c2.3,1.7,6,3.3,11.3,4.8c7.1,2,12.6,4.7,16.3,8.2c3.7,3.4,5.6,7.8,5.6,13.2   C247.8,374.9,245.5,379.4,241.1,382.8z" id="XMLID_904_"/><path class="st0" d="M162.8,327.9h-14.7v24h14.7c4.2,0,7.4-1.1,9.5-3.4c2.1-2.2,3.2-5.1,3.2-8.6s-1.1-6.3-3.2-8.6   C170.2,329.1,167,327.9,162.8,327.9z" id="XMLID_903_"/><path class="st0" d="M352.9,6L352.9,6H107.4c-7.3,0-13.3,6-13.3,13.3v256.8h26.6V32.6h232.2v92.2h92.2v354.6H120.7   v-49.8H94.1v63.1c0,7.3,6,13.3,13.3,13.3h351c7.3,0,13.3-6,13.3-13.3V124.8L352.9,6z" id="XMLID_902_"/><rect class="st0" height="19.6" id="XMLID_901_" width="253.4" x="156.2" y="171.4"/><rect class="st0" height="19.6" id="XMLID_900_" width="213.3" x="156.2" y="209.5"/></g></svg>