<?xml version="1.0" ?><svg id="Layer_1" style="enable-background:new 0 0 512 512;" version="1.1" viewBox="0 0 512 512" xml:space="preserve" xmlns="http://www.w3.org/2000/svg" xmlns:xlink="http://www.w3.org/1999/xlink"><style type="text/css">
	.st0{fill:#F47822;}
</style><g id="XMLID_589_"><path class="st0" d="M131.3,326.9h-12.4v22.2h11.8c4.7,0,8.1-0.9,10.2-2.7c2.1-1.8,3.2-4.5,3.2-8.2   c0-3.5-1.1-6.3-3.2-8.3C138.8,327.9,135.6,326.9,131.3,326.9z" id="XMLID_598_"/><path class="st0" d="M365.6,285.9H40.3v133.9h276.3L365.6,285.9z M159.2,387.6h-12c-1.3-1.1-2.1-2.7-2.5-5   c-0.4-2.2-0.5-4.5-0.5-6.7v-5.6c0-3.6-1-6.4-3.1-8.6s-4.9-3.2-8.4-3.2h-13.8v29h-11.7v-70h24.1c7.8,0,13.8,1.8,18.1,5.3   c4.3,3.5,6.4,8.6,6.4,15.1c0,3.6-0.9,6.7-2.8,9.4c-1.9,2.6-4.6,4.7-8.2,6.3c3.9,1.3,6.8,3.3,8.5,6.1c1.7,2.8,2.6,6.3,2.6,10.5v5.8   c0,2.1,0.3,4.1,0.8,6c0.5,2,1.4,3.4,2.5,4.5V387.6z M219.3,326.9h-21.6v60.6H186v-60.6h-21.3v-9.4h54.6V326.9z M276,326.9h-33.1   v21.4H271v9.4h-28.2v29.9h-11.7v-70H276V326.9z" id="XMLID_593_"/><path class="st0" d="M352.9,6L352.9,6L107.4,6c-7.3,0-13.3,6-13.3,13.3v256.8h26.6V32.6h232.2v92.2h92.2v354.6   H120.7v-49.8H94.1v63.1c0,7.3,6,13.3,13.3,13.3h351c7.3,0,13.3-6,13.3-13.3V124.8L352.9,6z" id="XMLID_592_"/><rect class="st0" height="19.6" id="XMLID_591_" width="253.4" x="156.2" y="171.4"/><rect class="st0" height="19.6" id="XMLID_590_" width="213.3" x="156.2" y="209.5"/></g></svg>