<?xml version="1.0" ?><svg id="Layer_1" style="enable-background:new 0 0 512 512;" version="1.1" viewBox="0 0 512 512" xml:space="preserve" xmlns="http://www.w3.org/2000/svg" xmlns:xlink="http://www.w3.org/1999/xlink"><style type="text/css">
	.st0{fill:#EF3343;}
</style><g id="XMLID_570_"><path class="st0" d="M365.6,285.9H40.3v133.9h276.3L365.6,285.9z M138.4,382.5c-4.4,3.4-10.2,5-17.4,5   c-6.9,0-12.9-1.8-18.1-5.5c-5.1-3.7-7.6-8.9-7.5-15.6l0.1-0.3h10.9c0,4.1,1.4,7.2,4.2,9.2c2.8,2.1,6.3,3.1,10.3,3.1   c4,0,7.1-0.8,9.4-2.5c2.2-1.7,3.3-4,3.3-6.9c0-2.8-1-5.2-3-7c-2-1.8-5.6-3.4-10.7-4.9c-7.3-2-13-4.7-16.9-8c-4-3.3-6-7.6-6-12.9   c0-5.5,2.2-10,6.5-13.6c4.4-3.6,10-5.3,16.8-5.3c7.4,0,13.2,2,17.6,5.9c4.4,3.9,6.5,8.8,6.4,14.6l-0.1,0.3h-10.9   c0-3.6-1.2-6.4-3.6-8.6c-2.4-2.1-5.6-3.2-9.5-3.2c-3.8,0-6.8,0.9-8.9,2.7c-2.1,1.8-3.1,4.1-3.1,7c0,2.6,1.1,4.8,3.4,6.5   c2.3,1.7,6,3.3,11.3,4.8c7.1,2,12.6,4.7,16.3,8.2c3.7,3.4,5.6,7.8,5.6,13.2C145,374.6,142.8,379.1,138.4,382.5z M218.1,386.6h-10.3   l-13.6-48.4h-0.3l-13.6,48.4h-10.4l-16.1-68h11.9l10.1,49h0.3l12.9-49h10l13,49.1h0.3l10-49.1h12L218.1,386.6z M289.2,327.6H257   v20.8h27.4v9.1H257v29h-11.4v-68h43.6V327.6z" id="XMLID_574_"/><path class="st0" d="M352.9,6L352.9,6L107.4,6c-7.3,0-13.3,6-13.3,13.3v256.8h26.6V32.6h232.2v92.2h92.2v354.6   H120.7v-49.8H94.1v63.1c0,7.3,6,13.3,13.3,13.3h351c7.3,0,13.3-6,13.3-13.3V124.8L352.9,6z" id="XMLID_573_"/><rect class="st0" height="19.6" id="XMLID_572_" width="253.4" x="156.2" y="171.4"/><rect class="st0" height="19.6" id="XMLID_571_" width="213.3" x="156.2" y="209.5"/></g></svg>