<?xml version="1.0" ?><svg id="Layer_1" style="enable-background:new 0 0 512 512;" version="1.1" viewBox="0 0 512 512" xml:space="preserve" xmlns="http://www.w3.org/2000/svg" xmlns:xlink="http://www.w3.org/1999/xlink"><style type="text/css">
	.st0{fill:#EF3343;}
</style><g id="XMLID_765_"><path class="st0" d="M365.6,285.9H40.3v133.9h276.3L365.6,285.9z M153.4,331h-18.5v52h-10v-52h-18.3v-8h46.8V331z    M174.3,382.9h-10v-60h10V382.9z M228.7,331h-28.4v18.3h24.2v8h-24.2v25.6h-10v-60h38.4V331z M278,331h-28.4v18.3h24.2v8h-24.2   v25.6h-10v-60H278V331z" id="XMLID_769_"/><path class="st0" d="M352.9,6L352.9,6L107.4,6c-7.3,0-13.3,6-13.3,13.3v256.8h26.6V32.6h232.2v92.2h92.2v354.6   H120.7v-49.8H94.1v63.1c0,7.3,6,13.3,13.3,13.3h351c7.3,0,13.3-6,13.3-13.3V124.8L352.9,6z" id="XMLID_768_"/><rect class="st0" height="19.6" id="XMLID_767_" width="253.4" x="156.2" y="171.4"/><rect class="st0" height="19.6" id="XMLID_766_" width="213.3" x="156.2" y="209.5"/></g></svg>