<?xml version="1.0" ?><svg id="Layer_1" style="enable-background:new 0 0 512 512;" version="1.1" viewBox="0 0 512 512" xml:space="preserve" xmlns="http://www.w3.org/2000/svg" xmlns:xlink="http://www.w3.org/1999/xlink"><style type="text/css">
	.st0{fill:#EF3343;}
</style><g id="XMLID_890_"><path class="st0" d="M365.6,285.9H40.3v133.9h276.3L365.6,285.9z M156.5,327.4h-21.6V388h-11.7v-60.6h-21.3V318   h54.6V327.4z M207.6,388l-15.2-26.3L177.2,388h-13.8l22-35.3L163.8,318h13.8l14.6,25.9L207,318h13.8l-21.5,34.7l22.4,35.3H207.6z    M282.7,327.4H261V388h-11.7v-60.6H228V318h54.6V327.4z" id="XMLID_894_"/><path class="st0" d="M352.9,6L352.9,6H107.4c-7.3,0-13.3,6-13.3,13.3v256.8h26.6V32.6h232.2v92.2h92.2v354.6H120.7   v-49.8H94.1v63.1c0,7.3,6,13.3,13.3,13.3h351c7.3,0,13.3-6,13.3-13.3V124.8L352.9,6z" id="XMLID_893_"/><rect class="st0" height="19.6" id="XMLID_892_" width="253.4" x="156.2" y="171.4"/><rect class="st0" height="19.6" id="XMLID_891_" width="213.3" x="156.2" y="209.5"/></g></svg>