<?xml version="1.0" ?><!DOCTYPE svg  PUBLIC '-//W3C//DTD SVG 1.1//EN'  'http://www.w3.org/Graphics/SVG/1.1/DTD/svg11.dtd'><svg height="140px" id="Layer_1" style="enable-background:new 0 0 140 140;" version="1.1" viewBox="0 0 140 140" width="140px" xml:space="preserve" xmlns="http://www.w3.org/2000/svg" xmlns:xlink="http://www.w3.org/1999/xlink"><style type="text/css">
<![CDATA[
	.st0{fill:#47BBF4;}
	.st1{fill:#7BEA06;}
	.st2{fill:#49E500;}
	.st3{fill:#7ED1B5;}
	.st4{fill:#1083DD;}
	.st5{fill:#7FBA0D;}
	.st6{fill:#E01726;}
	.st7{fill:#129AFF;}
	.st8{fill:#E2102E;}
	.st9{fill:#E2137A;}
	.st10{fill:#E2573B;}
	.st11{fill:#E2A60E;}
	.st12{fill:#E3443A;}
	.st13{fill:#1558BA;}
	.st14{fill:#159B81;}
	.st15{fill:#1644B7;}
	.st16{fill:#168BF4;}
	.st17{fill:#E51F32;}
	.st18{fill:#E6EFE8;}
	.st19{fill:#187FB8;}
	.st20{fill:#4C5054;}
	.st21{fill:#4C822A;}
	.st22{fill:#E8F9F8;}
	.st23{fill:#4F5459;}
	.st24{fill:#4FCCED;}
	.st25{fill:#B0C6C4;}
	.st26{fill:none;stroke:#33363A;stroke-width:3;stroke-linecap:round;stroke-linejoin:round;stroke-miterlimit:10;}
	.st27{fill:#859392;}
	.st28{fill:#1A68E5;}
	.st29{fill:#1A70F9;}
	.st30{fill:#1B8EED;}
	.st31{fill:#EA4606;}
	.st32{fill:#EA7B0C;}
	.st33{fill:#EAF4F9;}
	.st34{fill:#B70E10;}
	.st35{fill:#1CB1E6;}
	.st36{fill:#1CDDF7;}
	.st37{fill:#EDC211;}
	.st38{fill:#EF8114;}
	.st39{fill:#55932C;}
	.st40{fill:#569FEF;}
	.st41{fill:#BA30CE;}
	.st42{fill:#BA3A3A;}
	.st43{fill:#8CF41E;}
	.st44{fill:#59C96E;}
	.st45{fill:#8E0919;}
	.st46{fill:#20B5EC;}
	.st47{fill:#21CE52;}
	.st48{fill:#21D844;}
	.st49{fill:#F17250;}
	.st50{fill:#2364CE;}
	.st51{fill:#F2303F;}
	.st52{fill:#F24444;}
	.st53{fill:#F26B95;}
	.st54{fill:#F2A775;}
	.st55{fill:#2463FF;}
	.st56{fill:#24A9E6;}
	.st57{fill:#24AEF0;}
	.st58{fill:#F34B78;}
	.st59{fill:#25D600;}
	.st60{fill:#25D800;}
	.st61{fill:#F46300;}
	.st62{fill:#F4921E;}
	.st63{fill:#F4F1E6;}
	.st64{fill:#F72B2B;}
	.st65{fill:#F7441C;}
	.st66{fill:#F7851E;}
	.st67{fill:#5CAA4F;}
	.st68{fill:#F7A56D;}
	.st69{fill:#F7B257;}
	.st70{fill:#F7B92B;}
	.st71{fill:#F8571D;}
	.st72{fill:#F91D80;}
	.st73{fill:#F92E64;}
	.st74{fill:#F93838;}
	.st75{fill:#F9A121;}
	.st76{fill:#F9BD28;}
	.st77{fill:#F9D5AA;}
	.st78{fill:#5FB2A2;}
	.st79{fill:#9165B7;}
	.st80{fill:#95C675;}
	.st81{fill:#2A98F2;}
	.st82{fill:#2AC106;}
	.st83{fill:#C6232C;}
	.st84{fill:#C6402A;}
	.st85{fill:#FA7B7A;}
	.st86{fill:#FA9826;}
	.st87{fill:#2CC64D;}
	.st88{fill:#FB6620;}
	.st89{fill:#C7D5E0;}
	.st90{fill:#C8131A;}
	.st91{fill:#2DB487;}
	.st92{fill:#FC732D;}
	.st93{fill:#C8D8E8;}
	.st94{fill:#2ED3FF;}
	.st95{fill:#FF0DA9;}
	.st96{fill:#FF4743;}
	.st97{fill:#FF6155;}
	.st98{fill:#FF7639;}
	.st99{fill:#FF7676;}
	.st100{fill:#FF88AD;}
	.st101{fill:#FF9064;}
	.st102{fill:#FFA506;}
	.st103{fill:#FFBE8D;}
	.st104{fill:#FFEB5A;}
	.st105{fill:#FFF19C;}
	.st106{fill:#FFFDF5;}
	.st107{fill:#FFFFFF;}
	.st108{fill:#63C605;}
	.st109{fill:#64C0FF;}
	.st110{fill:#66A00A;}
	.st111{fill:#CAFFE9;}
	.st112{fill:#680719;}
	.st113{fill:none;stroke:#FCE2AE;stroke-width:3;stroke-linecap:round;stroke-linejoin:round;stroke-miterlimit:10;}
	.st114{fill:#CC2414;}
	.st115{fill:#CC4521;}
	.st116{fill:#9DEACE;}
	.st117{fill:#303030;}
	.st118{fill:#CE1721;}
	.st119{fill:#33363A;}
	.st120{fill:#337BD1;}
	.st121{fill:#6A7C7C;}
	.st122{fill:#37D660;}
	.st123{fill:#384948;}
	.st124{fill:#38B4F9;}
	.st125{fill:#6CA9EA;}
	.st126{fill:#6D8599;}
	.st127{fill:#0097E2;}
	.st128{fill:#00997C;}
	.st129{fill:#00A4DD;}
	.st130{fill:#0399FF;}
	.st131{fill:#D33F26;}
	.st132{fill:#0695ED;}
	.st133{fill:#0779EA;}
	.st134{fill:#079332;}
	.st135{fill:#D6381E;}
	.st136{fill:#3BAA00;}
	.st137{fill:#D6E5EA;}
	.st138{fill:#D6E7EA;}
	.st139{fill:#08A548;}
	.st140{fill:#08BC26;}
	.st141{fill:#D80B0B;}
	.st142{fill:#D8532B;}
	.st143{fill:#3DC8F9;}
	.st144{fill:#3E77BF;}
	.st145{fill:#3E8AF7;}
	.st146{fill:#D9E5ED;}
	.st147{fill:#72818E;}
	.st148{fill:#0A78DD;}
	.st149{fill:#0A8CDD;}
	.st150{fill:#A52D21;}
	.st151{fill:#76CEFF;}
	.st152{fill:#76DB00;}
	.st153{fill:#0C86EA;}
	.st154{fill:#DB0F4E;}
	.st155{fill:#A7B7B6;}
	.st156{fill:#0DBA5B;}
	.st157{fill:#79B259;}
	.st158{fill:#0E73D8;}
	.st159{fill:#0E78D8;}
	.st160{fill:#0E8971;}
	.st161{fill:#A981D3;}
	.st162{fill:#DD4B4B;}
	.st163{fill:#4087ED;}
	.st164{fill:#40A557;}
	.st165{fill:#40E269;}
	.st166{fill:#DFC7FF;}
	.st167{fill:#DFEFEF;}
	.st168{fill:#44FCB6;}
]]>
</style><g><path class="st119" d="M131.797,50.469c-0.014-0.083-0.038-0.159-0.045-0.235c-0.031-0.15-0.052-0.297-0.099-0.443   c-0.017-0.088-0.051-0.173-0.079-0.258c-0.043-0.138-0.083-0.256-0.131-0.388c-0.038-0.086-0.085-0.176-0.128-0.255   c-0.052-0.126-0.109-0.243-0.182-0.357c-0.048-0.082-0.1-0.164-0.149-0.242c-0.067-0.114-0.142-0.228-0.223-0.328   c-0.058-0.077-0.122-0.155-0.183-0.229c-0.083-0.102-0.179-0.198-0.27-0.29c-0.063-0.071-0.134-0.144-0.205-0.202   c-0.1-0.091-0.2-0.182-0.301-0.261c-0.081-0.058-0.159-0.121-0.24-0.178c-0.034-0.021-0.057-0.045-0.09-0.068L72.95,9.053   c-1.783-1.188-4.103-1.188-5.899,0L10.535,46.736c-0.033,0.023-0.061,0.047-0.09,0.068c-0.087,0.057-0.164,0.12-0.244,0.178   c-0.104,0.079-0.2,0.169-0.296,0.261c-0.074,0.058-0.148,0.131-0.212,0.202c-0.093,0.092-0.184,0.188-0.264,0.29   c-0.066,0.074-0.128,0.152-0.186,0.229c-0.082,0.1-0.152,0.214-0.22,0.328c-0.058,0.078-0.105,0.16-0.157,0.242   c-0.062,0.114-0.126,0.231-0.176,0.357c-0.047,0.079-0.083,0.169-0.122,0.255c-0.055,0.131-0.096,0.25-0.139,0.388   c-0.028,0.085-0.061,0.17-0.078,0.258c-0.045,0.146-0.067,0.292-0.099,0.443c-0.012,0.076-0.033,0.152-0.041,0.235   c-0.029,0.224-0.051,0.455-0.051,0.692v37.68c0,0.236,0.021,0.468,0.051,0.698c0.008,0.07,0.029,0.148,0.041,0.228   c0.031,0.152,0.054,0.293,0.099,0.442c0.018,0.088,0.05,0.176,0.078,0.261c0.043,0.128,0.084,0.255,0.139,0.389   c0.039,0.082,0.075,0.168,0.122,0.255c0.05,0.12,0.114,0.234,0.176,0.354c0.052,0.082,0.1,0.164,0.157,0.245   c0.067,0.118,0.138,0.219,0.22,0.323c0.058,0.078,0.119,0.153,0.186,0.229c0.08,0.097,0.171,0.196,0.264,0.29   c0.063,0.069,0.138,0.141,0.212,0.206c0.096,0.09,0.192,0.177,0.296,0.256c0.08,0.058,0.157,0.123,0.244,0.179   c0.029,0.023,0.057,0.045,0.09,0.069l56.516,37.683c0.894,0.595,1.921,0.891,2.953,0.891c1.029,0,2.056-0.296,2.946-0.891   l56.523-37.683c0.033-0.024,0.056-0.046,0.09-0.069c0.081-0.056,0.159-0.121,0.24-0.179c0.101-0.079,0.201-0.166,0.301-0.256   c0.071-0.065,0.142-0.137,0.205-0.206c0.091-0.094,0.187-0.192,0.27-0.29c0.061-0.076,0.125-0.151,0.183-0.229   c0.081-0.104,0.155-0.205,0.223-0.323c0.05-0.082,0.102-0.164,0.149-0.245c0.072-0.12,0.13-0.234,0.182-0.354   c0.043-0.087,0.09-0.173,0.128-0.255c0.048-0.134,0.088-0.261,0.131-0.389c0.028-0.085,0.062-0.173,0.079-0.261   c0.047-0.149,0.067-0.291,0.099-0.442c0.007-0.079,0.031-0.157,0.045-0.228c0.026-0.229,0.041-0.462,0.041-0.698v-37.68   C131.838,50.923,131.823,50.692,131.797,50.469z M75.312,23.41l41.645,27.754L98.357,63.602L75.312,48.193V23.41z M64.687,23.41   v24.783L41.647,63.602L23.045,51.164L64.687,23.41z M18.789,61.104l13.305,8.899l-13.305,8.893V61.104z M64.687,116.59   L23.045,88.833l18.603-12.437l23.039,15.413V116.59z M70.004,82.57L51.209,70.002l18.795-12.573L88.8,70.002L70.004,82.57z    M75.312,116.59V91.809l23.046-15.413l18.599,12.437L75.312,116.59z M121.208,78.895l-13.289-8.893l13.289-8.899V78.895z" id="Codepen"/><path class="st26" d="M131.797,50.469c-0.014-0.083-0.038-0.159-0.045-0.235c-0.031-0.15-0.052-0.297-0.099-0.443   c-0.017-0.088-0.051-0.173-0.079-0.258c-0.043-0.138-0.083-0.256-0.131-0.388c-0.038-0.086-0.085-0.176-0.128-0.255   c-0.052-0.126-0.109-0.243-0.182-0.357c-0.048-0.082-0.1-0.164-0.149-0.242c-0.067-0.114-0.142-0.228-0.223-0.328   c-0.058-0.077-0.122-0.155-0.183-0.229c-0.083-0.102-0.179-0.198-0.27-0.29c-0.063-0.071-0.134-0.144-0.205-0.202   c-0.1-0.091-0.2-0.182-0.301-0.261c-0.081-0.058-0.159-0.121-0.24-0.178c-0.034-0.021-0.057-0.045-0.09-0.068L72.95,9.053   c-1.783-1.188-4.103-1.188-5.899,0L10.535,46.736c-0.033,0.023-0.061,0.047-0.09,0.068c-0.087,0.057-0.164,0.12-0.244,0.178   c-0.104,0.079-0.2,0.169-0.296,0.261c-0.074,0.058-0.148,0.131-0.212,0.202c-0.093,0.092-0.184,0.188-0.264,0.29   c-0.066,0.074-0.128,0.152-0.186,0.229c-0.082,0.1-0.152,0.214-0.22,0.328c-0.058,0.078-0.105,0.16-0.157,0.242   c-0.062,0.114-0.126,0.231-0.176,0.357c-0.047,0.079-0.083,0.169-0.122,0.255c-0.055,0.131-0.096,0.25-0.139,0.388   c-0.028,0.085-0.061,0.17-0.078,0.258c-0.045,0.146-0.067,0.292-0.099,0.443c-0.012,0.076-0.033,0.152-0.041,0.235   c-0.029,0.224-0.051,0.455-0.051,0.692v37.68c0,0.236,0.021,0.468,0.051,0.698c0.008,0.07,0.029,0.148,0.041,0.228   c0.031,0.152,0.054,0.293,0.099,0.442c0.018,0.088,0.05,0.176,0.078,0.261c0.043,0.128,0.084,0.255,0.139,0.389   c0.039,0.082,0.075,0.168,0.122,0.255c0.05,0.12,0.114,0.234,0.176,0.354c0.052,0.082,0.1,0.164,0.157,0.245   c0.067,0.118,0.138,0.219,0.22,0.323c0.058,0.078,0.119,0.153,0.186,0.229c0.08,0.097,0.171,0.196,0.264,0.29   c0.063,0.069,0.138,0.141,0.212,0.206c0.096,0.09,0.192,0.177,0.296,0.256c0.08,0.058,0.157,0.123,0.244,0.179   c0.029,0.023,0.057,0.045,0.09,0.069l56.516,37.683c0.894,0.595,1.921,0.891,2.953,0.891c1.029,0,2.056-0.296,2.946-0.891   l56.523-37.683c0.033-0.024,0.056-0.046,0.09-0.069c0.081-0.056,0.159-0.121,0.24-0.179c0.101-0.079,0.201-0.166,0.301-0.256   c0.071-0.065,0.142-0.137,0.205-0.206c0.091-0.094,0.187-0.192,0.27-0.29c0.061-0.076,0.125-0.151,0.183-0.229   c0.081-0.104,0.155-0.205,0.223-0.323c0.05-0.082,0.102-0.164,0.149-0.245c0.072-0.12,0.13-0.234,0.182-0.354   c0.043-0.087,0.09-0.173,0.128-0.255c0.048-0.134,0.088-0.261,0.131-0.389c0.028-0.085,0.062-0.173,0.079-0.261   c0.047-0.149,0.067-0.291,0.099-0.442c0.007-0.079,0.031-0.157,0.045-0.228c0.026-0.229,0.041-0.462,0.041-0.698v-37.68   C131.838,50.923,131.823,50.692,131.797,50.469z M75.312,23.41l41.645,27.754L98.357,63.602L75.312,48.193V23.41z M64.687,23.41   v24.783L41.647,63.602L23.045,51.164L64.687,23.41z M18.789,61.104l13.305,8.899l-13.305,8.893V61.104z M64.687,116.59   L23.045,88.833l18.603-12.437l23.039,15.413V116.59z M70.004,82.57L51.209,70.002l18.795-12.573L88.8,70.002L70.004,82.57z    M75.312,116.59V91.809l23.046-15.413l18.599,12.437L75.312,116.59z M121.208,78.895l-13.289-8.893l13.289-8.899V78.895z" id="Codepen_1_"/><path class="st20" d="M131.752,50.234c-0.031-0.15-0.052-0.297-0.099-0.443c-0.017-0.088-0.051-0.173-0.079-0.258   c-0.043-0.138-0.083-0.256-0.131-0.388c-0.038-0.086-0.085-0.176-0.128-0.255c-0.052-0.126-0.109-0.243-0.182-0.357   c-0.048-0.082-0.1-0.164-0.149-0.242c-0.067-0.114-0.142-0.228-0.223-0.328c-0.058-0.077-0.122-0.155-0.183-0.229   c-0.083-0.102-0.179-0.198-0.27-0.29c-0.063-0.071-0.134-0.144-0.205-0.202c-0.1-0.091-0.2-0.182-0.301-0.261   c-0.081-0.058-0.159-0.121-0.24-0.178c-0.034-0.021-0.057-0.045-0.09-0.068L72.95,9.053c-1.783-1.188-4.103-1.188-5.899,0   L10.535,46.736c-0.033,0.023-0.061,0.047-0.09,0.068c-0.087,0.057-0.164,0.12-0.244,0.178c-0.104,0.079-0.2,0.169-0.296,0.261   c-0.074,0.058-0.148,0.131-0.212,0.202c-0.093,0.092-0.184,0.188-0.264,0.29c-0.066,0.074-0.128,0.152-0.186,0.229   c-0.082,0.1-0.152,0.214-0.22,0.328c-0.058,0.078-0.105,0.16-0.157,0.242c-0.062,0.114-0.126,0.231-0.176,0.357   c-0.047,0.079-0.083,0.169-0.122,0.255c-0.055,0.131-0.096,0.25-0.139,0.388c-0.028,0.085-0.061,0.17-0.078,0.258   c-0.045,0.146-0.067,0.292-0.099,0.443c-0.012,0.076-0.033,0.152-0.041,0.235c-0.029,0.224-0.051,0.455-0.051,0.692v4.017   l10.627,6.813v-0.887l13.305,8.899l-0.398,0.263l9.762,6.26l0.19-0.129l9.008,6.026l19.346,12.404l19.44-12.467l8.916-5.963   l0.191,0.125l9.759-6.26l-0.389-0.26l13.289-8.899v0.889l10.63-6.815v-4.017c0-0.237-0.015-0.468-0.041-0.692   C131.783,50.386,131.759,50.31,131.752,50.234z M23.045,51.164L64.687,23.41v24.783L41.647,63.602L23.045,51.164z M70.004,82.57   L51.209,70.002l18.795-12.573L88.8,70.002L70.004,82.57z M98.357,63.602L75.312,48.193V23.41l41.645,27.754L98.357,63.602z"/><g><path class="st147" d="M131.797,50.469c-0.014-0.083-0.038-0.159-0.045-0.235c-0.031-0.15-0.052-0.297-0.099-0.443    c-0.017-0.088-0.051-0.173-0.079-0.258c-0.043-0.138-0.083-0.256-0.131-0.388c-0.038-0.086-0.085-0.176-0.128-0.255    c-0.052-0.126-0.109-0.243-0.182-0.357c-0.048-0.082-0.1-0.164-0.149-0.242c-0.067-0.114-0.142-0.228-0.223-0.328    c-0.058-0.077-0.122-0.155-0.183-0.229c-0.083-0.102-0.179-0.198-0.27-0.29c-0.063-0.071-0.134-0.144-0.205-0.202    c-0.1-0.091-0.2-0.182-0.301-0.261c-0.081-0.058-0.159-0.121-0.24-0.178c-0.034-0.021-0.057-0.045-0.09-0.068L72.95,9.053    c-1.783-1.188-4.103-1.188-5.899,0L10.535,46.736c-0.033,0.023-0.061,0.047-0.09,0.068c-0.087,0.057-0.164,0.12-0.244,0.178    c-0.104,0.079-0.2,0.169-0.296,0.261c-0.074,0.058-0.148,0.131-0.212,0.202c-0.093,0.092-0.184,0.188-0.264,0.29    c-0.066,0.074-0.128,0.152-0.186,0.229c-0.082,0.1-0.152,0.214-0.22,0.328c-0.058,0.078-0.105,0.16-0.157,0.242    c-0.062,0.114-0.126,0.231-0.176,0.357c-0.047,0.079-0.083,0.169-0.122,0.255c-0.055,0.131-0.096,0.25-0.139,0.388    c-0.028,0.085-0.061,0.17-0.078,0.258c-0.045,0.146-0.067,0.292-0.099,0.443c-0.012,0.076-0.033,0.152-0.041,0.235    c-0.029,0.224-0.051,0.455-0.051,0.692v4.017l0.084,0.054c0.003-0.016,0.006-0.032,0.008-0.048    c0.031-0.151,0.054-0.298,0.099-0.443c0.018-0.088,0.05-0.173,0.078-0.259c0.043-0.137,0.084-0.256,0.139-0.387    c0.039-0.086,0.075-0.176,0.122-0.255c0.05-0.125,0.114-0.242,0.176-0.356c0.052-0.082,0.1-0.164,0.157-0.242    c0.067-0.114,0.138-0.228,0.22-0.328c0.058-0.076,0.119-0.155,0.186-0.229c0.08-0.102,0.171-0.198,0.264-0.291    c0.063-0.07,0.138-0.144,0.212-0.202c0.096-0.091,0.192-0.181,0.296-0.26c0.08-0.058,0.157-0.122,0.244-0.179    c0.029-0.021,0.057-0.044,0.09-0.067l56.516-37.683c1.797-1.188,4.116-1.188,5.899,0l56.523,37.683    c0.033,0.023,0.056,0.047,0.09,0.067c0.081,0.057,0.159,0.121,0.24,0.179c0.101,0.079,0.201,0.169,0.301,0.26    c0.071,0.058,0.142,0.132,0.205,0.202c0.091,0.093,0.187,0.189,0.27,0.291c0.061,0.074,0.125,0.153,0.183,0.229    c0.081,0.1,0.155,0.214,0.223,0.328c0.05,0.078,0.102,0.16,0.149,0.242c0.072,0.114,0.13,0.231,0.182,0.356    c0.043,0.079,0.09,0.169,0.128,0.255c0.048,0.131,0.088,0.25,0.131,0.387c0.028,0.086,0.062,0.171,0.079,0.259    c0.047,0.146,0.067,0.292,0.099,0.443c0.001,0.014,0.007,0.029,0.009,0.044l0.077-0.05v-4.017    C131.838,50.923,131.823,50.692,131.797,50.469z"/><polygon class="st147" points="98.357,68.551 116.956,56.112 113.25,53.642 98.357,63.602 75.312,48.193 75.312,53.141   "/><polygon class="st147" points="70.004,87.519 88.8,74.951 85.1,72.476 70.004,82.57 54.909,72.476 51.209,74.951   "/><polygon class="st147" points="41.647,68.551 64.687,53.141 64.687,48.193 41.647,63.602 26.752,53.642 23.045,56.112   "/></g><path class="st26" d="M131.752,50.234c-0.031-0.15-0.052-0.297-0.099-0.443c-0.017-0.088-0.051-0.173-0.079-0.258   c-0.043-0.138-0.083-0.256-0.131-0.388c-0.038-0.086-0.085-0.176-0.128-0.255c-0.052-0.126-0.109-0.243-0.182-0.357   c-0.048-0.082-0.1-0.164-0.149-0.242c-0.067-0.114-0.142-0.228-0.223-0.328c-0.058-0.077-0.122-0.155-0.183-0.229   c-0.083-0.102-0.179-0.198-0.27-0.29c-0.063-0.071-0.134-0.144-0.205-0.202c-0.1-0.091-0.2-0.182-0.301-0.261   c-0.081-0.058-0.159-0.121-0.24-0.178c-0.034-0.021-0.057-0.045-0.09-0.068L72.95,9.053c-1.783-1.188-4.103-1.188-5.899,0   L10.535,46.736c-0.033,0.023-0.061,0.047-0.09,0.068c-0.087,0.057-0.164,0.12-0.244,0.178c-0.104,0.079-0.2,0.169-0.296,0.261   c-0.074,0.058-0.148,0.131-0.212,0.202c-0.093,0.092-0.184,0.188-0.264,0.29c-0.066,0.074-0.128,0.152-0.186,0.229   c-0.082,0.1-0.152,0.214-0.22,0.328c-0.058,0.078-0.105,0.16-0.157,0.242c-0.062,0.114-0.126,0.231-0.176,0.357   c-0.047,0.079-0.083,0.169-0.122,0.255c-0.055,0.131-0.096,0.25-0.139,0.388c-0.028,0.085-0.061,0.17-0.078,0.258   c-0.045,0.146-0.067,0.292-0.099,0.443c-0.012,0.076-0.033,0.152-0.041,0.235c-0.029,0.224-0.051,0.455-0.051,0.692v4.017   l10.627,6.813v-0.887l13.305,8.899l-0.398,0.263l9.762,6.26l0.19-0.129l9.008,6.026l19.346,12.404l19.44-12.467l8.916-5.963   l0.191,0.125l9.759-6.26l-0.389-0.26l13.289-8.899v0.889l10.63-6.815v-4.017c0-0.237-0.015-0.468-0.041-0.692   C131.783,50.386,131.759,50.31,131.752,50.234z M23.045,51.164L64.687,23.41v24.783L41.647,63.602L23.045,51.164z M70.004,82.57   L51.209,70.002l18.795-12.573L88.8,70.002L70.004,82.57z M98.357,63.602L75.312,48.193V23.41l41.645,27.754L98.357,63.602z"/></g></svg>