<?xml version="1.0" ?><!DOCTYPE svg  PUBLIC '-//W3C//DTD SVG 1.1//EN'  'http://www.w3.org/Graphics/SVG/1.1/DTD/svg11.dtd'><svg height="140px" id="Layer_1" style="enable-background:new 0 0 140 140;" version="1.1" viewBox="0 0 140 140" width="140px" xml:space="preserve" xmlns="http://www.w3.org/2000/svg" xmlns:xlink="http://www.w3.org/1999/xlink"><style type="text/css">
<![CDATA[
	.st0{fill:#47BBF4;}
	.st1{fill:#7BEA06;}
	.st2{fill:#49E500;}
	.st3{fill:#7ED1B5;}
	.st4{fill:#1083DD;}
	.st5{fill:#7FBA0D;}
	.st6{fill:#E01726;}
	.st7{fill:#129AFF;}
	.st8{fill:#E2102E;}
	.st9{fill:#E2137A;}
	.st10{fill:#E2573B;}
	.st11{fill:#E2A60E;}
	.st12{fill:#E3443A;}
	.st13{fill:#1558BA;}
	.st14{fill:#159B81;}
	.st15{fill:#1644B7;}
	.st16{fill:#168BF4;}
	.st17{fill:#E51F32;}
	.st18{fill:#E6EFE8;}
	.st19{fill:#187FB8;}
	.st20{fill:#4C5054;}
	.st21{fill:#4C822A;}
	.st22{fill:#E8F9F8;}
	.st23{fill:#4F5459;}
	.st24{fill:#4FCCED;}
	.st25{fill:#B0C6C4;}
	.st26{fill:none;stroke:#33363A;stroke-width:3;stroke-linecap:round;stroke-linejoin:round;stroke-miterlimit:10;}
	.st27{fill:#859392;}
	.st28{fill:#1A68E5;}
	.st29{fill:#1A70F9;}
	.st30{fill:#1B8EED;}
	.st31{fill:#EA4606;}
	.st32{fill:#EA7B0C;}
	.st33{fill:#EAF4F9;}
	.st34{fill:#B70E10;}
	.st35{fill:#1CB1E6;}
	.st36{fill:#1CDDF7;}
	.st37{fill:#EDC211;}
	.st38{fill:#EF8114;}
	.st39{fill:#55932C;}
	.st40{fill:#569FEF;}
	.st41{fill:#BA30CE;}
	.st42{fill:#BA3A3A;}
	.st43{fill:#8CF41E;}
	.st44{fill:#59C96E;}
	.st45{fill:#8E0919;}
	.st46{fill:#20B5EC;}
	.st47{fill:#21CE52;}
	.st48{fill:#21D844;}
	.st49{fill:#F17250;}
	.st50{fill:#2364CE;}
	.st51{fill:#F2303F;}
	.st52{fill:#F24444;}
	.st53{fill:#F26B95;}
	.st54{fill:#F2A775;}
	.st55{fill:#2463FF;}
	.st56{fill:#24A9E6;}
	.st57{fill:#24AEF0;}
	.st58{fill:#F34B78;}
	.st59{fill:#25D600;}
	.st60{fill:#25D800;}
	.st61{fill:#F46300;}
	.st62{fill:#F4921E;}
	.st63{fill:#F4F1E6;}
	.st64{fill:#F72B2B;}
	.st65{fill:#F7441C;}
	.st66{fill:#F7851E;}
	.st67{fill:#5CAA4F;}
	.st68{fill:#F7A56D;}
	.st69{fill:#F7B257;}
	.st70{fill:#F7B92B;}
	.st71{fill:#F8571D;}
	.st72{fill:#F91D80;}
	.st73{fill:#F92E64;}
	.st74{fill:#F93838;}
	.st75{fill:#F9A121;}
	.st76{fill:#F9BD28;}
	.st77{fill:#F9D5AA;}
	.st78{fill:#5FB2A2;}
	.st79{fill:#9165B7;}
	.st80{fill:#95C675;}
	.st81{fill:#2A98F2;}
	.st82{fill:#2AC106;}
	.st83{fill:#C6232C;}
	.st84{fill:#C6402A;}
	.st85{fill:#FA7B7A;}
	.st86{fill:#FA9826;}
	.st87{fill:#2CC64D;}
	.st88{fill:#FB6620;}
	.st89{fill:#C7D5E0;}
	.st90{fill:#C8131A;}
	.st91{fill:#2DB487;}
	.st92{fill:#FC732D;}
	.st93{fill:#C8D8E8;}
	.st94{fill:#2ED3FF;}
	.st95{fill:#FF0DA9;}
	.st96{fill:#FF4743;}
	.st97{fill:#FF6155;}
	.st98{fill:#FF7639;}
	.st99{fill:#FF7676;}
	.st100{fill:#FF88AD;}
	.st101{fill:#FF9064;}
	.st102{fill:#FFA506;}
	.st103{fill:#FFBE8D;}
	.st104{fill:#FFEB5A;}
	.st105{fill:#FFF19C;}
	.st106{fill:#FFFDF5;}
	.st107{fill:#FFFFFF;}
	.st108{fill:#63C605;}
	.st109{fill:#64C0FF;}
	.st110{fill:#66A00A;}
	.st111{fill:#CAFFE9;}
	.st112{fill:#680719;}
	.st113{fill:none;stroke:#FCE2AE;stroke-width:3;stroke-linecap:round;stroke-linejoin:round;stroke-miterlimit:10;}
	.st114{fill:#CC2414;}
	.st115{fill:#CC4521;}
	.st116{fill:#9DEACE;}
	.st117{fill:#303030;}
	.st118{fill:#CE1721;}
	.st119{fill:#33363A;}
	.st120{fill:#337BD1;}
	.st121{fill:#6A7C7C;}
	.st122{fill:#37D660;}
	.st123{fill:#384948;}
	.st124{fill:#38B4F9;}
	.st125{fill:#6CA9EA;}
	.st126{fill:#6D8599;}
	.st127{fill:#0097E2;}
	.st128{fill:#00997C;}
	.st129{fill:#00A4DD;}
	.st130{fill:#0399FF;}
	.st131{fill:#D33F26;}
	.st132{fill:#0695ED;}
	.st133{fill:#0779EA;}
	.st134{fill:#079332;}
	.st135{fill:#D6381E;}
	.st136{fill:#3BAA00;}
	.st137{fill:#D6E5EA;}
	.st138{fill:#D6E7EA;}
	.st139{fill:#08A548;}
	.st140{fill:#08BC26;}
	.st141{fill:#D80B0B;}
	.st142{fill:#D8532B;}
	.st143{fill:#3DC8F9;}
	.st144{fill:#3E77BF;}
	.st145{fill:#3E8AF7;}
	.st146{fill:#D9E5ED;}
	.st147{fill:#72818E;}
	.st148{fill:#0A78DD;}
	.st149{fill:#0A8CDD;}
	.st150{fill:#A52D21;}
	.st151{fill:#76CEFF;}
	.st152{fill:#76DB00;}
	.st153{fill:#0C86EA;}
	.st154{fill:#DB0F4E;}
	.st155{fill:#A7B7B6;}
	.st156{fill:#0DBA5B;}
	.st157{fill:#79B259;}
	.st158{fill:#0E73D8;}
	.st159{fill:#0E78D8;}
	.st160{fill:#0E8971;}
	.st161{fill:#A981D3;}
	.st162{fill:#DD4B4B;}
	.st163{fill:#4087ED;}
	.st164{fill:#40A557;}
	.st165{fill:#40E269;}
	.st166{fill:#DFC7FF;}
	.st167{fill:#DFEFEF;}
	.st168{fill:#44FCB6;}
]]>
</style><g><g><g><path class="st73" d="M35.812,17.529c6.049,0,11.125,4.744,11.125,10.959c0,6.225-5.076,10.969-11.125,10.969     c-6.062,0-11.125-4.744-11.125-10.969C24.688,22.273,29.75,17.529,35.812,17.529z"/><path class="st73" d="M110.25,122.408c-11.297,0-16.693-6.703-16.693-15.869c0-2.617,0.326-5.4,1.148-8.184l5.396-19.308     c0.658-2.125,0.814-4.083,0.814-5.885c0-6.222-3.754-9.982-9.809-9.982c-7.699,0-12.768,5.519-15.383,16.155L65.252,121.34     H46.924l3.293-13.202c-5.389,8.851-12.869,14.333-22.096,14.333c-11.133,0-16.365-6.412-16.365-16.064     c0-2.457,0.326-5.457,0.984-8.24l8.344-34.09H8.158l3.924-14.484H43.17L30.896,98.268c-0.812,3.115-1.146,5.695-1.146,7.493     c0,3.109,1.533,4.019,3.932,4.562c1.459,0.326,13.086,0.096,19.42-13.973l8.062-32.273H48.07L52,49.592h27.975l-3.598,16.446     c4.908-9.164,14.73-17.872,24.383-17.872c10.311,0,18.816,7.345,18.816,21.416c0,3.598-0.496,7.515-1.807,11.93l-5.232,18.812     c-0.49,1.969-0.822,3.598-0.822,5.074c0,3.269,1.311,4.904,3.768,4.904c2.449,0,5.566-1.802,9.164-11.78l7.195,2.783     C127.592,116.194,119.902,122.408,110.25,122.408z"/><path class="st154" d="M110.25,122.408c8.346,0,15.219-4.659,19.676-15.542l-5.279-2.042c-3.598,9.979-6.715,11.781-9.164,11.781     c-2.457,0-3.768-1.637-3.768-4.904c0-1.074,0.18-2.233,0.463-3.541c-0.299-0.734-0.463-1.646-0.463-2.762     c0-1.477,0.332-3.105,0.822-5.074l5.232-18.812c0.92-3.095,1.43-5.939,1.658-8.605c-1.123-12.12-9.115-18.438-18.668-18.438     c-9.652,0-19.475,8.708-24.383,17.871l2.148-9.825c-0.789,1.155-1.514,2.335-2.148,3.523l2.219-10.144H52l-2.219,8.182h11.383     l-1.574,6.303h1.574l-8.062,32.273c-6.334,14.067-17.961,14.299-19.42,13.973c-2.398-0.543-3.932-1.453-3.932-4.562     c0-1.09,0.125-2.472,0.404-4.083c-0.254-0.584-0.404-1.295-0.404-2.219c0-1.798,0.334-4.378,1.146-7.493l10.686-42.373h-29.5     l-2.217,8.182h11.219l-1.543,6.303h1.543l-8.344,34.09c-0.379,1.604-0.635,3.271-0.795,4.873     c0.994,7.99,6.219,13.129,16.176,13.129c9.227,0,16.707-5.482,22.096-14.333l-2.473,9.913c0.865-1.133,1.693-2.332,2.473-3.611     l-1.721,6.9h16.756l10.473-42.004c2.615-10.637,7.684-16.155,15.383-16.155c6.055,0,9.809,3.761,9.809,9.982     c0,1.122-0.078,2.314-0.283,3.562c0.18,0.852,0.283,1.762,0.283,2.74c0,1.802-0.156,3.761-0.814,5.885l-5.396,19.308     c-0.473,1.604-0.766,3.202-0.943,4.774C94.812,117.078,100.182,122.408,110.25,122.408z"/></g><g><path class="st26" d="M35.812,17.529c6.049,0,11.125,4.744,11.125,10.959c0,6.225-5.076,10.969-11.125,10.969     c-6.062,0-11.125-4.744-11.125-10.969C24.688,22.273,29.75,17.529,35.812,17.529z"/><path class="st26" d="M110.25,122.408c-11.297,0-16.693-6.703-16.693-15.869c0-2.617,0.326-5.4,1.148-8.184l5.396-19.308     c0.658-2.125,0.814-4.083,0.814-5.885c0-6.222-3.754-9.982-9.809-9.982c-7.699,0-12.768,5.519-15.383,16.155L65.252,121.34     H46.924l3.293-13.202c-5.389,8.851-12.869,14.333-22.096,14.333c-11.133,0-16.365-6.412-16.365-16.064     c0-2.457,0.326-5.457,0.984-8.24l8.344-34.09H8.158l3.924-14.484H43.17L30.896,98.268c-0.812,3.115-1.146,5.695-1.146,7.493     c0,3.109,1.533,4.019,3.932,4.562c1.459,0.326,13.086,0.096,19.42-13.973l8.062-32.273H48.07L52,49.592h27.975l-3.598,16.446     c4.908-9.164,14.73-17.872,24.383-17.872c10.311,0,18.816,7.345,18.816,21.416c0,3.598-0.496,7.515-1.807,11.93l-5.232,18.812     c-0.49,1.969-0.822,3.598-0.822,5.074c0,3.269,1.311,4.904,3.768,4.904c2.449,0,5.566-1.802,9.164-11.78l7.195,2.783     C127.592,116.194,119.902,122.408,110.25,122.408z"/></g><line class="st26" x1="66.229" x2="53.135" y1="64.076" y2="64.076"/><line class="st26" x1="28.078" x2="14.984" y1="64.076" y2="64.076"/></g><g><line class="st26" x1="76.986" x2="82.879" y1="122.471" y2="122.471"/><line class="st26" x1="94.471" x2="110.018" y1="122.471" y2="122.471"/><line class="st26" x1="88.182" x2="89.281" y1="122.471" y2="122.471"/></g></g></svg>