<?xml version="1.0" ?><!DOCTYPE svg  PUBLIC '-//W3C//DTD SVG 1.1//EN'  'http://www.w3.org/Graphics/SVG/1.1/DTD/svg11.dtd'><svg height="140px" id="Layer_1" style="enable-background:new 0 0 140 140;" version="1.1" viewBox="0 0 140 140" width="140px" xml:space="preserve" xmlns="http://www.w3.org/2000/svg" xmlns:xlink="http://www.w3.org/1999/xlink"><style type="text/css">
<![CDATA[
	.st0{fill:#47BBF4;}
	.st1{fill:#7BEA06;}
	.st2{fill:#49E500;}
	.st3{fill:#7ED1B5;}
	.st4{fill:#1083DD;}
	.st5{fill:#7FBA0D;}
	.st6{fill:#E01726;}
	.st7{fill:#129AFF;}
	.st8{fill:#E2102E;}
	.st9{fill:#E2137A;}
	.st10{fill:#E2573B;}
	.st11{fill:#E2A60E;}
	.st12{fill:#E3443A;}
	.st13{fill:#1558BA;}
	.st14{fill:#159B81;}
	.st15{fill:#1644B7;}
	.st16{fill:#168BF4;}
	.st17{fill:#E51F32;}
	.st18{fill:#E6EFE8;}
	.st19{fill:#187FB8;}
	.st20{fill:#4C5054;}
	.st21{fill:#4C822A;}
	.st22{fill:#E8F9F8;}
	.st23{fill:#4F5459;}
	.st24{fill:#4FCCED;}
	.st25{fill:#B0C6C4;}
	.st26{fill:none;stroke:#33363A;stroke-width:3;stroke-linecap:round;stroke-linejoin:round;stroke-miterlimit:10;}
	.st27{fill:#859392;}
	.st28{fill:#1A68E5;}
	.st29{fill:#1A70F9;}
	.st30{fill:#1B8EED;}
	.st31{fill:#EA4606;}
	.st32{fill:#EA7B0C;}
	.st33{fill:#EAF4F9;}
	.st34{fill:#B70E10;}
	.st35{fill:#1CB1E6;}
	.st36{fill:#1CDDF7;}
	.st37{fill:#EDC211;}
	.st38{fill:#EF8114;}
	.st39{fill:#55932C;}
	.st40{fill:#569FEF;}
	.st41{fill:#BA30CE;}
	.st42{fill:#BA3A3A;}
	.st43{fill:#8CF41E;}
	.st44{fill:#59C96E;}
	.st45{fill:#8E0919;}
	.st46{fill:#20B5EC;}
	.st47{fill:#21CE52;}
	.st48{fill:#21D844;}
	.st49{fill:#F17250;}
	.st50{fill:#2364CE;}
	.st51{fill:#F2303F;}
	.st52{fill:#F24444;}
	.st53{fill:#F26B95;}
	.st54{fill:#F2A775;}
	.st55{fill:#2463FF;}
	.st56{fill:#24A9E6;}
	.st57{fill:#24AEF0;}
	.st58{fill:#F34B78;}
	.st59{fill:#25D600;}
	.st60{fill:#25D800;}
	.st61{fill:#F46300;}
	.st62{fill:#F4921E;}
	.st63{fill:#F4F1E6;}
	.st64{fill:#F72B2B;}
	.st65{fill:#F7441C;}
	.st66{fill:#F7851E;}
	.st67{fill:#5CAA4F;}
	.st68{fill:#F7A56D;}
	.st69{fill:#F7B257;}
	.st70{fill:#F7B92B;}
	.st71{fill:#F8571D;}
	.st72{fill:#F91D80;}
	.st73{fill:#F92E64;}
	.st74{fill:#F93838;}
	.st75{fill:#F9A121;}
	.st76{fill:#F9BD28;}
	.st77{fill:#F9D5AA;}
	.st78{fill:#5FB2A2;}
	.st79{fill:#9165B7;}
	.st80{fill:#95C675;}
	.st81{fill:#2A98F2;}
	.st82{fill:#2AC106;}
	.st83{fill:#C6232C;}
	.st84{fill:#C6402A;}
	.st85{fill:#FA7B7A;}
	.st86{fill:#FA9826;}
	.st87{fill:#2CC64D;}
	.st88{fill:#FB6620;}
	.st89{fill:#C7D5E0;}
	.st90{fill:#C8131A;}
	.st91{fill:#2DB487;}
	.st92{fill:#FC732D;}
	.st93{fill:#C8D8E8;}
	.st94{fill:#2ED3FF;}
	.st95{fill:#FF0DA9;}
	.st96{fill:#FF4743;}
	.st97{fill:#FF6155;}
	.st98{fill:#FF7639;}
	.st99{fill:#FF7676;}
	.st100{fill:#FF88AD;}
	.st101{fill:#FF9064;}
	.st102{fill:#FFA506;}
	.st103{fill:#FFBE8D;}
	.st104{fill:#FFEB5A;}
	.st105{fill:#FFF19C;}
	.st106{fill:#FFFDF5;}
	.st107{fill:#FFFFFF;}
	.st108{fill:#63C605;}
	.st109{fill:#64C0FF;}
	.st110{fill:#66A00A;}
	.st111{fill:#CAFFE9;}
	.st112{fill:#680719;}
	.st113{fill:none;stroke:#FCE2AE;stroke-width:3;stroke-linecap:round;stroke-linejoin:round;stroke-miterlimit:10;}
	.st114{fill:#CC2414;}
	.st115{fill:#CC4521;}
	.st116{fill:#9DEACE;}
	.st117{fill:#303030;}
	.st118{fill:#CE1721;}
	.st119{fill:#33363A;}
	.st120{fill:#337BD1;}
	.st121{fill:#6A7C7C;}
	.st122{fill:#37D660;}
	.st123{fill:#384948;}
	.st124{fill:#38B4F9;}
	.st125{fill:#6CA9EA;}
	.st126{fill:#6D8599;}
	.st127{fill:#0097E2;}
	.st128{fill:#00997C;}
	.st129{fill:#00A4DD;}
	.st130{fill:#0399FF;}
	.st131{fill:#D33F26;}
	.st132{fill:#0695ED;}
	.st133{fill:#0779EA;}
	.st134{fill:#079332;}
	.st135{fill:#D6381E;}
	.st136{fill:#3BAA00;}
	.st137{fill:#D6E5EA;}
	.st138{fill:#D6E7EA;}
	.st139{fill:#08A548;}
	.st140{fill:#08BC26;}
	.st141{fill:#D80B0B;}
	.st142{fill:#D8532B;}
	.st143{fill:#3DC8F9;}
	.st144{fill:#3E77BF;}
	.st145{fill:#3E8AF7;}
	.st146{fill:#D9E5ED;}
	.st147{fill:#72818E;}
	.st148{fill:#0A78DD;}
	.st149{fill:#0A8CDD;}
	.st150{fill:#A52D21;}
	.st151{fill:#76CEFF;}
	.st152{fill:#76DB00;}
	.st153{fill:#0C86EA;}
	.st154{fill:#DB0F4E;}
	.st155{fill:#A7B7B6;}
	.st156{fill:#0DBA5B;}
	.st157{fill:#79B259;}
	.st158{fill:#0E73D8;}
	.st159{fill:#0E78D8;}
	.st160{fill:#0E8971;}
	.st161{fill:#A981D3;}
	.st162{fill:#DD4B4B;}
	.st163{fill:#4087ED;}
	.st164{fill:#40A557;}
	.st165{fill:#40E269;}
	.st166{fill:#DFC7FF;}
	.st167{fill:#DFEFEF;}
	.st168{fill:#44FCB6;}
]]>
</style><g><g><g><g><path class="st136" d="M131.752,8.665l-0.06,25.258l-3.154,62.945c-4.663-0.049-12.37-0.074-17.03,0.02l-3.188-62.74      l-0.013-25.482H131.752z M64.409,39.524L64.375,8.671l23.369,0.01l-0.032,30.91l13.486,0.008l-0.01,15.928l-13.465-0.006      l0.067,51.342c0.029,5.156,2.397,7.33,7.546,7.508c0.525,0.014,5.321,0.014,5.861,0l-0.035,15.982      c-7.936,0.85-16.955,1.66-24.865,0.092c-7.176-1.424-10.483-5.41-11.443-13.137c-0.353-2.686-0.518-5.389-0.518-8.098      l0.025-53.684l-11.708,0.006l0.065,74.787H29.518l-0.005-45.426l-0.055-45.377L64.409,39.524z"/></g><polygon class="st134" points="45,130.319 52.72,130.319 52.656,56.556 45,56.556    "/><rect class="st59" height="22.434" width="23.338" x="108.325" y="107.853"/><rect class="st1" height="22.434" width="12.901" x="108.325" y="107.853"/><path class="st59" d="M29.586,8.681c6.607,0.062,16.372,0.074,22.981,0l-0.023,20.002H29.551L29.586,8.681z"/><path class="st1" d="M37.761,8.728c-2.681,0.006-5.481,0.006-8.175-0.002l-0.035,19.957h15.426L45,8.728     C42.62,8.733,40.156,8.733,37.761,8.728z"/></g><g><g><rect class="st134" height="27.636" width="0.002" x="43.275" y="25.703"/><path class="st134" d="M95.337,114.37c-5.148-0.178-7.517-2.352-7.546-7.508l-0.067-51.34l-7.314-0.002l0.067,51.342      c0.029,5.156,2.397,7.33,7.545,7.508c0.525,0.014,5.322,0.014,5.862,0l-0.035,15.982c-3.458,0.371-7.123,0.721-10.812,0.883      c6.057,0.316,12.373-0.268,18.126-0.883l0.035-15.982C100.659,114.384,95.863,114.384,95.337,114.37z"/><polygon class="st134" points="57.048,55.53 57.048,55.526 45.34,55.532 45.406,130.319 52.72,130.319 52.655,55.532     "/><path class="st134" d="M124.437,8.665l-0.059,25.258l-3.152,62.902c2.678,0.006,5.283,0.021,7.312,0.043l3.154-62.945      l0.06-25.258H124.437z"/><path class="st134" d="M111.505,96.825l0.003,0.062c1.408-0.027,3.098-0.045,4.896-0.055      C114.818,96.827,113.15,96.823,111.505,96.825z"/><polygon class="st134" points="87.745,8.681 64.375,8.671 64.375,8.673 80.431,8.681 80.398,39.591 93.884,39.599       93.875,55.522 101.189,55.526 101.199,39.599 87.712,39.591     "/></g></g><g><g><path class="st26" d="M131.752,8.665l-0.06,25.258l-3.154,62.945c-4.663-0.049-12.37-0.074-17.03,0.02l-3.188-62.74      l-0.013-25.482H131.752z M64.409,39.524L64.375,8.671l23.369,0.01l-0.032,30.91l13.486,0.008l-0.01,15.928l-13.465-0.006      l0.067,51.342c0.029,5.156,2.397,7.33,7.546,7.508c0.525,0.014,5.321,0.014,5.861,0l-0.035,15.982      c-7.936,0.85-16.955,1.66-24.865,0.092c-7.176-1.424-10.483-5.41-11.443-13.137c-0.353-2.686-0.518-5.389-0.518-8.098      l0.025-53.684l-11.708,0.006l0.065,74.787H29.518l-0.005-45.426l-0.055-45.377L64.409,39.524z"/></g><rect class="st26" height="22.434" width="23.338" x="108.325" y="107.853"/><path class="st26" d="M29.586,8.681c6.607,0.062,16.372,0.074,22.981,0l-0.023,20.002H29.551L29.586,8.681z"/></g><line class="st26" x1="56.708" x2="45" y1="55.526" y2="55.532"/><line class="st26" x1="92.314" x2="80.606" y1="55.526" y2="55.532"/></g><g><line class="st26" x1="8.248" x2="14.292" y1="130.278" y2="130.278"/><line class="st26" x1="26.179" x2="42.125" y1="130.278" y2="130.278"/><line class="st26" x1="19.73" x2="20.857" y1="130.278" y2="130.278"/></g></g></svg>