<?xml version="1.0" ?><!DOCTYPE svg  PUBLIC '-//W3C//DTD SVG 1.1//EN'  'http://www.w3.org/Graphics/SVG/1.1/DTD/svg11.dtd'><svg height="140px" id="Layer_1" style="enable-background:new 0 0 140 140;" version="1.1" viewBox="0 0 140 140" width="140px" xml:space="preserve" xmlns="http://www.w3.org/2000/svg" xmlns:xlink="http://www.w3.org/1999/xlink"><style type="text/css">
<![CDATA[
	.st0{fill:#47BBF4;}
	.st1{fill:#7BEA06;}
	.st2{fill:#49E500;}
	.st3{fill:#7ED1B5;}
	.st4{fill:#1083DD;}
	.st5{fill:#7FBA0D;}
	.st6{fill:#E01726;}
	.st7{fill:#129AFF;}
	.st8{fill:#E2102E;}
	.st9{fill:#E2137A;}
	.st10{fill:#E2573B;}
	.st11{fill:#E2A60E;}
	.st12{fill:#E3443A;}
	.st13{fill:#1558BA;}
	.st14{fill:#159B81;}
	.st15{fill:#1644B7;}
	.st16{fill:#168BF4;}
	.st17{fill:#E51F32;}
	.st18{fill:#E6EFE8;}
	.st19{fill:#187FB8;}
	.st20{fill:#4C5054;}
	.st21{fill:#4C822A;}
	.st22{fill:#E8F9F8;}
	.st23{fill:#4F5459;}
	.st24{fill:#4FCCED;}
	.st25{fill:#B0C6C4;}
	.st26{fill:none;stroke:#33363A;stroke-width:3;stroke-linecap:round;stroke-linejoin:round;stroke-miterlimit:10;}
	.st27{fill:#859392;}
	.st28{fill:#1A68E5;}
	.st29{fill:#1A70F9;}
	.st30{fill:#1B8EED;}
	.st31{fill:#EA4606;}
	.st32{fill:#EA7B0C;}
	.st33{fill:#EAF4F9;}
	.st34{fill:#B70E10;}
	.st35{fill:#1CB1E6;}
	.st36{fill:#1CDDF7;}
	.st37{fill:#EDC211;}
	.st38{fill:#EF8114;}
	.st39{fill:#55932C;}
	.st40{fill:#569FEF;}
	.st41{fill:#BA30CE;}
	.st42{fill:#BA3A3A;}
	.st43{fill:#8CF41E;}
	.st44{fill:#59C96E;}
	.st45{fill:#8E0919;}
	.st46{fill:#20B5EC;}
	.st47{fill:#21CE52;}
	.st48{fill:#21D844;}
	.st49{fill:#F17250;}
	.st50{fill:#2364CE;}
	.st51{fill:#F2303F;}
	.st52{fill:#F24444;}
	.st53{fill:#F26B95;}
	.st54{fill:#F2A775;}
	.st55{fill:#2463FF;}
	.st56{fill:#24A9E6;}
	.st57{fill:#24AEF0;}
	.st58{fill:#F34B78;}
	.st59{fill:#25D600;}
	.st60{fill:#25D800;}
	.st61{fill:#F46300;}
	.st62{fill:#F4921E;}
	.st63{fill:#F4F1E6;}
	.st64{fill:#F72B2B;}
	.st65{fill:#F7441C;}
	.st66{fill:#F7851E;}
	.st67{fill:#5CAA4F;}
	.st68{fill:#F7A56D;}
	.st69{fill:#F7B257;}
	.st70{fill:#F7B92B;}
	.st71{fill:#F8571D;}
	.st72{fill:#F91D80;}
	.st73{fill:#F92E64;}
	.st74{fill:#F93838;}
	.st75{fill:#F9A121;}
	.st76{fill:#F9BD28;}
	.st77{fill:#F9D5AA;}
	.st78{fill:#5FB2A2;}
	.st79{fill:#9165B7;}
	.st80{fill:#95C675;}
	.st81{fill:#2A98F2;}
	.st82{fill:#2AC106;}
	.st83{fill:#C6232C;}
	.st84{fill:#C6402A;}
	.st85{fill:#FA7B7A;}
	.st86{fill:#FA9826;}
	.st87{fill:#2CC64D;}
	.st88{fill:#FB6620;}
	.st89{fill:#C7D5E0;}
	.st90{fill:#C8131A;}
	.st91{fill:#2DB487;}
	.st92{fill:#FC732D;}
	.st93{fill:#C8D8E8;}
	.st94{fill:#2ED3FF;}
	.st95{fill:#FF0DA9;}
	.st96{fill:#FF4743;}
	.st97{fill:#FF6155;}
	.st98{fill:#FF7639;}
	.st99{fill:#FF7676;}
	.st100{fill:#FF88AD;}
	.st101{fill:#FF9064;}
	.st102{fill:#FFA506;}
	.st103{fill:#FFBE8D;}
	.st104{fill:#FFEB5A;}
	.st105{fill:#FFF19C;}
	.st106{fill:#FFFDF5;}
	.st107{fill:#FFFFFF;}
	.st108{fill:#63C605;}
	.st109{fill:#64C0FF;}
	.st110{fill:#66A00A;}
	.st111{fill:#CAFFE9;}
	.st112{fill:#680719;}
	.st113{fill:none;stroke:#FCE2AE;stroke-width:3;stroke-linecap:round;stroke-linejoin:round;stroke-miterlimit:10;}
	.st114{fill:#CC2414;}
	.st115{fill:#CC4521;}
	.st116{fill:#9DEACE;}
	.st117{fill:#303030;}
	.st118{fill:#CE1721;}
	.st119{fill:#33363A;}
	.st120{fill:#337BD1;}
	.st121{fill:#6A7C7C;}
	.st122{fill:#37D660;}
	.st123{fill:#384948;}
	.st124{fill:#38B4F9;}
	.st125{fill:#6CA9EA;}
	.st126{fill:#6D8599;}
	.st127{fill:#0097E2;}
	.st128{fill:#00997C;}
	.st129{fill:#00A4DD;}
	.st130{fill:#0399FF;}
	.st131{fill:#D33F26;}
	.st132{fill:#0695ED;}
	.st133{fill:#0779EA;}
	.st134{fill:#079332;}
	.st135{fill:#D6381E;}
	.st136{fill:#3BAA00;}
	.st137{fill:#D6E5EA;}
	.st138{fill:#D6E7EA;}
	.st139{fill:#08A548;}
	.st140{fill:#08BC26;}
	.st141{fill:#D80B0B;}
	.st142{fill:#D8532B;}
	.st143{fill:#3DC8F9;}
	.st144{fill:#3E77BF;}
	.st145{fill:#3E8AF7;}
	.st146{fill:#D9E5ED;}
	.st147{fill:#72818E;}
	.st148{fill:#0A78DD;}
	.st149{fill:#0A8CDD;}
	.st150{fill:#A52D21;}
	.st151{fill:#76CEFF;}
	.st152{fill:#76DB00;}
	.st153{fill:#0C86EA;}
	.st154{fill:#DB0F4E;}
	.st155{fill:#A7B7B6;}
	.st156{fill:#0DBA5B;}
	.st157{fill:#79B259;}
	.st158{fill:#0E73D8;}
	.st159{fill:#0E78D8;}
	.st160{fill:#0E8971;}
	.st161{fill:#A981D3;}
	.st162{fill:#DD4B4B;}
	.st163{fill:#4087ED;}
	.st164{fill:#40A557;}
	.st165{fill:#40E269;}
	.st166{fill:#DFC7FF;}
	.st167{fill:#DFEFEF;}
	.st168{fill:#44FCB6;}
]]>
</style><g><path class="st152" d="M132.059,62.198c0-28.398-27.785-51.42-62.059-51.42c-34.275,0-62.059,23.021-62.059,51.42   S35.725,113.62,70,113.62v15.602l38.717-26.852C122.939,92.948,132.059,78.46,132.059,62.198z"/><path class="st108" d="M7.941,62.198c0,28.398,27.783,51.422,62.059,51.422v15.602l38.717-26.852   c14.223-9.422,23.342-23.91,23.342-40.172"/><path class="st26" d="M132.059,62.198c0-28.398-27.785-51.42-62.059-51.42c-34.275,0-62.059,23.021-62.059,51.42   S35.725,113.62,70,113.62v15.602l38.717-26.852C122.939,92.948,132.059,78.46,132.059,62.198z"/><g><g><g><path class="st107" d="M57.447,77.294c0,2.283-1.852,4.133-4.131,4.133l0,0c-2.281,0-4.135-1.85-4.135-4.133V48.802      c0-2.281,1.854-4.133,4.135-4.133l0,0c2.279,0,4.131,1.852,4.131,4.133V77.294z"/><path class="st107" d="M43.301,73.165H33.186V48.802c0-2.281-1.85-4.133-4.131-4.133c-2.279,0-4.133,1.852-4.133,4.133v28.492      c0,2.283,1.854,4.133,4.133,4.133h14.246c2.283,0,4.133-1.85,4.133-4.133C47.434,75.015,45.584,73.165,43.301,73.165z"/><path class="st107" d="M110.947,67.181c2.281,0,4.129-1.852,4.129-4.135c0-2.279-1.848-4.129-4.129-4.129H100.83v-5.986h10.117      c2.281,0,4.129-1.848,4.129-4.133c0-2.277-1.848-4.129-4.129-4.129h-14.25c-0.283,0-0.561,0.029-0.83,0.086      c-1.883,0.383-3.301,2.049-3.301,4.043V48.8v0.002v28.492c0,2.283,1.852,4.133,4.131,4.133h14.25      c2.281,0,4.129-1.85,4.129-4.133c0-2.279-1.848-4.129-4.129-4.129H100.83v-5.984H110.947z"/><path class="st107" d="M82.098,44.669c-2.283,0-4.133,1.852-4.133,4.133v4.076l-6.1-6.1c-0.309-0.307-0.646-0.553-0.994-0.773      c-0.754-0.814-1.826-1.336-3.025-1.336c-2.279,0-4.129,1.852-4.129,4.133v28.492c0,2.283,1.85,4.133,4.129,4.133      c2.283,0,4.131-1.85,4.131-4.133V58.577l5.908,5.906c0.023,0.025,0.055,0.041,0.08,0.066v12.744c0,2.283,1.85,4.133,4.133,4.133      c2.279,0,4.127-1.85,4.127-4.133V48.802C86.225,46.521,84.377,44.669,82.098,44.669z"/></g><g><path class="st22" d="M53.316,47.595c-2.281,0-4.135,1.852-4.135,4.135v25.564c0,2.283,1.854,4.133,4.135,4.133      c2.279,0,4.131-1.85,4.131-4.133V51.729C57.447,49.446,55.596,47.595,53.316,47.595z"/><path class="st22" d="M29.055,81.427h14.246c1.764,0,3.262-1.111,3.854-2.67c-0.592-1.555-2.09-2.666-3.854-2.666H33.186v-2.926      V51.729c0-2.283-1.85-4.135-4.131-4.135c-2.279,0-4.133,1.852-4.133,4.135v25.564C24.922,79.577,26.775,81.427,29.055,81.427z"/><path class="st22" d="M96.697,81.427h14.25c1.766,0,3.26-1.111,3.85-2.67c-0.59-1.555-2.084-2.666-3.85-2.666H100.83v-2.926      v-3.059v-2.926h10.117c1.766,0,3.26-1.113,3.85-2.67c-0.59-1.555-2.084-2.668-3.85-2.668H100.83v-2.926V55.86v-2.93h10.117      c1.766,0,3.26-1.111,3.85-2.668c-0.59-1.557-2.084-2.668-3.85-2.668h-14.25c-0.283,0-0.561,0.031-0.83,0.084      c-1.883,0.387-3.301,2.053-3.301,4.047v0.002v0.002v25.564C92.566,79.577,94.418,81.427,96.697,81.427z"/><path class="st22" d="M82.098,47.595c-2.283,0-4.133,1.852-4.133,4.135v1.148v2.926l-6.1-6.098      c-0.309-0.309-0.646-0.557-0.994-0.775c-0.754-0.816-1.826-1.336-3.025-1.336c-2.279,0-4.129,1.852-4.129,4.135v25.564      c0,2.283,1.85,4.133,4.129,4.133c2.283,0,4.131-1.85,4.131-4.133V61.503v-2.926l5.908,5.906c0.023,0.025,0.055,0.041,0.08,0.066      v2.928v9.816c0,2.283,1.85,4.133,4.133,4.133c2.279,0,4.127-1.85,4.127-4.133V51.729C86.225,49.446,84.377,47.595,82.098,47.595      z"/></g></g><g><path class="st26" d="M53.316,44.669c-2.281,0-4.135,1.852-4.135,4.133v2.928v25.564c0,2.283,1.854,4.133,4.135,4.133     c2.279,0,4.131-1.85,4.131-4.133V51.729v-2.928C57.447,46.521,55.596,44.669,53.316,44.669z"/><path class="st26" d="M46.85,79.384c0.031-0.055,0.061-0.113,0.092-0.17c0.303-0.576,0.492-1.221,0.492-1.92     c0-2.279-1.85-4.129-4.133-4.129H33.186V51.729v-2.928c0-2.281-1.85-4.133-4.131-4.133c-2.279,0-4.133,1.852-4.133,4.133v2.928     v25.564c0,2.283,1.854,4.133,4.133,4.133h14.246c0.26,0,0.51-0.029,0.752-0.076c0.084-0.016,0.158-0.035,0.236-0.059     c0.162-0.037,0.32-0.084,0.471-0.143c0.092-0.035,0.178-0.068,0.264-0.107c0.133-0.064,0.262-0.137,0.387-0.211     c0.086-0.051,0.172-0.096,0.254-0.152c0.17-0.119,0.33-0.254,0.48-0.396c0.107-0.104,0.201-0.217,0.293-0.326     c0.051-0.062,0.107-0.121,0.152-0.184C46.684,79.649,46.77,79.521,46.85,79.384z"/><path class="st26" d="M110.947,58.917H100.83V55.86v-2.93h10.117c0.258,0,0.506-0.029,0.752-0.076     c0.08-0.014,0.16-0.037,0.236-0.055c0.16-0.039,0.316-0.088,0.467-0.148c0.092-0.031,0.18-0.066,0.266-0.107     c0.131-0.061,0.258-0.131,0.381-0.207c0.086-0.051,0.178-0.096,0.26-0.154c0.172-0.119,0.328-0.252,0.477-0.393     c0.109-0.105,0.205-0.219,0.303-0.334c0.049-0.059,0.1-0.117,0.145-0.178c0.096-0.123,0.182-0.256,0.26-0.391     c0.035-0.055,0.062-0.111,0.092-0.168c0.305-0.576,0.492-1.223,0.492-1.922c0-2.277-1.848-4.129-4.129-4.129h-14.25     c-0.283,0-0.561,0.029-0.83,0.086c-1.883,0.383-3.301,2.049-3.301,4.043V48.8v0.002v2.924v0.002v0.002v25.564     c0,2.283,1.852,4.133,4.131,4.133h14.25c0.258,0,0.506-0.029,0.752-0.076c0.08-0.016,0.154-0.035,0.236-0.059     c0.158-0.037,0.316-0.084,0.469-0.143c0.09-0.035,0.176-0.068,0.264-0.107c0.133-0.064,0.26-0.137,0.387-0.211     c0.084-0.051,0.172-0.096,0.254-0.152c0.17-0.119,0.33-0.254,0.477-0.396c0.109-0.104,0.203-0.217,0.301-0.326     c0.049-0.062,0.1-0.121,0.148-0.184c0.094-0.123,0.178-0.252,0.258-0.389c0.033-0.055,0.062-0.113,0.092-0.17     c0.305-0.576,0.492-1.221,0.492-1.92c0-2.279-1.848-4.129-4.129-4.129H100.83v-3.059v-2.926h10.117     c0.258,0,0.506-0.033,0.754-0.08c0.078-0.012,0.152-0.033,0.232-0.055c0.16-0.039,0.32-0.086,0.473-0.146     c0.088-0.033,0.174-0.066,0.258-0.105c0.137-0.062,0.27-0.137,0.396-0.213c0.082-0.051,0.168-0.094,0.244-0.148     c0.174-0.121,0.336-0.256,0.486-0.4c0.104-0.1,0.193-0.209,0.287-0.316c0.053-0.062,0.107-0.127,0.158-0.193     c0.094-0.123,0.174-0.248,0.254-0.381c0.035-0.061,0.066-0.119,0.098-0.18c0.08-0.146,0.15-0.293,0.209-0.449     c0-0.002,0-0.002,0-0.002l0,0c0.174-0.455,0.279-0.945,0.279-1.465C115.076,60.767,113.229,58.917,110.947,58.917z"/><path class="st26" d="M82.098,44.669c-2.283,0-4.133,1.852-4.133,4.133v2.928v1.148l-6.1-6.1     c-0.309-0.307-0.646-0.553-0.994-0.773c-0.754-0.814-1.826-1.336-3.025-1.336c-2.279,0-4.129,1.852-4.129,4.133v2.928v25.564     c0,2.283,1.85,4.133,4.129,4.133c2.283,0,4.131-1.85,4.131-4.133V61.503v-2.926l5.908,5.906c0.023,0.025,0.055,0.041,0.08,0.066     v2.928v9.816c0,2.283,1.85,4.133,4.133,4.133c2.279,0,4.127-1.85,4.127-4.133V51.729v-2.928     C86.225,46.521,84.377,44.669,82.098,44.669z"/></g></g></g></svg>