<?xml version="1.0" ?><!DOCTYPE svg  PUBLIC '-//W3C//DTD SVG 1.1//EN'  'http://www.w3.org/Graphics/SVG/1.1/DTD/svg11.dtd'><svg height="140px" id="Layer_1" style="enable-background:new 0 0 140 140;" version="1.1" viewBox="0 0 140 140" width="140px" xml:space="preserve" xmlns="http://www.w3.org/2000/svg" xmlns:xlink="http://www.w3.org/1999/xlink"><style type="text/css">
<![CDATA[
	.st0{fill:#47BBF4;}
	.st1{fill:#7BEA06;}
	.st2{fill:#49E500;}
	.st3{fill:#7ED1B5;}
	.st4{fill:#1083DD;}
	.st5{fill:#7FBA0D;}
	.st6{fill:#E01726;}
	.st7{fill:#129AFF;}
	.st8{fill:#E2102E;}
	.st9{fill:#E2137A;}
	.st10{fill:#E2573B;}
	.st11{fill:#E2A60E;}
	.st12{fill:#E3443A;}
	.st13{fill:#1558BA;}
	.st14{fill:#159B81;}
	.st15{fill:#1644B7;}
	.st16{fill:#168BF4;}
	.st17{fill:#E51F32;}
	.st18{fill:#E6EFE8;}
	.st19{fill:#187FB8;}
	.st20{fill:#4C5054;}
	.st21{fill:#4C822A;}
	.st22{fill:#E8F9F8;}
	.st23{fill:#4F5459;}
	.st24{fill:#4FCCED;}
	.st25{fill:#B0C6C4;}
	.st26{fill:none;stroke:#33363A;stroke-width:3;stroke-linecap:round;stroke-linejoin:round;stroke-miterlimit:10;}
	.st27{fill:#859392;}
	.st28{fill:#1A68E5;}
	.st29{fill:#1A70F9;}
	.st30{fill:#1B8EED;}
	.st31{fill:#EA4606;}
	.st32{fill:#EA7B0C;}
	.st33{fill:#EAF4F9;}
	.st34{fill:#B70E10;}
	.st35{fill:#1CB1E6;}
	.st36{fill:#1CDDF7;}
	.st37{fill:#EDC211;}
	.st38{fill:#EF8114;}
	.st39{fill:#55932C;}
	.st40{fill:#569FEF;}
	.st41{fill:#BA30CE;}
	.st42{fill:#BA3A3A;}
	.st43{fill:#8CF41E;}
	.st44{fill:#59C96E;}
	.st45{fill:#8E0919;}
	.st46{fill:#20B5EC;}
	.st47{fill:#21CE52;}
	.st48{fill:#21D844;}
	.st49{fill:#F17250;}
	.st50{fill:#2364CE;}
	.st51{fill:#F2303F;}
	.st52{fill:#F24444;}
	.st53{fill:#F26B95;}
	.st54{fill:#F2A775;}
	.st55{fill:#2463FF;}
	.st56{fill:#24A9E6;}
	.st57{fill:#24AEF0;}
	.st58{fill:#F34B78;}
	.st59{fill:#25D600;}
	.st60{fill:#25D800;}
	.st61{fill:#F46300;}
	.st62{fill:#F4921E;}
	.st63{fill:#F4F1E6;}
	.st64{fill:#F72B2B;}
	.st65{fill:#F7441C;}
	.st66{fill:#F7851E;}
	.st67{fill:#5CAA4F;}
	.st68{fill:#F7A56D;}
	.st69{fill:#F7B257;}
	.st70{fill:#F7B92B;}
	.st71{fill:#F8571D;}
	.st72{fill:#F91D80;}
	.st73{fill:#F92E64;}
	.st74{fill:#F93838;}
	.st75{fill:#F9A121;}
	.st76{fill:#F9BD28;}
	.st77{fill:#F9D5AA;}
	.st78{fill:#5FB2A2;}
	.st79{fill:#9165B7;}
	.st80{fill:#95C675;}
	.st81{fill:#2A98F2;}
	.st82{fill:#2AC106;}
	.st83{fill:#C6232C;}
	.st84{fill:#C6402A;}
	.st85{fill:#FA7B7A;}
	.st86{fill:#FA9826;}
	.st87{fill:#2CC64D;}
	.st88{fill:#FB6620;}
	.st89{fill:#C7D5E0;}
	.st90{fill:#C8131A;}
	.st91{fill:#2DB487;}
	.st92{fill:#FC732D;}
	.st93{fill:#C8D8E8;}
	.st94{fill:#2ED3FF;}
	.st95{fill:#FF0DA9;}
	.st96{fill:#FF4743;}
	.st97{fill:#FF6155;}
	.st98{fill:#FF7639;}
	.st99{fill:#FF7676;}
	.st100{fill:#FF88AD;}
	.st101{fill:#FF9064;}
	.st102{fill:#FFA506;}
	.st103{fill:#FFBE8D;}
	.st104{fill:#FFEB5A;}
	.st105{fill:#FFF19C;}
	.st106{fill:#FFFDF5;}
	.st107{fill:#FFFFFF;}
	.st108{fill:#63C605;}
	.st109{fill:#64C0FF;}
	.st110{fill:#66A00A;}
	.st111{fill:#CAFFE9;}
	.st112{fill:#680719;}
	.st113{fill:none;stroke:#FCE2AE;stroke-width:3;stroke-linecap:round;stroke-linejoin:round;stroke-miterlimit:10;}
	.st114{fill:#CC2414;}
	.st115{fill:#CC4521;}
	.st116{fill:#9DEACE;}
	.st117{fill:#303030;}
	.st118{fill:#CE1721;}
	.st119{fill:#33363A;}
	.st120{fill:#337BD1;}
	.st121{fill:#6A7C7C;}
	.st122{fill:#37D660;}
	.st123{fill:#384948;}
	.st124{fill:#38B4F9;}
	.st125{fill:#6CA9EA;}
	.st126{fill:#6D8599;}
	.st127{fill:#0097E2;}
	.st128{fill:#00997C;}
	.st129{fill:#00A4DD;}
	.st130{fill:#0399FF;}
	.st131{fill:#D33F26;}
	.st132{fill:#0695ED;}
	.st133{fill:#0779EA;}
	.st134{fill:#079332;}
	.st135{fill:#D6381E;}
	.st136{fill:#3BAA00;}
	.st137{fill:#D6E5EA;}
	.st138{fill:#D6E7EA;}
	.st139{fill:#08A548;}
	.st140{fill:#08BC26;}
	.st141{fill:#D80B0B;}
	.st142{fill:#D8532B;}
	.st143{fill:#3DC8F9;}
	.st144{fill:#3E77BF;}
	.st145{fill:#3E8AF7;}
	.st146{fill:#D9E5ED;}
	.st147{fill:#72818E;}
	.st148{fill:#0A78DD;}
	.st149{fill:#0A8CDD;}
	.st150{fill:#A52D21;}
	.st151{fill:#76CEFF;}
	.st152{fill:#76DB00;}
	.st153{fill:#0C86EA;}
	.st154{fill:#DB0F4E;}
	.st155{fill:#A7B7B6;}
	.st156{fill:#0DBA5B;}
	.st157{fill:#79B259;}
	.st158{fill:#0E73D8;}
	.st159{fill:#0E78D8;}
	.st160{fill:#0E8971;}
	.st161{fill:#A981D3;}
	.st162{fill:#DD4B4B;}
	.st163{fill:#4087ED;}
	.st164{fill:#40A557;}
	.st165{fill:#40E269;}
	.st166{fill:#DFC7FF;}
	.st167{fill:#DFEFEF;}
	.st168{fill:#44FCB6;}
]]>
</style><g><g><path class="st111" d="M119.771,59.338c2.785-6.229,4.299-14.303,4.299-21.387c0-19.049-9.637-30.131-27.299-30.131    c-18.154,0-28.777,14.072-28.777,32.623c0,18.383,8.523,34.164,22.576,41.353c-5.91,11.916-13.432,22.414-21.273,30.328    c-14.23-17.344-27.092-40.479-32.373-85.63H15.93c9.699,75.195,38.604,99.142,46.246,103.738    c4.324,2.615,8.049,2.492,11.998,0.248c6.205-3.561,24.842-22.338,35.168-44.338c4.336-0.012,9.539-0.516,14.729-1.701V69.639    c-3.178,0.738-6.254,1.068-9.016,1.068c-15.564,0-27.545-10.963-27.545-30.016c0-9.338,3.582-14.197,8.646-14.197    c4.818,0,8.029,4.361,8.029,13.203c0,5.029-1.34,10.537-2.324,13.797C101.861,53.495,106.658,61.928,119.771,59.338z"/></g><g><path class="st168" d="M74.174,130.48c6.205-3.561,24.842-22.338,35.168-44.338c4.336-0.012,9.539-0.516,14.729-1.701v-3.279    c-1.828,0.25-3.598,0.385-5.246,0.385c-13.715,0-24.641-8.514-27.047-23.572c-2.711-4.627-4.268-10.428-4.268-17.283    c0-9.338,3.582-14.197,8.646-14.197c4.654,0,7.799,4.084,8.008,12.33c2.367,1.953,3.791,5.838,3.791,11.713    c0,2.514-0.336,5.146-0.793,7.559c2.844,1.424,6.951,2.359,12.609,1.242c2.785-6.229,4.299-14.303,4.299-21.387    c0-2.746-0.207-5.322-0.604-7.729c-4.445-7.471-12.203-11.562-22.926-11.562c-18.154,0-28.777,14.072-28.777,32.623    c0,4.244,0.473,8.34,1.346,12.232c3.891,7.97,9.857,14.39,17.461,18.281c-1.039,2.096-2.131,4.145-3.262,6.145    c2.154,1.818,4.5,3.402,7.031,4.697c-5.91,11.916-13.432,22.414-21.273,30.328c-9.299-11.334-18.012-25.143-24.408-45.947    C44.434,66.229,40.9,53.297,38.406,37.336H19.699c2.318,17.963,5.732,32.994,9.689,45.542    c12.207,31.869,27.529,44.191,32.787,47.354C66.5,132.848,70.225,132.725,74.174,130.48z"/><path class="st168" d="M123.541,70.18c0.068-0.152,0.127-0.318,0.193-0.473c-2.188,0.488-4.32,0.789-6.332,0.918    C119.207,70.743,121.244,70.633,123.541,70.18z"/></g><g><path class="st26" d="M119.771,59.338c2.785-6.229,4.299-14.303,4.299-21.387c0-19.049-9.637-30.131-27.299-30.131    c-18.154,0-28.777,14.072-28.777,32.623c0,18.383,8.523,34.164,22.576,41.353c-5.91,11.916-13.432,22.414-21.273,30.328    c-14.23-17.344-27.092-40.479-32.373-85.63H15.93c9.699,75.195,38.604,99.142,46.246,103.738    c4.324,2.615,8.049,2.492,11.998,0.248c6.205-3.561,24.842-22.338,35.168-44.338c4.336-0.012,9.539-0.516,14.729-1.701V69.639    c-3.178,0.738-6.254,1.068-9.016,1.068c-15.564,0-27.545-10.963-27.545-30.016c0-9.338,3.582-14.197,8.646-14.197    c4.818,0,8.029,4.361,8.029,13.203c0,5.029-1.34,10.537-2.324,13.797C101.861,53.495,106.658,61.928,119.771,59.338z"/></g><path class="st14" d="M87.51,40.692c0-9.338,3.582-14.197,8.646-14.197c4.818,0,8.029,4.361,8.029,13.203   c0,5.029-1.34,10.537-2.324,13.797c0,0,4.797,8.434,17.91,5.844c2.785-6.229,4.299-14.303,4.299-21.387   c0-19.049-9.637-30.131-27.299-30.131c-18.154,0-28.777,14.072-28.777,32.623c0,18.383,8.523,34.164,22.576,41.353   C85.41,92.205,79.016,101.531,72.256,109c-5.062,6.619-11.109,11.797-17.762,15.07c3.301,3.209,6.004,5.15,7.682,6.162   c4.324,2.615,8.049,2.492,11.998,0.248c6.205-3.561,24.842-22.338,35.168-44.338c4.336-0.012,9.539-0.516,14.729-1.701V69.639   c-3.178,0.738-6.254,1.068-9.016,1.068C99.49,70.708,87.51,59.745,87.51,40.692z"/><path class="st111" d="M124.07,84.441V69.639c-3.178,0.738-6.254,1.068-9.016,1.068c-15.564,0-27.545-10.963-27.545-30.016   c0-9.338,3.582-14.197,8.646-14.197c4.818,0,8.029,4.361,8.029,13.203c0,5.029-1.34,10.537-2.324,13.797   c0,0,4.797,8.434,17.91,5.844c2.785-6.229,4.299-14.303,4.299-21.387c0-19.049-9.637-30.131-27.299-30.131   c-18.154,0-28.777,14.072-28.777,32.623c0,18.283,8.438,33.988,22.357,41.23c1.631,0.553,3.285,1.066,4.98,1.521   c6.594,1.762,13.146,2.619,19.455,2.67C117.764,85.609,120.906,85.164,124.07,84.441z"/><path class="st168" d="M87.51,51.532c0-1.848,0.145-3.514,0.41-5.008c-0.266-1.852-0.41-3.793-0.41-5.832   c0-9.338,3.582-14.197,8.646-14.197c4.818,0,8.029,4.361,8.029,13.203c0,1.857-0.186,3.779-0.465,5.631   c0.299,1.521,0.465,3.248,0.465,5.209c0,1.723-0.164,3.496-0.41,5.221c2.461,2.287,7.469,5.264,15.996,3.58   c2.088-4.67,3.461-10.375,4.018-15.924c-1.693-15.738-11.09-24.754-27.018-24.754c-16.41,0-26.664,11.5-28.484,27.41   c1.549,15.836,9.598,29.117,22.064,35.603c1.631,0.553,3.285,1.066,4.98,1.521c6.594,1.762,13.146,2.619,19.455,2.67   c2.977-0.256,6.119-0.701,9.283-1.424V80.48c-3.178,0.738-6.254,1.066-9.016,1.066C99.49,81.547,87.51,70.586,87.51,51.532z"/><path class="st91" d="M117.027,15.725c-13.68-9.555-25.742,5.506-27.492,15.061c1.541-2.832,3.855-4.291,6.621-4.291   c4.818,0,8.029,4.361,8.029,13.203c0,5.029-1.34,10.537-2.324,13.797c0,0,4.797,8.434,17.91,5.844   c2.785-6.229,4.299-14.303,4.299-21.387C124.07,28.417,121.654,20.879,117.027,15.725z"/><g><path class="st14" d="M90.553,29.19c5.986-7.555,19.436-13.229,30.82-6.451c-1.113-2.676-2.561-5.025-4.346-7.014    c-13.68-9.555-25.742,5.506-27.492,15.061c0.34-0.627,0.725-1.174,1.139-1.668C90.633,29.145,90.596,29.165,90.553,29.19z"/></g><g><path class="st26" d="M121.373,22.739c-1.113-2.676-2.561-5.025-4.346-7.014c-13.68-9.555-25.742,5.506-27.492,15.061    c0.34-0.627,0.725-1.174,1.139-1.668c-0.041,0.027-0.078,0.047-0.121,0.072"/></g><path class="st160" d="M95.332,83.195c-1.695-0.455-3.35-0.969-4.98-1.521c-6.51-3.387-11.801-8.641-15.609-15.126l-0.004,0.002   c3.85,6.564,9.221,11.865,15.832,15.248c-1.266,2.553-2.607,5.039-4.01,7.453c1.797,0.199,3.658,0.312,5.57,0.312   c6.604,0,12.611-1.275,17.182-3.359c0.008-0.023,0.018-0.041,0.029-0.061c0.035,0,0.074-0.002,0.109-0.006   c0.322-0.146,0.654-0.289,0.963-0.443C105.473,85.361,100.416,84.557,95.332,83.195z"/><path class="st26" d="M124.07,84.441V69.639c-3.178,0.738-6.254,1.068-9.016,1.068c-15.564,0-27.545-10.963-27.545-30.016   c0-9.338,3.582-14.197,8.646-14.197c4.818,0,8.029,4.361,8.029,13.203c0,5.029-1.34,10.537-2.324,13.797   c0,0,4.797,8.434,17.91,5.844c2.785-6.229,4.299-14.303,4.299-21.387c0-19.049-9.637-30.131-27.299-30.131   c-18.154,0-28.777,14.072-28.777,32.623c0,18.283,8.438,33.988,22.357,41.23c1.631,0.553,3.285,1.066,4.98,1.521   c6.594,1.762,13.146,2.619,19.455,2.67C117.764,85.609,120.906,85.164,124.07,84.441z"/><path class="st26" d="M87.51,40.692c0-9.338,3.582-14.197,8.646-14.197c4.818,0,8.029,4.361,8.029,13.203   c0,5.029-1.34,10.537-2.324,13.797c0,0,4.797,8.434,17.91,5.844c2.785-6.229,4.299-14.303,4.299-21.387   c0-19.049-9.637-30.131-27.299-30.131c-18.154,0-28.777,14.072-28.777,32.623c0,18.383,8.523,34.164,22.576,41.353   C85.41,92.205,79.016,101.531,72.256,109c-5.062,6.619-11.109,11.797-17.762,15.07c3.301,3.209,6.004,5.15,7.682,6.162   c4.324,2.615,8.049,2.492,11.998,0.248c6.205-3.561,24.842-22.338,35.168-44.338c4.336-0.012,9.539-0.516,14.729-1.701V69.639   c-3.178,0.738-6.254,1.068-9.016,1.068C99.49,70.708,87.51,59.745,87.51,40.692z"/></g></svg>