<?xml version="1.0" ?><svg viewBox="0 0 63 63" xmlns="http://www.w3.org/2000/svg" xmlns:xlink="http://www.w3.org/1999/xlink"><defs><style>.cls-1,.cls-7{fill:#fff;}.cls-1,.cls-2,.cls-5,.cls-6,.cls-8{stroke-linecap:round;}.cls-1,.cls-2,.cls-3,.cls-4,.cls-5,.cls-6,.cls-8{stroke-miterlimit:10;}.cls-1,.cls-4,.cls-6{fill-rule:evenodd;}.cls-1{stroke:url(#linear-gradient);}.cls-2,.cls-3,.cls-5,.cls-6,.cls-8{fill:none;}.cls-2{stroke:url(#linear-gradient-2);}.cls-3,.cls-5{stroke:#e0e0e0;}.cls-4{fill:url(#linear-gradient-3);stroke:url(#linear-gradient-4);}.cls-6{stroke:url(#linear-gradient-5);}.cls-8{stroke:url(#linear-gradient-6);}</style><linearGradient gradientUnits="userSpaceOnUse" id="linear-gradient" x1="20.45" x2="45.45" y1="32.05" y2="32.05"><stop offset="0" stop-color="#a900bf"/><stop offset="0.48" stop-color="#d661ad"/><stop offset="0.83" stop-color="#f3a3a1"/><stop offset="1" stop-color="#ffbc9c"/></linearGradient><linearGradient id="linear-gradient-2" x1="20.45" x2="21.45" xlink:href="#linear-gradient" y1="28.15" y2="28.15"/><linearGradient id="linear-gradient-3" x1="17.56" x2="39.58" xlink:href="#linear-gradient" y1="34.33" y2="34.33"/><linearGradient id="linear-gradient-4" x1="17.06" x2="40.08" xlink:href="#linear-gradient" y1="34.33" y2="34.33"/><linearGradient id="linear-gradient-5" x1="37.45" x2="42.95" xlink:href="#linear-gradient" y1="21.4" y2="21.4"/><linearGradient id="linear-gradient-6" x1="20.45" x2="21.45" xlink:href="#linear-gradient" y1="42.15" y2="42.15"/></defs><title/><g data-name="Layer 70" id="Layer_70"><path class="cls-1" d="M21,25.55v-7a3,3,0,0,1,3-3H38l7,8v22a3,3,0,0,1-3,3H24a3,3,0,0,1-3-3v-1"/><line class="cls-2" x1="20.95" x2="20.95" y1="28.55" y2="27.75"/><path class="cls-3" d="M18,36.55v2a1,1,0,0,0,1,1H38a1,1,0,0,0,1-1v-1"/><path class="cls-4" d="M38.83,38.62H18.32a.81.81,0,0,1-.76-.86V30.9a.81.81,0,0,1,.76-.85H38.83a.81.81,0,0,1,.75.85v6.86A.81.81,0,0,1,38.83,38.62Z"/><path class="cls-5" d="M38,23v.31a1.28,1.28,0,0,0,1.28,1.3l2.87,0a.26.26,0,0,0,.26-.25V24"/><path class="cls-6" d="M38,18.83v3.86A1.28,1.28,0,0,0,39.24,24h3.21"/><path class="cls-7" d="M22.66,35.44a.34.34,0,0,1,.09-.27.55.55,0,0,1,.3-.07.68.68,0,0,1,.35.07.29.29,0,0,1,.09.23.57.57,0,0,0,.25.46,1.08,1.08,0,0,0,.7.19,1,1,0,0,0,.73-.22.9.9,0,0,0,.24-.7V35c0-.54-.33-.81-1-.81-.18,0-.27-.11-.27-.31s.09-.32.27-.32a1,1,0,0,0,.62-.17.84.84,0,0,0,.21-.66c0-.51-.26-.77-.8-.77a.92.92,0,0,0-.64.18.54.54,0,0,0-.19.43c0,.21-.13.32-.4.32a.61.61,0,0,1-.36-.07.43.43,0,0,1-.08-.3,1.14,1.14,0,0,1,.08-.4,1.19,1.19,0,0,1,.26-.4,1.21,1.21,0,0,1,.53-.33,2.22,2.22,0,0,1,.81-.13c1.07,0,1.61.45,1.61,1.34a1.73,1.73,0,0,1-.17.78,1.07,1.07,0,0,1-.47.47A1.13,1.13,0,0,1,26.25,35v.14a1.48,1.48,0,0,1-.5,1.24,2.11,2.11,0,0,1-1.32.39,1.93,1.93,0,0,1-1.32-.41A1.2,1.2,0,0,1,22.66,35.44Z"/><path class="cls-7" d="M27,35.09V32.91a1.57,1.57,0,0,1,.49-1.27,1.94,1.94,0,0,1,1.28-.4,2.11,2.11,0,0,1,1.32.38,1.18,1.18,0,0,1,.51,1,.38.38,0,0,1-.1.3.5.5,0,0,1-.33.09q-.42,0-.42-.27a.84.84,0,0,0-1-.8.85.85,0,0,0-.95,1v2.18a.85.85,0,0,0,.95,1,1,1,0,0,0,.7-.24,1,1,0,0,0,.25-.73v-.61H29a.22.22,0,0,1-.2-.1.32.32,0,0,1-.07-.22.36.36,0,0,1,.07-.22.24.24,0,0,1,.2-.09h1.38a.24.24,0,0,1,.2.08.26.26,0,0,1,.08.19v1a1.54,1.54,0,0,1-.5,1.26,2,2,0,0,1-1.3.41,2,2,0,0,1-1.31-.41A1.56,1.56,0,0,1,27,35.09Z"/><path class="cls-7" d="M31.52,36.45v-5a.23.23,0,0,1,.09-.18.36.36,0,0,1,.24-.07h1.56a1.9,1.9,0,0,1,1.27.4,1.52,1.52,0,0,1,.48,1.25V33a1.54,1.54,0,0,1-.49,1.25,2,2,0,0,1-1.31.4h-1v1.85a.23.23,0,0,1-.13.19.56.56,0,0,1-.3.07.54.54,0,0,1-.29-.07A.21.21,0,0,1,31.52,36.45ZM32.37,34h1a.86.86,0,0,0,1-1v-.09a.86.86,0,0,0-1-1h-1Z"/><line class="cls-8" x1="20.95" x2="20.95" y1="42.55" y2="41.75"/><path class="cls-5" d="M43,42.48v2.93a1,1,0,0,1-1,1l-.34,0"/></g></svg>