<?xml version="1.0" ?><svg viewBox="0 0 63 63" xmlns="http://www.w3.org/2000/svg" xmlns:xlink="http://www.w3.org/1999/xlink"><defs><style>.cls-1,.cls-7{fill:#fff;}.cls-1,.cls-2,.cls-5,.cls-6,.cls-8{stroke-linecap:round;}.cls-1,.cls-2,.cls-3,.cls-4,.cls-5,.cls-6,.cls-8{stroke-miterlimit:10;}.cls-1,.cls-4,.cls-6{fill-rule:evenodd;}.cls-1{stroke:url(#linear-gradient);}.cls-2,.cls-3,.cls-5,.cls-6,.cls-8{fill:none;}.cls-2{stroke:url(#linear-gradient-2);}.cls-3,.cls-5{stroke:#e0e0e0;}.cls-4{fill:url(#linear-gradient-3);stroke:url(#linear-gradient-4);}.cls-6{stroke:url(#linear-gradient-5);}.cls-8{stroke:url(#linear-gradient-6);}</style><linearGradient gradientUnits="userSpaceOnUse" id="linear-gradient" x1="20.45" x2="45.45" y1="32.05" y2="32.05"><stop offset="0" stop-color="#a900bf"/><stop offset="0.48" stop-color="#d661ad"/><stop offset="0.83" stop-color="#f3a3a1"/><stop offset="1" stop-color="#ffbc9c"/></linearGradient><linearGradient id="linear-gradient-2" x1="20.45" x2="21.45" xlink:href="#linear-gradient" y1="28.15" y2="28.15"/><linearGradient id="linear-gradient-3" x1="17.43" x2="39.45" xlink:href="#linear-gradient" y1="34.33" y2="34.33"/><linearGradient id="linear-gradient-4" x1="16.93" x2="39.95" xlink:href="#linear-gradient" y1="34.33" y2="34.33"/><linearGradient id="linear-gradient-5" x1="37.45" x2="42.95" xlink:href="#linear-gradient" y1="21.4" y2="21.4"/><linearGradient id="linear-gradient-6" x1="20.45" x2="21.45" xlink:href="#linear-gradient" y1="42.15" y2="42.15"/></defs><title/><g data-name="Layer 36" id="Layer_36"><path class="cls-1" d="M21,25.55v-7a3,3,0,0,1,3-3H38l7,8v22a3,3,0,0,1-3,3H24a3,3,0,0,1-3-3v-1"/><line class="cls-2" x1="20.95" x2="20.95" y1="28.55" y2="27.75"/><path class="cls-3" d="M18,36.55v2a1,1,0,0,0,1,1H38a1,1,0,0,0,1-1v-1"/><path class="cls-4" d="M38.69,38.62H18.19a.81.81,0,0,1-.76-.86V30.9a.81.81,0,0,1,.76-.85h20.5a.81.81,0,0,1,.76.85v6.86A.81.81,0,0,1,38.69,38.62Z"/><path class="cls-5" d="M38,23v.31a1.28,1.28,0,0,0,1.28,1.3l2.87,0a.26.26,0,0,0,.26-.25V24"/><path class="cls-6" d="M38,18.83v3.86A1.28,1.28,0,0,0,39.24,24h3.21"/><path class="cls-7" d="M22.73,35.53q0-.36.42-.36c.29,0,.43.1.43.31a.56.56,0,0,0,.27.49,1.17,1.17,0,0,0,.67.18.84.84,0,0,0,1-.94v-.14a.92.92,0,0,0-.25-.71,1,1,0,0,0-.7-.24H23.37q-.36,0-.36-.3a.45.45,0,0,1,0-.18l.16-2c0-.17.08-.26.19-.26h2.37a.22.22,0,0,1,.2.1.48.48,0,0,1,0,.5.22.22,0,0,1-.2.1H23.93l-.12,1.46h.72a2.1,2.1,0,0,1,1.31.37,1.45,1.45,0,0,1,.49,1.2v.14a1.53,1.53,0,0,1-.5,1.25,2.35,2.35,0,0,1-2.61,0A1.18,1.18,0,0,1,22.73,35.53Z"/><path class="cls-7" d="M27,35.19V33a1.54,1.54,0,0,1,.49-1.27,2.36,2.36,0,0,1,2.63,0,1.54,1.54,0,0,1,.5,1.27v2.18a1.54,1.54,0,0,1-.5,1.26,2.31,2.31,0,0,1-2.63,0A1.53,1.53,0,0,1,27,35.19Zm.85,0a.85.85,0,0,0,1,1,1,1,0,0,0,.71-.24,1,1,0,0,0,.25-.72V33a1,1,0,0,0-.25-.73,1,1,0,0,0-.71-.24.85.85,0,0,0-1,1Zm.71-.86a.29.29,0,0,1-.1-.23.28.28,0,0,1,.1-.23.4.4,0,0,1,.26-.08.39.39,0,0,1,.25.08.28.28,0,0,1,.1.23.29.29,0,0,1-.1.23.35.35,0,0,1-.25.09A.36.36,0,0,1,28.51,34.33Z"/><path class="cls-7" d="M31.12,35.53c0-.24.14-.36.41-.36s.44.1.44.31a.57.57,0,0,0,.26.49,1.2,1.2,0,0,0,.67.18.84.84,0,0,0,1-.94v-.14a.92.92,0,0,0-.25-.71,1,1,0,0,0-.7-.24H31.75q-.36,0-.36-.3a.45.45,0,0,1,0-.18l.16-2c0-.17.08-.26.19-.26h2.38a.21.21,0,0,1,.19.1.48.48,0,0,1,0,.5.21.21,0,0,1-.19.1H32.31L32.2,33.5h.71a2.08,2.08,0,0,1,1.31.37,1.42,1.42,0,0,1,.49,1.2v.14a1.52,1.52,0,0,1-.49,1.25,2.37,2.37,0,0,1-2.62,0A1.17,1.17,0,0,1,31.12,35.53Z"/><line class="cls-8" x1="20.95" x2="20.95" y1="42.55" y2="41.75"/><path class="cls-5" d="M43,42.48v2.93a1,1,0,0,1-1,1l-.34,0"/></g></svg>