<?xml version="1.0" ?><svg viewBox="0 0 63 63" xmlns="http://www.w3.org/2000/svg" xmlns:xlink="http://www.w3.org/1999/xlink"><defs><style>.cls-1,.cls-7{fill:#fff;}.cls-1,.cls-2,.cls-5,.cls-6,.cls-8{stroke-linecap:round;}.cls-1,.cls-2,.cls-3,.cls-4,.cls-5,.cls-6,.cls-8{stroke-miterlimit:10;}.cls-1,.cls-4,.cls-6{fill-rule:evenodd;}.cls-1{stroke:url(#linear-gradient);}.cls-2,.cls-3,.cls-5,.cls-6,.cls-8{fill:none;}.cls-2{stroke:url(#linear-gradient-2);}.cls-3,.cls-5{stroke:#e0e0e0;}.cls-4{fill:url(#linear-gradient-3);stroke:url(#linear-gradient-4);}.cls-6{stroke:url(#linear-gradient-5);}.cls-8{stroke:url(#linear-gradient-6);}</style><linearGradient gradientUnits="userSpaceOnUse" id="linear-gradient" x1="20.95" x2="45.95" y1="32.55" y2="32.55"><stop offset="0" stop-color="#a900bf"/><stop offset="0.48" stop-color="#d661ad"/><stop offset="0.83" stop-color="#f3a3a1"/><stop offset="1" stop-color="#ffbc9c"/></linearGradient><linearGradient id="linear-gradient-2" x1="20.95" x2="21.95" xlink:href="#linear-gradient" y1="28.65" y2="28.65"/><linearGradient id="linear-gradient-3" x1="17.93" x2="39.95" xlink:href="#linear-gradient" y1="34.83" y2="34.83"/><linearGradient id="linear-gradient-4" x1="17.43" x2="40.45" xlink:href="#linear-gradient" y1="34.83" y2="34.83"/><linearGradient id="linear-gradient-5" x1="37.95" x2="43.45" xlink:href="#linear-gradient" y1="21.9" y2="21.9"/><linearGradient id="linear-gradient-6" x1="20.95" x2="21.95" xlink:href="#linear-gradient" y1="42.65" y2="42.65"/></defs><title/><g data-name="Layer 4" id="Layer_4"><path class="cls-1" d="M21.45,26.05v-7a3,3,0,0,1,3-3h14l7,8v22a3,3,0,0,1-3,3h-18a3,3,0,0,1-3-3v-1"/><line class="cls-2" x1="21.45" x2="21.45" y1="29.05" y2="28.25"/><path class="cls-3" d="M18.45,37.05v2a1,1,0,0,0,1,1h19a1,1,0,0,0,1-1v-1"/><path class="cls-4" d="M39.19,39.12H18.69a.81.81,0,0,1-.76-.86V31.4a.81.81,0,0,1,.76-.85h20.5a.81.81,0,0,1,.76.85v6.86A.81.81,0,0,1,39.19,39.12Z"/><path class="cls-5" d="M38.45,23.51v.31a1.28,1.28,0,0,0,1.28,1.3l2.87,0a.26.26,0,0,0,.26-.25v-.43"/><path class="cls-6" d="M38.45,19.33v3.86a1.28,1.28,0,0,0,1.29,1.28H43"/><path class="cls-7" d="M23.26,35.77V33.59a1.53,1.53,0,0,1,.49-1.26A2,2,0,0,1,25,31.92a2.15,2.15,0,0,1,1.32.38,1.18,1.18,0,0,1,.5,1,.4.4,0,0,1-.1.32.47.47,0,0,1-.33.09c-.27,0-.42-.09-.42-.26,0-.54-.34-.8-.94-.8a.85.85,0,0,0-1,1v2.18a.87.87,0,0,0,1,1,1.34,1.34,0,0,0,.48-.08.54.54,0,0,0,.28-.23,1.65,1.65,0,0,0,.11-.26,1.78,1.78,0,0,0,.05-.28c0-.17.15-.26.42-.26a.57.57,0,0,1,.33.08.46.46,0,0,1,.1.33,1.22,1.22,0,0,1-.51,1,2.07,2.07,0,0,1-1.32.39,2,2,0,0,1-1.28-.4A1.58,1.58,0,0,1,23.26,35.77Z"/><path class="cls-7" d="M27.34,36.57a.43.43,0,0,1,.12-.28.3.3,0,0,1,.25-.14.37.37,0,0,1,.21.09,2.52,2.52,0,0,1,.25.21,1.42,1.42,0,0,0,.36.21,1.59,1.59,0,0,0,.55.09,1.24,1.24,0,0,0,.73-.2.7.7,0,0,0,.28-.6.77.77,0,0,0-.27-.6,2,2,0,0,0-.65-.38l-.76-.31a1.6,1.6,0,0,1-.65-.5,1.27,1.27,0,0,1-.27-.83,1.34,1.34,0,0,1,.16-.68,1.08,1.08,0,0,1,.45-.45,2.07,2.07,0,0,1,.58-.23,2.84,2.84,0,0,1,.66-.07l.45,0a3.89,3.89,0,0,1,.47.09,1.21,1.21,0,0,1,.38.17.31.31,0,0,1,.15.25.55.55,0,0,1-.09.29.31.31,0,0,1-.26.14.67.67,0,0,1-.22-.07,2.18,2.18,0,0,0-.36-.15,2,2,0,0,0-.52-.07,1.38,1.38,0,0,0-.73.17.57.57,0,0,0-.27.52.55.55,0,0,0,.14.39,1.29,1.29,0,0,0,.37.26l.51.21c.19.07.37.15.56.24a2.8,2.8,0,0,1,.5.31,1.25,1.25,0,0,1,.37.49,1.58,1.58,0,0,1,.15.71,1.43,1.43,0,0,1-.5,1.18,2.07,2.07,0,0,1-1.33.41,2.54,2.54,0,0,1-1.25-.29C27.52,37,27.34,36.78,27.34,36.57Z"/><path class="cls-7" d="M31.44,36.57a.47.47,0,0,1,.11-.28.31.31,0,0,1,.26-.14.37.37,0,0,1,.21.09c.08.07.16.13.24.21a1.34,1.34,0,0,0,.37.21,1.55,1.55,0,0,0,.55.09,1.26,1.26,0,0,0,.73-.2.72.72,0,0,0,.27-.6.79.79,0,0,0-.26-.6,2,2,0,0,0-.65-.38l-.77-.31a1.75,1.75,0,0,1-.65-.5,1.27,1.27,0,0,1-.27-.83,1.34,1.34,0,0,1,.17-.68,1.06,1.06,0,0,1,.44-.45,2.13,2.13,0,0,1,.59-.23,2.76,2.76,0,0,1,.65-.07l.45,0a3.55,3.55,0,0,1,.47.09,1.28,1.28,0,0,1,.39.17.31.31,0,0,1,.15.25.48.48,0,0,1-.1.29.3.3,0,0,1-.25.14.61.61,0,0,1-.22-.07,2.18,2.18,0,0,0-.36-.15,2.13,2.13,0,0,0-.53-.07,1.41,1.41,0,0,0-.73.17.57.57,0,0,0-.27.52.56.56,0,0,0,.15.39,1.16,1.16,0,0,0,.37.26l.51.21c.18.07.37.15.55.24a2.89,2.89,0,0,1,.51.31,1.35,1.35,0,0,1,.37.49,1.73,1.73,0,0,1,.14.71,1.41,1.41,0,0,1-.5,1.18,2,2,0,0,1-1.32.41A2.54,2.54,0,0,1,32,37.17C31.61,37,31.44,36.78,31.44,36.57Z"/><line class="cls-8" x1="21.45" x2="21.45" y1="43.05" y2="42.25"/><path class="cls-5" d="M43.48,43v2.93a1,1,0,0,1-1,1l-.34,0"/></g></svg>