<?xml version="1.0" ?><svg viewBox="0 0 63 63" xmlns="http://www.w3.org/2000/svg" xmlns:xlink="http://www.w3.org/1999/xlink"><defs><style>.cls-1,.cls-7{fill:#fff;}.cls-1,.cls-2,.cls-5,.cls-6,.cls-8{stroke-linecap:round;}.cls-1,.cls-2,.cls-3,.cls-4,.cls-5,.cls-6,.cls-8{stroke-miterlimit:10;}.cls-1,.cls-4,.cls-6{fill-rule:evenodd;}.cls-1{stroke:url(#linear-gradient);}.cls-2,.cls-3,.cls-5,.cls-6,.cls-8{fill:none;}.cls-2{stroke:url(#linear-gradient-2);}.cls-3,.cls-5{stroke:#e0e0e0;}.cls-4{fill:url(#linear-gradient-3);stroke:url(#linear-gradient-4);}.cls-6{stroke:url(#linear-gradient-5);}.cls-8{stroke:url(#linear-gradient-6);}</style><linearGradient gradientUnits="userSpaceOnUse" id="linear-gradient" x1="20.45" x2="45.45" y1="32.05" y2="32.05"><stop offset="0" stop-color="#a900bf"/><stop offset="0.48" stop-color="#d661ad"/><stop offset="0.83" stop-color="#f3a3a1"/><stop offset="1" stop-color="#ffbc9c"/></linearGradient><linearGradient id="linear-gradient-2" x1="20.45" x2="21.45" xlink:href="#linear-gradient" y1="28.15" y2="28.15"/><linearGradient id="linear-gradient-3" x1="17.56" x2="39.58" xlink:href="#linear-gradient" y1="34.33" y2="34.33"/><linearGradient id="linear-gradient-4" x1="17.06" x2="40.08" xlink:href="#linear-gradient" y1="34.33" y2="34.33"/><linearGradient id="linear-gradient-5" x1="37.45" x2="42.95" xlink:href="#linear-gradient" y1="21.4" y2="21.4"/><linearGradient id="linear-gradient-6" x1="20.45" x2="21.45" xlink:href="#linear-gradient" y1="42.15" y2="42.15"/></defs><title/><g data-name="Layer 60" id="Layer_60"><path class="cls-1" d="M21,25.55v-7a3,3,0,0,1,3-3H38l7,8v22a3,3,0,0,1-3,3H24a3,3,0,0,1-3-3v-1"/><line class="cls-2" x1="20.95" x2="20.95" y1="28.55" y2="27.75"/><path class="cls-3" d="M18,36.55v2a1,1,0,0,0,1,1H38a1,1,0,0,0,1-1v-1"/><path class="cls-4" d="M38.83,38.62H18.32a.81.81,0,0,1-.76-.86V30.9a.81.81,0,0,1,.76-.85H38.83a.81.81,0,0,1,.75.85v6.86A.81.81,0,0,1,38.83,38.62Z"/><path class="cls-5" d="M38,23v.31a1.28,1.28,0,0,0,1.28,1.3l2.87,0a.26.26,0,0,0,.26-.25V24"/><path class="cls-6" d="M38,18.83v3.86A1.28,1.28,0,0,0,39.24,24h3.21"/><path class="cls-7" d="M23,36.58v-5a.2.2,0,0,1,.11-.18.45.45,0,0,1,.26-.08h1.42a2,2,0,0,1,1.31.41A1.53,1.53,0,0,1,26.59,33v2.14a1.53,1.53,0,0,1-.49,1.26,2,2,0,0,1-1.31.41H23.37a.45.45,0,0,1-.26-.08A.2.2,0,0,1,23,36.58Zm.85-.45h.94a.85.85,0,0,0,.95-1V33a.85.85,0,0,0-.95-1h-.94Z"/><path class="cls-7" d="M27.58,36.58v-5a.22.22,0,0,1,.11-.18.46.46,0,0,1,.27-.08h1.41a2,2,0,0,1,1.31.41A1.53,1.53,0,0,1,31.17,33v2.14a1.53,1.53,0,0,1-.49,1.26,2,2,0,0,1-1.31.41H28a.46.46,0,0,1-.27-.08A.22.22,0,0,1,27.58,36.58Zm.85-.45h.94a.85.85,0,0,0,1-1V33a.85.85,0,0,0-1-1h-.94Z"/><path class="cls-7" d="M32.17,36.58v-5a.2.2,0,0,1,.12-.19.68.68,0,0,1,.6,0,.2.2,0,0,1,.12.19v4.51h2.08a.21.21,0,0,1,.19.11.41.41,0,0,1,.07.25.4.4,0,0,1-.07.24.21.21,0,0,1-.19.11H32.54a.53.53,0,0,1-.26-.07A.21.21,0,0,1,32.17,36.58Z"/><line class="cls-8" x1="20.95" x2="20.95" y1="42.55" y2="41.75"/><path class="cls-5" d="M43,42.48v2.93a1,1,0,0,1-1,1l-.34,0"/></g></svg>