<?xml version="1.0" ?><svg viewBox="0 0 63 63" xmlns="http://www.w3.org/2000/svg" xmlns:xlink="http://www.w3.org/1999/xlink"><defs><style>.cls-1,.cls-7{fill:#fff;}.cls-1,.cls-2,.cls-5,.cls-6,.cls-8{stroke-linecap:round;}.cls-1,.cls-2,.cls-3,.cls-4,.cls-5,.cls-6,.cls-8{stroke-miterlimit:10;}.cls-1,.cls-4,.cls-6{fill-rule:evenodd;}.cls-1{stroke:url(#linear-gradient);}.cls-2,.cls-3,.cls-5,.cls-6,.cls-8{fill:none;}.cls-2{stroke:url(#linear-gradient-2);}.cls-3,.cls-5{stroke:#e0e0e0;}.cls-4{fill:url(#linear-gradient-3);stroke:url(#linear-gradient-4);}.cls-6{stroke:url(#linear-gradient-5);}.cls-8{stroke:url(#linear-gradient-6);}</style><linearGradient gradientUnits="userSpaceOnUse" id="linear-gradient" x1="20.45" x2="45.45" y1="32.05" y2="32.05"><stop offset="0" stop-color="#a900bf"/><stop offset="0.48" stop-color="#d661ad"/><stop offset="0.83" stop-color="#f3a3a1"/><stop offset="1" stop-color="#ffbc9c"/></linearGradient><linearGradient id="linear-gradient-2" x1="20.45" x2="21.45" xlink:href="#linear-gradient" y1="28.15" y2="28.15"/><linearGradient id="linear-gradient-3" x1="17.43" x2="39.45" xlink:href="#linear-gradient" y1="34.33" y2="34.33"/><linearGradient id="linear-gradient-4" x1="16.93" x2="39.95" xlink:href="#linear-gradient" y1="34.33" y2="34.33"/><linearGradient id="linear-gradient-5" x1="37.45" x2="42.95" xlink:href="#linear-gradient" y1="21.4" y2="21.4"/><linearGradient id="linear-gradient-6" x1="20.45" x2="21.45" xlink:href="#linear-gradient" y1="42.15" y2="42.15"/></defs><title/><g data-name="Layer 32" id="Layer_32"><path class="cls-1" d="M21,25.55v-7a3,3,0,0,1,3-3H38l7,8v22a3,3,0,0,1-3,3H24a3,3,0,0,1-3-3v-1"/><line class="cls-2" x1="20.95" x2="20.95" y1="28.55" y2="27.75"/><path class="cls-3" d="M18,36.55v2a1,1,0,0,0,1,1H38a1,1,0,0,0,1-1v-1"/><path class="cls-4" d="M38.69,38.62H18.19a.81.81,0,0,1-.76-.86V30.9a.81.81,0,0,1,.76-.85h20.5a.81.81,0,0,1,.76.85v6.86A.81.81,0,0,1,38.69,38.62Z"/><path class="cls-5" d="M38,23v.31a1.28,1.28,0,0,0,1.28,1.3l2.87,0a.26.26,0,0,0,.26-.25V24"/><path class="cls-6" d="M38,18.83v3.86A1.28,1.28,0,0,0,39.24,24h3.21"/><path class="cls-7" d="M21.21,36.43v-5a.22.22,0,0,1,.11-.18.46.46,0,0,1,.27-.08H23a2,2,0,0,1,1.31.41,1.53,1.53,0,0,1,.49,1.26V35a1.53,1.53,0,0,1-.49,1.26,2,2,0,0,1-1.31.41H21.59a.46.46,0,0,1-.27-.08A.22.22,0,0,1,21.21,36.43Zm.85-.45H23a.85.85,0,0,0,1-1V32.88a.85.85,0,0,0-1-1h-.94Z"/><path class="cls-7" d="M25.38,31.54a.27.27,0,0,1,.17-.23.65.65,0,0,1,.36-.1c.16,0,.26.06.29.17l1.31,4.27L28.23,33q.06-.24.42-.24c.23,0,.36.08.41.24l.72,2.68,1.31-4.28c0-.1.13-.16.29-.16a.65.65,0,0,1,.36.1c.11.06.17.13.17.22s0,.06,0,.07l-1.58,4.86a.39.39,0,0,1-.2.2.77.77,0,0,1-.34.07.72.72,0,0,1-.33-.07.29.29,0,0,1-.19-.2l-.61-2.26L28,36.46a.29.29,0,0,1-.19.2.74.74,0,0,1-.34.07.77.77,0,0,1-.34-.07.34.34,0,0,1-.19-.2l-1.59-4.85A.15.15,0,0,1,25.38,31.54Z"/><path class="cls-7" d="M32.27,35.86a.43.43,0,0,1,.12-.28.3.3,0,0,1,.25-.14.37.37,0,0,1,.21.09l.25.21a1.42,1.42,0,0,0,.36.21A1.63,1.63,0,0,0,34,36a1.17,1.17,0,0,0,.73-.2.67.67,0,0,0,.28-.59.78.78,0,0,0-.27-.61,1.89,1.89,0,0,0-.65-.38L33.34,34a1.67,1.67,0,0,1-.65-.5,1.25,1.25,0,0,1-.27-.82,1.35,1.35,0,0,1,.16-.69,1.08,1.08,0,0,1,.45-.45,2.07,2.07,0,0,1,.58-.23,2.84,2.84,0,0,1,.66-.07l.45,0a2.57,2.57,0,0,1,.47.08,1.21,1.21,0,0,1,.38.17.33.33,0,0,1,.15.25.55.55,0,0,1-.09.29.31.31,0,0,1-.26.14.53.53,0,0,1-.22-.07,1.59,1.59,0,0,0-.36-.14,1.67,1.67,0,0,0-.52-.08,1.38,1.38,0,0,0-.73.17.58.58,0,0,0-.27.52.55.55,0,0,0,.14.39,1.31,1.31,0,0,0,.37.27c.15.07.32.13.51.2s.37.15.56.24a2.8,2.8,0,0,1,.5.31,1.25,1.25,0,0,1,.37.49,1.58,1.58,0,0,1,.15.71,1.43,1.43,0,0,1-.5,1.18,2.07,2.07,0,0,1-1.33.41,2.54,2.54,0,0,1-1.25-.29C32.45,36.27,32.27,36.07,32.27,35.86Z"/><line class="cls-8" x1="20.95" x2="20.95" y1="42.55" y2="41.75"/><path class="cls-5" d="M43,42.48v2.93a1,1,0,0,1-1,1l-.34,0"/></g></svg>