<?xml version="1.0" ?><svg viewBox="0 0 63 63" xmlns="http://www.w3.org/2000/svg" xmlns:xlink="http://www.w3.org/1999/xlink"><defs><style>.cls-1,.cls-7{fill:#fff;}.cls-1,.cls-2,.cls-5,.cls-6,.cls-8{stroke-linecap:round;}.cls-1,.cls-2,.cls-3,.cls-4,.cls-5,.cls-6,.cls-8{stroke-miterlimit:10;}.cls-1,.cls-4,.cls-6{fill-rule:evenodd;}.cls-1{stroke:url(#linear-gradient);}.cls-2,.cls-3,.cls-5,.cls-6,.cls-8{fill:none;}.cls-2{stroke:url(#linear-gradient-2);}.cls-3,.cls-5{stroke:#e0e0e0;}.cls-4{fill:url(#linear-gradient-3);stroke:url(#linear-gradient-4);}.cls-6{stroke:url(#linear-gradient-5);}.cls-8{stroke:url(#linear-gradient-6);}</style><linearGradient gradientUnits="userSpaceOnUse" id="linear-gradient" x1="20.45" x2="45.45" y1="32.05" y2="32.05"><stop offset="0" stop-color="#a900bf"/><stop offset="0.48" stop-color="#d661ad"/><stop offset="0.83" stop-color="#f3a3a1"/><stop offset="1" stop-color="#ffbc9c"/></linearGradient><linearGradient id="linear-gradient-2" x1="20.45" x2="21.45" xlink:href="#linear-gradient" y1="28.15" y2="28.15"/><linearGradient id="linear-gradient-3" x1="17.43" x2="39.45" xlink:href="#linear-gradient" y1="34.33" y2="34.33"/><linearGradient id="linear-gradient-4" x1="16.93" x2="39.95" xlink:href="#linear-gradient" y1="34.33" y2="34.33"/><linearGradient id="linear-gradient-5" x1="37.45" x2="42.95" xlink:href="#linear-gradient" y1="21.4" y2="21.4"/><linearGradient id="linear-gradient-6" x1="20.45" x2="21.45" xlink:href="#linear-gradient" y1="42.15" y2="42.15"/></defs><title/><g data-name="Layer 20" id="Layer_20"><path class="cls-1" d="M21,25.55v-7a3,3,0,0,1,3-3H38l7,8v22a3,3,0,0,1-3,3H24a3,3,0,0,1-3-3v-1"/><line class="cls-2" x1="20.95" x2="20.95" y1="28.55" y2="27.75"/><path class="cls-3" d="M18,36.55v2a1,1,0,0,0,1,1H38a1,1,0,0,0,1-1v-1"/><path class="cls-4" d="M38.69,38.62H18.19a.81.81,0,0,1-.76-.86V30.9a.81.81,0,0,1,.76-.85h20.5a.81.81,0,0,1,.76.85v6.86A.81.81,0,0,1,38.69,38.62Z"/><path class="cls-5" d="M38,23v.31a1.28,1.28,0,0,0,1.28,1.3l2.87,0a.26.26,0,0,0,.26-.25V24"/><path class="cls-6" d="M38,18.83v3.86A1.28,1.28,0,0,0,39.24,24h3.21"/><path class="cls-7" d="M23.27,36.34v-5a.23.23,0,0,1,.11-.19.5.5,0,0,1,.27-.07H26.5a.21.21,0,0,1,.2.1.41.41,0,0,1,.08.24.45.45,0,0,1-.08.26.23.23,0,0,1-.2.1H24.12v1.72h1.23a.24.24,0,0,1,.2.09.31.31,0,0,1,.08.23.31.31,0,0,1-.07.21.24.24,0,0,1-.21.1H24.12V35.9H26.5a.24.24,0,0,1,.2.11.41.41,0,0,1,.08.25.41.41,0,0,1-.08.24.21.21,0,0,1-.2.1H23.65a.5.5,0,0,1-.27-.07A.21.21,0,0,1,23.27,36.34Z"/><path class="cls-7" d="M27.46,36.34v-5a.23.23,0,0,1,.09-.18.35.35,0,0,1,.23-.07h1.56a1.91,1.91,0,0,1,1.28.4,1.52,1.52,0,0,1,.47,1.25v.06a1.51,1.51,0,0,1-.49,1.25,2,2,0,0,1-1.31.4h-1v1.85a.21.21,0,0,1-.12.19.56.56,0,0,1-.3.07.6.6,0,0,1-.3-.07A.21.21,0,0,1,27.46,36.34Zm.84-2.48h1a1,1,0,0,0,.71-.24,1,1,0,0,0,.25-.73V32.8a1,1,0,0,0-.25-.73,1,1,0,0,0-.71-.24h-1Z"/><path class="cls-7" d="M31.52,35.78a.47.47,0,0,1,.11-.28.33.33,0,0,1,.26-.15.4.4,0,0,1,.21.1l.24.21a1.13,1.13,0,0,0,.37.2,1.33,1.33,0,0,0,.54.1,1.27,1.27,0,0,0,.74-.2.72.72,0,0,0,.27-.6.79.79,0,0,0-.26-.6,2,2,0,0,0-.65-.38l-.77-.31a1.75,1.75,0,0,1-.65-.5,1.27,1.27,0,0,1-.27-.83,1.41,1.41,0,0,1,.17-.69,1.1,1.1,0,0,1,.44-.44,2.13,2.13,0,0,1,.59-.23,2.7,2.7,0,0,1,.65-.07l.45,0a3.55,3.55,0,0,1,.47.09,1,1,0,0,1,.38.17.3.3,0,0,1,.16.25.53.53,0,0,1-.1.28.29.29,0,0,1-.25.15A.61.61,0,0,1,34.4,32a2.18,2.18,0,0,0-.36-.15,1.74,1.74,0,0,0-.53-.07,1.41,1.41,0,0,0-.73.17.57.57,0,0,0-.27.52.52.52,0,0,0,.15.38,1,1,0,0,0,.37.27l.51.21c.18.07.37.15.55.24a2.8,2.8,0,0,1,.5.31,1.31,1.31,0,0,1,.38.48,1.81,1.81,0,0,1,.14.72,1.43,1.43,0,0,1-.5,1.18,2,2,0,0,1-1.32.4A2.54,2.54,0,0,1,32,36.38C31.69,36.18,31.52,36,31.52,35.78Z"/><line class="cls-8" x1="20.95" x2="20.95" y1="42.55" y2="41.75"/><path class="cls-5" d="M43,42.48v2.93a1,1,0,0,1-1,1l-.34,0"/></g></svg>