<?xml version="1.0" ?><svg viewBox="0 0 63 63" xmlns="http://www.w3.org/2000/svg" xmlns:xlink="http://www.w3.org/1999/xlink"><defs><style>.cls-1,.cls-7{fill:#fff;}.cls-1,.cls-2,.cls-5,.cls-6,.cls-8{stroke-linecap:round;}.cls-1,.cls-2,.cls-3,.cls-4,.cls-5,.cls-6,.cls-8{stroke-miterlimit:10;}.cls-1,.cls-4,.cls-6{fill-rule:evenodd;}.cls-1{stroke:url(#linear-gradient);}.cls-2,.cls-3,.cls-5,.cls-6,.cls-8{fill:none;}.cls-2{stroke:url(#linear-gradient-2);}.cls-3,.cls-5{stroke:#e0e0e0;}.cls-4{fill:url(#linear-gradient-3);stroke:url(#linear-gradient-4);}.cls-6{stroke:url(#linear-gradient-5);}.cls-8{stroke:url(#linear-gradient-6);}</style><linearGradient gradientUnits="userSpaceOnUse" id="linear-gradient" x1="20.45" x2="45.45" y1="32.05" y2="32.05"><stop offset="0" stop-color="#a900bf"/><stop offset="0.48" stop-color="#d661ad"/><stop offset="0.83" stop-color="#f3a3a1"/><stop offset="1" stop-color="#ffbc9c"/></linearGradient><linearGradient id="linear-gradient-2" x1="20.45" x2="21.45" xlink:href="#linear-gradient" y1="28.15" y2="28.15"/><linearGradient id="linear-gradient-3" x1="17.43" x2="39.45" xlink:href="#linear-gradient" y1="34.33" y2="34.33"/><linearGradient id="linear-gradient-4" x1="16.93" x2="39.95" xlink:href="#linear-gradient" y1="34.33" y2="34.33"/><linearGradient id="linear-gradient-5" x1="37.45" x2="42.95" xlink:href="#linear-gradient" y1="21.4" y2="21.4"/><linearGradient id="linear-gradient-6" x1="20.45" x2="21.45" xlink:href="#linear-gradient" y1="42.15" y2="42.15"/></defs><title/><g data-name="Layer 34" id="Layer_34"><path class="cls-1" d="M21,25.55v-7a3,3,0,0,1,3-3H38l7,8v22a3,3,0,0,1-3,3H24a3,3,0,0,1-3-3v-1"/><line class="cls-2" x1="20.95" x2="20.95" y1="28.55" y2="27.75"/><path class="cls-3" d="M18,36.55v2a1,1,0,0,0,1,1H38a1,1,0,0,0,1-1v-1"/><path class="cls-4" d="M38.69,38.62H18.19a.81.81,0,0,1-.76-.86V30.9a.81.81,0,0,1,.76-.85h20.5a.81.81,0,0,1,.76.85v6.86A.81.81,0,0,1,38.69,38.62Z"/><path class="cls-5" d="M38,23v.31a1.28,1.28,0,0,0,1.28,1.3l2.87,0a.26.26,0,0,0,.26-.25V24"/><path class="cls-6" d="M38,18.83v3.86A1.28,1.28,0,0,0,39.24,24h3.21"/><path class="cls-7" d="M19.78,36.26v-4a.18.18,0,0,1,.09-.16.36.36,0,0,1,.21,0H22.4a.19.19,0,0,1,.17.08.34.34,0,0,1,.06.2.32.32,0,0,1-.06.2.2.2,0,0,1-.17.09H20.47V34h1a.21.21,0,0,1,.17.08.3.3,0,0,1,0,.36.21.21,0,0,1-.17.07h-1v1.41H22.4a.19.19,0,0,1,.17.08.37.37,0,0,1,.06.21.31.31,0,0,1-.06.19.2.2,0,0,1-.17.09H20.08a.37.37,0,0,1-.21-.06A.18.18,0,0,1,19.78,36.26Z"/><path class="cls-7" d="M23.18,36.26v-4a.17.17,0,0,1,.07-.14.21.21,0,0,1,.16-.06h1.23c1,0,1.5.41,1.5,1.24a1.12,1.12,0,0,1-.92,1.2l.91,1.6a.17.17,0,0,1,0,.1.28.28,0,0,1-.13.22.48.48,0,0,1-.29.11.32.32,0,0,1-.27-.19l-.95-1.75h-.66v1.7a.17.17,0,0,1-.1.16.43.43,0,0,1-.24.06.48.48,0,0,1-.24-.06A.17.17,0,0,1,23.18,36.26Zm.68-2.21h.78c.54,0,.81-.24.81-.73s-.27-.72-.81-.72h-.78Z"/><path class="cls-7" d="M26.82,36.26v-4a.2.2,0,0,1,.06-.14.25.25,0,0,1,.17-.06h1.23c1,0,1.5.41,1.5,1.24a1.21,1.21,0,0,1-.25.81,1.25,1.25,0,0,1-.67.39l.91,1.6a.17.17,0,0,1,0,.1.29.29,0,0,1-.14.22.43.43,0,0,1-.28.11.32.32,0,0,1-.27-.19l-.95-1.75H27.5v1.7a.17.17,0,0,1-.1.16.51.51,0,0,1-.48,0A.17.17,0,0,1,26.82,36.26Zm.68-2.21h.78c.54,0,.81-.24.81-.73s-.27-.72-.81-.72H27.5Z"/><path class="cls-7" d="M30.41,35.16V33.38a1.26,1.26,0,0,1,.4-1A1.58,1.58,0,0,1,31.87,32a1.62,1.62,0,0,1,1.06.32,1.26,1.26,0,0,1,.4,1v1.78a1.26,1.26,0,0,1-.4,1,1.67,1.67,0,0,1-1.06.32,1.63,1.63,0,0,1-1.06-.32A1.26,1.26,0,0,1,30.41,35.16Zm.69,0a.68.68,0,0,0,.77.78.69.69,0,0,0,.77-.78V33.38a.69.69,0,0,0-.77-.78.68.68,0,0,0-.77.78Z"/><path class="cls-7" d="M34.14,36.26v-4a.2.2,0,0,1,.06-.14.25.25,0,0,1,.17-.06H35.6c1,0,1.5.41,1.5,1.24a1.26,1.26,0,0,1-.25.81,1.25,1.25,0,0,1-.67.39l.91,1.6a.17.17,0,0,1,0,.1.29.29,0,0,1-.14.22.45.45,0,0,1-.28.11.32.32,0,0,1-.27-.19l-1-1.75h-.66v1.7a.17.17,0,0,1-.1.16.49.49,0,0,1-.25.06.41.41,0,0,1-.23-.06A.17.17,0,0,1,34.14,36.26Zm.68-2.21h.78c.54,0,.81-.24.81-.73s-.27-.72-.81-.72h-.78Z"/><line class="cls-8" x1="20.95" x2="20.95" y1="42.55" y2="41.75"/><path class="cls-5" d="M43,42.48v2.93a1,1,0,0,1-1,1l-.34,0"/></g></svg>