<?xml version="1.0" ?><svg viewBox="0 0 63 63" xmlns="http://www.w3.org/2000/svg" xmlns:xlink="http://www.w3.org/1999/xlink"><defs><style>.cls-1,.cls-7{fill:#fff;}.cls-1,.cls-2,.cls-5,.cls-6,.cls-8{stroke-linecap:round;}.cls-1,.cls-2,.cls-3,.cls-4,.cls-5,.cls-6,.cls-8{stroke-miterlimit:10;}.cls-1,.cls-4,.cls-6{fill-rule:evenodd;}.cls-1{stroke:url(#linear-gradient);}.cls-2,.cls-3,.cls-5,.cls-6,.cls-8{fill:none;}.cls-2{stroke:url(#linear-gradient-2);}.cls-3,.cls-5{stroke:#e0e0e0;}.cls-4{fill:url(#linear-gradient-3);stroke:url(#linear-gradient-4);}.cls-6{stroke:url(#linear-gradient-5);}.cls-8{stroke:url(#linear-gradient-6);}</style><linearGradient gradientUnits="userSpaceOnUse" id="linear-gradient" x1="19.45" x2="44.45" y1="31.05" y2="31.05"><stop offset="0" stop-color="#a900bf"/><stop offset="0.48" stop-color="#d661ad"/><stop offset="0.83" stop-color="#f3a3a1"/><stop offset="1" stop-color="#ffbc9c"/></linearGradient><linearGradient id="linear-gradient-2" x1="19.45" x2="20.45" xlink:href="#linear-gradient" y1="27.15" y2="27.15"/><linearGradient id="linear-gradient-3" x1="16.43" x2="38.45" xlink:href="#linear-gradient" y1="33.33" y2="33.33"/><linearGradient id="linear-gradient-4" x1="15.93" x2="38.95" xlink:href="#linear-gradient" y1="33.33" y2="33.33"/><linearGradient id="linear-gradient-5" x1="36.45" x2="41.95" xlink:href="#linear-gradient" y1="20.4" y2="20.4"/><linearGradient id="linear-gradient-6" x1="19.45" x2="20.45" xlink:href="#linear-gradient" y1="41.15" y2="41.15"/></defs><title/><g data-name="Layer 6" id="Layer_6"><path class="cls-1" d="M20,24.55v-7a3,3,0,0,1,3-3H37l7,8v22a3,3,0,0,1-3,3H23a3,3,0,0,1-3-3v-1"/><line class="cls-2" x1="19.95" x2="19.95" y1="27.55" y2="26.75"/><path class="cls-3" d="M17,35.55v2a1,1,0,0,0,1,1H37a1,1,0,0,0,1-1v-1"/><path class="cls-4" d="M37.69,37.62H17.19a.81.81,0,0,1-.76-.86V29.9a.81.81,0,0,1,.76-.85h20.5a.81.81,0,0,1,.76.85v6.86A.81.81,0,0,1,37.69,37.62Z"/><path class="cls-5" d="M37,22v.31a1.28,1.28,0,0,0,1.28,1.3l2.87,0a.26.26,0,0,0,.26-.25V23"/><path class="cls-6" d="M37,17.83v3.86A1.28,1.28,0,0,0,38.24,23h3.21"/><path class="cls-7" d="M23.81,34.18a.35.35,0,0,1,.11-.3.5.5,0,0,1,.33-.09c.27,0,.41.09.41.27a.86.86,0,0,0,.25.6.93.93,0,0,0,.7.24.85.85,0,0,0,1-1V30.79h-.94a.22.22,0,0,1-.2-.1.45.45,0,0,1-.08-.26.4.4,0,0,1,.07-.24.24.24,0,0,1,.21-.1H27a.44.44,0,0,1,.26.07.21.21,0,0,1,.11.19v3.59a1.56,1.56,0,0,1-.48,1.26,2,2,0,0,1-1.29.41,2.06,2.06,0,0,1-1.32-.4A1.23,1.23,0,0,1,23.81,34.18Z"/><path class="cls-7" d="M28.15,34.74a.5.5,0,0,1,.11-.29.34.34,0,0,1,.26-.14.33.33,0,0,1,.21.1l.24.2a1,1,0,0,0,.37.21,1.35,1.35,0,0,0,.55.1,1.19,1.19,0,0,0,.73-.21.68.68,0,0,0,.27-.59.79.79,0,0,0-.26-.6,2.2,2.2,0,0,0-.65-.39,8.26,8.26,0,0,1-.77-.31,1.72,1.72,0,0,1-.65-.49,1.27,1.27,0,0,1-.27-.83,1.41,1.41,0,0,1,.17-.69,1.19,1.19,0,0,1,.44-.45,2.1,2.1,0,0,1,.59-.22,2.69,2.69,0,0,1,.65-.08,3.4,3.4,0,0,1,.45,0,3.55,3.55,0,0,1,.47.09,1.07,1.07,0,0,1,.39.17.3.3,0,0,1,.15.25.46.46,0,0,1-.1.28.28.28,0,0,1-.25.14A.46.46,0,0,1,31,31l-.36-.14a1.74,1.74,0,0,0-.53-.07,1.32,1.32,0,0,0-.73.17.6.6,0,0,0-.12.9,1,1,0,0,0,.37.27l.51.21a4.28,4.28,0,0,1,.55.23,2.93,2.93,0,0,1,.51.32,1.31,1.31,0,0,1,.37.48,1.81,1.81,0,0,1,.14.72,1.45,1.45,0,0,1-.5,1.18,2,2,0,0,1-1.32.4,2.43,2.43,0,0,1-1.25-.29C28.32,35.14,28.15,34.94,28.15,34.74Z"/><line class="cls-8" x1="19.95" x2="19.95" y1="41.55" y2="40.75"/><path class="cls-5" d="M42,41.48v2.93a1,1,0,0,1-1,1l-.34,0"/></g></svg>