<?xml version="1.0" ?><svg viewBox="0 0 63 63" xmlns="http://www.w3.org/2000/svg" xmlns:xlink="http://www.w3.org/1999/xlink"><defs><style>.cls-1,.cls-8{fill:#fff;}.cls-1,.cls-2,.cls-5,.cls-6,.cls-7{stroke-linecap:round;}.cls-1,.cls-2,.cls-3,.cls-4,.cls-5,.cls-6,.cls-7{stroke-miterlimit:10;}.cls-1,.cls-4,.cls-6{fill-rule:evenodd;}.cls-1{stroke:url(#linear-gradient);}.cls-2,.cls-3,.cls-5,.cls-6,.cls-7{fill:none;}.cls-2{stroke:url(#linear-gradient-2);}.cls-3,.cls-5{stroke:#e0e0e0;}.cls-4{fill:url(#linear-gradient-3);stroke:url(#linear-gradient-4);}.cls-6{stroke:url(#linear-gradient-5);}.cls-7{stroke:url(#linear-gradient-6);}</style><linearGradient gradientUnits="userSpaceOnUse" id="linear-gradient" x1="20.45" x2="45.45" y1="32.05" y2="32.05"><stop offset="0" stop-color="#a900bf"/><stop offset="0.48" stop-color="#d661ad"/><stop offset="0.83" stop-color="#f3a3a1"/><stop offset="1" stop-color="#ffbc9c"/></linearGradient><linearGradient id="linear-gradient-2" x1="20.45" x2="21.45" xlink:href="#linear-gradient" y1="28.15" y2="28.15"/><linearGradient id="linear-gradient-3" x1="17.56" x2="39.58" xlink:href="#linear-gradient" y1="34.33" y2="34.33"/><linearGradient id="linear-gradient-4" x1="17.06" x2="40.08" xlink:href="#linear-gradient" y1="34.33" y2="34.33"/><linearGradient id="linear-gradient-5" x1="37.45" x2="42.95" xlink:href="#linear-gradient" y1="21.4" y2="21.4"/><linearGradient id="linear-gradient-6" x1="20.45" x2="21.45" xlink:href="#linear-gradient" y1="42.15" y2="42.15"/></defs><title/><g data-name="Layer 80" id="Layer_80"><path class="cls-1" d="M21,25.55v-7a3,3,0,0,1,3-3H38l7,8v22a3,3,0,0,1-3,3H24a3,3,0,0,1-3-3v-1"/><line class="cls-2" x1="20.95" x2="20.95" y1="28.55" y2="27.75"/><path class="cls-3" d="M18,36.55v2a1,1,0,0,0,1,1H38a1,1,0,0,0,1-1v-1"/><path class="cls-4" d="M38.83,38.62H18.32a.81.81,0,0,1-.76-.86V30.9a.81.81,0,0,1,.76-.85H38.83a.81.81,0,0,1,.75.85v6.86A.81.81,0,0,1,38.83,38.62Z"/><path class="cls-5" d="M38,23v.31a1.28,1.28,0,0,0,1.28,1.3l2.87,0a.26.26,0,0,0,.26-.25V24"/><path class="cls-6" d="M38,18.83v3.86A1.28,1.28,0,0,0,39.24,24h3.21"/><line class="cls-7" x1="20.95" x2="20.95" y1="42.55" y2="41.75"/><path class="cls-5" d="M43,42.48v2.93a1,1,0,0,1-1,1l-.34,0"/><path class="cls-8" d="M23,36.7v-5a.22.22,0,0,1,.12-.19.78.78,0,0,1,.6,0,.22.22,0,0,1,.12.19v4.52h2.08a.2.2,0,0,1,.19.11.4.4,0,0,1,.07.24.41.41,0,0,1-.07.25.21.21,0,0,1-.19.1H23.33a.44.44,0,0,1-.26-.07A.2.2,0,0,1,23,36.7Z"/><path class="cls-8" d="M26.62,35.34V33.16a1.54,1.54,0,0,1,.49-1.27,2,2,0,0,1,1.3-.4,2,2,0,0,1,1.31.4,1.54,1.54,0,0,1,.49,1.27v2.18a1.53,1.53,0,0,1-.49,1.26,2,2,0,0,1-1.31.41,2,2,0,0,1-1.3-.41A1.53,1.53,0,0,1,26.62,35.34Zm.85,0a.84.84,0,0,0,.94,1,1,1,0,0,0,.71-.23,1,1,0,0,0,.24-.73V33.16a.85.85,0,0,0-.95-1,.85.85,0,0,0-.94,1Z"/><path class="cls-8" d="M31.15,35.34V33.16a1.54,1.54,0,0,1,.49-1.27,1.92,1.92,0,0,1,1.28-.4,2.16,2.16,0,0,1,1.31.38,1.19,1.19,0,0,1,.51,1,.34.34,0,0,1-.1.29.49.49,0,0,1-.32.09c-.28,0-.42-.09-.43-.26a.83.83,0,0,0-1-.81.85.85,0,0,0-.94,1v2.18a.84.84,0,0,0,.94,1,.86.86,0,0,0,1-1v-.61h-.81a.25.25,0,0,1-.2-.09.45.45,0,0,1-.07-.23.44.44,0,0,1,.07-.22.25.25,0,0,1,.2-.09h1.38a.24.24,0,0,1,.2.08.26.26,0,0,1,.08.19v1a1.53,1.53,0,0,1-.49,1.26,2,2,0,0,1-1.31.41,2,2,0,0,1-1.3-.41A1.53,1.53,0,0,1,31.15,35.34Z"/></g></svg>