<?xml version="1.0" ?><svg viewBox="0 0 63 63" xmlns="http://www.w3.org/2000/svg" xmlns:xlink="http://www.w3.org/1999/xlink"><defs><style>.cls-1,.cls-8{fill:#fff;}.cls-1,.cls-2,.cls-5,.cls-6,.cls-7{stroke-linecap:round;}.cls-1,.cls-2,.cls-3,.cls-4,.cls-5,.cls-6,.cls-7{stroke-miterlimit:10;}.cls-1,.cls-4,.cls-6{fill-rule:evenodd;}.cls-1{stroke:url(#linear-gradient);}.cls-2,.cls-3,.cls-5,.cls-6,.cls-7{fill:none;}.cls-2{stroke:url(#linear-gradient-2);}.cls-3,.cls-5{stroke:#e0e0e0;}.cls-4{fill:url(#linear-gradient-3);stroke:url(#linear-gradient-4);}.cls-6{stroke:url(#linear-gradient-5);}.cls-7{stroke:url(#linear-gradient-6);}</style><linearGradient gradientUnits="userSpaceOnUse" id="linear-gradient" x1="20.45" x2="45.45" y1="32.05" y2="32.05"><stop offset="0" stop-color="#a900bf"/><stop offset="0.48" stop-color="#d661ad"/><stop offset="0.83" stop-color="#f3a3a1"/><stop offset="1" stop-color="#ffbc9c"/></linearGradient><linearGradient id="linear-gradient-2" x1="20.45" x2="21.45" xlink:href="#linear-gradient" y1="28.15" y2="28.15"/><linearGradient id="linear-gradient-3" x1="17.56" x2="39.58" xlink:href="#linear-gradient" y1="34.33" y2="34.33"/><linearGradient id="linear-gradient-4" x1="17.06" x2="40.08" xlink:href="#linear-gradient" y1="34.33" y2="34.33"/><linearGradient id="linear-gradient-5" x1="37.45" x2="42.95" xlink:href="#linear-gradient" y1="21.4" y2="21.4"/><linearGradient id="linear-gradient-6" x1="20.45" x2="21.45" xlink:href="#linear-gradient" y1="42.15" y2="42.15"/></defs><title/><g data-name="Layer 74" id="Layer_74"><path class="cls-1" d="M21,25.55v-7a3,3,0,0,1,3-3H38l7,8v22a3,3,0,0,1-3,3H24a3,3,0,0,1-3-3v-1"/><line class="cls-2" x1="20.95" x2="20.95" y1="28.55" y2="27.75"/><path class="cls-3" d="M18,36.55v2a1,1,0,0,0,1,1H38a1,1,0,0,0,1-1v-1"/><path class="cls-4" d="M38.83,38.62H18.32a.81.81,0,0,1-.76-.86V30.9a.81.81,0,0,1,.76-.85H38.83a.81.81,0,0,1,.75.85v6.86A.81.81,0,0,1,38.83,38.62Z"/><path class="cls-5" d="M38,23v.31a1.28,1.28,0,0,0,1.28,1.3l2.87,0a.26.26,0,0,0,.26-.25V24"/><path class="cls-6" d="M38,18.83v3.86A1.28,1.28,0,0,0,39.24,24h3.21"/><line class="cls-7" x1="20.95" x2="20.95" y1="42.55" y2="41.75"/><path class="cls-5" d="M43,42.48v2.93a1,1,0,0,1-1,1l-.34,0"/><path class="cls-8" d="M22.33,36.78V32a.35.35,0,0,1,.12-.3.44.44,0,0,1,.3-.1.61.61,0,0,1,.38.1,1,1,0,0,1,.3.35l1.12,2,1.13-2a1.09,1.09,0,0,1,.29-.35.63.63,0,0,1,.38-.1.44.44,0,0,1,.3.1.35.35,0,0,1,.12.3v4.81a.23.23,0,0,1-.12.2.68.68,0,0,1-.6,0,.24.24,0,0,1-.13-.2V33.19l-1.07,1.86a.36.36,0,0,1-.31.18.32.32,0,0,1-.29-.18l-1.07-1.91v3.64a.22.22,0,0,1-.13.2.66.66,0,0,1-.3.07.65.65,0,0,1-.29-.07A.22.22,0,0,1,22.33,36.78Z"/><path class="cls-8" d="M27.32,35.52a.33.33,0,0,1,.05-.16l1.94-3.57a.38.38,0,0,1,.36-.22.55.55,0,0,1,.29.09.26.26,0,0,1,.14.22.24.24,0,0,1,0,.12l-1.65,3.08h1.18V34q0-.27.42-.27a.66.66,0,0,1,.3.07.22.22,0,0,1,.12.2v1h.4a.23.23,0,0,1,.21.11.45.45,0,0,1,.08.26.4.4,0,0,1-.09.25.27.27,0,0,1-.2.11h-.4v1a.21.21,0,0,1-.12.19.61.61,0,0,1-.3.08.56.56,0,0,1-.3-.08.21.21,0,0,1-.12-.19v-1h-2a.29.29,0,0,1-.21-.08A.26.26,0,0,1,27.32,35.52Z"/><path class="cls-8" d="M31.27,36.72a.15.15,0,0,1,0-.07l1.59-4.85c.06-.18.25-.27.56-.27s.51.08.58.25l1.59,4.85a.23.23,0,0,1,0,.07.28.28,0,0,1-.18.24.83.83,0,0,1-.4.11c-.17,0-.27-.06-.31-.17l-.33-1.07h-2l-.33,1.07a.27.27,0,0,1-.29.17.75.75,0,0,1-.36-.1C31.33,36.88,31.27,36.81,31.27,36.72Zm1.34-1.54H34.2l-.8-2.57Z"/></g></svg>