<?xml version="1.0" ?><svg viewBox="0 0 63 63" xmlns="http://www.w3.org/2000/svg" xmlns:xlink="http://www.w3.org/1999/xlink"><defs><style>.cls-1,.cls-7{fill:#fff;}.cls-1,.cls-2,.cls-3,.cls-4,.cls-5,.cls-6,.cls-8{stroke-miterlimit:10;}.cls-1,.cls-4,.cls-6{fill-rule:evenodd;}.cls-1{stroke:url(#linear-gradient);}.cls-2,.cls-3,.cls-5,.cls-6,.cls-8{fill:none;}.cls-2,.cls-5,.cls-6,.cls-8{stroke-linecap:round;}.cls-2{stroke:url(#linear-gradient-2);}.cls-3,.cls-5{stroke:#e0e0e0;}.cls-4{fill:url(#linear-gradient-3);stroke:url(#linear-gradient-4);}.cls-6{stroke:url(#linear-gradient-5);}.cls-8{stroke:url(#linear-gradient-6);}</style><linearGradient gradientUnits="userSpaceOnUse" id="linear-gradient" x1="20.45" x2="45.45" y1="32.05" y2="32.05"><stop offset="0" stop-color="#a900bf"/><stop offset="0.48" stop-color="#d661ad"/><stop offset="0.83" stop-color="#f3a3a1"/><stop offset="1" stop-color="#ffbc9c"/></linearGradient><linearGradient id="linear-gradient-2" x1="20.45" x2="21.45" xlink:href="#linear-gradient" y1="28.15" y2="28.15"/><linearGradient id="linear-gradient-3" x1="17.43" x2="39.45" xlink:href="#linear-gradient" y1="34.33" y2="34.33"/><linearGradient id="linear-gradient-4" x1="16.93" x2="39.95" xlink:href="#linear-gradient" y1="34.33" y2="34.33"/><linearGradient id="linear-gradient-5" x1="37.45" x2="42.95" xlink:href="#linear-gradient" y1="21.4" y2="21.4"/><linearGradient id="linear-gradient-6" x1="20.45" x2="21.45" xlink:href="#linear-gradient" y1="42.15" y2="42.15"/></defs><title/><g data-name="Layer 13" id="Layer_13"><path class="cls-1" d="M21,25.55v-7a3,3,0,0,1,3-3H38l7,8v22a3,3,0,0,1-3,3H24a3,3,0,0,1-3-3v-1"/><line class="cls-2" x1="20.95" x2="20.95" y1="28.55" y2="27.75"/><path class="cls-3" d="M18,36.55v2a1,1,0,0,0,1,1H38a1,1,0,0,0,1-1v-1"/><path class="cls-4" d="M38.69,38.62H18.19a.81.81,0,0,1-.76-.86V30.9a.81.81,0,0,1,.76-.85h20.5a.81.81,0,0,1,.76.85v6.86A.81.81,0,0,1,38.69,38.62Z"/><path class="cls-5" d="M38,23v.31a1.28,1.28,0,0,0,1.28,1.3l2.87,0a.26.26,0,0,0,.26-.25V24"/><path class="cls-6" d="M38,18.83v3.86A1.28,1.28,0,0,0,39.24,24h3.21"/><path class="cls-7" d="M22.29,36.63V31.82a.35.35,0,0,1,.12-.3.46.46,0,0,1,.31-.1.74.74,0,0,1,.38.09,1.13,1.13,0,0,1,.29.36l1.12,2,1.14-2a1.12,1.12,0,0,1,.28-.36.74.74,0,0,1,.38-.09.44.44,0,0,1,.3.1.35.35,0,0,1,.12.3v4.81a.21.21,0,0,1-.12.19.56.56,0,0,1-.3.08.61.61,0,0,1-.3-.08.21.21,0,0,1-.12-.19V33L24.81,34.9a.36.36,0,0,1-.31.18.32.32,0,0,1-.29-.18L23.14,33v3.64a.21.21,0,0,1-.12.19.58.58,0,0,1-.3.08.61.61,0,0,1-.3-.08A.22.22,0,0,1,22.29,36.63Z"/><path class="cls-7" d="M27.79,36.63v-5a.23.23,0,0,1,.09-.18.36.36,0,0,1,.24-.08h1.56a1.88,1.88,0,0,1,1.27.4,1.52,1.52,0,0,1,.48,1.25v.06a1.5,1.5,0,0,1-.49,1.25,2,2,0,0,1-1.31.4h-1v1.85a.2.2,0,0,1-.13.19.56.56,0,0,1-.3.08.55.55,0,0,1-.29-.08A.2.2,0,0,1,27.79,36.63Zm.85-2.48h1a.86.86,0,0,0,.95-1v-.09a1,1,0,0,0-.25-.73,1,1,0,0,0-.7-.23h-1Z"/><path class="cls-7" d="M31.52,35.37a.25.25,0,0,1,.05-.16l1.93-3.57a.39.39,0,0,1,.37-.22.54.54,0,0,1,.28.09.24.24,0,0,1,.14.22.24.24,0,0,1,0,.12l-1.64,3.08h1.17v-1c0-.18.14-.27.43-.27a.73.73,0,0,1,.3.07.22.22,0,0,1,.12.2v1H35a.23.23,0,0,1,.21.11.45.45,0,0,1,.08.26.36.36,0,0,1-.09.24.24.24,0,0,1-.2.12h-.39v1a.2.2,0,0,1-.13.19.55.55,0,0,1-.29.08.56.56,0,0,1-.3-.08.2.2,0,0,1-.13-.19v-1h-2a.32.32,0,0,1-.21-.08A.29.29,0,0,1,31.52,35.37Z"/><line class="cls-8" x1="20.95" x2="20.95" y1="42.55" y2="41.75"/><path class="cls-5" d="M43,42.48v2.93a1,1,0,0,1-1,1l-.34,0"/></g></svg>