<?xml version="1.0" ?><svg viewBox="0 0 63 63" xmlns="http://www.w3.org/2000/svg" xmlns:xlink="http://www.w3.org/1999/xlink"><defs><style>.cls-1,.cls-7{fill:#fff;}.cls-1,.cls-2,.cls-5,.cls-6,.cls-8{stroke-linecap:round;}.cls-1,.cls-2,.cls-3,.cls-4,.cls-5,.cls-6,.cls-8{stroke-miterlimit:10;}.cls-1,.cls-4,.cls-6{fill-rule:evenodd;}.cls-1{stroke:url(#linear-gradient);}.cls-2,.cls-3,.cls-5,.cls-6,.cls-8{fill:none;}.cls-2{stroke:url(#linear-gradient-2);}.cls-3,.cls-5{stroke:#e0e0e0;}.cls-4{fill:url(#linear-gradient-3);stroke:url(#linear-gradient-4);}.cls-6{stroke:url(#linear-gradient-5);}.cls-8{stroke:url(#linear-gradient-6);}</style><linearGradient gradientUnits="userSpaceOnUse" id="linear-gradient" x1="20.45" x2="45.45" y1="32.05" y2="32.05"><stop offset="0" stop-color="#a900bf"/><stop offset="0.48" stop-color="#d661ad"/><stop offset="0.83" stop-color="#f3a3a1"/><stop offset="1" stop-color="#ffbc9c"/></linearGradient><linearGradient id="linear-gradient-2" x1="20.45" x2="21.45" xlink:href="#linear-gradient" y1="28.15" y2="28.15"/><linearGradient id="linear-gradient-3" x1="17.56" x2="39.58" xlink:href="#linear-gradient" y1="34.33" y2="34.33"/><linearGradient id="linear-gradient-4" x1="17.06" x2="40.08" xlink:href="#linear-gradient" y1="34.33" y2="34.33"/><linearGradient id="linear-gradient-5" x1="37.45" x2="42.95" xlink:href="#linear-gradient" y1="21.4" y2="21.4"/><linearGradient id="linear-gradient-6" x1="20.45" x2="21.45" xlink:href="#linear-gradient" y1="42.15" y2="42.15"/></defs><title/><g data-name="Layer 51" id="Layer_51"><path class="cls-1" d="M21,25.55v-7a3,3,0,0,1,3-3H38l7,8v22a3,3,0,0,1-3,3H24a3,3,0,0,1-3-3v-1"/><line class="cls-2" x1="20.95" x2="20.95" y1="28.55" y2="27.75"/><path class="cls-3" d="M18,36.55v2a1,1,0,0,0,1,1H38a1,1,0,0,0,1-1v-1"/><path class="cls-4" d="M38.83,38.62H18.32a.81.81,0,0,1-.76-.86V30.9a.81.81,0,0,1,.76-.85H38.83a.81.81,0,0,1,.75.85v6.86A.81.81,0,0,1,38.83,38.62Z"/><path class="cls-5" d="M38,23v.31a1.28,1.28,0,0,0,1.28,1.3l2.87,0a.26.26,0,0,0,.26-.25V24"/><path class="cls-6" d="M38,18.83v3.86A1.28,1.28,0,0,0,39.24,24h3.21"/><path class="cls-7" d="M21.25,36.58V31.76a.38.38,0,0,1,.12-.3.49.49,0,0,1,.3-.1.63.63,0,0,1,.38.1.88.88,0,0,1,.29.35l1.12,2,1.14-2a1,1,0,0,1,.29-.35.6.6,0,0,1,.37-.1.5.5,0,0,1,.31.1.38.38,0,0,1,.12.3v4.82a.21.21,0,0,1-.13.19.66.66,0,0,1-.3.07.65.65,0,0,1-.29-.07.21.21,0,0,1-.13-.19V33l-1.07,1.86a.37.37,0,0,1-.31.18.31.31,0,0,1-.29-.18l-1.07-1.9v3.64a.23.23,0,0,1-.13.19.66.66,0,0,1-.3.07.65.65,0,0,1-.29-.07A.21.21,0,0,1,21.25,36.58Z"/><path class="cls-7" d="M26.33,31.69a.26.26,0,0,1,.17-.23.65.65,0,0,1,.36-.1c.16,0,.26.06.29.17l1.31,4.27.72-2.68q.06-.24.42-.24c.23,0,.36.08.4.24l.73,2.68L32,31.52c0-.1.13-.16.29-.16a.65.65,0,0,1,.36.1c.11.06.17.13.17.22s0,.06,0,.07l-1.58,4.86a.36.36,0,0,1-.2.2.8.8,0,0,1-.34.07.72.72,0,0,1-.33-.07.28.28,0,0,1-.19-.19l-.62-2.27L29,36.61a.29.29,0,0,1-.19.2.86.86,0,0,1-.68,0,.31.31,0,0,1-.19-.2l-1.59-4.85S26.33,31.72,26.33,31.69Z"/><path class="cls-7" d="M33.1,31.69c0-.09,0-.16.16-.23a.81.81,0,0,1,.36-.1.28.28,0,0,1,.3.17l1.32,4.27,1.31-4.27a.27.27,0,0,1,.29-.17.78.78,0,0,1,.36.1c.11.07.17.14.17.23a.11.11,0,0,1,0,.07l-1.58,4.85a.34.34,0,0,1-.19.2.74.74,0,0,1-.34.07q-.43,0-.54-.27l-1.6-4.85Z"/><line class="cls-8" x1="20.95" x2="20.95" y1="42.55" y2="41.75"/><path class="cls-5" d="M43,42.48v2.93a1,1,0,0,1-1,1l-.34,0"/></g></svg>