<?xml version="1.0" ?><svg viewBox="0 0 63 63" xmlns="http://www.w3.org/2000/svg" xmlns:xlink="http://www.w3.org/1999/xlink"><defs><style>.cls-1,.cls-7{fill:#fff;}.cls-1,.cls-2,.cls-5,.cls-6,.cls-8{stroke-linecap:round;}.cls-1,.cls-2,.cls-3,.cls-4,.cls-5,.cls-6,.cls-8{stroke-miterlimit:10;}.cls-1,.cls-4,.cls-6{fill-rule:evenodd;}.cls-1{stroke:url(#linear-gradient);}.cls-2,.cls-3,.cls-5,.cls-6,.cls-8{fill:none;}.cls-2{stroke:url(#linear-gradient-2);}.cls-3,.cls-5{stroke:#e0e0e0;}.cls-4{fill:url(#linear-gradient-3);stroke:url(#linear-gradient-4);}.cls-6{stroke:url(#linear-gradient-5);}.cls-8{stroke:url(#linear-gradient-6);}</style><linearGradient gradientUnits="userSpaceOnUse" id="linear-gradient" x1="21.45" x2="46.45" y1="32.05" y2="32.05"><stop offset="0" stop-color="#a900bf"/><stop offset="0.48" stop-color="#d661ad"/><stop offset="0.83" stop-color="#f3a3a1"/><stop offset="1" stop-color="#ffbc9c"/></linearGradient><linearGradient id="linear-gradient-2" x1="21.45" x2="22.45" xlink:href="#linear-gradient" y1="28.15" y2="28.15"/><linearGradient id="linear-gradient-3" x1="18.43" x2="40.45" xlink:href="#linear-gradient" y1="34.33" y2="34.33"/><linearGradient id="linear-gradient-4" x1="17.93" x2="40.95" xlink:href="#linear-gradient" y1="34.33" y2="34.33"/><linearGradient id="linear-gradient-5" x1="38.45" x2="43.95" xlink:href="#linear-gradient" y1="21.4" y2="21.4"/><linearGradient id="linear-gradient-6" x1="21.45" x2="22.45" xlink:href="#linear-gradient" y1="42.15" y2="42.15"/></defs><title/><g data-name="Layer 3" id="Layer_3"><path class="cls-1" d="M22,25.55v-7a3,3,0,0,1,3-3H39l7,8v22a3,3,0,0,1-3,3H25a3,3,0,0,1-3-3v-1"/><line class="cls-2" x1="21.95" x2="21.95" y1="28.55" y2="27.75"/><path class="cls-3" d="M19,36.55v2a1,1,0,0,0,1,1H39a1,1,0,0,0,1-1v-1"/><path class="cls-4" d="M39.69,38.62H19.19a.81.81,0,0,1-.76-.86V30.9a.81.81,0,0,1,.76-.85h20.5a.81.81,0,0,1,.76.85v6.86A.81.81,0,0,1,39.69,38.62Z"/><path class="cls-5" d="M39,23v.31a1.28,1.28,0,0,0,1.28,1.3l2.87,0a.26.26,0,0,0,.26-.25V24"/><path class="cls-6" d="M39,18.83v3.86A1.28,1.28,0,0,0,40.24,24h3.21"/><path class="cls-7" d="M23.81,36.51v-5a.23.23,0,0,1,.09-.18.38.38,0,0,1,.24-.07H25.7a2,2,0,0,1,1.28.39,1.56,1.56,0,0,1,.47,1.25V33A1.53,1.53,0,0,1,27,34.26a2,2,0,0,1-1.31.4h-1v1.85a.22.22,0,0,1-.12.19.6.6,0,0,1-.3.07.58.58,0,0,1-.3-.07A.21.21,0,0,1,23.81,36.51ZM24.66,34h1a1,1,0,0,0,.71-.24,1,1,0,0,0,.24-.73V33a.85.85,0,0,0-1-1h-1Z"/><path class="cls-7" d="M28.17,36.51v-5a.2.2,0,0,1,.13-.19.67.67,0,0,1,.3-.06.73.73,0,0,1,.3.06.21.21,0,0,1,.12.19v2.07h2V31.55a.2.2,0,0,1,.13-.19.67.67,0,0,1,.3-.06.73.73,0,0,1,.3.06.21.21,0,0,1,.12.19v5a.22.22,0,0,1-.12.19.6.6,0,0,1-.3.07.58.58,0,0,1-.3-.07.23.23,0,0,1-.13-.19V34.25H29v2.26a.22.22,0,0,1-.12.19.6.6,0,0,1-.3.07.58.58,0,0,1-.3-.07A.21.21,0,0,1,28.17,36.51Z"/><path class="cls-7" d="M32.92,36.51v-5a.23.23,0,0,1,.09-.18.35.35,0,0,1,.23-.07H34.8a2,2,0,0,1,1.28.39,1.54,1.54,0,0,1,.48,1.25V33a1.54,1.54,0,0,1-.5,1.26,2,2,0,0,1-1.3.4h-1v1.85a.22.22,0,0,1-.12.19.56.56,0,0,1-.3.07.6.6,0,0,1-.3-.07A.22.22,0,0,1,32.92,36.51ZM33.76,34h1a.86.86,0,0,0,1-1V33a1,1,0,0,0-.25-.73,1,1,0,0,0-.7-.24h-1Z"/><line class="cls-8" x1="21.95" x2="21.95" y1="42.55" y2="41.75"/><path class="cls-5" d="M44,42.48v2.93a1,1,0,0,1-1,1l-.34,0"/></g></svg>