<?xml version="1.0" ?><svg viewBox="0 0 63 63" xmlns="http://www.w3.org/2000/svg" xmlns:xlink="http://www.w3.org/1999/xlink"><defs><style>.cls-1,.cls-7{fill:#fff;}.cls-1,.cls-2,.cls-5,.cls-6,.cls-8{stroke-linecap:round;}.cls-1,.cls-2,.cls-3,.cls-4,.cls-5,.cls-6,.cls-8{stroke-miterlimit:10;}.cls-1,.cls-4,.cls-6{fill-rule:evenodd;}.cls-1{stroke:url(#linear-gradient);}.cls-2,.cls-3,.cls-5,.cls-6,.cls-8{fill:none;}.cls-2{stroke:url(#linear-gradient-2);}.cls-3,.cls-5{stroke:#e0e0e0;}.cls-4{fill:url(#linear-gradient-3);stroke:url(#linear-gradient-4);}.cls-6{stroke:url(#linear-gradient-5);}.cls-8{stroke:url(#linear-gradient-6);}</style><linearGradient gradientUnits="userSpaceOnUse" id="linear-gradient" x1="20.45" x2="45.45" y1="32.05" y2="32.05"><stop offset="0" stop-color="#a900bf"/><stop offset="0.48" stop-color="#d661ad"/><stop offset="0.83" stop-color="#f3a3a1"/><stop offset="1" stop-color="#ffbc9c"/></linearGradient><linearGradient id="linear-gradient-2" x1="20.45" x2="21.45" xlink:href="#linear-gradient" y1="28.15" y2="28.15"/><linearGradient id="linear-gradient-3" x1="17.51" x2="39.53" xlink:href="#linear-gradient" y1="34.31" y2="34.31"/><linearGradient id="linear-gradient-4" x1="17.01" x2="40.03" xlink:href="#linear-gradient" y1="34.31" y2="34.31"/><linearGradient id="linear-gradient-5" x1="37.45" x2="42.95" xlink:href="#linear-gradient" y1="21.4" y2="21.4"/><linearGradient id="linear-gradient-6" x1="20.45" x2="21.45" xlink:href="#linear-gradient" y1="42.15" y2="42.15"/></defs><title/><g data-name="Layer 44" id="Layer_44"><path class="cls-1" d="M21,25.55v-7a3,3,0,0,1,3-3H38l7,8v22a3,3,0,0,1-3,3H24a3,3,0,0,1-3-3v-1"/><line class="cls-2" x1="20.95" x2="20.95" y1="28.55" y2="27.75"/><path class="cls-3" d="M18,36.55v2a1,1,0,0,0,1,1H38a1,1,0,0,0,1-1v-1"/><path class="cls-4" d="M38.77,38.6H18.27a.81.81,0,0,1-.76-.86V30.88a.81.81,0,0,1,.76-.85h20.5a.81.81,0,0,1,.76.85v6.86A.81.81,0,0,1,38.77,38.6Z"/><path class="cls-5" d="M38,23v.31a1.28,1.28,0,0,0,1.28,1.3l2.87,0a.26.26,0,0,0,.26-.25V24"/><path class="cls-6" d="M38,18.83v3.86A1.28,1.28,0,0,0,39.24,24h3.21"/><path class="cls-7" d="M22.32,36.41v-5a.25.25,0,0,1,.08-.18.3.3,0,0,1,.2-.08h1.53q1.83,0,1.83,1.53a1.55,1.55,0,0,1-.3,1,1.48,1.48,0,0,1-.82.48l1.12,2a.23.23,0,0,1,0,.11.36.36,0,0,1-.17.28.52.52,0,0,1-.34.13.4.4,0,0,1-.34-.23L24,34.31h-.8V36.4a.24.24,0,0,1-.13.2.66.66,0,0,1-.3.07.65.65,0,0,1-.29-.07A.23.23,0,0,1,22.32,36.41Zm.85-2.73h1c.66,0,1-.3,1-.89s-.33-.89-1-.89h-1Z"/><path class="cls-7" d="M26.38,36.34s0-.05,0-.07L28,31.42q.11-.27.57-.27c.32,0,.51.08.58.25l1.58,4.85,0,.07c0,.1-.07.18-.19.25a.91.91,0,0,1-.4.1.3.3,0,0,1-.31-.17l-.33-1.07h-2l-.32,1.07a.28.28,0,0,1-.3.17.75.75,0,0,1-.36-.1A.27.27,0,0,1,26.38,36.34Zm1.34-1.54h1.59l-.8-2.57Z"/><path class="cls-7" d="M31.29,36.41v-5a.25.25,0,0,1,.08-.18.3.3,0,0,1,.2-.08h1.52c1.23,0,1.84.51,1.84,1.53a1.55,1.55,0,0,1-.3,1,1.47,1.47,0,0,1-.83.48l1.12,2a.17.17,0,0,1,0,.11.36.36,0,0,1-.17.28.53.53,0,0,1-.35.13.38.38,0,0,1-.33-.23l-1.17-2.15h-.81V36.4a.23.23,0,0,1-.12.2.66.66,0,0,1-.3.07.65.65,0,0,1-.29-.07A.21.21,0,0,1,31.29,36.41Zm.84-2.73h1c.66,0,1-.3,1-.89s-.33-.89-1-.89h-1Z"/><line class="cls-8" x1="20.95" x2="20.95" y1="42.55" y2="41.75"/><path class="cls-5" d="M43,42.48v2.93a1,1,0,0,1-1,1l-.34,0"/></g></svg>