<?xml version="1.0" ?><svg viewBox="0 0 63 63" xmlns="http://www.w3.org/2000/svg" xmlns:xlink="http://www.w3.org/1999/xlink"><defs><style>.cls-1,.cls-7{fill:#fff;}.cls-1,.cls-2,.cls-5,.cls-6,.cls-8{stroke-linecap:round;}.cls-1,.cls-2,.cls-3,.cls-4,.cls-5,.cls-6,.cls-8{stroke-miterlimit:10;}.cls-1,.cls-4,.cls-6{fill-rule:evenodd;}.cls-1{stroke:url(#linear-gradient);}.cls-2,.cls-3,.cls-5,.cls-6,.cls-8{fill:none;}.cls-2{stroke:url(#linear-gradient-2);}.cls-3,.cls-5{stroke:#e0e0e0;}.cls-4{fill:url(#linear-gradient-3);stroke:url(#linear-gradient-4);}.cls-6{stroke:url(#linear-gradient-5);}.cls-8{stroke:url(#linear-gradient-6);}</style><linearGradient gradientUnits="userSpaceOnUse" id="linear-gradient" x1="20.45" x2="45.45" y1="32.05" y2="32.05"><stop offset="0" stop-color="#a900bf"/><stop offset="0.48" stop-color="#d661ad"/><stop offset="0.83" stop-color="#f3a3a1"/><stop offset="1" stop-color="#ffbc9c"/></linearGradient><linearGradient id="linear-gradient-2" x1="20.45" x2="21.45" xlink:href="#linear-gradient" y1="28.15" y2="28.15"/><linearGradient id="linear-gradient-3" x1="17.43" x2="39.45" xlink:href="#linear-gradient" y1="34.33" y2="34.33"/><linearGradient id="linear-gradient-4" x1="16.93" x2="39.95" xlink:href="#linear-gradient" y1="34.33" y2="34.33"/><linearGradient id="linear-gradient-5" x1="37.45" x2="42.95" xlink:href="#linear-gradient" y1="21.4" y2="21.4"/><linearGradient id="linear-gradient-6" x1="20.45" x2="21.45" xlink:href="#linear-gradient" y1="42.15" y2="42.15"/></defs><title/><g data-name="Layer 29" id="Layer_29"><path class="cls-1" d="M21,25.55v-7a3,3,0,0,1,3-3H38l7,8v22a3,3,0,0,1-3,3H24a3,3,0,0,1-3-3v-1"/><line class="cls-2" x1="20.95" x2="20.95" y1="28.55" y2="27.75"/><path class="cls-3" d="M18,36.55v2a1,1,0,0,0,1,1H38a1,1,0,0,0,1-1v-1"/><path class="cls-4" d="M38.69,38.62H18.19a.81.81,0,0,1-.76-.86V30.9a.81.81,0,0,1,.76-.85h20.5a.81.81,0,0,1,.76.85v6.86A.81.81,0,0,1,38.69,38.62Z"/><path class="cls-5" d="M38,23v.31a1.28,1.28,0,0,0,1.28,1.3l2.87,0a.26.26,0,0,0,.26-.25V24"/><path class="cls-6" d="M38,18.83v3.86A1.28,1.28,0,0,0,39.24,24h3.21"/><path class="cls-7" d="M22.79,31.7a.44.44,0,0,1,.08-.25.22.22,0,0,1,.21-.11h3.31a.23.23,0,0,1,.21.1.43.43,0,0,1,.07.25.45.45,0,0,1-.07.27.23.23,0,0,1-.21.11H25.16v4.48a.22.22,0,0,1-.12.19.6.6,0,0,1-.3.07.56.56,0,0,1-.3-.07.23.23,0,0,1-.13-.19V32.07H23.08a.23.23,0,0,1-.21-.11A.45.45,0,0,1,22.79,31.7Z"/><path class="cls-7" d="M27.31,36.55V31.6a.22.22,0,0,1,.12-.19.44.44,0,0,1,.26-.07H30.5a.21.21,0,0,1,.2.1.4.4,0,0,1,.07.24.44.44,0,0,1-.07.26.23.23,0,0,1-.2.1H28.16v1.72H29.4a.24.24,0,0,1,.2.09.35.35,0,0,1,.07.23.37.37,0,0,1-.06.21.27.27,0,0,1-.21.1H28.16v2.16a.22.22,0,0,1-.12.2.67.67,0,0,1-.3.06.73.73,0,0,1-.3-.06A.23.23,0,0,1,27.31,36.55Z"/><path class="cls-7" d="M30.92,31.7a.43.43,0,0,1,.07-.25.21.21,0,0,1,.2-.11h3.32a.23.23,0,0,1,.21.1.43.43,0,0,1,.07.25.45.45,0,0,1-.07.27.23.23,0,0,1-.21.11H33.28v4.48a.21.21,0,0,1-.13.19.54.54,0,0,1-.29.07.56.56,0,0,1-.3-.07.23.23,0,0,1-.13-.19V32.07H31.19A.22.22,0,0,1,31,32,.44.44,0,0,1,30.92,31.7Z"/><line class="cls-8" x1="20.95" x2="20.95" y1="42.55" y2="41.75"/><path class="cls-5" d="M43,42.48v2.93a1,1,0,0,1-1,1l-.34,0"/></g></svg>