<?xml version="1.0" ?><svg viewBox="0 0 63 63" xmlns="http://www.w3.org/2000/svg" xmlns:xlink="http://www.w3.org/1999/xlink"><defs><style>.cls-1,.cls-7{fill:#fff;}.cls-1,.cls-2,.cls-5,.cls-6,.cls-8{stroke-linecap:round;}.cls-1,.cls-2,.cls-3,.cls-4,.cls-5,.cls-6,.cls-8{stroke-miterlimit:10;}.cls-1,.cls-4,.cls-6{fill-rule:evenodd;}.cls-1{stroke:url(#linear-gradient);}.cls-2,.cls-3,.cls-5,.cls-6,.cls-8{fill:none;}.cls-2{stroke:url(#linear-gradient-2);}.cls-3,.cls-5{stroke:#e0e0e0;}.cls-4{fill:url(#linear-gradient-3);stroke:url(#linear-gradient-4);}.cls-6{stroke:url(#linear-gradient-5);}.cls-8{stroke:url(#linear-gradient-6);}</style><linearGradient gradientUnits="userSpaceOnUse" id="linear-gradient" x1="20.45" x2="45.45" y1="32.05" y2="32.05"><stop offset="0" stop-color="#a900bf"/><stop offset="0.48" stop-color="#d661ad"/><stop offset="0.83" stop-color="#f3a3a1"/><stop offset="1" stop-color="#ffbc9c"/></linearGradient><linearGradient id="linear-gradient-2" x1="20.45" x2="21.45" xlink:href="#linear-gradient" y1="28.15" y2="28.15"/><linearGradient id="linear-gradient-3" x1="17.16" x2="39.18" xlink:href="#linear-gradient" y1="34.52" y2="34.52"/><linearGradient id="linear-gradient-4" x1="16.66" x2="39.68" xlink:href="#linear-gradient" y1="34.52" y2="34.52"/><linearGradient id="linear-gradient-5" x1="37.45" x2="42.95" xlink:href="#linear-gradient" y1="21.4" y2="21.4"/><linearGradient id="linear-gradient-6" x1="20.45" x2="21.45" xlink:href="#linear-gradient" y1="42.15" y2="42.15"/></defs><title/><g data-name="Layer 41" id="Layer_41"><path class="cls-1" d="M21,25.55v-7a3,3,0,0,1,3-3H38l7,8v22a3,3,0,0,1-3,3H24a3,3,0,0,1-3-3v-1"/><line class="cls-2" x1="20.95" x2="20.95" y1="28.55" y2="27.75"/><path class="cls-3" d="M18,36.55v2a1,1,0,0,0,1,1H38a1,1,0,0,0,1-1v-1"/><path class="cls-4" d="M38.42,38.81H17.92a.81.81,0,0,1-.76-.86V31.09a.82.82,0,0,1,.76-.86h20.5a.82.82,0,0,1,.76.86V38A.81.81,0,0,1,38.42,38.81Z"/><path class="cls-5" d="M38,23v.31a1.28,1.28,0,0,0,1.28,1.3l2.87,0a.26.26,0,0,0,.26-.25V24"/><path class="cls-6" d="M38,18.83v3.86A1.28,1.28,0,0,0,39.24,24h3.21"/><path class="cls-7" d="M21.81,31.76a.52.52,0,0,1,.07-.25.25.25,0,0,1,.21-.11h3.32a.25.25,0,0,1,.21.11.41.41,0,0,1,.07.25.44.44,0,0,1-.07.26.23.23,0,0,1-.21.11H24.18v4.48a.2.2,0,0,1-.13.19.55.55,0,0,1-.29.08.56.56,0,0,1-.3-.08.2.2,0,0,1-.13-.19V32.13H22.09a.22.22,0,0,1-.2-.11A.45.45,0,0,1,21.81,31.76Z"/><path class="cls-7" d="M26.17,35.25V33.07a1.55,1.55,0,0,1,.49-1.27,2,2,0,0,1,1.28-.4,2.17,2.17,0,0,1,1.32.38,1.19,1.19,0,0,1,.5,1,.34.34,0,0,1-.1.29.45.45,0,0,1-.32.09c-.28,0-.42-.09-.42-.26a1,1,0,0,0-1.9.16v2.18a.85.85,0,0,0,.94,1,1,1,0,0,0,.71-.25,1,1,0,0,0,.25-.72v-.62h-.81a.24.24,0,0,1-.2-.09.37.37,0,0,1-.07-.23.36.36,0,0,1,.07-.22.24.24,0,0,1,.2-.09h1.37a.29.29,0,0,1,.21.08.25.25,0,0,1,.07.19v1a1.55,1.55,0,0,1-.49,1.27,2.33,2.33,0,0,1-2.61,0A1.55,1.55,0,0,1,26.17,35.25Z"/><path class="cls-7" d="M30.26,36.55a.56.56,0,0,1,0-.07l1.59-4.86c.07-.17.26-.26.57-.26s.51.08.58.25l1.58,4.85a.25.25,0,0,1,0,.07.29.29,0,0,1-.19.24.83.83,0,0,1-.4.11.3.3,0,0,1-.31-.17l-.33-1.07h-2l-.33,1.07c0,.11-.13.17-.29.17a.75.75,0,0,1-.36-.1C30.32,36.71,30.26,36.64,30.26,36.55ZM31.6,35h1.59l-.8-2.57Z"/><line class="cls-8" x1="20.95" x2="20.95" y1="42.55" y2="41.75"/><path class="cls-5" d="M43,42.48v2.93a1,1,0,0,1-1,1l-.34,0"/></g></svg>