<?xml version="1.0" ?><svg viewBox="0 0 63 63" xmlns="http://www.w3.org/2000/svg" xmlns:xlink="http://www.w3.org/1999/xlink"><defs><style>.cls-1,.cls-7{fill:#fff;}.cls-1,.cls-2,.cls-5,.cls-6,.cls-8{stroke-linecap:round;}.cls-1,.cls-2,.cls-3,.cls-4,.cls-5,.cls-6,.cls-8{stroke-miterlimit:10;}.cls-1,.cls-4,.cls-6{fill-rule:evenodd;}.cls-1{stroke:url(#linear-gradient);}.cls-2,.cls-3,.cls-5,.cls-6,.cls-8{fill:none;}.cls-2{stroke:url(#linear-gradient-2);}.cls-3,.cls-5{stroke:#e0e0e0;}.cls-4{fill:url(#linear-gradient-3);stroke:url(#linear-gradient-4);}.cls-6{stroke:url(#linear-gradient-5);}.cls-8{stroke:url(#linear-gradient-6);}</style><linearGradient gradientUnits="userSpaceOnUse" id="linear-gradient" x1="20.45" x2="45.45" y1="32.05" y2="32.05"><stop offset="0" stop-color="#a900bf"/><stop offset="0.48" stop-color="#d661ad"/><stop offset="0.83" stop-color="#f3a3a1"/><stop offset="1" stop-color="#ffbc9c"/></linearGradient><linearGradient id="linear-gradient-2" x1="20.45" x2="21.45" xlink:href="#linear-gradient" y1="28.15" y2="28.15"/><linearGradient id="linear-gradient-3" x1="17.43" x2="39.45" xlink:href="#linear-gradient" y1="34.33" y2="34.33"/><linearGradient id="linear-gradient-4" x1="16.93" x2="39.95" xlink:href="#linear-gradient" y1="34.33" y2="34.33"/><linearGradient id="linear-gradient-5" x1="37.45" x2="42.95" xlink:href="#linear-gradient" y1="21.4" y2="21.4"/><linearGradient id="linear-gradient-6" x1="20.45" x2="21.45" xlink:href="#linear-gradient" y1="42.15" y2="42.15"/></defs><title/><g data-name="Layer 16" id="Layer_16"><path class="cls-1" d="M21,25.55v-7a3,3,0,0,1,3-3H38l7,8v22a3,3,0,0,1-3,3H24a3,3,0,0,1-3-3v-1"/><line class="cls-2" x1="20.95" x2="20.95" y1="28.55" y2="27.75"/><path class="cls-3" d="M18,36.55v2a1,1,0,0,0,1,1H38a1,1,0,0,0,1-1v-1"/><path class="cls-4" d="M38.69,38.62H18.19a.81.81,0,0,1-.76-.86V30.9a.81.81,0,0,1,.76-.85h20.5a.81.81,0,0,1,.76.85v6.86A.81.81,0,0,1,38.69,38.62Z"/><path class="cls-5" d="M38,23v.31a1.28,1.28,0,0,0,1.28,1.3l2.87,0a.26.26,0,0,0,.26-.25V24"/><path class="cls-6" d="M38,18.83v3.86A1.28,1.28,0,0,0,39.24,24h3.21"/><path class="cls-7" d="M21.52,31.37a.27.27,0,0,1,.17-.23.74.74,0,0,1,.36-.09c.16,0,.26.05.3.16l1.31,4.27.72-2.68c0-.16.17-.23.41-.23s.37.08.41.23l.73,2.68,1.3-4.27c0-.11.13-.16.3-.16a.8.8,0,0,1,.36.09.25.25,0,0,1,.16.22.17.17,0,0,1,0,.08l-1.58,4.85a.36.36,0,0,1-.2.2.73.73,0,0,1-.33.08.89.89,0,0,1-.34-.07.33.33,0,0,1-.19-.2L24.79,34l-.61,2.26a.28.28,0,0,1-.18.2.77.77,0,0,1-.34.08.78.78,0,0,1-.35-.08.32.32,0,0,1-.19-.19l-1.59-4.86S21.52,31.4,21.52,31.37Z"/><path class="cls-7" d="M28,36.19v-.07l1.59-4.85q.11-.27.57-.27c.32,0,.51.08.58.25l1.58,4.86a.25.25,0,0,1,0,.07c0,.09-.06.17-.19.24a.76.76,0,0,1-.39.1c-.17,0-.28-.05-.32-.16l-.33-1.07h-2l-.33,1.06c0,.12-.14.17-.3.17a.7.7,0,0,1-.36-.1A.26.26,0,0,1,28,36.19Zm1.34-1.53h1.59l-.81-2.57Z"/><path class="cls-7" d="M32.18,31.38a.28.28,0,0,1,.17-.24.74.74,0,0,1,.36-.09c.16,0,.25.05.29.16l1.32,4.27,1.31-4.27c0-.11.14-.16.29-.16a.74.74,0,0,1,.36.09.28.28,0,0,1,.17.23.2.2,0,0,1,0,.07l-1.59,4.85a.29.29,0,0,1-.19.2.74.74,0,0,1-.34.08c-.29,0-.47-.09-.53-.27l-1.6-4.86S32.18,31.41,32.18,31.38Z"/><line class="cls-8" x1="20.95" x2="20.95" y1="42.55" y2="41.75"/><path class="cls-5" d="M43,42.48v2.93a1,1,0,0,1-1,1l-.34,0"/></g></svg>