<?xml version="1.0" ?><svg viewBox="0 0 63 63" xmlns="http://www.w3.org/2000/svg" xmlns:xlink="http://www.w3.org/1999/xlink"><defs><style>.cls-1,.cls-7{fill:#fff;}.cls-1,.cls-2,.cls-5,.cls-6,.cls-8{stroke-linecap:round;}.cls-1,.cls-2,.cls-3,.cls-4,.cls-5,.cls-6,.cls-8{stroke-miterlimit:10;}.cls-1,.cls-4,.cls-6{fill-rule:evenodd;}.cls-1{stroke:url(#linear-gradient);}.cls-2,.cls-3,.cls-5,.cls-6,.cls-8{fill:none;}.cls-2{stroke:url(#linear-gradient-2);}.cls-3,.cls-5{stroke:#e0e0e0;}.cls-4{fill:url(#linear-gradient-3);stroke:url(#linear-gradient-4);}.cls-6{stroke:url(#linear-gradient-5);}.cls-8{stroke:url(#linear-gradient-6);}</style><linearGradient gradientUnits="userSpaceOnUse" id="linear-gradient" x1="20.45" x2="45.45" y1="32.05" y2="32.05"><stop offset="0" stop-color="#a900bf"/><stop offset="0.48" stop-color="#d661ad"/><stop offset="0.83" stop-color="#f3a3a1"/><stop offset="1" stop-color="#ffbc9c"/></linearGradient><linearGradient id="linear-gradient-2" x1="20.45" x2="21.45" xlink:href="#linear-gradient" y1="28.15" y2="28.15"/><linearGradient id="linear-gradient-3" x1="17.56" x2="39.58" xlink:href="#linear-gradient" y1="34.33" y2="34.33"/><linearGradient id="linear-gradient-4" x1="17.06" x2="40.08" xlink:href="#linear-gradient" y1="34.33" y2="34.33"/><linearGradient id="linear-gradient-5" x1="37.45" x2="42.95" xlink:href="#linear-gradient" y1="21.4" y2="21.4"/><linearGradient id="linear-gradient-6" x1="20.45" x2="21.45" xlink:href="#linear-gradient" y1="42.15" y2="42.15"/></defs><title/><g data-name="Layer 56" id="Layer_56"><path class="cls-1" d="M21,25.55v-7a3,3,0,0,1,3-3H38l7,8v22a3,3,0,0,1-3,3H24a3,3,0,0,1-3-3v-1"/><line class="cls-2" x1="20.95" x2="20.95" y1="28.55" y2="27.75"/><path class="cls-3" d="M18,36.55v2a1,1,0,0,0,1,1H38a1,1,0,0,0,1-1v-1"/><path class="cls-4" d="M38.83,38.62H18.32a.81.81,0,0,1-.76-.86V30.9a.81.81,0,0,1,.76-.85H38.83a.81.81,0,0,1,.75.85v6.86A.81.81,0,0,1,38.83,38.62Z"/><path class="cls-5" d="M38,23v.31a1.28,1.28,0,0,0,1.28,1.3l2.87,0a.26.26,0,0,0,.26-.25V24"/><path class="cls-6" d="M38,18.83v3.86A1.28,1.28,0,0,0,39.24,24h3.21"/><path class="cls-7" d="M20.33,31.81a.27.27,0,0,1,.17-.23.74.74,0,0,1,.36-.09c.16,0,.26.05.3.16l1.31,4.27.72-2.68c0-.15.17-.23.41-.23s.37.08.41.24l.73,2.68L26,31.65c0-.11.13-.16.3-.16a.8.8,0,0,1,.36.09.26.26,0,0,1,.16.23s0,.06,0,.07l-1.58,4.85a.37.37,0,0,1-.2.21.88.88,0,0,1-.33.07.89.89,0,0,1-.34-.07.33.33,0,0,1-.19-.2l-.61-2.27L23,36.74a.32.32,0,0,1-.18.2.94.94,0,0,1-.34.07,1,1,0,0,1-.35-.07.37.37,0,0,1-.19-.2l-1.59-4.85A.17.17,0,0,1,20.33,31.81Z"/><path class="cls-7" d="M26.81,36.63v-.06l1.59-4.86q.11-.27.57-.27c.32,0,.51.09.58.25l1.58,4.86a.25.25,0,0,1,0,.07c0,.09-.06.17-.19.24a.76.76,0,0,1-.39.1c-.17,0-.28-.05-.32-.16l-.33-1.07H28l-.33,1.07c0,.11-.14.16-.3.16a.8.8,0,0,1-.36-.09A.29.29,0,0,1,26.81,36.63Zm1.34-1.53h1.59l-.81-2.57Z"/><path class="cls-7" d="M31,31.81a.26.26,0,0,1,.17-.23.74.74,0,0,1,.36-.09c.16,0,.26.05.29.16l1.31,4.27.72-2.68c0-.15.18-.23.42-.23s.36.08.4.24l.73,2.68,1.31-4.28c0-.11.13-.16.29-.16a.74.74,0,0,1,.36.09.27.27,0,0,1,.17.23s0,.06,0,.07l-1.58,4.85a.37.37,0,0,1-.2.21,1,1,0,0,1-.34.07.88.88,0,0,1-.33-.07.31.31,0,0,1-.19-.2l-.62-2.27-.6,2.27a.31.31,0,0,1-.19.2.86.86,0,0,1-.68,0,.33.33,0,0,1-.19-.2L31,31.89A.17.17,0,0,1,31,31.81Z"/><line class="cls-8" x1="20.95" x2="20.95" y1="42.55" y2="41.75"/><path class="cls-5" d="M43,42.48v2.93a1,1,0,0,1-1,1l-.34,0"/></g></svg>