<?xml version="1.0" ?><svg viewBox="0 0 63 63" xmlns="http://www.w3.org/2000/svg" xmlns:xlink="http://www.w3.org/1999/xlink"><defs><style>.cls-1,.cls-7{fill:#fff;}.cls-1,.cls-2,.cls-5,.cls-6,.cls-8{stroke-linecap:round;}.cls-1,.cls-2,.cls-3,.cls-4,.cls-5,.cls-6,.cls-8{stroke-miterlimit:10;}.cls-1,.cls-4,.cls-6{fill-rule:evenodd;}.cls-1{stroke:url(#linear-gradient);}.cls-2,.cls-3,.cls-5,.cls-6,.cls-8{fill:none;}.cls-2{stroke:url(#linear-gradient-2);}.cls-3,.cls-5{stroke:#e0e0e0;}.cls-4{fill:url(#linear-gradient-3);stroke:url(#linear-gradient-4);}.cls-6{stroke:url(#linear-gradient-5);}.cls-8{stroke:url(#linear-gradient-6);}</style><linearGradient gradientUnits="userSpaceOnUse" id="linear-gradient" x1="20.45" x2="45.45" y1="32.05" y2="32.05"><stop offset="0" stop-color="#a900bf"/><stop offset="0.48" stop-color="#d661ad"/><stop offset="0.83" stop-color="#f3a3a1"/><stop offset="1" stop-color="#ffbc9c"/></linearGradient><linearGradient id="linear-gradient-2" x1="20.45" x2="21.45" xlink:href="#linear-gradient" y1="28.15" y2="28.15"/><linearGradient id="linear-gradient-3" x1="17.43" x2="39.45" xlink:href="#linear-gradient" y1="34.33" y2="34.33"/><linearGradient id="linear-gradient-4" x1="16.93" x2="39.95" xlink:href="#linear-gradient" y1="34.33" y2="34.33"/><linearGradient id="linear-gradient-5" x1="37.45" x2="42.95" xlink:href="#linear-gradient" y1="21.4" y2="21.4"/><linearGradient id="linear-gradient-6" x1="20.45" x2="21.45" xlink:href="#linear-gradient" y1="42.15" y2="42.15"/></defs><title/><g data-name="Layer 40" id="Layer_40"><path class="cls-1" d="M21,25.55v-7a3,3,0,0,1,3-3H38l7,8v22a3,3,0,0,1-3,3H24a3,3,0,0,1-3-3v-1"/><line class="cls-2" x1="20.95" x2="20.95" y1="28.55" y2="27.75"/><path class="cls-3" d="M18,36.55v2a1,1,0,0,0,1,1H38a1,1,0,0,0,1-1v-1"/><path class="cls-4" d="M38.69,38.62H18.19a.81.81,0,0,1-.76-.86V30.9a.81.81,0,0,1,.76-.85h20.5a.81.81,0,0,1,.76.85v6.86A.81.81,0,0,1,38.69,38.62Z"/><path class="cls-5" d="M38,23v.31a1.28,1.28,0,0,0,1.28,1.3l2.87,0a.26.26,0,0,0,.26-.25V24"/><path class="cls-6" d="M38,18.83v3.86A1.28,1.28,0,0,0,39.24,24h3.21"/><path class="cls-7" d="M20.38,31.54a.26.26,0,0,1,.17-.23.65.65,0,0,1,.36-.1c.16,0,.26.06.29.17l1.31,4.27L23.23,33q.06-.24.42-.24c.23,0,.36.08.4.24l.73,2.68,1.31-4.28c0-.1.13-.16.29-.16a.65.65,0,0,1,.36.1c.11.06.17.13.17.22s0,.06,0,.07l-1.58,4.86a.39.39,0,0,1-.2.2.8.8,0,0,1-.34.07.72.72,0,0,1-.33-.07.29.29,0,0,1-.19-.2l-.61-2.26L23,36.46a.29.29,0,0,1-.19.2.86.86,0,0,1-.68,0,.31.31,0,0,1-.19-.2l-1.59-4.85A.15.15,0,0,1,20.38,31.54Z"/><path class="cls-7" d="M27.57,36.43V31.61a.38.38,0,0,1,.12-.3.49.49,0,0,1,.3-.1.61.61,0,0,1,.38.1,1,1,0,0,1,.3.35l1.12,2,1.13-2a1,1,0,0,1,.29-.35.63.63,0,0,1,.38-.1.49.49,0,0,1,.3.1.38.38,0,0,1,.12.3v4.82a.22.22,0,0,1-.12.19.73.73,0,0,1-.3.07.7.7,0,0,1-.3-.07.21.21,0,0,1-.13-.19v-3.6l-1.07,1.86a.36.36,0,0,1-.31.18.31.31,0,0,1-.29-.18l-1.07-1.9v3.64a.21.21,0,0,1-.13.19.66.66,0,0,1-.3.07.65.65,0,0,1-.29-.07A.21.21,0,0,1,27.57,36.43Z"/><path class="cls-7" d="M33.07,36.43V31.48a.22.22,0,0,1,.11-.2.53.53,0,0,1,.26-.07h2.81a.23.23,0,0,1,.2.1.48.48,0,0,1,0,.5.24.24,0,0,1-.2.11H33.91v1.71h1.24a.21.21,0,0,1,.2.1.33.33,0,0,1,.08.22.41.41,0,0,1-.07.22.26.26,0,0,1-.21.09H33.91v2.17a.21.21,0,0,1-.12.19.56.56,0,0,1-.3.07.6.6,0,0,1-.3-.07A.21.21,0,0,1,33.07,36.43Z"/><line class="cls-8" x1="20.95" x2="20.95" y1="42.55" y2="41.75"/><path class="cls-5" d="M43,42.48v2.93a1,1,0,0,1-1,1l-.34,0"/></g></svg>