<?xml version="1.0" ?><svg viewBox="0 0 63 63" xmlns="http://www.w3.org/2000/svg" xmlns:xlink="http://www.w3.org/1999/xlink"><defs><style>.cls-1,.cls-7{fill:#fff;}.cls-1,.cls-2,.cls-5,.cls-6,.cls-8{stroke-linecap:round;}.cls-1,.cls-2,.cls-3,.cls-4,.cls-5,.cls-6,.cls-8{stroke-miterlimit:10;}.cls-1,.cls-4,.cls-6{fill-rule:evenodd;}.cls-1{stroke:url(#linear-gradient);}.cls-2,.cls-3,.cls-5,.cls-6,.cls-8{fill:none;}.cls-2{stroke:url(#linear-gradient-2);}.cls-3,.cls-5{stroke:#e0e0e0;}.cls-4{fill:url(#linear-gradient-3);stroke:url(#linear-gradient-4);}.cls-6{stroke:url(#linear-gradient-5);}.cls-8{stroke:url(#linear-gradient-6);}</style><linearGradient gradientUnits="userSpaceOnUse" id="linear-gradient" x1="20.45" x2="45.45" y1="32.05" y2="32.05"><stop offset="0" stop-color="#a900bf"/><stop offset="0.48" stop-color="#d661ad"/><stop offset="0.83" stop-color="#f3a3a1"/><stop offset="1" stop-color="#ffbc9c"/></linearGradient><linearGradient id="linear-gradient-2" x1="20.45" x2="21.45" xlink:href="#linear-gradient" y1="28.15" y2="28.15"/><linearGradient id="linear-gradient-3" x1="17.56" x2="39.58" xlink:href="#linear-gradient" y1="34.33" y2="34.33"/><linearGradient id="linear-gradient-4" x1="17.06" x2="40.08" xlink:href="#linear-gradient" y1="34.33" y2="34.33"/><linearGradient id="linear-gradient-5" x1="37.45" x2="42.95" xlink:href="#linear-gradient" y1="21.4" y2="21.4"/><linearGradient id="linear-gradient-6" x1="20.45" x2="21.45" xlink:href="#linear-gradient" y1="42.15" y2="42.15"/></defs><title/><g data-name="Layer 55" id="Layer_55"><path class="cls-1" d="M21,25.55v-7a3,3,0,0,1,3-3H38l7,8v22a3,3,0,0,1-3,3H24a3,3,0,0,1-3-3v-1"/><line class="cls-2" x1="20.95" x2="20.95" y1="28.55" y2="27.75"/><path class="cls-3" d="M18,36.55v2a1,1,0,0,0,1,1H38a1,1,0,0,0,1-1v-1"/><path class="cls-4" d="M38.83,38.62H18.32a.81.81,0,0,1-.76-.86V30.9a.81.81,0,0,1,.76-.85H38.83a.81.81,0,0,1,.75.85v6.86A.81.81,0,0,1,38.83,38.62Z"/><path class="cls-5" d="M38,23v.31a1.28,1.28,0,0,0,1.28,1.3l2.87,0a.26.26,0,0,0,.26-.25V24"/><path class="cls-6" d="M38,18.83v3.86A1.28,1.28,0,0,0,39.24,24h3.21"/><path class="cls-7" d="M22.08,32.19a.27.27,0,0,1,.17-.23.65.65,0,0,1,.36-.1.28.28,0,0,1,.3.17l1.31,4.27.72-2.68c0-.16.17-.24.41-.24s.37.08.41.24l.73,2.68L27.79,32c0-.1.13-.16.3-.16a.7.7,0,0,1,.36.1.25.25,0,0,1,.16.22s0,.06,0,.07L27,37.11a.36.36,0,0,1-.2.2.72.72,0,0,1-.33.07.74.74,0,0,1-.34-.07.32.32,0,0,1-.19-.19l-.61-2.27-.61,2.26a.29.29,0,0,1-.18.2.78.78,0,0,1-.35.07.77.77,0,0,1-.34-.07.34.34,0,0,1-.19-.2l-1.59-4.85S22.08,32.22,22.08,32.19Z"/><path class="cls-7" d="M29.27,37.08v-5a.21.21,0,0,1,.1-.18.36.36,0,0,1,.23-.08h1.56a2,2,0,0,1,1.28.4,1.56,1.56,0,0,1,.47,1.25v.06a1.53,1.53,0,0,1-.49,1.26,2,2,0,0,1-1.31.4h-1v1.85a.22.22,0,0,1-.12.19.68.68,0,0,1-.6,0A.23.23,0,0,1,29.27,37.08Zm.85-2.48h1a1,1,0,0,0,.71-.25,1,1,0,0,0,.25-.73v-.09a.86.86,0,0,0-1-1h-1Z"/><path class="cls-7" d="M33.34,36.51a.47.47,0,0,1,.11-.28.3.3,0,0,1,.26-.14.43.43,0,0,1,.21.09l.24.21a1.34,1.34,0,0,0,.37.21,1.53,1.53,0,0,0,.54.09,1.2,1.2,0,0,0,.74-.2.68.68,0,0,0,.27-.59.79.79,0,0,0-.27-.61,1.94,1.94,0,0,0-.64-.38l-.77-.31a1.65,1.65,0,0,1-.65-.5,1.25,1.25,0,0,1-.27-.82,1.36,1.36,0,0,1,.17-.69,1,1,0,0,1,.44-.45,2.49,2.49,0,0,1,.59-.23,2.7,2.7,0,0,1,.65-.07l.45,0a2.57,2.57,0,0,1,.47.08,1.21,1.21,0,0,1,.38.17.34.34,0,0,1,.16.25.56.56,0,0,1-.1.29.3.3,0,0,1-.26.14.46.46,0,0,1-.21-.07,1.69,1.69,0,0,0-.37-.14,1.62,1.62,0,0,0-.52-.08,1.41,1.41,0,0,0-.73.17.58.58,0,0,0-.27.52.6.6,0,0,0,.14.39,1.09,1.09,0,0,0,.38.27,4.73,4.73,0,0,0,.5.2,5.55,5.55,0,0,1,.56.24,2.8,2.8,0,0,1,.5.31,1.27,1.27,0,0,1,.38.49,1.73,1.73,0,0,1,.14.71,1.43,1.43,0,0,1-.5,1.18,2,2,0,0,1-1.32.41,2.58,2.58,0,0,1-1.26-.29Q33.34,36.83,33.34,36.51Z"/><line class="cls-8" x1="20.95" x2="20.95" y1="42.55" y2="41.75"/><path class="cls-5" d="M43,42.48v2.93a1,1,0,0,1-1,1l-.34,0"/></g></svg>