<?xml version="1.0" ?><svg viewBox="0 0 63 63" xmlns="http://www.w3.org/2000/svg" xmlns:xlink="http://www.w3.org/1999/xlink"><defs><style>.cls-1,.cls-7{fill:#fff;}.cls-1,.cls-2,.cls-5,.cls-6,.cls-8{stroke-linecap:round;}.cls-1,.cls-2,.cls-3,.cls-4,.cls-5,.cls-6,.cls-8{stroke-miterlimit:10;}.cls-1,.cls-4,.cls-6{fill-rule:evenodd;}.cls-1{stroke:url(#linear-gradient);}.cls-2,.cls-3,.cls-5,.cls-6,.cls-8{fill:none;}.cls-2{stroke:url(#linear-gradient-2);}.cls-3,.cls-5{stroke:#e0e0e0;}.cls-4{fill:url(#linear-gradient-3);stroke:url(#linear-gradient-4);}.cls-6{stroke:url(#linear-gradient-5);}.cls-8{stroke:url(#linear-gradient-6);}</style><linearGradient gradientUnits="userSpaceOnUse" id="linear-gradient" x1="20.45" x2="45.45" y1="32.05" y2="32.05"><stop offset="0" stop-color="#a900bf"/><stop offset="0.48" stop-color="#d661ad"/><stop offset="0.83" stop-color="#f3a3a1"/><stop offset="1" stop-color="#ffbc9c"/></linearGradient><linearGradient id="linear-gradient-2" x1="20.45" x2="21.45" xlink:href="#linear-gradient" y1="28.15" y2="28.15"/><linearGradient id="linear-gradient-3" x1="17.43" x2="39.45" xlink:href="#linear-gradient" y1="34.33" y2="34.33"/><linearGradient id="linear-gradient-4" x1="16.93" x2="39.95" xlink:href="#linear-gradient" y1="34.33" y2="34.33"/><linearGradient id="linear-gradient-5" x1="37.45" x2="42.95" xlink:href="#linear-gradient" y1="21.4" y2="21.4"/><linearGradient id="linear-gradient-6" x1="20.45" x2="21.45" xlink:href="#linear-gradient" y1="42.15" y2="42.15"/></defs><title/><g data-name="Layer 26" id="Layer_26"><path class="cls-1" d="M21,25.55v-7a3,3,0,0,1,3-3H38l7,8v22a3,3,0,0,1-3,3H24a3,3,0,0,1-3-3v-1"/><line class="cls-2" x1="20.95" x2="20.95" y1="28.55" y2="27.75"/><path class="cls-3" d="M18,36.55v2a1,1,0,0,0,1,1H38a1,1,0,0,0,1-1v-1"/><path class="cls-4" d="M38.69,38.62H18.19a.81.81,0,0,1-.76-.86V30.9a.81.81,0,0,1,.76-.85h20.5a.81.81,0,0,1,.76.85v6.86A.81.81,0,0,1,38.69,38.62Z"/><path class="cls-5" d="M38,23v.31a1.28,1.28,0,0,0,1.28,1.3l2.87,0a.26.26,0,0,0,.26-.25V24"/><path class="cls-6" d="M38,18.83v3.86A1.28,1.28,0,0,0,39.24,24h3.21"/><path class="cls-7" d="M22.39,36.36a.26.26,0,0,1,.05-.15L23.82,34l-1.34-2.2a.35.35,0,0,1-.07-.2.3.3,0,0,1,.17-.25.67.67,0,0,1,.37-.11.38.38,0,0,1,.32.23l1.1,1.91,1.12-1.91a.36.36,0,0,1,.32-.23.66.66,0,0,1,.36.11.3.3,0,0,1,.17.25.35.35,0,0,1-.07.2L24.93,34l1.38,2.22a.33.33,0,0,1,.06.15.34.34,0,0,1-.18.28.72.72,0,0,1-.37.11.29.29,0,0,1-.26-.18l-1.19-2-1.17,2a.31.31,0,0,1-.27.18.72.72,0,0,1-.36-.11A.34.34,0,0,1,22.39,36.36Z"/><path class="cls-7" d="M27,36.47v-5a.21.21,0,0,1,.13-.19.68.68,0,0,1,.6,0,.2.2,0,0,1,.12.19V36H30a.21.21,0,0,1,.19.1.41.41,0,0,1,.07.25.4.4,0,0,1-.07.24.21.21,0,0,1-.19.11H27.41a.44.44,0,0,1-.26-.07A.22.22,0,0,1,27,36.47Z"/><path class="cls-7" d="M30.55,35.91a.46.46,0,0,1,.12-.29.33.33,0,0,1,.25-.14.37.37,0,0,1,.21.09l.25.21a1,1,0,0,0,.36.21,1.63,1.63,0,0,0,.55.1,1.17,1.17,0,0,0,.73-.21.67.67,0,0,0,.28-.59.8.8,0,0,0-.27-.61,2.06,2.06,0,0,0-.65-.38c-.25-.09-.5-.2-.76-.31A1.65,1.65,0,0,1,31,33.5a1.29,1.29,0,0,1-.27-.83,1.35,1.35,0,0,1,.16-.69,1.21,1.21,0,0,1,.45-.45,2.42,2.42,0,0,1,.58-.23,3.51,3.51,0,0,1,.66-.07l.45,0a3.85,3.85,0,0,1,.47.08,1.21,1.21,0,0,1,.38.17.33.33,0,0,1,.15.26.54.54,0,0,1-.09.28.31.31,0,0,1-.26.14.53.53,0,0,1-.22-.07,2.26,2.26,0,0,0-.36-.14,1.68,1.68,0,0,0-.52-.07,1.29,1.29,0,0,0-.73.17.62.62,0,0,0-.13.9,1.14,1.14,0,0,0,.37.27,4.18,4.18,0,0,0,.51.2c.19.07.37.15.56.24a3.52,3.52,0,0,1,.5.31,1.25,1.25,0,0,1,.37.49,1.58,1.58,0,0,1,.15.71,1.43,1.43,0,0,1-.5,1.18,2.07,2.07,0,0,1-1.33.41,2.54,2.54,0,0,1-1.25-.29C30.73,36.31,30.55,36.11,30.55,35.91Z"/><line class="cls-8" x1="20.95" x2="20.95" y1="42.55" y2="41.75"/><path class="cls-5" d="M43,42.48v2.93a1,1,0,0,1-1,1l-.34,0"/></g></svg>