<?xml version="1.0" ?><svg id="Layer_1" style="enable-background:new 0 0 512 512;" version="1.1" viewBox="0 0 512 512" xml:space="preserve" xmlns="http://www.w3.org/2000/svg" xmlns:xlink="http://www.w3.org/1999/xlink"><style type="text/css">
	.st0{fill:#BFBFBF;}
	.st1{fill:#FFFFFF;}
	.st2{fill:#E0A41E;}
	.st3{fill:#FCE379;}
	.st4{fill:#F5BD2F;}
	.st5{fill:#CE8F11;}
</style><g id="XMLID_100_"><g id="XMLID_101_"><path class="st0" d="M132.9,506.2c-25.7,0-46.7-20.4-46.7-45.4v-38.2L66,407.3V274.9h20.2V77.4    c0-25,20.9-45.4,46.7-45.4h56.9V21.7h124.7L325.2,32h82.6c25.7,0,46.7,20.4,46.7,45.4v80.4l7.9,7.6v121.4h-7.9v173.9    c0,25-20.9,45.4-46.7,45.4H132.9z" id="XMLID_729_"/><path class="st1" d="M116.6,490.3c-25.7,0-46.7-20.4-46.7-45.4v-38.2l-20.2-15.2V259h20.2V61.5    c0-25,20.9-45.4,46.7-45.4h56.9V5.8h124.7l10.6,10.3h82.6c25.7,0,46.7,20.4,46.7,45.4V142l7.9,7.6V271h-7.9v173.9    c0,25-20.9,45.4-46.7,45.4H116.6z" id="XMLID_728_"/><g id="XMLID_102_"><g id="XMLID_103_"><path class="st2" d="M389.2,474.9H118.8c-18.3,0-33.1-14.8-33.1-33.1V64.6c0-18.3,14.8-33.1,33.1-33.1h270.4      c18.3,0,33.1,14.8,33.1,33.1v377.2C422.3,460.1,407.5,474.9,389.2,474.9z" id="XMLID_727_"/><path class="st3" d="M98.8,437.1V69.4c0-13.9,11.2-25.1,25.1-25.1h260.1c13.9,0,25.1,11.2,25.1,25.1v367.7      c0,13.9-11.2,25.1-25.1,25.1H123.9C110.1,462.2,98.8,450.9,98.8,437.1z" id="XMLID_726_"/></g><polygon class="st4" id="XMLID_725_" points="430.1,255.6 430.1,156 291.6,21.2 189.3,21.2    "/><polygon class="st5" id="XMLID_724_" points="189.3,21.2 189.3,31.5 199.9,31.5    "/><polygon class="st5" id="XMLID_723_" points="422.3,248 422.3,255.6 430.1,255.6    "/><path class="st4" d="M277.4,383.9H65.6V274.5h211.9c29.8,0,54,24.2,54,54v1.4     C331.4,359.7,307.3,383.9,277.4,383.9z" id="XMLID_722_"/><polygon class="st5" id="XMLID_721_" points="65.6,383.9 85.7,399.1 85.7,383.9    "/></g></g><g id="XMLID_2893_"><g id="XMLID_99_"><path class="st1" d="M141.7,306.5h7.6v31.3c0,4.3-1.3,7.7-4,10.3c-2.7,2.5-6.2,3.8-10.4,3.8     c-4.5,0-8.1-1.1-10.8-3.4c-2.7-2.3-3.9-5.5-3.8-9.9l0.1-0.2h7.4c0,2.5,0.6,4.4,1.9,5.6c1.3,1.2,3,1.8,5.2,1.8     c2,0,3.6-0.7,4.9-2.2c1.3-1.5,1.9-3.4,1.9-5.9V306.5z" id="XMLID_112_"/><path class="st1" d="M184.1,340.8h-16.3l-3.5,10.4h-7.9l16-44.7h7.3l15.8,44.7h-7.9L184.1,340.8z M169.9,334.5     H182l-5.9-17.6h-0.2L169.9,334.5z" id="XMLID_109_"/><path class="st1" d="M215.5,339.1l0.8,3.3h0.2l0.8-3.2l11-32.7h8.2L220,351.2h-7.3l-16.4-44.7h8.2L215.5,339.1z" id="XMLID_107_"/><path class="st1" d="M265.2,340.8H249l-3.5,10.4h-7.9l16-44.7h7.3l15.8,44.7h-7.9L265.2,340.8z M251.1,334.5     h12.1l-5.9-17.6h-0.2L251.1,334.5z" id="XMLID_104_"/></g></g></g></svg>