<?xml version="1.0" ?><svg id="Layer_1" style="enable-background:new 0 0 512 512;" version="1.1" viewBox="0 0 512 512" xml:space="preserve" xmlns="http://www.w3.org/2000/svg" xmlns:xlink="http://www.w3.org/1999/xlink"><style type="text/css">
	.st0{fill:#BFBFBF;}
	.st1{fill:#FFFFFF;}
	.st2{fill:#29353F;}
	.st3{fill:#475563;}
	.st4{fill:#141D23;}
	.st5{fill:#090E11;}
	.st6{fill:#24323D;}
</style><g id="XMLID_128_"><g id="XMLID_129_"><path class="st0" d="M132.9,506.2c-25.7,0-46.7-20.4-46.7-45.4v-38.2L66,407.3V274.9h20.2V77.4    c0-25,20.9-45.4,46.7-45.4h56.9V21.7h124.7L325.2,32h82.6c25.7,0,46.7,20.4,46.7,45.4v80.4l7.9,7.6v121.4h-7.9v173.9    c0,25-20.9,45.4-46.7,45.4H132.9z" id="XMLID_666_"/><path class="st1" d="M116.6,490.3c-25.7,0-46.7-20.4-46.7-45.4v-38.2l-20.2-15.2V259h20.2V61.5    c0-25,20.9-45.4,46.7-45.4h56.9V5.8h124.7l10.6,10.3h82.6c25.7,0,46.7,20.4,46.7,45.4V142l7.9,7.6V271h-7.9v173.9    c0,25-20.9,45.4-46.7,45.4H116.6z" id="XMLID_665_"/><g id="XMLID_130_"><g id="XMLID_131_"><path class="st2" d="M389.2,474.9H118.8c-18.3,0-33.1-14.8-33.1-33.1V64.6c0-18.3,14.8-33.1,33.1-33.1h270.4      c18.3,0,33.1,14.8,33.1,33.1v377.2C422.3,460.1,407.5,474.9,389.2,474.9z" id="XMLID_664_"/><path class="st3" d="M98.8,437.1V69.4c0-13.9,11.2-25.1,25.1-25.1h260.1c13.9,0,25.1,11.2,25.1,25.1v367.7      c0,13.9-11.2,25.1-25.1,25.1H123.9C110.1,462.2,98.8,450.9,98.8,437.1z" id="XMLID_663_"/></g><polygon class="st4" id="XMLID_662_" points="430.1,255.6 430.1,156 291.6,21.2 189.3,21.2    "/><polygon class="st5" id="XMLID_661_" points="189.3,21.2 189.3,31.5 199.9,31.5    "/><polygon class="st5" id="XMLID_660_" points="422.3,248 422.3,255.6 430.1,255.6    "/><path class="st6" d="M277.4,383.9H65.6V274.5h211.9c29.8,0,54,24.2,54,54v1.4     C331.4,359.7,307.3,383.9,277.4,383.9z" id="XMLID_659_"/><polygon class="st5" id="XMLID_658_" points="65.6,383.9 85.7,399.1 85.7,383.9    "/></g></g><g id="XMLID_2771_"><g id="XMLID_78_"><path class="st1" d="M149.1,343.4h0.2l15.7-40.7h11.6v52.9h-9.1v-38l-0.2,0l-15,38.1h-6.2l-15.2-38.8l-0.2,0.1     v38.7h-9.1v-52.9h11.9L149.1,343.4z" id="XMLID_84_"/><path class="st1" d="M199.4,335.6v20.1h-9.1v-52.9h20.8c6,0,10.7,1.5,14.1,4.5c3.4,3,5.1,7,5.1,11.9     c0,5-1.7,8.9-5.1,11.9c-3.4,3-8.1,4.5-14.1,4.5H199.4z M199.4,328.5h11.8c3.4,0,5.9-0.9,7.6-2.6c1.7-1.7,2.5-4,2.5-6.7     s-0.8-4.9-2.5-6.7c-1.7-1.8-4.2-2.7-7.6-2.7h-11.8V328.5z" id="XMLID_81_"/><path class="st1" d="M257.3,324.9c2.9,0,5.1-0.7,6.3-2.1c1.3-1.4,1.9-3.4,1.9-6c0-2.3-0.7-4.2-2.1-5.6     c-1.4-1.4-3.4-2.2-6-2.2c-2.4,0-4.5,0.7-6.1,2.1c-1.6,1.4-2.4,3.2-2.4,5.3h-8.7l-0.1-0.2c-0.1-4,1.4-7.4,4.8-10.2     c3.3-2.7,7.5-4.1,12.5-4.1c5.3,0,9.5,1.3,12.6,3.8c3.1,2.5,4.6,6.2,4.6,11.1c0,2.4-0.7,4.6-2,6.7c-1.4,2-3.2,3.6-5.7,4.7     c2.8,1.1,4.9,2.7,6.3,4.8c1.5,2.1,2.2,4.7,2.2,7.8c0,4.9-1.7,8.7-5,11.4c-3.4,2.8-7.7,4.1-13,4.1c-4.8,0-9-1.3-12.6-3.9     c-3.6-2.6-5.4-6.2-5.2-10.8l0.1-0.2h8.7c0,2.2,0.8,4.1,2.5,5.6c1.7,1.5,3.8,2.3,6.5,2.3c2.7,0,4.9-0.8,6.5-2.4     c1.6-1.6,2.4-3.6,2.4-6.1c0-3-0.8-5.2-2.3-6.7c-1.5-1.5-3.8-2.2-6.9-2.2h-6v-6.9H257.3z" id="XMLID_79_"/></g></g></g></svg>