<?xml version="1.0" ?><svg id="Layer_1" style="enable-background:new 0 0 512 512;" version="1.1" viewBox="0 0 512 512" xml:space="preserve" xmlns="http://www.w3.org/2000/svg" xmlns:xlink="http://www.w3.org/1999/xlink"><style type="text/css">
	.st0{fill:#BFBFBF;}
	.st1{fill:#FFFFFF;}
	.st2{fill:#16896B;}
	.st3{fill:#49EBC8;}
	.st4{fill:#2EBC9A;}
	.st5{fill:#096047;}
</style><g id="XMLID_124_"><g id="XMLID_125_"><path class="st0" d="M132.9,506.2c-25.7,0-46.7-20.4-46.7-45.4v-38.2L66,407.3V274.9h20.2V77.4    c0-25,20.9-45.4,46.7-45.4h56.9V21.7h124.7L325.2,32h82.6c25.7,0,46.7,20.4,46.7,45.4v80.4l7.9,7.6v121.4h-7.9v173.9    c0,25-20.9,45.4-46.7,45.4H132.9z" id="XMLID_675_"/><path class="st1" d="M116.6,490.3c-25.7,0-46.7-20.4-46.7-45.4v-38.2l-20.2-15.2V259h20.2V61.5    c0-25,20.9-45.4,46.7-45.4h56.9V5.8h124.7l10.6,10.3h82.6c25.7,0,46.7,20.4,46.7,45.4V142l7.9,7.6V271h-7.9v173.9    c0,25-20.9,45.4-46.7,45.4H116.6z" id="XMLID_674_"/><g id="XMLID_126_"><g id="XMLID_127_"><path class="st2" d="M389.2,474.9H118.8c-18.3,0-33.1-14.8-33.1-33.1V64.6c0-18.3,14.8-33.1,33.1-33.1h270.4      c18.3,0,33.1,14.8,33.1,33.1v377.2C422.3,460.1,407.5,474.9,389.2,474.9z" id="XMLID_673_"/><path class="st3" d="M98.8,437.1V69.4c0-13.9,11.2-25.1,25.1-25.1h260.1c13.9,0,25.1,11.2,25.1,25.1v367.7      c0,13.9-11.2,25.1-25.1,25.1H123.9C110.1,462.2,98.8,450.9,98.8,437.1z" id="XMLID_672_"/></g><polygon class="st4" id="XMLID_671_" points="430.1,255.6 430.1,156 291.6,21.2 189.3,21.2    "/><polygon class="st5" id="XMLID_670_" points="189.3,21.2 189.3,31.5 199.9,31.5    "/><polygon class="st5" id="XMLID_669_" points="422.3,248 422.3,255.6 430.1,255.6    "/><path class="st4" d="M277.4,383.9H65.6V274.5h211.9c29.8,0,54,24.2,54,54v1.4     C331.4,359.7,307.3,383.9,277.4,383.9z" id="XMLID_668_"/><polygon class="st5" id="XMLID_667_" points="65.6,383.9 85.7,399.1 85.7,383.9    "/></g></g><g id="XMLID_2787_"><g id="XMLID_71_"><path class="st1" d="M161.5,341c0-2-0.7-3.7-2.2-5c-1.5-1.3-4.1-2.4-7.8-3.5c-5.4-1.4-9.5-3.3-12.4-5.7     c-2.9-2.3-4.4-5.4-4.4-9.2c0-3.9,1.6-7.1,4.8-9.7c3.2-2.5,7.3-3.8,12.3-3.8c5.4,0,9.7,1.4,12.9,4.2c3.2,2.8,4.8,6.3,4.7,10.4     l-0.1,0.2h-8c0-2.6-0.9-4.6-2.6-6.1c-1.7-1.5-4.1-2.3-7-2.3c-2.8,0-5,0.6-6.5,1.9c-1.5,1.3-2.3,3-2.3,5c0,1.9,0.8,3.4,2.5,4.6     c1.7,1.2,4.4,2.4,8.3,3.4c5.2,1.4,9.2,3.4,11.9,5.8c2.7,2.5,4.1,5.6,4.1,9.4c0,4-1.6,7.2-4.9,9.6c-3.2,2.4-7.5,3.6-12.8,3.6     c-5.1,0-9.5-1.3-13.2-3.9c-3.8-2.6-5.6-6.3-5.5-11.1l0.1-0.2h8c0,2.9,1,5.1,3.1,6.6c2.1,1.5,4.6,2.2,7.5,2.2     c2.9,0,5.2-0.6,6.9-1.8C160.7,344.7,161.5,343,161.5,341z" id="XMLID_76_"/><path class="st1" d="M196.5,340.3l0.9,3.5h0.2l0.9-3.5l11.9-35.4h8.9l-17.8,48.5h-7.9l-17.8-48.5h8.9L196.5,340.3     z" id="XMLID_74_"/><path class="st1" d="M263.5,346.9c-1.4,1.9-3.6,3.6-6.6,5c-3,1.5-6.9,2.2-11.6,2.2c-5.9,0-10.7-1.8-14.5-5.5     s-5.7-8.5-5.7-14.3v-10.1c0-5.9,1.8-10.6,5.5-14.3c3.7-3.7,8.4-5.5,14.2-5.5c5.8,0,10.3,1.4,13.6,4.3c3.2,2.8,4.8,6.6,4.7,11.1     l-0.1,0.2h-7.9c0-2.7-0.9-4.9-2.6-6.6c-1.7-1.7-4.2-2.5-7.5-2.5c-3.4,0-6.2,1.3-8.3,3.8c-2.1,2.5-3.2,5.7-3.2,9.6v10.2     c0,3.9,1.1,7.1,3.3,9.6c2.2,2.5,5.1,3.8,8.6,3.8c2.7,0,4.8-0.3,6.3-0.9c1.6-0.6,2.7-1.3,3.5-2.1v-10h-10.4v-6.1h18.8V346.9z" id="XMLID_72_"/></g></g></g></svg>