<?xml version="1.0" ?><svg id="Layer_1" style="enable-background:new 0 0 512 512;" version="1.1" viewBox="0 0 512 512" xml:space="preserve" xmlns="http://www.w3.org/2000/svg" xmlns:xlink="http://www.w3.org/1999/xlink"><style type="text/css">
	.st0{fill:#BFBFBF;}
	.st1{fill:#FFFFFF;}
	.st2{fill:#084272;}
	.st3{fill:#3DA7E3;}
	.st4{fill:#2B66A1;}
	.st5{fill:#24323D;}
</style><g id="XMLID_132_"><g id="XMLID_133_"><path class="st0" d="M132.9,506.2c-25.7,0-46.7-20.4-46.7-45.4v-38.2L66,407.3V274.9h20.2V77.4    c0-25,20.9-45.4,46.7-45.4h56.9V21.7h124.7L325.2,32h82.6c25.7,0,46.7,20.4,46.7,45.4v80.4l7.9,7.6v121.4h-7.9v173.9    c0,25-20.9,45.4-46.7,45.4H132.9z" id="XMLID_657_"/><path class="st1" d="M116.6,490.3c-25.7,0-46.7-20.4-46.7-45.4v-38.2l-20.2-15.2V259h20.2V61.5    c0-25,20.9-45.4,46.7-45.4h56.9V5.8h124.7l10.6,10.3h82.6c25.7,0,46.7,20.4,46.7,45.4V142l7.9,7.6V271h-7.9v173.9    c0,25-20.9,45.4-46.7,45.4H116.6z" id="XMLID_656_"/><g id="XMLID_134_"><g id="XMLID_135_"><path class="st2" d="M389.2,474.9H118.8c-18.3,0-33.1-14.8-33.1-33.1V64.6c0-18.3,14.8-33.1,33.1-33.1h270.4      c18.3,0,33.1,14.8,33.1,33.1v377.2C422.3,460.1,407.5,474.9,389.2,474.9z" id="XMLID_655_"/><path class="st3" d="M98.8,437.1V69.4c0-13.9,11.2-25.1,25.1-25.1h260.1c13.9,0,25.1,11.2,25.1,25.1v367.7      c0,13.9-11.2,25.1-25.1,25.1H123.9C110.1,462.2,98.8,450.9,98.8,437.1z" id="XMLID_654_"/></g><polygon class="st4" id="XMLID_653_" points="430.1,255.6 430.1,156 291.6,21.2 189.3,21.2    "/><polygon class="st5" id="XMLID_652_" points="189.3,21.2 189.3,31.5 199.9,31.5    "/><polygon class="st5" id="XMLID_651_" points="422.3,248 422.3,255.6 430.1,255.6    "/><path class="st4" d="M277.4,383.9H65.6V274.5h211.9c29.8,0,54,24.2,54,54v1.4     C331.4,359.7,307.3,383.9,277.4,383.9z" id="XMLID_650_"/><polygon class="st5" id="XMLID_649_" points="65.6,383.9 85.7,399.1 85.7,383.9    "/></g></g><g id="XMLID_2757_"><g id="XMLID_71_"><path class="st1" d="M167.5,307.6h-18.7v51.1h-10.1v-51.1h-18.4v-7.9h47.3V307.6z" id="XMLID_76_"/><path class="st1" d="M198.5,321.5l12.8-21.8h12l-18.6,29.2l19.4,29.7h-12.2l-13.2-22.2l-13.2,22.2h-12l19.1-29.7     l-18.6-29.2h11.9L198.5,321.5z" id="XMLID_74_"/><path class="st1" d="M276.8,307.6H258v51.1h-10.1v-51.1h-18.4v-7.9h47.3V307.6z" id="XMLID_72_"/></g></g></g></svg>