<?xml version="1.0" ?><svg id="Layer_1" style="enable-background:new 0 0 512 512;" version="1.1" viewBox="0 0 512 512" xml:space="preserve" xmlns="http://www.w3.org/2000/svg" xmlns:xlink="http://www.w3.org/1999/xlink"><style type="text/css">
	.st0{fill:#BFBFBF;}
	.st1{fill:#FFFFFF;}
	.st2{fill:#C41E4A;}
	.st3{fill:#F45671;}
	.st4{fill:#E03258;}
	.st5{fill:#A50C3B;}
</style><g id="XMLID_120_"><g id="XMLID_121_"><path class="st0" d="M132.9,506.2c-25.7,0-46.7-20.4-46.7-45.4v-38.2L66,407.3V274.9h20.2V77.4    c0-25,20.9-45.4,46.7-45.4h56.9V21.7h124.7L325.2,32h82.6c25.7,0,46.7,20.4,46.7,45.4v80.4l7.9,7.6v121.4h-7.9v173.9    c0,25-20.9,45.4-46.7,45.4H132.9z" id="XMLID_684_"/><path class="st1" d="M116.6,490.3c-25.7,0-46.7-20.4-46.7-45.4v-38.2l-20.2-15.2V259h20.2V61.5    c0-25,20.9-45.4,46.7-45.4h56.9V5.8h124.7l10.6,10.3h82.6c25.7,0,46.7,20.4,46.7,45.4V142l7.9,7.6V271h-7.9v173.9    c0,25-20.9,45.4-46.7,45.4H116.6z" id="XMLID_683_"/><g id="XMLID_122_"><g id="XMLID_123_"><path class="st2" d="M389.2,474.9H118.8c-18.3,0-33.1-14.8-33.1-33.1V64.6c0-18.3,14.8-33.1,33.1-33.1h270.4      c18.3,0,33.1,14.8,33.1,33.1v377.2C422.3,460.1,407.5,474.9,389.2,474.9z" id="XMLID_682_"/><path class="st3" d="M98.8,437.1V69.4c0-13.9,11.2-25.1,25.1-25.1h260.1c13.9,0,25.1,11.2,25.1,25.1v367.7      c0,13.9-11.2,25.1-25.1,25.1H123.9C110.1,462.2,98.8,450.9,98.8,437.1z" id="XMLID_681_"/></g><polygon class="st4" id="XMLID_680_" points="430.1,255.6 430.1,156 291.6,21.2 189.3,21.2    "/><polygon class="st5" id="XMLID_679_" points="189.3,21.2 189.3,31.5 199.9,31.5    "/><polygon class="st5" id="XMLID_678_" points="422.3,248 422.3,255.6 430.1,255.6    "/><path class="st4" d="M277.4,383.9H65.6V274.5h211.9c29.8,0,54,24.2,54,54v1.4     C331.4,359.7,307.3,383.9,277.4,383.9z" id="XMLID_677_"/><polygon class="st5" id="XMLID_676_" points="65.6,383.9 85.7,399.1 85.7,383.9    "/></g></g><g id="XMLID_2801_"><g id="XMLID_71_"><path class="st1" d="M152.4,322.3l11.5-19.6h10.8l-16.7,26.2l17.4,26.7h-10.9l-11.8-19.9l-11.8,19.9H130     l17.1-26.7l-16.7-26.2h10.7L152.4,322.3z" id="XMLID_76_"/><path class="st1" d="M193.8,348.6h25.5v7.1h-34.5v-52.9h9.1V348.6z" id="XMLID_74_"/><path class="st1" d="M257.9,342c0-2.2-0.8-4-2.4-5.4c-1.6-1.4-4.4-2.7-8.5-3.8c-5.8-1.6-10.4-3.6-13.5-6.2     c-3.2-2.6-4.8-5.9-4.8-10c0-4.3,1.7-7.8,5.2-10.5c3.5-2.8,8-4.1,13.4-4.1c5.9,0,10.6,1.5,14.1,4.6c3.5,3.1,5.2,6.9,5.1,11.4     l-0.1,0.2h-8.7c0-2.8-1-5-2.9-6.7c-1.9-1.6-4.4-2.5-7.6-2.5c-3.1,0-5.4,0.7-7.1,2.1c-1.7,1.4-2.5,3.2-2.5,5.5c0,2,0.9,3.7,2.7,5     c1.8,1.3,4.8,2.6,9,3.8c5.7,1.6,10,3.7,13,6.3c3,2.7,4.5,6.1,4.5,10.3c0,4.4-1.8,7.9-5.3,10.5c-3.5,2.6-8.2,3.9-13.9,3.9     c-5.5,0-10.3-1.4-14.4-4.3c-4.1-2.9-6.1-6.9-6-12.1l0.1-0.2h8.7c0,3.2,1.1,5.6,3.4,7.2c2.3,1.6,5,2.4,8.2,2.4     c3.2,0,5.7-0.7,7.5-2C257,346.1,257.9,344.3,257.9,342z" id="XMLID_72_"/></g></g></g></svg>