<svg width="241" height="234" viewBox="0 0 241 234" fill="none" xmlns="http://www.w3.org/2000/svg">
    <g clip-path="url(#clip0_5_82)">
        <path d="M43.06 -2.12727e-07H198.06C203.643 -0.00526191 209.172 1.09044 214.33 3.2244C219.489 5.35836 224.176 8.48869 228.124 12.4362C232.071 16.3838 235.202 21.071 237.336 26.2297C239.47 31.3884 240.565 36.9173 240.56 42.5V191.5C240.565 197.083 239.47 202.612 237.336 207.77C235.202 212.929 232.071 217.616 228.124 221.564C224.176 225.511 219.489 228.642 214.33 230.776C209.172 232.91 203.643 234.005 198.06 234H43.06C37.4773 234.005 31.9484 232.91 26.7897 230.776C21.631 228.642 16.9438 225.511 12.9962 221.564C9.04869 217.616 5.91836 212.929 3.7844 207.77C1.65044 202.612 0.554736 197.083 0.559997 191.5V42.5C0.554736 36.9173 1.65044 31.3884 3.7844 26.2297C5.91836 21.071 9.04869 16.3838 12.9962 12.4362C16.9438 8.48869 21.631 5.35836 26.7897 3.2244C31.9484 1.09044 37.4773 -0.00526191 43.06 -2.12727e-07Z" fill="#b30b00"/>
        <path d="M193.56 135.5C182.46 123.7 151.76 128.5 144.56 129.7C136.532 121.673 129.636 112.589 124.06 102.7C128.16 91.3191 130.52 79.3848 131.06 67.3C131.06 56.5 126.76 44.9 114.76 44.9C112.716 44.9551 110.719 45.5246 108.954 46.5558C107.189 47.5871 105.712 49.0468 104.66 50.8C99.56 59.6 101.56 77.8 109.76 96.2C104.96 109.7 98.06 129.2 88.96 145C76.66 149.9 50.56 161.9 48.06 175.2C47.6806 177.127 47.8133 179.121 48.445 180.981C49.0767 182.841 50.1853 184.502 51.66 185.8C54.5776 188.375 58.3708 189.735 62.26 189.6C77.96 189.6 93.66 167.8 104.26 149.1C116.473 144.933 128.973 141.658 141.66 139.3C158.26 153.8 173.06 156 180.56 156C190.76 156 194.56 151.6 195.96 147.9C196.698 145.806 196.865 143.554 196.443 141.374C196.021 139.195 195.026 137.167 193.56 135.5ZM182.76 143.1C182.26 146 178.56 148.9 171.66 147.4C163.667 145.396 156.221 141.638 149.86 136.4C155.26 135.5 167.86 134.3 176.76 136C179.96 136.6 183.66 138.4 182.76 143.1ZM111.16 54.6C111.488 53.9493 111.987 53.4005 112.604 53.0128C113.221 52.6251 113.932 52.4132 114.66 52.4C118.46 52.4 119.26 57 119.26 60.8C118.638 69.8642 116.96 78.8248 114.26 87.5C107.86 70.5 108.76 58.7 111.16 54.6ZM110.26 137.7C113.965 129.941 117.269 121.998 120.16 113.9C124.156 120.225 128.707 126.182 133.76 131.7C125.824 133.276 117.98 135.279 110.26 137.7ZM85.16 154.9C75.06 171.1 65.16 181.3 59.36 181.3C58.4157 181.308 57.4975 180.99 56.76 180.4C56.2211 179.965 55.8141 179.388 55.5845 178.735C55.3549 178.081 55.3118 177.377 55.46 176.7C56.56 170.9 68.06 162.5 85.16 154.9Z" fill="white"/>
    </g>
    <defs>
        <clipPath id="clip0_5_82">
            <rect width="240" height="234" fill="white" transform="translate(0.559998)"/>
        </clipPath>
    </defs>
</svg>