<?xml version="1.0" encoding="UTF-8"?>
<svg id="a" data-name="Capa 1" xmlns="http://www.w3.org/2000/svg" viewBox="0 0 43 56">
  <path d="M30.49,0H1.46C.66,0,0,.65,0,1.93v53.07c0,.35.65,1,1.46,1h40.07c.81,0,1.46-.65,1.46-1V12.98c0-.7-.09-.92-.26-1.09L31.11.26c-.16-.16-.39-.26-.62-.26Z" fill="#e9e9e0"/>
  <polygon points="31 .15 31 12 42.85 12 31 .15" fill="#d9d7ca"/>
  <path d="M41.54,56H1.46c-.81,0-1.46-.65-1.46-1.46v-15.54h43v15.54c0,.81-.65,1.46-1.46,1.46Z" fill="#d75e72"/>
  <g>
    <path d="M9.86,53l3.53-10.06h1.63l3.5,10.06h-1.7l-.73-2.09h-3.79l-.74,2.09h-1.71ZM12.69,49.8h3.01l-1.49-4.35-1.52,4.35Z" fill="#fff"/>
    <path d="M23.33,53.06l-3.13-10.13h1.87l2.34,8.69,2.47-8.69h1.86l-3.28,10.13h-2.13Z" fill="#fff"/>
    <path d="M32.49,53h-1.67v-10.08h1.67v10.08Z" fill="#fff"/>
  </g>
  <polygon points="17 28 17 20.95 17 14 28 21 17 28" fill="#c8bdb8"/>
</svg>