<?xml version="1.0" encoding="UTF-8"?>
<svg id="a" data-name="Capa 1" xmlns="http://www.w3.org/2000/svg" viewBox="0 0 614.29 800">
  <path d="M435.5,0H20.9C9.36,0,0,9.36,0,27.51v758.2c0,4.93,9.36,14.29,20.9,14.29h572.49c11.54,0,20.9-9.36,20.9-14.29V185.4c0-9.94-1.33-13.14-3.67-15.5L444.39,3.67c-2.36-2.34-5.56-3.67-8.89-3.67Z" fill="#e9e9e0"/>
  <polygon points="442.86 2.16 442.86 171.43 612.13 171.43 442.86 2.16" fill="#d9d7ca"/>
  <path d="M593.39,800H20.9c-11.54,0-20.9-9.36-20.9-20.9v-221.96h614.29v221.96c0,11.54-9.36,20.9-20.9,20.9Z" fill="#f36fa0"/>
  <g>
    <path d="M215.43,742.5c-5.34,5.2-11.4,9.11-18.16,11.71-6.77,2.61-14.06,3.9-21.87,3.9-8.6,0-16.5-1.56-23.73-4.69s-13.54-7.74-18.94-13.87-9.64-13.8-12.7-23.04-4.59-19.93-4.59-32.03,1.53-22.76,4.59-31.93c3.06-9.19,7.29-16.83,12.7-22.94,5.4-6.13,11.74-10.77,19.04-13.97,7.29-3.2,15.17-4.79,23.63-4.79,7.81,0,15.1,1.3,21.87,3.9,6.77,2.61,12.81,6.51,18.16,11.71l-16.21,14.46c-3.26-3.79-6.87-6.51-10.84-8.2s-8.1-2.54-12.4-2.54c-4.81,0-9.41.9-13.77,2.73-4.37,1.83-8.27,4.91-11.71,9.27-3.46,4.37-6.16,9.99-8.1,16.9s-3,15.36-3.13,25.39c.13,9.77,1.14,18.1,3.03,25s4.49,12.53,7.81,16.9,7.1,7.54,11.33,9.57,8.69,3.03,13.39,3.03,9.09-.86,13.19-2.54,7.84-4.43,11.23-8.2l16.2,14.27Z" fill="#fff"/>
    <path d="M330.47,717.69c0,5.2-1.07,10.26-3.23,15.14s-5.17,9.19-9.09,12.89-8.73,6.67-14.46,8.89c-5.73,2.21-12.24,3.31-19.53,3.31-3.13,0-6.34-.17-9.67-.49s-6.67-.89-10.06-1.66c-3.39-.79-6.61-1.86-9.67-3.23s-5.7-3.03-7.91-4.99l4.1-16.8c1.81,1.04,4.13,2.06,6.93,3.03,2.8.97,5.69,1.89,8.69,2.73,2.99.86,5.99,1.53,8.99,2.06,2.99.51,5.79.79,8.4.79,7.94,0,14.03-1.86,18.26-5.57s6.34-9.21,6.34-16.5c0-4.43-1.5-8.2-4.49-11.33-3-3.13-6.74-5.96-11.23-8.5s-9.34-5.07-14.56-7.61c-5.21-2.54-10.1-5.54-14.64-8.99-4.56-3.44-8.33-7.51-11.33-12.2s-4.49-10.54-4.49-17.57c0-6.37,1.17-12.04,3.51-16.99s5.5-9.16,9.47-12.6,8.6-6.09,13.87-7.91,10.84-2.73,16.7-2.73,12.04.56,18.16,1.66,11.06,2.9,14.84,5.37c-.79,1.69-1.7,3.54-2.73,5.57-1.04,2.03-2.03,3.9-2.93,5.66-.91,1.76-1.7,3.23-2.34,4.4-.66,1.17-1.04,1.83-1.17,1.96-.79-.39-1.66-.9-2.64-1.56s-2.39-1.3-4.2-1.96c-1.83-.66-4.23-1.1-7.23-1.37-3-.27-6.84-.2-11.53.2-2.61.27-5.07,1-7.43,2.24s-4.43,2.76-6.26,4.59-3.26,3.87-4.3,6.16c-1.04,2.27-1.56,4.47-1.56,6.54,0,5.2,1.49,9.4,4.49,12.6,2.99,3.2,6.7,5.99,11.13,8.4,4.43,2.41,9.24,4.76,14.46,7.03,5.2,2.27,10.06,5.06,14.56,8.3s8.23,7.33,11.23,12.2c3.04,4.89,4.54,11.16,4.54,18.84Z" fill="#fff"/>
    <path d="M393.36,757.93l-44.73-144.73h26.76l33.4,124.21,35.36-124.21h26.56l-46.87,144.73h-30.47Z" fill="#fff"/>
  </g>
  <path d="M242.86,228.57v-57.14H71.43v314.29h471.43V228.57H242.86ZM100,200h114.29v28.57h-114.29v-28.57ZM100,257.14h114.29v28.57h-114.29v-28.57ZM100,314.29h114.29v28.57h-114.29v-28.57ZM100,371.43h114.29v28.57h-114.29v-28.57ZM214.29,457.14h-114.29v-28.57h114.29v28.57ZM514.29,457.14H242.86v-28.57h271.43v28.57ZM514.29,400H242.86v-28.57h271.43v28.57ZM514.29,342.86H242.86v-28.57h271.43v28.57ZM242.86,285.71v-28.57h271.43v28.57H242.86Z" fill="#c8bdb8"/>
</svg>