<?xml version="1.0" encoding="UTF-8"?>
<svg id="a" data-name="uuid-6c590193-724a-451d-94a2-a5873ba9fce5" xmlns="http://www.w3.org/2000/svg" viewBox="0 0 43 56">
  <g>
    <path d="M30.49,0H1.46C.66,0,0,.65,0,1.93v53.07c0,.35.65,1,1.46,1h40.07c.81,0,1.46-.65,1.46-1V12.98c0-.7-.09-.92-.26-1.09L31.11.26c-.16-.16-.39-.26-.62-.26Z" fill="#e9e9e0"/>
    <polygon points="31 .15 31 12 42.85 12 31 .15" fill="#d9d7ca"/>
    <circle cx="12.43" cy="14.43" r="4.57" fill="#f3d55b"/>
    <polygon points="0 39 11 39 43 39 43 28 33 18.5 22.5 30 17.02 24.52 0 39" fill="#7189cc"/>
    <path d="M41.54,56H1.46c-.81,0-1.46-.65-1.46-1.46v-15.54h43v15.54c0,.81-.65,1.46-1.46,1.46Z" fill="#3a59c9"/>
  </g>
  <g isolation="isolate">
    <g isolation="isolate">
      <path d="M15.35,48.39v-1.26h4.55s0,3.98,0,3.98c-.7.56-1.42.98-2.16,1.26-.74.28-1.5.42-2.29.42-1.05,0-2.01-.23-2.88-.68-.86-.45-1.51-1.1-1.95-1.96s-.66-1.81-.66-2.86.22-2.02.66-2.93c.44-.91,1.07-1.58,1.89-2.02s1.77-.66,2.83-.66c.78,0,1.48.12,2.11.38.63.25,1.12.6,1.48,1.05s.63,1.04.81,1.76l-1.28.35c-.16-.55-.36-.98-.6-1.29s-.58-.56-1.03-.75c-.44-.19-.94-.28-1.48-.28-.65,0-1.21.1-1.68.3-.47.2-.86.46-1.15.78s-.52.68-.68,1.06c-.27.67-.41,1.38-.41,2.16,0,.96.16,1.76.49,2.4.33.64.81,1.12,1.44,1.44s1.3.47,2.01.47c.62,0,1.22-.12,1.8-.36.59-.24,1.03-.49,1.33-.76v-2h-3.16Z" fill="#fff"/>
      <path d="M22.24,52.6v-10.74h1.42v10.74h-1.42Z" fill="#fff"/>
      <path d="M26.24,52.6v-10.74h7.24v1.27h-5.82v3.33h5.04v1.27h-5.04v4.88h-1.42Z" fill="#fff"/>
    </g>
  </g>
</svg>