<?xml version="1.0" encoding="UTF-8"?>
<svg id="a" data-name="Capa 1" xmlns="http://www.w3.org/2000/svg" viewBox="0 0 43 56">
  <path d="M30.49,0H1.46C.66,0,0,.65,0,1.93v53.07c0,.35.65,1,1.46,1h40.07c.81,0,1.46-.65,1.46-1V12.98c0-.7-.09-.92-.26-1.09L31.11.26c-.16-.16-.39-.26-.62-.26Z" fill="#e9e9e0"/>
  <polygon points="31 .15 31 12 42.85 12 31 .15" fill="#d9d7ca"/>
  <path d="M41.54,56H1.46c-.81,0-1.46-.65-1.46-1.46v-15.54h43v15.54c0,.81-.65,1.46-1.46,1.46Z" fill="#ec6630"/>
  <g>
    <path d="M10.95,42.92v10.08h-1.64v-4.54h-4.36v4.54h-1.67v-10.08h1.67v4.42h4.36v-4.42h1.64Z" fill="#fff"/>
    <path d="M20.61,42.92v1.12h-3.01v8.96h-1.65v-8.96h-3.01v-1.12h7.67Z" fill="#fff"/>
    <path d="M30.21,42.92h1.67v10.08h-1.67v-6.93l-2.26,5.6h-1.45l-2.27-5.6v6.93h-1.67v-10.08h1.67l2.99,6.89,2.98-6.89Z" fill="#fff"/>
    <path d="M36.07,42.92v8.83h4.64v1.24h-6.3v-10.08h1.67Z" fill="#fff"/>
  </g>
  <g>
    <path d="M16.71,16.29c-.39-.39-1.02-.39-1.41,0l-6,6c-.39.39-.39,1.02,0,1.41l6,6c.19.2.45.29.71.29s.51-.1.71-.29c.39-.39.39-1.02,0-1.41l-5.29-5.29,5.29-5.29c.39-.39.39-1.02,0-1.41Z" fill="#ec6630"/>
    <path d="M34.71,22.29l-6-6c-.39-.39-1.02-.39-1.41,0-.39.39-.39,1.02,0,1.41l5.29,5.29-5.29,5.29c-.39.39-.39,1.02,0,1.41.19.2.45.29.71.29s.51-.1.71-.29l6-6c.39-.39.39-1.02,0-1.41Z" fill="#ec6630"/>
  </g>
</svg>