<svg viewBox="0 0 240 234" fill="none" xmlns="http://www.w3.org/2000/svg">
    <g clip-path="url(#clip0_5_68)">
        <path d="M42.5 1.88608e-05H197.5C203.083 -0.00524284 208.612 1.09046 213.77 3.22442C218.929 5.35838 223.616 8.48871 227.564 12.4362C231.511 16.3838 234.642 21.071 236.776 26.2297C238.91 31.3885 240.005 36.9174 240 42.5V191.5C240.005 197.083 238.91 202.612 236.776 207.77C234.642 212.929 231.511 217.616 227.564 221.564C223.616 225.511 218.929 228.642 213.77 230.776C208.612 232.91 203.083 234.005 197.5 234H42.5C36.9173 234.005 31.3884 232.91 26.2297 230.776C21.071 228.642 16.3838 225.511 12.4362 221.564C8.48869 217.616 5.35836 212.929 3.2244 207.77C1.09044 202.612 -0.00526191 197.083 -2.12727e-07 191.5V42.5C-0.00526191 36.9174 1.09044 31.3885 3.2244 26.2297C5.35836 21.071 8.48869 16.3838 12.4362 12.4362C16.3838 8.48871 21.071 5.35838 26.2297 3.22442C31.3884 1.09046 36.9173 -0.00524284 42.5 1.88608e-05Z" fill="#330000"/>
        <path d="M116.3 140.4H79.1L71.5 163.9C71.4151 164.328 71.1731 164.709 70.8215 164.969C70.47 165.228 70.0343 165.346 69.6 165.3H50.8C49.7 165.3 49.4 164.7 49.7 163.5L81.9 70.8C82.2 69.8 82.5 68.7 82.9 67.5C83.3025 65.3568 83.5033 63.1807 83.5 61C83.47 60.7496 83.5358 60.4971 83.6842 60.2931C83.8325 60.0891 84.0525 59.9487 84.3 59.9H110.2C111 59.9 111.4 60.2 111.5 60.7L148 163.7C148.3 164.8 148 165.3 147 165.3H126.1C125.747 165.334 125.392 165.242 125.1 165.041C124.807 164.84 124.595 164.542 124.5 164.2L116.3 140.4ZM84.9 120.1H110.3C109.7 118 108.9 115.5 108 112.9C107.1 110.3 106.2 107.3 105.3 104.3C104.4 101.3 103.4 98.2 102.4 95.1C101.4 92 100.5 89.1 99.7 86.2C98.9 83.3 98.2 80.8 97.5 78.4H97.3C96.4013 82.7585 95.2663 87.0648 93.9 91.3C92.4 96.1 90.9 101.1 89.3 106.1C87.9 111.2 86.4 115.9 84.9 120.1Z" fill="#FF9A00"/>
        <path d="M169.8 77C168.159 77.0359 166.526 76.745 164.998 76.1441C163.47 75.5432 162.077 74.6444 160.9 73.5C158.609 70.9949 157.389 67.693 157.5 64.3C157.441 62.6468 157.731 60.9998 158.351 59.4663C158.972 57.9327 159.908 56.5472 161.1 55.4C163.504 53.1281 166.693 51.874 170 51.9C173.9 51.9 176.9 53.1 179.1 55.4C181.315 57.8247 182.499 61.0171 182.4 64.3C182.461 65.9896 182.183 67.6742 181.582 69.2544C180.98 70.8346 180.069 72.2782 178.9 73.5C177.722 74.7002 176.3 75.6337 174.73 76.2375C173.16 76.8413 171.479 77.1013 169.8 77ZM158.6 163.8V86.8C158.6 85.8 159 85.4 159.9 85.4H179.7C180.6 85.4 181 85.9 181 86.8V163.8C181 164.9 180.6 165.4 179.7 165.4H160.1C159.89 165.417 159.678 165.387 159.482 165.311C159.285 165.235 159.108 165.116 158.964 164.962C158.819 164.808 158.712 164.624 158.649 164.423C158.586 164.221 158.569 164.009 158.6 163.8Z" fill="#FF9A00"/>
    </g>
    <defs>
        <clipPath id="clip0_5_68">
            <rect width="240" height="234" fill="white"/>
        </clipPath>
    </defs>
</svg>