<svg viewBox="0 0 240 234" fill="none" xmlns="http://www.w3.org/2000/svg">
    <g clip-path="url(#clip0_5_66)">
        <path d="M42.5 1.88608e-05H197.5C203.083 -0.00524284 208.612 1.09046 213.77 3.22442C218.929 5.35838 223.616 8.48871 227.564 12.4362C231.511 16.3838 234.642 21.071 236.776 26.2297C238.91 31.3885 240.005 36.9174 240 42.5V191.5C240.005 197.083 238.91 202.612 236.776 207.77C234.642 212.929 231.511 217.616 227.564 221.564C223.616 225.511 218.929 228.642 213.77 230.776C208.612 232.91 203.083 234.005 197.5 234H42.5C36.9173 234.005 31.3884 232.91 26.2297 230.776C21.071 228.642 16.3838 225.511 12.4362 221.564C8.48868 217.616 5.35835 212.929 3.22439 207.77C1.09043 202.612 -0.00527336 197.083 -1.16568e-05 191.5V42.5C-0.00527336 36.9174 1.09043 31.3885 3.22439 26.2297C5.35835 21.071 8.48868 16.3838 12.4362 12.4362C16.3838 8.48871 21.071 5.35838 26.2297 3.22442C31.3884 1.09046 36.9173 -0.00524284 42.5 1.88608e-05Z" fill="#49021F"/>
        <path d="M87.2 61.2V163.8C87.2 164.9 86.7 165.4 85.8 165.4H66.2C65.3 165.4 64.9 164.9 64.9 163.8V61.2C64.9 60.3 65.4 59.9 66.3 59.9H85.8C85.9516 59.8761 86.1065 59.8833 86.2552 59.9213C86.4039 59.9592 86.5433 60.027 86.665 60.1206C86.7866 60.2141 86.8879 60.3315 86.9627 60.4655C87.0375 60.5995 87.0842 60.7474 87.1 60.9C87.1378 60.9395 87.1664 60.9869 87.1837 61.0388C87.2009 61.0907 87.2065 61.1457 87.2 61.2Z" fill="#FF3366"/>
        <path d="M144.8 167C137.387 167.122 130.042 165.584 123.3 162.5C117.028 159.567 111.771 154.832 108.2 148.9C104.5 142.8 102.7 135.2 102.7 126.1C102.599 118.7 104.499 111.409 108.2 105C111.995 98.486 117.491 93.1278 124.1 89.5C131.1 85.6 139.5 83.7 149.4 83.7C150.101 83.6921 150.803 83.7255 151.5 83.8C152.4 83.9 153.4 83.9 154.6 84V52.4C154.6 51.7 154.9 51.3 155.6 51.3H175.9C176.124 51.2697 176.351 51.3249 176.537 51.4546C176.722 51.5843 176.852 51.779 176.9 52V147.4C176.9 149.2 177 151.2 177.1 153.4C177.2 155.6 177.4 157.5 177.5 159.2C177.521 159.538 177.436 159.874 177.257 160.161C177.078 160.448 176.813 160.671 176.5 160.8C171.262 163.001 165.795 164.611 160.2 165.6C155.118 166.521 149.965 166.99 144.8 167ZM154.6 147V103C153.71 102.785 152.808 102.618 151.9 102.5C150.8 102.4 149.7 102.3 148.6 102.3C144.68 102.256 140.806 103.147 137.3 104.9C133.883 106.603 130.957 109.15 128.8 112.3C126.6 115.5 125.5 119.8 125.5 125C125.413 128.51 125.99 132.004 127.2 135.3C128.167 137.965 129.703 140.388 131.7 142.4C133.628 144.24 135.955 145.609 138.5 146.4C141.179 147.277 143.981 147.716 146.8 147.7C148.3 147.7 149.7 147.6 151 147.5C152.222 147.594 153.45 147.424 154.6 147Z" fill="#FF3366"/>
    </g>
    <defs>
        <clipPath id="clip0_5_66">
            <rect width="240" height="234" fill="white"/>
        </clipPath>
    </defs>
</svg>