<?xml version="1.0" encoding="UTF-8"?>
<svg id="a" data-name="Capa 1" xmlns="http://www.w3.org/2000/svg" viewBox="0 0 43 56">
  <path d="M30.49,0H1.46C.66,0,0,.65,0,1.93v53.07c0,.35.65,1,1.46,1h40.07c.81,0,1.46-.65,1.46-1V12.98c0-.7-.09-.92-.26-1.09L31.11.26c-.16-.16-.39-.26-.62-.26Z" fill="#e9e9e0"/>
  <polygon points="31 .15 31 12 42.85 12 31 .15" fill="#d9d7ca"/>
  <circle cx="12.43" cy="14.43" r="4.57" fill="#f3d55b"/>
  <polygon points="0 39 11 39 43 39 43 28 33 18.5 22.5 30 17.02 24.52 0 39" fill="#26b99a"/>
  <path d="M41.54,56H1.46c-.81,0-1.46-.65-1.46-1.46v-15.54h43v15.54c0,.81-.65,1.46-1.46,1.46Z" fill="#14a085"/>
  <g>
    <path d="M14.93,42.65v7.85c0,.47-.09.87-.26,1.2-.17.32-.41.58-.7.78-.29.2-.63.33-1,.41-.38.08-.77.12-1.17.12-.2,0-.44-.02-.7-.06-.27-.04-.55-.1-.83-.19s-.56-.19-.83-.29c-.27-.11-.49-.23-.67-.37l.7-1.11c.09.06.22.13.39.2.17.07.35.13.55.19.2.06.41.11.63.16s.42.07.61.07c.48,0,.87-.09,1.16-.28s.44-.5.46-.95v-7.71h1.67Z" fill="#fff"/>
    <path d="M19.01,52.93h-1.64v-10.08h2.9c.43,0,.85.07,1.27.21s.8.34,1.13.62c.33.27.6.6.81.99s.31.82.31,1.31c0,.51-.09.97-.26,1.39s-.42.76-.73,1.05-.68.5-1.12.66-.92.23-1.45.23h-1.22v3.64h0ZM19.01,44.1v3.99h1.5c.2,0,.4-.03.59-.1.2-.07.38-.18.54-.33s.3-.37.4-.65.15-.62.15-1.03c0-.16-.02-.35-.07-.57-.05-.21-.14-.42-.28-.62-.14-.2-.34-.36-.59-.49-.26-.13-.59-.2-1.01-.2h-1.23Z" fill="#fff"/>
    <path d="M33,47.74v3.9c-.21.26-.44.48-.7.65s-.53.31-.82.42-.58.19-.89.23c-.31.05-.61.07-.91.07-.6,0-1.15-.11-1.66-.33s-.95-.54-1.33-.97-.67-.97-.89-1.61-.32-1.4-.32-2.24.11-1.59.32-2.24c.21-.64.51-1.18.89-1.61.38-.43.82-.75,1.33-.98.51-.22,1.06-.33,1.65-.33.55,0,1.06.09,1.53.27.47.18.9.46,1.27.82l-1.13,1.01c-.22-.26-.47-.46-.75-.57-.28-.12-.57-.18-.88-.18-.34,0-.66.06-.96.19-.31.13-.58.34-.82.65-.24.31-.43.7-.57,1.18s-.21,1.08-.22,1.78c0,.68.08,1.28.21,1.78s.31.91.55,1.23.5.56.79.71c.3.15.61.23.94.23.1,0,.23,0,.4-.02.17-.01.34-.04.51-.07.17-.03.33-.08.49-.13s.27-.13.34-.23v-2.49h-1.71v-1.12h3.34Z" fill="#fff"/>
  </g>
</svg>