<?xml version="1.0" encoding="UTF-8"?>
<svg id="a" data-name="Capa 1" xmlns="http://www.w3.org/2000/svg" viewBox="0 0 43 56">
  <path d="M30.49,0H1.46C.66,0,0,.65,0,1.93v53.07c0,.35.65,1,1.46,1h40.07c.81,0,1.46-.65,1.46-1V12.98c0-.7-.09-.92-.26-1.09L31.11.26c-.16-.16-.39-.26-.62-.26Z" fill="#e9e9e0"/>
  <polygon points="31 .15 31 12 42.85 12 31 .15" fill="#d9d7ca"/>
  <path d="M41.54,56H1.46c-.81,0-1.46-.65-1.46-1.46v-15.54h43v15.54c0,.81-.65,1.46-1.46,1.46Z" fill="#7d6599"/>
  <path d="M29.17,14.99c-.57-.8-1.3-1.54-2.31-2.35-3.91-3.13-4.76-6.28-4.86-6.74v-.9c0-.55-.45-1-1-1s-1,.45-1,1v18.41h-3.71c-3.88,0-6.29,1.96-6.29,5.12,0,3.47,2.24,5.71,5.71,5.71s6.29-2.82,6.29-6.29v-11.47l.3.24c.34.34.86.72,1.52,1.2,2.32,1.71,6.2,4.57,5.22,7.79-.03.1-.04.19-.04.29,0,.43.28.83.71.96.1.03.19.04.29.04.43,0,.83-.28.96-.71,1.63-5.38-.42-9.39-1.79-11.3ZM20,27.94c0,2.37-1.93,4.29-4.29,4.29s-3.71-1.35-3.71-3.71c0-2.58,2.33-3.12,4.29-3.12h3.71v2.53ZM25,16.31c-.57-.42-1.07-.78-1.37-1.08l-1.63-1.34v-3.47c.83,1.17,1.99,2.48,3.61,3.78.86.69,1.47,1.31,1.93,1.95.72,1,1.43,2.34,1.79,3.98-1.33-1.61-3.08-2.9-4.32-3.82Z" fill="#c8bdb8"/>
  <g>
    <path d="M15.9,42.92h1.67v10.08h-1.67v-6.93l-2.26,5.6h-1.45l-2.27-5.6v6.93h-1.67v-10.08h1.67l2.99,6.89,2.98-6.89Z" fill="#fff"/>
    <path d="M21.71,53h-1.64v-10.08h2.9c.43,0,.85.07,1.27.21s.8.34,1.13.62.6.6.81.99.31.82.31,1.31c0,.51-.09.97-.26,1.39s-.42.76-.73,1.05-.68.5-1.12.66-.92.23-1.45.23h-1.22v3.64h0ZM21.71,44.17v3.99h1.5c.2,0,.4-.03.59-.1s.38-.18.54-.33.3-.37.4-.65.15-.62.15-1.03c0-.16-.02-.35-.07-.57s-.14-.42-.28-.62-.34-.36-.59-.49-.59-.2-1.01-.2h-1.23Z" fill="#fff"/>
    <path d="M32.12,47.69c.21.03.43.1.65.21s.43.26.62.47.35.44.48.73.19.62.19.99c0,.46-.07.85-.2,1.18s-.3.61-.5.83-.43.4-.68.53-.49.23-.73.29-.45.1-.65.12-.35.03-.46.03c-.77,0-1.37-.05-1.81-.16s-.75-.21-.92-.32l.37-1.18c.08.05.16.1.23.15s.18.11.31.16.33.09.57.12.58.05,1.01.05c.63,0,1.1-.17,1.41-.51s.47-.77.47-1.29c0-.49-.14-.91-.42-1.24s-.7-.51-1.24-.51h-1.4.01v-1.11s.92,0,.92,0c.2,0,.4,0,.61-.01s.4-.06.58-.15.33-.25.45-.47.18-.53.18-.94c0-.16-.01-.34-.04-.52s-.1-.35-.23-.51-.3-.28-.54-.38-.56-.14-.98-.14-.75.04-1.01.12-.44.14-.57.19l-.48-1.23c.22-.06.49-.13.81-.21s.79-.11,1.4-.11c.43,0,.83.05,1.22.16s.72.27,1.01.5.51.52.68.88.25.77.25,1.26c0,.28-.05.54-.15.77s-.23.44-.38.61-.33.32-.52.43-.37.19-.53.23Z" fill="#fff"/>
  </g>
</svg>