<svg width="240" height="234" viewBox="0 0 240 234" fill="none" xmlns="http://www.w3.org/2000/svg">
    <g clip-path="url(#clip0_5_60)">
        <path d="M42.5 -1.16568e-05H197.5C203.083 -0.00527336 208.612 1.09043 213.77 3.22439C218.929 5.35835 223.616 8.48868 227.564 12.4362C231.511 16.3838 234.642 21.071 236.776 26.2297C238.91 31.3884 240.005 36.9173 240 42.5V191.5C240.005 197.083 238.91 202.612 236.776 207.77C234.642 212.929 231.511 217.616 227.564 221.564C223.616 225.511 218.929 228.642 213.77 230.776C208.612 232.91 203.083 234.005 197.5 234H42.5C36.9173 234.005 31.3884 232.91 26.2297 230.776C21.071 228.642 16.3838 225.511 12.4362 221.564C8.48869 217.616 5.35836 212.929 3.2244 207.77C1.09044 202.612 -0.00526191 197.083 -2.12727e-07 191.5V42.5C-0.00526191 36.9173 1.09044 31.3884 3.2244 26.2297C5.35836 21.071 8.48869 16.3838 12.4362 12.4362C16.3838 8.48868 21.071 5.35835 26.2297 3.22439C31.3884 1.09043 36.9173 -0.00527336 42.5 -1.16568e-05Z" fill="#001E36"/>
        <path d="M54 164.1V61.2C54 60.5 54.3 60.1 55 60.1C56.7 60.1 58.3 60.1 60.6 60C62.9 59.9 65.5 59.9 68.2 59.8C70.9 59.7 73.8 59.7 76.9 59.6C80 59.5 83 59.5 86 59.5C94.2 59.5 101 60.5 106.6 62.6C111.62 64.3048 116.197 67.1059 120 70.8C123.222 74.0328 125.712 77.9207 127.3 82.2C128.814 86.3674 129.592 90.7662 129.6 95.2C129.6 103.8 127.6 110.9 123.6 116.5C119.581 122.092 113.971 126.344 107.5 128.7C100.7 131.2 93.2 132.1 85 132.1C82.6 132.1 81 132.1 80 132C79 131.9 77.6 131.9 75.7 131.9V164C75.7223 164.165 75.7114 164.332 75.6678 164.492C75.6242 164.652 75.5489 164.802 75.4463 164.933C75.3437 165.063 75.2159 165.172 75.0705 165.252C74.9252 165.333 74.7652 165.383 74.6 165.4H55.2C54.4 165.4 54 165 54 164.1ZM75.8 79.4V113C77.2 113.1 78.5 113.2 79.7 113.2H85C88.9038 113.205 92.7843 112.597 96.5 111.4C99.6879 110.463 102.536 108.622 104.7 106.1C106.8 103.6 107.8 100.2 107.8 95.8C107.894 92.6751 107.096 89.588 105.5 86.9C103.833 84.3036 101.38 82.3068 98.5 81.2C94.7459 79.7297 90.729 79.0488 86.7 79.2C84.1 79.2 81.8 79.2 79.9 79.3C78.5331 79.2106 77.1609 79.2441 75.8 79.4Z" fill="#31A8FF"/>
        <path d="M192 106.9C188.981 105.31 185.747 104.165 182.4 103.5C178.724 102.667 174.969 102.232 171.2 102.2C169.176 102.13 167.153 102.366 165.2 102.9C163.954 103.159 162.85 103.872 162.1 104.9C161.595 105.711 161.318 106.644 161.3 107.6C161.346 108.551 161.697 109.463 162.3 110.2C163.248 111.312 164.403 112.229 165.7 112.9C168 114.1 170.4 115.2 172.8 116.2C178.203 118.019 183.372 120.469 188.2 123.5C191.484 125.565 194.2 128.418 196.1 131.8C197.707 134.99 198.497 138.529 198.4 142.1C198.481 146.827 197.121 151.466 194.5 155.4C191.711 159.392 187.819 162.485 183.3 164.3C178.4 166.4 172.4 167.5 165.2 167.5C160.635 167.518 156.079 167.083 151.6 166.2C148.073 165.591 144.643 164.514 141.4 163C141.051 162.825 140.761 162.552 140.566 162.214C140.371 161.877 140.278 161.489 140.3 161.1V143.7C140.291 143.529 140.323 143.359 140.393 143.202C140.462 143.046 140.567 142.908 140.7 142.8C140.841 142.718 141.004 142.683 141.167 142.701C141.329 142.719 141.481 142.789 141.6 142.9C145.452 145.171 149.636 146.824 154 147.8C157.853 148.803 161.819 149.307 165.8 149.3C169.6 149.3 172.3 148.8 174.1 147.9C174.903 147.529 175.583 146.937 176.062 146.193C176.54 145.449 176.796 144.584 176.8 143.7C176.8 142.3 176 141 174.4 139.7C172.8 138.4 169.5 136.9 164.6 135C159.573 133.229 154.8 130.808 150.4 127.8C147.266 125.567 144.67 122.663 142.8 119.3C141.204 116.142 140.414 112.638 140.5 109.1C140.515 104.833 141.69 100.65 143.9 97C146.44 92.9856 150.087 89.7908 154.4 87.8C159.1 85.4 165 84.3 172.1 84.3C176.25 84.3012 180.394 84.6019 184.5 85.2C187.452 85.5995 190.342 86.3723 193.1 87.5C193.539 87.6557 193.899 87.9794 194.1 88.4C194.215 88.7904 194.282 89.1933 194.3 89.6V105.9C194.302 106.094 194.257 106.286 194.17 106.46C194.083 106.634 193.956 106.785 193.8 106.9C193.218 107.109 192.582 107.109 192 106.9Z" fill="#31A8FF"/>
    </g>
    <defs>
        <clipPath id="clip0_5_60">
            <rect width="240" height="234" fill="white"/>
        </clipPath>
    </defs>
</svg>