<?xml version="1.0" encoding="UTF-8"?>
<svg id="uuid-d2d4918a-1d31-445c-a5b9-f30da18bc2f6" data-name="Ebene 1" xmlns="http://www.w3.org/2000/svg" xmlns:xlink="http://www.w3.org/1999/xlink" viewBox="0 0 46.16 41.54">
  <defs>
    <linearGradient id="uuid-967464be-e76e-404f-9641-7d697ba48a37" data-name="Unbenannter Verlauf" x1=".68" y1="33.59" x2="21.66" y2="12.61" gradientTransform="translate(0 43.5) scale(1 -1)" gradientUnits="userSpaceOnUse">
      <stop offset="0" stop-color="#ca4e2a"/>
      <stop offset="1" stop-color="#b63016"/>
    </linearGradient>
  </defs>
  <path d="M4.62,20.77c0,11.47,9.3,20.77,20.77,20.77s20.77-9.3,20.77-20.77H4.62Z" fill="#d35230"/>
  <path d="M25.39,0v20.77h20.77C46.16,9.3,36.86,0,25.39,0Z" fill="#ff8f6b"/>
  <path d="M25.39,0C13.92,0,4.62,9.3,4.62,20.77h20.77V0Z" fill="#ed6c47"/>
  <path d="M25.39,12.33c0-2.35-1.9-4.25-4.25-4.25h-12.17c-2.72,3.51-4.36,7.91-4.36,12.69,0,5.9,2.48,11.22,6.43,15h10.09c2.35,0,4.25-1.9,4.25-4.25V12.33Z" isolation="isolate" opacity=".05"/>
  <path d="M21.02,8.46h-12.33c-2.54,3.45-4.07,7.7-4.07,12.31,0,5.33,2.02,10.17,5.32,13.85h11.08c1.99,0,3.6-1.61,3.6-3.6V12.06c0-1.99-1.61-3.6-3.6-3.6Z" isolation="isolate" opacity=".07"/>
  <path d="M20.89,8.85h-12.5c-2.37,3.38-3.78,7.48-3.78,11.92,0,4.79,1.64,9.18,4.36,12.69h11.92c1.63,0,2.95-1.32,2.95-2.95V11.8c0-1.63-1.32-2.95-2.95-2.95Z" isolation="isolate" opacity=".09"/>
  <path d="M20.77,32.31H2.31c-1.28,0-2.31-1.03-2.31-2.31V11.54c0-1.28,1.03-2.31,2.31-2.31h18.46c1.28,0,2.31,1.03,2.31,2.31v18.46c0,1.28-1.03,2.31-2.31,2.31Z" fill="url(#uuid-967464be-e76e-404f-9641-7d697ba48a37)"/>
  <path d="M12.32,15.02h-5.39v11.54h2.34v-4.06h2.63c2.16,0,3.92-1.76,3.92-3.92v-.07c0-1.93-1.56-3.49-3.49-3.49ZM13.35,18.88c0,.99-.8,1.8-1.8,1.8h-2.3v-3.84h2.3c.99,0,1.8.8,1.8,1.8v.25Z" fill="#fff"/>
</svg>