<?xml version="1.0" encoding="UTF-8"?>
<svg id="a" data-name="Capa 1" xmlns="http://www.w3.org/2000/svg" viewBox="0 0 43 56">
  <path d="M30.49,0H1.46C.66,0,0,.65,0,1.93v53.07c0,.35.65,1,1.46,1h40.07c.81,0,1.46-.65,1.46-1V12.98c0-.7-.09-.92-.26-1.09L31.11.26c-.16-.16-.39-.26-.62-.26Z" fill="#e9e9e0"/>
  <polygon points="31 .15 31 12 42.85 12 31 .15" fill="#d9d7ca"/>
  <path d="M41.54,56H1.46c-.81,0-1.46-.65-1.46-1.46v-15.54h43v15.54c0,.81-.65,1.46-1.46,1.46Z" fill="#f6712e"/>
  <g>
    <path d="M11.08,53h-1.64v-10.08h2.9c.43,0,.85.07,1.27.21s.8.34,1.13.62c.33.27.6.6.81.99s.31.82.31,1.31c0,.51-.09.97-.26,1.39s-.42.76-.73,1.05-.68.5-1.12.66-.92.23-1.45.23h-1.22v3.64h0ZM11.08,44.17v3.99h1.5c.2,0,.4-.03.59-.1.2-.07.38-.18.54-.33s.3-.37.4-.65.15-.62.15-1.03c0-.16-.02-.35-.07-.57-.05-.21-.14-.42-.28-.62-.14-.2-.34-.36-.59-.49s-.59-.2-1.01-.2h-1.23Z" fill="#fff"/>
    <path d="M19.35,53h-1.64v-10.08h2.9c.43,0,.85.07,1.27.21s.8.34,1.13.62c.33.27.6.6.81.99s.31.82.31,1.31c0,.51-.09.97-.26,1.39s-.42.76-.73,1.05-.68.5-1.12.66-.92.23-1.45.23h-1.22v3.64h0ZM19.35,44.17v3.99h1.5c.2,0,.4-.03.59-.1.2-.07.38-.18.54-.33s.3-.37.4-.65.15-.62.15-1.03c0-.16-.02-.35-.07-.57-.05-.21-.14-.42-.28-.62-.14-.2-.34-.36-.59-.49s-.59-.2-1.01-.2h-1.23Z" fill="#fff"/>
    <path d="M33.11,42.92v1.12h-3.01v8.96h-1.65v-8.96h-3.01v-1.12h7.67Z" fill="#fff"/>
  </g>
  <path d="M33,30H9V14h24v16ZM11,28h20v-12H11v12Z" fill="#c8bdb8"/>
  <path d="M14,35c-.17,0-.35-.05-.51-.14-.47-.28-.63-.9-.34-1.37l3-5c.28-.47.9-.63,1.37-.34.47.28.63.9.34,1.37l-3,5c-.19.31-.52.49-.86.49Z" fill="#c8bdb8"/>
  <path d="M28,35c-.34,0-.67-.17-.86-.49l-3-5c-.28-.47-.13-1.09.34-1.37.47-.28,1.09-.13,1.37.34l3,5c.28.47.13,1.09-.34,1.37-.16.1-.34.14-.51.14Z" fill="#c8bdb8"/>
  <path d="M21,16c-.55,0-1-.45-1-1v-3c0-.55.45-1,1-1s1,.45,1,1v3c0,.55-.45,1-1,1Z" fill="#c8bdb8"/>
  <rect x="11" y="16" width="20" height="12" fill="#d3ccc9"/>
</svg>