<?xml version="1.0" encoding="UTF-8"?>
<svg id="a" data-name="Capa 1" xmlns="http://www.w3.org/2000/svg" viewBox="0 0 43 56">
  <defs>
    <style>
      .b {
        fill: #8f8f8f;
      }

      .c {
        fill: #666a75;
      }

      .d {
        fill: #e9e9e0;
      }

      .e {
        fill: #d9d7ca;
      }
    </style>
  </defs>
  <g>
    <path class="d" d="M30.49,0H1.46C.66,0,0,.65,0,1.93v53.07c0,.35.65,1,1.46,1h40.07c.81,0,1.46-.65,1.46-1V12.98c0-.7-.09-.92-.26-1.09L31.11.26c-.16-.16-.39-.26-.62-.26Z"/>
    <polygon class="e" points="31 .15 31 12 42.85 12 31 .15"/>
    <path class="c" d="M41.54,56H1.46c-.81,0-1.46-.65-1.46-1.46v-15.54h43v15.54c0,.81-.65,1.46-1.46,1.46Z"/>
  </g>
  <path class="b" d="M18.71,37.19l-.12-1.56c-.36-3.24.72-6.78,3.72-10.38,2.7-3.18,4.2-5.52,4.2-8.22,0-3.06-1.92-5.1-5.7-5.16-2.16,0-4.56.72-6.06,1.86l-1.44-3.78c1.98-1.44,5.4-2.4,8.58-2.4,6.9,0,10.02,4.26,10.02,8.82,0,4.08-2.28,7.02-5.16,10.44-2.64,3.12-3.6,5.76-3.42,8.82l.06,1.56h-4.68ZM17.39,45.59c0-2.22,1.5-3.78,3.6-3.78s3.54,1.56,3.54,3.78c0,2.1-1.38,3.72-3.6,3.72-2.1,0-3.54-1.62-3.54-3.72Z"/>
</svg>