<?xml version="1.0" encoding="UTF-8"?>
<svg id="uuid-1f2eb136-98c9-4264-8f7d-13998fbeda54" data-name="Ebene 1" xmlns="http://www.w3.org/2000/svg" xmlns:xlink="http://www.w3.org/1999/xlink" viewBox="0 0 45.8 36.9">
  <defs>
    <radialGradient id="uuid-18db88f6-450a-4076-8d34-82c596bcf87b" data-name="Unbenannter Verlauf" cx="-42.2" cy="1018.88" fx="-42.2" fy="1018.88" r="48.5" gradientTransform="translate(90.22 -1083.84) scale(1.1)" gradientUnits="userSpaceOnUse">
      <stop offset="0" stop-color="#9e6fd9"/>
      <stop offset=".2" stop-color="#aa73c7"/>
      <stop offset=".5" stop-color="#ca7f97"/>
      <stop offset="1" stop-color="#fc914d"/>
    </radialGradient>
    <radialGradient id="uuid-1ac309d5-3f80-4574-83ff-f5c1e14e8921" data-name="Unbenannter Verlauf 2" cx="-77.8" cy="994.98" fx="-77.8" fy="994.98" r="36.1" gradientTransform="translate(90.22 -1083.84) scale(1.1)" gradientUnits="userSpaceOnUse">
      <stop offset="0" stop-color="#4b4b4b"/>
      <stop offset=".5" stop-color="#393939"/>
      <stop offset="1" stop-color="#252525"/>
    </radialGradient>
  </defs>
  <path d="M43.4.1H2.3C1,.1,0,1.1,0,2.3v32.4c0,1.2,1,2.2,2.3,2.2h41.2c1.3,0,2.3-1,2.3-2.2V2.2c0-1.2-1-2.2-2.3-2.2l-.1.1Z" fill="url(#uuid-18db88f6-450a-4076-8d34-82c596bcf87b)"/>
  <rect x="3.4" y="6.6" width="38.9" height="27" fill="url(#uuid-1ac309d5-3f80-4574-83ff-f5c1e14e8921)"/>
  <polygon points="40 .1 35.4 .1 37.7 3.3 35.4 6.6 40 6.6 42.3 3.3 40 .1" fill="#af4e63"/>
  <polygon points="29.7 .1 25.1 .1 27.4 3.3 25.1 6.6 29.7 6.6 32 3.3 29.7 .1" fill="#af4e63"/>
  <polygon points="19.4 .1 14.8 .1 17.1 3.3 14.8 6.6 19.4 6.6 21.7 3.3 19.4 .1" fill="#af4e63"/>
  <polygon points="9.1 .1 4.5 .1 6.8 3.3 4.5 6.6 9.1 6.6 11.4 3.3 9.1 .1" fill="#af4e63"/>
  <path d="M32.4,18.4l-13.1-8.2c-.7-.4-1.5-.5-2.2-.1-.7.4-1.1,1-1.1,1.8v16.5c0,.7.4,1.4,1.1,1.8.3.2.7.2,1,.2s.8-.1,1.2-.3l13.1-8.2c.6-.4,1-1,1-1.7s-.4-1.3-1-1.7v-.1Z" isolation="isolate" opacity="0"/>
  <path d="M19,10.6l12.3,7.8c.8.5,1.3,1,1.3,1.6s-.3,1.1-.8,1.4c-.4.3-12.6,8-12.6,8-1,.7-2.7.5-2.7-1.6v-15.5c0-2.2,1.8-2.1,2.5-1.6v-.1Z" isolation="isolate" opacity="0"/>
  <path d="M17.1,28.2V11.9c0-.8.9-1.3,1.7-.8l13,8.2c.6.4.6,1.3,0,1.7l-13,8.2c-.7.4-1.7,0-1.7-.8v-.2Z" fill="#fff"/>
</svg>