<?xml version="1.0" encoding="UTF-8"?>
<svg id="a" data-name="Capa 1" xmlns="http://www.w3.org/2000/svg" viewBox="0 0 43 56">
  <path d="M30.49,0H1.46C.66,0,0,.65,0,1.93v53.07c0,.35.65,1,1.46,1h40.07c.81,0,1.46-.65,1.46-1V12.98c0-.7-.09-.92-.26-1.09L31.11.26c-.16-.16-.39-.26-.62-.26Z" fill="#e9e9e0"/>
  <polygon points="31 .15 31 12 42.85 12 31 .15" fill="#d9d7ca"/>
  <path d="M41.54,56H1.46c-.81,0-1.46-.65-1.46-1.46v-15.54h43v15.54c0,.81-.65,1.46-1.46,1.46Z" fill="#91cda0"/>
  <g>
    <path d="M13.88,48.1l2.56,4.9h-1.9l-1.6-3.8h-.14l-1.72,3.8h-1.9l2.56-4.9-2.72-5.18h1.87l1.78,4.1h.14l1.93-4.1h1.87l-2.72,5.18Z" fill="#fff"/>
    <path d="M20.54,42.92v8.83h4.64v1.24h-6.3v-10.08h1.67Z" fill="#fff"/>
    <path d="M32.54,50.24c0,.36-.08.72-.23,1.06s-.36.64-.63.9-.61.47-1.01.62c-.4.15-.86.23-1.37.23-.22,0-.44-.01-.68-.03s-.47-.06-.7-.12c-.24-.06-.46-.13-.68-.23-.21-.1-.4-.21-.55-.35l.29-1.18c.13.07.29.14.49.21s.4.13.61.19c.21.06.42.11.63.14.21.04.4.06.59.06.56,0,.98-.13,1.28-.39s.44-.65.44-1.15c0-.31-.1-.57-.31-.79-.21-.22-.47-.42-.79-.6s-.65-.35-1.02-.53-.71-.39-1.03-.63c-.32-.24-.58-.53-.79-.85s-.31-.74-.31-1.23c0-.45.08-.84.25-1.19s.38-.64.66-.88.6-.43.97-.55.76-.19,1.17-.19.84.04,1.27.12.77.2,1.04.38c-.06.12-.12.25-.19.39-.07.14-.14.27-.21.4-.06.12-.12.23-.16.31-.05.08-.07.13-.08.14-.06-.03-.12-.06-.19-.11s-.17-.09-.29-.14c-.13-.05-.3-.08-.51-.1s-.48-.01-.81.01c-.18.02-.35.07-.52.16s-.31.19-.44.32-.23.27-.3.43c-.07.16-.11.31-.11.46,0,.36.1.66.31.88.21.22.47.42.78.59.31.17.65.33,1.01.49.36.16.7.35,1.02.58s.58.51.79.85c.21.34.32.78.32,1.32Z" fill="#fff"/>
  </g>
  <path d="M17,16v-4H5v22h33v-18h-21ZM7,14h8v2H7v-2ZM7,18h8v2H7v-2ZM7,22h8v2H7v-2ZM7,26h8v2H7v-2ZM15,32H7v-2h8v2ZM36,32h-19v-2h19v2ZM36,28h-19v-2h19v2ZM36,24h-19v-2h19v2ZM17,20v-2h19v2h-19Z" fill="#c8bdb8"/>
</svg>