<?xml version="1.0" encoding="UTF-8"?>
<svg id="a" data-name="Capa 1" xmlns="http://www.w3.org/2000/svg" viewBox="0 0 43 56">
  <path d="M30.49,0H1.46C.66,0,0,.65,0,1.93v53.07c0,.35.65,1,1.46,1h40.07c.81,0,1.46-.65,1.46-1V12.98c0-.7-.09-.92-.26-1.09L31.11.26c-.16-.16-.39-.26-.62-.26Z" fill="#e9e9e0"/>
  <polygon points="31 .15 31 12 42.85 12 31 .15" fill="#d9d7ca"/>
  <path d="M41.54,56H1.46c-.81,0-1.46-.65-1.46-1.46v-15.54h43v15.54c0,.81-.65,1.46-1.46,1.46Z" fill="#f29c1f"/>
  <g>
    <path d="M12.88,48.1l2.56,4.9h-1.9l-1.6-3.8h-.14l-1.72,3.8h-1.9l2.56-4.9-2.72-5.18h1.87l1.78,4.1h.14l1.93-4.1h1.87l-2.72,5.18Z" fill="#fff"/>
    <path d="M25.5,42.92h1.67v10.08h-1.67v-6.93l-2.26,5.6h-1.45l-2.27-5.6v6.93h-1.67v-10.08h1.67l2.99,6.89,2.98-6.89Z" fill="#fff"/>
    <path d="M31.36,42.92v8.83h4.64v1.24h-6.3v-10.08h1.67Z" fill="#fff"/>
  </g>
  <path d="M9,24c-.26,0-.51-.1-.71-.29-.39-.39-.39-1.02,0-1.41l6-6c.39-.39,1.02-.39,1.41,0,.39.39.39,1.02,0,1.41l-6,6c-.19.19-.45.29-.71.29Z" fill="#f29c1f"/>
  <path d="M15,30c-.26,0-.51-.1-.71-.29l-6-6c-.39-.39-.39-1.02,0-1.41s1.02-.39,1.41,0l6,6c.39.39.39,1.02,0,1.41-.19.19-.45.29-.71.29Z" fill="#f29c1f"/>
  <path d="M27,30c-.26,0-.51-.1-.71-.29-.39-.39-.39-1.02,0-1.41l6-6c.39-.39,1.02-.39,1.41,0s.39,1.02,0,1.41l-6,6c-.19.19-.45.29-.71.29Z" fill="#f29c1f"/>
  <path d="M33,24c-.26,0-.51-.1-.71-.29l-6-6c-.39-.39-.39-1.02,0-1.41s1.02-.39,1.41,0l6,6c.39.39.39,1.02,0,1.41-.19.19-.45.29-.71.29Z" fill="#f29c1f"/>
  <path d="M18,32c-.11,0-.22-.02-.33-.06-.52-.18-.79-.75-.61-1.28l6-17c.18-.52.75-.8,1.28-.61.52.18.79.76.61,1.28l-6,17c-.15.41-.53.67-.94.67Z" fill="#f29c1f"/>
</svg>