<?xml version="1.0" encoding="UTF-8"?>
<svg id="a" data-name="Capa 1" xmlns="http://www.w3.org/2000/svg" viewBox="0 0 43 56">
  <path d="M30.49,0H1.46C.66,0,0,.65,0,1.93v53.07c0,.35.65,1,1.46,1h40.07c.81,0,1.46-.65,1.46-1V12.98c0-.7-.09-.92-.26-1.09L31.11.26c-.16-.16-.39-.26-.62-.26Z" fill="#e9e9e0"/>
  <polygon points="31 .15 31 12 42.85 12 31 .15" fill="#d9d7ca"/>
  <g>
    <rect x="20" y="42" width="2" height="14" fill="#c8bdb8"/>
    <polygon points="24 23 24 21 22 21 22 19 20 19 20 21 18 21 18 23 20 23 20 25 18 25 18 27 20 27 20 29 18 29 18 31 20 31 20 34 22 34 22 31 24 31 24 29 22 29 22 27 24 27 24 25 22 25 22 23 24 23" fill="#c8bdb8"/>
  </g>
  <g>
    <rect x="17" y="34" width="8" height="8" fill="#cbb292"/>
    <path d="M26,43h-10v-10h10v10ZM18,41h6v-6h-6v6Z" fill="#5e5f62"/>
  </g>
  <rect x="17" y="36" width="8" height="2" fill="#5e5f62"/>
</svg>