<?xml version="1.0" ?><svg height="60px" version="1.1" viewBox="0 0 60 60" width="60px" xmlns="http://www.w3.org/2000/svg" xmlns:sketch="http://www.bohemiancoding.com/sketch/ns" xmlns:xlink="http://www.w3.org/1999/xlink"><title/><desc/><defs/><g fill="none" fill-rule="evenodd" id="soical" stroke="none" stroke-width="1"><g id="social" transform="translate(-1073.000000, -538.000000)"><g id="slices" transform="translate(173.000000, 138.000000)"/><g fill="#000000" id="square-black" transform="translate(173.000000, 138.000000)"><path d="M902.995937,400 L957.004063,400 C958.658673,400 960,401.33731 960,402.995937 L960,457.004063 C960,458.658673 958.66269,460 957.004063,460 L902.995937,460 C901.341327,460 900,458.66269 900,457.004063 L900,402.995937 C900,401.341327 901.33731,400 902.995937,400 Z" id="square-50"/></g><g fill="#FFFFFF" id="icon" transform="translate(182.000000, 150.000000)"><path d="M938.953711,419.874362 C938.644678,426.274223 932.059556,431.912282 921.778014,431.97377 C917.374091,432.00092 914.653881,431.234725 912.800879,430.499673 C912.660337,430.444574 912.601645,430.40345 912.606436,430.336772 C912.622407,430.265703 912.698667,430.265703 912.881531,430.307626 C917.424798,431.388443 919.037041,429.554208 918.273641,428.17873 C917.429989,426.65233 911.660171,426.752147 907.541326,423.887002 L907.578857,423.79517 C907.578857,423.79517 907.851158,423.141969 907.931411,422.962298 C907.996092,422.811375 908.055583,422.737111 908.216488,422.739107 L913.210927,422.739107 C913.366242,422.736712 913.440506,422.811375 913.529942,423.00462 C913.632155,423.240987 914.036213,424.22598 914.036213,424.22598 C914.037012,424.231969 914.37599,425.133516 915.219643,425.163062 C915.426863,425.171845 916.145944,425.082409 916.383508,424.33498 C916.452182,424.119376 916.445794,423.932119 916.415849,423.790779 C916.403072,423.714918 916.383508,423.658621 916.36634,423.607115 C916.345178,423.558005 916.327611,423.52287 916.318827,423.498115 C916.254944,423.361166 911.183845,412.016774 911.172666,411.988825 C911.07205,411.764836 910.963849,411.579176 910.725885,411.579176 C910.611295,411.576781 910.531841,411.622697 910.467958,411.692968 C910.430826,411.733294 910.400881,411.776015 910.36894,411.826323 C910.338595,411.881422 910.308251,411.93732 910.279105,411.993616 C910.225203,412.100221 907.282201,418.666976 905.867596,421.825982 L905.67475,422.259188 C905.191636,421.733352 904.958064,421.375608 904.958064,421.375608 C904.023378,420.139875 903.160561,418.096822 903.052759,416.346832 C902.617557,409.232281 909.57839,403.572262 919.905448,404.054178 C929.434371,404.499761 939.373341,411.128802 938.953711,419.874362 Z M920.225661,423.791178 L920.225661,412.943474 C920.225661,412.065085 919.746141,411.68059 918.924048,411.68059 C918.100758,411.68059 917.61485,412.065085 917.61485,412.943474 L917.61485,423.791178 C917.61485,424.670764 918.096366,425.050069 918.918459,425.050069 C919.74095,425.050069 920.225661,424.670764 920.225661,423.791178 L920.225661,423.791178 Z M935.490862,423.791178 L935.490862,412.943474 C935.490862,412.065085 935.026115,411.68059 934.204821,411.68059 C933.762832,411.68059 933.426648,411.795579 933.208249,412.019968 C933.084875,412.140946 932.975077,412.301052 932.878055,412.507075 L929.072235,420.930026 L925.354254,412.507075 C925.25843,412.301052 925.146635,412.140946 925.025657,412.019968 C924.803664,411.795579 924.46788,411.68059 924.027089,411.68059 C923.203,411.68059 922.743044,412.065085 922.743044,412.943474 L922.743044,423.791178 C922.743044,424.670764 923.247319,425.050069 924.069012,425.050069 C924.891902,425.050069 925.368229,424.670764 925.368229,423.791178 L925.368229,418.718482 L927.906373,423.89898 C928.121579,424.285471 928.539612,424.725863 929.062253,424.712688 C929.6368,424.725863 930.089968,424.307032 930.340309,423.887002 L932.868472,418.733654 L932.868472,423.791577 C932.868472,424.671164 933.342802,425.050468 934.163697,425.050468 C934.987785,425.050069 935.490862,424.670764 935.490862,423.791178 L935.490862,423.791178 Z M912.216751,420.496421 L909.221045,420.496421 C909.07132,420.496421 909.063334,420.347893 909.09328,420.277223 L910.549009,416.840327 L910.56498,416.803594 C910.572966,416.782433 910.580552,416.763268 910.591332,416.747297 C910.607702,416.723741 910.647629,416.660257 910.719098,416.660257 C910.790566,416.660257 910.828896,416.723741 910.846464,416.747297 L910.870819,416.803594 L910.889984,416.837931 L912.339725,420.272432 C912.390831,420.383827 912.347311,420.496421 912.216751,420.496421 L912.216751,420.496421 Z" id="aim"/></g></g></g></svg>