<?xml version="1.0" ?><svg height="60px" version="1.1" viewBox="0 0 60 60" width="60px" xmlns="http://www.w3.org/2000/svg" xmlns:sketch="http://www.bohemiancoding.com/sketch/ns" xmlns:xlink="http://www.w3.org/1999/xlink"><title/><desc/><defs/><g fill="none" fill-rule="evenodd" id="soical" stroke="none" stroke-width="1"><g id="social" transform="translate(-673.000000, -338.000000)"><g id="slices" transform="translate(173.000000, 138.000000)"/><g fill="#000000" id="square-black" transform="translate(173.000000, 138.000000)"><path d="M502.995937,200 L557.004063,200 C558.658673,200 560,201.33731 560,202.995937 L560,257.004063 C560,258.658673 558.66269,260 557.004063,260 L502.995937,260 C501.341327,260 500,258.66269 500,257.004063 L500,202.995937 C500,201.341327 501.33731,200 502.995937,200 Z" id="square-26"/></g><g fill="#FFFFFF" id="icon" transform="translate(182.000000, 150.000000)"><g id="app_store" transform="translate(502.538462, 200.692308)"><path d="M1.15384615,17.3076923 L1.15384615,21.9230769 L3.23303199,21.9230769 L5.76923077,17.3076923 L1.15384615,17.3076923 Z M11.5401005,17.3076923 L8.91301901,21.9230769 L27.0911071,21.9230769 L24.3761273,17.3076923 L11.5401005,17.3076923 Z M30,17.3076923 L32.646655,21.9230769 L36.9230769,21.9230769 L36.9230769,17.3076923 L30,17.3076923 Z" id="Rectangle"/><path d="M10.3846154,2.88461538 C10.3846154,2.88461538 10.3846154,2.30769231 9.51923077,2.30769231 L7.78846154,2.30769231 C6.92307692,2.30769231 6.92307692,2.88461538 6.92307692,2.88461538 L6.92307692,3.46153846 L10.3846154,3.46153846 L10.3846154,2.88461538 Z M6.92307692,4.61538462 L6.92307692,27.6923077 L10.3846154,27.6923077 L10.3846154,4.61538462 L6.92307692,4.61538462 Z M6.92307692,28.8461538 L8.65384615,32.3076923 L10.3846154,28.8461538 L6.92307692,28.8461538 Z" id="Rectangle-76" transform="translate(8.653846, 17.307692) rotate(30.000000) translate(-8.653846, -17.307692) "/><path d="M25.0961538,-1.15384615 C25.0961538,-1.15384615 24.2307692,-1.15384615 24.2307692,0.0745847458 C24.2307692,7.4355483 24.2307692,21.9230769 24.2307692,21.9230769 L27.6923077,21.9230769 C27.6923077,21.9230769 27.6923077,1.30301558 27.6923077,0.0745847133 C27.6923077,-1.15384615 26.8269231,-1.15384615 26.8269231,-1.15384615 L25.0961538,-1.15384615 Z M24.2307692,23.0769231 L24.2307692,25.3846154 L27.6923077,25.3846154 L27.6923077,23.0769231 L24.2307692,23.0769231 Z M25.9966941,31.1538462 C27.6729415,30.44498 28.2692307,28.8094707 28.2692308,27.8313784 C28.2692308,26.8532862 27.6729416,26.5384615 27.6729416,26.5384615 L24.0424684,26.5384615 C24.0424684,26.5384615 23.5053427,27.3548696 23.6940236,28.0436761 C24.0072125,29.187017 25.6522379,29.3521021 25.9966941,31.1538462 Z" id="Rectangle-76" transform="translate(26.538462, 15.000000) rotate(-30.000000) translate(-26.538462, -15.000000) "/></g></g></g></g></svg>