<?xml version="1.0" ?><svg height="60px" version="1.1" viewBox="0 0 60 60" width="60px" xmlns="http://www.w3.org/2000/svg" xmlns:sketch="http://www.bohemiancoding.com/sketch/ns" xmlns:xlink="http://www.w3.org/1999/xlink"><title/><desc/><defs/><g fill="none" fill-rule="evenodd" id="soical" stroke="none" stroke-width="1"><g id="social" transform="translate(-1073.000000, -138.000000)"><g id="slices" transform="translate(173.000000, 138.000000)"/><g fill="#000000" id="square-black" transform="translate(173.000000, 138.000000)"><path d="M902.995937,0 L957.004063,0 C958.658673,0 960,1.33730974 960,2.99593743 L960,57.0040626 C960,58.6586731 958.66269,60 957.004063,60 L902.995937,60 C901.341327,60 900,58.6626903 900,57.0040626 L900,2.99593743 C900,1.34132688 901.33731,0 902.995937,0 Z" id="square-10"/></g><g fill="#FFFFFF" id="icon" transform="translate(182.000000, 150.000000)"><path d="M902.694369,26.0649368 C902.954057,26.4385334 903.234668,26.7977302 903.53374,27.142127 C904.131474,27.8289208 904.805104,28.4513152 905.533708,29.0037102 C907.084452,30.1776995 908.873141,31.0200919 910.731572,31.6128866 C912.881281,32.3000803 915.12986,32.666477 917.378849,32.8488754 C919.987627,33.0604734 922.631687,33.0576735 925.234722,32.7908759 C927.64617,32.5436781 930.048593,32.0548825 932.307838,31.1796905 C934.307806,30.4044975 936.147366,29.2977075 937.755545,27.8981202 C938.171128,27.5349235 938.573583,27.147327 938.905065,26.706531 C939.184855,26.3341344 939.409262,25.9225381 939.449466,25.4553423 C939.495414,24.9077473 939.403108,24.3505523 939.292341,23.8161572 C939.169266,23.2237625 939.007627,22.6405678 938.854604,22.0553731 C938.79799,21.842175 938.743837,21.628977 938.694607,21.4145789 C938.104667,18.8790019 937.203759,16.4098242 935.980394,14.1002452 C934.943693,12.1434629 933.664124,10.2958796 932.17902,8.63749465 C930.791965,7.08830868 929.178043,5.73352095 927.324945,4.74632989 C926.340755,4.22233464 925.299952,3.80433842 924.227969,3.49074126 C923.648696,3.3207428 923.059578,3.18114407 922.465946,3.06834509 C922.313744,3.03914535 922.1599,3.00154569 922.004826,3.00154569 L921.416117,3.00154569 L920.283828,3.00154569 C920.111523,3.00154569 919.937577,2.99354577 919.766093,3.01394558 C919.608146,3.03234541 919.4502,3.05434521 919.292254,3.07954499 C918.991541,3.12754455 918.692469,3.18594402 918.395448,3.2551434 C917.80674,3.39314215 917.227877,3.57314052 916.664194,3.78913856 C915.537238,4.22113465 914.469358,4.79592944 913.473271,5.46592337 C911.526636,6.77471152 909.835997,8.44069643 908.41284,10.2790798 C906.903942,12.2290621 905.698628,14.3966425 904.767361,16.663022 C903.777428,19.0734001 903.093952,21.5989772 902.671395,24.162554 C902.616832,24.4913511 902.538474,24.832948 902.538474,25.1661449 L902.538474,25.7025401 C902.538474,25.7885393 902.536423,25.8345389 902.584832,25.9057382 C902.621755,25.9593378 902.657036,26.0117373 902.694369,26.0649368 L902.694369,26.0649368 Z M905.100484,24.4753512 C905.131663,24.3057527 905.168175,24.1373543 905.20838,23.9697558 C905.285096,23.6553586 905.377402,23.3445614 905.485298,23.0377642 C905.89883,21.8589749 906.52364,20.7653848 907.193988,19.7097944 C907.527111,19.1861991 907.868439,18.6678038 908.207716,18.1482085 C908.553966,17.6174133 908.907191,17.0898181 909.304723,16.5942226 C909.949636,15.7894299 910.743059,14.9218377 911.771555,14.5978407 C913.216865,14.1430448 914.297873,15.6098315 915.133962,16.5154233 C915.609852,17.0294186 916.122254,17.5706137 916.777423,17.8638111 C917.079367,17.9990099 917.408387,18.0686092 917.740689,18.0486094 C918.225194,18.0186097 918.654726,17.6942126 919.014925,17.4026153 C920.001986,16.6042225 920.807306,15.5954316 921.576115,14.6014406 C922.417537,13.5134505 923.230242,12.4026605 924.192688,11.4114695 C924.587348,11.0054732 925.007854,10.4666781 925.573178,10.2870797 C925.831225,10.2050804 926.112656,10.2302802 926.358396,10.3406792 C926.492958,10.4010787 926.616033,10.4862779 926.722698,10.587077 C926.843722,10.701476 926.987719,10.7914751 927.122691,10.8906742 C928.15529,11.6526673 929.110352,12.5134595 930.012901,13.4186513 C930.798119,14.2058442 931.543543,15.0298367 932.257378,15.880229 C932.952751,16.7110215 933.621868,17.5570139 934.197449,18.4742056 C934.896925,19.5913954 935.488505,20.7661848 936.139981,21.9097744 C936.734433,22.952965 937.335449,24.1593541 936.741818,25.3357434 C936.710639,25.3977428 936.676588,25.4601423 936.640076,25.5193417 C935.586554,27.257326 933.685457,28.3397162 931.808564,29.0481098 C929.548088,29.9005021 927.114486,30.3064984 924.7055,30.4708969 C922.215694,30.6412954 919.69553,30.6332954 917.209826,30.4060975 C914.963299,30.2004993 912.701181,29.8105029 910.587575,29.0145101 C908.821039,28.3493161 907.118092,27.366125 905.936573,25.8901384 C905.660885,25.5457415 905.416376,25.1777448 905.20838,24.7901483 C905.183765,24.7441488 905.15915,24.6969492 905.134535,24.6493496 C905.099663,24.5805502 905.086535,24.5525505 905.100484,24.4753512 L905.100484,24.4753512 Z" id="basecamp"/></g></g></g></svg>