<?xml version="1.0" ?><svg height="60px" version="1.1" viewBox="0 0 60 60" width="60px" xmlns="http://www.w3.org/2000/svg" xmlns:sketch="http://www.bohemiancoding.com/sketch/ns" xmlns:xlink="http://www.w3.org/1999/xlink"><title/><desc/><defs/><g fill="none" fill-rule="evenodd" id="soical" stroke="none" stroke-width="1"><g id="social" transform="translate(-673.000000, -638.000000)"><g id="slices" transform="translate(173.000000, 138.000000)"/><g fill="#000000" id="square-black" transform="translate(173.000000, 138.000000)"><path d="M502.995937,500 L557.004063,500 C558.658673,500 560,501.33731 560,502.995937 L560,557.004063 C560,558.658673 558.66269,560 557.004063,560 L502.995937,560 C501.341327,560 500,558.66269 500,557.004063 L500,502.995937 C500,501.341327 501.33731,500 502.995937,500 Z" id="square-56"/></g><g fill="#FFFFFF" id="icon" transform="translate(182.000000, 150.000000)"><path d="M507.721538,532.943003 L518.680618,533.000001 L518.680618,526.139602 L515.549558,524.082671 L516.373001,522.862729 L518.680618,524.082672 L518.680618,519.211031 L522.11624,519.211031 L522.11624,522.748736 L524.901973,521.417633 L525.625937,522.748736 L522.11624,524.578839 L522.11624,526.139602 L527.260433,523.85256 L527.907575,525.164547 L522.11624,527.888682 L522.11624,533.000001 L529.314438,532.943003 L534.278462,533 L520.987609,501.138489 L507.721538,532.943003 Z" id="forrst"/></g></g></g></svg>