<?xml version="1.0" ?><svg height="60px" version="1.1" viewBox="0 0 60 60" width="60px" xmlns="http://www.w3.org/2000/svg" xmlns:sketch="http://www.bohemiancoding.com/sketch/ns" xmlns:xlink="http://www.w3.org/1999/xlink"><title/><desc/><defs/><g fill="none" fill-rule="evenodd" id="soical" stroke="none" stroke-width="1"><g id="social" transform="translate(-973.000000, -238.000000)"><g id="slices" transform="translate(173.000000, 138.000000)"/><g fill="#000000" id="square-black" transform="translate(173.000000, 138.000000)"><path d="M802.995937,100 L857.004063,100 C858.658673,100 860,101.33731 860,102.995937 L860,157.004063 C860,158.658673 858.66269,160 857.004063,160 L802.995937,160 C801.341327,160 800,158.66269 800,157.004063 L800,102.995937 C800,101.341327 801.33731,100 802.995937,100 Z" id="square-19"/></g><g fill="#FFFFFF" id="icon" transform="translate(182.000000, 150.000000)"><path d="M829.076923,124.923077 C830.988678,124.923077 832.538462,123.373293 832.538462,121.461538 L824.461538,121.461538 C823.824287,121.461538 823.307692,120.944944 823.307692,120.307692 L823.307692,107.615385 C823.307692,106.978133 823.824287,106.461538 824.461538,106.461538 L837.153846,106.461538 C837.791098,106.461538 838.307692,106.978133 838.307692,107.615385 L838.307692,120.307692 C838.307692,125.405706 834.174936,129.538462 829.076923,129.538462 C828.633518,129.538462 828.193661,129.507114 827.759696,129.445041 C827.191347,129.363746 826.769231,128.876955 826.769231,128.302821 L826.769231,125.931518 C826.769231,125.177552 827.480519,124.626157 828.210687,124.814092 C828.490776,124.886183 828.78091,124.923077 829.076923,124.923077 Z M809.461538,124.923077 C811.373293,124.923077 812.923077,123.373293 812.923077,121.461538 L804.846154,121.461538 C804.208902,121.461538 803.692308,120.944944 803.692308,120.307692 L803.692308,107.615385 C803.692308,106.978133 804.208902,106.461538 804.846154,106.461538 L817.538462,106.461538 C818.175713,106.461538 818.692308,106.978133 818.692308,107.615385 L818.692308,120.307692 C818.692308,125.405706 814.559552,129.538462 809.461538,129.538462 C809.018134,129.538462 808.578276,129.507114 808.144312,129.445041 C807.575962,129.363746 807.153846,128.876955 807.153846,128.302821 L807.153846,125.931518 C807.153846,125.177552 807.865134,124.626157 808.595302,124.814092 C808.875391,124.886183 809.165525,124.923077 809.461538,124.923077 Z" id="hangouts"/></g></g></g></svg>