<?xml version="1.0" ?><svg height="60px" version="1.1" viewBox="0 0 60 60" width="60px" xmlns="http://www.w3.org/2000/svg" xmlns:sketch="http://www.bohemiancoding.com/sketch/ns" xmlns:xlink="http://www.w3.org/1999/xlink"><title/><desc/><defs/><g fill="none" fill-rule="evenodd" id="soical" stroke="none" stroke-width="1"><g id="social" transform="translate(-173.000000, -638.000000)"><g id="slices" transform="translate(173.000000, 138.000000)"/><g fill="#000000" id="square-black" transform="translate(173.000000, 138.000000)"><path d="M2.99593743,500 L57.0040626,500 C58.6586731,500 60,501.33731 60,502.995937 L60,557.004063 C60,558.658673 58.6626903,560 57.0040626,560 L2.99593743,560 C1.34132688,560 0,558.66269 0,557.004063 L0,502.995937 C0,501.341327 1.33730974,500 2.99593743,500 Z" id="square-51"/></g><g fill="#FFFFFF" id="icon" transform="translate(182.000000, 150.000000)"><path d="M10.3837949,529.515811 L10.3813333,529.524402 L10.5700513,529.524402 C10.6676923,529.527917 10.7641026,529.538462 10.8625641,529.538462 C10.9618462,529.538462 11.0578462,529.527917 11.1554872,529.524402 L29.6592821,529.524402 L29.6592821,529.519325 C29.7946667,529.524402 29.9267692,529.538462 30.0629744,529.538462 C35.2535385,529.538462 39.4615385,525.500746 39.4615385,520.519503 C39.4615385,515.53826 35.2535385,511.500544 30.0629744,511.500544 C29.8717949,511.500544 29.6843077,511.516947 29.4955897,511.527882 C28.6890256,507.333953 24.8650256,504.153846 20.2607179,504.153846 C15.0705641,504.153846 10.8625641,508.191953 10.8625641,513.173195 C10.8625641,513.304024 10.8773333,513.432509 10.8830769,513.562166 C10.8761026,513.562166 10.8699487,513.561385 10.8625641,513.561385 C6.26564103,513.561385 2.53846154,517.137491 2.53846154,521.549728 C2.53846154,525.806923 6.01087179,529.276414 10.3837949,529.515811 L10.3837949,529.515811 Z" id="cloudapp"/></g></g></g></svg>