<?xml version="1.0" ?><svg height="60px" version="1.1" viewBox="0 0 60 60" width="60px" xmlns="http://www.w3.org/2000/svg" xmlns:sketch="http://www.bohemiancoding.com/sketch/ns" xmlns:xlink="http://www.w3.org/1999/xlink"><title/><desc/><defs/><g fill="none" fill-rule="evenodd" id="soical" stroke="none" stroke-width="1"><g id="social" transform="translate(-673.000000, -738.000000)"><g id="slices" transform="translate(173.000000, 138.000000)"/><g fill="#000000" id="square-black" transform="translate(173.000000, 138.000000)"><path d="M502.995937,600 L557.004063,600 C558.658673,600 560,601.33731 560,602.995937 L560,657.004063 C560,658.658673 558.66269,660 557.004063,660 L502.995937,660 C501.341327,660 500,658.66269 500,657.004063 L500,602.995937 C500,601.341327 501.33731,600 502.995937,600 Z" id="square-66"/></g><g fill="#FFFFFF" id="icon" transform="translate(182.000000, 150.000000)"><path d="M520.423077,604.153846 C511.820242,604.153846 504.846154,609.722638 504.846154,616.592147 C504.846154,620.082638 506.649116,623.235379 509.549361,625.494217 C510.373616,630.006744 506.390377,630.840669 506.390377,630.840669 C506.390377,630.840669 505.892966,631.477094 507.128892,631.712156 C512.103304,632.618781 516.125764,628.627874 516.125764,628.627874 L516.130325,628.547904 C517.494556,628.859604 518.933581,629.030145 520.423077,629.030145 C529.026216,629.030145 536,623.461354 536,616.591844 C536,609.722335 529.026216,604.153846 520.423077,604.153846 L520.423077,604.153846 Z" id="imessage"/></g></g></g></svg>