<?xml version="1.0" ?><svg height="60px" version="1.1" viewBox="0 0 60 60" width="60px" xmlns="http://www.w3.org/2000/svg" xmlns:sketch="http://www.bohemiancoding.com/sketch/ns" xmlns:xlink="http://www.w3.org/1999/xlink"><title/><desc/><defs/><g fill="none" fill-rule="evenodd" id="soical" stroke="none" stroke-width="1"><g id="social" transform="translate(-373.000000, -838.000000)"><g id="slices" transform="translate(173.000000, 138.000000)"/><g fill="#000000" id="square-black" transform="translate(173.000000, 138.000000)"><path d="M202.995937,700 L257.004063,700 C258.658673,700 260,701.33731 260,702.995937 L260,757.004063 C260,758.658673 258.66269,760 257.004063,760 L202.995937,760 C201.341327,760 200,758.66269 200,757.004063 L200,702.995937 C200,701.341327 201.33731,700 202.995937,700 Z" id="square-72"/></g><g fill="#FFFFFF" id="icon" transform="translate(182.000000, 150.000000)"><path d="M220.603976,722.526021 C220.537315,722.652479 220.468348,722.778259 220.397026,722.903285 C218.80576,725.692749 216.285859,727.681878 212.74311,728.447829 C208.441008,729.377953 204.787094,727.867872 201.889029,724.862309 C201.103628,724.047775 200.432841,723.179807 199.87182,722.310304 C199.529893,721.780364 199.29519,721.356767 199.165946,721.090677 C198.768385,720.272163 199.109633,719.28634 199.928146,718.888778 C200.74666,718.491216 201.732483,718.832465 202.130045,719.650978 C202.204063,719.803368 202.375129,720.112111 202.640727,720.523752 C203.09225,721.223549 203.634257,721.924882 204.261151,722.575029 C206.433014,724.827452 208.995854,725.886617 212.046761,725.227004 C214.63002,724.668497 216.387927,723.280862 217.534757,721.270487 C218.075513,720.322551 218.444202,719.293592 218.667704,718.26308 C218.745763,717.903165 218.799698,717.571236 218.833715,717.27764 C218.852813,717.112809 218.860886,717.005818 218.862445,716.966934 C218.898903,716.057709 219.665531,715.350192 220.574756,715.38665 C220.584519,715.387041 220.594259,715.387517 220.603976,715.388076 C220.613692,715.387517 220.623432,715.387041 220.633195,715.38665 C221.54242,715.350192 222.309048,716.057709 222.345506,716.966934 C222.347065,717.005818 222.355138,717.112809 222.374236,717.27764 C222.408253,717.571236 222.462188,717.903165 222.540248,718.26308 C222.763749,719.293592 223.132438,720.322551 223.673194,721.270487 C224.820025,723.280862 226.577931,724.668497 229.161191,725.227004 C232.212097,725.886617 234.774938,724.827452 236.9468,722.575029 C237.573694,721.924882 238.115701,721.223549 238.567224,720.523752 C238.832822,720.112111 239.003889,719.803368 239.077906,719.650978 C239.475468,718.832465 240.461292,718.491216 241.279805,718.888778 C242.098318,719.28634 242.439567,720.272163 242.042005,721.090677 C241.912762,721.356767 241.678058,721.780364 241.336131,722.310304 C240.775111,723.179807 240.104323,724.047775 239.318923,724.862309 C236.420857,727.867872 232.766943,729.377953 228.464841,728.447829 C224.922092,727.681878 222.402191,725.692749 220.810925,722.903285 C220.739603,722.778259 220.670636,722.652479 220.603976,722.526021 L220.603976,722.526021 Z M219.450771,712.27264 C219.99664,713.000464 220.877799,713.005621 221.427535,712.27264 L224.393633,708.317843 C224.939501,707.590018 224.638979,707 223.749589,707 L217.128718,707 C216.227154,707 215.934937,707.584861 216.484674,708.317843 L219.450771,712.27264 Z" id="miu"/></g></g></g></svg>