<?xml version="1.0" ?><svg height="60px" version="1.1" viewBox="0 0 60 60" width="60px" xmlns="http://www.w3.org/2000/svg" xmlns:sketch="http://www.bohemiancoding.com/sketch/ns" xmlns:xlink="http://www.w3.org/1999/xlink"><title/><desc/><defs/><g fill="none" fill-rule="evenodd" id="soical" stroke="none" stroke-width="1"><g id="social" transform="translate(-473.000000, -538.000000)"><g id="slices" transform="translate(173.000000, 138.000000)"/><g fill="#000000" id="square-black" transform="translate(173.000000, 138.000000)"><path d="M302.995937,400 L357.004063,400 C358.658673,400 360,401.33731 360,402.995937 L360,457.004063 C360,458.658673 358.66269,460 357.004063,460 L302.995937,460 C301.341327,460 300,458.66269 300,457.004063 L300,402.995937 C300,401.341327 301.33731,400 302.995937,400 Z" id="square-44"/></g><g fill="#FFFFFF" id="icon" transform="translate(182.000000, 150.000000)"><path d="M309.425144,416.578307 L319.819461,406.121737 C322.429098,403.497883 326.658364,403.497883 329.266463,406.121737 C329.891084,406.779431 329.861853,407.843665 329.219155,408.490206 C328.566457,409.147131 327.510679,409.147131 326.856443,408.490206 L326.698749,408.307128 C325.3872,407.188663 323.419107,407.252125 322.181019,408.498282 L311.553239,419.187546 C310.853233,419.836394 309.796301,419.836394 309.144372,419.180623 C308.491675,418.524851 308.491675,417.460617 309.144372,416.804846 C309.232065,416.717923 309.325912,416.642538 309.425144,416.578307 L309.425144,416.578307 Z M332.761492,416.805615 C332.108794,416.149844 331.052632,416.149844 330.399934,416.805615 C330.31301,416.894077 330.236856,416.988693 330.17224,417.089078 L319.819461,427.502956 C318.514835,428.814498 316.399817,428.814498 315.095576,427.502956 L315.048268,427.495648 C314.396724,426.839877 313.339792,426.839877 312.68671,427.495648 C312.035166,428.150265 312.035166,429.215653 312.68671,429.870271 C312.770172,429.953732 312.858634,430.027194 312.952866,430.090656 C315.575964,432.499509 319.644075,432.429894 322.180635,429.878348 L332.761108,419.181007 C333.413421,418.525621 333.413421,417.461387 332.761492,416.805615 L332.761492,416.805615 Z M316.509818,423.704867 C316.410971,423.770252 316.316355,423.845252 316.229816,423.93256 C315.577118,424.587562 315.577118,425.652565 316.229816,426.307183 C316.88136,426.962954 317.938292,426.962954 318.638682,426.31526 L329.266463,415.623689 C330.571089,414.312146 332.686107,414.312146 333.989195,415.623689 C335.29536,416.936 335.29536,419.064084 333.989195,420.375626 L323.911803,430.559888 C325.217583,431.871431 327.331447,431.871431 328.635689,430.559888 L336.351907,422.750634 C338.959621,420.126779 338.959621,415.872536 336.351907,413.247528 C333.744193,410.625212 329.514157,410.625212 326.904905,413.247528 L316.509818,423.704867 L316.509818,423.704867 Z M315.09596,422.751403 L325.676433,412.054447 C326.328746,411.397907 326.328746,410.333673 325.676433,409.679055 C325.024889,409.022515 323.966804,409.022515 323.314875,409.679055 C323.227182,409.765594 323.151797,409.861364 323.088335,409.961748 L312.734402,420.375626 C311.429776,421.687938 309.315528,421.687938 308.011671,420.375626 C306.70589,419.064084 306.70589,416.936 308.011671,415.623689 L318.089062,405.439812 C316.785205,404.127115 314.669418,404.127115 313.365177,405.439812 L305.648959,413.247912 C303.040091,415.87292 303.040091,420.127164 305.648959,422.751018 C308.257827,425.376026 312.488631,425.376026 315.09596,422.751403 L315.09596,422.751403 Z" id="squarespace"/></g></g></g></svg>