<?xml version="1.0" ?><svg height="60px" version="1.1" viewBox="0 0 60 60" width="60px" xmlns="http://www.w3.org/2000/svg" xmlns:sketch="http://www.bohemiancoding.com/sketch/ns" xmlns:xlink="http://www.w3.org/1999/xlink"><title/><desc/><defs/><g fill="none" fill-rule="evenodd" id="soical" stroke="none" stroke-width="1"><g id="social" transform="translate(-1073.000000, -238.000000)"><g id="slices" transform="translate(173.000000, 138.000000)"/><g fill="#000000" id="square-black" transform="translate(173.000000, 138.000000)"><path d="M902.995937,100 L957.004063,100 C958.658673,100 960,101.33731 960,102.995937 L960,157.004063 C960,158.658673 958.66269,160 957.004063,160 L902.995937,160 C901.341327,160 900,158.66269 900,157.004063 L900,102.995937 C900,101.341327 901.33731,100 902.995937,100 Z" id="square-20"/></g><g fill="#FFFFFF" id="icon" transform="translate(182.000000, 150.000000)"><path d="M925.59975,115.696392 L929.10129,114.466302 L929.10129,112.289266 C929.10129,107.804253 925.556538,104.153846 921,104.153846 C916.445769,104.153846 912.922936,107.803114 912.922936,112.289266 L912.922936,123.710734 C912.922936,124.765093 912.254883,126.084247 910.60299,126.084247 C908.951097,126.084247 908.276283,124.765093 908.276283,123.710734 L908.276283,119.223145 L902.538462,119.223145 L902.538462,123.710734 C902.538462,128.195747 906.243462,131.846154 910.8,131.846154 C915.356538,131.846154 918.735408,128.196885 918.735408,123.710734 L918.735408,112.289266 C918.735408,111.236045 919.092886,109.982939 921,109.982938 C922.907114,109.982938 923.3753,111.236045 923.3753,112.289266 L923.3753,114.466302 L925.59975,115.696392 Z M933.777522,123.710734 C933.777522,124.765094 933.141923,126.059598 931.422927,126.059598 C929.703931,126.059598 929.067204,124.765094 929.067204,123.710734 L929.067204,119.167931 L925.638343,120.393189 L923.384315,119.167931 L923.384315,123.868812 C923.384315,128.353825 926.645769,131.846154 931.202308,131.846154 C935.756538,131.846154 939.461538,128.196886 939.461538,123.710734 L939.461538,119.167931 L933.777522,119.167931 L933.777522,123.710734 Z" id="stumbleUpon"/></g></g></g></svg>