<?xml version="1.0" ?><svg height="60px" version="1.1" viewBox="0 0 60 60" width="60px" xmlns="http://www.w3.org/2000/svg" xmlns:sketch="http://www.bohemiancoding.com/sketch/ns" xmlns:xlink="http://www.w3.org/1999/xlink"><title/><desc/><defs/><g fill="none" fill-rule="evenodd" id="soical" stroke="none" stroke-width="1"><g id="social" transform="translate(-373.000000, -738.000000)"><g id="slices" transform="translate(173.000000, 138.000000)"/><g fill="#000000" id="square-black" transform="translate(173.000000, 138.000000)"><path d="M202.995937,600 L257.004063,600 C258.658673,600 260,601.33731 260,602.995937 L260,657.004063 C260,658.658673 258.66269,660 257.004063,660 L202.995937,660 C201.341327,660 200,658.66269 200,657.004063 L200,602.995937 C200,601.341327 201.33731,600 202.995937,600 Z" id="square-63"/></g><g fill="#FFFFFF" id="icon" transform="translate(182.000000, 150.000000)"><path d="M239.461538,618 C239.461538,607.803487 231.196831,599.538462 221.000205,599.538462 C210.803579,599.538462 202.538462,607.803487 202.538462,618 C202.538051,628.195692 210.803169,636.461538 221.000205,636.461538 C231.196831,636.461538 239.461538,628.195692 239.461538,618 Z M216.384222,607.615385 C217.658178,607.615385 218.692308,608.647898 218.692308,609.923471 C218.692308,611.197468 217.658572,612.230769 216.384222,612.230769 C215.109478,612.230769 214.076923,611.197468 214.076923,609.923471 C214.076529,608.647898 215.109478,607.615385 216.384222,607.615385 L216.384222,607.615385 Z M225.614991,607.615385 C226.888947,607.615385 227.923077,608.647898 227.923077,609.923471 C227.923077,611.197468 226.889341,612.230769 225.614991,612.230769 C224.340247,612.230769 223.307692,611.197468 223.307692,609.923471 C223.307299,608.647898 224.340247,607.615385 225.614991,607.615385 L225.614991,607.615385 Z M208.307692,615.692308 L233.692308,615.692308 L233.692308,620.336212 L233.640159,620.336212 C233.113051,626.778816 227.661055,631.846154 220.998797,631.846154 C214.338143,631.846154 208.886949,626.778816 208.361045,620.336212 L208.307692,620.336212 L208.307692,615.692308 L208.307692,615.692308 Z M231.384615,620.307692 L210.615385,620.307692 L210.615385,618 L231.384615,618 L231.384615,620.307692 L231.384615,620.307692 Z" id="yahoo"/></g></g></g></svg>