<?xml version="1.0" ?><svg height="60px" version="1.1" viewBox="0 0 60 60" width="60px" xmlns="http://www.w3.org/2000/svg" xmlns:sketch="http://www.bohemiancoding.com/sketch/ns" xmlns:xlink="http://www.w3.org/1999/xlink"><title/><desc/><defs/><g fill="none" fill-rule="evenodd" id="soical" stroke="none" stroke-width="1"><g id="social" transform="translate(-873.000000, -438.000000)"><g id="slices" transform="translate(173.000000, 138.000000)"/><g fill="#000000" id="square-black" transform="translate(173.000000, 138.000000)"><path d="M702.995937,300 L757.004063,300 C758.658673,300 760,301.33731 760,302.995937 L760,357.004063 C760,358.658673 758.66269,360 757.004063,360 L702.995937,360 C701.341327,360 700,358.66269 700,357.004063 L700,302.995937 C700,301.341327 701.33731,300 702.995937,300 Z" id="square-38"/></g><g fill="#FFFFFF" id="icon" transform="translate(182.000000, 150.000000)"><path d="M713.732385,323.904271 C719.494269,334.705622 721.113808,336.461538 725.067885,336.461538 C729.361269,336.461538 733.692308,333.284888 733.692308,330.408138 C733.692308,329.435409 733.165154,328.575912 732.638846,328.314576 C730.831038,329.285664 729.211077,329.809567 727.742154,329.809567 C725.859038,329.809567 724.804731,328.986584 718.816923,320.241871 C723.372615,316.355059 726.048154,313.776158 729.511038,308.880514 C732.487385,306.937108 733.654231,305.217704 733.654231,303.648456 C733.654231,302.30321 732.487385,300.509549 730.982077,300.509549 C730.264962,300.509549 729.700577,301.182788 728.9475,302.341364 C723.411115,300.248213 720.812154,299.538462 717.950885,299.538462 C715.277038,299.538462 713.092269,301.854795 713.092269,304.546107 C713.092269,306.078842 713.732808,306.937108 714.710962,307.236188 C715.990769,306.489923 717.046346,306.190433 717.723269,306.190433 C719.494692,306.190433 722.243846,306.975262 725.632269,307.984504 C723.938269,310.413249 719.531923,314.899042 716.368154,317.365531 C715.163231,316.355469 714.409308,315.982542 713.318615,315.982542 C709.815115,315.982542 708.307692,320.017869 708.307692,322.522922 C708.307692,325.063668 708.910577,325.77342 709.851923,325.77342 C710.907077,325.77342 712.64,324.876999 713.732385,323.904271 Z" id="zootool"/></g></g></g></svg>