<?xml version="1.0" encoding="UTF-8"?>
<svg xmlns="http://www.w3.org/2000/svg" viewBox="0 0 360.76 388.01">
    <path fill="currentColor" d="M149.49,1.19c-29.96,4.93-51.15,17.87-66.77,41.09-10.38,15.19-15.94,31.03-23.01,64.74l-4.6,21.51-21.29.32-21.4.21-5.68,27.07c-3.1,14.77-5.89,28.03-6.2,29.32l-.54,2.46,21.29.21,21.4.32-4.06,19.26C31.47,241.52,1.3,386.83,1.3,387.47c0,.32,17.23.54,38.41.54h38.41l.54-3c10.06-47.94,37.77-180.84,39.16-187.47l1.82-9.09,35.31-.54,35.21-.54,5.46-25.68c3-14.13,5.68-27.28,6.1-29.21l.75-3.43h-73.62l3.53-17.12c5.46-26.32,11.24-36.27,24.93-43.02,4.78-2.36,12.52-3.53,23.22-3.53,15.84.11,16.27.11,27.72,4.06,6.31,2.25,11.66,3.96,11.88,3.75.11-.21,4.28-14.13,9.31-31.03l9.09-30.71-5.99-2.14C215.62,3.23,200.1.65,177.31.12c-12.73-.32-21.08,0-27.82,1.07h0Z"/>
    <path fill="currentColor" d="M309.68,2.8c-17.87,3.21-29.86,11.13-36.38,24.18-5.68,11.13-7.49,29.32-4.06,39.7,2.46,7.39,8.88,14.44,16.48,18.19,5.35,2.56,7.6,3,18.4,3.31,32.32,1.07,48.8-9.74,55.11-35.85,5.03-20.65-2.56-39.6-18.73-46.76-7.39-3.31-20.87-4.49-30.82-2.78h0Z"/>
    <path fill="currentColor" d="M276.61,128.95c-8.99.43-16.69,1.18-17.23,1.71-1.6,1.82-5.68,17.77-5.03,19.79.32,1.07,6.74,6.2,14.23,11.34l13.59,9.53-11.77.85c-13.91,1-21.47,2.96-22.68,5.89-.85,2.04-1.71,6.64-1.71,10.16l-.21,6.42,13.16,9.2c9.95,6.95,12.63,9.31,11.24,9.84-1.07.43-8.13,1.07-15.63,1.5-15.94.85-15.84.85-17.98,12.52-1.07,5.89-1.07,7.49.11,8.88.85.96,7.17,5.68,14.23,10.49l12.73,8.78-7.28.64c-4.06.43-10.49.75-14.34.85-10.38.21-11.99,1.39-14.23,10.59-2.46,10.06-2.35,10.38,13.7,21.4l12.41,8.56-4.06.64c-2.25.32-9.09.85-15.3,1.29-7.49.43-11.88,1.18-12.95,2.25-2.14,1.82-4.71,14.23-3.75,17.65.43,1.6,5.56,5.89,14.23,11.88,8.99,6.2,12.09,9.34,9.31,9.41-12.41.11-27.5,1.93-28.99,3.43-1.29,1.29-12.09,39.48-12.09,42.7,0,.54,7.7.85,17.02.85h17.12l2.35-10.49c1.29-5.68,2.35-10.49,2.46-10.59s9.74-.96,21.51-1.93c12.84-1.18,22.37-2.46,23.64-3.31,2.56-1.5,5.46-13.48,4.39-17.87-.43-1.5-5.24-5.56-13.59-11.34-7.06-4.93-12.73-9.2-12.52-9.41s7.17-.85,15.3-1.5c9.31-.64,15.4-1.6,16.27-2.46,1.82-1.82,4.71-14.44,3.96-17.44-.32-1.39-5.68-5.89-14.13-11.77l-13.59-9.41,15.73-1.07c11.34-.75,16.05-1.5,17.23-2.68,2.14-2.14,4.81-14.98,3.75-17.87-.43-1.29-6.64-6.31-13.8-11.24l-13.05-8.88,6.31-.75c3.43-.43,10.49-1.07,15.63-1.5,10.91-.75,11.55-1.29,13.7-11.99,1.07-4.81,1.07-7.28.32-8.56-.64-.96-7.06-5.89-14.34-10.91-10.38-7.28-12.52-9.2-10.59-9.31,1.39-.21,8.45-.75,15.73-1.18,9.41-.64,13.59-1.39,14.77-2.56.85-.85,2.35-4.81,3.31-8.78,1.39-6.2,1.39-7.39,0-9.53-.85-1.29-9.31-7.81-18.73-14.44l-17.23-11.99,3.75-9.31c2.04-5.24,3.64-9.53,3.64-9.63,0-.21-.85-.21-1.82-.11-1.07.11-9.31.43-18.19.75h0Z"/>
</svg>