<?xml version="1.0" ?><svg enable-background="new 0 0 24 24" id="Layer_1" version="1.1" viewBox="0 0 24 24" xml:space="preserve" xmlns="http://www.w3.org/2000/svg" xmlns:xlink="http://www.w3.org/1999/xlink"><g><path clip-rule="evenodd" d="M22,3H2C0.8969727,3,0,3.8969727,0,5v14   c0,1.1030273,0.8969727,2,2,2h20c1.1030273,0,2-0.8969727,2-2V5C24,3.8969727,23.1030273,3,22,3z" fill="#303C42" fill-rule="evenodd"/><path clip-rule="evenodd" d="M23,19c0,0.5512695-0.4487305,1-1,1H2   c-0.5512695,0-1-0.4487305-1-1V5c0-0.5512695,0.4487305-1,1-1h20c0.5512695,0,1,0.4487305,1,1V19z" fill="#FAA629" fill-rule="evenodd"/><path clip-rule="evenodd" d="M14.0209961,14.0830078   c-1.1734009,0.4980469-2.447937,0.7382202-3.6079102,0.7382202c-1.7190552,0-3.3833008-0.4710693-4.7303467-1.2546997   c-0.1175537-0.0682983-0.2047119,0.0526123-0.1065674,0.140686c1.2475586,1.1266479,2.8962402,1.803772,4.7269287,1.803772   c1.3065796,0,2.8237915-0.4112549,3.8699951-1.1831665C14.3462524,14.2006226,14.197937,14.0084839,14.0209961,14.0830078z" fill="#303C42" fill-rule="evenodd"/><path clip-rule="evenodd" d="M13.3605957,13.6486816   c-0.0922852,0.0640259-0.0758667,0.1533203,0.0256958,0.1415405c0.3374634-0.0404663,1.0883179-0.1310425,1.22229,0.0404053   c0.1339722,0.1715088-0.1487427,0.8781128-0.2755737,1.1932373c-0.0379028,0.0952759,0.0442505,0.1340332,0.1306152,0.0615234   c0.5612183-0.4693604,0.706604-1.4539795,0.5915527-1.5955811C14.94104,13.3491211,13.9597168,13.2277222,13.3605957,13.6486816z" fill="#303C42" fill-rule="evenodd"/><path clip-rule="evenodd" d="M15.4099731,12.4541626   c-0.3197632-0.1802979-0.6930542-0.2325439-1.0452881-0.2241211l0.9488525-1.3554688   c0.0880127-0.1221924,0.1381836-0.1984253,0.1381836-0.2565918v-0.3513794c0-0.0606689-0.0471802-0.1032104-0.1053467-0.1032104   l-1.8323975,0.0004272c-0.0568848-0.0004272-0.1032104,0.0412598-0.1036377,0.1036377v0.4086914   c0.0004272,0.0606689,0.0476074,0.102356,0.1057739,0.102356l0.9577026,0.0004272l-1.0997314,1.5775146   c-0.0665283,0.1015015-0.0686646,0.2144165-0.0686646,0.2810059v0.4154663c0,0.0598145,0.0670166,0.1280518,0.1306152,0.0947876   c0.6235962-0.3324585,1.3723145-0.2995605,1.9364624-0.0037842c0.0686646,0.0354004,0.1348267-0.0337524,0.1348267-0.0935669   v-0.4369507C15.5018311,12.5548706,15.4824829,12.4946289,15.4099731,12.4541626z" fill="#303C42" fill-rule="evenodd"/><path clip-rule="evenodd" d="M6.1695557,13.2293091h0.5574341   c0.05896,0,0.1074219-0.0459595,0.1074219-0.1032715v-1.5159302c0-0.331604-0.015625-0.7891235,0.3850708-0.7891235   c0.3956299,0,0.343811,0.4701538,0.343811,0.7891235v1.5164185c0,0.0551758,0.0442505,0.0993652,0.1002808,0.1027832h0.5574341   c0.0585938,0,0.1066284-0.0459595,0.1066284-0.1032715v-1.5159302c0-0.1630859-0.0050659-0.4040527,0.0522461-0.5477295   c0.057251-0.1449585,0.197998-0.2351074,0.333252-0.2351074c0.1609497,0,0.2856445,0.0535278,0.3282471,0.2468872   c0.0252686,0.114624,0.0151367,0.4150391,0.0151367,0.5359497v1.5164185c0,0.0551758,0.0442505,0.0993652,0.1002808,0.1027832   h0.5561523c0.0594482,0,0.1078491-0.0459595,0.1078491-0.1032715l0.0004272-1.8049927   c0-0.3067017,0.0358276-0.6564331-0.1402588-0.8973999c-0.1567383-0.2166138-0.4116821-0.3130493-0.6459351-0.3130493   c-0.3278198,0-0.6349487,0.1689453-0.7693481,0.5300293c-0.1567383-0.361084-0.375-0.5300293-0.7230225-0.5300293   c-0.3442383,0-0.5991211,0.1689453-0.734375,0.5300293H6.7981567v-0.373291   c-0.0037842-0.0523071-0.0467529-0.0935669-0.1015015-0.0964966h-0.519104c-0.059021,0-0.1078491,0.0458984-0.1078491,0.1036377   v2.8612671C6.0739136,13.1863403,6.1160278,13.2258911,6.1695557,13.2293091z" fill="#303C42" fill-rule="evenodd"/><path clip-rule="evenodd" d="M17.0292358,10.1105957   c-0.8060303,0-1.2543335,0.692688-1.2543335,1.5842285c0,0.8839722,0.4420166,1.5952148,1.2543335,1.5952148   c0.7803345,0,1.2749634-0.692688,1.2749634-1.5661621C18.3041992,10.8209839,17.8563232,10.1105957,17.0292358,10.1105957z    M17.0292358,12.699707c-0.4373779,0-0.432312-0.746582-0.432312-1.0958862s0.0265503-0.9088135,0.4373779-0.9088135   c0.1769409,0,0.302063,0.0779419,0.3644409,0.2763672c0.072876,0.2288208,0.0834351,0.5178223,0.0834351,0.7584229   C17.4821777,12.0976563,17.4611206,12.699707,17.0292358,12.699707z" fill="#303C42" fill-rule="evenodd"/><path clip-rule="evenodd" d="M20.2139893,10.1105347   c-0.3847046,0-0.6033936,0.1870728-0.7592773,0.578064h-0.0109253v-0.4373169   c-0.0097046-0.045105-0.0505981-0.0783691-0.098999-0.0800781h-0.5170288c-0.0560303,0-0.102356,0.0413208-0.1069946,0.0935669   l0.0012817,2.8616943c0,0.0551758,0.0438232,0.0994263,0.098999,0.1032104h0.5561523   c0.0593872,0,0.1070557-0.0463257,0.1082764-0.1036377v-1.5404053c0-0.1925659,0.0105591-0.3674316,0.088501-0.5418701   c0.0627441-0.1381836,0.1870728-0.2287598,0.3223267-0.2287598c0.3850708,0,0.348877,0.4580078,0.348877,0.7706299v1.553894   c0.0058594,0.0484009,0.0476074,0.086792,0.0994263,0.0901489h0.5582275c0.0556641,0,0.1011353-0.0396118,0.1074829-0.0901489   v-1.8007813c0-0.2764282,0-0.661499-0.145813-0.8907471C20.7086182,10.2011108,20.4638062,10.1105347,20.2139893,10.1105347z" fill="#303C42" fill-rule="evenodd"/><path clip-rule="evenodd" d="M10.9017334,11.4886475   c-0.3497314,0.1508179-0.5945435,0.4584351-0.5945435,0.9113159c0,0.5789185,0.3652954,0.8688354,0.8342896,0.8688354   c0.3960571,0,0.6130371-0.0931396,0.9193115-0.4053345c0.1011353,0.1470337,0.1343994,0.2178345,0.319397,0.371582   c0.0412598,0.0223999,0.0947876,0.0202637,0.1314697-0.0130615l0.0012207,0.001709   c0.1121216-0.098999,0.3134766-0.2751465,0.4276733-0.3707886c0.0455322-0.0361938,0.0374756-0.09729,0.001709-0.1474609   c-0.1015625-0.1411133-0.2106934-0.2557373-0.2106934-0.5169678v-0.8683472c0-0.3687134,0.026123-0.7061768-0.2443848-0.9598389   c-0.2140503-0.2047119-0.5687866-0.2776489-0.8401489-0.2776489c-0.5300293,0-1.1220093,0.1980591-1.2462769,0.8544922   c-0.0130615,0.069519,0.0374756,0.1057129,0.0834351,0.116272l0.5397339,0.0581665   c0.0505371-0.0025635,0.0872192-0.0523071,0.0968628-0.1015625c0.046814-0.2266846,0.2359619-0.3358154,0.4483032-0.3358154   c0.114624,0,0.2452393,0.0429688,0.3126221,0.1453857c0.0780029,0.114563,0.0682983,0.2709351,0.0682983,0.4036255v0.0720215   C11.6264038,11.3319092,11.2042236,11.3563232,10.9017334,11.4886475z M11.9500122,11.8632202   c0,0.21698,0.0046387,0.3985596-0.1044922,0.5911255c-0.0889282,0.1567383-0.2300415,0.2532349-0.3863525,0.2532349   c-0.2131958,0-0.3388062-0.1630859-0.3388062-0.4036255c0-0.475708,0.4260254-0.5616455,0.8296509-0.5616455V11.8632202z" fill="#303C42" fill-rule="evenodd"/><path clip-rule="evenodd" d="M5.6350098,12.7054443   c-0.1019287-0.1411133-0.2106323-0.2557373-0.2106323-0.5169678v-0.8683472c0-0.3687134,0.026123-0.7061768-0.2452393-0.9598389   c-0.213623-0.2047119-0.5679321-0.2776489-0.8392944-0.2776489c-0.5308838,0-1.1224365,0.1980591-1.2467041,0.8544922   c-0.0126343,0.069519,0.0379028,0.1057129,0.083374,0.116272l0.5405884,0.0581665   c0.0501709-0.0025635,0.0872192-0.0523071,0.0964966-0.1015625c0.0467529-0.2266846,0.2355347-0.3358154,0.4483032-0.3358154   c0.114624,0,0.2452393,0.0429688,0.3126221,0.1453857c0.0787964,0.114563,0.0678711,0.2709351,0.0678711,0.4036255v0.0720215   c-0.3236084,0.0366821-0.7453613,0.0610962-1.0479126,0.1934204C3.244812,11.6394653,3,11.9470825,3,12.3999634   c0,0.5789185,0.3644409,0.8688354,0.8338013,0.8688354c0.3964844,0,0.6134644-0.0931396,0.9193726-0.4053345   c0.1015625,0.1470337,0.1343994,0.2178345,0.3198242,0.371582c0.0412598,0.0223999,0.0943604,0.0202637,0.1309814-0.0130615   l0.0012817,0.001709c0.1108398-0.098999,0.3139038-0.2751465,0.4276733-0.3707886   C5.6784058,12.8162842,5.6699829,12.7556152,5.6350098,12.7054443z M4.642395,11.8632202   c0,0.21698,0.0050049,0.3985596-0.1044922,0.5911255c-0.0889282,0.1567383-0.2296753,0.2532349-0.3855591,0.2532349   c-0.2140503,0-0.3391724-0.1630859-0.3391724-0.4036255c0-0.475708,0.4263916-0.5616455,0.8292236-0.5616455V11.8632202z" fill="#303C42" fill-rule="evenodd"/><path d="M22,4h-0.5v13.5c0,0.5512695-0.4487305,1-1,1H1V19c0,0.5512695,0.4487305,1,1,1h20   c0.5512695,0,1-0.4487305,1-1V5C23,4.4487305,22.5512695,4,22,4z" fill="#010101" opacity="0.1"/><linearGradient gradientUnits="userSpaceOnUse" id="SVGID_1_" x1="-0.7076802" x2="24.7076797" y1="6.0743113" y2="17.9256878"><stop offset="0" style="stop-color:#FFFFFF;stop-opacity:0.2"/><stop offset="1" style="stop-color:#FFFFFF;stop-opacity:0"/></linearGradient><path d="M22,3H2C0.8969727,3,0,3.8969727,0,5v14c0,1.1030273,0.8969727,2,2,2h20   c1.1030273,0,2-0.8969727,2-2V5C24,3.8969727,23.1030273,3,22,3z" fill="url(#SVGID_1_)"/></g><g/><g/><g/><g/><g/><g/><g/><g/><g/><g/><g/><g/><g/><g/><g/></svg>