<?xml version="1.0" ?><svg enable-background="new 0 0 24 24" id="Layer_1" version="1.1" viewBox="0 0 24 24" xml:space="preserve" xmlns="http://www.w3.org/2000/svg" xmlns:xlink="http://www.w3.org/1999/xlink"><g><path clip-rule="evenodd" d="M22,3H2C0.8969727,3,0,3.8969727,0,5v14   c0,1.1030273,0.8969727,2,2,2h20c1.1030273,0,2-0.8969727,2-2V5C24,3.8969727,23.1030273,3,22,3z" fill="#303C42" fill-rule="evenodd"/><path clip-rule="evenodd" d="M23,19c0,0.5512695-0.4487305,1-1,1H2   c-0.5512695,0-1-0.4487305-1-1V5c0-0.5512695,0.4487305-1,1-1h20c0.5512695,0,1,0.4487305,1,1V19z" fill="#FAFBFB" fill-rule="evenodd"/><path clip-rule="evenodd" d="M12.7913818,10.4264526H11v4.5755615h0.7122192v-1.5611572   h1.0575562c0.899292,0,1.5324097-0.6187134,1.5324097-1.5108032S13.6762695,10.4264526,12.7913818,10.4264526z    M12.6043091,12.84375h-0.8920898v-1.8201904h0.8920898c0.6187134,0,0.9712524,0.3381348,0.9712524,0.9136963   C13.5755615,12.5127563,13.2158203,12.84375,12.6043091,12.84375z" fill="#303C42" fill-rule="evenodd"/><path clip-rule="evenodd" d="M15.9855957,11.5127563   c-0.7697754,0-1.3453369,0.4460449-1.3668823,1.0575562h0.6402588c0.0575562-0.2949219,0.3309326-0.4891968,0.7050781-0.4891968   c0.453186,0,0.7194214,0.2158203,0.7194214,0.6115112v0.2661743l-0.9281006,0.050415   c-0.848877,0.0575562-1.3165283,0.402832-1.3165283,1.0071411c0,0.6115112,0.4748535,1.0216064,1.1726685,1.0144043   c0.4676514,0,0.899292-0.2374268,1.0863037-0.6115112h0.0144043v0.5755615h0.6546631v-2.3597412   C17.3668823,11.9588013,16.8273315,11.5127563,15.9855957,11.5127563z M16.6834717,13.7070313   c0,0.4532471-0.3884888,0.7769775-0.8920898,0.7841797c-0.3956909,0-0.6546631-0.1870728-0.6546631-0.4819946   c0-0.3093872,0.2445679-0.4820557,0.7122192-0.5108032l0.8345337-0.0575562V13.7070313z" fill="#303C42" fill-rule="evenodd"/><path clip-rule="evenodd" d="M19.3956909,14.3616943h-0.0144043l-0.8848877-2.8129272   h-0.7410278l1.2518311,3.4532471l-0.050354,0.1798096c-0.1151123,0.3669434-0.3021851,0.5036011-0.6259155,0.5036011   c-0.0575562,0-0.1654663,0-0.2158203-0.0143433v0.5611572c0.0575562,0.0071411,0.2230225,0.0215454,0.2733765,0.0143433   c0.7050171,0,1.0287476-0.2661743,1.3237305-1.0935059L21,11.5487671h-0.7194214L19.3956909,14.3616943z" fill="#303C42" fill-rule="evenodd"/><path clip-rule="evenodd" d="M8.4404297,12.2501831   c-0.0096436-1.0116577,0.8265991-1.4992065,0.8643188-1.5223389c-0.4695435-0.6884155-1.2022095-0.7826538-1.4630737-0.7936401   c-0.6228638-0.062561-1.2155151,0.3671265-1.5317383,0.3671265c-0.3153687,0-0.8036499-0.357605-1.3197632-0.3474731   c-0.6795654,0.0094604-1.305603,0.3945313-1.6555176,1.0024414c-0.7051392,1.2243042-0.1802368,3.0375366,0.5073853,4.0307617   c0.3356323,0.4850464,0.7367554,1.0321655,1.2627563,1.0123901c0.5074463-0.0198975,0.6984863-0.3272095,1.3104248-0.3272095   c0.6124268,0,0.7844238,0.3272095,1.321106,0.3171387c0.5444946-0.0098267,0.890686-0.4953613,1.2242432-0.9823608   c0.3855591-0.5641479,0.5443726-1.1101685,0.5535889-1.1385498C9.5024414,13.8641968,8.4514771,13.4606934,8.4404297,12.2501831z" fill="#303C42" fill-rule="evenodd"/><path clip-rule="evenodd" d="M7.8496094,8   C7.4472656,8.0159912,6.9594116,8.2685547,6.6712036,8.6063232C6.4121704,8.9060059,6.1854248,9.3846436,6.2468872,9.8436279   C6.6957397,9.87854,7.1542358,9.6159058,7.4338989,9.277771C7.7134399,8.9389648,7.901001,8.468811,7.8496094,8z" fill="#303C42" fill-rule="evenodd"/><path d="M22,4h-0.5v13.5c0,0.5512695-0.4487305,1-1,1H1V19c0,0.5512695,0.4487305,1,1,1h20   c0.5512695,0,1-0.4487305,1-1V5C23,4.4487305,22.5512695,4,22,4z" fill="#010101" opacity="0.1"/><linearGradient gradientUnits="userSpaceOnUse" id="SVGID_1_" x1="-0.7076802" x2="24.7076797" y1="6.0743113" y2="17.9256878"><stop offset="0" style="stop-color:#FFFFFF;stop-opacity:0.2"/><stop offset="1" style="stop-color:#FFFFFF;stop-opacity:0"/></linearGradient><path d="M22,3H2C0.8969727,3,0,3.8969727,0,5v14c0,1.1030273,0.8969727,2,2,2h20   c1.1030273,0,2-0.8969727,2-2V5C24,3.8969727,23.1030273,3,22,3z" fill="url(#SVGID_1_)"/></g><g/><g/><g/><g/><g/><g/><g/><g/><g/><g/><g/><g/><g/><g/><g/></svg>