<?xml version="1.0" ?><svg enable-background="new 0 0 24 24" id="Layer_1" version="1.1" viewBox="0 0 24 24" xml:space="preserve" xmlns="http://www.w3.org/2000/svg" xmlns:xlink="http://www.w3.org/1999/xlink"><g><path clip-rule="evenodd" d="M22,3H2C0.8974609,3,0,3.8969727,0,5v14   c0,1.1030273,0.8974609,2,2,2h20c1.1025391,0,2-0.8969727,2-2V5C24,3.8969727,23.1025391,3,22,3z" fill="#303C42" fill-rule="evenodd"/><path clip-rule="evenodd" d="M23,19c0,0.5512695-0.4482422,1-1,1H2   c-0.5517578,0-1-0.4487305-1-1V5c0-0.5512695,0.4482422-1,1-1h20c0.5517578,0,1,0.4487305,1,1V19z" fill="#FAFBFB" fill-rule="evenodd"/><path clip-rule="evenodd" d="M17.4019775,17.5996094   c-0.0491943-0.1326294-0.1369019-0.2262573-0.2011108-0.3435059c-0.1558228-0.2032471-0.3372803-0.3808594-0.5209961-0.5560913   c-0.064209-0.0223999-0.0915527-0.081604-0.1538086-0.1063843c-0.0401611-0.0505981-0.1036377-0.0779419-0.1538696-0.1181641   c-0.1027832-0.0787964-0.2161255-0.1468506-0.3311768-0.2133179c-0.2180176-0.1410522-0.4902954-0.2275391-0.7575073-0.3192749   c-0.2900391-0.0689697-0.5949707-0.1228638-0.9109497-0.1656494c-0.3136597-0.0457153-0.6288452-0.0893555-0.8638916-0.2130737   c-0.1373901-0.0400391-0.237915-0.1170044-0.3551636-0.1774292c-0.1086426-0.072876-0.229248-0.1334839-0.319397-0.2249146   c-0.1134033-0.0681152-0.1829224-0.1799316-0.2722778-0.2720947c-0.0309448-0.0598755-0.0825806-0.098938-0.1063843-0.1657104   c-0.0314941-0.0118408-0.0390625-0.0477295-0.0592041-0.0709229c-0.0228271-0.0247192-0.0217285-0.072998-0.0593872-0.0827637   c-0.0176392,0.1262207-0.0134888,0.2749023,0,0.4023438c0.0159302,0.0551147,0.0214233,0.1204834,0.0357056,0.1774292   c0.0097656,0.0496826,0.0541382,0.1268921,0.0354614,0.1655884c-0.9501343-0.0477905-1.6439819-0.3516846-2.2484741-0.7453613   c-0.2981567-0.1989746-0.5541992-0.4397583-0.7926636-0.6983032c-0.1049805-0.1437988-0.2172241-0.2799072-0.3079834-0.4379272   c-0.095459-0.1566772-0.1739502-0.3305664-0.2598877-0.4970093c-0.1396484-0.3575439-0.2711182-0.7230225-0.3197021-1.1713867   c-0.0645142-0.4176025-0.0474854-0.9498901,0.0471191-1.3372803c0.034668-0.2141724,0.1047363-0.3925781,0.1658936-0.579895   c0.0410156-0.085022,0.0817871-0.1704712,0.118103-0.2602539c0.0519409-0.0742798,0.0790405-0.1735229,0.1420898-0.2367554   C9.1276245,9.0256958,9.3853149,8.7822266,9.6508179,8.546814c0.2856445-0.2113647,0.6126099-0.3815308,1.0057373-0.4851074   c0.3763428-0.0861816,0.8920288-0.1004028,1.3019409-0.0119019c0.828064,0.1696167,1.4546509,0.5412598,1.9762573,1.0177612   c0.5304565,0.4671021,0.9381104,1.0576172,1.21875,1.7750244c0.2900391,0.6838989,0.3894043,1.7450562,0.1300049,2.5205078   c-0.1057739-0.0598145-0.2121582-0.1191406-0.3196411-0.1775513c-0.128418-0.0371094-0.2523804-0.0785522-0.4020386-0.0946045   c-0.1803589-0.0028076-0.3557129-0.0003052-0.4735107,0.0593262c0.2350464-0.0237427,0.4241333,0.039856,0.5681763,0.0946655   c0.0864868,0.0327759,0.1348267,0.0562134,0.2009888,0.0944824c0.1315308,0.0759277,0.2473755,0.1473999,0.3431396,0.2484741   c0.2775269,0.2434692,0.475769,0.5657959,0.5682373,0.9941406c0.0007935,0.0124512,0.0150757,0.0093384,0.0116577-0.0117188   c0.0134888-0.0025635,0.0184326-0.0132446,0.0238037-0.0237427c0.0161743-0.0192871,0.0335083-0.0375366,0.0474243-0.0592041   c0.031311-0.0357666,0.0614014-0.0727539,0.0825806-0.1183472c0.0632324-0.0750122,0.116272-0.1602783,0.1656494-0.2485352   c0.112793-0.1633301,0.1990967-0.3530884,0.2958984-0.5325928c0.1689453-0.3833008,0.3057861-0.7985229,0.390625-1.2660522   c0.1691895-1.0414429-0.0323486-2.0299683-0.390625-2.7573242c-0.366272-0.7342529-0.8777466-1.3233032-1.5383911-1.7631836   c-0.666748-0.4375-1.4483032-0.7605591-2.5206299-0.7929077c-0.0048218-0.0201416-0.0151367,0.0024414-0.0354614,0   c-0.5662842-0.019165-1.0247192,0.0609741-1.4790039,0.1775513c-0.2091064,0.0709229-0.430542,0.1295776-0.6154175,0.2247314   c-0.2144165,0.0697021-0.3825073,0.1855469-0.579834,0.2722168C9.555603,7.7494507,9.4506226,7.7827759,9.3786011,7.8486938   C9.2836914,7.895813,9.2144165,7.9685669,9.1184082,8.0143433C8.967041,8.1472778,8.8031616,8.267334,8.6566162,8.4048462   C8.5097046,8.5377808,8.3834839,8.6917725,8.2424927,8.8308105c-0.020874,0.0499268-0.0585938,0.083313-0.0946655,0.1183472   C8.1227417,8.9949341,8.09198,9.0352783,8.0532227,9.0675659c-0.0153809,0.055481-0.0645142,0.0774536-0.0829468,0.130188   C7.9295044,9.2277832,7.9213867,9.2904663,7.8759155,9.31604C7.8348999,9.4135132,7.7670288,9.4835815,7.7218018,9.576416   C7.6681519,9.6647339,7.624939,9.7633667,7.5679932,9.8485107c-0.0846558,0.1993408-0.1779175,0.3901367-0.24823,0.6034546   c-0.0720215,0.208313-0.1351929,0.4252319-0.1776123,0.6627197c-0.0460815,0.2227173-0.0881958,0.5111084-0.0829468,0.7456055   c-0.0292969,0.086731-0.005249,0.2422485,0,0.3431396c0.0008545,0.0167847-0.0119629,0.0255737-0.0119629,0.0354614   c-0.0003052,0.1112061,0.0315552,0.2483521,0.0357666,0.3195801c0.0250854,0.2588501,0.069458,0.4985352,0.1418457,0.710022   c0.0457764,0.2342529,0.1437378,0.4164429,0.2129517,0.6270752c0.1063843,0.1776123,0.1812134,0.3868408,0.3077393,0.5443726   c0.0952148,0.1848145,0.2283936,0.3317871,0.3551025,0.4852295c0.1385498,0.1453247,0.2730713,0.295105,0.4378052,0.4141846   c0.3012695,0.2627563,0.6558228,0.4724121,1.0411987,0.6508789c0.7220459,0.348999,1.8005981,0.5802002,2.769165,0.5203857   c0.2479248-0.0320435,0.4975586-0.0625,0.7217407-0.1183472c0.208313-0.0753174,0.4476318-0.1206665,0.6983032-0.1535645   c0.5709839-0.0362549,1.0635376,0.0147705,1.5026855,0.1418457c0.446167,0.1183472,0.8292236,0.2990112,1.15979,0.5327759   c0.1759644,0.1037598,0.3234253,0.2366943,0.4733276,0.3668213c0.1516113,0.1323853,0.2755737,0.2923584,0.4140015,0.4378052   c0.0192871,0.055542,0.0547485,0.09552,0.083313,0.1418457c0.0362549,0.0384521,0.0183716,0.1312256,0.1062622,0.1183472   c0.0559082-0.0533447-0.0092163-0.1340332-0.0117188-0.2012329C17.4577637,17.7249146,17.4451294,17.6470337,17.4019775,17.5996094   z" fill="#FCB316" fill-rule="evenodd"/><path clip-rule="evenodd" d="M15.1908569,14.3571167   c-0.0119629,0-0.0141602,0.0096436-0.0236206,0.0119019c-0.0210571,0.0457764-0.0112915,0.1177979,0,0.1657104   c0.0628052,0.1304932,0.0861816,0.300415,0.2249756,0.3549805c0.0684204-0.0220337,0.0614624-0.1199341,0.05896-0.2130127   c-0.0307617-0.1151733-0.0740356-0.2179565-0.1421509-0.2958374C15.2590332,14.3630981,15.225769,14.3346558,15.1908569,14.3571167   z" fill="#FCB316" fill-rule="evenodd"/><path clip-rule="evenodd" d="M14.362793,14.6885376   c0-0.0065308-0.0097656-0.0134888-0.0120239,0c-0.1166992-0.013916-0.1566772,0.048645-0.2130127,0.0946655   c-0.1002197,0.2653809,0.0606079,0.5254517,0.3430786,0.5206909c0.1134033-0.0285645,0.1826172-0.1013184,0.201355-0.2248535   C14.6688232,14.8556519,14.5725098,14.71521,14.362793,14.6885376z" fill="#FCB316" fill-rule="evenodd"/><path d="M22,4h-0.5v13.5c0,0.5512695-0.4487305,1-1,1H1V19c0,0.5512695,0.4487305,1,1,1h20   c0.5512695,0,1-0.4487305,1-1V5C23,4.4487305,22.5512695,4,22,4z" fill="#010101" opacity="0.1"/><linearGradient gradientUnits="userSpaceOnUse" id="SVGID_1_" x1="-0.7076151" x2="24.7076149" y1="6.0743418" y2="17.9256592"><stop offset="0" style="stop-color:#FFFFFF;stop-opacity:0.2"/><stop offset="1" style="stop-color:#FFFFFF;stop-opacity:0"/></linearGradient><path d="M22,3H2C0.8974609,3,0,3.8969727,0,5v14c0,1.1030273,0.8974609,2,2,2h20   c1.1025391,0,2-0.8969727,2-2V5C24,3.8969727,23.1025391,3,22,3z" fill="url(#SVGID_1_)"/></g><g/><g/><g/><g/><g/><g/><g/><g/><g/><g/><g/><g/><g/><g/><g/></svg>