<?xml version="1.0" ?><!DOCTYPE svg  PUBLIC '-//W3C//DTD SVG 1.1//EN'  'http://www.w3.org/Graphics/SVG/1.1/DTD/svg11.dtd'><svg enable-background="new 0 0 512 512" height="512px" id="Layer_1" version="1.1" viewBox="0 0 512 512" width="512px" xml:space="preserve" xmlns="http://www.w3.org/2000/svg" xmlns:xlink="http://www.w3.org/1999/xlink"><g><g><path d="M482.722,103.198c13.854,0,25.126,11.271,25.126,25.126v257.9c0,13.854-11.271,25.126-25.126,25.126H30.99    c-13.854,0-25.126-11.271-25.126-25.126v-257.9c0-13.854,11.271-25.126,25.126-25.126H482.722 M482.722,98.198H30.99    c-16.638,0-30.126,13.488-30.126,30.126v257.9c0,16.639,13.488,30.126,30.126,30.126h451.732    c16.639,0,30.126-13.487,30.126-30.126v-257.9C512.848,111.686,499.36,98.198,482.722,98.198L482.722,98.198z" fill="#06326E"/></g><g><path clip-rule="evenodd" d="M41.035,274.545c0,0,73.417,0,75.413,0    c2.192,0,3.392,1.995,3.392,2.592c0,0.795,0,34.712,0,35.512c0,1.397-1.797,2.992-3.392,2.79    c-1.797-0.197-75.413-10.571-75.413-10.571h75.413l-75.413-10.175h75.413l-75.413-9.774h75.413L41.035,274.545L41.035,274.545z" fill="#FCBF00" fill-rule="evenodd"/><path clip-rule="evenodd" d="M154.951,270.354c0,0-73.616,0-75.612,0    c-2.195,0-3.39-1.994-3.39-2.592c0-0.801,0-34.717,0-35.512c0-1.2,1.794-2.995,3.39-2.794c1.794,0.2,75.612,10.575,75.612,10.575    H79.339l75.612,10.175H79.339l75.612,9.773H79.339L154.951,270.354L154.951,270.354z" fill="#FCBF00" fill-rule="evenodd"/><line fill="none" stroke="#06326E" stroke-miterlimit="2.6131" stroke-width="0.8978" x1="169.115" x2="169.115" y1="166.81" y2="353.946"/><path clip-rule="evenodd" d="M195.849,316.44c0.597,0,0.997,0,1.397,0    c1.595,0,2.792,0.997,2.792,2.789c0,1.2-0.4,2.197-1.197,2.795c-0.797,0.8-1.797,0.598-2.992,0.598V316.44L195.849,316.44z     M191.86,332.994h6.184c2.992,0,6.184-1.595,6.184-5.185c0-3.392-2.794-4.19-4.589-4.389v-0.197    c2.194-0.399,4.189-1.797,4.189-4.191c0-3.194-2.592-3.989-5.184-3.989h-6.784V332.994L191.86,332.994z M195.849,324.216    c2.794-0.197,4.389,0.8,4.389,3.791c0,2.198-1.594,3.393-3.194,3.393h-1.195V324.216L195.849,324.216z" fill="#06326E" fill-rule="evenodd"/><path clip-rule="evenodd" d="M211.011,326.013l2.592-6.186l2.395,6.186H211.011    L211.011,326.013z M216.597,327.613c0.6,1.594,1.197,3.387,1.794,5.381c0.8,0,1.597,0,2.197,0c0.795,0,1.595,0,2.393,0    l-7.381-18.153c-0.4,0-0.6,0-1,0c-0.397,0-0.598,0-0.997,0l-7.579,18.153c0.397,0,0.798,0,1.195,0c0.6,0,0.998,0,1.397,0    c0.4-1.792,1.197-3.387,1.797-5.381H216.597L216.597,327.613z" fill="#06326E" fill-rule="evenodd"/><path clip-rule="evenodd" d="M225.374,315.043h2.595c3.589,3.989,7.581,7.979,11.37,12.169    v-12.169c0.2,0,0.6,0,0.997,0c0.399,0,0.598,0,0.997,0v17.951h-2.191c-2.994-3.387-5.986-6.581-8.98-9.771l-2.792-2.997v12.768    c-0.397,0-0.597,0-0.997,0c-0.397,0-0.797,0-0.998,0V315.043L225.374,315.043z" fill="#06326E" fill-rule="evenodd"/><path clip-rule="evenodd" d="M245.325,315.043c0.598,0,1.197,0,1.994,0c0.6,0,1.197,0,1.997,0    v8.181c2.192-2.794,4.587-5.392,6.781-8.181c0.397,0,0.997,0,1.397,0c0.397,0,0.997,0,1.397,0v0.198l-4.392,4.388    c-0.795,0.997-1.596,1.798-2.395,2.795l6.985,10.175v0.396c-0.6,0-1.199,0-1.997,0c-0.6,0-1.197,0-1.795,0l-5.983-8.378v8.378    c-0.8,0-1.397,0-1.997,0c-0.797,0-1.396,0-1.994,0V315.043L245.325,315.043z" fill="#06326E" fill-rule="evenodd"/><path clip-rule="evenodd" d="M283.429,330.002l-0.598,2.197    c-1.396,0.795-3.392,1.194-5.186,1.194c-5.587,0-9.776-3.392-9.776-8.976c0-6.783,4.587-9.973,10.373-9.973    c1.795,0,3.791,0.598,5.386,1.393c-0.199,0.8-0.399,1.797-0.597,2.597h-0.4c-0.997-1.397-2.594-2.395-4.389-2.395    c-4.389,0-5.983,4.187-5.983,8.176c0,4.389,2.191,7.583,6.184,7.583c1.595,0,3.591-0.799,4.786-1.994L283.429,330.002    L283.429,330.002z" fill="#06326E" fill-rule="evenodd"/><path clip-rule="evenodd" d="M290.012,326.013l2.396-6.186l2.394,6.186H290.012    L290.012,326.013z M295.401,327.613c0.598,1.594,1.194,3.387,1.794,5.381c0.798,0,1.595,0,2.194,0c0.798,0,1.598,0,2.395,0    l-7.383-18.153c-0.398,0-0.598,0-0.997,0c-0.398,0-0.598,0-0.997,0l-7.581,18.153c0.399,0,0.798,0,1.396,0    c0.399,0,0.798,0,1.197,0c0.4-1.792,1.198-3.387,1.795-5.381H295.401L295.401,327.613z" fill="#06326E" fill-rule="evenodd"/><path clip-rule="evenodd" d="M307.768,316.44c1.598,0,3.592-0.202,3.992,1.994    c0.197,0.396,0.197,0.795,0.197,1.194c0,2.795-1.395,3.99-4.189,3.792V316.44L307.768,316.44z M303.779,332.994    c0.797,0,1.395,0,1.994,0c0.797,0,1.397,0,1.994,0v-8.378h0.201c0.599,0.997,1.396,2.196,1.796,2.794l2.992,5.584    c0.798,0,1.595,0,2.392,0c0.8,0,1.598,0,2.395,0l-0.997-1.595c-1.595-2.396-3.192-4.789-4.589-7.381    c2.395-0.598,3.991-2.192,3.991-4.789c0-1.792-0.8-2.991-2.194-3.791c-1.196-0.598-2.994-0.396-4.389-0.396h-5.586V332.994    L303.779,332.994z" fill="#06326E" fill-rule="evenodd"/><path clip-rule="evenodd" d="M323.93,316.44h2.592c3.792,0,5.985,1.994,5.985,6.98    c0,6.187-2.594,7.979-6.383,7.979h-2.194V316.44L323.93,316.44z M319.938,315.043v17.951h7.382c5.387,0,9.576-3.589,9.576-9.573    c0-4.389-2.195-8.18-7.781-8.378H319.938L319.938,315.043z" fill="#06326E" fill-rule="evenodd"/><path clip-rule="evenodd" d="M362.232,330.002l-0.599,2.197    c-1.396,0.795-3.39,1.194-5.188,1.194c-5.586,0-9.775-3.392-9.775-8.976c0-6.783,4.589-9.973,10.376-9.973    c1.794,0,3.989,0.598,5.386,1.393c-0.2,0.8-0.399,1.797-0.6,2.597h-0.397c-0.997-1.397-2.595-2.395-4.389-2.395    c-4.389,0-5.986,4.187-5.986,8.176c0,4.389,2.194,7.583,6.184,7.583c1.597,0,3.592-0.799,4.789-1.994L362.232,330.002    L362.232,330.002z" fill="#06326E" fill-rule="evenodd"/><path clip-rule="evenodd" d="M374.402,316.04c3.989,0,5.586,3.989,5.586,7.381    c0,4.389-1.794,8.378-5.985,8.378c-3.789,0-5.387-3.589-5.387-6.98C368.616,318.83,370.811,316.04,374.402,316.04L374.402,316.04z     M384.378,323.821c0-3.994-2.194-9.376-9.775-9.376c-6.584,0-10.375,4.385-10.375,9.573c0,5.983,3.992,9.375,9.775,9.375    C380.387,333.394,384.378,329.004,384.378,323.821L384.378,323.821z" fill="#06326E" fill-rule="evenodd"/><path clip-rule="evenodd" d="M402.931,315.043c0.4,0,0.798,0,1.197,0c0.4,0,0.797,0,1.197,0    c0.798,6.981,1.397,12.767,2.194,17.951c-0.598,0-1.396,0-2.194,0c-0.6,0-1.397,0-1.994,0c-0.2-4.187-0.8-8.176-1.197-12.165    c-1.995,3.989-3.992,7.979-5.786,12.165c-0.399-0.198-0.798-0.198-0.997,0c-1.795-3.787-3.792-7.776-5.786-11.968    c-0.598,4.587-0.997,8.379-1.198,11.968c-0.396,0-0.796,0-1.196,0c-0.397,0-0.798,0-1.197,0c1-5.185,1.797-11.37,2.595-17.951    c0.399,0,0.796,0,1.196,0s0.598,0,0.998,0c1.994,3.989,3.988,8.181,6.186,12.367C398.742,323.619,400.937,319.432,402.931,315.043    L402.931,315.043z" fill="#06326E" fill-rule="evenodd"/><path clip-rule="evenodd" d="M414.104,316.44h1.597c1.395,0,2.593,1.392,2.593,3.387    c0,1.6-0.798,3.194-2.396,3.594c-0.598,0.198-1.196,0.198-1.794,0.198V316.44L414.104,316.44z M414.104,325.016    c4.788,0,8.178-0.997,8.178-5.584c0-2.991-1.994-4.389-5.586-4.389h-6.581v17.951c0.798,0,1.395,0,1.994,0    c0.598,0,1.396,0,1.995,0V325.016L414.104,325.016z" fill="#06326E" fill-rule="evenodd"/><path clip-rule="evenodd" d="M426.671,326.013l2.394-6.186l2.395,6.186H426.671    L426.671,326.013z M432.059,327.613c0.798,1.594,1.198,3.387,1.796,5.381c0.796,0,1.594,0,2.394,0c0.798,0,1.397,0,2.194,0    l-7.383-18.153c-0.198,0-0.598,0-0.995,0c-0.202,0-0.6,0-1,0l-7.381,18.153c0.4,0,0.798,0,1.198,0c0.399,0,0.797,0,1.196,0    c0.598-1.792,1.197-3.387,1.795-5.381H432.059L432.059,327.613z" fill="#06326E" fill-rule="evenodd"/><path clip-rule="evenodd" d="M440.837,315.043h2.592c3.792,3.989,7.581,7.979,11.373,12.169    v-12.169c0.399,0,0.797,0,0.997,0c0.4,0,0.797,0,1.196,0v17.951h-2.394c-2.991-3.387-5.786-6.581-8.778-9.771l-2.795-2.997v12.768    c-0.396,0-0.796,0-1.194,0c-0.199,0-0.599,0-0.997,0V315.043L440.837,315.043z" fill="#06326E" fill-rule="evenodd"/><path clip-rule="evenodd" d="M464.977,325.415c-1.997-3.391-3.592-6.98-5.586-10.372    c0.797,0,1.595,0,2.395,0c0.797,0,1.594,0,2.392,0c0.6,1.397,1.397,2.991,2.194,4.586c0.6,1.595,1.397,2.795,1.597,3.195    c0.997-1.2,2.993-5.589,3.992-7.781c0.397,0,0.797,0,1.395,0c0.399,0,0.797,0,1.197,0c-1.995,3.392-3.989,6.581-5.587,9.775v8.176    c-0.597,0-1.196,0-1.994,0c-0.6,0-1.197,0-1.994,0V325.415L464.977,325.415z" fill="#06326E" fill-rule="evenodd"/><path clip-rule="evenodd" d="M41.435,188.957c0,0,73.415,0,75.412,0    c2.392,0,3.392,1.995,3.392,2.592c0,0.799,0,34.714,0,35.511c0,1.398-1.797,2.992-3.392,2.794    c-1.597-0.2-75.412-10.575-75.412-10.575h75.412l-75.412-9.976h75.412l-75.412-9.975h75.412L41.435,188.957L41.435,188.957z" fill="#FCBF00" fill-rule="evenodd"/><path clip-rule="evenodd" d="M216.199,199.132c3.389-0.6,5.784-0.8,8.378-0.8    c10.572,0,17.356,6.383,17.356,18.156c0,6.184-1.995,12.567-6.983,16.759c-5.584,4.786-11.77,3.989-18.751,3.989V199.132    L216.199,199.132z M192.058,299.882h37.309c19.15,0,39.301-9.381,39.301-31.726c0-19.948-17.158-25.534-29.128-26.731v-1.395    c13.767-1.997,26.533-10.575,26.533-25.937c0-18.953-15.961-24.339-32.317-24.339h-41.697V299.882L192.058,299.882z     M216.199,246.611c17.354-1.195,27.331,4.989,27.331,22.745c0,13.363-10.175,21.145-19.152,21.145h-8.179V246.611L216.199,246.611    z" fill="#06326E" fill-rule="evenodd"/><path clip-rule="evenodd" d="M347.469,293.296c-24.937,0-38.503-19.551-38.503-47.084    c0-23.939,10.771-49.674,37.705-49.674c10.376,0,20.549,6.184,26.534,14.764v-19.353c-8.378-3.192-18.156-4.986-26.733-4.986    c-35.312,0-64.438,19.15-64.438,61.445c0,33.117,26.335,54.465,60.849,54.465c10.373,0,21.146-1.797,30.323-6.187v-12.969    C366.021,289.306,356.247,293.296,347.469,293.296L347.469,293.296z" fill="#06326E" fill-rule="evenodd"/><path clip-rule="evenodd" d="M445.823,293.098c-24.937,0-38.503-19.555-38.503-47.084    c0-23.742,10.973-49.476,37.706-49.476c10.572,0,20.947,5.986,26.934,14.764h0.797v-19.153c-8.58-3.392-18.953-5.389-27.931-5.389    c-35.112,0-64.439,19.156-64.439,61.448c0,33.12,26.336,54.462,61.048,54.462c10.575,0,21.745-1.792,31.322-6.581v-13.37    C465.374,288.709,455.001,293.098,445.823,293.098L445.823,293.098z" fill="#06326E" fill-rule="evenodd"/></g></g></svg>