<?xml version="1.0" ?><!DOCTYPE svg  PUBLIC '-//W3C//DTD SVG 1.1//EN'  'http://www.w3.org/Graphics/SVG/1.1/DTD/svg11.dtd'><svg enable-background="new 0 0 512 512" height="512px" id="Layer_1" version="1.1" viewBox="0 0 512 512" width="512px" xml:space="preserve" xmlns="http://www.w3.org/2000/svg" xmlns:xlink="http://www.w3.org/1999/xlink"><g><g><path d="M481.857,102.698c13.854,0,25.126,11.271,25.126,25.126v257.899c0,13.854-11.271,25.126-25.126,25.126    H30.126C16.272,410.85,5,399.579,5,385.724v-257.9c0-13.854,11.271-25.126,25.126-25.126H481.857 M481.857,97.698H30.126    C13.488,97.698,0,111.186,0,127.824v257.899c0,16.64,13.488,30.126,30.126,30.126h451.731c16.64,0,30.126-13.486,30.126-30.126    V127.824C511.983,111.186,498.496,97.698,481.857,97.698L481.857,97.698z" fill="#F7931A"/></g><g><g><g><path d="M376.466,286.042c-16.59,66.534-83.978,107.026-150.519,90.437      c-66.516-16.59-107.009-83.98-90.412-150.511c16.582-66.541,83.971-107.039,150.494-90.45      C352.563,152.105,393.053,219.503,376.466,286.042z" fill="#F7931A"/><g><g><path d="M310.735,238.304c2.471-16.527-10.11-25.411-27.314-31.337L289,184.579l-13.626-3.396l-5.435,21.797        c-3.583-0.894-7.26-1.736-10.92-2.57l5.471-21.94l-13.618-3.396l-5.585,22.379c-2.964-0.675-5.875-1.342-8.702-2.045        l0.016-0.068l-18.794-4.692l-3.623,14.552c0,0,10.11,2.318,9.898,2.462c5.518,1.38,6.517,5.032,6.35,7.927l-6.358,25.502        c0.379,0.099,0.872,0.235,1.417,0.455c-0.455-0.114-0.94-0.235-1.44-0.356l-8.913,35.724        c-0.675,1.675-2.386,4.192-6.244,3.237c0.136,0.197-9.906-2.471-9.906-2.471l-6.765,15.597l17.732,4.419        c3.297,0.826,6.532,1.69,9.714,2.509l-5.638,22.643l13.612,3.396l5.585-22.402c3.72,1.008,7.328,1.941,10.861,2.818        l-5.564,22.298l13.626,3.396l5.64-22.601c23.236,4.397,40.711,2.623,48.064-18.394c5.926-16.921-0.296-26.683-12.519-33.049        C302.24,256.258,308.947,250.4,310.735,238.304z M279.603,281.965c-4.213,16.923-32.702,7.776-41.94,5.479l7.482-29.996        C254.381,259.751,284.005,264.314,279.603,281.965z M283.816,238.061c-3.842,15.394-27.555,7.571-35.247,5.653l6.783-27.206        C263.043,218.426,287.818,222.004,283.816,238.061z" fill="#FFFFFF"/></g></g></g></g></g></g></svg>