<?xml version="1.0" ?><!DOCTYPE svg  PUBLIC '-//W3C//DTD SVG 1.1//EN'  'http://www.w3.org/Graphics/SVG/1.1/DTD/svg11.dtd'><svg enable-background="new 0 0 512 512" height="512px" id="Layer_1" version="1.1" viewBox="0 0 512 512" width="512px" xml:space="preserve" xmlns="http://www.w3.org/2000/svg" xmlns:xlink="http://www.w3.org/1999/xlink"><g><g><path d="M481.874,102.698c13.854,0,25.126,11.271,25.126,25.126v257.899c0,13.854-11.271,25.126-25.126,25.126    H30.143c-13.854,0-25.126-11.271-25.126-25.126V127.824c0-13.854,11.271-25.126,25.126-25.126H481.874 M481.874,97.698H30.143    c-16.638,0-30.126,13.488-30.126,30.126v257.899c0,16.64,13.488,30.126,30.126,30.126h451.731    c16.64,0,30.126-13.486,30.126-30.126V127.824C512,111.186,498.513,97.698,481.874,97.698L481.874,97.698z" fill="#3F63AC"/></g><g><g><g><linearGradient gradientUnits="userSpaceOnUse" id="SVGID_1_" x1="316.4102" x2="256.791" y1="202.5664" y2="229.1105"><stop offset="0" style="stop-color:#FFCC00"/><stop offset="1" style="stop-color:#CC9900"/></linearGradient><path d="M312.485,303.295c-0.359,0-0.714-0.007-1.078-0.03c-11.178-0.59-19.768-10.179-19.183-21.423      c3.896-74.862-55.242-108.362-55.843-108.69c-9.814-5.414-13.411-17.807-8.027-27.681c5.379-9.877,17.701-13.494,27.52-8.08      c3.353,1.849,82.046,46.429,76.836,146.58C332.146,294.854,323.191,303.295,312.485,303.295z" fill="url(#SVGID_1_)"/></g><g><linearGradient gradientUnits="userSpaceOnUse" id="SVGID_2_" x1="185.436" x2="253.2094" y1="167.415" y2="260.0606"><stop offset="0" style="stop-color:#6699CC"/><stop offset="1" style="stop-color:#3366CC"/></linearGradient><path d="M243.367,279.298c-0.046,0-0.089,0-0.134,0c-10.825,0-19.543-7.99-19.472-18.818      c0.288-43.377-44.629-67.907-45.083-68.151c-9.506-5.181-13.011-16.856-7.831-26.362c5.178-9.505,17.079-12.902,26.591-7.718      c2.695,1.466,65.966,35.866,65.526,102.435C262.894,271.463,254.131,279.298,243.367,279.298z" fill="url(#SVGID_2_)"/></g><g><linearGradient gradientUnits="userSpaceOnUse" id="SVGID_3_" x1="320.6201" x2="320.6201" y1="110.8237" y2="303.3032"><stop offset="0" style="stop-color:#57B149"/><stop offset="1" style="stop-color:#39823E"/></linearGradient><path d="M312.188,303.303c-2.871,0-5.786-0.605-8.565-1.885c-10.305-4.736-14.816-16.93-10.079-27.233      c32.754-71.245,1.545-132.724,1.226-133.337c-5.239-10.056-1.333-22.459,8.727-27.695c10.058-5.243,22.459-1.334,27.697,8.729      c1.682,3.23,40.73,80.141-0.335,169.455C327.397,298.861,319.962,303.303,312.188,303.303z" fill="url(#SVGID_3_)"/></g><g><linearGradient gradientUnits="userSpaceOnUse" id="SVGID_4_" x1="250.6821" x2="250.6821" y1="134.6128" y2="281.1274"><stop offset="0" style="stop-color:#DE1F26"/><stop offset="1" style="stop-color:#CC0000"/></linearGradient><path d="M243.347,281.127c-3.894,0-7.824-1.152-11.252-3.562c-8.857-6.226-10.993-18.45-4.771-27.307      c24.612-35.031,0.328-86.889,0.076-87.403c-4.769-9.717-0.759-21.461,8.959-26.23c9.719-4.776,21.466-0.758,26.233,8.955      c1.447,2.953,35.008,72.841-3.189,127.21C255.587,278.225,249.515,281.127,243.347,281.127z" fill="url(#SVGID_4_)"/></g></g><g><g><path d="M283.479,327.435c1.685,1.394,5.201,4.325,5.201,9.9c0,5.424-3.078,7.992-6.158,10.41      c-0.953,0.952-2.054,1.98-2.054,3.594c0,1.611,1.101,2.492,1.906,3.153l2.643,2.048c3.223,2.713,6.156,5.209,6.156,10.271      c0,6.891-6.675,13.855-19.282,13.855c-10.634,0-15.763-5.06-15.763-10.485c0-2.643,1.316-6.376,5.646-8.946      c4.542-2.786,10.703-3.149,14.001-3.373c-1.027-1.321-2.2-2.713-2.2-4.982c0-1.247,0.37-1.982,0.735-2.86      c-0.81,0.072-1.612,0.146-2.349,0.146c-7.771,0-12.17-5.793-12.17-11.509c0-3.372,1.542-7.116,4.691-9.827      c4.182-3.445,9.166-4.032,13.127-4.032h15.101l-4.691,2.639H283.479z M278.268,359.99c-0.584-0.073-0.951-0.073-1.681-0.073      c-0.663,0-4.625,0.146-7.702,1.173c-1.613,0.587-6.305,2.345-6.305,7.552s5.061,8.948,12.905,8.948      c7.036,0,10.778-3.38,10.778-7.918C286.264,365.925,283.842,363.951,278.268,359.99z M280.395,346.06      c1.688-1.688,1.833-4.033,1.833-5.353c0-5.279-3.152-13.49-9.234-13.49c-1.911,0-3.961,0.951-5.139,2.421      c-1.244,1.541-1.609,3.516-1.609,5.425c0,4.91,2.86,13.049,9.167,13.049C277.242,348.111,279.218,347.232,280.395,346.06z" fill="#3F63AC"/><path d="M237.318,358.816c-11.638,0-17.86-9.075-17.86-17.276c0-9.591,7.832-17.786,18.96-17.786      c10.758,0,17.493,8.416,17.493,17.277C255.912,349.663,249.253,358.816,237.318,358.816z M246.467,352.889      c1.759-2.345,2.2-5.271,2.2-8.129c0-6.439-3.076-18.735-12.152-18.735c-2.417,0-4.832,0.952-6.587,2.49      c-2.854,2.562-3.37,5.781-3.37,8.93c0,7.245,3.588,19.176,12.446,19.176C241.857,356.62,244.786,355.23,246.467,352.889z" fill="#3F63AC"/><path d="M197.642,358.816c-11.639,0-17.862-9.075-17.862-17.276c0-9.591,7.834-17.786,18.961-17.786      c10.759,0,17.493,8.416,17.493,17.277C216.234,349.663,209.576,358.816,197.642,358.816z M206.792,352.889      c1.759-2.345,2.197-5.271,2.197-8.129c0-6.439-3.074-18.735-12.151-18.735c-2.414,0-4.832,0.952-6.588,2.49      c-2.854,2.562-3.366,5.781-3.366,8.93c0,7.245,3.584,19.176,12.444,19.176C202.184,356.62,205.111,355.23,206.792,352.889z" fill="#3F63AC"/><path d="M174.188,357.669l-10.524,2.43c-4.271,0.661-8.097,1.25-12.142,1.25      c-20.313,0-28.039-14.939-28.039-26.645c0-14.275,10.964-27.52,29.732-27.52c3.975,0,7.8,0.587,11.257,1.545      c5.521,1.546,8.096,3.459,9.716,4.562l-6.11,5.814l-2.574,0.588l1.84-2.944c-2.501-2.429-7.068-6.917-15.75-6.917      c-11.627,0-20.385,8.834-20.385,21.713c0,13.832,10.008,26.856,26.05,26.856c4.714,0,7.14-0.952,9.348-1.84v-11.846      l-11.111,0.588l5.886-3.165h15.603l-1.913,1.838c-0.519,0.441-0.588,0.591-0.736,1.176c-0.077,0.665-0.146,2.802-0.146,3.535      V357.669z" fill="#3F63AC"/><path d="M306.737,355.552c-2.43-0.224-2.941-0.662-2.941-3.533v-0.813v-40.842      c0.016-0.159,0.026-0.32,0.042-0.475c0.294-2.576,1.032-3.016,3.313-4.343h-10.523l-5.523,2.649h5.627v0.034l-0.004-0.025      v43.001v2.433c0,1.471-0.292,1.69-1.985,3.897h13.026l2.724-1.617C309.239,355.771,307.989,355.696,306.737,355.552z" fill="#3F63AC"/><path d="M336.684,356.228c-0.802,0.438-1.605,0.952-2.406,1.316c-2.417,1.095-4.9,1.387-7.096,1.387      c-2.336,0-5.992-0.147-9.72-2.849c-5.186-3.655-7.455-9.94-7.455-15.424c0-11.327,9.212-16.882,16.736-16.882      c2.634,0,5.34,0.658,7.534,2.048c3.649,2.407,4.599,5.549,5.11,7.23l-17.172,6.947l-5.633,0.438      c1.826,9.283,8.114,14.69,15.057,14.69c3.73,0,6.435-1.314,8.918-2.557L336.684,356.228z M329.815,334.444      c1.388-0.51,2.116-0.948,2.116-1.972c0-2.922-3.287-6.286-7.234-6.286c-2.927,0-8.406,2.269-8.406,10.16      c0,1.243,0.146,2.559,0.221,3.876L329.815,334.444z" fill="#3F63AC"/></g><g><path d="M300.852,373.823l2.554,11.892c0.51,2.611,1.021,5.028,1.376,7.446h0.118      c0.433-2.37,1.06-4.883,1.689-7.398l3.104-11.939h2.909l2.948,11.698c0.708,2.805,1.258,5.27,1.689,7.64h0.117      c0.315-2.37,0.827-4.835,1.456-7.592l2.711-11.746h3.42l-6.131,23.397h-3.146l-2.908-11.166      c-0.669-2.611-1.219-4.933-1.689-7.688h-0.08c-0.471,2.805-1.061,5.221-1.729,7.734l-3.065,11.119h-3.145l-5.739-23.397H300.852      z" fill="#3F63AC"/><path d="M344.296,391.602c0,2.03,0.086,4.013,0.303,5.609h-3.437l-0.303-2.952h-0.13      c-1.174,1.839-3.438,3.483-6.438,3.483c-4.263,0-6.437-3.338-6.437-6.722c0-5.658,4.522-8.753,12.656-8.705v-0.482      c0-1.887-0.478-5.416-4.784-5.368c-2.001,0-4.044,0.629-5.522,1.74l-0.871-2.852c1.74-1.211,4.307-2.032,6.96-2.032      c6.437,0,8.003,4.884,8.003,9.526V391.602z M340.598,385.266c-4.174-0.097-8.915,0.724-8.915,5.271      c0,2.806,1.652,4.062,3.565,4.062c2.784,0,4.567-1.935,5.177-3.915c0.129-0.483,0.173-0.967,0.173-1.354V385.266z" fill="#3F63AC"/><path d="M349.905,363.592h3.46v33.629h-3.46V363.592z" fill="#3F63AC"/><path d="M357.822,363.592h3.46v33.629h-3.46V363.592z" fill="#3F63AC"/><path d="M367.855,386.282c0.082,5.754,3.2,8.122,6.9,8.122c2.619,0,4.239-0.532,5.568-1.207l0.667,3.048      c-1.29,0.676-3.535,1.497-6.733,1.497c-6.192,0-9.894-4.788-9.894-11.847c0-7.06,3.573-12.574,9.437-12.574      c6.607,0,8.312,6.673,8.312,10.978c0,0.87-0.041,1.499-0.124,1.983H367.855z M378.578,383.236      c0.043-2.661-0.953-6.869-5.068-6.869c-3.741,0-5.321,3.918-5.611,6.869H378.578z" fill="#3F63AC"/><path d="M389.785,365.46v8.328h4.765v3.244h-4.765v12.63c0,2.9,0.642,4.547,2.496,4.547      c0.907,0,1.437-0.097,1.929-0.29l0.152,3.243c-0.645,0.29-1.665,0.58-2.951,0.58c-1.552,0-2.799-0.678-3.595-1.791      c-0.908-1.308-1.284-3.389-1.284-6.146v-12.773h-2.839v-3.244h2.839v-7.07L389.785,365.46z" fill="#3F63AC"/></g></g></g></g></svg>