<?xml version="1.0" ?><svg id="Layer_1" style="enable-background:new 0 0 512 512;" version="1.1" viewBox="0 0 512 512" xml:space="preserve" xmlns="http://www.w3.org/2000/svg" xmlns:xlink="http://www.w3.org/1999/xlink"><g><path d="M246.8,44.8L224.5,6H113.4v38.8H77v354.3L184.6,506H435V44.8H246.8z M128.6,140.5c3.3-4.3,9-4.7,12.7-0.9l17.9,18.2V75.2   c0-5.7,4-10.4,9-10.4s9,4.6,9,10.4v82.6l17.9-18.2c3.7-3.8,9.4-3.4,12.7,0.9c3.3,4.3,3,10.8-0.8,14.6l-32.8,33.4c0,0,0,0,0,0   l-0.1,0.1c-0.2,0.2-0.4,0.4-0.7,0.6c-0.1,0.1-0.2,0.1-0.2,0.2c-0.2,0.1-0.3,0.3-0.5,0.4c-0.1,0.1-0.2,0.1-0.3,0.2   c-0.2,0.1-0.3,0.2-0.5,0.3c-0.1,0.1-0.2,0.1-0.3,0.1c-0.2,0.1-0.4,0.2-0.5,0.2c-0.1,0-0.2,0.1-0.3,0.1c-0.2,0.1-0.4,0.1-0.6,0.2   c-0.1,0-0.2,0.1-0.3,0.1c-0.2,0-0.4,0.1-0.6,0.1c-0.1,0-0.2,0-0.2,0c-0.3,0-0.6,0.1-0.9,0.1c0,0,0,0,0,0s0,0,0,0   c-0.3,0-0.6,0-0.9-0.1c-0.1,0-0.2,0-0.2,0c-0.2,0-0.4-0.1-0.6-0.1c-0.1,0-0.2,0-0.3-0.1c-0.2-0.1-0.4-0.1-0.6-0.2   c-0.1,0-0.2-0.1-0.3-0.1c-0.2-0.1-0.4-0.1-0.5-0.2c-0.1,0-0.2-0.1-0.3-0.1c-0.2-0.1-0.3-0.2-0.5-0.3c-0.1-0.1-0.2-0.1-0.3-0.2   c-0.2-0.1-0.4-0.3-0.5-0.4c-0.1-0.1-0.2-0.1-0.2-0.2c-0.2-0.2-0.5-0.4-0.7-0.6l-0.1-0.1c0,0,0,0,0,0l-32.8-33.4   C125.6,151.3,125.3,144.8,128.6,140.5z M415.9,486.9H193.6v-97.1H96.1V63.9h17.3v121.5l55.5,50.3l55.5-50.3V63.9h191.4V486.9z"/><rect height="21.3" width="132.6" x="256" y="114.5"/><rect height="21.3" width="132.6" x="256" y="187.1"/><rect height="21.3" width="267" x="121.6" y="332.4"/><rect height="21.3" width="267" x="121.6" y="259.7"/><polygon points="247.2,426.7 269.5,426.7 269.5,419.1 247.2,419.1 247.2,403 273.2,403 273.2,395.4 237.7,395.4 237.7,452.3    273.5,452.3 273.5,444.7 247.2,444.7  "/><path d="M306.2,395.4h-21.8v56.9h9.5v-21.6h12.3c6.3,0,11.2-1.6,14.7-4.8c3.6-3.2,5.3-7.5,5.3-12.8c0-5.3-1.8-9.6-5.3-12.8   C317.4,397,312.5,395.4,306.2,395.4z M314.2,420.3c-1.8,1.9-4.4,2.8-7.9,2.8h-12.3V403h12.3c3.5,0,6.2,1,7.9,2.9   c1.8,1.9,2.7,4.3,2.7,7.2C316.8,416,315.9,418.4,314.2,420.3z"/><path d="M358.9,419.7c-4.4-1.3-7.6-2.6-9.5-4c-1.9-1.4-2.9-3.2-2.9-5.4c0-2.4,0.9-4.4,2.6-5.9c1.7-1.5,4.2-2.3,7.4-2.3   c3.3,0,6,0.9,8,2.7c2,1.8,3,4.2,3,7.1h9.1l0.1-0.2c0.1-4.8-1.6-8.9-5.3-12.2c-3.7-3.3-8.6-4.9-14.7-4.9c-5.7,0-10.4,1.5-14.1,4.5   c-3.6,3-5.5,6.7-5.5,11.3c0,4.4,1.7,8,5,10.8s8,5,14.2,6.7c4.3,1.2,7.2,2.6,8.9,4.1c1.7,1.5,2.5,3.5,2.5,5.8c0,2.4-0.9,4.3-2.8,5.8   c-1.9,1.4-4.5,2.1-7.8,2.1c-3.4,0-6.3-0.9-8.6-2.6c-2.4-1.7-3.5-4.3-3.5-7.7h-9.1l-0.1,0.2c-0.1,5.6,2,9.9,6.3,13   c4.3,3.1,9.3,4.6,15.1,4.6c6,0,10.9-1.4,14.6-4.2c3.7-2.8,5.5-6.6,5.5-11.3c0-4.5-1.6-8.2-4.7-11   C369.4,423.7,364.9,421.4,358.9,419.7z"/></g></svg>