<?xml version="1.0" ?><!DOCTYPE svg  PUBLIC '-//W3C//DTD SVG 1.1//EN'  'http://www.w3.org/Graphics/SVG/1.1/DTD/svg11.dtd'><svg enable-background="new 0 0 1024 1024" height="1024px" id="Badoo" version="1.1" viewBox="0 0 1024 1024" width="1024px" xml:space="preserve" xmlns="http://www.w3.org/2000/svg" xmlns:xlink="http://www.w3.org/1999/xlink"><g id="Background"><rect fill="#FF7802" height="1024" id="bg_1_" width="1024"/></g><path d="M512.25,333.325c-67.013,0-127.773,26.728-172.237,70.089V232.199c0-19.33-15.67-35-35-35h-5  c-19.33,0-35,15.67-35,35v350c0,2.357,0.236,4.661,0.682,6.889c4.751,132.086,113.31,237.713,246.556,237.713  c136.271,0,246.737-110.469,246.737-246.737C758.987,443.794,648.52,333.325,512.25,333.325z M512.25,751.801  c-94.696,0-171.737-77.041-171.737-171.736c0-94.696,77.041-171.738,171.737-171.738s171.737,77.042,171.737,171.738  C683.987,674.76,606.946,751.801,512.25,751.801z" fill="#FFFFFF"/><circle cx="423.584" cy="581.033" fill="#FFFFFF" r="51"/></svg>