<?xml version="1.0" ?><!DOCTYPE svg  PUBLIC '-//W3C//DTD SVG 1.1//EN'  'http://www.w3.org/Graphics/SVG/1.1/DTD/svg11.dtd'><svg enable-background="new 0 0 1024 1024" height="1024px" id="Facebook_1_" version="1.1" viewBox="0 0 1024 1024" width="1024px" xml:space="preserve" xmlns="http://www.w3.org/2000/svg" xmlns:xlink="http://www.w3.org/1999/xlink"><g id="Background_1_"><rect fill="#3B5998" height="1024" id="bg" width="1024"/></g><path d="M672.75,305.641v-101.75c-3.736,0-7.473-0.007-11.209,0.001  c-8.996,0.02-17.993-0.022-26.99,0.001c-10.972,0.028-21.942-0.046-32.915,0.001c-9.667,0.042-19.337-0.097-29.003,0.003  c-14.592,0.151-28.443,0.868-42.438,5.375c-13.493,4.346-26.158,11.955-36.948,21.081c-6.248,5.284-12.031,10.943-17.269,17.234  c-2.121,2.613-4.097,5.33-5.942,8.14c-5.538,8.431-9.913,17.704-13.567,27.535c-0.821,2.213-1.628,4.432-2.397,6.662  c-5.634,16.324-5.82,34.143-5.82,51.297c0,2.148,0,4.363,0,6.629c0,33.984,0,79.291,0,79.291h-97v112h93.5h2.5v281h111v-283.5  L659,538l13.583-110.125L558.75,427.64v-85c0,0-0.25-36.25,30.5-36.75L672.75,305.641z" fill="#FFFFFF" id="Facebook"/></svg>