<?xml version="1.0" ?><!DOCTYPE svg  PUBLIC '-//W3C//DTD SVG 1.1//EN'  'http://www.w3.org/Graphics/SVG/1.1/DTD/svg11.dtd'><svg enable-background="new 0 0 1024 1024" height="1024px" id="Iconfinder" version="1.1" viewBox="0 0 1024 1024" width="1024px" xml:space="preserve" xmlns="http://www.w3.org/2000/svg" xmlns:xlink="http://www.w3.org/1999/xlink"><g id="Background"><rect height="1024" id="bg_1_" width="1024"/></g><g id="Iconfinder_1_"><path d="M769.623,397.877c-41.465-67.171-100.548-130.455-175.388-183.305   c-39.659-27.869-79.152-50.306-82.236-50.306c-2.999,0-46.285,21.624-86.666,48.699   c-74.838,52.849-129.493,117.741-170.957,184.912c-55.964,90.146-80.218,187.28-75.977,275.549   c0.003-0.002,0.005-0.005,0.007-0.009l0.006,0.028c-0.004-0.007-0.008-0.014-0.013-0.021c0,0,2.934,45.51,5.434,53.412   c2.5,7.903,80.639,62.659,128.454,79.487c-0.001,0-0.002-0.002-0.003-0.002c55.68,23.494,124.813,37.409,199.715,37.409   c74.9,0,144.035-13.915,199.714-37.409c-0.001,0-0.001,0.002-0.002,0.002c47.815-16.828,125.954-71.584,128.454-79.487   c2.5-7.902,5.434-53.412,5.434-53.412c-0.003,0.004-0.005,0.007-0.007,0.012l0.001-0.019c0.002,0.003,0.004,0.005,0.006,0.007   C849.841,585.158,825.587,488.023,769.623,397.877z M180.525,676.931l0.007-0.001c0.001,0.008,0.003,0.015,0.004,0.021   C180.532,676.943,180.528,676.938,180.525,676.931z M792.186,706.897c-10.325,17.901-201.219,108.654-123.131,41.337   c68.07-58.686,65.538-137.91,63.769-157.276c-45.338,160.66-167.188,192.511-272.804,192.976   c-106.396,0.471-220.387-61.78-230.716-79.682c-10.33-17.899,6.633-228.584,25.835-127.288   c16.751,88.364,86.698,125.813,104.29,133.936c-117.122-119.752-85.027-242.161-31.286-333.267c54.858-93,163.667-160,184.333-160   s194.667,120,97.333,86s-169.401,24.461-169.401,24.461c162.91-42.247,251.451,47.892,305.301,139.184   C797.826,555.633,802.514,688.996,792.186,706.897z" fill="#FFFFFF"/><path d="M696.363,491.768c-29.951-25.006-62.152-40.464-91.131-50.007c-20.218-7.146-42.896-12.039-67.09-14.105   c-16.208-1.553-26.143-1.116-26.143-1.116l0,0c0,0-9.934-0.437-26.141,1.116c-24.192,2.065-46.871,6.958-67.088,14.104   c-28.979,9.544-61.183,25.002-91.134,50.009c0,0-7.708,26.821,3.061,66.813c37.919,153.577,281.989,164.703,350.017,33.535   c0.075-0.138,0.154-0.27,0.225-0.415c0.048-0.1,0.093-0.195,0.14-0.294c5.129-10.022,9.233-20.869,12.146-32.542   C704.107,518.716,696.363,491.768,696.363,491.768z M513.197,623.268c-49.153,0-89-39.734-89-88.75   c0-11.149,2.067-21.815,5.832-31.646c5.648,13.729,19.151,23.396,34.918,23.396c20.849,0,37.75-16.9,37.75-37.75   c0-16.309-10.342-30.199-24.825-35.479c10.83-4.675,22.772-7.271,35.325-7.271c49.152,0,89,39.734,89,88.75   C602.197,583.532,562.35,623.268,513.197,623.268z" fill="#FFFFFF"/></g></svg>