<?xml version="1.0" ?><!DOCTYPE svg  PUBLIC '-//W3C//DTD SVG 1.1//EN'  'http://www.w3.org/Graphics/SVG/1.1/DTD/svg11.dtd'><svg enable-background="new 0 0 1024 1024" height="1024px" id="iTunes" version="1.1" viewBox="0 0 1024 1024" width="1024px" xml:space="preserve" xmlns="http://www.w3.org/2000/svg" xmlns:xlink="http://www.w3.org/1999/xlink"><g id="Background"><rect fill="#CD5BD3" height="1024" id="bg" width="1024"/></g><path d="M394.188,727.721c-0.023,4.629-0.079,6.22-0.78,13.472  c-1.484,15.384-9.631,28.536-20.387,40.174c-5.074,5.488-10.808,10.453-17.158,14.652c-12.624,8.356-27.352,13.371-42.56,15.85  c-33.066,5.386-64.352,2.897-84.459-19.483c-9.955-11.081-16.973-24.077-18.901-38.487c-2.562-19.119,0.096-40.521,15.264-54.785  c14.127-13.287,34.143-20.716,53.106-25.897c3.595-0.98,7.219-1.88,10.862-2.698c31.28-7.048,51.839-6.22,60.774-15.753  c8.939-9.535,8.044-27.361,8.044-59.279s0-270.266,0-270.266c0-4.343,0-8.686,0-13.027c0-6.234,0-12.469,0-18.704  c0-4.494,0.737-8.353,3.355-12.169c4.707-6.863,12.863-10.449,20.7-12.349c0.175-0.043,0.348-0.083,0.524-0.124  c1.813-0.423,3.637-0.801,5.458-1.176c2.877-0.596,5.759-1.17,8.64-1.739c3.822-0.755,7.647-1.499,11.473-2.237  c4.65-0.899,9.301-1.789,13.954-2.675c5.36-1.021,10.722-2.036,16.084-3.047c5.956-1.124,11.914-2.241,17.869-3.358  c6.431-1.205,12.863-2.405,19.295-3.604c6.793-1.267,13.584-2.53,20.38-3.79c7.035-1.306,14.071-2.61,21.108-3.912  c7.161-1.325,14.327-2.648,21.488-3.97c7.174-1.322,14.35-2.646,21.521-3.965c7.067-1.302,14.133-2.601,21.198-3.9  c6.843-1.258,13.688-2.515,20.529-3.769c6.506-1.194,13.008-2.385,19.511-3.576c6.045-1.107,12.093-2.214,18.138-3.321  c5.475-1.001,10.944-2.001,16.42-3.002c4.779-0.874,9.563-1.749,14.345-2.622c3.975-0.727,7.952-1.453,11.926-2.176  c3.051-0.556,6.102-1.113,9.151-1.67c7.124-1.299,14.828-3.339,21.303,1.127c5.908,4.077,8.213,11.474,9.01,18.279  c0.273,2.329,0.388,4.673,0.388,7.017c0,32.622,0,27.773,0,27.773c0,2.929,0,5.858,0,8.786c0,8.055,0,16.109,0,24.164  c0,12.096,0,24.193,0,36.29c0,15.054,0,30.106,0,45.162c0,16.927,0,33.856,0,50.781c0,17.717,0,35.435,0,53.151  c0,17.423,0,34.846,0,52.268c0,16.045,0,32.087,0,48.133c0,13.582,0,27.161,0,40.741c0,10.033,0,20.066,0,30.099  c0,19.074-0.813,39.595-11.853,56.211c-9.391,14.142-25.929,23.454-41.293,29.63c-9.527,3.828-19.445,6.708-29.538,8.582  c-21.638,4.018-43.362,3.438-63.51-5.956c-7.164-3.344-13.886-7.547-19.801-12.572c-15.935-13.544-22.396-31.33-21.016-51.249  c0.473-6.803,1.775-13.572,4.042-20.064c4.18-11.968,11.804-20.382,22.224-28.102c11.757-8.713,25.395-15.427,39.858-19.308  c9.8-2.632,19.723-4.79,29.743-6.386c9.097-1.447,18.342-2.03,27.339-3.877c14.866-3.047,28.008-11.074,28.048-28.912  c0.009-4.249,0-8.5,0-12.749c0-6.574,0-13.147,0-19.72c0-8.242,0-16.481,0-24.725c0-9.255,0-18.509,0-27.763  c0-9.611,0-19.222,0-28.833c0-9.312,0-18.625,0-27.936c0-8.359,0-16.717,0-25.076c0-6.747,0-13.496,0-20.246  c0-4.483,0-8.965,0-13.45c0-4.021,0.108-7.685-2.443-11.124c-3.034-4.09-8.315-5.28-13.418-4.852  c-0.299,0.024-0.6,0.056-0.898,0.091c-2.528,0.293-5.044,0.752-7.552,1.173c-4.797,0.802-9.585,1.645-14.371,2.491  c-6.639,1.173-13.269,2.364-19.901,3.562c-8.046,1.454-16.091,2.918-24.132,4.39c-9.029,1.65-18.056,3.309-27.079,4.97  c-9.575,1.763-19.151,3.533-28.727,5.307c-9.694,1.794-19.389,3.595-29.085,5.396c-9.381,1.744-18.769,3.491-28.152,5.239  c-8.641,1.611-17.285,3.223-25.924,4.838c-7.471,1.396-14.939,2.792-22.409,4.188c-5.866,1.098-11.731,2.196-17.6,3.294  c-3.831,0.719-7.665,1.438-11.497,2.156c-4.437,0.833-7.977,1.686-11.069,4.881c-4.808,4.966-6.999,12.125-6.999,18.533  C394.748,448.27,394.19,727.396,394.188,727.721z" fill="#FFFFFF" id="iTunes_1_"/></svg>