<?xml version="1.0" ?><!DOCTYPE svg  PUBLIC '-//W3C//DTD SVG 1.1//EN'  'http://www.w3.org/Graphics/SVG/1.1/DTD/svg11.dtd'><svg enable-background="new 0 0 1024 1024" height="1024px" id="Spotify" version="1.1" viewBox="0 0 1024 1024" width="1024px" xml:space="preserve" xmlns="http://www.w3.org/2000/svg" xmlns:xlink="http://www.w3.org/1999/xlink"><g id="Background"><rect fill="#1ED760" height="1024" id="bg_1_" width="1024"/></g><path d="M242.102,327.089c0.253-0.067,0.501-0.156,0.752-0.233c20.763-6.34,42.188-10.79,63.528-14.648  c47.463-8.582,95.713-13.013,143.938-13.453c65.015-0.592,130.184,6.246,193.406,21.558c36.021,8.724,71.379,20.201,105.586,34.475  c16.003,6.677,32.021,13.412,47.385,21.479c13.396,7.035,26.776,13.979,35.749,26.608c9.934,13.984,8.567,30.109-1.447,43.735  c-20.897,28.434-44.402,17.723-70.472,5.117c-49.03-23.707-104.79-41.464-158.081-52.669  c-60.058-12.625-121.66-17.936-182.987-15.431c-52.587,2.148-104.905,10.07-155.784,23.53c0,0-46.586,11.852-56.342-29.882  C198.339,338.802,242.043,327.104,242.102,327.089z" fill="#FFFFFF"/><path d="M265.787,481.089c0.218-0.058,0.431-0.135,0.647-0.201c17.85-5.451,36.27-9.275,54.615-12.593  c40.805-7.377,82.285-11.188,123.745-11.564c55.894-0.51,111.921,5.368,166.274,18.532c30.967,7.5,61.364,17.367,90.772,29.639  c13.757,5.739,27.528,11.529,40.736,18.466c11.518,6.047,23.021,12.018,30.733,22.875c8.541,12.021,7.366,25.885-1.243,37.599  c-17.967,24.445-38.173,15.237-60.586,4.4c-42.152-20.381-90.09-35.648-135.903-45.28c-51.632-10.854-104.592-15.42-157.315-13.266  c-45.21,1.847-90.188,8.657-133.93,20.229c0,0-40.05,10.189-48.438-25.689C228.164,491.158,265.737,481.102,265.787,481.089z" fill="#FFFFFF"/><path d="M282.517,624.31c0.187-0.05,0.368-0.114,0.553-0.172c15.243-4.653,30.97-7.921,46.637-10.753  c34.843-6.299,70.264-9.553,105.667-9.875c47.728-0.435,95.571,4.585,141.984,15.826c26.442,6.405,52.399,14.83,77.512,25.308  c11.747,4.902,23.506,9.848,34.785,15.77c9.835,5.164,19.656,10.262,26.244,19.534c7.292,10.266,6.291,22.103-1.063,32.105  c-15.341,20.874-32.597,13.011-51.735,3.757c-35.994-17.402-76.929-30.439-116.05-38.666  c-44.089-9.269-89.313-13.167-134.333-11.327c-38.605,1.575-77.013,7.392-114.363,17.273c0,0-34.201,8.7-41.361-21.938  C250.391,632.907,282.474,624.32,282.517,624.31z" fill="#FFFFFF"/></svg>