<?xml version="1.0" ?><!DOCTYPE svg  PUBLIC '-//W3C//DTD SVG 1.1//EN'  'http://www.w3.org/Graphics/SVG/1.1/DTD/svg11.dtd'><svg enable-background="new 0 0 1024 1024" height="1024px" id="Vimeo" version="1.1" viewBox="0 0 1024 1024" width="1024px" xml:space="preserve" xmlns="http://www.w3.org/2000/svg" xmlns:xlink="http://www.w3.org/1999/xlink"><g id="Background"><rect fill="#00B3EC" height="1024" id="bg" width="1024"/></g><path d="M200.728,462.614c0,0,34.682-24.702,34.75-24.75c11.49-8.185,27.447-6.495,36.287,4.492  c10.895,13.541,16.244,30.305,21.132,46.716c5.377,18.055,11.292,35.941,16.524,54.043c3.11,10.76,6.051,21.567,8.758,32.437  c7.232,29.039,14.576,58.059,22.917,86.801c3.944,13.594,7.92,27.244,12.632,40.595c4,11.333,21.333,60.667,44.667,88  c9.593,11.235,22.224,23.143,35.865,29.092c22.409,9.771,46.365,0.276,66.329-10.907c43.032-24.104,79.618-57.297,115.53-90.69  c30.976-28.804,59.92-60.018,85.874-93.441c12.098-15.581,23.42-31.896,33.86-48.636c24.534-39.338,46.521-76.855,60.659-121.676  c17.216-54.574,16.794-91.96-2.833-130.426c-14.618-28.647-49.285-48.669-98.315-48.367c-33.437,0.206-67.807,8.995-94.709,29.499  c-7.206,5.492-13.907,12.002-19.73,18.947c-8.592,10.248-16.521,21.682-23.196,33.273c-7.832,13.604-16.05,27.171-22.653,41.431  c-2.663,5.749-6.374,12.951-7.079,19.376c-0.931,8.485,7.093,5.076,12.678,3.418c19.48-5.781,61.555-23.226,76.938,11.604  c5.738,12.995,5.163,26.829,2.116,40.17c-3.177,13.919-7.666,26.333-14.538,42.137c-8.291,19.065-41.962,71.363-60.566,89.15  c-6.728,6.432-13.922,12.646-22.491,16.402c-15.168,6.648-23.354-7.203-27.736-20.355c-13.404-40.212-22.221-81.775-29.123-123.546  c-1.982-11.991-3.807-24.007-5.548-36.035c-2.2-15.205-4.55-30.396-7.719-45.434c-4.08-19.359-9.77-38.423-18.276-56.318  c-9.594-20.178-23.763-36.528-43.168-47.572c-15.166-8.632-38.221-9.101-54.476-3.642c-5.072,1.703-9.997,3.959-14.754,6.398  c-9.64,4.943-18.466,11.494-26.936,18.205c-42,33.277-116,103.277-123.333,107.277L200.728,462.614z" fill="#FFFFFF" id="Cimeo"/></svg>