<?xml version="1.0" ?><svg id="Layer_1" style="enable-background:new 0 0 512 512;" version="1.1" viewBox="0 0 512 512" xml:space="preserve" xmlns="http://www.w3.org/2000/svg" xmlns:xlink="http://www.w3.org/1999/xlink"><g id="XMLID_15_"><path d="M124.1,328.9h-14.7v24h14.7c4.2,0,7.4-1.1,9.5-3.4c2.1-2.2,3.2-5.1,3.2-8.6s-1.1-6.3-3.2-8.6   C131.4,330,128.3,328.9,124.1,328.9z" id="XMLID_1025_"/><path d="M365.6,285.9H40.3v133.9h276.3L365.6,285.9z M141.7,356.2c-4.3,3.8-10.1,5.8-17.6,5.8h-14.7v25.8H98v-68   h26.1c7.5,0,13.4,1.9,17.6,5.8c4.3,3.9,6.4,9,6.4,15.3C148.1,347.3,146,352.4,141.7,356.2z M214.9,387.8h-11.4l-30.1-49l-0.3,0.1   v48.9h-11.4v-68h11.4l30.1,49l0.3-0.1v-48.9h11.4V387.8z M282.5,378.6c-1.9,2.6-4.9,5-8.9,7.1c-4.1,2.1-9.4,3.1-15.9,3.1   c-8,0-14.6-2.6-19.8-7.8c-5.2-5.2-7.8-11.9-7.8-20.1v-14.2c0-8.2,2.5-14.9,7.5-20.1c5-5.2,11.5-7.8,19.3-7.8c7.9,0,14.1,2,18.5,6   c4.4,4,6.6,9.2,6.4,15.6l-0.1,0.3H271c0-3.8-1.2-6.9-3.6-9.3s-5.8-3.5-10.3-3.5c-4.7,0-8.5,1.8-11.4,5.3c-2.9,3.5-4.3,8-4.3,13.4   v14.3c0,5.5,1.5,10,4.5,13.5c3,3.5,6.9,5.3,11.8,5.3c3.6,0,6.5-0.4,8.6-1.2c2.1-0.8,3.7-1.8,4.8-3v-14.1h-14.3v-8.5h25.6V378.6z" id="XMLID_1020_"/><path d="M352.9,6L352.9,6L107.4,6c-7.3,0-13.3,6-13.3,13.3v256.8h26.6V32.6h232.2v92.2h92.2v354.6H120.7v-49.8   H94.1v63.1c0,7.3,6,13.3,13.3,13.3h351c7.3,0,13.3-6,13.3-13.3V124.8L352.9,6z" id="XMLID_1019_"/><rect height="19.6" id="XMLID_1018_" width="253.4" x="156.2" y="171.4"/><rect height="19.6" id="XMLID_1017_" width="213.3" x="156.2" y="209.5"/></g></svg>