<?xml version="1.0" ?><svg viewBox="0 0 512 512" xmlns="http://www.w3.org/2000/svg"><defs><style>.cls-1{fill:#50a3d1;}.cls-2{opacity:0.15;}.cls-3{fill:#3f456b;}.cls-4{opacity:0.2;}.cls-5{fill:#fff;}</style></defs><title/><g id="Colors"><g id="jI0l9q.tif"><path class="cls-1" d="M187.4,495c-.36-.2-.71-.42-1.08-.58a2.64,2.64,0,0,1-1.68-2.42q-.09-1.46-.09-2.91l0-32.46q0-85.92,0-171.83,0-52.23,0-104.44a29.48,29.48,0,0,1,.08-3.12,2.51,2.51,0,0,1,2.51-2.54,22.08,22.08,0,0,1,2.7-.1q20.59,0,41.19.06,21.94,0,43.9-.06c.83,0,1.66,0,2.49,0,2.1.15,2.94.9,3,3,.06,3.74,0,7.49,0,11.23q0,8.63,0,17.26c0,2.91.05,5.82.08,8.73,0,.61.06,1.23.1,1.9,1.09,0,1.29-.82,1.71-1.37,2.78-3.64,5.36-7.44,8.32-10.92a103.82,103.82,0,0,1,51.3-33.11,112.78,112.78,0,0,1,23.47-4.14c4.36-.3,8.72-.7,13.08-.69,4.77,0,9.55.35,14.32.7a143.51,143.51,0,0,1,29.34,5.49,91.53,91.53,0,0,1,31.08,15.49,89.19,89.19,0,0,1,26.6,34.36A157.59,157.59,0,0,1,491.5,262.9a146.76,146.76,0,0,1,1.7,16.73c.39,9.14.88,18.27,1.26,27.41.19,4.71.2,9.42.36,14.13a25.39,25.39,0,0,0,.52,3.22v169a3.74,3.74,0,0,1-3.14,1.22c-.9,0-1.8,0-2.7,0q-31.86,0-63.74,0a26,26,0,0,0-3.25.41H398c-2.44-.73-3-2.54-2.86-4.84.06-.75,0-1.52,0-2.28,0-16.78.07-33.56.06-50.34q0-56.68-.11-113.37a142.72,142.72,0,0,0-1.53-23,78.46,78.46,0,0,0-7.48-23.67,39.56,39.56,0,0,0-19-18.46,47.89,47.89,0,0,0-15.84-4c-8.9-.77-17.72-.52-26.4,1.78-12.25,3.26-21.94,10.05-28.59,21a69.26,69.26,0,0,0-7.82,19.61,139.94,139.94,0,0,0-3.69,33.37c-.09,25.59-.05,51.17-.05,76.76v80.91c0,1.11,0,2.22,0,3.33-.09,2-.62,2.58-2.61,2.71-.9.06-1.8.05-2.7.05q-32.14,0-64.28,0a29.55,29.55,0,0,0-3.47.41Z"/><path class="cls-1" d="M25.52,495c-2.32-.74-2.79-2.44-2.79-4.69q.06-155.94.05-311.87v-.63c0-2.58.49-3.05,3-3.14,1,0,2.08,0,3.12,0h72q8.12,0,16.23,0H119c3.24.08,4.16,1,4.16,4.3q0,17.9,0,35.79,0,137,0,274a27,27,0,0,1,0,2.7c-.15,1.53-.62,2.87-2.4,3.21a2.44,2.44,0,0,0-.72.4H98.76a16.91,16.91,0,0,0-2.63-.41q-23.16,0-46.34,0a17.29,17.29,0,0,0-2.63.41Z"/><path class="cls-1" d="M422.51,495a26,26,0,0,1,3.25-.41q31.88,0,63.74,0c.9,0,1.8,0,2.7,0a3.74,3.74,0,0,0,3.14-1.22V495Z"/><path class="cls-1" d="M47.16,495a17.29,17.29,0,0,1,2.63-.41q23.17,0,46.34,0a16.91,16.91,0,0,1,2.63.41Z"/><circle class="cls-1" cx="72.64" cy="73.64" r="57.64"/></g><g class="cls-2"><rect class="cls-3" height="16" width="100" x="23" y="479"/></g><g class="cls-2"><rect class="cls-3" height="16" width="100" x="185" y="479"/></g><g class="cls-4"><rect class="cls-5" height="16" width="100" x="23" y="175"/></g><g class="cls-4"><rect class="cls-5" height="16" width="100" x="185" y="175"/></g><g class="cls-2"><rect class="cls-3" height="16" width="100" x="395" y="479"/></g><g class="cls-2"><path class="cls-3" d="M285,317s-5-61,37-75,78.47,14.83,72.24,64.41c0,0-3.24-54.41-54.24-50.41S285,317,285,317Z"/></g><g class="cls-2"><path class="cls-3" d="M15,78s10,37,58,37,57.12-37,57.12-37S127,131,73,131,15,78,15,78Z"/></g><g class="cls-4"><path class="cls-5" d="M130.12,69s-10-37-58-37S15,69,15,69s3.12-53,57.12-53S130.12,69,130.12,69Z"/></g><g class="cls-4"><path class="cls-5" d="M285,215s35-36,105-32,96,56,96,56-12-66-93-73S285,215,285,215Z"/></g></g><g id="Lines"><g data-name="jI0l9q.tif" id="jI0l9q.tif-2"><path class="cls-3" d="M422.51,500H398a5,5,0,0,1-1.44-.21c-2.11-.64-7-2.89-6.4-10,0-.26,0-.64,0-1s0-.57,0-.86l0-15.94q0-17.21,0-34.39,0-56.68-.11-113.36A138.23,138.23,0,0,0,388.59,302a73,73,0,0,0-7-22.17c-4-7.64-9.42-12.94-16.66-16.22a43.12,43.12,0,0,0-14.21-3.54c-9.53-.83-17.37-.31-24.68,1.63-11.4,3-19.78,9.16-25.61,18.74a64.57,64.57,0,0,0-7.24,18.21,134.76,134.76,0,0,0-3.54,32.19c-.07,18.73-.06,37.79-.05,56.21V489.26c0,.89,0,1.81,0,2.78-.21,4.59-2.73,7.18-7.29,7.47-.93.06-1.79.06-2.63.06h-.39c-22.18,0-64.58.28-67.33.41l-.42,0H187.4a5,5,0,0,1-2.4-.61l-.45-.26-.24-.14a7.52,7.52,0,0,1-4.65-6.66c-.07-1-.11-2.12-.11-3.24q0-8.11,0-16.23t0-16.23V421.48q0-68.34,0-136.69,0-32.76,0-65.54l0-39.36a26.76,26.76,0,0,1,.11-3.15,7.45,7.45,0,0,1,6.89-7,26.46,26.46,0,0,1,3.23-.13l15.32,0q13,0,25.93,0,14.58,0,29.15,0l15,0c.77,0,1.64,0,2.55.05,4.7.33,7.55,3.28,7.61,7.88,0,2.42,0,4.85,0,7.2q0,2.06,0,4.11,0,7,0,14c.46-.57.92-1.14,1.4-1.7a109.18,109.18,0,0,1,53.73-34.67A118.68,118.68,0,0,1,365,162.19l2.43-.17c3.57-.27,7.25-.53,11-.53,5.07,0,10.17.38,14.67.72a146.73,146.73,0,0,1,30.38,5.67,97.08,97.08,0,0,1,32.74,16.34,94.41,94.41,0,0,1,28.09,36.24,161,161,0,0,1,12.12,41.66,148.27,148.27,0,0,1,1.76,17.3q.27,6.27.58,12.53c.24,5,.48,9.92.68,14.88.11,2.67.17,5.36.22,7.95,0,2.08.08,4.15.15,6.23a11.71,11.71,0,0,0,.22,1.37c.08.4.16.79.23,1.19a5.55,5.55,0,0,1,.07.82v169a5,5,0,0,1-1.2,3.24,8.58,8.58,0,0,1-7.07,3c-.51,0-1,0-1.51,0h-1.05l-67,.43Zm-210.36,0-.17,0Zm-22.59-10h22c6.1-.21,52.37-.43,67.75-.43h.34V387.05c0-18.44,0-37.5.05-56.26a144.63,144.63,0,0,1,3.84-34.56,74.25,74.25,0,0,1,8.4-21C299,263.5,309.67,255.7,323.49,252c8.35-2.22,17.54-2.85,28.12-1.93a52.8,52.8,0,0,1,17.46,4.39,44.58,44.58,0,0,1,21.41,20.71,82.69,82.69,0,0,1,8,25.17,148,148,0,0,1,1.6,23.8q.07,56.68.11,113.37,0,17.2,0,34.41l0,15.93c0,.21,0,.42,0,.63,0,.45,0,.95,0,1.49H422.5l67-.43h.87V324.83c0-.16-.07-.31-.1-.47a18,18,0,0,1-.41-3c-.08-2.12-.12-4.24-.16-6.36-.05-2.54-.1-5.17-.21-7.73-.2-4.94-.44-9.88-.68-14.82q-.3-6.29-.58-12.58a142.25,142.25,0,0,0-1.64-16.16,151.07,151.07,0,0,0-11.36-39.1,84.54,84.54,0,0,0-25.11-32.47,85.77,85.77,0,0,0-29.4-14.64,137.75,137.75,0,0,0-28.32-5.3c-4.34-.32-9.25-.68-14-.69-3.37,0-6.7.24-10.24.5l-2.48.18a108.47,108.47,0,0,0-22.44,4,99.31,99.31,0,0,0-48.88,31.55c-1.85,2.16-3.54,4.47-5.33,6.92-.91,1.23-1.81,2.46-2.74,3.68l0,0a6.36,6.36,0,0,1-5.95,3.39,5,5,0,0,1-4.79-4.73l0-.58c0-.52-.06-1-.07-1.52v-1c0-2.61-.06-5.22-.07-7.82q0-8.64,0-17.28c0-1.4,0-2.8,0-4.19,0-1.66,0-3.35,0-5h-.15l-15,0-29.61,0-25.51,0-15.25,0h-.28v.76l0,38.88q0,32.77,0,65.56,0,68.34,0,136.69v35.15q0,8.12,0,16.23t0,16.22C189.55,489.4,189.56,489.7,189.56,490Z"/><path class="cls-3" d="M120,500H98.76l-.41,0c-3.1-.12-47.68-.12-50.78,0l-.41,0H25.52a4.93,4.93,0,0,1-1.52-.24c-2.86-.91-6.27-3.29-6.27-9.45q.06-139.17.05-278.34V177.71c.11-5.23,2.66-7.86,7.82-8,1,0,1.94,0,2.9,0h72.38l10.81,0,5.69,0h1.72c6,.14,9,3.27,9,9.3q0,11.65,0,23.3V489.35a20.16,20.16,0,0,1-.06,2.53c-.49,5-3.53,6.76-5.5,7.39l-.11.06A5,5,0,0,1,120,500Zm-72-.07-.36.05A2.51,2.51,0,0,0,48,499.93Zm50,0a2.51,2.51,0,0,0,.36.05ZM27.73,490l19.43,0c6.25-.18,45.36-.18,51.6,0v0h19.4c0-.16,0-.32,0-.49V202.2q0-11.31,0-22.61h-.73l-5.69,0-10.83,0H27.78V212Q27.77,351,27.73,490Z"/><path class="cls-3" d="M72.64,136.28a62.64,62.64,0,1,1,62.64-62.64A62.71,62.71,0,0,1,72.64,136.28ZM72.64,21a52.64,52.64,0,1,0,52.64,52.64A52.69,52.69,0,0,0,72.64,21Z"/></g></g></svg>