<?xml version="1.0" ?><svg viewBox="0 0 512 512" xmlns="http://www.w3.org/2000/svg"><defs><style>.cls-1{fill:#ffbc5a;}.cls-2{fill:#767c93;}.cls-3{fill:#f5f6f7;}.cls-4{opacity:0.15;}.cls-5{fill:#3f456b;}.cls-6{opacity:0.25;}.cls-7{opacity:0.1;}.cls-8{fill:#fff;}</style></defs><title/><g id="Colors"><g data-name="&lt;编组&gt;" id="_编组_"><path class="cls-1" d="M470.6,399.37c8.51,5.32,11.28,15.43,8.15,24.38-2.63,7.52-9.68,13.43-17.49,16.2-28.79,10.19-44.23,34.7-68.95,50.14-16.64,10.39-37.72,15.83-56.95,8.62-10.06-3.77-15.29-12.27-17.15-22.36-2.1-11.34,0-24.67,4.32-35.51,4.89-12.39,4.39-25.26,3.23-33.5a63.35,63.35,0,0,0-1.8-8.79,54.76,54.76,0,0,1,2.65-32.65,27.84,27.84,0,0,1,38.84-14.52c-5.49,18-1.5,29.48,11.72,32,15.29,2.95,40.82-5.68,54-28.53,8.65-.47,16.21,3.55,20.25,10.71,4.47,7.9,2.22,18.09,7.73,25.4C461.94,394.73,466.54,396.83,470.6,399.37Z"/><path class="cls-2" d="M365.45,351.38a28.23,28.23,0,0,0-17.15-2.85l-.05-.32c18.75-46.06-7.33-77.66-33.42-120.43-25.7-42.14-15.26-65-15-65.68h0c6.73-5,11.09-10.28,11.69-14.5,1.63-11.45-10.59-13.74-13.85-14.51-2.12-.5-7.36-.67-14.82-3.05,17-16.8,14-38.19,5-45.83s-23.64-7.63-31,7.64-3.38,24.79-3.38,24.79a45.29,45.29,0,0,0-21.5-1.63l-.28-1.76c2.07-7.72,4-14.94,2.38-22.84A17.72,17.72,0,0,0,222,76.87c-10-3.19-17.73,4.19-20.79,12.49-4.29,11.64-2.85,25.57,6.94,34.53l.05.07c-16.24,10.72-12.39,25.16-12.39,25.16a33.76,33.76,0,0,0,7.4,16.73s-.06,32.91-22.07,59.64-61.94,89.36-16.3,119.91,41.49,65.31,14.64,69.31h0c-18.08-23.17-37.59-62.79-52.94-73.9-8.59-6.22-17.18-5.25-24.52-1.21l-.43-1.15c-1.73-25.46,4.88-51,16.3-74,11.53-23.23,30.12-40.21,45.37-61,9.51-13,12.88-28.91,14.69-44.29,6.18-52.45-5.75-140.72,74.73-142.12,77-1.34,80.77,63.66,81.24,81s0,57.88,31.36,85.93,104.39,90.76,67.94,166.94q-1,2.05-2.09,4c-13.15,22.85-38.68,31.48-54,28.53C364,380.86,360,369.37,365.45,351.38Z"/><path class="cls-3" d="M314.83,227.78c26.09,42.77,52.17,74.37,33.42,120.43l.05.32a28,28,0,0,0-21.69,17.37A54.76,54.76,0,0,0,324,398.55a63.35,63.35,0,0,1,1.8,8.79h0c-6.2,10.77-37.81,35.05-77.75,35.05-38.69,0-58.26-16.49-59.44-17.52l-.06-.05a90.37,90.37,0,0,1-9-10.11h0c26.85-4,31-38.76-14.64-69.31s-5.7-93.18,16.3-119.91,22.07-59.64,22.07-59.64c9.56,11.27,26.9,14.92,48,13.82,18.53-1,37.06-8.94,48.61-17.57C299.57,162.75,289.13,185.64,314.83,227.78Z"/><path class="cls-2" d="M325.76,407.34c1.16,8.24,1.66,21.11-3.23,33.5-4.28,10.84-6.42,24.17-4.32,35.51l-2.21.41c-47.91-23.68-105.55-8.39-105.55-8.39l-.52,0c.52-11.62-6-29.06-21.37-43.48,1.18,1,20.75,17.52,59.44,17.52,39.94,0,71.55-24.28,77.75-35.05Z"/><path class="cls-1" d="M195.83,149.12S192,134.68,208.22,124a46.86,46.86,0,0,1,7.18-3.86,68.26,68.26,0,0,1,16.68-5.1,45.29,45.29,0,0,1,21.5,1.63,82.52,82.52,0,0,1,15.61,7.29A71.4,71.4,0,0,0,282.9,130c7.46,2.38,12.7,2.55,14.82,3.05,3.26.77,15.48,3.06,13.85,14.51-.6,4.22-5,9.47-11.69,14.5h0c-11.55,8.63-30.08,16.6-48.61,17.57-21.13,1.1-38.47-2.55-48-13.82A33.76,33.76,0,0,1,195.83,149.12Z"/><path class="cls-3" d="M287.94,84.2c9,7.64,11.94,29-5,45.83a71.4,71.4,0,0,1-13.71-6.11,82.52,82.52,0,0,0-15.61-7.29s-4-9.51,3.38-24.79S279,76.57,287.94,84.2Z"/><path class="cls-3" d="M234.18,90.4c1.6,7.9-.31,15.12-2.38,22.84l.28,1.76a68.26,68.26,0,0,0-16.68,5.1,46.86,46.86,0,0,0-7.18,3.86l-.05-.07c-9.79-9-11.23-22.89-6.94-34.53,3.06-8.3,10.82-15.68,20.79-12.49A17.72,17.72,0,0,1,234.18,90.4Z"/><path class="cls-1" d="M188.56,424.87c15.35,14.42,21.89,31.86,21.37,43.48a17.14,17.14,0,0,1-2.68,9.17c-6.53,9.17-26.09,31.31-69.28,13.75a332.1,332.1,0,0,0-84-21.39s-25.26.77-19.56-26-.81-35.9,0-45.83c0,0-4.89-26,27.71-28.25,0,0,15.49.76,22-11.46C87.57,352,94.06,344,102,339.6c7.34-4,15.93-5,24.52,1.21,15.35,11.11,34.86,50.73,52.94,73.9a90.37,90.37,0,0,0,9,10.11Z"/></g><g class="cls-4"><path class="cls-5" d="M34,438s-1,18,22,18,67,13,83,21,61,12,70-19.5c0,0,9.43,29.55-29.29,39,0,0-22.71,5.15-48.71-7.19S67,469,54,470,26,461,34,438Z"/></g><g class="cls-4"><path class="cls-5" d="M207.89,454.66s58.45-16.29,109.78,6.53L318,477s-41.1-24.26-107.55-8.63Z"/></g><g class="cls-4"><path class="cls-5" d="M318,477s14,17,48,9c0,0,20-7,38-26s34-26,48-31,25-12.38,24-24.69c0,0,16.49,22.69-9.26,33.19,0,0-21.25,5.53-40,25.51s-44.25,39-70,39S322,490,318,477Z"/></g><g class="cls-6"><path class="cls-5" d="M436.5,275.5S447,350,385,368c0,0-18.31,3.94-20.66-12.53,0,0-8.84,29,18.41,28.28S457,356,436.5,275.5Z"/></g><g class="cls-6"><path class="cls-5" d="M197.17,381S190,411,165,392l14,23S207.34,410.09,197.17,381Z"/></g><g class="cls-7"><ellipse class="cls-8" cx="254" cy="30.5" rx="41" ry="13.5"/></g><g class="cls-7"><ellipse class="cls-8" cx="238.5" cy="127.5" rx="25.5" ry="13.5"/></g></g><g id="Lines"><path class="cls-5" d="M383.31,389a37.7,37.7,0,0,1-7.09-.64c-7.24-1.4-12.62-5.19-15.56-11-4.8-9.42-3-23.22,5.33-41,10.58-22.61-7.17-52.42-7.35-52.72a5,5,0,1,1,8.55-5.19c.85,1.4,20.72,34.66,7.85,62.15-6.76,14.45-8.71,25.9-5.47,32.24,1.53,3,4.33,4.88,8.55,5.69,14,2.69,39.31-6.15,50.6-29.75,34-71.1-32.6-130.56-64.61-159.13L362,187.69c-31.58-28.24-32.52-68-33-87.08l-.07-2.43c-.49-18-4.27-33.16-11.26-45.14-12-20.6-33.07-31-62.66-31l-2.24,0C224.84,22.5,207.1,33.56,197,56.81c-9.11,20.86-10.57,48.65-11.86,73.17-.56,10.6-1.09,20.62-2.16,29.74-1.65,14.05-4.93,32.05-15.63,46.67-5.4,7.39-11.25,14.33-16.91,21-10.68,12.68-20.76,24.66-28,39.27-11.88,23.92-17.34,48.61-15.79,71.41a5,5,0,0,1-10,.68c-1.67-24.56,4.14-51,16.81-76.54,7.79-15.68,18.73-28.68,29.32-41.26,5.55-6.58,11.29-13.4,16.5-20.51,9.26-12.66,12.15-28.3,13.76-41.93,1-8.8,1.55-18.66,2.1-29.1,1.34-25.36,2.85-54.12,12.69-76.65C199.53,25.91,220.73,12.57,252.6,12c34.65-.62,59.46,11.51,73.72,36,7.83,13.45,12.07,30.24,12.61,49.91l.06,2.47c.42,17.69,1.29,54.5,29.63,79.86l2.15,1.92c16.78,15,42.13,37.6,59.38,66.59,21.14,35.55,23.7,70.65,7.59,104.32a63.47,63.47,0,0,1-28.86,29.4A58.19,58.19,0,0,1,383.31,389Z"/><path class="cls-5" d="M353.91,507a57.68,57.68,0,0,1-20.31-3.59,30.54,30.54,0,0,1-17.43-16.66c-6.69-15-3.5-34.52,1.71-47.73,7.31-18.53,1.35-38.8,1.29-39l-.09-.34A60.23,60.23,0,0,1,322,364a33.38,33.38,0,0,1,19.09-18.75,32.85,32.85,0,0,1,26.64,1.64,5,5,0,1,1-4.51,8.92,22.94,22.94,0,0,0-18.61-1.2,23.35,23.35,0,0,0-13.33,13.14,50.11,50.11,0,0,0-2.46,29.5c.72,2.44,6.69,24.34-1.61,45.39-5.61,14.23-6.35,29.94-1.87,40A20.49,20.49,0,0,0,337.11,494c15.67,5.87,34.82,2.89,52.55-8.18,9.47-5.92,17.79-13.46,25.84-20.75,12.7-11.5,25.82-23.4,44.09-29.86,6.93-2.46,12.46-7.49,14.44-13.14,2.52-7.21.08-14.64-6.07-18.48-.85-.53-1.72-1-2.59-1.55-3.49-2-7.44-4.35-10.25-8.07-3.71-4.94-4.58-10.67-5.35-15.73-.57-3.78-1.11-7.36-2.73-10.22a16.42,16.42,0,0,0-15.63-8.18,5,5,0,0,1-.54-10c10.58-.56,19.87,4.39,24.88,13.25,2.52,4.46,3.26,9.34,3.91,13.64.67,4.45,1.25,8.3,3.45,11.21,1.6,2.12,4.37,3.74,7.31,5.46.95.56,1.9,1.11,2.83,1.69,10.06,6.28,14.26,18.73,10.22,30.27-3,8.57-10.68,15.77-20.54,19.26-16.38,5.8-28.2,16.51-40.71,27.85-8.38,7.59-17,15.43-27.26,21.82C381.59,502.68,367.37,507,353.91,507Z"/><path class="cls-5" d="M168,502.87c-9.09,0-19.66-2-31.9-7a330.56,330.56,0,0,0-82.3-21c-2.24,0-13.4-.46-20.16-8.56-4.79-5.74-6.15-13.63-4.06-23.46,3.63-17,2.09-26.26.85-33.71a47.77,47.77,0,0,1-1-10.87c-.37-2.77-1.11-12.77,5.46-21.28,5.56-7.21,14.62-11.3,26.92-12.16a4,4,0,0,1,.6,0,24.83,24.83,0,0,0,7.21-1c4.73-1.4,8.14-4,10.14-7.77,4.92-9.22,15.2-21,28-24,7.54-1.74,15-.1,21.72,4.73,10.09,7.31,21,24.68,32.59,43.07,10.09,16,20.51,32.6,29.84,41.34,9.89,9.27,17.29,20.72,20.82,32.25,3.4,11.1,2.88,20.94-1.42,27C204.51,490,191.05,502.87,168,502.87Zm-114-38a3.59,3.59,0,0,1,.47,0,333.49,333.49,0,0,1,85.37,21.73c35.11,14.28,53.81,1.34,63.32-12,4.23-5.94,1.68-27.62-18.09-46.15-10.26-9.62-21-26.74-31.46-43.31-10.56-16.77-21.47-34.12-30-40.29-4.38-3.18-8.83-4.18-13.59-3.08-8.89,2-17.35,11.26-21.45,18.94C81.17,374.62,65,374.91,62.27,374.84c-9.15.68-15.68,3.44-19.4,8.2-4.83,6.17-3.51,14.08-3.5,14.16a5.68,5.68,0,0,1,.07,1.3,37.62,37.62,0,0,0,.83,9c1.31,7.85,3.09,18.61-.93,37.44-1.42,6.67-.76,11.7,2,15,4.23,5.08,12.47,5,12.56,5Z"/><path class="cls-5" d="M316,481.76a5,5,0,0,1-2.21-.52c-45.61-22.54-101.5-8.19-102.06-8a5,5,0,0,1-2.56-9.67c2.43-.64,60-15.48,109,8.75a5,5,0,0,1-2.21,9.48Z"/><path class="cls-5" d="M248,447.39c-41.38,0-62-18.08-62.84-18.85a5,5,0,0,1,6.67-7.45c.22.2,18.93,16.3,56.17,16.3,38.41,0,68.08-23.28,73.42-32.55a5,5,0,1,1,8.66,5C322.32,423.31,288.26,447.39,248,447.39Z"/><path class="cls-5" d="M244.4,184.85c-13.21,0-24.13-2.09-32.54-6.23-11.63-5.74-18.67-15.31-20.92-28.46-2-7.89.23-24.93,22.45-34.64,26.79-11.71,43.48-4.42,58.28,4.06a61.81,61.81,0,0,0,24.21,8.15c1.2.16,2.15.29,3,.48l.4.1c16.1,3.66,18.27,12.89,17.26,20-2.25,15.83-36.27,34.87-65,36.36Q247.86,184.86,244.4,184.85Zm-4.8-65.43c-6.4,0-13.61,1.5-22.2,5.26s-13.92,8.76-16,14.95a16.33,16.33,0,0,0-.69,8.26c0,.15.06.25.09.41,3.22,19.34,19.63,28,50.23,26.38,12.51-.66,26.48-4.91,38.33-11.67s16.9-13.39,17.29-16.12c.55-3.87-.87-6.85-9.58-8.83l-.46-.11c-.37-.08-1.18-.2-2-.31a72.07,72.07,0,0,1-27.83-9.38C258.27,123.42,250,119.42,239.6,119.42Z"/><path class="cls-5" d="M348.25,353.21a5,5,0,0,1-4.63-6.88c15.62-38.38-1.89-66.24-24.07-101.5-2.93-4.66-6-9.48-9-14.44-27.2-44.59-15.69-69.44-15.19-70.48a5,5,0,0,1,9,4.32c-.2.47-9.19,21.77,14.7,61,3,4.9,6,9.69,8.92,14.33,22.76,36.2,42.41,67.46,24.86,110.58A5,5,0,0,1,348.25,353.21Z"/><path class="cls-5" d="M179.49,419.71a5,5,0,0,1-.73-9.94c8.18-1.22,13.76-5.86,15.3-12.74,3.76-16.73-14.88-36-32-47.48-12.87-8.61-20.46-20.24-22.57-34.57-2.18-14.8,1.56-32.2,11.11-51.74a217.84,217.84,0,0,1,26.68-40.92c20.55-25,20.93-56.17,20.93-56.49a5,5,0,0,1,5-5h0a5,5,0,0,1,5,5c0,1.42-.33,35-23.21,62.81-19.73,24-39.44,58.84-35.61,84.86,1.7,11.57,7.66,20.64,18.23,27.71,26.78,17.93,40.31,39.6,36.18,58-2.47,11-11.28,18.6-23.59,20.43A4.68,4.68,0,0,1,179.49,419.71Z"/><path class="cls-5" d="M282.91,135a5,5,0,0,1-3.52-8.56c9.8-9.7,10.95-19.71,10.75-24.82-.21-5.73-2.3-11-5.45-13.64a14.91,14.91,0,0,0-12.55-3.55c-4.43.94-8.12,4.24-10.67,9.55-6.13,12.77-3.36,20.46-3.24,20.78a5,5,0,0,1-2.72,6.5,5,5,0,0,1-6.55-2.74c-.49-1.19-4.57-12.07,3.5-28.87,3.88-8.09,10.13-13.42,17.6-15a25,25,0,0,1,21.12,5.72c5.29,4.5,8.64,12.31,9,20.88.43,11.64-4.44,23.12-13.72,32.3A4.94,4.94,0,0,1,282.91,135Z"/><path class="cls-5" d="M208.16,128.89a5,5,0,0,1-3.37-1.31c-10.44-9.55-13.68-25.23-8.25-39.95a27.18,27.18,0,0,1,9.64-12.93,19.4,19.4,0,0,1,17.36-2.59,22.7,22.7,0,0,1,15.54,17.3c1.85,9.11-.34,17.25-2.45,25.13A5,5,0,0,1,227,112c2-7.38,3.69-13.75,2.31-20.55a12.65,12.65,0,0,0-8.78-9.76c-7.83-2.51-12.85,4.76-14.58,9.45-4,10.89-1.81,22.31,5.62,29.11a5,5,0,0,1-3.38,8.69Z"/><path class="cls-5" d="M235.17,169a66.78,66.78,0,0,1-18.39-2.51c-16-4.54-24.32-13.68-24.67-14.07a5,5,0,0,1,7.43-6.7c1.17,1.28,28.48,30,81.81-1a5,5,0,1,1,5,8.64C273.13,161.13,254.75,169,235.17,169Z"/><path class="cls-5" d="M217.53,110h-1.07a5,5,0,0,1,0-10h1.07a5,5,0,0,1,0,10Z"/><path class="cls-5" d="M272.09,114H271a5,5,0,0,1,0-10h1.07a5,5,0,0,1,0,10Z"/></g></svg>