<?xml version="1.0" ?><svg viewBox="0 0 512 512" xmlns="http://www.w3.org/2000/svg"><defs><style>.cls-1{fill:#ffbc5a;}.cls-2{opacity:0.15;}.cls-3{fill:#3f456b;}.cls-4{opacity:0.3;}.cls-5{fill:#fff;}</style></defs><title/><g id="Colors"><path class="cls-1" d="M257.48,188.55c12.59-41.43,26-79.07,51.19-111,14.13-18,30.62-32.67,55.92-32.1,14.61.32,26,7,36.21,16.31,21.1,19.27,33.92,44,44.67,69.85,21.26,51.06,32.83,104.65,41.08,159.15,5.88,38.87,9.16,77.93,11.09,117.13.85,17.22.33,34.51,1.06,51.74.31,7.21-2.51,8.56-8.95,8.37q-21.48-.65-43,0c-6.62.21-8.89-1.54-8.76-8.54.79-43-1.37-85.94-4.6-128.78-5.14-68.4-12.22-136.59-32.95-202.47-4.61-14.65-9.82-29.27-19.81-41.39-12.76-15.48-24.75-15.31-36.72.65-16.47,22-23.42,48-29.54,74C294.06,248,288.65,336.12,287.73,424.69c-.16,15.54,1.95,13.74-14.37,13.85-12.86.09-25.72-.19-38.57.16-6,.16-8.5-1.41-8.37-7.95.76-39.69-1.39-79.32-4.57-118.85-5.09-63.26-12.22-126.24-32.68-186.84-4.47-13.24-9.9-26-18.53-37.24-12.79-16.61-25.63-16.73-38.08.28-13.45,18.4-19.67,40-25.26,61.63C91.66,210.32,85,272.27,80.55,334.51c-3,41.76-4.67,83.57-4.31,125.44.06,6.41-2,8.14-8.19,8-15-.37-30.12-.42-45.17,0-6.58.19-7.91-2.38-7.84-8.33.69-64.67,5.28-129,16.52-192.76,8.67-49.2,20.45-97.43,40.69-143.28,9.37-21.23,20.58-41.37,37.18-58.06,26.74-26.88,56.89-27.47,84.29-1.06,23,22.16,36.48,50.23,47.81,79.45C246.89,157.72,251.53,171.81,257.48,188.55Z"/><g class="cls-2"><path class="cls-3" d="M59.33,467.75s-1.21-152.17,38.23-286c0,0-22.56,145.88-22.56,283.54C75,465.33,72.66,467.75,59.33,467.75Z"/></g><g class="cls-2"><path class="cls-3" d="M207,191.33S241,272,241,436v2.58h-8.5S226,439,226,431,234,335,207,191.33Z"/></g><g class="cls-2"><path class="cls-3" d="M455.67,468.18s1.21-152.18-38.23-286c0,0,22.56,145.88,22.56,283.55C440,465.76,442.34,468.18,455.67,468.18Z"/></g><g class="cls-2"><path class="cls-3" d="M308,191.76s-34,80.66-34,244.66V439h8.5s6.5.42,6.5-7.58S281,335.42,308,191.76Z"/></g><g class="cls-2"><rect class="cls-3" height="15" width="60" x="16" y="453"/></g><g class="cls-2"><rect class="cls-3" height="15" width="60" x="439" y="453"/></g><g class="cls-2"><rect class="cls-3" height="15" width="60" x="227" y="424"/></g><g class="cls-4"><path class="cls-5" d="M70,129s27-69,83-69,88,83,88,83S208,42,151.5,45C151.5,45,108,38,70,129Z"/></g><g class="cls-4"><path class="cls-5" d="M278,129s27-69,83-69,88,83,88,83S416,42,359.5,45C359.5,45,316,38,278,129Z"/></g></g><g id="Lines"><path class="cls-3" d="M445.79,473c-3.17,0-6.87-.49-9.53-3.12-3-3-3.3-7.18-3.24-10.53.69-37.48-.73-77.05-4.58-128.31-4.65-61.86-11.4-133.54-32.74-201.35-4.32-13.74-9.35-28.12-18.89-39.71-5.28-6.4-10.18-9.65-14.57-9.65H362c-4.39.1-9.13,3.5-14.09,10.11-15.76,21-22.56,46.11-28.67,72.12-22.09,94-25.78,189.49-26.54,262.2,0,1.76,0,3.29,0,4.62,0,5.56.06,8.91-2.58,11.56s-6.09,2.66-12.28,2.63c-1.31,0-2.8,0-4.49,0-4.78,0-9.63,0-14.32,0-7.93,0-16.13-.06-24.14.16-3.28.09-7.4-.18-10.34-3.1s-3.23-7.08-3.17-9.94c.66-34.46-.74-71-4.55-118.36-4.58-56.89-11.24-122.84-32.44-185.64-3.56-10.56-8.8-24.17-17.75-35.79-5.42-7-10.51-10.58-15.27-10.52S141.75,84,136.6,91.06c-12.81,17.51-18.88,38.33-24.45,59.92C95.74,214.52,89.49,279.59,85.54,334.86,82.31,380.11,80.9,421,81.25,459.91c0,3.16-.32,7.15-3.21,10s-6.93,3.11-10.11,3c-16.13-.4-30.82-.4-44.91,0-2.8.08-6.87-.14-9.78-3S10,463.11,10,459.57c.76-71.19,6.19-134.5,16.6-193.58,10.3-58.45,23.34-104.34,41-144.43C79.29,95.26,91.07,76.89,105.89,62c28.77-28.92,62.05-29.34,91.3-1.14,24.62,23.73,38.59,54.39,49,81.25,3.65,9.42,7,19.08,10.57,29.3l.42,1.2c10.77-33.86,24.13-68.42,47.55-98.2,13.26-16.87,30.56-34,58.43-34l1.53,0c14.12.31,26.66,5.91,39.47,17.61,22.87,20.89,36,47.93,45.91,71.63,18.63,44.71,31.39,94.15,41.41,160.32,5.34,35.26,9,73.74,11.15,117.63.45,9.1.52,18.32.59,27.23.06,8.06.12,16.4.47,24.55.13,3-.05,7.34-3.06,10.38s-7.26,3.31-11,3.19c-14.42-.43-28.77-.43-42.67,0Zm-2.48-10.26a10.06,10.06,0,0,0,3.31.24c14.1-.44,28.66-.44,43.28,0a11.22,11.22,0,0,0,3.6-.25,8.91,8.91,0,0,0,.21-2.91c-.36-8.32-.42-16.75-.48-24.9-.07-8.81-.14-17.91-.58-26.8-2.15-43.56-5.76-81.71-11-116.63-9.89-65.33-22.45-114-40.75-158-9.45-22.69-22-48.52-43.42-68.09-11.07-10.12-21.24-14.74-32.95-15-24.39-.54-39.9,14.95-51.88,30.19-25.7,32.68-39,72-50.34,109.41a5,5,0,0,1-9.49.22c-1.93-5.42-3.72-10.57-5.45-15.52-3.52-10.14-6.86-19.72-10.45-29-10.52-27.14-23.46-55.34-46.62-77.66C177.63,55.89,164.59,49.8,151.4,50s-26,6.6-38.42,19C99.07,83,87.92,100.47,76.82,125.6c-17.6,39.87-30,83.71-40.34,142.13S20.79,389,20,459.67a11.38,11.38,0,0,0,.24,3.1,8,8,0,0,0,2.45.18c14.27-.42,29.14-.42,45.45,0a9.43,9.43,0,0,0,2.81-.21,9.15,9.15,0,0,0,.26-2.73c-.35-39.17,1.07-80.34,4.32-125.85,4-55.72,10.28-121.35,26.89-185.67,5.83-22.57,12.21-44.39,26.07-63.33,7.11-9.72,14.77-14.7,22.75-14.8s15.89,4.76,23.33,14.42c9.84,12.79,15.48,27.4,19.3,38.69,21.56,63.88,28.3,130.56,32.92,188,3.84,47.74,5.26,84.55,4.59,119.35a8,8,0,0,0,.24,2.63,9.79,9.79,0,0,0,3,.22c8.18-.22,16.45-.19,24.46-.16,4.66,0,9.48,0,14.21,0,1.74,0,3.27,0,4.62,0,1.77,0,3.59,0,4.77-.05.05-1.07,0-2.63,0-4.06s0-3,0-4.8c1.45-139.4,15.08-214.52,26.8-264.39C315.9,133.17,323,107,339.94,84.42c7-9.32,14.14-13.94,21.87-14.11s15.2,4.17,22.71,13.28c10.69,13,16.1,28.39,20.72,43.07,21.65,68.83,28.48,141.18,33.17,203.6,3.88,51.58,5.3,91.44,4.6,129.25A9.76,9.76,0,0,0,443.31,462.71Z"/></g></svg>