<?xml version="1.0" ?><svg viewBox="0 0 512 512" xmlns="http://www.w3.org/2000/svg"><defs><style>.cls-1{fill:#767c93;}.cls-2{opacity:0.2;}.cls-3{fill:#3f456b;}</style></defs><title/><g id="Colors"><path class="cls-1" d="M496,169.86l-25,10.7L158.81,314.42c-16.89,7.24-33.83,14.34-51.75,18.71-11.89,2.91-23.91,4.92-36.21,4.53-11.58-.37-22.72-2.65-32.42-9.31-16.62-11.42-23-27.64-21.15-47.36,2-21.5,11-40.39,22.58-58.21C52,204,66.81,187.4,81.77,170.92l4.14-4.55c-2.89,5.78-5.64,10.82-8,16-5.09,11.25-8.84,22.91-9.55,35.35-.92,16.1,3.86,29.81,17.22,39.68,8,5.95,17.47,7.87,27.22,8.38,15.36.8,30.12-2.5,44.84-6.43Q302.92,220.62,448.23,182l46.28-12.29c.45-.12.9-.21,1.36-.31Z"/><g class="cls-2"><path class="cls-3" d="M18.67,272.67S7,330,91,319,434,194,434,194L167.27,310.79S110,339,71,338,12.33,309.33,18.67,272.67Z"/></g></g><g id="Lines"><path class="cls-3" d="M73.91,342.71c-1.08,0-2.15,0-3.22,0C56.2,342.2,45.05,339,35.6,332.47c-17.58-12.08-25.42-29.56-23.29-52,1.85-19.52,9.27-38.74,23.36-60.46,12.12-18.69,26.37-34.84,42.39-52.5l2.66-2.92,1.5-1.64a5,5,0,0,1,8.16,5.61c-.93,1.87-1.85,3.65-2.74,5.39-1.86,3.62-3.62,7-5.17,10.48C76.85,196.88,74,207.54,73.35,218c-.89,15.59,4.09,27.16,15.2,35.38,6.17,4.56,13.73,6.84,24.51,7.41,15.31.79,30.37-2.82,43.29-6.27,74.79-20,150.83-40.19,224.38-59.76L447,177.18l36.95-9.82,9.32-2.47c.37-.1.75-.18,1.12-.27l.4-.08a5,5,0,0,1,5.93,3.47l.13.46a5,5,0,0,1-2.83,6l-83.69,35.87L160.78,319c-18.21,7.81-34.74,14.62-52.53,19C95.15,341.19,84.14,342.71,73.91,342.71ZM68,194A298.83,298.83,0,0,0,44.06,225.5c-13.18,20.32-20.1,38.1-21.8,56-1.78,18.77,4.44,32.76,19,42.77,7.81,5.36,17.26,8,29.75,8.43,10.21.33,21.29-1.07,34.87-4.38,17-4.17,33.16-10.82,51-18.45q126.75-54.36,253.51-108.69l23.8-10.2L383.3,204.47c-73.54,19.56-149.59,39.8-224.37,59.76-13.66,3.64-29.63,7.46-46.39,6.58-8-.41-19.77-1.84-29.93-9.35-13.85-10.23-20.32-25-19.24-44A90.82,90.82,0,0,1,68,194Z"/></g></svg>