<?xml version="1.0" ?><svg viewBox="0 0 512 512" xmlns="http://www.w3.org/2000/svg"><defs><style>.cls-1{fill:#50a3d1;}.cls-2{fill:#8bd0f7;}.cls-3{opacity:0.15;}.cls-4{fill:#3f456b;}.cls-5{opacity:0.2;}.cls-6{fill:#fff;}</style></defs><title/><g id="Colors"><path class="cls-1" d="M158.36,442.26c-5,0-10,0-15.07,0H68.15c-1,0-2,0-2.93,0a12.82,12.82,0,0,1-12-15c2.18-13.69,4.31-27.38,6.49-41.07,2.3-14.52,4.66-29,7-43.54,2.45-15.41,4.85-30.82,7.29-46.23q4.59-29,9.21-58l8.79-55.31q4.09-25.7,8.22-51.37,4.29-27,8.54-54.08,3.33-21.06,6.68-42.1c1.51-9.51,7.55-16.29,16.48-18.45a20.08,20.08,0,0,1,4.76-.59c51.7,0,103.41-.08,155.11.06a232.9,232.9,0,0,1,54.52,6.15c12.38,3,24.34,7.19,35.27,13.86C401.84,49,415.15,66.73,421.07,89.88c2.17,8.5,2.67,17.18,2.53,25.93a222.62,222.62,0,0,1-2,22.48c-.4,1.4-.52,2.86-.79,4.29a267.7,267.7,0,0,1-6.8,28.19,178.75,178.75,0,0,1-16.51,38.31A136.72,136.72,0,0,1,340.63,263a162.5,162.5,0,0,1-32.21,12.13,190.07,190.07,0,0,1-19.59,4.17c-5,.78-10,1.45-15.1,1.92s-10,1-15,1c-18.35.17-36.7.13-55.05.15a26.71,26.71,0,0,0-5.6.51c-9.16,2-14.8,7.75-17,16.76-1,4.24-1.5,8.62-2.17,13-.92,5.83-1.77,11.67-2.68,17.51-1.06,6.72-2.17,13.44-3.24,20.16-.88,5.56-1.73,11.12-2.62,16.68-1.07,6.72-2.17,13.44-3.24,20.16-.88,5.56-1.72,11.12-2.62,16.68s-1.86,11.09-2.76,16.65C160.64,427.71,159.51,435,158.36,442.26Z"/><path class="cls-2" d="M158.36,442.26c1.15-7.28,2.28-14.55,3.44-21.82.9-5.56,1.87-11.1,2.76-16.65s1.74-11.12,2.62-16.68c1.07-6.72,2.17-13.44,3.24-20.16.89-5.56,1.74-11.12,2.62-16.68,1.07-6.72,2.18-13.44,3.24-20.16.91-5.84,1.76-11.68,2.68-17.51.67-4.33,1.15-8.71,2.17-13,2.16-9,7.8-14.76,17-16.76a26.71,26.71,0,0,1,5.6-.51c18.35,0,36.7,0,55.05-.15,5,0,10-.57,15-1s10.09-1.14,15.1-1.92a190.07,190.07,0,0,0,19.59-4.17A162.5,162.5,0,0,0,340.63,263a136.72,136.72,0,0,0,56.86-53.89A178.75,178.75,0,0,0,414,170.77a267.7,267.7,0,0,0,6.8-28.19c.27-1.43.39-2.89.79-4.29,18.59,9.63,30.74,24.55,36.57,44.62a95.7,95.7,0,0,1,3.4,20c1.06,14.95-.77,29.65-3.83,44.24a175.46,175.46,0,0,1-15,43.79c-10.67,20.94-25.69,37.89-46,50a141,141,0,0,1-41.48,16.28,204.78,204.78,0,0,1-28.51,4.3c-10.66.92-21.33.72-32,.8a18.53,18.53,0,0,0-14.1,6.27,18.22,18.22,0,0,0-4.55,9.48q-2.82,17.13-5.55,34.26-2.64,16.41-5.26,32.82c-1.59,10-3.15,20-4.75,29.94-.31,1.92-.65,3.85-1.1,5.75a18.76,18.76,0,0,1-18,14.5c-1,0-1.95,0-2.93,0q-37.16,0-74.31,0a14,14,0,0,1-5.33-.88A10.87,10.87,0,0,1,152.05,483c.81-6.08,1.85-12.12,2.79-18.18Q156.59,453.51,158.36,442.26Z"/><g class="cls-3"><path class="cls-4" d="M53,427H160.5L158,442H68S51,443,53,427Z"/></g><g class="cls-3"><path class="cls-4" d="M153,479s-3.67,16.17,8.67,16.17H240s17.73.83,19.87-16.17Z"/></g><g class="cls-3"><path class="cls-4" d="M436.33,148S433,266,307,275c0,0,90-10,114-131l.88-4.5Z"/></g><g class="cls-5"><path class="cls-6" d="M115,36H303s112,0,120,70.5c0,0,4-89.5-124.5-89.5H140.67S118,15,115,36Z"/></g><g class="cls-3"><path class="cls-4" d="M405.73,192.5S372,275,209,265c0,0-25.5-1-25.75,28,0,0,6.25-10.75,25.5-10.75S357.45,302,405.73,192.5Z"/></g><g class="cls-3"><path class="cls-4" d="M452,271.5S411,351,301,347c0,0-24.5-4-24.75,25,0,0,6.25-10.75,25.5-10.75S424,362,452,271.5Z"/></g></g><g id="Lines"><g id="dKcYhi"><path class="cls-4" d="M158.36,447.26h-5l-10,0H67.63c-.85,0-1.73,0-2.66,0a17.83,17.83,0,0,1-16.74-20.75q1.74-10.92,3.45-21.82,1.51-9.63,3-19.26,1.68-10.58,3.38-21.15,1.8-11.19,3.58-22.38,2-12.42,3.92-24.85Q67.28,306.29,69,295.6l6.24-39.28,5.87-36.92Q84,200.85,87,182.29q1.78-11.26,3.6-22.53,2.31-14.41,4.61-28.84,2.5-15.76,5-31.54,1.78-11.26,3.56-22.53l3.81-24,2.88-18.09c1.82-11.48,9.38-19.9,20.24-22.53a24.86,24.86,0,0,1,5.93-.73h46.9c35.47,0,72.14,0,108.22.07a236,236,0,0,1,55.68,6.29c14.77,3.59,26.43,8.18,36.7,14.45,21.56,13.16,35.63,32.12,41.82,56.35,2,7.85,2.86,16.51,2.69,27.25a194.19,194.19,0,0,1-1.71,20.17l-.33,2.81a4.31,4.31,0,0,1-.17.81,18.34,18.34,0,0,0-.4,2.12c-.08.58-.17,1.15-.28,1.72a267.07,267.07,0,0,1-6.93,28.72,182.37,182.37,0,0,1-17,39.37,141.63,141.63,0,0,1-58.9,55.81,168.76,168.76,0,0,1-33.2,12.52,196.83,196.83,0,0,1-20.1,4.27c-5.6.88-10.64,1.52-15.41,2l-1.82.17c-4.42.42-9,.85-13.58.89-14.62.14-29.47.14-43.83.14H203.7a21.63,21.63,0,0,0-4.55.4c-7.12,1.55-11.43,5.81-13.16,13-.69,2.86-1.11,5.81-1.56,8.94-.17,1.2-.34,2.41-.53,3.61-.45,2.83-.87,5.67-1.3,8.5-.46,3-.91,6-1.38,9q-.9,5.69-1.82,11.35-.72,4.41-1.42,8.83c-.44,2.73-.86,5.47-1.29,8.21s-.88,5.64-1.33,8.46c-.53,3.37-1.08,6.73-1.62,10.1s-1.09,6.71-1.62,10.07q-.59,3.68-1.16,7.37c-.48,3.11-1,6.21-1.46,9.31-.44,2.73-.9,5.45-1.35,8.17s-1,5.65-1.41,8.48q-1.22,7.57-2.39,15.16l-1,6.65A5,5,0,0,1,158.36,447.26Zm-90.21-10h75.14l10.06,0h.74l.38-2.41c.79-5.07,1.58-10.13,2.4-15.2.46-2.85.94-5.7,1.41-8.55q.69-4.05,1.35-8.1c.49-3.08,1-6.17,1.45-9.25.38-2.47.77-4.95,1.16-7.42.54-3.36,1.08-6.73,1.63-10.09l1.62-10.07,1.32-8.43c.43-2.75.85-5.5,1.29-8.25.47-3,1-5.89,1.43-8.84q.91-5.65,1.81-11.31c.47-3,.92-6,1.37-9s.86-5.7,1.31-8.55q.27-1.74.51-3.48c.46-3.22.94-6.55,1.73-9.86,2.65-11,9.83-18.09,20.77-20.47a30.69,30.69,0,0,1,6.66-.63H215c14.34,0,29.17,0,43.75-.14,4.17,0,8.33-.43,12.73-.84l1.83-.18c4.57-.42,9.41-1,14.8-1.88a183.52,183.52,0,0,0,19.08-4.06,158,158,0,0,0,31.22-11.76,131.64,131.64,0,0,0,54.82-52,173,173,0,0,0,16-37.24,257.48,257.48,0,0,0,6.67-27.66c.08-.44.15-.88.21-1.33a29,29,0,0,1,.57-3l.29-2.46a184.52,184.52,0,0,0,1.64-19.14c.16-9.83-.6-17.65-2.38-24.61-5.52-21.62-18.09-38.54-37.34-50.29-9.36-5.72-20.12-9.94-33.84-13.27a226,226,0,0,0-53.36-6c-36.06-.1-72.72-.09-108.18-.07H136.59a14.57,14.57,0,0,0-3.58.45c-7,1.69-11.52,6.8-12.72,14.37l-2.87,18.1q-1.92,12-3.81,24-1.78,11.27-3.56,22.52-2.47,15.78-5,31.56-2.29,14.43-4.61,28.85-1.81,11.26-3.61,22.53-3,18.56-5.9,37.1l-5.86,36.92Q82,277.53,78.85,297.16q-1.69,10.68-3.37,21.38-2,12.42-3.92,24.86Q69.78,354.59,68,365.79q-1.7,10.57-3.38,21.14-1.53,9.61-3,19.24Q59.83,417.09,58.11,428a7.9,7.9,0,0,0,1.64,6.32,7.75,7.75,0,0,0,5.72,2.87c.71,0,1.42,0,2.13,0Z"/><path class="cls-4" d="M164.22,500.35A18.86,18.86,0,0,1,157,499.1a15.94,15.94,0,0,1-9.94-16.81c.59-4.39,1.3-8.81,2-13.07q.42-2.61.83-5.22l3.52-22.51h0l1-6.64c.79-5.07,1.58-10.13,2.4-15.2.46-2.85.94-5.7,1.41-8.55q.69-4.05,1.35-8.1c.49-3.08,1-6.17,1.45-9.25.38-2.47.77-4.95,1.16-7.42.54-3.36,1.08-6.73,1.63-10.09l1.62-10.07,1.32-8.43c.43-2.75.85-5.5,1.29-8.25.47-3,1-5.89,1.43-8.84q.91-5.65,1.81-11.31c.47-3,.92-6,1.37-9s.86-5.7,1.31-8.55q.27-1.74.51-3.48c.46-3.22.94-6.55,1.73-9.86,2.65-11,9.83-18.09,20.77-20.47a30.69,30.69,0,0,1,6.66-.63H215c14.34,0,29.17,0,43.75-.14,4.17,0,8.33-.43,12.73-.84l1.83-.18c4.57-.42,9.41-1,14.8-1.88a183.52,183.52,0,0,0,19.08-4.06,158,158,0,0,0,31.22-11.76,131.64,131.64,0,0,0,54.82-52,173,173,0,0,0,16-37.24,257.48,257.48,0,0,0,6.67-27.66c.08-.44.15-.88.21-1.33a26.22,26.22,0,0,1,.69-3.42,5,5,0,0,1,7.1-3c19.71,10.2,32.85,26.24,39.07,47.67a100,100,0,0,1,3.59,21c1,13.73-.28,28.23-3.93,45.62a178.69,178.69,0,0,1-15.45,45C435.8,315.5,419.71,333,399.34,345.22a145.13,145.13,0,0,1-42.94,16.87,209.19,209.19,0,0,1-29.19,4.4c-8.7.75-17.45.77-25.92.79l-6.47,0a13.59,13.59,0,0,0-10.44,4.63,13.16,13.16,0,0,0-3.32,6.94q-2.46,15-4.87,30.08l-.67,4.15q-2.64,16.41-5.26,32.82-1,6.57-2.08,13.14-1.33,8.4-2.67,16.8c-.27,1.67-.64,3.87-1.18,6.11a23.89,23.89,0,0,1-22.74,18.35c-.73,0-1.46,0-2.19,0H164.22ZM163.3,443l-3.52,22.51c-.27,1.75-.55,3.51-.84,5.26-.67,4.21-1.37,8.55-1.94,12.81a5.9,5.9,0,0,0,3.79,6.23,9.1,9.1,0,0,0,3.44.51h75.22c.64,0,1.28,0,1.93,0a13.71,13.71,0,0,0,13.22-10.66c.46-1.92.79-3.89,1-5.38q1.35-8.39,2.67-16.78,1-6.58,2.08-13.16,2.63-16.41,5.27-32.83l.66-4.15q2.43-15.06,4.89-30.12a23.05,23.05,0,0,1,5.79-12,23.35,23.35,0,0,1,17.75-7.9l6.53,0c8.26,0,16.8,0,25.08-.75a202,202,0,0,0,27.82-4.19,135.33,135.33,0,0,0,40-15.7c18.73-11.22,33.55-27.38,44.06-48a168.91,168.91,0,0,0,14.57-42.55c3.46-16.46,4.65-30.08,3.74-42.86a89.57,89.57,0,0,0-3.21-18.91c-4.85-16.72-14.09-29.27-28.15-38.19a261,261,0,0,1-6.43,26.12,182.37,182.37,0,0,1-17,39.37,141.63,141.63,0,0,1-58.9,55.81,168.76,168.76,0,0,1-33.2,12.52,196.83,196.83,0,0,1-20.1,4.27c-5.6.88-10.64,1.52-15.41,2l-1.82.17c-4.42.42-9,.85-13.58.89-14.62.14-29.47.14-43.83.14H203.7a21.63,21.63,0,0,0-4.55.4c-7.12,1.55-11.43,5.81-13.16,13-.69,2.86-1.11,5.81-1.56,8.94-.17,1.2-.34,2.41-.53,3.61-.45,2.83-.87,5.67-1.3,8.5-.46,3-.91,6-1.38,9q-.9,5.69-1.82,11.35-.72,4.41-1.42,8.83c-.44,2.73-.86,5.47-1.29,8.21s-.88,5.64-1.33,8.46c-.53,3.37-1.08,6.73-1.62,10.1s-1.09,6.71-1.62,10.07q-.59,3.68-1.16,7.37c-.48,3.11-1,6.21-1.46,9.31-.44,2.73-.9,5.45-1.35,8.17s-1,5.65-1.41,8.48q-1.22,7.57-2.39,15.16Z"/></g></g></svg>