<?xml version="1.0" ?><svg enable-background="new 0 0 24 24" id="Layer_1" version="1.1" viewBox="0 0 24 24" xml:space="preserve" xmlns="http://www.w3.org/2000/svg" xmlns:xlink="http://www.w3.org/1999/xlink"><g><path d="M22,3H2C0.8969727,3,0,3.8969727,0,5v14c0,1.1030273,0.8969727,2,2,2h20c1.1030273,0,2-0.8969727,2-2V5   C24,3.8969727,23.1030273,3,22,3z M5.0020142,10.1005249C5.0130615,10.0424194,5.0678101,10,5.1317139,10H5.131958   l1.2373047,0.0018311c0.0016479,0,0.003418,0.000061,0.005127,0.000061   c0.1810913,0.0067749,0.4310303,0.0474243,0.5099487,0.3209839c0.0006104,0.0020142,0.0010986,0.0040283,0.0015869,0.0061646   l0.2195435,0.9576416c0.0126953,0.055603-0.0180664,0.1120605-0.0740967,0.1356812   c-0.0175781,0.0074463-0.0362549,0.0109253-0.0547485,0.0109253c-0.0401611,0-0.0793457-0.0169678-0.1048584-0.0479736   c-0.413147-0.5015259-1.0302124-0.8990479-1.784668-1.1495361C5.0267944,10.2157593,4.9909668,10.1586304,5.0020142,10.1005249z    M7.9163208,13.9940186L6.854248,13.9954224H6.854126c-0.0585327,0-0.1099854-0.0355835-0.1264038-0.0874023L5.805481,11.0007935   c-0.0159912-0.0504761,0.0050049-0.1047363,0.052002-0.1343994c0.0469971-0.0297241,0.109375-0.0281982,0.1546631,0.0039673   c0.6640015,0.4708252,1.1398926,1.064209,1.3169556,1.4434204c0.0025024,0.0050659,0.0045166,0.010376,0.0060425,0.0157471   l0.1206665,0.4030151l1.1219482-2.6444092c0.0197754-0.0465698,0.0684204-0.0772705,0.1225586-0.0772705l0.9589844-0.0004272   h0.0001221c0.0443115,0,0.0856323,0.0205688,0.1099854,0.0546875s0.0285034,0.0773315,0.0109863,0.1148682l-1.7432861,3.7405396   C8.0162964,13.9650879,7.9688721,13.9940186,7.9163208,13.9940186z M10.7965088,13.8972168   c-0.0107422,0.0584106-0.0656128,0.1011353-0.1298218,0.1011353H9.7550659c-0.0388184,0-0.0756226-0.0157471-0.100647-0.0431519   c-0.0249634-0.0272827-0.0356445-0.0635376-0.0291138-0.0988159l0.6920776-3.7481079   c0.0107422-0.0583496,0.0656128-0.1010742,0.1297607-0.1010742h0.9122925c0.0388184,0,0.0756226,0.0158081,0.100647,0.0431519   c0.0250244,0.0272827,0.0356445,0.0634766,0.0291748,0.0987549L10.7965088,13.8972168z M13.8735352,11.6255493   c0.6526489,0.2723999,0.9561768,0.6044922,0.9516602,1.0435791c-0.0085449,0.7985229-0.7852173,1.3146362-1.9787598,1.3148193   h-0.0014648c-0.4162598-0.0041504-0.8504028-0.0667114-1.1613159-0.1672974   c-0.0606689-0.0195923-0.0971069-0.0767822-0.0862427-0.1352539l0.1129761-0.6088867   c0.0067749-0.036499,0.0311279-0.0681152,0.0662842-0.0858765c0.0350952-0.0178833,0.0770874-0.0200806,0.1141357-0.0058594   c0.3528442,0.135437,0.6022949,0.1998291,1.0651245,0.1998291c0.3251953,0,0.6765747-0.1174927,0.6796875-0.3756104   c0.0020142-0.1685791-0.1465454-0.2890015-0.5887451-0.4771729c-0.4311523-0.1841431-1.0031128-0.4927368-0.9960327-1.0460205   c0.0062866-0.7471924,0.7963867-1.2693481,1.9213867-1.2693481c0.3968506,0,0.7137451,0.0689087,0.909668,0.126709   c0.062439,0.0184937,0.100708,0.0764771,0.0897217,0.1361694l-0.1065674,0.578186   c-0.0066528,0.0360107-0.0303955,0.0671997-0.0646973,0.0852661s-0.0755005,0.0209351-0.1124268,0.0078735   c-0.1585693-0.0562134-0.4107666-0.1309204-0.7678223-0.1309204c-0.012085,0-0.0244141,0.0001221-0.034729,0.0003052   c-0.4299927,0-0.6538086,0.1657104-0.6538086,0.3294678C13.229248,11.3275757,13.4740601,11.4464722,13.8735352,11.6255493z    M18.9709473,13.9544678c-0.0249634,0.0286865-0.0627441,0.0454102-0.1026001,0.0454102h-0.8240356   c-0.0618896,0-0.1154785-0.0397339-0.1286621-0.0955811c-0.0274658-0.1156006-0.0939941-0.3961792-0.1207886-0.5020752   c-0.0909424,0-0.4708252-0.0004883-0.8284302-0.0008545h-0.0175781c-0.3111572-0.0004272-0.6013794-0.0007935-0.6640625-0.0007935   c-0.0245972,0.0581665-0.0991211,0.2383423-0.215271,0.5209961C16.0500488,13.96875,16.0010376,14,15.9462891,14h-0.9448853   c-0.0446167,0-0.0860596-0.020752-0.1103516-0.0551758c-0.024292-0.0344849-0.0281372-0.0778198-0.0101318-0.1155396   l1.6686401-3.4869995c0.1109009-0.2320557,0.2956543-0.3310547,0.6176147-0.3310547h0.8049927   c0.0618896,0,0.1152344,0.0396118,0.1286011,0.0952759l0.8961792,3.7457275   C19.0054932,13.8881836,18.9959106,13.9257813,18.9709473,13.9544678z" fill="#303C42"/><polygon fill="#303C42" points="17.2510376,11.0871582 16.6240845,12.5838013 17.6036377,12.5838013 17.3307495,11.4319458  "/></g><g/><g/><g/><g/><g/><g/><g/><g/><g/><g/><g/><g/><g/><g/><g/></svg>