<?xml version="1.0" ?><svg enable-background="new 0 0 24 24" id="Layer_1" version="1.1" viewBox="0 0 24 24" xml:space="preserve" xmlns="http://www.w3.org/2000/svg" xmlns:xlink="http://www.w3.org/1999/xlink"><g><path d="M22,3H2C0.8969727,3,0,3.8969727,0,5v14c0,1.1030273,0.8969727,2,2,2h20c1.1030273,0,2-0.8969727,2-2V5   C24,3.8969727,23.1030273,3,22,3z M5.2888794,11.8287354H4.505188l-0.1629639-1.1630859l-0.1603394,1.1630859H3.3853149   L3,10.0327759h0.6387329l0.1655884,1.1057739l0.1680908-1.1057739h0.7474365l0.1680908,1.1357422l0.1681519-1.1357422h0.612915   L5.2888794,11.8287354z M7.5361938,11.8287354H5.9764404v-1.7959595h1.5341187v0.4620972H6.7506104v0.1923828h0.7410278v0.4620972   H6.7506104v0.2123413h0.7855835V11.8287354z M7.8720093,11.2518311h0.7180176v0.0149536   c0,0.1223755,0.0366211,0.2005615,0.1669312,0.2005615c0.1063843,0,0.1484375-0.0430298,0.1588745-0.112915   c0.0075073-0.0506592-0.010437-0.1040649-0.0645752-0.1279907c-0.1022949-0.0452271-0.237793-0.1009521-0.4733276-0.1685181   c-0.3215332-0.0922241-0.4782104-0.2382813-0.4782104-0.4906006c0-0.3522339,0.309082-0.5784302,0.8912964-0.5784302   c0.52948,0,0.8164063,0.1912842,0.8164063,0.5084839v0.0756226H8.9449463C8.9503784,10.4552002,8.8914185,10.375,8.7702026,10.375   c-0.1025391,0-0.1456299,0.0490112-0.1456299,0.116394c0,0.125,0.1422119,0.1205444,0.3875122,0.203186   c0.4592285,0.1546021,0.6431274,0.2516479,0.6431274,0.5787964c0,0.3797607-0.3138428,0.5858154-0.8905029,0.5858154   c-0.5849609,0-0.8955078-0.2002563-0.8955078-0.5424805C7.8692017,11.2966919,7.8692017,11.274231,7.8720093,11.2518311z    M9.755188,13.2583008c0,0.5092163-0.2945557,0.7443848-0.9223633,0.7443848c-0.3414307,0-0.5809937-0.0603638-0.7462158-0.2202148   C7.9269409,13.6275635,7.913208,13.46521,7.913208,13.2583008v-1.0820313h0.7433472v1.1095581   c0,0.1519165,0.0606079,0.2268677,0.1762695,0.2268677c0.1101074,0,0.1762085-0.079895,0.1762085-0.2268677v-1.1095581H9.755188   V13.2583008z M9.8499756,10.0327759h1.7081299v0.4796143h-0.4727783v1.3163452h-0.7597656v-1.3163452H9.8499756V10.0327759z    M12.0947876,13.972229h-0.8689575l-0.4008789-1.0245972v1.0245972H10.237854v-1.7959595h0.9381714l0.3317261,0.9143677v-0.9143677   h0.5870361V13.972229z M13.3485107,13.97229h-0.7653198v-1.7960205h0.7653198V13.97229z M13.4447632,11.8287354h-1.5598145   v-1.7959595h1.5341797v0.4620972h-0.7599487v0.1923828h0.7338257v0.4620972h-0.7338257v0.2123413h0.7855835V11.8287354z    M14.7495117,14.0002441c-0.6358032,0-1.0028076-0.3394775-1.0028076-0.9364624   c0-0.6020508,0.369812-0.9436035,1.0280762-0.9436035c0.6526489,0,1.0195923,0.3415527,1.0195923,0.9411011   C15.7943726,13.6709595,15.4302368,14.0002441,14.7495117,14.0002441z M15.0482788,11.8287354   c-0.0248413-0.0873413-0.046875-0.1697998-0.0578613-0.2497559l-0.0193481-0.1323853   c-0.0285034-0.1950073-0.0552368-0.2601318-0.2344971-0.2601318c-0.0193481,0-0.0441284,0-0.0690308,0.0025024v0.6397705   h-0.7475586v-1.7959595h1.0454712c0.5460815,0,0.772522,0.1065063,0.772522,0.4658203   c0,0.2156372-0.1535034,0.3702393-0.3584595,0.4205933c0.2011108,0.039917,0.2999268,0.1375122,0.3336182,0.397522   l0.0248413,0.1923218c0.0109863,0.0799561,0.0358887,0.187439,0.0689697,0.3197021H15.0482788z M16.1826172,10.0327759h0.9381714   l0.3317261,0.9143677v-0.9143677h0.5870972v1.7959595h-0.8690186l-0.4008179-1.0245361v1.0245361h-0.5871582V10.0327759z    M18.0577393,13.972229h-0.8690186l-0.4008789-1.0245972v1.0245972h-0.5870972v-1.7959595h0.9381714l0.3317261,0.9143677   v-0.9143677h0.5870972V13.972229z M19.0695801,14.0584717H18.909729v-4.0330811h0.1598511V14.0584717z M21,14.0707397h-0.1598511   v-4.03302H21V14.0707397z" fill="#303C42"/><path d="M14.7531128,10.4324341c-0.0248413,0-0.0523682,0-0.0855713,0.0025024v0.3129883   c0.0194092,0.0025635,0.0386963,0.0025635,0.0552368,0.0025635c0.1792603,0,0.2731323-0.0513916,0.2731323-0.1655273   C14.9959106,10.4734497,14.9214478,10.4324341,14.7531128,10.4324341z" fill="#303C42"/><path d="M14.7719116,12.5371094c-0.1821289,0-0.2212524,0.1699829-0.2212524,0.5326538   c0,0.3456421,0.0447998,0.515686,0.2184448,0.515686c0.1765137,0,0.2213135-0.1728516,0.2213135-0.5524902   C14.9904175,12.6929321,14.9483643,12.5371094,14.7719116,12.5371094z" fill="#303C42"/></g><g/><g/><g/><g/><g/><g/><g/><g/><g/><g/><g/><g/><g/><g/><g/></svg>