<?xml version="1.0" ?><svg enable-background="new 0 0 24 24" id="Layer_1" version="1.1" viewBox="0 0 24 24" xml:space="preserve" xmlns="http://www.w3.org/2000/svg" xmlns:xlink="http://www.w3.org/1999/xlink"><g><path d="M16.8924561,11.1845703c-0.2541504,0-0.4926758,0.1552734-0.6077271,0.246521v1.0212402   c0.1351929,0.1311646,0.3334351,0.2582397,0.5441895,0.2582397c0.3773193,0,0.5205078-0.3137207,0.5205078-0.8144531   C17.3494263,11.3554688,17.1386108,11.1845703,16.8924561,11.1845703z" fill="#303C42"/><path d="M9.7979736,11.1827393c-0.3866577,0-0.6117554,0.2300415-0.6117554,0.7545166   c0,0.5280762,0.201416,0.7817993,0.5921021,0.7817993c0.3825684,0,0.592041-0.2420654,0.592041-0.7858276   C10.3703613,11.4127808,10.180603,11.1827393,9.7979736,11.1827393z" fill="#303C42"/><path d="M13.8632202,11.9775391c0,0.5517578,0.1866455,0.7303467,0.4645386,0.7303467   c0.2344971,0,0.4251099-0.1548462,0.6000977-0.3294067v-0.9840698c-0.1194458-0.0993652-0.3338013-0.2143555-0.5441895-0.2143555   C14.0100098,11.1800537,13.8632202,11.5054321,13.8632202,11.9775391z" fill="#303C42"/><path d="M3.9331055,13.1518555c0.1275024-0.0210571,0.2639771-0.059082,0.3915405-0.2027588   C4.192627,13.0291748,4.0565796,13.0968018,3.9331055,13.1518555z" fill="#303C42"/><path d="M4.512146,12.8220215c-0.0299683,0.0339966-0.0429688,0.0845947-0.0684204,0.1226196   c-0.0425415,0.0675659-0.1360474,0.1481323-0.2000732,0.1861572c-0.0635376,0.0380249-0.132019,0.0631104-0.1870728,0.0760498   C4.0095825,13.2194214,3.9285889,13.223877,3.920105,13.223877c-0.0125122,0-0.1235352-0.0130005-0.1360474-0.0130005   c-0.0084839,0-0.1450195,0.0339966-0.2085571,0.0595703c-0.0299683,0.0079956-0.0639648,0.0760498-0.0639648,0.0971069   c0,0.0380249,0.1065063,0.0380249,0.1190186,0.0380249c0.4130859,0,1.1112061-0.388916,1.2261963-0.9214478   c-0.0550537,0.0675659-0.1149902,0.1306763-0.1744995,0.1901855C4.6226807,12.7289429,4.5502319,12.7714233,4.512146,12.8220215z" fill="#303C42"/><path d="M18.2977295,12.4286499c0,0.2130127,0.0908203,0.2998047,0.2769775,0.2998047   c0.2331543,0,0.4829102-0.18927,0.6055298-0.303833v-0.3710327l-0.4475708,0.039856   C18.3925781,12.1247559,18.2977295,12.2236938,18.2977295,12.4286499z" fill="#303C42"/><path d="M22,3H2C0.8974609,3,0,3.8969727,0,5v14c0,1.1030273,0.8974609,2,2,2h20c1.1025391,0,2-0.8969727,2-2V5   C24,3.8969727,23.1025391,3,22,3z M4.9932251,12.2769165v0.1056519c-0.046936,0.651123-0.8345947,1.1201172-1.3286743,1.1201172   c-0.0595093,0-0.2295532-0.0084839-0.2295532-0.1266479c0-0.0130005,0.0084839-0.0510254,0.0169678-0.0805664   c-0.0939331,0.0130005-0.2769775,0.0465698-0.3834839,0.0465698c-0.0805664,0-0.4511108-0.0040283-0.4511108-0.2027588   c0-0.1861572,0.3320313-0.1986694,0.3960571-0.1986694c0.1785278,0,0.3660889,0.0505371,0.5491333,0.1351318   c-0.0299683,0.0084839-0.085022,0.0255127-0.0935669,0.0255127c-0.0129395,0-0.0299683-0.0130005-0.0469971-0.0170288   c-0.1190186-0.0424805-0.2554932-0.0675659-0.3790283-0.0675659c-0.0720825,0-0.085022-0.0044556-0.1700439,0.0170288   c-0.0085449,0-0.1575317,0.0380249-0.1575317,0.0971069c0,0.0420532,0.1190186,0.0675659,0.1445313,0.0715942   c0.0510254,0.0084839,0.1575317,0.0170288,0.1660156,0.0170288c0.7581177,0,1.9332886-0.6256714,1.9332886-1.3739014   c0-0.1391602-0.0639648-0.3378906-0.1919556-0.4649658c-0.0084839,0.0550537-0.0210571,0.1140747-0.0425415,0.173645   c-0.0125122,0.0380249-0.0465088,0.1055908-0.0465088,0.1140747c0,0,0.2125244,0.2322998,0.2125244,0.2833252   c0,0.029541-0.0465088,0.1602173-0.0465088,0.1646729c-0.0425415-0.1141357-0.102478-0.2282715-0.2215576-0.3423462   c-0.0169678,0.0169678-0.0339966,0.0420532-0.0509644,0.0635376c-0.0214844,0.029541-0.0469971,0.059082-0.0725098,0.088623   c-0.055481,0.0635376-0.1830444,0.1731567-0.1830444,0.18573c0,0,0.1530151,0.1525879,0.2045288,0.3297729   c0.0084839,0.0255127,0.0209961,0.0761108,0.0209961,0.0845947c0,0.0255127-0.085022,0.0805664-0.085022,0.0845947   c-0.0044556-0.1436768-0.0639648-0.2958374-0.2214966-0.4394531c-0.1830444,0.1351318-0.3745728,0.2452393-0.5576172,0.3338623   c0.1105347,0.0930786,0.1744995,0.2282104,0.1744995,0.3253174c0,0.0465698-0.0254517,0.1481323-0.046936,0.1606445   c-0.0255127,0.0170288-0.0550537,0.0255127-0.085022,0.0340576c0.0339966-0.0425415,0.0639648-0.1396484,0.0639648-0.1817017   c0-0.0761108-0.0510254-0.1947021-0.1364746-0.2582397c-0.0210571-0.0125122-0.0510254-0.0420532-0.0595703-0.0420532   c-0.0125122,0-0.1190186,0.0465088-0.1785278,0.0675659c-0.0684814,0.0255127-0.1405029,0.0465088-0.2130127,0.0675659   c-0.217041,0.0635376-0.4215698,0.1016235-0.630127,0.1016235c-0.0809937,0-0.4345093-0.0085449-0.4345093-0.1987305   c0-0.2832642,0.6560669-0.3087769,0.7451172-0.3087769c0.1959839,0,0.3834839,0.0214844,0.5835571,0.1101074   c-0.0385132,0.0125122-0.1110229,0.0420532-0.1195068,0.0420532c-0.0125122,0-0.2340698-0.0631104-0.434082-0.0631104   c-0.0894775,0-0.2000122,0.0084839-0.2850342,0.0250854c-0.0685425,0.0129395-0.1365356,0.0299683-0.1960449,0.0549927   c-0.0214844,0.0045166-0.1790161,0.0720825-0.1790161,0.1311646c0,0.0084839,0.0255127,0.0255127,0.0425415,0.0339966   c0.0854492,0.0420532,0.1619873,0.0380249,0.2470093,0.0380249c0.8046265,0,2.0393677-0.6300659,2.1118164-1.2852783v-0.1055908   c-0.0384521-0.4269409-0.7025757-0.7017212-1.026123-0.7017212c-0.0084839,0-0.0635986,0.0044556-0.0980225,0.0125122   c0.0214844,0.0085449,0.0469971,0.0085449,0.0684814,0.0170288c0.0169678,0.0044556,0.0380249,0.0130005,0.0595093,0.0210571   c0.0339966,0.0129395,0.0935059,0.0424805,0.132019,0.0760498c0.029541,0.0255127,0.0465088,0.0635376,0.0765381,0.0845947   c0.0214844,0.0214844,0.0639648,0.0169678,0.0980225,0.0299683c0.1105347,0.0335693,0.2470093,0.0841064,0.3619995,0.1351318   c0.0465698,0.0250854,0.1060791,0.0505981,0.1575317,0.0801392c0.0170288,0.0130005,0.029541,0.0380249,0.0425415,0.059082   c0.0209961,0.0339966,0.0465088,0.0890503,0.0550537,0.1355591c-0.2211304-0.1651001-0.442627-0.2496948-0.6641235-0.3212891   H3.8990479c0.0085449,0.1140747-0.0384521,0.2282104-0.1194458,0.3423462   c0.242981,0.0635376,0.4980469,0.156189,0.7495728,0.329834c-0.0129395,0.029541-0.0299683,0.0631104-0.0510254,0.0925903   c-0.1065063-0.0760498-0.2214966-0.1351318-0.3280029-0.1856689c-0.0255127-0.0125732-0.3831177-0.1436768-0.4385986-0.1436768   c-0.0129395,0-0.0979614,0.0845947-0.1445313,0.1226196c-0.1150513,0.0926514-0.2300415,0.1646729-0.3450317,0.2322388   c0.3106079,0.0425415,0.621582,0.1101074,0.9321899,0.3128662c-0.0210571,0.0209961-0.0680542,0.0635376-0.0805664,0.0635376   c-0.0084839,0-0.0895386-0.059082-0.1364746-0.0805664c-0.217041-0.1055908-0.630127-0.2067871-0.8812256-0.2067871   c-0.0214233,0-0.2680054,0.1056519-0.3280029,0.1221924c-0.1745605,0.0510254-0.3660889,0.1141357-0.5446167,0.1141357   c-0.0599976,0-0.1790161-0.0040283-0.1790161-0.1011353c0-0.1901855,0.677124-0.2367554,0.7236328-0.2367554h0.1490479   c-0.1065063,0.0420532-0.2340698,0.088623-0.3361206,0.1141357C2.4428711,11.7994385,2.3408203,11.815979,2.2468262,11.84552   c-0.0170288,0.0044556-0.0339966,0.0170288-0.0510254,0.0255127c0,0-0.0040283,0.0044556,0.0085449,0.0044556   c0.0084839,0,0.1489868-0.0214844,0.2255249-0.0380249c0.3875732-0.0930786,0.8046265-0.2452393,1.1881714-0.5960693   c0.0935059-0.0891113,0.1615601-0.1987305,0.1830444-0.2958374v-0.0845947   c-0.0130005-0.0930786-0.1490479-0.1901855-0.2340698-0.2156982c-0.055481-0.0169678-0.1619873-0.0380249-0.1745605-0.0380249   c-0.0214844,0-0.0514526,0.0125122-0.0724487,0.0465088c0.1360474,0.029541,0.2935791,0,0.4130249,0.1691895   c0,0,0.0040283,0.0040283,0,0.0125122c-0.0344238-0.0125122-0.4515381-0.1100464-0.5195923-0.1100464   c-0.0254517,0-0.2255249,0.1395874-0.272522,0.1691284c-0.1275024,0.0761108-0.2595215,0.1481323-0.3875732,0.2112427   l0.4385986,0.0044556c0.1915283,0.0125122,0.4090576,0.0380859,0.6046143,0.0761108   c-0.0085449,0.0040283-0.085022,0.0845337-0.1020508,0.0845337c-0.0084839,0-0.1450195-0.0254517-0.2130127-0.0339966   c-0.1235352-0.0170288-0.2510376-0.0209961-0.3790283-0.029541l-0.5531616,0.0125122   c-0.0299683-0.0039673-0.0894775-0.0079956-0.0894775-0.059021c0-0.0380859,0.0465088-0.0631104,0.0809937-0.0761108   c0.0255127-0.0084839,0.0550537-0.0250244,0.0805664-0.0335083c0.272522-0.1141357,0.5535889-0.2662964,0.8305664-0.4399414   c-0.0084839-0.0040283-0.0259399-0.0040283-0.0344238-0.0040283c-0.0125732,0-0.0465698,0.0040283-0.0720825,0.0125122   c0.0040283,0.0045166,0.0085449,0.0045166,0.0125122,0.0045166c-0.0380249,0.0209961-0.1020508,0.0630493-0.1149902,0.0630493   c-0.029541,0-0.0720825-0.0380249-0.0720825-0.0630493c0-0.0761108,0.1745605-0.0805664,0.1870728-0.0805664   c0.1745605-0.0040283,0.187561,0.0044556,0.2000732,0.0044556c0.0084839,0,0.0809937-0.0380249,0.1279907-0.0465088   c0.0679932-0.0170288,0.1019897-0.0170288,0.1660156-0.0170288c0.0725098,0,0.1575317,0.0084839,0.2385254,0.0255127   c0.217041,0.0465088,0.4640503,0.1391602,0.6766357,0.3508301c0.0684814,0.0675659,0.1279907,0.1607056,0.1535034,0.2322998   c0.0125122,0.02948,0.0125122,0.0760498,0.0340576,0.1055908c0.0339966,0.0510254,0.0935059,0.0930786,0.1359863,0.1481323   c0.055542,0.059082,0.0895386,0.1226196,0.1195068,0.1901855c0.0125122,0.0210571,0.0170288,0.0505981,0.029541,0.0760498   c0.0170288,0.0335693,0.0469971,0.1942749,0.0469971,0.2537842c0,0.1226196-0.0425415,0.2747803-0.0980225,0.3929443   C4.9887695,12.2644043,4.9932251,12.2644043,4.9932251,12.2769165z M8.78479,11.137085l-0.1431885,0.0233154   c-0.0675659,0.012085-0.0836792,0.02771-0.0993652,0.0796509L8.0056763,12.96521l-0.4251709-0.0004272l-0.3817139-1.5770874   l-0.4367676,1.5770874H6.3247681l-0.5602417-1.7247314c-0.0161743-0.0479126-0.0358276-0.0559692-0.0837402-0.0675659   L5.5098877,11.137085l0.0478516-0.2089844h0.7988281v0.2089844L6.102356,11.168396l0.4448242,1.4325562l0.4569092-1.6160278   h0.4175415l0.3853149,1.6119385L8.24823,11.168396l-0.2582397-0.031311l0.043396-0.2089844H8.78479V11.137085z    M9.7666626,13.0077515c-0.6873779,0-0.9536743-0.4435425-0.9536743-1.0745239c0-0.6234131,0.317749-1.0498657,0.993042-1.0498657   s0.937561,0.430481,0.937561,1.0256958C10.7435913,12.5762939,10.4419556,13.0077515,9.7666626,13.0077515z M12.381958,11.5214844   l-0.2778931-0.0120239l-0.0488281-0.2775269c-0.0044556-0.0321655-0.0125122-0.0397949-0.0487671-0.0397949   c-0.1830444,0-0.3901978,0.1633301-0.4837646,0.2510376v1.1993408c0,0.0640259,0.0040283,0.0756836,0.0648804,0.0797119   l0.3741455,0.0317383v0.2085571h-1.0543213V12.749939l0.1986694-0.0236816   c0.055481-0.0076294,0.0635376-0.0197144,0.0635376-0.0792236v-1.3519897c0-0.0438232-0.012085-0.0715942-0.0519409-0.0836792   l-0.2263794-0.0751343l0.0357666-0.2116699h0.5142212l0.0384521,0.2716064l0.0116577,0.0036011   c0.1329346-0.1467896,0.3320313-0.317749,0.6081543-0.317749c0.0903931,0,0.211731,0.0161133,0.2824097,0.0384521V11.5214844z    M13.3758545,12.9625244h-0.9647827V12.749939l0.246582-0.0236816c0.055481-0.0040283,0.0635376-0.0197144,0.0635376-0.0796509   v-2.315918c0-0.0438843-0.012085-0.0715942-0.0519409-0.0836792l-0.2385254-0.0756836l0.0358276-0.2111816h0.6077271v2.6864624   c0,0.0639648,0.0040283,0.0715942,0.0635376,0.0796509l0.2380371,0.02771V12.9625244z M15.5472412,12.9642944h-0.5535889   l-0.0308228-0.2644653l-0.015686-0.0040283c-0.1821899,0.173645-0.388916,0.3114624-0.6986084,0.3114624   c-0.4528809,0-0.7491455-0.2913208-0.7491455-1.0194092c0-0.7840576,0.3517456-1.105835,0.8283691-1.105835   c0.2385254,0,0.4528809,0.0796509,0.6077271,0.1906128v-0.7455444c0-0.039856-0.015686-0.0679932-0.0514526-0.0796509   l-0.2385254-0.0761108l0.0358276-0.2111816h0.5996704v2.6846313c0,0.0635376,0.0039673,0.0715942,0.0635376,0.0796509   l0.2026978,0.027771V12.9642944z M16.8884888,13.008606c-0.2265015,0-0.4171143-0.055481-0.6037598-0.2183838v0.6900635   c0,0.0640259,0.0040894,0.0756226,0.0635986,0.0796509l0.37323,0.0317993v0.2085571h-1.0203247v-0.2125854l0.1628418-0.0237427   c0.055542-0.0080566,0.067627-0.0196533,0.067627-0.0796509v-2.1901245c0-0.043396-0.012085-0.071167-0.0519409-0.0828247   l-0.2264404-0.0751343l0.0358276-0.2116699h0.520874l0.0353394,0.2250366l0.0116577,0.0040283   c0.2183838-0.1593018,0.4407959-0.2684937,0.7111206-0.2684937c0.444397,0,0.7451172,0.2801514,0.7451172,0.979187   C17.7132568,12.4603882,17.5114136,13.008606,16.8884888,13.008606z M19.7995605,12.9642944h-0.5526733l-0.0353394-0.2595215   l-0.0116577-0.0036011c-0.1901855,0.1763306-0.4116821,0.3052368-0.7164917,0.3052368   c-0.4958496,0-0.5593872-0.3370361-0.5593872-0.5383911c0-0.3947144,0.2461548-0.5808716,0.7227783-0.6202393l0.5334473-0.0438843   v-0.2116699c0-0.2913208-0.055542-0.4349976-0.399231-0.4349976c-0.2412109,0-0.414856,0.0076294-0.4188232,0.3074341   l-0.3419189-0.0362549c0-0.491333,0.4523926-0.5473022,0.763916-0.5473022c0.56073,0,0.7491455,0.15979,0.7491455,0.7111206   v1.0529785c0,0.0631104,0.0040283,0.071167,0.0635376,0.0792236l0.2026978,0.027771V12.9642944z M21.9978027,11.137085   l-0.1347046,0.0192261c-0.0479126,0.0080566-0.0796509,0.0237427-0.0993652,0.067627l-0.9630737,2.3319702l0.3843994,0.0389404   v0.2054443h-1.0740356v-0.2089844l0.2855225-0.0354004c0.0474854-0.00354,0.0631104-0.02771,0.086853-0.0836792   l0.2300415-0.5298462l-0.7133789-1.6983643c-0.0197144-0.0478516-0.0358276-0.0559082-0.083252-0.0675659l-0.1624146-0.0393677   l0.0474243-0.2089844h0.8203125v0.2089844l-0.2613525,0.031311l0.5271606,1.3394775l0.5509033-1.3394775l-0.2694092-0.031311   l0.043396-0.2089844h0.7849731V11.137085z" fill="#303C42"/></g><g/><g/><g/><g/><g/><g/><g/><g/><g/><g/><g/><g/><g/><g/><g/></svg>