<?xml version="1.0" ?><svg enable-background="new 0 0 24 24" id="Layer_1" version="1.1" viewBox="0 0 24 24" xml:space="preserve" xmlns="http://www.w3.org/2000/svg" xmlns:xlink="http://www.w3.org/1999/xlink"><g><path d="M22,3H2C0.8974609,3,0,3.8969727,0,5v14c0,1.1030273,0.8974609,2,2,2h20c1.1025391,0,2-0.8969727,2-2V5   C24,3.8969727,23.1025391,3,22,3z" fill="#303C42"/><path d="M23,19c0,0.5512695-0.4482422,1-1,1H2c-0.5517578,0-1-0.4487305-1-1V5c0-0.5512695,0.4482422-1,1-1h20   c0.5517578,0,1,0.4487305,1,1V19z" fill="#84D2F6"/><path d="M16.2905884,10.7093506c-0.7061157,0-1.1992188,0.5708008-1.1992188,1.2701416v0.010437   c0,0.6993408,0.5030518,1.2803345,1.2095947,1.2803345c0.7060547,0,1.1990356-0.5706787,1.1990356-1.2700806v-0.0101318   C17.5,11.2905273,16.9971313,10.7093506,16.2905884,10.7093506z" fill="#303C42"/><path d="M14.2949219,12.0002441v-0.0101929c0-1.0132446,0.7721558-1.8615723,1.8648071-1.8615723   c0.3671265-0.000061,0.6953735,0.0960693,0.9716187,0.2599487C16.4504395,8.1372681,14.3815308,6.5,11.9347534,6.5   C8.9332886,6.5,6.5,8.9624023,6.5,12.0001831C6.5,15.0377808,8.9332886,17.5,11.9347534,17.5   c2.4588013,0,4.5356445-1.6534424,5.2054443-3.9217529c-0.2806396,0.171936-0.6164551,0.2731934-0.9908447,0.2731934   C15.0568848,13.8514404,14.2949219,13.0133057,14.2949219,12.0002441z M10.6811523,13.7896729H8.1101074v-0.4985352   l1.2243652-1.0543823c0.487793-0.4163818,0.6660156-0.6477661,0.6660156-0.9719849   c0-0.3548584-0.2492065-0.5604248-0.5745239-0.5604248c-0.3250732,0-0.5488892,0.1798096-0.8231201,0.5400391l-0.4421997-0.3497925   c0.3405762-0.4837036,0.6759033-0.7558594,1.3110352-0.7558594c0.6963501,0,1.1738281,0.4320068,1.1738281,1.074707v0.0101929   c0,0.5654907-0.2946167,0.8743286-0.9246826,1.3933716l-0.7321167,0.6174927h1.6924438V13.7896729z M12.8837891,13.2702637   c0.366394,0,0.6216431-0.1276245,0.8744507-0.3380737l0.4164429,0.4122314   c-0.3375854,0.3139038-0.7232666,0.506897-1.3112183,0.506897c-1.0366821,0-1.80896-0.817749-1.80896-1.8511963v-0.0101929   c0-1.0236816,0.7575684-1.8615723,1.8344727-1.8615723c0.6099243,0.000061,0.9943848,0.2015991,1.319397,0.4943848   l-0.4401245,0.4349976c-0.2533569-0.2119141-0.5305176-0.3483887-0.8844604-0.3483887   c-0.6807861,0-1.1735229,0.5656128-1.1735229,1.2701416v0.010437   C11.7102661,12.694397,12.2030029,13.2702637,12.8837891,13.2702637z" fill="#303C42"/><path d="M22,4h-0.5v13.5c0,0.5512695-0.4487305,1-1,1H1V19c0,0.5512695,0.4487305,1,1,1h20   c0.5512695,0,1-0.4487305,1-1V5C23,4.4487305,22.5512695,4,22,4z" fill="#010101" opacity="0.1"/><linearGradient gradientUnits="userSpaceOnUse" id="SVGID_1_" x1="-0.7076151" x2="24.7076149" y1="6.0743418" y2="17.9256592"><stop offset="0" style="stop-color:#FFFFFF;stop-opacity:0.2"/><stop offset="1" style="stop-color:#FFFFFF;stop-opacity:0"/></linearGradient><path d="M22,3H2C0.8974609,3,0,3.8969727,0,5v14c0,1.1030273,0.8974609,2,2,2h20   c1.1025391,0,2-0.8969727,2-2V5C24,3.8969727,23.1025391,3,22,3z" fill="url(#SVGID_1_)"/></g><g/><g/><g/><g/><g/><g/><g/><g/><g/><g/><g/><g/><g/><g/><g/></svg>