<?xml version="1.0" ?><svg enable-background="new 0 0 24 24" id="Layer_1" version="1.1" viewBox="0 0 24 24" xml:space="preserve" xmlns="http://www.w3.org/2000/svg" xmlns:xlink="http://www.w3.org/1999/xlink"><g><path d="M22,3H2C0.8974609,3,0,3.8969727,0,5v14c0,1.1030273,0.8974609,2,2,2h20c1.1025391,0,2-0.8969727,2-2V5   C24,3.8969727,23.1025391,3,22,3z" fill="#303C42"/><path d="M23,19c0,0.5512695-0.4482422,1-1,1H2c-0.5517578,0-1-0.4487305-1-1V5c0-0.5512695,0.4482422-1,1-1h20   c0.5517578,0,1,0.4487305,1,1V19z" fill="#44B3E6"/><path d="M22,4h-0.5v13.5c0,0.5512695-0.4487305,1-1,1H1V19c0,0.5512695,0.4487305,1,1,1h20   c0.5512695,0,1-0.4487305,1-1V5C23,4.4487305,22.5512695,4,22,4z" fill="#010101" opacity="0.1"/><path d="M21.7219238,13.8673706c0.1022949-0.0771484,0.1691284-0.2114868,0.1691284-0.3643799v-0.5578613   c0-0.2393188-0.1653442-0.4332275-0.3695679-0.4332275h-1.0739136c-0.3344727,0-0.5853882,0.1147461-0.769104,0.2891846   c-0.0513916-0.1675415-0.1841431-0.2891846-0.3457642-0.2891846h-1.0730591c-0.2947998,0-0.5286255,0.0859375-0.704834,0.225647   c-0.0634766-0.1323853-0.1803589-0.225647-0.3189697-0.225647h-1.7871094c-0.1444702,0-0.2651367,0.0986938-0.3261108,0.2388306   c-0.0258789-0.0205078-0.0438232-0.0454102-0.0718384-0.0644531c-0.2584229-0.1616821-0.5339966-0.1743774-0.8187866-0.1743774   h-1.2367554c-0.1448975,0-0.2668457,0.0991211-0.3273926,0.2407837c-0.187439-0.1436157-0.451355-0.2407837-0.8262939-0.2407837   h-1.7111206c-0.1031494,0-0.2012329,0.0498047-0.2714233,0.1382446l-0.4053955,0.5119019l-0.3891602-0.5065308   c-0.0697632-0.0918579-0.1695557-0.1436157-0.2752075-0.1436157H6.6355591c-0.2041626,0-0.3699341,0.1934204-0.3699341,0.4332275   v2.621582C6.265625,15.805603,6.4309692,16,6.6355591,16h2.121582c0.1030884,0,0.2012329-0.0508423,0.2713623-0.1392212   l0.4088135-0.5177612l0.3878784,0.5109253c0.0701904,0.0922852,0.1712036,0.1450806,0.2768555,0.1450806h1.0409546   c0.2045898,0,0.3703613-0.1934204,0.3703613-0.4328003v-0.4469604h0.2976685c0.3616333,0,0.6238403-0.0869141,0.8138428-0.2192993   v0.6662598c0,0.2388916,0.1653442,0.4328003,0.3703613,0.4328003h0.538208c0.2041626,0,0.3699341-0.1934204,0.3699341-0.4328003   v-0.5250854h0.2020874c0.0492554,0,0.0839233,0.0019531,0.1085815,0.0039063   c0.0025024,0.0463867,0.0025024,0.1030884,0.0016479,0.1401978v0.3809814c0,0.2388916,0.1653442,0.4328003,0.3703613,0.4328003   h0.5374146c0.0592651,0,0.1131592-0.0200195,0.1628418-0.0488281c0.0492554,0.0297852,0.1039429,0.0488281,0.1636353,0.0488281   h1.7871094c0.0584717,0,0.1115112-0.019043,0.1603394-0.046936c0.0492554,0.0278931,0.1018677,0.046936,0.1607666,0.046936   h1.0430298c0.3327637,0,0.6016846-0.0947876,0.8049927-0.2633057c0.0568237,0.1543579,0.1875,0.2633057,0.340332,0.2633057   h1.0430298c0,0,0.0015869,0,0.0023193,0C21.5488281,15.9990234,22,15.527832,22,14.7397461   c0-0.366333-0.0834961-0.638916-0.2672119-0.8596802C21.7290039,13.8756714,21.7248535,13.8712769,21.7219238,13.8673706z    M11.8114624,14.6879883h-0.6680908v0.8792114H10.102478l-0.659729-0.867981l-0.6856079,0.867981h-2.121582v-2.621582h2.1536865   l0.659729,0.8587646l0.6814575-0.8587646h1.7111206c0,0,0.0015259,0,0.0022583,0   c0.4244385,0,0.9000244,0.1390381,0.9000244,0.8636475C12.7438354,14.5375366,12.279541,14.6879883,11.8114624,14.6879883z    M15.0344849,14.5687866c0.076416,0.1279907,0.0872803,0.2471924,0.0889893,0.4782104v0.5197144h-0.5374146v-0.3277588   c0-0.1577759,0.0129395-0.3912354-0.0864258-0.5133667c-0.0784912-0.09375-0.1975098-0.116272-0.3928833-0.116272H13.534668   v0.9573975h-0.5377808v-2.621582h1.2363281c0.2709961,0,0.4680786,0.0132446,0.6451416,0.1231079   c0.1682739,0.1192017,0.2747192,0.2833252,0.2747192,0.5822754c-0.0007935,0.4195557-0.2400513,0.6329956-0.3803711,0.697998   C14.8912964,14.399292,14.9894409,14.4926147,15.0344849,14.5687866z M17.2366333,13.4868774h-1.2542725v0.4772339h1.2233887   v0.5348511h-1.2233887v0.5211792l1.2542725,0.0029297v0.5436401h-1.7871094v-2.621582h1.7871094V13.4868774z M18.602417,15.5657349   h-1.0430298V15.00354h1.0388794c0.1010742,0,0.1732788-0.0151367,0.2183838-0.0650024   c0.0367432-0.0400391,0.0626221-0.0996094,0.0626221-0.1709595c0-0.0766602-0.0275269-0.1362915-0.0651245-0.1734009   c-0.0409546-0.0400391-0.0968628-0.0581055-0.1907959-0.0581055c-0.5002441-0.019043-1.1278076,0.0180664-1.1278076-0.8108521   c0-0.3809814,0.2037354-0.7805786,0.7657471-0.7805786h1.0731201v0.5578613H18.352356   c-0.0981445,0-0.1611938,0.0048828-0.2146606,0.0473633c-0.0592651,0.0429688-0.0809937,0.1060181-0.0809937,0.1890259   c0,0.0991821,0.0496826,0.1655884,0.1169434,0.1953735c0.0571899,0.0230103,0.1173096,0.0298462,0.2087402,0.0298462   l0.2877197,0.0097656c0.2905884,0.0083008,0.4901733,0.0664063,0.6133423,0.2090454   c0.1044312,0.1260376,0.1607666,0.2862549,0.1607666,0.5553589C19.4442139,15.3024292,19.142334,15.5657349,18.602417,15.5657349z    M20.7911987,15.5657349h-1.0430298V15.00354h1.0384521c0.1010742,0,0.1732788-0.0151367,0.218811-0.0650024   c0.0358887-0.0400391,0.0621948-0.0996094,0.0621948-0.1709595c0-0.0766602-0.0279541-0.1362915-0.0646973-0.1734009   c-0.041748-0.0400391-0.09729-0.0581055-0.1908569-0.0581055c-0.5006104-0.019043-1.1286011,0.0180664-1.1286011-0.8108521   c0-0.3809814,0.2045898-0.7805786,0.7658081-0.7805786h1.0739136v0.5578613h-0.9824829   c-0.0977173,0-0.1611938,0.0048828-0.2150269,0.0473633c-0.0588989,0.0429688-0.0806274,0.1060181-0.0806274,0.1890259   c0,0.0991821,0.0501099,0.1655884,0.1165161,0.1953735c0.0576172,0.0230103,0.1181641,0.0298462,0.2087402,0.0298462   l0.288147,0.0097656c0.2905884,0.0083008,0.4906006,0.0664063,0.6129761,0.2090454   c0.1051636,0.1260376,0.1607056,0.2862549,0.1607056,0.5553589C21.6321411,15.3024292,21.3311157,15.5657349,20.7911987,15.5657349   z" fill="#303C42"/><polygon fill="#303C42" points="16.4274292,8.8792114 16.0595703,9.9240112 16.798645,9.9240112  "/><path d="M12.1567993,9.5078735c0.0689087-0.0424805,0.1102295-0.1348267,0.1102295-0.2491455   c0-0.1123047-0.0430298-0.1934204-0.1123047-0.2315063c-0.0634766-0.0419922-0.1611938-0.0473633-0.2539063-0.0473633h-0.659729   l-0.0004272,0.5817261h0.651001C11.9956055,9.5615845,12.0824585,9.5601196,12.1567993,9.5078735z" fill="#303C42"/><path d="M14.1936035,13.487854h-0.659729v0.5890503h0.6509399c0.1043701,0,0.1932983-0.0043945,0.2651367-0.0541992   c0.0684814-0.0488281,0.1098022-0.1397095,0.1098022-0.2515869c0-0.1118164-0.0413208-0.1934204-0.1106567-0.2359009   C14.3839722,13.4902954,14.2879639,13.487854,14.1936035,13.487854z" fill="#303C42"/><polygon fill="#303C42" points="10.6098022,15.3288574 10.6098022,13.2265015 9.7872314,14.2600708  "/><path d="M11.8415527,13.4873657h-0.6981812v0.6677246h0.6914673h0.0012207   c0.2055664,0,0.3328247-0.1196289,0.3328247-0.3458252C12.1688843,13.5796509,12.0352783,13.4873657,11.8415527,13.4873657z" fill="#303C42"/><polygon fill="#303C42" points="7.1700439,13.487854 7.1700439,13.9645996 8.3453979,13.9645996 8.3453979,14.499939    7.1700439,14.499939 7.1700439,15.0216064 8.486145,15.0216064 9.0982666,14.2512817 8.5124512,13.487854  "/><polygon fill="#303C42" points="3.3499146,9.9240112 4.0802002,9.9240112 3.7139893,8.8792114  "/><path d="M6.8180542,11.4880981c0.1469727,0,0.2789307-0.1011353,0.3381958-0.2579346l0.0709839-0.1856079v0.0107422   c0,0.2388306,0.1653442,0.432312,0.3699341,0.432312h0.5490723c0.0751953,0,0.1407471-0.0332031,0.199585-0.0776978   c0.0584717,0.0444946,0.1240234,0.0776978,0.199585,0.0776978h1.7887573c0.0693359,0,0.1307373-0.0283813,0.1854248-0.0669556   c0.0559692,0.0385742,0.1165161,0.0669556,0.185791,0.0669556h0.5361328c0.2041626,0,0.3699341-0.1939087,0.3699341-0.4328003   v-0.5206909h0.2042236c0.0463257,0,0.0792847,0.0014648,0.1039429,0.003418   c0.0025024,0.0444336,0.0016479,0.097229,0.0016479,0.1323853l-0.0007935,0.0576172l0.0020752,0.3306885   c0.0016479,0.2374268,0.1669922,0.4293823,0.3703613,0.4293823h0.5402832c0.0609741,0,0.1156616-0.0214844,0.1661987-0.0523071   c0.0513306,0.0308228,0.1068726,0.0523071,0.1674194,0.0523071h0.5469971c0.1791382,0,0.321106-0.1514282,0.3557739-0.3487549   c0.3043823,0.2984009,0.7310791,0.3487549,0.9695435,0.3487549h0.6271362c0.1499023,0,0.2860107-0.1074829,0.3415527-0.2711182   l0.109375-0.3140869h0.6171265l0.1131592,0.3184814c0.0584717,0.1611938,0.1925049,0.2662354,0.3415527,0.2662354h1.09021   c0.2037964,0,0.3699951-0.1939087,0.3699951-0.4328003V10.640625l0.3286133,0.6374512   c0.0671997,0.1298828,0.1870117,0.2090454,0.317749,0.2090454h0.7582397c0.2037354,0,0.3699341-0.1939087,0.3699341-0.4328003   v-2.621582C20.4237671,8.1939087,20.2584229,8,20.053833,8h-0.5477905c-0.2046509,0-0.3707886,0.1939087-0.3707886,0.4327393   v0.2706299l-0.2546997-0.4938354c-0.0668335-0.1299438-0.1866455-0.2090454-0.3165283-0.2090454h-0.8154907   c-0.2045898,0-0.3703613,0.1939087-0.3703613,0.4327393v0.3678589l-0.1966553-0.5383301   c-0.0588379-0.1587524-0.1920776-0.2622681-0.3398438-0.2622681h-0.802124c-0.0818481,0-0.1591187,0.03125-0.2213135,0.0859375   c-0.0613403-0.0541992-0.1386108-0.0859375-0.2208862-0.0859375h-0.5181885c-0.439209,0-0.7657471,0.125-1.0054321,0.3677979   c-0.0271606-0.206604-0.1741333-0.3677979-0.3590698-0.3677979h-0.5465698c-0.145752,0-0.2693481,0.1010742-0.3294678,0.2437134   c-0.0229492-0.0195313-0.0413208-0.0424805-0.0667725-0.0605469c-0.25177-0.1699829-0.5152588-0.1831665-0.8338623-0.1831665   h-1.2317505c-0.0693359,0-0.1303101,0.0283203-0.185791,0.0668945c-0.0547485-0.0385742-0.1160889-0.0668945-0.1854248-0.0668945   H8.5462646c-0.0755615,0-0.1411133,0.0327148-0.199585,0.0776367C8.2877808,8.0332031,8.222229,8.0004883,8.1470947,8.0004883   H7.2543945c-0.1478271,0-0.2822876,0.1040039-0.3399048,0.2642212L6.5963135,9.1420288L6.2460327,8.2520142   C6.1850586,8.0991211,6.0535278,8.0004883,5.9098511,8.0004883H5.0350952c-0.2045898,0-0.3699341,0.1939087-0.3699341,0.4327393   v0.3766479L4.4643555,8.2617798C4.4054565,8.1030273,4.2722778,8,4.1240234,8H3.3290405   c-0.1482544,0-0.2822876,0.1035156-0.340332,0.2622681l-0.9586792,2.621582   c-0.0492554,0.1333618-0.0371704,0.2867432,0.0308838,0.4088745c0.0684814,0.1210938,0.1845703,0.194397,0.309021,0.194397   h0.5820313c0.1486816,0,0.2839355-0.1055298,0.3407593-0.2667236l0.1130981-0.3184814h0.6204834l0.1115112,0.3165283   c0.0571899,0.1621704,0.1920776,0.2681885,0.3424072,0.2681885h1.0893555c0.2041626,0,0.3699341-0.1939087,0.3699341-0.4328003   v-0.0102539l0.0701294,0.1860962c0.0588989,0.1572876,0.1916504,0.2584229,0.3378296,0.2584229H6.8180542z M14.2641602,8.7390137   c0.1724243-0.2090454,0.4442749-0.3052979,0.8133545-0.3052979h0.5181885v0.5617676h-0.5073242   c-0.1966553,0-0.3064575,0.0341797-0.4125366,0.1553345c-0.0914307,0.1103516-0.1536865,0.3184814-0.1536865,0.5939331   c0,0.2803955,0.046814,0.4830933,0.1473999,0.6149902c0.0822754,0.1040649,0.2334595,0.1353149,0.373291,0.1353149h0.2401123   l0.7565918-2.0613403h0.802124l0.9068604,2.4794312V8.4337158h0.8154907l0.9420166,1.8258667V8.4337158h0.5477905v2.621582   h-0.7582397l-1.0163574-1.9675293v1.9675293h-1.09021l-0.2087402-0.5846558h-1.1123657l-0.2012329,0.5846558h-0.6271362   c-0.2609863-0.0004883-0.5904541-0.0678711-0.7766724-0.2901611c-0.1887207-0.2227173-0.2872925-0.5245972-0.2872925-1.0008545   C13.9755859,9.3754883,14.0344849,9.0198975,14.2641602,8.7390137z M15.272522,9.4282227l-0.2321777,0.6345215   c-0.0517578,0-0.0864258-0.0068359-0.1052246-0.0126953c-0.0179443-0.0390625-0.0426025-0.1255493-0.0426025-0.3052979   c0-0.1817017,0.0375977-0.2759399,0.0426025-0.2843018c0.0151978-0.0167847,0.0279541-0.0322266,0.1488037-0.0322266   c0.0018311,0,0.0037842,0,0.0056763,0H15.272522z M13.1668091,8.4337158h0.5465698v2.621582h-0.5465698V8.4337158z    M10.7053833,8.4332275h1.2317505c0.2734985,0,0.4751587,0.0083008,0.6488647,0.1255493   c0.1687012,0.1172485,0.2705688,0.288208,0.2705688,0.5808105c0,0.4176025-0.2379761,0.6339722-0.3774414,0.6984863   c0.1173096,0.0522461,0.2175293,0.1445923,0.2651367,0.2207642c0.0759888,0.1304321,0.0889282,0.2467041,0.0889282,0.4806519   v0.5153198h-0.5402832l-0.0025024-0.3306885c0-0.1577759,0.0129395-0.3843994-0.0843506-0.510437   c-0.078064-0.0918579-0.1975098-0.1118774-0.3903809-0.1118774h-0.5741577v0.9530029h-0.5361328V8.4332275z M8.5449829,8.4332275   h1.7888184v0.5461426h-1.253479v0.47229h1.2238159v0.5373535H9.0803223v0.5236206h1.253479v0.5421753H8.5449829V8.4332275z    M5.5695801,9.0003662v2.0549316H4.4797974l-0.2058716-0.5846558H3.1590576l-0.2078857,0.5846558h-0.581665l0.9591064-2.621582   h0.7949829l0.911499,2.4823608V8.4337158h0.8743896l0.7010498,1.7785034l0.6434326-1.7785034h0.8927002v2.621582H7.5975952   L7.59552,9.0023193l-0.7766724,2.0529785l-0.4713745-0.0004883L5.5695801,9.0003662z" fill="#303C42"/><linearGradient gradientUnits="userSpaceOnUse" id="SVGID_1_" x1="-0.7076151" x2="24.7076149" y1="6.0743418" y2="17.9256592"><stop offset="0" style="stop-color:#FFFFFF;stop-opacity:0.2"/><stop offset="1" style="stop-color:#FFFFFF;stop-opacity:0"/></linearGradient><path d="M22,3H2C0.8974609,3,0,3.8969727,0,5v14c0,1.1030273,0.8974609,2,2,2h20   c1.1025391,0,2-0.8969727,2-2V5C24,3.8969727,23.1025391,3,22,3z" fill="url(#SVGID_1_)"/></g><g/><g/><g/><g/><g/><g/><g/><g/><g/><g/><g/><g/><g/><g/><g/></svg>