<?xml version="1.0" ?><svg enable-background="new 0 0 24 24" id="Layer_1" version="1.1" viewBox="0 0 24 24" xml:space="preserve" xmlns="http://www.w3.org/2000/svg" xmlns:xlink="http://www.w3.org/1999/xlink"><g><path d="M22,3H2C0.8974609,3,0,3.8969727,0,5v14c0,1.1030273,0.8974609,2,2,2h20c1.1025391,0,2-0.8969727,2-2V5   C24,3.8969727,23.1025391,3,22,3z" fill="#303C42"/><path d="M23,19c0,0.5512695-0.4482422,1-1,1H2c-0.5517578,0-1-0.4487305-1-1V5c0-0.5512695,0.4482422-1,1-1h20   c0.5517578,0,1,0.4487305,1,1V19z" fill="#FDD837"/><path d="M4.4899902,11.3636475l-0.1092529,0.4381714c0.1239014,0.0308838,0.5058594,0.1568604,0.567749-0.0910645   C5.0128784,11.4521484,4.6138916,11.3945313,4.4899902,11.3636475z" fill="#303C42"/><path d="M4.9837036,10.0598145c-1.0714111-0.2670898-2.1567383,0.3850098-2.4237671,1.456543   c-0.267334,1.0714111,0.3848267,2.1566162,1.4561157,2.4237671c1.0717163,0.2671509,2.1571045-0.3848877,2.4242554-1.4562988   C6.7074585,11.4122925,6.0553589,10.3269653,4.9837036,10.0598145z M5.3034668,12.5692139   c-0.1184692,0.338501-0.3999023,0.3670654-0.7741089,0.2962036l-0.0908813,0.3640137l-0.2194214-0.0546875l0.0895996-0.3591309   C4.25177,12.8015137,4.1936646,12.786499,4.1337891,12.7702637l-0.0899658,0.3607788L3.824585,13.076355l0.0908203-0.3646851   c-0.0512085-0.0131226-0.1033325-0.0270996-0.1564331-0.0404053l-0.2855835-0.071167l0.1089478-0.2512207   c0,0,0.1616821,0.0429688,0.1594849,0.0397949c0.0621338,0.0153809,0.0897217-0.0251465,0.1005859-0.052124l0.1435547-0.5753784   c0.0080566,0.0018921,0.0158691,0.0039063,0.0231934,0.0057373c-0.0087891-0.00354-0.0167236-0.0057373-0.0228271-0.0073242   l0.102356-0.4107666c0.0026855-0.0466309-0.0133667-0.1054688-0.1022339-0.1276245   c0.003418-0.0023193-0.1594238-0.0396118-0.1594238-0.0396118l0.0584106-0.234436l0.3026733,0.0755615l-0.0002441,0.0011597   c0.0454712,0.0112915,0.0923462,0.0220337,0.1401367,0.0328979l0.0899658-0.3604126l0.2192993,0.0546875l-0.0881348,0.3533936   c0.0588989,0.0134277,0.1181641,0.0269775,0.1758423,0.0413818l0.0875168-0.3510742l0.2194901,0.0546875L4.9420776,11.210022   c0.2770996,0.0953979,0.4797974,0.2385254,0.4399414,0.5046997c-0.0288086,0.1948242-0.1368408,0.2891235-0.2802124,0.3222046   C5.2987061,12.1394653,5.3989258,12.2966919,5.3034668,12.5692139z" fill="#303C42"/><path d="M4.3256226,12.0230103l-0.1205444,0.4830933c0.1488037,0.0369873,0.607666,0.1843262,0.6754761-0.0882568   C4.9514771,12.133606,4.4743652,12.0601196,4.3256226,12.0230103z" fill="#303C42"/><path d="M8.9696655,11.5419312c-0.0780029-0.097168-0.1751709-0.1744995-0.2929688-0.2318115   c-0.1171875-0.0568237-0.2566528-0.0857544-0.4181519-0.0857544c-0.0771484,0-0.149292,0.008728-0.2165527,0.0254517   c-0.0671997,0.0169678-0.1345215,0.0402832-0.201355,0.0704346l0.3121338-1.2999268l-0.7808228,0.1210327l-0.8717651,3.6630859   c0.0974731,0.0471802,0.2009888,0.0842896,0.3099976,0.1108398c0.1090698,0.0269775,0.2123413,0.0471191,0.3100586,0.060791   c0.0970459,0.0131226,0.1837158,0.020874,0.2590942,0.0224609c0.0754395,0.0015259,0.1288452,0.0023804,0.1591797,0.0023804   c0.2348022,0,0.4534912-0.0445557,0.6546631-0.133606c0.2014771-0.0890503,0.3761597-0.2095337,0.5241089-0.3624268   c0.1480713-0.1530762,0.2644653-0.3325195,0.3502808-0.5393677c0.0858154-0.206543,0.1282959-0.4257202,0.1282959-0.6576538   c0-0.151001-0.0184326-0.2920532-0.0551147-0.4232788C9.1037598,11.7537842,9.0465698,11.6395874,8.9696655,11.5419312z    M8.3847656,12.741333c-0.0435181,0.1209106-0.1032715,0.229126-0.1787109,0.3251343   c-0.0755005,0.0956421-0.1655884,0.1724243-0.2699585,0.2293091c-0.104126,0.0567627-0.2149048,0.0856934-0.3325195,0.0856934   c-0.0368652,0-0.0666504-0.000061-0.0905151-0.000061c-0.0238037,0-0.0435181-0.0009766-0.060791-0.0029297   c-0.0162964-0.0016479-0.0326538-0.0040894-0.0474854-0.0075073c-0.0150757-0.0031738-0.0328369-0.0065308-0.0528564-0.0100708   l0.3323364-1.3804932c0.060791-0.0534058,0.1286011-0.0889282,0.2044067-0.1060791   c0.0755615-0.0161133,0.1364746-0.0251465,0.1837158-0.0251465c0.1442871,0,0.2436523,0.0455933,0.2973633,0.1361084   c0.0536499,0.0908813,0.0806274,0.2166138,0.0806274,0.3778076C8.4503784,12.4943237,8.4283447,12.6204834,8.3847656,12.741333z" fill="#303C42"/><path d="M10.3685303,10.9576416c0.0704346,0,0.1365356-0.0128784,0.1989136-0.0401001   c0.0618286-0.0269165,0.1168823-0.0628662,0.1636353-0.1080933c0.0471802-0.0455322,0.0847778-0.0991211,0.1132202-0.1613159   c0.0286255-0.0622559,0.0429077-0.12854,0.0429077-0.1992188c0-0.1273804-0.0421753-0.2224121-0.1259155-0.28479   c-0.0840454-0.0620728-0.1779175-0.0930786-0.2819214-0.0930786c-0.0706787,0-0.1370239,0.0133667-0.1993408,0.0401001   c-0.0620117,0.0272217-0.1165771,0.0632935-0.1636353,0.1084595c-0.0471802,0.0455322-0.0848389,0.0991211-0.1136475,0.1613159   c-0.0283813,0.0623779-0.0426636,0.128418-0.0426636,0.1988525c0,0.1280518,0.0418091,0.2230835,0.1262207,0.28479   C10.1700439,10.9266357,10.2644653,10.9576416,10.3685303,10.9576416z" fill="#303C42"/><polygon fill="#303C42" points="9.2598267,13.9307861 10.0056152,13.9307861 10.640564,11.2805176 9.8896484,11.2805176  "/><path d="M11.7374268,11.8950195h0.831543l0.151062-0.614624h-0.8365479l0.1917725-0.781189l-0.7811279,0.1210327   l-0.4940796,2.0859375c-0.0402222,0.1713867-0.0635376,0.3340454-0.0704346,0.4888306   c-0.0067139,0.1544189,0.0171509,0.2915039,0.0704346,0.4104004c0.0540771,0.1193237,0.1444092,0.213623,0.2722168,0.2825928   c0.1279907,0.0684814,0.3076172,0.1029053,0.5393066,0.1029053c0.1611328,0,0.3005981-0.0130615,0.418335-0.0401611   c0.1176147-0.0267944,0.2267456-0.0585938,0.3275146-0.09552l-0.055603-0.574646   c-0.0772705,0.0271606-0.1536255,0.0479736-0.2289429,0.0629272c-0.0758057,0.0151367-0.1541748,0.0228271-0.2346191,0.0228271   c-0.0977173,0-0.1721802-0.0136719-0.2241821-0.0407104c-0.0522461-0.0266113-0.0883179-0.06427-0.1083374-0.1130981   c-0.0201416-0.0487061-0.0286865-0.1065674-0.0250244-0.1739502c0.0032349-0.0670776,0.0148315-0.1392822,0.0352173-0.2165527   L11.7374268,11.8950195z" fill="#303C42"/><path d="M14.2745972,11.8444824c0.104248,0,0.1923218,0.0106812,0.2644653,0.0328979   c0.0721436,0.0217896,0.1419067,0.0457764,0.2091064,0.0730591l0.2572021-0.5848389   c-0.0977783-0.046936-0.2058105-0.0842896-0.3253174-0.1132202c-0.1189575-0.0286865-0.2541504-0.0430298-0.4055176-0.0430298   c-0.2418213,0-0.4612427,0.0439453-0.6572876,0.1310425c-0.1968994,0.0875854-0.3641968,0.2069092-0.5015259,0.3575439   c-0.1378174,0.1513672-0.2440186,0.3277588-0.317749,0.52948c-0.0738525,0.2015381-0.1107788,0.4168091-0.1107788,0.6450806   c0,0.1508789,0.0214233,0.2954712,0.0633545,0.4331055c0.0419312,0.1377563,0.1097412,0.2577515,0.2041626,0.3605347   c0.0939941,0.1025391,0.2132568,0.1834717,0.357605,0.2444458c0.1442871,0.0600586,0.3206177,0.0905151,0.5289917,0.0905151   c0.1578369,0,0.2940063-0.0144653,0.4083252-0.0424194c0.1141357-0.0289307,0.2181396-0.0619507,0.3125-0.0985718   l-0.0557251-0.5994873c-0.0707397,0.0299683-0.151062,0.0553589-0.2420044,0.0755005   c-0.090271,0.0199585-0.1845093,0.0301514-0.2822266,0.0301514c-0.197876,0-0.3342285-0.0527344-0.40802-0.1586914   c-0.0741577-0.105957-0.111145-0.2444458-0.111145-0.4157104c0-0.2890015,0.0734863-0.5194092,0.2194214-0.6905518   C13.8288574,11.9302979,14.0256958,11.8444824,14.2745972,11.8444824z" fill="#303C42"/><path d="M17.2324219,11.5169678c-0.0861816-0.097168-0.1951904-0.1731567-0.3275146-0.2267456   c-0.1329346-0.0536499-0.2867432-0.0808716-0.4615479-0.0808716c-0.2381592,0-0.4501953,0.0513916-0.6345215,0.1535645   c-0.1845703,0.1028442-0.3412476,0.2347412-0.4683228,0.3960571c-0.1280518,0.1611328-0.2247925,0.3423462-0.289978,0.5440674   c-0.0655518,0.2012329-0.0979614,0.4030762-0.0979614,0.6049805c0,0.1609497,0.0211792,0.3078613,0.0651245,0.4404907   c0.0440063,0.1327515,0.1082153,0.2478638,0.1940308,0.3450928c0.0856934,0.0976563,0.1939697,0.1729736,0.3247681,0.2266846   c0.1311646,0.0537109,0.2857666,0.0808105,0.4637451,0.0808105c0.2453003,0,0.4613037-0.0513916,0.647583-0.1537476   c0.1865234-0.102417,0.3417969-0.2342529,0.4660034-0.3953857c0.1244507-0.161438,0.218689-0.3430786,0.2822266-0.5440063   c0.0634766-0.2019043,0.095459-0.4037476,0.095459-0.6049805c0-0.1610718-0.0216675-0.3083496-0.0655518-0.4407349   C17.3824463,11.7293091,17.317627,11.614624,17.2324219,11.5169678z M16.7036133,12.7086182   c-0.0288086,0.1159668-0.0717773,0.2227783-0.1289063,0.3200073c-0.057312,0.0974121-0.1279297,0.1781006-0.2114258,0.2417603   c-0.0841675,0.0640869-0.1813965,0.0959473-0.2923584,0.0959473c-0.1411743,0-0.2382813-0.0471802-0.2923584-0.1409302   c-0.0532837-0.0942383-0.0804443-0.2252197-0.0804443-0.3934326c0-0.104187,0.0140381-0.2138672,0.0426025-0.329895   c0.0288086-0.1157837,0.0714111-0.22229,0.1289063-0.3200073c0.0568237-0.097229,0.1273804-0.1778564,0.2114258-0.2420044   c0.0836792-0.0634155,0.1813965-0.09552,0.2919312-0.09552c0.1410522,0,0.2386475,0.0471802,0.2923584,0.1409302   c0.053833,0.0941162,0.0808716,0.2254028,0.0808716,0.3931274C16.7462158,12.482666,16.7318115,12.5929565,16.7036133,12.7086182z" fill="#303C42"/><path d="M18.6665039,10.9576416c0.0708008,0,0.1370239-0.0128784,0.1995239-0.0401001   c0.0619507-0.0269165,0.116333-0.0628662,0.1635742-0.1080933c0.0469971-0.0455322,0.0848999-0.0991211,0.1130981-0.1613159   c0.0281372-0.0622559,0.0432129-0.12854,0.0432129-0.1992188c0-0.1273804-0.0423584-0.2224121-0.1262817-0.28479   c-0.0838623-0.0620728-0.1781006-0.0930786-0.2823486-0.0930786c-0.0704346,0-0.1367798,0.0133667-0.1987305,0.0401001   c-0.0618286,0.0272217-0.1168823,0.0632935-0.1637573,0.1084595c-0.0471802,0.0455322-0.085022,0.0991211-0.1134644,0.1613159   c-0.0284424,0.0623779-0.0429688,0.128418-0.0429688,0.1988525c0,0.1280518,0.0422363,0.2230835,0.1262207,0.28479   C18.4682007,10.9266357,18.5624924,10.9576416,18.6665039,10.9576416z" fill="#303C42"/><polygon fill="#303C42" points="18.187561,11.2805176 17.5577393,13.9307861 18.3041992,13.9307861 18.9388428,11.2805176  "/><path d="M20.5441284,11.2194214c-0.1338501,0-0.2542725,0.0058594-0.3599854,0.0178833   c-0.1057129,0.0117798-0.2018433,0.0269165-0.2869873,0.0456543c-0.0861206,0.0181885-0.163208,0.0383301-0.2322388,0.0599976   c-0.0687256,0.0216675-0.131958,0.0415649-0.1885376,0.0581055L18.866333,13.930481h0.7509766l0.4888916-2.0505981   c0.1009521-0.0201416,0.1998901-0.0306396,0.2971191-0.0306396c0.1008301,0,0.1752319,0.0194092,0.2244263,0.0578613   c0.0484619,0.0391846,0.0797119,0.0896606,0.0929565,0.1514282c0.013855,0.062439,0.0145264,0.1346436,0.0026855,0.2164917   c-0.0117798,0.0826416-0.02771,0.1671753-0.0479736,0.2546387l-0.3325195,1.4008789h0.7507324l0.3430786-1.4309692   c0.0970459-0.3961792,0.071167-0.7088013-0.0784302-0.9371948C21.2086182,11.3339844,20.937439,11.2194214,20.5441284,11.2194214z" fill="#303C42"/><path d="M22,4h-0.5v13.5c0,0.5512695-0.4487305,1-1,1H1V19c0,0.5512695,0.4487305,1,1,1h20   c0.5512695,0,1-0.4487305,1-1V5C23,4.4487305,22.5512695,4,22,4z" fill="#010101" opacity="0.1"/><linearGradient gradientUnits="userSpaceOnUse" id="SVGID_1_" x1="-0.7076151" x2="24.7076149" y1="6.0743418" y2="17.9256592"><stop offset="0" style="stop-color:#FFFFFF;stop-opacity:0.2"/><stop offset="1" style="stop-color:#FFFFFF;stop-opacity:0"/></linearGradient><path d="M22,3H2C0.8974609,3,0,3.8969727,0,5v14c0,1.1030273,0.8974609,2,2,2h20   c1.1025391,0,2-0.8969727,2-2V5C24,3.8969727,23.1025391,3,22,3z" fill="url(#SVGID_1_)"/></g><g/><g/><g/><g/><g/><g/><g/><g/><g/><g/><g/><g/><g/><g/><g/></svg>