<?xml version="1.0" ?><svg enable-background="new 0 0 24 24" id="Layer_1" version="1.1" viewBox="0 0 24 24" xml:space="preserve" xmlns="http://www.w3.org/2000/svg" xmlns:xlink="http://www.w3.org/1999/xlink"><g><path d="M22,3H2C0.8974609,3,0,3.8969727,0,5v14c0,1.1030273,0.8974609,2,2,2h20c1.1025391,0,2-0.8969727,2-2V5   C24,3.8969727,23.1025391,3,22,3z" fill="#303C42"/><path d="M23,19c0,0.5512695-0.4482422,1-1,1h-1.3619995L1,8.2171631V5c0-0.5512695,0.4482422-1,1-1h20   c0.5517578,0,1,0.4487305,1,1V19z" fill="#1B87C9"/><path d="M10.9986572,9.9102173c0.3934326,0,0.7805176,0,1.1671143,0c0-0.2096558,0-0.4047852,0-0.6139526   c-0.3938599,0-0.7813721,0-1.1661987,0c0-0.0986938,0-0.1819458,0-0.2756958c0.4291992,0,0.850647,0,1.2757568,0   c0-0.230896,0-0.4504395,0-0.6696167c-0.703064,0-1.3984375,0-2.0929565,0c0,0.8357544,0,1.6615601,0,2.491394   c0.7171631,0,1.4265747,0,2.1400757,0c0-0.2182007,0-0.4282837,0.0004272-0.6569214c-0.4495239,0-0.8864136,0-1.3242188,0   C10.9986572,10.0913086,10.9986572,10.0079956,10.9986572,9.9102173z" fill="#303C42"/><path d="M14.4865112,10.192688c0-0.6260986,0-1.2332153,0-1.8425903c-0.2752686,0-0.5396729,0-0.8054199,0   c0,0.8356934,0,1.6619263,0,2.4918213c0.6428833,0,1.2785034,0,1.9168701,0   c-0.0009155-0.218689-0.0009155-0.428772-0.0009155-0.649231C15.2294312,10.192688,14.8672485,10.192688,14.4865112,10.192688z" fill="#303C42"/><path d="M16.357605,9.0273438c0.2304688,0,0.451416,0,0.6827393,0   c-0.0009155,0.609375-0.0009155,1.2097168-0.0009155,1.815918c0.2807007,0,0.5428467,0,0.8198853,0   c0-0.6098022,0-1.2119751,0-1.8249512c0.2431641,0,0.4713135,0,0.6995239,0c0-0.2313232,0-0.451355,0-0.6696167   c-0.7402344,0-1.4691162,0-2.2012329,0C16.357605,8.576416,16.357605,8.7964478,16.357605,9.0273438z" fill="#303C42"/><path d="M8.2288208,8.4528198C8.0436401,8.3709106,7.8476563,8.3486938,7.651123,8.34375   C7.496521,8.3399658,7.3417358,8.3388062,7.1868896,8.3388062c-0.2160645,0-0.432312,0.0021973-0.6485596,0.0021973   c-0.0389404,0-0.0783081,0-0.1231079,0c0,0.8407593,0,1.6669922,0,2.5095215c0.0511475,0,0.0914307,0,0.1317139,0   c0.2105103,0,0.4209595,0.0016479,0.6315308,0.0016479c0.1381836,0,0.2764282-0.0007324,0.4147339-0.0030518   c0.1344604-0.0026855,0.2716675-0.0162964,0.4020386-0.0466309c0.3232422-0.0737915,0.5799561-0.2476196,0.7211914-0.5549927   C8.876709,9.8984375,8.8875732,9.5330811,8.7929077,9.1654663C8.7109985,8.8458252,8.5439453,8.5918579,8.2288208,8.4528198z    M7.9318237,9.9694824c-0.1256714,0.2012329-0.3153076,0.22229-0.5145874,0.22229   c-0.0526733,0-0.105957-0.0014648-0.1589966-0.0014648c-0.008606,0-0.0172119,0-0.0258789,0.0001221   c0-0.3893433,0-0.7696533,0-1.1594238C7.2998657,9.0254517,7.3671265,9.020752,7.4326172,9.020752   c0.2006836,0,0.3846436,0.0438232,0.5078125,0.2397461C8.0839844,9.4891357,8.0744629,9.7408447,7.9318237,9.9694824z" fill="#303C42"/><polygon fill="#F8BC3C" points="10,19.6171875 2.3046875,15 10,15  "/><polygon fill="#F3F3F3" points="3.6953125,17 1,17 1,15.3828125  "/><polygon fill="#AE1F2C" points="5,18 5,19.6171875 2.3046875,18  "/><polygon fill="#F3F3F3" points="6,18.3828125 8.6953125,20 6,20  "/><polygon fill="#F3F3F3" points="11,15.3828125 18.6953125,20 11,20  "/><polygon fill="#F3F3F3" points="1,14 1,9.3828125 8.6953125,14  "/><path d="M1,19v-0.6171875L3.6953125,20H2C1.4482422,20,1,19.5512695,1,19z" fill="#F3F3F3"/><path d="M22,20c0.5517578,0,1-0.4487305,1-1V5c0-0.5512695-0.4482422-1-1-1h-0.5v13.5   c0,0.5512695-0.4487305,1-1,1h-2.3619995l2.5,1.5H22z" fill="#010101" opacity="0.1"/><polygon fill="#010101" opacity="0.1" points="10,18.5 8.1380005,18.5 10,19.6171875  "/><polygon fill="#010101" opacity="0.1" points="5,18.5 3.1380005,18.5 5,19.6171875  "/><polygon fill="#010101" opacity="0.1" points="8.6953125,20 6.1953125,18.5 6,18.5 6,20  "/><polygon fill="#010101" opacity="0.1" points="18.6953125,20 16.1953125,18.5 11,18.5 11,20  "/><path d="M2,20h1.6953125l-2.5-1.5H1V19C1,19.5512695,1.4482422,20,2,20z" fill="#010101" opacity="0.1"/><path d="M21.1090088,8.4188843c-0.0217285-0.0564575-0.0474243-0.0788574-0.1079102-0.0788574   c-0.0010986,0-0.0022583,0-0.003418,0.000061c-0.1083374,0.0020142-0.2164307,0.0038452-0.3244629,0.0038452   c-0.0888062,0-0.1774902-0.0012207-0.2663574-0.0046997c-0.0044556-0.0002441-0.0087891-0.0003052-0.0129395-0.0003052   c-0.0784912,0-0.1157227,0.0360718-0.1419067,0.1052856c-0.0447998,0.1227417-0.0910034,0.2458496-0.1376343,0.3690186   c-0.1919556,0.5088501-0.3848267,1.0168457-0.5754395,1.526123c-0.0615845,0.1652832-0.1190796,0.3327637-0.1828613,0.5111694   c0.1195068,0,0.2352295,0.0004272,0.348877,0.0004272c0.1365967,0,0.2701416-0.0006714,0.4035645-0.0036011   c0.0294189-0.0004883,0.0710449-0.0348511,0.0841675-0.0634155c0.0394287-0.0927734,0.0692749-0.1905518,0.1036987-0.2901611   c0.0994873,0,0.1980591-0.0003662,0.2958984-0.0003662c0.1337891,0,0.2662964,0.0006104,0.3985596,0.00354   c0.0285645,0.0004272,0.0679321,0.0361938,0.0787964,0.0646973c0.0299072,0.0742798,0.043457,0.1544189,0.0715332,0.229126   c0.0095215,0.0244141,0.0430298,0.0565796,0.0665283,0.0565796c0.1429443,0.0025024,0.2861938,0.0030518,0.4318237,0.0030518   c0.1182251,0,0.2379761-0.0003662,0.3604736-0.0003662c-0.0126953-0.0502319-0.019043-0.0823975-0.0303345-0.1127319   C21.684021,9.9645386,21.3951416,9.1921387,21.1090088,8.4188843z M20.4697876,9.940979   c0.0719604-0.2258911,0.1416626-0.4423218,0.2177734-0.680481c0.0706177,0.2363281,0.1353149,0.451416,0.2041626,0.680481   C20.7495728,9.940979,20.6205444,9.940979,20.4697876,9.940979z" fill="#303C42"/><linearGradient gradientUnits="userSpaceOnUse" id="SVGID_1_" x1="-0.7076151" x2="24.7076149" y1="6.0743418" y2="17.9256592"><stop offset="0" style="stop-color:#FFFFFF;stop-opacity:0.2"/><stop offset="1" style="stop-color:#FFFFFF;stop-opacity:0"/></linearGradient><path d="M22,3H2C0.8974609,3,0,3.8969727,0,5v14c0,1.1030273,0.8974609,2,2,2h20   c1.1025391,0,2-0.8969727,2-2V5C24,3.8969727,23.1025391,3,22,3z" fill="url(#SVGID_1_)"/></g><g/><g/><g/><g/><g/><g/><g/><g/><g/><g/><g/><g/><g/><g/><g/></svg>