<?xml version="1.0" ?><svg enable-background="new 0 0 24 24" id="Layer_1" version="1.1" viewBox="0 0 24 24" xml:space="preserve" xmlns="http://www.w3.org/2000/svg" xmlns:xlink="http://www.w3.org/1999/xlink"><g><path d="M22,3H2C0.8969727,3,0,3.8969727,0,5v14c0,1.1030273,0.8969727,2,2,2h20c1.1030273,0,2-0.8969727,2-2V5   C24,3.8969727,23.1030273,3,22,3z" fill="#303C42"/><path d="M23,19c0,0.5512695-0.4487305,1-1,1H2c-0.5512695,0-1-0.4487305-1-1V5c0-0.5512695,0.4487305-1,1-1h20   c0.5512695,0,1,0.4487305,1,1V19z" fill="#44B3E6"/><path d="M6.5,12c0,1.7584839,1.3083496,3.2042236,3,3.4494629V8.5505371C7.8083496,8.7957764,6.5,10.2415161,6.5,12   z" fill="#303C42"/><path d="M10.5,8.5505371v6.8989258c1.6916504-0.2452393,3-1.690979,3-3.4494629   S12.1916504,8.7957764,10.5,8.5505371z" fill="#303C42"/><path d="M14,7h-4c-2.7614136,0-5,2.2385864-5,5s2.2385864,5,5,5h4c2.7614136,0,5-2.2385864,5-5S16.7614136,7,14,7z    M10,16.5c-2.4814453,0-4.5-2.0185547-4.5-4.5S7.5185547,7.5,10,7.5s4.5,2.0185547,4.5,4.5S12.4814453,16.5,10,16.5z" fill="#303C42"/><path d="M22,4h-0.5v13.5c0,0.5512695-0.4487305,1-1,1H1V19c0,0.5512695,0.4487305,1,1,1h20   c0.5512695,0,1-0.4487305,1-1V5C23,4.4487305,22.5512695,4,22,4z" fill="#010101" opacity="0.1"/><linearGradient gradientUnits="userSpaceOnUse" id="SVGID_1_" x1="-0.7076802" x2="24.7076797" y1="6.0743113" y2="17.9256878"><stop offset="0" style="stop-color:#FFFFFF;stop-opacity:0.2"/><stop offset="1" style="stop-color:#FFFFFF;stop-opacity:0"/></linearGradient><path d="M22,3H2C0.8969727,3,0,3.8969727,0,5v14c0,1.1030273,0.8969727,2,2,2h20   c1.1030273,0,2-0.8969727,2-2V5C24,3.8969727,23.1030273,3,22,3z" fill="url(#SVGID_1_)"/></g><g/><g/><g/><g/><g/><g/><g/><g/><g/><g/><g/><g/><g/><g/><g/></svg>