<?xml version="1.0" ?><svg enable-background="new 0 0 24 24" id="Layer_1" version="1.1" viewBox="0 0 24 24" xml:space="preserve" xmlns="http://www.w3.org/2000/svg" xmlns:xlink="http://www.w3.org/1999/xlink"><g><path d="M22,3H2C0.8969727,3,0,3.8969727,0,5v14c0,1.1030273,0.8969727,2,2,2h20c1.1030273,0,2-0.8969727,2-2V5   C24,3.8969727,23.1030273,3,22,3z" fill="#303C42"/><path d="M23,19c0,0.5512695-0.4487305,1-1,1H2c-0.5512695,0-1-0.4487305-1-1V5c0-0.5512695,0.4487305-1,1-1h20   c0.5512695,0,1,0.4487305,1,1V19z" fill="#E0E0E0"/><rect fill="#303C42" height="1.5581665" width="0.447876" x="13.5528564" y="10.4168091"/><polygon fill="#303C42" points="17.5370483,11.6950684 16.7159424,11.6950684 16.7159424,11.3591309 17.4624023,11.3591309    17.4624023,11.0698853 16.7159424,11.0698853 16.7159424,10.715332 17.52771,10.715332 17.52771,10.4168091 16.2587891,10.4168091    16.2587891,11.9749756 17.5370483,11.9749756  "/><path d="M12.395874,12.3668823h-0.9330444v1.5395508h0.9517212c0,0,0.8864136-0.0933228,0.895752-0.7185059   C13.3196411,12.3482056,12.395874,12.3668823,12.395874,12.3668823z M12.2186279,13.6171875h-0.298584v-1.0357056h0.2612305   c0,0,0.6531372,0.0466309,0.6531372,0.522522C12.8344116,13.579834,12.2186279,13.6171875,12.2186279,13.6171875z" fill="#303C42"/><path d="M12.395874,10.4261475h-0.9330444v1.5394897h0.9517212c0,0,0.8864136-0.0932617,0.895752-0.7184448   C13.3196411,10.4074097,12.395874,10.4261475,12.395874,10.4261475z M12.2186279,11.6763916h-0.298584v-1.0356445h0.2612305   c0,0,0.6531372,0.0372925,0.6531372,0.5224609C12.8344116,11.6297607,12.2186279,11.6763916,12.2186279,11.6763916z" fill="#303C42"/><path d="M17.0891724,12.7120972c-0.2918091,0-0.4656982,0.0900879-0.5691528,0.2023315v-0.6781616h-0.4572144   v1.6795044h0.4572144v-0.1568604c0.0949097,0.107605,0.2501831,0.1941528,0.5038452,0.1941528   c0.671814,0,0.7184448-0.4945068,0.7277832-0.6251221S17.6676636,12.7120972,17.0891724,12.7120972z M16.9118652,13.6918335   c-0.286377,0-0.3684082-0.1760254-0.3918457-0.2767334V13.293335c0.0238037-0.098938,0.1052856-0.3013306,0.37323-0.3013306   c0.3452148,0,0.4105225,0.2332764,0.4105225,0.3452759C17.303772,13.4492188,17.1824951,13.6824951,16.9118652,13.6918335z" fill="#303C42"/><path d="M20.6627808,13.6731567c-0.1866455,0-0.1866455-0.2332764-0.1866455-0.2332764v-0.4664917h0.3825684   v-0.2426147h-0.3825684v-0.2892456h-0.4664917c0,0,0,0.121521,0,0.2892456h-0.3825684v0.2426147h0.3825684   c0,0.1920166,0,0.3967896,0,0.5411377c0,0.3545532,0.3638916,0.4385376,0.5038452,0.4385376   s0.3545532-0.0466309,0.3545532-0.0466309l-0.0093384-0.2612305   C20.8587036,13.6452026,20.8493652,13.6731567,20.6627808,13.6731567z" fill="#303C42"/><path d="M18.7593384,10.6593628c0.2799072,0,0.4945068,0.0839844,0.4945068,0.0839844l0.0560303-0.2705688   c0,0-0.2332764-0.1026611-0.6438599-0.1026611c-0.4011841,0-1.0449829,0.223938-1.0449829,0.8304443   c0,0.5971069,0.6810913,0.8024292,1.1010132,0.8024292c0.4198608,0,0.5598145-0.0653076,0.5598145-0.0653076l-0.0466309-0.298584   c0,0-0.1866455,0.0559692-0.5039063,0.0559692c-0.3078613-0.0093384-0.6251221-0.2519531-0.6251221-0.522522   C18.1155396,10.9299927,18.3954468,10.6593628,18.7593384,10.6593628z" fill="#303C42"/><polygon fill="#303C42" points="19.4404907,10.6780396 19.9816284,10.6780396 19.9816284,11.9749756 20.4388428,11.9749756    20.4388428,10.6780396 20.9893799,10.6780396 20.9893799,10.4074097 19.4404907,10.4074097  "/><rect fill="#303C42" height="0.3171997" width="0.4572144" x="18.5354004" y="12.2362671"/><path d="M15.4562988,11.237854c0,0,0.4385376-0.0279541,0.4385376-0.4105225   c0-0.447876-0.7650757-0.4105225-0.7650757-0.4105225h-0.7371216v1.5581665h0.447876v-0.6033325   c0.0710449,0.0027466,0.1622925,0.0061646,0.1679077,0.0061646c0.223938,0,0.2892456,0.2332764,0.2892456,0.2332764   s0.0839844,0.1400146,0.1119995,0.2053223c0.0372925,0.0653076,0.1119385,0.1585693,0.1119385,0.1585693h0.4665527   c0,0-0.3079224-0.5598145-0.3545532-0.6344604C15.5775757,11.2565308,15.4562988,11.237854,15.4562988,11.237854z    M15.0831299,11.1165771h-0.2426147v-0.447876h0.2705688c0,0,0.3358765,0.0280151,0.3265991,0.223938   C15.4190063,11.0979004,15.0831299,11.1165771,15.0831299,11.1165771z" fill="#303C42"/><path d="M15.3816528,13.4398804c0.0093384-0.5318604-0.2426147-0.7184448-0.7650757-0.7371216   c-0.298584,0-0.821106,0.149292-0.821106,0.6251831c0,0.5878296,0.6345215,0.6344604,0.8491211,0.6344604   c0.2052002,0,0.6344604-0.1026611,0.6344604-0.1026611v-0.2892456c0,0-0.223938,0.149292-0.6158447,0.1400146   c-0.2946167-0.0137329-0.3828735-0.1482544-0.4090576-0.2704468   C14.5219727,13.4419556,15.3816528,13.4477539,15.3816528,13.4398804z M14.255249,13.206665   c0.0259399-0.1305542,0.1108398-0.2706299,0.3706665-0.2706299c0.3452148,0,0.3452148,0.2706299,0.3452148,0.2706299H14.255249z" fill="#303C42"/><rect fill="#303C42" height="1.1849976" width="0.4572144" x="18.5354004" y="12.7307739"/><path d="M7.4320068,9.2155762v0.1328125c0.5214233,0.0664673,2.1520386,0.4480591,2.1833496,2.6265869   c0.0373535,2.5939331-2.3792725,2.6872559-2.4632568,2.6872559c-2.1273804-0.0280151-3.4336548-1.0917358-3.4336548-1.819519   c0-1.1159668,2.46698-1.6259766,3.5549316-1.5472412V9.2075195C7.2054443,9.2050171,7.1370239,9.2037964,7.0681152,9.2037964   C4.819458,9.2037964,3,10.5100708,3,12.1149292s1.819458,2.9111328,4.0681152,2.9111328s4.0775146-1.3062744,4.0775146-2.9111328   C11.1456299,10.5976563,9.5107422,9.3475342,7.4320068,9.2155762z" fill="#303C42"/><path d="M5.4632568,12.90802c0,1.2410278,1.8101196,1.5675659,1.8101196,1.5675659v-3.1218262   C6.8032227,11.4821167,5.4632568,11.918335,5.4632568,12.90802z" fill="#303C42"/><path d="M22,4h-0.5v13.5c0,0.5512695-0.4487305,1-1,1H1V19c0,0.5512695,0.4487305,1,1,1h20   c0.5512695,0,1-0.4487305,1-1V5C23,4.4487305,22.5512695,4,22,4z" fill="#010101" opacity="0.1"/><linearGradient gradientUnits="userSpaceOnUse" id="SVGID_1_" x1="-0.7076802" x2="24.7076797" y1="6.0743113" y2="17.9256878"><stop offset="0" style="stop-color:#FFFFFF;stop-opacity:0.2"/><stop offset="1" style="stop-color:#FFFFFF;stop-opacity:0"/></linearGradient><path d="M22,3H2C0.8969727,3,0,3.8969727,0,5v14c0,1.1030273,0.8969727,2,2,2h20   c1.1030273,0,2-0.8969727,2-2V5C24,3.8969727,23.1030273,3,22,3z" fill="url(#SVGID_1_)"/></g><g/><g/><g/><g/><g/><g/><g/><g/><g/><g/><g/><g/><g/><g/><g/></svg>