<?xml version="1.0" ?><svg enable-background="new 0 0 24 24" id="Layer_1" version="1.1" viewBox="0 0 24 24" xml:space="preserve" xmlns="http://www.w3.org/2000/svg" xmlns:xlink="http://www.w3.org/1999/xlink"><g><path d="M22,3H2C0.8969727,3,0,3.8969727,0,5v14c0,1.1030273,0.8969727,2,2,2h20c1.1030273,0,2-0.8969727,2-2V5   C24,3.8969727,23.1030273,3,22,3z" fill="#303C42"/><path d="M23,19c0,0.5512695-0.4487305,1-1,1H2c-0.5512695,0-1-0.4487305-1-1V5c0-0.5512695,0.4487305-1,1-1h20   c0.5512695,0,1,0.4487305,1,1V19z" fill="#FAFBFB"/><path d="M16.5,6H14c-0.1494141,0-0.2910156,0.0668945-0.3857422,0.1821289   c-0.0952148,0.1152344-0.1337891,0.2670898-0.1049805,0.4135742c0.0033569,0.0170288,0.2536621,1.3272095,0.3970947,3.3155518   c-0.3033447-0.5338135-0.6235352-1.0841064-0.9786377-1.6705322C12.8369141,8.0913086,12.6748047,8,12.5,8H10   C9.8193359,8,9.652832,8.097168,9.5644531,8.2543945C9.5213623,8.3306274,9.5020142,8.4154663,9.5020142,8.5H9.5   c0,0.2064819-0.0133667,1.0787964-0.2139893,2.1929932c-0.1278687-0.1853027-0.265564-0.3625488-0.414917-0.5279541   C8.7763672,10.0600586,8.6416016,10,8.5,10H6c-0.1977539,0-0.3764648,0.1162109-0.4570313,0.296875   c-0.0800781,0.1806641-0.0463867,0.3916016,0.0859375,0.5380859c1.0063477,1.1142578,1.4458008,2.9790039,1.7084961,4.0927734   c0.0732422,0.3115234,0.1337891,0.5634766,0.1870117,0.7275391C7.5917969,15.8608398,7.7836914,16,8,16h2.5   c0.1601563,0,0.3105469-0.0766602,0.4047852-0.206543c0.0235596-0.0324707,0.0298462-0.0718994,0.0447388-0.1083374   l0.0128784,0.0053101c0.317688-0.7714844,0.6047974-1.8713989,0.8594971-2.8596191   c0.8644409,1.7828369,1.395813,3.2940674,1.6878662,4.7663574C13.5561523,17.831543,13.7612305,18,14,18h2.5   c0.1494141,0,0.2915039-0.0668945,0.3862305-0.1826172c0.0466309-0.0566406,0.0786133-0.1224365,0.0966187-0.1916504   l0.0010376,0.0002441C17.0048828,17.5449219,17.5,15.6020508,17.5,12s-0.4951172-5.5449219-0.5161133-5.6259766   C16.9267578,6.1538086,16.7275391,6,16.5,6z" fill="#303C42"/><path d="M14.5922852,7h1.5039063C16.2338867,7.7114258,16.5,9.421875,16.5,12   c0,1.2457275-0.0629272,2.2806396-0.1426392,3.1063843c-0.3389893-0.9822388-0.7831421-2.0194702-1.3587036-3.1636963   C14.9589844,9.678833,14.7289429,7.8831177,14.5922852,7z" fill="#44B3E6"/><path d="M8.3823242,15c-0.0219727-0.0913086-0.0458984-0.1923828-0.0717773-0.3017578   C8.081543,13.7265625,7.7285156,12.2280273,6.9848633,11h1.284668c0.9072266,1.1259766,1.3178711,2.8671875,1.5678711,3.9277344   C9.8432617,14.9521484,9.8486328,14.9760742,9.8544922,15H8.3823242z" fill="#8BC249"/><path d="M10.8769531,12.4916992c-0.1005249,0.3897705-0.2076416,0.7972412-0.317688,1.196228   c-0.1398315-0.5174561-0.3208008-1.0847168-0.5549316-1.6437988c0.189209-0.6950073,0.3057251-1.3528442,0.3777466-1.9158325   c0.2739258,0.475769,0.524292,0.9282837,0.7591553,1.3665161C11.0596924,11.786377,10.9718018,12.1228027,10.8769531,12.4916992z" fill="#FEEA3A"/><path d="M14.4052734,17c-0.5151367-2.2954102-1.5678711-4.6875-3.5234375-8h1.3359375   c2.0283203,3.3745117,3.1240234,5.7617188,3.6611328,8H14.4052734z" fill="#EF4438"/><path d="M22,4h-0.5v13.5c0,0.5512695-0.4487305,1-1,1H1V19c0,0.5512695,0.4487305,1,1,1h20   c0.5512695,0,1-0.4487305,1-1V5C23,4.4487305,22.5512695,4,22,4z" fill="#010101" opacity="0.1"/><linearGradient gradientUnits="userSpaceOnUse" id="SVGID_1_" x1="9.7321167" x2="10.8314819" y1="12.3163452" y2="13.4157104"><stop offset="0" style="stop-color:#010101;stop-opacity:0.1"/><stop offset="1" style="stop-color:#010101;stop-opacity:0"/></linearGradient><path d="M10.7877808,12.8275757l-0.7834473-0.7834473   c0.2341309,0.559082,0.4151001,1.1263428,0.5549316,1.6437988C10.6384277,13.4009399,10.7130127,13.1135254,10.7877808,12.8275757z   " fill="url(#SVGID_1_)"/><linearGradient gradientUnits="userSpaceOnUse" id="SVGID_2_" x1="14.5411987" x2="16.8141479" y1="12.3766479" y2="14.6495972"><stop offset="0" style="stop-color:#010101;stop-opacity:0.1"/><stop offset="1" style="stop-color:#010101;stop-opacity:0"/></linearGradient><path d="M14.9986572,11.942688c0.5755615,1.1442261,1.0197144,2.1814575,1.3587036,3.1636963   c0.0476074-0.4934082,0.0872192-1.0709229,0.1130371-1.7141113l-1.4724121-1.4724121   C14.9981079,11.9276733,14.9985352,11.9348755,14.9986572,11.942688z" fill="url(#SVGID_2_)"/><linearGradient gradientUnits="userSpaceOnUse" id="SVGID_3_" x1="-0.7076802" x2="24.7076797" y1="6.0743113" y2="17.9256878"><stop offset="0" style="stop-color:#FFFFFF;stop-opacity:0.2"/><stop offset="1" style="stop-color:#FFFFFF;stop-opacity:0"/></linearGradient><path d="M22,3H2C0.8969727,3,0,3.8969727,0,5v14c0,1.1030273,0.8969727,2,2,2h20   c1.1030273,0,2-0.8969727,2-2V5C24,3.8969727,23.1030273,3,22,3z" fill="url(#SVGID_3_)"/></g><g/><g/><g/><g/><g/><g/><g/><g/><g/><g/><g/><g/><g/><g/><g/></svg>