<?xml version="1.0" ?><svg enable-background="new 0 0 24 24" id="Layer_1" version="1.1" viewBox="0 0 24 24" xml:space="preserve" xmlns="http://www.w3.org/2000/svg" xmlns:xlink="http://www.w3.org/1999/xlink"><g><path clip-rule="evenodd" d="M22,3H2C0.8969727,3,0,3.8969727,0,5v14   c0,1.1030273,0.8969727,2,2,2h20c1.1030273,0,2-0.8969727,2-2V5C24,3.8969727,23.1030273,3,22,3z" fill="#303C42" fill-rule="evenodd"/><path clip-rule="evenodd" d="M23,19c0,0.5512695-0.4487305,1-1,1H2   c-0.5512695,0-1-0.4487305-1-1V5c0-0.5512695,0.4487305-1,1-1h20c0.5512695,0,1,0.4487305,1,1V19z" fill="#FFCB29" fill-rule="evenodd"/><path d="M22,4h-0.5v13.5c0,0.5512695-0.4487305,1-1,1H1V19c0,0.5512695,0.4487305,1,1,1h20   c0.5512695,0,1-0.4487305,1-1V5C23,4.4487305,22.5512695,4,22,4z" fill="#010101" opacity="0.1"/><path clip-rule="evenodd" d="M8.5,8h-3v8h3v-2H11V8H8.5z M9.5,12h-1v-2h1   c0.3056641,0,1,0.3779297,1,1S9.8056641,12,9.5,12z" fill="#303C42" fill-rule="evenodd"/><path clip-rule="evenodd" d="M16.5,8H14h-3c1.3807373,0,2.5,1.3431396,2.5,3   s-1.1192627,3-2.5,3v2h3v-2h2.5c1.3807373,0,2.5-1.3431396,2.5-3S17.8807373,8,16.5,8z M15,12h-1v-2h1c0.3056641,0,1,0.3779297,1,1   S15.3056641,12,15,12z" fill="#303C42" fill-rule="evenodd"/><linearGradient gradientUnits="userSpaceOnUse" id="SVGID_1_" x1="-0.7076802" x2="24.7076797" y1="6.0743113" y2="17.9256878"><stop offset="0" style="stop-color:#FFFFFF;stop-opacity:0.2"/><stop offset="1" style="stop-color:#FFFFFF;stop-opacity:0"/></linearGradient><path d="M22,3H2C0.8969727,3,0,3.8969727,0,5v14c0,1.1030273,0.8969727,2,2,2h20   c1.1030273,0,2-0.8969727,2-2V5C24,3.8969727,23.1030273,3,22,3z" fill="url(#SVGID_1_)"/></g><g/><g/><g/><g/><g/><g/><g/><g/><g/><g/><g/><g/><g/><g/><g/></svg>