<?xml version="1.0" ?><svg enable-background="new 0 0 24 24" id="Layer_1" version="1.1" viewBox="0 0 24 24" xml:space="preserve" xmlns="http://www.w3.org/2000/svg" xmlns:xlink="http://www.w3.org/1999/xlink"><g><path d="M22,3H2C0.8969727,3,0,3.8969727,0,5v14c0,1.1030273,0.8969727,2,2,2h20c1.1030273,0,2-0.8969727,2-2V5   C24,3.8969727,23.1030273,3,22,3z" fill="#303C42"/><path d="M23,19c0,0.5512695-0.4487305,1-1,1H2c-0.5512695,0-1-0.4487305-1-1V5c0-0.5512695,0.4487305-1,1-1h20   c0.5512695,0,1,0.4487305,1,1V19z" fill="#3374BA"/><polygon fill="#303C42" points="3,11.4475098 7.0536499,15.9667969 7.9542847,11.4486084  "/><polygon fill="#303C42" points="13.6759644,10.7836304 9.6627197,6.3427734 8.8074951,10.7836304  "/><path d="M16.9141846,11.4742432l-0.5862427,3.0042114c-0.026123,0.019043-0.0966187,0.5956421-0.6317139,0.5510254   c-0.6464844-0.0534668-0.4443359-0.687439-0.4443359-0.687439l0.5154419-2.8692627l-1.1437988,0.001709l-0.5751343,3.0179443   c0,0-0.3604736,1.4633179,1.5412598,1.5744629c0,0,1.6040039,0.2285767,1.9614258-1.7297363   c0.3783569-2.0759888,0.5279541-2.8623657,0.5279541-2.8623657L16.9141846,11.4742432z" fill="#303C42"/><path d="M19.6196899,11.3914795c0,0-1.3075562-0.0809937-1.5904541,1.1949463   c0,0-0.1810913,0.7579346,0.4210815,1.1488647c0.6015625,0.3914795,0.7261353,0.4025879,0.9458618,0.5586548   c0.2192383,0.1563721,0.2425537,0.7380981-0.2103882,0.767334c-0.5100098,0.03302-0.4042358-0.5796509-0.4139404-0.5796509   l-1.1210327-0.0011597c0,0-0.4841309,1.4920654,1.4576416,1.5804443c0,0,1.6259766-0.0307007,1.6220093-1.4738159   c0,0,0.1242065-0.8546143-1.2444458-1.4368896c0,0-0.2877197-0.1279297-0.3036499-0.4168091   c-0.0158691-0.2888184,0.2926025-0.3431396,0.2926025-0.3431396s0.2114868-0.0568848,0.3258057,0.0708008   c0.0821533,0.0921021,0.0701904,0.4434814,0.0701904,0.4434814h1.0841064   C20.9550781,12.904541,21.3795166,11.4102783,19.6196899,11.3914795z" fill="#303C42"/><polygon fill="#303C42" points="8.8959351,6.3018188 3.1222534,10.7861938 8.0600586,10.7884521  "/><polygon fill="#303C42" points="13.3413086,11.4492188 12.1623535,11.4503174 11.2997437,15.9537354 13.7427979,15.953186    13.9332886,14.9165649 12.6894531,14.9143066  "/><path d="M11.6264038,12.2532349c-0.3479614-0.7633667-1.4411621-0.8005981-1.4411621-0.8005981   l-1.5167236-0.0045776l-0.8685913,4.5471802l1.1511841-0.0005493l0.2905273-1.3825684   c1.7584229,0.0994873,2.0776978-0.6309204,2.164978-0.6974487S11.9741211,13.0168457,11.6264038,12.2532349z M9.8895874,13.510437   H9.4602661l0.18396-0.9817505h0.4483643c0,0,0.453186-0.0093384,0.5049438,0.4347534   C10.5975342,12.9634399,10.6259155,13.49646,9.8895874,13.510437z" fill="#303C42"/><path d="M22,4h-0.5v13.5c0,0.5512695-0.4487305,1-1,1H1V19c0,0.5512695,0.4487305,1,1,1h20   c0.5512695,0,1-0.4487305,1-1V5C23,4.4487305,22.5512695,4,22,4z" fill="#010101" opacity="0.1"/><linearGradient gradientUnits="userSpaceOnUse" id="SVGID_1_" x1="-0.7076802" x2="24.7076797" y1="6.0743113" y2="17.9256878"><stop offset="0" style="stop-color:#FFFFFF;stop-opacity:0.2"/><stop offset="1" style="stop-color:#FFFFFF;stop-opacity:0"/></linearGradient><path d="M22,3H2C0.8969727,3,0,3.8969727,0,5v14c0,1.1030273,0.8969727,2,2,2h20   c1.1030273,0,2-0.8969727,2-2V5C24,3.8969727,23.1030273,3,22,3z" fill="url(#SVGID_1_)"/></g><g/><g/><g/><g/><g/><g/><g/><g/><g/><g/><g/><g/><g/><g/><g/></svg>