<?xml version="1.0" ?><svg enable-background="new 0 0 24 24" id="Layer_1" version="1.1" viewBox="0 0 24 24" xml:space="preserve" xmlns="http://www.w3.org/2000/svg" xmlns:xlink="http://www.w3.org/1999/xlink"><g><path clip-rule="evenodd" d="M22,3H2C0.8974609,3,0,3.8969727,0,5v14   c0,1.1030273,0.8974609,2,2,2h20c1.1025391,0,2-0.8969727,2-2V5C24,3.8969727,23.1025391,3,22,3z" fill="#303C42" fill-rule="evenodd"/><path clip-rule="evenodd" d="M23,19c0,0.5512695-0.4482422,1-1,1H2   c-0.5517578,0-1-0.4487305-1-1V5c0-0.5512695,0.4482422-1,1-1h20c0.5517578,0,1,0.4487305,1,1V19z" fill="#66BB6A" fill-rule="evenodd"/><path clip-rule="evenodd" d="M11.121582,10.0631104   c-0.4372559-0.0014038-0.7667847,0.2012939-0.918335,0.3347168v-0.2993164l-0.6743774-0.0003052v0.2996216   c-0.1652222-0.1498413-0.3659668-0.2850952-0.5679932-0.3170166C8.7460938,10.046814,8.531311,10.0569458,8.265686,10.1409912   c-0.2208862,0.0699463-0.3616943,0.1731567-0.4979858,0.3346558c-0.2814941-0.3307495-0.7263184-0.3968506-1.0808105-0.4104004   c-0.4035645-0.0154419-0.8105469,0.0368042-1.1276245,0.2800293c-0.305603-0.1640625-0.6918945-0.2929688-1.1206055-0.2904053   c-0.3769531,0.0022583-0.7380981,0.0914917-0.9939575,0.3234863c-0.0922852,0.0836792-0.133728,0.1501465-0.1793823,0.2687988   c-0.0905762,0.2351074-0.0529175,0.5065918,0.0480347,0.6482544c0.1882935,0.2642822,0.3991699,0.3669434,0.7779541,0.4116211   c0.3327637,0.0393066,0.5657349,0.0394287,0.8118896,0.0869751c0.116333,0.022522,0.2230835,0.112854,0.2230835,0.2468262   c0,0.156311-0.2081909,0.4124146-0.7108154,0.3780518c-0.4187622-0.0285645-0.5769043-0.0905151-0.9707642-0.3594971L3,12.4368286   c0,0,0.0758667,0.0635376,0.1275635,0.0992432c0.0498047,0.0343628,0.1016235,0.0667114,0.1550293,0.0968628h0.0012817   c0.4484863,0.2540283,1.0160522,0.3602905,1.5297852,0.2739868c0.2520142-0.0424805,0.4910889-0.1311646,0.6967773-0.2716064   c0.1663208,0.1193848,0.3860474,0.3240967,0.9179077,0.2990112c0.3347778-0.0158081,0.583313-0.0031738,0.8157959-0.2837524   v0.2803955h0.6512451l-0.0001831-0.2803955c0,0,0.1027222,0.0871582,0.1749268,0.1326294   c0.4135742,0.2605591,1.0714111,0.1619873,1.4603882-0.1487427l0.0008545,0.3626709   c-0.0111084,0.2238159-0.2068481,0.3769531-0.4126587,0.4632568c-0.3554077,0.1488647-0.6791382,0.0154419-0.9683228-0.1986694   l-0.4934692,0.3464355c0.1332397,0.1400757,0.2550049,0.2218628,0.4448242,0.3131714   c0.5336914,0.2565308,1.1581421,0.1690674,1.5889282-0.0991821c0.2841187-0.177002,0.394043-0.3939819,0.4626465-0.7275391   c0.036438-0.1773682,0.0400391-0.3071899,0.0455933-0.4623413c0.0001831-0.0045166,0.0001831-0.0085449,0.0003662-0.0125122   c0.0057373,0.0042114,0.0114746,0.0083618,0.0170288,0.0125122c0.1373901,0.100647,0.2589722,0.175293,0.4448242,0.2346191   c0.3001099,0.0957642,0.6414795,0.1000977,1.022583-0.0043335c0.1773071-0.048645,0.3338013-0.1264038,0.4736328-0.2302856   h0.0002441c0.0756226-0.0564575,0.1463623-0.1204834,0.2130127-0.1914673l-0.4255981-0.3181152   c-0.1442261,0.1235352-0.3588257,0.2481079-0.6033936,0.2805176c-0.2825317,0.0375977-0.6029053-0.0159912-0.7763672-0.2134399   c-0.09375-0.1066895-0.1264038-0.1402588-0.1264038-0.4105835l2.0026855,0.0023804v-0.5061646   C12.4415283,10.8535156,12.1297607,10.0662842,11.121582,10.0631104z M5.3192139,11.3214722   c-0.2276001-0.109314-0.3905029-0.0891113-0.6342773-0.1027832c-0.3109741-0.0174561-0.5970459-0.0237427-0.7524414-0.1543579   c-0.0894165-0.0751343-0.0716553-0.2914429,0.0537109-0.369873c0.1802979-0.1127319,0.3984985-0.1089478,0.524292-0.1021118   c0.2545776,0.0137939,0.5477905,0.1012573,0.7785645,0.2626953l0.2702026-0.2626953c0,0,0.2852173,0.274353,0.2852173,0.2626953   c0.3325806-0.2432251,0.4499512-0.2438354,0.7597656-0.2435303c0.423584,0.0003052,0.5452271,0.086731,0.6074829,0.1844482   c0.0393677,0.0617065,0.0004883,0.4382935,0.0004883,0.4382935s-0.3739624,0.012085-0.6436768-0.0021362   c-0.2143555-0.0112305-0.3342285-0.012146-0.5498047,0.0248413c-0.192749,0.032959-0.3251953,0.0921631-0.4594727,0.2089844   C5.5592651,11.4659424,5.444397,11.3815918,5.3192139,11.3214722z M6.9884644,12.3768311   c-0.1395874,0.0458374-0.3627319,0.0692139-0.6003418,0.0391235c-0.1976929-0.0249634-0.3859863-0.0396729-0.4630127-0.2261963   c-0.041687-0.1010742-0.032959-0.1938477,0.0319824-0.2801514c0.1019897-0.1356201,0.3380127-0.1619263,0.4795532-0.1635132   h0.7755737C7.2329102,11.9581909,7.2975464,12.2753296,6.9884644,12.3768311z M9.4916992,11.9484863   c-0.0223999,0.0988159-0.0690918,0.1826782-0.1655884,0.2629395c-0.1089478,0.0905762-0.277771,0.1710205-0.4778442,0.1593018   c-0.2799683-0.0164795-0.5302734-0.1329346-0.6043091-0.2957764c-0.0621338-0.137146-0.0752563-0.3565674-0.0667725-0.6032104   c0.0053711-0.1553955,0.0194092-0.3215332,0.0351563-0.4847412c0.0077515-0.0795898,0.0993042-0.1757813,0.2280884-0.2495117   c0.1169434-0.0668945,0.2645264-0.1152954,0.4078369-0.1160889c0.1090088-0.0006104,0.2208862,0.0210571,0.3198242,0.0610962   c0.1726074,0.0696411,0.3063965,0.1950684,0.3201904,0.3554688c0.0127563,0.1494141,0.0274658,0.2907715,0.0341187,0.4261475   C9.5307007,11.6333008,9.5267334,11.793396,9.4916992,11.9484863z M10.4544678,11.2675171   c0-0.1697388,0.0423584-0.305481,0.1120605-0.4110107c0.1391602-0.2105713,0.3873291-0.3007813,0.6260376-0.300293   c0.2348633,0.0005493,0.4769287,0.0891113,0.6209717,0.2820435c0.0813599,0.1088867,0.1314697,0.2510376,0.1314697,0.4292603   H10.4544678z" fill="#303C42" fill-rule="evenodd"/><path clip-rule="evenodd" d="M14.5291748,9.987854   c-0.236084,0-0.4453735,0.0552979-0.6279297,0.1659546s-0.3162842,0.2637329-0.401123,0.4591675v-0.5421143h-0.3208618v3.9057617   h0.3485718l0.0110474-1.5933228c0.0737305,0.1973877,0.2009888,0.3500366,0.3817139,0.4578857   c0.1807251,0.1077881,0.3835449,0.1617432,0.6085815,0.1617432c0.4130249,0,0.7302246-0.1436157,0.9514771-0.4307251   c0.2213135-0.2871704,0.3319702-0.6461182,0.3319702-1.0768433c0-0.4343872-0.1096802-0.7942505-0.3291626-1.0795288   C15.2639771,10.1304932,14.9459229,9.987854,14.5291748,9.987854z M15.2261963,12.3482056   c-0.1585693,0.2410278-0.3909302,0.3615112-0.6970215,0.3615112c-0.3430176,0-0.5957031-0.1177368-0.7579346-0.3532715   c-0.1622925-0.2354736-0.2434082-0.5224609-0.2434082-0.861084c0-0.3569336,0.0783691-0.6485596,0.2351074-0.8748169   c0.1567383-0.2263184,0.4121704-0.3394775,0.7662354-0.3394775c0.3097534,0,0.5430298,0.1195679,0.6997681,0.3587646   c0.1567993,0.2391968,0.2351685,0.524353,0.2351685,0.8555298C15.4641113,11.822876,15.3848267,12.1071777,15.2261963,12.3482056z" fill="#303C42" fill-rule="evenodd"/><path clip-rule="evenodd" d="M18.3063965,12.4220581V10.906189   c0-0.3466797-0.0986328-0.5863647-0.2959595-0.7191772c-0.1973267-0.1327515-0.4490356-0.1991577-0.755127-0.1991577   c-0.3467407,0-0.6260986,0.0792847-0.8381348,0.237915c-0.2120972,0.1585693-0.3181763,0.3983154-0.3181763,0.7191772h0.3485718   c0-0.2249756,0.0700684-0.3919067,0.2102051-0.5006714c0.1401978-0.1088257,0.324585-0.163208,0.5532227-0.163208   c0.2360229,0,0.4195557,0.0422974,0.5504761,0.1269531c0.1309204,0.0847168,0.1964111,0.2374268,0.1964111,0.458252   c0,0.1766968-0.0424194,0.2816162-0.1272583,0.3147583s-0.2581787,0.0653076-0.5200195,0.0965576   c-0.2619019,0.031311-0.4813232,0.0653076-0.6583862,0.1021729c-0.177002,0.0368042-0.3337402,0.1149902-0.4702148,0.2346191   c-0.1364746,0.1195679-0.2047119,0.3045654-0.2047119,0.5548706c0,0.276123,0.0894775,0.4840698,0.2683105,0.6239014   c0.178894,0.1398315,0.4085083,0.2097778,0.6887817,0.2097778c0.2619019,0,0.4674683-0.0456543,0.6168823-0.1370239   c0.149353-0.0913086,0.2940674-0.2374268,0.4342651-0.4383545c0,0.1734009,0.0267334,0.2996826,0.0802002,0.3789673   c0.0534668,0.0793457,0.163208,0.1189575,0.3291626,0.1189575c0.0811768,0,0.1567383-0.0073853,0.2268066-0.0220947v-0.2932129   c-0.0368652,0.0147705-0.0737305,0.0220947-0.1105957,0.0220947   C18.3746338,12.6322632,18.3063965,12.5621948,18.3063965,12.4220581z M17.9578857,11.8171387   c0,0.2681274-0.0968628,0.4839478-0.2904663,0.6473999s-0.428772,0.2451782-0.7053223,0.2451782   c-0.1734009,0-0.3227539-0.0514526-0.4481201-0.1542969c-0.1254272-0.1027832-0.1881104-0.2387085-0.1881104-0.4076538   c0-0.2424316,0.147522-0.4096069,0.4425659-0.5013428c0.2950439-0.0515137,0.5402832-0.0946655,0.7357788-0.1295776   c0.1954956-0.0348511,0.3153687-0.0614624,0.3596191-0.079834s0.0755615-0.0422363,0.0940552-0.0716553V11.8171387z" fill="#303C42" fill-rule="evenodd"/><path clip-rule="evenodd" d="M19.765564,12.4973145l-0.9373779-2.4281006l-0.3748169,0.0016479   l1.1396484,2.8435669l-0.1212769,0.3240967c-0.0513916,0.1134644-0.1065063,0.2160034-0.1652832,0.3075562   c-0.0588379,0.0915527-0.1690674,0.1373291-0.3306885,0.1373291c-0.0661621,0-0.1451416-0.0073853-0.2370605-0.0221558v0.2932129   c0.0477905,0.0147705,0.1359863,0.0221558,0.2647095,0.0221558c0.2095337,0,0.3620605-0.0420532,0.4576416-0.1260986   c0.0955811-0.0841064,0.1929932-0.2467651,0.2922363-0.4880981l1.2393799-3.2915649l-0.3487549-0.0001221L19.765564,12.4973145z" fill="#303C42" fill-rule="evenodd"/><path d="M22,4h-0.5v13.5c0,0.5512695-0.4487305,1-1,1H1V19c0,0.5512695,0.4487305,1,1,1h20   c0.5512695,0,1-0.4487305,1-1V5C23,4.4487305,22.5512695,4,22,4z" fill="#010101" opacity="0.1"/><linearGradient gradientUnits="userSpaceOnUse" id="SVGID_1_" x1="-0.7076151" x2="24.7076149" y1="6.0743418" y2="17.9256592"><stop offset="0" style="stop-color:#FFFFFF;stop-opacity:0.2"/><stop offset="1" style="stop-color:#FFFFFF;stop-opacity:0"/></linearGradient><path d="M22,3H2C0.8974609,3,0,3.8969727,0,5v14c0,1.1030273,0.8974609,2,2,2h20   c1.1025391,0,2-0.8969727,2-2V5C24,3.8969727,23.1025391,3,22,3z" fill="url(#SVGID_1_)"/></g><g/><g/><g/><g/><g/><g/><g/><g/><g/><g/><g/><g/><g/><g/><g/></svg>