<?xml version="1.0" ?><svg enable-background="new 0 0 24 24" id="Layer_1" version="1.1" viewBox="0 0 24 24" xml:space="preserve" xmlns="http://www.w3.org/2000/svg" xmlns:xlink="http://www.w3.org/1999/xlink"><g><path d="M21.9980469,3H2.0019531c-1.1030273,0-2,0.8969727-2,2v14c0,1.1030273,0.8969727,2,2,2h19.9960938   c1.1030273,0,2-0.8969727,2-2V5C23.9980469,3.8969727,23.1010742,3,21.9980469,3z" fill="#303C42"/><path d="M22.9980469,19c0,0.5512695-0.4487305,1-1,1H2.0019531c-0.5512695,0-1-0.4487305-1-1V5   c0-0.5512695,0.4487305-1,1-1h19.9960938c0.5512695,0,1,0.4487305,1,1V19z" fill="#FAFBFB"/><path d="M5.276123,11.3310547c-0.1893921-0.0123901-0.6279297-0.0407104-0.6279297-0.4354248   c0-0.4763794,0.6312866-0.4763794,0.868042-0.4763794c0.4163818,0,0.9555664,0.1229858,1.3405762,0.2381592   c0,0,0.2148438,0.0757446,0.397583,0.1533813l0.0170898,0.0045776v-0.0172729V9.5108032L7.2481079,9.5039673   C6.7937012,9.3449097,6.2652588,9.1919556,5.2856445,9.1919556c-1.6890869,0-2.2875977,0.9840088-2.2875977,1.8269653   c0,0.4859619,0.208252,1.6295776,2.1427002,1.7615356c0.1640015,0.0100708,0.5991821,0.0350952,0.5991821,0.4430542   c0,0.336792-0.3563232,0.5354004-0.9555054,0.5354004c-0.6567383,0-1.2938843-0.1674805-1.6807861-0.326355v1.3435669   c0.5792847,0.1518555,1.2322998,0.2277222,1.9976196,0.2277222c1.6514893,0,2.3912354-0.9310303,2.3912354-1.8537598   C7.4924927,12.1038818,6.6647339,11.4241333,5.276123,11.3310547z" fill="#C72263"/><path d="M10.269043,10.7315674c-0.0332642,0.0838013-0.2731934,0.7615356-0.8535156,1.4640503V9.1919556   l-1.5462646,0.305603v5.444397h1.5462646v-1.6829224c0.4478149,0.6716309,0.6689453,1.6829224,0.6689453,1.6829224h1.8520508   c-0.1831665-0.7615967-0.9846191-2.1659546-0.9846191-2.1659546c0.7192993-0.9118042,1.0351563-1.8834229,1.0854492-2.0444336   H10.269043z" fill="#C72263"/><circle cx="15.9276581" cy="9.5944977" fill="#C72263" r="0.7385254"/><polygon fill="#C72263" points="17.3120728,14.9419556 18.8095093,14.9419556 18.8095093,9.1919556 17.3120728,9.460083  "/><polygon fill="#C72263" points="19.4991455,14.9419556 20.9980469,14.9419556 20.9980469,9.1919556 19.4991455,9.460083  "/><path d="M14.3340454,10.6747437c-1.3849487,0.0444946-2.0879517,0.6658325-2.0879517,1.901001v2.3662109h1.5109253   v-1.9295654c0-0.7396851,0.0968018-1.0567017,0.9744263-1.0869141v-1.2290039   C14.5838013,10.6651001,14.3340454,10.6747437,14.3340454,10.6747437z" fill="#C72263"/><rect fill="#C72263" height="4.2056274" width="1.4987793" x="15.1784668" y="10.7363281"/><path d="M21.9980469,4h-0.5v13.5c0,0.5512695-0.4487305,1-1,1h-19.5V19c0,0.5512695,0.4487305,1,1,1   h20c0.5512695,0,1-0.4487305,1-1V5C22.9980469,4.4487305,22.5493164,4,21.9980469,4z" fill="#010101" opacity="0.1"/><linearGradient gradientUnits="userSpaceOnUse" id="SVGID_1_" x1="-0.7060759" x2="24.7060757" y1="6.0750594" y2="17.9249401"><stop offset="0" style="stop-color:#FFFFFF;stop-opacity:0.2"/><stop offset="1" style="stop-color:#FFFFFF;stop-opacity:0"/></linearGradient><path d="M21.9980469,3H2.0019531c-1.1030273,0-2,0.8969727-2,2v14c0,1.1030273,0.8969727,2,2,2h19.9960938   c1.1030273,0,2-0.8969727,2-2V5C23.9980469,3.8969727,23.1010742,3,21.9980469,3z" fill="url(#SVGID_1_)"/></g><g/><g/><g/><g/><g/><g/><g/><g/><g/><g/><g/><g/><g/><g/><g/></svg>