<?xml version="1.0" ?><svg enable-background="new 0 0 24 24" id="Layer_1" version="1.1" viewBox="0 0 24 24" xml:space="preserve" xmlns="http://www.w3.org/2000/svg" xmlns:xlink="http://www.w3.org/1999/xlink"><g><path d="M22,3H2C0.8969727,3,0,3.8969727,0,5v14c0,1.1030273,0.8969727,2,2,2h20c1.1030273,0,2-0.8969727,2-2V5   C24,3.8969727,23.1030273,3,22,3z" fill="#303C42"/><path d="M23,19c0,0.5512695-0.4487305,1-1,1H2c-0.5512695,0-1-0.4487305-1-1V5c0-0.5512695,0.4487305-1,1-1h20   c0.5512695,0,1,0.4487305,1,1V19z" fill="#9B51A0"/><path d="M12,6c-3.3085938,0-6,2.6914063-6,6s2.6914063,6,6,6s6-2.6914063,6-6S15.3085938,6,12,6z M12,17   c-2.7568359,0-5-2.2431641-5-5s2.2431641-5,5-5s5,2.2431641,5,5S14.7568359,17,12,17z" fill="#FFFFFF"/><path d="M11.190918,9.5410156c-0.5102539,0.5097656-0.7910156,1.1875-0.7910156,1.9091797   c0,0.7211914,0.2807617,1.3989258,0.7910156,1.9091797l0.7070313-0.7070313   c-0.3212891-0.3212891-0.4980469-0.7480469-0.4980469-1.2021484s0.1767578-0.8808594,0.4980469-1.2021484   c0.6425781-0.6425781,1.7617188-0.6425781,2.4042969,0l0.7070313-0.7070313   C13.9882813,8.5200195,12.2099609,8.5209961,11.190918,9.5410156z" fill="#303C42"/><path d="M12.6523438,11.8979492c0.6625977,0.6625977,0.6625977,1.7412109,0,2.4042969   c-0.6635742,0.6616211-1.7416992,0.6616211-2.4042969,0l-0.7070313,0.7070313   c0.5263672,0.5263672,1.2172852,0.7895508,1.9086914,0.7895508c0.6918945,0,1.3833008-0.2631836,1.909668-0.7895508   c1.0527344-1.0532227,1.0522461-2.7661133,0-3.8183594L12.6523438,11.8979492z" fill="#FFFFFF"/><path d="M22,4h-0.5v13.5c0,0.5512695-0.4487305,1-1,1H1V19c0,0.5512695,0.4487305,1,1,1h20   c0.5512695,0,1-0.4487305,1-1V5C23,4.4487305,22.5512695,4,22,4z" fill="#010101" opacity="0.1"/><linearGradient gradientUnits="userSpaceOnUse" id="SVGID_1_" x1="-0.7076802" x2="24.7076797" y1="6.0743113" y2="17.9256878"><stop offset="0" style="stop-color:#FFFFFF;stop-opacity:0.2"/><stop offset="1" style="stop-color:#FFFFFF;stop-opacity:0"/></linearGradient><path d="M22,3H2C0.8969727,3,0,3.8969727,0,5v14c0,1.1030273,0.8969727,2,2,2h20   c1.1030273,0,2-0.8969727,2-2V5C24,3.8969727,23.1030273,3,22,3z" fill="url(#SVGID_1_)"/></g><g/><g/><g/><g/><g/><g/><g/><g/><g/><g/><g/><g/><g/><g/><g/></svg>