<?xml version="1.0" ?><svg enable-background="new 0 0 24 24" id="Layer_1" version="1.1" viewBox="0 0 24 24" xml:space="preserve" xmlns="http://www.w3.org/2000/svg" xmlns:xlink="http://www.w3.org/1999/xlink"><g><path d="M22,3H2C0.8969727,3,0,3.8969727,0,5v14c0,1.1030273,0.8969727,2,2,2h20c1.1030273,0,2-0.8969727,2-2V5   C24,3.8969727,23.1030273,3,22,3z" fill="#303C42"/><path d="M23,19c0,0.5512695-0.4487305,1-1,1H2c-0.5512695,0-1-0.4487305-1-1V5c0-0.5512695,0.4487305-1,1-1h20   c0.5512695,0,1,0.4487305,1,1V19z" fill="#42A047"/><path d="M13.4750977,11.3046875C13.8183594,11.8041992,14,12.3901367,14,13c0,1.6542969-1.3457031,3-3,3   c-0.9907227,0-1.9169922-0.4892578-2.4780273-1.3085938l-0.8251953,0.5654297C8.4443359,16.3481445,9.6791992,17,11,17   c2.2055664,0,4-1.7944336,4-4c0-0.8129883-0.2421875-1.5947266-0.7006836-2.2617188L13.4750977,11.3046875z" fill="#FFFFFF"/><path d="M13.5429688,7c-2.2055664,0-4,1.7944336-4,4c0,0.8618164,0.2700195,1.6831055,0.7802734,2.3740234   l0.8046875-0.59375C10.7451172,12.262207,10.5429688,11.6464844,10.5429688,11c0-1.6542969,1.3457031-3,3-3   c1.0332031,0,1.9804688,0.5214844,2.534668,1.3950195l0.8447266-0.5361328C16.1835938,7.6948242,14.9204102,7,13.5429688,7z" fill="#303C42"/><path d="M22,4h-0.5v13.5c0,0.5512695-0.4487305,1-1,1H1V19c0,0.5512695,0.4487305,1,1,1h20   c0.5512695,0,1-0.4487305,1-1V5C23,4.4487305,22.5512695,4,22,4z" fill="#010101" opacity="0.1"/><linearGradient gradientUnits="userSpaceOnUse" id="SVGID_1_" x1="-0.7076802" x2="24.7076797" y1="6.0743113" y2="17.9256878"><stop offset="0" style="stop-color:#FFFFFF;stop-opacity:0.2"/><stop offset="1" style="stop-color:#FFFFFF;stop-opacity:0"/></linearGradient><path d="M22,3H2C0.8969727,3,0,3.8969727,0,5v14c0,1.1030273,0.8969727,2,2,2h20   c1.1030273,0,2-0.8969727,2-2V5C24,3.8969727,23.1030273,3,22,3z" fill="url(#SVGID_1_)"/></g><g/><g/><g/><g/><g/><g/><g/><g/><g/><g/><g/><g/><g/><g/><g/></svg>