<?xml version="1.0" ?><svg enable-background="new 0 0 24 24" id="Layer_1" version="1.1" viewBox="0 0 24 24" xml:space="preserve" xmlns="http://www.w3.org/2000/svg" xmlns:xlink="http://www.w3.org/1999/xlink"><g><path d="M22,3H2C0.8969727,3,0,3.8969727,0,5v14c0,1.1030273,0.8969727,2,2,2h20c1.1030273,0,2-0.8969727,2-2V5   C24,3.8969727,23.1030273,3,22,3z" fill="#303C42"/><path d="M23,19c0,0.5512695-0.4487305,1-1,1H2c-0.5512695,0-1-0.4487305-1-1V5c0-0.5512695,0.4487305-1,1-1h20   c0.5512695,0,1,0.4487305,1,1V19z" fill="#3D82C4"/><path d="M22,4h-0.5v13.5c0,0.5512695-0.4487305,1-1,1H1V19c0,0.5512695,0.4487305,1,1,1h20   c0.5512695,0,1-0.4487305,1-1V5C23,4.4487305,22.5512695,4,22,4z" fill="#010101" opacity="0.1"/><path d="M6.8717651,11.3853149c0.0255127,0.0310059,0.0646973,0.0479736,0.1048584,0.0479736   c0.0184937,0,0.0371704-0.003479,0.0547485-0.0109253c0.0560303-0.0236206,0.086792-0.0800781,0.0740967-0.1356812   l-0.2195435-0.9576416c-0.0004883-0.0021362-0.0009766-0.0041504-0.0015869-0.0061646   c-0.0789185-0.2735596-0.3288574-0.314209-0.5099487-0.3209839c-0.001709,0-0.003479-0.000061-0.005127-0.000061L5.131958,10   H5.1317139c-0.0639038,0-0.1186523,0.0424194-0.1296997,0.1005249s0.0247803,0.1152344,0.085083,0.1352539   C5.8415527,10.4862671,6.4586182,10.8837891,6.8717651,11.3853149z" fill="#303C42"/><path d="M9.7694092,10.0651245c-0.024353-0.0341187-0.0656738-0.0546875-0.1099854-0.0546875H9.6593018   l-0.9589844,0.0004272c-0.0541382,0-0.1027832,0.0307007-0.1225586,0.0772705l-1.1219482,2.6444092L7.335144,12.3295288   c-0.0015259-0.0053711-0.00354-0.0106812-0.0060425-0.0157471c-0.177063-0.3792114-0.6529541-0.9725952-1.3169556-1.4434204   c-0.0452881-0.0321655-0.107666-0.0336914-0.1546631-0.0039673c-0.0469971,0.0296631-0.0679932,0.0839233-0.052002,0.1343994   L6.7277222,13.90802c0.0164185,0.0518188,0.0678711,0.0874023,0.1264038,0.0874023H6.854248l1.0620728-0.0014038   c0.0525513,0,0.0999756-0.0289307,0.1207886-0.0734863l1.7432861-3.7405396   C9.7979126,10.1424561,9.7937622,10.0992432,9.7694092,10.0651245z" fill="#303C42"/><path d="M11.359436,10.0072021h-0.9122925c-0.0641479,0-0.1190186,0.0427246-0.1297607,0.1010742   l-0.6920776,3.7481079c-0.0065308,0.0352783,0.0041504,0.0715332,0.0291138,0.0988159   c0.0250244,0.0274048,0.0618286,0.0431519,0.100647,0.0431519h0.9116211c0.064209,0,0.1190796-0.0427246,0.1298218-0.1011353   l0.692749-3.7481079c0.0064697-0.0352783-0.0041504-0.0714722-0.0291748-0.0987549   C11.4350586,10.0230103,11.3982544,10.0072021,11.359436,10.0072021z" fill="#303C42"/><path d="M17.972168,10.0112305h-0.8049927c-0.3219604,0-0.5067139,0.098999-0.6176147,0.3310547   l-1.6686401,3.4869995c-0.0180054,0.0377197-0.0141602,0.0810547,0.0101318,0.1155396   C14.9153442,13.979248,14.9567871,14,15.0014038,14h0.9448853c0.0547485,0,0.1037598-0.03125,0.12323-0.0784302   c0.1161499-0.2826538,0.1906738-0.4628296,0.215271-0.5209961c0.0626831,0,0.3529053,0.0003662,0.6640625,0.0007935h0.0175781   c0.357605,0.0003662,0.7374878,0.0008545,0.8284302,0.0008545c0.0267944,0.105896,0.0933228,0.3864746,0.1207886,0.5020752   c0.0131836,0.0558472,0.0667725,0.0955811,0.1286621,0.0955811h0.8240356c0.039856,0,0.0776367-0.0167236,0.1026001-0.0454102   s0.0345459-0.0662842,0.026001-0.1022339l-0.8961792-3.7457275C18.0874023,10.0508423,18.0340576,10.0112305,17.972168,10.0112305z    M16.6240845,12.5838013l0.6269531-1.4966431l0.0797119,0.3447876l0.2728882,1.1518555H16.6240845z" fill="#303C42"/><path d="M13.885376,10.81604c0.0103149-0.0001831,0.022644-0.0003052,0.034729-0.0003052   c0.3570557,0,0.6092529,0.074707,0.7678223,0.1309204c0.0369263,0.0130615,0.078125,0.0101929,0.1124268-0.0078735   s0.0580444-0.0492554,0.0646973-0.0852661l0.1065674-0.578186c0.0109863-0.0596924-0.0272827-0.1176758-0.0897217-0.1361694   c-0.1959229-0.0578003-0.5128174-0.126709-0.909668-0.126709c-1.125,0-1.9151001,0.5221558-1.9213867,1.2693481   c-0.0070801,0.5532837,0.5648804,0.8618774,0.9960327,1.0460205c0.4421997,0.1881714,0.5907593,0.3085938,0.5887451,0.4771729   c-0.0031128,0.2581177-0.3544922,0.3756104-0.6796875,0.3756104c-0.4628296,0-0.7122803-0.0643921-1.0651245-0.1998291   c-0.0370483-0.0142212-0.0790405-0.0120239-0.1141357,0.0058594c-0.0351563,0.0177612-0.0595093,0.0493774-0.0662842,0.0858765   l-0.1129761,0.6088867c-0.0108643,0.0584717,0.0255737,0.1156616,0.0862427,0.1352539   c0.3109131,0.1005859,0.7450562,0.163147,1.1613159,0.1672974h0.0014648   c1.1935425-0.0001831,1.9702148-0.5162964,1.9787598-1.3148193c0.0045166-0.4390869-0.2990112-0.7711792-0.9516602-1.0435791   c-0.3994751-0.1790771-0.6442871-0.2979736-0.6419678-0.4800415C13.2315674,10.9817505,13.4553833,10.81604,13.885376,10.81604z" fill="#303C42"/><linearGradient gradientUnits="userSpaceOnUse" id="SVGID_1_" x1="-0.7076802" x2="24.7076797" y1="6.0743113" y2="17.9256878"><stop offset="0" style="stop-color:#FFFFFF;stop-opacity:0.2"/><stop offset="1" style="stop-color:#FFFFFF;stop-opacity:0"/></linearGradient><path d="M22,3H2C0.8969727,3,0,3.8969727,0,5v14c0,1.1030273,0.8969727,2,2,2h20   c1.1030273,0,2-0.8969727,2-2V5C24,3.8969727,23.1030273,3,22,3z" fill="url(#SVGID_1_)"/></g><g/><g/><g/><g/><g/><g/><g/><g/><g/><g/><g/><g/><g/><g/><g/></svg>