<?xml version="1.0" ?><svg enable-background="new 0 0 24 24" id="Layer_1" version="1.1" viewBox="0 0 24 24" xml:space="preserve" xmlns="http://www.w3.org/2000/svg" xmlns:xlink="http://www.w3.org/1999/xlink"><g><path clip-rule="evenodd" d="M22,3H2C0.8974609,3,0,3.8969727,0,5v14   c0,1.1030273,0.8974609,2,2,2h20c1.1025391,0,2-0.8969727,2-2V5C24,3.8969727,23.1025391,3,22,3z" fill="#303C42" fill-rule="evenodd"/><path clip-rule="evenodd" d="M23,19c0,0.5512695-0.4482422,1-1,1H2   c-0.5517578,0-1-0.4487305-1-1V5c0-0.5512695,0.4482422-1,1-1h20c0.5517578,0,1,0.4487305,1,1V19z" fill="#E53A35" fill-rule="evenodd"/><path clip-rule="evenodd" d="M7.9899902,11.137085L8.24823,11.168396l-0.4412842,1.4284668   l-0.3853149-1.6119385H7.0040894l-0.4569092,1.6160278L6.102356,11.168396l0.2542114-0.031311v-0.2089844H5.5577393   L5.5098877,11.137085l0.1708984,0.0354004c0.0479126,0.0115967,0.0675659,0.0196533,0.0837402,0.0675659l0.5602417,1.7247314   h0.4372559l0.4367676-1.5770874l0.3817139,1.5770874L8.0056763,12.96521l0.5365601-1.7251587   c0.015686-0.0519409,0.0317993-0.0675659,0.0993652-0.0796509L8.78479,11.137085v-0.2089844H8.0333862L7.9899902,11.137085z" fill="#303C42" fill-rule="evenodd"/><path clip-rule="evenodd" d="M9.8060303,10.8833618   c-0.675293,0-0.993042,0.4264526-0.993042,1.0498657c0,0.6309814,0.2662964,1.0745239,0.9536743,1.0745239   c0.675293,0,0.9769287-0.4314575,0.9769287-1.0986938C10.7435913,11.3138428,10.4813232,10.8833618,9.8060303,10.8833618z    M9.7783203,12.7190552c-0.390686,0-0.5921021-0.2537231-0.5921021-0.7817993c0-0.5244751,0.2250977-0.7545166,0.6117554-0.7545166   c0.3826294,0,0.5723877,0.2300415,0.5723877,0.7504883C10.3703613,12.4769897,10.1608887,12.7190552,9.7783203,12.7190552z" fill="#303C42" fill-rule="evenodd"/><path clip-rule="evenodd" d="M11.491394,11.1997681l-0.0116577-0.0036011l-0.0384521-0.2716064   H10.927063l-0.0357666,0.2116699l0.2263794,0.0751343c0.039856,0.012085,0.0519409,0.039856,0.0519409,0.0836792v1.3519897   c0,0.0595093-0.0080566,0.0715942-0.0635376,0.0792236l-0.1986694,0.0236816v0.2125854h1.0543213v-0.2085571l-0.3741455-0.0317383   c-0.0608521-0.0040283-0.0648804-0.015686-0.0648804-0.0797119v-1.1993408   c0.0935669-0.0877075,0.3007202-0.2510376,0.4837646-0.2510376c0.0362549,0,0.0443115,0.0076294,0.0487671,0.0397949   l0.0488281,0.2775269l0.2778931,0.0120239v-0.6010132c-0.0706787-0.0223389-0.1920166-0.0384521-0.2824097-0.0384521   C11.8234253,10.882019,11.6243286,11.0529785,11.491394,11.1997681z" fill="#303C42" fill-rule="evenodd"/><path clip-rule="evenodd" d="M13.0742798,12.6466064V9.960144h-0.6077271l-0.0358276,0.2111816   l0.2385254,0.0756836c0.039856,0.012085,0.0519409,0.0397949,0.0519409,0.0836792v2.315918   c0,0.0599365-0.0080566,0.0756226-0.0635376,0.0796509l-0.246582,0.0236816v0.2125854h0.9647827v-0.2085571l-0.2380371-0.02771   C13.0783081,12.7182007,13.0742798,12.7105713,13.0742798,12.6466064z" fill="#303C42" fill-rule="evenodd"/><path clip-rule="evenodd" d="M15.2810059,12.6447754V9.960144h-0.5996704l-0.0358276,0.2111816   l0.2385254,0.0761108c0.0357666,0.0116577,0.0514526,0.0397949,0.0514526,0.0796509v0.7455444   c-0.1548462-0.1109619-0.3692017-0.1906128-0.6077271-0.1906128c-0.4766235,0-0.8283691,0.3217773-0.8283691,1.105835   c0,0.7280884,0.2962646,1.0194092,0.7491455,1.0194092c0.3096924,0,0.5164185-0.1378174,0.6986084-0.3114624l0.015686,0.0040283   l0.0308228,0.2644653h0.5535889v-0.2120972l-0.2026978-0.027771C15.2849731,12.7163696,15.2810059,12.708313,15.2810059,12.6447754   z M14.9278564,12.378479c-0.1749878,0.1745605-0.3656006,0.3294067-0.6000977,0.3294067   c-0.2778931,0-0.4645386-0.1785889-0.4645386-0.7303467c0-0.4721069,0.1467896-0.7974854,0.5204468-0.7974854   c0.2103882,0,0.4247437,0.1149902,0.5441895,0.2143555V12.378479z" fill="#303C42" fill-rule="evenodd"/><path clip-rule="evenodd" d="M16.9681396,10.8851318   c-0.2703247,0-0.4927368,0.1091919-0.7111206,0.2684937l-0.0116577-0.0040283l-0.0353394-0.2250366h-0.520874l-0.0358276,0.2116699   l0.2264404,0.0751343c0.039856,0.0116577,0.0519409,0.0394287,0.0519409,0.0828247v2.1901245   c0,0.0599976-0.012085,0.0715942-0.067627,0.0796509l-0.1628418,0.0237427v0.2125854h1.0203247v-0.2085571l-0.37323-0.0317993   c-0.0595093-0.0040283-0.0635986-0.015625-0.0635986-0.0796509v-0.6900635   c0.1866455,0.1629028,0.3772583,0.2183838,0.6037598,0.2183838c0.6229248,0,0.8247681-0.5482178,0.8247681-1.1442871   C17.7132568,11.1652832,17.4125366,10.8851318,16.9681396,10.8851318z M16.8289185,12.7105713   c-0.2107544,0-0.4089966-0.1270752-0.5441895-0.2582397v-1.0212402c0.1150513-0.0912476,0.3535767-0.246521,0.6077271-0.246521   c0.2461548,0,0.4569702,0.1708984,0.4569702,0.7115479C17.3494263,12.3968506,17.2062378,12.7105713,16.8289185,12.7105713z" fill="#303C42" fill-rule="evenodd"/><path clip-rule="evenodd" d="M19.5333252,12.6452026v-1.0529785   c0-0.5513306-0.1884155-0.7111206-0.7491455-0.7111206c-0.3115234,0-0.763916,0.0559692-0.763916,0.5473022l0.3419189,0.0362549   c0.0039673-0.2998047,0.1776123-0.3074341,0.4188232-0.3074341c0.343689,0,0.399231,0.1436768,0.399231,0.4349976v0.2116699   l-0.5334473,0.0438843c-0.4766235,0.0393677-0.7227783,0.2255249-0.7227783,0.6202393   c0,0.201355,0.0635376,0.5383911,0.5593872,0.5383911c0.3048096,0,0.5263062-0.1289063,0.7164917-0.3052368l0.0116577,0.0036011   l0.0353394,0.2595215h0.5526733v-0.2120972l-0.2026978-0.027771C19.5373535,12.7163696,19.5333252,12.708313,19.5333252,12.6452026   z M19.1802368,12.4246216c-0.1226196,0.114563-0.3723755,0.303833-0.6055298,0.303833   c-0.1861572,0-0.2769775-0.086792-0.2769775-0.2998047c0-0.2049561,0.0948486-0.303894,0.4349365-0.3352051l0.4475708-0.039856   V12.4246216z" fill="#303C42" fill-rule="evenodd"/><path clip-rule="evenodd" d="M21.1694336,11.137085l0.2694092,0.031311l-0.5509033,1.3394775   l-0.5271606-1.3394775l0.2613525-0.031311v-0.2089844h-0.8203125l-0.0474243,0.2089844l0.1624146,0.0393677   c0.0474243,0.0116577,0.0635376,0.0197144,0.083252,0.0675659l0.7133789,1.6983643l-0.2300415,0.5298462   c-0.0237427,0.0559692-0.0393677,0.0801392-0.086853,0.0836792l-0.2855225,0.0354004v0.2089844h1.0740356v-0.2054443   l-0.3843994-0.0389404l0.9630737-2.3319702c0.0197144-0.0438843,0.0514526-0.0595703,0.0993652-0.067627l0.1347046-0.0192261   v-0.2089844h-0.7849731L21.1694336,11.137085z" fill="#303C42" fill-rule="evenodd"/><path clip-rule="evenodd" d="M5.0397949,11.6132202   c-0.0125122-0.0254517-0.0170288-0.0549927-0.029541-0.0760498c-0.0299683-0.0675659-0.0639648-0.1311035-0.1195068-0.1901855   c-0.0424805-0.0550537-0.1019897-0.0971069-0.1359863-0.1481323c-0.0215454-0.029541-0.0215454-0.0761108-0.0340576-0.1055908   c-0.0255127-0.0715942-0.085022-0.1647339-0.1535034-0.2322998C4.3546143,10.649292,4.107605,10.5566406,3.890564,10.5101318   c-0.0809937-0.0170288-0.1660156-0.0255127-0.2385254-0.0255127c-0.0640259,0-0.0980225,0-0.1660156,0.0170288   c-0.0469971,0.0084839-0.1195068,0.0465088-0.1279907,0.0465088c-0.0125122,0-0.0255127-0.0084839-0.2000732-0.0044556   c-0.0125122,0-0.1870728,0.0044556-0.1870728,0.0805664c0,0.0250244,0.0425415,0.0630493,0.0720825,0.0630493   c0.0129395,0,0.0769653-0.0420532,0.1149902-0.0630493c-0.0039673,0-0.0084839,0-0.0125122-0.0045166   c0.0255127-0.0084839,0.0595093-0.0125122,0.0720825-0.0125122c0.0084839,0,0.0259399,0,0.0344238,0.0040283   c-0.2769775,0.173645-0.5580444,0.3258057-0.8305664,0.4399414c-0.0255127,0.0084839-0.0550537,0.0250244-0.0805664,0.0335083   c-0.0344849,0.0130005-0.0809937,0.0380249-0.0809937,0.0761108c0,0.0510254,0.0595093,0.0550537,0.0894775,0.059021   l0.5531616-0.0125122c0.1279907,0.0085449,0.2554932,0.0125122,0.3790283,0.029541   c0.0679932,0.0085449,0.2045288,0.0339966,0.2130127,0.0339966c0.0170288,0,0.0935059-0.0805054,0.1020508-0.0845337   c-0.1955566-0.0380249-0.4130859-0.0635986-0.6046143-0.0761108l-0.4385986-0.0044556   c0.1280518-0.0631104,0.2600708-0.1351318,0.3875732-0.2112427c0.0469971-0.029541,0.2470703-0.1691284,0.272522-0.1691284   c0.0680542,0,0.4851685,0.0975342,0.5195923,0.1100464c0.0040283-0.0084839,0-0.0125122,0-0.0125122   c-0.1194458-0.1691895-0.2769775-0.1396484-0.4130249-0.1691895c0.0209961-0.0339966,0.0509644-0.0465088,0.0724487-0.0465088   c0.0125732,0,0.1190796,0.0210571,0.1745605,0.0380249c0.085022,0.0255127,0.2210693,0.1226196,0.2340698,0.2156982v0.0845947   c-0.0214844,0.0971069-0.0895386,0.2067261-0.1830444,0.2958374c-0.3835449,0.3508301-0.8005981,0.5029907-1.1881714,0.5960693   c-0.0765381,0.0165405-0.217041,0.0380249-0.2255249,0.0380249c-0.0125732,0-0.0085449-0.0044556-0.0085449-0.0044556   c0.0170288-0.0084839,0.0339966-0.0210571,0.0510254-0.0255127c0.0939941-0.029541,0.1960449-0.0460815,0.2940063-0.0715942   c0.1020508-0.0255127,0.2296143-0.0720825,0.3361206-0.1141357H2.7279053c-0.0465088,0-0.7236328,0.0465698-0.7236328,0.2367554   c0,0.0971069,0.1190186,0.1011353,0.1790161,0.1011353c0.1785278,0,0.3700562-0.0631104,0.5446167-0.1141357   c0.0599976-0.0165405,0.3065796-0.1221924,0.3280029-0.1221924c0.2510986,0,0.6641846,0.1011963,0.8812256,0.2067871   c0.046936,0.0214844,0.1279907,0.0805664,0.1364746,0.0805664c0.0125122,0,0.0595093-0.0425415,0.0805664-0.0635376   c-0.3106079-0.2027588-0.621582-0.2703247-0.9321899-0.3128662c0.1149902-0.0675659,0.2299805-0.1395874,0.3450317-0.2322388   c0.0465698-0.0380249,0.1315918-0.1226196,0.1445313-0.1226196c0.055481,0,0.4130859,0.1311035,0.4385986,0.1436768   c0.1065063,0.0505371,0.2214966,0.1096191,0.3280029,0.1856689c0.0210571-0.02948,0.0380859-0.0630493,0.0510254-0.0925903   c-0.2515259-0.173645-0.5065918-0.2662964-0.7495728-0.329834c0.0809937-0.1141357,0.1279907-0.2282715,0.1194458-0.3423462   h0.0125732c0.2214966,0.0715942,0.4429932,0.156189,0.6641235,0.3212891   c-0.0085449-0.0465088-0.0340576-0.1015625-0.0550537-0.1355591c-0.0130005-0.0210571-0.0255127-0.0460815-0.0425415-0.059082   c-0.0514526-0.029541-0.1109619-0.0550537-0.1575317-0.0801392c-0.1149902-0.0510254-0.2514648-0.1015625-0.3619995-0.1351318   c-0.0340576-0.0130005-0.0765381-0.0084839-0.0980225-0.0299683c-0.0300293-0.0210571-0.0469971-0.059082-0.0765381-0.0845947   c-0.0385132-0.0335693-0.0980225-0.0631104-0.132019-0.0760498c-0.0214844-0.0080566-0.0425415-0.0166016-0.0595093-0.0210571   c-0.0214844-0.0084839-0.0469971-0.0084839-0.0684814-0.0170288c0.0344238-0.0080566,0.0895386-0.0125122,0.0980225-0.0125122   c0.3235474,0,0.9876709,0.2747803,1.026123,0.7017212v0.1055908c-0.0724487,0.6552124-1.3071899,1.2852783-2.1118164,1.2852783   c-0.085022,0-0.1615601,0.0040283-0.2470093-0.0380249c-0.0170288-0.0084839-0.0425415-0.0255127-0.0425415-0.0339966   c0-0.059082,0.1575317-0.1266479,0.1790161-0.1311646c0.0595093-0.0250244,0.1275024-0.0420532,0.1960449-0.0549927   c0.085022-0.0166016,0.1955566-0.0250854,0.2850342-0.0250854c0.2000122,0,0.4215698,0.0631104,0.434082,0.0631104   c0.0084839,0,0.0809937-0.029541,0.1195068-0.0420532c-0.2000732-0.088623-0.3875732-0.1101074-0.5835571-0.1101074   c-0.0890503,0-0.7451172,0.0255127-0.7451172,0.3087769c0,0.1901855,0.3535156,0.1987305,0.4345093,0.1987305   c0.2085571,0,0.4130859-0.0380859,0.630127-0.1016235c0.0725098-0.0210571,0.1445313-0.0420532,0.2130127-0.0675659   c0.0595093-0.0210571,0.1660156-0.0675659,0.1785278-0.0675659c0.0085449,0,0.0385132,0.029541,0.0595703,0.0420532   c0.0854492,0.0635376,0.1364746,0.1821289,0.1364746,0.2582397c0,0.0420532-0.0299683,0.1391602-0.0639648,0.1817017   c0.0299683-0.0085449,0.0595093-0.0170288,0.085022-0.0340576c0.0214844-0.0125122,0.046936-0.1140747,0.046936-0.1606445   c0-0.0971069-0.0639648-0.2322388-0.1744995-0.3253174c0.1830444-0.088623,0.3745728-0.1987305,0.5576172-0.3338623   c0.1575317,0.1436157,0.217041,0.2957764,0.2214966,0.4394531c0-0.0040283,0.085022-0.059082,0.085022-0.0845947   c0-0.0084839-0.0125122-0.059082-0.0209961-0.0845947c-0.0515137-0.1771851-0.2045288-0.3297729-0.2045288-0.3297729   c0-0.0125732,0.1275635-0.1221924,0.1830444-0.18573c0.0255127-0.029541,0.0510254-0.059082,0.0725098-0.088623   c0.0169678-0.0214844,0.0339966-0.0465698,0.0509644-0.0635376c0.1190796,0.1140747,0.1790161,0.2282104,0.2215576,0.3423462   c0-0.0044556,0.0465088-0.1351318,0.0465088-0.1646729c0-0.0510254-0.2125244-0.2833252-0.2125244-0.2833252   c0-0.0084839,0.0339966-0.0760498,0.0465088-0.1140747c0.0214844-0.0595703,0.0340576-0.1185913,0.0425415-0.173645   c0.1279907,0.1270752,0.1919556,0.3258057,0.1919556,0.4649658c0,0.74823-1.1751709,1.3739014-1.9332886,1.3739014   c-0.0084839,0-0.1149902-0.0085449-0.1660156-0.0170288c-0.0255127-0.0040283-0.1445313-0.029541-0.1445313-0.0715942   c0-0.059082,0.1489868-0.0971069,0.1575317-0.0971069c0.085022-0.0214844,0.0979614-0.0170288,0.1700439-0.0170288   c0.1235352,0,0.2600098,0.0250854,0.3790283,0.0675659c0.0170288,0.0040283,0.0340576,0.0170288,0.0469971,0.0170288   c0.0085449,0,0.0635986-0.0170288,0.0935669-0.0255127c-0.1830444-0.0845947-0.3706055-0.1351318-0.5491333-0.1351318   c-0.0640259,0-0.3960571,0.0125122-0.3960571,0.1986694c0,0.1987305,0.3705444,0.2027588,0.4511108,0.2027588   c0.1065063,0,0.2895508-0.0335693,0.3834839-0.0465698c-0.0084839,0.029541-0.0169678,0.0675659-0.0169678,0.0805664   c0,0.1181641,0.1700439,0.1266479,0.2295532,0.1266479c0.4940796,0,1.2817383-0.4689941,1.3286743-1.1201172v-0.1056519   c0-0.0125122-0.0044556-0.0125122-0.0044556-0.0169678c0.055481-0.1181641,0.0980225-0.2703247,0.0980225-0.3929443   C5.086792,11.8074951,5.0568237,11.6467896,5.0397949,11.6132202z M4.324646,12.9490967   c-0.1275635,0.1436768-0.2640381,0.1817017-0.3915405,0.2027588C4.0565796,13.0968018,4.192627,13.0291748,4.324646,12.9490967z    M3.6305542,13.4055786c-0.0125122,0-0.1190186,0-0.1190186-0.0380249c0-0.0210571,0.0339966-0.0891113,0.0639648-0.0971069   c0.0635376-0.0255737,0.2000732-0.0595703,0.2085571-0.0595703c0.0125122,0,0.1235352,0.0130005,0.1360474,0.0130005   c0.0084839,0,0.0894775-0.0044556,0.1364746-0.0170288c0.0550537-0.0129395,0.1235352-0.0380249,0.1870728-0.0760498   c0.0640259-0.0380249,0.1575317-0.1185913,0.2000732-0.1861572c0.0254517-0.0380249,0.0384521-0.088623,0.0684204-0.1226196   c0.0380859-0.0505981,0.1105347-0.0930786,0.170105-0.1477051c0.0595093-0.0595093,0.1194458-0.1226196,0.1744995-0.1901855   C4.7417603,13.0166626,4.0436401,13.4055786,3.6305542,13.4055786z" fill="#303C42" fill-rule="evenodd"/><path d="M22,4h-0.5v13.5c0,0.5512695-0.4487305,1-1,1H1V19c0,0.5512695,0.4487305,1,1,1h20   c0.5512695,0,1-0.4487305,1-1V5C23,4.4487305,22.5512695,4,22,4z" fill="#010101" opacity="0.1"/><linearGradient gradientUnits="userSpaceOnUse" id="SVGID_1_" x1="-0.7076151" x2="24.7076149" y1="6.0743418" y2="17.9256592"><stop offset="0" style="stop-color:#FFFFFF;stop-opacity:0.2"/><stop offset="1" style="stop-color:#FFFFFF;stop-opacity:0"/></linearGradient><path d="M22,3H2C0.8974609,3,0,3.8969727,0,5v14c0,1.1030273,0.8974609,2,2,2h20   c1.1025391,0,2-0.8969727,2-2V5C24,3.8969727,23.1025391,3,22,3z" fill="url(#SVGID_1_)"/></g><g/><g/><g/><g/><g/><g/><g/><g/><g/><g/><g/><g/><g/><g/><g/></svg>