<?xml version="1.0" ?><!DOCTYPE svg  PUBLIC '-//W3C//DTD SVG 1.1//EN'  'http://www.w3.org/Graphics/SVG/1.1/DTD/svg11.dtd'><svg height="140px" id="Layer_1" style="enable-background:new 0 0 140 140;" version="1.1" viewBox="0 0 140 140" width="140px" xml:space="preserve" xmlns="http://www.w3.org/2000/svg" xmlns:xlink="http://www.w3.org/1999/xlink"><style type="text/css">
<![CDATA[
	.st0{fill:#47BBF4;}
	.st1{fill:#7BEA06;}
	.st2{fill:#49E500;}
	.st3{fill:#7ED1B5;}
	.st4{fill:#1083DD;}
	.st5{fill:#7FBA0D;}
	.st6{fill:#E01726;}
	.st7{fill:#129AFF;}
	.st8{fill:#E2102E;}
	.st9{fill:#E2137A;}
	.st10{fill:#E2573B;}
	.st11{fill:#E2A60E;}
	.st12{fill:#E3443A;}
	.st13{fill:#1558BA;}
	.st14{fill:#159B81;}
	.st15{fill:#1644B7;}
	.st16{fill:#168BF4;}
	.st17{fill:#E51F32;}
	.st18{fill:#E6EFE8;}
	.st19{fill:#187FB8;}
	.st20{fill:#4C5054;}
	.st21{fill:#4C822A;}
	.st22{fill:#E8F9F8;}
	.st23{fill:#4F5459;}
	.st24{fill:#4FCCED;}
	.st25{fill:#B0C6C4;}
	.st26{fill:none;stroke:#33363A;stroke-width:3;stroke-linecap:round;stroke-linejoin:round;stroke-miterlimit:10;}
	.st27{fill:#859392;}
	.st28{fill:#1A68E5;}
	.st29{fill:#1A70F9;}
	.st30{fill:#1B8EED;}
	.st31{fill:#EA4606;}
	.st32{fill:#EA7B0C;}
	.st33{fill:#EAF4F9;}
	.st34{fill:#B70E10;}
	.st35{fill:#1CB1E6;}
	.st36{fill:#1CDDF7;}
	.st37{fill:#EDC211;}
	.st38{fill:#EF8114;}
	.st39{fill:#55932C;}
	.st40{fill:#569FEF;}
	.st41{fill:#BA30CE;}
	.st42{fill:#BA3A3A;}
	.st43{fill:#8CF41E;}
	.st44{fill:#59C96E;}
	.st45{fill:#8E0919;}
	.st46{fill:#20B5EC;}
	.st47{fill:#21CE52;}
	.st48{fill:#21D844;}
	.st49{fill:#F17250;}
	.st50{fill:#2364CE;}
	.st51{fill:#F2303F;}
	.st52{fill:#F24444;}
	.st53{fill:#F26B95;}
	.st54{fill:#F2A775;}
	.st55{fill:#2463FF;}
	.st56{fill:#24A9E6;}
	.st57{fill:#24AEF0;}
	.st58{fill:#F34B78;}
	.st59{fill:#25D600;}
	.st60{fill:#25D800;}
	.st61{fill:#F46300;}
	.st62{fill:#F4921E;}
	.st63{fill:#F4F1E6;}
	.st64{fill:#F72B2B;}
	.st65{fill:#F7441C;}
	.st66{fill:#F7851E;}
	.st67{fill:#5CAA4F;}
	.st68{fill:#F7A56D;}
	.st69{fill:#F7B257;}
	.st70{fill:#F7B92B;}
	.st71{fill:#F8571D;}
	.st72{fill:#F91D80;}
	.st73{fill:#F92E64;}
	.st74{fill:#F93838;}
	.st75{fill:#F9A121;}
	.st76{fill:#F9BD28;}
	.st77{fill:#F9D5AA;}
	.st78{fill:#5FB2A2;}
	.st79{fill:#9165B7;}
	.st80{fill:#95C675;}
	.st81{fill:#2A98F2;}
	.st82{fill:#2AC106;}
	.st83{fill:#C6232C;}
	.st84{fill:#C6402A;}
	.st85{fill:#FA7B7A;}
	.st86{fill:#FA9826;}
	.st87{fill:#2CC64D;}
	.st88{fill:#FB6620;}
	.st89{fill:#C7D5E0;}
	.st90{fill:#C8131A;}
	.st91{fill:#2DB487;}
	.st92{fill:#FC732D;}
	.st93{fill:#C8D8E8;}
	.st94{fill:#2ED3FF;}
	.st95{fill:#FF0DA9;}
	.st96{fill:#FF4743;}
	.st97{fill:#FF6155;}
	.st98{fill:#FF7639;}
	.st99{fill:#FF7676;}
	.st100{fill:#FF88AD;}
	.st101{fill:#FF9064;}
	.st102{fill:#FFA506;}
	.st103{fill:#FFBE8D;}
	.st104{fill:#FFEB5A;}
	.st105{fill:#FFF19C;}
	.st106{fill:#FFFDF5;}
	.st107{fill:#FFFFFF;}
	.st108{fill:#63C605;}
	.st109{fill:#64C0FF;}
	.st110{fill:#66A00A;}
	.st111{fill:#CAFFE9;}
	.st112{fill:#680719;}
	.st113{fill:none;stroke:#FCE2AE;stroke-width:3;stroke-linecap:round;stroke-linejoin:round;stroke-miterlimit:10;}
	.st114{fill:#CC2414;}
	.st115{fill:#CC4521;}
	.st116{fill:#9DEACE;}
	.st117{fill:#303030;}
	.st118{fill:#CE1721;}
	.st119{fill:#33363A;}
	.st120{fill:#337BD1;}
	.st121{fill:#6A7C7C;}
	.st122{fill:#37D660;}
	.st123{fill:#384948;}
	.st124{fill:#38B4F9;}
	.st125{fill:#6CA9EA;}
	.st126{fill:#6D8599;}
	.st127{fill:#0097E2;}
	.st128{fill:#00997C;}
	.st129{fill:#00A4DD;}
	.st130{fill:#0399FF;}
	.st131{fill:#D33F26;}
	.st132{fill:#0695ED;}
	.st133{fill:#0779EA;}
	.st134{fill:#079332;}
	.st135{fill:#D6381E;}
	.st136{fill:#3BAA00;}
	.st137{fill:#D6E5EA;}
	.st138{fill:#D6E7EA;}
	.st139{fill:#08A548;}
	.st140{fill:#08BC26;}
	.st141{fill:#D80B0B;}
	.st142{fill:#D8532B;}
	.st143{fill:#3DC8F9;}
	.st144{fill:#3E77BF;}
	.st145{fill:#3E8AF7;}
	.st146{fill:#D9E5ED;}
	.st147{fill:#72818E;}
	.st148{fill:#0A78DD;}
	.st149{fill:#0A8CDD;}
	.st150{fill:#A52D21;}
	.st151{fill:#76CEFF;}
	.st152{fill:#76DB00;}
	.st153{fill:#0C86EA;}
	.st154{fill:#DB0F4E;}
	.st155{fill:#A7B7B6;}
	.st156{fill:#0DBA5B;}
	.st157{fill:#79B259;}
	.st158{fill:#0E73D8;}
	.st159{fill:#0E78D8;}
	.st160{fill:#0E8971;}
	.st161{fill:#A981D3;}
	.st162{fill:#DD4B4B;}
	.st163{fill:#4087ED;}
	.st164{fill:#40A557;}
	.st165{fill:#40E269;}
	.st166{fill:#DFC7FF;}
	.st167{fill:#DFEFEF;}
	.st168{fill:#44FCB6;}
]]>
</style><g><g><g><rect class="st3" height="17.167" transform="matrix(-0.3175 -0.9482 0.9482 -0.3175 25.8541 158.6055)" width="16.521" x="61.741" y="61.415"/><path class="st3" d="M53.255,14.191C11.403,26.746,1.634,44.883,14.191,86.744c12.558,41.854,30.699,51.623,72.551,39.062     c41.857-12.559,51.624-30.697,39.066-72.551C113.256,11.396,95.113,1.635,53.255,14.191z M104.639,80.432l-7.89,2.639l2.732,8.17     c1.108,3.303-0.673,6.883-3.982,7.99c-0.72,0.24-1.449,0.344-2.166,0.326c-2.579-0.066-4.959-1.721-5.825-4.309l-2.736-8.166     l-16.274,5.453l2.734,8.164c1.108,3.307-0.676,6.887-3.98,7.994c-0.721,0.238-1.453,0.344-2.166,0.324     c-2.582-0.066-4.961-1.721-5.826-4.305l-2.737-8.172l-7.892,2.648c-0.719,0.236-1.453,0.342-2.17,0.322     c-2.578-0.066-4.956-1.721-5.823-4.307c-1.106-3.307,0.674-6.887,3.982-7.994l7.896-2.646l-5.249-15.662l-7.892,2.645     c-0.722,0.24-1.451,0.344-2.172,0.326c-2.575-0.066-4.955-1.723-5.821-4.312c-1.107-3.301,0.677-6.881,3.978-7.988l7.896-2.648     l-2.736-8.164c-1.108-3.307,0.673-6.889,3.982-7.992c3.308-1.105,6.887,0.678,7.995,3.982l2.732,8.168l16.279-5.451l-2.74-8.166     c-1.107-3.309,0.681-6.887,3.981-7.994c3.309-1.107,6.889,0.678,7.996,3.982l2.732,8.166l7.896-2.643     c3.31-1.107,6.882,0.678,7.99,3.982c1.107,3.307-0.674,6.885-3.982,7.992l-7.892,2.643l5.245,15.67l7.896-2.648     c3.305-1.104,6.885,0.678,7.992,3.982C109.731,75.742,107.946,79.322,104.639,80.432z"/></g><rect class="st116" height="17.167" transform="matrix(-0.3175 -0.9482 0.9482 -0.3175 25.8541 158.6055)" width="16.521" x="61.741" y="61.415"/><g><g><path class="st78" d="M69.084,40.244c-0.699,1.436-0.862,3.135-0.316,4.766l1.019,3.035l1.722-0.578L69.084,40.244z"/><path class="st78" d="M40.834,49.701c-0.698,1.436-0.861,3.133-0.315,4.77l1.015,3.031l1.722-0.578L40.834,49.701z"/><path class="st78" d="M104.639,80.432l-7.89,2.639l1.718,5.137l6.172-2.066c3.308-1.107,5.093-4.688,3.984-7.996      c-0.101-0.295-0.238-0.559-0.375-0.826C107.521,78.734,106.27,79.883,104.639,80.432z"/><path class="st116" d="M53.255,19.902c41.858-12.557,60.001-2.797,72.554,39.062c2.943,9.818,4.646,18.318,5.007,25.756      c0.466-8.717-1.278-19.039-5.007-31.465C113.256,11.396,95.113,1.635,53.255,14.191C21.218,23.803,7.998,36.699,9.185,60.984      C10.276,40.33,23.826,28.727,53.255,19.902z"/><path class="st78" d="M95.381,52.787l-7.892,2.643l1.722,5.135l6.17-2.066c3.309-1.109,5.09-4.686,3.982-7.994      c-0.098-0.293-0.238-0.557-0.372-0.828C98.262,51.096,97.009,52.244,95.381,52.787z"/><path class="st78" d="M31.381,73.271c0.866,2.59,3.246,4.244,5.821,4.311c0.721,0.02,1.45-0.084,2.172-0.326l7.892-2.645      l3.528,10.529l1.721-0.576l-5.249-15.662l-7.892,2.645c-0.722,0.24-1.451,0.344-2.172,0.326      c-2.277-0.061-4.402-1.367-5.461-3.461C31.002,69.865,30.82,71.605,31.381,73.271z"/><path class="st78" d="M95.499,99.23c-0.72,0.24-1.449,0.344-2.166,0.326c-2.579-0.066-4.959-1.721-5.825-4.309l-2.736-8.166      l-16.274,5.453l1.721,5.133l14.554-4.877l2.736,8.168c0.866,2.586,3.246,4.24,5.825,4.307c0.717,0.02,1.446-0.084,2.166-0.324      c3.31-1.109,5.091-4.688,3.982-7.99l-0.316-0.943C98.452,97.475,97.173,98.668,95.499,99.23z"/><path class="st78" d="M67.251,108.693c-0.721,0.238-1.453,0.344-2.166,0.324c-2.582-0.066-4.961-1.721-5.826-4.305l-2.737-8.172      l-7.892,2.648c-0.719,0.236-1.453,0.342-2.17,0.322c-2.28-0.059-4.402-1.367-5.461-3.461c-0.74,1.457-0.924,3.193-0.362,4.863      c0.867,2.586,3.245,4.24,5.823,4.309c0.717,0.018,1.451-0.086,2.17-0.324l7.892-2.646l2.737,8.172      c0.865,2.584,3.244,4.238,5.826,4.305c0.713,0.018,1.445-0.086,2.166-0.324c3.305-1.107,5.089-4.688,3.98-7.996l-0.315-0.939      C70.199,106.939,68.924,108.133,67.251,108.693z"/></g></g></g><g><path class="st26" d="M129.901,70.5c-0.023-0.152-0.053-0.309-0.079-0.461c-0.176-1.064-0.373-2.146-0.593-3.25    c-0.065-0.328-0.134-0.662-0.203-0.994c-0.198-0.953-0.413-1.922-0.642-2.904c-0.094-0.404-0.187-0.807-0.286-1.215    c-0.238-0.979-0.494-1.975-0.762-2.98c-0.104-0.395-0.201-0.783-0.311-1.182c-0.381-1.395-0.783-2.809-1.218-4.258    C113.256,11.396,95.113,1.635,53.255,14.191c-1.18,0.355-2.326,0.715-3.454,1.078c-0.347,0.111-0.686,0.225-1.027,0.336    c-0.796,0.264-1.58,0.527-2.352,0.793c-0.358,0.125-0.717,0.25-1.069,0.375c-0.844,0.299-1.669,0.604-2.481,0.91    c-0.22,0.082-0.446,0.164-0.664,0.248c-0.982,0.377-1.936,0.76-2.871,1.15c-0.331,0.137-0.651,0.277-0.977,0.416    c-0.617,0.264-1.227,0.529-1.822,0.799c-0.369,0.168-0.736,0.336-1.098,0.504c-0.56,0.262-1.107,0.529-1.649,0.797    c-0.33,0.162-0.667,0.324-0.99,0.488c-0.777,0.398-1.534,0.801-2.271,1.211c-0.347,0.191-0.678,0.391-1.017,0.586    c-0.426,0.248-0.85,0.496-1.262,0.746c-0.373,0.229-0.74,0.459-1.102,0.691c-0.355,0.229-0.703,0.459-1.049,0.691    c-0.363,0.244-0.729,0.488-1.079,0.736c-0.327,0.232-0.64,0.469-0.955,0.705c-0.634,0.471-1.246,0.951-1.838,1.439    c-0.243,0.201-0.492,0.4-0.729,0.605c-0.354,0.307-0.694,0.617-1.033,0.928c-0.209,0.195-0.416,0.389-0.62,0.586    c-0.343,0.33-0.683,0.66-1.007,0.996c-0.138,0.143-0.268,0.289-0.403,0.436c-0.713,0.76-1.386,1.541-2.015,2.342    c-0.057,0.072-0.116,0.143-0.172,0.213c-0.312,0.404-0.604,0.816-0.896,1.229c-0.106,0.152-0.212,0.305-0.315,0.455    c-0.286,0.424-0.564,0.85-0.829,1.281c-0.06,0.1-0.117,0.203-0.177,0.303c-0.871,1.463-1.624,2.988-2.26,4.58    c-0.035,0.09-0.072,0.176-0.106,0.266c-0.205,0.527-0.398,1.062-0.578,1.604c-0.021,0.064-0.041,0.129-0.062,0.193    c-0.761,2.338-1.292,4.818-1.599,7.453c-0.003,0.027-0.006,0.057-0.009,0.084c-1.062,9.293,0.634,20.5,4.772,34.299    c12.558,41.854,30.699,51.623,72.551,39.062C122.337,115.129,134.714,100.402,129.901,70.5z M108.25,77.324    c-0.001-0.004-0.001-0.004-0.002-0.006c-0.727,1.416-1.979,2.564-3.609,3.113l-7.89,2.639l2.732,8.17    c0.549,1.635,0.387,3.336-0.314,4.773l-0.002-0.006c-0.713,1.467-1.992,2.66-3.666,3.223c-0.72,0.24-1.449,0.344-2.166,0.326    c-2.579-0.066-4.959-1.721-5.825-4.309l-2.736-8.166l-16.274,5.453l2.734,8.164c0.548,1.635,0.387,3.336-0.314,4.773l-0.001-0.004    c-0.717,1.471-1.992,2.664-3.665,3.225c-0.721,0.238-1.453,0.344-2.166,0.324c-2.582-0.066-4.961-1.721-5.826-4.305l-2.737-8.172    l-7.892,2.648c-0.719,0.236-1.453,0.342-2.17,0.322c-0.304-0.008-0.605-0.041-0.901-0.092c-0.105-0.02-0.206-0.051-0.31-0.072    c-0.188-0.043-0.375-0.086-0.557-0.146c-0.127-0.041-0.25-0.092-0.373-0.141c-0.15-0.059-0.299-0.119-0.443-0.189    c-0.136-0.064-0.267-0.139-0.396-0.215c-0.122-0.068-0.242-0.143-0.358-0.221c-0.138-0.092-0.271-0.189-0.401-0.293    c-0.097-0.074-0.189-0.154-0.282-0.238c-0.134-0.119-0.267-0.24-0.392-0.373c-0.071-0.076-0.138-0.158-0.207-0.24    c-0.129-0.148-0.257-0.301-0.371-0.463c-0.044-0.062-0.08-0.131-0.122-0.195c-0.122-0.189-0.243-0.379-0.347-0.582l-0.001,0.002    c-0.138-0.271-0.263-0.553-0.361-0.848c-1.106-3.307,0.674-6.887,3.982-7.994l7.896-2.646l-5.249-15.662l-7.892,2.645    c-0.722,0.24-1.451,0.344-2.172,0.326c-0.303-0.008-0.604-0.043-0.899-0.094c-0.109-0.018-0.214-0.049-0.322-0.074    c-0.183-0.041-0.364-0.084-0.543-0.143c-0.129-0.041-0.253-0.094-0.379-0.143c-0.148-0.059-0.296-0.119-0.439-0.188    c-0.133-0.066-0.263-0.139-0.393-0.213c-0.125-0.072-0.249-0.148-0.368-0.229c-0.131-0.088-0.261-0.18-0.385-0.279    c-0.106-0.084-0.209-0.172-0.31-0.262c-0.123-0.111-0.246-0.223-0.36-0.344c-0.09-0.094-0.173-0.197-0.258-0.297    c-0.11-0.131-0.222-0.262-0.321-0.402c-0.074-0.105-0.138-0.219-0.206-0.328c-0.093-0.152-0.191-0.299-0.273-0.459    c-0.138-0.273-0.264-0.559-0.364-0.859c-1.107-3.301,0.677-6.881,3.978-7.988l7.896-2.648l-2.421-7.223l0,0l-0.315-0.941    c-1.108-3.307,0.673-6.889,3.982-7.992c3.308-1.105,6.887,0.678,7.995,3.982l2.732,8.168l14.558-4.873l0,0l1.722-0.578    l-2.74-8.166c-1.107-3.309,0.681-6.887,3.981-7.994c3.309-1.107,6.889,0.678,7.996,3.982l2.732,8.166l7.896-2.643    c3.31-1.107,6.882,0.678,7.99,3.982c0.562,1.68,0.377,3.426-0.37,4.885c-0.001,0-0.001-0.002-0.002-0.004    c-0.546,1.062-1.387,1.975-2.457,2.592c-0.006,0.006-0.014,0.008-0.02,0.01c-0.354,0.205-0.732,0.377-1.134,0.51l-7.892,2.643    l5.245,15.67l7.896-2.648c3.305-1.104,6.885,0.678,7.992,3.982C109.186,74.113,109,75.863,108.25,77.324z"/><rect class="st26" height="17.167" transform="matrix(-0.3175 -0.9482 0.9482 -0.3175 25.8541 158.6055)" width="16.521" x="61.741" y="61.415"/></g></g></svg>