<?xml version="1.0" ?><!DOCTYPE svg  PUBLIC '-//W3C//DTD SVG 1.1//EN'  'http://www.w3.org/Graphics/SVG/1.1/DTD/svg11.dtd'><svg height="140px" id="Layer_1" style="enable-background:new 0 0 140 140;" version="1.1" viewBox="0 0 140 140" width="140px" xml:space="preserve" xmlns="http://www.w3.org/2000/svg" xmlns:xlink="http://www.w3.org/1999/xlink"><style type="text/css">
<![CDATA[
	.st0{fill:#47BBF4;}
	.st1{fill:#7BEA06;}
	.st2{fill:#49E500;}
	.st3{fill:#7ED1B5;}
	.st4{fill:#1083DD;}
	.st5{fill:#7FBA0D;}
	.st6{fill:#E01726;}
	.st7{fill:#129AFF;}
	.st8{fill:#E2102E;}
	.st9{fill:#E2137A;}
	.st10{fill:#E2573B;}
	.st11{fill:#E2A60E;}
	.st12{fill:#E3443A;}
	.st13{fill:#1558BA;}
	.st14{fill:#159B81;}
	.st15{fill:#1644B7;}
	.st16{fill:#168BF4;}
	.st17{fill:#E51F32;}
	.st18{fill:#E6EFE8;}
	.st19{fill:#187FB8;}
	.st20{fill:#4C5054;}
	.st21{fill:#4C822A;}
	.st22{fill:#E8F9F8;}
	.st23{fill:#4F5459;}
	.st24{fill:#4FCCED;}
	.st25{fill:#B0C6C4;}
	.st26{fill:none;stroke:#33363A;stroke-width:3;stroke-linecap:round;stroke-linejoin:round;stroke-miterlimit:10;}
	.st27{fill:#859392;}
	.st28{fill:#1A68E5;}
	.st29{fill:#1A70F9;}
	.st30{fill:#1B8EED;}
	.st31{fill:#EA4606;}
	.st32{fill:#EA7B0C;}
	.st33{fill:#EAF4F9;}
	.st34{fill:#B70E10;}
	.st35{fill:#1CB1E6;}
	.st36{fill:#1CDDF7;}
	.st37{fill:#EDC211;}
	.st38{fill:#EF8114;}
	.st39{fill:#55932C;}
	.st40{fill:#569FEF;}
	.st41{fill:#BA30CE;}
	.st42{fill:#BA3A3A;}
	.st43{fill:#8CF41E;}
	.st44{fill:#59C96E;}
	.st45{fill:#8E0919;}
	.st46{fill:#20B5EC;}
	.st47{fill:#21CE52;}
	.st48{fill:#21D844;}
	.st49{fill:#F17250;}
	.st50{fill:#2364CE;}
	.st51{fill:#F2303F;}
	.st52{fill:#F24444;}
	.st53{fill:#F26B95;}
	.st54{fill:#F2A775;}
	.st55{fill:#2463FF;}
	.st56{fill:#24A9E6;}
	.st57{fill:#24AEF0;}
	.st58{fill:#F34B78;}
	.st59{fill:#25D600;}
	.st60{fill:#25D800;}
	.st61{fill:#F46300;}
	.st62{fill:#F4921E;}
	.st63{fill:#F4F1E6;}
	.st64{fill:#F72B2B;}
	.st65{fill:#F7441C;}
	.st66{fill:#F7851E;}
	.st67{fill:#5CAA4F;}
	.st68{fill:#F7A56D;}
	.st69{fill:#F7B257;}
	.st70{fill:#F7B92B;}
	.st71{fill:#F8571D;}
	.st72{fill:#F91D80;}
	.st73{fill:#F92E64;}
	.st74{fill:#F93838;}
	.st75{fill:#F9A121;}
	.st76{fill:#F9BD28;}
	.st77{fill:#F9D5AA;}
	.st78{fill:#5FB2A2;}
	.st79{fill:#9165B7;}
	.st80{fill:#95C675;}
	.st81{fill:#2A98F2;}
	.st82{fill:#2AC106;}
	.st83{fill:#C6232C;}
	.st84{fill:#C6402A;}
	.st85{fill:#FA7B7A;}
	.st86{fill:#FA9826;}
	.st87{fill:#2CC64D;}
	.st88{fill:#FB6620;}
	.st89{fill:#C7D5E0;}
	.st90{fill:#C8131A;}
	.st91{fill:#2DB487;}
	.st92{fill:#FC732D;}
	.st93{fill:#C8D8E8;}
	.st94{fill:#2ED3FF;}
	.st95{fill:#FF0DA9;}
	.st96{fill:#FF4743;}
	.st97{fill:#FF6155;}
	.st98{fill:#FF7639;}
	.st99{fill:#FF7676;}
	.st100{fill:#FF88AD;}
	.st101{fill:#FF9064;}
	.st102{fill:#FFA506;}
	.st103{fill:#FFBE8D;}
	.st104{fill:#FFEB5A;}
	.st105{fill:#FFF19C;}
	.st106{fill:#FFFDF5;}
	.st107{fill:#FFFFFF;}
	.st108{fill:#63C605;}
	.st109{fill:#64C0FF;}
	.st110{fill:#66A00A;}
	.st111{fill:#CAFFE9;}
	.st112{fill:#680719;}
	.st113{fill:none;stroke:#FCE2AE;stroke-width:3;stroke-linecap:round;stroke-linejoin:round;stroke-miterlimit:10;}
	.st114{fill:#CC2414;}
	.st115{fill:#CC4521;}
	.st116{fill:#9DEACE;}
	.st117{fill:#303030;}
	.st118{fill:#CE1721;}
	.st119{fill:#33363A;}
	.st120{fill:#337BD1;}
	.st121{fill:#6A7C7C;}
	.st122{fill:#37D660;}
	.st123{fill:#384948;}
	.st124{fill:#38B4F9;}
	.st125{fill:#6CA9EA;}
	.st126{fill:#6D8599;}
	.st127{fill:#0097E2;}
	.st128{fill:#00997C;}
	.st129{fill:#00A4DD;}
	.st130{fill:#0399FF;}
	.st131{fill:#D33F26;}
	.st132{fill:#0695ED;}
	.st133{fill:#0779EA;}
	.st134{fill:#079332;}
	.st135{fill:#D6381E;}
	.st136{fill:#3BAA00;}
	.st137{fill:#D6E5EA;}
	.st138{fill:#D6E7EA;}
	.st139{fill:#08A548;}
	.st140{fill:#08BC26;}
	.st141{fill:#D80B0B;}
	.st142{fill:#D8532B;}
	.st143{fill:#3DC8F9;}
	.st144{fill:#3E77BF;}
	.st145{fill:#3E8AF7;}
	.st146{fill:#D9E5ED;}
	.st147{fill:#72818E;}
	.st148{fill:#0A78DD;}
	.st149{fill:#0A8CDD;}
	.st150{fill:#A52D21;}
	.st151{fill:#76CEFF;}
	.st152{fill:#76DB00;}
	.st153{fill:#0C86EA;}
	.st154{fill:#DB0F4E;}
	.st155{fill:#A7B7B6;}
	.st156{fill:#0DBA5B;}
	.st157{fill:#79B259;}
	.st158{fill:#0E73D8;}
	.st159{fill:#0E78D8;}
	.st160{fill:#0E8971;}
	.st161{fill:#A981D3;}
	.st162{fill:#DD4B4B;}
	.st163{fill:#4087ED;}
	.st164{fill:#40A557;}
	.st165{fill:#40E269;}
	.st166{fill:#DFC7FF;}
	.st167{fill:#DFEFEF;}
	.st168{fill:#44FCB6;}
]]>
</style><g><g><g><path class="st107" d="M125.459,75.262c0-29.862-24.551-54.078-54.85-54.078c-3.189,0-6.324,0.274-9.377,0.794     c-4.904-3.047-10.707-4.813-16.922-4.813c-17.572,0-31.811,14.038-31.811,31.368c0,5.787,1.598,11.199,4.369,15.865     c-0.723,3.506-1.109,7.145-1.109,10.864c0,29.877,24.559,54.086,54.85,54.086c3.436,0,6.789-0.314,10.049-0.908     c4.48,2.374,9.594,3.726,15.037,3.726c17.564,0,31.805-14.044,31.805-31.361c0-5.005-1.188-9.732-3.305-13.93     C125.027,83.129,125.459,79.248,125.459,75.262z M98.746,101.112c-2.537,3.546-6.283,6.347-11.152,8.333     c-4.807,1.972-10.568,2.977-17.133,2.977c-7.879,0-14.482-1.367-19.641-4.065c-3.686-1.959-6.723-4.612-9.029-7.906     c-2.332-3.305-3.508-6.592-3.508-9.771c0-1.974,0.77-3.693,2.283-5.101c1.502-1.398,3.43-2.099,5.729-2.099     c1.879,0,3.51,0.554,4.828,1.653c1.266,1.06,2.346,2.627,3.217,4.632c0.977,2.201,2.029,4.054,3.145,5.5     c1.084,1.413,2.631,2.594,4.605,3.52c1.988,0.919,4.672,1.398,7.967,1.398c4.535,0,8.252-0.959,11.049-2.838     c2.736-1.834,4.061-4.044,4.061-6.752c0-2.126-0.695-3.807-2.111-5.125c-1.506-1.372-3.473-2.439-5.861-3.187     c-2.494-0.76-5.875-1.593-10.061-2.458c-5.699-1.201-10.533-2.62-14.373-4.24c-3.936-1.647-7.105-3.932-9.426-6.792     c-2.352-2.914-3.551-6.56-3.551-10.846c0-4.079,1.252-7.766,3.725-10.938c2.449-3.152,6.033-5.619,10.65-7.292     c4.551-1.659,9.957-2.5,16.092-2.5c4.896,0,9.205,0.562,12.805,1.667c3.613,1.107,6.656,2.601,9.051,4.447     c2.412,1.866,4.213,3.846,5.332,5.912c1.137,2.086,1.719,4.16,1.719,6.169c0,1.93-0.754,3.69-2.25,5.216     c-1.5,1.546-3.4,2.326-5.633,2.326c-2.029,0-3.625-0.492-4.719-1.453c-1.031-0.898-2.098-2.298-3.279-4.3     c-1.367-2.558-3.025-4.578-4.922-6.003c-1.848-1.387-4.926-2.08-9.166-2.08c-3.92,0-7.125,0.773-9.5,2.312     c-2.283,1.473-3.398,3.173-3.398,5.186c0,1.226,0.357,2.26,1.102,3.141c0.771,0.946,1.873,1.759,3.268,2.452     c1.439,0.714,2.93,1.286,4.412,1.687c1.525,0.42,4.078,1.04,7.588,1.838c4.443,0.934,8.521,1.994,12.123,3.135     c3.656,1.146,6.809,2.558,9.391,4.219c2.625,1.687,4.701,3.846,6.18,6.432c1.484,2.605,2.234,5.805,2.234,9.532     C102.586,93.499,101.289,97.559,98.746,101.112z"/></g><g><path class="st89" d="M125.459,70.31c0-29.861-24.551-54.077-54.85-54.077c-3.189,0-6.324,0.273-9.377,0.793     c-4.904-3.046-10.707-4.812-16.922-4.812c-17.572,0-31.811,14.037-31.811,31.367c0,5.788,1.598,11.2,4.369,15.864     c-0.723,3.507-1.109,7.146-1.109,10.865c0,29.877,24.559,54.085,54.85,54.085c3.436,0,6.789-0.313,10.049-0.907     c4.48,2.375,9.594,3.726,15.037,3.726c17.564,0,31.805-14.043,31.805-31.362c0-5.004-1.188-9.732-3.305-13.93     C125.027,78.177,125.459,74.297,125.459,70.31z M98.746,96.16c-2.537,3.546-6.283,6.347-11.152,8.334     c-4.807,1.972-10.568,2.976-17.133,2.976c-7.879,0-14.482-1.367-19.641-4.065c-3.686-1.959-6.723-4.611-9.029-7.906     c-2.332-3.305-3.508-6.592-3.508-9.771c0-1.973,0.77-3.693,2.283-5.1c1.502-1.398,3.43-2.099,5.729-2.099     c1.879,0,3.51,0.555,4.828,1.653c1.266,1.06,2.346,2.627,3.217,4.633c0.977,2.2,2.029,4.053,3.145,5.499     c1.084,1.413,2.631,2.594,4.605,3.52c1.988,0.92,4.672,1.399,7.967,1.399c4.535,0,8.252-0.959,11.049-2.839     c2.736-1.834,4.061-4.044,4.061-6.752c0-2.125-0.695-3.806-2.111-5.125c-1.506-1.372-3.473-2.439-5.861-3.187     c-2.494-0.76-5.875-1.594-10.061-2.458c-5.699-1.201-10.533-2.62-14.373-4.24c-3.936-1.646-7.105-3.932-9.426-6.791     c-2.352-2.914-3.551-6.561-3.551-10.846c0-4.079,1.252-7.766,3.725-10.939c2.449-3.152,6.033-5.619,10.65-7.292     c4.551-1.66,9.957-2.5,16.092-2.5c4.896,0,9.205,0.562,12.805,1.667c3.613,1.107,6.656,2.6,9.051,4.446     c2.412,1.866,4.213,3.846,5.332,5.913c1.137,2.085,1.719,4.159,1.719,6.168c0,1.93-0.754,3.69-2.25,5.217     c-1.5,1.546-3.4,2.325-5.633,2.325c-2.029,0-3.625-0.492-4.719-1.453c-1.031-0.899-2.098-2.299-3.279-4.3     c-1.367-2.558-3.025-4.579-4.922-6.004c-1.848-1.387-4.926-2.08-9.166-2.08c-3.92,0-7.125,0.774-9.5,2.313     c-2.283,1.472-3.398,3.172-3.398,5.185c0,1.226,0.357,2.26,1.102,3.14c0.771,0.946,1.873,1.759,3.268,2.453     c1.439,0.713,2.93,1.285,4.412,1.686c1.525,0.421,4.078,1.041,7.588,1.838c4.443,0.934,8.521,1.994,12.123,3.134     c3.656,1.146,6.809,2.559,9.391,4.219c2.625,1.688,4.701,3.847,6.18,6.433c1.484,2.605,2.234,5.805,2.234,9.533     C102.586,88.548,101.289,92.606,98.746,96.16z"/></g><g><path class="st26" d="M125.459,75.262c0-29.862-24.551-54.078-54.85-54.078c-3.189,0-6.324,0.274-9.377,0.794     c-4.904-3.047-10.707-4.813-16.922-4.813c-17.572,0-31.811,14.038-31.811,31.368c0,5.787,1.598,11.199,4.369,15.865     c-0.723,3.506-1.109,7.145-1.109,10.864c0,29.877,24.559,54.086,54.85,54.086c3.436,0,6.789-0.314,10.049-0.908     c4.48,2.374,9.594,3.726,15.037,3.726c17.564,0,31.805-14.044,31.805-31.361c0-5.005-1.188-9.732-3.305-13.93     C125.027,83.129,125.459,79.248,125.459,75.262z M98.746,101.112c-2.537,3.546-6.283,6.347-11.152,8.333     c-4.807,1.972-10.568,2.977-17.133,2.977c-7.879,0-14.482-1.367-19.641-4.065c-3.686-1.959-6.723-4.612-9.029-7.906     c-2.332-3.305-3.508-6.592-3.508-9.771c0-1.974,0.77-3.693,2.283-5.101c1.502-1.398,3.43-2.099,5.729-2.099     c1.879,0,3.51,0.554,4.828,1.653c1.266,1.06,2.346,2.627,3.217,4.632c0.977,2.201,2.029,4.054,3.145,5.5     c1.084,1.413,2.631,2.594,4.605,3.52c1.988,0.919,4.672,1.398,7.967,1.398c4.535,0,8.252-0.959,11.049-2.838     c2.736-1.834,4.061-4.044,4.061-6.752c0-2.126-0.695-3.807-2.111-5.125c-1.506-1.372-3.473-2.439-5.861-3.187     c-2.494-0.76-5.875-1.593-10.061-2.458c-5.699-1.201-10.533-2.62-14.373-4.24c-3.936-1.647-7.105-3.932-9.426-6.792     c-2.352-2.914-3.551-6.56-3.551-10.846c0-4.079,1.252-7.766,3.725-10.938c2.449-3.152,6.033-5.619,10.65-7.292     c4.551-1.659,9.957-2.5,16.092-2.5c4.896,0,9.205,0.562,12.805,1.667c3.613,1.107,6.656,2.601,9.051,4.447     c2.412,1.866,4.213,3.846,5.332,5.912c1.137,2.086,1.719,4.16,1.719,6.169c0,1.93-0.754,3.69-2.25,5.216     c-1.5,1.546-3.4,2.326-5.633,2.326c-2.029,0-3.625-0.492-4.719-1.453c-1.031-0.898-2.098-2.298-3.279-4.3     c-1.367-2.558-3.025-4.578-4.922-6.003c-1.848-1.387-4.926-2.08-9.166-2.08c-3.92,0-7.125,0.773-9.5,2.312     c-2.283,1.473-3.398,3.173-3.398,5.186c0,1.226,0.357,2.26,1.102,3.141c0.771,0.946,1.873,1.759,3.268,2.452     c1.439,0.714,2.93,1.286,4.412,1.687c1.525,0.42,4.078,1.04,7.588,1.838c4.443,0.934,8.521,1.994,12.123,3.135     c3.656,1.146,6.809,2.558,9.391,4.219c2.625,1.687,4.701,3.846,6.18,6.432c1.484,2.605,2.234,5.805,2.234,9.532     C102.586,93.499,101.289,97.559,98.746,101.112z"/></g></g><circle class="st89" cx="70.107" cy="67.274" r="43.537"/><path class="st107" d="M98.746,96.006c-2.537,3.546-6.283,6.347-11.152,8.333c-4.807,1.972-10.568,2.977-17.133,2.977   c-7.879,0-14.482-1.366-19.641-4.065c-3.686-1.958-6.723-4.611-9.029-7.906c-2.332-3.305-3.508-6.592-3.508-9.771   c0-1.973,0.77-3.692,2.283-5.1c1.502-1.398,3.43-2.099,5.729-2.099c1.879,0,3.51,0.555,4.828,1.652   c1.266,1.061,2.346,2.627,3.217,4.633c0.977,2.201,2.029,4.053,3.145,5.5c1.084,1.412,2.631,2.594,4.605,3.52   c1.988,0.92,4.672,1.399,7.967,1.399c4.535,0,8.252-0.96,11.049-2.84c2.736-1.834,4.061-4.045,4.061-6.752   c0-2.125-0.695-3.806-2.111-5.125c-1.506-1.372-3.473-2.439-5.861-3.187c-2.494-0.76-5.875-1.594-10.061-2.459   c-5.699-1.2-10.533-2.62-14.373-4.239c-3.936-1.647-7.105-3.933-9.426-6.792c-2.352-2.913-3.551-6.559-3.551-10.845   c0-4.079,1.252-7.766,3.725-10.938c2.449-3.152,6.033-5.619,10.65-7.292c4.551-1.66,9.957-2.5,16.092-2.5   c4.896,0,9.205,0.562,12.805,1.667c3.613,1.107,6.656,2.601,9.051,4.446c2.412,1.865,4.213,3.847,5.332,5.912   c1.137,2.086,1.719,4.16,1.719,6.169c0,1.93-0.754,3.69-2.25,5.216c-1.5,1.546-3.4,2.325-5.633,2.325   c-2.029,0-3.625-0.491-4.719-1.452c-1.031-0.898-2.098-2.299-3.279-4.3c-1.367-2.559-3.025-4.579-4.922-6.004   c-1.848-1.387-4.926-2.08-9.166-2.08c-3.92,0-7.125,0.774-9.5,2.312c-2.283,1.472-3.398,3.173-3.398,5.186   c0,1.226,0.357,2.261,1.102,3.141c0.771,0.946,1.873,1.758,3.268,2.452c1.439,0.713,2.93,1.285,4.412,1.687   c1.525,0.42,4.078,1.04,7.588,1.838c4.443,0.934,8.521,1.994,12.123,3.134c3.656,1.147,6.809,2.558,9.391,4.219   c2.625,1.687,4.701,3.846,6.18,6.433c1.484,2.605,2.234,5.805,2.234,9.532C102.586,88.395,101.289,92.453,98.746,96.006z"/><g><g><path class="st153" d="M125.459,65.931c0-29.86-24.551-54.077-54.85-54.077c-3.189,0-6.324,0.273-9.377,0.794     c-4.904-3.046-10.707-4.813-16.922-4.813C26.738,7.834,12.5,21.872,12.5,39.202c0,5.787,1.598,11.199,4.369,15.865     c-0.723,3.506-1.109,7.146-1.109,10.863c0,29.878,24.559,54.085,54.85,54.085c3.436,0,6.789-0.312,10.049-0.906     c4.48,2.374,9.594,3.725,15.037,3.725c17.564,0,31.805-14.043,31.805-31.361c0-5.005-1.188-9.732-3.305-13.929     C125.027,73.797,125.459,69.918,125.459,65.931z M98.746,91.78c-2.537,3.547-6.283,6.347-11.152,8.334     c-4.807,1.972-10.568,2.978-17.133,2.978c-7.879,0-14.482-1.367-19.641-4.066c-3.686-1.959-6.723-4.611-9.029-7.905     c-2.332-3.305-3.508-6.592-3.508-9.772c0-1.973,0.77-3.692,2.283-5.1c1.502-1.398,3.43-2.1,5.729-2.1     c1.879,0,3.51,0.556,4.828,1.654c1.266,1.059,2.346,2.626,3.217,4.632c0.977,2.201,2.029,4.054,3.145,5.5     c1.084,1.413,2.631,2.593,4.605,3.52c1.988,0.92,4.672,1.399,7.967,1.399c4.535,0,8.252-0.96,11.049-2.839     c2.736-1.834,4.061-4.045,4.061-6.753c0-2.124-0.695-3.805-2.111-5.125c-1.506-1.372-3.473-2.439-5.861-3.187     c-2.494-0.76-5.875-1.594-10.061-2.458c-5.699-1.201-10.533-2.621-14.373-4.241c-3.936-1.647-7.105-3.932-9.426-6.792     c-2.352-2.914-3.551-6.56-3.551-10.845c0-4.08,1.252-7.767,3.725-10.939c2.449-3.151,6.033-5.619,10.65-7.292     c4.551-1.66,9.957-2.5,16.092-2.5c4.896,0,9.205,0.561,12.805,1.667c3.613,1.107,6.656,2.601,9.051,4.446     c2.412,1.866,4.213,3.846,5.332,5.912c1.137,2.086,1.719,4.161,1.719,6.168c0,1.931-0.754,3.69-2.25,5.217     c-1.5,1.546-3.4,2.325-5.633,2.325c-2.029,0-3.625-0.492-4.719-1.453c-1.031-0.899-2.098-2.3-3.279-4.3     c-1.367-2.559-3.025-4.578-4.922-6.004c-1.848-1.387-4.926-2.08-9.166-2.08c-3.92,0-7.125,0.774-9.5,2.313     c-2.283,1.472-3.398,3.172-3.398,5.185c0,1.227,0.357,2.26,1.102,3.14c0.771,0.947,1.873,1.758,3.268,2.453     c1.439,0.714,2.93,1.286,4.412,1.686c1.525,0.421,4.078,1.041,7.588,1.839c4.443,0.933,8.521,1.992,12.123,3.134     c3.656,1.146,6.809,2.558,9.391,4.219c2.625,1.688,4.701,3.846,6.18,6.433c1.484,2.606,2.234,5.805,2.234,9.532     C102.586,84.168,101.289,88.227,98.746,91.78z"/></g><g><path class="st57" d="M15.875,62.594c-0.068,1.105-0.115,2.216-0.115,3.337c0,1.577,0.084,3.132,0.217,4.675     c0.186-2.106,0.475-4.18,0.893-6.207C16.518,63.809,16.188,63.207,15.875,62.594z"/><path class="st57" d="M125.244,79.888c-0.205,2.373-0.543,4.708-1.049,6.987c1.451,2.877,2.453,6.009,2.947,9.304     c0.234-1.535,0.357-3.105,0.357-4.705C127.5,87.378,126.693,83.474,125.244,79.888z"/><path class="st57" d="M44.311,17.165c6.215,0,12.018,1.767,16.922,4.813c3.053-0.52,6.188-0.794,9.377-0.794     c28.695,0,52.221,21.726,54.631,49.392c0.133-1.532,0.219-3.078,0.219-4.646c0-29.86-24.551-54.077-54.85-54.077     c-3.189,0-6.324,0.273-9.377,0.794c-4.904-3.046-10.707-4.813-16.922-4.813C26.738,7.834,12.5,21.872,12.5,39.202     c0,1.575,0.129,3.119,0.355,4.63C15.156,28.733,28.359,17.165,44.311,17.165z"/></g><g><path class="st26" d="M125.459,65.931c0-29.86-24.551-54.077-54.85-54.077c-3.189,0-6.324,0.273-9.377,0.794     c-4.904-3.046-10.707-4.813-16.922-4.813C26.738,7.834,12.5,21.872,12.5,39.202c0,5.787,1.598,11.199,4.369,15.865     c-0.723,3.506-1.109,7.146-1.109,10.863c0,29.878,24.559,54.085,54.85,54.085c3.436,0,6.789-0.312,10.049-0.906     c4.48,2.374,9.594,3.725,15.037,3.725c17.564,0,31.805-14.043,31.805-31.361c0-5.005-1.188-9.732-3.305-13.929     C125.027,73.797,125.459,69.918,125.459,65.931z M98.746,91.78c-2.537,3.547-6.283,6.347-11.152,8.334     c-4.807,1.972-10.568,2.978-17.133,2.978c-7.879,0-14.482-1.367-19.641-4.066c-3.686-1.959-6.723-4.611-9.029-7.905     c-2.332-3.305-3.508-6.592-3.508-9.772c0-1.973,0.77-3.692,2.283-5.1c1.502-1.398,3.43-2.1,5.729-2.1     c1.879,0,3.51,0.556,4.828,1.654c1.266,1.059,2.346,2.626,3.217,4.632c0.977,2.201,2.029,4.054,3.145,5.5     c1.084,1.413,2.631,2.593,4.605,3.52c1.988,0.92,4.672,1.399,7.967,1.399c4.535,0,8.252-0.96,11.049-2.839     c2.736-1.834,4.061-4.045,4.061-6.753c0-2.124-0.695-3.805-2.111-5.125c-1.506-1.372-3.473-2.439-5.861-3.187     c-2.494-0.76-5.875-1.594-10.061-2.458c-5.699-1.201-10.533-2.621-14.373-4.241c-3.936-1.647-7.105-3.932-9.426-6.792     c-2.352-2.914-3.551-6.56-3.551-10.845c0-4.08,1.252-7.767,3.725-10.939c2.449-3.151,6.033-5.619,10.65-7.292     c4.551-1.66,9.957-2.5,16.092-2.5c4.896,0,9.205,0.561,12.805,1.667c3.613,1.107,6.656,2.601,9.051,4.446     c2.412,1.866,4.213,3.846,5.332,5.912c1.137,2.086,1.719,4.161,1.719,6.168c0,1.931-0.754,3.69-2.25,5.217     c-1.5,1.546-3.4,2.325-5.633,2.325c-2.029,0-3.625-0.492-4.719-1.453c-1.031-0.899-2.098-2.3-3.279-4.3     c-1.367-2.559-3.025-4.578-4.922-6.004c-1.848-1.387-4.926-2.08-9.166-2.08c-3.92,0-7.125,0.774-9.5,2.313     c-2.283,1.472-3.398,3.172-3.398,5.185c0,1.227,0.357,2.26,1.102,3.14c0.771,0.947,1.873,1.758,3.268,2.453     c1.439,0.714,2.93,1.286,4.412,1.686c1.525,0.421,4.078,1.041,7.588,1.839c4.443,0.933,8.521,1.992,12.123,3.134     c3.656,1.146,6.809,2.558,9.391,4.219c2.625,1.688,4.701,3.846,6.18,6.433c1.484,2.606,2.234,5.805,2.234,9.532     C102.586,84.168,101.289,88.227,98.746,91.78z"/></g></g></g></svg>