<?xml version="1.0" ?><!DOCTYPE svg  PUBLIC '-//W3C//DTD SVG 1.1//EN'  'http://www.w3.org/Graphics/SVG/1.1/DTD/svg11.dtd'><svg height="140px" id="Layer_1" style="enable-background:new 0 0 140 140;" version="1.1" viewBox="0 0 140 140" width="140px" xml:space="preserve" xmlns="http://www.w3.org/2000/svg" xmlns:xlink="http://www.w3.org/1999/xlink"><style type="text/css">
<![CDATA[
	.st0{fill:#47BBF4;}
	.st1{fill:#7BEA06;}
	.st2{fill:#49E500;}
	.st3{fill:#7ED1B5;}
	.st4{fill:#1083DD;}
	.st5{fill:#7FBA0D;}
	.st6{fill:#E01726;}
	.st7{fill:#129AFF;}
	.st8{fill:#E2102E;}
	.st9{fill:#E2137A;}
	.st10{fill:#E2573B;}
	.st11{fill:#E2A60E;}
	.st12{fill:#E3443A;}
	.st13{fill:#1558BA;}
	.st14{fill:#159B81;}
	.st15{fill:#1644B7;}
	.st16{fill:#168BF4;}
	.st17{fill:#E51F32;}
	.st18{fill:#E6EFE8;}
	.st19{fill:#187FB8;}
	.st20{fill:#4C5054;}
	.st21{fill:#4C822A;}
	.st22{fill:#E8F9F8;}
	.st23{fill:#4F5459;}
	.st24{fill:#4FCCED;}
	.st25{fill:#B0C6C4;}
	.st26{fill:none;stroke:#33363A;stroke-width:3;stroke-linecap:round;stroke-linejoin:round;stroke-miterlimit:10;}
	.st27{fill:#859392;}
	.st28{fill:#1A68E5;}
	.st29{fill:#1A70F9;}
	.st30{fill:#1B8EED;}
	.st31{fill:#EA4606;}
	.st32{fill:#EA7B0C;}
	.st33{fill:#EAF4F9;}
	.st34{fill:#B70E10;}
	.st35{fill:#1CB1E6;}
	.st36{fill:#1CDDF7;}
	.st37{fill:#EDC211;}
	.st38{fill:#EF8114;}
	.st39{fill:#55932C;}
	.st40{fill:#569FEF;}
	.st41{fill:#BA30CE;}
	.st42{fill:#BA3A3A;}
	.st43{fill:#8CF41E;}
	.st44{fill:#59C96E;}
	.st45{fill:#8E0919;}
	.st46{fill:#20B5EC;}
	.st47{fill:#21CE52;}
	.st48{fill:#21D844;}
	.st49{fill:#F17250;}
	.st50{fill:#2364CE;}
	.st51{fill:#F2303F;}
	.st52{fill:#F24444;}
	.st53{fill:#F26B95;}
	.st54{fill:#F2A775;}
	.st55{fill:#2463FF;}
	.st56{fill:#24A9E6;}
	.st57{fill:#24AEF0;}
	.st58{fill:#F34B78;}
	.st59{fill:#25D600;}
	.st60{fill:#25D800;}
	.st61{fill:#F46300;}
	.st62{fill:#F4921E;}
	.st63{fill:#F4F1E6;}
	.st64{fill:#F72B2B;}
	.st65{fill:#F7441C;}
	.st66{fill:#F7851E;}
	.st67{fill:#5CAA4F;}
	.st68{fill:#F7A56D;}
	.st69{fill:#F7B257;}
	.st70{fill:#F7B92B;}
	.st71{fill:#F8571D;}
	.st72{fill:#F91D80;}
	.st73{fill:#F92E64;}
	.st74{fill:#F93838;}
	.st75{fill:#F9A121;}
	.st76{fill:#F9BD28;}
	.st77{fill:#F9D5AA;}
	.st78{fill:#5FB2A2;}
	.st79{fill:#9165B7;}
	.st80{fill:#95C675;}
	.st81{fill:#2A98F2;}
	.st82{fill:#2AC106;}
	.st83{fill:#C6232C;}
	.st84{fill:#C6402A;}
	.st85{fill:#FA7B7A;}
	.st86{fill:#FA9826;}
	.st87{fill:#2CC64D;}
	.st88{fill:#FB6620;}
	.st89{fill:#C7D5E0;}
	.st90{fill:#C8131A;}
	.st91{fill:#2DB487;}
	.st92{fill:#FC732D;}
	.st93{fill:#C8D8E8;}
	.st94{fill:#2ED3FF;}
	.st95{fill:#FF0DA9;}
	.st96{fill:#FF4743;}
	.st97{fill:#FF6155;}
	.st98{fill:#FF7639;}
	.st99{fill:#FF7676;}
	.st100{fill:#FF88AD;}
	.st101{fill:#FF9064;}
	.st102{fill:#FFA506;}
	.st103{fill:#FFBE8D;}
	.st104{fill:#FFEB5A;}
	.st105{fill:#FFF19C;}
	.st106{fill:#FFFDF5;}
	.st107{fill:#FFFFFF;}
	.st108{fill:#63C605;}
	.st109{fill:#64C0FF;}
	.st110{fill:#66A00A;}
	.st111{fill:#CAFFE9;}
	.st112{fill:#680719;}
	.st113{fill:none;stroke:#FCE2AE;stroke-width:3;stroke-linecap:round;stroke-linejoin:round;stroke-miterlimit:10;}
	.st114{fill:#CC2414;}
	.st115{fill:#CC4521;}
	.st116{fill:#9DEACE;}
	.st117{fill:#303030;}
	.st118{fill:#CE1721;}
	.st119{fill:#33363A;}
	.st120{fill:#337BD1;}
	.st121{fill:#6A7C7C;}
	.st122{fill:#37D660;}
	.st123{fill:#384948;}
	.st124{fill:#38B4F9;}
	.st125{fill:#6CA9EA;}
	.st126{fill:#6D8599;}
	.st127{fill:#0097E2;}
	.st128{fill:#00997C;}
	.st129{fill:#00A4DD;}
	.st130{fill:#0399FF;}
	.st131{fill:#D33F26;}
	.st132{fill:#0695ED;}
	.st133{fill:#0779EA;}
	.st134{fill:#079332;}
	.st135{fill:#D6381E;}
	.st136{fill:#3BAA00;}
	.st137{fill:#D6E5EA;}
	.st138{fill:#D6E7EA;}
	.st139{fill:#08A548;}
	.st140{fill:#08BC26;}
	.st141{fill:#D80B0B;}
	.st142{fill:#D8532B;}
	.st143{fill:#3DC8F9;}
	.st144{fill:#3E77BF;}
	.st145{fill:#3E8AF7;}
	.st146{fill:#D9E5ED;}
	.st147{fill:#72818E;}
	.st148{fill:#0A78DD;}
	.st149{fill:#0A8CDD;}
	.st150{fill:#A52D21;}
	.st151{fill:#76CEFF;}
	.st152{fill:#76DB00;}
	.st153{fill:#0C86EA;}
	.st154{fill:#DB0F4E;}
	.st155{fill:#A7B7B6;}
	.st156{fill:#0DBA5B;}
	.st157{fill:#79B259;}
	.st158{fill:#0E73D8;}
	.st159{fill:#0E78D8;}
	.st160{fill:#0E8971;}
	.st161{fill:#A981D3;}
	.st162{fill:#DD4B4B;}
	.st163{fill:#4087ED;}
	.st164{fill:#40A557;}
	.st165{fill:#40E269;}
	.st166{fill:#DFC7FF;}
	.st167{fill:#DFEFEF;}
	.st168{fill:#44FCB6;}
]]>
</style><g><g><path class="st56" d="M129.475,25.884c-4.996,3.028-10.514,5.236-16.411,6.42    c-4.697-5.148-11.417-8.36-18.852-8.36c-14.253,0-25.817,11.858-25.817,26.482c0,2.078,0.221,4.091,0.668,6.03    c-21.472-1.107-40.493-11.639-53.241-27.682c-2.226,3.927-3.497,8.48-3.497,13.333c0,9.186,4.561,17.29,11.492,22.039    c-4.228-0.128-8.219-1.333-11.702-3.304v0.328c0,12.837,8.901,23.544,20.726,25.965c-2.168,0.625-4.452,0.934-6.809,0.934    c-1.661,0-3.292-0.158-4.861-0.468c3.288,10.515,12.82,18.178,24.128,18.382c-8.836,7.107-19.982,11.344-32.079,11.344    c-2.078,0-4.145-0.121-6.165-0.367c11.435,7.503,25.017,11.89,39.594,11.89c47.515,0,73.489-40.347,73.489-75.35    c0-1.147-0.027-2.303-0.066-3.432c5.043-3.733,9.428-8.393,12.876-13.705c-4.625,2.104-9.607,3.531-14.834,4.169    C123.451,37.255,127.55,32.063,129.475,25.884z" id="Twitter_1_"/><g><path class="st149" d="M21.211,56.223c-3.571-2.446-6.505-5.788-8.518-9.705c0.525,3.214,1.613,6.229,3.159,8.941     C17.58,55.896,19.371,56.167,21.211,56.223z"/><path class="st149" d="M115.507,32.608c4.382-0.534,8.59-1.631,12.562-3.209c0.541-1.134,1.027-2.299,1.406-3.516     c-3.691,2.237-7.67,4.023-11.873,5.283C116.926,31.679,116.23,32.164,115.507,32.608z"/><path class="st149" d="M132.946,36.363c-4.122,1.876-8.53,3.209-13.141,3.93c-0.765,0.637-1.542,1.26-2.341,1.852     c0.039,1.129,0.066,2.284,0.066,3.432c0,35.003-25.975,75.35-73.489,75.35c-8.346,0-16.362-1.444-23.84-4.081     c-2.285,0.314-4.615,0.482-6.983,0.482c-2.078,0-4.145-0.121-6.165-0.367c11.435,7.503,25.017,11.89,39.594,11.89     c47.515,0,73.489-40.347,73.489-75.35c0-1.147-0.027-2.303-0.066-3.432C125.113,46.335,129.498,41.676,132.946,36.363z"/><path class="st149" d="M19.654,79.865c1.23,0.185,2.491,0.28,3.771,0.28c2.356,0,4.641-0.309,6.809-0.934     c-7.734-1.584-14.199-6.726-17.759-13.677C13.373,71.085,15.947,76.051,19.654,79.865z"/><path class="st149" d="M22.812,87.86c-0.553-0.07-1.103-0.152-1.643-0.259c2.177,6.962,7.101,12.657,13.455,15.781     c2.854-1.524,5.557-3.304,8.067-5.323C34.61,97.914,27.449,93.945,22.812,87.86z"/></g><path class="st143" d="M129.475,25.884c-4.996,3.028-10.514,5.236-16.411,6.42c-4.697-5.148-11.417-8.36-18.852-8.36    c-14.253,0-25.817,11.858-25.817,26.482c0,2.078,0.221,4.091,0.668,6.03c-17.672-0.909-33.678-8.219-45.899-19.717    c12.55,13.255,29.771,21.787,48.958,22.776c-0.446-1.94-0.668-3.953-0.668-6.026c0-14.628,11.564-26.486,25.82-26.486    c7.434,0,14.151,3.214,18.85,8.36"/><path class="st26" d="M129.475,25.884c-4.996,3.028-10.514,5.236-16.411,6.42    c-4.697-5.148-11.417-8.36-18.852-8.36c-14.253,0-25.817,11.858-25.817,26.482c0,2.078,0.221,4.091,0.668,6.03    c-21.472-1.107-40.493-11.639-53.241-27.682c-2.226,3.927-3.497,8.48-3.497,13.333c0,9.186,4.561,17.29,11.492,22.039    c-4.228-0.128-8.219-1.333-11.702-3.304v0.328c0,12.837,8.901,23.544,20.726,25.965c-2.168,0.625-4.452,0.934-6.809,0.934    c-1.661,0-3.292-0.158-4.861-0.468c3.288,10.515,12.82,18.178,24.128,18.382c-8.836,7.107-19.982,11.344-32.079,11.344    c-2.078,0-4.145-0.121-6.165-0.367c11.435,7.503,25.017,11.89,39.594,11.89c47.515,0,73.489-40.347,73.489-75.35    c0-1.147-0.027-2.303-0.066-3.432c5.043-3.733,9.428-8.393,12.876-13.705c-4.625,2.104-9.607,3.531-14.834,4.169    C123.451,37.255,127.55,32.063,129.475,25.884z" id="Twitter_2_"/></g><path class="st26" d="M67.387,56.331c7.22,0.045,13.761,3.289,18.281,8.477" id="Twitter_3_"/><g><g><line class="st26" x1="65.884" x2="64.407" y1="26.84" y2="25.365"/><line class="st26" x1="61.203" x2="61.271" y1="22.159" y2="22.229"/></g><g><g><line class="st26" x1="56.813" x2="54.729" y1="40.616" y2="40.616"/><line class="st26" x1="50.193" x2="50.292" y1="40.617" y2="40.616"/></g><g><line class="st26" x1="79.659" x2="79.659" y1="17.772" y2="15.685"/><line class="st26" x1="79.659" x2="79.659" y1="11.15" y2="11.247"/></g></g></g><path class="st26" d="M107.236,36.752c0,2.624-2.127,4.75-4.75,4.75s-4.75-2.126-4.75-4.75"/><line class="st26" x1="30.234" x2="34.486" y1="65.535" y2="66.627"/><line class="st26" x1="37.651" x2="41.903" y1="87.602" y2="88.694"/></g></svg>