<?xml version="1.0" ?><!DOCTYPE svg  PUBLIC '-//W3C//DTD SVG 1.1//EN'  'http://www.w3.org/Graphics/SVG/1.1/DTD/svg11.dtd'><svg height="140px" id="Layer_1" style="enable-background:new 0 0 140 140;" version="1.1" viewBox="0 0 140 140" width="140px" xml:space="preserve" xmlns="http://www.w3.org/2000/svg" xmlns:xlink="http://www.w3.org/1999/xlink"><style type="text/css">
<![CDATA[
	.st0{fill:#47BBF4;}
	.st1{fill:#7BEA06;}
	.st2{fill:#49E500;}
	.st3{fill:#7ED1B5;}
	.st4{fill:#1083DD;}
	.st5{fill:#7FBA0D;}
	.st6{fill:#E01726;}
	.st7{fill:#129AFF;}
	.st8{fill:#E2102E;}
	.st9{fill:#E2137A;}
	.st10{fill:#E2573B;}
	.st11{fill:#E2A60E;}
	.st12{fill:#E3443A;}
	.st13{fill:#1558BA;}
	.st14{fill:#159B81;}
	.st15{fill:#1644B7;}
	.st16{fill:#168BF4;}
	.st17{fill:#E51F32;}
	.st18{fill:#E6EFE8;}
	.st19{fill:#187FB8;}
	.st20{fill:#4C5054;}
	.st21{fill:#4C822A;}
	.st22{fill:#E8F9F8;}
	.st23{fill:#4F5459;}
	.st24{fill:#4FCCED;}
	.st25{fill:#B0C6C4;}
	.st26{fill:none;stroke:#33363A;stroke-width:3;stroke-linecap:round;stroke-linejoin:round;stroke-miterlimit:10;}
	.st27{fill:#859392;}
	.st28{fill:#1A68E5;}
	.st29{fill:#1A70F9;}
	.st30{fill:#1B8EED;}
	.st31{fill:#EA4606;}
	.st32{fill:#EA7B0C;}
	.st33{fill:#EAF4F9;}
	.st34{fill:#B70E10;}
	.st35{fill:#1CB1E6;}
	.st36{fill:#1CDDF7;}
	.st37{fill:#EDC211;}
	.st38{fill:#EF8114;}
	.st39{fill:#55932C;}
	.st40{fill:#569FEF;}
	.st41{fill:#BA30CE;}
	.st42{fill:#BA3A3A;}
	.st43{fill:#8CF41E;}
	.st44{fill:#59C96E;}
	.st45{fill:#8E0919;}
	.st46{fill:#20B5EC;}
	.st47{fill:#21CE52;}
	.st48{fill:#21D844;}
	.st49{fill:#F17250;}
	.st50{fill:#2364CE;}
	.st51{fill:#F2303F;}
	.st52{fill:#F24444;}
	.st53{fill:#F26B95;}
	.st54{fill:#F2A775;}
	.st55{fill:#2463FF;}
	.st56{fill:#24A9E6;}
	.st57{fill:#24AEF0;}
	.st58{fill:#F34B78;}
	.st59{fill:#25D600;}
	.st60{fill:#25D800;}
	.st61{fill:#F46300;}
	.st62{fill:#F4921E;}
	.st63{fill:#F4F1E6;}
	.st64{fill:#F72B2B;}
	.st65{fill:#F7441C;}
	.st66{fill:#F7851E;}
	.st67{fill:#5CAA4F;}
	.st68{fill:#F7A56D;}
	.st69{fill:#F7B257;}
	.st70{fill:#F7B92B;}
	.st71{fill:#F8571D;}
	.st72{fill:#F91D80;}
	.st73{fill:#F92E64;}
	.st74{fill:#F93838;}
	.st75{fill:#F9A121;}
	.st76{fill:#F9BD28;}
	.st77{fill:#F9D5AA;}
	.st78{fill:#5FB2A2;}
	.st79{fill:#9165B7;}
	.st80{fill:#95C675;}
	.st81{fill:#2A98F2;}
	.st82{fill:#2AC106;}
	.st83{fill:#C6232C;}
	.st84{fill:#C6402A;}
	.st85{fill:#FA7B7A;}
	.st86{fill:#FA9826;}
	.st87{fill:#2CC64D;}
	.st88{fill:#FB6620;}
	.st89{fill:#C7D5E0;}
	.st90{fill:#C8131A;}
	.st91{fill:#2DB487;}
	.st92{fill:#FC732D;}
	.st93{fill:#C8D8E8;}
	.st94{fill:#2ED3FF;}
	.st95{fill:#FF0DA9;}
	.st96{fill:#FF4743;}
	.st97{fill:#FF6155;}
	.st98{fill:#FF7639;}
	.st99{fill:#FF7676;}
	.st100{fill:#FF88AD;}
	.st101{fill:#FF9064;}
	.st102{fill:#FFA506;}
	.st103{fill:#FFBE8D;}
	.st104{fill:#FFEB5A;}
	.st105{fill:#FFF19C;}
	.st106{fill:#FFFDF5;}
	.st107{fill:#FFFFFF;}
	.st108{fill:#63C605;}
	.st109{fill:#64C0FF;}
	.st110{fill:#66A00A;}
	.st111{fill:#CAFFE9;}
	.st112{fill:#680719;}
	.st113{fill:none;stroke:#FCE2AE;stroke-width:3;stroke-linecap:round;stroke-linejoin:round;stroke-miterlimit:10;}
	.st114{fill:#CC2414;}
	.st115{fill:#CC4521;}
	.st116{fill:#9DEACE;}
	.st117{fill:#303030;}
	.st118{fill:#CE1721;}
	.st119{fill:#33363A;}
	.st120{fill:#337BD1;}
	.st121{fill:#6A7C7C;}
	.st122{fill:#37D660;}
	.st123{fill:#384948;}
	.st124{fill:#38B4F9;}
	.st125{fill:#6CA9EA;}
	.st126{fill:#6D8599;}
	.st127{fill:#0097E2;}
	.st128{fill:#00997C;}
	.st129{fill:#00A4DD;}
	.st130{fill:#0399FF;}
	.st131{fill:#D33F26;}
	.st132{fill:#0695ED;}
	.st133{fill:#0779EA;}
	.st134{fill:#079332;}
	.st135{fill:#D6381E;}
	.st136{fill:#3BAA00;}
	.st137{fill:#D6E5EA;}
	.st138{fill:#D6E7EA;}
	.st139{fill:#08A548;}
	.st140{fill:#08BC26;}
	.st141{fill:#D80B0B;}
	.st142{fill:#D8532B;}
	.st143{fill:#3DC8F9;}
	.st144{fill:#3E77BF;}
	.st145{fill:#3E8AF7;}
	.st146{fill:#D9E5ED;}
	.st147{fill:#72818E;}
	.st148{fill:#0A78DD;}
	.st149{fill:#0A8CDD;}
	.st150{fill:#A52D21;}
	.st151{fill:#76CEFF;}
	.st152{fill:#76DB00;}
	.st153{fill:#0C86EA;}
	.st154{fill:#DB0F4E;}
	.st155{fill:#A7B7B6;}
	.st156{fill:#0DBA5B;}
	.st157{fill:#79B259;}
	.st158{fill:#0E73D8;}
	.st159{fill:#0E78D8;}
	.st160{fill:#0E8971;}
	.st161{fill:#A981D3;}
	.st162{fill:#DD4B4B;}
	.st163{fill:#4087ED;}
	.st164{fill:#40A557;}
	.st165{fill:#40E269;}
	.st166{fill:#DFC7FF;}
	.st167{fill:#DFEFEF;}
	.st168{fill:#44FCB6;}
]]>
</style><g><g><g><g><g id="Vimeo"><path class="st35" d="M114.573,23.381c-17.503-0.566-29.35,9.122-35.567,29.05c3.188-1.318,6.302-1.948,9.313-1.948       c6.397,0,9.215,3.516,8.462,10.593c-0.383,4.298-3.191,10.526-8.462,18.727c-5.271,8.185-9.224,12.277-11.853,12.277       c-3.394,0-6.487-6.318-9.317-18.983c-0.938-3.723-2.641-13.219-5.062-28.5c-2.271-14.148-8.296-20.771-18.071-19.829       c-4.142,0.389-10.356,4.104-18.616,11.184c-6.038,5.39-12.152,10.802-18.357,16.188l5.925,7.555       c5.656-3.92,8.934-5.88,9.875-5.88c4.323,0,8.365,6.709,12.143,20.128c3.39,12.267,6.766,24.569,10.165,36.875       c5.071,13.409,11.281,20.095,18.613,20.095c11.85,0,26.357-10.985,43.473-32.972c16.539-21.023,25.113-37.594,25.66-49.717       C133.656,32.035,127.534,23.742,114.573,23.381z"/></g><g><path class="st36" d="M79.82,90.47c-2.495,2.224-3.804,1.69-2.823,1.69c2.626,0,6.968,0,17.554-12.357       c6.343-7.401,8.077-14.429,8.463-18.727c0.754-7.077-2.067-10.593-8.463-10.593c-1.137,0-2.3,0.12-3.465,0.303       c4.405,0.949,6.329,4.347,5.695,10.29c-0.383,4.298-3.191,10.526-8.462,18.727C84.947,85.043,82.114,88.587,79.82,90.47z"/><path class="st36" d="M116.317,23.499c-0.572-0.049-1.144-0.103-1.744-0.118c-17.503-0.566-29.35,9.122-35.567,29.05       c2.324-0.96,4.61-1.545,6.844-1.799C91.632,33.644,101.783,24.598,116.317,23.499z"/><path class="st36" d="M13.272,52.14c6.203-5.387,12.318-10.799,18.355-16.188c7.446-6.38,13.213-10.002,17.313-10.944       c-1.521-0.324-3.16-0.407-4.926-0.239c-4.142,0.389-10.356,4.104-18.616,11.184c-6.038,5.39-12.152,10.802-18.357,16.188       l5.925,7.555"/><path class="st36" d="M51.378,110.817c-3.397-12.306-6.774-24.608-10.163-36.875c-3.779-13.419-13.551-20.208-17.874-20.208       c-0.446,0,0.615,0.122,2.784,1.423c3.104,2.564,6.055,8.82,8.858,18.785c3.39,12.267,6.766,24.569,10.165,36.875       c5.071,13.409,11.281,20.095,18.613,20.095c1.129,0,2.295-0.132,3.471-0.332C61.09,129.089,55.801,122.511,51.378,110.817z"/></g></g><path class="st26" d="M116.313,23.5c0.002,0,0.002-0.001,0.004-0.001c-0.572-0.049-1.144-0.103-1.744-0.118     c-17.503-0.566-29.35,9.122-35.567,29.05c0.53-0.22,1.06-0.414,1.585-0.594c0.103-0.036,0.205-0.07,0.308-0.104     c1.673-0.551,3.326-0.916,4.951-1.101c0.001-0.002,0.001-0.004,0.002-0.006c0.829-0.093,1.653-0.144,2.468-0.144     c1.048,0,1.991,0.104,2.847,0.293c-0.027,0.005-0.053,0.007-0.08,0.01c3.25,0.701,5.145,2.738,5.663,6.145     c0.015,0.09,0.028,0.178,0.04,0.271c0.026,0.193,0.044,0.395,0.061,0.598c0.013,0.155,0.021,0.312,0.028,0.473     c0.008,0.173,0.014,0.348,0.016,0.524c0.002,0.219-0.002,0.443-0.008,0.671c-0.004,0.142-0.006,0.28-0.012,0.426     c-0.021,0.384-0.05,0.776-0.093,1.184c-0.383,4.298-3.191,10.526-8.462,18.727c-0.378,0.587-0.746,1.146-1.111,1.691     c-0.126,0.188-0.248,0.368-0.374,0.552c-0.253,0.371-0.503,0.736-0.749,1.088c-0.113,0.161-0.226,0.321-0.338,0.479     c-0.312,0.441-0.623,0.87-0.925,1.277c-0.029,0.038-0.059,0.079-0.087,0.116c-1.847,2.472-3.486,4.291-4.915,5.464     c-0.071,0.063-0.138,0.117-0.206,0.175c-1.201,0.949-2.252,1.436-3.147,1.436c-3.394,0-6.487-6.318-9.317-18.983     c-0.938-3.723-2.641-13.219-5.062-28.5c-1.861-11.593-6.246-18.124-13.146-19.59l0,0c-0.401-0.086-0.813-0.152-1.231-0.205     c-0.211-0.025-0.429-0.04-0.644-0.056c-0.304-0.024-0.612-0.041-0.926-0.049c-0.188-0.004-0.374-0.009-0.564-0.007     c-0.511,0.006-1.026,0.027-1.561,0.077c-4.142,0.389-10.356,4.104-18.616,11.184c-6.038,5.39-12.152,10.802-18.357,16.188     l5.925,7.555c5.656-3.92,8.934-5.88,9.875-5.88c0.242,0,0.483,0.028,0.724,0.071c0.437,0.167,1.307,0.52,2.561,1.271     c0.091,0.075,0.182,0.165,0.272,0.247c0.104,0.093,0.209,0.181,0.311,0.282c0.128,0.125,0.255,0.265,0.381,0.401     c0.101,0.109,0.2,0.22,0.301,0.337c0.124,0.146,0.248,0.294,0.372,0.452c0.106,0.136,0.214,0.281,0.321,0.427     c0.143,0.195,0.284,0.393,0.427,0.604c0.172,0.254,0.34,0.513,0.51,0.789c0.106,0.173,0.213,0.358,0.318,0.539     c0.122,0.209,0.242,0.421,0.361,0.64c0.103,0.188,0.205,0.38,0.309,0.577c0.141,0.269,0.278,0.548,0.418,0.834     c0.08,0.163,0.158,0.317,0.238,0.486c0.207,0.438,0.412,0.898,0.618,1.373c0.082,0.189,0.165,0.39,0.246,0.584     c0.144,0.344,0.287,0.694,0.431,1.055c0.08,0.205,0.16,0.408,0.24,0.617c0.182,0.475,0.363,0.963,0.544,1.466     c0.035,0.095,0.069,0.185,0.104,0.28c0.214,0.601,0.426,1.227,0.638,1.867c0.065,0.2,0.131,0.405,0.195,0.609     c0.16,0.489,0.316,0.989,0.475,1.502c0.063,0.21,0.129,0.418,0.191,0.632c0.214,0.709,0.426,1.433,0.638,2.185     c3.39,12.267,6.766,24.569,10.165,36.875c5.071,13.409,11.281,20.095,18.613,20.095c11.85,0,26.357-10.985,43.473-32.972     c16.539-21.023,25.113-37.594,25.66-49.717C133.622,32.784,128.073,24.545,116.313,23.5z"/></g><g><g><line class="st26" x1="43.044" x2="43.042" y1="15.048" y2="13.17"/><line class="st26" x1="43.044" x2="43.042" y1="9.088" y2="9.175"/></g><g><g><line class="st26" x1="28.497" x2="27.168" y1="18.046" y2="16.719"/><line class="st26" x1="24.278" x2="24.343" y1="13.831" y2="13.894"/></g><g><line class="st26" x1="57.589" x2="58.918" y1="18.047" y2="16.717"/><line class="st26" x1="61.805" x2="61.743" y1="13.831" y2="13.892"/></g></g></g><g><g><line class="st26" x1="109.966" x2="109.963" y1="15.048" y2="13.17"/><line class="st26" x1="109.966" x2="109.963" y1="9.088" y2="9.175"/></g><g><g><line class="st26" x1="95.418" x2="94.09" y1="18.046" y2="16.719"/><line class="st26" x1="91.2" x2="91.265" y1="13.831" y2="13.894"/></g><g><line class="st26" x1="124.511" x2="125.84" y1="18.047" y2="16.717"/><line class="st26" x1="128.727" x2="128.665" y1="13.831" y2="13.892"/></g></g></g></g><path class="st26" d="M84.735,85.006C79.1,92.548,74.097,98.1,69.736,101.679"/></g></svg>