<?xml version="1.0" ?><svg id="Layer_1" style="enable-background:new 0 0 512 512;" version="1.1" viewBox="0 0 512 512" xml:space="preserve" xmlns="http://www.w3.org/2000/svg" xmlns:xlink="http://www.w3.org/1999/xlink"><style type="text/css">
	.st0{fill:#BFBFBF;}
	.st1{fill:#FFFFFF;}
	.st2{fill:#E0A41E;}
	.st3{fill:#FCE379;}
	.st4{fill:#F5BD2F;}
	.st5{fill:#CE8F11;}
	.st6{fill:#C41E4A;}
	.st7{fill:#F45671;}
	.st8{fill:#E03258;}
	.st9{fill:#A50C3B;}
	.st10{fill:#16896B;}
	.st11{fill:#49EBC8;}
	.st12{fill:#2EBC9A;}
	.st13{fill:#096047;}
</style><g id="XMLID_539_"><g id="XMLID_540_"><path class="st0" d="M1271.8,2835.7c-25.7,0-46.7-20.4-46.7-45.4v-38.2l-20.2-15.2v-132.4h20.2v-197.5    c0-25,20.9-45.4,46.7-45.4h56.9v-10.3h124.7l10.6,10.3h82.6c25.7,0,46.7,20.4,46.7,45.4v80.4l7.9,7.6v121.4h-7.9v173.9    c0,25-20.9,45.4-46.7,45.4H1271.8z" id="XMLID_558_"/><path class="st1" d="M1255.5,2819.8c-25.7,0-46.7-20.4-46.7-45.4v-38.2l-20.2-15.2v-132.4h20.2V2391    c0-25,20.9-45.4,46.7-45.4h56.9v-10.3h124.7l10.6,10.3h82.6c25.7,0,46.7,20.4,46.7,45.4v80.4l7.9,7.6v121.4h-7.9v173.9    c0,25-20.9,45.4-46.7,45.4H1255.5z" id="XMLID_557_"/><g id="XMLID_541_"><g id="XMLID_542_"><path class="st2" d="M1528.1,2804.4h-270.4c-18.3,0-33.1-14.8-33.1-33.1v-377.2c0-18.3,14.8-33.1,33.1-33.1      h270.4c18.3,0,33.1,14.8,33.1,33.1v377.2C1561.2,2789.6,1546.4,2804.4,1528.1,2804.4z" id="XMLID_556_"/><path class="st3" d="M1237.8,2766.6v-367.7c0-13.9,11.2-25.1,25.1-25.1H1523c13.9,0,25.1,11.2,25.1,25.1v367.7      c0,13.9-11.2,25.1-25.1,25.1h-260.1C1249,2791.7,1237.8,2780.4,1237.8,2766.6z" id="XMLID_555_"/></g><polygon class="st4" id="XMLID_554_" points="1569,2585.1 1569,2485.5 1430.6,2350.7 1328.2,2350.7    "/><polygon class="st5" id="XMLID_553_" points="1328.2,2350.7 1328.2,2361 1338.9,2361    "/><polygon class="st5" id="XMLID_552_" points="1561.2,2577.5 1561.2,2585.1 1569,2585.1    "/><path class="st4" d="M1416.4,2713.4h-211.9V2604h211.9c29.8,0,54,24.2,54,54v1.4     C1470.4,2689.2,1446.2,2713.4,1416.4,2713.4z" id="XMLID_928_"/><polygon class="st5" id="XMLID_930_" points="1204.5,2713.4 1224.7,2728.6 1224.7,2713.4    "/></g></g><g id="XMLID_2577_"><g id="XMLID_157_"><path class="st1" d="M1285.8,2673.3h0.2l16.2-41.9h11.9v54.4h-9.3v-39.1l-0.2,0l-15.4,39.2h-6.4l-15.7-39.9     l-0.2,0.1v39.8h-9.3v-54.4h12.3L1285.8,2673.3z" id="XMLID_165_"/><path class="st1" d="M1337.6,2665.2v20.6h-9.3v-54.4h21.4c6.2,0,11,1.6,14.5,4.7c3.5,3.1,5.2,7.2,5.2,12.2     c0,5.1-1.7,9.2-5.2,12.3c-3.5,3.1-8.3,4.6-14.5,4.6H1337.6z M1337.6,2658h12.1c3.5,0,6.1-0.9,7.8-2.7c1.7-1.8,2.6-4.1,2.6-6.8     s-0.9-5.1-2.6-6.9c-1.7-1.8-4.3-2.8-7.8-2.8h-12.1V2658z" id="XMLID_162_"/><path class="st1" d="M1410.3,2666.5h7.1v7.3h-7.1v12.1h-9.3v-12.1h-23.4l-0.2-5.6l23.4-36.8h9.6V2666.5z      M1386.5,2666.5h14.5v-22.2l-0.2,0l-0.9,2.1L1386.5,2666.5z" id="XMLID_158_"/></g></g></g><g id="XMLID_1_"><g id="XMLID_11_"><path class="st0" d="M1798,1732.3c-25.7,0-46.7-20.4-46.7-45.4v-38.2l-20.2-15.2V1501h20.2v-197.5    c0-25,20.9-45.4,46.7-45.4h56.9v-10.3h124.7l10.6,10.3h82.6c25.7,0,46.7,20.4,46.7,45.4v80.4l7.9,7.6V1513h-7.9v173.9    c0,25-20.9,45.4-46.7,45.4H1798z" id="XMLID_38_"/><path class="st1" d="M1781.7,1716.4c-25.7,0-46.7-20.4-46.7-45.4v-38.2l-20.2-15.2v-132.4h20.2v-197.5    c0-25,20.9-45.4,46.7-45.4h56.9v-10.3h124.7l10.6,10.3h82.6c25.7,0,46.7,20.4,46.7,45.4v80.4l7.9,7.6v121.4h-7.9V1671    c0,25-20.9,45.4-46.7,45.4H1781.7z" id="XMLID_35_"/><g id="XMLID_12_"><g id="XMLID_28_"><path class="st6" d="M2054.3,1701h-270.4c-18.3,0-33.1-14.8-33.1-33.1v-377.2c0-18.3,14.8-33.1,33.1-33.1h270.4      c18.3,0,33.1,14.8,33.1,33.1v377.2C2087.4,1686.2,2072.6,1701,2054.3,1701z" id="XMLID_32_"/><path class="st7" d="M1764,1663.1v-367.7c0-13.9,11.2-25.1,25.1-25.1h260.1c13.9,0,25.1,11.2,25.1,25.1v367.7      c0,13.9-11.2,25.1-25.1,25.1h-260.1C1775.2,1688.2,1764,1677,1764,1663.1z" id="XMLID_29_"/></g><polygon class="st8" id="XMLID_25_" points="2095.3,1481.7 2095.3,1382.1 1956.8,1247.3 1854.4,1247.3    "/><polygon class="st9" id="XMLID_22_" points="1854.4,1247.3 1854.4,1257.6 1865.1,1257.6    "/><polygon class="st9" id="XMLID_19_" points="2087.4,1474 2087.4,1481.7 2095.3,1481.7    "/><path class="st8" d="M1942.6,1609.9h-211.9v-109.4h211.9c29.8,0,54,24.2,54,54v1.4     C1996.6,1585.8,1972.4,1609.9,1942.6,1609.9z" id="XMLID_16_"/><polygon class="st9" id="XMLID_13_" points="1730.7,1609.9 1750.9,1625.2 1750.9,1609.9    "/></g></g><g id="XMLID_2_"><g id="XMLID_117_"><path class="st1" d="M1830.1,1565.2l0.1,0.2c0.1,5.8-1.8,10.4-5.8,14c-4,3.6-9.3,5.3-16.1,5.3     c-6.8,0-12.4-2.3-16.7-6.8c-4.3-4.5-6.4-10.3-6.4-17.3v-10.9c0-7,2.1-12.7,6.3-17.3c4.2-4.5,9.7-6.8,16.5-6.8     c6.9,0,12.4,1.7,16.4,5.2c4,3.4,5.9,8.2,5.8,14.1l-0.1,0.2h-9.5c0-3.8-1.1-6.8-3.2-8.8c-2.1-2-5.3-3.1-9.4-3.1     c-4,0-7.2,1.5-9.5,4.6c-2.3,3.1-3.5,7-3.5,11.7v11c0,4.8,1.2,8.7,3.6,11.8c2.4,3.1,5.6,4.6,9.7,4.6c4,0,7.1-1,9.2-3.1     c2.1-2,3.1-5,3.1-8.9H1830.1z" id="XMLID_124_"/><path class="st1" d="M1872.8,1570.5H1852l-4.5,13.4h-10.2l20.5-57.3h9.3l20.3,57.3h-10.2L1872.8,1570.5z      M1854.7,1562.5h15.5l-7.6-22.6h-0.2L1854.7,1562.5z" id="XMLID_121_"/><path class="st1" d="M1897.2,1583.9v-57.3h19.5c7.5,0,13.5,2.3,18.2,6.8c4.7,4.5,7,10.4,7,17.5v8.7     c0,7.2-2.3,13-7,17.5c-4.7,4.5-10.8,6.8-18.2,6.8H1897.2z M1907.1,1534.3v42h9.6c4.7,0,8.5-1.6,11.2-4.7c2.8-3.1,4.2-7.1,4.2-12     v-8.8c0-4.8-1.4-8.8-4.2-11.9c-2.8-3.1-6.5-4.7-11.2-4.7H1907.1z" id="XMLID_118_"/></g></g></g><g id="XMLID_41_"><g id="XMLID_51_"><path class="st0" d="M132.9,1732.3c-25.7,0-46.7-20.4-46.7-45.4v-38.2L66,1633.4V1501h20.2v-197.5    c0-25,20.9-45.4,46.7-45.4h56.9v-10.3h124.7l10.6,10.3h82.6c25.7,0,46.7,20.4,46.7,45.4v80.4l7.9,7.6V1513h-7.9v173.9    c0,25-20.9,45.4-46.7,45.4H132.9z" id="XMLID_78_"/><path class="st1" d="M116.6,1716.4c-25.7,0-46.7-20.4-46.7-45.4v-38.2l-20.2-15.2v-132.4h20.2v-197.5    c0-25,20.9-45.4,46.7-45.4h56.9v-10.3h124.7l10.6,10.3h82.6c25.7,0,46.7,20.4,46.7,45.4v80.4l7.9,7.6v121.4h-7.9V1671    c0,25-20.9,45.4-46.7,45.4H116.6z" id="XMLID_75_"/><g id="XMLID_52_"><g id="XMLID_68_"><path class="st10" d="M389.2,1701H118.8c-18.3,0-33.1-14.8-33.1-33.1v-377.2c0-18.3,14.8-33.1,33.1-33.1h270.4      c18.3,0,33.1,14.8,33.1,33.1v377.2C422.3,1686.2,407.5,1701,389.2,1701z" id="XMLID_72_"/><path class="st11" d="M98.8,1663.1v-367.7c0-13.9,11.2-25.1,25.1-25.1h260.1c13.9,0,25.1,11.2,25.1,25.1v367.7      c0,13.9-11.2,25.1-25.1,25.1H123.9C110.1,1688.2,98.8,1677,98.8,1663.1z" id="XMLID_69_"/></g><polygon class="st12" id="XMLID_65_" points="430.1,1481.7 430.1,1382.1 291.6,1247.3 189.3,1247.3    "/><polygon class="st13" id="XMLID_62_" points="189.3,1247.3 189.3,1257.6 199.9,1257.6    "/><polygon class="st13" id="XMLID_59_" points="422.3,1474 422.3,1481.7 430.1,1481.7    "/><path class="st12" d="M277.4,1609.9H65.6v-109.4h211.9c29.8,0,54,24.2,54,54v1.4     C331.4,1585.8,307.3,1609.9,277.4,1609.9z" id="XMLID_56_"/><polygon class="st13" id="XMLID_53_" points="65.6,1609.9 85.7,1625.2 85.7,1609.9    "/></g></g><g id="XMLID_42_"><g id="XMLID_171_"><path class="st1" d="M124.5,1581.7v-52.9h18c6.9,0,12.5,2.1,16.8,6.3c4.3,4.2,6.5,9.6,6.5,16.2v8     c0,6.6-2.2,12-6.5,16.2c-4.3,4.2-9.9,6.3-16.8,6.3H124.5z M133.6,1535.9v38.8h8.9c4.4,0,7.8-1.4,10.4-4.3     c2.6-2.9,3.8-6.6,3.8-11.1v-8.1c0-4.5-1.3-8.1-3.8-11c-2.6-2.9-6-4.3-10.4-4.3H133.6z" id="XMLID_177_"/><path class="st1" d="M220.7,1560c0,6.5-2.1,11.8-6.3,16.1c-4.2,4.3-9.6,6.4-16.3,6.4c-6.5,0-11.8-2.1-15.9-6.4     c-4.1-4.3-6.1-9.6-6.1-16.1v-9.5c0-6.4,2-11.8,6.1-16.1c4.1-4.3,9.4-6.4,15.9-6.4c6.6,0,12.1,2.1,16.2,6.4     c4.2,4.3,6.3,9.6,6.3,16.1V1560z M211.7,1550.4c0-4.4-1.2-8-3.6-10.9c-2.4-2.8-5.7-4.3-9.8-4.3c-4,0-7.2,1.4-9.5,4.3     c-2.3,2.8-3.5,6.5-3.5,10.9v9.6c0,4.5,1.2,8.1,3.5,11c2.3,2.8,5.5,4.3,9.4,4.3c4.2,0,7.4-1.4,9.8-4.3c2.4-2.8,3.6-6.5,3.6-11     V1550.4z" id="XMLID_174_"/><path class="st1" d="M272.4,1564.4l0.1,0.2c0.1,5.3-1.7,9.6-5.3,12.9c-3.7,3.3-8.6,4.9-14.8,4.9     c-6.3,0-11.5-2.1-15.4-6.2c-3.9-4.2-5.9-9.5-5.9-15.9v-10.1c0-6.4,1.9-11.8,5.8-15.9c3.9-4.2,8.9-6.3,15.2-6.3     c6.4,0,11.4,1.6,15.1,4.8c3.7,3.2,5.5,7.5,5.4,13l-0.1,0.2h-8.8c0-3.5-1-6.2-2.9-8.1c-2-1.9-4.9-2.8-8.7-2.8     c-3.7,0-6.6,1.4-8.8,4.3c-2.2,2.8-3.2,6.4-3.2,10.8v10.1c0,4.4,1.1,8,3.3,10.8c2.2,2.8,5.2,4.3,9,4.3c3.7,0,6.5-0.9,8.5-2.8     c1.9-1.9,2.9-4.6,2.9-8.2H272.4z" id="XMLID_172_"/></g></g></g><g id="XMLID_1979_"><g id="XMLID_1980_"><path class="st0" d="M132.9,506.2c-25.7,0-46.7-20.4-46.7-45.4v-38.2L66,407.3V274.9h20.2V77.4    c0-25,20.9-45.4,46.7-45.4h56.9V21.7h124.7L325.2,32h82.6c25.7,0,46.7,20.4,46.7,45.4v80.4l7.9,7.6v121.4h-7.9v173.9    c0,25-20.9,45.4-46.7,45.4H132.9z" id="XMLID_1983_"/><path class="st1" d="M116.6,490.3c-25.7,0-46.7-20.4-46.7-45.4v-38.2l-20.2-15.2V259h20.2V61.5    c0-25,20.9-45.4,46.7-45.4h56.9V5.8h124.7l10.6,10.3h82.6c25.7,0,46.7,20.4,46.7,45.4V142l7.9,7.6V271h-7.9v173.9    c0,25-20.9,45.4-46.7,45.4H116.6z" id="XMLID_1986_"/><g id="XMLID_1987_"><g id="XMLID_1988_"><path class="st6" d="M389.2,474.9H118.8c-18.3,0-33.1-14.8-33.1-33.1V64.6c0-18.3,14.8-33.1,33.1-33.1h270.4      c18.3,0,33.1,14.8,33.1,33.1v377.2C422.3,460.1,407.5,474.9,389.2,474.9z" id="XMLID_1991_"/><path class="st7" d="M98.8,437.1V69.4c0-13.9,11.2-25.1,25.1-25.1h260.1c13.9,0,25.1,11.2,25.1,25.1v367.7      c0,13.9-11.2,25.1-25.1,25.1H123.9C110.1,462.2,98.8,450.9,98.8,437.1z" id="XMLID_1994_"/></g><polygon class="st8" id="XMLID_1997_" points="430.1,255.6 430.1,156 291.6,21.2 189.3,21.2    "/><polygon class="st9" id="XMLID_2000_" points="189.3,21.2 189.3,31.5 199.9,31.5    "/><polygon class="st9" id="XMLID_2003_" points="422.3,248 422.3,255.6 430.1,255.6    "/><path class="st8" d="M277.4,383.9H65.6V274.5h211.9c29.8,0,54,24.2,54,54v1.4     C331.4,359.7,307.3,383.9,277.4,383.9z" id="XMLID_2006_"/><polygon class="st9" id="XMLID_2009_" points="65.6,383.9 85.7,399.1 85.7,383.9    "/></g></g><g id="XMLID_2020_"><g id="XMLID_195_"><path class="st1" d="M131,336.3v22.4h-10.1v-59h23.2c6.7,0,11.9,1.7,15.7,5s5.7,7.8,5.7,13.3     c0,5.5-1.9,10-5.7,13.3c-3.8,3.3-9,5-15.7,5H131z M131,328.4h13.1c3.7,0,6.6-1,8.4-2.9c1.9-1.9,2.8-4.4,2.8-7.4s-0.9-5.5-2.8-7.5     c-1.9-2-4.7-3-8.4-3H131V328.4z" id="XMLID_201_"/><path class="st1" d="M177.7,358.7v-59h20c7.7,0,13.9,2.3,18.7,7c4.8,4.7,7.2,10.7,7.2,18v9     c0,7.4-2.4,13.4-7.2,18c-4.8,4.6-11.1,7-18.7,7H177.7z M187.8,307.6v43.2h9.9c4.9,0,8.7-1.6,11.6-4.8c2.9-3.2,4.3-7.3,4.3-12.3     v-9c0-5-1.4-9.1-4.3-12.3c-2.9-3.2-6.7-4.8-11.6-4.8H187.8z" id="XMLID_198_"/><path class="st1" d="M271.9,333.5h-24.4v25.2h-10.1v-59h38.8v7.9h-28.7v18h24.4V333.5z" id="XMLID_196_"/></g></g></g></svg>