<?xml version="1.0" ?><!DOCTYPE svg  PUBLIC '-//W3C//DTD SVG 1.1//EN'  'http://www.w3.org/Graphics/SVG/1.1/DTD/svg11.dtd'><svg enable-background="new 0 0 128 128" id="Social_Icons" version="1.1" viewBox="0 0 128 128" xml:space="preserve" xmlns="http://www.w3.org/2000/svg" xmlns:xlink="http://www.w3.org/1999/xlink"><g id="_x37__stroke"><g id="Shopify"><rect clip-rule="evenodd" fill="none" fill-rule="evenodd" height="128" width="128"/><path clip-rule="evenodd" d="M70.45,19.568c0-0.436,0.004-0.864,0.004-1.332    c0-4.08-0.565-7.368-1.469-9.972c3.634,0.456,6.054,4.612,7.61,9.392C74.773,18.224,72.699,18.868,70.45,19.568z M62.426,60.248    c0,0-4.251-2.28-9.461-2.28c-7.642,0-8.028,4.82-8.028,6.032c0,6.628,17.187,9.168,17.187,24.688    c0,12.208-7.706,20.072-18.098,20.072c-12.47,0-18.846-7.8-18.846-7.8l3.339-11.084c0,0,6.555,5.656,12.088,5.656    c3.61,0,5.083-2.86,5.083-4.948c0-8.644-14.102-9.032-14.102-23.236c0-11.952,8.538-23.52,25.772-23.52    c6.639,0,9.923,1.912,9.923,1.912L62.426,60.248z M59.596,4.428c0.712,0,1.425,0.244,2.11,0.716    c-5.266,2.488-10.906,8.76-13.29,21.28c-3.483,1.084-6.886,2.144-10.034,3.124C41.171,19.996,47.798,4.428,59.596,4.428z     M66.147,20.192c0,0.252-0.004,0.484-0.004,0.716c-4,1.244-8.343,2.596-12.697,3.952C55.89,15.38,60.472,10.8,64.48,9.072    C65.487,11.616,66.147,15.268,66.147,20.192z M85.058,15.097c-0.26,0.034-0.485,0.085-0.642,0.131    c-0.084,0.024-1.485,0.46-3.805,1.18C78.339,9.84,74.331,3.804,67.282,3.804c-0.195,0-0.398,0.008-0.597,0.02    C64.679,1.16,62.195,0,60.05,0C43.623,0,35.774,20.64,33.314,31.124c-6.384,1.988-10.918,3.4-11.495,3.584    c-3.566,1.124-3.678,1.236-4.143,4.608C17.322,41.872,8,114.324,8,114.324L80.639,128l0.077-0.017L85.058,15.097z M90.259,18.652    c2.097,2.093,4.475,4.464,4.475,4.464s9.787,0.728,10.249,0.768c0.466,0.04,1.027,0.396,1.114,1.04    c0.088,0.644,13.903,94.52,13.903,94.52l-33.901,7.369L90.259,18.652z" fill="#81BF37" fill-rule="evenodd" id="Shopify_1_"/></g></g></svg>