<?xml version="1.0" ?><!DOCTYPE svg  PUBLIC '-//W3C//DTD SVG 1.1//EN'  'http://www.w3.org/Graphics/SVG/1.1/DTD/svg11.dtd'><svg enable-background="new 0 0 158.52 155.031" height="155.031px" id="icons" version="1.1" viewBox="0 0 158.52 155.031" width="158.52px" xml:space="preserve" xmlns="http://www.w3.org/2000/svg" xmlns:xlink="http://www.w3.org/1999/xlink"><g><path d="M14.657,133.496c10.881,12.783,28.944,12.354,44.725,13.058c13.687,0.611,53.589,0.231,66.293-6.035   c20.426-10.063,22.972-26.003,22.972-84.906c0-35.951-28.98-45.526-41.108-46.213c-13.832-0.781-35.472,1.982-54.046,2.319   c-21.051,0.38-40.508,14.854-44.41,35.539C4.03,74.05,2.862,119.646,14.657,133.496z" fill="#1E9EC1"/><path d="M157,87.869c0-7.415-1.038-14.521-1.014-21.829c0.021-6.153,0.342-12.313,0.175-18.464   c-0.115-4.231-0.326-8.458-0.468-12.687c-0.104-3.092,0.611-6.225,0.16-9.261c-1.158-7.797-5.487-14.486-11.912-19.083   c-5.635-4.032-11.76-5.036-18.5-5.237c-8.973-0.267-17.882-0.082-26.854,0.016c-8.055,0.088-16.091-0.14-24.143,0.221   c-8.745,0.392-17.497,0.645-26.247,0.878c-4.073,0.108-8.155,0.292-12.229,0.158c-4.023-0.133-8.074-0.332-12.057,0.39   C15.928,4.418,8.888,9.107,5.192,16.426C2.035,22.679,2.16,29.435,2.185,36.25c0.029,8.144,0.331,16.28,0.441,24.422   c0.121,8.938,0.285,17.869,0.35,26.805c0.053,7.339,0.077,14.679,0.121,22.019c0.048,7.906-0.977,17.121,1.7,24.674   c2.503,7.063,8.343,13.591,14.94,17.103c5.745,3.058,11.993,2.968,18.333,2.984c17.594,0.044,35.178-0.454,52.77-0.488   c8.637-0.017,17.256,0.53,25.889,0.655c5.542,0.08,11.674,0.234,17.152-0.955c7.678-1.667,14.565-6.684,18.641-13.381   c2.874-4.723,3.826-9.805,4.024-15.2C156.997,112.581,157,95.882,157,87.869z M151.43,50.902   c-0.19,7.618,0.159,24.613,0.159,35.252c0,16.962-0.18,23.154-0.931,40.105c-0.517,11.689-9.812,21.346-21.642,21.962   c-16.249,0.846-32.575,0.532-48.835,0.276c-16.887-0.266-33.839,0.09-50.706-0.771c-5.958-0.304-11.335-3.357-15.189-7.87   c-5.447-6.379-5.328-13.619-5.39-21.571c-0.103-13.144,0.92-26.601-0.255-39.659c-1.399-15.546-1.223-31.217-0.86-46.821   c0.192-8.241,1.523-15.922,8.802-20.964c7.138-4.944,15.446-3.783,23.611-3.817C55.176,6.961,70.137,6.62,85.124,6.712   c14.537,0.089,29.086,0.691,43.614,1.175c11.961,0.398,21.352,10.29,21.994,22.02C151.113,36.887,151.605,43.908,151.43,50.902z"/><path clip-rule="evenodd" d="M75.22,45c-16.25,0-18.872-1.39-21.399,3.039   c-4.351,7.625-8.208,14.018-11.278,19.684c-3.21,5.926-9.63,17.786-12.84,23.712c-2.236,4.127-5.24,10.156-6.983,14.514   c-2,5,9.172,2.733,19.092,2.944c21.822,0.463,48.017,3.022,49.887,0.02c4.914-7.888,8.618-14.395,14.271-25.895   C116.827,60.931,122.728,51.971,124.76,48c2.71-5.296-7.181-3.063-14.049-2.904C98.189,45.385,83.702,45,75.22,45z" fill="#FFFFFF" fill-rule="evenodd"/><path d="M127.557,50.884C127.928,50.238,127.178,51.526,127.557,50.884L127.557,50.884z"/><path d="M132.872,44.201c-6.116-0.192-12.231-0.405-18.347-0.574c-3.887-0.107-7.771-0.182-11.659-0.155   c-3.687,0.026-7.322,0.557-11.008,0.586C84.018,44.118,76.169,44,68.326,44c-2.742,0-6.718-0.773-9.375,0.118   c-1.513,0.507-2.193,3.221-2.853,4.513c-0.896,1.756-1.832,3.491-2.761,5.23c-1.512,2.83-3.091,5.625-4.645,8.432   c-3.469,6.262-7.345,12.248-10.974,18.405c-2.609,4.428-4.538,9.167-6.755,13.789c-1.877,3.913-4.144,7.518-6.306,11.275   c-0.855,1.485-2.415,3.808-0.149,4.953c1.403,0.709,3.688,0.405,5.194,0.479c5.781,0.286,11.561,0.657,17.347,0.926   c4.143,0.193,8.296,0.346,12.445,0.33c7.065-0.028,14.034-1.054,21.135-0.907c3.658,0.076,7.32,0.109,10.978,0.227   c2.595,0.084,7.692,1.43,9.383-1.356c0.817-1.347,1.507-2.899,2.233-4.295c3.833-7.371,7.746-14.7,11.593-22.064   c6.326-12.106,12.205-24.546,19.146-36.31C134.714,46.471,135.035,44.269,132.872,44.201z M127.557,50.884   c-5.515,9.482-10.15,19.5-15.591,29.042c-2.748,4.82-5.528,9.628-8.106,14.541c-1.736,3.307-3.367,6.662-4.998,10.021   c-0.431,0.889-0.866,1.776-1.311,2.658c-0.996,0.028-1.993,0.045-2.989,0.058c-2.336,0.03-4.672,0.052-7.008,0.074   c-14.269,0.136-28.54-0.175-42.807-0.386c-5.05-0.075-10.102-0.196-15.153-0.192c6.598-11.3,12.36-23.084,18.562-34.606   c4.008-7.446,8.009-14.896,12.036-22.331C60.633,48.949,60.745,48,61.703,48c0,0,12.11,0,16.146,0   c3.956,0,7.908,0.433,11.865,0.503c4.566,0.08,9.112-0.173,13.676-0.168c8.721,0.009,17.419-0.379,26.137-0.504   C128.848,48.832,128.166,49.837,127.557,50.884z"/></g></svg>