<?xml version="1.0" ?><!DOCTYPE svg  PUBLIC '-//W3C//DTD SVG 1.1//EN'  'http://www.w3.org/Graphics/SVG/1.1/DTD/svg11.dtd'><svg enable-background="new 0 0 158.52 155.031" height="155.031px" id="icons" version="1.1" viewBox="0 0 158.52 155.031" width="158.52px" xml:space="preserve" xmlns="http://www.w3.org/2000/svg" xmlns:xlink="http://www.w3.org/1999/xlink"><g><path d="M150.838,61.187c-1.588-11.51-2.996-23.994-6.59-35.096c-1.4-4.324-3.692-11.98-12.777-16.932   C115.808,0.622,96.182-0.946,78.969-1.163C68.937-1.288,58.922-0.848,48.903-0.405c-9.191,0.408-18.297,2.668-25.994,7.852   C8.291,17.292,3.098,34.974,1.453,51.632c-1.771,17.932,0.723,42.26,3.932,59.891c3.586,19.693,12.781,30.947,31.963,38.98   c17.705,7.416,38.035,6.057,56.673,3.986c18.027-2.002,39.586-2.697,50.973-19.004c5.711-8.18,6.719-18.717,7.633-28.334   C154.082,91.826,152.935,76.392,150.838,61.187z" fill="#EE3D8C"/><g><path d="M3.631,86.024c0,0-0.003-0.531-0.008-1.561c-0.002-1.03-0.031-2.557,0.024-4.551c0.028-3.975,0.411-9.863-0.174-17.337    c0.033-3.734,0.32-7.863,0.495-12.358c0.249-4.493,0.365-9.356,0.58-14.549c0.115-2.6,0.233-5.283,0.355-8.046    c0.115-2.917,0.735-6.078,1.965-9.036c1.226-2.973,3.084-5.819,5.541-8.196c2.45-2.378,5.483-4.28,8.808-5.441    c1.658-0.592,3.376-1.027,5.122-1.319c0.874-0.136,1.752-0.251,2.636-0.325c0.882-0.07,1.789-0.114,2.592-0.143    c3.316-0.145,6.69-0.229,10.128-0.198c3.445,0.075,6.948,0.152,10.505,0.229c3.556,0.048,7.164,0.013,10.816-0.189    c3.659-0.096,7.349-0.479,11.118-0.666c0.943-0.055,1.889-0.11,2.837-0.165c0.961-0.011,1.925-0.023,2.891-0.034    c1.891-0.008,3.804-0.015,5.719,0.073c3.833,0.124,7.708,0.587,11.611,0.768c3.907,0.256,7.852,0.152,11.837,0.07    c3.988-0.083,8.002-0.148,12.059-0.31c2.032-0.06,4.072-0.119,6.118-0.179l1.537-0.046c0.617-0.019,1.051,0.003,1.587,0.002    c1.159,0.061,2.28,0.157,3.373,0.361c2.208,0.375,4.369,1.067,6.42,2.011c2.049,0.953,3.953,2.203,5.721,3.622    c3.509,2.867,6.418,6.553,8.228,10.849c0.448,1.074,0.844,2.178,1.154,3.315c0.286,1.144,0.513,2.31,0.64,3.499    c0.033,0.297,0.049,0.597,0.073,0.896l0.032,0.463l0.015,0.394l0.06,1.576l0.094,3.157c0.153,4.199,0.206,8.46,0.252,12.729    c0.016,8.531-0.059,17.008-0.26,25.557c-0.045,4.255,0.06,8.517-0.096,12.729c-0.173,4.226-0.186,8.445-0.287,12.664l-0.054,3.163    c-0.009,1.114-0.065,2.132-0.096,3.202c-0.046,1.058-0.065,2.112-0.075,3.171l-0.082,3.181c-0.083,2.117-0.047,4.237-0.09,6.338    c-0.03,2.105-0.06,4.206-0.091,6.303c-0.07,2.104-0.14,4.204-0.209,6.299l-0.027,0.786l-0.017,0.428l-0.032,0.389l-0.064,0.778    l-0.11,0.839c-0.151,1.118-0.384,2.176-0.684,3.239c-0.599,2.114-1.479,4.139-2.6,6.009c-1.08,1.895-2.419,3.628-3.908,5.201    c-3,3.131-6.695,5.561-10.762,7.051c-2.035,0.743-4.17,1.231-6.35,1.426c-2.066,0.149-4.02,0.248-6.02,0.429    c-8.033,0.447-15.901,1.243-23.589,1.219c-7.693,0.044-15.206-0.463-22.512-0.847c-3.651-0.208-7.253-0.413-10.801-0.614    c-3.542-0.155-7.03-0.308-10.46-0.458c-6.876-0.173-13.521-0.032-19.918-0.054c-1.605-0.015-3.194-0.03-4.765-0.044    c-1.606-0.059-3.101-0.015-4.862-0.299c-3.33-0.525-6.352-1.81-9.021-3.438c-5.323-3.291-9.333-8.013-11.467-13.248    c-1.078-2.609-1.69-5.34-1.812-8.022c-0.052-2.427-0.102-4.766-0.15-7.014c-0.118-4.483-0.108-8.604-0.385-12.316    c-0.409-7.437-0.683-13.286-0.841-17.274c-0.172-3.988-0.264-6.115-0.264-6.115c0-0.005,0-0.009,0-0.014L3.631,86.024z     M8.072,85.945c0.002,0.049,0.097,2.162,0.272,6.093c0.21,3.977,0.611,9.804,1.138,17.218c0.303,3.711,0.638,7.82,1.002,12.293    c0.199,2.225,0.407,4.54,0.622,6.943c0.186,1.955,0.809,3.932,1.657,5.914c1.776,3.914,4.789,7.864,8.925,10.662    c2.024,1.433,4.354,2.561,6.785,3.138c1.038,0.292,2.69,0.398,4.157,0.549c1.513,0.147,3.096,0.244,4.668,0.342    c3.17,0.158,6.413,0.405,9.725,0.461c3.312,0.054,6.688,0.02,10.125,0.04c3.445,0.102,6.948,0.206,10.506,0.311    c3.547,0.146,7.147,0.294,10.797,0.445c14.571,0.624,30.041,1.048,45.82,0.153c1.973-0.119,4.021-0.304,5.95-0.449    c1.787-0.19,3.565-0.62,5.274-1.275c3.425-1.295,6.556-3.468,9.019-6.185c2.452-2.725,4.281-5.971,5.137-9.43    c0.212-0.85,0.381-1.773,0.461-2.59l0.064-0.611l0.043-0.779l0.021-0.39c-0.012,0.115-0.002-0.078-0.005-0.103l0.001-0.192    l0.005-0.769c0.014-2.053,0.116-4.095,0.147-6.162c0.017-2.08,0.035-4.163,0.052-6.251c0.031-2.096-0.019-4.153,0.054-6.233    c0.011-1.038,0.063-2.077,0.118-3.118c0.032-1.046,0.079-2.11,0.157-3.166c0.06-1.034,0.147-2.17,0.184-3.122    c0.035-1.068,0.08-2.137,0.135-3.206c0.338-8.547,1.008-17.098,0.932-25.578c-0.002-2.114-0.006-4.278-0.08-6.351l-0.27-6.364    c-0.191-4.241-0.375-8.462-0.623-12.664l-0.206-3.143l-0.127-3.141c-0.079-2.092-0.222-4.212-0.329-6.312l-0.174-3.153    l-0.07-1.576l-0.017-0.394l-0.025-0.315l-0.055-0.661c-0.196-1.767-0.671-3.533-1.365-5.228    c-2.808-6.799-9.08-12.249-16.052-13.699c-0.878-0.202-1.753-0.3-2.553-0.383l-0.765-0.039l-0.382-0.019l-0.298-0.003l-1.52-0.011    c-2.024-0.012-4.042-0.025-6.052-0.037c-4.043,0.005-8.058,0.011-12.039,0.016c-3.988-0.01-7.965,0.005-11.895,0.12    C93.186,7.683,89.32,7.766,85.48,7.736c-1.921,0.024-3.82-0.076-5.727-0.101c-0.913-0.012-1.824-0.025-2.732-0.037    c-0.93,0.007-1.857,0.014-2.781,0.021c-3.729,0.037-7.412,0.074-11.046,0.111c-7.29,0.112-14.396,0.227-21.27,0.413    c-3.44,0.138-6.823,0.245-10.133,0.439c-0.857,0.043-1.59,0.092-2.337,0.161c-0.746,0.074-1.478,0.182-2.203,0.304    c-1.443,0.264-2.834,0.641-4.151,1.134c-5.316,1.941-9.116,6.033-10.918,10.654c-0.46,1.154-0.805,2.34-1.043,3.534    c-0.116,0.598-0.207,1.197-0.277,1.794l-0.075,0.829l-0.052,1.025c-0.042,1.242-0.087,2.731-0.162,4.023    c-0.067,1.331-0.132,2.642-0.197,3.932c-0.281,5.151-0.307,9.975-0.732,14.424c-0.118,1.112-0.233,2.202-0.345,3.269    c-0.131,1.067-0.259,2.111-0.384,3.131c-0.101,1.021-0.2,2.019-0.297,2.993c-0.089,0.974-0.209,1.924-0.217,2.85    c-0.056,3.71,0.115,7.002-0.049,9.878c-0.088,2.867-0.222,5.338-0.254,7.329c-0.076,1.994-0.037,3.521-0.035,4.551    C8.069,85.358,8.072,85.881,8.072,85.945z"/></g><path clip-rule="evenodd" d="M115.724,45.533c-13.822-16.106-35.04-22.281-57.04-14.261   c-21.471,7.827-38.019,28.169-33.184,57.041c4.638,27.707,26.048,44.369,49.072,44.457   C126.254,132.966,140.579,74.493,115.724,45.533z" fill="#FF85BB" fill-rule="evenodd"/><path d="M133.46,71.062c-0.613-6.222-2.158-11.535-3.912-15.702c-1.752-4.179-3.681-7.222-5.075-9.222   c-0.715-0.99-1.276-1.743-1.68-2.23c-0.367-0.458-0.566-0.707-0.594-0.741l-0.036-0.041c0,0-0.201-0.234-0.591-0.687   c-0.197-0.227-0.442-0.51-0.733-0.846c-0.322-0.347-0.694-0.75-1.116-1.205c-1.682-1.761-4.245-4.269-8.003-6.87   c-1.877-1.295-4.039-2.626-6.53-3.814c-2.498-1.168-5.302-2.221-8.381-3.037c-3.077-0.829-6.447-1.319-9.998-1.515   c-3.555-0.147-7.301,0.025-11.131,0.646c-3.849,0.578-7.727,1.604-11.676,3.068c-0.466,0.18-0.933,0.36-1.403,0.541   c-0.492,0.209-0.986,0.418-1.482,0.629c-1.004,0.424-1.945,0.89-2.918,1.368c-1.929,0.964-3.819,2.08-5.679,3.297   c-7.401,4.882-14.106,12.034-18.132,20.98c-2.001,4.454-3.388,9.285-3.969,14.259c-0.308,2.483-0.453,5.002-0.362,7.52   c0.06,2.518,0.285,5.038,0.681,7.532c1.491,9.967,5.515,19.856,12.129,27.796c6.576,7.946,15.643,13.767,25.443,16.354   c4.866,1.331,10.014,1.763,14.844,1.561c4.963-0.232,9.753-0.893,14.447-2.072c2.336-0.599,4.624-1.349,6.835-2.256   c1.106-0.452,2.186-0.955,3.254-1.474c1.039-0.573,2.07-1.151,3.047-1.807c3.938-2.563,7.461-5.597,10.35-9.012   c1.459-1.694,2.694-3.527,3.824-5.365c1.099-1.861,2.064-3.751,2.917-5.644c0.834-1.902,1.629-3.774,2.279-5.661   c0.703-1.866,1.284-3.737,1.759-5.592C133.798,84.39,134.03,77.268,133.46,71.062z M120.406,49.088   c1.24,1.788,2.963,4.509,4.537,8.277c1.575,3.757,2.971,8.577,3.523,14.254c0.149,1.631,0.225,3.34,0.23,5.099   c-0.504-0.111-1.085-0.235-1.746-0.354c-1.275-0.238-2.833-0.488-4.636-0.633c-0.901-0.08-1.86-0.175-2.874-0.234   c-1.014-0.034-2.084-0.05-3.199-0.023c-1.115,0.035-2.275,0.109-3.468,0.296c-1.194,0.187-2.419,0.441-3.684,0.594   c-1.264,0.168-2.559,0.368-3.883,0.581c-1.321,0.227-2.681,0.382-4.042,0.683c-1.269,0.277-2.56,0.56-3.864,0.845   c-0.075-0.204-0.15-0.408-0.223-0.613c-0.574-1.53-1.079-3.088-1.753-4.588c-0.639-1.51-1.277-3.02-1.913-4.524   c-0.386-0.841-0.785-1.673-1.185-2.503c1.587-0.608,3.164-1.206,4.683-1.883c1.33-0.519,2.526-1.258,3.754-1.877   c1.175-0.716,2.327-1.416,3.399-2.182c1.08-0.753,2.123-1.5,3.083-2.295c0.991-0.752,1.88-1.572,2.744-2.346   c0.873-0.762,1.603-1.618,2.353-2.366c0.724-0.776,1.352-1.573,1.972-2.29c1.173-1.498,2.132-2.857,2.813-4.05   c0.287-0.445,0.52-0.855,0.73-1.24c0.018,0.021,0.041,0.047,0.058,0.066c0.307,0.353,0.495,0.57,0.564,0.648   c0.002,0.002,0.183,0.229,0.534,0.67C119.271,47.532,119.768,48.205,120.406,49.088z M76.381,30.366   c1.741-0.383,3.485-0.516,5.182-0.552c1.698-0.047,3.354-0.003,4.964,0.086c3.215,0.241,6.239,0.759,8.996,1.539   c5.529,1.542,9.993,3.929,13.354,6.283c2.062,1.438,3.739,2.84,5.08,4.074c-0.311,0.556-0.717,1.393-1.392,2.372   c-0.617,1.018-1.49,2.178-2.523,3.481c-0.557,0.622-1.111,1.314-1.76,1.991c-0.677,0.653-1.323,1.398-2.111,2.072   c-0.772,0.688-1.56,1.42-2.457,2.095c-0.86,0.714-1.805,1.388-2.785,2.07c-0.967,0.696-2.03,1.328-3.096,1.992   c-1.115,0.594-2.22,1.25-3.415,1.803c-1.423,0.711-2.91,1.384-4.434,2.024c-0.296-0.537-0.592-1.073-0.885-1.605   c-0.779-1.378-1.488-2.772-2.297-4.081c-1.687-2.573-2.88-5.341-4.638-7.576c-0.85-1.132-1.66-2.244-2.486-3.286   c-0.89-0.992-1.75-1.951-2.576-2.871c-0.845-0.906-1.568-1.821-2.409-2.601c-0.818-0.794-1.616-1.517-2.24-2.321   c-0.668-0.764-1.294-1.479-1.872-2.14c-0.601-0.597-1.153-1.145-1.652-1.64c-0.264-0.269-0.509-0.52-0.742-0.757   C70.903,31.749,73.666,30.877,76.381,30.366z M55.469,39.149c1.68-1.099,3.425-2.045,5.182-2.893   c0.43-0.23,0.886-0.405,1.315-0.628c0.422-0.216,0.841-0.423,1.254-0.606c0.255,0.269,0.564,0.594,0.929,0.979   c0.391,0.38,0.84,0.817,1.344,1.306c0.516,0.473,1.098,0.994,1.744,1.533c0.584,0.557,1.215,1.16,1.889,1.803   c1.357,1.288,2.765,2.855,4.214,4.714c0.736,0.911,1.503,1.859,2.296,2.841c0.728,1.034,1.48,2.102,2.253,3.201   c1.596,2.164,2.969,4.656,4.566,7.12c0.788,1.24,1.481,2.568,2.244,3.878c0.214,0.376,0.43,0.756,0.645,1.135   c-2.067,0.774-4.192,1.468-6.334,2.115c-2.725,0.775-5.481,1.461-8.225,2.017c-2.74,0.57-5.457,1.063-8.109,1.399   c-2.647,0.368-5.224,0.594-7.67,0.755c-1.223,0.077-2.413,0.183-3.566,0.218c-1.153,0.083-2.268,0.141-3.339,0.169   c-2.145,0.1-4.11,0.04-5.848-0.048c-0.87-0.043-1.673-0.169-2.414-0.298c-0.746-0.123-1.413-0.26-2.006-0.393   c-0.855-0.169-1.6-0.342-2.204-0.489c0.617-3.924,1.77-7.708,3.412-11.185C42.764,49.88,48.737,43.507,55.469,39.149z    M40.095,97.468c-0.915-2.116-1.736-4.28-2.383-6.501c-0.388-1.117-0.647-2.152-0.966-3.286l-0.423-1.78   c-0.134-0.484-0.23-1.114-0.347-1.664c-0.683-3.316-0.95-6.678-0.841-9.995c0.05,0.013,0.091,0.024,0.143,0.038   c0.493,0.103,1.106,0.202,1.768,0.323c1.352,0.257,2.96,0.104,4.788,0.34c0.91,0.129,1.88,0.289,2.905,0.394   c1.025,0.111,2.102,0.313,3.231,0.428c2.257,0.278,4.72,0.479,7.313,0.304c2.588-0.208,5.309-0.487,8.102-0.916   c2.795-0.414,5.641-1.096,8.511-1.805c2.869-0.729,5.735-1.638,8.575-2.589c2.443-0.817,4.861-1.697,7.209-2.679   c0.424,0.852,0.849,1.707,1.258,2.573c0.62,1.445,1.242,2.895,1.864,4.345c0.669,1.434,1.124,2.952,1.663,4.431   c0.038,0.109,0.077,0.218,0.115,0.327c-0.621,0.19-1.243,0.38-1.867,0.571c-0.69,0.263-1.382,0.526-2.076,0.79   c-1.376,0.555-2.795,1.008-4.139,1.653c-1.348,0.63-2.695,1.261-4.037,1.888c-1.325,0.66-2.599,1.412-3.885,2.108   c-0.634,0.364-1.29,0.683-1.897,1.081c-0.607,0.397-1.21,0.792-1.81,1.185c-0.599,0.393-1.194,0.784-1.785,1.172   c-0.596,0.38-1.178,0.771-1.718,1.212c-2.19,1.711-4.604,2.993-6.521,4.705c-0.953,0.854-1.954,1.609-2.735,2.532   c-0.82,0.883-1.55,1.794-2.278,2.637c-0.724,0.846-1.419,1.651-2.003,2.508c-0.613,0.825-1.213,1.586-1.781,2.299   c-0.572,0.702-1.153,1.353-1.606,1.967c-0.433,0.62-0.848,1.178-1.234,1.674c-0.729,0.975-1.326,1.727-1.76,2.24   c-0.81-0.852-1.589-1.736-2.33-2.652C44.235,105.737,41.841,101.739,40.095,97.468z M96.114,123.595   c-4.119,1.286-8.624,2.019-13.049,2.119l-1.775,0.017l-0.448,0.003l-0.224,0.001c0.037,0-0.11-0.004-0.155-0.006l-0.836-0.029   c-1.116-0.022-2.233-0.125-3.347-0.245c-2.229-0.246-4.45-0.671-6.627-1.284c-6.019-1.66-11.699-4.686-16.545-8.754   c0.101-0.125,0.221-0.272,0.378-0.465c0.432-0.518,1.045-1.292,1.804-2.293c0.387-0.495,0.806-1.05,1.248-1.663   c0.452-0.596,0.973-1.146,1.51-1.786c0.528-0.639,1.086-1.322,1.654-2.06c0.534-0.761,1.203-1.501,1.895-2.279   c0.709-0.76,1.421-1.582,2.235-2.353c0.39-0.404,0.859-0.737,1.32-1.088c0.468-0.344,0.911-0.727,1.367-1.109   c1.718-1.651,3.705-3.175,5.736-4.804c0.497-0.423,1.035-0.796,1.587-1.159c0.547-0.371,1.097-0.745,1.651-1.122   c0.555-0.378,1.113-0.757,1.674-1.139c0.561-0.382,1.172-0.688,1.761-1.039c1.195-0.668,2.374-1.401,3.61-2.036   c1.258-0.594,2.522-1.191,3.785-1.787c1.255-0.624,2.607-1.014,3.906-1.521c0.655-0.239,1.309-0.478,1.961-0.716   c0.631-0.182,1.26-0.362,1.887-0.543c0.331,1.321,0.595,2.651,0.787,3.979c0.197,1.523,0.363,3.026,0.791,4.443   c0.167,0.719,0.351,1.428,0.502,2.138c0.137,0.713,0.273,1.418,0.407,2.117c0.263,1.397,0.546,2.76,0.776,4.095   c0.199,1.34,0.392,2.643,0.58,3.904c0.094,0.63,0.186,1.25,0.276,1.858c0.064,0.611,0.128,1.211,0.19,1.799   c0.25,2.351,0.5,4.504,0.584,6.423c0.112,1.916,0.26,3.586,0.258,4.964c0.02,0.919,0.036,1.694,0.05,2.336   C98.24,122.903,97.186,123.267,96.114,123.595z M126.963,90.577c-0.437,1.691-0.972,3.393-1.617,5.087   c-0.604,1.71-1.332,3.406-2.106,5.116c-1.581,3.401-3.589,6.769-6.15,9.84c-2.59,3.034-5.689,5.812-9.314,7.897   c-0.946,0.458-1.914,0.868-2.834,1.368c-0.215,0.116-0.433,0.227-0.649,0.342c-0.001-0.075-0.002-0.141-0.003-0.218   c0.014-1.431-0.121-3.161-0.219-5.149c-0.071-1.991-0.306-4.223-0.542-6.661c-0.059-0.61-0.119-1.232-0.18-1.866   c-0.087-0.631-0.176-1.274-0.267-1.928c-0.182-1.308-0.37-2.661-0.563-4.051c-0.47-2.768-1.031-5.676-1.66-8.677   c-0.165-0.747,0.12-1.612-0.164-2.347c-0.185-0.758-0.329-1.533-0.558-2.291c-0.391-1.219-0.787-2.458-1.184-3.698   c1.068-0.161,2.134-0.322,3.177-0.479c1.299-0.183,2.6-0.225,3.85-0.378c1.255-0.13,2.479-0.253,3.68-0.321   c2.396-0.168,4.656-0.356,6.756-0.379c1.049-0.026,2.053-0.076,3.009-0.084c0.957,0.022,1.865,0.043,2.719,0.062   c0.854,0.019,1.652,0.037,2.391,0.054c0.738,0.028,1.415,0.099,2.027,0.138c0.729,0.054,1.352,0.101,1.885,0.14   C128.189,84.846,127.724,87.686,126.963,90.577z"/></g></svg>