<?xml version="1.0" ?><!DOCTYPE svg  PUBLIC '-//W3C//DTD SVG 1.1//EN'  'http://www.w3.org/Graphics/SVG/1.1/DTD/svg11.dtd'><svg enable-background="new 0 0 155.302 153.261" height="153.261px" id="icons" version="1.1" viewBox="0 0 155.302 153.261" width="155.302px" xml:space="preserve" xmlns="http://www.w3.org/2000/svg" xmlns:xlink="http://www.w3.org/1999/xlink"><g><path d="M149.671,46.929c-0.688-7.718-0.68-15.832-3.703-22.766c-4.561-10.461-15.318-14.642-25.783-16.545   C92.703,2.622,56.507-3.227,30.054,5.295c-11.831,3.811-16.36,7.052-23.248,18.233C2.673,30.24,4.585,40.333,4.859,47.51   c0.089,2.323,0.027,6.685-0.558,11.92c0,0,111.504,86.973,111.509,86.973c-0.002,0-0.004,0-0.006,0   c0.001,0,0.005-0.143,0.005-0.143c10.339-0.591,21.358-2.055,27.757-11.158c6.354-9.038,5.997-21.022,7.285-31.561   c1.087-8.894,1.957-17.832,2.132-26.795C153.12,69.802,150.763,59.195,149.671,46.929z" fill="#EE3D8C"/><path d="M113.943,136.652c-8.424-32.826-16.106-68.634-48.263-84.909c-18.038-9.13-43.379-4.886-61.379,7.686   c-2,11.964-3.448,28.463-2.977,35.467L68.4,150.514c14.783,0.457,29.306-3.349,44.053-4.076c1.138-0.056,2.189-0.036,3.352-0.036   h0.006C115.363,143.403,114.733,139.732,113.943,136.652z" fill="#F26A09"/><path d="M0.813,94.897c0.744,11.07,1.293,22.293,5.369,32.74c3.578,9.172,9.779,16.819,18.461,21.578   c11.504,6.307,30.827,0.905,43.544,1.299c-1.022-11.84,0.978-21.34-11.708-39.227C38.9,86.5,0.644,92.389,0.813,94.897z" fill="#FEE000"/><path d="M110.239,35.186c-2.634-0.325-7.598-0.305-10.719,3.858c-1.7,2.267-3.61,11.431,6.722,14.761   c3.487,1.124,8.901-1.611,10.394-4.912C120.273,40.854,113.925,35.64,110.239,35.186z" fill="#FFFFFF"/><path d="M83.734,139.871c-9.52-0.056-19.014-0.591-28.536-0.647c-9.673-0.057-21.959,1.11-29.544-6.184   c-8.062-7.754-6.414-21.095-7.498-31.345c-1.224-11.571-2.3-22.617-1.138-34.233c0.616-6.152,0.818-12.279,0.979-18.457   c0.132-5.049-0.11-10.277,1.953-15.005c4.174-9.564,12.753-12.594,22.368-13.531c9.883-1.015,19.784-1.506,29.713-1.566   c13.694,0.085,27.392-1.057,41.081-0.43c4.517,0.207,8.655,0.508,12.781,2.718c6.867,3.68,11.832,11.006,12.239,18.841   c0.45,17.579-1.84,35.168-0.117,52.67c0.812,8.246,0.494,16.61,0.096,24.874c-0.37,7.684-5.413,14.529-12,18.244   c-6.508,3.67-14.698,3.046-21.944,3.582c-3.286,0.201-6.645-0.318-9.958-0.206C90.713,139.378,87.236,139.803,83.734,139.871z    M83.743,134.901c9.804-0.247,19.65-1.168,29.318-2.645c5.677-0.867,10.155-1.306,14.339-5.708   c4.109-4.322,4.324-9.505,4.521-15.141c0.463-13.231,0.13-26.402-0.198-39.633c-0.149-6.284-0.057-12.559-0.055-18.844   c0.002-5.996,0.924-13.231-1.855-18.76c-4.142-8.241-11.625-8.912-19.672-9.057c-13.02-0.235-25.886-0.145-38.884-1.09   c-7.61-0.554-15.005-0.362-22.592,0.802c-6.315,0.969-14.866,1.104-19.942,5.356c-3.55,2.975-4.715,6.541-5.69,10.722   c-0.797,7.194-0.716,14.6-0.973,21.831c-0.284,8.008-0.556,16.04-0.052,24.044c0.534,8.488,1.749,17.001,1.959,25.502   c0.165,6.674,0.377,13.814,7.05,17.383c3.737,1.998,7.91,1.618,11.984,1.832C56.631,132.212,70.056,134.688,83.743,134.901z"/><path d="M107.89,78.839c-0.198,3.314-0.896,6.55-2.065,9.657c-1.409,3.743-3.715,6.889-6.049,10.096   c-2.352,3.231-5.217,5.96-8.855,7.679c-3.661,1.73-7.578,2.397-11.588,2.618c-12.638,0.413-24.27-7.587-29.578-18.929   c-2.505-5.354-3.636-11.306-2.448-17.15c1.135-5.583,4.051-10.867,7.795-15.126c2.579-2.934,5.531-5.505,9.359-6.499   c1.819-0.593,3.526-1.547,5.35-2.158c2.117-0.71,4.305-1.222,6.524-1.469c5.574-0.619,10.927,0.497,15.78,3.386   c2.535,1.464,4.636,3.919,6.472,6.144c1.968,2.385,3.638,4.953,5.204,7.614C105.888,69.173,107.969,73.765,107.89,78.839z    M102.079,78.674c-0.344-7.241-2.95-13.87-8.824-18.413c-4.371-3.382-12.221-5.484-15.611-5.484s-6.866,0.441-10.106,2.009   c-2.156,1.043-4.372,2.194-6.284,3.651c-5.365,4.09-8.693,10.345-9.127,17.054c-0.44,6.796,2.451,13.668,7.404,18.285   c5.002,4.663,12.881,7.302,20.572,6.996c1.876-0.075,3.788-0.603,5.56-1.205c3.479-1.182,6.599-3.137,9.227-5.699   c4.474-4.361,6.759-11.263,7.193-17.401C102.082,78.528,102.08,78.611,102.079,78.674z"/><path d="M124.302,40.938c-0.519-5.303-4.743-9.717-9.889-10.821c-2.17-0.379-4.152-0.468-6.29,0.172   c-2.554,0.765-4.975,1.991-6.749,4.028c-2.543,2.918-3.214,7.078-2.153,10.751c1.22,4.223,4.677,7.209,8.726,8.628   c1.163,0.408,2.233,0.747,3.496,0.744c2.778-0.007,5.794-1.095,8.115-2.592C123.141,49.539,124.709,45.102,124.302,40.938z    M118.895,46.358c0.148-0.368-0.185,0.204-0.21,0.237c-0.27,0.35-0.585,0.69-0.891,1.008c-0.783,0.814-1.754,1.48-2.756,1.996   c-1.473,0.758-3.103,1.155-4.733,0.791c-2.191-0.629-4.39-1.781-5.806-3.592c-1.98-2.531-2.082-6.516-0.522-9.321   c1.003-1.415,2.429-2.832,4.148-3.298c1.892-0.512,3.834-0.401,5.742-0.084c2.908,1.198,5.724,3.906,6.174,7.13   C120.326,43.273,119.611,44.582,118.895,46.358z"/></g></svg>