<?xml version="1.0" ?><svg enable-background="new 0 0 153.698 153.269" version="1.1" viewBox="0 0 153.698 153.269" xml:space="preserve" xmlns="http://www.w3.org/2000/svg" xmlns:xlink="http://www.w3.org/1999/xlink"><g id="icons"><g><path d="M136.153,124.334c16.614-1.998,7.211-49.701,8.338-64.442c1.851-24.215-8.186-23.737-11.418-19.854    c-10.226,12.286-37.516,38.967-37.516,38.967s12.698,21.52,24.563,34.964C126.259,120.926,130.71,124.989,136.153,124.334z" fill="#FFF399"/><path d="M17.484,27.21l45.587,50.61c0,0-32.17,50.694-40.692,47.812c-7.767-2.627-11.129-11.18-11.129-27.244    c0-17.03,0.855-26.962,1.071-37.118C12.537,51.114,9.251,34.414,17.484,27.21z" fill="#FFF399"/><path d="M95.555,79.002c0,0,27.605,31.109,38.597,44.63c2.997,3.687,1.556,10.137-19.714,10.137    c-12.841,0-32.834-0.086-45.691-0.086c-32.728,0-49.273-3.001-46.988-9.181c5.954-16.11,39.681-52.184,39.681-52.184    L95.555,79.002z" fill="#FEEC66"/><path d="M137.149,30.204c0-7.194-10.509-14.514-17.906-15.819c-7.04-1.242-32.701-0.629-50.331-3.125    C25.249,5.078,13.865,23.887,24.374,36.738c0,0,31.284,58.621,53.935,58.388c10.429-0.107,22.254-16.165,33.773-29.867    C124.444,50.556,137.149,35.958,137.149,30.204z" fill="#FEE000"/><path d="M152.945,69.62c-0.34-7.311-0.643-14.59-0.453-21.914c0.202-7.8,2.413-19.702-1.582-26.786    c-5.243-9.297-17.165-7.692-26.184-7.606c-12.76,0.122-25.521,0.293-38.282,0.245c-9.316-0.035-17.612-0.059-26.887-0.941    c-10.115-0.961-20.151-0.137-30.278-0.148c-4.571-0.005-9.641-0.657-14.095,0.624c-5.329,1.533-9.316,5.744-11.392,10.781    c-2.666,6.468-1.35,14.394-1.206,21.229c0.352,16.671-1.148,33.336-0.64,49.976c0.323,10.586-2.318,23.498-1.294,34.016    c0.46,4.721,2.789,7.612,6.728,10.391c3.153,2.224,6.61,2.277,10.296,2.234c4.056-0.047,8.114-0.067,12.171-0.092    c12.44-0.078,24.919,0.828,37.36,1.122c12.446,0.295,23.893,0.266,36.341,0.392c7.044,0.071,14.087,0.113,21.131,0.045    c3.27-0.031,6.556-0.181,9.826-0.114c1.858,0.038,3.719-0.367,5.572-0.547c11.812-1.149,12.827-10.855,12.874-19.932    C153.035,105.949,153.571,86.254,152.945,69.62z M148.15,33.072c-0.068,16.746-0.136,33.492-0.204,50.238    c-0.036,8.812-0.072,17.623-0.108,26.435c-0.017,4.197-0.033,8.395-0.051,12.592c-0.016,3.714,0.236,7.457-2.011,10.701    c-3.041,4.388-10.015,5.086-14.673,5.194c-25.068,0.579-49.221-0.173-74.288-0.582c-11.771-0.192-23.534-0.507-35.298-0.929    c-7.264-0.261-14.14-0.19-15.603-9.364c-0.728-4.566,0.377-9.511,0.51-14.096c0.189-6.477-0.131-12.965-0.197-19.442    C6.159,87.149,6.04,80.428,6.34,73.762c0.537-11.89,1.479-23.508,1.236-35.437c-0.143-7.022-0.476-14.782,6.562-18.938    c3.905-2.306,9.275-1.972,13.62-2.321c6.731-0.54,13.525-1.003,20.281-0.855c10.843,0.237,21.589,1.778,32.467,2.01    c14.067,0.3,27.14,0.325,41.21,0.372c5.923,0.02,13.019-1.058,18.711,0.788C146.686,21.412,148.186,27.088,148.15,33.072z"/><path d="M136.971,25.832c-11.076,11.927-21.703,24.269-32.625,36.338c-3.553,3.926-6.434,7.392-10.054,11.228    c-4.29,4.546-9.131,12.424-16.241,11.871c-3.963-0.308-6.33-2.991-9.009-5.608c-3.346-3.269-6.65-6.579-9.917-9.926    c-4.353-4.459-8.501-9.092-12.564-13.815c-2.896-3.366-5.764-6.748-8.617-10.149c-2.531-3.017-5.771-5.187-8.281-8.226    c-1.455-1.761-2.874-3.555-4.318-5.326c-1.664-2.042-5.388-8.781-8.663-7.942c-7.016,1.798,6.051,13.798,7.7,15.595    c6.197,6.75,12.05,13.817,18.157,20.651c2.972,3.325,5.963,6.636,9.053,9.854c1.346,1.402,2.722,2.777,4.093,4.156    c1.432,1.44,1.969,1.343,1.318,2.864c-0.528,1.232-2.386,2.579-3.32,3.578c-2.971,3.177-6.054,6.194-9.169,9.228    c-5.395,5.254-9.94,11.267-14.781,17.02c-4.376,5.2-9.372,9.853-13.979,14.854c-1.589,1.725-5.429,4.736-2.893,7.304    c3.174,3.215,7.791-3.636,9.69-5.612c12.515-13.017,23.6-27.2,35.983-40.297c0.574-0.608,1.346-1.661,2.009-2.08    c1.573-0.992,1.154-0.884,2.717,0.646c1.489,1.457,2.957,2.947,4.496,4.352c2.375,2.168,5.033,3.78,8.251,4.359    c9.219,1.657,13.248-5.076,19.317-10.564c3.101,4.565,7.268,8.798,10.901,13.002c2.76,3.194,5.519,6.387,8.279,9.581    c2.251,2.605,4.571,5.226,6.538,8.05c2.187,3.14,4.164,6.344,6.532,9.367c2.538,3.24,5.33,8.158,8.569,10.642    c2.027,1.554,5.244,1.29,5.281-1.955c0.032-2.86-4.643-6.867-6.272-8.978c-5.115-6.627-10.067-13.358-15.339-19.863    c-5.405-6.67-11.505-12.76-16.928-19.369c-0.754-0.919-3.46-4.165-3.46-4.165s3.535-3.653,4.478-4.681    c1.728-1.885,3.457-3.769,5.17-5.667c6.867-7.611,13.581-15.355,20.343-23.058c3.557-4.052,7.252-7.993,10.768-12.079    c1.098-1.276,2.469-2.487,1.61-4.39C140.953,24.764,138.365,24.331,136.971,25.832z"/></g></g><g id="Isolation_Mode"/><g id="Calque_1"/><g id="_x30_16_soundcloud"/><g id="Layer_1"/></svg>