<?xml version="1.0" ?><svg enable-background="new 0 0 158.52 155.031" version="1.1" viewBox="0 0 158.52 155.031" xml:space="preserve" xmlns="http://www.w3.org/2000/svg" xmlns:xlink="http://www.w3.org/1999/xlink"><g id="icons"><g><path d="M41.983,146.431c7.931,0,71.825,1.559,79.732,0.966c18.079-1.357,28.888-10.047,28.888-48.257    c0-13.28,4.835-54.873-1.264-67.322c-9.801-20.005-25.941-26.742-48.28-26.742c-14.324,0-31.273-0.644-45.063,0.034    C42.683,5.763,32.814,6.922,22.124,15.223C12.109,22.998,10.046,34.521,9.07,46.253c-1.113,13.382-0.456,55.52-0.456,68.945    C8.615,131.157,20.497,146.431,41.983,146.431z" fill="#ED1C24"/><polygon fill="#FFFFFF" points="112.76,24.666 112.76,129.666 88.05,86.606 93.05,24.666   "/><path d="M42.76,37.015l21.71,43.05l-1,48.66c-7.56,2.231-13.67,3.572-17.793,4.346    c-3.078,0.577-5.917-1.784-5.917-4.916v-23.533C39.76,91.971,42.76,37.015,42.76,37.015z" fill="#FFFFFF"/><path d="M113.76,130.015c-6.83-1.12-13.78-1.92-20.82-2.37L44.76,25.015h18.347c4.456,0,8.471,2.688,10.17,6.807    L113.76,130.015z" fill="#FFFFFF"/><path d="M116.642,116.89c-0.218-28.487-0.993-56.829-0.314-85.312c0.057-2.398,1.349-7.668-1.453-9.048    c-1.183-0.583-3.197-0.249-4.428-0.264c-4.251-0.053-8.499-0.094-12.751-0.073c-1.161,0.006-2.58-0.215-3.721,0.019    c-4.153,0.849-2.679,6.601-2.613,9.772c0.167,8.034,0.413,16.067,0.519,24.102c0.095,7.255,0.182,14.51,0.274,21.765    C86.588,67.175,81.279,56.592,76.551,45.48c-2.882-6.775-5.052-13.934-8.453-20.479c-2.388-4.597-7.658-3.238-12.203-3.158    c-2.887,0.051-5.806-0.038-8.67,0.336c-2.257,0.294-4.318,0.341-4.883,2.837c-0.784,3.464,0.248,8.701,0.254,12.305    c0.013,6.837,0.395,13.67,0.333,20.508c-0.163,18.076-0.88,36.049-0.689,54.14c0.058,5.46,0.429,10.952,0.646,16.406    c0.124,3.121,0.735,3.584,3.81,3.313c4.086-0.361,8.149-0.789,12.248-0.993c3.007-0.15,7.345,0.719,8.246-2.89    c0.944-3.782,0.056-8.874-0.101-12.823c-0.476-12.001-0.484-23.935-0.29-35.945c3.899,8.074,7.756,16.164,11.572,24.278    c2.228,4.738,4.45,9.48,6.675,14.219c1.292,2.752,2.584,5.505,3.876,8.257c0.692,1.475,1.303,3.618,2.833,4.445    c2.529,1.368,7.633,0.771,10.508,1.097c3.503,0.397,7.529,1.68,11.024,1.549c2.554-0.095,3.173-1.42,3.38-3.687    C117.036,125.169,116.647,120.934,116.642,116.89z M96.269,27.267c5.079,0.025,10.157,0.03,15.237,0.014    c0.022,11.236,0.047,22.471,0.053,33.707c0.01,19.109-1.177,38.229-0.448,57.335c-2.082-4.503-4.094-9.029-6.047-13.589    c-1.268-2.96-2.6-5.891-3.965-8.809c-1.536-3.283-3.84-6.688-4.904-10.143c-0.829-2.69-0.319-5.995-0.298-8.834    c0.097-12.902,0.194-25.804,0.29-38.706C96.214,34.584,96.242,30.926,96.269,27.267z M47.261,127.104    c-0.008-14.502-0.36-29.011-0.228-43.511c0.056-6.13,0.356-12.253,0.483-18.381c0.207-9.992-0.862-19.91-0.94-29.896    c2.594,6.071,5.29,12.104,8.069,18.093c2.394,5.159,6.755,11.474,7.238,17.06c0.65,7.514-0.125,15.586-0.018,23.182    c0.102,7.205,0.106,14.41,0.106,21.616c0,2.439,0.913,6.9,0,9.135c-0.064,0.157,0.117,0.786,0,0.942    c-0.202,0.267-2.661,0.298-3.278,0.357C54.871,126.066,51.058,126.533,47.261,127.104z M103.606,126.583    c-2.32-0.224-4.644-0.397-6.968-0.563c-0.513-0.037-1.892,0.105-2.371-0.168c-1.141-0.649-2.209-4.525-2.805-5.812    c-3.465-7.493-6.869-15.016-10.29-22.529c-3.364-7.387-6.833-14.721-10.324-22.049c-5.378-11.29-10.789-22.565-16.183-33.847    c-2.35-4.915-4.7-9.831-7.05-14.746c2.353,0.014,4.703,0.085,7.056,0.15c1.935,0.053,6.6-0.733,8.192,0.226    c1.413,0.852,2.595,5.719,3.352,7.365c1.427,3.103,3.027,6.109,4.498,9.188c7.587,15.885,16.373,31.278,23.281,47.446    c5.163,12.083,11.65,23.744,16.2,36.053C107.999,127.049,105.802,126.815,103.606,126.583z"/><path d="M88.958,154.283c-10.767-0.004-21.533,0.084-32.3,0.125c-4.06,0.015-8.12,0.015-12.181,0.02    c-8.262,0.01-17.242,1.022-24.996-2.224c-18.684-7.823-18.296-30.642-17.478-47.739C3.17,80.072,2.229,55.656,2.441,31.238    C2.543,19.64,7.411,9.281,18.087,3.772C28.451-1.577,41.498,1.14,52.649,1.286c13.758,0.18,27.509-0.334,41.262-0.588    c10.807-0.2,21.632-1.148,32.441-0.644c11.565,0.539,21.384,5.617,27.014,16.106c4.125,7.685,3.945,17.823,4.363,26.349    c0.314,6.399,0.37,12.788,0.324,19.191c-0.076,10.604-0.103,21.208-0.178,31.812c-0.049,6.904-0.17,13.803-0.408,20.703    c-0.212,6.148,0.189,12.965-1.498,18.926c-2.992,10.572-13.088,19.389-24.089,20.413c-7.614,0.709-15.316-0.009-22.941,0.596    C102.299,154.677,95.612,154.286,88.958,154.283z M88.958,148.493c11.634,0.157,23.233,0.67,34.868,0.281    c7.015-0.234,13.383-0.773,19.032-5.604c9.159-7.833,8.34-18.829,8.462-29.849c0.27-24.287,0.377-48.49,0.09-72.781    c-0.083-7.003,0.405-15.177-3.169-21.439c-2.275-3.986-5.74-7.31-9.777-9.483c-5.184-2.79-10.853-2.67-16.579-2.962    C92.697,5.169,63.489,5.853,34.273,6.642C25.877,6.868,18.342,8.6,12.765,15.485c-5.802,7.162-5.081,16.086-5.311,24.738    c-0.596,22.436-0.51,44.914-0.306,67.356c0.077,8.486-1.032,18.258,1.844,26.331c1.836,5.153,5.473,9.542,10.288,12.17    c5.713,3.118,12.032,2.679,18.314,2.667C54.715,148.712,71.839,148.261,88.958,148.493z"/></g></g><g id="Isolation_Mode"/><g id="Calque_1"/><g id="_x30_16_soundcloud"/><g id="Layer_1"/></svg>