<?xml version="1.0" ?><!DOCTYPE svg  PUBLIC '-//W3C//DTD SVG 1.1//EN'  'http://www.w3.org/Graphics/SVG/1.1/DTD/svg11.dtd'><svg enable-background="new 0 0 158.52 155.031" height="155.031px" id="icons" version="1.1" viewBox="0 0 158.52 155.031" width="158.52px" xml:space="preserve" xmlns="http://www.w3.org/2000/svg" xmlns:xlink="http://www.w3.org/1999/xlink"><g><path d="M91.125,11.057c-7.575,0.183-19.239-0.509-29.508-0.011c-17.306,0.839-31.109,0.751-44.868,11.737   C4.047,32.922,8.735,55.077,7.703,70.162c-0.896,13.085-2.094,33.8,3.208,53.141c5.781,21.089,25.463,21.925,50.023,23.412   c16.01,0.969,25.976,0.841,39.169,0.968c15.955,0.154,27.068-1.792,37.283-9.989c9.569-7.679,11.513-18.061,12.445-29.648   c1.064-13.217,0.34-23.53,1.379-36.749c0.938-11.953,2.934-25.372-1.51-36.699c-4.919-12.535-16.749-20.237-29.879-23.182   C110.364,9.297,100.72,10.824,91.125,11.057z" fill="#FF7D26"/><path d="M122.671,91.525c-3.395-11.66-9.847-17.801-16.381-27.722c-3.533-5.364-11.756-11.377-19.935-18.07   c-2.096-1.715-12.903-7.394-20.93-10.865c-4.666-2.017-10.904-2.769-15.961-3.319c-5.034-0.547-8.128,2.551-9.395,7.25   c-1.325,4.913,1.821,8.121,6.159,9.484c5.681,1.785,11.718,1.893,17.424,3.762c5.961,1.953,11.248,5.438,16.363,8.981   c10.706,7.417,18.613,17.099,22.283,29.473c5.297,17.858,2.926,20.956,8.246,22.651c4.159,1.325,13.322,0.569,14.344-2.846   C126.194,105.941,123.892,95.718,122.671,91.525z" fill="#FFFFFF"/><path d="M83.875,84.939c-4.067-5.267-7.922-10.557-13.442-14.25c-2.991-2.001-7.225-4.624-10.482-6.135   c-3.346-1.553-8.745-3.45-12.369-3.742c-3.857-0.311-5.553,1.474-6.841,3.794c-2.865,5.158-1.784,11.013,4.322,13.012   c7.309,2.393,13.831,5.014,19.94,9.809c5.907,4.636,10.524,10.214,12.192,17.532c1.863,8.171,4.043,12.65,11.4,10.627   C102.43,111.779,88.358,90.746,83.875,84.939z" fill="#FFFFFF"/><path d="M53.699,100.582c-2.17-1.367-5.708-1.531-7.677-0.265c-4.093,2.633-5.953,5.592-5.198,10.258   c0.942,5.827,8.783,7.094,13.187,4.809C61.342,111.581,57.056,102.697,53.699,100.582z" fill="#FFFFFF"/><path d="M155.856,114.375c-0.011-13.51-0.248-27.024-0.643-40.527c-0.186-3.939,0.618-9.878,0.414-13.816   c-0.444-8.597-1.662-15.194-1.842-23.8c-0.089-4.265,0.182-8.72-0.869-12.887c-0.928-3.598-2.63-6.976-4.876-9.93   c-4.582-6.025-11.419-10.402-19.019-11.185c-7.091-0.731-14.405-0.513-21.525-0.531c-8.867-0.022-17.717,0.571-26.586,0.477   c-8.884-0.095-17.747-0.701-26.635-0.651C46.236,1.571,37.2,1.871,29.17,2.254c-7.645,0.365-15.05,4.373-20.021,10.11   c-4.362,5.034-6.43,11.143-6.731,17.729c-0.387,8.481-0.163,16.952-0.165,25.437C2.251,64.943,3.172,74.362,3.1,83.776   c-0.114,14.8-0.214,29.551,0.498,44.339c0.344,7.14,4.011,13.891,9.257,18.644c5.146,4.662,11.585,7.114,18.505,7.172   c17.778,0.148,35.555,0.256,53.333,0.362c8.9,0.053,17.798,0.163,26.698,0.041c4.32-0.059,8.638-0.167,12.957-0.238   c4.269-0.07,8.449-0.083,12.605-1.203c7.89-2.158,14.14-8.088,16.969-15.73C156.565,130.023,155.862,121.846,155.856,114.375z    M150.055,127.006c-0.126,4.802-1.583,9.593-4.623,13.395c-2.164,2.705-5.043,4.813-8.28,6.05   c-3.884,1.484-8.901,2.499-12.993,2.57c-8.785,0.151-16.572-0.029-25.357,0.161c-8.918,0.193-17.808,0.716-26.733,0.627   c-9.061-0.09-18.118-1.434-27.173-1.732c-4.41-0.145-8.82,0.71-13.229,0.565c-2.645-0.087-5.213-0.454-7.692-1.433   c-6.539-2.585-11.951-8.548-13.76-15.362c-0.661-2.489-0.648-5.079-0.811-7.633c-0.288-4.514-0.758-9.016-1.048-13.53   c-0.557-8.666-0.469-17.351-0.543-26.032C7.726,74.436,7.605,59.713,7.504,54.05c-0.176-9.846,1.389-14.917,1.657-22.415   c0.214-5.983,1.538-11.45,5.579-16.091c2.537-2.913,5.782-5.145,9.401-6.492c3.104-1.155,7.244-1.141,10.497-1.187   c9.027-0.128,18.053,0.363,27.08,0.356c18.132-0.015,36.263-0.17,54.394-0.258c6.572-0.032,13.812,0.167,19.839,3.323   c6.634,3.474,12.028,10.438,12.513,18.066c0.273,4.283,0.345,7.589,0.516,11.877c0.161,4.034-0.276,15.012,0.228,26.936   c0.189,4.46,0.974,19.371,1.217,25.869C150.426,104.978,150.239,119.971,150.055,127.006z"/><path d="M93.885,108.655c-2.563-11.398-8.007-22.967-16.417-31.262c-9.102-8.976-22.437-13.038-34.801-14.8   c-1.691-0.241-7.554-1.394-7.56,1.376c-0.009,4.039,0.04,8.084-0.073,12.122c-0.064,2.29-0.981,5.691,2.12,5.944   c1.741,0.142,3.433,0.291,5.152,0.588c4.174,0.723,9.053,1.911,12.633,4.149c10.504,6.566,18.037,16.995,19.256,29.525   c0.217,2.234-0.486,5.881,2.575,5.89c3.377,0.01,6.753,0.02,10.13,0.03c1.738,0.005,6.642,0.909,7.84-0.943   c0.817-1.263,0.185-3.783,0.104-5.163C94.696,113.601,94.263,111.142,93.885,108.655C93.467,106.798,94.171,110.539,93.885,108.655   z M78.176,118.315c-0.48-11.807-5.632-23.137-14.914-30.625c-4.829-3.896-10.761-7.233-16.739-8.793   c-2.018-0.527-7.264-0.962-7.264-0.962c0.008-3.119,0.016-8.238,0.024-11.357c12.553,0.681,25.879,5.272,35.035,14.044   c9.906,9.728,15.152,24.059,16.537,37.606C86.629,118.295,82.403,118.304,78.176,118.315z"/><path d="M124.705,115.697c-1.201-14.75-5.285-29.504-13.341-42.058c-2.767-4.312-6.302-7.893-9.707-11.673   c-2.219-2.464-4.434-3.931-6.647-6.399c-2.749-3.066-5.495-5.665-9.034-7.631c-3.044-1.691-5.549-4.199-8.652-5.795   c-3.565-1.833-8.583-3.872-12.409-5.005c-6.152-1.821-11.062-2.645-17.475-3.459c-2.828-0.359-5.662-0.531-8.51-0.569   c-0.664-0.009-1.477-0.15-2.133-0.029c-2.151-0.024-1.985,2.509-2.112,3.964c-0.381,4.35-1.148,9.832-0.272,14.195   c0.7,3.487,5.018,2.307,7.793,2.743c1.938,0.304,3.859,0.703,5.785,1.077c4.181,0.81,8.239,1.914,12.253,3.358   c6.841,2.462,13.641,5.766,19.38,10.283c1.539,1.211,3.207,2.518,4.308,4.149c2.048,3.398,4.533,5.956,7.103,8.952   c7.684,8.957,10.669,21.553,11.183,33.119c0.096,2.169-0.618,5.377,0.849,7.127c1.285,1.534,3.619,1.134,5.394,1.135   c1.705,0.001,3.41,0.002,5.115,0.003c1.711,0.001,3.422-0.009,5.133-0.031c1.383-0.018,3.279,0.306,4.576-0.39   C125.646,121.497,124.785,117.873,124.705,115.697z M107.627,117.713c-0.333-10.533-3.89-21.673-8.285-31.143   c-4.034-7.97-10.13-14.544-16.966-20.206c-4.301-3.562-8.955-6.761-13.757-9.608c-5.185-3.073-10.693-4.112-16.244-6.164   c-3.029-1.12-6.21-1.773-9.433-1.984c-1.061-0.069-3.607-0.786-3.607-0.786c-0.053-0.796-0.083-3.594-0.12-4.391   c-0.128-2.76,0.617-6.281,0.617-6.281c5.715,0.524,10.403,1.395,15.983,2.741c2.843,0.686,5.786,1.7,8.558,2.663   c2.692,0.935,5.322,1.271,7.695,2.842c8.125,4.979,16.616,9.142,23.322,16.014c2.485,2.808,5.11,5.415,7.458,8.35   c3.961,4.95,5.973,10.403,8.584,16.077c2.565,5.574,4.258,11.24,6.175,17.072c1.606,4.886,1.452,9.564,1.595,14.625   C114.224,118.796,111.485,117.632,107.627,117.713z"/><path d="M60.896,106.003c-1.574-6.402-7.499-10.692-14-10.556c-6.884,0.268-12.63,6.63-12.625,13.342   c0.003,3.68,1.522,7.015,4.063,9.611c3.333,3.178,7.337,3.624,11.722,2.889c3.59-0.602,6.885-1.887,9.158-4.823   C61.734,113.212,61.781,109.773,60.896,106.003C60.52,104.472,61.075,106.763,60.896,106.003z M57.157,108.967   c-0.122,2.294-0.894,4.537-2.732,6.023c0.024-0.023,0.047-0.047,0.071-0.07c-1.59,1.322-4.804,2.198-6.307,2.208   c-2.632,0.017-5.029,0.279-6.864-1.658c-5.131-5.101-2.607-13.224,3.953-15.506C51.133,98.769,57.415,102.334,57.157,108.967z"/></g></svg>