<?xml version="1.0" ?><svg id="icons" style="enable-background:new 0 0 158.5 155;" version="1.1" viewBox="0 0 158.5 155" xml:space="preserve" xmlns="http://www.w3.org/2000/svg" xmlns:xlink="http://www.w3.org/1999/xlink"><style type="text/css">
	.st0{fill:#007EE5;}
	.st1{fill:#C5E5EB;}
	.st2{fill:#A9C2CC;}
</style><title/><path class="st0" d="M15.1,67.9c0.4,9.7-0.9,21.3-1.7,31c-0.9,10.6-3.8,16.4-0.3,25c6,14.7,20.1,19.9,35.1,19.4  c21.7-0.7,43.8-1.8,66.3-1.4c21.7,0.4,32.6-11.8,32.7-30c0.1-19.3-1.1-47-2-66.3c-0.4-9.9,0.6-19.5-5.2-28  c-4.8-7-13.3-13.4-21.8-13.6c-16.4-0.4-36.8-1.2-57.2,1.3c-26,3.1-33.1-4.3-46.7,13.8C5,31.6,14.5,53.2,15.1,67.9z"/><path class="st1" d="M139.2,78.7l-0.5-10.3c-0.1-2-1.7-3.6-3.7-3.8l-6.9-0.6c-1.6-0.1-2.9-1.2-3.4-2.7c-1.1-3.1-2.5-6.2-4.3-9  c-0.8-1.3-0.8-3.1,0.1-4.4l3.9-5.7c1.1-1.7,0.9-3.9-0.6-5.2l-7.7-6.9c-1.5-1.3-3.7-1.4-5.3-0.1l-5.3,4.5c-1.2,1-2.9,1.2-4.3,0.5  c-3-1.5-6.1-2.6-9.4-3.3c-1.5-0.4-2.7-1.6-3-3.2l-1.3-6.8c-0.4-2-2.1-3.4-4.1-3.3l-10.3,0.5c-2,0.1-3.6,1.7-3.8,3.7l-0.6,6.9  c-0.1,1.6-1.2,2.9-2.7,3.4c-3.1,1.1-6.2,2.5-9,4.3c-1.3,0.8-3.1,0.8-4.4-0.1l-5.7-3.9c-1.7-1.1-3.9-0.9-5.2,0.6l-6.9,7.7  c-1.3,1.5-1.4,3.7-0.1,5.3l4.5,5.3c1,1.2,1.2,2.9,0.5,4.3c-1.4,3-2.6,6.1-3.3,9.4c-0.4,1.5-1.6,2.7-3.2,3l-6.8,1.3  c-2,0.4-3.4,2.1-3.3,4.1l0.5,10.3c0.1,2,1.7,3.6,3.7,3.8l6.9,0.6c1.6,0.1,2.9,1.2,3.5,2.7c1.1,3.1,2.5,6.2,4.3,9  c0.8,1.3,0.8,3-0.1,4.3l-3.9,5.7c-1.1,1.7-0.9,3.9,0.6,5.2l7.7,6.9c1.5,1.3,3.7,1.4,5.3,0.1l5.3-4.5c1.2-1,2.9-1.2,4.3-0.5  c3,1.4,6.1,2.6,9.4,3.3c1.5,0.4,2.7,1.6,3,3.2l1.3,6.8c0.4,2,2.1,3.4,4.1,3.3l10.3-0.5c2-0.1,3.6-1.7,3.8-3.7l0.6-6.9  c0.1-1.6,1.2-2.9,2.7-3.4c3.1-1.1,6.2-2.5,9-4.3c1.3-0.8,3.1-0.8,4.4,0.1l5.7,3.9c1.7,1.1,3.9,0.9,5.2-0.6l6.9-7.7  c1.3-1.5,1.4-3.7,0.1-5.3l-4.5-5.3c-1-1.2-1.2-2.9-0.5-4.3c1.4-3,2.6-6.1,3.3-9.4c0.4-1.5,1.6-2.7,3.2-3l6.8-1.3  C137.9,82.5,139.3,80.7,139.2,78.7z M82.7,104.1c-15.2,0.8-28.2-10.9-28.9-26.1C53,62.7,64.7,49.7,79.9,49  c15.2-0.8,28.1,10.9,28.9,26.1C109.6,90.3,97.9,103.3,82.7,104.1C82.7,104.1,82.7,104.1,82.7,104.1z"/><path class="st2" d="M79.2,44c-18.5,0-33.5,15-33.5,33.5c0,0,0,0,0,0c0,18.5,15,34.5,33.5,34.5s34.5-15,34.5-33.5S97.7,44,79.2,44z   M82.2,94c-10.8,0-19.5-8.7-19.5-19.5S71.5,55,82.2,55s19.5,8.7,19.5,19.5l0,0C101.7,85.3,93,94,82.2,94L82.2,94z"/><path d="M157.5,33c-0.4-5.6-0.5-11.5-3-16.7c-2.1-4.4-5.5-8.1-9.7-10.6c-9-5.4-21-4.6-31.1-4.9c-7.6-0.3-15.2-0.4-22.7,0  c-9.1,0.5-18.2,1.5-27.3,0.6c-6.4-0.6-12.9-0.9-19.3-0.8C33.3,0.8,21.9,0.2,12.8,7.5C9,10.6,6,14.6,4.1,19.1c-2.2,5.4-2.2,11-2,16.7  c0.2,9.2,1.1,18.3,1,27.5C2.9,75.7,3,88.1,3.3,100.5c0.2,6,0.2,12.1,0.2,18.2c0,5.7-0.2,11.5,1.9,16.9c3.6,9.6,13,16,23.1,16.8  c6.2,0.5,12.6,0.3,18.8,0.4c13.9,0.1,27.8,1,41.7,0.9c12.3-0.1,24.7,0.6,37,0.2c9.4-0.4,17.4-3.8,23.6-11.1  c6.5-7.7,6.6-16.6,6.6-26.1c0-8.7,0.1-17.3,0.3-25.9c0.3-13.4,0.8-26.9,1-40.3C157.6,44.5,157.8,38.7,157.5,33z M152.2,50.2  c-0.3,20.5-1.6,41.1-1.6,61.6c0,8.8,1.2,18.9-4,26.5c-4.2,6.4-11.4,10.1-19,9.8c-4.3-0.1-8.6-0.2-12.8-0.3  c-9.8-0.1-19.6,1.4-29.5,1.2c-10.2-0.2-20.3-2-30.5-2c-9.6,0-19.8,2.4-29.4-0.1c-8.1-2.1-14.4-8.7-15.9-17  c-0.9-4.8-0.5-9.9-0.5-14.8c0-5-0.1-10-0.2-15C8.2,79.8,9.2,59.6,8.2,39.4c-0.4-8-1.2-15.9,3.6-22.9c2.4-3.5,5.8-6.4,9.6-8.2  c4.4-2.1,9.1-2.1,13.9-2.3c6-0.2,12-0.2,18-0.2c7,0.1,14,1.2,21,1c8.9-0.2,17.8-1.2,26.8-1.2c4.8,0,9.6,0.2,14.4,0.4  c8.8,0.4,19.7-0.4,27.3,4.8c8.3,5.7,9.1,15.1,9.4,24.4C152.4,40.2,152.3,45.2,152.2,50.2L152.2,50.2z"/><path d="M138,74c-0.1-3,0.1-6.3-3.5-7.2c-2.9-0.7-6.1-0.2-9-1c-1.5-0.5-0.6,0.1-1.2-0.9c-0.3-0.8-0.6-1.7-0.7-2.5  c-0.4-1.4-0.9-2.8-1.4-4.2c-0.3-0.9-1.8-3.1-1.6-4s2.8-3.5,3.5-4.4c2.6-3.5,4.6-6.7,0.7-10.2c-2.1-1.9-4.3-3.7-6.4-5.5  c-1.2-1-2.6-2.7-4.1-3.2c-2.3-0.8-4,0.9-5.7,2.2c-1.3,1-2.7,2-4.1,3c-0.5,0.4-1,0.8-1.6,1.1c-0.7,0-2.3-1.4-3-1.7  c-1.3-0.7-2.6-1.3-4-1.9c-0.8-0.3-4.2-1-4.6-1.6c-0.6-0.9-0.4-3.9-0.5-5c-0.2-1.4-0.2-2.9-0.5-4.3c-0.8-4.5-4.4-4.3-8.1-4.2  c-3.1,0.1-6.3,0.2-9.4,0.4c-3.3,0.2-4.2,2.3-4.6,5.2c-0.2,1.5-0.4,3-0.7,4.5c0,0.8-0.1,1.6-0.3,2.3c-0.5,1.3,0.5,0.4-1.1,1.2  c-2.3,1.3-5.6,1.8-8.1,2.9c-0.7,0.4-1.4,0.8-2.1,1.1c-0.9,0.1-1.3-0.5-2.2-1.1l-4.8-3.7c-4.4-3.4-7.1-0.4-10,3.1  c-1.8,2.1-3.7,4.2-5.5,6.3c-1.3,1.5-1.9,2.9-1,4.8c0.9,2,2.6,3.7,3.7,5.5c0.4,0.6,0.8,1.2,1.2,1.8c0.7,1.6,0.4,0.5,0,1.9  s-1.6,3.1-2.3,4.6s-1,3.4-1.7,4.7c-0.7,1.4,0,0.6-1.3,1.1c-1,0.3-2.1,0.4-3.2,0.5C27.2,66,24.8,66,23,66.8c-3.8,1.8-2.4,7.8-2.2,11  c0.1,2.3-0.3,5.5,0.5,7.7s2.8,2.3,4.7,2.5c1.7,0.2,3.5,0.4,5.2,0.6c0.7,0,1.4,0.1,2.1,0.2c0.9-0.2,1.4,0.2,1.3,1.1  c0.1,0.5,0.3,1,0.4,1.5c1,3.1,2.7,5.9,3.9,8.9c0.6,1.5,0,1.6-1.1,3c-1.6,2-3.7,4-4.9,6.3c-1.6,3.1,1.5,5.3,3.4,7.3l5.3,5.5  c2.1,2.2,4.1,3,6.8,1.1c0.9-0.6,1.8-1.3,2.7-2c1.1-0.8,2.9-2.8,4.2-3.1s4.4,2,6,2.7s3.4,1,4.9,1.8c1.6,0.9,0.6-0.2,1.1,1.1  c2,5.3-1.3,12.4,7,12.5l7.7,0.1c2.9,0,6.8,0.7,8.3-2.6c0.9-2.1,0.8-5.2,1-7.5c0.1-0.7-0.1-2.7,0.3-3.3s3.1-1,3.9-1.4  c1.8-0.7,3.6-1.5,5.4-2.4c1.8-0.9,1.7-1.3,3.2-0.4s2.8,2.2,4.2,3.2c2.1,1.6,4.4,3.8,7.2,2c2-1.3,3.6-3.6,5.2-5.3s3.2-3.2,4.7-4.9  c2.6-3.2-0.4-5.9-2.3-8.4c-1-1.3-3.1-3.4-2.9-4.7c0.2-1.1,1.6-2.6,2.2-3.6c0.9-1.7,1.7-3.5,2.3-5.3c0.1-0.7,0.3-1.4,0.6-2.1  c0.3-0.3,2.1-0.3,2.6-0.3l3-0.4c1.2-0.2,2.4-0.3,3.6-0.5c4.2-1,4-4.4,3.9-7.9C138.1,78.5,138.1,76.3,138,74z M113.7,35.2L113.7,35.2  z M25,71.3C24.8,71.4,24.9,71.3,25,71.3z M26.1,84.1C26.1,83.7,26.1,84.4,26.1,84.1z M133.6,73c-0.1,3.6-0.1,7.2-0.2,10.8  c-3.4,0.4-7.3,0.5-10.6,1.4c-2.1,0.6-2.2,2.5-2.7,4.4c-0.7,2.2-1.6,4.4-2.8,6.4c-0.9,1.5-2.8,3.4-2.8,5.2c0,2,2.3,4.2,3.4,5.7  c0.8,1.1,3.7,3.7,3.5,4.8c-0.2,0.7-1.5,1.7-1.9,2.2c-0.7,0.8-1.3,1.6-2,2.3s-2.8,4-4,4.3c-0.8,0.2-1.6-0.8-2.4-1.5  c-2-1.6-4.1-4.1-6.4-5.2c-1.8-1-2.9,0.1-4.6,0.9c-2.2,1.1-4.4,2.1-6.7,2.9c-3.1,1.1-5.8,1-6.3,4.5c-0.4,2.6-0.6,5.2-0.9,7.8  c0,0.3,0,1.2-0.2,1.4c-0.4,0.5-2.7,0.1-3.5,0.1c-2.7,0-5.5,0.1-8.2,0.2c-1.9,0-1.6-0.5-1.9-2.3c-0.4-2.5-0.7-5.1-1.2-7.6  c0-0.7-0.2-1.4-0.7-1.9c-1.3-1.4-5.4-1.7-7.3-2.4c-2.1-0.8-4.1-1.8-6.1-2.9c-1.6-0.8-2.1-0.7-3.5,0.3c-1,0.7-2,1.5-2.9,2.3  s-3.3,3.3-4.7,3.4c-1.1,0.1-0.9,0-1.9-1.1c-2-2.2-4.1-4.4-6.1-6.7c-1.1-1.3-1.5-1.2-0.4-2.5c1.9-2.2,4-4.4,5.7-6.7  c2.4-3.3-1.2-7.1-2.4-10.3s-1.2-8.4-5.2-9.3c-2.6-0.5-5.2-0.8-7.8-1c-1.9-0.2-1.6,0.1-2-1.2c-0.2-1.3-0.2-2.6-0.2-3.8  c-0.1-1.7-0.6-4-0.3-5.6c0.1-0.3-0.2-0.9,0-1.1c0.3-0.4,2.6-0.4,3.2-0.5c2.3-0.3,4.9-0.3,7.2-1c2-0.6,2-2,2.5-3.8  c0.8-2.6,1.8-5.1,3-7.4c1-2,3.1-3.9,1.9-6.2c-1-2.1-2.9-4.1-4.3-6c-0.4-0.5-1.9-1.9-1.9-2.5c0-0.3,0.4-0.5,0.6-0.8  c1.2-2.4,3.8-4.8,5.5-6.9c0.6-0.7,1.6-2.6,2.7-2.5c1.4,0.1,3.8,2.8,4.9,3.6c1.5,1.1,3.7,3.7,5.6,3.2c0.9-0.4,1.8-0.9,2.6-1.5  c1.4-0.7,2.8-1.3,4.2-1.9c2.7-1,7.1-0.8,7.7-4c0.5-2.5,0.8-5,1.2-7.5C72,25,72,23.3,72.5,23c0.9-0.6,4.8,0.2,5.7,0.3  c1.4,0.1,2.8,0.1,4.1,0.2c0.9-0.1,1.8-0.1,2.6,0c0.9,0.4,0.2-0.2,0.7,0.9c1.6,3.8-0.9,10.5,4,12c2.1,0.6,4.2,1.3,6.2,2.2  c2,0.9,3.9,2.7,6,3.4c1.8,0.7,3-0.5,4.5-1.5c1-0.7,1.9-1.3,2.9-2c0.6-0.4,3-2.7,3.7-2.6c1.1,0.1,3.5,3,4.4,3.7l2.6,2.2  c0.6,0.5,2,2.1,2.7,2.1c-1,0.5-2.1,3.1-2.7,4c-1,1.4-3.1,3.3-3.7,5c-0.8,2.3,2.3,6.3,3.2,8.7s0.9,7.1,3.6,7.8  c1.9,0.4,3.8,0.7,5.8,0.9c1.3,0,2.7,0.3,3.9,0.6C133.9,71.3,133.6,71.5,133.6,73z"/><path d="M87.7,57.1c-7.9-4.4-18.2-1.6-24.2,4.7c-6.4,6.8-8.4,17.4-4.1,25.9c4,7.8,14.2,12.4,22.7,11.6c9.6-0.9,16.3-7.9,18.2-17.1  C102.4,72.1,96.7,61.8,87.7,57.1z M96,84.4c-2.8,6.8-11.6,11.1-18.6,10.4c-7.7-0.7-14.4-7.8-15.7-15.3c-1.2-6.9,2.5-13.1,8.2-16.8  c6.8-4.5,14.4-3.6,20.6,1.3C95.9,68.4,98.8,77.8,96,84.4z"/><path d="M107.5,62.4c-4.5-5.1-6.8-11-13.6-13.3c-5.1-1.8-10-3.7-15.6-3.6C65.2,45.9,53.6,54.1,49,66.4c-4.6,12.7-0.5,26.9,10.1,35.3  c10.7,8.3,27.4,10,38.8,2c6.3-4.5,10.4-11.6,12.2-19c1-3.9,1.3-8,0.9-12C110.6,69.5,109.8,64.8,107.5,62.4z M104.2,87.9  c-4.5,11.3-17.3,19.2-29.5,17.2c-11.2-1.8-18.9-10.8-21.9-21.4c-2.7-9.1-0.1-18.8,6.6-25.5c3.8-3.8,8.7-6.4,14.1-7.4  c6.4-1.2,11.9,0.1,17.7,3c6.2,3.1,10.7,6.7,13.4,13.2C107.3,73.9,106.8,81.1,104.2,87.9z"/></svg>