<?xml version="1.0" ?><svg enable-background="new 0 0 158.52 155.031" version="1.1" viewBox="0 0 158.52 155.031" xml:space="preserve" xmlns="http://www.w3.org/2000/svg" xmlns:xlink="http://www.w3.org/1999/xlink"><g id="icons"><g><path d="M7.771,82.989c1.319,16.698-2.41,37.858,9.714,49.982c10.253,10.253,20.203,11.253,47.526,10.711    c12.915-0.256,53.663,3.54,69.385-4.883c12.349-6.616,16.948-17.652,16.502-39.781c-0.319-15.829-4.252-46.552-4.911-59.29    c-0.636-12.295,0.525-26.112-16.94-32.837c-12.175-4.688-69-6.284-95.895-4.141C13.924,4.281,7.743,18.558,7.962,31.575    C8.193,45.366,7.193,75.685,7.771,82.989z" fill="#0D71BA"/><rect fill="#00AEEF" height="34.846" transform="matrix(0.4727 -0.8812 0.8812 0.4727 -40.9606 119.3704)" width="11.201" x="73.659" y="76.487"/><rect fill="#00AEEF" height="11.201" transform="matrix(0.8812 -0.4727 0.4727 0.8812 -19.477 44.7208)" width="34.846" x="61.837" y="55.521"/><path d="M70.472,75.516c0,10.544-8.365,19.091-18.909,19.091s-19.091-8.547-19.091-19.091    s8.547-19.091,19.091-19.091S70.472,64.972,70.472,75.516z" fill="#C4E9FA"/><path d="M127.894,95.261c-7.098-7.098-19.607-7.098-26.705,0c-7.098,7.098-6.364,19.342,0.734,26.44    c7.098,7.098,18.873,6.364,25.971-0.735S134.992,102.36,127.894,95.261z" fill="#C4E9FA"/><path d="M133.373,33.369c-4.661-9.25-16.937-12.969-26.187-8.309s-13.444,17.377-8.784,26.626    c4.661,9.25,18.894,12.487,28.144,7.826C135.796,54.853,138.034,42.619,133.373,33.369z" fill="#C4E9FA"/><path d="M128.492,29.198c-12.827-13.546-34.005-5.563-37.827,11.663c-0.408,1.837,0.227,6.003-0.493,7.348    c-0.657,1.228-4.241,2.209-5.538,2.838c-2.028,0.984-4.11,1.836-6.142,2.809c-3.955,1.892-7.904,3.943-11.686,6.162    c-0.769,0.451-2.141,1.761-2.995,1.929c-1.505,0.296-0.001,0.106-1.376-0.377c-1.799-0.632-3.828-3.067-5.698-3.98    C41.017,49.914,22.5,62.376,24.227,79.901c1.633,16.57,20.897,26.049,35.067,17.239c0.993-0.617,2.21-2.305,3.145-2.733    c1.216-0.556,4.123,1.439,5.588,2.189c4.042,2.07,8.461,3.82,12.192,6.423c2.529,1.764,4.762,3.409,7.668,4.579    c2.14,0.861,1.402,0.112,1.874,1.95c0.579,2.251,0.1,4.748,0.851,7.09c5.348,16.671,28.312,22.145,39.196,7.707    c10.459-13.874,1.194-35.416-16.643-35.818c-3.768-0.085-7.527,0.793-10.873,2.531c-1.237,0.642-4.184,3.683-5.341,3.873    c-1.387,0.229-5.648-2.819-6.863-3.457c-3.809-2.001-7.828-3.747-11.483-6.016c-1.629-1.011-3.204-2.022-4.903-2.925    c-0.647-0.344-4.206-1.676-4.494-2.221c-0.074-0.14-0.067-5.156,0.023-5.334c0.478-0.947,6.718-3.031,7.788-3.581    c4.795-2.466,9.621-4.93,14.347-7.523c1.477-0.81,3.883-3.057,5.151-2.701c1.508,0.423,3.519,2.975,5.032,3.821    c4.181,2.336,9.154,3.347,13.913,2.783C133.193,65.679,140.53,41.724,128.492,29.198z M59.597,90.672    c-7.414,7.449-20.082,6.667-26.81-1.304c-6.648-7.876-5.423-20.456,3.507-25.998c8.6-5.336,20.039-4.008,25.729,4.911    C66.298,74.983,65.484,85.03,59.597,90.672z M105.544,94.006c9.825-3.427,22.106,2.021,24.969,12.255    c1.977,7.069-1.775,13.745-7.302,18.118c-8.478,6.707-20.941,4.522-26.149-5.179C92.181,110.11,95.199,97.471,105.544,94.006z     M74.265,88.065c6.419,3.743,12.919,7.145,19.559,10.513c-1.179,1.676-2.176,3.491-2.878,5.418    c-8.438-4.553-16.407-10.723-25.481-13.995c1.126-1.689,2.039-3.464,2.701-5.387C70.227,85.712,72.229,86.92,74.265,88.065z     M87.753,60.152c-6.458,3.59-12.847,7.385-19.532,10.539c-0.259-0.771-2.265-3.938-2.091-4.518    c0.287-0.958,4.596-2.611,5.529-3.119c1.496-0.816,2.995-1.627,4.493-2.441c5.051-2.744,9.73-5.977,15.07-8.189    c0.248,0.783,2.173,3.95,2.047,4.593C93.114,57.811,88.536,59.726,87.753,60.152z M124.984,57.695    c-6.688,6.978-18.317,6.835-25.149,0.16c-7.237-7.07-7.205-19.067,0.285-25.941c7.06-6.479,18.268-6.222,24.949,0.707    C131.672,39.468,131.611,50.879,124.984,57.695z"/><path d="M157.63,54.974c-0.64-18.734,1.088-45.105-20.827-52.649c-6.481-2.231-14.311-1.816-21.09-1.677    c-6.967,0.143-13.927,0.598-20.891,0.863C78.47,2.133,61.868,1.986,45.512,1.094C33.657,0.447,21.902-1.082,12.11,7.101    C2.67,14.989,1.801,25.28,1.794,36.779C1.788,47.641,1.847,58.501,1.912,69.363c0.066,11.018,0.288,21.905-0.336,32.915    c-0.565,9.963-1.629,21.93,0.949,31.765c3.085,11.767,13.657,19.293,25.55,20.013c13.007,0.787,26.197,0.322,39.221,0.235    c20.21-0.136,40.379-0.973,60.57-0.909c11.024,0.035,21.38-4.169,26.119-14.82c3.383-7.603,2.381-16.896,2.691-25.058    c0.655-17.266,0.924-34.588,0.97-51.864C157.652,59.416,157.642,57.195,157.63,54.974z M151.322,84.944    c-0.454,11.171-0.697,22.318-0.898,33.494c-0.089,4.94,0.481,10.279-0.736,15.105c-1.595,6.326-6.284,11.328-12.43,13.468    c-6.316,2.199-14.19,1.384-20.84,1.481c-4.713,0.069-9.425,0.059-14.137-0.02c-13.68-0.23-27.332,0.046-41.013,0.115    c-7.307,0.037-14.616,0.007-21.923-0.014c-5.6-0.016-11.651,0.519-17.079-1.062C10.3,144.024,6.636,133.56,6.45,122.243    c-0.196-11.866,0.062-23.796,0.134-35.666C6.652,75.208,6.693,63.838,6.82,52.47c0.078-6.982,0.142-13.965,0.287-20.946    C7.389,17.879,15.99,7.005,30.226,6.521c15.16-0.516,30.405-0.037,45.581-0.083c16.298-0.049,32.479,0.263,48.755,1.096    c4.353,0.223,8.668,0.238,12.709,2.126c5.706,2.667,10.2,7.861,12.1,13.852c1.406,4.435,1.217,9.568,1.331,14.189    c0.195,7.853,0.162,15.711,0.372,23.564C151.285,69.171,151.587,77.033,151.322,84.944z"/></g></g><g id="Isolation_Mode"/><g id="Calque_1"/><g id="_x30_16_soundcloud"/><g id="Layer_1"/></svg>