<?xml version="1.0" ?><!DOCTYPE svg  PUBLIC '-//W3C//DTD SVG 1.1//EN'  'http://www.w3.org/Graphics/SVG/1.1/DTD/svg11.dtd'><svg enable-background="new 0 0 158.52 155.031" height="155.031px" version="1.1" viewBox="0 0 158.52 155.031" width="158.52px" xml:space="preserve" xmlns="http://www.w3.org/2000/svg" xmlns:xlink="http://www.w3.org/1999/xlink"><g id="icons"><g><path d="M140.797,19.366C125.063,3.304,105.981,6.269,76.393,6.269c-20.162,0-40.844-3.304-55.913,11.697    C7.482,30.903,8.336,50.725,7.277,68.299c-1.206,20.012-5.112,49.924,9.632,64.668c12.578,12.578,31.235,13.525,56.176,13.525    c24.973,0,40.158,3.126,55.51-4.34c19.032-9.254,18.329-30.579,18.329-51.046C146.924,50.115,151.933,30.734,140.797,19.366z" fill="#4D4D4E"/><path clip-rule="evenodd" d="M106.532,24.07c-16.005,0-31.727,12.228-28.98,30.98    c0,0-18.008,28.388-18.008,28.388c-4.727,0-10.582,5.433-14.177,7.957L5.473,78.543l0.259,19.471l30.565,13.46    c2.87,4.97,10.904,13.166,21.772,13.166c12.22,0,18.846-5.626,22.126-21.126c0,0,24.628-23.603,28.636-23.156    c9.083,1.013,23.682-9.303,23.682-25.308S122.537,24.07,106.532,24.07z" fill="#FEFEFE" fill-rule="evenodd"/><path d="M155.78,32.07c-0.146-7.84-1.796-14.598-7.12-20.607c-5.218-5.89-12.042-9.136-19.844-9.631    c-8.503-0.539-17.034-0.552-25.551-0.692C85.877,0.853,68.397,0.152,51.012,0.703C36.408,1.166,19.122,0.413,8.702,12.507    c-5.469,6.349-6.498,13.776-6.653,21.877c-0.175,9.176,0.669,16.324,0.826,25.494c0.195,14.64,0.3,29.279,0.374,43.92    c0.065,13.013-3.33,27.607,5.856,38.455c4.444,5.248,10.827,8.804,17.645,9.751c5.6,0.777,11.457,0.296,17.085,0.348    c16.875,0.156,33.696,1.308,50.551,2.007c8.687,0.36,17.396,0.107,26.077-0.291c7.46-0.415,14.859-0.611,21.526-4.448    c6.673-3.842,11.282-10.499,12.817-18.017c1.637-8.017,1.061-16.893,1.225-25.047c0.26-12.921,0.292-25.841,0.329-38.764    c0.014-4.832,0.182-9.664,0.121-14.496c-0.01-3.635-0.512-7.221-0.594-10.845C155.793,38.326,155.857,36.197,155.78,32.07z     M8.091,93.217c-0.151-6.005-0.262-12.01-0.365-18.016c12.085,5.495,24.498,10.206,36.712,15.397    c1.833,0.743,4.231-1.479,5.761-2.173c2.436-1.104,5.041-1.53,7.688-1.638c0.518-0.021,1.069,0.104,1.579,0.041    c1.897,0.047,2.851-2.181,3.766-3.5c1.947-2.807,3.452-5.846,5.438-8.62c2.755-3.847,5.6-7.623,8.297-11.511    c0.826-1.19,1.888-2.389,2.551-3.679c0.85-1.138,0.548-3.085,0.707-4.403c0.277-2.29,0.838-4.472,1.641-6.631    c3.867-10.387,13.375-18.636,24.889-17.652c6.975,0.596,13.34,2.794,18.521,7.655c4.783,4.488,7.994,11.053,8.313,17.637    c0.593,12.254-6.399,23.082-17.841,27.412c-1.881,0.664-3.863,1.08-5.851,1.246c-1.495,0.125-3.917-0.404-5.21,0.463    c-1.443,0.611-2.847,1.895-4.148,2.789c-2.978,2.048-5.953,4.102-8.91,6.178c-4.122,2.972-8.209,5.997-12.405,8.864    c-1.402,0.958-1.35,1.894-1.421,3.404c-0.128,2.713-0.472,5.548-1.577,8.062c-2.437,5.329-6.611,9.337-12.404,10.822    c-3.887,0.996-7.837,1.164-11.698-0.086c-3.765-1.219-7.156-3.481-9.575-6.634c-1.364-1.777-2.496-3.762-3.175-5.906    c-0.483-1.525-0.481-3.798-2.21-4.51c-3.868-1.592-7.736-3.184-11.605-4.777c-4.879-2.008-9.757-4.016-14.636-6.024    c-0.487-0.2-2.372-0.884-2.749-0.863C8.147,95.448,8.119,94.333,8.091,93.217z M151.026,42.73c0.075,6.644-0.17,11.27-0.305,17.91    c-0.287,11.762-0.091,23.592-0.259,35.407c-0.118,8.295-0.29,16.587-0.54,24.878c-0.225,7.452-0.527,14.469-5.803,20.304    c-4.734,5.236-11.213,6.949-17.997,7.445c-8.667,0.633-17.396,0.547-26.082,0.577c-17.4,0.06-34.636-0.95-52.008-1.749    c-6.623-0.304-13.528,0.153-20.092-0.797c-6.267-0.907-12.014-4.592-15.563-9.818c-2.813-4.142-3.421-8.518-3.577-13.368    c-0.208-7.219-0.352-14.436-0.513-21.656c7.831,3.374,15.713,6.6,23.653,9.708c0.697,0.273,1.394,0.546,2.091,0.819    c0.341,0.133,1.171,3.094,1.569,3.622c1.481,1.958,2.692,4.13,4.229,6.047c3.602,4.492,8.649,7.729,14.421,8.592    c6.848,1.024,14.851-0.543,20.181-5.27c4.73-4.194,6.591-11.238,8.087-17.183c0.486-1.93,1.807-2.475,3.414-3.63    c2.347-1.688,4.728-3.327,7.071-5.02c4.665-3.37,8.855-7.383,13.449-10.857c8.663-0.168,16.034-1.65,22.378-7.925    c8.157-8.068,11.058-20.174,7.812-31.073c-2.192-7.36-7.209-13.733-13.722-17.771c-2.946-1.827-6.366-2.437-9.319-4.117    c-2.078-1.182-4.64-1.289-6.993-1.352C93.297,26.099,81.102,35.768,76.761,48c-0.693,1.952-1.129,3.99-1.395,6.042    c-0.1,0.769,0.081,2.641-0.345,3.257c-0.563,0.814-1.126,1.629-1.689,2.443c-2.338,3.382-4.677,6.764-7.015,10.146    c-2.256,3.262-4.511,6.525-6.767,9.787c-0.447,0.647-0.894,1.293-1.341,1.94c-0.232,0.335-5.103,0.476-5.813,0.652    c-2.441,0.603-4.554,1.704-6.69,2.986c0,0-11.464-3.762-14.495-5.077c-5.992-2.599-11.974-5.22-17.957-7.838    c-1.506-0.659-3.011-1.318-4.517-1.976c-2.138-0.936-1.079-3.944-1.077-6.033c0.008-9.201,0.582-16.356,0.99-25.544    c0.42-9.465-0.006-18.281,7.823-25.246c5.394-4.799,11.627-5.691,18.516-6.013C43.51,7.126,52.037,7.37,60.562,7.214    c8.852-0.163,17.677-0.5,26.532-0.343c8.458,0.151,16.883,0.694,25.349,0.654c3.82-0.018,7.638-0.015,11.457,0.047    c3.375,0.055,6.971-0.075,10.238,0.875c6.553,1.906,12.244,7.208,14.907,13.456C151.708,28.153,150.951,36.068,151.026,42.73z"/><path d="M156.48,54.297C156.516,57.199,156.476,52.847,156.48,54.297L156.48,54.297z"/><path d="M150.72,61.64C150.802,57.643,150.623,65.637,150.72,61.64L150.72,61.64z"/><path d="M89.486,61.405C89.382,60.506,89.55,62.256,89.486,61.405L89.486,61.405z"/><path d="M110.635,74.99c8.444-2.238,14.177-9.934,12.911-18.617c-1.376-9.442-11.224-16.317-20.533-14.418    c-8.65,1.764-14.358,10.74-13.527,19.45C90.431,71.302,101.731,77.35,110.635,74.99z M97.971,50.054    c2.284-2.546,5.513-3.938,8.774-3.233c2.495,0.539,5.581,1.685,7.969,3.802c2.441,2.164,3.754,5.21,3.774,8.46    c0.036,5.812-6.16,11.59-12.087,11.628c-6.542,0.042-11.963-5.34-11.751-11.958C94.739,55.974,96.085,52.157,97.971,50.054z"/><path d="M47.882,115.139C47.458,114.428,48.237,115.898,47.882,115.139L47.882,115.139z"/><path d="M61.869,120.75c5.249-1.302,9.419-5.793,10.23-11.152c0.527-3.483-0.208-7.103-2.276-10.004    c-3.156-4.429-10.361-6.896-15.387-3.925c-1.544,0.913-1.253,2.617,0.675,2.029c2.425-0.74,5.225-0.308,7.406,0.903    c4.618,2.565,6.146,9.228,3.482,13.744c-2.715,4.603-9.118,5.991-13.492,2.924c-1.164-0.816-2.586-2.74-3.654-3.45    c-0.796-0.53-1.733-0.097-1.78,0.874c-0.03,0.629,0.543,1.943,0.809,2.446C50.441,119.969,56.916,121.979,61.869,120.75z"/></g></g><g id="Isolation_Mode"/><g id="Calque_1"/><g id="_x30_16_soundcloud"/><g id="Layer_1"/></svg>