<?xml version="1.0" ?><!DOCTYPE svg  PUBLIC '-//W3C//DTD SVG 1.1//EN'  'http://www.w3.org/Graphics/SVG/1.1/DTD/svg11.dtd'><svg enable-background="new 0 0 158.52 155.031" height="155.031px" id="icons" version="1.1" viewBox="0 0 158.52 155.031" width="158.52px" xml:space="preserve" xmlns="http://www.w3.org/2000/svg" xmlns:xlink="http://www.w3.org/1999/xlink"><g><path d="M156.542,63.521c-1.351-17.102,1.127-34.567-9.954-48.19c-10.229-12.575-34.461-8.925-49.675-9.946   c-13.2-0.888-56.752-0.71-68.069,6.973c-13.357,9.069-16.355,16.13-17.902,38.747c-0.907,13.27-0.642,33.679,0.033,46.725   c0.652,12.593,0.282,33.862,20.347,42.632c25,10.927,73.831,6.036,96.216,4.252c19.693-1.569,25.83-15.536,28.8-28.535   C158.477,106.819,157.133,71.001,156.542,63.521z" fill="#478AB8"/><path clip-rule="evenodd" d="M123.896,95.733c-2.1-2.548-4.497-4.765-6.882-7.041   c-1.112-1.061-3.479-4.961-3.275-6.797c0.439-3.952,4.343-11.098,5.207-12.984c6.161-13.449,8.255-18.271-1.362-18.442   c-2.415-0.043-6.818-1.191-8.931,0.33c-2.676,1.926-3.737,4.902-5.199,7.77c-2.019,3.959-4.063,7.892-6.398,11.677   c-1.051,1.704-2.217,3.319-3.502,4.852c-0.594,0.683-2.002,1.613-5.129,1.035c-0.044,0.023,1.613-15.751-1.114-22.249   c-3.01-7.172-12.186-5.368-20.321-6.171c-6.953-0.686-7.397,4.401-1.536,7.536c3.682,1.969,2.117,10.058,1.802,13.987   c-0.098,1.217-0.852,6.584-2.459,8.872c-5.307-0.028-8.961-6.877-12.24-12.918C50.065,60.6,47.579,54.912,42.528,52.78   c-4.253-1.795-13.267-2.939-16.146,0.805c-2.726,3.544-0.738,9.717,1.146,13.427c5.194,10.228,10.862,21.902,18.91,29.927   c6.665,6.646,23.802,16.577,33.402,11.818c3.154-1.564,5.856-13.815,9.034-14.086c5.145-0.439,8.209,2.864,10.125,5.119   c6.033,7.103,14.597,7.417,24.843,4.381C129.598,102.464,126.577,98.985,123.896,95.733z" fill="#FFFFFF" fill-rule="evenodd"/><path d="M128.521,93.815c-3.169-3.242-6.538-6.28-9.847-9.376c-1.74-1.752-2.575-3.241-1.019-5.444   c4.612-6.527,10.868-12.19,14.385-19.444c1.193-2.461,2.692-6.131,1.545-8.866c-1.516-3.616-7.213-2.732-10.305-2.868   c-4.086-0.18-8.253-0.856-12.341-0.705c-1.49,0.055-3.031,0.341-4.262,1.234c-1.375,0.999-1.962,2.563-2.6,4.074   c-1.562,3.698-3.042,7.433-4.677,11.1c-1.663,3.73-4.329,7.003-6.741,9.967c-0.302,0.325-1.425,1.079-1.295,1.272   c-0.19-0.033-0.378-0.074-0.565-0.121c0.491,0.128-0.302-0.651-0.376-0.752c-0.367-0.503-0.478-1.277-0.561-1.878   c-0.206-1.496-0.055-3.006-0.071-4.509c-0.042-3.866-0.09-7.732-0.119-11.598c-0.019-2.598,0.324-5.771-1.353-7.972   c-1.752-2.298-4.91-2.352-7.535-2.354c-3.458-0.003-6.893-0.451-10.347-0.569c-3.231-0.111-6.487-0.203-9.019,2.113   c-1.387,1.269-3.057,3.856-1.472,5.621c0.813,0.906,2.056,0.904,3.118,1.321c1.486,0.583,1.805,1.884,2.073,3.318   c-0.055-0.3-0.052-0.163,0.01,0.412c0.028,0.358,0.06,0.714,0.098,1.071c0.442,4.218,1.036,8.673,0.524,12.911   c-0.173,1.433-0.324,3.821-2.152,2.634c-1.188-0.772-1.758-2.261-2.486-3.415c-2.25-3.567-4.603-7.047-6.571-10.786   c-1.69-3.211-2.751-7.006-4.873-9.959c-2.418-3.366-6.544-2.67-10.198-2.642c-2.262,0.017-4.521,0.028-6.783-0.019   c-1.588-0.033-3.22-0.169-4.798,0.076c-3.943,0.613-4.519,4.224-3.219,7.495c1.514,3.812,3.294,7.741,5.677,11.087   c2.427,3.408,4.545,6.925,6.473,10.639c1.816,3.498,3.532,7.06,5.674,10.376c3.917,6.067,9.003,11.49,15.105,15.395   c6.892,4.411,14.598,6.055,22.69,6.335c3.159,0.109,7.447,0.287,8.865-3.203c0.561-1.38,0.653-2.903,0.79-4.37   c0.171-1.845,0.76-3.541,1.548-5.208c-0.133,0.27,0.414-0.477,0.57-0.587c0.657-0.46,1.362,0.009,1.974,0.368   c-0.283-0.166,0.14,0.155,0.199,0.203c0.512,0.421,1,0.828,1.454,1.314c0.819,0.876,1.588,1.799,2.398,2.684   c1.569,1.712,3.212,3.375,4.962,4.904c3.089,2.7,6.715,4.758,10.928,4.695c-0.374,0.009-0.257,0.021,0.349,0.033   c0.361,0.016,0.723,0.031,1.085,0.046c0.542,0.021,1.085,0.04,1.627,0.056c1.085,0.032,2.17,0.055,3.255,0.07   c2.352,0.032,4.703,0.028,7.055,0.002c1.809-0.02,3.717-0.082,5.166-1.315c1.343-1.142,2.019-2.879,2.028-4.618   C134.585,100.003,131.169,96.524,128.521,93.815z M129.516,105.189c-0.699,0.425-1.646,0.173-2.409,0.149   c-3.052-0.094-6.103-0.288-9.157-0.296c-2.667-0.007-5.674,0.322-8.208-0.668c-2.098-0.819-3.749-2.416-5.232-4.06   c-2.882-3.195-6.25-8.389-10.851-9.122c-3.988-0.635-6.347,3.641-7.029,6.944c-0.472,2.285,0.729,6.776-2.285,7.421   c-2.669,0.571-5.888,0.306-8.569,0.047c-2.165-0.208-4.442-0.525-6.492-1.279c-1.726-0.635-3.288-1.621-4.84-2.591   c-3.305-2.065-6.604-3.982-9.575-6.533c-6.296-5.405-11.024-12.805-15.078-19.974c-2.191-3.875-3.998-7.937-5.864-11.973   c-0.962-2.08-1.922-4.161-2.865-6.25c-0.695-1.541-1.25-3.208-1.961-4.737c0.93-0.164,1.948,0.065,2.867,0.078   c1.415,0.02,2.83,0.035,4.245,0.037c2.721,0.004,6.617-0.492,8.354-0.492c1.057,0,1.679,1.757,1.932,2.194   c0.606,1.047,0.98,2.207,1.399,3.336c1.175,3.16,2.948,6.146,4.637,9.052c1.722,2.963,3.434,5.967,5.647,8.599   c1.805,2.148,4.298,4.711,7.394,4.1c2.983-0.588,4.118-3.672,4.64-6.316c0.633-3.208,0.491-6.514,0.353-9.762   c-0.135-3.173-0.011-6.682-1.453-9.602c-0.765-1.548-1.996-2.556-3.417-3.3c0.328-0.114,0.621-0.19,0.787-0.209   c1.784-0.198,3.7,0.042,5.494,0.057c3.952,0.032,7.904-0.081,11.855,0.019c1.324,0.034,2.156,0.654,2.164,1.911   c0.024,3.909-0.072,7.996,0.032,11.809c0.089,3.227-0.211,6.653,0.416,9.835c0.493,2.503,2.168,5.207,5.084,4.98   c3.124-0.243,5.695-3.621,7.501-5.864c1.126-1.398,2.235-2.799,2.732-4.55c0.438-1.544,0.774-3.044,1.61-4.439   c0.895-1.494,1.972-2.843,2.78-4.394c0.765-1.467,1.418-2.988,2.11-4.49c0.661-1.432,1.045-2.802,2.826-2.822   c1.844-0.02,3.687-0.074,5.528-0.176c3.689-0.205,9.379,0.583,13.073,0.47c-0.037-0.004,0.036,1.36-0.622,2.963   c-0.704,1.717-1.187,2.67-2.135,4.269c-2.08,3.505-3.574,5.759-6,9.027c-2.251,3.033-4.946,6.031-6.756,9.353   c-1.889,3.468-0.406,6.352,2.124,8.947c4.83,4.844,9.564,9.835,13.29,15.602c-0.263-0.417,0.321,0.754,0.299,0.691   c0.1,0.268,0.157,0.546,0.17,0.832C130.075,104.479,129.931,104.936,129.516,105.189z"/><path d="M155.069,69.003c-0.239,18.429-0.657,36.858-0.624,55.29c0.007,3.963,0.155,7.84-0.92,11.697   c-0.955,3.428-2.633,6.657-4.959,9.356c-4.925,5.714-12.219,8.217-19.532,8.978c-7.88,0.82-15.941,0.264-23.845,0.143   c-9.2-0.141-18.4-0.365-27.602-0.278c-9.262,0.088-18.521,0.363-27.783,0.394c-4.62,0.016-9.24,0.11-13.859,0.104   c-4.065-0.006-8.199,0.019-12.147-1.072c-7.012-1.936-13.102-6.726-16.959-12.857c-4.679-7.439-4.56-16.203-4.532-24.704   c0.015-4.532,0.179-9.049,0.017-13.582c-0.162-4.532-0.405-9.056-0.365-13.593c0.08-9.168,0.683-18.321,0.683-27.496   c0-4.539-0.034-9.085-0.214-13.622c-0.179-4.492-0.698-8.943-0.707-13.445c-0.008-4.124-0.173-8.355,0.964-12.359   c1.032-3.632,2.875-7.02,5.231-9.961c5.04-6.292,12.388-10.293,20.454-10.752c8.901-0.507,17.836,0.352,26.745,0.054   c4.532-0.152,9.068-0.377,13.603-0.219c4.576,0.159,9.134,0.346,13.715,0.339c9.114-0.015,18.228-0.259,27.339-0.281   c4.55-0.011,9.103,0.229,13.651,0.376c4.061,0.132,8.06,0.138,11.969,1.39c7.083,2.269,13.168,7.477,16.623,14.047   c3.931,7.475,3.205,15.969,3.317,24.153C155.457,50.402,155.237,59.703,155.069,69.003z M149.23,65.91   c0.269-9.154,1.403-15.156,0.927-24.324c-0.419-8.076,0.521-16.664-4.06-23.761c-3.828-5.93-10.033-10.357-17.147-11.034   c-9.035-0.859-17.972-1.234-27.044-1.059c-9.168,0.177-18.341,0.022-27.506,0.356c-4.483,0.163-8.966,0.38-13.434,0.778   c-4.409,0.393-8.814,0.762-13.234,0.291c-4.654-0.496-9.106-0.232-13.761,0.128c-4.313,0.333-8.276,0.296-12.196,2.403   C15.463,13.08,10.486,19.68,8.851,26.645c-2.01,8.562-1.716,17.722-1.617,26.453c0.053,4.619,0.22,9.237,0.149,13.856   C7.312,71.567,7.07,76.176,6.93,80.787c-0.14,4.601-0.136,9.192,0.15,13.788c0.283,4.562,0.774,9.117,0.832,13.69   c0.058,4.551-0.052,9.089,0.19,13.637c0.225,4.214,0.207,8.569,1.854,12.53c3.007,7.23,9.645,12.294,17.374,13.295   c3.774,0.489,7.593,0.265,11.383,0.14c4.299-0.142,8.509,0.181,12.785,0.592c4.519,0.434,9.042,0.312,13.577,0.345   c4.616,0.033,9.231,0.085,13.847,0.123c9.209,0.076,18.411,0.003,27.619-0.16c4.563-0.08,9.124-0.198,13.686-0.302   c4.291-0.097,8.655,0.054,12.849-1.01c6.348-1.611,12.005-5.906,14.536-12.044c1.583-3.84,1.595-7.99,1.506-12.075   c-0.096-4.414-0.364-8.877,0.05-13.277c0.86-9.141,0.805-14.347,0.805-23.506c0-4.341-0.895-7.554-0.895-11.666   C149.08,72.894,149.118,69.711,149.23,65.91z"/></g></svg>