<?xml version="1.0" encoding="UTF-8"?>
<!DOCTYPE svg PUBLIC "-//W3C//DTD SVG 1.1//EN" "http://www.w3.org/Graphics/SVG/1.1/DTD/svg11.dtd">
<!-- Creator: CorelDRAW -->
<svg xmlns="http://www.w3.org/2000/svg" xml:space="preserve" width="6.82666in" height="6.82666in" style="shape-rendering:geometricPrecision; text-rendering:geometricPrecision; image-rendering:optimizeQuality; fill-rule:evenodd; clip-rule:evenodd"
viewBox="0 0 6.82666 6.82666"
 xmlns:xlink="http://www.w3.org/1999/xlink">
 <defs>
  <style type="text/css">
   <![CDATA[
    .fil3 {fill:none}
    .fil1 {fill:#1D2877}
    .fil2 {fill:#394494}
    .fil0 {fill:#FFCA28}
   ]]>
  </style>
 </defs>
 <g id="Layer_x0020_1">
  <metadata id="CorelCorpID_0Corel-Layer"/>
  <g id="_203144128">
   <polygon id="_203145400" class="fil0" points="1.13777,0.853331 5.68889,0.853331 5.68889,4.81982 3.41422,5.97333 1.13777,4.8095 "/>
   <g>
    <path id="_203145064" class="fil1" d="M2.16839 3.06435l0.536902 0 0 -0.425831c0.114681,-0.000244094 0.229374,0.00101575 0.344,-0.00084252 0.0170827,-0.000665354 0.0343031,-0.000480315 0.0513189,-0.00282283 0.0301772,-0.00195669 0.0602874,-0.00535827 0.0895787,-0.0102165l1.5748e-005 0.444654 0.536913 0 0 -0.42578c0.114622,-0.000354331 0.22926,0.000972441 0.344063,-0.000909449 0.0170236,-0.000704724 0.034248,-0.000472441 0.0512047,-0.00281496 0.0695,-0.00451575 0.13876,-0.0168504 0.198449,-0.0366457 0.0595669,-0.0198543 0.109504,-0.046689 0.151567,-0.0778701 0.0421142,-0.0313425 0.0764213,-0.0672638 0.104209,-0.109748 0.0278031,-0.0423661 0.0491063,-0.0914488 0.063063,-0.147 0.0137874,-0.0555906 0.0201024,-0.117744 0.0182992,-0.177909 -0.00169291,-0.060311 -0.0115079,-0.11861 -0.0278031,-0.169335 -0.016374,-0.0508346 -0.0392913,-0.0939173 -0.069378,-0.132012 -0.0301457,-0.0380984 -0.0674528,-0.0711811 -0.111677,-0.0983819 -0.0444055,-0.0271929 -0.0957992,-0.0486181 -0.158795,-0.0631772 -0.0628819,-0.0145118 -0.137421,-0.0210118 -0.211496,-0.0210118l-0.888665 0 0 0.00265748c-0.0427244,-0.00517323 -0.0880079,-0.00758661 -0.133165,-0.00758661l-0.888602 0 0 1.46258zm1.02477 -0.441047c0.0232323,-0.00451181 0.0473543,-0.00788583 0.0712402,-0.0154055 0.0528386,-0.0129961 0.103134,-0.0355039 0.147358,-0.0622126 0.0441614,-0.0267283 0.0820118,-0.0584882 0.11348,-0.0959213 0.0314055,-0.0374961 0.0565,-0.080622 0.0747992,-0.129854 0.0182835,-0.0491457 0.0298976,-0.104264 0.0342402,-0.161902 0.00433465,-0.0576024 0.00143701,-0.117583 -0.00825591,-0.171618 -0.00973228,-0.0540354 -0.0262953,-0.102173 -0.0489685,-0.14435 -0.022811,-0.0422402 -0.0516339,-0.0784055 -0.0871378,-0.110181 -0.0355512,-0.0315866 -0.077622,-0.0585394 -0.126898,-0.0794252 -0.0513228,-0.0217795 -0.110476,-0.0359803 -0.169921,-0.0431457l0 1.01407 6.29921e-005 -5.11811e-005zm0.533957 -0.681512c0.0848465,0.00169685 0.16926,-0.00612598 0.254705,0.00735039 0.0183504,0.00306299 0.0362913,0.00848819 0.0521102,0.0153425 0.0159488,0.00698031 0.0297756,0.0154055 0.0418228,0.0253858 0.0580591,0.0517559 0.0686614,0.108673 0.0583031,0.172937 -0.00601969,0.0279764 -0.0172047,0.0544567 -0.0417008,0.0798543 -0.0108268,0.0109567 -0.0238228,0.021 -0.038937,0.0297756 -0.0530039,0.0313425 -0.126528,0.0374882 -0.195307,0.0370157l-0.130996 -3.93701e-006 0 -0.367657zm-1.02183 -0.0049252c0.0849646,0.00167717 0.169378,-0.00625197 0.254764,0.00735039 0.0182362,0.00311811 0.0362323,0.0084685 0.0521732,0.0154016 0.015878,0.00685433 0.0297126,0.0154016 0.0417638,0.0253228 0.0580551,0.0518661 0.0687126,0.108673 0.0582953,0.172815 -0.00595669,0.0280984 -0.0172638,0.0545787 -0.0416929,0.0798543 -0.0108307,0.0111811 -0.0238307,0.021122 -0.0390472,0.0299016 -0.0529646,0.0313425 -0.126547,0.0374252 -0.19526,0.0369921l-0.130996 0 0 -0.367638z"/>
    <g>
     <path id="_203144848" class="fil2" d="M1.47911 3.50571l0.317937 0c0.0693661,0 0.121087,0.0169606 0.15563,0.0508228 0.0172402,0.0169213 0.0301693,0.0375591 0.0387598,0.061622 0.00858661,0.0240748 0.0129685,0.0518819 0.0129685,0.0831024 0,0.0643307 -0.0188189,0.114622 -0.0563465,0.150913 -0.0188622,0.0181732 -0.0425394,0.0316535 -0.0712323,0.0407283 -0.0530709,0.0187087 -0.133433,0.0123976 -0.205606,0.0135354l0 0.236484 -0.19211 0 0 -0.637209zm1.01308 0.175508l0.181291 0 0.0924685 0.307354 0.0858504 -0.307354 0.16937 0 -0.177957 0.493354c-0.0101732,0.0280984 -0.0203504,0.0516811 -0.030689,0.0705787 -0.0102953,0.0190079 -0.020811,0.0334449 -0.0313898,0.043315 -0.0149016,0.0138504 -0.0337244,0.024311 -0.0563898,0.0312244 -0.0227441,0.00703937 -0.0493898,0.0104764 -0.0798976,0.0104764 -0.0123268,0 -0.0281142,-0.000846457 -0.0473386,-0.00259055 -0.019126,-0.00174016 -0.0416142,-0.00432283 -0.0674488,-0.00788583l-0.0134961 -0.123335c0.0265315,0.00865748 0.0540551,0.0121535 0.0826929,0.0122126 0.0201732,0 0.0365827,-0.00481496 0.0491535,-0.0143858 0.00625591,-0.00480709 0.0120472,-0.0114291 0.0173504,-0.0201063 0.00526772,-0.00859449 0.0101181,-0.0189449 0.0145,-0.0313386l-0.188071 -0.46152zm-0.483685 0.131776c0.00613386,-0.0295394 0.0150709,-0.0528307 0.0267638,-0.0697913 0.00590157,-0.00848425 0.0130354,-0.016374 0.0213898,-0.0237047 0.00842126,-0.00740945 0.0181142,-0.0142638 0.0291102,-0.0204094 0.0321417,-0.0191929 0.100287,-0.0286378 0.154465,-0.0282795 0.0515512,0 0.0928701,0.00301575 0.124079,0.00896457 0.0157283,0.00295669 0.0300433,0.00759055 0.0429567,0.0137795 0.0130315,0.00613386 0.0247795,0.0138976 0.0351732,0.0233583 0.0276496,0.0232126 0.0471732,0.0779724 0.0472953,0.123953l0 0.203854c0.000228346,0.0373071 0.00316142,0.0528346 0.0104646,0.0720315 0.00285433,0.00786614 0.00647244,0.0166063 0.0110984,0.0261063l-0.161366 0c-0.0122677,-0.022689 -0.0132677,-0.0282835 -0.0156614,-0.0391693 -0.000948819,-0.00481102 -0.00193701,-0.0105866 -0.00285827,-0.0172717 -0.0224449,0.0220906 -0.0448937,0.0381417 -0.0672283,0.0477717 -0.0333622,0.0139055 -0.0687756,0.0190236 -0.105894,0.0192047 -0.0534764,0 -0.0940984,-0.012874 -0.121791,-0.0382756 -0.0139134,-0.0127559 -0.0243189,-0.0270197 -0.0312087,-0.0427756 -0.00690157,-0.0157126 -0.0103543,-0.0328583 -0.0103543,-0.0516378 0,-0.0175591 0.00244882,-0.0335 0.00747638,-0.0478937 0.00491339,-0.0144449 0.0125118,-0.0272638 0.0225,-0.0386299 0.01,-0.0112441 0.0241378,-0.0210551 0.0426142,-0.0295433 0.0184094,-0.0084252 0.0410906,-0.0154055 0.0679724,-0.020811 0.0644567,-0.0133071 0.106244,-0.0226929 0.125425,-0.0281142 0.0198661,-0.0055315 0.0400827,-0.0125669 0.0607756,-0.0210551 0,-0.0217205 -0.00438583,-0.036937 -0.0130354,-0.0456063 -0.0122047,-0.011185 -0.0279961,-0.0126929 -0.0460472,-0.0130039 -0.0140787,0 -0.0263622,0.00121654 -0.0369409,0.00343307 -0.0174134,0.00464173 -0.0288189,0.00764173 -0.0412677,0.0261142 -0.00444094,0.00674016 -0.00840551,0.0152362 -0.011685,0.0252126l-0.16422 -0.017811zm0.313256 0.110835c-0.024374,0.00890551 -0.0489685,0.0165433 -0.0739252,0.0231063 -0.0174213,0.00475984 -0.031689,0.00950394 -0.0426772,0.0142008 -0.0110984,0.00475984 -0.018937,0.00927165 -0.0235433,0.0140157 -0.0103504,0.0103583 -0.0143228,0.0212441 -0.0143228,0.0325669 3.93701e-006,0.0139567 0.00466929,0.0253268 0.0140787,0.0341063 0.0119921,0.0107205 0.0259646,0.0131811 0.0415669,0.0133701 0.0191693,-3.93701e-006 0.0369843,-0.00488583 0.0534134,-0.0144488 0.027937,-0.0158858 0.0390984,-0.0377874 0.0427756,-0.0587205 0.00351575,-0.016311 0.00245669,-0.0379685 0.00263386,-0.0581969zm-0.650539 -0.146508l0.0468622 0c0.0368819,0 0.0628386,-0.00655906 0.0776811,-0.0198071 0.0171181,-0.0153425 0.0222008,-0.0323622 0.022378,-0.0506614 0,-0.0199803 -0.00649213,-0.036937 -0.0194016,-0.0508937 -0.00653937,-0.00693701 -0.0157835,-0.0121535 -0.0279961,-0.0155906 -0.0235472,-0.00758268 -0.0644685,-0.0045748 -0.0995827,-0.00524016l5.90551e-005 0.142193z"/>
     <path id="_203145040" class="fil2" d="M3.10796 3.50571l0.317937 0c0.0693661,0 0.121087,0.0170394 0.155634,0.0509134 0.0172362,0.0168937 0.0301654,0.0374764 0.038752,0.0616772 0.00859055,0.0239961 0.0129724,0.0518031 0.0129724,0.0830276 0,0.0643819 -0.0188189,0.11463 -0.0563465,0.150846 -0.0188661,0.0181102 -0.0425394,0.0317165 -0.0712323,0.0406811 -0.0530709,0.0188386 -0.133433,0.0124449 -0.205602,0.0136024l0 0.236528 -0.192114 0 0 -0.637276zm0.192114 0.271677l0.0468583 0c0.0368819,0 0.0628386,-0.00662205 0.0776811,-0.0198543 0.0171181,-0.0152795 0.0222008,-0.0323189 0.0223819,-0.0505984 0,-0.0199803 -0.00649606,-0.0369606 -0.0194055,-0.0509134 -0.00653937,-0.00691732 -0.0157835,-0.0121535 -0.0279961,-0.0155906 -0.0235472,-0.0076378 -0.0644685,-0.00463386 -0.0995866,-0.00529528l6.69291e-005 0.142252z"/>
     <path id="_203144944" class="fil2" d="M3.70181 3.73941c0.0231496,-0.0229173 0.0501535,-0.0398898 0.0814213,-0.0513228 0.0311535,-0.0114331 0.0663268,-0.0171417 0.105602,-0.0171417 0.0448858,0 0.0843386,0.0066063 0.118181,0.0200236 0.0339528,0.0134764 0.0624055,0.0335157 0.0852677,0.0603543 0.0184646,0.0216102 0.0323189,0.0457323 0.0415472,0.0723346 0.00917323,0.0265236 0.0138583,0.0555906 0.0138583,0.087248 0,0.0709961 -0.0229094,0.129173 -0.0686142,0.174433 -0.0228465,0.022689 -0.0501535,0.0397126 -0.0817047,0.0511378 -0.0316772,0.0112638 -0.0676772,0.0169173 -0.108075,0.0169173 -0.0360551,0 -0.0686142,-0.00475984 -0.0977756,-0.0141417 -0.0290984,-0.00938189 -0.054815,-0.0235866 -0.0770236,-0.0423622 -0.0273465,-0.0234173 -0.0477559,-0.0503071 -0.0614331,-0.0809291 -0.0137323,-0.030563 -0.0203898,-0.0647441 -0.0203898,-0.102591 0,-0.0703543 0.0230236,-0.128469 0.0691378,-0.173961zm0.127358 0.264933c0.0185787,0.0223858 0.0390906,0.0293622 0.0610118,0.0294213 0.0246575,0 0.045063,-0.00968898 0.0609528,-0.0290472 0.00794488,-0.00962992 0.0139764,-0.0223386 0.0178937,-0.0379094 0.0039685,-0.0155945 0.00589764,-0.0340591 0.00589764,-0.0556063 0,-0.0398425 -0.00794488,-0.0696772 -0.0240157,-0.0893622 -0.0182953,-0.0220748 -0.0382874,-0.0291772 -0.0595,-0.0292362 -0.0250748,0 -0.0457126,0.00987402 -0.062063,0.0297913 -0.00818504,0.00985433 -0.0143189,0.0223228 -0.0184173,0.0374764 -0.00402756,0.0151102 -0.00613386,0.0328583 -0.00613386,0.0530236 0,0.0412677 0.00812205,0.0715945 0.024374,0.0914488z"/>
     <path id="_203144776" class="fil2" d="M4.48111 3.68128l0.160079 0 0 0.0752165c0.0239055,-0.030748 0.0482165,-0.0527126 0.0725906,-0.0658189 0.0277598,-0.0148071 0.0576811,-0.0197323 0.0895315,-0.0197323 0.0475787,0 0.0848622,0.0144291 0.111689,0.0435591 0.0134528,0.0145591 0.0234921,0.0331496 0.0302835,0.0556535 0.00672047,0.0223819 0.0100433,0.0489882 0.0100433,0.0793622l0 0.293398 -0.172646 0 0 -0.253795c0,-0.0291299 -0.00519685,-0.0495236 -0.0156654,-0.0616142 -0.0127323,-0.0143268 -0.0275197,-0.0177598 -0.0438858,-0.0180512 -0.0208071,-3.93701e-006 -0.0377047,0.00811811 -0.0506772,0.0243031 -0.00647638,0.00811811 -0.0112756,0.0195039 -0.0144961,0.0340591 -0.00319685,0.0145591 -0.00490551,0.0323189 -0.00490551,0.053315l0 0.221724 -0.171882 0 -5.90551e-005 -0.461579z"/>
     <path id="_203145256" class="fil2" d="M5.24668 3.50571l0 0.175638 0.094622 0 0 0.129606 -0.094622 0 0 0.163555c0,0.00979921 0.000464567,0.0179961 0.00135039,0.024374 0.000929134,0.0066063 0.00233465,0.0114252 0.00414567,0.0145512 0.016185,0.0216575 0.0324331,0.0147441 0.0523031,0.0119685 0.00894882,-0.00198425 0.0190591,-0.0046811 0.0304488,-0.0084685l0.0126299 0.122138c-0.0404449,0.00908661 -0.080185,0.0143268 -0.118996,0.0143268 -0.0427756,0 -0.0744055,-0.00565354 -0.0945591,-0.0169173 -0.0202835,-0.0113661 -0.035248,-0.0284488 -0.0450039,-0.0514449 -0.00478346,-0.0114921 -0.00842126,-0.0266535 -0.010878,-0.0451811 -0.00251181,-0.0187165 -0.00362205,-0.0408071 -0.00362205,-0.0665l3.93701e-006 -0.162402 -0.0633504 0 0 -0.129606 0.0633504 0 0 -0.0847244 0.172177 -0.0909134z"/>
     <polygon id="_203144008" class="fil2" points="4.21835,3.68128 4.39024,3.68128 4.39024,4.14286 4.21836,4.14286 "/>
    </g>
   </g>
  </g>
 </g>
 <rect class="fil3" width="6.82666" height="6.82666"/>
</svg>
