<?xml version="1.0" ?><!DOCTYPE svg  PUBLIC '-//W3C//DTD SVG 1.1//EN'  'http://www.w3.org/Graphics/SVG/1.1/DTD/svg11.dtd'><svg enable-background="new 0 0 1024 1024" height="1024px" id="VK_1_" version="1.1" viewBox="0 0 1024 1024" width="1024px" xml:space="preserve" xmlns="http://www.w3.org/2000/svg" xmlns:xlink="http://www.w3.org/1999/xlink"><g id="Background"><rect fill="#4C75A3" height="1024" id="bg" width="1024"/></g><path d="M154.504,399.328c7.7,20.099,17.191,39.48,26.987,58.622c23.277,45.48,47.248,89.673,79.387,129.647  c32.479,40.396,70.825,79.544,115.996,105.676c12.563,7.268,25.77,13.4,39.527,18.061c53.079,17.979,111.295,16.267,129.273,4.281  c17.979-11.986-3.424-90.75,12.842-100.167c16.267-9.418,45.375,11.13,66.777,29.965c21.403,18.834,37.669,35.1,49.656,47.942  c7.506,8.042,12.79,17.64,22.575,23.376c16.186,9.486,37.753,8.435,55.808,8.485c10.065,0.029,20.133,0.063,30.199-0.063  c6.803-0.084,13.608,0.136,20.406-0.193c11.171-0.542,25.779-4.952,24.941-18.927c-0.198-3.304-0.931-7.256-2.244-10.306  c-2.822-6.555-6.797-13.357-11.069-19.067c-22.258-29.75-37.026-44.946-48.155-56.933c-11.13-11.984-56.933-55.22-59.929-63.78  c-2.996-8.562-3.96-12.36,4.548-23.918c8.508-11.559,27.129-40.72,41.684-61.694c9.128-13.155,17.42-26.91,25.612-40.659  c9.659-16.21,18.743-32.813,26.485-50.029c3.462-7.698,6.604-14.711,4.46-23.337c-1.437-5.779-4.687-10.856-10.739-12.282  c-3.304-0.778-6.909-0.857-10.29-0.857c-12.627,0-45.589,0-45.589,0c-5.958,0-11.917-0.087-17.876-0.076  c-6.109,0.011-12.269-0.037-18.36,0.485c-8.666,0.742-13.977,7.425-18.336,14.163c-5.333,8.245-10.187,16.823-15.36,25.172  c-3.537,5.705-6.998,11.455-10.397,17.243c-5.312,9.04-10.784,17.983-16.256,26.927c-2.271,3.71-4.55,7.416-6.789,11.146  c-6.421,10.699-62.069,83.898-73.198,86.896s-14.982,2.142-14.982-20.547c0-22.687,0-151.533,0-151.533s-0.854-9.935-10.272-9.935  s-53.099,0-53.099,0h-90.09c0,0-21.188,0.088-13.697,19.138c7.491,19.049,29.644,24.828,29.644,56.611c0,31.782,0,124.565,0,124.565  s-3.745,27.931-27.931,4.815c-19.059-18.215-34.762-39.751-48.637-62.081c-14.426-23.215-26.048-47.333-36.4-72.602  c-2.961-7.227-5.893-14.466-8.934-21.659c-3.174-7.509-6.319-15.031-9.363-22.593c-3.535-8.784-7.317-20.265-16.849-24.309  c-4.792-2.033-10.092-1.933-15.2-1.932c-18.943,0.005-37.885,0.058-56.827,0.022c-5.558-0.01-11.116-0.016-16.674-0.002  c-13.123,0.031-29.445-0.356-32.558,16.038c-1.794,9.443,1.772,19.523,4.757,28.367C151.321,391.511,152.99,395.375,154.504,399.328  z" fill="#FFFFFF" id="VK"/></svg>