<?xml version="1.0" ?><svg viewBox="0 0 512 512" xmlns="http://www.w3.org/2000/svg"><defs><style>.cls-1{fill:#8cc0f4;}.cls-2{opacity:0.2;}.cls-3{fill:#fff;}.cls-4{fill:#3f456b;}</style></defs><title/><g id="Colors"><path class="cls-1" d="M342.74,478.42V306.06h42.38c3.53,0,7.18.5,10.53-.28,2-.47,4.91-2.75,5.18-4.54,2.86-19.41,5.3-38.88,7.81-58.33a47.91,47.91,0,0,0,0-5.17H343.22a41.93,41.93,0,0,1-.88-5.71c0-13.34-.2-26.69.15-40,.5-19.44,8.92-28,28.35-28.65,11.56-.41,23.15-.33,34.73-.05,5.27.13,7-1.73,6.95-7-.23-16.61-.14-33.23,0-49.84,0-3.79-.65-6.52-5.11-6.55-22.35-.16-45-2.6-67,0-39.06,4.67-63.89,32.64-68.11,74.09-1.76,17.21-.9,34.68-1.21,52-.06,3.48,0,7,0,11.25H213.53v68.18c3.18.18,6.13.49,9.09.5,13.59.05,27.19.24,40.77-.1,5.83-.15,8,1.59,7.79,7.66-.4,14.34-.13,28.7-.13,43l0,113.27V478c-3.13.18-5.55.45-8,.45q-101.19,0-202.38,0c-18.43,0-28.1-9.9-28.1-28.64q0-194.07,0-388.14c0-20.39,9.58-29.87,30.09-29.87l390.41,0C469.38,31.8,480,42.17,480,57.89q0,195.21-.07,390.4c0,21.78-8.32,30.12-30.05,30.13q-49.1,0-98.17,0Z"/><g class="cls-2"><path class="cls-3" d="M34.75,47.5s5-15.71,26.62-15.71H450S473.41,30,478.2,47.5Z"/></g><g class="cls-2"><path class="cls-4" d="M34.75,463.74c4.79,17.5,28.2,15.71,28.2,15.71H272V463.74Z"/></g><g class="cls-2"><path class="cls-4" d="M344,463.74v15.71H451.58c21.63,0,26.62-15.71,26.62-15.71Z"/></g><g class="cls-2"><rect class="cls-3" height="17" rx="8.5" ry="8.5" width="60" x="212" y="306"/></g><g class="cls-2"><rect class="cls-3" height="17" rx="8.5" ry="8.5" width="60" x="341" y="306"/></g><g class="cls-2"><rect class="cls-4" height="17" rx="8.5" ry="8.5" width="60" x="212" y="221"/></g><g class="cls-2"><rect class="cls-4" height="17" rx="8.5" ry="8.5" width="70" x="341" y="221"/></g><g class="cls-2"><path class="cls-3" d="M408.59,179H362.41c-4.08,0-7.41-3.82-7.41-8.5h0c0-4.68,3.33-8.5,7.41-8.5h46.18c4.08,0,7.41,3.82,7.41,8.5h0C416,175.18,412.67,179,408.59,179Z"/></g><g class="cls-2"><path class="cls-4" d="M411,101.06V92s-1-9-10-9H357s-71,0-79.5,68c0,0,5.5-52.5,89-52.5Z"/></g></g><g id="Lines"><path class="cls-4" d="M174,483.45l-113.31,0c-21,0-33.1-12.27-33.1-33.64q0-194.07,0-388.14c0-11.69,2.89-20.23,8.83-26.13S51,26.78,62.72,26.78h0l390.41,0c9.29,0,17.25,3,23,8.56S485,48.79,485,57.89Q485,178,485,298.14l0,150.16c0,24.61-10.48,35.11-35,35.12q-34.06,0-68.12,0h-39a5,5,0,0,1-5-5V306.06a5,5,0,0,1,5-5h42.4c1.06,0,2.13,0,3.19.08a24.61,24.61,0,0,0,6.19-.23,4.75,4.75,0,0,0,1.45-1c2.41-16.36,4.55-33,6.62-49.19l1-8h-60.4a5,5,0,0,1-4.93-4.2c-.12-.76-.26-1.43-.38-2a22.49,22.49,0,0,1-.57-4.45c0-3,0-6,0-9,0-10.19-.09-20.73.18-31.13.57-22.09,11.11-32.74,33.17-33.52,10.27-.36,21.4-.37,35,0a9.27,9.27,0,0,0,1.72-.09,9.2,9.2,0,0,0,.12-1.81c-.24-17.15-.14-34.08,0-49.95a13.86,13.86,0,0,0-.05-1.51h-.09c-7,0-14.12-.33-21-.59-15-.58-30.57-1.18-45.37.59-18.09,2.16-32.91,9.44-44,21.65-10.93,12-17.74,28.58-19.72,48-1.19,11.64-1.15,23.75-1.12,35.45,0,5.3,0,10.77-.06,16.17,0,2.27,0,4.52,0,7.12,0,1.28,0,2.62,0,4a5,5,0,0,1-5,5H218.53v58.51c1.41.09,2.77.16,4.1.17l8.73,0c10.47.06,21.3.12,31.9-.14,3.12-.08,7.05.19,9.89,3s3.1,6.95,3,9.76c-.29,10.15-.23,20.51-.17,30.54q0,6.18,0,12.36l0,121.34a5,5,0,0,1-4.71,5c-1,.06-2,.13-2.86.2-1.86.13-3.61.26-5.4.26ZM62.72,36.78c-9,0-15.25,1.91-19.21,5.84s-5.88,10.15-5.88,19q0,194.06,0,388.13c0,15.9,7.56,23.63,23.1,23.64,58.76,0,123.06,0,202.38,0,.94,0,1.91-.05,3-.12l0-116.67q0-6.15,0-12.31c-.06-10.1-.12-20.55.17-30.86a8.91,8.91,0,0,0-.16-2.37,9.62,9.62,0,0,0-2.5-.17c-10.76.27-21.67.21-32.21.15l-8.71,0c-2.18,0-4.34-.16-6.44-.31l-2.92-.2a5,5,0,0,1-4.71-5V237.37a5,5,0,0,1,5-5h52.53c0-2.18,0-4.27,0-6.34.1-5.29.08-10.71.06-16,0-12-.07-24.33,1.17-36.5,4.52-44.3,31.62-73.66,72.5-78.54,15.59-1.86,31.53-1.25,46.95-.65,6.8.26,13.83.53,20.68.58,4.82,0,7.25,2.31,8.44,4.22a13.37,13.37,0,0,1,1.63,7.37c-.12,15.82-.22,32.68,0,49.73,0,2.62-.23,6.42-3,9.15s-6.51,2.94-9.09,2.88C392,168,381.08,168,371,168.36c-16.71.58-23.09,7-23.52,23.78-.27,10.25-.22,20.71-.18,30.83,0,3,0,6,0,9.05a5,5,0,0,0,.06.72h61.26a5,5,0,0,1,5,5c0,.74,0,1.39,0,2a24.54,24.54,0,0,1-.1,3.83L412.51,252c-2.1,16.38-4.28,33.32-6.74,50-.66,4.46-5.65,7.91-9,8.68a32.69,32.69,0,0,1-8.83.48c-.94,0-1.85-.05-2.81-.07H347.74V473.42h34q34,0,68.11,0c19,0,25.05-6.11,25.05-25.13l0-150.15Q475,178,475,57.89c0-6.34-2-11.65-5.83-15.35s-9.4-5.74-16-5.74l-390.41,0Z"/></g></svg>