<?xml version="1.0" ?><svg viewBox="0 0 512 512" xmlns="http://www.w3.org/2000/svg"><defs><style>.cls-1{fill:#8bd0f7;}.cls-2{fill:#e95a6b;}.cls-3{fill:#ffbc5a;}.cls-4{fill:#8dd3b7;}.cls-5{opacity:0.15;}.cls-6{fill:#3f456b;}.cls-7{opacity:0.25;}.cls-8{fill:#fff;}</style></defs><title/><g id="Colors"><g data-name="&lt;编组&gt;" id="_编组_"><path class="cls-1" d="M64,26.64,294.58,257.22,64,484.36l-1.31.41a31.05,31.05,0,0,1-6.54-19.25V47.3a31,31,0,0,1,7.77-20.73Z"/><path class="cls-2" d="M372,334.64l1.29,2.23-270,155.88a31.42,31.42,0,0,1-40.61-8l1.31-.41L294.58,257.22Z"/><path class="cls-3" d="M465.49,229.19a31.43,31.43,0,0,1,0,54.44l-92.2,53.24L372,334.64l-77.42-77.42L375.5,177.5l.12-.2Z"/><path class="cls-4" d="M294.58,257.22,64,26.64l-.08-.07a31.38,31.38,0,0,1,39.38-6.5L375.62,177.3l-.12.2Z"/></g><g class="cls-5"><path class="cls-6" d="M62.69,484.77A53,53,0,0,0,101,476c19-13,352-203,352-203s26.67-12.33,25.33-29.67c0,0,13.67,25.67-13.33,40.67L103,493S79.38,505.54,62.69,484.77Z"/></g><g class="cls-7"><path class="cls-8" d="M62.69,28.32A53,53,0,0,1,101,37.09c19,13,352,203,352,203s26.67,12.33,25.33,29.66c0,0,13.67-25.66-13.33-40.66l-362-209S79.38,7.55,62.69,28.32Z"/></g><g class="cls-7"><polygon class="cls-8" points="391 186 75.6 497.67 63.64 485.58 374.45 178.23 391 186"/></g><g class="cls-5"><polygon class="cls-6" points="375 178 63.6 484.67 54.61 469.61 358.45 170.23 375 178"/></g><g class="cls-5"><polygon class="cls-6" points="78.52 17.98 388.1 326.5 373.12 335.62 64 27 78.52 17.98"/></g><g class="cls-7"><polygon class="cls-8" points="64 27 374.1 336.5 359.12 345.62 56 42 64 27"/></g></g><g id="Lines"><path class="cls-6" d="M87.58,502a36.56,36.56,0,0,1-36.43-36.5V47.3A36.43,36.43,0,0,1,105.8,15.74L468,224.86a36.43,36.43,0,0,1,0,63.1L105.8,497.08A36.38,36.38,0,0,1,87.58,502Zm0-481.2A26.52,26.52,0,0,0,61.15,47.3V465.52a26.43,26.43,0,0,0,39.65,22.9L463,279.3a26.43,26.43,0,0,0,0-45.78L100.8,24.4A26.38,26.38,0,0,0,87.58,20.82Z"/><path class="cls-6" d="M64,489.36a5,5,0,0,1-3.51-8.56l308-303.72a5,5,0,1,1,7,7.12l-308,303.72A5,5,0,0,1,64,489.36Z"/><path class="cls-6" d="M372,339.64a5,5,0,0,1-3.54-1.47l-308-308a5,5,0,0,1,7.08-7.07l308,308a5,5,0,0,1-3.54,8.54Z"/></g></svg>