<?xml version="1.0" ?><svg viewBox="0 0 512 512" xmlns="http://www.w3.org/2000/svg"><defs><style>.cls-1{fill:#8bd0f7;}.cls-2{opacity:0.2;}.cls-3{fill:#3f456b;}.cls-4{fill:#dae1ea;}.cls-5{opacity:0.5;}.cls-6{fill:#fff;}</style></defs><title/><g id="Colors"><path class="cls-1" d="M359.56,412.55,289.87,496l-33.38-83.44Z"/><g class="cls-2"><path class="cls-3" d="M359.56,412.55,289.87,496l-33.38-83.44Z"/></g><path class="cls-4" d="M372.4,322.12a180.84,180.84,0,0,1-34.6,27.49L294.45,224.19H422.38S416.22,277.45,372.4,322.12Z"/><path class="cls-4" d="M422.38,224.19H294.45L250.33,96.56l.27-.09H453.79C497,96.47,497,130.83,497,130.83V456.72C497,498,459.68,496,459.68,496H289.87l69.69-83.44L337.8,349.61a180.84,180.84,0,0,0,34.6-27.49C416.22,277.45,422.38,224.19,422.38,224.19Z"/><path class="cls-1" d="M337.8,349.61l21.76,62.94H55.26C12.07,412.55,16,373.28,16,373.28V58.19C16,13,53.3,15,53.3,15H222.13l28.2,81.56,44.12,127.63Z"/><g class="cls-2"><path class="cls-3" d="M17.33,381.33S23,398,49,398H352.5l7.5,15H55S20.67,416.67,17.33,381.33Z"/></g><g class="cls-5"><path class="cls-6" d="M457.77,97s34.33-3.67,37.66,31.67c0,0-5.66-16.67-31.66-16.67H256c-2-5-4-8-6-15Z"/></g><g class="cls-5"><path class="cls-6" d="M55.67,15S21.33,11.33,18,46.67C18,46.67,23.67,30,49.67,30H230.46c-2.72-4.9-5.67-9.68-7.73-15Z"/></g><g class="cls-2"><path class="cls-3" d="M497,464.33S491.33,481,465.33,481H302l-11.67,15h169S493.67,499.67,497,464.33Z"/></g><g class="cls-2"><polygon class="cls-3" points="256.49 412.55 263.5 428 346.65 428 360 413 256.49 412.55"/></g><g class="cls-2"><polygon class="cls-6" points="203 15.67 340.33 411.67 360 411.67 223 14 203 15.67"/></g></g><g id="Lines"><path class="cls-3" d="M460.48,501H289.87a5,5,0,0,1-3.84-8.21l62.84-75.23H55.26c-14.88,0-26.36-4.34-34.11-12.91C10,392.28,10.8,375.54,11,373.07V58.19C11,42,15.52,29.44,24.45,21c11.82-11.22,27.1-11,29-11H222.13a5,5,0,0,1,4.73,3.37l27,78.1H453.79c47.64,0,48.19,39,48.19,39.36V456.72c0,14.29-4.15,25.48-12.35,33.26C478.81,500.24,464.5,501,460.48,501ZM300.56,491H460c.11,0,13.6.51,22.86-8.33,6.09-5.82,9.17-14.54,9.17-25.94V130.83c0-1.18-.73-29.36-38.19-29.36H257.32l107,309.42c0,.1.07.21.1.32h0a5,5,0,0,1-.13,3.06,4.41,4.41,0,0,1-.44.9,4.3,4.3,0,0,1-.47.65ZM52.67,20c-2.12,0-13.15.4-21.42,8.31C24.45,34.81,21,44.87,21,58.19V373.28a4.07,4.07,0,0,1,0,.5c0,.13-1.23,14.46,7.65,24.21,5.78,6.34,14.74,9.56,26.64,9.56H352.54L218.57,20H52.67Z"/><path class="cls-3" d="M289.87,501a5,5,0,0,1-4.65-3.15l-33.37-83.43a5,5,0,0,1,9.28-3.72l33.38,83.44a5,5,0,0,1-2.79,6.5A5.07,5.07,0,0,1,289.87,501Z"/><path class="cls-3" d="M163.24,310.55a89.42,89.42,0,1,1,63.23-152.64A5,5,0,0,1,219.4,165a79.42,79.42,0,1,0,23.1,61.16H163.24a5,5,0,0,1,0-10h84.42a5,5,0,0,1,5,5A89.52,89.52,0,0,1,163.24,310.55Z"/><path class="cls-3" d="M454.77,229.19H294.45a5,5,0,0,1,0-10H454.77a5,5,0,0,1,0,10Z"/><path class="cls-3" d="M371.34,229.19a5,5,0,0,1-5-5V198.56a5,5,0,0,1,10,0v25.63A5,5,0,0,1,371.34,229.19Z"/><path class="cls-3" d="M337.81,354.61a5,5,0,0,1-2.62-9.26,177.92,177.92,0,0,0,68.48-77.53c11.34-24.62,13.72-44,13.75-44.21a5,5,0,0,1,9.93,1.16c-.1.84-2.52,20.88-14.43,46.87a187.86,187.86,0,0,1-72.5,82.23A5,5,0,0,1,337.81,354.61Z"/><path class="cls-3" d="M431.21,375.34a5,5,0,0,1-2.35-.59C371.3,344,335.11,280.27,333.6,277.57a5,5,0,1,1,8.72-4.89c.36.63,36.32,63.89,91.25,93.25a5,5,0,0,1-2.36,9.41Z"/></g></svg>