<?xml version="1.0" ?><svg viewBox="0 0 512 512" xmlns="http://www.w3.org/2000/svg"><defs><style>.cls-1{fill:#8bd0f7;}.cls-2{opacity:0.2;}.cls-3{fill:#fff;}.cls-4{fill:#3f456b;}</style></defs><title/><g id="Colors"><g data-name="&lt;编组&gt;" id="_编组_"><path class="cls-1" d="M461.27,380.27l-.38-.23A238.87,238.87,0,0,0,496,255C496,122.45,388.54,15,256,15S16,122.45,16,255,123.44,495,256,495a238.91,238.91,0,0,0,125.12-35.15l.41.67L416,495h80V415ZM256,403.82a148.82,148.82,0,1,1,73.25-278.39l38.5-38.5,56.33,56.32-38.51,38.5A148.86,148.86,0,0,1,256,403.82Z"/><path class="cls-1" d="M385.56,181.75,284.15,283.16a39.82,39.82,0,0,1-56.32-56.32L329.24,125.43A149.51,149.51,0,0,1,385.56,181.75Z"/></g><g class="cls-2"><path class="cls-3" d="M254.64,14.51C48.24,21.61,19,210.35,19,210.35S59.34,36.83,256,36.83s237,173,237,173S463.06,21.61,254.64,14.51Z"/></g><g class="cls-2"><path class="cls-4" d="M256,473C59.34,473,19,302.5,19,302.5S48.92,488,257.34,495c52.41-1.78,93.39-15.1,125.37-34-3.51-4.31-6.88-8.89-10.58-12.82C341.35,463.16,303.17,473,256,473Z"/></g><g class="cls-2"><polyline class="cls-4" points="416 495 400 479.5 496 479.5 496 495 416 495"/></g><g class="cls-2"><path class="cls-4" d="M216.17,255S218,276,256,276c0,0,11,0,22-11s97.09-99.23,97.09-99.23L386,182l-97.5,96.81s-10.5,16-35.5,16S213.33,271,216.17,255"/></g><g class="cls-2"><path class="cls-4" d="M121.37,191.5S145,89,256,89c0,0,56.34,0,85.17,24.5L329,125s-32-19-73-19S157.73,123,121.37,191.5Z"/></g><g class="cls-2"><path class="cls-3" d="M141.67,351S169,422,256,422s113.7-71,113.7-71S334,404,256,404,141.67,351,141.67,351Z"/></g></g><g id="Lines"><g data-name="&lt;编组&gt;" id="_编组_2"><path class="cls-4" d="M496,500H416a5,5,0,0,1-3.54-1.46l-32.29-32.3a244.88,244.88,0,1,1,87.07-87.07l32.3,32.29A5,5,0,0,1,501,415v80A5,5,0,0,1,496,500Zm-77.93-10H491V417.07l-32.85-32.84a5,5,0,0,1-1.53-6.8,234.91,234.91,0,1,0-78.12,78.15,5,5,0,0,1,6.88,1.66l.1.17ZM256,408.82c-84.82,0-153.82-69-153.82-153.82s69-153.82,153.82-153.82a153.89,153.89,0,0,1,72.37,18.06l35.85-35.85a5,5,0,0,1,7.07,0l56.33,56.32a5,5,0,0,1,0,7.08l-35.86,35.84A153.89,153.89,0,0,1,409.81,255C409.81,339.82,340.81,408.82,256,408.82Zm0-297.64c-79.3,0-143.82,64.52-143.82,143.82S176.69,398.82,256,398.82,399.81,334.3,399.81,255a143.85,143.85,0,0,0-18.6-70.79,5,5,0,0,1,.82-6l35-35L367.74,94l-35,35a5,5,0,0,1-6,.82A143.85,143.85,0,0,0,256,111.18Z"/><path class="cls-4" d="M256,299.8a44.81,44.81,0,0,1-31.7-76.5L325.71,121.89a5,5,0,0,1,6-.81,154.27,154.27,0,0,1,58.21,58.21,5,5,0,0,1-.82,6L287.69,286.7A44.72,44.72,0,0,1,256,299.8Zm74.06-168.11-98.68,98.69a34.82,34.82,0,0,0,49.25,49.24l98.68-98.68A144.35,144.35,0,0,0,330.05,131.69Z"/></g></g></svg>