<?xml version="1.0" ?><svg viewBox="0 0 512 512" xmlns="http://www.w3.org/2000/svg"><defs><style>.cls-1{fill:#8dd3b7;}.cls-2{opacity:0.2;}.cls-3{fill:#fff;}.cls-4{fill:#3f456b;}</style></defs><title/><g id="Colors"><g data-name="&lt;编组&gt;" id="_编组_"><path class="cls-1" d="M256,15c132.55,0,240,107.45,240,240S388.55,495,256,495,16,387.55,16,255,123.45,15,256,15ZM434.61,217.44a25,25,0,0,0-11.26-33.51c-84.89-42.2-167.78-49-222.35-47.27-59.34,1.88-98.83,13.83-100.48,14.33a25,25,0,1,0,14.68,47.8c1.4-.43,141.18-42,285.89,29.91a25,25,0,0,0,33.52-11.26Zm-30,86.2a25,25,0,0,0-7.67-34.51c-52.64-33.5-118-50.39-189-48.8-53.22,1.19-91.13,12.23-92.72,12.7a25,25,0,0,0,14.13,48c.34-.1,34.24-9.84,81.15-10.7,61.39-1.12,115.11,12.68,159.65,41a25,25,0,0,0,34.51-7.67ZM372.5,375.52a25,25,0,0,0-8.57-34.3c-106.7-64-234.07-30.18-239.44-28.71a25,25,0,0,0,13.22,48.22c1.11-.3,111.92-29.78,200.49,23.36a25,25,0,0,0,34.3-8.57Z"/></g><g class="cls-2"><path class="cls-3" d="M254.64,15.51C48.24,22.61,19,211.35,19,211.35S59.34,37.83,256,37.83s237,173,237,173S463.06,22.61,254.64,15.51Z"/></g><g class="cls-2"><path class="cls-4" d="M258.34,498C464.75,491,494,305,494,305S453.66,476,257,476,20,305.5,20,305.5,49.92,491,258.34,498Z"/></g></g><g id="Lines"><path class="cls-4" d="M256,500A245,245,0,0,1,82.76,81.76,245,245,0,1,1,429.24,428.24,243.37,243.37,0,0,1,256,500Zm0-480A235,235,0,0,0,89.83,421.17,235,235,0,1,0,422.17,88.83,233.44,233.44,0,0,0,256,20Z"/><path class="cls-4" d="M412.2,236.32h0a29.72,29.72,0,0,1-13.33-3.14c-142.51-70.84-280.82-30-282.2-29.61a30,30,0,0,1-17.62-57.36c1.68-.51,41.78-12.64,101.79-14.55,55.15-1.74,138.92,5.13,224.73,47.79a30,30,0,0,1-13.37,56.87ZM216.64,181.47c52.28,0,119,9.09,186.68,42.75a20,20,0,0,0,26.81-9,20,20,0,0,0-9-26.82c-83.95-41.73-166-48.45-220-46.74-58.69,1.86-97.55,13.61-99.17,14.11a20,20,0,0,0-3.49,36.79A19.81,19.81,0,0,0,113.73,194C114.49,193.78,155.82,181.47,216.64,181.47Z"/><path class="cls-4" d="M383.46,320.22a29.93,29.93,0,0,1-16.08-4.69c-43.68-27.8-96.45-41.34-156.87-40.24-46,.84-79.51,10.4-79.84,10.5a30,30,0,0,1-16.95-57.56c1.61-.48,40.11-11.7,94-12.89,72-1.62,138.34,15.52,191.85,49.57a30,30,0,0,1-16.13,55.31h0Zm-166.16-55c59.51,0,111.78,14.07,155.45,41.86a19.9,19.9,0,0,0,10.71,3.13h0a20,20,0,0,0,10.76-36.88c-51.84-33-116.24-49.57-186.26-48-52.59,1.17-89.85,12-91.41,12.49a20,20,0,0,0,11.31,38.37c.34-.1,34.75-10,82.46-10.9C212.66,265.25,215,265.23,217.3,265.23Z"/><path class="cls-4" d="M351,392.66a30,30,0,0,1-15.41-4.28C249.16,336.5,140.12,365.26,139,365.55a30,30,0,0,1-15.86-57.86c5.45-1.5,134.8-35.88,243.33,29.24A30,30,0,0,1,351,392.66Zm-139.5-45.32c38.62,0,86.44,6.79,129.24,32.47a20,20,0,1,0,20.58-34.3c-104.91-62.95-230.26-29.63-235.54-28.18a20,20,0,1,0,10.57,38.58C137,355.75,168.57,347.34,211.54,347.34Z"/></g></svg>