<?xml version="1.0" ?><svg height="122px" version="1.1" viewBox="0 0 122 122" width="122px" xmlns="http://www.w3.org/2000/svg" xmlns:sketch="http://www.bohemiancoding.com/sketch/ns" xmlns:xlink="http://www.w3.org/1999/xlink"><title/><defs/><g fill="none" fill-rule="evenodd" id="circle" stroke="none" stroke-width="1"><path d="M108.897655,72.2174121 C102.218818,99.0030778 75.086241,115.304475 48.2943249,108.624855 C21.5133476,101.946798 5.2100487,74.8158232 11.8920104,48.0317201 C18.5677214,21.2429294 45.7002987,4.93996988 72.4844013,11.6180271 C99.2747547,18.2960843 115.576491,45.430184 108.897655,72.2174121 C108.897655,72.2174121 115.576491,45.430184 108.897655,72.2174121 Z M82.4338985,52.9988572 C83.429317,46.3457997 78.3631525,42.7692735 71.4358522,40.3833602 L73.6829665,31.3709516 L68.1964446,30.003778 L66.0087116,38.778689 C64.5663705,38.4193176 63.0849627,38.0802586 61.612931,37.7443245 L63.8162906,28.9116016 L58.3328941,27.544428 L56.0842171,36.5537116 C54.89034,36.2818393 53.7183401,36.013092 52.580719,35.7302824 L52.5869696,35.7021577 L45.0205388,33.8131144 L43.5610083,39.6724299 C43.5610083,39.6724299 47.6317544,40.6052329 47.5458077,40.6630448 C49.7679194,41.2177267 50.1695247,42.6880243 50.10233,43.8536375 L47.5426824,54.1207208 C47.6958237,54.1597829 47.8942823,54.2160323 48.1130556,54.3035314 C47.9302237,54.2582194 47.7348904,54.2082199 47.5333064,54.1597829 L43.9454243,68.5424494 C43.6735203,69.2174426 42.9843844,70.2299323 41.431094,69.8455612 C41.4857873,69.9252479 37.4431692,68.8502588 37.4431692,68.8502588 L34.7194416,75.1298826 L41.8592646,76.909552 C43.187531,77.2423611 44.4892322,77.5907951 45.7706187,77.9189168 L43.5000643,87.0344492 L48.9803355,88.4016229 L51.2290125,79.3829644 C52.726047,79.7892103 54.1793267,80.1642065 55.6013532,80.5173279 L53.3604895,89.4937993 L58.8470114,90.8609729 L61.1175657,81.7626278 C70.4732496,83.5329223 77.5083739,82.818867 80.4696268,74.3580154 C82.8558185,67.5455845 80.3508642,63.6159369 75.4284649,61.0534629 C79.0132217,60.2269088 81.7135093,57.8691202 82.4338985,52.9988572 C82.4338985,52.9988572 81.7135093,57.8691202 82.4338985,52.9988572 L82.4338985,52.9988572 Z M69.8981884,70.5752413 C68.2026953,77.3876721 56.731161,73.704897 53.0120149,72.7814689 L56.0248358,60.705029 C59.7439819,61.6331445 71.6702521,63.4706259 69.8981884,70.5752413 C69.8981884,70.5752413 71.6702521,63.4706259 69.8981884,70.5752413 L69.8981884,70.5752413 Z M71.5952441,52.9004207 C70.0482044,59.0972328 60.5003125,55.9488272 57.4031076,55.1769601 L60.1346485,44.2239462 C63.2318534,44.9958134 73.2063532,46.4364238 71.5952441,52.9004207 C71.5952441,52.9004207 73.2063532,46.4364238 71.5952441,52.9004207 L71.5952441,52.9004207 Z M71.5952441,52.9004207" fill="#CE6F2D" id="bitcoin"/></g></svg>