<?xml version="1.0" ?><svg height="32px" version="1.1" viewBox="0 0 32 32" width="32px" xmlns="http://www.w3.org/2000/svg" xmlns:xlink="http://www.w3.org/1999/xlink"><title/><desc/><defs/><g fill="none" fill-rule="evenodd" id="Circle" stroke="none" stroke-width="1"><g id="cirrus"><circle cx="16" cy="16" fill="#F4F4F4" id="Oval-2" r="16"/><g id="Group" transform="translate(2.000000, 7.000000)"><g><path d="M27.3816321,13.3154325 C27.3816321,13.1631946 27.5047791,13.0396675 27.6565486,13.0396675 C27.8083182,13.0396675 27.9314652,13.1631946 27.9314652,13.3154325 C27.9314652,13.4676705 27.8083182,13.5911976 27.6565486,13.5911976 C27.5047791,13.5911976 27.3816321,13.4676705 27.3816321,13.3154325 L27.3816321,13.3154325 Z M27.6565486,13.5249524 C27.7718767,13.5249524 27.8654238,13.4311166 27.8654238,13.3152925 C27.8654238,13.1996084 27.7718767,13.1057727 27.6565486,13.1057727 C27.5410809,13.1057727 27.4475339,13.1996084 27.4475339,13.3152925 C27.4475339,13.4311166 27.5410809,13.5249524 27.6565486,13.5249524 L27.6565486,13.5249524 Z M27.6192694,13.4362986 L27.5630016,13.4362986 L27.5630016,13.1941463 L27.6650656,13.1941463 C27.6861486,13.1941463 27.7080693,13.1945665 27.7264995,13.206471 C27.7463258,13.2197761 27.757356,13.243165 27.757356,13.2669741 C27.757356,13.2944245 27.7414391,13.3199143 27.7156089,13.329718 L27.7600088,13.4362986 L27.6975976,13.4362986 L27.6607373,13.3406421 L27.6192694,13.3406421 L27.6192694,13.4362986 L27.6192694,13.4362986 Z M27.6192694,13.2990463 L27.6505449,13.2990463 C27.6619939,13.2990463 27.6746995,13.3000267 27.684892,13.2944245 C27.6942467,13.2885423 27.6989938,13.2770579 27.6989938,13.2665539 C27.6989938,13.2574505 27.6932693,13.2466663 27.6853108,13.2420446 C27.6755373,13.2361623 27.6597599,13.2374228 27.6491486,13.2374228 L27.6192694,13.2374228 L27.6192694,13.2990463 L27.6192694,13.2990463 Z" fill="#009DDD" id="copyright"/><g id="circle"><path d="M14.290634,14.8843102 C15.8010693,16.2572532 17.8050699,17.0937919 20.0038438,17.0937919 C24.7042326,17.0937919 28.5148076,13.2714558 28.5148076,8.55655964 C28.5148076,3.84180354 24.7042326,0.0193273628 20.0038438,0.0193273628 C17.8049303,0.0193273628 15.8010693,0.855725991 14.290634,2.22880907 C12.5723008,3.79110423 11.4928799,6.04750381 11.4928799,8.5566997 C11.4928799,11.0660356 12.5723008,13.3222952 14.290634,14.8843102" fill="#2C97DE" id="Shape"/><path d="M17.0425919,7.6526553 C17.0104787,7.34635861 16.9621693,7.04468369 16.8985015,6.74875095 L11.6861173,6.74875095 C11.7522984,6.44091368 11.8349548,6.13923876 11.9333886,5.84470655 L16.6515095,5.84470655 C16.5480492,5.5353287 16.4275551,5.23351372 16.2908648,4.94080221 L12.2955692,4.94080221 C12.441335,4.62862329 12.6060895,4.32708841 12.7869005,4.03675781 L15.8002316,4.03675781 C15.603364,3.72107755 15.3865303,3.41912252 15.1514062,3.13285347 L13.43419,3.13285347 C13.6983557,2.81129097 13.984442,2.50849562 14.2921698,2.22894912 C12.7817345,0.856006098 10.7777339,0.0194674162 8.57882037,0.0194674162 C3.87857121,0.0194674162 0.0678564962,3.84180354 0.0678564962,8.55683975 C0.0678564962,13.2717359 3.87843159,17.093932 8.57882037,17.093932 C10.7777339,17.093932 12.7817345,16.2572532 14.2920302,14.8844503 L14.2920302,14.8844503 L14.2920302,14.8844503 L14.2920302,14.8844503 C14.6000372,14.6044836 14.8871009,14.3022485 15.1512666,13.9804059 L13.43419,13.9804059 C13.1992055,13.6944169 12.9836285,13.3920417 12.7869005,13.0765015 L15.8002316,13.0765015 C15.9810426,12.786311 16.1452386,12.4846361 16.2910044,12.1724571 L12.2955692,12.1724571 C12.1588788,11.8796056 12.0367092,11.5784909 11.9333886,11.2685528 L16.6515095,11.2685528 C16.749664,10.9740206 16.8324601,10.6723457 16.8986411,10.3645084 C16.962309,10.0685756 17.0104787,9.76690072 17.0427315,9.46046399 C17.0738673,9.16341082 17.0899239,8.86187595 17.0899239,8.5566997 L17.0899239,8.5566997 C17.0897842,8.25124333 17.0737277,7.94984851 17.0425919,7.6526553 L17.0425919,7.6526553 Z" fill="#227FBB" id="Shape"/></g><path d="M24.5241196,10.5594627 C24.5241196,10.4072247 24.6472666,10.2838377 24.7991758,10.2838377 C24.9508057,10.2838377 25.0740923,10.4072247 25.0740923,10.5594627 C25.0740923,10.7118407 24.9509454,10.8352277 24.7991758,10.8352277 C24.6472666,10.8350877 24.5241196,10.7117006 24.5241196,10.5594627 L24.5241196,10.5594627 Z M24.7991758,10.7691225 C24.9145039,10.7691225 25.0080509,10.6751467 25.0080509,10.5594627 C25.0080509,10.4436385 24.9146435,10.3498028 24.7991758,10.3498028 C24.6837081,10.3498028 24.590161,10.4436385 24.590161,10.5594627 C24.590161,10.6751467 24.6837081,10.7691225 24.7991758,10.7691225 L24.7991758,10.7691225 Z M24.7618966,10.6803287 L24.7056288,10.6803287 L24.7056288,10.4381764 L24.8075531,10.4381764 C24.8286361,10.4381764 24.8506965,10.4385966 24.8691266,10.4505011 C24.888953,10.4638062 24.8999832,10.4871951 24.8999832,10.5110042 C24.8999832,10.5383146 24.8840662,10.5639444 24.8582361,10.573608 L24.9024964,10.6803287 L24.8400852,10.6803287 L24.8032248,10.5845322 L24.761757,10.5845322 L24.761757,10.6803287 L24.7618966,10.6803287 Z M24.7618966,10.5430764 L24.793172,10.5430764 C24.8046211,10.5430764 24.8173267,10.5440568 24.8275191,10.5383146 C24.8365946,10.5325724 24.841621,10.521088 24.841621,10.510584 C24.841621,10.5012005 24.8358965,10.4906965 24.827938,10.4857946 C24.8181644,10.4800524 24.8023871,10.4814529 24.7919154,10.4814529 L24.7620362,10.4814529 L24.7620362,10.5430764 L24.7618966,10.5430764 Z" fill="#FFFFFF" id="copyright"/></g><polygon fill="#003473" id="i" points="8.57546943 7.37380907 9.91277297 7.37380907 9.1307478 11.0227591 7.79344425 11.0227591"/><path d="M8.05691176,6.59077077 C7.98095716,6.92619855 7.94116477,7.11569074 7.83798381,7.52352611 C7.1983735,7.25126239 6.33983524,7.10910823 5.68151553,7.52170541 C5.06061462,7.91819646 4.85048288,8.53723228 4.89572054,9.22237329 C4.9415167,9.55261909 5.18822951,9.87488186 5.53588934,10.0146551 C6.13849971,10.23762 6.71346483,10.1559689 7.35363363,9.82782393 C7.26273943,10.2405612 7.19390558,10.5645046 7.11460005,10.8600171 C6.34681636,11.0747189 5.61798732,11.1453058 4.85076212,10.8897085 C4.16521604,10.6504973 3.60393391,10.0366435 3.55869625,9.36802877 C3.40301725,8.29493998 3.91850322,7.19201982 4.96008648,6.6879678 C5.92836796,6.25044112 7.03347942,6.32649009 8.05691176,6.59077077 L8.05691176,6.59077077 Z" fill="#003473" id="c"/><path d="M21.1487476,8.57854802 C21.1487476,9.04730659 21.4581509,9.37012957 22.1594743,9.61270198 C22.6970206,9.79883289 22.7802356,9.85359375 22.7802356,10.0219379 C22.7802356,10.2528859 22.5431567,10.3572256 22.0181764,10.3572256 C21.6220676,10.3572256 21.2536041,10.3117083 20.8283142,10.2104497 L20.6465258,11.0661757 L20.7053068,11.0745789 L20.9488083,11.1125333 C21.0267176,11.1240177 21.1424646,11.1348018 21.2953512,11.1448857 C21.6108978,11.1657536 21.8555163,11.1758375 22.0272519,11.1758375 C23.427944,11.1758375 24.0749543,10.7842483 24.0749543,9.93776582 C24.0749543,9.42867187 23.8045057,9.12965796 23.1394841,8.90501239 C22.5830887,8.71720084 22.5187228,8.67546494 22.5187228,8.50249905 C22.5187228,8.30250286 22.7394659,8.1997037 23.1685256,8.1997037 C23.429061,8.1997037 23.7846793,8.22057165 24.1221467,8.25516482 L24.3111954,7.39635766 C23.9673054,7.3563024 23.4462345,7.32366997 23.1431143,7.32366997 C21.6580902,7.32395008 21.1442797,7.89410728 21.1487476,8.57854802 L21.1487476,8.57854802 Z" fill="#003473" id="s"/><path d="M20.1856322,10.0872027 C20.1194511,10.4010623 20.0606701,10.7079192 20.0239494,11.035504 L18.758691,11.035504 L18.8522381,10.4876153 L18.8844908,10.4427982 C18.5022046,10.8471322 18.1051185,11.1191159 17.4068668,11.1191159 C16.6348944,11.1191159 16.2160271,10.5752887 16.2160271,9.86409775 C16.2160271,9.62012481 16.2379479,9.48063167 16.3187892,9.09716559 L16.6717547,7.40280011 L17.9702432,7.40280011 L17.6026174,9.1040282 C17.5658967,9.28525724 17.5145156,9.46662633 17.5145156,9.65485804 C17.5145156,9.87096037 17.7302323,10.0870627 18.0978581,10.0731974 C18.656627,10.0731974 18.930287,9.61312214 19.0257887,9.07615758 L19.4086334,7.40280011 L20.7811218,7.40280011 L20.1856322,10.0872027 L20.1856322,10.0872027 Z" fill="#003473" id="u"/><path d="M16.3169741,7.36134432 L15.8926616,8.37000857 L15.6780619,8.33051353 C15.3204889,8.279254 14.9941913,8.54409489 14.8311123,8.81859947 C14.5201732,9.50556117 14.4196451,10.282017 14.254751,11.0230393 L12.8715117,11.0234594 L12.9353191,10.7715034 C13.1784018,9.64141292 13.4893409,8.50193883 13.6644274,7.37240854 L14.8799802,7.37240854 C14.9091613,7.56176067 14.8213388,7.7427096 14.8024898,7.93262195 C15.0648403,7.69775248 15.3257946,7.22647294 16.3031515,7.35336128 L16.3169741,7.36134432 L16.3169741,7.36134432 Z" fill="#003473" id="r"/><path d="M16.6089246,7.07521532 C15.650696,6.94832698 15.3787115,7.420867 15.1213874,7.65573647 C15.1398175,7.46582412 15.2259646,7.28487519 15.197342,7.09552306 L14.0058042,7.09552306 C13.8340686,8.2249133 13.5292729,9.36452744 13.2907978,10.4946179 L13.2283866,10.7398514 L14.5846788,10.7394312 C14.7465012,9.99840892 14.8447953,9.22881574 15.1497307,8.54185404 C15.309738,8.26734947 15.6294733,8.00250857 15.9799256,8.0537681 L16.1949441,8.09578411 L16.6089246,7.07521532 L16.6089246,7.07521532 Z" fill="#FFFFFF" id="r"/><polygon fill="#FFFFFF" id="i" points="8.90455947 7.09272199 10.207097 7.09272199 9.43275109 10.7418121 8.13021353 10.7418121"/><path d="M8.35277167,6.29483803 C8.2769567,6.63040587 8.23702468,6.819758 8.13384371,7.22773342 C7.49423341,6.95532965 6.63569515,6.8131755 5.97751506,7.22577268 C5.35633491,7.62254383 5.14634279,8.24115949 5.19158045,8.9265806 C5.23751623,9.25668636 5.48422905,9.57894912 5.83174925,9.71872237 C6.43435962,9.94168731 7.00932474,9.8600362 7.64963316,9.5318912 C7.55845972,9.94476848 7.48976549,10.2687119 7.41045996,10.5642245 C6.64267627,10.7789263 5.91384723,10.8497933 5.14634279,10.5939158 C4.4607967,10.3547046 3.90314476,9.73566883 3.85804672,9.06705412 C3.7022281,7.99396532 4.21422351,6.89622713 5.25580677,6.39231517 C6.22422787,5.95464844 7.32947895,6.03055736 8.35277167,6.29483803 L8.35277167,6.29483803 Z" fill="#FFFFFF" id="c"/><path d="M21.4446075,8.28261528 C21.4446075,8.75137386 21.7540108,9.07419684 22.4553342,9.31676925 C22.9928805,9.50290015 23.0762351,9.55766101 23.0762351,9.72600514 C23.0762351,9.95695313 22.8391563,10.0612929 22.314176,10.0612929 C21.9180672,10.0612929 21.5496036,10.0157755 21.1243137,9.91451696 L20.9423857,10.7702429 L21.0013063,10.7786462 L21.2448078,10.8166006 C21.3227172,10.828225 21.4386038,10.8391492 21.5913507,10.8489529 C21.9071766,10.8698209 22.1515158,10.8800448 22.323391,10.8800448 C23.7240832,10.8800448 24.3710935,10.4881755 24.3710935,9.64183308 C24.3710935,9.13273914 24.1005052,8.83386528 23.4354836,8.60907965 C22.8790883,8.4212681 22.8147223,8.3795322 22.8147223,8.20670636 C22.8147223,8.00657012 23.0354654,7.90377096 23.4643855,7.90377096 C23.7250605,7.90377096 24.0806788,7.92463891 24.4181462,7.95923209 L24.607195,7.10042492 C24.2634446,7.06022961 23.7422341,7.02773723 23.4389742,7.02773723 C21.9539501,7.02815739 21.4401396,7.59817454 21.4446075,8.28261528 L21.4446075,8.28261528 Z" fill="#FFFFFF" id="s"/><path d="M20.4814921,9.79141006 C20.415311,10.1051296 20.35653,10.4119865 20.3198093,10.7397113 L19.0921094,10.7397113 L19.1950111,10.1471456 L19.1803507,10.1471456 C18.7982042,10.5514796 18.4012576,10.8234632 17.7027267,10.8234632 C16.9308939,10.8234632 16.5117474,10.2796361 16.5117474,9.56830507 C16.5117474,9.32433213 16.5338078,9.18483899 16.6147888,8.8013729 L16.9676146,7.10700743 L18.2661031,7.10700743 L17.8984773,8.80823552 C17.8617566,8.98946456 17.8102359,9.17083365 17.8102359,9.35906536 C17.8102359,9.57530774 18.0260922,9.79141006 18.3938576,9.77740473 C18.9524869,9.77740473 19.2833921,9.31718941 19.3790334,8.7803649 L19.7539196,7.10700743 L21.0772609,7.10700743 L20.4814921,9.79141006 L20.4814921,9.79141006 Z" fill="#FFFFFF" id="u"/><path d="M13.3477638,7.36078411 L12.9234512,8.36930831 L12.7088516,8.32981326 C12.3512785,8.27855373 12.0252602,8.54339463 11.861902,8.81803925 C11.5509628,9.5048609 11.4507139,10.2813167 11.2856802,11.022339 L9.90244091,11.0227591 L9.96624836,10.7706631 C10.209331,9.6405726 10.5202701,8.50109851 10.6954963,7.37156822 L11.9109094,7.37156822 C11.9400905,7.56092035 11.852268,7.74186928 11.833419,7.93178163 C12.0957695,7.69691216 12.3567238,7.22577268 13.3340808,7.35252096 L13.3477638,7.36078411 L13.3477638,7.36078411 Z" fill="#003473" id="r"/><path d="M13.232296,8.09522389 L13.0172775,8.05306784 C12.6668252,8.00180831 12.3469502,8.2666492 12.1870826,8.54129383 C11.8822868,9.22825553 11.783853,9.99770865 11.6220306,10.7387309 L10.2660177,10.7391511 L10.3284289,10.4939177 C10.5667644,9.36382717 10.8716998,8.22435309 11.0432957,7.09482279 L12.2348334,7.09482279 C12.263456,7.28417492 12.1774486,7.46512386 12.1590185,7.6550362 C12.4160633,7.42016673 12.6881874,6.94776677 13.6465557,7.07451505 L13.232296,8.09522389 L13.232296,8.09522389 Z" fill="#FFFFFF" id="r"/></g></g></g></svg>