<?xml version="1.0" ?><svg height="128px" version="1.1" viewBox="0 0 128 128" width="128px" xmlns="http://www.w3.org/2000/svg" xmlns:sketch="http://www.bohemiancoding.com/sketch/ns" xmlns:xlink="http://www.w3.org/1999/xlink"><title/><defs/><g fill="none" fill-rule="evenodd" id="circle-Copy" stroke="none" stroke-width="1"><g id="dinner_club"><path d="M64,128 C99.3462257,128 128,99.3462257 128,64 C128,28.6537743 99.3462257,0 64,0 C28.6537743,0 0,28.6537743 0,64 C0,99.3462257 28.6537743,128 64,128 Z" fill="#FFFFFF" id="Oval-2"/><g fill="#211E1F" id="text" transform="translate(12.000000, 78.000000)"><path d="M2.12772975,3.54417114 C2.12772975,1.48245856 1.04158453,1.6182284 8.73739222e-05,1.5958307 L8.73739222e-05,1 C0.90265999,1.04410358 1.82794983,1.04410358 2.73235729,1.04410358 C3.70482905,1.04410358 5.02504901,1 6.73923799,1 C12.7348365,1 16,4.96413341 16,9.02330571 C16,11.2933428 14.6580239,17 6.46051518,17 C5.28009349,17 4.19054068,16.9549452 3.10273535,16.9549452 C2.0612382,16.9549452 1.04158453,16.9775158 0,17 L0,16.4050341 C1.388459,16.2665834 2.0612382,16.2208368 2.12764238,14.6616456 L2.12764238,3.54417114 L2.12772975,3.54417114 L2.12772975,3.54417114 Z M4,14.1012854 L4,14.1012854 C4,15.8017139 5.26710412,16 6.39438387,16 C11.3672682,16 13,12.4000238 13,9.10914068 C13,4.98095692 10.237383,2 5.79609187,2 C4.85119174,2 4.41695455,2.06498453 4.00008685,2.08839562 L4,14.1012854 L4,14.1012854 Z" id="Shape"/><path d="M16,16.4312835 L16.442673,16.4312835 C17.0961006,16.4312835 17.5644345,16.4312835 17.5644345,15.707305 L17.5644345,9.77919934 C17.5644345,8.81766405 17.2142643,8.68386298 16.3492884,8.24886504 L16.3492884,7.89806026 C17.4471526,7.58935204 18.7576233,7.17664053 18.8492443,7.11060669 C19.0141444,7.02311184 19.1534717,7 19.2707536,7 C19.38636,7 19.4347719,7.13206768 19.4347719,7.30788279 L19.4347719,15.707305 C19.4347719,16.4312835 19.9488722,16.4312835 20.6031816,16.4312835 L21,16.4312835 L21,17 C20.2045114,17 19.3862718,16.9563351 18.5467805,16.9563351 C17.7055255,16.9563351 16.8633887,16.9777961 16.0000882,17 L16.0000882,16.4312835 L16,16.4312835 L16,16.4312835 Z M17.9995764,3 L17.9995764,3 C17.4682506,3 17,2.51084615 17,1.98076923 C17,1.47 17.4898148,1 17.9995764,1 C18.5286688,1 19,1.43007692 19,1.98076923 C19,2.53153846 18.5495398,3 17.9995764,3 L17.9995764,3 Z" id="Shape"/><path d="M23.4461522,9.90961618 C23.4461522,9.10070161 23.2038316,8.88278993 22.1762632,8.46677672 L22.1762632,8.05167148 C23.1179322,7.74543954 24.0150393,7.46066859 25.0673276,7.00008254 C25.1327235,7.00008254 25.1971274,7.04465539 25.1971274,7.21881965 L25.1971274,8.64176641 C26.4480838,7.74543954 27.5220329,7 28.9919129,7 C30.8521018,7 31.5092859,8.35691292 31.5092859,10.0630623 L31.5092859,15.7073875 C31.5092859,16.4312835 31.9912815,16.4312835 32.6055573,16.4312835 L33,16.4312835 L33,17 C32.2310392,17 31.4647241,16.9563351 30.6776574,16.9563351 C29.8880279,16.9563351 29.0983984,16.9777961 28.3105877,17 L28.3105877,16.4312835 L28.704121,16.4312835 C29.3191408,16.4312835 29.7550037,16.4312835 29.7550037,15.7073875 L29.7550037,10.0424267 C29.7550037,8.7935617 28.9919129,8.18192324 27.7409565,8.18192324 C27.0407814,8.18192324 25.9229318,8.75072225 25.1970447,9.23268675 L25.1970447,15.7072225 C25.1970447,16.431201 25.6814379,16.431201 26.295879,16.431201 L26.6894123,16.431201 L26.6894123,16.9999175 C25.9229318,16.9999175 25.1548805,16.95617 24.366243,16.95617 C23.578267,16.95617 22.787976,16.9777136 22,16.9999175 L22,16.431201 L22.3951868,16.431201 C23.0086358,16.431201 23.4459869,16.431201 23.4459869,15.7072225 L23.4459869,9.90961618 L23.4461522,9.90961618 L23.4461522,9.90961618 Z" id="Shape"/><path d="M34.915766,11.2190697 C34.8660023,11.4292759 34.8660023,11.7782129 34.915766,12.5712116 C35.0567481,14.7840473 36.5206671,16.6013507 38.4325496,16.6013507 C39.7502484,16.6013507 40.781648,15.9024217 41.6659241,15.0408488 L42,15.3678948 C40.8982449,16.7886109 39.5343047,18 37.5727489,18 C33.7659632,18 33,14.410406 33,12.9203245 C33,8.35214194 36.1592257,7 37.8336695,7 C39.77364,7 41.857302,8.18782769 41.8798808,10.6581682 C41.8798808,10.7997123 41.8798808,10.9377398 41.857302,11.0792839 L41.6405455,11.2190697 L34.915766,11.2190697 L34.915766,11.2190697 Z M39.3095363,10 L39.3095363,10 C39.9269459,10 40,9.77749831 40,9.57305472 C40,8.70104157 39.2329323,8 37.8456523,8 C36.3369269,8 35.2970741,8.76811454 35,10 L39.3095363,10 L39.3095363,10 Z" id="Shape"/><path d="M42,16.4312882 L42.5546088,16.4312882 C43.127653,16.4312882 43.5382649,16.4312882 43.5382649,15.7073157 L43.5382649,9.5604411 C43.5382649,8.88277439 42.7800155,8.75070779 42.4709527,8.57571956 L42.4709527,8.24885474 C43.9697909,7.56953719 44.7915569,7 44.9782339,7 C45.0998451,7 45.1602634,7.0660333 45.1602634,7.28559401 L45.1602634,9.25421169 L45.203718,9.25421169 C45.7156468,8.40155673 46.5793958,7 47.8303641,7 C48.343842,7 49,7.3714373 49,8.15970978 C49,8.75070779 48.6111541,9.27732334 48.0364833,9.27732334 C47.3974438,9.27732334 47.3974438,8.75070779 46.6801704,8.75070779 C46.3308288,8.75070779 45.1821069,9.25421169 45.1821069,10.5674489 L45.1821069,15.7073157 C45.1821069,16.4312057 45.5917893,16.4312057 46.1673122,16.4312057 L47.3160341,16.4312057 L47.3160341,17 C46.186677,16.9776312 45.327653,16.9562529 44.4430674,16.9562529 C43.6019365,16.9562529 42.738962,16.9777138 42.0000775,17 L42.0000775,16.4312882 L42,16.4312882 L42,16.4312882 Z" id="Shape"/><path d="M50.4140418,14.4102589 C50.7129036,15.9487696 51.6300136,17.2543937 53.3065322,17.2543937 C54.6575158,17.2543937 55.163182,16.4156856 55.163182,15.5998354 C55.163182,12.8498573 50.1610788,13.7351604 50.1610788,9.98383165 C50.1610788,8.67829541 51.1950142,7 53.7186688,7 C54.4522702,7 55.4384882,7.21099576 56.3330818,7.67782387 L56.4959792,10.0524932 L55.9669306,10.0524932 C55.738216,8.58598477 54.9355066,7.7464854 53.4649264,7.7464854 C52.5469504,7.7464854 51.6757392,8.2828542 51.6757392,9.28411697 C51.6757392,12.0129954 57,11.1716498 57,14.8297888 C57,16.3674203 55.7831622,18 53.0518372,18 C52.1338612,18 51.0555858,17.6738357 50.2528764,17.2087659 L50,14.5283286 L50.4140418,14.4102589 L50.4140418,14.4102589 Z" id="Shape"/><path d="M76.977297,5.57790559 L76.4193428,5.57790559 C75.994062,2.84719416 74.1373093,1.74874346 71.633225,1.74874346 C69.0590906,1.74874346 65.3236416,3.54563967 65.3236416,9.14897145 C65.3236416,13.8686979 68.5467112,17.2529302 71.9902279,17.2529302 C74.2038992,17.2529302 76.0395525,15.6655941 76.4868611,13.2133271 L77,13.3525053 L76.4868611,16.7614021 C75.5474286,17.3700865 73.0197973,18 71.5419909,18 C66.3093242,18 63,14.4739468 63,9.2203223 C63,4.43364941 67.0924518,1 71.4760762,1 C73.2873385,1 75.0318421,1.60956526 76.7544023,2.24027152 L76.977297,5.57790559 L76.977297,5.57790559 Z" id="Shape"/><path d="M78.0001764,16.4216688 L78.4429196,16.4216688 C79.0982149,16.4216688 79.5674169,16.4216688 79.5674169,15.6854506 L79.5674169,3.29464131 C79.5674169,1.8475542 79.2163974,1.80298325 78.3272949,1.55872434 L78.3272949,1.20282821 C79.262171,0.914166226 80.243791,0.51285976 80.7351302,0.245182219 C80.989928,0.112560546 81.1786672,0 81.24746,0 C81.3904255,0 81.4370811,0.134384366 81.4370811,0.313087873 L81.4370811,15.6854506 C81.4370811,16.4216688 81.950381,16.4216688 82.6056763,16.4216688 L83,16.4216688 L83,17 C82.2087949,17 81.3904255,16.955513 80.5480667,16.955513 C79.7076483,16.955513 78.8661716,16.9774207 78,17 L78,16.4216688 L78.0001764,16.4216688 L78.0001764,16.4216688 Z" id="Shape"/><path d="M92.4929592,15.4669743 C92.4929592,15.8624074 92.7356389,15.8838714 93.1122108,15.8838714 C93.3790748,15.8838714 93.7105417,15.8624074 94,15.8624074 L94,16.3230581 C93.0453484,16.4097397 91.2268408,16.8695649 90.8049966,17 L90.6936987,16.9338743 L90.6936987,15.163176 C89.364902,16.2346429 88.3430532,17 86.767309,17 C85.569894,17 84.3281273,16.2346429 84.3281273,14.3978189 L84.3281273,8.79406107 C84.3281273,8.22526479 84.2401768,7.67784997 83,7.56896139 L83,7.1528898 C83.7992529,7.13142579 85.5699777,7.00008255 85.859436,7.00008255 C86.1055466,7.00008255 86.1055466,7.1528898 86.1055466,7.63417896 L86.1055466,13.2783057 C86.1055466,13.9363427 86.1055466,15.8176632 88.0335111,15.8176632 C88.7874917,15.8176632 89.7849889,15.2488669 90.7156235,14.4852435 L90.7156235,8.59584919 C90.7156235,8.15996467 89.6519334,7.91973286 88.8553584,7.70005696 L88.8553584,7.30627492 C90.848679,7.1741887 92.0929562,7 92.3131252,7 C92.4928756,7 92.4928756,7.15272469 92.4928756,7.39460758 L92.4928756,15.4669743 L92.4929592,15.4669743 L92.4929592,15.4669743 Z" id="Shape"/><path d="M97.1273623,8.75776271 C98.0665554,7.97230024 99.335486,7.09374334 100.629426,7.09374334 C103.356545,7.09374334 105,9.42982082 105,11.946247 C105,14.9727748 102.744695,18 99.3815144,18 C97.6432534,18 96.7271188,17.4447458 96.11518,17.1918741 L95.4110955,17.7218499 L94.9189725,17.4691525 C95.1273865,16.1058596 95.247025,14.76523 95.247025,13.3566102 L95.247025,3.42130751 C95.247025,1.91863438 94.8922778,1.87234867 94,1.61869249 L94,1.24910412 C94.9428293,0.949336562 95.927164,0.532590799 96.4212381,0.254527845 C96.6802035,0.116803874 96.8672439,0 96.9400558,0 C97.0801809,0 97.1270962,0.139554479 97.1270962,0.325133172 L97.1270962,8.75767554 L97.1273623,8.75767554 L97.1273623,8.75776271 Z M97.0000888,14.656444 L97.0000888,14.656444 C97.0000888,15.5294316 97.8462461,17 99.4233006,17 C101.941526,17 103,14.5880253 103,12.5442123 C103,10.0655511 101.072282,8 99.2359366,8 C98.3630511,8 97.6348177,8.55167967 97,9.0807552 L97,14.656444 L97.0000888,14.656444 L97.0000888,14.656444 Z" id="Shape"/></g><g id="logo" transform="translate(33.000000, 24.000000)"><path d="M36.9075404,49.9997146 C50.5489413,50.0650912 63,38.8548381 63,25.2171188 C63,10.303514 50.5489413,-0.00495849963 36.9075404,1.7893333e-06 L25.1675181,1.7893333e-06 C11.3627175,-0.00495849963 0,10.3065894 0,25.2171188 C0,38.8578143 11.3627175,50.0651904 25.1675181,49.9997146 L36.9075404,49.9997146 L36.9075404,49.9997146 Z" fill="#4186CD" id="Shape"/><path d="M24.9980555,2 C12.2959252,2.00398778 2.00299155,12.2974361 2,25.0015951 C2.00299155,37.7035608 12.2958255,47.9960122 24.9980555,48 C37.7031773,47.9960122 47.9982051,37.7035608 48,25.0015951 C47.9981054,12.2974361 37.7031773,2.00398778 24.9980555,2 L24.9980555,2 Z M11,24.5015829 L11,24.5015829 C11.0115077,18.3409805 14.7409696,13.0876003 20,11 L20,38 C14.7409696,35.9135869 11.0114118,30.6630757 11,24.5015829 L11,24.5015829 Z M30,38 L30,38 L30,11 C35.2575871,13.0820283 38.9904164,18.3370479 39,24.4990604 C38.9904164,30.6629521 35.2575871,35.9140154 30,38 L30,38 Z" fill="#FFFFFF" id="Shape"/></g></g></g></svg>