<?xml version="1.0" ?><svg height="121px" version="1.1" viewBox="0 0 121 121" width="121px" xmlns="http://www.w3.org/2000/svg" xmlns:sketch="http://www.bohemiancoding.com/sketch/ns" xmlns:xlink="http://www.w3.org/1999/xlink"><title/><defs/><g fill="none" fill-rule="evenodd" id="circle" stroke="none" stroke-width="1"><g id="skrill" transform="translate(10.000000, 10.000000)"><circle cx="50" cy="50" d="M50,100 C77.6142389,100 100,77.6142389 100,50 C100,22.3857611 77.6142389,0 50,0 C22.3857611,0 0,22.3857611 0,50 C0,77.6142389 22.3857611,100 50,100 Z M50,100" fill="#6A3494" id="Oval-2" r="50"/><path d="M69.9289639,57.7453593 C71.9466248,57.7453593 73.5820251,59.3487899 73.5820251,61.3264186 C73.5820251,63.3044322 71.9466248,64.9094027 69.9289639,64.9094027 C67.9136578,64.9094027 66.2790424,63.3044322 66.2790424,61.3264186 C66.2790424,59.3487899 67.9136578,57.7453593 69.9289639,57.7453593 C69.9289639,57.7453593 67.9136578,57.7453593 69.9289639,57.7453593 L69.9289639,57.7453593 L69.9289639,57.7453593 Z M41.9509419,55.812003 C41.7864992,55.4054669 40.6000785,52.1181454 37.7307692,48.7110958 L37.7307692,63.2794087 L30.0855573,61.7968609 L30.0855573,35.3912646 L37.7307692,35.3912646 L37.7307692,43.5535543 C39.9450549,40.295876 41.0384615,35.3912646 41.0384615,35.3912646 L50.1958399,35.3912646 C49.2900314,39.0847372 45.327708,45.8961415 45.327708,45.8961415 C48.8838305,50.3187612 50.4458399,55.030884 50.69427,55.812003 L41.9509419,55.812003 L41.9509419,55.812003 L41.9509419,55.812003 L41.9509419,55.812003 Z M62.0502355,56.0872618 C55.2025118,55.8716745 51.7264521,52.8580718 51.7264521,46.8674393 L51.7264521,35.3912646 L59.1970173,35.3912646 L59.1970173,44.7496789 C59.1970173,48.3372828 59.6758242,49.8748824 64.0153061,50.0211738 L64.0153061,55.982163 C63.2849294,56.1342291 62.0502355,56.0872618 62.0502355,56.0872618 L62.0502355,56.0872618 L62.0502355,56.0872618 L62.0502355,56.0872618 Z M17.2637363,52.9042691 C16.3273155,52.9647106 14.1593407,53.1017625 14.1593407,55.0162548 C14.1593407,57.3265039 17.2806122,57.3265039 18.4513344,57.3265039 C20.5098116,57.3265039 23.1758242,56.730174 25.0796703,56.1715719 C25.0796703,56.1715719 26.1416797,55.8043035 27.0451334,55.4277956 L27.1295133,55.4054669 L27.1295133,61.7325697 L27.0141287,61.7660627 C24.7672684,62.5371723 22.1546311,63.2794087 17.310832,63.2794087 C8.95918367,63.2794087 6,58.5068445 6,54.418 C6,52.0611687 7.02943485,46.5144151 16.594584,45.8745827 C17.405416,45.8256906 19.5569074,45.7044227 19.5569074,43.7256392 C19.5569074,42.0921803 17.7955259,41.128967 14.8324176,41.128967 C11.5851648,41.128967 8.43524333,41.9412692 6.52197802,42.7116088 L6.52197802,36.1950973 C9.38618524,35.4586356 12.6149922,35.0905973 16.3991366,35.0905973 C24.5651491,35.0905973 28.2225275,39.6063815 28.2225275,44.0817432 C28.2225275,49.1561297 24.1299058,52.4526907 17.2637363,52.9042691 C17.2637363,52.9042691 24.1299058,52.4526907 17.2637363,52.9042691 L17.2637363,52.9042691 L17.2637363,52.9042691 Z M66.2256672,35.3912646 L73.6357928,35.3912646 L73.6357928,55.7889044 L66.2256672,55.7889044 L66.2256672,35.3912646 L66.2256672,35.3912646 L66.2256672,35.3912646 L66.2256672,35.3912646 Z M87.588697,61.9789552 L87.588697,35.3912646 L95,35.3912646 L95,63.2794087 L87.588697,61.9789552 L87.588697,61.9789552 L87.588697,61.9789552 L87.588697,61.9789552 Z M76.7747253,61.9789552 L84.1789639,63.2794087 L84.1789639,35.3912646 L76.7747253,35.3912646 L76.7747253,61.9789552 L76.7747253,61.9789552 Z M76.7747253,61.9789552" fill="#FFFFFF" transform="translate(50.500000, 50.000000) scale(1, -1) translate(-50.500000, -50.000000) "/></g></g></svg>