<?xml version="1.0" ?><svg height="121px" version="1.1" viewBox="0 0 121 121" width="121px" xmlns="http://www.w3.org/2000/svg" xmlns:sketch="http://www.bohemiancoding.com/sketch/ns" xmlns:xlink="http://www.w3.org/1999/xlink"><title/><defs/><g fill="none" fill-rule="evenodd" id="circle" stroke="none" stroke-width="1"><g id="solo" transform="translate(10.000000, 10.000000)"><circle cx="50" cy="50" d="M50,100 C77.6142389,100 100,77.6142389 100,50 C100,22.3857611 77.6142389,0 50,0 C22.3857611,0 0,22.3857611 0,50 C0,77.6142389 22.3857611,100 50,100 Z M50,100" fill="#FFFFFF" id="Oval-2" r="50"/><circle cx="50" cy="50" d="M50,97 C75.9573845,97 97,75.9573845 97,50 C97,24.0426155 75.9573845,3 50,3 C24.0426155,3 3,24.0426155 3,50 C3,75.9573845 24.0426155,97 50,97 Z M50,97" fill="#6A3494" id="Oval-2" r="47"/><g id="Oval-16-+-Oval-16" transform="translate(50.000000, 50.000000) rotate(-45.000000) translate(-50.000000, -50.000000) translate(17.000000, 27.000000)"><path d="M66,23 C66,10.2974501 55.4786923,0 42.5,0 C29.5213077,0 19,10.2974501 19,23 L26,23 C26,14.1634436 33.3873012,7 42.5,7 C51.6126988,7 59,14.1634436 59,23 L66,23 Z M66,23" fill="#1C1C1C" id="Oval-16"/><path d="M47,23 C47,10.2974501 36.4786923,0 23.5,0 C10.5213077,0 0,10.2974501 0,23 L7,23 C7,14.1634436 14.3873012,7 23.5,7 C32.6126988,7 40,14.1634436 40,23 L47,23 Z M47,23" fill="#FFFFFF" id="Oval-16" transform="translate(23.500000, 23.000000) scale(1, -1) translate(-23.500000, -23.000000) "/></g></g></g></svg>