<?xml version="1.0" ?><svg height="64" viewBox="0 0 64 64" width="64" xmlns="http://www.w3.org/2000/svg"><path d="m63 27.79c-.33-7.46-4.81-16.22-9.65-20s-11.02-7.26-23.99-5.79-15.36 3.81-20.95 8.45-6.7 9.78-7.19 14.22-.34 11.01 2.65 16.33a26.42 26.42 0 0 0 8.62 8.59s-.63 6.2.43 8.65 4.61 4 5.47 4.11 10-5.4 10-5.4.6.43 4.61.66 14-.93 20.29-7.39 10.02-14.98 9.71-22.43zm-4.5 10.6c-3.88 7.93-11 13.7-16.54 14.46s-14.39.66-14.89.76-9 4.68-10.41 4.64-1.88-1-2.12-3.15.1-6.23-.1-6.66c0 0-4.8-2-8.72-9.12s-2.65-14.98-1.82-18.32 5.57-10.25 12-13.46 16.7-3.95 23.67-3.19 13.26 3.52 17.2 11.21 5.61 14.91 1.73 22.83zm-40.11-28.54c-.23-.2-2.92.17-6.47 3s-4.57 6.07-4.37 6.35a2 2 0 0 0 1.62.36c.4-.2.4-2.55 3.42-5.1a16.73 16.73 0 0 1 5.87-3.18 1.83 1.83 0 0 0 -.07-1.43zm21.32 27.88c1.55.47 2.38.3 4.17-.93s7.12-10.61 8.12-12.8 1.59-4 1-4.74-2.56-.34-3.42.06-9.94 7.46-10.34 7.53-10.68-7.4-11-7.66a2 2 0 0 0 -1.79.2c-.43.3-12.52 13.93-12.86 14.52-1.07 1.82 1.62 3.08 3.18 2.75s11.17-5.6 12-5.8 9.38 6.41 10.94 6.87zm-22.15-4.21c-.29-.11 10.61-10 11-9.88s10.84 6.57 11.77 6.47 8.75-6.73 9.15-6.63-5.57 9.31-6.27 10.7-1.39 2.09-3.71 1-7.75-5.7-9.11-6.18-2.82-.7-5.14.79-6.99 4-7.69 3.73zm5.07 14.48a52 52 0 0 0 3.22 5 1.62 1.62 0 0 0 1.15-.61c.1-.3-2.85-4.91-3-5s-1.37.61-1.37.61zm5-1c-.3-.1-1.56.22-1.59.43a39.87 39.87 0 0 0 3.51 4.74.9.9 0 0 0 1.1-.4 25 25 0 0 0 -3.01-4.72zm2.25.36a44.58 44.58 0 0 0 3.68 4.71.89.89 0 0 0 .86-.23 40.94 40.94 0 0 0 -3.1-4.84c-.17 0-1.43.22-1.43.41zm3.52-.66a56 56 0 0 0 3.81 5.44 1.3 1.3 0 0 0 1.09-.1c.2-.17-3.31-5.57-3.44-5.67a5.82 5.82 0 0 0 -1.45.38zm3.38-.5a41.32 41.32 0 0 0 3.85 4.8.56.56 0 0 0 .73-.43 47 47 0 0 0 -3.08-4.71c-.17-.17-1.49.39-1.49.39zm5.1-1c-.29-.17-1.64.45-1.65.56a38.55 38.55 0 0 0 3.77 4.54c.23.16.66-.14.86-.5s-2.67-4.34-2.97-4.51zm3.12-1.3c-.36-.2-1.42.56-1.42.56a34.79 34.79 0 0 0 3.58 4.11c.23.07.6-.23.76-.49s-2.51-3.98-2.92-4.18zm2.72-2c-.26-.1-1.49.86-1.49.86a43.28 43.28 0 0 0 3.77 3.72c.24.07.63-.29.73-.53a22.28 22.28 0 0 0 -2.97-4.04zm2.42-1.82c-.26-.1-1.23.63-1.16.82a34.66 34.66 0 0 0 3.15 3.15c.13 0 .63-.39.76-.63s-2.44-3.24-2.71-3.33zm2-1.79c-.16-.07-.8.54-.73.69a40 40 0 0 0 3.09 2.82c.23.13.59-.46.63-.7a21.56 21.56 0 0 0 -2.96-2.8zm2-2.72c-.2 0-.83.86-.83 1 0 .37 2.29 2 2.46 2s.29-.33.43-.73-1.84-2.26-2.04-2.26z" fill="#1d1d1b"/></svg>