<?xml version="1.0" ?><!DOCTYPE svg  PUBLIC '-//W3C//DTD SVG 1.1//EN'  'http://www.w3.org/Graphics/SVG/1.1/DTD/svg11.dtd'><svg id="Layer_1" style="enable-background:new 0 0 47 56;" version="1.1" viewBox="0 0 47 56" xml:space="preserve" xmlns="http://www.w3.org/2000/svg" xmlns:xlink="http://www.w3.org/1999/xlink"><path d="M22.895,18.794c-1.08-0.384-9.529-2.305-14.611,2.113S3.329,30.575,3.71,34.224  s1.969,9.54,10.101,10.692s9.148-1.152,11.244-1.345s3.621,1.473,3.939,1.857c0.318,0.384,0.508,0.704,2.287-0.256  c1.779-0.96,7.242-5.634,7.687-6.146c0.445-0.512,0.254-0.576,0.191-1.665c-0.064-1.088-0.318-0.896-1.842-2.369  c-1.525-1.473-1.461-2.753-1.969-5.058c-0.508-2.305-0.381-14.213-0.953-17.927C33.821,8.294,32.297,1.06,24.292,0.163  S12.413,2.212,9.681,5.285s-3.748,7.619-3.748,7.619l0.699,2.369c1.207,0.576,9.084,2.177,9.084,2.177s0.445-3.777,1.842-4.738  c1.398-0.96,4.066-1.665,6.48,0.512s1.143,6.595,1.143,6.595S23.975,19.179,22.895,18.794z M24.165,10.983  c-3.367-1.921-6.289-1.729-8.195-0.256s-1.969,4.034-2.478,3.97c-0.508-0.064-6.035-2.049-6.48-2.369c0,0,2.478-5.762,5.336-8.067  s5.781-3.841,12.388-2.689s8.131,6.723,8.322,8.835s0.762,9.924,0.762,9.924s-1.525-2.817-1.715-2.753  c-0.191,0.064-0.318,0.832-0.318,0.832l1.969,3.073l0.064,1.793l-1.969-2.369c0,0-0.508,0.832-0.191,1.024  c0.318,0.192,2.16,2.625,2.223,2.881s0.191,3.073,0.191,3.073l-2.16-2.689c0,0-0.318,0.704-0.191,1.088  c0.127,0.384,2.414,2.625,2.414,2.817s1.143,4.034,0.762,3.905c-0.381-0.128-2.414-3.201-2.414-3.201s-0.508,0.768-0.318,0.96  c0.191,0.192,2.859,3.649,3.113,3.905c0.254,0.256,2.414,2.305,2.414,2.305s-0.318,1.152-0.699,1.024  c-0.381-0.128-2.541-3.329-2.732-3.201c-0.191,0.128-0.508,0.576-0.064,0.96c0.445,0.384,2.16,2.561,2.096,2.753  c-0.064,0.192-1.207,0.704-1.207,0.704s-3.049-3.649-3.24-3.585c-0.191,0.064-0.699,0.384-0.508,0.576  c0.191,0.192,2.922,3.329,2.922,3.329l-0.889,0.768c0,0-2.223-2.817-2.414-2.817c-0.191,0-0.699,0.32-0.572,0.512  c0.127,0.192,2.223,2.817,2.223,2.817s-0.699,0.832-1.016,0.64c-0.318-0.192-2.414-2.753-2.414-2.753s-0.635,0.256-0.381,0.512  c0.254,0.256,2.478,2.689,2.287,2.689c-0.191,0-1.143,0.384-1.271,0.192c-0.127-0.192-3.113-3.009-3.494-3.009  s-1.08,0.768-3.24,1.473c-2.16,0.704-8.64,2.881-13.976,0.704S4.79,30.191,5.362,27.118s4.828-7.811,10.926-8.131  c6.098-0.32,8.767,1.729,9.402,1.729c0.635,0,0.699,0.512,0.762-0.576C26.516,19.051,27.532,12.904,24.165,10.983z M10.825,11.047  c-0.254-0.064,1.207-2.945,1.461-3.073c0.254-0.128-0.381-0.64-0.699-0.64s-2.717,3.887-2.478,4.098  c0.508,0.448,2.668,1.28,3.176,1.28s0.191-0.576,0.191-0.768S11.079,11.111,10.825,11.047z M9.935,38.322  c-1.143-0.832-1.652-3.521-1.652-3.521c-1.207,0.128-1.016,1.088-1.016,1.345c0,0.256,0.572,2.433,1.398,3.265  s3.748,1.665,4.129,1.537c0.381-0.128,0.445-0.832,0.318-1.216C12.985,39.346,11.079,39.154,9.935,38.322z M27.469,32.047  c0.445,0,0.762-4.738,0.635-5.058c-0.127-0.32-0.889,0.192-0.889,0.192c-0.191,0.704-0.381,4.61-0.191,4.866  C27.214,32.304,27.024,32.047,27.469,32.047z M11.587,27.95c-0.318,2.113-1.08,6.979,4.193,8.003  c5.273,1.024,8.512-1.601,9.338-4.098c0.826-2.497,0.909-6.706,0.508-6.851C15.716,21.419,11.905,25.837,11.587,27.95z   M22.387,33.84c-2.668,1.665-6.861,1.152-8.385-0.32s-0.332-5.328,2.668-5.89c2.732-0.512,4.51-0.896,7.56,0.96  C24.229,28.59,25.055,32.176,22.387,33.84z M32.868,49.206c-2.732,0.768-8.449,1.088-15.881,0.512  c-7.433-0.576-16.263-5.634-16.263-5.634c-2.223,1.345,0.826,4.482,7.051,8.451s13.15,3.713,19.502,3.137  c6.353-0.576,10.736-4.93,10.863-5.57c0.127-0.64,0.064-2.177-0.318-2.369C37.442,47.541,35.6,48.438,32.868,49.206z M31.026,52.151  c-4.066,1.024-7.242,2.497-16.644,0.384s-11.879-5.826-11.498-6.21c0.135-0.136,8.068,5.058,18.486,4.866s13.34-1.216,13.34-1.216  S35.092,51.127,31.026,52.151z M46.653,44.916c-0.572-0.768-7.814-2.817-8.449-2.881c-0.635-0.064-1.08,0.768-1.334,1.857  c-0.254,1.088,0.572,1.473,0.953,1.729c0.381,0.256,2.393,2.035,2.287,2.945c-0.127,1.088-1.461,4.546-1.652,4.93  s0.254,1.088,0.572,1.345c0.318,0.256,1.271,0.768,3.494-0.512c2.223-1.28,2.795-2.689,3.684-4.418  C47.098,48.182,47.225,45.685,46.653,44.916z M43.731,50.422c-1.207,1.473-2.541,2.305-2.732,2.305s1.143-4.098,1.016-4.866  c-0.127-0.768-2.859-3.585-3.43-3.713c0,0-0.254-0.832,1.016-0.576c1.271,0.256,5.654,1.921,5.781,2.561S44.938,48.95,43.731,50.422  z" style="fill:#232021;"/></svg>