<?xml version="1.0" ?><svg enable-background="new 0 0 64 64" viewBox="0 0 64 64" xmlns="http://www.w3.org/2000/svg"><path d="M51.984 42.474c0-2.82-.874-3.06-1.48-3.263-.604-.202-10.888-.17-11.056-.17-.168 0 3.125-6.116 6.755-11.25s4.37-7.137 4.705-9.754c.336-2.617-.302-14.242-.47-15.873-.17-1.632-1.38-1.53-3.026-1.97-1.647-.443-4.67-.035-5.58.373s-3.158 4.283-4.47 6.288-4.166 6.9-4.906 7.376c-.74.475-9.68.543-13.04.373-3.36-.17-5.31.068-6.755.918-1.443.85-1.174 3.81-1.107 4.25.067.443.773 8.43.94 8.94.17.51 1.396 2.614 1.984 2.923.84.442 8.738-.068 9.007.17.27.238-2.218 3.433-3.764 5.948-1.547 2.516-8.504 12.883-8.705 13.597-.202.714 1.48 11.76 2.05 12.372s10.015.067 10.687-.137c.672-.204 5.78-8.735 6.184-9.075.403-.34 17.745-.272 18.518-.238s3.025-3.094 3.327-3.57c.306-.476.205-5.404.205-8.226zm-1.277 8.056c-.336.068-.57.34-.706.034-.132-.306-5.342-7.138-5.913-7.206-.57-.068-1.11.51-.874.816.235.306 5.747 6.322 5.444 6.356-.302.034-1.008.136-1.176 0-.167-.136-4.637-5.982-5.006-6.016-.37-.034-1.075.068-.672.612s4.605 5.37 4.303 5.37c-.302 0-1.445.136-1.68 0-.235-.136-3.798-5.2-4.37-5.234-.57-.034-1.007.238-.57.816s4.403 4.52 4.033 4.52-1.816.102-2.018-.034c-.202-.136-2.588-3.535-3.294-3.5s-1.143.475-.807.747c.335.274 2.89 2.653 2.654 2.687-.235.034-1.412.17-1.78 0s-1.547-2.345-2.118-2.413c-.57-.068-.74.476-.57.714.167.238 1.747 1.767 1.41 1.767-.335 0-1.007.068-1.175-.034-.17-.1-1.412-1.834-1.613-1.834-.202 0-.27.884-.067 1.054.2.17.94.78.57.815s-6.117-.034-6.486.034c-.37.066-4.57 6.524-5.948 8.495-1.378 1.97-1.546 2.175-1.882 2.243-.336.067-6.217.645-6.654.17-.437-.477-1.647-9.382-1.412-9.824.235-.442 9.04-14.31 11.426-17.64s3.462-4.42 3.36-5.303c-.1-.883-.906-.577-1.444-.577-.538 0-9.948 1.496-11.158.918-.317-.15-.74-2.174-1.143-5.505-.405-3.33-.708-6.118.4-6.73 1.11-.612 2.858-.748 6.756-.918 3.898-.17 11.426-.205 12.3-.205s1.95-1.462 2.823-2.957 4.402-7.07 5.006-8.192c.605-1.122 1.647-2.447 2.32-2.685.67-.237 4.47-.237 5.208.035.74.272.874.34.874.884s.133 2.514-.102 2.276-.504-1.02-.84-.714-.64.645-.27 1.053c.37.408 1.21 1.462 1.38 1.937.167.476.37 1.97.1 1.564-.27-.408-1.613-2.787-1.916-2.65-.302.135-.874.543-.538 1.12.336.58 2.386 3.332 2.453 3.57s.067 2.787-.1 2.515c-.17-.273-2.387-4.658-2.69-4.658-.302 0-.874.476-.64.85.236.374 3.126 4.69 2.958 5.268-.168.578-.27 1.937-.504 1.632-.235-.306-2.084-4.86-2.554-4.86s-1.21.407-.84.985c.37.578 2.957 4.385 2.823 4.827-.135.442-.17 1.36-.505.986s-2.823-4.657-3.092-4.657c-.27 0-1.008.442-.773.714.236.272 3.53 4.725 3.43 5.098s-.54 1.462-.707 1.19c-.168-.272-2.99-4.76-3.428-4.69-.437.067-.706.475-.605.713.1.24 3.462 4.658 3.428 5.065-.034.408-.706 1.903-.874 1.598-.168-.305-2.957-4.112-3.394-4.08s-.57.51-.403.886c.168.374 3.36 3.773 3.294 4.215s-.3 1.836-.77 1.666-3.227-4.215-3.496-4.215c-.27 0-.773.477-.672.783s3.698 4.08 3.597 4.453c-.1.374-.606 1.632-.908 1.258-.302-.374-3.16-3.91-3.428-3.91-.27 0-.706.68-.37 1.09.336.407 3.193 3.568 3.092 4.044-.1.476-.47 1.87-.807 1.36-.337-.51-2.185-3.33-2.656-3.33s-.706.85-.437 1.257c.27.408 2.52 2.72 2.453 3.025-.067.306-.336 1.224-.538 1.02-.202-.204-2.084-3.16-2.588-3.127-.504.034-.773.272-.47.544.3.27 2.89 3.296 2.755 3.398-.135.102-.505 1.326-.84 1.088-.337-.238-1.85-2.277-2.32-2.21-.47.07-.504.58-.1 1.09.402.51 1.747 2.174 1.646 2.378s-2.588 3.74-2.184 4.08 1.68.1 4.134.136c2.453.033 8.47.1 9.31.1s1.545-.033 1.646.477c.1.51.37 5.948.202 5.778-.168-.17-3.73-4.554-4.134-4.554s-.807.34-.57.748c.234.408 4.805 5.336 4.838 5.676.036.336.507 1.798.17 1.866zm-.958-6.61c.183.067.317-.51.3-.953s-1.655-2.144-1.83-2.04c-.204.12-.54.46-.523.596.018.136 1.866 2.328 2.05 2.396zM17.266 17.712c-2.336 0-2.487.952-2.554 1.564-.067.612.157 5.946.353 6.033.27.12 1.193.322 1.243-.018.05-.34-.186-4.928.15-5.727.336-.8 2.42-.39 2.705-.39s1.008-.562.823-1.072c-.185-.51-.387-.39-2.722-.39zm24.348-8.837c.403-.29 2.134-3.467 2.285-3.654.152-.186 1.43-.033 1.816-.033s.555-1.054.168-1.343-2.016-.374-2.453-.085-3.34 4.325-3.19 4.59c.184.32.974.814 1.377.525z"/></svg>