<?xml version="1.0" ?><!DOCTYPE svg  PUBLIC '-//W3C//DTD SVG 1.1//EN'  'http://www.w3.org/Graphics/SVG/1.1/DTD/svg11.dtd'><svg id="Layer_1" style="enable-background:new 0 0 58.086 52.098;" version="1.1" viewBox="0 0 58.086 52.098" xml:space="preserve" xmlns="http://www.w3.org/2000/svg" xmlns:xlink="http://www.w3.org/1999/xlink"><path d="M57.147,6.029c-0.662-1.103-7.573-0.588-7.573-0.588s0.368-3.823-2.206-4.559C44.794,0.147,15.824,0,9.648,0  S2.06,1.014,0.825,2.206C-1.234,4.191,1.192,39.116,1.339,40.44s5.588,0.882,5.882,1.103c0.294,0.221-1.912,10.147-0.735,10.22  c1.176,0.074,8.603-6.47,9.411-6.912c0.809-0.441,24.999,0.294,25.514,0.294s6.691,7.573,8.235,6.912  c1.544-0.662,3.603-8.823,3.603-8.823s2.721,0.147,4.118-0.441S57.808,7.132,57.147,6.029z M48.103,16.985  c-0.221-0.441-0.515-1.103-0.956-0.882c-0.441,0.221-1.029,0.809-0.662,1.103c0.368,0.294,1.618,1.765,1.618,1.985  c0,0.221-0.147,1.985-0.147,1.985s-1.176-1.985-1.544-1.691s-0.956,1.029-0.515,1.323s2.059,2.279,2.059,2.721  s-0.074,2.206-0.074,2.206s-2.206-3.456-2.573-3.162c-0.368,0.294-0.809,1.029-0.441,1.25c0.368,0.221,2.868,3.97,2.941,4.191  c0.074,0.221,0.368,2.647,0.147,2.426c-0.221-0.221-3.015-4.926-3.382-4.779s-0.882,0.735-0.588,1.103  c0.294,0.368,3.897,5.809,3.897,6.25c0,0.441,0,3.162-0.294,3.162s-4.191-7.426-4.559-7.353c-0.368,0.074-1.176,0.956-0.956,1.176  c0.221,0.221,4.779,7.353,4.338,7.5c-0.441,0.147-2.059,0.147-2.353-0.074s-2.941-5.588-3.235-5.588s-1.176,0.368-0.809,0.809  c0.368,0.441,2.721,4.706,2.426,4.706s-2.059,0.074-2.132-0.221s-2.206-4.412-2.426-4.412s-0.956,0.294-0.588,0.956  c0.368,0.662,1.912,3.456,1.618,3.456s-2.132,0.441-2.279,0.074c-0.147-0.368-1.323-2.941-1.912-3.015s-1.471,0.368-0.956,0.809  c0.515,0.441,1.912,2.426,1.618,2.426s-2.721-0.221-2.721-0.221s-0.956-2.573-1.471-2.721c-0.515-0.147-1.176,0.368-0.956,0.662  c0.221,0.294,1.103,2.132,1.103,2.132s-11.985-0.662-12.867-0.221c-0.882,0.441-9.632,8.603-10,8.603  c-0.368,0,2.647-8.97,1.765-9.338s-6.25,0.294-6.765-0.221S0.898,3.529,3.545,2.647c1.242-0.414,15.22-1.176,21.691-1.25  s22.132,0.735,22.499,1.471C48.103,3.603,48.323,17.426,48.103,16.985z M11.78,3.823c-0.221-0.441-5-0.221-5.882,0.221  s-0.69,6.295-0.294,6.691c0.515,0.515,0.882,0.147,1.25,0.147s0.147-4.412,0.147-5.22s3.97-0.368,4.412-0.368  C11.854,5.294,12.001,4.265,11.78,3.823z M41.853,3.75c-0.294,0.147-0.515,1.323,0.294,1.691s1.985,0.368,2.794,0.441  s0.294,2.573,0.368,2.941c0.074,0.368,0.882,0.294,1.323,0.221c0.441-0.074,0.221-4.412,0-4.926S42.354,3.499,41.853,3.75z   M18.912,15c-0.735-0.11-6.042-0.493-6.36-0.221c-0.515,0.441-2.279,5.772-2.243,6.14c0.037,0.368,2.353,0.147,4.743,0.147  s3.75,0.11,4.706-2.059S19.648,15.11,18.912,15z M18.434,18.713c-0.441,1.103-1.103,0.993-1.581,0.993  c-0.478,0-3.419-0.037-3.419-0.037s0.772-2.206,0.956-2.279c0.205-0.082,3.162,0.037,3.456,0.037S18.876,17.61,18.434,18.713z   M18.876,12.794c1.948,0,2.941-0.184,3.529-3.493s-7.385-2.365-7.684-2.132c-0.331,0.257-1.875,4.963-1.838,5.331  C12.92,12.867,16.927,12.794,18.876,12.794z M16.964,9.007c0,0,2.721-0.037,3.051,0c0.331,0.037,1.176-0.074,0.772,1.323  s-0.919,1.213-1.323,1.213s-3.456,0-3.419-0.147C16.082,11.25,16.743,9.154,16.964,9.007z M34.022,10.772  c0.625-2.206-0.699-3.125-1.103-3.162s-4.796-0.392-5.184-0.11c-0.809,0.588-2.316,5.184-2.279,5.515s4.007,0.331,5.367,0.331  S33.397,12.978,34.022,10.772z M32.515,10.735c-0.331,0.809-0.588,1.25-1.397,1.213c-0.809-0.037-2.721-0.074-2.721-0.221  c0-0.147,0.846-2.537,1.176-2.647c0.244-0.081,2.022,0.11,2.279,0.147C32.111,9.264,32.846,9.926,32.515,10.735z M42.441,12.5  c-0.221,0-4.779-0.257-4.926-0.147c-0.294,0.221-1.948,5.367-1.801,5.772c0.147,0.404,4.853,0.441,5.478,0.368  c0.625-0.074,1.948-0.478,2.537-2.537C44.316,13.897,42.662,12.5,42.441,12.5z M42.294,15.735c-0.184,0.956-0.772,1.287-1.25,1.287  s-2.647-0.037-2.757-0.184s0.588-2.39,0.772-2.61c0.194-0.233,2.39,0.074,2.573,0.074S42.478,14.779,42.294,15.735z M39.206,21.286  c-0.551,0-4.432-0.356-4.595-0.147c-0.404,0.515-1.838,5.367-1.728,5.625s4.265,0.404,5.11,0.294  c0.846-0.11,2.316-0.404,3.051-2.868S39.757,21.286,39.206,21.286z M39.39,24.595c-0.294,0.551-0.919,1.213-1.654,1.14  c-0.735-0.074-2.243,0-2.243-0.11s0.809-2.757,1.103-2.868c0.175-0.066,2.316-0.037,2.647,0.257  C39.574,23.308,39.684,24.043,39.39,24.595z M28.14,25.073c-0.331,0-5.28-0.122-5.478,0c-0.478,0.294-2.573,5.662-2.316,5.845  c0.257,0.184,6.287,0.184,6.912,0.147c0.625-0.037,1.397-0.074,2.316-2.537S28.471,25.073,28.14,25.073z M27.147,29.631  c-1.25,0.037-3.787,0.11-3.823-0.184c-0.037-0.294,0.919-2.206,1.176-2.353c0.226-0.129,3.088-0.037,3.529,0.147  S28.397,29.595,27.147,29.631z M30.456,15.588c-0.699-0.037-5.037-0.257-5.441,0s-1.544,5.294-1.397,5.441s4.522,0.147,5.588,0.147  s1.912-0.257,2.5-2.206C32.294,17.022,31.155,15.625,30.456,15.588z M30.089,18.786c-0.184,0.809-0.735,1.029-1.066,1.029  c-0.331,0-2.243-0.074-2.243-0.074s0.368-2.022,0.478-2.169c0.091-0.121,2.206,0,2.39,0C29.831,17.573,30.272,17.977,30.089,18.786z  "/></svg>