<?xml version="1.0" ?><svg id="Layer_1" style="enable-background:new 0 0 62 62;" version="1.1" viewBox="0 0 62 62" xml:space="preserve" xmlns="http://www.w3.org/2000/svg" xmlns:xlink="http://www.w3.org/1999/xlink"><path d="M16.224,12.122c0.765-0.561,0.051-7.907,0-9.539c-0.051-1.632-0.765-2.092-2.551-1.734  c-1.785,0.357-4.999,5.458-6.173,7.295c-1.173,1.836-1.48,2.93-0.714,3.724C8.164,13.295,15.459,12.683,16.224,12.122z M13.214,4.47  c0.459,0.102,0.612,4.642,0.204,4.897c-0.408,0.255-3.877,0.408-4.081,0C9.091,8.876,12.755,4.368,13.214,4.47z M54.943,17.988  c-0.816-5.509-0.918-6.122-4.489-10.152c-3.571-4.03-14.08-3.826-14.08-3.826s0.153-1.53-1.275-2.908  C33.67-0.274,27.549-0.07,23.57,0.185c-3.979,0.255-5.969,2.143-6.224,2.857c-0.255,0.714,0,10.254,0,10.56  c0,0.306-9.854-0.143-10.101,0.306c-1.122,2.04,1.428,17.753,2.041,20.252c0.612,2.5,0.663,2.857,4.369,4.795  c4.413,2.309,12.313,2.551,16.751,1.887c4.438-0.663,5.254-3.775,5.254-3.775c1.734,3.061,8.723,1.99,8.723,1.99  s0.255,0.306-0.153,3.418c-0.408,3.112-1.479,6.377-1.683,6.683c-0.204,0.306-1.581-0.102-2.092-0.306  c-0.51-0.204-0.357-1.122,0-1.53c0.357-0.408,0.969-0.357,1.326-0.459c0.357-0.102,1.173-1.326,0.714-2.959  c-0.459-1.632-1.173-3.061-2.704-3.112c-1.53-0.051-8.672,1.377-9.539,3.061c-0.867,1.683,0.969,15.355,2.194,16.783  c1.224,1.428,8.468,1.428,10.407,1.326c1.939-0.102,4.285-0.255,6.326-3.367c2.041-3.112,4.744-6.53,5.764-15.712  C55.963,33.7,55.759,23.498,54.943,17.988z M52.749,31.813c0.051,0.357-0.051,2.449-0.204,2.347  c-0.153-0.102-2.602-2.806-2.806-2.806c-0.204,0-0.612,1.071-0.561,1.224c0.051,0.153,3.418,3.163,3.418,3.571  c0,0.408-0.306,1.479-0.357,1.326c-0.051-0.153-1.938-2.245-2.092-2.245s-0.663,0.612-0.51,1.122c0.153,0.51,2.449,3.01,2.449,3.01  s-1.479,8.009-3.469,11.886c-1.99,3.877-2.398,4.132-2.398,4.132s-1.377-2.449-1.581-2.449c-0.204,0-0.867,0.561-0.816,0.765  c0.051,0.204,1.888,2.602,1.785,2.908c-0.102,0.306-0.663,0.867-0.816,0.714c-0.153-0.153-1.734-2.959-2.092-3.01  c-0.357-0.051-0.816,0.255-0.714,0.561c0.102,0.306,1.785,2.653,1.632,2.806s-0.969,0-0.969,0s-1.836-2.653-2.194-2.806  c-0.357-0.153-0.816-0.255-0.867,0.102c-0.051,0.357,2.245,2.908,1.836,3.01c-0.408,0.102-6.683-0.816-7.142-1.224  s-2.04-11.529-1.53-12.192c0.51-0.663,6.683-1.99,6.989-1.53c0.306,0.459,0.459,1.735,0.459,1.735s-2.704,1.275-2.857,1.887  s0.153,2.959,0.816,3.52c0.663,0.561,5.662,2.194,6.224,1.683c0.561-0.51,1.786-5.56,2.143-9.437c0.357-3.877,0-6.07-0.306-6.122  c-0.306-0.051-5.152,0.867-6.785-1.224c-1.632-2.091-2.857-5.713-3.214-5.969c-0.357-0.255-1.53,0.255-1.53,0.255  s-2.092-4.336-2.551-4.438c-0.459-0.102-1.071,0.357-0.765,0.765c0.306,0.408,2.551,4.234,2.551,4.234s0.306,1.734,0,2.602  c-0.306,0.867-0.663,1.02-0.663,1.02s-3.01-5.917-3.469-5.969c-0.459-0.051-1.02,0.357-0.867,0.561  c0.153,0.204,3.724,6.428,3.622,6.632c-0.102,0.204-1.173,0.969-1.53,0.867c-0.357-0.102-3.775-6.683-4.03-6.683  c-0.255,0-0.867,0.663-0.867,0.663s4.081,6.122,3.877,6.275c-0.204,0.153-2.347,0.306-2.347,0.306s-3.265-5.407-3.418-5.458  c-0.153-0.051-1.02,0.255-0.867,0.612c0.153,0.357,3.163,5.05,3.163,5.05h-2.806c0,0-2.398-4.744-2.653-4.897  c-0.255-0.153-1.02,0.051-0.918,0.204c0.102,0.153,2.602,4.846,2.347,4.795c-0.255-0.051-1.734-0.255-1.734-0.255  s-2.296-4.489-2.449-4.54c-0.153-0.051-0.867-0.153-0.918,0.102c-0.051,0.255,2.296,4.336,2.143,4.336s-4.795-0.663-6.581-2.806  c-1.786-2.143-1.939-5.407-2.5-9.131c-0.561-3.724-1.53-8.264-1.173-8.723c0.258-0.332,9.743,0.408,9.896-0.204  c0.153-0.612,0.051-11.223,0.663-11.988s4.744-1.326,8.213-1.122c3.469,0.204,5.101,0.561,5.356,1.275  C33.67,4.164,33.67,6,34.64,6.204c0.969,0.204,5.152-0.867,10.713,1.581s6.683,5.713,6.938,10.458  c0.255,4.744,0.357,8.417,0.357,8.417s-1.887-2.398-2.194-2.398c-0.306,0-0.612,1.02-0.306,1.377  c0.306,0.357,2.551,3.061,2.653,3.265c0.102,0.204-0.051,1.173-0.051,1.173s-2.194-2.602-2.551-2.602  c-0.357,0-0.408,1.53-0.408,1.53S52.698,31.456,52.749,31.813z M21.937,5.49c-0.204,0.255-0.102,4.846-0.102,4.846  s0.867,0.306,1.071,0.255c0.204-0.051,0.051-4.744,0-4.948C22.856,5.439,22.097,5.291,21.937,5.49z M44.128,18.855  c-3.877,0.051-3.418,4.948-3.418,4.948c0.153,0.459,0.204,0.765,1.071,0.714c0.867-0.051,5.101-0.051,5.407-0.306  C47.495,23.957,48.005,18.804,44.128,18.855z M45.607,22.477c-0.357,0.255-2.857,0.408-3.112,0.306  c-0.15-0.06-0.153-2.347,1.173-2.347S45.965,22.222,45.607,22.477z M34.129,45.637c-0.204,0.153,0.306,3.775,0.459,4.183  c0.153,0.408,0.867,0.102,1.071-0.102c0.204-0.204-0.357-4.03-0.51-4.183C34.997,45.382,34.466,45.385,34.129,45.637z" style="fill:#1D1D1B;"/></svg>