<?xml version="1.0" ?><svg enable-background="new 0 0 64 64" viewBox="0 0 64 64" xmlns="http://www.w3.org/2000/svg"><path d="M7.468 30.666c.616 0 6.978-.51 7.936-.782s.582-2.45.547-4.66.857-7.145.686-7.45-4.717-.825-5.13-.613c-2.464 1.26-5.577 9.323-5.68 11.09s1.027 2.417 1.643 2.417zm2.85-6.736c.775-1.497 2.007-3.357 2.417-3.674.42-.326 2.144.09 2.144.09s-.14 8.302-.504 8.393c-.365.09-5.108.452-5.336.134-.227-.318.503-3.448 1.278-4.945zm33.786-7.518c.342.34 1.574.272 2.292.136s2.77.238 3.626-.238c.855-.476.274-1.327-.616-2.55-.89-1.226-3.387-3.063-5.678-4.185s-3.62-.773-3.797-.375c-.272.612.857 1.633 1.37 2.313.513.68 2.463 4.56 2.805 4.9zm3.478-1.554c-.09.272-2.19.544-2.554.318s-1.733-3.357-1.78-3.538c0 0 4.425 2.948 4.334 3.22zm-29.305 31.15c-.41-.237-3.59 1.414-3.523 1.872.068.476 2.43 1.463 3.044 1.837.616.374 2.6 1.293 2.976 1.19.376-.1.17-.34-.274-1.156-.444-.814-1.812-3.502-2.223-3.74zM46.533 19.61c-1.3.272-.715 2.155-1.095 2.722-.068.102.274 6.736.924 7.62.65.885 6.5.68 7.184.51.684-.17.958-.578.992-1.973s-.445-6.94-1.163-8.37-5.542-.783-6.842-.51zm5.245 9.083c-.228.272-3.65.544-3.877.227s-.637-5.035-.637-5.398c0-.49 3.786-.454 4.15-.18.366.27.594 5.08.366 5.35zm-47.15-2.38c.103-.988-.753-1.328-1.3-.58s-.753 4.356-.342 7.45 2.943 8.05 3.18 8.2c.65.408 1.06-.136 1.198-.544.137-.41-1.13-1.975-2.43-5.615s-.408-7.928-.306-8.914zm11.46 7.483c-.17-.238-2.53-.034-3.694.068-1.163.102-3.044.102-3.73.034-.683-.068-2.263.09-2.394.544-.205.714.445 3.198 1.505 5.58 1.06 2.38 2.36 3.91 3.49 4.047s2.017-1.363 3.454-1.975 2.632-.306 2.94-.782c.31-.476-1.4-7.28-1.573-7.518zm.023 6.42c-.226.362-4.057 1.95-4.33 1.768S10.045 37.22 10 36.768c-.05-.51 4.835-1.09 4.972-1.043.137.044 1.37 4.127 1.14 4.49zm6.034 4.705c-.342 1.397 4.14 7.86 4.48 7.93.343.067 2.91.033 3.217-.137.31-.17.17-8.81-.375-9.355s-7.208 1.103-7.32 1.564zm6.374 6.636c-.502 0-.547.227-.912-.09-.365-.318-2.463-3.448-2.645-3.857-.092-.208 2.738-2.178 3.1-1.77.367.41.96 5.716.458 5.716zM17.73 14.88c1.026 0 2.53-3.843 2.84-4.354.307-.51.41-1.36-.275-1.36s-6.544 4.142-6.705 4.388c-.512.783 3.114 1.327 4.14 1.327zm-.068-2.38c.137 0-.182 1.09-.41 1.043-.228-.045-.456-.136-.593-.272-.46-.454.864-.77 1-.77zm2.976 21.262c-.376.714.308 5.41.82 5.85s7.32.443 8.45.137c1.13-.308.958-5.173.308-5.92-.65-.75-9.314-.57-9.578-.07zm7.88 4.41c-.41 0-4.106.5-4.334.092-.228-.408.046-1.86.182-2.223.122-.32 4.105-.497 4.333-.043.226.454.226 2.177-.184 2.177zm-1.894-30.47c-1.574 1.056-4.14 6.84-4.14 7.52 0 .68.685.918 1.37 1.122.683.204 5.404.748 6.02.578s.616-1.395.616-2.688.616-6.192.274-6.6-3.107-.623-4.14.07zm2.44 6.43c0 .727 0 1.59-.365 1.543-.367-.045-3.15 0-3.15-.408s1.69-4.672 3.83-5.49c.13-.048-.317 3.63-.317 4.356zm5.804 6.668c-.753.578-.616 8.71-.137 9.355.48.646 6.125.612 6.98-.068.855-.68-.445-8.54-1.13-9.22s-4.823-.75-5.71-.067zm4.64 7.984c-.364.18-2.462.318-2.69-.045-.228-.365 0-5.037.046-5.354.055-.386 1.505.09 1.78.136.272.044 1.23 5.08.865 5.26zm7.71 4.4c-.96 1.633-2.464 7.69-1.985 8.165.48.474 7.457 2.277 8.278 1.87.823-.41 2.5-7.69 1.95-8.54s-7.77-2.3-8.242-1.497zm4.47 8.527c-.366 0-5.337-1.132-5.474-1.313-.137-.18 1.323-4.128 1.505-4.4.224-.338 4.74.454 4.97 1.18.227.725-.64 4.535-1.004 4.535zm-7.652 2.565c-.24.238-1.574 3.572-2.052 4.525-.48.952-1.54 2.585-.205 2.653 1.332.068 3.01-.85 4.96-1.87 1.95-1.022 4.206-2.552 4-3.097s-6.116-2.798-6.705-2.212zm-1.107 5.51c-.41-.226 1.23-2.993 1.366-3.22.223-.37 2.144.408 2.144.77.002.365-3.1 2.678-3.51 2.45zM29.735 30.19c.82-.646.753-8.64.445-9.628-.307-.987-6.797-1.667-7.39-1.395-1.914.885-2.153 10.206-1.81 10.716.34.51 7.935.953 8.756.307zm-5.508-7.575c0-.39 3.876-.363 4.378.09.502.455.365 6.215-.137 6.35s-4.333.41-4.515-.18c-.183-.59.273-5.988.273-6.26zm39.612 6.76c-.48-5.648-2.873-14.766-9.236-20.89S40.516.96 33.534 1.002C22.11 1.07 18.277 4.54 12.53 8.35S1.584 18.554.284 28.012s1.984 16.125 7.32 21.91S19.44 61.896 30.866 62.848c11.425.952 21.414-2.655 27.298-9.46s6.157-18.37 5.678-24.016zm-1.848.61c-.48-.34-4.96-6.77-5.302-6.77s-.718.954-.513 1.056c.204.104 5.575 6.704 5.677 7.078s-.103 2.245-.17 1.973c-.07-.27-4.448-6.123-4.858-6.123-.41 0-.617.714-.583 1.02.034.307 5.2 6.363 5.234 6.77.035.41-.375 1.464-.375 1.464s-3.865-4.796-4.208-4.524c-.342.272-.445.748-.205 1.225s4 4.49 4.07 4.83c.07.34-.274 1.94-.547 1.567-.274-.374-2.53-3.708-2.77-3.64s-.89.374-.41 1.123c.478.747 2.804 3.673 2.838 3.98s-.615 2.142-.717 2.04c-.103-.102-2.12-2.926-2.463-2.892s-.89.374-.65.748 2.6 2.994 2.6 3.266-.205 1.973-.616 1.735c-.41-.238-2.326-3.436-2.497-3.436-.17 0-1.23.444-.924.955.308.51 2.668 3.3 2.668 3.504s-.34 1.43-.683 1.19c-.342-.238-2.155-3.368-2.566-3.368-.41 0-1.196.92-.65 1.294s2.396 3.028 2.43 3.232c.034.204-.855 1.327-.96 1.225-.1-.1-2.187-3.537-2.564-3.605-.377-.068-1.164.408-.96.748s2.806 3.538 2.67 3.844c-.138.306-.48.92-.856.544-.376-.373-2.018-3.027-2.36-3.13-.342-.1-.958.58-.684.988.274.408 2.395 2.96 2.258 3.198s-.753.714-.992.578c-.24-.136-2.19-3.368-2.497-3.3-.31.068-.925.102-.617.816.308.714 2.463 2.994 2.223 3.3s-.854 1.157-1.265.885c-.41-.273-2.223-3.607-2.53-3.64s-1.232.51-.89 1.02c.342.51 2.36 3.062 2.258 3.334s-.684 1.123-1.026.748c-.342-.374-2.497-3.98-2.942-3.946-.445.034-1.026.272-.82.816.204.544 2.94 3.504 2.565 3.708-.376.204-1.13.442-1.23.272-.104-.17-2.738-3.436-3.285-3.436s-1.23.306-.958.544c.274.238 2.77 3.096 2.6 3.198-.17.102-1.574.476-1.745.238-.17-.238-1.916-3.3-2.395-3.3-.48 0-.992.34-.855.612s1.78 2.62 1.676 2.688c-.103.068-1.334.17-1.608-.136-.274-.306-1.197-2.28-1.608-2.28-.41 0-1.23.307-.89.68.343.375 1.06 1.77 1.06 1.872s-.99.544-1.333.272-1.3-2.11-1.746-2.04c-.446.067-1.13.237-.822.68.308.44.89 1.394.753 1.564-.136.17-9.714.136-13.75-1.77-4.036-1.904-7.868-4.796-10.536-7.585S4.69 43.563 3.39 41.08 1.408 34.444 1.545 30.6s.65-7.756 3.044-11.6 7.217-8.98 10.98-11.363 7.703-3.54 11.26-4.357 7.114-.68 8.072-.715c6.433-.23 12.657 1.905 16.83 4.967s3.08 3.946 3.147 4.15c.066.204 3.077 3.742 3.42 4.218s.89 2.177.683 1.905-2.805-3.742-3.42-3.47c-.617.272-.96.34-.41.748.546.408 5.472 6.192 5.814 7.144s.616 3.538.41 3.198c-.205-.34-4.652-7.008-5.2-6.804-.547.206-.82.07-.616.818.206.748 6.43 7.416 6.43 7.96s.48 2.93.003 2.59zm-20.558 4.968c-.342-1.02-6.017-1.51-6.43-1.123-.617.578-1.164 5.68-.583 6.056s5.064.714 5.78.442c.72-.272 1.576-4.355 1.234-5.375zm-2.84 3.538c-.273.183-2.553.274-2.78-.043-.23-.318.045-2.313.09-2.676.047-.37 2.51.137 2.828.545.32.408.136 1.995-.137 2.177zm-.58-21.125c.65.034 1.71.238 1.812-.408.103-.646-.513-3.572-1.95-5.85-1.437-2.28-2.8-3.837-3.25-3.54-.513.34-.582.817-.513 1.566.068.748.068 6.974.41 7.552s2.84.646 3.49.68zm-2.065-5.5c.054-.27 1.46 3.81 1.23 3.902-.227.09-.91.136-1.05-.09-.134-.228-.27-3.358-.18-3.81zm-1.22 31.56c-.274.51-.376 9.253-.34 9.73.032.476 1.332.612 1.982.442.65-.17.684-.612 1.368-2.347.685-1.736 2.806-6.703 2.327-7.35-.478-.646-5.108-.9-5.336-.476zm1.175 8.403c-.228-.045.228-6.623.228-6.623.64-.272 2.235.227 2.235.408 0 .182-2.236 6.26-2.464 6.215z"/></svg>