<?xml version="1.0" ?><svg height="64px" id="Layer_1" style="enable-background:new 0 0 64 64;" version="1.1" viewBox="0 0 64 64" width="64px" xml:space="preserve" xmlns="http://www.w3.org/2000/svg" xmlns:xlink="http://www.w3.org/1999/xlink"><path d="M61.46,10.85c-0.932-7.26-3.5-10.162-11.794-10.453C41.373,0.107,22.92-0.3,11.767,0.34C0.614,0.977,1.782,7.89,1.782,9.98  c0,0-0.76,25.492-0.76,30.138S0.733,47.493,2.25,52.72s4.32,10.627,10.92,10.975c6.598,0.348,34.277,0.523,40.934-0.174  s7.358-6.04,8.467-11.44c1.11-5.4-0.174-33.97-1.11-41.23L61.46,10.85z M59.943,29.084c0.117,0.348,0.058,1.86,0.058,1.86  s-3.035-3.02-3.444-2.614c-0.41,0.406-0.234,1.22-0.234,1.22s3.62,2.38,3.62,2.67s-0.116,1.626-0.116,1.626s-2.86-2.38-3.036-2.323  c-0.175,0.058-0.41,0.813-0.35,1.045c0.058,0.232,3.562,2.265,3.562,2.613v3.195c0,0-2.978-2.962-3.212-3.02  c-0.234-0.058-0.35,1.22-0.35,1.22s3.27,2.845,3.387,3.193s0.117,2.265,0.117,2.265s-3.037-2.903-3.212-2.903  s-0.35,1.394-0.35,1.394s3.153,2.67,3.33,3.078c0.174,0.407,0.116,2.555,0.116,2.555s-3.095-2.497-3.27-2.44  c-0.175,0.06-0.117,1.51,0.058,1.685c0.175,0.174,3.27,2.265,3.33,2.555c0.057,0.29-0.118,2.555-0.118,2.555  s-2.803-2.497-3.036-2.497c-0.234,0-0.35,1.045-0.35,1.045s3.387,2.903,3.387,3.078s-0.643,1.626-0.643,1.626  s-3.095-3.078-3.33-3.136c-0.233-0.058-0.758,0.523-0.758,0.697s3.21,3.136,3.036,3.426c-0.175,0.29-0.35,0.93-0.584,0.93  s-3.036-2.67-3.212-2.67c-0.175,0-0.818,0.986-0.818,0.986s2.92,2.613,2.745,2.73c-0.175,0.116-1.46,0.697-1.46,0.697  s-2.57-2.265-2.803-2.265s-0.76,0.755-0.76,0.755l2.162,2.09c0,0-1.46,0.466-1.693,0.408c-0.234-0.057-2.277-1.74-2.686-1.915  c-0.41-0.174-1.518,0.348-1.518,0.348s2.1,1.742,1.81,1.916c-0.293,0.173-12.848,0.58-20.322,0.463  c-7.475-0.116-17.752-0.348-20.38-1.626s-5.43-4.53-5.723-11.15C2.6,39.827,3.3,13.58,3.3,13.58  c-0.058-2.033-0.117-7.434,1.81-9.234s5.84-2.613,13.08-2.67c7.24-0.06,25.81,0.29,31.3,0.463s8.526,2.03,9.168,5.05  S60,22.87,59.826,22.813c-0.175-0.058-2.92-2.207-3.153-2.207c-0.234,0-0.584,1.22-0.35,1.336c0.234,0.117,3.387,2.382,3.562,2.788  c0.175,0.407,0.175,2.613,0.175,2.613s-3.037-3.077-3.27-2.96c-0.234,0.115-0.234,1.567-0.234,1.567s3.27,2.79,3.387,3.137V29.084z   M54.746,18.748c0.058-4.297-0.41-8.13-3.036-10.163c-2.628-2.032-21.49-1.393-27.33-1.277S12.87,7.474,11.125,8.992  c-0.467,0.406-1.46,1.16-1.635,3.426c-0.175,2.265-1.226,31.3-0.76,35.83s2.278,5.285,6.25,5.4c3.97,0.117,28.788,0.64,32.875,0.408  c4.088-0.232,5.14-1.742,6.19-4.588S54.687,23.045,54.746,18.748L54.746,18.748z M52.41,48.77c-0.7,1.743-1.577,3.137-5.022,3.427  c-3.445,0.29-23.942,0-28.905-0.174c-4.964-0.174-6.248-1.162-6.248-1.162s0.175-22.356,0.35-28.163s-0.234-10.453,0.584-10.917  c0.913-0.52,6.83-0.987,18.277-1.103c11.445-0.116,18.22,0.232,19.212,0.64c0.992,0.406,2.335,2.032,2.335,9.407  c0,7.373,0.116,26.304-0.585,28.047L52.41,48.77z M46.28,12.07c-5.373,0.813-4.03,5.98-2.162,7.2c1.87,1.22,6.423,1.395,6.89-2.264  c0.468-3.66-1.776-5.383-4.73-4.936L46.28,12.07z M49.257,15.612c-0.292,1.974-2.102,2.207-3.27,2.032  c-1.168-0.174-3.68-3.368,0.584-4.47C47.603,12.906,49.551,13.638,49.257,15.612L49.257,15.612z M28.702,15.844  C9.665,19.154,13.986,37.97,17.724,43.02c3.737,5.053,14.716,4.82,20.73,2.266c6.015-2.555,10.102-8.304,7.358-18.93  C43.067,15.728,33.169,15.068,28.702,15.844z M40.848,41.57c-5.606,4.007-13.84,4.355-17.752,2.44s-7.767-6.215-6.89-13.3  c0.875-7.084,5.488-12.484,12.612-13.24c4.01-0.424,11.562,0,14.132,6.33S46.454,37.563,40.848,41.57z M28.702,21.36  c-9.05,2.266-9.285,7.724-8.526,13.53c0.76,5.808,10.92,7.086,16.292,4.763s7.183-6.04,5.723-11.556S33.991,20.037,28.702,21.36  L28.702,21.36z M32.965,38.9c-5.256,0.58-8.993-0.465-10.278-3.485s0.467-8.304,7.007-9.93c4.015-0.998,9.518,0.523,10.86,4.646  C41.899,34.254,38.22,38.319,32.965,38.9L32.965,38.9z"/></svg>