<?xml version="1.0" ?><svg enable-background="new 0 0 64 64" viewBox="0 0 64 64" xmlns="http://www.w3.org/2000/svg"><path d="M55.79 51.64c-.094-5.528-.93-43.66-1.302-47.876-.372-4.216-4.555-3.748-7.53-3.748H12.94c-1.488 0-4.15.2-4.463.937-.836 1.967-.37 4.87-.092 8.244S9.59 39.46 9.777 49.39c.186 9.932.65 11.43 1.673 13.305s8.273 1.03 21.193 1.124c12.92.092 20.728.654 22.31-.845 1.58-1.5.93-5.81.836-11.336zm-2.37 7.94c-1.395.07-25.307.35-31.303.35s-9.063-.63-9.76-1.194c-.697-.562-1.603-12.367-1.464-20.8.14-8.432-.418-16.654-.906-22.627-.49-5.973-.768-12.93-.21-13.703.367-.508 19.427-.093 24.354-.187 4.93-.093 16.734-.936 17.94 1.594 1.21 2.53 1.07 4.497 1.07 6.676s1.186 33.588 1.116 38.86.558 10.96-.836 11.03zM16.61 4.138c.603-.14-.14-1.36-.79-1.36-.652 0-3.208.235-3.626.61s-.006 7.216.14 7.73c.092.328 1.114-.094 1.347-.703.234-.61-.045-5.247 0-5.575.05-.327 2.326-.562 2.93-.702zm26.677 1.78c-2.975-.047-20.264-.28-22.31-.234-2.044.047-4.905.63-5.204 1.265-.465.982-.325 5.104-.372 7.73-.045 2.62.28 20.8.14 25.623-.14 4.825.28 8.15 1.163 9.557.883 1.406 3.393 1.313 7.576 1.547 4.182.234 11.246.468 15.615.61s6.646-.142 8.552-1.36c1.905-1.218 1.766-2.858 1.905-6.37.14-3.514.605-24.033.745-29.045.14-5.013-.372-5.2-1.023-7.355s-3.81-1.922-6.785-1.97zm5.577 34.385c0 4.076-.047 6.793-.51 7.823-.466 1.03-1.535 2.202-6.275 2.202s-18.035-.515-19.708-.61c-1.673-.093-3.95.048-4.508-1.31-.558-1.36-.744-8.058-.65-17.193.092-9.135-.512-22.392-.048-23.33.196-.394 10.178-.374 14.966-.467 4.787-.094 14.826.187 15.523.515.697.328 1.952 2.436 1.952 5.247s-.744 23.047-.744 27.123zm-13.432 13.35c-2.184-1.592-4.672-.4-5.39.376-.652.7-.373 2.48.464 3.09.837.61 3.44 1.17 4.415.703.978-.47 2.697-2.577.513-4.17zm-1.86 2.718c-1.207 0-3.3-.607-1.765-1.73.46-.337 2.277-.28 2.928.28s.047 1.452-1.162 1.452zM35.386 9.06c-.604 0-.65.375-.65.843 0 0 10.177 13.774 10.642 14.148.465.375.558-.328.465-.843-.093-.515-9.853-14.147-10.457-14.147zm-5.53 2.764c-.79.048-.838.516-.698.844.14.328 2.37 2.998 4.694 5.996s10.55 13.023 10.69 12.93c.14-.094-13.67-19.83-14.687-19.77zm-4.323 3.514c-.604-.14-.79.562-.697.796.093.234.697 1.124 2.324 2.95 1.627 1.828 14.13 19.49 14.13 19.49s-.512-1.36-2.092-4.405c-1.582-3.044-13.312-18.75-13.665-18.83zm-3.02 5.903c-1.488-.048-.56 1.217-.512 1.5.05.28 1.908 2.62 4.836 5.994S38.734 44.708 39.2 44.427c.463-.28-16.223-23.174-16.687-23.188zm-.14 10.82c-.14.094-.698.375-.698.843 0 .47 13.292 16.49 13.34 16.116.045-.376-12.14-17.298-12.643-16.96zm-.837 9.697c-1.394-.187 0 1.78.325 2.295.327.515 4.557 4.872 4.79 4.216.23-.655-4.41-6.416-5.113-6.51z"/></svg>