<?xml version="1.0" ?><svg enable-background="new 0 0 64 64" viewBox="0 0 64 64" xmlns="http://www.w3.org/2000/svg"><path d="M63.313 45.965c-.636-1.526-3.988-5.343-4.71-5.343-.72 0-1.908 1.102-2.8 1.654-.89.55-4.793 2.8-9.5 4.707s-7.85 2.417-10.86 2.714c-3.012.297-8.187-.127-12.556-2.544-4.37-2.417-8.78-6.615-9.884-11.915s.085-8.438 3.945-14.035 11.962-8.947 18.03-10.05c6.065-1.1 12.725 1.02 16.288 4.072s3.818 6.488 4.072 10.092-2.927 5.98-3.733 6.233c-.806.254-1.4.042-1.824-.466-.422-.51-.083-9.328-.04-10.855.04-1.528-.933-2.59-1.654-2.59-.72 0-6.236-.34-7-.04-.763.296-.635 1.44-.635 1.44s-2.08-1.313-2.97-1.695c-.89-.382-5.937-1.187-10.69-.085-4.75 1.103-7.634 5.132-9.033 8.185s-1.697 7.717.297 11.406c1.994 3.69 6.236 7.04 11.75 8.313s11.326-1.78 11.326-1.78 4.665.89 7.253.677c2.588-.213 6.024-1.994 8.993-5.174 2.97-3.18 3.945-6.7 5.472-12.593 1.527-5.894.255-10.007-1.612-14.162C59.37 7.978 55 4.585 51.31 2.89 47.62 1.19 42.614-.04 35.36.004S24.713.812 20.13 2.63C9.863 6.7 6.172 14.036 3.966 19.21S.53 32.946 1.166 37.907s3.013 9.328 7.17 14.374c4.157 5.047 9.84 9.075 16.077 10.856 6.236 1.78 14.932.594 23.29-1.654 8.356-2.247 14.973-9.244 15.822-10.685.848-1.44.424-3.307-.212-4.833zm-10.478 8.777c-.382-.34-4.242-6.7-4.58-6.615-.34.085-.934.424-.722.594.212.17 4.666 6.193 4.2 6.49-.467.297-.89.763-1.018.424-.127-.34-3.988-6.87-4.327-6.87-.34 0-.933.467-.848.637.085.17 4.836 6.573 4.242 6.743-.594.17-.806 1.102-1.315.34-.51-.764-3.775-6.064-4.115-6.107-.34-.042-1.06.51-.933.678.125.17 3.69 5.936 3.56 6.106-.126.17-.975.805-1.187.508-.212-.297-3.35-5.894-3.775-6.106-.425-.212-1.062.424-.892.55s3.606 5.81 3.35 5.895c-.254.085-1.23.466-1.4.297-.17-.17-3.053-5.512-3.647-5.555-.594-.044-1.018.252-.89.337.126.085 3.477 5.47 3.223 5.512-.255.04-1.188.51-1.357.253-.17-.254-2.927-6.063-3.478-6.106-.552-.042-1.19.127-.934.55s2.97 5.725 2.97 5.725-.85.594-1.19.127c-.338-.467-3.477-5.598-3.732-5.725-.255-.127-.976-.042-.764.254.212.296 3.86 5.554 3.35 5.554s-.72.636-1.144-.042c-.424-.678-3.394-5.13-3.648-5.13-.255 0-.89.17-.764.55s3.012 4.707 2.672 4.664-.933.34-1.188.042c-.255-.298-3.224-5.26-3.733-5.26s-.933.51-.89.637c.04.127 3.605 4.452 2.926 4.58-.68.126-1.44.338-1.61-.17-.17-.51-2.46-4.2-2.8-4.326-.34-.127-1.06-.297-.935.127.127.424 2.97 4.155 2.206 4.155s-1.102.127-1.356-.34c-.255-.465-2.08-3.858-2.206-3.858s-1.104.127-.892.678c.212.55 1.91 3.01 1.315 3.01s-8.95-2.84-14.252-8.31-6.787-9.328-7.34-13.78c-.55-4.453-.254-9.753 1.443-14.503s4.625-10.05 8.4-13.485c3.776-3.435 10.31-7.377 23.29-6.953 5.98.2 12.388.854 17.267 4.076 4.878 3.223 7.593 7.505 8.272 12.55.677 5.047 0 9.245-1.826 13.612-1.824 4.367-3.988 6.954-6.066 7.76-2.08.806-6.788 1.61-7.637.848-.847-.763-3.265-6.106-3.86-5.98-.593.128-.635.637-.466 1.06.17.425 2.588 4.496 2.08 4.453-.51-.04-.807.13-1.146-.507-.34-.636-2.46-6.36-3.012-6.445-.55-.085-1.103.127-.89.424.21.298 1.993 4.453 1.908 4.623-.085.17-.382.89-.68.594-.296-.298-1.908-3.775-2.205-3.69-.297.085-.806.68-.467 1.357.34.678 1.867 3.095 1.782 3.307-.085.212-.424.678-.68.254-.254-.424-1.738-3.647-2.078-3.73-.34-.086-1.145.126-.848.593.296.466 2.035 3.816 1.993 3.943-.042.127-.636.636-.848.212-.212-.424-1.697-3.435-2.08-3.435-.38 0-.72.17-.466.72.254.55 1.57 2.968 1.526 3.095-.042.127-.34.55-.764.127-.424-.424-1.91-3.774-2.333-3.774s-1.19.51-.934.848 1.824 2.8 1.442 2.926c-.383.127-.383.466-.765 0s-1.612-2.756-1.994-2.8-.976.425-.764.68c.212.253 1.782 2.416 1.357 2.416s-1.357.042-1.612-.212-1.61-2.968-1.91-3.01c-.295-.043-1.06.126-.804.465.255.34 1.273 2.334.806 2.207-.467-.127-4.412-1.57-6.83-4.198-2.418-2.63-2.8-7.167-2.206-9.626.594-2.46 3.14-5.936 5.557-7.336 2.418-1.4 5.387-2.46 9.757-2.035 4.37.424 6.66 3.01 6.915 3.392s.68.636 1.145.763c.467.127.424-.042.382-.55-.042-.51-.255-2.8-.127-2.842.127-.042 5.684-.042 5.94.382.254.424.17 4.367.254 6.318.083 1.95-.766 5.682.634 6.827 1.4 1.145 2.418 1.145 3.69.55 1.274-.593 3.352-2.925 3.82-5.596.466-2.67.975-7.463-3.013-11.745s-7.507-6.19-11.92-7.25c-4.41-1.06-12.216.34-15.864 1.61-3.648 1.273-10.054 6.065-12.302 11.153s-2.418 11.66-1.91 14.332 3.86 8.396 6.62 10.558 7.38 4.664 12.64 5.3c5.26.636 13.277-1.908 14.083-2.205.806-.297 3.903-1.57 4.284-1.4.383.17 4.413 6.573 4.413 6.7.003.13-.167.893-.55.554zm5.303-3.562c-.255-.55-3.31-6.106-3.733-5.98-.424.128-1.06.383-.806.637s3.773 5.81 3.604 6.063c-.17.254-.55.89-.976.51-.425-.383-3.31-6.064-3.65-6.064s-.932.55-.932.72 3.733 5.852 3.606 6.022c-.127.17-.467.848-.933.594-.29-.16-2.715-4.96-3.18-5.512-.47-.55-.935-1.145-.808-1.4.127-.253 4.284-2.5 4.666-2.416.38.085 4.2 6.064 4.07 6.318-.126.254-.678 1.06-.932.508zm1.57-.975c-.34-.382-3.564-6.488-3.65-6.657-.133-.268 1.02-.55 1.146-.51.127.043 3.987 5.64 3.775 6.022-.213.382-.935 1.527-1.274 1.145zm2.8-2.63c-.256.383-.043.976-.552.637S58.52 42.7 58.393 42.53c-.102-.136.17-.424.467-.297.296.128 3.9 4.962 3.647 5.343zm-29.1-23.914c-3.395-1.143-6.958-.34-8.443.808-3.903 3.01-3.012 6.87-.72 9.625s5.98 2.46 9.12 1.57c3.138-.89 4.156-3.35 4.41-5.725.255-2.375-.975-5.13-4.368-6.276zm-.51 10.94c-3.14.68-4.92.68-6.575-.804-1.654-1.484-1.442-4.664 1.315-6.063 1.566-.795 4.666-.975 6.193-.55 1.53.423 2.547 2.077 2.547 2.5 0 .425-.34 4.24-3.478 4.92zm-7.51-11.83c.552-.295-.21-1.143-.635-1.06-.424.087-2.12 1.02-3.35 2.12-1.23 1.104-1.72 3.24-1.57 3.733.126.424.89.297 1.356.17.465-.127.422-1.357.974-2.502s2.673-2.16 3.224-2.46zm-13.7-7.25c.636-.593.848-1.653-.127-1.4-.974.256-4.75 4.92-5.682 7.55-.933 2.63-1.273 5.68-.89 6.275 0 0 .55.042 1.017-.042.467-.085.212-1.102 1.188-5.046.975-3.944 3.86-6.742 4.496-7.336zm35.378 4.453c-.382-.382-3.76-.442-3.945-.127-.295.51.17.763.17.763s2.038.084 2.378.084c.34 0 .085 3.053.127 3.69.042.635.51.338 1.06.338s.594-4.366.212-4.748zm5.98 13.103c-.38.254-2.162.975-3.393.72-1.23-.253-1.915-1.888-2.12-1.822-1.062.34-.383 1.738.763 2.417 1.145.68 2.29.425 3.818-.04 1.527-.47 1.315-1.53.933-1.274z"/></svg>