<?xml version="1.0" ?><svg height="64px" id="Layer_1" style="enable-background:new 0 0 64 64;" version="1.1" viewBox="0 0 64 64" width="64px" xml:space="preserve" xmlns="http://www.w3.org/2000/svg" xmlns:xlink="http://www.w3.org/1999/xlink"><path d="M63.4,38.602c-0.98-4.42-4.69-7.66-12.27-6.58c-7.578,1.08-8.35,8.79-8.35,8.79s-0.465-5.86-9.9-6.066  c-9.435-0.205-10.878,7.505-10.878,7.505s-2.062-5.962-10.517-5.14c-8.455,0.823-10.878,6.734-10.98,7.557  c-0.105,0.822-0.362,5.397-0.31,6.065c0.05,0.668,2.06,2.724,2.06,2.724C3.082,54.075,60.31,55,60.31,55s2.732-1.49,3.196-2.57  c0.464-1.08,0.877-9.407-0.103-13.828H63.4z M21.745,50.785c0,0-19.23-0.617-19.488-0.874c0,0,0.103-5.14,0.31-5.653  c0.205-0.514,4.123-5.45,9.69-5.655c5.57-0.205,9.332,5.655,9.54,6.63c0.206,0.978-0.052,5.553-0.052,5.553V50.785z M41.852,51.195  c-0.36,0.206-18.3-0.205-18.61-0.41c-0.257-0.17,0.258-8.02,0.412-9.047c0.155-1.028,2.732-6.27,9.692-5.603  c6.96,0.668,8.66,5.963,8.66,6.374S42.214,50.989,41.852,51.195L41.852,51.195z M61.289,50.219c0,0.307,0.052,1.13-0.052,1.284  c-0.103,0.154-1.804,0.154-1.804,0s-5.258-6.426-5.412-6.426s-0.567,0.36-0.516,0.617c0.052,0.257,4.64,5.655,4.64,5.655H55.72  c0,0-3.507-4.267-3.92-4.318c-0.41-0.052-1.03,0.925-1.03,0.925s3.61,3.444,3.403,3.495c-0.206,0.052-2.372,0.103-2.526,0  c-0.155-0.103-1.96-1.953-2.217-2.005c-0.258-0.052-1.03,0.463-0.876,0.72c0.155,0.257,1.237,1.337,1.237,1.337  s-5.05-0.308-5.31-0.668c-0.275-0.386-0.05-8.945,0.362-10.538s2.68-6.58,8.146-7.042c5.465-0.463,7.424,2.673,7.733,3.65  c0.31,0.977,0.31,1.902,0.31,1.902s-1.804-1.696-2.062-1.645c-0.258,0.05-0.773,1.08-0.567,1.336c0.207,0.256,2.63,2.107,2.63,2.466  c0,0.36,0.36,3.393,0.206,3.29c-0.155-0.103-3.557-4.575-3.815-4.575c-0.257,0-0.927,0.824-0.772,1.08  c0.155,0.258,4.485,4.987,4.588,5.296c0.103,0.308,0.052,2.622,0.052,2.622s-5.156-6.066-5.362-6.117  c-0.206-0.05-1.03,0.926-0.928,1.08c0.103,0.154,6.29,6.27,6.29,6.58L61.289,50.219z M9.217,33.615  c6.03,0.05,9.382-3.033,9.588-9.716c0.206-6.683-5.35-10.47-10.672-9.613c-7.01,1.13-8.403,7.248-8.094,11.72  s3.144,7.557,9.176,7.61L9.217,33.615z M3.647,19.427c3.25-4.06,3.404-3.187,5.414-3.598c2.806-0.574,6.394,1.388,7.22,4.06  c0.824,2.674,0.05,5.964,0.05,5.964s-1.803-2.52-2.06-2.52c-0.26,0-1.238,0.104-1.084,0.567c0.155,0.464,2.784,3.24,2.578,3.856  s-0.876,1.182-0.876,1.182s-2.114-2.776-2.32-2.827c-0.206-0.05-1.083,0.412-0.98,0.67s2.423,2.878,2.114,3.135  c-0.31,0.257-1.34,0.72-1.443,0.565c-0.104-0.154-1.857-2.776-2.373-2.827c-0.516-0.05-0.928,0.36-0.876,0.566  c0.053,0.204,1.702,2.415,1.444,2.518c-0.258,0.103-3.712,0.566-5.826-1.028S0.4,23.488,3.648,19.428L3.647,19.427z M29.942,30.273  c3.712-0.565,8.61-2.16,8.816-10.487c0.206-8.328-6.277-10.02-10.723-9.047c-6.805,1.49-8.25,8.276-7.218,12.594  C21.847,27.651,26.23,30.839,29.942,30.273z M28.086,12.18c1.882-0.746,6.857,0,8.094,3.187s0.155,7.042,0.155,7.042  s-2.217-2.623-2.475-2.623s-0.773,1.337-0.773,1.337s2.526,2.005,2.372,2.364c-0.156,0.36-1.754,1.696-1.754,1.696  s-2.165-2.98-2.423-2.98s-0.876,0.667-0.876,0.667s2.68,2.983,2.32,3.29c-0.36,0.31-1.495,0.67-1.495,0.67s-2.114-3.497-2.372-3.548  c-0.258-0.052-1.186,0.05-1.03,0.463c0.154,0.41,1.907,3.136,1.752,3.24c-0.155,0.102-3.557-0.155-5.31-2.314  C22.517,22.513,19.527,15.573,28.086,12.18L28.086,12.18z M53.554,28.732c3.35-0.617,6.29-4.472,6.65-10.795  c0.362-6.323-6.11-10.578-11.444-8.328c-6.702,2.826-6.702,9.406-4.95,14.136c1.753,4.73,6.393,5.603,9.744,4.986V28.732z   M49.07,11.82c2.53-1.823,6.29-0.154,7.474,0.77c1.186,0.926,2.268,5.45,2.268,5.45s-1.134-0.823-1.29-0.823  s-0.515,0.514-0.308,0.72c0.206,0.206,1.134,0.514,1.083,1.028c-0.052,0.514-0.206,1.234-0.36,1.13  c-0.156-0.102-2.27-2.26-2.58-2.21c-0.308,0.052-0.67,0.823-0.67,0.823s2.733,2.622,2.63,3.084c-0.103,0.463-1.03,1.645-1.186,1.542  c-0.154-0.103-3.144-3.24-3.453-3.24c-0.31,0-0.928,0.567-0.773,0.926c0.155,0.36,3.506,2.827,3.145,3.136  c-0.362,0.308-0.877,0.823-1.084,0.565c-0.206-0.256-2.372-2.62-2.732-2.62c-0.36,0-1.237,0.616-0.928,0.976  c0.31,0.36,2.217,1.953,1.907,2.108c-0.31,0.154-2.217,0.41-4.434-1.593s-4.846-7.35,1.29-11.77L49.07,11.82z M5.864,24.62  c0.206-0.154,0.206-1.388,0.464-2.416c0.257-1.028,1.752-1.748,2.01-1.902s-0.155-0.823-0.62-1.028  c-0.463-0.206-0.927,0.103-2.474,2.21c-1.547,2.108-0.825,3.033-0.825,3.033C4.524,24.877,5.659,24.774,5.864,24.62z M25.764,19.89  c0.413-0.154,0.104-1.337,0.568-2.313c0.464-0.977,1.495-2.005,1.495-2.005s-0.258-0.566-0.464-0.668  c-0.206-0.103-1.083,0.154-2.165,1.696c-1.084,1.542-0.852,2.667-0.723,2.827c0.206,0.258,0.876,0.618,1.29,0.463L25.764,19.89z   M48.861,16.24c0.36-1.13,1.547-2.21,1.856-2.467c0.31-0.257-0.103-0.668-0.464-0.668c-0.36,0-1.083,0.103-2.165,1.593  c-1.084,1.49-1.135,3.24-1.135,3.24c0.155,0.513,0.67,0.667,1.083,0.616C48.448,18.502,48.5,17.371,48.861,16.24L48.861,16.24z"/></svg>