<?xml version="1.0" ?><!DOCTYPE svg  PUBLIC '-//W3C//DTD SVG 1.1//EN'  'http://www.w3.org/Graphics/SVG/1.1/DTD/svg11.dtd'><svg id="Layer_1" style="enable-background:new 0 0 36.073 56.979;" version="1.1" viewBox="0 0 36.073 56.979" xml:space="preserve" xmlns="http://www.w3.org/2000/svg" xmlns:xlink="http://www.w3.org/1999/xlink"><path d="M20.59,25.607c6.617-1.422,9.068-6.519,9.019-12.794c-0.049-6.274-4.265-11.96-11.127-12.696  C11.62-0.617,5.591,2.128,3.924,7.177c-1.667,5.049-1.223,10.061,0.931,12.598C9.267,24.97,13.973,27.029,20.59,25.607z   M8.385,3.304c2.776-2.188,7.99-2.843,12.5-0.98c4.51,1.863,4.853,3.088,5.588,4.657c0.735,1.569,0.637,1.912,0.637,1.912  s-0.833-1.078-1.422-0.833c-0.588,0.245-0.637,0.539-0.245,0.833c0.392,0.294,2.451,2.451,2.451,2.745  c0,0.294,0.147,1.765-0.196,1.667c-0.343-0.098-2.304-2.402-2.598-2.206c-0.294,0.196-0.833,0.735-0.539,1.029  c0.294,0.294,2.745,2.549,2.696,2.843c-0.049,0.294-0.343,1.52-0.637,1.373c-0.294-0.147-2.598-3.186-2.843-2.99  c-0.245,0.196-0.882,0.637-0.539,0.931c0.343,0.294,2.892,2.745,2.843,3.039c-0.049,0.294-0.539,1.471-0.784,1.323  c-0.245-0.147-2.451-3.039-2.647-2.99c-0.196,0.049-0.735,0.833-0.539,0.98c0.196,0.147,2.402,2.794,2.402,2.794  s-0.49,0.784-0.735,0.784c-0.245,0-2.304-2.794-2.647-2.794c-0.343,0-1.029,0.245-0.686,0.882c0.343,0.637,2.843,2.794,2.696,2.941  s-1.52,1.176-1.765,0.833c-0.245-0.343-1.765-2.794-2.108-2.843c-0.343-0.049-0.882,0.245-0.833,0.637  c0.049,0.392,1.814,2.549,1.618,2.745c-0.196,0.196-1.176,0.343-1.373,0.245c-0.196-0.098-1.667-2.353-2.01-2.402  c-0.343-0.049-0.931-0.049-0.784,0.637c0.147,0.686,1.765,2.206,1.373,2.157c-0.392-0.049-5.686-0.147-9.313-2.941  S1.669,8.598,8.385,3.304z M35.443,45.852c-0.931-1.225-6.323-5.637-6.323-5.637s0.882,0.245,2.01-0.441  c1.127-0.686,1.52-2.794,1.618-6.421c0.098-3.627-1.225-6.323-2.843-6.323s-3.529,1.52-7.647,2.549  c-4.118,1.029-6.323,0.686-9.804-0.098c-3.48-0.784-6.72-2.415-8.284-1.912c-5.637,1.814-4.559,8.774-2.549,10.98  c2.01,2.206,6.078,2.549,6.078,2.549s-4.118,4.412-5.686,6.274c-1.569,1.863-3.088,4.755-0.049,7.353  c3.039,2.598,4.166,2.647,7.059,1.667c2.892-0.98,9.853-8.137,10.098-8.235c0.245-0.098,3.725,4.166,7.353,5.931  c3.627,1.765,6.225,1.618,8.088-0.931C36.423,50.607,36.374,47.077,35.443,45.852z M33.286,47.469c-0.147,0-3.186-2.696-3.578-2.5  c-0.392,0.196-1.078,0.588-0.539,0.98c0.539,0.392,3.774,2.745,3.627,2.99c-0.147,0.245-0.392,1.127-0.735,0.98  c-0.343-0.147-3.578-3.088-4.068-2.843c-0.49,0.245-0.882,0.784-0.392,1.127c0.49,0.343,3.725,2.206,3.578,2.5  s-0.539,0.931-0.882,0.686c-0.343-0.245-3.039-2.549-3.529-2.549s-0.98,0.392-0.588,0.686c0.392,0.294,3.333,2.304,2.941,2.353  c-0.392,0.049-1.176,0.392-4.902-2.451c-3.725-2.843-5.686-5.686-6.078-5.441c-0.392,0.245-8.823,9.411-11.078,9.657  c-2.255,0.245-4.461-0.294-5-2.451c-0.539-2.157,5.392-7.745,7.206-9.166c1.814-1.422,2.843-2.402,1.765-2.794  c-1.078-0.392-5.784-0.343-7.353-1.814c-1.569-1.471-3.333-6.274,1.029-8.333c0.948-0.447,6.127,2.108,12.598,2.353  c6.47,0.245,11.617-2.745,12.647-2.696c1.029,0.049,1.373,3.725,0.931,5.833c-0.441,2.108-0.441,2.843-2.402,3.137  c-1.961,0.294-3.431-0.294-4.019-0.049s-0.441,1.176,0.343,1.471c0.784,0.294,6.176,4.608,7.402,5.931  C33.433,46.391,33.433,47.469,33.286,47.469z M8.189,11.049c0.245-0.49,0.196-2.059,0.931-3.578c0.735-1.52,2.549-1.569,2.99-1.765  c0.441-0.196,0.392-1.078-0.049-1.372C11.62,4.039,9.659,3.941,7.944,6.294s-1.029,4.51-1.029,4.51  C7.306,11.196,7.944,11.539,8.189,11.049z M6.914,30.411c-0.735-0.098-2.402-0.333-3.333,0.784c-0.735,0.882-0.49,2.99-0.392,3.333  c0.098,0.343,0.343,1.225,1.078,1.127c0.735-0.098,0.931-0.588,0.735-1.078c-0.196-0.49-0.49-2.255,0.147-2.598  c0.637-0.343,1.225,0.049,1.814-0.049S7.649,30.509,6.914,30.411z M15.835,16.049c3.235,0.588,5.441-2.255,4.461-5.735  s-5.34-3.398-6.814-1.863C9.953,12.127,12.6,15.461,15.835,16.049z M16.473,10.069c1.247-0.088,2.5,0.686,2.598,1.912  c0.098,1.225-0.882,3.039-3.333,2.549C13.287,14.039,13.679,10.265,16.473,10.069z"/></svg>