<?xml version="1.0" ?><svg height="64px" id="Layer_1" style="enable-background:new 0 0 64 64;" version="1.1" viewBox="0 0 64 64" width="64px" xml:space="preserve" xmlns="http://www.w3.org/2000/svg" xmlns:xlink="http://www.w3.org/1999/xlink"><path d="M50.02,11.21C45.62,2.65,38.833-0.25,31.496,0.018C16.5,0.567,12.317,9.785,10.307,15.052  c-2.01,5.268-1.63,9.22,0.652,15.255s9.887,20.797,12.495,25.9S29.213,64,32.42,64c3.204,0,4.997-0.713,7.442-3.292  c2.445-2.58,8.91-14.76,12.17-23.54s2.39-17.396-2.01-25.957L50.02,11.21z M49.206,24.436c-0.435-0.055-0.652,1.097-0.598,1.317  s3.26,4.06,3.26,4.5c0,0.438-0.163,2.523-0.38,2.304c-0.217-0.22-3.042-3.84-3.26-3.84c-0.217,0-0.652,0.603-0.49,1.096  c0.164,0.494,3.206,4.06,3.206,4.61c0,0.548-0.543,3.182-0.87,2.853c-0.325-0.33-2.77-4.5-3.26-4.39  c-0.488,0.11-0.597,0.933-0.542,1.152c0.054,0.22,3.368,4.226,3.26,4.83c-0.11,0.603-0.543,1.59-0.543,1.59  s-3.098-4.445-3.424-4.445s-0.76,0.878-0.652,1.098c0.11,0.22,3.26,4.17,3.15,4.61c-0.108,0.44-0.923,2.03-0.923,2.03  s-2.715-4.5-3.15-4.61s-0.978,0.824-0.815,0.934c0.163,0.11,3.368,4.445,3.205,4.774c-0.163,0.33-1.14,1.81-1.14,1.81  s-3.152-4.28-3.37-4.28c-0.216,0-1.03,0.934-1.03,0.934s3.367,4.06,3.26,4.554s-0.925,2.14-1.196,1.92  c-0.272-0.22-3.26-4.554-3.586-4.554s-1.087,0.713-0.978,1.098c0.11,0.384,3.64,5.048,3.586,5.323  c-0.054,0.275-1.195,2.03-1.195,2.03S37.744,48.8,37.418,48.8s-0.978,0.768-0.87,0.933c0.11,0.165,3.478,4.83,3.424,5.158  c-0.053,0.33-1.194,1.373-1.194,1.373s-3.205-4.5-3.423-4.554c-0.217-0.056-0.76,0.712-0.706,0.987  c0.054,0.274,3.368,4.006,3.097,4.554c-0.272,0.55-1.14,1.153-1.304,1.208s-2.608-4.5-3.15-4.554  c-0.544-0.055-1.142,0.44-0.925,0.823c0.217,0.384,3.26,4.554,2.934,4.94c-0.327,0.383-1.577,0.273-1.577,0.273  s-2.39-3.896-2.717-4.006c-0.326-0.11-1.087,0.33-0.978,0.494c0.11,0.165,2.336,3.732,2.173,3.786  c-0.162,0.055-3.15-0.055-6.356-4.94c-3.205-4.883-11.68-20.412-13.69-26.613s-1.305-11.687,1.63-17.23  C16.716,5.89,24.54,1.72,31.548,1.664c4.51-0.035,9.56,0.384,14.885,6.64c5.324,6.256,5.922,14.212,5.76,14.212  s-1.577-2.305-1.902-2.305s-0.815,0.604-0.652,1.043c0.164,0.44,2.446,3.512,2.554,4.006c0.11,0.493,0.11,3.346-0.054,3.29  C51.976,28.497,49.639,24.49,49.206,24.436L49.206,24.436z M17.966,10.004c-3.748,3.786-4.29,8.23-4.29,8.23s0.597,0.44,0.977,0.33  s0.11-0.494,1.032-2.908c0.924-2.414,2.988-4.664,2.988-4.664S18.313,9.655,17.966,10.004L17.966,10.004z M30.734,9.181  c-1.467,0.166-1.304,1.702-1.032,2.416c0.272,0.713-0.054,5.213-3.477,6.036s-5.49-1.76-5.65-1.646  c-3.042,2.14-2.282,9.383,1.14,14.542c3.424,5.158,11.464,5.816,16.57,2.963c5.108-2.853,8.368-8.834,5.108-16.79  C40.133,8.744,32.201,9.018,30.734,9.181L30.734,9.181z M42.09,22.79c-0.544,8.12-5.76,10.755-10.812,10.536  c-5.053-0.22-7.17-3.896-8.095-5.872c-0.924-1.975-0.815-6.2-0.11-6.53c0.248-0.115,3.804,1.043,7.172-1.81s3.314-5.872,3.966-6.092  S42.634,14.668,42.09,22.79L42.09,22.79z"/></svg>