<?xml version="1.0" ?><!DOCTYPE svg  PUBLIC '-//W3C//DTD SVG 1.1//EN'  'http://www.w3.org/Graphics/SVG/1.1/DTD/svg11.dtd'><svg id="Layer_1" style="enable-background:new 0 0 39 58;" version="1.1" viewBox="0 0 39 58" xml:space="preserve" xmlns="http://www.w3.org/2000/svg" xmlns:xlink="http://www.w3.org/1999/xlink"><path d="M31.83,3.89C26.475-0.836,13.522-1.458,7.544,3.144s-7.41,12.872-7.535,16.914  S1.024,56.692,1.338,57.12c0.457,0.622,8.51,1.057,11.998,0.808s3.487,0.062,3.923-1.555s0.062-33.145,0.249-36.441  s2.989-5.037,4.795-4.602s2.615,3.109,1.495,5.286s-4.234,1.866-4.546,1.866s-1.059,2.052-0.996,2.674  c0.062,0.622,0.498,12.561,0.685,13.183c0.187,0.622,0.934,0.808,2.304,0.933s5.418-0.062,9.154-1.928s6.103-3.234,8.033-13.93  C40.362,12.72,37.186,8.616,31.83,3.89z M33.221,16.949c0.125,0.166,2.657,2.943,2.823,3.565c0.166,0.622-0.166,3.026-0.208,2.902  c-0.041-0.124-2.74-3.98-2.989-3.98c-0.249,0-0.747,0.788-0.498,1.078c0.249,0.29,3.155,4.063,3.155,4.187s-0.664,2.363-0.747,2.197  c-0.083-0.166-2.283-4.643-2.615-4.643c-0.332,0-0.415,0.29-0.415,0.622s2.74,4.768,2.657,4.975  c-0.083,0.207-0.581,1.741-0.581,1.741s-2.74-4.602-2.948-4.602c-0.208,0-0.872,0.456-0.664,0.705  c0.208,0.249,3.114,4.809,3.031,4.975c-0.083,0.166-0.955,1.617-1.162,1.492c-0.208-0.124-2.491-5.058-2.823-5.099  c-0.332-0.041-0.706,0.373-0.581,0.58c0.125,0.207,3.031,5.182,2.615,5.389c-0.415,0.207-1.162,0.788-1.328,0.622  c-0.166-0.166-2.325-4.394-2.74-4.519c-0.415-0.124-0.789,0.622-0.54,0.912c0.249,0.29,2.823,4.229,2.408,4.394  c-0.415,0.166-1.536,0.829-1.702,0.746c-0.166-0.083-2.283-4.104-2.698-4.229s-0.996,0.663-0.706,0.953  c0.291,0.29,3.072,3.482,2.657,3.69c-0.415,0.207-2.034,0.622-2.283,0.497c-0.249-0.124-1.744-3.482-2.076-3.69  c-0.332-0.207-0.789,0.415-0.664,0.622c0.125,0.207,1.785,2.985,1.328,3.026s-2.781,0.083-2.864-0.124  c-0.083-0.207-0.415-11.898-0.208-11.981c0.208-0.083,4.899-0.497,5.397-3.855c0.498-3.358-0.249-5.058-2.366-5.928  s-6.435-0.912-7.888,3.317c-1.453,4.229-0.166,19.692-0.125,20.77c0.041,1.078,0.083,1.534,0.083,1.534s-2.2-3.275-2.408-3.275  c-0.208,0-0.498,0.995-0.332,1.161c0.166,0.166,2.948,4.104,2.948,4.394c0,0.29,0.042,4.726-0.083,4.726s-3.944-8.126-4.193-8.084  c-0.249,0.041-0.415,0.995-0.166,1.534c0.249,0.539,4.484,8.126,4.442,8.416c-0.041,0.29-0.125,2.404-0.249,2.363  c-0.125-0.041-4.484-9.162-4.857-9.038c-0.374,0.124-0.623,0.58-0.498,0.788s5.563,9.618,5.563,9.95s0,2.322-0.125,2.363  s-0.581,0.124-0.623,0c-0.042-0.124-4.899-9.328-5.314-9.203C8.644,46.01,8.271,46.3,8.478,46.59  c0.208,0.29,5.065,8.457,4.774,8.457c-0.291,0-0.913,0.166-1.079,0c-0.166-0.166-3.902-6.467-4.193-6.384  C7.69,48.746,7.191,49.326,7.565,49.7c0.374,0.373,4.027,5.348,3.736,5.348c-0.291,0-1.951,0.124-2.117,0  c-0.166-0.124-2.366-4.187-2.615-4.187c-0.249,0-1.121,0.539-0.581,1.078c0.54,0.539,2.491,3.151,2.283,3.151  c-0.208,0-0.54,0.332-0.872,0c-0.332-0.332-2.242-2.736-2.242-2.736s-1.121,0.622-0.747,1.036c0.374,0.415,1.868,1.534,1.536,1.534  c-0.332,0-3.28,0.373-3.487,0.124c0,0-0.664-27.113-0.789-31.466S1.961,11.974,5.116,8.077s7.556-7.96,16.606-6.053  c9.05,1.907,11.25,4.685,12.869,8.126c1.619,3.441,1.287,3.897,1.162,3.814c-0.125-0.083-1.661-1.783-1.868-1.617  c-0.208,0.166-0.415,0.705-0.208,0.912c0.208,0.207,2.408,2.197,2.532,2.695c0.125,0.497,0,3.317-0.166,3.151  c-0.166-0.166-2.242-3.317-2.449-3.234C33.387,15.954,33.096,16.783,33.221,16.949z M8.634,8.305  c-0.56-0.124-2.491,0.777-4.141,4.073s-1.121,6.575-0.996,6.84c0.218,0.466,1.027,0.093,1.339-0.062  c0.311-0.155,0.342-3.918,0.965-6.498S8.79,8.927,8.914,8.865S9.195,8.429,8.634,8.305z" style="fill:#232021;"/></svg>