<?xml version="1.0" ?><svg enable-background="new 0 0 64 64" viewBox="0 0 64 64" xmlns="http://www.w3.org/2000/svg"><path d="M59.382 16.042c-1.25-2.88-4.866-7.887-8.884-10.767C46.48 2.395 38.802-.395 33.49.047 28.178.49 21.75 2.66 18.625 4.39c-3.125 1.727-7.053 6.07-8.973 8.196-1.92 2.127-4.687 6.558-5.446 11.165-.76 4.61.68 7.393 2.634 8.33 8.393 4.033 11.65-2.88 13.75-6.38 2.097-3.5 4.017-8.33 7.5-11.652s10.088-5.095 13.213-3.677 6.116 4.963 7.41 8.862c1.295 3.9.402 9.393-.49 12.318-.894 2.924-3.215 5.05-6.34 6.203-3.125 1.152-5.535.266-6.116-.133-.58-.4-.804-.886-.446-2.437.358-1.55 1.43-5.76-1.16-9.836-2.59-4.076-8.17-3.057-10.982-.93S18.58 30 17.688 34.475c-.894 4.475 1.83 9.216 1.83 9.216s-.358.577-1.072 2.88c-.714 2.305-1.34 6.115-1.473 9.26s-.49 7.002 1.25 7.8c1.74.797 3.75.354 5.982-1.73 2.232-2.08 6.205-8.64 6.205-8.64s2.59.356 5.357.267c2.768-.09 5.357-.177 11.83-4.032S57.82 37 59.917 30.043s.715-11.12-.535-14zm-1.34 8.595c-.133-.266-1.16-1.95-1.517-1.64-.357.31-.357 1.463.134 2.128.49.665 1.25 1.506 1.25 1.728s-.224 2.038-.447 1.905c-.223-.133-1.518-2.437-1.92-1.95-.402.487-.402 1.152-.045 1.506s1.473 1.772 1.428 2.082c-.045.31-.714 2.836-.937 2.703-.224-.134-1.162-3.147-1.608-3.058-.446.09-.76.71-.58 1.24.18.533 1.562 2.88 1.518 3.368-.045.487-.58 1.418-.714 1.24-.134-.176-1.43-3.366-1.74-3.41-.314-.045-.76.575-.626 1.195.134.62 1.473 3.1 1.473 3.367 0 .266-.67 1.33-.804 1.24-.135-.088-1.52-3.145-1.742-3.145-.223 0-.848.354-.804.798.045.443 1.875 3.28 1.74 3.633-.133.355-1.026 1.64-1.16 1.418-.134-.222-1.607-3.9-1.875-3.9s-.715.444-.67.976c.044.532 1.874 3.722 1.785 3.855-.09.133-.67.753-.893.665-.223-.09-1.562-3.234-1.92-3.19-.357.044-1.027.798-.848.975.18.177 1.786 3.102 1.74 3.28-.044.176-.892.797-1.07.752s-1.74-3.5-2.143-3.546c-.4-.044-.98.354-.758.886.223.532 1.875 3.146 1.786 3.367-.09.222-1.16.975-1.295.798-.134-.177-2.143-4.21-2.366-4.21-.223 0-1.07.666-.893.976.18.31 2.143 3.634 2.01 3.767s-1.296.665-1.474.532c-.18-.134-2.01-4.52-2.277-4.52s-1.027.354-.937.71c.09.354 2.098 4.518 2.098 4.518s-1.116.487-1.295.4c-.18-.09-2.278-5.584-2.5-5.584s-1.162.266-1.028.487c.134.223 2.455 5.274 2.455 5.406 0 .133-1.027.576-1.16.4s-2.68-5.938-2.903-5.983c-.223-.044-.76.443-.76.443s2.813 5.583 2.635 5.627c-.18.044-1.25.266-1.43.044-.18-.222-2.59-6.336-2.857-6.38-.268-.044-1.16 0-1.027.266.134.266 2.634 6.336 2.455 6.336s-1.026.088-1.204-.045-2.59-6.646-2.902-6.868c-.313-.222-1.07.222-.937.355s2.99 6.47 2.678 6.47c-.313 0-1.964-.62-2.143-.8-.18-.176-2.054-5.626-2.545-5.76-.49-.132-1.205-.088-.893.444.313.532 2.41 4.962 2.277 5.05s-.624.488-.803.444c-.18-.044-2.187-3.412-2.545-3.456-.357-.044-.804.443-.625.753s2.277 3.722 2.277 3.988-.268.753-.446.532c-.18-.222-1.74-3.412-2.187-3.146-.445.267-.49 1.02-.356 1.374.134.355 1.92 2.79 1.786 3.323s-.313.71-.536.576-1.696-3.102-2.054-2.924c-.357.176-.848.974-.536 1.328.313.354 2.098 2.747 1.964 3.146-.134.4-.402.798-.49.665-.09-.134-1.25-2.394-1.474-2.35-.223.045-.714.887-.58 1.197.134.31 1.473 2.082 1.295 2.393-.18.31-.447.753-.58.665-.135-.09-1.25-1.595-1.52-1.595s-.803.665-.535 1.02c.268.353 1.473 1.86 1.384 2.08-.09.223-.67 1.02-.85.754-.178-.266-.936-1.64-1.16-1.595-.223.043-.67.752-.357 1.284s.893 1.152.714 1.55c-.18.4-1.25.843-1.34.666-.088-.177-.758-4.165.224-8.95s2.724-8.374 2.546-8.73c-.18-.354-2.634-3.72-2.143-7.93.49-4.21 2.634-8.02 4.777-9.526s5.625-3.102 9.15-.044.626 10.545.626 10.944c0 .4.76 2.836 2.946 3.146 2.187.31 7.41 0 9.553-2.348s4.91-6.114 4.82-11.52c-.088-5.406-.98-9.703-3.66-12.76s-6.116-4.61-9.017-5.008c-2.902-.4-8.928.09-11.785 2.48-2.857 2.394-4.464 3.81-6.027 6.78-1.562 2.97-2.143 6.292-4.42 8.064-2.276 1.772-3.838 2.79-5.267 2.038-.95-.5-2.903-3.28-2.278-7.09s5.178-9.26 7.32-11.74c2.144-2.482 10.313-6.115 13.84-6.736s9.91-.487 14.553 1.506c4.643 1.994 7.544 3.677 9.375 6.47 1.83 2.79 3.527 5.803 4.018 7.62.49 1.817.625 2.26.49 2.26s-.58-.842-.98-.576c-.403.266-.76.93-.27 1.55.492.62 1.474.93 1.52 1.463.048.532-.04 2.88-.175 2.614zm-44.863-10.5c-.85-.09-2.635 4.208-2.903 6.29-.268 2.083.45 2.95 1.027 2.837.67-.133.268-1.684.268-3.013 0-1.328.982-3.72 1.652-4.696s.803-1.33-.045-1.418zM25.365 27.25c-1.473.976-2.723 2.88-3.125 4.122s-.088 2.97.58 2.97c1.162 0 .626-2.615 1.697-4.432 1.07-1.817 3.08-1.86 3.348-1.86s.536-.31.49-.93c-.043-.622-1.516-.843-2.99.13zM48.088 6.34c-2.098-1.418-4.91-2.658-5.982-2.836-.66-.11-1.027.71-.268 1.108s4.464 1.595 6.428 3.59 3.125 4.43 3.75 4.43 1.07-.4.313-1.55c-.76-1.153-2.144-3.324-4.242-4.742z"/></svg>