<?xml version="1.0" ?><svg enable-background="new 0 0 64 64" viewBox="0 0 64 64" xmlns="http://www.w3.org/2000/svg"><path d="M56.865 22.21s.236-3.78 0-5.528c-.236-1.748-6.143-1.606-6.143-1.606s-.094-5.906-.047-7.89-.567-3.166-2.41-3.638c-1.843-.472-13.987-.71-20.65-.425S14.858 4.54 14.48 5.06c-.38.52.566 10.016.566 10.016s-1.087.047-2.457.094c-1.37.047-3.735 1.228-4.113 1.843-.378.614.473 6.52.473 6.52s-2.362.095-3.826.142c-1.465.047-4.242.622-4.63 1.134-.9 1.18-.332 24.377-.143 27.26.19 2.88 2.034 3.826 2.6 3.92.568.095 11.625.047 12.19.236.57.19.19 2.693.38 3.544.19.852 2.693 1.23 4.064 1.23s10.632-.898 17.672-1.18c7.04-.284 10.963-.143 12.097-.804 1.134-.66.71-4.063.71-4.063s2.976 0 4.063.094c1.087.094 9.072.425 9.498.094.425-.33.33-26.22.378-29.953.047-3.732-7.135-2.976-7.135-2.976zm-1.654-4.913c.144.52.616 4.44.286 4.536-.33.095-.567.19-.567.047s-.237-1.04-.615-1.843-.898-1.748-1.228-1.843c-.33-.094-.803.425-.71.614.095.19 1.75 2.93 1.513 2.93s-.946-.048-.946-.048-1.276-3.024-1.465-3.024-.57.236-.57.236l-.235-2.032c.235-.093 4.393-.093 4.535.427zm-3.542 4.488l-.71-.047v-1.323c.143.094.71 1.37.71 1.37zM16.04 6.052c.188-.142 7.796-1.7 17.246-1.7S47.51 4.067 48.69 5.72c1.18 1.653.472 15.92.472 15.92s-9.592-.046-18.192.615c-8.6.662-13.845.992-14.08.756 0 0-.662-9.4-.804-12.38-.142-2.974-.236-4.44-.047-4.58zm-6.097 11.34c.378-.473 2.457-.993 3.638-.993 1.183 0 1.514-.097 1.56.14.048.236 0 1.37 0 1.37s-.566-1.04-1.04-.756c-.47.283-.66.567-.52.756.144.19 1.75 2.978 1.75 2.978l.14 1.843s-2.93-5.762-3.353-5.526c-.425.236-.614.567-.52.756.095.188 2.552 5.48 2.552 5.48h-.66s-1.845-3.544-2.223-3.496c-.378.047-.662.614-.662.614s1.323 2.835 1.18 2.835-1.133.095-1.133.095c-.14-.427-1.085-5.624-.707-6.097zm38.133 40.49c-.284.142-11.01.71-20.366 1.087s-10.018.33-10.254-.05c-.236-.377.19-6.236.284-7.23.094-.99.473-3.825.66-4.014.196-.195 5.34-.803 13.988-1.323 8.647-.52 15.357-.614 15.924-.142.567.473.047 11.53-.236 11.67zm14.27-18.38c0 .284.284 3.214 0 3.26-.284.048-.425.237-.472-.094-.047-.33-2.74-7.37-3.072-7.418-.33-.047-1.228.614-.992.71.236.093 3.686 8.456 3.686 8.456v4.63s-4.347-8.363-4.914-9.308c-.567-.945-.425-2.6-1.04-2.504-.614.094-.945.66-.33 1.89.613 1.228 6.236 11.103 6.236 11.245 0 .14.33.66.142.66-.19 0-1.938.14-2.08-.143-.14-.283-6.898-13.37-7.37-13.607-.472-.235-1.04.473-.945.615.094.142 7.182 12.615 6.993 12.71-.19.094-3.072.377-3.686.377-.614 0-1.512-.047-1.607-.378-.094-.33-.378-3.307-.047-3.07.33.235 1.607 2.41 2.08 2.503.47.095.424-.33.283-.614-.14-.283-4.912-9.733-5.67-10.583-.754-.85-.85-1.04-1.32-.85-.474.19-.474.425-.237.662.236.236 2.457 3.78 2.173 3.827-.284.045-.756.234-1.134-.144-.377-.378-2.74-4.49-3.306-4.49s-1.087.332-.71.757c.38.425 3.12 4.063 2.458 4.016-.66-.048-1.89-.048-2.126-.237-.236-.19-1.795-3.213-2.126-3.26-.33-.047-.71.047-.567.378.142.33 1.654 2.836 1.418 2.93-.235.094-.99.425-1.133.19-.142-.237-2.41-3.403-2.693-3.356-.284.047-.945.71-.66.992.283.283 1.89 2.315 1.558 2.457-.33.142-1.512.425-1.89.236-.378-.19-2.032-2.505-2.315-2.505s-1.18 0-.803.472c.378.472 1.607 2.173 1.323 2.22-.284.048-1.134.095-1.512-.046-.378-.14-1.56-1.747-1.843-1.7-.284.047-.898.14-.33.567.566.425 1.464 1.37.99 1.37-.472 0-7.985-.236-12.332-.047s-6.568-.093-7.42 1.135-.424 4.394-.566 5.81c-.142 1.418.33 2.552-.19 2.552s-7.89-.047-9.308-.094c-1.42-.047-1.607.047-2.08-.236s-1.323-1.37-1.37-5.197c-.047-3.827-.047-20.694.236-21.072.19-.254 2.788-1.087 8.222-1.323s10.868-.66 15.782-1.04c4.914-.377 10.065-.99 16.633-.85 6.568.143 18.38.804 19.137 1.23.756.424.945 1.133.945 3.212s.094 10.3.094 10.3-1.23-3.827-1.655-3.496c-.425.333-.52.85-.52.85s1.984 4.16 1.984 4.444zM20.93 50.912c.318.073 3.224-.636 9.107-1.026 5.883-.39 12.58-.177 13.254-.213s1.03-.992.144-1.31c-.886-.32-4.926-.178-10.915.07s-11.66.673-11.944 1.17c-.142.248.035 1.24.354 1.31zm22.858 1.63c-.425-.28-6.556-.175-12.864.144-6.308.32-11.447 1.123-11.447 1.488 0 .283-.035 1.17.248 1.24.284.07 3.296-.638 10.596-1.31 7.3-.674 12.76-.25 13.22-.355.46-.108.674-.923.25-1.206zm.425-37.31c-.46-.32-3.792-.32-13.183 0-9.39.32-12.037 1.04-12.12 1.346-.106.39-.07 1.063.32 1.276.39.213.318 0 1.098-.177s4.5-.85 10.348-1.098c5.847-.25 12.475.105 13.36 0 .886-.11.637-1.03.177-1.35zm-25.446-3.19c.602.14 5.777-.674 11.73-1.064 5.954-.39 12.227.035 13.22.035s1.098-.886.39-1.417c-.71-.532-8.825-.213-13.964-.142-5.14.07-11.803.99-11.872 1.098-.246.392-.104 1.35.498 1.49zM2.75 27.56c-.39.568-.145 5.456.212 5.812.213.213.886.213 1.24 0s-.106-4.43-.106-4.713 3.19-.85 3.686-.96c.496-.105.78-.99.284-1.346-.497-.353-4.927.64-5.317 1.206zm52.697-.78c-1.24.284-3.367 1.312-2.977 3.722.39 2.41 1.737 3.33 4.217 3.19 2.48-.143 3.544-2.27 3.048-4.218s-1.674-3.29-4.288-2.693zm.532 5.494c-2.02-.106-2.128-2.02-2.057-2.8.07-.78 1.24-1.346 2.197-1.275.71.05 2.27.494 2.34 1.805s-.46 2.374-2.48 2.268z"/></svg>