<?xml version="1.0" ?><svg height="64" viewBox="0 0 64 64" width="64" xmlns="http://www.w3.org/2000/svg"><path d="m60.91 26.82c-.22-1.35-4.43-7-4.43-7a4.93 4.93 0 0 0 1.4 0 1.75 1.75 0 0 0 1.46-1.29c0-.45-6.45-8.13-8.86-11.11s-6.68-7.52-14.31-6.18a18.09 18.09 0 0 0 -14.58 12.34c-2 6.12 3.2 12.57 6.73 16.83s3.68 4.94 6.28 10.71 1 10.94-2.52 13.63-8.25 2.19-10.21.85-7.35-7.13-7.35-7.13a20.34 20.34 0 0 0 3.59 2.19 2.3 2.3 0 0 0 2.64-1.66c.73-1.74-1.4-3.26-1.4-3.26s2.52.62 3.59-.11a2 2 0 0 0 .67-2.41c-.17-.75-10.61-11.29-10.94-11.52a.5.5 0 0 1 .28-.84c.39 0 8.42 9.09 10.66 10.88s3.08 1.74 4.26.73a2.92 2.92 0 0 0 .51-3.7 27 27 0 0 0 -3.48-4s2.75 2.13 3.76 2.24 1.4-1.85 1.34-2.63-8.07-8.7-8.69-9.82.34-2.13.45-2.35-2-2.3-2-2.3a2.59 2.59 0 0 0 -2.58-.57 1.88 1.88 0 0 0 -1.29 2.25s-2-1.4-3.65-.34-.73 3.54-.73 3.54a2.67 2.67 0 0 0 -1.06-.85 3.15 3.15 0 0 0 -4 .85c-1.68 1.79.06 4.48.06 4.48a2.57 2.57 0 0 0 -1.35.23c-1 .33-2.46 2.24-2.07 3.53s7.07 8.53 7.07 8.53a10.11 10.11 0 0 0 -3.71.33c-1.79.56-1.14 2.85-.56 3.71a45 45 0 0 0 3.59 5.16c2 2.41 9.2 12.22 18.46 12.28s13.29-7.07 15.59-12.51-.4-11.59-2.53-14.96-9.65-9.42-12.06-12.57.17-10.66 4.15-13.41 6.45-2.46 10.54-.78 6.57 5.44 6.23 6c0 0-1.35-.73-2-.5s-.62 2.07-.56 3.08 1.12 2.41.72 2a3.33 3.33 0 0 0 -2.63-.78c-1.63 0-1.8 2.86-1.8 2.86l-.84-.23a2.37 2.37 0 0 0 -2 .11c-.51.4-1.07 3-1.07 3a7.89 7.89 0 0 0 -2.68-.5c-.89.17-1.23 2.19-.28 3.2s7.87 9.25 8.43 9.95-1 .68-1.57.79-.28.73-.11 1.06a7.56 7.56 0 0 0 4.26 3.09 2.25 2.25 0 0 0 2.75-1.46s1 .62 3.19-.28a2.48 2.48 0 0 0 1.8-2.8 7.68 7.68 0 0 0 1.85-.56 4.22 4.22 0 0 0 1.91-3.15 3.54 3.54 0 0 0 -.73-2.8 3.07 3.07 0 0 0 1.57-.9 3.36 3.36 0 0 0 .84-3.17zm-4.1 1.91c-1 .05-1.62-.23-1.79-.11a2 2 0 0 0 -.11 1.4c.17.22 1.9 2.47 1.29 3.76a1.74 1.74 0 0 1 -2.41.95c-.57-.34-1-.84-1.24-.79s-.73.51-.39.79 1.23 1.57.62 2.3-1.29 1.51-2.53.78-1.25-.81-1.57-.67a.6.6 0 0 0 -.39.67 1.28 1.28 0 0 1 -.79 1.74c-1.23.51-2.8-.73-2.8-.73s2.92-.56 2.24-2-9.87-11-9.64-11.44.22-.73.78-.51a13.23 13.23 0 0 1 2.08 1c.11.17 8.18 9.48 8.8 9.65s2.25-.4 1.74-1.74-9.31-10-9.31-10.66a1 1 0 0 1 1.29-.9c.67.23 8.69 9.82 9.25 10.1s2.81-.79 2-2.41-8.47-9.71-8.24-10a1.1 1.1 0 0 1 1.31-.1c.28.28 6.9 7.4 7.63 7.74s2.3-.22 2.07-1.29-8.41-9.65-8-10.26 1.23-.34 1.62-.34 1.07-.73 1.18-1.12a1.83 1.83 0 0 0 -.17-1.24 17.76 17.76 0 0 0 -9-7.18c-5.89-2-9.76-.16-13.23 3.26s-4.38 10.88-2 14 11.43 10.9 13.45 14.94 2.13 13-3.48 17.39-11.44 6.9-18.07 1.46-11.89-13-11.83-14c0-.56 1.06-.89 2.24-.67s3.37 1.46 3.87 1.4.62-.5.51-.67-8.87-9-9.2-9.76.56-3.2 1.74-2.8 2.63 2.07 3.14 1.73a.83.83 0 0 0 .33-1.06c-.16-.2-2.8-2.16-2.8-3.9s.78-2.53 2-2.36 3 1.68 3.36 1.57 1-.5.9-.67-1.57-2.75-.62-3.7 2.08-.4 3.09.45 1.85 1.62 2.08 1.51.72-.67.61-.9-1.9-1.79-1.12-2.69 2.64 1 2.64 1a2.63 2.63 0 0 0 -.15 3.35c1.46 1.68 6.9 7.23 6.85 7.62s-.11.51-.34.51-8.86-8.53-10-8.92-2.3 1.26-1.55 2.11 8.69 8.68 10.65 10.68 2.47 3.09 1.52 3.82-1.18.84-3-1-10.6-11.49-12-12.11-1.79-.34-2.24.39.62 2.58 2 3.93 10.6 11.05 10.49 11.38-.45 1-.9.56-10.73-9.91-11.8-10.36a1.57 1.57 0 0 0 -2.13.9c-.17.61.51 1.45 2.36 3.3s9.59 8.59 9.76 9.82.33 1.68-.17 1.68-5.22-4.26-6.56-4.37-2.3.78-2.08 1.51 8.35 8.7 10.94 10.44 8.69 1.29 11.72-1.89 6.68-5.77 5-12-4.48-9.14-9.08-14.3-8.14-10.94-5.78-16.1 6.44-9.79 15.14-10.12 18.84 14.86 18.67 15.14-2.18.62-4.15-.11-1.79-.56-2-.39-.11.56.12.73 7.23 8.3 7.18 9.25a1.59 1.59 0 0 1 -1.6 1.63z" fill="#1d1d1b"/></svg>