<?xml version="1.0" ?><svg enable-background="new 0 0 64 64" viewBox="0 0 64 64" xmlns="http://www.w3.org/2000/svg"><path d="M63.707 39.924c-.334-1.942-3.437-7.436-3.437-7.436s.143-2.368-.716-6.157c-.86-3.787-2.912-7.766-8.974-13.496S32.44 6.677 32.25 6.677c-.19 0-1.575-1.942-3.82-3.315-2.243-1.373-7.35-3.504-14.13-1.61C7.523 3.645 4.23 8.43 2.606 11.176.982 13.922-.88 18.136.456 23.442c1.338 5.305 5.11 8.004 5.11 8.004.86 9.662 3.913 15.772 6.634 19.37 2.72 3.6 7.733 7.153 12.46 9.19 4.725 2.036 16.706.662 16.706.662 3.437 1.658 6.97 1.61 10.788.71 3.82-.9 7.113-4.31 9.786-9.71s2.1-9.802 1.767-11.744zM61.32 42.15c-.143-.19-8.4-9.71-8.783-9.567-.382.142-.525.758-.286.947.24.19 8.976 9.283 9.024 9.567.048.284-.048 2.51-.19 2.416-.144-.095-8.546-9.14-8.784-9.046-.24.095-.526.52-.335.947.19.426 8.974 8.667 8.926 9.094-.046.426-.762 2.984-1.144 2.747-.382-.237-8.4-9.662-8.688-9.473-.286.19-.62.663-.19 1.09.43.425 8.64 8.81 8.64 9.045 0 .237-1.194 2.463-1.433 2.226-.24-.237-8.83-10.23-9.26-10.136-.43.095-.526.663-.335.947.19.284 9.212 9.473 9.07 9.662-.144.19-1.624 1.516-2.006 1.326-.382-.19-8.354-9.71-8.592-9.615-.24.095-.764.995-.573 1.184.19.19 8.64 8.67 8.495 8.906s-1.957 1.658-2.196 1.468c-.24-.19-8.546-8.904-8.69-8.857-.142.047-.667.616-.43.9.24.284 8.546 8.146 8.26 8.43-.287.285-2.245.948-2.53.854-.287-.094-6.54-7.01-7.066-7.01-.525 0-.86.664-.477.948.382.284 6.397 6.3 5.92 6.347-.478.047-2.626-.047-3.008-.237-.383-.19-5.06-6.3-5.538-6.252-.477.047-.907.616-.43 1.042.477.426 4.392 4.926 3.962 4.878-.43-.047-1.814-.9-2.053-.9s-1.05.047-1.05.047-4.104-4.547-4.39-4.547c-.287 0-1.05.38-.81.568.237.19 3.912 3.836 3.674 4.12-.24.285-1.91.522-2.1.285-.19-.238-3.676-4.12-4.153-3.98-.476.142-1.097.332-.715.663.382.33 3.82 3.41 3.294 3.457-.526.046-1.48.046-1.767-.143-.286-.19-3.77-2.794-4.535-2.842-.765-.047-1.29.474-.813.71.477.237 3.15 1.895 2.625 2.037-.525.142-5.012-.71-7.924-1.895-2.912-1.184-6.73-3.6-9.26-6.868S8.616 40.63 8.092 37.5c-.525-3.126-1.002-6.726-1.002-6.726S2.987 27.32 1.984 24.05s-.81-7.76 1.862-12.117C6.52 7.575 11.58 3.265 15.35 2.555c3.772-.71 11.17.426 13.606 2.605 2.435 2.18 2.96 2.842 2.96 2.842s12.316 1.184 16.47 4.784 4.438 4.073 4.438 4.073-1.48-1.09-1.67-.855c-.192.237-.335.805.763 1.895 1.098 1.09 1.48 2.038 1.91 1.896.43-.142.142-1.042.142-1.042s2.96 3.647 3.292 5.163c0 0-4.82-4.878-5.06-4.594-.24.284.048 1.42.382 1.752.334.33 5.203 4.452 5.346 4.69.144.236.908 3.646.622 2.983-.286-.663-6.253-6.015-6.54-5.826-.286.19-.477.663-.24.995.24.33 6.875 5.778 6.923 6.015.048.237-.096 2.89.24 3.268.333.38 1.336 2.32 1.145 2.084-.19-.237-8.067-8.052-8.45-8.004-.38.047-.572.52-.38.71.19.19 9.355 8.24 9.403 8.525.048.284.573 1.847.716 3.22.14 1.373.092 2.605-.05 2.415zM9.813 11.46c-1.337.567-3.485 2.415-4.774 4.925-1.29 2.51-1.175 5.907-.766 6.205.716.52 1.337-.19 1.29-.995-.05-.805.047-3.22 1.05-5.115s3.58-3.647 4.534-4.12c.954-.475 1.145-.806.858-1.232-.285-.427-.858-.237-2.195.33zm6.54 9.424c-.86.663-2.005 2.984-2.1 4.642-.095 1.658.86 3.363 1.24 3.458.574.142 1.05-.142 1.147-.616.096-.474-.62-1.516-.764-2.51s.955-2.463 1.432-3.552c.477-1.09-.096-2.085-.955-1.422zm26.54-7.152c-.476.095-.81.474-.667.853.143.38 1.48 1.137 3.294 2.32 1.814 1.185 2.196 4.17 2.435 4.737.24.568.716.33 1.098 0 .382-.332.095-.995-1.29-4.073-1.384-3.08-4.492-3.913-4.87-3.84zm-1.813 4.453c-4.2-2.51-9.847-2.244-12.793-1.847-3.867.52-7.638 2.7-8.88 6.82-1.24 4.12 1.433 7.483 3.056 8.81 1.623 1.326 7.494 2.984 9.786 3.79 2.29.804 3.244 2.888 2.67 4.12-.572 1.23-1.67 1.42-4.677 1.042-3.007-.38-6.635-3.884-9.404-4.357-2.77-.474-3.438 2.605-3.104 4.736.334 2.13 2.578 4.83 6.588 6.44 4.01 1.61 9.26 1.136 12.745.046 3.484-1.09 6.252-3.315 7.112-7.768.86-4.453-.048-5.92-2.912-7.816-2.863-1.894-10.167-2.984-12.172-3.647-2.005-.663-1.862-3.173-.955-3.98.907-.804 4.487-2.036 5.87-1.562 1.385.474 5.156 3.93 6.923 4.594 1.766.662 3.485-1.327 3.962-2.653.478-1.326.383-4.262-3.818-6.772zm2.387 6.915c-.477 1.137-1.814 2.084-4.01.332-2.196-1.752-3.485-4.263-6.826-3.93-3.34.33-5.49 1.75-6.11 3.03-.62 1.28-.475 4.168 1.72 5.163 2.196.995 8.4 2.13 11.218 3.458 2.816 1.326 4.44 1.99 3.198 6.252-1.24 4.263-2.96 6.536-7.16 7.483-4.2.947-8.258.758-10.597-.284-2.34-1.042-4.106-3.08-4.297-4.263-.19-1.182-.19-3.124 2.005-1.987 2.196 1.137 4.2 3.315 8.545 3.126 4.344-.19 6.253-1.517 5.68-4.17-.572-2.65-1.43-3.883-4.104-4.972-2.674-1.09-7.114-2.368-8.928-4.168-1.813-1.8-1.574-5.685-.285-7.295s3.483-3.647 9.21-3.505c2.196.054 5.777.284 8.64 1.894 2.864 1.61 2.577 2.7 2.1 3.836z"/></svg>