<?xml version="1.0" ?><svg height="64px" id="Layer_1" style="enable-background:new 0 0 64 64;" version="1.1" viewBox="0 0 64 64" width="64px" xml:space="preserve" xmlns="http://www.w3.org/2000/svg" xmlns:xlink="http://www.w3.org/1999/xlink"><path d="M61.076,16.184C55.586,1.652,34.89-1.19,28.66,0.39c-4.022,1.02-17.318,2-23.865,14.215  C-1.753,26.82-2.703,44.51,9.018,55.04s28.616,12.425,42.238,2.21S66.566,30.715,61.076,16.184z M60.838,36.534  c-0.08,0.236-1.11,2.526-1.11,2.526s-4.91-6.24-5.147-6.24s-0.553,0.95-0.395,1.186c0.158,0.237,5.07,6.24,5.07,6.24l-1.347,2.21  c0,0-4.277-5.765-4.593-5.844c-0.317-0.08-0.95,0.474-0.713,0.71c0.238,0.238,4.752,5.766,4.514,6.24s-1.98,2.053-1.98,2.053  s-3.643-5.37-3.88-5.45c-0.24-0.078-1.11,0.712-0.872,1.186c0.238,0.475,3.8,5.37,3.564,5.687c-0.238,0.316-1.98,2.132-1.98,2.132  s-2.93-4.976-3.247-5.055c-0.316-0.08-1.187,0.948-0.95,1.106c0.24,0.16,3.565,4.74,3.406,5.055c-0.158,0.316-1.98,1.58-1.98,1.58  l-2.93-4.503l-1.11,1.027c0,0,2.614,4.185,2.535,4.58c-0.078,0.395-2.296,1.58-2.296,1.58l-2.613-4.58c0,0-1.108,0.552-1.108,0.79  c0,0.236,2.613,4.738,2.613,4.738l-1.98,0.87c0,0-2.376-4.74-2.613-4.818c-0.238-0.08-1.11-0.158-0.95,0.474  s2.138,4.975,2.138,4.975l-1.98,0.63c0,0-2.138-4.343-2.376-4.5c-0.238-0.16-1.267,0.236-1.11,0.473  c0.16,0.237,2.377,4.74,2.06,4.817s-2.772,0.316-2.772,0.316s-1.82-4.186-2.06-4.265c-0.237-0.078-1.03,0.16-0.95,0.554  c0.08,0.395,1.506,3.87,1.506,3.87H31.06c0,0-1.426-2.922-1.742-3.238c-0.317-0.316-1.346,0.237-1.11,0.474  c0.24,0.237,1.427,2.922,1.19,3c-0.24,0.08-10.138,0.79-18.85-6.633S0.49,33.61,1.678,26.74C2.87,19.87,8.412,8.023,19.024,4.31  c3.735-1.305,10.533-4.58,21.462-1.894S56.958,12.84,57.908,14.42s1.663,4.344,1.663,4.344s-3.642-4.66-4.196-4.74  c-0.554-0.078-0.87,0.79-0.634,1.186c0.238,0.395,4.83,4.896,5.148,5.45c0.317,0.552,0.95,3.87,0.95,3.87s-4.118-5.37-4.593-5.45  c-0.475-0.08-0.792,0.79-0.634,1.027c0.16,0.237,5.386,5.923,5.466,6.24c0.08,0.315,0.475,3.553,0.475,3.553  s-4.988-5.923-5.305-6.002c-0.317-0.08-0.554,1.106-0.554,1.106s5.465,6.002,5.545,6.318c0.08,0.316,0.158,3.396,0.158,3.396  S56.166,28.4,55.77,28.4s-0.475,1.343-0.475,1.343S60.918,36.296,60.838,36.534L60.838,36.534z M14.43,13.708  c2.772-3.713,6.494-5.055,6.494-5.055s-0.475-1.027-0.792-1.106c-0.317-0.08-3.168,0.947-6.652,4.66s-4.375,6.43-4.198,6.87  c0.158,0.395,1.11,0.87,1.584,0.632c0.475-0.237,0.792-2.29,3.564-6.003L14.43,13.708z M43.257,16  c-1.82,0.158-26.61,11.45-29.857,13.426c-3.247,1.974-2.613,4.107-1.822,5.212s8.553,3,8.553,3c0.555,0.396,4.99,9.636,5.703,9.715  c0.713,0.08,5.544-6.555,6.02-6.713c0.474-0.158,2.93,0.87,4.592,1.422c1.663,0.553,5.465,2.21,6.81,1.106  c1.347-1.106,3.644-17.61,4.198-22.192c0.556-4.58-2.375-5.134-4.196-4.976H43.257z M44.762,19.396  c-0.053,0.21-1.426,1.685-1.426,1.685l-0.21-1.368l1.425-1.422c0,0,0.264,0.895,0.212,1.106L44.762,19.396z M12.687,32.11  c0.38-1.434,3.722-2.526,7.365-4.5S42.94,17.42,43.494,17.34s0.158,0.632,0.158,0.632S21.24,36.138,20.845,36.138  C20.449,36.138,11.975,34.796,12.687,32.11L12.687,32.11z M42.544,22.08c-0.106,0.16-1.848,2.107-1.848,2.107s-0.528-2-0.422-2.264  c0,0,1.742-1.58,1.795-1.422c0.052,0.16,0.58,1.423,0.474,1.58L42.544,22.08z M40.01,25.556L38.584,27.4l-1.003-3.213  c0,0,1.638-1.474,1.69-1.316c0.053,0.158,0.74,2.686,0.74,2.686L40.01,25.556z M32.618,28.346c0.158-0.105,1.32-1.316,1.426-1.158  c0.106,0.158,1.584,4.317,1.478,4.528c-0.106,0.21-1.056,1.37-1.056,1.37S32.618,28.346,32.618,28.346z M33.78,34.136l-1.003,1.107  l-2.06-5.265c0.16-0.158,1.004-0.895,1.004-0.895l2.06,5.054L33.78,34.136z M34.94,26.136c0.212-0.16,1.268-1.16,1.268-1.16  l1.32,3.634l-1.162,1.58l-1.425-4.055L34.94,26.136z M25.807,45.616c0,0-3.96-8.32-3.907-8.478l1.848-1.264  c0,0,3.38,8.055,3.273,8.424c-0.104,0.37-1.213,1.317-1.213,1.317L25.807,45.616z M27.972,43.299c0,0-3.326-8.004-3.22-8.32  c0.05-0.15,1.055-1.106,1.213-1.106c0.158,0,3.22,7.845,3.168,8.055S27.973,43.298,27.972,43.299L27.972,43.299z M29.714,40.876  c-0.106-0.21-2.957-7.424-2.798-7.687c0.174-0.29,0.95-0.79,0.95-0.79l2.534,7.424C30.4,39.823,29.82,41.086,29.714,40.876z   M30.824,37.611c0,0-2.113-5.74-1.955-6.107c0.087-0.205,0.844-0.843,1.055-0.843c0.21,0,2.217,5.107,2.165,5.318  c-0.053,0.21-1.267,1.632-1.267,1.632H30.824z M41.594,41.745c-1.11,0.553-9.503-2.685-9.503-3c0-0.317,13.227-18.402,13.702-18.876  C46.073,19.589,42.703,41.192,41.594,41.745L41.594,41.745z"/></svg>