<?xml version="1.0" ?><svg enable-background="new 0 0 64 64" viewBox="0 0 64 64" xmlns="http://www.w3.org/2000/svg"><path d="M57.37 5.36C55.164 2.01 51.144.29 48.897.03s-4.365 1.118-7.218 3.998c-2.853 2.88-8.43 8.942-9.336 10.36-.908 1.42-2.334 2.493-1.945 5.288s1.814 4.256 3.716 5.76c1.902 1.506 5.575 2.71 6.483 3.31.907.603 1.252 1.893.907 3.354-.346 1.462-3.025 4.385-5.23 5.933-2.204 1.548-3.544 2.15-5.057 1.72-1.512-.43-2.808-1.59-5.617-4.557-2.81-2.966-5.1-4.858-7.39-5.288-2.292-.43-5.836 2.665-9.077 6.577-3.24 3.912-7.045 9.07-7.13 10.102-.087 1.032 1.036 6.148 1.382 7.136s3.414 3.525 3.414 3.525-1.124.645-1.297.99c-.173.343.302 3.05.52 3.954.215.903 2.203 1.85 2.895 1.806.692-.043 3.803-3.31 3.803-3.31s3.846.86 10.502.473 10.027-3.61 17.028-9.112 11.842-12.21 15.472-19.216 5.23-12.896 5.273-16.378c.044-3.482-1.425-7.738-3.63-11.09zm-3.675 8.083c.52.43 5.532 4.213 5.62 4.643.085.43.518 2.192-.174 1.806-.69-.387-4.71-4.514-5.573-4.084s-.562.817-.13 1.075c.432.258 5.186 3.912 5.273 4.342.085.43-.217 1.462-.52 1.032-.302-.43-5.1-4.3-5.532-4.213-.432.086-.95.344-.39.86s5.663 4.17 5.75 4.643c.085.473-.174 1.333-.52 1.247-.346-.086-4.97-4.04-5.36-3.61-.388.43-.604.73-.258 1.117s4.97 3.355 5.1 3.656c.13.3-.346 1.763-.735 1.42-.39-.345-4.495-3.526-4.884-3.397s-.43.99 0 1.332c.434.345 4.237 2.88 4.28 3.182.044.3-.39 1.29-.69 1.118-.303-.172-4.15-3.44-4.625-3.18s-.562.945-.216 1.117c.345.17 4.28 2.62 4.364 2.922.086.3-.346 1.548-.648 1.247-.303-.3-4.02-3.01-4.495-2.88-.474.13-.474.6-.26.902.218.3 4.065 2.665 3.978 2.923s-.52 1.462-.82 1.247c-.303-.215-4.798-3.31-5.187-3.138s-.647.903-.345 1.032c.303.13 5.057 2.88 4.97 3.224-.086.344-.735 1.16-.908.99-.173-.173-4.106-2.967-4.452-2.88-.346.085-.95.73-.562.988s4.236 2.75 4.192 2.966c-.043.215-.605 1.505-.82 1.29-.217-.215-4.107-3.568-4.453-3.482-.345.086-.647.387-.345.817.303.43 3.976 3.266 3.89 3.524-.086.258-.648 1.548-1.08 1.333-.432-.215-3.976-3.482-4.322-3.31-.346.172-.778.688-.39.99s4.28 2.88 3.934 3.266c-.347.388-.433 1.162-.95.86s-3.676-3.008-4.15-2.922c-.476.087-1.21.56-.736.86.475.3 4.452 2.666 4.063 3.18-.39.518-.475 1.206-.778.99-.303-.214-3.89-3.74-4.366-3.48s-.908.343-.692.773c.216.43 4.365 3.224 4.192 3.525-.173.3-.475 1.032-.908.903-.432-.13-4.192-3.653-4.495-3.524-.303.13-.65.645-.52.86s4.064 3.224 4.02 3.61c-.043.388-.78 1.55-1.167 1.334-.39-.215-4.452-3.87-5.057-3.783-.605.086-.648.516-.475.817.174.302 4.626 3.225 4.41 3.655-.217.43-.69.945-.91.773-.215-.173-4.494-3.827-4.883-3.74-.39.085-1.253.3-.778.687.474.387 4.97 3.18 4.84 3.61s-1.253 1.506-1.815 1.42c-.562-.086-4.71-4.127-5.36-4.084-.647.043-.777.817-.56 1.032.215.215 4.926 3.138 4.58 3.525-.346.387-.735.602-1.167.56-.432-.044-4.84-4.042-5.402-3.913-.562.13-.864.817-.648 1.032.216.214 4.84 3.223 4.797 3.524-.043.3-.605.56-1.124.516-.52-.043-4.883-4.04-5.53-3.826-.65.215-.65.602-.39.86s5.316 3.18 5.057 3.697c-.26.517-1.686.99-1.988.775-.303-.215-5.187-3.654-5.576-3.697s-1.124.474-.778.775c.346.3 5.013 2.837 4.84 3.224-.172.386-1.382.816-2.16.687-.778-.13-4.322-3.697-4.668-3.654-.346.043-.994.344-.648.73.345.388 4.32 3.14 3.89 3.268-.433.13-1.427.13-1.773-.042-.346-.172-4.28-3.396-4.754-3.224-.475.173-.95.646-.346 1.076.605.43 3.587 1.978 3.328 2.235s-3.112.173-3.933-.042c-.82-.215-1.34-.99-2.075-.344-.735.644-1.945 2.965-2.896 3.266-.95.302-.733.56-1.424.216-.69-.353-1.985-.826-1.51-1.256.475-.43 2.852-2.407 2.593-3.01-.26-.6-3.847-4.255-4.41-5.115-.932-1.427-2.074-2.965-1.944-3.524.13-.56 6.008-8.426 7.347-10.188 1.34-1.763 5.878-6.233 7.477-5.804 1.598.43 4.407 2.665 7.52 5.933C28.67 40.4 29.966 41.3 32.04 41c2.075-.3 2.766-.215 5.748-2.536 2.982-2.32 6.007-5.632 6.83-7.566.82-1.935 1.166-3.44.302-4.342-.864-.903-3.155-2.106-4.236-2.32-1.08-.216-3.328-.86-5.143-1.893C33.73 21.31 32 18.99 32 17.786c0-1.204 1.77-3.052 4.58-6.448 2.81-3.396 8.773-8.9 9.897-9.544 1.124-.645 3.37-.56 5.835.817 2.464 1.378 3.112 2.108 3.5 2.71.39.6.563.99.217.817s-1.817-1.978-2.336-1.462c-.52.516-.692.645-.086 1.032.604.387 3.327 2.192 4.018 3.095.69.904 1.08 2.623.908 2.322-.173-.3-3.587-3.826-4.15-3.783-.56.043-.907.344-.56.645.345.3 5.185 4.514 5.53 4.944.347.43.13 1.59-.085 1.332s-3.717-4.298-4.71-4.513c-.995-.216-1.08.17-1.038.515.043.344 5.316 4.428 5.705 4.944.39.515.778 1.762.26 1.762s-5.144-4.6-5.533-4.557c-.39.042-.78.6-.26 1.03zM9.785 42.375c-.433 0-3.33 3.267-3.718 4.213-.39.946-.004 2.454.39 2.923.43.518.993.948 1.382.604.387-.344.344-.688-.175-1.29-.52-.602-.52-1.247-.043-2.15.475-.902 2.075-2.836 2.68-3.266.605-.43-.087-1.032-.52-1.032zM37.14 14.56c-.778.474-3.08 3.28-3.198 3.74-.432 1.678 2.03 3.397 2.766 3.483.735.086.778-.473.648-.99s-1.426-1.46-1.815-2.19c-.39-.732 1.946-2.71 2.378-3.31.432-.603 0-1.205-.778-.732z"/></svg>