<?xml version="1.0" ?><svg enable-background="new 0 0 64 64" viewBox="0 0 64 64" xmlns="http://www.w3.org/2000/svg"><path d="M63.818 31.9c-.27-5.408-1.99-28.434-2.216-28.75-.226-.315-13.93-.09-23.88.27S8.91 4.862 8.41 4.907C7.916 4.953 0 13.98 0 14.507c0 .855.543 12.93.588 21.9C.633 45.372.18 55.42.543 55.69c.362.27 12.8-.045 13.162.045.362.09 0 4.776.588 5.137.588.36 12.98-.135 14.247-.406 1.266-.27 4.387-4.912 4.84-5.227.45-.314 10.673.677 11.17.677.498 0 1.855-1.126 5.338-4.506 3.483-3.38 13.614-12.075 13.885-12.526.27-.45.316-1.578.045-6.985zm-9.137.675c-.315.54-6.783 7.84-8.502 10.14s-2.488 2.973-3.166 3.198c-.678.225-13.026-.225-13.75-.18-.723.045-1.4.586-1.944 1.352-.543.766-4.07 5.092-4.297 5.092-.225 0-1.13-7.165-1.446-7.435-.316-.27-2.94-.27-4.342-.315-1.402-.045-3.392.496-3.618.225-.226-.27-.543-15.366-.77-20.413-.225-5.048-.542-9.824-.225-10.32.184-.29 3.89-.54 7.055-.676 3.166-.135 9.724-.36 19.403-.9 9.68-.542 14.247-1.308 14.745-.767.497.54 1.04 15.366 1.04 17.89s.135 2.567-.182 3.108zM25.78 22.03c-1.085.632-.904 11.762-.18 12.438.722.676 5.743.99 6.286.45.543-.54.588-11.67-.09-12.75-.68-1.084-5.49-.442-6.016-.137zm13.48.046c-.182.676-.09 12.03.09 12.752.18.72 4.93.766 5.562.18.633-.586.588-11.896.045-12.707-.542-.81-5.552-.77-5.698-.224z"/></svg>