<?xml version="1.0" ?><svg height="64px" id="Layer_1" style="enable-background:new 0 0 64 64;" version="1.1" viewBox="0 0 64 64" width="64px" xml:space="preserve" xmlns="http://www.w3.org/2000/svg" xmlns:xlink="http://www.w3.org/1999/xlink"><path d="M57.82,4.088C55.162,0.042,46.158-0.13,34.926,0.042S14.862,0.645,8.946,2.108S2,8.133,2,11.49  c0,1.637,0.257,22.727,0.43,29.527s0.428,11.535,2.143,16.27s3.773,4.56,8.66,5.766s20.236,1.12,29.753,0.516  c9.518-0.604,13.89-1.378,15.606-4.133c1.715-2.755,2.315-12.05,2.4-24.79c0.086-12.74-0.514-26.513-3.172-30.56V4.088z   M58.85,31.462l-4.574-4.247c0,0-0.572,1.377-0.343,1.607c0.23,0.23,4.687,4.074,4.802,4.533c0.114,0.46,0.057,3.386,0.057,3.386  s-4.287-4.418-4.46-4.36c-0.17,0.056-0.742,1.376-0.285,1.778c0.457,0.4,4.516,4.074,4.63,4.476c0.114,0.4,0.114,2.812,0.114,2.812  s-3.772-3.902-4.058-3.902s-0.686,0.918-0.572,1.263c0.114,0.344,4.46,4.074,4.46,4.476c0,0.4,0.285,4.017,0,3.615  c-0.287-0.402-4.46-5.452-4.86-5.337c-0.4,0.116-0.915,1.206-0.915,1.206s5.602,5.337,5.716,5.968  c0.115,0.63-0.342,3.443-0.57,3.443c-0.23,0-6.117-6.198-6.403-6.198s-0.915,1.262-0.915,1.262s6.517,6.026,6.517,6.542  s-0.23,1.607-0.744,1.722s-7.374-6.714-7.374-6.714s-1.086,0.803-0.8,1.262c0.286,0.46,7.374,6.313,6.917,6.714  c-0.458,0.402-3.26,0.46-3.26,0.46s-4.858-5.166-5.086-5.28c-0.23-0.116-0.972,0.745-0.972,0.745s5.26,4.706,4.745,4.935  c-0.514,0.23-3.2,0.746-3.487,0.46c-0.286-0.288-3.716-4.19-4.173-4.305s-1.43,0.63-1.258,0.918c0.17,0.288,3.943,3.846,3.6,3.904  c-0.343,0.057-4.116-0.057-4.116-0.057s-2.572-3.214-2.915-3.33c-0.344-0.114-1.373,0.23-1.26,0.747  c0.115,0.516,2.288,2.582,2.288,2.582s-13.605,0.69-19.893,0.23C13.117,58.316,6.315,56.08,5,52.348  c-1.315-3.73-0.972-26.628-1.143-32.48s-0.8-11.304,1.887-14c1.95-1.96,7.83-3.215,13.948-3.79  c6.117-0.573,19.778-0.688,25.895-0.23c6.116,0.46,10.46,1.552,11.147,4.306c0.686,2.755,1.83,15.438,1.83,15.438  s-2.974-3.1-3.488-2.697c-0.514,0.402-0.457,0.976-0.286,1.09c0.17,0.115,3.773,3.443,3.83,3.615c0.057,0.172,0.057,3.04,0.057,3.04  s-3.258-3.27-3.544-3.27s-0.572,1.09-0.4,1.607c0.17,0.516,4.116,2.984,4.116,3.443L58.85,31.462L58.85,31.462z M16.033,6.958  c0.514-0.172,0-0.86-0.4-1.205c-0.4-0.344-6.688,0.4-8.174,1.55c-1.487,1.147-1.275,5.763-1.03,5.91  c0.286,0.172,1.486,0.516,1.83,0.172c0.342-0.344-0.344-3.673,0.456-4.763S15.518,7.13,16.033,6.958z M30.553,12.754  c-8.404,0.23-13.49,4.82-14.635,8.15c-1.144,3.327-0.832,7.19-0.744,7.402c0.286,0.69,10.118,0.46,10.518,0.344  c0.4-0.115-0.114-2.123-0.057-2.525c0.057-0.4,8.403-0.69,8.917-0.516s0.514,7.632,0.514,7.86c0,0.23-7.774,0.402-8.346,0.288  c-0.572-0.115-0.17-2.64-0.686-2.697c-0.514-0.057-8.917,0.173-9.49,0.402c-0.57,0.23-0.856,1.837,0.744,7.23  c1.6,5.396,6.402,7.748,15.32,7.462s14.348-7.518,13.548-18.708s-7.202-14.922-15.605-14.692L30.553,12.754z M39.583,42.022  c-2.743,2.123-11.89,4.074-16.12,0.86c-4.23-3.213-4.915-7.976-4.744-8.148c0.17-0.172,6.517-0.516,6.517-0.057  c0,0.46,0.343,3.96,0.514,4.074c0.172,0.116,11.376-0.17,11.434-1.09c0.057-0.917-0.743-13.657-1.43-13.772  c-0.685-0.115-11.66,0.516-11.832,0.804c-0.17,0.287-0.057,1.95-0.23,2.066c-0.17,0.115-4.23,0.287-4.515,0.057  c-0.18-0.143-0.4-7.06,5.945-9.182C31.467,15.51,40.385,14.59,43.3,23.43c2.916,8.836-0.97,16.468-3.715,18.592H39.583z"/></svg>