<?xml version="1.0" ?><svg enable-background="new 0 0 64 64" viewBox="0 0 64 64" xmlns="http://www.w3.org/2000/svg"><path d="M52.095 33.623c-.13-.32.322-.416 1.482-1.598 1.16-1.183 4.93-5.946 7.895-9.655 2.965-3.708 2.578-6.042 2.417-8.28s-1.42-3.325-2.74-3.804c-1.32-.48-7.477-.224-8.54-.16-1.064.064-1.58.607-2.16 1.503-.58.893-4.254 6.49-5.704 8.214-1.45 1.726-4.415 4.508-4.673 4.412-.258-.096-.193-7.353-.42-9.015-.225-1.66-3.415-3.23-5.477-3.356s-10.73.224-11.763.448-1.708 1.215-1.58 1.598c.13.385 1.902 2.11 2.386 2.782s1.03 6.873 1 9.463-1.065 3.676-1.42 3.58c-.354-.095-1.998-.734-3.996-3.004s-7.22-12.88-7.444-13.233c-.225-.352-1.19-.48-4.124-.575s-5.888.248-6.38 1.088c-1.483 2.526-.742 7.673 0 10.006s2.158 6.17 5.026 10.582 7.186 9.047 11.344 13.075 7.283 5.34 9.088 5.915c1.805.575 5.06.384 7.863.288 2.804-.096 3.9-1.247 4.512-2.62.61-1.376.45-4.956.385-5.308s-.097-1.95.483-1.982c.58-.032 1.127.735 2.126 1.854 1 1.12 2.643 5.754 3.384 6.234.74.48 2.224.864 4.608.864s7.54-.16 8.54-.48c1-.32 3.19-2.91 3.61-4.572.418-1.662-.84-3.325-2.03-5.403s-7.574-8.538-7.703-8.857zm8.186 14.48c-.095-.223-4.67-5.817-6.282-7.8s-2.256-2.812-2.74-2.557c-.482.256-.29.767-.03 1.055s8.12 9.593 8.023 9.753c-.096.16-1.48.448-1.61.192-.13-.256-3.094-4.508-5.06-6.777-1.965-2.27-3.254-3.325-3.61-3.23-.352.097-.546.768-.127 1.088.42.32 2.965 2.27 4.608 4.604 1.645 2.333 3.385 4.123 3.127 4.347-.258.224-1.74.16-1.805.064-.063-.094-3.48-4.38-5.058-6.17s-1.934-1.916-2.417-1.724c-.483.192.516 1.087 1.257 1.854.74.766 4.608 5.306 4.834 5.594.226.288.354.703.097.703s-1.807.03-1.968-.097c-.16-.128-5.382-7.545-5.897-7.64-.516-.097-.806.19-.677.447.13.256 5.512 6.905 5.125 7-.387.097-1.225.065-1.58-.223-.353-.288-3.544-5.05-5.64-6.713s-3.286-2.14-4.317-2.11c-1.03.034-1.643.865-1.643.865s-2.9-3.42-3.352-3.26-.516.48-.226.862c.29.384 2.996 2.973 2.996 3.133 0 .16-.226 1.725-.258 1.853-.032.128-3.867-4.092-4.125-3.996-.258.096-.516.895-.354 1.15.16.257 4.8 4.06 4.865 4.413.064.352.29 2.78 0 2.59s-5.124-5.98-5.382-5.915-.773.767-.58 1.055c.193.288 5.833 5.722 5.8 5.978-.03.256-.515.67-.9.543-.388-.126-5.415-5.976-5.898-5.784-.483.192-.87.543-.483.927s5.284 4.955 5.123 5.21c-.16.257-1.515.16-1.772.033-.257-.128-4.253-5.275-4.93-5.115-.677.16-.773.704-.548 1.056s4.447 3.996 4.19 4.156-1.516.13-1.838-.03c-.322-.16-3.738-4.06-4.157-4.125-.42-.064-.773.543-.612.767.16.224 2.804 2.813 2.707 3.005-.097.19-3.674-.864-5.478-2.335-1.805-1.47-6.123-5.435-8.96-9.24C9.88 33.75 8.237 31.77 5.723 26.78S1.05 16.262 2.21 14.92c.414-.48 1.288-.735 2.48-.735s5.543-.128 5.8.256c.26.386 3.836 8.314 5.834 11.255s3.9 4.763 5.156 5.275c1.257.51 2.933.03 3.577-1.536.645-1.566.612-4.06.387-6.138s-.032-5.5-.935-6.84c-.904-1.344-1.71-2.367-1.613-2.56.097-.19 4.576-.51 7.638-.638s5.382-.384 5.446 1.247.16 3.964 0 7.45.033 4.283 1.16 4.826c1.13.545 2.708-.062 5.254-2.364s5.156-5.85 6.8-8.376 3.03-4.317 3.255-4.445 5.574-.48 6.09-.096c.516.382 2.127 2.492 2.417 2.683.29.192.29.512.258.607-.032.097-.42 1.12-.677.928s-2.225-2.238-2.61-2.142c-.388.096-.517.416-.194.83.322.417 2.385 2.015 2.353 2.303s-.71 1.373-.903 1.245c-.193-.128-2.48-3.037-2.77-2.91-.29.13-.71.704-.42 1.024.29.32 2.45 2.525 2.45 2.75 0 .222-.71 1.405-.87 1.277s-2.547-2.717-2.87-2.526c-.32.193-.644.417-.353.768s2.805 2.397 2.676 2.748c-.13.352-.84 1.726-1.064 1.598-.226-.128-2.9-3.39-3.19-3.197s-.645.48-.42.766c.227.288 2.87 3.197 2.87 3.357 0 .16-.613 1.055-.71 1.055s-2.578-2.91-2.77-2.845c-.194.064-.742.543-.613.767.13.224 2.674 2.717 2.352 3.197-.322.48-.677.895-.87.83-.193-.063-2.836-3.164-3.126-3.1s-.806.32-.645.703c.16.384 3.03 3.037 2.9 3.293-.13.256-.934.895-1.16.735-.225-.16-2.513-2.78-2.932-2.685s-.645.16-.58.48c.064.32 2.61 2.653 2.417 2.877s-1.548.927-2.063 1.44c-.516.51-.483.926-.097 1.182.387.255 5.607 4.475 8.508 8.215 2.9 3.74 3.674 5.307 4.093 6.394.415 1.09.447 2.175.35 1.95zM7.464 16.01c-.354-.256-3.642-.256-3.803.16-.162.416 1.14 4.455 1.546 4.667.548.288.838-.064.967-.384s-.838-3.036-.806-3.324 1.772-.13 2.095-.16.355-.704 0-.96zm21.527-1.215c-.098.224.03.863.418 1.023s3.126.256 3.352.32.193 1.535.29 2.046c.097.512.87.256 1.128 0s.13-3.037 0-3.357c-.13-.32-5.096-.246-5.19-.032z"/></svg>