<?xml version="1.0" ?><svg height="64" viewBox="0 0 64 64" width="64" xmlns="http://www.w3.org/2000/svg"><path d="m14.52 29.2c.54-.08 4.13-7.89 4.53-7.89s2.7 7.23 3.1 7.45 8 .22 8.44-.07 7.31-20.32 7.41-20.69a16.58 16.58 0 0 0 -2-3.5 53.77 53.77 0 0 0 -6-.15c-.29.07-3.87 12.46-4 12.68s-3.4-6.29-3.58-6.58-5.52-.14-5.89 0-3.29 6.18-3.53 6.33-4.15-11.92-4.4-12.24-4.68 0-6.1 0-1.64.55-1.43 1.27c.11.37 5.77 23 6.29 23.35s6.64.11 7.16.04zm-7.02-23.2c.11.15 4.9 13.41 5.23 13.59a1.06 1.06 0 0 0 1-.22c0-.11 3.25-7.19 3.51-7.27s4 0 4 0 4 7.49 4.42 7.56a1 1 0 0 0 1.06-.36c.15-.3 4.35-13.45 4.57-13.45a25.87 25.87 0 0 1 3.07.26c0 .07-2.19 9.15-3.73 15.07a9.56 9.56 0 0 0 -1.86-1.55c-.33-.08-.95 1.16-.84 1.31a19.82 19.82 0 0 0 2.36 1.54c-.12.48-.24.92-.35 1.32a17.7 17.7 0 0 0 -2.34-2.24c-.29-.07-.88 1.17-.88 1.17a29.74 29.74 0 0 0 2.94 2.11c-.14.51-.25.88-.32 1.1a29.28 29.28 0 0 0 -3-2.55c-.33-.11-.8 1-.8 1 .21.17 1.45 1.18 2.37 1.91-1.24 0-2.88.07-2.88.07s-4.17-8.7-4.35-8.77a14.42 14.42 0 0 0 -3.51.15c-.26.21-4.27 9.09-4.49 9.17s-4.42-.08-4.42-.08-5.43-20.33-5.47-20.77a28.2 28.2 0 0 1 4.71-.07zm43.3 23.53c7.08 0 9.82-3.8 10.08-4.5s.58-4.49.33-4.6-5.23-.29-5.37-.26-.55.48-1.46 1.17-1.94 1.32-5 .29-3.36-3.21-3.36-3.21 13.11.66 14.1.11 3.18-9.17-.73-12.68a14.37 14.37 0 0 0 -12-3.47 13.67 13.67 0 0 0 -6.87 4.09c-2.67 2.85-4.13 9.36-2.09 15s5.28 8.02 12.37 8.06zm-10.6-19.88a10.67 10.67 0 0 1 9-5.95c3.25-.13 8.8 1.46 10.44 4.85a9.27 9.27 0 0 1 .89 3.28 8.34 8.34 0 0 0 -1.53-1.34c-.22 0-.84 1.21-.84 1.21l2.37 1.81a12 12 0 0 1 -.22 1.62 23.11 23.11 0 0 0 -3-2.92c-.18 0-.95.51-.95.66s1.46 1.85 2.17 2.67h-.99a10.14 10.14 0 0 0 -1.85-1.82c-.33-.15-1 .51-1.13.65s.39.63.85 1.15c-4.49 0-10.54-.07-10.79.13s-.69 2.67.18 4a6.93 6.93 0 0 0 6 3.5 8.19 8.19 0 0 0 5.48-1.82c.15 0 2.89-.08 3 .18a5.77 5.77 0 0 1 0 1.61c-.08.21-1.1 3.43-5.45 3.69s-9.42.91-12.75-4.5-2.3-9.88-.88-12.66zm4.93 2.56c.44.07 9.5.14 9.9 0s.37-.18.52-.69-1-4.13-5-4.39-5.9 3.53-6 3.8a1 1 0 0 0 .58 1.28zm5.78-3.11c2 0 3.25 1.5 3 1.68a34.22 34.22 0 0 1 -6.46-.14 4.57 4.57 0 0 1 3.46-1.54zm-24.3 24.63c-4.68-.48-6.83 1.75-6.83 1.75a9.5 9.5 0 0 0 -5.12-2.15 10.1 10.1 0 0 0 -9.5 4.6c-2.37 3.69-2.16 8.8 1.68 13.88s12.06 10 12.68 10 4.83-1.64 10.38-6.61 6.9-9.2 6.1-12.41-4.71-8.59-9.39-9.06zm5.77 11.43c-1.53 4.06-11.47 12.53-13 12.43s-8.84-3.88-12.13-9.1-.69-9.21 2.27-11.84a6.75 6.75 0 0 1 9.79.66c.17.19 1.06.51 1.24.18s2.27-2.74 6.61-2.05 6.76 5.67 5.22 9.72zm-22.8-6.24a4.6 4.6 0 0 0 -1.16 4c.21.15 1.35.22 1.53 0s-.33-1.92 1.05-2.92a8.67 8.67 0 0 1 3-1.28c.43-.22.14-.77-.19-1a3.77 3.77 0 0 0 -4.23 1.2zm8.3 13.4c-.26 0-1.13 1-1.13 1a16.61 16.61 0 0 0 3.39 1.9c.44.15.73-.22.92-.62s-2.93-2.24-3.18-2.28zm2.15-2c-.11 0-1.13.6-1.06.74a18.38 18.38 0 0 0 3.37 2.52c.29 0 .47-.26.58-.62s-2.78-2.61-2.92-2.65zm2.6-1.71c-.26-.08-1.14.62-1.06.76a26.75 26.75 0 0 0 2.88 2.27c.37.22.84-.33 1.06-.69s-2.63-2.28-2.88-2.35zm2.37-1.4c-.33-.07-1.31.54-1.17.73a23.08 23.08 0 0 0 2.85 2.06 1.25 1.25 0 0 0 .84-.48c.19-.26-2.23-2.24-2.52-2.31zm2.19-1.68c-.48-.11-1.06.66-1.06.66a8.32 8.32 0 0 0 2.45 1.6c.25 0 .4-.29.62-.62s-1.57-1.53-2.04-1.64zm.91-1a9.34 9.34 0 0 0 2.38 1.47c.7.22.51-.26.7-.58s-1.68-1.58-1.94-1.65-1.24.69-1.17.81zm11.55-9.63a23.16 23.16 0 0 0 -.22 5.33c.22.4 5.92.15 6.21 0s.3-4.67.22-5-6.21-.33-6.21-.33zm4.79 1.49c0 .3.22 1.61 0 1.72a20.19 20.19 0 0 1 -3.65 0c0-.11-.11-1.75.18-1.83-.04 0 3.43-.18 3.47.11zm-4.75 5.34c-.18.22-1 16.07-1 16.26a24.39 24.39 0 0 0 1.61 2.44 20.25 20.25 0 0 0 5.08-.21c.51-.26.73-18.24.66-18.45a38.58 38.58 0 0 0 -6.35-.04zm4.24 15.67c-.11.15-3.8.29-3.87 0s.73-14.51.91-14.76a11.28 11.28 0 0 1 3.62 0c.18.18-.59 14.62-.66 14.76zm18.67-5.51a14.34 14.34 0 0 1 -3.51-.48c-.84-.4-.26-5.88-.26-5.88h2.93c.11 0 .14-7.89.14-8.18s-3.25-.35-3.36-.35.11-2.59.08-2.89-5.56-.29-5.7-.18a26.83 26.83 0 0 0 -.11 3.43 24.25 24.25 0 0 0 -3.4.11c0 .33-.18 4-.11 4.28s.47 3.65.8 3.84a16.35 16.35 0 0 0 2.6.07c.25 0 0 3.65 0 6.76s-.37 6.17 1.49 6.61 8.59 0 8.77-.07-.36-7.07-.36-7.07zm-1.16 3.67c-.47-.66-1.52-1.8-1.73-1.77s-1 .18-1 .32a13 13 0 0 0 1.22 1.78h-.82a11.22 11.22 0 0 0 -1.49-1.6c-.26-.11-.77.18-1 .36s.44.82.83 1.24c-.86 0-1.6 0-1.89 0-.84.07-1.5-.25-1.53-1.2s-.11-12.32-.22-12.68-.44-.7-1.39-.7c-.77 0-1.53.15-1.61 0a8 8 0 0 1 0-2.63c.28-.28 3.32.15 3.32 0a25.17 25.17 0 0 1 .22-3.36c.15 0 2.82-.11 2.82.14a16.05 16.05 0 0 0 0 3 25 25 0 0 1 3.32.26c.07.11-.25 2.67-.25 2.67s-2.6-.08-2.74.69a85 85 0 0 0 .07 9.72 1.89 1.89 0 0 0 1.79 1.24h1.86a18.73 18.73 0 0 1 .22 2.52z" fill="#1d1d1b"/></svg>