<?xml version="1.0" ?><svg height="64px" id="Layer_1" style="enable-background:new 0 0 64 64;" version="1.1" viewBox="0 0 64 64" width="64px" xml:space="preserve" xmlns="http://www.w3.org/2000/svg" xmlns:xlink="http://www.w3.org/1999/xlink"><path d="M59.79,26.442c-0.936-9.74-4.285-19.402-15.422-24.078s-22.664-1.48-28.194,1.56S4.49,13.896,4.024,24.493  S10.1,44.987,10.1,44.987S6.437,59.325,6.437,59.792c0,0.468,3.66,4.208,4.206,4.208c0.545,0,15.187-7.013,15.187-7.013  s6.076,0.7,12.93-0.7s12.384-4.598,16.044-9.663S60.724,36.182,59.79,26.442L59.79,26.442z M55.194,40.702  c-2.26,5.377-10.177,9.792-10.852,10.104s-2.596,0.883-2.596,0.883s-0.727-1.507-0.986-1.61c-0.26-0.105-0.987,0.362-0.935,0.57  s0.727,1.04,0.52,1.3c-0.21,0.26-1.61,0.31-1.61,0.31s-1.04-2.13-1.35-2.285s-1.195,0.156-1.09,0.416  c0.103,0.26,1.245,2.287,1.09,2.34c-0.157,0.05-2.078,0.467-2.13,0.31s-1.195-2.596-1.455-2.75c-0.258-0.158-1.4,0.102-1.4,0.362  s1.298,2.7,1.298,2.7s-1.66,0.21-1.765,0.053c-0.104-0.156-1.402-2.805-1.713-2.96c-0.312-0.157-1.246,0.103-1.246,0.363  s0.987,2.7,0.987,2.7l-1.505-0.207l-1.87-2.962c0,0-0.986-0.052-0.934,0.312c0.053,0.364,1.195,2.65,1.09,2.805  c-0.103,0.156-0.414,0.415-0.622,0.312c-0.208-0.104-1.973-2.39-2.13-2.44c-0.155-0.053-0.882,0.207-0.83,0.518  c0.052,0.312,1.87,1.922,1.66,2.234s-1.61,1.246-1.816,1.038c-0.208-0.208-1.973-2.65-2.18-2.753c-0.21-0.104-1.195,0.57-1.09,0.727  c0.103,0.156,1.557,2.598,1.557,2.598l-1.663,0.57c0,0-1.66-2.13-1.87-2.18c-0.207-0.053-1.037,0.57-0.934,0.778  c0.104,0.208,1.713,1.506,1.454,1.714c-0.26,0.208-1.298,0.675-1.298,0.675s-1.3-1.403-1.61-1.403s-0.468,0.468-0.468,0.623  c0,0.156,0.83,1.298,0.83,1.298s-5.918,2.7-6.385,2.39c-0.467-0.312-0.935-0.935-0.805-1.22c0.133-0.293,3.505-14.183,3.505-14.183  S5.66,34.234,5.893,25.974c0.234-8.26,5.686-17.454,9.813-20.493s17.29-5.376,25-3.194s14.487,9.662,16.746,17.844  s0,15.195-2.258,20.572L55.194,40.702z M30.22,4.468c-6.75,0.675-11.476,2.805-15.63,8.57c-4.154,5.767-5.763,10.65-4.673,17.87  c1.09,7.222,6.23,13.663,6.335,13.87c0.104,0.21-3.81,9.493-4.102,10.027c-0.312,0.572,0.675,1.09,1.298,1.09  s11.37-8.26,11.735-8.362c0.363-0.104,2.077,0.57,6.23,0.623c4.155,0.052,8.464-0.415,13.605-2.44s10.125-6.34,10.696-14.858  c0.57-8.52-1.61-14.545-7.58-20.675c-5.973-6.13-11.165-6.39-17.915-5.715L30.22,4.468z M50.21,15.325  c5.087,6.285,4.828,15.273,3.062,20.155c-1.765,4.883-5.504,8.208-11.215,9.818c-5.71,1.61-10.54,1.766-12.46,1.35  c-1.922-0.415-3.895-0.882-4.363-0.882s-8.827,6.078-9.606,6.442c-0.14,0.066,2.908-6.7,2.856-7.17  c-0.052-0.467-4.83-6.39-6.023-10.648c-1.193-4.26-1.297-11.688,1.714-17.558c3.012-5.87,11.89-9.974,18.07-10.078  S45.122,9.04,50.21,15.325L50.21,15.325z M32.088,23.377c0.467-0.727-0.415-3.22-2.96-6.545c-2.544-3.325-5.016-3.704-6.075-2.91  c-1.038,0.78-4.933,4.52-4.31,9.247c0.623,4.726,6.698,13.35,11.11,18.13c4.414,4.778,10.49,3.012,13.034,1.557  s4.102-4.052,4.206-5.87s-6.594-7.896-6.958-8.104c-0.363-0.208-4.362,3.43-4.777,3.376c-0.415-0.053-4.725-6.91-4.673-7.222  c0.053-0.31,0.936-0.934,1.403-1.66V23.377z M33.542,33.974c1.454,1.04,1.194,1.3,1.92,0.883c0.728-0.415,3.79-3.948,4.363-3.74  c0.57,0.208,5.867,5.04,5.608,5.714c-0.26,0.676-1.142,2.546-1.402,2.39c-0.26-0.156-1.816-3.273-2.75-3.17  c-0.936,0.105-0.78,0.78-0.676,1.092s2.18,2.493,1.973,2.753c-0.208,0.26-0.675,0.364-0.675,0.364s-1.87-2.91-2.025-2.91  c-0.156,0-1.142,0.312-0.986,0.623c0.157,0.312,1.974,2.338,1.662,2.598s-0.935,0.624-1.09,0.416  c-0.156-0.208-2.025-2.753-2.025-2.753s-1.35,0.104-1.142,0.468s1.558,2.235,1.298,2.235s-2.492,0.675-6.802-3.43  c-4.31-4.103-9.916-9.973-10.28-14.284c-0.363-4.31,2.18-8.103,3.894-7.895c0.393,0.047,6.283,5.974,5.4,6.7  c-0.883,0.728-3.115,2.442-2.233,3.74c0.884,1.3,4.518,7.17,5.972,8.21L33.542,33.974z M23.832,17.351  c-1.454,0.47-2.077,4.313-2.077,4.936s1.92,0.727,2.18,0.675c0.26-0.05,0-0.26,0-1.35s0.416-2.857,0.676-3.17  c0.26-0.31-0.145-1.292-0.778-1.09L23.832,17.351z"/></svg>