<?xml version="1.0" ?><!DOCTYPE svg  PUBLIC '-//W3C//DTD SVG 1.1//EN'  'http://www.w3.org/Graphics/SVG/1.1/DTD/svg11.dtd'><svg height="512px" style="enable-background:new 0 0 512 512;" version="1.1" viewBox="0 0 512 512" width="512px" xml:space="preserve" xmlns="http://www.w3.org/2000/svg" xmlns:xlink="http://www.w3.org/1999/xlink"><g id="comp_x5F_10-aim"><g><g><g><path d="M320.457,156.839c35.697,0,66.031-29.295,66.031-65.402c0-36.141-30.334-65.436-66.031-65.436      c-35.725,0-65.575,29.295-65.575,65.436C254.882,127.543,284.732,156.839,320.457,156.839z" style="fill:#FED502;"/><path d="M320.457,166.839c-41.672,0-75.575-33.825-75.575-75.402c0-41.595,33.903-75.436,75.575-75.436      c19.989,0,38.959,7.825,53.412,22.034c14.586,14.338,22.619,33.304,22.619,53.402c0,20.084-8.033,39.04-22.62,53.374      C359.413,159.016,340.444,166.839,320.457,166.839z M320.457,36.001c-30.645,0-55.575,24.868-55.575,55.436      c0,30.549,24.931,55.402,55.575,55.402c30.372,0,56.031-25.371,56.031-55.402C376.488,61.387,350.829,36.001,320.457,36.001z" style="fill:#BFA002;"/></g><g><path d="M312.17,321.292c0.455-11.646,0.802-14.554,1.264-23.691      c69.902,18.452,128.937-40.341,128.937-40.341s-14.968-28.167-33.892-57.351c-30.851,28.057-62.816,23.374-76.406,20.384      c-17.923-3.944-22.767-11.615-21.306-18.401c-10.41-3.334-47.105-25.271-69.302-32.569      c-42.667,26.243-59.755,91.849-57.718,158.581c-28.641,54.967-55.652,73.51-114.117,87.08      c11.015,26.074,21.163,35.852,37.447,70.439c73.115-20.011,119.848-63.337,148.581-100.454      c48.917,12.593,84.695,43.985,114.229,101.03c30.678-25.85,34.063-28.493,60.155-49.715      C409.686,387.069,359.739,344.463,312.17,321.292z" style="fill:#FED502;"/><path d="M369.887,495.999c-0.649,0-1.304-0.063-1.952-0.192c-2.981-0.594-5.53-2.511-6.929-5.21      c-26.892-51.944-58.429-81.268-101.624-94.214c-39.7,49.175-90.019,82.36-149.665,98.686c-4.687,1.28-9.618-0.989-11.687-5.386      c-7.836-16.646-14.314-27.562-20.029-37.192c-6.039-10.177-11.742-19.789-17.583-33.615c-1.148-2.719-1.037-5.805,0.303-8.434      s3.773-4.532,6.647-5.199c57.001-13.23,80.278-30.52,106.312-79.679c-0.813-35.075,3.558-67.974,12.675-95.299      c10.806-32.383,27.584-55.752,49.87-69.459c2.506-1.542,5.565-1.902,8.362-0.982c13.818,4.543,32.433,14.182,47.391,21.927      c9.022,4.672,18.352,9.502,21.837,10.619c4.899,1.569,7.809,6.599,6.727,11.628c-0.024,0.11-0.021,0.157-0.021,0.158      c0.14,0.695,3.019,4.022,13.699,6.373c6.275,1.381,12.127,2.052,17.887,2.052c18.299-0.001,35.001-6.752,49.642-20.067      c2.173-1.976,5.106-2.893,8.013-2.52c2.911,0.377,5.509,2.014,7.106,4.477c18.942,29.212,33.712,56.933,34.332,58.099      c2.065,3.888,1.346,8.671-1.774,11.777c-1.92,1.913-47.727,46.841-108.269,46.841c-6.182,0-12.341-0.479-18.416-1.431      c-0.099,1.658-0.198,3.418-0.3,5.511c43.136,22.367,94.795,63.898,116.84,117.196c1.689,4.084,0.498,8.792-2.931,11.58      l-7.611,6.188c-19.25,15.647-25.06,20.37-52.41,43.416C374.512,495.179,372.224,495.999,369.887,495.999z M83.743,421.78      c3.653,7.351,7.363,13.603,11.458,20.504c5.025,8.469,10.617,17.894,17.208,31.186c53.981-16.497,99.482-48.3,135.342-94.622      c2.445-3.158,6.533-4.559,10.401-3.563c48.413,12.463,85.099,42.824,114.688,95.158c19.767-16.614,26.359-21.974,43.285-35.731      l1.658-1.348c-19.019-39.519-61.349-79.387-109.992-103.081c-3.566-1.737-5.769-5.417-5.613-9.381      c0.284-7.279,0.525-11.168,0.78-15.286c0.154-2.49,0.313-5.05,0.488-8.52c0.152-3.01,1.653-5.791,4.087-7.569      c2.435-1.779,5.542-2.36,8.453-1.595c8.178,2.159,16.646,3.254,25.172,3.254c41.079,0,75.624-25.21,88.633-36.104      c-4.683-8.464-13.351-23.764-23.708-40.316c-16.209,11.828-34.317,17.813-53.974,17.813c-7.224,0-14.48-0.824-22.187-2.52      c-20.736-4.563-27.205-13.964-28.876-21.366c-4.864-2.245-11.074-5.46-18.264-9.183c-12.67-6.561-28.082-14.541-39.98-19.093      c-16.278,11.522-28.872,30.394-37.476,56.177c-8.609,25.8-12.615,57.269-11.585,91.004c0.052,1.711-0.335,3.407-1.127,4.926      C165.347,384.858,138.902,407.089,83.743,421.78z" style="fill:#BFA002;"/></g></g></g></g><g id="Layer_1"/></svg>