<?xml version="1.0" ?><!DOCTYPE svg  PUBLIC '-//W3C//DTD SVG 1.1//EN'  'http://www.w3.org/Graphics/SVG/1.1/DTD/svg11.dtd'><svg height="512px" style="enable-background:new 0 0 512 512;" version="1.1" viewBox="0 0 512 512" width="512px" xml:space="preserve" xmlns="http://www.w3.org/2000/svg" xmlns:xlink="http://www.w3.org/1999/xlink"><g id="comp_x5F_16-amex_x2C__Credit_card"><g><g><g><path d="M439.5,431h-367C46.819,431,26,410.182,26,384.5v-257C26,101.819,46.819,81,72.5,81h367      c25.682,0,46.5,20.819,46.5,46.5v257C486,410.182,465.182,431,439.5,431z" style="fill:#016FD0;"/><path d="M439.5,441h-367C41.346,441,16,415.654,16,384.5v-257C16,96.346,41.346,71,72.5,71h367      c31.154,0,56.5,25.346,56.5,56.5v257C496,415.654,470.654,441,439.5,441z M72.5,91C52.374,91,36,107.374,36,127.5v257      c0,20.126,16.374,36.5,36.5,36.5h367c20.126,0,36.5-16.374,36.5-36.5v-257c0-20.126-16.374-36.5-36.5-36.5H72.5z" style="fill:#01539C;"/></g><g><path d="M274.043,211.531c5.259-2.132,8.383-7.601,8.312-13.285c0-11.649-10.016-13.069-19.464-13.069      l-27.776-0.214v49.229h11.649v-17.83h12.788c13.071,0,10.301,7.317,10.514,17.83h11.793v-9.59      C281.858,218.066,280.792,213.875,274.043,211.531z M261.471,206.274h-14.707v-10.87h14.919c3.623,0,7.6,0.711,7.6,5.257      C269.283,205.351,265.518,206.274,261.471,206.274z" style="fill:#FFFFFF;"/><path d="M249.606,269.854H212.17l-14.919,16.195l-14.563-16.195h-47.239l-0.072,49.229h46.46      l15.13-16.338l14.492,16.338h22.874l0.071-16.55c13.426,0,35.023,3.266,35.023-16.552      C269.427,273.689,260.688,269.854,249.606,269.854z M175.869,308.711h-28.842v-9.804h25.787v-10.015h-25.787v-8.882h29.623      l12.716,14.352L175.869,308.711z M222.611,314.536l-17.972-19.961l17.972-19.465V314.536z M249.465,292.516h-15.061v-12.505      h15.273c3.978,0,7.247,1.634,7.247,5.97C256.924,290.525,253.655,292.516,249.465,292.516z" style="fill:#FFFFFF;"/><polygon points="227.016,195.405 227.016,185.034 187.59,185.034 187.59,234.263 227.016,234.263       227.016,224.104 199.382,224.104 199.382,214.301 226.235,214.301 226.235,204.285 199.382,204.285 199.382,195.405     " style="fill:#FFFFFF;"/><path d="M313.896,296.209c5.471-2.203,8.385-7.673,8.454-13.07c0-11.651-10.016-13.285-19.251-13.285      h-27.99l-0.069,49.229h11.792l0.069-17.971h12.504c7.814,0,10.514,1.421,10.514,9.803l-0.071,8.168h11.793l0.071-9.803      C321.711,302.957,320.432,298.553,313.896,296.209z M301.606,291.094H286.9v-11.083h14.919c3.624,0,7.602,0.712,7.602,5.258      C309.421,290.17,305.586,291.094,301.606,291.094z" style="fill:#FFFFFF;"/><g><path d="M159.246,185.034l-13.994,33.387l-15.416-33.387h-19.251v46.671l-19.961-46.671H73.218       L52.12,234.263h12.716l4.546-10.868h24.508l4.546,10.868h24.011V195.76l17.049,38.502h10.372l17.049-38.502v38.502h11.936       v-49.229H159.246z M73.573,213.165l7.957-19.606l8.17,19.606H73.573z" style="fill:#FFFFFF;"/></g><path d="M438.498,280.225h21.383v-10.371h-23.373c-9.093,0-16.906,4.688-16.906,14.706      c0,23.441,30.333,9.094,30.333,19.464c0,3.622-3.055,4.546-5.967,4.546h-22.732l-0.071,10.513h22.732      c5.968,0,12.503-1.279,15.984-6.321v-18.329c-7.461-9.802-27.918-0.923-27.918-9.589      C431.963,280.723,435.229,280.225,438.498,280.225z" style="fill:#FFFFFF;"/><path d="M398.004,308.498h-22.872l-0.072,10.514h22.875c10.515,0,18.612-3.979,18.612-15.627      c0-23.586-30.475-7.957-30.475-18.686c0-3.977,3.48-4.545,6.534-4.545h21.596v-10.373h-23.584      c-9.093,0-16.694,4.689-16.694,14.705c0,23.443,30.332,8.882,30.332,19.466C404.187,307.788,400.917,308.498,398.004,308.498z" style="fill:#FFFFFF;"/><polygon points="368.027,280.011 368.027,269.854 328.814,269.854 328.743,319.082 367.957,319.082       368.027,308.924 340.606,308.711 340.606,298.907 367.53,298.907 367.53,288.893 340.678,288.893 340.678,280.011     " style="fill:#FFFFFF;"/><path d="M342.524,195.76h-0.071H342.524z" style="fill:#FFFFFF;"/><path d="M428.409,185.177v34.169l-20.672-34.169h-17.973v46.458l-19.818-46.458h-17.618l-16.694,38.714      h-5.256c-9.449,0-11.438-5.754-11.438-14.136c0-16.908,11.153-14.208,23.513-13.995v-10.798h-11.438      c-16.692,0-24.151,8.524-24.151,25.077c0,15.77,7.245,24.152,23.441,24.152h13.642l4.544-10.869h24.367l4.687,10.869h23.942      v-36.868l22.163,36.868h16.766v-49.015H428.409z M352.683,213.165l8.241-19.606l7.955,19.606H352.683z" style="fill:#FFFFFF;"/><rect height="49.229" style="fill:#FFFFFF;" width="12.005" x="289.104" y="185.034"/></g></g></g></g><g id="Layer_1"/></svg>