<?xml version="1.0" ?><!DOCTYPE svg  PUBLIC '-//W3C//DTD SVG 1.1//EN'  'http://www.w3.org/Graphics/SVG/1.1/DTD/svg11.dtd'><svg height="512px" style="enable-background:new 0 0 512 512;" version="1.1" viewBox="0 0 512 512" width="512px" xml:space="preserve" xmlns="http://www.w3.org/2000/svg" xmlns:xlink="http://www.w3.org/1999/xlink"><g id="comp_x5F_17-amilia"><g><g><g><path d="M271.026,46.001c-58.03,0-123.281,15.845-172.687,51.938c-4.781,2.906-8.531,8.624-6.75,18.186      c1.031,4.782,4.781,25.688,9.562,37.125c3.845,9.563,13.313,9.563,19.032,5.72c30.469-20.906,90.468-44.719,142.78-44.719      c54.28,0,55.218,26.625,55.218,68.531v36.094c-81.937,10.594-198.935,32.437-228.467,44.813      c-33.281,15.28-28.5,87.655-28.5,104.812c0,17.154,14.251,97.499,117.094,97.499c44.813,0,106.592-19.405,143.717-39.469v23.813      c0,2.812,1.968,7.687,5.718,8.531c2.907,0.938,47.531,1.874,56.157,1.874c8.625,0,58.593,0.28,62.342-0.656      c3.845-0.938,4.781-5.719,4.781-8.532v-278.06C450.932,98.221,396.744,46.001,271.026,46.001z M318.087,372.249      c-20.062,12.377-45.654,22.877-74.154,22.877c-49.5,0-55.218-31.408-55.312-41.908c0-11.438-2.813-40.03,17.156-49.594      c22.78-12.376,70.404-27.561,112.31-31.405V372.249z" style="fill:#0099E5;"/><path d="M178.309,475.999c-58.605,0-89.532-25.22-105.157-46.376      C55.835,406.176,51.215,380.17,51.215,368.5c0-1.51-0.039-3.462-0.084-5.774c-0.537-27.381-1.795-91.502,34.412-108.125      c0.102-0.047,0.204-0.092,0.307-0.135c29.821-12.497,139.552-33.215,222.332-44.356v-27.327c0-17.978,0-34.958-5.866-44.898      c-3.745-6.348-11.604-13.633-39.352-13.633c-48.394,0-106.768,22.136-137.123,42.964c-4.018,2.701-8.77,4.158-13.46,4.158      c-9.194,0-16.845-5.353-20.479-14.324c-4.447-10.671-7.851-27.689-9.488-35.874c-0.253-1.263-0.454-2.271-0.599-2.943      c-0.02-0.092-0.038-0.184-0.056-0.276c-2.235-11.999,1.869-22.545,10.988-28.314c46.833-34.092,111.788-53.641,178.28-53.641      c62.519,0,110.697,12.646,143.196,37.587c30.566,23.457,46.75,58.002,46.801,99.901v278.072c0,9.246-4.872,16.409-12.412,18.248      c-1.718,0.429-3.924,0.979-42.229,0.979c-6.558,0-12.622-0.016-16.986-0.027c-2.437-0.007-4.34-0.012-5.496-0.012      c-0.499,0-49.333-0.403-58.349-2.144l-0.006,0.025c-8.463-1.906-13.521-10.795-13.521-18.287v-7.646      C274.233,460.227,220.513,475.999,178.309,475.999z M93.744,272.843c-24.152,11.32-22.998,70.138-22.618,89.49      c0.048,2.47,0.088,4.555,0.088,6.167c0,6.908,3.238,29.22,18.025,49.241c18.749,25.386,48.715,38.258,89.069,38.258      c44.269,0,104.637-19.716,138.962-38.267c3.1-1.674,6.851-1.596,9.876,0.209c3.025,1.804,4.879,5.066,4.879,8.589v22.78      c9.729,0.673,43.068,1.438,51.875,1.438c1.168,0,3.089,0.005,5.55,0.012c4.351,0.012,10.396,0.027,16.933,0.027      c20.714,0,30.252-0.167,34.641-0.325V173.501c-0.044-35.951-13.157-64.232-38.977-84.047      c-28.925-22.198-73.007-33.453-131.021-33.453c-62.49,0-123.281,18.229-166.788,50.013c-0.228,0.167-0.463,0.324-0.705,0.471      c-0.871,0.529-3.173,1.929-2.136,7.688c0.157,0.735,0.367,1.785,0.626,3.08c1.396,6.975,4.663,23.31,8.354,32.141      c0.018,0.042,0.035,0.084,0.052,0.126c0.745,1.854,1.414,1.854,1.951,1.854c0.727,0,1.579-0.27,2.224-0.704      c33.579-23.04,95.374-46.419,148.359-46.419c29.15,0,47.127,7.457,56.576,23.468c8.642,14.644,8.642,34.277,8.642,55.063v36.094      c0,5.027-3.732,9.273-8.718,9.917C240.612,238.988,122.537,260.881,93.744,272.843z M243.933,405.126      c-24.356,0-42.48-6.938-53.869-20.619c-10.186-12.235-11.395-25.896-11.442-31.2c0-1.155-0.027-2.38-0.056-3.729      c-0.298-14.093-0.915-43.367,22.65-54.855c23.612-12.764,72.163-28.443,115.957-32.461c2.807-0.262,5.577,0.677,7.654,2.571      c2.076,1.895,3.26,4.575,3.26,7.387v100.03c0,3.469-1.798,6.689-4.749,8.511C297.131,396.928,270.415,405.126,243.933,405.126z       M308.087,283.423c-37.065,5.016-77.447,18.074-97.536,28.988c-0.149,0.081-0.301,0.158-0.455,0.231      c-11.242,5.385-11.849,21.67-11.535,36.512c0.032,1.506,0.06,2.873,0.06,4.063c0.067,7.417,3.532,31.908,45.312,31.908      c21.155,0,42.713-6.24,64.154-18.559V283.423z" style="fill:#0073AC;"/></g></g></g></g><g id="Layer_1"/></svg>