<?xml version="1.0" ?><!DOCTYPE svg  PUBLIC '-//W3C//DTD SVG 1.1//EN'  'http://www.w3.org/Graphics/SVG/1.1/DTD/svg11.dtd'><svg height="512px" style="enable-background:new 0 0 512 512;" version="1.1" viewBox="0 0 512 512" width="512px" xml:space="preserve" xmlns="http://www.w3.org/2000/svg" xmlns:xlink="http://www.w3.org/1999/xlink"><g id="comp_x5F_29-ati"><g><g><g><path d="M237.22,128.075c-11.299-4.236-23.977-0.892-31.799,8.273l-172.5,201.8      c-10.321,12.08-8.943,30.271,3.103,40.617c5.437,4.706,12.079,6.977,18.722,6.977c8.105,0,16.154-3.402,21.847-10.088      L198.494,233.04v123.877c0,15.942,12.882,28.824,28.747,28.824c15.874,0,28.755-12.882,28.755-28.824V155.114      C255.997,143.066,248.489,132.286,237.22,128.075z" style="fill:#D30000;"/><path d="M227.241,395.741c-21.365,0-38.747-17.416-38.747-38.824v-96.788L84.194,382.15      c-7.35,8.632-18.088,13.591-29.449,13.591c-9.278,0-18.251-3.344-25.266-9.416c-16.167-13.884-18.046-38.422-4.162-54.674      L197.819,129.85c7.371-8.635,18.09-13.591,29.405-13.591c4.622,0,9.166,0.825,13.506,2.452      c15.109,5.646,25.267,20.277,25.266,36.404v201.802C265.996,378.325,248.61,395.741,227.241,395.741z M198.496,223.039      c1.16,0,2.331,0.202,3.461,0.619c3.928,1.45,6.537,5.194,6.537,9.381v123.877c0,10.38,8.41,18.824,18.747,18.824      c10.342,0,18.755-8.444,18.755-18.824V155.114c0-7.827-4.933-14.928-12.276-17.672c-2.097-0.786-4.279-1.183-6.495-1.183      c-5.453,0-10.628,2.399-14.198,6.581L40.522,344.646c-6.738,7.887-5.834,19.79,2.017,26.533      c3.459,2.993,7.67,4.563,12.207,4.563c5.49,0,10.678-2.396,14.233-6.571l121.914-142.628      C192.83,224.275,195.627,223.039,198.496,223.039z" style="fill:#9E0000;"/></g><g><path d="M399.748,126.288H284.744c-15.869,0-28.747,12.917-28.747,28.827      c0,15.914,12.878,28.83,28.747,28.83h28.753v172.973c0,15.939,12.853,28.824,28.749,28.824      c15.897,0,28.747-12.885,28.747-28.824V183.944h28.753c15.899,0,28.748-12.916,28.748-28.83      C428.494,139.205,415.646,126.288,399.748,126.288z" style="fill:#D30000;"/><path d="M342.246,395.741c-21.366,0-38.749-17.417-38.749-38.824V193.944h-18.753      c-21.365,0-38.747-17.419-38.747-38.83c0-21.409,17.382-38.827,38.747-38.827h115.004c21.364,0,38.746,17.417,38.746,38.827      c0,21.411-17.382,38.83-38.748,38.83h-18.753v162.973C380.993,378.324,363.611,395.741,342.246,395.741z M284.744,136.288      c-10.337,0-18.747,8.446-18.747,18.827c0,10.383,8.41,18.83,18.747,18.83h28.753c5.522,0,10,4.477,10,10v172.973      c0,10.38,8.411,18.824,18.749,18.824c10.337,0,18.747-8.444,18.747-18.824V183.944c0-5.523,4.478-10,10-10h28.753      c10.338,0,18.748-8.447,18.748-18.83c0-10.381-8.409-18.827-18.746-18.827H284.744z" style="fill:#9E0000;"/></g><g><circle cx="169.742" cy="313.673" r="1.2" style="fill:#D30000;"/><path d="M169.742,324.873c-6.174,0-11.196-5.024-11.196-11.199c0-6.176,5.022-11.2,11.196-11.2      c6.173,0,11.196,5.024,11.196,11.2C180.938,319.849,175.916,324.873,169.742,324.873z M169.742,304.873      c-4.854,0-8.804,3.948-8.804,8.801s3.95,8.8,8.804,8.8s8.804-3.947,8.804-8.8S174.597,304.873,169.742,304.873z" style="fill:#9E0000;"/></g><g><path d="M457.247,126.288c-15.896,0-28.753,12.917-28.753,28.827V342.5      c0,15.944,12.856,28.825,28.753,28.825c15.9,0,28.752-12.881,28.752-28.825V155.114      C485.999,139.205,473.147,126.288,457.247,126.288z" style="fill:#D30000;"/><path d="M457.247,381.325c-21.368,0-38.753-17.417-38.753-38.825V155.114      c0-21.409,17.385-38.827,38.753-38.827s38.752,17.417,38.752,38.827V342.5C495.999,363.908,478.615,381.325,457.247,381.325z       M457.247,136.288c-10.341,0-18.753,8.446-18.753,18.827V342.5c0,10.38,8.412,18.825,18.753,18.825      c10.34,0,18.752-8.445,18.752-18.825V155.114C475.999,144.733,467.587,136.288,457.247,136.288z" style="fill:#9E0000;"/></g><g><ellipse cx="457.248" cy="155.117" rx="4.4" ry="4.412" style="fill:#D30000;"/><path d="M457.248,169.529c-7.94,0-14.4-6.465-14.4-14.413c0-7.947,6.46-14.412,14.4-14.412      c7.941,0,14.401,6.465,14.401,14.412C471.649,163.063,465.189,169.529,457.248,169.529z M457.248,149.529      c-3.087,0-5.599,2.506-5.599,5.587c0,3.082,2.512,5.588,5.599,5.588c3.088,0,5.6-2.507,5.6-5.588      C462.848,152.035,460.336,149.529,457.248,149.529z" style="fill:#9E0000;"/></g></g></g></g><g id="Layer_1"/></svg>