<?xml version="1.0" ?><!DOCTYPE svg  PUBLIC '-//W3C//DTD SVG 1.1//EN'  'http://www.w3.org/Graphics/SVG/1.1/DTD/svg11.dtd'><svg height="512px" style="enable-background:new 0 0 512 512;" version="1.1" viewBox="0 0 512 512" width="512px" xml:space="preserve" xmlns="http://www.w3.org/2000/svg" xmlns:xlink="http://www.w3.org/1999/xlink"><g id="comp_x5F_41-bing"><g><g><g id="_x31_25-bing_10_"><g><g><g><g><path d="M216,135.563l43.008,100.626l67.417,29.64l-142.472,70.984V74.563L66,31.438v377.25          l117.953,71.875L446,322.438v-115L216,135.563z" style="fill:#FFB901;"/><path d="M183.953,490.563c-1.803,0-3.606-0.487-5.204-1.461L60.796,417.227          c-2.979-1.814-4.796-5.051-4.796-8.539V31.438c0-3.265,1.594-6.325,4.27-8.196c2.677-1.871,6.097-2.318,9.164-1.196          l117.953,43.125c3.943,1.442,6.566,5.193,6.566,9.392v246.096l108.912-54.264l-47.882-21.051          c-2.324-1.022-4.172-2.89-5.17-5.224l-43.008-100.626c-1.534-3.588-0.84-7.74,1.776-10.635          c2.617-2.895,6.678-4.003,10.402-2.84l230,71.875c4.175,1.305,7.018,5.171,7.018,9.545v115c0,3.504-1.834,6.752-4.834,8.562          L189.12,489.124C187.531,490.083,185.742,490.563,183.953,490.563z M76,403.07l107.979,65.797L436,316.792V214.79          l-202.28-63.212l32.931,77.048l63.799,28.05c3.552,1.562,5.88,5.036,5.973,8.914c0.093,3.879-2.065,7.461-5.537,9.19          l-142.472,70.984c-3.1,1.547-6.779,1.376-9.723-0.447c-2.945-1.823-4.737-5.04-4.737-8.503V81.554L76,45.742V403.07z" style="fill:#BF8B01;"/></g></g></g></g></g></g></g></g><g id="Layer_1"/></svg>