<?xml version="1.0" ?><!DOCTYPE svg  PUBLIC '-//W3C//DTD SVG 1.1//EN'  'http://www.w3.org/Graphics/SVG/1.1/DTD/svg11.dtd'><svg height="512px" style="enable-background:new 0 0 512 512;" version="1.1" viewBox="0 0 512 512" width="512px" xml:space="preserve" xmlns="http://www.w3.org/2000/svg" xmlns:xlink="http://www.w3.org/1999/xlink"><g id="comp_x5F_50-brightkite"><g><g><g><path d="M177.985,50c-32.718,0-38.882,24.308-38.882,24.308L63.401,462      c0,0,340.904-116.006,367.38-128.234c11.579-5.336,17.817-15.275,17.817-24.412V50H177.985z" style="fill:#CDDC39;"/><g><path d="M63.402,472c-2.384,0-4.729-0.853-6.579-2.468c-2.687-2.347-3.921-5.947-3.237-9.448       l75.702-387.692c0.035-0.182,0.076-0.362,0.121-0.542C132.204,60.834,145.951,40,177.985,40h270.613c5.522,0,10,4.477,10,10       v259.353c0,13.731-9.276,26.879-23.632,33.494C408.329,355.15,80.563,466.724,66.623,471.467       C65.57,471.825,64.482,472,63.402,472z M148.844,76.603L76.526,446.967c121.284-41.33,330.412-113.203,350.062-122.279       c8.3-3.825,12.011-10.456,12.011-15.334V60H177.985C154.654,60,149.379,74.867,148.844,76.603z" style="fill:#000925;"/></g></g><g><g><path d="M349.297,179.578C334,141,270,168.861,270,168.861V92.463l-50,7.645v193.33       c0,0,29.041,27.504,77.347,19.879c48.329-7.645,55.672-48.15,55.672-48.15S367.304,224.991,349.297,179.578z M310,247.25       c0,12.564-10.186,22.75-22.75,22.75H270v-70h17.25c12.564,0,22.75,10.186,22.75,22.75V247.25z" style="fill:#37474F;"/></g><g><g><path d="M280.582,324.652c-0.001,0-0.002,0-0.004,0c-41.68-0.001-66.421-22.976-67.454-23.954        c-1.994-1.889-3.124-4.514-3.124-7.261v-193.33c0-4.939,3.606-9.139,8.489-9.885l50-7.645c2.888-0.438,5.814,0.4,8.026,2.299        c2.213,1.899,3.485,4.67,3.485,7.586v62.245c9.081-2.736,21.473-5.575,33.786-5.575c28.264,0,39.966,14.551,44.807,26.759        c18.056,45.536,6.078,85.872,4.092,91.905c-1.458,6.617-12.461,47.28-63.775,55.396        C292.776,324.162,286.611,324.652,280.582,324.652z M230,288.664c6.872,5.041,24.765,15.987,50.579,15.988        c0.001,0,0.002,0,0.003,0c4.988,0,10.104-0.408,15.205-1.214c40.843-6.46,47.331-39.721,47.392-40.057        c0.097-0.532,0.236-1.056,0.418-1.566c0.119-0.343,12.711-37.427-3.596-78.551c-2.405-6.066-7.74-14.131-26.215-14.131        c-19.138,0-39.59,8.808-39.795,8.896c-3.092,1.346-6.652,1.043-9.473-0.805c-2.819-1.848-4.519-4.993-4.519-8.364v-64.752        l-30,4.587V288.664z M287.25,280H270c-5.522,0-10-4.478-10-10v-70c0-5.523,4.478-10,10-10h17.25        c18.059,0,32.75,14.691,32.75,32.75v24.5C320,265.309,305.309,280,287.25,280z M280,260h7.25c7.03,0,12.75-5.719,12.75-12.75        v-24.5c0-7.03-5.72-12.75-12.75-12.75H280V260z" style="fill:#000925;"/></g></g></g></g></g></g><g id="Layer_1"/></svg>