<?xml version="1.0" ?><!DOCTYPE svg  PUBLIC '-//W3C//DTD SVG 1.1//EN'  'http://www.w3.org/Graphics/SVG/1.1/DTD/svg11.dtd'><svg height="512px" style="enable-background:new 0 0 512 512;" version="1.1" viewBox="0 0 512 512" width="512px" xml:space="preserve" xmlns="http://www.w3.org/2000/svg" xmlns:xlink="http://www.w3.org/1999/xlink"><g id="comp_x5F_70-creative-commons-remix"><g><g><circle cx="256" cy="256" r="229.5"/><path d="M405.454,276.309l4.544,2.041v64.919c-6.677,3.339-58.798,25.504-62.415,26.712     c-6.026-1.67-105.446-43.406-127.334-52.123l-59.54,24.668l-58.707-25.5v-59.172L157,234.854     c-0.65-0.649-0.371,4.637-0.371-65.29l62.414-27.544l140.874,58.335v57.127L405.454,276.309z M340.165,351.896v-40.624h-0.373     v-1.669l-105.539-43.125v41.919l105.539,43.499v-0.374L340.165,351.896z M347.119,298.474l37.004-15.208l-34.129-14.375     L313.825,284.1L347.119,298.474z M395.623,333.809v-39.875l-41.084,17.247v40.25L395.623,333.809z" style="fill:#FFFFFF;"/></g></g></g><g id="Layer_1"/></svg>