<?xml version="1.0" ?><!DOCTYPE svg  PUBLIC '-//W3C//DTD SVG 1.1//EN'  'http://www.w3.org/Graphics/SVG/1.1/DTD/svg11.dtd'><svg height="512px" style="enable-background:new 0 0 512 512;" version="1.1" viewBox="0 0 512 512" width="512px" xml:space="preserve" xmlns="http://www.w3.org/2000/svg" xmlns:xlink="http://www.w3.org/1999/xlink"><g id="comp_x5F_62-creative-commons"><g><g><g><circle cx="256" cy="256" r="233"/><path d="M256,499c-64.908,0-125.93-25.276-171.827-71.173C38.276,381.931,13,320.908,13,256      c0-64.908,25.276-125.93,71.173-171.827C130.07,38.276,191.092,13,256,13c64.907,0,125.93,25.276,171.827,71.173      C473.724,130.07,499,191.092,499,256c0,64.907-25.276,125.931-71.173,171.827C381.93,473.724,320.907,499,256,499z M256,33      C133.038,33,33,133.038,33,256c0,122.963,100.038,223,223,223c122.963,0,223-100.037,223-223C479,133.038,378.963,33,256,33z"/></g><g><path d="M187.581,303.362c-25.942,0-35.892-21.901-35.892-47.368c0-31.581,11.982-47.365,35.892-47.365      c2.399,0,19.479,0.377,29.669,21.532l35.893-18.669c-14.358-25.835-38.108-38.756-71.299-38.745      c-32.013,0-78.472,19.848-78.472,83.258c0,72.1,55.491,83.248,79.91,83.248c42.579,0,63.669-29.68,70.336-42.113l-33.007-16.749      C214.214,295.701,203.214,303.362,187.581,303.362z" style="fill:#FFFFFF;"/><path d="M375.135,280.391c-6.363,15.311-17.384,22.972-32.996,22.972      c-25.92,0-35.893-21.923-35.893-47.368c0-31.581,11.973-47.365,35.893-47.365c2.354,0,19.879,0.171,30.143,21.532l35.418-18.669      c-14.023-25.835-37.652-38.756-70.833-38.745c-32.046,0-78.476,19.869-78.476,83.258c0,72.584,55.397,83.248,79.912,83.248      c47.215,0,68.057-38.063,70.326-42.113L375.135,280.391z" style="fill:#FFFFFF;"/></g></g></g></g><g id="Layer_1"/></svg>