<?xml version="1.0" ?><!DOCTYPE svg  PUBLIC '-//W3C//DTD SVG 1.1//EN'  'http://www.w3.org/Graphics/SVG/1.1/DTD/svg11.dtd'><svg height="512px" style="enable-background:new 0 0 512 512;" version="1.1" viewBox="0 0 512 512" width="512px" xml:space="preserve" xmlns="http://www.w3.org/2000/svg" xmlns:xlink="http://www.w3.org/1999/xlink"><g id="comp_x5F_72-creative-commons-sampling"><g><g><circle cx="256" cy="256" r="229.5"/><g><path d="M292.997,386c-5.113,0-9.42-3.868-9.944-8.978l-11.585-112.717l-5.482,102.229      c-0.277,5.17-4.454,9.273-9.627,9.458c-5.188,0.207-9.633-3.608-10.28-8.744l-11.808-93.825l-5.294,77.26      c-0.35,5.101-4.49,9.116-9.598,9.31c-5.136,0.188-9.541-3.499-10.275-8.558l-14.888-102.607l-14.658,98.641      c-0.729,4.906-4.942,8.53-9.89,8.53c-0.042,0-0.084,0-0.126-0.001c-5.002-0.062-9.188-3.811-9.801-8.775l-9.481-76.876      l-9.87,12.004c-1.899,2.31-4.733,3.648-7.724,3.648H90c-5.523,0-10-4.478-10-10s4.477-10,10-10h37.942l21.667-26.351      c2.539-3.088,6.673-4.366,10.514-3.252c3.84,1.115,6.646,4.411,7.135,8.379l3.329,26.993l13.854-93.238      c0.729-4.902,4.938-8.53,9.892-8.53c0.006,0,0.011,0,0.017,0c4.962,0.008,9.167,3.654,9.879,8.564l11.203,77.21l5.924-86.458      c0.352-5.136,4.546-9.166,9.693-9.313c5.173-0.126,9.563,3.64,10.206,8.748l10.734,85.291l6.358-118.578      c0.279-5.213,4.522-9.334,9.741-9.461c5.263-0.136,9.658,3.782,10.191,8.975l12.09,117.624l4.98-83.199      c0.309-5.148,4.481-9.218,9.636-9.396c5.166-0.187,9.599,3.592,10.264,8.707l12.099,93.193l5.013-66.655      c0.376-5.002,4.4-8.952,9.41-9.234c4.997-0.278,9.451,3.191,10.387,8.12l19.096,100.64l11.445-23.199      c1.684-3.415,5.161-5.576,8.968-5.576H430c5.522,0,10,4.478,10,10s-4.478,10-10,10h-32.116l-21.916,44.424      c-1.901,3.856-6.055,6.072-10.317,5.484c-4.261-0.58-7.674-3.819-8.476-8.044l-10.549-55.598l-6.654,88.483      c-0.385,5.113-4.575,9.107-9.701,9.246c-5.164,0.156-9.527-3.623-10.188-8.709l-11.076-85.318l-6.024,100.629      c-0.312,5.199-4.562,9.289-9.77,9.4C293.141,385.999,293.068,386,292.997,386z" style="fill:#FFFFFF;"/></g></g></g></g><g id="Layer_1"/></svg>