<?xml version="1.0" ?><!DOCTYPE svg  PUBLIC '-//W3C//DTD SVG 1.1//EN'  'http://www.w3.org/Graphics/SVG/1.1/DTD/svg11.dtd'><svg height="512px" style="enable-background:new 0 0 512 512;" version="1.1" viewBox="0 0 512 512" width="512px" xml:space="preserve" xmlns="http://www.w3.org/2000/svg" xmlns:xlink="http://www.w3.org/1999/xlink"><g id="comp_x5F_83-deskpro"><g><g><g><path d="M224.138,477.968l25.634-31.653c10.14-0.163,21.101-1.152,30.085-5.439      c32.064-15.33,31.654-51.021,31.57-52.587c-0.082-4.122-0.658-3.628-23.82-30.829h65.199      c-0.166,41.298-6.018,56.463-8.408,62.398c-7.748,19.535-36.186,51.765-78.471,57.204      C258.758,477.968,238.892,478.049,224.138,477.968L224.138,477.968z M396.932,329.412c31.82,0,48.221-11.21,60.75-25.469      l-144.66-0.248l-14.342,25.8L396.932,329.412z M217.626,317.638h-75.009c-21.019,0-91.329-22.09-88.197-93.966V47.855      c0-13.188,7.996-13.683,12.364-13.848h35.413c15.87,0,30.796,7.539,40.215,20.311l30.724,41.661      c5.107,8.242,16.025,10.615,24.093,5.237l0,0c7.27-4.846,9.734-14.382,5.724-22.144L179.71,34.09h69.404      c89.597-0.33,104.269,65.447,104.269,99.077l0,0v138.725h-60.584l-24.232,41.128c-1.686,2.861-4.758,4.617-8.078,4.617l0,0      l-28.927-70.332c-2.023-4.921-6.265-8.587-11.426-9.877l0,0c-12.583-3.146-23.813,8.59-20.114,21.022L217.626,317.638z       M244.167,179.326l52.752,24.152C307.883,165.973,262.137,144.377,244.167,179.326z" style="fill:#1568B4;"/><path d="M232.602,487.992c-2.938,0-5.814-0.01-8.519-0.024c-3.845-0.021-7.337-2.245-8.983-5.72      c-1.646-3.475-1.153-7.586,1.266-10.574L242,440.021c1.863-2.301,4.65-3.657,7.611-3.705c7.366-0.118,18.069-0.71,25.939-4.466      c24.701-11.81,25.851-38.921,25.888-42.701c-1.268-1.728-4.605-5.599-8.991-10.687c-3.181-3.688-7.249-8.407-12.453-14.52      c-2.528-2.969-3.101-7.137-1.465-10.677c1.635-3.54,5.179-5.807,9.078-5.807h65.199c2.659,0,5.209,1.059,7.085,2.943      c1.877,1.884,2.926,4.438,2.915,7.097c-0.177,43.858-6.683,60.013-9.132,66.095c-8.434,21.262-39.389,57.329-86.472,63.386      C261.809,487.662,250.497,487.992,232.602,487.992z M254.652,456.179l-9.511,11.744c12.568-0.155,17.57-0.534,19.533-0.782      c39.974-5.143,64.714-36.561,70.429-50.97c1.714-4.256,6.569-16.311,7.538-48.712h-33.274      c10.431,12.114,11.906,14.142,12.056,20.467c0.584,12.181-4.952,46.529-37.251,61.971      C274.596,454.466,263.819,455.785,254.652,456.179z M298.68,339.495c-3.542,0-6.82-1.874-8.617-4.926      c-1.799-3.056-1.846-6.834-0.123-9.933l14.342-25.8c1.764-3.174,5.11-5.142,8.74-5.142c0.006,0,0.012,0,0.018,0l144.66,0.248      c3.924,0.007,7.481,2.309,9.097,5.885c1.614,3.577,0.988,7.768-1.603,10.716c-11.81,13.44-30.242,28.868-68.262,28.868      l-98.243,0.083C298.686,339.495,298.683,339.495,298.68,339.495z M318.898,313.705l-3.211,5.775l81.235-0.068      c13.343,0,23.399-2.133,31.345-5.52L318.898,313.705z M260.488,327.638c-4.054,0-7.707-2.447-9.249-6.196l-28.927-70.332      c-0.812-1.975-2.533-3.462-4.603-3.98c-0.579-0.145-1.158-0.218-1.719-0.218c-2.063,0-4.063,1.032-5.353,2.761      c-0.746,1-1.873,3.101-1.032,5.927l17.418,58.558c0.402,1.083,0.622,2.256,0.622,3.479c0,5.522-4.477,10-10,10      c-0.007-0.001-0.015,0-0.02,0h-75.009c-15.571,0-49.077-9.194-72.699-33.868c-18.079-18.884-26.657-42.539-25.498-70.31V47.855      c0-8.594,2.856-23.12,21.987-23.841c0.125-0.004,0.251-0.007,0.376-0.007h35.413c18.965,0,37.007,9.112,48.263,24.375      l30.724,41.661c0.16,0.216,0.311,0.439,0.452,0.668c1.314,2.121,3.593,3.387,6.096,3.387c1.403,0,2.768-0.416,3.949-1.203      c3.035-2.023,4.061-5.993,2.386-9.233l-23.242-44.982c-1.602-3.1-1.472-6.811,0.343-9.791c1.815-2.98,5.052-4.799,8.542-4.799      l70.074-0.001c42.318,0,73.709,13.837,93.303,41.126c17.659,24.596,20.296,53.131,20.296,67.952v138.725c0,5.522-4.478,10-10,10      h-54.869l-21.331,36.204C273.716,323.981,267.318,327.638,260.488,327.638z M64.882,44.207      c-0.167,0.439-0.462,1.517-0.462,3.648v175.816c0,0.145-0.003,0.291-0.009,0.436c-0.968,22.206,5.746,40.99,19.954,55.831      c19.841,20.725,48.311,27.699,58.252,27.699h61.601l-13.783-46.335c-2.432-8.176-0.913-16.773,4.169-23.587      c5.046-6.765,13.041-10.804,21.385-10.804c2.195,0,4.405,0.274,6.57,0.815c8.209,2.053,15.032,7.95,18.25,15.776l23.478,57.081      l19.896-33.768c1.798-3.051,5.075-4.924,8.616-4.924h50.584V133.167c0-26.783-9.12-89.078-93.599-89.078l-0.633,0.001h-53.018      l15.704,30.392c6.356,12.303,2.461,27.373-9.061,35.054c-4.477,2.985-9.679,4.563-15.043,4.563      c-9.326,0-17.837-4.654-22.858-12.473l-30.511-41.372c-7.502-10.172-19.527-16.246-32.167-16.246h-35.22      C66.425,44.03,65.44,44.079,64.882,44.207z M296.92,213.478c-1.421,0-2.841-0.303-4.163-0.908l-52.752-24.152      c-2.483-1.137-4.394-3.24-5.287-5.821c-0.894-2.581-0.692-5.415,0.557-7.844c7.544-14.672,20.184-23.088,34.679-23.088      c11.792,0,23.195,5.821,30.503,15.571c8.107,10.817,10.261,24.684,6.063,39.047c-0.815,2.788-2.802,5.083-5.443,6.29      C299.756,213.177,298.338,213.478,296.92,213.478z M259.675,175.428l28.629,13.107c-0.534-3.447-1.824-6.599-3.852-9.304      c-3.551-4.737-8.971-7.566-14.499-7.566C266.217,171.666,262.73,172.963,259.675,175.428z" style="fill:#104E87;"/></g></g></g></g><g id="Layer_1"/></svg>