<?xml version="1.0" ?><!DOCTYPE svg  PUBLIC '-//W3C//DTD SVG 1.1//EN'  'http://www.w3.org/Graphics/SVG/1.1/DTD/svg11.dtd'><svg height="512px" style="enable-background:new 0 0 512 512;" version="1.1" viewBox="0 0 512 512" width="512px" xml:space="preserve" xmlns="http://www.w3.org/2000/svg" xmlns:xlink="http://www.w3.org/1999/xlink"><g id="comp_x5F_88-digg"><g><g><g><polygon points="88.832,186.031 20.535,186.031 20.535,331.819 131.464,331.819 131.464,122.25       88.832,122.25     " style="fill:#1B5891;"/><path d="M131.464,341.819H20.535c-5.523,0-10-4.478-10-10V186.031c0-5.523,4.477-10,10-10h58.297V122.25      c0-5.523,4.477-10,10-10h42.632c5.523,0,10,4.477,10,10v209.569C141.464,337.342,136.987,341.819,131.464,341.819z       M30.535,321.819h90.929V132.25H98.832v53.781c0,5.523-4.477,10-10,10H30.535V321.819z" style="fill:#14426D;"/></g><rect height="77.157" style="fill:#14426D;" width="28.832" x="60" y="220.388"/><g><polygon points="380.202,186.031 380.202,331.819 448.581,331.819 448.581,355.644 380.202,355.644       380.202,389.75 491.465,389.75 491.465,186.031 380.202,186.031     " style="fill:#1B5891;"/><path d="M491.465,399.75H380.202c-5.522,0-10-4.478-10-10v-34.106c0-5.522,4.478-10,10-10h58.379v-3.824      h-58.379c-5.522,0-10-4.478-10-10V186.031c0-5.523,4.478-10,10-10h111.263c5.522,0,10,4.477,10,10V389.75      C501.465,395.272,496.987,399.75,491.465,399.75z M390.202,379.75h91.263V196.031h-91.263v125.788h58.379      c5.522,0,10,4.478,10,10v23.824c0,5.522-4.478,10-10,10h-58.379V379.75z" style="fill:#14426D;"/></g><rect height="77.157" style="fill:#14426D;" width="25.746" x="422.835" y="220.388"/><g><polygon points="235.633,331.819 304.263,331.819 304.263,355.644 235.633,355.644 235.633,389.75       347.063,389.75 347.063,186.031 235.633,186.031     " style="fill:#1B5891;"/><path d="M347.063,399.75H235.633c-5.523,0-10-4.478-10-10v-34.106c0-5.522,4.477-10,10-10h58.63v-3.824      h-58.63c-5.523,0-10-4.478-10-10V186.031c0-5.523,4.477-10,10-10h111.431c5.522,0,10,4.477,10,10V389.75      C357.063,395.272,352.586,399.75,347.063,399.75z M245.633,379.75h91.431V196.031h-91.431v125.788h58.63c5.522,0,10,4.478,10,10      v23.824c0,5.522-4.478,10-10,10h-58.63V379.75z" style="fill:#14426D;"/></g><rect height="77.157" style="fill:#14426D;" width="25.748" x="278.433" y="220.388"/><g><rect height="42.632" style="fill:#1B5891;" width="42.884" x="159.613" y="122.25"/><path d="M202.497,174.882h-42.884c-5.523,0-10-4.477-10-10V122.25c0-5.523,4.477-10,10-10h42.884      c5.523,0,10,4.477,10,10v42.632C212.497,170.405,208.02,174.882,202.497,174.882z M169.613,154.882h22.884V132.25h-22.884      V154.882z" style="fill:#14426D;"/></g><g><rect height="135.788" style="fill:#1B5891;" width="42.884" x="159.613" y="196.031"/><path d="M202.497,341.819h-42.884c-5.523,0-10-4.478-10-10V196.031c0-5.523,4.477-10,10-10h42.884      c5.523,0,10,4.477,10,10v135.788C212.497,337.342,208.02,341.819,202.497,341.819z M169.613,321.819h22.884V206.031h-22.884      V321.819z" style="fill:#14426D;"/></g></g></g></g><g id="Layer_1"/></svg>