<?xml version="1.0" ?><!DOCTYPE svg  PUBLIC '-//W3C//DTD SVG 1.1//EN'  'http://www.w3.org/Graphics/SVG/1.1/DTD/svg11.dtd'><svg height="512px" style="enable-background:new 0 0 512 512;" version="1.1" viewBox="0 0 512 512" width="512px" xml:space="preserve" xmlns="http://www.w3.org/2000/svg" xmlns:xlink="http://www.w3.org/1999/xlink"><g id="comp_x5F_101-drupal"><g><g><g><path d="M354.255,110.161c-22.841-14.404-44.755-20.063-66.566-34.467      c-13.375-9.053-32.204-30.866-47.843-49.693c-2.777,30.145-11.831,42.388-22.635,50.928      c-21.913,17.491-35.803,22.84-55.042,33.232C145.913,118.7,58.46,178.888,58.46,291.032      c0,112.352,94.449,194.967,199.392,194.967c104.634,0,195.688-76.135,195.688-191.365      C453.54,179.093,368.144,118.7,354.255,110.161z" style="fill:#009DE0;"/><path d="M257.852,495.999c-53.658,0-106.842-21.17-145.917-58.082      C71.002,399.249,48.46,347.084,48.46,291.032c0-49.111,16.572-95.966,47.923-135.501c23.732-29.927,50.3-48.517,61.084-54.196      c4.352-2.35,8.405-4.432,12.325-6.445c13.373-6.869,24.922-12.8,41.18-25.776c7.772-6.145,16.249-15.092,18.915-44.03      c0.371-4.028,3.133-7.436,6.997-8.634c3.863-1.2,8.069,0.05,10.654,3.162c14.85,17.877,33.459,39.455,45.708,47.769      c10.527,6.946,21.14,11.757,32.375,16.851c10.94,4.96,22.252,10.088,33.927,17.446c4.995,3.084,103.992,65.913,103.992,192.957      c0,57.113-21.942,109.037-61.785,146.206C363.626,476.41,312.521,495.999,257.852,495.999z M246.085,48.831      c-5.22,19.613-14.145,29.203-22.673,35.943c-17.782,14.194-30.751,20.855-44.482,27.907c-3.845,1.975-7.821,4.017-12.009,6.279      c-0.034,0.018-0.068,0.036-0.102,0.054c-7.605,3.995-32.268,20.574-54.765,48.944C83.127,204.435,68.46,245.843,68.46,291.032      c0,101.991,84.961,184.967,189.392,184.967c105.859,0,185.688-77.97,185.688-181.365c0-116.503-90.663-173.581-94.522-175.954      c-0.032-0.02-0.064-0.04-0.097-0.061c-10.528-6.639-20.743-11.271-31.559-16.173c-11.465-5.198-23.32-10.573-35.185-18.408      c-0.031-0.021-0.063-0.042-0.095-0.063C271.691,76.941,258.784,63.425,246.085,48.831z" style="fill:#0076A8;"/></g><g><path d="M356.826,424.112c-20.679,20.682-92.7,29.529-120.067,4.32" style="fill:#009DE0;"/><path d="M289.142,453.836c-25.309,0-46.499-6.388-59.158-18.048c-4.062-3.742-4.321-10.068-0.58-14.131      c3.743-4.061,10.069-4.321,14.13-0.58c10.251,9.443,30.837,14.09,55.083,12.428c21.919-1.503,42.948-8.272,51.138-16.463      c3.904-3.906,10.237-3.907,14.142-0.001c3.906,3.904,3.906,10.236,0.001,14.142c-14.161,14.164-42.301,20.794-63.913,22.275      C296.299,453.711,292.679,453.836,289.142,453.836z" style="fill:#0076A8;"/></g><g><path d="M374.682,365.954c-15.639-1.029-46.813-50.207-66.875-50.93      c-31.792-0.926-107.105,83.029-165.954,43.213c-39.921-27.367-15.022-107.822,53.294-108.232      c50.928-0.518,86.217,50.41,111.63,49.896c21.914-0.307,63.583-43.006,84.16-43.006      C441.044,256.896,414.909,369.349,374.682,365.954z" style="fill:#FFFFFF;"/><path d="M177.124,378.96c-14.921,0.001-28.673-4.185-40.875-12.44      c-20.782-14.246-28.676-41.375-20.162-69.147c8.061-26.293,33.587-57.094,79-57.367l0.832-0.004      c32.589,0,58.55,18.354,79.41,33.102c12.223,8.641,23.767,16.803,31.065,16.803l0.182-0.002      c8.129-0.114,24.499-11.264,37.651-20.224c17.201-11.717,33.448-22.784,46.711-22.784c12.668,0,22.874,5.453,29.514,15.77      c5.238,8.139,8.008,19.252,8.008,32.139c0,33.917-19.779,81.226-51.992,81.226c-0.845,0-1.701-0.035-2.546-0.104      c-11.061-0.793-21.901-11.899-35.616-25.949c-9.607-9.842-24.127-24.716-30.858-24.959l-0.167-0.001      c-8.034,0-24.055,9.612-39.547,18.908C241.719,359.533,209.345,378.959,177.124,378.96z M195.918,260.001l-0.67,0.003      c-34.608,0.208-53.966,23.418-60.04,43.23c-5.897,19.238-1.07,37.59,12.299,46.755c8.906,6.025,18.61,8.972,29.616,8.971      c26.682-0.001,56.422-17.846,80.319-32.185c14.035-8.422,26.028-15.617,36.585-19.244c-9.583-3.49-19.397-10.43-30.245-18.098      C244.269,275.638,222.152,260.001,195.918,260.001z M375.449,355.983c0.024,0.002,0.049,0.004,0.073,0.006      c0.318,0.027,0.627,0.04,0.944,0.04c15.248,0,31.992-32.043,31.992-61.226c0-8.91-1.714-16.48-4.825-21.314      c-2.896-4.499-6.93-6.594-12.696-6.594c-7.098,0-22.819,10.709-35.451,19.313c-13.078,8.908-25.62,17.452-36.95,21.405      c11.227,4.979,22.405,16.432,34.081,28.393C360.027,343.598,371.211,355.056,375.449,355.983z" style="fill:#0076A8;"/></g><g><path d="M258.46,390.001c0,0,53.333-62.668,90,0" style="fill:#009DE0;"/><path d="M348.47,400.003c-3.437,0-6.78-1.772-8.641-4.952c-8.302-14.188-17.923-21.857-28.597-22.798      c-22.219-1.958-44.934,23.967-45.157,24.229c-3.579,4.204-9.891,4.713-14.096,1.134c-4.206-3.579-4.714-9.891-1.134-14.097      c1.185-1.392,29.412-34.083,62.143-31.189c17.502,1.542,32.341,12.517,44.104,32.621c2.789,4.767,1.187,10.892-3.581,13.681      C351.923,399.561,350.185,400.003,348.47,400.003z" style="fill:#0076A8;"/></g></g></g></g><g id="Layer_1"/></svg>