<?xml version="1.0" ?><!DOCTYPE svg  PUBLIC '-//W3C//DTD SVG 1.1//EN'  'http://www.w3.org/Graphics/SVG/1.1/DTD/svg11.dtd'><svg height="512px" style="enable-background:new 0 0 512 512;" version="1.1" viewBox="0 0 512 512" width="512px" xml:space="preserve" xmlns="http://www.w3.org/2000/svg" xmlns:xlink="http://www.w3.org/1999/xlink"><g id="_x32_6_x2C__Media_Encoder_x2C__Adobe"><g><g><rect height="492" style="fill:#A28FFF;" width="492" x="10" y="10"/><g><path d="M501.508,512H10.492C4.697,512,0,507.303,0,501.508V10.492C0,4.697,4.697,0,10.492,0h491.016      C507.303,0,512,4.697,512,10.492v491.016C512,507.303,507.303,512,501.508,512z M21,491h470V21H21V491z" style="fill:#7A6BBF;"/></g></g><g><rect height="426" style="fill:#0B004D;" width="426" x="43" y="43"/><g><path d="M480,469.508c0,5.795-4.697,10.492-10.492,10.492H43.492C37.698,480,33,475.303,33,469.508      V43.492C33,37.698,37.698,33,43.492,33h426.016C475.303,33,480,37.698,480,43.492V469.508z M54,458h404V54H54V458z" style="fill:#08003A;"/></g></g><g><g id="XMLID_151_"><g id="XMLID_156_"><polygon points="193.133,177.366 193.133,177.436 193.203,177.436      " style="fill:#A28FFF;"/></g><g id="XMLID_155_"><polygon points="163.219,147.267 163.219,147.303 163.251,147.303      " style="fill:#A28FFF;"/></g><g id="XMLID_154_"><polygon points="372.617,357.94 372.58,357.903 342.703,357.903 342.703,327.842 342.629,327.772        312.789,327.772 312.789,297.748 312.679,297.641 282.875,297.641 282.875,267.833 252.961,267.833 252.961,237.702        223.047,237.702 223.047,207.571 193.133,207.571 193.133,177.436 163.219,177.436 163.219,147.303 133.305,147.303        133.305,117.172 103.173,117.172 103.173,415.874 402.532,415.874 402.532,388.035 372.617,388.035      " style="fill:#A28FFF;"/></g><g id="XMLID_153_"><polygon points="223.047,207.46 223.047,207.571 223.154,207.571      " style="fill:#A28FFF;"/></g><g id="XMLID_152_"><polygon points="252.961,237.554 252.961,237.702 253.104,237.702      " style="fill:#A28FFF;"/></g></g><g id="XMLID_149_"><rect height="30.131" style="fill:#A28FFF;" width="29.914" x="163.219" y="117.172"/></g><g id="XMLID_148_"><rect height="30.132" style="fill:#A28FFF;" width="29.915" x="193.133" y="147.303"/></g><g id="XMLID_146_"><rect height="30.135" style="fill:#A28FFF;" width="29.914" x="223.047" y="177.436"/></g><g id="XMLID_143_"><rect height="30.131" style="fill:#A28FFF;" width="29.914" x="252.961" y="207.571"/></g><g id="XMLID_142_"><rect height="30.131" style="fill:#A28FFF;" width="29.914" x="282.875" y="237.702"/></g><g id="XMLID_139_"><rect height="30.136" style="fill:#A28FFF;" width="29.914" x="312.789" y="267.505"/></g><g id="XMLID_136_"><rect height="30.132" style="fill:#A28FFF;" width="29.914" x="342.703" y="297.641"/></g><g id="XMLID_135_"><rect height="30.131" style="fill:#A28FFF;" width="29.915" x="372.617" y="327.772"/></g><g id="XMLID_133_"><rect height="30.132" style="fill:#A28FFF;" width="29.914" x="252.961" y="147.303"/></g><g id="XMLID_128_"><rect height="30.131" style="fill:#A28FFF;" width="29.914" x="312.789" y="207.571"/></g><g id="XMLID_127_"><rect height="30.136" style="fill:#A28FFF;" width="29.915" x="372.617" y="267.505"/></g><g id="XMLID_117_"><rect height="30.132" style="fill:#A28FFF;" width="29.914" x="312.789" y="147.303"/></g><g id="XMLID_102_"><rect height="30.131" style="fill:#A28FFF;" width="29.915" x="372.617" y="207.571"/></g></g></g></g><g id="Layer_1"/></svg>