<?xml version="1.0" ?><!DOCTYPE svg  PUBLIC '-//W3C//DTD SVG 1.1//EN'  'http://www.w3.org/Graphics/SVG/1.1/DTD/svg11.dtd'><svg height="512px" style="enable-background:new 0 0 512 512;" version="1.1" viewBox="0 0 512 512" width="512px" xml:space="preserve" xmlns="http://www.w3.org/2000/svg" xmlns:xlink="http://www.w3.org/1999/xlink"><g id="comp_x5F_113-envira"><g><g><g><path d="M41.814,39c447.747,0,353.53,298.064,353.999,344l74.373,90h-24.373l-80-70      c-36.564,3.938-111,21.594-195.375-45.438C85.875,290.53,90.563,210.281,41.814,39z M116.532,82.126      c-46.594-22.031-4.875,8.625-4.875,8.625c42.375,29.25,61.875,69.094,84.562,112.405      c29.532,56.438,74.063,130.967,135.188,157.217c60.938,26.25,32.061,11.721,5.625-7.966      c-26.438-19.877-63.938-81.563-85.313-122.064C222,174.094,194.53,119.156,116.532,82.126z" style="fill:#82B441;"/><path d="M470.186,483h-24.373c-2.422,0-4.762-0.879-6.585-2.475l-76.663-67.08      c-2.097,0.258-4.309,0.546-6.594,0.843c-12.833,1.669-28.805,3.745-47.309,3.745c-52.609,0-99.858-17.219-144.445-52.641      C98.636,313.406,84.642,254.331,61.458,156.458C53.575,123.179,44.64,85.459,32.196,41.737      c-0.858-3.016-0.252-6.261,1.638-8.763c1.89-2.503,4.844-3.974,7.98-3.974c151.644,0,258.51,34.248,317.63,101.793      c68.92,78.742,55.23,181.194,48.651,230.43c-0.974,7.285-1.844,13.796-2.159,18.33l71.958,87.077      c2.467,2.985,2.988,7.127,1.338,10.63C477.583,480.764,474.059,483,470.186,483z M365.813,393c2.41,0,4.753,0.871,6.585,2.475      l74.932,65.564l-59.226-71.669c-1.458-1.766-2.268-3.979-2.29-6.269c-0.059-5.691,0.997-13.593,2.458-24.527      c6.189-46.316,19.067-142.694-43.877-214.609C290.923,82.874,193.616,50.979,55.032,49.089      c10.721,38.732,18.734,72.563,25.887,102.758c22.941,96.848,35.578,150.196,95.73,197.878      c40.919,32.509,84.099,48.308,132.013,48.308c17.209,0,32.469-1.984,44.729-3.578c4.037-0.524,7.849-1.021,11.35-1.397      C365.099,393.019,365.457,393,365.813,393z M367.154,384.592c-0.001,0-0.001,0-0.002,0c-3.33-0.001-6.214-0.608-39.702-15.034      c-28.685-12.319-56.744-35.987-83.387-70.345c-24.436-31.51-44.065-67.266-56.705-91.42l-3.131-5.989      c-21.395-40.958-39.871-76.331-78.251-102.823c-0.081-0.056-0.161-0.113-0.24-0.171c-0.194-0.143-4.815-3.543-9.399-7.363      c-6.57-5.476-14.017-11.683-11.328-19.886c1.474-4.496,5.667-7.401,10.684-7.401c3.018,0,7.695,0.689,25.113,8.925      c79.044,37.527,108.765,93.854,137.506,148.326l2.248,4.26c24.707,46.815,59.792,101.684,82.48,118.743      c6.441,4.797,13.161,9.365,18.56,13.035c3.52,2.393,6.559,4.459,8.75,6.065c2.916,2.137,8.982,6.582,6.739,13.871      C375.763,381.695,371.77,384.592,367.154,384.592z M155.067,116.881c19.318,22.881,32.85,48.789,46.887,75.663l3.123,5.972      c22.819,43.608,56.224,100.829,99.294,134.089c-21.655-27.401-44.865-66.083-61.496-97.595l-2.251-4.265      C218.56,188.929,197.445,148.911,155.067,116.881z" style="fill:#628731;"/></g></g></g></g><g id="Layer_1"/></svg>