<?xml version="1.0" ?><!DOCTYPE svg  PUBLIC '-//W3C//DTD SVG 1.1//EN'  'http://www.w3.org/Graphics/SVG/1.1/DTD/svg11.dtd'><svg height="512px" style="enable-background:new 0 0 512 512;" version="1.1" viewBox="0 0 512 512" width="512px" xml:space="preserve" xmlns="http://www.w3.org/2000/svg" xmlns:xlink="http://www.w3.org/1999/xlink"><g id="comp_x5F_129-fiverr"><g><g><g id="_x31_13-fiverr_4_"><g><g><g><g><path d="M407.363,393.066V173.76H188.654v-13.707c0-22.673,18.398-41.119,41.004-41.119h41.008          V36.696h-41.008c-67.826,0-123.019,55.345-123.019,123.357v13.707H61V256h45.637v137.066H61v82.237h180v-82.237h-52.346V256          h137.454v137.066H281v82.237h170v-82.237H407.363L407.363,393.066z" style="fill:#1DBF73;"/><path d="M451,485.304H281c-5.522,0-10-4.478-10-10v-82.237c0-5.522,4.478-10,10-10h35.107V266          H198.654v117.066H241c5.523,0,10,4.478,10,10v82.237c0,5.522-4.477,10-10,10H61c-5.523,0-10-4.478-10-10v-82.237          c0-5.522,4.477-10,10-10h35.637V266H61c-5.523,0-10-4.478-10-10v-82.24c0-5.523,4.477-10,10-10h35.639v-3.707          c0-73.534,59.672-133.357,133.019-133.357h41.008c5.522,0,10,4.477,10,10v82.239c0,5.523-4.478,10-10,10h-41.008          c-17.096,0-31.004,13.96-31.004,31.119v3.707h208.709c5.522,0,10,4.477,10,10v209.306H451c5.522,0,10,4.478,10,10v82.237          C461,480.826,456.522,485.304,451,485.304z M291,465.304h150v-62.237h-33.637c-5.522,0-10-4.478-10-10V183.76H188.654          c-5.523,0-10-4.477-10-10v-13.707c0-28.187,22.88-51.119,51.004-51.119h31.008V46.696h-31.008          c-62.319,0-113.019,50.852-113.019,113.357v13.707c0,5.523-4.477,10-10,10H71V246h35.637c5.523,0,10,4.477,10,10v137.066          c0,5.522-4.477,10-10,10H71v62.237h160v-62.237h-42.346c-5.523,0-10-4.478-10-10V256c0-5.523,4.477-10,10-10h137.454          c5.522,0,10,4.477,10,10v137.066c0,5.522-4.478,10-10,10H291V465.304z" style="fill:#168F56;"/></g><g><path d="M407.363,77.816c0,22.712-18.365,41.119-41.012,41.119          c-22.645,0-41.005-18.407-41.005-41.119c0-22.713,18.36-41.119,41.005-41.119C388.998,36.696,407.363,55.103,407.363,77.816          L407.363,77.816z" style="fill:#1DBF73;"/><path d="M366.352,128.935c-28.124,0-51.005-22.932-51.005-51.119s22.881-51.119,51.005-51.119          c13.629,0,26.442,5.319,36.078,14.979c9.63,9.654,14.934,22.489,14.934,36.14          C417.363,106.003,394.479,128.935,366.352,128.935z M366.352,46.697c-17.096,0-31.005,13.96-31.005,31.119          c0,17.159,13.909,31.119,31.005,31.119c17.1,0,31.012-13.96,31.012-31.119c0-8.318-3.229-16.136-9.094-22.015          C382.414,49.93,374.63,46.697,366.352,46.697z" style="fill:#168F56;"/></g></g></g></g></g></g></g></g><g id="Layer_1"/></svg>