<?xml version="1.0" ?><!DOCTYPE svg  PUBLIC '-//W3C//DTD SVG 1.1//EN'  'http://www.w3.org/Graphics/SVG/1.1/DTD/svg11.dtd'><svg height="512px" style="enable-background:new 0 0 512 512;" version="1.1" viewBox="0 0 512 512" width="512px" xml:space="preserve" xmlns="http://www.w3.org/2000/svg" xmlns:xlink="http://www.w3.org/1999/xlink"><g id="comp_x5F_124-fantasy-flight-games"><g><g><g><rect height="325.269" style="fill:#1872D9;" transform="matrix(0.7071 -0.7071 0.7071 0.7071 -106.0382 255.9999)" width="325.269" x="93.367" y="93.366"/><path d="M256.001,495.999c-2.652,0-5.196-1.054-7.071-2.929l-230-229.999      c-1.875-1.876-2.929-4.419-2.929-7.071s1.054-5.196,2.929-7.071l230-229.999c1.875-1.875,4.419-2.929,7.071-2.929      c2.652,0,5.196,1.054,7.071,2.929L493.07,248.929c3.905,3.905,3.905,10.237,0,14.143L263.072,493.07      C261.197,494.945,258.653,495.999,256.001,495.999z M40.143,256l215.858,215.856L471.856,256L256.001,40.143L40.143,256z" style="fill:#1256A3;"/></g><g><path d="M130,238.119c1.535-1.567,9.332-9.632,75.548-76.324c32.453-32.688,67.484-34.271,93.776-14.634      c19.284,14.407,48.592,46.117,48.662,46.195c0.532,0.579,0.837,2.238,0.453,2.646c-8.823,9.271-17.758,18.43-26.229,27.161      c-26.785-25.299-31.725-29.94-37.982-34.412c-13.912-9.935-32.414-7.931-44.612,3.993c-1.7,1.669-1.402,2.686,0.094,4.189      c2.301,2.31,22,22.182,27.475,28.015c-9.358,9.081-18.526,17.984-27.946,27.138c-9.411-9.819-19.167-19.99-28.609-29.84      c-16.748,16.514-32.642,32.188-48.427,47.753C151.461,259.381,140.727,248.754,130,238.119L130,238.119z" style="fill:#FFFFFF;"/><path d="M162.203,280c-2.542,0-5.083-0.963-7.031-2.889c-10.744-10.622-21.482-21.253-32.212-31.891      c-3.905-3.872-3.952-10.169-0.105-14.098l0.356-0.365c8.553-8.763,34.571-35.047,75.241-76.009      c19.724-19.867,41.796-30.369,63.829-30.369c15.212,0,30.091,5.107,43.027,14.769c19.58,14.629,48.388,45.649,50.04,47.44v0      c3.74,4.069,4.784,11.576,0.376,16.264c-7.331,7.704-14.679,15.269-21.783,22.584l-4.555,4.69      c-3.809,3.927-10.067,4.062-14.043,0.307c-26.695-25.214-31.285-29.512-36.931-33.546c-4.112-2.937-8.92-4.49-13.899-4.49      c-4.233,0-8.367,1.095-12.092,3.155c6.931,7.007,18.063,18.299,22.055,22.552c3.734,3.98,3.589,10.219-0.328,14.021      c-9.356,9.079-18.523,17.981-27.94,27.133c-1.911,1.856-4.46,2.861-7.147,2.826c-2.664-0.047-5.199-1.155-7.042-3.079      l-21.589-22.518l-41.206,40.633C167.277,279.04,164.739,280,162.203,280z M144.107,238.022      c6.033,5.977,12.068,11.952,18.105,17.924l41.396-40.819c1.906-1.879,4.514-2.884,7.162-2.878      c2.676,0.038,5.226,1.146,7.078,3.079l21.642,22.573c4.541-4.411,9.047-8.787,13.574-13.181      c-7.936-8.125-18.995-19.277-20.438-20.726c-1.042-1.047-4.195-4.217-4.166-9.278c0.02-3.357,1.416-6.421,4.149-9.105      c8.722-8.525,20.046-13.212,31.905-13.212c9.172,0,17.998,2.841,25.525,8.216c6.247,4.464,11.363,9.157,31.866,28.509      c4.536-4.672,9.155-9.435,13.771-14.242c-9.059-9.489-28.629-29.466-42.338-39.708c-9.588-7.161-20.037-10.792-31.058-10.792      c-16.585,0-33.75,8.458-49.636,24.46C180.075,201.645,156.348,225.595,144.107,238.022z" style="fill:#1256A3;"/></g><g><path d="M301.351,355.651c-27.773,27.727-61.113,29.848-83.729,16.021      c-17.279-10.565-30.818-25.105-57.073-52.309c9.429-9.681,18.617-19.11,27.679-28.415      c25.841,24.973,29.002,28.181,34.967,32.938c14.461,11.535,33.275,10.698,46.422-1.408c2.88-2.652,2.888-2.849,0.11-5.667      c-8.287-8.396-16.583-16.778-24.863-25.184c-1.033-1.049-2.372-1.94-0.626-3.67c8.444-8.381,16.81-16.841,25.206-25.27      c0.204-0.203,0.509-0.298,1.496-0.838c9.68,10.073,19.502,20.285,29.151,30.325c16.442-16.223,32.273-31.835,47.933-47.283      c10.706,10.485,21.231,20.801,31.977,31.326C364.216,292.543,316.079,340.947,301.351,355.651L301.351,355.651z" style="fill:#FFFFFF;"/><path d="M247.833,390c-12.694,0-24.945-3.388-35.428-9.796c-17.284-10.568-30.409-24.185-54.237-48.904      l-4.814-4.992c-3.752-3.887-3.738-10.052,0.032-13.922l27.679-28.414c3.843-3.947,10.152-4.042,14.113-0.214l8.973,8.676      c17.338,16.771,20.463,19.793,25.28,23.636c4.92,3.925,10.559,5.999,16.307,5.999c4.212,0,8.271-1.089,11.978-3.188      l-4.431-4.486c-5.184-5.247-10.367-10.493-15.545-15.749l-0.17-0.166c-1.135-1.1-4.149-4.021-4.177-8.906      c-0.012-2.245,0.638-5.58,3.807-8.719c6.027-5.982,12.132-12.124,18.037-18.063c2.373-2.388,4.747-4.775,7.122-7.16      c1.271-1.265,2.514-1.898,3.181-2.238c0.146-0.075,0.34-0.173,0.602-0.316c3.962-2.167,8.881-1.411,12.01,1.845l22.129,23.021      L341,237.774c3.886-3.833,10.123-3.844,14.021-0.026l31.978,31.327c3.927,3.847,4.013,10.143,0.191,14.095      c-15.622,16.156-62.969,63.779-78.773,79.559C290.8,380.314,269.284,390,247.833,390z M174.474,319.398      c21.485,22.284,33.696,34.773,48.364,43.742c7.34,4.487,15.983,6.859,24.995,6.859c16.116,0,32.613-7.609,46.453-21.426      c13.857-13.834,52.001-52.188,71.593-72.191l-17.83-17.468l-40.934,40.379c-1.872,1.848-4.396,2.882-7.023,2.882      c-0.044,0-0.088,0-0.133-0.001c-2.675-0.035-5.224-1.141-7.077-3.069l-22.39-23.292c-0.357,0.359-0.714,0.719-1.071,1.077      c-4.126,4.15-8.35,8.399-12.587,12.635c3.558,3.605,7.118,7.209,10.678,10.813l9.333,9.449      c2.021,2.051,5.067,5.143,4.946,10.167c-0.122,5.02-3.298,7.944-5.399,9.88c-8.567,7.89-19.453,12.234-30.654,12.234      c-10.327,0-20.278-3.584-28.778-10.364c-5.564-4.438-8.793-7.562-26.713-24.895l-1.806-1.747L174.474,319.398z" style="fill:#1256A3;"/></g></g></g></g><g id="Layer_1"/></svg>