<?xml version="1.0" ?><!DOCTYPE svg  PUBLIC '-//W3C//DTD SVG 1.1//EN'  'http://www.w3.org/Graphics/SVG/1.1/DTD/svg11.dtd'><svg height="512px" style="enable-background:new 0 0 512 512;" version="1.1" viewBox="0 0 512 512" width="512px" xml:space="preserve" xmlns="http://www.w3.org/2000/svg" xmlns:xlink="http://www.w3.org/1999/xlink"><g id="_x33_1_x2C__FLA_x2C__File_Type_x2C__Animate_x2C__Adobe"><g><g><g id="XMLID_27_"><g><g><polygon points="362.628,60.905 419.462,117.917 419.242,118.127 363.11,118.169 362.586,60.947               " style="fill:#130300;"/></g><g><path d="M130.098,100.721H306.36v101.771H130.098h-0.43h-37.34V100.721h37.34H130.098z" style="fill:#FF4A19;"/></g><g><path d="M419.627,117.917l-0.303,0.209l-56.174,0.042l-0.543-57.222l0.031,0.032L362.586,61H130v40h176        v101H130v249h290V118.127L419.627,117.917z" style="fill:#FF4A19;"/></g><g><polygon points="228.365,139.667 228.365,171.111 219.551,171.111 219.551,139.667 209.123,139.667         209.123,132.291 238.961,132.291 238.961,139.667       " style="fill:#260600;"/></g><g><polygon points="212.857,163.746 212.857,171.111 188.611,171.111 188.611,132.291 197.424,132.291         197.424,139.667 197.424,163.746       " style="fill:#260600;"/></g><g><polygon points="167.061,148.365 180.994,148.365 180.994,155.51 167.061,155.51 167.061,171.111         158.248,171.111 158.248,132.291 181.97,132.291 181.97,139.499 167.061,139.499       " style="fill:#260600;"/></g></g><g><g><path d="M419.672,461.64H130.098c-5.794,0-10.492-4.697-10.492-10.492V202.492        c0-5.794,4.697-10.492,10.492-10.492c5.795,0,10.492,4.697,10.492,10.492v238.164h268.59v-318.19l-50.96-51.121H140.59v29.377        c0,5.795-4.697,10.492-10.492,10.492c-5.794,0-10.492-4.697-10.492-10.492V60.853c0-5.794,4.697-10.492,10.492-10.492h232.488        c2.934,0,5.722,1.227,7.699,3.364l56.797,56.975c1.974,1.968,3.082,4.641,3.082,7.428v333.021        C430.164,456.942,425.467,461.64,419.672,461.64z" style="fill:#260600;"/></g><g><path d="M363.11,128.661c-5.756,0-10.438-4.638-10.491-10.395l-0.524-57.223        c-0.054-5.794,4.601-10.534,10.396-10.587c0.032,0,0.065,0,0.098,0c5.75,0,10.437,4.634,10.49,10.396l0.428,46.819        l45.728-0.034c0.003,0,0.007,0,0.009,0c5.791,0,10.487,4.692,10.491,10.484c0.004,5.794-4.689,10.496-10.483,10.5        l-56.131,0.042C363.116,128.661,363.112,128.661,363.11,128.661z" style="fill:#260600;"/></g><g><path d="M306.36,212.983H92.328c-5.795,0-10.492-4.697-10.492-10.492V100.721        c0-5.794,4.697-10.492,10.492-10.492H306.36c5.795,0,10.492,4.697,10.492,10.492v101.771        C316.853,208.286,312.155,212.983,306.36,212.983z M102.82,192h193.049v-80.787H102.82V192z" style="fill:#260600;"/></g></g></g></g><g><path d="M362.271,322.276v55.522h-23.396v-51.881c0-12.065-3.39-20.292-11.846-20.292     c-6.474,0-10.313,5.54-11.855,10.912c-0.618,1.73-0.924,4.595-0.924,7.281v53.979h-23.407v-63.758     c0-11.679-0.304-21.624-0.608-29.871h20.313l1.08,12.832h0.462c3.085-5.928,10.776-14.94,23.25-14.94     C350.73,282.062,362.271,294.715,362.271,322.276z" style="fill:#260600;"/></g><g><path d="M246.463,248.75l32.168,129.049h-25.244l-8.005-33.123h-29.713l-7.386,33.123h-24.32     l31.707-129.049H246.463z M242.004,322.854l-6.473-27.384c-1.847-7.649-3.693-17.228-5.236-24.896h-0.304     c-1.542,7.669-3.074,17.426-4.773,24.896l-6.159,27.384H242.004z" style="fill:#260600;"/></g></g></g><g id="Layer_1"/></svg>