<?xml version="1.0" ?><!DOCTYPE svg  PUBLIC '-//W3C//DTD SVG 1.1//EN'  'http://www.w3.org/Graphics/SVG/1.1/DTD/svg11.dtd'><svg height="512px" style="enable-background:new 0 0 512 512;" version="1.1" viewBox="0 0 512 512" width="512px" xml:space="preserve" xmlns="http://www.w3.org/2000/svg" xmlns:xlink="http://www.w3.org/1999/xlink"><g id="comp_x5F_133-fonticons"><g><g><g><path d="M174.147,213.213h98.388l-16.185,54.521H175V435.76c0,8.52-2.983,9.797,4.684,10.648      l63.465,5.963V483H52.333v-31.481l31.093-2.982c7.666-0.851,9.795-3.406,9.795-11.499V271.141c0-3.407-4.259-3.407-8.518-3.407      H50.778v-54.521h42.443v-30.667c0-72.407,38.759-102.222,112.871-102.222c49.834,0,94.557,11.926,94.557,77.093l-74.112,8.945      c0.426-27.261-6.39-33.648-23.852-33.648c-26.833,0-27.685,14.48-27.685,40.036v34.075      C175,210.231,169.888,213.213,174.147,213.213L174.147,213.213z M461.223,483H311.297v-30.629l29.813-3.835      c7.668-0.851,11.074-2.554,11.074-10.647V280.296c0-5.963-4.258-9.795-9.795-11.498l-35.354-9.372l9.799-43.018h117.129v221.48      c0,8.52-3.834,9.369,4.26,10.647l23,3.835V483z M429.277,119.297l13.205,48.554l-10.65,10.649l-45.576-24.278L340.684,178.5      l-10.648-10.649l13.205-48.554l-31.943-38.76l5.109-10.648h40.463L379.443,29h13.631l22.574,40.889h40.463l5.111,14.056      L429.277,119.297z" style="fill:#FFFFFF;"/><path d="M461.223,493H311.297c-5.522,0-10-4.478-10-10v-30.629c0-5.029,3.735-9.276,8.725-9.918l29.813-3.835      c0.058-0.008,0.115-0.015,0.173-0.021c0.942-0.104,1.647-0.208,2.172-0.302c0.003-0.125,0.005-0.261,0.005-0.406V280.296      c0-0.908-1.546-1.558-2.576-1.89l-35.135-9.314c-5.206-1.38-8.384-6.636-7.188-11.887l9.799-43.018      c1.036-4.55,5.083-7.779,9.75-7.779h117.129c5.522,0,10,4.477,10,10v221.48c0,0.506-0.01,0.993-0.028,1.462l18.933,3.156      c4.821,0.805,8.355,4.977,8.355,9.864V483C471.223,488.522,466.745,493,461.223,493z M321.297,473h129.926v-12.158      l-14.645-2.441c-3.247-0.513-8.282-1.309-11.408-5.75c-2.909-4.134-2.095-8.426-1.656-10.731      c0.231-1.217,0.449-2.366,0.449-4.03v-211.48h-99.15l-5.883,25.825l26.021,6.898c0.127,0.033,0.252,0.069,0.378,0.108      c10.396,3.197,16.854,11.266,16.854,21.056v157.593c0,18.273-14.356,19.963-19.884,20.577l-21.003,2.701V473z M243.149,493      H52.333c-5.523,0-10-4.478-10-10v-31.481c0-5.153,3.916-9.462,9.045-9.954l31.015-2.976c0.299-0.033,0.562-0.068,0.793-0.103      c0.021-0.388,0.036-0.865,0.036-1.449V277.733H50.778c-5.523,0-10-4.478-10-10v-54.521c0-5.523,4.477-10,10-10h32.443v-20.667      c0-75.514,40.191-112.222,122.871-112.222c44.885,0,104.557,9.028,104.557,87.093c0,5.06-3.778,9.322-8.802,9.928l-74.112,8.945      c-2.867,0.349-5.744-0.564-7.891-2.497c-2.146-1.933-3.352-4.699-3.307-7.587c0.225-14.366-1.806-19.492-3.549-21.263      c-1.477-1.5-4.847-2.229-10.304-2.229c-12.39,0-14.183,3.426-15.045,5.072c-2.445,4.671-2.64,13.677-2.64,24.964v30.463h87.535      c3.156,0,6.127,1.49,8.015,4.019c1.887,2.529,2.47,5.801,1.572,8.827l-16.185,54.521c-1.26,4.244-5.16,7.154-9.587,7.154H185      V435.76c0,0.379-0.005,0.746-0.013,1.103l59.098,5.553c5.138,0.482,9.064,4.796,9.064,9.956V483      C253.149,488.522,248.672,493,243.149,493z M62.333,473h170.816v-11.524l-54.4-5.111c-0.056-0.005-0.112-0.011-0.168-0.018      c-3.054-0.339-8.165-0.906-11.558-5.189c-3.193-4.032-2.652-8.516-2.328-11.194c0.15-1.244,0.306-2.531,0.306-4.203V267.733      c0-5.522,4.477-10,10-10h73.888l10.248-34.521h-84.988c-6.429,0-9.312-3.6-10.457-5.746c-3.014-5.646,0.177-10.547,1.31-12.241      V172.75c0-23.454,0-50.036,37.685-50.036c7.675,0,17.402,0.932,24.556,8.198c5.223,5.305,8.074,12.821,8.986,24.208l54.105-6.53      c-1.61-21.604-9.395-36.613-23.659-45.731c-13.38-8.552-32.63-12.535-60.581-12.535c-35.643,0-61.046,7.033-77.66,21.5      c-16.964,14.772-25.21,37.906-25.21,70.722v30.667c0,5.523-4.477,10-10,10H60.778v34.521h23.925c2.611,0,5.57,0,8.433,0.764      c6.221,1.659,10.085,6.504,10.085,12.644v165.896c0,13.211-5.939,20.023-18.692,21.438c-0.049,0.005-0.099,0.01-0.148,0.015      l-22.047,2.115V473z M431.829,188.5c-1.602,0-3.215-0.384-4.698-1.175l-40.875-21.773l-40.87,21.773      c-3.884,2.07-8.662,1.356-11.773-1.755l-10.648-10.649c-2.535-2.536-3.52-6.235-2.578-9.695l11.848-43.562L303.58,86.897      c-2.477-3.005-2.983-7.175-1.299-10.686l5.109-10.648c1.664-3.468,5.169-5.674,9.016-5.674h34.561l19.722-35.722      c1.761-3.188,5.113-5.167,8.755-5.167h13.631c3.642,0,6.994,1.979,8.755,5.167l19.722,35.722h34.561      c4.205,0,7.961,2.631,9.397,6.583l5.111,14.056c1.266,3.48,0.505,7.375-1.978,10.122l-28.281,31.297l11.771,43.28      c0.941,3.46-0.043,7.16-2.579,9.696l-10.65,10.649C436.98,187.494,434.42,188.5,431.829,188.5z M386.256,144.222      c1.616,0,3.232,0.392,4.701,1.174l39.041,20.796l1.313-1.313l-11.684-42.958c-0.894-3.287-0.054-6.802,2.229-9.329l27.91-30.887      l-0.66-1.817h-33.459c-3.642,0-6.994-1.979-8.755-5.167L387.172,39h-1.826l-19.722,35.722c-1.761,3.188-5.113,5.167-8.755,5.167      h-33.148l27.236,33.048c2.063,2.504,2.784,5.853,1.933,8.984l-11.684,42.958l1.313,1.312l39.035-20.796      C383.023,144.613,384.64,144.222,386.256,144.222z"/></g></g></g></g><g id="Layer_1"/></svg>