<?xml version="1.0" ?><!DOCTYPE svg  PUBLIC '-//W3C//DTD SVG 1.1//EN'  'http://www.w3.org/Graphics/SVG/1.1/DTD/svg11.dtd'><svg height="512px" style="enable-background:new 0 0 512 512;" version="1.1" viewBox="0 0 512 512" width="512px" xml:space="preserve" xmlns="http://www.w3.org/2000/svg" xmlns:xlink="http://www.w3.org/1999/xlink"><g id="comp_x5F_137-freebsd"><g><g><g><path d="M125.598,65.696c-29.106-16.518-70.482-34.88-83.632-21.649      c-13.311,13.31,5.693,55.646,22.371,84.753C79.171,102.981,100.258,81.251,125.598,65.696z" style="fill:#D30000;"/><path d="M64.337,138.8c-0.002,0-0.004,0-0.006,0c-3.583-0.002-6.89-1.92-8.671-5.028      c-5.992-10.458-16.982-30.882-23.263-50.176c-7.292-22.398-6.475-37.647,2.498-46.62c4.911-4.941,11.931-7.458,20.844-7.458      c22.943,0,56.709,17.218,74.794,27.481c3.077,1.746,5.002,4.988,5.063,8.525c0.061,3.537-1.752,6.843-4.767,8.694      c-23.852,14.642-43.846,35.238-57.821,59.563C71.224,136.886,67.917,138.8,64.337,138.8z M55.739,49.518      c-3.249,0-5.684,0.575-6.681,1.578c-4.121,4.121-1.261,24.419,15.973,58.046c11.447-16.228,25.422-30.59,41.313-42.456      C84.922,55.8,66.593,49.518,55.739,49.518z" style="fill:#700000;"/></g><g><path d="M433.979,201.111c2.54-2.54,3.987-5.989,4.46-10.105c-1.957,2.551-3.675,4.589-5.059,5.973      c-3.226,3.225-8.279,6.878-15.595,8.736C424.48,206.343,430.104,204.987,433.979,201.111z" style="fill:#D30000;"/><path d="M420.817,215.862C420.816,215.862,420.817,215.862,420.817,215.862      c-1.283,0-2.616-0.064-3.964-0.19c-4.845-0.454-8.659-4.329-9.037-9.18c-0.378-4.852,2.791-9.271,7.508-10.468      c4.332-1.101,8.028-3.158,10.986-6.116c0.722-0.721,2.035-2.173,4.194-4.988c2.736-3.567,7.515-4.871,11.684-3.184      c4.168,1.686,6.698,5.945,6.186,10.411c-0.75,6.531-3.214,11.926-7.323,16.035C436.026,213.207,429.029,215.862,420.817,215.862      z" style="fill:#700000;"/></g><g><path d="M407.619,206.946c-19.211-1.118-42.82-12.139-63.068-32.47      c-20.325-20.241-32.479-43.832-32.456-63.049c0.017-13.077,5.486-21.239,10.071-25.783c4.086-4.086,13.873-11.03,25.801-18.53      c-26.045-11.442-54.785-17.832-85.054-17.832c-116.892,0-211.601,94.71-211.601,211.601      c0,116.793,94.709,211.601,211.601,211.601c116.891,0,211.602-94.709,211.602-211.601c0-32.979-7.59-64.23-21.063-92.106      c-5.598,9.041-10.857,16.816-15.013,22.231C431.663,199.333,419.997,207.666,407.619,206.946z" style="fill:#D30000;"/><path d="M262.913,482.482c-122.191,0-221.601-99.409-221.601-221.601      c0-59.205,23.047-114.857,64.895-156.706c41.849-41.848,97.501-64.895,156.706-64.895c30.898,0,60.868,6.284,89.076,18.676      c3.389,1.489,5.678,4.728,5.95,8.419s-1.517,7.231-4.649,9.202c-13.738,8.639-21.433,14.516-24.053,17.136      c-3.27,3.24-7.131,9.087-7.143,18.725c-0.02,16.363,11.289,37.803,29.513,55.951c17.406,17.479,38.552,28.523,56.593,29.573      c8.803,0.502,17.595-6.311,22.397-12.163c3.957-5.171,9.049-12.724,14.353-21.289c1.92-3.103,5.369-4.918,9.022-4.722      c3.645,0.19,6.896,2.35,8.483,5.635c14.637,30.286,22.059,62.739,22.059,96.458c0,59.205-23.047,114.857-64.896,156.706      C377.771,459.436,322.118,482.482,262.913,482.482z M262.913,59.281c-111.163,0-201.601,90.438-201.601,201.601      s90.438,201.601,201.601,201.601s201.602-90.438,201.602-201.601c0-24.557-4.325-48.372-12.879-71.028      c-1.865,2.685-3.63,5.113-5.263,7.241c-0.059,0.076-0.117,0.15-0.178,0.224c-3.755,4.615-17.527,19.671-37.072,19.671      c-0.694,0-1.387-0.02-2.085-0.06c-22.813-1.328-48.822-14.561-69.573-35.397c-22.163-22.071-35.396-48.295-35.37-70.118      c0.021-16.517,7.099-26.993,13.032-32.874c2.653-2.653,6.779-5.867,11.227-9.048C305.95,62.709,284.687,59.281,262.913,59.281z" style="fill:#700000;"/></g><g><path d="M344.933,101.299c9.402-9.402,97.837-65.224,117.912-45.064      c20.074,20.076-35.661,108.51-45.063,117.912c-9.405,9.402-33.375,0.763-53.452-19.398      C344.17,134.673,335.444,110.701,344.933,101.299z" style="fill:#D30000;"/><path d="M407.143,187.946c-14.722,0-33.842-10.017-49.899-26.141      c-16.135-16.068-26.165-35.197-26.147-49.894c0.01-7.192,2.36-13.318,6.798-17.716c8.979-8.979,76.171-52.317,111.685-52.317      c8.682,0,15.528,2.456,20.353,7.3c12.096,12.097,8.967,36.439-9.579,74.404c-12.904,26.417-29.645,51.78-35.499,57.635      C420.449,185.62,414.325,187.946,407.143,187.946z M449.578,61.878c-27.979,0-90.587,39.505-97.574,46.492      c-0.579,0.573-0.906,1.894-0.908,3.566c-0.009,7.716,6.261,21.756,20.29,35.727c13.962,14.021,28.013,20.283,35.757,20.283      c1.688,0,3.022-0.326,3.568-0.872c3.083-3.082,18.762-25.844,31.671-52.271c17.47-35.762,15.59-49.3,13.392-51.499      C454.878,62.406,452.567,61.878,449.578,61.878z" style="fill:#700000;"/></g></g></g></g><g id="Layer_1"/></svg>