<?xml version="1.0" ?><!DOCTYPE svg  PUBLIC '-//W3C//DTD SVG 1.1//EN'  'http://www.w3.org/Graphics/SVG/1.1/DTD/svg11.dtd'><svg height="512px" style="enable-background:new 0 0 512 512;" version="1.1" viewBox="0 0 512 512" width="512px" xml:space="preserve" xmlns="http://www.w3.org/2000/svg" xmlns:xlink="http://www.w3.org/1999/xlink"><g id="comp_x5F_140-gg"><g><g><path d="M483.678,243.572l-147-147c-4.722-4.722-11-7.322-17.678-7.322s-12.956,2.601-17.678,7.322     l-73.501,73.501c-9.746,9.747-9.746,25.607,0.001,35.354l63.001,63.001c4.723,4.721,11,7.32,17.677,7.32     c6.678,0,12.955-2.6,17.679-7.321c9.746-9.748,9.746-25.607-0.001-35.355l-45.322-45.322L319,149.605L430.645,261.25L319,372.895     l-13.823-13.824c-4.722-4.72-10.999-7.32-17.677-7.32c-6.677,0-12.954,2.601-17.679,7.322     c-9.746,9.748-9.746,25.607,0.001,35.355l31.502,31.502c4.722,4.721,10.999,7.32,17.676,7.32s12.954-2.6,17.678-7.322     l147.001-147C493.425,269.18,493.425,253.32,483.678,243.572z" style="fill:#4788C7;"/><path d="M284.178,306.572l-63-63c-4.722-4.722-11-7.322-17.678-7.322s-12.956,2.601-17.679,7.323     c-9.746,9.747-9.746,25.606,0.001,35.354l45.322,45.322L193,362.395L81.355,250.75L193,139.105l13.822,13.822     c4.722,4.723,11,7.323,17.678,7.323s12.956-2.601,17.679-7.323c9.746-9.747,9.746-25.607-0.001-35.355l-31.5-31.5     c-4.722-4.722-11-7.322-17.678-7.322s-12.956,2.601-17.678,7.322L28.321,233.073c-9.746,9.747-9.746,25.606,0.001,35.354     L175.324,415.43c4.722,4.721,11,7.32,17.676,7.32s12.954-2.6,17.678-7.322l73.501-73.5     C293.925,332.18,293.925,316.32,284.178,306.572z" style="fill:#4788C7;"/></g><g><g><path d="M319,418.25c-2.559,0-5.118-0.977-7.071-2.929l-31.5-31.5c-3.904-3.905-3.904-10.237,0-14.143      c3.905-3.904,10.237-3.904,14.143,0L319,394.107L451.858,261.25L319,128.393l-59.357,59.357l55.929,55.929      c3.905,3.905,3.905,10.237,0,14.143c-3.905,3.904-10.237,3.904-14.143,0l-63-63c-3.905-3.905-3.905-10.237,0-14.143l73.5-73.5      c3.905-3.905,10.237-3.905,14.143,0l147,147c3.905,3.905,3.905,10.237,0,14.143l-147,147      C324.119,417.273,321.56,418.25,319,418.25z" style="fill:#DFF0FE;"/></g><g><path d="M193,407.75c-2.559,0-5.119-0.977-7.071-2.929l-147-147c-3.905-3.905-3.905-10.237,0-14.143      l147-147c3.905-3.905,10.237-3.905,14.143,0l31.5,31.5c3.905,3.905,3.905,10.237,0,14.143c-3.905,3.905-10.237,3.905-14.143,0      L193,117.893L60.142,250.75L193,383.607l59.358-59.357l-55.929-55.929c-3.905-3.905-3.905-10.237,0-14.143      c3.905-3.905,10.237-3.905,14.143,0l63,63c3.905,3.905,3.905,10.237,0,14.143l-73.5,73.5      C198.119,406.773,195.559,407.75,193,407.75z" style="fill:#DFF0FE;"/></g></g></g></g><g id="Layer_1"/></svg>