<?xml version="1.0" ?><!DOCTYPE svg  PUBLIC '-//W3C//DTD SVG 1.1//EN'  'http://www.w3.org/Graphics/SVG/1.1/DTD/svg11.dtd'><svg height="512px" style="enable-background:new 0 0 512 512;" version="1.1" viewBox="0 0 512 512" width="512px" xml:space="preserve" xmlns="http://www.w3.org/2000/svg" xmlns:xlink="http://www.w3.org/1999/xlink"><g id="comp_x5F_146-glide"><g><g><g><path d="M406.128,215.751c-3.145-1.258-10.421-3.414-13.836-3.414c-33.332,0-55.882,15.094-84.002,30.995      l-0.81-0.809c6.29-42.495,21.113-82.565,21.113-126.14c0-64.238-34.32-90.383-97.392-90.383      c-103.409,0-155.788,102.152-155.788,178.25c0,78.973,46.09,122.727,124.522,122.727c10.782,0,9.884-0.9,9.884,3.414      c-15.184,115.808-81.577,119.582-81.577,84.99c0-35.217,31.307-33.227,31.757-35.382c-5.5-28-33.105-30-43.797-30      c-30.457,0.09-47.078,31.782-47.078,57.026c0,46.63,29.468,78.973,76.816,78.973c69.538,0,120.391-69.897,136.023-130.633      c13.566-54.354,10.063-56.871,17.699-60.733c28.93-14.555,51.659-24.259,84.273-24.259c15.992,0,27.401,3.325,52.917,7.547      c2.605,0,6.021-2.605,6.021-5.209C442.875,265.523,412.866,218.355,406.128,215.751L406.128,215.751z M248.633,139.923      c-8.355,40.159-16.711,80.5-24.976,120.66c-2.067,9.164-11.95,7.007-19.767,7.007c-34.409,0-44.023-37.554-44.023-65.675      c0-42.228,16.172-98.199,55.524-119.853c6.288-3.683,13.295-6.018,20.303-6.018c16.712,0,17.969,11.948,17.969,25.784      C253.574,114.677,251.237,127.434,248.633,139.923z" style="fill:#388EE5;"/><path d="M145.941,495.999c-51.928,0-86.816-35.755-86.816-88.973c0-32.153,21.811-66.923,57.048-67.026      c29.347,0,48.886,13.877,53.639,38.072c0.258,1.313,0.25,2.663-0.024,3.973c-1.426,6.827-7.695,8.135-11.063,8.838      c-10.364,2.161-20.482,5.834-20.482,24.499c0,2.1,0.398,5.006,2.293,6.927c1.759,1.782,4.288,2.156,6.1,2.156      c15.15-0.001,41.977-23.926,52.125-87.49c-40.82-0.226-74.511-12.174-97.482-34.589c-23.798-23.222-35.865-56.239-35.865-98.135      c0-42.754,15.359-88.968,41.086-123.623c21.888-29.483,61.29-64.627,124.702-64.627c35.182,0,61.015,7.724,78.974,23.612      c18.856,16.683,28.418,42.512,28.418,76.771c0,28.67-6.162,55.862-12.121,82.16c-1.946,8.586-3.93,17.341-5.694,26.148      c21.475-12.077,42.912-22.355,71.514-22.355c5.945,0,15.197,3.197,17.488,4.104c2.428,0.939,8.093,3.261,25.667,30.674      c17.428,27.186,17.428,33.517,17.428,35.597c0,8.705-8.458,15.209-16.021,15.209c-0.547,0-1.093-0.045-1.633-0.134      c-7.52-1.244-13.8-2.406-19.342-3.432c-12.96-2.397-21.521-3.981-31.942-3.981c-31.266,0-52.787,9.612-79.779,23.192      c-0.055,0.027-0.106,0.054-0.152,0.078c-0.667,1.799-1.648,6.558-2.766,11.982c-1.792,8.694-4.499,21.834-9.573,42.161      c-8.738,33.95-27.022,67.635-50.184,92.488C213.608,480.188,180.57,495.999,145.941,495.999z M116.203,360      c-24.183,0.071-37.078,27.356-37.078,47.026c0,41.899,26.227,68.973,66.816,68.973c61.476,0,110.976-63.438,126.339-123.125      c4.955-19.855,7.613-32.751,9.371-41.283c3.19-15.479,4.384-21.271,13.5-25.882c28.54-14.358,53.187-25.335,88.786-25.335      c12.255,0,22.039,1.811,35.581,4.315c3.132,0.579,6.503,1.203,10.194,1.858c-6.979-13.182-22.735-37.079-28.09-41.813      c-3.027-1.101-7.846-2.352-9.361-2.399c-27.271,0-46.404,10.985-70.63,24.891c-2.761,1.585-5.562,3.193-8.42,4.809      c-3.908,2.21-8.812,1.544-11.989-1.629l-0.81-0.809c-2.24-2.239-3.289-5.406-2.825-8.54c2.369-16.002,5.933-31.728,9.379-46.936      c5.979-26.385,11.627-51.307,11.627-77.739c0-28.678-7.089-48.891-21.67-61.791c-14.141-12.51-35.639-18.592-65.722-18.592      c-99.454,0-145.788,100.397-145.788,168.25c0,72.692,40.671,112.727,114.522,112.727c1.816,0,3.287-0.027,4.479-0.049      c0.915-0.017,1.683-0.029,2.329-0.029c2.104,0,6.483,0,9.89,3.469c3.302,3.362,3.23,7.361,3.195,9.283      c-0.004,0.223-0.009,0.469-0.009,0.74c0,0.435-0.028,0.869-0.085,1.3c-4.689,35.769-14.842,65.256-29.361,85.274      c-12.675,17.476-28.616,27.498-43.737,27.499c-7.953,0-15.175-2.879-20.335-8.107c-5.271-5.342-8.058-12.595-8.058-20.976      c0-15.366,5.035-27.138,14.966-34.986c4.631-3.661,9.545-5.809,13.773-7.159C141.796,364.444,131.487,360,116.203,360z       M211.708,277.811c-1.523,0-2.987-0.062-4.403-0.121c-1.227-0.051-2.385-0.1-3.414-0.1c-19.237,0-34.379-9.572-43.789-27.681      c-8.905-17.138-10.235-37.426-10.235-47.994c0-47.349,18.735-105.434,60.588-128.55c8.219-4.789,16.944-7.32,25.239-7.32      c27.969,0,27.969,25.076,27.969,35.784c-0.099,14.324-2.757,28.225-5.241,40.135c-8.935,42.947-17.104,82.409-24.97,120.634      c-0.013,0.062-0.026,0.123-0.04,0.185C231.866,269.639,226.845,277.811,211.708,277.811z M235.694,86.045      c-4.786,0-10.059,1.607-15.249,4.646c-0.077,0.045-0.155,0.089-0.233,0.132c-34.59,19.033-50.345,70.929-50.345,111.091      c0,9.297,1.64,55.675,34.023,55.675c1.449,0,2.874,0.06,4.252,0.118c1.266,0.053,2.461,0.103,3.564,0.103      c1.099,0,1.842-0.053,2.334-0.115c7.814-37.969,15.929-77.168,24.8-119.81c2.288-10.971,4.735-23.71,4.821-36.126      C243.663,86.045,241.493,86.045,235.694,86.045z" style="fill:#2A6BAC;"/></g></g></g></g><g id="Layer_1"/></svg>