<?xml version="1.0" ?><!DOCTYPE svg  PUBLIC '-//W3C//DTD SVG 1.1//EN'  'http://www.w3.org/Graphics/SVG/1.1/DTD/svg11.dtd'><svg height="512px" style="enable-background:new 0 0 512 512;" version="1.1" viewBox="0 0 512 512" width="512px" xml:space="preserve" xmlns="http://www.w3.org/2000/svg" xmlns:xlink="http://www.w3.org/1999/xlink"><g id="comp_x5F_148-gofore"><g><g><g><path d="M383.319,321.51h-13.553v35.629c-25.154,23.718-57.807,36.76-92.308,36.76      c-75.159,0-135.945-61.814-135.945-138c0-76.086,60.786-138,135.945-138c36.247,0,70.438,14.375,96.107,40.456l63.969-64.996      c-42.92-43.433-99.7-67.358-160.281-67.358C151.27,26.001,50.645,129.295,50.645,256c0,125.782,99.597,229.999,226.609,229.999      c64.895,0,127.835-26.9,175.581-84.709C450.78,372.95,439.075,321.51,383.319,321.51z" style="fill:#343F68;"/><path d="M277.254,495.999c-63.804,0-123.5-25.16-168.091-70.847C64.978,379.883,40.645,319.81,40.645,256      c0-64.046,24.478-124.25,68.925-169.52c44.623-45.449,104.175-70.479,167.685-70.479c63.13,0,122.578,24.977,167.395,70.329      c3.844,3.89,3.85,10.146,0.014,14.043l-63.969,64.996c-1.88,1.91-4.447,2.985-7.127,2.985s-5.247-1.076-7.127-2.985      c-23.781-24.164-55.382-37.471-88.98-37.471c-69.446,0-125.945,57.42-125.945,128c0,70.579,56.499,128,125.945,128      c30.412,0,59.474-11.039,82.308-31.173V321.51c0-5.522,4.478-10,10-10h13.553c27.708,0,49.631,11.757,63.398,34      c11.327,18.299,15.002,40.041,16.091,55.057c0.187,2.567-0.624,5.107-2.264,7.092c-24.143,29.231-52.685,51.68-84.832,66.722      C345.056,488.726,311.93,495.999,277.254,495.999z M277.254,36.001C157.815,36.001,60.645,134.692,60.645,256      s97.17,219.999,216.609,219.999c64.712,0,121.771-26.941,165.263-77.969c-1.249-12.425-4.532-28.631-12.805-41.995      c-10.215-16.503-25.39-24.525-46.393-24.525h-3.553v25.629c0,2.754-1.136,5.387-3.14,7.275      c-27.004,25.462-62.223,39.484-99.168,39.484c-80.475,0-145.945-66.393-145.945-148s65.471-148,145.945-148      c35.621,0,69.292,12.871,95.867,36.444l50.013-50.816C383.232,56.355,331.732,36.001,277.254,36.001z" style="fill:#FF8551;"/></g><g><path d="M370.898,200H270v91.384h113.319c34.399,0,62.121,15.504,78.036,42.919v-31.419      C461.355,235.938,419.875,200,370.898,200z" style="fill:#343F68;"/><path d="M461.354,344.305c-3.499,0-6.826-1.844-8.647-4.98c-14.203-24.466-38.845-37.939-69.388-37.939      H270c-5.522,0-10-4.478-10-10V200c0-5.523,4.478-10,10-10h100.898c27.636,0,52.795,10.458,70.843,29.448      c19.374,20.384,29.614,49.236,29.614,83.436v31.419c0,4.521-3.034,8.48-7.4,9.656      C463.092,344.192,462.218,344.305,461.354,344.305z M280,281.385h103.319c26.986,0,50.344,8.594,68.036,24.655v-3.155      c0-64.164-40.409-92.884-80.457-92.884H280V281.385z" style="fill:#FF8551;"/></g></g></g></g><g id="Layer_1"/></svg>