<?xml version="1.0" ?><!DOCTYPE svg  PUBLIC '-//W3C//DTD SVG 1.1//EN'  'http://www.w3.org/Graphics/SVG/1.1/DTD/svg11.dtd'><svg height="512px" style="enable-background:new 0 0 512 512;" version="1.1" viewBox="0 0 512 512" width="512px" xml:space="preserve" xmlns="http://www.w3.org/2000/svg" xmlns:xlink="http://www.w3.org/1999/xlink"><g id="comp_x5F_174-intercom"><g><g><g><path d="M413.401,486H98.599C64.026,486,36,457.974,36,423.401V88.599C36,54.026,64.026,26,98.599,26      h314.803C447.974,26,476,54.026,476,88.599v334.803C476,457.974,447.974,486,413.401,486z" style="fill:#208DEC;"/><path d="M413.401,496H98.599C58.568,496,26,463.433,26,423.401V88.599C26,48.568,58.568,16,98.599,16      h314.803C453.433,16,486,48.568,486,88.599v334.803C486,463.433,453.433,496,413.401,496z M98.599,36      C69.596,36,46,59.596,46,88.599v334.803C46,452.404,69.596,476,98.599,476h314.803C442.404,476,466,452.404,466,423.401V88.599      C466,59.596,442.404,36,413.401,36H98.599z" style="fill:#186AB1;"/></g><g><line style="fill:#208DEC;" x1="396" x2="396" y1="147.176" y2="284.823"/><path d="M396,294.823c-5.522,0-10-4.478-10-10V147.176c0-5.523,4.478-10,10-10s10,4.477,10,10v137.647      C406,290.346,401.522,294.823,396,294.823z" style="fill:#FFFFFF;"/></g><g><line style="fill:#208DEC;" x1="326" x2="326" y1="108.941" y2="323.059"/><path d="M326,333.059c-5.522,0-10-4.478-10-10V108.941c0-5.523,4.478-10,10-10s10,4.477,10,10v214.117      C336,328.581,331.522,333.059,326,333.059z" style="fill:#FFFFFF;"/></g><g><line style="fill:#208DEC;" x1="256" x2="256" y1="86" y2="346"/><path d="M256,356c-5.523,0-10-4.478-10-10V86c0-5.523,4.477-10,10-10c5.522,0,10,4.477,10,10v260      C266,351.522,261.522,356,256,356z" style="fill:#FFFFFF;"/></g><g><line style="fill:#208DEC;" x1="186" x2="186" y1="108.941" y2="323.059"/><path d="M186,333.059c-5.523,0-10-4.478-10-10V108.941c0-5.523,4.477-10,10-10s10,4.477,10,10v214.117      C196,328.581,191.523,333.059,186,333.059z" style="fill:#FFFFFF;"/></g><g><line style="fill:#208DEC;" x1="116" x2="116" y1="147.176" y2="284.823"/><path d="M116,294.823c-5.523,0-10-4.478-10-10V147.176c0-5.523,4.477-10,10-10s10,4.477,10,10v137.647      C126,290.346,121.523,294.823,116,294.823z" style="fill:#FFFFFF;"/></g><g><path d="M106,387.816c0,0,142.926,85.913,300,0" style="fill:#208DEC;"/><path d="M258.409,435.999c-20.952,0-42.102-2.053-63.216-6.148      c-56.451-10.949-92.824-32.549-94.345-33.464c-4.733-2.845-6.264-8.988-3.419-13.723c2.843-4.729,8.982-6.263,13.713-3.424l0,0      c0.348,0.208,35.418,20.935,88.614,31.122c70.861,13.571,138.638,3.034,201.445-31.319c4.846-2.648,10.922-0.871,13.572,3.975      s0.871,10.922-3.975,13.572c-36.971,20.221-76.271,32.807-116.812,37.407C282.223,435.332,270.348,435.999,258.409,435.999z" style="fill:#FFFFFF;"/></g></g></g></g><g id="Layer_1"/></svg>