<?xml version="1.0" ?><!DOCTYPE svg  PUBLIC '-//W3C//DTD SVG 1.1//EN'  'http://www.w3.org/Graphics/SVG/1.1/DTD/svg11.dtd'><svg height="512px" style="enable-background:new 0 0 512 512;" version="1.1" viewBox="0 0 512 512" width="512px" xml:space="preserve" xmlns="http://www.w3.org/2000/svg" xmlns:xlink="http://www.w3.org/1999/xlink"><g id="comp_x5F_181-java"><g><g><g><g><path d="M215.759,329.538c-0.008,0-0.011,0-0.019,0c-24.872-0.001-48.067-1.456-65.313-4.097       c-24.019-3.677-34.699-9.03-36.864-18.478c-1.234-5.382,0.136-13.173,13.669-19.721c34.053-16.374,62.856-18.141,73.66-18.141       c2.239,0,3.534,0.078,3.771,0.094c4.936,0.328,8.89,4.215,9.302,9.145c0.413,4.929-2.841,9.42-7.653,10.563       c-9.55,2.27-19.263,5.138-26.944,7.839c8.781,0.92,20.698,1.401,34.807,1.401c21.284,0,46.125-1.087,69.947-3.059       c33.719-2.803,68.061-8.978,68.403-9.039c5.006-0.905,9.899,2.094,11.359,6.97c1.461,4.876-0.974,10.071-5.656,12.068       c-0.109,0.047-11.443,4.915-19.303,10.288c-0.943,0.645-1.99,1.123-3.096,1.414       C305.079,324.89,261.312,329.538,215.759,329.538z M140.465,303.154c2.005,0.499,4.323,0.997,6.939,1.482       c-0.565-1.184-0.95-2.494-1.116-3.949C144.373,301.457,142.429,302.279,140.465,303.154z"/></g><g><path d="M256.562,288.277c-2.41,0-4.811-0.868-6.704-2.578c-20.673-18.67-41.435-38.614-53.265-57.964       c-13.716-22.436-14.539-43.023-2.443-61.192c11.373-17.01,29.006-30.806,46.06-44.148       c33.979-26.583,63.322-49.542,52.028-93.929c-1.11-4.363,0.833-8.931,4.746-11.157c3.914-2.228,8.832-1.563,12.017,1.62       c0.683,0.683,16.712,17.052,15.069,44.987c-1.754,29.821-22.384,60.512-61.316,91.223       c-50.356,39.751-34.225,62.696-13.802,91.746c6.141,8.735,12.492,17.767,16.746,27.327c1.92,4.316,0.559,9.387-3.266,12.16       C260.672,287.647,258.613,288.277,256.562,288.277z M241.355,146.975c-12.214,9.833-23.185,19.625-30.568,30.668       c-6.439,9.673-6.502,20.07-1.299,31.728c-0.088-0.942-0.152-1.894-0.192-2.853       C208.461,186.458,218.969,166.904,241.355,146.975z"/></g><g><path d="M271.479,304.45c-3.27,0-6.452-1.604-8.36-4.504c-2.805-4.262-1.95-9.948,1.976-13.199       c0.3-0.255,9.901-8.523,10.711-18.827c0.411-5.233-1.563-10.278-6.039-15.424c-20.197-23.262-27.036-46.012-20.332-67.626       c6.711-21.637,26.714-40.696,59.455-56.648c22.683-11.052,43.957-16.845,48.009-17.898c4.682-1.275,9.661,1.014,11.71,5.488       c2.145,4.684,0.381,10.231-4.076,12.815c-45.654,26.468-68.32,45.352-71.331,59.429c-1.831,8.561,3.754,16.859,13.783,30.79       c1.015,1.409,2.048,2.845,3.092,4.312c7.77,10.925,10.365,22.928,7.509,34.712c-6.579,27.135-40.098,44.729-41.521,45.464       C274.601,304.089,273.03,304.45,271.479,304.45z M275.644,177.401c-3.207,4.244-5.655,8.716-7.106,13.394       c-4.516,14.559,0.978,30.904,16.326,48.583c5.675,6.525,9.17,13.476,10.447,20.754c1.284-2.273,2.271-4.62,2.846-7.01       c1.479-6.142,0.047-12.151-4.377-18.372c-1.021-1.434-2.033-2.84-3.026-4.22c-10.74-14.918-20.884-29.008-17.109-46.658       C274.104,181.722,274.767,179.567,275.644,177.401z"/></g><g><path d="M352.241,375.335c-2.187,0-4.339-0.718-6.107-2.081c-2.455-1.894-3.893-4.818-3.893-7.919       c0-2.688,1.026-5.12,3.052-7.227c0.017-0.017,0.034-0.034,0.053-0.054c0.95-1.669,2.365-3.038,4.084-3.931       c48.545-25.207,47.956-45.031,46.619-50.508c-2.027-8.304-10.878-13.266-18.264-13.266c-1.103,0-2.175,0.107-3.188,0.319       c-5.587,1.176-8.184,2.179-8.209,2.189c-4.03,1.661-8.631,0.502-11.432-2.838c-2.801-3.341-3.072-8.129-0.732-11.809       c0.729-1.147,4.762-7.01,12.486-9.728c6.923-2.439,13.941-3.678,20.857-3.678c24.683,0,44.635,15.773,47.441,37.505       c1.849,14.315-4.191,29.012-17.009,41.381c-13.894,13.409-35.164,23.944-63.22,31.313       C353.943,375.227,353.09,375.335,352.241,375.335z"/></g><g><path d="M234.762,473.995c-0.003,0-0.001,0-0.004,0c-42.175,0-84.862-3.463-126.875-10.294       c-9.465-1.529-16.483-3.656-21.446-6.501c-9.367-5.368-10.248-12.615-9.939-16.458c0.784-9.767,10.61-18.561,29.206-26.139       c14.39-5.864,30.686-9.507,42.529-9.507c7.312,0,12.916,1.324,17.099,4.043c2.905,1.75,4.848,4.935,4.848,8.572       c0,5.494-4.43,9.953-9.913,10c-0.239,0-0.479-0.004-0.72-0.019c0.003-0.004-0.176-0.004-0.452-0.004       c-1.589,0-6.01,0.156-12.74,1.599c-3.724,0.793-8.115,2.139-12.03,3.593c21.114,5.619,58.01,8.869,102.535,8.868       c57.933-0.001,116.492-5.472,142.406-13.304c4.735-1.449,7.468-2.79,8.99-3.73c-2.252-3.208-2.465-7.544-0.31-11.018       c2.645-4.261,8.039-5.901,12.607-3.843c15.641,7.054,15.283,17.333,14.403,21.425c-1.566,7.281-8.08,13.521-19.915,19.075       c-9.439,4.43-22.12,8.444-37.688,11.932C323.644,469.837,280.104,473.995,234.762,473.995z M98.706,440.937       c2.135,0.829,5.596,1.855,11.082,2.806c-2.526-2.402-3.64-4.988-4.084-7.164C102.5,438.246,100.232,439.744,98.706,440.937z"/></g><g><path d="M246.872,429.767c-38.065,0-80.356-9.648-83.261-30.831c-0.521-3.798-0.108-11.138,8.511-17.626       c4.787-3.603,11.572-6.601,20.743-9.164c4.886-1.368,10.109,1.091,12.035,5.784c0.953,2.323,0.993,4.805,0.251,7.018       c1.154,0.188,2.487,0.375,4.022,0.549c15.454,1.751,26.413,2.498,36.642,2.498c15.681,0,31.269-1.803,55.595-6.429       c2.479-0.467,5.045,0.013,7.182,1.353c0.092,0.058,10.069,6.253,23.655,11.553c3.783,1.477,6.298,5.094,6.364,9.153       c0.065,4.061-2.33,7.758-6.063,9.355C300.145,426.854,268.071,429.767,246.872,429.767z M205.359,405.188       c10.437,2.582,24.377,4.578,41.512,4.578c14.371,0,34.192-1.456,55.451-7.355c-0.312-0.174-0.607-0.342-0.889-0.501       c-23.579,4.364-39.418,6.084-55.62,6.084c-11.021,0-22.653-0.785-38.895-2.625C206.44,405.314,205.918,405.256,205.359,405.188       z"/></g><g><path d="M259.381,496c-16.326,0-32.302-0.493-47.482-1.465c-48.441-3.117-64.779-10.515-69.684-13.703       c-2.538-1.577-4.303-4.252-4.659-7.356c-0.509-4.437,1.985-8.673,6.112-10.38c0.661-0.273,1.344-0.474,2.037-0.599       c1.033-0.188,2.106-0.217,3.192-0.062c0.01,0.003,0.01,0.001,0.014,0.002c0.003,0,0.007,0,0.011,0.002       c0.071,0.01,0.142,0.021,0.212,0.032c25.166,4.158,57.71,6.448,91.639,6.448c41.333,0,80.917-3.335,114.47-9.646       c49.662-9.39,60.41-20.334,61.501-21.592c2.101-3.912,6.589-6.019,11.017-5.016c4.834,1.095,8.137,5.565,7.763,10.508       c-1.515,20.01-22.134,34.049-63.035,42.917C343.022,492.481,302.854,496,259.381,496z"/></g><g><path d="M237.697,378.592c-0.003,0-0.003,0-0.006,0c-19.52-0.001-83.53-1.998-87.68-27.684       c-2.851-17.648,22.956-26.211,31.436-29.024c4.665-1.547,9.762,0.523,12.025,4.886c2.043,3.938,1.229,8.691-1.856,11.729       c1.196,0.225,2.66,0.443,4.442,0.629c17.005,1.768,30.344,2.556,43.246,2.556c23.047,0,46.711-2.578,76.728-8.358       c3.275-0.633,6.657,0.415,9.005,2.792c0.021,0.02,6.048,5.915,15.136,9.085c4.104,1.432,6.813,5.352,6.703,9.697       c-0.111,4.345-3.017,8.121-7.188,9.343C299.164,376.102,261.857,378.592,237.697,378.592z"/></g></g><g><path d="M333.283,307.117c8.806-6.02,21.023-11.23,21.023-11.23s-34.768,6.29-69.358,9.165      c-42.313,3.503-87.774,4.221-110.594,1.167c-53.995-7.187,29.647-27.044,29.647-27.044s-32.433-2.154-72.413,17.07      C84.422,319.066,248.384,329.487,333.283,307.117z" style="fill:#5382A1;"/><path d="M256.56,278.277c-17.07-38.362-74.658-72.054,0-130.99C349.727,73.797,301.929,26,301.929,26      c19.316,75.917-67.919,98.917-99.455,146.084C181.002,204.337,212.986,238.927,256.56,278.277z" style="fill:#F8981D;"/><path d="M359.517,119.975c0.091,0-157.401,39.351-82.204,125.958c22.19,25.516-5.84,48.516-5.84,48.516      s56.332-29.108,30.456-65.495C277.762,194.993,259.254,178.103,359.517,119.975z" style="fill:#F8981D;"/><path d="M354.038,362.999c-0.449,1.078-1.797,2.247-1.797,2.336      c115.267-30.277,72.861-106.824,17.788-87.416c-4.853,1.707-7.366,5.66-7.366,5.66s3.053-1.259,9.883-2.696      C400.396,275.044,440.377,318.168,354.038,362.999L354.038,362.999z" style="fill:#5382A1;"/><path d="M396.443,418.971c0,0,13.027,10.692-14.285,19.047c-52.019,15.722-216.339,20.483-261.979,0.63      c-16.441-7.099,14.374-17.072,24.078-19.137c10.061-2.157,15.901-1.799,15.901-1.799      c-18.238-12.847-117.964,25.247-50.672,36.119C292.944,483.657,444.061,440.443,396.443,418.971L396.443,418.971z" style="fill:#5382A1;"/><path d="M195.557,381.776c-70.706,19.766,43.035,60.555,133.055,22.011      c-14.733-5.748-25.334-12.397-25.334-12.397c-40.16,7.637-58.756,8.175-95.232,4.043      C177.948,392.019,195.557,381.776,195.557,381.776L195.557,381.776z" style="fill:#5382A1;"/><path d="M357.091,469.103c-70.704,13.296-157.94,11.771-209.601,3.233c0-0.088,10.602,8.716,65.047,12.22      c82.834,5.302,210.05-2.966,213.015-42.136C425.552,442.42,419.803,457.245,357.091,469.103L357.091,469.103z" style="fill:#5382A1;"/><path d="M317.922,343.144c-53.188,10.243-84.003,9.973-122.903,5.93      c-30.098-3.145-10.423-17.698-10.423-17.698c-77.982,25.874,43.305,55.164,152.282,23.269      C325.288,350.601,317.922,343.144,317.922,343.144z" style="fill:#5382A1;"/></g></g></g></g><g id="Layer_1"/></svg>