<?xml version="1.0" ?><!DOCTYPE svg  PUBLIC '-//W3C//DTD SVG 1.1//EN'  'http://www.w3.org/Graphics/SVG/1.1/DTD/svg11.dtd'><svg height="512px" style="enable-background:new 0 0 512 512;" version="1.1" viewBox="0 0 512 512" width="512px" xml:space="preserve" xmlns="http://www.w3.org/2000/svg" xmlns:xlink="http://www.w3.org/1999/xlink"><g id="comp_x5F_183-jedi-order"><g><g><g><g><path d="M258.07,495.999h-4.143c-0.039,0-0.078,0-0.117-0.001       c-48.998-0.572-91.84-11.228-127.338-31.669C97.887,447.867,74.07,425.12,55.682,396.72       c-31.15-48.113-35.819-95.425-36.002-97.415c-0.413-4.474,2.202-8.604,6.269-10.214c-5.516-25.592-5.943-51.82-1.268-77.977       c8.067-45.138,28.467-74.298,29.331-75.518c3.049-4.301,8.912-5.496,13.401-2.731c1.595,0.982,2.821,2.344,3.629,3.901       C97.45,69.164,157.159,32.464,159.954,30.777c4.563-2.754,10.481-1.447,13.46,2.972c2.978,4.419,1.968,10.397-2.296,13.592       c-22,16.482-34.316,36.829-36.607,60.474c-5.544,57.218,47.692,116.887,48.23,117.482c2.841,3.146,3.396,7.745,1.377,11.472       c-23.404,43.208-30.413,83.467-20.881,119.803c0.374-4.606,3.884-8.404,8.528-9.079l51.083-7.427l-16.206-44.525       c-1.723-4.734,0.346-10.013,4.828-12.315c4.48-2.301,9.976-0.91,12.822,3.249l14.28,20.874       c2.595-99.807,7.076-274.374,7.174-279.007v-2.34c0-5.523,4.477-10,10-10c5.522,0,10,4.477,10,10v2.313       c0.314,10.113,4.792,184.073,7.197,278.998l14.255-20.838c2.845-4.16,8.342-5.552,12.823-3.249       c4.482,2.303,6.551,7.581,4.827,12.315l-16.206,44.525l51.084,7.427c4.644,0.675,8.154,4.473,8.528,9.078       c9.531-36.336,2.523-76.594-20.881-119.802c-2.021-3.733-1.467-8.335,1.385-11.48c0.533-0.59,53.738-60.175,48.227-117.386       c-2.281-23.671-14.601-44.048-36.616-60.566c-4.263-3.198-5.269-9.176-2.288-13.592c2.979-4.417,8.898-5.72,13.461-2.966       c2.796,1.689,62.488,38.412,88.899,106.006c0.809-1.566,2.039-2.936,3.642-3.921c4.487-2.763,10.351-1.567,13.398,2.732       c0.865,1.219,21.264,30.379,29.331,75.518c4.664,26.099,4.25,52.267-1.231,77.805c4.337,1.471,7.168,5.747,6.737,10.392       c-0.185,1.99-4.879,49.299-36.041,97.41c-18.396,28.4-42.214,51.146-70.794,67.607c-35.493,20.442-78.322,31.098-127.297,31.67       C258.148,495.999,258.109,495.999,258.07,495.999z M253.983,475.999h4.031c82.307-0.977,143.364-31.308,181.478-90.15       c0.911-1.408,1.798-2.815,2.661-4.222c-2.892,2.467-4.682,3.601-4.964,3.774c-4.126,2.541-9.48,1.759-12.706-1.856       c-3.226-3.616-3.396-9.024-0.402-12.835c35.706-45.46,50.721-94.125,44.72-144.807c-2.978,12.709-7.729,25.617-14.254,38.604       c-16.75,33.344-39.122,55.369-40.065,56.291c-3.61,3.523-9.279,3.806-13.222,0.659s-4.925-8.736-2.291-13.038       c30.561-49.917,40.442-98.271,29.37-143.722c-6.33-25.988-18.794-48.024-32.361-65.718c0.387,2.333,0.695,4.693,0.924,7.084       c5.341,55.875-34.771,110.225-48.731,127.273c25.072,49.009,30.734,95.103,16.823,137.105       c-23.02,69.508-91.038,101.771-93.922,103.109c-3.059,1.422-6.628,1.204-9.491-0.577c-2.864-1.78-4.638-4.885-4.718-8.256       c-0.003-0.128-0.24-10.105-1.116-44.023c-0.875,33.918-1.112,43.896-1.116,44.023c-0.08,3.372-1.854,6.476-4.717,8.256       c-2.864,1.782-6.432,2-9.492,0.577c-2.884-1.339-70.903-33.602-93.923-103.109c-13.91-42.002-8.247-88.098,16.826-137.107       c-13.962-17.061-54.101-71.48-48.729-127.37c0.224-2.331,0.524-4.634,0.899-6.909c-13.593,17.719-26.072,39.768-32.372,65.725       c-11.023,45.414-1.131,93.741,29.403,143.642c2.633,4.304,1.648,9.894-2.296,13.039c-3.944,3.143-9.613,2.858-13.222-0.666       c-0.944-0.923-23.313-22.973-40.063-56.327c-6.521-12.986-11.271-25.885-14.249-38.589       c-6.003,50.7,9.012,99.376,44.714,144.832c2.992,3.81,2.824,9.215-0.399,12.831c-3.223,3.615-8.574,4.4-12.7,1.865       c-0.25-0.153-1.678-1.055-4.003-2.971c0.844,1.362,1.709,2.724,2.599,4.086C111.044,444.922,171.965,475.026,253.983,475.999z        M275.311,403.585c0.532,20.483,0.893,34.563,1.13,43.963c19.765-12.547,55.325-40.189,69.622-83.56       c0.059-0.178,0.115-0.353,0.173-0.53c-1.539,2.016-3.836,3.438-6.508,3.826l-49.429,7.186l17.823,34.906       c0.884,1.492,1.393,3.233,1.393,5.094c0,5.494-4.431,9.953-9.914,10c-0.034,0-0.068,0-0.103,0       c-2.657,0-5.294-1.056-7.244-3.103C292.254,421.367,283.898,412.597,275.311,403.585z M165.257,363.457       c0.058,0.178,0.115,0.354,0.174,0.531c14.296,43.367,49.853,71.009,69.622,83.559c0.238-9.397,0.598-23.479,1.13-43.957       l-16.943,17.778c-3.426,3.595-8.97,4.133-13.023,1.26c-4.051-2.872-5.381-8.282-3.123-12.705l18.1-35.452l-49.43-7.188       C169.093,366.896,166.797,365.473,165.257,363.457z M246.859,367.896c1.291,0,2.593,0.25,3.834,0.766       c2.231,0.927,3.995,2.6,5.054,4.655c1.058-2.054,2.82-3.726,5.048-4.653c1.4-0.583,2.876-0.826,4.336-0.756       c-0.268-2.005,0.075-4.072,1.029-5.917c1.078-2.086,2.841-3.699,4.951-4.603c-1.921-0.821-3.558-2.233-4.652-4.064       c-0.9-1.507-1.377-3.202-1.414-4.916c-1.361,0.183-2.773,0.084-4.151-0.323c-2.106-0.623-3.888-1.896-5.147-3.565       c-1.261,1.67-3.044,2.945-5.152,3.567c-1.376,0.405-2.788,0.503-4.147,0.321c-0.037,1.714-0.513,3.409-1.414,4.916       c-1.094,1.831-2.731,3.243-4.652,4.064c2.11,0.903,3.873,2.517,4.951,4.603c0.954,1.845,1.297,3.912,1.029,5.917       C246.527,367.899,246.693,367.896,246.859,367.896z M450.58,173.915c1.133,7.102,1.824,14.261,2.074,21.456       C452.713,188.079,452.021,180.924,450.58,173.915z M60.547,176.276c-0.873,4.949-1.357,9.86-1.504,14.717       C59.337,186.067,59.838,181.16,60.547,176.276z" style="fill:#840200;"/></g></g><g><path d="M431.945,376.887c96.892-123.36,17.38-235.507,17.38-235.507      c45.867,86.687-41.828,172.261-41.828,172.261c106.084-173.271-61.126-274.303-61.126-274.303      c97.9,73.45-10.203,192.668-10.203,192.668c86.685,160.035-69.309,232.476-69.309,232.476s-0.403-17.072-2.223-86.586      c4.345,4.548,34.857,36.574,34.857,36.574l-24.451-47.887l63.246-9.195l-63.246-9.194l20.41-56.073l-31.725,46.374      c-2.224-88.604-7.88-308.249-7.981-310.067v-2.426v1.01v-1.01v2.426c0,1.01-5.658,221.26-7.982,310.067L216.04,292.12      l20.409,56.073l-63.245,9.194l63.245,9.195l-24.448,47.887l34.855-36.574c-1.819,69.514-2.223,86.586-2.223,86.586      s-155.994-72.44-69.308-232.476c0,0-108.105-119.319-10.204-192.668c0,0-167.209,100.932-61.125,274.303      c0,0-87.696-85.676-41.828-172.261c0,0-79.512,112.146,17.378,235.507c0,0-26.471-16.267-49.91-78.5      c0,0,17.074,185.19,224.29,187.612h4.143c207.116-2.422,224.292-187.612,224.292-187.612      C458.518,360.52,431.945,376.887,431.945,376.887L431.945,376.887z" style="fill:#B00300;"/></g></g></g></g><g id="Layer_1"/></svg>