<?xml version="1.0" ?><!DOCTYPE svg  PUBLIC '-//W3C//DTD SVG 1.1//EN'  'http://www.w3.org/Graphics/SVG/1.1/DTD/svg11.dtd'><svg height="512px" style="enable-background:new 0 0 512 512;" version="1.1" viewBox="0 0 512 512" width="512px" xml:space="preserve" xmlns="http://www.w3.org/2000/svg" xmlns:xlink="http://www.w3.org/1999/xlink"><g id="comp_x5F_186-joomla"><g><g><g><path d="M26.667,87.799c0-34.185,27.511-61.694,61.388-61.694c30.797,0,55.947,22.48,60.771,51.532      c33.467-7.802,73.919,5.849,104.1,36.03l-45.205,45.747c-21.044-21.044-49.039-22.237-62.18-9.098      c-14.679,14.681-14.679,38.906,0,53.586l107.657,107.658l-45.272,45.424c-90.029-89.516-56.43-56.483-107.86-107.811      c-27.512-27.204-35.93-66.521-25.458-101.526C46.993,141.693,26.667,117.159,26.667,87.799z" style="fill:#7AC043;"/><g><path d="M207.927,366.984c-2.55,0-5.1-0.969-7.051-2.909C146.44,309.95,136.997,300.421,127,290.333       c-6.72-6.781-13.669-13.793-33.998-34.081c-26.819-26.519-38.054-64.763-30.426-101.754       c-11.694-4.409-22.137-11.904-30.069-21.708c-10.215-12.626-15.84-28.604-15.84-44.991c0-39.532,32.024-71.694,71.388-71.694       c31.754,0,59.056,20.536,68.298,50.072c3.848-0.465,7.771-0.699,11.74-0.699c32.276,0,65.774,14.987,91.904,41.118       c3.889,3.889,3.907,10.188,0.042,14.1l-45.205,45.747c-1.872,1.894-4.421,2.963-7.083,2.971c-0.01,0-0.02,0-0.03,0       c-2.652,0-5.195-1.053-7.071-2.929c-9.362-9.362-21.046-14.731-32.057-14.731c-6.671,0-12.347,2.001-15.98,5.634       c-10.689,10.69-10.689,28.754,0,39.444l107.657,107.658c3.9,3.901,3.905,10.224,0.012,14.131l-45.272,45.424       C213.056,366.004,210.491,366.984,207.927,366.984z M88.056,36.104c-28.335,0-51.388,23.19-51.388,51.694       c0,24.398,16.468,44.989,40.048,50.073c2.725,0.587,5.082,2.287,6.5,4.687c1.419,2.4,1.771,5.284,0.972,7.955       c-9.811,32.796-1.033,67.876,22.909,91.55c20.4,20.36,27.369,27.391,34.108,34.192c9.521,9.608,18.536,18.704,66.689,66.596       l31.174-31.278L138.471,210.974c-18.671-18.672-18.671-49.055,0-67.728c7.412-7.411,18.109-11.492,30.123-11.492       c13.281,0,26.938,4.998,38.623,13.946l31.344-31.721c-20.958-17.983-46.691-28.5-70.466-28.5       c-5.877,0-11.596,0.639-16.997,1.897c-2.693,0.627-5.524,0.113-7.823-1.422c-2.299-1.534-3.86-3.952-4.313-6.679       C134.809,54.26,113.399,36.104,88.056,36.104z" style="fill:#000B28;"/></g></g><g><path d="M154.246,212.651l45.476,45.478c10.266-10.267,97.443-97.443,107.708-107.813      c14.681-14.679,38.6-14.679,53.278,0c13.14,13.14,11.867,41.515-9.176,62.455L397.052,258      c32.028-32.028,44.755-74.731,34.899-109.223c29.975-4.21,53.277-29.977,53.277-61.081c0-34.082-27.511-61.695-61.388-61.695      c-31.105,0-56.871,23.097-61.079,52.97c-34.697-10.163-73.604-1.539-100.91,25.767      C243.065,124.346,183.501,183.498,154.246,212.651z" style="fill:#F9AE41;"/><g><path d="M199.722,268.129c-2.652,0-5.196-1.054-7.071-2.929l-45.476-45.478       c-1.877-1.877-2.931-4.424-2.929-7.08s1.061-5.2,2.941-7.075l14.298-14.24c30.719-30.585,77.143-76.807,93.146-93.509       c0.049-0.052,0.099-0.103,0.149-0.153c21.165-21.165,49.29-32.821,79.193-32.821c7.147,0,14.261,0.679,21.252,2.024       c9.015-29.643,36.808-50.868,68.615-50.868c39.363,0,71.388,32.163,71.388,71.695c0,31.877-21.44,59.73-51.348,68.682       c5.969,36.324-8.966,77.9-39.758,108.693c-3.896,3.896-10.21,3.906-14.119,0.022l-45.52-45.229       c-1.889-1.876-2.951-4.428-2.952-7.09s1.06-5.214,2.946-7.092c9.368-9.322,14.748-21.063,14.762-32.212       c0.009-6.75-1.981-12.461-5.604-16.083c-5.21-5.211-12.159-8.081-19.567-8.081c-7.407,0-14.357,2.87-19.569,8.081       c-6.308,6.372-42.709,42.81-105.232,105.336l-2.475,2.475C204.918,267.075,202.374,268.129,199.722,268.129z M168.402,212.666       l31.319,31.32c59.686-59.691,94.437-94.478,100.602-100.705c9.024-9.024,20.997-13.974,33.746-13.974       c12.75,0,24.722,4.95,33.71,13.938c7.405,7.406,11.476,18.149,11.461,30.25c-0.017,13.402-5.031,27.12-13.999,38.801       l31.521,31.319c23.875-27.788,33.878-63.028,25.573-92.09c-0.795-2.782-0.346-5.772,1.231-8.198s4.128-4.05,6.993-4.452       c25.465-3.577,44.668-25.579,44.668-51.178c0-28.505-23.053-51.695-51.388-51.695c-25.613,0-47.614,19.073-51.177,44.365       c-0.405,2.876-2.041,5.434-4.481,7.008c-2.44,1.575-5.444,2.012-8.231,1.194c-8.433-2.47-17.173-3.722-25.978-3.722       c-24.526,0-47.6,9.549-64.979,26.891c-16.236,16.939-62.662,63.162-93.398,93.766L168.402,212.666z" style="fill:#000B28;"/></g></g><g><path d="M432.979,363.531c8.417-33.568-0.925-70.319-26.999-96.395      c-12.113-12.522-0.405-0.713-107.681-107.884l-45.289,45.664l107.698,107.696c14.681,14.682,14.681,38.6,0,53.278      c-13.14,13.14-41.116,12.265-62.06-8.779l-45.167,45.476c28.334,31.001,74.992,45.019,110.614,33.931      c5.646,28.129,30.489,49.378,60.465,49.378c33.877,0,61.387-27.512,61.387-61.694      C485.947,393.197,462.851,367.74,432.979,363.531L432.979,363.531z" style="fill:#EE4035;"/><g><path d="M424.561,495.896c-30.502,0-57.399-19.383-67.466-47.347       c-6.065,1.152-12.388,1.734-18.895,1.734c-33.724,0-69.015-15.691-92.1-40.95c-3.6-3.938-3.473-10.008,0.286-13.793       l45.167-45.476c1.876-1.889,4.428-2.952,7.09-2.953c0.001,0,0.003,0,0.005,0c2.66,0,5.211,1.061,7.088,2.946       c9.184,9.228,20.713,14.521,31.631,14.521c6.778-0.001,12.557-2.046,16.27-5.759c5.212-5.211,8.082-12.159,8.082-19.566       c0-7.408-2.87-14.357-8.082-19.569L245.939,211.988c-3.894-3.894-3.907-10.203-0.029-14.113l45.288-45.664       c1.872-1.887,4.419-2.952,7.077-2.958c0.008,0,0.016,0,0.023,0c2.65,0,5.192,1.052,7.067,2.925       c23.076,23.054,40.647,40.602,54.133,54.071c44.596,44.538,44.596,44.538,51.303,51.487l2.312,2.393       c13.834,13.855,23.843,31.062,28.947,49.762c4.096,15.006,4.982,30.716,2.648,45.983c12.857,3.807,24.483,11.17,33.451,21.324       c11.471,12.988,17.787,29.681,17.787,47.004C495.947,463.734,463.923,495.896,424.561,495.896z M364.096,426.519       c1.777,0,3.542,0.474,5.103,1.399c2.436,1.445,4.145,3.855,4.702,6.633c4.808,23.957,26.114,41.346,50.66,41.346       c28.335,0,51.387-23.19,51.387-51.694c0-25.379-19.072-47.205-44.364-50.769c-2.808-0.396-5.315-1.965-6.899-4.317       s-2.095-5.267-1.405-8.018c7.731-30.832-1.606-64.127-24.37-86.891c-0.039-0.039-0.078-0.079-0.116-0.118l-2.38-2.463       c-6.58-6.817-6.58-6.817-51.046-51.227c-12.068-12.053-27.406-27.372-47.034-46.979l-31.209,31.467l100.656,100.654       c8.989,8.99,13.939,20.962,13.939,33.712s-4.951,24.721-13.94,33.709c-7.49,7.49-18.29,11.615-30.411,11.616       c-13.188,0-26.702-4.93-38.237-13.761l-31.513,31.728c19.158,17.281,45.404,27.738,70.583,27.738       c8.147,0,15.86-1.115,22.924-3.313C362.096,426.668,363.098,426.519,364.096,426.519z" style="fill:#000B28;"/></g></g><g><path d="M351.858,303.6l-45.369-45.256c-89.31,88.693-56.957,56.938-107.566,107.651      c-14.679,14.679-38.598,14.679-53.277,0c-13.449-13.757-11.873-41.714,8.762-62.347l-45.169-45.476      c-31.002,31.002-44.485,72.406-35.76,106.387c-27.408,6.158-47.426,30.692-47.426,59.743c0,34.186,27.511,61.696,61.388,61.696      c29.359,0,53.894-20.326,60.155-47.94c33.568,8.417,70.319-0.615,96.702-26.689C277.249,378.519,262.24,393.219,351.858,303.6      L351.858,303.6z" style="fill:#4F91CD;"/><g><path d="M87.44,495.999c-39.363,0-71.388-32.163-71.388-71.696c0-16.235,5.55-32.112,15.627-44.704       c7.943-9.926,18.448-17.522,30.219-21.978c-2.366-16.07-0.651-33.349,5.075-50.533c6.797-20.399,18.967-39.76,35.194-55.986       c1.875-1.875,4.419-2.929,7.071-2.929c0.006,0,0.011,0,0.017,0c2.658,0.004,5.205,1.067,7.078,2.953l45.169,45.476       c3.883,3.909,3.872,10.223-0.024,14.118c-16.881,16.88-18.133,38.553-8.721,48.245c5.206,5.185,12.138,8.039,19.526,8.039       c7.408,0,14.357-2.869,19.568-8.08c18.27-18.307,25.554-25.691,31.981-32.206c11.171-11.324,18.551-18.806,75.609-75.47       c3.906-3.878,10.211-3.871,14.109,0.016l45.369,45.256c1.879,1.875,2.936,4.42,2.938,7.074s-1.052,5.2-2.929,7.077       c-51.265,51.265-68.336,68.438-79.633,79.802c-8.621,8.673-13.825,13.907-27.94,27.979       c-21.32,21.071-49.376,32.658-79.033,32.658c-0.002,0-0.003,0-0.005,0c-5.958,0-11.908-0.478-17.781-1.425       C144.185,477.384,117.833,495.999,87.44,495.999z M109.482,272.607c-23.274,27.092-33.549,61.302-26.318,89.465       c0.673,2.62,0.256,5.4-1.156,7.707c-1.412,2.308-3.698,3.944-6.337,4.537c-23.327,5.241-39.618,25.796-39.618,49.986       c0,28.506,23.052,51.696,51.388,51.696c24.316,0,45.042-16.511,50.402-40.151c0.595-2.625,2.223-4.899,4.516-6.309       c2.293-1.41,5.056-1.836,7.668-1.181c7.277,1.825,14.778,2.751,22.292,2.751c24.36,0.001,47.426-9.535,64.948-26.853       c14.052-14.009,19.244-19.231,27.846-27.885c10.768-10.832,26.777-26.937,72.595-72.764l-31.234-31.155       c-50.557,50.221-57.752,57.514-68.402,68.31c-6.127,6.212-13.752,13.941-32.07,32.296       c-8.996,8.996-20.967,13.945-33.717,13.945s-24.721-4.949-33.709-13.938c-0.026-0.027-0.053-0.054-0.08-0.081       c-16.521-16.899-15.03-46.22,2.263-68.89L109.482,272.607z" style="fill:#000B28;"/></g></g></g></g></g><g id="Layer_1"/></svg>