<?xml version="1.0" ?><!DOCTYPE svg  PUBLIC '-//W3C//DTD SVG 1.1//EN'  'http://www.w3.org/Graphics/SVG/1.1/DTD/svg11.dtd'><svg height="512px" style="enable-background:new 0 0 512 512;" version="1.1" viewBox="0 0 512 512" width="512px" xml:space="preserve" xmlns="http://www.w3.org/2000/svg" xmlns:xlink="http://www.w3.org/1999/xlink"><g id="comp_x5F_190-keycdn"><g><g><g><path d="M83.321,401.998l54.354-53.008c28.84,38.454,63.879,59.296,113.743,60.556      c27.4,0.629,54.175-6.29,77.623-20.126c4.583,4.761,16.622,17.52,18.778,19.767c-28.93,18.598-62.531,27.941-97.122,27.132      c-38.9-0.986-76.006-15.005-105.745-39.891c0.271-0.538-34.319,33.692-34.68,34.051c8.535,26.774-11.768,56.064-41.597,56.064      c-24.078-0.093-42.676-19.498-42.676-43.574C26.001,412.149,55.739,392.114,83.321,401.998z" style="fill:#2E3234;"/><g><path d="M68.677,496.543c-0.013,0-0.026,0-0.039,0c-29.516-0.113-52.637-23.646-52.637-53.574       c0-14.74,5.667-28.394,15.955-38.445c9.947-9.717,23.038-15.068,36.86-15.068c3.935,0,7.847,0.442,11.69,1.319l50.187-48.943       c2.059-2.009,4.884-3.03,7.753-2.812c2.869,0.223,5.502,1.669,7.229,3.971c28.487,37.983,61.177,55.427,105.996,56.559       c1.043,0.024,2.111,0.036,3.175,0.036c24.396,0,48.295-6.493,69.114-18.777c3.991-2.354,9.075-1.659,12.286,1.677       c2.866,2.977,8.5,8.926,13.027,13.706c2.71,2.86,4.947,5.223,5.762,6.072c2.07,2.156,3.066,5.126,2.717,8.095       c-0.351,2.968-2.01,5.625-4.524,7.241c-30.49,19.601-66.136,29.567-102.763,28.717c-37.877-0.96-74.771-13.896-104.877-36.614       c-6.945,6.805-18.174,17.891-24.243,23.891c2.616,14.104-0.766,29.033-9.505,40.991       C101.641,488.539,85.908,496.543,68.677,496.543z M68.816,409.455c-16.131,0-32.815,12.536-32.815,33.514       c0,18.75,14.36,33.495,32.696,33.574c10.77-0.006,20.608-5.021,26.995-13.761c6.271-8.581,8.161-19.521,5.054-29.267       c-1.139-3.573-0.183-7.482,2.476-10.127c0.179-0.179,8.799-8.708,17.407-17.193c4.306-4.245,8.609-8.479,11.853-11.651       c1.64-1.604,3.012-2.94,3.983-3.875c2.267-2.185,4.408-4.247,8.489-4.247c2.488,0,4.849,0.925,6.657,2.537       c27.808,23.177,63.075,36.443,99.341,37.362c1.285,0.03,2.584,0.046,3.886,0.046c27.143-0.001,53.555-6.677,77.094-19.402       c-1.611-1.7-3.258-3.438-4.792-5.052c-23.253,12.14-49.4,18.242-75.95,17.63c-47.178-1.191-83.815-18.936-114.473-55.649       l-46.414,45.264c-2.737,2.67-6.756,3.546-10.355,2.255C76.325,410.113,72.58,409.455,68.816,409.455z" style="fill:#232627;"/></g></g><g><path d="M416.176,166.233c17.158,28.121,26.593,60.555,25.784,93.436      c-0.988,40.251-17.069,78.615-43.663,108.713c0.269,0.269,21.381,22.641,21.652,22.909c8.624-1.167,17.249,1.798,23.269,8.177      c10.152,10.781,9.795,27.762-0.986,38.093c-10.783,10.153-27.763,9.794-38.096-0.988c-6.021-6.29-8.444-15.094-6.828-23.629      c-22.37-23.897-39.89-42.405-39.89-42.405c38.364-30.637,56.87-71.517,57.858-111.587c0.63-25.964-6.468-51.39-18.957-73.852      L416.176,166.233L416.176,166.233z" style="fill:#2E3234;"/><g><path d="M423.68,454.926c-10.192,0-19.697-4.062-26.764-11.435       c-6.915-7.225-10.499-17.053-10.055-27.073c-20.593-21.98-36.539-38.829-36.706-39.005c-1.923-2.032-2.907-4.777-2.713-7.569       c0.194-2.791,1.549-5.374,3.735-7.12c33.901-27.072,53.115-64.014,54.102-104.02c0.562-23.137-5.559-46.91-17.7-68.745       c-2.216-3.986-1.454-8.967,1.853-12.109l19.856-18.866c2.19-2.082,5.209-3.063,8.199-2.664       c2.995,0.396,5.651,2.126,7.225,4.705c18.663,30.586,28.084,64.782,27.245,98.89c-0.951,38.739-15.181,76.78-40.266,108.078       c1.109,1.175,2.419,2.562,3.965,4.198c2.825,2.991,6.049,6.404,8.362,8.853c9.994,0.103,19.624,4.304,26.472,11.561       c13.895,14.755,13.29,38.157-1.34,52.176C442.181,451.344,433.157,454.926,423.68,454.926z M371.932,371.341       c7.193,7.623,19.084,20.248,32.677,34.769c2.181,2.329,3.118,5.56,2.524,8.694c-1.033,5.456,0.547,11.009,4.228,14.854       c3.254,3.396,7.63,5.269,12.319,5.269c4.361,0,8.516-1.65,11.696-4.646c6.673-6.396,6.953-17.169,0.562-23.957       c-3.211-3.403-7.581-5.281-12.296-5.281c-0.781,0-1.572,0.054-2.352,0.159c-3.074,0.416-6.167-0.619-8.373-2.801       c-0.213-0.21-0.263-0.26-11.801-12.477c-4.847-5.132-9.493-10.053-9.994-10.576c-3.636-3.742-3.785-9.665-0.319-13.587       c25.635-29.013,40.252-65.356,41.16-102.337c0.646-26.296-5.62-52.714-18.204-77.1l-5.068,4.815       c11.455,23.037,17.172,47.793,16.583,72.054C424.223,301.813,405.373,341.261,371.932,371.341z" style="fill:#232627;"/></g></g><g><path d="M110.438,72.977c6.02,6.289,8.444,15.094,6.827,23.628l41.238,43.215      c-4.223,3.414-11.948,9.344-20.483,19.138c-22.82,25.604-35.579,58.218-36.566,92.448c-0.63,25.964,5.48,51.391,17.969,74.029      l-19.766,19.317c-17.34-28.389-25.966-60.822-24.978-94.065c0.899-40.069,16.442-78.703,42.676-108.8l-22.73-23.72      c-8.625,1.169-17.249-1.797-23.269-8.175c-10.152-10.781-9.794-27.762,0.987-38.094C83.036,61.836,99.837,62.105,110.438,72.977      z" style="fill:#2E3234;"/><g><path d="M99.658,354.752c-0.412,0-0.826-0.025-1.24-0.077c-3.021-0.378-5.707-2.111-7.294-4.71       c-18.34-30.027-27.483-64.46-26.439-99.576c0.873-38.878,14.754-76.913,39.284-108.02l-13.372-13.954       c-10.007-0.091-19.654-4.293-26.512-11.56c-13.894-14.754-13.289-38.157,1.341-52.177c6.943-6.535,15.918-10.1,25.337-10.1       c10.126,0,19.657,4.054,26.835,11.416c6.953,7.264,10.544,17.074,10.117,27.075l38.023,39.846       c1.93,2.022,2.925,4.759,2.745,7.548c-0.18,2.789-1.519,5.375-3.692,7.132l-1.168,0.94       c-4.314,3.462-10.833,8.694-18.063,16.991c-0.024,0.028-0.049,0.056-0.074,0.083c-21.028,23.593-33.115,54.165-34.036,86.083       c-0.586,24.163,5.199,48.008,16.729,68.911c2.172,3.937,1.449,8.839-1.766,11.981l-19.766,19.317       C104.767,353.74,102.253,354.752,99.658,354.752z M94.626,108.167c2.706,0,5.32,1.1,7.219,3.081l22.73,23.72       c3.581,3.737,3.719,9.588,0.318,13.49c-25.097,28.793-39.38,65.179-40.216,102.454c-0.804,27.057,5.163,53.606,17.333,77.559       l5.124-5.008c-10.882-22.306-16.287-47.142-15.677-72.299c1.057-36.646,14.928-71.721,39.062-98.819       c4.85-5.56,9.448-9.954,13.346-13.379l-33.834-35.456c-2.227-2.333-3.191-5.597-2.591-8.766       c1.034-5.455-0.546-11.007-4.226-14.852c-3.318-3.401-7.763-5.312-12.452-5.312c-4.305,0-8.412,1.634-11.565,4.602       c-6.671,6.394-6.952,17.168-0.561,23.956c3.211,3.402,7.579,5.28,12.292,5.28c0.781,0,1.573-0.054,2.354-0.159       C93.73,108.197,94.18,108.167,94.626,108.167z" style="fill:#232627;"/></g></g><g><path d="M443.684,25.457c23.359,0,42.315,20.125,42.315,43.395c0,23.269-18.956,42.854-42.315,42.854      c-5.662,0.091-12.579-0.988-14.285-1.616l-56.513,53.636c-29.378-39.171-68.909-59.206-114.011-60.374      c-27.402-0.629-54.176,6.108-77.444,20.125l-18.958-19.766c28.93-18.688,62.531-27.942,97.121-27.134      c38.902,0.988,76.007,15.006,105.746,40.071l36.926-34.68c-1.35-4.223-1.978-8.625-1.978-13.027      C400.198,44.952,420.323,25.457,443.684,25.457z" style="fill:#2E3234;"/><g><path d="M372.886,173.726c-0.278,0-0.559-0.012-0.839-0.035c-2.844-0.24-5.449-1.682-7.161-3.965       c-26.832-35.777-63.58-55.272-106.27-56.377c-1.063-0.024-2.158-0.037-3.248-0.037c-24.652,0-48.435,6.477-68.777,18.731       c-4.004,2.413-9.143,1.728-12.377-1.644l-18.958-19.766c-2.066-2.154-3.062-5.118-2.716-8.083c0.347-2.964,2-5.619,4.507-7.239       c30.364-19.615,66.003-29.6,102.78-28.731c37.99,0.965,74.927,13.983,104.988,36.842l26.344-24.741       c-0.579-3.167-0.871-6.424-0.871-9.739c-0.053-14.068,5.496-27.435,15.625-37.602c10.056-10.094,23.822-15.883,37.771-15.883       c13.964,0,27.145,5.692,37.114,16.029c9.803,10.162,15.201,23.432,15.201,37.366c0,29.117-23.424,52.811-52.234,52.854       c-3.488,0.047-7.639-0.269-11.246-0.791l-52.749,50.063C377.904,172.75,375.437,173.726,372.886,173.726z M255.368,93.312       c1.243,0,2.49,0.014,3.736,0.042c45.423,1.176,84.886,20.351,114.8,55.618l48.61-46.135c2.702-2.565,6.602-3.411,10.116-2.209       c1.284,0.339,6.149,1.084,10.369,1.084l0.523-0.004c0.054-0.001,0.106-0.001,0.16-0.001c17.517,0,32.315-15.045,32.315-32.854       c0-18.102-14.799-33.395-32.315-33.395c-8.669,0-17.271,3.644-23.602,9.998c-6.349,6.372-9.827,14.7-9.794,23.449       c0,3.542,0.506,6.9,1.503,10.021c1.174,3.673,0.131,7.694-2.68,10.333l-36.926,34.68c-3.699,3.475-9.411,3.625-13.29,0.357       c-27.763-23.399-63.118-36.795-99.556-37.721c-1.295-0.03-2.603-0.046-3.915-0.046c-27.201,0-53.584,6.659-77.015,19.353       l4.863,5.07C205.095,99.389,229.851,93.312,255.368,93.312z" style="fill:#232627;"/></g></g><g><g><path d="M269.878,140.049c-4.479-0.57-8.875-0.896-13.354-0.896       c-59.114,0.164-108.62,42.667-116.191,101.617c-7.817,63.592,37.211,121.648,100.804,129.627       c63.51,7.818,121.564-37.21,129.545-100.803C378.497,206.084,333.47,148.027,269.878,140.049z M276.962,278.877l8.955,42.097       h-60.009l8.956-42.097c-16.447-8.47-25.892-24.02-26.381-42.504c0.733-27.276,21.252-46.818,47.39-47.47       c26.463,0.651,47.145,20.763,47.471,47.47C303.099,255.263,293.328,270.001,276.962,278.877z" style="fill:#047AED;"/></g><g><g><path d="M255.478,381.278c-0.004,0-0.003,0-0.006,0c-5.168,0-10.402-0.322-15.557-0.957        c-68.873-8.641-117.987-71.789-109.507-140.772c3.968-30.897,18.928-58.998,42.13-79.178        c23.046-20.045,52.863-31.132,83.959-31.219c4.703,0,9.484,0.319,14.645,0.977c68.836,8.636,117.949,71.749,109.465,140.687        C372.702,333.799,318.908,381.278,255.478,381.278z M256.523,149.152c-54.673,0.152-99.379,39.218-106.273,92.891        c-7.131,58.01,34.195,111.163,92.13,118.431c4.325,0.532,8.737,0.804,13.091,0.804c53.375,0.003,98.637-39.948,105.287-92.93        c7.138-57.994-34.188-111.108-92.126-118.377C264.3,149.419,260.345,149.152,256.523,149.152z M285.917,330.974h-60.009        c-3.018,0-5.874-1.362-7.772-3.707c-1.899-2.346-2.637-5.423-2.009-8.374l7.469-35.108        c-15.542-10.631-24.587-27.433-25.109-47.146c-0.004-0.178-0.004-0.355,0-0.533c0.421-15.669,6.509-30.077,17.141-40.568        c10.48-10.342,24.685-16.248,39.996-16.63c0.165-0.004,0.329-0.004,0.495,0c32.233,0.793,56.834,25.446,57.224,57.345        c0.001,0.084,0.001,0.168,0,0.252c-0.254,19.593-9.112,36.101-25.133,47.188l7.488,35.201c0.628,2.951-0.11,6.028-2.01,8.374        C291.79,329.611,288.935,330.974,285.917,330.974z M238.259,310.974h35.307l-6.386-30.016        c-0.922-4.335,1.118-8.759,5.014-10.871c13.606-7.38,20.917-19.036,21.148-33.717c-0.317-20.767-16.386-36.822-37.468-37.463        c-21.024,0.644-36.692,16.346-37.387,37.469c0.48,14.966,7.914,26.895,20.955,33.61c4.01,2.065,6.142,6.56,5.203,10.972        L238.259,310.974z" style="fill:#035CB2;"/></g></g></g></g></g></g><g id="Layer_1"/></svg>