<?xml version="1.0" ?><!DOCTYPE svg  PUBLIC '-//W3C//DTD SVG 1.1//EN'  'http://www.w3.org/Graphics/SVG/1.1/DTD/svg11.dtd'><svg height="512px" style="enable-background:new 0 0 512 512;" version="1.1" viewBox="0 0 512 512" width="512px" xml:space="preserve" xmlns="http://www.w3.org/2000/svg" xmlns:xlink="http://www.w3.org/1999/xlink"><g id="comp_x5F_196-lastfm-square"><g><g><g><g><path d="M428.857,36.001H83.144c-26.026,0-47.142,21.115-47.142,47.144v345.712       c0,26.028,21.116,47.143,47.142,47.143h345.713c26.027,0,47.141-21.114,47.141-47.143V83.145       C475.998,57.116,454.885,36.001,428.857,36.001z" style="fill:#D42127;"/><path d="M428.857,485.999H83.144c-31.508,0-57.142-25.634-57.142-57.143V83.145       c0-31.509,25.634-57.144,57.142-57.144h345.713c31.508,0,57.141,25.635,57.141,57.144v345.712       C485.998,460.365,460.365,485.999,428.857,485.999z M83.144,46.001c-20.48,0-37.142,16.663-37.142,37.144v345.712       c0,20.48,16.662,37.143,37.142,37.143h345.713c20.479,0,37.141-16.662,37.141-37.143V83.145       c0-20.481-16.661-37.144-37.141-37.144H83.144z" style="fill:#9F191D;"/></g></g><g><path d="M338.303,343.313c-62.268,0-83.875-28.09-95.365-62.955      c-16.01-50.089-21.116-82.795-61.875-82.795c-22,0-44.295,15.813-44.295,60.107c0,34.571,17.679,56.179,42.527,56.179      c28.089,0,40.705-20.922,40.705-20.922l10,31.333c0,0-11.911,19.053-52.571,19.053c-50.383,0-78.473-29.563-78.473-84.27      c0-56.863,28.09-90.354,81.026-90.354c72.188,0,79.358,40.659,99,100.079c8.644,26.321,23.766,45.375,60.107,45.375      c24.455,0,37.419-5.402,37.419-18.76c0-19.544-21.41-21.606-49.01-28.091c-29.854-7.169-41.741-22.686-41.741-47.141      c0-39.286,31.725-51.463,64.037-51.463c36.732,0,59.026,13.356,61.874,45.767l-36.045,4.321c-1.472-15.519-10.804-22-28.088-22      c-15.813,0-25.536,7.17-25.536,19.446c0,10.804,4.715,17.286,20.527,20.92c32.116,6.972,70.517,11.785,70.517,56.472      C413.144,329.66,382.893,343.313,338.303,343.313L338.303,343.313z" style="fill:#FFFFFF;"/><path d="M338.303,353.313c-72.547,0-94.148-37.315-104.862-69.825c-1.779-5.565-3.387-10.79-4.941-15.843      c-13.146-42.738-19.591-60.082-47.436-60.082c-21.795,0-34.295,18.263-34.295,50.107c0,28.053,12.768,46.179,32.527,46.179      c21.783,0,31.772-15.501,32.187-16.161c2.027-3.361,5.811-5.192,9.707-4.73c3.897,0.458,7.145,3.19,8.337,6.93l10,31.333      c0.894,2.799,0.511,5.85-1.047,8.341c-1.52,2.432-16.146,23.752-61.051,23.752c-56.226,0-88.473-34.36-88.473-94.27      c0-31.072,7.792-55.67,23.159-73.111c15.703-17.822,39.171-27.242,67.867-27.242c62.299,0,81.599,29.346,96.229,69.907      c-0.303-2.707-0.453-5.52-0.453-8.444c0-38.486,27.678-61.463,74.037-61.463c21.217,0,37.373,4.104,49.392,12.546      c13.241,9.301,20.792,23.548,22.444,42.345c0.473,5.379-3.41,10.162-8.771,10.804l-36.045,4.321      c-2.682,0.323-5.369-0.452-7.467-2.144c-2.098-1.691-3.425-4.158-3.679-6.841c-0.672-7.082-2.5-12.944-18.133-12.944      c-7.088,0-15.536,1.639-15.536,9.446c0,4.777-0.001,8.23,12.713,11.162c2.128,0.461,4.285,0.914,6.456,1.369      c16.244,3.407,33.041,6.931,46.744,15.672c16.676,10.638,25.131,27.187,25.131,49.189c0.044,15.752-4.928,28.759-14.774,38.634      C394.331,346.226,370.791,353.313,338.303,353.313z M181.063,187.563c43.728,0,53.8,32.745,66.552,74.201      c1.539,5.002,3.129,10.173,4.848,15.549c9.572,29.044,26.619,56,85.839,56c26.98,0,45.756-5.109,55.805-15.186      c6.042-6.06,8.965-14.068,8.937-24.484c0-31.314-21.149-38.008-55.981-45.314c-2.238-0.469-4.462-0.936-6.656-1.412      c-0.04-0.009-0.079-0.018-0.118-0.026C328.145,244.099,312,237.884,312,216.224c0-17.888,13.949-29.446,35.536-29.446      c22.273,0,31.979,9.956,35.894,20.993l16.671-1.999c-3.79-14.059-15.107-27.082-50.306-27.082      c-24.651,0-54.037,7.193-54.037,41.463c0,20.765,9.872,31.605,34.076,37.417c3.24,0.762,6.439,1.47,9.523,2.153      c12.089,2.679,22.528,4.992,30.706,9.32c10.912,5.774,16.445,14.637,16.445,26.341c0,10.388-5.403,18.7-15.215,23.405      c-7.513,3.604-18.047,5.354-32.204,5.354c-47.012,0-62.242-29.823-69.608-52.255c-1.494-4.521-2.923-8.951-4.313-13.263      c-16.615-51.543-25.768-79.937-85.187-79.937c-58.704,0-71.026,43.697-71.026,80.354c0,33.882,11.879,74.27,68.473,74.27      c24.266,0,36.299-7.237,41.29-11.512l-3.171-9.935c-8.066,6.129-20.02,11.982-36.252,11.982      c-15.335,0-29.004-6.749-38.49-19.005c-9.183-11.864-14.037-28.177-14.037-47.174c0-22.948,5.511-40.866,16.379-53.258      C152.678,193.546,166.143,187.563,181.063,187.563z M283.848,251.382c0.119,0.37,0.237,0.737,0.356,1.108      c1.376,4.266,2.788,8.649,4.273,13.14c8.984,27.361,23.646,38.514,50.612,38.514c18.194,0,27.419-2.947,27.419-8.76      c0-8.019-6.708-10.646-31.479-16.135c-3.163-0.701-6.445-1.429-9.818-2.221C305.462,272.285,291.742,263.813,283.848,251.382z" style="fill:#9F191D;"/></g></g></g></g><g id="Layer_1"/></svg>