<?xml version="1.0" ?><!DOCTYPE svg  PUBLIC '-//W3C//DTD SVG 1.1//EN'  'http://www.w3.org/Graphics/SVG/1.1/DTD/svg11.dtd'><svg height="512px" style="enable-background:new 0 0 512 512;" version="1.1" viewBox="0 0 512 512" width="512px" xml:space="preserve" xmlns="http://www.w3.org/2000/svg" xmlns:xlink="http://www.w3.org/1999/xlink"><g id="comp_x5F_210-medapps"><g><g><g><g><path d="M317.093,428.499c19.047,0,19.047-28.748,0-28.748H194.905c-19.046,0-19.046,28.748,0,28.748       H317.093z M295.53,485.999c19.047,0,19.047-28.749,0-28.749h-79.063c-19.046,0-19.046,28.749,0,28.749H295.53z        M326.258,358.871c2.875-16.982,4.671-32.704,10.689-43.845c7.099-13.205,14.466-25.246,21.563-36.835       c22.103-36.297,41.24-67.563,41.24-112.753c0-76.906-64.509-139.438-143.75-139.438c-79.243,0-143.75,62.531-143.75,139.438       c0,45.101,19.137,76.456,41.237,112.753c7.099,11.589,14.374,23.63,21.563,36.835c6.021,11.231,7.816,26.774,10.691,43.935       c3.146,18.866,32.434,14.105,29.288-4.582c-3.232-19.495-5.029-36.565-13.745-52.648       c-29.289-54.266-59.387-85.891-59.387-136.292c0-61.005,51.211-110.688,114.103-110.688       c62.89,0,114.101,49.683,114.101,110.688c0,50.401-30.097,82.026-59.387,136.202c-8.715,16.173-10.512,33.601-13.746,52.647       C293.914,372.796,323.021,378.008,326.258,358.871L326.258,358.871z" style="fill:#072E84;"/><path d="M295.53,495.999h-79.063c-13.844,0-24.285-10.479-24.285-24.375       c0-6.205,2.158-12.066,6.077-16.502c4.484-5.076,10.95-7.872,18.208-7.872h79.063c13.845,0,24.285,10.479,24.285,24.374       c0,6.207-2.158,12.067-6.077,16.503C309.255,493.203,302.788,495.999,295.53,495.999z M216.468,467.25       c-2.843,0-4.285,1.472-4.285,4.374c0,2.903,1.442,4.375,4.285,4.375h79.063c2.844,0,4.285-1.472,4.285-4.375       c0-2.902-1.441-4.374-4.285-4.374H216.468z M317.093,438.499H194.905c-13.844,0-24.285-10.479-24.285-24.374       c0-6.206,2.158-12.066,6.077-16.503c4.484-5.075,10.95-7.871,18.208-7.871h122.188c13.845,0,24.285,10.479,24.285,24.374       S330.938,438.499,317.093,438.499z M194.905,409.751c-2.843,0-4.285,1.472-4.285,4.374s1.442,4.374,4.285,4.374h122.188       c2.844,0,4.285-1.472,4.285-4.374s-1.441-4.374-4.285-4.374H194.905z M200.033,380.968c-12.417,0-22.125-8.183-24.155-20.362       c-0.413-2.465-0.805-4.904-1.19-7.302c-2.191-13.632-4.083-25.405-8.451-33.553c-7.228-13.276-14.773-25.72-21.276-36.336       l-0.122-0.201c-22.852-37.531-42.588-69.943-42.588-117.775c0-82.4,68.972-149.438,153.75-149.438       c84.778,0,153.75,67.038,153.75,149.438c0,47.834-19.678,80.149-42.463,117.565l-0.236,0.389       c-7.029,11.479-14.284,23.326-21.296,36.369c-4.321,8-6.296,20.222-8.387,33.161c-0.404,2.503-0.815,5.046-1.251,7.617       c-2.063,12.196-11.726,20.393-24.043,20.393l0,0c-7.7-0.001-15.125-3.334-19.863-8.918c-4.482-5.283-6.297-12.156-5.109-19.354       c0.461-2.72,0.887-5.36,1.307-7.97c2.686-16.677,5.223-32.428,13.502-47.793c7.736-14.309,15.346-26.773,22.704-38.827       c19.826-32.476,35.486-58.127,35.486-92.632c0-55.519-46.699-100.688-104.101-100.688       c-57.402,0-104.103,45.168-104.103,100.688c0,34.477,15.639,60.123,35.439,92.591c7.375,12.093,15.001,24.598,22.748,38.951       c8.397,15.494,10.935,31.472,13.622,48.388c0.384,2.42,0.774,4.878,1.188,7.375c1.211,7.193-0.575,14.071-5.033,19.343       C215.158,377.647,207.745,380.968,200.033,380.968z M256,36.001c-73.75,0-133.75,58.065-133.75,129.438       c0,42.222,18.384,72.415,39.67,107.375l0.108,0.178c6.618,10.804,14.32,23.507,21.804,37.254       c5.985,11.164,8.227,25.115,10.601,39.885c0.378,2.354,0.763,4.75,1.17,7.179c0.184,1.101,0.61,3.659,4.429,3.659       c1.817,0,3.648-0.722,4.558-1.797c0.429-0.508,0.882-1.321,0.577-3.132c-0.426-2.567-0.823-5.069-1.214-7.533       c-2.516-15.836-4.688-29.512-11.461-42.011c-7.505-13.904-14.991-26.181-22.231-38.053       c-20.585-33.757-38.364-62.91-38.364-103.004c0-66.547,55.672-120.688,124.103-120.688c68.43,0,124.101,54.14,124.101,120.688       c0,40.127-17.803,69.288-38.416,103.054c-7.225,11.833-14.694,24.069-22.174,37.904c-6.671,12.38-8.843,25.862-11.356,41.474       c-0.43,2.665-0.864,5.362-1.328,8.092c-0.288,1.75,0.188,2.585,0.635,3.112c0.942,1.111,2.797,1.858,4.613,1.858       c3.693,0,4.119-2.519,4.323-3.729c0.428-2.522,0.83-5.016,1.227-7.47c2.368-14.657,4.604-28.502,10.525-39.46       c7.268-13.521,14.672-25.611,21.832-37.305l0.224-0.367c22.094-36.281,39.545-64.939,39.545-107.163       C389.75,94.066,329.75,36.001,256,36.001z" style="fill:#052363;"/></g></g><path d="M218.535,240.188c3.144-11.23,6.198-30.188,11.859-30.188c7.457,1.616,8.624,21.023,16.709,32.882     c4.134-21.113,4.763-76.457,12.669-77.894c8.086-0.63,17.698,59.746,19.766,69.629c8.895,3.683,43.934,5.93,43.934,5.93     c1.707,6.558-21.562,6.827-35.938,7.008c-4.133,13.295-4.851,24.886-10.241,25.156c-4.223,0.178-7.368-25.876-15.723-44.563     l-8.445,58.847c-3.955,11.681-13.927-20.213-19.677-35.307c-2.965-0.09-56.062-1.438-42.765-7.009L218.535,240.188     L218.535,240.188z" style="fill:#FF0D65;"/></g></g></g><g id="Layer_1"/></svg>