<?xml version="1.0" ?><!DOCTYPE svg  PUBLIC '-//W3C//DTD SVG 1.1//EN'  'http://www.w3.org/Graphics/SVG/1.1/DTD/svg11.dtd'><svg height="512px" style="enable-background:new 0 0 512 512;" version="1.1" viewBox="0 0 512 512" width="512px" xml:space="preserve" xmlns="http://www.w3.org/2000/svg" xmlns:xlink="http://www.w3.org/1999/xlink"><g id="comp_x5F_211-medium"><g><g><g><path d="M86.742,151.812c0.55-5.41-1.56-10.821-5.595-14.49L39.785,87.429V80h128.583l99.417,200      l87.403-200H477.81v7.429l-35.401,33.934c-3.026,2.293-4.585,6.144-3.943,9.905v249.463c-0.642,3.76,0.917,7.612,3.943,9.906      l34.576,33.933V432H303.003v-7.43l35.861-34.759c3.485-3.485,3.485-4.587,3.485-9.906V190l-99.693,241.357h-13.482      L116.99,178.318v169.581c-1.01,7.152,1.374,14.308,6.42,19.442L170,423.838v7.429H34.19v-7.339l46.591-56.587      c4.952-5.135,7.245-12.381,5.961-19.442V151.812z" style="fill:#333333;"/><path d="M476.984,442H303.003c-5.522,0-10-4.478-10-10v-7.43c0-2.706,1.097-5.297,3.04-7.181l35.801-34.7      c0.201-0.201,0.361-0.367,0.488-0.503c0.018-0.617,0.018-1.484,0.018-2.281V240.404l-80.451,194.771      c-1.545,3.742-5.194,6.183-9.243,6.183h-13.482c-3.955,0-7.539-2.331-9.142-5.947L126.99,225.547v122.352      c0,0.468-0.033,0.935-0.098,1.397c-0.574,4.068,0.756,8.091,3.65,11.036c0.204,0.207,0.398,0.423,0.583,0.646l46.589,56.497      c1.478,1.791,2.285,4.041,2.285,6.362v7.429c0,5.522-4.477,10-10,10H34.19c-5.523,0-10-4.478-10-10v-7.339      c0-2.319,0.806-4.566,2.28-6.356l46.591-56.587c0.167-0.202,0.341-0.397,0.522-0.586c2.775-2.877,4.017-6.882,3.32-10.711      c-0.107-0.59-0.161-1.189-0.161-1.789V151.812c0-0.338,0.017-0.675,0.051-1.011c0.229-2.248-0.659-4.521-2.373-6.08      c-0.347-0.315-0.672-0.655-0.971-1.017L32.086,93.812c-1.487-1.794-2.301-4.052-2.301-6.382V80c0-5.523,4.477-10,10-10h128.583      c3.796,0,7.265,2.149,8.955,5.549l89.879,180.813l78.823-180.366c1.592-3.642,5.188-5.996,9.163-5.996H477.81      c5.522,0,10,4.477,10,10v7.429c0,2.726-1.112,5.333-3.08,7.219l-35.401,33.934c-0.278,0.267-0.572,0.518-0.88,0.75      c-0.084,0.063-0.133,0.206-0.126,0.253c0.095,0.556,0.143,1.118,0.143,1.682v249.463c0,0.563-0.048,1.126-0.143,1.682      c-0.007,0.049,0.044,0.192,0.127,0.255c0.338,0.257,0.66,0.535,0.963,0.833l34.576,33.933c1.917,1.88,2.996,4.452,2.996,7.137      V432C486.984,437.522,482.507,442,476.984,442z M320.023,422h140.065l-24.304-23.852c-5.413-4.416-8.158-11.226-7.32-18.123      V131.974c-0.84-6.919,1.926-13.751,7.374-18.166L460.677,90h-98.945l-84.783,194.005c-1.556,3.56-5.032,5.896-8.917,5.992      c-3.87,0.087-7.472-2.067-9.201-5.546L162.172,90H54.906l33.542,40.459c5.875,5.659,8.943,13.715,8.294,21.8v194.824      c1.453,9.701-1.672,19.655-8.468,26.89l-38.939,47.294h105.583l-38.97-47.256c-6.886-7.204-10.126-16.891-8.958-26.754V178.318      c0-4.725,3.307-8.805,7.929-9.783c4.621-0.98,9.298,1.411,11.213,5.73l109.547,247.093h0.288l97.14-235.175      c1.821-4.411,6.506-6.923,11.188-5.991c4.681,0.929,8.054,5.036,8.054,9.809v189.905c0,6.746-0.298,10.861-6.414,16.978      c-0.037,0.036-0.074,0.073-0.111,0.109L320.023,422z" style="fill:#262626;"/></g></g></g></g><g id="Layer_1"/></svg>