<?xml version="1.0" ?><!DOCTYPE svg  PUBLIC '-//W3C//DTD SVG 1.1//EN'  'http://www.w3.org/Graphics/SVG/1.1/DTD/svg11.dtd'><svg height="512px" style="enable-background:new 0 0 512 512;" version="1.1" viewBox="0 0 512 512" width="512px" xml:space="preserve" xmlns="http://www.w3.org/2000/svg" xmlns:xlink="http://www.w3.org/1999/xlink"><g id="comp_x5F_212-medrt"><g><g><g><path d="M122.141,256c0,102.99,70.942,188.39,163.614,203.865c-15.812,3.803-32.299,5.834-49.21,5.834      c-116.35,0-210.544-93.857-210.544-209.699c0-115.842,94.194-209.699,210.46-209.699c16.995,0,33.482,2.029,49.21,5.834      C192.999,67.609,122.141,153.011,122.141,256 M373.61,340.811c-65.7,46.844-151.863,40.162-203.272-12.346      c4.65,11.924,10.739,23.422,18.349,34.246c52.086,74.576,154.229,92.418,228.049,39.742      c73.815-52.678,91.403-155.839,39.316-230.502c-7.609-10.907-16.319-20.546-25.79-28.918      C461.887,209.664,439.31,293.965,373.61,340.811 M188.602,134.494c-1.184,0.845-2.282,1.776-3.382,2.62      c54.369-15.05,114.909,3.383,151.27,51.157c30.187,39.742,36.274,90.136,20.633,133.599      c47.943-47.521,57.159-120.154,18.855-170.635C333.7,95.851,249.904,88.325,188.602,134.494 M276.286,228.942      c-3.722,0-6.765-3.043-6.765-6.764v-33.822c0-3.72-3.044-6.765-6.765-6.765h-40.586c-3.721,0-6.764,3.045-6.764,6.765v33.822      c0,3.721-3.046,6.764-6.766,6.764h-33.822c-3.721,0-6.765,3.044-6.765,6.764v40.587c0,3.723,3.044,6.764,6.765,6.764h33.822      c3.72,0,6.766,3.047,6.766,6.766v33.824c0,3.719,3.043,6.764,6.764,6.764h40.586c3.721,0,6.765-3.045,6.765-6.764v-33.824      c0-3.719,3.043-6.766,6.765-6.766h33.822c3.72,0,6.765-3.041,6.765-6.764v-40.587c0-3.719-3.045-6.764-6.765-6.764H276.286z" style="fill:#101111;"/><path d="M236.545,475.699c-58.931,0-114.319-22.844-155.96-64.324C38.937,369.89,16.001,314.71,16.001,256      c0-58.705,22.932-113.884,64.572-155.375c41.63-41.48,96.993-64.325,155.888-64.325c17.443,0,34.791,2.057,51.562,6.115      c4.618,1.118,7.813,5.331,7.642,10.08c-0.171,4.749-3.659,8.721-8.347,9.503C197.402,77.012,132.141,158.602,132.141,256      c0,95.819,66.748,179.221,155.262,194.001c4.688,0.783,8.179,4.759,8.347,9.511c0.167,4.751-3.033,8.964-7.656,10.075      C271.232,473.644,253.889,475.699,236.545,475.699z M236.461,56.301c-110.534,0-200.46,89.585-200.46,199.699      c0,110.115,89.964,199.699,200.544,199.699c0.312,0,0.625-0.001,0.936-0.002c-29.052-12.896-55.177-32.903-76.052-58.647      c-31.784-39.197-49.288-89.29-49.288-141.049c0-51.765,17.488-101.856,49.244-141.046      c20.862-25.747,46.976-45.755,76.021-58.651C237.09,56.302,236.775,56.301,236.461,56.301z M322.539,442.725      c-56.459,0-109.563-27.771-142.051-74.288c-7.885-11.216-14.44-23.45-19.467-36.338c-1.727-4.427-0.1-9.457,3.892-12.035      c3.992-2.576,9.246-1.99,12.57,1.405c25.738,26.289,61.085,40.767,99.529,40.767c32.268,0,63.663-10.224,90.792-29.567      c61.213-43.646,83.681-121.597,53.423-185.347c-2.036-4.292-0.773-9.423,3.022-12.279c3.794-2.855,9.077-2.647,12.635,0.499      c10.314,9.118,19.522,19.443,27.368,30.689c26.705,38.28,37.079,84.767,29.212,130.898      c-7.87,46.148-33.058,86.444-70.921,113.465C393.085,431.614,358.504,442.725,322.539,442.725z M202.475,364.491      c29.047,36.635,73.257,58.233,120.064,58.233c31.775,0,62.34-9.824,88.388-28.411c66.66-47.571,84.489-139.446,42.092-208.737      c2.844,21.822,1.228,44.445-4.958,66.469c-10.863,38.674-35.241,73.089-68.645,96.908      c-30.538,21.773-65.949,33.282-102.403,33.282C250.335,382.235,224.93,376.091,202.475,364.491z M262.757,340.41h-40.586      c-9.244,0-16.764-7.521-16.764-16.764v-30.59h-30.588c-9.244,0-16.765-7.521-16.765-16.764v-40.587      c0-9.244,7.521-16.764,16.765-16.764h30.588v-30.586c0-9.244,7.52-16.765,16.764-16.765h40.586      c9.244,0,16.765,7.521,16.765,16.765v30.586h30.587c9.244,0,16.765,7.52,16.765,16.764v40.587      c0,9.243-7.521,16.764-16.765,16.764h-30.587v30.59C279.521,332.89,272.001,340.41,262.757,340.41z M225.407,320.41h34.114      v-30.588c0-9.244,7.521-16.766,16.765-16.766h30.587v-34.115h-30.587c-9.244,0-16.765-7.521-16.765-16.764v-30.587h-34.114      v30.587c0,9.244-7.521,16.764-16.766,16.764h-30.587v34.115h30.587c9.245,0,16.766,7.521,16.766,16.766V320.41z       M357.119,331.869c-1.855,0-3.721-0.515-5.373-1.568c-3.941-2.513-5.616-7.42-4.033-11.817      c15.123-42.021,7.95-88.438-19.187-124.164c-25.309-33.252-63.771-52.327-105.523-52.327c-11.893,0-23.708,1.601-35.116,4.759      c-4.612,1.276-9.482-0.893-11.618-5.177c-2.135-4.283-0.936-9.478,2.86-12.393c0.352-0.271,0.704-0.551,1.06-0.834      c0.737-0.587,1.568-1.25,2.493-1.915c27.61-20.761,61.181-32.193,94.546-32.193c43.103,0,81.992,18.562,106.698,50.927      c19.991,26.348,28.828,59.595,24.899,93.642c-3.855,33.416-19.718,65.436-44.664,90.164      C362.234,330.882,359.688,331.869,357.119,331.869z M232.027,122.251c44.538,2.568,85.124,24.099,112.419,59.962      c21.779,28.673,32.39,63.331,30.928,98.091c20.72-40.401,19.041-88.228-7.363-123.026      c-20.872-27.344-53.968-43.039-90.782-43.039C261.97,114.24,246.643,116.999,232.027,122.251z"/></g></g></g></g><g id="Layer_1"/></svg>