<?xml version="1.0" ?><!DOCTYPE svg  PUBLIC '-//W3C//DTD SVG 1.1//EN'  'http://www.w3.org/Graphics/SVG/1.1/DTD/svg11.dtd'><svg height="512px" style="enable-background:new 0 0 512 512;" version="1.1" viewBox="0 0 512 512" width="512px" xml:space="preserve" xmlns="http://www.w3.org/2000/svg" xmlns:xlink="http://www.w3.org/1999/xlink"><g id="comp_x5F_216-microsoft"><g><g><g><rect height="200.646" style="fill:#F25022;" width="200.646" x="40.001" y="40"/><g><path d="M240.646,250.647H40.001c-5.523,0-10-4.477-10-10V40c0-5.523,4.477-10,10-10h200.646c5.523,0,10,4.477,10,10v200.646       C250.646,246.17,246.169,250.647,240.646,250.647z M50.001,230.647h180.646V50H50.001V230.647z"/></g></g><g><rect height="200.646" style="fill:#7FBA00;" width="202.564" x="269.435" y="40"/><g><path d="M471.999,250.647H269.435c-5.522,0-10-4.477-10-10V40c0-5.523,4.478-10,10-10h202.564c5.522,0,10,4.477,10,10v200.646       C481.999,246.17,477.521,250.647,471.999,250.647z M279.435,230.647h182.564V50H279.435V230.647z"/></g></g><g><rect height="202.564" style="fill:#00A4EF;" width="200.646" x="40.001" y="269.436"/><g><path d="M240.646,482H40.001c-5.523,0-10-4.478-10-10V269.436c0-5.522,4.477-10,10-10h200.646c5.523,0,10,4.478,10,10V472       C250.646,477.522,246.169,482,240.646,482z M50.001,462h180.646V279.436H50.001V462z"/></g></g><g><rect height="202.564" style="fill:#FFB900;" width="202.564" x="269.435" y="269.436"/><g><path d="M471.999,482H269.435c-5.522,0-10-4.478-10-10V269.436c0-5.522,4.478-10,10-10h202.564c5.522,0,10,4.478,10,10V472       C481.999,477.522,477.521,482,471.999,482z M279.435,462h182.564V279.436H279.435V462z"/></g></g></g></g></g><g id="Layer_1"/></svg>