<?xml version="1.0" ?><!DOCTYPE svg  PUBLIC '-//W3C//DTD SVG 1.1//EN'  'http://www.w3.org/Graphics/SVG/1.1/DTD/svg11.dtd'><svg height="512px" style="enable-background:new 0 0 512 512;" version="1.1" viewBox="0 0 512 512" width="512px" xml:space="preserve" xmlns="http://www.w3.org/2000/svg" xmlns:xlink="http://www.w3.org/1999/xlink"><g id="comp_x5F_217-mix"><g><g><g><path d="M26.001,413.116c0,57.705,90.357,59.656,90.357,0V249.786      c-24.776,24.367-55.756,42.436-90.357,51.626V413.116z" style="fill:#DE1C1C;"/><g><path d="M71.744,467.13C71.743,467.13,71.744,467.13,71.744,467.13c-27.701,0-55.743-18.554-55.743-54.014V301.412       c0-4.534,3.051-8.501,7.433-9.665c32.262-8.568,61.97-25.544,85.913-49.091c2.873-2.824,7.16-3.651,10.877-2.093       c3.716,1.558,6.135,5.193,6.135,9.223v163.331c0,16.666-5.991,30.715-17.325,40.627       C99.164,462.375,85.919,467.13,71.744,467.13z M36.001,308.956v104.16c0,23.369,18.528,34.014,35.742,34.014       c9.333,0,17.9-2.998,24.125-8.441c6.961-6.088,10.491-14.691,10.491-25.572v-141.16       C85.424,288.573,61.519,301.165,36.001,308.956z"/></g></g><g><path d="M395.644,240v24.44c0,61.503,90.355,58.114,90.355,0V54.871h-81.826      c-56.029,35.073-93.776,96.639-95.668,167.157C325.131,180.27,395.644,186.85,395.644,240z" style="fill:#FFD41F;"/><g><path d="M439.862,319.305c-26.113,0-54.219-17.169-54.219-54.865V240c0-24.296-17.601-35.171-35.043-35.171       c-11.836,0-26.67,5.49-32.805,20.898c-1.793,4.503-6.56,7.074-11.306,6.096c-4.748-0.977-8.111-5.218-7.981-10.063       c1.922-71.675,39.439-137.232,100.358-175.365c1.591-0.996,3.429-1.524,5.306-1.524h81.826c5.522,0,10,4.477,10,10v209.569       c0,16.659-6.197,30.848-17.921,41.032C467.81,314.393,454.237,319.305,439.862,319.305z M350.601,184.829       c27.353,0,55.043,18.951,55.043,55.171v24.44c0,25.734,18.434,34.865,34.219,34.865c17.404,0,36.137-10.91,36.137-34.865       V64.871h-68.916c-45.334,29.295-75.934,75.527-85.479,127.642C330.072,187.58,340.028,184.829,350.601,184.829z"/></g></g><g><path d="M171.099,54.871H26.001v246.542c34.602-9.19,65.581-27.26,90.357-51.626v-81.662      c4.753-31.829,34.961-44.115,59.161-37.083c17.097,4.968,31.196,19.571,31.196,43.759v179.994c0,59.453,98.57,59.556,98.57,0      V235.584c0.482-4.981,1.601-9.493,3.219-13.557c1.892-70.519,39.639-132.084,95.668-167.157H171.099z" style="fill:#FF8226;"/><g><path d="M256.038,409.421c-0.002,0-0.004,0-0.005,0c-29.477-0.002-59.316-18.768-59.316-54.628V174.799       c0-24.537-16.774-32.061-23.986-34.156c-3.474-1.009-7.113-1.521-10.815-1.521c-14.204,0-31.932,7.818-35.556,29.78v80.883       c0,2.681-1.077,5.25-2.988,7.13c-26.412,25.975-59.193,44.704-94.802,54.162c-2.998,0.797-6.202,0.155-8.663-1.738       c-2.461-1.893-3.904-4.821-3.904-7.927V54.871c0-5.523,4.477-10,10-10h378.172c4.46,0,8.381,2.953,9.611,7.24       c1.231,4.287-0.525,8.87-4.306,11.236c-55.225,34.569-89.234,93.99-90.978,158.949c-0.031,1.177-0.271,2.338-0.706,3.432       c-1.27,3.188-2.113,6.673-2.509,10.365v118.701c0,16.925-6.61,31.194-19.117,41.266       C285.469,404.676,271.217,409.421,256.038,409.421z M161.914,119.122c5.592,0,11.108,0.779,16.396,2.315       c23.69,6.884,38.406,27.331,38.406,53.362v179.994c0,23.919,19.747,34.627,39.318,34.628c0,0,0.003,0,0.004,0       c10.478,0,20.533-3.258,27.587-8.938c7.737-6.231,11.661-14.875,11.661-25.689V235.584c0-0.322,0.016-0.644,0.047-0.964       c0.493-5.094,1.578-9.986,3.229-14.568c2.102-60.515,29.574-116.53,75.056-155.182H36.001v223.071       c26.097-8.891,50.156-23.374,70.357-42.409v-77.409c0-0.494,0.037-0.988,0.11-1.477c2.199-14.729,9.182-27.063,20.192-35.668       C136.443,123.333,148.963,119.122,161.914,119.122z"/></g></g></g></g></g><g id="Layer_1"/></svg>