<?xml version="1.0" ?><!DOCTYPE svg  PUBLIC '-//W3C//DTD SVG 1.1//EN'  'http://www.w3.org/Graphics/SVG/1.1/DTD/svg11.dtd'><svg height="512px" style="enable-background:new 0 0 512 512;" version="1.1" viewBox="0 0 512 512" width="512px" xml:space="preserve" xmlns="http://www.w3.org/2000/svg" xmlns:xlink="http://www.w3.org/1999/xlink"><g id="comp_x5F_229-Neva"><g><g><g><path d="M192.482,135.771c-4.098,13.781-7.621,24.403-10.468,34.96      c-18.141,66.464-36.242,133.253-54.369,199.706c-5.398,19.626-18.122,31.817-39.411,38.519      c0.974-5.136,0.974-8.657,1.899-12.188c27.676-101.117,55.302-201.955,83.595-302.426c1.602-5.75,7.652-14.461,11.76-14.129      c9.888,0,21.318-2.57,27.04,12.854c33.99,91.156,69.278,181.717,104.234,272.564c0.996,2.567,2.229,5.123,4.778,11.232      c3.511-12.486,6.364-21.494,8.913-30.501c18.745-68.031,37.821-136.424,56.254-204.503      c5.401-19.891,17.469-32.091,40.041-38.522c-2.214,8.669-3.488,15.078-5.063,21.188      c-26.433,96.67-52.477,193.267-78.849,289.927c-1.91,7.064-0.317,18.257-13.688,17.642      c-12.081-0.636-20.939-0.956-26.989-16.387c-33.363-87.64-67.719-174.323-101.711-260.981      C198.201,149.552,195.994,144.428,192.482,135.771L192.482,135.771z" style="fill:#007E0E;"/><path d="M330.182,442.118c-0.482,0-0.979-0.012-1.492-0.035l-0.407-0.021      c-12.697-0.666-27.088-1.422-35.432-22.704c-26.542-69.72-54.112-139.854-80.773-207.678      c-6.062-15.42-12.12-30.832-18.168-46.243c-0.791,2.678-1.536,5.288-2.24,7.899c-9.507,34.831-18.995,69.722-28.481,104.608      c-8.63,31.736-17.26,63.469-25.895,95.125c-6.269,22.791-21.332,37.644-46.056,45.426c-3.354,1.054-7.018,0.272-9.646-2.065      c-2.629-2.336-3.837-5.882-3.181-9.337c0.383-2.019,0.597-3.801,0.804-5.524c0.281-2.34,0.572-4.758,1.246-7.334      c0.009-0.035,0.019-0.07,0.029-0.105c25.489-93.126,54.378-198.676,83.615-302.497c1.864-6.694,9.792-21.428,21.154-21.428      c0.158,0,0.316,0.003,0.473,0.009c1.044-0.005,2.106-0.04,3.177-0.074c1.385-0.044,2.78-0.086,4.171-0.086      c9.264,0,22.33,2.025,28.826,19.538c26.331,70.616,53.923,142.121,80.606,211.272c5.85,15.159,11.701,30.322,17.545,45.491      c0.263-0.909,0.521-1.813,0.776-2.713c5.479-19.889,11.007-39.875,16.537-59.876c13.11-47.408,26.667-96.431,39.687-144.518      c6.456-23.775,21.375-38.239,46.953-45.526c3.444-0.98,7.147-0.046,9.713,2.449c2.566,2.497,3.603,6.174,2.717,9.642      c-1.148,4.497-2.021,8.301-2.866,11.981c-0.737,3.21-1.434,6.242-2.203,9.229c-0.013,0.047-0.024,0.094-0.038,0.141      c-14.337,52.435-28.8,105.731-42.786,157.272c-11.796,43.471-23.994,88.422-36.061,132.649c-0.228,0.841-0.423,2.107-0.63,3.448      C350.942,426.437,348.521,442.118,330.182,442.118z M192.485,125.771c4.053,0,7.728,2.455,9.264,6.241      c3.448,8.5,5.605,13.511,7.872,18.729c0.048,0.11,0.094,0.221,0.138,0.333c6.966,17.759,13.947,35.519,20.932,53.288      c26.682,67.875,54.271,138.06,80.815,207.788c3.604,9.193,6.335,9.337,17.824,9.94l0.345,0.018      c0.131,0.006,0.322,0.011,0.507,0.011c0.435,0,0.756-0.026,0.982-0.056c0.381-1.062,0.714-3.216,0.925-4.583      c0.281-1.821,0.572-3.704,1.095-5.638c12.069-44.236,24.266-89.181,36.06-132.645c13.983-51.528,28.441-104.809,42.777-157.241      c0.116-0.45,0.23-0.905,0.345-1.365c-8.07,5.556-13.115,13.242-16.007,23.889c-13.031,48.132-26.596,97.181-39.713,144.615      c-5.528,19.994-11.054,39.975-16.551,59.924c-1.172,4.142-2.387,8.218-3.673,12.533c-1.636,5.488-3.327,11.164-5.254,18.019      c-1.152,4.098-4.772,7.017-9.021,7.274c-4.252,0.265-8.196-2.201-9.835-6.13c-1.223-2.929-2.136-5.023-2.864-6.693      c-0.797-1.828-1.426-3.272-2.009-4.773c-7.858-20.424-15.724-40.808-23.588-61.187      c-26.703-69.203-54.316-140.762-80.693-211.501c-2.217-5.977-4.401-6.509-10.08-6.509c-1.18,0-2.364,0.039-3.539,0.076      c-0.733,0.023-1.464,0.046-2.189,0.062c-1.359,1.471-3.362,4.586-3.988,6.834c-28.4,100.852-56.473,203.337-81.418,294.474      c8.085-5.715,13.227-13.414,16.06-23.714c8.628-31.63,17.256-63.357,25.885-95.09c9.488-34.891,18.978-69.789,28.479-104.597      c1.809-6.708,3.827-13.251,6.163-20.828c1.392-4.516,2.832-9.187,4.368-14.35c1.21-4.071,4.861-6.934,9.104-7.138      C192.163,125.775,192.324,125.771,192.485,125.771z" style="fill:#005F0B;"/></g><g><path d="M145.559,79.882c-4.456,16.391-8.258,30.193-12.09,43.995      c-24.132,87.993-48.635,176.272-72.781,264.245c-6.39,23.434-6.688,23.434-32.123,16.698      c17.5-63.592,34.662-127.18,52.158-190.702c8.568-31.497,17.48-62.944,25.748-94.718      C111.557,100.136,122.646,86.641,145.559,79.882L145.559,79.882z" style="fill:#007E0E;"/><path d="M47.338,418.701c-5.418,0-11.75-1.677-21.333-4.214c-2.58-0.684-4.78-2.369-6.11-4.684      c-1.33-2.313-1.68-5.063-0.972-7.637c8.55-31.071,17.162-62.663,25.491-93.215c8.711-31.958,17.72-65.003,26.667-97.489      c2.802-10.301,5.649-20.626,8.499-30.959c5.738-20.81,11.672-42.328,17.212-63.622c6.368-24.122,21.391-39.351,45.937-46.591      c3.475-1.027,7.234-0.09,9.824,2.445s3.605,6.272,2.655,9.77c-4.056,14.92-7.789,28.505-12.104,44.047      c-12.469,45.466-25.254,91.796-37.619,136.601c-11.55,41.852-23.493,85.129-35.154,127.615      C66.078,406.368,62.715,418.701,47.338,418.701z M40.907,397.653c2.53,0.586,4.577,0.969,5.997,1.037      c1.185-2.371,2.804-8.311,4.137-13.199c11.669-42.517,23.614-85.8,35.166-127.658c12.362-44.797,25.146-91.119,37.619-136.601      c2.199-7.92,4.245-15.325,6.258-22.653c-6.819,5.582-11.245,13.149-13.943,23.373c-5.568,21.399-11.521,42.989-17.278,63.867      c-2.843,10.311-5.685,20.614-8.489,30.923c-8.949,32.491-17.954,65.524-26.662,97.469      C56.254,341.563,48.572,369.746,40.907,397.653z" style="fill:#005F0B;"/></g><g><path d="M483.435,105.597c-15.888,58.457-31.454,115.595-47.036,173.05      c-10.468,38.839-21.291,77.35-32.072,116.211c-4.822,17.334-15.602,29.212-36.272,35.283      c8.275-31.138,15.896-59.386,23.512-87.288c19.698-71.938,39.435-144.168,59.128-216.077      C457.067,103.032,457.067,103.032,483.435,105.597L483.435,105.597z" style="fill:#007E0E;"/><path d="M368.055,440.141c-2.571,0-5.086-0.992-6.979-2.838c-2.587-2.521-3.613-6.24-2.686-9.73      c7.783-29.287,15.479-57.86,23.528-87.353c9.484-34.636,18.975-69.33,28.465-104.024      c10.226-37.383,20.452-74.765,30.666-112.061c4.787-17.835,7.959-29.649,27.163-29.649c4.276,0,9.274,0.486,16.19,1.159      c2.932,0.285,5.588,1.848,7.262,4.272c1.673,2.424,2.193,5.462,1.421,8.304c-5.5,20.233-10.96,40.309-16.396,60.294      c-10.269,37.753-20.45,75.184-30.639,112.75c-7.983,29.62-16.324,59.593-24.39,88.578c-2.565,9.216-5.133,18.442-7.698,27.688      c-6.024,21.655-20.118,35.458-43.09,42.205C369.943,440.008,368.995,440.141,368.055,440.141z M465.058,114.734      c-1.238,1.718-3,8.28-4.706,14.635c-10.227,37.342-20.452,74.723-30.678,112.104c-9.49,34.696-18.981,69.392-28.464,104.021      c-6.058,22.195-11.915,43.872-17.763,65.729c5.4-4.75,8.992-10.947,11.245-19.045c2.564-9.244,5.134-18.476,7.699-27.697      c8.056-28.946,16.386-58.88,24.352-88.436c10.193-37.586,20.376-75.022,30.646-112.78c4.397-16.167,8.812-32.392,13.248-48.713      c-0.882-0.042-1.691-0.065-2.426-0.065C466.323,114.485,465.418,114.644,465.058,114.734z" style="fill:#005F0B;"/></g></g></g></g><g id="Layer_1"/></svg>