<?xml version="1.0" ?><!DOCTYPE svg  PUBLIC '-//W3C//DTD SVG 1.1//EN'  'http://www.w3.org/Graphics/SVG/1.1/DTD/svg11.dtd'><svg height="512px" style="enable-background:new 0 0 512 512;" version="1.1" viewBox="0 0 512 512" width="512px" xml:space="preserve" xmlns="http://www.w3.org/2000/svg" xmlns:xlink="http://www.w3.org/1999/xlink"><g id="comp_x5F_237-office"><g><g><g id="_x37_6-office_8_"><g><g><g><g><path d="M313.342,26.001L55.296,126.627v273.124l86.011-28.754V141.001l172.035-28.75v317.512          L55.296,399.751l258.046,86.248l143.362-43.128V69.126L313.342,26.001z" style="fill:#EB3C00;"/><path d="M313.342,495.999c-1.071,0-2.142-0.172-3.17-0.516l-257.994-86.23          c-0.181-0.06-0.361-0.124-0.539-0.194c-2.022-0.793-3.663-2.19-4.769-3.922c0-0.001,0-0.001,0-0.001          c-0.002-0.004-0.005-0.008-0.007-0.012c-0.001-0.002-0.003-0.004-0.004-0.006c0-0.001-0.001-0.002-0.002-0.003          c-0.157-0.247-0.304-0.502-0.438-0.762c-0.001-0.002-0.002-0.005-0.004-0.007c0-0.002-0.001-0.004-0.002-0.006          c-0.748-1.446-1.145-3.076-1.116-4.756V126.627c0-4.121,2.528-7.82,6.367-9.317L309.709,16.685          c2.081-0.813,4.373-0.903,6.514-0.26L459.585,59.55c4.226,1.271,7.119,5.163,7.119,9.576v373.745          c0,4.413-2.894,8.305-7.119,9.576l-143.362,43.128C315.282,495.857,314.312,495.999,313.342,495.999z M149.873,420.818          l163.628,54.69l133.203-40.072V76.561L313.763,36.57L65.296,133.461v252.403l66.011-22.068V141.001          c0-4.887,3.532-9.058,8.352-9.863l172.035-28.75c2.899-0.488,5.866,0.331,8.11,2.232c2.244,1.9,3.538,4.691,3.538,7.631          v317.512c0,2.854-1.219,5.571-3.35,7.469c-2.131,1.896-4.971,2.796-7.806,2.464L149.873,420.818z M101.037,395.004          l202.305,23.528V124.061l-152.035,25.408v221.528c0,4.301-2.75,8.12-6.83,9.484L101.037,395.004z" style="fill:#B02D00;"/></g></g></g></g></g></g></g></g><g id="Layer_1"/></svg>