<?xml version="1.0" ?><!DOCTYPE svg  PUBLIC '-//W3C//DTD SVG 1.1//EN'  'http://www.w3.org/Graphics/SVG/1.1/DTD/svg11.dtd'><svg height="512px" style="enable-background:new 0 0 512 512;" version="1.1" viewBox="0 0 512 512" width="512px" xml:space="preserve" xmlns="http://www.w3.org/2000/svg" xmlns:xlink="http://www.w3.org/1999/xlink"><g id="comp_x5F_242-osi"><g><g><path d="M36.345,265.569c2.038-120.324,86.3-205.916,189.434-219.825     c122.98-16.481,226.47,67.161,246.317,178.181c18.872,105.261-38.986,203.788-134.325,242.773     c-8.237,3.367-12.757,1.506-15.947-6.821c-15.771-41.024-31.541-82.136-47.313-123.159c-2.746-7.176-0.887-11.697,6.203-14.886     c21.44-9.746,34.82-26.05,38.364-49.439c5.67-37.569-21.708-69.732-57.148-72.833c-34.555-3.013-63.618,20.999-68.667,52.896     c-4.607,29.239,9.834,56.44,37.125,68.845c8.506,3.897,10.189,7.62,6.911,16.304c-15.86,41.286-31.72,82.577-47.58,123.957     c-2.303,6.112-7.354,8.238-13.733,5.758c-46.605-17.987-89.845-54.049-115.894-105.438     C38.029,318.288,37.764,284.175,36.345,265.569z" style="fill:#3DA639;"/><path d="M180.905,478.334c-2.779,0-5.653-0.57-8.544-1.694c-52.352-20.205-95.399-59.358-121.189-110.237     c-20.938-41.372-23.118-74.69-24.421-94.598c-0.128-1.953-0.247-3.779-0.376-5.475c-0.023-0.31-0.033-0.62-0.027-0.93     c1.018-60.07,21.543-114.126,59.357-156.323c35.846-40,85.117-66.012,138.739-73.244c10.732-1.438,21.565-2.167,32.208-2.167     c111.016,0,205.764,79.275,225.29,188.499c19.314,107.728-38.413,212.091-140.384,253.789c-3.838,1.568-7.257,2.331-10.455,2.331     c-5.9,0.001-13.919-2.572-18.615-14.83c-7.61-19.796-15.224-39.622-22.838-59.449c-8.156-21.24-16.313-42.481-24.472-63.699     c-4.66-12.179-0.49-22.231,11.436-27.595c18.953-8.615,29.621-22.3,32.579-41.817c2.247-14.894-1.551-29.498-10.696-41.116     c-9.124-11.591-22.769-18.974-37.438-20.258c-1.652-0.144-3.325-0.217-4.969-0.217c-26.58,0-48.848,18.806-52.949,44.715     c-3.922,24.889,8.397,47.728,31.386,58.178c13.418,6.147,17.263,15.34,12.128,28.939     c-15.879,41.338-31.739,82.626-47.598,124.004C195.951,473.382,189.158,478.334,180.905,478.334z M46.352,265.282     c0.121,1.628,0.235,3.367,0.356,5.217c1.28,19.57,3.216,49.146,22.305,86.866c23.548,46.456,62.817,82.194,110.572,100.625     c0.28,0.108,0.512,0.183,0.7,0.233c0.024-0.058,0.049-0.12,0.075-0.188c15.881-41.436,31.742-82.729,47.603-124.018     c0.398-1.056,0.62-1.811,0.744-2.326c-0.494-0.311-1.277-0.747-2.485-1.301c-31.373-14.261-48.199-45.469-42.837-79.493     c5.65-35.694,36.226-61.595,72.704-61.595c2.221,0,4.479,0.099,6.71,0.293c20.148,1.763,38.887,11.9,51.412,27.812     c12.597,16.002,17.837,36.059,14.755,56.476c-3.938,25.997-19.192,45.723-44.113,57.051c-0.686,0.308-1.151,0.57-1.457,0.766     c0.076,0.334,0.212,0.808,0.455,1.442c8.152,21.206,16.311,42.449,24.469,63.692c7.613,19.825,15.226,39.649,22.839,59.453     c0.325,0.849,0.606,1.439,0.825,1.841c0.46-0.118,1.116-0.325,2.004-0.688C427.143,419.35,479.889,324.05,462.254,225.69     C444.434,126.011,357.965,53.667,256.65,53.667c-9.757,0-19.697,0.669-29.543,1.989     C122.683,69.739,48.409,155.912,46.352,265.282z" style="fill:#2E7D2B;"/></g></g></g><g id="Layer_1"/></svg>