<?xml version="1.0" ?><!DOCTYPE svg  PUBLIC '-//W3C//DTD SVG 1.1//EN'  'http://www.w3.org/Graphics/SVG/1.1/DTD/svg11.dtd'><svg height="512px" style="enable-background:new 0 0 512 512;" version="1.1" viewBox="0 0 512 512" width="512px" xml:space="preserve" xmlns="http://www.w3.org/2000/svg" xmlns:xlink="http://www.w3.org/1999/xlink"><g id="comp_x5F_249-paypal_x2C__Credit_card"><g><g><g><path d="M426.152,431H85.848C55.556,431,31,406.443,31,376.152V135.848C31,105.556,55.556,81,85.848,81      h340.305C456.443,81,481,105.556,481,135.848v240.305C481,406.443,456.443,431,426.152,431z" style="fill:#019BE1;"/><g><path d="M426.152,441H85.848C50.091,441,21,411.909,21,376.152V135.848C21,100.091,50.091,71,85.848,71       h340.305C461.909,71,491,100.091,491,135.848v240.305C491,411.909,461.909,441,426.152,441z M85.848,91       C61.119,91,41,111.119,41,135.848v240.305C41,400.882,61.119,421,85.848,421h340.305C450.882,421,471,400.882,471,376.152       V135.848C471,111.119,450.882,91,426.152,91H85.848z" style="fill:#0174A9;"/></g></g><g><path d="M423.509,231.604h-15.173c-3.036,0-3.195,4.392-3.435,6.549      c-4.392-6.788-11.18-7.986-18.926-7.986c-19.567,0-34.5,17.17-34.5,36.096c0,15.574,9.743,25.717,25.314,25.717      c7.428,0,16.373-3.913,21.164-9.504c-0.239,1.198-0.798,3.754-0.798,4.951c0,1.838,0.798,3.194,2.555,3.194h13.815      c2.156,0,3.993-2.316,4.394-4.551l8.146-51.351C426.306,233.201,425.107,231.604,423.509,231.604z M385.176,275.927      c-7.347,0-12.936-4.233-12.936-11.978c0-9.824,7.586-17.571,17.33-17.571c7.426,0,13.017,4.553,12.936,12.378      C402.506,268.579,394.759,275.927,385.176,275.927z" style="fill:#001F6A;"/></g><g><path d="M196.706,231.604h-15.174c-3.034,0-3.194,4.392-3.354,6.549      c-4.631-6.788-11.34-7.986-18.927-7.986c-19.566,0-34.499,17.17-34.499,36.096c0,15.574,9.743,25.717,25.315,25.717      c7.187,0,16.132-3.913,21.163-9.504c-0.398,1.198-0.797,3.754-0.797,4.951c0,1.838,0.797,3.194,2.555,3.194h13.734      c2.158,0,3.995-2.316,4.394-4.551l8.146-51.351C199.5,233.201,198.302,231.604,196.706,231.604z M158.212,275.927      c-7.346,0-12.777-4.152-12.777-11.978c0-9.745,7.587-17.571,17.329-17.571c7.428,0,13.018,4.553,13.018,12.378      C175.782,268.5,168.035,275.927,158.212,275.927z" style="fill:#001F6A;"/></g><g><path d="M101.75,202.215H69.807c-1.997,0-3.993,1.597-4.153,3.754l-13.098,81.537      c-0.24,1.6,0.959,3.195,2.556,3.195h15.173c2.156,0,4.152-2.315,4.393-4.553l3.592-21.243c0.8-5.749,10.542-3.753,14.376-3.753      c22.84,0,36.815-13.576,36.815-36.576C129.462,207.806,116.525,202.215,101.75,202.215z M105.265,231.924      c-1.598,10.143-8.386,11.34-17.169,11.34l-6.549,0.24l3.435-21.322c0.159-1.358,1.357-2.157,2.555-2.157h3.755      C100.313,220.024,107.102,221.222,105.265,231.924z" style="fill:#001F6A;"/></g><g><path d="M328.556,202.215H296.85c-2.155,0-4.151,1.597-4.393,3.754l-12.938,81.458      c-0.159,1.599,1.04,3.194,2.558,3.194h16.37c1.599,0,2.795-1.199,3.195-2.555l3.594-23.161      c0.799-5.749,10.541-3.753,14.373-3.753c22.683,0,36.657-13.576,36.657-36.576C356.267,207.806,343.329,202.215,328.556,202.215      z M314.979,243.264l-6.39,0.24l3.354-21.322c0.16-1.358,1.119-2.157,2.557-2.157h3.594c6.788,0,14.374,0.4,14.454,8.865      C332.548,240.868,325.36,243.264,314.979,243.264z" style="fill:#001F6A;"/></g><path d="M229.048,309.788l50.872-73.951c0.399-0.399,0.399-0.798,0.399-1.357     c0-1.357-1.197-2.794-2.555-2.794h-15.336c-1.355,0-2.794,0.797-3.592,1.996l-21.163,31.146l-8.784-29.947     c-0.639-1.757-2.396-3.194-4.393-3.194h-14.934c-1.358,0-2.555,1.437-2.555,2.794c0,0.958,15.572,45.361,16.931,49.592     c-2.156,3.036-16.372,22.841-16.372,25.237c0,1.437,1.198,2.555,2.556,2.555h15.333     C226.893,311.785,228.25,310.984,229.048,309.788L229.048,309.788z" style="fill:#001F6A;"/><path d="M461.444,205.011c0-1.597-1.198-2.795-2.556-2.795h-14.775c-1.196,0-2.396,0.958-2.555,2.156     l-12.938,83.056l-0.238,0.398c0,1.439,1.198,2.796,2.793,2.796h13.179c1.997,0,3.992-2.316,4.152-4.551l12.938-80.82V205.011z" style="fill:#001F6A;"/></g></g></g><g id="Layer_1"/></svg>