<?xml version="1.0" ?><!DOCTYPE svg  PUBLIC '-//W3C//DTD SVG 1.1//EN'  'http://www.w3.org/Graphics/SVG/1.1/DTD/svg11.dtd'><svg height="512px" style="enable-background:new 0 0 512 512;" version="1.1" viewBox="0 0 512 512" width="512px" xml:space="preserve" xmlns="http://www.w3.org/2000/svg" xmlns:xlink="http://www.w3.org/1999/xlink"><g id="comp_x5F_365-vlc"><g><g><g><path d="M309.56,98.06l24.141,86.47c-19.24,6.02-47.12,9.63-77.701,9.63c-30.64,0-58.58-3.62-77.82-9.66      l23.73-86.52c15.77,2.69,34.48,4.18,54.09,4.18C275.39,102.16,293.91,100.7,309.56,98.06z" style="fill:#F8A03E;"/><path d="M256,204.16c-30.874,0-60.33-3.688-80.815-10.119c-5.134-1.612-8.072-6.997-6.649-12.186      l23.73-86.52c1.36-4.958,6.255-8.078,11.326-7.212C219.078,90.764,237.2,92.16,256,92.16c18.591,0,36.538-1.37,51.897-3.961      c5.045-0.851,9.919,2.244,11.295,7.172l24.141,86.47c1.452,5.203-1.49,10.62-6.646,12.233      C315.897,200.578,287.242,204.16,256,204.16z M190.468,177.503c17.858,4.266,41.104,6.657,65.532,6.657      c24.335,0,47.522-2.38,65.366-6.624l-19.061-68.273c-14.264,1.902-30.083,2.897-46.305,2.897c-16.412,0-32.4-1.016-46.799-2.957      L190.468,177.503z" style="fill:#2E2100;"/></g><g><path d="M374.91,332.17h34.01c5.78,0,11.07,3.271,13.67,8.46l61.16,122.66      c2.37,4.79,2.15,10.4-0.63,14.94c-2.82,4.51-7.74,7.27-13.03,7.27H41.91c-5.29,0-10.21-2.79-12.99-7.3      c-2.79-4.51-3.07-10.15-0.68-14.91l61.18-122.66c2.59-5.189,7.88-8.46,13.66-8.46h34.29l-3.09,11.34      c-0.31,1.23-0.62,2.76-0.62,3.99c0,44.77,109.8,46,122.34,46c12.541,0,122.331-1.23,122.331-46c0-1.23-0.3-2.76-0.601-3.99      l-3.09-11.34H374.91z" style="fill:#F8A447;"/><path d="M470.09,495.5H41.91c-8.681,0-16.92-4.618-21.502-12.053c-4.656-7.525-5.072-16.743-1.104-24.645      l61.168-122.637c4.309-8.634,12.972-13.996,22.608-13.996h34.29c3.116,0,6.055,1.453,7.946,3.93      c1.892,2.476,2.521,5.692,1.702,8.699l-3.063,11.238c-0.267,1.076-0.297,1.544-0.298,1.549      C143.66,373.913,210.842,383.5,256,383.5c45.151,0,112.323-9.587,112.331-35.996c0,0.001,0,0.001,0,0.001      c-0.003,0-0.041-0.477-0.286-1.503l-3.053-11.203c-0.819-3.007-0.189-6.224,1.702-8.699c1.892-2.477,4.83-3.93,7.946-3.93h34.28      c9.627,0,18.291,5.357,22.61,13.98l61.169,122.678c3.931,7.944,3.533,17.14-1.051,24.625      C486.912,491.026,478.872,495.5,470.09,495.5z M103.08,342.17c-2.006,0-3.812,1.121-4.712,2.926L37.188,467.754      c-0.838,1.669-0.746,3.599,0.235,5.185c0.977,1.586,2.693,2.562,4.486,2.562h428.18c1.843,0,3.545-0.962,4.552-2.572      c0.924-1.509,0.996-3.483,0.146-5.203l-61.146-122.633c-0.899-1.796-2.712-2.922-4.721-2.922h-21.237      c0.436,2.002,0.647,3.754,0.647,5.33c0,9.615-3.84,23.425-22.136,34.607c-10.36,6.333-24.604,11.373-42.333,14.98      C293.867,403.19,262.069,403.5,256,403.5s-37.87-0.31-67.866-6.412c-17.73-3.607-31.975-8.647-42.336-14.98      C127.5,370.925,123.66,357.115,123.66,347.5c0-1.58,0.217-3.332,0.661-5.33H103.08z" style="fill:#2E2100;"/></g><g><path d="M137.66,332.25l18.11-66.04c15.26,11.51,54.44,19.96,100.23,19.96      c46.02,0,85.35-8.53,100.451-20.13l18.46,66.13h-0.271l3.09,11.34c0.301,1.23,0.601,2.76,0.601,3.99      c0,44.77-109.79,46-122.331,46c-12.54,0-122.34-1.23-122.34-46c0-1.23,0.31-2.76,0.62-3.99l3.09-11.34L137.66,332.25z" style="fill:#F8A03E;"/><path d="M256,403.5c-6.07,0-37.87-0.31-67.866-6.412c-17.73-3.607-31.975-8.647-42.336-14.98      C127.5,370.925,123.66,357.115,123.66,347.5c0-1.863,0.302-3.968,0.923-6.434c0.016-0.063,0.032-0.124,0.048-0.186l3.09-11.34      c0.219-0.804,0.536-1.57,0.938-2.284l17.466-63.691c0.876-3.197,3.28-5.751,6.418-6.821c3.138-1.069,6.602-0.515,9.248,1.482      c11.458,8.642,45.827,17.943,94.208,17.943c48.677,0,83.036-9.362,94.359-18.061c2.634-2.023,6.102-2.608,9.254-1.556      c3.152,1.05,5.576,3.598,6.47,6.798l18.46,66.13c0.213,0.764,0.333,1.542,0.361,2.318l2.475,9.081      c0.022,0.085,0.045,0.169,0.065,0.255c0.597,2.44,0.887,4.522,0.887,6.364c0,9.615-3.84,23.425-22.136,34.607      c-10.36,6.333-24.604,11.373-42.333,14.98C293.867,403.19,262.069,403.5,256,403.5z M143.955,346.039      c-0.267,1.076-0.297,1.542-0.297,1.547C143.66,373.913,210.842,383.5,256,383.5c45.151,0,112.323-9.587,112.331-35.996      c0,0.001,0,0.001,0,0.001c-0.003,0-0.041-0.477-0.286-1.503l-3.053-11.203c-0.197-0.724-0.311-1.46-0.342-2.195l-14.4-51.584      c-21.114,9.396-55.916,15.15-94.25,15.15c-38.104,0-72.807-5.707-93.958-15.021l-14.738,53.746      c-0.218,0.793-0.53,1.549-0.926,2.254L143.955,346.039z" style="fill:#2E2100;"/></g><g><path d="M333.7,184.53l22.75,81.51C341.35,277.64,302.02,286.17,256,286.17      c-45.79,0-84.97-8.45-100.23-19.96l22.41-81.71c19.24,6.04,47.18,9.66,77.82,9.66C286.58,194.16,314.46,190.55,333.7,184.53z" style="fill:#F4F4F4;"/><g><path d="M256,296.17c-46.845,0-88.551-8.626-106.251-21.977c-3.271-2.466-4.706-6.678-3.623-10.628       l22.41-81.71c0.718-2.619,2.471-4.833,4.854-6.133c2.385-1.302,5.196-1.576,7.785-0.763       c18.626,5.848,45.899,9.201,74.825,9.201c28.848,0,56.081-3.344,74.714-9.174c2.581-0.808,5.383-0.535,7.761,0.757       c2.377,1.292,4.13,3.492,4.857,6.099l22.75,81.51c1.097,3.931-0.304,8.133-3.54,10.619       C344.986,287.456,303.166,296.17,256,296.17z M167.401,261.607c15.021,7.521,46.507,14.563,88.599,14.563       c42.358,0,73.874-7.089,88.804-14.661l-18.056-64.69c-19.564,4.76-44.223,7.342-70.749,7.342       c-26.155,0-51.294-2.647-70.822-7.367L167.401,261.607z" style="fill:#2E2100;"/></g></g><g><path d="M308.411,99.06c-15.412,2.64-33.649,4.1-52.745,4.1c-19.311,0-37.736-1.49-53.266-4.18      c-0.217-0.04-0.424-0.07-0.64-0.11l10.537-38.95c5.722-20.54,22.896-33.42,43.369-33.42s37.648,12.88,43.37,33.12l10.537,39.25      C309.189,98.94,308.805,99.01,308.411,99.06z" style="fill:#F4F4F4;"/><g><path d="M255.666,113.16c-19.621,0-38.63-1.496-54.973-4.327c-0.037-0.006-0.073-0.013-0.11-0.02       l-0.128-0.021c-0.171-0.028-0.341-0.057-0.516-0.089c-2.746-0.508-5.155-2.142-6.643-4.506       c-1.488-2.364-1.919-5.242-1.19-7.938l10.537-38.95C209.557,32.49,230.362,16.5,255.666,16.5       c25.254,0,46.056,15.858,52.993,40.4c0.012,0.042,0.023,0.085,0.035,0.127l10.537,39.25c0.725,2.7,0.286,5.579-1.209,7.941       c-1.494,2.362-3.909,3.99-6.659,4.49c-0.477,0.087-0.955,0.17-1.441,0.238C293.756,111.703,274.999,113.16,255.666,113.16z        M214.339,90.663c12.747,1.641,26.832,2.497,41.327,2.497c14.499,0,28.599-0.86,41.348-2.505l-7.618-28.376       C284.94,46.617,271.708,36.5,255.666,36.5c-16.324,0-29.251,10.002-33.736,26.104L214.339,90.663z" style="fill:#2E2100;"/></g></g></g></g></g><g id="Layer_1"/></svg>