<?xml version="1.0" ?><!DOCTYPE svg  PUBLIC '-//W3C//DTD SVG 1.1//EN'  'http://www.w3.org/Graphics/SVG/1.1/DTD/svg11.dtd'><svg height="512px" style="enable-background:new 0 0 512 512;" version="1.1" viewBox="0 0 512 512" width="512px" xml:space="preserve" xmlns="http://www.w3.org/2000/svg" xmlns:xlink="http://www.w3.org/1999/xlink"><g id="comp_x5F_139-get-pocket"><g><g><g><path d="M439.437,56.178H72.765c-22.08,0-40.563,18.484-40.563,40.564v135.079      c0,124.588,99.611,224,224,224c123.888,0,223.598-99.412,223.598-224V96.743C479.799,74.363,462.115,56.178,439.437,56.178z       M277.581,324.439c-12.39,11.789-31.371,11.088-42.361,0c-113.6-108.803-114.798-105.007-114.798-123.091      c0-16.885,13.788-30.672,30.674-30.672c16.983,0,16.084,3.796,105.105,89.22c90.518-86.822,88.52-89.22,105.404-89.22      c16.883,0,30.673,13.787,30.673,30.672C392.278,219.133,389.382,217.035,277.581,324.439L277.581,324.439z" style="fill:#F94877;"/><path d="M256.201,465.822c-62.852,0-121.704-24.223-165.715-68.206      c-44.034-44.008-68.285-102.888-68.285-165.794V96.743c0-13.35,5.302-26.005,14.931-35.633      c9.628-9.628,22.283-14.931,35.633-14.931h366.672c13.616,0,26.33,5.278,35.799,14.861c9.392,9.505,14.563,22.185,14.563,35.703      v135.079c0,62.874-24.245,121.752-68.269,165.791C377.559,441.599,318.844,465.822,256.201,465.822z M72.765,66.178      c-16.567,0-30.563,13.997-30.563,30.564v135.079c0,118,96,214,214,214c117.778,0,213.598-96,213.598-214V96.743      c0-17.139-13.337-30.564-30.362-30.564H72.765z M256.228,343.021c-10.547,0-20.748-4.169-28.012-11.442      c-24.268-23.243-43.238-41.188-58.485-55.61c-28.09-26.572-42.189-39.909-49.679-48.864      c-8.981-10.738-9.629-16.894-9.629-25.755c0-22.427,18.246-40.672,40.674-40.672c8.716,0,14.845,1.297,24.159,8.389      c8.06,6.137,19.085,16.88,41.052,38.285c10.667,10.395,23.629,23.024,39.897,38.679c15.653-15.053,28.289-27.333,38.7-37.45      c22.936-22.291,34.448-33.479,42.591-39.667c10.08-7.662,16.092-8.235,24.111-8.235c22.427,0,40.673,18.245,40.673,40.672      c0,9.699-1.462,15.761-10.124,26.046c-7.686,9.125-21.763,22.482-49.808,49.094c-15.111,14.339-33.919,32.185-57.838,55.162      C276.792,338.994,266.76,343.021,256.228,343.021z M151.096,180.677c-11.399,0-20.674,9.273-20.674,20.672      c0,9.719,0,9.904,53.053,60.09c15.285,14.459,34.309,32.454,58.662,55.779c0.063,0.06,0.125,0.12,0.185,0.182      c3.541,3.572,8.609,5.621,13.906,5.621c5.376,0,10.512-2.069,14.459-5.825c23.929-22.988,42.761-40.857,57.893-55.215      c53.698-50.953,53.698-51.5,53.698-60.632c0-11.398-9.273-20.672-20.673-20.672c-8.945,0-9.295,0-52.764,42.246      c-11.924,11.588-26.765,26.011-45.719,44.191c-3.868,3.711-9.976,3.712-13.846-0.001      c-19.628-18.835-34.766-33.585-46.929-45.438C160.273,180.677,159.755,180.677,151.096,180.677z" style="fill:#BB3659;"/></g></g></g></g><g id="Layer_1"/></svg>