<?xml version="1.0" ?><!DOCTYPE svg  PUBLIC '-//W3C//DTD SVG 1.1//EN'  'http://www.w3.org/Graphics/SVG/1.1/DTD/svg11.dtd'><svg height="512px" style="enable-background:new 0 0 512 512;" version="1.1" viewBox="0 0 512 512" width="512px" xml:space="preserve" xmlns="http://www.w3.org/2000/svg" xmlns:xlink="http://www.w3.org/1999/xlink"><g id="comp_x5F_286-rss"><g><g><g id="_x34_3-rss_9_"><g><g><g><path d="M166.255,405.984c0,33.134-26.786,59.988-59.835,59.988c-33.042,0-59.83-26.852-59.83-59.988         c0-33.139,26.787-59.994,59.83-59.994C139.469,345.992,166.255,372.846,166.255,405.984L166.255,405.984z" style="fill:#EF8321;"/><path d="M106.419,475.973c-38.504,0-69.83-31.396-69.83-69.988c0-38.595,31.325-69.994,69.83-69.994         c38.508,0.002,69.835,31.401,69.835,69.994C176.255,444.576,144.927,475.973,106.419,475.973z M106.419,355.99         c-27.476,0-49.829,22.428-49.829,49.994c0,27.563,22.354,49.988,49.83,49.988c27.479,0,49.835-22.425,49.835-49.988         C156.255,378.419,133.898,355.992,106.419,355.99z" style="fill:#B36219;"/></g><g><path d="M46.59,186.016v80.002c109.972,0,199.445,89.689,199.445,199.955h79.763         C325.798,311.616,200.54,186.016,46.59,186.016L46.59,186.016z" style="fill:#EF8321;"/><path d="M325.798,475.973h-79.763c-5.523,0-10-4.478-10-10c0-104.741-84.985-189.955-189.445-189.955         c-5.523,0-10-4.478-10-10v-80.002c0-5.523,4.477-10,10-10c159.47,0,289.208,130.074,289.208,289.957         C335.798,471.495,331.32,475.973,325.798,475.973z M255.801,455.973h59.814C310.479,315.059,197.106,201.377,56.59,196.199         v60.055C164.146,261.352,250.736,348.149,255.801,455.973z" style="fill:#B36219;"/></g><g><path d="M46.59,46.027v79.999c186.973,0,339.066,152.472,339.066,339.946h79.754         C465.41,234.406,277.539,46.027,46.59,46.027L46.59,46.027z" style="fill:#EF8321;"/><path d="M465.41,475.973h-79.754c-5.522,0-10-4.478-10-10c0-181.933-147.619-329.946-329.066-329.946         c-5.523,0-10-4.477-10-10V46.027c0-5.523,4.477-10,10-10c236.452,0,428.82,192.873,428.82,429.945         C475.41,471.495,470.933,475.973,465.41,475.973z M395.516,455.973h59.774C450.063,237.857,274.102,61.412,56.59,56.148         v60.02C241.141,121.404,390.311,270.952,395.516,455.973z" style="fill:#B36219;"/></g></g></g></g></g></g></g><g id="Layer_1"/></svg>