<?xml version="1.0" ?><!DOCTYPE svg  PUBLIC '-//W3C//DTD SVG 1.1//EN'  'http://www.w3.org/Graphics/SVG/1.1/DTD/svg11.dtd'><svg height="512px" style="enable-background:new 0 0 512 512;" version="1.1" viewBox="0 0 512 512" width="512px" xml:space="preserve" xmlns="http://www.w3.org/2000/svg" xmlns:xlink="http://www.w3.org/1999/xlink"><g id="comp_x5F_295-shazam"><g><g><g id="_x33_8-shazam_9_"><g><g><g><g><path d="M315.467,128.376c90.321-0.817,156.912,79.084,150.486,162.988          c-2.608,34.091-15.089,64.744-38.817,89.557c-28.979,30.261-58.935,59.706-88.729,89.352          c-10.854,10.693-24.145,13.534-38.23,7.88c-14.081-5.653-22.127-16.736-23.924-31.872          c-1.207-9.672,1.403-18.359,8.442-25.422c20.113-20.59,40.224-41.15,60.363-61.739c9.85-10.294,19.918-20.36,28.776-31.272          c20.314-24.809,23.147-52.456,9.459-80.895c-14.479-29.842-39.016-44.385-72.425-43.369          c-18.516,0.391-33.997,7.453-47.067,20.169c-12.686,12.315-25.359,24.999-38.436,36.93          c-12.675,11.502-29.172,12.709-43.058,4.019c-14.301-8.833-21.147-25.986-16.52-42.105c1.01-3.628,2.807-7.453,5.216-10.487          c18.517-22.192,38.041-43.376,62.161-59.521C258.134,135.633,286.096,127.781,315.467,128.376L315.467,128.376z" style="fill:#FFFFFF;"/><path d="M314.088,490.999c-5.807,0-11.741-1.2-17.637-3.566c-17.188-6.9-27.888-21.097-30.129-39.974          c-1.615-12.944,2.272-24.59,11.251-33.62c20.092-20.568,40.181-41.106,60.298-61.673c1.749-1.827,3.504-3.647,5.258-5.466          c8.191-8.494,15.929-16.517,22.942-25.156c17.572-21.46,20.326-45.086,8.212-70.255          c-12.322-25.396-32.009-37.756-60.17-37.756c-0.972,0-1.951,0.015-2.94,0.045c-15.557,0.329-28.741,6-40.397,17.341          c-3.154,3.062-6.299,6.139-9.45,9.221c-9.472,9.266-19.267,18.848-29.219,27.928c-8.89,8.067-19.503,12.321-30.714,12.321          c-8.416,0-16.849-2.494-24.389-7.213c-18.053-11.15-26.638-33.098-20.826-53.342c1.411-5.069,3.903-10.049,6.996-13.945          l0.154-0.189c18.061-21.646,38.347-44.068,64.277-61.424c25.322-17.195,53.861-25.932,84.771-25.932          c1.05,0,2.096,0.01,3.148,0.03c0.439-0.003,0.88-0.005,1.317-0.005c44.164,0,85.229,18.075,115.631,50.894          c31.029,33.497,46.868,78.279,43.453,122.864c-2.883,37.682-16.866,69.882-41.561,95.704          c-24.196,25.268-49.448,50.342-73.868,74.59c-5.013,4.978-10.025,9.955-15.034,14.939          C336.393,486.295,325.557,490.999,314.088,490.999z M314.113,193.533c35.573,0,62.606,16.962,78.178,49.054          c15.573,32.354,11.862,64.019-10.719,91.595c-7.525,9.271-15.925,17.979-24.048,26.402c-1.748,1.813-3.498,3.627-5.24,5.448          l-0.077,0.079c-20.138,20.588-40.247,41.146-60.358,61.734l-0.07,0.072c-4.629,4.644-6.461,10.245-5.603,17.124          c1.404,11.829,7.2,19.604,17.727,23.83c3.516,1.411,6.942,2.127,10.186,2.127c6.193,0,12.014-2.642,17.301-7.85          c4.979-4.954,9.997-9.938,15.015-14.919c24.332-24.162,49.492-49.146,73.51-74.226          c21.411-22.39,33.548-50.452,36.069-83.403c2.99-39.05-10.927-78.322-38.184-107.747          c-26.868-29.003-63.19-44.828-102.241-44.479l-0.146,0.001l-0.146-0.003c-0.967-0.02-1.927-0.029-2.891-0.029          c-26.829,0-51.589,7.575-73.59,22.515c-23.842,15.959-42.93,37.082-60.011,57.546c-1.42,1.817-2.639,4.314-3.35,6.87          c-3.371,11.743,1.63,24.424,12.141,30.916c4.468,2.796,9.104,4.197,13.829,4.197c6.159,0,12.125-2.46,17.254-7.113          c9.676-8.828,19.344-18.286,28.693-27.433c3.169-3.1,6.333-6.195,9.497-9.267c15.235-14.822,33.346-22.56,53.822-22.992          C311.759,193.551,312.94,193.533,314.113,193.533z" style="fill:#00588F;"/></g><g><path d="M195.326,383.365c-88.33,0.618-155.707-79.484-149.283-163.185          c2.609-32.88,14.08-62.752,36.41-86.749c28.161-30.258,57.95-59.117,87.122-88.367c3.228-3.236,6.846-5.85,10.659-8.271          c14.475-8.888,29.373-7.451,42.662,3.634c11.477,9.671,16.498,27.645,10.468,41.338c-2.219,5.264-6.452,9.901-10.468,14.121          c-25.161,25.825-50.486,51.642-75.451,77.462c-10.071,10.296-18.909,21.377-23.34,35.691          c-14.692,47.027,21.127,102.1,76.437,99.287c18.322-1.011,33.997-7.06,47.267-19.771          c12.679-12.324,25.166-24.811,38.429-36.932c12.681-11.503,28.163-13.107,41.845-5.231          c14.087,7.874,21.748,23.395,18.716,39.543c-1.01,5.033-3.226,10.492-6.455,14.314          c-18.511,22.001-38.229,43.179-62.154,59.518C253.279,376.701,225.087,383.168,195.326,383.365L195.326,383.365z" style="fill:#FFFFFF;"/><path d="M194.31,393.369c-43.389,0-84.031-18.082-114.44-50.914          c-31.246-33.736-47.21-78.582-43.798-123.04c2.926-36.875,16.067-68.087,39.06-92.796          c21.262-22.845,43.73-45.181,65.459-66.781c7.316-7.272,14.629-14.542,21.903-21.835c3.368-3.377,7.186-6.354,12.38-9.651          l0.127-0.08C182.859,23.447,191.024,21,199.269,21c10.583,0,20.687,3.953,30.032,11.748          c15.204,12.811,20.875,35.558,13.246,52.976c-2.841,6.693-7.686,12.096-12.407,17.056l-0.081,0.084          c-8.109,8.323-16.235,16.646-24.361,24.967c-16.793,17.199-34.159,34.983-51.063,52.467          c-8.097,8.278-16.885,18.481-20.977,31.697c-6.21,19.877-2.2,42.218,10.717,59.787          c13.156,17.894,33.612,27.681,55.659,26.556c16.712-0.922,29.709-6.326,40.858-17.005c2.946-2.864,5.934-5.788,8.923-8.714          c9.554-9.349,19.433-19.016,29.676-28.378c9.188-8.335,19.934-12.728,31.101-12.728c7.735,0,15.279,2.079,22.421,6.178          c18.149,10.173,27.418,29.827,23.613,50.088l-0.023,0.121c-1.438,7.165-4.58,14.019-8.621,18.802          c-17.117,20.345-38.138,43.555-64.153,61.321c-24.749,16.824-53.671,25.108-88.436,25.339L194.31,393.369z M185.526,45.279          c-3.862,2.457-6.601,4.57-8.871,6.847c-7.3,7.319-14.755,14.73-21.964,21.896c-21.593,21.465-43.921,43.662-64.918,66.222          c-19.844,21.325-31.203,48.486-33.762,80.727c-2.985,38.896,11.059,78.23,38.532,107.894          c26.581,28.698,62.012,44.504,99.767,44.504l0.946-0.004c30.676-0.203,55.964-7.355,77.311-21.867          c24.006-16.394,43.865-38.36,60.124-57.686c1.879-2.223,3.515-5.961,4.291-9.783c2.165-11.674-3.238-23.015-13.778-28.907          l-0.11-0.063c-4.085-2.352-8.291-3.544-12.501-3.544c-6.117,0-12.216,2.599-17.636,7.516          c-9.964,9.106-19.719,18.652-29.152,27.885c-3.007,2.941-6.011,5.881-9.025,8.812          c-14.645,14.027-32.189,21.398-53.687,22.584c-1.562,0.08-3.096,0.119-4.603,0.119c-27.1,0-51.968-12.684-68.228-34.799          c-16.671-22.674-21.793-51.674-13.702-77.574c5.343-17.259,16.008-29.756,25.736-39.702          c16.898-17.477,34.281-35.28,51.092-52.496c8.106-8.302,16.212-16.604,24.302-24.907c3.45-3.626,6.939-7.467,8.459-11.072          l0.063-0.146c4.095-9.299,0.614-22.604-7.76-29.661C210.837,43.392,205.042,41,199.269,41          C194.792,41,190.169,42.44,185.526,45.279z" style="fill:#00588F;"/></g></g></g></g></g></g></g></g><g id="Layer_1"/></svg>