<?xml version="1.0" ?><!DOCTYPE svg  PUBLIC '-//W3C//DTD SVG 1.1//EN'  'http://www.w3.org/Graphics/SVG/1.1/DTD/svg11.dtd'><svg height="512px" style="enable-background:new 0 0 512 512;" version="1.1" viewBox="0 0 512 512" width="512px" xml:space="preserve" xmlns="http://www.w3.org/2000/svg" xmlns:xlink="http://www.w3.org/1999/xlink"><g id="comp_x5F_326-stumbleupon"><g><g><g><path d="M479.453,264.846v61.937c0,55.185-44.701,99.885-99.887,99.885      c-54.918,0-99.883-44.255-99.883-98.908v-62.384l30.48,14.218l45.41-13.506v62.737c0,13.063,10.664,23.55,23.727,23.55      c13.064,0,23.816-10.486,23.816-23.55v-63.979H479.453z" style="fill:#B0361A;"/><g><path d="M379.566,436.667c-60.59,0-109.883-48.856-109.883-108.908v-62.384       c0-3.417,1.745-6.599,4.628-8.434c2.882-1.837,6.502-2.074,9.6-0.628l27.04,12.613l41.772-12.424       c3.025-0.899,6.3-0.318,8.829,1.569c2.531,1.888,4.021,4.858,4.021,8.016v62.737c0,7.472,6.157,13.55,13.727,13.55       c7.618,0,13.816-6.078,13.816-13.55v-63.979c0-5.522,4.478-10,10-10h76.336c5.522,0,10,4.478,10,10v61.937       C489.453,387.373,440.158,436.667,379.566,436.667z M289.684,281.074v46.685c0,49.024,40.321,88.908,89.883,88.908       c49.563,0,89.887-40.322,89.887-89.885v-51.937h-56.336v53.979c0,18.499-15.17,33.55-33.816,33.55       c-18.597,0-33.727-15.051-33.727-33.55v-49.33l-32.56,9.684c-2.342,0.697-4.86,0.512-7.078-0.522L289.684,281.074z" style="fill:#842914;"/></g></g><g><path d="M279.773,213.123l30.479,14.219l45.412-13.508v-31.637c0-53.764-45.412-96.864-99.619-96.864      c-54.031,0-99.62,42.834-99.62,96.153v144.319c0,13.241-10.664,23.728-23.725,23.728c-13.064,0-23.728-10.486-23.728-23.728      v-60.96H32.547v61.937c0,55.098,44.7,99.795,99.885,99.795c54.741,0,99.885-43.988,99.885-98.462V185.663      c0-13.063,10.665-23.728,23.729-23.728s23.728,10.664,23.728,23.728V213.123z" style="fill:#EB4823;"/><g><path d="M132.432,436.577c-60.591,0-109.885-49.254-109.885-109.795v-61.937c0-5.522,4.477-10,10-10       h76.425c5.523,0,10,4.478,10,10v60.96c0,7.569,6.158,13.728,13.728,13.728c7.568,0,13.725-6.158,13.725-13.728V181.486       c0-28.413,11.589-55.153,32.634-75.295c20.79-19.899,48.13-30.858,76.986-30.858c60.444,0,109.619,47.939,109.619,106.864       v31.637c0,4.425-2.908,8.324-7.149,9.585l-45.412,13.508c-2.343,0.697-4.861,0.512-7.078-0.522l-30.479-14.219       c-3.521-1.643-5.772-5.177-5.772-9.063v-27.46c0-7.569-6.158-13.728-13.728-13.728s-13.729,6.158-13.729,13.728v142.452       C242.317,387.921,193.023,436.577,132.432,436.577z M42.547,274.846v51.937c0,49.513,40.322,89.795,89.885,89.795       s89.885-39.684,89.885-88.462V185.663c0-18.597,15.13-33.728,33.729-33.728s33.728,15.13,33.728,33.728v21.09l21.266,9.921       l34.625-10.299v-24.178c0-47.897-40.203-86.864-89.619-86.864c-49.417,0-89.62,38.648-89.62,86.153v144.319       c0,18.598-15.129,33.728-33.725,33.728c-18.598,0-33.728-15.13-33.728-33.728v-50.96H42.547z" style="fill:#B0361A;"/></g></g></g></g></g><g id="Layer_1"/></svg>