<?xml version="1.0" ?><!DOCTYPE svg  PUBLIC '-//W3C//DTD SVG 1.1//EN'  'http://www.w3.org/Graphics/SVG/1.1/DTD/svg11.dtd'><svg height="512px" style="enable-background:new 0 0 512 512;" version="1.1" viewBox="0 0 512 512" width="512px" xml:space="preserve" xmlns="http://www.w3.org/2000/svg" xmlns:xlink="http://www.w3.org/1999/xlink"><g id="comp_x5F_346-typo3"><g><g><g><path d="M210.849,77.608c0-24.81,5.424-32.545,13.962-39.576c-69.81,8.538-149.966,34.151-177.087,66.697      c-5.423,7.733-9.342,20.893-9.342,37.265c0,103.961,107.277,339.005,184.922,339.005c36.462,0,97.734-59.766,147.356-139.619      c-7.033,2.311-11.654,2.311-18.583,2.311C294.622,343.69,210.849,144.304,210.849,77.608L210.849,77.608z M334.197,31.001      c-30.236,0-41.886,5.424-41.886,36.462c0,66.695,54.04,199.386,102.152,199.386c26.419,0,79.153-100.144,79.153-183.113      C473.617,42.653,406.318,31.001,334.197,31.001z" style="fill:#FFFFFF;"/><path d="M223.305,495.999c-55.98,0-108.576-86.908-134.945-138.713      c-38.865-76.352-64.977-162.871-64.977-215.292c0-18.494,4.283-34.787,12.061-45.877c0.239-0.34,0.492-0.67,0.758-0.99      c18.198-21.838,53.001-37.541,78.992-46.868c32.53-11.673,70.813-20.593,107.797-25.116c6.615-0.813,12.977,2.847,15.605,8.975      c2.629,6.127,0.898,13.255-4.249,17.494c-4.56,3.755-8.498,6.998-8.498,27.997c0,30.276,20.452,95.417,47.574,151.523      c14.514,30.025,29.735,55.247,44.02,72.939c19.398,24.025,30.684,26.619,34.636,26.619c6.471,0,9.149,0,13.901-1.562      c5.989-1.969,12.576,0.021,16.476,4.982c3.897,4.959,4.276,11.828,0.946,17.186c-24.944,40.142-53.707,76.607-80.99,102.682      C271.848,481.188,245.232,495.999,223.305,495.999z M59.687,113.813c-3.106,4.756-6.304,14.488-6.304,28.181      c0,48.117,24.8,129.167,61.712,201.684c37.824,74.308,80.299,122.321,108.21,122.321c13.159,0,34.983-13.349,58.38-35.709      c20.016-19.129,40.993-44.416,60.525-72.807c-37.177-8.981-72.186-66.448-95.797-115.295      c-29.771-61.588-50.563-129.266-50.563-164.58c0-7.711,0.477-14.359,1.529-20.201C135.074,68.877,78.89,91.454,59.687,113.813z       M394.464,281.849c-15.887,0-31.879-9.044-47.532-26.881c-12.157-13.852-24.314-33.36-35.159-56.417      c-20.935-44.507-34.461-95.962-34.461-131.088c0-13.812,1.746-31.032,15.361-41.684c10.372-8.115,24.102-9.778,41.524-9.778      c42.364,0,76.418,3.917,101.216,11.64c43.974,13.696,53.204,38.064,53.204,56.094c0,39.573-11.325,86.592-31.071,129.002      C445.528,238.548,421.352,281.849,394.464,281.849z M334.197,46.001c-4.622,0-18.686,0-23.038,3.405      c-3.181,2.488-3.848,11.192-3.848,18.057c0,30.576,12.702,78.125,31.607,118.319c21.204,45.081,42.831,65.564,55.096,66.057      c5.061-1.735,21.105-17.688,38.159-55.759c16.805-37.517,26.443-78.465,26.443-112.345c0-4.315,0-17.445-32.125-27.452      C404.586,49.46,373.533,46.001,334.197,46.001z" style="fill:#FF8700;"/></g></g></g></g><g id="Layer_1"/></svg>