<?xml version="1.0" ?><!DOCTYPE svg  PUBLIC '-//W3C//DTD SVG 1.1//EN'  'http://www.w3.org/Graphics/SVG/1.1/DTD/svg11.dtd'><svg height="512px" style="enable-background:new 0 0 512 512;" version="1.1" viewBox="0 0 512 512" width="512px" xml:space="preserve" xmlns="http://www.w3.org/2000/svg" xmlns:xlink="http://www.w3.org/1999/xlink"><g id="comp_x5F_347-uber"><g><g><g><path d="M442.75,36.003H69.347c-18.366,0-33.294,14.929-33.294,33.294v373.307      c0,18.464,14.928,33.393,33.294,33.393h373.306c18.367,0,33.294-14.929,33.294-33.293V69.297      C476.046,50.932,461.118,36.003,442.75,36.003z M269.407,388.686c-73.268,7.365-138.678-46.062-146.043-119.331h92.713v20.037      c0,3.636,2.945,6.68,6.679,6.68h66.684c3.636,0,6.681-2.947,6.681-6.68v-66.686c0-3.634-2.946-6.678-6.681-6.678h-66.684      c-3.635,0-6.679,2.946-6.679,6.678v20.035h-92.713c6.874-68.16,64.23-120.016,132.685-120.016      c68.453,0,125.811,51.856,132.685,120.016C396.101,315.91,342.673,381.321,269.407,388.686z" style="fill:#FFFFFF;"/><path d="M442.652,485.997H69.347c-23.873,0-43.294-19.466-43.294-43.393V69.297c0-23.873,19.421-43.294,43.294-43.294H442.75      c11.591,0,22.478,4.527,30.653,12.748c8.151,8.195,12.605,19.063,12.543,30.601v373.353      C485.946,466.576,466.524,485.997,442.652,485.997z M69.347,46.003c-12.844,0-23.294,10.45-23.294,23.294v373.307      c0,12.898,10.45,23.393,23.294,23.393h373.306c12.845,0,23.294-10.449,23.294-23.293V69.297      c0.034-6.229-2.354-12.05-6.724-16.443c-4.395-4.418-10.244-6.852-16.473-6.852H69.347z M255.911,399.364      c-35.343,0-69.342-13.066-95.735-36.791c-26.579-23.893-43.186-56.643-46.762-92.219c-0.283-2.812,0.638-5.612,2.533-7.708      c1.896-2.096,4.59-3.292,7.417-3.292h92.713c5.523,0,10,4.478,10,10v16.717h60.043v-60.043h-60.043v16.713      c0,5.523-4.477,10-10,10h-92.713c-2.827,0-5.521-1.196-7.417-3.293s-2.816-4.898-2.532-7.71      c3.574-35.433,20.084-68.099,46.492-91.981c26.405-23.88,60.548-37.031,96.143-37.031c35.594,0,69.737,13.151,96.142,37.031      c26.408,23.882,42.919,56.549,46.492,91.981c3.832,38.054-7.402,75.336-31.632,104.981      c-24.236,29.65-58.558,48.089-96.644,51.917C265.597,399.119,260.72,399.364,255.911,399.364z M134.911,279.354      c11.004,57.734,61.208,100.01,121,100.01c4.144,0,8.348-0.212,12.496-0.629c32.771-3.294,62.303-19.159,83.157-44.674      c20.849-25.507,30.516-57.583,27.22-90.318c-6.384-63.29-59.147-111.018-122.735-111.018      c-59.846,0-110.105,42.277-121.134,100.016h71.162v-10.035c0-9.196,7.482-16.678,16.679-16.678h66.684      c9.198,0,16.681,7.482,16.681,16.678v66.686c0,9.197-7.482,16.68-16.681,16.68h-66.684c-9.197,0-16.679-7.482-16.679-16.68      v-10.037H134.911z"/></g></g></g></g><g id="Layer_1"/></svg>