<?xml version="1.0" ?><!DOCTYPE svg  PUBLIC '-//W3C//DTD SVG 1.1//EN'  'http://www.w3.org/Graphics/SVG/1.1/DTD/svg11.dtd'><svg height="512px" style="enable-background:new 0 0 512 512;" version="1.1" viewBox="0 0 512 512" width="512px" xml:space="preserve" xmlns="http://www.w3.org/2000/svg" xmlns:xlink="http://www.w3.org/1999/xlink"><g id="comp_x5F_356-vaadin"><g><g><g><path d="M256.514,149.935c1.54-18.071,5.031-54.112,51.133-54.112h101.241      c21.254,0,32.96-8.009,32.96-22.179V61.015c0-12.526,9.548-22.692,22.076-22.692c12.526,0,22.074,10.166,22.074,22.692v37.478      c0,44.049-22.074,63.66-68.587,63.66H314.219c-30.906,0-33.884,15.095-33.884,27.827c0,1.334-0.104,2.566-0.205,3.798      c-0.719,12.63-11.193,22.795-24.027,22.795s-23.309-10.063-24.026-22.795c-0.104-1.231-0.205-2.464-0.205-3.798      c0-12.631-3.081-27.827-33.884-27.827H94.589c-46.513,0-68.588-19.611-68.588-63.66V61.015c0-12.526,9.651-22.692,22.178-22.692      c12.527,0,22.076,10.166,22.076,22.692v12.629c0,14.17,11.705,22.179,32.961,22.179h101.24c46,0,49.594,36.041,51.134,54.112      H256.514L256.514,149.935z M256.001,473.678c11.807,0,21.973-7.187,26.388-16.734c1.129-1.849,99.699-174.144,100.83-175.993      c12.219-20.123-3.286-45.484-27.928-45.484c-14.274,0-23.924,6.57-30.599,20.843l-68.691,120.854l-68.692-120.854      c-6.571-14.272-16.326-20.843-30.598-20.843c-24.644,0-40.147,25.259-27.929,45.484c1.13,1.952,99.701,174.145,100.83,175.993      C234.027,466.491,244.192,473.678,256.001,473.678L256.001,473.678z" style="fill:#FFFFFF;"/><path d="M256.001,483.678c-15.047,0-28.83-8.654-35.255-22.09c-3.354-5.787-30.965-53.994-79.562-138.861      c-11.298-19.731-20.279-35.415-21.018-36.699c-7.337-12.22-7.537-26.918-0.527-39.341c7.385-13.089,21.59-21.22,37.072-21.22      c18.047,0,31.333,8.834,39.495,26.258l59.796,105.201l59.81-105.226c8.27-17.408,21.551-26.233,39.48-26.233      c15.487,0,29.697,8.156,37.085,21.285c7.02,12.475,6.792,27.2-0.609,39.39c-1.033,1.747-27.38,47.767-50.626,88.369      c-32.085,56.044-47.448,82.871-49.887,87.079C284.829,475.023,271.047,483.678,256.001,483.678z M156.71,245.466      c-8.403,0-15.75,4.13-19.653,11.048c-3.485,6.177-3.381,13.198,0.284,19.266c0.032,0.054,0.064,0.107,0.095,0.162      c0.327,0.563,7.461,13.022,21.103,36.847c27.311,47.694,78.146,136.472,79.653,139.02c0.2,0.327,0.335,0.59,0.496,0.938      c3.023,6.538,9.981,10.932,17.313,10.932c7.331,0,14.288-4.393,17.312-10.932c0.161-0.349,0.342-0.688,0.542-1.015      c1.002-1.696,25.875-45.143,49.93-87.158c34.945-61.037,50.32-87.887,50.902-88.839c3.639-5.993,3.739-12.991,0.26-19.175      c-3.909-6.946-11.257-11.093-19.655-11.093c-10.291,0-16.531,4.369-21.54,15.079c-0.112,0.239-0.234,0.475-0.364,0.705      l-68.691,120.854c-1.777,3.127-5.098,5.059-8.694,5.059s-6.917-1.932-8.694-5.059L178.615,261.25      c-0.141-0.247-0.271-0.501-0.39-0.759C173.312,249.819,167.078,245.466,156.71,245.466z M256.103,226.572      c-18.003,0-32.91-14.081-34.001-32.084c-0.105-1.251-0.229-2.79-0.229-4.509c0-8.765,0-17.827-23.884-17.827H94.589      c-26.217,0-45.353-5.871-58.501-17.947c-13.517-12.415-20.087-30.639-20.087-55.713V61.015      c0-18.332,14.134-32.692,32.178-32.692c17.987,0,32.076,14.36,32.076,32.692v12.629c0,8.081,7.725,12.179,22.961,12.179h101.24      c23.593,0,40.681,8.441,50.788,25.09c0.271,0.445,0.534,0.894,0.79,1.344c0.254-0.447,0.516-0.894,0.784-1.337      c10.09-16.653,27.192-25.097,50.83-25.097h101.241c15.235,0,22.96-4.098,22.96-12.179V61.015      c0-18.332,14.09-32.692,32.076-32.692c17.985,0,32.074,14.36,32.074,32.692v37.478c0,25.075-6.57,43.299-20.087,55.713      c-13.147,12.076-32.283,17.947-58.5,17.947H314.219c-23.884,0-23.884,9.063-23.884,17.827c0,1.7-0.121,3.188-0.229,4.503      C289.009,212.488,274.1,226.572,256.103,226.572z M48.179,48.322c-6.829,0-12.178,5.575-12.178,12.692v37.478      c0,38.114,16.974,53.66,58.588,53.66h103.398c16.958,0,28.759,4.141,36.078,12.66c6.997,8.144,7.806,18.263,7.806,25.167      c0,0.938,0.083,1.92,0.17,2.96c0.008,0.091,0.014,0.183,0.02,0.275c0.422,7.49,6.589,13.357,14.042,13.357      c7.448,0,13.617-5.87,14.044-13.363c0.005-0.084,0.011-0.169,0.018-0.253c0.094-1.145,0.171-2.078,0.171-2.977      c0-7.524,0.883-17.188,7.766-25.204c7.295-8.494,19.109-12.624,36.118-12.624h103.193c41.613,0,58.587-15.546,58.587-53.66      V61.015c0-7.236-5.19-12.692-12.074-12.692c-6.885,0-12.076,5.457-12.076,12.692v12.629c0,7.549-3.098,32.179-42.96,32.179      H307.647c-34.456,0-39.231,22.211-41.169,44.961c-0.441,5.175-4.771,9.151-9.964,9.151h-0.925c-5.194,0-9.523-3.976-9.964-9.151      c-1.939-22.75-6.715-44.961-41.17-44.961h-101.24c-39.863,0-42.961-24.63-42.961-32.179V61.015      C60.255,53.779,55.063,48.322,48.179,48.322z" style="fill:#00B4F0;"/></g></g></g></g><g id="Layer_1"/></svg>