<?xml version="1.0" ?><!DOCTYPE svg  PUBLIC '-//W3C//DTD SVG 1.1//EN'  'http://www.w3.org/Graphics/SVG/1.1/DTD/svg11.dtd'><svg height="512px" style="enable-background:new 0 0 512 512;" version="1.1" viewBox="0 0 512 512" width="512px" xml:space="preserve" xmlns="http://www.w3.org/2000/svg" xmlns:xlink="http://www.w3.org/1999/xlink"><g id="comp_x5F_357-viacoin"><g><g><g><path d="M453.143,28h-65.715l-82.861,193.143h-97.031L124.572,28H58.857l49.286,111H58.857v49.286h70.335      l14.169,32.856H58.857v49.286h105.554L256.001,484l91.587-213.57h105.555v-49.286h-84.504l14.17-32.856h70.334v-49.286h-49.286      L453.143,28z M256.001,336.143l-27.724-65.713h55.447L256.001,336.143z" style="fill:#FFFFFF;"/><path d="M256.001,494c-4,0-7.614-2.383-9.19-6.059L157.819,280.43H58.857c-5.523,0-10-4.478-10-10v-49.286      c0-5.523,4.477-10,10-10h69.301l-5.544-12.856H58.857c-5.523,0-10-4.477-10-10v-49.286c0-5.523,4.477-10,10-10h33.904      L49.718,32.059c-1.374-3.093-1.089-6.671,0.756-9.509s5-4.549,8.384-4.549h65.715c3.998,0,7.61,2.38,9.188,6.053l80.363,187.09      h83.852l80.262-187.086c1.577-3.675,5.191-6.057,9.19-6.057h65.715c3.385,0,6.539,1.712,8.384,4.549s2.129,6.416,0.756,9.509      l-43.044,96.942h33.904c5.522,0,10,4.477,10,10v49.286c0,5.523-4.478,10-10,10h-63.756l-5.545,12.856h69.301      c5.522,0,10,4.477,10,10v49.286c0,5.522-4.478,10-10,10h-98.962l-88.989,207.512C263.615,491.617,260.001,494,256.001,494z       M68.857,260.43h95.554c4,0,7.614,2.383,9.19,6.059l82.399,192.14l82.396-192.14c1.576-3.676,5.191-6.059,9.19-6.059h95.555      v-29.286h-74.504c-3.365,0-6.505-1.693-8.354-4.504c-1.85-2.812-2.161-6.365-0.828-9.456l14.17-32.856      c1.581-3.666,5.19-6.04,9.183-6.04h60.334v-29.286h-39.286c-3.385,0-6.539-1.712-8.384-4.549s-2.129-6.416-0.756-9.509      L437.761,38H394.02l-80.263,187.086c-1.577,3.675-5.191,6.057-9.19,6.057h-97.031c-3.998,0-7.61-2.38-9.188-6.053L117.984,38      H74.239l43.044,96.942c1.374,3.093,1.089,6.671-0.756,9.509s-5,4.549-8.384,4.549H68.857v29.286h60.335      c3.992,0,7.602,2.375,9.183,6.04l14.169,32.856c1.333,3.09,1.021,6.644-0.828,9.456c-1.849,2.812-4.989,4.504-8.354,4.504      H68.857V260.43z M256.001,346.143c-4.021,0-7.65-2.408-9.213-6.113l-27.724-65.713c-1.303-3.088-0.972-6.623,0.88-9.415      c1.853-2.793,4.981-4.472,8.333-4.472h55.447c3.352,0,6.479,1.679,8.333,4.472c1.853,2.792,2.184,6.327,0.881,9.415      l-27.723,65.713C263.651,343.734,260.021,346.143,256.001,346.143z M243.35,280.43l12.651,29.986l12.65-29.986H243.35z"/></g></g></g></g><g id="Layer_1"/></svg>