<?xml version="1.0" ?><!DOCTYPE svg  PUBLIC '-//W3C//DTD SVG 1.1//EN'  'http://www.w3.org/Graphics/SVG/1.1/DTD/svg11.dtd'><svg height="512px" style="enable-background:new 0 0 512 512;" version="1.1" viewBox="0 0 512 512" width="512px" xml:space="preserve" xmlns="http://www.w3.org/2000/svg" xmlns:xlink="http://www.w3.org/1999/xlink"><g id="comp_x5F_367-vuejs"><g><g><g><polygon points="384.848,70 310.293,70 256,155.898 209.465,70 38.831,70 256,442 473.169,70     " style="fill:#41B883;"/><g><path d="M256,452c-3.556,0-6.844-1.888-8.636-4.958l-217.169-372c-1.805-3.093-1.819-6.915-0.036-10.021       C31.942,61.915,35.25,60,38.831,60h170.634c3.67,0,7.044,2.01,8.792,5.236l38.407,70.894l45.175-71.473       c1.833-2.899,5.023-4.657,8.453-4.657h162.876c3.581,0,6.889,1.915,8.672,5.021c1.783,3.105,1.77,6.928-0.036,10.021       l-217.168,372C262.844,450.112,259.556,452,256,452z M56.248,80L256,422.165L455.752,80H315.803l-51.35,81.241       c-1.896,3.001-5.238,4.777-8.789,4.651c-3.547-0.119-6.766-2.11-8.457-5.23L203.509,80H56.248z" style="fill:#318A62;"/></g></g><g><polygon points="92.833,101.023 144.991,101.023 256,293.182 366.911,101.023 419.071,101.023       256,380.436 92.833,101.023     " style="fill:#35495E;"/><g><path d="M256.002,390.436c-3.556,0-6.844-1.887-8.637-4.957L84.197,106.066       c-1.806-3.093-1.82-6.916-0.037-10.021c1.783-3.106,5.091-5.021,8.672-5.021h52.159c3.572,0,6.872,1.905,8.659,4.998       l102.346,177.163L358.25,96.024c1.786-3.095,5.088-5.001,8.661-5.001h52.16c3.581,0,6.889,1.915,8.672,5.021       s1.77,6.927-0.035,10.02l-163.07,279.413C262.845,388.547,259.558,390.436,256.002,390.436z M110.252,111.023l145.746,249.577       l145.658-249.577h-28.971L264.661,298.181c-1.785,3.094-5.086,5-8.659,5.001c-3.572,0.001-6.874-1.904-8.661-4.998       l-108.122-187.16H110.252z" style="fill:#283747;"/></g></g></g></g></g><g id="Layer_1"/></svg>