<?xml version="1.0" ?><!DOCTYPE svg  PUBLIC '-//W3C//DTD SVG 1.1//EN'  'http://www.w3.org/Graphics/SVG/1.1/DTD/svg11.dtd'><svg height="512px" style="enable-background:new 0 0 512 512;" version="1.1" viewBox="0 0 512 512" width="512px" xml:space="preserve" xmlns="http://www.w3.org/2000/svg" xmlns:xlink="http://www.w3.org/1999/xlink"><g id="_x33__x2C__XD_x2C__Adobe"><g><g><rect height="492" style="fill:#FF26BE;" width="492" x="10" y="10"/><g><path d="M501.508,512H10.492C4.697,512,0,507.303,0,501.508V10.492C0,4.697,4.697,0,10.492,0h491.016      C507.303,0,512,4.697,512,10.492v491.016C512,507.303,507.303,512,501.508,512z M21,491h470V21H21V491z" style="fill:#BF1D8F;"/></g></g><g><rect height="426" style="fill:#2E001F;" width="426" x="43" y="43"/><g><path d="M480,469.508c0,5.795-4.697,10.492-10.492,10.492H43.492C37.698,480,33,475.303,33,469.508      V43.492C33,37.698,37.698,33,43.492,33h426.016C475.303,33,480,37.698,480,43.492V469.508z M54,458h404V54H54V458z" style="fill:#230017;"/></g></g><g><path d="M265.398,141.875h-38.377l-41.195,86.163l-41.749-86.163h-39.534l55.949,111.878l-57.946,114.559     h39.067l41.933-87.794l42.421,87.794h42.285l-59.725-115.904L265.398,141.875z M371.49,141.875v57.577c0,0-6.639,0-11.06,0     c-37.738,0-83.361,24.337-83.361,86.5c0,48.055,24.349,84.174,76.209,84.174c38.186,0,56.176-13.209,56.176-13.209V141.875     H371.49z M371.453,337.049c0,0-4.371,1.924-14.685,1.924c-10.313,0-41.953-4.544-41.953-54.716     c0-50.167,36.36-54.189,45.099-54.189c8.743,0,11.539,2.448,11.539,2.448V337.049z" style="fill:#FFD9F2;"/></g></g></g><g id="Layer_1"/></svg>