<?xml version="1.0" ?><svg height="60px" version="1.1" viewBox="0 0 60 60" width="60px" xmlns="http://www.w3.org/2000/svg" xmlns:sketch="http://www.bohemiancoding.com/sketch/ns" xmlns:xlink="http://www.w3.org/1999/xlink"><title/><desc/><defs/><g fill="none" fill-rule="evenodd" id="soical" stroke="none" stroke-width="1"><g id="social" transform="translate(-873.000000, -338.000000)"><g id="slices" transform="translate(173.000000, 138.000000)"/><g fill="#000000" id="square-black" transform="translate(173.000000, 138.000000)"><path d="M702.995937,200 L757.004063,200 C758.658673,200 760,201.33731 760,202.995937 L760,257.004063 C760,258.658673 758.66269,260 757.004063,260 L702.995937,260 C701.341327,260 700,258.66269 700,257.004063 L700,202.995937 C700,201.341327 701.33731,200 702.995937,200 Z" id="square-28"/></g><g fill="#FFFFFF" id="icon" transform="translate(182.000000, 150.000000)"><g id="limelight" transform="translate(703.692308, 207.615385)"><path d="M23.0921351,5.35175031 L10.5901052,22.3814365 L33.453651,7.88423979 L23.0921351,5.35175031 Z" fill-opacity="0.68146829" id="Shape"/><path d="M13.6850211,3.24885442 L1.53780424,5.71570764 L24.0252794,22.3814365 L13.6850211,3.24885442 Z" fill-opacity="0.68146829" id="Shape"/><path d="M0,3.46153846 C0,5.37328809 3.09963721,6.92307692 6.92307692,6.92307692 C10.7465981,6.92307692 13.8461538,5.37328809 13.8461538,3.46153846 C13.8461538,1.54978883 10.7466795,0 6.92307692,0 C3.09963721,0 0,1.54978883 0,3.46153846 Z M28.8461138,2.30769231 C25.6599132,2.30769231 23.0769231,3.85748757 23.0769231,5.76923077 C23.0769231,7.68097397 25.6598331,9.23076923 28.8461138,9.23076923 C32.0323945,9.23076923 34.6153846,7.68106056 34.6153846,5.76923077 C34.6153846,3.85757416 32.0323143,2.30769231 28.8461138,2.30769231 Z" id="Spotlights"/></g></g></g></g></svg>