<?xml version="1.0" ?><svg height="60px" version="1.1" viewBox="0 0 60 60" width="60px" xmlns="http://www.w3.org/2000/svg" xmlns:sketch="http://www.bohemiancoding.com/sketch/ns" xmlns:xlink="http://www.w3.org/1999/xlink"><title/><desc/><defs/><g fill="none" fill-rule="evenodd" id="soical" stroke="none" stroke-width="1"><g id="social" transform="translate(-973.000000, -738.000000)"><g id="slices" transform="translate(173.000000, 138.000000)"/><g fill="#000000" id="square-black" transform="translate(173.000000, 138.000000)"><path d="M802.995937,600 L857.004063,600 C858.658673,600 860,601.33731 860,602.995937 L860,657.004063 C860,658.658673 858.66269,660 857.004063,660 L802.995937,660 C801.341327,660 800,658.66269 800,657.004063 L800,602.995937 C800,601.341327 801.33731,600 802.995937,600 Z" id="square-69"/></g><g fill="#FFFFFF" id="icon" transform="translate(182.000000, 150.000000)"><path d="M830.227636,625.919103 L829.294,620.998962 C829.294,620.998962 834.764345,610.363168 834.752577,605.552017 C834.752577,605.552017 835.242705,603.048983 831.193775,603.048983 C831.193775,603.048983 828.669148,602.562274 827.977608,605.212069 L827.074794,609.969589 C827.074794,609.969589 825.727661,603.048983 817.889268,603.048983 C817.889268,603.048983 808.396478,601.481596 806.168866,616.079398 C806.168866,616.079398 803.937767,633.044064 815.695075,633.044064 C815.695075,633.044064 821.368745,632.921595 824.583792,627.541849 C824.583792,627.541849 825.21619,633.044064 830.874044,633.044064 C830.874044,633.044064 834.536821,633.407732 834.752577,629.190551 C834.753698,629.188821 835.499371,625.512551 832.76235,626.486545 C832.76235,626.486545 831.137735,627.432859 830.227636,625.919103 Z M816.165675,626.997373 C812.028093,626.997373 812.96192,617.622988 812.96192,617.622988 C813.732064,608.384992 818.929427,608.438739 818.929427,608.438739 C823.047035,608.276344 823.272862,619.817337 823.272862,619.817337 C819.850493,626.86214 816.256117,627.106021 816.165675,626.997373 L816.165675,626.997373 Z" id="app.net"/></g></g></g></svg>