<?xml version="1.0" ?><svg height="60px" version="1.1" viewBox="0 0 60 60" width="60px" xmlns="http://www.w3.org/2000/svg" xmlns:sketch="http://www.bohemiancoding.com/sketch/ns" xmlns:xlink="http://www.w3.org/1999/xlink"><title/><desc/><defs/><g fill="none" fill-rule="evenodd" id="soical" stroke="none" stroke-width="1"><g id="social" transform="translate(-573.000000, -238.000000)"><g id="slices" transform="translate(173.000000, 138.000000)"/><g fill="#000000" id="square-black" transform="translate(173.000000, 138.000000)"><path d="M402.995937,100 L457.004063,100 C458.658673,100 460,101.33731 460,102.995937 L460,157.004063 C460,158.658673 458.66269,160 457.004063,160 L402.995937,160 C401.341327,160 400,158.66269 400,157.004063 L400,102.995937 C400,101.341327 401.33731,100 402.995937,100 Z" id="square-15"/></g><g fill="#FFFFFF" id="icon" transform="translate(182.000000, 150.000000)"><path d="M423.395355,111.209792 C427.349081,108.897178 429.460071,112.149548 427.436912,115.83026 C425.417215,119.507943 423.571018,121.906225 422.604869,121.906225 C421.640018,121.906225 420.897126,119.445639 419.792523,115.144048 C418.64898,110.69708 418.656336,102.68622 413.906067,103.593959 C409.425783,104.45021 403.538462,111.297191 403.538462,111.297191 L404.944202,113.092333 C404.944202,113.092333 407.843947,110.867118 408.810961,111.979509 C409.77711,113.092333 413.466043,126.526694 414.69785,129.005452 C415.773032,131.179179 418.738975,134.054262 421.99048,132.00125 C425.240687,129.948237 436.047451,120.963873 437.981479,110.355271 C439.915075,99.7471024 424.975893,101.967558 423.395355,111.209792 L423.395355,111.209792 Z" id="vimeo"/></g></g></g></svg>