<?xml version="1.0" ?><svg height="60px" version="1.1" viewBox="0 0 60 60" width="60px" xmlns="http://www.w3.org/2000/svg" xmlns:sketch="http://www.bohemiancoding.com/sketch/ns" xmlns:xlink="http://www.w3.org/1999/xlink"><title/><desc/><defs/><g fill="none" fill-rule="evenodd" id="soical" stroke="none" stroke-width="1"><g id="social" transform="translate(-873.000000, -538.000000)"><g id="slices" transform="translate(173.000000, 138.000000)"/><g fill="#000000" id="square-black" transform="translate(173.000000, 138.000000)"><path d="M702.995937,400 L757.004063,400 C758.658673,400 760,401.33731 760,402.995937 L760,457.004063 C760,458.658673 758.66269,460 757.004063,460 L702.995937,460 C701.341327,460 700,458.66269 700,457.004063 L700,402.995937 C700,401.341327 701.33731,400 702.995937,400 Z" id="square-48"/></g><g fill="#FFFFFF" id="icon" transform="translate(182.000000, 150.000000)"><path d="M724.492136,421.948168 C723.869059,422.575861 724.396367,423.719322 724.396367,423.719322 L729.086751,431.55163 C729.086751,431.55163 729.856367,432.584322 730.524444,432.584322 C731.194828,432.584322 731.857136,432.033938 731.857136,432.033938 L735.565598,426.732014 C735.565598,426.732014 735.939444,426.063938 735.947521,425.477784 C735.961367,424.644707 734.704828,424.416245 734.704828,424.416245 L725.925213,421.597399 C725.925213,421.597399 725.065598,421.370091 724.492136,421.948168 L724.492136,421.948168 Z M724.047905,417.999707 C724.497905,418.761245 725.735982,418.539707 725.735982,418.539707 L734.495982,415.979322 C734.495982,415.979322 735.690213,415.493553 735.860982,414.847399 C736.02829,414.198938 735.663674,413.418938 735.663674,413.418938 L731.477521,408.488553 C731.477521,408.488553 731.115213,407.864322 730.361751,407.802014 C729.532136,407.730476 729.020982,408.735476 729.020982,408.735476 L724.070982,416.525091 C724.070982,416.523938 723.633674,417.299322 724.047905,417.999707 L724.047905,417.999707 Z M719.909059,414.962784 C720.940598,414.708938 721.104444,413.210091 721.104444,413.210091 L721.034059,400.738168 C721.034059,400.738168 720.87829,399.200091 720.187136,398.783553 C719.103674,398.125861 718.781751,398.469707 718.471367,398.514707 L711.198674,401.218168 C711.198674,401.218168 710.485598,401.453553 710.115213,402.047784 C709.585598,402.890091 710.652905,404.123553 710.652905,404.123553 L718.212905,414.427399 C718.212905,414.426245 718.959444,415.197014 719.909059,414.962784 L719.909059,414.962784 Z M718.113674,420.009707 C718.139059,419.048553 716.958674,418.470476 716.958674,418.470476 L709.141367,414.520861 C709.141367,414.520861 707.982905,414.043168 707.419828,414.37663 C706.989444,414.63163 706.607521,415.090861 706.570598,415.499322 L706.061751,421.767014 C706.061751,421.767014 705.985598,422.852784 706.267136,423.34663 C706.666367,424.047014 707.977136,423.560091 707.977136,423.560091 L717.102905,421.543168 C717.457136,421.303168 718.079059,421.282399 718.113674,420.009707 L718.113674,420.009707 Z M720.382136,423.392784 C719.598674,422.990091 718.660598,423.824322 718.660598,423.824322 L712.549828,430.551245 C712.549828,430.551245 711.787136,431.579322 711.980982,432.210476 C712.16329,432.802399 712.465598,433.097784 712.893674,433.304322 L719.030982,435.24163 C719.030982,435.24163 719.775213,435.396245 720.33829,435.232399 C721.137905,435.00163 720.990213,433.748553 720.990213,433.748553 L721.128674,424.640091 C721.129828,424.641245 721.099828,423.763168 720.382136,423.392784 L720.382136,423.392784 Z" id="yelp"/></g></g></g></svg>