<?xml version="1.0" encoding="utf-8"?>
<!-- Generator: $$$/GeneralStr/196=Adobe Illustrator 27.6.0, SVG Export Plug-In . SVG Version: 6.00 Build 0)  -->
<svg version="1.1" id="Ebene_1" xmlns="http://www.w3.org/2000/svg" xmlns:xlink="http://www.w3.org/1999/xlink" x="0px" y="0px"
	 viewBox="0 0 96 96" style="enable-background:new 0 0 96 96;" xml:space="preserve">
<style type="text/css">
	.st0{fill:#FFB900;}
	.st1{fill:#FFD75E;}
	.st2{fill:url(#SVGID_1_);}
	.st3{opacity:0.4;fill:#FFFFFF;enable-background:new    ;}
	.st4{fill:#DA7B16;}
</style>
<path class="st0" d="M45,24l-4.2-4.2c-1.1-1.1-2.7-1.8-4.2-1.8H9c-1.7,0-3,1.3-3,3v56c0,0.6,0.4,1,1,1h82c0.6,0,1-0.4,1-1V27
	c0-1.7-1.3-3-3-3H45z"/>
<path class="st1" d="M45,24l-4.2,4.2c-1.1,1.1-2.7,1.8-4.2,1.8H6v47c0,0.6,0.4,1,1,1h82c0.6,0,1-0.4,1-1V27c0-1.7-1.3-3-3-3H45z"/>
<linearGradient id="SVGID_1_" gradientUnits="userSpaceOnUse" x1="48" y1="71.8898" x2="48" y2="17.8898" gradientTransform="matrix(1 0 0 -1 0 95.8898)">
	<stop  offset="0" style="stop-color:#FFFFFF;stop-opacity:0"/>
	<stop  offset="1" style="stop-color:#FFD75E;stop-opacity:0.3"/>
</linearGradient>
<path class="st2" d="M45,24l-4.2,4.2c-1.1,1.1-2.7,1.8-4.2,1.8H6v47c0,0.6,0.4,1,1,1h82c0.6,0,1-0.4,1-1V27c0-1.7-1.3-3-3-3H45z"/>
<path class="st3" d="M6,30v1h30.6c1.9,0,3.6-0.7,4.9-2.1l4.9-4.9H45l-4.2,4.2c-1.1,1.1-2.7,1.8-4.2,1.8H6z"/>
<path class="st4" d="M89,78H7c-0.6,0-1-0.4-1-1l0,0h84l0,0C90,77.6,89.6,78,89,78z"/>
</svg>
