<?xml version="1.0" ?><svg enable-background="new 0 0 24 24" id="Layer_1" version="1.1" viewBox="0 0 24 24" xml:space="preserve" xmlns="http://www.w3.org/2000/svg" xmlns:xlink="http://www.w3.org/1999/xlink"><g><path d="M12.8837891,10.7093506c0.3539429,0,0.6311035,0.1364746,0.8844604,0.3483887l0.4401245-0.4349976   c-0.3250122-0.2927856-0.7094727-0.4943237-1.319397-0.4943848c-1.0769043,0-1.8344727,0.8378906-1.8344727,1.8615723v0.0101929   c0,1.0334473,0.7722778,1.8511963,1.80896,1.8511963c0.5879517,0,0.9736328-0.1929932,1.3112183-0.506897l-0.4164429-0.4122314   c-0.2528076,0.2104492-0.5080566,0.3380737-0.8744507,0.3380737c-0.6807861,0-1.1735229-0.5758667-1.1735229-1.2803345v-0.010437   C11.7102661,11.2749634,12.2030029,10.7093506,12.8837891,10.7093506z" fill="#303C42"/><path d="M9.7208252,12.6170044c0.6300659-0.519043,0.9246826-0.8278809,0.9246826-1.3933716v-0.0101929   c0-0.6427002-0.477478-1.074707-1.1738281-1.074707c-0.6351318,0-0.970459,0.2721558-1.3110352,0.7558594l0.4421997,0.3497925   c0.274231-0.3602295,0.4980469-0.5400391,0.8231201-0.5400391c0.3253174,0,0.5745239,0.2055664,0.5745239,0.5604248   c0,0.3242188-0.1782227,0.555603-0.6660156,0.9719849l-1.2243652,1.0543823v0.4985352h2.5710449v-0.5551758H8.9887085   L9.7208252,12.6170044z" fill="#303C42"/><path d="M22,3H2C0.8974609,3,0,3.8969727,0,5v14c0,1.1030273,0.8974609,2,2,2h20c1.1025391,0,2-0.8969727,2-2V5   C24,3.8969727,23.1025391,3,22,3z M11.9347534,17.5C8.9332886,17.5,6.5,15.0377808,6.5,12.0001831   C6.5,8.9624023,8.9332886,6.5,11.9347534,6.5c2.4467773,0,4.515686,1.6372681,5.1965942,3.8884277   c-0.2762451-0.1638794-0.6044922-0.2600098-0.9716187-0.2599487c-1.0926514,0-1.8648071,0.8483276-1.8648071,1.8615723v0.0101929   c0,1.0130615,0.7619629,1.8511963,1.8544312,1.8511963c0.3743896,0,0.7102051-0.1012573,0.9908447-0.2731934   C16.4703979,15.8465576,14.3935547,17.5,11.9347534,17.5z M17.5,12.0001831c0,0.6994019-0.492981,1.2700806-1.1990356,1.2700806   c-0.706543,0-1.2095947-0.5809937-1.2095947-1.2803345v-0.010437c0-0.6993408,0.493103-1.2701416,1.1992188-1.2701416   c0.706543,0,1.2094116,0.5811768,1.2094116,1.2807007V12.0001831z" fill="#303C42"/></g><g/><g/><g/><g/><g/><g/><g/><g/><g/><g/><g/><g/><g/><g/><g/></svg>