<?xml version="1.0" ?><svg enable-background="new 0 0 24 24" id="Layer_1" version="1.1" viewBox="0 0 24 24" xml:space="preserve" xmlns="http://www.w3.org/2000/svg" xmlns:xlink="http://www.w3.org/1999/xlink"><g><path d="M15.1367188,14.0092163c0,0.2949219,0.2589722,0.4819946,0.6546631,0.4819946   c0.5036011-0.0072021,0.8920898-0.3309326,0.8920898-0.7841797v-0.2661743l-0.8345337,0.0575562   C15.3812866,13.5271606,15.1367188,13.6998291,15.1367188,14.0092163z" fill="#303C42"/><path d="M12.6043091,11.0235596h-0.8920898V12.84375h0.8920898   c0.6115112,0,0.9712524-0.3309937,0.9712524-0.9064941C13.5755615,11.3616943,13.2230225,11.0235596,12.6043091,11.0235596z" fill="#303C42"/><path d="M22,3H2C0.8969727,3,0,3.8969727,0,5v14c0,1.1030273,0.8969727,2,2,2h20c1.1030273,0,2-0.8969727,2-2V5   C24,3.8969727,23.1030273,3,22,3z M6.6712036,8.6063232C6.9594116,8.2685547,7.4472656,8.0159912,7.8496094,8   C7.901001,8.468811,7.7134399,8.9389648,7.4338989,9.277771C7.1542358,9.6159058,6.6957397,9.87854,6.2468872,9.8436279   C6.1854248,9.3846436,6.4121704,8.9060059,6.6712036,8.6063232z M8.9605713,15.007019   c-0.3335571,0.4869995-0.6797485,0.9725342-1.2242432,0.9823608c-0.5366821,0.0100708-0.7086792-0.3171387-1.321106-0.3171387   c-0.6119385,0-0.8029785,0.307312-1.3104248,0.3272095c-0.526001,0.0197754-0.927124-0.5273438-1.2627563-1.0123901   c-0.6876221-0.9932251-1.2125244-2.8064575-0.5073853-4.0307617c0.3499146-0.6079102,0.9759521-0.992981,1.6555176-1.0024414   c0.5161133-0.0101318,1.0043945,0.3474731,1.3197632,0.3474731c0.3162231,0,0.9088745-0.4296875,1.5317383-0.3671265   c0.2608643,0.0109863,0.9935303,0.1052246,1.4630737,0.7936401c-0.0377197,0.0231323-0.8739624,0.5106812-0.8643188,1.5223389   c0.0110474,1.2105103,1.0620117,1.6140137,1.0737305,1.6182861C9.5049438,13.8968506,9.3461304,14.4428711,8.9605713,15.007019z    M12.7697754,13.4408569h-1.0575562v1.5611572H11v-4.5755615h1.7913818c0.8848877,0,1.5108032,0.6115112,1.5108032,1.5036011   S13.6690674,13.4408569,12.7697754,13.4408569z M17.3668823,14.994812h-0.6546631v-0.5755615h-0.0144043   c-0.1870117,0.3740845-0.6186523,0.6115112-1.0863037,0.6115112c-0.6978149,0.0072021-1.1726685-0.4028931-1.1726685-1.0144043   c0-0.6043091,0.4676514-0.949585,1.3165283-1.0071411l0.9281006-0.050415V12.692627   c0-0.3956909-0.2662354-0.6115112-0.7194214-0.6115112c-0.3741455,0-0.647522,0.1942749-0.7050781,0.4891968h-0.6402588   c0.0215454-0.6115112,0.5971069-1.0575562,1.3668823-1.0575562c0.8417358,0,1.3812866,0.4460449,1.3812866,1.1223145V14.994812z    M19.7122192,15.1530762c-0.2949829,0.8273315-0.6187134,1.0935059-1.3237305,1.0935059   c-0.050354,0.0072021-0.2158203-0.0072021-0.2733765-0.0143433v-0.5611572   c0.050354,0.0143433,0.1582642,0.0143433,0.2158203,0.0143433c0.3237305,0,0.5108032-0.1366577,0.6259155-0.5036011   l0.050354-0.1798096l-1.2518311-3.4532471h0.7410278l0.8848877,2.8129272h0.0144043l0.8848877-2.8129272H21L19.7122192,15.1530762z   " fill="#303C42"/></g><g/><g/><g/><g/><g/><g/><g/><g/><g/><g/><g/><g/><g/><g/><g/></svg>