<?xml version="1.0" ?><svg enable-background="new 0 0 24 24" id="Layer_1" version="1.1" viewBox="0 0 24 24" xml:space="preserve" xmlns="http://www.w3.org/2000/svg" xmlns:xlink="http://www.w3.org/1999/xlink"><g><path d="M22,3H2C0.8969727,3,0,3.8969727,0,5v14c0,1.1030273,0.8969727,2,2,2h20c1.1030273,0,2-0.8969727,2-2V5   C24,3.8969727,23.1030273,3,22,3z M14,17h-4c-2.7614136,0-5-2.2385864-5-5s2.2385864-5,5-5h4c2.7614136,0,5,2.2385864,5,5   S16.7614136,17,14,17z" fill="#303C42"/><path d="M10,8c-2.2057495,0-4,1.7942505-4,4c0,2.2056885,1.7942505,4,4,4s4-1.7943115,4-4   C14,9.7942505,12.2057495,8,10,8z M7,12c0-1.4828491,1.0842896-2.7095947,2.5-2.9494629v5.8988647   C8.0842896,14.7095337,7,13.4827881,7,12z M10.5,14.9494019V9.0505371C11.9157104,9.2904053,13,10.5171509,13,12   C13,13.4827881,11.9157104,14.7095337,10.5,14.9494019z" fill="#303C42"/></g><g/><g/><g/><g/><g/><g/><g/><g/><g/><g/><g/><g/><g/><g/><g/></svg>