<?xml version="1.0" ?><svg enable-background="new 0 0 24 24" id="Layer_1" version="1.1" viewBox="0 0 24 24" xml:space="preserve" xmlns="http://www.w3.org/2000/svg" xmlns:xlink="http://www.w3.org/1999/xlink"><g><path d="M15.111084,10.6687012h-0.2705688v0.447876h0.2426147c0,0,0.3358765-0.0186768,0.3545532-0.223938   C15.4469604,10.6967163,15.111084,10.6687012,15.111084,10.6687012z" fill="#303C42"/><path d="M16.8932495,12.9920044c-0.2679443,0-0.3494263,0.2023926-0.37323,0.3013306v0.1217651   c0.0234375,0.100708,0.1054688,0.2767334,0.3918457,0.2767334c0.2706299-0.0093384,0.3919067-0.2426147,0.3919067-0.3545532   C17.303772,13.2252808,17.2384644,12.9920044,16.8932495,12.9920044z" fill="#303C42"/><path d="M12.1812744,12.5814819h-0.2612305v1.0357056h0.298584c0,0,0.6157837-0.0373535,0.6157837-0.5131836   C12.8344116,12.6281128,12.1812744,12.5814819,12.1812744,12.5814819z" fill="#303C42"/><path d="M12.1812744,10.6407471h-0.2612305v1.0356445h0.298584c0,0,0.6157837-0.0466309,0.6157837-0.5131836   C12.8344116,10.6780396,12.1812744,10.6407471,12.1812744,10.6407471z" fill="#303C42"/><path d="M14.6259155,12.9360352c-0.2598267,0-0.3447266,0.1400757-0.3706665,0.2706299h0.7158813   C14.9711304,13.206665,14.9711304,12.9360352,14.6259155,12.9360352z" fill="#303C42"/><path d="M22,3H2C0.8969727,3,0,3.8969727,0,5v14c0,1.1030273,0.8969727,2,2,2h20c1.1030273,0,2-0.8969727,2-2V5   C24,3.8969727,23.1030273,3,22,3z M16.2587891,10.4168091H17.52771v0.2985229h-0.8117676v0.3545532h0.74646v0.2892456h-0.74646   v0.3359375h0.821106v0.2799072h-1.2782593V10.4168091z M7.0681152,15.026062C4.819458,15.026062,3,13.7197876,3,12.1149292   s1.819458-2.9111328,4.0681152-2.9111328c0.0689087,0,0.1373291,0.0012207,0.2052612,0.0037231v2.0879517   c-1.0879517-0.0787354-3.5549316,0.4312744-3.5549316,1.5472412c0,0.7277832,1.3062744,1.7915039,3.4336548,1.819519   c0.0839844,0,2.5006104-0.0933228,2.4632568-2.6872559C9.5840454,9.7964478,7.9534302,9.414856,7.4320068,9.3483887V9.2155762   c2.0787354,0.131958,3.713623,1.3820801,3.713623,2.899353C11.1456299,13.7197876,9.3167725,15.026062,7.0681152,15.026062z    M7.2733765,11.3537598v3.1218262c0,0-1.8101196-0.3265381-1.8101196-1.5675659   C5.4632568,11.918335,6.8032227,11.4821167,7.2733765,11.3537598z M12.4145508,13.9064331h-0.9517212v-1.5395508h0.9330444   c0,0,0.9237671-0.0186768,0.9144287,0.8210449C13.3009644,13.8131104,12.4145508,13.9064331,12.4145508,13.9064331z    M12.4145508,11.9656372h-0.9517212v-1.5394897h0.9330444c0,0,0.9237671-0.0187378,0.9144287,0.8210449   C13.3009644,11.8723755,12.4145508,11.9656372,12.4145508,11.9656372z M13.5528564,10.4168091h0.447876v1.5581665h-0.447876   V10.4168091z M14.663208,13.7105103c0.3919067,0.0092773,0.6158447-0.1400146,0.6158447-0.1400146v0.2892456   c0,0-0.4292603,0.1026611-0.6344604,0.1026611c-0.2145996,0-0.8491211-0.0466309-0.8491211-0.6344604   c0-0.4758911,0.522522-0.6251831,0.821106-0.6251831c0.5224609,0.0186768,0.7744141,0.2052612,0.7650757,0.7371216   c0,0.0078735-0.8596802,0.0020752-1.1275024,0.0001831C14.2803345,13.5622559,14.3685913,13.6967773,14.663208,13.7105103z    M15.5216064,11.9749756c0,0-0.074646-0.0932617-0.1119385-0.1585693   c-0.0280151-0.0653076-0.1119995-0.2053223-0.1119995-0.2053223s-0.0653076-0.2332764-0.2892456-0.2332764   c-0.0056152,0-0.0968628-0.003418-0.1679077-0.0061646v0.6033325h-0.447876v-1.5581665h0.7371216   c0,0,0.7650757-0.0373535,0.7650757,0.4105225c0,0.3825684-0.4385376,0.4105225-0.4385376,0.4105225   s0.1212769,0.0186768,0.1773071,0.1026611c0.0466309,0.074646,0.3545532,0.6344604,0.3545532,0.6344604H15.5216064z    M17.0238647,13.953064c-0.2536621,0-0.4089355-0.0865479-0.5038452-0.1941528v0.1568604h-0.4572144v-1.6795044h0.4572144   v0.6781616c0.1034546-0.1122437,0.2773438-0.2023315,0.5691528-0.2023315c0.5784912,0,0.671814,0.4852295,0.6624756,0.6158447   S17.6956787,13.953064,17.0238647,13.953064z M18.9926147,13.9157715h-0.4572144v-1.1849976h0.4572144V13.9157715z    M18.9926147,12.5534668h-0.4572144v-0.3171997h0.4572144V12.5534668z M18.7313232,11.6950684   c0.3172607,0,0.5039063-0.0559692,0.5039063-0.0559692l0.0466309,0.298584c0,0-0.1399536,0.0653076-0.5598145,0.0653076   c-0.4199219,0-1.1010132-0.2053223-1.1010132-0.8024292c0-0.6065063,0.6437988-0.8304443,1.0449829-0.8304443   c0.4105835,0,0.6438599,0.1026611,0.6438599,0.1026611l-0.0560303,0.2705688c0,0-0.2145996-0.0839844-0.4945068-0.0839844   c-0.3638916,0-0.6437988,0.2706299-0.6531372,0.5131836C18.1062012,11.4431152,18.4234619,11.68573,18.7313232,11.6950684z    M20.5134888,13.953064c-0.1399536,0-0.5038452-0.0839844-0.5038452-0.4385376c0-0.1443481,0-0.3491211,0-0.5411377h-0.3825684   v-0.2426147h0.3825684c0-0.1677246,0-0.2892456,0-0.2892456h0.4664917v0.2892456h0.3825684v0.2426147h-0.3825684v0.4664917   c0,0,0,0.2332764,0.1866455,0.2332764c0.1865845,0,0.1959229-0.0279541,0.1959229-0.0279541l0.0093384,0.2612305   C20.868042,13.9064331,20.6534424,13.953064,20.5134888,13.953064z M20.9893799,10.6780396h-0.5505371v1.296936h-0.4572144   v-1.296936h-0.5411377v-0.2706299h1.5488892V10.6780396z" fill="#303C42"/></g><g/><g/><g/><g/><g/><g/><g/><g/><g/><g/><g/><g/><g/><g/><g/></svg>