<?xml version="1.0" ?><svg enable-background="new 0 0 24 24" id="Layer_1" version="1.1" viewBox="0 0 24 24" xml:space="preserve" xmlns="http://www.w3.org/2000/svg" xmlns:xlink="http://www.w3.org/1999/xlink"><g><path d="M16.5,12c0-2.578125-0.2661133-4.2885742-0.4038086-5h-1.5039063   c0.1357422,0.8789063,0.3647461,2.659668,0.40625,4.9077148l0.0425415,0.1170044   c0.5557861,1.1118164,0.9846191,2.1211548,1.3156128,3.079834C16.4365234,14.2781982,16.5,13.2473755,16.5,12z" fill="#303C42"/><path d="M10.019043,11.9970703l0.0811157,0.2838745c0.1877441,0.4821167,0.3393555,0.963562,0.4594727,1.4085083   c0.1098022-0.3986816,0.2166748-0.8085327,0.3173218-1.1977539c0.0854492-0.331543,0.1660156-0.6435547,0.2402344-0.9150391   l-0.7451172-1.3583984C10.3012695,10.7470703,10.1904297,11.3579102,10.019043,11.9970703z" fill="#303C42"/><path d="M22,3H2C0.8969727,3,0,3.8969727,0,5v14c0,1.1030273,0.8969727,2,2,2h20c1.1030273,0,2-0.8969727,2-2V5   C24,3.8969727,23.1030273,3,22,3z M16.9838867,17.6259766c-0.0008545,0.0032959-0.0043945,0.0049438-0.0053101,0.0082397   c-0.0184937,0.0658569-0.0477905,0.1290283-0.0923462,0.1831665c-0.0140991,0.0172119-0.0352783,0.0250244-0.0513306,0.0400391   c-0.0189819,0.0178833-0.0369263,0.0309448-0.0584717,0.0456543c-0.0671997,0.0460815-0.1409302,0.0756226-0.2225952,0.0848389   c-0.0112305,0.0012817-0.0189819,0.0110474-0.0303955,0.0115967C16.515625,18,16.5078125,18,16.5,18H14   c-0.2387695,0-0.4438477-0.168457-0.4902344-0.402832c-0.2920532-1.47229-0.8234253-2.9835205-1.6878662-4.7663574   c-0.2546997,0.9882202-0.5418091,2.0881348-0.8594971,2.8596191c-0.0064087,0.0154419-0.022644,0.022522-0.0303955,0.0370483   c-0.0111694,0.0213623-0.0128784,0.0462036-0.0272217,0.065979c-0.0238037,0.0328369-0.0595703,0.0512695-0.0898438,0.0769043   c-0.0214844,0.0183105-0.0375977,0.0383911-0.0617676,0.0527954C10.6765137,15.9691162,10.5917969,16,10.5,16H8   c-0.2163086,0-0.4082031-0.1391602-0.4755859-0.3447266c-0.0532227-0.1640625-0.1137695-0.4160156-0.1870117-0.7275391   c-0.2626953-1.1137695-0.7021484-2.9785156-1.7084961-4.0927734c-0.1323242-0.1464844-0.1660156-0.3574219-0.0859375-0.5380859   C5.6235352,10.1162109,5.8022461,10,6,10h2.5c0.1416016,0,0.2763672,0.0600586,0.3710938,0.1650391   c0.149353,0.1654053,0.2870483,0.3426514,0.414917,0.5279541C9.4866333,9.5787964,9.5,8.7064819,9.5,8.5   c0-0.0794678,0.024231-0.1522217,0.0579224-0.2198486c0.0040283-0.0081787,0.0020142-0.0177612,0.0065308-0.0257568   c0.0040283-0.0071411,0.0122681-0.0100098,0.0166016-0.0169067c0.0407104-0.0649414,0.0927734-0.1209106,0.1589966-0.1615601   C9.7504883,8.069519,9.7617188,8.0670776,9.772583,8.0614624c0.0333252-0.017334,0.0657959-0.0361938,0.1033936-0.0458374   c0.0327759-0.008606,0.0654297-0.006897,0.0982666-0.008667C9.9833984,8.0064697,9.9907837,8,10,8h2.5   c0.1748047,0,0.3369141,0.0913086,0.4277344,0.2407227c0.3551025,0.5864258,0.675293,1.1367188,0.9786377,1.6705322   c-0.1434326-1.9883423-0.3937378-3.2985229-0.3970947-3.3155518c-0.0288086-0.1464844,0.0097656-0.2983398,0.1049805-0.4135742   C13.7089844,6.0668945,13.8505859,6,14,6h2.5c0.2275391,0,0.4267578,0.1538086,0.4838867,0.3740234   C17.0048828,6.4550781,17.5,8.3979492,17.5,12S17.0048828,17.5449219,16.9838867,17.6259766z" fill="#303C42"/></g><g/><g/><g/><g/><g/><g/><g/><g/><g/><g/><g/><g/><g/><g/><g/></svg>