<?xml version="1.0" ?><svg enable-background="new 0 0 24 24" id="Layer_1" version="1.1" viewBox="0 0 24 24" xml:space="preserve" xmlns="http://www.w3.org/2000/svg" xmlns:xlink="http://www.w3.org/1999/xlink"><g><path d="M22,3H2C0.8974609,3,0,3.8969727,0,5v14c0,1.1030273,0.8974609,2,2,2h20c1.1025391,0,2-0.8969727,2-2V5   C24,3.8969727,23.1025391,3,22,3z M8.5617676,15.9152832c0,0.06427-0.003479,0.1278687-0.008667,0.1912842v0.0004272   c-0.0237427,0.2906494-0.1029663,0.571106-0.2599487,0.833252c-0.2817993,0.4710083-0.7893677,0.8311157-1.3654175,0.9770508   c-0.2930298,0.0742798-0.5866699,0.0786743-0.8859863,0.0786743c-0.0403442,0-0.0807495-0.000061-0.1213379-0.000061   c-0.484314,0-0.9683228,0-1.4523926-0.0002441c-0.4891968,0-0.9785156,0-1.4678345,0v-3.8224487   c0.024292,0.010376,0.0494995,0.0194092,0.0764771,0.0253906c0.0891724,0.0194702,0.1935425,0.0415649,0.3004761,0.057373   c0.5836792,0.0865479,1.0409546,0.133728,1.4819946,0.1530151c0.1011963,0.0044556,0.2036743,0.0065308,0.3136597,0.0065308   c0.1228638,0,0.2570801-0.0023804,0.4221191-0.0080566c0.140625-0.0046997,0.2640991-0.0123291,0.3777466-0.0232544   c0.0431519-0.0042725,0.0852051-0.0075073,0.1268921-0.0108643c0.0975952-0.0076904,0.1984863-0.0157471,0.3041382-0.0333252   c0.442749-0.0739136,1.0494385-0.250061,1.4249878-0.6696777c0.2971802-0.3317871,0.3594971-0.7371826,0.3594971-1.0187378   v-2.112854c0-0.1897583-0.1727905-0.3436279-0.3860474-0.3436279H6.3325195c-0.2132568,0-0.3860474,0.1538696-0.3860474,0.3436279   l-0.0067749,2.2322388c-0.0411377,0.2996216-0.2351074,0.5453491-0.5062866,0.6410522   c-0.0037231,0.0012817-0.0075073,0.0026245-0.0111694,0.0042114c-0.1598511,0.0617065-0.3443604,0.0917358-0.5639038,0.0917358   c-0.121582,0-0.2543335-0.0088501-0.4178467-0.027771c-0.3570557-0.0414429-0.7438965-0.1397095-1.1188354-0.2845459   c-0.0490723-0.0188599-0.1011963-0.0281982-0.1531372-0.0281982c-0.0579224,0-0.1156006,0.0115356-0.1685181,0.0343628V8.2225342   c0-0.3201904,0.0183105-0.630249,0.1482544-0.9356689c0.2298584-0.5408936,0.7568359-1.0050659,1.3798218-1.1813965   c0.2325439-0.0658569,0.4682007-0.1052856,0.7128296-0.1052856h3.3208618V15.9152832z M14.7880859,6.5013428v9.0221558   c0,0.1429443,0,0.2856445,0,0.4285278c0,0.0673218-0.0009155,0.1344604-0.006897,0.2017822   c-0.0321655,0.3671875-0.1828613,0.6866455-0.4031372,0.992981c-0.3249512,0.3917236-0.7617188,0.6505737-1.2836914,0.7890625   C12.8577271,17.9928589,12.6160278,18,12.3734741,18c-0.0806885,0-0.161499-0.0007935-0.2422485-0.0007935   c-0.4833984,0-0.9666748,0-1.4500732,0c-0.4869995,0-0.9736938,0-1.4605713,0l-0.0025024-4.1557007   c0.1264648,0.0780029,0.2555542,0.1390991,0.3684082,0.1882324c0.2805786,0.1221924,0.5568848,0.2086182,0.8453369,0.2637329   c0.2661133,0.0510254,0.526001,0.0774536,0.7451172,0.0964355c0.1708984,0.0148926,0.3406372,0.0179443,0.5429077,0.0179443   H11.72052l0.1990356-0.0003052c0.2272339,0,0.4849243,0,0.7359619-0.0264893   c0.4089966-0.0432129,0.8481445-0.0965576,1.2902222-0.1919556c0.1729126-0.0374756,0.2947998-0.175415,0.2947998-0.3339233   v-0.3599243c0-0.1159668-0.0657349-0.2240601-0.1747437-0.2875977c-0.0635986-0.0370483-0.137085-0.0559692-0.2110596-0.0559692   c-0.0525513,0-0.1053467,0.0095825-0.1550293,0.0289307c-0.3885498,0.1513672-0.8141479,0.2505493-1.3015137,0.3032837   c-0.0767212,0.0083008-0.1547241,0.0125122-0.2348022,0.0125122c-0.2159424,0-0.4466553-0.0304565-0.7050781-0.0924072   l-0.0021973-0.0006104c-0.3183594-0.1013794-0.5615845-0.2739258-0.7039795-0.4994507   c-0.1756592-0.2786865-0.223877-0.675293-0.1243896-1.0389404c0.0718384-0.27771,0.2791138-0.5368042,0.5280151-0.6600952   c0.005249-0.0026245,0.0103149-0.005249,0.0155029-0.0080566c0.182373-0.1004639,0.4108276-0.1639404,0.6982422-0.1942749   c0.0959473-0.0100098,0.1997681-0.0150146,0.3070679-0.0149536c0.145813,0,0.2980347,0.0091553,0.4456787,0.0274048   c0.3807983,0.0471191,0.7473145,0.1380615,1.0895386,0.2703857c0.0492554,0.019043,0.1016846,0.0284424,0.1538696,0.0284424   c0.0741577,0,0.1478882-0.0189819,0.211731-0.0562744c0.1087646-0.0634766,0.1742554-0.1715088,0.1742554-0.2872925v-0.3535156   c0-0.1624146-0.1276855-0.3027344-0.3064575-0.3361816c-0.0299072-0.0056763-0.0592041-0.0106812-0.0872803-0.0152588   l-0.1052246-0.0169067c-0.4634399-0.074646-0.9014893-0.1450806-1.3676758-0.1638184   c-0.1558838-0.0062256-0.322876-0.0093384-0.4946289-0.0093384c-0.0770874,0-0.1551514,0.0006104-0.2335815,0.0018921   c-0.2440796,0.0039673-0.496582,0.0080566-0.7442017,0.0447998l-0.098999,0.0145874   c-0.2231445,0.0324707-0.4337769,0.0631104-0.6520996,0.1184692c-0.3566895,0.0903931-0.6662598,0.2193604-0.9447021,0.392395   l-0.0022583-2.244812c0-0.3649292-0.019165-0.7354126,0.1331787-1.0830078   c0.2218018-0.5831909,0.7768555-1.0250854,1.4200439-1.2236328C11.0661621,6.0057983,11.3746948,6,11.6851196,6   c0.0449219,0,0.0898438,0.0001221,0.1348267,0.0001221c0.4846191,0,0.9691162,0,1.4537354,0h1.5144043   C14.7880859,6.1671753,14.7880859,6.3342896,14.7880859,6.5013428z M21,6.4306641v9.0213623c0,0.1578979,0,0.3157959,0,0.4737549   c0,0.3795166-0.0894165,0.7418823-0.3028564,1.0736084c-0.3035889,0.4713135-0.8243408,0.8024902-1.4108887,0.9403687   c-0.2202148,0.0516357-0.446106,0.0587158-0.6723022,0.0587158c-0.0858765,0-0.171875-0.0009766-0.2575073-0.0009766   c-0.484375,0-0.9685669,0-1.4530029,0c-0.4874268,0-0.9750977,0-1.4627075,0l-0.0041504-3.729248   c0.0508423,0.0221558,0.1074219,0.0356445,0.1680908,0.0356445h2.6824951c0.0705566,0,0.1413574,0.0010986,0.2124023,0.0023804   c0.0737915,0.0011597,0.147583,0.0024414,0.2213135,0.0024414c0.1296387,0,0.2354126-0.0040283,0.3331299-0.0124512   c0.2654419-0.0231323,0.6030273-0.0725098,0.8683472-0.25c0.1608887-0.0772705,0.2783813-0.215332,0.3736572-0.3425903   c0.130127-0.1756592,0.187561-0.4137573,0.1577148-0.6529541c-0.059082-0.472229-0.4497681-0.7515259-0.8890381-0.8878784   c0.19104-0.0900269,0.3464966-0.2126465,0.4521484-0.361145c0.2559204-0.374939,0.2337646-0.8300171-0.0565796-1.1594849   c-0.0025024-0.0026245-0.0048828-0.0053101-0.0073853-0.0079346c-0.267395-0.2855225-0.6567993-0.3887329-0.9360962-0.4249268   c-0.1696167-0.0219727-0.336853-0.0264893-0.5370483-0.0264893l-2.8815308,0.0004883   c-0.0584106,0-0.1146851,0.0129395-0.1665649,0.0349731l-0.0020142-2.2098999c0-0.3237305,0.0842285-0.6456909,0.2539063-0.9326172   c0.1472168-0.2489624,0.3511963-0.4689941,0.5991821-0.6436768c0.2124634-0.1503296,0.4475098-0.2437134,0.6964722-0.3342896   c0.319458-0.0940552,0.9140015-0.0979004,1.0081177-0.0979004C17.9956055,5.999939,18,6,18,6l3,0.0012817   C21,6.1455078,21,6.286377,21,6.4306641z M17.9935303,11.6383057c-0.0957031,0.09729-0.2320557,0.1177979-0.3366089,0.1177979   c-0.036377,0.0005493-0.0762329,0.0007324-0.1159668,0.0007324l-0.9106445-0.0010986v-0.699707h0.9401855   c0.0148315-0.0002441,0.0288696-0.0004272,0.0421143-0.0004272c0.1219482,0,0.1766357,0.0115967,0.1862793,0.0131226   c0.1081543,0.0166626,0.2149658,0.1018677,0.2648315,0.2098999C18.1165161,11.3950806,18.0875854,11.5429688,17.9935303,11.6383057   z M18.2401733,13.013916c0,0.1100464-0.0720215,0.3927002-0.5302124,0.3927002l-1.0794678-0.0010986v-0.7815552   l1.0591431-0.0006104c0.154541,0,0.269043,0.0115356,0.3666992,0.0714111   C18.1715088,12.7630615,18.2401733,12.8822632,18.2401733,13.013916z" fill="#303C42"/></g></svg>