<?xml version="1.0" ?><svg enable-background="new 0 0 24 24" id="Layer_1" version="1.1" viewBox="0 0 24 24" xml:space="preserve" xmlns="http://www.w3.org/2000/svg" xmlns:xlink="http://www.w3.org/1999/xlink"><g><path d="M10.5,10.75c0,1.359436,0.581543,2.5789795,1.5,3.4456787c0.918457-0.8666992,1.5-2.0862427,1.5-3.4456787   S12.918457,8.1710205,12,7.3043213C11.081543,8.1710205,10.5,9.390564,10.5,10.75z" fill="#303C42"/><g><path d="M9.4611816,16.7565308c-0.2792358,0-0.4498901,0.2140503-0.4498901,0.4747314    s0.1706543,0.4747314,0.4498901,0.4747314c0.2668457,0,0.4468384-0.2047729,0.4468384-0.4747314    S9.7280273,16.7565308,9.4611816,16.7565308z" fill="#303C42"/><path d="M11.2575684,16.7410278c-0.2296143,0-0.3599243,0.145813-0.394104,0.3599243h0.7695923    C11.598877,16.8713379,11.4654541,16.7410278,11.2575684,16.7410278z" fill="#303C42"/><path d="M17.449646,16.8881836c-0.0418091-0.0418091-0.0911255-0.0742798-0.1478882-0.0975342    s-0.1182251-0.0348511-0.1843262-0.0348511c-0.06604,0-0.1275024,0.0115967-0.1842651,0.0348511    c-0.0568237,0.0232544-0.105896,0.0557251-0.1471558,0.0975342c-0.0413208,0.0418701-0.0738525,0.09198-0.0975952,0.1502686    c-0.0237427,0.0583496-0.0355835,0.1226196-0.0355835,0.1928101c0,0.0702515,0.0118408,0.1345215,0.0355835,0.1928711    c0.0237427,0.0582886,0.0562744,0.1083984,0.0975952,0.1502075c0.0412598,0.0418091,0.090332,0.0743408,0.1471558,0.0975952    c0.0567627,0.0232544,0.1182251,0.0348511,0.1842651,0.0348511c0.0661011,0,0.1275635-0.0115967,0.1843262-0.0348511    s0.1060791-0.0557861,0.1478882-0.0975952s0.074585-0.0919189,0.0983887-0.1502075    c0.0237427-0.0583496,0.0356445-0.1226196,0.0356445-0.1928711c0-0.0701904-0.0119019-0.1344604-0.0356445-0.1928101    C17.524231,16.9801636,17.4914551,16.9300537,17.449646,16.8881836z" fill="#303C42"/><path d="M22,3H2C0.8969727,3,0,3.8969727,0,5v14c0,1.1030273,0.8969727,2,2,2h20c1.1030273,0,2-0.8969727,2-2V5    C24,3.8969727,23.1030273,3,22,3z M8.3937378,17.9729004H8.0679321V17.147522    c0-0.2514038-0.1054688-0.3909912-0.3258057-0.3909912c-0.2141113,0-0.3630371,0.1364746-0.3630371,0.394043v0.8223267H7.0532837    V17.147522c0-0.2514038-0.1086426-0.3909912-0.3227539-0.3909912c-0.2202759,0-0.3630371,0.1364746-0.3630371,0.394043v0.8223267    H6.041687V16.489624h0.3226929v0.1831055c0.1210327-0.1737671,0.2761841-0.2203369,0.4344482-0.2203369    c0.2265015,0,0.3878784,0.0993042,0.4902344,0.2637939c0.1365356-0.2079468,0.3320313-0.2668457,0.5213623-0.2637939    c0.3599243,0.0031128,0.583313,0.2389526,0.583313,0.5895996V17.9729004z M10.2121582,17.2312622v0.7416382H9.8894043v-0.1799927    c-0.102417,0.1334229-0.2575073,0.2172241-0.4685669,0.2172241c-0.4157715,0-0.7415771-0.3258057-0.7415771-0.7788696    c0-0.4530029,0.3258057-0.7788696,0.7415771-0.7788696c0.2110596,0,0.3661499,0.0838013,0.4685669,0.2172241V16.489624h0.3227539    V17.2312622z M11.9619751,17.3553467h-1.1016235c0.0465698,0.2669067,0.2358398,0.3630981,0.4437866,0.3630981    c0.1489258,0,0.3071899-0.0558472,0.4312744-0.1551514l0.1582642,0.2389526    c-0.1799316,0.1520386-0.3847656,0.2078857-0.6081543,0.2078857c-0.4437256,0-0.7602539-0.3071899-0.7602539-0.7788696    c0-0.4623413,0.3040771-0.7788696,0.7385254-0.7788696c0.4157715,0,0.7012939,0.3165283,0.7043457,0.7788696    C11.9681396,17.2747192,11.9650879,17.3150635,11.9619751,17.3553467z M12.8276367,18.0101318    c-0.2420044,0-0.4654541-0.0620728-0.642334-0.1923828l0.1520386-0.2513428    c0.1086426,0.0837402,0.2700195,0.1551514,0.4934082,0.1551514c0.2202759,0,0.3381958-0.0651855,0.3381958-0.1799927    c0-0.0838013-0.0837402-0.1303101-0.2606201-0.1551514l-0.1520386-0.0217285    c-0.3320313-0.0465088-0.5120239-0.1954956-0.5120239-0.4375c0-0.2947998,0.2420654-0.4747925,0.6174927-0.4747925    c0.2358398,0,0.4499512,0.0527954,0.6051025,0.1552124l-0.1396484,0.2606201    c-0.0899658-0.0558472-0.2730713-0.1271973-0.4623413-0.1271973c-0.1768799,0-0.2823486,0.0651245-0.2823486,0.1737671    c0,0.0993042,0.1116943,0.1271973,0.2513428,0.145813l0.1520386,0.0217285    c0.3226929,0.0465088,0.5181885,0.1830444,0.5181885,0.4437256    C13.5040894,17.8084106,13.2558594,18.0101318,12.8276367,18.0101318z M14.5396729,18.0101318    c-0.3816528,0-0.5150757-0.2047729-0.5150757-0.5492554v-0.6764526h-0.3010254V16.489624h0.3010254l-0.0001221-0.4498901    h0.3258057l0.0001221,0.4498901h0.5274658v0.2947998h-0.5274658v0.6702881c0,0.1489258,0.0527344,0.24823,0.2141113,0.24823    c0.0837402,0,0.18927-0.0279541,0.2854614-0.0838013l0.0930786,0.2761841    C14.8406372,17.9666748,14.6793213,18.0101318,14.5396729,18.0101318z M16.125061,16.796875    c-0.0682373-0.0279541-0.1365356-0.0372925-0.2016602-0.0372925c-0.2110596,0-0.3165894,0.1365356-0.3165894,0.3817139v0.831604    h-0.3226929V16.489624h0.3196411v0.1799927c0.0837345-0.1303101,0.2047729-0.2172241,0.3909912-0.2172241    c0.0651245,0,0.1582031,0.0124512,0.2296143,0.0403442L16.125061,16.796875z M17.8562012,17.5410156    c-0.0402222,0.0950317-0.0960083,0.1773682-0.1672363,0.2470703s-0.1556396,0.1243896-0.2532349,0.1641235    c-0.0975952,0.0397949-0.2036743,0.0596924-0.3182983,0.0596924c-0.114563,0-0.2207031-0.0198975-0.3182983-0.0596924    c-0.0975952-0.0397339-0.1817017-0.0944214-0.2524414-0.1641235s-0.1262207-0.1520386-0.1665039-0.2470703    c-0.0402222-0.0949707-0.0603638-0.1981812-0.0603638-0.3097534c0-0.1115112,0.0201416-0.2147217,0.0603638-0.3097534    c0.0402832-0.0949707,0.0957642-0.1773071,0.1665039-0.2470093s0.1548462-0.1244507,0.2524414-0.1641846    s0.2037354-0.0596313,0.3182983-0.0596313c0.114624,0,0.2207031,0.0198975,0.3182983,0.0596313    s0.1820068,0.0944824,0.2532349,0.1641846s0.1270142,0.1520386,0.1672363,0.2470093    c0.0403442,0.0950317,0.0604858,0.1982422,0.0604858,0.3097534C17.916687,17.3428345,17.8965454,17.4460449,17.8562012,17.5410156    z M15.25,15.5c-1.2597046,0-2.3989868-0.5012817-3.25-1.3043213C11.1489868,14.9987183,10.0097046,15.5,8.75,15.5    C6.1308594,15.5,4,13.3691406,4,10.75S6.1308594,6,8.75,6c1.2597046,0,2.3989868,0.5012817,3.25,1.3043213    C12.8510132,6.5012817,13.9902954,6,15.25,6C17.8691406,6,20,8.1308594,20,10.75S17.8691406,15.5,15.25,15.5z" fill="#303C42"/></g></g><g/><g/><g/><g/><g/><g/><g/><g/><g/><g/><g/><g/><g/><g/><g/></svg>