<?xml version="1.0" ?><svg enable-background="new 0 0 24 24" id="Layer_1" version="1.1" viewBox="0 0 24 24" xml:space="preserve" xmlns="http://www.w3.org/2000/svg" xmlns:xlink="http://www.w3.org/1999/xlink"><g><path d="M12.038147,16.7518311c-0.2258301,0-0.3540039,0.1434326-0.3875732,0.3540039h0.7568359   C12.3738403,16.8800049,12.2426147,16.7518311,12.038147,16.7518311z" fill="#303C42"/><path d="M7.3629761,16.7670898c-0.2746582,0-0.4425049,0.2105713-0.4425049,0.4668579   c0,0.2563477,0.1678467,0.4669189,0.4425049,0.4669189c0.2623901,0,0.4393921-0.201355,0.4393921-0.4669189   C7.8023682,16.9685059,7.6253662,16.7670898,7.3629761,16.7670898z" fill="#303C42"/><path d="M16.3166504,16.7670898c-0.2747192,0-0.4425659,0.2105713-0.4425659,0.4668579   c0,0.2563477,0.1678467,0.4669189,0.4425659,0.4669189c0.2623901,0,0.4393921-0.201355,0.4393921-0.4669189   C16.7560425,16.9685059,16.5790405,16.7670898,16.3166504,16.7670898z" fill="#303C42"/><path d="M22,3H2C0.8969727,3,0,3.8969727,0,5v14c0,1.1030273,0.8969727,2,2,2h20c1.1030273,0,2-0.8969727,2-2V5   C24,3.8969727,23.1030273,3,22,3z M6.3131714,17.9633789H5.9927368v-0.8117676   c0-0.2471924-0.1037598-0.3845215-0.3203735-0.3845215c-0.2105713,0-0.3570557,0.1342773-0.3570557,0.3875732v0.8087158H4.994873   v-0.8117676c0-0.2471924-0.1068115-0.3845215-0.3173828-0.3845215c-0.2166748,0-0.3570557,0.1342773-0.3570557,0.3875732v0.8087158   H4v-1.4587402h0.3173828v0.1800537c0.1190186-0.1708984,0.2716064-0.2166748,0.4272461-0.2166748   c0.2227783,0,0.3814697,0.0976563,0.4821777,0.2593994c0.1342773-0.2044678,0.3265381-0.2624512,0.5126343-0.2593994   c0.3540039,0.0030518,0.5737305,0.2349854,0.5737305,0.579834V17.9633789z M8.1015015,17.2339478v0.7294312H7.7841187v-0.177063   C7.6834106,17.9175415,7.5308228,18,7.3233032,18c-0.4089355,0-0.7293701-0.3204956-0.7293701-0.7660522   c0-0.4454956,0.3204346-0.7659302,0.7293701-0.7659302c0.2075195,0,0.3601074,0.0823975,0.4608154,0.213623v-0.177002h0.3173828   V17.2339478z M9.0413818,18c-0.2380371,0-0.4577637-0.0610962-0.6317139-0.18927l0.1495361-0.2471924   c0.1068115,0.0824585,0.2655029,0.1526489,0.4852295,0.1526489c0.2166748,0,0.3326416-0.0641479,0.3326416-0.177063   c0-0.0823975-0.0823975-0.1281738-0.2563477-0.1525269l-0.1495361-0.0213623   c-0.3265381-0.0457764-0.503479-0.1922607-0.503479-0.4302979c0-0.289917,0.2379761-0.4669189,0.6072388-0.4669189   c0.2319336,0,0.4425049,0.0518799,0.5950928,0.1525879l-0.1373291,0.2563477   c-0.088501-0.0549316-0.2685547-0.1251221-0.4547119-0.1251221c-0.1739502,0-0.27771,0.0640869-0.27771,0.1708984   c0,0.0976563,0.1098633,0.1251221,0.2471924,0.1434326l0.1495361,0.0213623   c0.3173828,0.0457764,0.5096436,0.1800537,0.5096436,0.4364014C9.706665,17.8015747,9.4625244,18,9.0413818,18z M10.7229004,18   c-0.3753662,0-0.5065918-0.2014771-0.5065918-0.5401611v-0.6652832H9.9202881v-0.289917h0.2960205v-0.4425049h0.3204346v0.4425049   h0.5187378v0.289917h-0.5187378v0.6591797c0,0.1464233,0.0518799,0.2441406,0.2105713,0.2441406   c0.0823364,0,0.1860962-0.0274658,0.2807617-0.0823975l0.0914917,0.2716064C11.0188599,17.9572144,10.8602295,18,10.7229004,18z    M12.730896,17.3560181h-1.083374c0.0457764,0.2625122,0.2319336,0.3570557,0.4364014,0.3570557   c0.1464844,0,0.302124-0.0548706,0.4241943-0.1525269l0.1556396,0.2349243C12.4867554,17.9450073,12.2853394,18,12.0656128,18   c-0.4364014,0-0.7476807-0.302124-0.7476807-0.7660522c0-0.4546509,0.2990723-0.7659302,0.7263184-0.7659302   c0.4089355,0,0.6896973,0.3112793,0.692749,0.7659302C12.7369995,17.2767334,12.7339478,17.3164063,12.730896,17.3560181z    M13.8905029,16.8067627c-0.0670776-0.0274658-0.1342773-0.0366211-0.1983032-0.0366211   c-0.2075806,0-0.3113403,0.1342773-0.3113403,0.3753662v0.8178711h-0.3173218v-1.4587402h0.3143311v0.177002   c0.0823364-0.1281738,0.201416-0.213623,0.3844604-0.213623c0.0640869,0,0.1556396,0.012207,0.2258301,0.0396729   L13.8905029,16.8067627z M14.8518066,17.7008667c0.1373291,0,0.2624512-0.0457153,0.3814697-0.1312256l0.1525879,0.2563477   C15.2271729,17.9511719,15.0806885,18,14.8609619,18c-0.4699707,0-0.7781982-0.3234863-0.7781982-0.7660522   c0-0.4424438,0.3082275-0.7659302,0.7781982-0.7659302c0.2197266,0,0.3662109,0.0488281,0.5249023,0.1739502l-0.1525879,0.2563477   c-0.1190186-0.0854492-0.2441406-0.1312256-0.3814697-0.1312256c-0.2532959,0.0030518-0.4394531,0.1861572-0.4394531,0.4668579   C14.4123535,17.5147095,14.5985107,17.697876,14.8518066,17.7008667z M17.0551147,17.2339478v0.7294312h-0.3173828v-0.177063   C16.6370239,17.9175415,16.484436,18,16.2769165,18c-0.4088745,0-0.7293091-0.3204956-0.7293091-0.7660522   c0-0.4454956,0.3204346-0.7659302,0.7293091-0.7659302c0.2075195,0,0.3601074,0.0823975,0.4608154,0.213623v-0.177002h0.3173828   V17.2339478z M18.3002319,16.8067627c-0.0671387-0.0274658-0.1342773-0.0366211-0.1984253-0.0366211   c-0.2074585,0-0.3112183,0.1342773-0.3112183,0.3753662v0.8178711h-0.3173828v-1.4587402h0.3143311v0.177002   c0.0823975-0.1281738,0.201416-0.213623,0.3845215-0.213623c0.0640259,0,0.1556396,0.012207,0.2258301,0.0396729   L18.3002319,16.8067627z M20,17.2339478v0.7294312h-0.3173828v-0.177063C19.5819092,17.9175415,19.4293213,18,19.2218018,18   c-0.4089355,0-0.7293701-0.3204956-0.7293701-0.7660522c0-0.4454956,0.3204346-0.7659302,0.7293701-0.7659302   c0.2075195,0,0.3601074,0.0823975,0.4608154,0.213623v-0.7628784H20V17.2339478z M15.25,15.5   c-1.2597046,0-2.3989868-0.5012817-3.25-1.3043213C11.1489868,14.9987183,10.0097046,15.5,8.75,15.5   C6.1308594,15.5,4,13.3691406,4,10.75S6.1308594,6,8.75,6c1.2597046,0,2.3989868,0.5012817,3.25,1.3043213   C12.8510132,6.5012817,13.9902954,6,15.25,6C17.8691406,6,20,8.1308594,20,10.75S17.8691406,15.5,15.25,15.5z" fill="#303C42"/><path d="M19.2614746,16.7670898c-0.2746582,0-0.4424438,0.2105713-0.4424438,0.4668579   c0,0.2563477,0.1677856,0.4669189,0.4424438,0.4669189c0.2624512,0,0.4394531-0.201355,0.4394531-0.4669189   C19.7009277,16.9685059,19.5239258,16.7670898,19.2614746,16.7670898z" fill="#303C42"/><path d="M12,7.3043213C11.081543,8.1710205,10.5,9.390564,10.5,10.75s0.581543,2.5789795,1.5,3.4456787   c0.918457-0.8666992,1.5-2.0862427,1.5-3.4456787S12.918457,8.1710205,12,7.3043213z" fill="#303C42"/></g><g/><g/><g/><g/><g/><g/><g/><g/><g/><g/><g/><g/><g/><g/><g/></svg>