<?xml version="1.0" ?><svg enable-background="new 0 0 24 24" id="Layer_1" version="1.1" viewBox="0 0 24 24" xml:space="preserve" xmlns="http://www.w3.org/2000/svg" xmlns:xlink="http://www.w3.org/1999/xlink"><g><path d="M13.5,11c0-1.6568604-1.1192627-3-2.5-3v6C12.3807373,14,13.5,12.6568604,13.5,11z" fill="#303C42"/><path d="M15,10h-1v2h1c0.3056641,0,1-0.3779297,1-1S15.3056641,10,15,10z" fill="#303C42"/><path d="M22,3H2C0.8969727,3,0,3.8969727,0,5v14c0,1.1030273,0.8969727,2,2,2h20c1.1030273,0,2-0.8969727,2-2V5   C24,3.8969727,23.1030273,3,22,3z M16.5,14H14v2h-3v-2H8.5v2h-3V8h3H11h3h2.5c1.3807373,0,2.5,1.3431396,2.5,3   S17.8807373,14,16.5,14z" fill="#303C42"/><path d="M9.5,10h-1v2h1c0.3056641,0,1-0.3779297,1-1S9.8056641,10,9.5,10z" fill="#303C42"/></g><g/><g/><g/><g/><g/><g/><g/><g/><g/><g/><g/><g/><g/><g/><g/></svg>