<?xml version="1.0" ?><svg enable-background="new 0 0 24 24" id="Layer_1" version="1.1" viewBox="0 0 24 24" xml:space="preserve" xmlns="http://www.w3.org/2000/svg" xmlns:xlink="http://www.w3.org/1999/xlink"><g><path d="M16.3948975,11.9475098c0,0.3244019,0.100647,0.5062256,0.321228,0.5062256   c0.2564087,0,0.3991699-0.3050537,0.3991699-0.5808105v-0.4998169c-0.0877075-0.0194092-0.1719971-0.0291138-0.2563477-0.0291138   C16.5830688,11.3439941,16.3948975,11.5126953,16.3948975,11.9475098z" fill="#303C42"/><path d="M7.3034058,11.125061c0-0.1850586-0.1121826-0.2747803-0.3197632-0.2747803H6.7226563v0.569397h0.2414551   C7.1464844,11.4196777,7.3034058,11.3214111,7.3034058,11.125061z" fill="#303C42"/><path d="M5.218811,10.8529663H5.0028687v0.6257324h0.1681519c0.2272339,0,0.3904419-0.0982666,0.3904419-0.3114624   C5.5614624,10.979248,5.4432373,10.8529663,5.218811,10.8529663z" fill="#303C42"/><path d="M13.4802246,11.3536987c-0.2111206,0-0.4153442,0.1622314-0.4153442,0.5321655   c0,0.3634033,0.1427612,0.5549927,0.4119263,0.5549927c0.223999,0,0.4121094-0.175293,0.4121094-0.5484619   C13.888916,11.5484009,13.7559204,11.3536987,13.4802246,11.3536987z" fill="#303C42"/><path d="M22,3H2C0.8974609,3,0,3.8969727,0,5v14c0,1.1030273,0.8974609,2,2,2h20c1.1025391,0,2-0.8969727,2-2V5   C24,3.8969727,23.1025391,3,22,3z M2.1795044,11.2090454l0.2861938,0.0028076l-0.4123535-0.4125366   c-0.0701294-0.0699463-0.0701294-0.182251,0-0.2523804c0.0701294-0.0700073,0.182312-0.0700073,0.2524414,0l0.4067383,0.4068604   v-0.2805786c0-0.0982056,0.0786133-0.1795044,0.1796265-0.1795044c0.0981445,0,0.1766968,0.0812988,0.1766968,0.1795044v0.3563232   c0,0.0756836-0.0449829,0.145874-0.1123047,0.168335c-0.1879272,0.0673218-0.2525024,0.2496948-0.2525024,0.2496948   c-0.0252075,0.0672607-0.0924072,0.1175537-0.1682129,0.1175537H2.1795044C2.0813599,11.5651245,2,11.4839478,2,11.3855591   C2,11.2875977,2.0673218,11.2090454,2.1795044,11.2090454z M3.0717163,12.5302124   c0,0.0984497-0.0787354,0.177002-0.1795654,0.177002c-0.0982056,0-0.1768188-0.0647583-0.1740112-0.177002l0.0028076-0.2860718   l-0.4122925,0.4123535c-0.0702515,0.0701904-0.1851807,0.0701904-0.2525024,0   c-0.0701904-0.0700073-0.0701904-0.1851196,0-0.2523193l0.4039307-0.4069824H2.182251   c-0.1008911,0-0.1794434-0.0812378-0.1794434-0.1792603c0-0.0982666,0.0785522-0.1798096,0.1794434-0.1798096h0.3563232   c0.0758667,0,0.1430054,0.0449219,0.168335,0.1123657c0.0645142,0.1908569,0.2468262,0.255127,0.2468262,0.255127   c0.0701294,0.0252686,0.117981,0.0897827,0.117981,0.168335V12.5302124z M4.163269,12.4041748   c0.0701904,0.0703125,0.0701904,0.182312,0,0.2523193c-0.0702515,0.0701904-0.182312,0.0701904-0.2525024,0l-0.4067993-0.4067993   v0.2805176c0,0.1066895-0.0813599,0.1796265-0.1795654,0.1796265c-0.0981445,0-0.1793823-0.0811768-0.1793823-0.1796265v-0.3562622   c0-0.0756836,0.0475464-0.1459351,0.1149292-0.168335c0.1879883-0.06427,0.2523804-0.2495117,0.2523804-0.2495117   c0.0252686-0.0673828,0.0928955-0.117981,0.168396-0.117981h0.3562622c0.0982056,0,0.1796265,0.081543,0.1796265,0.1798096   c0,0.0980225-0.072998,0.1764526-0.1796265,0.1764526l-0.2861938-0.0028076L4.163269,12.4041748z M4.0397339,11.5626221H3.6834717   c-0.0755005,0-0.145874-0.0449219-0.168396-0.1123047c-0.0643311-0.1878662-0.2495117-0.2553711-0.2495117-0.2553711   c-0.0674438-0.0252075-0.1177979-0.0897217-0.1177979-0.1681519v-0.3563232c0-0.0982056,0.0812988-0.1767578,0.1794434-0.1767578   c0.0982056,0,0.1767578,0.0728149,0.1767578,0.1767578L3.5011597,10.956543l0.4124146-0.4124756   c0.0701294-0.0700073,0.1821899-0.0700073,0.2525024,0c0.0701294,0.0701904,0.0701294,0.1853027,0,0.255249l-0.4068604,0.4042358   h0.2805176c0.0982666,0,0.1797485,0.0813599,0.1797485,0.1793823C4.2194824,11.4810791,4.1380005,11.5626221,4.0397339,11.5626221z    M5.6230469,12.7075195c-0.1300049-0.2665405-0.3676758-0.6876831-0.5080566-0.906189H5.0028687v0.906189H4.5819092v-2.1911621   h0.6929932c0.454834,0,0.7269287,0.2188721,0.7269287,0.6564941c0,0.3000488-0.2160645,0.4852295-0.4431763,0.5610962   c0.145752,0.1992188,0.4263916,0.6873779,0.5665283,0.9735718H5.6230469z M7.0061035,12.7075195H6.2992554v-2.1911621h0.7432861   c0.4264526,0,0.7069092,0.2077026,0.7069092,0.5722656c0,0.2581177-0.1709595,0.4041138-0.3338623,0.4686279   c0.2245483,0.0588379,0.4067993,0.2131348,0.4067993,0.5018921C7.8223877,12.440979,7.5278931,12.7075195,7.0061035,12.7075195z    M8.4847412,12.7269287c-0.1906128,0-0.4294434-0.0308228-0.5500488-0.0673218l0.0953369-0.3927002   c0.0869751,0.0391846,0.2780151,0.1010132,0.4547119,0.1010132c0.2133179,0,0.3731689-0.0925903,0.3731689-0.2807007   c0-0.159729-0.0982056-0.2437744-0.3731689-0.3505249c-0.2804565-0.1094971-0.5108643-0.2439575-0.5108643-0.642395   c0-0.3898926,0.3060913-0.605835,0.7746582-0.605835c0.1990967,0,0.401123,0.0390625,0.5216675,0.0783691l-0.0924683,0.3816528   c-0.0813599-0.0450439-0.2384033-0.1010742-0.4291992-0.1010742c-0.2272949,0-0.328125,0.086853-0.328125,0.2355347   c0,0.1516724,0.1119995,0.2078247,0.3560791,0.31427c0.336731,0.1431885,0.5471191,0.2861938,0.5471191,0.6619263   C9.3236084,12.4746094,8.9926147,12.7269287,8.4847412,12.7269287z M11.8034058,12.7068481l-0.3731079-1.3532104   c-0.0390015-0.1330566-0.0617065-0.272583-0.0844727-0.4121094h-0.0031128   c-0.0162964,0.1362915-0.0422363,0.2693481-0.0779419,0.4055786l-0.3699341,1.3597412h-0.4153442l-0.5678711-2.1903687h0.3764648   l0.3374023,1.3303833c0.0390015,0.1461182,0.0648804,0.2855225,0.0844116,0.4315796h0.0031128   c0.0228271-0.1427612,0.0487671-0.2824097,0.0877075-0.4153442l0.3731689-1.3466187h0.3862305l0.3828125,1.3499146   c0.0324707,0.1168213,0.0648193,0.2628174,0.0875854,0.4022827h0.0033569   c0.022644-0.1362915,0.0453491-0.2628784,0.0777588-0.3828735l0.3408813-1.3693237h0.3535767l-0.5678711,2.1903687H11.8034058z    M13.444519,12.7392578c-0.447876,0-0.7399902-0.2497559-0.7399902-0.817688c0-0.4867554,0.3148193-0.8599243,0.8048096-0.8599243   c0.4315796,0,0.7367554,0.2401123,0.7367554,0.8079224C14.2460938,12.3660889,13.9214478,12.7392578,13.444519,12.7392578z    M15.2651367,11.4055786c-0.321228-0.0615845-0.4770508,0.1622925-0.4770508,0.645752v0.6555176h-0.347168v-1.612793h0.3309326   c0,0.0908813-0.0096436,0.2336426-0.0323486,0.3569946h0.0063477c0.0714111-0.2175293,0.2336426-0.4187012,0.5355225-0.3862305   L15.2651367,11.4055786z M15.814209,12.7068481h-0.34729v-2.2110596h0.34729V12.7068481z M17.4591064,12.7069092h-0.3276367   c0-0.0845337,0.0065918-0.2110596,0.0227051-0.3018188h-0.0064697c-0.0875854,0.197876-0.2758789,0.3341675-0.5256348,0.3341675   c-0.3959351,0-0.5939331-0.2920532-0.5939331-0.7593384c0-0.5548706,0.3214111-0.9118042,0.843689-0.9118042   c0.0778809,0,0.1557617,0.0064697,0.2434692,0.0129395v-0.5852051h0.343811V12.7069092z M18.2284546,11.9053345   c-0.0487061,0-0.1070557,0-0.1624146-0.0064697v0.8079834h-0.3535767v-2.1903076   c0.1688843-0.0065918,0.3569946-0.0130615,0.5614624-0.0130615c0.519104,0,0.8046875,0.2531128,0.8046875,0.6586914   C19.0786133,11.5873413,18.7380371,11.9053345,18.2284546,11.9053345z M20.0917358,12.4050903   c-0.0778198,0.1912842-0.2789307,0.3341675-0.5353394,0.3341675c-0.2758789,0-0.4510498-0.1849976-0.4510498-0.447876   c0-0.3633423,0.3599854-0.5613403,0.9508057-0.5613403v-0.0939941c0-0.1980591-0.0844116-0.3051147-0.3375854-0.3051147   c-0.149231,0-0.3310547,0.048645-0.4608154,0.1168213l-0.0681152-0.2789917   c0.1622925-0.0617065,0.3796997-0.1071167,0.5874023-0.1071167c0.4899292,0,0.6262817,0.2141724,0.6262817,0.5355225v0.668335   c0,0.1395874,0.0032349,0.3050537,0.0096436,0.4414063h-0.3342285c0-0.1039429,0.0033569-0.2110596,0.0162354-0.298645   L20.0917358,12.4050903z M21.3418579,12.8203125c-0.2011719,0.5386353-0.4154053,0.7041626-0.7819214,0.7041626   c-0.0617065,0-0.1491699-0.0096436-0.2044678-0.0194092l0.0388794-0.3018188   c0.0553589,0.0162354,0.1330566,0.0259399,0.197937,0.0259399c0.1525269,0,0.2952881-0.074585,0.4024658-0.3634033   l0.0583496-0.1589355l-0.6033936-1.612793h0.3893433l0.2627563,0.7365723   c0.0518799,0.1427612,0.0908813,0.2855835,0.1265869,0.421875h0.0031738   c0.0325317-0.1297607,0.100647-0.3406982,0.1589966-0.5028687l0.2303467-0.6555786h0.37323L21.3418579,12.8203125z" fill="#303C42"/><path d="M6.980835,11.7451172H6.7226563v0.62854H6.994873c0.2131348,0,0.3787842-0.0842285,0.3787842-0.3171387   C7.3736572,11.8434448,7.2192993,11.7451172,6.980835,11.7451172z" fill="#303C42"/><path d="M19.4395752,12.2492065c0,0.1233521,0.0843506,0.2174683,0.2206421,0.2174683   c0.2368774,0,0.3959351-0.2271118,0.3959351-0.4575195v-0.0454102   C19.5725708,11.9637451,19.4395752,12.0966187,19.4395752,12.2492065z" fill="#303C42"/><path d="M18.2479858,10.7922974c-0.0682373,0-0.1233521,0-0.1819458,0.0064697v0.8015747   c0.0487671,0.0064697,0.1040039,0.0128784,0.1558228,0.0128784c0.2953491-0.0032349,0.4899292-0.1654663,0.4899292-0.421814   C18.711792,10.9415283,18.5657959,10.7922974,18.2479858,10.7922974z" fill="#303C42"/></g><g/><g/><g/><g/><g/><g/><g/><g/><g/><g/><g/><g/><g/><g/><g/></svg>