<?xml version="1.0" ?><svg enable-background="new 0 0 24 24" id="Layer_1" version="1.1" viewBox="0 0 24 24" xml:space="preserve" xmlns="http://www.w3.org/2000/svg" xmlns:xlink="http://www.w3.org/1999/xlink"><g><path d="M7.6763306,11.8206787c-0.1726685,0.1065063-0.2259521,0.284668-0.2571411,0.4775391   c0.3434448,0.0018311,0.6759033,0.0018311,1.0101929,0.0018311c0.0165405-0.2038574-0.0716553-0.411438-0.2130737-0.4922485   C8.0363159,11.7067871,7.8508301,11.7141113,7.6763306,11.8206787z" fill="#303C42"/><path d="M22,3H2C0.8969727,3,0,3.8969727,0,5v14c0,1.1030273,0.8969727,2,2,2h20c1.1030273,0,2-0.8969727,2-2V5   C24,3.8969727,23.1030273,3,22,3z M6.4787598,14.015564c-0.2442627,0-0.4904175-0.0018311-0.7346802,0   c-0.0514526,0-0.0808105-0.0147095-0.1102295-0.0606079c-0.2295532-0.3618774-0.4609985-0.7236938-0.696106-1.0836792   c-0.0753174-0.1157227-0.1634521-0.222229-0.2497559-0.3306274c-0.1286011-0.1616211-0.2976074-0.2258911-0.5124512-0.1873169   c0,0.5491333,0,1.1019897,0,1.6585693c-0.2681885,0-0.5289917,0-0.7935181,0c0-0.7512207,0-1.4932861,0-2.2445068   c0.03125,0,0.0587769,0,0.0863647,0c0.3985596,0,0.7952881,0,1.1938477,0c0.1359253,0,0.2718506-0.0165405,0.3985596-0.0734863   c0.2736816-0.1230469,0.4224854-0.380188,0.3967896-0.6906128c-0.0037231-0.0477295-0.0092163-0.09552-0.0183716-0.1432495   c-0.0385742-0.222229-0.1708374-0.3618164-0.3912354-0.4041138c-0.2039185-0.0385132-0.4096069-0.031189-0.6098022,0.03125   c-0.2020264,0.06427-0.3012085,0.2130737-0.2883911,0.4334717c0.1451416,0,0.2920532,0,0.4390259,0   c0.0018311,0.0054932,0.0054932,0.0110474,0.0073242,0.0165405c-0.2589722,0.222229-0.5197754,0.442627-0.7843018,0.6685791   C3.5455322,11.3816528,3.2810059,11.1612549,3,10.9261475c0.1395874,0,0.2589722,0,0.3746948,0   c0.0147095-0.1193848,0.0220337-0.2313843,0.0458984-0.3416138c0.0734863-0.3324585,0.2718506-0.571228,0.5932617-0.6851196   c0.5198364-0.1854858,1.046936-0.2038574,1.5631104,0.0036621c0.4334717,0.1726685,0.6409912,0.5234985,0.6795654,0.9790039   c0.0183716,0.2167358,0,0.4298096-0.0789795,0.633667c-0.1432495,0.3728638-0.4261475,0.5841064-0.8045044,0.6832886   c-0.0256958,0.0073242-0.0532227,0.0128174-0.0734253,0.0183716c0.09729,0.1138306,0.2038574,0.2185669,0.2883301,0.3416138   c0.2461548,0.3599854,0.4849243,0.7255249,0.7218628,1.0873413c0.0789795,0.1193848,0.1561279,0.2369385,0.2424316,0.3692017   C6.517334,14.015564,6.4989624,14.015564,6.4787598,14.015564z M9.1512451,12.8088379c-0.5786133,0-1.1498413,0-1.7210693,0   c-0.0404053,0.3195801,0.2296143,0.6557007,0.5491943,0.696106c0.2663574,0.0330811,0.5198364-0.0147095,0.758606-0.1340942   c0.031189-0.0147095,0.062439-0.0293579,0.09552-0.0458984c0.0808105,0.15979,0.157959,0.315918,0.2387695,0.475708   c-0.1744995,0.1065063-0.3581543,0.1836548-0.5565796,0.2203979c-0.3067017,0.0587769-0.6152954,0.0679932-0.920166-0.0128784   c-0.5271606-0.1395874-0.8302002-0.4940796-0.9330444-1.0230103c-0.0661621-0.347168-0.0514526-0.6924438,0.0991821-1.0175781   c0.2148438-0.4609985,0.5822144-0.7089844,1.0855103-0.7548828c0.2258911-0.0220337,0.4481201,0,0.6575317,0.0899658   c0.3452759,0.1506348,0.5253296,0.4279785,0.6079712,0.7788086C9.1696167,12.3165894,9.1677246,12.5571899,9.1512451,12.8088379z    M11.2561035,14.0210571c-0.3195801,0.0698242-0.6391602,0.0679932-0.949585-0.0385742   c-0.4003906-0.1377563-0.666748-0.411438-0.7952881-0.8154907c-0.1157227-0.3655396-0.1157227-0.7346802,0.0128784-1.0947266   c0.1762695-0.4922485,0.5454712-0.7585449,1.0524292-0.8393555c0.348999-0.0551147,0.6906128-0.0256958,1.013855,0.1340942   c0.0349121,0.0164795,0.0679932,0.0366821,0.1065674,0.0568848c-0.0808105,0.1726685-0.15979,0.3380127-0.2406616,0.5087891   c-0.1652832-0.1046753-0.3416138-0.1561279-0.5289307-0.1616211c-0.3379517-0.0091553-0.5730591,0.157959-0.6594238,0.4849243   c-0.0844727,0.3195801-0.0789795,0.6373291,0.0845337,0.9348755c0.1083374,0.1983643,0.2883301,0.2920532,0.5123901,0.3012085   c0.2020874,0.0073853,0.3930664-0.0367432,0.571228-0.1359253c0.0147095-0.0091553,0.0330811-0.0164795,0.0551147-0.0275269   c0.0753174,0.1652832,0.1506348,0.3250732,0.2259521,0.4904175C11.5756836,13.921875,11.4214478,13.986145,11.2561035,14.0210571z    M13.8146973,13.9990234c-0.0183716-0.1120605-0.0367432-0.2277832-0.0551147-0.3526611   c-0.0238647,0.0256958-0.0440674,0.0458984-0.062439,0.0661011c-0.3085938,0.3196411-0.6814575,0.4169922-1.1075439,0.3140869   c-0.2791748-0.0679321-0.4702148-0.315918-0.505127-0.6281128c-0.0091553-0.0845337-0.0146484-0.1708374-0.0146484-0.2572021   c-0.0018921-0.5950928,0-1.1883545,0-1.7816162c0-0.0275269,0-0.0551147,0-0.0844727c0.2497559,0,0.4921875,0,0.7420044,0   c0,0.03125,0,0.0606079,0,0.0899658c0,0.5547485,0,1.109436,0,1.6641235c0,0.0495605,0.0018311,0.0973511,0.0092163,0.1450806   c0.0348511,0.1983643,0.1836548,0.2993774,0.3967285,0.2718506c0.2185669-0.0294189,0.3728638-0.1652832,0.5032349-0.3287964   c0.0147095-0.0183716,0.0128784-0.0513916,0.0128784-0.0789795c0-0.5601807,0-1.1185303,0-1.678772   c0-0.0275269,0-0.0551147,0-0.0844727c0.2516479,0,0.4940796,0,0.7457275,0c0,0.0293579,0,0.0569458,0,0.0844727   c0.0018311,0.6759033-0.0018311,1.3518677,0.0054932,2.0259399c0.0018311,0.2038574,0.0349121,0.4077759,0.0532837,0.6134644   C14.3069458,13.9990234,14.0681763,13.9990234,13.8146973,13.9990234z M16.6873779,11.9235229   c-0.1377563-0.0587769-0.2718506-0.0753174-0.4096069-0.0422363c-0.2149048,0.0532227-0.3526611,0.2001953-0.4591675,0.3838501   c-0.0110474,0.0183716-0.0073853,0.0477905-0.0073853,0.0734863c0,0.5271606,0,1.0542603,0,1.5814209   c0,0.0256958,0,0.0495605,0,0.0789795c-0.253479,0-0.4959106,0-0.7420044,0c0-0.9073486,0-1.8128662,0-2.7220459   c0.2460938,0,0.4903564,0,0.7401733,0c0,0.1120605,0,0.2240601,0,0.3361206   c0.2681885-0.3838501,0.6171265-0.4885864,1.0561523-0.3397827C16.8048706,11.4937134,16.7460938,11.7049561,16.6873779,11.9235229   z M17.956543,13.9971924c-0.2479858,0-0.4922485,0-0.7438965,0c0-1.3389893,0-2.6779785,0-4.0224609   c0.2461548,0,0.4922485,0,0.7438965,0C17.956543,11.3137207,17.956543,12.65271,17.956543,13.9971924z M19.8612061,14.3571777   c-0.0863037,0.2259521-0.1891479,0.442688-0.3581543,0.6208496c-0.1763306,0.1891479-0.3967285,0.2828369-0.6520386,0.3121948   c-0.1873169,0.0220337-0.3728638,0.0202026-0.5583496-0.0146484c-0.0275879-0.0055542-0.0532837-0.0128784-0.0844727-0.0202026   c0.031189-0.1818848,0.062439-0.3600464,0.09729-0.538208c0.0018921-0.0109863,0.0404053-0.0256958,0.0625-0.0238647   c0.1340332,0.0147095,0.2699585,0.0220337,0.4040527-0.0091553c0.1744995-0.0404053,0.2902222-0.1506348,0.3599854-0.3085938   c0.0587769-0.1304321,0.1065674-0.2644653,0.1542969-0.4003906c0.0073853-0.0238647,0-0.0587769-0.0109863-0.0845337   c-0.3214722-0.8411865-0.6428833-1.6842651-0.9661255-2.5254517c-0.0092163-0.0275879-0.0202026-0.0551147-0.03125-0.0900269   c0.2516479,0,0.4977417,0,0.7420654,0.0036621c0.0183716,0.0018311,0.0495605,0.0367432,0.0569458,0.0606079   c0.1395874,0.4041138,0.2736206,0.8118286,0.411377,1.2177734c0.0514526,0.1542969,0.1047363,0.3104248,0.1561279,0.4646606   c0.0073853,0.0202026,0.0183716,0.0385742,0.0367432,0.0789795c0.0165405-0.0422363,0.0275879-0.062439,0.0349121-0.0844727   c0.1726685-0.5583496,0.3452759-1.1148682,0.5142822-1.6713867c0.0147095-0.0514526,0.0385742-0.0716553,0.09552-0.0698242   c0.2001953,0.0036621,0.3985596,0,0.5950928,0c0.0256958,0,0.0514526,0,0.0789795,0L19.8612061,14.3571777z" fill="#303C42"/></g><g/><g/><g/><g/><g/><g/><g/><g/><g/><g/><g/><g/><g/><g/><g/></svg>