<?xml version="1.0" ?><svg enable-background="new 0 0 24 24" id="Layer_1" version="1.1" viewBox="0 0 24 24" xml:space="preserve" xmlns="http://www.w3.org/2000/svg" xmlns:xlink="http://www.w3.org/1999/xlink"><g><path d="M11.8379517,7.2716675c-0.0489502-0.0336914-0.0998535-0.0508423-0.1505127-0.0508423   c-0.8424072,0-1.3155518,1.105957-1.5148926,1.7845459c0.2247314-0.0696411,0.4677734-0.1448975,0.7164307-0.2219849   C11.059082,7.8939819,11.4620361,7.4484253,11.8379517,7.2716675z" fill="#303C42"/><path d="M9.687561,11.69104c0,1.0089722,1.0067749,1.036438,1.0067749,1.6504517   c0,0.1484985-0.1050415,0.3516235-0.362915,0.3516235c-0.3950195,0-0.8630371-0.4017334-0.8630371-0.4017334l-0.2382813,0.7875977   c0,0,0.4552612,0.5540161,1.3455811,0.5540161c0.7418823,0,1.2921753-0.5586548,1.2921753-1.4260864   c0-1.1026611-1.2271729-1.2830811-1.2271729-1.7538452c0-0.0862427,0.0274658-0.4286499,0.5730591-0.4286499   c0.3721313,0,0.6756592,0.1621094,0.6756592,0.1621094l0.3464966-1.0307007c0,0-0.2341309-0.1358032-0.708252-0.1358032   C10.2971802,10.0200195,9.687561,10.8417969,9.687561,11.69104z" fill="#303C42"/><path d="M11.248291,8.6721802c0.3108521-0.0961914,0.6209106-0.1921997,0.9063721-0.2806396   c0.0001221-0.0166016,0.0003052-0.032959,0.0003052-0.0509033c0-0.3499146-0.046936-0.6092529-0.1189575-0.7900391   C11.7498169,7.6733398,11.4228516,7.9987183,11.248291,8.6721802z" fill="#303C42"/><path d="M22,3H2C0.8969727,3,0,3.8969727,0,5v14c0,1.1030273,0.8969727,2,2,2h20c1.1030273,0,2-0.8969727,2-2V5   C24,3.8969727,23.1030273,3,22,3z M13.1898804,16L8.003479,15.0283203c0,0,0.6655884-5.1473389,0.6908569-5.3289185   c0.0333252-0.239624,0.0412598-0.2476196,0.2957764-0.3274536C9.0313721,9.3588867,9.3551636,9.258606,9.8109131,9.1173706   C9.9865723,8.3723755,10.546936,6.90625,11.7196045,6.90625c0.1531982,0,0.3305664,0.0822144,0.4738159,0.2716064   c0.0143433-0.0007324,0.0286255-0.0014038,0.0426025-0.0014038c0.503418,0,0.7896118,0.428833,0.9517822,0.8953857   c0.1655884-0.0512085,0.265625-0.0820923,0.2716064-0.0838623c0.0404053-0.0118408,0.1445923-0.0280151,0.1978149,0.0252075   c0.0532837,0.0533447,0.5387573,0.5353394,0.5387573,0.5353394s0.6989136,0.0516968,0.7319336,0.0544434   c0.0330811,0.0028076,0.0731812,0.0281372,0.0793457,0.0738525C15.0136108,8.7225342,16,15.3920288,16,15.3920288L13.1898804,16z" fill="#303C42"/><path d="M12.357666,7.4931641c0.0646362,0.1850586,0.1048584,0.4185181,0.1048584,0.7085571   c0,0.0333252-0.0001221,0.0637207-0.0002441,0.0946045c0.1605225-0.0496826,0.3085938-0.09552,0.4387817-0.1358032   C12.789917,7.8209229,12.6171265,7.5256958,12.357666,7.4931641z" fill="#303C42"/></g><g/><g/><g/><g/><g/><g/><g/><g/><g/><g/><g/><g/><g/><g/><g/></svg>