<?xml version="1.0" ?><svg enable-background="new 0 0 24 24" id="Layer_1" version="1.1" viewBox="0 0 24 24" xml:space="preserve" xmlns="http://www.w3.org/2000/svg" xmlns:xlink="http://www.w3.org/1999/xlink"><path d="M21.9980469,3H2.0019531c-1.1030273,0-2,0.8969727-2,2v14c0,1.1030273,0.8969727,2,2,2h19.9960938  c1.1030273,0,2-0.8969727,2-2V5C23.9980469,3.8969727,23.1010742,3,21.9980469,3z M15.9274902,8.855835  c0.4080811,0,0.7388306,0.3308716,0.7388306,0.7387695c0,0.4077148-0.3307495,0.7383423-0.7388306,0.7383423  c-0.4075317,0-0.7381592-0.3306274-0.7381592-0.7383423C15.1893311,9.1867065,15.5199585,8.855835,15.9274902,8.855835z   M5.1012573,15.0038452c-0.7653198,0-1.418335-0.0758667-1.9976196-0.2277222v-1.3435669  c0.3869019,0.1588745,1.0240479,0.326355,1.6807861,0.326355c0.5991821,0,0.9555054-0.1986084,0.9555054-0.5354004  c0-0.407959-0.4351807-0.4329834-0.5991821-0.4430542c-1.9344482-0.131958-2.1427002-1.2755737-2.1427002-1.7615356  c0-0.8429565,0.5985107-1.8269653,2.2875977-1.8269653c0.9796143,0,1.5080566,0.1529541,1.9624634,0.3120117l0.0233765,0.0068359  v1.2872925v0.0172729L7.2543945,10.810791c-0.1827393-0.0776367-0.397583-0.1533813-0.397583-0.1533813  c-0.3850098-0.1151733-0.9241943-0.2381592-1.3405762-0.2381592c-0.2367554,0-0.868042,0-0.868042,0.4763794  c0,0.3947144,0.4385376,0.4230347,0.6279297,0.4354248c1.3886108,0.0930786,2.2163696,0.7728271,2.2163696,1.8190308  C7.4924927,14.0728149,6.7527466,15.0038452,5.1012573,15.0038452z M11.9365234,14.9419556h-1.8520508  c0,0-0.2211304-1.0112915-0.6689453-1.6829224v1.6829224H7.8692627v-5.444397l1.5462646-0.305603v3.0036621  c0.5803223-0.7025146,0.8202515-1.380249,0.8535156-1.4640503h1.7683105  c-0.050293,0.1610107-0.3661499,1.1326294-1.0854492,2.0444336C10.9519043,12.776001,11.7533569,14.1803589,11.9365234,14.9419556z   M14.7314453,11.9254761c-0.8776245,0.0302124-0.9744263,0.347229-0.9744263,1.0869141v1.9295654h-1.5109253v-2.3662109  c0-1.2351685,0.7030029-1.8565063,2.0879517-1.901001c0,0,0.2497559-0.0096436,0.3973999,0.0217285V11.9254761z   M16.6772461,14.9419556h-1.4987793v-4.2056274h1.4987793V14.9419556z M18.8095093,14.9419556h-1.4974365V9.460083  l1.4974365-0.2681274V14.9419556z M20.9980469,14.9419556h-1.4989014V9.460083l1.4989014-0.2681274V14.9419556z" fill="#303C42"/><g/><g/><g/><g/><g/><g/><g/><g/><g/><g/><g/><g/><g/><g/><g/></svg>