<?xml version="1.0" ?><svg enable-background="new 0 0 24 24" id="Layer_1" version="1.1" viewBox="0 0 24 24" xml:space="preserve" xmlns="http://www.w3.org/2000/svg" xmlns:xlink="http://www.w3.org/1999/xlink"><path d="M22,3H2C0.8969727,3,0,3.8969727,0,5v14c0,1.1030273,0.8969727,2,2,2h20c1.1030273,0,2-0.8969727,2-2V5  C24,3.8969727,23.1030273,3,22,3z M11,17c-1.3208008,0-2.5556641-0.6518555-3.3032227-1.7431641l0.8251953-0.5654297  C9.0830078,15.5107422,10.0092773,16,11,16c1.6542969,0,3-1.3457031,3-3c0-0.6098633-0.1816406-1.1958008-0.5249023-1.6953125  l0.8242188-0.5664063C14.7578125,11.4052734,15,12.1870117,15,13C15,15.2055664,13.2055664,17,11,17z M16.0776367,9.3950195  C15.5234375,8.5214844,14.5761719,8,13.5429688,8c-1.6542969,0-3,1.3457031-3,3c0,0.6464844,0.2021484,1.262207,0.5849609,1.7802734  l-0.8046875,0.59375C9.8129883,12.6831055,9.5429688,11.8618164,9.5429688,11c0-2.2055664,1.7944336-4,4-4  c1.3774414,0,2.640625,0.6948242,3.3793945,1.8588867L16.0776367,9.3950195z" fill="#303C42"/><g/><g/><g/><g/><g/><g/><g/><g/><g/><g/><g/><g/><g/><g/><g/></svg>