<?xml version="1.0" ?><svg enable-background="new 0 0 24 24" id="Layer_1" version="1.1" viewBox="0 0 24 24" xml:space="preserve" xmlns="http://www.w3.org/2000/svg" xmlns:xlink="http://www.w3.org/1999/xlink"><g><path d="M4,10.5v3h3v-3H4z M6,12.3529053C6,12.4341431,5.9341431,12.5,5.8529663,12.5H5.1470337   C5.0658569,12.5,5,12.4341431,5,12.3529053v-0.7058716C5,11.5657959,5.0658569,11.5,5.1470337,11.5h0.7059326   C5.9341431,11.5,6,11.5657959,6,11.6470337V12.3529053z" fill="#303C42"/><path d="M12.0084229,11.5046997c-0.4603271,0-0.7926636,0.3432617-0.7926636,0.8001099   c0,0.4533081,0.3395386,0.7860718,0.7926636,0.7860718c0.4393311,0,0.7755127-0.3578491,0.7755127-0.789856   C12.7839355,11.8692017,12.4477539,11.5046997,12.0084229,11.5046997z" fill="#303C42"/><path d="M22,3H2C0.8974609,3,0,3.8969727,0,5v14c0,1.1030273,0.8974609,2,2,2h20c1.1025391,0,2-0.8969727,2-2V5   C24,3.8969727,23.1025391,3,22,3z M8,13.5c0,0.5512695-0.4482422,1-1,1H4c-0.5517578,0-1-0.4487305-1-1v-3   c0-0.5512695,0.4482422-1,1-1h3c0.5517578,0,1,0.4487305,1,1V13.5z M10.3889771,13.0880737   c-0.170105,0.1506348-0.395813,0.2333984-0.635437,0.2333984H9.7510376c-0.2531128,0-0.49646-0.0975342-0.6679077-0.2687378   c-0.1529541-0.1526489-0.2377319-0.3510132-0.2377319-0.5584717h0.2564087c0,0.138916,0.0574951,0.2729492,0.1624146,0.3773804   c0.1235352,0.1229858,0.3011475,0.1937866,0.4869995,0.1937866h0.0021362c0.3577271,0,0.6483765-0.2501831,0.6483765-0.5576782   c-0.0001831-0.2306519-0.1278076-0.4138184-0.7485352-0.5574951c-0.2526855-0.0584717-0.4229126-0.1367188-0.536438-0.2460327   c-0.1206665-0.1170654-0.1797485-0.2727661-0.1797485-0.4760742C8.9370117,10.8267822,9.296875,10.5,9.7393188,10.5   c0.2120972,0,0.4118652,0.072876,0.5629883,0.2055054c0.1558228,0.1367798,0.2419434,0.3214111,0.2419434,0.5197144h-0.2564087   c0-0.258728-0.2458496-0.4690552-0.5485229-0.4690552c-0.2961426,0-0.5462036,0.2161865-0.5462036,0.4719849   c0,0.2338257,0.0803223,0.3712769,0.5180664,0.4725952c0.4674072,0.1079712,0.9458008,0.2885742,0.9470215,0.8068237   C10.6582031,12.7281494,10.562561,12.9342651,10.3889771,13.0880737z M13.0176392,14.050415h-0.2479858v-1.1222534h-0.0072021   c-0.1661987,0.2547607-0.4528198,0.3857422-0.7540283,0.3857422c-0.5803833,0-1.0408936-0.4358521-1.0408936-1.0197144   c0-0.5806885,0.4713745-1.0125732,1.0408936-1.0125732c0.3012085,0,0.5878296,0.1310425,0.7540283,0.3894653h0.0072021v-0.3399658   h0.2479858V14.050415z M15.1755371,13.2702637h-0.2348022v-0.3026123h-0.007019   c-0.1139526,0.2386475-0.3664551,0.348938-0.6226807,0.348938c-0.2526855,0-0.508667-0.0889282-0.6689453-0.2915649   c-0.1384888-0.1744385-0.1704712-0.4092407-0.1704712-0.6260376v-1.0745239H13.72052v1.0706787   c0,0.4020386,0.145752,0.6974487,0.5905151,0.6974487c0.1633911,0,0.2915649-0.0429077,0.4126587-0.1567993   c0.1708984-0.163269,0.2025757-0.3557739,0.2025757-0.5831909v-1.0281372h0.2492676V13.2702637z M17.5828247,13.2677612h-0.2475586   v-0.3397827H17.328064c-0.170105,0.2545776-0.453125,0.3855591-0.7541504,0.3855591   c-0.5802612,0-1.0407715-0.4353027-1.0407715-1.0193481c0-0.5806885,0.4707031-1.0128174,1.0407715-1.0128174   c0.3046265,0,0.5878296,0.1277466,0.7541504,0.3895874h0.0072021v-0.3397217h0.2475586V13.2677612z M18.8776245,11.5437012   c-0.3398438,0.0281982-0.552002,0.2441406-0.552002,0.5911255v1.1331177h-0.2481689v-1.9369507h0.2481689v0.2797241h0.0065918   c0.1065063-0.2478027,0.2940063-0.3115845,0.5454102-0.3292847V11.5437012z M20.9957886,12.3898315h-1.7630615   c0.0178223,0.3823242,0.3720703,0.7010498,0.7509766,0.7010498c0.2972412,0,0.5876465-0.170105,0.6939087-0.4569092h0.2615967   c-0.1411743,0.4035034-0.5234985,0.6795654-0.9520874,0.6795654c-0.5592651,0-1.0089722-0.4564819-1.0089722-1.0125122   c0-0.552063,0.449707-1.0196533,1.0055542-1.0196533C20.550293,11.2813721,21,11.7595215,21,12.3190308   C21,12.3435059,20.9957886,12.3648071,20.9957886,12.3898315z" fill="#303C42"/><path d="M16.5739136,11.5046997c-0.4599609,0-0.7927246,0.3432617-0.7927246,0.8001099   c0,0.453064,0.3398438,0.7860718,0.7927246,0.7860718c0.4390869,0,0.7752075-0.3578491,0.7752075-0.789856   C17.3491211,11.8692017,17.0130005,11.5046997,16.5739136,11.5046997z" fill="#303C42"/><polygon fill="#303C42" points="7,14 7.0009766,13.5 7,13.5  "/><path d="M19.9871216,11.5045776c-0.3861694,0-0.6940308,0.2832031-0.7543945,0.6620483h1.5119019   C20.6808472,11.7877808,20.3765869,11.5045776,19.9871216,11.5045776z" fill="#303C42"/></g><g/><g/><g/><g/><g/><g/><g/><g/><g/><g/><g/><g/><g/><g/><g/></svg>