<?xml version="1.0" ?><svg enable-background="new 0 0 24 24" id="Layer_1" version="1.1" viewBox="0 0 24 24" xml:space="preserve" xmlns="http://www.w3.org/2000/svg" xmlns:xlink="http://www.w3.org/1999/xlink"><g><path d="M13.4255981,13.5947266c-0.008606,0.2762451,0.4229736,0.447876,0.7683105,0.2050781   c0.3181152-0.234375,0.3477783-0.7203369,0.3477783-0.7203369c-0.1063232,0.1022339-0.4776001,0.0903931-0.6785278,0.1280518   S13.4341431,13.3184204,13.4255981,13.5947266z" fill="#303C42"/><path d="M7.4459839,10.3840332c0,0-0.7097778,0-0.7659912,0c-0.0562744,0-0.0569458,0.055603-0.0569458,0.055603   s-0.2872925,1.3597412-0.442627,2.0947876c-0.1553345,0.7351685-0.4088135,1.1565552-1.0592651,1.0979004   c-0.6505737-0.0585327-0.4971313-0.6690063-0.4971313-0.6690063s0.4321289-2.045105,0.4885254-2.3118286   c0.0562744-0.2666016-0.182373-0.2674561-0.182373-0.2674561H4.6329956c0,0-0.4083252,0-0.468811,0   s-0.065918,0.0872192-0.065918,0.0872192l-0.4630127,2.1914673c0,0-0.078064,0.2580566-0.078064,0.7478027   c0.1130371,1.0884399,1.486084,1.0841675,1.486084,1.0841675s0.5859985,0.0376587,1.0339355-0.1255493   c0.8999634-0.2427979,1.0625-1.4150391,1.0625-1.4150391s0.4367065-2.0667725,0.4884644-2.3118896   C7.6799927,10.3972168,7.4459839,10.3840332,7.4459839,10.3840332z" fill="#303C42"/><path d="M22,3H2C0.8974609,3,0,3.8969727,0,5v14c0,1.1030273,0.8974609,2,2,2h20c1.1025391,0,2-0.8969727,2-2V5   C24,3.8969727,23.1025391,3,22,3z M8.7977905,12.2501221C8.5391846,14.321167,6.8151245,16,4.9470215,16   c-1.8681641,0-3.1729126-1.678833-2.9143677-3.7498779c0.258606-2.0709839,1.982605-3.7498169,3.850769-3.7498169   S9.0563354,10.1791382,8.7977905,12.2501221z M12.1790771,14.4193726c-0.0740356,0-0.9321899,0-0.9321899,0   s-0.0136108,0.015686-0.0512695-0.0376587c-0.0376587-0.0534058-0.6361084-0.9608154-0.6361084-0.9608154l-0.1442871,0.6829224   c0,0-0.0374146,0.3092651-0.2744751,0.3092651c-0.2369995,0-0.6969604,0-0.6969604,0s-0.0609131,0.026123-0.0337524-0.1025391   c0.0272217-0.1286011,0.8140259-3.852356,0.8140259-3.852356s0.0038452-0.0741577,0.0600586-0.0741577   c0.0562744,0,0.6069946,0,0.6069946,0s0.3049316,0.0241089,0.2350464,0.3550415   c-0.0699463,0.3309937-0.3673096,1.7383423-0.3673096,1.7383423l1.0071411-0.9924316h1.1040649   c0,0,0.0534058,0.0251465,0,0.0753784c-0.0533447,0.0502319-1.593811,1.4483032-1.593811,1.4483032l0.9418335,1.3395386   C12.2180786,14.3482056,12.2530518,14.4193726,12.1790771,14.4193726z M15.5501709,12.8251343   c0,0-0.2322998,0.9978027-0.3181763,1.3012695c-0.0858154,0.3035278-0.3096924,0.295105-0.3096924,0.295105   s-0.5797729-0.0020752-0.6237793,0c-0.0439453,0.0021362-0.0292969-0.0523071-0.0292969-0.0523071   s0.0050659-0.0240479,0.052002-0.2461548c-0.2745972,0.4089355-0.7703857,0.3716431-1.0018921,0.3716431   c-0.2314453,0-0.4628296-0.0522461-0.6867676-0.2887573s-0.1486816-0.7346802-0.1486816-0.7346802   s0.0440063-0.2720947,0.2255859-0.4238281c0.3845825-0.3651123,1.2227783-0.3673706,1.4153442-0.3757324   c0.192627-0.0084229,0.5022583,0.0037842,0.5742188-0.336792c0.0719604-0.3406372-0.4067383-0.3161621-0.4067383-0.3161621   s-0.0167236,0.0020142-0.1988525,0.0145874c-0.1820679,0.0125732-0.2960205,0.1990967-0.3144531,0.2861938   c-0.0184937,0.0870972-0.0665283,0.083252-0.0665283,0.083252s-0.763916,0-0.8186646,0s-0.0275269-0.0974731-0.0275269-0.0974731   s0.026001-0.1228638,0.1576538-0.3682251c0.244873-0.4750977,0.9467163-0.5244751,0.9467163-0.5244751   s0.440918-0.0636597,0.9169312,0.0302734c0.473877,0.0939331,0.7421265,0.3686523,0.7400513,0.6323853   C15.6256104,12.3389282,15.5501709,12.8251343,15.5501709,12.8251343z M18.59552,12.3535767l-0.7890625-0.0042114   c0,0-0.0397949,0.008728-0.0460815-0.0689087c-0.0062256-0.0775757-0.0460205-0.2869873-0.3829956-0.28479   c-0.3369751,0.0020752-0.4164429,0.1845093-0.4122925,0.28479s0.0648193,0.2111816,0.6257935,0.3200684   c0.5609131,0.1088257,0.8079224,0.3096313,0.8623047,0.6037598c0.0544434,0.2941284-0.0117798,0.7213135-0.1906128,0.9020386   c-0.178772,0.1806641-0.3660889,0.3046875-0.9395752,0.3883667c-0.6112061,0.0271606-0.8456421-0.0439453-0.8456421-0.0439453   s-0.7200317-0.1165161-0.753479-0.9530029c-0.0020752-0.0160522,0.0061035-0.0507202,0.0344238-0.0507202h0.8005371   c0,0,0.039917,0.0012207,0.0462036,0.0618896s0.0167236,0.2407227,0.2302246,0.3264771   c0.213501,0.0858154,0.4939575,0.0251465,0.5964966-0.0648804c0.1026001-0.0900269,0.1591797-0.3265381-0.0585327-0.4102173   s-0.7327271-0.2092896-0.7327271-0.2092896s-0.4603271-0.0921021-0.5963745-0.4834595   c-0.0690308-0.2463989-0.0264282-0.4481812-0.0264282-0.4481812s0.0117798-0.2530518,0.2859497-0.4957886   c0.2993164-0.2595825,0.8497925-0.3076782,0.8497925-0.3076782s0.6508789-0.0501709,0.9941406,0.1109009   c0.3433228,0.1611938,0.49823,0.4437256,0.4814453,0.7932739C18.6329346,12.3535156,18.59552,12.3535767,18.59552,12.3535767z    M21.9862671,12.3649902c-0.0485229,0.2296143-0.3738403,1.7692871-0.3738403,1.7692871s-0.0846558,0.2756958-0.2792969,0.2756958   s-0.7127075,0-0.7127075,0s-0.0443115,0.0123291-0.0212402-0.0965576c0.0230103-0.1088867,0.3399048-1.6085815,0.3399048-1.6085815   s0.1464844-0.5773315-0.3325195-0.5710449s-0.6172485,0.446228-0.6496582,0.5994263   c-0.0324707,0.1531982-0.2915649,1.3796387-0.2915649,1.3796387s-0.0840454,0.2948608-0.2849731,0.2975464   s-0.6907349,0-0.6907349,0s-0.0530396,0.0220947-0.0337524-0.069397c0.0193481-0.0914917,0.8286133-3.9212646,0.8286133-3.9212646   s0.0057373-0.0357056,0.043396-0.0357056s0.6906738,0,0.6906738,0s0.234314,0.0015869,0.1734009,0.2900391   s-0.2472534,1.1700439-0.2472534,1.1700439s0.2888184-0.4765625,1.0682983-0.4356689   C21.9924316,11.4494019,22.0348511,12.135376,21.9862671,12.3649902z" fill="#303C42"/></g><g/><g/><g/><g/><g/><g/><g/><g/><g/><g/><g/><g/><g/><g/><g/></svg>