<?xml version="1.0" ?><svg viewBox="0 0 512 512" xmlns="http://www.w3.org/2000/svg"><defs><style>.cls-1{fill:#b9b9ea;}.cls-2{opacity:0.15;}.cls-3{fill:#3f456b;}.cls-4{fill:#fff;}</style></defs><title/><g id="Colors"><rect class="cls-1" height="482" width="482" x="17" y="15"/><g class="cls-2"><rect class="cls-3" height="17" width="482" x="17" y="480"/></g><g class="cls-2"><rect class="cls-4" height="17" width="482" x="17" y="15"/></g><g class="cls-2"><rect class="cls-3" height="17" transform="translate(234.5 746.5) rotate(-90)" width="482" x="249.5" y="247.5"/></g><g class="cls-2"><rect class="cls-4" height="17" transform="translate(-230.5 281.5) rotate(-90)" width="482" x="-215.5" y="247.5"/></g><g class="cls-2"><polyline class="cls-4" points="17 497 499 15 17 15 17 497"/></g></g><g id="Lines"><path class="cls-3" d="M241.32,381.17a5,5,0,0,1-4.72-3.34l-82.3-235-85.55,235a5,5,0,1,1-9.4-3.42l90.34-248.17a5,5,0,0,1,4.7-3.29h0a5,5,0,0,1,4.69,3.35L246,374.52a5,5,0,0,1-3.06,6.37A5.06,5.06,0,0,1,241.32,381.17Z"/><path class="cls-3" d="M221.06,330.53H84.31a5,5,0,0,1,0-10H221.06a5,5,0,0,1,0,10Z"/><path class="cls-3" d="M499,502H17a5,5,0,0,1-5-5V15a5,5,0,0,1,5-5H499a5,5,0,0,1,5,5V497A5,5,0,0,1,499,502ZM22,492H494V20H22Z"/><path class="cls-3" d="M452.66,381H295a5,5,0,0,1-5-5V128a5,5,0,0,1,5-5H450.16a5,5,0,1,1,0,10H300V371H452.66a5,5,0,1,1,0,10Z"/><path class="cls-3" d="M455.17,257H295a5,5,0,0,1,0-10H455.17a5,5,0,1,1,0,10Z"/></g></svg>