<?xml version="1.0" ?><svg viewBox="0 0 512 512" xmlns="http://www.w3.org/2000/svg"><defs><style>.cls-1{fill:#767c93;}.cls-2{fill:#ffb666;}.cls-3{opacity:0.2;}.cls-4{fill:#3f456b;}.cls-5{opacity:0.1;}.cls-6{fill:#fff;}</style></defs><title/><g id="Colors"><path class="cls-1" d="M369.88,196.15c0,22.12.21,40.75-.07,59.37a61.83,61.83,0,0,0,12.73,39.38c2.82,3.75,5.79,7.41,8.26,11.39,3.4,5.48,2.53,9.44-2.35,13.57q-18.82,15.92-37.64,31.83c-6.7,5.68-11.61,5.62-18.29.17-10-8.22-18.11-18.13-25.06-29-1.66-2.6-2.6-2.61-4.78-.49-11.61,11.27-23.88,21.81-39.22,27.67-23.94,9.16-48.65,10.63-73.26,3.89-27.06-7.41-44.12-25.65-50.16-53-7.34-33.24-2.11-63.85,22.54-89.14,13.95-14.3,31.52-22.26,50.56-27.29,22.33-5.9,45.25-7.94,68.12-10.3,4.32-.45,9.87.72,12.59-2s.7-8.06.78-12.24a89.81,89.81,0,0,0-1.26-18.22C290.89,128.3,283,119.88,270,116.48a48.24,48.24,0,0,0-36.36,4.44c-9.9,5.42-15.68,14-18.31,24.93-1.92,8-5.22,10.33-13.37,9.52q-23.35-2.33-46.68-4.88c-7.12-.79-10.34-5.43-8.89-12.47,6.41-31.11,24.24-53.5,53.29-65.71,40-16.81,80.94-18.1,121.61-2.34,30.13,11.68,45.67,34.66,47.87,66.79C370.55,157.71,369.55,178.69,369.88,196.15Zm-75.2,36.37c0-3.45-.16-8.77.06-14.08.12-2.95-.91-3.78-3.75-3.68-12.52.47-25,1.25-37.15,4.59-26.93,7.39-40.29,25.17-38.48,51.69.93,13.5,5.48,25.43,18.89,31.13,13.6,5.79,26.39,2.74,37.81-6.2,7.56-5.91,12.64-13.73,16.43-22.48C293.9,261,294.44,247.71,294.68,232.52Z"/><path class="cls-2" d="M260.66,453.25c-41.61-.4-77.38-5.45-112.31-16.29a343.07,343.07,0,0,1-116.08-62c-4-3.25-7.93-6.54-11.73-10-1.87-1.69-3.66-4-2-6.58,1.89-2.87,4.73-1.77,7.14-.56,9.48,4.81,18.79,9.95,28.37,14.55a472.93,472.93,0,0,0,105.13,35.71,500.64,500.64,0,0,0,58,9c19.71,1.9,39.56,2.92,59.38,2,40.56-1.89,80.46-8,119.39-19.87a439.64,439.64,0,0,0,42.74-15.26,18.26,18.26,0,0,1,9.16-1.38c5.08.56,7.39,5.25,4.78,9.66a14,14,0,0,1-4.24,4.32c-27.7,19-58.08,32.12-90.18,41.66a372.15,372.15,0,0,1-63,12.76C282.1,452.49,268.85,453.72,260.66,453.25Z"/><path class="cls-2" d="M444.92,366.68c-10.27-.61-21.38,1.11-32.51,2.43-2.41.29-4.74.32-5.88-1.64-1.37-2.35.82-4.13,2.49-5.4,6.15-4.73,13.25-7.67,20.64-9.75,18.91-5.32,38-6.51,57.24-1.68,7.63,1.92,9.42,3.82,9.06,11.77-1.22,27-10.46,50.49-30.58,69.15a8.19,8.19,0,0,1-1.41,1.23c-1.74,1-3.63,2.4-5.56.72-1.65-1.44-1.05-3.39-.36-5.21,3.32-8.76,6.66-17.51,9.89-26.29a119.11,119.11,0,0,0,5.3-21.76c1.38-8.31-3.67-13.1-14.17-13.54C454.69,366.53,450.3,366.68,444.92,366.68Z"/><g class="cls-3"><path class="cls-4" d="M18,365s104,74,237,74,199-48,199-48-68,62.35-203,62.35C251,453.35,117,457,18,365Z"/></g><g class="cls-3"><path class="cls-4" d="M140,301s12,46,91,40c0,0,42-2,72-20,0,0-19,33-75,36S146,333,140,301Z"/></g><g class="cls-3"><path class="cls-4" d="M214,265c.2-1.51-.55-3.63-.66-5.17a55.19,55.19,0,0,1,.66-13.09c2.22-13,9.81-25.2,20.94-32.42,13.72-8.88,32-12.77,48.06-14.32,0,0,15.5-1.49,11.75,14.75C294.75,214.75,222,205,214,265Z"/></g><g class="cls-3"><path class="cls-4" d="M330,348l56.5-48.5s11,7.5,4.25,17.5L351,352S342,361,330,348Z"/></g><g class="cls-3"><path class="cls-4" d="M147,135s-4,13,8,15,44,5,44,5,13,2,16-9,13.5-29,37.25-30.5S286,125.5,291,133.25c0,0-4-30.25-37-30.25s-46,27-52,39Z"/></g><g class="cls-5"><path class="cls-6" d="M151.67,121S175,76,262,73s106,53,106,53-3.67-67-105.33-67C262.67,59,178.33,56,151.67,121Z"/></g><g class="cls-5"><path class="cls-6" d="M295,172S155,186,137.5,280.5C137.5,280.5,116,177,295,172Z"/></g><g class="cls-5"><path class="cls-6" d="M215.85,280.5S211,319,254,318s40.75-71.33,40.75-71.33S292.87,298,250.94,305C250.94,305,226.69,310,215.85,280.5Z"/></g></g><g id="Lines"><path class="cls-4" d="M220.93,363.14a120.82,120.82,0,0,1-32.05-4.38c-28.69-7.86-47.26-27.48-53.72-56.75-8.27-37.47-.25-69,23.84-93.71,13.15-13.48,29.95-22.58,52.87-28.64,21-5.55,42.75-7.77,63.75-9.91l5.13-.52a42.92,42.92,0,0,1,4.51-.15c1.45,0,4.05,0,4.9-.37a19.46,19.46,0,0,0-.21-4.17,36.71,36.71,0,0,1-.32-4.73,84.65,84.65,0,0,0-1.17-17.21c-2.12-11.41-8.58-18.37-19.76-21.28a43.37,43.37,0,0,0-32.7,4c-8.22,4.5-13.41,11.6-15.84,21.71-2.51,10.4-8.1,14.38-18.74,13.32-17.36-1.73-32.64-3.33-46.73-4.88-6.16-.68-9.43-3.55-11.1-5.84s-3.42-6.39-2.13-12.61c6.83-33.18,25.76-56.5,56.24-69.31,41.86-17.6,84-18.4,125.35-2.39,31.49,12.2,48.67,36.13,51.06,71.11.94,13.81.85,27.28.75,40.31-.05,6.83-.1,13.29,0,19.33v.09c0,6.9,0,13.46,0,19.79,0,13.78.08,26.8-.11,39.66a56.69,56.69,0,0,0,11.72,36.29l1.81,2.37c2.28,3,4.64,6.06,6.71,9.39,4.64,7.48,3.5,14.22-3.38,20l-6.2,5.25Q369.75,342.2,354,355.51c-8.48,7.18-16.09,7.25-24.68.22-9.1-7.44-17.23-16.68-24.83-28.19-11.15,10.7-23.67,21.21-39.28,27.18A123.44,123.44,0,0,1,220.93,363.14Zm63.4-184.06c-.93,0-1.8,0-2.56.09l-5.14.53c-20.61,2.1-41.93,4.28-62.21,9.63-21.09,5.57-36.43,13.82-48.26,25.95-21.89,22.46-28.84,50.12-21.24,84.58,5.69,25.77,21.37,42.35,46.6,49.26,23.35,6.39,46.95,5.14,70.15-3.74,14.7-5.62,26.72-16.1,37.53-26.59,1-1,3.39-3.28,6.68-2.9s5,3.12,5.79,4.28c7.38,11.54,15.24,20.63,24,27.82,4.86,4,7.09,3.95,11.89-.12q15.71-13.31,31.43-26.58l6.21-5.25c3.27-2.76,3.22-4.07,1.33-7.12s-3.92-5.66-6.15-8.58l-1.85-2.43a67.24,67.24,0,0,1-13.74-42.46c.19-12.77.15-25.74.11-39.48,0-6.32,0-12.88,0-19.77-.12-6.16-.07-12.66,0-19.54.09-12.84.19-26.12-.73-39.56C362,106.33,347,85.31,319.44,74.64c-38.82-15-78.48-14.28-117.86,2.28-27.26,11.46-44.2,32.35-50.33,62.11-.3,1.46-.47,3.47.43,4.71s2.72,1.62,4.11,1.78c14.05,1.55,29.3,3.15,46.63,4.87,5.63.56,6.68-.18,8-5.71,3.1-12.83,10.09-22.3,20.78-28.14a53,53,0,0,1,40-4.89c14.9,3.87,24.26,13.94,27.08,29.12A94.33,94.33,0,0,1,299.63,160a28.4,28.4,0,0,0,.26,3.4c.44,3.89,1,8.72-2.47,12.25s-8.3,3.45-12.21,3.43Zm-36.25,131a40.12,40.12,0,0,1-15.79-3.34c-13.51-5.74-20.68-17.32-21.91-35.39-2-28.66,13-48.85,42.14-56.85,13-3.56,26-4.31,38.29-4.76a8.67,8.67,0,0,1,6.75,2.2c2.35,2.36,2.22,5.61,2.18,6.67-.16,3.76-.12,7.6-.09,10.69,0,1.18,0,2.25,0,3.19v.08c-.26,16.24-.91,29.71-6.61,42.87-4.57,10.58-10.44,18.58-17.93,24.44C266.48,306.69,257.32,310.11,248.08,310.11Zm41.61-90.29c-11.23.44-23.08,1.21-34.52,4.35-24.75,6.8-36.47,22.45-34.82,46.53,1,14.14,6,22.68,15.85,26.87,11.06,4.7,22.08,2.84,32.78-5.54,6.14-4.8,11-11.52,14.92-20.53,5-11.46,5.54-23.92,5.78-39,0-.9,0-1.93,0-3.05C289.62,226.66,289.59,223.29,289.69,219.82Zm5,12.7h0Z"/><path class="cls-4" d="M264.53,458.35c-1.47,0-2.81,0-4-.1-42.56-.42-78.67-5.67-113.63-16.52A349.43,349.43,0,0,1,29.11,378.82c-3.58-2.92-7.8-6.41-11.94-10.18-6.39-5.82-4.07-11-2.78-13,1.68-2.56,5.69-6.27,13.57-2.28,3.69,1.87,7.39,3.81,11,5.68,5.65,3,11.5,6,17.31,8.82a469.91,469.91,0,0,0,104,35.33,496.18,496.18,0,0,0,57.44,8.93c22.52,2.17,41.16,2.8,58.66,2,42.78-2,81.43-8.43,118.17-19.66a435,435,0,0,0,42.25-15.08,23.27,23.27,0,0,1,11.66-1.75A11.1,11.1,0,0,1,457,394.77a18.81,18.81,0,0,1-5.72,5.9c-26.17,17.94-56.13,31.79-91.57,42.32a379.18,379.18,0,0,1-63.89,12.93C281.76,457.56,271.64,458.35,264.53,458.35ZM27.23,364.2c2.87,2.49,5.69,4.82,8.2,6.86a339.43,339.43,0,0,0,114.4,61.12c34,10.56,69.27,15.67,110.88,16.07H261c8.6.49,23.35-1.06,33.69-2.27a368.46,368.46,0,0,0,62.2-12.58c34.43-10.24,63.46-23.65,88.77-41a9.15,9.15,0,0,0,2.77-2.75,1.81,1.81,0,0,0,.31-1.51,1.69,1.69,0,0,0-1.33-.63,13.18,13.18,0,0,0-6.68,1A446,446,0,0,1,397.46,404c-37.54,11.48-77,18-120.62,20.09-18,.84-37.08.2-60.09-2a507.59,507.59,0,0,1-58.6-9.11,480.57,480.57,0,0,1-106.24-36.1c-6-2.86-11.89-6-17.62-9Z"/><path class="cls-4" d="M460.24,439.31a7.59,7.59,0,0,1-5.12-2c-4.37-3.82-2.39-9-1.74-10.76l1.59-4.19c2.74-7.22,5.57-14.69,8.27-22.05a115.68,115.68,0,0,0,5.07-20.85c.54-3.26-.46-4.49-.79-4.9-1.34-1.64-4.41-2.65-8.66-2.82-2.82-.12-5.64-.09-8.91-.06-1.59,0-3.26,0-5,0h-.3c-8.26-.49-17.16.62-26.58,1.79l-5,.62c-2.15.25-7.86.94-10.79-4.09-1.65-2.84-2.34-7.21,3.76-11.89s13.28-8.05,22.33-10.59c21.17-5.95,40.74-6.51,59.82-1.72,10.17,2.56,13.29,6.66,12.83,16.85-1.33,29.6-12.15,54-32.16,72.59a1.88,1.88,0,0,0-.25.24,10.78,10.78,0,0,1-2,1.61l-.32.2A11.81,11.81,0,0,1,460.24,439.31Zm-6.17-77.69c1.76,0,3.48,0,5.2.1,7.36.3,12.75,2.49,16,6.51,1.91,2.34,4,6.47,2.89,12.84a124.92,124.92,0,0,1-5.54,22.66c-2.68,7.29-5.47,14.66-8.18,21.79C481.11,409,489.79,388.2,491,362.19c.24-5.31.24-5.31-5.28-6.7-17.35-4.36-35.23-3.82-54.67,1.64a59.86,59.86,0,0,0-15.59,6.58l1.38-.17c9.4-1.17,19.13-2.38,28.27-1.86,1.68,0,3.26,0,4.78,0Z"/></g></svg>