<?xml version="1.0" ?><svg viewBox="0 0 512 512" xmlns="http://www.w3.org/2000/svg"><defs><style>.cls-1{fill:#bac2d3;}.cls-2{opacity:0.2;}.cls-3{fill:#fff;}.cls-4{fill:#dae1ea;}.cls-5{fill:#3f456b;}.cls-6{opacity:0.3;}</style></defs><title/><g id="Colors"><path class="cls-1" d="M433,179.67c-36.28,22.64-54.1,55.35-51.24,98.09s26,72.16,64.12,91.23c-1.93,5.46-3.67,11-5.82,16.36-11.61,29-27.93,55.21-48.05,79.09-7.66,9.1-16,17.46-26.35,23.53-14.73,8.62-30.3,9.47-46.25,4.44-9.8-3.1-19.34-7-29.09-10.31-14.28-4.79-28.79-6.64-43.92-4.41-14.52,2.15-27.59,8.38-41.24,13-10.44,3.54-21,6.53-32.25,4.81-12.29-1.88-22.58-7.91-31.37-16.28-27.28-26-47.55-56.88-62.52-91.31a315.87,315.87,0,0,1-19.68-62.2,238.91,238.91,0,0,1-4.69-63.59c2-31.38,11.34-60.46,31.25-85.28a114.72,114.72,0,0,1,64.75-40.94c13.12-3.11,26.17-4.19,39.2-1.22,9.84,2.25,19.39,5.88,29,9s18.89,6.57,28.44,9.51c5.66,1.74,11.3.4,16.78-1.51,14.3-5,28.51-10.26,43-14.8,15-4.7,30.23-6.6,46.08-4.28,15,2.21,29.28,6.27,42.75,13.16,14.69,7.51,26.29,18.58,36.13,31.64A12,12,0,0,1,433,179.67Z"/><g class="cls-2" data-name="&lt;编组&gt;" id="_编组_"><path class="cls-3" d="M402.49,149.51,109.63,442.37a295.94,295.94,0,0,1-30.57-54.46,315.87,315.87,0,0,1-19.68-62.2,238.91,238.91,0,0,1-4.69-63.59c2-31.38,11.34-60.46,31.25-85.28a114.72,114.72,0,0,1,64.75-40.94c13.12-3.11,26.17-4.19,39.2-1.22,9.84,2.25,19.39,5.88,29,9s18.89,6.57,28.44,9.51c5.66,1.74,11.3.4,16.78-1.51,14.3-5,28.51-10.26,43-14.8,15-4.7,30.23-6.6,46.08-4.28,15,2.21,29.28,6.27,42.75,13.16Q399.31,147.52,402.49,149.51Z"/></g><path class="cls-4" d="M250.57,126.44C243.07,82.06,283.51,22,346.13,16c0,5.69.39,11.35-.07,16.93-2.37,28.68-15.65,52-36.11,71.52-12.71,12.12-27.88,19.68-45.4,21.9C260,126.92,255.37,126.44,250.57,126.44Z"/><path class="cls-1" d="M250.57,126.44C243.07,82.06,283.51,22,346.13,16c0,5.69.39,11.35-.07,16.93-2.37,28.68-15.65,52-36.11,71.52-12.71,12.12-27.88,19.68-45.4,21.9C260,126.92,255.37,126.44,250.57,126.44Z"/><g class="cls-2"><path class="cls-5" d="M102.24,431.5S140,480,185,476c0,0,7,0,27-8s58-17,94,2c0,0,62,33,109.12-36.6,0,0-26.12,42.6-49.12,54.6,0,0-24.33,19.67-69.67-3.67,0,0-36-18.66-77.66,2S148.49,501,102.24,431.5Z"/></g><g class="cls-2"><path class="cls-5" d="M345.33,19S331,95,250,127c0,0,42.33,4.33,72.67-35.33S345.33,19,345.33,19Z"/></g><g class="cls-6"><path class="cls-3" d="M250.86,127.14s14.34-76,95.34-108c0,0-42.34-4.33-72.67,35.33S250.86,127.14,250.86,127.14Z"/></g><g class="cls-6"><path class="cls-3" d="M66.33,208c4.94-9.92,15.92-18.88,24.33-25.56,32.59-25.88,75.52-36.1,115-21.8,21.2,7.67,45.09,22.41,67.73,11.05C322.23,147.19,389.44,137.44,432,180c0,0-39-64-120.5-44.5l-40,13.5S254,161.5,227,146.75,116.67,107,66.33,208Z"/></g><g class="cls-2"><path class="cls-5" d="M420,164s-49,29-39,104.5c0,0-3-57.5,51-88.5Z"/></g><g class="cls-6"><path class="cls-3" d="M440,386s-77-35-59-114c0,0-7,62,65,97Z"/></g></g><g id="Lines"><g id="gfoA91"><path class="cls-5" d="M179.67,501a49.13,49.13,0,0,1-7.47-.57c-12.31-1.88-23.77-7.8-34.07-17.6-26.34-25.09-47.76-56.36-63.66-92.94a323.53,323.53,0,0,1-20-63.18,244.59,244.59,0,0,1-4.78-64.91c2.17-34.41,13-64.05,32.34-88.1A120.11,120.11,0,0,1,149.54,131c15.47-3.66,29-4.06,41.46-1.22a225.37,225.37,0,0,1,22.14,6.68c2.44.83,4.88,1.66,7.32,2.46,3.91,1.28,7.85,2.63,11.66,3.94,5.47,1.88,11.12,3.82,16.7,5.54,4.43,1.36,9.19.1,13.66-1.46q6-2.08,12-4.22c10.15-3.6,20.65-7.33,31.14-10.62,16.87-5.29,32.67-6.75,48.31-4.45,16.62,2.44,31.11,6.9,44.3,13.65,14.13,7.22,26.51,18,37.84,33.08a9.24,9.24,0,0,1,1.31,2.55c.08.21.17.45.28.72a5,5,0,0,1-1.94,6.23c-35.13,21.92-51.58,53.39-48.9,93.51,2.62,39.28,22.7,67.77,61.37,87.1a5,5,0,0,1,2.48,6.14c-.61,1.71-1.19,3.42-1.78,5.13-1.28,3.75-2.6,7.62-4.12,11.42-11.33,28.35-27.77,55.42-48.86,80.45-6.53,7.76-15.58,17.56-27.66,24.63-15.28,8.95-32.2,10.59-50.27,4.88-5.6-1.76-11.14-3.81-16.5-5.79-4.16-1.53-8.45-3.12-12.68-4.54-14.39-4.83-28-6.21-41.6-4.2-9.89,1.46-19,4.9-28.72,8.55-3.79,1.43-7.7,2.9-11.64,4.23C198.34,498.29,189.35,501,179.67,501Zm-5.76-363.09a95.7,95.7,0,0,0-22.07,2.84,110.35,110.35,0,0,0-62,39.21c-18,22.41-28.12,50.15-30.16,82.47a234.32,234.32,0,0,0,4.59,62.25,313.84,313.84,0,0,0,19.37,61.22C99.22,421.76,119.3,451.09,145,475.6c8.9,8.48,18.28,13.37,28.68,15s20.45-1.41,29.89-4.61c3.78-1.28,7.62-2.72,11.32-4.12,9.76-3.67,19.84-7.47,30.79-9.08C260.9,470.51,276,472,292,477.36c4.37,1.47,8.74,3.08,13,4.64,5.25,1.94,10.68,3.94,16,5.64,15.48,4.88,29.29,3.58,42.21-4,8.4-4.91,16.13-11.84,25.06-22.44,20.4-24.22,36.29-50.37,47.23-77.73,1.42-3.55,2.7-7.3,3.94-10.93l.38-1.11c-39-20.8-60.22-52.19-63-93.36-2.84-42.48,13.79-76.1,49.45-100-9.9-12.59-20.6-21.72-32.62-27.87-12.2-6.24-25.67-10.38-41.19-12.66-14.12-2.07-28.47-.73-43.87,4.1-10.31,3.24-20.72,6.93-30.78,10.51-4,1.42-8,2.84-12,4.24-5.79,2-12.69,3.78-19.89,1.56-5.73-1.76-11.47-3.73-17-5.63-3.77-1.3-7.67-2.64-11.51-3.89-2.48-.81-5-1.66-7.44-2.5a215.83,215.83,0,0,0-21.15-6.4A66.35,66.35,0,0,0,173.91,137.92Z"/><path class="cls-5" d="M259.46,131.63c-1.53,0-3,0-4.52-.1s-2.93-.09-4.37-.09a5,5,0,0,1-4.93-4.17c-3.84-22.71,4.06-49.56,21.13-71.82C286.19,30.14,314.94,14,345.65,11a5,5,0,0,1,5.48,5c0,1.76,0,3.52.08,5.28A116.12,116.12,0,0,1,351,33.34c-2.31,28-15,53.11-37.64,74.73a83.94,83.94,0,0,1-48.22,23.24A44.37,44.37,0,0,1,259.46,131.63Zm-4.5-10.1h.3a56,56,0,0,0,8.66-.15,74.21,74.21,0,0,0,42.58-20.55c21.13-20.16,32.44-42.51,34.58-68.32a105.74,105.74,0,0,0,.13-10.88c-25.91,3.94-49.92,18.28-66.5,39.9C260.33,80.28,253.12,102.39,255,121.53Z"/></g></g></svg>