<?xml version="1.0" ?><svg viewBox="0 0 512 512" xmlns="http://www.w3.org/2000/svg"><defs><style>.cls-1{fill:#8cc0f4;}.cls-2{opacity:0.2;}.cls-3{fill:#3f456b;}.cls-4{fill:#fff;}</style></defs><title/><g id="Colors"><path class="cls-1" d="M158.69,104.3a187.94,187.94,0,0,1,39.41,3.82q17.79,3.81,30.5,12.5a58.17,58.17,0,0,1,19.7,23.09q7,14.41,7,35.59,0,22.88-10.38,38.13t-30.71,25q28,8.06,41.73,28.17t13.77,48.52q0,22.88-8.9,39.61a77,77,0,0,1-23.93,27.33,106.24,106.24,0,0,1-34.32,15.68,155.31,155.31,0,0,1-39.61,5.08H16.34V104.3Zm-8.47,122.45q17.79,0,29.24-8.47t11.43-27.54q0-10.59-3.81-17.37a28.07,28.07,0,0,0-10.17-10.59,42.7,42.7,0,0,0-14.61-5.3A96.84,96.84,0,0,0,145.14,156H82.85v70.76h67.37ZM154,355.13a88.78,88.78,0,0,0,18.64-1.91,45.69,45.69,0,0,0,15.68-6.36,31.91,31.91,0,0,0,10.8-12.07q4-7.64,4-19.49Q203.18,292,190,282t-34.74-10H82.85v83Zm199.38-6.36q13.56,13.16,39,13.14,18.21,0,31.35-9.11t16.1-19.28h53q-12.71,39.41-39,56.35t-63.56,16.95q-25.84,0-46.61-8.27A96.72,96.72,0,0,1,308.5,375a105.72,105.72,0,0,1-22.24-36.43q-7.85-21.18-7.84-46.61a127.64,127.64,0,0,1,8.05-45.75,105.86,105.86,0,0,1,58.26-61q20.53-8.89,45.54-8.89,28,0,48.73,10.8a97.41,97.41,0,0,1,34.11,29,119.57,119.57,0,0,1,19.28,41.52,155.1,155.1,0,0,1,4.24,48.73h-158q1.26,29.22,14.82,42.36Zm68-115.24q-10.82-11.85-32.84-11.86-14.4,0-23.93,4.87a45.46,45.46,0,0,0-15.26,12.08,44.26,44.26,0,0,0-8.05,15.25,69.17,69.17,0,0,0-2.75,14.4h97.87Q432.22,245.4,421.42,233.53ZM328.31,111.67H450.59v41.9H328.31Z"/><g class="cls-2"><path class="cls-3" d="M291.92,351.5S315,391,388,391s97.75-39.5,97.75-39.5S466,407,390,407,291.92,351.5,291.92,351.5Z"/></g><g class="cls-2"><rect class="cls-3" height="15" width="158" x="339" y="292"/></g><g class="cls-2"><rect class="cls-3" height="15" width="123" x="328" y="139"/></g><g class="cls-2"><path class="cls-4" d="M288.5,240S319,191,389,191s96.75,47.22,96.75,47.22S466,176,389,176,288.5,240,288.5,240Z"/></g><g class="cls-2"><path class="cls-3" d="M16,407V391H158s94,2.67,109-54.67c0,0-3,70.67-104,70.67Z"/></g><g class="cls-2"><path class="cls-4" d="M16,104v16H158s96-1,96,56c0,0,10-72-91-72Z"/></g><g class="cls-2"><path class="cls-3" d="M83,272V258h69s39.5-.5,46.25,33.25c0,0-4.75-19-49.5-19S83,272,83,272Z"/></g><g class="cls-2"><path class="cls-3" d="M83,157V143h63.46s36.33-.5,42.54,33.25c0,0-4.37-19-45.53-19S83,157,83,157Z"/></g></g><g id="Lines"><path class="cls-3" d="M163.22,411.82H16.33a5,5,0,0,1-5-5V104.3a5,5,0,0,1,5-5H158.69a193.68,193.68,0,0,1,40.45,3.93c12.44,2.66,23.3,7.12,32.28,13.26a63.27,63.27,0,0,1,21.38,25c5,10.25,7.49,22.95,7.49,37.77,0,16.2-3.78,30-11.24,40.94a75,75,0,0,1-22.6,21.17c14.41,6,25.68,14.8,33.61,26.37,9.72,14.22,14.64,31.49,14.64,51.34,0,16-3.19,30.13-9.48,42a82.39,82.39,0,0,1-25.47,29.06,111.33,111.33,0,0,1-35.92,16.43A160.05,160.05,0,0,1,163.22,411.82Zm-141.89-10H162.94a151.69,151.69,0,0,0,38.34-4.92A101.53,101.53,0,0,0,234,382a72.51,72.51,0,0,0,22.4-25.58c5.52-10.38,8.31-22.92,8.31-37.27,0-17.8-4.34-33.17-12.9-45.7-8.46-12.36-21.58-21.18-39-26.19a5,5,0,0,1-.77-9.31c12.68-6.08,22.35-13.92,28.74-23.3s9.51-21.16,9.51-35.32c0-13.29-2.18-24.53-6.49-33.41a53.46,53.46,0,0,0-18-21.15c-7.9-5.39-17.57-9.34-28.73-11.73a184,184,0,0,0-38.36-3.71H21.33Zm368.94,10c-17.79,0-34.09-2.9-48.45-8.62a102.06,102.06,0,0,1-36.95-24.73,111.07,111.07,0,0,1-23.3-38.13c-5.41-14.59-8.15-30.86-8.15-48.34a133.13,133.13,0,0,1,8.38-47.53,110.8,110.8,0,0,1,60.94-63.82c14.26-6.18,30.25-9.31,47.53-9.31,19.37,0,36.54,3.82,51,11.37a102.76,102.76,0,0,1,35.83,30.5,124.89,124.89,0,0,1,20.09,43.24,160.74,160.74,0,0,1,4.39,50.29,5,5,0,0,1-5,4.67H343.93c1.36,15.41,5.71,26.76,13,33.77h0c8,7.78,20,11.73,35.5,11.73,11.06,0,20.65-2.77,28.5-8.22S433.4,337.75,435,332.12a5,5,0,0,1,4.8-3.6h53a5,5,0,0,1,4.76,6.54c-8.79,27.27-22.6,47.13-41,59C438.29,405.85,416,411.82,390.27,411.82Zm0-230.48c-15.9,0-30.56,2.85-43.56,8.48A100.91,100.91,0,0,0,291.14,248a123.39,123.39,0,0,0-7.72,44c0,16.29,2.53,31.39,7.52,44.87a101.38,101.38,0,0,0,21.2,34.74,92.3,92.3,0,0,0,33.37,22.3c13.19,5.25,28.24,7.91,44.76,7.91,23.76,0,44.24-5.44,60.85-16.15,15-9.66,26.61-25.5,34.66-47.15H443.32c-2.93,6.54-8.54,12.71-16.73,18.39-9.55,6.63-21.06,10-34.2,10-18.22,0-32.5-4.9-42.46-14.55s-15.44-25-16.34-45.74A5,5,0,0,1,335,303a5,5,0,0,1,3.61-1.54H491.88a149,149,0,0,0-4.34-42.49,115,115,0,0,0-18.47-39.8,92.72,92.72,0,0,0-32.38-27.54C423.63,184.78,408,181.34,390.27,181.34ZM154,360.13H82.85a5,5,0,0,1-5-5v-83a5,5,0,0,1,5-5H155.3c15.45,0,28.16,3.69,37.76,11,10,7.62,15.12,20.14,15.12,37.25,0,8.69-1.55,16-4.6,21.82A37.08,37.08,0,0,1,191.09,351a50.9,50.9,0,0,1-17.37,7.07A94.18,94.18,0,0,1,154,360.13Zm-66.18-10H154a84.43,84.43,0,0,0,17.6-1.8,41.07,41.07,0,0,0,14-5.65,26.83,26.83,0,0,0,9.12-10.23c2.29-4.33,3.45-10.1,3.45-17.15,0-14-3.65-23.58-11.16-29.28-7.83-5.93-18.5-8.94-31.72-8.94H87.85Zm348.61-76.85H338.58a5,5,0,0,1-5-5.33,73.57,73.57,0,0,1,2.94-15.46,49.26,49.26,0,0,1,8.93-17,50.78,50.78,0,0,1,16.9-13.42c7.05-3.6,15.86-5.42,26.21-5.42,16.08,0,28.37,4.54,36.53,13.49h0c7.81,8.58,13.28,21.09,16.26,37.2a5,5,0,0,1-4.91,5.91Zm-92.22-10h86c-2.75-11.37-7-20.23-12.56-26.37h0c-6.18-6.79-16-10.23-29.14-10.23-8.75,0-16,1.45-21.66,4.32a41,41,0,0,0-13.62,10.73,39.42,39.42,0,0,0-7.15,13.54A75.74,75.74,0,0,0,344.24,263.27ZM82.85,231.76a5,5,0,0,1-5-5V156a5,5,0,0,1,5-5h62.29a102.78,102.78,0,0,1,18,1.55,48.39,48.39,0,0,1,16.33,5.94,33.21,33.21,0,0,1,11.95,12.43c2.95,5.25,4.45,11.92,4.45,19.82,0,14.33-4.53,24.94-13.46,31.56-8.47,6.27-19.31,9.45-32.21,9.45Zm5-10h62.37c10.71,0,19.55-2.52,26.26-7.49,6.33-4.69,9.41-12.38,9.41-23.52,0-6.16-1.06-11.18-3.17-14.92a23,23,0,0,0-8.38-8.75,38.3,38.3,0,0,0-12.93-4.67,93.14,93.14,0,0,0-16.26-1.4H87.85Zm362.74-63.19H328.31a5,5,0,0,1-5-5v-41.9a5,5,0,0,1,5-5H450.59a5,5,0,0,1,5,5v41.9A5,5,0,0,1,450.59,158.57Zm-117.28-10H445.59v-31.9H333.31Z"/></g></svg>