<?xml version="1.0" ?><svg viewBox="0 0 512 512" xmlns="http://www.w3.org/2000/svg"><defs><style>.cls-1{fill:#f5f6f7;}.cls-2{fill:#8bd0f7;}.cls-3{opacity:0.15;}.cls-4{fill:#3f456b;}.cls-5{opacity:0.2;}.cls-6{fill:#fff;}.cls-7{opacity:0.7;}</style></defs><title/><g id="Colors"><g data-name="&lt;编组&gt;" id="_编组_"><path class="cls-1" d="M496,73V438a10,10,0,0,1-10,10H300c-22-83,0-181,0-181H216c10-122,74.33-204,74.33-204H486A10,10,0,0,1,496,73Z"/><path class="cls-2" d="M216,267h84s-22,98,0,181H26a10,10,0,0,1-10-10V73A10,10,0,0,1,26,63H290.33S226,145,216,267Z"/></g><g class="cls-3"><polygon class="cls-4" points="487 448 24 448 17 444 16 433 497 433 495 444 487 448"/></g><g class="cls-5"><path class="cls-6" d="M287.86,62H26l-8,4L16,77H278.24A46.08,46.08,0,0,1,287.86,62Z"/></g><g class="cls-7"><path class="cls-6" d="M496,66l-7-4H287.86a46.08,46.08,0,0,0-9.62,15H497Z"/></g></g><g id="Lines"><path class="cls-4" d="M486,453H26a15,15,0,0,1-15-15V73A15,15,0,0,1,26,58H486a15,15,0,0,1,15,15V438A15,15,0,0,1,486,453ZM26,68a5,5,0,0,0-5,5V438a5,5,0,0,0,5,5H486a5,5,0,0,0,5-5V73a5,5,0,0,0-5-5Z"/><path class="cls-4" d="M321,501a5,5,0,0,1-4.35-2.54c-29.51-52.16-33.77-112.69-32.15-154.28A410.05,410.05,0,0,1,293.65,272H216a5,5,0,0,1-5-5.55c8.87-79.85,37.23-144.81,59.46-185.23,24.12-43.87,45.86-68.51,46.77-69.54a5,5,0,0,1,7.48,6.64c-.22.25-22.05,25-45.64,68C257.89,125,231,186.45,221.62,262H300a5,5,0,0,1,4.83,6.3c-.09.32-8.66,32.66-10.34,76.51C292.94,385,297,443.49,325.35,493.54A5,5,0,0,1,321,501Z"/><path class="cls-4" d="M259,368c-94.28,0-159.8-38.07-162.54-39.7a5,5,0,0,1,5.08-8.61h0c.65.39,66,38.31,157.46,38.31,91.62,0,159.86-38,160.54-38.35a5,5,0,1,1,4.92,8.7C421.6,330,353.23,368,259,368Z"/><path class="cls-4" d="M141,186a5,5,0,0,1-5-5V137a5,5,0,0,1,10,0v44A5,5,0,0,1,141,186Z"/><path class="cls-4" d="M355,186a5,5,0,0,1-5-5V137a5,5,0,0,1,10,0v44A5,5,0,0,1,355,186Z"/></g></svg>