<?xml version="1.0" ?><svg viewBox="0 0 512 512" xmlns="http://www.w3.org/2000/svg"><defs><style>.cls-1{fill:#f5f6f7;}.cls-2{fill:#e95a6b;}.cls-3{opacity:0.2;}.cls-4{fill:#fff;}.cls-5{opacity:0.15;}.cls-6{fill:#3f456b;}.cls-7{opacity:0.1;}</style></defs><title/><g id="Colors"><g data-name="&lt;编组&gt;" id="_编组_"><polygon class="cls-1" points="433 157 433 432 81 432 81 157 81.17 156.77 256.01 283 432.4 156.17 433 157"/><polygon class="cls-1" points="440.28 63 440.28 64.53 256.04 197 72.36 64.39 72.36 63 440.28 63"/><path class="cls-2" d="M496,113V382a50.15,50.15,0,0,1-50,50H433V157l-.6-.83L493.84,112l2.14,0C496,112.31,496,112.66,496,113Z"/><path class="cls-2" d="M81.17,156.77,81,157V432H66a50.15,50.15,0,0,1-50-50V113A50.15,50.15,0,0,1,66,63h6.36v1.39L256,197,440.28,64.53V63H446a50.13,50.13,0,0,1,50,49l-2.14,0L432.4,156.17,256,283Z"/></g><g class="cls-3"><path class="cls-4" d="M16,112s8-33,65-33H432s62.67,3,64.33,40c0,0,5.67-55-56.33-55H69S22,60,16,112Z"/></g><g class="cls-5"><path class="cls-6" d="M496.47,384s-8,33-65,33h-351s-62.67-3-64.33-40c0,0-5.67,55,56.33,55h371S490.47,436,496.47,384Z"/></g><g class="cls-5"><path class="cls-6" d="M20.91,91.46,256,260,490.67,93S501,114,496,138L256,309,16,138S14,104,20.91,91.46Z"/></g><g class="cls-7"><path class="cls-6" d="M16,112,309.76,433.09H446S496,428,496,384V113L256,283,17,110Z"/></g><g class="cls-7"><path class="cls-6" d="M255,284,47.33,429.67S16,418,16,382V110L252.5,281.5Z"/></g></g><g id="Lines"><path class="cls-6" d="M446,437H66a55.06,55.06,0,0,1-55-55V113A55.06,55.06,0,0,1,66,58H446a55.06,55.06,0,0,1,55,55V382A55.06,55.06,0,0,1,446,437ZM66,68a45.05,45.05,0,0,0-45,45V382a45.05,45.05,0,0,0,45,45H446a45.05,45.05,0,0,0,45-45V113a45.05,45.05,0,0,0-45-45Z"/><path class="cls-6" d="M256,288a5,5,0,0,1-2.93-.95l-236.84-171a5,5,0,1,1,5.85-8.1L256,276.84l234.91-168.9a5,5,0,0,1,5.84,8.12l-237.83,171A5,5,0,0,1,256,288Z"/><path class="cls-6" d="M256,202a5,5,0,0,1-2.93-.95L69.43,68.44a5,5,0,0,1,5.86-8.11L256,190.84,437.36,60.47a5,5,0,0,1,5.84,8.12L259,201.06A5,5,0,0,1,256,202Z"/><path class="cls-6" d="M81,437a5,5,0,0,1-5-5V157a5,5,0,0,1,10,0V432A5,5,0,0,1,81,437Z"/><path class="cls-6" d="M433,437a5,5,0,0,1-5-5V157a5,5,0,0,1,10,0V432A5,5,0,0,1,433,437Z"/></g></svg>