<?xml version="1.0" ?><svg viewBox="0 0 512 512" xmlns="http://www.w3.org/2000/svg"><defs><style>.cls-1{fill:#8bd0f7;}.cls-2{opacity:0.2;}.cls-3{fill:#fff;}.cls-4{fill:#3f456b;}.cls-5{fill:#f5f6f7;}.cls-6{opacity:0.15;}.cls-7{opacity:0.7;}</style></defs><title/><g id="Colors"><rect class="cls-1" height="481" rx="80" ry="80" width="481" x="16" y="16"/><g class="cls-2" data-name="&lt;编组&gt;" id="_编组_"><path class="cls-3" d="M417,16a79.69,79.69,0,0,1,57,24L40,474a79.69,79.69,0,0,1-24-57V96A80.24,80.24,0,0,1,96,16Z"/></g><g class="cls-2" id="oPmUL5"><path class="cls-4" d="M438.59,345.71a78.53,78.53,0,0,1-14,18.23c-11.81,11.92-28.45,17.57-44.77,19.94-19.73,2.87-40.22,1.72-60.08,1.76-21,.05-42.06,0-63.09,0-7.17,0-14.35-.32-21.52-.33-5.43,0-10.87.31-16.29.32-4.16,0-8.31-.32-12.46-.33-16.74,0-33.48,0-50.22,0-5.72,0-11.44.16-17.15-.06a74.75,74.75,0,0,1-35.19-10.47,76.07,76.07,0,0,1-15.57-11.79,81.64,81.64,0,0,1-14.2-18.85,74.32,74.32,0,0,1-7.49-20.15,77.68,77.68,0,0,1-.48-30.31,75.36,75.36,0,0,1,8.5-23.83,78,78,0,0,1,17.54-21.39A82.24,82.24,0,0,1,111.7,236a3.19,3.19,0,0,0,2.07-2.68,53.76,53.76,0,0,1,11.53-25.89A55.3,55.3,0,0,1,149.61,190a53.74,53.74,0,0,1,21.4-3.52,58.13,58.13,0,0,1,15.19,2.71c1.85.62,4.41,2.56,6.3,2.44,2.17-.13,3.92-2.65,5-4.25a110.93,110.93,0,0,1,36.33-33.6,102.66,102.66,0,0,1,84.48-7c27.43,10,47.28,28.4,60.37,54.32a108,108,0,0,1,10.84,36.3c.16,1.35.92,1.76,2,2a74,74,0,0,1,47,106.26Z"/></g><g data-name="oPmUL5" id="oPmUL5-2"><path class="cls-5" d="M438.59,326.71a78.53,78.53,0,0,1-14,18.23c-11.81,11.92-28.45,17.57-44.77,19.94-19.73,2.87-40.22,1.72-60.08,1.76-21,.05-42.06,0-63.09,0-7.17,0-14.35-.32-21.52-.33-5.43,0-10.87.31-16.29.32-4.16,0-8.31-.32-12.46-.33-16.74,0-33.48,0-50.22,0-5.72,0-11.44.16-17.15-.06a74.75,74.75,0,0,1-35.19-10.47,76.07,76.07,0,0,1-15.57-11.79,81.64,81.64,0,0,1-14.2-18.85,74.32,74.32,0,0,1-7.49-20.15,77.68,77.68,0,0,1-.48-30.31,75.36,75.36,0,0,1,8.5-23.83,78,78,0,0,1,17.54-21.39A82.24,82.24,0,0,1,111.7,217a3.19,3.19,0,0,0,2.07-2.68,53.76,53.76,0,0,1,11.53-25.89A55.3,55.3,0,0,1,149.61,171a53.74,53.74,0,0,1,21.4-3.52,58.13,58.13,0,0,1,15.19,2.71c1.85.62,4.41,2.56,6.3,2.44,2.17-.13,3.92-2.65,5-4.25a110.93,110.93,0,0,1,36.33-33.6,102.66,102.66,0,0,1,84.48-7c27.43,10,47.28,28.4,60.37,54.32a108,108,0,0,1,10.84,36.3c.16,1.35.92,1.76,2,2a74,74,0,0,1,47,106.26Z"/></g><g class="cls-6"><path class="cls-4" d="M67.35,308.2s3.76,42.85,86.65,42.85H358s62.16,3,80.49-24.1c0,0-15.14,39.88-80.49,39.88H156.39S84.31,373.13,67.35,308.2Z"/></g><g class="cls-2"><path class="cls-3" d="M270.64,122.58c-2.1.29-4.32.67-6.63,1.14A60,60,0,0,1,270.64,122.58Z"/></g><g class="cls-7"><path class="cls-3" d="M327.77,145.17A64.54,64.54,0,1,1,217.5,165a150.22,150.22,0,0,0-21.37,26.12,46.62,46.62,0,1,1-82.44,35c-27.12,7.85-41.84,30.33-42.3,31,9.91-26.38,38.44-40.55,42.32-42.38l.44-.2c1.74-7.53,3.79-13.92,6.77-19.47,5.15-9.72,13.08-16.92,26.88-23.41,21.7-10.2,46.77.09,46.77.09,21.54-32,49-43.83,69.18-48l.26,0c2.31-.47,4.53-.85,6.63-1.14a84.91,84.91,0,0,1,21.2-.56c86,7.06,98.06,95.74,98.06,95.74C385.71,198,364.45,162.67,327.77,145.17Z"/></g><g class="cls-2"><path class="cls-3" d="M120.92,195.1c-3,5.55-5,11.94-6.77,19.47l-.44.2A46.25,46.25,0,0,1,120.92,195.1Z"/></g><g class="cls-6"><path class="cls-4" d="M16,415s9,65,81,65H416s75-1,81-65c0,0,1,82-81,82H96S25,502,16,415Z"/></g><g class="cls-2"><path class="cls-3" d="M497,98s-9-65-81-65H97S22,34,16,98c0,0-1-82,81-82H417S488,11,497,98Z"/></g></g><g id="Lines"><path class="cls-4" d="M417,502H96a85.1,85.1,0,0,1-85-85V96A85.1,85.1,0,0,1,96,11H417a85.1,85.1,0,0,1,85,85V417A85.1,85.1,0,0,1,417,502ZM96,21A75.09,75.09,0,0,0,21,96V417a75.09,75.09,0,0,0,75,75H417a75.09,75.09,0,0,0,75-75V96a75.09,75.09,0,0,0-75-75Z"/><g data-name="oPmUL5" id="oPmUL5-3"><path class="cls-4" d="M154,371.24c-35.26,0-50.45-9.59-52.9-11.33a81.39,81.39,0,0,1-16.36-12.44,86.62,86.62,0,0,1-15.07-20,79.6,79.6,0,0,1-8-21.51,83,83,0,0,1-.51-32.24,80.72,80.72,0,0,1,9.07-25.39A83.48,83.48,0,0,1,88.9,225.57,88.09,88.09,0,0,1,109,212.79a58.8,58.8,0,0,1,12.48-27.5,60.37,60.37,0,0,1,26.48-19c8.36-3,16-4.25,23.39-3.81a63.17,63.17,0,0,1,16.49,3,21.09,21.09,0,0,1,2.89,1.32c.36.18.87.45,1.29.64a17.64,17.64,0,0,0,1.44-1.88,115.72,115.72,0,0,1,38-35.11,107.74,107.74,0,0,1,88.65-7.34c28,10.21,49.25,29.3,63.12,56.76A113.32,113.32,0,0,1,394.28,216,79,79,0,0,1,443,329.06c-3.47,6.5-8.19,12.67-14.86,19.4-11,11.1-27,18.28-47.58,21.37h0c-8.73,1.3-24,1.41-24.64,1.41Zm225.83-6.36h0ZM168.43,172.41a52.05,52.05,0,0,0-39.26,19.22,49,49,0,0,0-10.47,23.54,8.12,8.12,0,0,1-5,6.43,77.75,77.75,0,0,0-18.39,11.61,73.52,73.52,0,0,0-16.42,20A70.84,70.84,0,0,0,71,275.5a73.12,73.12,0,0,0,.45,28.38,69.56,69.56,0,0,0,7,18.8,76.87,76.87,0,0,0,13.34,17.7,71.62,71.62,0,0,0,14.55,11c.19.12.38.24.56.38s13.1,9.47,47.1,9.47H355.9c.12,0,15.16-.1,23.19-1.3h0c18.4-2.76,32.52-9,42-18.52,6-6,10.14-11.44,13.13-17.06a67.09,67.09,0,0,0,6.8-45.14,69.26,69.26,0,0,0-50.62-53.93,7.15,7.15,0,0,1-5.78-6.3,103.61,103.61,0,0,0-10.33-34.64c-12.68-25.11-32.07-42.57-57.62-51.87a97.58,97.58,0,0,0-80.33,6.67,105.55,105.55,0,0,0-34.66,32.08c-1.48,2.13-4.23,6.11-8.83,6.39-2.6.17-4.89-1-6.73-2-.53-.27-1.19-.62-1.49-.72a53.49,53.49,0,0,0-13.88-2.45C170,172.43,169.19,172.41,168.43,172.41Z"/></g></g></svg>