<?xml version="1.0" ?><svg viewBox="0 0 512 512" xmlns="http://www.w3.org/2000/svg"><defs><style>.cls-1{fill:#ff6e8d;}.cls-2{opacity:0.2;}.cls-3{fill:#3f456b;}.cls-4{fill:#fff;}</style></defs><title/><g id="Colors"><g data-name="0jmkFO" id="_0jmkFO"><path class="cls-1" d="M256,15.26c33.22,0,66.5-1.24,99.65.26C423.3,18.57,481.86,71.37,493.3,138.2a169.43,169.43,0,0,1,2.52,28q.33,88.95.09,177.89c-.17,72.84-50.56,134.15-122,148.19A153.34,153.34,0,0,1,345.1,495q-88.73.36-177.45.1C95,495,34.39,446.08,19.32,375a157.36,157.36,0,0,1-3.16-31.47c-.29-59.15-.21-118.3-.12-177.45.12-77.93,57.54-142,135-150.45a186.73,186.73,0,0,1,20.08-.8c28.31-.09,56.62,0,84.93,0Zm0,432.44c29.8,0,59.6.26,89.4-.05,57.17-.61,102.76-45.47,103.11-101.92q.58-90.74,0-181.48c-.37-56.16-46.29-101.76-102.21-101.94q-89.83-.29-179.69,0A103.09,103.09,0,0,0,63.41,165.58q-.16,89.4.07,178.8a104.94,104.94,0,0,0,2.23,21.27c10.35,48.63,51.75,81.81,102.19,82C197.25,447.82,226.61,447.71,256,447.7Z"/><path class="cls-1" d="M135.4,254.94A120.63,120.63,0,0,1,256.34,134.28c66.47.13,120.25,54.27,120.17,121a120.6,120.6,0,0,1-120.7,120.44C189.31,375.64,135.36,321.54,135.4,254.94Zm47.37-.09c-.11,40.26,32.59,73.27,72.73,73.45a73.31,73.31,0,1,0-72.73-73.45Z"/><path class="cls-1" d="M384.26,154a27.36,27.36,0,1,1,27.34-27.2A27.46,27.46,0,0,1,384.26,154Z"/></g><g class="cls-2"><path class="cls-3" d="M43.73,431.5S82,480,160,480H353s87.12-5.59,114.06-46.8c0,0-40.39,61.47-114.73,61.47H161S92.46,497,43.73,431.5Z"/></g><g class="cls-2"><path class="cls-4" d="M467.06,77.68s-38.27-48.5-116.27-48.5h-193S70.67,34.77,43.73,76c0,0,40.39-61.46,114.73-61.46H349.79S418.33,12.18,467.06,77.68Z"/></g><g class="cls-2"><path class="cls-3" d="M137,274.58S153,363,256,363s118.93-88.42,118.93-88.42S356,376,256,376,137,274.58,137,274.58Z"/></g><g class="cls-2"><path class="cls-4" d="M374.93,236s-16-88.42-119-88.42S137,236,137,236s18.93-101.42,118.93-101.42S374.93,236,374.93,236Z"/></g><g class="cls-2"><path class="cls-3" d="M190,221.33S198,170,256,170s65,51.33,65,51.33S303,182,256,182,190,221.33,190,221.33Z"/></g><g class="cls-2"><path class="cls-4" d="M321,289s-8,51.33-66,51.33S190,289,190,289s18,39.33,65,39.33S321,289,321,289Z"/></g><g class="cls-2"><path class="cls-4" d="M356.78,129.33S360,110,384,110s27.6,19.33,27.6,19.33S413,99,384,99,356.78,129.33,356.78,129.33Z"/></g><g class="cls-2"><path class="cls-3" d="M411.59,124s-3.21,19.33-27.21,19.33S356.77,124,356.77,124s-1.39,30.33,27.61,30.33S411.59,124,411.59,124Z"/></g></g><g id="Lines"><g data-name="0jmkFO" id="_0jmkFO-2"><path class="cls-3" d="M251,500.18c-26.89,0-54.46,0-83.34-.07-36.81-.05-71-12-98.89-34.54s-46.7-53.52-54.33-89.5a161.36,161.36,0,0,1-3.27-32.49C10.86,283,11,220.89,11,166.1A155.53,155.53,0,0,1,150.44,10.69a193.51,193.51,0,0,1,20.62-.84c20.74-.06,41.83,0,62.22,0h23.08c.8,0,4.44,0,8.62,0,19.47-.13,65.09-.43,90.89.73,33.79,1.53,66.82,15.27,93,38.69s43.6,54.63,49.34,88.15a175.28,175.28,0,0,1,2.59,28.8c.21,54.81.23,113,.09,177.93A155.59,155.59,0,0,1,345.12,500C314,500.14,283,500.18,251,500.18ZM210.7,19.81c-13.17,0-26.46,0-39.61,0a187.24,187.24,0,0,0-19.55.78A145.53,145.53,0,0,0,21,166.12c-.08,54.77-.18,116.85.12,177.42A151.63,151.63,0,0,0,24.21,374c7.15,33.7,24.73,62.68,50.84,83.79s58.11,32.28,92.61,32.32c63.24.08,120.24.13,177.42-.1a148.18,148.18,0,0,0,27.9-2.65,145.26,145.26,0,0,0,117.93-143.3c.14-64.9.12-123.08-.09-177.86A165.3,165.3,0,0,0,488.37,139c-5.35-31.29-21.75-60.55-46.15-82.37s-55.3-34.74-86.8-36.16c-25.54-1.15-71-.85-90.38-.72-4.67,0-7.37.05-9-.05v.08H210.7Zm45.79-10A5,5,0,0,1,261,14.79,5,5,0,0,0,256.49,9.84Zm55,443c-9.32,0-18.59,0-27.73-.05s-18.52-.05-27.79-.05q-12.53,0-25,0c-20.66,0-42,.06-63,0-25.9-.12-49.85-8.41-69.24-24s-32.5-37-37.82-62a108.93,108.93,0,0,1-2.34-22.3c-.16-56.88-.19-117-.07-178.82A108.08,108.08,0,0,1,166.56,57.31c67.33-.17,126.12-.17,179.72,0,58.71.19,106.8,48.15,107.19,106.9.39,59.13.39,120.21,0,181.55a106.2,106.2,0,0,1-31.74,75.43,109.55,109.55,0,0,1-76.32,31.45C334.15,452.76,322.78,452.8,311.48,452.8ZM256,442.7h0q13.91,0,27.82.05c20.17.05,41,.11,61.53-.1,54.7-.58,97.82-43.17,98.16-96.95.39-61.3.39-122.34,0-181.42-.35-53.3-44-96.79-97.22-97-53.58-.17-112.35-.17-179.67,0a98.07,98.07,0,0,0-98.17,98.28c-.12,61.76-.09,121.9.07,178.77A99.34,99.34,0,0,0,70.6,364.6c9.89,46.49,49,77.87,97.32,78.09,21,.1,42.34.07,63,0Z"/><path class="cls-3" d="M255.91,380.69h-.11c-69.18-.06-125.44-56.47-125.4-125.75A125.63,125.63,0,0,1,256.1,129.28h.25c69.1.13,125.24,56.65,125.16,126S325.09,380.69,255.91,380.69Zm.19-241.41A115.62,115.62,0,0,0,140.4,254.94h0c0,63.77,51.74,115.7,115.41,115.75h.1a115.74,115.74,0,0,0,115.6-115.44c.07-63.82-51.59-115.85-115.18-116ZM135.4,254.94h0ZM255.83,333.3h-.35c-43-.19-77.82-35.39-77.71-78.46h0a78.44,78.44,0,0,1,78.31-78.16h.14a78.32,78.32,0,0,1,77.94,78.69A78.48,78.48,0,0,1,255.83,333.3Zm.25-146.62a68.31,68.31,0,0,0-.56,136.62h.31A68.31,68.31,0,0,0,304.3,206.83a67.56,67.56,0,0,0-48.1-20.15Z"/><path class="cls-3" d="M384.25,159a32.36,32.36,0,1,1-.1-64.71h0a32.31,32.31,0,0,1,23.11,9.62,32,32,0,0,1,9.31,22.94A32.53,32.53,0,0,1,384.26,159h0Zm-.07-54.71h0a22.46,22.46,0,0,0-22.37,22.21,22,22,0,0,0,6.47,15.82,22.36,22.36,0,0,0,16,6.68h0a22.49,22.49,0,0,0,22.34-22.25,22,22,0,0,0-6.42-15.8A22.36,22.36,0,0,0,384.18,104.29Z"/><path class="cls-3" d="M255.83,333.3h-.35c-43-.19-77.82-35.39-77.71-78.46h0a78.44,78.44,0,0,1,78.31-78.16h.14a78.32,78.32,0,0,1,77.94,78.69A78.48,78.48,0,0,1,255.83,333.3Zm.25-146.62a68.31,68.31,0,0,0-.56,136.62h.31A68.31,68.31,0,0,0,304.3,206.83a67.56,67.56,0,0,0-48.1-20.15Z"/></g></g></svg>