<?xml version="1.0" ?><svg viewBox="0 0 512 512" xmlns="http://www.w3.org/2000/svg"><defs><style>.cls-1{fill:#f5f6f7;}.cls-2{fill:#c679af;}.cls-3{opacity:0.5;}.cls-4{fill:#3f456b;}.cls-5{opacity:0.15;}.cls-6{fill:#fff;}.cls-7{opacity:0.7;}</style></defs><title/><g id="Colors"><path class="cls-1" d="M303.44,73.44H464V96h21a10,10,0,0,1,10,10v75a10,10,0,0,1-10,10H464V445.56H303.44"/><polygon class="cls-2" points="23 68.04 303.44 17.71 303.44 501.29 23 450.96 23 68.04"/><g class="cls-3"><path class="cls-4" d="M432,137H308a5,5,0,0,1,0-10H432a5,5,0,0,1,0,10Z"/><path class="cls-4" d="M432,393H308a5,5,0,0,1,0-10H432a5,5,0,0,1,0,10Z"/><path class="cls-4" d="M432,341.8H308a5,5,0,0,1,0-10H432a5,5,0,0,1,0,10Z"/><path class="cls-4" d="M432,290.6H308a5,5,0,0,1,0-10H432a5,5,0,0,1,0,10Z"/><path class="cls-4" d="M432,239.4H308a5,5,0,0,1,0-10H432a5,5,0,0,1,0,10Z"/><path class="cls-4" d="M432,188.2H308a5,5,0,0,1,0-10H432a5,5,0,0,1,0,10Z"/></g><g class="cls-5"><rect class="cls-4" height="373" width="17" x="303" y="73"/></g><g class="cls-5"><polygon class="cls-4" points="303 501 286 498 286 21 303 18 303 501"/></g><g class="cls-5"><polygon class="cls-4" points="24.22 451.54 302.16 501.5 301.51 484.9 23 435.24 24.22 451.54"/></g><g class="cls-5"><polygon class="cls-6" points="24.22 67.2 302.16 17.24 301.51 33.84 23 83.5 24.22 67.2"/></g><g class="cls-7"><path class="cls-6" d="M226.67,359a5,5,0,0,1-4.16-2.23L105,180.51V354a5,5,0,0,1-10,0V164a5,5,0,0,1,9.16-2.77L221.67,337.49V164a5,5,0,0,1,10,0V354a5,5,0,0,1-3.55,4.79A5.19,5.19,0,0,1,226.67,359Z"/></g><path class="cls-1" d="M464,212h21a10,10,0,0,1,10,10v75a10,10,0,0,1-10,10H464"/><path class="cls-1" d="M464,336h21a10,10,0,0,1,10,10v75a10,10,0,0,1-10,10H464"/><g class="cls-5"><rect class="cls-4" height="95" width="13" x="464" y="212"/></g><g class="cls-5"><rect class="cls-4" height="95" width="13" x="464" y="336"/></g></g><g id="Lines"><path class="cls-4" d="M303.44,506.29a4.37,4.37,0,0,1-.88-.08L22.12,455.88A5,5,0,0,1,18,451V68a5,5,0,0,1,4.12-4.92L302.56,12.79a5,5,0,0,1,5.88,4.92V501.29a5,5,0,0,1-5,5ZM28,446.77l270.44,48.54V23.69L28,72.23Z"/><path class="cls-4" d="M464,450.56H303.44a5,5,0,0,1,0-10H459V191a5,5,0,0,1,5-5h21a5,5,0,0,0,5-5V106a5,5,0,0,0-5-5H464a5,5,0,0,1-5-5V78.44H303.44a5,5,0,0,1,0-10H464a5,5,0,0,1,5,5V91h16a15,15,0,0,1,15,15v75a15,15,0,0,1-15,15H469V445.56A5,5,0,0,1,464,450.56Z"/><path class="cls-4" d="M485,312H464a5,5,0,0,1,0-10h21a5,5,0,0,0,5-5V222a5,5,0,0,0-5-5H464a5,5,0,0,1,0-10h21a15,15,0,0,1,15,15v75A15,15,0,0,1,485,312Z"/><path class="cls-4" d="M485,436H464a5,5,0,0,1,0-10h21a5,5,0,0,0,5-5V346a5,5,0,0,0-5-5H464a5,5,0,0,1,0-10h21a15,15,0,0,1,15,15v75A15,15,0,0,1,485,436Z"/></g></svg>