<?xml version="1.0" ?><svg viewBox="0 0 512 512" xmlns="http://www.w3.org/2000/svg"><defs><style>.cls-1{fill:#e95a6b;}.cls-2{opacity:0.2;}.cls-3{fill:#3f456b;}.cls-4{fill:#fff;}</style></defs><title/><g id="Colors"><path class="cls-1" d="M448.19,109.69a240.76,240.76,0,0,1-1.73,294.84,157.31,157.31,0,0,1-56.78,38.73c-62.45,24.55-133.86,4.08-184.7-36.48l.16-.23C220.8,417.35,238.4,423.4,257,423.4c65.44,0,118.49-74.95,118.49-167.39S322.44,88.62,257,88.62c-18.63,0-36.25,6.07-51.93,16.89C255.9,65,327.26,44.57,389.68,69.11a158.14,158.14,0,0,1,58.49,40.55S448.18,109.68,448.19,109.69Z"/><g class="cls-2"><path class="cls-3" d="M448.19,109.69a240.76,240.76,0,0,1-1.73,294.84c-15.81,16.83-33.94,25-55.46,33.47-62.45,24.56-135.18,9.34-186-31.22l.16-.23C220.8,417.35,238.4,423.4,257,423.4c65.44,0,118.49-74.95,118.49-167.39S322.44,88.62,257,88.62c-18.63,0-36.25,6.07-51.93,16.89C255.9,65,327.26,44.57,389.68,69.11a158.14,158.14,0,0,1,58.49,40.55S448.18,109.68,448.19,109.69Z"/></g><path class="cls-1" d="M257,15.27a240.4,240.4,0,0,1,191.17,94.39C432,92,415.76,84.43,392.88,77.33,330.83,58.07,255.9,65,205.07,105.51l-.09.08c-39.36,27.2-66.47,84.34-66.47,150.42s27.18,123.37,66.63,150.54l-.16.23C255.82,447.34,334,459.3,390.74,437.9c21.63-8.16,39.91-16.54,55.72-33.37A240.27,240.27,0,0,1,257,496.75C124.05,496.75,16.26,389,16.26,256S124.05,15.27,257,15.27Z"/><g class="cls-2"><path class="cls-4" d="M420.69,79.49S347.94,16.34,207.78,44.16,20.48,210.93,20.48,210.93,43,59.14,205.29,19.91C205.29,19.91,324.38-10.37,420.69,79.49Z"/></g><g class="cls-2"><path class="cls-3" d="M420.69,432.12s-72.75,63.14-212.91,35.32S20.48,300.67,20.48,300.67,43,452.46,205.29,491.69C205.29,491.69,324.38,522,420.69,432.12Z"/></g><g class="cls-2"><path class="cls-3" d="M300.87,100.87s116.5-34.78,173.33,51.35c0,0-14.1-41.51-50.29-62-38.16-21.66-109.23-38.1-191.7-1.55C232.21,88.62,274.12,80.54,300.87,100.87Z"/></g><g class="cls-2"><path class="cls-3" d="M232.21,88.62S120,112,120,263,246,431,246,431,138.69,408.12,138.69,265.06,232.21,88.62,232.21,88.62"/></g></g><g id="Lines"><path class="cls-3" d="M257,501.75A245.73,245.73,0,0,1,83.24,82.25,245.73,245.73,0,1,1,430.76,429.77,244.13,244.13,0,0,1,257,501.75Zm0-481.48A235.74,235.74,0,0,0,90.31,422.7,235.74,235.74,0,1,0,423.69,89.32,234.16,234.16,0,0,0,257,20.27Z"/><path class="cls-3" d="M257,428.4c-33.32,0-64.52-18.17-87.86-51.14-23-32.45-35.63-75.51-35.63-121.25s12.65-88.8,35.63-121.25c23.34-33,54.54-51.14,87.86-51.14s64.52,18.16,87.86,51.14c23,32.45,35.63,75.51,35.63,121.25s-12.65,88.8-35.63,121.25C321.52,410.23,290.32,428.4,257,428.4Zm0-334.78c-62.58,0-113.49,72.85-113.49,162.39S194.42,418.4,257,418.4,370.49,345.55,370.49,256,319.58,93.62,257,93.62Z"/><path class="cls-3" d="M448.19,114.7a5,5,0,0,1-3.7-1.63c-14-15.4-31.34-25.26-56.13-32-31.87-8.64-64.7-11-95-6.83-33,4.55-61.68,16.41-85.31,35.24a5,5,0,1,1-6.23-7.81c25-20,55.39-32.54,90.18-37.34,31.57-4.35,65.78-1.9,98.94,7.09,26.73,7.25,45.51,18,60.9,34.9a5,5,0,0,1-3.69,8.37Z"/><path class="cls-3" d="M326.63,453.69a204.12,204.12,0,0,1-34.29-2.9,198.71,198.71,0,0,1-90.48-40.09,5,5,0,0,1,6.23-7.82A188.76,188.76,0,0,0,294,440.93a191.22,191.22,0,0,0,95.08-7.75c24.91-8.72,42-19.17,55.4-33.87a5,5,0,0,1,7.39,6.73c-14.58,16-32.93,27.28-59.49,36.58A199.34,199.34,0,0,1,326.63,453.69Z"/></g></svg>