<?xml version="1.0" ?><svg viewBox="0 0 512 512" xmlns="http://www.w3.org/2000/svg"><defs><style>.cls-1{fill:#f5f6f7;}.cls-2{fill:#8bd0f7;}.cls-3{opacity:0.15;}.cls-4{fill:#3f456b;}.cls-5{fill:#fff;}.cls-6{opacity:0.7;}</style></defs><title/><g id="Colors"><polyline class="cls-1" points="301.44 143.26 492 143.26 492 366.74 301.44 366.74"/><polygon class="cls-2" points="21 64.04 301.44 13.71 301.44 497.29 21 446.96 21 64.04"/><g class="cls-3"><rect class="cls-4" height="224" width="17" x="301" y="143"/></g><g class="cls-3"><rect class="cls-4" height="191" transform="translate(755 -38) rotate(90)" width="17" x="388" y="263"/></g><g class="cls-3"><path class="cls-4" d="M346,309.51l-44-44v-24l45.27,45.27L491.49,142.49,493,165l-143.5,143.5-2,2Z"/></g><g class="cls-3"><polygon class="cls-4" points="301 497 284 494 284 17 301 14 301 497"/></g><g class="cls-3"><polygon class="cls-4" points="22.22 447.54 300.16 497.5 299.51 480.9 21 431.24 22.22 447.54"/></g><g class="cls-3"><polygon class="cls-5" points="22.22 63.2 300.16 13.24 299.51 29.84 21 79.5 22.22 63.2"/></g><g class="cls-6"><path class="cls-5" d="M157,360c-36.65,0-54.06-19.45-62.22-35.76A86.84,86.84,0,0,1,86,289V223a86.84,86.84,0,0,1,8.78-35.24C102.94,171.45,120.35,152,157,152s54.06,19.45,62.22,35.76A86.84,86.84,0,0,1,228,223v66a86.84,86.84,0,0,1-8.78,35.24C211.06,340.55,193.65,360,157,360Zm0-198c-60.11,0-61,58.52-61,61v66c0,2.48.89,61,61,61s61-58.52,61-61V223C218,220.52,217.11,162,157,162Zm66,127h0Z"/></g></g><g id="Lines"><path class="cls-4" d="M301.44,502.29a4.37,4.37,0,0,1-.88-.08L20.12,451.88A5,5,0,0,1,16,447V64a5,5,0,0,1,4.12-4.92L300.56,8.79a5,5,0,0,1,5.88,4.92V497.29a5,5,0,0,1-5,5ZM26,442.77l270.44,48.54V19.69L26,68.23Z"/><path class="cls-4" d="M492,371.74H301.44a5,5,0,0,1,0-10H487V148.26H301.44a5,5,0,0,1,0-10H492a5,5,0,0,1,5,5V366.74A5,5,0,0,1,492,371.74Z"/><path class="cls-4" d="M348,292a5,5,0,0,1-3.54-1.46l-44.77-44.78a5,5,0,0,1,7.07-7.07L348,279.93,487.46,140.46a5,5,0,0,1,7.08,7.08l-143,143A5,5,0,0,1,348,292Z"/></g></svg>