<?xml version="1.0" ?><svg viewBox="0 0 512 512" xmlns="http://www.w3.org/2000/svg"><defs><style>.cls-1{fill:#e95a6b;}.cls-2{opacity:0.2;}.cls-3{fill:#fff;}.cls-4{fill:#3f456b;}</style></defs><title/><g id="Colors"><g data-name="&lt;编组&gt;" id="_编组_"><path class="cls-1" d="M496,242v26c-.16.82-.37,1.63-.47,2.45-1.34,10.44-2,21-4.09,31.31-9,45.44-29.42,85.17-61.51,118.6q-62.71,65.33-153.14,73.71c-2.75.26-5.49.61-8.23.91H243.91a17.72,17.72,0,0,0-2.24-.44,224.07,224.07,0,0,1-39.51-5.65Q113.21,467.7,60,393.31C34.52,357.64,20.33,317.68,16.9,274c-.26-3.22-.6-6.43-.9-9.65V245.7c.16-1,.36-1.94.47-2.92,1.16-10.3,1.64-20.74,3.58-30.89C32.14,148.6,64.3,97.79,116.42,60c35.8-26,76.05-40.48,120.18-44,3.06-.25,6.11-.61,9.17-.91h20.46c3.14.3,6.28.66,9.42.9a233.57,233.57,0,0,1,65.92,14.84A236.5,236.5,0,0,1,438.34,99q49.73,58.31,56.74,134.77C495.33,236.49,495.69,239.23,496,242ZM386.74,277c10.06-22.93,14.09-47.08,14-72a105.69,105.69,0,0,0-13.37-51.65c-16.25-29.36-41-48.4-72.94-57.77-33.42-9.81-66.85-8.06-99.36,3.79-40.68,14.83-68.71,42.77-81.7,84.48-8,25.73-6.87,51.45,3.85,76.35,6.43,14.93,16.91,26.21,32.11,32.66,5.52,2.35,9.46.4,11-5.35,1.32-5,2.41-10.1,3.92-15.06a11.59,11.59,0,0,0-2.65-12A52.64,52.64,0,0,1,169.45,235a79.73,79.73,0,0,1-.82-23.38c3.14-29.74,16.35-53.84,41.37-70.52,25.79-17.18,54.35-20.46,84-13.46,34.26,8.07,55.28,33.86,56.89,68.9a164.68,164.68,0,0,1-7.2,56.43c-4.46,14.43-10.8,27.91-21.24,39.08-10.64,11.39-23.4,17.9-39.45,16.41-16.5-1.54-28.91-15.14-28.21-31.53.2-4.89,1.5-9.8,2.84-14.55,3.87-13.71,8.11-27.32,12-41,2.5-8.81,4.42-17.77,3.59-27-.69-7.64-3.14-14.57-9-19.85-8-7.27-20.94-8.65-31.63-3.48-10.26,5-16.8,13.36-20.84,23.69-7.27,18.58-6.07,37.16.67,55.64a7,7,0,0,1,.44,3.77c-6.95,29.71-13.78,59.46-21.05,89.09-4.95,20.16-9.29,40.36-8,61.27.68,11.28,1.85,22.54,3,33.79A3.86,3.86,0,0,0,189,441c.94.25,2.51-.53,3.3-1.35a51.12,51.12,0,0,0,4.3-5.48c11.79-16,22.63-32.73,29-51.69,4.38-13,7.39-26.54,10.94-39.86,2-7.61,3.91-15.26,5.94-23.23,1.58,2.08,2.77,3.91,4.23,5.49,10.24,11.14,23.22,17.07,38,18.49,22.76,2.2,43.67-3.62,62.47-16.59C365.37,314.22,377.94,297.06,386.74,277Z"/></g><g class="cls-2"><path class="cls-3" d="M254.65,15C50,22,21,208,21,208S61,37,256,37,491,207.5,491,207.5,461.32,22,254.65,15Z"/></g><g class="cls-2"><path class="cls-4" d="M258,262s-1,29,31,28,52-34.67,58-51.33c0,0-12.67,70.33-58.33,69.33C288.67,308,245,309,258,262Z"/></g><g class="cls-2"><path class="cls-4" d="M138.29,170.51S155,79,272,75c0,0,110-1,121.5,91.5,0,0-27.14-78.06-122.82-77.28S138.29,170.51,138.29,170.51Z"/></g><g class="cls-2"><path class="cls-3" d="M169.51,205S186,142,270,139s80.6,78,80.6,78,14.38-93.57-81.11-92.79C269.49,124.22,188,118,169.51,205Z"/></g><g class="cls-2"><path class="cls-3" d="M247,325s3,32,46,34,87.87-28.41,97.44-91.2c0,0-22.44,74.2-97.44,76.2C293,344,260,344,247,325Z"/></g><g class="cls-2"><path class="cls-4" d="M257.33,496C462,489,491,303,491,303S451,474,256,474,21,303.5,21,303.5,50.67,489,257.33,496Z"/></g></g><g id="Lines"><g id="PmYjkk.tif"><path class="cls-4" d="M189.34,446a6.12,6.12,0,0,1-1.65-.21c-3.26-.86-5.58-4.38-5.85-7.14l-.34-3.47c-1-10-2-20.29-2.63-30.51-1.31-21.87,3.31-43,8.16-62.76,5.81-23.65,11.42-47.77,16.86-71.11Q206,261.92,208,253a3.47,3.47,0,0,0-.24-1c-7.72-21.16-7.92-40.52-.63-59.17,4.83-12.35,12.67-21.22,23.32-26.37,12.67-6.12,27.61-4.41,37.17,4.27,6.24,5.66,9.7,13.22,10.59,23.11.94,10.46-1.38,20.46-3.76,28.86-1.89,6.63-3.88,13.32-5.81,19.8-2.06,7-4.2,14.14-6.2,21.22a59.85,59.85,0,0,0-2.66,13.4c-.58,13.7,9.6,25,23.69,26.34,13.28,1.24,24.84-3.62,35.33-14.84,8.81-9.43,15.2-21.23,20.12-37.15a160.22,160.22,0,0,0,7-54.73c-1.5-32.76-21.32-56.78-53-64.25-29.89-7-56.84-2.75-80.12,12.75C189.86,160.5,176.68,183,173.6,212.11a74.08,74.08,0,0,0,.76,21.92,47.94,47.94,0,0,0,11,23.11,16.62,16.62,0,0,1,3.68,16.77c-.93,3.06-1.69,6.15-2.5,9.42-.44,1.82-.89,3.64-1.37,5.45-1.42,5.4-4.38,7.83-6.62,8.93s-6,2-11.14-.24c-15.88-6.74-27.57-18.61-34.75-35.29-11.13-25.84-12.49-52.69-4-79.82,13.24-42.51,41.76-72,84.77-87.69,34.25-12.48,68.73-13.79,102.48-3.89s59.3,30.14,75.9,60.15a110.86,110.86,0,0,1,14,54.06c.06,27.5-4.67,51.72-14.46,74-9.9,22.55-23.41,39.52-41.31,51.86-20.08,13.86-42.22,19.73-65.79,17.46-15.62-1.51-28.84-7.6-39.34-18.13-1.18,4.67-2.31,9.14-3.53,13.69-1,3.72-2,7.54-2.9,11.24-2.42,9.53-4.93,19.38-8.14,28.92-6.9,20.53-18.89,38.34-29.72,53.06l-.79,1.09a41.53,41.53,0,0,1-4,4.92A9.63,9.63,0,0,1,189.34,446Zm2.45-8.37v0Zm-3.09-1.52h0Zm57.53-263.3a26.11,26.11,0,0,0-11.38,2.61c-8.43,4.07-14.43,10.94-18.37,21-6.37,16.29-6.13,33.33.72,52.1a12,12,0,0,1,.61,6.63q-2.1,9-4.18,17.92c-5.44,23.36-11.07,47.52-16.89,71.23-4.66,19-9.12,39.29-7.88,59.77.57,9.57,1.52,19.32,2.46,28.78.12-.17.25-.34.37-.52.28-.39.56-.78.85-1.16,10.36-14.1,21.83-31.11,28.3-50.33,3.08-9.18,5.54-18.85,7.92-28.2.94-3.72,1.92-7.56,2.93-11.35,1.39-5.2,2.68-10.33,4.05-15.77q.93-3.66,1.87-7.4a5,5,0,0,1,8.82-1.8c.55.71,1,1.4,1.53,2.06a33.29,33.29,0,0,0,2.41,3.08c9.06,9.86,20.78,15.54,34.81,16.9,21.16,2,41.06-3.26,59.15-15.74,16.33-11.26,28.7-26.84,37.83-47.65,9.22-21,13.68-43.9,13.62-70A101.08,101.08,0,0,0,383,155.77c-15.28-27.62-38.83-46.26-70-55.39-31.66-9.29-64-8-96.24,3.69-39.92,14.55-66.38,41.89-78.64,81.27-7.72,24.78-6.48,49.3,3.68,72.89,6.12,14.23,16,24.33,29.47,30,1.49.64,2.44.66,2.83.47s.94-.94,1.35-2.5c.47-1.75.9-3.52,1.33-5.28.81-3.26,1.63-6.63,2.65-10,.89-2.93.45-4.89-1.62-7.24a57.71,57.71,0,0,1-13.33-27.86,84.87,84.87,0,0,1-.88-24.83c3.4-32.21,18.06-57.16,43.57-74.16,25.67-17.1,55.26-21.87,88-14.17,36.31,8.56,59,36.05,60.73,73.54a170.1,170.1,0,0,1-7.41,58.14c-5.38,17.41-12.49,30.44-22.36,41-12.57,13.45-27.23,19.5-43.57,18-19.16-1.79-33.55-17.92-32.75-36.73.23-5.38,1.56-10.49,3-15.69,2-7.15,4.16-14.37,6.24-21.35,1.92-6.45,3.9-13.12,5.77-19.68,2.24-7.9,4.21-16.43,3.42-25.23-.66-7.38-3-12.66-7.34-16.6A21.87,21.87,0,0,0,246.23,172.84Z"/></g><path class="cls-4" d="M256,501A245,245,0,0,1,82.76,82.76,245,245,0,1,1,429.24,429.24,243.37,243.37,0,0,1,256,501Zm0-480A235,235,0,0,0,89.83,422.17,235,235,0,1,0,422.17,89.83,233.45,233.45,0,0,0,256,21Z"/></g></svg>