<?xml version="1.0" ?><svg viewBox="0 0 512 512" xmlns="http://www.w3.org/2000/svg"><defs><style>.cls-1{fill:#f5f6f7;}.cls-2{fill:#ff7866;}.cls-3{opacity:0.5;}.cls-4{fill:#3f456b;}.cls-5{opacity:0.15;}.cls-6{fill:#fff;}.cls-7{opacity:0.7;}</style></defs><title/><g id="Colors"><polyline class="cls-1" points="301.44 69.44 492 69.44 492 441.56 301.44 441.56"/><polygon class="cls-2" points="21 64.04 301.44 13.71 301.44 497.29 21 446.96 21 64.04"/><g class="cls-3"><path class="cls-4" d="M450,389H306a5,5,0,0,1,0-10H450a5,5,0,0,1,0,10Z"/><path class="cls-4" d="M450,337.8H306a5,5,0,0,1,0-10H450a5,5,0,0,1,0,10Z"/><path class="cls-4" d="M378,285a81,81,0,1,1,81-81A81.1,81.1,0,0,1,378,285Zm0-152a71,71,0,1,0,71,71A71.08,71.08,0,0,0,378,133Z"/><path class="cls-4" d="M454,209H378a5,5,0,0,1-5-5V128a5,5,0,0,1,10,0v71h71a5,5,0,0,1,0,10Z"/></g><g class="cls-5"><rect class="cls-4" height="373" width="17" x="301" y="69"/></g><g class="cls-5"><polygon class="cls-4" points="301 497 284 494 284 17 301 14 301 497"/></g><g class="cls-5"><polygon class="cls-4" points="22.22 447.54 300.16 497.5 299.51 480.9 21 431.24 22.22 447.54"/></g><g class="cls-5"><polygon class="cls-6" points="22.22 63.2 300.16 13.24 299.51 29.84 21 79.5 22.22 63.2"/></g><g class="cls-7"><path class="cls-6" d="M98,357a5,5,0,0,1-5-5V159a5,5,0,0,1,5-5h60.44a84.53,84.53,0,0,1,34.34,8.57c15.91,8,34.87,25,34.87,60.76,0,21.11-6.18,37.59-18.36,49-18.6,17.4-44.45,16.48-47.1,16.34H103V352A5,5,0,0,1,98,357Zm5-78.35h59.67c.22,0,23.87,1.31,39.85-13.71,10-9.43,15.13-23.43,15.13-41.62,0-24.63-9.88-42.06-29.35-51.82A74.94,74.94,0,0,0,158.44,164H103Z"/></g></g><g id="Lines"><path class="cls-4" d="M301.44,502.29a4.37,4.37,0,0,1-.88-.08L20.12,451.88A5,5,0,0,1,16,447V64a5,5,0,0,1,4.12-4.92L300.56,8.79a5,5,0,0,1,5.88,4.92V497.29a5,5,0,0,1-5,5ZM26,442.77l270.44,48.54V19.69L26,68.23Z"/><path class="cls-4" d="M492,446.56H301.44a5,5,0,0,1,0-10H487V74.44H301.44a5,5,0,0,1,0-10H492a5,5,0,0,1,5,5V441.56A5,5,0,0,1,492,446.56Z"/></g></svg>