<?xml version="1.0" ?><svg viewBox="0 0 512 512" xmlns="http://www.w3.org/2000/svg"><defs><style>.cls-1{fill:#ff7866;}.cls-2{opacity:0.2;}.cls-3{fill:#3f456b;}.cls-4{fill:#fff;}.cls-5{fill:#f5f6f7;}.cls-6{opacity:0.15;}.cls-7{opacity:0.7;}</style></defs><title/><g id="Colors"><circle class="cls-1" cx="257" cy="256" r="239"/><g class="cls-2"><path class="cls-3" d="M425.43,308.93l-.59-.79a72.58,72.58,0,0,1,2,17.05c0,60.63-76.1,109.77-170,109.77s-170-49.14-170-109.77a71.89,71.89,0,0,1,1.86-16.26s-37.27-20.92-16-54.56c19.46-26.55,52.83-13.75,60.06-4.22,31-21.37,75.13-34.73,124.07-34.73,49.38,0,93.84,13.6,124.9,35.31l-.43-.57c7.22-9.53,40.6-22.35,60.07,4.21C462.7,288,425.43,308.93,425.43,308.93Z"/></g><g class="cls-2"><path class="cls-4" d="M253.64,16C47.23,23,18,209,18,209S58.32,38,255,38,492,208.5,492,208.5,462.06,23,253.64,16Z"/></g><g class="cls-2"><path class="cls-3" d="M256.34,497C462.75,490,492,304,492,304S451.66,475,255,475,18,304.5,18,304.5,47.92,490,256.34,497Z"/></g><ellipse class="cls-5" cx="256.91" cy="302.19" rx="169.97" ry="109.77"/><path class="cls-5" d="M88.8,285.93s-37.27-20.92-16-54.56c19.47-26.56,52.85-13.74,60.07-4.21"/><path class="cls-5" d="M425.43,285.93s37.27-20.92,16-54.56c-19.47-26.56-52.85-13.74-60.07-4.21"/><circle class="cls-5" cx="389.7" cy="125.14" r="30.1"/><circle class="cls-1" cx="198.48" cy="280.94" r="28.33"/><circle class="cls-1" cx="315.34" cy="280.94" r="28.33"/><g class="cls-6"><path class="cls-3" d="M89.05,319.5S124,397,256,397s168.77-77.5,168.77-77.5S400,412,257,412,89.05,319.5,89.05,319.5Z"/></g><g class="cls-7"><path class="cls-4" d="M424.77,285s-34.95-77.5-166.95-77.5S89.05,285,89.05,285s24.77-92.5,167.77-92.5S424.77,285,424.77,285Z"/></g><g class="cls-7"><path class="cls-4" d="M66.23,254S87,215.5,121,235.25l11.85-8.09S121,210.5,95.5,215.75C63,222,66.23,254,66.23,254Z"/></g><g class="cls-7"><path class="cls-4" d="M447.76,254S427,215.5,393,235.25l-11.85-8.09S393,210.5,418.49,215.75C451,222,447.76,254,447.76,254Z"/></g><g class="cls-6"><path class="cls-3" d="M445.47,237.68s-2.14,29-27.3,29.65L425,285S454.94,276.35,445.47,237.68Z"/></g><g class="cls-6"><path class="cls-3" d="M69,237.68s2.14,29,27.3,29.65L89.49,285S59.55,276.35,69,237.68Z"/></g><g class="cls-6"><path class="cls-3" d="M360.15,128S366,141,390,141s29.67-12.17,29.67-12.17S417,155,390,155,360.15,128,360.15,128Z"/></g><g class="cls-7"><circle class="cls-4" cx="390" cy="110" r="16"/></g><g class="cls-2"><path class="cls-3" d="M174.25,294.5S172,272,198,272s25.36,22.5,25.36,22.5S238,253,198,253,174.25,294.5,174.25,294.5Z"/></g><g class="cls-2"><path class="cls-3" d="M291.25,294.5S289,272,315,272s25.36,22.5,25.36,22.5S355,253,315,253,291.25,294.5,291.25,294.5Z"/></g></g><g id="Lines"><path class="cls-3" d="M256.91,417c-46.35,0-90-11.7-122.9-32.95-33.58-21.69-52.07-50.74-52.07-81.82s18.49-60.14,52.07-81.82c32.9-21.25,76.55-33,122.9-33s90,11.7,122.9,33c33.58,21.68,52.07,50.74,52.07,81.82S413.39,362.32,379.81,384C346.91,405.26,303.26,417,256.91,417Zm0-219.54c-91,0-165,47-165,104.77S166,407,256.91,407s165-47,165-104.77S347.88,197.42,256.91,197.42Z"/><path class="cls-3" d="M88.79,290.93a5,5,0,0,1-2.44-.64c-.78-.44-19.28-11-24-29.75-2.64-10.42-.55-21.13,6.22-31.84l.19-.29c10.73-14.63,24.59-17.79,34.34-17.86,11.43-.06,27.22,5,33.75,13.59a5,5,0,0,1-8,6c-3-4-13.75-9.63-25.43-9.63h-.28c-10.78.08-19.61,4.67-26.24,13.64-5.17,8.25-6.82,16.29-4.89,23.89,3.7,14.63,19.07,23.4,19.23,23.49a5,5,0,0,1-2.46,9.36Z"/><path class="cls-3" d="M425.44,290.93a5,5,0,0,1-2.46-9.36c.3-.17,15.61-9.06,19.25-23.54,1.9-7.59.25-15.61-4.91-23.84-6.63-9-15.46-13.56-26.24-13.64h-.28c-11.68,0-22.43,5.66-25.43,9.62a5,5,0,1,1-8-6c6.47-8.55,22-13.59,33.46-13.59h.29c9.74.07,23.61,3.23,34.34,17.86l.19.29c6.77,10.71,8.86,21.42,6.23,31.84-4.75,18.74-23.25,29.31-24,29.75A5,5,0,0,1,425.44,290.93Z"/><path class="cls-3" d="M389.7,160.24a35.1,35.1,0,1,1,35.1-35.1A35.15,35.15,0,0,1,389.7,160.24Zm0-60.2a25.1,25.1,0,1,0,25.1,25.1A25.13,25.13,0,0,0,389.7,100Z"/><path class="cls-3" d="M256.91,197.42a5.13,5.13,0,0,1-1.58-.26,5,5,0,0,1-3.16-6.32l30.1-90.3a5,5,0,0,1,5.89-3.29l73.14,17.29a5,5,0,1,1-2.3,9.73L290.31,108l-28.66,86A5,5,0,0,1,256.91,197.42Z"/><path class="cls-3" d="M256.91,374.47c-42.15,0-61-16.52-61.77-17.22a5,5,0,0,1,6.67-7.45c.26.22,17.23,14.67,55.1,14.67,38.21,0,54.73-16.08,54.89-16.24a5,5,0,1,1,7.07,7.07C318.09,356.08,299.22,374.47,256.91,374.47Z"/><path class="cls-3" d="M198.48,314.27a33.33,33.33,0,1,1,33.33-33.33A33.36,33.36,0,0,1,198.48,314.27Zm0-56.66a23.33,23.33,0,1,0,23.33,23.33A23.35,23.35,0,0,0,198.48,257.61Z"/><path class="cls-3" d="M315.34,314.27a33.33,33.33,0,1,1,33.33-33.33A33.37,33.37,0,0,1,315.34,314.27Zm0-56.66a23.33,23.33,0,1,0,23.33,23.33A23.36,23.36,0,0,0,315.34,257.61Z"/><path class="cls-3" d="M257,500A244,244,0,0,1,84.47,83.47,244,244,0,1,1,429.53,428.53,242.38,242.38,0,0,1,257,500Zm0-478A234,234,0,0,0,91.54,421.46,234,234,0,1,0,422.46,90.54,232.45,232.45,0,0,0,257,22Z"/></g></svg>