<?xml version="1.0" ?><svg viewBox="0 0 512 512" xmlns="http://www.w3.org/2000/svg"><defs><style>.cls-1{fill:#b9b9ea;}.cls-2{opacity:0.15;}.cls-3{fill:#3f456b;}.cls-4{opacity:0.25;}.cls-5{fill:#fff;}</style></defs><title/><g id="Colors"><g id="sfhbvo.tif"><path class="cls-1" d="M204.19,495H141.92c.05-1.09.15-2.19.15-3.28q0-27.83,0-55.66c0-4,0-4-4.16-4H32c-1.35,0-2.71-.11-4.32-.18v-3.56q0-163.11,0-326.21a16.18,16.18,0,0,1,1-5.5Q43.63,56.27,58.69,16H485c0,1.5-.09,3-.09,4.49q0,141.56.06,283.11a8.67,8.67,0,0,1-2.84,6.77Q422.37,370,362.77,429.72a7.41,7.41,0,0,1-5.75,2.37c-28.93-.07-57.86,0-86.79-.1a7.74,7.74,0,0,0-6.05,2.44c-14.39,14.53-28.9,28.94-43.33,43.43C215.23,483.51,209.74,489.28,204.19,495ZM193.5,421.51l1.33.73a23.26,23.26,0,0,1,2.12-2.86q28.53-28.61,57.09-57.19a7.37,7.37,0,0,1,5.73-2.4q54,.12,108.06,0a7.31,7.31,0,0,0,4.73-1.66q34.88-34.55,69.48-69.36a7.22,7.22,0,0,0,1.77-4.68q.12-111.49.07-223c0-3.84,0-3.85-4-3.85H103.79c-3.94,0-4,0-4,3.92V356c0,3.86,0,3.86,4,3.86,28.64,0,57.27.05,85.91-.07,3,0,3.88.77,3.86,3.8-.13,18.06-.06,36.12-.06,54.18Z"/><path class="cls-1" d="M215.29,141.44h40.53V265.33H215.29Z"/><path class="cls-1" d="M370.27,265.41H329.64V141.57h40.63Z"/></g><g class="cls-2"><polygon class="cls-3" points="221 478 141 478 141 495 206 495 221 478"/></g><g class="cls-2"><rect class="cls-3" height="17" width="113" x="28" y="415"/></g><g class="cls-4"><rect class="cls-5" height="17" width="92" x="102" y="359"/></g><g class="cls-4"><rect class="cls-5" height="17" width="41" x="215" y="142"/></g><g class="cls-4"><rect class="cls-5" height="17" width="41" x="329" y="142"/></g><g class="cls-2"><rect class="cls-3" height="17" width="41" x="215" y="248"/></g><g class="cls-2"><rect class="cls-3" height="17" width="41" x="329" y="248"/></g><g class="cls-4"><polygon class="cls-5" points="370 359 256 359 241 376 370 376 370 359"/></g><g class="cls-2"><polygon class="cls-3" points="376 415 272 415 272 432 361 432 376 415"/></g><g class="cls-4"><polygon class="cls-5" points="52 33 485 33 485 16 59 16 52 33"/></g></g><g id="Lines"><g data-name="sfhbvo.tif" id="sfhbvo.tif-2"><path class="cls-3" d="M204.19,500H141.92a5,5,0,0,1-5-5.25c0-.37,0-.73.07-1.1,0-.69.08-1.34.08-1.93q0-27.35,0-54.68H32c-1,0-2,0-3.08-.11l-1.46-.07a5,5,0,0,1-4.78-5v-31.2q0-149.29,0-298.57A21.08,21.08,0,0,1,24,94.85c8.12-21.94,16.43-44.22,24.46-65.77L54,14.25A5,5,0,0,1,58.69,11H485a5,5,0,0,1,5,5.1l0,1.44c0,1,0,2,0,2.95V44.33c0,85,0,172.85.06,259.27a13.75,13.75,0,0,1-4.31,10.31C448.47,351,409.43,390,366.31,433.25a12.34,12.34,0,0,1-9.27,3.84h0q-21.76-.06-43.55,0-21.61,0-43.24-.05h0a2.79,2.79,0,0,0-2.45,1c-8.42,8.5-17,17.09-25.32,25.39q-9,9-18,18.05c-3.83,3.85-7.67,7.84-11.39,11.69-1.74,1.8-3.48,3.61-5.23,5.4A5,5,0,0,1,204.19,500Zm-57.12-10h55l3.73-3.86c3.75-3.89,7.62-7.9,11.51-11.8q9-9.06,18-18.07c8.3-8.3,16.89-16.88,25.28-25.35A12.66,12.66,0,0,1,270.2,427h0q21.6.06,43.22.05,21.78,0,43.57,0a2.53,2.53,0,0,0,2.2-.9C402.35,383,441.4,343.93,478.6,306.83a3.77,3.77,0,0,0,1.37-3.22c-.07-86.43-.06-174.3-.06-259.28V21H62.16L57.85,32.57c-8,21.55-16.33,43.82-24.45,65.75a11.14,11.14,0,0,0-.71,3.76q-.07,149.28,0,298.57V427H137.92c6.93,0,9.16,2.19,9.16,9Q147.08,463,147.07,490Zm47.76-62.76a5,5,0,0,1-2.4-.61l-1.33-.73a5,5,0,0,1-2.6-4.39v-3.76q0-6.83,0-13.64c0-12.89,0-26.2.06-39.33-22.28.09-44.9.08-66.8.07h-18c-6.77,0-9-2.15-9-8.86V61.15c0-6.76,2.18-8.92,9-8.92H439.92c6.78,0,9,2.16,9,8.86V80.69c0,66.66,0,135.59-.07,203.39a12.24,12.24,0,0,1-3.22,8.2c-23.3,23.42-46.68,46.76-69.51,69.38a12.14,12.14,0,0,1-8.24,3.11c-35,.09-71.32.1-108.08,0a2.34,2.34,0,0,0-2.17.92q-17.82,17.93-35.7,35.78-10.71,10.71-21.4,21.42a9.16,9.16,0,0,0-.86,1.17c-.25.38-.5.75-.76,1.11A5,5,0,0,1,194.83,427.24Zm-5.06-72.47a8.82,8.82,0,0,1,6.57,2.25c2.25,2.27,2.23,5.41,2.22,6.59-.1,13.49-.08,27.22-.07,40.49v6.65l16.32-16.33q17.87-17.87,35.69-35.76a12.3,12.3,0,0,1,9.25-3.87h0c36.74.08,73.09.07,108,0a3.3,3.3,0,0,0,1.32-.3c22.78-22.57,46.12-45.87,69.37-69.24a3.18,3.18,0,0,0,.31-1.17c.08-67.79.07-136.71.07-203.37V62.22h-334V354.84h16.92c22.26,0,45.28,0,67.92-.08Zm.69,10Zm-1.93-1.94Zm180.65-8.43Z"/><path class="cls-3" d="M255.82,270.33H215.29a5,5,0,0,1-5-5V141.44a5,5,0,0,1,5-5h40.53a5,5,0,0,1,5,5V265.33A5,5,0,0,1,255.82,270.33Zm-35.53-10h30.53V146.44H220.29Z"/><path class="cls-3" d="M370.27,270.41H329.64a5,5,0,0,1-5-5V141.57a5,5,0,0,1,5-5h40.63a5,5,0,0,1,5,5V265.41A5,5,0,0,1,370.27,270.41Zm-35.63-10h30.63V146.57H334.64Z"/></g></g></svg>