<?xml version="1.0" ?><svg viewBox="0 0 512 512" xmlns="http://www.w3.org/2000/svg"><defs><style>.cls-1{fill:#b9b9ea;}.cls-2{opacity:0.2;}.cls-3{fill:#3f456b;}.cls-4{opacity:0.3;}.cls-5{fill:#fff;}</style></defs><title/><g id="Colors"><g data-name="2z568D" id="_2z568D"><path class="cls-1" d="M83.82,478q6.89-16.2,13.77-32.42,10.45-24.66,20.88-49.34c.06-.16.13-.31.19-.46,1-2.26,2.65-4.53,2.62-6.78s-1.69-4.74-2.69-7.09q-13.83-32.67-27.68-65.32-10.36-24.43-20.74-48.87-17.78-42-35.54-83.92-8.72-20.6-17.46-41.18c-.13-.3-.24-.61-.41-1.08.58,0,1-.09,1.52-.09q45.38,0,90.75,0a1.94,1.94,0,0,1,2.16,1.48q14.63,37.54,29.33,75.06,12.43,31.78,24.89,63.55c.47,1.21,1,2.42,1.64,4.12,1-2.53,1.86-4.55,2.67-6.59q14.61-37,29.21-74.07,12.25-31,24.49-62.11c.35-.88.69-1.45,1.85-1.44q44.62,0,89.25,0c.22,0,.44,0,.91.06-1,2.47-2,4.86-3,7.24L285.8,213q-13.73,33.06-27.46,66.11Q242.64,317,227,354.82,213.22,388,199.43,421.08q-11.42,27.51-22.81,55a17.06,17.06,0,0,0-.54,1.89Z"/><path class="cls-1" d="M497,32.39l-32.83,79.23-34.86,84.17q-12,29-24,58a1.67,1.67,0,0,1-1.82,1.24q-50.22,0-100.44,0c-.22,0-.44,0-.85,0,.15-.51.24-1,.41-1.39q14.28-34.46,28.57-68.92,13.74-33.15,27.44-66.31T386.12,52q3.84-9.25,7.65-18.51a8.17,8.17,0,0,0,.27-1.11Z"/><path class="cls-1" d="M323.42,391.29c-19.59-.87-37.08-10.83-47.29-31.82-7.31-15-7.46-30.7-1.28-46.19s17.15-26.35,32.64-32.51a57.2,57.2,0,0,1,29.86-3.36c15.73,2.28,28.38,9.77,37.59,22.75A54.23,54.23,0,0,1,385.06,334c-.67,21.85-10.34,38.57-29.15,49.77C347,389,337.18,391.25,323.42,391.29Z"/></g><g class="cls-2"><path class="cls-3" d="M270.42,335.5S286,376,326,376s55.8-28,58.9-39c0,0-.9,54-61.9,54C323,391,276.84,392,270.42,335.5Z"/></g><g class="cls-4"><path class="cls-5" d="M384.9,332s-15.58-40.5-55.58-40.5-55.8,28-58.9,39c0,0,.9-54,61.9-54C332.32,276.5,378.48,275.5,384.9,332Z"/></g><g class="cls-4"><polygon class="cls-5" points="394 32 386.5 49.75 489.25 49.75 497 32 394 32"/></g><g class="cls-4"><polygon class="cls-5" points="223.91 141 217.5 158.75 305.37 158.75 312 141 223.91 141"/></g><g class="cls-4"><polygon class="cls-5" points="111.14 141 118 158.75 24.08 158.75 17 141 111.14 141"/></g><g class="cls-2"><polygon class="cls-3" points="310 237 302.5 254.75 405.25 254.75 413 237 310 237"/></g><g class="cls-2"><polygon class="cls-3" points="89.25 460 82.5 477.75 175.02 477.75 182 460 89.25 460"/></g></g><g id="Lines"><g data-name="2z568D" id="_2z568D-2"><path class="cls-3" d="M176.08,483H83.82a5,5,0,0,1-4.6-7l4.21-9.91q4.78-11.25,9.56-22.5,7.16-16.89,14.3-33.81l6.76-16c.37-.87.8-1.71,1.18-2.44a11.53,11.53,0,0,0,1-2.37,12.06,12.06,0,0,0-1.19-2.84c-.37-.74-.75-1.5-1.1-2.33L86.3,318.54,77.6,298l-12-28.35q-9.49-22.41-19-44.82L30,185.75q-5.43-12.81-10.87-25.62l-6.6-15.56c-.11-.26-.21-.53-.33-.85l-.15-.4a5,5,0,0,1,4.35-6.77l.47,0c.49,0,.93-.07,1.38-.07H37.55q35.75,0,71.48,0h0a6.83,6.83,0,0,1,6.8,4.66c10,25.79,20.29,52,29.33,75.06q9.5,24.27,19,48.52l2.91,7.43q10.56-26.8,21.13-53.59L197.48,195q10.65-27,21.29-54a6.62,6.62,0,0,1,6.5-4.61h0q36.79,0,73.58,0h15.66c.26,0,.51,0,.88,0l.36,0a5,5,0,0,1,4.29,6.88l-.92,2.26c-.68,1.69-1.36,3.35-2.05,5l-2.32,5.62q-12.17,29.33-24.34,58.66L278.33,244l-15.37,37Q255.1,300,247.27,318.89t-15.69,37.84q-7.67,18.48-15.35,37L204.05,423q-11.42,27.51-22.81,55c0,.09-.1.37-.15.57s-.12.51-.19.76A5,5,0,0,1,176.08,483Zm-84.7-10H172.5q11.15-26.92,22.32-53.83Q200.9,404.5,207,389.85q7.68-18.48,15.35-37Q230.2,334,238,315.06l15.69-37.84q7.68-18.53,15.38-37,6-14.53,12.08-29.08,12.18-29.33,24.34-58.66l2.33-5.62.16-.38h-9.15q-35.73,0-71.47,0-10.29,26.15-20.6,52.27l-9.26,23.48-23.16,58.7c-.54,1.38-1.1,2.75-1.72,4.27l-1,2.37a5,5,0,0,1-4.63,3.12h0a5,5,0,0,1-4.63-3.15l-.65-1.63c-.37-.93-.69-1.72-1-2.52l-5.88-15q-9.51-24.26-19-48.52C127,197.2,117,171.66,107.19,146.42q-34.83,0-69.64,0H24.22l4.15,9.78,10.87,25.62L55.8,221q9.48,22.41,19,44.82,6,14.18,12,28.35l8.71,20.52Q109.35,347.3,123.19,380c.23.52.52,1.11.83,1.73a16.57,16.57,0,0,1,2.26,7.24,14.87,14.87,0,0,1-2.17,7.08c-.32.62-.63,1.2-.83,1.69l-6.78,16q-7.14,16.9-14.31,33.81Q97.44,458.8,92.64,470Z"/><path class="cls-3" d="M403.51,260h0q-41.85,0-83.7,0H303.07c-.25,0-.5,0-.84,0l-.31,0a5,5,0,0,1-4.5-6.38l.09-.34a12.39,12.39,0,0,1,.5-1.58q6.54-15.76,13.09-31.55l15.48-37.36q7-16.89,14-33.79,6.72-16.26,13.46-32.53,8.55-20.67,17.14-41.34L381.5,50.1q3.79-9.14,7.55-18.27v0c0-.19.08-.38.13-.57A5,5,0,0,1,394,27.39H497a5,5,0,0,1,4.62,6.92L430.29,206.5Q420.11,231.07,410,255.66A6.62,6.62,0,0,1,403.51,260Zm-83.7-10q40.83,0,81.66,0,9.76-23.67,19.58-47.33L489.52,37.39H397.57q-3.4,8.28-6.83,16.54L380.39,78.88l-17.14,41.34q-6.72,16.26-13.45,32.52-7,16.9-14,33.8-7.74,18.68-15.49,37.36-5.4,13-10.81,26.08Z"/><path class="cls-3" d="M323.42,396.29h-.22c-22.89-1-41.2-13.31-51.56-34.62-7.83-16.1-8.31-33-1.44-50.24,6.67-16.72,18.6-28.59,35.45-35.3a62.32,62.32,0,0,1,32.42-3.66c17.27,2.51,31.05,10.86,40.95,24.81a59.16,59.16,0,0,1,11,36.83c-.73,23.73-11.36,41.87-31.6,53.92-9.66,5.75-20.14,8.23-35,8.27Zm5.08-114.53a52.89,52.89,0,0,0-49,33.37c-5.79,14.51-5.4,28.69,1.14,42.15,11.1,22.83,29.43,28.38,42.9,29,12.9-.05,21.82-2.11,29.82-6.86,17.35-10.33,26.09-25.26,26.71-45.63a49.33,49.33,0,0,0-9.2-30.74c-8.37-11.8-19.57-18.57-34.23-20.7A56.22,56.22,0,0,0,328.5,281.76Z"/></g></g></svg>