<?xml version="1.0" ?><svg viewBox="0 0 512 512" xmlns="http://www.w3.org/2000/svg"><defs><style>.cls-1{fill:#f5f6f7;}.cls-2{fill:#e95a6b;}.cls-3{opacity:0.2;}.cls-4{fill:#3f456b;}.cls-5{fill:#fff;}.cls-6{opacity:0.15;}</style></defs><title/><g id="Colors"><circle class="cls-1" cx="256" cy="256" r="132"/><path class="cls-2" d="M261.38,424.8c-34.45-.6-64-1-93.58-1.69q-29.42-.72-58.82-2.24c-9.78-.5-19.55-1.61-29.26-2.91-10.31-1.38-20.17-4.38-29-10.1a53.59,53.59,0,0,1-20.37-24,124.69,124.69,0,0,1-9-30.78c-1.34-8.43-1.72-17-2.62-25.51-2.62-24.72-1.85-49.53-1.91-74.32,0-14.52-.37-29.06.29-43.55.71-15.61,2.21-31.2,3.77-46.76a115.13,115.13,0,0,1,9.67-35.26C35.68,116.13,44.1,107.6,55,101.35c10.31-5.93,21.63-8.11,33.3-8.73,21.71-1.15,43.43-2.34,65.15-3.15C202.25,87.64,251.11,87.33,300,88q25.86.35,51.7,1.14c16.63.5,33.27,1.09,49.88,2,11.38.62,22.8,1.26,34.06,2.89,18.93,2.74,34,12,43.92,28.75,4.26,7.23,6.76,15.19,9,23.23,3.71,13.32,4.55,27,5.56,40.69.78,10.64,1.56,21.3,1.67,32,.24,24.86.42,49.73-.06,74.59-.3,15.42-1.74,30.82-2.89,46.22a149,149,0,0,1-2.35,18.11c-2.58,13-6.24,25.66-13.93,36.65-5.84,8.35-13.81,14.35-23,18.74-9.7,4.62-20.11,6.17-30.66,6.73-22.9,1.23-45.8,2.53-68.73,3.21C321.61,423.82,289.06,424.25,261.38,424.8Zm74.53-169c-7.44-3.9-14.3-7.51-21.19-11.1-8.23-4.28-16.49-8.52-24.71-12.82-9.11-4.76-18.19-9.58-27.29-14.34-8.93-4.67-17.89-9.27-26.81-13.93s-17.7-9.3-26.55-13.94c-1.13-.6-1.58-.23-1.53,1,.1,2.52.18,5,.18,7.55q0,61.06,0,122.13c0,.55.12,1.1.22,2Z"/><g class="cls-3"><path class="cls-4" d="M256,409s-102-1-160-5-71.5-36.5-71.5-36.5S28.33,417,95.67,420c0,0,107,5.33,154.66,4.67h11.83c47.67.66,154.67-4.67,154.67-4.67,67.33-3,71.17-52.5,71.17-52.5S474.5,400,416.5,404s-160,5-160,5Z"/></g><g class="cls-3"><path class="cls-5" d="M256,103.22s-102,1-160,5-71.5,36.5-71.5,36.5,3.83-49.5,71.17-52.5c0,0,107-5.33,154.66-4.66h11.83c47.67-.67,154.67,4.66,154.67,4.66,67.33,3,71.17,52.5,71.17,52.5s-13.5-32.5-71.5-36.5-160-5-160-5Z"/></g><g class="cls-6"><polygon class="cls-4" points="208 189 308.5 271 336 256 208 189"/></g></g><g id="Lines"><path class="cls-4" d="M261.38,429.8h-.09l-30.49-.51c-21.92-.35-42.62-.69-63.12-1.18-19.32-.47-39.15-1.22-59-2.24-8.58-.45-17.73-1.36-29.66-3C67,421.29,56.78,417.74,48,412.06a58.76,58.76,0,0,1-22.23-26.18,130.15,130.15,0,0,1-9.34-32c-.9-5.64-1.38-11.34-1.84-16.85-.24-2.94-.5-6-.81-8.92-2.14-20.15-2-40.56-2-60.29,0-4.85,0-9.7,0-14.55,0-3.32,0-6.66-.06-10-.08-11.06-.16-22.51.35-33.8.71-15.54,2.2-31.11,3.79-47A121,121,0,0,1,26,125.66c5.29-12,14.2-21.58,26.48-28.64,9.81-5.64,21.1-8.63,35.53-9.39l5.47-.3c19.58-1,39.81-2.11,59.75-2.86,45.68-1.7,93.7-2.2,146.82-1.51,16.57.22,34,.6,51.79,1.14,13.79.42,31.94,1,50,2,10.64.57,22.71,1.23,34.5,2.93,21.13,3.06,37.11,13.54,47.51,31.16,4.74,8,7.4,16.81,9.52,24.43,3.64,13.08,4.62,26.5,5.56,39.47l.18,2.39c.77,10.48,1.56,21.33,1.67,32.08.24,25.13.42,49.75-.06,74.73-.24,12.42-1.23,24.95-2.18,37.07-.24,3.14-.49,6.29-.72,9.43a156.14,156.14,0,0,1-2.43,18.72c-2.41,12.07-6,26.09-14.75,38.53-5.91,8.46-14.3,15.32-24.94,20.39-11.47,5.47-23.41,6.73-32.54,7.22l-8,.43c-19.92,1.07-40.52,2.18-60.83,2.78-23.16.68-45.81,1.09-67.72,1.48-8.69.15-17.09.3-25.09.46ZM254.94,92.66c-35.61,0-69.07.6-101.34,1.8-19.86.75-40.06,1.82-59.6,2.86l-5.47.29c-12.81.68-22.68,3.25-31.08,8.08-10.54,6.06-17.84,13.92-22.32,24a110.9,110.9,0,0,0-9.27,33.73c-1.57,15.77-3.05,31.2-3.75,46.49-.5,11-.42,22.34-.34,33.27,0,3.35.05,6.7.06,10,0,4.87,0,9.74,0,14.61-.08,19.46-.16,39.59,1.91,59.2.33,3.05.59,6.14.84,9.13.44,5.33.91,10.85,1.74,16.12a120.65,120.65,0,0,0,8.62,29.55,48.34,48.34,0,0,0,18.5,21.81c7.53,4.86,16.36,7.92,27,9.34,11.65,1.56,20.55,2.45,28.86,2.88,19.71,1,39.45,1.77,58.68,2.23,20.46.49,41.15.83,63,1.18l30.42.51c8-.16,16.35-.31,25-.46,21.88-.39,44.5-.79,67.61-1.48,20.18-.59,40.72-1.7,60.59-2.77l8-.43c12.18-.65,21.05-2.58,28.76-6.26,9.19-4.38,16.08-10,21.06-17.09,7.65-10.93,10.93-23.7,13.13-34.76A144,144,0,0,0,487.82,339c.24-3.15.49-6.31.73-9.46.94-12,1.92-24.36,2.15-36.48.48-24.85.3-49.39.06-74.44-.1-10.44-.89-21.12-1.65-31.45l-.17-2.39c-.95-13.06-1.85-25.4-5.22-37.51-2-7-4.38-15.07-8.5-22-8.78-14.89-22.35-23.75-40.33-26.35-11.35-1.64-23.18-2.28-33.61-2.85-17.95-1-36-1.57-49.76-2-17.73-.54-35.1-.92-51.61-1.14C284.51,92.76,269.55,92.66,254.94,92.66ZM208.23,327.38a5,5,0,0,1-5-4.41c0-.26-.07-.49-.1-.69a14.06,14.06,0,0,1-.16-1.88V198.27c0-2.52-.08-5-.17-7.35a6,6,0,0,1,2.67-5.65,5.89,5.89,0,0,1,6.17,0l9.35,4.91q8.59,4.53,17.19,9l13.09,6.8q6.87,3.56,13.72,7.13c4.53,2.36,9.05,4.75,13.58,7.13l13.71,7.21q6.81,3.56,13.63,7.07,5.54,2.86,11.08,5.75c4.74,2.47,9.48,5,14.39,7.53l6.81,3.57a5,5,0,0,1,0,8.86L210.54,326.81A5,5,0,0,1,208.23,327.38ZM213,197.26v117l112.11-58.44c-4.32-2.27-8.51-4.47-12.71-6.65q-5.52-2.88-11.06-5.74l-13.66-7.09q-6.88-3.6-13.74-7.22T260.4,222l-13.69-7.12q-6.57-3.39-13.12-6.81-8.61-4.5-17.22-9Z"/></g></svg>