<?xml version="1.0" ?><!DOCTYPE svg  PUBLIC '-//W3C//DTD SVG 1.1//EN'  'http://www.w3.org/Graphics/SVG/1.1/DTD/svg11.dtd'><svg height="512px" style="enable-background:new 0 0 512 512;" version="1.1" viewBox="0 0 512 512" width="512px" xml:space="preserve" xmlns="http://www.w3.org/2000/svg" xmlns:xlink="http://www.w3.org/1999/xlink"><g id="comp_x5F_13-alipay"><g><g><g><path d="M406.995,36.001H105.006c-38.157,0-69.004,30.849-69.004,69.005v301.988      c0,38.155,30.847,69.005,69.004,69.005h301.989c37.831,0,68.514-30.523,69.003-68.355      c-45.138-25.164-108.612-59.262-168.533-86.86c-31.496,43.184-82.638,79.553-145.965,79.553      c-69.331,0-92.056-44.49-95.308-75.007c-3.898-38.314,14.615-80.044,97.743-80.044c34.749,0,77.933,10.066,124.862,24.515      c16.233-29.553,25.976-59.263,25.976-59.263H140V180h90.189v-30.683H120V120h110.189V80h50.012v40H390v29.317H280.189V180H360      c0,0-7.563,59.923-30.291,103.432c48.057,16.402,98.224,35.397,145.966,51.797V105.006      C475.834,67.008,444.993,36.001,406.995,36.001z" style="fill:#0099E5;"/><path d="M406.995,485.999H105.006c-43.563,0-79.004-35.441-79.004-79.005V105.006      c0-43.563,35.441-79.005,79.004-79.005h301.989c21.045,0,40.832,8.232,55.717,23.179c14.896,14.959,23.051,34.8,22.963,55.868      v230.181c0,3.23-1.561,6.262-4.189,8.139c-2.629,1.878-6.002,2.368-9.06,1.319c-23.201-7.97-47.358-16.69-70.722-25.123      c-24.843-8.967-50.531-18.239-75.226-26.668c-2.761-0.942-4.973-3.043-6.056-5.752c-1.082-2.709-0.928-5.756,0.423-8.342      c15.892-30.422,24.166-69.791,27.472-88.802h-68.128c-5.522,0-10-4.477-10-10v-30.683c0-5.523,4.478-10,10-10H380V130h-99.799      c-5.522,0-10-4.477-10-10V90h-30.012v30c0,5.523-4.477,10-10,10H130v9.317h100.189c5.523,0,10,4.477,10,10V180      c0,5.523-4.477,10-10,10H150v10.537h164.771c3.206,0,6.217,1.537,8.098,4.133c1.881,2.596,2.403,5.937,1.404,8.982      c-0.409,1.249-10.222,30.939-26.713,60.961c-2.284,4.157-7.171,6.14-11.707,4.743c-53.343-16.423-92.084-24.072-121.919-24.072      c-35.777,0-61.075,7.923-75.192,23.55c-12.798,14.166-13.917,32.553-12.602,45.482c1.007,9.449,4.957,27.661,20.04,42.932      c15.132,15.319,37.109,23.087,65.319,23.087c52.659,0,102.916-27.499,137.886-75.445c2.806-3.848,7.937-5.183,12.263-3.19      c60.809,28.008,125.586,62.884,169.219,87.209c3.208,1.788,5.178,5.191,5.13,8.863c-0.271,20.949-8.601,40.602-23.455,55.336      C447.66,477.869,427.934,485.999,406.995,485.999z M105.006,46.001c-32.535,0-59.004,26.469-59.004,59.005v301.988      c0,32.535,26.469,59.005,59.004,59.005h301.989c30.165,0,55.348-23.144,58.644-52.675      c-41.345-22.951-99.492-54.118-155.066-80.076c-38.522,49.103-92.432,77.088-149.073,77.088      c-33.756,0-60.52-9.768-79.548-29.032c-19.362-19.602-24.415-42.819-25.704-54.915c-2.479-24.371,3.626-45.436,17.653-60.961      c18.069-20.001,48.361-30.143,90.033-30.143c30.349,0,68.598,7.183,119.896,22.555c7.28-14.139,12.974-27.781,16.658-37.303H140      c-5.523,0-10-4.477-10-10V180c0-5.523,4.477-10,10-10h80.189v-10.683H120c-5.523,0-10-4.477-10-10V120c0-5.523,4.477-10,10-10      h100.189V80c0-5.523,4.477-10,10-10h50.012c5.522,0,10,4.477,10,10v30H390c5.522,0,10,4.477,10,10v29.317      c0,5.523-4.478,10-10,10h-99.811V170H360c2.87,0,5.603,1.233,7.501,3.386c1.898,2.153,2.779,5.018,2.42,7.866      c-0.293,2.328-6.921,53.46-26.294,96.393c21.506,7.455,43.499,15.394,64.868,23.107c18.862,6.809,38.245,13.805,57.18,20.426      V105.006c0.066-15.752-6.02-30.551-17.135-41.713c-11.104-11.151-25.858-17.292-41.545-17.292H105.006z" style="fill:#0073AC;"/></g><g><path d="M110.043,322.056c0.783,15.943,8.101,42.47,55.272,42.47c41.156,0,73.176-31.364,93.166-57.619      c-35.275-14.767-66.773-24.827-86.503-24.827C118.667,282.079,109.261,308.207,110.043,322.056z" style="fill:#0099E5;"/><path d="M165.316,374.525c-23.637,0-41.28-6.237-52.438-18.537c-7.843-8.646-12.157-19.897-12.822-33.442      c-0.625-11.054,3.626-22.315,11.666-30.822c12.32-13.035,32.593-19.645,60.257-19.645c19.377,0,49.781,8.614,90.364,25.603      c2.855,1.195,4.997,3.646,5.798,6.637c0.802,2.99,0.173,6.183-1.703,8.646C235.775,353.237,200.808,374.525,165.316,374.525z       M171.979,292.079c-21.637,0-37.447,4.628-45.722,13.383c-6.076,6.429-6.38,13.352-6.229,16.029      c0.404,8.227,1.622,33.034,45.289,33.034c31.629,0,58.245-21.742,76.927-43.438      C202.925,295.526,182.423,292.079,171.979,292.079z" style="fill:#0073AC;"/></g></g></g></g><g id="Layer_1"/></svg>