<?xml version="1.0" ?><!DOCTYPE svg  PUBLIC '-//W3C//DTD SVG 1.1//EN'  'http://www.w3.org/Graphics/SVG/1.1/DTD/svg11.dtd'><svg height="512px" style="enable-background:new 0 0 512 512;" version="1.1" viewBox="0 0 512 512" width="512px" xml:space="preserve" xmlns="http://www.w3.org/2000/svg" xmlns:xlink="http://www.w3.org/1999/xlink"><g id="comp_x5F_23-apple-pay_x2C__Credit_card"><g><g><g><path d="M436.5,431h-361C50.923,431,31,411.077,31,386.5v-261C31,100.923,50.923,81,75.5,81h361      c24.577,0,44.5,19.923,44.5,44.5v261C481,411.077,461.077,431,436.5,431z" style="fill:#313C42;"/><path d="M436.5,441h-361C45.449,441,21,416.552,21,386.5v-261C21,95.449,45.449,71,75.5,71h361      c30.052,0,54.5,24.449,54.5,54.5v261C491,416.552,466.552,441,436.5,441z M75.5,91C56.477,91,41,106.477,41,125.5v261      c0,19.023,15.477,34.5,34.5,34.5h361c19.023,0,34.5-15.477,34.5-34.5v-261c0-19.023-15.477-34.5-34.5-34.5H75.5z" style="fill:#252D32;"/></g><path d="M249.732,191.913h-40.889v108.93h16.931v-37.216h23.399c21.404,0,36.417-14.693,36.417-35.937     C285.59,206.448,270.816,191.913,249.732,191.913z M245.18,249.413h-19.405v-43.285h19.486c14.694,0,23.08,7.827,23.08,21.643     C268.341,241.507,259.955,249.413,245.18,249.413z" style="fill:#FFFFFF;"/><path d="M325.521,220.743c-17.968,0-31.226,10.302-31.705,24.357h15.253     c1.28-6.708,7.508-11.1,15.974-11.1c10.381,0,16.13,4.791,16.13,13.736v5.989l-21.081,1.277     c-19.646,1.198-30.268,9.264-30.268,23.239c0,14.136,10.94,23.48,26.675,23.48c10.62,0,20.441-5.352,24.915-13.897h0.32v13.097     h15.652v-54.304h0.079C357.465,230.886,344.846,220.743,325.521,220.743z M341.172,271.215c0,10.222-8.624,17.489-20.124,17.489     c-9.024,0-14.774-4.313-14.774-10.939c0-6.869,5.512-10.782,16.132-11.502l18.767-1.196V271.215z" style="fill:#FFFFFF;"/><path d="M129.063,210.84c6.709,0.558,13.416-3.354,17.65-8.305c4.153-5.112,6.869-11.979,6.149-18.927     c-5.91,0.239-13.257,3.912-17.489,9.024C131.54,197.024,128.265,204.132,129.063,210.84z" style="fill:#FFFFFF;"/><path d="M177.459,270.337c-0.16-0.161-15.653-6.069-15.813-23.958     c-0.16-14.934,12.219-22.122,12.777-22.521c-7.027-10.382-17.887-11.5-21.642-11.739c-9.744-0.559-18.049,5.511-22.681,5.511     c-4.712,0-11.739-5.272-19.405-5.112c-9.984,0.161-19.327,5.831-24.359,14.854c-10.462,18.048-2.716,44.722,7.427,59.417     c4.952,7.266,10.941,15.252,18.769,14.935c7.426-0.319,10.38-4.793,19.325-4.793c9.024,0,11.58,4.793,19.406,4.712     c8.146-0.16,13.177-7.268,18.208-14.534C174.983,278.801,177.299,270.815,177.459,270.337z" style="fill:#FFFFFF;"/><path d="M439.082,221.781h-17.168l-19.888,64.367h-0.319l-19.884-64.367h-17.81l28.669,79.302     l-1.517,4.792c-2.556,8.146-6.788,11.339-14.295,11.339c-1.357,0-3.914-0.16-4.951-0.238v13.098     c0.958,0.317,5.189,0.397,6.469,0.397c16.531,0,24.278-6.308,31.066-25.396L439.082,221.781z" style="fill:#FFFFFF;"/></g></g></g><g id="Layer_1"/></svg>