<?xml version="1.0" ?><!DOCTYPE svg  PUBLIC '-//W3C//DTD SVG 1.1//EN'  'http://www.w3.org/Graphics/SVG/1.1/DTD/svg11.dtd'><svg height="512px" style="enable-background:new 0 0 512 512;" version="1.1" viewBox="0 0 512 512" width="512px" xml:space="preserve" xmlns="http://www.w3.org/2000/svg" xmlns:xlink="http://www.w3.org/1999/xlink"><g id="comp_x5F_45-bitcoin"><g><g><g><path d="M362.199,239.996c24.913-12.74,40.767-35.39,37.088-73.043      c-4.814-51.527-47.131-68.796-103.188-73.608V36H252.5v55.363c-11.325,0-22.932,0.283-34.539,0.565V36h-43.6v57.344      c-16.029,0.484-34.698,0.249-87.479,0v46.43c34.423-0.61,52.483-2.822,56.623,19.251V354.37      c-2.629,17.515-16.643,14.991-47.846,14.438l-8.775,51.809c79.495,0,87.479,0.284,87.479,0.284V476h43.601v-54.251      c11.888,0.285,23.498,0.285,34.539,0.285V476h43.599v-55.1c73.043-3.964,121.871-22.366,128.384-91.16      C429.579,274.535,403.531,249.903,362.199,239.996z M218.811,142.889c24.631,0,101.639-7.643,101.639,43.599      c0,48.979-77.007,43.315-101.639,43.315V142.889z M218.811,369.093v-95.691c29.445,0,119.608-8.209,119.608,47.847      C338.418,375.321,248.255,369.093,218.811,369.093L218.811,369.093z" style="fill:#F7931B;"/><path d="M296.101,486h-43.599c-5.523,0-10-4.478-10-10v-43.974c-4.776-0.01-9.62-0.035-14.539-0.097V476      c0,5.522-4.477,10-10,10h-43.601c-5.523,0-10-4.478-10-10v-45.217c-10.664-0.077-32.682-0.167-77.479-0.167      c-2.944,0-5.739-1.298-7.639-3.546c-1.9-2.249-2.712-5.222-2.221-8.124l8.775-51.809c0.816-4.817,4.989-8.33,9.857-8.33      c0.06,0,0.12,0,0.18,0.002c3.438,0.061,6.67,0.146,9.702,0.225c4.491,0.118,8.37,0.22,11.859,0.22      c14.443,0,15.452-1.553,16.108-5.646V159.983c-1.471-7.319-3.796-10.569-25.65-10.569c-4.002,0-8.479,0.099-13.22,0.203      c-2.432,0.054-4.957,0.109-7.575,0.156c-2.686,0.05-5.272-0.985-7.186-2.865c-1.914-1.88-2.992-4.451-2.992-7.133v-46.43      c0-2.66,1.06-5.211,2.945-7.088c1.886-1.876,4.44-2.903,7.102-2.912c10.199,0.048,19.125,0.096,27.003,0.138      c15.689,0.083,27.025,0.144,36.147,0.144c5.622,0,10.223-0.023,14.282-0.074V36c0-5.523,4.477-10,10-10h43.6      c5.523,0,10,4.477,10,10v45.689c4.838-0.107,9.705-0.202,14.539-0.261V36c0-5.523,4.477-10,10-10H296.1c5.522,0,10,4.477,10,10      v48.293c28.25,3.234,49.938,9.757,66.107,19.855c22.024,13.756,34.486,34.574,37.037,61.874      c2.918,29.875-5.493,53.958-24.47,70.734c14.429,6.02,25.61,14.29,33.892,25.014c13.119,16.986,18.427,40.164,15.776,68.89      c-3.405,35.966-17.778,61.302-43.942,77.479c-20.032,12.385-46.313,19.316-84.399,22.144V476      C306.101,481.522,301.623,486,296.101,486z M262.502,466h23.599v-45.1c0-5.313,4.153-9.697,9.458-9.985      c39.201-2.127,66.027-8.415,84.424-19.789c20.759-12.834,31.736-32.64,34.547-62.328c4.118-44.633-12.738-69.028-54.661-79.078      c-4.07-0.976-7.103-4.384-7.599-8.54c-0.496-4.157,1.649-8.182,5.377-10.088c24.263-12.408,34.629-33.07,31.688-63.168      c-1.972-21.093-11.038-36.392-27.724-46.813c-15.122-9.445-36.831-15.269-66.367-17.804c-5.172-0.444-9.145-4.772-9.145-9.963      V46h-23.6v45.363c0,5.523-4.477,10-10,10c-11.145,0-22.823,0.284-34.117,0.558l-0.179,0.004      c-2.701,0.068-5.299-0.959-7.228-2.841s-3.015-4.462-3.015-7.156V46h-23.6v47.344c0,5.405-4.295,9.832-9.698,9.996      c-6.726,0.203-13.848,0.286-24.584,0.286c-9.175,0-20.533-0.061-36.253-0.145c-5.175-0.027-10.801-0.057-16.944-0.088v26.17      c3.863-0.083,7.537-0.149,10.972-0.149c16.037,0,40.272,0,45.479,27.768c0.114,0.608,0.171,1.225,0.171,1.843V354.37      c0,0.497-0.037,0.993-0.111,1.484c-3.512,23.398-23.847,23.399-35.997,23.399c-3.752,0-7.945-0.11-12.384-0.227      c-0.311-0.008-0.624-0.017-0.939-0.024l-5.355,31.615c67.827,0.026,75.684,0.277,75.999,0.289      c5.381,0.191,9.645,4.608,9.645,9.993V466h23.601v-44.251c0-2.693,1.087-5.273,3.014-7.155c1.928-1.882,4.536-2.91,7.226-2.842      c11.769,0.282,23.222,0.282,34.299,0.282c5.523,0,10,4.478,10,10V466z M240.746,379.312c-4.974,0-9.562-0.069-13.61-0.13      c-3.127-0.047-5.93-0.089-8.325-0.089c-5.523,0-10-4.478-10-10v-95.691c0-5.522,4.477-10,10-10      c2.794,0,6.195-0.078,10.132-0.168c5.19-0.119,11.073-0.253,17.473-0.253c17.356,0,42.841,0.879,63.699,8.479      c31.659,11.535,38.305,33.442,38.305,49.789c0,16.545-7.183,38.649-41.396,50.003      C285.254,378.476,258.771,379.312,240.746,379.312z M228.811,359.205c3.631,0.053,7.659,0.106,11.935,0.106      c16.638,0,40.958-0.73,59.979-7.043c24.823-8.237,27.694-21.649,27.694-31.021c0-16.428-8.501-38.268-82.003-38.268      c-6.17,0-11.932,0.132-17.016,0.248c-0.198,0.004-0.394,0.009-0.589,0.013V359.205z M237.375,240.002      c-4.258,0-8.165-0.063-11.611-0.119c-2.62-0.042-4.961-0.081-6.953-0.081c-5.523,0-10-4.477-10-10v-86.914      c0-5.523,4.477-10,10-10c2.329,0,5.211-0.074,8.549-0.159c4.493-0.115,9.584-0.245,15.155-0.245      c14.86,0,36.699,0.818,54.715,7.892c21.731,8.532,33.219,24.477,33.219,46.11c0,15.219-6.264,35.571-36.104,46.104      C275.524,239.234,252.817,240.002,237.375,240.002z M228.811,219.929c2.657,0.04,5.535,0.073,8.564,0.073      c65.5,0,73.075-19.127,73.075-33.515c0-14.597-7.042-34.002-67.934-34.002c-4.938,0-9.566,0.109-13.705,0.214V219.929z" style="fill:#B96E14;"/></g></g></g></g><g id="Layer_1"/></svg>