<?xml version="1.0" ?><!DOCTYPE svg  PUBLIC '-//W3C//DTD SVG 1.1//EN'  'http://www.w3.org/Graphics/SVG/1.1/DTD/svg11.dtd'><svg height="512px" style="enable-background:new 0 0 512 512;" version="1.1" viewBox="0 0 512 512" width="512px" xml:space="preserve" xmlns="http://www.w3.org/2000/svg" xmlns:xlink="http://www.w3.org/1999/xlink"><g id="comp_x5F_80-Decred"><g><g><path d="M279.852,424.947c-3.387,0.318-6.085,0.318-8.464,0.318c-31.901,0-63.42,0-95.312,0     c-65.102,0-119.723-43.484-133.921-107.182c-13.929-61.696,16.924-126.394,73.56-153.469c2.048-1.015,3.729-2.067,6.81-3.74     c-13.926-12.366-27.473-24.338-40.738-36.348c-13.538-11.946-27.1-23.956-41.672-36.629c2.697-0.331,4.036-1.017,5.727-1.017     c28.163,0,55.965-0.329,84.132,0c3.728,0,8.482,1.685,11.182,4.097C185.924,129.699,273.417,220,270.678,220     c-31.189,0-62.709-5.707-93.936-5.377c-29.127,0.345-51.513,13.364-66.111,39.751c-22.039,40.411,2.728,95.198,47.48,103.804     c14.928,2.723,30.847,2.007,46.107,3.071c2.38,0,5.43,0.317,7.126,2.051c22.059,18.824,43.723,38.019,65.463,57.179     C277.806,421.501,278.504,422.894,279.852,424.947L279.852,424.947z" style="fill:#2972FF;"/><g><path d="M271.388,435.266h-95.312c-34.269,0-66.183-11.028-92.292-31.893      c-26.159-20.903-43.929-49.644-51.389-83.113c-14.456-64.031,15.972-130.767,72.719-161.466      c-10.296-9.138-20.137-17.889-29.994-26.813l-6.423-5.669c-11.269-9.949-22.921-20.237-35.146-30.869      c-2.98-2.592-4.155-6.695-3-10.471c1.156-3.777,4.426-6.52,8.346-7c0.696-0.085,1.248-0.219,1.948-0.388      c1.228-0.297,2.908-0.703,4.996-0.703c9.387,0,18.735-0.037,28.07-0.073s18.656-0.073,27.99-0.073      c10.485,0,19.692,0.048,28.142,0.146c6.18,0.02,13.272,2.655,17.706,6.578c27.351,23.663,66.577,62.841,82.18,78.595      c13.033,13.159,25.242,25.751,34.378,35.456c4.461,4.738,7.957,8.543,10.394,11.309c4.096,4.65,7.632,8.666,5.408,14.639      c-1.458,3.914-5.253,6.543-9.43,6.543c-15.591,0-31.301-1.389-46.493-2.732c-14.779-1.307-30.062-2.658-44.809-2.658      c-0.844,0-1.684,0.004-2.528,0.013c-25.957,0.308-44.759,11.623-57.467,34.593c-8.999,16.501-9.227,37.324-0.582,55.65      c8.43,17.871,23.447,30.079,41.201,33.492c8.99,1.64,18.567,1.922,28.707,2.22c5.202,0.153,10.577,0.312,15.887,0.674      c5.757,0.064,10.291,1.629,13.49,4.653c19.31,16.482,38.609,33.503,57.275,49.965l8.062,7.107      c0.188,0.165,0.369,0.338,0.544,0.517c1.453,1.488,2.386,2.994,3.288,4.449c0.282,0.455,0.593,0.959,0.96,1.519      c1.925,2.933,2.172,6.658,0.652,9.819c-1.521,3.161-4.585,5.295-8.077,5.623C276.934,435.266,273.858,435.266,271.388,435.266z       M65.515,96.84c5.576,4.906,11.042,9.731,16.42,14.479l6.468,5.709c0.032,0.028,0.064,0.057,0.095,0.085      c10.991,9.951,21.997,19.716,33.648,30.055l7.019,6.229c2.437,2.165,3.667,5.381,3.294,8.619      c-0.372,3.238-2.299,6.092-5.163,7.647c-1.21,0.657-2.193,1.213-3.067,1.708c-1.408,0.796-2.624,1.484-4.073,2.203      c-0.042,0.021-0.085,0.042-0.128,0.063c-52.42,25.06-81.068,84.883-68.118,142.245c13.253,59.455,63.149,99.384,124.167,99.384      h79.699c-16.547-14.587-33.525-29.505-50.467-43.971c-0.25-0.024-0.605-0.046-1.09-0.046c-0.232,0-0.464-0.008-0.696-0.024      c-5.014-0.35-10.062-0.498-15.406-0.655c-10.437-0.308-21.229-0.626-31.8-2.554c-24.188-4.65-44.421-20.906-55.606-44.617      c-11.359-24.08-10.933-51.674,1.141-73.813c16.297-29.458,41.444-44.568,74.772-44.962c0.927-0.01,1.838-0.015,2.752-0.015      c15.63,0,31.359,1.391,46.571,2.736c7.186,0.635,14.49,1.281,21.792,1.777c-26-27.403-80.401-82.277-113.125-110.581      c-0.041-0.035-0.082-0.071-0.122-0.107c-0.759-0.678-3.086-1.553-4.519-1.553c-0.039,0-0.078,0-0.117,0      c-8.385-0.098-17.529-0.146-27.956-0.146c-9.308,0-18.603,0.036-27.911,0.073C71.166,96.818,68.341,96.83,65.515,96.84z" style="fill:#001320;"/></g></g><g><path d="M471.815,424.604c-6.809,0-11.886,0-16.963,0c-24.112,0-48.497,0.344-72.584,0     c-4.088,0-8.849-1.712-11.874-4.125C324.94,381.12,233.074,302.404,231.683,300c3.771-0.375,71.197-2.803,102.777-3.18     c29.509-0.35,52.217-12.686,66.434-39.367c20.346-38.032,1.054-87.373-38.972-101.727c-14.931-5.472-30.171-5.472-45.771-4.794     c-9.505,0.323-16.626-1.737-23.77-8.595c-18.297-17.087-37.314-32.834-55.927-49.303c-1.359-1.347-3.05-2.06-5.409-3.763     c2.356-1.374,3.03-2.059,4.048-2.059c37.623,0,75.266,0,112.908,0.686c25.416,0.344,48.145,9.934,68.498,25.017     c27.844,20.546,45.813,47.965,53.255,81.503c6.434,28.429,3.74,56.512-7.785,83.248c-12.54,29.416-32.922,51.703-61.074,67.109     c-1.652,1.039-3.707,1.722-5.743,2.739c-1.711,1.047-3.049,2.058-6.085,3.795C416.526,375.981,443.288,399.599,471.815,424.604     L471.815,424.604z" style="fill:#2ED8A3;"/><g><path d="M406.434,434.756c-9.079,0-17.012-0.05-24.247-0.152c-6.271-0.021-13.172-2.434-18.027-6.308      c-0.105-0.084-0.209-0.17-0.311-0.258c-12.671-10.972-28.805-24.878-45.886-39.601c-93.085-80.232-93.44-80.846-94.935-83.428      c-1.702-2.941-1.794-6.546-0.245-9.57c1.55-3.023,4.529-5.055,7.911-5.391c4.845-0.481,73.354-2.866,103.647-3.228      c26.799-0.317,45.681-11.462,57.728-34.071c8.302-15.519,9.269-34.252,2.66-51.412c-6.595-17.124-19.783-30.318-36.183-36.2      c-8.539-3.129-17.858-4.515-30.284-4.515c-3.34,0-6.94,0.092-11.676,0.298c-0.833,0.028-1.56,0.042-2.273,0.042      c-11.71,0-20.597-3.505-28.804-11.363c-11.681-10.906-23.927-21.493-35.771-31.733c-6.535-5.649-13.292-11.491-19.909-17.345      c-0.119-0.105-0.235-0.213-0.35-0.324c-0.199-0.151-0.75-0.495-1.159-0.749c-0.845-0.526-1.896-1.182-3.128-2.072      c-2.744-1.981-4.299-5.215-4.134-8.595c0.166-3.38,2.029-6.447,4.953-8.152c0.568-0.331,1.019-0.615,1.393-0.851      c1.628-1.023,4.088-2.569,7.691-2.569c37.048,0,75.356,0,113.09,0.687c25.574,0.346,50.578,9.424,74.271,26.98      c29.89,22.056,49.095,51.456,57.063,87.372c6.887,30.431,4.075,60.514-8.364,89.373c-13.237,31.051-35.085,55.16-64.932,71.634      c20.914,18.712,43.575,38.748,71.805,63.493c2.319,1.831,3.81,4.668,3.81,7.854c0,5.522-4.478,10-10,10      c-0.008-0.001-0.013-0.001-0.021,0h-16.963c-8.013,0-16.056,0.038-24.108,0.076      C422.643,434.718,414.531,434.756,406.434,434.756z M376.747,412.751c1.351,1.013,3.835,1.853,5.521,1.853      c0.048,0,0.095,0,0.143,0.001c7.156,0.103,15.015,0.151,24.022,0.151c8.066,0,16.146-0.038,24.216-0.076      c4.885-0.022,9.767-0.046,14.641-0.061c-23.952-21.074-43.899-38.794-62.906-55.873c-2.388-2.146-3.601-5.307-3.26-8.498      c0.34-3.191,2.191-6.025,4.977-7.62c1.712-0.979,2.785-1.682,3.823-2.361c0.685-0.448,1.321-0.863,2.01-1.284      c0.243-0.148,0.493-0.287,0.748-0.415c1.042-0.521,2.015-0.942,2.873-1.314c0.777-0.337,1.659-0.72,2.018-0.945      c0.171-0.107,0.346-0.21,0.522-0.307c26.448-14.474,44.987-34.838,56.676-62.259c10.746-24.927,13.173-50.861,7.23-77.119      c-6.9-31.104-23.531-56.547-49.438-75.664c-20.554-15.23-41.056-22.771-62.696-23.064c-30.403-0.554-61.211-0.66-91.432-0.68      c2.142,1.856,4.273,3.699,6.383,5.522c12.003,10.376,24.415,21.106,36.39,32.29c0.034,0.032,0.067,0.063,0.101,0.095      c4.435,4.258,8.501,5.841,15.005,5.841c0.491,0,0.991-0.009,1.5-0.026c4.94-0.215,8.81-0.313,12.449-0.313      c14.88,0,26.322,1.762,37.102,5.712c21.813,7.822,39.342,25.259,48.028,47.814c8.7,22.591,7.359,47.383-3.681,68.019      c-15.567,29.217-40.848,44.243-75.133,44.649c-20.354,0.243-54.752,1.319-77.939,2.152      c18.555,16.198,48.553,42.054,74.382,64.316C348.023,387.944,364.088,401.79,376.747,412.751z" style="fill:#001320;"/></g></g></g></g><g id="Layer_1"/></svg>