<?xml version="1.0" ?><!DOCTYPE svg  PUBLIC '-//W3C//DTD SVG 1.1//EN'  'http://www.w3.org/Graphics/SVG/1.1/DTD/svg11.dtd'><svg height="512px" style="enable-background:new 0 0 512 512;" version="1.1" viewBox="0 0 512 512" width="512px" xml:space="preserve" xmlns="http://www.w3.org/2000/svg" xmlns:xlink="http://www.w3.org/1999/xlink"><g id="comp_x5F_117-etsy"><g><g><g><path d="M444.571,346.355c-1.719,10.56-13.505,108.037-15.224,129.644      c-115.773-4.222-215.968-4.657-361.919,0v-25.042c44.646-8.791,59.545-7.879,59.911-34.622c1.761-71.032,3.461-239.783,0-316.25      c-1.011-27.951-11.913-26.286-59.911-35.355V39.685c72.566,2.316,251.362,8.397,356.516-3.684      c-3.437,37.567-7.611,124.24-7.611,124.24h-22.832C382.644,118.173,375.077,80,339.728,80H205.175      c-10.067,0-10.559,3.438-10.559,9.577v150.368c56.964,0.49,86.918-2.456,86.918-2.456c29.24-0.934,27.068-8.349,40.024-64.085      l25.289,1.814c-4.327,99.541-3.84,60.725-1.72,157.387L319.84,340c-8.992-39.37-8.904-59.953-38.797-60.401      c0,0-21.115-1.964-86.428-1.964V400c0,25.535,13.996,37.565,43.46,37.565h87.657c62.498,0,65.374-17.79,96.987-91.21H444.571      L444.571,346.355z" style="fill:#F97431;"/><path d="M429.354,485.999c-0.123,0-0.246-0.002-0.37-0.007c-62.208-2.269-117.348-3.325-173.528-3.325      c-56.939,0-116.585,1.058-187.708,3.327c-2.708,0.072-5.332-0.929-7.276-2.813s-3.042-4.476-3.042-7.183v-25.042      c0-4.778,3.38-8.889,8.068-9.812c5.462-1.075,10.556-2.021,15.05-2.854c15.058-2.794,25.937-4.813,31.453-8.125      c2.841-1.705,5.204-3.934,5.341-13.968c0-0.037,0.001-0.074,0.002-0.111c1.815-73.215,3.37-241.275,0.007-315.55      c-0.448-12.381-2.917-13.959-4.9-15.227c-5.002-3.198-16.169-5.199-31.624-7.967c-4.535-0.812-9.675-1.733-15.254-2.787      c-4.724-0.893-8.144-5.02-8.144-9.826V39.685c0-2.708,1.098-5.299,3.042-7.183s4.555-2.906,7.277-2.812l5.023,0.161      c40.018,1.282,106.997,3.427,176.53,3.427c73.478,0,131.852-2.426,173.502-7.211c2.986-0.342,5.978,0.678,8.13,2.782      c2.153,2.104,3.244,5.065,2.97,8.063c-3.377,36.922-7.539,122.946-7.581,123.811c-0.257,5.329-4.652,9.519-9.988,9.519h-22.832      c-4.561,0-8.543-3.085-9.683-7.501c-0.629-2.438-1.247-4.862-1.86-7.267C371.298,113.658,364.08,90,339.728,90H205.175      c-0.197,0-0.383,0.002-0.559,0.005v139.993c49.284,0.077,75.685-2.436,75.942-2.461c0.218-0.021,0.439-0.036,0.657-0.043      c12.708-0.406,14.875-2.1,16.55-4.449c3.493-4.9,6.102-16.573,10.049-34.242c1.165-5.216,2.485-11.128,4.005-17.664      c1.113-4.792,5.539-8.075,10.456-7.71l25.289,1.814c5.399,0.387,9.51,5,9.274,10.409c-0.715,16.453-1.299,29.129-1.766,39.262      c-1.842,40-1.842,40-0.9,77.41c0.256,10.134,0.579,22.985,0.954,40.062c0.099,4.521-2.85,8.548-7.191,9.816l-25.288,7.395      c-2.645,0.773-5.493,0.421-7.869-0.974c-2.377-1.396-4.073-3.71-4.687-6.397c-1.185-5.187-2.189-9.937-3.161-14.53      c-6.896-32.596-9.229-37.847-26.036-38.099c-0.26-0.004-0.519-0.018-0.776-0.042c-0.191-0.018-19.472-1.721-75.502-1.904V400      c0,16.546,5.69,27.565,33.46,27.565h87.657c51.517,0,55.518-9.396,81.547-70.529c1.964-4.614,4.039-9.488,6.256-14.636      c1.579-3.668,5.19-6.045,9.185-6.045h21.852c2.933,0,5.718,1.287,7.618,3.521c1.899,2.234,2.723,5.19,2.252,8.085      c-1.531,9.407-13.373,106.8-15.125,128.83C438.901,482.007,434.544,485.999,429.354,485.999z M77.429,459.218v6.463      c66.832-2.054,123.646-3.014,178.027-3.014c53.57,0,106.184,0.956,164.815,3.002c2.671-26.377,9.519-83.74,12.835-109.313      h-3.794c-1.254,2.933-2.462,5.771-3.631,8.516c-26.337,61.856-35.209,82.694-99.948,82.694h-87.657      c-44.185,0-53.46-25.866-53.46-47.565V277.635c0-5.522,4.477-10,10-10c61.012,0,83.657,1.694,86.95,1.972      c15.665,0.313,26.201,5.582,33.141,16.56c5.831,9.226,8.461,21.655,11.79,37.391c0.269,1.267,0.539,2.545,0.814,3.84      l7.648-2.236c-0.302-13.314-0.565-23.79-0.78-32.332c-0.96-38.121-0.96-38.121,0.915-78.833      c0.37-8.029,0.813-17.656,1.337-29.498l-7.04-0.505c-0.736,3.255-1.421,6.318-2.059,9.172      c-4.796,21.469-7.438,33.295-13.282,41.492c-7.874,11.043-20.042,12.423-31.877,12.817c-3.613,0.338-33.341,2.942-87.643,2.471      c-5.489-0.047-9.914-4.51-9.914-10V89.577c0-8.404,2.131-19.577,20.559-19.577h134.553c18.955,0,33.155,8.801,43.413,26.906      c8.189,14.455,13.024,33.335,18.123,53.335h5.554c1.05-20.773,3.676-70.861,6.157-103.023      c-41.289,4.023-96.256,6.06-163.674,6.06c-66.865,0-131.279-1.972-171.872-3.268v6.4c2.433,0.442,4.749,0.857,6.924,1.247      c35.563,6.371,51.794,9.278,52.981,42.067c3.542,78.245,1.718,247.623,0.005,316.803c-0.146,10.229-1.999,22.955-15.043,30.787      c-8.612,5.17-20.343,7.347-38.099,10.642C82.066,458.351,79.8,458.771,77.429,459.218z" style="fill:#BB5725;"/></g></g></g></g><g id="Layer_1"/></svg>