<?xml version="1.0" ?><!DOCTYPE svg  PUBLIC '-//W3C//DTD SVG 1.1//EN'  'http://www.w3.org/Graphics/SVG/1.1/DTD/svg11.dtd'><svg height="512px" style="enable-background:new 0 0 512 512;" version="1.1" viewBox="0 0 512 512" width="512px" xml:space="preserve" xmlns="http://www.w3.org/2000/svg" xmlns:xlink="http://www.w3.org/1999/xlink"><g id="comp_x5F_155-gratipay"><g><g><g><g><path d="M256,26.5C129.311,26.5,26.5,129.312,26.5,256c0,126.688,102.811,229.5,229.5,229.5       c126.687,0,229.5-102.813,229.5-229.5C485.5,129.312,382.688,26.5,256,26.5z" style="fill:#663300;"/><path d="M256,495.5C123.939,495.5,16.5,388.061,16.5,256S123.939,16.5,256,16.5       c132.06,0,239.5,107.439,239.5,239.5S388.061,495.5,256,495.5z M256,36.5C134.967,36.5,36.5,134.967,36.5,256       c0,121.033,98.467,219.5,219.5,219.5c121.033,0,219.5-98.467,219.5-219.5C475.5,134.967,377.033,36.5,256,36.5z" style="fill:#4D2600;"/></g></g><g><path d="M362.051,236.012L257.481,377.32L153.188,236.012c-8.05-11.013-17.675-46.64,12.585-66.629      c26.004-16.75,50.527-3.887,63.391,11.013c14.713,16.564,43.121,15.638,57.097,0c12.862-14.899,37.388-27.763,63.019-11.013      C379.727,189.372,370.195,224.906,362.051,236.012L362.051,236.012z" style="fill:#FFFFFF;"/><path d="M257.481,387.32c-0.002,0-0.004,0-0.006,0c-3.173-0.002-6.156-1.509-8.04-4.062L145.142,241.95      c-6.664-9.115-12.341-27.03-9.126-44.911c2.667-14.836,11.052-27.285,24.246-36c0.032-0.021,0.064-0.042,0.097-0.063      c9.78-6.3,20.1-9.494,30.675-9.494c23.74,0,39.797,15.558,45.649,22.319c4.923,5.512,12.517,8.672,20.845,8.672      c8.404,0,16.334-3.247,21.229-8.689c12.093-13.966,29.104-22.302,45.525-22.302c10.541,0,20.792,3.206,30.468,9.529      c13.339,8.757,21.801,21.249,24.487,36.136c3.218,17.832-2.474,35.711-9.123,44.778L265.52,383.269      C263.634,385.817,260.651,387.32,257.481,387.32z M171.239,177.757c-8.614,5.705-13.842,13.383-15.539,22.821      c-2.391,13.295,2.714,25.638,5.561,29.532l96.231,130.385l96.521-130.432c3.598-4.906,7.721-17.293,5.542-29.364      c-1.713-9.49-7.017-17.214-15.764-22.957c-6.35-4.15-12.92-6.26-19.509-6.26c-10.718,0-22.102,5.775-30.452,15.448      c-0.037,0.043-0.075,0.086-0.113,0.129c-8.755,9.796-21.945,15.415-36.189,15.415c-14.063,0-27.126-5.626-35.84-15.438      c-0.031-0.035-0.062-0.07-0.093-0.105c-8.352-9.673-19.776-15.448-30.562-15.448      C184.379,171.482,177.72,173.593,171.239,177.757z" style="fill:#4D2600;"/></g></g></g></g><g id="Layer_1"/></svg>