<?xml version="1.0" ?><!DOCTYPE svg  PUBLIC '-//W3C//DTD SVG 1.1//EN'  'http://www.w3.org/Graphics/SVG/1.1/DTD/svg11.dtd'><svg height="512px" style="enable-background:new 0 0 512 512;" version="1.1" viewBox="0 0 512 512" width="512px" xml:space="preserve" xmlns="http://www.w3.org/2000/svg" xmlns:xlink="http://www.w3.org/1999/xlink"><g id="comp_x5F_206-mastercard_x2C__Credit_card"><g><g><g><path d="M434.5,426h-357C51.819,426,31,405.182,31,379.5v-247C31,106.819,51.819,86,77.5,86h357      c25.682,0,46.5,20.819,46.5,46.5v247C481,405.182,460.182,426,434.5,426z" style="fill:#FFFFFF;"/><g><path d="M434.5,436h-357C46.346,436,21,410.654,21,379.5v-247C21,101.346,46.346,76,77.5,76h357       c31.154,0,56.5,25.346,56.5,56.5v247C491,410.654,465.654,436,434.5,436z M77.5,96C57.374,96,41,112.374,41,132.5v247       c0,20.126,16.374,36.5,36.5,36.5h357c20.126,0,36.5-16.374,36.5-36.5v-247c0-20.126-16.374-36.5-36.5-36.5H77.5z"/></g></g><g><g><g><path d="M331.002,126c52.461,0,95,42.53,95,95c0,52.47-42.539,95-95,95c-30.49,0-57.63-14.36-75-36.69        c12.541-16.1,20-36.33,20-58.31s-7.459-42.21-20-58.31C273.372,140.36,300.512,126,331.002,126z" style="fill:#F79F1A;"/><path d="M331.002,326c-32.634,0-62.847-14.78-82.893-40.551c-2.811-3.613-2.809-8.674,0.004-12.285        c11.703-15.023,17.889-33.062,17.889-52.164s-6.186-37.14-17.889-52.165c-2.813-3.611-2.814-8.671-0.004-12.285        C268.154,130.78,298.368,116,331.002,116c57.897,0,105,47.103,105,105C436.002,278.897,388.899,326,331.002,326z         M268.676,278.805C284.732,296.175,307.063,306,331.002,306c46.869,0,85-38.131,85-85s-38.131-85-85-85        c-23.939,0-46.271,9.825-62.326,27.195c11.361,17.141,17.326,36.962,17.326,57.805S280.037,261.664,268.676,278.805z"/></g></g><g><g><path d="M256.002,162.69c12.541,16.1,20,36.33,20,58.31s-7.459,42.21-20,58.31        c-12.54-16.1-20-36.33-20-58.31S243.462,178.79,256.002,162.69z" style="fill:#FF5F01;"/><path d="M256.002,289.31L256.002,289.31c-3.083,0-5.995-1.423-7.889-3.855c-14.465-18.57-22.111-40.858-22.111-64.454        c0-23.595,7.646-45.883,22.111-64.455c1.895-2.433,4.806-3.855,7.889-3.855s5.995,1.422,7.889,3.855        c14.465,18.57,22.11,40.859,22.11,64.455c0,23.597-7.646,45.885-22.11,64.455C261.997,287.887,259.086,289.31,256.002,289.31z         M256.002,180.929c-6.574,12.233-10,25.858-10,40.071c0,14.214,3.425,27.838,10,40.071c6.574-12.232,10-25.858,10-40.071        S262.576,193.161,256.002,180.929z"/></g></g><g><g><path d="M181.002,126c30.49,0,57.63,14.36,75,36.69c-12.54,16.1-20,36.33-20,58.31s7.46,42.21,20,58.31        c-17.37,22.33-44.51,36.69-75,36.69c-52.47,0-95-42.53-95-95C86.002,168.53,128.532,126,181.002,126z" style="fill:#EA001B;"/><path d="M181.002,326c-57.897,0-105-47.103-105-105c0-57.897,47.103-105,105-105c32.634,0,62.847,14.78,82.893,40.55        c2.811,3.613,2.81,8.673-0.004,12.285c-11.703,15.025-17.889,33.064-17.889,52.165s6.186,37.14,17.889,52.165        c2.813,3.611,2.814,8.671,0.004,12.284C243.849,311.22,213.636,326,181.002,326z M181.002,136c-46.869,0-85,38.131-85,85        s38.131,85,85,85c23.939,0,46.27-9.826,62.327-27.195c-11.361-17.141-17.327-36.963-17.327-57.805s5.965-40.664,17.327-57.805        C227.273,145.826,204.942,136,181.002,136z"/></g></g></g><polygon points="424.548,287.937 424.548,291.61 425.188,291.61 425.188,287.937 426.704,287.937 426.704,287.299      423.031,287.299 423.031,287.937 424.548,287.937    "/><g><path d="M412.17,363.326c-6.549-8.704-23.879-4.073-23.879,11.101c0,15.494,17.969,19.646,23.879,11.101v3.674h6.309v-41.287      h-6.309V363.326z M403.703,383.77c-5.43,0-8.944-4.152-8.944-9.343c0-5.192,3.515-9.343,8.944-9.343      c5.272,0,8.945,4.15,8.945,9.343C412.648,379.858,408.976,383.77,403.703,383.77z"/><path d="M172.906,363.326c-2.156-2.636-5.19-4.313-9.344-4.313c-8.226,0-14.534,6.549-14.534,15.413      c0,8.945,6.309,15.414,14.534,15.414c4.154,0,7.188-1.518,9.344-4.313v3.674h6.31v-29.39h-6.31V363.326z M164.442,383.77      c-5.671,0-8.944-4.152-8.944-9.343c0-5.192,3.273-9.343,8.944-9.343c5.19,0,8.625,4.15,8.704,9.343      C173.146,379.858,169.632,383.77,164.442,383.77z"/><path d="M258.517,358.933c-8.463,0-14.534,6.311-14.534,15.414c0,16.372,18.049,19.088,26.993,11.341l-3.034-4.792      c-6.229,5.112-15.654,4.632-17.489-3.913h21.961C272.413,364.045,266.504,358.933,258.517,358.933z M250.691,371.792      c0.639-4.153,3.273-6.947,7.586-6.947c4.151,0,6.949,2.395,7.667,6.947H250.691z"/><path d="M352.833,363.326c-6.629-8.785-23.88-3.834-23.88,11.101c0,15.333,17.891,19.725,23.88,11.101v3.674h6.549v-29.39      h-6.549V363.326z M344.367,383.77c-5.43,0-8.704-4.152-8.704-9.343c0-5.192,3.274-9.343,8.704-9.343s8.944,4.15,8.944,9.343      C353.312,379.858,349.797,383.77,344.367,383.77z"/><path d="M131.619,359.014c-3.674,0-7.586,1.118-10.223,5.189c-1.917-3.272-5.19-5.189-9.743-5.189      c-3.035,0-6.069,1.118-8.464,4.313v-3.515H96.64v29.31h6.549c0-15.094-1.997-24.117,7.187-24.117      c8.146,0,6.549,8.145,6.549,24.117h6.309c0-14.613-1.997-24.117,7.187-24.117c8.146,0,6.549,7.985,6.549,24.117h6.548v-18.368      h-0.16C143.358,363.803,138.807,359.253,131.619,359.014z"/><path d="M193.272,368.117c0-4.553,9.503-3.833,14.773-0.878l2.636-5.191c-7.507-4.871-24.118-4.791-24.118,6.55      c0,11.419,18.288,6.628,18.288,11.979c0,5.031-10.781,4.631-16.53,0.639l-2.796,5.032c8.944,6.067,26.033,4.792,26.033-5.991      C211.558,368.278,193.272,373.707,193.272,368.117z"/><path d="M228.331,378.978v-13.256h10.461v-5.91h-10.461v-8.942h-6.549v8.942h-6.07v5.829h6.07v13.337      c0,14.058,13.815,11.5,18.047,8.706l-1.757-5.431C235.039,383.929,228.331,385.766,228.331,378.978z"/><path d="M285.512,363.326v-3.515h-6.551v29.31h6.551V372.59c0-9.264,7.587-8.066,10.222-6.708l1.915-6.07      C293.977,358.216,288.387,358.374,285.512,363.326z"/><path d="M322.646,367.719l3.033-5.191c-9.262-7.267-26.111-3.274-26.111,11.98c0,15.812,17.887,19.006,26.111,11.978      l-3.033-5.19c-7.348,5.19-16.532,2.077-16.532-6.868C306.113,365.323,315.378,362.366,322.646,367.719z"/><path d="M374.155,363.326v-3.515h-6.309v29.31h6.309V372.59c0-8.787,7.188-8.226,10.223-6.708l1.917-6.07      C384.378,358.854,377.51,357.496,374.155,363.326z"/><path d="M429.58,385.527c-0.24-0.239-0.4-0.64-0.64-0.879s-0.64-0.397-0.878-0.639c-0.399,0-0.879-0.24-1.279-0.24      c-0.238,0-0.639,0.24-1.116,0.24c-0.401,0.241-0.641,0.399-0.879,0.639c-0.399,0.239-0.639,0.64-0.639,0.879      c-0.24,0.399-0.24,0.88-0.24,1.278c0,0.239,0,0.639,0.24,1.116c0,0.24,0.239,0.641,0.639,0.88      c0.238,0.239,0.4,0.399,0.879,0.639c0.398,0.239,0.878,0.239,1.116,0.239c0.4,0,0.88,0,1.279-0.239      c0.238-0.239,0.639-0.399,0.878-0.639s0.399-0.64,0.64-0.88c0.239-0.478,0.239-0.877,0.239-1.116      C429.819,386.407,429.819,385.927,429.58,385.527z"/></g><polygon points="432.375,287.219 431.258,287.219 429.978,290.014 428.701,287.219 427.583,287.219 427.583,291.53      428.223,291.53 428.223,288.256 429.5,291.052 430.377,291.052 431.496,288.256 431.496,291.53 432.375,291.53    "/></g></g></g><g id="Layer_1"/></svg>