<?xml version="1.0" ?><!DOCTYPE svg  PUBLIC '-//W3C//DTD SVG 1.1//EN'  'http://www.w3.org/Graphics/SVG/1.1/DTD/svg11.dtd'><svg height="512px" style="enable-background:new 0 0 512 512;" version="1.1" viewBox="0 0 512 512" width="512px" xml:space="preserve" xmlns="http://www.w3.org/2000/svg" xmlns:xlink="http://www.w3.org/1999/xlink"><g id="comp_x5F_238-opencart"><g><g><g><path d="M330.252,388.754c0,18.186-14.59,32.777-32.776,32.777c-18.183,0-32.918-14.592-32.918-32.777      c0-18.185,14.808-32.92,32.918-32.92C315.733,355.834,330.252,370.569,330.252,388.754z M147.759,355.834      c-18.185,0-32.776,14.809-32.776,32.92c0,18.112,14.591,32.777,32.776,32.777c18.185,0,32.919-14.592,32.919-32.777      C180.678,370.569,165.943,355.834,147.759,355.834z M357.422,161.77c-217.21,0-272.556-9.201-331.421-71.301      c24.726,37.161,24.139,107.023,254,103.645c239.563-3.593,98,46.887,65.058,135.773      C479.251,210.07,574.631,161.77,357.422,161.77L357.422,161.77z" style="fill:#37C2EB;"/><path d="M297.476,431.531c-23.665,0-42.918-19.189-42.918-42.777c0-23.666,19.253-42.92,42.918-42.92      c23.587,0,42.776,19.254,42.776,42.92C340.252,412.342,321.063,431.531,297.476,431.531z M297.476,365.834      c-12.637,0-22.918,10.282-22.918,22.92c0,12.56,10.281,22.777,22.918,22.777c12.559,0,22.776-10.218,22.776-22.777      C320.252,376.116,310.034,365.834,297.476,365.834z M147.759,431.531c-23.587,0-42.776-19.189-42.776-42.777      c0-23.666,19.189-42.92,42.776-42.92c23.666,0,42.919,19.254,42.919,42.92C190.678,412.342,171.425,431.531,147.759,431.531z       M147.759,365.834c-12.559,0-22.776,10.282-22.776,22.92c0,12.56,10.217,22.777,22.776,22.777      c12.638,0,22.919-10.218,22.919-22.777C170.678,376.116,160.396,365.834,147.759,365.834z M345.056,339.887      c-1.958,0-3.924-0.573-5.632-1.738c-3.796-2.588-5.34-7.429-3.743-11.736c10.339-27.896,30.53-51.961,46.755-71.296      c8.441-10.06,15.731-18.748,20.195-26.102c4.699-7.741,4.058-10.502,3.749-11.164c-0.415-0.89-3.459-5.511-22.674-9.074      c-17.58-3.259-44.065-4.844-80.97-4.844c-7.09,0-14.689,0.06-22.587,0.179c-5.389,0.079-10.756,0.119-15.953,0.119      c-83.396,0-142.663-10.09-181.186-30.848c-34.553-18.619-46.783-42.506-56.609-61.699c-2.925-5.714-5.688-11.112-8.726-15.676      c-2.875-4.322-1.966-10.125,2.093-13.36c4.061-3.234,9.919-2.826,13.49,0.941c54.965,57.985,103.438,68.181,324.164,68.181      c91.935,0,129.097,8.114,137.116,29.938c6.072,16.526-8.024,34.372-20.983,48.074c-15.319,16.197-38.318,35.737-64.949,58.363      c-17.231,14.64-36.762,31.232-56.888,49.201C349.833,339.029,347.449,339.887,345.056,339.887z M302.736,183.934      c38.142,0,65.819,1.694,84.616,5.179c20.966,3.887,32.424,10.144,37.153,20.286c8.002,17.159-7.334,35.435-26.749,58.573      c-2.936,3.498-5.942,7.081-8.952,10.753c2.32-1.974,4.604-3.914,6.851-5.822c26.186-22.247,48.8-41.459,63.369-56.864      c17.923-18.951,17.345-25.789,16.74-27.433c-0.587-1.597-4.252-7.133-26.774-11.33c-19.884-3.705-49.836-5.506-91.568-5.506      c-105.591,0-176.606-2.057-227.127-12.573c-25.087-5.222-45.656-12.532-64.322-23.38c6.659,7.043,15.148,13.83,26.525,19.96      c35.534,19.147,91.697,28.455,171.699,28.455c5.101,0,10.368-0.04,15.656-0.117      C287.847,183.995,295.547,183.934,302.736,183.934z" style="fill:#2992B0;"/></g></g></g></g><g id="Layer_1"/></svg>