<?xml version="1.0" ?><!DOCTYPE svg  PUBLIC '-//W3C//DTD SVG 1.1//EN'  'http://www.w3.org/Graphics/SVG/1.1/DTD/svg11.dtd'><svg height="512px" style="enable-background:new 0 0 512 512;" version="1.1" viewBox="0 0 512 512" width="512px" xml:space="preserve" xmlns="http://www.w3.org/2000/svg" xmlns:xlink="http://www.w3.org/1999/xlink"><g id="comp_x5F_250-paypal"><g><g><g><path d="M172.361,281.557c-3.179,17.441-15.808,98.744-19.531,121.729      c-0.272,1.635-0.908,2.27-2.726,2.27H82.337c-6.902,0-11.898-5.995-10.99-12.627L124.578,55.09      c1.364-8.72,9.177-15.352,18.169-15.352c138.351,0,149.979-3.361,185.315,10.356c54.597,21.167,59.593,72.219,39.97,127.45      c-19.53,56.866-65.86,81.303-127.267,82.029C201.34,260.211,177.631,253.215,172.361,281.557L172.361,281.557z" style="fill:#002D8A;"/><g><path d="M150.104,415.555H82.337c-6.122,0-11.918-2.619-15.902-7.187       c-4.007-4.594-5.828-10.716-4.996-16.797c0.009-0.067,0.019-0.134,0.03-0.2L114.7,53.534       c2.122-13.561,14.18-23.795,28.047-23.795c26.458,0,48.678-0.125,66.531-0.226c13.084-0.074,24.385-0.138,34.207-0.138       c47.009,0,62.293,1.342,88.197,11.397c28.919,11.212,47.053,30.669,53.896,57.831c5.81,23.062,3.083,50.729-8.104,82.236       c-10.209,29.695-27.753,52.339-52.144,67.297c-22.547,13.828-50.959,21.041-84.446,21.437       c-1.917,0.031-3.841,0.045-5.726,0.045c-5.313,0-10.201-0.104-14.928-0.206c-3.999-0.085-7.776-0.166-11.248-0.166       c-20.99,0-24.752,3.186-26.789,14.14c-2.127,11.671-8.56,52.43-13.729,85.179c-2.447,15.506-4.56,28.897-5.763,36.321       C161.602,411.483,156.777,415.555,150.104,415.555z M81.248,394.339c-0.043,0.433,0.114,0.717,0.258,0.882       c0.199,0.228,0.463,0.334,0.831,0.334h61.606c1.217-7.62,2.894-18.244,4.766-30.108c5.185-32.854,11.638-73.742,13.814-85.683       c5.674-30.518,31.205-30.518,46.458-30.518c3.686,0,7.566,0.083,11.675,0.17c6.234,0.133,12.79,0.275,19.947,0.159       c61.388-0.727,101.064-26.054,117.97-75.279c0.012-0.033,0.023-0.066,0.035-0.1c14.464-40.711,20.279-93.672-34.162-114.778       c-22.245-8.636-33.595-10.043-80.963-10.043c-9.766,0-21.04,0.064-34.094,0.137c-17.878,0.101-40.128,0.227-66.644,0.227       c-4.043,0-7.684,3.03-8.289,6.898L81.248,394.339z" style="fill:#002268;"/></g></g><g><path d="M416.329,172.125c-1.636-1.181-2.271-1.636-2.726,1.18c-1.817,10.357-4.633,20.44-7.995,30.524      c-36.245,103.376-136.716,94.384-185.77,94.384c-5.541,0-9.175,2.998-9.902,8.538c-20.529,127.54-24.617,154.157-24.617,154.157      c-0.909,6.449,3.18,11.718,9.63,11.718h57.684c7.813,0,14.262-5.723,15.807-13.534c0.635-4.906-0.999,5.541,13.081-82.938      c4.178-19.984,12.989-17.895,26.615-17.895c64.499,0,114.823-26.163,129.813-102.015      C443.854,224.63,442.128,191.382,416.329,172.125L416.329,172.125z" style="fill:#019BE1;"/><g><path d="M252.633,482.625h-57.684c-5.901,0-11.198-2.354-14.913-6.63       c-3.796-4.369-5.48-10.378-4.619-16.483l0.018-0.122c0.041-0.267,4.324-28.087,24.608-154.104       c1.434-10.378,9.188-17.073,19.795-17.073c3.463,0,7.179,0.044,11.109,0.091c4.391,0.053,8.931,0.106,13.71,0.106       c59.667,0,124.319-10.433,151.488-87.816c3.62-10.864,6.035-20.07,7.599-28.96c1.641-9.927,9.365-10.43,10.9-10.43       c3.642,0,6.177,1.831,7.539,2.814l0.127,0.094c25.054,18.701,33.622,50.317,25.468,93.968l-0.02,0.103       c-14.435,73.041-61.41,110.076-139.623,110.076c-1.266,0-2.491-0.017-3.677-0.034c-1.02-0.014-2.007-0.028-2.963-0.028       c-2.481,0-5.465,0.098-6.514,0.862c-0.482,0.352-2.157,2.028-3.626,8.913l-5.8,36.439c-6.744,42.362-6.81,42.78-7.051,44.77       l-0.257,1.852C275.734,473.745,265.201,482.625,252.633,482.625z M195.194,462.625h57.439c2.809,0,5.216-2.122,5.937-5.196       l0.082-0.654c0.288-2.378,0.288-2.378,7.154-45.508l5.927-37.16c4.76-22.772,17.118-25.911,29.764-25.911       c1.047,0,2.129,0.015,3.246,0.03c1.095,0.016,2.226,0.032,3.394,0.032c68.239,0,107.49-30.718,119.993-93.907       c5.253-28.17,2.569-49.711-7.97-64.274c-1.388,5.326-3.059,10.899-5.064,16.915l-0.05,0.146       c-14.536,41.46-40.732,70.466-77.859,86.21c-31.484,13.351-65.986,15.063-92.528,15.063c-4.898,0-9.499-0.055-13.949-0.107       c-3.845-0.046-7.481-0.09-10.87-0.09c-0.003,0-0.006,0-0.009,0l-0.021,0.127c-19.75,122.696-24.331,152.302-24.594,154.008       C195.202,462.451,195.196,462.544,195.194,462.625z" style="fill:#002268;"/></g></g></g></g></g><g id="Layer_1"/></svg>