<?xml version="1.0" ?><svg data-name="Layer 1" id="Layer_1" viewBox="0 0 32 32" xmlns="http://www.w3.org/2000/svg"><defs><style>.cls-1{fill:#edbe9d;}.cls-2{fill:#f9dcc4;}.cls-3{fill:#f8edeb;}.cls-4{fill:#70d6ff;}.cls-5{fill:#fff2e9;}.cls-6{fill:#3fc6ef;}.cls-7{fill:#cecece;}.cls-8{fill:#3d405b;}</style></defs><rect class="cls-1" height="25" rx="2.5" width="19" x="4" y="2"/><rect class="cls-2" height="25" rx="2.5" width="19" x="9" y="5"/><path class="cls-1" d="M26,20v4a4,4,0,0,1-4,4H14a1,1,0,0,0-1,1h0a1,1,0,0,0,1,1H25.5A2.5,2.5,0,0,0,28,27.5V20a1,1,0,0,0-1-1h0A1,1,0,0,0,26,20Z"/><path class="cls-3" d="M19.86,17.35,16.67,11a.54.54,0,0,0-.33-.26.5.5,0,0,0-.41.08l-.81.57a2.5,2.5,0,0,0-.62,3.48L17.37,19a.46.46,0,0,0,.32.2h.09a.52.52,0,0,0,.29-.09L19.7,18A.48.48,0,0,0,19.86,17.35Z"/><path class="cls-3" d="M21.89,11.43l-.82-.57a.5.5,0,0,0-.41-.08.54.54,0,0,0-.33.26l-3.19,6.31a.48.48,0,0,0,.16.63l1.63,1.15a.52.52,0,0,0,.29.09.49.49,0,0,0,.41-.21l2.87-4.1A2.51,2.51,0,0,0,21.89,11.43Z"/><circle class="cls-4" cx="18.5" cy="17.5" r="2.5"/><circle class="cls-4" cx="21" cy="22" r="2"/><circle class="cls-4" cx="16" cy="22" r="2"/><path class="cls-5" d="M18,5h7a1,1,0,0,1,0,2H18a1,1,0,0,1,0-2Z"/><path class="cls-5" d="M9,13.5v-2a1,1,0,0,1,2,0v2a1,1,0,0,1-2,0Z"/><path class="cls-5" d="M9,24.5v-8a1,1,0,0,1,2,0v8a1,1,0,0,1-2,0Z"/><ellipse class="cls-6" cx="20" cy="17.5" rx="1" ry="1.99"/><path class="cls-6" d="M23,22a2,2,0,0,0-2-2v4A2,2,0,0,0,23,22Z"/><path class="cls-6" d="M18,22a2,2,0,0,0-2-2v4A2,2,0,0,0,18,22Z"/><path class="cls-7" d="M20,15a2,2,0,0,0,1.17,1.81l1.33-1.9a2.54,2.54,0,0,0,.43-1.67A2,2,0,0,0,22,13,2,2,0,0,0,20,15Z"/><path class="cls-8" d="M25.5,5H23V4.5a2.5,2.5,0,0,0-.31-1.21.5.5,0,0,0-.88.48A1.42,1.42,0,0,1,22,4.5V5H11.5A2.5,2.5,0,0,0,9,7.5v20A2.5,2.5,0,0,0,11.5,30h14A2.5,2.5,0,0,0,28,27.5V7.5A2.5,2.5,0,0,0,25.5,5ZM27,27.5A1.5,1.5,0,0,1,25.5,29h-14A1.5,1.5,0,0,1,10,27.5V7.5A1.5,1.5,0,0,1,11.5,6h14A1.5,1.5,0,0,1,27,7.5Z"/><path class="cls-8" d="M21,20a2,2,0,0,0-.49.07l-.45-.64A2.46,2.46,0,0,0,21,17.5a2.58,2.58,0,0,0,0-.39l1.54-2.2a2.51,2.51,0,0,0-.61-3.48l-.82-.57a.5.5,0,0,0-.41-.08.54.54,0,0,0-.33.26L18.5,14.66,16.67,11a.54.54,0,0,0-.33-.26.5.5,0,0,0-.41.08l-.81.57a2.5,2.5,0,0,0-.62,3.48L16,17.11a2.58,2.58,0,0,0,0,.39,2.46,2.46,0,0,0,.94,1.93l-.45.64a2,2,0,1,0,.88.48l.46-.65a2.29,2.29,0,0,0,1.34,0l.46.65A2,2,0,1,0,21,20Zm-5,3a1,1,0,1,1,1-1A1,1,0,0,1,16,23Zm5-11,.35.24a1.5,1.5,0,0,1,.37,2.09L20.5,16a2.47,2.47,0,0,0-1.13-.86Zm-5.64,2.33a1.5,1.5,0,0,1,.37-2.09L16,12l1.59,3.15A2.47,2.47,0,0,0,16.5,16ZM17,17.5A1.5,1.5,0,0,1,18.4,16h.2A1.5,1.5,0,1,1,17,17.5ZM21,23a1,1,0,1,1,1-1A1,1,0,0,1,21,23Z"/><path class="cls-8" d="M10.55,3h2a.5.5,0,0,0,0-1h-2a.5.5,0,0,0,0,1Z"/><path class="cls-8" d="M4.5,9.89a.5.5,0,0,0,.5-.5v-2a.5.5,0,1,0-1,0v2A.5.5,0,0,0,4.5,9.89Z"/><path class="cls-8" d="M14.57,3h2a.5.5,0,0,0,0-1h-2a.5.5,0,0,0,0,1Z"/><path class="cls-8" d="M4.5,13.92a.5.5,0,0,0,.5-.5v-2a.5.5,0,0,0-1,0v2A.5.5,0,0,0,4.5,13.92Z"/><path class="cls-8" d="M18.6,3h2a.49.49,0,0,0,.49-.47A.5.5,0,0,0,20.64,2h-2a.5.5,0,0,0,0,1Z"/><path class="cls-8" d="M8.53,2h-2a.5.5,0,0,0,0,1h2a.5.5,0,0,0,0-1Z"/><path class="cls-8" d="M7.39,26h-1a.5.5,0,0,0-.53.47.52.52,0,0,0,.47.53h1a.5.5,0,1,0,0-1Z"/><path class="cls-8" d="M5.09,3a.5.5,0,0,0-.69.15A2.54,2.54,0,0,0,4,4.5v.87a.5.5,0,1,0,1,0V4.5a1.45,1.45,0,0,1,.24-.81A.51.51,0,0,0,5.09,3Z"/><path class="cls-8" d="M4.5,18a.5.5,0,0,0,.5-.5v-2a.5.5,0,0,0-1,0v2A.5.5,0,0,0,4.5,18Z"/><path class="cls-8" d="M5,24.5v-1a.5.5,0,0,0-1,0v1a2.52,2.52,0,0,0,.31,1.2.49.49,0,0,0,.44.26A.53.53,0,0,0,5,25.9a.49.49,0,0,0,.19-.68A1.51,1.51,0,0,1,5,24.5Z"/><path class="cls-8" d="M4.5,22a.5.5,0,0,0,.5-.5v-2a.5.5,0,0,0-1,0v2A.5.5,0,0,0,4.5,22Z"/></svg>