<?xml version="1.0" ?><svg data-name="Layer 1" id="Layer_1" viewBox="0 0 32 32" xmlns="http://www.w3.org/2000/svg"><defs><style>.cls-1{fill:#00a6fb;}.cls-2{fill:#10bcff;}.cls-3{fill:#008ab5;}.cls-4{fill:#3d405b;}.cls-5{fill:#f8edeb;}</style></defs><path class="cls-1" d="M23.5,2h-12a.47.47,0,0,0-.35.15l-5,5A.47.47,0,0,0,6,7.5v20A2.5,2.5,0,0,0,8.5,30h15A2.5,2.5,0,0,0,26,27.5V4.5A2.5,2.5,0,0,0,23.5,2Z"/><path class="cls-2" d="M15,2h7a1,1,0,0,1,0,2H15a1,1,0,0,1,0-2Z"/><path class="cls-2" d="M6,13.5v-2a1,1,0,0,1,2,0v2a1,1,0,0,1-2,0Z"/><path class="cls-2" d="M6,24.5v-8a1,1,0,0,1,2,0v8a1,1,0,0,1-2,0Z"/><path class="cls-3" d="M24,20v4a4,4,0,0,1-4,4H11a1,1,0,0,0-1,1h0a1,1,0,0,0,1,1H23.5A2.5,2.5,0,0,0,26,27.5V20a1,1,0,0,0-1-1h0A1,1,0,0,0,24,20Z"/><path class="cls-3" d="M11.69,2a.47.47,0,0,0-.54.11l-5,5A.47.47,0,0,0,6,7.69.5.5,0,0,0,6.5,8h3A2.5,2.5,0,0,0,12,5.5v-3A.5.5,0,0,0,11.69,2Z"/><path class="cls-4" d="M23.5,2h-12a.41.41,0,0,0-.19,0,.36.36,0,0,0-.16.11l-5,5A.36.36,0,0,0,6,7.31.41.41,0,0,0,6,7.5v20A2.5,2.5,0,0,0,8.5,30h15A2.5,2.5,0,0,0,26,27.5V4.5A2.5,2.5,0,0,0,23.5,2ZM11,3.71V5.5A1.5,1.5,0,0,1,9.5,7H7.71ZM25,27.5A1.5,1.5,0,0,1,23.5,29H8.5A1.5,1.5,0,0,1,7,27.5V8H9.5A2.5,2.5,0,0,0,12,5.5V3H23.5A1.5,1.5,0,0,1,25,4.5Z"/><path class="cls-5" d="M16,21a2,2,0,0,1-2-2V13a2,2,0,0,1,4,0v6A2,2,0,0,1,16,21Zm0-9a1,1,0,0,0-1,1v6a1,1,0,0,0,2,0V13A1,1,0,0,0,16,12Z"/><path class="cls-5" d="M9.5,21a.5.5,0,0,1-.5-.5v-9a.5.5,0,0,1,.5-.5A3.5,3.5,0,0,1,13,14.5v3A3.5,3.5,0,0,1,9.5,21Zm.5-8.95V20a2.5,2.5,0,0,0,2-2.45v-3A2.5,2.5,0,0,0,10,12.05Z"/><path class="cls-5" d="M21,21a2,2,0,0,1-2-2V13a2,2,0,0,1,4,0,.5.5,0,0,1-1,0,1,1,0,0,0-2,0v6a1,1,0,0,0,2,0,.5.5,0,0,1,1,0A2,2,0,0,1,21,21Z"/></svg>