<?xml version="1.0" ?><svg data-name="Layer 1" id="Layer_1" viewBox="0 0 32 32" xmlns="http://www.w3.org/2000/svg"><defs><style>.cls-1{fill:#ff9ed0;}.cls-2{fill:#fcc5e3;}.cls-3{fill:#fc7ec4;}.cls-4{fill:#f8edeb;}.cls-5{fill:#fec601;}.cls-6{fill:#3d405b;}</style></defs><rect class="cls-1" height="28" rx="2.5" width="20" x="6" y="2"/><path class="cls-2" d="M15,2h7a1,1,0,0,1,0,2H15a1,1,0,0,1,0-2Z"/><path class="cls-2" d="M6,13.5v-2a1,1,0,0,1,2,0v2a1,1,0,0,1-2,0Z"/><path class="cls-2" d="M6,24.5v-8a1,1,0,0,1,2,0v8a1,1,0,0,1-2,0Z"/><path class="cls-3" d="M24,20v4a4,4,0,0,1-4,4H11a1,1,0,0,0-1,1h0a1,1,0,0,0,1,1H23.5A2.5,2.5,0,0,0,26,27.5V20a1,1,0,0,0-1-1h0A1,1,0,0,0,24,20Z"/><path class="cls-4" d="M22.5,16H20V13h2.5a.5.5,0,0,0,0-1h-3a.5.5,0,0,0-.5.5v9a.5.5,0,0,0,1,0V17h2.5a.5.5,0,0,0,0-1Z"/><path class="cls-4" d="M11,13a1,1,0,0,1,1,1,.5.5,0,0,0,1,0,2,2,0,0,0-4,0v6a2,2,0,0,0,4,0V17.5a.5.5,0,0,0-.5-.5h-1a.5.5,0,0,0,0,1H12v2a1,1,0,0,1-2,0V14A1,1,0,0,1,11,13Z"/><path class="cls-4" d="M16,12a.5.5,0,0,0-.5.5v9a.5.5,0,0,0,1,0v-9A.5.5,0,0,0,16,12Z"/><path class="cls-5" d="M15.67,5.23a.69.69,0,0,0-.68,0l-1.05.52A1,1,0,0,0,13,5H10A1,1,0,0,0,9,6V8a1,1,0,0,0,1,1h3a1,1,0,0,0,.94-.72L15,8.8a.68.68,0,0,0,.31.08.7.7,0,0,0,.37-.11A.69.69,0,0,0,16,8.18V5.82A.69.69,0,0,0,15.67,5.23ZM10,8V6h3V8Zm5-.31-1-.5V6.81l1-.5Z"/><path class="cls-6" d="M23.5,2H8.5A2.5,2.5,0,0,0,6,4.5v23A2.5,2.5,0,0,0,8.5,30h15A2.5,2.5,0,0,0,26,27.5V4.5A2.5,2.5,0,0,0,23.5,2ZM25,27.5A1.5,1.5,0,0,1,23.5,29H8.5A1.5,1.5,0,0,1,7,27.5V4.5A1.5,1.5,0,0,1,8.5,3h15A1.5,1.5,0,0,1,25,4.5Z"/></svg>