<?xml version="1.0" ?><svg data-name="Layer 1" id="Layer_1" viewBox="0 0 32 32" xmlns="http://www.w3.org/2000/svg"><defs><style>.cls-1{fill:#f9dcc4;}.cls-2{fill:#fff2e9;}.cls-3{fill:#edbe9d;}.cls-4{fill:#ef6351;}.cls-5{fill:#f8edeb;}.cls-6{fill:#db5252;}.cls-7{fill:#ef877f;}.cls-8{fill:#3d405b;}</style></defs><rect class="cls-1" height="28" rx="2.5" width="20" x="6" y="2"/><path class="cls-2" d="M15,2h7a1,1,0,0,1,0,2H15a1,1,0,0,1,0-2Z"/><path class="cls-2" d="M6,13.5v-2a1,1,0,0,1,2,0v2a1,1,0,0,1-2,0Z"/><path class="cls-2" d="M6,24.5v-8a1,1,0,0,1,2,0v8a1,1,0,0,1-2,0Z"/><path class="cls-3" d="M24,20v4a4,4,0,0,1-4,4H11a1,1,0,0,0-1,1h0a1,1,0,0,0,1,1H23.5A2.5,2.5,0,0,0,26,27.5V20a1,1,0,0,0-1-1h0A1,1,0,0,0,24,20Z"/><rect class="cls-4" height="7" rx="1.5" width="10" x="9" y="15"/><circle class="cls-5" cx="14" cy="18" r="1"/><path class="cls-6" d="M17,22H15a1,1,0,0,1,0-2h2a1,1,0,0,1,0,2Z"/><path class="cls-7" d="M11,15h1a1,1,0,0,1,0,2H11a1,1,0,0,1,0-2Z"/><path class="cls-8" d="M23.5,2H8.5A2.5,2.5,0,0,0,6,4.5v23A2.5,2.5,0,0,0,8.5,30h15A2.5,2.5,0,0,0,26,27.5V4.5A2.5,2.5,0,0,0,23.5,2ZM25,27.5A1.5,1.5,0,0,1,23.5,29H8.5A1.5,1.5,0,0,1,7,27.5V4.5A1.5,1.5,0,0,1,8.5,3H21V4.5a.5.5,0,0,0,1,0V3h1.5A1.5,1.5,0,0,1,25,4.5Z"/><path class="cls-8" d="M18,15.09V13a4,4,0,0,0-8,0v2.09A1.51,1.51,0,0,0,9,16.5v4A1.5,1.5,0,0,0,10.5,22h7A1.5,1.5,0,0,0,19,20.5v-4A1.51,1.51,0,0,0,18,15.09ZM14,10a3,3,0,0,1,3,3v2H11V13A3,3,0,0,1,14,10Zm4,10.5a.5.5,0,0,1-.5.5h-7a.5.5,0,0,1-.5-.5v-4a.5.5,0,0,1,.5-.5h7a.5.5,0,0,1,.5.5Z"/><path class="cls-8" d="M21.5,26a.5.5,0,0,0-.5.5v1a.5.5,0,0,0,1,0v-1A.5.5,0,0,0,21.5,26Z"/><path class="cls-8" d="M21.5,22a.5.5,0,0,0-.5.5v2a.5.5,0,0,0,1,0v-2A.5.5,0,0,0,21.5,22Z"/><path class="cls-8" d="M21.5,10a.5.5,0,0,0-.5.5v2a.5.5,0,0,0,1,0v-2A.5.5,0,0,0,21.5,10Z"/><path class="cls-8" d="M21.5,6a.5.5,0,0,0-.5.5v2a.5.5,0,0,0,1,0v-2A.5.5,0,0,0,21.5,6Z"/><path class="cls-8" d="M21.5,14a.5.5,0,0,0-.5.5v2a.5.5,0,0,0,1,0v-2A.5.5,0,0,0,21.5,14Z"/><path class="cls-8" d="M21.5,18a.5.5,0,0,0-.5.5v2a.5.5,0,0,0,1,0v-2A.5.5,0,0,0,21.5,18Z"/></svg>