<?xml version="1.0" ?><svg data-name="Layer 1" id="Layer_1" viewBox="0 0 32 32" xmlns="http://www.w3.org/2000/svg"><defs><style>.cls-1{fill:#8d6a9f;}.cls-2{fill:#a788bc;}.cls-3{fill:#825b99;}.cls-4{fill:#f8edeb;}.cls-5{fill:#fec601;}.cls-6{fill:#3d405b;}</style></defs><rect class="cls-1" height="28" rx="2.5" width="20" x="6" y="2"/><path class="cls-2" d="M15,2h7a1,1,0,0,1,0,2H15a1,1,0,0,1,0-2Z"/><path class="cls-2" d="M6,13.5v-2a1,1,0,0,1,2,0v2a1,1,0,0,1-2,0Z"/><path class="cls-2" d="M6,24.5v-8a1,1,0,0,1,2,0v8a1,1,0,0,1-2,0Z"/><path class="cls-3" d="M24,20v4a4,4,0,0,1-4,4H11a1,1,0,0,0-1,1h0a1,1,0,0,0,1,1H23.5A2.5,2.5,0,0,0,26,27.5V20a1,1,0,0,0-1-1h0A1,1,0,0,0,24,20Z"/><path class="cls-4" d="M15.5,11h-1a.5.5,0,0,0-.5.5v9a.5.5,0,0,0,.5.5h1A2.5,2.5,0,0,0,18,18.5v-5A2.5,2.5,0,0,0,15.5,11ZM17,18.5A1.5,1.5,0,0,1,15.5,20H15V12h.5A1.5,1.5,0,0,1,17,13.5Z"/><path class="cls-4" d="M12.57,11a.49.49,0,0,0-.55.35l-1,3.4-1-3.4A.49.49,0,0,0,9.43,11,.49.49,0,0,0,9,11.5v9a.5.5,0,0,0,1,0V14.91l.52,1.73a.52.52,0,0,0,1,0L12,14.91V20.5a.5.5,0,0,0,1,0v-9A.49.49,0,0,0,12.57,11Z"/><path class="cls-4" d="M20.5,11h-1a.5.5,0,0,0-.5.5v9a.5.5,0,0,0,.5.5h1A2.5,2.5,0,0,0,23,18.5v-5A2.5,2.5,0,0,0,20.5,11ZM22,18.5A1.5,1.5,0,0,1,20.5,20H20V12h.5A1.5,1.5,0,0,1,22,13.5Z"/><path class="cls-5" d="M9.5,6h1a.5.5,0,0,0,0-1h-1a.5.5,0,0,0,0,1Z"/><path class="cls-5" d="M12.5,6a.5.5,0,0,0,.35-.85.5.5,0,0,0-.7,0A.5.5,0,0,0,12.5,6Z"/><path class="cls-5" d="M12.5,6.5h-3a.5.5,0,0,0,0,1h3a.5.5,0,0,0,0-1Z"/><path class="cls-5" d="M12.5,8h-3a.5.5,0,0,0,0,1h3a.5.5,0,0,0,0-1Z"/><path class="cls-6" d="M23.5,2H8.5A2.5,2.5,0,0,0,6,4.5v23A2.5,2.5,0,0,0,8.5,30h15A2.5,2.5,0,0,0,26,27.5V4.5A2.5,2.5,0,0,0,23.5,2ZM25,27.5A1.5,1.5,0,0,1,23.5,29H8.5A1.5,1.5,0,0,1,7,27.5V4.5A1.5,1.5,0,0,1,8.5,3h15A1.5,1.5,0,0,1,25,4.5Z"/></svg>