<?xml version="1.0" ?><svg data-name="Layer 1" id="Layer_1" viewBox="0 0 32 32" xmlns="http://www.w3.org/2000/svg"><defs><style>.cls-1{fill:#fff0d3;}.cls-2{fill:#fffaf0;}.cls-3{fill:#fce1b1;}.cls-4{fill:#3d405b;}.cls-5{fill:#fec601;}</style></defs><rect class="cls-1" height="28" rx="2.5" width="20" x="6" y="2"/><path class="cls-2" d="M15,2h7a1,1,0,0,1,0,2H15a1,1,0,0,1,0-2Z"/><path class="cls-2" d="M6,13.5v-2a1,1,0,0,1,2,0v2a1,1,0,0,1-2,0Z"/><path class="cls-2" d="M6,24.5v-8a1,1,0,0,1,2,0v8a1,1,0,0,1-2,0Z"/><path class="cls-3" d="M24,20v4a4,4,0,0,1-4,4H11a1,1,0,0,0-1,1h0a1,1,0,0,0,1,1H23.5A2.5,2.5,0,0,0,26,27.5V20a1,1,0,0,0-1-1h0A1,1,0,0,0,24,20Z"/><path class="cls-4" d="M12.57,12a.52.52,0,0,0-.55.36l-1,3.4-1-3.4A.52.52,0,0,0,9.43,12a.51.51,0,0,0-.43.5v9a.5.5,0,0,0,1,0V15.91l.52,1.73a.52.52,0,0,0,1,0L12,15.91V21.5a.5.5,0,0,0,1,0v-9A.51.51,0,0,0,12.57,12Z"/><path class="cls-4" d="M16.5,12h-2a.5.5,0,0,0-.5.5v9a.5.5,0,0,0,1,0V18h1.5A1.5,1.5,0,0,0,18,16.5v-3A1.5,1.5,0,0,0,16.5,12Zm.5,4.5a.5.5,0,0,1-.5.5H15V13h1.5a.5.5,0,0,1,.5.5Z"/><path class="cls-4" d="M22.5,12a.5.5,0,0,0-.5.5v5H20.1L21,12.59a.5.5,0,0,0-.4-.58.51.51,0,0,0-.58.4l-1,5.5a.47.47,0,0,0,.11.41.49.49,0,0,0,.38.18H22v3a.5.5,0,0,0,1,0v-9A.5.5,0,0,0,22.5,12Z"/><path class="cls-5" d="M14.92,5.22a.5.5,0,0,0-.84.56,2,2,0,0,1,0,2.44.51.51,0,0,0,.14.7A.57.57,0,0,0,14.5,9a.52.52,0,0,0,.42-.22A3,3,0,0,0,14.92,5.22Z"/><path class="cls-5" d="M12.14,5.67a.5.5,0,0,0,0,.71.84.84,0,0,1,.27.62.87.87,0,0,1-.27.64.5.5,0,0,0,.35.86.52.52,0,0,0,.35-.14A1.88,1.88,0,0,0,13.42,7a1.85,1.85,0,0,0-.57-1.34A.5.5,0,0,0,12.14,5.67Z"/><circle class="cls-5" cx="10" cy="7" r="1"/><path class="cls-4" d="M23.5,2H8.5A2.5,2.5,0,0,0,6,4.5v23A2.5,2.5,0,0,0,8.5,30h15A2.5,2.5,0,0,0,26,27.5V4.5A2.5,2.5,0,0,0,23.5,2ZM25,27.5A1.5,1.5,0,0,1,23.5,29H8.5A1.5,1.5,0,0,1,7,27.5V4.5A1.5,1.5,0,0,1,8.5,3h15A1.5,1.5,0,0,1,25,4.5Z"/></svg>