<?xml version="1.0" ?><svg data-name="Layer 1" id="Layer_1" viewBox="0 0 32 32" xmlns="http://www.w3.org/2000/svg"><defs><style>.cls-1{fill:#f9dcc4;}.cls-2{fill:#ef6461;}.cls-3{fill:#db5252;}.cls-4{fill:#3d405b;}.cls-5{fill:#ef877f;}.cls-6{fill:#edbe9d;}.cls-7{fill:#fff2e9;}</style></defs><rect class="cls-1" height="28" rx="2.5" width="20" x="6" y="2"/><path class="cls-2" d="M26.5,25H5.5a.5.5,0,0,0-.5.5v2A2.5,2.5,0,0,0,7.5,30h17A2.5,2.5,0,0,0,27,27.5v-2A.5.5,0,0,0,26.5,25Z"/><path class="cls-3" d="M17,30H8a1,1,0,0,1,0-2h9a1,1,0,0,1,0,2Z"/><path class="cls-2" d="M24.5,2H7.5A2.5,2.5,0,0,0,5,4.5v2a.5.5,0,0,0,.5.5h21a.5.5,0,0,0,.5-.5v-2A2.5,2.5,0,0,0,24.5,2Z"/><path class="cls-4" d="M18.5,6h-2a.5.5,0,0,0,0,1h2a.5.5,0,0,0,0-1Z"/><path class="cls-4" d="M22.5,6h-2a.5.5,0,0,0,0,1h2a.5.5,0,0,0,0-1Z"/><path class="cls-4" d="M11,6.5a.5.5,0,0,0-.5-.5h-2a.5.5,0,0,0,0,1h2A.5.5,0,0,0,11,6.5Z"/><path class="cls-4" d="M14.5,6h-2a.5.5,0,0,0,0,1h2a.5.5,0,0,0,0-1Z"/><path class="cls-4" d="M11.5,11h-2a.5.5,0,0,0-.5.5v9a.5.5,0,0,0,1,0V17h1.11l.9,3.62a.51.51,0,0,0,.49.38h.12a.51.51,0,0,0,.37-.61l-.88-3.51A1.51,1.51,0,0,0,13,15.5v-3A1.5,1.5,0,0,0,11.5,11ZM10,12h1.5a.5.5,0,0,1,.5.5v3a.5.5,0,0,1-.5.5H10Z"/><path class="cls-4" d="M16,11a.5.5,0,0,0-.49.42l-1.5,9a.49.49,0,0,0,.41.57.5.5,0,0,0,.57-.41L15.26,19h1.48L17,20.58a.49.49,0,0,0,.49.42h.08a.49.49,0,0,0,.41-.57l-1.5-9A.5.5,0,0,0,16,11Zm-.58,7L16,14.54,16.58,18Z"/><path class="cls-4" d="M21.5,11h-2a.5.5,0,0,0-.5.5v9a.5.5,0,0,0,1,0V17h1.11l.9,3.62a.51.51,0,0,0,.49.38h.12a.51.51,0,0,0,.37-.61l-.88-3.51A1.51,1.51,0,0,0,23,15.5v-3A1.5,1.5,0,0,0,21.5,11ZM20,12h1.5a.5.5,0,0,1,.5.5v3a.5.5,0,0,1-.5.5H20Z"/><path class="cls-5" d="M18,4H9A1,1,0,0,1,9,2h9a1,1,0,0,1,0,2Z"/><path class="cls-5" d="M24,4H22a1,1,0,0,1,0-2h2a1,1,0,0,1,0,2Z"/><path class="cls-6" d="M24,16v4a4,4,0,0,1-4,4H11a1,1,0,0,0-1,1h0a1,1,0,0,0,1,1H23.5A2.5,2.5,0,0,0,26,23.5V16a1,1,0,0,0-1-1h0A1,1,0,0,0,24,16Z"/><path class="cls-7" d="M6,11V9A1,1,0,0,1,8,9v2a1,1,0,0,1-2,0Z"/><path class="cls-4" d="M26.5,7a.5.5,0,0,0,.5-.5v-2A2.5,2.5,0,0,0,24.5,2H7.5A2.5,2.5,0,0,0,5,4.5v2a.5.5,0,0,0,.5.5H6V25H5.5a.5.5,0,0,0-.5.5v2A2.5,2.5,0,0,0,7.5,30h17A2.5,2.5,0,0,0,27,27.5v-2a.5.5,0,0,0-.5-.5H26V7ZM26,27.5A1.5,1.5,0,0,1,24.5,29H7.5A1.5,1.5,0,0,1,6,27.5V26H26ZM25,25H7V6.5A.5.5,0,0,0,6.5,6H6V4.5A1.5,1.5,0,0,1,7.5,3h17A1.5,1.5,0,0,1,26,4.5V6H24.5a.5.5,0,0,0,0,1H25Z"/></svg>