<?xml version="1.0" ?><svg data-name="Layer 1" id="Layer_1" viewBox="0 0 32 32" xmlns="http://www.w3.org/2000/svg"><defs><style>.cls-1{fill:#fff0d3;}.cls-2{fill:#fffaf0;}.cls-3{fill:#fce1b1;}.cls-4{fill:#fec601;}.cls-5{fill:#3d405b;}</style></defs><rect class="cls-1" height="28" rx="2.5" width="20" x="6" y="2"/><path class="cls-2" d="M15,2h7a1,1,0,0,1,0,2H15a1,1,0,0,1,0-2Z"/><path class="cls-2" d="M6,13.5v-2a1,1,0,0,1,2,0v2a1,1,0,0,1-2,0Z"/><path class="cls-2" d="M6,24.5v-8a1,1,0,0,1,2,0v8a1,1,0,0,1-2,0Z"/><path class="cls-3" d="M24,20v4a4,4,0,0,1-4,4H11a1,1,0,0,0-1,1h0a1,1,0,0,0,1,1H23.5A2.5,2.5,0,0,0,26,27.5V20a1,1,0,0,0-1-1h0A1,1,0,0,0,24,20Z"/><path class="cls-4" d="M14.92,5.22a.5.5,0,0,0-.84.56,2,2,0,0,1,0,2.44.51.51,0,0,0,.14.7A.57.57,0,0,0,14.5,9a.52.52,0,0,0,.42-.22A3,3,0,0,0,14.92,5.22Z"/><path class="cls-4" d="M12.14,5.67a.5.5,0,0,0,0,.71.84.84,0,0,1,.27.62.87.87,0,0,1-.27.64.5.5,0,0,0,.35.86.52.52,0,0,0,.35-.14A1.88,1.88,0,0,0,13.42,7a1.85,1.85,0,0,0-.57-1.34A.5.5,0,0,0,12.14,5.67Z"/><circle class="cls-4" cx="10" cy="7" r="1"/><path class="cls-5" d="M23.5,2H8.5A2.5,2.5,0,0,0,6,4.5v23A2.5,2.5,0,0,0,8.5,30h15A2.5,2.5,0,0,0,26,27.5V4.5A2.5,2.5,0,0,0,23.5,2ZM25,27.5A1.5,1.5,0,0,1,23.5,29H8.5A1.5,1.5,0,0,1,7,27.5V4.5A1.5,1.5,0,0,1,8.5,3h15A1.5,1.5,0,0,1,25,4.5Z"/><path class="cls-5" d="M12.5,22a.5.5,0,0,1-.49-.38l-1-4.06-1,4.06a.5.5,0,0,1-.55.38A.51.51,0,0,1,9,21.5v-9a.5.5,0,0,1,1,0v4.94l.51-2.06a.52.52,0,0,1,1,0L12,17.44V12.5a.5.5,0,0,1,1,0v9a.51.51,0,0,1-.44.5Z"/><path class="cls-5" d="M21,22a.5.5,0,0,1-.49-.42l-1.5-9a.5.5,0,1,1,1-.16l1,6,1-6a.5.5,0,1,1,1,.16l-1.5,9A.5.5,0,0,1,21,22Z"/><path class="cls-5" d="M16,12a.5.5,0,0,0-.49.42l-1.5,9a.49.49,0,0,0,.41.57.5.5,0,0,0,.57-.41L15.26,20h1.48L17,21.58a.49.49,0,0,0,.49.42h.08a.49.49,0,0,0,.41-.57l-1.5-9A.5.5,0,0,0,16,12Zm-.58,7L16,15.54,16.58,19Z"/></svg>