<?xml version="1.0" ?><!DOCTYPE svg  PUBLIC '-//W3C//DTD SVG 1.1//EN'  'http://www.w3.org/Graphics/SVG/1.1/DTD/svg11.dtd'><svg enable-background="new 0 0 128 128" id="Social_Icons" version="1.1" viewBox="0 0 128 128" xml:space="preserve" xmlns="http://www.w3.org/2000/svg" xmlns:xlink="http://www.w3.org/1999/xlink"><g id="_x36__stroke"><g id="Codepen"><rect clip-rule="evenodd" fill="none" fill-rule="evenodd" height="128" width="128"/><path clip-rule="evenodd" d="M117,73.204L103.24,64L117,54.796V73.204z     M69.5,112.22V86.568L93.348,70.62l19.248,12.872L69.5,112.22z M64,77.012L44.548,64L64,50.988L83.456,64L64,77.012z M58.5,112.22    L15.404,83.492L34.656,70.62L58.5,86.568V112.22z M11,54.796L24.764,64L11,73.204V54.796z M58.5,15.78v25.652L34.656,57.384    L15.404,44.508L58.5,15.78z M69.5,15.78l43.096,28.728L93.348,57.384L69.5,41.432V15.78z M127.952,43.784    c-0.012-0.084-0.032-0.16-0.044-0.24c-0.028-0.156-0.056-0.312-0.096-0.46c-0.024-0.092-0.06-0.18-0.088-0.268    c-0.044-0.136-0.088-0.268-0.14-0.4c-0.036-0.092-0.08-0.184-0.124-0.268c-0.056-0.128-0.116-0.248-0.188-0.364    c-0.048-0.088-0.104-0.172-0.156-0.256c-0.072-0.116-0.148-0.228-0.232-0.336c-0.06-0.08-0.124-0.16-0.188-0.236    c-0.088-0.104-0.18-0.204-0.276-0.3c-0.072-0.072-0.14-0.148-0.216-0.212c-0.104-0.092-0.208-0.18-0.312-0.264    c-0.084-0.064-0.164-0.128-0.248-0.188c-0.032-0.02-0.06-0.048-0.092-0.068l-58.5-39c-1.848-1.232-4.252-1.232-6.104,0l-58.496,39    c-0.032,0.02-0.06,0.048-0.092,0.068c-0.088,0.06-0.168,0.124-0.248,0.188C2.004,40.264,1.9,40.352,1.8,40.444    c-0.076,0.064-0.148,0.14-0.22,0.212c-0.096,0.096-0.188,0.196-0.272,0.3c-0.068,0.076-0.132,0.156-0.192,0.236    c-0.08,0.108-0.156,0.22-0.228,0.336c-0.056,0.084-0.108,0.168-0.16,0.256C0.66,41.9,0.6,42.02,0.54,42.148    c-0.04,0.084-0.084,0.176-0.12,0.268c-0.056,0.132-0.1,0.264-0.144,0.4c-0.028,0.088-0.06,0.176-0.084,0.268    c-0.04,0.148-0.068,0.304-0.096,0.46c-0.016,0.08-0.036,0.156-0.044,0.24C0.02,44.016,0,44.256,0,44.5v39    c0,0.24,0.02,0.48,0.052,0.72c0.008,0.076,0.028,0.156,0.044,0.236c0.028,0.156,0.056,0.308,0.096,0.46    c0.024,0.092,0.056,0.18,0.084,0.268c0.044,0.132,0.088,0.268,0.144,0.404c0.036,0.088,0.08,0.176,0.12,0.264    c0.06,0.124,0.12,0.244,0.188,0.368c0.052,0.084,0.104,0.168,0.16,0.252c0.072,0.116,0.148,0.224,0.228,0.332    c0.06,0.084,0.124,0.164,0.192,0.24c0.084,0.1,0.176,0.204,0.272,0.296c0.072,0.076,0.144,0.148,0.22,0.216    c0.1,0.092,0.204,0.18,0.312,0.264c0.08,0.064,0.16,0.128,0.248,0.188c0.032,0.02,0.06,0.048,0.092,0.068l58.496,39    C61.872,127.692,62.936,128,64,128s2.128-0.308,3.052-0.924l58.5-39c0.032-0.02,0.06-0.048,0.092-0.068    c0.084-0.06,0.164-0.124,0.248-0.188c0.104-0.084,0.208-0.172,0.312-0.264c0.076-0.068,0.144-0.14,0.216-0.216    c0.096-0.092,0.188-0.196,0.276-0.296c0.064-0.076,0.128-0.156,0.188-0.24c0.084-0.108,0.16-0.216,0.232-0.332    c0.052-0.084,0.108-0.168,0.156-0.252c0.072-0.124,0.132-0.244,0.188-0.368c0.044-0.088,0.088-0.176,0.124-0.264    c0.052-0.136,0.096-0.272,0.14-0.404c0.028-0.088,0.064-0.176,0.088-0.268c0.04-0.152,0.068-0.304,0.096-0.46    c0.012-0.08,0.032-0.16,0.044-0.236c0.032-0.24,0.048-0.48,0.048-0.72v-39C128,44.256,127.984,44.016,127.952,43.784z" fill="#0B0B0A" fill-rule="evenodd" id="Codepen_1_"/></g></g></svg>