<?xml version="1.0" ?><svg height="121px" version="1.1" viewBox="0 0 121 121" width="121px" xmlns="http://www.w3.org/2000/svg" xmlns:sketch="http://www.bohemiancoding.com/sketch/ns" xmlns:xlink="http://www.w3.org/1999/xlink"><title/><defs/><g fill="none" fill-rule="evenodd" id="circle" stroke="none" stroke-width="1"><g id="2co" transform="translate(10.000000, 10.000000)"><circle cx="50" cy="50" d="M50,100 C77.6142389,100 100,77.6142389 100,50 C100,22.3857611 77.6142389,0 50,0 C22.3857611,0 0,22.3857611 0,50 C0,77.6142389 22.3857611,100 50,100 Z M50,100" fill="#306FC5" id="Oval-2" r="50"/><path d="M62.5,59.7474401 L62.5,65.7873383 C61.7041798,66.2857615 60.8541812,66.7244508 59.95,67.1034091 C57.7863528,68.0102318 55.415922,68.4636364 52.8386364,68.4636364 C50.2613507,68.4636364 47.8909199,68.0102318 45.7272727,67.1034091 C43.5636255,66.1965864 41.710235,64.9477352 40.1670455,63.3568182 C38.6238559,61.7659011 37.4147771,59.8886472 36.5397727,57.725 C35.6647684,55.5613528 35.2272727,53.2227398 35.2272727,50.7090909 C35.2272727,48.195442 35.6647684,45.856829 36.5397727,43.6931818 C37.4147771,41.5295346 38.6238559,39.6522807 40.1670455,38.0613636 C41.710235,36.4704466 43.5636255,35.2215954 45.7272727,34.3147727 C47.8909199,33.40795 50.2613507,32.9545455 52.8386364,32.9545455 C55.415922,32.9545455 57.7863528,33.40795 59.95,34.3147727 C60.8541812,34.693731 61.7041798,35.1324203 62.5,35.6308435 L62.5,35.6308435 L62.5,41.6707417 C62.369818,41.514318 62.2357271,41.361192 62.0977273,41.2113636 C60.9840853,40.0022667 59.6477351,39.0397763 58.0886364,38.3238636 C56.5295377,37.607951 54.7795552,37.25 52.8386364,37.25 C50.8977176,37.25 49.1477351,37.607951 47.5886364,38.3238636 C46.0295377,39.0397763 44.6931874,40.0022667 43.5795455,41.2113636 C42.4659035,42.4204606 41.6068212,43.84431 41.0022727,45.4829545 C40.3977242,47.1215991 40.0954545,48.8636271 40.0954545,50.7090909 C40.0954545,52.5545547 40.3977242,54.2965827 41.0022727,55.9352273 C41.6068212,57.5738718 42.4659035,58.9977212 43.5795455,60.2068182 C44.6931874,61.4159151 46.0295377,62.3784055 47.5886364,63.0943182 C49.1477351,63.8102309 50.8977176,64.1681818 52.8386364,64.1681818 C52.8386364,64.1681818 50.8977176,64.1681818 52.8386364,64.1681818 C54.7795552,64.1681818 56.5295377,63.8102309 58.0886364,63.0943182 C59.6477351,62.3784055 60.9840853,61.4159151 62.0977273,60.2068182 C62.2357271,60.0569898 62.369818,59.9038638 62.5,59.7474401 L62.5,59.7474401 Z M10.2272727,62.7363636 L23.7818182,49.2772727 C24.2590933,48.831816 24.7204523,48.3465935 25.1659091,47.8215909 C25.6113659,47.2965883 26.0090892,46.7477301 26.3590909,46.175 C26.7090927,45.6022699 26.987499,44.9977305 27.1943182,44.3613636 C27.4011374,43.7249968 27.5045455,43.0568217 27.5045455,42.3568182 C27.5045455,41.5295413 27.3534106,40.7818215 27.0511364,40.1136364 C26.7488621,39.4454512 26.3352299,38.8806841 25.8102273,38.4193182 C25.2852246,37.9579522 24.6647763,37.6000013 23.9488636,37.3454545 C23.232951,37.0909078 22.4772767,36.9636364 21.6818182,36.9636364 C20.0272645,36.9636364 18.6590963,37.4249954 17.5772727,38.3477273 C16.4954491,39.2704592 15.8113651,40.5431737 15.525,42.1659091 L10.5613636,41.7363636 C10.784092,40.2409016 11.2215876,38.9443237 11.8738636,37.8465909 C12.5261396,36.7488581 13.3374951,35.8340946 14.3079545,35.1022727 C15.2784139,34.3704509 16.3920392,33.8295472 17.6488636,33.4795455 C18.9056881,33.1295437 20.2659018,32.9545455 21.7295455,32.9545455 C23.1931891,32.9545455 24.5693117,33.1534071 25.8579545,33.5511364 C27.1465974,33.9488656 28.2761315,34.5374961 29.2465909,35.3170455 C30.2170503,36.0965948 30.980679,37.0670396 31.5375,38.2284091 C32.094321,39.3897785 32.3727273,40.7499922 32.3727273,42.3090909 C32.3727273,43.4227328 32.2056835,44.4647679 31.8715909,45.4352273 C31.5374983,46.4056867 31.1000027,47.3204502 30.5590909,48.1795455 C30.0181791,49.0386407 29.3977308,49.8499962 28.6977273,50.6136364 C27.9977238,51.3772765 27.2659129,52.1249963 26.5022727,52.8568182 L15.3818182,63.5954545 L32.3727273,63.5954545 L32.3727273,67.6045455 L10.2272727,67.6045455 L10.2272727,62.7363636 Z M82.3409091,68.4636364 C79.7636235,68.4636364 77.3931926,68.0102318 75.2295455,67.1034091 C73.0658983,66.1965864 71.2125077,64.9477352 69.6693182,63.3568182 C68.1261286,61.7659011 66.9170498,59.8886472 66.0420455,57.725 C65.1670411,55.5613528 64.7295455,53.2227398 64.7295455,50.7090909 C64.7295455,48.195442 65.1670411,45.856829 66.0420455,43.6931818 C66.9170498,41.5295346 68.1261286,39.6522807 69.6693182,38.0613636 C71.2125077,36.4704466 73.0658983,35.2215954 75.2295455,34.3147727 C77.3931926,33.40795 79.7636235,32.9545455 82.3409091,32.9545455 C84.9181947,32.9545455 87.2886255,33.40795 89.4522727,34.3147727 C91.6159199,35.2215954 93.4693105,36.4704466 95.0125,38.0613636 C96.5556895,39.6522807 97.7647684,41.5295346 98.6397727,43.6931818 C99.5147771,45.856829 99.9522727,48.195442 99.9522727,50.7090909 C99.9522727,53.2227398 99.5147771,55.5613528 98.6397727,57.725 C97.7647684,59.8886472 96.5556895,61.7659011 95.0125,63.3568182 C93.4693105,64.9477352 91.6159199,66.1965864 89.4522727,67.1034091 C87.2886255,68.0102318 84.9181947,68.4636364 82.3409091,68.4636364 Z M82.3409091,64.1681818 C84.2818279,64.1681818 86.0318104,63.8102309 87.5909091,63.0943182 C89.1500078,62.3784055 90.4863581,61.4159151 91.6,60.2068182 C92.7136419,58.9977212 93.5727243,57.5738718 94.1772727,55.9352273 C94.7818212,54.2965827 95.0840909,52.5545547 95.0840909,50.7090909 C95.0840909,48.8636271 94.7818212,47.1215991 94.1772727,45.4829545 C93.5727243,43.84431 92.7136419,42.4204606 91.6,41.2113636 C90.4863581,40.0022667 89.1500078,39.0397763 87.5909091,38.3238636 C86.0318104,37.607951 84.2818279,37.25 82.3409091,37.25 C80.3999903,37.25 78.6500078,37.607951 77.0909091,38.3238636 C75.5318104,39.0397763 74.1954601,40.0022667 73.0818182,41.2113636 C71.9681762,42.4204606 71.1090939,43.84431 70.5045455,45.4829545 C69.899997,47.1215991 69.5977273,48.8636271 69.5977273,50.7090909 C69.5977273,52.5545547 69.899997,54.2965827 70.5045455,55.9352273 C71.1090939,57.5738718 71.9681762,58.9977212 73.0818182,60.2068182 C74.1954601,61.4159151 75.5318104,62.3784055 77.0909091,63.0943182 C78.6500078,63.8102309 80.3999903,64.1681818 82.3409091,64.1681818 C82.3409091,64.1681818 80.3999903,64.1681818 82.3409091,64.1681818 Z M82.3409091,64.1681818" fill="#FFFFFF" id="2CO"/></g></g></svg>