<?xml version="1.0" ?><svg height="32px" version="1.1" viewBox="0 0 32 32" width="32px" xmlns="http://www.w3.org/2000/svg" xmlns:xlink="http://www.w3.org/1999/xlink"><title/><desc/><defs/><g fill="none" fill-rule="evenodd" id="Circle" stroke="none" stroke-width="1"><g id="amazon"><circle cx="16" cy="16" fill="#F4F4F4" id="Oval-2" r="16"/><g id="Group-2" transform="translate(7.000000, 4.000000)"><path d="M15.8695372,21.4215308 C14.0052183,22.7602062 11.3030018,23.4744379 8.97644382,23.4744379 C5.71423413,23.4744379 2.77740831,22.2990165 0.555586044,20.3440616 C0.381024609,20.1903308 0.537431037,19.9808236 0.746905824,20.1005418 C3.14468512,21.4596236 6.10944258,22.2772494 9.17195359,22.2772494 C11.2373667,22.2772494 13.5094624,21.8609535 15.5986172,20.9970733 C15.914225,20.8664703 16.1781622,21.1984185 15.8695372,21.4215308" fill="#E87E04" id="path8"/><path d="M16.6445919,20.5576507 C16.407187,20.2610745 15.0693463,20.4175255 14.4688541,20.4869081 C14.2859127,20.5086751 14.2579837,20.3535848 14.4227691,20.2420276 C15.4882943,19.5114707 17.2367051,19.7223391 17.4405933,19.9672185 C17.6444803,20.2134591 17.3875265,21.9208139 16.3862398,22.7357174 C16.2326256,22.860878 16.0859937,22.7942172 16.1544226,22.6282425 C16.3792575,22.0813451 16.8833923,20.8555875 16.6445919,20.5576507" fill="#E87E04" id="path10"/><path d="M10.8614327,10.5965312 C10.8614327,11.8827413 10.8947944,12.9553577 10.2274998,14.0976257 C9.68889218,15.0263 8.83570533,15.5974331 7.88242267,15.5974331 C6.58119186,15.5974331 5.82333381,14.631611 5.82333381,13.2060993 C5.82333381,10.3922235 8.41149448,9.88145429 10.8614327,9.88145429 L10.8614327,10.5965312 M14.278949,18.6434748 C14.0549279,18.8384964 13.7308092,18.8524264 13.4781899,18.7224143 C12.3533194,17.8123157 12.1531278,17.3897703 11.5334941,16.5214617 C9.67459304,18.3695189 8.35906673,18.9220763 5.94725908,18.9220763 C3.09694327,18.9220763 0.875798704,17.2086769 0.875798704,13.7772359 C0.875798704,11.0980144 2.36768532,9.27317333 4.48873773,8.38164865 C6.32857251,7.59227427 8.89766887,7.45297614 10.8614327,7.23473845 L10.8614327,6.80754913 C10.8614327,6.02281868 10.9233963,5.09414618 10.451521,4.41621881 C10.0368403,3.80793608 9.24561885,3.55719448 8.54972071,3.55719448 C7.25802569,3.55719448 6.10455144,4.20262149 5.82333381,5.5399094 C5.76613543,5.83708666 5.54211436,6.12961822 5.23706544,6.14354821 L1.94824146,5.79993707 C1.671789,5.73957673 1.36673826,5.52133549 1.44300095,5.10807971 C2.20086081,1.22622981 5.7995007,0.056100013 9.02159778,0.056100013 C10.6707733,0.056100013 12.825191,0.483289329 14.1264218,1.69984948 C15.7756026,3.19965512 15.6183084,5.20094395 15.6183084,7.37868227 L15.6183084,12.5235262 C15.6183084,14.0697675 16.2760761,14.7476949 16.8957097,15.5835031 C17.1149638,15.8806751 17.1626282,16.2382144 16.8861758,16.4610961 C16.1950464,17.0229449 14.9653131,18.0677012 14.2884793,18.6527644 L14.278949,18.6434659" fill="#221F1F" id="path30"/></g></g></g></svg>