<?xml version="1.0" ?><svg height="121px" version="1.1" viewBox="0 0 121 121" width="121px" xmlns="http://www.w3.org/2000/svg" xmlns:sketch="http://www.bohemiancoding.com/sketch/ns" xmlns:xlink="http://www.w3.org/1999/xlink"><title/><defs><circle cx="50" cy="50" id="path-1" r="50"/><mask fill="white" id="mask-2"><use xlink:href="#path-1"/></mask></defs><g fill="none" fill-rule="evenodd" id="circle" stroke="none" stroke-width="1"><g id="american_express" transform="translate(10.000000, 10.000000)"><use fill="#316FC5" id="Oval-3" xlink:href="#path-1"/><path d="M9.01631202,42.3043628 L7.09207529,37.6154549 L5.17883623,42.3043628 L9.01631202,42.3043628 Z M51.4069917,40.437243 C51.0206543,40.6717416 50.5637191,40.6795464 50.0163191,40.6795464 L46.6010118,40.6795464 L46.6010118,38.0670687 L50.0627931,38.0670687 C50.5527214,38.0670687 51.0639355,38.089064 51.395994,38.2792172 C51.7606908,38.4505679 51.9863203,38.8152647 51.9863203,39.3190288 C51.9863203,39.8330809 51.7716885,40.2467351 51.4069917,40.437243 C51.4069917,40.437243 51.7716885,40.2467351 51.4069917,40.437243 L51.4069917,40.437243 L51.4069917,40.437243 Z M75.771433,42.3043628 L73.8259105,37.6154549 L71.8910309,42.3043628 L75.771433,42.3043628 L75.771433,42.3043628 L75.771433,42.3043628 L75.771433,42.3043628 Z M30.3546215,47.3796082 L27.4725236,47.3796082 L27.4618807,38.1678215 L23.3852943,47.3796082 L20.9168506,47.3796082 L16.8296213,38.1596619 L16.8296213,47.3796082 L11.1115447,47.3796082 L10.0312901,44.7561328 L4.1776939,44.7561328 L3.08644165,47.3796082 L0.032992997,47.3796082 L5.06744052,35.6177821 L9.24442489,35.6177821 L14.0259261,46.7538055 L14.0259261,35.6177821 L18.614436,35.6177821 L22.2936873,43.5967659 L25.6735183,35.6177821 L30.3542667,35.6177821 L30.3542667,47.3796082 L30.3542667,47.3796082 L30.3546215,47.3796082 L30.3546215,47.3796082 Z M41.8415059,47.3796082 L32.4498542,47.3796082 L32.4498542,35.6177821 L41.8415059,35.6177821 L41.8415059,38.0670687 L35.2613542,38.0670687 L35.2613542,40.1871348 L41.6836362,40.1871348 L41.6836362,42.5981069 L35.2613542,42.5981069 L35.2613542,44.9469955 L41.8415059,44.9469955 L41.8415059,47.3796082 L41.8415059,47.3796082 L41.8415059,47.3796082 L41.8415059,47.3796082 Z M55.0834049,38.7854646 C55.0834049,40.660744 53.8317996,41.6296028 53.102406,41.9205088 C53.7175658,42.1546527 54.2429704,42.5683068 54.4930786,42.9110083 C54.8900588,43.4960131 54.9585282,44.0185796 54.9585282,45.0690341 L54.9585282,47.3796082 L52.1229042,47.3796082 L52.1122613,45.8963423 C52.1122613,45.1885893 52.1800211,44.1707731 51.6684523,43.6049255 C51.2576363,43.1912714 50.6314789,43.1015162 49.6193389,43.1015162 L46.6013665,43.1015162 L46.6013665,47.3796082 L43.7902213,47.3796082 L43.7902213,35.6177821 L50.2564939,35.6177821 C51.6932857,35.6177821 52.7518998,35.6557418 53.6608036,36.1811464 C54.5501955,36.706551 55.0834049,37.4735495 55.0834049,38.7854646 C55.0834049,38.7854646 55.0834049,37.4735495 55.0834049,38.7854646 L55.0834049,38.7854646 L55.0834049,38.7854646 Z M59.5825144,47.3796082 L56.7138975,47.3796082 L56.7138975,35.6177821 L59.5825144,35.6177821 L59.5825144,47.3796082 L59.5825144,47.3796082 L59.5825144,47.3796082 L59.5825144,47.3796082 Z M92.8621602,47.3796082 L88.8781672,47.3796082 L83.549266,38.5516755 L83.549266,47.3796082 L77.8237393,47.3796082 L76.729649,44.7561328 L70.8895338,44.7561328 L69.8280817,47.3796082 L66.5383606,47.3796082 C65.1718119,47.3796082 63.4416308,47.0773497 62.4617742,46.0786907 C61.4737582,45.0800317 60.959706,43.7273189 60.959706,41.5884503 C60.959706,39.8440786 61.2669311,38.2494171 62.4752553,36.9892975 C63.3841591,36.0505935 64.8074699,35.6177821 66.7448329,35.6177821 L69.4665777,35.6177821 L69.4665777,38.1380214 L66.8019498,38.1380214 C65.775974,38.1380214 65.1966454,38.2905696 64.6386025,38.8347767 C64.1593172,39.3300264 63.8304515,40.2662471 63.8304515,41.4990499 C63.8304515,42.7591695 64.0809144,43.6677186 64.6034809,44.2612378 C65.0362923,44.7266874 65.8228028,44.8678832 66.5628392,44.8678832 L67.8254422,44.8678832 L71.7877947,35.6181369 L76.0002554,35.6181369 L80.7601161,46.7431626 L80.7601161,35.6181369 L85.0406914,35.6181369 L89.9825456,43.809624 L89.9825456,35.6181369 L92.8621602,35.6181369 L92.8621602,47.3796082 L92.8621602,47.3796082 L92.8621602,47.3796082 L92.8621602,47.3796082 Z M0.000354763408,49.6898275 L4.80385131,49.6898275 L5.886944,47.0773497 L8.31175189,47.0773497 L9.39200647,49.6898275 L18.8432584,49.6898275 L18.8432584,47.6925095 L19.6868858,49.6983418 L24.5932638,49.6983418 L25.4368911,47.6627094 L25.4368911,49.6898275 L48.9250669,49.6898275 L48.9140692,45.4014474 L49.3685211,45.4014474 C49.6867439,45.4124451 49.7796919,45.4418904 49.7796919,45.967295 L49.7796919,49.6898275 L61.9278553,49.6898275 L61.9278553,48.6915232 C62.9077118,49.2165731 64.4317754,49.6898275 66.437253,49.6898275 L71.5479747,49.6898275 L72.6417102,47.0773497 L75.0665181,47.0773497 L76.1361298,49.6898275 L85.9847168,49.6898275 L85.9847168,47.2082574 L87.4761422,49.6898275 L95.3682089,49.6898275 L95.3682089,33.2855675 L87.5577377,33.2855675 L87.5577377,35.2229304 L86.4640022,33.2855675 L78.449542,33.2855675 L78.449542,35.2229304 L77.4452068,33.2855675 L66.6196014,33.2855675 C64.8074699,33.2855675 63.2145822,33.5385138 61.9278553,34.2434287 L61.9278553,33.2855675 L54.4572475,33.2855675 L54.4572475,34.2434287 C53.6384535,33.5168732 52.5227226,33.2855675 51.282115,33.2855675 L23.9891017,33.2855675 L22.157813,37.5225069 L20.2772121,33.2855675 L11.6805852,33.2855675 L11.6805852,35.2229304 L10.736205,33.2855675 L3.40466443,33.2855675 L0,41.085041 L0,49.6898275 L0.000354763408,49.6898275 Z M100,58.3510213 L94.8761521,58.3510213 C94.3645833,58.3510213 94.0247199,58.3701785 93.7384258,58.5635246 C93.4418436,58.7540326 93.3276098,59.036779 93.3276098,59.4099901 C93.3276098,59.8537991 93.5780728,60.1557028 93.9424148,60.2862557 C94.238997,60.3894919 94.5575746,60.4196468 95.0258623,60.4196468 L96.5495711,60.4604445 C98.0871157,60.4984042 99.1134462,60.762703 99.7392489,61.4073081 C99.8531279,61.4970632 99.9215973,61.597816 100,61.6985688 L100,58.3510213 Z M100,66.1072137 C99.3170804,67.1058727 97.9863629,67.6121201 96.1848743,67.6121201 L90.7555751,67.6121201 L90.7555751,65.0893975 L96.162879,65.0893975 C96.6992812,65.0893975 97.0746209,65.0187996 97.3006052,64.7981367 C97.4964346,64.6161431 97.6330185,64.3518444 97.6330185,64.0307835 C97.6330185,63.688082 97.4964346,63.4159785 97.2896076,63.2527873 C97.0856186,63.073277 96.7886816,62.9916815 96.2991081,62.9916815 C93.6593136,62.9019263 90.3660449,63.073277 90.3660449,59.3503898 C90.3660449,57.6439778 91.4494923,55.8478107 94.3997048,55.8478107 L99.9996452,55.8478107 L99.9996452,53.5070817 L94.7966851,53.5070817 C93.2265022,53.5070817 92.0859379,53.883131 91.2781416,54.4677811 L91.2781416,53.5070817 L83.582259,53.5070817 C82.3515847,53.5070817 80.9069881,53.8121783 80.2237138,54.4677811 L80.2237138,53.5070817 L66.4808889,53.5070817 L66.4808889,54.4677811 C65.3871533,53.6787872 63.5416741,53.5070817 62.6898871,53.5070817 L53.6249725,53.5070817 L53.6249725,54.4677811 C52.7597046,53.6298299 50.8354678,53.5070817 49.66262,53.5070817 L39.5174508,53.5070817 L37.1958791,56.0195162 L35.0215341,53.5070817 L19.8667509,53.5070817 L19.8667509,69.9226942 L34.7363044,69.9226942 L37.128474,67.3705262 L39.3819312,69.9226942 L48.5475986,69.9308537 L48.5475986,66.069254 L49.4486977,66.069254 C50.6648266,66.0880565 52.0991351,66.0390991 53.3645762,65.492054 L53.3645762,69.9223394 L60.9245844,69.9223394 L60.9245844,65.6438927 L61.2892812,65.6438927 C61.7547308,65.6438927 61.8004952,65.6630499 61.8004952,66.1281448 L61.8004952,69.9219846 L84.7664592,69.9219846 C86.2245369,69.9219846 87.7486005,69.5487735 88.5925826,68.8715302 L88.5925826,69.9219846 L95.8772944,69.9219846 C97.3931985,69.9219846 98.8736262,69.7094814 100,69.1652743 L100,66.1072137 L100,66.1072137 L100,66.1072137 L100,66.1072137 Z M88.7855739,61.4073081 C89.3329738,61.9738652 89.6263632,62.6890683 89.6263632,63.8998758 C89.6263632,66.4307579 88.0451827,67.6121201 85.2099135,67.6121201 L79.7341403,67.6121201 L79.7341403,65.0893975 L85.1879182,65.0893975 C85.7211276,65.0893975 86.0993054,65.0187996 86.3362873,64.7981367 C86.5296334,64.6161431 86.6683459,64.3518444 86.6683459,64.0307835 C86.6683459,63.688082 86.518281,63.4159785 86.3252897,63.2527873 C86.110303,63.073277 85.8137208,62.9916815 85.3241473,62.9916815 C82.6949957,62.9019263 79.4024365,63.073277 79.4024365,59.3503898 C79.4024365,57.6439778 80.4745315,55.8478107 83.4219059,55.8478107 L89.0580322,55.8478107 L89.0580322,58.3517308 L83.9008365,58.3517308 C83.3896225,58.3517308 83.0572091,58.3708881 82.7744627,58.5642341 C82.4665281,58.7547421 82.3522943,59.0374885 82.3522943,59.4106996 C82.3522943,59.8545086 82.6137549,60.1564123 82.967454,60.2869652 C83.2640362,60.3902014 83.5826138,60.4203563 84.0615444,60.4203563 L85.5749651,60.4611541 C87.1011572,60.4984042 88.1487736,60.7623482 88.7855739,61.4073081 C88.7855739,61.4073081 88.1487736,60.7623482 88.7855739,61.4073081 L88.7855739,61.4073081 L88.7855739,61.4073081 Z M63.4171521,60.6807526 C63.0411029,60.9038988 62.5760081,60.923056 62.0289629,60.923056 L58.6136556,60.923056 L58.6136556,58.2807782 L62.0754369,58.2807782 C62.5760081,58.2807782 63.076934,58.2914211 63.4171521,58.4932814 C63.7814941,58.6837894 63.9993189,59.0481314 63.9993189,59.5515407 C63.9993189,60.05495 63.7814941,60.4604445 63.4171521,60.6807526 C63.4171521,60.6807526 63.7814941,60.4604445 63.4171521,60.6807526 L63.4171521,60.6807526 L63.4171521,60.6807526 Z M65.1150498,62.1448612 C65.7408524,62.3758122 66.2524213,62.7898211 66.4922413,63.1325225 C66.8892216,63.7068845 66.9466933,64.242932 66.9580457,65.2799054 L66.9580457,67.6121201 L64.135548,67.6121201 L64.135548,66.1402067 C64.135548,65.4324537 64.2036626,64.3844826 63.6810961,63.8374374 C63.2702801,63.4159785 62.6441226,63.3152257 61.6185016,63.3152257 L58.6140103,63.3152257 L58.6140103,67.6121201 L55.7890293,67.6121201 L55.7890293,55.8474559 L62.2797806,55.8474559 C63.7030914,55.8474559 64.7397101,55.9102491 65.6624497,56.4026607 C66.549713,56.9387082 67.1077558,57.6730684 67.1077558,59.0151384 C67.1074011,60.8929011 65.8550862,61.8511171 65.1150498,62.1448612 C65.1150498,62.1448612 65.8550862,61.8511171 65.1150498,62.1448612 L65.1150498,62.1448612 L65.1150498,62.1448612 Z M68.6665863,55.8474559 L78.0497236,55.8474559 L78.0497236,58.2804234 L71.4663791,58.2804234 L71.4663791,60.419292 L77.8890158,60.419292 L77.8890158,62.8196212 L71.4663791,62.8196212 L71.4663791,65.1603502 L78.0497236,65.1709931 L78.0497236,67.6121201 L68.6665863,67.6121201 L68.6665863,55.8474559 L68.6665863,55.8474559 L68.6665863,55.8474559 L68.6665863,55.8474559 Z M49.6984511,61.2767551 L46.065319,61.2767551 L46.065319,58.2807782 L49.7310893,58.2807782 C50.7460674,58.2807782 51.4506276,58.6944323 51.4506276,59.7232462 C51.4506276,60.7407076 50.7787057,61.2767551 49.6984511,61.2767551 L49.6984511,61.2767551 L49.6984511,61.2767551 L49.6984511,61.2767551 Z M43.2651715,66.5421537 L38.9487651,61.7500095 L43.2651715,57.1100589 L43.2651715,66.5421537 L43.2651715,66.5421537 L43.2651715,66.5421537 L43.2651715,66.5421537 Z M32.1181504,65.1603502 L25.2059402,65.1603502 L25.2059402,62.8196212 L31.3781139,62.8196212 L31.3781139,60.419292 L25.2059402,60.419292 L25.2059402,58.2804234 L32.2543796,58.2804234 L35.3294688,61.708857 L32.1181504,65.1603502 L32.1181504,65.1603502 L32.1181504,65.1603502 L32.1181504,65.1603502 Z M54.4689547,59.7232462 C54.4689547,62.9913267 52.0306657,63.6660867 49.5732196,63.6660867 L46.065319,63.6660867 L46.065319,67.6121201 L40.6008983,67.6121201 L37.1391169,63.7175274 L33.5414612,67.6121201 L22.4054378,67.6121201 L22.4054378,55.8474559 L33.7128119,55.8474559 L37.1717552,59.7037342 L40.7477703,55.8474559 L49.7310893,55.8474559 C51.9621964,55.8474559 54.4689547,56.465099 54.4689547,59.7232462 C54.4689547,59.7232462 54.4689547,56.465099 54.4689547,59.7232462 L54.4689547,59.7232462 L54.4689547,59.7232462 Z M54.4689547,59.7232462" fill="#FFFFFF" id="Shape" mask="url(#mask-2)"/></g></g></svg>