<?xml version="1.0" ?><svg height="121px" version="1.1" viewBox="0 0 121 121" width="121px" xmlns="http://www.w3.org/2000/svg" xmlns:sketch="http://www.bohemiancoding.com/sketch/ns" xmlns:xlink="http://www.w3.org/1999/xlink"><title/><defs/><g fill="none" fill-rule="evenodd" id="circle" stroke="none" stroke-width="1"><g id="direct_debit" transform="translate(10.000000, 10.000000)"><circle cx="50" cy="50" d="M50,100 C77.6142389,100 100,77.6142389 100,50 C100,22.3857611 77.6142389,0 50,0 C22.3857611,0 0,22.3857611 0,50 C0,77.6142389 22.3857611,100 50,100 Z M50,100" fill="#1C1C1C" id="Oval-2" r="50"/><g fill="#FFFFFF" id="logo" transform="translate(22.000000, 12.000000)"><path d="M7.61267041,45.238806 C8.52419595,45.4925386 9.26222653,45.9577081 9.82678428,46.6343284 C10.2796066,47.1815948 10.5883445,47.7736287 10.7530072,48.4104478 C10.9176699,49.0472669 11,49.654226 11,50.2313433 C11,51.6940372 10.6530374,52.9328307 9.95910184,53.9477612 C9.01817225,55.3159272 7.56563399,56 5.60144346,56 L0,56 L0,45 L5.60144346,45 C6.40711443,45.0099503 7.0775167,45.0895515 7.61267041,45.238806 C7.61267041,45.238806 7.0775167,45.0895515 7.61267041,45.238806 Z M3,47 L3,54 L5.68346457,54 C7.05669978,54 8.01417052,53.4785222 8.55590551,52.4355509 C8.85196998,51.8631295 9,51.1815701 9,50.3908524 C9,49.2993708 8.77795498,48.4613681 8.33385827,47.8768191 C7.88976156,47.2922701 7.00630583,47 5.68346457,47 L3,47 Z M15,56 L13,56 L13,45 L15,45 L15,56 Z M25.0353659,45.2835821 C25.442685,45.4577123 25.7878035,45.7139287 26.0707317,46.0522388 C26.3048792,46.3308472 26.4902432,46.6393018 26.6268293,46.9776119 C26.7634153,47.3159221 26.8317073,47.7014904 26.8317073,48.1343284 C26.8317073,48.656719 26.7024403,49.1703955 26.4439024,49.6753731 C26.1853646,50.1803508 25.7585396,50.5373124 25.1634146,50.7462687 C25.6609781,50.9502498 26.0134136,51.2400479 26.2207317,51.6156716 C26.4280498,51.9912954 26.5317073,52.5646728 26.5317073,53.3358209 L26.5317073,54.0746269 C26.5317073,54.5771169 26.5512193,54.9179096 26.5902439,55.0970149 C26.6487808,55.3805984 26.7853648,55.5895516 27,55.7238806 L27,56 L24.5195122,56 C24.4512192,55.7562177 24.4024392,55.5597022 24.3731707,55.4104478 C24.3146339,55.1019885 24.2829269,54.7860713 24.2780488,54.4626866 L24.2634146,53.4402985 C24.2536585,52.7388025 24.12805,52.2711454 23.8865854,52.0373134 C23.6451207,51.8034814 23.1926862,51.6865672 22.5292683,51.6865672 L20.202439,51.6865672 L20.202439,56 L18,56 L18,45 L23.2902439,45 C24.0463452,45.0149254 24.6280467,45.1094519 25.0353659,45.2835821 C25.0353659,45.2835821 24.6280467,45.1094519 25.0353659,45.2835821 Z M20,47 L20,50 L22.3383585,50 C22.8029057,50 23.151311,49.9393945 23.3835846,49.8181818 C23.7945303,49.6060595 24,49.1868718 24,48.5606061 C24,47.883835 23.8012304,47.4292941 23.4036851,47.1969697 C23.1803451,47.0656559 22.84534,47 22.39866,47 L20,47 Z M36.7421665,46.9477612 L31.1557744,46.9477612 L31.1557744,49.2835821 L36.2837959,49.2835821 L36.2837959,51.1940299 L31.1557744,51.1940299 L31.1557744,54.0223881 L37,54.0223881 L37,56 L29,56 L29,45 L36.7421665,45 L36.7421665,46.9477612 Z M39.5789474,46.2974725 C40.4942838,45.4324865 41.6587776,45 43.0724638,45 C44.964159,45 46.3473132,45.5798171 47.221968,46.7394686 C47.7050622,47.3905844 47.9644036,48.0440667 48,48.6999352 L45.6506484,48.6999352 C45.4980923,48.1961522 45.302315,47.8159443 45.0633105,47.5593001 C44.6361535,47.1030437 44.0030553,46.874919 43.1639969,46.874919 C42.309683,46.874919 41.6359038,47.1969076 41.1426392,47.8408944 C40.6493746,48.4848812 40.402746,49.396192 40.402746,50.5748542 C40.402746,51.7535164 40.6633587,52.6363116 41.1845919,53.2232664 C41.7058251,53.8102211 42.3681628,54.1036941 43.1716247,54.1036941 C43.9954275,54.1036941 44.6234405,53.8518064 45.0556827,53.3480233 C45.2946872,53.0771211 45.4930071,52.6707739 45.6506484,52.1289695 L47.9771167,52.1289695 C47.7737086,53.274363 47.2537545,54.2058724 46.4172387,54.9235256 C45.580723,55.6411788 44.5090327,56 43.2021358,56 C41.5850415,56 40.31376,55.5152349 39.3882532,54.5456902 C38.4627465,53.5713928 38,52.2359126 38,50.5392093 C38,48.7046787 38.5263105,47.2907805 39.5789474,46.2974725 C39.5789474,46.2974725 38.5263105,47.2907805 39.5789474,46.2974725 Z M59,45 L59,46.9477612 L55.6758794,46.9477612 L55.6758794,56 L53.339196,56 L53.339196,46.9477612 L50,46.9477612 L50,45 L59,45 Z M59,45" id="DIRECT"/><path d="M7.61267041,59.238806 C8.52419595,59.4925386 9.26222653,59.9577081 9.82678428,60.6343284 C10.2796066,61.1815948 10.5883445,61.7736287 10.7530072,62.4104478 C10.9176699,63.0472669 11,63.654226 11,64.2313433 C11,65.6940372 10.6530374,66.9328307 9.95910184,67.9477612 C9.01817225,69.3159272 7.56563399,70 5.60144346,70 L0,70 L0,59 L5.60144346,59 C6.40711443,59.0099503 7.0775167,59.0895515 7.61267041,59.238806 C7.61267041,59.238806 7.0775167,59.0895515 7.61267041,59.238806 Z M3,61 L3,68 L5.68346457,68 C7.05669978,68 8.01417052,67.4785222 8.55590551,66.4355509 C8.85196998,65.8631295 9,65.1815701 9,64.3908524 C9,63.2993708 8.77795498,62.4613681 8.33385827,61.8768191 C7.88976156,61.2922701 7.00630583,61 5.68346457,61 L3,61 Z M21.628229,62.3532468 C22.2611511,62.5887458 22.7837394,62.9604592 23.1960098,63.4683983 C23.5676338,63.9163082 23.8086051,64.4357835 23.918931,65.0268398 C23.9828038,65.3731619 24.0089332,65.8718582 23.99732,66.5229437 L17.4997394,66.5229437 C17.5345792,67.2802347 17.8336159,67.8112539 18.3968585,68.1160173 C18.7394493,68.3053401 19.1517135,68.4 19.6336633,68.4 C20.1446463,68.4 20.5598138,68.284561 20.8791781,68.0536797 C21.0533769,67.9290037 21.2072501,67.7558453 21.3408025,67.5341991 L23.8753815,67.5341991 C23.8115086,67.982109 23.5182785,68.4369385 22.9956822,68.8987013 C22.1827548,69.6329041 21.0446734,70 19.581404,70 C18.373626,70 17.3081264,69.6906236 16.3848731,69.0718615 C15.4616197,68.4530994 15,67.4464716 15,66.0519481 C15,64.7451594 15.4166191,63.7431492 16.2498697,63.0458874 C17.0831204,62.3486257 18.164588,62 19.4943051,62 C20.284006,62 20.9953069,62.1177477 21.628229,62.3532468 C21.628229,62.3532468 20.9953069,62.1177477 21.628229,62.3532468 Z M18.1185102,63.5391304 C17.7904423,63.8985525 17.5842743,64.3855042 17.5,65 L21.5,65 C21.4578628,64.3449243 21.2516949,63.8478278 20.8814898,63.5086957 C20.5112848,63.1695635 20.0522977,63 19.5045147,63 C18.9085749,63 18.446578,63.1797083 18.1185102,63.5391304 C18.1185102,63.5391304 18.446578,63.1797083 18.1185102,63.5391304 Z M37.9654683,62.7594937 C38.6551596,63.5167704 39,64.493887 39,65.6908728 C39,66.9318294 38.6594168,67.9602446 37.9782403,68.7761492 C37.2970638,69.5920538 36.3462691,70 35.1258278,70 C34.3595042,70 33.7436163,69.8680893 33.2781457,69.6042638 C32.9999986,69.4479228 32.6991502,69.1743302 32.3755913,68.7834777 L32.3755913,69.787475 L30,69.787475 L30,59 L32.4181646,59 L32.4181646,62.8401066 C32.7246941,62.4687967 33.062439,62.1854329 33.4314096,61.9900067 C33.8684979,61.7457239 34.4247838,61.6235843 35.1002838,61.6235843 C36.3207251,61.6235843 37.2757771,62.002217 37.9654683,62.7594937 C37.9654683,62.7594937 37.2757771,62.002217 37.9654683,62.7594937 Z M35.994824,67.6247344 C36.3316097,67.1745552 36.5,66.5827553 36.5,65.8493171 C36.5,65.2625666 36.4171851,64.7769873 36.2515528,64.3925645 C35.9368514,63.6641845 35.3571471,63.3 34.5124224,63.3 C33.6566555,63.3 33.0686696,63.6565973 32.7484472,64.3698027 C32.5828149,64.7491673 32.5,65.2398048 32.5,65.8417299 C32.5,66.5498771 32.6711508,67.1366188 33.0134576,67.6019727 C33.3557643,68.0673266 33.8774982,68.3 34.5786749,68.3 C35.1859934,68.3 35.6580383,68.0749137 35.994824,67.6247344 C35.994824,67.6247344 35.6580383,68.0749137 35.994824,67.6247344 Z M47.5,61 L44.5,61 L44.5,59 L47.5,59 L47.5,61 Z M44.5,62 L47.5,62 L47.5,70 L44.5,70 L44.5,62 Z M52,63.6225067 L52,62.172075 L53.2438625,62.172075 L53.2438625,60 L55.5515548,60 L55.5515548,62.172075 L57,62.172075 L57,63.6225067 L55.5515548,63.6225067 L55.5515548,67.7380172 C55.5515548,68.0571614 55.5979264,68.2560281 55.690671,68.3346233 C55.7834156,68.4132186 56.0671007,68.4525156 56.5417349,68.4525156 C56.6126572,68.4525156 56.6876701,68.4513248 56.7667758,68.4489431 C56.8458815,68.4465614 56.9236221,68.4429889 57,68.4382256 L57,69.9601071 L55.8952537,69.995832 C54.7932296,70.0291754 54.040373,69.8624608 53.6366612,69.4956832 C53.3747941,69.2622792 53.2438625,68.902652 53.2438625,68.4167907 L53.2438625,63.6225067 L52,63.6225067 Z M52,63.6225067" id="Debit"/><path d="M28.5,39 C44.2401161,39 57,30.2695532 57,19.5 C57,8.73044685 44.2401161,0 28.5,0 C12.7598839,0 0,8.73044685 0,19.5 C0,30.2695532 12.7598839,39 28.5,39 Z M30.8297878,1 L30.8649416,14.132681 C30.8649416,14.132681 4.99999945,13.0436844 5,24.0015921 C5.00000093,34.9594998 24.7097017,37 30.8649416,37 C32.074433,37 46,34.8461566 46,18.413642 C45.9999992,1.98112735 30.8297878,1 30.8297878,1 Z M31,16.0000012 L31,35 C31,35 15.0000006,33.8991803 15,24.9312831 C14.9999997,15.9633859 31,16.0000012 31,16.0000012 Z M31,16.0000012" id="Oval-22"/></g></g></g></svg>