<?xml version="1.0" ?><svg height="32px" version="1.1" viewBox="0 0 32 32" width="32px" xmlns="http://www.w3.org/2000/svg" xmlns:xlink="http://www.w3.org/1999/xlink"><title/><desc/><defs/><g fill="none" fill-rule="evenodd" id="Circle" stroke="none" stroke-width="1"><g id="discover"><circle cx="16" cy="16" fill="#F4F4F4" id="Oval-3" r="16"/><path d="M10.5590712,31.0511041 C21.4644671,28.4669702 30.8812215,21.1533992 32,16 C32,24.8365564 24.8365564,32 16,32 C14.0896722,32 12.2575386,31.6652107 10.5590712,31.0511041 Z" fill="#E87E04" id="Path-133"/><g id="NETWORK-+-DISCOVER-+-Oval-1" transform="translate(2.240000, 11.200000)"><path d="M8,5.44 L8.32833876,5.44 L9.34462541,7.01830508 L9.34983713,7.01830508 L9.34983713,5.44 L9.6,5.44 L9.6,7.36 L9.28208469,7.36 L8.25537459,5.78169492 L8.25016287,5.78169492 L8.25016287,7.36 L8,7.36 L8,5.44 Z M9.92,5.44 L11.1514947,5.44 L11.1514947,5.6840678 L10.1786947,5.6840678 L10.1786947,6.25627119 L11.0841263,6.25627119 L11.0841263,6.50033898 L10.1786947,6.50033898 L10.1786947,7.1159322 L11.2,7.1159322 L11.2,7.36 L9.92,7.36 L9.92,5.44 Z M11.7286957,5.6840678 L11.2,5.6840678 L11.2,5.44 L12.48,5.44 L12.48,5.6840678 L11.9513043,5.6840678 L11.9513043,7.36 L11.7286957,7.36 L11.7286957,5.6840678 Z M12.6799982,5.44 L12.9133315,5.44 L13.2773315,6.97491525 L13.2819982,6.97491525 L13.6716648,5.44 L13.9283315,5.44 L14.3179982,6.97491525 L14.3226648,6.97491525 L14.6866648,5.44 L14.9199982,5.44 L14.4393315,7.36 L14.2036648,7.36 L13.8023315,5.79254237 L13.7976648,5.79254237 L13.3986648,7.36 L13.1629982,7.36 L12.6799982,5.44 Z M15.8999927,7.36 C15.7595042,7.36 15.6302914,7.33548412 15.5123504,7.28645161 C15.3944094,7.23741911 15.2933806,7.1698929 15.209261,7.08387097 C15.1251413,6.99784903 15.0592341,6.89634467 15.0115374,6.77935484 C14.9638407,6.66236501 14.9399927,6.53591466 14.9399927,6.4 C14.9399927,6.26408534 14.9638407,6.13763499 15.0115374,6.02064516 C15.0592341,5.90365533 15.1251413,5.80215097 15.209261,5.71612903 C15.2933806,5.6301071 15.3944094,5.56258089 15.5123504,5.51354839 C15.6302914,5.46451588 15.7595042,5.44 15.8999927,5.44 C16.0404812,5.44 16.169694,5.46451588 16.287635,5.51354839 C16.4055759,5.56258089 16.5066047,5.6301071 16.5907244,5.71612903 C16.674844,5.80215097 16.7407512,5.90365533 16.788448,6.02064516 C16.8361447,6.13763499 16.8599927,6.26408534 16.8599927,6.4 C16.8599927,6.53591466 16.8361447,6.66236501 16.788448,6.77935484 C16.7407512,6.89634467 16.674844,6.99784903 16.5907244,7.08387097 C16.5066047,7.1698929 16.4055759,7.23741911 16.287635,7.28645161 C16.169694,7.33548412 16.0404812,7.36 15.8999927,7.36 Z M15.9,7.22798096 C15.9974786,7.22798096 16.0853679,7.20670457 16.1636704,7.16415117 C16.2419729,7.12159777 16.3090884,7.06438794 16.3650187,6.99251996 C16.4209491,6.92065199 16.4640947,6.83601927 16.4944569,6.73861925 C16.5248191,6.64121924 16.54,6.53767418 16.54,6.42798096 C16.54,6.31828774 16.5248191,6.21474267 16.4944569,6.11734266 C16.4640947,6.01994264 16.4209491,5.93530992 16.3650187,5.86344195 C16.3090884,5.79157398 16.2419729,5.73436415 16.1636704,5.69181074 C16.0853679,5.64925734 15.9974786,5.62798096 15.9,5.62798096 C15.8025214,5.62798096 15.7146321,5.64925734 15.6363296,5.69181074 C15.5580271,5.73436415 15.4909116,5.79157398 15.4349813,5.86344195 C15.3790509,5.93530992 15.3359053,6.01994264 15.3055431,6.11734266 C15.2751809,6.21474267 15.26,6.31828774 15.26,6.42798096 C15.26,6.53767418 15.2751809,6.64121924 15.3055431,6.73861925 C15.3359053,6.83601927 15.3790509,6.92065199 15.4349813,6.99251996 C15.4909116,7.06438794 15.5580271,7.12159777 15.6363296,7.16415117 C15.7146321,7.20670457 15.8025214,7.22798096 15.9,7.22798096 C15.9,7.22798096 15.8025214,7.22798096 15.9,7.22798096 Z M17.1599939,5.44 L17.7936321,5.44 C17.9089938,5.44 18.0039962,5.456723 18.078642,5.49016949 C18.1532878,5.52361599 18.2122402,5.56610144 18.2555009,5.61762712 C18.2987615,5.6691528 18.3288739,5.72700533 18.3458388,5.79118644 C18.3628038,5.85536755 18.3712861,5.91728784 18.3712861,5.97694915 C18.3712861,6.03841839 18.3611073,6.09762683 18.3407494,6.15457627 C18.3203914,6.21152571 18.2911273,6.26305062 18.2529561,6.30915254 C18.214785,6.35525447 18.168132,6.39412414 18.1129959,6.42576271 C18.0578598,6.45740129 17.9963627,6.47683612 17.9285028,6.4840678 L18.4399939,7.36 L18.1346261,7.36 L17.6765744,6.51389831 L17.4042881,6.51389831 L17.4042881,7.36 L17.1599939,7.36 L17.1599939,5.44 Z M17.3999994,6.27670898 L17.6900713,6.27670898 C17.7330452,6.27670898 17.7756347,6.2724985 17.8178411,6.26407741 C17.8600476,6.25565631 17.8976491,6.24021787 17.9306469,6.21776162 C17.9636446,6.19530536 17.9901192,6.16302498 18.0100713,6.12091951 C18.0300235,6.07881404 18.0399994,6.02407774 18.0399994,5.95670898 C18.0399994,5.88934023 18.0300235,5.83460393 18.0100713,5.79249846 C17.9901192,5.75039298 17.9636446,5.71811261 17.9306469,5.69565635 C17.8976491,5.6732001 17.8600476,5.65776166 17.8178411,5.64934056 C17.7756347,5.64091947 17.7330452,5.63670898 17.6900713,5.63670898 L17.3999994,5.63670898 L17.3999994,6.27670898 Z M18.56,5.44 L18.7740767,5.44 L18.7740767,6.26983051 L18.7919164,6.26983051 L19.4898955,5.44 L19.7887108,5.44 L19.0260627,6.32677966 L19.84,7.36 L19.5278049,7.36 L18.7919164,6.4 L18.7740767,6.4 L18.7740767,7.36 L18.56,7.36 L18.56,5.44 Z" fill="#000000" id="NETWORK"/><path d="M0,0 L1.53690141,0 C1.79397103,0 2.04185587,0.0388696678 2.28056338,0.116610169 C2.51927089,0.194350671 2.73043205,0.312767566 2.91405321,0.471864407 C3.09767437,0.630961247 3.24456909,0.830733261 3.35474178,1.07118644 C3.46491448,1.31163962 3.52,1.59457464 3.52,1.92 C3.52,2.24904119 3.45665165,2.53378411 3.32995305,2.77423729 C3.20325445,3.01469047 3.03983407,3.21355854 2.83968701,3.37084746 C2.63953995,3.52813638 2.41736168,3.64564933 2.17314554,3.72338983 C1.9289294,3.80113033 1.68930738,3.84 1.4542723,3.84 L0,3.84 L0,0 Z M1.19265092,3.2 C1.42390317,3.2 1.64241367,3.17600024 1.84818898,3.128 C2.05396428,3.07999976 2.23328008,3.00533384 2.38614173,2.904 C2.53900339,2.80266616 2.65952712,2.67111192 2.74771654,2.50933333 C2.83590595,2.34755475 2.88,2.15111227 2.88,1.92 C2.88,1.69244331 2.84080529,1.49688971 2.7624147,1.33333333 C2.6840241,1.16977696 2.57525879,1.03733384 2.43611549,0.936 C2.29697218,0.83466616 2.13235441,0.76000024 1.94225722,0.712 C1.75216003,0.66399976 1.54344821,0.64 1.31611549,0.64 L0.64,0.64 L0.64,3.2 L1.19265092,3.2 Z M4.16,0 L4.8,0 L4.8,3.84 L4.16,3.84 L4.16,0 Z M8.07690428,0.950537634 C7.99869615,0.842436735 7.89409434,0.763226058 7.76309572,0.712903226 C7.6320971,0.662580394 7.49425734,0.637419355 7.3495723,0.637419355 C7.26354336,0.637419355 7.18044847,0.646738258 7.10028513,0.665376344 C7.0201218,0.68401443 6.94778036,0.71383492 6.88325866,0.75483871 C6.81873695,0.795842499 6.76692484,0.848960247 6.72782077,0.914193548 C6.68871671,0.979426849 6.66916497,1.05677375 6.66916497,1.14623656 C6.66916497,1.28043078 6.71804432,1.38293871 6.81580448,1.45376344 C6.91356464,1.52458817 7.03478543,1.58609293 7.17947047,1.63827957 C7.32415551,1.69046621 7.4825246,1.74078829 7.65458248,1.78924731 C7.82664037,1.83770634 7.98500946,1.90480244 8.1296945,1.99053763 C8.27437954,2.07627283 8.39560033,2.18996345 8.49336049,2.3316129 C8.59112065,2.47326236 8.64,2.6615042 8.64,2.89634409 C8.64,3.10881827 8.59894135,3.29426444 8.51682281,3.45268817 C8.43470427,3.6111119 8.32423695,3.74250844 8.18541752,3.84688172 C8.04659808,3.951255 7.88529623,4.02953379 7.70150713,4.08172043 C7.51771802,4.13390707 7.3241558,4.16 7.12081466,4.16 C6.86272783,4.16 6.61442074,4.11899683 6.37588595,4.03698925 C6.13735115,3.95498167 5.93205789,3.8170619 5.76,3.62322581 L6.31723014,3.1088172 C6.40716949,3.23928381 6.52545752,3.34085985 6.67209776,3.41354839 C6.818738,3.48623692 6.97417433,3.52258065 7.13841141,3.52258065 C7.22444035,3.52258065 7.310468,3.51139796 7.39649695,3.48903226 C7.48252589,3.46666655 7.56073285,3.4331185 7.63112016,3.3883871 C7.70150748,3.34365569 7.75820752,3.28681038 7.801222,3.21784946 C7.84423647,3.14888854 7.86574338,3.06967787 7.86574338,2.98021505 C7.86574338,2.83483798 7.81686403,2.72301114 7.71910387,2.64473118 C7.62134371,2.56645122 7.50012292,2.50028701 7.35543788,2.44623656 C7.21075284,2.39218611 7.05238375,2.34093214 6.88032587,2.29247312 C6.70826798,2.24401409 6.54989889,2.17784988 6.40521385,2.09397849 C6.26052881,2.01010711 6.13930802,1.89828027 6.04154786,1.75849462 C5.9437877,1.61870898 5.89490835,1.43139902 5.89490835,1.19655914 C5.89490835,0.991540194 5.93889976,0.814481032 6.02688391,0.665376344 C6.11486806,0.516271656 6.23022332,0.392330243 6.37295316,0.293548387 C6.51568299,0.194766531 6.67894002,0.121147196 6.86272912,0.072688172 C7.04651823,0.0242291484 7.23421493,0 7.42582485,0 C7.64480761,0 7.85694398,0.031684271 8.06224033,0.0950537634 C8.26753667,0.158423256 8.4523006,0.262794972 8.61653768,0.408172043 C8.61653768,0.408172043 8.4523006,0.262794972 8.61653768,0.408172043 L8.07690428,0.950537634 Z M11.8510345,1.0288172 C11.7075855,0.872257282 11.5687363,0.767885566 11.4344828,0.715698925 C11.3002292,0.663512284 11.1650582,0.637419355 11.0289655,0.637419355 C10.8266657,0.637419355 10.643679,0.673763077 10.48,0.746451613 C10.316321,0.819140148 10.1756328,0.919784303 10.057931,1.0483871 C9.9402293,1.17698989 9.84919572,1.32702423 9.78482759,1.49849462 C9.72045945,1.66996502 9.68827586,1.8544793 9.68827586,2.05204301 C9.68827586,2.26451719 9.72045945,2.46021416 9.78482759,2.63913978 C9.84919572,2.81806541 9.9402293,2.9727592 10.057931,3.10322581 C10.1756328,3.23369241 10.316321,3.33620034 10.48,3.41075269 C10.643679,3.48530503 10.8266657,3.52258065 11.0289655,3.52258065 C11.1871272,3.52258065 11.3406889,3.48437314 11.4896552,3.40795699 C11.6386214,3.33154084 11.7774706,3.2094632 11.9062069,3.04172043 L12.48,3.45548387 C12.3034474,3.70150661 12.0882771,3.88042955 11.8344828,3.99225806 C11.5806884,4.10408658 11.3103463,4.16 11.0234483,4.16 C10.7218376,4.16 10.4450587,4.11060981 10.1931034,4.01182796 C9.94114817,3.9130461 9.72413884,3.77326255 9.54206897,3.59247312 C9.35999909,3.41168368 9.21747178,3.19455324 9.11448276,2.94107527 C9.01149374,2.6875973 8.96,2.40616642 8.96,2.09677419 C8.96,1.77992673 9.01149374,1.49197262 9.11448276,1.23290323 C9.21747178,0.97383383 9.35999909,0.752975824 9.54206897,0.570322581 C9.72413884,0.387669338 9.94114817,0.246953899 10.1931034,0.148172043 C10.4450587,0.0493901871 10.7218376,0 11.0234483,0 C11.2882772,0 11.533792,0.0475264065 11.76,0.142580645 C11.986208,0.237634884 12.1967806,0.39885191 12.3917241,0.626236559 C12.3917241,0.626236559 12.1967806,0.39885191 12.3917241,0.626236559 L11.8510345,1.0288172 Z M17.28,0 L18.1073403,0 L19.2085587,2.90169492 L20.3440119,0 L21.12,0 L19.4881426,3.84 L18.866211,3.84 L17.28,0 Z M21.76,0 L24.5335524,0 L24.5335524,0.618305085 L22.5051335,0.618305085 L22.5051335,1.5620339 L24.4271047,1.5620339 L24.4271047,2.18033898 L22.5051335,2.18033898 L22.5051335,3.22169492 L24.64,3.22169492 L24.64,3.84 L21.76,3.84 L21.76,0 Z M24.96,0 L26.4341573,0 C26.6379036,0 26.8346557,0.0171749695 27.0244195,0.0515254237 C27.2141832,0.085875878 27.3829705,0.144632353 27.5307865,0.22779661 C27.6786025,0.310960868 27.796454,0.423050142 27.8843446,0.564067797 C27.9722351,0.705085451 28.0161798,0.884066712 28.0161798,1.10101695 C28.0161798,1.37943642 27.9312867,1.61265443 27.7614981,1.80067797 C27.5917095,1.98870151 27.3490153,2.10259867 27.0334082,2.14237288 L28.16,3.84 L27.2491386,3.84 L26.266367,2.21288136 L25.7150562,2.21288136 L25.7150562,3.84 L24.96,3.84 L24.96,0 Z M26.4177778,1.6 C26.5092068,1.6 26.6006345,1.59583338 26.6920635,1.5875 C26.7834925,1.57916663 26.8673012,1.55916683 26.9434921,1.5275 C27.0196829,1.49583318 27.0814812,1.44750033 27.1288889,1.3825 C27.1762965,1.31749968 27.2,1.22666725 27.2,1.11 C27.2,1.00666615 27.1779896,0.92333365 27.1339683,0.86 C27.0899469,0.79666635 27.0323813,0.749166825 26.9612698,0.7175 C26.8901584,0.685833175 26.811429,0.66500005 26.7250794,0.655 C26.6387297,0.64499995 26.554921,0.64 26.4736508,0.64 L25.92,0.64 L25.92,1.6 L26.4177778,1.6 Z" fill="#000000" id="DISCOVER"/><ellipse cx="15.2" cy="2.08" fill="#E87E04" id="Oval-1" rx="2.08" ry="2.08"/></g></g></g></svg>