<?xml version="1.0" ?><svg height="32px" version="1.1" viewBox="0 0 32 32" width="32px" xmlns="http://www.w3.org/2000/svg" xmlns:xlink="http://www.w3.org/1999/xlink"><title/><desc/><defs/><g fill="none" fill-rule="evenodd" id="Circle" stroke="none" stroke-width="1"><g id="ideal"><circle cx="16" cy="16" fill="#F4F4F4" id="Oval-2" r="16"/><g transform="translate(7.000000, 8.000000)"><path d="M10.4545455,15.7263181 L10.4545455,15.7272727 L0,15.7272727 L0,0 L10.4545455,0 L10.4545455,0.00095462893 C14.7346057,0.0609730105 18.1818182,2.94822503 18.1818182,7.86363636 C18.1818182,12.7790477 14.7346057,15.6662997 10.4545455,15.7263181 L10.4545455,15.7263181 Z M10.3636364,14.9090909 L0.818181818,14.9090909 L0.818181818,0.818181818 L10.3636364,0.818181818 L10.3636364,0.818293321 C14.4688815,0.838450505 17.3636364,3.59009743 17.3636364,7.86363636 C17.3636364,12.1371753 14.4688815,14.8888222 10.3636364,14.9089794 L10.3636364,14.9090909 L10.3636364,14.9090909 Z" fill="#000000" id="Rectangle-31"/><path d="M1.90909091,8.90909091 L4.63636364,8.90909091 L4.63636364,13.8181818 L1.90909091,13.8181818 L1.90909091,8.90909091 Z M3.27272727,8.18181818 C4.22667366,8.18181818 5,7.40849184 5,6.45454545 C5,5.50059907 4.22667366,4.72727273 3.27272727,4.72727273 C2.31878089,4.72727273 1.54545455,5.50059907 1.54545455,6.45454545 C1.54545455,7.40849184 2.31878089,8.18181818 3.27272727,8.18181818 Z" fill="#000000" id="Rectangle-31"/><path d="M16.245493,7.18181818 C15.8125735,1.90909091 10.3636364,1.90909091 10.3636364,1.90909091 L6.09090909,1.90909091 L6.09090909,13.8181818 L10.3636364,13.8181818 C10.3636364,13.8181818 16.1821643,13.8181818 16.2716836,8 L14.2727273,8 L14.2727273,4.81818182 L15.0909091,4.81818182 L15.0909091,7.18181818 L16.245493,7.18181818 Z M8.45454545,4.81818182 L10.3636364,4.81818182 L10.3636364,5.63636364 L9.27272727,5.63636364 L9.27272727,6 L10.2727273,6 L10.2727273,6.72727273 L9.27272727,6.72727273 L9.27272727,7.18181818 L10.4545455,7.18181818 L10.4545455,8 L8.45454545,8 L8.45454545,4.81818182 Z M7.23942202,6.40909091 C7.23942202,5.63636364 6.72727273,5.63636364 6.72727273,5.63636364 L6.09090909,5.63636364 L6.09090909,4.81818182 L6.63636364,4.81818182 C6.63636364,4.81818182 8,4.81818182 8,6.40909091 C8,8 6.63636364,8 6.63636364,8 L6.09090909,8 L6.09090909,7.18181818 L6.72727273,7.18181818 C6.72727273,7.18181818 7.23942202,7.18181818 7.23942202,6.40909091 Z M11.7932129,4.81818182 L12.9090909,4.81818182 L13.8680975,8 L13.0406605,8 L12.8686745,7.39526367 L11.819802,7.39526367 L11.6429554,8 L10.8163841,8 L11.7932129,4.81818182 Z M12.3515181,5.65926847 L12.6374956,6.59734553 L12.060214,6.59734553 L12.3515181,5.65926847 Z" fill="#E54279" id="Rectangle-32"/></g></g></g></svg>