<?xml version="1.0" ?><svg height="121px" version="1.1" viewBox="0 0 121 121" width="121px" xmlns="http://www.w3.org/2000/svg" xmlns:sketch="http://www.bohemiancoding.com/sketch/ns" xmlns:xlink="http://www.w3.org/1999/xlink"><title/><defs><circle cx="50" cy="50" id="path-1" r="50"/><mask fill="white" id="mask-2"><use xlink:href="#path-1"/></mask></defs><g fill="none" fill-rule="evenodd" id="circle" stroke="none" stroke-width="1"><g id="master" transform="translate(10.000000, 10.000000)"><use fill="#265797" id="Oval-3" xlink:href="#path-1"/><g id="Group" transform="translate(9.000000, 25.000000)"><path d="M81.999999,25.0001411 C82.0038701,38.8039826 71.0374975,49.9963322 57.5062214,49.9999992 C43.9746688,50.0033842 33.0035955,38.8166761 33.0000009,25.0128347 L33.0000009,25.0001411 C32.9964063,11.1965817 43.9627789,0.00366793449 57.493502,9.01244433e-07 C71.0250546,-0.003666132 81.9964044,11.1836061 81.999999,24.9874475 L81.999999,25.0001411 C81.999999,25.0001411 81.999999,24.9956278 81.999999,25.0001411 L81.999999,25.0001411 L81.999999,25.0001411 Z M81.999999,25.0001411" fill="#DFAC16" id="path2268"/><path d="M24.3421139,0.000122892873 C10.891101,0.0855641629 0,11.0289595 0,24.5001997 C0,38.0239767 10.9759889,49 24.5,49 C30.8472434,49 36.6328988,46.5810996 40.9865188,42.616514 C40.9862423,42.616514 40.9856893,42.615961 40.9845833,42.615408 L40.9898369,42.615408 C41.881299,41.8030247 42.7127589,40.9264913 43.4770273,39.991891 L38.4575758,39.991891 C37.7873201,39.1822727 37.1781728,38.3386439 36.6309633,37.4681936 L45.2878788,37.4681936 C45.8143502,36.6256708 46.2910502,35.7507965 46.7141076,34.8446766 L35.2016929,34.8446766 C34.8093279,34.0035363 34.4686699,33.1433169 34.1777834,32.2706546 L47.7391231,32.2706546 C48.556481,29.8285274 49,27.2157942 49,24.4999232 C49,22.6992968 48.8047853,20.9437414 48.4353705,19.2534421 L33.4585859,19.2534421 C33.6441228,18.3835449 33.8783252,17.524155 34.1575983,16.6796967 L47.7239151,16.6796967 C47.4205857,15.7810425 47.0683144,14.9053386 46.6676542,14.0564561 L35.2003104,14.0564561 C35.6139665,13.1727335 36.0826477,12.3130671 36.6060775,11.4829872 L45.2566334,11.4829872 C44.6809435,10.5658069 44.0438689,9.68955003 43.3550872,8.85947012 L38.5319564,8.85947012 C39.2776988,7.98183066 40.0986513,7.15534537 40.9898369,6.38471489 C36.6359404,2.41957633 30.8486259,0.000122892873 24.5,0.000122892873 C24.447187,0.000122892873 24.3949269,-0.000153616091 24.3421139,0.000122892873 C24.3421139,0.000122892873 24.3949269,-0.000153616091 24.3421139,0.000122892873 L24.3421139,0.000122892873 L24.3421139,0.000122892873 Z M24.3421139,0.000122892873" fill="#BF3126" id="path1350"/><path d="M33.8901925,31.6530362 L34.2051091,29.4028509 C34.0331182,29.4028509 33.7800651,29.4802983 33.556877,29.4802983 C32.6811903,29.4802983 32.5846622,28.990359 32.6403925,28.6280957 L33.3478214,24.0368084 L34.6786838,24.0368084 L35,21.5478267 L33.7451336,21.5478267 L34.0005866,20 L31.4849875,20 C31.4295238,20.0583662 30,28.7052625 30,29.758099 C30,31.3168694 30.831689,32.0110904 32.0044264,31.9998661 C32.9227775,31.9917285 33.6379393,31.7243103 33.8901925,31.6530362 C33.8901925,31.6530362 33.6379393,31.7243103 33.8901925,31.6530362 L33.8901925,31.6530362 L33.8901925,31.6530362 Z M33.8901925,31.6530362" fill="#FFFFFF" id="path4157"/><path d="M35,27.2578774 C35,31.0895125 37.3497997,32 39.3516689,32 C41.199466,32 42.0125501,31.5553901 42.0125501,31.5553901 L42.4563418,28.940325 C42.4563418,28.940325 41.0507343,29.6068088 39.7813084,29.6068088 C37.0763685,29.6068088 37.5500668,27.4360663 37.5500668,27.4360663 L42.6694259,27.4360663 C42.6694259,27.4360663 43,25.6791817 43,24.9632649 C43,23.176778 42.1738318,21 39.4080107,21 C36.8750334,21.0005748 35,23.9381042 35,27.2578774 C35,27.2578774 35,23.9381042 35,27.2578774 L35,27.2578774 L35,27.2578774 Z M39.7444714,23 C41.2590778,23 40.979712,24.850317 40.979712,25 L38,25 C38,24.8088758 38.2816417,23 39.7444714,23 C39.7444714,23 38.2816417,23 39.7444714,23 L39.7444714,23 L39.7444714,23 Z M39.7444714,23" fill="#FFFFFF" id="path4155"/><path d="M56.0719691,31.6405657 L56.545078,28.7792804 C56.545078,28.7792804 55.2476721,29.4249822 54.3572296,29.4249822 C52.4816107,29.4249822 51.7293451,28.0033811 51.7293451,26.476064 C51.7293451,23.3777525 53.3431846,21.6732222 55.1397652,21.6732222 C56.4870605,21.6732222 57.5683722,22.4240835 57.5683722,22.4240835 L58,19.6440326 C58,19.6440326 56.3965308,19 55.0220485,19 C51.9695431,19 49,21.628432 49,26.5648098 C49,29.838109 50.6034692,31.9999998 53.7588365,31.9999998 C54.6509607,32.000278 56.0719691,31.6405657 56.0719691,31.6405657 L56.0719691,31.6405657 L56.0719691,31.6405657 L56.0719691,31.6405657 Z M56.0719691,31.6405657" fill="#FFFFFF" id="path4151"/><path d="M18.6006298,21 C16.903175,21 15.6019417,21.6004726 15.6019417,21.6004726 L15.2427184,23.9477747 C15.2427184,23.9477747 16.3167148,23.4674544 17.9401732,23.4674544 C18.8619785,23.4674544 19.5363422,23.5815413 19.5363422,24.4061442 C19.5363422,24.9069712 19.4536867,25.0918209 19.4536867,25.0918209 C19.4536867,25.0918209 18.7265809,25.0248129 18.3899239,25.0248129 C16.249016,25.0248129 14,26.0305107 14,29.0626231 C14,31.4518052 15.4754658,32 16.3899239,32 C18.1364471,32 18.8892679,30.7525535 18.9294149,30.7487987 L18.847809,31.7900223 L21.0275518,31.7900223 L22,24.2859919 C22,21.1025338 19.4770401,21 18.6006298,21 L18.6006298,21 L18.6006298,21 L18.6006298,21 Z M18.9950588,27.0707486 C19.0470613,27.5857854 18.7076002,30 17.0666304,30 C16.2201442,30 16,29.273691 16,28.8440069 C16,28.006058 16.4053311,27 18.4025184,27 C18.8670747,27.0006491 18.916766,27.0564691 18.9950588,27.0707486 C18.9950588,27.0707486 18.916766,27.0564691 18.9950588,27.0707486 L18.9950588,27.0707486 L18.9950588,27.0707486 Z M18.9950588,27.0707486" fill="#FFFFFF" id="path4149"/><path d="M24.8032836,31.9990123 C25.3660059,31.9990123 28.5829235,32.1559874 28.5829235,28.5121303 C28.5829235,25.1054801 25.6051298,25.7784381 25.6051298,24.4098479 C25.6051298,23.7284597 26.0905274,23.5139271 26.9776424,23.5139271 C27.3298404,23.5139271 28.6848755,23.6368909 28.6848755,23.6368909 L29,21.2154047 C29,21.2156954 28.1229477,21 26.6950897,21 C24.8469774,21 22.97106,21.8098752 22.97106,24.5807763 C22.97106,27.7205689 26.0990013,27.4054559 26.0990013,28.7281164 C26.0990013,29.610956 25.2251267,29.6827575 24.5517137,29.6827575 C23.3862828,29.6827575 22.3368389,29.2438087 22.3331316,29.2647387 L22,31.6618065 C22.0603768,31.6821551 22.7075736,31.9990123 24.8032836,31.9990123 C24.8032836,31.9990123 22.7075736,31.9990123 24.8032836,31.9990123 L24.8032836,31.9990123 L24.8032836,31.9990123 Z M24.8032836,31.9990123" fill="#FFFFFF" id="path4145"/><path d="M77.4055581,19.0042916 L76.8472744,22.6169286 C76.8472744,22.6169286 75.8730899,21.2135877 74.3480289,21.2135877 C71.9766262,21.2135877 70,24.1953651 70,27.6214622 C70,29.8330472 71.0542921,32 73.2095141,32 C74.7598145,32 75.6193246,30.8727497 75.6193246,30.8727497 L75.5054731,31.8354901 L78.0228252,31.8354901 L80,19 L77.4055581,19.0042916 L77.4055581,19.0042916 L77.4055581,19.0042916 L77.4055581,19.0042916 Z M76,26.4119612 C76,27.9481067 75.4111235,30 74.1901655,30 C73.379774,30 73,29.1214099 73,27.7424858 C73,25.4877461 73.7841343,24.0000001 74.7735519,24.0000001 C75.584182,23.9996918 76,24.7189026 76,26.4119612 C76,26.4119612 76,24.7189026 76,26.4119612 L76,26.4119612 L76,26.4119612 Z M76,26.4119612" fill="#FFFFFF" id="path4139"/><path d="M5.56882169,32 L7.19071515,22.198562 L7.42878867,32 L9.2644682,32 L12.6887165,22.198562 L11.1718804,32 L13.8994178,32 L16,19 L11.7821733,19 L9.15545707,26.9762928 L9.01876955,19 L5.13080031,19 L3,32 L5.56882169,32 L5.56882169,32 L5.56882169,32 L5.56882169,32 Z M5.56882169,32" fill="#FFFFFF" id="path4133"/><path d="M45.5270846,31 C46.2433701,26.7837896 46.3761412,23.3602786 48.0854708,23.9869323 C48.3846622,22.3550948 48.6734197,21.7238512 49,21.0332091 C49,21.0332091 48.8468829,21 48.5255195,21 C47.4234414,21 46.6069907,22.5583995 46.6069907,22.5583995 L46.8263629,21.1271667 L44.5350839,21.1271667 L43,31 L45.5270846,31 L45.5270846,31 L45.5270846,31 L45.5270846,31 Z M45.5270846,31" fill="#FFFFFF" id="path4131"/><path d="M61.6005183,21 C59.9030078,21 58.6017319,21.6004726 58.6017319,21.6004726 L58.2427592,23.9477747 C58.2427592,23.9477747 59.3167908,23.4674544 60.9403024,23.4674544 C61.862138,23.4674544 62.535999,23.5815413 62.535999,24.4061442 C62.535999,24.9069712 62.4538656,25.0918209 62.4538656,25.0918209 C62.4538656,25.0918209 61.726736,25.0248129 61.3898055,25.0248129 C59.2490898,25.0248129 57,26.0305107 57,29.0626231 C57,31.4518052 58.4752517,32 59.3897399,32 C61.1363204,32 61.8891659,30.7525535 61.9290517,30.7487987 L61.847968,31.7900223 L64.0277823,31.7900223 L65,24.2859919 C65.0002624,21.1025338 62.4769574,21 61.6005183,21 L61.6005183,21 L61.6005183,21 L61.6005183,21 Z M61.9950626,27.0707486 C62.0470602,27.5857854 61.7073424,30 60.0659511,30 C59.2195455,30 59,29.273691 59,28.8440069 C59,28.006058 59.4052925,27 61.4020009,27 C61.8665129,27.0006491 61.9159106,27.0564691 61.9950626,27.0707486 C61.9950626,27.0707486 61.9159106,27.0564691 61.9950626,27.0707486 L61.9950626,27.0707486 L61.9950626,27.0707486 Z M61.9950626,27.0707486" fill="#FFFFFF" id="path4149_1_"/><path d="M67.5268238,31 C68.2433701,26.7837896 68.3761412,23.3602786 70.0849491,23.9869323 C70.3846622,22.3550948 70.6736805,21.7238512 71,21.0332091 C71,21.0332091 70.8468829,21 70.5255195,21 C69.4234414,21 68.6069907,22.5583995 68.6069907,22.5583995 L68.8263629,21.1271667 L66.5350839,21.1271667 L65,31 L67.5268238,31 L67.5268238,31 L67.5268238,31 L67.5268238,31 Z M67.5268238,31" fill="#FFFFFF" id="path4131_1_"/></g></g></g></svg>