<?xml version="1.0" ?><svg height="121px" version="1.1" viewBox="0 0 121 121" width="121px" xmlns="http://www.w3.org/2000/svg" xmlns:sketch="http://www.bohemiancoding.com/sketch/ns" xmlns:xlink="http://www.w3.org/1999/xlink"><title/><defs><circle cx="50" cy="50" id="path-1" r="50"/><mask fill="white" id="mask-2"><use xlink:href="#path-1"/></mask></defs><g fill="none" fill-rule="evenodd" id="circle" stroke="none" stroke-width="1"><g id="paypal" transform="translate(10.000000, 10.000000)"><use fill="#F4F4F4" id="Oval-3" xlink:href="#path-1"/><g id="pal-+-pay" transform="translate(8.000000, 39.000000)"><path d="M84.179218,0 L81.8196758,0 C81.8183455,0 81.8170152,0.000467968769 81.8161283,0.000467968769 L81.814798,0 C81.2746885,0 80.7265971,0.436614862 80.5736105,0.992093791 C80.5674023,1.01455629 80.5567598,1.03608286 80.5518819,1.05948129 C80.5518819,1.05948129 80.4955651,1.33043521 80.3980084,1.79887195 L77.1569082,17.3026773 C77.0819669,17.6531859 77.0318582,17.8815546 77.0167812,17.9409867 L77.0229894,17.9494101 C76.9107992,18.4913179 77.2194332,18.939632 77.7262846,18.9897047 L77.7329362,19 L80.1820533,19 C80.7186152,19 81.2631591,18.5675969 81.4210236,18.0191375 C81.428562,17.9924632 81.4405349,17.9676609 81.4462996,17.9409867 L84.9818437,1.05854536 L84.9765225,1.05667348 C85.0966946,0.47920002 84.7441601,0 84.179218,0 Z M71.9207526,15.1535632 C71.5568115,15.3632558 71.1721583,15.5427347 70.7692587,15.6956074 C70.2277853,15.8953791 69.7144212,16 69.2395225,16 C68.5106539,16 67.950441,15.905751 67.5717056,15.7041755 C67.192477,15.5129719 66.9937395,15.1806203 67.0001503,14.704866 C67.0001503,14.1556065 67.1387241,13.7294569 67.4257346,13.3953015 C67.7147177,13.0737727 68.1442471,12.8149263 68.6768438,12.6219189 C69.2064817,12.4577724 69.8579265,12.3224868 70.6099728,12.2255321 C71.2786776,12.1484193 72.6007998,12.0090752 72.7699486,12.0081733 C72.9390974,12.0068204 73.0515345,11.9215905 72.9760832,12.3337606 C72.9425494,12.5127885 72.560855,13.9459138 72.3857885,14.5975394 C72.3349946,14.7928016 72.0509429,15.0773523 71.9207526,15.1535632 C71.9207526,15.1535632 72.0509429,15.0773523 71.9207526,15.1535632 Z M76.4172629,4.87188994 C75.3616115,4.29277485 73.7103444,4 71.4508389,4 C70.3334753,4 69.2105015,4.08824611 68.0837876,4.26014217 C67.2567515,4.38469788 67.1716636,4.40538056 66.6578634,4.51522858 C65.6008094,4.74135924 65.4376462,5.78192793 65.4376462,5.78192793 L65.0982295,7.15433877 C64.9056128,8.0322037 65.4142704,7.9958941 65.6410157,7.92787106 C66.1024542,7.79090575 66.3525753,7.65485966 67.2941528,7.44527516 C68.1941214,7.24442334 69.1450493,7.09412918 69.903828,7.10010418 C71.0165164,7.10010418 71.8627206,7.22006373 72.4251425,7.45079054 C72.988032,7.69208849 73.2666716,8.10298443 73.2666716,8.69083221 C73.2685417,8.83055522 73.2722818,8.96246476 73.220855,9.07782817 C73.1745709,9.18537811 73.0857429,9.28925113 72.8197262,9.3246415 C71.2315738,9.41748376 70.0917695,9.55996446 68.7191421,9.75667974 C67.3647478,9.94420272 66.1795943,10.2654737 65.1889276,10.7103812 C64.1328087,11.1709156 63.3427064,11.7872595 62.7980501,12.5681456 C62.2678868,13.3527087 62.0014025,14.3027332 62,15.4218961 C62,16.4794705 62.3866359,17.3421682 63.1346617,18.0118274 C63.8915703,18.672754 64.8761593,19 66.0673905,19 C66.8116762,18.9949442 67.3942013,18.9420885 67.8116932,18.8395943 C68.2249775,18.7371001 68.6756631,18.5914021 69.1515945,18.3887119 C69.5073743,18.2425542 69.891205,18.0311313 70.2965415,17.7659333 C70.7023455,17.4998162 70.9833228,17.3109143 71.3437777,17.0788087 L71.3568682,17.1008702 L71.2554171,17.5407219 C71.2549496,17.5448584 71.2488719,17.5471565 71.2488719,17.5512931 L71.2521445,17.5595661 C71.1362005,18.0895024 71.4601892,18.5302733 71.9940927,18.5822098 L72.0006379,18.5914021 L72.047857,18.5914021 L72.0497271,18.5937002 C72.4041043,18.5937002 73.6205813,18.5932406 74.189081,18.5914021 L74.5860022,18.5914021 C74.6121831,18.5914021 74.6149882,18.5835887 74.6252735,18.5776137 C75.1703974,18.5118887 75.6930804,18.0752543 75.8160372,17.5512931 L77.8464598,8.93580708 C77.8932114,8.7331168 77.9301452,8.49917269 77.9521184,8.22983822 C77.9773643,7.95774605 78.0072853,7.73391347 77.9984025,7.57212894 C78.0030777,6.35276995 77.4701093,5.45146464 76.4172629,4.87188994 L76.4172629,4.87188994 Z M64.4650837,2.76394621 C64.1155484,2.09465814 63.5877076,1.55579306 62.9202415,1.13621164 C62.2357939,0.717558496 61.4225701,0.425615227 60.4810418,0.255276308 C59.5498912,0.0946843034 58.4427936,0.00278483245 57.1814476,0 L51.3124625,0.00278483245 C50.7082052,0.0129958848 50.1152688,0.479919459 49.9756434,1.05498736 L46.0298099,17.9505659 C45.8859391,18.5247055 46.2783997,19.0032325 46.8718078,18.9999836 L49.6879018,18.994878 C50.2850835,18.9999836 50.8935862,18.5247055 51.0346268,17.9505659 L51.9865326,13.8503642 C52.1200258,13.2757604 52.7271134,12.7944486 53.334201,12.8028031 L54.1346887,12.8028031 C57.5696629,12.8028031 60.2329237,12.1084515 62.1400372,10.7262463 C64.0424337,9.33707908 65,7.51487038 65,5.2484809 C64.9938678,4.2589371 64.822638,3.42534392 64.4650837,2.76394621 Z M57.8112623,9.04671299 C57.0208465,9.68153197 55.9115145,9.99992113 54.4841532,9.99992113 L53.8276912,9.99992113 C53.2599403,10.0072686 52.89312,9.50029507 53.0279608,8.8924167 L53.8192636,5.10799425 C53.9372494,4.50942264 54.5134278,4 55.0731948,4.00489829 L55.9403456,4 C56.952539,4.00489829 57.7096881,4.19201315 58.2326399,4.56379372 C58.7467206,4.93998274 58.9959988,5.52336964 58.9999908,6.300729 C59.0022085,7.48562648 58.6052264,8.39719911 57.8112623,9.04671299" fill="#306FC5" id="pal"/><path d="M43.6521816,4.00007213 C43.1205273,4.00007213 42.4232005,4.405905 42.0931074,4.89636839 C42.0931074,4.89636839 38.5367824,10.6473076 38.187493,11.2220078 C37.9976164,11.5310077 37.805236,11.3345861 37.7731031,11.2196461 C37.7472298,11.0799073 36.6709845,4.93415691 36.6709845,4.93415691 C36.5499643,4.43936358 36.0020348,4.01463645 35.31681,4.0166046 L33.0992189,4.01975364 C32.5646434,4.01975364 32.2312119,4.42361836 32.3501455,4.91171998 C32.3501455,4.91171998 34.0452631,13.9746648 34.3757735,16.106173 C34.5406114,17.2850959 34.3586638,17.4941136 34.3586638,17.4941136 L32.1611036,21.1084273 C31.8393568,21.5984971 32.015462,22 32.5475337,22 L35.1173353,21.9980318 C35.649407,21.9980318 36.3542454,21.5984971 36.6709845,21.10764 L46.5570841,5.33605348 C46.5570841,5.33605348 47.502711,3.98865685 46.6305308,4.00007213 C46.0358625,4.00794473 43.6521816,4.00007213 43.6521816,4.00007213 Z M25.9213708,14.1540255 C25.5574569,14.3637154 25.1733255,14.5422899 24.7704559,14.6956115 C24.229023,14.8944787 23.7132317,15 23.2398477,15 C22.513006,15 21.9513556,14.9053014 21.5721553,14.7046305 C21.1934481,14.5129785 20.9937392,14.1806313 21.0001496,13.7044325 C21.0001496,13.1565333 21.1401924,12.7290366 21.4266883,12.3953366 C21.7161429,12.0733613 22.1436679,11.8140674 22.6762249,11.6215135 C23.2073025,11.4564673 23.8606711,11.3229873 24.6101957,11.226034 C25.2788506,11.1489222 26.6023534,11.0100309 26.7709965,11.0077762 C26.9386533,11.0073252 27.0515751,10.9211946 26.9761295,11.3333591 C26.9435844,11.5123846 26.5614254,12.9463925 26.386372,13.5975583 C26.3336094,13.7937198 26.049579,14.0782666 25.9213708,14.1540255 C25.9213708,14.1540255 26.049579,14.0782666 25.9213708,14.1540255 Z M30.4170927,4.87143032 C29.3614537,4.29231523 27.7106737,4 25.4511948,4 C24.3333769,4 23.2108839,4.08732688 22.0837158,4.25968256 C21.2552869,4.38331903 21.17207,4.40446133 20.6578084,4.51430935 C19.6002993,4.74135924 19.4376056,5.7810087 19.4376056,5.7810087 L19.0981929,7.15433877 C18.906046,8.03174409 19.4151651,7.99543449 19.6409728,7.92741145 C20.1014707,7.79044613 20.3529914,7.65485966 21.2945578,7.44435593 C22.1931133,7.24442334 23.1454324,7.0945888 23.9032671,7.09964456 C25.0168774,7.09964456 25.8621366,7.2191445 26.4245519,7.44987131 C26.9879022,7.69116926 27.265136,8.10298443 27.265136,8.69037259 C27.2688761,8.8300956 27.2716812,8.96246476 27.2216575,9.07690893 C27.174439,9.18537811 27.0846769,9.28879152 26.8186634,9.32372227 C25.2323998,9.41794338 24.0930764,9.55996446 22.7181277,9.75667974 C21.3637494,9.94420272 20.1790775,10.2654737 19.187955,10.7099216 C18.1318485,11.1704559 17.3426905,11.7877191 16.7989757,12.5681456 C16.2669486,13.3522491 16.000935,14.3022736 16,15.4218961 C16,16.4790109 16.3870988,17.3421682 17.1341808,18.0113678 C17.891548,18.6722944 18.8751903,19 20.0664074,19 C20.8111518,18.9949442 21.3932026,18.9411693 21.8120921,18.8395943 C22.224904,18.7361809 22.6760517,18.5914021 23.1501075,18.3887119 C23.5072856,18.2425542 23.8901768,18.030212 24.295976,17.7654737 C24.7008402,17.4998162 24.9832167,17.3109143 25.3450699,17.0788087 L25.3562901,17.1004106 L25.2548403,17.5398027 C25.2539053,17.5439392 25.2482952,17.5466969 25.2482952,17.5517527 L25.2525028,17.5586469 C25.1365602,18.089962 25.45961,18.5302733 25.9939746,18.5812906 L26.0005198,18.5914021 L26.0472709,18.5914021 L26.0486734,18.5946194 C26.4039815,18.5946194 27.6209116,18.592781 28.188002,18.5914021 L28.585386,18.5914021 C28.6120341,18.5914021 28.6157742,18.5826694 28.6241894,18.5771541 C29.1707093,18.5095906 29.6915162,18.0738755 29.815874,17.5517527 L31.8462726,8.93534747 C31.8920887,8.7331168 31.9294895,8.49917269 31.95006,8.23029783 C31.9771756,7.95682682 32.0066288,7.73391347 31.9986811,7.57258855 C32.0033562,6.35231033 31.4694591,5.45100503 30.4170927,4.87143032 L30.4170927,4.87143032 Z M17.4932371,2.61847536 C17.1620985,1.98441298 16.6620388,1.47390922 16.0297025,1.07641103 C15.3812784,0.679792259 14.6108559,0.403214425 13.7188817,0.241840713 C12.836739,0.089700919 11.7879097,0.00263826232 10.5929504,0 L5.03285922,0.00263826232 C4.46040489,0.0123118908 3.8986757,0.454660541 3.76639898,0.999461711 L0.0282409121,17.0057992 C-0.108057738,17.549721 0.263747105,18.0030624 0.825923177,17.9999844 L3.49380168,17.9951476 C4.0595528,17.9999844 4.63602906,17.549721 4.76964642,17.0057992 L5.67145192,13.1213977 C5.79791919,12.5770362 6.37305481,12.1210565 6.94819042,12.1289713 L7.70654717,12.1289713 C10.9607333,12.1289713 13.4838224,11.4711646 15.2905616,10.1617071 C17.0928319,8.84565386 18,7.11935088 18,4.97224506 C17.9941905,4.03478251 17.8319728,3.24506266 17.4932371,2.61847536 Z M11.8112623,7.20559415 C11.0208465,7.73460998 9.91151448,7.99993427 8.48415319,7.99993427 L7.82769119,7.99993427 C7.25994028,8.00605714 6.89311996,7.58357923 7.0279608,7.07701392 L7.81926364,3.92332854 C7.93724938,3.42451887 8.51342785,3 9.07319477,3.00408191 L9.94034558,3 C10.952539,3.00408191 11.7096881,3.16001096 12.2326399,3.4698281 C12.7467206,3.78331895 12.9959988,4.2694747 12.9999908,4.91727417 C13.0022085,5.90468873 12.6052264,6.6643326 11.8112623,7.20559415" fill="#265697" id="pay"/></g></g></g></svg>