<?xml version="1.0" ?><svg height="121px" version="1.1" viewBox="0 0 121 121" width="121px" xmlns="http://www.w3.org/2000/svg" xmlns:sketch="http://www.bohemiancoding.com/sketch/ns" xmlns:xlink="http://www.w3.org/1999/xlink"><title/><defs><circle cx="50" cy="50" id="path-1" r="50"/><mask fill="white" id="mask-2"><use xlink:href="#path-1"/></mask></defs><g fill="none" fill-rule="evenodd" id="circle" stroke="none" stroke-width="1"><g id="square" transform="translate(10.000000, 10.000000)"><use fill="#F4F4F4" id="Oval-3" xlink:href="#path-1"/><path d="M30.0008158,81 C24.4996941,81 20,76.4995819 20,70.999796 L20,70.999796 L20,31.0006119 C20,25.4991944 24.4996941,21 30.0008158,21 L30.0008158,21 L69.9991842,21 C75.5003059,21 80,25.4991944 80,31.0006119 L80,31.0006119 L80,70.999796 C80,76.4995819 75.5003059,81 69.9991842,81 L69.9991842,81 L30.0008158,81 L30.0008158,81 L30.0008158,81 L30.0008158,81 Z M31,36.0820814 L31,66.9183139 C31,68.6135378 32.3875593,70 34.0814885,70 L34.0814885,70 L64.9196974,70 C66.614022,70 68,68.6135378 68,66.9183139 L68,66.9183139 L68,36.0820814 C68,34.3868576 66.614022,33 64.9196974,33 L64.9196974,33 L34.0814885,33 C32.3875593,33 31,34.3868576 31,36.0820814 L31,36.0820814 Z M44.666542,59 C43.748953,59 43,58.2497943 43,57.3327931 L43,57.3327931 L43,45.6675808 C43,44.7502057 43.748953,44 44.666542,44 L44.666542,44 L56.3327101,44 C57.2495513,44 58,44.7502057 58,45.6675808 L58,45.6675808 L58,57.3327931 C58,58.2497943 57.2495513,59 56.3327101,59 L56.3327101,59 L44.666542,59 L44.666542,59 L44.666542,59 L44.666542,59 Z M44.666542,59" fill="#5F5F5F" id="path150"/></g></g></svg>