<?xml version="1.0" ?><svg height="121px" version="1.1" viewBox="0 0 121 121" width="121px" xmlns="http://www.w3.org/2000/svg" xmlns:sketch="http://www.bohemiancoding.com/sketch/ns" xmlns:xlink="http://www.w3.org/1999/xlink"><title/><defs><circle cx="50" cy="50" id="path-1" r="50"/><mask fill="white" id="mask-2"><use xlink:href="#path-1"/></mask></defs><g fill="none" fill-rule="evenodd" id="circle" stroke="none" stroke-width="1"><g id="unionpay" transform="translate(10.000000, 10.000000)"><use fill="#F4F4F4" id="Oval-2" xlink:href="#path-1"/><path d="M84.2350195,24.0053657 L65.440442,24 L65.4355982,24 C65.4210709,24 65.4068628,24.0028641 65.3926586,24.0028641 C62.8107137,24.0904877 59.5949817,26.3844828 59.0093055,29.2131694 L50.1211763,72.778933 C49.5354999,75.6340331 51.1288345,77.9572492 53.6920549,78 L73.4365008,78 C75.9606517,77.8616885 78.4134511,75.5940765 78.9891208,72.7975316 L87.8775771,29.2314101 C88.4726137,26.3472851 86.8408564,24.0053657 84.2350195,24.0053657" fill="#01798A" id="path22" mask="url(#mask-2)"/><path d="M51.4686662,72.7794517 L60.5080351,29.2180166 C61.1036771,26.3896108 64.3741221,24.0958435 67,24.008229 L59.4001555,24.0028638 L45.7076245,24 C43.0744233,24.05865 39.7613583,26.3685127 39.1659449,29.2180166 L30.1239165,72.7794517 C29.5260762,75.6342681 31.1488868,77.9572534 33.7540782,78 L55.1003047,78 C52.49347,77.9572534 50.873024,75.6342681 51.468666,72.7794517" fill="#335A91" id="path20" mask="url(#mask-2)"/><path d="M30.5728058,72.7799351 L39.5240204,29.22254 C40.1134518,26.3732955 43.3932449,24.0636514 46,24.0050068 L28.6351542,24 C26.0138364,24 22.6530055,26.3361097 22.0539526,29.22254 L13.102724,72.7799351 C13.0482512,73.0457628 13.0180304,73.306265 13,73.561189 L13,74.3692618 C13.1752275,76.4500897 14.6198419,77.9653588 16.6964079,78 L34.1665088,78 C31.5874821,77.9572574 29.9809698,75.6344873 30.5728058,72.7799353" fill="#CA4638" id="path16" mask="url(#mask-2)"/><g id="Group" transform="translate(22.000000, 23.000000)"><path d="M22.6941893,32.3950391 L23.0378546,32.3950391 C23.3536479,32.3950391 23.5661021,32.2668773 23.6656982,32.0131039 L24.5586863,30.3965517 L26.95007,30.3965517 L26.4514002,31.4597947 L29.3186813,31.4597947 L28.9549614,33.0888873 L25.5431127,33.0888873 C25.1501596,33.8039515 24.6664444,34.1401245 24.0848303,34.1002825 L22.3076923,34.1002825 L22.6941887,32.3950391 L22.6941893,32.3950391 Z M22.1990415,34.8448276 L28.043956,34.8448276 L27.6713733,36.2902798 L25.3207577,36.2902798 L24.9620935,37.6854905 L27.2494524,37.6854905 L26.8768697,39.1308054 L24.5895108,39.1308054 L24.0581534,41.1924729 C23.9265785,41.537085 24.0995882,41.6920454 24.57433,41.6568822 L26.4385019,41.6568822 L26.0931192,43 L22.5140604,43 C21.8356305,43 21.60291,42.5879151 21.8157064,41.7618344 L22.4950804,39.1308054 L21.032967,39.1308054 L21.4043798,37.6854905 L22.8667132,37.6854905 L23.2250647,36.2902798 L21.8274089,36.2902798 L22.1990418,34.8448276 L22.1990418,34.8448276 L22.1990415,34.8448276 L22.1990415,34.8448276 Z M31.4073554,30.4319436 L31.3177716,31.3446414 C31.3177716,31.3446414 32.3909183,30.3965517 33.3655561,30.3965517 L36.967033,30.3965517 L35.5897353,36.2633903 C35.4755224,36.9341031 34.9857439,37.2676311 34.1206966,37.2676311 L30.0386744,37.2676311 L29.0825102,41.3872824 C29.0274048,41.6080394 29.1052905,41.7212436 29.3112367,41.7212436 L30.114403,41.7212436 L29.8191808,43 L27.777247,43 C26.9934752,43 26.6674648,42.7226585 26.7967618,42.165548 L29.498713,30.4319436 L31.4073512,30.4319436 L31.4073549,30.4319436 L31.4073549,30.4319436 L31.4073554,30.4319436 L31.4073554,30.4319436 Z M34.4175824,31.8793103 L31.0019594,31.8793103 L30.5934066,33.362069 C30.5934066,33.362069 31.1622413,32.9360732 32.1128078,32.9208371 C33.0607551,32.9054335 34.1428141,32.9208371 34.1428141,32.9208371 L34.4175824,31.8793103 L34.4175824,31.8793103 L34.4175824,31.8793103 L34.4175824,31.8793103 Z M33.1408906,35.5816309 C33.4013451,35.6055483 33.5470907,35.5357607 33.5646349,35.3710563 L33.7802198,34.8448276 L30.2519248,34.8448276 L29.956044,35.5816309 L33.1408906,35.5816309 L33.1408906,35.5816309 L33.1408906,35.5816309 L33.1408906,35.5816309 Z M30.7336089,37.0689655 L32.5655968,37.0689655 L32.5315588,38.1066478 L33.0193369,38.1066478 C33.2658098,38.1066478 33.3879835,38.0033401 33.3879835,37.7994631 L33.5323421,37.128161 L35.0549451,37.128161 L34.851629,38.1066478 C34.6796133,38.9227917 34.223744,39.3485663 33.4828041,39.3902169 L32.5069402,39.3902169 L32.5023808,41.1640444 C32.4844509,41.4481193 32.6807774,41.5929223 33.084983,41.5929223 L34.0021939,41.5929223 L33.7061793,42.997388 L31.5061569,42.997388 C30.8895164,43.0357752 30.5871245,42.6511751 30.5935055,41.8353469 L30.7336089,37.0689658 L30.7336089,37.0689655 Z M30.7336089,37.0689655" fill="#FFFFFF" id="path24"/><path d="M8.70289132,22.331221 C8.45371321,23.7287862 7.87609032,24.8022 6.98010481,25.5644716 C6.09225828,26.313838 4.94709661,26.6896552 3.54507794,26.6896552 C2.22565083,26.6896552 1.25835183,26.3059196 0.641076328,25.5358659 C0.21297034,24.9887301 0,24.2938886 0,23.4537879 C0,23.1064363 0.0363277204,22.7330616 0.108831753,22.3312212 L1.60264693,14.0862072 L3.85877445,14.0862072 L2.38528795,22.2378677 C2.3399384,22.4635048 2.32183549,22.6735136 2.32421267,22.8627985 C2.32183549,23.2803374 2.41241171,23.6224917 2.59588184,23.8894313 C2.86316212,24.2862487 3.29696749,24.4831754 3.90064917,24.4831754 C4.59484758,24.4831754 5.16686398,24.2888654 5.61081833,23.8972112 C6.05486387,23.5083124 6.34475785,22.9561515 6.47498424,22.2378674 L7.95310441,14.0862069 L10.1978022,14.0862069 L8.70289132,22.331221" fill="#FFFFFF" id="path28"/><path d="M18.6066109,19.2758621 L20.3956044,19.2758621 L18.9942666,26.6896552 L17.2087912,26.6896552 L18.6066109,19.2758621 M19.4217338,16.3103448 L21.032967,16.3103448 L20.732003,18.5344828 L19.1208791,18.5344828 L19.4217338,16.3103448" fill="#FFFFFF" id="path34"/><path d="M21.0800213,26.6415976 C20.6266927,26.1088856 20.3978159,25.3903575 20.3956044,24.4778526 C20.3956044,24.3220305 20.4033171,24.144558 20.4201186,23.9504334 C20.4368287,23.7536994 20.4579655,23.5624422 20.4878605,23.3849697 C20.693389,22.1255315 21.1311718,21.125576 21.8054545,20.3878223 C22.4786916,19.6474592 23.2909417,19.2758621 24.2419016,19.2758621 C25.0206692,19.2758621 25.6382984,19.5436527 26.0906109,20.0791218 C26.5426239,20.6174203 26.7692308,21.3439986 26.7692308,22.2677168 C26.7692308,22.4259258 26.759363,22.6090234 26.7426237,22.8057212 C26.7225928,23.0051744 26.6983795,23.1964316 26.6702765,23.3849694 C26.4693826,24.6252924 26.0329155,25.6143663 25.3584812,26.3384836 C24.6840506,27.0679292 23.8741909,27.4310345 22.9298071,27.4310345 C22.1477551,27.4310345 21.5322132,27.1688686 21.0800213,26.6415973 M24.4201119,24.9997075 C24.7399233,24.6170363 24.9689819,24.0364619 25.1085448,23.26355 C25.1295119,23.1428806 25.1479734,23.0169597 25.1595516,22.891142 C25.1711296,22.7677772 25.1758242,22.6522225 25.1758242,22.5469307 C25.1758242,22.097428 25.0722483,21.748239 24.8641531,21.501615 C24.6573108,21.2524324 24.3631615,21.1293103 23.9829581,21.1293103 C23.4804041,21.1293103 23.071097,21.3242399 22.7503499,21.7147546 C22.4267875,22.1052716 22.1977289,22.695936 22.0534676,23.4818401 C22.0337532,23.6025096 22.0174844,23.7233159 22.0024608,23.841429 C21.9908828,23.9620985 21.9874409,24.0750968 21.9896336,24.1777964 C21.9896336,24.6247431 22.0932095,24.9689541 22.3013047,25.212849 C22.508147,25.456917 22.8010433,25.5775862 23.1862548,25.5775862 C23.6910015,25.5775862 24.1003046,25.3849706 24.4201119,24.9997072" fill="#FFFFFF" id="path36"/><path d="M42.0659341,0.00648187931 L35.0549451,0 L42.0258776,0.0138919655 C42.0391281,0.0138919655 42.0523822,0.00648262069 42.0659341,0.00648262069" fill="#E02F41" id="path14"/><path d="M35.0549451,0.0203849655 L22.4055134,0 C22.3737225,0 22.3407075,0.00648187931 22.3076923,0.0129756207 L35.0549451,0.0203857069" fill="#2E4F7D" id="path18"/><path d="M38.7651703,32.1819234 L39.1961063,30.3965517 L41.3748338,30.3965517 L41.2808154,31.0517318 C41.2808154,31.0517318 42.3942217,30.3965517 43.1959859,30.3965517 L45.8901099,30.3965517 L45.4619472,32.1819234 L45.0381006,32.1819234 L43.0057929,40.6023056 L43.4296395,40.6023056 L43.026447,42.2745317 L42.6026004,42.2745317 L42.4262812,43 L40.3162934,43 L40.4923078,42.2745317 L36.3296703,42.2745317 L36.7353311,40.6023056 L37.1523971,40.6023056 L39.1865524,32.1819234 L38.7651706,32.1819234 L38.7651703,32.1819234 Z M41.2768571,32.6206899 L40.7912088,34.8448276 C40.7912088,34.8448276 41.6221303,34.426491 42.3383175,34.3080592 C42.4965138,33.5313819 42.7032967,32.6206897 42.7032967,32.6206897 L41.2768569,32.6206897 L41.2768569,32.6206897 L41.2768571,32.6206899 L41.2768571,32.6206899 Z M40.0022436,36.3275862 L39.5164835,38.5517241 C39.5164835,38.5517241 40.4344461,37.9837624 41.0644533,37.9359485 C41.2463776,37.0763493 41.4285714,36.3275865 41.4285714,36.3275865 L40.0022436,36.3275865 L40.0022436,36.3275865 L40.0022436,36.3275862 L40.0022436,36.3275862 Z M41.0387225,40.7758621 L41.4285714,38.5517241 L39.9083549,38.5517241 L39.5164835,40.7758621 L41.0387225,40.7758621 L41.0387225,40.7758621 L41.0387225,40.7758621 L41.0387225,40.7758621 Z M45.8901099,30.3965517 L48.1878908,30.3965517 L48.2854064,31.3612645 C48.2701894,31.6068591 48.3984807,31.724146 48.6709645,31.724146 L49.0769231,31.724146 L48.6661228,33.3586755 L46.9772797,33.3586755 C46.3323782,33.3966426 46.0007614,33.1161501 45.9699896,32.5105846 L45.8901099,30.3965517 L45.8901099,30.3965517 L45.8901099,30.3965517 L45.8901099,30.3965517 Z M45.6292996,34.1034483 L52.2637363,34.1034483 L51.874436,35.6215316 L49.7621048,35.6215316 L49.3999294,37.033001 L51.5101044,37.033001 L51.1183361,38.5486015 L48.7680489,38.5486015 L48.2363446,39.4368422 L49.3866775,39.4368422 L49.6523753,41.2152973 C49.6841205,41.3924076 49.82622,41.4784263 50.0691087,41.4784263 L50.4263513,41.4784263 L50.0509201,42.9430665 L48.7862374,42.9430665 C48.1309309,42.9787064 47.7921815,42.7357969 47.7644397,42.2121613 L47.4595954,40.5879376 L46.4128327,42.3158814 C46.1653195,42.8041183 45.7849555,43.0319148 45.272057,42.996408 L43.3406593,42.996408 L43.7163953,41.5313605 L44.318995,41.5313605 C44.5665082,41.5313605 44.7724066,41.4099391 44.9579644,41.1646114 L46.5962309,38.5486015 L44.4838997,38.5486015 L44.8753596,37.033001 L47.1664645,37.033001 L47.5307958,35.6215316 L45.237535,35.6215316 L45.6292996,34.1034483 L45.6292996,34.1034483 Z M45.6292996,34.1034483" fill="#FFFFFF" id="path26"/><path d="M10.8066939,19.4591907 L12.3515469,19.4591907 L12.1748576,20.5029868 L12.3965777,20.2051455 C12.8973654,19.5840128 13.5056156,19.2758621 14.22375,19.2758621 C14.8737793,19.2758621 15.3425984,19.4949188 15.6369137,19.9352571 C15.9267081,20.3757667 16.005776,20.9842946 15.8686784,21.7658752 L15.0175835,26.6896552 L13.4298874,26.6896552 L14.1984572,22.2266984 C14.2776443,21.7658755 14.2557203,21.4221324 14.1336037,21.2005417 C14.0129927,20.9790888 13.7822612,20.8697486 13.4496237,20.8697486 C13.0411696,20.8697486 12.6974521,21.017213 12.4174663,21.3101222 C12.1362993,21.6054273 11.9508348,22.0154169 11.8596535,22.537247 L11.1514449,26.6896552 L9.56043956,26.6896552 L10.8066939,19.4591907" fill="#FFFFFF" id="path30"/><path d="M29.2901224,19.4591907 L30.8365238,19.4591907 L30.6609927,20.5029868 L30.8802621,20.2051455 C31.3814455,19.5840128 31.9919696,19.2758621 32.7079893,19.2758621 C33.3581108,19.2758621 33.827972,19.4949188 34.1199321,19.9352571 C34.4080542,20.3757667 34.49139,20.9842946 34.3507269,21.7658752 L33.5029075,26.6896552 L31.9127713,26.6896552 L32.6816882,22.2266984 C32.760587,21.7658755 32.7387195,21.4221324 32.6178572,21.2005417 C32.4925613,20.9790888 32.2661998,20.8697486 31.9349346,20.8697486 C31.5262457,20.8697486 31.1837476,21.017213 30.9003546,21.3101222 C30.6190289,21.6054273 30.4325639,22.0154169 30.3447949,22.537247 L29.6332085,26.6896552 L28.043956,26.6896552 L29.2901219,19.4591907" fill="#FFFFFF" id="path32"/><path d="M37.2008618,14.0862069 L41.8468293,14.0862069 C42.7401185,14.0862069 43.4309573,14.330243 43.9058915,14.8094685 C44.3786828,15.2945933 44.6153846,15.9905765 44.6153846,16.8974189 L44.6153846,16.9246975 C44.6153846,17.0972196 44.6059063,17.2918565 44.5924484,17.5027193 C44.5695121,17.7109957 44.5398489,17.9218549 44.5016218,18.141193 C44.2970322,19.341284 43.8217919,20.3057806 43.087832,21.0372999 C42.3511207,21.7660559 41.4786251,22.1332532 40.4740182,22.1332532 L37.9825272,22.1332532 L37.2121768,26.6896552 L35.0549451,26.6896552 L37.2008616,14.0862072 M38.2417588,20.387931 L40.5294078,20.387931 C41.1256105,20.387931 41.5985773,20.206302 41.9435673,19.8470812 C42.2858545,19.4843538 42.5123489,18.9305037 42.6379531,18.1787449 C42.6579311,18.0398828 42.6704575,17.9147738 42.6856911,17.799424 C42.6934774,17.6907311 42.7032967,17.5815941 42.7032967,17.4764471 C42.7032967,16.9387465 42.5577145,16.5496707 42.2655374,16.3056645 C41.9736994,16.0581055 41.5159702,15.9396552 40.8815059,15.9396552 L38.9388512,15.9396552 L38.2417582,20.387931" fill="#FFFFFF" id="path38"/><path d="M54.2859628,28.1210629 C53.619109,29.7865449 52.9836555,30.7575602 52.6104578,31.2092412 C52.2366616,31.6558628 51.4968445,32.694951 49.7142857,32.61648 L49.8676919,31.3452118 C51.3676622,30.8021684 52.1789497,28.3557023 52.6412596,27.2724282 L52.0901328,19.294126 L53.2503976,19.2758621 L54.2237607,19.2758621 L54.3284236,24.280599 L56.1528483,19.2758621 L58,19.2758621 L54.2859626,28.1210629" fill="#FFFFFF" id="path40"/><path d="M48.6265685,20.220758 L47.8944071,20.8441631 C47.1294276,20.1028753 46.4309804,19.6442705 45.08302,20.4184741 C43.2466511,21.4727768 41.7122195,29.5591265 46.7681216,26.8956819 L47.0563323,27.3184894 L49.0454546,27.3816981 L50.3516484,20.0340141 L48.6265685,20.2207583 M47.6317344,24.1328906 C47.2833752,25.3392236 46.5053362,26.1366859 45.8961129,25.909663 C45.2868892,25.688292 45.0692841,24.5244628 45.4221972,23.3154561 C45.7702347,22.1063002 46.5534752,21.3116632 47.1578187,21.5387234 C47.7670463,21.7600943 47.9869267,22.9237326 47.6317344,24.1328906" fill="#FFFFFF" id="path42"/></g></g></g></svg>