<?xml version="1.0" ?><svg height="121px" version="1.1" viewBox="0 0 121 121" width="121px" xmlns="http://www.w3.org/2000/svg" xmlns:sketch="http://www.bohemiancoding.com/sketch/ns" xmlns:xlink="http://www.w3.org/1999/xlink"><title/><defs><circle cx="50" cy="50" id="path-1" r="50"/><mask fill="white" id="mask-2"><use xlink:href="#path-1"/></mask></defs><g fill="none" fill-rule="evenodd" id="circle" stroke="none" stroke-width="1"><g id="western_uinion" transform="translate(10.000000, 10.000000)"><use fill="#000000" id="Oval-3" xlink:href="#path-1"/><path d="M32.6421843,61.1015201 C31.9494061,60.9511987 31.1657468,60.5778561 30.7448761,60.1976247 C30.5571722,60.028046 30.2848406,59.6463673 30.1362214,59.3445833 L29.8672613,58.798435 L29.8434543,55.0628802 L29.8196474,51.3273246 L31.8030956,51.3273246 L33.7865438,51.3273246 L33.7867088,54.524634 C33.7867913,57.4056862 33.801107,57.7498974 33.9311034,58.0045534 C34.1120208,58.3589605 34.2787999,58.462602 34.5561655,58.3929882 C35.0090051,58.2793232 35.0242119,58.1557915 35.0242119,54.590615 L35.0242119,51.3273246 L37.0457366,51.3273246 L39.0672613,51.3273246 L39.0672613,54.6990223 C39.0672613,56.6188288 39.0314588,58.259504 38.9841189,58.5091293 C38.7208149,59.8975248 37.7720977,60.7679677 36.1622198,61.0982081 C35.3668983,61.2613551 33.3873917,61.2632182 32.6421843,61.1015168 L32.6421843,61.1015201 L32.6421843,61.1015201 L32.6421843,61.1015201 L32.6421843,61.1015201 Z M64.4964408,61.0615864 C63.6631865,60.8432972 63.1241012,60.5353695 62.5286318,59.9375658 C61.6083925,59.0137183 61.2366069,57.9250481 61.2366069,56.1542305 C61.2366069,54.3827073 61.6152665,53.2862876 62.5512844,52.3475452 C63.4449023,51.4513249 64.5122896,51.0826566 66.2134496,51.0826566 C67.9229202,51.0826566 68.9899387,51.4510584 69.8913967,52.3525165 C70.8317539,53.2928737 71.2004618,54.3636555 71.2004618,56.1542305 C71.2004618,57.9514311 70.8379307,59.0122934 69.9049335,59.9452914 C68.9655838,60.8846402 67.9548908,61.2315941 66.1796233,61.2241268 C65.3926075,61.2208181 64.9359063,61.1767143 64.4964408,61.0615864 C64.4964408,61.0615864 64.9359063,61.1767143 64.4964408,61.0615864 L64.4964408,61.0615864 L64.4964408,61.0615864 Z M66.6053647,58.378953 C67.1492678,57.997988 67.2872819,55.1926242 66.8100362,54.2186585 C66.5395785,53.6667056 65.9176601,53.6628655 65.6378077,54.2114223 C65.1325181,55.2018712 65.3202872,58.2166188 65.9018262,58.4504209 C66.1123412,58.535056 66.4283253,58.5029574 66.6053647,58.3789546 L66.6053647,58.378953 L66.6053647,58.378953 L66.6053647,58.378953 L66.6053647,58.378953 Z M86.7905382,50.4197013 L86.7905382,39.7757554 L87.5331424,39.7757554 L88.2757432,39.7757554 L88.2757432,50.4197013 L88.2757432,61.0636475 L87.5331424,61.0636475 L86.7905382,61.0636475 L86.7905382,50.4197013 L86.7905382,50.4197013 L86.7905382,50.4197013 L86.7905382,50.4197013 Z M94.5973094,50.5434681 L94.5973094,40.0232891 L95.2986547,40.0232891 L96,40.0232891 L96,50.5434681 L96,61.0636475 L95.2986547,61.0636475 L94.5973094,61.0636475 L94.5973094,50.5434681 L94.5973094,50.5434681 L94.5973094,50.5434681 L94.5973094,50.5434681 Z M41.8726424,56.1542305 L41.8726424,51.3273246 L44.2576645,51.3273246 L46.6426857,51.3273246 L46.886451,52.0080421 C47.0205218,52.3824367 47.4046165,53.4754669 47.739994,54.4369981 L48.3497725,56.1852365 L48.3716281,53.7562806 L48.3934836,51.3273246 L50.0424801,51.3273246 L51.6914765,51.3273246 L51.6914765,56.1542305 L51.6914765,60.9811363 L49.3192792,60.9801296 L46.9470819,60.979123 L46.0807142,58.4658761 L45.2143465,55.9526267 L45.1925264,58.4668819 L45.1707063,60.9811363 L43.5216744,60.9811363 L41.8726424,60.9811363 L41.8726424,56.1542305 L41.8726424,56.1542305 L41.8726424,56.1542305 L41.8726424,56.1542305 Z M54.6618801,56.1542305 L54.6618801,51.3273246 L56.6421492,51.3273246 L58.6224182,51.3273246 L58.6224182,56.1542305 L58.6224182,60.9811363 L56.6421492,60.9811363 L54.6618801,60.9811363 L54.6618801,56.1542305 L54.6618801,56.1542305 L54.6618801,56.1542305 L54.6618801,56.1542305 Z M73.804481,56.1542305 L73.804481,51.3273246 L76.1867521,51.3273246 L78.5690232,51.3273246 L79.4253171,53.7820331 L80.281611,56.2367417 L80.3034666,53.7820331 L80.3253222,51.3273246 L81.9743186,51.3273246 L83.6233151,51.3273246 L83.6233151,56.1542305 L83.6233151,60.9811363 L81.2468115,60.9811363 L78.8703079,60.9811363 L78.0082465,58.4891376 L77.146185,55.997139 L77.1243476,58.4891376 L77.1025094,60.9811363 L75.4534956,60.9811363 L73.804481,60.9811363 L73.804481,56.1542305 L73.804481,56.1542305 L73.804481,56.1542305 L73.804481,56.1542305 Z M32.8250151,49.8392242 C31.8840176,49.6711241 30.9290362,49.1796807 30.5320945,48.6592627 C30.2329972,48.2671266 30.0148078,47.669563 29.944807,47.0508366 L29.8872018,46.5416747 L31.8368724,46.5416747 C33.7472825,46.5416747 33.7865438,46.5450824 33.7865438,46.7107947 C33.7865438,46.9493502 34.0065335,47.3462399 34.1945295,47.4468524 C34.4950931,47.6077085 34.857649,47.5460438 35.1130699,47.2906224 C35.6379889,46.7657034 35.3880163,46.5834988 33.2868443,45.9594905 C31.1159851,45.3147867 30.6981525,45.0702861 30.3335924,44.2313608 C30.0015342,43.4672295 30.0377418,42.2256016 30.4135655,41.4889266 C30.7987171,40.7339664 31.7062439,40.1406712 32.8448895,39.8994496 C33.6239101,39.7344148 35.5086031,39.7380272 36.3223658,39.9061165 C37.8683462,40.2254473 38.693238,41.0539284 38.8009233,42.3954592 L38.8423209,42.9111831 L37.0157776,42.9111831 L35.1892344,42.9111831 L35.1892344,42.7192884 C35.1892344,42.4356174 34.8619743,42.1685822 34.5143265,42.1685822 C34.2330912,42.1685822 33.7865438,42.4234181 33.7865438,42.5839131 C33.7865438,42.7900748 34.2163406,42.9985121 35.1332035,43.2369984 C37.173794,43.7677807 37.8252241,44.0369562 38.3817491,44.5793222 C38.9156477,45.099637 39.0987187,45.6000131 39.0997105,46.5416764 C39.1002055,46.9727975 39.0516733,47.4740531 38.9919516,47.6555774 C38.6813811,48.5995634 37.9328831,49.2812141 36.8037659,49.6483403 C36.2073385,49.8422647 35.9879487,49.8673944 34.6941671,49.8899785 C33.8999967,49.903842 33.0588782,49.8810029 32.8250151,49.8392259 C32.8250151,49.8392259 33.0588782,49.8810029 32.8250151,49.8392259 L32.8250151,49.8392242 L32.8250151,49.8392242 Z M5.98026592,49.6061168 C5.98026592,49.5670758 5.53476248,47.4785111 4.9902583,44.9648616 C4.44575403,42.451212 4.00019349,40.3103233 4.00012377,40.2073303 L4,40.0200711 L5.79173622,40.0423079 L7.58347236,40.0645447 L7.91402201,42.5560111 C8.09582432,43.9263177 8.25403445,45.0380144 8.26560022,45.0264488 C8.27716598,45.0148823 8.43620436,43.9865484 8.61901883,42.7412603 C8.80183331,41.4959731 8.97275842,40.3749931 8.99885234,40.2501949 L9.0462958,40.0232891 L11.0940499,40.0232891 L13.141804,40.0232891 L13.2281297,40.5389841 C13.2756091,40.8226164 13.4305867,41.8715402 13.5725241,42.8699258 C13.7144615,43.8683115 13.8560565,44.7516031 13.8871798,44.8327949 C13.918303,44.9139876 14.0909528,43.8650639 14.2708462,42.5018532 L14.5979256,40.0232891 L16.3949265,40.0232891 C18.0511856,40.0232891 18.1919621,40.0345989 18.192359,40.1676837 C18.1926065,40.2471007 17.7381389,42.4192084 17.1824556,44.9945895 L16.1721223,49.6771004 L14.0153741,49.6771004 L11.8586251,49.6771004 L11.7708836,49.0788941 C11.7226252,48.7498807 11.5639273,47.6266968 11.4182207,46.5829303 C11.2725142,45.5391635 11.1299563,44.6580205 11.1014239,44.6248345 C11.0728923,44.5916493 10.8870746,45.7148332 10.6884949,47.1207986 L10.327441,49.6771004 L8.15385503,49.6771004 C6.95837964,49.6771004 5.98026592,49.6451578 5.98026592,49.6061168 C5.98026592,49.6061168 5.98026592,49.6451578 5.98026592,49.6061168 L5.98026592,49.6061168 L5.98026592,49.6061168 Z M8.25791892,45.4088651 C8.2305011,45.3814466 8.21099991,45.4301802 8.21458263,45.5171611 C8.21854151,45.6132817 8.23809345,45.6328335 8.26443318,45.567011 C8.28826827,45.5074487 8.2853369,45.4362828 8.25791892,45.4088651 C8.25791892,45.4088651 8.2853369,45.4362828 8.25791892,45.4088651 L8.25791892,45.4088651 L8.25791892,45.4088651 Z M20.2547052,44.8501949 L20.2547052,40.0232891 L23.9677097,40.0232891 L27.6807142,40.0232891 L27.6807142,41.3847241 L27.6807142,42.746159 L25.9067232,42.746159 L24.1327321,42.746159 L24.1327321,43.1174595 L24.1327321,43.4887599 L25.7829563,43.4887599 L27.4331806,43.4887599 L27.4331806,44.8501949 L27.4331806,46.2116299 L25.7829563,46.2116299 L24.1327321,46.2116299 L24.1327321,46.5829303 L24.1327321,46.9542308 L25.9892344,46.9542308 L27.8457366,46.9542308 L27.8457366,48.3156654 L27.8457366,49.6771004 L24.0502209,49.6771004 L20.2547052,49.6771004 L20.2547052,44.8501949 L20.2547052,44.8501949 L20.2547052,44.8501949 L20.2547052,44.8501949 Z M43.3578442,46.2116299 L43.3578442,42.746159 L42.2026873,42.746159 L41.0475303,42.746159 L41.0475303,41.3847241 L41.0475303,40.0232891 L45.3381133,40.0232891 L49.6286963,40.0232891 L49.6286963,41.3847241 L49.6286963,42.746159 L48.4735393,42.746159 L47.3183823,42.746159 L47.3183823,46.2116299 L47.3183823,49.6771004 L45.3381133,49.6771004 L43.3578442,49.6771004 L43.3578442,46.2116299 L43.3578442,46.2116299 L43.3578442,46.2116299 L43.3578442,46.2116299 Z M51.9390102,44.8501949 L51.9390102,40.0232891 L55.6520146,40.0232891 L59.3650191,40.0232891 L59.3650191,41.3847241 L59.3650191,42.746159 L57.5910281,42.746159 L55.8170371,42.746159 L55.8170371,43.1174595 L55.8170371,43.4887599 L57.4672613,43.4887599 L59.1174855,43.4887599 L59.1174855,44.8501949 L59.1174855,46.2116299 L57.4672613,46.2116299 L55.8170371,46.2116299 L55.8170371,46.5829303 L55.8170371,46.9542308 L57.6735393,46.9542308 L59.5300415,46.9542308 L59.5300415,48.3156654 L59.5300415,49.6771004 L55.7345258,49.6771004 L51.9390102,49.6771004 L51.9390102,44.8501949 L51.9390102,44.8501949 L51.9390102,44.8501949 L51.9390102,44.8501949 Z M62.0878891,44.8501949 L62.0878891,40.0232891 L65.4255319,40.0232891 C68.9311742,40.0232891 69.3361177,40.0562787 70.0089653,40.3966853 C70.7800895,40.7868115 71.0770993,41.3557139 71.0797991,42.4477968 C71.0807975,42.8509623 71.03923,43.3222812 70.9874303,43.4951727 C70.8619514,43.9139848 70.4809047,44.3627344 70.0748629,44.5698812 L69.744167,44.7385902 L70.0920797,44.9107235 C70.6887966,45.205956 70.833084,45.5597921 71.0431402,47.24302 C71.1167633,47.8329748 71.2483629,48.6085241 71.3355839,48.9664627 C71.4228048,49.3244013 71.4941671,49.6307242 71.4941671,49.6471802 C71.4941671,49.6636362 70.6044768,49.6771004 69.517078,49.6771004 L67.5399898,49.6771004 L67.4566551,49.367619 C67.410821,49.1974042 67.2970091,48.5383459 67.2037409,47.903045 C67.0112786,46.5920883 66.9211186,46.4328185 66.3165886,46.335872 L65.965916,46.2796364 L65.965916,47.9783678 L65.965916,49.6771004 L64.0269025,49.6771004 L62.0878891,49.6771004 L62.0878891,44.8501949 L62.0878891,44.8501949 L62.0878891,44.8501949 L62.0878891,44.8501949 Z M67.0026537,43.6445609 C67.305686,43.3413396 67.3430083,42.9865488 67.1014196,42.7056856 C66.9371241,42.5146804 66.8181446,42.4663528 66.4337083,42.4344729 L65.965916,42.3956795 L65.965916,43.1589956 L65.965916,43.9223118 L66.3858188,43.8819646 C66.6819004,43.8535148 66.8637923,43.783509 67.0026537,43.6445609 C67.0026537,43.6445609 66.8637923,43.783509 67.0026537,43.6445609 L67.0026537,43.6445609 L67.0026537,43.6445609 Z M73.804481,44.8501949 L73.804481,40.0232891 L76.1867521,40.0232891 L78.5690232,40.0232891 L79.4253171,42.4779976 L80.281611,44.9327061 L80.3034666,42.4779976 L80.3253222,40.0232891 L81.9743186,40.0232891 L83.6233151,40.0232891 L83.6233151,44.8501949 L83.6233151,49.6771004 L81.2495534,49.6771004 L78.8757916,49.6771004 L78.0109883,47.1851442 L77.146185,44.6931884 L77.1243476,47.1851442 L77.1025094,49.6771004 L75.4534956,49.6771004 L73.804481,49.6771004 L73.804481,44.8501949 L73.804481,44.8501949 L73.804481,44.8501949 L73.804481,44.8501949 Z M73.804481,44.8501949" fill="#DFAC16" id="western-union" mask="url(#mask-2)"/></g></g></svg>