<?xml version="1.0" ?><svg height="121px" version="1.1" viewBox="0 0 121 121" width="121px" xmlns="http://www.w3.org/2000/svg" xmlns:sketch="http://www.bohemiancoding.com/sketch/ns" xmlns:xlink="http://www.w3.org/1999/xlink"><title/><defs/><g fill="none" fill-rule="evenodd" id="circle" stroke="none" stroke-width="1"><g id="world-pay" transform="translate(10.000000, 10.000000)"><circle cx="50" cy="50" d="M50,100 C77.6142389,100 100,77.6142389 100,50 C100,22.3857611 77.6142389,0 50,0 C22.3857611,0 0,22.3857611 0,50 C0,77.6142389 22.3857611,100 50,100 Z M50,100" fill="#265797" id="Oval-2" r="50"/><path d="M6.84271888,38.7476509 L9.10532716,38.7476509 L12.6349961,52.4222418 L12.6802483,52.4222418 L16.4588041,38.7476509 L18.9476732,38.7476509 L22.7262291,52.4222418 L22.7714812,52.4222418 L26.3011502,38.7476509 L28.5637584,38.7476509 L23.9027854,55.8529696 L21.617551,55.8529696 L17.7258647,41.888458 L17.6806126,41.888458 L13.8115524,55.8529696 L11.526318,55.8529696 L6.84271888,38.7476509 Z M27.2291415,50.4905879 C27.2291415,49.7062132 27.3762096,48.9746438 27.6703501,48.2958579 C27.9644907,47.617072 28.3679851,47.0212578 28.8808456,46.5083974 C29.393706,45.9955369 29.9970622,45.5920425 30.6909322,45.2979019 C31.3848022,45.0037614 32.1314555,44.8566933 32.9309144,44.8566933 C33.7303733,44.8566933 34.4770266,45.0037614 35.1708966,45.2979019 C35.8647666,45.5920425 36.4681228,45.9955369 36.9809832,46.5083974 C37.4938437,47.0212578 37.8973381,47.617072 38.1914787,48.2958579 C38.4856192,48.9746438 38.6326873,49.7062132 38.6326873,50.4905879 C38.6326873,51.2749627 38.4856192,52.0103031 38.1914787,52.696631 C37.8973381,53.382959 37.4938437,53.9787732 36.9809832,54.4840916 C36.4681228,54.98941 35.8647666,55.3891334 35.1708966,55.683274 C34.4770266,55.9774145 33.7303733,56.1244826 32.9309144,56.1244826 C32.1314555,56.1244826 31.3848022,55.9774145 30.6909322,55.683274 C29.9970622,55.3891334 29.393706,54.98941 28.8808456,54.4840916 C28.3679851,53.9787732 27.9644907,53.382959 27.6703501,52.696631 C27.3762096,52.0103031 27.2291415,51.2749627 27.2291415,50.4905879 C27.2291415,50.4905879 27.2291415,51.2749627 27.2291415,50.4905879 Z M29.4012455,50.4905879 C29.4012455,51.0336167 29.484207,51.5351565 29.6501324,51.9952225 C29.8160578,52.4552884 30.0498584,52.84747 30.351541,53.1717788 C30.6532236,53.4960876 31.0227792,53.752514 31.460219,53.9410656 C31.8976588,54.1296172 32.3878857,54.2238916 32.9309144,54.2238916 C33.4739431,54.2238916 33.96417,54.1296172 34.4016098,53.9410656 C34.8390496,53.752514 35.2086052,53.4960876 35.5102879,53.1717788 C35.8119705,52.84747 36.045771,52.4552884 36.2116964,51.9952225 C36.3776219,51.5351565 36.4605833,51.0336167 36.4605833,50.4905879 C36.4605833,49.9475592 36.3776219,49.4460194 36.2116964,48.9859534 C36.045771,48.5258875 35.8119705,48.1337059 35.5102879,47.8093971 C35.2086052,47.4850883 34.8390496,47.2286619 34.4016098,47.0401103 C33.96417,46.8515587 33.4739431,46.7572843 32.9309144,46.7572843 C32.3878857,46.7572843 31.8976588,46.8515587 31.460219,47.0401103 C31.0227792,47.2286619 30.6532236,47.4850883 30.351541,47.8093971 C30.0498584,48.1337059 29.8160578,48.5258875 29.6501324,48.9859534 C29.484207,49.4460194 29.4012455,49.9475592 29.4012455,50.4905879 C29.4012455,50.4905879 29.4012455,49.9475592 29.4012455,50.4905879 Z M39.4078721,45.1282063 L41.4442196,45.1282063 L41.4442196,46.7799104 L41.4894717,46.7799104 C41.6252289,46.4933119 41.8062358,46.2331145 42.0324977,45.9993105 C42.2587597,45.7655065 42.5114151,45.5656447 42.7904715,45.3997193 C43.0695279,45.2337939 43.374977,45.1018097 43.7068279,45.0037628 C44.0386787,44.905716 44.3705246,44.8566933 44.7023755,44.8566933 C45.0342264,44.8566933 45.3359045,44.901945 45.6074188,44.9924498 L45.5169145,47.1871798 C45.3509891,47.1419275 45.1850661,47.1042177 45.0191407,47.0740494 C44.8532152,47.0438812 44.6872923,47.0287973 44.5213668,47.0287973 C43.5258142,47.0287973 42.7640771,47.3078495 42.2361325,47.8659623 C41.7081879,48.4240752 41.4442196,49.2913997 41.4442196,50.4679619 L41.4442196,55.8529696 L39.4078721,55.8529696 L39.4078721,45.1282063 Z M48.7865445,38.7476509 L48.7865445,55.8529696 L46.750197,55.8529696 L46.750197,38.7476509 L48.7865445,38.7476509 Z M59.5454079,56.1226352 L59.5454079,54.314396 L59.5001557,54.314396 C59.1079683,54.8875929 58.5687187,55.3325681 57.8823908,55.6493348 C57.1960628,55.9661016 56.4908903,56.1244826 55.766852,56.1244826 C54.9372248,56.1244826 54.1868006,55.9811855 53.5155568,55.694587 C52.8443129,55.4079885 52.2711246,55.0082651 51.7959745,54.4954046 C51.3208243,53.9825442 50.9550397,53.38673 50.6986094,52.7079441 C50.4421792,52.0291582 50.313966,51.2900469 50.313966,50.4905879 C50.313966,49.691129 50.4421792,48.9482467 50.6986094,48.2619188 C50.9550397,47.5755908 51.3208243,46.9797766 51.7959745,46.4744582 C52.2711246,45.9691399 52.8443129,45.5731874 53.5155568,45.2865889 C54.1868006,44.9999904 54.9372248,44.8566933 55.766852,44.8566933 C56.5361427,44.8566933 57.2601701,45.0188453 57.938956,45.3431541 C58.6177418,45.6674629 59.1381366,46.1086671 59.5001557,46.6667799 L59.5454079,46.6667799 L59.5454079,38.7476509 L61.5817553,38.7476509 L61.5817553,56.1226352 L59.5454079,56.1226352 Z M56.0157389,54.2238916 C56.5587676,54.2238916 57.0489945,54.1296172 57.4864343,53.9410656 C57.9238741,53.752514 58.2934298,53.4960876 58.5951124,53.1717788 C58.896795,52.84747 59.1305955,52.4552884 59.2965209,51.9952225 C59.4624464,51.5351565 59.5454079,51.0336167 59.5454079,50.4905879 C59.5454079,49.9475592 59.4624464,49.4460194 59.2965209,48.9859534 C59.1305955,48.5258875 58.896795,48.1337059 58.5951124,47.8093971 C58.2934298,47.4850883 57.9238741,47.2286619 57.4864343,47.0401103 C57.0489945,46.8515587 56.5587676,46.7572843 56.0157389,46.7572843 C55.4727102,46.7572843 54.9824833,46.8515587 54.5450435,47.0401103 C54.1076037,47.2286619 53.7380481,47.4850883 53.4363655,47.8093971 C53.1346829,48.1337059 52.9008823,48.5258875 52.7349569,48.9859534 C52.5690315,49.4460194 52.48607,49.9475592 52.48607,50.4905879 C52.48607,51.0336167 52.5690315,51.5351565 52.7349569,51.9952225 C52.9008823,52.4552884 53.1346829,52.84747 53.4363655,53.1717788 C53.7380481,53.4960876 54.1076037,53.752514 54.5450435,53.9410656 C54.9824833,54.1296172 55.4727102,54.2238916 56.0157389,54.2238916 C56.0157389,54.2238916 55.4727102,54.2238916 56.0157389,54.2238916 Z M69.0316346,38.7167705 C70.0573555,38.7167705 70.9020541,38.8562966 71.5657559,39.135353 C72.2294576,39.4144095 72.7536233,39.7688812 73.1382686,40.1987789 C73.522914,40.6286767 73.7906533,41.1113616 73.9414946,41.6468482 C74.0923359,42.1823349 74.1677554,42.6989586 74.1677554,43.1967349 C74.1677554,43.6945112 74.0923359,44.211135 73.9414946,44.7466216 C73.7906533,45.2821082 73.522914,45.7647932 73.1382686,46.1946909 C72.7536233,46.6245886 72.2294576,46.9790604 71.5657559,47.2581168 C70.9020541,47.5371732 70.0573555,47.6766993 69.0316346,47.6766993 L65.5698439,47.6766993 L65.5698439,56.1226352 L63.3977399,56.1226352 L63.3977399,38.7167705 L69.0316346,38.7167705 Z M65.5698439,45.7053324 L68.4207303,45.7053324 C68.843086,45.7053324 69.2616643,45.6713936 69.6764779,45.603515 C70.0912915,45.5356364 70.4608472,45.4111942 70.785156,45.2301847 C71.1094648,45.0491751 71.3696622,44.7889777 71.5657559,44.4495848 C71.7618496,44.1101919 71.8598949,43.6689877 71.8598949,43.125959 C71.8598949,42.5829302 71.7618496,42.141726 71.5657559,41.8023331 C71.3696622,41.4629402 71.1094648,41.2027428 70.785156,41.0217332 C70.4608472,40.8407237 70.0912915,40.7162815 69.6764779,40.6484029 C69.2616643,40.5805243 68.843086,40.5465855 68.4207303,40.5465855 L65.5698439,40.5465855 L65.5698439,45.7053324 Z M75.9555379,45.2526498 C76.7097444,44.9886775 77.4639397,44.8566933 78.2181462,44.8566933 C79.002521,44.8566933 79.6775257,44.9547387 80.2431806,45.1508324 C80.8088355,45.3469261 81.2726656,45.6108944 81.6346847,45.9427453 C81.9967039,46.2745962 82.2644432,46.6554648 82.4379107,47.0853625 C82.6113782,47.5152602 82.6981106,47.9640064 82.6981106,48.4316144 L82.6981106,53.9071265 C82.6981106,54.2842297 82.7056526,54.6311595 82.7207367,54.9479263 C82.7358208,55.264693 82.7584467,55.8360367 82.7886149,56.1226352 L80.9785283,56.1226352 C80.9332759,55.5796065 80.9106501,54.7669203 80.9106501,54.2238916 L80.8653979,54.2238916 C80.412874,54.9177616 79.8773954,55.4079885 79.258946,55.694587 C78.6404967,55.9811855 77.9240112,56.1244826 77.1094681,56.1244826 C76.6116918,56.1244826 76.1365488,56.056605 75.6840249,55.9208478 C75.231501,55.7850907 74.8355485,55.581458 74.4961556,55.3099436 C74.1567626,55.0384293 73.8890233,54.7028124 73.6929296,54.3030829 C73.4968359,53.9033535 73.3987905,53.4395234 73.3987905,52.9115788 C73.3987905,52.2177088 73.5534006,51.6369785 73.8626252,51.1693704 C74.1718499,50.7017624 74.5941992,50.3208938 75.1296859,50.0267533 C75.6651725,49.7326127 76.2911546,49.521438 77.0076508,49.3932229 C77.724147,49.2650078 78.4896551,49.2009012 79.3041982,49.2009012 L80.7975197,49.2009012 L80.7975197,48.7483796 C80.7975197,48.4768652 80.744726,48.2053549 80.6391371,47.9338406 C80.5335482,47.6623262 80.3751672,47.4172128 80.1639893,47.1984929 C79.9528115,46.979773 79.6888432,46.8063081 79.3720764,46.678093 C79.0553097,46.5498779 78.6782121,46.4857713 78.2407723,46.4857713 C77.8485849,46.4857713 77.5054261,46.523481 77.2112855,46.5989017 C76.917145,46.6743223 76.6494057,46.7685967 76.4080596,46.8817277 C76.1667135,46.9948587 75.9479969,47.1268429 75.7519032,47.2776842 C75.5558095,47.4285255 75.3672607,47.5718226 75.1862511,47.7075798 L73.9644426,46.4405191 C74.5376396,45.9125745 75.2013314,45.516622 75.9555379,45.2526498 Z M80.3053219,50.6942227 C79.8226297,50.6942227 79.3286318,50.7206195 78.8233134,50.773414 C78.317995,50.8262084 77.857936,50.9280248 77.4431224,51.0788661 C77.0283088,51.2297074 76.6889209,51.4408821 76.4249486,51.7123964 C76.1609764,51.9839108 76.0289922,52.3308406 76.0289922,52.7531962 C76.0289922,53.3716456 76.2363959,53.8166208 76.6512095,54.0881351 C77.0660231,54.3596495 77.6278985,54.4954046 78.3368526,54.4954046 C78.8949655,54.4954046 79.3701085,54.4011302 79.7622959,54.2125786 C80.1544833,54.024027 80.4712453,53.7789135 80.7125913,53.4772309 C80.9539374,53.1755483 81.1274023,52.8399314 81.2329913,52.4703702 C81.3385802,52.100809 81.3913738,51.7350243 81.3913738,51.3730052 L81.3913738,50.6942227 L80.3053219,50.6942227 Z M83.1847324,45.1282063 L85.537845,45.1282063 L88.7281227,53.499857 L88.7733749,53.499857 L91.80527,45.1282063 L94,45.1282063 L88.9091314,58.16083 C88.7281218,58.6284381 88.539573,59.0545584 88.3434793,59.4392037 C88.1473856,59.8238491 87.9135851,60.151924 87.6420707,60.4234383 C87.3705564,60.6949527 87.0424814,60.9061274 86.6578361,61.0569687 C86.2731908,61.20781 85.8018188,61.2832295 85.2437059,61.2832295 C84.9420233,61.2832295 84.6365742,61.2643746 84.3273496,61.2266643 C84.0181249,61.188954 83.7202178,61.1097635 83.4336193,60.9890904 L83.6825062,59.1337516 C84.0897777,59.299677 84.4970432,59.3826385 84.9043147,59.3826385 C85.2210814,59.3826385 85.4888207,59.3411578 85.7075406,59.2581951 C85.9262605,59.1752323 86.1148093,59.0545611 86.2731927,58.8961777 C86.4315761,58.7377944 86.5635602,58.5530165 86.6691491,58.3418387 C86.7747381,58.1306609 86.8803254,57.8893184 86.9859143,57.6178041 L87.6420707,55.9208478 L83.1847324,45.1282063 Z M83.1847324,45.1282063" fill="#FFFFFF" id="WorldPay"/></g></g></svg>