<?xml version="1.0" ?><svg data-name="Layer 1" id="Layer_1" viewBox="0 0 512 512" xmlns="http://www.w3.org/2000/svg"><defs><style>.cls-1{fill:none;stroke-linejoin:round;}.cls-1,.cls-2{stroke:#000;stroke-width:10px;}.cls-2{stroke-miterlimit:10;}</style></defs><title/><path class="cls-1" d="M463,144V448H143V232H306.2a9.83,9.83,0,0,0,9.8-9.8V141.8a9.83,9.83,0,0,0-9.8-9.8H143V64H367v64a16,16,0,0,0,16,16Z"/><line class="cls-1" x1="367" x2="463" y1="64" y2="144"/><rect class="cls-1" height="100" rx="9.8" ry="9.8" width="280" x="36" y="132"/><path d="M110,203h-7.08V161h11l12.66,26.34L139.29,161h11V203h-7.08V170.21l-14.64,29.1h-4L110,170.21Z"/><path d="M161.91,161H169v20.46L188.19,161h9l-16.86,18.36L197.43,203H189l-13.92-18.36-6.12,6.6V203h-7.08Z"/><path d="M223.29,203h-7.92L198.51,161h7.92l12.9,31.32L232.23,161h7.92Z"/><line class="cls-2" x1="191" x2="415" y1="288" y2="288"/><line class="cls-2" x1="191" x2="415" y1="320" y2="320"/><line class="cls-2" x1="191" x2="415" y1="352" y2="352"/><line class="cls-2" x1="191" x2="415" y1="384" y2="384"/><line class="cls-2" x1="191" x2="415" y1="416" y2="416"/></svg>