<?xml version="1.0" ?><svg data-name="Layer 1" id="Layer_1" viewBox="0 0 512 512" xmlns="http://www.w3.org/2000/svg"><defs><style>.cls-1{fill:none;stroke-linejoin:round;}.cls-1,.cls-2{stroke:#000;stroke-width:10px;}.cls-2{stroke-miterlimit:10;}</style></defs><title/><path class="cls-1" d="M464,144V448H144V232H307.2a9.83,9.83,0,0,0,9.8-9.8V141.8a9.83,9.83,0,0,0-9.8-9.8H144V64H368v64a16,16,0,0,0,16,16Z"/><line class="cls-1" x1="368" x2="464" y1="64" y2="144"/><rect class="cls-1" height="100" rx="9.8" ry="9.8" width="280" x="37" y="132"/><path d="M137.31,204,127,188.25h-.3L116.37,204h-8.82L122,182.49l-13.38-20.4h8.76l9.36,14.16h.3l9.36-14.16h8.76l-13.38,20.4L146.13,204Z"/><path d="M151.65,168.39v-6.3h24.54v5.52l-10.14,11.34q5.76.18,9,3.63a11.63,11.63,0,0,1,3.24,8.25,12.47,12.47,0,0,1-4.35,10.08,16.79,16.79,0,0,1-11.19,3.66,23.79,23.79,0,0,1-13.38-4.38l3-5.7a18.6,18.6,0,0,0,10.8,3.6,10.05,10.05,0,0,0,6-1.71,5.7,5.7,0,0,0,2.37-4.92,6,6,0,0,0-2.64-5.13,12.25,12.25,0,0,0-7.32-1.92,15.31,15.31,0,0,0-4.5.66v-5.4l9.72-11.28Z"/><path d="M219.27,167.58q6.06,5.49,6.06,15.27t-5.88,15.48q-5.88,5.7-18,5.7H187.53V162.09h14.4Q213.21,162.09,219.27,167.58ZM218.19,183q0-14.4-16.5-14.4h-7.08v28.74h7.86q7.62,0,11.67-3.63T218.19,183Z"/><line class="cls-2" x1="192" x2="416" y1="288" y2="288"/><line class="cls-2" x1="192" x2="416" y1="320" y2="320"/><line class="cls-2" x1="192" x2="416" y1="352" y2="352"/><line class="cls-2" x1="192" x2="416" y1="384" y2="384"/><line class="cls-2" x1="192" x2="416" y1="416" y2="416"/></svg>