<?xml version="1.0" ?><svg id="Layer_1" style="enable-background:new 0 0 512 512;" version="1.1" viewBox="0 0 512 512" xml:space="preserve" xmlns="http://www.w3.org/2000/svg" xmlns:xlink="http://www.w3.org/1999/xlink"><g><path d="M246.8,44.8L224.5,6H113.4v38.8H77v354.3L184.6,506H435V44.8H246.8z M128.6,140.5c3.3-4.3,9-4.7,12.7-0.9l17.9,18.2V75.2   c0-5.7,4-10.4,9-10.4s9,4.6,9,10.4v82.6l17.9-18.2c3.7-3.8,9.4-3.4,12.7,0.9c3.3,4.3,3,10.8-0.8,14.6l-32.8,33.4c0,0,0,0,0,0   l-0.1,0.1c-0.2,0.2-0.4,0.4-0.7,0.6c-0.1,0.1-0.2,0.1-0.2,0.2c-0.2,0.1-0.3,0.3-0.5,0.4c-0.1,0.1-0.2,0.1-0.3,0.2   c-0.2,0.1-0.3,0.2-0.5,0.3c-0.1,0.1-0.2,0.1-0.3,0.1c-0.2,0.1-0.4,0.2-0.5,0.2c-0.1,0-0.2,0.1-0.3,0.1c-0.2,0.1-0.4,0.1-0.6,0.2   c-0.1,0-0.2,0.1-0.3,0.1c-0.2,0-0.4,0.1-0.6,0.1c-0.1,0-0.2,0-0.2,0c-0.3,0-0.6,0.1-0.9,0.1c0,0,0,0,0,0s0,0,0,0   c-0.3,0-0.6,0-0.9-0.1c-0.1,0-0.2,0-0.2,0c-0.2,0-0.4-0.1-0.6-0.1c-0.1,0-0.2,0-0.3-0.1c-0.2-0.1-0.4-0.1-0.6-0.2   c-0.1,0-0.2-0.1-0.3-0.1c-0.2-0.1-0.4-0.1-0.5-0.2c-0.1,0-0.2-0.1-0.3-0.1c-0.2-0.1-0.3-0.2-0.5-0.3c-0.1-0.1-0.2-0.1-0.3-0.2   c-0.2-0.1-0.4-0.3-0.5-0.4c-0.1-0.1-0.2-0.1-0.2-0.2c-0.2-0.2-0.5-0.4-0.7-0.6l-0.1-0.1c0,0,0,0,0,0l-32.8-33.4   C125.6,151.3,125.3,144.8,128.6,140.5z M415.9,486.9H193.6v-97.1H96.1V63.9h17.3v121.5l55.5,50.3l55.5-50.3V63.9h191.4V486.9z"/><rect height="21.3" width="132.6" x="256" y="114.5"/><rect height="21.3" width="132.6" x="256" y="187.1"/><rect height="21.3" width="267" x="121.6" y="332.4"/><rect height="21.3" width="267" x="121.6" y="259.7"/><polygon points="247.5,426.8 270.4,426.8 270.4,418.9 247.5,418.9 247.5,402.4 274.2,402.4 274.2,394.6 237.7,394.6 237.7,453.1    274.5,453.1 274.5,445.3 247.5,445.3  "/><polygon points="329.7,394.6 318.1,394.6 305.7,416.2 293.5,394.6 282,394.6 300,423.6 281.6,453.1 293.2,453.1 305.9,431.1    318.6,453.1 330.3,453.1 311.6,423.6  "/><polygon points="350.3,426.8 373.2,426.8 373.2,418.9 350.3,418.9 350.3,402.4 377,402.4 377,394.6 340.5,394.6 340.5,453.1    377.3,453.1 377.3,445.3 350.3,445.3  "/></g></svg>