<?xml version="1.0" ?><svg id="Layer_1" style="enable-background:new 0 0 512 512;" version="1.1" viewBox="0 0 512 512" xml:space="preserve" xmlns="http://www.w3.org/2000/svg" xmlns:xlink="http://www.w3.org/1999/xlink"><g><path d="M246.8,44.8L224.5,6H113.4v38.8H77v354.3L184.6,506H435V44.8H246.8z M128.6,140.5c3.3-4.3,9-4.7,12.7-0.9l17.9,18.2V75.2   c0-5.7,4-10.4,9-10.4s9,4.6,9,10.4v82.6l17.9-18.2c3.7-3.8,9.4-3.4,12.7,0.9c3.3,4.3,3,10.8-0.8,14.6l-32.8,33.4c0,0,0,0,0,0   l-0.1,0.1c-0.2,0.2-0.4,0.4-0.7,0.6c-0.1,0.1-0.2,0.1-0.2,0.2c-0.2,0.1-0.3,0.3-0.5,0.4c-0.1,0.1-0.2,0.1-0.3,0.2   c-0.2,0.1-0.3,0.2-0.5,0.3c-0.1,0.1-0.2,0.1-0.3,0.1c-0.2,0.1-0.4,0.2-0.5,0.2c-0.1,0-0.2,0.1-0.3,0.1c-0.2,0.1-0.4,0.1-0.6,0.2   c-0.1,0-0.2,0.1-0.3,0.1c-0.2,0-0.4,0.1-0.6,0.1c-0.1,0-0.2,0-0.2,0c-0.3,0-0.6,0.1-0.9,0.1c0,0,0,0,0,0s0,0,0,0   c-0.3,0-0.6,0-0.9-0.1c-0.1,0-0.2,0-0.2,0c-0.2,0-0.4-0.1-0.6-0.1c-0.1,0-0.2,0-0.3-0.1c-0.2-0.1-0.4-0.1-0.6-0.2   c-0.1,0-0.2-0.1-0.3-0.1c-0.2-0.1-0.4-0.1-0.5-0.2c-0.1,0-0.2-0.1-0.3-0.1c-0.2-0.1-0.3-0.2-0.5-0.3c-0.1-0.1-0.2-0.1-0.3-0.2   c-0.2-0.1-0.4-0.3-0.5-0.4c-0.1-0.1-0.2-0.1-0.2-0.2c-0.2-0.2-0.5-0.4-0.7-0.6l-0.1-0.1c0,0,0,0,0,0l-32.8-33.4   C125.6,151.3,125.3,144.8,128.6,140.5z M415.9,486.9H193.6v-97.1H96.1V63.9h17.3v121.5l55.5,50.3l55.5-50.3V63.9h191.4V486.9z"/><rect height="21.3" width="132.6" x="256" y="114.5"/><rect height="21.3" width="132.6" x="256" y="187.1"/><rect height="21.3" width="267" x="121.6" y="332.4"/><rect height="21.3" width="267" x="121.6" y="259.7"/><path d="M277.7,443.4v-4.9c0-3.5-0.7-6.4-2.2-8.8c-1.5-2.4-3.8-4.1-7.1-5.1c3-1.3,5.3-3.1,6.9-5.2c1.6-2.2,2.4-4.8,2.4-7.8   c0-5.5-1.8-9.7-5.3-12.6c-3.6-2.9-8.6-4.4-15.1-4.4h-20.1v58.5h9.8v-24.3h11.5c3,0,5.3,0.9,7.1,2.7c1.7,1.8,2.6,4.2,2.6,7.2v4.7   c0,1.9,0.1,3.8,0.4,5.6c0.3,1.9,1,3.3,2.1,4.1h10v-0.9c-1-0.9-1.7-2.1-2.1-3.7C277.9,446.8,277.7,445.1,277.7,443.4z M265.1,418.7   c-1.8,1.5-4.6,2.3-8.6,2.3h-9.8v-18.6h10.4c3.6,0,6.3,0.8,8.1,2.5c1.8,1.7,2.7,4,2.7,6.9C267.8,414.9,266.9,417.2,265.1,418.7z"/><polygon points="285,402.4 302.8,402.4 302.8,453.1 312.6,453.1 312.6,402.4 330.7,402.4 330.7,394.6 285,394.6  "/><polygon points="340.6,453.1 350.3,453.1 350.3,428.1 373.9,428.1 373.9,420.3 350.3,420.3 350.3,402.4 378,402.4 378,394.6    340.6,394.6  "/></g></svg>