<svg xmlns="http://www.w3.org/2000/svg" viewBox="0 0 100 100"><linearGradient id="a" gradientUnits="userSpaceOnUse" x1="61.042" y1="59.644" x2="38.819" y2="37.422"><stop offset="0" stop-color="#22d3ee"/><stop offset="1" stop-color="#99f6e4"/></linearGradient><path d="M91.2 47.4L79.9 20c-.3-.7-.8-1.2-1.5-1.5L51 7.1c-.7-.3-1.5-.3-2.2 0L21.4 18.5c-.7.3-1.2.8-1.5 1.5L8.5 47.4c-.3.7-.3 1.5 0 2.2L19.9 77c.3.7.8 1.2 1.5 1.5l27.4 11.4c.7.3 1.5.3 2.2 0l27.4-11.4c.7-.3 1.2-.8 1.5-1.5l11.4-27.4c.2-.7.2-1.6-.1-2.2z" fill="url(#a)" stroke="#22d3ee" stroke-width="2.778" stroke-miterlimit="5.556"/><linearGradient id="b" gradientUnits="userSpaceOnUse" x1="22.917" y1="50" x2="77.083" y2="50"><stop offset="0" stop-color="#1d8c9b"/><stop offset="1" stop-color="#2786b2"/></linearGradient><path d="M77.1 19.6l-.1-.2L51 8.6c-.7-.3-1.5-.3-2.2 0L23.2 19.3l-.3.3H44v69.8l4.7 2c.7.3 1.5.3 2.2 0l5-2.1V19.6h21.2z" fill="url(#b)"/></svg>