<?xml version="1.0" encoding="utf-8"?>
<!-- Generator: Adobe Illustrator 25.2.1, SVG Export Plug-In . SVG Version: 6.00 Build 0)  -->
<svg version="1.1" id="tallui" xmlns="http://www.w3.org/2000/svg" xmlns:xlink="http://www.w3.org/1999/xlink" x="0px" y="0px"
	 viewBox="0 0 100 100" style="enable-background:new 0 0 100 100;" xml:space="preserve">
<style type="text/css">
	.st0{fill:url(#ui_1_);stroke:#22D3EE;stroke-width:2.7778;stroke-miterlimit:5.5556;}
	.st1{fill:url(#tall_1_);}
</style>
<linearGradient id="ui_1_" gradientUnits="userSpaceOnUse" x1="61.0417" y1="59.644" x2="38.8194" y2="37.4218">
	<stop  offset="0" style="stop-color:#22D3EE"/>
	<stop  offset="1" style="stop-color:#99F6E4"/>
</linearGradient>
<path id="ui" class="st0" d="M91.2,47.4L79.9,20c-0.3-0.7-0.8-1.2-1.5-1.5L51,7.1c-0.7-0.3-1.5-0.3-2.2,0L21.4,18.5
	c-0.7,0.3-1.2,0.8-1.5,1.5L8.5,47.4c-0.3,0.7-0.3,1.5,0,2.2l11.4,27.4c0.3,0.7,0.8,1.2,1.5,1.5l27.4,11.4c0.7,0.3,1.5,0.3,2.2,0
	l27.4-11.4c0.7-0.3,1.2-0.8,1.5-1.5l11.4-27.4C91.5,48.9,91.5,48,91.2,47.4z"/>
<linearGradient id="tall_1_" gradientUnits="userSpaceOnUse" x1="22.9167" y1="50" x2="77.0833" y2="50">
	<stop  offset="0" style="stop-color:#1D8C9B"/>
	<stop  offset="1" style="stop-color:#2786B2"/>
</linearGradient>
<path id="tall" class="st1" d="M77.1,19.6L77,19.4L51,8.6c-0.7-0.3-1.5-0.3-2.2,0L23.2,19.3l-0.3,0.3H44v69.8l4.7,2
	c0.7,0.3,1.5,0.3,2.2,0l5-2.1V19.6H77.1z"/>
</svg>
