<?xml version="1.0" encoding="utf-8"?>
<!-- Generator: Adobe Illustrator 27.0.0, SVG Export Plug-In . SVG Version: 6.00 Build 0)  -->
<svg version="1.1" id="Ebene_1" xmlns="http://www.w3.org/2000/svg" xmlns:xlink="http://www.w3.org/1999/xlink" x="0px" y="0px"
	 viewBox="0 0 168 52" style="enable-background:new 0 0 168 52;" xml:space="preserve">
<style type="text/css">
	.st0{fill:#297EA6;}
</style>
<g>
	<path class="st0" d="M14.2,46.3V18.9c0-0.4-0.2-0.7-0.7-0.7H4.5c-1.1,0-1.7-0.5-1.7-1.6v-1.3c0-1,0.6-1.6,1.7-1.6h24.6
		c1.1,0,1.7,0.5,1.7,1.6v1.3c0,1-0.6,1.6-1.7,1.6h-9c-0.5,0-0.7,0.2-0.7,0.7v27.4c0,1-0.6,1.6-1.7,1.6h-1.9
		C14.7,47.9,14.2,47.3,14.2,46.3z"/>
	<path class="st0" d="M31.4,47.9c-1.2,0-1.7-0.7-1.4-1.8l10.4-30.3c0.5-1.3,1.4-2,3-2H47c1.6,0,2.5,0.7,3,2l10.4,30.3
		c0.4,1.1-0.1,1.8-1.4,1.8h-1.9c-1,0-1.6-0.4-1.9-1.3l-2.8-8.4c-0.1-0.4-0.4-0.6-0.8-0.6H38.7c-0.4,0-0.7,0.2-0.8,0.6l-2.8,8.4
		c-0.3,0.9-0.9,1.3-1.9,1.3H31.4L31.4,47.9z M50.1,33.3c0.5,0,0.8-0.3,0.6-0.8l-4-12.2c-0.2-0.7-0.5-1.5-0.7-2.2
		c-0.1-0.4-0.3-0.6-0.8-0.6h-0.2c-0.4,0-0.7,0.2-0.8,0.6c-0.2,0.7-0.4,1.4-0.7,2.2l-4,12.2c-0.1,0.5,0.1,0.8,0.6,0.8H50.1z"/>
	<path class="st0" d="M65.7,41.3V15.4c0-1,0.6-1.6,1.7-1.6h1.9c1.1,0,1.7,0.5,1.7,1.6v25.2c0,2.3,0.9,3.1,3.3,3.1h11.1
		c1,0,1.7,0.5,1.7,1.5l0,0.8c0,1-0.5,1.8-1.5,1.8H73.4C67.7,47.9,65.7,45.1,65.7,41.3z"/>
	<path class="st0" d="M92.5,41.3V15.4c0-1,0.6-1.6,1.7-1.6H96c1.1,0,1.7,0.5,1.7,1.6v25.2c0,2.3,0.9,3.1,3.3,3.1h11.1
		c1,0,1.7,0.5,1.7,1.5l0,0.8c0,1-0.5,1.8-1.5,1.8h-12.2C94.4,47.9,92.5,45.1,92.5,41.3z"/>
	<path class="st0" d="M117.9,34V16.6c0-1.8,1-2.8,2.9-2.8h3.9c1.9,0,2.9,1,2.9,2.8V34c0,5.8,1.2,7.4,5.4,7.4c4.1,0,5.4-1.6,5.4-7.4
		V16.6c0-1.8,1-2.8,2.9-2.8h3.9c1.9,0,2.9,1,2.9,2.8V34c0,10.6-3.9,14.5-14.7,14.5C122,48.6,117.9,44.7,117.9,34z"/>
	<path class="st0" d="M154.2,45.1V16.6c0-1.8,1-2.8,2.9-2.8h3.8c1.9,0,2.9,1,2.9,2.8v28.5c0,1.8-1,2.8-2.9,2.8h-3.8
		C155.3,47.9,154.2,46.9,154.2,45.1z"/>
</g>
</svg>
