<?xml version="1.0" ?><svg height="60px" version="1.1" viewBox="0 0 60 60" width="60px" xmlns="http://www.w3.org/2000/svg" xmlns:sketch="http://www.bohemiancoding.com/sketch/ns" xmlns:xlink="http://www.w3.org/1999/xlink"><title/><desc/><defs/><g fill="none" fill-rule="evenodd" id="soical" stroke="none" stroke-width="1"><g id="social" transform="translate(-773.000000, -338.000000)"><g id="slices" transform="translate(173.000000, 138.000000)"/><g fill="#000000" id="square-black" transform="translate(173.000000, 138.000000)"><path d="M602.995937,200 L657.004063,200 C658.658673,200 660,201.33731 660,202.995937 L660,257.004063 C660,258.658673 658.66269,260 657.004063,260 L602.995937,260 C601.341327,260 600,258.66269 600,257.004063 L600,202.995937 C600,201.341327 601.33731,200 602.995937,200 Z" id="square-27"/></g><g fill="#FFFFFF" id="icon" transform="translate(182.000000, 150.000000)"><path d="M617.632409,206.578444 L617.515714,216.846154 L607.153846,216.846154 L607.153846,207.919367 L617.632409,206.578444 Z M617.55318,219.153846 L617.55318,229.292889 L607.154271,228.070018 L607.153846,219.153846 L617.55318,219.153846 Z M619.846154,206.245534 L634.846154,204.153846 L634.846154,216.73225 L619.846154,216.846154 L619.846154,206.245534 L619.846154,206.245534 Z M634.846154,219.177619 L634.842409,231.846154 L619.867376,229.799267 L619.846154,219.153846 L634.846154,219.177619 L634.846154,219.177619 Z" id="window_store"/></g></g></g></svg>