<?xml version="1.0" ?><svg id="Layer_1" style="enable-background:new 0 0 512 512;" version="1.1" viewBox="0 0 512 512" xml:space="preserve" xmlns="http://www.w3.org/2000/svg" xmlns:xlink="http://www.w3.org/1999/xlink"><style type="text/css">
	.st0{fill:#2F9DD9;}
</style><g id="XMLID_639_"><path class="st0" d="M202.3,329.4h-14.7v24h14.7c4.2,0,7.4-1.1,9.5-3.4c2.1-2.2,3.2-5.1,3.2-8.6   c0-3.5-1.1-6.3-3.2-8.6C209.6,330.6,206.5,329.4,202.3,329.4z" id="XMLID_648_"/><path class="st0" d="M365.6,285.9H40.3v133.9h276.3L365.6,285.9z M159,388.3h-11.4v-48.9l-0.3,0l-18.7,48.9h-7.8   l-19.1-49.9l-0.3,0.1v49.8H90.1v-68H105l19.5,52.3h0.3l19.7-52.3H159V388.3z M219.9,356.8c-4.3,3.8-10.1,5.8-17.6,5.8h-14.7v25.8   h-11.4v-68h26.1c7.5,0,13.4,1.9,17.6,5.8c4.3,3.9,6.4,9,6.4,15.3C226.3,347.8,224.2,352.9,219.9,356.8z M290.4,379.1   c-1.9,2.6-4.9,5-8.9,7.1c-4.1,2.1-9.4,3.1-15.9,3.1c-8,0-14.6-2.6-19.8-7.8c-5.2-5.2-7.8-11.9-7.8-20.1v-14.2   c0-8.2,2.5-14.9,7.5-20.1c5-5.2,11.5-7.8,19.3-7.8c7.9,0,14.1,2,18.5,6c4.4,4,6.6,9.2,6.4,15.6l-0.1,0.3h-10.8   c0-3.8-1.2-6.9-3.6-9.3s-5.8-3.5-10.3-3.5c-4.7,0-8.5,1.8-11.4,5.3c-2.9,3.5-4.3,8-4.3,13.4v14.3c0,5.5,1.5,10,4.5,13.5   c3,3.5,6.9,5.3,11.8,5.3c3.6,0,6.5-0.4,8.6-1.2c2.1-0.8,3.7-1.8,4.8-3v-14.1h-14.3v-8.5h25.6V379.1z" id="XMLID_643_"/><path class="st0" d="M352.9,6L352.9,6H107.4c-7.3,0-13.3,6-13.3,13.3v256.8h26.6V32.6h232.2v92.2h92.2v354.6H120.7   v-49.8H94.1v63.1c0,7.3,6,13.3,13.3,13.3h351c7.3,0,13.3-6,13.3-13.3V124.8L352.9,6z" id="XMLID_642_"/><rect class="st0" height="19.6" id="XMLID_641_" width="253.4" x="156.2" y="171.4"/><rect class="st0" height="19.6" id="XMLID_640_" width="213.3" x="156.2" y="209.5"/></g></svg>