<?xml version="1.0" ?><!DOCTYPE svg  PUBLIC '-//W3C//DTD SVG 1.1//EN'  'http://www.w3.org/Graphics/SVG/1.1/DTD/svg11.dtd'><svg enable-background="new 0 0 128 128" height="128px" id="Layer_1" version="1.1" viewBox="0 0 128 128" width="128px" xml:space="preserve" xmlns="http://www.w3.org/2000/svg" xmlns:xlink="http://www.w3.org/1999/xlink"><path d="M126.89,101.175c0,2.242-1.818,4.061-4.061,4.061H4.951c-2.243,0-4.061-1.818-4.061-4.061V25.118  c0-2.243,1.818-4.061,4.061-4.061h117.878c2.242,0,4.061,1.818,4.061,4.061V101.175z" fill="#808080"/><g><path clip-rule="evenodd" d="M58.692,62.308c7.069-0.542,11.818-4.615,13.036-11.179   c1.625-8.763-1.313-13.871-10.979-18.364c1.776,0,2.996-0.001,4.215,0c7.283,0.006,14.565-0.078,21.846,0.05   c5.669,0.101,10.752,1.87,13.321,7.338c2.677,5.697,2.259,11.506-1.35,16.776c-2.592,3.783-6.601,5.19-10.998,5.398   c-3.635,0.171-7.283,0.134-10.921,0.039c-1.612-0.042-2.039,0.545-1.995,2.066c0.095,3.226,0.029,6.456,0.029,9.781   c-5.48,0-10.681,0-16.164,0c0-4.045,0-7.994,0-11.944L58.692,62.308z M74.486,52.878c2.686-0.24,5.076-0.284,7.396-0.71   c2.419-0.444,3.818-2.526,3.718-4.944c-0.095-2.306-1.429-3.947-3.881-4.317c-2.014-0.304-4.078-0.326-6.121-0.338   c-0.367-0.002-1.052,0.643-1.062,1.003C74.449,46.53,74.486,49.49,74.486,52.878z" fill="#FFFFFF" fill-rule="evenodd"/><path clip-rule="evenodd" d="M58.732,62.268c-4.347,0-8.695,0-13.249,0   c0,4.115,0,7.923,0,11.889c-5.454,0-10.7,0-16.083,0c0-13.727,0-27.438,0-41.259c9.802,0,19.488,0,29.295,0   c0.05,0.551,0.125,0.997,0.125,1.44c0.006,8.998,0.004,17.996-0.004,26.993c0,0.325-0.082,0.65-0.125,0.977   C58.692,62.308,58.732,62.268,58.732,62.268z M44.979,42.357c0,3.351-0.031,6.367,0.043,9.381c0.008,0.318,0.646,0.903,0.97,0.887   c2.29-0.114,4.623-0.127,6.847-0.615c2.256-0.494,3.311-2.387,3.232-4.812c-0.078-2.324-1.208-3.871-3.618-4.261   C50.081,42.553,47.648,42.547,44.979,42.357z" fill="#FFFFFF" fill-rule="evenodd"/><path clip-rule="evenodd" d="M58.021,77.229c2.141,0.153,4.176,0.149,6.156,0.482   c2.104,0.354,3.05,1.75,2.966,3.792c-0.074,1.83-1.233,3.149-3.156,3.526c-0.837,0.163-1.69,0.242-2.67,0.378   c-0.073,1.262-0.143,2.486-0.218,3.827c-1.035,0-1.985,0-3.079,0C58.021,85.301,58.021,81.445,58.021,77.229z M61.293,83.254   c1.044-0.561,1.82-0.822,2.357-1.335c0.232-0.221,0.163-1.215-0.1-1.407c-0.583-0.429-1.375-0.571-2.257-0.896   C61.293,80.907,61.293,81.74,61.293,83.254z" fill="#FFFFFF" fill-rule="evenodd"/><path clip-rule="evenodd" d="M32.617,85.441c0,1.235,0,2.412,0,3.755c-1.092,0-2.046,0-3.185,0   c0-3.804,0-7.666,0-11.96c2.136,0.164,4.289,0.198,6.394,0.532c1.803,0.286,2.644,1.65,2.693,3.432   c0.052,1.891-0.892,3.167-2.685,3.695C34.839,85.188,33.776,85.253,32.617,85.441z M32.685,82.889   c1.395-0.095,2.648-0.137,2.476-1.762c-0.153-1.423-1.261-1.437-2.476-1.212C32.685,80.864,32.685,81.764,32.685,82.889z" fill="#FFFFFF" fill-rule="evenodd"/><path clip-rule="evenodd" d="M52.263,85.726c0.829-1.99,1.355-3.681,2.253-5.141   c0.25-0.404,1.602-0.133,2.909-0.192c-1.61,3.86-2.966,7.479-4.627,10.954c-0.96,2.009-2.935,1.906-4.961,1.442   c0.031-0.708,0.058-1.347,0.085-1.972c3.047-0.615,3.043-0.613,1.876-3.537c-0.878-2.195-1.746-4.396-2.727-6.868   c1.473,0.265,3.011-0.868,3.77,1.031C51.351,82.726,51.717,84.064,52.263,85.726z" fill="#FFFFFF" fill-rule="evenodd"/><path clip-rule="evenodd" d="M86.192,89.266c-1.241,0-2.136,0-3.17,0c0-2.892,0-5.701,0-8.885   c1.027,0.134,2.005,0.261,2.982,0.389c-0.015,0.188-0.03,0.375-0.045,0.563c0.551-0.304,1.076-0.675,1.658-0.899   c2.224-0.861,4.524,0.289,4.788,2.598c0.229,2.001,0.048,4.049,0.048,6.203c-1.07,0-1.967,0-3.204,0   c0-1.469,0.133-2.974-0.061-4.437c-0.088-0.671-0.819-1.257-1.259-1.881c-0.579,0.593-1.534,1.116-1.659,1.792   C86.011,86.102,86.192,87.578,86.192,89.266z" fill="#FFFFFF" fill-rule="evenodd"/><path clip-rule="evenodd" d="M72.026,89.49c-3.062-0.025-5.041-1.861-5.022-4.657   c0.02-2.843,2.101-4.692,5.26-4.675c3.069,0.017,5.265,2.057,5.175,4.809C77.348,87.783,75.271,89.519,72.026,89.49z    M74.477,84.465c-0.728-0.65-1.378-1.71-2.197-1.861c-1.473-0.271-1.991,0.924-1.973,2.258c0.016,1.207,0.392,2.307,1.791,2.366   C73.626,87.292,73.992,86.127,74.477,84.465z" fill="#FFFFFF" fill-rule="evenodd"/><path clip-rule="evenodd" d="M43.809,83.529c-1.318-1.362-1.318-1.362-4.58-0.834   c-0.569-1.241-0.434-2.148,1.145-2.27c1.296-0.101,2.633-0.191,3.9,0.021c1.52,0.255,2.41,1.42,2.508,2.928   c0.124,1.893,0.03,3.8,0.03,6.03c-1.076-0.123-2.046-0.233-3.016-0.344c-1.546,0.632-3.334,1.007-4.856-0.281   c-0.671-0.567-1.13-2.09-0.869-2.923C38.921,83.142,41.512,83.84,43.809,83.529z M43.672,85.016   c-1.135,0.542-1.943,0.929-2.75,1.314c0.258,0.313,0.478,0.85,0.781,0.901C42.852,87.426,43.525,86.891,43.672,85.016z" fill="#FFFFFF" fill-rule="evenodd"/><path clip-rule="evenodd" d="M97.623,77.823c0.062,0.686,0.131,1.459,0.211,2.344   c0.603,0.15,1.211,0.302,1.891,0.471c0,0.613,0,1.187,0,1.86c-0.608,0.093-1.176,0.179-1.712,0.26   c-0.905,1.266-0.114,3.896,1.2,4.622c0.467,0.259,0.665,1.002,1.033,1.602c-4.165,1.292-5.68,0.16-5.758-3.787   c-0.02-1.015,0.683-2.534-1.332-2.7c-0.135-0.011-0.35-1.492-0.255-1.525C94.743,80.31,94.815,77.108,97.623,77.823z" fill="#FFFFFF" fill-rule="evenodd"/><path clip-rule="evenodd" d="M78.249,80.481c1.025,0,1.868,0,3.033,0   c0,2.721,0.125,5.398-0.121,8.042c-0.041,0.449-1.674,0.751-2.912,1.26C78.249,86.361,78.249,83.508,78.249,80.481z" fill="#FFFFFF" fill-rule="evenodd"/><path clip-rule="evenodd" d="M80.931,79.396c-0.829,0-1.674,0-2.663,0c0-0.643,0-1.24,0-1.826   C81.285,77.081,81.535,77.254,80.931,79.396z" fill="#FFFFFF" fill-rule="evenodd"/></g></svg>