<?xml version="1.0" encoding="UTF-8"?>
<!DOCTYPE svg PUBLIC "-//W3C//DTD SVG 1.1//EN" "http://www.w3.org/Graphics/SVG/1.1/DTD/svg11.dtd">
<!-- Creator: CorelDRAW -->
<svg xmlns="http://www.w3.org/2000/svg" xml:space="preserve" width="6.82666in" height="6.82666in" style="shape-rendering:geometricPrecision; text-rendering:geometricPrecision; image-rendering:optimizeQuality; fill-rule:evenodd; clip-rule:evenodd"
viewBox="0 0 6.82666 6.82666"
 xmlns:xlink="http://www.w3.org/1999/xlink">
 <defs>
  <style type="text/css">
   <![CDATA[
    .fil4 {fill:none}
    .fil0 {fill:#285794}
    .fil2 {fill:#4E9645}
    .fil1 {fill:#B9283F}
    .fil3 {fill:#FFFFFE}
   ]]>
  </style>
 </defs>
 <g id="Layer_x0020_1">
  <metadata id="CorelCorpID_0Corel-Layer"/>
  <g id="_371664992">
   <path id="_371665952" class="fil0" d="M1.59333 0.853331l0.752937 0 0 4.38c0,0.407 -0.332996,0.739996 -0.739996,0.739996l-0.752937 0c0,-5.13241 0,0.337591 0,-4.38 0,-0.407 0.332996,-0.739996 0.739996,-0.739996z"/>
   <path id="_371665568" class="fil1" d="M3.40686 0.853331l0.752937 0 0 4.38c0,0.407 -0.332996,0.739996 -0.739996,0.739996l-0.752937 0c0,-2.7099 0,-2.51446 0,-4.38 0,-0.407 0.332996,-0.739996 0.739996,-0.739996z"/>
   <path id="_371666072" class="fil2" d="M5.22039 0.853331l0.752937 0 0 4.38c0,0.407 -0.332996,0.739996 -0.739996,0.739996l-0.752937 0c0,-1.60656 0,-3.20065 0,-4.38 0,-0.407 0.332996,-0.739996 0.739996,-0.739996z"/>
   <g>
    <path id="_371666048" class="fil3" d="M5.71415 3.21679l0 -0.293287c0,-0.108622 -0.0380236,-0.200957 -0.114055,-0.276988 -0.0760315,-0.0760354 -0.168374,-0.114055 -0.276992,-0.114055l-0.523102 0 -0.159602 0 -0.160004 0 0 1.76175 0.160004 0 0.159602 0 0.523102 0c0.108618,0 0.200957,-0.0386969 0.276992,-0.116091 0.0760354,-0.0773976 0.114055,-0.169047 0.114055,-0.274961l0 -0.295319c0,-0.0380197 -0.00644882,-0.0757008 -0.0193465,-0.113039 -0.0128937,-0.0373346 -0.0302126,-0.0648307 -0.051937,-0.0824843 0.024437,-0.0190118 0.0424331,-0.0461732 0.0539724,-0.0814724 0.0115354,-0.0352953 0.017311,-0.073315 0.017311,-0.114051zm-0.91415 -0.293287l0.484402 0c0.0108583,0 0.0200354,0.00374016 0.0274961,0.0112047 0.00746457,0.00746457 0.0112047,0.0166417 0.0112047,0.0274921l0 0.21589c0,0.0108583 -0.00374409,0.0200315 -0.0112047,0.0274961 -0.00746457,0.00746063 -0.0166378,0.0112047 -0.0274961,0.0112047l-0.484402 0 0 -0.293287zm0 0.684335l0.484402 0c0.0108583,0 0.0200354,0.00374409 0.0274961,0.0112008 0.00746063,0.0074685 0.0112047,0.0173189 0.0112047,0.0295315l0 0.213854c0,0.0271575 -0.0129094,0.0407323 -0.0387008,0.0407323l-0.484402 0 0 -0.295319z"/>
    <path id="_371665304" class="fil3" d="M3.84359 2.53246l-0.828594 0c-0.0826181,0 -0.154626,0.0174724 -0.21598,0.0523976l-0.000409449 0.000232283 0.000405512 -0.000228346c-0.000188976,9.44882e-005 -0.0810512,0.0399252 -0.132146,0.119425l0 1.41069c0.0362835,0.0564567 0.0875827,0.0929094 0.114339,0.109331 0.0655079,0.0465945 0.143437,0.0699016 0.233791,0.0699016l0.828594 0 0 -0.391051 -0.787862 0c-0.0461614,0 -0.0794331,-0.0424331 -0.0997992,-0.127291 -0.0203622,-0.0848543 -0.0305472,-0.206047 -0.0305472,-0.363551 0,-0.156154 0.0101811,-0.276657 0.0305472,-0.36152 0.0203661,-0.0848543 0.0536378,-0.127291 0.0997992,-0.127291l0.787862 0 0 -0.391043z"/>
    <path id="_371665040" class="fil3" d="M1.92 3.8893l0 -1.34298 -0.391047 0 0 1.24522c0,0.0434409 -0.00948425,0.072689 -0.0285118,0.0875787 -0.0121929,0.00953937 -0.0346339,0.0142559 -0.0672126,0.0142559l-0.0224016 0 -0.439862 0 -0.0244449 0c-0.029874,0 -0.0515394,-0.00550394 -0.0651693,-0.0162913 -0.0164409,-0.0130118 -0.025811,-0.0361417 -0.0280118,-0.0695l-7.87402e-006 0.472764 0.675622 0c0.128984,0 0.228295,-0.0378661 0.297362,-0.114059 0.062622,-0.0690748 0.093685,-0.161579 0.093685,-0.276984z"/>
   </g>
  </g>
 </g>
 <rect class="fil4" width="6.82666" height="6.82666"/>
</svg>
