<?xml version="1.0" encoding="UTF-8"?>
<!DOCTYPE svg PUBLIC "-//W3C//DTD SVG 1.1//EN" "http://www.w3.org/Graphics/SVG/1.1/DTD/svg11.dtd">
<!-- Creator: CorelDRAW -->
<svg xmlns="http://www.w3.org/2000/svg" xml:space="preserve" width="6.82666in" height="6.82666in" style="shape-rendering:geometricPrecision; text-rendering:geometricPrecision; image-rendering:optimizeQuality; fill-rule:evenodd; clip-rule:evenodd"
viewBox="0 0 6.82666 6.82666"
 xmlns:xlink="http://www.w3.org/1999/xlink">
 <defs>
  <style type="text/css">
   <![CDATA[
    .fil2 {fill:none}
    .fil0 {fill:#006CB5}
    .fil1 {fill:#FAA841}
   ]]>
  </style>
 </defs>
 <g id="Layer_x0020_1">
  <metadata id="CorelCorpID_0Corel-Layer"/>
  <g id="_380519952">
   <path id="_380520792" class="fil0" d="M2.76879 2.66071l-0.648587 1.50839 -0.436059 0.000523622 -0.369276 -1.26343 -0.0299213 -0.0951929 0.0024685 0.00135039 0.00405512 0.00224803 -0.00398031 -0.0020748 -4.72441e-005 -0.000153543c0.00193701,0.00104331 0.00384252,0.0021063 0.00577165,0.00315748 0.066437,0.0351969 0.361382,0.203386 0.543748,0.475854 0.0277638,0.138571 0.0543465,0.264445 0.091878,0.400217l0.403476 -1.03089 0.436472 0z"/>
   <path id="_380520192" class="fil0" d="M4.52334 3.67663c-0.00303937,0.313992 -0.283921,0.516728 -0.716941,0.516728 -0.184567,-0.00199213 -0.362563,-0.0382913 -0.45922,-0.0806693l0.0578819 -0.338311 0.0532283 0.0243583c0.135579,0.0564173 0.223004,0.0790512 0.387976,0.0790512 0.118535,0 0.24526,-0.0464685 0.246157,-0.147929 0.000527559,-0.0662126 -0.0532244,-0.113209 -0.213579,-0.187232 -0.156114,-0.0724449 -0.363087,-0.193461 -0.360457,-0.410642 0.00198425,-0.293835 0.289098,-0.498673 0.696142,-0.498673 0.159417,0 0.287079,0.0325827 0.368909,0.0635512l-0.0558543 0.327465 -0.0373504 -0.0176024c-0.0754843,-0.0304449 -0.173228,-0.0599803 -0.308283,-0.0578819 -0.160882,0 -0.235843,0.0673031 -0.235843,0.130327 -0.000527559,0.0703031 0.0874213,0.117449 0.231224,0.187228 0.237941,0.107654 0.34811,0.238504 0.346008,0.410232z"/>
   <path id="_380520096" class="fil0" d="M5.64016 2.66071l-0.318083 0c-0.0987559,0 -0.17278,0.026878 -0.215681,0.125669l-0.611913 1.38471 0.432343 0c0,0 0.0708268,-0.186181 0.0870039,-0.227098 0.0469961,0 0.467555,0.00105512 0.527535,0.00105512 0.011937,0.0528504 0.0496614,0.226043 0.0496614,0.226043l0.382307 0 -0.333173 -1.51038zm-0.50798 0.974476c0.0740315,-0.188024 0.148264,-0.37739 0.218768,-0.566874 0.0405433,0.189071 0.082,0.377933 0.123154,0.566874l-0.341921 0z"/>
   <polygon id="_380520432" class="fil0" points="2.93537,2.65913 3.34718,2.65913 3.0895,4.17057 2.6778,4.17057 "/>
   <path id="_380520408" class="fil1" d="M0.853331 2.64581l0.696807 0.000488189c0.0859173,0.00303937 0.155173,0.030437 0.179535,0.122476l0.107287 0.52261c-0.182366,-0.272469 -0.477311,-0.440657 -0.543748,-0.475854 -0.00192913,-0.00105118 -0.00383465,-0.00211417 -0.00577165,-0.00315748l4.72441e-005 0.000153543 0.00398031 0.0020748 -0.00405512 -0.00224803c-0.0111063,-0.00609055 -0.0223346,-0.0120866 -0.0336693,-0.0179646 -0.121709,-0.0631575 -0.256315,-0.113803 -0.400413,-0.148579z"/>
  </g>
 </g>
 <rect class="fil2" width="6.82666" height="6.82666"/>
</svg>
