<?xml version="1.0" ?><svg data-name="Layer 1" id="Layer_1" viewBox="0 0 512 512" xmlns="http://www.w3.org/2000/svg"><defs><style>.cls-1,.cls-2{fill:none;stroke:#000;stroke-width:10px;}.cls-1{stroke-linejoin:round;}.cls-2{stroke-miterlimit:10;}</style></defs><title/><path class="cls-1" d="M464,144V448H144V232H307.2a9.83,9.83,0,0,0,9.8-9.8V141.8a9.83,9.83,0,0,0-9.8-9.8H144V64H368v64a16,16,0,0,0,16,16Z"/><line class="cls-1" x1="368" x2="464" y1="64" y2="144"/><rect class="cls-1" height="100" rx="9.8" ry="9.8" width="280" x="37" y="132"/><path d="M150.18,194.53l-4.2,9.54h-7.56l18.48-41.94h7.56l18.48,41.94h-7.56l-4.2-9.54ZM168.3,188l-7.62-17.28L153.06,188Z"/><path d="M188.76,162.13h7.08v41.94h-7.08Z"/><path class="cls-2" d="M257.92,357.35l-10.69,24.28H228l47-106.74h19.24l47,106.74H322.06l-10.69-24.28ZM304,340.7l-19.39-44-19.39,44Z"/><path class="cls-2" d="M356.11,274.89h18V381.63h-18Z"/></svg>