<?xml version="1.0" ?><svg data-name="Layer 1" id="Layer_1" viewBox="0 0 512 512" xmlns="http://www.w3.org/2000/svg"><defs><style>.cls-1,.cls-2{fill:none;stroke:#000;stroke-width:10px;}.cls-1{stroke-linejoin:round;}.cls-2{stroke-miterlimit:10;}</style></defs><title/><path class="cls-1" d="M465,144V448H145V232H308.2a9.83,9.83,0,0,0,9.8-9.8V141.8a9.83,9.83,0,0,0-9.8-9.8H145V64H369v64a16,16,0,0,0,16,16Z"/><line class="cls-1" x1="369" x2="465" y1="64" y2="144"/><rect class="cls-1" height="100" rx="9.8" ry="9.8" width="280" x="38" y="132"/><path d="M123.76,192.4l-4.2,9.54H112L130.48,160H138l18.48,41.94H149l-4.2-9.54Zm18.12-6.54-7.62-17.28-7.62,17.28Z"/><path d="M179.08,201.94h-7.92L154.3,160h7.92l12.9,31.32L188,160h7.92Z"/><path d="M201.94,160H209v41.94h-7.08Z"/><circle class="cls-2" cx="305.3" cy="341.32" r="75.21"/><path class="cls-2" d="M280,304.73v73.17a4.16,4.16,0,0,0,6.47,3.46l51.42-34.28a6.93,6.93,0,0,0,0-11.53l-51.42-34.28A4.16,4.16,0,0,0,280,304.73Z"/></svg>