<?xml version="1.0" ?><svg data-name="Layer 1" id="Layer_1" viewBox="0 0 512 512" xmlns="http://www.w3.org/2000/svg"><defs><style>.cls-1,.cls-2{fill:none;stroke:#000;stroke-width:10px;}.cls-1{stroke-linejoin:round;}.cls-2{stroke-miterlimit:10;}</style></defs><title/><path class="cls-1" d="M463,144V448H143V232H306.2a9.83,9.83,0,0,0,9.8-9.8V141.8a9.83,9.83,0,0,0-9.8-9.8H143V64H367v64a16,16,0,0,0,16,16Z"/><line class="cls-1" x1="367" x2="463" y1="64" y2="144"/><rect class="cls-1" height="100" rx="9.8" ry="9.8" width="280" x="36" y="132"/><path d="M142.5,163h7.08V205H142.5Z"/><path d="M193,168.52Q199,174,199,183.79t-5.88,15.48q-5.88,5.7-18,5.7H161.22V163h14.4Q186.9,163,193,168.52ZM191.88,184q0-14.4-16.5-14.4H168.3v28.74h7.86q7.62,0,11.67-3.63T191.88,184Z"/><path class="cls-2" d="M234.4,271.64H253.2V383H234.4Z"/><path class="cls-2" d="M368.43,286.23q16.1,14.58,16.1,40.56t-15.62,41.12Q353.29,383.05,321.1,383h-37V271.64h38.25Q352.34,271.64,368.43,286.23Zm-2.87,41q0-38.25-43.83-38.25H302.93v76.34h20.88q20.24,0,31-9.64T365.57,327.27Z"/></svg>