<?xml version="1.0" ?><svg data-name="Layer 1" id="Layer_1" viewBox="0 0 512 512" xmlns="http://www.w3.org/2000/svg"><defs><style>.cls-1,.cls-2,.cls-3{fill:none;stroke:#000;}.cls-1{stroke-linejoin:round;}.cls-1,.cls-2{stroke-width:10px;}.cls-2,.cls-3{stroke-miterlimit:10;}.cls-3{stroke-width:5px;}</style></defs><title/><path class="cls-1" d="M464,144V448H144V232H307.2a9.83,9.83,0,0,0,9.8-9.8V141.8a9.83,9.83,0,0,0-9.8-9.8H144V64H368v64a16,16,0,0,0,16,16Z"/><line class="cls-1" x1="368" x2="464" y1="64" y2="144"/><rect class="cls-1" height="100" rx="9.8" ry="9.8" width="280" x="37" y="132"/><path d="M103.08,203H96V161h11l12.66,26.34L132.36,161h11V203h-7.08V170.2l-14.64,29.1h-4l-14.58-29.1Z"/><path d="M190.08,197.17a23,23,0,0,1-31.44,0,22,22,0,0,1,0-31,23,23,0,0,1,31.44,0,22,22,0,0,1,0,31Zm-5.19-26.25a14.71,14.71,0,0,0-21.06,0,15.66,15.66,0,0,0,0,21.54,14.71,14.71,0,0,0,21.06,0,15.66,15.66,0,0,0,0-21.54Z"/><path d="M223.8,203h-7.92L199,161h7.92l12.9,31.32L232.74,161h7.92Z"/><circle class="cls-2" cx="314.26" cy="341.94" r="81.71"/><circle class="cls-3" cx="315.58" cy="299.58" r="19.11"/><circle class="cls-3" cx="360.73" cy="344.72" r="19.11"/><circle class="cls-3" cx="315.58" cy="389.86" r="19.11"/><circle class="cls-3" cx="270.44" cy="344.72" r="19.11"/><path d="M357.18,292.08a7.5,7.5,0,1,0,5.08,2,7.48,7.48,0,0,0-5.08-2Z"/><path d="M270.31,378.93a7.5,7.5,0,1,0,5.08,2,7.48,7.48,0,0,0-5.08-2Z"/><path d="M315.59,337.22a7.5,7.5,0,1,0,5.08,2,7.48,7.48,0,0,0-5.08-2Z"/><path d="M270.31,292.08a7.5,7.5,0,1,0,5.08,2,7.48,7.48,0,0,0-5.08-2Z"/><path d="M357.18,378.93a7.5,7.5,0,1,0,5.08,2,7.48,7.48,0,0,0-5.08-2Z"/></svg>