<?xml version="1.0" ?><svg data-name="Layer 1" id="Layer_1" viewBox="0 0 512 512" xmlns="http://www.w3.org/2000/svg"><defs><style>.cls-1,.cls-2{fill:none;stroke:#000;stroke-width:10px;}.cls-1{stroke-linejoin:round;}.cls-2{stroke-miterlimit:10;}</style></defs><title/><path class="cls-1" d="M465,144V448H145V232H308.2a9.83,9.83,0,0,0,9.8-9.8V141.8a9.83,9.83,0,0,0-9.8-9.8H145V64H369v64a16,16,0,0,0,16,16Z"/><line class="cls-1" x1="369" x2="465" y1="64" y2="144"/><rect class="cls-1" height="100" rx="9.8" ry="9.8" width="280" x="38" y="132"/><path d="M105.62,201.94H98.54V160h11l12.66,26.34L134.9,160h11v41.94H138.8V169.18l-14.64,29.1h-4l-14.58-29.1Z"/><path d="M185.84,163.66q4.38,3.66,4.38,11.28t-4.47,11.16q-4.47,3.54-13.71,3.54H164.6v12.3h-7.08V160h14.4Q181.46,160,185.84,163.66Zm-5,17.31q2.13-2.25,2.13-6.6t-2.7-6.15q-2.7-1.8-8.46-1.8h-7.2v16.8h8.22Q178.7,183.22,180.83,181Z"/><path d="M197.36,166.3V160H221.9v5.52l-10.14,11.34q5.76.18,9,3.63a11.63,11.63,0,0,1,3.24,8.25,12.47,12.47,0,0,1-4.35,10.08,16.79,16.79,0,0,1-11.19,3.66,23.79,23.79,0,0,1-13.38-4.38l3-5.7a18.6,18.6,0,0,0,10.8,3.6,10.05,10.05,0,0,0,6-1.71,5.7,5.7,0,0,0,2.37-4.92,6,6,0,0,0-2.64-5.13,12.25,12.25,0,0,0-7.32-1.92,15.31,15.31,0,0,0-4.5.66v-5.4l9.72-11.28Z"/><circle class="cls-2" cx="308.5" cy="340.73" r="80.5"/><polygon class="cls-1" points="261 307 261 374 310 340.5 261 307"/><line class="cls-2" x1="330" x2="330" y1="307" y2="374.43"/><line class="cls-2" x1="348" x2="348" y1="307" y2="374"/></svg>