<?xml version="1.0" ?><svg data-name="Layer 1" id="Layer_1" viewBox="0 0 512 512" xmlns="http://www.w3.org/2000/svg"><defs><style>.cls-1{fill:none;stroke-linejoin:round;}.cls-1,.cls-2{stroke:#000;stroke-width:10px;}.cls-2{stroke-miterlimit:10;}</style></defs><title/><path class="cls-1" d="M465,144V448H145V232H308.2a9.83,9.83,0,0,0,9.8-9.8V141.8a9.83,9.83,0,0,0-9.8-9.8H145V64H369v64a16,16,0,0,0,16,16Z"/><line class="cls-1" x1="369" x2="465" y1="64" y2="144"/><rect class="cls-1" height="100" rx="9.8" ry="9.8" width="280" x="38" y="132"/><path d="M115.46,203h-7.08V161h11l12.66,26.34L144.74,161h11V203h-7.08V170.21L134,199.31h-4l-14.58-29.1Z"/><path d="M195.68,164.69q4.38,3.66,4.38,11.28t-4.47,11.16q-4.47,3.54-13.71,3.54h-7.44V203h-7.08V161h14.4Q191.3,161,195.68,164.69Zm-5,17.31q2.13-2.25,2.13-6.6t-2.7-6.15q-2.7-1.8-8.46-1.8h-7.2v16.8h8.22Q188.54,184.25,190.67,182Z"/><path d="M222.8,186v-7.68h6.72V186h5v6.42h-5V203H222.8V192.41h-18v-6.24L220.22,161H228l-15.18,25Z"/><line class="cls-2" x1="193" x2="417" y1="288" y2="288"/><line class="cls-2" x1="193" x2="417" y1="320" y2="320"/><line class="cls-2" x1="193" x2="417" y1="352" y2="352"/><line class="cls-2" x1="193" x2="417" y1="384" y2="384"/><line class="cls-2" x1="193" x2="417" y1="416" y2="416"/></svg>