<?xml version="1.0" ?><svg data-name="Layer 1" id="Layer_1" viewBox="0 0 512 512" xmlns="http://www.w3.org/2000/svg"><defs><style>.cls-1,.cls-2{fill:none;stroke:#000;stroke-width:10px;}.cls-1{stroke-linejoin:round;}.cls-2{stroke-miterlimit:10;}</style></defs><title/><path class="cls-1" d="M465,144V448H145V232H308.2a9.83,9.83,0,0,0,9.8-9.8V141.8a9.83,9.83,0,0,0-9.8-9.8H145V64H369v64a16,16,0,0,0,16,16Z"/><line class="cls-1" x1="369" x2="465" y1="64" y2="144"/><rect class="cls-1" height="100" rx="9.8" ry="9.8" width="280" x="38" y="132"/><path d="M133.08,205H126V163h11l12.66,26.34L162.36,163h11V205h-7.08V172.21l-14.64,29.1h-4l-14.58-29.1Z"/><path d="M194.4,195.37a10.73,10.73,0,0,0,15.6,0q2.88-3.36,2.88-9.12V163H220v23.52q0,9.06-5,13.95a19.14,19.14,0,0,1-25.56,0q-5-4.89-5-13.95V163h7.08v23.22Q191.52,192,194.4,195.37Z"/><path class="cls-2" d="M196.92,384.68H177.74V271.07h29.91l34.29,71.35,34.29-71.35H306V384.68H286.8V295.94l-39.66,78.83H236.41l-39.49-78.83Z"/><path class="cls-2" d="M363,358.68q7.8,9.1,21.13,9.1t21.13-9.1q7.8-9.1,7.8-24.7v-62.9h19.18v63.71q0,24.54-13.49,37.79t-34.62,13.25q-21.13,0-34.62-13.25T336,334.79V271.07h19.18V334Q355.22,349.58,363,358.68Z"/></svg>