<?xml version="1.0" ?><svg data-name="Layer 1" id="Layer_1" viewBox="0 0 512 512" xmlns="http://www.w3.org/2000/svg"><defs><style>.cls-1,.cls-2{fill:none;stroke:#000;stroke-width:10px;}.cls-1{stroke-linejoin:round;}.cls-2{stroke-miterlimit:10;}</style></defs><title/><path class="cls-1" d="M463,144V448H143V232H306.2a9.83,9.83,0,0,0,9.8-9.8V141.8a9.83,9.83,0,0,0-9.8-9.8H143V64H367v64a16,16,0,0,0,16,16Z"/><line class="cls-1" x1="367" x2="463" y1="64" y2="144"/><rect class="cls-1" height="100" rx="9.8" ry="9.8" width="280" x="36" y="132"/><path d="M145.39,164.69q4.38,3.66,4.38,11.28t-4.47,11.16q-4.47,3.54-13.71,3.54h-7.44V203h-7.08V161h14.4Q141,161,145.39,164.69Zm-5,17.31q2.13-2.25,2.13-6.6t-2.7-6.15q-2.7-1.8-8.46-1.8h-7.2v16.8h8.22Q138.25,184.25,140.38,182Z"/><path d="M156.82,203V161h7.08v18.18h20.82V161h7.08V203h-7.08V185.81H163.9V203Z"/><path d="M230.55,164.69q4.38,3.66,4.38,11.28t-4.47,11.16q-4.47,3.54-13.71,3.54h-7.44V203h-7.08V161h14.4Q226.17,161,230.55,164.69Zm-5,17.31q2.13-2.25,2.13-6.6t-2.7-6.15q-2.7-1.8-8.46-1.8h-7.2v16.8h8.22Q223.4,184.25,225.54,182Z"/><polyline class="cls-2" points="256 274 192 338 256 402"/><line class="cls-2" x1="272" x2="320" y1="402" y2="274"/><polyline class="cls-2" points="340 274 404 338 340 402"/></svg>