<?xml version="1.0" ?><svg data-name="Layer 1" id="Layer_1" viewBox="0 0 512 512" xmlns="http://www.w3.org/2000/svg"><defs><style>.cls-1,.cls-2{fill:none;stroke:#000;stroke-width:10px;}.cls-1{stroke-linejoin:round;}.cls-2{stroke-miterlimit:10;}</style></defs><title/><path class="cls-1" d="M462,144V448H142V232H305.2a9.83,9.83,0,0,0,9.8-9.8V141.8a9.83,9.83,0,0,0-9.8-9.8H142V64H366v64a16,16,0,0,0,16,16Z"/><line class="cls-1" x1="366" x2="462" y1="64" y2="144"/><rect class="cls-1" height="100" rx="9.8" ry="9.8" width="280" x="35" y="132"/><path d="M121.84,166.82a9.29,9.29,0,0,0-5.07,1.26,4.21,4.21,0,0,0-2,3.81,4.43,4.43,0,0,0,2,3.9q2,1.35,8.43,2.91t9.72,4.38q3.27,2.82,3.27,8.31a11,11,0,0,1-4.14,8.91q-4.14,3.42-10.86,3.42a25.51,25.51,0,0,1-17.46-6.78l4.44-5.34q6.36,5.52,13.2,5.52a9,9,0,0,0,5.43-1.47,4.6,4.6,0,0,0,2-3.9,4.38,4.38,0,0,0-1.89-3.78,19.89,19.89,0,0,0-6.51-2.46,58.32,58.32,0,0,1-7-2,15.83,15.83,0,0,1-4.26-2.43q-3.72-2.82-3.72-8.64a10.52,10.52,0,0,1,4.23-9,17,17,0,0,1,10.47-3.15,25.11,25.11,0,0,1,8,1.32,20.87,20.87,0,0,1,6.84,3.72l-3.78,5.34a14.31,14.31,0,0,0-5-2.76A19.42,19.42,0,0,0,121.84,166.82Z"/><path d="M151.77,193.7l-4.2,9.54H140L158.5,161.3h7.56l18.48,41.94H177l-4.2-9.54Zm18.12-6.54-7.62-17.28-7.62,17.28Z"/><path d="M202.83,166.82a9.29,9.29,0,0,0-5.07,1.26,4.21,4.21,0,0,0-2,3.81,4.43,4.43,0,0,0,2,3.9q2,1.35,8.43,2.91t9.72,4.38q3.27,2.82,3.27,8.31A11,11,0,0,1,215,200.3q-4.14,3.42-10.86,3.42a25.51,25.51,0,0,1-17.46-6.78l4.44-5.34q6.36,5.52,13.2,5.52a9,9,0,0,0,5.43-1.47,4.6,4.6,0,0,0,2-3.9,4.38,4.38,0,0,0-1.89-3.78,19.89,19.89,0,0,0-6.51-2.46,58.32,58.32,0,0,1-7-2,15.83,15.83,0,0,1-4.26-2.43q-3.72-2.82-3.72-8.64a10.52,10.52,0,0,1,4.23-9,17,17,0,0,1,10.47-3.15,25.11,25.11,0,0,1,8,1.32,20.87,20.87,0,0,1,6.84,3.72l-3.78,5.34a14.31,14.31,0,0,0-5-2.76A19.42,19.42,0,0,0,202.83,166.82Z"/><path d="M239.64,166.82a9.29,9.29,0,0,0-5.07,1.26,4.21,4.21,0,0,0-2,3.81,4.43,4.43,0,0,0,2,3.9q2,1.35,8.43,2.91t9.72,4.38q3.27,2.82,3.27,8.31a11,11,0,0,1-4.14,8.91q-4.14,3.42-10.86,3.42a25.51,25.51,0,0,1-17.46-6.78L228,191.6q6.36,5.52,13.2,5.52a9,9,0,0,0,5.43-1.47,4.6,4.6,0,0,0,2-3.9,4.38,4.38,0,0,0-1.89-3.78,19.89,19.89,0,0,0-6.51-2.46,58.32,58.32,0,0,1-7-2,15.83,15.83,0,0,1-4.26-2.43q-3.72-2.82-3.72-8.64a10.52,10.52,0,0,1,4.23-9,17,17,0,0,1,10.47-3.15,25.11,25.11,0,0,1,8,1.32,20.87,20.87,0,0,1,6.84,3.72L251,170.66a14.31,14.31,0,0,0-5-2.76A19.42,19.42,0,0,0,239.64,166.82Z"/><polyline class="cls-2" points="258 274 194 338 258 402"/><line class="cls-2" x1="274" x2="322" y1="402" y2="274"/><polyline class="cls-2" points="342 274 406 338 342 402"/></svg>