<?xml version="1.0" ?><svg data-name="Layer 1" id="Layer_1" viewBox="0 0 512 512" xmlns="http://www.w3.org/2000/svg"><defs><style>.cls-1,.cls-2{fill:none;stroke:#000;stroke-width:10px;}.cls-1{stroke-linejoin:round;}.cls-2{stroke-miterlimit:10;}</style></defs><title/><path class="cls-1" d="M465,144V448H145V232H308.2a9.83,9.83,0,0,0,9.8-9.8V141.8a9.83,9.83,0,0,0-9.8-9.8H145V64H369v64a16,16,0,0,0,16,16Z"/><line class="cls-1" x1="369" x2="465" y1="64" y2="144"/><rect class="cls-1" height="100" rx="9.8" ry="9.8" width="280" x="38" y="132"/><path d="M132.24,167.27a9.29,9.29,0,0,0-5.07,1.26,4.21,4.21,0,0,0-2,3.81,4.43,4.43,0,0,0,2,3.9q2,1.35,8.43,2.91t9.72,4.38q3.27,2.82,3.27,8.31a11,11,0,0,1-4.14,8.91q-4.14,3.42-10.86,3.42a25.51,25.51,0,0,1-17.46-6.78l4.44-5.34q6.36,5.52,13.2,5.52a9,9,0,0,0,5.43-1.47,4.6,4.6,0,0,0,2-3.9,4.38,4.38,0,0,0-1.89-3.78,19.87,19.87,0,0,0-6.51-2.46,58.5,58.5,0,0,1-7-2,15.83,15.83,0,0,1-4.26-2.43q-3.72-2.82-3.72-8.64a10.52,10.52,0,0,1,4.23-9,17,17,0,0,1,10.47-3.15,25.1,25.1,0,0,1,8,1.32,20.86,20.86,0,0,1,6.84,3.72l-3.78,5.34a14.31,14.31,0,0,0-5-2.76A19.43,19.43,0,0,0,132.24,167.27Z"/><path d="M175.86,203.69h-7.92l-16.86-41.94H159l12.9,31.32,12.9-31.32h7.92Z"/><path d="M225.12,183.29h7.08v14.34q-5.94,6.54-17,6.54a21.41,21.41,0,0,1-15.57-6.12,22.24,22.24,0,0,1,.12-31.08,21.3,21.3,0,0,1,15.45-6.24q9.06,0,15.06,5.28l-3.78,5.4a14.73,14.73,0,0,0-5-2.91,18.74,18.74,0,0,0-5.79-.81,14.9,14.9,0,0,0-10.68,4.11,14.76,14.76,0,0,0,10,25.59,18.14,18.14,0,0,0,10-2.58Z"/><rect class="cls-2" height="128" width="192" x="209" y="264"/><rect class="cls-2" height="152" transform="translate(633 23) rotate(90)" width="88" x="261" y="252"/><polyline class="cls-2" points="229 341.5 272 320 304 352 353 306.33 381 339.33"/></svg>