<?xml version="1.0" ?><svg data-name="Layer 1" id="Layer_1" viewBox="0 0 512 512" xmlns="http://www.w3.org/2000/svg"><defs><style>.cls-1{fill:none;stroke-linejoin:round;}.cls-1,.cls-2{stroke:#000;stroke-width:10px;}.cls-2{stroke-miterlimit:10;}</style></defs><title/><path class="cls-1" d="M464,144V448H144V232H307.2a9.83,9.83,0,0,0,9.8-9.8V141.8a9.83,9.83,0,0,0-9.8-9.8H144V64H368v64a16,16,0,0,0,16,16Z"/><line class="cls-1" x1="368" x2="464" y1="64" y2="144"/><rect class="cls-1" height="100" rx="9.8" ry="9.8" width="280" x="37" y="132"/><path d="M113.7,192.21,123.06,162h6.36l9.36,30.18L149.34,162H157L142.32,204h-7l-8.82-28.74H126L117.18,204h-7L95.52,162h7.62Z"/><path d="M170.58,204H163.5V162h11l12.66,26.34L199.86,162h11V204h-7.08V171.21l-14.64,29.1h-4l-14.58-29.1Z"/><path d="M241.62,204H233.7L216.84,162h7.92l12.9,31.32L250.56,162h7.92Z"/><line class="cls-2" x1="192" x2="416" y1="288" y2="288"/><line class="cls-2" x1="192" x2="416" y1="320" y2="320"/><line class="cls-2" x1="192" x2="416" y1="352" y2="352"/><line class="cls-2" x1="192" x2="416" y1="384" y2="384"/><line class="cls-2" x1="192" x2="416" y1="416" y2="416"/></svg>