<?xml version="1.0" ?><svg data-name="Layer 1" id="Layer_1" viewBox="0 0 512 512" xmlns="http://www.w3.org/2000/svg"><defs><style>.cls-1,.cls-2{fill:none;stroke:#000;stroke-width:10px;}.cls-1{stroke-linejoin:round;}.cls-2{stroke-miterlimit:10;}</style></defs><title/><path class="cls-1" d="M464,144V448H144V232H307.2a9.83,9.83,0,0,0,9.8-9.8V141.8a9.83,9.83,0,0,0-9.8-9.8H144V64H368v64a16,16,0,0,0,16,16Z"/><line class="cls-1" x1="368" x2="464" y1="64" y2="144"/><rect class="cls-1" height="100" rx="9.8" ry="9.8" width="280" x="37" y="132"/><path d="M104.23,205.21,93.91,189.43h-.3L83.29,205.21H74.47l14.4-21.54-13.38-20.4h8.76l9.36,14.16h.3l9.36-14.16H112l-13.38,20.4L113,205.21Z"/><path d="M119.77,205.21V163.27h7.08v18.18h20.82V163.27h7.08v41.94h-7.08V188.05H126.85v17.16Z"/><path d="M182.23,169.75v35.46h-7.08V169.75H162.43v-6.48h32.52v6.48Z"/><path d="M209.71,205.21h-7.08V163.27h11l12.66,26.34L239,163.27h11v41.94h-7.08V172.45l-14.64,29.1h-4l-14.58-29.1Z"/><path d="M261.6,205.21V163.27h7.08v35.22h19.14v6.72Z"/><polyline class="cls-2" points="253 275 189 339 253 403"/><line class="cls-2" x1="269" x2="317" y1="403" y2="275"/><polyline class="cls-2" points="337 275 401 339 337 403"/></svg>