<?xml version="1.0" ?><!DOCTYPE svg  PUBLIC '-//W3C//DTD SVG 1.1//EN'  'http://www.w3.org/Graphics/SVG/1.1/DTD/svg11.dtd'><svg enable-background="new 0 0 512 512" height="512px" id="Layer_1" version="1.1" viewBox="0 0 512 512" width="512px" xml:space="preserve" xmlns="http://www.w3.org/2000/svg" xmlns:xlink="http://www.w3.org/1999/xlink"><g><g><path d="M482.722,103.198c13.854,0,25.126,11.271,25.126,25.126v257.9c0,13.854-11.271,25.126-25.126,25.126H30.99    c-13.854,0-25.126-11.271-25.126-25.126v-257.9c0-13.854,11.271-25.126,25.126-25.126H482.722 M482.722,98.198H30.99    c-16.638,0-30.126,13.488-30.126,30.126v257.9c0,16.639,13.488,30.126,30.126,30.126h451.732    c16.639,0,30.126-13.487,30.126-30.126v-257.9C512.848,111.686,499.36,98.198,482.722,98.198L482.722,98.198z" fill="#00AAD2"/></g><g><path d="M358.711,228.2c-16.562,0-29.99,13.427-29.99,29.991c0,16.562,13.428,29.99,29.99,29.99    c12.748,0,23.609-7.967,27.951-19.182c0.252-3.303,0.419-6.63,0.419-9.999c0-4.063-0.212-8.077-0.574-12.045    C382.058,235.962,371.299,228.2,358.711,228.2z" fill="#00AAD2"/><path d="M358.711,302.77c-24.62,0-44.58-19.959-44.58-44.579c0-24.622,19.96-44.582,44.58-44.582    c8.128,0,15.74,2.185,22.3,5.984c-16.711-52.81-66.093-91.093-124.43-91.093c-72.073,0-130.5,58.427-130.5,130.5    c0,72.074,58.427,130.5,130.5,130.5c59.053,0,108.92-39.236,125.02-93.053C374.909,300.458,367.082,302.77,358.711,302.77z     M226.996,300.745h-60.387v-11.348c0,0,32.422-27.561,38.907-34.45c6.484-6.89,9.727-17.832,1.216-24.316    c-8.511-6.485-19.859-2.027-28.37,9.321l-10.132-7.701c0,0,10.132-19.453,34.854-16.616c24.722,2.837,28.774,29.585,15.806,43.77    c-12.969,14.185-32.422,28.775-32.422,28.775h40.528V300.745z M280.087,288.181c7.415,0,14.187-2.704,19.42-7.16l10.606,10.121    c-7.924,7.224-18.46,11.628-30.026,11.628c-24.62,0-44.58-19.959-44.58-44.579c0-24.622,19.96-44.582,44.58-44.582    c11.953,0,22.798,4.713,30.804,12.371l-10.78,9.927c-5.312-4.776-12.316-7.708-20.023-7.708c-16.562,0-29.99,13.427-29.99,29.991    C250.097,274.753,263.524,288.181,280.087,288.181z" fill="#00AAD2"/></g></g></svg>