<?xml version="1.0" ?><!DOCTYPE svg  PUBLIC '-//W3C//DTD SVG 1.1//EN'  'http://www.w3.org/Graphics/SVG/1.1/DTD/svg11.dtd'><svg enable-background="new 0 0 512 512" height="512px" id="Layer_1" version="1.1" viewBox="0 0 512 512" width="512px" xml:space="preserve" xmlns="http://www.w3.org/2000/svg" xmlns:xlink="http://www.w3.org/1999/xlink"><g><g><path d="M481.874,102.698c13.854,0,25.126,11.271,25.126,25.126v257.899c0,13.854-11.271,25.126-25.126,25.126    H30.143c-13.854,0-25.126-11.271-25.126-25.126V127.824c0-13.854,11.271-25.126,25.126-25.126H481.874 M481.874,97.698H30.143    c-16.638,0-30.126,13.488-30.126,30.126v257.899c0,16.64,13.488,30.126,30.126,30.126h451.731    c16.64,0,30.126-13.486,30.126-30.126V127.824C512,111.186,498.513,97.698,481.874,97.698L481.874,97.698z" fill="#CB2686"/></g><g><path d="M351.746,124.074c5.623,1.026,15.312,7.637,15.312,13.26v243.02c0,5.623-7.637,13.262-13.26,13.262    H163.284c-6.137,0-13.261-7.045-13.261-13.262V139.386c0-5.623,8.663-14.287,14.287-15.312H351.746z" fill="#CB2686"/><path d="M283.771,223.886c14.515,22.29,8.212,52.128-14.078,66.644s-52.127,8.214-66.643-14.077l13.838-9.298    c9.426,14.473,28.801,18.566,43.274,9.14c14.476-9.424,18.567-28.8,9.143-43.274L283.771,223.886z" fill="#FFFFFF"/><path d="M315.977,203.428c-14.545-22.271-44.393-28.536-66.662-13.991c-22.271,14.545-28.535,44.391-13.99,66.663l14.088-8.916    c-9.443-14.461-5.377-33.842,9.085-43.287c14.461-9.444,33.842-5.377,43.286,9.085L315.977,203.428z"/><path d="M167.071,238.053c0-50.517,40.953-91.47,91.47-91.47s91.471,40.954,91.471,91.47    c0,50.518-40.954,91.47-91.471,91.47S167.071,288.57,167.071,238.053z M258.541,323.119c46.98,0,85.065-38.086,85.065-85.066    c0-46.98-38.085-85.067-85.065-85.067c-46.979,0-85.065,38.087-85.065,85.067C173.476,285.033,211.561,323.119,258.541,323.119z" fill="#FFFFFF"/><g><path d="M269.052,348.979h5.853l-4.819,21.672h15.736l-1.102,4.877h-21.592L269.052,348.979z" fill="#FFFFFF"/><path d="M203.143,367.438c1.167,2.245,5.96,5.004,10.672,4.854c4.983-0.156,6.766-1.569,7.104-3.954     c0.136-0.944,0.518-3.099-3.626-3.601l-6.714-0.731c-7.135-0.952-8.284-3.837-8.122-7.398c0.221-4.876,6.328-8.648,12.883-8.738     c5.776-0.078,10.675,1.209,12.964,4.308l-4.053,2.451c-3.354-2.654-6.386-2.855-9.978-2.632     c-2.508,0.156-5.893,1.162-6.408,3.585c-0.365,1.717-0.275,2.795,3.32,3.224l8.498,1.116c3.917,0.443,7.192,4.135,6.881,7.273     c-0.458,4.604-4.476,10.054-14.087,9.584c-7.362-0.359-11.672-3.232-13.647-6.824L203.143,367.438z" fill="#FFFFFF"/><path d="M231.509,362.126c1.142-8.003,8.556-14.49,16.559-14.49c8.004,0,13.567,6.487,12.425,14.49     c-1.14,8.004-8.555,14.493-16.559,14.493C235.931,376.619,230.366,370.13,231.509,362.126z M244.656,371.547     c5.203,0,10.021-4.219,10.765-9.421c0.741-5.201-2.874-9.419-8.077-9.419s-10.021,4.218-10.765,9.419     C235.837,367.328,239.454,371.547,244.656,371.547z" fill="#FFFFFF"/><path d="M289.266,362.126c1.141-8.003,8.556-14.49,16.56-14.49c8.003,0,13.567,6.487,12.425,14.49     c-1.142,8.004-8.556,14.493-16.56,14.493C293.686,376.619,288.124,370.13,289.266,362.126z M302.414,371.547     c5.203,0,10.021-4.219,10.765-9.421c0.74-5.201-2.874-9.419-8.075-9.419c-5.203,0-10.023,4.218-10.765,9.419     C293.596,367.328,297.212,371.547,302.414,371.547z" fill="#FFFFFF"/></g></g></g></svg>