<?xml version="1.0" ?><!DOCTYPE svg  PUBLIC '-//W3C//DTD SVG 1.1//EN'  'http://www.w3.org/Graphics/SVG/1.1/DTD/svg11.dtd'><svg enable-background="new 0 0 128 128" height="128px" id="Layer_1" version="1.1" viewBox="0 0 128 128" width="128px" xml:space="preserve" xmlns="http://www.w3.org/2000/svg" xmlns:xlink="http://www.w3.org/1999/xlink"><path d="M127.333,101.084c0,2.242-1.818,4.061-4.061,4.061H5.394c-2.242,0-4.061-1.818-4.061-4.061V25.026  c0-2.243,1.818-4.061,4.061-4.061h117.879c2.242,0,4.061,1.818,4.061,4.061V101.084z" fill="#808080"/><g><path clip-rule="evenodd" d="M21.267,35.281c-7.054,13.623-7.013,27.303-0.155,40.959   c-3.966,0.816-4.286,0.674-6.109-2.615C8.412,61.729,8.076,49.834,15.01,37.94C16.925,34.654,17.099,34.576,21.267,35.281z" fill="#FFFFFF" fill-rule="evenodd"/><path clip-rule="evenodd" d="M34.52,76.293c-3.37,1.143-4.917-0.536-6.321-3.219   c-6.526-12.47-6.338-24.63,1.258-36.573c0.781-1.229,3.647-2.103,4.833-1.433c0.799,0.448,0.097,0.968-0.068,1.354   c-1.69,3.893-3.253,7.822-4.011,12.029c-1.58,8.757-0.282,17.131,3.281,25.217c0.301,0.687,0.612,1.372,0.902,2.065   C34.468,75.914,34.481,76.12,34.52,76.293z" fill="#FFFFFF" fill-rule="evenodd"/><path clip-rule="evenodd" d="M48.286,76.334c-4.298,0.572-4.377,0.535-6.29-2.967   c-6.398-11.714-6.66-23.387-0.067-35.183c1.499-2.679,3.186-3.902,6.442-2.883C41.352,48.871,41.38,62.615,48.286,76.334z" fill="#FFFFFF" fill-rule="evenodd"/><path clip-rule="evenodd" d="M61.467,76.392c-5.355,0.279-4.208,0.722-6.307-3.073   c-6.461-11.68-6.657-23.378-0.058-35.168c1.513-2.7,3.231-3.82,6.435-2.857C54.494,48.897,54.544,62.645,61.467,76.392z" fill="#FFFFFF" fill-rule="evenodd"/><path clip-rule="evenodd" d="M75.101,35.296c-7.038,13.596-6.989,27.342-0.07,41.089   c-5.367,0.302-4.213,0.707-6.299-3.062c-6.463-11.679-6.663-23.376-0.064-35.167C70.178,35.458,71.889,34.318,75.101,35.296z" fill="#FFFFFF" fill-rule="evenodd"/><path clip-rule="evenodd" d="M10.177,86.586c0-0.749,0.016-1.503-0.003-2.254   c-0.042-1.626,0.094-2.919,2.184-1.506c0.627,0.426,1.098-0.497,1.668-0.416c2.142,0.314,4.226,0.518,6.422,0.038   c1.003-0.218,1.953,0.892,1.976,2.188c0.033,1.708,0.006,3.415,0.028,5.124c0.008,0.697-0.116,1.161-0.987,1.184   c-0.928,0.023-1.181-0.389-1.162-1.229c0.032-1.366,0.036-2.735-0.03-4.097c-0.036-0.744-0.145-1.621-1.166-1.625   c-0.974-0.005-1.491,0.684-1.548,1.586c-0.086,1.363-0.076,2.731-0.061,4.098c0.01,0.791-0.127,1.29-1.105,1.27   c-0.987-0.018-1.079-0.57-1.075-1.33c0.006-1.365,0.032-2.734-0.061-4.095c-0.05-0.738-0.236-1.597-1.27-1.532   c-0.875,0.058-1.346,0.692-1.393,1.513c-0.075,1.363-0.085,2.733-0.05,4.098c0.026,0.918-0.216,1.38-1.251,1.354   c-0.951-0.024-1.145-0.488-1.122-1.289C10.2,88.637,10.179,87.612,10.177,86.586z" fill="#FFFFFF" fill-rule="evenodd"/><path clip-rule="evenodd" d="M89.025,85.483c1.649-1.449,2.089-3.979,4.71-3.041   c0.088,1.638-2.897,1.954-1.752,4.047c0.748,1.368,1.516,2.729,2.277,4.101c-1.833,0.993-2.471-0.149-3.122-1.432   c-0.318-0.623-0.494-1.74-1.258-1.633c-0.972,0.134-0.865,1.217-0.855,2.043c0.008,0.689,0.098,1.361-0.981,1.38   c-1.104,0.019-1.197-0.578-1.191-1.425c0.022-2.94,0.02-5.878,0.003-8.817c-0.005-0.783,0.141-1.287,1.104-1.302   c1.004-0.014,1.082,0.542,1.071,1.303C89.011,82.19,89.025,83.671,89.025,85.483z" fill="#FFFFFF" fill-rule="evenodd"/><path clip-rule="evenodd" d="M58.159,82.508c-1.197,3.294-2.365,6.572-3.579,9.831   c-0.562,1.513-1.792,1.96-3.297,1.875c-0.446-0.024-0.813-0.13-0.88-0.65c-0.069-0.535,0.029-0.884,0.686-0.995   c1.85-0.312,1.826-1.48,1.277-2.905c-0.909-2.354-1.773-4.726-2.78-7.415c4.405,0.137,2.41,4.405,4.489,5.75   c0.71-1.136,0.927-2.705,1.446-4.155C56.099,82.235,56.076,82.228,58.159,82.508z" fill="#FFFFFF" fill-rule="evenodd"/><path clip-rule="evenodd" d="M40.979,87.445c0,0.548,0.036,1.097-0.009,1.639   c-0.068,0.788,0.411,1.895-1.131,1.855c-1.393-0.035-0.977-1.037-1.014-1.763c-0.056-1.091,0.021-2.188-0.06-3.276   c-0.064-0.888-0.195-1.917-1.396-1.904c-1.175,0.012-1.629,0.918-1.695,1.948c-0.079,1.224-0.049,2.455-0.036,3.686   c0.008,0.76-0.081,1.315-1.074,1.315c-0.941,0.001-1.149-0.45-1.139-1.264c0.026-2.049,0.034-4.099,0-6.146   c-0.026-1.624,1.139-1.532,1.876-0.995c0.598,0.439,0.897,0.273,1.376,0.127c2.98-0.9,4.255,0.029,4.298,3.142   C40.985,86.354,40.976,86.9,40.979,87.445z" fill="#FFFFFF" fill-rule="evenodd"/><path clip-rule="evenodd" d="M116.081,84.154c-0.925,0.459-1.638,0.691-2.546,0.042   c-0.624-0.447-1.848-0.661-2.143,0.228c-0.33,0.992,0.93,0.831,1.535,1.107c0.18,0.083,0.411,0.041,0.604,0.099   c1.444,0.438,3.08,0.736,2.938,2.786c-0.103,1.51-1.626,2.521-3.696,2.507c-1.704-0.012-3.246-0.362-3.877-2.279   c1.043-0.485,1.927-0.688,2.767,0.326c0.414,0.503,1.142,0.368,1.75,0.221c0.339-0.082,0.623-0.288,0.656-0.684   c0.035-0.424-0.266-0.625-0.594-0.723c-0.851-0.255-1.728-0.421-2.565-0.703c-1.128-0.379-1.885-1.08-1.813-2.405   c0.067-1.215,0.78-1.788,1.864-2.132C113.094,81.87,114.788,82.336,116.081,84.154z" fill="#FFFFFF" fill-rule="evenodd"/><path clip-rule="evenodd" d="M103.717,86.467c-0.001-0.612-0.034-1.226,0.006-1.837   c0.083-1.271-0.547-3.351,2.09-1.816c0.338,0.197,1.079-0.39,1.654-0.486c0.551-0.095,1.172,0.031,1.268,0.708   c0.077,0.548-0.133,1.231-0.766,1.253c-2.141,0.079-2.021,1.614-2.078,3.047c-0.033,0.814-0.026,1.632-0.004,2.445   c0.02,0.708-0.139,1.15-0.994,1.163c-0.896,0.013-1.21-0.357-1.182-1.212C103.748,88.644,103.717,87.555,103.717,86.467z" fill="#FFFFFF" fill-rule="evenodd"/><g><g><path clip-rule="evenodd" d="M67.305,85.565c-0.885-3.148-2.213-3.776-5.825-2.65     c0-0.647,0.012-1.256-0.003-1.864c-0.016-0.786,0.242-1.7-1.131-1.646c-1.208,0.052-1.026,0.852-1.029,1.578     c-0.01,2.396-0.101,4.796,0.039,7.185c0.068,1.183-1.041,4.068,2.215,2.118c0.108-0.064,0.362,0.129,0.552,0.183     c3.028,0.844,4.174,0.218,5.164-2.809C67.802,86.965,67.805,86.269,67.305,85.565z M63.423,89.207     c-1.73,0.045-1.949-1.381-1.966-2.762c-0.014-1.271,0.285-2.471,1.798-2.451c1.622,0.019,1.824,1.354,1.914,2.638     C65.112,87.863,64.88,89.17,63.423,89.207z" fill="#FFFFFF" fill-rule="evenodd"/></g></g><g><g><path clip-rule="evenodd" d="M27.634,82.298c-2.508,0.073-4.098,1.792-4.067,4.393     c0.031,2.612,1.64,4.233,4.206,4.24c2.52,0.005,4.25-1.848,4.193-4.494C31.912,83.938,30.12,82.227,27.634,82.298z      M27.737,89.224c-1.633-0.057-2.073-1.354-2.013-2.793c0.057-1.383,0.646-2.53,2.174-2.426c1.507,0.103,1.901,1.345,1.938,2.666     C29.738,88.054,29.269,89.275,27.737,89.224z" fill="#FFFFFF" fill-rule="evenodd"/></g></g><g><g><path clip-rule="evenodd" d="M76.357,86.106c-0.146-1.96-1.47-3.419-3.421-3.767     c-2.228-0.396-3.944,0.715-4.968,3.221c-0.396,0.705-0.399,1.406,0.011,2.106c0.938,2.502,2.87,3.697,5.143,3.182     C75.317,90.35,76.536,88.563,76.357,86.106z M72.06,89.226c-1.514-0.086-1.909-1.329-1.97-2.598     c0.098-1.428,0.56-2.654,2.088-2.62c1.639,0.033,2.081,1.33,2.032,2.77C74.162,88.161,73.588,89.311,72.06,89.226z" fill="#FFFFFF" fill-rule="evenodd"/></g></g><g><g><path clip-rule="evenodd" d="M81.528,82.298c-2.509,0.055-4.122,1.767-4.102,4.356     c0.019,2.623,1.604,4.25,4.168,4.276c2.523,0.025,4.273-1.818,4.229-4.458C85.784,83.965,84.015,82.246,81.528,82.298z      M81.715,89.222c-1.646,0.052-2.147-1.218-2.136-2.67c0.013-1.375,0.539-2.554,2.058-2.547c1.528,0.004,1.961,1.228,2.056,2.391     C83.655,87.934,83.224,89.175,81.715,89.222z" fill="#FFFFFF" fill-rule="evenodd"/></g></g><g><g><path clip-rule="evenodd" d="M45.967,87.247c0.542-0.059,1.092-0.011,1.639-0.015     c2.105-0.015,2.464-0.571,1.661-2.567c-0.372-0.929-0.979-1.611-1.921-2.006c-1.923-0.8-4.042-0.136-4.953,1.586     c-1.087,2.052-0.505,5.083,1.174,6.108c1.942,1.183,4.336,0.645,5.72-1.325c-0.888-0.259-1.674-0.811-2.633,0.003     c-0.638,0.544-1.426,0.295-2.006-0.331c-0.288-0.309-0.559-0.718-0.34-1.101C44.689,86.931,45.403,87.305,45.967,87.247z      M45.813,83.965c0.883,0.015,1.437,0.613,1.467,1.391c0.05,1.26-1.09,0.215-1.4,0.724c-0.643-0.27-1.666,0.375-1.591-0.799     C44.341,84.478,44.947,83.955,45.813,83.965z" fill="#FFFFFF" fill-rule="evenodd"/></g></g><g><g><path clip-rule="evenodd" d="M99.272,89.039c-0.541,0.504-1.302,0.311-1.866-0.201     c-0.362-0.328-0.727-0.777-0.466-1.248c0.369-0.661,1.097-0.291,1.665-0.343c0.608-0.058,1.236-0.081,1.842-0.003     c1.938,0.252,2.009-0.813,1.58-2.205c-0.577-1.887-1.953-2.742-3.854-2.725c-1.967,0.018-3.396,1.493-3.705,3.695     c-0.282,1.974,0.706,3.934,2.302,4.577c2.051,0.826,3.861,0.289,5.203-1.655C101.019,88.883,100.224,88.152,99.272,89.039z      M98.449,83.968c0.878,0.02,1.443,0.62,1.454,1.397c0.018,1.176-1.02,0.389-1.512,0.668c-0.537-0.222-1.563,0.419-1.477-0.762     C96.976,84.47,97.584,83.948,98.449,83.968z" fill="#FFFFFF" fill-rule="evenodd"/></g></g></g><g><g><path clip-rule="evenodd" d="M98.123,35.018c-11.493-0.023-20.976,9.369-21.017,20.817    C77.061,67.46,86.439,76.93,98.021,76.952c11.505,0.022,20.971-9.354,21.016-20.813C119.083,44.519,109.696,35.043,98.123,35.018z     M98.291,74.118c-9.925,0-17.97-8.045-17.97-17.969c0-9.925,8.045-17.97,17.97-17.97c9.924,0,17.968,8.045,17.968,17.97    C116.259,66.073,108.215,74.118,98.291,74.118z" fill="#FFFFFF" fill-rule="evenodd"/></g></g></svg>