<?xml version="1.0" ?><!DOCTYPE svg  PUBLIC '-//W3C//DTD SVG 1.1//EN'  'http://www.w3.org/Graphics/SVG/1.1/DTD/svg11.dtd'><svg enable-background="new 0 0 128 128" height="128px" id="Layer_1" version="1.1" viewBox="0 0 128 128" width="128px" xml:space="preserve" xmlns="http://www.w3.org/2000/svg" xmlns:xlink="http://www.w3.org/1999/xlink"><path d="M127.363,100.88c0,2.243-1.817,4.061-4.061,4.061H5.424c-2.242,0-4.061-1.817-4.061-4.061V24.823  c0-2.243,1.818-4.061,4.061-4.061h117.879c2.243,0,4.061,1.818,4.061,4.061V100.88z" fill="#808080"/><g><path clip-rule="evenodd" d="M74.158,35.356c0.369,0.089,0.733,0.2,1.106,0.262   c1.526,0.247,2.743,1.06,3.79,2.132c0.253,0.258,0.515,0.778,0.414,1.04c-0.116,0.304-0.609,0.59-0.975,0.645   c-3.429,0.509-6.751,1.417-9.957,2.716c-1.699,0.69-3.341,1.531-4.979,2.364c-1.017,0.516-2.024,1.08-2.952,1.739   c-1.167,0.83-2.291,1.732-3.358,2.687c-1.64,1.466-3.284,2.938-4.804,4.528c-1.747,1.824-3.387,3.755-5.025,5.682   c-1.25,1.471-2.513,2.943-3.614,4.522c-1.333,1.914-2.563,3.906-3.721,5.929c-0.88,1.54-1.581,3.184-2.36,4.781   c-0.091,0.186-0.174,0.376-0.259,0.559c-0.977-0.303-1.309-0.978-1.076-2.082c0.573-2.703,1.663-5.215,2.922-7.652   c2.468-4.776,5.559-9.13,9.175-13.099c2.023-2.221,4.113-4.388,6.281-6.465c3.34-3.204,7.04-5.934,11.19-8.022   c1.874-0.946,3.825-1.655,5.892-2.04c0.349-0.065,0.695-0.149,1.041-0.224C73.313,35.356,73.735,35.356,74.158,35.356z" fill="#FFFFFF" fill-rule="evenodd"/><path clip-rule="evenodd" d="M92.005,89.587c-0.023-0.052-0.056-0.103-0.069-0.157   c-0.29-1.046-0.287-1.041,0.635-1.631c0.209-0.133,0.398-0.299,0.588-0.458c0.684-0.58,0.946-1.235,0.694-2.174   c-0.431-1.605-0.728-3.246-1.076-4.872c-0.026-0.126-0.026-0.259-0.046-0.457c0.454,0,0.879-0.042,1.284,0.023   c0.141,0.023,0.313,0.3,0.346,0.481c0.222,1.243,0.408,2.492,0.609,3.737c0.025,0.158,0.067,0.315,0.214,0.479   c0.446-1.024,0.893-2.053,1.338-3.079c0.068-0.158,0.134-0.318,0.203-0.475c0.566-1.29,0.566-1.29,2.093-1.122   c-0.27,0.548-0.525,1.075-0.788,1.6c-0.71,1.424-1.403,2.854-2.14,4.265c-0.865,1.657-1.945,3.117-3.77,3.84   C92.082,89.587,92.043,89.587,92.005,89.587z" fill="#FFFFFF" fill-rule="evenodd"/><path clip-rule="evenodd" d="M121.136,80.146c-0.143,0.282-0.283,0.565-0.448,0.891   c-0.239-0.055-0.491-0.15-0.747-0.164c-0.317-0.02-0.66-0.036-0.953,0.063c-0.64,0.215-0.742,0.865-0.23,1.3   c0.188,0.159,0.414,0.274,0.628,0.398c1.053,0.617,1.404,1.223,1.252,2.165c-0.139,0.849-0.893,1.598-1.924,1.725   c-0.65,0.08-1.336,0.024-1.985-0.092c-0.7-0.123-0.723-0.242-0.473-0.886c0.055-0.139,0.128-0.27,0.18-0.373   c0.539,0.106,1.035,0.238,1.539,0.294c0.501,0.058,0.93-0.136,1.076-0.656c0.144-0.515-0.194-0.823-0.583-1.073   c-0.24-0.156-0.505-0.279-0.736-0.446c-1.129-0.821-1.112-2.278,0.037-3.084c0.792-0.555,1.681-0.572,2.591-0.43   c0.26,0.042,0.518,0.093,0.777,0.139C121.136,79.993,121.136,80.07,121.136,80.146z" fill="#FFFFFF" fill-rule="evenodd"/><path clip-rule="evenodd" d="M8.515,65.755c0.185-1.022,0.345-1.959,0.523-2.894   c0.984-5.149,1.975-10.299,2.949-15.451c0.062-0.324,0.156-0.552,0.492-0.603c2.549-0.387,5.104-0.646,7.649-0.017   c2.224,0.55,3.767,2.109,4.031,3.941c0.527,3.654-1.597,6.589-4.777,7.636c-1.67,0.551-3.375,0.677-5.107,0.52   c-0.406-0.037-0.531,0.067-0.601,0.454c-0.363,1.995-0.751,3.984-1.145,5.973c-0.032,0.158-0.172,0.419-0.269,0.422   C11.041,65.766,9.821,65.755,8.515,65.755z M14.375,55.646c0.854,0,1.601,0.07,2.33-0.015c1.41-0.163,2.547-0.805,3.167-2.153   c0.78-1.698,0.091-3.381-1.589-3.694c-0.811-0.153-1.67-0.059-2.507-0.042c-0.117,0.003-0.31,0.184-0.335,0.308   C15.085,51.845,14.752,53.646,14.375,55.646z" fill="#FFFFFF" fill-rule="evenodd"/><path clip-rule="evenodd" d="M32.645,63.12c-0.652,0.695-1.163,1.377-1.804,1.896   c-1.44,1.165-3.095,1.457-4.797,0.693c-1.685-0.76-2.348-2.258-2.404-4.016c-0.115-3.581,1.148-6.538,4.174-8.585   c1.913-1.296,4.101-1.688,6.366-1.559c1.158,0.066,2.305,0.341,3.458,0.507c0.439,0.062,0.507,0.308,0.434,0.69   c-0.516,2.704-1.069,5.405-1.515,8.121c-0.235,1.433-0.298,2.896-0.394,4.347c-0.027,0.412-0.123,0.582-0.558,0.568   c-0.863-0.027-1.727-0.023-2.589-0.001c-0.408,0.01-0.547-0.143-0.513-0.539C32.563,64.561,32.595,63.875,32.645,63.12z    M33.579,54.737c-1.133-0.32-2.117-0.184-2.966,0.418c-2.048,1.453-2.938,3.507-2.73,5.969c0.141,1.672,1.641,2.249,2.97,1.215   c0.37-0.288,0.689-0.668,0.953-1.06c0.86-1.27,1.131-2.742,1.383-4.217C33.32,56.296,33.447,55.53,33.579,54.737z" fill="#FFFFFF" fill-rule="evenodd"/><path clip-rule="evenodd" d="M66.767,58.177c-0.104,2.451-1.249,5.092-4.063,6.8   c-1.798,1.093-3.771,1.36-5.818,0.953c-2.429-0.484-3.999-2.181-4.289-4.837c-0.366-3.353,1.221-7.208,4.836-8.844   c1.557-0.704,3.203-0.93,4.885-0.583C65.16,52.251,66.816,54.425,66.767,58.177z M62.55,57.479c0-0.211,0.016-0.421-0.002-0.632   c-0.14-1.58-1.261-2.476-2.742-2.171c-0.708,0.146-1.25,0.574-1.667,1.143c-1.1,1.502-1.526,3.206-1.378,5.039   c0.117,1.428,1.207,2.321,2.533,2.145c0.787-0.106,1.375-0.558,1.84-1.173C62.104,60.544,62.471,59.058,62.55,57.479z" fill="#FFFFFF" fill-rule="evenodd"/><path clip-rule="evenodd" d="M70,51.878c1.131,0,2.253,0,3.462,0   c-0.062,0.729-0.119,1.424-0.192,2.299c0.221-0.237,0.338-0.359,0.449-0.482c1.419-1.591,3.142-2.418,5.31-2.086   c1.528,0.234,2.537,1.312,2.706,2.845c0.16,1.466-0.085,2.901-0.359,4.333c-0.418,2.178-0.829,4.357-1.267,6.53   c-0.033,0.169-0.248,0.43-0.385,0.434c-1.168,0.028-2.338,0.01-3.507-0.001c-0.05,0-0.102-0.046-0.201-0.094   c0.209-1.116,0.427-2.24,0.625-3.365c0.313-1.769,0.616-3.541,0.907-5.312c0.046-0.278,0.022-0.574-0.007-0.857   c-0.115-1.109-0.893-1.6-1.959-1.231c-0.95,0.328-1.517,1.074-1.989,1.902c-0.686,1.203-0.938,2.54-1.182,3.879   c-0.275,1.525-0.557,3.047-0.82,4.572c-0.065,0.384-0.225,0.55-0.641,0.541c-1.125-0.026-2.252-0.008-3.503-0.008   C68.309,61.084,69.153,56.495,70,51.878z" fill="#FFFFFF" fill-rule="evenodd"/><path clip-rule="evenodd" d="M87.334,60.312c-0.148,0.982,0.327,1.816,1.201,2.255   c1.069,0.537,2.205,0.463,3.322,0.27c0.802-0.139,1.581-0.415,2.414-0.641c0.079,0.808,0.183,1.621,0.22,2.44   c0.007,0.177-0.179,0.464-0.347,0.534c-2.138,0.899-4.368,1.185-6.639,0.733c-2.347-0.468-3.84-2.132-4.086-4.528   c-0.325-3.148,0.573-5.908,3.014-8.001c2.022-1.736,4.394-2.292,6.983-1.537c1.769,0.518,2.738,1.804,2.863,3.612   c0.121,1.771-0.679,3.134-2.333,3.932c-1.262,0.608-2.622,0.844-4.003,0.921C89.068,60.352,88.188,60.312,87.334,60.312z    M87.669,57.433c1.443-0.026,2.837,0.056,4.13-0.593c0.478-0.239,0.734-0.656,0.698-1.218c-0.051-0.768-0.822-1.26-1.811-1.155   C89.205,54.623,87.956,55.803,87.669,57.433z" fill="#FFFFFF" fill-rule="evenodd"/><path clip-rule="evenodd" d="M100.899,60.365c-0.146,1.322,0.821,2.354,2.277,2.536   c1.359,0.17,2.672-0.034,3.951-0.501c0.214-0.078,0.425-0.162,0.718-0.272c0.087,0.898,0.187,1.743,0.233,2.591   c0.008,0.145-0.176,0.381-0.325,0.441c-2.389,0.967-4.854,1.311-7.35,0.543c-2.068-0.634-3.141-2.211-3.393-4.296   c-0.336-2.787,0.376-5.309,2.315-7.375c2.088-2.223,4.674-3.003,7.635-2.197c1.817,0.493,2.783,1.802,2.898,3.636   c0.112,1.796-0.704,3.149-2.402,3.94c-1.709,0.797-3.542,0.915-5.389,0.953C101.688,60.371,101.309,60.365,100.899,60.365z    M101.288,57.464c0.849-0.049,1.649-0.065,2.441-0.153c0.468-0.05,0.939-0.176,1.384-0.342c0.72-0.268,1.048-0.811,0.958-1.452   c-0.082-0.574-0.585-0.974-1.331-1.053C103.168,54.298,101.441,55.737,101.288,57.464z" fill="#FFFFFF" fill-rule="evenodd"/><path clip-rule="evenodd" d="M110.076,65.769c0.185-1.016,0.339-1.934,0.521-2.846   c0.703-3.528,1.435-7.051,1.723-10.648c0.013-0.148,0.211-0.4,0.33-0.403c1.031-0.033,2.063-0.018,3.187-0.018   c-0.074,0.972-0.145,1.884-0.215,2.798c1.257-1.876,2.691-3.355,5.275-3.071c-0.249,1.273-0.475,2.468-0.735,3.656   c-0.023,0.109-0.278,0.24-0.424,0.238c-1.857-0.018-3.155,0.906-3.794,2.556c-0.536,1.377-0.814,2.858-1.158,4.305   c-0.237,1.004-0.381,2.03-0.592,3.042c-0.031,0.146-0.202,0.371-0.313,0.375C112.642,65.778,111.4,65.769,110.076,65.769z" fill="#FFFFFF" fill-rule="evenodd"/><path clip-rule="evenodd" d="M44.414,48.512c-0.003,1.898-0.343,3.734-0.992,5.512   c-0.07,0.19-0.208,0.36-0.333,0.523c-0.302,0.392-0.628,0.427-0.855-0.001c-0.299-0.567-0.55-1.18-0.692-1.802   c-0.438-1.921-0.843-3.852-1.211-5.788c-0.47-2.475-0.895-4.957-1.334-7.437c-0.06-0.338-0.078-0.684-0.119-1.024   c-0.052-0.442,0.201-0.7,0.611-0.531c0.361,0.147,0.729,0.374,0.99,0.659C43.042,41.418,44.409,44.696,44.414,48.512z" fill="#FFFFFF" fill-rule="evenodd"/><path clip-rule="evenodd" d="M51.136,86.264c-0.245-2.399-0.492-4.823-0.739-7.25   c-0.031-0.008-0.061-0.016-0.09-0.022c-0.113,0.47-0.229,0.938-0.34,1.41c-0.436,1.861-0.874,3.725-1.301,5.588   c-0.079,0.348-0.227,0.532-0.618,0.483c-0.277-0.034-0.564-0.006-0.914-0.006c0.447-1.786,0.87-3.49,1.299-5.192   c0.294-1.169,0.606-2.333,0.887-3.504c0.087-0.359,0.246-0.54,0.628-0.478c0.093,0.017,0.19,0.003,0.287,0.003   c1.334-0.002,1.326-0.002,1.44,1.327c0.154,1.774,0.324,3.547,0.49,5.319c0.005,0.049,0.041,0.094,0.102,0.229   c0.108-0.201,0.185-0.34,0.255-0.48c1.001-2.025,1.999-4.054,3.009-6.075c0.067-0.131,0.23-0.296,0.355-0.305   c0.607-0.029,1.218-0.012,1.881-0.012c-0.165,1.296-0.316,2.524-0.48,3.752c-0.211,1.594-0.469,3.182-0.628,4.78   c-0.056,0.558-0.267,0.685-0.75,0.639c-0.243-0.024-0.491-0.004-0.828-0.004c0.368-2.531,0.728-4.997,1.087-7.461   c-0.021-0.012-0.042-0.021-0.063-0.031c-0.08,0.137-0.168,0.271-0.239,0.414c-1.032,2.054-2.058,4.11-3.095,6.163   C52.311,86.461,52.254,86.479,51.136,86.264z" fill="#FFFFFF" fill-rule="evenodd"/><path clip-rule="evenodd" d="M14.349,82.695c-0.554,0-1.024,0-1.588,0   c0.075-0.442,0.137-0.808,0.205-1.209c1.027,0,2.035,0,3.113,0c-0.242,1.304-0.519,2.587-0.705,3.883   c-0.083,0.579-0.352,0.815-0.879,0.931c-1.154,0.253-2.309,0.42-3.468,0.101c-1.969-0.543-2.807-2.117-2.666-3.98   c0.338-4.452,4.258-5.774,7.377-5.061c0.688,0.156,0.697,0.198,0.46,0.843c-0.077,0.212-0.17,0.418-0.262,0.646   c-0.987-0.37-1.963-0.469-2.961-0.232c-2.195,0.522-3.567,3.168-2.72,5.266c0.334,0.828,1.007,1.224,1.857,1.355   c0.114,0.017,0.23,0.012,0.345,0.017c1.297,0.068,1.407-0.016,1.646-1.261C14.181,83.585,14.257,83.178,14.349,82.695z" fill="#FFFFFF" fill-rule="evenodd"/><path clip-rule="evenodd" d="M29.665,76.787c-0.273,1.354-0.525,2.598-0.811,4.01   c0.29-0.248,0.44-0.384,0.599-0.511c0.73-0.577,1.555-0.77,2.424-0.437c0.856,0.328,1.125,1.081,1.187,1.935   c0.2,2.759-1.923,5.011-4.539,4.809c-1.504-0.113-2.132-0.85-1.862-2.378c0.417-2.351,0.915-4.687,1.404-7.022   c0.033-0.16,0.272-0.358,0.442-0.386C28.858,76.746,29.225,76.787,29.665,76.787z M31.477,82.263   c-0.008-0.432-0.075-0.992-0.694-1.245c-0.627-0.257-1.124,0.054-1.542,0.475c-0.224,0.227-0.442,0.508-0.54,0.804   c-0.211,0.651-0.413,1.319-0.492,1.995c-0.117,0.977,0.5,1.4,1.45,1.076C30.647,85.027,31.462,83.698,31.477,82.263z" fill="#FFFFFF" fill-rule="evenodd"/><path clip-rule="evenodd" d="M78.832,86.467c0.273-1.481,0.525-2.871,0.787-4.26   s0.557-2.771,0.785-4.165c0.089-0.548,0.356-0.745,0.862-0.748c0.743-0.002,1.489-0.058,2.229-0.01   c1.015,0.066,1.9,0.472,2.256,1.488c0.364,1.036,0.176,2.049-0.531,2.914c-0.785,0.965-1.864,1.289-3.058,1.321   c-1.165,0.03-1.167,0.022-1.39,1.153c-0.11,0.563-0.229,1.123-0.315,1.688c-0.067,0.438-0.212,0.711-0.728,0.625   C79.472,86.431,79.2,86.467,78.832,86.467z M82.065,81.785c0.115,0,0.232,0.013,0.344-0.001c0.803-0.107,1.461-0.434,1.81-1.217   c0.239-0.538,0.291-1.094-0.078-1.576c-0.445-0.583-1.114-0.597-1.777-0.567c-0.371,0.017-0.577,0.181-0.633,0.581   c-0.092,0.659-0.238,1.311-0.358,1.967C81.223,81.785,81.229,81.793,82.065,81.785z" fill="#FFFFFF" fill-rule="evenodd"/><path clip-rule="evenodd" d="M37.799,85.063c-0.35,0.397-0.568,0.694-0.834,0.938   c-0.682,0.627-1.493,0.792-2.346,0.453c-0.884-0.35-1.142-1.147-1.178-2.007c-0.111-2.622,1.938-4.742,4.568-4.727   c0.677,0.004,1.352,0.114,2.102,0.18c-0.23,1.187-0.458,2.23-0.631,3.282c-0.173,1.055-0.292,2.119-0.441,3.234   c-0.36,0-0.769,0-1.239,0C37.799,86.001,37.799,85.597,37.799,85.063z M38.505,80.941c-0.444-0.027-0.688-0.063-0.93-0.056   c-1.662,0.056-2.911,2.321-2.421,3.875c0.188,0.601,0.849,0.841,1.4,0.471c0.365-0.246,0.763-0.59,0.914-0.979   C37.87,83.216,38.143,82.131,38.505,80.941z" fill="#FFFFFF" fill-rule="evenodd"/><path clip-rule="evenodd" d="M63.472,86.429c-0.334,0-0.762,0-1.255,0   c0.03-0.442,0.058-0.852,0.093-1.383c-0.363,0.396-0.623,0.742-0.944,1.018c-1.255,1.083-3.063,0.544-3.369-1.021   c-0.096-0.494-0.079-1.041,0.017-1.539c0.518-2.692,2.813-4.231,5.522-3.74c0.334,0.061,0.665,0.139,0.978,0.206   C64.165,82.138,63.823,84.257,63.472,86.429z M62.932,80.98c-1.09-0.254-1.87,0.017-2.476,0.727   c-0.728,0.846-1.146,1.816-0.847,2.952c0.188,0.711,0.827,0.985,1.425,0.563c0.418-0.293,0.846-0.719,1.023-1.18   C62.43,83.076,62.638,82.046,62.932,80.98z" fill="#FFFFFF" fill-rule="evenodd"/><path clip-rule="evenodd" d="M91.019,86.432c-0.312,0-0.705,0-1.147,0c0-0.431,0-0.84,0-1.373   c-0.353,0.392-0.6,0.718-0.898,0.987c-0.636,0.571-1.404,0.713-2.197,0.452c-0.767-0.252-1.119-0.878-1.227-1.656   c-0.148-1.088,0.104-2.095,0.667-3.017c1.01-1.649,2.922-2.435,4.926-2.058c1.024,0.191,1.011,0.189,0.826,1.218   C91.649,82.769,91.345,84.554,91.019,86.432z M90.529,80.977c-1.189-0.262-1.999,0.077-2.612,0.864   c-0.688,0.883-1.045,1.877-0.672,2.996c0.179,0.535,0.765,0.76,1.274,0.429c0.428-0.278,0.886-0.681,1.066-1.135   C89.982,83.135,90.213,82.072,90.529,80.977z" fill="#FFFFFF" fill-rule="evenodd"/><path clip-rule="evenodd" d="M104.889,82.512c-0.018,2.266-1.549,3.98-3.66,4.096   c-1.686,0.091-2.856-1.02-2.86-2.712c-0.004-2.042,1.226-3.69,3.073-4.123C103.381,79.32,104.903,80.53,104.889,82.512z    M103.316,82.637c-0.004-0.951-0.333-1.527-0.877-1.699c-0.63-0.198-1.292,0.048-1.758,0.673c-0.521,0.702-0.762,1.505-0.733,2.372   c0.021,0.729,0.397,1.233,0.974,1.416c0.547,0.176,1.17-0.059,1.606-0.623C103.05,84.1,103.282,83.319,103.316,82.637z" fill="#FFFFFF" fill-rule="evenodd"/><path clip-rule="evenodd" d="M25.998,83.278c-0.096,1.055-0.77,2.407-2.41,3.07   c-1.061,0.429-2.162,0.451-3.108-0.298c-0.92-0.727-1.075-1.746-0.894-2.858c0.338-2.083,1.806-3.473,3.708-3.479   C25.049,79.706,26.137,80.869,25.998,83.278z M24.45,82.84c0.011-1.141-0.283-1.697-0.843-1.896   c-0.641-0.228-1.422,0.012-1.806,0.744c-0.345,0.658-0.581,1.407-0.698,2.143c-0.119,0.742,0.328,1.342,0.921,1.55   c0.59,0.206,1.233-0.03,1.689-0.647C24.189,84.086,24.433,83.354,24.45,82.84z" fill="#FFFFFF" fill-rule="evenodd"/><path clip-rule="evenodd" d="M110.795,86.439c-0.422,0-0.8,0-1.236,0c0-0.33,0-0.637,0-1.057   c-0.252,0.23-0.396,0.41-0.58,0.522c-0.386,0.237-0.771,0.541-1.197,0.638c-1.442,0.33-2.422-0.497-2.249-1.968   c0.178-1.496,0.512-2.976,0.801-4.458c0.021-0.11,0.218-0.256,0.345-0.268c0.375-0.035,0.755-0.013,1.21-0.013   c-0.189,1.019-0.367,1.97-0.54,2.922c-0.086,0.47-0.236,0.945-0.219,1.412c0.013,0.362,0.142,0.867,0.396,1.031   c0.257,0.165,0.792,0.101,1.104-0.063c0.765-0.399,1.068-1.171,1.241-1.974c0.203-0.934,0.392-1.87,0.538-2.813   c0.063-0.403,0.205-0.571,0.621-0.523c0.3,0.032,0.607,0.006,0.988,0.006C111.605,82.06,111.205,84.225,110.795,86.439z" fill="#FFFFFF" fill-rule="evenodd"/><path clip-rule="evenodd" d="M115.218,79.841c0.516,0,0.932,0,1.439,0   c-0.066,0.425-0.124,0.786-0.177,1.123c-0.089,0.033-0.124,0.054-0.16,0.056c-0.448,0.04-1.042-0.081-1.31,0.16   c-0.277,0.248-0.247,0.846-0.339,1.294c-0.097,0.485-0.181,0.976-0.266,1.464c-0.204,1.184-0.165,1.24,0.98,1.474   c0.007,0.018,0.022,0.034,0.021,0.05c-0.077,1.15-0.105,1.177-1.165,1.148c-0.985-0.026-1.557-0.481-1.465-1.355   c0.136-1.287,0.405-2.561,0.618-3.84c0.015-0.093,0.022-0.188,0.039-0.333c-0.254-0.027-0.489-0.054-0.826-0.091   c0.057-0.375,0.112-0.736,0.171-1.126c0.225-0.011,0.425,0.017,0.594-0.044c0.151-0.053,0.323-0.178,0.383-0.316   c0.125-0.288,0.09-0.754,0.289-0.881c0.379-0.243,0.879-0.303,1.433-0.47C115.385,78.759,115.309,79.255,115.218,79.841z" fill="#FFFFFF" fill-rule="evenodd"/><path clip-rule="evenodd" d="M69.498,86.159c0.121-0.359,0.234-0.692,0.336-0.987   c0.59,0.107,1.125,0.242,1.668,0.293c0.451,0.041,0.84-0.148,0.969-0.635c0.127-0.479-0.109-0.81-0.505-1.051   c-0.262-0.158-0.538-0.295-0.786-0.475c-1.149-0.823-1.117-2.333,0.059-3.124c0.874-0.588,2.339-0.65,3.257-0.11   c-0.104,0.308-0.21,0.626-0.331,0.983c-0.299-0.073-0.551-0.17-0.808-0.188c-0.299-0.022-0.62-0.034-0.899,0.054   c-0.689,0.22-0.805,0.857-0.256,1.321c0.202,0.171,0.447,0.293,0.677,0.429c0.748,0.444,1.355,0.994,1.227,1.958   c-0.131,1.004-0.765,1.61-1.725,1.848C71.409,86.714,70.452,86.679,69.498,86.159z" fill="#FFFFFF" fill-rule="evenodd"/><path clip-rule="evenodd" d="M69.538,80.076c-0.122,0.334-0.229,0.634-0.354,0.974   c-0.289-0.071-0.541-0.167-0.798-0.186c-0.298-0.021-0.622-0.036-0.898,0.056c-0.718,0.241-0.812,0.893-0.216,1.356   c0.179,0.142,0.386,0.246,0.585,0.36c0.817,0.469,1.405,1.061,1.236,2.114c-0.14,0.868-0.789,1.558-1.812,1.761   c-0.933,0.185-1.864,0.17-2.769-0.369c0.126-0.348,0.248-0.679,0.352-0.965c0.598,0.106,1.133,0.231,1.676,0.289   c0.438,0.047,0.804-0.16,0.949-0.591c0.159-0.466-0.062-0.813-0.455-1.067c-0.337-0.219-0.7-0.405-1.008-0.66   c-0.872-0.715-0.909-1.869-0.116-2.673C66.739,79.635,68.436,79.432,69.538,80.076z" fill="#FFFFFF" fill-rule="evenodd"/><path clip-rule="evenodd" d="M16.437,86.467c0.228-1.229,0.435-2.374,0.654-3.517   c0.36-1.879,0.748-3.753,1.08-5.636c0.08-0.456,0.276-0.566,0.681-0.533c0.282,0.021,0.566,0.003,0.932,0.003   c-0.168,0.938-0.316,1.795-0.479,2.649c-0.405,2.121-0.843,4.239-1.21,6.366c-0.093,0.538-0.282,0.735-0.803,0.672   C17.046,86.44,16.796,86.467,16.437,86.467z" fill="#FFFFFF" fill-rule="evenodd"/><path clip-rule="evenodd" d="M43.645,76.819c-0.216,1.156-0.412,2.224-0.615,3.29   c-0.373,1.95-0.762,3.896-1.114,5.852c-0.068,0.38-0.195,0.54-0.583,0.511c-0.317-0.024-0.639-0.005-1.044-0.005   c0.178-0.934,0.339-1.772,0.5-2.61c0.408-2.139,0.836-4.272,1.211-6.416c0.092-0.53,0.291-0.738,0.814-0.662   C43.054,76.813,43.302,76.805,43.645,76.819z" fill="#FFFFFF" fill-rule="evenodd"/></g></svg>