<?xml version="1.0" ?><!DOCTYPE svg  PUBLIC '-//W3C//DTD SVG 1.1//EN'  'http://www.w3.org/Graphics/SVG/1.1/DTD/svg11.dtd'><svg enable-background="new 0 0 128 128" height="128px" id="Layer_1" version="1.1" viewBox="0 0 128 128" width="128px" xml:space="preserve" xmlns="http://www.w3.org/2000/svg" xmlns:xlink="http://www.w3.org/1999/xlink"><path d="M127.402,101.635c0,2.243-1.818,4.062-4.061,4.062H5.463c-2.242,0-4.061-1.818-4.061-4.062V25.578  c0-2.243,1.818-4.061,4.061-4.061h117.879c2.242,0,4.061,1.818,4.061,4.061V101.635z" fill="#808080"/><g><path clip-rule="evenodd" d="M26.785,48.468c0.033,0.185,0.196,0.147,0.311,0.168   c1.369,0.245,2.69,0.664,3.849,1.43c0.91,0.603,1.788,1.264,2.661,1.931c0.82,0.626,1.683,1.211,2.528,1.813   c0.807,0.577,1.604,1.171,2.403,1.757c0.695,0.507,1.381,1.025,2.084,1.521c1.294,0.909,2.055,2.103,2.055,3.726   c-0.004,2.358,0.005,4.713,0.002,7.072c-0.002,1.78-0.986,2.973-2.363,3.943c-1.427,1.006-2.832,2.048-4.248,3.068   c-1.679,1.209-3.345,2.438-5.047,3.613c-1.155,0.8-2.491,1.187-3.851,1.489c-0.036,0.008-0.06,0.061-0.091,0.093   c-1.08,0-2.161,0-3.241,0c-0.114-0.221-0.342-0.153-0.52-0.189c-1.106-0.234-2.178-0.587-3.154-1.146   c-1.385-0.792-2.61-1.825-3.909-2.748c-1.736-1.236-3.456-2.497-5.174-3.759c-0.772-0.565-1.571-1.099-2.194-1.852   c-0.377-0.456-0.52-1.035-0.861-1.503c0-2.945,0-5.893,0-8.838c0.046-0.155,0.094-0.311,0.143-0.466   c0.256-0.805,0.653-1.52,1.306-2.078c1.297-1.106,2.722-2.045,4.087-3.059c1.701-1.264,3.427-2.492,5.128-3.755   c1.056-0.785,2.234-1.328,3.465-1.736c1.232-0.409,2.526-0.497,3.826-0.436c0.169,0.009,0.357,0.093,0.511-0.06   C26.588,48.468,26.686,48.468,26.785,48.468z M25.432,66.755c0.216-0.02,0.497-0.021,0.767-0.075   c1.488-0.294,2.507-1.394,3.708-2.179c0.217-0.142,0.246-0.292-0.009-0.47c-0.546-0.38-1.092-0.766-1.603-1.192   c-1.508-1.254-3.872-1.184-5.067-0.459c-0.797,0.483-1.512,1.071-2.257,1.621c-0.448,0.33-0.427,0.475,0.06,0.771   c0.458,0.277,0.897,0.579,1.318,0.91C23.234,66.378,24.243,66.733,25.432,66.755z" fill="#FFFFFF" fill-rule="evenodd"/><path clip-rule="evenodd" d="M51.431,67.026c0,1.457-0.018,2.778,0.009,4.098   c0.008,0.436-0.09,0.652-0.561,0.572c-0.111-0.019-0.23-0.015-0.343,0c-0.35,0.048-0.448-0.109-0.447-0.445   c0.008-3.86,0.013-7.719-0.003-11.579c-0.002-0.422,0.248-0.576,0.539-0.716c1.243-0.597,2.558-0.878,3.937-0.815   c0.683,0.033,1.355,0.095,1.991,0.423c0.709,0.366,1.209,0.885,1.45,1.635c0.635,1.989,0.623,3.994-0.005,5.973   c-0.362,1.144-1.26,1.718-2.418,1.948C54.062,68.425,52.695,68.182,51.431,67.026z M51.431,62.824c0,0.819,0,1.637-0.002,2.455   c0,0.18,0.009,0.34,0.16,0.488c0.975,0.951,2.121,1.355,3.479,1.164c1.014-0.144,1.634-0.622,1.803-1.635   c0.237-1.424,0.218-2.864-0.005-4.294c-0.129-0.819-0.642-1.277-1.427-1.486c-1.264-0.337-2.455-0.048-3.642,0.369   c-0.307,0.106-0.381,0.284-0.374,0.584C51.442,61.255,51.431,62.039,51.431,62.824z" fill="#FFFFFF" fill-rule="evenodd"/><path clip-rule="evenodd" d="M95.75,67.09c0,0.591,0,1.092,0,1.593   c0,0.867-0.012,1.734,0.006,2.603c0.006,0.326-0.106,0.422-0.425,0.414c-1.109-0.032-0.936,0.129-0.938-0.937   c-0.007-3.634,0.011-7.267-0.018-10.899c-0.004-0.481,0.182-0.735,0.559-0.91c1.696-0.789,3.475-1.066,5.301-0.632   c1.117,0.266,1.884,1.007,2.188,2.151c0.482,1.809,0.482,3.622-0.013,5.427c-0.316,1.156-1.073,1.877-2.24,2.151   c-0.984,0.233-1.968,0.311-2.941-0.063C96.722,67.795,96.3,67.459,95.75,67.09z M95.75,62.833c0,0.8,0,1.602-0.002,2.402   c0,0.199,0.016,0.381,0.175,0.538c1.029,1.022,2.257,1.39,3.671,1.115c0.982-0.188,1.52-0.786,1.653-1.788   c0.153-1.123,0.124-2.253,0.053-3.377c-0.089-1.437-0.494-1.942-1.685-2.234c-1.264-0.313-2.457,0.003-3.631,0.457   c-0.241,0.093-0.234,0.284-0.234,0.484C95.751,61.23,95.75,62.032,95.75,62.833z" fill="#FFFFFF" fill-rule="evenodd"/><path clip-rule="evenodd" d="M112.686,63.516c0,0.589-0.026,1.181,0.005,1.768   c0.076,1.44-0.752,2.229-1.866,2.601c-1.469,0.49-2.992,0.529-4.498,0.147c-1.206-0.307-1.894-1.173-1.945-2.446   c-0.045-1.129,0.33-2.048,1.57-2.622c0.945-0.439,1.958-0.489,2.949-0.677c0.656-0.124,1.322-0.206,1.987-0.286   c0.29-0.034,0.414-0.119,0.412-0.452c-0.008-1.539-0.748-1.972-2.134-2.148c-1.234-0.158-2.398,0.197-3.487,0.769   c-0.306,0.161-0.401,0.105-0.536-0.191c-0.395-0.866-0.397-0.83,0.485-1.216c1.441-0.632,2.929-0.797,4.457-0.491   c1.647,0.331,2.573,1.498,2.6,3.183C112.693,62.141,112.686,62.828,112.686,63.516z M111.29,64.506   c0-0.343-0.012-0.688,0.004-1.029c0.013-0.276-0.055-0.372-0.357-0.31c-0.752,0.151-1.509,0.276-2.268,0.39   c-0.708,0.106-1.426,0.144-2.076,0.505c-0.671,0.373-0.932,0.854-0.824,1.65c0.075,0.561,0.527,1.075,1.152,1.169   c1.104,0.166,2.231,0.224,3.3-0.133c0.858-0.285,1.101-0.589,1.071-1.409C111.281,65.061,111.29,64.782,111.29,64.506z" fill="#FFFFFF" fill-rule="evenodd"/><path clip-rule="evenodd" d="M72.379,63.474c0,0.604-0.028,1.212,0.006,1.816   c0.084,1.517-0.718,2.262-2.034,2.66c-1.424,0.43-2.901,0.447-4.358,0.07c-1.026-0.266-1.795-1.179-1.879-2.197   c-0.113-1.367,0.368-2.262,1.425-2.8c0.975-0.498,2.043-0.547,3.082-0.736c0.69-0.126,1.387-0.224,2.085-0.305   c0.299-0.035,0.363-0.161,0.361-0.441c-0.008-1.298-0.811-2.068-2.273-2.16c-1.176-0.072-2.273,0.215-3.305,0.744   c-0.34,0.174-0.517,0.169-0.649-0.2c-0.054-0.151-0.14-0.294-0.227-0.431c-0.146-0.227-0.037-0.364,0.159-0.459   c1.941-0.947,3.932-1.319,5.993-0.417c1.064,0.467,1.527,1.385,1.591,2.499c0.046,0.783,0.009,1.57,0.009,2.356   C72.369,63.474,72.373,63.474,72.379,63.474z M68.08,66.986c0.374-0.021,0.782-0.034,1.189-0.066   c0.179-0.015,0.358-0.048,0.527-0.104c0.927-0.31,1.335-0.782,1.271-1.601c-0.044-0.553-0.022-1.112-0.002-1.666   c0.011-0.323-0.025-0.471-0.418-0.386c-0.733,0.16-1.477,0.269-2.218,0.382c-0.805,0.123-1.624,0.172-2.338,0.637   c-0.564,0.368-0.635,0.914-0.572,1.508c0.063,0.595,0.391,0.978,0.97,1.153C67.001,66.997,67.526,66.954,68.08,66.986z" fill="#FFFFFF" fill-rule="evenodd"/><path clip-rule="evenodd" d="M78.304,66.075c0.417-0.773,0.64-1.544,0.94-2.28   c0.702-1.718,1.391-3.441,2.061-5.172c0.113-0.292,0.271-0.359,0.544-0.333c0.354,0.034,0.863-0.153,1.023,0.079   c0.162,0.235-0.181,0.649-0.316,0.972c-0.815,1.952-1.665,3.89-2.482,5.842c-0.809,1.937-1.618,3.874-2.372,5.832   c-0.197,0.509-0.412,0.715-0.972,0.692c-1.081-0.044-0.873,0.022-0.536-0.851c0.388-1.015,0.846-2.005,1.28-3.001   c0.079-0.182,0.067-0.325-0.013-0.508c-0.449-1.028-0.879-2.063-1.313-3.099c-0.771-1.834-1.534-3.669-2.313-5.5   c-0.144-0.336-0.162-0.477,0.293-0.468c1.104,0.023,1.093,0.008,1.494,1.032C76.501,61.551,77.396,63.785,78.304,66.075z" fill="#FFFFFF" fill-rule="evenodd"/><path clip-rule="evenodd" d="M88.114,58.122c1.244-0.047,2.379,0.33,3.488,0.851   c0.362,0.17,0.395,0.368,0.21,0.673c-0.034,0.055-0.065,0.114-0.088,0.174c-0.179,0.474-0.404,0.477-0.864,0.25   c-1.318-0.651-2.706-0.977-4.166-0.441c-0.394,0.144-0.764,0.309-0.822,0.801c-0.057,0.47,0.144,0.798,0.511,1.087   c0.573,0.453,1.254,0.692,1.911,0.965c0.811,0.336,1.625,0.66,2.39,1.099c0.77,0.444,1.277,1.046,1.268,1.996   c-0.01,0.946-0.459,1.608-1.262,2.055c-1.104,0.614-2.308,0.668-3.524,0.589c-1.074-0.067-2.08-0.383-3.043-0.862   c-0.293-0.146-0.397-0.259-0.203-0.582c0.403-0.674,0.401-0.718,1.105-0.401c1.409,0.635,2.866,0.751,4.358,0.438   c0.476-0.1,0.919-0.322,1.073-0.878c0.139-0.494-0.004-0.931-0.428-1.231c-0.659-0.468-1.411-0.74-2.155-1.019   c-0.814-0.304-1.595-0.665-2.318-1.145c-1.451-0.963-1.525-2.985-0.131-3.794c0.497-0.288,1.033-0.491,1.613-0.543   C87.396,58.173,87.756,58.149,88.114,58.122z" fill="#FFFFFF" fill-rule="evenodd"/><path clip-rule="evenodd" d="M114.852,63.619c0.001-1.309,0.011-2.617-0.007-3.926   c-0.003-0.299,0.083-0.487,0.344-0.628c1.284-0.698,2.661-0.971,4.106-0.926c0.717,0.021,1.425,0.085,2.105,0.376   c1.064,0.453,1.558,1.319,1.59,2.375c0.068,2.273,0.022,4.548,0.032,6.823c0,0.227-0.064,0.307-0.302,0.32   c-1.075,0.071-1.075,0.08-1.075-1.01c0-1.815,0.003-3.632-0.003-5.448c-0.001-0.293-0.034-0.587-0.063-0.878   c-0.055-0.547-0.363-0.887-0.876-1.064c-1.496-0.516-2.927-0.232-4.339,0.337c-0.283,0.115-0.193,0.35-0.195,0.545   c-0.005,2.34-0.014,4.679,0.008,7.02c0.004,0.415-0.112,0.519-0.516,0.503c-0.808-0.031-0.809-0.008-0.81-0.834   C114.852,66.01,114.852,64.815,114.852,63.619z" fill="#FFFFFF" fill-rule="evenodd"/><path clip-rule="evenodd" d="M60.63,60.709c0-2.275,0.005-4.547-0.005-6.822   c-0.002-0.347,0.042-0.525,0.467-0.508c0.865,0.035,0.866,0.009,0.866,0.892c0,4.4-0.006,8.8,0.009,13.2   c0.001,0.428-0.078,0.593-0.548,0.567c-0.788-0.042-0.79-0.011-0.79-0.804C60.63,65.06,60.63,62.884,60.63,60.709z" fill="#FFFFFF" fill-rule="evenodd"/></g></svg>