<?xml version="1.0" ?><!DOCTYPE svg  PUBLIC '-//W3C//DTD SVG 1.1//EN'  'http://www.w3.org/Graphics/SVG/1.1/DTD/svg11.dtd'><svg enable-background="new 0 0 128 128" height="128px" id="Layer_1" version="1.1" viewBox="0 0 128 128" width="128px" xml:space="preserve" xmlns="http://www.w3.org/2000/svg" xmlns:xlink="http://www.w3.org/1999/xlink"><path d="M126.864,100.868c0,2.242-1.818,4.061-4.061,4.061H4.925c-2.242,0-4.061-1.818-4.061-4.061V24.812  c0-2.242,1.818-4.061,4.061-4.061h117.879c2.242,0,4.061,1.818,4.061,4.061V100.868z" fill="#808080"/><g><path clip-rule="evenodd" d="M11.917,52.74c0.52,0.118,1.055,0.189,1.555,0.362   c2.525,0.869,4.083,2.625,4.55,5.25c0.566,3.174-1.166,6.215-4.144,7.381c-1.818,0.712-3.625,0.628-5.393-0.204   c-0.098-0.047-0.199-0.084-0.351-0.148c0,1.722,0,3.386,0,5.114c-1.176,0-2.315,0-3.454,0c0-3.836,0-7.671,0-11.508   c0.022-0.076,0.058-0.154,0.067-0.232c0.321-2.885,2.384-5.191,5.221-5.826c0.318-0.073,0.639-0.127,0.959-0.189   C11.257,52.74,11.588,52.74,11.917,52.74z M11.404,62.772c1.812,0.004,3.293-1.466,3.299-3.273   c0.006-1.824-1.475-3.305-3.302-3.304c-1.78,0.001-3.266,1.489-3.27,3.275C8.128,61.278,9.603,62.769,11.404,62.772z" fill="#FFFFFF" fill-rule="evenodd"/><path clip-rule="evenodd" d="M41.117,52.74c0.5,0.11,1.016,0.176,1.498,0.338   c2.54,0.852,4.125,2.593,4.611,5.231c0.587,3.189-1.164,6.283-4.152,7.432c-1.821,0.703-3.627,0.618-5.393-0.222   c-0.09-0.042-0.182-0.078-0.32-0.139c-0.009,0.166-0.021,0.283-0.021,0.402c-0.002,1.442-0.011,2.885,0.006,4.327   c0.003,0.309-0.094,0.38-0.384,0.372c-0.918-0.017-1.835-0.013-2.753-0.001c-0.225,0.003-0.305-0.06-0.305-0.295   c0.007-3.607-0.023-7.214,0.016-10.82c0.035-3.306,2.518-6.084,5.761-6.543c0.149-0.021,0.299-0.054,0.448-0.083   C40.457,52.74,40.788,52.74,41.117,52.74z M43.911,59.5c0.004-1.831-1.466-3.306-3.291-3.304c-1.795,0.002-3.288,1.505-3.279,3.302   c0.009,1.787,1.486,3.266,3.275,3.274C42.429,62.78,43.908,61.311,43.911,59.5z" fill="#FFFFFF" fill-rule="evenodd"/><path clip-rule="evenodd" d="M112.509,71.422c0.39-1.04,0.777-2.082,1.169-3.121   c0.18-0.482,0.377-0.959,0.541-1.447c0.047-0.14,0.048-0.327-0.006-0.464c-1.707-4.284-3.423-8.564-5.137-12.846   c-0.05-0.122-0.091-0.248-0.149-0.417c0.224,0,0.416,0,0.606,0c0.999,0,1.999,0.007,3-0.007c0.244-0.004,0.359,0.073,0.446,0.306   c1.042,2.797,2.094,5.59,3.145,8.384c0.035,0.095,0.076,0.189,0.144,0.358c0.077-0.174,0.135-0.285,0.179-0.4   c1.019-2.763,2.041-5.525,3.049-8.292c0.096-0.26,0.208-0.363,0.501-0.36c1.155,0.017,2.309-0.001,3.463-0.007   c0,0.02,0,0.041,0,0.063c-0.047,0.089-0.104,0.173-0.141,0.269c-0.586,1.494-1.169,2.99-1.754,4.486   c-1.714,4.391-3.429,8.781-5.141,13.173c-0.039,0.102-0.053,0.216-0.079,0.321C115.066,71.422,113.788,71.422,112.509,71.422z" fill="#FFFFFF" fill-rule="evenodd"/><path clip-rule="evenodd" d="M76.628,52.74c0.41,0.085,0.825,0.154,1.23,0.26   c3.065,0.801,5.096,3.622,4.957,6.868c-0.132,3.065-2.467,5.7-5.521,6.229c-3.753,0.651-7.264-1.87-7.824-5.619   c-0.553-3.679,2.003-7.116,5.688-7.652c0.159-0.024,0.32-0.057,0.479-0.085C75.968,52.74,76.298,52.74,76.628,52.74z M72.841,59.47   c-0.004,1.818,1.45,3.293,3.258,3.304c1.803,0.012,3.326-1.513,3.307-3.307c-0.021-1.792-1.486-3.257-3.276-3.273   C74.335,56.176,72.844,57.661,72.841,59.47z" fill="#FFFFFF" fill-rule="evenodd"/><path clip-rule="evenodd" d="M26.456,52.74c0.413,0.079,0.831,0.138,1.236,0.243   c2.655,0.687,4.595,2.862,4.987,5.578c0.512,3.533-1.957,6.937-5.468,7.535c-3.769,0.642-7.243-1.817-7.831-5.606   c-0.556-3.58,1.843-6.955,5.431-7.612c0.22-0.042,0.437-0.092,0.654-0.137C25.796,52.74,26.125,52.74,26.456,52.74z M26.018,62.773   c1.805,0,3.288-1.481,3.289-3.287c0.001-1.808-1.472-3.286-3.283-3.292c-1.8-0.006-3.288,1.48-3.289,3.286   C22.733,61.289,24.213,62.773,26.018,62.773z" fill="#FFFFFF" fill-rule="evenodd"/><path clip-rule="evenodd" d="M56.598,65.921c0-0.16,0-0.263,0-0.364   c0-2.393,0.001-4.784-0.004-7.177c-0.001-0.234-0.022-0.474-0.068-0.705c-0.175-0.882-0.814-1.424-1.73-1.488   c-0.804-0.058-1.579,0.089-2.348,0.305c-0.195,0.053-0.192,0.18-0.192,0.329c0.002,1.021,0.002,2.041,0.002,3.061   c0,1.867-0.002,3.734-0.002,5.599c0,0.131,0,0.262,0,0.417c-1.215,0-2.396,0-3.61,0c0-0.205,0-0.406,0-0.608   c-0.003-3.712-0.005-7.423-0.014-11.136c-0.002-0.198,0.079-0.27,0.245-0.323c1.334-0.444,2.702-0.736,4.097-0.896   c1.13-0.131,2.257-0.19,3.381,0.055c0.715,0.155,1.378,0.409,1.963,0.864c0.083,0.064,0.279,0.068,0.382,0.017   c1.547-0.771,3.193-1.084,4.907-1.042c0.531,0.013,1.07,0.088,1.588,0.202c1.642,0.366,2.577,1.431,2.869,3.06   c0.096,0.536,0.144,1.086,0.146,1.629c0.017,2.609,0.001,5.218,0.013,7.826c0.003,0.296-0.073,0.389-0.377,0.383   c-0.957-0.02-1.915-0.017-2.875-0.001c-0.278,0.004-0.346-0.088-0.344-0.354c0.008-2.341,0.007-4.681,0.003-7.022   c-0.001-0.257-0.019-0.516-0.056-0.77c-0.129-0.898-0.76-1.494-1.68-1.584c-0.826-0.082-1.62,0.052-2.394,0.35   c-0.219,0.083-0.286,0.21-0.286,0.438c0.009,2.846,0.009,5.69,0.011,8.538c0.001,0.396-0.002,0.396-0.409,0.397   c-0.938,0-1.875,0-2.814,0C56.88,65.921,56.758,65.921,56.598,65.921z" fill="#FFFFFF" fill-rule="evenodd"/><path clip-rule="evenodd" d="M87.624,65.902c-0.152,0.007-0.273,0.017-0.394,0.019   c-0.97,0-1.938-0.009-2.907,0.003c-0.247,0.004-0.312-0.077-0.311-0.318c0.006-3.781,0.006-7.565,0-11.347   c0-0.226,0.076-0.326,0.286-0.396c1.452-0.483,2.943-0.772,4.464-0.934c1.244-0.132,2.485-0.173,3.723,0.068   c1.222,0.239,2.261,0.77,2.899,1.898c0.421,0.74,0.63,1.554,0.637,2.392c0.027,2.804,0.014,5.608,0.017,8.41   c0,0.061-0.011,0.121-0.019,0.205c-0.124,0.006-0.235,0.017-0.345,0.017c-0.907,0.002-1.814-0.012-2.72,0.009   c-0.309,0.006-0.376-0.095-0.375-0.386c0.012-2.319,0.009-4.637,0.004-6.958c0-0.59-0.129-1.147-0.524-1.609   c-0.407-0.48-0.959-0.669-1.563-0.703c-0.88-0.05-1.743,0.064-2.585,0.348c-0.223,0.074-0.294,0.188-0.291,0.421   c0.006,2.834,0.003,5.669,0.003,8.503C87.624,65.647,87.624,65.751,87.624,65.902z" fill="#FFFFFF" fill-rule="evenodd"/><path clip-rule="evenodd" d="M108.835,62.579c0,0.817,0.006,1.631-0.009,2.443   c-0.002,0.091-0.113,0.21-0.204,0.259c-0.807,0.443-1.689,0.643-2.589,0.778c-1.512,0.227-3.017,0.227-4.499-0.208   c-2.512-0.736-4.077-2.683-4.298-5.299c-0.138-1.626,0.051-3.191,0.816-4.647c0.924-1.758,2.406-2.747,4.361-3.032   c0.944-0.138,1.889-0.108,2.821,0.108c1.754,0.406,2.861,1.504,3.42,3.189c0.266,0.798,0.368,1.625,0.385,2.462   c0.011,0.575,0.003,1.149,0.003,1.769c-0.175,0-0.315,0-0.455,0c-2.547,0-5.093,0-7.639,0c-0.457,0.001-0.461,0.003-0.403,0.438   c0.134,1.002,0.759,1.619,1.631,2.017c0.986,0.449,2.033,0.598,3.107,0.491c0.603-0.06,1.208-0.136,1.799-0.263   C107.662,62.959,108.226,62.759,108.835,62.579z M105.862,57.818c0.094-1.198-1.014-2.289-2.341-2.346   c-1.598-0.072-2.669,1.232-2.8,2.346C102.436,57.818,104.149,57.818,105.862,57.818z" fill="#FFFFFF" fill-rule="evenodd"/></g></svg>