<?xml version="1.0" ?><!DOCTYPE svg  PUBLIC '-//W3C//DTD SVG 1.1//EN'  'http://www.w3.org/Graphics/SVG/1.1/DTD/svg11.dtd'><svg enable-background="new 0 0 1024 1024" height="1024px" id="Behance_1_" version="1.1" viewBox="0 0 1024 1024" width="1024px" xml:space="preserve" xmlns="http://www.w3.org/2000/svg" xmlns:xlink="http://www.w3.org/1999/xlink"><g id="Background"><linearGradient gradientTransform="matrix(0.9397 0.3421 0.3421 -0.9397 275.9532 765.9631)" gradientUnits="userSpaceOnUse" id="SVGID_1_" x1="464.1323" x2="-194.2839" y1="-72.9106" y2="711.6677"><stop offset="0" style="stop-color:#004070"/><stop offset="0.1299" style="stop-color:#004579"/><stop offset="0.3418" style="stop-color:#005391"/><stop offset="0.6092" style="stop-color:#006AB9"/><stop offset="0.9189" style="stop-color:#008AEF"/><stop offset="1" style="stop-color:#0093FF"/></linearGradient><circle cx="512.001" cy="512" fill="url(#SVGID_1_)" r="512"/></g><g id="Behance"><path d="M518.54,588.563c-0.208-19.824-3.098-40.466-14.114-57.413c-10.902-16.772-27.749-30.206-46.925-36.15   c1.932,0.599,11.339-7.263,13.206-8.557c41.103-28.475,44.923-88.344,22.738-129.974c-23.867-44.782-80.91-52.286-126.777-51.47   h-183.87v410.281c0,0,121.079,0,186.203,0c14.846,0,30.028-1.042,44.703-3.295c12.229-1.878,25.074-5.826,36.421-10.709   c19.866-8.55,37.386-23.313,49.754-41.018C514.454,639.394,518.803,613.634,518.54,588.563z M278,376.5c0,0,81.269,0,81.5,0   c32.167,0,58.4,3.271,64.284,33.494c1.356,6.971,1.839,16.15,0.213,23.116c-0.758,3.249-1.872,6.36-3.345,9.234   C412.145,458.94,398.5,466.5,376.833,466.5c-19.5,0-98.833,0-98.833,0V376.5z M434.31,603.346   c-4.893,21.421-22.129,35.199-43.19,38.644c-4.854,0.793-9.945,1.345-14.868,1.345c-20.705,0-98.193,0-98.193,0V535   c0,0,99.166,0.043,99.774,0.043c22.168,0,33.168,5.957,43.017,15.411c11.73,11.261,15.835,28.422,14.746,44.179   C435.393,597.551,434.965,600.473,434.31,603.346z" fill="#FFFFFF"/><rect fill="#FFFFFF" height="43.25" width="167" x="612.75" y="321"/><path d="M844.273,553.455c-0.105-3.237-0.113-6.479-0.263-9.714c-0.153-3.343-0.483-6.676-0.792-10.007   c-0.301-3.243-0.638-6.479-1.117-9.702c-0.485-3.25-1.043-6.492-1.662-9.719c-0.617-3.215-1.35-6.402-2.179-9.568   c-0.811-3.101-1.691-6.184-2.685-9.229c-0.999-3.063-2.129-6.08-3.348-9.062c-0.282-0.691-0.561-1.386-0.855-2.073   c-16.385-38.12-48.979-70.594-90.591-78.832c-44.263-8.762-95.33-5.162-132.21,22.705c-35.143,26.553-53.818,69.526-58.026,112.521   c-5.226,53.395,17.428,111.792,60.933,144.166c11.505,8.562,25.049,15.437,38.521,20.34c34.937,12.716,72.756,12.989,107.175-1.856   c35.57-15.343,67.274-44.563,80.794-81.516c0.238-0.65,0.453-1.313,0.654-1.977c0.298-0.976,0.681-1.961,0.869-2.966   c0.03-0.165,0.053-0.34,0.079-0.503c0.035-0.219-0.165-0.215-0.372-0.214c-0.423,0.002-0.847,0-1.269,0c-0.432,0-0.863,0-1.296,0   c-0.451,0-0.901,0-1.352,0c-0.479,0-0.955,0-1.433,0c-0.511,0-1.021,0-1.533,0c-0.55,0-1.101,0-1.65,0c-0.593,0-1.188,0-1.78,0   c-0.639,0-1.276,0-1.916,0c-0.685,0-1.369,0-2.054,0c-0.729,0-1.458,0-2.186,0c-0.771,0-1.541,0-2.311,0c-0.807,0-1.613,0-2.419,0   c-0.838,0-1.676,0-2.513,0c-0.863,0-1.727,0-2.588,0c-0.882,0-1.764,0-2.645,0c-0.893,0-1.787,0-2.68,0c-0.9,0-1.799,0-2.699,0   c-0.901,0-1.802,0-2.703,0c-0.897,0-1.797,0-2.695,0c-0.892,0-1.784,0-2.677,0c-0.885,0-1.77,0-2.653,0c-0.875,0-1.752,0-2.627,0   c-0.865,0-1.73,0-2.597,0c-0.854,0-1.709,0-2.563,0c-0.843,0-1.686,0-2.527,0c-0.828,0-1.656,0-2.483,0c-0.81,0-1.619,0-2.43,0   c-0.787,0-1.574,0-2.361,0c-0.758,0-1.515,0-2.272,0c-0.721,0-1.441,0-2.162,0c-0.676,0-1.351,0-2.027,0c-0.623,0-1.244,0-1.866,0   c-0.563,0-1.123,0-1.686,0c-0.496,0-0.991,0-1.486,0c-0.425,0-0.851,0-1.276,0c-1.577,0-3.167-0.391-4.478,0.677   c-1.227,1.001-2.173,3.175-3.091,4.482c-15.18,21.616-37.579,31.664-64.022,28.945c-6.587-0.677-13.433-2.158-19.683-4.37   c-11.433-4.046-22.075-11.771-29.146-21.676c-7.258-10.165-10.428-22.751-12.022-34.963c-0.414-3.167-0.745-6.366-0.879-9.558   c-0.028-0.659,0.022-0.988,0.29-1.147c0.19-0.112,0.49-0.141,0.95-0.141c0.401,0,0.801,0,1.202,0c0.509,0,1.018,0,1.526,0   c0.66,0,1.321,0,1.981,0c0.843,0,1.686,0,2.528,0c1.042,0,2.084,0,3.127,0c1.247,0,2.493,0,3.738,0c1.443,0,2.887,0,4.329,0   c1.624,0,3.247,0,4.871,0c1.783,0,3.566,0,5.35,0c1.918,0,3.837,0,5.756,0c2.031,0,4.063,0,6.095,0c2.125,0,4.25,0,6.375,0   c2.202,0,4.405,0,6.606,0c2.269,0,4.535,0,6.803,0c2.324,0,4.646,0,6.971,0c2.372,0,4.744,0,7.116,0c2.414,0,4.828,0,7.241,0.001   c2.447,0,4.896,0,7.345,0c2.474,0,4.949,0,7.423,0c2.491,0,4.981,0,7.472,0c2.496,0,4.993,0,7.489,0c2.491,0,4.982,0,7.473,0   c2.476,0,4.95,0,7.426-0.001c2.448,0,4.897,0,7.347-0.001c2.413,0,4.826,0,7.238-0.001c2.366,0,4.732,0,7.1,0   c2.31,0,4.619,0,6.928,0c2.24,0,4.479,0,6.72,0c2.154,0,4.311,0.001,6.465,0.001c2.054,0,4.106,0.001,6.16,0.002   c1.933,0,3.865,0.001,5.799,0.001c1.793,0.001,3.587,0.001,5.38,0.002c1.637,0,3.274,0,4.912,0c1.469,0,2.938,0,4.407,0   c1.297,0,2.594-0.001,3.89-0.002c1.128-0.001,2.257-0.002,3.385-0.004c0.978-0.001,1.953-0.003,2.929-0.006   c0.852-0.002,1.702-0.004,2.553-0.007c0.762-0.002,1.522-0.005,2.285-0.008c0.761-0.004,1.572-0.602,1.923-1.234   c0.64-1.156,0.639-2.669,0.668-3.951c0.077-3.373-0.034-6.727,0.174-10.099C844.405,559.942,844.378,556.71,844.273,553.455z    M764,526.667H630.667c0,0,3.667-61.333,69-61.333S764,526.667,764,526.667z" fill="#FFFFFF"/></g></svg>