<?xml version="1.0" ?><!DOCTYPE svg  PUBLIC '-//W3C//DTD SVG 1.1//EN'  'http://www.w3.org/Graphics/SVG/1.1/DTD/svg11.dtd'><svg enable-background="new 0 0 1024 1024" height="1024px" version="1.1" viewBox="0 0 1024 1024" width="1024px" xml:space="preserve" xmlns="http://www.w3.org/2000/svg" xmlns:xlink="http://www.w3.org/1999/xlink"><g id="Background"><linearGradient gradientTransform="matrix(0.9397 0.3421 -0.3421 0.9397 412.0643 -288.1289)" gradientUnits="userSpaceOnUse" id="bg_1_" x1="696.8169" x2="38.4004" y1="1109.9336" y2="325.3549"><stop offset="0" style="stop-color:#FF5722"/><stop offset="0.1653" style="stop-color:#FF6020"/><stop offset="0.435" style="stop-color:#FF781A"/><stop offset="0.7733" style="stop-color:#FFA010"/><stop offset="1" style="stop-color:#FFBE08"/></linearGradient><circle cx="512.001" cy="512" fill="url(#bg_1_)" id="bg" r="512"/></g><g id="Blogger"><path d="M739.564,441.714c-37.859,0-46.272-19.631-46.272-46.273   c0-26.642-6.31-67.305-53.283-117.083c-45.515-48.233-99.557-49.778-99.557-49.778s-107.269,0-153.541,0   c-49.778,0-87.025,27.563-121.29,68.007c-42.768,50.479-38.561,102.36-38.561,102.36s0,159.851,0,198.762   s4.207,89.391,53.634,144.076c49.428,54.686,127.25,53.634,127.25,53.634h204.021c60.294,0,93.893-18.206,136.014-56.438   c45.571-41.365,49.077-117.084,49.077-117.084s0-125.497,0-149.334C797.054,448.725,777.423,441.714,739.564,441.714z    M370.084,402.627c0-17.424,14.125-31.549,31.55-31.549h121.465c17.424,0,31.55,14.125,31.55,31.549v7.888   c0,17.424-14.125,31.549-31.55,31.549H401.634c-17.424,0-31.55-14.125-31.55-31.549V402.627z M643.571,618.731   c0,17.424-14.125,31.549-31.549,31.549h-210.33c-17.424,0-31.55-14.125-31.55-31.549v-7.888c0-17.424,14.125-31.549,31.55-31.549   h210.33c17.424,0,31.549,14.125,31.549,31.549V618.731z" fill="#FFFFFF" id="Blogger_1_"/></g></svg>