<?xml version="1.0" ?><!DOCTYPE svg  PUBLIC '-//W3C//DTD SVG 1.1//EN'  'http://www.w3.org/Graphics/SVG/1.1/DTD/svg11.dtd'><svg enable-background="new 0 0 1024 1024" height="1024px" id="Digg_1_" version="1.1" viewBox="0 0 1024 1024" width="1024px" xml:space="preserve" xmlns="http://www.w3.org/2000/svg" xmlns:xlink="http://www.w3.org/1999/xlink"><g id="Background"><linearGradient gradientTransform="matrix(0.9397 0.3421 0.3421 -0.9397 275.9532 765.9631)" gradientUnits="userSpaceOnUse" id="bg_1_" x1="464.1323" x2="-194.2839" y1="-72.9106" y2="711.6677"><stop offset="0" style="stop-color:#141414"/><stop offset="0.1677" style="stop-color:#1D1D1D"/><stop offset="0.4413" style="stop-color:#353535"/><stop offset="0.7844" style="stop-color:#5D5D5D"/><stop offset="1" style="stop-color:#797979"/></linearGradient><circle cx="512.001" cy="512" fill="url(#bg_1_)" id="bg" r="512"/></g><g id="Digg"><rect fill="#FFFFFF" height="212.871" width="70.37" x="374.189" y="405.709"/><rect fill="#FFFFFF" height="61.086" width="70.37" x="374.189" y="313.347"/><path d="M687.93,405.709V618.58h100.02v26.588H687.93v65.485h171.042V405.709H687.93z M787.949,553.294h-38.444   v-89.803h38.444V553.294z" fill="#FFFFFF"/><path d="M478.77,618.581h100.996v26.588H478.77v65.485h171.041V405.709H478.77V618.581z M540.996,463.491h38.77   v89.803h-38.77V463.491z" fill="#FFFFFF"/><path d="M270.587,405.709H165.028V618.58H339.98V313.347h-69.395L270.587,405.709L270.587,405.709z    M270.587,553.294h-39.096v-89.803h39.096V553.294z" fill="#FFFFFF"/></g></svg>