<?xml version="1.0" ?><!DOCTYPE svg  PUBLIC '-//W3C//DTD SVG 1.1//EN'  'http://www.w3.org/Graphics/SVG/1.1/DTD/svg11.dtd'><svg enable-background="new 0 0 1024 1024" height="1024px" id="Dribbble_1_" version="1.1" viewBox="0 0 1024 1024" width="1024px" xml:space="preserve" xmlns="http://www.w3.org/2000/svg" xmlns:xlink="http://www.w3.org/1999/xlink"><g id="Background"><linearGradient gradientTransform="matrix(0.9397 0.3421 0.3421 -0.9397 275.9532 765.9631)" gradientUnits="userSpaceOnUse" id="bg_1_" x1="464.1323" x2="-194.2839" y1="-72.9106" y2="711.6677"><stop offset="0" style="stop-color:#87153F"/><stop offset="0.1478" style="stop-color:#901945"/><stop offset="0.3887" style="stop-color:#A82556"/><stop offset="0.6929" style="stop-color:#D03972"/><stop offset="1" style="stop-color:#FF5093"/></linearGradient><circle cx="512.001" cy="512" fill="url(#bg_1_)" id="bg" r="512"/></g><path d="M512,250.57  c-144.383,0-261.43,117.047-261.43,261.43S367.617,773.43,512,773.43S773.43,656.383,773.43,512S656.383,250.57,512,250.57z   M566.749,523.253c25.068,62.031,47.885,135.34,63.229,219.659C614.634,658.593,591.817,585.284,566.749,523.253  c-162.033,35.838-226.01,174.819-226.01,174.819S404.716,559.091,566.749,523.253c-11.081-27.419-22.601-52.63-34.109-75.618  c-64.368,21.952-152.62,37.891-272.64,36.438c120.02,1.454,208.271-14.485,272.64-36.438  c-57.854-115.554-115.423-174.83-115.423-174.83s57.57,59.276,115.423,174.83c129.731-44.243,162.416-112.919,162.416-112.919  s-32.685,68.677-162.416,112.919C544.148,470.623,555.668,495.833,566.749,523.253c55.674-12.313,122.919-12.457,203.131,9.407  C689.668,510.796,622.423,510.939,566.749,523.253z" fill="none" id="Dribbble" stroke="#FFFFFF" stroke-miterlimit="10" stroke-width="40"/></svg>