<?xml version="1.0" ?><!DOCTYPE svg  PUBLIC '-//W3C//DTD SVG 1.1//EN'  'http://www.w3.org/Graphics/SVG/1.1/DTD/svg11.dtd'><svg enable-background="new 0 0 1024 1024" height="1024px" id="Mail_1_" version="1.1" viewBox="0 0 1024 1024" width="1024px" xml:space="preserve" xmlns="http://www.w3.org/2000/svg" xmlns:xlink="http://www.w3.org/1999/xlink"><g id="Background"><linearGradient gradientTransform="matrix(0.9397 0.3421 0.3421 -0.9397 275.9532 765.9631)" gradientUnits="userSpaceOnUse" id="bg_1_" x1="464.3545" x2="-194.0616" y1="-73.7617" y2="710.8165"><stop offset="0" style="stop-color:#001D3E"/><stop offset="0.1202" style="stop-color:#002547"/><stop offset="0.3161" style="stop-color:#003B5F"/><stop offset="0.5635" style="stop-color:#005F87"/><stop offset="0.8499" style="stop-color:#0090BE"/><stop offset="1" style="stop-color:#00ACDD"/></linearGradient><circle cx="511.918" cy="512.876" fill="url(#bg_1_)" id="bg" r="512"/></g><g id="Mail"><polygon fill="#FFFFFF" points="590.791,530.131 512,594.739 433.209,530.131 369.021,582.765 226.04,700.01 512,700.01    797.96,700.01 654.979,582.765  "/><polygon fill="#FFFFFF" points="405.125,510.515 311.571,419.729 218.018,328.944 218.018,510.516 218.018,692.085    311.571,601.298  "/><polygon fill="#FFFFFF" points="511.999,573.11 657.15,448.253 802.299,323.396 511.999,323.396 221.701,323.396 366.85,448.253     "/><polygon fill="#FFFFFF" points="712.429,419.73 618.874,510.515 712.429,601.3 805.982,692.085 805.982,510.515 805.982,328.944     "/></g></svg>