<?xml version="1.0" ?><!DOCTYPE svg  PUBLIC '-//W3C//DTD SVG 1.1//EN'  'http://www.w3.org/Graphics/SVG/1.1/DTD/svg11.dtd'><svg enable-background="new 0 0 1024.002 1024" height="1024px" id="Pinterest_2_" version="1.1" viewBox="0 0 1024.002 1024" width="1024.002px" xml:space="preserve" xmlns="http://www.w3.org/2000/svg" xmlns:xlink="http://www.w3.org/1999/xlink"><g id="Background"><linearGradient gradientTransform="matrix(0.9397 0.3421 0.3421 -0.9397 275.6838 766.1796)" gradientUnits="userSpaceOnUse" id="bg_1_" x1="464.3032" x2="-194.0979" y1="-72.6216" y2="711.9691"><stop offset="0" style="stop-color:#720103"/><stop offset="0.1857" style="stop-color:#7B0407"/><stop offset="0.4884" style="stop-color:#930D11"/><stop offset="0.8684" style="stop-color:#BB1B22"/><stop offset="1" style="stop-color:#CA2128"/></linearGradient><circle cx="512.001" cy="512" fill="url(#bg_1_)" id="bg" r="512"/></g><path d="M701.717,362.603c-6.808-22.394-19.347-42.758-35.124-59.948  c-16.962-18.479-36.003-29.096-58.153-40.172c0,0-64.543-32.271-151.985-8.328c-27.655,7.572-52.39,23.136-75.029,40.334  c-23.51,17.859-40.442,40.431-52.048,67.551c-3.146,7.353-5.911,14.942-8.286,22.58c-2.425,7.799-4.188,15.817-5.041,23.946  c-2.452,23.342-1.528,46.796,4.929,69.398c5.555,19.45,13.149,38.172,25.895,54.132c7.089,8.877,17.287,16.484,28.133,20.195  c0.386,0.132,0.775,0.26,1.166,0.383c3.249,1.285,6.372,2.326,9.9-0.503c0.32-0.301,0.599-0.641,0.842-1.001  c0.729-1.08,1.146-2.347,1.458-3.319c0.092-0.441,0.177-0.851,0.265-1.176c1.246-4.579,2.037-9.263,3.062-13.894  c1.313-5.944,2.502-11.926,3.676-17.897c0.061-0.309,0.954-3.356,0.703-3.604c-0.003-0.003-42.333-41.989-15.269-118.326  c0,0,18.043-52.744,63.153-77.728c19.659-10.888,40.514-18.723,63.341-18.862c18.096-0.11,36.272,2.526,53.531,7.897  c17.104,5.323,33.51,14.288,46.707,26.46c4.403,4.062,8.339,8.609,11.833,13.483s6.548,10.074,9.189,15.438  c4.438,10.358,7.438,21.358,9.281,32.184c1.188,6.853,2.131,14.699,2.543,23.438c0.822,17.478-0.488,38.529-6.271,62.356  c0,0-11.798,49.274-36.781,74.257c-19.587,19.587-50.814,35.018-76.758,16.852c-5.368-3.76-12.043-10.063-14.946-16.038  c-5.942-12.243-7.238-22.566-5.234-35.913c1.453-9.677,3.308-19.411,7.226-28.434c10.925-25.163,21.237-51.335,20.833-79.234  c-0.112-7.691-1.608-15.65-4.631-22.762c-2.807-6.604-6.549-12.088-12.07-16.731c-4.204-3.536-9.043-5.834-14.355-7.201  c0,0-20.126-8.328-38.864,9.022c0,0-47.886,47.885-19.432,118.673c0,0-40.896,182.301-40.946,182.521  c-5.432,24.186-3.999,48.074-1.626,72.545c0.638,6.584,2.106,18.513,2.434,20.826c0.642,4.54,1.664,17.233,8.041,10.988  c2.758-2.702,41.64-62.199,49.447-87.185c7.808-24.982,24.463-96.812,24.463-96.812s16.656,43.722,92.128,36.955  c0,0,87.442-7.287,121.274-111.906c3.014-9.317,5.51-18.713,7.647-28.282c2.137-9.556,3.775-19.213,4.949-28.928  C710.829,428.455,711.282,394.07,701.717,362.603z" fill="#FFFFFF" id="Pinterest"/></svg>