<?xml version="1.0" ?><!DOCTYPE svg  PUBLIC '-//W3C//DTD SVG 1.1//EN'  'http://www.w3.org/Graphics/SVG/1.1/DTD/svg11.dtd'><svg enable-background="new 0 0 1024 1024" height="1024px" id="Skype_2_" version="1.1" viewBox="0 0 1024 1024" width="1024px" xml:space="preserve" xmlns="http://www.w3.org/2000/svg" xmlns:xlink="http://www.w3.org/1999/xlink"><g id="Background"><linearGradient gradientTransform="matrix(0.9397 0.3421 0.3421 -0.9397 275.9532 765.9631)" gradientUnits="userSpaceOnUse" id="bg_1_" x1="464.1323" x2="-194.2839" y1="-72.9106" y2="711.6677"><stop offset="0" style="stop-color:#173887"/><stop offset="0.1665" style="stop-color:#15418F"/><stop offset="0.4381" style="stop-color:#0F59A6"/><stop offset="0.7789" style="stop-color:#0781CA"/><stop offset="1" style="stop-color:#009EE5"/></linearGradient><circle cx="512.001" cy="512" fill="url(#bg_1_)" id="bg" r="512"/></g><g id="Skype"><path d="M646.232,424.643c9.031-6.705,15.575-16.729,16.554-28.289c0.904-10.679-4.417-22.072-11.23-30.105   c-10.566-12.46-23.794-23.661-37.343-32.738c-7.881-5.279-16.366-10.018-25.03-13.894c-21.971-9.83-46.13-14.741-70.141-15.404   c-13.255-0.366-27.028,0.054-40.182,1.845c-36.2,4.93-72.772,15.128-99.144,41.81c-6.608,6.687-12.719,14.245-17.938,22.069   c-6.23,9.341-11.017,19.515-13.747,30.44c-6.712,26.851-3.015,61.454,12.886,84.299c18.979,27.268,51.695,41.711,82.715,50.304   c19.338,5.355,39.065,7.941,58.689,11.853c11.742,2.339,23.443,4.937,34.925,8.353c14.3,4.256,31.374,9.756,40.38,22.472   c15.67,22.125,7.164,53.749-15.249,67.131c-22.643,13.52-53.035,16.654-78.132,8.983c-13.42-4.103-26.328-10.066-37.063-19.241   c-12.254-10.474-19.416-25.058-30.949-36.128c-12.029-11.551-34.205-19.294-50.196-11.925   c-26.491,12.21-25.931,52.458-10.547,73.163c6.021,8.106,14.042,16.583,22.042,22.736c44.917,34.551,107.156,40.284,161.899,36.54   c16.079-1.1,33.264-3.353,48.6-8.54c34-11.5,67-32.5,81.5-69s10-66.5,3.5-86.001c-14.568-43.701-60.102-62.443-100.634-73.081   c-9.73-2.554-19.522-4.845-29.367-6.918c-18.573-3.91-37.016-8.268-55.672-11.763c-19.588-3.669-48.646-8.799-53.223-32.369   c-4.389-22.617,10.231-45.247,30.63-53.082c22.804-8.758,50.3-7.755,72.756,1.497c11.946,4.922,26.255,12.463,35.673,21.443   c15.8,15.065,29.681,37.02,54.912,31.637C634.308,431.416,641.124,428.434,646.232,424.643z" fill="#FFFFFF"/><path d="M798.296,585.732   c-3.216-6.892-7.201-13.447-12.058-19.528c-3.586-4.489-0.938-11.231,0.189-16.124c8.41-36.491,4.22-74.576-4.515-110.625   c-2.469-10.19-5.634-20.234-9.621-29.934c-15.708-38.217-40.055-75.167-70.188-103.522c-16.594-15.613-36.029-29.874-56.029-40.846   c-30.918-16.961-64.44-26.616-99.359-30.838c-15.21-1.839-30.497-3.795-45.847-3.52c-7.686,0.138-15.363,0.805-22.903,2.336   c-6.594,1.339-13.912,4.331-20.504,1.456c-12.316-5.371-24.564-11.353-37.63-14.722c-9.435-2.433-19.289-3.514-28.965-4.483   c-26.597-2.664-52.52,1.837-77.261,11.886c-17.449,7.086-33.323,17.963-47.468,30.327c-18.594,16.253-34.483,43.33-41.756,66.768   c-7.646,24.642-11.749,51.798-6.972,77.367c2.213,11.842,5.936,23.364,10.701,34.417c2,4.641,4.771,8.903,6.766,13.544   c2.12,4.927,1.109,8.471-0.168,13.505c-4.327,17.059-4.558,35.378-4.384,52.884c0.416,41.951,10.603,86.147,29.051,123.733   c18.74,38.181,45.897,72.536,80.8,97.119c34.466,24.275,72.986,42.331,114.521,50.28c23.166,4.433,46.41,2.234,69.554-1.053   c10.06-1.43,30.658-7.659,39.889-1.065c0.007,0.005,91.613,66.095,189.104-19.396c28.959-25.396,50.082-61.905,54.881-100.384   C811.436,638.761,809.689,610.146,798.296,585.732z" fill="none" stroke="#FFFFFF" stroke-miterlimit="10" stroke-width="35"/></g></svg>