<?xml version="1.0" ?><!DOCTYPE svg  PUBLIC '-//W3C//DTD SVG 1.1//EN'  'http://www.w3.org/Graphics/SVG/1.1/DTD/svg11.dtd'><svg enable-background="new 0 0 1024 1024" height="1024px" id="Snapchat_1_" version="1.1" viewBox="0 0 1024 1024" width="1024px" xml:space="preserve" xmlns="http://www.w3.org/2000/svg" xmlns:xlink="http://www.w3.org/1999/xlink"><g id="Background"><linearGradient gradientTransform="matrix(0.9397 0.3421 0.3421 -0.9397 275.9532 765.9631)" gradientUnits="userSpaceOnUse" id="bg_1_" x1="464.1323" x2="-194.2839" y1="-72.9106" y2="711.6677"><stop offset="0" style="stop-color:#EAAC1E"/><stop offset="0.1991" style="stop-color:#ECB51B"/><stop offset="0.5238" style="stop-color:#F3CD12"/><stop offset="0.9315" style="stop-color:#FDF503"/><stop offset="1" style="stop-color:#FFFC00"/></linearGradient><circle cx="512.001" cy="512" fill="url(#bg_1_)" id="bg" r="512"/></g><path d="M804,658.983c-7-19-45.5-5-87.5-53s-42-69.5-41.5-73.5s-4.5-10,26.5-21s39-18.5,42.5-24  s7-20-12-29s-58.5,23.5-59.5,3s0.267-115.5-14.117-142.5c-14.383-27-55.882-86-146.383-86s-132,59-146.383,86  c-14.384,27-13.117,122-14.117,142.5s-40.5-12-59.5-3s-15.5,23.5-12,29s11.5,13,42.5,24s26,17,26.5,21s0.5,25.5-41.5,73.5  s-80.5,34-87.5,53s36,33.5,47.334,36.167c11.333,2.667,37.166,0.333,34.916,25.333s14.75,20.5,14.75,20.5  c66.5-20,95.5,5.5,131.5,29.5s63.5,20.333,63.5,20.333s27.5,3.667,63.5-20.333s65-49.5,131.5-29.5c0,0,17,4.5,14.75-20.5  s23.583-22.667,34.916-25.333C768,692.483,811,677.983,804,658.983z" fill="#FFFFFF" id="Snapchat"/></svg>