<?xml version="1.0" ?><!DOCTYPE svg  PUBLIC '-//W3C//DTD SVG 1.1//EN'  'http://www.w3.org/Graphics/SVG/1.1/DTD/svg11.dtd'><svg enable-background="new 0 0 1024 1024" height="1024px" id="Soundcloud" version="1.1" viewBox="0 0 1024 1024" width="1024px" xml:space="preserve" xmlns="http://www.w3.org/2000/svg" xmlns:xlink="http://www.w3.org/1999/xlink"><g id="Background"><linearGradient gradientTransform="matrix(0.9397 0.342 0.342 -0.9397 276.4618 765.3866)" gradientUnits="userSpaceOnUse" id="bg_1_" x1="463.8857" x2="-194.5297" y1="-73.6499" y2="710.9746"><stop offset="0" style="stop-color:#DD3C20"/><stop offset="0.2088" style="stop-color:#E04520"/><stop offset="0.5493" style="stop-color:#E85D20"/><stop offset="0.9769" style="stop-color:#F48521"/><stop offset="1" style="stop-color:#F58721"/></linearGradient><circle cx="512.001" cy="512" fill="url(#bg_1_)" id="bg" r="512"/></g><g id="Soundcloud_1_"><path d="M865.563,561.094c-16.953-83.23-99.413-71.672-117.909-63.194c0,0-4.625-105.965-114.059-134.479   c0,0-57.413-16.184-105.58,12.331v289.383c7.289,0,14.577-0.001,21.866-0.004c17.822-0.003,35.646-0.006,53.466,0.002   c22.664,0.01,45.327-0.005,67.991,0.008c21.918,0.013,43.835,0.028,65.752,0.004c16.852-0.018,33.703-0.065,50.557-0.065   c13.423,0,21.609-4.155,31.513-9.331C843.573,642.983,876.597,615.256,865.563,561.094z" fill="#FFFFFF"/><polygon fill="#FFFFFF" points="481.775,665.126 504.511,665.126 504.511,389.622 481.775,410.429  "/><polygon fill="#FFFFFF" points="435.536,665.126 457.693,665.126 457.693,429.504 435.536,416.402  "/><polygon fill="#FFFFFF" points="389.296,665.126 411.26,665.126 411.26,411.201 389.296,407.732  "/><polygon fill="#FFFFFF" points="342.094,665.126 364.25,665.126 364.25,411.201 342.094,420.063  "/><polygon fill="#FFFFFF" points="295.662,665.126 317.818,665.126 317.818,435.476 295.662,458.596  "/><polygon fill="#FFFFFF" points="248.362,665.126 270.904,665.126 270.904,496.165 248.362,491.252  "/><polygon fill="#FFFFFF" points="201.834,655.402 224.376,665.126 224.376,493.275 201.834,502.234  "/><path d="M179.581,636.907V520.152C179.581,520.152,127.08,573.231,179.581,636.907z" fill="#FFFFFF"/></g></svg>