<?xml version="1.0" ?><!DOCTYPE svg  PUBLIC '-//W3C//DTD SVG 1.1//EN'  'http://www.w3.org/Graphics/SVG/1.1/DTD/svg11.dtd'><svg enable-background="new 0 0 1024 1024" height="1024px" id="Wechat" version="1.1" viewBox="0 0 1024 1024" width="1024px" xml:space="preserve" xmlns="http://www.w3.org/2000/svg" xmlns:xlink="http://www.w3.org/1999/xlink"><g id="Background"><linearGradient gradientTransform="matrix(0.9397 0.3421 0.3421 -0.9397 275.9532 765.9631)" gradientUnits="userSpaceOnUse" id="SVGID_1_" x1="464.1323" x2="-194.2839" y1="-72.9106" y2="711.6677"><stop offset="0" style="stop-color:#005A00"/><stop offset="0.1478" style="stop-color:#006301"/><stop offset="0.3887" style="stop-color:#007B04"/><stop offset="0.6929" style="stop-color:#00A308"/><stop offset="1" style="stop-color:#00D20D"/></linearGradient><circle cx="512.001" cy="512" fill="url(#SVGID_1_)" r="512"/></g><circle cx="714.62" cy="551.47" fill="#FFFFFF" r="28.949"/><circle cx="602.497" cy="551.47" fill="#FFFFFF" r="28.949"/><circle cx="503.067" cy="394.312" fill="#FFFFFF" r="42.734"/><circle cx="334.882" cy="394.312" fill="#FFFFFF" r="42.734"/><path d="M842.48,659.338c16.942-24.977,23.873-49.754,23.697-80.451c-0.521-90.814-86.402-164.548-194.176-169.098  c-26.311-113.763-135.155-196.642-262.064-191.825c-142.833,5.421-254.445,119.868-249.292,255.626  c1.906,50.206,19.528,96.287,48.189,134.164l-28.941,142.65l171.292-48.978c24.593,6.275,50.598,9.172,77.41,8.154  c28.053-1.064,45.619-3.271,70.614-12.082c37.779,34.771,101.857,53.416,162.736,53.066c44.698-0.259,81.701-9.855,115.287-30.207  l95.023,16.75L842.48,659.338z M429.637,671.247c-30.581,1.162-59.932-3.482-86.83-12.875l-111.416,37.182l21.185-96.098  c-31.132-33.924-50.604-77.513-52.431-125.639C195.83,360.132,291.58,264.206,414.01,259.559  c106.344-4.037,197.691,58.666,222.727,150.626c-7.991,0.488-8.207,0.509-13.479,0.988c-64.232,5.836-177.009,61.693-168.05,174.807  c2.259,28.512,9.76,55.182,24.126,78.137C463.426,668.151,446.795,670.596,429.637,671.247z M758.959,687.524  c-26.857,17.225-60.202,28.043-96.635,29.426c-92.376,3.508-169.588-54.937-172.458-130.527  c-2.776-73.146,69.688-139.722,162.067-143.229c92.379-3.507,169.59,54.936,172.459,130.528  c0.935,24.644-6.148,48.066-19.317,68.568l22.255,55.951L758.959,687.524z" fill="#FFFFFF"/></svg>