<?xml version="1.0" ?><!DOCTYPE svg  PUBLIC '-//W3C//DTD SVG 1.1//EN'  'http://www.w3.org/Graphics/SVG/1.1/DTD/svg11.dtd'><svg enable-background="new 0 0 128 128" id="Social_Icons" version="1.1" viewBox="0 0 128 128" xml:space="preserve" xmlns="http://www.w3.org/2000/svg" xmlns:xlink="http://www.w3.org/1999/xlink"><g id="_x34__stroke"><g id="Medium"><rect clip-rule="evenodd" fill="none" fill-rule="evenodd" height="128" width="128"/><g id="Medium_1_"><path clip-rule="evenodd" d="M88.877,9.944c-1.95-0.981-3.544,0.011-3.544,2.204v87.225     l35.578,17.897c3.915,1.969,7.089,0.591,7.089-3.079V30.195c0-0.351-0.198-0.673-0.51-0.831L88.877,9.944" fill="#00FC87" fill-rule="evenodd"/><path clip-rule="evenodd" d="M42.667,77.911l40.589-66.355     c1.142-1.868,3.672-2.593,5.621-1.612l38.657,19.443c0.251,0.127,0.34,0.442,0.193,0.682L85.333,99.372L42.667,77.911" fill="#00E468" fill-rule="evenodd"/><path clip-rule="evenodd" d="M5.907,11.132c-3.25-1.635-4.35-0.426-2.446,2.687     l39.206,64.091l42.666,21.461l-42.574-69.6c-0.06-0.098-0.147-0.177-0.25-0.229L5.907,11.132" fill="#00C860" fill-rule="evenodd"/><path clip-rule="evenodd" d="M42.667,114.19c0,3.654-2.659,5.307-5.907,3.673L3.544,101.155     C1.595,100.174,0,97.578,0,95.385V13.476c0-2.924,2.127-4.246,4.726-2.938l37.711,18.968c0.141,0.071,0.23,0.215,0.23,0.373     V114.19" fill="#00AC68" fill-rule="evenodd"/></g></g></g></svg>