<?xml version="1.0" ?><!DOCTYPE svg  PUBLIC '-//W3C//DTD SVG 1.1//EN'  'http://www.w3.org/Graphics/SVG/1.1/DTD/svg11.dtd'><svg enable-background="new 0 0 128 128" id="Social_Icons" version="1.1" viewBox="0 0 128 128" xml:space="preserve" xmlns="http://www.w3.org/2000/svg" xmlns:xlink="http://www.w3.org/1999/xlink"><g id="_x32__stroke"><g id="Pinterest"><rect clip-rule="evenodd" fill="none" fill-rule="evenodd" height="128" width="128"/><path clip-rule="evenodd" d="M64.004,0C28.66,0,0,28.653,0,64.004    c0,26.199,15.76,48.718,38.316,58.615c-0.181-4.463-0.03-9.837,1.106-14.699c1.234-5.193,8.234-34.869,8.234-34.869    s-2.04-4.087-2.04-10.13c0-9.483,5.502-16.565,12.343-16.565c5.818,0,8.633,4.373,8.633,9.611c0,5.848-3.733,14.601-5.652,22.707    c-1.603,6.796,3.402,12.328,10.1,12.328c12.125,0,20.291-15.572,20.291-34.026c0-14.022-9.446-24.521-26.628-24.521    c-19.41,0-31.505,14.473-31.505,30.64c0,5.585,1.641,9.513,4.215,12.554c1.189,1.407,1.347,1.964,0.918,3.575    c-0.301,1.167-1.009,4.012-1.302,5.133c-0.429,1.618-1.739,2.205-3.199,1.603c-8.949-3.65-13.111-13.442-13.111-24.453    c0-18.176,15.331-39.987,45.737-39.987c24.438,0,40.522,17.694,40.522,36.668c0,25.108-13.954,43.863-34.538,43.863    c-6.902,0-13.404-3.733-15.632-7.97c0,0-3.718,14.744-4.501,17.589c-1.355,4.93-4.012,9.867-6.443,13.705    C51.623,127.074,57.704,128,64.004,128C99.347,128,128,99.347,128,64.004C128,28.653,99.347,0,64.004,0" fill="#CC2127" fill-rule="evenodd" id="Pinterest_2_"/></g></g></svg>