<?xml version="1.0" ?><!DOCTYPE svg  PUBLIC '-//W3C//DTD SVG 1.1//EN'  'http://www.w3.org/Graphics/SVG/1.1/DTD/svg11.dtd'><svg enable-background="new 0 0 128 128" id="Social_Icons" version="1.1" viewBox="0 0 128 128" xml:space="preserve" xmlns="http://www.w3.org/2000/svg" xmlns:xlink="http://www.w3.org/1999/xlink"><g id="_x35__stroke"><g id="Rdio"><rect clip-rule="evenodd" fill="none" fill-rule="evenodd" height="128" width="128"/><path clip-rule="evenodd" d="M109.472,56.821    c0.103,2.209,0.263,4.355,0.294,6.503c0.35,24.702-15.986,46.021-40.092,52.1c-16.459,4.151-32.203,2.104-46.527-7.435    C10.403,99.501,2.854,87.414,0.6,72.123c-4.114-27.908,13.31-53.573,40.582-59.96c9.48-2.22,18.942-2.182,28.388,0.206    c0.319,0.081,0.634,0.178,0.999,0.281v31.043c-1.935-0.611-3.826-1.388-5.791-1.8c-9.871-2.066-18.615,0.475-26.231,6.997    c-4.523,3.874-7.79,8.673-9.165,14.587c-1.989,8.558,1.538,16.329,9.33,20.258c8.32,4.195,16.809,4.021,25.149,0.105    c7.872-3.696,13.523-9.634,16.163-18.12c0.676-2.173,0.892-4.568,0.905-6.864c0.081-13.682,0.04-27.364,0.04-41.046v-1.309    c1.647,0.94,3.153,1.716,4.574,2.625c6.222,3.981,12.54,7.78,19.317,10.734c4.752,2.071,9.623,3.756,14.779,4.431    c1.58,0.207,3.185,0.266,4.78,0.308c2.219,0.059,3.509,1.327,3.574,3.591c0.059,2.059-0.614,3.916-1.587,5.661    c-3.532,6.328-8.936,10.292-15.66,12.562C110.311,56.563,109.868,56.696,109.472,56.821" fill="#0086CD" fill-rule="evenodd" id="Rdio_1_"/></g></g></svg>