<?xml version="1.0" ?><!DOCTYPE svg  PUBLIC '-//W3C//DTD SVG 1.1//EN'  'http://www.w3.org/Graphics/SVG/1.1/DTD/svg11.dtd'><svg enable-background="new 0 0 128 128" id="Social_Icons" version="1.1" viewBox="0 0 128 128" xml:space="preserve" xmlns="http://www.w3.org/2000/svg" xmlns:xlink="http://www.w3.org/1999/xlink"><g id="_x35__stroke"><g id="Vimeo"><rect clip-rule="evenodd" fill="none" fill-rule="evenodd" height="128" width="128"/><path clip-rule="evenodd" d="M127.936,34.612    c-0.557,12.322-9.272,29.166-26.085,50.539c-17.4,22.349-32.144,33.516-44.193,33.516c-7.451,0-13.765-6.794-18.921-20.427    c-3.454-12.508-6.886-25.016-10.333-37.487c-3.838-13.64-7.948-20.457-12.343-20.457c-0.956,0-4.29,1.989-10.04,5.975L0,38.59    c6.307-5.476,12.523-10.973,18.657-16.456c8.399-7.196,14.713-10.973,18.928-11.368c9.934-0.954,16.061,5.774,18.371,20.159    c2.461,15.533,4.192,25.187,5.148,28.972c2.875,12.873,6.021,19.295,9.468,19.295c2.672,0,6.691-4.157,12.049-12.478    c5.359-8.336,8.211-14.669,8.602-19.034c0.768-7.196-2.1-10.772-8.602-10.772c-3.063,0-6.224,0.641-9.468,1.982    c6.322-20.256,18.364-30.104,36.155-29.531C122.487,9.722,128.711,18.155,127.936,34.612" fill="#00B2EA" fill-rule="evenodd" id="Vimeo_1_"/></g></g></svg>