<?xml version="1.0" ?><!DOCTYPE svg  PUBLIC '-//W3C//DTD SVG 1.1//EN'  'http://www.w3.org/Graphics/SVG/1.1/DTD/svg11.dtd'><svg enable-background="new 0 0 128 128" id="Social_Icons" version="1.1" viewBox="0 0 128 128" xml:space="preserve" xmlns="http://www.w3.org/2000/svg" xmlns:xlink="http://www.w3.org/1999/xlink"><g id="_x36__stroke"><g id="Yelp"><rect clip-rule="evenodd" fill="none" fill-rule="evenodd" height="128" width="128"/><path clip-rule="evenodd" d="M64.69,52.375    c-0.366-8.644-2.924-47.155-3.226-48.943c-0.443-1.612-1.679-2.768-3.471-3.228c-5.477-1.384-26.43,4.588-30.317,8.66    c-1.244,1.32-1.712,2.952-1.337,4.388c0.608,1.28,26.579,42.784,26.579,42.784c3.842,6.324,6.971,5.344,7.994,5.02    C61.931,60.731,65.044,59.751,64.69,52.375z M86.26,70.394c21.477-5.284,22.307-5.568,23.156-6.132    c1.297-0.884,1.949-2.376,1.84-4.192c0-0.06,0.008-0.116,0-0.184c-0.552-5.352-9.798-19.296-14.349-21.556    c-1.611-0.788-3.23-0.732-4.559,0.176c-0.83,0.552-1.446,1.38-12.943,17.356c0,0-5.199,7.196-5.259,7.264    c-1.373,1.688-1.385,4.12-0.052,6.2c1.385,2.152,3.729,3.2,5.876,2.596c0,0-0.089,0.152-0.113,0.184    C80.916,71.694,82.813,71.226,86.26,70.394z M96.018,118.052c4.772-1.932,15.191-15.392,15.923-20.572    c0.25-1.8-0.302-3.356-1.526-4.344c-0.797-0.612-1.418-0.852-20.313-7.152c0,0-8.288-2.784-8.397-2.836    c-2.001-0.788-4.297-0.064-5.835,1.876c-1.595,1.98-1.844,4.584-0.568,6.564l3.339,5.516    c11.224,18.516,12.078,19.824,12.887,20.464C92.776,118.568,94.362,118.732,96.018,118.052z M63.907,125.077    c0.33-0.964,0.366-1.632,0.423-21.82c0,0,0.048-8.916,0.052-9.012c0.133-2.18-1.252-4.168-3.54-5.068    c-2.348-0.916-4.873-0.348-6.29,1.452c0,0-4.144,5-4.16,5c-14.244,16.988-14.828,17.772-15.178,18.78    c-0.209,0.6-0.298,1.224-0.221,1.852c0.085,0.896,0.479,1.792,1.148,2.616c3.298,3.992,19.133,9.912,24.187,9.036    C62.087,127.585,63.36,126.581,63.907,125.077z M18.445,61.623c-2.046,3.332-2.908,13.824-2.203,20.788    c0.25,2.3,0.66,4.216,1.252,5.36c0.818,1.58,2.195,2.524,3.765,2.576c1.007,0.056,1.631-0.12,20.543-6.3    c0,0,8.405-2.72,8.441-2.74c2.094-0.536,3.504-2.496,3.645-5c0.133-2.56-1.172-4.828-3.318-5.644c0,0-5.92-2.456-5.936-2.456    c-20.321-8.516-21.231-8.852-22.258-8.864C20.809,59.283,19.408,60.083,18.445,61.623z" fill="#D32200" fill-rule="evenodd" id="Yelp_1_"/></g></g></svg>