<?xml version="1.0" ?><svg enable-background="new 0 0 500 500" id="Layer_1" version="1.1" viewBox="0 0 500 500" xml:space="preserve" xmlns="http://www.w3.org/2000/svg" xmlns:xlink="http://www.w3.org/1999/xlink"><g><path d="M467.41,182.123c-24.073,1.987-48.93,9.672-73.148,14.009c10.035-22.012,23.009-43.029,31.786-65.647   c0.148-0.716,0.169-1.32-0.655-1.708c-11.401-5.385-23.669-8.757-35.502-13.085c-36.123-11.799-72.193-24.971-109.484-32.41   c-3.653,0.534-4.375,4.397-6.001,7.098c-9.641,18.76-18.425,37.888-28.803,56.27c-12.046-16.044-24.71-31.299-36.779-47.3   c-4.196-5.387-3.304-4.854-9.146-1.856c-43.143,23.598-87.703,44.775-130.819,68.33c-2.311,2.153-2.318,3.135-0.097,5.264   c14.31,13.627,28.544,27.33,42.468,41.351c7.664,6.656-53.604,2.096-59.572,3.831c-4.679,0.964-16.687-1.607-18.982,1.871   c-0.595,2.181,2.013,3.38,3.899,3.884c25.954,12.512,56.09,21.557,80.047,35.823c-0.211,25.778,1.999,51.489,3.198,77.218   c1.47,6.356-1.309,18.307,4.96,21.727c44.145,20.029,88.45,39.866,132.946,59.17c3.653,1.712,6.949,0.223,10.011-1.724   c37.519-22.661,74.859-45.613,111.939-68.986c4.872-3.959,13.604-6.586,14.181-13.614c2.037-34.727-2.776-71.452,0.787-105.202   C418.36,211.313,446.15,199.785,467.41,182.123z" fill="#3F3756"/><path d="M252.483,268.644c-23.68,4.067-47.161,7.81-70.725,12.301c-46.924-19.169-93.33-40.814-139.979-61.028   c22.401-1.002,44.631-0.749,66.965-2.523C157.113,231.707,204.393,252.41,252.483,268.644z" fill="#98BCCF"/><polygon fill="#67A1C0" points="120.094,255.703 125.469,352.703 261.411,413.953 254,269.203 182.469,282.203  "/><polygon fill="#4865B2" points="254,269.203 261.411,413.953 391.219,333.203 391.219,226.745 463.969,183.703 389.469,198.203     "/><polygon fill="#4865B2" points="69.844,168.953 117.344,215.953 244.844,149.953 205.469,96.953  "/><polygon fill="#67A1C0" points="278.719,85.369 246.553,149.703 389.469,198.203 425.094,130.049  "/><polygon fill="#7BA4BD" points="118.219,217.342 256.328,267.983 389.469,198.203 244.844,149.953  "/><path d="M245.624,151.505c-0.921-0.037-1.054,0.533-0.997,1.273c1.035,14.287,2.448,28.535,3.922,42.781   c2.91,23.634,4.275,47.526,7.486,71.083c-46.27-15.837-91.899-33.61-138.289-49.146   C160.232,196.053,203.398,172.148,245.624,151.505z" fill="#4984A9"/><path d="M254,270.081c-14.454,16.622-29.025,33.142-43.105,50.086c-3.363,2.946-5.851,10.177-11.256,7.996   c-25.932-9.041-52.486-21.872-77.884-29.679c0.175-4.834-6.087-43.717,2.435-38.993c18.575,7.947,37.011,16.221,55.826,23.591   c1.582,0.614,3.018,0.629,4.789,0.147C207.771,278.5,231.107,275.261,254,270.081z" fill="#4984A9"/><path d="M390.868,252.02c-0.008-2.43-8.61,4.262-10.076,4.743c-24.45,14.465-48.694,29.281-73.325,43.437   c-6.344,1.592-12.814-6.271-18.608-8.657c-10.876-6.851-22.062-13.285-32.55-20.649c-0.123,0.077-0.229,0.063-0.317-0.056   c-0.435-1.911-0.417-1.729,1.369-1.696c19.052,0.241,38.156-0.612,57.197-0.827c12.861-1.834,23.279-12.111,35.007-17.44   c13.629-7.798,27.225-15.65,40.837-23.477c0.644-0.371,1.075-0.462,1.098,0.548C391.471,235.922,391.538,244.185,390.868,252.02z" fill="#2F4798"/><path d="M256.36,272.963c0.103,0.02,0.206,0.038,0.309,0.054c4.733,44.147,5.922,88.58,9.826,132.758   c-0.94,0.449-3.435,3.147-3.462,0.944c-0.487-9.547-0.927-19.099-1.318-28.653C260.123,343.028,258.566,307.948,256.36,272.963z" fill="#637EC2"/><path d="M387.28,197.328c9.345-23.248,22.117-45.517,32.828-68.163c3.551,0.765,3.544,0.761,1.793,3.873   c-11.608,20.968-22.262,42.445-33.195,63.77C388.326,197.557,388.015,197.856,387.28,197.328z" fill="#80B3CD"/><path d="M74.603,167.379c15.361,15.044,30.724,30.713,45.376,46.308c-1.362,1.23-2.354,0.899-3.586-0.425   c-14.833-14.879-29.029-30.386-44.707-44.387C72.737,168.336,73.67,167.857,74.603,167.379z" fill="#637EC1"/><path d="M261.869,266.74c15.606-1.246,31.264-1.435,46.911-2.115c3.905,0.367,8.875-1.302,12.273,0.781   c-9.66,3.415-21.37,0.824-31.699,2.109c-10.698,0.326-21.254,0.955-31.957,1.325C258.887,268.14,260.378,267.44,261.869,266.74z" fill="#637EC2"/><path d="M467.41,182.123c-24.073,1.987-48.93,9.672-73.148,14.009c10.035-22.012,23.009-43.029,31.786-65.647   c0.148-0.716,0.169-1.32-0.655-1.708c-11.401-5.385-23.669-8.757-35.502-13.085c-36.123-11.799-72.193-24.971-109.484-32.41   c-3.653,0.534-4.375,4.397-6.001,7.098c-9.641,18.76-18.425,37.888-28.803,56.27c-12.046-16.044-24.71-31.299-36.779-47.3   c-4.196-5.387-3.304-4.854-9.146-1.856c-43.143,23.598-87.703,44.775-130.819,68.33c-2.311,2.153-2.318,3.135-0.097,5.264   c14.31,13.627,28.544,27.33,42.468,41.351c7.664,6.656-53.604,2.096-59.572,3.831c-4.679,0.964-16.687-1.607-18.982,1.871   c-0.595,2.181,2.013,3.38,3.899,3.884c25.954,12.512,56.09,21.557,80.047,35.823c-0.211,25.778,1.999,51.489,3.198,77.218   c1.47,6.356-1.309,18.307,4.96,21.727c44.145,20.029,88.45,39.866,132.946,59.17c3.653,1.712,6.949,0.223,10.011-1.724   c37.519-22.661,74.859-45.613,111.939-68.986c4.872-3.959,13.604-6.586,14.181-13.614c2.037-34.727-2.776-71.452,0.787-105.202   C418.36,211.313,446.15,199.785,467.41,182.123z M250.331,147.792c10.895-19.188,18.884-40.125,29.653-59.245   c46.7,10.413,93.249,26.99,139.25,41.501c0,0,0,0,0,0c3.457,0.745,3.45,0.741,1.745,3.77c-11.299,20.41-21.67,41.315-32.311,62.072   c-0.37,0.729-0.673,1.021-1.388,0.506c-29.24-11.114-59.166-20.317-88.722-30.549c-15.835-5.364-31.649-10.792-47.487-16.149   C249.862,149.29,249.706,148.938,250.331,147.792z M245.639,153.117c47.218,14.993,93.504,31.897,141.011,46.109   c-44.049,21.125-87.103,44.251-130.893,65.796c0,0,0,0,0,0c-44.971-15.393-89.319-32.666-134.406-47.766   C162.644,196.415,204.599,173.18,245.639,153.117z M100.264,195.994c-9.177-9.103-17.602-18.858-27.578-27.156   c43.568-23.06,90.539-46.596,132.407-69.392c11.024,17.184,23.73,33.163,36.279,49.226c0.773,0.929,0.138,1.129-0.489,1.465   c-40.029,21.445-80.916,41.25-121.103,62.399l0,0C117.264,216.328,104.151,198.106,100.264,195.994z M92.924,241.618   c-15.19-6.761-30.489-13.179-45.604-20.104c21.54-0.963,42.915-0.72,64.39-2.426c46.509,13.763,91.971,33.67,138.212,49.28   c-22.77,3.91-45.347,7.51-68.005,11.828C151.961,268.552,122.683,254.131,92.924,241.618z M257.248,408.067   c-42.529-19.236-85.909-36.628-128.218-56.287c-0.987-0.424-1.23-1.004-1.345-2.009c-1.297-11.298-1.788-22.646-2.294-33.998   c-0.715-13.335-2.256-26.56-2.845-39.908c-1.035-19.905,0.3-16.784,16.459-9.713c15.326,5.27,30.471,15.92,46.389,17.661   c22.294-4.592,44.948-7.736,67.172-12.765c2.776,23.806,1.746,52.874,3.818,78.411c0.813,19.18,1.903,38.35,2.557,57.536   C258.995,408.799,258.952,408.822,257.248,408.067z M387.838,254.248c-1.053,13.891-0.398,28.212-0.602,42.245   c0.002,11.412,0.018,22.825,0.096,34.237c0.008,1.231-0.412,1.898-1.414,2.512c-34.68,21.999-69.788,43.252-105.184,64.084   c-25.399,14.661-15.663,15.804-19.021-19.261c-1.606-33.147-2.81-66.324-5.056-99.436c-0.154-1.89-0.423-3.765-0.297-5.667   c-0.423-1.859-0.406-1.683,1.333-1.651c15.441,0.104,30.938-0.257,46.371-0.62c5.954-0.707,12.356,1.042,17.613-2.512   c21.854-12.45,43.708-24.902,65.482-37.492c0.627-0.361,1.046-0.45,1.068,0.533C388.403,238.903,387.878,246.571,387.838,254.248z    M448.197,191.447c-43.443,24.231-86.617,49.1-129.84,73.64l0,0c-8.935,3.159-19.766,0.763-29.319,1.951   c-9.895,0.302-19.659,0.884-29.558,1.226c43.827-22.751,88.623-43.871,131.702-68.008c21.544-5.109,43.751-9.35,65.535-13.462   C453.771,188.399,450.967,189.892,448.197,191.447z" fill="#3F3756"/></g></svg>