<?xml version="1.0" ?><svg enable-background="new 0 0 500 500" id="Layer_1" version="1.1" viewBox="0 0 500 500" xml:space="preserve" xmlns="http://www.w3.org/2000/svg" xmlns:xlink="http://www.w3.org/1999/xlink"><g><path d="M434.385,316.228c-4.208-19.68-16.896-32.696-35.07-40.532c-2.367-1.021-3-2.202-3.063-4.526   c-11.529-167.38,25.573-161.766-123.161-155.004c-47.812,1.655-95.626,2.918-143.43,4.64c-16.524,1.232-33.985,0.814-49.123,8.463   c-18.024,7.955-16.282,29.613-15.846,45.096c0.511,22.196,2.023,40.284,3.183,61.778c6.437,33.218-12.338,128.985,33.419,133.035   c66.217-0.126,132.665-4.658,198.888-7.615c8.721-0.588,17.459-0.933,26.184-1.459c1.085-0.065,1.602,0.245,2.202,1.125   C361.281,415.729,449.287,379.896,434.385,316.228z" fill="#3F3756"/><path d="M433.595,329.56c-1.259,73.721-110.918,73.71-112.167-0.002C322.687,255.838,432.346,255.85,433.595,329.56   z" fill="#DD504C"/><path d="M420.203,361.834c-20.778,5.45-47.319-5.518-60.097-20.057c0.003-0.057,0.012-0.11,0.008-0.172   c-12.248-12.892-22.338-29.329-24.369-47.267c-47.458,59.599,41.969,127.069,87.672,67.347   C422.346,361.715,421.283,361.587,420.203,361.834z" fill="#CE3330"/><path d="M67.72,151.633c0,0,0.833-18.57,28.167-23.952c27.333-5.382,198.167-9.711,198.167-9.711   s64-3.413,76.167,0.041c14.896,5.382,14.62,13.55,16.167,19.454c-44.118,30.351-110.671,86.097-150.75,117.417   C204.352,235.613,97.156,169.504,67.72,151.633z" fill="#6181CD"/><path d="M67.72,154.633c4.329,294.069-2.711,199.37,261.667,202.257c-24.792-38.47,16.335-96.662,64.667-79.655   c-0.959-25.131-2.949-116.672-7.667-139.769c-47.116,32.854-108.738,84.611-150.75,117.417   C195.4,230.066,107.303,175.825,67.72,151.633V154.633z" fill="#516EB1"/><path d="M235.163,254.852c-12.264,2.09-21.893-8.549-32.488-13.082c-17.852-8.864-34.632-19.582-51.941-29.411   c-9.34-5.111-18.478-10.58-27.743-15.82c-3.827-1.647-1.18,9.082-1.668,11.105c2.495,35.057,24.629,146.956,68.39,146.079   c38.746-3.685,79.192-2.737,117.418-7.851c1.455-1.654,4.559-2.886,4.039-5.439c-1.514-27.977,19.026-56.505,46.129-63.713   c-28.08,13.107-41.333,48.776-29.173,77.164c-62.659,7.695-133.274,8.118-197.879,11.175c-12.402,0.074-25.413,1.902-37.224-2.748   c-15.733-7.514-13.855-32.414-16.553-47.368c-1.885-49.162-4.275-98.296-6.935-147.425c0.268-4.004-2.358-17.016,4.76-11.901   C127.802,188.877,181.748,221.435,235.163,254.852z" fill="#344D95"/><path d="M140.951,124.682c-5.047-0.594-5.444,13.358-6.561,17.262c-2.651,27.562,11.926,53.487,32.57,70.69   c-32.006-20.26-67.326-39.579-97.495-60.759C77.233,121.757,116.656,126.691,140.951,124.682z" fill="#4261B8"/><path d="M231.522,251.914c46.085-39.702,95.519-76.606,143.664-113.62c-0.459-14.98-8.607-19.128-21.907-21.161   c14.222,0.8,28.056,1.844,31.182,18.634c-47.374,36.721-94.662,74.6-141.923,111.645c-2.789,2.195-5.612,4.347-8.393,6.551   C233.344,254.597,230.06,252.934,231.522,251.914z" fill="#7D9AD8"/><path d="M382.558,273.798c-2.72-44.418,2.483-90.053,3.317-134.354c6.564,44.277,3.879,89.333,5.578,133.94   C391.791,276.837,384.746,273.31,382.558,273.798z" fill="#6F88C2"/><path d="M432.216,342.228c-7.695-30.669-29.35-64.425-64.04-66.821   C406.089,267.047,441.297,305.109,432.216,342.228z" fill="#E46E6A"/><path d="M350.429,311.383l7.333,8.583c0,0,10.917-13.042,18-12.375c7.083,0.667,9.292,6.417,8.75,10.375   c-0.837,9.759-21.008,23.906-26.5,26.854l4.312,15.188l43.479-9.542l-2.5-11.417l-19.384,3.583   C418.314,310.386,378.772,271.972,350.429,311.383z" fill="#E7BA76"/><path d="M361.936,343.43c5.657,5.388,11.976,9.816,19.051,13.15c-5.36,1.199-10.738,2.319-16.086,3.565   c-2.539,0.646-2.531,0.645-3.312-1.815c-1.206-3.8-1.692-7.772-2.786-11.597C358.415,344.926,360.903,344.455,361.936,343.43z" fill="#DCA055"/><path d="M406.665,347.672c-1.198-3.34-0.268-10.414-5.545-9.581c-4.855,0.765-9.609,1.953-14.391,3.21   c32.076-32.706-7.689-69.457-36.215-31.881c-2.685,1.558,6.028,13.794,7.959,11.257c5.098-4.126,9.45-9.709,16.165-11.211   c4.866-1.066,9.387,3.539,8.131,8.339c-3.261,12.362-15.922,17.61-24.689,25.391c-2.684,4.753,1.769,11.207,2.623,16.298   c2.43,4.156,19.446-2.701,24.478-2.949c6.147-1.275,12.309-2.483,18.439-3.833C407.281,351.906,407.674,351.188,406.665,347.672z    M403.616,350.305c-12.701,2.757-25.508,5-38.159,7.988c-2.271,0.578-2.263,0.577-2.962-1.623   c-1.078-3.398-1.513-6.95-2.491-10.371c-0.349-1.615,1.879-2.035,2.802-2.953h0c8.497-6.65,19.385-12.405,22.453-23.54   c2.051-7.38-3.238-14.565-10.554-13.218c-6.905,1.459-12.259,6.315-16.643,11.543c-0.344,0.464-0.541,0.559-0.957,0.051   c-0.911-1.951-5.97-5.578-5.267-7.128c8.646-9.431,21.558-20.64,34.66-12.661c13.007,7.137,11.667,24.918,3.379,35.237   c-0.772,2.271-13.532,12.266-5.201,10.295c3.538,0.127,17.562-5.452,18.459-2.257C402.971,343.732,406.14,349.909,403.616,350.305z   " fill="#3F3756"/><path d="M383.92,356.876c0.01,0.005,0.02,0.01,0.03,0.015c0.002-0.008,0.004-0.017,0.006-0.025   C383.944,356.869,383.932,356.872,383.92,356.876z" fill="#3F3756"/><path d="M134.053,127.786c0.134-0.003,0.269-0.003,0.402-0.018c-0.278-0.018-0.528-0.009-0.75,0.026   C133.82,127.792,133.921,127.788,134.053,127.786z" fill="#3F3756"/><path d="M434.385,316.228c-4.208-19.68-16.896-32.696-35.07-40.532c-2.367-1.021-3-2.202-3.063-4.526   c-7.074-217.824,19.307-147.813-266.593-150.368c-39.965,1.543-71.049,4.709-64.965,53.564c0.509,22.194,2.02,40.283,3.181,61.777   c6.436,33.205-12.337,128.99,33.419,133.035c66.217-0.126,132.665-4.658,198.888-7.615c8.721-0.588,17.459-0.933,26.184-1.459   c1.085-0.065,1.602,0.245,2.202,1.125C361.281,415.729,449.287,379.896,434.385,316.228z M71.901,151.593   c12.902-40.45,105.191-17.702,281.551-33.58c0,0,0,0,0,0c10.827,0.963,24.051,0.639,28.313,13.003   c2.298,4.229,2.526,5.997-2.255,8.109c-77.242,58.982-142.037,114.316-145.693,112.379   C180.273,218.156,123.684,185.971,71.901,151.593z M323.203,353.617c-279.074,4.957-238.469,71.35-251.776-169.711   c0.715-4.798-3.679-27.39,1.837-26.797c15.899,7.649,110.855,71.554,163.669,98.878c83.5-66.565,130.266-101.797,145.197-114.965   c1.807-1.593,2.437-0.676,2.91,1.588l0,0c0,0,0,0,0,0c4.704,41.933,6.879,90.24,3.762,129.9   C339.548,263.221,308.87,311.459,323.203,353.617z M428.929,341.596c-1.529,6.731-4.195,12.948-8.36,18.487c0,0,0,0,0,0   c-64.719,73.704-148.409-54.12-52.485-81.974c0,0,0,0-0.001,0C404.106,270.165,437.557,306.328,428.929,341.596z" fill="#3F3756"/></g></svg>