<?xml version="1.0" ?><svg enable-background="new 0 0 500 500" id="Layer_1" version="1.1" viewBox="0 0 500 500" xml:space="preserve" xmlns="http://www.w3.org/2000/svg" xmlns:xlink="http://www.w3.org/1999/xlink"><g><path d="M413.406,375.932c-16.526-16.97-41.933-16.299-60.343-2.87c-9.701,1.057-18.918-3.567-28.015-6.257   c-48.657-18.249-98.664-33.16-146.537-53.328c-11.029-4.446-7.544-11.18-10.635-20.438c-5.777-11.012,29.194-33.917,36.636-43.723   c34.037-32.961,68.087-66.126,103.448-97.605c11.912-9.783,26.243-0.886,39.683-3.478c58.151-8.205,54.545-96.461-4.696-98.862   c-37.867-1.421-57.107,31.402-51.876,63.219c1.117,17.835-18.46,30.449-28.682,43.303c-32.182,34.197-66.172,66.618-99.577,99.605   c-4.292,4.185-8.758,8.205-14.495,10.456c-28.476-13.718-63.149-4.581-72.829,28.219c-9.372,29.524,14.335,62.085,45.4,61.971   c44.081-1.687,18.079-28.241,73.958-7.608c43.699,16.068,88.418,29.631,131.115,48.275c5.758,2.602,11.842,6.548,12.521,13.522   C352.681,490.164,464.225,436.981,413.406,375.932z" fill="#3F3756"/><path d="M293.586,122.152c2.608-12.058-3.959-33.875,5.291-47.125s23.625-23.25,38.875-23.25   c35.793-1.596,55.699,32.449,46.873,63.126c-2.843,11.648-15.748,24.124-27.123,28.374s-35.375-1.875-41.5,0.875   c-46.321,31.281-118.624,111.229-154.083,140.332l-12-15.249C159.939,260.075,289.184,143.779,293.586,122.152z" fill="#E06E3C"/><path d="M422.28,405.583c-0.915,53.584-80.621,53.576-81.528-0.002C341.667,351.999,421.373,352.007,422.28,405.583   z" fill="#973678"/><path d="M168.419,310.152l-10,28c11.385-9.857,190.817,66.149,182.397,62.833l11.103-22.667   C341.412,373.383,186.809,327.622,168.419,310.152z" fill="#B13F4A"/><path d="M167.551,307.496c-1.022,59.839-90.032,59.83-91.045-0.002C77.528,247.656,166.538,247.666,167.551,307.496   z" fill="#C55847"/><path d="M171.29,258.746c27.699-16.296,52.219-40.365,75.423-63.067c18.061-17.252,31.814-38.148,49.007-56.131   c14.123-15.825,28.306-22.691,49.768-21.929c22.244-2.193,38.025-22.655,33.254-44.754c19.993,26.073,0.957,67.929-31.963,69.885   c-14.054,1.395-30.777-8.002-41.806,5c-32.005,28.023-63.853,56.313-94.005,86.354c-16.557,16.211-35.727,33.803-50.992,49.193   C148.394,268.448,151.076,280.422,171.29,258.746z" fill="#D24C23"/><path d="M106.102,267.055c-32.509,33.484,30.828,95.794,58.032,54.035c-7.986,28.872-46.931,39.964-69.351,20.295   C69.072,321.934,75.986,278.181,106.102,267.055z" fill="#AD382B"/><path d="M343.337,396.225c8.555,38.372,75.043,37.457,76.856-4.084c10.223,26.852-13.566,57.473-42.242,53.134   C354.861,443.64,337.068,418.488,343.337,396.225z" fill="#771F56"/><path d="M346.524,379.652c0.101,0.013,2.046,4.809,1.972,4.919c-3.13,4.673-5.451,9.733-6.716,15.27   c-0.16,0.698-0.375,0.918-0.955,0.346c-4.603-4.536-10.422-6.954-16.118-9.519c-15.382-6.736-138.578-55.115-165.439-54.742   c4.218-6.598,8.191-15.46,9.423-23.4c2.273,2.217,2.301,2.504,4.824,4.072c0.156,0.262,1.685,3.611,1.804,3.884   c4.676,12.808,38.285,20.766,51.259,26.677C300.174,375.992,332.821,392.187,346.524,379.652z" fill="#93262D"/><path d="M353.495,55.361c1.853,12.707-11.232,23.284-22.885,24.452c-8.2-0.108-19.362-4.941-22.041-13.058   C320.422,55.46,337.724,51.242,353.495,55.361z" fill="#E78757"/><path d="M165.369,298.175c-0.702,2.946-5.892,2.188-8.199,1.153c-11.442-5.424-21.209-19.179-17.462-32.016   C152.776,272.407,162.477,284.552,165.369,298.175z" fill="#D27562"/><path d="M348.805,381.402c-6.66,2.053-13.098-1.716-19.372-3.423c-8.17-2.422-16.53-4.379-24.612-7.064   c-35.394-11.374-71.249-25.478-103.916-41.948C249.977,347.017,299.252,365.075,348.805,381.402z" fill="#C15B64"/><path d="M377.031,368.021c3.335,10.975-13.507,16.221-17.63,6.922C364.676,371.101,370.488,368.63,377.031,368.021z   " fill="#AD538E"/><path d="M352.379,73.292c6.905-0.289,4.421,9.58,0.177,12.148C341.882,90.521,343.706,73.158,352.379,73.292z" fill="#E78757"/><path d="M136.056,285.502c-0.659,12.316-16.442,2.9-12.198-5.196C127.453,273.912,136.793,279.107,136.056,285.502z   " fill="#D27462"/><path d="M379.159,380.452c0.01-1.479,0.708-2.044,2.512-2.036C388.458,379.468,379.747,388.362,379.159,380.452z" fill="#AD528E"/><path d="M413.406,375.932c-16.526-16.97-41.933-16.299-60.343-2.87c-9.701,1.057-18.918-3.567-28.015-6.257   c-48.657-18.249-98.664-33.16-146.537-53.328c-11.029-4.446-7.544-11.18-10.635-20.438c-5.777-11.012,29.194-33.917,36.636-43.723   c34.037-32.961,68.087-66.126,103.448-97.605c11.912-9.783,26.243-0.886,39.683-3.478c58.151-8.205,54.545-96.461-4.696-98.862   c-37.867-1.421-57.107,31.402-51.876,63.219c1.117,17.835-18.46,30.449-28.682,43.303c-32.182,34.197-66.172,66.618-99.577,99.605   c-4.292,4.185-8.758,8.205-14.495,10.456c-28.476-13.718-63.149-4.581-72.829,28.219c-9.372,29.524,14.335,62.085,45.4,61.971   c44.081-1.687,18.079-28.241,73.958-7.608c43.699,16.068,88.418,29.631,131.115,48.275c5.758,2.602,11.842,6.548,12.521,13.522   C352.681,490.164,464.225,436.981,413.406,375.932z M154.77,271.146c22.727-16.753,40.82-39.206,61.651-58.243   c25.196-25.462,51.206-50.402,73.914-78.135c15.783-21.483-6.812-43.658,20.068-67.916c0,0,0,0,0,0c0,0,0,0,0,0   c18.361-18.035,51.279-14.159,65.242,7.348c0,0,0,0,0,0c19.57,25.517,0.935,66.486-31.284,68.399   c-10.141,1.45-20.072-3.799-30.148-1.604c-4.254,1.071-7.725,3.524-10.769,6.496c-10.836,9.811-22.243,18.942-32.845,29.02   c-28.546,25.42-55.797,52.168-83.27,78.728c-8.251,8.23-17.999,15.154-24.648,24.85c-1.453,2.205-5.403-6.985-7.944-7.75   C154.276,271.906,154.016,271.583,154.77,271.146z M157.814,329.507c-25.572,40.885-88.955,13.282-76.269-33.232   c17.291-54.19,96.488-29.931,80.27,24.214c0,0,0,0,0,0C161.149,323.79,159.6,326.725,157.814,329.507z M338.736,396.636   c-29.75-19.268-66.046-26.597-98.832-39.653c-25.697-7.97-50.957-21.978-78.357-21.596c4.117-6.289,6.832-12.976,8.034-20.543   c2.218,2.113,4.688,3.597,7.15,5.092c0,0,0,0,0,0c53.689,22.311,109.369,39.979,164.084,59.691   c1.648,0.133,3.202,0.855,4.894,0.908c0.802,0.029,1.087,0.38,0.514,1.217c-3.054,4.454-5.319,9.277-6.555,14.555   C339.512,396.972,339.302,397.182,338.736,396.636z M414.908,425.059c-20.982,36.793-77.836,14.862-69.076-26.547   c7.766-36.085,59.742-39.664,71.67-4.288C421.172,404.208,419.783,415.735,414.908,425.059z" fill="#3F3756"/></g></svg>