<?xml version="1.0" ?><svg enable-background="new 0 0 500 500" id="Layer_1" version="1.1" viewBox="0 0 500 500" xml:space="preserve" xmlns="http://www.w3.org/2000/svg" xmlns:xlink="http://www.w3.org/1999/xlink"><g><path d="M456.329,128.359c-5.229,2.092-10.913,5.529-16.613,7.734c30.069-43.469,7.713-15.627-23.21-16.144   C379.959,59.2,297.078,68.677,274.399,136.181c-6.075,17.61-8.386,35.913-8.189,54.53c0.192,2.456-0.274,5.376-3.372,4.92   C183.026,190,118.406,146.986,90.486,71.561c-4.779,26.449-5.306,52.773,2.769,79.068c-14.487-6.452-27.548-14.605-38.385-26.457   c4.787,49.078,37.267,91.65,71.301,125.192c-12.547-1.38-25.101-5.036-36.061-10.463c8.006,35.485,40.549,62.6,74.677,72.864   c-14.694,36.599-77.435,86.743-121.116,75.609c122.707,87.224,319.136,28.618,375.696-110.874   c16.487-37.152,18.226-76.014,14.261-115.522C441.01,150.311,452.073,140.264,456.329,128.359z" fill="#58454D"/><path d="M52.495,391.129c44.359,0.615,98.946-39.991,117.19-80.146c-25.492-6.497-67.334-35.367-76.072-67.226   c0,0,24.285,8.05,32.487,8.689s12.062,1.122,12.062,1.122c-31.029-18.314-76.58-84.536-80.093-123.195   c2.588,4.397,31.997,24.505,40.127,24.768c-9.612-16.03-10.229-61.761-6.246-77.305c25.542,76.789,97.504,117.479,176.482,119.227   c0.64-38.582,8.744-103.19,70.552-113.444c39.405-3.047,63.019,15.383,75.694,39.891l36.347-8.363l-17.906,24.982l16.083-3.86   l-19.192,24.982C457.443,362.222,217.873,489.17,52.495,391.129z" fill="#9CC4CF"/><path d="M129.827,256.003c-2.842,1.042-4.282,4.215-7.839,5.17c5.165,0.72,10.222,1.449,12.421,6.671   c13.086,27.298,41.291,42.751,70.544,45.822c2.275,2.197-19.287,5.003-22.116,5.828c-3.893,3.344-4.478,10.174-7.841,14.425   c-3.057,10.384-29.531,32.77-3.164,25.693c24.162-3.393,78.938-37.393,49.844,14.937c-2.546,5.653,28.432,1.33,32.811,1.277   c63.005-6.154,117.084-45.86,155.637-94.06C350.947,411.181,176.448,457.085,54.236,393.585   c49.027-2.09,91.662-37.58,116.003-78.283c0.205-1.973,5.752-4.888,1.188-6.22c-32.788-9.163-60.132-32.145-76.053-62.09   C106.757,251.379,118.017,253.859,129.827,256.003z" fill="#7EADBC"/><path d="M367.826,83.403c-27.765-0.358-56.445,18.168-66.157,44.353c-0.621,1.762-0.14,2.422,1.802,2.323   c34.863-6.384,14.47,16.522,1.673,29.918c4.05-0.709,8.518-6.366,12.485-3.278c2.212,5.735-12.769,14.84-16.101,19.976   c-10.142,8.855-17.107,20.787-28.265,28.413c-5.071,3.295-6.333-1.433-8.528-4.855c1.633-0.22,5.778,0.932,6.551-0.639   c-0.663-14.313,1.719-28.387,4.138-42.512C282.152,114.851,322.642,74.191,367.826,83.403z" fill="#7EADBC"/><path d="M107.564,170.586c12.782,38.087,6.693,57.929,37.935,88.687c-42.773-30.339-71.002-76.541-86.616-126.008   c11.87,9.318,23.555,18.487,38.085,22.942C100.676,160.365,104.194,165.871,107.564,170.586z" fill="#7EADBC"/><path d="M418.843,267.609c-2.291,2.49-7.087,2.648-8.752,5.766c-0.227,5.221-7.06,9.741-9.323,3.156   c0.2-18.003,10.575-35.254,9.715-53.386c0.85-14.321,1.336-28.55,0.735-42.883c0.013-1.05,0.785-1.866,1.661-1.466   c1.571,0.717,2.677-0.628,4.074-0.537c0.627,0.041,0.754-0.758,0.837-1.345c0.028-4.058,4.572-2.803,5.244-5.518   c0.262-4.517,1.371-5.443,5.909-5.191C433.719,200.112,429.985,235.25,418.843,267.609z" fill="#B0D0D9"/><path d="M108.442,115.056c-9.921,12.03-6.784,30.424-6.725,45.07c-10.509-24.771-12.161-52.256-9.254-78.759   C96.283,93.642,102.212,104.119,108.442,115.056z" fill="#7EADBC"/><path d="M427.611,166.167c-1.356-0.857-1.923-2.014-1.378-3.601c0.726-1.597-1.623-3.098,0.053-4.237   c3.962-4.064,8.377-8.096,11.408-12.828c0.115-1.013,1.467-0.765,1.9-1.612c1.503-0.993,0.402-2.346-0.86-1.234   c-1.076,1.154-3.011,0.896-3.818,2.429c-0.154,0.292-0.516,0.346-0.837,0.337c-4.274,0.129-8.312,3.657-12.532,2.794   c7.758-2.683,15.288-6.206,23.148-8.425c-5.205,6.191-10.323,11.812-15.599,17.836   C426.109,159.847,427.609,163.129,427.611,166.167z" fill="#9CC4CF"/><path d="M204.256,325.302c23.86,7.283-31.426,39.847-30.075,23.056C180.07,337.315,191.097,327.234,204.256,325.302   z" fill="#7EADBC"/><path d="M258.358,356.219c21.288,3.694-19.352,23.832-23.378,12.091   C234.329,358.008,250.948,357.024,258.358,356.219z" fill="#7EADBC"/><path d="M334.624,103.003c-4.088,7.485-12.925,13.011-18.492,19.906c-3.255,4.269-10.193,1.368-7.648-4.361   c3.609-7.245,10.718-12.235,17.632-16.118C328.843,100.784,334.162,97.597,334.624,103.003z" fill="#7EADBC"/><path d="M149.985,279.753c-13.388-2.909-12.349-23.028-2.529-10.427   C148.167,272.524,156.11,278.312,149.985,279.753z" fill="#7EAEBD"/><path d="M123.833,261.953c-0.051,0.021-0.097,0.044-0.149,0.064c0.055,0.009,0.102,0.017,0.156,0.026   C123.839,262.014,123.83,261.982,123.833,261.953z" fill="#58454D"/><path d="M456.329,128.359c-5.229,2.092-10.913,5.529-16.613,7.734c30.069-43.469,7.713-15.627-23.21-16.144   C379.959,59.2,297.078,68.677,274.399,136.181c-6.075,17.61-8.386,35.913-8.189,54.53c0.192,2.456-0.274,5.376-3.372,4.92   C183.026,190,118.406,146.986,90.486,71.561c-4.779,26.449-5.306,52.773,2.769,79.068c-14.487-6.452-27.548-14.605-38.385-26.457   c4.787,49.078,37.267,91.65,71.301,125.192c-12.547-1.38-25.101-5.036-36.061-10.463c8.006,35.485,40.549,62.6,74.677,72.864   c-14.694,36.599-77.435,86.743-121.116,75.609c122.707,87.224,319.136,28.618,375.696-110.874   c16.487-37.152,18.226-76.014,14.261-115.522C441.01,150.311,452.073,140.264,456.329,128.359z M439.676,145.651   c-3.702,5.312-10.643,9.668-12.504,15.737c0.313,1.718,0.349,3.395,0.458,5.081c22.059,196.997-207.622,311.199-370.982,226.56   c48.072-1.98,89.435-36.463,113.995-75.932c1.153-1.729,0.833-4.166,3.626-3.161c1.801,0.825,16.554,1.836,12.074-1.415   c-37.939-5.986-71.161-30.682-88.992-64.536c13.322,5.697,27.249,6.754,40.835,10.625c1.542,1.178,25.011,10.042,19.445,5.078   c-48.246-27.172-80.67-75.629-96.924-127.743c11.204,9.175,22.835,17.177,36.39,21.917c3.397,4.843,10.617,17.669,15.731,18.814   c-18.812-26.384-24.239-60.96-20.3-93.058c23.871,74.37,100.414,114.322,174.883,117.462c0,0,0,0,0,0   c1.288-0.266,4.825,0.38,4.664-1.633c-1.054-14.504,1.025-29.07,3.465-43.352c6.058-45.131,53.33-86.308,98.812-65.005   c15.528,6.392,29.395,17.495,36.43,33.029c5.211,6.118,29.12-2.999,36.061-6.163c-7.041,10.7-15.638,19.613-25.695,27.396   c-0.672,0.728-2.209,1.279-1.832,2.468c0.429,1.08,1.458,0.365,2.231,0.395c7.758-2.682,15.288-6.206,23.148-8.425   C442.907,141.882,441.315,143.786,439.676,145.651z" fill="#58454D"/></g></svg>