<?xml version="1.0" ?><svg enable-background="new 0 0 500 500" id="Layer_1" version="1.1" viewBox="0 0 500 500" xml:space="preserve" xmlns="http://www.w3.org/2000/svg" xmlns:xlink="http://www.w3.org/1999/xlink"><g><path d="M455.744,179.267c-5.011-27.236-18.703-55.689-47.809-62.894c-27.261-7.488-55.452-10.462-83.419-14.048   c-76.307-8.83-154.852-3.328-228.575,18.666c-23.988,6.533-44.353,24.012-48.858,49.237c-10.34,57.825-14.079,143.16,12.37,196.436   c16.188,37.97,130.842,32.179,168.955,35.03c44.273-0.164,187.509,0.849,208.177-39.832   C462.85,312.12,464.985,234.196,455.744,179.267z" fill="#58454D"/><path d="M45.456,306.463c0,0,10.414,62.483,28.072,71.765s96.894,18.564,133.116,18.79   c45.918-2.253,197.481,7.655,227.522-39.954c25.896-39.644,31.211-171.621,3.395-213.262   c-14.669-21.044-35.317-27.146-59.088-31.401C336.542,96.543,97.29,96.785,64.248,142.794   C42.182,160.163,41.588,286.475,45.456,306.463z" fill="#EDD5B8"/><path d="M194.35,198.646c0,0-3.835,28.071-2.817,53.682c1.019,25.611,5.264,52.098,5.264,52.098   c5.464,8.763,128.535-48.062,130.911-57.897C319.598,232.228,216.102,191.048,194.35,198.646z" fill="#DB5042"/><path d="M201.989,203.646c-0.038,1.06-5.328,92.413,3.61,93.563c5.12,0.595,49.714-18.218,67.148-28.168   c17.434-9.95,45.111-19.398,44.432-22.23C315.593,238.756,214.992,198.261,201.989,203.646z" fill="#E67263"/><path d="M210.841,388.912c18.111,2.543,36.014,5.062,54.374,5.167c0.538,0.027,1.167,0.056,1.399,0.525   c0.326,0.659-0.878,0.666-0.729,1.589c1.608,0,3.263,0,4.917,0c-49.019,0.746-98.301-1.329-147.106-6.51   c-14.586-1.572-29.428-3.183-43.084-8.905C43.511,356.752,45.638,277.759,45.984,237.76c3.655-59.337-3.935-104.61,67-119.426   c-29.822,14.679-30.542,28.548-31.374,59.367c-1.718,30.329,0.743,60.647,1.864,90.971c1.961,93.713,37.546,111.527,124.93,119.901   C209.148,389.166,210.055,388.607,210.841,388.912z" fill="#E4C39D"/><path d="M442.539,336.531c-3.682,2.323-6.57-4.743-7.758-7.366c-8.724-20.186-11.124-42.109-12.246-63.87   c-1.595-21.326-0.121-42.588-0.023-63.902c-1.745-17.275-1.252-34.672-3.319-51.884c-11.48-33.903-54.702-30.632-82.732-40.173   c0.473-0.417,1.074-0.136,1.563-0.284c28.43,4.827,60.717,4.065,85.861,19.67C468.187,168.007,456.648,283.651,442.539,336.531z" fill="#F1DFC8"/><path d="M422.452,131.362c-0.919-0.229-1.398-0.969-1.924-1.655C421.438,129.947,421.908,130.697,422.452,131.362z" fill="#EDD5B8"/><path d="M429.4,326.75c1.894,10.004-2.746,20.482-8.385,28.674c-3.306,4.024-11.767,11.591-16.811,11.142   c-0.412-1.78,2.257-3.806,3.521-4.989C419.43,352.839,425.58,340.462,429.4,326.75z" fill="#58454D"/><path d="M205.303,386.028c-0.821,0.225-1.655,0.544-2.322-0.326C203.755,385.805,204.598,385.425,205.303,386.028z" fill="#E5C6A2"/><path d="M147.192,383.175c0.496,0.103,0.993,0.206,1.751,0.363C148.096,384.26,147.638,383.65,147.192,383.175z" fill="#EDD5B8"/><path d="M330.635,246.493c-36.961-28.443-85.25-48.629-132.13-51.43c-14.582,0.739-8.971,45.483-9.861,56.582   c1.743,9.844-2.56,62.75,12.72,57.805c37.595-10.246,73.339-27.612,107.513-46.201C313.01,260.058,332.416,251.344,330.635,246.493   z M322.195,249.072c-38.072,21.807-78.671,40.783-120.796,53.182c-9.723,1.765-5.163-56.336-7.049-65.345   c0.033-0.001,0.065-0.002,0.097-0.004c1.5-7.195-3.108-35.438,5.055-36.227c43.44,3.045,84.734,20.796,121.5,43.396   C323.148,245.16,325.02,247.381,322.195,249.072z" fill="#58454D"/><path d="M455.744,179.267c-5.011-27.236-18.703-55.689-47.809-62.894c-27.261-7.488-55.452-10.462-83.419-14.048   c-76.307-8.83-154.852-3.328-228.575,18.666c-23.988,6.533-44.353,24.012-48.858,49.237c-10.34,57.825-14.079,143.16,12.37,196.436   c16.188,37.97,130.842,32.179,168.955,35.03c44.273-0.164,187.509,0.849,208.177-39.832   C462.85,312.12,464.985,234.196,455.744,179.267z M451.202,265.167c-4.08,36.492-5.73,98.251-47.956,110.545   c-44.833,13.355-92.223,15.09-138.681,16.982c-47.412,0.623-95.066-1.173-142.269-6.299c-18.508-2.745-42.247-2.452-53.456-19.961   c-21.999-37.74-21.09-83.87-20.564-126.243c2.233-27.859-0.791-59.171,12.717-84.373c14.565-25.209,46.744-29.101,72.418-36.057   c67.646-14.663,137.725-16.501,206.29-7.733c0,0,0,0,0,0c27.362,4.667,58.622,3.911,82.752,18.958   C457.263,164.059,451.829,221.031,451.202,265.167z" fill="#58454D"/></g></svg>