<?xml version="1.0" ?><svg id="Layer_1" style="enable-background:new 0 0 512 512;" version="1.1" viewBox="0 0 512 512" xml:space="preserve" xmlns="http://www.w3.org/2000/svg" xmlns:xlink="http://www.w3.org/1999/xlink"><g id="XMLID_176_"><path d="M156.5,329.8h-14.7v24h14.7c4.2,0,7.4-1.1,9.5-3.4c2.1-2.2,3.2-5.1,3.2-8.6c0-3.5-1.1-6.3-3.2-8.6   C163.8,331,160.7,329.8,156.5,329.8z" id="XMLID_346_"/><path d="M278.4,329.8h-11.1v49.9h11.1c5.5,0,9.8-1.8,13-5.5c3.2-3.7,4.8-8.4,4.8-14.2v-10.4   c0-5.7-1.6-10.4-4.8-14.1C288.1,331.7,283.8,329.8,278.4,329.8z" id="XMLID_345_"/><path d="M394.3,286H69v133.9h276.3L394.3,286z M174.1,357.2c-4.3,3.8-10.1,5.8-17.6,5.8h-14.7v25.8h-11.4v-68h26.1   c7.5,0,13.4,1.9,17.6,5.8c4.3,3.9,6.4,9,6.4,15.3C180.5,348.2,178.3,353.3,174.1,357.2z M234.7,384.7c-4.4,3.4-10.2,5-17.4,5   c-6.9,0-12.9-1.8-18.1-5.5c-5.1-3.7-7.6-8.9-7.5-15.6l0.1-0.3h10.9c0,4.1,1.4,7.2,4.2,9.2c2.8,2.1,6.3,3.1,10.3,3.1   c4,0,7.1-0.8,9.4-2.5c2.2-1.7,3.3-4,3.3-6.9c0-2.8-1-5.2-3-7c-2-1.8-5.6-3.4-10.7-4.9c-7.3-2-13-4.7-16.9-8c-4-3.3-6-7.6-6-12.9   c0-5.5,2.2-10,6.5-13.6c4.4-3.6,10-5.3,16.8-5.3c7.4,0,13.2,2,17.6,5.9c4.4,3.9,6.5,8.8,6.4,14.6l-0.1,0.3h-10.9   c0-3.6-1.2-6.4-3.6-8.6c-2.4-2.1-5.6-3.2-9.5-3.2c-3.8,0-6.8,0.9-8.9,2.7c-2.1,1.8-3.1,4.1-3.1,7c0,2.6,1.1,4.8,3.4,6.5   c2.3,1.7,6,3.3,11.3,4.8c7.1,2,12.6,4.7,16.3,8.2c3.7,3.4,5.6,7.8,5.6,13.2C241.4,376.8,239.2,381.3,234.7,384.7z M307.5,359.9   c0,8.5-2.7,15.4-8.1,20.8c-5.4,5.4-12.4,8-21.1,8h-22.5v-68h22.5c8.6,0,15.6,2.7,21.1,8.1c5.4,5.4,8.1,12.3,8.1,20.8V359.9z" id="XMLID_340_"/><path d="M381.6,6.1L381.6,6.1l-245.5,0c-7.3,0-13.3,6-13.3,13.3v256.8h26.6V32.7h232.2v92.2h92.2v354.6H149.4   v-49.8h-26.6v63.1c0,7.3,6,13.3,13.3,13.3h351c7.3,0,13.3-6,13.3-13.3V124.8L381.6,6.1z" id="XMLID_339_"/><rect height="19.6" id="XMLID_338_" width="253.4" x="184.9" y="171.4"/><rect height="19.6" id="XMLID_337_" width="213.3" x="184.9" y="209.6"/></g></svg>