<?xml version="1.0" ?><svg viewBox="0 0 512 512" xmlns="http://www.w3.org/2000/svg"><defs><style>.cls-1{fill:#f5f6f7;}.cls-2{fill:#6ebab1;}.cls-3{opacity:0.5;}.cls-4{fill:#3f456b;}.cls-5{opacity:0.15;}.cls-6{fill:#fff;}.cls-7{opacity:0.7;}</style></defs><title/><g id="Colors"><polyline class="cls-1" points="301.44 69.44 492 69.44 492 441.56 301.44 441.56"/><polygon class="cls-2" points="21 64.04 301.44 13.71 301.44 497.29 21 446.96 21 64.04"/><g class="cls-3"><path class="cls-4" d="M450,389H306a5,5,0,0,1,0-10H445V133H306a5,5,0,0,1,0-10H450a5,5,0,0,1,5,5V384A5,5,0,0,1,450,389Z"/><path class="cls-4" d="M450,337.8H306a5,5,0,0,1,0-10H450a5,5,0,0,1,0,10Z"/><path class="cls-4" d="M450,286.6H306a5,5,0,0,1,0-10H450a5,5,0,0,1,0,10Z"/><path class="cls-4" d="M450,235.4H306a5,5,0,0,1,0-10H450a5,5,0,0,1,0,10Z"/><path class="cls-4" d="M450,184.2H306a5,5,0,0,1,0-10H450a5,5,0,0,1,0,10Z"/><path class="cls-4" d="M374,387a5,5,0,0,1-5-5V128a5,5,0,0,1,10,0V382A5,5,0,0,1,374,387Z"/></g><g class="cls-5"><rect class="cls-4" height="373" width="17" x="301" y="69"/></g><g class="cls-5"><polygon class="cls-4" points="301 497 284 494 284 17 301 14 301 497"/></g><g class="cls-5"><polygon class="cls-4" points="22.22 447.54 300.16 497.5 299.51 480.9 21 431.24 22.22 447.54"/></g><g class="cls-5"><polygon class="cls-6" points="22.22 63.2 300.16 13.24 299.51 29.84 21 79.5 22.22 63.2"/></g><g class="cls-7"><path class="cls-6" d="M224.34,355a5,5,0,0,1-4.05-2.06L82,162.94A5,5,0,0,1,90,157.06l138.34,190a5,5,0,0,1-4,7.94Z"/><path class="cls-6" d="M86,355a5,5,0,0,1-4-7.94l138.33-190a5,5,0,0,1,8.09,5.88L90,352.94A5,5,0,0,1,86,355Z"/></g></g><g id="Lines"><path class="cls-4" d="M301.44,502.29a4.37,4.37,0,0,1-.88-.08L20.12,451.88A5,5,0,0,1,16,447V64a5,5,0,0,1,4.12-4.92L300.56,8.79a5,5,0,0,1,5.88,4.92V497.29a5,5,0,0,1-5,5ZM26,442.77l270.44,48.54V19.69L26,68.23Z"/><path class="cls-4" d="M492,446.56H301.44a5,5,0,0,1,0-10H487V74.44H301.44a5,5,0,0,1,0-10H492a5,5,0,0,1,5,5V441.56A5,5,0,0,1,492,446.56Z"/></g></svg>