<?xml version="1.0" encoding="utf-8"?>
<!-- Generator: Adobe Illustrator 26.0.3, SVG Export Plug-In . SVG Version: 6.00 Build 0)  -->
<svg version="1.1" id="Ebene_1" xmlns="http://www.w3.org/2000/svg" xmlns:xlink="http://www.w3.org/1999/xlink" x="0px" y="0px"
	 viewBox="0 0 512 512" style="enable-background:new 0 0 512 512;" xml:space="preserve">
<style type="text/css">
	.st0{fill:#F5F6F7;}
	.st1{fill:#8BD0F7;}
	.st2{opacity:0.15;}
	.st3{fill:#3F456B;}
	.st4{fill:#FFFFFF;}
	.st5{opacity:0.7;}
</style>
<g id="Colors">
	<polyline class="st0" points="301.4,143.3 492,143.3 492,366.7 301.4,366.7 	"/>
	<polygon class="st1" points="21,64 301.4,13.7 301.4,497.3 21,447 	"/>
	<g class="st2">
		<rect x="301" y="143" class="st3" width="17" height="224"/>
	</g>
	<g class="st2">
		<rect x="301" y="350" class="st3" width="191" height="17"/>
	</g>
	<g class="st2">
		<path class="st3" d="M346,309.5l-44-44v-24l45.3,45.3l144.2-144.3L493,165L349.5,308.5l-2,2L346,309.5z"/>
	</g>
	<g class="st2">
		<polygon class="st3" points="301,497 284,494 284,17 301,14 		"/>
	</g>
	<g class="st2">
		<polygon class="st3" points="22.2,447.5 300.2,497.5 299.5,480.9 21,431.2 		"/>
	</g>
	<g class="st2">
		<polygon class="st4" points="22.2,63.2 300.2,13.2 299.5,29.8 21,79.5 		"/>
	</g>
	<g class="st5">
		<path class="st4" d="M157,360c-36.7,0-54.1-19.5-62.2-35.8c-5.4-11-8.4-23-8.8-35.2v-66c0.4-12.2,3.4-24.2,8.8-35.2
			c8.2-16.3,25.6-35.8,62.2-35.8s54.1,19.4,62.2,35.8c5.4,11,8.4,23,8.8,35.2v66c-0.4,12.2-3.4,24.2-8.8,35.2
			C211.1,340.5,193.6,360,157,360z M157,162c-60.1,0-61,58.5-61,61v66c0,2.5,0.9,61,61,61s61-58.5,61-61v-66
			C218,220.5,217.1,162,157,162z M223,289L223,289z"/>
	</g>
</g>
<g id="Lines">
	<path class="st3" d="M301.4,502.3c-0.3,0-0.6,0-0.9-0.1L20.1,451.9c-2.4-0.4-4.1-2.5-4.1-4.9V64c0-2.4,1.7-4.5,4.1-4.9L300.6,8.8
		c2.7-0.5,5.3,1.3,5.8,4c0.1,0.3,0.1,0.6,0.1,0.9v483.6C306.4,500.1,304.2,502.3,301.4,502.3z M26,442.8l270.4,48.5V19.7L26,68.2
		V442.8z"/>
	<path class="st3" d="M492,371.7H301.4c-2.8,0-5-2.2-5-5s2.2-5,5-5H487V148.3H301.4c-2.8,0-5-2.2-5-5s2.2-5,5-5H492c2.8,0,5,2.2,5,5
		v223.5C497,369.5,494.8,371.7,492,371.7z"/>
	<path class="st3" d="M348,292c-1.3,0-2.6-0.5-3.5-1.5l-44.8-44.8c-1.9-2-1.9-5.2,0.1-7.1c1.9-1.9,5-1.9,6.9,0l41.2,41.2
		l139.5-139.5c2-2,5.1-2,7.1,0c2,2,2,5.1,0,7.1l-143,143C350.6,291.5,349.3,292,348,292z"/>
</g>
</svg>
