<?xml version="1.0" ?><!DOCTYPE svg  PUBLIC '-//W3C//DTD SVG 1.1//EN'  'http://www.w3.org/Graphics/SVG/1.1/DTD/svg11.dtd'><svg height="512px" style="enable-background:new 0 0 512 512;" version="1.1" viewBox="0 0 512 512" width="512px" xml:space="preserve" xmlns="http://www.w3.org/2000/svg" xmlns:xlink="http://www.w3.org/1999/xlink"><g id="comp_x5F_14-Allo"><g><g><g><path d="M271.907,36.604c-63.705-4.621-126.064,18.748-171.038,63.843      C55.9,145.538,32.674,208.042,37.17,271.915c8.063,114.417,107.521,204.058,226.453,204.058h184.334      c15.139,0,27.423-12.322,27.423-27.5V263.644C475.38,144.389,385.984,44.659,271.907,36.604z" style="fill:#F4B914;"/><path d="M447.957,485.973H263.623c-124.145,0-227.997-93.717-236.428-213.354      C22.496,205.86,46.769,140.532,93.789,93.385c21.43-21.488,46.496-38.272,74.501-49.887      c27.953-11.592,57.469-17.47,87.729-17.47c5.516,0,11.104,0.203,16.611,0.602c119.29,8.424,212.749,112.533,212.749,237.014      v184.829C485.38,469.15,468.592,485.973,447.957,485.973z M256.02,46.028c-55.945,0-108.531,21.834-148.069,61.48      c-42.935,43.051-65.097,102.719-60.804,163.705c7.696,109.211,102.785,194.76,216.477,194.76h184.334      c9.607,0,17.423-7.851,17.423-17.5V263.644c0-114.03-85.293-209.376-194.177-217.065      C266.156,46.213,261.055,46.028,256.02,46.028z" style="fill:#B78B0F;"/></g><g><path d="M365.693,352.232c0,5.555-3.35,10.59-8.474,12.704c-1.673,0.687-3.488,1.045-5.24,1.045      c-3.565,0-7.073-1.4-9.705-4.015l-19.086-19.133c-19.006,15.009-42.425,23.147-67.19,23.147      c-60.489,0-109.687-49.327-109.687-109.985c0-60.655,49.198-109.987,109.687-109.987c60.494,0,109.695,49.332,109.695,109.987      V352.232z" style="fill:#FFFFFF;"/><g><path d="M351.979,375.981c-6.311,0-12.26-2.458-16.752-6.92l-13.067-13.099       c-19.455,13.126-42.148,20.019-66.162,20.019c-65.995,0-119.687-53.825-119.687-119.985       c0-66.161,53.691-119.987,119.687-119.987c66,0,119.695,53.826,119.695,119.987v96.236c0,9.658-5.754,18.273-14.659,21.948       C358.157,375.361,355.032,375.981,351.979,375.981z M323.186,332.834c2.576,0,5.141,0.991,7.083,2.938l19.086,19.133       c0.677,0.673,1.646,1.077,2.625,1.077c0.459,0,0.985-0.108,1.443-0.296c1.352-0.558,2.271-1.948,2.271-3.453v-96.236       c0-55.133-44.723-99.987-99.695-99.987c-54.967,0-99.687,44.854-99.687,99.987c0,55.132,44.719,99.985,99.687,99.985       c22.508,0,43.599-7.26,60.993-20.995C318.817,333.544,321.006,332.834,323.186,332.834z" style="fill:#BFBFBF;"/></g></g></g></g></g><g id="Layer_1"/></svg>