<?xml version="1.0" ?><!DOCTYPE svg  PUBLIC '-//W3C//DTD SVG 1.1//EN'  'http://www.w3.org/Graphics/SVG/1.1/DTD/svg11.dtd'><svg height="512px" style="enable-background:new 0 0 512 512;" version="1.1" viewBox="0 0 512 512" width="512px" xml:space="preserve" xmlns="http://www.w3.org/2000/svg" xmlns:xlink="http://www.w3.org/1999/xlink"><g id="comp_x5F_18-analytics"><g><g><g><path d="M313.328,471.622V169.75H183.385c-7.913,0-14.334,6.439-14.334,14.377v129.374H40.849      c-7.917,0-14.339,6.438-14.339,14.373v143.748c0,7.934,6.422,14.377,14.339,14.377h142.536h0.822h142.54      c0.155,0,0.306-0.019,0.46-0.023C319.504,485.729,313.328,479.399,313.328,471.622z" style="fill:#FFC515;"/><g><path d="M326.747,495.999H40.849c-13.42,0-24.339-10.936-24.339-24.377V327.874       c0-13.439,10.918-24.373,24.339-24.373h118.202V184.127c0-13.441,10.916-24.377,24.334-24.377h129.943c5.522,0,10,4.477,10,10       v301.872c0,2.369,1.844,4.283,4.198,4.358c5.396,0.173,9.681,4.597,9.681,9.995c0,5.348-4.205,9.739-9.528,9.989       C327.355,495.986,327.054,495.999,326.747,495.999z M40.849,323.501c-2.393,0-4.339,1.962-4.339,4.373v143.748       c0,2.413,1.946,4.377,4.339,4.377h262.865c-0.254-1.419-0.386-2.882-0.386-4.377V179.75H183.385       c-2.39,0-4.334,1.963-4.334,4.377v129.374c0,5.522-4.477,10-10,10H40.849z" style="fill:#BF9410;"/></g></g><g><path d="M471.152,26.001H327.795c-7.919,0-14.34,6.439-14.34,14.379v129.37v301.872      c0,7.777,6.176,14.107,13.88,14.354c0.154,0.005,0.305,0.023,0.46,0.023h143.357c7.914,0,14.338-6.443,14.338-14.377V40.38      C485.49,32.44,479.068,26.001,471.152,26.001z" style="fill:#F57E02;"/><g><path d="M471.152,495.999H327.795c-0.307,0-0.608-0.013-0.91-0.033       c-13.149-0.488-23.43-11.156-23.43-24.344V40.38c0-13.442,10.919-24.379,24.34-24.379h143.357       c13.42,0,24.338,10.937,24.338,24.379v431.242C495.49,485.063,484.572,495.999,471.152,495.999z M328.043,475.999h143.109       c2.392,0,4.338-1.964,4.338-4.377V40.38c0-2.415-1.946-4.379-4.338-4.379H327.795c-2.393,0-4.34,1.964-4.34,4.379v431.242       c0,2.369,1.845,4.283,4.199,4.358C327.784,475.984,327.913,475.991,328.043,475.999z" style="fill:#B85F02;"/></g></g></g></g></g><g id="Layer_1"/></svg>