<?xml version="1.0" ?><!DOCTYPE svg  PUBLIC '-//W3C//DTD SVG 1.1//EN'  'http://www.w3.org/Graphics/SVG/1.1/DTD/svg11.dtd'><svg height="512px" style="enable-background:new 0 0 512 512;" version="1.1" viewBox="0 0 512 512" width="512px" xml:space="preserve" xmlns="http://www.w3.org/2000/svg" xmlns:xlink="http://www.w3.org/1999/xlink"><g id="comp_x5F_21-angular"><g><g><g><path d="M216.879,268.426h78.241L256,174.372L216.879,268.426L216.879,268.426z M256,26.001      L42.635,102.395l32.652,283.081L256,485.999l180.712-100.523l32.653-283.081L256,26.001z M389.688,376.957h-49.904l-26.9-67.153      H199.321l-26.903,67.153h-50.003L256,76.827L389.688,376.957z" style="fill:#DD0031;"/><path d="M256,495.999c-1.675,0-3.35-0.42-4.861-1.261L70.425,394.215      c-2.815-1.566-4.704-4.393-5.073-7.594L32.701,103.541c-0.533-4.618,2.187-8.994,6.563-10.561l213.365-76.394      c2.179-0.78,4.562-0.78,6.742,0L472.736,92.98c4.376,1.567,7.096,5.942,6.563,10.561l-32.653,283.081      c-0.369,3.201-2.258,6.027-5.073,7.594L260.861,494.738C259.35,495.579,257.675,495.999,256,495.999z M84.633,379.231      L256,474.556l171.366-95.324l31.155-270.098L256,36.623L53.479,109.134L84.633,379.231z M389.688,386.957h-49.904      c-4.087,0-7.763-2.487-9.283-6.281l-24.384-60.872H206.087l-24.387,60.872c-1.52,3.794-5.196,6.281-9.283,6.281h-50.003      c-3.386,0-6.542-1.714-8.386-4.553c-1.845-2.84-2.126-6.42-0.75-9.514l133.585-300.13c1.606-3.608,5.185-5.933,9.134-5.934      c3.95,0,7.529,2.323,9.136,5.931l133.688,300.129c1.378,3.094,1.097,6.675-0.748,9.515      C396.23,385.243,393.074,386.957,389.688,386.957z M346.55,366.957h27.736L256.003,101.412L137.812,366.957h27.84l24.387-60.872      c1.52-3.794,5.196-6.281,9.283-6.281h113.562c4.087,0,7.763,2.487,9.283,6.281L346.55,366.957z M295.12,278.426h-78.241      c-3.342,0-6.464-1.67-8.319-4.45s-2.198-6.304-0.915-9.391l39.121-94.053c1.552-3.729,5.194-6.16,9.233-6.16      s7.682,2.43,9.233,6.16l39.12,94.053c1.283,3.087,0.94,6.61-0.915,9.391C301.584,276.756,298.463,278.426,295.12,278.426z       M231.869,258.426h48.261L256,200.411L231.869,258.426z" style="fill:#A60025;"/></g></g></g></g><g id="Layer_1"/></svg>