<?xml version="1.0" ?><!DOCTYPE svg  PUBLIC '-//W3C//DTD SVG 1.1//EN'  'http://www.w3.org/Graphics/SVG/1.1/DTD/svg11.dtd'><svg height="512px" style="enable-background:new 0 0 512 512;" version="1.1" viewBox="0 0 512 512" width="512px" xml:space="preserve" xmlns="http://www.w3.org/2000/svg" xmlns:xlink="http://www.w3.org/1999/xlink"><g id="comp_x5F_26-app-store"><g><g><g><circle cx="256" cy="256" r="220" style="fill:#0099E5;"/><path d="M256,486c-61.435,0-119.193-23.924-162.634-67.365C49.924,375.193,26,317.436,26,256      c0-61.435,23.924-119.193,67.366-162.634C136.807,49.924,194.565,26,256,26c61.436,0,119.193,23.924,162.635,67.366      C462.076,136.807,486,194.565,486,256c0,61.436-23.924,119.193-67.365,162.635S317.436,486,256,486z M256,46      C140.206,46,46,140.206,46,256c0,115.794,94.206,210,210,210c115.794,0,210-94.206,210-210C466,140.206,371.794,46,256,46z" style="fill:#0073AC;"/></g><g><g><path d="M255.443,134.811l8.439-14.561c5.192-9.088,16.786-12.149,25.875-6.955       c9.089,5.193,12.148,16.786,6.956,25.875l-81.15,140.503h58.707c19.012,0,29.678,22.352,21.422,37.838H123.658       c-10.48,0-18.919-8.439-18.919-18.918c0-10.48,8.439-18.92,18.919-18.92h48.225l61.766-107.024l-19.291-33.479       c-5.192-9.089-2.133-20.588,6.955-25.875c9.089-5.194,20.589-2.133,25.876,6.955L255.443,134.811L255.443,134.811z" style="fill:#FFFFFF;"/><path d="M301.693,327.511H123.658c-15.946,0-28.919-12.973-28.919-28.918       c0-15.946,12.973-28.92,28.919-28.92h42.451l55.997-97.028l-16.412-28.483c-7.894-13.816-3.134-31.527,10.591-39.511       c4.466-2.552,9.451-3.881,14.482-3.881c10.081,0,19.516,5.33,24.767,13.949c5.158-8.6,14.596-13.949,24.75-13.949       c5.044,0,10.036,1.329,14.436,3.843c13.823,7.898,18.613,25.626,10.677,39.517l-72.509,125.543h41.383       c11.754,0,22.527,6.26,28.82,16.745c6.699,11.164,7.246,24.881,1.426,35.797L301.693,327.511z M123.658,289.673       c-4.918,0-8.919,4.001-8.919,8.92c0,4.917,4.001,8.918,8.919,8.918h164.778c0.359-3.588-0.487-7.457-2.494-10.801       c-1.577-2.628-5.19-7.037-11.671-7.037H198.24l89.815-155.505c2.442-4.275,0.991-9.763-3.258-12.19       c-1.402-0.802-2.921-1.208-4.513-1.208c-3.244,0-6.13,1.66-7.719,4.441l-17.219,29.708l-16.824-29.68       c-1.646-2.799-4.542-4.469-7.755-4.469c-1.579,0-3.09,0.406-4.492,1.208c-4.272,2.486-5.722,7.875-3.233,12.232l22.151,38.444       l-67.535,117.02H123.658z" style="fill:#0073AC;"/></g><g><path d="M182.456,336.988l-18.177,31.532c-5.194,9.088-16.787,12.147-25.875,6.955       c-9.089-5.194-12.149-16.786-6.956-25.875l13.54-23.372C160.198,321.501,172.625,325.116,182.456,336.988L182.456,336.988z" style="fill:#FFFFFF;"/><path d="M147.876,388c-5.043,0-10.034-1.328-14.434-3.842c-13.825-7.9-18.615-25.629-10.677-39.52       l15.526-26.801l3.728-1.159c5.256-1.633,10.386-2.461,15.248-2.461c12.817,0,23.883,5.515,32.891,16.393l4.432,5.352       l-21.647,37.553C167.843,382.438,158.231,388,147.876,388z M151.555,334.842l-11.454,19.771       c-2.437,4.265-0.985,9.751,3.265,12.18c1.381,0.79,2.941,1.207,4.511,1.207c3.245,0,6.131-1.66,7.72-4.441l14.37-24.928       C164.681,334.503,158.829,333.334,151.555,334.842z" style="fill:#0073AC;"/></g><g><path d="M339.096,279.766h49.247c10.479,0,18.919,8.44,18.919,18.918       c0,10.483-8.439,18.921-18.919,18.921h-27.36l18.457,31.996c5.193,9.089,2.133,20.59-6.958,25.875       c-9.088,5.192-20.586,2.133-25.874-6.955c-31.067-53.884-54.439-94.226-69.926-121.122       c-15.858-27.357-4.547-54.81,6.676-64.083C295.787,204.645,314.334,236.827,339.096,279.766L339.096,279.766z" style="fill:#FFFFFF;"/><path d="M363.03,388c-10.274,0.001-19.879-5.536-25.066-14.45       c-16.374-28.399-30.595-53.011-42.656-73.884c-10.853-18.782-19.957-34.538-27.292-47.278       c-18.542-31.988-5.611-64.732,8.972-76.782l9.08-7.503l5.93,10.177c11.432,19.616,28.386,49.017,49.85,86.238l3.026,5.247       h43.47c15.946,0,28.919,12.973,28.919,28.918c0,15.947-12.973,28.921-28.919,28.921h-10.047l9.806,16.999       c7.898,13.823,3.137,31.534-10.594,39.518C373.044,386.671,368.061,388,363.03,388z M282.448,201.652       c-4.381,10.22-5.977,25.443,2.885,40.731c7.346,12.758,16.445,28.505,27.292,47.276c12.063,20.878,26.288,45.495,42.646,73.866       c1.623,2.789,4.531,4.475,7.759,4.475c1.578,0,3.09-0.406,4.491-1.207c4.275-2.486,5.726-7.875,3.236-12.231l-27.088-46.957       h44.674c4.918,0,8.919-4.002,8.919-8.921c0-4.917-4.001-8.918-8.919-8.918h-55.023l-8.798-15.256       C307.48,244.959,293.284,220.34,282.448,201.652z" style="fill:#0073AC;"/></g></g></g></g></g><g id="Layer_1"/></svg>