<?xml version="1.0" ?><!DOCTYPE svg  PUBLIC '-//W3C//DTD SVG 1.1//EN'  'http://www.w3.org/Graphics/SVG/1.1/DTD/svg11.dtd'><svg height="512px" style="enable-background:new 0 0 512 512;" version="1.1" viewBox="0 0 512 512" width="512px" xml:space="preserve" xmlns="http://www.w3.org/2000/svg" xmlns:xlink="http://www.w3.org/1999/xlink"><g id="comp_x5F_27-artstation"><g><g><g><path d="M48.686,355.058l35.086,60.626c6.937,13.708,21.051,23.091,37.452,23.091h232.875l-48.305-83.717      H48.686z M456.501,332.701l-135.612-237.2c-7.018-13.218-20.97-22.275-37.045-22.275h-72.131l209.946,365.222l33.209-57.524      C456.419,378.313,472.004,356.688,456.501,332.701z M271.441,295.573l-94.242-163.189L82.955,295.573H271.441z" style="fill:#0099E5;"/><path d="M354.099,448.774H121.224c-19.587,0-37.278-10.842-46.241-28.313L40.03,360.066      c-1.79-3.094-1.793-6.908-0.007-10.004c1.786-3.097,5.088-5.005,8.663-5.005h257.108c3.573,0,6.876,1.907,8.661,5.002      l48.305,83.717c1.786,3.095,1.785,6.906-0.002,9.999C360.972,446.869,357.671,448.774,354.099,448.774z M66.027,365.058      l26.4,45.617c0.094,0.162,0.183,0.326,0.268,0.494c5.495,10.859,16.427,17.605,28.529,17.605h215.56l-36.765-63.717H66.027z       M421.659,448.447c-0.003,0-0.006,0-0.009,0c-3.576-0.003-6.879-1.916-8.661-5.017L203.043,78.209      c-1.779-3.095-1.773-6.902,0.014-9.992c1.788-3.089,5.086-4.992,8.656-4.992h72.131c19.209,0,36.743,10.511,45.8,27.441      l135.41,236.846c11.522,18.016,11.042,38.659-1.361,58.16l-0.225,0.355l-33.148,57.419      C428.533,446.541,425.231,448.447,421.659,448.447z M228.996,83.226l192.682,335.188l24.53-42.491      c0.021-0.036,0.042-0.072,0.063-0.109c0.124-0.207,0.308-0.501,0.545-0.874c8.253-12.976,8.686-25.36,1.286-36.811      c-0.099-0.152-0.193-0.307-0.283-0.465l-135.612-237.2c-0.052-0.091-0.102-0.182-0.15-0.274      c-5.556-10.464-16.366-16.965-28.213-16.965H228.996z M271.441,305.573H82.955c-3.573,0-6.875-1.906-8.661-5.001      c-1.786-3.094-1.786-6.906,0.001-10l94.244-163.189c1.787-3.093,5.087-4.999,8.66-4.999s6.873,1.906,8.66,4.999l94.243,163.189      c1.786,3.094,1.787,6.906,0,10.001C278.315,303.667,275.015,305.573,271.441,305.573z M100.278,285.573h153.841L177.199,152.38      L100.278,285.573z" style="fill:#0073AC;"/></g></g></g></g><g id="Layer_1"/></svg>