<?xml version="1.0" ?><!DOCTYPE svg  PUBLIC '-//W3C//DTD SVG 1.1//EN'  'http://www.w3.org/Graphics/SVG/1.1/DTD/svg11.dtd'><svg height="512px" style="enable-background:new 0 0 512 512;" version="1.1" viewBox="0 0 512 512" width="512px" xml:space="preserve" xmlns="http://www.w3.org/2000/svg" xmlns:xlink="http://www.w3.org/1999/xlink"><g id="comp_x5F_31-audible"><g><g><g><path d="M346.203,255.072l33.853-21.133c-26.737-40.106-72.378-66.555-124.128-66.555      s-97.391,26.377-124.056,66.412h0.216c1.797-1.653,3.666-3.234,5.535-4.816C202.094,175.505,295.314,187.221,346.203,255.072z" style="fill:#F15C22;"/><g><path d="M346.21,265.072c-3.053,0-6.053-1.396-8.007-4c-26.521-35.363-66.185-55.644-108.819-55.644       c-31.208,0-60.73,10.806-85.377,31.248c-1.807,1.53-3.524,2.984-5.148,4.478c-1.846,1.698-4.263,2.641-6.771,2.641h-0.216       c-3.687,0-7.075-2.029-8.816-5.279c-1.74-3.251-1.551-7.195,0.493-10.264c29.556-44.375,79.043-70.868,132.378-70.868       c53.293,0,102.807,26.545,132.448,71.008c1.5,2.25,2.025,5.011,1.455,7.655c-0.57,2.643-2.187,4.943-4.479,6.375       l-33.853,21.133C349.857,264.579,348.024,265.072,346.21,265.072z M229.384,185.428c46,0,88.917,20.453,119.098,56.432       l17.217-10.748c-26.314-33.82-66.63-53.729-109.771-53.729c-18.306,0-36.091,3.569-52.508,10.252       C211.918,186.171,220.593,185.428,229.384,185.428z" style="fill:#001433;"/></g></g><g><path d="M110.344,169.72c94.73-74.967,228.706-54.913,300.077,44.633l0.503,0.719l35.075-21.849      c-38.453-58.722-104.794-97.535-180.19-97.535c-74.39,0-141.305,38.453-180.046,97.462      C92.879,185.604,102.079,176.26,110.344,169.72z" style="fill:#F0B310;"/><g><path d="M410.932,225.073c-3.162,0-6.263-1.498-8.201-4.268l-0.471-0.672       c-39.104-54.51-98.606-85.774-163.257-85.774c-44.395,0-86.739,14.939-122.454,43.203       c-6.208,4.912-13.898,12.254-23.511,22.449c-3.556,3.772-9.404,4.199-13.474,0.987c-4.068-3.213-5.006-9.002-2.161-13.336       c20.173-30.728,47.903-56.362,80.192-74.132c33.096-18.214,70.515-27.842,108.213-27.842       c76.221,0,146.709,38.152,188.557,102.056c1.475,2.252,1.979,5.003,1.399,7.631s-2.194,4.912-4.479,6.335l-35.075,21.849       C414.569,224.583,412.74,225.073,410.932,225.073z M239.003,114.359c34.079,0,68.247,8.301,98.81,24.006       c29.519,15.168,54.937,36.452,75.661,63.336l18.343-11.426c-38.655-53.155-99.973-84.588-166.008-84.588       c-25.977,0-51.236,4.884-74.677,14.055C206.711,116.175,222.728,114.359,239.003,114.359z" style="fill:#001433;"/></g></g><g><polygon points="256.001,364.572 26.001,220.823 26.001,272.635 256.001,416.313 485.999,272.563       485.999,220.75     " style="fill:#FFFFFF;"/><g><path d="M256.001,426.313c-1.839,0-3.677-0.506-5.298-1.519l-230-143.678       c-2.925-1.827-4.702-5.033-4.702-8.481v-51.812c0-3.635,1.973-6.984,5.152-8.747c3.18-1.763,7.065-1.66,10.147,0.267       L256,352.779l224.698-140.508c3.082-1.928,6.967-2.031,10.148-0.269c3.18,1.762,5.153,5.111,5.153,8.747v51.813       c0,3.448-1.776,6.652-4.7,8.48l-229.998,143.75C259.68,425.806,257.84,426.313,256.001,426.313z M36.001,267.091L256,404.521       l220-137.5v-28.223L261.303,373.051c-3.241,2.029-7.357,2.028-10.602,0.002l-214.7-134.188V267.091z" style="fill:#001433;"/></g></g><g><path d="M180.012,274.299c12.148-8.553,26.234-13.441,41.257-13.441c24.725,0,46.861,13.227,62.1,34.215      l32.631-20.414c-15.022-21.491-39.962-35.579-68.137-35.579C219.903,239.079,195.106,253.025,180.012,274.299z" style="fill:#98005D;"/><g><path d="M283.376,305.073c-3.104,0-6.152-1.443-8.1-4.126c-13.884-19.122-33.569-30.09-54.008-30.09       c-12.428,0-24.704,4.018-35.5,11.618c-3.981,2.802-9.404,2.332-12.841-1.119c-3.437-3.449-3.89-8.873-1.072-12.845       c17.52-24.691,45.934-39.433,76.006-39.433c30.354,0,58.891,14.897,76.333,39.85c1.57,2.247,2.149,5.039,1.603,7.725       s-2.172,5.029-4.495,6.482l-32.631,20.414C287.027,304.579,285.191,305.073,283.376,305.073z M229.928,251.341       c20.897,2.34,40.529,13.096,55.7,30.521l15.498-9.695c-13.732-14.61-32.983-23.088-53.264-23.088       C241.755,249.079,235.737,249.854,229.928,251.341z" style="fill:#001433;"/></g></g></g></g></g><g id="Layer_1"/></svg>