<?xml version="1.0" ?><!DOCTYPE svg  PUBLIC '-//W3C//DTD SVG 1.1//EN'  'http://www.w3.org/Graphics/SVG/1.1/DTD/svg11.dtd'><svg height="512px" style="enable-background:new 0 0 512 512;" version="1.1" viewBox="0 0 512 512" width="512px" xml:space="preserve" xmlns="http://www.w3.org/2000/svg" xmlns:xlink="http://www.w3.org/1999/xlink"><g id="comp_x5F_33-autoprefixer"><g><g><g><polygon points="255.85,83.5 140.132,428.5 195.835,428.5 214.092,369.994 299.98,369.994 318.094,428.5       373.797,428.5     " style="fill:#DD3735;"/><path d="M373.797,438.5h-55.703c-4.384,0-8.256-2.855-9.553-7.043l-15.933-51.463h-71.162l-16.065,51.484      c-1.303,4.177-5.17,7.021-9.546,7.021h-55.703c-3.218,0-6.239-1.549-8.118-4.16c-1.879-2.612-2.386-5.969-1.363-9.02      l115.718-345c1.363-4.064,5.165-6.808,9.452-6.82c0.009,0,0.02,0,0.029,0c4.274,0,8.078,2.718,9.462,6.765l117.946,344.999      c1.045,3.055,0.55,6.426-1.327,9.052C380.055,436.941,377.024,438.5,373.797,438.5z M325.466,418.5h34.344L255.94,114.677      L154.034,418.5h34.446l16.065-51.484c1.303-4.177,5.17-7.021,9.546-7.021h85.889c4.384,0,8.256,2.855,9.553,7.043L325.466,418.5      z" style="fill:#A62928;"/></g><polygon points="226.885,329.24 256.497,235.515 257.576,235.515 286.971,329.24    " style="fill:#A62928;"/><g><polygon points="481,363.094 473.812,340.523 381,329.311 401,369.92     " style="fill:#DD3735;"/><path d="M400.997,379.92c-3.783,0-7.275-2.145-8.968-5.582l-20-40.609      c-1.622-3.292-1.31-7.208,0.813-10.201c2.123-2.994,5.717-4.591,9.357-4.145l92.812,11.213c3.887,0.47,7.142,3.163,8.329,6.893      l7.188,22.57c0.923,2.898,0.478,6.059-1.212,8.588c-1.688,2.529-4.437,4.152-7.466,4.411l-80,6.826      C401.564,379.908,401.279,379.92,400.997,379.92z M398.127,341.452l8.827,17.924l60.717-5.182l-1.438-4.514L398.127,341.452z" style="fill:#A62928;"/></g><g><polygon points="131,329.311 38.188,340.598 31,363.094 111,369.85     " style="fill:#DD3735;"/><path d="M111.003,379.85c-0.28,0-0.562-0.012-0.845-0.035l-80-6.756      c-3.034-0.257-5.785-1.881-7.476-4.412c-1.69-2.532-2.135-5.696-1.208-8.597l7.188-22.496c1.189-3.723,4.438-6.411,8.318-6.883      l92.812-11.287c3.645-0.441,7.24,1.147,9.365,4.143c2.124,2.996,2.435,6.915,0.81,10.209l-20,40.539      C118.274,377.708,114.784,379.85,111.003,379.85z M44.345,354.186l60.704,5.126l8.802-17.842l-68.089,8.28L44.345,354.186z" style="fill:#A62928;"/></g></g></g></g><g id="Layer_1"/></svg>