<?xml version="1.0" ?><!DOCTYPE svg  PUBLIC '-//W3C//DTD SVG 1.1//EN'  'http://www.w3.org/Graphics/SVG/1.1/DTD/svg11.dtd'><svg height="512px" style="enable-background:new 0 0 512 512;" version="1.1" viewBox="0 0 512 512" width="512px" xml:space="preserve" xmlns="http://www.w3.org/2000/svg" xmlns:xlink="http://www.w3.org/1999/xlink"><g id="comp_x5F_37-basecamp"><g><g><path d="M330.891,340.445c7.27,0,13.17,5.989,13.17,13.369c0,7.381-5.9,13.381-13.17,13.381     c-7.271,0-13.17-5.99-13.17-13.381C317.721,346.435,323.62,340.445,330.891,340.445z" style="fill:#050708;"/><path d="M181.1,340.295c7.36,0,13.32,6.06,13.32,13.52c0,7.48-5.96,13.53-13.32,13.53     c-7.35,0-13.32-6.05-13.32-13.53C167.78,346.345,173.75,340.295,181.1,340.295z" style="fill:#050708;"/><path d="M256,51.705c123.82,0,220.83,159.91,230,295c-38.84,68.43-132.57,113.59-230,113.59     s-191.16-45.16-230-113.59C35.17,211.615,132.17,51.705,256,51.705z M454,320.295c0,0-15.59-49.56-54.66-100.69     c-20.67-27.08-45.699-55.35-65.34-67.31c-6.17-3.76-11.8-5.91-16.6-5.91c-20.09,0-76.24,100.92-102,100.92     c-25.76,0-39.16-45.95-70.84-45.75c-10.79,0.06-21.52,8.16-31.56,20.27c-30.09,36.331-53.88,108.76-53.88,108.76     S85,425.295,264,420.295C439.57,415.395,454,320.295,454,320.295z" style="fill:#B9DDF6;"/><path d="M399.34,219.605c39.07,51.13,54.66,100.69,54.66,100.69s-14.43,95.1-190,100     c-179,5-204.88-89.71-204.88-89.71s23.79-72.43,53.88-108.76l2.12,0.14c20.16,0.69,45.17,36.85,52.27,52.67     c3.95,8.8,9.57,20.3,17.75,29.62c8.17,9.31,18.92,16.42,33.13,16.42c35.2,0,109.621-130.03,115.52-168.05l0.21-0.33     C353.641,164.255,378.67,192.525,399.34,219.605z M344.061,353.814c0-7.38-5.9-13.369-13.17-13.369     c-7.271,0-13.17,5.989-13.17,13.369c0,7.391,5.899,13.381,13.17,13.381C338.16,367.195,344.061,361.195,344.061,353.814z      M194.42,353.814c0-7.46-5.96-13.52-13.32-13.52c-7.35,0-13.32,6.05-13.32,13.52c0,7.48,5.97,13.53,13.32,13.53     C188.46,367.345,194.42,361.295,194.42,353.814z" style="fill:#6FC167;"/><path d="M334,152.295l-0.21,0.33c-5.899,38.02-80.32,168.05-115.52,168.05     c-14.21,0-24.96-7.11-33.13-16.42c-8.18-9.32-13.8-20.82-17.75-29.62c-7.1-15.82-32.11-51.98-52.27-52.67l-2.12-0.14     c10.04-12.11,20.77-20.21,31.56-20.27c31.68-0.2,45.08,45.75,70.84,45.75c25.76,0,81.911-100.92,102-100.92     C322.2,146.385,327.83,148.535,334,152.295z" style="fill:#22AF4B;"/><path d="M256,470.295c-102.489,0-198.415-47.684-238.697-118.653c-0.968-1.705-1.413-3.657-1.28-5.613     c4.72-69.539,32.332-145.546,73.86-203.319C136.702,77.576,195.697,41.705,256,41.705c60.299,0,119.293,35.871,166.113,101.004     c41.531,57.774,69.144,133.781,73.863,203.319c0.133,1.956-0.313,3.908-1.279,5.613C454.415,422.611,358.49,470.295,256,470.295z      M36.197,344.353C73.911,407.838,161.747,450.295,256,450.295c94.254,0,182.09-42.457,219.803-105.942     C465.427,210.283,369.967,61.705,256,61.705C142.033,61.705,46.573,210.283,36.197,344.353z" style="fill:#8BA6B9;"/><path d="M181.1,377.345c-12.858,0-23.32-10.556-23.32-23.53c0-12.969,10.461-23.52,23.32-23.52s23.32,10.551,23.32,23.52     C204.42,366.789,193.958,377.345,181.1,377.345z M181.1,350.295c-1.831,0-3.32,1.579-3.32,3.52c0,1.946,1.489,3.53,3.32,3.53     s3.32-1.584,3.32-3.53C184.42,351.874,182.931,350.295,181.1,350.295z"/><path d="M330.891,377.195c-12.776,0-23.17-10.488-23.17-23.381c0-12.886,10.394-23.369,23.17-23.369     c12.775,0,23.17,10.483,23.17,23.369C354.061,366.707,343.666,377.195,330.891,377.195z M330.891,350.445     c-1.748,0-3.17,1.512-3.17,3.369c0,1.864,1.422,3.381,3.17,3.381s3.17-1.517,3.17-3.381     C334.061,351.957,332.639,350.445,330.891,350.445z"/><path d="M253.065,399.395c-20.889,0-34.488-10.629-35.325-11.301c-4.307-3.457-4.997-9.751-1.54-14.059     c3.44-4.286,9.689-4.99,13.996-1.589c0.961,0.738,20.885,15.557,48.745-0.777c4.764-2.794,10.891-1.197,13.686,3.567     c2.793,4.765,1.195,10.892-3.568,13.685C275.702,396.753,263.478,399.395,253.065,399.395z"/><path d="M250.491,430.486c-39.108,0-73.892-4.894-103.386-14.543     c-23.999-7.852-44.607-18.861-61.254-32.724c-29.075-24.21-36.093-48.958-36.377-50c-0.517-1.892-0.466-3.893,0.146-5.755     c0.995-3.031,24.737-74.659,55.679-112.019c13.269-16.005,26.093-23.818,39.206-23.892l0.262,0     c20.977,0,34.528,14.809,46.484,27.875c8.412,9.193,16.358,17.876,24.15,17.876c0.198-0.002,5.015-0.221,18.516-14.52     c9.538-10.102,20.146-23.67,30.404-36.792c25.485-32.598,39.42-49.608,53.081-49.608c6.532,0,13.664,2.411,21.803,7.371     c24.096,14.673,53,50.019,68.086,69.782c39.677,51.924,55.592,101.665,56.25,103.756c0.457,1.454,0.576,2.994,0.348,4.501     c-0.168,1.108-4.438,27.455-32.145,53.896c-15.831,15.109-36.195,27.32-60.525,36.293     c-29.823,10.999-65.803,17.158-106.938,18.307C259.645,430.421,255.005,430.486,250.491,430.486z M69.707,330.52     c2.485,6.134,10.444,22.319,30.161,38.334c23.382,18.992,68.495,41.633,150.624,41.633c4.329,0,8.779-0.063,13.229-0.188     c86.4-2.411,130.92-27.424,153.053-47.981c19.197-17.833,25.262-35.496,26.855-41.47c-3.661-10.423-19.609-52.474-52.234-95.171     c-24.223-31.734-47.037-55.366-62.596-64.841c-5.816-3.544-9.253-4.33-10.967-4.437c-0.98,0.4-4.854,2.474-13.867,12.531     c-7.189,8.022-15.302,18.397-23.889,29.382c-28.697,36.706-47.37,58.993-64.676,58.993c-16.6,0-27.939-12.391-38.904-24.374     c-10.06-10.993-19.562-21.376-31.729-21.376l-0.143,0c-6.653,0.037-14.923,5.795-23.925,16.652     C95.639,258.465,74.625,316.348,69.707,330.52z" style="fill:#53914D;"/></g></g></g><g id="Layer_1"/></svg>