<?xml version="1.0" ?><!DOCTYPE svg  PUBLIC '-//W3C//DTD SVG 1.1//EN'  'http://www.w3.org/Graphics/SVG/1.1/DTD/svg11.dtd'><svg height="512px" style="enable-background:new 0 0 512 512;" version="1.1" viewBox="0 0 512 512" width="512px" xml:space="preserve" xmlns="http://www.w3.org/2000/svg" xmlns:xlink="http://www.w3.org/1999/xlink"><g id="comp_x5F_39-behance"><g><g><g><path d="M206.729,242.064c23.634-11.297,35.971-28.391,35.971-54.999      c0-52.471-39.093-65.255-84.207-65.255H36.769v263.4h125.219c47.863,0,92.829-22.967,92.829-76.479      C254.817,275.658,239.133,251.207,206.729,242.064L206.729,242.064z" style="fill:#115EFA;"/><g><path d="M161.988,395.211H36.769c-5.523,0-10-4.478-10-10v-263.4c0-5.523,4.477-10,10-10h121.725       c27.896,0,48.952,4.743,64.369,14.501c19.799,12.531,29.838,32.972,29.838,60.754c0,22.649-7.935,40.209-24.152,53.213       c23.552,13.308,36.269,36.991,36.269,68.454c0,28.051-11.278,51.017-32.614,66.415       C214.275,388.086,189.339,395.211,161.988,395.211z M46.769,375.211h115.219c40.042,0,82.829-17.464,82.829-66.479       c0-20.771-7.079-47.529-40.803-57.043c-4.006-1.13-6.893-4.624-7.248-8.771c-0.355-4.147,1.896-8.081,5.651-9.876       c20.944-10.011,30.284-24.191,30.284-45.976c0-38.214-22.886-55.255-74.207-55.255H46.769V375.211z" style="fill:#0D47BC;"/></g></g><path d="M94.666,166.776h51.862c20.885,0,39.688,5.872,39.688,30.1c0,22.372-14.641,31.365-35.302,31.365     H94.666V166.776z" style="fill:#0D47BC;"/><path d="M154.109,340.469H94.666V267.93h60.632c25.493,0,41.62,10.629,41.62,37.607     C196.918,332.143,177.67,340.469,154.109,340.469L154.109,340.469z" style="fill:#0D47BC;"/><g><polygon points="433.387,160 326.588,160 326.588,130 433.387,130 433.387,160     " style="fill:#115EFA;"/><g><path d="M433.387,170H326.588c-5.522,0-10-4.477-10-10v-30c0-5.523,4.478-10,10-10h106.799       c5.522,0,10,4.477,10,10v30C443.387,165.523,438.909,170,433.387,170z M336.588,150h86.799v-10h-86.799V150z" style="fill:#0D47BC;"/></g></g><g><path d="M475.23,292.605c0-56.414-32.998-103.458-92.828-103.458c-58.119,0-97.586,43.701-97.586,100.931      c0,59.383,37.387,100.111,97.586,100.111c45.561,0,75.066-20.512,89.264-64.141h-46.23      c-4.979,16.277-25.492,24.898-41.396,24.898c-30.695,0-46.824-17.986-46.824-48.531h137.57      C475.01,299.295,475.23,295.949,475.23,292.605z" style="fill:#115EFA;"/><g><path d="M382.402,400.189c-32.06,0-59.234-10.674-78.588-30.868       c-18.971-19.796-28.998-47.197-28.998-79.243c0-64.277,45.246-110.931,107.586-110.931c31.378,0,57.839,11.813,76.522,34.16       c16.964,20.291,26.306,48.453,26.306,79.298c0,3.675-0.232,7.217-0.471,10.528c-0.377,5.23-4.73,9.282-9.975,9.282H347.943       c2.979,18.943,15.084,28.531,36.096,28.531c12.688,0,28.467-6.814,31.834-17.823c1.285-4.204,5.166-7.075,9.563-7.075h46.23       c3.202,0,6.21,1.533,8.092,4.124c1.881,2.591,2.408,5.926,1.417,8.971C465.834,376.286,432.603,400.189,382.402,400.189z        M382.402,199.147c-51.569,0-87.586,37.392-87.586,90.931c0,54.74,34.38,90.111,87.586,90.111       c36.729,0,60.766-14.103,74.658-44.141h-25.107c-9.166,16.227-30.352,24.898-47.914,24.898       c-35.581,0-56.824-21.881-56.824-58.531c0-5.522,4.478-10,10-10H465.23C465.162,245.958,439.543,199.147,382.402,199.147z" style="fill:#0D47BC;"/></g></g><path d="M337.289,269.416c1.709-25.048,18.357-40.729,43.479-40.729c26.309,0,39.541,15.458,41.77,40.729     H337.289z" style="fill:#0D47BC;"/></g></g></g><g id="Layer_1"/></svg>