<?xml version="1.0" ?><!DOCTYPE svg  PUBLIC '-//W3C//DTD SVG 1.1//EN'  'http://www.w3.org/Graphics/SVG/1.1/DTD/svg11.dtd'><svg height="512px" style="enable-background:new 0 0 512 512;" version="1.1" viewBox="0 0 512 512" width="512px" xml:space="preserve" xmlns="http://www.w3.org/2000/svg" xmlns:xlink="http://www.w3.org/1999/xlink"><g id="comp_x5F_49-bluetooth"><g><g><g><path d="M288.776,259.615l83.218-92.838L240.84,26.001v185.374l-77.365-77.365l-28.217,28.216      l97.085,97.39l-97.085,97.389l28.217,28.216l77.365-77.366l2.439,178.146l133.463-133.548L288.776,259.615z M325.484,167.079      l-44.899,44.902l-0.305-90.108L325.484,167.079z M280.585,307.245l44.899,44.902l-45.204,45.207L280.585,307.245z" style="fill:#0A3C91;"/><path d="M243.277,495.999c-1.266,0-2.542-0.24-3.76-0.734c-3.725-1.513-6.182-5.108-6.237-9.129      l-2.115-154.465l-60.619,60.62c-3.905,3.904-10.237,3.904-14.142,0l-28.217-28.216c-3.901-3.901-3.906-10.225-0.011-14.131      l90.047-90.329l-90.047-90.33c-3.895-3.907-3.89-10.23,0.011-14.131l28.217-28.216c3.905-3.904,10.237-3.904,14.142,0      l60.293,60.294V26.001c0-4.109,2.514-7.8,6.337-9.305c3.826-1.505,8.179-0.518,10.98,2.489l131.154,140.776      c3.527,3.786,3.584,9.638,0.13,13.491l-77.066,85.975l81.627,86.146c3.726,3.932,3.644,10.115-0.186,13.946L250.352,493.067      C248.439,494.981,245.881,495.999,243.277,495.999z M240.842,297.854c1.266,0,2.543,0.24,3.762,0.735      c3.724,1.513,6.18,5.108,6.235,9.128l2.115,154.455L362.79,352.266l-81.272-85.772c-3.582-3.779-3.663-9.675-0.188-13.553      l77.118-86.033L250.84,51.405v159.97c0,4.044-2.437,7.691-6.173,9.239c-3.738,1.548-8.038,0.692-10.898-2.167l-70.293-70.294      l-14.086,14.085l90.036,90.318c3.891,3.903,3.891,10.217,0,14.12l-90.036,90.318l14.085,14.085l70.294-70.296      C235.681,298.87,238.239,297.854,240.842,297.854z M280.278,407.354c-1.294,0-2.599-0.251-3.841-0.768      c-3.739-1.557-6.171-5.216-6.157-9.267l0.305-90.109c0.014-4.038,2.455-7.672,6.188-9.211c3.732-1.537,8.026-0.683,10.883,2.174      l44.899,44.903c3.905,3.904,3.905,10.236,0,14.142l-45.204,45.207C285.438,406.339,282.88,407.354,280.278,407.354z       M290.504,331.307l-0.142,41.822l20.98-20.981L290.504,331.307z M280.583,221.982c-1.283,0-2.576-0.247-3.81-0.755      c-3.733-1.539-6.175-5.173-6.188-9.211l-0.305-90.108c-0.014-4.051,2.418-7.709,6.157-9.266c3.74-1.556,8.05-0.703,10.914,2.162      l45.204,45.206c3.905,3.905,3.905,10.236,0,14.142l-44.899,44.902C285.743,220.965,283.186,221.982,280.583,221.982z       M290.362,146.098l0.142,41.821l20.839-20.84L290.362,146.098z" style="fill:#082D6D;"/></g></g></g></g><g id="Layer_1"/></svg>