<?xml version="1.0" ?><!DOCTYPE svg  PUBLIC '-//W3C//DTD SVG 1.1//EN'  'http://www.w3.org/Graphics/SVG/1.1/DTD/svg11.dtd'><svg height="512px" style="enable-background:new 0 0 512 512;" version="1.1" viewBox="0 0 512 512" width="512px" xml:space="preserve" xmlns="http://www.w3.org/2000/svg" xmlns:xlink="http://www.w3.org/1999/xlink"><g id="comp_x5F_52-Byte"><g><g><g><g><g><path d="M131.338,468.114c0-34.841,0-68.653,0-103.866c-37.376,0-60.778,0-98.513,0        c0-20.669,0-39.916,0-60.618c37.03,0,60.068,0,97.804,0c0-32.677,0-64.257,0-97.303c-36.668,0-59.718,0-97.454,0        c0-20.719,0-40.311,0-61.381c37.04,0,60.069,0,98.163,0c0-32.319,0-69.214,0-101.184c3.225-0.356,5.387-0.702,7.57-0.702        c61.455,0,123.295-0.717,184.771,0.35c28.784,0.356,56.428,6.554,80.176,24.343c47.812,35.616,54.308,104.764,14.396,149.479        c-3.626,3.96-7.202,7.974-11.528,12.305c21.571,10.183,39.555,23.612,52.486,43.216        c37.411,55.193,20.871,126.361-38.096,164.545c-33.451,21.416-71.185,29.768-109.64,30.818        c-58.237,1.836-116.141,0.726-174.395,0.726C135.654,469.186,134.216,468.837,131.338,468.114L131.338,468.114z" style="fill:#161616;"/><path d="M232.545,479.176c-15.91,0-32.077-0.085-47.712-0.167c-15.367-0.08-31.249-0.163-46.905-0.166        c-0.661,0.088-1.331,0.133-2.005,0.133c-2.391,0-4.536-0.539-7.02-1.162c-4.447-1.117-7.564-5.114-7.564-9.699v-93.866H32.825        c-5.523,0-10-4.478-10-10V303.63c0-5.522,4.477-10,10-10h87.804v-77.303H33.175c-5.523,0-10-4.477-10-10v-61.381        c0-5.523,4.477-10,10-10h88.163V43.762c0-5.098,3.834-9.379,8.901-9.939c0.774-0.085,1.484-0.17,2.146-0.25        c2.301-0.275,4.289-0.513,6.522-0.513c17.587,0,35.518-0.06,52.857-0.118c17.398-0.058,35.388-0.118,53.092-0.118        c30.812,0,55.913,0.187,78.995,0.587c34.765,0.43,62.911,9.045,85.997,26.338c24.818,18.487,40.86,46.831,43.991,77.746        c3.173,31.323-7.08,62.813-28.13,86.396c-0.027,0.031-0.056,0.063-0.084,0.094l-1.894,2.074        c-0.213,0.234-0.427,0.468-0.641,0.703c19.068,10.84,33.676,24.15,44.428,40.431c18.928,27.953,25.761,61.045,19.238,93.186        c-6.98,34.394-28.363,64.691-60.21,85.313c-32.165,20.593-69.703,31.188-114.802,32.421        C288.778,478.838,263.598,479.176,232.545,479.176z M141.338,458.845c14.595,0.013,29.319,0.09,43.599,0.165        c15.609,0.081,31.75,0.166,47.608,0.166c30.838,0,55.817-0.335,78.613-1.054c41.402-1.131,75.592-10.697,104.563-29.245        c27.252-17.647,45.534-43.396,51.437-72.477c5.448-26.846-0.314-54.56-16.227-78.036c-0.023-0.034-0.047-0.069-0.07-0.104        c-10.998-16.673-26.38-29.281-48.407-39.679c-2.942-1.389-5.024-4.122-5.583-7.327s0.478-6.481,2.776-8.783        c3.404-3.409,6.403-6.7,9.303-9.882l1.875-2.054c17.298-19.402,25.725-45.287,23.117-71.023        c-2.604-25.72-15.411-48.355-36.062-63.738c-19.595-14.677-43.899-21.987-74.326-22.363        c-23.013-0.399-48.004-0.585-78.697-0.585c-17.671,0-35.644,0.06-53.025,0.118c-16.559,0.055-33.656,0.112-50.494,0.117        v91.886c0,5.523-4.477,10-10,10H43.175v41.381h87.454c5.523,0,10,4.477,10,10v97.303c0,5.522-4.477,10-10,10H42.825v40.618        h88.513c5.523,0,10,4.478,10,10V458.845z"/></g></g></g><path d="M343.175,392.824h-140v-120h140c33.137,0,60,26.863,60,60l0,0C403.175,365.961,376.312,392.824,343.175,392.824z"/><path d="M303.175,222.825h-100v-120h100c33.137,0,60,26.863,60,60l0,0C363.175,195.962,336.312,222.825,303.175,222.825z"/></g></g></g><g id="Layer_1"/></svg>