<?xml version="1.0" ?><!DOCTYPE svg  PUBLIC '-//W3C//DTD SVG 1.1//EN'  'http://www.w3.org/Graphics/SVG/1.1/DTD/svg11.dtd'><svg height="512px" style="enable-background:new 0 0 512 512;" version="1.1" viewBox="0 0 512 512" width="512px" xml:space="preserve" xmlns="http://www.w3.org/2000/svg" xmlns:xlink="http://www.w3.org/1999/xlink"><g id="comp_x5F_60-coderwall"><g><g><g id="_x31_22-coderwall_4_"><g><g><g><g><path d="M91.444,156c-35.758,0-64.849-29.159-64.849-65.001c0-35.84,29.091-64.998,64.849-64.998          c17.327,0,33.617,6.764,45.867,19.046c12.243,12.275,18.985,28.595,18.985,45.952C156.296,126.841,127.204,156,91.444,156z" style="fill:#3E8DCC;"/><path d="M91.444,36.001c30.294-0.001,54.852,24.623,54.852,54.998          c0,30.376-24.558,55.001-54.852,55.001c-30.292,0-54.849-24.625-54.849-55.001C36.596,60.626,61.153,36.001,91.444,36.001           M91.446,16.001h-0.002c-41.271,0-74.849,33.644-74.849,74.998c0,41.355,33.577,75.001,74.849,75.001          c41.273,0,74.852-33.646,74.852-75.001C166.296,49.645,132.719,16.001,91.446,16.001L91.446,16.001z" style="fill:#2F6A99;"/></g><g><path d="M256,156c-35.758,0-64.85-29.159-64.85-65.001c0-35.84,29.092-64.998,64.85-64.998          c17.327,0,33.615,6.764,45.864,19.047c12.242,12.275,18.984,28.595,18.984,45.951C320.849,126.841,291.758,156,256,156z" style="fill:#3E8DCC;"/><path d="M256,36.001c30.292-0.001,54.848,24.623,54.848,54.998C310.849,121.375,286.292,146,256,146          c-30.293,0-54.85-24.625-54.85-55.001C201.15,60.626,225.708,36.001,256,36.001 M256.002,16.001H256          c-41.272,0-74.85,33.644-74.85,74.998C181.15,132.354,214.728,166,256,166c41.271,0,74.848-33.646,74.848-75.001          C330.849,49.645,297.272,16.001,256.002,16.001L256.002,16.001z" style="fill:#2F6A99;"/></g><g><path d="M420.551,156c-35.759,0-64.852-29.159-64.852-65.001c0-35.84,29.093-64.998,64.852-64.998          c17.327,0,33.617,6.764,45.867,19.046c12.243,12.275,18.986,28.595,18.986,45.952C485.404,126.841,456.312,156,420.551,156z          " style="fill:#3E8DCC;"/><path d="M420.551,36.001c30.294-0.001,54.854,24.623,54.854,54.998          c0,30.376-24.56,55.001-54.854,55.001c-30.29,0-54.852-24.625-54.852-55.001C365.699,60.626,390.261,36.001,420.551,36.001           M420.553,16.001h-0.002c-41.273,0-74.852,33.644-74.852,74.998c0,41.355,33.578,75.001,74.852,75.001          c41.274,0,74.854-33.646,74.854-75.001C495.404,49.645,461.826,16.001,420.553,16.001L420.553,16.001z" style="fill:#2F6A99;"/></g><g><path d="M256,321c-35.758,0-64.85-29.159-64.85-65.001c0-35.841,29.092-65,64.85-65          c35.757,0,64.848,29.159,64.848,65C320.849,291.841,291.758,321,256,321z" style="fill:#3E8DCC;"/><path d="M256,200.999c30.292,0,54.848,24.626,54.848,55C310.849,286.374,286.292,311,256,311          c-30.293,0-54.85-24.626-54.85-55.001S225.708,200.999,256,200.999 M256,180.999c-41.272,0-74.85,33.645-74.85,75          C181.15,297.354,214.728,331,256,331c41.271,0,74.848-33.646,74.848-75.001C330.849,214.644,297.271,180.999,256,180.999          L256,180.999z" style="fill:#2F6A99;"/></g><g><path d="M420.551,321c-35.759,0-64.852-29.159-64.852-65.001c0-35.841,29.093-65,64.852-65          c35.761,0,64.854,29.159,64.854,65C485.404,291.841,456.312,321,420.551,321z" style="fill:#3E8DCC;"/><path d="M420.551,200.999c30.294,0,54.854,24.626,54.854,55c0,30.375-24.56,55.001-54.854,55.001          c-30.29,0-54.852-24.626-54.852-55.001S390.261,200.999,420.551,200.999 M420.551,180.999          c-41.273,0-74.852,33.645-74.852,75c0,41.355,33.578,75.001,74.852,75.001c41.274,0,74.854-33.646,74.854-75.001          C495.404,214.644,461.825,180.999,420.551,180.999L420.551,180.999z" style="fill:#2F6A99;"/></g><g><path d="M420.551,485.999c-35.759,0-64.852-29.161-64.852-65.005          c0-35.84,29.093-64.998,64.852-64.998c35.761,0,64.854,29.158,64.854,64.998          C485.404,456.838,456.312,485.999,420.551,485.999z" style="fill:#3E8DCC;"/><path d="M420.551,365.996c30.294,0,54.854,24.623,54.854,54.998s-24.56,55.005-54.854,55.005          c-30.29,0-54.852-24.63-54.852-55.005S390.261,365.996,420.551,365.996 M420.551,345.996          c-41.273,0-74.852,33.644-74.852,74.998c0,41.357,33.578,75.005,74.852,75.005c41.274,0,74.854-33.647,74.854-75.005          C495.404,379.64,461.825,345.996,420.551,345.996L420.551,345.996z" style="fill:#2F6A99;"/></g></g></g></g></g></g></g></g><g id="Layer_1"/></svg>