<?xml version="1.0" ?><!DOCTYPE svg  PUBLIC '-//W3C//DTD SVG 1.1//EN'  'http://www.w3.org/Graphics/SVG/1.1/DTD/svg11.dtd'><svg height="512px" style="enable-background:new 0 0 512 512;" version="1.1" viewBox="0 0 512 512" width="512px" xml:space="preserve" xmlns="http://www.w3.org/2000/svg" xmlns:xlink="http://www.w3.org/1999/xlink"><g id="comp_x5F_87-diaspora"><g><g><g><path d="M251.879,349.715c-1.331,0-83.701,114.043-84.368,114.043c-0.666,0-82.37-57.547-82.654-58.21      c-0.286-0.762,82.369-119.561,82.369-121.178c0-2.093-123.27-41.853-130.879-44.8c-1.237-0.477,29.867-96.829,30.151-97.114      c0.57-0.665,137.347,44.704,138.394,44.704c0.381,0,0.856-0.571,0.951-1.236c0.38-1.903,0.951-141.342,1.617-142.294      c0.761-1.14,99.396-0.665,99.967-0.285c1.426,0.952,3.328,148.477,5.802,148.477c1.331,0,131.927-44.704,132.495-44.04      c0.762,0.857,30.343,97.208,29.962,97.59c-0.855,0.856-133.352,44.8-133.731,46.417c-0.285,1.331,78.756,116.136,78.47,116.898      c-0.19,0.664-81.323,60.397-82.083,60.397C337.388,468.894,253.687,349.715,251.879,349.715L251.879,349.715z" style="fill:#FFFFFF;"/><path d="M338.341,479.085c-0.661,0-1.321-0.065-1.969-0.195c-3.938-0.791-5.438-2.834-8.721-7.311      c-1.615-2.2-3.904-5.37-6.7-9.264c-5.545-7.726-13.099-18.326-21.321-29.867c-15.37-21.571-36.697-51.504-47.749-66.517      c-10.615,14.196-30.521,41.444-44.945,61.189c-8.387,11.48-16.162,22.123-21.874,29.895c-2.875,3.912-5.231,7.102-6.886,9.313      c-3.466,4.633-5.559,7.429-10.665,7.429c-3.376,0-3.376,0-18.873-10.797c-7.509-5.232-17.58-12.294-28.356-19.884      c-10.76-7.578-20.805-14.684-28.284-20.008c-15.127-10.768-15.127-10.768-16.333-13.582c-0.06-0.14-0.116-0.28-0.17-0.423      c-1.854-4.936,0.102-7.856,3.997-13.676c1.823-2.724,4.465-6.618,8.077-11.906c6.715-9.832,15.714-22.916,25.242-36.77      c13.422-19.515,30.483-44.321,39.472-57.656c-19.134-6.848-60.619-20.549-85.272-28.691      c-20.803-6.871-31.775-10.501-34.276-11.47c-3.147-1.219-5.496-3.992-6.198-7.293c-0.704-3.31-0.894-4.2,15.032-54.47      c3.373-10.646,7.202-22.609,10.505-32.821c5.53-17.096,5.53-17.096,7.341-18.913h0c1.874-1.877,4.449-2.949,7.117-2.949      c2.589,0,3.128,0,94.761,30.032c12.774,4.187,25.807,8.458,34.765,11.373c0.114-10.763,0.243-27.636,0.369-44.151      c0.154-20.253,0.313-41.196,0.487-57.734c0.094-8.996,0.182-15.666,0.268-20.393c0.18-9.872,0.2-10.968,2.043-13.619      c2.964-4.325,7.288-4.486,11.862-4.657c2.443-0.091,5.954-0.167,10.434-0.227c7.776-0.103,18.663-0.158,31.486-0.158      c12.424,0,25.915,0.051,37.016,0.14c20.229,0.162,20.229,0.162,22.937,1.959c4.41,2.943,4.616,6.871,4.93,12.816      c0.159,3.015,0.328,7.322,0.519,13.166c0.352,10.844,0.728,25.552,1.124,41.125c0.629,24.646,1.504,58.915,2.382,76.369      c9.758-3.26,24.523-8.244,38.983-13.125c81.734-27.59,82.201-27.59,84.793-27.59c2.859,0,5.611,1.231,7.508,3.364l0,0      c1.904,2.142,2.019,2.27,17.495,52.682c3.901,12.708,7.509,24.565,10.157,33.388c1.377,4.588,2.514,8.419,3.295,11.115      c1.596,5.514,2.857,9.869-1.383,14.115c-1.863,1.865-1.863,1.865-16.867,6.996c-7.919,2.708-18.8,6.393-30.811,10.459      c-23.972,8.117-60.388,20.447-78.172,26.787c8.783,13.201,25.291,37.479,38.288,56.594c8.853,13.02,17.215,25.316,23.414,34.5      c3.117,4.619,5.677,8.434,7.448,11.116c3.465,5.242,5.426,8.209,3.897,12.819c-0.933,3.226-1.322,3.516-16.362,14.716      c-7.45,5.549-17.421,12.923-28.074,20.764c-10.735,7.901-20.744,15.231-28.183,20.641      C341.86,479.085,341.86,479.085,338.341,479.085z M251.879,339.715c5.399,0,7.34,2.601,13.768,11.216      c3.197,4.287,7.623,10.349,13.528,18.533c10.8,14.968,24.583,34.312,36.743,51.379c9.323,13.085,18.86,26.471,24.628,34.462      c15.636-11.31,51.362-37.602,66.479-48.926c-6.278-9.379-17.825-26.361-28.364-41.859      c-10.813-15.904-21.996-32.351-30.597-45.12c-4.673-6.937-8.113-12.091-10.519-15.757c-4.967-7.567-6.301-9.602-5.37-13.948      c0.014-0.064,0.028-0.128,0.043-0.191c1.321-5.624,4.77-6.875,15.005-10.586c5.1-1.849,12.272-4.367,21.926-7.699      c17.616-6.08,39.879-13.618,59.521-20.269c13.125-4.444,26.544-8.988,34.859-11.848c-5.394-18.146-18.406-60.525-24.229-78.916      c-15.174,4.944-47.147,15.737-72.007,24.128c-51.864,17.507-51.864,17.507-54.065,17.507c-2.738,0-9.239-1.065-10.446-10.929      c-0.191-1.561-0.373-3.714-0.557-6.582c-0.316-4.926-0.633-11.899-0.971-21.32c-0.616-17.234-1.176-39.158-1.717-60.359      c-0.469-18.367-0.983-38.526-1.422-49.497c-9.759-0.114-26.734-0.219-45.109-0.219c-17.421,0-28.964,0.1-35.854,0.23      c-0.263,15.78-0.524,50.083-0.727,76.709c-0.412,53.999-0.465,56.373-0.741,57.841c-0.943,5.42-5.522,9.464-10.794,9.464      c-2.003,0-2.003,0-49.828-15.674c-27.102-8.882-65.195-21.367-82.118-26.708c-5.996,18.451-19.454,60.559-24.667,78.313      c6.358,2.125,15.525,5.153,25.003,8.284c19.493,6.438,43.753,14.451,63.201,21.054c10.741,3.647,18.742,6.431,24.458,8.51      c3.3,1.199,5.76,2.137,7.522,2.864c2.844,1.174,8.761,3.616,8.761,10.568c0,3.665,0,3.665-16.533,27.909      c-8.791,12.891-20.286,29.604-31.402,45.768c-11.509,16.733-24.128,35.082-30.874,45.042      c15.452,11.06,51.245,36.268,66.849,47.081c5.905-7.996,15.825-21.575,25.521-34.847c11.677-15.984,24.912-34.101,35.123-47.944      c5.571-7.553,9.729-13.141,12.713-17.083C244.773,342.168,246.629,339.715,251.879,339.715z"/></g></g></g></g><g id="Layer_1"/></svg>