<?xml version="1.0" ?><!DOCTYPE svg  PUBLIC '-//W3C//DTD SVG 1.1//EN'  'http://www.w3.org/Graphics/SVG/1.1/DTD/svg11.dtd'><svg height="512px" style="enable-background:new 0 0 512 512;" version="1.1" viewBox="0 0 512 512" width="512px" xml:space="preserve" xmlns="http://www.w3.org/2000/svg" xmlns:xlink="http://www.w3.org/1999/xlink"><g id="comp_x5F_95-disqus"><g><g><g id="_x31_20-disqus_4_"><g><g><g><g><path d="M264.391,472.205c-54.65,0-104.674-19.316-143.285-51.281L26.001,433.4l36.682-87.751          c-12.877-27.33-19.916-57.683-19.916-89.65c0-119.434,99.269-216.204,221.599-216.204          c122.504,0,221.634,96.771,221.634,216.204C485.999,375.425,386.869,472.205,264.391,472.205L264.391,472.205z" style="fill:#2E9FFF;"/><path d="M264.391,482.205c-53.292,0-105.05-18.014-146.248-50.807l-90.841,11.917          c-3.543,0.47-7.073-1-9.246-3.842c-2.172-2.843-2.661-6.629-1.281-9.93l34.991-83.708c-12.609-28.229-19-58.429-19-89.837          c0-60.473,24.129-117.312,67.943-160.048c43.737-42.661,101.858-66.156,163.655-66.156          c61.865,0,120.016,23.495,163.739,66.157c43.782,42.719,67.895,99.558,67.895,160.047          c0,60.484-24.11,117.323-67.891,160.045C384.387,458.709,326.244,482.205,264.391,482.205z M121.106,410.924          c2.315,0,4.573,0.804,6.377,2.297c38.155,31.588,86.776,48.984,136.908,48.984c116.682,0,211.608-92.504,211.608-206.206          c0-113.701-94.938-206.204-211.634-206.204c-116.676,0-211.599,92.503-211.599,206.204c0,29.955,6.38,58.685,18.962,85.388          c1.206,2.56,1.271,5.51,0.18,8.119l-29.979,71.72l77.876-10.217C120.239,410.952,120.674,410.924,121.106,410.924z" style="fill:#2377BF;"/></g><g><path d="M265.805,140.688h-81.678v230.621h80.527c76.188,0,120.72-49.44,120.72-115.942v-0.607          C385.373,188.278,341.418,140.688,265.805,140.688L265.805,140.688z M325.083,256.145c0,37.357-23.282,58.431-58.42,58.431          h-23.856V197.249h23.856c35.138,0,58.42,21.389,58.42,58.287V256.145z" style="fill:#FFFFFF;"/><path d="M264.653,381.309h-80.527c-5.523,0-10-4.478-10-10V140.688c0-5.523,4.477-10,10-10h81.678          c39.104,0,72.013,12.101,95.17,34.994c22.504,22.248,34.398,53.05,34.398,89.077v0.607          C395.373,330.696,342.841,381.309,264.653,381.309z M194.126,361.309h70.527c67.26,0,110.72-41.585,110.72-105.942v-0.607          c0-64.193-41.984-104.071-109.568-104.071h-71.678V361.309z M266.663,324.575h-23.856c-5.523,0-10-4.478-10-10V197.249          c0-5.523,4.477-10,10-10h23.856c41.563,0,68.42,26.804,68.42,68.287v0.608c0,20.833-6.591,38.258-19.06,50.392          C303.896,318.337,286.827,324.575,266.663,324.575z M252.807,304.575h13.856c30.771,0,48.42-17.652,48.42-48.431v-0.608          c0-30.236-18.101-48.287-48.42-48.287h-13.856V304.575z" style="fill:#2377BF;"/></g></g></g></g></g></g></g></g><g id="Layer_1"/></svg>