<?xml version="1.0" ?><!DOCTYPE svg  PUBLIC '-//W3C//DTD SVG 1.1//EN'  'http://www.w3.org/Graphics/SVG/1.1/DTD/svg11.dtd'><svg height="512px" style="enable-background:new 0 0 512 512;" version="1.1" viewBox="0 0 512 512" width="512px" xml:space="preserve" xmlns="http://www.w3.org/2000/svg" xmlns:xlink="http://www.w3.org/1999/xlink"><g id="comp_x5F_96-dochub"><g><g><g><path d="M349.42,198.501v116.796c0,60.015-32.793,89.932-101.792,89.932h-85.082V102.188h85.082      c10.781,0,20.753,0.72,29.738,2.246V28.966c-9.793-1.977-20.125-2.965-31.085-2.965H76.297v459.998H246.28      c126.23,0,189.39-58.039,189.39-174.206V198.501H349.42z" style="fill:#FFFFFF;"/><path d="M246.28,495.999H76.297c-5.523,0-10-4.478-10-10V26.001c0-5.523,4.477-10,10-10H246.28      c11.542,0,22.667,1.064,33.064,3.163c4.666,0.942,8.021,5.042,8.021,9.802v75.468c0,2.945-1.298,5.74-3.548,7.64      c-2.251,1.9-5.225,2.711-8.127,2.219c-8.221-1.397-17.663-2.105-28.063-2.105h-75.082v283.041h75.082      c31.679,0,55.271-6.705,70.121-19.929c14.583-12.985,21.672-32.613,21.672-60.003V198.501c0-5.523,4.478-10,10-10h86.25      c5.522,0,10,4.477,10,10v113.292c0,60.718-17.021,107.156-50.59,138.026C361.759,480.462,311.694,495.999,246.28,495.999z       M86.297,475.999H246.28c120.711,0,179.39-53.712,179.39-164.206V208.501h-66.25v106.796c0,32.962-9.546,58.175-28.371,74.939      c-18.885,16.817-46.172,24.992-83.421,24.992h-85.082c-5.523,0-10-4.478-10-10V102.188c0-5.523,4.477-10,10-10h85.082      c6.947,0,13.547,0.292,19.738,0.872V37.408c-6.748-0.935-13.81-1.407-21.085-1.407H86.297V475.999z"/></g><g><polygon points="435.703,198.543 276.661,198.642 276.661,28.375     " style="fill:#32A4FA;"/><g><path d="M276.661,208.642c-2.651,0-5.193-1.053-7.069-2.927c-1.876-1.875-2.931-4.42-2.931-7.073V28.375       c0-4.106,2.51-7.795,6.33-9.302c3.817-1.507,8.172-0.526,10.976,2.474l159.042,170.168c2.72,2.909,3.453,7.154,1.868,10.808       c-1.584,3.653-5.186,6.018-9.168,6.021l-159.042,0.099C276.665,208.642,276.663,208.642,276.661,208.642z M286.661,53.72       v134.916l126.021-0.078L286.661,53.72z"/></g></g></g></g></g><g id="Layer_1"/></svg>