<?xml version="1.0" ?><!DOCTYPE svg  PUBLIC '-//W3C//DTD SVG 1.1//EN'  'http://www.w3.org/Graphics/SVG/1.1/DTD/svg11.dtd'><svg height="512px" style="enable-background:new 0 0 512 512;" version="1.1" viewBox="0 0 512 512" width="512px" xml:space="preserve" xmlns="http://www.w3.org/2000/svg" xmlns:xlink="http://www.w3.org/1999/xlink"><g id="comp_x5F_98-draft2digital"><g><g><g><path d="M98.5,132.209l38.549-19.274c37.381-18.69,80.508,11.823,75.324,53.293l-0.755,6.04      c-5.276,42.207-23.788,81.657-52.88,112.688L46,405.21h178.5l93.057-159.525c31.454-53.923,20.918-122.498-25.273-164.49v0      c-23.121-21.019-53.999-31.374-85.117-28.545l0,0c-41.777,3.798-79.066,27.76-99.878,64.182L98.5,132.209z" style="fill:#151C46;"/><path d="M224.5,415.21H46c-3.986,0-7.591-2.367-9.176-6.024c-1.584-3.658-0.846-7.907,1.88-10.815      l112.738-120.254c27.829-29.684,45.206-66.714,50.252-107.089l0.755-6.04c1.531-12.244-2.054-24.003-10.094-33.111      c-8.17-9.255-19.793-14.563-31.89-14.563c-6.512,0-12.886,1.536-18.945,4.565l-38.549,19.274      c-3.942,1.971-8.708,1.129-11.737-2.072c-3.028-3.201-3.604-8.007-1.418-11.833l8.788-15.379      c22.416-39.228,62.661-65.089,107.656-69.179c3.646-0.332,7.35-0.5,11.008-0.5c30.292,0,59.321,11.224,81.74,31.604      c24.029,21.846,39.979,51.554,44.911,83.652s-1.363,65.225-17.727,93.276l-93.057,159.526      C231.346,413.32,228.057,415.21,224.5,415.21z M69.083,395.21h149.674l90.163-154.564      c28.893-49.532,19.067-113.479-23.362-152.052C266.827,71.567,242.576,62.19,217.27,62.19c-3.057,0-6.151,0.141-9.198,0.417      c-32.716,2.974-62.5,19.405-82.476,44.873l6.98-3.49c8.861-4.43,18.244-6.677,27.889-6.677c17.83,0,34.918,7.773,46.883,21.327      c11.891,13.469,17.199,30.81,14.946,48.827l-0.755,6.04c-5.575,44.597-24.769,85.5-55.507,118.288L69.083,395.21z" style="fill:#EF4720;"/></g><g><circle cx="130" cy="163.709" r="42" style="fill:#151C46;"/><path d="M130,215.709c-28.673,0-52-23.327-52-52s23.327-52,52-52s52,23.327,52,52      S158.673,215.709,130,215.709z M130,131.709c-17.645,0-32,14.355-32,32s14.355,32,32,32s32-14.355,32-32      S147.645,131.709,130,131.709z" style="fill:#EF4720;"/></g><g><line style="fill:#151C46;" x1="224.5" x2="382" y1="405.21" y2="405.21"/><path d="M382,415.21H224.5c-5.523,0-10-4.478-10-10s4.477-10,10-10H382c5.522,0,10,4.478,10,10      S387.522,415.21,382,415.21z" style="fill:#EF4720;"/></g><g><polygon points="382,352.71 382,459.81 466,399.274     " style="fill:#151C46;"/><path d="M381.999,469.81c-1.557,0-3.119-0.363-4.556-1.099C374.102,467,372,463.563,372,459.81v-107.1      c0-3.542,1.873-6.819,4.925-8.616c3.051-1.799,6.825-1.848,9.924-0.13l84,46.564c2.994,1.66,4.932,4.737,5.134,8.155      s-1.358,6.702-4.136,8.704l-84,60.535C386.111,469.173,384.061,469.81,381.999,469.81z M392,369.688v70.589l55.365-39.898      L392,369.688z" style="fill:#EF4720;"/></g></g></g></g><g id="Layer_1"/></svg>