<?xml version="1.0" ?><!DOCTYPE svg  PUBLIC '-//W3C//DTD SVG 1.1//EN'  'http://www.w3.org/Graphics/SVG/1.1/DTD/svg11.dtd'><svg height="512px" style="enable-background:new 0 0 512 512;" version="1.1" viewBox="0 0 512 512" width="512px" xml:space="preserve" xmlns="http://www.w3.org/2000/svg" xmlns:xlink="http://www.w3.org/1999/xlink"><g id="comp_x5F_99-dribbble"><g><g><g><g><path d="M298.529,276.57c27.23,61.779,46.541,127.319,41.53,182.8C314.16,470.09,285.77,476,256,476       c-56,0-107.12-20.92-145.96-55.39L120,420C174,330.8,239.15,291.43,298.529,276.57z" style="fill:#E84C88;"/></g><g><path d="M470,290l3.3,0.53c-12.069,76.59-63.66,140.05-133.24,168.84       c5.011-55.48-14.3-121.021-41.53-182.8C391.31,253.35,470,290,470,290z" style="fill:#E84C88;"/></g><g><path d="M476,256c0,11.75-0.92,23.28-2.7,34.53L470,290c0,0-78.69-36.65-171.471-13.43       c-9.89-22.45-20.84-44.41-32.039-65.2C367.08,172.31,410,110,410,110l5.25-5.78C452.89,143.69,476,197.15,476,256z" style="fill:#E84C88;"/></g><g><path d="M266.49,211.37c11.199,20.79,22.149,42.75,32.039,65.2C239.15,291.43,174,330.8,120,420       l-9.96,0.61C64.62,380.31,36,321.5,36,256c0-5.46,0.2-10.87,0.59-16.23L40,240C135.41,247.88,210.04,233.29,266.49,211.37z" style="fill:#E84C88;"/></g><g><path d="M410,110c0,0-42.92,62.31-143.51,101.37C220.43,125.86,170,60,170,60l-11.77-1.13       C187.68,44.23,220.88,36,256,36c62.65,0,119.18,26.19,159.25,68.22L410,110z" style="fill:#E84C88;"/></g><g><path d="M170,60c0,0,50.43,65.86,96.49,151.37C210.04,233.29,135.41,247.88,40,240l-3.41-0.23       c5.79-79.44,53.77-147.18,121.64-180.9L170,60z" style="fill:#E84C88;"/></g></g><g><g><path d="M340.012,470.001c-0.318,0-0.639-0.016-0.961-0.046c-5.498-0.524-9.529-5.406-9.006-10.904       l0.058-0.607c4.249-47.048-9.452-106.891-40.724-177.84c-9.079-20.61-19.742-42.307-31.693-64.491       C212.527,132.275,162.56,66.732,162.061,66.08c-3.358-4.385-2.525-10.662,1.86-14.019c4.386-3.359,10.662-2.525,14.019,1.86       c0.509,0.665,51.447,67.48,97.354,152.708c12.2,22.646,23.097,44.821,32.388,65.911       c32.652,74.081,46.896,137.244,42.338,187.73l-0.064,0.68C349.461,466.124,345.106,470.001,340.012,470.001z" style="fill:#FFFFFF;"/></g><g><path d="M91.447,252.164c-17.091,0-34.515-0.731-52.27-2.198c-5.504-0.455-9.597-5.285-9.143-10.79       c0.455-5.503,5.295-9.598,10.79-9.143c82.065,6.777,156.771-2.638,222.047-27.986c96.173-37.345,138.489-97.136,138.905-97.736       c3.145-4.531,9.37-5.667,13.906-2.53c4.537,3.137,5.683,9.348,2.554,13.891c-1.823,2.647-45.843,65.302-148.126,105.019       C216.196,241.627,156.279,252.164,91.447,252.164z" style="fill:#FFFFFF;"/></g><g><path d="M119.991,430.002c-1.764,0-3.55-0.467-5.169-1.447c-4.725-2.86-6.236-9.009-3.376-13.733       c48.167-79.565,110.295-129.344,184.656-147.952c95.123-23.808,174.775,12.508,178.121,14.065       c5.006,2.332,7.174,8.281,4.842,13.287c-2.329,5.004-8.271,7.169-13.275,4.849l0,0c-0.759-0.352-76.811-34.832-164.832-12.799       c-69.061,17.281-127.065,64.017-172.402,138.907C126.675,428.284,123.374,430.001,119.991,430.002z" style="fill:#FFFFFF;"/></g><g><path d="M256,486c-56.326,0-110.519-20.566-152.598-57.91C54.212,384.444,26,321.72,26,256       c0-5.634,0.208-11.339,0.616-16.956c2.935-40.26,16.508-79.163,39.253-112.504c22.244-32.606,52.643-59.103,87.912-76.625       C185.701,34.046,220.093,26,256,26c32.015,0,63.002,6.456,92.101,19.187c28.103,12.296,53.13,29.836,74.388,52.133       C463.443,140.267,486,196.621,486,256c0,12.108-0.949,24.252-2.823,36.093c-6.146,38.996-22.435,76.001-47.105,107.009       c-24.339,30.589-56.217,54.625-92.188,69.509C316.004,480.149,286.436,486,256,486z M256,46       c-32.791,0-64.187,7.343-93.318,21.825C96.42,100.745,51.927,166.909,46.563,240.497C46.189,245.632,46,250.849,46,256       c0,60.005,25.761,117.276,70.677,157.13C155.093,447.224,204.572,466,256,466c27.798,0,54.793-5.339,80.235-15.87       c67.166-27.791,115.901-89.542,127.187-161.156C465.133,278.157,466,267.065,466,256c0-54.215-20.594-105.667-57.986-144.878       C367.977,69.127,313.991,46,256,46z" style="fill:#FFFFFF;"/></g></g></g></g></g><g id="Layer_1"/></svg>