<?xml version="1.0" ?><!DOCTYPE svg  PUBLIC '-//W3C//DTD SVG 1.1//EN'  'http://www.w3.org/Graphics/SVG/1.1/DTD/svg11.dtd'><svg height="512px" style="enable-background:new 0 0 512 512;" version="1.1" viewBox="0 0 512 512" width="512px" xml:space="preserve" xmlns="http://www.w3.org/2000/svg" xmlns:xlink="http://www.w3.org/1999/xlink"><g id="comp_x5F_102-DUO"><g><g><path d="M439.258,46.001H263.271c-113.552,0-208.507,85.555-216.181,194.788     c-4.292,61.002,17.882,120.678,60.816,163.733c39.43,39.53,92.787,61.477,148.344,61.477c4.948,0,9.919-0.156,14.924-0.523     c108.912-7.691,194.26-102.909,194.26-216.764V72.253C465.435,57.79,453.704,46.001,439.258,46.001z" style="fill:#2299F8;"/><path d="M256.25,475.999c-29.016,0-57.292-5.609-84.042-16.674c-26.841-11.101-50.857-27.163-71.382-47.74     c-44.983-45.112-68.205-107.62-63.711-171.498c8.04-114.44,107.38-204.086,226.156-204.086h175.986     c19.948,0,36.177,16.263,36.177,36.252v176.459c0,119.082-89.412,218.678-203.556,226.739     C266.859,475.819,261.738,475.999,256.25,475.999z M263.271,56.001c-108.322,0-198.898,81.477-206.206,185.489     c-4.088,58.109,17.023,114.958,57.921,155.972c37.652,37.748,87.821,58.537,141.263,58.537c4.996,0,9.637-0.162,14.193-0.497     c103.745-7.326,184.991-98.158,184.991-206.79V72.253c0-8.961-7.257-16.252-16.177-16.252H263.271z" style="fill:#1A73BA;"/></g><g><path d="M386.894,295.392L386.894,295.392c-0.001,4.542-2.359,8.768-6.21,11.182     c-3.817,2.34-8.662,2.627-12.722,0.555l-33.433-16.747v31.261c0,7.248-5.863,13.128-13.09,13.128H164.356     c-7.229,0-13.092-5.88-13.092-13.128V190.385c0-7.248,5.864-13.127,13.092-13.127h157.083c7.227,0,13.09,5.879,13.09,13.127     v31.265l33.409-16.748c4.032-2.048,8.905-1.812,12.725,0.578c3.872,2.392,6.23,6.616,6.23,11.158V295.392z" style="fill:#FFFFFF;"/><path d="M321.439,344.77H164.356c-12.733,0-23.092-10.375-23.092-23.128V190.385     c0-12.752,10.359-23.127,23.092-23.127h157.083c12.731,0,23.09,10.375,23.09,23.127v15.065l18.928-9.488     c3.139-1.594,6.723-2.45,10.318-2.45c4.327,0,8.543,1.207,12.191,3.49c6.721,4.151,10.927,11.687,10.927,19.636v78.754     c-0.002,8.03-4.076,15.377-10.898,19.654c-0.028,0.018-0.057,0.035-0.086,0.053c-3.65,2.238-7.843,3.421-12.122,3.422     c-3.6,0-7.186-0.859-10.372-2.486l-18.886-9.46v15.067C344.529,334.395,334.171,344.77,321.439,344.77z M164.356,187.258     c-1.705,0-3.092,1.403-3.092,3.127v131.257c0,1.725,1.387,3.128,3.092,3.128h157.083c1.704,0,3.09-1.403,3.09-3.128v-31.261     c0-3.467,1.796-6.687,4.746-8.509c2.947-1.82,6.63-1.985,9.732-0.433l33.433,16.747c1.018,0.52,2.089,0.409,2.975-0.113     c0.913-0.593,1.478-1.615,1.478-2.682l0.001-78.754c0-1.069-0.569-2.084-1.485-2.65c-0.93-0.581-2.063-0.615-2.941-0.17     l-33.456,16.771c-3.1,1.553-6.781,1.391-9.734-0.43c-2.95-1.822-4.747-5.042-4.747-8.509v-31.265c0-1.724-1.386-3.127-3.09-3.127     H164.356z" style="fill:#D6D6D6;"/></g></g></g><g id="Layer_1"/></svg>