<?xml version="1.0" ?><!DOCTYPE svg  PUBLIC '-//W3C//DTD SVG 1.1//EN'  'http://www.w3.org/Graphics/SVG/1.1/DTD/svg11.dtd'><svg height="512px" style="enable-background:new 0 0 512 512;" version="1.1" viewBox="0 0 512 512" width="512px" xml:space="preserve" xmlns="http://www.w3.org/2000/svg" xmlns:xlink="http://www.w3.org/1999/xlink"><g id="comp_x5F_105-earlybirds"><g><g><g><path d="M476.906,319.905c-9.18,22.253-37.737,10.199-59.248-1.112      c-12.517,64.068-53.87,103.288-117.104,115.156c0.278,0.834-1.854-0.093,22.254,0.929c31.154,1.297,59.153-2.876,90.308-7.418      c-18.359-12.795-10.57-34.4-9.087-35.327c1.298-0.833,13.63,1.577,20.028,10.662c7.974-11.588,26.331-13.721,28-12.609      c1.485,1.021,6.12,19.38-6.396,32.082c4.358-0.834,7.603-1.483,9.085-1.947c2.413-0.742,16.413,10.477,2.875,12.331      c-13.259,2.132-20.954,4.729-43.67,10.013c-42.558,9.921-79.646,10.943-109.132,11.87l0.927,10.754      c3.524,16.782-21.694,22.53-25.59,5.75c0.742,16.597-25.127,20.212-26.332-0.927l-0.464,4.913      c-0.649,17.061-26.331,16.597-26.238-0.557c-6.955,12.518-26.055,6.305-24.479-7.88l1.113-11.497      c-34.029,0.833-55.354,2.872-57.302,2.872c-19.378,0-19.378-29.298,0-29.298c2.226,0,25.684,1.205,58.6,2.596      c-56.651-14.372-96.15-50.996-106.535-109.594c-23.179,11.869-53.313,24.85-63.234,0.742      c-9.735-23.552,19.935-39.499,61.938-68.057c0.648-6.121,1.482-12.332,2.503-18.358c-13.352-18.173-10.756-33.658-14.929-56.004      c-15.576,2.226-21.511-8.436-21.881-21.417c0.277-6.769,1.946-13.816,2.225-14.279c1.02-1.669,9.365-1.854,11.775-2.411      c5.563-29.391,46.916-30.782,84.282-31.987c18.266-20.213,41.908-38.479,75.01-44.783c-14.187-17.988-3.152-36.995-2.226-37.458      c1.576-0.743,19.656,3.986,24.386,21.51c4.821-8.159,16.967-10.57,18.174-9.922c1.019,0.556,5.933,13.908-4.545,24.015      c37.366,3.245,66.944,22.902,89.012,47.009c33.47,1.391,66.571,5.47,71.485,31.524c2.504,0.557,10.756,0.742,11.774,2.411      c0.279,0.464,1.948,7.51,2.227,14.279c-0.463,12.888-6.305,23.551-21.882,21.419c-2.967,16.04-2.504,30.505-8.067,44.226      c2.227,10.848,3.709,22.067,4.452,33.75C455.304,281.426,486.18,297.28,476.906,319.905L476.906,319.905z" style="fill:#CCD82E;"/><g><path d="M240.253,497.579c-6.336,0.001-12.415-2.456-16.677-6.741c-0.231-0.232-0.456-0.468-0.675-0.709       c-2.211,0.713-4.556,1.087-6.977,1.087c-6.752,0-13.181-2.855-17.638-7.834c-4.327-4.835-6.311-11.162-5.591-17.823       l0.014-0.138c-20.144,0.696-34.551,1.747-41.285,2.238c-3.232,0.235-4.198,0.304-4.97,0.304       c-13.986,0-24.533-10.597-24.533-24.649c0-14.052,10.547-24.648,24.533-24.648c0.588,0,1.815,0.042,4.2,0.145       c-29.686-19.249-49.992-47.373-59.185-82.583c-11.812,5.396-24.286,9.764-35.48,9.765       c-14.066,0.001-24.703-7.022-29.952-19.776c-5.611-13.575-2.368-26.432,9.921-39.291c9.557-9.999,23.807-19.519,41.847-31.57       c3.249-2.17,6.58-4.395,9.997-6.7c0.421-3.499,0.892-6.937,1.409-10.287c-9.019-13.89-10.451-26.631-11.959-40.06       c-0.306-2.721-0.617-5.49-0.998-8.342c-14.024-2.03-22.834-13.561-23.334-31.106c-0.006-0.231-0.005-0.463,0.004-0.694       c0.168-4.093,1.455-15.379,3.646-19.024c2.736-4.48,7.528-5.718,12.563-6.375c11.195-29.114,52.433-31.552,87.554-32.727       c19.612-20.815,40.877-34.515,64.603-41.578c-2.518-7.313-2.958-15.188-1.196-23.075c0.707-3.161,3.474-13.707,9.419-16.676       c0.068-0.034,0.137-0.068,0.207-0.1c1.447-0.682,3.052-1.027,4.771-1.027c5.007,0,18.359,4.117,27.071,15.678       c5.595-2.954,11.284-4.117,14.293-4.117c2.03,0,3.803,0.422,5.419,1.291c3.781,2.064,6.121,6.461,7.016,13.103       c0.548,4.066,0.317,8.091-0.632,11.909c28.445,5.821,55.063,21.172,77.859,45.005c24.556,1.103,63.817,4.237,74.736,32.214       c5.043,0.655,9.839,1.884,12.551,6.328c2.225,3.7,3.514,14.985,3.682,19.078c0.011,0.256,0.012,0.513,0.002,0.77       c-0.625,17.414-9.414,28.885-23.298,30.984c-0.326,2.489-0.609,4.956-0.888,7.383c-1.044,9.106-2.12,18.492-5.392,27.774       c1.701,8.841,2.944,18.008,3.709,27.349c3.371,2.278,6.704,4.493,9.957,6.654c14.728,9.786,27.447,18.238,36.178,27.439       c11.438,12.054,14.603,24.596,9.405,37.275c-4.976,12.062-15.1,18.693-28.516,18.693c-10.648,0-22.433-4.132-33.08-9.017       c-4.855,18.273-12.172,34.583-21.877,48.791c0.725-0.125,1.479-0.188,2.265-0.188c3.836,0,11.84,1.829,19.036,6.896       c8.794-6.396,19.82-8.948,26.287-8.948c1.896,0,4.718,0.2,7.324,1.937c0.042,0.027,0.083,0.056,0.125,0.084       c1.413,0.972,5.169,3.555,6.206,14.426c0.535,5.604,0.016,11.105-1.464,16.226c5.493,3.167,10.528,9.155,10.942,15.237       c0.396,5.804-3.117,13.122-14.304,14.706c-7.95,1.283-13.896,2.768-22.875,5.009c-5.191,1.297-11.651,2.909-20.014,4.854       c-38.547,8.985-72.413,10.826-100.502,11.784c1.158,6.73-0.438,13.168-4.539,18.221c-4.423,5.448-11.4,8.702-18.663,8.702       c-3.615,0-6.985-0.768-9.967-2.188c-4.224,3.718-9.777,5.819-15.52,5.819c-3.733,0-7.622-0.95-11.127-2.918       C251.849,495.449,246.414,497.578,240.253,497.579z M227.12,464.467c0.841,0,1.692,0.106,2.536,0.327       c4.418,1.158,7.49,5.161,7.465,9.728c-0.009,1.565,0.476,2.052,0.635,2.212c0.519,0.521,1.475,0.846,2.495,0.846       c3.004,0,3.082-2.057,3.116-2.936c0.007-0.187,0.02-0.373,0.037-0.56l0.464-4.913c0.491-5.206,4.939-9.158,10.142-9.058       c5.229,0.097,9.5,4.207,9.797,9.429c0.197,3.451,1.28,5.201,3.219,5.201c0.938,0,1.882-0.376,2.461-0.981       c0.32-0.335,0.739-0.936,0.679-2.277c-0.23-5.162,3.511-9.65,8.631-10.354c5.112-0.695,9.931,2.611,11.101,7.646       c0.4,1.725,1.084,2.335,2.614,2.335c1.222,0,2.512-0.538,3.136-1.308c0.181-0.222,0.658-0.811,0.313-2.46       c-0.083-0.396-0.143-0.795-0.177-1.197l-0.927-10.754c-0.236-2.736,0.664-5.449,2.489-7.503       c1.825-2.053,4.414-3.265,7.159-3.351l1.429-0.045c0.896-0.028,1.8-0.057,2.709-0.085c-3.125-0.065-4.944-0.065-5.939-0.065       h-0.6c-8.624,0-10.777-5.612-11.311-8.223c-0.547-2.459-0.147-5.048,1.142-7.241c1.465-2.49,3.936-4.226,6.775-4.759       c59.886-11.24,97.624-48.325,109.135-107.245c0.606-3.103,2.643-5.735,5.493-7.101c2.85-1.365,6.179-1.305,8.976,0.167       c10.163,5.344,24.883,12.449,35.331,12.449c6.179,0,8.414-2.411,10.019-6.3c4.628-11.292-11.483-22.728-38.154-40.45       c-4.585-3.047-9.326-6.197-14.17-9.522c-2.533-1.738-4.126-4.544-4.32-7.609c-0.709-11.135-2.145-22.027-4.269-32.374       c-0.396-1.933-0.213-3.94,0.528-5.769c3.12-7.695,4.063-15.917,5.155-25.439c0.616-5.379,1.254-10.942,2.347-16.848       c0.971-5.251,5.902-8.811,11.188-8.089c0.876,0.12,1.705,0.181,2.466,0.181c2.451,0,7.523-0.001,8.052-11.666       c-0.109-2.15-0.385-4.35-0.686-6.225c-0.312-0.034-0.601-0.064-0.852-0.09c-1.775-0.186-3.309-0.346-4.627-0.64       c-3.903-0.868-6.914-3.979-7.655-7.908c-3.282-17.404-27.188-21.936-62.073-23.386c-2.659-0.11-5.164-1.276-6.961-3.239       C329.458,90.611,301.7,75.875,271.131,73.22c-3.905-0.339-7.252-2.929-8.562-6.624c-1.082-3.057-0.604-6.403,1.189-9.009       c-1.958,1.254-4.334,1.814-6.738,1.487c-3.986-0.542-7.26-3.419-8.308-7.303c-1.653-6.125-5.69-9.749-9.136-11.804       c-1.04,4.862-1.03,11.963,4.482,18.954c2.164,2.743,2.738,6.417,1.516,9.691c-1.223,3.273-4.065,5.671-7.498,6.325       c-26.214,4.993-48.286,18.232-69.461,41.665c-1.821,2.015-4.383,3.203-7.097,3.29c-40.056,1.292-70.996,3.869-74.779,23.853       c-0.738,3.896-3.708,6.989-7.571,7.883c-1.338,0.31-2.83,0.466-4.719,0.664c-0.248,0.026-0.535,0.056-0.843,0.089       c-0.301,1.885-0.578,4.098-0.685,6.257c0.428,11.596,5.429,11.65,7.878,11.65c0.834,0.006,1.663-0.063,2.581-0.195       c5.304-0.761,10.261,2.797,11.245,8.064c1.223,6.55,1.902,12.59,2.5,17.919c1.501,13.36,2.586,23.014,10.657,34       c1.604,2.182,2.253,4.921,1.801,7.591c-0.954,5.636-1.768,11.605-2.418,17.742c-0.31,2.923-1.891,5.563-4.322,7.216       c-4.829,3.282-9.455,6.373-13.929,9.362c-32.777,21.896-49.636,33.912-44.389,46.604c2.194,5.332,5.406,7.403,11.461,7.402       c10.769-0.001,25.951-7.068,37.974-13.226c2.824-1.446,6.167-1.466,9.007-0.055s4.844,4.087,5.397,7.211       c9.286,52.397,43.571,87.547,99.147,101.646c4.967,1.261,8.178,6.071,7.436,11.142c-0.742,5.07-5.168,8.758-10.317,8.543       c-17.58-0.743-32.19-1.42-42.858-1.914c-8.008-0.371-14.334-0.665-15.337-0.673c-3.729,0-4.516,2.528-4.516,4.648       c0,2.104,0.773,4.605,4.437,4.648c0.492-0.022,2.076-0.138,3.611-0.25c8.078-0.589,26.994-1.969,53.542-2.618       c2.85-0.076,5.616,1.09,7.566,3.186s2.908,4.926,2.632,7.775l-1.113,11.497c-0.005,0.047-0.01,0.094-0.015,0.141       c-0.146,1.317,0.248,1.948,0.607,2.351c0.638,0.712,1.711,1.173,2.735,1.173c1.097,0,1.831-0.48,2.456-1.604       C220.174,466.381,223.555,464.467,227.12,464.467z M411.104,404.351c-0.073,4.536,1.336,10.45,7.729,14.905       c3.366,2.346,4.958,6.51,4.015,10.503c-0.043,0.181-0.091,0.36-0.143,0.537c3.18-0.777,6.018-1.485,8.68-2.15       c1.883-0.47,3.658-0.913,5.368-1.333c-1.955-3.83-1.243-8.491,1.784-11.563c4.372-4.437,5.533-9.984,5.606-14.194       c-4.26,1.272-9.274,3.668-11.849,7.409c-1.855,2.695-4.911,4.313-8.184,4.331c-0.019,0-0.036,0-0.055,0       c-3.252,0-6.302-1.581-8.176-4.242C414.614,406.755,412.859,405.373,411.104,404.351z M392.066,395.805       c-2.229,2.519-4.551,4.954-6.963,7.304c-8.355,8.141-17.735,15.196-28.095,21.146c12.395-0.905,24.726-2.437,37.288-4.189       c-2.224-5.011-3.31-10.567-3.161-16.479C391.154,402.868,391.277,399.584,392.066,395.805z"/></g></g><g><path d="M225.822,168.494c0.834-40.797-35.141-39.127-72.877-37.366      c-20.12,0.927-36.068,1.762-42.188,12.888c-10.57,19.379,5.471,86.136,21.512,93.833c9.086,4.356,68.055,7.324,80.016-6.584      C219.889,222.55,226.193,185.461,225.822,168.494L225.822,168.494z" style="fill:#FFFFFF;"/><g><path d="M165.832,251.475c-0.001,0-0.003,0-0.005,0c-13.041,0-30.786-1.208-37.88-4.609       c-8.562-4.108-16.044-15.932-22.241-35.144c-7.744-24.008-12.214-56.935-3.727-72.495       c8.894-16.171,29.106-17.102,50.506-18.088c7.554-0.353,15.372-0.717,22.793-0.717c17.341,0,36.739,1.705,49.125,14.346       c7.833,7.996,11.676,19.342,11.421,33.723c0.262,14.701-4.955,56.685-16.004,69.348       C212.055,246.869,193.875,251.475,165.832,251.475z M136.573,228.817c2.418,0.917,13.587,2.657,29.254,2.658       c24.104,0,36.638-4.128,38.876-6.731c4.498-5.156,11.52-37.805,11.121-56.031c-0.003-0.141-0.003-0.282,0-0.423       c0.185-9.03-1.682-15.417-5.707-19.525c-5.653-5.77-16.398-8.343-34.839-8.343c-6.955,0-14.198,0.338-21.867,0.696       c-15.645,0.721-30.417,1.402-33.891,7.718c-2.932,5.375-3.332,22.09,1.607,43.579       C126.27,214.786,133.682,227.098,136.573,228.817z"/></g></g><g><path d="M399.855,144.016c-6.118-11.219-22.994-11.96-43.114-12.888      c-37.272-1.761-72.505-3.523-71.671,37.366c-0.465,16.967,4.635,54.056,12.238,62.864c12.054,13.814,71.023,10.94,80.018,6.582      C391.975,230.894,411.169,164.784,399.855,144.016z" style="fill:#FFFFFF;"/><g><path d="M344.007,251.537c-0.002,0-0.003,0-0.005,0c-28.107,0-46.353-4.578-54.229-13.604       c-11.096-12.854-15.04-55.166-14.705-69.471c-0.253-14.517,3.59-25.929,11.424-33.924       c12.196-12.448,31.141-14.126,48.063-14.126c7.273,0,14.959,0.363,22.393,0.714l0.451,0.021       c21.826,1.006,42.441,1.956,51.235,18.081c11.265,20.679-1.004,61.56-3.578,69.545c-4.686,14.537-12.548,32.96-23.396,38.178       C374.683,250.333,357.013,251.537,344.007,251.537z M334.556,140.412c-17.856,0-28.273,2.505-33.778,8.123       c-4.028,4.112-5.896,10.574-5.709,19.755c0.003,0.16,0.003,0.319-0.002,0.478c-0.499,18.206,5.187,50.687,9.812,56.055       c2.243,2.571,14.889,6.713,39.124,6.713c0.001,0,0.004,0,0.005,0c15.444,0,26.462-1.692,28.948-2.6       c2.899-1.99,10.424-14.513,15.987-36.472c5.652-22.313,5.067-38.276,2.132-43.665c-3.4-6.235-18.554-6.934-34.596-7.673       l-0.474-0.022C348.472,140.749,341.356,140.412,334.556,140.412z"/></g></g><g><path d="M344.621,55.5c-5.298,0-9.592-1.659-12.762-4.933c-3.542-3.659-5.156-8.766-4.935-15.612      c0.007-0.199,0.02-0.396,0.037-0.594c0.889-9.639,8.658-19.939,27.8-19.939c6.27,0,13.147,1.187,19.365,3.341l0,0      c1.035,0.361,5.771,2.146,10.554,4.545c6.649,3.337,13.61,7.719,14.816,14.922c0.766,4.573-1.087,9.067-4.955,12.021      c-1.762,1.346-3.9,2.053-6.07,2.053c-0.857,0-1.718-0.11-2.563-0.334c-2.44-0.647-5.021-0.961-7.891-0.961      c-6.376,0-12.974,1.608-18.795,3.026C354.023,54.302,349.111,55.5,344.621,55.5z" style="fill:#669014;"/><path d="M354.762,24.421c5.254,0,10.963,1.013,16.092,2.79c0.837,0.278,24.295,8.994,17.618,14.094      c-3.497-0.928-7.005-1.296-10.454-1.296c-13.314,0-25.762,5.491-33.397,5.491c-5.017,0-7.955-2.369-7.7-10.222      C337.63,27.582,345.484,24.421,354.762,24.421 M354.762,4.421c-8.343,0-15.647,1.677-21.712,4.985      c-9.254,5.048-15.103,13.809-16.046,24.036c-0.036,0.395-0.061,0.792-0.073,1.188c-0.311,9.562,2.295,17.264,7.743,22.891      c3.524,3.64,9.845,7.979,19.946,7.979c5.692,0,11.172-1.335,16.972-2.749c5.531-1.348,11.251-2.742,16.426-2.742      c1.992,0,3.734,0.205,5.326,0.627c1.691,0.449,3.414,0.668,5.127,0.668c4.342,0,8.617-1.414,12.142-4.106      c6.865-5.244,10.136-13.327,8.747-21.62c-1.956-11.685-11.82-18.007-20.194-22.208c-5.232-2.625-10.297-4.543-11.765-5.056      l0.001-0.001C370.052,5.767,362.224,4.421,354.762,4.421L354.762,4.421z"/></g><g><path d="M150.768,65.303c-4.814,0-9.911-1.243-15.813-2.682c-6.462-1.576-13.786-3.361-20.931-3.361      c-3.236,0-6.153,0.354-8.918,1.084c-0.842,0.222-1.699,0.331-2.551,0.331c-2.235,0-4.433-0.75-6.222-2.171      c-3.929-3.122-5.735-7.786-4.833-12.478c1.128-5.868,5.845-10.482,15.772-15.431c4.998-2.491,9.914-4.354,11.448-4.873l0-0.001      c6.679-2.266,14.06-3.514,20.785-3.514c20.454,0,28.731,10.834,29.658,20.974c0.018,0.192,0.03,0.385,0.036,0.578      c0.241,7.235-1.437,12.607-5.128,16.423C160.784,63.58,156.308,65.303,150.768,65.303z" style="fill:#669014;"/><path d="M139.504,32.207c10.239,0,18.929,3.45,19.7,11.884c0.287,8.611-2.934,11.211-8.437,11.211      c-8.389,0-22.083-6.043-36.744-6.043c-3.784,0-7.631,0.402-11.469,1.415c-7.233-5.748,18.45-15.206,19.378-15.484      C127.53,33.292,133.76,32.207,139.504,32.207 M139.504,12.207c-7.901,0-16.2,1.398-23.998,4.044l0,0.002      c-2.334,0.791-7.649,2.876-12.696,5.392c-8.654,4.314-18.876,10.769-21.131,22.493c-1.619,8.417,1.534,16.714,8.432,22.195      c3.577,2.842,7.974,4.341,12.443,4.341c1.704,0,3.417-0.218,5.102-0.662c1.921-0.507,4.003-0.753,6.367-0.753      c5.944,0,12.358,1.564,18.562,3.077c6.256,1.525,12.166,2.966,18.182,2.966c10.405,0,16.886-4.442,20.49-8.168      c5.596-5.786,8.266-13.762,7.935-23.708c-0.013-0.386-0.037-0.771-0.072-1.155C177.854,28.402,166.718,12.207,139.504,12.207      L139.504,12.207z"/></g><g><path d="M329.668,168.586c-8.16,0-14.834,6.675-14.834,14.835s6.674,14.834,14.834,14.834      c8.159,0,14.836-6.675,14.836-14.834S337.827,168.586,329.668,168.586z" style="fill:#586136;"/><g><path d="M329.668,208.256c-13.693,0-24.834-11.141-24.834-24.834s11.141-24.835,24.834-24.835       c13.694,0,24.836,11.141,24.836,24.835S343.362,208.256,329.668,208.256z M329.668,178.586c-2.62,0-4.834,2.214-4.834,4.835       s2.214,4.834,4.834,4.834c2.621,0,4.836-2.214,4.836-4.834S332.289,178.586,329.668,178.586z"/></g></g><g><path d="M181.596,168.586c-8.16,0-14.836,6.675-14.836,14.835s6.676,14.834,14.836,14.834      c8.159,0,14.834-6.675,14.834-14.834S189.755,168.586,181.596,168.586z" style="fill:#586136;"/><g><path d="M181.596,208.256c-13.695,0-24.836-11.141-24.836-24.834s11.141-24.835,24.836-24.835       c13.693,0,24.834,11.141,24.834,24.835S195.289,208.256,181.596,208.256z M181.596,178.586c-2.622,0-4.836,2.214-4.836,4.835       s2.214,4.834,4.836,4.834c2.62,0,4.834-2.214,4.834-4.834S184.216,178.586,181.596,178.586z"/></g></g><g><path d="M274.037,222.55c-3.988-11.498-5.563-27.91-14.186-30.32c-1.854-0.463-8.346-0.463-10.2,0      c-9.271,2.597-10.015,20.491-15.763,34.493c14.278,0,17.895,8.993,21.975,8.993C259.852,235.715,261.706,225.238,274.037,222.55      z" style="fill:#F8D203;"/><g><path d="M255.863,245.715c-4.927,0-8.327-2.718-10.81-4.703c-2.879-2.302-5.366-4.29-11.165-4.29       c-3.334,0-6.449-1.662-8.306-4.431c-1.856-2.77-2.211-6.282-0.945-9.367c1.622-3.949,2.863-8.538,4.063-12.976       c3.051-11.277,6.509-24.059,18.253-27.348c0.09-0.025,0.182-0.049,0.273-0.072c0.64-0.16,2.585-0.646,7.524-0.646       c4.94,0,6.885,0.486,7.524,0.646c0.09,0.022,0.18,0.046,0.269,0.071c11.924,3.334,15.368,16.381,18.407,27.892       c0.841,3.183,1.634,6.188,2.534,8.782c0.937,2.702,0.673,5.675-0.727,8.169c-1.398,2.494-3.798,4.27-6.592,4.879       c-4.079,0.889-5.841,3.13-8.071,5.967C265.911,241.065,262.255,245.715,255.863,245.715z M246.956,219.013       c3.178,1.214,5.693,2.742,7.677,4.152c1.776-2.032,4.131-4.349,7.304-6.35c-0.108-0.408-0.216-0.814-0.322-1.219       c-1.151-4.36-3.028-11.467-4.746-13.662c-0.514-0.028-1.223-0.053-2.117-0.053c-0.906,0-1.622,0.025-2.137,0.054       c-1.586,2.071-3.388,8.729-4.607,13.236C247.671,216.415,247.323,217.701,246.956,219.013z"/></g></g></g></g></g><g id="Layer_1"/></svg>