<?xml version="1.0" ?><!DOCTYPE svg  PUBLIC '-//W3C//DTD SVG 1.1//EN'  'http://www.w3.org/Graphics/SVG/1.1/DTD/svg11.dtd'><svg height="512px" style="enable-background:new 0 0 512 512;" version="1.1" viewBox="0 0 512 512" width="512px" xml:space="preserve" xmlns="http://www.w3.org/2000/svg" xmlns:xlink="http://www.w3.org/1999/xlink"><g id="comp_x5F_107-ebay"><g><g><g><path d="M414.688,353.194h-25.806c-1.752,0-3.376-0.917-4.281-2.417c-0.904-1.499-0.959-3.363-0.143-4.913l19.256-36.554      l-30.105-56.833v37.633c0,6.77,0.229,13.118,0.662,18.397c0.05,0.282,0.075,0.573,0.075,0.869c0,2.762-2.238,5-5,5      c-0.006,0-0.014,0-0.02,0h-21.42c-2.539,0-4.675-1.902-4.967-4.425c-0.132-1.138-0.248-2.284-0.348-3.443      c-10.084,8.188-22.438,11.675-39.976,11.675c-14.521,0-26.82-3.729-35.567-10.785c-4.842-3.904-8.426-8.701-10.59-14.056      c-10.529,15.6-28.488,24.987-49.595,24.987c-14.48,0-27.677-4.178-37.684-11.717c-0.097,1.128-0.208,2.257-0.334,3.386      c-0.282,2.532-2.422,4.447-4.969,4.447h-22.645c-1.369,0-2.677-0.562-3.621-1.553s-1.44-2.325-1.373-3.692      c0.163-3.308,0.368-7.492,0.528-11.809c-11.104,15.155-32.324,20.938-51.461,20.938c-20.996,0-37.337-5.574-48.57-16.567      c-10.294-10.075-15.735-24.471-15.735-41.629c0-38.629,23.569-60.784,64.665-60.784c23.455,0,41.141,8.249,51.359,23.108      v-58.652c0-2.761,2.239-5,5-5h23.075c2.761,0,5,2.239,5,5v46.416c9.806-7.223,22.266-10.872,37.197-10.872      c22.359,0,44.928,11.861,54.473,34.781c2.683-22.483,22.646-34.854,56.302-34.854c13.312,0,24.51,2.207,33.281,6.487      c0.034-0.062,0.069-0.123,0.105-0.184c0.904-1.502,2.53-2.42,4.283-2.42h26.956c1.895,0,3.626,1.071,4.473,2.766l34.99,70.041      l34.923-70.038c0.846-1.697,2.579-2.769,4.475-2.769h24.44c1.739,0,3.354,0.904,4.263,2.387      c0.909,1.483,0.982,3.332,0.192,4.882l-71.31,140.034C418.291,352.139,416.569,353.194,414.688,353.194z M397.168,343.194      h14.456l66.218-130.034h-13.189l-38.013,76.234c-0.846,1.695-2.577,2.768-4.473,2.769c-0.001,0-0.001,0-0.002,0      c-1.895,0-3.626-1.07-4.473-2.766l-38.086-76.237h-15.563l3.952,7.471c0.254,0.481,0.423,0.986,0.51,1.496      c0.424,0.382,0.789,0.843,1.072,1.376l44.209,83.46c0.774,1.461,0.776,3.209,0.006,4.671L397.168,343.194z M164.668,290.429      c1.47,0,2.9,0.649,3.869,1.831c8.368,10.213,22.338,16.07,38.329,16.07c23.505,0,42.289-13.825,47.854-35.222      c0.155-0.598,0.414-1.144,0.75-1.621c-0.078-0.538-0.068-1.098,0.04-1.66c0.656-3.407,0.989-7.008,0.989-10.701      c0-34.2-25.504-49.776-49.201-49.776c-16.999,0-29.549,5.106-38.368,15.611c-1.352,1.61-3.566,2.203-5.541,1.483      c-1.975-0.719-3.289-2.597-3.289-4.698v-52.94h-13.075v116.848c0,5.897-0.274,12.922-0.546,18.793h12.844      c0.229-3.039,0.345-6.058,0.345-9.018c0-2.112,1.328-3.997,3.317-4.708C163.537,290.523,164.105,290.429,164.668,290.429z       M85.666,209.35c-35.762,0-54.665,17.561-54.665,50.784c0,31.08,19.286,48.196,54.306,48.196      c18.818,0,39.955-6.208,46.845-23.141h-13.835c-5.448,10.847-18.353,17.912-33.358,17.912      c-19.026,0-38.931-11.793-40.512-38.141c-0.083-1.376,0.406-2.725,1.352-3.728c0.944-1.004,2.262-1.572,3.64-1.572h87.589v-1.11      C137.025,215.742,104.847,209.35,85.666,209.35z M264.509,273.652c0.074,0.517,0.068,1.054-0.028,1.594      c-0.286,1.604-0.426,3.434-0.426,5.591c0,13.612,11.924,27.347,38.563,27.347c19.585,0,30.973-4.622,40.619-16.483      c1.334-1.642,3.56-2.265,5.553-1.558c1.994,0.709,3.326,2.596,3.326,4.712c0,3.335,0.111,6.483,0.338,9.522h11.516      c-0.238-4.364-0.359-9.141-0.359-14.267v-47.158c0-5.735-1.001-10.777-2.977-14.985c-0.195-0.417-0.329-0.848-0.403-1.282      c-0.355-0.32-0.671-0.697-0.931-1.127c-8.145-13.456-26.914-16.28-41.227-16.28c-18.114,0-39.792,3.807-45.286,20.983h14.13      c3.376-9.657,14.272-15.672,29.145-15.672c28.492,0,34.473,15.62,34.473,28.724v2.444c0,2.761-2.238,5-5,5      c-7.673,0-19.082,0.05-29.866,0.286c-30.411,0.646-46.439,7.36-50.446,21.127C265.063,272.714,264.818,273.212,264.509,273.652z       M55.096,269.661c3.402,17.183,17.747,23.44,29.862,23.44c12.224,0,22.39-5.827,25.298-14.501      c0.683-2.038,2.592-3.411,4.741-3.411h22.029v-5.528H55.096z M263.611,239.212c1.369,4.403,2.287,9.164,2.676,14.273      c12.742-10.205,33.08-12.099,49.164-12.441c8.683-0.19,17.759-0.26,24.996-0.281c-0.605-8.369-4.803-16.175-24.387-16.175      c-8.788,0-19.349,2.927-20.186,11.177c-0.26,2.553-2.409,4.495-4.975,4.495h-24.226      C265.558,240.261,264.481,239.887,263.611,239.212z M308.44,303.304c-20.834,0-30.159-11.825-30.159-23.545      c0-21.987,26.19-22.796,38.776-23.185c7.658-0.292,16.984-0.434,28.476-0.434c2.762,0,5,2.238,5,5v2.374      C350.533,288.429,334.798,303.304,308.44,303.304z M340.463,266.149c-9.073,0.036-16.653,0.175-23.061,0.418      c-26.874,0.831-29.121,7.245-29.121,13.191c0,6.548,5.296,13.545,20.159,13.545      C328.468,293.304,339.489,283.931,340.463,266.149z M201.114,302.517c-24.191,0-41.086-17.961-41.086-43.677      c0-25.715,16.895-43.675,41.086-43.675c24.192,0,41.088,17.96,41.088,43.675C242.202,284.556,225.306,302.517,201.114,302.517z       M201.114,225.165c-18.593,0-31.086,13.533-31.086,33.675c0,20.144,12.493,33.677,31.086,33.677      c18.885,0,31.088-13.219,31.088-33.677C232.202,238.383,220,225.165,201.114,225.165z M117.728,254.279h-67.86      c-1.432,0-2.794-0.614-3.743-1.685c-0.949-1.072-1.393-2.499-1.22-3.92c2.881-23.636,22.609-34.401,39.72-34.401      c17.645,0,37.093,10.889,38.099,34.796c0.057,1.361-0.443,2.687-1.387,3.67C120.394,253.723,119.09,254.279,117.728,254.279z       M56.003,244.279h56.069c-3.013-13.772-15.41-20.006-27.448-20.006C72.842,224.273,60.206,230.51,56.003,244.279z"/></g></g></g></g><g id="Layer_1"/></svg>