<?xml version="1.0" ?><!DOCTYPE svg  PUBLIC '-//W3C//DTD SVG 1.1//EN'  'http://www.w3.org/Graphics/SVG/1.1/DTD/svg11.dtd'><svg height="512px" style="enable-background:new 0 0 512 512;" version="1.1" viewBox="0 0 512 512" width="512px" xml:space="preserve" xmlns="http://www.w3.org/2000/svg" xmlns:xlink="http://www.w3.org/1999/xlink"><g id="comp_x5F_109-elementor"><g><g><g><g><path d="M462.1,27.001H49.9c-12.676,0-22.898,10.223-22.898,22.899V462.1       c0,12.677,10.223,22.899,22.898,22.899H462.1c12.677,0,22.898-10.223,22.898-22.899V49.9       C484.998,37.224,474.776,27.001,462.1,27.001" style="fill:#D63362;"/><path d="M462.1,494.999H49.9c-18.14,0-32.898-14.759-32.898-32.899V49.9       c0-18.141,14.758-32.899,32.898-32.899H462.1c18.141,0,32.898,14.759,32.898,32.899V462.1       C494.998,480.24,480.24,494.999,462.1,494.999z M49.9,37.001c-7.112,0-12.898,5.787-12.898,12.899V462.1       c0,7.112,5.786,12.899,12.898,12.899H462.1c7.112,0,12.898-5.787,12.898-12.899V49.9c0-7.113-5.786-12.899-12.898-12.899H49.9z       " style="fill:#A1264A;"/></g></g><rect height="43.552" style="fill:#FFFFFF;" width="119.27" x="238.553" y="151.314"/><rect height="43.551" style="fill:#FFFFFF;" width="119.27" x="238.553" y="227.647"/><rect height="43.551" style="fill:#FFFFFF;" width="119.27" x="238.553" y="303.981"/><rect height="196.286" style="fill:#FFFFFF;" width="43.619" x="162.219" y="151.314"/></g></g></g><g id="Layer_1"/></svg>