<?xml version="1.0" ?><!DOCTYPE svg  PUBLIC '-//W3C//DTD SVG 1.1//EN'  'http://www.w3.org/Graphics/SVG/1.1/DTD/svg11.dtd'><svg height="512px" style="enable-background:new 0 0 512 512;" version="1.1" viewBox="0 0 512 512" width="512px" xml:space="preserve" xmlns="http://www.w3.org/2000/svg" xmlns:xlink="http://www.w3.org/1999/xlink"><g id="comp_x5F_112-envato"><g><g><path d="M389.543,38.413c-15.687-7.729-95.278,1.1-152.656,56.293     c-90.396,90.502-88.229,209.741-88.229,209.741s-2.986,12.264-15.712-5.527c-27.866-35.608-13.275-117.533-11.633-128.948     c2.307-16.087-7.923-16.552-12.177-11.247C8.43,298.922,99.372,413.709,158.915,450.146     c69.72,42.656,207.231,42.628,262.004-78.374C489.153,221.094,409.208,48.063,389.543,38.413z" style="fill:#82B441;"/><g><path d="M257.257,485.999c-0.002,0-0.003,0-0.005,0c-37.431-0.001-75.176-9.96-103.556-27.323      c-35.976-22.016-82.704-71.068-95.998-136.862c-5.299-26.227-4.865-53.074,1.289-79.797      c6.887-29.904,21.026-59.891,42.027-89.125c0.103-0.144,0.209-0.284,0.32-0.422c3.4-4.24,8.533-6.771,13.729-6.771      c4.617,0,8.833,1.929,11.87,5.433c4.089,4.718,5.528,11.534,4.277,20.261c-0.096,0.666-0.232,1.554-0.401,2.648      c-11.146,72.346-0.307,103.583,8.369,116.455c0.915-13.04,3.39-34.165,10.02-59.51c10.128-38.715,32.335-95.01,80.612-143.345      c0.047-0.047,0.095-0.094,0.143-0.14c21.349-20.536,48.192-37.175,77.63-48.118C330.461,30.878,354.438,26,373.368,26      c9.03,0,15.959,1.158,20.595,3.442c16.403,8.049,41.643,64.415,53.997,120.617c12.573,57.196,19.669,142.806-17.932,225.837      c-16.955,37.457-42.349,66.102-75.474,85.136C326.131,477.365,292.485,485.999,257.257,485.999z M110.544,174.302      c-31.63,47.937-42.813,96.179-33.241,143.55c12.019,59.485,54.288,103.849,86.832,123.764      c25.326,15.495,59.266,24.382,93.117,24.383c33.085,0.001,114.374-9.581,154.557-98.352      c34.864-76.989,28.612-156.949,17.229-210.471c-5.78-27.176-14.506-54.5-24.568-76.939c-10.164-22.667-17.53-31.448-19.5-32.922      C383.772,46.816,380.092,46,373.368,46c-24.69,0-83.511,11.677-129.477,55.844c-86.332,86.491-85.256,201.272-85.235,202.421      c0.016,0.857-0.08,1.714-0.282,2.548c-1.379,5.661-6.36,11.754-14.041,11.754c-8.548,0-15.147-7.742-19.398-13.658      C106.146,280.723,101.309,236.795,110.544,174.302z" style="fill:#628731;"/></g></g></g></g><g id="Layer_1"/></svg>