<?xml version="1.0" ?><!DOCTYPE svg  PUBLIC '-//W3C//DTD SVG 1.1//EN'  'http://www.w3.org/Graphics/SVG/1.1/DTD/svg11.dtd'><svg height="512px" style="enable-background:new 0 0 512 512;" version="1.1" viewBox="0 0 512 512" width="512px" xml:space="preserve" xmlns="http://www.w3.org/2000/svg" xmlns:xlink="http://www.w3.org/1999/xlink"><g id="comp_x5F_118-Evernote"><g><g><g><path d="M88.899,91.268h37.007c2.128,0,3.836-1.711,3.836-3.795c0,0-0.437-31.544-0.437-40.285v-0.1      c0-7.199,1.512-13.472,4.173-18.734L134.749,26c-0.146,0.023-0.291,0.101-0.411,0.224L62.475,97.073      c-0.146,0.125-0.219,0.269-0.269,0.419c1.489-0.737,3.521-1.743,3.809-1.861C72.243,92.793,79.817,91.268,88.899,91.268z" style="fill:#00A82D;"/><path d="M62.208,107.492c-2.364,0-4.704-0.837-6.563-2.453c-3.044-2.647-4.2-6.863-2.932-10.692      c0.57-1.719,1.546-3.262,2.839-4.493l71.734-70.722c1.612-1.608,3.64-2.646,5.873-3.006c3.763-0.605,7.537,0.978,9.742,4.081      c2.206,3.104,2.457,7.192,0.648,10.542l-1.202,2.226c-2.019,4.04-3.042,8.787-3.042,14.112v0.1      c0,8.571,0.431,39.832,0.436,40.146c0,0.046,0.001,0.092,0.001,0.138c0,7.607-6.207,13.795-13.836,13.795H88.899      c-7.39,0-13.695,1.165-18.739,3.463c-0.042,0.019-0.083,0.038-0.125,0.056c-0.532,0.249-2.046,1-3.248,1.595l-0.147,0.073      C65.233,107.151,63.715,107.492,62.208,107.492z M92.749,81.268h26.909c-0.091-6.929-0.231-18.092-0.305-26.229L92.749,81.268z" style="fill:#007E22;"/></g><g><path d="M439.251,106.068c-3.444-18.372-14.425-27.424-24.343-30.961      c-10.717-3.857-32.424-7.851-59.691-11.038c-21.93-2.592-47.734-2.358-63.334-1.903c-1.861-12.734-10.865-24.373-20.896-28.4      c-26.777-10.721-68.186-8.134-78.79-5.174c-8.427,2.357-17.777,7.162-22.994,14.578c-3.497,4.943-5.732,11.297-5.764,20.15      c0,5.003,0.149,16.816,0.262,27.311c0.144,10.52,0.255,19.952,0.255,20.007c0,9.367-7.654,16.991-17.118,17.024h-43.432      c-9.259,0-16.343,1.545-21.73,3.991c-5.417,2.442-9.265,5.75-12.16,9.629c-5.788,7.737-6.793,17.308-6.793,27.054      c0,0,0.088,7.963,2.012,23.371c1.603,11.934,14.614,95.271,26.976,120.626c4.784,9.866,7.971,13.973,17.402,18.318      c20.984,8.936,68.896,18.856,91.344,21.694c22.423,2.85,36.497,8.858,44.868-8.62c0.092-0.025,1.721-4.338,4.021-10.664      c7.274-21.933,8.281-41.396,8.281-55.482c0-1.438,2.12-1.496,2.12,0c0,9.944-1.892,45.136,24.829,54.563      c10.55,3.709,32.455,7.042,54.677,9.631c20.095,2.3,34.688,10.178,34.688,61.461c0,31.22-6.594,35.504-41.059,35.504      c-27.957,0-38.589,0.72-38.589-21.355c0-17.826,17.745-15.961,30.908-15.961c5.873,0,1.602-4.339,1.602-15.344      c0-10.956,6.879-17.283,0.375-17.453c-45.47-1.235-72.221-0.058-72.221,56.49C254.93,476.49,274.683,486,339.219,486      c50.603,0,68.441-1.632,89.336-66.115c4.132-12.738,14.136-51.576,20.186-116.744      C452.578,261.879,445.127,137.457,439.251,106.068z M351.028,243.597c-6.246-0.227-12.271,0.174-17.857,1.065      c1.577-12.651,6.823-28.204,25.458-27.572c20.645,0.722,23.509,20.097,23.598,33.236      C373.54,246.476,362.758,244.002,351.028,243.597z" style="fill:#00A82D;"/><path d="M339.219,496c-31.749,0-56.134-2.193-71.947-12.896c-19.683-13.321-22.325-36.792-22.313-57.995      c0-27.132,5.965-44.59,18.771-54.936c12.121-9.792,28.22-11.799,48.663-11.799c5.029,0,10.209,0.122,15.058,0.254      c5.708,0.149,8.798,2.852,10.382,5.092c3.584,5.068,1.818,10.516,0.649,14.12c-0.786,2.425-1.678,5.173-1.678,8.237      c0,3.163,0.457,5.621,0.859,7.79c0.683,3.671,1.616,8.698-2.099,13.167c-2.42,2.911-5.906,4.387-10.362,4.387      c-1.158,0-2.35-0.014-3.563-0.028c-1.174-0.014-2.367-0.027-3.567-0.027c-13.778,0-13.778,2.265-13.778,6.017      c0,8.387,1.709,9.26,2.271,9.547c3.543,1.812,13.04,1.825,21.377,1.812l4.941-0.003c11.731,0,23.128-0.451,27.044-3.721      c2.776-2.317,4.015-9.036,4.015-21.783c0-48.57-13.129-50.072-25.825-51.525c-27.831-3.243-46.954-6.651-56.856-10.133      c-8.795-3.103-15.145-8.248-19.728-14.342c-0.793,2.941-1.688,5.938-2.695,8.977c-0.029,0.09-0.061,0.18-0.094,0.27      c-1.167,3.209-2.164,5.907-2.88,7.807c-0.499,1.322-0.976,2.587-1.557,3.741l0.038,0.018      c-5.687,11.874-14.745,17.646-27.693,17.646c-5.363,0-11.152-0.929-17.28-1.912c-3.25-0.521-6.611-1.061-10.175-1.514      c-23.983-3.031-72.53-13.271-94.001-22.414c-0.089-0.038-0.178-0.077-0.267-0.118c-12.094-5.572-16.8-11.868-22.216-23.037      C68.545,287.64,54.946,193.956,54.823,193.039c-1.983-15.88-2.096-24.243-2.1-24.591c0-0.037,0-0.074,0-0.11      c0-10.533,1.044-22.696,8.786-33.044c4.175-5.592,9.429-9.768,16.058-12.756c7.116-3.23,15.818-4.874,25.84-4.874h43.432      c3.909-0.014,7.118-3.165,7.118-7.024c-0.003-0.248-0.113-9.533-0.254-19.871l-0.083-7.519c-0.092-8.25-0.18-16.042-0.18-19.929      c0.036-10.28,2.522-18.749,7.6-25.926c5.821-8.276,16.202-15.002,28.463-18.433c6.445-1.799,18.854-2.96,31.619-2.96      c14.78,0,36.075,1.472,53.583,8.481c11.08,4.449,20.509,15.132,24.892,27.5c3.834-0.068,7.609-0.102,11.291-0.102      c17.522,0,32.832,0.76,45.504,2.258c28.444,3.325,50.433,7.431,61.904,11.56c16.037,5.719,27.268,19.766,30.785,38.527      c5.914,31.594,13.578,157.252,9.617,199.841c-6.846,73.739-18.387,111.985-20.631,118.903C415.311,493.2,392.7,496,339.219,496z       M312.393,378.375c-19.17,0-29.627,2.131-36.095,7.356c-4.868,3.933-11.34,12.294-11.34,39.384      c-0.016,28.354,6.49,36.666,13.523,41.427c9.927,6.718,27.523,9.458,60.737,9.458c47.795,0,60.641,0,79.823-59.197      c1.306-4.027,12.95-41.434,19.741-114.587c3.756-40.383-3.758-164.375-9.361-194.307c-2.974-15.859-12.475-21.457-17.873-23.382      c-9.811-3.531-31.293-7.462-57.493-10.525c-11.908-1.407-26.428-2.121-43.169-2.121c-6.027,0-12.323,0.095-18.712,0.281      c-5.112,0.138-9.453-3.528-10.187-8.549c-1.479-10.111-8.691-18.143-14.728-20.567c-11.342-4.541-27.732-7.044-46.139-7.044      c-13.407,0-23.035,1.329-26.236,2.223c-7.776,2.175-14.321,6.176-17.503,10.7c-2.674,3.779-3.921,8.358-3.943,14.432      c0,3.739,0.087,11.477,0.178,19.67l0.083,7.499c0.136,9.991,0.255,19.911,0.255,20.114c0,14.849-12.149,26.972-27.083,27.024      h-43.467c-7.15,0-13.071,1.042-17.597,3.096c-3.528,1.591-6.152,3.654-8.28,6.506c-4.211,5.629-4.803,13.413-4.807,20.997      c0.011,0.573,0.187,8.207,1.935,22.208c2.609,19.427,15.267,95.381,26.042,117.483c4.168,8.595,5.937,10.534,12.465,13.557      c19.681,8.335,66.274,18.102,88.546,20.917c3.894,0.495,7.578,1.086,10.828,1.607c5.55,0.89,10.343,1.659,14.112,1.659      c4.904,0,7.1-0.95,9.655-6.285c0.011-0.023,0.022-0.047,0.034-0.07c0.374-0.927,1.532-3.983,3.559-9.555      c6.927-20.954,7.729-39.822,7.729-52.202c0-6.121,4.969-11.101,11.076-11.101c6.09,0,11.044,4.979,11.044,11.101      c0,0.576-0.006,1.233-0.013,1.963c-0.157,17.059,1.766,37.383,18.169,43.169c8.257,2.903,26.908,6.146,52.507,9.129      c10.833,1.239,23.11,4.172,31.873,16.501c7.954,11.19,11.658,28.633,11.658,54.893c0,17.155-1.873,29.352-11.195,37.136      c-8.426,7.034-20.511,8.368-39.863,8.368l-4.941,0.003c-14.094,0-23.178-0.27-30.481-4.004      c-11.801-6.033-13.166-18.501-13.166-27.354c0-10.445,4.683-18.452,13.185-22.546c6.031-2.904,12.944-3.425,19.593-3.468      c-0.16-1.588-0.268-3.354-0.268-5.291c0-2.836,0.331-5.401,0.792-7.663C315.849,378.391,314.105,378.375,312.393,378.375z       M242.597,334.105c-3.101,0.879-5.137,3.04-6.109,4.94C237.762,336.639,239.967,334.852,242.597,334.105z M382.226,260.326      c-1.375,0-2.756-0.283-4.052-0.857c-7.887-3.497-17.393-5.529-27.49-5.877c-1.049-0.038-2.073-0.057-3.088-0.057      c-4.356,0-8.679,0.337-12.849,1.003c-3.108,0.499-6.265-0.499-8.525-2.684c-2.262-2.185-3.363-5.307-2.974-8.428      c3.942-31.631,23.178-36.354,34.292-36.354c0.47,0,0.944,0.008,1.428,0.024c12.321,0.431,33.012,6.61,33.259,43.163      c0.022,3.395-1.679,6.57-4.519,8.431C386.054,259.774,384.145,260.326,382.226,260.326z M347.596,233.535      c1.259,0,2.536,0.023,3.796,0.069c6.482,0.224,12.823,1.025,18.84,2.366c-3.02-8.573-8.735-8.772-11.952-8.885      c-0.243-0.008-0.492-0.012-0.739-0.012c-2.75,0-7.583,0-11.038,6.468C346.866,233.537,347.23,233.535,347.596,233.535z" style="fill:#007E22;"/></g></g></g></g><g id="Layer_1"/></svg>