<?xml version="1.0" ?><!DOCTYPE svg  PUBLIC '-//W3C//DTD SVG 1.1//EN'  'http://www.w3.org/Graphics/SVG/1.1/DTD/svg11.dtd'><svg height="512px" style="enable-background:new 0 0 512 512;" version="1.1" viewBox="0 0 512 512" width="512px" xml:space="preserve" xmlns="http://www.w3.org/2000/svg" xmlns:xlink="http://www.w3.org/1999/xlink"><g id="comp_x5F_317-stack-exchange"><g><g><g><path d="M70.608,331.602h370.783v18.901c0,32.394-26.325,58.425-58.668,58.425h-17.07L287.67,486v-77.072      H129.275c-32.343,0-58.667-26.031-58.667-58.425V331.602z" style="fill:#1E5397;"/><g><path d="M287.668,496c-1.299,0-2.606-0.252-3.852-0.772c-3.723-1.555-6.146-5.193-6.146-9.228v-67.072H129.275       c-37.863,0-68.667-30.695-68.667-68.425v-18.901c0-5.522,4.477-10,10-10h370.783c5.522,0,10,4.478,10,10v18.901       c0,37.729-30.805,68.425-68.668,68.425h-12.963l-75.062,74.185C292.79,494.999,290.25,496,287.668,496z M80.608,341.602v8.901       c0,26.701,21.832,48.425,48.667,48.425H287.67c5.522,0,10,4.478,10,10v53.129l60.954-60.241       c1.872-1.851,4.397-2.888,7.029-2.888h17.07c26.836,0,48.668-21.724,48.668-48.425v-8.901H80.608z"/></g></g><g><rect height="73.034" style="fill:#376DB6;" width="370.783" x="70.608" y="232.552"/><g><path d="M441.392,315.586H70.608c-5.523,0-10-4.478-10-10v-73.034c0-5.523,4.477-10,10-10h370.783c5.522,0,10,4.477,10,10       v73.034C451.392,311.108,446.914,315.586,441.392,315.586z M80.608,295.586h350.783v-53.034H80.608V295.586z"/></g></g><g><rect height="73.033" style="fill:#4CA2DA;" width="370.783" x="70.608" y="131.858"/><g><path d="M441.392,214.892H70.608c-5.523,0-10-4.477-10-10v-73.033c0-5.523,4.477-10,10-10h370.783c5.522,0,10,4.477,10,10       v73.033C451.392,210.415,446.914,214.892,441.392,214.892z M80.608,194.892h350.783v-53.033H80.608V194.892z"/></g></g><g><path d="M382.634,26H129.275c-32.343,0-58.667,26.034-58.667,58.169v19.16h370.783v-19.16      C441.303,52.034,414.978,26,382.634,26z" style="fill:#91D8F4;"/><g><path d="M441.392,113.329H70.608c-5.523,0-10-4.477-10-10v-19.16C60.608,46.581,91.412,16,129.275,16h253.358       c37.81,0,68.654,30.568,68.758,68.141v19.188C451.392,108.852,446.914,113.329,441.392,113.329z M80.608,93.329h350.783v-9.16       C431.318,57.621,409.445,36,382.634,36H129.275c-26.835,0-48.667,21.608-48.667,48.169V93.329z"/></g></g></g></g></g><g id="Layer_1"/></svg>