<?xml version="1.0" ?><!DOCTYPE svg  PUBLIC '-//W3C//DTD SVG 1.1//EN'  'http://www.w3.org/Graphics/SVG/1.1/DTD/svg11.dtd'><svg height="512px" style="enable-background:new 0 0 512 512;" version="1.1" viewBox="0 0 512 512" width="512px" xml:space="preserve" xmlns="http://www.w3.org/2000/svg" xmlns:xlink="http://www.w3.org/1999/xlink"><g id="comp_x5F_121-facebook"><g><g><g><path d="M485.998,51.363v409.173c0,14.065-11.396,25.36-25.36,25.36H343.38V307.853h59.757l8.935-69.41      h-68.795v-44.357c0-20.125,5.545-33.78,34.397-33.78h36.759V98.184c-6.367-0.821-28.134-2.771-53.599-2.771      c-52.981,0-89.33,32.343-89.33,91.794v51.236h-59.963v69.41h59.963v178.146H51.364c-13.965,0-25.362-11.397-25.362-25.362      V51.363c0-13.965,11.397-25.362,25.362-25.362h409.171C474.603,26.001,485.998,37.398,485.998,51.363z" style="fill:#3B579D;"/><path d="M271.504,495.999H51.364c-19.499,0-35.362-15.863-35.362-35.362V51.363      c0-19.499,15.863-35.362,35.362-35.362h409.171c19.555,0,35.463,15.863,35.463,35.362v409.173      c0,19.498-15.862,35.36-35.36,35.36H343.38c-5.522,0-10-4.478-10-10V307.853c0-5.522,4.478-10,10-10h50.962l6.359-49.41h-57.425      c-5.522,0-10-4.477-10-10v-44.357c0-18.794,4.603-43.78,44.397-43.78h26.759v-43.083c-9.704-0.827-25.55-1.81-43.599-1.81      c-49.674,0-79.33,30.577-79.33,81.794v51.236c0,5.523-4.478,10-10,10h-49.963v49.41h49.963c5.522,0,10,4.478,10,10v178.146      C281.504,491.521,277.026,495.999,271.504,495.999z M51.364,36.001c-8.471,0-15.362,6.892-15.362,15.362v409.273      c0,8.471,6.891,15.362,15.362,15.362h210.14V317.853h-49.963c-5.523,0-10-4.478-10-10v-69.41c0-5.523,4.477-10,10-10h49.963      v-41.236c0-31.321,9.603-57.361,27.77-75.306c17.544-17.329,42.289-26.488,71.561-26.488c26.736,0,49.138,2.113,54.878,2.854      c4.987,0.644,8.721,4.89,8.721,9.918v62.121c0,5.523-4.478,10-10,10h-36.759c-21.99,0-24.397,7.616-24.397,23.78v34.357h58.795      c2.875,0,5.61,1.237,7.509,3.396c1.898,2.158,2.776,5.029,2.409,7.881l-8.935,69.41c-0.642,4.988-4.889,8.724-9.918,8.724      H353.38v158.044h107.258c8.47,0,15.36-6.891,15.36-15.36V51.363c0-8.471-6.937-15.362-15.463-15.362H51.364z" style="fill:#2C4176;"/></g></g></g></g><g id="Layer_1"/></svg>