<?xml version="1.0" ?><!DOCTYPE svg  PUBLIC '-//W3C//DTD SVG 1.1//EN'  'http://www.w3.org/Graphics/SVG/1.1/DTD/svg11.dtd'><svg height="512px" style="enable-background:new 0 0 512 512;" version="1.1" viewBox="0 0 512 512" width="512px" xml:space="preserve" xmlns="http://www.w3.org/2000/svg" xmlns:xlink="http://www.w3.org/1999/xlink"><g id="comp_x5F_126-feedburner"><g><g><g><path d="M404.002,328.304c0.072-0.385-0.076-0.263-0.432,0.304C395.679,410.313,331.905,474,254.396,474      c-77.263,0-140.873-63.286-149.092-144.618l0,0c-39.64,16.603-64.343,39.619-64.343,65.077c0,50.426,96.595,91.54,215.037,91.54      c118.47,0,215.039-41.114,215.039-91.54C471.038,368.441,445.176,344.98,404.002,328.304z" style="fill:#008ACB;"/><g><path d="M255.999,495.999c-58.601,0-113.95-9.823-155.851-27.659       c-44.615-18.992-69.186-45.229-69.186-73.881c0-28.878,25.03-55.265,70.479-74.301c2.924-1.224,6.254-0.99,8.977,0.63       c2.723,1.62,4.518,4.436,4.836,7.588C123.067,405.694,182.885,464,254.396,464c71.86,0,131.712-58.619,139.22-136.354       c0.149-1.547,0.657-3.038,1.483-4.354c2.846-4.534,6.789-5.211,8.888-5.211c1.998,0,3.935,0.602,5.567,1.69       c46.118,19.088,71.483,45.566,71.483,74.688c0,28.652-24.567,54.891-69.177,73.881       C369.964,486.176,314.61,495.999,255.999,495.999z M411.791,342.628c-6.261,36.994-23.632,70.86-49.695,96.451       c-15.098,14.823-32.487,26.239-51.221,33.854c34.935-4.001,66.933-11.833,93.152-22.995       c36.231-15.424,57.011-35.645,57.011-55.479C461.038,376.093,443.261,357.542,411.791,342.628z M97.25,344.031       c-29.592,14.659-46.289,32.684-46.289,50.428c0,19.832,20.783,40.054,57.02,55.479c25.087,10.68,55.46,18.31,88.631,22.454       c-18.126-7.563-34.962-18.7-49.644-33.05C121.101,414.057,103.733,380.61,97.25,344.031z" style="fill:#001818;"/></g></g><g><g><path d="M309.943,160.513c0.002,0.009,0.003,0.017,0.005,0.025c0.206,1.154,0.397,2.301,0.575,3.44       c0.002,0.008,0.003,0.016,0.004,0.023c0.179,1.146,0.344,2.286,0.494,3.418c0,0.004,0.001,0.008,0.001,0.011       c2.566,19.34,1.026,36.573-3.715,51.079c0,0.002-0.001,0.003-0.001,0.004c-0.277,0.85-0.566,1.689-0.865,2.521       c-0.004,0.009-0.007,0.018-0.01,0.026c-0.298,0.824-0.604,1.638-0.923,2.443c-0.006,0.013-0.011,0.026-0.017,0.04       c-0.316,0.8-0.643,1.59-0.979,2.37c-0.009,0.02-0.018,0.038-0.025,0.058c-0.334,0.773-0.679,1.537-1.032,2.292       c-0.014,0.027-0.026,0.055-0.04,0.083c-0.351,0.745-0.711,1.481-1.08,2.209c-0.018,0.034-0.035,0.067-0.053,0.102       c-0.367,0.719-0.742,1.429-1.128,2.129c-0.022,0.042-0.046,0.082-0.068,0.124c-0.382,0.691-0.772,1.374-1.172,2.048       c-0.028,0.047-0.057,0.094-0.085,0.142c-0.396,0.663-0.799,1.318-1.211,1.964c-0.037,0.058-0.074,0.113-0.111,0.171       c-0.407,0.635-0.821,1.261-1.245,1.878c-0.043,0.062-0.086,0.123-0.129,0.185c-0.42,0.607-0.847,1.208-1.282,1.799       c-0.051,0.068-0.103,0.136-0.153,0.204c-0.432,0.58-0.868,1.153-1.313,1.716c-0.06,0.074-0.119,0.147-0.179,0.222       c-0.44,0.552-0.886,1.097-1.34,1.632c-0.07,0.083-0.143,0.163-0.213,0.245c-0.448,0.523-0.9,1.039-1.361,1.546       c-0.079,0.087-0.16,0.172-0.24,0.258c-0.456,0.496-0.917,0.986-1.386,1.467c-0.09,0.092-0.182,0.181-0.271,0.271       c-0.463,0.469-0.93,0.932-1.404,1.385c-0.102,0.098-0.206,0.191-0.308,0.288c-0.468,0.44-0.939,0.876-1.418,1.302       c-0.114,0.102-0.23,0.199-0.346,0.3c-0.472,0.414-0.947,0.823-1.43,1.223c-0.126,0.104-0.255,0.204-0.381,0.308       c-0.477,0.388-0.955,0.771-1.44,1.144c-0.141,0.108-0.284,0.212-0.426,0.319c-0.478,0.36-0.957,0.718-1.443,1.063       c-0.154,0.11-0.311,0.215-0.466,0.323c-0.479,0.336-0.961,0.668-1.449,0.989c-0.167,0.11-0.337,0.216-0.505,0.323       c-0.482,0.312-0.966,0.62-1.455,0.918c-0.181,0.11-0.364,0.215-0.546,0.322c-0.482,0.287-0.967,0.572-1.457,0.847       c-0.195,0.109-0.395,0.213-0.592,0.32c-0.482,0.263-0.965,0.524-1.453,0.775c-0.21,0.107-0.424,0.209-0.635,0.314       c-0.482,0.24-0.965,0.479-1.453,0.708c-0.225,0.104-0.452,0.202-0.678,0.305c-0.48,0.218-0.962,0.436-1.449,0.643       c-0.24,0.102-0.484,0.196-0.727,0.295c-0.478,0.196-0.955,0.392-1.438,0.576c-0.258,0.099-0.52,0.188-0.779,0.284       c-0.474,0.174-0.946,0.349-1.425,0.511c-0.272,0.093-0.548,0.178-0.821,0.267c-0.473,0.153-0.944,0.31-1.422,0.452       c-0.285,0.086-0.573,0.163-0.859,0.245c-0.472,0.135-0.942,0.271-1.418,0.396c-0.302,0.079-0.606,0.148-0.91,0.224       c-0.466,0.115-0.931,0.232-1.401,0.338c-0.318,0.071-0.642,0.134-0.963,0.2c-0.46,0.096-0.919,0.195-1.383,0.282       c-0.333,0.062-0.669,0.114-1.003,0.171c-0.459,0.079-0.915,0.161-1.377,0.23c-0.348,0.053-0.699,0.094-1.048,0.142       c-0.453,0.061-0.905,0.126-1.362,0.179c-0.359,0.041-0.724,0.071-1.085,0.107c-0.452,0.045-0.902,0.094-1.357,0.131       c-0.371,0.029-0.747,0.048-1.12,0.072c-0.449,0.028-0.896,0.062-1.349,0.083c-0.388,0.018-0.778,0.023-1.167,0.034       c-0.444,0.014-0.886,0.031-1.332,0.037c-0.402,0.004-0.808-0.004-1.211-0.005c-0.438-0.002-0.873,0.001-1.313-0.009       c-0.422-0.009-0.847-0.031-1.27-0.048c-0.428-0.017-0.853-0.027-1.282-0.051c-0.439-0.024-0.884-0.062-1.325-0.094       c-0.416-0.03-0.831-0.054-1.249-0.091c-0.456-0.04-0.917-0.095-1.376-0.143c-0.408-0.044-0.814-0.08-1.225-0.13       c-0.474-0.057-0.95-0.129-1.426-0.194c-0.398-0.056-0.795-0.104-1.195-0.165c-0.495-0.076-0.993-0.167-1.491-0.252       c-0.384-0.066-0.767-0.125-1.152-0.196c-0.534-0.1-1.072-0.214-1.608-0.324c-0.352-0.072-0.701-0.137-1.054-0.213       c-0.598-0.131-1.198-0.277-1.799-0.422c-0.295-0.07-0.588-0.133-0.884-0.207c-0.897-0.225-1.797-0.464-2.699-0.719       c0.952-1.556,1.87-3.089,2.771-4.61c0.188-0.315,0.376-0.633,0.562-0.947c0.867-1.476,1.713-2.938,2.532-4.381       c0.138-0.242,0.271-0.481,0.406-0.724c0.751-1.332,1.482-2.65,2.193-3.956c0.117-0.214,0.237-0.431,0.354-0.645       c0.762-1.408,1.497-2.797,2.213-4.174c0.154-0.299,0.308-0.595,0.46-0.892c0.719-1.395,1.421-2.778,2.093-4.143       c0.025-0.05,0.048-0.1,0.073-0.15c0.655-1.333,1.283-2.646,1.895-3.951c0.125-0.265,0.25-0.53,0.373-0.794       c0.605-1.304,1.191-2.594,1.754-3.869c0.099-0.224,0.193-0.444,0.291-0.667c0.524-1.2,1.032-2.388,1.52-3.563       c0.06-0.146,0.123-0.293,0.183-0.438c0.519-1.258,1.012-2.499,1.488-3.729c0.096-0.249,0.191-0.497,0.286-0.745       c0.473-1.235,0.93-2.462,1.36-3.67c0.023-0.064,0.045-0.128,0.067-0.192c0.417-1.174,0.812-2.331,1.19-3.479       c0.066-0.201,0.135-0.404,0.2-0.605c0.38-1.167,0.741-2.321,1.082-3.463c0.056-0.185,0.108-0.367,0.162-0.551       c0.328-1.111,0.641-2.212,0.933-3.3c0.019-0.069,0.039-0.14,0.058-0.209c0.303-1.135,0.583-2.254,0.848-3.363       c0.047-0.194,0.092-0.387,0.138-0.58c0.259-1.106,0.503-2.204,0.726-3.286c0.012-0.058,0.022-0.114,0.034-0.171       c0.216-1.059,0.412-2.104,0.594-3.139c0.024-0.138,0.051-0.277,0.074-0.415c0.181-1.055,0.345-2.097,0.491-3.127       c0.021-0.142,0.039-0.282,0.059-0.423c0.291-2.104,0.513-4.159,0.668-6.171c0.011-0.137,0.021-0.274,0.031-0.41       c0.073-1.005,0.134-2,0.175-2.983c0.001-0.032,0.002-0.064,0.003-0.098c0.041-0.983,0.063-1.955,0.073-2.917       c0.001-0.072,0.002-0.145,0.003-0.217c0.007-0.966-0.002-1.921-0.025-2.866c-0.002-0.096-0.005-0.19-0.008-0.286       c-0.053-1.912-0.165-3.782-0.333-5.615c-0.007-0.081-0.015-0.162-0.021-0.243c-0.088-0.927-0.188-1.844-0.303-2.752       c0-0.001,0-0.002-0.001-0.003c-0.119-0.94-0.253-1.871-0.4-2.792c0-0.004-0.001-0.008-0.001-0.011       c-0.146-0.902-0.304-1.795-0.474-2.68c-0.009-0.048-0.019-0.095-0.027-0.142c-0.344-1.77-0.736-3.505-1.175-5.209       c-0.006-0.023-0.012-0.048-0.019-0.072c-0.317-1.232-0.662-2.447-1.024-3.648c-0.029-0.097-0.057-0.195-0.086-0.292       c-0.347-1.138-0.716-2.261-1.099-3.373c-0.033-0.096-0.062-0.195-0.095-0.291c-0.002,0-0.003,0-0.005,0.001       c-13.691-39.381-48.758-63.544-26.206-123.349c-58.004,41.115-116.079,156.2-115.978,240.199       c0,0.137-1.484,37.467,2.815,63.182C113.523,410.714,177.134,474,254.396,474c77.509,0,141.282-63.688,149.174-145.393       c0.543-5.622,0.826-11.329,0.826-17.107C404.396,243.014,365.286,184.429,309.943,160.513z M247.219,429.068       c-83.977,0-108.09-59.792-106.599-111.717c-0.085,0.029-0.111,0.029-0.202,0.056c0.835-28.923,10.783-62.33,33.293-98.984       c-16.028,72.188,26.947,125.981,68.384,126.499c46.705,0.348,74.4-43.21,87.589-100.337       c24.832,18.919,37.646,45.279,39.283,72.165c-0.059-0.03-0.113-0.03-0.204-0.064       C370.661,347.14,341.325,429.068,247.219,429.068z" style="fill:#F24B53;"/></g><g><g><path d="M254.396,484c-39.813,0-77.964-15.86-107.427-44.658        c-28.979-28.325-47.29-66.894-51.581-108.632c-4.052-24.574-3.134-57.991-2.899-64.68        c-0.011-40.925,13.549-92.095,37.219-140.411c23.353-47.668,53.596-86.952,82.976-107.777        c3.586-2.543,8.413-2.443,11.893,0.242c3.48,2.687,4.798,7.331,3.247,11.444c-14.639,38.821-2.808,59.997,10.892,84.518        c5.509,9.861,11.204,20.053,15.293,31.706c0.041,0.105,0.08,0.213,0.117,0.32c0.044,0.128,0.087,0.257,0.128,0.388        c0.448,1.304,0.833,2.489,1.183,3.637l0.081,0.273c0.443,1.47,0.814,2.791,1.146,4.083c0.013,0.049,0.025,0.097,0.035,0.136        c0.476,1.85,0.916,3.799,1.292,5.737l0.045,0.232c0.175,0.912,0.351,1.902,0.512,2.904c0.008,0.046,0.015,0.092,0.021,0.138        c0.152,0.955,0.291,1.92,0.415,2.894c0.006,0.043,0.012,0.086,0.017,0.129c0.128,1.004,0.238,2.019,0.335,3.043        c0.004,0.035,0.007,0.069,0.01,0.104l0.021,0.243c0.182,1.984,0.307,4.087,0.364,6.18l0.01,0.353        c0.024,1.012,0.034,2.073,0.027,3.146l-0.004,0.284c-0.01,1.009-0.034,2.064-0.078,3.132        c-0.001,0.026-0.002,0.049-0.002,0.054c-0.001,0.036-0.002,0.071-0.004,0.106c-0.045,1.085-0.111,2.184-0.192,3.293        l-0.035,0.462c-0.171,2.208-0.417,4.486-0.732,6.763l-0.067,0.486c-0.155,1.097-0.334,2.233-0.531,3.382l-0.084,0.473        c-0.194,1.106-0.407,2.241-0.642,3.39l-9.818-1.899l9.786,2.059c-0.246,1.198-0.51,2.383-0.789,3.578l-0.154,0.649        c-0.279,1.168-0.581,2.373-0.906,3.594l-0.061,0.222c-0.314,1.169-0.649,2.35-1.001,3.542l-0.178,0.606        c-0.356,1.192-0.742,2.425-1.147,3.671l-0.213,0.646c-0.401,1.217-0.82,2.445-1.263,3.692l-0.09,0.257        c-0.437,1.225-0.92,2.523-1.42,3.831l-0.291,0.758c-0.513,1.322-1.032,2.629-1.578,3.954l-0.174,0.415        c-0.528,1.273-1.06,2.519-1.61,3.777l-0.305,0.698c-0.588,1.334-1.201,2.683-1.834,4.046l-0.401,0.854        c-0.624,1.332-1.278,2.701-1.962,4.091l-0.077,0.157l0.001,0c-0.699,1.418-1.428,2.856-2.175,4.306l-0.464,0.899        c-0.753,1.449-1.514,2.886-2.302,4.343l-0.378,0.69c-0.484,0.89-0.983,1.794-1.493,2.709l0.315,0.034        c0.243,0.026,0.486,0.054,0.728,0.074c0.215,0.02,0.421,0.032,0.627,0.047l0.867,0.062c0.253,0.02,0.506,0.039,0.757,0.054        c0.221,0.012,0.448,0.019,0.674,0.026l0.869,0.034c0.222,0.01,0.443,0.021,0.664,0.024c0.261,0.006,0.507,0.006,0.752,0.006        l1.325,0.007l0.142-0.001c0.233-0.003,0.498-0.012,0.764-0.021l0.772-0.022c0.203-0.005,0.406-0.009,0.607-0.018        c0.233-0.012,0.486-0.029,0.739-0.046l0.861-0.055c0.179-0.011,0.357-0.021,0.534-0.034c0.25-0.021,0.521-0.049,0.793-0.076        l1.304-0.129c0.25-0.029,0.512-0.065,0.773-0.102l1.271-0.17c0.309-0.047,0.598-0.098,0.889-0.148l1.175-0.2        c0.261-0.048,0.544-0.109,0.827-0.168l1.151-0.239c0.327-0.073,0.653-0.155,0.979-0.236l0.98-0.24        c0.347-0.09,0.679-0.187,1.012-0.282l0.916-0.26c0.341-0.102,0.654-0.205,0.968-0.307l0.938-0.304        c0.372-0.126,0.726-0.257,1.08-0.387l0.771-0.28c0.412-0.157,0.812-0.322,1.212-0.486l0.633-0.256        c0.397-0.169,0.807-0.355,1.216-0.54l0.587-0.263c0.395-0.185,0.805-0.389,1.215-0.594l0.538-0.265        c0.399-0.206,0.812-0.43,1.224-0.654l0.491-0.265c0.412-0.231,0.82-0.472,1.227-0.714l0.445-0.262        c0.429-0.261,0.837-0.522,1.245-0.786l0.417-0.266c0.423-0.278,0.824-0.556,1.225-0.836l0.389-0.269        c0.43-0.305,0.832-0.607,1.234-0.91l0.349-0.26c0.419-0.322,0.825-0.647,1.229-0.977l0.345-0.278        c0.379-0.313,0.78-0.66,1.18-1.011l0.303-0.261c0.401-0.357,0.804-0.729,1.203-1.105l0.201-0.189        c0.46-0.438,0.856-0.832,1.25-1.23l0.193-0.193c0.437-0.445,0.829-0.863,1.218-1.287l0.152-0.163        c0.446-0.489,0.833-0.93,1.216-1.378l0.173-0.199c0.4-0.471,0.782-0.938,1.16-1.412l0.198-0.247        c0.339-0.429,0.715-0.923,1.087-1.422l0.124-0.165c0.378-0.513,0.746-1.031,1.108-1.556l0.108-0.154        c0.367-0.535,0.724-1.074,1.074-1.621l0.11-0.17c0.347-0.542,0.697-1.112,1.041-1.688l0.106-0.178        c0.312-0.526,0.652-1.121,0.984-1.723c0.016-0.029,0.032-0.058,0.045-0.082c0.006-0.011,0.013-0.022,0.019-0.033        c0.336-0.609,0.662-1.228,0.981-1.854c0.013-0.024,0.053-0.103,0.065-0.126c0.3-0.59,0.616-1.237,0.924-1.892        c0.015-0.03,0.036-0.075,0.059-0.122c0.302-0.646,0.596-1.298,0.882-1.959c0.015-0.036,0.03-0.071,0.046-0.105        c0.289-0.671,0.569-1.35,0.841-2.038c0.014-0.036,0.028-0.071,0.043-0.106c0.271-0.688,0.532-1.381,0.786-2.084        c0.009-0.024,0.018-0.049,0.026-0.073c0.252-0.703,0.496-1.412,0.731-2.13c0.007-0.023,0.015-0.046,0.022-0.069        c4.482-13.714,5.595-29.412,3.307-46.657c-0.004-0.031-0.008-0.063-0.012-0.094c-0.137-1.018-0.285-2.042-0.445-3.073        c-0.003-0.02-0.006-0.039-0.01-0.059c-0.163-1.048-0.339-2.103-0.528-3.164c-0.667-3.558,0.642-7.213,3.442-9.538        c2.897-2.403,6.897-2.977,10.354-1.485c29.397,12.704,54.449,34.346,72.446,62.585c18.344,28.783,28.04,62.526,28.04,97.582        c0,5.994-0.294,12.073-0.872,18.068c-4.062,42.044-22.325,80.936-51.429,109.511C332.592,468.047,294.344,484,254.396,484z         M201.521,54.167c-19.269,20.197-38.104,48.105-53.853,80.251c-22.403,45.73-35.225,93.758-35.179,131.77        c0,0.029,0,0.186-0.01,0.476c-0.135,3.798-1.206,37.783,2.688,61.068c0.036,0.214,0.064,0.429,0.086,0.644        C123.067,405.694,182.885,464,254.396,464c71.86,0,131.712-58.619,139.22-136.354c0.518-5.358,0.78-10.79,0.78-16.146        c0-56.411-27.881-106.978-72.346-133.571c0.863,15.705-0.883,30.335-5.219,43.629c-0.007,0.02-0.013,0.039-0.02,0.059h0.001        c-0.309,0.944-0.63,1.878-0.962,2.801c-0.011,0.029-0.021,0.058-0.032,0.087c-0.326,0.902-0.662,1.792-1.011,2.675        c-0.015,0.038-0.03,0.076-0.046,0.114c-0.346,0.872-0.702,1.733-1.069,2.585c-0.014,0.032-0.027,0.063-0.042,0.095        c-0.369,0.854-0.75,1.697-1.141,2.531c-0.02,0.043-0.041,0.087-0.062,0.13c-0.383,0.813-0.785,1.634-1.196,2.446        c-0.017,0.032-0.058,0.11-0.074,0.142c-0.406,0.796-0.83,1.597-1.266,2.388c-0.019,0.034-0.037,0.068-0.053,0.096        c-0.007,0.012-0.014,0.025-0.021,0.038c-0.432,0.781-0.872,1.551-1.323,2.313c-0.002,0.003-0.082,0.136-0.084,0.14        c-0.463,0.776-0.919,1.517-1.386,2.248c-0.021,0.033-0.095,0.146-0.116,0.179c-0.471,0.734-0.943,1.447-1.426,2.15        c-0.015,0.021-0.077,0.111-0.092,0.133l-0.076,0.108c-0.456,0.66-0.941,1.343-1.437,2.015l-0.145,0.193        c-0.527,0.708-1.024,1.36-1.532,2l-0.22,0.273c-0.486,0.61-0.995,1.232-1.514,1.843l-0.226,0.261        c-0.53,0.618-1.048,1.208-1.575,1.788l-0.271,0.292c-0.529,0.575-1.059,1.137-1.597,1.688l-0.269,0.271        c-0.576,0.583-1.113,1.114-1.659,1.636l-0.276,0.259c-0.013,0.013-0.068,0.063-0.081,0.076        c-0.536,0.505-1.077,1.004-1.626,1.492l-0.418,0.363c-0.522,0.458-1.071,0.931-1.628,1.391l-0.41,0.333        c-0.585,0.476-1.136,0.915-1.693,1.345l-0.479,0.359c-0.571,0.431-1.128,0.845-1.691,1.245        c-0.123,0.089-0.27,0.189-0.416,0.29l-0.118,0.082c-0.547,0.383-1.108,0.769-1.677,1.144c-0.153,0.101-0.321,0.208-0.49,0.315        l-0.126,0.079c-0.519,0.336-1.077,0.691-1.642,1.035c-0.16,0.098-0.337,0.201-0.513,0.304l-0.141,0.083        c-0.537,0.319-1.098,0.648-1.665,0.966c-0.176,0.099-0.354,0.194-0.531,0.29l-0.163,0.087c-0.552,0.301-1.104,0.6-1.663,0.887        c-0.193,0.099-0.371,0.187-0.548,0.273l-0.186,0.091c-0.571,0.284-1.126,0.559-1.687,0.821        c-0.206,0.096-0.393,0.179-0.578,0.262l-0.2,0.089c-0.563,0.256-1.117,0.505-1.678,0.743c-0.229,0.098-0.443,0.184-0.658,0.27        l-0.206,0.083c-0.527,0.217-1.083,0.443-1.645,0.657c-0.217,0.083-0.442,0.165-0.668,0.246l-0.351,0.127        c-0.514,0.188-1.026,0.376-1.545,0.552c-0.226,0.076-0.467,0.154-0.708,0.231l-0.469,0.151        c-0.469,0.152-0.939,0.305-1.413,0.446c-0.222,0.066-0.469,0.137-0.716,0.206l-0.439,0.124        c-0.484,0.139-0.97,0.277-1.459,0.404c-0.247,0.065-0.506,0.128-0.765,0.19l-0.46,0.112c-0.473,0.117-0.946,0.233-1.424,0.341        c-0.29,0.064-0.579,0.124-0.868,0.183l-0.541,0.112c-0.426,0.089-0.853,0.178-1.283,0.259        c-0.314,0.058-0.604,0.106-0.895,0.154l-0.514,0.088c-0.442,0.076-0.883,0.152-1.329,0.22        c-0.275,0.041-0.567,0.08-0.859,0.118l-0.687,0.092c-0.399,0.055-0.799,0.108-1.202,0.154c-0.31,0.036-0.61,0.064-0.909,0.093        l-0.652,0.064c-0.404,0.041-0.808,0.081-1.215,0.114c-0.328,0.026-0.634,0.045-0.94,0.063l-0.732,0.046        c-0.377,0.025-0.753,0.05-1.133,0.068c-0.366,0.016-0.712,0.025-1.058,0.033L244.24,278c-0.398,0.013-0.795,0.025-1.196,0.03        l-0.37,0.002l-1.353-0.007c-0.384,0-0.768-0.002-1.153-0.011c-0.356-0.007-0.729-0.022-1.101-0.038l-0.694-0.027        c-0.36-0.013-0.719-0.025-1.082-0.045c-0.394-0.022-0.784-0.051-1.174-0.081l-0.694-0.05        c-0.348-0.023-0.695-0.047-1.044-0.078c-0.37-0.032-0.751-0.073-1.133-0.115l-0.811-0.085        c-0.326-0.033-0.651-0.066-0.979-0.106c-0.382-0.046-0.785-0.102-1.188-0.159l-0.785-0.107        c-0.32-0.043-0.64-0.086-0.961-0.136c-0.417-0.063-0.834-0.136-1.251-0.208l-0.797-0.137        c-0.297-0.049-0.594-0.099-0.893-0.153c-0.508-0.095-1-0.196-1.493-0.298l-0.654-0.134c-0.27-0.053-0.54-0.106-0.811-0.165        c-0.622-0.136-1.22-0.279-1.817-0.424l-0.451-0.105c-0.244-0.056-0.488-0.112-0.733-0.174        c-0.991-0.248-1.987-0.513-2.986-0.795c-3.013-0.852-5.453-3.063-6.594-5.979c-1.142-2.915-0.852-6.195,0.782-8.865        c0.926-1.513,1.818-3.004,2.694-4.483l0.554-0.935c0.833-1.418,1.654-2.836,2.449-4.237l0.379-0.677        c0.739-1.31,1.446-2.585,2.134-3.848l0.348-0.635c0.728-1.345,1.438-2.686,2.128-4.014l0.436-0.846        c0.698-1.354,1.373-2.684,2.018-3.994c0.008-0.016,0.016-0.032,0.024-0.048l0.076-0.156c0.597-1.215,1.198-2.473,1.784-3.722        l0.367-0.781c0.569-1.226,1.129-2.457,1.666-3.674l0.283-0.649c0.493-1.129,0.977-2.259,1.44-3.377l0.172-0.412        c0.494-1.197,0.96-2.373,1.412-3.537l0.268-0.697c0.448-1.17,0.878-2.325,1.284-3.461c0.002-0.006,0.039-0.111,0.041-0.117        c0.414-1.166,0.784-2.252,1.14-3.33l0.187-0.565c0.355-1.091,0.692-2.167,1.01-3.231l0.146-0.496        c0.312-1.057,0.602-2.078,0.873-3.086l0.056-0.202c0.278-1.041,0.537-2.074,0.781-3.099l0.134-0.566        c0.231-0.989,0.457-1.999,0.661-2.995l0.038-0.186c0.19-0.936,0.37-1.891,0.536-2.837l0.065-0.363        c0.167-0.972,0.316-1.92,0.449-2.858l0.054-0.388c0.26-1.878,0.463-3.752,0.603-5.568l0.028-0.363        c0.064-0.889,0.119-1.765,0.155-2.632c0.001-0.053,0.004-0.12,0.005-0.144c0.037-0.877,0.056-1.743,0.065-2.601l0.003-0.242        c0.005-0.802-0.002-1.651-0.023-2.492l-0.006-0.219c-0.047-1.708-0.146-3.383-0.296-5.017c0-0.004-0.012-0.129-0.012-0.133        l-0.008-0.098c-0.074-0.782-0.158-1.556-0.254-2.323c-0.004-0.033-0.009-0.066-0.013-0.1        c-0.105-0.832-0.224-1.654-0.354-2.469c-0.005-0.033-0.011-0.065-0.016-0.098c-0.125-0.77-0.26-1.532-0.405-2.287        l-0.034-0.174c-0.291-1.494-0.641-3.05-1.033-4.57h0c-0.006-0.024-0.013-0.047-0.019-0.071        c-0.265-1.027-0.563-2.091-0.914-3.254l-0.073-0.248c-0.316-1.041-0.649-2.05-0.993-3.051        c-0.018-0.052-0.037-0.108-0.056-0.167c-0.011-0.031-0.022-0.063-0.033-0.094c-3.521-10.126-8.597-19.212-13.972-28.832        C210.61,104.748,198.892,83.772,201.521,54.167z M247.219,439.068c-36.551,0-65.421-10.639-85.809-31.62        c-20.506-21.104-31.418-52.384-30.833-88.267c-0.122-0.674-0.175-1.365-0.155-2.063        c0.951-32.944,12.649-67.912,34.768-103.929c2.556-4.163,7.746-5.87,12.273-4.037c4.528,1.833,7.069,6.668,6.01,11.437        c-7.633,34.376-1.44,67.438,16.991,90.706c11.748,14.83,26.967,23.442,41.756,23.627l0.43,0.001        c18.706,0,34.91-8.432,48.16-25.062c12.65-15.878,22.451-38.597,29.13-67.527c0.765-3.309,3.155-6.003,6.349-7.156        c3.193-1.153,6.754-0.607,9.456,1.451c25.941,19.764,41.285,48.002,43.204,79.511c0.046,0.749,0.007,1.489-0.11,2.212        c0.454,21.877-11.058,55.996-34.759,81.221C319.803,425.411,286.309,439.068,247.219,439.068z M150.486,315.717        c0.104,0.629,0.149,1.272,0.13,1.922c-0.521,18.138,2.052,52.114,25.138,75.872c16.479,16.959,40.523,25.558,71.465,25.558        c33.907,0,61.592-11.166,82.285-33.189c22.923-24.396,30.124-55.007,29.278-68.571c-0.04-0.641-0.019-1.277,0.063-1.901        c-1.645-19.777-9.88-37.924-23.623-52.462c-17.457,59.48-49.959,91.979-92.572,91.979l-0.629-0.002        c-20.889-0.261-41.731-11.636-57.234-31.207c-12.858-16.233-20.815-36.215-23.493-57.987        C154.807,282.952,151.188,299.663,150.486,315.717z" style="fill:#001818;"/></g></g></g><g><path d="M247.219,429.068c94.106,0,123.442-81.929,121.544-112.383c0.091,0.034,0.146,0.034,0.204,0.064      c-1.638-26.886-14.451-53.246-39.283-72.165c-13.188,57.127-40.884,100.685-87.589,100.337      c-41.437-0.518-84.412-54.312-68.384-126.499c-22.51,36.654-32.458,70.062-33.293,98.984c0.091-0.026,0.117-0.026,0.202-0.056      C139.129,369.276,163.242,429.068,247.219,429.068z" style="fill:#FFCC32;"/><g><path d="M247.219,439.068c-36.551,0-65.421-10.639-85.809-31.62       c-20.506-21.104-31.418-52.384-30.833-88.267c-0.122-0.674-0.175-1.365-0.154-2.063c0.951-32.944,12.648-67.912,34.767-103.929       c2.556-4.163,7.746-5.87,12.273-4.037c4.528,1.833,7.069,6.668,6.01,11.437c-7.633,34.376-1.44,67.438,16.991,90.706       c11.747,14.83,26.966,23.442,41.755,23.627l0.43,0.001c18.704,0,34.907-8.433,48.159-25.063       c12.651-15.879,22.453-38.598,29.131-67.525c0.765-3.309,3.155-6.003,6.349-7.156c3.193-1.153,6.754-0.607,9.456,1.451       c25.754,19.622,41.063,47.598,43.161,78.833c0.054,0.421,0.081,0.851,0.081,1.286c0,0.586-0.05,1.159-0.146,1.718       c0.413,21.881-11.1,55.925-34.761,81.106C319.803,425.411,286.309,439.068,247.219,439.068z M150.486,315.717       c0.104,0.629,0.149,1.272,0.13,1.922c-0.521,18.138,2.052,52.114,25.138,75.872c16.479,16.959,40.523,25.558,71.465,25.558       c33.907,0,61.592-11.166,82.285-33.189c22.923-24.396,30.124-55.007,29.278-68.571c-0.04-0.641-0.018-1.277,0.063-1.901       c-1.645-19.777-9.879-37.924-23.623-52.462c-17.457,59.48-49.959,91.979-92.572,91.979l-0.629-0.002       c-20.889-0.261-41.731-11.636-57.234-31.207c-12.858-16.233-20.815-36.215-23.493-57.987       C154.807,282.952,151.188,299.663,150.486,315.717z" style="fill:#001818;"/></g></g></g></g></g><g id="Layer_1"/></svg>