<?xml version="1.0" ?><!DOCTYPE svg  PUBLIC '-//W3C//DTD SVG 1.1//EN'  'http://www.w3.org/Graphics/SVG/1.1/DTD/svg11.dtd'><svg height="512px" style="enable-background:new 0 0 512 512;" version="1.1" viewBox="0 0 512 512" width="512px" xml:space="preserve" xmlns="http://www.w3.org/2000/svg" xmlns:xlink="http://www.w3.org/1999/xlink"><g id="comp_x5F_130-flickr"><g><g><g><path d="M421,46.001H91.001c-24.843,0-44.999,20.156-44.999,45.001V421      c0,24.845,20.156,44.999,44.999,44.999H421c24.845,0,44.998-20.154,44.998-44.999V91.002      C465.998,66.157,445.845,46.001,421,46.001z" style="fill:#0D64D2;"/><path d="M421,475.999H91.001c-30.327,0-54.999-24.673-54.999-54.999V91.002      c0-30.328,24.672-55.001,54.999-55.001H421c30.326,0,54.998,24.673,54.998,55.001V421      C475.998,451.326,451.326,475.999,421,475.999z M91.001,56.001c-19.298,0-34.999,15.701-34.999,35.001V421      c0,19.299,15.701,34.999,34.999,34.999H421c19.298,0,34.998-15.7,34.998-34.999V91.002c0-19.3-15.7-35.001-34.998-35.001H91.001      z" style="fill:#0A4B9E;"/></g><g><path d="M181.47,315.062c-32.907,0-59.531-26.624-59.531-59.53c0-32.905,26.624-59.53,59.531-59.53      c32.905,0,59.531,26.625,59.531,59.53C241.001,288.438,214.375,315.062,181.47,315.062z" style="fill:#FFFFFF;"/><g><path d="M181.47,325.062c-38.34,0-69.531-31.191-69.531-69.53c0-38.339,31.191-69.53,69.531-69.53       s69.531,31.191,69.531,69.53C251.001,293.87,219.81,325.062,181.47,325.062z M181.47,206.001       c-27.312,0-49.531,22.219-49.531,49.53c0,27.312,22.22,49.53,49.531,49.53s49.531-22.219,49.531-49.53       C231.001,228.22,208.781,206.001,181.47,206.001z" style="fill:#BFBFBF;"/></g></g><g><path d="M330.532,315.062c-32.907,0-59.532-26.624-59.532-59.53c0-32.905,26.625-59.53,59.532-59.53      c32.905,0,59.529,26.625,59.529,59.53C390.062,288.438,363.438,315.062,330.532,315.062z" style="fill:#E50073;"/><g><path d="M330.532,325.062c-38.34,0-69.532-31.191-69.532-69.53c0-38.339,31.192-69.53,69.532-69.53       c38.339,0,69.529,31.191,69.529,69.53C400.062,293.87,368.871,325.062,330.532,325.062z M330.532,206.001       c-27.313,0-49.532,22.219-49.532,49.53c0,27.312,22.22,49.53,49.532,49.53c27.311,0,49.529-22.219,49.529-49.53       C380.062,228.22,357.843,206.001,330.532,206.001z" style="fill:#AC0056;"/></g></g></g></g></g><g id="Layer_1"/></svg>