<?xml version="1.0" ?><!DOCTYPE svg  PUBLIC '-//W3C//DTD SVG 1.1//EN'  'http://www.w3.org/Graphics/SVG/1.1/DTD/svg11.dtd'><svg height="512px" style="enable-background:new 0 0 512 512;" version="1.1" viewBox="0 0 512 512" width="512px" xml:space="preserve" xmlns="http://www.w3.org/2000/svg" xmlns:xlink="http://www.w3.org/1999/xlink"><g id="comp_x5F_131-flipboard"><g><g><g><path d="M26.002,26.001v459.998h459.996V26.001H26.002z M393.999,210.001H302V302h-92v92.001h-92V118.002      h275.999V210.001z" style="fill:#F22C31;"/><path d="M485.998,495.999H26.002c-5.523,0-10-4.478-10-10V26.001c0-5.523,4.477-10,10-10h459.996      c5.522,0,10,4.477,10,10v459.998C495.998,491.521,491.521,495.999,485.998,495.999z M36.002,475.999h439.996V36.001H36.002      V475.999z M210,404.001h-92c-5.523,0-10-4.478-10-10V118.002c0-5.523,4.477-10,10-10h275.999c5.522,0,10,4.477,10,10v91.999      c0,5.523-4.478,10-10,10H312V302c0,5.522-4.478,10-10,10h-82v82.001C220,399.523,215.523,404.001,210,404.001z M128,384.001h72      V302c0-5.522,4.477-10,10-10h82v-81.999c0-5.523,4.478-10,10-10h81.999v-71.999H128V384.001z" style="fill:#B62125;"/></g></g></g></g><g id="Layer_1"/></svg>