<?xml version="1.0" ?><!DOCTYPE svg  PUBLIC '-//W3C//DTD SVG 1.1//EN'  'http://www.w3.org/Graphics/SVG/1.1/DTD/svg11.dtd'><svg height="512px" style="enable-background:new 0 0 512 512;" version="1.1" viewBox="0 0 512 512" width="512px" xml:space="preserve" xmlns="http://www.w3.org/2000/svg" xmlns:xlink="http://www.w3.org/1999/xlink"><g id="comp_x5F_134-forrst"><g><g><path d="M228.572,400c-3.427-0.082-6.852-1.406-9.459-4.049l-35.38-35.771     c-5.315-5.363-5.295-14.109,0.086-19.441c5.375-5.337,14.07-5.281,19.388,0.108l25.366,25.653v-83.006h54.853v36.276     l18.733-12.513c6.201-4.182,14.784-2.504,19.007,3.822c4.194,6.293,2.467,14.849-3.814,19.058l-26.325,17.604     c-2.361,1.564-4.99,2.306-7.601,2.306V390l46.759-34.53c6.696-3.491,14.98-0.711,18.405,6.108     c3.396,6.79,0.687,15.042-6.084,18.422l-52.937,37.64c-1.973,1.012-4.087,1.483-6.144,1.483v56.875v0.001h150.841L256.001,36.001     L77.733,475.999h150.839v-0.001V400z" style="fill:#007239;"/><g><path d="M434.286,485.999c-0.005,0.001-0.013,0.001-0.02,0H283.426c-5.522,0-10-4.478-10-10v-56.876      c0-5.522,4.478-10,10-10c0.287,0,0.689-0.037,1.133-0.19l52.152-37.082c0.422-0.3,0.865-0.566,1.328-0.798      c1.114-0.556,1.606-1.457,1.824-2.115c0.182-0.553,0.396-1.661-0.218-2.887c-0.772-1.539-2.27-2.091-3.313-2.091      c-0.357,0-0.706,0.058-1.042,0.171l-45.924,33.913c-3.036,2.243-7.077,2.585-10.445,0.884c-3.37-1.7-5.495-5.153-5.495-8.928      v-39.952c0-5.522,4.478-10,10-10c0.735,0,1.435-0.216,2.077-0.642l26.29-17.581c1.688-1.132,2.174-3.515,1.052-5.199      c-0.694-1.04-1.871-1.665-3.144-1.665c-0.717,0-1.373,0.198-1.951,0.588l-18.77,12.537c-3.066,2.051-7.015,2.244-10.27,0.503      c-3.254-1.739-5.285-5.129-5.285-8.818v-26.276h-34.853V366.5c0,4.055-2.449,7.708-6.199,9.249      c-3.748,1.543-8.06,0.666-10.912-2.218l-25.366-25.653c-0.952-0.965-2.063-1.108-2.642-1.108c-0.566,0-1.656,0.139-2.589,1.064      c-0.953,0.944-1.098,2.066-1.1,2.651c-0.002,0.586,0.134,1.71,1.071,2.655l35.387,35.778c0.855,0.866,1.878,1.067,2.588,1.084      c5.428,0.13,9.761,4.567,9.761,9.997v75.998c0,5.522-4.477,10-10,10l-150.839,0.001c-3.326,0-6.435-1.653-8.293-4.412      c-1.859-2.759-2.224-6.26-0.975-9.343L246.733,32.246c1.529-3.775,5.195-6.245,9.268-6.245c4.073,0,7.739,2.47,9.269,6.245      l178.026,439.407c0.635,1.314,0.99,2.788,0.99,4.346C444.286,481.521,439.81,485.999,434.286,485.999z M92.575,465.999h125.998      v-58.327c-2.424-1.163-4.648-2.742-6.577-4.697l-35.372-35.763c-4.444-4.484-6.882-10.454-6.858-16.803      c0.024-6.357,2.516-12.315,7.015-16.774c4.457-4.425,10.38-6.865,16.674-6.865c6.392,0,12.384,2.505,16.872,7.054l8.248,8.341      v-58.67c0-5.522,4.477-10,10-10h54.853c5.522,0,10,4.478,10,10v17.571l3.179-2.123c3.85-2.596,8.391-3.981,13.097-3.981      c7.971,0,15.365,3.95,19.782,10.567c7.247,10.872,4.3,25.637-6.565,32.917l-26.333,17.609c-1.017,0.674-2.072,1.266-3.159,1.772      v12.357l30.818-22.759c0.417-0.309,0.857-0.583,1.317-0.823c3.315-1.729,7.04-2.643,10.771-2.643      c9.006,0,17.127,5.031,21.194,13.13c2.84,5.68,3.31,12.105,1.331,18.108c-1.896,5.754-5.823,10.461-11.105,13.342      l-52.388,37.249c-0.393,0.279-0.804,0.529-1.231,0.749c-0.233,0.119-0.47,0.235-0.707,0.347v39.113l126,0.001L256.001,62.632      L92.575,465.999z" style="fill:#00562B;"/></g></g></g></g><g id="Layer_1"/></svg>