<?xml version="1.0" ?><!DOCTYPE svg  PUBLIC '-//W3C//DTD SVG 1.1//EN'  'http://www.w3.org/Graphics/SVG/1.1/DTD/svg11.dtd'><svg height="512px" style="enable-background:new 0 0 512 512;" version="1.1" viewBox="0 0 512 512" width="512px" xml:space="preserve" xmlns="http://www.w3.org/2000/svg" xmlns:xlink="http://www.w3.org/1999/xlink"><g id="comp_x5F_141-git"><g><g><g><path d="M61.571,225.375c0,22.589,14.465,53.57,37.055,61.161v0.893      c-16.786,7.409-21.429,45.177,0.893,58.749v0.893c-24.375,8.036-40.447,23.482-40.447,50.18      c0,45.982,43.572,58.749,81.696,58.749c46.429,0,80.982-16.697,80.982-67.857c0-62.946-90.178-39.73-90.178-73.929      c0-12.052,6.427-16.694,17.588-19.018c37.055-6.873,60.268-35.713,60.268-73.392c0-6.517-1.34-12.679-3.571-18.749      c5.982-1.34,11.786-2.947,17.59-4.911v-45.09c-15.358,6.072-31.875,10.536-48.661,10.536      C126.75,135.911,61.571,164.751,61.571,225.375L61.571,225.375z" style="fill:#F05033;"/><path d="M140.768,465.999c-57.417,0-91.696-25.7-91.696-68.749c0-17.429,6.166-39.791,33.274-53.837      c-5.785-8.345-8.621-19.057-7.856-30.751c0.59-9.023,3.37-17.262,7.693-23.606c-19.201-14.051-30.611-41.508-30.611-63.681      c0-23.734,9.192-45.184,25.884-60.397c15.53-14.155,36.09-21.95,57.893-21.95c14.618,0,29.063,3.631,41.958,10.525      c12.834-0.374,26.758-3.589,42.463-9.799c3.079-1.218,6.562-0.832,9.3,1.03s4.377,4.958,4.377,8.27v45.09      c0,4.288-2.733,8.098-6.795,9.472c-2.775,0.939-5.558,1.805-8.381,2.607c0.775,3.896,1.158,7.737,1.158,11.581      c0,42.806-26.816,75.452-68.33,83.202c-9.12,1.916-9.526,4.346-9.526,9.207c0,6.302,10.359,9.42,27.42,13.805      c13.215,3.397,28.192,7.247,40.283,15.502c14.913,10.182,22.475,25.194,22.475,44.622      C231.75,423.66,215.965,465.999,140.768,465.999z M135.348,163.028c-30.917,0-63.776,21.851-63.776,62.347      c0,19.6,12.932,45.866,30.24,51.682c4.072,1.368,6.815,5.185,6.815,9.479v0.893c0,3.961-2.338,7.549-5.962,9.148      c-3.534,1.56-7.615,8.185-8.217,17.391c-0.257,3.931-0.276,17.255,10.267,23.665c2.983,1.814,4.805,5.054,4.805,8.545v0.893      c0,4.316-2.77,8.146-6.869,9.497c-22.908,7.553-33.578,20.479-33.578,40.683c0,42.416,44.92,48.749,71.696,48.749      c63.624,0,70.982-33.021,70.982-57.857c0-26.5-18.901-33.341-47.737-40.753c-19.894-5.114-42.441-10.91-42.441-33.176      c0-23.489,19.231-27.492,25.55-28.808c0.071-0.015,0.143-0.029,0.214-0.042c32.131-5.96,52.091-30.314,52.091-63.56      c0-4.881-0.967-9.886-2.957-15.299c-0.994-2.705-0.773-5.707,0.605-8.236c1.379-2.53,3.783-4.342,6.595-4.972      c3.358-0.752,6.596-1.579,9.775-2.496v-23.597c-13.754,4.288-26.5,6.386-38.661,6.386c-1.752,0-3.474-0.46-4.993-1.335      C159.317,166.218,147.406,163.028,135.348,163.028z" style="fill:#B43C26;"/></g><path d="M137.018,256c-19.643,0-27.945-11.606-27.945-30.178c0-44.018,54.463-43.571,54.463-0.447     C163.535,243.5,156.394,256,137.018,256z" style="fill:#B43C26;"/><g><path d="M452.929,300.195v43.751c-11.876,6.517-27.231,8.749-40.627,8.749      c-47.767,0-53.392-37.68-53.392-76.516v-78.305h0.446v-0.892c-6.25,0-6.517-1.43-21.428,0.892v-42.41h21.428      c0-19.911,0.269-27.679-1.34-36.785h50.627c-1.786,12.322-1.34,24.554-1.34,36.785h45.535v42.41c0,0-17.233-0.892-45.535-0.892      v81.337c0,13.216,2.945,29.288,19.464,29.288C435.517,307.608,445.784,305.108,452.929,300.195z" style="fill:#F05033;"/><path d="M412.302,362.695c-25.515,0-43.512-9.792-53.492-29.104c-8.724-16.879-9.899-38.494-9.899-57.412      v-69.562c-2.374,0.145-5.445,0.516-9.443,1.138c-2.89,0.451-5.824-0.386-8.043-2.285c-2.218-1.9-3.495-4.675-3.495-7.596v-42.41      c0-5.523,4.478-10,10-10h11.441c0.021-12.392-0.041-18.476-1.201-25.046c-0.514-2.911,0.286-5.901,2.187-8.166      c1.899-2.265,4.705-3.573,7.661-3.573h50.627c2.902,0,5.662,1.261,7.562,3.456c1.899,2.195,2.751,5.106,2.335,7.979      c-1.205,8.315-1.314,16.646-1.281,25.351h35.58c5.522,0,10,4.477,10,10v42.41c0,2.742-1.126,5.363-3.114,7.251      c-1.987,1.888-4.675,2.88-7.401,2.736c-0.149-0.008-13.271-0.672-35.02-0.84v71.298c0,19.288,6.632,19.288,9.464,19.288      c7.457,0,15.501-2.219,20.495-5.653c3.06-2.104,7.033-2.341,10.321-0.61c3.287,1.729,5.345,5.137,5.345,8.851v43.751      c0,3.65-1.989,7.011-5.189,8.767C442.704,360.964,424.731,362.695,412.302,362.695z M368.91,200.838v75.341      c0,49.109,11.354,66.516,43.392,66.516c11.67,0,22.307-1.787,30.627-5.091v-22.16c-5.189,1.404-10.711,2.164-16.161,2.164      c-8.859,0-29.464-3.828-29.464-39.288v-81.337c0-5.523,4.478-10,10-10c15.481,0,27.614,0.261,35.535,0.503v-22.021h-35.535      c-5.522,0-10-4.477-10-10c0-2.017-0.013-4.034-0.024-6.052c-0.041-6.77-0.083-13.689,0.333-20.733H369.14      c0.254,5.173,0.242,11.145,0.227,19.388c-0.005,2.268-0.01,4.723-0.01,7.397c0,5.523-4.478,10-10,10h-11.428v21.176      c1.096-0.063,2.115-0.093,3.079-0.093c2.05,0,3.579,0.133,4.929,0.251c1.178,0.103,2.108,0.184,3.42,0.184      c5.522,0,10,4.477,10,10v0.892C369.356,198.907,369.2,199.902,368.91,200.838z" style="fill:#B43C26;"/></g><g><path d="M308.91,88.769c0,16.697-12.945,32.321-30.177,32.321c-17.68,0-30.805-15.356-30.805-32.321      c0-17.231,12.945-32.768,30.805-32.768C296.411,56.001,308.91,72.072,308.91,88.769z" style="fill:#F05033;"/><path d="M278.733,131.09c-22.5,0-40.805-18.985-40.805-42.321c0-23.582,18.305-42.768,40.805-42.768      c22.153,0,40.177,19.186,40.177,42.768C318.91,111.709,300.512,131.09,278.733,131.09z M278.733,66.001      c-12.851,0-20.805,11.818-20.805,22.768c0,10.735,7.954,22.321,20.805,22.321c12.069,0,20.177-11.542,20.177-22.321      C298.91,77.773,290.803,66.001,278.733,66.001z" style="fill:#B43C26;"/></g><g><path d="M307.929,155.286c-1.607,13.036-1.428,178.392,0,194.464H253.82      c1.429-16.16,1.607-181.249,0-194.464H307.929z" style="fill:#F05033;"/><path d="M307.948,359.75c-0.006,0-0.014,0-0.02,0H253.82c-2.805,0-5.481-1.179-7.376-3.247      c-1.894-2.069-2.832-4.839-2.585-7.634c1.475-16.683,1.504-180.292,0.034-192.375c-0.346-2.842,0.543-5.695,2.441-7.838      c1.898-2.143,4.623-3.37,7.486-3.37h54.108c2.865,0,5.593,1.229,7.491,3.375c1.898,2.147,2.784,5.004,2.434,7.848      c-1.467,11.894-1.452,172.214-0.01,191.784c0.069,0.476,0.104,0.962,0.104,1.456C317.948,355.272,313.472,359.75,307.948,359.75      z M264.207,339.75h33.332c-0.856-35.292-1.122-138.705-0.103-174.464h-33.128C265.32,201.041,265.057,304.476,264.207,339.75z" style="fill:#B43C26;"/></g><path d="M149.018,371.625c15.18,0,36.786,2.678,36.786,22.32c0,19.465-17.41,23.482-33.66,23.482     c-15.446,0-38.661-2.411-38.661-22.5C113.572,375.017,133.215,371.625,149.018,371.625L149.018,371.625z" style="fill:#B43C26;"/></g></g></g><g id="Layer_1"/></svg>