<?xml version="1.0" ?><!DOCTYPE svg  PUBLIC '-//W3C//DTD SVG 1.1//EN'  'http://www.w3.org/Graphics/SVG/1.1/DTD/svg11.dtd'><svg height="512px" style="enable-background:new 0 0 512 512;" version="1.1" viewBox="0 0 512 512" width="512px" xml:space="preserve" xmlns="http://www.w3.org/2000/svg" xmlns:xlink="http://www.w3.org/1999/xlink"><g id="comp_x5F_142-github"><g><g><path d="M179.859,392.884c0,1.855-2.133,3.339-4.822,3.339c-3.062,0.277-5.193-1.205-5.193-3.339     c0-1.854,2.132-3.34,4.823-3.34C177.449,389.267,179.859,390.75,179.859,392.884z" style="fill:#FFFFFF;"/><path d="M151.017,388.709c-0.65,1.857,1.205,3.988,3.987,4.544c2.412,0.928,5.195,0,5.75-1.853     c0.558-1.856-1.205-3.988-3.987-4.824C154.355,385.929,151.667,386.855,151.017,388.709L151.017,388.709z" style="fill:#FFFFFF;"/><path d="M192.008,387.133c-2.689,0.65-4.543,2.411-4.267,4.544c0.279,1.854,2.691,3.063,5.473,2.413     c2.69-0.65,4.544-2.413,4.266-4.267C197.202,388.06,194.698,386.855,192.008,387.133z" style="fill:#FFFFFF;"/><g><path d="M253.032,31.747c-128.633,0-227.031,97.656-227.031,226.291      c0,102.851,64.733,190.862,157.197,221.839c11.871,2.133,16.044-5.194,16.044-11.223c0-5.75-0.277-37.469-0.277-56.942      c0,0-64.92,13.911-78.553-27.639c0,0-30.186-37.116-45.396-44.072c0,0-21.238-20.278,1.485-20c0,0,42.707,2.323,55.412,24.395      c20.31,35.799,54.346,25.505,67.608,19.383c2.133-14.839,8.162-27.656,14.839-33.777c-51.842-5.75-104.149-0.784-104.149-90      c0-25.504,7.048-39.908,21.888-56.231c-2.411-6.028-10.294-30.882,2.412-62.972c19.383-6.028,63.99,25.041,63.99,25.041      c18.55-5.194,38.489-7.883,58.242-7.883c19.756,0,39.694,2.689,58.241,7.883c0,0,44.612-31.162,63.993-25.041      c12.705,32.181,4.823,56.944,2.412,62.972c14.84,16.416,23.927,30.819,23.927,56.231c0,89.496-54.625,99.537-106.466,105.379      c8.531,7.326,15.764,23.763,15.764,45.557c0,31.253-0.276,69.928-0.276,77.531c0,6.028,4.265,13.355,16.043,11.223      c92.742-30.79,155.62-118.802,155.62-221.652C485.999,129.403,381.665,31.747,253.032,31.747z" style="fill:#FFFFFF;"/><path d="M187.177,490.254c-1.836,0-3.77-0.181-5.747-0.535c-0.478-0.086-0.948-0.207-1.409-0.36      C81.916,456.491,16.001,363.531,16.001,258.037c0-64.846,24.229-124.676,68.223-168.47      c43.935-43.735,103.885-67.82,168.808-67.82c65.235,0,126.194,24.042,171.647,67.695      c45.991,44.17,71.319,104.045,71.319,168.596c0,52.359-15.513,102.021-44.861,143.614      c-29.227,41.421-69.895,71.688-117.608,87.528c-0.447,0.149-0.904,0.266-1.368,0.35c-1.971,0.357-3.9,0.538-5.734,0.538      c-0.001,0-0.001,0-0.002,0c-14.501-0.001-22.089-10.867-22.089-21.601c0-2.52,0.03-8.439,0.07-16.369      c0.082-16.031,0.206-40.258,0.206-61.162c0-18.945-6.167-32.722-12.278-37.97c-3.019-2.593-4.213-6.727-3.043-10.529      c1.171-3.803,4.484-6.549,8.438-6.995c55.292-6.231,97.586-17.216,97.586-95.442c0-21.906-7.188-33.866-21.345-49.525      c-2.561-2.832-3.285-6.875-1.867-10.42c1.535-3.837,8.281-23.307-0.414-49.994c-13.584,1.035-38.174,15.03-50.979,23.975      c-2.454,1.713-5.544,2.237-8.424,1.431c-17.549-4.915-36.756-7.513-55.544-7.513c-18.786,0-37.993,2.598-55.545,7.513      c-2.876,0.805-5.962,0.283-8.412-1.423c-12.834-8.926-37.436-22.887-51.002-23.958c-8.692,26.636-1.937,46.126-0.4,49.969      c1.422,3.554,0.69,7.608-1.885,10.44c-12.509,13.76-19.287,25.724-19.287,49.505c0,71.33,33.486,74.363,79.833,78.56      c5.031,0.455,10.234,0.927,15.419,1.501c3.899,0.433,7.186,3.105,8.403,6.834c1.218,3.729,0.144,7.826-2.748,10.477      c-4.413,4.046-9.742,14.22-11.698,27.829c-0.482,3.354-2.63,6.236-5.708,7.656c-5.779,2.668-17.485,7.144-30.952,7.144      c-14.664,0-35.163-5.321-49.544-30.671c-7.234-12.567-31.608-17.69-43.6-19.025c0.437,0.51,0.889,1.014,1.345,1.493      c16.607,8.938,42.11,39.694,47.21,45.966c0.771,0.948,1.362,2.03,1.743,3.192c5.007,15.259,20.221,22.995,45.221,22.993      c12.058,0,21.655-1.998,21.75-2.019c2.95-0.62,6.03,0.117,8.372,2.016c2.342,1.898,3.709,4.751,3.709,7.766      c0,12.585,0.115,30.057,0.198,42.814c0.044,6.826,0.079,12.094,0.079,14.128C209.242,479.388,201.663,490.254,187.177,490.254z       M185.61,470.137c0.565,0.077,1.09,0.117,1.567,0.117c1.775,0,2.065-0.225,2.065-1.601c0-2.015-0.034-7.234-0.079-13.997      c-0.061-9.212-0.137-20.877-0.175-31.409c-3.98,0.396-8.716,0.701-13.854,0.701c-32.751,0.002-55.237-12.374-63.579-34.906      c-11.355-13.785-31.486-35.734-40.7-39.948c-1.013-0.463-1.942-1.092-2.748-1.861c-4.781-4.566-15.432-16.361-11.069-27.249      c1.826-4.556,6.604-9.986,19.001-9.986l0.581,0.004c0.14,0.002,0.281,0.006,0.42,0.014c4.926,0.269,48.557,3.369,63.536,29.391      c7.873,13.876,18.389,20.595,32.18,20.595c6.874,0,13.235-1.688,17.876-3.374c1.379-6.558,3.454-12.788,6.041-18.29      c-45.56-4.137-96.466-9.747-96.466-98.336c0-27.333,7.781-43.322,20.602-58.528c-3.166-11.262-7.12-35.263,4.399-64.356      c1.114-2.813,3.44-4.969,6.328-5.868c2.618-0.814,5.53-1.227,8.656-1.227c20.104,0,49.267,17.848,60.117,24.979      c18.033-4.617,37.439-7.046,56.429-7.046s38.393,2.428,56.422,7.044C324.002,127.854,353.106,110,373.221,110      c3.168,0,6.117,0.424,8.767,1.261c2.873,0.907,5.184,3.061,6.29,5.863c11.494,29.113,7.558,53.083,4.397,64.339      c14.08,16.518,22.64,32.823,22.64,58.537c0,43.728-12.42,73.883-37.969,92.188c-17.507,12.544-38.972,17.833-60.645,21.007      c5.041,10.431,7.911,23.653,7.911,37.741c0,20.955-0.124,45.213-0.206,61.265c-0.04,7.88-0.07,13.763-0.07,16.267      c0,1.361,0.313,1.601,2.09,1.601c0.001,0,0.001,0,0.002,0c0.471,0,0.988-0.04,1.546-0.117      c88.57-29.771,148.025-114.828,148.025-211.913c0-121.285-97.938-216.291-222.967-216.291      c-123.728,0-217.031,92.985-217.031,216.291C36.001,354.65,96.085,439.78,185.61,470.137z"/></g><path d="M116.146,351.614c-1.206,0.927-0.927,3.061,0.647,4.82c1.484,1.485,3.618,2.133,4.823,0.93     c1.206-0.93,0.927-3.061-0.649-4.823C119.485,351.057,117.352,350.408,116.146,351.614z" style="fill:#FFFFFF;"/><path d="M106.129,344.102c-0.648,1.205,0.278,2.688,2.133,3.616c1.484,0.929,3.339,0.649,3.988-0.649     c0.648-1.205-0.278-2.688-2.133-3.617C108.263,342.895,106.778,343.174,106.129,344.102z" style="fill:#FFFFFF;"/><path d="M136.178,377.116c-1.484,1.206-0.927,3.989,1.205,5.75c2.133,2.134,4.822,2.413,6.028,0.927     c1.205-1.204,0.649-3.987-1.206-5.748C140.165,375.912,137.383,375.633,136.178,377.116z" style="fill:#FFFFFF;"/><path d="M125.605,363.485c-1.484,0.926-1.484,3.337,0,5.47c1.485,2.134,3.989,3.061,5.194,2.134     c1.483-1.206,1.483-3.617,0-5.75C129.5,363.207,127.09,362.278,125.605,363.485L125.605,363.485z" style="fill:#FFFFFF;"/></g></g></g><g id="Layer_1"/></svg>