<?xml version="1.0" ?><!DOCTYPE svg  PUBLIC '-//W3C//DTD SVG 1.1//EN'  'http://www.w3.org/Graphics/SVG/1.1/DTD/svg11.dtd'><svg height="512px" style="enable-background:new 0 0 512 512;" version="1.1" viewBox="0 0 512 512" width="512px" xml:space="preserve" xmlns="http://www.w3.org/2000/svg" xmlns:xlink="http://www.w3.org/1999/xlink"><g id="comp_x5F_144-gitlab"><g><g><g id="XMLID_17_"><g><g><path d="M52.754,205.501l203.18,264.07l-222.7-165.29c-6.11-4.59-8.72-12.58-6.38-19.771l25.87-79.05        L52.754,205.501z" style="fill:#FCA326;"/></g><g><polygon points="171.304,205.461 256.014,469.541 255.934,469.571 52.754,205.501 52.813,205.461               " style="fill:#FC6D26;"/></g><g><polygon points="340.734,205.461 256.024,469.571 256.014,469.541 171.304,205.461 171.394,205.461         340.644,205.461       " style="fill:#E24329;"/></g><g><polygon points="459.294,205.501 256.024,469.571 340.734,205.461 459.234,205.461       " style="fill:#FC6D26;"/></g><g><path d="M485.193,284.511c2.24,7.19-0.27,15.181-6.47,19.771l-222.7,165.29l203.27-264.07l0.03-0.04        L485.193,284.511z" style="fill:#FCA326;"/></g><g><path d="M408.474,48.421l50.761,157.04h-118.5h-0.091l50.851-157.04        C394.363,40.431,405.684,40.431,408.474,48.421z" style="fill:#E24329;"/></g><g><path d="M171.394,205.461h-0.09H52.813l50.76-157.04c2.87-7.99,14.19-7.99,16.98,0        C120.554,48.421,171.304,205.461,171.394,205.461z" style="fill:#E24329;"/></g></g><g><g><path d="M171.394,215.461c-0.03,0-0.059,0-0.09,0H52.813c-3.198,0-6.204-1.53-8.085-4.116c-1.882-2.586-2.414-5.917-1.43-8.96        l50.76-157.04c0.033-0.102,0.067-0.204,0.104-0.305c2.755-7.669,9.786-12.611,17.928-12.611c0.03,0,0.06,0,0.09,0        c8.142,0.036,15.134,5.02,17.814,12.695c0.026,0.074,0.051,0.147,0.075,0.222c16.854,52.151,48.83,151.045,50.693,156.612        c0.408,1.09,0.631,2.271,0.631,3.503C181.394,210.984,176.917,215.461,171.394,215.461z M66.555,195.461h91.058        c-1.079-3.326-2.33-7.184-3.714-11.455c-4.771-14.724-11.124-34.355-17.474-53.987c-10.554-32.628-21.1-65.256-24.362-75.35        L66.555,195.461z"/></g><g><path d="M255.93,479.571c-2.083,0-4.175-0.648-5.957-1.97l-222.7-165.29c-9.623-7.229-13.595-19.631-9.93-30.896        l25.875-79.065c1.157-3.536,4.182-6.138,7.852-6.752c3.667-0.615,7.377,0.859,9.624,3.825l203.164,264.05        c3.043,3.955,2.704,9.548-0.794,13.107C261.122,478.559,258.534,479.571,255.93,479.571z M56.34,226.561l-19.983,61.06        c-0.999,3.068,0.185,6.639,2.882,8.665l164.939,122.419L56.34,226.561z"/></g><g><path d="M256.023,479.571c-4.283,0-8.094-2.729-9.47-6.792c-0.018-0.051-0.045-0.133-0.061-0.184l-84.71-264.081        c-0.976-3.042-0.439-6.366,1.443-8.947c1.882-2.581,4.885-4.107,8.079-4.107H340.5c1.091-0.027,2.195,0.127,3.288,0.478        c5.259,1.687,8.155,7.317,6.468,12.577l-84.709,264.11c-1.318,4.11-5.125,6.911-9.442,6.946        C256.078,479.571,256.05,479.571,256.023,479.571z M185.013,215.461l71.01,221.37l71.002-221.37H185.013z"/></g><g><path d="M256.027,479.571c-2.604,0-5.193-1.014-7.136-2.991c-3.498-3.56-3.835-9.153-0.792-13.108l203.262-264.06        c2.241-2.919,5.918-4.397,9.563-3.8c3.686,0.603,6.742,3.189,7.904,6.738l25.869,79.05c0.016,0.045,0.029,0.091,0.045,0.137        c3.531,11.339-0.515,23.709-10.068,30.781L261.984,477.602C260.203,478.923,258.109,479.571,256.027,479.571z         M455.705,226.557L307.824,418.671l164.939-122.42c2.717-2.011,3.874-5.504,2.898-8.713L455.705,226.557z"/></g><g><path d="M459.234,215.461h-118.5c-3.199,0-6.251-1.531-8.133-4.118s-2.457-5.919-1.472-8.962L381.98,45.34        c0.032-0.101,0.066-0.201,0.102-0.3c2.752-7.661,9.791-12.611,17.932-12.611c8.182,0,15.207,4.983,17.9,12.695        c0.026,0.074,0.051,0.147,0.074,0.221l50.761,157.04c0.983,3.043,0.452,6.374-1.43,8.96        C465.438,213.931,462.432,215.461,459.234,215.461z M354.393,195.461h91.1l-45.51-140.795L354.393,195.461z"/></g></g></g></g></g></g><g id="Layer_1"/></svg>