<?xml version="1.0" ?><!DOCTYPE svg  PUBLIC '-//W3C//DTD SVG 1.1//EN'  'http://www.w3.org/Graphics/SVG/1.1/DTD/svg11.dtd'><svg height="512px" style="enable-background:new 0 0 512 512;" version="1.1" viewBox="0 0 512 512" width="512px" xml:space="preserve" xmlns="http://www.w3.org/2000/svg" xmlns:xlink="http://www.w3.org/1999/xlink"><g id="comp_x5F_147-gmail"><g><g><g><g><path d="M442.871,82.934h-14.36h-0.015L256.003,219.52L83.498,82.934h-2.726H69.125       c-23.803,0-43.124,19.37-43.124,43.241v259.446c0,23.867,19.321,43.24,43.124,43.24h13.939h0.434V159.21l172.505,133.038       l172.493-133.07v254.388v15.295h14.375c23.806,0,43.128-19.373,43.128-43.24V126.175       C485.999,102.305,466.68,82.934,442.871,82.934z" style="fill:#F14336;"/><path d="M442.871,438.861h-14.375c-5.522,0-10-4.478-10-10V179.522L262.111,300.166c-3.6,2.775-8.617,2.776-12.215,0.001       L93.498,179.551v249.311c0,5.522-4.477,10-10,10H69.125c-29.292,0-53.124-23.884-53.124-53.24V126.175       c0-29.357,23.832-53.241,53.124-53.241h14.373c2.253,0,4.441,0.761,6.208,2.16l166.297,131.67l166.285-131.67       c1.767-1.399,3.954-2.16,6.208-2.16h14.375c29.295,0,53.128,23.884,53.128,53.241v259.446       C495.999,414.978,472.166,438.861,442.871,438.861z M438.496,418.861h4.375c18.267,0,33.128-14.911,33.128-33.24V126.175       c0-18.329-14.861-33.241-33.128-33.241h-10.896L262.211,227.359c-3.639,2.88-8.778,2.881-12.416,0L80.019,92.934H69.125       c-18.265,0-33.124,14.912-33.124,33.241v259.446c0,18.329,14.859,33.24,33.124,33.24h4.373V159.21       c0-3.812,2.167-7.292,5.588-8.974c3.421-1.683,7.501-1.272,10.519,1.056l166.397,128.328L422.388,151.26       c3.019-2.329,7.099-2.737,10.52-1.057c3.421,1.682,5.589,5.163,5.589,8.975V418.861z"/></g></g><g><polygon points="428.496,82.934 83.498,82.934 256.003,219.52     " style="fill:#F2F2F2;"/><g><path d="M256.003,229.52c-2.194,0-4.389-0.72-6.208-2.16L77.291,90.774c-3.337-2.642-4.636-7.106-3.237-11.126       c1.398-4.02,5.188-6.714,9.444-6.714h344.998c4.256,0,8.046,2.694,9.444,6.713c1.398,4.02,0.101,8.484-3.236,11.126       L262.211,227.359C260.392,228.799,258.197,229.52,256.003,229.52z M112.237,92.934l143.766,113.83l143.756-113.83H112.237z"/></g></g><g><polygon points="256.003,292.248 83.498,159.21 83.498,428.861 83.064,428.861 83.064,429.066       428.397,429.066 428.397,413.566 428.496,413.566 428.496,159.178     " style="fill:#F2F2F2;"/><path d="M428.397,439.066H83.064c-5.523,0-10-4.478-10-10v-0.205c0-1.017,0.151-1.997,0.434-2.922V159.21      c0-3.812,2.167-7.292,5.588-8.974c3.421-1.683,7.501-1.272,10.519,1.056l166.397,128.328L422.388,151.26      c3.019-2.329,7.099-2.737,10.52-1.057c3.421,1.682,5.589,5.163,5.589,8.975v254.388c0,0.479-0.033,0.949-0.099,1.41v14.09      C438.397,434.589,433.92,439.066,428.397,439.066z M93.498,419.066h324.899v-5.5c0-0.479,0.033-0.949,0.099-1.41V179.522      L262.111,300.166c-3.6,2.775-8.617,2.776-12.215,0.001L93.498,179.551V419.066z"/></g></g></g></g><g id="Layer_1"/></svg>