<?xml version="1.0" ?><!DOCTYPE svg  PUBLIC '-//W3C//DTD SVG 1.1//EN'  'http://www.w3.org/Graphics/SVG/1.1/DTD/svg11.dtd'><svg height="512px" style="enable-background:new 0 0 512 512;" version="1.1" viewBox="0 0 512 512" width="512px" xml:space="preserve" xmlns="http://www.w3.org/2000/svg" xmlns:xlink="http://www.w3.org/1999/xlink"><g id="comp_x5F_149-goodreads"><g><g><g><path d="M127.624,378.107h2.406c10.917,0,21.917,0,32.832,0.09c1.376,0,2.665-0.346,3.095,1.804      c6.102,29.995,25.784,42.008,54.061,50c23.12,6.531,46.497,5.156,69.875,0c29.049-6.361,48.13-22.409,58.443-50      c6.876-18.479,9.195-30.487,9.454-50c0.086-4.983,0.258-38.477-0.172-43.461l-0.772-0.258c-0.688,1.289-1.464,2.493-2.15,3.782      c-18.993,37.044-52.686,57.928-90.589,59.39c-88.525,3.438-145.593-48.99-147.828-151.441      c-0.43-20.369,1.547-40.309,7.134-59.905C141.117,77,187.528,36.519,255.685,36.004c52.686-0.344,87.236,33.262,99.871,60.42      c0.431,0.944,1.116,1.976,2.063,1.633V45.115h38.075c0,240.911,0.085,285.517,0.085,285.517      c-0.085,67.468-22.946,123.508-88.525,139.405c-59.733,14.524-136.656,4.126-168.455-49.16      C131.922,409.273,128.655,392.034,127.624,378.107L127.624,378.107z" style="fill:#7D5024;"/><path d="M257.128,485.999c-57.903,0-104.163-21.868-126.917-59.998      c-9.018-15.218-11.739-36.075-12.559-47.155c-0.205-2.772,0.753-5.506,2.645-7.543c1.892-2.038,4.547-3.195,7.328-3.195h2.406      c10.795,0,21.958,0,32.914,0.09l0.11-0.006c0.267-0.008,0.53-0.015,0.786-0.015c6.042,0,10.722,3.87,11.922,9.859      c4.571,22.472,17.305,33.956,46.976,42.342c9.577,2.706,19.418,4.021,30.085,4.021c10.794,0,22.215-1.361,34.916-4.163      c25.925-5.677,42.198-19.573,51.23-43.735c6.519-17.518,8.58-28.416,8.822-46.632c0.031-1.827,0.064-6.138,0.086-11.357      c-20.896,25.059-50.145,39.654-83.385,40.936c-2.835,0.11-5.688,0.166-8.479,0.167c-0.003,0-0.012,0-0.014,0      c-44.64,0.001-81.898-14.411-107.761-41.68c-26.723-28.175-40.839-68.448-41.958-119.702      c-0.482-22.875,1.976-43.436,7.515-62.865c9.489-32.754,26.981-60.005,50.596-78.85c25.037-19.979,55.727-30.245,91.218-30.513      l0.878-0.003c39.308,0,71.014,18.001,91.131,40.641V45.115c0-5.523,4.478-10,10-10h38.075c5.522,0,10,4.477,10,10      c0,238.124,0.084,285.052,0.085,285.499c-0.104,82.354-33.358,133.916-96.17,149.143      C292.813,483.84,274.663,485.999,257.128,485.999z M138.811,388.109c1.737,11.316,4.778,21.237,8.59,27.67      c19.04,31.905,59.04,50.22,109.727,50.22c15.968,0,32.483-1.964,47.763-5.679c53.583-12.989,80.796-56.627,80.888-129.701      c-0.001-0.408-0.083-46.022-0.085-275.504h-18.075v42.942c0,4.208-2.634,7.966-6.59,9.4c-1.22,0.443-2.491,0.667-3.777,0.667      c-1.725,0-7.599-0.544-10.794-7.551c-9.41-20.226-38.99-54.572-89.97-54.572l-0.737,0.002      c-60.656,0.458-105.395,35.043-122.733,94.887c-4.972,17.44-7.181,36.069-6.742,56.911      c1.995,91.446,48.065,141.811,129.723,141.811c0.005,0,0.009,0,0.014,0c2.533-0.001,5.125-0.052,7.707-0.151      c35.278-1.361,65.193-21.028,82.078-53.96c0.023-0.046,0.048-0.092,0.072-0.138c0.411-0.772,0.846-1.52,1.284-2.266      c0.296-0.504,0.594-1.007,0.872-1.527c2.298-4.301,7.363-6.317,11.985-4.774l0.772,0.257c3.784,1.263,6.455,4.653,6.798,8.627      c0.512,5.936,0.263,41.298,0.207,44.493c-0.272,20.575-2.722,33.539-10.08,53.314c-11.479,30.712-32.961,49.117-65.677,56.281      c-14.118,3.114-26.948,4.629-39.209,4.629c-12.357,0-24.309-1.605-35.523-4.774c-24.461-6.913-50.355-18.498-59.652-51.463      C151.362,388.125,145.05,388.113,138.811,388.109z" style="fill:#5E3C1B;"/></g><path d="M251.385,77.375c-41.525-0.396-85.818,32.191-90.959,105.828     c-3.242,46.667,11.707,96.656,56.553,117.539c21.831,10.202,58.769,11.863,85.66-6.883     c37.65-26.259,49.594-76.723,43.346-121.808C338.311,115.814,308.175,77.137,251.385,77.375z" style="fill:#5E3C1B;"/></g></g></g><g id="Layer_1"/></svg>