<?xml version="1.0" ?><!DOCTYPE svg  PUBLIC '-//W3C//DTD SVG 1.1//EN'  'http://www.w3.org/Graphics/SVG/1.1/DTD/svg11.dtd'><svg height="512px" style="enable-background:new 0 0 512 512;" version="1.1" viewBox="0 0 512 512" width="512px" xml:space="preserve" xmlns="http://www.w3.org/2000/svg" xmlns:xlink="http://www.w3.org/1999/xlink"><g id="comp_x5F_153-google-plus"><g><g><g><path d="M312.769,235.408c1.374,7.256,2.353,14.513,2.353,23.926      c0,82.171-55.108,140.416-138.063,140.416c-79.425,0-143.75-64.325-143.75-143.749c0-79.427,64.325-143.751,143.75-143.751      c38.831,0,71.189,14.12,96.292,37.653l-39.027,37.457c-10.59-10.197-29.22-22.16-57.265-22.16      c-49.027,0-89.034,40.596-89.034,90.801c0,50.202,40.007,90.798,89.034,90.798c56.873,0,78.249-40.986,81.582-61.972h-75.331      v-49.419H312.769L312.769,235.408z M436.966,240.228V198.5h-41.928v41.728h-41.729v41.929h41.729v41.724h41.928v-41.724h41.726      v-41.929H436.966z" style="fill:#DC4E41;"/><path d="M177.058,409.75c-84.778,0-153.75-68.972-153.75-153.749c0-84.778,68.972-153.751,153.75-153.751      c39.306,0,74.968,13.956,103.13,40.358c2.002,1.876,3.145,4.493,3.161,7.237c0.016,2.744-1.096,5.374-3.075,7.273      l-39.027,37.457c-3.873,3.718-9.992,3.712-13.86-0.012c-9.174-8.833-25.352-19.363-50.329-19.363      c-43.58,0-79.034,36.247-79.034,80.801c0,44.552,35.455,80.798,79.034,80.798c40.799,0,60.805-23.327,68.382-41.972h-62.131      c-5.523,0-10-4.478-10-10v-49.419c0-5.523,4.477-10,10-10h129.46c4.806,0,8.932,3.418,9.825,8.139      c1.25,6.6,2.527,14.824,2.527,25.787c0,42.613-14.474,80.966-40.754,107.993C257.381,395.08,220.274,409.75,177.058,409.75z       M177.058,122.25c-73.75,0-133.75,60-133.75,133.751c0,73.749,60,133.749,133.75,133.749      c76.599,0,128.063-52.41,128.063-130.416c0-5.363-0.35-9.899-0.862-13.926h-110.95v29.419h65.331      c2.926,0,5.705,1.281,7.605,3.507s2.729,5.172,2.271,8.062c-0.923,5.812-5.347,26.187-23.518,44.358      c-11.882,11.881-33.313,26.045-67.939,26.045c-54.607,0-99.034-45.218-99.034-100.798c0-55.582,44.427-100.801,99.034-100.801      c25.916,0,44.516,9.104,56.895,18.655l24.58-23.591C235.395,131.665,208.039,122.25,177.058,122.25z M436.966,333.88h-41.928      c-5.522,0-10-4.478-10-10v-31.724h-31.729c-5.522,0-10-4.478-10-10v-41.929c0-5.523,4.478-10,10-10h31.729V198.5      c0-5.523,4.478-10,10-10h41.928c5.522,0,10,4.477,10,10v31.728h31.726c5.522,0,10,4.477,10,10v41.929c0,5.522-4.478,10-10,10      h-31.726v31.724C446.966,329.402,442.488,333.88,436.966,333.88z M405.038,313.88h21.928v-31.724c0-5.522,4.478-10,10-10h31.726      v-21.929h-31.726c-5.522,0-10-4.477-10-10V208.5h-21.928v31.728c0,5.523-4.478,10-10,10h-31.729v21.929h31.729      c5.522,0,10,4.478,10,10V313.88z" style="fill:#A53B31;"/></g></g></g></g><g id="Layer_1"/></svg>