<?xml version="1.0" ?><!DOCTYPE svg  PUBLIC '-//W3C//DTD SVG 1.1//EN'  'http://www.w3.org/Graphics/SVG/1.1/DTD/svg11.dtd'><svg height="512px" style="enable-background:new 0 0 512 512;" version="1.1" viewBox="0 0 512 512" width="512px" xml:space="preserve" xmlns="http://www.w3.org/2000/svg" xmlns:xlink="http://www.w3.org/1999/xlink"><g id="comp_x5F_9-adwords"><g><g><g><path d="M480.252,464.784L340.231,43.574l-86.808,261.082l39.915,120.081      c11.729,35.277,44.531,58.97,81.603,58.97h91.693c4.618,0,8.946-2.215,11.607-5.983      C480.969,473.983,481.683,469.153,480.252,464.784z" style="fill:#28B04C;"/><g><path d="M466.634,493.707H374.94c-41.397,0-78.004-26.449-91.092-65.814l-39.915-120.082       c-0.681-2.048-0.681-4.262,0-6.31l86.808-261.082c1.359-4.087,5.183-6.845,9.489-6.845l0,0c4.308,0,8.131,2.758,9.489,6.846       l140.021,421.21c2.445,7.466,1.177,15.642-3.377,21.927C481.844,489.914,474.474,493.707,466.634,493.707z M263.962,304.657       l38.865,116.926c10.365,31.177,39.346,52.124,72.113,52.124h91.693c1.379,0,2.664-0.655,3.438-1.752       c0.029-0.041,0.06-0.082,0.089-0.124c0.811-1.111,1.03-2.582,0.587-3.935L340.23,75.272L263.962,304.657z" style="fill:#1E8439;"/></g></g><g><path d="M342.561,47.021c1.419-4.323,0.709-9.11-1.989-12.809c-2.637-3.726-6.929-5.919-11.499-5.919      H187.138c-6.099,0-11.523,3.926-13.448,9.733L31.756,464.973c-1.445,4.325-0.71,9.104,1.927,12.811      c2.667,3.731,6.96,5.924,11.528,5.924h90.778c36.704,0,69.179-23.456,80.787-58.382l38.274-115.112l84.113-252.98      L342.561,47.021z" style="fill:#3285FF;"/><g><path d="M135.989,493.707H45.211c-7.789,0-15.14-3.779-19.664-10.11       c-4.503-6.327-5.723-14.469-3.275-21.793L164.201,34.872c3.285-9.913,12.504-16.579,22.937-16.579h141.934       c7.792,0,15.12,3.767,19.618,10.081c4.533,6.251,5.794,14.383,3.371,21.765L226.266,428.48       C213.298,467.494,177.019,493.707,135.989,493.707z M187.138,38.293c-1.795,0-3.385,1.157-3.956,2.879L41.246,468.127       c-0.434,1.299-0.213,2.735,0.585,3.858c0.766,1.072,2.034,1.722,3.38,1.722h90.778c32.4,0,61.052-20.711,71.297-51.536       L333.071,43.864c0.416-1.267,0.204-2.686-0.578-3.758c-0.028-0.039-0.057-0.078-0.085-0.117       c-0.751-1.062-1.998-1.696-3.336-1.696H187.138z" style="fill:#2664BF;"/></g></g></g></g></g><g id="Layer_1"/></svg>