<?xml version="1.0" ?><!DOCTYPE svg  PUBLIC '-//W3C//DTD SVG 1.1//EN'  'http://www.w3.org/Graphics/SVG/1.1/DTD/svg11.dtd'><svg height="512px" style="enable-background:new 0 0 512 512;" version="1.1" viewBox="0 0 512 512" width="512px" xml:space="preserve" xmlns="http://www.w3.org/2000/svg" xmlns:xlink="http://www.w3.org/1999/xlink"><g id="comp_x5F_158-grooveshark"><g><g><g><path d="M256.002,26.001c-126.646,0-229.38,102.98-229.38,229.999s102.734,229.999,229.38,229.999      c126.642,0,229.375-103.013,229.375-229.999C485.377,128.981,382.645,26.001,256.002,26.001L256.002,26.001z" style="fill:#F28006;"/><path d="M256.002,495.999c-63.931,0-124.043-24.969-169.262-70.306      C41.524,380.359,16.623,320.095,16.623,256S41.524,131.641,86.74,86.307c45.219-45.337,105.331-70.306,169.262-70.306      c63.929,0,124.04,24.968,169.258,70.306c45.215,45.334,70.116,105.599,70.116,169.693      C495.377,388.336,387.994,495.999,256.002,495.999z M256.002,36.001c-120.966,0-219.38,98.691-219.38,219.999      s98.414,219.999,219.38,219.999c120.963,0,219.375-98.691,219.375-219.999S376.966,36.001,256.002,36.001z" style="fill:#B66005;"/></g><g><path d="M180.1,136.033c-1.461-0.404-5.415-2.216-6.561-0.404l-0.032,4.425      c0.316,2.708,0.631,5.38,0.948,8.053c3.871,32.116,5.331,52.782-4.616,83.971c-5.304,16.796-15.05,32.141-28.042,44.076      c-10.752,9.866-26.093,19.837-41.345,19.121c-2.838-0.091-5.65-0.579-8.427-1.522C75.71,288.225,74.764,270.517,74.676,256      c-0.143-15.642,1.754-31.224,5.621-46.373c1.176-4.687,2.609-9.258,4.186-13.827c17.836-51.865,59.121-94.1,110.959-112.528      c19.41-6.9,39.969-10.378,60.559-10.378c60.664,0,118.328,31.249,151.642,82.053c8.346,12.731,15.025,26.502,19.93,40.878      h-0.061c1.58,4.575,3.041,9.115,4.244,13.803c3.818,15.149,5.709,30.757,5.617,46.4c-0.227,29.439-9.66,61.868-46.443,46.287      C373.523,294.956,322.377,201.667,217.579,150C205.475,144.141,193.007,139.737,180.1,136.033L180.1,136.033z" style="fill:#FFFFFF;"/><path d="M408.187,316.359c-6.462,0-13.581-1.628-21.157-4.837c-7.444-3.147-15.109-12.366-29.025-29.103      c-27.426-32.984-73.328-88.191-144.847-123.451c-8.662-4.193-17.918-7.81-28.668-11.181c3.866,32.24,5.376,54.408-5.122,87.328      c-5.848,18.517-16.502,35.263-30.804,48.402c-8.872,8.141-26.71,21.792-46.55,21.793c-0.653,0-1.304-0.015-1.958-0.044      c-3.851-0.131-7.635-0.819-11.247-2.046c-23.895-8.096-24.055-34.48-24.132-47.16c-0.15-16.436,1.846-32.901,5.932-48.907      c1.128-4.494,2.536-9.15,4.422-14.615c18.907-54.979,62.669-99.352,117.063-118.689c20.449-7.27,41.951-10.956,63.908-10.956      c31.412,0,62.823,8.016,90.837,23.181c27.993,15.153,51.91,37.073,69.167,63.389c8.741,13.334,15.816,27.845,21.032,43.133      c0.113,0.333,0.209,0.67,0.286,1.01c1.79,5.243,3.071,9.454,4.118,13.535c4.036,16.012,6.028,32.465,5.932,48.945      C447.078,294.397,432.795,316.359,408.187,316.359z M175.342,124.838c2.879,0,5.487,0.892,7.044,1.425      c0.176,0.061,0.335,0.117,0.471,0.159c14.813,4.25,27.595,9.019,39.078,14.578c75.399,37.173,123.004,94.427,151.447,128.635      c8.511,10.236,18.157,21.838,21.496,23.495c5.047,2.136,9.54,3.23,13.308,3.23c17.036,0,19.094-28.259,19.187-40.409      c0.087-14.775-1.701-29.545-5.313-43.879c-0.966-3.762-2.203-7.779-4-12.982c-0.118-0.342-0.217-0.688-0.297-1.037      c-4.639-13.332-10.854-25.984-18.483-37.624C367.918,112.604,313.017,82.894,256,82.894c-19.669,0-38.917,3.297-57.209,9.8      c-48.708,17.316-87.904,57.076-104.852,106.358c-1.697,4.917-2.949,9.048-3.943,13.01c-3.668,14.37-5.455,29.109-5.321,43.847      c0.098,16.125,1.809,25.408,10.558,28.372c1.799,0.611,3.608,0.938,5.538,0.999c0.05,0.002,0.099,0.004,0.149,0.006      c0.362,0.018,0.724,0.025,1.085,0.025c0.002,0,0.003,0,0.005,0c9.543,0,21.581-6.023,33.025-16.525      c11.725-10.771,20.463-24.507,25.268-39.719c9.557-29.967,7.831-49.832,4.223-79.763c-0.32-2.698-0.636-5.376-0.952-8.09      c-0.048-0.409-0.07-0.82-0.067-1.231l0.032-4.425c0.013-1.867,0.549-3.693,1.547-5.272      C167.276,126.823,171.014,124.838,175.342,124.838z" style="fill:#B66005;"/></g></g></g></g><g id="Layer_1"/></svg>