<?xml version="1.0" ?><!DOCTYPE svg  PUBLIC '-//W3C//DTD SVG 1.1//EN'  'http://www.w3.org/Graphics/SVG/1.1/DTD/svg11.dtd'><svg height="512px" style="enable-background:new 0 0 512 512;" version="1.1" viewBox="0 0 512 512" width="512px" xml:space="preserve" xmlns="http://www.w3.org/2000/svg" xmlns:xlink="http://www.w3.org/1999/xlink"><g id="comp_x5F_161-hangouts"><g><g><g><path d="M256,37.46c-105.161,0-190.706,85.771-190.706,191.218c0,95.093,70.833,175.903,163.458,189.31      v56.551h13.622c108.842,0,204.332-114.902,204.332-245.86C446.706,123.232,361.129,37.46,256,37.46z" style="fill:#1BA261;"/><g><path d="M242.375,484.539h-23.622v-58.086c-93.776-17.802-163.458-101.32-163.458-197.774       C55.294,117.727,145.33,27.46,256,27.46s200.706,90.266,200.706,201.218c0,64.716-23.203,129.752-63.659,178.431       c-19.918,23.967-42.849,42.898-68.155,56.271C298.322,477.421,270.56,484.539,242.375,484.539z M238.752,464.539h3.622       c48.896,0,98.208-25.592,135.291-70.213c37.521-45.147,59.041-105.523,59.041-165.647c0-99.924-81.064-181.218-180.706-181.218       S75.294,128.754,75.294,228.679c0,89.501,66.588,166.632,154.891,179.413l8.567,1.239V464.539z" style="fill:#147A49;"/></g></g><g><path d="M228.752,258.973c0,0,0,26.605-40.863,38.002v-40.978h-40.87v-81.953v-0.002h81.733V258.973z" style="fill:#FFFFFF;"/><g><path d="M177.889,310.146v-44.148h-40.87V164.044l101.733-0.002v94.931       c0,1.396-0.548,34.351-48.177,47.635L177.889,310.146z M157.019,245.997h40.87v36.656c20.205-9.728,20.863-23.519,20.863-23.68       v-74.931h-61.733V245.997z" style="fill:#147A49;"/></g></g><g><path d="M364.971,258.973c0,0,0,26.605-40.865,38.002v-40.978h-40.867v-81.953v-0.002h81.732V258.973z" style="fill:#FFFFFF;"/><g><path d="M314.105,310.145v-44.147h-40.867V164.044l101.732-0.002v94.931       c0,1.396-0.548,34.351-48.179,47.635L314.105,310.145z M293.238,245.997h40.867v36.656       c20.206-9.728,20.865-23.519,20.865-23.68v-74.931h-61.732V245.997z" style="fill:#147A49;"/></g></g></g></g></g><g id="Layer_1"/></svg>