<?xml version="1.0" ?><!DOCTYPE svg  PUBLIC '-//W3C//DTD SVG 1.1//EN'  'http://www.w3.org/Graphics/SVG/1.1/DTD/svg11.dtd'><svg height="512px" style="enable-background:new 0 0 512 512;" version="1.1" viewBox="0 0 512 512" width="512px" xml:space="preserve" xmlns="http://www.w3.org/2000/svg" xmlns:xlink="http://www.w3.org/1999/xlink"><g id="comp_x5F_165-hotjar"><g><g><g><path d="M417.631,182.755C354.378,70.557,168.851,46.001,168.851,46.001s85.608,93.484-23.794,167.406      C75.875,260.064,48.523,320.693,78.16,386.911c22.694,50.721,70.706,71.385,122.443,79.088      c-24.725-46.656-5.589-103.645-3.472-109.741c48.352,73.161,139.719,0,93.823-79.513      c60.121,13.042,69.097,117.363,22.947,182.479c68.166-21.422,113.552-75.279,125.999-123.29      C453.026,285.721,443.034,227.634,417.631,182.755L417.631,182.755z" style="fill:#E02B37;"/><path d="M200.605,475.999c-0.489,0-0.981-0.036-1.474-0.109c-30.262-4.505-55.021-12.576-75.691-24.672      c-24.687-14.447-42.992-34.709-54.408-60.223c-30.678-68.544-5.665-134.557,70.433-185.878      c30.455-20.579,47.516-44.479,50.7-71.032c5.213-43.47-28.362-80.969-28.702-81.343c-2.824-3.106-3.414-7.653-1.467-11.372      c1.947-3.719,6.004-5.832,10.166-5.282c1.939,0.257,48.126,6.52,102.84,26.842c32.292,11.994,60.802,26.422,84.738,42.885      c30.338,20.866,53.419,45.1,68.601,72.03c13.3,23.495,22.555,50.469,26.758,77.991c4.36,28.555,3.143,57.127-3.523,82.629      c-6.838,26.375-22.677,53.387-44.593,76.04c-24.173,24.985-54.631,43.748-88.083,54.261c-4.095,1.286-8.555-0.183-11.082-3.653      s-2.557-8.167-0.075-11.669c26.609-37.544,35.077-92.728,20.136-131.214c-3.044-7.841-7.84-16.845-15.26-23.988      c5.717,21.99,3.147,43.987-7.815,62.974c-12.533,21.706-34.411,35.19-57.096,35.19c-16.066,0-31.206-6.593-43.955-18.889      c-4.286,20.486-7.631,54.419,7.418,83.291c0.921,1.514,1.452,3.291,1.452,5.192c0,5.48-4.409,9.932-9.874,9.999      C200.702,475.999,200.653,475.999,200.605,475.999z M191.36,60.231c10.63,17.763,22.33,45.188,18.684,76.062      c-3.855,32.646-23.837,61.378-59.389,85.4c-47.481,32.022-97.01,85.966-63.368,161.133      c16.233,36.279,48.045,59.294,96.973,70.027c-14.253-44.14,0.033-90.108,3.424-99.876c1.248-3.594,4.427-6.168,8.201-6.642      c3.778-0.474,7.491,1.235,9.588,4.408c11.094,16.787,25.007,25.66,40.233,25.66c15.563,0,30.804-9.652,39.776-25.191      c11.729-20.314,10.567-45.635-3.19-69.469c-1.978-3.427-1.749-7.698,0.584-10.895c2.332-3.196,6.328-4.715,10.197-3.877      c23.102,5.011,41.372,22.064,51.448,48.018c8.228,21.192,10.688,47.591,6.927,74.333c-2.481,17.647-7.454,34.595-14.639,50.127      c51.803-24.935,83.849-69.145,93.41-106.025c11.928-45.634,3.767-101.472-21.293-145.744      c-31.135-55.227-94.675-88.046-142.496-105.856C237.035,70.875,209.781,64.095,191.36,60.231z" style="fill:#A82029;"/></g></g></g></g><g id="Layer_1"/></svg>