<?xml version="1.0" ?><!DOCTYPE svg  PUBLIC '-//W3C//DTD SVG 1.1//EN'  'http://www.w3.org/Graphics/SVG/1.1/DTD/svg11.dtd'><svg height="512px" style="enable-background:new 0 0 512 512;" version="1.1" viewBox="0 0 512 512" width="512px" xml:space="preserve" xmlns="http://www.w3.org/2000/svg" xmlns:xlink="http://www.w3.org/1999/xlink"><g id="comp_x5F_166-houzz"><g><g><g><path d="M316,331H216v140H56V41h110.299v100L456,231v240H316V331z" style="fill:#4DBD15;"/><path d="M456,481H316c-5.522,0-10-4.478-10-10V341h-80v130c0,5.522-4.477,10-10,10H56      c-5.523,0-10-4.478-10-10V41c0-5.523,4.477-10,10-10h110.299c5.523,0,10,4.477,10,10v92.635l282.668,87.815      c4.183,1.299,7.033,5.17,7.033,9.55v240C466,476.522,461.522,481,456,481z M326,461h120V238.365L163.332,150.55      c-4.183-1.299-7.033-5.17-7.033-9.55V51H66v410h140V331c0-5.522,4.477-10,10-10h100c5.522,0,10,4.478,10,10V461z" style="fill:#3A8E10;"/></g></g></g></g><g id="Layer_1"/></svg>