<?xml version="1.0" ?><!DOCTYPE svg  PUBLIC '-//W3C//DTD SVG 1.1//EN'  'http://www.w3.org/Graphics/SVG/1.1/DTD/svg11.dtd'><svg height="512px" style="enable-background:new 0 0 512 512;" version="1.1" viewBox="0 0 512 512" width="512px" xml:space="preserve" xmlns="http://www.w3.org/2000/svg" xmlns:xlink="http://www.w3.org/1999/xlink"><g id="comp_x5F_170-icloud"><g><g><g id="_x39_2-icloud_10_"><g><g><g><path d="M384.37,212.759c0.654-4.728,1.003-9.542,1.003-14.415         c0-55.641-45.136-100.898-100.628-100.898c-35.617,0-68.508,19.226-86.306,49.245c-8.967-3.955-18.657-6.003-28.687-6.003         c-39.619,0-71.875,32.349-71.875,72.071c0,1.472,0.031,2.909,0.143,4.319c-41.949,12.199-72.02,51.345-72.02,96.577         c0,55.633,45.135,100.898,100.628,100.898h258.744c55.487,0,100.626-45.266,100.626-100.898         C485.999,257.701,440.743,212.296,384.37,212.759L384.37,212.759z" style="fill:#297DEE;"/><path d="M385.373,424.554H126.629c-61,0-110.628-49.749-110.628-110.898         c0-46.355,29.215-87.967,71.926-103.771c1.515-43.93,37.639-79.197,81.826-79.197c8.484,0,16.751,1.276,24.674,3.804         c20.527-29.215,54.402-47.045,90.318-47.045c61,0,110.628,49.749,110.628,110.898c0,1.61-0.035,3.23-0.105,4.855         c25.904,2.301,49.903,13.485,68.419,32.072c20.837,20.916,32.313,48.753,32.313,78.384         C495.999,374.805,446.372,424.554,385.373,424.554z M169.753,150.688c-34.118,0-61.875,27.845-61.875,62.071         c0,1.446,0.036,2.568,0.111,3.532c0.374,4.727-2.624,9.065-7.176,10.389c-38.161,11.097-64.812,46.862-64.812,86.975         c0,50.121,40.656,90.898,90.628,90.898h258.744c49.972,0,90.626-40.777,90.626-90.898c0-50.122-40.722-90.899-90.774-90.899         l-0.772,0.003c-2.892,0.053-5.678-1.217-7.596-3.4c-1.917-2.183-2.79-5.092-2.392-7.97c0.603-4.356,0.908-8.744,0.908-13.043         c0-50.122-40.655-90.898-90.628-90.898c-31.712,0-61.486,16.992-77.704,44.345c-2.581,4.353-8.007,6.091-12.637,4.049         C186.652,152.421,178.359,150.688,169.753,150.688z" style="fill:#1F5EB3;"/></g></g></g></g></g></g></g><g id="Layer_1"/></svg>