<?xml version="1.0" ?><!DOCTYPE svg  PUBLIC '-//W3C//DTD SVG 1.1//EN'  'http://www.w3.org/Graphics/SVG/1.1/DTD/svg11.dtd'><svg height="512px" style="enable-background:new 0 0 512 512;" version="1.1" viewBox="0 0 512 512" width="512px" xml:space="preserve" xmlns="http://www.w3.org/2000/svg" xmlns:xlink="http://www.w3.org/1999/xlink"><g id="comp_x5F_173-instagram"><g><g><g><path d="M385.635,482.255H126.366c-59.392,0-107.711-48.318-107.711-107.71V137.456      c0-59.392,48.319-107.71,107.711-107.71h259.269c59.392,0,107.711,48.319,107.711,107.71v237.089      C493.346,433.937,445.026,482.255,385.635,482.255z M126.366,49.745c-48.364,0-87.711,39.347-87.711,87.71v237.089      c0,48.363,39.347,87.71,87.711,87.71h259.269c48.364,0,87.711-39.347,87.711-87.71V137.456c0-48.364-39.347-87.71-87.711-87.71      H126.366z" style="fill:#503DD4;"/></g><g><path d="M256,385.35c-71.178,0-129.085-57.907-129.085-129.085c0-71.178,57.908-129.086,129.085-129.086      s129.086,57.908,129.086,129.086C385.086,327.442,327.178,385.35,256,385.35z M256,147.179      c-60.15,0-109.085,48.936-109.085,109.086c0,60.149,48.936,109.085,109.085,109.085c60.15,0,109.086-48.936,109.086-109.085      C365.086,196.114,316.15,147.179,256,147.179z" style="fill:#503DD4;"/></g><g><path d="M407.563,147.179c-17.452,0-31.651-14.199-31.651-31.652s14.199-31.652,31.651-31.652      s31.651,14.199,31.651,31.652S425.016,147.179,407.563,147.179z M407.563,103.875c-6.425,0-11.651,5.227-11.651,11.652      s5.227,11.652,11.651,11.652s11.651-5.227,11.651-11.652S413.988,103.875,407.563,103.875z" style="fill:#503DD4;"/></g></g></g></g><g id="Layer_1"/></svg>