<?xml version="1.0" ?><!DOCTYPE svg  PUBLIC '-//W3C//DTD SVG 1.1//EN'  'http://www.w3.org/Graphics/SVG/1.1/DTD/svg11.dtd'><svg height="512px" style="enable-background:new 0 0 512 512;" version="1.1" viewBox="0 0 512 512" width="512px" xml:space="preserve" xmlns="http://www.w3.org/2000/svg" xmlns:xlink="http://www.w3.org/1999/xlink"><g id="comp_x5F_176-invision"><g><g><g><path d="M427.938,46.001H84.063c-20.999,0-38.062,17.063-38.062,38.063v343.874      c0,20.998,17.063,38.062,38.062,38.062h343.874c20.999,0,38.061-17.063,38.061-38.062V84.063      C465.998,63.063,448.937,46.001,427.938,46.001z" style="fill:#FF3366;"/><path d="M427.938,475.999H84.063c-26.501,0-48.062-21.561-48.062-48.062V84.063      c0-26.502,21.56-48.063,48.062-48.063h343.874c26.501,0,48.061,21.561,48.061,48.063v343.874      C475.998,454.438,454.438,475.999,427.938,475.999z M84.063,56.001c-15.473,0-28.062,12.589-28.062,28.063v343.874      c0,15.474,12.588,28.062,28.062,28.062h343.874c15.473,0,28.061-12.588,28.061-28.062V84.063      c0-15.474-12.588-28.063-28.061-28.063H84.063z" style="fill:#BF264D;"/></g><g><path d="M211.094,152.501c0.376,21.938-20.999,25.594-24.937,25.687      c-13.97,0-25.406-11.249-25.406-25.312C160.845,119.876,210.531,119.595,211.094,152.501z" style="fill:#FFFFFF;"/><path d="M186.275,188.188h-0.118c-19.523,0-35.406-15.841-35.406-35.312      c0.065-22.924,17.748-34.903,35.183-34.903c17.18,0,34.773,11.801,35.159,34.357c0.454,26.462-23.182,35.583-34.7,35.854      L186.275,188.188z M185.934,137.973c-6.984,0-15.151,3.91-15.183,14.931c0,8.351,6.808,15.18,15.216,15.282      c1.175-0.085,15.37-1.417,15.128-15.514C200.91,141.823,192.812,137.973,185.934,137.973z" style="fill:#BF264D;"/></g><g><path d="M357.999,369.437c-61.499,0-31.967-41.785-23.437-72.348c13.22-43.5-42.375-55.312-56.157,0.656      L254.219,367h-42.28l7.593-30.468c-29.531,48.56-88.686,41.624-88.686-4.033c0.093-13.406,0.843-13.125,21.563-97.592h-29.814      l9.095-33.376h71.624C182.5,263,180.282,290.065,180,300.656c0,19.595,38.344,23.75,53.813-10.656l11.032-55.093H220l10-33.376      h58.155l-8.343,37.969c37.968-70.78,119.905-44.812,95.438,35.626c-13.313,47.904-13.688,47.53-13.97,55.123      c0,14.533,16.405,21.188,29.812-15.842l16.782,6.281C398.03,355.094,380.312,369.437,357.999,369.437z" style="fill:#FFFFFF;"/><path d="M167.361,379.966c-12.669,0.002-24.268-4.42-32.659-12.451      c-9.064-8.675-13.856-20.783-13.856-35.016c0.083-11.946,0.731-14.564,11.566-58.297c2.026-8.176,4.417-17.827,7.241-29.295      h-30.149l14.545-53.376h93.207l-4.472,13.207c-14.321,42.297-22.197,75.49-22.783,96.013c0.092,3.594,5.425,4.901,9.02,4.901      c7.933,0,18.625-4.957,25.218-18.776l8.404-41.969h-26.079l15.993-53.376h78.034l-2.304,10.488      c11.821-8.871,25.116-13.722,38.703-13.722c16.478,0,31.454,7.458,41.09,20.46c12.697,17.134,15.102,41.692,6.773,69.162      c-2.731,9.828-4.918,17.621-6.67,23.867c-6.53,23.282-6.73,24.143-6.895,28.43c2.295-2.28,6.169-7.522,10.401-19.213l3.44-9.505      l34.899,13.063l-2.541,8.879c-13.243,46.282-39.661,55.997-59.49,55.997c-21.754,0-35.811-5.042-42.973-15.415      c-10.308-14.93-2.648-35.144,4.109-52.978c2.243-5.919,4.362-11.51,5.795-16.644l0.063-0.22      c2.491-8.197,2.049-15.16-1.246-19.605c-2.188-2.95-5.559-4.575-9.494-4.575c-8.635,0-20.661,7.893-26.139,30.137l-0.27,0.905      L261.318,377h-62.178l1.765-7.082C190.518,376.425,179.034,379.965,167.361,379.966z M135.683,224.907h29.475l-3.038,12.382      c-4.197,17.111-7.575,30.746-10.295,41.722c-10.71,43.227-10.915,44.228-10.979,53.557c0,8.574,2.657,15.687,7.685,20.497      c4.65,4.451,11.337,6.901,18.829,6.9c12.675-0.001,30.792-7.522,43.628-28.63l5.916-9.728      c-6.152,2.822-12.364,4.044-17.882,4.044c-16.816,0-29.021-10.513-29.021-24.996l0.003-0.267      c0.547-20.515,7.093-50.368,19.475-88.858h-50.15L135.683,224.907z M344.164,299.885c-1.673,5.969-4.038,12.21-6.326,18.246      c-4.767,12.579-10.698,28.234-6.354,34.527c1.748,2.531,7.517,6.778,26.515,6.778c5.422,0,19.395,0.002,30.947-19.104      c-6.969,9.077-13.922,11.488-19.337,11.488c-10.449,0-18.328-9.274-18.328-21.572l0.007-0.37      c0.268-7.215,0.684-8.699,7.64-33.495c1.755-6.258,3.947-14.072,6.688-23.936l0.067-0.232      c6.48-21.303,5.176-39.611-3.672-51.551c-5.911-7.976-14.797-12.368-25.021-12.368c-18.217,0-36.297,13.432-48.365,35.93      l-34.028,63.436l21.123-96.132h-38.277l-4.007,13.376h23.61l-13.65,68.163l-0.463,1.03c-1.41,3.135-2.977,6-4.667,8.607      L224.736,357h22.382l21.694-62.117C277.141,261.767,298.464,250,314.254,250c10.278,0,19.595,4.616,25.561,12.665      C346.959,272.303,348.502,285.517,344.164,299.885z" style="fill:#BF264D;"/></g></g></g></g><g id="Layer_1"/></svg>