<?xml version="1.0" ?><!DOCTYPE svg  PUBLIC '-//W3C//DTD SVG 1.1//EN'  'http://www.w3.org/Graphics/SVG/1.1/DTD/svg11.dtd'><svg height="512px" style="enable-background:new 0 0 512 512;" version="1.1" viewBox="0 0 512 512" width="512px" xml:space="preserve" xmlns="http://www.w3.org/2000/svg" xmlns:xlink="http://www.w3.org/1999/xlink"><g id="comp_x5F_177-Iota"><g><g><g><g><g><path d="M360.221,112.229c-0.439,0-0.876-0.005-1.317-0.017c-27.989-0.672-50.273-24.033-49.93-52.202        c-0.155-13.007,5.101-25.93,14.478-35.548c9.827-10.08,22.962-15.631,36.982-15.631c0.769,0,1.542,0.017,2.319,0.051        l0.267,0.014c13.143,0.724,25.435,6.53,34.611,16.35c9.142,9.782,14.176,22.506,14.176,35.827        C411.807,89.281,388.665,112.229,360.221,112.229z M358.979,59.73l0.007,0.252l-0.015,0.61        c-0.026,1.11,0.559,1.622,1.149,1.636l0.101,0.001c0.372,0,1.586-0.083,1.586-1.156c0-1.308-1.1-2.12-1.476-2.238        C359.561,58.885,359.124,59.486,358.979,59.73z"/></g><g><path d="M389.701,488.68c-28.258,0-51.248-23.103-51.248-51.5c0.002-14.018,5.363-27.101,15.097-36.844        c9.694-9.704,22.65-15.048,36.482-15.048c28.746,0,51.265,22.631,51.265,51.521        C441.297,465.411,418.151,488.68,389.701,488.68z M390.032,435.288c-1.063,0-1.579,0.62-1.579,1.895        c0,0.849,0.832,1.497,1.248,1.497c0.925,0,1.596-0.786,1.596-1.87C391.297,435.288,390.536,435.288,390.032,435.288z"/></g><g><path d="M52.195,326.425c-28.707,0-51.194-22.938-51.194-52.219c0-28.014,22.852-50.805,50.94-50.805        c0.315,0,0.631,0.003,0.948,0.009c13.855,0.078,26.747,5.594,36.329,15.554c9.395,9.766,14.569,22.785,14.569,36.66        l-0.007,0.595C103.121,303.902,79.98,326.425,52.195,326.425z M51.996,273.401c-0.68,0-0.995,0.271-0.995,0.805        c0,2.219,0.899,2.219,1.194,2.219c0.769,0,1.425-0.669,1.569-1.204c-0.062-0.641-0.295-1.812-1.172-1.812l-0.594-0.008        C51.998,273.401,51.997,273.401,51.996,273.401z"/></g><g><path d="M368.131,179.021h-0.346c-26.287-0.001-47.674-21.477-47.674-47.874c0-26.393,21.387-47.864,47.675-47.864        c25.474,0,46.829,20.973,47.605,46.752l0.012,0.752c0,25.875-21.051,47.508-46.926,48.224L368.131,179.021z M367.787,131.469        v1.814c1.124,0,2.155-0.87,2.306-1.883L367.787,131.469z M367.163,131.488l-1.748,0.053c0.035,1.188,1.104,1.566,1.796,1.687        L367.163,131.488z M367.787,130.788h2.284c-0.211-0.95-1.222-1.767-2.284-1.767V130.788z M367.095,129.031        c-0.396,0.011-1.691,0.17-1.691,1.757h1.74L367.095,129.031z"/></g><g><path d="M109.362,280.677c-26.286,0-47.672-21.487-47.672-47.899c0-26.18,21.227-47.479,47.317-47.479        c26.452,0,47.973,21.299,47.973,47.479c0,12.606-4.953,24.562-13.947,33.663C134.093,275.487,121.821,280.677,109.362,280.677        z M109.362,230.677c-2.382,0-2.382,1.581-2.382,2.101c0,0.872,0.424,2.521,2.027,2.521c1.241,0,2.683-1.102,2.683-2.521        C111.69,231.698,110.559,230.677,109.362,230.677z"/></g><g><path d="M426.354,187.021c-12.709,0-25.115-5.265-34.038-14.444c-8.822-9.076-13.525-20.928-13.267-33.408        c0.188-26.239,21.499-47.526,47.669-47.526l0.714,0.01c25.545,0.73,46.349,22.007,46.539,47.511        c0.263,12.555-4.396,24.406-13.143,33.403C451.901,181.753,439.335,187.021,426.354,187.021z M426.719,137.043v4.6        c1.456,0,2.185-0.874,2.311-1.823c-0.063-0.819-0.376-1.596-0.859-2.094C427.718,137.261,427.15,137.096,426.719,137.043z         M423.997,139.869c0.118,0.854,0.689,1.726,2.008,1.764l0.131-4.588c-0.261,0.05-0.703,0.204-1.159,0.672        C424.373,138.338,424.065,139.187,423.997,139.869z"/></g><g><path d="M325.698,456.005c-26.251,0-47.608-21.486-47.608-47.896c0-12.584,4.906-24.475,13.814-33.481        c8.802-8.897,20.557-13.99,33.1-14.339c0.392-0.012,0.851-0.02,1.306-0.02c25.521,0,47.081,21.908,47.081,47.84        c-0.005,12.621-4.974,24.579-13.992,33.681C350.316,450.956,338.348,456.005,325.698,456.005z M325.698,406.005        c-2.307,0-2.308,1.576-2.308,2.094c0,0.995,0.507,2.17,2.919,2.17l0.149-0.002c0.886-0.024,1.631-0.974,1.631-2.158        C328.09,406.444,326.525,406.005,325.698,406.005z"/></g><g><path d="M87.355,224.766c-0.345,0-0.69-0.003-1.037-0.011c-25.881-0.201-46.873-21.598-46.873-47.871        c0-26.392,21.193-47.863,47.242-47.863c26.286,0,47.672,21.653,47.672,48.269C134.359,203.468,113.273,224.766,87.355,224.766        z M87.081,174.779c-1.434,0.133-2.722,1.291-2.722,2.51c0,1.606,1.782,1.731,2.328,1.731c0.282,0,2.758-0.06,2.758-2.137        C89.445,175.833,88.397,174.931,87.081,174.779z"/></g><g><path d="M288.702,503.168c-12.894,0-24.9-5.066-33.81-14.266c-8.677-8.959-13.455-20.886-13.455-33.583        c0-26.181,21.203-47.479,47.265-47.479c26.276,0,47.653,21.46,47.653,47.837c0,12.879-4.989,24.892-14.05,33.824        C313.367,498.314,301.433,503.168,288.702,503.168z M288.702,453.168c-1.097,0-2.347,1.337-2.347,2.509        c0,1.092,1.162,2.163,2.347,2.163c1.565,0,2.735-1.331,2.735-2.521C291.435,454.509,290.154,453.168,288.702,453.168z"/></g><g><path d="M240.9,463.988c-11.862,0-22.952-4.7-31.229-13.234c-8.331-8.591-12.752-19.994-12.476-32.146        c0.208-24.21,19.885-43.838,44.041-43.838c12.023,0,23.256,4.781,31.631,13.462c8.213,8.513,12.727,20.142,12.426,31.972        c-0.113,11.832-4.762,22.854-13.119,31.076C263.846,459.475,252.739,463.988,240.9,463.988z M235.314,419.321        c0.064,1.344,0.623,2.645,1.57,3.626c1.101,1.141,2.728,1.822,4.353,1.822c3.027,0,5.7-2.454,5.94-5.349        c-0.061-0.992-0.505-2.336-1.61-3.476c-1.207-1.243-2.907-1.957-4.666-1.957C238.11,413.988,235.557,416.478,235.314,419.321z        "/></g><g><path d="M419.161,244.007c-24.29,0-44.052-20.007-44.052-44.6c0-24.611,19.919-44.634,44.402-44.634        c24.287,0.001,44.046,20.024,44.046,44.634C463.558,224,443.642,244.007,419.161,244.007z M419.161,194.007        c-3.037,0-5.604,2.473-5.604,5.4c0,2.958,2.671,5.366,5.953,5.366c3.035,0,5.599-2.457,5.599-5.366        C425.109,196.429,422.441,194.007,419.161,194.007z"/></g><g><path d="M141.707,197.912c-11.927,0-23.494-4.885-31.735-13.403c-8.229-8.504-12.59-19.706-12.307-31.581        c0.211-24.619,19.48-43.845,44.042-43.845c12.26,0,23.565,4.7,31.833,13.234c8.158,8.421,12.481,19.686,12.197,31.758        C185.522,178.285,165.853,197.912,141.707,197.912z M135.759,153.229c0.072,1.038,0.585,2.553,1.87,3.878        c1.413,1.458,3.08,1.975,4.078,1.975c2.873,0,5.695-2.602,5.939-5.365c-0.069-1.444-0.702-2.903-1.741-3.977        c-1.125-1.162-2.655-1.829-4.198-1.829C138.326,147.912,135.996,150.584,135.759,153.229z"/></g><g><path d="M164.312,253.817c-11.83,0-22.934-4.515-31.266-12.713c-8.465-8.33-13.127-19.521-13.127-31.515        c0-25.029,19.5-44.635,44.394-44.635c24.718,0.002,44.079,19.431,44.079,44.23c0,11.795-4.428,22.89-12.468,31.24        C187.607,249.061,176.38,253.817,164.312,253.817z M164.312,203.817c-3.043,0-5.921,2.608-5.921,5.367        c0,2.912,2.932,5.769,5.918,5.77c2.837,0,5.609-3.072,5.609-5.365C169.918,206.568,167.246,203.817,164.312,203.817z"/></g><g><path d="M134.177,147.805l-0.813-0.026c-12.25-0.389-23.526-5.436-31.749-14.212c-7.935-8.467-12.135-19.509-11.855-31.134        c0.106-11.838,4.75-22.867,13.102-31.097c8.33-8.208,19.444-12.728,31.294-12.728c12.028,0,23.227,4.739,31.532,13.343        c8.051,8.341,12.485,19.429,12.485,31.219c0,24.206-18.969,43.8-43.185,44.607L134.177,147.805z M133.323,97.806        c-2.647,0.088-5.149,2.696-5.149,5.365c0,2.702,2.57,5.175,5.509,5.418L133.323,97.806z M134.949,97.805l-0.342,10.783        c2.618-0.25,4.92-2.634,5.135-5.33c-0.063-1.406-0.66-2.83-1.642-3.878C137.208,98.427,136.03,97.839,134.949,97.805z"/></g><g><path d="M359.553,235.311c-11.971,0-23.077-4.78-31.275-13.459c-7.796-8.254-12.09-19.186-12.09-30.781        c0-24.612,19.752-44.636,44.031-44.636c24.478,0,44.391,20.023,44.391,44.636c0,11.99-4.655,23.178-13.107,31.504        c-8.229,8.107-19.173,12.615-30.856,12.723C360.28,235.306,359.916,235.311,359.553,235.311z M359.817,185.316        c-2.773,0.236-5.208,2.872-5.208,5.754c0,2.908,2.568,5.364,5.609,5.364c3.291,0,5.969-2.406,5.969-5.364        C366.188,188.186,363.128,185.455,359.817,185.316z"/></g><g><path d="M278.201,416.074c-0.35,0-0.7-0.004-1.052-0.013c-11.874-0.106-22.917-4.833-31.131-13.336        c-8.062-8.345-12.501-19.438-12.501-31.236c-0.007-11.801,4.612-22.915,13.005-31.282        c8.384-8.358,19.534-12.962,31.393-12.962c24.284,0,44.041,20.003,44.041,44.589        C321.957,396.229,302.328,416.074,278.201,416.074z M277.972,366.078c-3.229,0.12-6.015,2.759-6.015,5.756        c0,2.983,2.673,5.411,5.959,5.411c1.445,0,2.87-0.594,3.908-1.629c1.077-1.073,1.694-2.583,1.693-4.141        C283.518,368.774,280.924,366.293,277.972,366.078z"/></g><g><path d="M202.096,495.963c-24.502,0-44.437-19.849-44.437-44.245c0-24.604,19.934-44.62,44.437-44.62        c24.696,0,44.042,19.6,44.042,44.62C246.138,476.528,226.792,495.963,202.096,495.963z M202.096,445.963        c-3.007,0-5.958,2.851-5.958,5.755c0,2.766,2.896,5.38,5.958,5.38c3.016,0,5.563-2.464,5.563-5.38        C207.659,448.491,205.215,445.963,202.096,445.963z"/></g><g><path d="M466.248,262.17c-23.873,0-44.041-20.264-44.041-44.25c0-24.606,20.08-44.625,44.763-44.625        c11.758,0,23.278,4.948,31.605,13.576c8.188,8.481,12.695,19.934,12.411,31.486        C510.746,242.554,490.768,262.17,466.248,262.17z M461.002,217.483c0.041,1.609,0.612,3.089,1.599,4.111        c1.043,1.08,2.636,1.7,4.369,1.7c2.937,0,5.237-2.361,5.237-5.375c0-3.972-2.993-5.75-5.959-5.75        C463.383,212.169,461.191,214.425,461.002,217.483z"/></g><g><path d="M208.54,421.866c-22.89,0-41.512-18.694-41.512-41.672c0-22.992,18.781-41.697,41.866-41.697        c23.098,0,41.191,18.315,41.191,41.697C250.086,403.172,231.449,421.866,208.54,421.866z M208.54,371.866        c-4.82,0-8.454,3.58-8.454,8.328c0,4.423,4.116,8.303,8.809,8.303c4.333,0,8.134-3.88,8.134-8.303        C217.028,375.603,213.221,371.866,208.54,371.866z"/></g><g><path d="M192.029,186.301c-11.186,0-22.095-4.665-29.93-12.8c-7.785-8.083-11.892-18.637-11.595-29.768        c0.259-22.555,18.789-40.825,41.524-40.825c23.277,0,41.512,18.305,41.512,41.672        C233.541,167.585,214.919,186.301,192.029,186.301z M192.029,136.301c-4.839,0-8.488,3.56-8.488,8.28        c0,4.359,4.046,8.328,8.488,8.328c4.744,0,8.232-3.416,8.461-8.193c-0.025-2.214-0.879-4.344-2.377-5.899        C196.551,137.194,194.39,136.301,192.029,136.301z"/></g><g><path d="M245.217,374.312l-0.938-0.018c-23.135-0.868-40.581-18.776-40.581-41.655c0-23.006,18.462-41.723,41.156-41.723        c23.095,0,41.884,18.717,41.884,41.723C286.738,355.617,268.111,374.312,245.217,374.312z M245.217,324.312        c-4.675,0-8.479,3.735-8.479,8.327c0,4.486,3.717,8.277,8.116,8.277c0.121,0,0.242-0.003,0.362-0.008V324.312z         M246.154,324.329l-0.622,16.561c4.422-0.349,8.166-4.055,8.166-8.251C253.698,328.513,250.032,324.475,246.154,324.329z"/></g><g><path d="M169.365,453.803c-23.092,0-41.879-18.531-41.879-41.309c0-22.992,18.631-41.698,41.532-41.698        c11.421,0,22.436,4.656,30.22,12.774c7.619,7.947,11.616,18.387,11.288,29.446        C210.254,435.931,192.27,453.803,169.365,453.803z M160.546,411.984c0.053,2.244,1.002,4.523,2.6,6.189        c1.598,1.666,3.738,2.622,5.873,2.622c4.669,0,8.468-3.725,8.468-8.302c0-4.792-3.643-8.691-8.121-8.691        C164.913,403.803,160.842,407.642,160.546,411.984z"/></g><g><path d="M342.945,281.035c-23.282,0-41.52-18.31-41.52-41.685c0-23.409,18.237-41.747,41.52-41.747        c23.109,0,41.212,18.49,41.212,42.095C384.157,262.492,365.67,281.035,342.945,281.035z M342.945,231.036        c-4.846,0-8.788,3.886-8.788,8.664c0,3.581,3.92,7.905,8.788,7.905c4.438,0,8.48-3.934,8.48-8.253        C351.426,234.921,347.463,231.036,342.945,231.036z"/></g><g><path d="M183.749,135.49c-23.278,0-41.512-18.163-41.512-41.349c0-23.21,18.622-42.092,41.512-42.092        c22.905,0,41.539,18.726,41.539,41.743C225.278,117.179,207.032,135.49,183.749,135.49z M183.749,85.49        c-4.505,0-8.459,3.875-8.461,8.292c0,4.717,3.637,8.267,8.461,8.267c4.76,0,8.488-3.474,8.488-7.908        C192.237,89.694,188.112,85.49,183.749,85.49z"/></g><g><path d="M402.568,289.048c-0.366,0-0.732-0.005-1.102-0.014c-22.862-0.235-40.706-18.466-40.706-41.696        c0-22.383,17.746-40.708,40.4-41.719l1.114-0.025c11.373,0,21.912,4.424,29.674,12.458        c7.723,7.994,11.806,18.657,11.521,30.065C443.246,271.104,425.358,289.048,402.568,289.048z M393.489,247.246        c0.061,1.562,0.737,3.723,2.502,5.548c1.693,1.753,4.043,2.8,6.284,2.8v-16.541        C397.558,239.225,393.766,243.507,393.489,247.246z M402.653,239.071l0.736,16.498c3.995-0.178,7.371-3.948,7.371-8.231        C410.761,243.302,406.917,239.475,402.653,239.071z"/></g><g><path d="M213.939,241.815c-22.703,0-41.174-18.699-41.174-41.683c0-22.793,18.789-41.337,41.883-41.337        c22.697,0,41.162,18.709,41.162,41.705C255.811,223.281,237.027,241.815,213.939,241.815z M213.939,191.815        c-4.406,0-8.129,3.977-8.129,8.685c0,4.574,3.965,8.295,8.838,8.295c5.272,0,8.117-4.463,8.117-8.663        C222.766,195.468,218.889,191.815,213.939,191.815z"/></g><g><path d="M449.646,307.571c-0.558,0-1.117-0.011-1.679-0.034c-23.016-0.94-41.008-20.415-40.126-43.411        c0.851-22.982,19.83-40.928,42.892-40c23.355,0.938,40.989,20.13,40.149,43.694l-0.008,0.188        C489.917,290.193,471.807,307.571,449.646,307.571z M440.914,266.039c-0.146,4.113,3.508,7.874,7.819,8.047        c0.125,0.005,0.243,0.007,0.361,0.007c4.496,0,8.183-3.226,8.664-7.453L440.914,266.039z M449.646,257.571        c-4.613,0-8.527,3.714-8.725,8.279l16.844,0.728c0.02-0.188,0.033-0.378,0.04-0.569c0.168-4.374-3.409-8.25-7.813-8.431        C449.864,257.573,449.755,257.571,449.646,257.571z"/></g><g><path d="M257.424,241.815c-21.882,0-39.022-17.189-39.022-39.133c0-21.59,17.678-39.155,39.407-39.155        c21.871,0,39.004,17.199,39.004,39.155l-0.023,1.093C295.855,225.105,278.564,241.815,257.424,241.815z M246.813,202.682        c0,5.777,5.138,10.845,10.996,10.845c5.742,0,10.593-4.966,10.593-10.845H246.813z M257.424,191.815        c-5.507,0-10.355,4.476-10.587,9.774l21.564,0.943C268.313,196.806,263.222,191.815,257.424,191.815z"/></g><g><path d="M426.204,342.019c-0.399,0-0.799-0.007-1.198-0.021c-20.637-0.353-37.421-17.088-38.373-38.39l-0.025-1.117        c0-21.142,16.636-38.486,37.874-39.487l1.176-0.027c21.87,0,39.001,17.199,39.001,39.155        C464.658,323.752,447.049,342.018,426.204,342.019z M414.664,302.491c0.2,5.72,5.153,10.485,10.993,10.485v-10.485H414.664z         M426.341,302.491l0.492,10.458c5.299-0.25,9.774-5.039,9.774-10.458H426.341z M425.657,292.028        c-5.399,0.201-10.999,3.382-10.999,10.104c0,0.074,0.001,0.148,0.002,0.223l10.997-0.491V292.028z M425.848,292.022        l0.462,9.812l10.272-0.46c-0.227-5.072-4.71-9.083-10.324-9.355C426.121,292.018,425.984,292.02,425.848,292.022z"/></g><g><path d="M226.873,135.49c-21.5,0-38.991-17.742-38.991-39.55c0-21.955,17.443-39.153,39.711-39.153l1.184,0.028        c20.817,0.986,37.123,18.33,37.123,39.484C265.899,118.275,248.757,135.49,226.873,135.49z M227.593,85.514v21.273        c5.481,0,10.289-5.068,10.289-10.847C237.882,90.505,233.24,85.879,227.593,85.514z M226.873,85.49        c-5.948,0-10.974,4.95-10.974,10.809c0,5.4,4.813,10.19,10.51,10.46l1.007-21.256C227.236,85.495,227.055,85.49,226.873,85.49        z"/></g><g><path d="M225.816,332.952c-22.093,0-39.398-17.205-39.398-39.168c0-21.741,16.819-38.816,38.402-39.135        c0.445-0.015,0.89-0.022,1.33-0.022c21.489,0,38.321,17.2,38.321,39.158C264.471,315.382,247.13,332.952,225.816,332.952z         M225.816,282.952c-6.15,0-11.346,4.961-11.346,10.832c0,5.744,5.397,10.786,11.576,10.842        c5.592-0.339,10.372-5.26,10.372-10.842C236.418,288.014,231.464,282.952,225.816,282.952z"/></g><g><path d="M189.149,380.16c-21.725,0-39.399-17.585-39.399-39.2c0-21.781,17.674-39.502,39.399-39.502        c21.513,0,39.015,17.56,39.015,39.144C228.162,362.785,211.024,380.16,189.149,380.16z M189.149,330.16        c-5.852,0-10.985,4.878-10.985,10.438c0,6.192,4.723,10.859,10.985,10.859c5.845,0,10.601-4.709,10.601-10.498        C199.75,335.005,194.995,330.16,189.149,330.16z"/></g><g><path d="M378.552,323.524c-21.142,0-39.003-18.104-39.003-39.534c0-21.598,17.658-39.168,39.363-39.168        c21.315,0,38.653,17.725,38.653,39.512C417.565,306.31,400.429,323.524,378.552,323.524z M378.552,273.524        c-5.75,0-10.986,5.152-10.986,10.81c0,5.783,5.093,10.488,11.352,10.488c5.761,0,10.632-4.961,10.632-10.832        C389.549,277.119,384.017,273.524,378.552,273.524z"/></g><g><path d="M320.263,315.202c-0.404,0-0.81-0.006-1.217-0.019c-21.469-0.308-38.837-17.769-38.837-39.187        c0.011-21.955,17.324-39.144,39.415-39.144c22.236,0,39.004,16.828,39.004,39.144        C358.628,297.615,341.417,315.202,320.263,315.202z M320.218,265.203c-6.287,0.022-11.59,4.956-11.59,10.794        c0,5.479,5.446,10.856,10.996,10.856c5.636,0,10.582-5.067,10.585-10.844C330.209,270.039,325.955,265.497,320.218,265.203z"/></g><g><path d="M149.616,412.464c-21.87,0-39.001-17.22-39.001-39.203c0-21.781,17.496-39.502,39.001-39.502l1.228,0.03        c20.833,1.024,37.783,18.731,37.783,39.472C188.627,394.877,171.127,412.464,149.616,412.464z M149.616,362.464v21.295        c6.167,0,10.999-4.611,10.999-10.498C160.615,367.509,155.476,362.464,149.616,362.464z M149.434,362.465        c-5.976,0.097-10.807,4.902-10.807,10.796c0,5.787,4.105,10.189,9.761,10.468L149.434,362.465z"/></g><g><path d="M235.153,185.953c-21.878,0-39.016-17.214-39.016-39.19c0-21.139,16.773-38.483,38.185-39.485        c0.584-0.027,1.155-0.04,1.722-0.04c21.214,0,38.472,17.73,38.472,39.525l-0.025,1.134        C273.521,169.237,256.243,185.953,235.153,185.953z M224.517,146.763c0,6.056,5.427,10.773,12.13,10.461        c5.417-0.253,9.491-4.75,9.491-10.461H224.517z M235.153,135.953c-5.514,0-10.373,4.431-10.611,9.675l21.594,0.981        C246.05,140.817,241.056,135.953,235.153,135.953z"/></g><g><path d="M351.948,347.486c-20.682,0-36.883-16.413-36.883-37.365c0-20.604,16.546-37.366,36.883-37.366        c20.515,0,37.204,16.601,37.204,37.005C389.152,330.563,372.463,347.486,351.948,347.486z M351.948,297.486        c-7.056,0-12.796,5.506-12.796,12.273c0,7.166,5.74,12.995,12.796,12.995c7.232,0,13.117-5.667,13.117-12.634        C365.065,303.272,359.059,297.486,351.948,297.486z"/></g><g><path d="M216.46,295.19c-19.843,0-37.249-17.455-37.249-37.354c0-20.244,16.964-37.347,37.044-37.347        c0.394,0,0.788,0.006,1.183,0.02c20.051,0.343,36.26,16.956,36.26,37.328C253.698,278.434,236.993,295.19,216.46,295.19z         M216.178,270.489c0.026,0,0.051,0,0.077,0c7.386,0,12.956-5.439,12.956-12.652c0-7.443-4.962-12.483-12.387-12.643        l-0.016,0.31v-0.31c-0.115-0.002-0.231-0.003-0.348-0.003c-6.917,0-12.762,5.792-12.762,12.646        C203.698,264.618,209.241,270.171,216.178,270.489z"/></g><g><path d="M140.65,375.056l-1.283-0.033c-20.162-1.036-35.955-17.583-35.955-37.67c-0.003-10.019,3.762-19.337,10.6-26.233        c6.879-6.939,16.187-10.76,26.207-10.76c0.499,0,1,0.009,1.506,0.028c9.845,0.192,19.303,4.325,26.046,11.406        c6.837,7.179,10.398,16.582,10.065,26.536C177.488,358.303,160.601,375.056,140.65,375.056z M127.856,337.057        c-0.012,3.382,1.321,6.714,3.707,9.219c2.31,2.426,5.447,3.89,8.703,4.083c3.351-0.014,6.72-1.483,9.251-4.036        c2.341-2.361,3.776-5.549,3.887-8.596l-0.563-0.027h0.564c0.004-0.118,0.006-0.235,0.006-0.354        c0-6.648-4.935-11.921-11.479-12.257l-1.283,24.967v-25C133.567,325.056,128.173,330.171,127.856,337.057z"/></g><g><path d="M292.677,249.801c-20.882,0-37.239-16.229-37.239-36.947c0-20.948,16.357-37.357,37.239-37.357        c20.506,0,37.188,16.59,37.188,36.982C329.865,233.058,313.183,249.801,292.677,249.801z M292.677,199.801        c-6.944,0-12.812,5.806-12.812,12.678c0,7.178,5.747,13.018,12.812,13.018c6.798,0,12.761-5.908,12.761-12.643        C305.438,205.778,299.594,199.801,292.677,199.801z"/></g><g><path d="M269.998,194.298c-20.855,0-37.191-16.572-37.191-37.728l0.038-1.365c1.092-19.978,17.57-35.626,37.513-35.626        c20.681,0,36.881,16.409,36.881,37.356C307.238,177.537,290.532,194.298,269.998,194.298z M269.998,144.298        c-6.917,0-12.76,5.787-12.76,12.637c0,6.735,6.131,12.644,13.119,12.644c6.603,0,12.055-5.114,12.412-11.643l-24.963-1.365h25        C282.807,149.917,276.941,144.298,269.998,144.298z"/></g><g><path d="M180.846,342.751h-0.697c-20.153,0-37.18-17.276-37.18-37.727c0-20.713,16.331-36.938,37.18-36.938        c20.68,0,36.88,16.226,36.88,36.938c0,20.023-15.588,36.577-35.487,37.688L180.846,342.751z M178.757,292.79        c-6.576,0.366-11.728,5.741-11.728,12.234c0,6.958,6.131,13.062,13.12,13.062c6.83,0,12.82-6.104,12.82-13.062        c0-8.058-6.449-12.273-12.82-12.273v25L178.757,292.79z"/></g><g><path d="M293.019,339.107c-20.883,0-37.241-16.399-37.241-37.334l0.033-1.289c1.057-20.465,17.985-36.397,38.228-35.702        c20.335,0.336,36.171,16.621,36.171,37.352C330.209,322.866,313.873,339.107,293.019,339.107z M292.747,314.761        c0.004,0,0.007,0,0.01,0c6.828,0,12.654-5.248,12.987-11.699l-24.967-1.288h25c0-6.61-5.723-12.426-12.346-12.659        l-0.035,0.663v-0.664c-6.962-0.228-13.188,5.953-13.188,13.021C280.209,308.661,285.996,314.411,292.747,314.761z"/></g><g><path d="M400.059,365.267c-0.421,0-0.845-0.007-1.271-0.021c-19.564-0.328-35.575-16.056-36.579-36.074l-0.031-1.252        c0-20.598,16.547-37.354,36.887-37.354l1.287,0.033c20.331,1.049,36.256,17.442,36.256,37.321        C436.607,348.862,420.554,365.267,400.059,365.267z M399.064,327.92v12.646c0.111,0,0.222-0.001,0.331-0.004l0.016-0.311        v0.311c7.188-0.172,12.767-5.662,12.767-12.642H399.064z M400.043,315.267c-7.033,0.009-13.436,6.036-13.436,12.653        c0,6.861,4.802,12.284,11.169,12.612l0.651-12.612h-11.25l11.278-0.565l0.608-11.789v11.759l13.082-0.656        C411.846,320.678,406.373,315.588,400.043,315.267z"/></g><g><path d="M262.449,143.465c-20.516,0-37.207-16.761-37.207-37.363c0.015-20.733,16.358-36.96,37.207-36.96        c20.68,0,36.879,16.235,36.879,36.96C299.328,126.704,282.784,143.465,262.449,143.465z M262.449,93.465        c-7.235,0-13.121,5.669-13.121,12.637c0,6.946,6.131,13.04,13.121,13.04c6.93,0,12.788-5.963,12.793-13.021        C275.242,99.252,269.384,93.465,262.449,93.465z"/></g><g><path d="M289.668,156.92c-0.454,0-0.909-0.009-1.368-0.026c-18.997-0.392-34.331-16.184-34.331-35.538        c0-19.586,15.889-35.52,35.418-35.52l1.518,0.046c19.585,1.191,34.651,17.523,33.928,36.582        C324.44,141.53,308.817,156.92,289.668,156.92z M289.387,110.836v25c7.832,0,14.241-6.163,14.569-13.861l-4.116-0.245h4.124        c0.003-0.124,0.005-0.249,0.005-0.374c0-7.594-6.428-14.045-14.198-14.436c-7.868-0.098-14.521,6.347-14.912,14.091        c-0.064,7.655,5.739,14.336,13.011,14.779L289.387,110.836z"/></g><g><path d="M140.247,341.638l-1.445-0.042c-9.811-0.568-18.735-4.858-25.13-12.081c-6.09-6.881-9.204-15.706-8.812-24.93        c0.435-19.032,16.142-34.382,35.387-34.382c9.679,0,19.084,4.091,25.805,11.225c6.667,7.076,10.162,16.617,9.591,26.179        C174.448,326.72,158.902,341.638,140.247,341.638z M125.708,305.396c-0.026,3.899,1.391,7.601,3.95,10.316        c2.688,2.854,6.548,4.49,10.589,4.49c7.647,0,14.147-6.328,14.581-13.993c0.028-3.565-1.305-7.112-3.718-9.838        c-2.459-2.778-5.892-4.488-9.417-4.692l-1.445,24.958v-25c-7.812,0-14.05,5.554-14.511,12.919        c-0.012,0.192-0.02,0.384-0.024,0.576l4.138,0.264H125.708z"/></g><g><path d="M372.827,380.158c-19.733,0-35.787-15.943-35.787-35.54c0-19.588,16.054-35.524,35.787-35.524        c18.914,0.013,34.104,14.435,35.349,33.547l0.053,0.812v0.813C408.229,364.057,392.348,380.158,372.827,380.158z         M372.827,330.158c-8.05,0-14.599,6.328-14.599,14.107h25l-24.947,1.625c0.474,7.275,6.991,13.198,14.529,13.203        c7.721,0,14.229-6.629,14.229-14.476C387.04,336.51,380.797,330.158,372.827,330.158z"/></g><g><path d="M179.446,309.334c-19.535,0-35.428-16.09-35.428-35.866c0-19.386,15.893-35.158,35.428-35.158        c19.857,0,35.411,15.595,35.411,35.504C214.857,293.399,198.972,309.334,179.446,309.334z M179.446,259.334        c-8.044,0-14.589,6.495-14.589,14.479c0,7.857,6.681,14.496,14.589,14.496c8.171,0,14.572-6.52,14.572-14.842        C194.019,265.542,187.618,259.334,179.446,259.334z"/></g><g><path d="M297.319,207.726c-19.867,0-35.43-15.612-35.43-35.543c0-19.388,15.894-35.161,35.43-35.161        c19.608,0,35.021,15.215,35.402,34.777c0.371,9.382-2.883,18.21-9.21,24.932C316.838,203.821,307.536,207.726,297.319,207.726        z M282.749,173.259c0.42,7.291,7.176,13.763,14.57,13.763c7.78,0,14.37-6.594,14.565-14.479h-4.156l4.161-0.252        c0-0.036,0-0.072,0-0.108c0-7.836-6.673-14.457-14.57-14.457c-3.606,0-7.425,1.77-10.216,4.734        C284.334,165.403,282.738,169.388,282.749,173.259z"/></g><g><path d="M324.664,362.348c-19.337,0-35.068-15.938-35.068-35.53l0.033-1.29c1.02-19.731,16.382-34.611,35.732-34.611        c19.669,0,35.076,15.612,35.076,35.542C360.438,346.583,344.724,362.348,324.664,362.348z M324.664,312.348        c-7.712,0-14.227,6.462-14.227,14.11c0,7.702,6.974,14.458,14.924,14.458c7.339,0,13.842-5.865,14.201-12.809l-24.967-1.29h25        C339.596,318.974,332.758,312.348,324.664,312.348z"/></g><g><path d="M145.283,313.7c-9.295,0-18.358-4.011-24.865-11.004c-6.182-6.644-9.464-15.452-9.087-24.301        c0.46-18.384,15.675-33.2,34.312-33.2h0.854l0.852,0.058c9.139,0.625,17.786,4.897,23.723,11.72        c5.703,6.554,8.601,14.887,8.211,23.552C178.814,298.897,163.743,313.7,145.283,313.7z M145.643,270.195v25        c8.352,0,15.199-6.677,15.654-15.058l-7.002-0.493h7.006c-0.038-4.137-1.56-8.088-4.278-11.01        c-2.961-3.182-7.13-4.935-11.738-4.935c-8.514,0-15.495,6.671-15.964,15.047l7.001,0.504h-7.002        c0.058,3.842,1.492,7.622,4.034,10.544c2.715,3.121,6.573,5.067,10.584,5.342L145.643,270.195z"/></g><g><path d="M347.27,387.029c-18.4,0-33.946-15.601-33.946-34.066c0-18.811,15.392-34.114,34.312-34.114        c18.847,0,33.609,14.984,33.609,34.114C381.244,371.747,366.003,387.029,347.27,387.029z M347.27,337.029        c-8.837,0-16.025,7.147-16.025,15.934c0,8.611,7.506,15.886,16.391,15.886c8.65,0,15.688-7.126,15.688-15.886        C363.323,343.879,356.422,337.029,347.27,337.029z"/></g><g><path d="M309.559,173.945c-18.748,0-33.498-14.342-33.96-32.815c-0.446-9.444,2.676-18.24,8.841-24.847        c6.315-6.769,15.108-10.496,24.758-10.496c19.24,0,34.313,14.969,34.313,34.078        C343.51,158.656,328.279,173.945,309.559,173.945z M293.535,140.725c0.475,8.118,7.589,15.062,15.662,15.062        c4.237,0,8.648-2.016,11.8-5.393c2.931-3.141,4.603-7.25,4.561-11.131c-0.515-8.398-7.632-15.317-15.999-15.317        c-8.699,0-16.049,7.29-16.049,15.919c0,0.125,0.002,0.248,0.005,0.372h7.073L293.535,140.725z"/></g></g></g><g><g><path d="M333.978,60.006c-0.35-13.794,11.901-26.847,27.667-26.147       c13.705,0.755,25.162,12.726,25.162,27.215c0,14.908-12.237,26.518-27.287,26.147       C345.111,86.875,333.628,74.916,333.978,60.006L333.978,60.006z" style="fill:#FFFFFF;"/><path d="M390.032,410.288c14.754,0,26.265,11.607,26.265,26.521c0,14.908-11.854,26.87-26.596,26.87       c-14.353,0-26.248-11.962-26.248-26.5C363.455,421.903,375.346,410.288,390.032,410.288L390.032,410.288z" style="fill:#FFFFFF;"/><path d="M52.195,301.425c-15.071,0-26.194-12.006-26.194-27.219c0-14.559,11.845-26.148,26.592-25.797       c14.698,0,26.194,11.962,26.194,27.215C78.45,289.777,66.594,301.425,52.195,301.425L52.195,301.425z" style="fill:#FFFFFF;"/><path d="M345.111,131.147c0-12.682,10.066-22.864,22.675-22.864c12.171,0,22.246,10.183,22.617,22.505       c0,12.354-10.03,22.885-22.617,23.233C355.178,154.021,345.111,143.859,345.111,131.147L345.111,131.147z" style="fill:#FFFFFF;"/><path d="M109.008,210.299c12.565,0,22.973,10.171,22.973,22.479c0,12.377-10.407,22.899-22.618,22.899       c-12.587,0-22.672-10.172-22.672-22.899C86.69,220.47,96.411,210.299,109.008,210.299L109.008,210.299z" style="fill:#FFFFFF;"/><path d="M426.354,162.021c-12.237,0-22.655-10.172-22.306-22.502c0-12.703,10.438-22.876,22.67-22.876       c12.233,0.35,22.254,10.533,22.254,22.876C449.332,152.198,438.952,162.021,426.354,162.021L426.354,162.021z" style="fill:#FFFFFF;"/><path d="M325.698,431.005c-12.575,0-22.608-10.532-22.608-22.896c0-12.311,10.033-22.48,22.608-22.83       c12.259-0.373,22.692,10.521,22.692,22.83C348.386,420.473,337.957,431.005,325.698,431.005L325.698,431.005z" style="fill:#FFFFFF;"/><path d="M109.359,177.289c0,12.665-10.071,22.838-22.672,22.467c-12.189,0-22.242-10.172-22.242-22.872       c0-12.333,10.056-22.863,22.242-22.863C98.931,154.021,109.359,164.552,109.359,177.289L109.359,177.289z" style="fill:#FFFFFF;"/><path d="M288.702,478.168c-12.583,0-22.265-10.138-22.265-22.849c0-12.699,10.08-22.479,22.265-22.479       c12.601,0,22.653,10.122,22.653,22.837C311.355,468.413,301.303,478.168,288.702,478.168L288.702,478.168z" style="fill:#FFFFFF;"/><path d="M222.194,418.997c0-10.889,8.616-19.228,19.042-19.228c10.812,0,19.449,9.107,19.059,19.992       c0,10.893-8.615,19.227-19.395,19.227C230.475,438.988,221.847,430.306,222.194,418.997L222.194,418.997z" style="fill:#FFFFFF;"/><path d="M438.558,199.407c0,10.892-8.617,19.6-19.396,19.6c-10.421,0-19.052-8.708-19.052-19.6       c0-10.88,8.627-19.634,19.402-19.634C429.94,179.773,438.558,188.527,438.558,199.407L438.558,199.407z" style="fill:#FFFFFF;"/><path d="M160.739,153.672c0,10.88-8.61,19.24-19.032,19.24c-10.775,0-19.402-8.71-19.044-19.578       c0-10.916,8.269-19.251,19.044-19.251C152.84,134.083,161.096,142.42,160.739,153.672L160.739,153.672z" style="fill:#FFFFFF;"/><path d="M183.391,209.185c0,10.889-8.244,19.633-19.079,19.633c-10.761,0-19.394-8.347-19.394-19.229       c0-11.3,8.256-19.635,19.394-19.635C175.146,189.955,183.391,198.294,183.391,209.185L183.391,209.185z" style="fill:#FFFFFF;"/><path d="M114.758,102.849c0-10.891,8.602-19.24,19.398-19.24c10.762,0,19.018,8.694,19.018,19.562       c0,10.917-8.256,19.262-19.018,19.621C123.013,122.438,114.396,113.738,114.758,102.849L114.758,102.849z" style="fill:#FFFFFF;"/><path d="M341.188,191.07c0-10.891,8.604-19.636,19.031-19.636c10.784,0,19.391,8.744,19.391,19.636       c0,10.878-8.606,19.229-19.391,19.229C349.443,210.672,341.188,201.949,341.188,191.07L341.188,191.07z" style="fill:#FFFFFF;"/><path d="M277.916,352.245c10.429,0,19.041,8.696,19.041,19.589c0,10.891-8.609,19.587-19.396,19.229       c-10.774,0-19.043-8.696-19.043-19.574C258.512,360.941,267.14,352.245,277.916,352.245L277.916,352.245z" style="fill:#FFFFFF;"/><path d="M221.138,451.718c0,10.89-8.255,19.245-19.042,19.245c-10.775,0-19.437-8.765-19.437-19.245       c0-10.937,8.661-19.62,19.437-19.62C212.882,432.098,221.138,440.781,221.138,451.718L221.138,451.718z" style="fill:#FFFFFF;"/><path d="M466.248,237.169c-10.425,0-19.041-9.104-19.041-19.25c0-10.869,8.988-19.625,19.763-19.625       c10.403,0,19.391,9.104,19.019,19.625C485.986,228.46,477.036,237.169,466.248,237.169L466.248,237.169z" style="fill:#FFFFFF;"/><path d="M225.086,380.194c0,9.03-7.566,16.672-16.546,16.672c-9.303,0-16.512-7.642-16.512-16.672       c0-9.481,7.558-16.697,16.866-16.697C217.924,363.497,225.086,370.713,225.086,380.194L225.086,380.194z" style="fill:#FFFFFF;"/><path d="M192.029,127.909c9.323,0,16.512,7.245,16.512,16.672c0,9.094-7.55,16.72-16.512,16.72       c-9.026,0-16.883-7.629-16.527-17.09C175.504,135.503,183.005,127.909,192.029,127.909L192.029,127.909z" style="fill:#FFFFFF;"/><path d="M228.698,332.639c0-9.429,7.147-16.723,16.156-16.723c9.341,0,16.884,7.294,16.884,16.723       c0,9.076-7.2,16.673-16.521,16.673C235.849,348.96,228.698,342.066,228.698,332.639L228.698,332.639z" style="fill:#FFFFFF;"/><path d="M169.365,428.803c-9.324,0-16.879-7.253-16.879-16.309c0-9.068,7.198-16.698,16.532-16.698       c9.336,0,16.909,7.243,16.511,16.698C185.526,421.552,178.723,428.803,169.365,428.803L169.365,428.803z" style="fill:#FFFFFF;"/><path d="M359.157,239.699c0,9.045-7.213,16.336-16.212,16.336c-9.322,0-16.52-7.295-16.52-16.685       c0-9.476,7.197-16.747,16.52-16.747C352.311,222.604,359.157,229.875,359.157,239.699L359.157,239.699z" style="fill:#FFFFFF;"/><path d="M183.749,110.49c-9.347,0-16.512-6.934-16.512-16.349c0-9.451,7.512-17.092,16.512-17.092       c8.988,0,16.539,7.638,16.539,16.743C200.284,103.176,193.087,110.49,183.749,110.49L183.749,110.49z" style="fill:#FFFFFF;"/><path d="M401.915,264.036c-9.35,0-16.154-7.279-16.154-16.698c0-9.116,7.154-16.326,16.515-16.744       c9.336,0,16.535,7.268,16.197,17.09C418.47,257.488,411.261,264.372,401.915,264.036L401.915,264.036z" style="fill:#FFFFFF;"/><path d="M213.939,216.815c-8.985,0-16.174-7.629-16.174-16.683c0-9.06,7.907-16.337,16.883-16.337       c9.011,0,16.162,7.63,16.162,16.705C230.811,209.589,223.296,216.815,213.939,216.815L213.939,216.815z" style="fill:#FFFFFF;"/><path d="M448.971,282.558c-9.313-0.381-16.511-8-16.147-17.474c0.335-9.048,7.883-16.338,16.913-15.978       c9.315,0.374,16.512,8.012,16.162,17.824C465.507,275.993,457.992,282.92,448.971,282.558L448.971,282.558z" style="fill:#FFFFFF;"/><path d="M257.424,216.815c-7.905,0-14.022-6.143-14.022-14.133c0-8.013,6.5-14.155,14.407-14.155       c7.895,0,14.004,6.143,14.004,14.155C271.463,210.672,265.319,216.815,257.424,216.815L257.424,216.815z" style="fill:#FFFFFF;"/><path d="M411.607,302.491c0-7.989,6.129-14.142,14.05-14.515c7.866,0,14.001,6.153,14.001,14.155       c0,7.989-6.835,15.257-14.001,14.872C418.099,317.009,411.965,310.482,411.607,302.491L411.607,302.491z" style="fill:#FFFFFF;"/><path d="M240.899,96.299c0,7.965-6.107,14.191-14.026,14.191c-7.904,0-13.991-6.584-13.991-14.55       c0-8,6.445-14.153,14.711-14.153C235.153,82.146,240.899,88.335,240.899,96.299L240.899,96.299z" style="fill:#FFFFFF;"/><path d="M239.471,293.784c0,7.992-6.145,14.168-13.654,14.168c-8.302,0-14.398-6.176-14.398-14.168       c0-7.987,6.097-14.14,14.016-14.14C233.328,279.247,239.471,285.445,239.471,293.784L239.471,293.784z" style="fill:#FFFFFF;"/><path d="M189.149,355.16c-7.902,0-14.399-6.2-14.399-14.2c0-7.987,6.497-14.502,14.399-14.502       c7.553,0,14.015,6.519,14.015,14.144C203.163,348.96,197.066,355.16,189.149,355.16L189.149,355.16z" style="fill:#FFFFFF;"/><path d="M392.565,284.334c0,8.338-6.105,14.19-14.014,14.19c-7.549,0-14.003-6.919-14.003-14.534       c0-7.993,6.459-14.168,14.363-14.168C386.46,269.819,392.565,276.344,392.565,284.334L392.565,284.334z" style="fill:#FFFFFF;"/><path d="M319.624,261.854c8.267,0,14.004,5.781,14.004,14.144c0,7.993-6.1,14.563-14.004,14.19       c-7.896,0-14.415-6.573-14.415-14.19C305.213,268.007,311.355,261.854,319.624,261.854L319.624,261.854z" style="fill:#FFFFFF;"/><path d="M163.627,373.261c0,8.002-6.466,14.203-14.011,14.203c-7.905,0-14.001-6.206-14.001-14.203       c0-7.992,6.454-14.502,14.001-14.502C157.161,359.13,163.627,365.691,163.627,373.261L163.627,373.261z" style="fill:#FFFFFF;"/><path d="M235.153,160.953c-7.918,0-14.016-6.211-14.016-14.19c0-7.639,6.455-14.143,14.354-14.512       c7.567-0.35,14.025,6.522,14.025,14.512C249.154,154.742,243.062,160.953,235.153,160.953L235.153,160.953z" style="fill:#FFFFFF;"/><path d="M364.152,309.76c0,6.875-5.388,12.727-12.204,12.727c-6.837,0-11.883-5.482-11.883-12.365       c0-6.908,5.39-12.366,11.883-12.366C358.765,297.755,364.152,303.213,364.152,309.76L364.152,309.76z" style="fill:#FFFFFF;"/><path d="M228.698,257.837c0,6.893-5.405,12.354-12.238,12.354c-6.106,0-12.249-6.154-12.249-12.354       c0-6.517,5.794-12.683,12.597-12.333C223.296,245.504,228.698,250.94,228.698,257.837L228.698,257.837z" style="fill:#FFFFFF;"/><path d="M141.008,325.381c6.793,0,12.17,5.444,11.834,12.318c0,6.569-5.748,12.356-12.191,12.356       c-6.84-0.352-12.238-6.203-12.238-12.703C128.41,330.056,133.81,324.981,141.008,325.381L141.008,325.381z" style="fill:#FFFFFF;"/><path d="M292.677,224.801c-6.854,0-12.239-5.098-12.239-11.947c0-6.918,5.025-12.357,12.239-12.357       c6.802,0,12.188,5.433,12.188,11.982C304.865,219.356,299.479,224.801,292.677,224.801L292.677,224.801z" style="fill:#FFFFFF;"/><path d="M270.357,144.578c6.846,0,11.881,5.435,11.881,12.356c0,6.924-5.39,12.363-12.24,12.363       c-6.803,0-12.191-5.444-12.191-12.728C258.165,150.017,263.555,144.578,270.357,144.578L270.357,144.578z" style="fill:#FFFFFF;"/><path d="M192.029,305.024c0,6.932-5.387,12.364-11.88,12.727c-6.459,0-12.18-6.199-12.18-12.727       c0-6.898,5.362-11.938,12.18-11.938C187,293.086,192.029,298.126,192.029,305.024L192.029,305.024z" style="fill:#FFFFFF;"/><path d="M293.396,289.777c6.789,0,11.813,5.426,11.813,12.356c0,6.909-5.369,11.974-12.19,11.974       c-7.199,0-12.241-5.461-12.241-12.334C281.135,294.849,286.544,289.419,293.396,289.777L293.396,289.777z" style="fill:#FFFFFF;"/><path d="M411.607,327.92c0,7.221-5.051,12.682-12.196,12.331c-6.846,0-11.889-5.454-12.233-12.331       c0-6.549,5.388-12.354,11.887-12.354C405.861,315.916,411.607,321.371,411.607,327.92L411.607,327.92z" style="fill:#FFFFFF;"/><path d="M262.449,94.141c6.853,0,11.879,5.097,11.879,11.96c0,6.92-5.377,12.363-11.879,12.363       c-6.809,0-12.207-5.445-12.207-12.363C250.247,99.24,255.646,94.141,262.449,94.141L262.449,94.141z" style="fill:#FFFFFF;"/><path d="M299.84,121.729c0,5.806-4.643,10.522-10.814,10.172c-5.727,0-10.057-4.726-10.057-10.545       c0-5.793,4.696-10.52,10.418-10.52C295.553,111.211,300.186,115.925,299.84,121.729L299.84,121.729z" style="fill:#FFFFFF;"/><path d="M129.851,305.396c0-5.806,4.661-10.193,10.396-10.193c5.797,0,10.787,5.106,10.44,10.913       c-0.365,5.842-5.041,10.521-10.44,10.521C134.16,316.285,129.458,311.55,129.851,305.396L129.851,305.396z" style="fill:#FFFFFF;"/><path d="M383.229,344.266c0,6.133-4.677,10.893-10.401,10.893c-5.765,0-10.787-4.76-10.787-10.54       c0-5.806,4.644-10.524,10.787-10.524C378.552,334.098,382.848,338.419,383.229,344.266L383.229,344.266z" style="fill:#FFFFFF;"/><path d="M189.857,273.813c0,5.831-4.68,10.521-10.411,10.521c-5.752,0-10.428-5.087-10.428-10.866       c0-5.828,5.029-10.158,10.428-10.158C185.178,263.31,189.857,267.637,189.857,273.813L189.857,273.813z" style="fill:#FFFFFF;"/><path d="M297.319,182.726c-6.108,0-10.43-4.715-10.43-10.543c0-5.795,4.671-10.161,10.43-10.161       c6.132,0,10.409,4.361,10.409,10.521C308.081,178.368,303.811,182.726,297.319,182.726L297.319,182.726z" style="fill:#FFFFFF;"/><path d="M325.361,315.916c5.733,0,10.076,4.363,10.076,10.542c0,6.181-4.689,10.89-10.773,10.89       c-5.789,0-10.068-4.714-10.068-10.53C314.934,320.279,319.624,315.916,325.361,315.916L325.361,315.916z" style="fill:#FFFFFF;"/><path d="M154.294,279.645c0,5.049-3.974,9.056-9.011,9.056c-4.633,0-9.329-4.366-8.963-9.449       c0-5.04,4.33-9.056,9.322-9.056C150.683,270.54,154.652,274.558,154.294,279.645L154.294,279.645z" style="fill:#FFFFFF;"/><path d="M356.244,352.963c0,5.086-3.934,9.066-8.975,9.066c-4.667,0-8.946-4.338-8.946-9.066       c0-5.085,4.279-9.114,9.312-9.114C352.669,343.849,356.244,347.878,356.244,352.963L356.244,352.963z" style="fill:#FFFFFF;"/><path d="M309.197,130.787c5.397,0,9.313,3.645,9.313,9.078c0,5.124-3.915,9.081-8.951,9.081       c-5.048,0-8.971-3.613-8.971-8.709C300.186,134.432,303.811,130.787,309.197,130.787L309.197,130.787z" style="fill:#FFFFFF;"/></g></g></g></g></g><g id="Layer_1"/></svg>