<?xml version="1.0" ?><!DOCTYPE svg  PUBLIC '-//W3C//DTD SVG 1.1//EN'  'http://www.w3.org/Graphics/SVG/1.1/DTD/svg11.dtd'><svg height="512px" style="enable-background:new 0 0 512 512;" version="1.1" viewBox="0 0 512 512" width="512px" xml:space="preserve" xmlns="http://www.w3.org/2000/svg" xmlns:xlink="http://www.w3.org/1999/xlink"><g id="comp_x5F_184-jira"><g><g><g><g><path d="M473.387,243.152C407.892,177.837,321.192,90.509,256.415,26.001       C107.725,174.152,38.546,243.152,38.546,243.152c-7.099,7.098-7.099,18.599,0,25.784       c119.312,118.865,55.522,55.257,217.869,217.063c340.866-339.607,14.106-15.003,216.972-217.152       C480.575,261.751,480.575,250.25,473.387,243.152L473.387,243.152z" style="fill:#0052CC;"/><path d="M256.415,495.999c-2.554,0-5.108-0.973-7.059-2.917       c-100.114-99.78-114.231-113.839-138.325-137.831c-14.977-14.913-33.808-33.666-79.543-79.23       c-10.974-11.107-10.955-29-0.013-39.94c0.701-0.698,70.89-70.705,217.882-217.164c3.901-3.888,10.211-3.888,14.115-0.002       c34.187,34.045,75.026,74.994,114.521,114.594c35.163,35.257,71.524,71.715,102.456,102.562       c5.359,5.292,8.33,12.383,8.33,19.931c-0.001,7.547-2.972,14.636-8.366,19.961c-16.313,16.255-35.657,35.536-50.159,50.016       c-0.938,1.566-2.15,2.799-3.046,3.708c-1.096,1.113-2.814,2.847-5.305,5.347c-4.945,4.967-12.951,12.979-25.181,25.193       c-26.854,26.821-70.439,70.278-133.249,132.855C261.521,495.027,258.969,495.999,256.415,495.999z M256.415,40.118       C114.229,181.791,46.289,249.554,45.608,250.232c-3.182,3.181-3.162,8.423,0.052,11.676       c45.678,45.507,64.508,64.258,79.484,79.172c23.516,23.417,37.529,37.371,131.272,130.802       c66.611-66.368,111.733-111.365,136.144-135.769c0.582-1.017,1.353-2.016,2.313-2.997c0.535-0.546,1.366-1.387,2.546-2.574       c2.316-2.332,6.003-6.025,11.474-11.493c10.919-10.914,28.961-28.911,57.436-57.286c1.592-1.57,2.45-3.605,2.45-5.762       c0-2.158-0.858-4.193-2.418-5.733c-30.986-30.901-67.356-67.369-102.529-102.636       C327.033,110.736,289.065,72.666,256.415,40.118z" style="fill:#003E99;"/></g></g><g><polygon points="256.415,324.013 188.135,256 256.415,187.988 324.697,256     " style="fill:#FFFFFF;"/><path d="M256.415,334.013c-2.553,0-5.106-0.972-7.057-2.915l-68.28-68.013      c-1.884-1.877-2.943-4.426-2.943-7.085s1.059-5.208,2.943-7.085l68.28-68.012c3.902-3.886,10.212-3.887,14.114,0l68.282,68.012      c1.885,1.876,2.943,4.426,2.943,7.085s-1.059,5.209-2.943,7.085l-68.282,68.013      C261.521,333.041,258.968,334.013,256.415,334.013z M202.305,256l54.11,53.898L310.527,256l-54.112-53.897L202.305,256z" style="fill:#003E99;"/></g></g></g></g><g id="Layer_1"/></svg>