<?xml version="1.0" ?><!DOCTYPE svg  PUBLIC '-//W3C//DTD SVG 1.1//EN'  'http://www.w3.org/Graphics/SVG/1.1/DTD/svg11.dtd'><svg height="512px" style="enable-background:new 0 0 512 512;" version="1.1" viewBox="0 0 512 512" width="512px" xml:space="preserve" xmlns="http://www.w3.org/2000/svg" xmlns:xlink="http://www.w3.org/1999/xlink"><g id="comp_x5F_191-kickstarter"><g><g><g><path d="M212.09,116.941c0-55.205-31.925-80.94-72.1-80.94c-46.855,0-72.592,35.559-72.592,79.958      v277.987c0,46.463,24.853,81.923,73.574,81.923c39.096,0,71.118-25.146,71.118-81.923v-75.145l110.113,135.853      c22.297,26.716,70.822,30.154,101.371,0c26.521-27.112,26.817-66.209,7.27-90.568l-89.191-112.767l73.573-105.498      c17.091-24.262,17.189-61.981-10.217-88.209c-29.763-28.486-80.939-31.04-111.588,12.574L212.09,186.291V116.941z" style="fill:#044651;"/><path d="M371.491,485.999c-22.638,0-43.933-9.322-56.966-24.938c-0.03-0.036-0.061-0.073-0.091-0.11      L222.09,347.02v46.926c0,67.774-41.903,91.923-81.118,91.923c-50.769,0-83.574-36.082-83.574-91.923V115.958      c0-24.705,7.497-47.117,21.11-63.11c14.951-17.563,36.21-26.847,61.482-26.847c23.587,0,43.738,7.879,58.275,22.787      c15.586,15.983,23.825,39.55,23.825,68.153v37.644l63.141-90.138c17.096-24.328,41.454-37.718,68.597-37.718      c21.212,0,42.388,8.623,58.096,23.658c32.454,31.059,30.34,74.416,11.479,101.192l-69.296,99.364l84.582,106.939      c24.013,29.923,20.607,74.556-7.965,103.765c-0.041,0.041-0.082,0.083-0.123,0.124      C414.771,477.395,393.779,485.999,371.491,485.999z M329.924,448.298c9.283,11.085,24.816,17.701,41.567,17.701      c16.966,0,32.942-6.535,44.996-18.402c24.433-25.038,21.621-58.48,6.558-77.253L333.81,257.521      c-2.737-3.46-2.883-8.305-0.359-11.924L407.023,140.1c13.964-19.824,15.363-52.017-8.929-75.265      c-12.022-11.507-28.157-18.106-44.268-18.106c-20.442,0-38.99,10.372-52.225,29.205L220.28,192.028      c-2.504,3.574-7.037,5.111-11.198,3.8c-4.162-1.313-6.992-5.173-6.992-9.537v-69.349c0-45.083-22.634-70.94-62.1-70.94      c-46.2,0-62.592,37.686-62.592,69.958v277.987c0,45.036,23.766,71.923,63.574,71.923c38.841,0,61.118-26.215,61.118-71.923      v-75.145c0-4.235,2.668-8.011,6.66-9.426c3.992-1.414,8.442-0.161,11.109,3.129L329.924,448.298z" style="fill:#03353D;"/></g></g></g></g><g id="Layer_1"/></svg>