<?xml version="1.0" ?><!DOCTYPE svg  PUBLIC '-//W3C//DTD SVG 1.1//EN'  'http://www.w3.org/Graphics/SVG/1.1/DTD/svg11.dtd'><svg height="512px" style="enable-background:new 0 0 512 512;" version="1.1" viewBox="0 0 512 512" width="512px" xml:space="preserve" xmlns="http://www.w3.org/2000/svg" xmlns:xlink="http://www.w3.org/1999/xlink"><g id="comp_x5F_192-kik"><g><g><g><g><path d="M313.861,152.438c-17.488-16.186-44.696-15.059-60.785,2.417L155.65,260.718V69.125       c0-23.834-19.237-43.124-43.009-43.124c-23.77,0-43.011,19.29-43.011,43.124V442.87c0,23.807,19.242,43.129,43.011,43.129       c23.772,0,43.009-19.325,43.009-43.129v-55.022l28.674-31.137l63.277,107.979c8,13.688,22.363,21.309,37.098,21.309       c7.402,0,14.916-1.902,21.739-5.952c20.469-12.051,27.323-38.498,15.281-59.028l-76.44-130.518l70.989-77.108       C332.386,195.881,331.294,168.566,313.861,152.438L313.861,152.438z" style="fill:#82BC23;"/><path d="M284.699,495.999c-18.74,0-36.264-10.063-45.731-26.263l-56.44-96.313l-16.877,18.327v51.119       c0,29.295-23.78,53.129-53.009,53.129c-29.23,0-53.011-23.834-53.011-53.129V69.125c0-29.292,23.78-53.124,53.011-53.124       c29.229,0,53.009,23.832,53.009,53.124v165.96l80.068-87.001c10.002-10.865,24.203-17.095,38.962-17.095       c13.366,0,26.142,5.011,35.973,14.11c21.461,19.854,22.795,53.528,2.974,75.065l-65.979,71.667l72.701,124.134       c14.81,25.249,6.361,57.864-18.837,72.699C303.438,493.456,294.155,495.999,284.699,495.999z M184.324,346.711       c0.355,0,0.712,0.019,1.069,0.058c3.152,0.339,5.956,2.151,7.559,4.887l63.277,107.979       c5.901,10.098,16.808,16.364,28.47,16.364c5.866,0,11.618-1.574,16.636-4.552c15.74-9.267,21.002-29.611,11.759-45.369       L236.65,295.555c-2.222-3.793-1.706-8.593,1.272-11.827l70.99-77.108c12.371-13.442,11.546-34.455-1.842-46.841       c-6.125-5.668-14.076-8.79-22.39-8.79c-9.185,0-18.022,3.878-24.247,10.64l-97.425,105.86       c-2.79,3.031-7.155,4.042-10.992,2.545c-3.839-1.498-6.366-5.196-6.366-9.316V69.125c0-18.265-14.808-33.124-33.009-33.124       c-18.202,0-33.011,14.859-33.011,33.124V442.87c0,18.268,14.809,33.129,33.011,33.129c18.201,0,33.009-14.861,33.009-33.129       v-55.022c0-2.51,0.944-4.928,2.644-6.774l28.674-31.137C178.872,347.869,181.545,346.711,184.324,346.711z" style="fill:#628D1A;"/></g></g><g><path d="M442.369,327.873c0,23.814-19.254,43.123-43.005,43.123s-43.016-19.309-43.016-43.123      c0-23.813,19.265-43.127,43.016-43.127S442.369,304.058,442.369,327.873L442.369,327.873z" style="fill:#3DB4E7;"/><g><path d="M399.364,380.996c-29.233,0-53.016-23.831-53.016-53.123c0-29.294,23.782-53.127,53.016-53.127       c29.227,0,53.005,23.833,53.005,53.127C452.369,357.165,428.591,380.996,399.364,380.996z M399.364,294.746       c-18.205,0-33.016,14.86-33.016,33.127c0,18.264,14.811,33.123,33.016,33.123c18.199,0,33.005-14.859,33.005-33.123       C432.369,309.606,417.563,294.746,399.364,294.746z" style="fill:#2E87AD;"/></g></g></g></g></g><g id="Layer_1"/></svg>