<?xml version="1.0" ?><!DOCTYPE svg  PUBLIC '-//W3C//DTD SVG 1.1//EN'  'http://www.w3.org/Graphics/SVG/1.1/DTD/svg11.dtd'><svg height="512px" style="enable-background:new 0 0 512 512;" version="1.1" viewBox="0 0 512 512" width="512px" xml:space="preserve" xmlns="http://www.w3.org/2000/svg" xmlns:xlink="http://www.w3.org/1999/xlink"><g id="comp_x5F_195-lastfm"><g><g><g><path d="M228.868,355.816l-16.891-45.82c0,0-27.402,30.546-68.46,30.546      c-36.387,0-62.172-31.623-62.172-82.206c0-64.776,32.705-87.956,64.778-87.956c59.745,0,67.203,47.886,90.651,121.198      c16.89,51.121,48.516,92.179,139.617,92.179c65.315,0,109.608-20.033,109.608-72.683c0-65.495-56.331-72.414-103.32-82.745      c-23.179-5.302-30.009-14.734-30.009-30.547c0-17.878,14.197-28.48,37.378-28.48c25.334,0,38.99,9.524,41.057,32.163      l52.647-6.289c-4.223-47.437-36.924-66.933-90.652-66.933c-47.436,0-93.795,17.879-93.795,75.379      c0,35.847,17.43,58.488,61.095,69c40.338,9.522,71.694,12.397,71.694,41.058c0,19.498-18.958,27.403-54.805,27.403      c-53.188,0-75.379-27.942-87.957-66.395c-28.75-86.97-39.171-146.445-144.917-146.445c-77.354,0-118.414,48.965-118.414,132.249      c0,80.05,41.059,123.265,114.91,123.265C200.387,383.757,228.868,355.816,228.868,355.816z" style="fill:#D42127;"/><path d="M376.391,393.757c-44.729,0-78.675-9.495-103.778-29.026      c-20.388-15.862-34.793-38.11-45.334-70.015c-2.593-8.105-4.947-15.756-7.224-23.154      c-19.458-63.228-29.916-91.181-73.932-91.181c-34.3,0-54.778,29.142-54.778,77.956c0,43.863,20.479,72.206,52.172,72.206      c35.889,0,60.789-26.973,61.036-27.245c2.35-2.588,5.889-3.771,9.322-3.106c3.432,0.667,6.276,3.066,7.485,6.347l16.891,45.82      c1.361,3.693,0.43,7.841-2.38,10.598c-1.282,1.258-32.12,30.802-94.96,30.802c-39.724,0-70.827-11.7-92.446-34.776      c-21.541-22.993-32.463-56.129-32.463-98.488c0-90.401,46.805-142.249,128.414-142.249c48.324,0,81.449,12.18,104.246,38.332      c20.718,23.767,31.448,57.062,43.872,95.613c2.021,6.271,4.11,12.755,6.295,19.362c13.834,42.294,36.563,59.533,78.462,59.533      c44.805,0,44.805-12.644,44.805-17.403c0-15.595-13.507-20.06-49.251-27.984c-4.745-1.052-9.651-2.14-14.741-3.341      c-23.779-5.725-40.846-14.953-52.218-28.225c-11.156-13.02-16.579-29.541-16.579-50.507c0-29.597,11.608-52.964,33.569-67.578      c17.502-11.646,41.786-17.802,70.226-17.802c30.059,0,52.834,5.72,69.629,17.488c18.238,12.779,28.663,32.48,30.984,58.558      c0.479,5.384-3.407,10.175-8.774,10.816l-52.647,6.289c-2.688,0.319-5.379-0.458-7.478-2.156      c-2.1-1.699-3.422-4.175-3.668-6.864c-1.264-13.849-7.036-23.072-31.098-23.072c-10.225,0-27.378,2.401-27.378,18.48      c0,9.2,1.596,16.077,22.238,20.799c3.229,0.709,6.589,1.42,9.971,2.136c23.29,4.931,47.373,10.03,66.636,22.373      c23.204,14.869,34.484,37.107,34.484,67.984C495.999,348.794,475.248,393.757,376.391,393.757z M146.123,160.38      c28.271,0,48.279,9.794,62.968,30.822c12.798,18.322,20.424,43.103,30.079,74.476c2.261,7.347,4.599,14.943,7.128,22.854      c14.611,44.22,40.508,85.225,130.093,85.225c32.492,0,57.436-5.102,74.138-15.163c17.139-10.326,25.471-25.869,25.471-47.52      c0-52.739-41.415-61.507-85.263-70.791c-3.434-0.727-6.843-1.449-10.205-2.188c-26.21-5.995-37.861-18.422-37.861-40.314      c0-23.375,18.597-38.48,47.378-38.48c27.21,0,43.733,10.456,49.258,31.112l33.161-3.961      c-4.467-22.944-20.118-48.209-79.367-48.209c-24.484,0-44.937,4.998-59.146,14.453c-16.586,11.036-24.648,27.695-24.648,50.927      c0,32.533,15.98,50.261,53.436,59.277c4.913,1.16,9.752,2.233,14.432,3.271c17.237,3.821,32.124,7.121,43.463,13.143      c14.239,7.562,21.459,19.124,21.459,34.367c0,13.497-6.792,23.882-19.643,30.033c-10.36,4.959-25.133,7.37-45.162,7.37      c-27.574,0-49.069-6.929-65.712-21.183c-13.938-11.938-24.026-28.493-31.75-52.103c-2.197-6.649-4.299-13.17-6.331-19.476      c-12.231-37.956-21.893-67.935-39.912-88.605c-18.975-21.767-46.476-31.474-89.17-31.474      c-69.912,0-108.414,43.416-108.414,122.249c0,74.099,36.277,113.265,104.91,113.265c40.929,0,66.109-14.207,76.079-21.253      l-9.306-25.243c-12.798,9.946-35.333,23.281-64.167,23.281c-20.982,0-39.678-9.241-52.644-26.02      c-12.775-16.533-19.528-39.42-19.528-66.187C71.344,186.113,109.973,160.38,146.123,160.38z" style="fill:#9F191D;"/></g></g></g></g><g id="Layer_1"/></svg>