<?xml version="1.0" ?><!DOCTYPE svg  PUBLIC '-//W3C//DTD SVG 1.1//EN'  'http://www.w3.org/Graphics/SVG/1.1/DTD/svg11.dtd'><svg height="512px" style="enable-background:new 0 0 512 512;" version="1.1" viewBox="0 0 512 512" width="512px" xml:space="preserve" xmlns="http://www.w3.org/2000/svg" xmlns:xlink="http://www.w3.org/1999/xlink"><g id="comp_x5F_200-line"><g><g><g><path d="M475.999,116.242v280.204c-0.098,44-36.142,79.65-80.24,79.553H115.555      c-44.001-0.098-79.652-36.24-79.554-80.241V115.554c0.099-43.999,36.241-79.65,80.241-79.553h280.205      C440.445,36.1,476.098,72.144,475.999,116.242z" style="fill:#39AE41;"/><path d="M395.939,485.999H115.555c-23.965-0.053-46.48-9.508-63.421-26.622      c-16.906-17.078-26.187-39.68-26.133-63.642V115.554c0.111-49.39,40.512-89.553,90.061-89.553h280.385      c49.501,0.111,89.664,40.603,89.553,90.264v280.182C485.89,445.836,445.489,485.999,395.939,485.999z M116.062,46.001      c-38.545,0-69.975,31.211-70.061,69.575v280.182c-0.042,18.663,7.185,36.252,20.347,49.55      c13.167,13.302,30.65,20.65,49.229,20.691h280.362c38.546,0,69.975-31.211,70.06-69.575V116.242      c0.087-38.655-31.125-70.155-69.575-70.241H116.062z" style="fill:#2B8331;"/></g><g><path d="M415.501,236.651c0-71.695-71.895-130.034-160.188-130.034      c-88.295,0-160.188,58.339-160.188,130.034c0,64.231,56.965,118.054,133.963,128.269c18.76,4.025,16.599,10.902,12.376,36.141      c-0.688,4.027-3.241,15.814,13.848,8.646c17.089-7.171,92.223-54.313,125.91-93.01      C404.401,291.159,415.501,265.331,415.501,236.651z" style="fill:#FFFFFF;"/><path d="M246.526,421.971C246.525,421.971,246.526,421.971,246.526,421.971      c-4.88,0-9.129-1.858-11.965-5.233c-4.955-5.895-3.595-13.684-3.014-17.009l0.659-3.898c1.315-7.767,2.805-16.56,1.905-18.695      c-0.247-0.214-1.628-1.226-6.751-2.357C144.915,363.676,85.125,305.64,85.125,236.651c0-77.215,76.346-140.034,170.188-140.034      c93.842,0,170.188,62.819,170.188,140.034c0,31.02-12.037,59.375-36.804,86.688c-34.416,39.483-110.772,87.723-129.515,95.587      C254.301,420.975,250.161,421.971,246.526,421.971z M246.525,401.971v10V401.971      C246.525,401.971,246.525,401.971,246.525,401.971z M255.313,116.617c-82.813,0-150.188,53.847-150.188,120.034      c0,58.949,52.687,108.726,125.278,118.355c0.263,0.035,0.524,0.08,0.783,0.136c27.206,5.838,24.493,21.856,20.738,44.027      l-0.202,1.196c17.615-7.558,90.187-53.74,121.957-90.235c0.046-0.053,0.092-0.104,0.139-0.155      c21.615-23.815,31.683-47.114,31.683-73.324C405.501,170.464,338.127,116.617,255.313,116.617z" style="fill:#2B8331;"/></g><path d="M303.241,205.126v69.828c0,1.769-1.375,3.144-3.143,3.144h-11.196     c-1.079,0-2.062-0.588-2.555-1.276l-32.018-43.214v41.447c0,1.767-1.375,3.144-3.143,3.144h-11.195     c-1.768,0-3.143-1.377-3.143-3.144v-69.831c0-1.768,1.375-3.143,3.143-3.143h11.098c0.982,0,2.062,0.491,2.553,1.375     l32.018,43.214v-41.446c0-1.768,1.374-3.143,3.145-3.143H300C301.769,201.982,303.241,203.456,303.241,205.126z" style="fill:#39AE41;"/><path d="M222.705,201.982H211.51c-1.769,0-3.143,1.375-3.143,3.144v69.828     c0,1.769,1.375,3.144,3.143,3.144h11.195c1.769,0,3.143-1.375,3.143-3.144v-69.828     C225.848,203.456,224.474,201.982,222.705,201.982z" style="fill:#39AE41;"/><path d="M195.697,260.52h-30.544v-55.394c0-1.769-1.375-3.144-3.144-3.144h-11.196     c-1.769,0-3.143,1.375-3.143,3.144v69.828c0,0.886,0.295,1.573,0.883,2.16c0.59,0.493,1.277,0.887,2.161,0.887H195.6     c1.767,0,3.142-1.375,3.142-3.144V263.66C198.742,261.99,197.366,260.52,195.697,260.52L195.697,260.52z" style="fill:#39AE41;"/><path d="M362.169,201.982h-44.884c-1.669,0-3.142,1.375-3.142,3.144v69.828     c0,1.672,1.374,3.144,3.142,3.144h44.884c1.77,0,3.143-1.375,3.143-3.144V263.76c0-1.77-1.373-3.144-3.143-3.144h-30.543V248.83     h30.543c1.77,0,3.143-1.375,3.143-3.143v-11.295c0-1.767-1.373-3.143-3.143-3.143h-30.543v-11.786h30.543     c1.77,0,3.143-1.374,3.143-3.142v-11.196C365.214,203.456,363.84,201.982,362.169,201.982z" style="fill:#39AE41;"/></g></g></g><g id="Layer_1"/></svg>