<?xml version="1.0" ?><!DOCTYPE svg  PUBLIC '-//W3C//DTD SVG 1.1//EN'  'http://www.w3.org/Graphics/SVG/1.1/DTD/svg11.dtd'><svg height="512px" style="enable-background:new 0 0 512 512;" version="1.1" viewBox="0 0 512 512" width="512px" xml:space="preserve" xmlns="http://www.w3.org/2000/svg" xmlns:xlink="http://www.w3.org/1999/xlink"><g id="comp_x5F_201-linkedin"><g><g><g><rect height="302.462" style="fill:#0274B3;" width="98.117" x="36.623" y="173.51"/><path d="M134.74,485.972H36.623c-5.523,0-10-4.478-10-10V173.51c0-5.523,4.477-10,10-10h98.117      c5.523,0,10,4.477,10,10v302.462C144.74,481.494,140.263,485.972,134.74,485.972z M46.623,465.972h78.117V183.51H46.623V465.972      z" style="fill:#025786;"/></g><g><path d="M401.994,177.057c-1.043-0.326-2.029-0.684-3.123-0.992c-1.32-0.299-2.635-0.552-3.979-0.765      c-5.207-1.048-10.918-1.789-17.605-1.789c-57.199,0-93.486,41.715-105.434,57.824V173.51h-98.118v302.462h98.116V310.994      c0,0,74.145-103.554,105.436-27.5v192.478h98.09V271.864C475.377,226.163,444.141,188.082,401.994,177.057z" style="fill:#0274B3;"/><path d="M475.377,485.972h-98.09c-5.522,0-10-4.478-10-10V285.53      c-8.762-19.933-18.844-19.934-22.221-19.934c-21.854,0-51.864,33.681-63.215,48.685v161.69c0,5.522-4.478,10-10,10h-98.116      c-5.523,0-10-4.478-10-10V173.51c0-5.523,4.477-10,10-10h98.118c5.522,0,10,4.477,10,10v31.298      c19.873-19.352,51.99-41.297,95.434-41.297c6.56,0,12.724,0.619,19.379,1.945c1.489,0.241,2.936,0.521,4.413,0.855      c0.17,0.039,0.339,0.082,0.507,0.129c0.834,0.235,1.618,0.491,2.398,0.75c0.263,0.086,0.524,0.173,0.79,0.258      c47.47,12.539,80.603,55.439,80.603,104.417v204.107C485.377,481.494,480.899,485.972,475.377,485.972z M387.287,465.972h78.09      V271.864c0-39.973-27.104-74.981-65.914-85.133c-0.152-0.04-0.304-0.083-0.454-0.13c-0.439-0.137-0.87-0.279-1.302-0.422      s-0.863-0.288-1.315-0.422c-1.022-0.226-2.027-0.416-3.063-0.58c-0.137-0.022-0.272-0.046-0.408-0.073      c-5.399-1.087-10.367-1.593-15.633-1.593c-51.911,0-85.409,37.611-97.401,53.781c-2.57,3.465-7.069,4.894-11.169,3.538      c-4.097-1.353-6.863-5.181-6.863-9.495V183.51h-78.118v282.462h78.116V310.994c0-2.088,0.653-4.124,1.869-5.821      c4.366-6.099,43.743-59.576,81.346-59.576c12.519,0,29.875,5.915,41.469,34.093c0.496,1.207,0.752,2.499,0.752,3.805V465.972z" style="fill:#025786;"/></g><g><path d="M84.615,132.266c26.5,0,47.989-21.54,47.989-48.12c0-26.573-21.489-48.117-47.989-48.117      c-26.502,0-47.992,21.544-47.992,48.117C36.623,110.725,58.112,132.266,84.615,132.266z" style="fill:#0274B3;"/><path d="M84.615,142.266c-31.977,0-57.992-26.073-57.992-58.12c0-32.046,26.015-58.117,57.992-58.117      c31.975,0,57.989,26.071,57.989,58.117C142.604,116.193,116.59,142.266,84.615,142.266z M84.615,46.028      c-20.949,0-37.992,17.099-37.992,38.117c0,21.02,17.043,38.12,37.992,38.12c20.947,0,37.989-17.101,37.989-38.12      C122.604,63.127,105.562,46.028,84.615,46.028z" style="fill:#025786;"/></g></g></g></g><g id="Layer_1"/></svg>