<?xml version="1.0" ?><!DOCTYPE svg  PUBLIC '-//W3C//DTD SVG 1.1//EN'  'http://www.w3.org/Graphics/SVG/1.1/DTD/svg11.dtd'><svg height="512px" style="enable-background:new 0 0 512 512;" version="1.1" viewBox="0 0 512 512" width="512px" xml:space="preserve" xmlns="http://www.w3.org/2000/svg" xmlns:xlink="http://www.w3.org/1999/xlink"><g id="comp_x5F_123-facebook-messenger"><g><g><g><path d="M256.023,36.001c-204.384,0-296.115,241.606-136.911,362.017v77.981l74.348-41.25      c139.66,39.089,280.302-58.831,280.302-195.149C473.86,127.144,376.333,36.001,256.023,36.001z" style="fill:#448AFF;"/><path d="M119.113,485.999c-1.755,0-3.509-0.462-5.074-1.383c-3.052-1.797-4.926-5.075-4.926-8.617      v-73.071c-35.965-28.381-61.176-64.816-73.049-105.657c-11.428-39.313-10.372-81.24,3.055-121.25      c14.295-42.599,41.143-79.269,77.64-106.047c39.209-28.768,87.366-43.973,139.265-43.973      c60.738,0,117.863,22.134,160.852,62.323c43.183,40.372,66.938,94.099,66.888,151.284c0,58.053-24.315,112.282-68.468,152.691      c-21.018,19.236-45.395,34.334-72.452,44.875c-27.677,10.782-56.813,16.249-86.594,16.249c-0.004,0-0.005,0-0.009,0      c-20.639-0.001-41.299-2.678-61.476-7.962l-70.799,39.281C122.455,485.581,120.783,485.999,119.113,485.999z M256.023,46.001      c-92.444,0-170.142,53.534-197.944,136.383c-25.909,77.206-0.21,156.775,67.065,207.658c2.499,1.89,3.968,4.842,3.968,7.976      v60.997l59.496-33.01c2.302-1.277,5.014-1.595,7.547-0.886c19.687,5.51,39.902,8.304,60.084,8.305      c54.487,0.002,106.179-19.842,145.552-55.878c39.963-36.574,61.971-85.564,61.971-137.946      c0.045-51.589-21.458-100.122-60.546-136.666C363.946,66.22,311.672,46.001,256.023,46.001z" style="fill:#3368BF;"/></g><polygon points="279.004,309.134 222.63,250.6 114.202,310.605 233.14,184.402 289.513,242.938      397.939,182.928    " style="fill:#FFFFFF;"/></g></g></g><g id="Layer_1"/></svg>