<?xml version="1.0" ?><!DOCTYPE svg  PUBLIC '-//W3C//DTD SVG 1.1//EN'  'http://www.w3.org/Graphics/SVG/1.1/DTD/svg11.dtd'><svg height="512px" style="enable-background:new 0 0 512 512;" version="1.1" viewBox="0 0 512 512" width="512px" xml:space="preserve" xmlns="http://www.w3.org/2000/svg" xmlns:xlink="http://www.w3.org/1999/xlink"><g id="comp_x5F_218-mixcloud"><g><g><path d="M316.453,231.775c-5.546-56.772-53.626-101.34-111.878-101.34     c-48.266,0-90.982,31.069-106.331,76.191c-36.432,5.361-64.54,36.614-64.54,74.525c0,41.608,33.842,75.447,75.635,75.447H302.77     c34.951,0,63.43-28.294,63.43-63.243C366.199,263.211,344.749,237.879,316.453,231.775z" style="fill:#76B8DB;"/><path d="M302.77,328.305H109.339c-26.073,0-47.341-21.08-47.341-47.155s21.268-47.156,47.341-47.156     c12.575,0,24.411,4.993,33.287,13.87c13.332,13.332,33.482-6.83,20.156-20.158c-9.802-9.616-21.821-16.273-34.766-19.602     c13.314-29.587,43.273-49.375,76.56-49.375c46.416,0,84.139,37.724,84.139,83.955c0,9.062-1.479,17.938-4.252,26.444     c-5.973,18.379,21.461,26.007,26.814,8.877c1.85-5.548,3.327-11.28,4.251-17.014c12.946,4.994,22.378,17.568,22.378,32.363     C337.906,312.586,322.187,328.305,302.77,328.305L302.77,328.305z" style="fill:#FFFFFF;"/><path d="M478.296,293.355c0,29.404-8.506,57.695-24.78,81.922c-2.773,4.067-7.212,6.287-11.834,6.287     c-10.896,0-18.117-12.573-11.65-22.007c12.944-19.602,19.973-42.532,19.973-66.202c0-23.672-7.028-46.601-19.973-66.019     c-10.456-15.249,12.932-31.551,23.484-15.718C469.792,235.659,478.296,263.953,478.296,293.355L478.296,293.355z" style="fill:#76B8DB;"/><path d="M421.693,293.355c0,21.082-6.102,41.421-17.937,58.991c-2.775,4.066-7.213,6.102-11.836,6.102     c-11.487,0-18.047-12.675-11.649-22.006c8.693-12.76,13.129-27.555,13.129-43.087c0-15.35-4.436-30.327-13.129-43.088     c-10.525-15.353,12.694-31.455,23.485-15.719C415.592,251.931,421.693,272.274,421.693,293.355L421.693,293.355z" style="fill:#76B8DB;"/></g></g></g><g id="Layer_1"/></svg>