<?xml version="1.0" ?><!DOCTYPE svg  PUBLIC '-//W3C//DTD SVG 1.1//EN'  'http://www.w3.org/Graphics/SVG/1.1/DTD/svg11.dtd'><svg height="512px" style="enable-background:new 0 0 512 512;" version="1.1" viewBox="0 0 512 512" width="512px" xml:space="preserve" xmlns="http://www.w3.org/2000/svg" xmlns:xlink="http://www.w3.org/1999/xlink"><g id="comp_x5F_220-modx"><g><g><g><polygon points="361.661,249.039 394.565,270.287 394.565,462.59 275.328,387.463     " style="fill:#E84C35;"/><g><path d="M394.565,472.59c-1.854,0-3.705-0.516-5.331-1.539l-119.237-75.127c-4.657-2.935-6.067-9.082-3.154-13.753       l86.333-138.424c1.418-2.273,3.689-3.883,6.305-4.467c2.611-0.584,5.354-0.095,7.605,1.358l32.904,21.249       c2.853,1.842,4.575,5.005,4.575,8.4V462.59c0,3.642-1.979,6.996-5.168,8.755C397.891,472.177,396.227,472.59,394.565,472.59z        M289.081,384.309l95.484,60.161V275.733l-19.795-12.783L289.081,384.309z"/></g></g><g><polygon points="437.766,93.195 242.293,93.195 221.254,127.771 361.661,216.039     " style="fill:#58A0D3;"/><g><path d="M361.661,226.039c-1.868,0-3.715-0.523-5.322-1.534l-140.407-88.268c-4.627-2.909-6.062-8.995-3.22-13.664       l21.039-34.575c1.814-2.982,5.053-4.802,8.543-4.802h195.473c3.628,0,6.972,1.965,8.737,5.135       c1.765,3.169,1.674,7.047-0.236,10.131l-76.104,122.843c-1.403,2.264-3.651,3.875-6.246,4.476       C363.171,225.954,362.414,226.039,361.661,226.039z M234.92,124.55l123.542,77.666l61.345-99.02H247.914L234.92,124.55z"/></g></g><g><polygon points="361.731,216.323 96,49.41 96,242.106 137.324,268.158     " style="fill:#66B84E;"/><g><path d="M137.325,278.158c-1.873,0-3.724-0.526-5.333-1.541l-41.324-26.052C87.762,248.734,86,245.54,86,242.106V49.41       c0-3.639,1.977-6.991,5.162-8.752c3.186-1.76,7.076-1.65,10.157,0.284l265.732,166.914c3.421,2.149,5.213,6.146,4.542,10.13       c-0.672,3.984-3.674,7.172-7.61,8.082l-224.408,51.834C138.831,278.073,138.076,278.158,137.325,278.158z M106,236.589       l33.133,20.889l196.906-45.483L106,67.5V236.589z"/></g></g><g><polygon points="138.161,301.039 74.234,419.76 255.8,419.76 362.002,249.41     " style="fill:#66B84E;"/><g><path d="M255.8,429.76H74.234c-3.52,0-6.78-1.851-8.585-4.872c-1.805-3.021-1.888-6.77-0.22-9.869l63.927-118.721       c1.364-2.533,3.753-4.356,6.557-5.003l223.841-51.629c3.93-0.907,8.037,0.643,10.386,3.934c2.349,3.29,2.485,7.67,0.348,11.101       L264.286,425.05C262.46,427.979,259.252,429.76,255.8,429.76z M90.977,409.76H250.25l90.516-145.189L144.82,309.766       L90.977,409.76z"/></g></g></g></g></g><g id="Layer_1"/></svg>