<?xml version="1.0" ?><!DOCTYPE svg  PUBLIC '-//W3C//DTD SVG 1.1//EN'  'http://www.w3.org/Graphics/SVG/1.1/DTD/svg11.dtd'><svg height="512px" style="enable-background:new 0 0 512 512;" version="1.1" viewBox="0 0 512 512" width="512px" xml:space="preserve" xmlns="http://www.w3.org/2000/svg" xmlns:xlink="http://www.w3.org/1999/xlink"><g id="comp_x5F_234-nutritionix"><g><g><path d="M260,143c0,0.093-110.089,7.712-107.863-109.877c0,0,123.708-7.605,112.21,96.815     c0,0,17.713-69.459,95.517-37.651c0,0-24.67,67.405-89.863,50.712" style="fill:#6AB316;"/><path d="M441.471,311.796c0,44.977-8.995,88.378-29.674,122.688     c-39.136,28.655-97.373,44.515-155.796,44.515c-58.333,0-116.663-15.859-155.795-44.515     c-20.682-34.311-29.677-77.712-29.677-122.688c0-44.884,16.415-87.819,37.095-122.131C146.758,161.009,201.667,143,260,143     c58.423,0,105.242,17.916,144.377,46.664C425.056,223.977,441.471,266.912,441.471,311.796z" style="fill:#6AB316;"/><path d="M181.812,408.521c0-14.376-11.592-25.967-25.966-25.967c-14.374,0-25.965,11.591-25.965,25.967     c0,14.373,11.592,25.964,25.965,25.964C170.22,434.484,181.812,422.894,181.812,408.521z" style="fill:#FFFFFF;"/><path d="M181.812,347.129c0-14.374-11.592-25.968-25.966-25.968c-14.374,0-25.965,11.594-25.965,25.968     c0,14.373,11.592,25.966,25.965,25.966C170.22,373.095,181.812,361.502,181.812,347.129z" style="fill:#FFFFFF;"/><path d="M181.812,285.738c0-14.376-11.592-25.966-25.966-25.966c-14.374,0-25.965,11.59-25.965,25.966     c0,14.373,11.592,25.966,25.965,25.966C170.22,311.704,181.812,300.111,181.812,285.738z" style="fill:#FFFFFF;"/><path d="M248.581,408.521c0-14.376-11.592-25.967-25.965-25.967c-14.374,0-25.967,11.591-25.967,25.967     c0,14.373,11.593,25.964,25.967,25.964C236.989,434.484,248.581,422.894,248.581,408.521z" style="fill:#FFFFFF;"/><path d="M248.581,347.129c0-14.374-11.592-25.968-25.965-25.968c-14.374,0-25.967,11.594-25.967,25.968     c0,14.373,11.593,25.966,25.967,25.966C236.989,373.095,248.581,361.502,248.581,347.129z" style="fill:#FFFFFF;"/><path d="M248.581,285.738c0-14.376-11.592-25.966-25.965-25.966c-14.374,0-25.967,11.59-25.967,25.966     c0,14.373,11.593,25.966,25.967,25.966C236.989,311.704,248.581,300.111,248.581,285.738z" style="fill:#FFFFFF;"/><path d="M315.351,408.521c0-14.376-11.592-25.967-25.966-25.967c-14.373,0-25.965,11.591-25.965,25.967     c0,14.373,11.592,25.964,25.965,25.964C303.759,434.484,315.351,422.894,315.351,408.521z" style="fill:#FFFFFF;"/><path d="M315.351,347.129c0-14.374-11.592-25.968-25.966-25.968c-14.373,0-25.965,11.594-25.965,25.968     c0,14.373,11.592,25.966,25.965,25.966C303.759,373.095,315.351,361.502,315.351,347.129z" style="fill:#FFFFFF;"/><path d="M315.351,285.738c0-14.376-11.592-25.966-25.966-25.966c-14.373,0-25.965,11.59-25.965,25.966     c0,14.373,11.592,25.966,25.965,25.966C303.759,311.704,315.351,300.111,315.351,285.738z" style="fill:#FFFFFF;"/><path d="M382.12,408.521c0-14.376-11.591-25.967-25.967-25.967c-14.373,0-25.965,11.591-25.965,25.967     c0,14.373,11.592,25.964,25.965,25.964C370.529,434.484,382.12,422.894,382.12,408.521z" style="fill:#FFFFFF;"/><path d="M382.12,347.129c0-14.374-11.591-25.968-25.967-25.968c-14.373,0-25.965,11.594-25.965,25.968     c0,14.373,11.592,25.966,25.965,25.966C370.529,373.095,382.12,361.502,382.12,347.129z" style="fill:#FFFFFF;"/><path d="M382.12,285.738c0-14.376-11.591-25.966-25.967-25.966c-14.373,0-25.965,11.59-25.965,25.966     c0,14.373,11.592,25.966,25.965,25.966C370.529,311.704,382.12,300.111,382.12,285.738z" style="fill:#FFFFFF;"/><path d="M346.145,233c-2.705-12.564-4.17-20.79-9.015-31.55c-21.86-11.212-50.987-18.03-81.129-18.03     c-30.142,0-59.27,6.817-81.13,18.03c-4.958,10.986-6.31,19.099-9.014,31.55c23.775-4.451,55.606-8.338,90.144-8.338     C290.536,224.662,322.368,228.55,346.145,233L346.145,233z" style="fill:#FFFFFF;"/></g></g></g><g id="Layer_1"/></svg>