<?xml version="1.0" ?><!DOCTYPE svg  PUBLIC '-//W3C//DTD SVG 1.1//EN'  'http://www.w3.org/Graphics/SVG/1.1/DTD/svg11.dtd'><svg height="512px" style="enable-background:new 0 0 512 512;" version="1.1" viewBox="0 0 512 512" width="512px" xml:space="preserve" xmlns="http://www.w3.org/2000/svg" xmlns:xlink="http://www.w3.org/1999/xlink"><g id="comp_x5F_245-pagelines"><g><g><g><path d="M435.896,309.179c-51.631,128.095-175.324,50.601-175.324,50.601      c-37.949,76.649-100.637,125.938-172.978,126.22c-15.086,0-15.555-22.865,0-22.865c60.346-0.28,112.914-40.013,147.304-103.167      c-38.513,14.898-111.134,26.141-151.426-77.025c102.137-42.074,149.084,10.494,167.075,42.635      c9.278-22.864,15.931-47.696,20.242-74.683c0,0-130.907,20.52-140.091-91.924c111.602-44.886,142.995,71.871,142.995,71.871      c1.499-15.649,3.092-49.289,3.092-50.038c0,0-99.608-69.062-35.701-154.802c116.756,40.293,57.535,152.177,57.535,152.177      c0.469,1.5,0.469,22.302,0,31.298c0,0,42.354-83.397,127.814-53.88c-3.938,125.564-132.97,99.702-132.97,99.702      c-4.121,25.674-10.494,50.037-18.74,72.622C274.724,327.92,352.5,241.897,435.896,309.179z" style="fill:#135CAA;"/><path d="M87.595,495.999c-12.252,0-21.491-9.271-21.491-21.563c0-12.145,9.239-21.302,21.491-21.302      c47.577-0.221,92.268-27.696,125.313-76.262c-8.742,1.777-17.343,2.673-25.739,2.673      c-34.991,0.002-83.001-16.125-113.012-92.966c-1.983-5.077,0.466-10.808,5.506-12.884      c26.425-10.886,51.275-16.405,73.859-16.405c47.872,0,77.491,24.361,94.452,46.299c4.324-13.095,7.867-26.854,10.698-41.529      c-3.264,0.178-7.011,0.301-11.13,0.301c-20.143,0.001-49.506-2.956-75.005-17.048c-31.146-17.213-48.575-45.989-51.805-85.528      c-0.356-4.367,2.17-8.457,6.235-10.092c18.138-7.295,35.52-10.994,51.661-10.994c23.999,0,45.649,8.171,63.782,23.879      c-13.386-15.383-27.275-36.789-31.464-62.418c-4.488-27.458,2.955-54.419,22.121-80.134c2.601-3.492,7.163-4.896,11.28-3.477      c36.826,12.709,61.192,33.582,72.421,62.04c15.617,39.578,0.771,81.658-6.19,97.653c16.587-17.683,43.173-36.969,80.229-36.969      c12.605,0,25.691,2.312,38.893,6.872c4.14,1.43,6.868,5.388,6.73,9.766c-1.331,42.442-16.269,73.496-44.397,92.297      c-23.852,15.944-52.28,19.292-71.929,19.292c-7.261,0.001-13.586-0.446-18.431-0.955c-1.982,10.754-4.368,21.354-7.146,31.747      c18.061-12.251,43.918-24.825,73.971-24.825c25.917,0,50.706,9.396,73.679,27.93c3.425,2.764,4.641,7.44,2.996,11.521      c-26.68,66.191-72.093,80.089-105.491,80.092c-0.003,0-0.009,0-0.012,0c-31.851,0.001-60.615-12.223-74.925-19.503      c-19.074,35.55-43.75,65.158-71.791,86.041c-31.827,23.702-68.246,36.308-105.319,36.452      C87.621,495.999,87.608,495.999,87.595,495.999z M234.896,349.967c2.822,0,5.579,1.195,7.516,3.401      c2.769,3.152,3.275,7.696,1.269,11.381c-37.351,68.593-94.225,108.098-156.04,108.385c-1.101,0-1.538,0-1.538,1.302      c0,1.55,0.746,1.563,1.473,1.563c66.414-0.27,126.203-44.246,164.034-120.656c1.254-2.533,3.521-4.417,6.24-5.186      c2.719-0.769,5.637-0.353,8.032,1.148c0.338,0.211,35.275,21.703,73.786,21.703c0.005,0,0.005,0,0.01,0      c37.512-0.004,65.729-20.379,83.962-60.596c-17.568-12.579-36.087-18.947-55.144-18.947c-48.572,0-85.984,40.75-86.356,41.161      c-3.21,3.55-8.482,4.329-12.581,1.856c-4.098-2.471-5.87-7.498-4.229-11.993c8.17-22.375,14.313-46.188,18.26-70.777      c0.432-2.685,1.938-5.079,4.171-6.63c2.234-1.55,5.004-2.125,7.67-1.59c0.088,0.017,10.323,2.007,24.671,2.006      c41.183-0.002,90.475-14.936,95.927-84.665c-8.624-2.366-17.08-3.562-25.223-3.562c-54.836,0-82.992,54.185-83.271,54.732      c-2.139,4.211-6.935,6.35-11.497,5.132c-4.563-1.219-7.651-5.464-7.405-10.182c0.435-8.333,0.413-25.706,0.146-29.002      c-0.396-2.191-0.05-4.465,1.003-6.454c0.238-0.454,24.376-47.226,8.341-87.676c-8.31-20.96-26.215-37.005-53.277-47.766      c-12.615,19.253-17.383,38.992-14.179,58.77c7.156,44.158,51.382,75.455,51.828,75.765c2.682,1.871,4.291,4.941,4.291,8.21      c0,1.409-1.633,35.288-3.138,50.992c-0.461,4.814-4.301,8.608-9.119,9.012c-4.828,0.408-9.237-2.7-10.492-7.37      c-0.048-0.176-5.408-19.489-18.986-38.333c-17.405-24.157-39.752-36.406-66.422-36.406c-11.525,0-23.986,2.317-37.13,6.896      c9.55,66.583,69.999,76.769,106.043,76.767c12.826-0.001,21.625-1.335,21.712-1.349c3.162-0.488,6.367,0.564,8.62,2.83      c2.254,2.266,3.295,5.472,2.791,8.628c-4.517,28.278-11.337,53.421-20.851,76.865c-1.445,3.563-4.805,5.981-8.643,6.221      c-3.835,0.227-7.472-1.741-9.35-5.096c-13.578-24.257-39.918-53.171-88.299-53.171c-17.342,0-36.443,3.784-56.897,11.263      c20.782,47.125,51.206,70.994,90.542,70.992c14.005-0.001,28.851-2.997,44.123-8.904      C232.464,350.187,233.687,349.967,234.896,349.967z M256.076,176.656c1.921,2.333,3.786,4.768,5.597,7.308      c1.646,2.308,3.184,4.615,4.618,6.896c0.102-1.969,0.19-3.737,0.263-5.232C263.893,183.535,260.246,180.517,256.076,176.656z" style="fill:#0E4580;"/></g></g></g></g><g id="Layer_1"/></svg>