<?xml version="1.0" ?><!DOCTYPE svg  PUBLIC '-//W3C//DTD SVG 1.1//EN'  'http://www.w3.org/Graphics/SVG/1.1/DTD/svg11.dtd'><svg height="512px" style="enable-background:new 0 0 512 512;" version="1.1" viewBox="0 0 512 512" width="512px" xml:space="preserve" xmlns="http://www.w3.org/2000/svg" xmlns:xlink="http://www.w3.org/1999/xlink"><g id="comp_x5F_246-palfed"><g><g><g><path d="M26.001,194.505c0,0-0.082,30.727,31.549,30.727h24.646L100.6,403.679      c0,0,0,36.396,36.725,36.396h237.353c0,0,36.723-0.328,36.723-36.396l18.406-178.447h24.646c0,0,31.548,0.985,31.548-30.727      c0,0,0.083-30.728-31.548-30.728h-24.729c-5.997-21.03-24.812-61.042-98.095-61.042h-23.005V87.043      c0,0-2.219-15.117-17.335-15.117h-70.491c0,0-17.336,0-17.336,15.117v15.692h-23.086c0,0-86.266,3.45-99,61.042H57.55      C57.55,163.777,26.001,162.792,26.001,194.505z" style="fill:#0E1B3C;"/><path d="M374.677,450.074H137.324c-18.771,0-33.354-8.414-41.062-23.693      c-4.967-9.845-5.581-19.453-5.653-22.097L73.175,235.231H57.55c-12.24,0-22.195-3.758-29.588-11.171      c-11.671-11.702-11.966-27.787-11.961-29.583c0-32.125,25.921-40.704,41.237-40.704c0.178,0,0.32,0.001,0.423,0.003h16.147      C93.318,96.881,176.3,92.89,179.974,92.743c0.133-0.005,0.267-0.008,0.4-0.008h13.086v-5.692      c0-18.428,16.348-25.117,27.336-25.117h70.491c18.791,0,26.027,15.48,27.229,23.665c0.071,0.481,0.106,0.966,0.106,1.452v5.692      h13.005c34.383,0,61.574,8.435,80.819,25.069c11.018,9.523,19.248,21.6,24.531,35.973h17.474      c12.24,0,22.194,3.758,29.587,11.171c11.671,11.702,11.966,27.788,11.961,29.583c0,32.125-25.921,40.703-41.236,40.703      c-0.179,0-0.32-0.001-0.423-0.003h-15.513l-17.43,168.985c-0.163,18.264-8.632,32.501-23.887,40.129      c-10.935,5.468-21.568,5.718-22.745,5.729C374.736,450.074,374.706,450.074,374.677,450.074z M57.238,173.772      c-0.668,0.001-6.691,0.085-12.136,2.992c-3.907,2.086-9.102,6.194-9.102,17.741c0,0.007,0.113,5.862,3.068,11.287      c3.459,6.352,9.504,9.44,18.481,9.44h24.646c5.125,0,9.421,3.875,9.947,8.974l18.403,178.448      c0.035,0.341,0.053,0.683,0.053,1.025c0,0.011,0.136,7.327,3.777,14.192c4.354,8.212,11.861,12.203,22.948,12.203h237.243      c0.592-0.02,7.748-0.335,14.488-3.867c8.306-4.354,12.344-11.723,12.344-22.528c0-0.343,0.018-0.686,0.053-1.026l18.406-178.447      c0.526-5.099,4.821-8.974,9.947-8.974h24.646c0.104,0,0.208,0.001,0.312,0.005c0.669-0.001,6.691-0.085,12.136-2.992      c3.906-2.085,9.101-6.193,9.101-17.74c-0.001-0.008-0.113-5.862-3.067-11.288c-3.459-6.352-9.504-9.44-18.48-9.44h-24.729      c-4.467,0-8.392-2.962-9.616-7.258c-10.178-35.688-39.946-53.784-88.479-53.784h-23.005c-5.522,0-10-4.477-10-10V88.023      c-0.597-2.525-2.327-6.097-7.335-6.097h-70.42c-2.782,0.067-7.407,0.825-7.407,5.117v15.692c0,5.523-4.477,10-10,10h-22.845      c-3.981,0.214-78.808,4.951-89.477,53.201c-1.013,4.58-5.073,7.841-9.764,7.841H57.55      C57.446,173.777,57.342,173.776,57.238,173.772z" style="fill:#FDCA07;"/></g><g><path d="M258.341,145.046c-2.381-11.995-15.034-16.514-24.235-9.119      c-6.162,5.093-7.805,12.98-8.627,23.168c-47.486,25.387-82.731,69.424-82.731,103.929c0,20.459,12.815,35.328,30.479,35.328      c28.837,0,33.685-36.231,11.831-36.231c-3.861,0-9.037,2.219-9.202,2.219c-0.164-0.492-0.328-1.725-0.493-3.78      c0-21.031,30.398-50.033,48.063-62.356c-0.986,29.906-4.52,162.753-1.15,199.231c2.465,26.537,22.019,27.031,29.905,18.321      c4.848-5.422,4.519-12.897,4.354-15.691v-0.166c-1.479-21.032-2.301-49.786-2.218-82.155      c49.952,11.83,115.101-49.543,115.101-113.543C369.417,145.867,317.66,126.808,258.341,145.046z M267.214,284.056      c-10.27,0-11.829-2.792-12.405-5.093c0.411-32.123,1.397-66.055,2.465-98.425c33.028-11.831,78.378-14.459,78.378,24.482      C335.734,248.893,297.447,284.056,267.214,284.056z" style="fill:#FFFFFF;"/><path d="M240.59,430.798c-11.653,0-26.049-8.496-28.273-32.439c-2.84-30.754-0.869-128.898,0.47-178.632      c-11.324,10.546-21.291,22.743-25.412,32.489c6.13,0.511,11.513,3.056,15.336,7.294c3.838,4.255,5.952,10.049,5.952,16.314      c0,15.989-13.255,32.527-35.438,32.527c-23.077,0-40.479-19.487-40.479-45.328c0-36.882,34.753-82.545,83.306-110.149      c1.112-8.841,3.656-18.022,11.682-24.655c0.035-0.029,0.071-0.058,0.106-0.087c4.716-3.79,10.259-5.793,16.029-5.793      c8.249,0,15.586,4.124,20.11,10.741c12.3-3.118,24.246-4.694,35.619-4.694c49.233,0,79.817,29.05,79.817,75.813      c0,29.88-13.08,61.314-35.886,86.241c-22.213,24.279-50.742,38.773-76.31,38.775c-0.005,0-0.005,0-0.01,0      c-0.966,0-1.928-0.021-2.887-0.061c0.113,26.855,0.873,51.4,2.185,70.04c0.014,0.192,0.021,0.384,0.023,0.576      c0.493,9.357-1.827,16.977-6.898,22.648C254.869,427.684,247.765,430.798,240.59,430.798z M223.426,188.202      c1.636,0,3.277,0.401,4.77,1.211c3.327,1.806,5.349,5.335,5.224,9.118c-1.083,32.817-4.456,162.594-1.188,197.982      c0.818,8.809,4.021,14.284,8.358,14.284c1.572,0,3.211-0.688,4.177-1.755c2.137-2.391,1.872-6.908,1.784-8.394      c-0.007-0.122-0.012-0.245-0.015-0.368c-1.513-21.683-2.301-50.986-2.22-82.564c0.008-3.054,1.41-5.936,3.807-7.826      c2.397-1.89,5.525-2.583,8.498-1.879c3.372,0.798,6.937,1.203,10.594,1.204c0.001,0,0.006,0,0.007,0      c20.054,0,43.062-12.064,61.554-32.276c19.474-21.284,30.642-47.797,30.642-72.74c0-50.375-41.832-55.813-59.817-55.813      c-12.006,0-24.899,2.092-38.32,6.219c-2.702,0.83-5.635,0.478-8.065-0.973c-2.43-1.451-4.131-3.863-4.682-6.639      c-0.57-2.871-2.356-4.654-4.662-4.654c-1.146,0-2.337,0.463-3.448,1.34c-2.867,2.41-4.218,6.822-4.977,16.22      c-0.274,3.391-2.253,6.41-5.253,8.014c-44.152,23.604-77.446,64.492-77.446,95.11c0,14.913,8.421,25.328,20.479,25.328      c11.247,0,15.438-7.684,15.438-12.527c0-1.271-0.3-2.361-0.802-2.918c-0.586-0.649-1.849-0.786-2.804-0.786      c-0.234,0-1.587,0.068-5.226,1.42c-0.856,0.318-2.151,0.799-3.976,0.799c-4.304,0-8.125-2.754-9.487-6.838      c-0.468-1.403-0.723-3.011-0.974-6.142c-0.021-0.267-0.032-0.533-0.032-0.801c0-27.927,37.783-60.401,52.341-70.558      C219.415,188.807,221.417,188.202,223.426,188.202z M267.214,294.056c-4.683,0-18.935,0-22.105-12.663      c-0.209-0.836-0.31-1.696-0.299-2.558c0.44-34.387,1.551-70.771,2.469-98.626c0.135-4.1,2.761-7.701,6.623-9.084      c14.962-5.36,30.44-8.312,43.583-8.312c30.161,0,48.167,15.779,48.167,42.208c0.045,23.64-10.078,47.377-27.772,65.104      C302.7,285.333,284.233,294.056,267.214,294.056z M264.878,273.986c0.642,0.042,1.413,0.069,2.336,0.069      c11.574,0,25.223-6.751,36.51-18.059c13.97-13.997,21.963-32.57,21.928-50.957c0-6.093,0-22.227-28.167-22.227      c-9.097,0-19.712,1.766-30.444,5.024C266.223,213.097,265.313,244.118,264.878,273.986z" style="fill:#FDCA07;"/></g></g></g></g><g id="Layer_1"/></svg>