<?xml version="1.0" ?><!DOCTYPE svg  PUBLIC '-//W3C//DTD SVG 1.1//EN'  'http://www.w3.org/Graphics/SVG/1.1/DTD/svg11.dtd'><svg height="512px" style="enable-background:new 0 0 512 512;" version="1.1" viewBox="0 0 512 512" width="512px" xml:space="preserve" xmlns="http://www.w3.org/2000/svg" xmlns:xlink="http://www.w3.org/1999/xlink"><g id="comp_x5F_247-pandora"><g><g><g id="_x35_3-pandora_8_"><g><g><g><g><path d="M455.912,186.094c-8.313-87.25-86.503-155.592-178.027-155.592H55.275v450.996h114.693          c15.799,0,28.671-12.883,28.671-28.755v-77.244h86.018c48.367,0,94.789-20.584,127.302-56.496          C444.988,282.608,460.585,235.407,455.912,186.094L455.912,186.094z" style="fill:#0D93F2;"/><path d="M169.968,491.498H55.275c-5.523,0-10-4.478-10-10V30.502c0-5.523,4.477-10,10-10h222.609          c96.613,0,179.186,72.32,187.982,164.643c4.943,52.166-11.572,102.088-46.503,140.579          c-34.39,37.984-83.491,59.775-134.707,59.775h-76.018v67.244C208.639,474.112,191.292,491.498,169.968,491.498z           M65.275,471.498h104.693c10.295,0,18.671-8.413,18.671-18.755v-77.244c0-5.522,4.477-10,10-10h86.018          c45.577,0,89.275-19.394,119.889-53.208c31.112-34.282,45.816-78.762,41.411-125.254          c-7.829-82.167-81.655-146.535-168.072-146.535H65.275V471.498z" style="fill:#0A6EB6;"/></g></g></g></g></g></g></g></g><g id="Layer_1"/></svg>