<?xml version="1.0" ?><!DOCTYPE svg  PUBLIC '-//W3C//DTD SVG 1.1//EN'  'http://www.w3.org/Graphics/SVG/1.1/DTD/svg11.dtd'><svg height="512px" style="enable-background:new 0 0 512 512;" version="1.1" viewBox="0 0 512 512" width="512px" xml:space="preserve" xmlns="http://www.w3.org/2000/svg" xmlns:xlink="http://www.w3.org/1999/xlink"><g id="comp_x5F_248-path"><g><g><g id="_x35_1-path_8_"><g><g><g><g><path d="M475.282,194.108c-2.389-61.023-58.362-159.249-220.743-158.097          C84.969,37.227,35.414,151.099,36.621,216.192c1.18,65.113,43.58,101.139,43.58,101.139l63.291-52.303          c0,0-26.874,2.309-26.874-51.153c0-81.449,97.332-102.292,159.423-101.137c62.084,1.153,111.095,51.421,111.943,90.66          c0.818,38.362-9.326,62.697-40.312,80.195c-37.028,20.927-81.891,2.335-81.891,2.335l0.604-116.426L182.679,170          l-0.215,217.068c0,0-0.771,18.559-22.384,17.433c-15.495-0.793-35.074-17.872-35.074-17.872l0.141,69.016          c0,0,24.162,20.354,62.388,20.354c82.415,0,78.821-80.79,78.821-80.79v-45.512c0,0,16.813,8.139,50.242,8.139          C455.147,357.836,477.28,245.281,475.282,194.108L475.282,194.108z" style="fill:#E3432C;"/><path d="M187.534,485.999c-41.4,0-67.73-21.779-68.831-22.707c-2.25-1.895-3.551-4.685-3.557-7.627          l-0.141-69.016c-0.008-3.925,2.281-7.491,5.852-9.119c3.57-1.63,7.764-1.018,10.722,1.563          c6.588,5.722,20.301,14.976,29.012,15.421c0.467,0.024,0.911,0.036,1.343,0.036c6.052,0,8.118-2.246,9.146-3.937          c1.023-1.684,1.333-3.534,1.384-3.897l0.214-216.726c0.005-5.496,4.445-9.958,9.94-9.99l83.707-0.498          c2.676-0.033,5.238,1.038,7.128,2.926s2.945,4.454,2.932,7.125l-0.566,109.239c6.726,2.014,18.252,4.747,31.263,4.747          c13.51,0,25.512-2.911,35.671-8.653c26.135-14.759,36.013-34.742,35.233-71.275c-0.358-16.589-11.7-36.631-29.598-52.302          c-20.486-17.938-46.246-28.085-72.533-28.574c-1.535-0.028-3.088-0.043-4.665-0.043c-14.798,0-144.572,2.559-144.572,91.182          c0,23.779,5.75,33.543,9.178,37.247c3.181,3.438,6.193,3.864,7.023,3.915c4.389-0.651,8.315,1.732,10.168,5.791          c1.877,4.115,0.362,9.028-3.125,11.909l-63.291,52.303c-3.737,3.09-9.15,3.051-12.845-0.087          c-1.872-1.591-45.856-39.741-47.104-108.579c-0.309-16.654,2.521-74.943,51.894-125.602          c19.161-19.66,42.728-35.121,70.047-45.954c30.756-12.196,66.388-18.523,105.904-18.807c0.976-0.007,1.929-0.01,2.897-0.01          c73.191,0,133.695,20.402,174.971,59c31.643,29.591,51.434,70.232,52.939,108.716c0.715,18.301-0.413,81.605-44.922,127.886          c-29.504,30.679-71.142,46.233-123.755,46.233c-17.649,0-31.104-2.189-40.242-4.426v31.616          c0.124,3.772,0.657,40.61-24.09,66.483C236.722,477.76,214.943,485.999,187.534,485.999z M135.136,450.535          c7.507,4.963,26.46,15.464,52.398,15.464c21.673,0,38.554-6.125,50.173-18.204c19.655-20.434,18.669-51.854,18.657-52.169          c-0.005-0.13-0.009-0.287-0.009-0.417v-45.512c0-3.443,1.771-6.644,4.688-8.473c2.915-1.83,6.567-2.028,9.669-0.528          c0.091,0.042,15.64,7.14,45.885,7.14c46.965,0,83.752-13.49,109.339-40.097c31.016-32.25,40.665-79.643,39.354-113.241          c-1.306-33.34-18.731-68.813-46.616-94.889c-37.502-35.07-93.282-53.608-161.31-53.608c-0.921,0-1.827,0.003-2.754,0.01          c-69.856,0.501-124.284,20.257-161.771,58.72c-34.935,35.844-46.782,80.984-46.22,111.276          c0.82,45.231,23.327,75.659,34.248,87.801l43.534-35.976c-1.103-0.921-2.203-1.957-3.284-3.126          c-9.621-10.396-14.499-27.498-14.499-50.831c0-82.064,88.654-111.182,164.572-111.182c1.702,0,3.38,0.016,5.036,0.047          c30.999,0.576,61.306,12.481,85.337,33.522c22.32,19.543,35.935,44.56,36.419,66.919          c0.938,43.97-12.638,70.621-45.393,89.119c-13.195,7.457-28.507,11.239-45.508,11.239c-24.639,0-44.304-8.032-45.129-8.374          c-3.753-1.556-6.192-5.228-6.171-9.29l0.551-106.314l-63.665,0.379l-0.205,207.137c0,0.136-0.003,0.271-0.009,0.407          c-0.454,10.878-8.956,27.063-30.519,27.064c-0.771,0.001-1.56-0.02-2.376-0.063c-8.385-0.429-17.193-4.272-24.514-8.519          L135.136,450.535z" style="fill:#AA3221;"/></g></g></g></g></g></g></g></g><g id="Layer_1"/></svg>