<?xml version="1.0" ?><!DOCTYPE svg  PUBLIC '-//W3C//DTD SVG 1.1//EN'  'http://www.w3.org/Graphics/SVG/1.1/DTD/svg11.dtd'><svg height="512px" style="enable-background:new 0 0 512 512;" version="1.1" viewBox="0 0 512 512" width="512px" xml:space="preserve" xmlns="http://www.w3.org/2000/svg" xmlns:xlink="http://www.w3.org/1999/xlink"><g id="comp_x5F_252-periscope"><g><g><g><path d="M387.172,83.141c-34.68-36.835-80.41-57.14-128.836-57.14      c-103.051,0-186.964,86.431-186.964,192.625c0,67.472,51.929,143.568,74.301,173.126      c32.882,43.486,82.116,94.247,112.663,94.247c37.376,0,101.434-84.633,108.621-94.334      c22.1-29.739,73.671-106.287,73.671-173.039C440.628,167.864,421.672,119.707,387.172,83.141z" style="fill:#FFFFFF;"/><g><path d="M258.336,495.999c-43.03,0-103.218-75.176-120.64-98.216c-22.946-30.316-76.324-108.47-76.324-179.157       c0-111.728,88.357-202.625,196.964-202.625c51.176,0,99.517,21.41,136.117,60.285c36.222,38.392,56.175,88.946,56.175,142.34       c0,69.687-52.9,148.397-75.645,179.004c-3.387,4.571-21.457,28.606-43.82,51.783       C300.918,480.761,277.096,495.999,258.336,495.999z M258.336,36.001c-97.578,0-176.964,81.925-176.964,182.625       c0,64.626,50.543,138.381,72.274,167.091c40.195,53.158,83.244,90.282,104.689,90.282c24.721,0,73.697-53.994,100.586-90.287       c21.566-29.021,71.706-103.372,71.706-167.086c0-48.271-18.016-93.95-50.729-128.623       C347.109,55.177,303.94,36.001,258.336,36.001z"/></g></g><g><path d="M358.422,211.797c0,53.097-45.91,98.56-99.548,98.56c-90.382,0-135.394-97.212-83.464-163.337      v0.36c0,22.011,18.058,39.89,40.249,39.89c22.192,0,40.251-17.879,40.251-39.89c0-16.352-9.973-30.368-24.168-36.566      C300.562,93.563,358.422,146.122,358.422,211.797L358.422,211.797z" style="fill:#E94F3C;"/><g><path d="M258.874,320.356c-23.402,0-45.559-6.201-64.075-17.933       c-17.35-10.993-31.273-26.579-40.264-45.071c-18.511-38.075-13.526-82.719,13.011-116.509       c2.633-3.353,7.103-4.669,11.132-3.275c4.029,1.393,6.732,5.188,6.732,9.451v0.36c0,16.481,13.57,29.89,30.249,29.89       c16.681,0,30.251-13.408,30.251-29.89c0-11.827-7.132-22.583-18.169-27.402c-3.921-1.712-6.319-5.73-5.964-9.994       s3.383-7.83,7.534-8.87c9.564-2.397,19.221-3.613,28.703-3.613c29.983,0,57.932,12.018,78.697,33.839       c20.449,21.489,31.711,50.063,31.711,80.458c0,27.959-11.891,55.769-32.624,76.297       C314.786,308.898,287.467,320.356,258.874,320.356z M171.857,171.811c-11.232,24.308-11.275,52.241,0.664,76.797       c15.754,32.403,48.035,51.749,86.353,51.749c47.703,0,89.548-41.383,89.548-88.56c0-52.876-39.712-94.296-90.408-94.296       c-0.709,0-1.419,0.008-2.13,0.025c6.379,8.463,10.026,18.877,10.026,29.854c0,27.509-22.542,49.89-50.251,49.89       C196.884,197.27,180.482,186.995,171.857,171.811z" style="fill:#AF3B2D;"/></g></g></g></g></g><g id="Layer_1"/></svg>