<?xml version="1.0" ?><!DOCTYPE svg  PUBLIC '-//W3C//DTD SVG 1.1//EN'  'http://www.w3.org/Graphics/SVG/1.1/DTD/svg11.dtd'><svg height="512px" style="enable-background:new 0 0 512 512;" version="1.1" viewBox="0 0 512 512" width="512px" xml:space="preserve" xmlns="http://www.w3.org/2000/svg" xmlns:xlink="http://www.w3.org/1999/xlink"><g id="comp_x5F_254-phoenix-framework"><g><g><g><g><path d="M270.344,322.396c-2.906,0-5.768-0.169-8.508-0.502c-26.127-3.215-43.866-25.171-59.518-44.542       c-9.036-11.183-17.57-21.746-26.141-26.889c-3.041-1.831-6.884-2.876-10.557-2.876c-4.013,0-10.873,1.134-11.737,8.73       c-0.442,4.021,0.636,8.288,3.608,14.233c12.161,24.222,30.563,27.822,38.422,29.36c3.397,0.665,6.331,1.238,8.861,3.982       c2.354,2.553,3.215,6.143,2.275,9.485c-0.939,3.342-3.545,5.958-6.884,6.91c-3.997,1.141-20.721,1.959-20.875,1.963       c-0.545,0.019-1.153,0.028-1.777,0.028c-0.002,0-0.004,0-0.006,0c-17.475-0.002-38.375-7.359-55.908-19.681       c-15.555-10.932-35.828-30.983-44.069-64.427c-3.815-15.478-3.981-26.488-4.143-37.136c-0.121-8.028-0.236-15.612-1.782-25.614       c-4.284-27.901-15.074-43.6-32.072-46.67c-3.542-0.627-6.864-0.692-10.094-0.18c-0.114,0.018-0.228,0.034-0.342,0.048       c-0.773,0.095-1.775,0.219-2.952,0.219c-3.801,0-7.274-2.156-8.961-5.562c-0.201-0.407-0.348-0.765-0.456-1.055       c-1.595-3.947-0.517-8.519,2.76-11.331c0.52-0.446,1.232-1.057,2.086-1.7c0.039-0.029,0.078-0.058,0.118-0.087       c23.614-17.215,58.271-27.493,92.707-27.493c4.041,0,8.05,0.15,11.915,0.447c50.515,3.883,77.755,36.258,104.099,67.568       c22.416,26.642,43.589,51.807,78.086,56.926c2.427,0.358,4.999,0.547,7.723,0.748c1.688,0.124,3.379,0.249,5.07,0.414       c0.1,0.01,0.199,0.021,0.298,0.033l0.252,0.017c0.347,0.021,0.734,0.046,1.195,0.088c3.819,0.351,7.102,2.854,8.449,6.446       c1.347,3.591,0.521,7.636-2.125,10.413c-4.021,4.216-21.196,11.459-31.687,13.361c-3.889,0.718-7.808,1.085-11.617,1.085       c-11.662,0-22.626-3.368-32.586-10.009c-4.363-2.949-8.127-6.233-11.449-9.132c-4.951-4.32-9.227-8.051-13.578-9.23       c-1.638-0.453-3.445-0.695-5.141-0.695c-7.578,0-7.894,3.739-8.083,5.973c-0.561,6.864,7.977,29.384,32.452,44.227       c14.974,9.08,35.996,14.288,57.676,14.287c11.711,0,22.557-1.598,30.539-4.498c0.066-0.024,0.134-0.048,0.201-0.071       c0.497-0.168,0.958-0.291,1.33-0.385c0.912-0.257,1.86-0.391,2.808-0.391c1.09,0,1.931,0.174,2.291,0.248       c3.502,0.606,6.422,3.026,7.665,6.359c1.252,3.358,0.611,7.129-1.679,9.886C330.847,306.975,297.976,322.396,270.344,322.396z        M165.62,227.587c7.31,0,14.719,2.037,20.86,5.735c11.597,6.958,21.214,18.86,31.395,31.461       c13.917,17.224,28.307,35.034,46.39,37.26c1.927,0.234,3.977,0.354,6.079,0.354c10.497,0,22.185-2.926,33.042-7.83       c-24.552-0.314-48.539-6.533-66.083-17.173c-30.993-18.795-43.225-48.146-42.012-62.985       c1.249-14.782,12.244-24.316,28.014-24.316c3.499,0,7.104,0.486,10.425,1.406c8.746,2.37,15.201,8.003,21.444,13.451       c3.166,2.763,6.157,5.372,9.446,7.595c4.386,2.924,9.068,4.893,13.974,5.878c-26.569-12.043-45.262-34.262-63.483-55.918       c-24.778-29.448-48.181-57.264-90.327-60.503c-3.357-0.258-6.851-0.388-10.383-0.388c-20.319,0-41.149,4.185-58.693,11.445       c14.983,7.005,30.133,23.28,35.667,59.32c1.755,11.361,1.886,20.001,2.012,28.356c0.157,10.4,0.293,19.383,3.564,32.652       c8.409,34.125,32.264,53.261,53.208,62.298c-3.768-4.478-7.351-9.811-10.547-16.176c-3.209-6.418-6.738-15.092-5.603-25.416       C135.813,238.225,148.515,227.587,165.62,227.587z"/></g><g><path d="M92.588,127.265c-7.508,0-14.569-3.24-19.885-9.124c-1.266-1.405-1.883-2.451-2.422-3.592       c-1.379-2.765-1.423-6.056-0.084-8.84s3.87-4.837,6.891-5.486c8.854-1.902,17.961-3.098,27.842-3.657       c2.873-0.165,5.682,0.922,7.7,2.978s3.052,4.881,2.837,7.753C114.614,118.68,104.779,127.265,92.588,127.265z"/></g><g><path d="M306.24,382.797c-0.991,0-1.995-0.147-2.983-0.456c-0.906-0.283-1.826-0.636-2.893-1.043       c-4.166-1.594-11.138-4.26-23.771-5.214c-1.823-0.147-3.669-0.221-5.541-0.221c-6.905,0-13.678,0.938-21.521,2.025       c-8.028,1.111-17.127,2.372-27.599,2.675c-0.741,0.021-1.478,0.031-2.216,0.031c-31.091,0-68.083-18.62-94.243-47.437       c-2.995-3.255-12.649-15.025-14.682-18.643c-2.193-3.902-1.525-8.786,1.634-11.957l0.287-0.288       c3.285-3.297,8.41-3.892,12.363-1.435c0.733,0.456,1.662,1.071,2.778,1.814c5.713,3.803,17.6,11.716,34.104,16.479       c6.793,1.965,13.528,2.96,20.025,2.96c8.415,0,16.786-1.677,24.881-4.983c6.018-2.465,12.221-3.717,18.429-3.717       c11.06,0,21.275,4.032,24.84,9.807c1.716,2.779,1.966,6.22,0.672,9.218s-3.971,5.175-7.17,5.832       c-1.423,0.292-3.086,0.634-4.719,0.982c4.66,1.097,10.105,1.377,16.138,1.688c14.746,0.76,33.099,1.704,50.576,16.114       c2.292,1.913,7.058,6.73,9.124,9.721c2.068,2.994,2.347,6.874,0.729,10.133c-0.392,0.789-0.871,1.511-1.455,2.187       C312.125,381.436,309.246,382.797,306.24,382.797z M163.605,340.139c18.312,12.741,38.762,20.456,56.111,20.456       c0.55,0,1.1-0.008,1.647-0.023c5.72-0.165,10.987-0.65,16.017-1.252c-4.178-0.755-8.294-1.917-12.253-3.792       c-9.539-4.521-12.244-10.663-12.834-15.021c-0.185-1.364-0.183-2.72-0.003-4.043c-9.852,3.735-20.033,5.626-30.306,5.626       C175.947,342.09,169.79,341.436,163.605,340.139z"/></g><g><path d="M421.384,225.189c-1.056,0-2.114-0.167-3.136-0.504c-2.528-0.835-4.618-2.643-5.809-5.024       c-0.337-0.674-0.805-1.737-1.113-2.969c-0.019-0.073-0.036-0.146-0.053-0.22c-1.845-8.114-9.657-16.847-22.453-16.847       c-4.036,0-8.385,0.849-12.925,2.523c-12.176,4.511-26.317,6.899-40.881,6.899c-39.009,0.001-74.414-16.083-97.219-44.149       c-4.986-4.897-4.363-10.941-1.508-14.841l0.002,0.001c1.878-2.552,4.913-4.116,8.133-4.116c3.795,0,7.169,2.281,8.041,2.921       l0-0.001c11.41,8.449,24.636,14.187,39.308,17.055c7.073,1.414,13.644,2.098,20.129,2.098c10.384,0,20.354-1.71,32.33-5.544       l0.596-0.189c8.116-2.577,19.231-6.105,31.803-6.105c7.816,0,15.275,1.401,22.169,4.164       c13.545,5.468,23.202,15.784,28.728,30.67c2.765,7.425,4.289,15.99,4.289,24.107c0,2.652-1.054,5.196-2.929,7.071       c-1.533,1.533-3.512,2.517-5.632,2.825C422.637,225.13,422.011,225.189,421.384,225.189z M318.087,187.84       c5.518,0.798,11.175,1.207,16.927,1.207c12.218,0,23.957-1.957,33.948-5.659c6.777-2.499,13.454-3.763,19.858-3.763       c1.586,0,3.133,0.075,4.636,0.219c-0.688-0.339-1.396-0.656-2.122-0.95c-4.558-1.827-9.375-2.719-14.705-2.719       c-9.473,0-18.499,2.865-25.751,5.168l-0.574,0.182C338.792,185.211,328.393,187.26,318.087,187.84z"/></g><g><path d="M316.857,329.791c-1.222,0-2.278-0.028-3.141-0.084c-5.261-0.341-9.354-4.707-9.354-9.979v-0.284       c0-3.683,2.024-7.067,5.269-8.81c1.302-0.699,2.57-1.083,3.915-1.488c3.183-0.962,8.511-2.571,15.34-8.945       c4.991-4.612,9.642-9.454,14.564-14.581l1.438-1.497c12.771-13.229,30.243-31.327,60.503-31.327       c2.077,0,4.217,0.086,6.359,0.255c15.957,1.245,22.872,5.285,29.103,9.67c0.534,0.376,1.052,0.742,1.576,1.09       c1.82,1.213,2.804,2.667,3.187,3.269c2.088,2.994,2.382,6.9,0.743,10.184c-1.624,3.252-4.876,5.355-8.482,5.522       c-0.361,0.031-0.674,0.043-0.959,0.043c-1.354,0-2.658-0.254-3.891-0.756c-3.061-1.154-6.642-1.648-11.93-1.648       c-4.995,0.03-8.313,3.233-15.831,11.703c-10.431,11.75-24.717,27.843-56.625,34.381       C335.884,329.1,322.662,329.791,316.857,329.791z M394.794,273.898c-15.48,3.361-25.631,13.875-35.503,24.1l-1.415,1.474       c-1.73,1.802-3.48,3.625-5.26,5.449c19.79-5.903,29.241-16.552,37.692-26.071C391.782,277.189,393.265,275.52,394.794,273.898z       "/></g><g><path d="M301.052,277.906c-12.749,0-23.445-2.481-34.683-8.047c-0.363-0.179-0.714-0.381-1.053-0.603       c-3.214-1.744-5.229-5.113-5.229-8.789c0-0.854,0.101-1.681,0.306-2.506c0.461-2.099,1.592-4.013,3.25-5.438       c2.212-1.899,5.143-2.738,8.023-2.3c7.135,1.088,12.533,1.858,17.032,1.858h0.001c4.898,0,9.351-0.808,16.396-4.828       c2.562-1.482,5.152-3.05,7.659-4.566c13.012-7.874,26.468-16.015,47.146-18.93c4.607-0.639,9.085-0.96,13.331-0.96       c16.779,0,31.061,4.75,44.944,14.949c3.547,2.606,4.93,7.175,3.562,11.241c-0.133,0.446-0.328,0.997-0.628,1.615       c-1.912,3.944-6.174,6.179-10.502,5.522l-2.28-0.349c-8.748-1.338-16.304-2.495-22.731-2.495       c-6.994,0-12.287,1.34-17.697,4.481c-1.431,0.832-2.846,1.68-4.259,2.525c-11.136,6.663-22.65,13.554-44.061,16.282       C312.303,277.481,306.421,277.905,301.052,277.906z M342.958,249.028c-1.729,0.737-3.412,1.523-5.068,2.352       C339.651,250.641,341.328,249.854,342.958,249.028z"/></g><g><path d="M300.377,163.713c-16.208,0-32.202-4.11-48.895-12.565c-14.593-7.485-27.896-17.465-39.585-29.684       c-0.37-0.375-0.717-0.755-1.167-1.26l-0.579-0.645c-2.664-2.929-3.35-7.153-1.749-10.773c1.601-3.621,5.187-5.956,9.146-5.956       c0.441,0,0.955-0.006,1.537-0.013c0.85-0.01,1.828-0.021,2.921-0.021c14.052,0,26.376,2.226,37.677,6.803       c10.649,4.325,18.633,10.387,26.354,16.249c3.649,2.771,7.424,5.637,11.488,8.324c5.438,3.576,11.818,4.935,19.728,4.206       c1.482-0.138,3.041-0.369,4.69-0.612c1.322-0.196,2.646-0.39,3.981-0.551c2.345-0.362,4.767,0.045,7.029,1.187       c3.175,1.602,5.26,4.769,5.477,8.318s-1.468,6.947-4.424,8.923l-0.125,0.092c-0.462,0.333-1.233,0.891-2.244,1.397       c-6.832,3.374-14.211,5.424-21.985,6.123C306.638,163.556,303.485,163.713,300.377,163.713z M250.246,127.391       c3.353,2.15,6.794,4.13,10.32,5.938c1.843,0.934,3.671,1.803,5.489,2.608c-4.361-3.06-8.755-5.719-13.889-7.805       C251.525,127.874,250.884,127.626,250.246,127.391z"/></g><g><path d="M466.152,332.796c-4.782,0-9.441-0.704-13.849-2.092c-7.944-2.521-13.271-7.563-18.423-12.44       c-2.319-2.196-4.718-4.467-7.337-6.458c-4.381-3.329-9.431-3.665-13.886-3.961l-0.957-0.064       c-3.655-0.256-6.877-2.49-8.398-5.822c-1.521-3.333-1.099-7.23,1.102-10.16c0.731-0.973,1.642-2.184,3.231-3.266       c0.113-0.078,0.229-0.152,0.346-0.225c13.758-8.553,28.271-10.475,42.488-5.65c9.216,3.098,14.824,8.813,20.762,14.865       c1.521,1.551,3.095,3.154,4.785,4.769c4.128,3.974,7.646,4.408,9.747,4.668c0.373,0.046,0.751,0.093,1.144,0.155       c2.103,0.256,5.837,1.355,8.043,5.783c2.017,4.048,1.065,8.945-2.32,11.944C488.277,328.697,477.519,332.796,466.152,332.796z        M446.403,302.58c0.418,0.394,0.827,0.78,1.228,1.16c3.15,2.981,5.777,5.47,8.49,6.94       C452.19,306.691,449.522,304.159,446.403,302.58z"/></g><g><path d="M334.351,430.387c-0.253,0-0.508-0.009-0.764-0.028c-16.814-1.274-30.021-7.59-40.375-19.308       c-12.388-14.035-23.26-16.663-28.485-17.925c-0.552-0.134-1.045-0.254-1.477-0.366c-4.165-1.087-7.167-4.718-7.453-9.013       c-0.283-4.258,2.167-8.221,6.09-9.876c0.703-0.323,2.383-1.075,4.678-1.075c9.666,0.073,19.976,0.499,30.387,3.103       c20.179,5.104,29.4,19.544,34.354,27.301c0.508,0.795,0.984,1.541,1.438,2.224c1.298,1.946,2.955,3.422,5.37,4.781       c6.345,3.493,7.1,9.146,5.782,13.136C342.611,427.515,338.736,430.387,334.351,430.387z"/></g></g><g><path d="M179.022,312.256c2.731-0.073,16.388-1.009,18.4-1.583c-1.724-1.869-31.337-0.718-48.875-35.65      c-3.09-6.18-5.39-12.648-4.6-19.835c2.085-18.33,23.647-21.563,37.375-13.298c25.876,15.526,45.497,65.621,81.721,70.079      c26.594,3.232,60.807-12.22,77.77-32.632c-0.432-0.071-0.575-0.144-0.72-0.071c-0.287,0.071-0.574,0.142-0.79,0.215      c-23.934,8.696-67.778,6.972-96.815-10.637c-27.023-16.388-38.165-42.191-37.23-53.619      c1.293-15.309,16.459-16.675,25.803-14.088c10.349,2.804,17.537,12.651,27.958,19.694c11.212,7.476,23.646,9.847,36.872,7.404      c10.709-1.942,24.726-8.842,26.232-10.422c-0.788-0.072-1.291-0.072-1.797-0.143c-4.456-0.433-8.911-0.576-13.295-1.223      c-79.925-11.859-92.646-117.586-181.483-124.415c-31.842-2.444-71.445,5.822-97.966,25.156      c-0.574,0.432-1.079,0.862-1.582,1.294c0.073,0.144,0.073,0.216,0.144,0.36c0.576,0,1.149-0.073,1.726-0.144      c4.528-0.719,8.984-0.574,13.439,0.216c17.107,3.09,34.285,16.603,40.178,54.984c3.81,24.652-0.503,36.512,5.751,61.884      C100.894,291.195,152.644,313.116,179.022,312.256L179.022,312.256z" style="fill:#DC232B;"/><path d="M80.124,111.438c-0.648-0.72-0.648-0.863-0.936-1.438c8.697-1.868,17.394-2.946,26.306-3.45      C104.704,117.115,89.539,121.858,80.124,111.438z"/><path d="M221.645,370.567c-30.763,0.864-66.125-19.189-88.766-44.131      c-3.306-3.594-12.074-14.517-13.368-16.819l0.287-0.288c4.745,2.949,18.472,13.371,39.389,19.408      c17.393,5.031,34.57,4.526,51.46-2.373c16.316-6.685,29.469-0.359,30.979,2.086c-13.297,2.729-14.447,3.161-17.249,5.677      c-3.667,3.164-3.307,8.411,5.03,12.362c18.831,8.914,45.281-2.011,69.863,18.257c1.725,1.439,5.819,5.607,7.258,7.689      c-0.071,0.144-0.215,0.217-0.287,0.36c-3.449-1.078-11.787-5.392-28.894-6.684C259.594,364.674,244.069,369.92,221.645,370.567      L221.645,370.567z" style="fill:#DC232B;"/><path d="M347.28,171.993c11.788-3.739,29.684-9.632,47.797-2.372      c11.572,4.671,18.832,13.44,23.073,24.868c2.516,6.757,3.664,14.16,3.664,20.628c-0.143,0-0.288,0-0.431,0.072      c-0.144-0.287-0.287-0.646-0.359-0.934c-3.594-15.813-21.49-31.481-48.588-21.491c-36.081,13.369-93.725,6.972-127.145-34.5      c-0.504-0.647-1.726-1.222-0.936-2.301c0.073-0.144,1.51,0.432,2.157,0.935c13.008,9.631,27.529,15.741,43.339,18.832      C311.775,180.114,329.098,177.815,347.28,171.993L347.28,171.993z" style="fill:#DC232B;"/><path d="M421.097,270.424c-23.289,0.142-24.295,36.008-74.463,46.287      c-13.081,2.658-27.815,3.305-32.271,3.017v-0.284c2.013-1.081,10.565-1.87,21.347-11.933      c5.678-5.246,10.998-10.852,16.388-16.458c14.017-14.519,29.756-30.331,58.866-28.033c16.603,1.295,21.059,5.895,25.947,9.13      c0.214,0.143,0.285,0.359,0.501,0.646c-0.359,0-0.501,0.073-0.646,0C431.733,270.854,426.487,270.424,421.097,270.424      L421.097,270.424z" style="fill:#DC232B;"/><path d="M412.256,245.805c-0.073,0.144-0.073,0.287-0.144,0.432c-20.773-3.163-34.5-5.678-49.234,2.875      c-12.218,7.115-22.569,14.734-44.563,17.537c-19.479,2.444-32.415,1.725-47.509-5.75c-0.216-0.145-0.432-0.287-0.72-0.431      c0-0.146,0.072-0.216,0.072-0.358c17.896,2.729,26.162,3.664,39.892-4.17c16.027-9.271,28.82-19.119,51.246-22.28      C382.57,230.711,398.167,235.456,412.256,245.805z" style="fill:#DC232B;"/><path d="M219.057,114.483c-0.432-0.431-0.791-0.863-1.509-1.652c5.461,0,21.346-0.863,38.38,6.037      c14.159,5.75,23.143,15.093,36.082,23.646c7.977,5.246,16.817,6.685,26.162,5.822c3.09-0.288,6.109-0.862,9.199-1.222      c0.287-0.071,0.648,0,1.077,0.216c-0.429,0.287-0.861,0.646-1.292,0.862c-5.821,2.874-12.004,4.528-18.399,5.103      c-18.761,1.868-36.153-2.659-52.756-11.068C242.128,135.112,229.838,125.768,219.057,114.483z" style="fill:#DC232B;"/><path d="M485.999,317.356c-2.515,2.228-16.315,8.338-30.69,3.81c-8.84-2.804-14.016-10.71-22.713-17.321      c-7.188-5.463-15.021-5.678-20.196-6.04c0.431-0.573,0.647-0.859,0.861-1.005c10.638-6.613,21.924-8.768,33.997-4.673      c8.985,3.021,13.801,9.704,21.851,17.395c7.763,7.474,15.094,7.115,16.604,7.547      C485.783,316.995,485.855,317.068,485.999,317.356L485.999,317.356z" style="fill:#DC232B;"/><path d="M333.265,418.949c1.583,0.862,1.151,1.076,1.078,1.438c-13.297-1.008-24.364-5.463-33.637-15.957      c-15.669-17.754-29.973-20.052-34.931-21.346c0.358-0.146,0.574-0.288,0.79-0.288c9.416,0.071,18.76,0.503,27.961,2.804      c18.183,4.6,25.154,18.256,29.899,25.371C326.725,414.42,329.672,416.936,333.265,418.949z" style="fill:#DC232B;"/></g></g></g></g><g id="Layer_1"/></svg>