<?xml version="1.0" ?><!DOCTYPE svg  PUBLIC '-//W3C//DTD SVG 1.1//EN'  'http://www.w3.org/Graphics/SVG/1.1/DTD/svg11.dtd'><svg height="512px" style="enable-background:new 0 0 512 512;" version="1.1" viewBox="0 0 512 512" width="512px" xml:space="preserve" xmlns="http://www.w3.org/2000/svg" xmlns:xlink="http://www.w3.org/1999/xlink"><g id="_x33_2_x2C__PHP_x2C__File_Type_x2C__Script"><g><polygon points="362.628,60.905 419.462,117.917 419.242,118.127 363.11,118.169 362.586,60.947   " style="fill:#005CBF;"/><path d="M130.098,100.721H306.36v101.771H130.098h-0.43h-37.34V100.721h37.34H130.098z" style="fill:#005CBF;"/><path d="M419.672,118.127v333.021H130.098V202.492H306.36V100.721H130.098V60.853h232.488l0.042,0.052    l-0.042,0.042l0.524,57.222l56.132-0.042l0.22-0.209L419.672,118.127z" style="fill:#007AFF;"/><polygon points="391.849,331.278 391.849,351.003 311.564,398.174 311.564,375.449 373.612,341.351     373.612,340.932 311.564,306.833 311.564,284.107   " style="fill:#FFFFFF;"/><polygon points="301.828,251.3 266.041,406.746 249.149,406.746 284.937,251.3   " style="fill:#FFFFFF;"/><polygon points="236.716,375.449 236.716,398.174 156.433,350.353 156.433,331.918 236.716,284.107     236.716,306.833 176,340.932 176,341.351   " style="fill:#FFFFFF;"/><path d="M363.11,128.661c-5.756,0-10.438-4.638-10.491-10.395l-0.524-57.223    c-0.054-5.794,4.601-10.534,10.396-10.587c0.032,0,0.065,0,0.098,0c5.75,0,10.437,4.634,10.49,10.396l0.428,46.819l45.728-0.034    c0.003,0,0.007,0,0.009,0c5.791,0,10.487,4.692,10.491,10.484c0.004,5.794-4.689,10.496-10.483,10.5l-56.131,0.042    C363.116,128.661,363.112,128.661,363.11,128.661z" style="fill:#3395FF;"/><path d="M130.098,212.983h-37.77c-5.795,0-10.492-4.697-10.492-10.492V100.721    c0-5.794,4.697-10.492,10.492-10.492h37.77c5.795,0,10.492,4.697,10.492,10.492c0,5.795-4.697,10.492-10.492,10.492H102.82V192    h27.278c5.795,0,10.492,4.697,10.492,10.492S135.893,212.983,130.098,212.983z" style="fill:#3395FF;"/><path d="M419.672,461.64H130.098c-5.794,0-10.492-4.697-10.492-10.492V202.492    c0-5.794,4.697-10.492,10.492-10.492h165.771v-80.787H130.098c-5.794,0-10.492-4.697-10.492-10.492V60.853    c0-5.794,4.697-10.492,10.492-10.492h232.488c2.935,0,5.722,1.228,7.7,3.365l56.796,56.973c1.974,1.969,3.082,4.642,3.082,7.428    v333.021C430.164,456.942,425.467,461.64,419.672,461.64z M140.59,440.655h268.59v-318.19l-50.96-51.121H140.59v18.885h165.77    c5.795,0,10.492,4.697,10.492,10.492v101.771c0,5.794-4.697,10.492-10.492,10.492H140.59V440.655z" style="fill:#3395FF;"/><path d="M238.216,154.492c0-4.396-1.973-7.722-5.802-7.722c-2.424,0-4.564,1.804-5.131,4.343    c-0.115,0.451-0.167,1.008-0.167,1.521v3.777c0,0.671,0.052,1.29,0.167,1.794c0.567,2.318,2.539,4.061,5.016,4.061    C236.023,162.267,238.216,159.171,238.216,154.492z M246.893,154.093c0,10.03-6.369,14.772-12.506,14.772    c-3.326,0-5.917-1.354-7.155-3.158h-0.115v13.692h-8.562v-29.472c0-3.609-0.115-6.705-0.231-9.243h7.439l0.398,3.83h0.105    c2.035-2.927,5.193-4.449,9.19-4.449C241.49,140.065,246.893,145.312,246.893,154.093z" style="fill:#FFFFFF;"/><path d="M211.683,152.121v16.125h-8.572v-15.161c0-3.609-1.238-6.085-4.448-6.085    c-2.256,0-3.662,1.458-4.281,2.98c-0.231,0.567-0.284,1.301-0.284,1.919v16.347h-8.571v-40.016h8.571v15.727h0.116    c0.902-1.186,2.025-2.087,3.378-2.822c1.238-0.671,2.875-1.07,4.448-1.07C207.507,140.065,211.683,143.843,211.683,152.121z" style="fill:#FFFFFF;"/><path d="M171.499,154.492c0-4.396-1.972-7.722-5.802-7.722c-2.424,0-4.564,1.804-5.131,4.343    c-0.105,0.451-0.168,1.008-0.168,1.521v3.777c0,0.671,0.063,1.29,0.168,1.794c0.567,2.318,2.539,4.061,5.026,4.061    C169.306,162.267,171.499,159.171,171.499,154.492z M180.187,154.093c0,10.03-6.369,14.772-12.517,14.772    c-3.326,0-5.917-1.354-7.155-3.158h-0.116v13.692h-8.561v-29.472c0-3.609-0.116-6.705-0.231-9.243h7.438l0.399,3.83h0.115    c2.024-2.927,5.183-4.449,9.18-4.449C174.772,140.065,180.187,145.312,180.187,154.093z" style="fill:#FFFFFF;"/></g></g><g id="Layer_1"/></svg>