<?xml version="1.0" ?><!DOCTYPE svg  PUBLIC '-//W3C//DTD SVG 1.1//EN'  'http://www.w3.org/Graphics/SVG/1.1/DTD/svg11.dtd'><svg height="512px" style="enable-background:new 0 0 512 512;" version="1.1" viewBox="0 0 512 512" width="512px" xml:space="preserve" xmlns="http://www.w3.org/2000/svg" xmlns:xlink="http://www.w3.org/1999/xlink"><g id="comp_x5F_260-pinterest"><g><g><g><path d="M262.236,26.001c-125.732,0-192.6,80.791-192.6,168.885c0,40.855,22.768,91.799,59.212,107.963      c5.534,2.497,8.544,1.435,9.774-3.713c1.09-3.906,5.88-22.737,8.206-31.625c0.713-2.849,0.341-5.32-1.951-7.996      c-12.104-14.029-21.707-39.592-21.707-63.569c0-61.438,48.715-121.095,131.611-121.095c71.686,0,121.837,46.693,121.837,113.479      c0,75.473-39.83,127.685-91.583,127.685c-28.644,0-49.982-22.541-43.212-50.429c8.17-33.209,24.198-68.919,24.198-92.866      c0-21.482-12.098-39.245-36.816-39.245c-29.158,0-52.816,28.951-52.816,67.823c0,24.698,8.719,41.374,8.719,41.374      S156.264,359.515,150.9,381.336c-9.063,36.944,1.232,96.779,2.122,101.925c0.545,2.848,3.727,3.735,5.502,1.41      c2.841-3.737,37.707-53.626,47.485-89.674c3.555-13.143,18.152-66.419,18.152-66.419c9.605,17.397,37.333,31.976,66.868,31.976      c87.854,0,151.334-77.426,151.334-173.516C442.05,94.92,363.424,26.001,262.236,26.001" style="fill:#FFFFFF;"/><path d="M156.033,496c-6.231,0-11.628-4.566-12.833-10.858l-0.033-0.177      c-1.932-11.175-11.108-68.804-1.98-106.012c4.792-19.494,28.607-115.976,33.38-135.31c-2.82-6.716-8.179-22.135-8.179-42.345      c0-43.639,27.592-77.823,62.816-77.823c28.002,0,46.816,19.79,46.816,49.245c0,16.766-6.671,37.378-13.733,59.2      c-3.86,11.926-7.851,24.257-10.754,36.055c-2.267,9.338-0.486,18.354,5.02,25.356c6.337,8.061,16.719,12.684,28.482,12.684      c47.272,0,81.583-49.494,81.583-117.685c0-60.927-45.989-103.479-111.837-103.479c-78.989,0-121.611,57.239-121.611,111.095      c0,20.426,7.928,43.88,19.278,57.037c4.283,4.999,5.647,10.695,4.081,16.956l-0.026,0.104c-0.936,3.573-2.27,8.758-3.601,13.929      c-1.997,7.759-3.886,15.098-4.601,17.687c-2.866,11.578-11.912,12.482-14.628,12.482c-2.767,0-5.69-0.712-8.937-2.177      c-24.251-10.756-39.52-32.723-48.047-49.253c-10.837-21.006-17.052-45.727-17.052-67.825c0-48.001,18.544-92.282,52.216-124.683      c36.85-35.459,88.851-54.202,150.383-54.202c51.563,0,99.342,17.224,134.534,48.5c35.688,31.717,55.432,75.223,55.593,122.503      c0,49.418-16.025,95.336-45.125,129.329c-29.932,34.965-71.202,54.221-116.209,54.221c-23.38,0-46.688-8.371-62.162-21.301      c-4.585,16.749-11.021,40.279-13.206,48.355c-10.715,39.501-48.805,92.625-49.177,93.114      C163.92,494.082,160.115,496,156.033,496z M229.206,143.475c-24.009,0-42.816,25.399-42.816,57.823      c0,21.637,7.505,36.596,7.581,36.741l1.754,3.354l-0.907,3.675c-0.289,1.168-28.904,117.088-34.206,138.654      c-5.866,23.913-2.923,59.325-0.267,80.515c11.611-17.963,29.69-48.546,36.013-71.858c3.517-13.001,18.013-65.91,18.159-66.443      l6.504-23.736l11.895,21.546c7.275,13.178,31.002,26.809,58.114,26.809c80.573,0,141.334-70.297,141.334-163.516      c-0.293-86.091-73.432-151.037-170.127-151.037c-125.458,0-182.6,82.361-182.6,158.885c0,35.118,19.203,81.458,50.442,97.472      c0.915-3.501,2.199-8.49,3.455-13.371c1.256-4.879,2.515-9.771,3.443-13.324c-14.243-16.748-23.806-44.699-23.806-69.717      c0-33.632,13.719-66.672,37.64-90.649c26.397-26.459,62.35-40.445,103.971-40.445c37.21,0,70.813,12.208,94.616,34.377      c24.002,22.354,37.221,53.998,37.221,89.103c0,38.233-10.054,73.053-28.31,98.043c-18.673,25.563-44.695,39.642-73.273,39.642      c-17.938,0-34.049-7.407-44.204-20.321c-9.379-11.929-12.479-27.01-8.727-42.467c3.082-12.525,7.185-25.204,11.154-37.466      c6.563-20.278,12.762-39.431,12.762-53.041C256.021,163.927,253.409,143.475,229.206,143.475z" style="fill:#BD081C;"/></g></g></g></g><g id="Layer_1"/></svg>