<?xml version="1.0" ?><!DOCTYPE svg  PUBLIC '-//W3C//DTD SVG 1.1//EN'  'http://www.w3.org/Graphics/SVG/1.1/DTD/svg11.dtd'><svg height="512px" style="enable-background:new 0 0 512 512;" version="1.1" viewBox="0 0 512 512" width="512px" xml:space="preserve" xmlns="http://www.w3.org/2000/svg" xmlns:xlink="http://www.w3.org/1999/xlink"><g id="comp_x5F_265-powerpoint"><g><g><g><g><path d="M461.651,104.789H283.417V63.551c-0.001-4.099-1.805-7.977-4.958-10.59       c-3.131-2.611-7.325-3.74-11.272-2.912L47.826,91.287c-6.499,1.216-11.188,6.878-11.188,13.502v302.44       c0,6.599,4.689,12.286,11.188,13.502l219.36,41.24c0.822,0.162,1.673,0.247,2.523,0.247c3.181,0,6.278-1.099,8.748-3.165       c3.155-2.607,4.959-6.513,4.959-10.585v-41.239h178.234c7.571,0,13.711-6.157,13.711-13.75V118.536       C475.363,110.947,469.223,104.789,461.651,104.789z M283.417,187.27c12.505-16.693,32.413-27.491,54.844-27.491v68.733h68.552       c0,37.976-30.686,68.738-68.552,68.738c-22.431,0-42.339-10.797-54.844-27.491V187.27z M406.813,352.242H283.417v-27.496       h123.396c7.565,0,13.708,6.159,13.708,13.75C420.521,346.085,414.378,352.242,406.813,352.242z M365.68,201.021v-68.738       c37.87,0,68.55,30.766,68.551,68.738H365.68z" style="fill:#FFFFFF;"/><path d="M269.71,472.219c-1.491,0-2.991-0.146-4.458-0.436L45.979,430.56       c-11.203-2.096-19.341-11.908-19.341-23.33v-302.44c0-11.422,8.138-21.234,19.35-23.332l219.261-41.22       c1.484-0.303,3.009-0.457,4.533-0.457c5.474,0,10.83,1.954,15.083,5.5c5.425,4.496,8.551,11.161,8.553,18.267v31.24h168.234       c6.338,0,12.296,2.474,16.775,6.966c4.474,4.485,6.937,10.445,6.936,16.783v274.942c0,13.096-10.637,23.75-23.711,23.75       H293.417v31.239c0,7.115-3.131,13.783-8.589,18.294C280.64,470.267,275.254,472.219,269.71,472.219z M269.781,59.781       c-0.188,0-0.369,0.019-0.542,0.055c-0.068,0.014-0.137,0.028-0.205,0.041l-219.36,41.238c-1.763,0.33-3.036,1.875-3.036,3.674       v302.44c0,1.8,1.273,3.345,3.027,3.673l219.369,41.241c0.28,0.055,0.483,0.075,0.676,0.075c0.86,0,1.688-0.296,2.331-0.834       c0.879-0.728,1.376-1.803,1.376-2.916v-41.239c0-5.522,4.478-10,10-10h178.234c2.046,0,3.711-1.683,3.711-3.75V118.536       c0-1.356-0.687-2.248-1.097-2.658c-0.405-0.407-1.284-1.089-2.614-1.089H283.417c-5.522,0-10-4.477-10-10V63.551       c0-1.131-0.488-2.186-1.339-2.891C271.399,60.094,270.571,59.781,269.781,59.781z M406.813,362.242H283.417       c-5.522,0-10-4.478-10-10v-27.496c0-5.522,4.478-10,10-10h123.396c13.072,0,23.708,10.654,23.708,23.75       C430.521,351.59,419.885,362.242,406.813,362.242z M293.417,342.242h113.396c2.045,0,3.708-1.681,3.708-3.746       c0-2.067-1.663-3.75-3.708-3.75H293.417V342.242z M338.261,307.25c-24.947,0-47.854-11.479-62.848-31.496       c-1.296-1.73-1.996-3.834-1.996-5.995V187.27c0-2.162,0.7-4.265,1.996-5.995c14.994-20.016,37.901-31.496,62.848-31.496       c5.522,0,10,4.477,10,10v58.733h58.552c5.522,0,10,4.477,10,10C416.813,271.928,381.574,307.25,338.261,307.25z        M293.417,266.287c11.162,13.362,27.331,20.963,44.844,20.963c28.889,0,52.957-21.097,57.703-48.738h-57.703       c-5.522,0-10-4.477-10-10v-57.891c-13.589,2.319-25.844,9.347-34.844,20.121V266.287z M434.23,211.021H365.68       c-5.522,0-10-4.477-10-10v-68.738c0-5.523,4.478-10,10-10c43.312,0,78.55,35.321,78.551,78.737       c0,2.652-1.054,5.196-2.929,7.071C439.426,209.967,436.883,211.021,434.23,211.021z M375.68,191.021h47.701       c-4.186-24.38-23.404-43.668-47.701-47.88V191.021z" style="fill:#D04424;"/></g></g><path d="M173.741,297.25h-27.422v41.246c0,7.589-6.146,13.746-13.708,13.746     c-7.567,0-13.713-6.157-13.713-13.746V201.019c0-7.588,6.146-13.746,13.713-13.746h41.13c30.242,0,54.838,24.663,54.838,54.99     C228.579,272.588,203.983,297.25,173.741,297.25z" style="fill:#D04424;"/><path d="M173.741,224.796h-17.422v34.934h17.422c9.599,0,17.421-7.845,17.421-17.468     C191.162,232.637,183.34,224.796,173.741,224.796z" style="fill:#FFFFFF;"/></g></g></g><g id="Layer_1"/></svg>