<?xml version="1.0" ?><!DOCTYPE svg  PUBLIC '-//W3C//DTD SVG 1.1//EN'  'http://www.w3.org/Graphics/SVG/1.1/DTD/svg11.dtd'><svg height="512px" style="enable-background:new 0 0 512 512;" version="1.1" viewBox="0 0 512 512" width="512px" xml:space="preserve" xmlns="http://www.w3.org/2000/svg" xmlns:xlink="http://www.w3.org/1999/xlink"><g id="comp_x5F_268-quicktime"><g><g><g><path d="M373.91,185.883l-93.781,92.666c-6.85,6.321-15.354,9.624-24.126,9.624      c-8.777,0-17.829-3.303-24.408-10.175c-13.44-13.478-13.167-35.198,0.276-48.671l93.23-91.84      C345.122,149.04,362.121,165.814,373.91,185.883L373.91,185.883z" style="fill:#FFFFFF;"/><path d="M256.003,298.173c-12,0-23.496-4.804-31.56-13.185c-17.121-17.247-16.973-45.364,0.35-62.725      l93.292-91.9c3.204-3.156,8.121-3.784,12.016-1.538c21.665,12.502,39.796,30.48,52.433,51.992      c2.318,3.946,1.662,8.961-1.594,12.178l-93.781,92.666c-0.08,0.08-0.163,0.158-0.246,0.235      C278.334,293.813,267.356,298.173,256.003,298.173z M326.527,150.12l-87.639,86.331c-9.516,9.537-9.639,25.034-0.213,34.485      c0.048,0.049,0.095,0.097,0.142,0.146c4.314,4.506,10.578,7.09,17.185,7.09c6.354,0,12.308-2.373,17.228-6.866l87.938-86.893      C352.013,170.846,340.215,159.167,326.527,150.12z" style="fill:#1879BF;"/></g><g><path d="M475.377,256c0-121.532-98.173-219.972-219.374-219.972c-121.207,0-219.38,98.439-219.38,219.972      c0,121.533,98.173,219.972,219.38,219.972c45.787,0,88.021-14.029,123.396-37.948l37.843,37.948h58.133v-58.295l-37.843-37.942      C461.389,344.258,475.377,301.917,475.377,256L475.377,256z M407.753,150.058c-1.454,2.391-33.843,35.825-33.843,35.825      c12.069,20.346,19.201,44.544,19.201,70.117c0,75.892-61.425,137.484-137.108,137.484c-75.687,0-137.113-61.593-137.113-137.484      s61.428-137.482,137.113-137.482c25.224,0,48.808,6.872,69.099,18.971c0,0,34.25-32.361,36.47-33.731      C379.563,116.345,395.217,132.021,407.753,150.058L407.753,150.058z" style="fill:#FFFFFF;"/><path d="M475.375,485.972h-58.133c-2.657,0-5.205-1.058-7.081-2.938l-32.112-32.202      c-36.766,23.016-78.785,35.141-122.046,35.141c-61.297,0-118.909-23.919-162.223-67.35      C50.473,375.198,26.623,317.445,26.623,256c0-61.445,23.85-119.198,67.157-162.622c43.314-43.431,100.926-67.35,162.223-67.35      c61.295,0,118.905,23.918,162.218,67.35c43.307,43.424,67.156,101.178,67.156,162.622c0,43.383-12.099,85.521-35.063,122.39      l32.141,32.226c1.87,1.874,2.92,4.414,2.92,7.062v58.295C485.375,481.494,480.897,485.972,475.375,485.972z M421.393,465.972      h43.982v-44.16l-34.923-35.016c-3.374-3.382-3.884-8.678-1.218-12.642c23.645-35.162,36.143-76.02,36.143-118.154      c0-115.779-93.925-209.972-209.374-209.972c-115.453,0-209.38,94.193-209.38,209.972c0,115.778,93.927,209.972,209.38,209.972      c42.005,0,82.738-12.529,117.795-36.232c3.976-2.686,9.296-2.173,12.683,1.223L421.393,465.972z M256.003,403.484      c-81.119,0-147.113-66.161-147.113-147.484c0-81.322,65.995-147.482,147.113-147.482c23.635,0,46.841,5.739,67.577,16.656      c29.867-28.154,31.789-29.34,32.738-29.926c3.398-2.097,7.717-1.972,10.985,0.316c19.056,13.332,35.427,29.747,48.661,48.787      c2.258,3.249,2.388,7.523,0.332,10.904c-0.625,1.027-1.887,3.102-30.036,32.244c11.045,21.064,16.851,44.587,16.851,68.502      C403.111,337.323,337.119,403.484,256.003,403.484z M256.003,128.518c-70.09,0-127.113,57.188-127.113,127.482      c0,70.295,57.023,127.484,127.113,127.484c70.088,0,127.108-57.189,127.108-127.484c0-22.901-6.155-45.383-17.802-65.015      c-2.302-3.88-1.721-8.82,1.418-12.06c10.528-10.868,21.903-22.75,28.199-29.496c-9.431-12.363-20.418-23.375-32.788-32.862      c-7.358,6.737-20.519,19.071-30.169,28.19c-3.251,3.071-8.146,3.614-11.989,1.32      C300.714,134.59,278.591,128.518,256.003,128.518z" style="fill:#1879BF;"/></g></g></g></g><g id="Layer_1"/></svg>