<?xml version="1.0" ?><!DOCTYPE svg  PUBLIC '-//W3C//DTD SVG 1.1//EN'  'http://www.w3.org/Graphics/SVG/1.1/DTD/svg11.dtd'><svg height="512px" style="enable-background:new 0 0 512 512;" version="1.1" viewBox="0 0 512 512" width="512px" xml:space="preserve" xmlns="http://www.w3.org/2000/svg" xmlns:xlink="http://www.w3.org/1999/xlink"><g id="comp_x5F_285-r-project"><g><g><g><path d="M485.999,232.723c0-85.111-103.005-154.072-229.998-154.072c-126.994,0-230,68.961-230,154.072      c0,75.849,81.787,138.871,189.542,151.617v49.01h78.461v-48.693c19.238-2.138,37.687-5.858,54.945-11.006l31.749,59.699h88.675      l-53.362-90.022C459.159,315.301,485.999,276.109,485.999,232.723L485.999,232.723z" style="fill:#2167BA;"/><path d="M469.373,443.35h-88.675c-3.697,0-7.093-2.04-8.829-5.305l-27.96-52.574      c-12.844,3.449-26.206,6.135-39.905,8.019v39.86c0,5.522-4.478,10-10,10h-78.461c-5.523,0-10-4.478-10-10v-40.238      C95.177,377.165,16.001,310.673,16.001,232.723c0-44.602,25.503-86.246,71.813-117.262      c45.07-30.186,104.801-46.811,168.188-46.811s123.116,16.625,168.187,46.811c46.309,31.016,71.812,72.66,71.812,117.262      c0,23.163-6.869,45.534-20.415,66.491c-11.314,17.503-26.823,33.313-46.18,47.097l48.571,81.939      c1.832,3.092,1.865,6.928,0.086,10.05C476.283,441.422,472.966,443.35,469.373,443.35z M386.706,423.35h65.114l-44.412-74.923      c-2.734-4.614-1.343-10.564,3.155-13.486c42.196-27.407,65.436-63.71,65.436-102.218c0-37.717-22.353-73.459-62.941-100.644      c-41.813-28.005-97.59-43.428-157.057-43.428s-115.245,15.423-157.058,43.428c-40.588,27.185-62.942,62.927-62.942,100.644      c0,33.292,17.958,65.834,50.567,91.629c33.224,26.282,79.445,44.06,130.15,50.058c5.033,0.596,8.825,4.862,8.825,9.931v39.01      h58.461v-38.693c0-5.096,3.831-9.376,8.896-9.938c18.49-2.055,36.386-5.638,53.191-10.65c4.564-1.36,9.452,0.685,11.688,4.888      L386.706,423.35z" style="fill:#194D8C;"/></g><g><path d="M116.418,244.203c0-58.192,78.302-105.301,174.813-105.301      c96.513,0,158.769,32.224,158.769,105.301c0,30.952-43.159,76.012-60,84.24c-1.902-1.267-40-11.243-40-11.243s70,1.127,70-67.2      c0-68.327-60-70-60-70H215.543v159.132C156.875,322.11,116.418,286.007,116.418,244.203L116.418,244.203z" style="fill:#FFFFFF;"/><path d="M215.542,349.132c-0.932,0-1.87-0.13-2.786-0.396c-30.767-8.927-56.917-22.926-75.621-40.483      c-20.096-18.865-30.718-41.013-30.718-64.049c0-31.783,19.908-61.273,56.057-83.04c34.55-20.804,80.277-32.262,128.757-32.262      c51.663,0,92.326,9.002,120.859,26.756c31.79,19.78,47.909,49.571,47.909,88.545c0,20.213-14.067,42.087-25.868,56.878      c-13.239,16.595-29.21,31.201-39.742,36.347c-2.794,1.366-6.041,1.343-8.788-0.004c-3.381-1.238-21.82-6.277-38.135-10.55      c-4.895-1.282-8.061-6.018-7.374-11.03c0.686-5.013,4.962-8.742,10.068-8.643c6.168,0,59.839-1.604,59.839-57.201      c0-24.254-8.243-41.634-24.501-51.657c-11.998-7.396-24.443-8.272-25.719-8.343H225.543v149.132      c0,3.146-1.479,6.107-3.994,7.996C219.796,348.443,217.684,349.132,215.542,349.132z M291.231,148.902      c-44.896,0-86.959,10.439-118.44,29.396c-29.904,18.006-46.373,41.412-46.373,65.906c0,32.834,30.63,63.85,79.125,81.193V180      c0-5.523,4.477-10,10-10H360c0.093,0,0.186,0.001,0.278,0.004c0.72,0.02,17.805,0.608,34.85,10.789      C411.036,190.294,430,210.014,430,250c0,11.565-1.812,21.366-4.819,29.669C433.704,267.373,440,254.441,440,244.203      c0-32.046-12.585-55.455-38.475-71.564C376.211,156.888,339.103,148.902,291.231,148.902z" style="fill:#194D8C;"/></g><g><path d="M294.637,274.526v-44.021c45.762,0,69.516-5.383,69.516,21.614      C364.152,281.019,333.905,274.526,294.637,274.526L294.637,274.526z" style="fill:#FFFFFF;"/><path d="M327.925,285.15c-4.779,0-9.811-0.142-15.137-0.291c-5.838-0.163-11.875-0.333-18.151-0.333      c-5.522,0-10-4.478-10-10v-44.021c0-5.523,4.478-10,10-10c6.954,0,13.273-0.124,19.386-0.244c5.1-0.1,9.917-0.194,14.348-0.194      c17.123,0,45.782,0,45.782,32.052C374.152,285.15,342.93,285.15,327.925,285.15z M304.637,264.643      c2.963,0.063,5.861,0.145,8.713,0.225c5.182,0.146,10.076,0.283,14.575,0.283c25.01,0,26.228-4.708,26.228-13.03      c0-8.275,0-12.052-25.782-12.052c-4.234,0-8.957,0.092-13.956,0.19c-3.063,0.06-6.339,0.124-9.777,0.172V264.643z" style="fill:#194D8C;"/></g><g><path d="M293.924,331.928h21.06c8.552,0,14.965,9.262,19.002,15.199      c-12.747,1.507-26.127,2.218-40.062,2.299V331.928z" style="fill:#FFFFFF;"/><path d="M293.924,359.426c-2.642,0-5.176-1.045-7.051-2.908c-1.888-1.877-2.949-4.43-2.949-7.092v-17.498      c0-5.522,4.478-10,10-10h21.06c13.961,0,22.62,12.735,27.271,19.576c1.965,2.89,2.278,6.595,0.828,9.773s-4.454,5.37-7.924,5.78      c-12.742,1.507-26.211,2.281-41.177,2.368C293.963,359.426,293.943,359.426,293.924,359.426z" style="fill:#194D8C;"/></g></g></g></g><g id="Layer_1"/></svg>