<?xml version="1.0" ?><!DOCTYPE svg  PUBLIC '-//W3C//DTD SVG 1.1//EN'  'http://www.w3.org/Graphics/SVG/1.1/DTD/svg11.dtd'><svg height="512px" style="enable-background:new 0 0 512 512;" version="1.1" viewBox="0 0 512 512" width="512px" xml:space="preserve" xmlns="http://www.w3.org/2000/svg" xmlns:xlink="http://www.w3.org/1999/xlink"><g id="comp_x5F_310-snapchat"><g><g><g><path d="M484.962,378.791c-4.681,10.922-24.471,18.947-60.519,24.544      c-1.854,2.503-3.391,13.192-5.845,21.521c-1.46,5.001-5.052,7.968-10.897,7.968l-0.267-0.002c-8.44,0-17.253-3.885-34.904-3.885      c-23.829,0-32.041,5.43-50.541,18.495c-19.615,13.87-38.426,25.843-66.508,24.617c-28.432,2.097-52.132-15.19-65.47-24.621      c-18.61-13.157-26.799-18.49-50.528-18.49c-16.948,0-27.615,4.239-34.906,4.239c-7.253,0-10.074-4.422-11.16-8.121      c-2.429-8.254-3.957-19.104-5.86-21.68c-18.579-2.882-60.474-10.192-61.541-28.885c-0.268-4.864,3.169-9.147,7.976-9.944      c62.517-10.292,90.674-74.481,91.845-77.206c0.066-0.158,0.139-0.309,0.212-0.463c3.337-6.77,4.082-12.442,2.213-16.849      c-4.537-10.688-24.143-14.521-32.39-17.785c-21.307-8.415-24.273-18.084-23.013-24.71c2.189-11.532,19.519-18.629,29.651-13.884      c8.013,3.755,15.132,5.658,21.155,5.658c4.512,0,7.378-1.083,8.947-1.951c-1.835-32.286-6.379-78.423,5.11-104.189      c30.342-68.027,94.655-73.314,113.631-73.314c0.848,0,8.211-0.079,9.082-0.079c46.851,0,91.869,24.059,113.852,73.35      c11.479,25.739,6.963,71.687,5.117,104.225c1.421,0.784,3.914,1.745,7.727,1.923c5.745-0.257,12.409-2.147,19.826-5.622      c5.469-2.557,12.942-2.211,18.399,0.052l0.027,0.009c8.514,3.042,13.869,9.177,14.005,16.055      c0.165,8.758-7.657,16.32-23.25,22.477c-1.902,0.751-4.218,1.488-6.678,2.27c-8.803,2.79-22.103,7.011-25.711,15.517      c-1.867,4.406-1.128,10.072,2.211,16.843c0.077,0.153,0.149,0.309,0.214,0.463c1.169,2.724,29.303,66.898,91.848,77.206      C483.797,365.493,488.052,371.62,484.962,378.791L484.962,378.791z" style="fill:#FFFD01;"/><path d="M250.725,482.225c-28.867,0.001-51.846-16.267-65.576-25.986l-0.911-0.645c-17.144-12.12-23.558-16.655-44.755-16.655      c-9.271,0-16.641,1.435-22.563,2.587c-4.557,0.887-8.492,1.652-12.344,1.652c-10.183,0-17.942-5.722-20.755-15.305      c-1.064-3.618-1.949-7.593-2.73-11.101c-0.309-1.389-0.671-3.014-1.022-4.478C49.763,407.169,17.342,398,16.032,375.063      c-0.55-9.994,6.469-18.746,16.324-20.38c57.087-9.398,83.208-68.767,84.292-71.289c0.089-0.213,0.217-0.49,0.35-0.771      c0.021-0.043,0.059-0.123,0.08-0.165c2.216-4.495,2.474-7.35,1.977-8.522c-1.801-4.244-13.998-8.133-19.858-10.002      c-2.56-0.816-4.977-1.587-7.004-2.39c-29.12-11.5-30.768-27.415-29.157-35.877c2.793-14.713,18.551-23.507,32.171-23.507      c4.209,0,8.093,0.82,11.545,2.436c5.841,2.738,11.105,4.329,15.352,4.652c-0.05-0.807-0.102-1.62-0.153-2.438      c-2.041-32.323-4.58-72.551,6.64-97.713c32.795-73.528,102.256-79.242,122.764-79.242c0.412,0,2.396-0.02,4.395-0.039      c2.112-0.02,4.24-0.04,4.688-0.04c54.87,0,100.846,29.636,122.984,79.277c11.214,25.144,8.683,65.377,6.648,97.706      c-0.046,0.723-0.091,1.442-0.136,2.156c3.738-0.654,8.088-2.119,12.782-4.318c3.821-1.786,8.33-2.729,13.048-2.729      c4.581,0,9.125,0.86,13.159,2.491c12.411,4.497,20.246,14.143,20.465,25.212c0.252,13.372-9.698,24.127-29.575,31.975      c-2.234,0.883-4.82,1.704-7.322,2.499c-5.308,1.683-17.72,5.616-19.533,9.892c-0.496,1.172-0.24,4.026,1.974,8.515      c0.147,0.292,0.318,0.662,0.472,1.029c1.045,2.435,27.126,61.782,84.247,71.195c5.972,0.983,11.057,4.584,13.951,9.879      c2.98,5.451,3.18,12.083,0.546,18.194c-5.996,13.992-25.275,23.178-62.206,29.497c-0.34,1.414-0.69,2.974-0.991,4.311      c-0.787,3.501-1.68,7.469-2.757,11.127c-2.766,9.473-10.428,15.142-20.49,15.142l-0.339-0.002c-4.295,0-8.456-0.77-12.862-1.583      c-5.836-1.079-12.451-2.302-21.97-2.302c-21.178,0-27.603,4.537-44.772,16.663c-20.528,14.517-39.844,26.535-68.345,26.536      c-1.247,0-2.519-0.024-3.788-0.073C254.002,482.17,252.356,482.225,250.725,482.225z M139.483,418.938      c26.438,0,36.366,6.231,56.301,20.325l0.92,0.651c11.787,8.345,31.515,22.311,54.019,22.31c1.342,0,2.695-0.05,4.022-0.147      c0.39-0.029,0.781-0.036,1.171-0.018c1.171,0.051,2.347,0.077,3.495,0.077c22.662-0.001,38.48-9.912,56.804-22.869      c19.963-14.099,29.899-20.33,56.314-20.33c11.352,0,19.255,1.461,25.605,2.635c3.779,0.698,6.765,1.25,9.299,1.25l0.339,0.002      c0.51,0,0.818-0.063,0.967-0.104c0.061-0.108,0.157-0.316,0.259-0.666c0.9-3.055,1.681-6.527,2.437-9.885      c1.712-7.616,2.711-11.732,4.972-14.785c1.565-2.114,3.901-3.526,6.502-3.931c44.621-6.928,51.742-15.989,52.861-18.602      c0.091-0.21,0.146-0.383,0.181-0.517c-67.406-11.389-97.632-79.952-98.961-83.044c-4.683-9.531-5.494-17.973-2.447-25.162      c5.409-12.753,21.349-17.805,31.896-21.148c2.274-0.723,4.43-1.407,6.027-2.038c10.512-4.15,16.996-9.127,16.924-12.987      c-0.05-2.512-2.988-5.247-7.318-6.807c-0.186-0.065-0.373-0.136-0.547-0.208c-1.646-0.683-3.746-1.074-5.763-1.074      c-1.784,0-3.407,0.299-4.57,0.843c-8.604,4.031-16.552,6.237-23.614,6.553c-0.302,0.014-0.608,0.014-0.914-0.001      c-5.754-0.269-9.751-1.865-12.092-3.157c-3.366-1.858-5.37-5.482-5.152-9.322c0.205-3.611,0.442-7.387,0.688-11.282      c1.896-30.141,4.257-67.652-4.953-88.303c-18.828-42.218-57.976-67.423-104.719-67.423c-0.43,0-2.47,0.02-4.496,0.039      c-2.085,0.02-4.156,0.04-4.586,0.04c-17.463,0-76.609,4.859-104.498,67.388c-9.216,20.667-6.849,58.172-4.946,88.308      c0.246,3.886,0.483,7.649,0.687,11.241c0.218,3.835-1.78,7.457-5.142,9.317c-2.639,1.46-7.174,3.202-13.79,3.202      c-7.505,0-16.051-2.222-25.399-6.603c-0.752-0.352-1.84-0.547-3.06-0.547c-5.899,0-11.917,4.049-12.523,7.241      c-0.741,3.892,5.878,9.206,16.861,13.544c1.4,0.554,3.502,1.224,5.728,1.934c11.312,3.607,26.804,8.547,32.193,21.244      c3.05,7.19,2.238,15.637-2.414,25.106l-0.035,0.074c-1.765,4.069-32.07,71.74-98.937,83.034      c0.621,2.101,6.032,11.87,53.009,19.157c2.604,0.404,4.944,1.819,6.51,3.939c2.293,3.104,3.296,7.275,5.014,14.993      c0.747,3.355,1.52,6.826,2.396,9.806c0.129,0.439,0.265,0.694,0.335,0.799c0.153,0.055,0.55,0.146,1.231,0.146      c1.924,0,4.982-0.595,8.523-1.284C119.508,420.646,128.284,418.938,139.483,418.938z"/></g></g></g></g><g id="Layer_1"/></svg>