<?xml version="1.0" ?><!DOCTYPE svg  PUBLIC '-//W3C//DTD SVG 1.1//EN'  'http://www.w3.org/Graphics/SVG/1.1/DTD/svg11.dtd'><svg height="512px" style="enable-background:new 0 0 512 512;" version="1.1" viewBox="0 0 512 512" width="512px" xml:space="preserve" xmlns="http://www.w3.org/2000/svg" xmlns:xlink="http://www.w3.org/1999/xlink"><g id="comp_x5F_315-spotify"><g><g><g><path d="M256,26.001c-126.965,0-230,103.035-230,229.999c0,126.963,103.035,229.999,230,229.999      c126.962,0,229.999-103.036,229.999-229.999C485.999,129.036,382.963,26.001,256,26.001z" style="fill:#1AB26B;"/><g><path d="M256,495.999c-132.336,0-240-107.663-240-239.999S123.665,16.001,256,16.001       c132.335,0,239.999,107.663,239.999,239.999S388.336,495.999,256,495.999z M256,36.001c-121.308,0-220,98.691-220,219.999       s98.691,219.999,220,219.999c121.307,0,219.999-98.691,219.999-219.999S377.308,36.001,256,36.001z" style="fill:#148650;"/></g></g><g><path d="M349.391,364.416c-3.896,0-6.306-1.206-9.924-3.34c-57.87-34.869-125.2-36.355-191.697-22.723      c-3.617,0.928-8.347,2.413-11.036,2.413c-8.996,0-14.653-7.143-14.653-14.655c0-9.551,5.658-14.095,12.614-15.579      c75.954-16.786,153.579-15.304,219.797,24.298c5.657,3.618,8.996,6.864,8.996,15.302      C363.487,358.572,356.902,364.416,349.391,364.416L349.391,364.416z" style="fill:#FFFFFF;"/><g><path d="M349.391,374.416c-6.464,0-10.619-2.141-15.004-4.727       c-32.332-19.48-70.403-29.334-113.235-29.334c-22.062,0-45.99,2.605-71.127,7.744c-0.668,0.173-1.372,0.365-2.091,0.561       c-3.813,1.035-7.754,2.106-11.199,2.106c-13.824,0-24.653-10.83-24.653-24.655c0-13.136,7.673-22.616,20.527-25.358       c31.061-6.865,60.973-10.354,88.837-10.354c51.914,0,98.404,12.061,138.18,35.849c0.086,0.051,0.171,0.104,0.255,0.157       c7.068,4.521,13.608,10.523,13.608,23.727C373.487,363.749,362.902,374.416,349.391,374.416z M221.151,320.355       c46.521,0,88.065,10.818,123.477,32.155c3.08,1.816,3.6,1.905,4.763,1.905c1.973,0,4.097-1.341,4.097-4.284       c0-3.729-0.321-4.272-4.259-6.798c-36.602-21.855-79.592-32.935-127.784-32.935c-26.415,0-54.875,3.33-84.592,9.897       c-4.068,0.868-4.771,2.564-4.771,5.814c0,1.61,0.973,4.655,4.653,4.655c0.983-0.057,4.096-0.901,5.956-1.407       c0.897-0.244,1.774-0.481,2.596-0.692c0.158-0.04,0.316-0.077,0.476-0.109C172.307,323.115,197.672,320.355,221.151,320.355z" style="fill:#148650;"/></g></g><g><path d="M374.339,303.576c-4.824,0-8.067-2.133-11.408-3.895      c-57.964-34.314-144.399-48.133-221.281-27.265c-4.452,1.204-6.863,2.408-11.036,2.408c-9.923,0-17.992-8.067-17.992-17.989      c0-9.925,4.822-16.508,14.375-19.198c25.783-7.234,52.121-12.612,90.703-12.612c60.187,0,118.337,14.931,164.151,42.195      c7.512,4.452,10.48,10.201,10.48,18.271C392.237,295.509,384.446,303.576,374.339,303.576z" style="fill:#FFFFFF;"/><g><path d="M374.339,313.576c-6.766,0-11.488-2.565-14.938-4.438c-0.379-0.205-0.757-0.411-1.135-0.61       c-0.146-0.077-0.289-0.157-0.431-0.24c-38.338-22.696-89.442-35.713-140.211-35.713c-25.466,0-50.147,3.194-73.356,9.493       c-1.063,0.288-1.99,0.575-2.853,0.84c-3.063,0.943-6.23,1.918-10.803,1.918c-15.435,0-27.992-12.556-27.992-27.989       c0-14.44,7.896-24.946,21.664-28.824c24.043-6.747,51.993-12.987,93.414-12.987c61.906,0,122.019,15.485,169.265,43.602       c10.335,6.126,15.366,14.916,15.366,26.864C402.185,301.28,389.89,313.576,374.339,313.576z M367.819,290.955       c0.376,0.199,0.751,0.403,1.127,0.607c2.504,1.36,3.779,2.014,5.393,2.014c4.513,0,7.948-3.516,7.991-8.178       c0-4.723-1.355-7.072-5.579-9.575c-44.213-26.312-100.693-40.798-159.052-40.798c-36.831,0-61.817,4.893-88.001,12.241       c-5.156,1.452-7.076,4.046-7.076,9.57c0,4.405,3.585,7.989,7.992,7.989c1.489,0,2.427-0.266,4.92-1.032       c1.063-0.327,2.206-0.678,3.505-1.029c24.908-6.761,51.351-10.19,78.586-10.19C271.784,252.574,326.51,266.561,367.819,290.955       z" style="fill:#148650;"/></g></g><g><path d="M403.087,232.907c-4.822,0-7.789-1.205-11.962-3.616      c-66.032-39.415-184.093-48.875-260.512-27.544c-3.338,0.927-7.512,2.41-11.965,2.41c-12.241,0-21.608-9.553-21.608-21.887      c0-12.612,7.792-19.754,16.138-22.165c32.645-9.553,69.184-14.097,108.971-14.097c67.703,0,138.648,14.097,190.492,44.331      c7.234,4.173,11.963,9.922,11.963,20.96C424.604,223.912,414.403,232.907,403.087,232.907L403.087,232.907z" style="fill:#FFFFFF;"/><g><path d="M403.087,242.907c-6.982,0-11.668-1.897-16.965-4.958c-0.041-0.024-0.082-0.048-0.122-0.072       c-39.075-23.324-100.539-37.249-164.417-37.249c-32.56,0-63.087,3.717-88.282,10.75c-0.524,0.146-1.056,0.302-1.606,0.463       c-3.333,0.977-7.898,2.315-13.047,2.315c-17.724,0-31.608-14.006-31.608-31.887c0-18.45,12.068-28.509,23.362-31.772       c32.844-9.611,70.453-14.49,111.746-14.49c74.469,0,145.737,16.654,195.53,45.693c11.375,6.561,16.925,16.25,16.925,29.598       C434.604,228.728,420.465,242.907,403.087,242.907z M396.185,220.665c3.195,1.843,4.432,2.242,6.902,2.242       c5.661,0,11.517-4.342,11.517-11.607c0-7.002-2.344-9.635-6.959-12.297c-46.867-27.332-114.462-42.994-185.496-42.994       c-39.392,0-75.11,4.607-106.162,13.694c-3.362,0.971-8.946,3.881-8.946,12.567c0,6.888,4.882,11.887,11.608,11.887       c2.278,0,4.893-0.767,7.421-1.508c0.646-0.189,1.27-0.372,1.869-0.538c26.907-7.51,59.293-11.482,93.645-11.482       C288.877,180.629,354.142,195.596,396.185,220.665z" style="fill:#148650;"/></g></g></g></g></g><g id="Layer_1"/></svg>