<?xml version="1.0" ?><!DOCTYPE svg  PUBLIC '-//W3C//DTD SVG 1.1//EN'  'http://www.w3.org/Graphics/SVG/1.1/DTD/svg11.dtd'><svg height="512px" style="enable-background:new 0 0 512 512;" version="1.1" viewBox="0 0 512 512" width="512px" xml:space="preserve" xmlns="http://www.w3.org/2000/svg" xmlns:xlink="http://www.w3.org/1999/xlink"><g id="comp_x5F_318-stack-overflow"><g><g><g><rect height="33.678" style="fill:#F48024;" width="157.251" x="157.558" y="344.047"/><g><path d="M314.809,387.725H157.558c-5.523,0-10-4.478-10-10v-33.678c0-5.522,4.477-10,10-10h157.251c5.522,0,10,4.478,10,10       v33.678C324.809,383.247,320.331,387.725,314.809,387.725z M167.558,367.725h137.251v-13.678H167.558V367.725z"/></g></g><g><polygon points="394.149,28.277 361.061,34.035 387.956,189.398 421.043,183.643     " style="fill:#F48024;"/><g><path d="M387.956,199.398c-2.048,0-4.062-0.629-5.758-1.824c-2.17-1.528-3.643-3.855-4.096-6.47L351.207,35.74       c-0.941-5.438,2.701-10.611,8.139-11.558l33.089-5.758c2.615-0.453,5.304,0.148,7.473,1.676       c2.17,1.528,3.643,3.856,4.096,6.471l26.894,155.366c0.941,5.438-2.702,10.612-8.14,11.558l-33.087,5.756       C389.101,199.35,388.526,199.398,387.956,199.398z M372.618,42.174l23.484,135.657l13.383-2.328L386.003,39.845L372.618,42.174       z"/></g></g><g><polygon points="318.62,297.473 162.038,282.996 158.95,316.545 315.529,330.992     " style="fill:#F48024;"/><g><path d="M315.529,340.992c-0.306,0-0.612-0.014-0.919-0.042l-156.579-14.447c-5.499-0.508-9.545-5.376-9.039-10.875       l3.088-33.549c0.243-2.642,1.526-5.078,3.566-6.773c2.04-1.695,4.673-2.514,7.312-2.268l156.583,14.477       c5.498,0.509,9.544,5.378,9.037,10.876l-3.091,33.52c-0.244,2.642-1.526,5.077-3.566,6.772       C320.118,340.181,317.854,340.992,315.529,340.992z M169.824,307.506l136.666,12.609l1.254-13.605l-136.665-12.635       L169.824,307.506z"/></g></g><g><polygon points="328.93,253.524 177.067,212.594 168.354,245.111 320.207,286.039     " style="fill:#F48024;"/><g><path d="M320.207,296.039c-0.872,0-1.746-0.114-2.603-0.345l-151.854-40.928c-5.327-1.436-8.485-6.915-7.057-12.244       l8.714-32.518c0.687-2.564,2.366-4.75,4.666-6.076c2.299-1.325,5.031-1.683,7.596-0.991l151.862,40.931       c5.328,1.436,8.485,6.917,7.056,12.247l-8.723,32.514c-0.688,2.563-2.366,4.749-4.666,6.074       C323.668,295.586,321.944,296.039,320.207,296.039z M180.597,238.055l132.545,35.724l3.541-13.198l-132.549-35.725       L180.597,238.055z"/></g></g><g><polygon points="348.761,215.003 213.318,134.901 196.238,163.911 331.709,244.006     " style="fill:#F48024;"/><g><path d="M331.709,254.006c-1.775,0-3.535-0.473-5.089-1.392l-135.471-80.095c-4.748-2.807-6.327-8.928-3.528-13.681       l17.08-29.01c1.347-2.288,3.549-3.947,6.121-4.61c2.572-0.662,5.302-0.275,7.587,1.076l135.443,80.102       c4.745,2.806,6.323,8.923,3.529,13.676l-17.052,29.003c-1.346,2.29-3.548,3.95-6.12,4.614       C333.386,253.901,332.546,254.006,331.709,254.006z M209.92,160.383l118.249,69.913l6.916-11.763l-118.233-69.924       L209.92,160.383z"/></g></g><g><polygon points="265.617,80.116 354.238,210.383 381.974,191.42 293.376,61.144     " style="fill:#F48024;"/><g><path d="M354.238,220.383c-0.619,0-1.24-0.058-1.857-0.174c-2.61-0.494-4.917-2.005-6.411-4.201L257.349,85.741       c-3.101-4.56-1.927-10.77,2.626-13.881l27.759-18.972c2.192-1.5,4.893-2.064,7.502-1.57c2.609,0.494,4.916,2.006,6.409,4.202       l88.598,130.276c3.101,4.559,1.927,10.767-2.624,13.878l-27.735,18.963C358.208,219.783,356.238,220.383,354.238,220.383z        M279.498,82.741l77.37,113.73l11.227-7.676l-77.352-113.74L279.498,82.741z"/></g></g><g><polygon points="349.01,454.973 119.63,454.973 119.63,311.221 90.957,311.221 90.957,483.723       377.682,483.723 377.682,311.221 349.01,311.221     " style="fill:#BCBBBB;"/><g><path d="M377.682,493.723H90.957c-5.523,0-10-4.478-10-10V311.221c0-5.522,4.477-10,10-10h28.673c5.523,0,10,4.478,10,10       v133.752H339.01V311.221c0-5.522,4.478-10,10-10h28.672c5.522,0,10,4.478,10,10v172.502       C387.682,489.245,383.204,493.723,377.682,493.723z M100.957,473.723h266.725V321.221h-8.672v133.752c0,5.522-4.478,10-10,10       H119.63c-5.523,0-10-4.478-10-10V321.221h-8.673V473.723z"/></g></g></g></g></g><g id="Layer_1"/></svg>