<?xml version="1.0" ?><!DOCTYPE svg  PUBLIC '-//W3C//DTD SVG 1.1//EN'  'http://www.w3.org/Graphics/SVG/1.1/DTD/svg11.dtd'><svg height="512px" style="enable-background:new 0 0 512 512;" version="1.1" viewBox="0 0 512 512" width="512px" xml:space="preserve" xmlns="http://www.w3.org/2000/svg" xmlns:xlink="http://www.w3.org/1999/xlink"><g id="comp_x5F_320-steam"><g><g><g><path d="M484,175.552C484,240.24,431.635,292.4,367.256,292.4l-112.229,81.937      c-4.106,44.152-41.584,78.856-86.762,78.856c-41.584,0-76.701-29.57-85.223-68.795L28,360.682V250.508l95.805,40.351      c15.505-9.444,33.062-13.655,53.393-11.806l72.901-104.425c0.513-63.969,52.879-115.821,117.053-115.821      C431.635,58.807,484,111.172,484,175.552z" style="fill:#008000;"/><path d="M168.265,463.193c-43.638,0-82.248-29.8-93.742-71.577l-50.479-21.751      c-3.667-1.58-6.043-5.19-6.043-9.184V250.508c0-3.35,1.678-6.478,4.469-8.331c2.791-1.853,6.325-2.187,9.412-0.885      l91.251,38.433c13.724-7.368,28.788-11.099,44.854-11.099c1.396,0,2.811,0.028,4.235,0.084l67.942-97.32      c2.227-67.883,58.544-122.583,126.988-122.583C437.097,48.807,494,105.664,494,175.552c0,68.834-55.063,125.039-123.423,126.806      l-106.13,77.483c-3.137,22.155-13.912,42.561-30.653,57.862C215.811,454.141,192.539,463.193,168.265,463.193z M38,354.102      l48.998,21.113c2.964,1.277,5.13,3.906,5.815,7.061c7.669,35.298,39.401,60.918,75.451,60.918      c39.429,0,73.166-30.652,76.805-69.782c0.266-2.855,1.744-5.46,4.061-7.15l112.229-81.937c1.712-1.25,3.776-1.924,5.896-1.924      C426.115,282.4,474,234.468,474,175.552c0-58.859-47.932-106.745-106.848-106.745c-58.561,0-106.585,47.507-107.054,105.901      c-0.016,2.02-0.644,3.988-1.8,5.644l-72.901,104.425c-2.055,2.943-5.538,4.557-9.105,4.234c-2.81-0.256-5.604-0.386-8.305-0.386      c-14.329,0-27.079,3.524-38.979,10.772c-2.744,1.672-6.123,1.922-9.083,0.676L38,265.57V354.102z" style="fill:#006000;"/></g><g><path d="M162.358,422.269c-7.808,0.001-15.615-1.531-23.059-4.596c-5.107-2.104-7.542-7.948-5.439-13.055      c2.104-5.106,7.948-7.54,13.054-5.439c10.089,4.156,21.183,4.103,31.239-0.147c10.152-4.29,18.001-12.3,22.104-22.554      c4.091-10.13,3.989-21.198-0.277-31.198c-4.31-10.104-12.334-17.929-22.595-22.034c-5.128-2.051-7.622-7.871-5.57-12.999      c2.052-5.128,7.873-7.621,12.999-5.569c15.232,6.094,27.152,17.727,33.563,32.756c6.366,14.925,6.521,31.44,0.438,46.504      c-6.088,15.219-17.768,27.133-32.875,33.518C178.344,420.663,170.352,422.269,162.358,422.269z" style="fill:#006000;"/></g><g><path d="M445.496,175.552c0-43.124-35.221-78.241-78.24-78.241c-43.434,0-78.549,35.117-78.549,78.241      c0,43.33,35.217,78.241,78.549,78.241C410.275,253.896,445.496,218.984,445.496,175.552z" style="fill:#FFFFFF;"/><path d="M367.445,263.793h-0.213c-48.803,0-88.525-39.585-88.525-88.241s39.723-88.241,88.549-88.241      c48.656,0,88.24,39.585,88.24,88.241c0,23.61-9.183,45.792-25.856,62.457C413.005,254.636,390.917,263.793,367.445,263.793z       M367.256,107.311c-37.798,0-68.549,30.613-68.549,68.241s30.751,68.241,68.549,68.241h0.189      c18.131,0,35.197-7.078,48.056-19.93c12.895-12.888,19.995-30.045,19.995-48.312      C435.496,137.923,404.884,107.311,367.256,107.311z" style="fill:#006000;"/></g></g></g></g><g id="Layer_1"/></svg>