<?xml version="1.0" ?><!DOCTYPE svg  PUBLIC '-//W3C//DTD SVG 1.1//EN'  'http://www.w3.org/Graphics/SVG/1.1/DTD/svg11.dtd'><svg height="512px" style="enable-background:new 0 0 512 512;" version="1.1" viewBox="0 0 512 512" width="512px" xml:space="preserve" xmlns="http://www.w3.org/2000/svg" xmlns:xlink="http://www.w3.org/1999/xlink"><g id="comp_x5F_331-swarm"><g><g><g><path d="M254.254,213.223c-0.587-0.587-2.373-5.293-2.961-6.472      C191.47,83.867,57.771,87.964,36.679,143.239C20.248,185.569,91.221,286.124,254.254,213.223L254.254,213.223z" style="fill:#FFFFFF;"/><path d="M148.184,248.999c-0.006,0-0.006,0-0.012,0c-67.579-0.004-99.124-35.432-109.549-50.663      c-13.608-19.881-17.819-41.83-11.265-58.715c10.038-26.307,41.467-43.339,80.048-43.339      c48.938,0,114.798,27.871,152.879,106.093c0.294,0.587,0.623,1.369,1.176,2.692c0.305,0.729,0.835,1.999,1.136,2.641      c1.412,2.137,1.966,4.761,1.492,7.33c-0.597,3.236-2.748,5.971-5.752,7.314C218.796,240.032,181.731,248.999,148.184,248.999z       M107.405,116.281c-30.214,0-54.308,11.981-61.383,30.523c-4.061,10.462-0.479,26.234,9.104,40.234      c8.635,12.615,34.986,41.956,93.047,41.96c0.001,0,0.009,0,0.011,0c28.111,0.001,59.225-7.015,92.629-20.871      C206.572,140.48,149.671,116.281,107.405,116.281z" style="fill:#F46D00;"/></g><g><path d="M297.771,184.65c92.041-41.157,79.154-112.291,55.104-121.705      c-31.689-12.358-90.314,35.302-56.891,118.177C296.572,181.709,297.771,184.063,297.771,184.65L297.771,184.65z" style="fill:#FFFFFF;"/><path d="M297.772,194.65c-1.902,0-3.796-0.542-5.44-1.609c-2.076-1.346-3.552-3.393-4.197-5.719      c-0.003-0.006-0.006-0.012-0.01-0.018c-0.583-0.741-1.06-1.563-1.414-2.442c-21.246-52.68-6.35-87.315,4.421-103.273      c12.732-18.863,32.268-30.581,50.982-30.581c5.094,0,9.938,0.881,14.396,2.62c13.788,5.397,23.367,22.628,23.848,42.882      c0.284,12.019-2.418,30.556-16.913,50.612c-13.544,18.741-34.267,34.438-61.591,46.657      C300.55,194.362,299.158,194.65,297.772,194.65z M342.114,71.009c-11.974,0-25.479,8.545-34.405,21.77      c-8.138,12.057-19.118,37.854-4.818,78.344c54.125-27.666,57.727-63.407,57.473-74.138      c-0.316-13.354-5.972-22.707-11.133-24.727C347.11,71.43,344.712,71.009,342.114,71.009z" style="fill:#F46D00;"/></g><g><path d="M209.815,312.813c-17.021,26.473-29.931,53.511-38.733,72.927      c-0.552,1.174-0.552,1.765-1.14,2.943c-2.936,7.646-5.902,13.529-7.629,18.831c-2.347,5.849,0.587,12.939,7.034,15.266      c4.671,1.792,11.125,4.119,18.778,7.058c1.149,0.588,1.76,0.588,2.935,1.152c20.531,7.058,48.674,14.709,79.19,20.002      c-18.192-17.622-32.864-38.832-43.428-62.339C216.244,364.583,210.391,338.695,209.815,312.813L209.815,312.813z" style="fill:#FFFFFF;"/><path d="M270.253,460.992c-0.566,0-1.139-0.049-1.712-0.148c-37.572-6.517-66.708-15.577-80.732-20.397      c-0.368-0.127-0.729-0.274-1.08-0.443c-0.016-0.007-0.094-0.024-0.181-0.053c-0.531-0.172-1.366-0.443-2.406-0.931      c-4.118-1.578-7.883-2.978-11.218-4.218c-2.661-0.989-5.035-1.872-7.078-2.655c-5.591-2.049-10.001-6.152-12.429-11.566      c-2.337-5.213-2.521-11.185-0.52-16.444c1.091-3.292,2.527-6.634,4.044-10.166c1.196-2.784,2.434-5.664,3.665-8.871      c0.105-0.274,0.222-0.543,0.351-0.807l0.067-0.207c0.172-0.534,0.458-1.422,0.974-2.53c8.501-18.75,21.828-46.813,39.404-74.15      c2.378-3.698,6.892-5.411,11.123-4.217c4.231,1.191,7.188,5.008,7.286,9.402c0.541,24.297,6.13,49.207,16.165,72.039      c10.149,22.585,24.033,42.521,41.231,59.18c3.151,3.054,3.945,7.806,1.955,11.717      C277.437,458.919,273.966,460.992,270.253,460.992z M194.758,421.686c9.669,3.31,26.456,8.589,48.186,13.596      c-9.901-12.962-18.348-27.185-25.243-42.53c-6.862-15.611-11.84-32.082-14.785-48.73c-9.543,17.342-17.188,33.633-22.726,45.848      c-0.02,0.043-0.039,0.086-0.059,0.128c-0.014,0.044-0.04,0.133-0.068,0.22c-0.171,0.53-0.441,1.369-0.928,2.423      c-1.324,3.425-2.646,6.501-3.817,9.227c-1.436,3.342-2.676,6.228-3.496,8.746c-0.069,0.211-0.145,0.42-0.228,0.627      c-0.132,0.329-0.105,0.763,0.073,1.16c0.208,0.465,0.57,0.793,1.074,0.975c0.063,0.022,0.125,0.046,0.187,0.069      c2.004,0.77,4.342,1.638,6.964,2.613c3.489,1.297,7.443,2.767,11.816,4.445c0.288,0.111,0.571,0.235,0.848,0.372l0.167,0.055      C193.179,421.075,193.883,421.304,194.758,421.686z" style="fill:#F46D00;"/></g><g><path d="M467.205,280.479c-14.056-31.152-39.281-54.07-69.185-64.665      c-2.933-1.146-5.867-1.763-9.382-1.763c-15.259,0-30.491,12.944-31.664,28.828c-2.347,27.036,2.937,54.071,14.646,80.55      c11.712,25.887,28.138,47.628,48.698,64.074c5.284,4.12,12.324,5.882,18.755,5.882c12.343,0,24.051-6.444,28.747-17.619      C480.696,346.908,481.317,312.223,467.205,280.479L467.205,280.479z" style="fill:#FFFFFF;"/><path d="M439.074,403.385c-9.446,0-18.291-2.84-24.903-7.996c-0.033-0.025-0.065-0.051-0.098-0.076      c-21.739-17.39-39.088-40.188-51.563-67.762c-12.717-28.755-17.921-57.489-15.503-85.477      c1.562-20.618,20.61-38.023,41.632-38.023c4.554,0,8.646,0.759,12.865,2.388c32.755,11.651,60.019,37.131,74.816,69.928      c14.838,33.376,15.073,71.033,0.675,103.381C470.904,394.11,456.033,403.385,439.074,403.385z M426.511,379.649      c3.027,2.34,7.719,3.735,12.563,3.735c8.929,0,16.594-4.512,19.528-11.493c0.028-0.067,0.057-0.134,0.087-0.2      c12.135-27.2,11.908-58.965-0.622-87.15c-12.566-27.852-35.679-49.485-63.387-59.302c-0.101-0.036-0.201-0.073-0.302-0.112      c-1.929-0.754-3.646-1.076-5.74-1.076c-10.597,0-20.936,9.325-21.691,19.564c-0.003,0.043-0.007,0.085-0.01,0.128      c-2.137,24.611,2.517,50.06,13.829,75.64C391.883,343.954,407.285,364.256,426.511,379.649z" style="fill:#F46D00;"/></g><g><path d="M337.029,335.983c-14.645-32.952-20.512-66.459-17.579-99.404      c0.563-9.386,3.521-18.21,7.603-25.859c-0.56,0-1.759,0.558-2.346,0.558c-1.174,0.59-2.934,0.59-4.108,1.18      c-8.803,2.352-17.571,6.473-25.199,10.588c-4.084,2.384-7.602,4.735-11.714,7.088c-19.918,13.532-36.349,37.039-38.697,61.749      c-2.371,26.445,2.348,53.513,13.466,79.378c11.15,25.293,27.557,45.888,47.507,61.744      c12.313,10.001,34.004,15.888,52.221,15.888c19.918,0,41.012-7.65,58.028-18.241c0,0,0.59,0,0.59-0.56      c1.148-0.59,2.347-1.795,3.52-2.385c0.563-0.588,1.149-1.146,1.735-1.146c-9.389-2.381-17.581-6.469-24.612-11.792      C371.647,394.788,351.139,368.316,337.029,335.983L337.029,335.983z" style="fill:#FFFFFF;"/><path d="M358.182,458.892c-18.006,0-43.062-5.595-58.481-18.09      c-21.984-17.484-38.941-39.524-50.396-65.508c-12-27.917-16.79-56.252-14.275-84.305c2.501-26.322,18.99-52.791,43.037-69.128      c0.213-0.145,0.432-0.281,0.654-0.409c2.049-1.172,3.953-2.353,5.97-3.603c1.798-1.115,3.657-2.267,5.669-3.441      c0.097-0.057,0.194-0.111,0.293-0.165c9.932-5.358,18.664-9.045,26.666-11.258c1.319-0.512,2.511-0.751,3.364-0.923      c0.089-0.018,0.178-0.035,0.266-0.053c0.663-0.269,1.353-0.466,2.057-0.587c0.883-0.277,2.303-0.704,4.049-0.704      c3.513,0,6.769,1.843,8.575,4.856c1.808,3.013,1.901,6.752,0.247,9.852c-3.842,7.199-6.009,14.517-6.442,21.75      c-0.006,0.096-0.014,0.192-0.021,0.289c-2.793,31.374,2.845,63.153,16.757,94.456c13.333,30.555,32.62,55.735,57.353,74.905      c6.233,4.711,13.296,8.089,20.992,10.04c4.89,1.24,8.09,5.927,7.465,10.932c-0.42,3.364-2.479,6.164-5.315,7.639      c-0.493,0.404-1.024,0.762-1.587,1.065c-0.166,0.116-0.33,0.248-0.497,0.375c-0.246,0.188-0.521,0.396-0.824,0.617      c-0.915,0.926-2,1.686-3.203,2.227C400.609,451.914,377.938,458.892,358.182,458.892z M289.003,238.611      c-18.798,12.9-32.152,34.142-34.06,54.217c-2.21,24.657,2.061,49.734,12.698,74.482c10.103,22.917,25.102,42.414,44.541,57.865      c0.028,0.021,0.056,0.044,0.083,0.065c9.896,8.037,28.776,13.65,45.916,13.65c12.951,0,27.634-3.787,41.637-10.595      c-2.911-1.663-5.719-3.517-8.412-5.556c-0.029-0.022-0.059-0.044-0.088-0.067c-27.435-21.25-48.784-49.071-63.454-82.69      c-15.261-34.338-21.456-69.397-18.387-104.15c0.19-3.074,0.598-6.143,1.218-9.2c-3.262,1.444-6.718,3.15-10.399,5.132      c-1.728,1.012-3.352,2.019-5.068,3.083C293.256,236.071,291.221,237.333,289.003,238.611z" style="fill:#F46D00;"/></g></g></g></g><g id="Layer_1"/></svg>