<?xml version="1.0" ?><!DOCTYPE svg  PUBLIC '-//W3C//DTD SVG 1.1//EN'  'http://www.w3.org/Graphics/SVG/1.1/DTD/svg11.dtd'><svg height="512px" style="enable-background:new 0 0 512 512;" version="1.1" viewBox="0 0 512 512" width="512px" xml:space="preserve" xmlns="http://www.w3.org/2000/svg" xmlns:xlink="http://www.w3.org/1999/xlink"><g id="comp_x5F_334-teamviewer"><g><g><g><path d="M256.002,26.001c-126.688,0-229.38,102.974-229.38,229.999      c0,127.022,102.692,229.999,229.38,229.999c126.677,0,229.375-102.977,229.375-229.999      C485.377,128.975,382.68,26.001,256.002,26.001z" style="fill:#0069D1;"/><g><path d="M256.002,495.999c-63.947,0-124.065-24.968-169.278-70.305       C41.519,380.366,16.623,320.101,16.623,256c0-64.102,24.896-124.367,70.102-169.695       c45.213-45.336,105.331-70.304,169.278-70.304c63.944,0,124.058,24.968,169.272,70.304       C470.48,131.633,495.377,191.899,495.377,256c0,64.1-24.896,124.365-70.103,169.694       C380.061,471.031,319.945,495.999,256.002,495.999z M256.002,36.001c-120.966,0-219.38,98.691-219.38,219.999       s98.414,219.999,219.38,219.999c120.963,0,219.375-98.691,219.375-219.999S376.966,36.001,256.002,36.001z" style="fill:#004F9D;"/></g></g><g><polygon points="313.342,342.252 325.816,284.747 186.186,284.747 198.658,342.252 83.964,256       198.657,169.75 186.184,227.248 325.813,227.248 313.34,169.75 428.029,256     " style="fill:#FFFFFF;"/><g><path d="M198.659,352.252c-2.122,0-4.237-0.673-6.011-2.008L77.954,263.992       c-2.512-1.889-3.99-4.85-3.99-7.992c0-3.143,1.478-6.103,3.99-7.992l114.692-86.25c3.339-2.51,7.888-2.681,11.405-0.428       c3.518,2.254,5.264,6.457,4.378,10.54l-9.844,45.378h114.825l-9.844-45.378c-0.886-4.083,0.86-8.286,4.378-10.54       c3.519-2.254,8.066-2.083,11.405,0.428l114.689,86.25c2.512,1.889,3.989,4.849,3.989,7.992c0,3.143-1.478,6.103-3.989,7.992       l-114.688,86.252c-3.339,2.51-7.888,2.683-11.405,0.428c-3.518-2.254-5.264-6.457-4.378-10.54l9.845-45.385H198.587       l9.843,45.386c0.885,4.082-0.86,8.285-4.378,10.539C202.404,351.729,200.529,352.252,198.659,352.252z M100.603,256       l82.586,62.106l-6.775-31.24c-0.641-2.955,0.09-6.042,1.988-8.396c1.898-2.354,4.76-3.723,7.785-3.723h139.63       c3.024,0,5.886,1.369,7.784,3.723c1.898,2.354,2.63,5.441,1.988,8.397l-6.776,31.237L411.392,256l-82.581-62.104l6.774,31.231       c0.642,2.956-0.09,6.043-1.988,8.397c-1.898,2.354-4.76,3.723-7.784,3.723H186.184c-3.024,0-5.886-1.369-7.785-3.723       c-1.898-2.354-2.629-5.441-1.988-8.397l6.775-31.232L100.603,256z" style="fill:#004F9D;"/></g></g></g></g></g><g id="Layer_1"/></svg>