<?xml version="1.0" ?><!DOCTYPE svg  PUBLIC '-//W3C//DTD SVG 1.1//EN'  'http://www.w3.org/Graphics/SVG/1.1/DTD/svg11.dtd'><svg height="512px" style="enable-background:new 0 0 512 512;" version="1.1" viewBox="0 0 512 512" width="512px" xml:space="preserve" xmlns="http://www.w3.org/2000/svg" xmlns:xlink="http://www.w3.org/1999/xlink"><g id="comp_x5F_338-tinder"><g><g><g id="_x32_1-tinder_9_"><g><g><g><g><path d="M121.01,433.684c-49.421-50.229-43.557-132.605,15.822-222.887          c10.795-16.42,21.987-31.327,34.863-46.54l10.714-12.633l1.062,11.277c1.626,17.662,4.012,27.34,9.426,38.391          c3.394,6.947,8.974,14.401,11.421,16.566c1.848,1.662,0.979,2.618,10.345-2.165c61.683-33.754,68.044-88.843,64.568-136.21          c-1.207-13.889-4.26-29.384-8.051-40.775c-1.453-4.392-2.301-7.847-1.852-7.704c0.453,0.139,8.133,7.422,17.082,16.199          c85.549,83.725,131.828,171.388,137.83,261.104c1.877,102.822-56.572,157.633-141.643,169.28          C210.007,488.811,159.854,471.877,121.01,433.684L121.01,433.684z" style="fill:#FFFFFF;"/><path d="M240.801,490.999c-50.979,0-92.457-16.415-126.802-50.185          c-0.039-0.039-0.078-0.078-0.117-0.117c-26.318-26.749-38.675-62.763-35.735-104.146          c2.852-40.136,20.255-85.521,50.331-131.249c10.971-16.688,22.279-31.784,35.585-47.505l10.72-12.641          c2.601-3.068,6.791-4.28,10.627-3.071c3.837,1.207,6.578,4.597,6.955,8.602l1.062,11.277          c1.518,16.488,3.571,24.97,8.45,34.928c1.95,3.99,4.681,8.028,6.7,10.674c0.426-0.214,0.895-0.451,1.411-0.714          c58.384-32.023,62.36-84.447,59.275-126.572c-1.145-13.104-4.043-27.816-7.57-38.415          c-2.531-7.649-3.802-12.188-0.547-16.693c1.88-2.602,4.947-4.173,8.158-4.173c0.995,0,2.008,0.153,2.961,0.445l0,0          c2.608,0.801,3.15,0.968,21.148,18.619c87.265,85.404,134.642,175.432,140.806,267.576c0.011,0.162,0.018,0.323,0.021,0.485          c1.837,100.634-52.909,166.003-150.198,179.358C268.924,489.816,254.377,490.999,240.801,490.999z M128.082,426.613          c30.826,30.28,66.646,44.386,112.719,44.386c12.582,0,26.131-1.108,40.269-3.294c0.058-0.009,0.114-0.017,0.172-0.024          c87.342-11.959,134.569-68.408,133.005-158.948c-5.711-84.323-48.498-167.311-127.208-246.805          c0.943,5.566,1.679,11.217,2.154,16.69c0.004,0.044,0.008,0.089,0.011,0.134c3.259,44.387-0.427,107.784-69.74,145.714          c-0.083,0.046-0.167,0.09-0.252,0.134c-6.422,3.279-9.384,4.615-12.861,4.615c-4.909,0-7.729-2.898-8.655-3.851          l-0.106-0.107c-4.053-3.642-10.16-12.376-13.677-19.574c-4.538-9.262-7.199-17.834-8.973-29.711          c-10.905,13.229-20.457,26.181-29.751,40.319c-28.199,42.875-44.482,84.95-47.092,121.679          C95.541,373.936,105.631,403.761,128.082,426.613z" style="fill:#AB391D;"/></g></g></g></g></g></g></g></g><g id="Layer_1"/></svg>