<?xml version="1.0" ?><!DOCTYPE svg  PUBLIC '-//W3C//DTD SVG 1.1//EN'  'http://www.w3.org/Graphics/SVG/1.1/DTD/svg11.dtd'><svg height="512px" style="enable-background:new 0 0 512 512;" version="1.1" viewBox="0 0 512 512" width="512px" xml:space="preserve" xmlns="http://www.w3.org/2000/svg" xmlns:xlink="http://www.w3.org/1999/xlink"><g id="comp_x5F_339-trello"><g><g><g><path d="M421.363,36.001H91.17c-30.446,0-55.098,24.652-55.098,55c-0.099,0,0-3.929,0,329.998      c0,30.348,24.651,55,54.999,55h330.196c30.249-0.197,54.704-24.749,54.704-55V91.001      C476.068,60.751,451.613,36.198,421.363,36.001L421.363,36.001z" style="fill:#007BC2;"/><g><path d="M421.3,485.999H91.071c-35.841,0-64.999-29.159-64.999-65       c0-167.971-0.025-250.454-0.038-290.953c-0.005-19.088-0.009-28.853-0.005-33.845c0.002-2.539,0.006-3.864,0.012-4.555       c0.002-0.287,0.013-0.568,0.031-0.842c0.106-35.751,29.268-64.804,65.097-64.804h330.193       c35.769,0.233,64.723,29.406,64.608,65.032v329.966c0,35.608-28.997,64.768-64.639,65H421.3z M46.028,101.001       c0,5.823,0.002,14.948,0.006,29.039c0.013,40.5,0.038,122.985,0.038,290.959c0,24.813,20.187,45,44.999,45h330.167       c24.67-0.181,44.733-20.359,44.733-45V91.001c0.079-24.667-19.962-44.839-44.674-45H91.17c-24.867,0-45.098,20.187-45.098,45       L46.028,101.001z" style="fill:#005C92;"/></g></g><g><path d="M229.553,369.238c-0.196,14.438-11.883,26.128-26.419,26.128h-81.223      c-14.536,0.097-26.419-11.589-26.518-26.128V119.582c0-14.537,11.784-26.42,26.419-26.42h81.419      c14.536,0,26.42,11.785,26.42,26.42v249.656H229.553z" style="fill:#FFFFFF;"/><g><path d="M121.732,405.367c-19.902,0-36.204-16.177-36.338-36.062l0-249.724       c0-20.082,16.337-36.42,36.419-36.42h81.419c20.082,0,36.42,16.338,36.42,36.42v259.656h-1.605       c-4.497,15.065-18.514,26.128-34.913,26.128L121.732,405.367z M121.813,103.162c-9.053,0-16.419,7.366-16.419,16.42v249.656       c0.061,8.863,7.39,16.129,16.338,16.129l0.113-0.001h81.289c8.932,0,16.298-7.296,16.42-16.264l0.098-7.209V119.582       c0-9.054-7.366-16.42-16.42-16.42H121.813z" style="fill:#005C92;"/></g></g><g><path d="M419.204,259.241c0,14.536-11.786,26.419-26.421,26.419H313.23      c-14.535,0-26.419-11.783-26.419-26.419V119.679c0-14.535,11.785-26.419,26.32-26.419h79.651      c14.536,0,26.421,11.785,26.421,26.419V259.241z" style="fill:#FFFFFF;"/><g><path d="M392.783,295.66H313.23c-20.081,0-36.419-16.338-36.419-36.419V119.679       c0-20.082,16.293-36.419,36.32-36.419h79.651c20.083,0,36.421,16.337,36.421,36.419v139.563       C429.204,279.322,412.866,295.66,392.783,295.66z M313.132,103.26c-8.999,0-16.32,7.366-16.32,16.419v139.563       c0,9.054,7.365,16.419,16.419,16.419h79.553c9.055,0,16.421-7.365,16.421-16.419V119.679c0-9.053-7.366-16.419-16.421-16.419       H313.132z" style="fill:#005C92;"/></g></g></g></g></g><g id="Layer_1"/></svg>