<?xml version="1.0" ?><!DOCTYPE svg  PUBLIC '-//W3C//DTD SVG 1.1//EN'  'http://www.w3.org/Graphics/SVG/1.1/DTD/svg11.dtd'><svg height="512px" style="enable-background:new 0 0 512 512;" version="1.1" viewBox="0 0 512 512" width="512px" xml:space="preserve" xmlns="http://www.w3.org/2000/svg" xmlns:xlink="http://www.w3.org/1999/xlink"><g id="comp_x5F_342-tumblr-square"><g><g><g><path d="M428.857,36.001H83.145c-26.026,0-47.143,21.115-47.143,47.144v345.712      c0,26.028,21.116,47.143,47.143,47.143h345.713c26.027,0,47.141-21.114,47.141-47.143V83.145      C475.998,57.116,454.885,36.001,428.857,36.001z" style="fill:#314358;"/><path d="M428.857,485.999H83.145c-31.508,0-57.143-25.634-57.143-57.143V83.145      c0-31.509,25.634-57.144,57.143-57.144h345.713c31.508,0,57.141,25.635,57.141,57.144v345.712      C485.998,460.365,460.365,485.999,428.857,485.999z M83.145,46.001c-20.48,0-37.143,16.663-37.143,37.144v345.712      c0,20.48,16.662,37.143,37.143,37.143h345.713c20.479,0,37.141-16.662,37.141-37.143V83.145      c0-20.481-16.661-37.144-37.141-37.144H83.145z" style="fill:#253242;"/></g><g><path d="M348.027,393.696c-8.35,8.937-30.644,19.448-59.813,19.448      c-74.152,0-90.259-54.511-90.259-86.332v-88.392h-29.169c-3.34,0-6.09-2.751-6.09-6.091v-41.739c0-4.42,2.75-8.35,6.974-9.822      c38.106-13.455,49.991-46.652,51.759-71.893c0.491-6.777,4.025-10.018,9.82-10.018h43.508c3.341,0,6.09,2.75,6.09,6.089v70.715      h50.974c3.34,0,6.09,2.75,6.09,6.089v50.187c0,3.339-2.75,6.09-6.09,6.09h-51.17v81.813c0,21.016,14.536,32.901,41.741,22      c2.946-1.18,5.5-1.966,7.856-1.375c2.161,0.49,3.537,2.062,4.521,4.812l13.551,39.482      C349.303,387.902,350.285,391.34,348.027,393.696L348.027,393.696z" style="fill:#FFFFFF;"/><path d="M288.215,423.145c-74.001,0-100.259-51.894-100.259-96.332v-78.392h-19.169      c-8.872,0-16.09-7.218-16.09-16.091v-41.739c0-8.669,5.498-16.412,13.681-19.265c36.264-12.805,43.809-45.062,45.076-63.149      c0.851-11.745,8.621-19.319,19.796-19.319h43.508c8.872,0,16.09,7.217,16.09,16.089v60.715h40.974      c8.872,0,16.09,7.217,16.09,16.089v50.187c0,8.872-7.218,16.09-16.09,16.09h-41.17v71.813c0,16.122,9.907,16.122,13.163,16.122      c4.222,0,9.221-1.146,14.858-3.404c2.977-1.192,6.232-2.294,9.887-2.294c1.366,0,2.714,0.159,4.005,0.473      c3.822,0.894,8.9,3.563,11.621,11.173c0.015,0.04,0.028,0.08,0.042,0.121l13.551,39.482c0.03,0.087,0.06,0.175,0.087,0.264      c1.133,3.625,3.782,12.103-2.569,18.787C344.754,411.811,319.941,423.145,288.215,423.145z M172.697,228.421h25.259      c5.523,0,10,4.477,10,10v88.392c0,17.906,5.788,76.332,80.259,76.332c24.945,0,43.385-8.413,50.789-14.66      c-0.07-0.232-0.137-0.447-0.188-0.612l-12.624-36.782c-0.027,0.012-0.055,0.022-0.083,0.033      c-8.011,3.211-15.513,4.839-22.295,4.839c-20.146,0-33.163-14.179-33.163-36.122v-81.813c0-5.523,4.478-10,10-10h47.26v-42.365      h-47.063c-5.522,0-10-4.477-10-10v-66.804h-39.361c-0.032,0.203-0.062,0.448-0.083,0.74      c-1.293,18.474-9.578,63.359-58.403,80.599c-0.103,0.036-0.303,0.106-0.303,0.393V228.421z" style="fill:#253242;"/></g></g></g></g><g id="Layer_1"/></svg>