<?xml version="1.0" ?><!DOCTYPE svg  PUBLIC '-//W3C//DTD SVG 1.1//EN'  'http://www.w3.org/Graphics/SVG/1.1/DTD/svg11.dtd'><svg height="512px" style="enable-background:new 0 0 512 512;" version="1.1" viewBox="0 0 512 512" width="512px" xml:space="preserve" xmlns="http://www.w3.org/2000/svg" xmlns:xlink="http://www.w3.org/1999/xlink"><g id="comp_x5F_343-twitch"><g><g><g><polygon points="67.175,26.001 36.269,104.961 36.269,427.68 146.135,427.68 146.135,485.999       207.948,485.999 266.269,427.68 355.598,427.68 475.731,307.544 475.731,26.001     " style="fill:#6441A5;"/><g><path d="M207.948,495.999h-61.813c-5.523,0-10-4.478-10-10V437.68H36.269c-5.523,0-10-4.478-10-10       V104.961c0-1.247,0.233-2.483,0.688-3.645l30.907-78.96c1.5-3.833,5.196-6.355,9.312-6.355h408.556c5.522,0,10,4.477,10,10       v281.543c0,2.652-1.054,5.195-2.929,7.071L362.669,434.751c-1.876,1.875-4.419,2.929-7.071,2.929h-85.187l-55.393,55.391       C213.144,494.945,210.6,495.999,207.948,495.999z M156.135,475.999h47.671l55.392-55.391c1.876-1.875,4.419-2.929,7.071-2.929       h85.187l114.276-114.278v-267.4H74l-27.731,70.847V417.68h99.866c5.523,0,10,4.478,10,10V475.999z" style="fill:#4B317C;"/></g></g><g><polygon points="434.558,286.905 365.866,355.598 256.001,355.598 197.679,413.917 197.679,355.598       104.96,355.598 104.96,67.176 434.558,67.176     " style="fill:#FFFFFF;"/><g><path d="M197.677,423.917c-1.289,0-2.587-0.249-3.825-0.762c-3.736-1.547-6.173-5.193-6.173-9.238       v-48.319H104.96c-5.523,0-10-4.478-10-10V67.176c0-5.523,4.477-10,10-10h329.598c5.522,0,10,4.477,10,10v219.729       c0,2.652-1.054,5.195-2.929,7.071l-68.691,68.692c-1.876,1.875-4.419,2.929-7.071,2.929H260.143l-55.393,55.391       C202.837,422.901,200.279,423.917,197.677,423.917z M114.96,345.598h82.719c5.523,0,10,4.478,10,10v34.178l41.251-41.249       c1.875-1.875,4.419-2.929,7.071-2.929h105.723l62.834-62.835V77.176H114.96V345.598z" style="fill:#4B317C;"/></g></g><g><rect height="120.03" style="fill:#6441A5;" width="41.174" x="324.692" y="146.134"/><g><path d="M365.866,276.164h-41.174c-5.522,0-10-4.478-10-10v-120.03c0-5.523,4.478-10,10-10h41.174       c5.522,0,10,4.477,10,10v120.03C375.866,271.687,371.389,276.164,365.866,276.164z M334.692,256.164h21.174v-100.03h-21.174       V256.164z" style="fill:#4B317C;"/></g></g><g><rect height="120.03" style="fill:#6441A5;" width="41.177" x="214.824" y="146.134"/><g><path d="M256.001,276.164h-41.177c-5.523,0-10-4.478-10-10v-120.03c0-5.523,4.477-10,10-10h41.177       c5.522,0,10,4.477,10,10v120.03C266.001,271.687,261.523,276.164,256.001,276.164z M224.824,256.164h21.177v-100.03h-21.177       V256.164z" style="fill:#4B317C;"/></g></g></g></g></g><g id="Layer_1"/></svg>