<?xml version="1.0" ?><!DOCTYPE svg  PUBLIC '-//W3C//DTD SVG 1.1//EN'  'http://www.w3.org/Graphics/SVG/1.1/DTD/svg11.dtd'><svg height="512px" style="enable-background:new 0 0 512 512;" version="1.1" viewBox="0 0 512 512" width="512px" xml:space="preserve" xmlns="http://www.w3.org/2000/svg" xmlns:xlink="http://www.w3.org/1999/xlink"><g id="comp_x5F_361-vimeo"><g><g><g><path d="M485.785,149.001c-2.053,44.766-33.267,106.063-93.846,183.893      c-62.529,81.32-115.408,121.98-158.736,121.98c-26.8,0-49.491-24.747-68.075-74.236      c-36.143-132.658-51.545-210.384-81.422-210.384c-3.492,0-15.505,7.29-36.143,21.665L26,163.991      C78.981,117.479,129.602,65.73,161.328,62.855c35.836-3.491,57.808,21.049,66.125,73.414      c29.467,186.359,42.506,214.491,96.103,130.093c19.202-30.394,29.572-53.497,31.009-69.411      c4.929-47.128-36.757-43.946-64.993-31.831c22.59-74.03,65.814-109.966,129.577-107.912      C466.176,58.439,488.456,89.14,485.785,149.001L485.785,149.001z" style="fill:#FFFFFF;"/><path d="M233.203,464.875c-16.255,0-31.224-7.335-44.489-21.801      c-12.162-13.264-23.247-33.087-32.948-58.92c-0.109-0.291-0.205-0.587-0.287-0.887c-5.398-19.814-10.238-38.042-14.919-55.671      c-12.969-48.841-23.212-87.419-33.199-113.292c-10.271-26.609-17.979-33.34-22.843-33.995      c-2.164,0.869-9.284,4.522-31.239,19.815c-4.376,3.046-10.373,2.127-13.631-2.094l-21.563-27.929      c-3.226-4.178-2.648-10.144,1.318-13.626c9.917-8.706,19.844-17.681,29.444-26.36c44.267-40.021,82.497-74.584,111.578-77.22      c2.475-0.242,5-0.367,7.438-0.367c19.078,0,34.772,7.461,46.647,22.175c11.134,13.796,18.598,33.421,22.818,59.996      c10.83,68.494,18.139,106.728,25.229,131.978c9.712,34.59,16.872,34.987,17.172,34.987c2.875,0,12.077-3.962,35.385-40.665      c18.287-28.946,28.214-50.804,29.49-64.948c0.005-0.047,0.009-0.094,0.015-0.141c1.104-10.567-0.388-18.204-4.436-22.697      c-3.453-3.833-9.202-5.777-17.086-5.777c-8.619,0-19.402,2.505-29.583,6.874c-3.578,1.534-7.72,0.854-10.618-1.744      c-2.898-2.598-4.026-6.642-2.89-10.365c23.301-76.359,68.391-115.077,134.017-115.077c1.792,0,3.625,0.03,5.447,0.089      c23.298,0.61,41.705,7.965,54.65,21.861c15.982,17.155,23.269,44.197,21.654,80.373c-2.175,47.426-33.559,109.438-95.944,189.59      C334.733,423.697,280.217,464.875,233.203,464.875z M174.653,377.557c16.846,44.669,36.544,67.318,58.55,67.318      c39.824,0,90.564-39.727,150.809-118.076c58.965-75.756,89.833-135.714,91.784-178.255c1.365-30.6-4.121-52.755-16.309-65.836      c-9.278-9.959-22.559-15.031-40.601-15.503c-1.669-0.054-3.285-0.08-4.863-0.08c-51.164,0-86.79,26.986-108.464,82.352      c6.106-1.34,12.044-2.041,17.538-2.041c13.597,0,24.643,4.285,31.945,12.391c7.99,8.869,11.178,21.686,9.475,38.095      c-1.61,17.57-12.244,41.707-32.508,73.78c-22.836,35.961-37.491,49.963-52.28,49.963c-19.832,0-29.543-25.063-36.427-49.581      c-7.314-26.049-14.768-64.945-25.727-134.254c-10.371-65.301-39.981-65.301-49.712-65.301c-1.792,0-3.665,0.094-5.565,0.279      c-22.496,2.039-61.916,37.678-100.038,72.143c-7.392,6.683-14.976,13.54-22.625,20.337l10.053,13.021      c24.458-16.66,29.66-18.054,34.017-18.054c33.113,0,47.507,54.209,76.185,162.209      C164.527,339.928,169.321,357.979,174.653,377.557z" style="fill:#1AB7EA;"/></g></g></g></g><g id="Layer_1"/></svg>