<?xml version="1.0" ?><!DOCTYPE svg  PUBLIC '-//W3C//DTD SVG 1.1//EN'  'http://www.w3.org/Graphics/SVG/1.1/DTD/svg11.dtd'><svg height="512px" style="enable-background:new 0 0 512 512;" version="1.1" viewBox="0 0 512 512" width="512px" xml:space="preserve" xmlns="http://www.w3.org/2000/svg" xmlns:xlink="http://www.w3.org/1999/xlink"><g id="comp_x5F_362-vine"><g><g><g><path d="M453.164,254.658v53.502c-18.895,4.313-37.893,6.265-53.502,6.265      c-37.891,79.483-105.77,147.667-128.465,160.399c-14.377,8.113-27.828,8.626-43.848-0.82      C199.52,457.266,93.957,370.7,58.835,98.57h76.504c19.204,163.381,66.235,247.174,117.887,309.918      c28.65-28.651,56.275-66.851,77.635-109.776c-51.141-25.979-82.256-83.075-82.256-149.515C248.605,81.833,287.32,31,353.555,31      c117.99,0,109.057,131.339,83.795,186.382c0,0-47.648,9.447-65.207-21.053c3.49-11.603,8.42-31.627,8.42-49.804      c0-32.142-11.605-47.854-29.164-47.854c-18.688,0-31.629,17.561-31.629,51.345C319.873,231.348,380.768,271.91,453.164,254.658      L453.164,254.658z" style="fill:#FFFFFF;"/><path d="M250.078,490.999c-9.146,0-18.243-2.741-27.808-8.381c-10.421-6.268-47.125-31.539-85.044-95.457      C93.783,313.93,64.071,217.265,48.917,99.85c-0.368-2.852,0.509-5.724,2.408-7.883c1.899-2.159,4.635-3.397,7.51-3.397h76.504      c5.071,0,9.34,3.796,9.932,8.833c18.833,160.223,64.627,240.412,108.626,296.001c23.84-25.516,46.033-57.105,63.655-90.634      c-48.945-29.369-78.947-87.219-78.947-153.574C238.605,72.519,284.8,21,353.555,21c40.696,0,71.965,15.214,90.426,43.999      c31.554,49.2,18.253,122.138,2.458,156.555c-1.339,2.917-3.996,5.014-7.145,5.638c-0.324,0.064-8.055,1.573-18.509,1.573      c-26.767,0-47.12-9.747-57.309-27.446c-1.374-2.386-1.703-5.233-0.91-7.87c2.404-7.993,7.996-28.564,7.996-46.923      c0-14.137-2.489-37.854-19.164-37.854c-20.069,0-21.629,31.646-21.629,41.345c0.076,59.867,35.883,98.559,91.223,98.56      c0.001,0,0.002,0,0.002,0c9.652,0,19.696-1.227,29.852-3.647c2.979-0.709,6.114-0.018,8.516,1.879      c2.401,1.896,3.803,4.788,3.803,7.848v53.502c0,4.666-3.227,8.711-7.774,9.749c-16.234,3.706-33.545,5.942-49.429,6.42      c-38.58,77.563-105.426,145.502-129.871,159.217C267.209,488.557,258.693,490.999,250.078,490.999z M70.263,108.57      c15.208,109.601,43.503,199.847,84.164,268.387c35.532,59.895,68.744,82.864,78.076,88.478c6.327,3.73,12.1,5.564,17.574,5.564      c5.081,0,10.381-1.598,16.205-4.884c20.423-11.457,87.331-78.331,124.354-155.993c1.658-3.48,5.171-5.697,9.026-5.697      c13.646,0,28.83-1.539,43.502-4.377v-33.231c-7.495,1.171-14.915,1.762-22.17,1.762c-0.001,0-0.002,0-0.002,0      c-66.436-0.002-111.133-47.642-111.223-118.548c0-45.242,21.504-61.357,41.629-61.357c12.264,0,22.77,5.851,29.584,16.475      c6.356,9.911,9.58,23.833,9.58,41.379c0,17.744-4.25,36.397-7.525,48.133c8.99,11.558,25.208,14.106,37.748,14.106      c3.762,0,7.084-0.239,9.608-0.502c13.781-34.021,21.314-94.167-3.249-132.466C412.337,52.708,387.578,41,353.555,41      c-57.68,0-94.949,42.47-94.949,108.196c0,62.665,29.422,116.54,76.785,140.599c4.895,2.487,6.869,8.455,4.424,13.371      c-20.996,42.195-49.235,82.11-79.517,112.393c-1.994,1.994-4.743,3.05-7.554,2.917c-2.817-0.136-5.445-1.455-7.238-3.633      c-31.21-37.913-54.285-75.952-72.615-119.712c-22.046-52.631-37.253-113.74-46.409-186.562H70.263z" style="fill:#0DB289;"/></g></g></g></g><g id="Layer_1"/></svg>