<?xml version="1.0" ?><!DOCTYPE svg  PUBLIC '-//W3C//DTD SVG 1.1//EN'  'http://www.w3.org/Graphics/SVG/1.1/DTD/svg11.dtd'><svg height="512px" style="enable-background:new 0 0 512 512;" version="1.1" viewBox="0 0 512 512" width="512px" xml:space="preserve" xmlns="http://www.w3.org/2000/svg" xmlns:xlink="http://www.w3.org/1999/xlink"><g id="comp_x5F_364-vk"><g><g><g><path d="M467.481,142.221c3.045-10.283,0-17.852-14.644-17.852h-48.457      c-12.34,0-18.018,6.499-21.061,13.739c0,0-24.68,60.138-59.563,99.133c-11.27,11.271-16.453,14.891-22.623,14.891      c-3.042,0-7.733-3.621-7.733-13.904v-96.008c0-12.34-3.456-17.852-13.657-17.852h-76.18c-7.733,0-12.34,5.759-12.34,11.106      c0,11.681,17.441,14.396,19.251,47.304v71.41c0,15.631-2.798,18.509-8.967,18.509c-16.454,0-56.437-60.384-80.13-129.49      c-4.771-13.409-9.461-18.839-21.884-18.839H51.037c-13.821,0-16.619,6.499-16.619,13.739c0,12.833,16.454,76.593,76.593,160.836      c40.065,57.505,96.502,88.687,147.836,88.687c30.851,0,34.636-6.91,34.636-18.839c0-54.957-2.797-60.141,12.671-60.141      c7.156,0,19.497,3.619,48.293,31.344c32.905,32.908,38.335,47.636,56.764,47.636h48.456c13.821,0,20.815-6.91,16.783-20.569      c-9.214-28.71-71.492-87.78-74.289-91.729c-7.157-9.215-5.102-13.329,0-21.557C402.243,253.696,461.394,170.439,467.481,142.221      L467.481,142.221z" style="fill:#FFFFFF;"/><path d="M459.666,397.631H411.21c-17.397,0-26.299-9.898-41.046-26.298      c-5.857-6.515-13.146-14.619-22.723-24.201c-19.362-18.632-33.639-28.48-41.288-28.48c-0.926,0-1.617,0.024-2.128,0.057      c-0.876,4.296-0.776,15.55-0.662,28.353c0.056,6.276,0.119,13.39,0.119,21.731c0,23.935-17.844,28.839-44.636,28.839      c-27.504,0-56.276-8.353-83.205-24.154c-27.53-16.154-52.704-39.934-72.803-68.769c-58.674-82.205-78.421-148.826-78.421-166.6      c0-15.086,9.702-23.739,26.619-23.739h48.456c20.52,0,26.918,13.156,31.305,25.487c0.013,0.036,0.025,0.073,0.038,0.109      c10.46,30.509,24.736,61.066,40.199,86.043c14.625,23.624,24.731,33.056,29.065,35.82c0.2-1.574,0.374-3.992,0.374-7.639      v-71.127c-0.984-16.936-6.439-23.703-11.254-29.678c-3.749-4.651-7.997-9.922-7.997-17.909c0-10.15,8.542-21.106,22.34-21.106      h76.18c8.345,0,14.644,2.823,18.722,8.39c4.424,6.04,4.936,14,4.936,19.462v96.008c0,1.33,0.114,2.375,0.265,3.163      c2.361-1.23,6.052-4.265,12.822-11.023c33.258-37.292,57.342-95.472,57.582-96.057c5.493-13.074,15.964-19.943,30.312-19.943      h48.457c10.078,0,17.41,2.977,21.794,8.846c2.878,3.854,5.634,10.696,2.543,21.485c-2.959,13.115-14.799,35.772-36.179,69.234      c-10.371,16.231-25.365,38.358-30.355,45.1l0.019,0.012c-0.919,1.481-3.07,4.952-3.128,5.938l0,0      c0.001,0,0.126,1.125,2.526,4.216c0.02,0.024,0.039,0.05,0.058,0.074c0.739,0.856,3.71,3.893,6.586,6.832      c30.215,30.883,62.073,65.477,69.27,87.9c0.024,0.074,0.047,0.149,0.069,0.225c3.479,11.783,0.404,19.346-2.787,23.616      C479.916,392.311,473.116,397.631,459.666,397.631z M306.153,298.651c9.776,0,23.982,4.056,55.229,34.14      c0.046,0.044,0.091,0.089,0.136,0.134c9.985,9.985,17.489,18.33,23.519,25.035c14.021,15.593,18.025,19.671,26.174,19.671      h48.456c4.946,0,7.112-1.15,7.567-1.758c0.341-0.457,0.702-2.268-0.342-5.868c-6.841-20.994-50.216-65.327-64.486-79.912      c-5.523-5.646-7.246-7.421-8.227-8.733c-10.715-13.87-6.573-23.086-0.518-32.853c0.138-0.223,0.284-0.439,0.439-0.65      c9.521-13.191,58.61-84.593,63.605-107.745c0.054-0.246,0.115-0.489,0.187-0.73c0.662-2.235,0.702-3.592,0.635-4.169      c-0.535-0.259-2.138-0.843-5.689-0.843h-48.457c-7.196,0-9.866,2.913-11.842,7.614c-1.002,2.442-25.709,62.107-61.329,101.926      c-0.124,0.138-0.251,0.273-0.382,0.404c-12.321,12.323-19.533,17.82-29.694,17.82c-8.813,0-17.733-8.211-17.733-23.904v-96.008      c0-5.34-0.772-7.124-1.006-7.542c-0.261-0.096-1.024-0.311-2.651-0.311h-76.18c-2.098,0-2.341,1.15-2.343,1.162      c0.003,0.875,1.737,3.026,3.572,5.303c5.723,7.101,14.371,17.831,15.667,41.396c0.01,0.183,0.015,0.366,0.015,0.549v71.41      c0,9.254,0,28.509-18.967,28.509c-4.524,0-18.293,0-45.802-43.484c-16.619-26.271-32.572-60.063-43.771-92.711      c-4.324-12.133-6.705-12.133-12.442-12.133H51.037c-4.19,0-5.98,0.799-6.279,1.08l0,0c0.007,0-0.34,0.611-0.34,2.66      c0,7.823,13.781,69.646,74.731,155.025c0.022,0.031,0.044,0.063,0.066,0.094c36.822,52.851,89.021,84.403,139.631,84.403      c16.066,0,21.507-2.038,23.319-3.253c0.617-0.414,1.316-0.882,1.316-5.586c0-8.253-0.063-15.319-0.118-21.554      c-0.243-27.319-0.325-36.522,6.341-43.248C294.355,299.298,300.358,298.651,306.153,298.651z" style="fill:#5181B8;"/></g></g></g></g><g id="Layer_1"/></svg>