<?xml version="1.0" ?><!DOCTYPE svg  PUBLIC '-//W3C//DTD SVG 1.1//EN'  'http://www.w3.org/Graphics/SVG/1.1/DTD/svg11.dtd'><svg height="512px" style="enable-background:new 0 0 512 512;" version="1.1" viewBox="0 0 512 512" width="512px" xml:space="preserve" xmlns="http://www.w3.org/2000/svg" xmlns:xlink="http://www.w3.org/1999/xlink"><g id="comp_x5F_372-weebly"><g><g><g><path d="M407.903,85.151c-35.829,0-65.836,23.115-75.161,57.794      c-16.314-52.161-58.846-57.794-76.319-57.794c-17.77,0-60.014,5.642-76.615,57.794c-9.327-34.679-39.037-57.794-75.161-57.794      C60.669,85.151,26,115.597,26,154.507c0,26.018,3.755,29.89,69.33,209.759c20.097,54.418,60.885,62.306,83.319,62.306      c35.244,0,62.924-17.484,77.199-48.495c14.275,31.29,41.946,48.772,77.199,48.772c22.435,0,63.211-8.176,83.318-62.593      c68.772-187.45,69.627-184.693,69.627-204.116C486.558,116.729,453.642,85.151,407.903,85.151L407.903,85.151z" style="fill:#3192E7;"/><g><path d="M333.047,436.849c-32.583,0-59.895-13.89-77.238-38.698       c-17.373,24.631-44.655,38.421-77.16,38.421c-25.125,0-70.579-8.943-92.7-68.841c-12.856-35.266-23.396-63.926-31.864-86.954       C18.876,185.029,16,177.208,16,154.507c0-44.499,38.938-79.355,88.646-79.355c19.914,0,38.496,6.216,53.738,17.975       c8.759,6.758,16.043,15.055,21.629,24.556c22.121-37.913,59.557-42.531,76.409-42.531c10.767,0,27.019,1.824,43.303,10.514       c13.766,7.346,24.767,18.067,32.882,32.008c15.498-26.139,43.471-42.522,75.296-42.522c25.59,0,48.626,9.06,64.864,25.511       c15.261,15.46,23.507,36.604,23.225,59.542c-0.002,17.129-0.714,19.058-35.677,113.684       c-9.059,24.515-20.331,55.023-34.563,93.812c-9.681,26.201-24.893,45.353-45.221,56.945       C362.847,434.731,344.947,436.849,333.047,436.849z M255.848,368.076c0.006,0,0.011,0,0.017,0       c3.91,0.007,7.458,2.292,9.081,5.85c12.628,27.679,36.813,42.923,68.102,42.923c19.878,0,55.915-7.283,73.938-56.059       c14.23-38.788,25.508-69.31,34.569-93.834c34.438-93.202,34.438-93.458,34.438-106.816c0-0.043,0-0.087,0.001-0.13       c0.232-17.827-5.806-33.49-17.459-45.297c-12.451-12.614-30.432-19.561-50.631-19.561c-31.075,0-57.399,20.25-65.504,50.391       c-1.155,4.295-5.008,7.312-9.455,7.401c-4.406,0.094-8.418-2.768-9.746-7.013c-13.819-44.182-47.769-50.779-66.775-50.779       c-19.012,0-53.009,6.603-67.086,50.827c-1.346,4.229-5.312,7.046-9.756,6.964c-4.438-0.101-8.277-3.114-9.43-7.4       c-8.233-30.611-33.945-50.391-65.504-50.391C66.153,95.151,36,121.224,36,154.507c0,19.14,2.082,24.801,36.856,119.367       c8.473,23.04,19.017,51.715,31.869,86.967c17.009,46.055,49.59,55.73,73.924,55.73c31.256,0,55.447-15.156,68.115-42.677       C248.396,370.348,251.944,368.076,255.848,368.076z" style="fill:#256EAD;"/></g></g><g><path d="M431.564,188.297l-58.906,158.514c-7.115,19.307-19.063,33.438-41.542,33.438      c-21.06,0-33.582-11.148-39.557-30.456l-35.289-105.489h-0.854l-35.289,105.489c-6.253,19.316-18.776,30.187-39.547,30.187      c-22.479,0-34.436-14.14-41.542-33.439L80.695,189.114c-4.833-13.324-7.115-21.481-7.115-30.996      c0-14.68,14.23-26.376,34.437-26.376c16.792,0,28.739,10.601,32.441,26.098l39.557,125.615h0.853l40.123-122.893      c5.408-17.671,14.795-28.82,35.001-28.82c20.206,0,29.593,10.879,35.001,28.82l40.123,122.893h0.854l39.557-125.615      c3.701-15.497,15.65-26.098,32.441-26.098c19.917,0,34.436,11.966,34.436,32.081      C438.117,170.895,434.702,178.234,431.564,188.297L431.564,188.297z" style="fill:#FFFFFF;"/><g><path d="M331.116,390.248c-24.499,0-41.466-12.928-49.075-37.388l-26.198-78.313l-26.232,78.418       c-7.828,24.183-24.793,37.014-49.031,37.014c-24.022,0-41.157-13.452-50.926-39.984L71.318,192.589       c-5.14-14.171-7.738-23.365-7.738-34.471c0-20.738,19.104-36.376,44.437-36.376c20.594,0,37.072,13.101,42.08,33.413       l30.509,96.884l30.85-94.492c7.401-24.093,21.97-35.805,44.537-35.805c22.671,0,37.243,11.719,44.542,35.824l30.845,94.473       l30.509-96.885c5.009-20.311,21.487-33.412,42.08-33.412c26.163,0,44.436,17.304,44.436,42.081c0,0.135-0.003,0.27-0.008,0.404       c-0.264,6.519-2.416,12.727-4.694,19.299c-0.854,2.463-1.737,5.01-2.59,7.747c-0.054,0.17-0.111,0.339-0.173,0.506       l-58.906,158.514C372.265,376.797,355.131,390.248,331.116,390.248z M255.416,234.303h0.854c4.301,0,8.119,2.75,9.483,6.828       l35.289,105.489c0.024,0.072,0.047,0.145,0.069,0.217c5.011,16.191,14.265,23.412,30.004,23.412       c15.386,0,25.304-8.295,32.159-26.896L422.1,185.06c0.921-2.938,1.867-5.667,2.705-8.083c1.9-5.483,3.408-9.835,3.598-13.369       c-0.094-13.697-9.213-21.866-24.435-21.866c-11.469,0-19.96,6.886-22.715,18.42c-0.055,0.229-0.117,0.457-0.188,0.681       l-39.557,125.616c-1.312,4.164-5.172,6.996-9.538,6.996h-0.854c-4.327,0-8.163-2.783-9.506-6.896l-40.123-122.893       c-0.024-0.072-0.047-0.145-0.068-0.217c-4.77-15.824-11.661-21.707-25.427-21.707c-13.693,0-20.587,5.894-25.439,21.747       c-0.018,0.06-0.037,0.119-0.056,0.177l-40.123,122.893c-1.343,4.113-5.179,6.896-9.506,6.896h-0.853       c-4.366,0-8.227-2.832-9.538-6.996l-39.557-125.616c-0.071-0.224-0.134-0.451-0.188-0.68       c-2.755-11.535-11.247-18.421-22.714-18.421c-13.931,0-24.437,7.04-24.437,16.376c0,8.183,2.101,15.415,6.516,27.586       l58.319,157.36c6.856,18.619,16.774,26.914,32.166,26.914c15.562,0,24.824-7.176,30.034-23.267l35.319-105.582       C247.297,237.052,251.116,234.303,255.416,234.303z" style="fill:#256EAD;"/></g></g></g></g></g><g id="Layer_1"/></svg>