<?xml version="1.0" ?><!DOCTYPE svg  PUBLIC '-//W3C//DTD SVG 1.1//EN'  'http://www.w3.org/Graphics/SVG/1.1/DTD/svg11.dtd'><svg height="512px" style="enable-background:new 0 0 512 512;" version="1.1" viewBox="0 0 512 512" width="512px" xml:space="preserve" xmlns="http://www.w3.org/2000/svg" xmlns:xlink="http://www.w3.org/1999/xlink"><g id="comp_x5F_373-weibo"><g><g><g><path d="M390.07,197.087c6.649-20.999-11.726-40.948-32.725-36.486      c-19.249,4.201-25.199-24.586-6.212-28.698c43.835-9.538,80.759,32.461,66.935,74.197      C412.118,224.649,384.12,215.549,390.07,197.087z" style="fill:#E99315;"/><g><path d="M404.619,226.273c-8.207,0-16.221-4.003-20.914-10.446c-4.552-6.249-5.671-13.993-3.152-21.807       c2.474-7.812-0.599-13.689-2.652-16.493c-3.465-4.732-8.928-7.557-14.613-7.557c-1.275,0-2.575,0.139-3.863,0.413       c-1.913,0.417-3.882,0.636-5.798,0.636c-0.001,0-0.004,0-0.005,0c-12.485,0.001-22.547-9.353-23.928-22.242       c-1.385-12.925,6.562-23.883,19.324-26.646c4.859-1.057,9.8-1.595,14.674-1.595c21.381,0,41.748,10.527,54.482,28.16       c12.828,17.763,16.25,39.832,9.388,60.55C424.203,219.714,415.401,226.273,404.619,226.273z M363.287,149.97       c12.037,0,23.532,5.885,30.75,15.741c7.302,9.971,9.331,22.508,5.566,34.395c-0.718,2.229-0.19,3.316,0.268,3.945       c0.953,1.308,2.905,2.221,4.748,2.221c2.027,0,3.201-0.965,3.927-3.228c4.849-14.638,2.438-30.147-6.586-42.641       c-8.984-12.441-23.291-19.869-38.269-19.869c-3.447,0-6.957,0.383-10.432,1.14c-1.025,0.222-4.117,0.892-3.681,4.971       c0.078,0.73,0.641,4.373,4.043,4.373c0.486,0,1.021-0.063,1.591-0.188C357.919,150.256,360.617,149.97,363.287,149.97z" style="fill:#AF6E10;"/></g></g><g><path d="M218.006,442.277c-93.008,0-187.941-44.973-187.941-119.254      c0-38.764,24.498-83.473,66.759-125.733c87.235-87.235,177.794-88.285,151.894-4.989c-3.5,11.462,10.763,4.989,10.763,5.25      c69.561-29.397,122.933-14.699,99.746,44.973c-3.238,8.225,0.962,9.538,7.262,11.461      C485.22,290.998,396.936,442.277,218.006,442.277L218.006,442.277z" style="fill:#D52A2C;"/><g><path d="M218.006,452.277c-48.817,0-97.611-12.073-133.87-33.123       c-41.317-23.987-64.072-58.128-64.072-96.131c0-40.702,24.749-87.866,69.688-132.804       c43.451-43.451,90.943-69.393,127.04-69.393c16.783,0,29.925,5.801,38.005,16.775c6.162,8.369,11.768,23.384,5.927,48.633       c22.031-8.746,42.854-13.35,60.512-13.35c21.563,0,37.614,6.802,46.42,19.672c6.181,9.032,11.371,25.299,1.566,51.809       c0.063,0.019,0.125,0.038,0.186,0.057c43.547,13.574,66.12,43.949,60.438,81.269c-4.748,31.184-28.485,62.696-65.127,86.459       C336.492,430.455,288.124,452.277,218.006,452.277z M216.792,140.827c-23.864,0-66.054,16.691-112.898,63.535       c-41.162,41.16-63.83,83.301-63.83,118.662c0,39.191,29.427,64.502,54.114,78.834c33.299,19.332,78.432,30.42,123.828,30.42       c50.892,0,99.131-13.107,135.832-36.908c31.382-20.352,52.405-47.525,56.236-72.688c4.184-27.478-12.353-48.483-46.563-59.147       c-4.83-1.476-10.91-3.332-13.94-9.609c-3.073-6.369-0.497-12.913,0.35-15.063c4.152-10.688,7.753-25.478,1.229-35.01       c-4.839-7.072-15.462-10.966-29.914-10.966c-16.373,0-36.382,4.799-57.864,13.877c-0.481,0.204-0.975,0.368-1.474,0.492       c-2.769,0.936-6.066,1.885-9.594,1.885c-6.548,0-10.03-3.383-11.523-5.399c-1.942-2.624-3.801-7.245-1.629-14.359       c5.545-17.834,5.376-31.995-0.46-39.921C234.475,143.731,227.106,140.827,216.792,140.827z" style="fill:#A02021;"/></g></g><g><path d="M343.754,310.129c-4.468-46.078-64.937-77.762-135.168-70.895      c-70.147,7.113-123.089,49.881-118.622,95.958c4.467,46.074,64.937,77.758,135.167,70.893      C295.278,398.969,348.221,356.203,343.754,310.129z" style="fill:#FFFFFF;"/><g><path d="M206.107,417.019c-0.004,0-0.007,0-0.011,0c-31.914-0.002-62.08-7.705-84.941-21.691       c-24.273-14.851-38.885-35.864-41.144-59.171c-2.495-25.733,9.934-51.065,34.996-71.331       c23.849-19.284,56.724-31.906,92.57-35.541c6.705-0.655,13.437-0.986,20.047-0.986c31.914,0,62.079,7.703,84.94,21.691       c24.271,14.85,38.883,35.866,41.143,59.174c2.495,25.731-9.934,51.063-34.997,71.328       c-23.848,19.283-56.724,31.904-92.569,35.541C219.437,416.688,212.708,417.019,206.107,417.019z M227.624,248.299       c-5.962,0-12.041,0.299-18.065,0.888c-64.354,6.525-113.555,44.676-109.642,85.04c3.47,35.794,49.118,62.789,106.18,62.792       c0.003,0,0.007,0,0.01,0c5.954,0,12.027-0.298,18.051-0.887c64.353-6.528,113.555-44.678,109.642-85.038       C330.329,275.295,284.684,248.299,227.624,248.299z" style="fill:#A02021;"/></g></g><g><path d="M338.359,72.406c-22.66,4.9-14.699,38.236,7.264,33.511      c63.258-13.299,117.943,46.198,97.732,108.495c-6.476,21.174,25.46,32.374,32.723,10.5      C503.99,137.591,427.868,53.507,338.359,72.406L338.359,72.406z" style="fill:#E99315;"/><g><path d="M460.496,246.788C460.495,246.788,460.495,246.788,460.496,246.788       c-8.923,0-17.705-4.38-22.921-11.431c-5.057-6.834-6.4-15.312-3.782-23.87c0.017-0.054,0.033-0.108,0.051-0.162       c7.452-22.971,3.697-47.192-10.303-66.452c-14.035-19.309-36.479-30.836-60.041-30.836c-5.24,0-10.563,0.56-15.819,1.666       c-2.055,0.442-4.159,0.671-6.21,0.671c-13.837,0-24.992-10.414-26.525-24.761c-1.5-14.027,7.26-25.945,21.301-28.981       c9.16-1.935,18.398-2.91,27.505-2.91c40.598,0,79.285,19.788,103.487,52.933c24.408,33.428,31.103,75.454,18.365,115.302       c-0.012,0.035-0.023,0.071-0.035,0.106C481.733,239.613,472.126,246.788,460.496,246.788z M452.898,217.403       c-0.723,2.414-0.476,4.396,0.754,6.059c1.472,1.989,4.222,3.326,6.844,3.326c2.962,0,4.95-1.629,6.076-4.98       c10.744-33.679,5.102-69.162-15.486-97.358c-20.45-28.007-53.1-44.728-87.335-44.728c-7.721,0-15.568,0.831-23.326,2.468       c-4.117,0.891-6.015,3.349-5.593,7.297c0.254,2.382,1.97,6.887,6.639,6.887c0.639,0,1.328-0.079,2.049-0.234       c6.653-1.399,13.36-2.103,19.98-2.103c29.94,0,58.434,14.608,76.219,39.077C457.506,157.584,462.307,188.302,452.898,217.403z" style="fill:#AF6E10;"/></g></g><path d="M266.188,340.664c-13.787,31.281-53.855,48.373-87.959,37.328c-32.895-10.563-46.761-43.053-32.491-72.32     c14.27-28.541,50.873-44.664,83.364-36.361C262.964,278.021,279.976,309.785,266.188,340.664z"/><path d="M199.858,310.592c-9.046-3.787-21.037,0.211-26.647,9.047c-5.821,9.045-3.016,19.635,6.031,23.842     c9.186,4.207,21.598,0.211,27.418-9.047C212.271,325.248,209.255,314.588,199.858,310.592z" style="fill:#FFFFFF;"/><path d="M219.482,308.713c5.204,1.742,11.629-0.607,14.588-5.504c2.96-5.205,1.428-10.816-3.772-13.166     c-5.204-2.041-11.937,0.309-14.896,5.512C212.546,300.859,214.281,306.678,219.482,308.713z" style="fill:#FFFFFF;"/></g></g></g><g id="Layer_1"/></svg>