<?xml version="1.0" ?><!DOCTYPE svg  PUBLIC '-//W3C//DTD SVG 1.1//EN'  'http://www.w3.org/Graphics/SVG/1.1/DTD/svg11.dtd'><svg height="512px" style="enable-background:new 0 0 512 512;" version="1.1" viewBox="0 0 512 512" width="512px" xml:space="preserve" xmlns="http://www.w3.org/2000/svg" xmlns:xlink="http://www.w3.org/1999/xlink"><g id="comp_x5F_376-whmcs"><g><g><g><g><path d="M445.745,154.9v-14.679l-19.641-6.063l-1.516-7.168l13.852-14.265l-7.167-13.37l-19.985,5.168       l-4.962-5.168l5.169-19.434l-13.162-7.995l-14.679,14.473l-7.374-2.205l-4.824-18.193h-15.575l-4.272,18.193l-8.339,2.205       l-13.576-14.473l-13.369,7.581l5.581,19.09l-5.581,5.789l-19.641-5.169l-7.581,13.162l14.266,14.473l-1.998,7.168       l-19.641,5.374l-0.207,14.955l19.848,5.169l1.654,8.338l-13.853,13.714l7.167,12.75l20.398-5.169l4.962,5.927l-5.582,18.538       l13.715,7.994l13.369-14.059l7.993,1.999l4.618,19.64l15.574,0.208l4.617-19.848l7.994-2.412l14.266,14.886l14.059-8.34       l-6.064-19.296l5.375-5.582l19.848,6.064l7.098-13.852l-14.402-12.956l1.515-8.339L445.745,154.9z M363.6,176.051       c-16.059,0-29.143-13.033-29.143-29.145c0-16.11,13.031-29.143,29.143-29.143s29.143,13.032,29.143,29.143       C392.742,163.068,379.711,176.051,363.6,176.051z" style="fill:#DCDAE0;"/></g><g><g><path d="M371.389,239.398c-0.046,0-0.09,0-0.136-0.001l-15.574-0.208        c-4.591-0.061-8.55-3.241-9.601-7.71l-2.346-9.975l-6.654,6.997c-3.193,3.358-8.277,4.082-12.282,1.749l-13.715-7.994        c-3.995-2.329-5.873-7.094-4.539-11.523l2.83-9.399l-10.577,2.68c-4.381,1.111-8.96-0.855-11.173-4.794l-7.167-12.75        c-2.206-3.924-1.518-8.839,1.682-12.006l7.693-7.617l-10.828-2.82c-4.455-1.16-7.542-5.212-7.479-9.815l0.207-14.955        c0.062-4.455,3.063-8.332,7.36-9.507l10.311-2.821l-7.421-7.528c-3.155-3.202-3.787-8.116-1.543-12.011l7.581-13.162        c2.253-3.91,6.849-5.827,11.21-4.68l10.413,2.741l-2.916-9.974c-1.302-4.453,0.63-9.216,4.666-11.505l13.369-7.581        c4.016-2.278,9.068-1.51,12.226,1.857l7.068,7.534l2.091-8.905c1.062-4.519,5.093-7.714,9.735-7.714h15.575        c4.536,0,8.503,3.053,9.666,7.437l2.399,9.049l7.791-7.682c3.264-3.217,8.299-3.803,12.212-1.426l13.162,7.995        c3.792,2.303,5.613,6.83,4.473,11.117l-2.613,9.826l10.224-2.644c4.47-1.155,9.14,0.894,11.317,4.957l7.167,13.37        c2.058,3.838,1.395,8.567-1.64,11.691l-7.488,7.712l10.569,3.263c4.191,1.294,7.05,5.168,7.05,9.555V154.9        c0,4.622-3.167,8.642-7.661,9.723L438,167.049l7.266,6.536c3.373,3.034,4.281,7.958,2.212,11.995l-7.098,13.852        c-2.209,4.312-7.188,6.418-11.821,5.003l-9.581-2.927l2.885,9.179c1.392,4.427-0.446,9.23-4.438,11.599l-14.059,8.34        c-3.997,2.373-9.105,1.676-12.321-1.682l-7.471-7.795l-2.446,10.516C380.072,236.198,376.031,239.398,371.389,239.398z         M343.201,197.551c0.808,0,1.622,0.098,2.426,0.299l7.993,1.999c3.632,0.908,6.452,3.769,7.309,7.412l2.685,11.417        l2.65-11.394c0.812-3.487,3.425-6.274,6.852-7.308l7.994-2.412c3.603-1.086,7.507-0.061,10.108,2.655l8.772,9.153l0.417-0.248        l-3.689-11.739c-1.097-3.489-0.2-7.299,2.337-9.934l5.375-5.582c2.611-2.712,6.529-3.728,10.125-2.627l10.746,3.283        l-7.813-7.028c-2.579-2.319-3.771-5.81-3.151-9.222l1.515-8.339c0.708-3.897,3.649-7.009,7.5-7.936l11.339-2.728        l-11.536-3.561c-3.467-1.071-6.083-3.936-6.834-7.486l-1.515-7.168c-0.689-3.258,0.289-6.646,2.609-9.035l8.757-9.019        l-0.001-0.001l-12.379,3.201c-3.501,0.904-7.214-0.149-9.717-2.756l-4.963-5.168c-2.419-2.52-3.349-6.12-2.45-9.496        l3.245-12.202l-0.104-0.063l-9.129,9c-2.599,2.563-6.389,3.504-9.886,2.46l-7.374-2.205c-3.333-0.997-5.909-3.655-6.801-7.018        l-2.83-10.671l-2.44,10.395c-0.845,3.598-3.605,6.437-7.179,7.381l-8.339,2.205c-3.553,0.94-7.335-0.145-9.85-2.826        l-7.581-8.082l3.108,10.632c1.007,3.444,0.091,7.164-2.399,9.747l-5.581,5.789c-2.515,2.609-6.243,3.651-9.744,2.73        l-12.128-3.192l8.839,8.967c2.515,2.552,3.473,6.254,2.511,9.705l-1.998,7.168c-0.944,3.389-3.601,6.032-6.994,6.96        l-11.621,3.18l11.503,2.996c3.711,0.966,6.542,3.97,7.288,7.731l1.654,8.338c0.653,3.292-0.389,6.692-2.773,9.053        l-7.554,7.479l11.775-2.984c3.719-0.942,7.657,0.329,10.124,3.274l4.962,5.927c2.161,2.582,2.878,6.079,1.907,9.303        l-3.308,10.987l0.068,0.04l7.92-8.328C337.866,198.65,340.497,197.551,343.201,197.551z M363.6,186.051        c-21.583,0-39.143-17.56-39.143-39.145c0-21.583,17.56-39.143,39.143-39.143s39.143,17.559,39.143,39.143        C402.742,168.491,385.183,186.051,363.6,186.051z M363.6,127.764c-10.556,0-19.143,8.587-19.143,19.143        c0,10.556,8.587,19.145,19.143,19.145s19.143-8.588,19.143-19.145C382.742,136.351,374.155,127.764,363.6,127.764z" style="fill:#A5A4A8;"/></g></g></g><g><path d="M437.803,221.662l48.145,14.885v40.96l-56.563,13.757l-4.209,23.302l39.935,36.237      l-19.712,38.906l-55.433-17.144l-14.988,15.603l17.143,53.894l-39.315,23.305l-39.933-41.574l-22.276,6.772l-12.937,55.435      l-43.524-0.512l-12.936-55.024l-22.276-5.748l-37.365,39.419l-38.394-22.276l15.604-51.842l-14.064-16.527l-56.974,14.476      l-20.224-35.726l38.908-38.392l-4.928-23.405l-55.433-14.476l0.513-41.985l54.92-15.091l5.851-20.222l-39.933-40.447      l21.25-36.75l55.024,14.475l15.604-16.118l-15.604-53.38l37.366-21.249l37.777,40.446l23.303-6.262l11.908-53.382h43.527      l11.907,47.119l-23.199-6.056l-6.468-1.747l-3.388,5.852l-11.293,19.607l-3.387,5.749l4.722,4.722l17.655,17.862l-0.307,1.027      l-24.432,6.673l-6.364,1.744l-0.103,6.57l-0.207,13.242c-48.761,10.676-85.511,54.203-85.511,106.248      c0,59.848,48.557,108.507,108.506,108.507c51.843,0,95.163-36.341,105.941-85l13.55,0.206l7.083,0.103l1.643-6.877l5.749-24.637      l1.95-0.617l17.556,18.274l4.824,5.027l5.952-3.487l20.943-12.423l5.954-3.592l-2.053-6.674L437.803,221.662L437.803,221.662z" style="fill:#73CB0B;"/><g><path d="M277.66,495.999c-0.039,0-0.079,0-0.118-0.001l-43.525-0.512       c-4.597-0.054-8.565-3.235-9.617-7.71l-11.553-49.141l-10.72-2.767l-33.313,35.145c-3.188,3.362-8.268,4.095-12.276,1.77       l-38.394-22.276c-4.006-2.324-5.892-7.096-4.557-11.531l14.034-46.627l-6.496-7.634l-50.934,12.941       c-4.372,1.108-8.944-0.843-11.165-4.767l-20.224-35.726c-2.226-3.933-1.538-8.87,1.679-12.044l35.021-34.557l-2.528-12.009       l-49.449-12.913c-4.446-1.161-7.528-5.203-7.472-9.798l0.513-41.985c0.054-4.457,3.052-8.339,7.35-9.521l49.52-13.607       l2.665-9.21l-35.813-36.275c-3.165-3.206-3.796-8.131-1.541-12.031l21.25-36.75c2.255-3.901,6.843-5.813,11.201-4.665       l49.365,12.986l7.488-7.735L114.08,69.253c-1.3-4.448,0.626-9.208,4.655-11.499l37.366-21.249       c4.024-2.288,9.092-1.515,12.251,1.867l33.676,36.056l11.654-3.132l10.589-47.473c1.02-4.571,5.076-7.823,9.76-7.823h43.527       c4.579,0,8.573,3.11,9.695,7.55l11.907,47.119c0.866,3.428-0.142,7.059-2.652,9.549c-2.509,2.49-6.146,3.473-9.568,2.577       l-22.329-5.829l-10.344,17.96l16.954,17.152c2.567,2.598,3.515,6.39,2.47,9.89l-0.307,1.027       c-0.988,3.31-3.614,5.876-6.947,6.786l-23.549,6.432l-0.192,12.307c-0.072,4.64-3.327,8.62-7.86,9.612       c-44.993,9.851-77.65,50.426-77.65,96.479c0,54.316,44.19,98.507,98.506,98.507c45.825,0,86.274-32.451,96.178-77.163       c1.016-4.583,5.081-7.837,9.762-7.837c0.052,0,0.103,0,0.154,0.001l12.61,0.192l5.523-23.671       c0.802-3.437,3.356-6.197,6.721-7.262l1.95-0.617c3.627-1.147,7.593-0.138,10.229,2.606l16.916,17.609l19.235-11.41       l-6.69-20.854c-1.139-3.55-0.208-7.438,2.414-10.088c2.623-2.651,6.501-3.622,10.063-2.52l48.145,14.885       c4.189,1.295,7.046,5.168,7.046,9.554v40.96c0,4.612-3.155,8.627-7.637,9.717l-50.241,12.22l-2.067,11.442l35.828,32.512       c3.335,3.025,4.236,7.908,2.2,11.925l-19.712,38.906c-2.202,4.348-7.217,6.473-11.875,5.034l-49.539-15.321l-6.594,6.864       l15.339,48.225c1.411,4.437-0.426,9.26-4.431,11.634l-39.315,23.305c-3.993,2.369-9.093,1.674-12.311-1.675l-35.683-37.149       l-10.887,3.31l-11.626,49.817C286.341,492.802,282.302,495.999,277.66,495.999z M242.078,475.58l27.668,0.325l11.111-47.613       c0.812-3.477,3.414-6.257,6.829-7.295l22.276-6.772c3.604-1.095,7.515-0.076,10.121,2.641l34.441,35.856l25.654-15.207       l-14.731-46.315c-1.111-3.493-0.222-7.315,2.317-9.959l14.988-15.603c2.619-2.727,6.55-3.743,10.167-2.626l47.371,14.65       l12.452-24.577l-34.288-31.114c-2.555-2.317-3.734-5.788-3.121-9.183l4.209-23.302c0.703-3.893,3.635-7.005,7.478-7.939       l48.926-11.899v-25.725l-22.759-7.037l1.118,3.484c0.012,0.038,0.023,0.077,0.035,0.115l2.053,6.674       c1.351,4.388-0.461,9.131-4.393,11.502l-5.954,3.592l-27.005,15.976c-3.994,2.338-9.068,1.634-12.271-1.704L395.706,265       l-3.714,15.753c-1.076,4.506-5.104,7.677-9.725,7.677c-0.049,0-0.098,0-0.146-0.001l-12.784-0.189       c-6.763,22.784-20.397,43.292-38.968,58.389c-21.016,17.084-47.537,26.493-74.678,26.493       c-65.345,0-118.506-53.162-118.506-118.507c0-27.229,9.491-53.85,26.724-74.961c15.263-18.698,35.959-32.377,58.908-39.08       l0.191-12.176c0.069-4.446,3.067-8.313,7.355-9.488l15.34-4.196l-11.043-11.117c-3.224-3.223-3.859-8.219-1.545-12.147       l3.387-5.749l14.644-25.394c2.27-3.92,6.892-5.825,11.261-4.643l6.468,1.747l6.753,1.762l-5.855-23.172h-27.725L231.884,81.56       c-0.811,3.632-3.571,6.514-7.165,7.48l-23.303,6.262c-3.57,0.962-7.379-0.129-9.903-2.832l-32.389-34.677l-23.63,13.438       l13.385,45.79c1.009,3.451,0.087,7.178-2.413,9.761l-15.604,16.118c-2.514,2.597-6.234,3.636-9.729,2.715l-47.643-12.533       l-13.611,23.54l34.574,35.019c2.544,2.577,3.496,6.327,2.49,9.805l-5.851,20.222c-0.967,3.342-3.602,5.941-6.957,6.863       l-47.662,13.097l-0.326,26.638l47.865,12.499c3.667,0.958,6.478,3.906,7.259,7.615l4.928,23.405       c0.701,3.33-0.339,6.788-2.762,9.179l-33.456,33.012l12.688,22.414l49.571-12.595c3.695-0.939,7.606,0.308,10.078,3.212       l14.064,16.527c2.201,2.586,2.938,6.111,1.96,9.362l-13.326,44.275l24.721,14.344l31.927-33.682       c2.501-2.638,6.237-3.712,9.756-2.803l22.276,5.748c3.599,0.929,6.386,3.776,7.236,7.395L242.078,475.58z" style="fill:#569808;"/></g></g></g></g></g><g id="Layer_1"/></svg>