<?xml version="1.0" ?><!DOCTYPE svg  PUBLIC '-//W3C//DTD SVG 1.1//EN'  'http://www.w3.org/Graphics/SVG/1.1/DTD/svg11.dtd'><svg height="512px" style="enable-background:new 0 0 512 512;" version="1.1" viewBox="0 0 512 512" width="512px" xml:space="preserve" xmlns="http://www.w3.org/2000/svg" xmlns:xlink="http://www.w3.org/1999/xlink"><g id="comp_x5F_381-word"><g><g><g><path d="M442.876,241.591c7.933,0,14.373-6.458,14.373-14.421c0-7.951-6.44-14.413-14.373-14.413H313.497      v-28.822h129.379c7.933,0,14.373-6.457,14.373-14.415c0-7.956-6.44-14.414-14.373-14.414H313.497V54.21      c-0.001-4.3-1.892-8.335-5.198-11.073c-3.282-2.765-7.681-3.916-11.819-3.08L66.482,83.298      c-6.788,1.266-11.731,7.233-11.731,14.151v317.103c0,6.917,4.917,12.888,11.731,14.154l229.997,43.243      c0.894,0.176,1.754,0.26,2.646,0.26c3.334,0,6.582-1.155,9.172-3.315c3.309-2.74,5.199-6.807,5.199-11.098V356.896h129.379      c7.933,0,14.373-6.456,14.373-14.409c0-7.954-6.44-14.413-14.373-14.413H313.497v-28.831h129.379      c7.933,0,14.373-6.459,14.373-14.414c0-7.96-6.44-14.414-14.373-14.414H313.497v-28.823H442.876z" style="fill:#2A5699;"/><g><path d="M299.126,482.21c-1.548,0-3.045-0.146-4.576-0.448L64.635,438.535       c-11.513-2.141-19.884-12.228-19.884-23.982V97.45c0-11.746,8.368-21.832,19.898-23.982L294.577,30.24       c1.504-0.299,3.048-0.45,4.59-0.45c5.68,0,11.211,2.024,15.574,5.699c5.539,4.586,8.754,11.428,8.756,18.719v90.899h119.379       c13.439,0,24.373,10.952,24.373,24.414c0,13.462-10.934,24.415-24.373,24.415H323.497v8.822h119.379       c13.439,0,24.373,10.952,24.373,24.413c0,13.466-10.934,24.421-24.373,24.421H323.497v8.823h119.379       c13.439,0,24.373,10.952,24.373,24.414s-10.934,24.414-24.373,24.414H323.497v8.831h119.379       c13.439,0,24.373,10.951,24.373,24.413c0,13.459-10.934,24.409-24.373,24.409H323.497v90.901c0,7.305-3.215,14.156-8.82,18.799       C310.346,480.208,304.813,482.21,299.126,482.21z M299.167,49.79c-0.242,0-0.479,0.023-0.708,0.069l-0.132,0.025L68.33,93.126       c-2.08,0.388-3.579,2.205-3.579,4.324v317.103c0,2.121,1.497,3.939,3.559,4.322l230.017,43.247       c0.338,0.066,0.553,0.088,0.799,0.088c1.015,0,1.997-0.354,2.767-0.995c1.029-0.853,1.604-2.09,1.604-3.418V346.896h139.379       c2.411,0,4.373-1.978,4.373-4.409c0-2.434-1.962-4.413-4.373-4.413H303.497v-48.831h139.379c2.411,0,4.373-1.98,4.373-4.414       s-1.962-4.414-4.373-4.414H303.497v-48.823h139.379c2.411,0,4.373-1.983,4.373-4.421c0-2.434-1.962-4.413-4.373-4.413H303.497       v-48.822h139.379c2.411,0,4.373-1.98,4.373-4.415c0-2.434-1.962-4.414-4.373-4.414H303.497V54.21       c0-1.332-0.56-2.529-1.575-3.37C301.105,50.153,300.125,49.79,299.167,49.79z" style="fill:#204173;"/></g></g><path d="M255.917,199.933l-14.376,129.753c-0.749,6.598-5.925,11.876-12.507,12.684     c-0.605,0.084-1.181,0.113-1.782,0.113c-5.924,0-11.331-3.689-13.455-9.34l-29.674-79.331l-29.669,79.331     c-2.299,6.172-8.339,9.944-15.003,9.258c-6.529-0.696-11.762-5.771-12.68-12.315l-14.378-100.895     c-1.122-7.844,4.343-15.16,12.19-16.29c7.876-1.146,15.151,4.357,16.271,12.228l6.412,45.086l23.377-62.528     c4.194-11.244,22.711-11.244,26.937,0l22.017,58.861l7.736-69.818c0.889-7.899,8.197-13.575,15.874-12.737     C251.109,184.909,256.776,192.032,255.917,199.933z" style="fill:#FFFFFF;"/></g></g></g><g id="Layer_1"/></svg>