<?xml version="1.0" ?><!DOCTYPE svg  PUBLIC '-//W3C//DTD SVG 1.1//EN'  'http://www.w3.org/Graphics/SVG/1.1/DTD/svg11.dtd'><svg height="512px" style="enable-background:new 0 0 512 512;" version="1.1" viewBox="0 0 512 512" width="512px" xml:space="preserve" xmlns="http://www.w3.org/2000/svg" xmlns:xlink="http://www.w3.org/1999/xlink"><g id="comp_x5F_382-wordpress"><g><g><g><path d="M256,36.001c-121.266,0-220,98.645-220,219.999c0,121.267,98.733,219.999,220,219.999      S475.999,377.267,475.999,256C475.999,134.646,377.267,36.001,256,36.001z M58.178,256c0-28.653,6.121-55.887,17.121-80.459      l94.386,258.499C103.685,401.927,58.178,334.241,58.178,256z M256,453.819c-19.428,0-38.145-2.837-55.888-8.07l59.346-172.45      l60.767,166.595c0.444,0.978,0.887,1.864,1.419,2.751C301.153,449.83,279.063,453.819,256,453.819z M283.232,163.3      c11.887-0.621,22.622-1.863,22.622-1.863c10.646-1.242,9.404-16.944-1.242-16.323c0,0-32.023,2.484-52.693,2.484      c-19.428,0-52.073-2.484-52.073-2.484c-10.644-0.621-11.886,15.702-1.242,16.323c0,0,10.114,1.242,20.76,1.863l30.781,84.45      l-43.29,129.782L134.823,163.3c11.888-0.621,22.621-1.863,22.621-1.863c10.645-1.242,9.403-16.944-1.242-16.323      c0,0-32.024,2.484-52.693,2.484c-3.726,0-8.073-0.089-12.774-0.267c35.395-53.67,96.16-89.152,165.266-89.152      c51.451,0,98.377,19.692,133.595,51.895c-0.887-0.088-1.686-0.178-2.573-0.178c-19.426,0-33.175,16.945-33.175,35.129      c0,16.323,9.402,30.072,19.426,46.396c7.539,13.129,16.322,30.072,16.322,54.557c0,16.943-6.476,36.546-15.079,63.959      l-19.694,65.911L283.232,163.3L283.232,163.3z M355.442,426.942l60.411-174.668c11.269-28.209,15.082-50.742,15.082-70.879      c0-7.274-0.444-14.016-1.331-20.315c15.435,28.21,24.216,60.501,24.216,94.92C453.82,329.01,414.258,392.7,355.442,426.942z" style="fill:#FFFFFF;"/><path d="M256,480.999c-124.065,0-225-100.935-225-224.999c0-124.065,100.935-224.999,225-224.999      S480.999,131.935,480.999,256C480.999,380.064,380.065,480.999,256,480.999z M256,41.001c-118.551,0-215,96.448-215,214.999      s96.448,214.999,215,214.999c118.55,0,214.999-96.448,214.999-214.999S374.551,41.001,256,41.001z M256,458.819      c-19.408,0-38.688-2.784-57.302-8.274c-1.309-0.387-2.403-1.291-3.029-2.504c-0.626-1.213-0.729-2.629-0.285-3.919      l59.346-172.45c0.689-2.002,2.565-3.354,4.682-3.373c0.016,0,0.031,0,0.046,0c2.1,0,3.977,1.312,4.697,3.287l60.699,166.408      c0.386,0.84,0.721,1.485,1.076,2.077c0.773,1.289,0.926,2.857,0.416,4.271c-0.511,1.413-1.63,2.522-3.049,3.021      C301.62,454.965,278.978,458.819,256,458.819z M206.565,442.365c16.126,4.284,32.731,6.454,49.436,6.454      c20.028,0,39.786-3.079,58.817-9.16l-55.222-151.394L206.565,442.365z M169.685,439.04c-0.743,0-1.491-0.165-2.187-0.504      c-33.748-16.421-62.287-41.846-82.53-73.526c-20.797-32.547-31.79-70.242-31.79-109.01c0-28.721,5.907-56.478,17.558-82.502      c0.832-1.857,2.729-3.01,4.741-2.954c2.034,0.072,3.821,1.37,4.52,3.282l94.386,258.499c0.699,1.915,0.166,4.062-1.348,5.428      C172.096,438.6,170.897,439.04,169.685,439.04z M75.036,189.397C67.162,210.653,63.178,233,63.178,256      c0,70.136,36.989,133.233,97.363,167.573L75.036,189.397z M355.443,431.942c-1.134,0-2.261-0.385-3.177-1.139      c-1.615-1.327-2.232-3.52-1.55-5.496l60.411-174.667c0.025-0.074,0.054-0.148,0.082-0.221      c10.047-25.149,14.726-47.082,14.726-69.024c0-6.973-0.432-13.574-1.282-19.619c-0.337-2.392,1.085-4.682,3.377-5.442      c2.298-0.761,4.801,0.228,5.961,2.346c16.243,29.688,24.829,63.341,24.829,97.32c0,36.123-9.621,71.582-27.823,102.543      c-17.657,30.035-42.914,55.182-73.039,72.721C357.177,431.719,356.308,431.942,355.443,431.942z M420.54,254.02l-55.708,161.071      C416.967,379.363,448.82,319.63,448.82,256c0-23.823-4.439-47.478-12.962-69.574C435.199,207.967,430.284,229.6,420.54,254.02z       M206.855,382.532c-2.147,0-4.055-1.371-4.739-3.406l-72.032-214.232c-0.499-1.482-0.275-3.112,0.604-4.405      c0.879-1.293,2.313-2.1,3.874-2.182c11.581-0.605,22.201-1.825,22.307-1.837c2.83-0.33,3.011-2.508,2.958-3.429      c-0.052-0.886-0.449-2.946-3.016-2.946c-0.104,0-0.209,0.003-0.317,0.01c-1.22,0.095-32.359,2.493-52.984,2.493      c-3.859,0-8.221-0.091-12.963-0.27c-1.804-0.068-3.432-1.104-4.257-2.71c-0.826-1.605-0.722-3.532,0.272-5.04      C124.304,87.347,187.646,53.179,256,53.179c50.803,0,99.447,18.895,136.969,53.205c1.59,1.453,2.069,3.761,1.192,5.728      c-0.879,1.966-2.913,3.15-5.06,2.938l-0.264-0.026c-0.707-0.071-1.266-0.127-1.816-0.127c-17.403,0-28.175,15.639-28.175,30.129      c0,13.575,7.531,25.744,16.252,39.835c0.805,1.299,1.617,2.613,2.435,3.944c0.025,0.042,0.051,0.084,0.075,0.126      c8.219,14.312,16.986,31.703,16.986,57.046c0,16.778-5.834,35.328-13.908,61.002l-1.4,4.454l-19.674,65.846      c-0.624,2.087-2.526,3.53-4.705,3.567c-0.028,0.001-0.058,0.001-0.087,0.001c-2.143,0-4.052-1.367-4.737-3.404l-71.59-212.546      c-0.499-1.482-0.276-3.113,0.603-4.406c0.879-1.294,2.313-2.102,3.875-2.183c11.595-0.606,22.202-1.825,22.308-1.837      c2.83-0.33,3.012-2.508,2.958-3.429c-0.051-0.886-0.448-2.946-3.017-2.946c-0.104,0-0.209,0.003-0.317,0.01      c-1.22,0.095-32.358,2.493-52.984,2.493c-19.395,0-51.112-2.397-52.453-2.499h0c-0.013,0-0.111-0.002-0.206-0.002      c-2.806,0-3.028,2.748-3.044,3.298c-0.039,1.318,0.396,2.917,2.679,3.05c0.106,0.006,0.213,0.016,0.318,0.029      c0.1,0.012,10.089,1.23,20.441,1.834c1.992,0.116,3.724,1.405,4.407,3.279l30.781,84.45c0.387,1.062,0.403,2.223,0.045,3.294      l-43.29,129.782c-0.68,2.039-2.587,3.415-4.737,3.418C206.859,382.532,206.857,382.532,206.855,382.532z M141.641,167.888      l65.195,193.899l38.014-113.964l-29.065-79.742c-8.804-0.614-16.453-1.52-17.644-1.664c-8.065-0.559-12.102-7.098-11.921-13.314      c0.216-7.416,5.822-13.007,13.04-13.007c0.287,0,0.581,0.008,0.877,0.025c0.413,0.031,32.77,2.476,51.782,2.476      c20.235,0,51.988-2.445,52.306-2.469c0.401-0.024,0.7-0.033,0.995-0.033c8.063,0,12.643,6.221,13,12.365      c0.36,6.203-3.572,12.984-11.787,13.942c-0.364,0.042-7.39,0.849-16.38,1.485l64.483,191.448l15.188-50.832l1.422-4.525      c7.808-24.824,13.448-42.759,13.448-58.002c0-22.845-8.057-38.822-15.621-52.002c-0.799-1.3-1.593-2.583-2.378-3.852      c-9.128-14.748-17.749-28.678-17.749-45.098c0-18.642,12.153-34.354,28.569-38.843C343.098,78.37,300.418,63.179,256,63.179      c-61.937,0-119.546,29.511-155.885,79.396c1.181,0.015,2.315,0.023,3.393,0.023c20.241,0,51.988-2.445,52.307-2.469      c0.401-0.024,0.7-0.033,0.995-0.033c8.062,0,12.642,6.221,12.999,12.365c0.361,6.203-3.572,12.984-11.786,13.942      C157.659,166.445,150.633,167.252,141.641,167.888z" style="fill:#32373C;"/></g></g></g></g><g id="Layer_1"/></svg>