<?xml version="1.0" ?><!DOCTYPE svg  PUBLIC '-//W3C//DTD SVG 1.1//EN'  'http://www.w3.org/Graphics/SVG/1.1/DTD/svg11.dtd'><svg height="512px" style="enable-background:new 0 0 512 512;" version="1.1" viewBox="0 0 512 512" width="512px" xml:space="preserve" xmlns="http://www.w3.org/2000/svg" xmlns:xlink="http://www.w3.org/1999/xlink"><g id="comp_x5F_386-wpressr"><g><g><g><path d="M256,36.001c-121.507,0-220,98.493-220,219.999c0,121.505,98.493,219.999,220,219.999      c121.503,0,219.999-98.494,219.999-219.999C475.999,134.494,377.504,36.001,256,36.001z" style="fill:#FFFFFF;"/><path d="M256,485.999c-61.437,0-119.196-23.924-162.636-67.364C49.924,375.194,26.001,317.437,26.001,256      c0-61.437,23.923-119.195,67.364-162.635C136.805,49.925,194.563,26.001,256,26.001c61.436,0,119.194,23.924,162.634,67.364      c43.44,43.44,67.364,101.199,67.364,162.635s-23.924,119.194-67.364,162.635S317.437,485.999,256,485.999z M256,46.001      c-115.794,0-210,94.205-210,209.999s94.206,209.999,210,209.999c115.793,0,209.999-94.205,209.999-209.999      S371.794,46.001,256,46.001z"/></g><path d="M407.987,176.694c-13.468,30.614-26.941,61.228-40.48,91.814c-2.162,4.886-6.111,7.311-11.505,7.311     c-20.421-0.01-40.833,0.052-61.254-0.047c-4.541-0.025-7.319,1.679-9.173,5.962c-9.039,20.899-18.302,41.693-27.456,62.539     c-1.365,3.113-3.601,4.693-7.024,4.693c-40.754-0.008-81.499-0.017-122.251,0c-2.777,0-4.995-1.019-6.848-3.06     c-9.945-10.938-19.924-21.85-29.878-32.771c-2.387-2.617-2.475-5.479-1.073-8.631c7.684-17.333,15.319-34.684,22.967-52.036     c11.471-26.036,22.968-52.063,34.375-78.136c1.509-3.44,3.797-5.039,7.577-5.011c12.631,0.089,25.265,0.017,37.897,0.043     c5.534,0.01,8.16,4.294,5.907,9.396c-12.064,27.296-24.103,54.6-36.14,81.904c-5.075,11.522-10.13,23.056-15.161,34.596     c-3.469,7.94,6.28,10.619,9.713,4.968c0.204-0.327-1.26,3.711,26.623-60.046c1.206-2.75,3.024-3.903,6.005-3.895     c13.492,0.071,26.994,0.018,40.487,0.036c4.932,0.009,7.017,3.229,5.021,7.762c-7.39,16.82-14.824,33.622-22.16,50.467     c-4.417,10.141,7.168,11.08,10.005,4.727c0.037-0.068,24.743-56.179,28.557-64.898c1.792-4.09,4.826-5.775,9.18-5.767     c23.447,0.044,46.894,0,70.339,0.044c11.035,0.019,12.357-12.108,3.459-12.1c-22.406,0.027-44.816,0.018-67.223,0.018     c-5.563,0-6.955-2.19-4.675-7.335c5.125-11.587,10.28-23.162,15.347-34.783c1.533-3.513,4.01-5.136,7.842-5.128     c20.481,0.054,23.047,0.019,116.016,0.027C408.395,169.35,410.125,171.833,407.987,176.694L407.987,176.694z"/></g></g></g><g id="Layer_1"/></svg>