<?xml version="1.0" ?><!DOCTYPE svg  PUBLIC '-//W3C//DTD SVG 1.1//EN'  'http://www.w3.org/Graphics/SVG/1.1/DTD/svg11.dtd'><svg height="512px" style="enable-background:new 0 0 512 512;" version="1.1" viewBox="0 0 512 512" width="512px" xml:space="preserve" xmlns="http://www.w3.org/2000/svg" xmlns:xlink="http://www.w3.org/1999/xlink"><g id="comp_x5F_389-xing"><g><g><g><path d="M225.909,203.964c-1.848,3.389-25.869,45.579-71.961,126.779      c-5.03,8.52-11.088,12.833-18.17,12.833H68.949c-7.904,0-12.42-7.698-8.727-14.782l70.833-124.521c0.205,0,0.205-0.102,0-0.309      l-45.067-77.606c-4.414-8.007,0.309-14.475,8.726-14.475h66.83c7.493,0,13.652,4.21,18.477,12.524L225.909,203.964z" style="fill:#005A5F;"/><g><path d="M135.778,353.576H68.949c-7.185,0-13.615-3.531-17.202-9.447       c-3.635-5.995-3.782-13.457-0.392-19.959c0.057-0.107,0.115-0.215,0.175-0.32l68.08-119.682l-42.269-72.789       c-0.038-0.064-0.074-0.129-0.11-0.194c-3.746-6.796-3.91-14.053-0.451-19.909c3.474-5.882,10.179-9.393,17.935-9.393h66.83       c7.741,0,18.73,3.037,27.126,17.505l45.9,79.58c1.741,3.018,1.785,6.725,0.117,9.784c-1.138,2.085-9.695,17.149-26.744,47.16       c-11.44,20.138-26.542,46.722-45.3,79.768c-0.028,0.05-0.057,0.099-0.085,0.147       C153.899,350.497,143.215,353.576,135.778,353.576z M69.014,333.576h66.764c1.205,0,4.864,0,9.519-7.849       c18.738-33.012,33.826-59.571,45.258-79.694c11.876-20.905,19.902-35.034,23.847-42.006l-43.041-74.624       c-4.364-7.521-8.324-7.521-9.815-7.521H94.955l44.485,76.605c1.905,2.836,2.315,6.42,0.992,9.587       c-0.35,0.837-0.804,1.609-1.344,2.302L69.04,333.519C69.031,333.538,69.022,333.558,69.014,333.576z" style="fill:#004447;"/></g></g><g><path d="M451.646,45.237L303.825,295.431v0.31l94.031,171.021c4.003,7.288,0.207,14.475-8.726,14.475      H322.2c-7.802,0-13.961-4.105-18.479-12.522L208.868,295.74c3.387-5.955,52.867-83.688,148.645-252.453      c4.723-8.314,10.676-12.523,17.967-12.523h67.443C451.135,30.764,455.55,37.642,451.646,45.237L451.646,45.237z" style="fill:#D4D600;"/><g><path d="M389.131,491.236H322.2c-8.092,0-19.396-3.087-27.29-17.793L200.1,300.549       c-1.669-3.044-1.641-6.735,0.076-9.753c0.594-1.044,1.927-3.208,5.153-8.439c15.527-25.176,62.778-101.791,143.487-244.005       c8.257-14.537,19.058-17.588,26.664-17.588h67.443c7.412,0,13.938,3.44,17.456,9.203c3.574,5.855,3.633,13.087,0.162,19.841       c-0.09,0.175-0.185,0.347-0.285,0.516L315.247,295.758l91.372,166.186c3.646,6.64,3.755,14.096,0.291,19.95       C403.397,487.831,396.917,491.236,389.131,491.236z M220.414,295.998l92.075,167.907c3.473,6.47,6.855,7.331,9.711,7.331       h66.705l-93.843-170.678c-0.812-1.477-1.237-3.134-1.237-4.818v-0.31c0-1.789,0.48-3.546,1.391-5.087l147.459-249.58h-67.195       c-1.377,0-5.033,0-9.271,7.462c-80.887,142.528-128.282,219.376-143.856,244.629       C221.646,293.999,220.996,295.055,220.414,295.998z" style="fill:#9FA100;"/></g></g></g></g></g><g id="Layer_1"/></svg>