<?xml version="1.0" ?><!DOCTYPE svg  PUBLIC '-//W3C//DTD SVG 1.1//EN'  'http://www.w3.org/Graphics/SVG/1.1/DTD/svg11.dtd'><svg height="512px" style="enable-background:new 0 0 512 512;" version="1.1" viewBox="0 0 512 512" width="512px" xml:space="preserve" xmlns="http://www.w3.org/2000/svg" xmlns:xlink="http://www.w3.org/1999/xlink"><g id="comp_x5F_390-yahoo"><g><g><g><path d="M281.2,284.345l3.594,195.16c-11.409-1.976-21.113-3.505-29.018-3.505      c-7.547,0-17.25,1.529-29.019,3.505l3.593-195.16c-49.414-85.173-99.188-166.318-156.328-251.85      C84.714,35.281,94.688,36,103.851,36c8.085,0,18.326-0.719,30.636-3.505c36.746,64.866,73.761,114.119,121.289,192.103      c33.511-55.344,81.846-118.969,121.197-192.103C386.947,35.101,396.739,36,406.531,36c10.332,0,20.845-0.899,31.446-3.505      C407.071,75.53,319.743,216.871,281.2,284.345z" style="fill:#8E3B94;"/><path d="M226.757,489.505c-2.379,0-4.7-0.85-6.529-2.426c-2.252-1.941-3.524-4.785-3.469-7.758      l3.542-192.37C167.258,195.621,118.093,116.464,65.708,38.05c-2.306-3.452-2.24-7.97,0.167-11.352      c2.406-3.383,6.653-4.928,10.67-3.88C84.874,24.989,93.551,26,103.851,26c9.443,0,18.742-1.066,28.429-3.258      c4.304-0.972,8.734,0.986,10.909,4.824c20.316,35.865,41.107,67.513,63.118,101.019c15.661,23.839,31.782,48.38,49.499,76.963      c10.631-16.851,22.353-34.379,34.606-52.703c25.063-37.475,53.468-79.95,77.755-125.088c2.187-4.063,6.868-6.104,11.334-4.937      c8.192,2.14,17.034,3.18,27.031,3.18c10.749,0,20.255-1.052,29.06-3.216c4.067-1,8.325,0.641,10.671,4.11      s2.281,8.033-0.162,11.434c-29.974,41.737-115.608,180.16-154.851,248.59l3.531,191.764c0.022,0.271,0.033,0.546,0.033,0.823      c0,5.519-4.47,9.993-9.986,10c-0.571-0.015-1.16-0.045-1.739-0.146c-10.221-1.77-20-3.358-27.312-3.358      c-6.768,0-15.999,1.459-27.364,3.367C227.861,489.459,227.307,489.505,226.757,489.505z M94.835,45.753      c48.461,73.372,94.612,148.16,144.165,233.573c0.916,1.579,1.382,3.378,1.349,5.203l-3.374,183.207      c7.115-1.054,13.337-1.736,18.801-1.736c5.655,0,12.042,0.697,18.799,1.7l-3.373-183.171c-0.033-1.803,0.421-3.58,1.314-5.145      C306.719,219.51,379.106,101.92,416.748,45.7c-3.31,0.201-6.71,0.3-10.217,0.3c-8.723,0-16.766-0.693-24.373-2.109      c-23.892,43.469-51.035,84.056-75.122,120.073c-15.524,23.214-30.188,45.141-42.706,65.814c-1.81,2.988-5.047,4.815-8.54,4.82      c-0.005,0-0.01,0-0.015,0c-3.488,0-6.724-1.817-8.539-4.796c-20.952-34.377-39.606-62.774-57.646-90.236      c-20.908-31.828-40.723-61.99-60.205-95.838C120.804,45.253,112.389,46,103.851,46C100.736,46,97.739,45.919,94.835,45.753z" style="fill:#6B2C6F;"/></g></g></g></g><g id="Layer_1"/></svg>