<?xml version="1.0" ?><!DOCTYPE svg  PUBLIC '-//W3C//DTD SVG 1.1//EN'  'http://www.w3.org/Graphics/SVG/1.1/DTD/svg11.dtd'><svg height="512px" style="enable-background:new 0 0 512 512;" version="1.1" viewBox="0 0 512 512" width="512px" xml:space="preserve" xmlns="http://www.w3.org/2000/svg" xmlns:xlink="http://www.w3.org/1999/xlink"><g id="comp_x5F_393-yelp"><g><g><g><path d="M125.186,242.216l87.555,42.722c16.875,8.262,14.238,32.968-3.954,37.539l-94.5,23.562      c-11.776,2.988-23.476-5.185-24.793-17.227c-2.988-25.849,0-51.336,7.91-74.986      C101.279,242.305,114.375,236.943,125.186,242.216z M163.865,452.492c20.829,14.238,44.656,24.002,69.802,28.221      c11.954,2.022,23.028-6.941,23.389-19.07l3.426-97.399c0.615-18.722-22.41-28.048-34.987-14.15l-65.224,72.437      C152.176,431.564,153.846,445.638,163.865,452.492L163.865,452.492z M291.595,355.883l51.688,82.635      c6.417,10.282,20.479,12.567,29.891,4.833c19.688-16.26,35.429-36.57,46.328-59.421c5.184-10.986-0.438-24.004-11.955-27.782      l-92.652-30.066C297.044,320.368,281.664,339.967,291.595,355.883z M421.962,239.667c-10.371-23.826-25.672-44.48-44.307-60.916      c-9.052-7.998-23.114-6.152-29.891,3.868l-54.5,80.789c-10.459,15.556,4.131,35.69,22.147,30.506l93.708-26.815      C420.82,263.67,426.795,250.838,421.962,239.667L421.962,239.667z M142.068,57.525c-10.547,5.009-14.501,18.018-8.701,28.133      l91.511,158.579c10.283,17.755,37.45,10.459,37.45-10.019V51.109c0.089-11.689-9.844-21.006-21.532-20.039      C220.476,32.652,183.377,37.838,142.068,57.525z" style="fill:#FFFFFF;"/><path d="M237.051,490.998c-1.683,0-3.382-0.143-5.052-0.425c-26.132-4.385-51.648-14.699-73.777-29.825      c-7.146-4.889-11.836-12.614-12.872-21.198c-1.038-8.599,1.686-17.234,7.472-23.693l65.241-72.455      c5.828-6.44,13.695-9.978,22.167-9.978c8.229,0,16.228,3.389,21.944,9.295c5.626,5.814,8.574,13.575,8.302,21.853l-3.426,97.423      C266.567,478.234,253.39,490.998,237.051,490.998z M240.23,353.424c-1.945,0-4.794,0.587-7.321,3.379l-65.207,72.418      c-1.957,2.184-2.849,5.008-2.496,7.933c0.352,2.91,1.88,5.426,4.306,7.086c19.748,13.499,42.505,22.701,65.81,26.611      c6.1,1.031,11.563-3.619,11.738-9.505l3.428-97.454c0.094-2.873-0.81-5.324-2.687-7.265      C245.86,354.621,243.03,353.424,240.23,353.424z M360.358,457.952c-0.001,0-0.002,0-0.002,0      c-10.479-0.001-20.032-5.287-25.558-14.14l-51.683-82.627c-5.879-9.423-6.196-20.792-0.854-30.423      c5.371-9.681,15.443-15.695,26.287-15.695c3.146,0,6.306,0.501,9.393,1.489l92.691,30.079      c8.248,2.706,14.922,8.809,18.341,16.752c3.419,7.942,3.263,16.985-0.429,24.81c-11.7,24.53-28.182,45.668-49.004,62.864      C374.127,455.51,367.321,457.952,360.358,457.952z M308.549,335.067c-4.278,0-7.35,2.788-8.798,5.397      c-1.053,1.898-2.41,5.737,0.328,10.124l51.682,82.626c1.853,2.969,5.064,4.737,8.597,4.737h0.001      c1.658,0,4.125-0.404,6.465-2.327c18.541-15.312,33.233-34.158,43.652-56c1.245-2.641,1.297-5.612,0.128-8.33      c-1.17-2.718-3.363-4.724-6.175-5.646l-92.622-30.057C310.731,335.248,309.622,335.067,308.549,335.067z M109.362,356.658      c-15.326,0-28.141-11.504-29.81-26.758c-3.089-26.721-0.276-53.403,8.368-79.246c4.122-12.252,15.569-20.474,28.491-20.474      c4.586,0,9.013,1.025,13.159,3.047l87.556,42.723c11.503,5.632,18.067,17.47,16.735,30.165      c-1.333,12.71-10.22,22.939-22.638,26.06l-94.518,23.566C114.324,356.347,111.84,356.658,109.362,356.658z M116.411,250.181      c-3.599,0-7.941,2.113-9.53,6.833c-7.702,23.026-10.211,46.802-7.455,70.649c0.564,5.153,4.833,8.994,9.936,8.994      c0.82,0,1.649-0.105,2.464-0.312l94.54-23.572c6.37-1.601,7.431-7.099,7.604-8.745c0.172-1.642,0.275-7.22-5.627-10.109      L120.8,251.204C119.41,250.525,117.933,250.181,116.411,250.181z M309.649,304.745c-0.001,0-0.002,0-0.003,0      c-10.974-0.002-21.064-6.148-26.335-16.043c-5.287-9.929-4.669-21.47,1.654-30.875l54.509-80.801      c5.62-8.311,14.961-13.267,24.991-13.267c7.303,0,14.338,2.663,19.811,7.498c19.976,17.619,36.181,39.896,46.854,64.419      c3.457,7.989,3.325,17.053-0.351,24.887c-3.668,7.817-10.538,13.697-18.849,16.132l-93.769,26.833      C315.36,304.334,312.491,304.745,309.649,304.745z M364.466,183.759c-3.382,0-6.528,1.668-8.418,4.461L301.555,269      c-2.949,4.386-1.636,8.337-0.59,10.3c1.401,2.632,4.419,5.444,8.684,5.445h0.001c0.971,0,1.979-0.148,2.997-0.442l93.723-26.819      c2.793-0.818,5.054-2.748,6.306-5.417c1.26-2.686,1.299-5.679,0.109-8.429c-9.505-21.835-23.942-41.687-41.743-57.387      C368.709,184.19,366.179,183.759,364.466,183.759z M242.026,264.284C242.025,264.284,242.026,264.284,242.026,264.284      c-10.704,0-20.349-5.621-25.801-15.035L124.706,90.656c-4.184-7.296-5.138-16.058-2.632-24.063      c2.487-7.944,8.211-14.542,15.704-18.101c31.88-15.193,67.239-24.667,102.242-27.392c0.778-0.065,1.617-0.1,2.443-0.1      c7.995,0,15.512,3.138,21.167,8.836c5.67,5.713,8.758,13.294,8.697,21.348v183.033c0,8.631-3.407,16.483-9.593,22.111      C257.178,261.384,249.629,264.284,242.026,264.284z M242.463,41.001c-0.278,0-0.562,0.012-0.842,0.035      c-32.631,2.54-65.551,11.362-95.25,25.516c-2.524,1.199-4.37,3.333-5.209,6.016c-0.859,2.744-0.546,5.627,0.881,8.116      l91.497,158.555c2.414,4.167,5.948,5.045,8.487,5.045c2.687,0,5.33-1.002,7.251-2.75c2.024-1.842,3.051-4.304,3.051-7.316      V51.109c0.021-2.759-1.007-5.283-2.893-7.184C247.563,42.04,245.088,41.001,242.463,41.001z" style="fill:#D32323;"/></g></g></g></g><g id="Layer_1"/></svg>