<?xml version="1.0" encoding="UTF-8"?>
<!DOCTYPE svg PUBLIC "-//W3C//DTD SVG 1.1//EN" "http://www.w3.org/Graphics/SVG/1.1/DTD/svg11.dtd">
<!-- Creator: CorelDRAW -->
<svg xmlns="http://www.w3.org/2000/svg" xml:space="preserve" width="6.82666in" height="6.82666in" style="shape-rendering:geometricPrecision; text-rendering:geometricPrecision; image-rendering:optimizeQuality; fill-rule:evenodd; clip-rule:evenodd"
viewBox="0 0 6.82666 6.82666"
 xmlns:xlink="http://www.w3.org/1999/xlink">
 <defs>
  <style type="text/css">
   <![CDATA[
    .fil2 {fill:none}
    .fil0 {fill:#00ACC1}
    .fil1 {fill:#FFFFFE}
   ]]>
  </style>
 </defs>
 <g id="Layer_x0020_1">
  <metadata id="CorelCorpID_0Corel-Layer"/>
  <g id="_203411472">
   <circle id="_203412480" class="fil0" cx="3.41333" cy="3.41333" r="2.56"/>
   <g>
    <path id="_203412528" class="fil1" d="M5.46566 4.23594c0.109571,0 0.216736,-0.0190787 0.317248,-0.0634961 0.0313543,-0.0138583 0.0613858,-0.0295787 0.0900236,-0.0472283 0.0538701,-0.186445 0.0871614,-0.381626 0.0971772,-0.582937 -0.00574016,0.028126 -0.0134764,0.0558858 -0.0233228,0.0831772 -0.0233583,0.064752 -0.0577087,0.124094 -0.103933,0.175189 -0.0463031,0.0511732 -0.101768,0.0904764 -0.164909,0.118382 -0.0675512,0.0298504 -0.139618,0.0430827 -0.213299,0.0430827 -0.0736772,0 -0.146071,-0.0132992 -0.213657,-0.0430512 -0.0631339,-0.0277953 -0.118854,-0.0672362 -0.165303,-0.118299 -0.0464488,-0.0510709 -0.0813583,-0.110205 -0.105185,-0.174965 -0.0251417,-0.0683425 -0.036626,-0.13974 -0.0366299,-0.212461 -3.93701e-006,-0.0731142 0.0113504,-0.145012 0.0366299,-0.213732 0.0237835,-0.0646732 0.0587598,-0.123744 0.105276,-0.174638 0.0464961,-0.0508858 0.102181,-0.090252 0.165374,-0.11785 0.0676142,-0.0295118 0.139902,-0.0425512 0.213496,-0.0425512 0.0735945,0 0.145559,0.0129764 0.213142,0.0425866 0.0631732,0.027685 0.118598,0.0669055 0.164972,0.117921 0.0462913,0.0509213 0.0807087,0.110209 0.104028,0.17487 0.00983858,0.0272677 0.0175472,0.0550157 0.0232717,0.0831299 -0.0101142,-0.201315 -0.0435354,-0.396469 -0.0975079,-0.582902 -0.0284685,-0.0174449 -0.0583031,-0.0329646 -0.0894764,-0.046626 -0.100673,-0.0441102 -0.207839,-0.062811 -0.317413,-0.062811 -0.10965,0 -0.217469,0.0188425 -0.318256,0.0628425 -0.0926181,0.0404331 -0.173858,0.0977402 -0.242,0.172295 -0.0692795,0.0758071 -0.121024,0.163689 -0.156441,0.259988 -0.0387402,0.105323 -0.0557677,0.215437 -0.0557598,0.327465 3.93701e-006,0.11135 0.0172598,0.220543 0.0557598,0.325197 0.0355315,0.0965866 0.0872402,0.184681 0.156535,0.260858 0.0681102,0.074878 0.149512,0.13228 0.242071,0.173039 0.100626,0.0443031 0.208449,0.0635236 0.318091,0.0635236z"/>
    <path id="_203412696" class="fil1" d="M4.45384 3.86306l-0.272421 -0.12885c-0.0190118,0.0320906 -0.0419724,0.0616496 -0.0682953,0.0885866 -0.0415354,0.0425039 -0.089878,0.0766496 -0.143949,0.101421 -0.056563,0.0259173 -0.116449,0.0392087 -0.178752,0.0392598 -0.0738465,5.90551e-005 -0.146024,-0.0134685 -0.214039,-0.0424685 -0.0643307,-0.0274331 -0.12128,-0.0668386 -0.169354,-0.117571 -0.0482323,-0.0509016 -0.0847047,-0.109516 -0.110122,-0.174823 -0.0267638,-0.0687598 -0.0387953,-0.141634 -0.0387992,-0.215283 -3.93701e-006,-0.0740039 0.0119606,-0.146949 0.0387756,-0.216067 0.0254331,-0.0655787 0.0617362,-0.124469 0.110244,-0.175413 0.0480472,-0.0504567 0.105154,-0.0892835 0.169256,-0.116614 0.0679961,-0.0289921 0.140252,-0.0420984 0.214039,-0.0420394 0.0623031,4.72441e-005 0.122189,0.0133307 0.178756,0.0392559 0.0540669,0.0247717 0.102409,0.0589134 0.143945,0.101417 0.026248,0.0268661 0.0491575,0.0563346 0.0681299,0.0883189l0.273213 -0.131067c-0.0210079,-0.0360472 -0.0448661,-0.0704213 -0.0708189,-0.103114 -0.0409724,-0.051622 -0.0889803,-0.0965079 -0.142315,-0.13515 -0.059063,-0.0427913 -0.125185,-0.073815 -0.194484,-0.0960591 -0.0824528,-0.0264685 -0.170106,-0.0368268 -0.25648,-0.0368346 -0.0952756,-3.93701e-006 -0.189425,0.0123937 -0.280972,0.0389961 -0.0846535,0.0246024 -0.164362,0.0608031 -0.237606,0.109976 -0.0704094,0.0472638 -0.132268,0.104646 -0.183878,0.171937 -0.0525984,0.0685827 -0.0918898,0.145024 -0.119146,0.226984 -0.0295827,0.0889528 -0.0426063,0.18187 -0.0426063,0.275472 0,0.093378 0.0130236,0.185874 0.0425906,0.274594 0.0272795,0.0818268 0.0667953,0.15811 0.119213,0.226661 0.0516614,0.0675551 0.113193,0.125303 0.183827,0.172724 0.0732559,0.0491732 0.153106,0.0856378 0.237728,0.110425 0.0914213,0.0267835 0.185528,0.0391654 0.280732,0.0389646 0.0862559,-0.000185039 0.173965,-0.0107087 0.256075,-0.0379291 0.0694764,-0.0230394 0.135591,-0.0547047 0.194689,-0.0981457 0.0532756,-0.0391535 0.1015,-0.0844016 0.142634,-0.136228 0.0255394,-0.0321772 0.0492008,-0.0659764 0.0701929,-0.101339z"/>
    <path id="_203412024" class="fil1" d="M1.42246 3.96478l0 0.255323 1.22039 0 0 -0.268114 -0.748791 0 0.150504 -0.104567c0.0927598,-0.0644528 0.183705,-0.132795 0.269307,-0.206547 0.0651614,-0.0561299 0.129126,-0.117567 0.182736,-0.18498 0.041315,-0.0519606 0.0776811,-0.109461 0.101535,-0.171626 0.021063,-0.0549173 0.0320787,-0.111937 0.0319331,-0.170768 -0.000185039,-0.0717677 -0.0138898,-0.141665 -0.0456181,-0.206323 -0.0305394,-0.0622323 -0.0734724,-0.114925 -0.127461,-0.158449 -0.0591693,-0.0477087 -0.127106,-0.0813858 -0.199303,-0.104476 -0.0837795,-0.0267874 -0.171878,-0.0375039 -0.25963,-0.037689 -0.0576339,-0.000125984 -0.115173,0.0051378 -0.171902,0.0152717 -0.059063,0.0105591 -0.117051,0.0266024 -0.173177,0.0478228 -0.0567874,0.0214685 -0.110803,0.0491299 -0.161591,0.0823976 -0.0376339,0.0246535 -0.0727992,0.0525709 -0.105228,0.0835394l0.171488 0.205791c0.0526181,-0.0430315 0.110315,-0.0786102 0.172984,-0.106449 0.0869764,-0.0386299 0.180236,-0.054937 0.275079,-0.0551496 0.046874,-9.84252e-005 0.0931575,0.00706693 0.137079,0.0237283 0.0427283,0.0162087 0.0800276,0.0414055 0.109102,0.0768189 0.0310866,0.0378543 0.0453268,0.0832323 0.0462205,0.131972 0.000779528,0.0427244 -0.00774803,0.0846024 -0.0247008,0.123823 -0.0197362,0.0456496 -0.052685,0.0882047 -0.0857559,0.124969 -0.0478346,0.0531811 -0.10378,0.10235 -0.158807,0.147933 -0.0827913,0.0685984 -0.16889,0.134043 -0.255012,0.198374 -0.116311,0.0868661 -0.233709,0.172362 -0.351386,0.257374z"/>
   </g>
  </g>
 </g>
 <rect class="fil2" width="6.82666" height="6.82666"/>
</svg>
