<?xml version="1.0" encoding="UTF-8"?>
<!DOCTYPE svg PUBLIC "-//W3C//DTD SVG 1.1//EN" "http://www.w3.org/Graphics/SVG/1.1/DTD/svg11.dtd">
<!-- Creator: CorelDRAW -->
<svg xmlns="http://www.w3.org/2000/svg" xml:space="preserve" width="6.82666in" height="6.82666in" style="shape-rendering:geometricPrecision; text-rendering:geometricPrecision; image-rendering:optimizeQuality; fill-rule:evenodd; clip-rule:evenodd"
viewBox="0 0 6.82666 6.82666"
 xmlns:xlink="http://www.w3.org/1999/xlink">
 <defs>
  <style type="text/css">
   <![CDATA[
    .fil1 {fill:none}
    .fil0 {fill:#20656B}
   ]]>
  </style>
 </defs>
 <g id="Layer_x0020_1">
  <metadata id="CorelCorpID_0Corel-Layer"/>
  <g id="_203403912">
   <path id="_203400120" class="fil0" d="M3.03594 3.57205c0.180587,0.107346 0.413516,0.242134 0.387945,0.439256 -0.00982283,0.0249921 0.0125591,0.0285157 0.0302559,0.00787402 0.256472,-0.294024 0.44887,-0.715004 0.134783,-0.997173 -0.164047,-0.158783 -0.552984,-0.245075 -0.594638,-0.516886 0.00920079,-0.0377165 -0.0324567,-0.0410748 -0.0382992,-0.0263189 -0.115386,0.314213 -0.699087,0.675669 0.0799528,1.09325z"/>
   <path id="_203407968" class="fil0" d="M3.37929 2.50218c0.27239,0.202799 0.729299,0.323862 0.495791,0.800835 -0.0142992,0.0251614 -0.00174409,0.0377205 0.0182756,0.0342362 0.0102362,0.00232283 0.0261969,-0.00277559 0.0411181,-0.0147953 0.33348,-0.38674 0.876106,-0.99676 0.419193,-1.49474 -0.259252,-0.281051 -0.791059,-0.466157 -0.897327,-0.732244 -0.0204764,-0.0513543 0.0023189,-0.126209 0.0302559,-0.18498 0.0160394,-0.0384213 -0.0120197,-0.0570276 -0.0343622,-0.0571535 -0.0023189,0 -0.00455906,0.000208661 -0.0067126,0.00057874 -0.0120197,-0.00177953 -0.0234173,0.00116142 -0.0279331,0.00903937 -0.224437,0.46615 -1.02585,0.918543 -0.0382992,1.63923z"/>
   <g>
    <path id="_203403960" class="fil0" d="M2.31056 5.48206l-0.372984 0.00688583 0 0.271807 0.369626 0.00290157c0.139925,0.00393701 0.149004,-0.27985 0.00335827,-0.281594zm-0.372984 -0.212457l0.31815 0c0.165083,0.00688583 0.113606,-0.256472 0.00351969,-0.255894l-0.321669 -0.00687795 0 0.262772zm0.457492 0.69511l-0.457492 0.00746063 0 0.00116142 -0.259827 0 0 -1.1681 0.255894 0 0.420933 0.00348031c0.20852,-0.00567717 0.367886,0.366724 0.0988504,0.567205 0.359264,0.100425 0.230736,0.588213 -0.0583583,0.588795z"/>
    <path id="_203403720" class="fil0" d="M3.54896 5.48206l-0.372984 0.00688583 0 0.271807 0.369626 0.00290157c0.140508,0.00393701 0.149004,-0.27985 0.00335827,-0.281594zm-0.372984 -0.212457l0.318772 0c0.165039,0.00688583 0.113606,-0.256472 0.00335827,-0.255894l-0.32213 -0.00687795 0 0.262772zm0.457492 0.69511l-0.457492 0.00746063 0 0.00116142 -0.259831 0 0 -1.1681 0.256476 0 0.420354 0.00348031c0.20852,-0.00567717 0.368339,0.366724 0.0988504,0.567205 0.359264,0.100425 0.230736,0.588213 -0.0583583,0.588795z"/>
    <path id="_203403984" class="fil0" d="M4.78736 5.48206l-0.373563 0.00688583 0 0.271807 0.369461 0.00290157c0.140547,0.00393701 0.149744,-0.27985 0.00410236,-0.281594zm-0.373563 -0.212457l0.318728 0c0.164504,0.00688583 0.113606,-0.256472 0.00340157,-0.255894l-0.32213 -0.00687795 0 0.262772zm0.457492 0.69511l-0.457492 0.00746063 0 0.00116142 -0.259252 0 0 -1.1681 0.255894 0 0.420941 0.00348031c0.207772,-0.00567717 0.367713,0.366724 0.0986811,0.567205 0.359264,0.100425 0.230736,0.588213 -0.0587717,0.588795z"/>
   </g>
   <polygon id="_203404176" class="fil0" points="4.3959,4.27877 3.95213,4.27877 3.84072,4.60542 2.98799,4.60836 2.86634,4.27877 2.42771,4.27877 2.42771,4.27525 2.3432,4.27409 2.43003,4.03021 2.43181,4.03647 4.39255,4.03647 4.39474,4.03021 4.48162,4.27409 4.3959,4.27525 "/>
  </g>
 </g>
 <rect class="fil1" width="6.82666" height="6.82666"/>
</svg>
