<?xml version="1.0" encoding="UTF-8"?>
<!DOCTYPE svg PUBLIC "-//W3C//DTD SVG 1.1//EN" "http://www.w3.org/Graphics/SVG/1.1/DTD/svg11.dtd">
<!-- Creator: CorelDRAW -->
<svg xmlns="http://www.w3.org/2000/svg" xml:space="preserve" width="6.82666in" height="6.82666in" style="shape-rendering:geometricPrecision; text-rendering:geometricPrecision; image-rendering:optimizeQuality; fill-rule:evenodd; clip-rule:evenodd"
viewBox="0 0 6.82666 6.82666"
 xmlns:xlink="http://www.w3.org/1999/xlink">
 <defs>
  <style type="text/css">
   <![CDATA[
    .fil3 {fill:none}
    .fil0 {fill:#ED323D}
    .fil2 {fill:#424242}
    .fil1 {fill:#FFFFFE}
   ]]>
  </style>
 </defs>
 <g id="Layer_x0020_1">
  <metadata id="CorelCorpID_0Corel-Layer"/>
  <g id="_203249584">
   <path id="_203251504" class="fil0" d="M1.80706 2.79431c0,-0.887079 0.719075,-1.60635 1.60628,-1.60635 0.887248,0 1.60628,0.719272 1.60628,1.60635 0,0.887075 -0.719028,1.60618 -1.60628,1.60618 -0.887201,0 -1.60628,-0.719102 -1.60628,-1.60618z"/>
   <g>
    <path id="_203251648" class="fil1" d="M2.89119 2.35648c0.0414961,-0.32026 0.162244,-0.481378 0.194028,-0.51889 0.290457,0.0829646 0.587717,0.229839 0.587717,0.229839 -0.284575,-0.0113346 -0.581984,0.143197 -0.781744,0.289051z"/>
    <path id="_203250952" class="fil1" d="M3.61902 1.78748c0.197142,0 0.344126,0.142945 0.430878,0.320772 0.346661,-0.00172835 0.571791,0.173165 0.604579,0.406114 0.0157874,0.112795 -0.0329606,0.225563 -0.127484,0.322563 0.0837126,-0.0993543 0.123154,-0.210768 0.102157,-0.319209 -0.0390236,-0.200567 -0.259996,-0.333846 -0.552618,-0.349106 0.0276102,0.0694213 0.0465197,0.142079 0.0561732,0.212213 0.0230748,0.168224 0.0164685,0.287551 -0.00232283,0.427122 0,0 -0.0394449,0.0367913 -0.0670748,0.0534567 0.0206496,-0.119024 0.0314331,-0.265252 0.0139685,-0.430874 -0.009,-0.0860945 -0.0304331,-0.177929 -0.0653307,-0.26335 -0.0725197,0.000496063 -0.148697,0.0079685 -0.227024,0.0231732 -0.342807,0.0666929 -0.631787,0.2615 -0.697504,0.470791 0.0240984,-0.239177 0.417709,-0.486283 0.81037,-0.541539 0.0302165,-0.00425197 0.0597047,-0.00724016 0.0884646,-0.00909449 -0.075685,-0.151083 -0.198004,-0.270988 -0.373614,-0.283287 -0.0673425,-0.00475591 -0.117421,0.0111142 -0.148929,0.023126l-0.0281299 -0.00951181c0.0341378,-0.0215472 0.0997283,-0.0533583 0.183441,-0.0533583z"/>
    <path id="_203251168" class="fil1" d="M4.17363 3.44214c0,0 0.159138,-0.288406 0.178886,-0.338331 0.0120354,-0.0304803 0.0768031,-0.166122 -0.0694724,-0.0198189 0,0 -0.405224,0.395886 -1.00961,0.487382 0,0 0.389508,0.258146 0.725409,0.279366 0.0417953,0.000224409 0.059185,0.000728346 0.0644646,-0.045622l0.0160945 -0.120874c0,0 0.556205,-0.177409 0.717547,-0.682665 0,0 -0.128886,0.354646 -0.623323,0.440563z"/>
    <path id="_203250208" class="fil1" d="M2.71063 1.9674l-0.123453 -0.19015c-0.0157165,-0.0351378 -0.011815,-0.0430669 0.0323071,-0.0405433 0.122201,0.00708268 0.270685,0.0414921 0.270685,0.0414921 0.122878,-0.165122 0.279291,-0.275709 0.44952,-0.305591 0.195925,-0.0345591 0.408299,0.0604606 0.583004,0.219602 -0.17861,-0.139969 -0.375614,-0.204413 -0.562961,-0.158815 -0.509657,0.124331 -0.706386,0.901988 -0.510457,1.61684 0,0 -0.0658701,0.00395276 -0.157016,-0.021248 -0.0919449,-0.410457 -0.064315,-0.717323 0.00375591,-0.958701 -0.393634,0.066748 -0.486807,0.28252 -0.538815,0.372413 0.1405,-0.466961 0.553429,-0.575299 0.553429,-0.575299z"/>
    <path id="_203250424" class="fil1" d="M4.10666 2.96885c-0.0358386,0.122476 -0.0840866,0.189547 -0.0840866,0.189547l-0.063315 0.0379646c0,0 0.0303307,-0.0566378 0.0614646,-0.156862 -0.21848,0.166398 -0.503327,0.295705 -0.806469,0.349339 -0.0968031,0.0169685 -0.189622,0.0250276 -0.278118,0.0253268 0.147831,0.362177 0.401846,0.667972 0.765602,0.793252 -0.471543,-0.118724 -0.770504,-0.446567 -0.927894,-0.804791 -0.397941,-0.0452244 -0.729587,-0.295634 -0.785543,-0.612512 -0.0308346,-0.174409 0.0539055,-0.363354 0.19548,-0.51902 -0.124606,0.158843 -0.179917,0.33385 -0.141346,0.501177 0.0936969,0.406024 0.70528,0.611185 1.36612,0.458677 0.528902,-0.122126 0.928969,-0.436579 1.01981,-0.765224 -0.0315787,0.171854 -0.145323,0.344587 -0.312173,0.494665l-0.00953543 0.00846063z"/>
   </g>
   <path id="_203250712" class="fil2" d="M4.28838 4.84031l-0.0336417 0.136949 -0.0827638 -0.00531102 0.00396457 -0.0444055c-0.0364488,-0.0191732 -0.0772795,-0.0296339 -0.118213,-0.0296811 -0.154295,4.72441e-005 -0.233016,0.200476 -0.234272,0.330374 -0.00107087,0.106315 0.0533268,0.153417 0.157894,0.153417l0.0262008 -0.00179528 0.0192756 -0.0932362 0.00295276 -0.0365748 -0.0365984 -0.00526772 0.0130787 -0.0836535 0.262362 -3.54331e-005 -0.0226614 0.083689 -0.0366732 0.00526772 -0.0160118 0.0366102 -0.0285512 0.147299c-0.080378,0.0252126 -0.161673,0.0417874 -0.245327,0.0417874 -0.154217,0 -0.266358,-0.0654488 -0.274248,-0.222953l0.0312283 -0.0373661c0.0147402,-0.0205 0.034748,-0.0482835 0.0491181,-0.0769488 0.0147402,-0.029311 0.0267953,-0.0643346 0.0272047,-0.10472 0.000200787,-0.0204528 -0.0035748,-0.0398819 -0.00980315,-0.0575512 0.0139134,-0.014752 0.0337244,-0.0355276 0.0381693,-0.0399961 0.0871181,-0.0862953 0.173724,-0.122012 0.296606,-0.122012 0.070563,0 0.142028,0.00785433 0.210709,0.0261142z"/>
   <polygon id="_203250232" class="fil2" points="1.18626,5.37112 1.27257,5.37112 1.49197,5.04866 1.4937,5.05037 1.43156,5.33455 1.41991,5.37112 1.39365,5.37632 1.37106,5.46001 1.60726,5.46001 1.61946,5.37632 1.58288,5.37112 1.58759,5.33455 1.6646,4.95534 1.67804,4.91874 1.71556,4.91354 1.73817,4.82994 1.54119,4.82994 1.29003,5.19767 1.20044,4.82994 0.985134,4.82994 0.972992,4.91354 1.00867,4.91874 1.00395,4.95534 0.926937,5.33455 0.914327,5.37112 0.877752,5.37632 0.853331,5.46001 1.05031,5.46001 1.0634,5.37632 1.03724,5.37112 1.04111,5.33455 1.10254,5.0312 1.10428,5.0312 "/>
   <path id="_203250592" class="fil2" d="M1.84017 5.47047c0.0914843,0 0.177346,-0.0417756 0.239039,-0.108043 0.0528425,-0.0566496 0.0982283,-0.152567 0.0990512,-0.23015 0.000468504,-0.0505236 -0.0269488,-0.0976142 -0.0693386,-0.122846 -0.0390591,-0.0227047 -0.0877323,-0.032185 -0.133142,-0.032185 -0.0896693,0 -0.177287,0.040874 -0.238106,0.108008 -0.0537402,0.058374 -0.0991142,0.149874 -0.0999055,0.230075 -0.000503937,0.0505669 0.0269134,0.096752 0.0693819,0.122067 0.0389685,0.0234724 0.0885354,0.0330748 0.13302,0.0330748zm0.0982126 -0.409614c0.0523268,0 0.0612638,0.0610039 0.060874,0.101933 -0.000692913,0.0671457 -0.0344685,0.224028 -0.121646,0.224028 -0.051378,0 -0.0611929,-0.0610748 -0.0608504,-0.101961 0.00065748,-0.068 0.0344685,-0.224 0.121622,-0.224z"/>
   <path id="_203250784" class="fil2" d="M2.421 4.98243l-0.216217 0.0051811 -0.0130236 0.0837323 0.036563 0.00516929 -0.00473622 0.0366772 -0.0448819 0.221362 -0.0308819 0.125465 0.173425 0 0.0338976 -0.163c0.0212244,-0.0339331 0.109803,-0.176031 0.146409,-0.176031 0.0104488,0 0.0147047,0.00962598 0.00647244,0.0488622l-0.0338543 0.164705 -0.0317717 0.125465 0.220516 0 0.0130118 -0.083689 -0.0365551 -0.00520079 0.00298819 -0.0365748 0.0412402 -0.203102c0.0228937,-0.111539 -0.0132795,-0.154197 -0.0751535,-0.154197 -0.103705,0 -0.195606,0.124583 -0.230453,0.212571l-0.0104724 0 0.0534764 -0.207394z"/>
   <path id="_203249632" class="fil2" d="M3.16005 5.31009c-0.0622874,0.0313819 -0.142709,0.0610276 -0.212417,0.0610276 -0.0479724,0 -0.0878661,-0.0226496 -0.0873071,-0.0758031 0.120193,0.00346457 0.297941,-0.0732047 0.299335,-0.212661 0.000299213,-0.0331299 -0.0159331,-0.0601457 -0.0419213,-0.0793071 -0.0276614,-0.0209252 -0.059,-0.0261024 -0.0938386,-0.0261024 -0.0880551,0 -0.17213,0.040874 -0.232067,0.106256 -0.054622,0.0592795 -0.0991063,0.148157 -0.0998976,0.230087 -0.00112598,0.110693 0.101299,0.156882 0.197197,0.156882 0.0853701,0 0.169228,-0.0217362 0.248882,-0.0522717l0.0220354 -0.108106zm-0.290177 -0.0967362c0.00652756,-0.0435157 0.042378,-0.14202 0.0964213,-0.14202 0.0270157,0 0.0407283,0.022626 0.0404173,0.0478937 -0.000267717,0.0313937 -0.0188031,0.0583976 -0.045185,0.0749331 -0.0271614,0.0174685 -0.0602835,0.018315 -0.0916535,0.0191929z"/>
   <path id="_203249440" class="fil2" d="M4.50841 4.98247l-0.216138 0.00524803 -0.0121772 0.0836181 0.0356614 0.00527165 -0.0018937 0.0209213 -0.0450512 0.22574 -0.0335669 0.136839 0.173335 0 0.0365984 -0.168201c0.0328504,-0.0575276 0.105354,-0.163874 0.178547,-0.163874 0.0165787,-6.69291e-005 0.031315,0.00607087 0.0434173,0.0165433l0.0590984 -0.154276c-0.0121535,-0.0087126 -0.0234055,-0.0104843 -0.0382795,-0.0104843 -0.0976693,0 -0.19126,0.126425 -0.222622,0.21l-0.0104606 0 0.0535315 -0.207346z"/>
   <path id="_203250040" class="fil2" d="M4.90326 5.46531l0.21713 -0.00520472 0.0130118 -0.0837205 -0.0366181 -0.00520079 0.00297244 -0.0366417 0.0431575 -0.21089 0.0345276 -0.141185 -0.121189 0.00524803 -0.0227165 0 -0.0809449 -0.0104646c-0.0993858,0 -0.173917,0.051437 -0.234854,0.127272 -0.0529606,0.0670866 -0.0983937,0.160323 -0.0992402,0.247476 -0.000488189,0.0567165 0.0336654,0.118535 0.0964331,0.118535 0.102839,0 0.198236,-0.121154 0.23139,-0.210012l0.0104252 0 -0.0534843 0.204787zm0.0649843 -0.309429c-0.0239882,0.0401181 -0.114248,0.183917 -0.160469,0.183917 -0.0156969,0 -0.0207323,-0.015685 -0.0206339,-0.0287638 0.000492126,-0.0479252 0.0237953,-0.114189 0.0434134,-0.157728 0.0195866,-0.0409843 0.0488425,-0.0924331 0.100268,-0.0924331 0.0200748,0 0.0365748,0.00880315 0.0530512,0.0183268l-0.0156299 0.0766811z"/>
   <path id="_203249608" class="fil2" d="M5.41811 4.98247l-0.204909 0.00524803 -0.0139252 0.0836535 0.0364843 0.00523622 -0.00461024 0.0366299 -0.0449528 0.221339 -0.0308268 0.125531 0.162996 0 0.0365433 -0.173457 0.00703937 -0.0104606c0.021311,-0.033122 0.100945,-0.155146 0.138476,-0.155146 0.00777559,0 0.0199764,0.00175197 0.00809843,0.0558031l-0.0347126 0.157728 -0.029122 0.125531 0.162173 0 0.0365197 -0.173457 0.00715354 -0.0104606c0.0221693,-0.033122 0.100854,-0.155146 0.138354,-0.155146 0.0166299,0 0.0181339,0.0122126 0.00894488,0.0558031l-0.0346142 0.157728 -0.0299685 0.125531 0.21 0 0.0129803 -0.0837205 -0.0365197 -0.00520079 0.00294094 -0.0366102 0.0431142 -0.208295c0.00369685,-0.0182913 0.0073622,-0.0374961 0.00755118,-0.0566024 0.000437008,-0.0479961 -0.027815,-0.0924252 -0.0793071,-0.0924252 -0.0549134,0 -0.114547,0.041811 -0.149819,0.0809921 -0.0344488,0.0383819 -0.0592362,0.0845709 -0.0805787,0.131673l-0.0105276 0 0.016374 -0.068874c0.00451181,-0.0174331 0.0100394,-0.0409606 0.0101732,-0.0592559 0.000456693,-0.0488386 -0.0278189,-0.0845354 -0.0785315,-0.0845354 -0.0522717,0 -0.115461,0.0462126 -0.148925,0.0845354 -0.0334764,0.0374567 -0.0565945,0.0827874 -0.0771614,0.12813l-0.0104252 0 0.0535197 -0.207449z"/>
   <path id="_203249680" class="fil2" d="M3.48513 4.98761c0.0275945,0.0270157 0.0499173,0.0619213 0.0494409,0.10198 -0.000625984,0.0741181 -0.0754331,0.144728 -0.122157,0.197031 -0.0120748,-0.10287 -0.029311,-0.206591 -0.064937,-0.304193l-0.174382 0.0051811 -0.0130472 0.0837323 0.0347795 0.00516929c0.0432598,0.120307 0.0707756,0.248425 0.0747205,0.376508l-0.0185039 0.0209528c-0.0537638,0.0601496 -0.109232,0.117689 -0.175118,0.164724l0.180543 -0.0103937c0.0541654,-0.100252 0.130858,-0.188331 0.207583,-0.271984l0.0466457 -0.0522717 0.110256 -0.131614c0.0300709,-0.0417874 0.0610197,-0.0862598 0.0615866,-0.139469 0.000110236,-0.017437 -0.0049252,-0.0348937 -0.0134252,-0.0505354l-0.183984 0.0051811z"/>
  </g>
 </g>
 <rect class="fil3" width="6.82666" height="6.82666"/>
</svg>
