<?xml version="1.0" encoding="UTF-8"?>
<!DOCTYPE svg PUBLIC "-//W3C//DTD SVG 1.1//EN" "http://www.w3.org/Graphics/SVG/1.1/DTD/svg11.dtd">
<!-- Creator: CorelDRAW -->
<svg xmlns="http://www.w3.org/2000/svg" xml:space="preserve" width="6.82666in" height="6.82666in" style="shape-rendering:geometricPrecision; text-rendering:geometricPrecision; image-rendering:optimizeQuality; fill-rule:evenodd; clip-rule:evenodd"
viewBox="0 0 6.82666 6.82666"
 xmlns:xlink="http://www.w3.org/1999/xlink">
 <defs>
  <style type="text/css">
   <![CDATA[
    .fil1 {fill:none}
    .fil0 {fill:#137FC3}
   ]]>
  </style>
 </defs>
 <g id="Layer_x0020_1">
  <metadata id="CorelCorpID_0Corel-Layer"/>
  <path class="fil0" d="M1.84604 2.70996c-0.0138976,0.00198819 -0.0284724,0.00146457 -0.041878,0.00360236 -0.159409,0.0252835 -0.294547,0.0957835 -0.402118,0.216346 -0.0984803,0.110799 -0.153319,0.240646 -0.166165,0.388106 -0.00319291,0.038311 -0.00109055,0.038311 0.0393268,0.0436063 0.0554016,-0.0135197 0.113315,-0.0222717 0.166165,-0.0419882 0.264496,-0.101 0.409323,-0.295484 0.44298,-0.575606 0.00409055,-0.0356457 -0.00199213,-0.0397402 -0.038311,-0.0340669zm-0.142843 0.947669c-0.117,-0.122709 -0.26089,-0.190016 -0.417626,-0.205528 -0.0507835,-0.000523622 -0.0513071,-0.000523622 -0.0496929,0.0372638 0.000527559,0.0140433 0.00304331,0.0279409 0.00514567,0.0419882 0.0279803,0.186299 0.118992,0.334319 0.270169,0.445083 0.0993819,0.0730157 0.21161,0.110764 0.333791,0.122146 0.0362835,0.0036063 0.0425197,0.00108661 0.0388386,-0.0347047 -0.0155118,-0.155272 -0.0719646,-0.292969 -0.180626,-0.406248zm-0.601972 -0.950827c-0.0537835,-0.000523622 -0.107157,-0.000523622 -0.16098,0 -0.0559252,0.000527559 -0.0869134,0.0326024 -0.0869134,0.0890197 0,0.41924 0,0.838484 0,1.25772l0 0.00172835 0 0.00165354c0.000377953,0.0341063 0.00631102,0.0391339 0.0418819,0.0391339 0.0548386,0.000413386 0.109295,0.000413386 0.163646,0 0.0573543,-0.000523622 0.0858622,-0.0289921 0.0858622,-0.0859685l0 -1.25773c0.000527559,-0.0372244 -0.00717323,-0.045563 -0.0434961,-0.045563zm2.86074 0.345287c-0.078689,0.00304724 -0.150126,0.0279449 -0.213717,0.0739567 -0.0088622,0.00619685 -0.0176142,0.0124331 -0.0306102,0.0217087 -0.00105118,-0.0144213 -0.00199213,-0.0233228 -0.00199213,-0.0320748 -0.00105118,-0.0434567 -0.0088622,-0.0512677 -0.0512677,-0.0512677 -0.054874,-0.000527559 -0.109185,0 -0.16365,0 -0.0501024,0 -0.0584409,0.00781102 -0.0584409,0.0575l0 0.418193c0,0.169319 0,0.337472 0,0.506268 0,0.0443937 0.00980315,0.054874 0.0528819,0.054874 0.0573543,0 0.114858,0 0.172248,0 0.0466496,0 0.0539409,-0.0072874 0.0539409,-0.054874 0.000374016,-0.224157 0.000374016,-0.448764 0,-0.672957 0,-0.0222717 0.00608268,-0.0345945 0.0263661,-0.0445079 0.0677205,-0.0315512 0.136606,-0.0554016 0.212665,-0.0522087 0.0274173,0.00104724 0.040937,-0.00927559 0.0404094,-0.0388386 -0.00105118,-0.049689 -0.00105118,-0.0988583 0,-0.148551 0,-0.0268898 -0.0119449,-0.0382717 -0.0388346,-0.0372205zm-1.70953 -0.345811l-0.175594 0c-0.0439803,0.000523622 -0.0480787,0.00462205 -0.0480787,0.049126l0 1.30276c0,0.0363189 0.00623622,0.0425591 0.0419961,0.0430827 0.0573898,0 0.114894,0 0.172772,0 0.0538228,0 0.059122,-0.00477165 0.059122,-0.0585551l0 -1.10561c0,-0.0610709 0,-0.121094 0,-0.182201 0,-0.0407874 -0.00781496,-0.0480787 -0.0502165,-0.0486024zm3.44506 0.969492c0.000413386,-0.0197165 -0.00675984,-0.0300472 -0.0279409,-0.0289961 -0.038311,0.00105118 -0.0771496,-0.00214173 -0.115012,0.000527559 -0.12774,0.00980315 -0.150539,0.0573543 -0.152118,0.161917 -0.00109055,0.062122 0.0274213,0.0952559 0.0765866,0.10363 0.0683583,0.011378 0.131949,-0.00319291 0.19411,-0.0306102 0.0419409,-0.0181693 0.0228228,-0.163051 0.024374,-0.206469zm0.267012 0.378827c0,0.0414646 -0.0051811,0.0466496 -0.0475866,0.0466496 -0.0523228,0 -0.105091,0 -0.157413,0 -0.0449213,0 -0.0481142,-0.00319291 -0.0502205,-0.0471732 -0.000413386,-0.00514567 -0.000937008,-0.00980709 -0.00198819,-0.0149882 0,-0.0117559 -0.0171575,-0.00352362 -0.0222717,0.000566929 -0.0703504,0.0527323 -0.151705,0.0729764 -0.237567,0.079626 -0.170256,0.0135197 -0.300252,-0.0983346 -0.308476,-0.268591 -0.00157874,-0.0418819 -0.00315748,-0.0849252 0.0036063,-0.126276 0.0154724,-0.0993858 0.0765827,-0.165114 0.170783,-0.192004 0.071437,-0.0197244 0.146031,-0.0279488 0.219949,-0.036811 0.0430827,-0.00518504 0.087063,-0.00146457 0.13052,-0.00108661 0.0185551,0.000523622 0.0279449,-0.00567717 0.0268937,-0.0258425 -0.00157874,-0.0299331 0.00157874,-0.0610748 -0.00371654,-0.0904803 -0.0112323,-0.0662598 -0.0491299,-0.100441 -0.115909,-0.100441 -0.104043,0.000531496 -0.20752,0.00514567 -0.31152,0.0113819 -0.0518346,0.00251575 -0.0595,-0.0015748 -0.0595,-0.0553622 0,-0.033126 0.000527559,-0.0667835 0,-0.0999094 0,-0.0259882 0.0113819,-0.0404134 0.037748,-0.0466496 0.120571,-0.0268898 0.242748,-0.041878 0.365984,-0.0341772 0.0516811,0.00372047 0.104004,0.0150984 0.153169,0.0311378 0.117524,0.0393583 0.182201,0.125748 0.200756,0.246315 0.0305551,0.184866 0.00675984,0.523791 0.00675984,0.724114zm-2.96422 -0.218898c-0.00549606,-0.052126 0.00207874,-0.112213 -0.00161417,-0.166689 -0.000374016,-0.00781102 -0.0113819,-0.021185 -0.0170906,-0.021185 -0.063063,0.00251969 -0.126276,0.00409449 -0.189339,0.0119055 -0.038315,0.00465748 -0.0662559,0.0326024 -0.0740669,0.0714409 -0.00717323,0.0356417 -0.00927953,0.0739173 -0.00675984,0.110236 0.00371654,0.0402638 0.0327126,0.0641142 0.0724882,0.070874 0.0637402,0.0108937 0.123756,-0.0015748 0.182728,-0.024374 0.0259567,-0.00980315 0.036811,-0.0242283 0.0336535,-0.0522087zm0.266039 -0.468894c0.00570472,0.231331 0.00465354,0.462134 0.00623228,0.693504 0,0.0309843 -0.0113819,0.040937 -0.0429331,0.040937 -0.0544606,0.000413386 -0.109299,0.000413386 -0.163646,0 -0.0459764,0 -0.0516457,-0.00570866 -0.054315,-0.0512677 0,-0.00465748 -0.00104724,-0.00980315 -0.00210236,-0.0192323 -0.0310236,0.0170906 -0.0573898,0.0336535 -0.0853346,0.0471772 -0.0972795,0.0470236 -0.19824,0.0512717 -0.300252,0.0212205 -0.0915748,-0.0274567 -0.148024,-0.0906299 -0.170295,-0.183256 -0.016,-0.0667795 -0.0176142,-0.134087 -0.00409449,-0.200756 0.0212205,-0.103626 0.0905197,-0.16098 0.187346,-0.190016 0.0942362,-0.0284685 0.190429,-0.0315118 0.287295,-0.0306063 0.0692992,0.00108661 0.0692992,0 0.0692992,-0.0698268 0,-0.0181417 0.00105118,-0.0366969 -0.00199213,-0.054311 -0.0103268,-0.0569764 -0.0482244,-0.0920945 -0.110764,-0.0920945 -0.104567,0 -0.209618,0.00461417 -0.314189,0.0103268 -0.0512638,0.00303937 -0.0580276,0.000523622 -0.0580276,-0.0512677 0,-0.0361732 0.000527559,-0.0730157 -0.000527559,-0.109189 -0.000523622,-0.0202795 0.00781496,-0.0336535 0.0268937,-0.037748 0.162598,-0.0347402 0.326094,-0.0585906 0.490795,-0.0176496 0.148551,0.0361693 0.236512,0.139795 0.24061,0.294055zm1.73342 0.0692953c0.0021063,0.203913 0.000527559,0.407827 0.000527559,0.611736 0,0.0477008 -0.00518504,0.0534094 -0.0543504,0.0534094 -0.0564134,0 -0.11339,0 -0.169846,0 -0.0439803,0 -0.0491614,-0.00477165 -0.0491614,-0.0482283 0,-0.198236 0.000523622,-0.395913 -0.000531496,-0.594154 0,-0.0331299 -0.00465354,-0.0662559 -0.0103268,-0.0988228 -0.00875197,-0.0471732 -0.0408268,-0.0740669 -0.0863858,-0.0812402 -0.0833465,-0.0140472 -0.157831,0.0123189 -0.22724,0.0554016 -0.00927559,0.00555906 -0.0128819,0.0263661 -0.0128819,0.0397362 -0.00105118,0.166689 -0.000523622,0.333382 -0.000523622,0.500071 0,0.0625354 -0.000527559,0.125224 0.000523622,0.187874 0.000413386,0.0288819 -0.0124291,0.0397756 -0.0404134,0.0393622 -0.0626496,-0.00105118 -0.125189,0 -0.187874,-0.000523622 -0.0363189,0 -0.046122,-0.0103307 -0.046122,-0.0471772 0,-0.31524 0,-0.630441 0,-0.945677 0,-0.0331299 0.00980315,-0.0434567 0.0429291,-0.0434567 0.0569803,-0.000527559 0.113433,-0.000527559 0.169882,-0.000527559 0.0361732,0.000527559 0.0424094,0.0072874 0.0429331,0.0430827 0.000523622,0.0133701 0.00157874,0.0268898 0.00251575,0.0486024 0.0186654,-0.0119055 0.029563,-0.0186693 0.0404173,-0.0254291 0.110232,-0.0750039 0.232417,-0.0931496 0.361323,-0.0703504 0.117409,0.0206575 0.181677,0.0993465 0.205374,0.211197 0.0119449,0.0537874 0.0187047,0.109717 0.0192323,0.165114z"/>
 </g>
 <rect class="fil1" width="6.82666" height="6.82666"/>
</svg>
