<?xml version="1.0" encoding="UTF-8"?>
<!DOCTYPE svg PUBLIC "-//W3C//DTD SVG 1.1//EN" "http://www.w3.org/Graphics/SVG/1.1/DTD/svg11.dtd">
<!-- Creator: CorelDRAW -->
<svg xmlns="http://www.w3.org/2000/svg" xml:space="preserve" width="6.82666in" height="6.82666in" style="shape-rendering:geometricPrecision; text-rendering:geometricPrecision; image-rendering:optimizeQuality; fill-rule:evenodd; clip-rule:evenodd"
viewBox="0 0 6.82666 6.82666"
 xmlns:xlink="http://www.w3.org/1999/xlink">
 <defs>
  <style type="text/css">
   <![CDATA[
    .fil3 {fill:none}
    .fil1 {fill:#1D93D8}
    .fil0 {fill:#EA1A21}
    .fil2 {fill:#FFFFFE}
   ]]>
  </style>
 </defs>
 <g id="Layer_x0020_1">
  <metadata id="CorelCorpID_0Corel-Layer"/>
  <g id="_202063168">
   <circle id="_203248888" class="fil0" cx="4.44291" cy="3.41333" r="1.53043"/>
   <circle id="_203248648" class="fil1" cx="2.38376" cy="3.41333" r="1.53043"/>
   <path id="_203248864" class="fil0" d="M3.50918 2.37013c0.042811,0.0462992 0.0827992,0.095248 0.119689,0.146575l-0.431079 0c0.0368898,-0.0513268 0.076878,-0.100276 0.119689,-0.146575l0.191701 0zm0.182732 0.241531c0.0288898,0.0472283 0.0552913,0.0961457 0.0790236,0.146571l-0.715213 0c0.0237323,-0.0504252 0.0501339,-0.0993425 0.0790236,-0.146571l0.557165 0zm0.119831 0.241528c0.018626,0.0477402 0.0349331,0.0966417 0.0487677,0.146571l-0.894362 0c0.0138346,-0.0499291 0.0301417,-0.0988307 0.0487677,-0.146571l0.796827 0zm0.0487638 0.96611c-0.0138346,0.0499291 -0.0301339,0.0988307 -0.0487598,0.146571l-0.796835 0c-0.018626,-0.0477402 -0.0349252,-0.0966417 -0.0487598,-0.146571l0.894354 0zm-0.0895748 0.241528c-0.0237323,0.0504213 -0.0501378,0.0993386 -0.0790315,0.146571l-0.557142 0c-0.0288937,-0.0472323 -0.0552992,-0.0961496 -0.0790315,-0.146571l0.715205 0zm-0.142071 0.241528c-0.0368858,0.0513228 -0.076874,0.100276 -0.119689,0.146571l-0.191685 0c-0.042815,-0.0462953 -0.0828031,-0.095248 -0.119689,-0.146571l0.431063 0z"/>
   <g>
    <path id="_202064032" class="fil2" d="M1.72985 3.62793l0.127654 -0.611559 -0.143933 0 -0.253449 0.480622 -0.00256693 0 -0.0455512 -0.480622 -0.135075 0 -0.129366 0.611559 0.0916693 0 0.0769646 -0.365677c0.0128504,-0.0618268 0.0204173,-0.109236 0.0229843,-0.142217l0.0025748 0 0.0481142 0.507894 0.0856732 0 0.269016 -0.507894 0.0024252 0c-0.0129961,0.0435472 -0.0249843,0.0912402 -0.0358425,0.143075l-0.0762441 0.364819 0.0949528 0z"/>
    <path id="_202063984" class="fil2" d="M2.00622 3.53569c-0.0112795,-0.0141339 -0.0168465,-0.0354055 -0.0168465,-0.0638268 0,-0.0395472 0.00627953,-0.077811 0.0187047,-0.114795 0.0125669,-0.0369843 0.0294173,-0.0661102 0.0502598,-0.0876732 0.0209882,-0.0214173 0.0432677,-0.032126 0.0669685,-0.032126 0.0211339,0 0.0382638,0.0074252 0.0514016,0.0222717 0.0131378,0.0149961 0.0197087,0.0346969 0.0197087,0.0592559 0,0.0429843 -0.00714173,0.0825354 -0.0214213,0.118803 -0.0141339,0.0362677 -0.0322677,0.0652559 -0.0542598,0.086815 -0.0221299,0.0215591 -0.0445472,0.0324134 -0.0673937,0.0324134 -0.0201339,0 -0.0358386,-0.007 -0.047122,-0.0211378zm0.227031 0.0922441l0.0986693 -0.46263 -0.075252 0 -0.0259843 0.0661102 -0.00414173 0c-0.0108543,-0.0242756 -0.0261299,-0.0428346 -0.0456929,-0.0555433 -0.0194213,-0.0125669 -0.0426929,-0.0189882 -0.0698189,-0.0189882 -0.0406969,0 -0.0781102,0.0142756 -0.112091,0.0428346 -0.0339882,0.0286969 -0.060685,0.0675394 -0.0801063,0.116516 -0.0194173,0.0491142 -0.029126,0.101803 -0.029126,0.158205 0,0.0512598 0.0114213,0.0910984 0.0344094,0.11937 0.0228465,0.0282756 0.0539724,0.0425512 0.0932402,0.0425512 0.0532638,0 0.101949,-0.0274134 0.145929,-0.0821024l0.00257087 0 -0.00885433 0.0736772 0.076248 0z"/>
    <path id="_202064440" class="fil2" d="M2.62072 3.59723c0.0329803,-0.0261299 0.0494055,-0.0632559 0.0494055,-0.11152 0,-0.0181299 -0.00314173,-0.0341181 -0.00957087,-0.0479724 -0.0064252,-0.0137047 -0.0158465,-0.0265591 -0.028126,-0.0382677 -0.0122795,-0.0117087 -0.0329843,-0.0256969 -0.0622559,-0.0422638 -0.0284134,-0.0152795 -0.0472638,-0.0278465 -0.0565433,-0.0375512 -0.0091378,-0.00985827 -0.0137087,-0.0209882 -0.0137087,-0.0335591 0,-0.0164173 0.00627953,-0.0292677 0.0189882,-0.0384094 0.0127087,-0.00927953 0.0292756,-0.0138504 0.0495512,-0.0138504 0.035126,0 0.072252,0.0105669 0.111232,0.0318425l0.0318425 -0.0736732c-0.0418386,-0.0234213 -0.0901024,-0.035126 -0.144791,-0.035126 -0.050689,0 -0.0909528,0.0122756 -0.120795,0.0368386 -0.0298425,0.0245551 -0.0448346,0.0583976 -0.0448346,0.101661 0,0.0264173 0.00728346,0.0494055 0.0215591,0.0688228 0.0144252,0.0194213 0.0389803,0.0384094 0.0738189,0.0571142 0.0298465,0.0169961 0.0495512,0.0305551 0.0592598,0.0406969 0.00956693,0.0102795 0.0144213,0.0224173 0.0144213,0.0366969 0,0.0191339 -0.0084252,0.0344094 -0.0251299,0.0455472 -0.0167047,0.0111378 -0.0385512,0.0167047 -0.0656811,0.0167047 -0.0442638,0 -0.087815,-0.012563 -0.130508,-0.0375512l0 0.084815c0.0368386,0.0187047 0.0816732,0.0281299 0.13465,0.0281299 0.0586811,0 0.104374,-0.0131378 0.137217,-0.039126z"/>
    <path id="_202064320" class="fil2" d="M2.88354 3.54612c-0.00685039,-0.00714173 -0.0104291,-0.016563 -0.0104291,-0.0285551 0,-0.0104252 0.0018622,-0.0232795 0.00542913,-0.0385551l0.051122 -0.239311 0.115795 0 0.0162795 -0.0743937 -0.116657 0 0.0217047 -0.102953 -0.0609724 0 -0.0539685 0.0970984 -0.0795354 0.0342717 -0.00870866 0.0459764 0.0676811 0 -0.0505433 0.238453c-0.0045748,0.0207047 -0.00671654,0.0389843 -0.00671654,0.0548346 0,0.0688189 0.0381299,0.103374 0.114661,0.103374 0.0167008,0 0.0334094,-0.00185827 0.0501181,-0.0054252 0.0167047,-0.0037126 0.0299843,-0.00785433 0.0396929,-0.0125669l0 -0.0745354c-0.0231299,0.00870866 -0.044122,0.0129961 -0.0631102,0.0129961 -0.0142795,0 -0.0248465,-0.0035748 -0.0318425,-0.0107087z"/>
    <path id="_202064464" class="fil2" d="M3.39908 3.60237l0 -0.078248c-0.0269843,0.0128504 -0.0505433,0.0219921 -0.070252,0.0272756 -0.0198465,0.00527953 -0.0398346,0.00799213 -0.0598268,0.00799213 -0.0312677,0 -0.054689,-0.00884646 -0.0705354,-0.0264094 -0.0157047,-0.0175669 -0.0235591,-0.0418425 -0.0235591,-0.0728268l0 -0.0121378 0.000854331 -0.0129921 0.0179961 0c0.085815,0 0.151921,-0.0142756 0.198472,-0.0428346 0.0464055,-0.028563 0.0695354,-0.068252 0.0695354,-0.118945 0,-0.037122 -0.0124213,-0.0658228 -0.0374094,-0.0859567 -0.0249882,-0.0202756 -0.0598307,-0.0304094 -0.104803,-0.0304094 -0.0456929,0 -0.0871024,0.0129882 -0.123945,0.0389764 -0.0369764,0.0258465 -0.066252,0.062685 -0.0879528,0.110228 -0.0215669,0.0475512 -0.0324134,0.098811 -0.0324134,0.154071 0,0.0555433 0.0154213,0.098811 0.0462638,0.129654 0.0308425,0.0309843 0.0736772,0.0465472 0.12865,0.0465472 0.0275551,0 0.052689,-0.00257087 0.0751063,-0.00785039 0.0224173,-0.00514567 0.0469764,-0.0138543 0.0738189,-0.0261339zm-0.0765354 -0.261587c-0.0295551,0.0148504 -0.0705315,0.0222756 -0.122937,0.0222756l-0.0121378 0c0.0102835,-0.0392677 0.0271339,-0.0709646 0.0508346,-0.0949567 0.0235591,-0.0239843 0.048689,-0.0358386 0.0753937,-0.0358386 0.0175591,0 0.0308386,0.00385827 0.0398346,0.0118543 0.00885433,0.00799606 0.0132795,0.0189921 0.0132795,0.0332677 0,0.0272717 -0.0147047,0.0484055 -0.0442677,0.0633976z"/>
    <path id="_202063408" class="fil2" d="M3.60035 3.62793l0.0444094 -0.209185c0.0108504,-0.0509764 0.0301299,-0.0922402 0.0576811,-0.123795 0.027563,-0.0315551 0.0589764,-0.0472638 0.0940984,-0.0472638 0.0134213,0 0.0275591,0.00200394 0.0426929,0.00585433l0.0212795 -0.0916654c-0.0127126,-0.00328346 -0.0278425,-0.00499606 -0.045122,-0.00499606 -0.0259882,0 -0.0505472,0.00727953 -0.0736811,0.0219843 -0.0231299,0.0147087 -0.0462598,0.0386969 -0.0693937,0.0721102l-0.0037126 0 0.0087126 -0.0856732 -0.0769646 0 -0.0986654 0.46263 0.0986654 0z"/>
    <path id="_202063744" class="fil2" d="M4.26226 3.60823l0 -0.0856732c-0.0524016,0.0189921 -0.0982323,0.0284173 -0.137646,0.0284173 -0.0448346,0 -0.078815,-0.0132835 -0.101807,-0.0399803 -0.0229882,-0.0265591 -0.0345512,-0.0649685 -0.0345512,-0.115228 0,-0.0568307 0.0101339,-0.109091 0.0302677,-0.156642 0.0202756,-0.0475472 0.0472638,-0.083815 0.0809606,-0.10852 0.0338425,-0.0248425 0.0721063,-0.0372677 0.115091,-0.0372677 0.025126,0 0.0475433,0.0032874 0.0673976,0.00999606 0.0197008,0.00671654 0.0384055,0.0148504 0.0559685,0.0242795l0.0394094 -0.0815354c-0.0479764,-0.0257008 -0.102232,-0.0385512 -0.162776,-0.0385512 -0.0629685,0 -0.119087,0.0162795 -0.168205,0.0485472 -0.0489764,0.0324094 -0.0882441,0.0796732 -0.117657,0.141787 -0.0294134,0.0622559 -0.044122,0.129508 -0.044122,0.202047 0,0.0748189 0.019563,0.132787 0.058685,0.174339 0.0392677,0.0414055 0.0933858,0.0621142 0.162492,0.0621142 0.054122,0 0.106236,-0.0094252 0.156492,-0.0281299z"/>
    <path id="_202063288" class="fil2" d="M4.5038 3.63636c0.0532638,0 0.101949,-0.0274134 0.145929,-0.0821024l0.00257087 0 -0.00885433 0.0736772 0.076248 0 0.0986693 -0.46263 -0.075252 0 -0.0259843 0.0661102 -0.00414173 0c-0.0108543,-0.0242756 -0.0261299,-0.0428346 -0.0456929,-0.0555433 -0.0194213,-0.0125669 -0.0426929,-0.0189882 -0.0698189,-0.0189882 -0.0406969,0 -0.0781102,0.0142756 -0.112091,0.0428346 -0.0339882,0.0286969 -0.060685,0.0675394 -0.0801063,0.116516 -0.0194173,0.0491142 -0.029126,0.101803 -0.029126,0.158205 0,0.0512598 0.0114213,0.0910984 0.0344094,0.11937 0.0228465,0.0282756 0.0539724,0.0425512 0.0932402,0.0425512zm0.157638 -0.19876c-0.0141339,0.0362677 -0.0322677,0.0652559 -0.0542598,0.086815 -0.0221299,0.0215591 -0.0445472,0.0324134 -0.0673937,0.0324134 -0.0201339,0 -0.0358386,-0.007 -0.047122,-0.0211378 -0.0112795,-0.0141339 -0.0168465,-0.0354055 -0.0168465,-0.0638268 0,-0.0395472 0.00627953,-0.077811 0.0187047,-0.114795 0.0125669,-0.0369843 0.0294173,-0.0661102 0.0502638,-0.0876732 0.0209843,-0.0214173 0.0432638,-0.032126 0.0669646,-0.032126 0.0211339,0 0.0382677,0.0074252 0.0514016,0.0222717 0.0131378,0.0149961 0.0197087,0.0346969 0.0197087,0.0592559 0,0.0429843 -0.00714173,0.0825354 -0.0214213,0.118803z"/>
    <path id="_202063528" class="fil2" d="M4.9478 3.62793l0.0444094 -0.209185c0.0108543,-0.0509764 0.0301339,-0.0922402 0.057685,-0.123795 0.0275591,-0.0315551 0.0589764,-0.0472638 0.0940984,-0.0472638 0.0134213,0 0.0275551,0.00200394 0.0426929,0.00585433l0.0212756 -0.0916654c-0.0127087,-0.00328346 -0.0278465,-0.00499606 -0.0451181,-0.00499606 -0.0259882,0 -0.0505512,0.00727953 -0.0736811,0.0219843 -0.0231299,0.0147087 -0.0462638,0.0386969 -0.0693937,0.0721102l-0.0037126 0 0.0087126 -0.0856732 -0.0769685 0 -0.0986614 0.46263 0.0986614 0z"/>
    <path id="_202063240" class="fil2" d="M5.3981 3.61751c0.0228465,-0.0125669 0.0465472,-0.0337008 0.0711102,-0.0632559l0.00285433 0 -0.00785433 0.0736772 0.0769606 0 0.137933 -0.650969 -0.0973819 0 -0.0318386 0.149787c-0.0067126,0.0289843 -0.0118543,0.0638228 -0.0154213,0.104661l-0.00342913 0c-0.0247008,-0.049689 -0.0621102,-0.0745315 -0.112087,-0.0745315 -0.0406929,0 -0.0778228,0.0137008 -0.111232,0.0409764 -0.0334134,0.0274134 -0.0601102,0.0658228 -0.0800984,0.11552 -0.0199961,0.049685 -0.0299882,0.103087 -0.0299882,0.160201 0,0.0518346 0.0112795,0.0919567 0.0339803,0.120228 0.0225591,0.0282756 0.0538346,0.0425512 0.0936693,0.0425512 0.0257008,0 0.0499764,-0.00628346 0.0728228,-0.0188465zm0.086811 -0.18448c-0.0135591,0.0368386 -0.0315512,0.0666772 -0.0539685,0.0895236 -0.022563,0.0228465 -0.045122,0.0342717 -0.0679685,0.0342717 -0.0438386,0 -0.0656811,-0.0282717 -0.0656811,-0.0849646 0,-0.0386929 0.00614173,-0.076815 0.0184173,-0.114224 0.0122835,-0.0372677 0.0287008,-0.0666811 0.0492598,-0.0882441 0.0207047,-0.0214173 0.0428386,-0.032126 0.0665394,-0.032126 0.0248465,0 0.0432677,0.00756693 0.0554016,0.0229921 0.0121378,0.0152756 0.0182795,0.0356929 0.0182795,0.0611102 0,0.0375512 -0.00685827,0.0748228 -0.0202795,0.111661z"/>
   </g>
  </g>
 </g>
 <rect class="fil3" width="6.82666" height="6.82666"/>
</svg>
