<?xml version="1.0" encoding="UTF-8"?>
<!DOCTYPE svg PUBLIC "-//W3C//DTD SVG 1.1//EN" "http://www.w3.org/Graphics/SVG/1.1/DTD/svg11.dtd">
<!-- Creator: CorelDRAW -->
<svg xmlns="http://www.w3.org/2000/svg" xml:space="preserve" width="6.82666in" height="6.82666in" style="shape-rendering:geometricPrecision; text-rendering:geometricPrecision; image-rendering:optimizeQuality; fill-rule:evenodd; clip-rule:evenodd"
viewBox="0 0 6.82666 6.82666"
 xmlns:xlink="http://www.w3.org/1999/xlink">
 <defs>
  <style type="text/css">
   <![CDATA[
    .fil3 {fill:none}
    .fil0 {fill:#0088C8}
    .fil1 {fill:#56A9D6}
    .fil2 {fill:#E3001B}
   ]]>
  </style>
 </defs>
 <g id="Layer_x0020_1">
  <metadata id="CorelCorpID_0Corel-Layer"/>
  <g id="_203353352">
   <path id="_200165496" class="fil0" d="M1.88512 3.34686c0,0.0747638 0,0.149941 0,0.224594 0,0.0288583 -0.0102795,0.0525984 -0.0297953,0.0721102 -0.00829921,0.00833465 -0.0164843,0.0154409 -0.0263898,0.021122 -0.0122638,0.00672835 -0.025685,0.0102795 -0.0395512,0.0118504 -0.00829921,0.000559055 -0.0170118,0.000559055 -0.0253071,0.000559055l-0.129791 0c-0.00261811,0.000523622 -0.00314173,0.00104724 -0.00355512,0.0040748 0,0.00209449 0,0.00422441 0,0.00620472l0 0.148894c0,0.00209449 0,0.0040748 0,0.00616929 0,0.00302756 -0.000519685,0.00302756 -0.00370079,0.00359055l-0.104031 0c-0.00209449,-0.000562992 -0.0030315,-0.00108661 -0.0030315,-0.00306693l0 -0.49715c0,-0.0164843 0.00146063,-0.0329685 0.00620866,-0.0489331 0.00250394,-0.00975591 0.00605512,-0.0189882 0.0108031,-0.027811 0.00459843,-0.00818898 0.0108031,-0.0154409 0.0184646,-0.0205984 0.0154409,-0.0102795 0.0313661,-0.0180551 0.0499803,-0.0210827 0.0040748,-0.00104724 0.00829921,-0.00104724 0.0124134,-0.00104724l0.164295 0c0.0108031,0 0.0216417,0.00157087 0.0324449,0.0040748 0.0304685,0.00777559 0.0505039,0.0263543 0.0618307,0.0551378 0.00359055,0.0108031 0.00620866,0.0216063 0.00714173,0.0329331 0.00157087,0.00938583 0.00157087,0.0186181 0.00157087,0.028374zm-0.111287 0.0242638c0,-0.00422441 0,-0.00882283 -0.00146063,-0.012937 -0.00209055,-0.00870866 -0.00725197,-0.014878 -0.0170079,-0.0170079 -0.00265354,-0.00104724 -0.0056811,-0.00104724 -0.00829921,-0.00104724l-0.0824252 0c-0.0040748,0 -0.00818898,0.000523622 -0.0122638,0.00157087 -0.0108031,0.00317717 -0.0175315,0.0103189 -0.020185,0.021122 -0.00104724,0.00459843 -0.00146063,0.00975591 -0.00146063,0.0145039 0,0.0292677 0,0.0597362 0,0.0890079 0,0.020185 0,0.0402205 0,0.0602598 0,0.00474803 0.000413386,0.00938189 0.00146063,0.0134567 0.00265354,0.00923228 0.00777559,0.0159606 0.0164843,0.0195118 0.0056811,0.00213386 0.0113268,0.0031811 0.0170079,0.0031811l0.0794016 0c0.0122598,0 0.0200354,-0.00673228 0.0262441,-0.0164882 0.00250394,-0.0040748 0.00250394,-0.00882283 0.00250394,-0.0134567l0 -0.0808189c0,-0.0268031 0,-0.0540945 0,-0.0808583zm2.2373 0.0448583c-0.000523622,-0.0278504 -0.000523622,-0.0556654 -0.000523622,-0.0840354 0,-0.0170118 0.00261811,-0.0334961 0.00882283,-0.0499803 0.0087126,-0.0216063 0.0241102,-0.0370472 0.0457559,-0.0463937 0.0129331,-0.00515748 0.0263937,-0.00818504 0.0402244,-0.00923228 0.00463386,0 0.00882283,0 0.0134567,0l0.150354 0c0.0128937,0 0.0253071,0.00104724 0.0371575,0.00459843 0.0319252,0.00882283 0.0524843,0.0283346 0.0617165,0.0602598 0.00422441,0.0134567 0.00620472,0.0272874 0.00620472,0.0412717l0 0.0881102c0,0.00104331 0,0.00198031 0,0.00355118 0,0.00104724 -0.000523622,0.0016063 -0.00145669,0.00212992 -0.00157087,0.000523622 -0.00261811,0.00104724 -0.00422441,0.00142126 -0.0453465,0.0180906 -0.0900551,0.035626 -0.134874,0.0531575 -0.0351024,0.0138661 -0.0700551,0.0278504 -0.104598,0.0411575 -0.00156693,0.000523622 -0.00209055,0.00104724 -0.00370079,0.00157087 -0.000374016,0.000523622 -0.000897638,0.00104724 -0.000897638,0.00265354 -0.00108268,0.00870866 0,0.0173819 0.00564567,0.0251969 0.000937008,0.00156693 0.00198031,0.00355118 0.00355118,0.00511811 0.00306693,0.0040748 0.00725197,0.00620866 0.0124134,0.00620866l0.218909 0c0.0102795,0 0.00923228,-0.00104724 0.00923228,0.00870866l0 0.0978307c0,0.00833465 0.000523622,0.00833465 -0.00818504,0.00833465l-0.234465 0c-0.0143898,-0.000523622 -0.0287441,-0.00108268 -0.0427244,-0.00411024 -0.020563,-0.00459843 -0.0375709,-0.0150276 -0.0514409,-0.0304685 -0.00882283,-0.0108031 -0.0160748,-0.0221299 -0.019626,-0.0354764 -0.00212992,-0.00725197 -0.00306299,-0.0145039 -0.00411024,-0.0221299 -0.00209449,-0.0164843 -0.00104724,-0.0329724 -0.00157087,-0.0494567 -0.00104724,-0.0402244 0,-0.0799252 -0.00104724,-0.119996zm0.110764 -0.0088622c0,0.00157087 0.000523622,0.00317717 0.000523622,0.0046378 0,0.00104724 0.00104724,0.00209449 0.00212992,0.00209449 0.00250787,-0.00104724 0.00512205,-0.00157087 0.00762598,-0.00265748 0.0361496,-0.0133071 0.0726732,-0.0272874 0.109197,-0.0411181 0.0056811,-0.00212992 0.0108031,-0.00411417 0.0164843,-0.00672835 0.00265354,-0.000523622 0.00317717,-0.00198425 0.00317717,-0.0040748 -0.000523622,-0.00672835 -0.00370079,-0.0118898 -0.00975591,-0.0149173 -0.00515748,-0.00317717 -0.0108425,-0.00422441 -0.0170079,-0.00422441 -0.0253465,0 -0.0505433,0 -0.0758504,0 -0.0112165,-0.000523622 -0.0210827,0.00370079 -0.0292717,0.0118898 -0.00459843,0.00511811 -0.00725197,0.0102795 -0.00725197,0.0170079 0.000523622,0.00616929 0,0.0128976 0,0.0191024l0 0.0189882zm-1.78602 -0.109193c0.00317717,0.0124134 0.00411024,0.0247835 0.00411024,0.0376063 0,0.0772717 0.000523622,0.155587 0,0.233417 0,0.0179409 -0.00306299,0.036 -0.0108386,0.0524843 -0.00923228,0.0191024 -0.0221299,0.0334961 -0.0405984,0.0437756 -0.0108031,0.00620472 -0.0232126,0.00975591 -0.0361496,0.0108031 -0.00818504,0.00108268 -0.0164843,0.00108268 -0.0246693,0.00108268l-0.138055 0c-0.0175315,0 -0.0345394,-0.0016063 -0.0510276,-0.00672835 -0.0138661,-0.00411024 -0.0262402,-0.0103189 -0.0365591,-0.0205984 -0.0118504,-0.0108031 -0.019626,-0.0251969 -0.0237362,-0.0411181 -0.00250787,-0.0109528 -0.0040748,-0.0221693 -0.0040748,-0.0334961 0,-0.0309921 0,-0.0623898 0,-0.0932677 0,-0.0145039 0.00212992,-0.0288622 0.00672835,-0.0433661 0.00870866,-0.0277008 0.0272874,-0.0457559 0.0546142,-0.0551378 0.0127835,-0.00459843 0.0256811,-0.00657874 0.0386181,-0.00710236 0.00355118,0 0.0071378,0 0.0108031,0l0.134913 0c0.0113622,0 0.00990551,0.00104724 0.00990551,-0.0103189 0,-0.00366142 0,-0.00725197 -0.00104724,-0.0108031 -0.00212992,-0.00620472 -0.00620472,-0.0102795 -0.0118898,-0.012374 -0.0040748,-0.0016063 -0.00777559,-0.00265354 -0.0118465,-0.00265354 -0.00265748,0 -0.0046378,0 -0.00725591,0l-0.211657 0c-0.00212992,0 -0.00411024,0 -0.00620472,0 -0.00302756,0 -0.00355118,-0.000523622 -0.00355118,-0.0040748 -0.000562992,-0.0016063 0,-0.00302756 0,-0.00463386 0,-0.0319252 -0.000562992,-0.063811 0,-0.0964094 0,-0.00975591 -0.00108268,-0.00867323 0.00814961,-0.00867323l0.243173 0c0.0138661,0 0.0278465,0.00104724 0.0411575,0.00459843 0.0150276,0.0040748 0.0283701,0.0102795 0.0402205,0.020185 0.0139843,0.0127874 0.0226929,0.028748 0.0267677,0.0468031zm-0.106016 0.217866c0,-0.00355118 0,-0.00710236 0,-0.0108031 -0.00104724,-0.0108425 -0.00725197,-0.0184685 -0.0180551,-0.0216457 -0.00411417,-0.000523622 -0.00833858,-0.00104724 -0.0124134,-0.00104724 -0.0143898,0 -0.0283346,0 -0.0427283,0l-0.043252 0c-0.00317717,0 -0.00672835,0 -0.00990551,0.00104724 -0.0127835,0.0016063 -0.014878,0.00672835 -0.0168583,0.0175315 -0.000523622,0.000523622 -0.000523622,0.0016063 -0.000523622,0.00212992 0,0.013311 0,0.0262441 0,0.0391772 0,0.0040748 0.00142126,0.00710236 0.0040748,0.0102795 0.00672835,0.00673228 0.0143937,0.0108071 0.0241496,0.0102835 0.0118504,0 0.0231772,0 0.0345394,0l0.0525984 0c0.0056811,0 0.0108425,-0.000523622 0.0159606,-0.0031811 0.00568504,-0.00250394 0.00975984,-0.00657874 0.0113661,-0.0127835 0.000523622,-0.00261811 0.00104724,-0.0056811 0.00104724,-0.00829921 0,-0.00766142 0,-0.015437 0,-0.022689zm1.53294 0.161303l0.0999606 0c0.00261811,0 0.00317717,-0.000559055 0.00370079,-0.00306299 0,-0.00209449 0,-0.00366535 0,-0.00564567l0 -0.319957c0,-0.00882283 -0.00108268,-0.00829921 0.00762598,-0.00829921l0.0639606 0c0.00661811,0 0.00661811,0 0.00661811,-0.00657874l0 -0.10052c0,-0.00104724 0,-0.00261811 0,-0.00355118 0,-0.00261811 -0.000413386,-0.00314173 -0.00359055,-0.00314173l-0.071063 0c-0.00302756,0 -0.00355118,-0.00108268 -0.00355118,-0.00411024 -0.000523622,-0.00777559 -0.000523622,-0.0154409 0,-0.0237402 0,-0.00302756 0.000897638,-0.00620472 0.00142126,-0.00870866 0.00265354,-0.00882283 0.00885827,-0.0150276 0.0170472,-0.0185787 0.00564173,-0.00209449 0.0113268,-0.00250394 0.0170079,-0.00250394l0.0366339 0c0.00661811,0 0.00661811,0 0.00661811,-0.00673228l0 -0.0978661c0,-0.00616929 0,-0.00616929 -0.00661811,-0.00616929 -0.0212323,0 -0.0428386,0 -0.0644843,0 -0.00672835,0 -0.0138307,0.000523622 -0.0205591,0.00142126 -0.0247835,0.00370079 -0.0468031,0.0124134 -0.0654213,0.028374 -0.0143543,0.0129331 -0.0247835,0.0283346 -0.0294173,0.0469528 -0.00250394,0.0108031 -0.00355118,0.0216063 -0.00355118,0.0329724l0 0.50126c-0.000523622,0.00870866 -0.000523622,0.00818504 0.00766142,0.00818504zm-0.184894 -0.00108268c-0.00818504,0.00108268 -0.0159606,0.00108268 -0.0241496,0.00108268l-0.138051 0c-0.0175315,0 -0.0351024,-0.0016063 -0.0515866,-0.00672835 -0.0138346,-0.00411024 -0.0267677,-0.0108425 -0.0375709,-0.0205984 -0.0118858,-0.0118504 -0.0191378,-0.0262402 -0.0232126,-0.0422047 -0.00250787,-0.0102795 -0.00355118,-0.0210827 -0.00355118,-0.0315118 -0.000523622,-0.0324488 -0.000523622,-0.0643346 0,-0.0967835 0,-0.0170079 0.00250394,-0.0334961 0.00923228,-0.0489331 0.00882283,-0.0200394 0.022689,-0.0345433 0.0422047,-0.043252 0.0113268,-0.00515748 0.0237362,-0.00829921 0.0366339,-0.00975591 0.00923228,-0.00157087 0.0179449,-0.00157087 0.0273268,-0.00157087l0.13435 0c0.00516142,0 0.00568504,0 0.00568504,-0.00515748 0,-0.00370079 0,-0.00672835 0,-0.00975984 -0.00146063,-0.0118858 -0.00710236,-0.0170079 -0.0164882,-0.0196614 -0.00459843,-0.00104724 -0.00923228,-0.00104724 -0.0138307,-0.00104724l-0.221039 0c-0.00157087,0 -0.00261811,-0.000933071 -0.00261811,-0.00250394l0 -0.103512c0,-0.00833465 -0.000413386,-0.00833465 0.00777559,-0.00833465l0.24422 0c0.0138661,0 0.0278465,0.0016063 0.0411575,0.00515748 0.0149134,0.00370079 0.0283346,0.00975591 0.0396969,0.020185 0.0143583,0.0122638 0.0226535,0.028748 0.0272913,0.0473268 0.00302756,0.0124094 0.0040748,0.0251969 0.0040748,0.0376063l0 0.231283c0,0.0200748 -0.00302756,0.0391772 -0.0127835,0.0572323 -0.00882283,0.0164882 -0.0212362,0.0303583 -0.0377205,0.0401142 -0.0117402,0.00672835 -0.0241102,0.0102795 -0.0370472,0.0113268zm-0.0232126 -0.159173c0,-0.0040748 0,-0.00762598 0,-0.0113268 -0.000523622,-0.0108071 -0.00657874,-0.0184685 -0.0170079,-0.021122 -0.00355512,-0.00157087 -0.00714173,-0.00209449 -0.0112165,-0.00209449 -0.0299449,0 -0.0598858,0 -0.0896811,0 -0.0040748,0 -0.00829921,0.000523622 -0.0118504,0.00209449 -0.00620472,0.00108268 -0.0102795,0.00463386 -0.0118858,0.0108386 -0.00104724,0.00314173 -0.00198031,0.00616929 -0.00198031,0.00923622 0,0.012374 0,0.0247835 0,0.0371575 0,0.00463386 0.00198031,0.00766142 0.00463386,0.0108386 0.00710236,0.00673228 0.014878,0.0108071 0.0241102,0.0102835 0.0145039,0 0.0288976,0 0.043252,0l0.0434016 0c0.00355118,0 0.00714173,0 0.0112165,-0.00104724 0.0109528,-0.00302756 0.0164843,-0.0102795 0.0170079,-0.0216457 0,-0.00829921 0,-0.015437 0,-0.0232126zm-0.770039 -0.2905l-0.091252 0c-0.0108031,0 -0.00975591,-0.0016063 -0.00975591,0.00923228l0 0.298799c0,0.00515748 -0.00157087,0.00979134 -0.00459843,0.0134567 -0.00725197,0.00923228 -0.0159606,0.0149173 -0.028374,0.0149173l-0.0808189 0c-0.0145433,0 -0.0232165,-0.00777559 -0.0269173,-0.0216457 -0.00145669,-0.00564567 -0.00145669,-0.0113268 -0.00145669,-0.0175315l0 -0.288929c0,-0.00885827 0.000523622,-0.00829921 -0.00882283,-0.00829921l-0.0941654 0c-0.00990551,0 -0.00882283,-0.00108268 -0.00882283,0.00867323l0 0.323657c0,0.0117362 0.00104724,0.023063 0.00314173,0.0349134 0.00411024,0.0170472 0.0117362,0.0329724 0.0231024,0.0464291 0.0145039,0.0170079 0.0320354,0.0292717 0.0540551,0.0340197 0.0109528,0.00250394 0.0217559,0.00358661 0.0325591,0.00358661l0.137941 0c0.00212992,0 0.00317717,0.000523622 0.00317717,0.00355118 0,0.00777559 0,0.0154409 0,0.0226929 0,0.00616535 -0.00265354,0.0113268 -0.00672835,0.0154016 -0.0056811,0.00672835 -0.012374,0.0108386 -0.0205591,0.0118858 -0.00411417,0.000523622 -0.00777559,0.000523622 -0.0113661,0.000523622l-0.207024 0c-0.00885827,0 -0.00777559,0 -0.00777559,0.00829921l0 0.0978661c0,0.00157087 -0.000523622,0.00302756 0,0.0040748 0,0.00302756 0.000523622,0.00355118 0.00302756,0.00411417l0.251472 0c0.0071378,0 0.0149134,-0.000562992 0.0221693,-0.00146063 0.0189882,-0.00317717 0.0359961,-0.0108031 0.0505,-0.0242598 0.0149173,-0.0138701 0.0241496,-0.0314016 0.0297953,-0.0505039 0.00515748,-0.0164843 0.00672835,-0.0340551 0.00672835,-0.051063 0,-0.0802992 0,-0.160634 0,-0.24052l0 -0.243209c0,-0.00975591 0.00104724,-0.00867323 -0.00923228,-0.00867323zm0.328665 0.450756c0.00975591,0 0.0200354,-0.000559055 0.0297953,-0.00212992 0.0102795,-0.00198031 0.019622,-0.0056811 0.0283346,-0.0122598 0.0196614,-0.0155512 0.0345787,-0.0345433 0.0437756,-0.0582795 0.00317717,-0.0087126 0.00515748,-0.0179449 0.00515748,-0.0273268 0,-0.0283386 0,-0.0561496 0,-0.0838504 0,-0.00725197 -0.00104724,-0.0145039 -0.00250394,-0.0217559 -0.0056811,-0.0246732 -0.020189,-0.0447087 -0.0402244,-0.0597362 -0.0164843,-0.0128228 -0.0355866,-0.0179449 -0.0556614,-0.0184685l-0.0937559 0c-0.00355118,0 -0.00710236,0 -0.0113268,0 -0.00463386,-0.000523622 -0.00923228,-0.0016063 -0.0138701,-0.00370079 -0.00725197,-0.00302756 -0.0108031,-0.00870866 -0.0113268,-0.0170079 0,-0.00411417 0,-0.00818898 0,-0.0122638 0.000523622,-0.00725197 0.0040748,-0.0129331 0.0108031,-0.0159606 0.0030315,-0.00157087 0.00620866,-0.00212992 0.00923622,-0.00317717 0.00515748,-0.00104724 0.0102795,-0.00104724 0.015437,-0.00104724l0.185528 0c0.00818898,0 0.00766535,0.000523622 0.00766535,-0.00766142l0 -0.0978307c0,-0.00885827 0.000523622,-0.00829921 -0.00870866,-0.00829921l-0.21839 0c-0.00474803,0 -0.00934646,0 -0.0139803,0 -0.0143543,0.00104724 -0.0283346,0.00355118 -0.0416457,0.00867323 -0.0237362,0.00938189 -0.0396969,0.0258661 -0.0484094,0.0499803 -0.00422441,0.0124094 -0.00672835,0.0253465 -0.00672835,0.0381299 0,0.0299409 0,0.0598858 0,0.0896811 0.000523622,0.0170079 0.0056811,0.0329685 0.0154409,0.0474724 0.00511811,0.0071063 0.0118504,0.013311 0.0185787,0.0195157 0.0205591,0.0185787 0.0452323,0.027811 0.0725197,0.0288976l0.00938189 0c0.028748,0 0.0581693,0 0.0870276,0 0.00714173,-0.000562992 0.0124094,0.00250394 0.0159606,0.00814961 0.00725591,0.0102795 0.00620866,0.0205945 0.0040748,0.0319213 0,0 -0.000519685,0.000523622 -0.000519685,0.000523622 -0.00198425,0.00568504 -0.00620866,0.00882283 -0.0113268,0.0113268 -0.00568504,0.00213386 -0.0118898,0.00265748 -0.0175354,0.00265748l-0.187398 0c-0.00833465,0 -0.00777559,-0.00104724 -0.00777559,0.0071378l0 0.0999606c0,0.00725197 -0.000559055,0.00725197 0.00725197,0.00725197 0.0751417,-0.000523622 0.149791,-0.000523622 0.225118,-0.000523622z"/>
   <path id="_200165832" class="fil1" d="M5.23099 3.63329c-0.0189921,0.030878 -0.0468386,0.0499803 -0.0829528,0.0572323 -0.00923228,0.00198031 -0.0184646,0.00250394 -0.0278504,0.00250394l-0.132256 0c-0.0207126,0 -0.0382441,-0.00302756 -0.0546181,-0.00867323 -0.0329685,-0.0129331 -0.0567087,-0.035626 -0.0701299,-0.0664646 -0.00463386,-0.0108425 -0.00766142,-0.0226929 -0.00923228,-0.0370827 -0.00108268,-0.0103937 -0.0016063,-0.020189 -0.0016063,-0.0299449l0 -0.0545787c0,-0.015437 0.0016063,-0.0299409 0.00463386,-0.0437756 0.00261811,-0.0134567 0.00725197,-0.0251929 0.0139803,-0.0370827 0.012374,-0.0216063 0.0313661,-0.0375669 0.055626,-0.0474724 0.0149173,-0.00564567 0.030878,-0.00867323 0.0478858,-0.00923622 0.00516142,-0.000523622 0.0102835,-0.000523622 0.0149173,-0.000523622l0.200445 0c0,-0.00459843 0,-0.00923228 -0.000523622,-0.0138307 0,-0.0150276 -0.00212992,-0.0269134 -0.00672835,-0.0371969 -0.00516142,-0.0122598 -0.0124134,-0.0216063 -0.020563,-0.0287441 -0.00620472,-0.00516142 -0.0118858,-0.00829921 -0.0186142,-0.00990945 -0.0108031,-0.00194094 -0.0205591,-0.00302756 -0.0308425,-0.00302756l-0.233413 0c-0.00254331,0 -0.00515748,0 -0.00766535,-0.000523622 -0.0108031,-0.000519685 -0.0175315,-0.00777559 -0.0180551,-0.0185787l0 -0.0200354c0.000523622,-0.00672835 0.00302756,-0.0175709 0.0180551,-0.0195512l0.00673228 -0.000523622c0.0730433,0 0.14676,0 0.220366,0.000523622 0.0207126,0 0.0391417,0.00145669 0.056185,0.00411417 0.0170118,0.00250394 0.032937,0.0102795 0.0458701,0.022689 0.0118858,0.0113268 0.0221693,0.0251575 0.030878,0.043252 0.00777559,0.0164843 0.0128976,0.0340157 0.014878,0.0524843 0.00108268,0.00725197 0.00108268,0.0155512 0.00108268,0.0232165l0 0.199394c0,0.0143583 -0.00108268,0.0297953 -0.00306299,0.0453465 -0.00157087,0.0122598 -0.00616929,0.0241496 -0.0134213,0.036zm-0.0422047 -0.216929c-0.0669882,0 -0.134539,0 -0.201902,0 -0.0088622,0 -0.0159646,0.000523622 -0.0237402,0.00212992 -0.022689,0.00512205 -0.0381299,0.0185787 -0.0464291,0.0402244 -0.00302756,0.00867323 -0.00515748,0.0184291 -0.00515748,0.0283346 -0.000374016,0.0262441 -0.000374016,0.0530079 0,0.0797756 0,0.00833465 0.0016063,0.0164843 0.00370079,0.0257165 0.00104724,0.00370079 0.00250394,0.00725197 0.0046378,0.0104291 0.00250394,0.00355118 0.00564173,0.00657874 0.0108031,0.0108031 0.0170079,0.0138701 0.035063,0.0205984 0.0550984,0.0205984l0.0597756 0c0.0247835,0 0.0499803,0 0.0746142,0 0.0124134,0 0.0226929,-0.00212992 0.0325984,-0.0056811 0.0143543,-0.0056811 0.0241142,-0.0149173 0.0297953,-0.0294213 0.0040748,-0.0108031 0.00620472,-0.0221654 0.00620472,-0.0345394l0 -0.14837zm-0.579091 0.276665l0.158276 0c0.0102835,-0.00104724 0.0168622,-0.00814961 0.0173858,-0.0184685l0 -0.0180551c0,-0.0180551 -0.0113268,-0.0221299 -0.020563,-0.0221299l-0.150874 0c-0.00829921,0 -0.0170079,-0.000559055 -0.0253071,-0.0016063 -0.00672835,-0.000523622 -0.0124134,-0.00157087 -0.0179449,-0.00302756 -0.0139803,-0.00459843 -0.022689,-0.0102795 -0.0288976,-0.0175315 -0.00725197,-0.00829921 -0.0128937,-0.0186181 -0.0159213,-0.0299449 -0.0031811,-0.0113268 -0.00474803,-0.0241496 -0.00474803,-0.0391772l0 -0.185417c0,-0.0108031 0,-0.0216063 0.000523622,-0.0324449 0.000523622,-0.00673228 0.00156693,-0.0128976 0.0031378,-0.0189921 0.00250394,-0.00987008 0.00725197,-0.0175315 0.0138701,-0.0237362 0.00422441,-0.00355118 0.00934646,-0.00672835 0.0170079,-0.00975984 0.012374,-0.00511811 0.0267677,-0.00725197 0.0427283,-0.00725197l0.159697 0c0.00265354,0 0.00516142,0 0.00620472,0l0.0191024 -0.00261417 0 -0.0376063 -0.00261417 -0.0170118 -0.0143937 -0.00145669c-0.00261811,0 -0.00564567,0 -0.00829921,0l-0.141642 0c-0.0127835,0 -0.0262402,0 -0.0397008,0.000933071 -0.0102795,0.00104724 -0.0221299,0.00213386 -0.0338661,0.00568504 -0.020189,0.00672835 -0.0377205,0.0191024 -0.0536811,0.0380906 -0.0118898,0.0139803 -0.0195157,0.0299449 -0.0231024,0.0485591 -0.00209449,0.00975984 -0.00314173,0.0195157 -0.00314173,0.0308425l0 0.227772c0,0.014878 0.00261811,0.0297913 0.00672835,0.0446693 0.00762598,0.0273268 0.0237402,0.0494567 0.0462795,0.0659449 0.012937,0.00885827 0.0258307,0.015063 0.0381299,0.0175669 0.0170118,0.00418898 0.0350669,0.00616929 0.055626,0.00616929zm0.79602 -0.0241102l0 -0.315846c0,-0.00818504 0,-0.0159606 0.000937008,-0.0242598 0.00156693,-0.0103189 0.00366142,-0.0189882 0.00725197,-0.0267638 0.00459449,-0.0108425 0.0118504,-0.0195512 0.0216063,-0.0257205 0.00620472,-0.00306693 0.0118858,-0.0056811 0.0186142,-0.00725197 0.00814961,-0.00198031 0.0170118,-0.00306693 0.028748,-0.00359055l0.0242598 0c0.00261811,0 0.00512205,0 0.00777559,0l0.0154409 -0.00459843 0 -0.035622 -0.00212992 -0.0164882 -0.0138346 -0.00142126c-0.0150276,-0.00212992 -0.0294173,-0.000559055 -0.0437717,0.000374016 -0.0134606,0.000523622 -0.0248228,0.00213386 -0.0351024,0.00527165 -0.0226929,0.00609449 -0.0416811,0.0168976 -0.056185,0.0324488 -0.0127874,0.0143937 -0.0210866,0.030878 -0.0262441,0.0509134 -0.0040748,0.0159646 -0.00672835,0.0334961 -0.00672835,0.053122l0 0.319433 0.00422441 0.0241102 0.0333819 0c0.00370079,0 0.0103937,0 0.0160748,-0.00564567 0.0056811,-0.00515748 0.0056811,-0.0118858 0.0056811,-0.0184646zm0.567614 -0.58937l0 0.468697c0,0.0232165 -0.00358661,0.0448228 -0.0108425,0.0639646 -0.0127835,0.0345394 -0.0370433,0.0581654 -0.0715866,0.071063 -0.0128228,0.00463386 -0.0268031,0.00725197 -0.043811,0.00870866 -0.0113268,0.00104724 -0.0216063,0.00104724 -0.0324094,0.00104724l-0.100524 0c-0.0154016,0 -0.0308386,-0.00157087 -0.0462795,-0.00459843 -0.0102795,-0.00157087 -0.0191024,-0.00463386 -0.0272874,-0.00923228 -0.0319252,-0.0175315 -0.0526339,-0.043252 -0.0607835,-0.0777913 -0.00411417,-0.0159646 -0.00620472,-0.0314016 -0.00620472,-0.0474764l0 -0.200858c0,-0.0200354 0.00250394,-0.0391732 0.00814961,-0.0567087 0.0056811,-0.0200354 0.0155866,-0.0365197 0.0283701,-0.0503898 0.0145079,-0.0150276 0.0329724,-0.0253071 0.0545787,-0.0320354 0.0155906,-0.0046378 0.0329724,-0.00658268 0.0542047,-0.00658268l0.195736 0 0 -0.127807c0,-0.012374 0.00725197,-0.019626 0.0205591,-0.019626l0.0180551 0c0.0124134,0 0.0195157,0.00725197 0.0200748,0.019626zm-0.058689 0.185937l-0.176185 0c-0.00979528,0 -0.0195512,0 -0.0294173,0.000523622 -0.00923622,0.00108661 -0.0174213,0.00198425 -0.0251969,0.00411417 -0.00829921,0.00209449 -0.0149173,0.00564567 -0.0210827,0.0108031 -0.00568504,0.00463386 -0.0103189,0.00975591 -0.0150669,0.015437 -0.0040748,0.00568504 -0.00762598,0.0113268 -0.00975591,0.0170118 -0.00355118,0.0102795 -0.00564567,0.0196614 -0.00564567,0.0288583l0.000523622 0.217339c-0.000523622,0.00568504 -0.000523622,0.0088622 0,0.0118898 0.000523622,0.00934646 0.00209449,0.0170079 0.00459843,0.0242598 0.00463386,0.012374 0.0118858,0.020563 0.022689,0.0257205 0.0040748,0.00209449 0.00882283,0.0040748 0.0134606,0.00564567 0.014878,0.00515748 0.030315,0.0072874 0.0457559,0.0072874l0.0917717 0c0.0118898,0 0.0232165,-0.000559055 0.0329724,-0.00265354 0.0189882,-0.00302756 0.0344291,-0.0102795 0.0473622,-0.0205591 0.00261811,-0.00212992 0.00512205,-0.0046378 0.00725197,-0.00672835 0.00512205,-0.00672835 0.00923622,-0.0149173 0.0118504,-0.0246732 0.00250394,-0.00975591 0.00411417,-0.020189 0.00411417,-0.0319252l0 -0.28235z"/>
   <path id="_203353376" class="fil2" d="M0.868768 3.22948c0.000523622,0 0.00157087,-0.00104724 0.00209449,-0.00157087 0.00975591,-0.00777559 0.0205984,-0.0145039 0.0319252,-0.0191417 0.00777559,-0.00355118 0.0154409,-0.00616535 0.0232126,-0.00814961 0.00198425,-0.000523622 0.0030315,-0.0016063 0.00355512,-0.00370079 0.00156693,-0.0071378 0.00355118,-0.0143898 0.00620472,-0.0211181 0.0257165,-0.0689724 0.0942756,-0.114315 0.168929,-0.109197 0.0232165,0.00161024 0.0453465,0.00725197 0.0659449,0.0180945 0.0448189,0.0237362 0.0737165,0.0597362 0.0865,0.108669 0.00212992,0.00672835 0.00157087,0.00672835 0.00829921,0.00829921 0.0195157,0.00459843 0.0370827,0.0127874 0.0521102,0.0257205 0.000897638,0.000523622 0.00146063,0.00209449 0.00355118,0.000523622 0,-0.00265354 0,-0.0056811 0,-0.00882283 0,-0.0108425 -0.00104331,-0.0221693 -0.00209055,-0.0329724 -0.00146063,-0.0138661 -0.00359055,-0.0273268 -0.00766535,-0.0401102 -0.0212323,-0.0762244 -0.0819055,-0.136484 -0.15865,-0.157193 -0.0124094,-0.00302756 -0.0242598,-0.00515748 -0.0371969,-0.00657874 -0.00145669,0 -0.00302756,0.000374016 -0.00355118,-0.0016063l-0.0416811 0c0,0.000519685 0,0.00108268 0,0.0016063 -0.00725197,0.000897638 -0.0145039,0.00198031 -0.0212323,0.00355118 -0.0530079,0.0108031 -0.0967835,0.0370472 -0.131323,0.079252 -0.0251969,0.0309882 -0.0411614,0.0664646 -0.0473661,0.106165 -0.00261417,0.0139803 -0.00317717,0.0283346 -0.00355118,0.0422047 -0.000523622,0.00512205 0,0.00986614 0,0.0150276 0,0.00104724 0.000937008,0.00198031 0.00198031,0.00104724zm0.46261 0.0895669c0.0016063,0.0102795 0.0016063,0.0201496 0.0016063,0.0299055l0 0.21061c0,0.0175354 -0.0016063,0.0351024 -0.00672835,0.0515906 -0.0046378,0.0139803 -0.0108425,0.0262402 -0.0205984,0.0365197 -0.012374,0.0134606 -0.027811,0.0212362 -0.0453465,0.0258346 -0.0113622,0.00250394 -0.0237362,0.00358661 -0.035622,0.00358661 -0.0895315,0 -0.178689,0 -0.267846,0 -0.027811,0 -0.051437,-0.0103189 -0.0731929,-0.0278504 -0.00355512,-0.00355118 -0.00658268,-0.00762598 -0.00923622,-0.0118504 -0.00762598,-0.0118858 -0.012374,-0.0246693 -0.0154016,-0.0386535 -0.0016063,-0.00657874 -0.00265354,-0.0138307 -0.00302756,-0.0210827 0,-0.00250394 0,-0.0056811 -0.00265354,-0.00766142l0 -0.236969c0.00302756,-0.00212992 0.00265354,-0.00515748 0.00265354,-0.00781102 0.000897638,-0.00923622 0.00250394,-0.0180591 0.00459843,-0.0267677 0.00302756,-0.0128976 0.00818504,-0.0251969 0.0159606,-0.036 0.00250787,-0.00422441 0.00568504,-0.00725197 0.00923622,-0.0104291 0.0159606,-0.0127835 0.0345394,-0.0216063 0.0551024,-0.0251575 0.00463386,-0.000523622 0.00870866,-0.000523622 0.0129331,-0.000523622l0.274051 0c0.0138307,0 0.027811,0.00157087 0.0405945,0.00564567 0.0253465,0.00829921 0.042878,0.0242598 0.0531575,0.0484094 0.00568504,0.0124094 0.00818898,0.0253071 0.00975984,0.0386535z"/>
  </g>
 </g>
 <rect class="fil3" width="6.82666" height="6.82666"/>
</svg>
