<?xml version="1.0" encoding="UTF-8"?>
<!DOCTYPE svg PUBLIC "-//W3C//DTD SVG 1.1//EN" "http://www.w3.org/Graphics/SVG/1.1/DTD/svg11.dtd">
<!-- Creator: CorelDRAW -->
<svg xmlns="http://www.w3.org/2000/svg" xml:space="preserve" width="6.82666in" height="6.82666in" style="shape-rendering:geometricPrecision; text-rendering:geometricPrecision; image-rendering:optimizeQuality; fill-rule:evenodd; clip-rule:evenodd"
viewBox="0 0 6.82666 6.82666"
 xmlns:xlink="http://www.w3.org/1999/xlink">
 <defs>
  <style type="text/css">
   <![CDATA[
    .fil4 {fill:none}
    .fil3 {fill:#373435}
    .fil1 {fill:#66914A}
    .fil0 {fill:#98C050}
    .fil2 {fill:#FEFEFE}
   ]]>
  </style>
 </defs>
 <g id="Layer_x0020_1">
  <metadata id="CorelCorpID_0Corel-Layer"/>
  <g id="_414286368">
   <path id="_414287064" class="fil0" d="M1.43183 2.73145c0.00795276,0 0.0159567,0.00269685 0.023622,0.00797638 -0.0590197,0.0277717 -0.122287,0.0977244 -0.149004,0.237417 -0.0390512,0.0120906 -0.0772205,0.0239094 -0.112504,0.0348425 0.0312953,-0.106551 0.105606,-0.280236 0.237886,-0.280236zm0.0547244 0.0517953c0.0113228,0.0283819 0.018685,0.0691102 0.018685,0.124067 0,0.00281102 -2.3622e-005,0.00538189 -4.72441e-005,0.00798819 -0.0448307,0.013878 -0.0935157,0.0289528 -0.142331,0.0440709 0.0274094,-0.105768 0.0787756,-0.15685 0.123693,-0.176126zm0.135858 0.0957795c-0.0204567,0.00633071 -0.0437087,0.0135276 -0.0689094,0.0213268 1.9685e-005,-0.00485433 3.14961e-005,-0.0096378 3.14961e-005,-0.0148583 3.93701e-006,-0.0455394 -0.00631102,-0.0822047 -0.0164606,-0.111276 0.040748,0.00511811 0.067878,0.0514606 0.0853386,0.104807zm0.330752 0.0810709c-0.000984252,-0.0071811 -0.00727559,-0.0111535 -0.0124685,-0.0115866 -0.00518504,-0.000437008 -0.114949,-0.00857087 -0.114949,-0.00857087 0,0 -0.0762283,-0.0756772 -0.0845906,-0.0840512 -0.00837402,-0.00836614 -0.0247205,-0.00582677 -0.0310669,-0.00395669 -0.000940945,0.000271654 -0.0166535,0.00512598 -0.0426654,0.0131693 -0.0254646,-0.0732717 -0.0704016,-0.14061 -0.149461,-0.14061 -0.00218504,0 -0.00442913,9.05512e-005 -0.00668898,0.000216535 -0.0224764,-0.0297323 -0.0503268,-0.0426496 -0.0743858,-0.0426496 -0.184165,-3.93701e-006 -0.272154,0.230224 -0.299744,0.347228 -0.0715591,0.0221693 -0.122406,0.0379331 -0.128894,0.0399764 -0.0399606,0.0125276 -0.0412087,0.0137874 -0.0464488,0.0514291 -0.00396063,0.0284961 -0.10848,0.836795 -0.10848,0.836795l0.814437 0.152594 0.441295 -0.0954685c0,0 -0.154913,-1.04733 -0.15589,-1.05452z"/>
   <path id="_414286896" class="fil1" d="M1.9407 2.94851c-0.00518504,-0.000437008 -0.114949,-0.00857087 -0.114949,-0.00857087 0,0 -0.0762283,-0.0756772 -0.0845906,-0.0840394 -0.00313386,-0.00313386 -0.00735433,-0.00472835 -0.0117717,-0.00541339l-0.0615787 1.25959 0.441248 -0.0954606c0,0 -0.154913,-1.04732 -0.15589,-1.05452 -0.000984252,-0.0071811 -0.00727559,-0.0111535 -0.0124685,-0.0115866z"/>
   <path id="_414286632" class="fil2" d="M1.51797 3.19234l-0.0544094 0.161858c0,0 -0.0476811,-0.0254449 -0.106114,-0.0254449 -0.0856732,0 -0.0899843,0.0537677 -0.0899843,0.067315 0,0.0739252 0.192689,0.102248 0.192689,0.275406 0,0.136224 -0.0863937,0.223949 -0.202902,0.223949 -0.139815,0 -0.211299,-0.0870118 -0.211299,-0.0870118l0.0374331 -0.123681c0,0 0.0734882,0.0630945 0.135504,0.0630945 0.0405079,0 0.0570039,-0.0318976 0.0570039,-0.0552126 0,-0.0964331 -0.158094,-0.100732 -0.158094,-0.259181 3.93701e-006,-0.133358 0.0957126,-0.262417 0.288941,-0.262417 0.0744528,0 0.111232,0.0213268 0.111232,0.0213268z"/>
   <path id="_414286704" class="fil3" d="M2.62349 3.49577c-0.0440197,-0.0238858 -0.0666417,-0.0440039 -0.0666417,-0.0716732 3.93701e-006,-0.0352087 0.0314331,-0.0578425 0.0804764,-0.0578425 0.0571181,0 0.108134,0.0238976 0.108134,0.0238976l0.0402441 -0.123232c0,0 -0.037,-0.0289173 -0.145866,-0.0289173 -0.151531,0 -0.25652,0.0867559 -0.25652,0.208736 0,0.0691535 0.0490433,0.121969 0.114429,0.159689 0.052815,0.0301693 0.0716772,0.0515551 0.0716772,0.0829961 0,0.0326929 -0.0264094,0.0590906 -0.0754488,0.0590906 -0.0730669,0 -0.142091,-0.0377165 -0.142091,-0.0377165l-0.042752 0.123228c0,0 0.0637441,0.0427441 0.171004,0.0427441 0.155937,0 0.267835,-0.0767008 0.267835,-0.215016 0,-0.074189 -0.0565787,-0.127004 -0.12448,-0.165984z"/>
   <path id="_414285936" class="fil3" d="M3.24466 3.23674c-0.0767008,0 -0.137055,0.0364685 -0.183587,0.0917953l-0.00250787 -0.00125984 0.0666378 -0.348307 -0.17352 0 -0.168496 0.886492 0.17352 0 0.0578504 -0.303039c0.0226339,-0.114429 0.0817244,-0.184843 0.137055,-0.184843 0.0389803,0 0.0540748,0.0263976 0.0540748,0.0641299 3.93701e-006,0.023878 -0.00252362,0.0528031 -0.00754724,0.0766969l-0.0653898 0.347055 0.173535 0 0.0678898 -0.358366c0.00754724,-0.0377323 0.0125827,-0.0829961 0.0125827,-0.113169 0,-0.0980827 -0.051563,-0.157185 -0.142098,-0.157185z"/>
   <path id="_414286488" class="fil3" d="M3.69358 3.74474c-0.0591024,0 -0.084248,-0.0502913 -0.084248,-0.113157 0,-0.0993465 0.0515551,-0.261555 0.145866,-0.261555 0.0616024,0 0.0817205,0.052815 0.0817205,0.10437 3.93701e-006,0.106882 -0.0515512,0.270343 -0.143339,0.270343zm0.0855 -0.508004c-0.208728,0 -0.347043,0.188618 -0.347043,0.39861 0,0.134551 0.0829843,0.242685 0.238909,0.242685 0.204957,-3.93701e-006 0.343268,-0.183583 0.343268,-0.39861 3.93701e-006,-0.12448 -0.0729252,-0.242685 -0.235134,-0.242685z"/>
   <path id="_414286152" class="fil3" d="M4.29213 3.74725c-0.0450591,0 -0.0716772,-0.0251339 -0.0716772,-0.0251339l0.0289213 -0.162224c0.020126,-0.10813 0.0767008,-0.179807 0.137063,-0.179807 0.0528071,0 0.0691535,0.0490433 0.0691535,0.0955591 0,0.111917 -0.0666378,0.271606 -0.163461,0.271606zm0.165984 -0.510516c-0.117122,0 -0.183594,0.10311 -0.183594,0.10311l-0.00251181 0 0.010063 -0.0930512 -0.153398 0c-0.00755118,0.062878 -0.0213898,0.158437 -0.0352205,0.23011l-0.12072 0.635012 0.173535 0 0.0477795 -0.256524 0.00377559 0c0,0 0.0356181,0.0226378 0.101854,0.0226378 0.203705,-3.93701e-006 0.336984,-0.208728 0.336984,-0.41998 0,-0.116949 -0.0515551,-0.221315 -0.178547,-0.221315z"/>
   <path id="_414286032" class="fil3" d="M4.8844 2.98776c-0.055315,0 -0.0993346,0.0440079 -0.0993346,0.100598 0,0.0515512 0.0326929,0.0867717 0.0817362,0.0867717l0.00251575 -3.93701e-006c0.054063,0 0.100591,-0.0364803 0.10185,-0.100591 3.93701e-006,-0.0503071 -0.0339528,-0.0867756 -0.0867677,-0.0867756z"/>
   <polygon id="_414286128" class="fil3" points="4.64171,3.86546 4.81524,3.86546 4.93344,3.25057 4.75866,3.25057 "/>
   <path id="_414286200" class="fil3" d="M5.37479 3.24931l-0.120717 0 0.00628346 -0.0289173c0.0100669,-0.0590945 0.0452677,-0.111909 0.103118,-0.111909 0.0308858,0 0.0553189,0.00879921 0.0553189,0.00879921l0.0339567 -0.135803c0,0 -0.0301811,-0.0150827 -0.0943071,-0.0150827 -0.0616181,0 -0.123232,0.0176063 -0.16976,0.0578386 -0.0591024,0.0503031 -0.0867598,0.123232 -0.100594,0.196157l-0.00502362 0.0289173 -0.0804724 0 -0.0251496 0.13078 0.0804764 0 -0.0917992 0.48537 0.173524 0 0.0917953 -0.48537 0.119457 0 0.0238937 -0.13078z"/>
   <path id="_414285960" class="fil3" d="M5.79226 3.25057c0,0 -0.108465,0.273315 -0.157177,0.422504l-0.00250787 0c-0.00334252,-0.0480315 -0.0427598,-0.422504 -0.0427598,-0.422504l-0.182331 0 0.10437 0.564591c0.00251181,0.012563 0.00126378,0.0201142 -0.00377559,0.0289252 -0.020122,0.0389764 -0.054063,0.0767008 -0.0943071,0.104358 -0.0326811,0.0238937 -0.0691496,0.0389803 -0.0980709,0.0490394l0.0477795 0.147126c0.0352047,-0.00754724 0.108146,-0.0364685 0.169748,-0.094311 0.0792244,-0.074185 0.15215,-0.188614 0.227598,-0.344539l0.212504 -0.455189 -0.181071 0z"/>
  </g>
 </g>
 <rect class="fil4" width="6.82666" height="6.82666"/>
</svg>
