<?xml version="1.0" encoding="UTF-8"?>
<!DOCTYPE svg PUBLIC "-//W3C//DTD SVG 1.1//EN" "http://www.w3.org/Graphics/SVG/1.1/DTD/svg11.dtd">
<!-- Creator: CorelDRAW -->
<svg xmlns="http://www.w3.org/2000/svg" xml:space="preserve" width="6.82666in" height="6.82666in" style="shape-rendering:geometricPrecision; text-rendering:geometricPrecision; image-rendering:optimizeQuality; fill-rule:evenodd; clip-rule:evenodd"
viewBox="0 0 6.82666 6.82666"
 xmlns:xlink="http://www.w3.org/1999/xlink">
 <defs>
  <style type="text/css">
   <![CDATA[
    .fil2 {fill:none}
    .fil0 {fill:#010101}
    .fil1 {fill:#FDEB00}
   ]]>
  </style>
 </defs>
 <g id="Layer_x0020_1">
  <metadata id="CorelCorpID_0Corel-Layer"/>
  <g id="_380522712">
   <rect id="_380523144" class="fil0" x="0.853332" y="2.52842" width="5.12" height="1.76982"/>
   <g>
    <path id="_380522952" class="fil1" d="M4.18467 3.9184c0.0454213,0.0296339 0.0964409,0.0391417 0.149862,0.0405039 0.0212402,-0.00190157 0.0429094,-0.00290551 0.0637874,-0.00681496 0.0785748,-0.0149252 0.136949,-0.0578386 0.165543,-0.134043 0.0271969,-0.0721496 0.0277323,-0.145303 0.00391339,-0.218461 -0.0182283,-0.0574764 -0.0547874,-0.0994882 -0.109217,-0.125681 -0.0370945,-0.0172205 -0.076563,-0.0236772 -0.117209,-0.0246811 -0.0542874,-0.00100394 -0.107205,0.00746063 -0.153772,0.0375984 -0.0651929,0.0410118 -0.0929252,0.104799 -0.100748,0.178457 -0.00455906,0.0420118 -0.00204724,0.0835276 0.00835827,0.124173 0.0142795,0.0532795 0.0420157,0.0978386 0.0894803,0.128949zm0.101894 -0.28326c0.0005,-0.011874 0.00491339,-0.0242874 0.0088622,-0.0355551 0.00642126,-0.0163228 0.0187283,-0.0253307 0.0365591,-0.0258307 0.0187283,-0.000858268 0.0321457,0.00646063 0.0400039,0.0237874 0.0108701,0.0231772 0.0124134,0.0480039 0.0144252,0.0731929 0.00220079,0.0455157 0.000929134,0.0761417 -0.00937008,0.126035 -0.00595276,0.0272323 -0.0227795,0.0386063 -0.0474606,0.0360945 -0.0144252,-0.00104331 -0.0261929,-0.00685039 -0.031252,-0.0202717 -0.00635039,-0.0187283 -0.013311,-0.0381024 -0.014315,-0.0573346 -0.00100394,-0.0400039 0.000503937,-0.0801142 0.00254724,-0.120118zm0.580933 0.310988c-0.0435197,-0.0005 -0.0865748,-0.0005 -0.129591,0 -0.0088622,0 -0.0124134,-0.00200787 -0.0124134,-0.0114055 0.000503937,-0.153776 0.000503937,-0.308047 0,-0.462217 0,-0.00796457 0.00250787,-0.0108701 0.0108701,-0.0108701 0.069748,0.0005 0.138992,0.0005 0.20874,0 0.0078189,0 0.0103661,0.00290551 0.0127717,0.00986614l0.10139 0.281748 0 -0.290752 0.153772 0 0 0.48313 -0.0103701 0c-0.0692441,0 -0.137984,0 -0.207193,0.0005 -0.00785827,0 -0.0109055,-0.00254331 -0.013811,-0.0103701l-0.101894 -0.283787c0,0.093748 0,0.187492 0,0.281244 0.0005,0.0103701 -0.00240551,0.0129134 -0.0122717,0.0129134zm-1.68791 -0.935976l-0.119256 0 0 -0.128984 0.428201 0 0 0.12848 -0.11822 0 0 0.354508 -0.190724 0 0 -0.354004zm-1.17331 0.338185c0,-0.151228 0,-0.302094 0,-0.453354 0,-0.014315 0,-0.014315 0.014315,-0.014315 0.113768,0 0.226929,0 0.340732,-0.000503937 0.0093622,0 0.0127717,0.00240157 0.0127717,0.0119094 -0.0005,0.0340512 -0.0005,0.0682047 -0.0005,0.102256 0,0.00355118 -0.000397638,0.00645276 -0.000397638,0.0114055l-0.183516 0 0 0.0528858 0.169598 0 0 0.125067 -0.169094 0 0 0.0554331 0.188323 0 0 0.124531 -0.371228 0c-0.000503937,-0.00491339 -0.00100394,-0.0103661 -0.00100394,-0.015315zm-0.21315 -0.00596063c-0.00491732,0.0222835 -0.00491732,0.0222835 -0.0270906,0.0222835l-0.184413 0c-0.0149213,-0.104299 -0.0297402,-0.208055 -0.0445197,-0.311996l-0.00394882 0c-0.0142795,0.103941 -0.0297441,0.207697 -0.0445236,0.311996l-0.0355906 0c-0.0528858,0 -0.105803,-0.000503937 -0.158724,0 -0.0103661,0.000535433 -0.0132756,-0.00340945 -0.0152835,-0.012378l-0.100386 -0.471114 0.169091 0c0.013311,0.101394 0.0272323,0.202138 0.0405079,0.303028l0.00355118 0c0.0148189,-0.10039 0.0295984,-0.20124 0.0444173,-0.303028 0.00390945,0 0.00796457,-0.0005 0.0119094,-0.0005 0.0583386,0 0.116173,0.0005 0.174008,0 0.00886614,0 0.0119134,0.00189764 0.013311,0.0114055 0.0138346,0.0974331 0.0292087,0.194642 0.0430157,0.292122 0.00100787,0 0.00204724,0 0.00355512,0l0.0405039 -0.303028 0.170098 0c-0.0334409,0.153661 -0.0658701,0.307551 -0.0994882,0.461209zm2.1399 0.11926c0.00785827,-0.000503937 0.0104016,0.00240551 0.0104016,0.0103701 -0.0005,0.0132717 0,0.0266929 0,0.0400039l0 0.418799c0,0.0148189 0,0.0148189 -0.014815,0.0148189 -0.0549291,0 -0.109858,0 -0.164177,0.0005 -0.0089685,0 -0.010874,-0.00304724 -0.010874,-0.0114055 0,-0.154276 0,-0.308047 0,-0.462217 0,-0.00304724 0.000507874,-0.00645669 0.000507874,-0.0108701l0.085063 0c0.0311417,0 0.0622874,0.0005 0.0938937,0zm0.792972 -0.109354c0,-0.153272 0,-0.306039 0,-0.459346 -0.000503937,-0.00986614 0.00254331,-0.0127717 0.0124134,-0.0127717 0.0687047,0.000503937 0.137449,0.000503937 0.20565,0 0.0083622,0 0.0114094,0.00290551 0.013815,0.0103661l0.10189 0.281394 0 -0.290756 0.153272 0 0 0.482484c-0.00290551,0.000503937 -0.00595276,0.00100787 -0.00835827,0.00100787 -0.0692441,0 -0.137949,-0.000503937 -0.206693,0 -0.0093622,0 -0.0134173,-0.00240551 -0.0168268,-0.011374l-0.100386 -0.282252 -0.000503937 0.281748c0,0.00986614 -0.00240551,0.0124134 -0.012374,0.011878 -0.0434134,-0.000503937 -0.0864646,0 -0.130492,0 -0.00294094,0 -0.00645669,0 -0.0104016,-0.000503937 -0.000503937,-0.00441339 -0.00100394,-0.0083622 -0.00100394,-0.011874zm-1.10343 0.012378c-0.00150787,0 -0.00305118,-0.000503937 -0.00545276,-0.00100787l0 -0.482484 0.365272 0 0 0.124567 -0.18337 0 0 0.0528858 0.168591 0 0 0.125067 -0.168591 0 0 0.0554331c0.00390945,0 0.00746063,0.000503937 0.0113701,0.000503937 0.0558268,0 0.11176,0 0.167591,0 0.00896457,0 0.011874,0.00190157 0.0113701,0.011374 -0.0005,0.0345866 0,0.0696378 0,0.104295 0,0.00735433 -0.00200787,0.00936614 -0.00936614,0.00936614 -0.118717,0 -0.238335,0 -0.357413,0zm0.691583 -0.174008c0.0163228,0.00150787 0.031252,0.00150787 0.045563,0.00390945 0.011874,0.00204724 0.0202362,0.0103701 0.0226417,0.0222795 0.00304724,0.0129173 0.00455512,0.025689 0.00696063,0.0386024 0.00545276,0.0330433 0.0114055,0.0661969 0.0168268,0.0993465 0.00153937,0.00696457 0.00444882,0.00987008 0.0124134,0.00987008 0.0553228,-0.000503937 0.110752,0 0.166579,0 0.00301575,0 0.00592126,-0.000503937 0.00746457,-0.000503937 -0.00595669,-0.037563 -0.0124134,-0.0741575 -0.0178661,-0.110756 -0.00391339,-0.0227795 -0.00592126,-0.0454173 -0.00987008,-0.0677008 -0.00645669,-0.0336535 -0.0276969,-0.0539252 -0.0608819,-0.0622835 -0.00581496,-0.00150787 -0.0117717,-0.00301181 -0.0207362,-0.00491732 0.00595276,-0.00204331 0.00846457,-0.00304724 0.0113701,-0.00405118 0.025689,-0.00785827 0.0490079,-0.0197362 0.0647953,-0.0424094 0.0182638,-0.026189 0.0202677,-0.0559331 0.0178661,-0.0855669 -0.00355118,-0.0440236 -0.0253268,-0.0751654 -0.0678425,-0.0909882 -0.0325433,-0.0124134 -0.0661969,-0.014315 -0.100386,-0.014815 -0.0894843,-0.000503937 -0.179465,0 -0.268441,0l-0.0117677 0 0 0.482984 0.185311 0 0 -0.173zm0.0005 -0.200736c0.0203819,-0.000503937 0.0406142,-0.00204724 0.0598465,0.00645669 0.0163622,0.00696063 0.0212756,0.0212402 0.0212756,0.0380669 -0.000503937,0.0182244 -0.00746457,0.0325394 -0.024685,0.0410079 -0.0173268,0.0088622 -0.0360551,0.00835827 -0.056437,0.00696063 0,-0.031248 0,-0.0608504 0,-0.0924921zm-1.81639 0.240343c-0.00053937,-0.00254331 -0.00053937,-0.00505512 -0.00053937,-0.00796457 0,-0.00154331 0.00053937,-0.00344094 0.00104331,-0.00595276l0.179965 0c0.00189764,0.00846457 0.00290157,0.0158228 0.00545276,0.0232835 0.00681496,0.0217795 0.0236772,0.0301378 0.052378,0.0280906 0.0207756,-0.00190157 0.0365984,-0.0161811 0.0395039,-0.0360551 0.00204331,-0.013815 -0.00646063,-0.0272323 -0.0227835,-0.0330433 -0.0187283,-0.00696063 -0.0384606,-0.0124173 -0.0578346,-0.0183701 -0.0365945,-0.011374 -0.0741614,-0.0202362 -0.109748,-0.0341575 -0.0637913,-0.0241811 -0.0850354,-0.0750551 -0.0775709,-0.140354 0.00696063,-0.0653307 0.0484724,-0.101894 0.107311,-0.121657 0.0524173,-0.0173346 0.106197,-0.017689 0.160122,-0.0132795 0.0341575,0.00240551 0.0672008,0.00987008 0.0974449,0.0266969 0.0439488,0.0246811 0.064689,0.0627835 0.0656929,0.112154 0,0.00150394 0,0.00254724 0,0.00355118 0,0.000503937 -0.0005,0.00100394 -0.00139764,0.00290551 -0.00301575,0 -0.00642126,0.0005 -0.00997638,0.0005 -0.0483622,0 -0.0973346,0 -0.145807,0 -0.00835827,0 -0.0129134,-0.001 -0.0143189,-0.0108701 -0.00150394,-0.0153189 -0.011874,-0.0262244 -0.0276969,-0.0277323 -0.0129134,-0.000893701 -0.0267283,0.000503937 -0.0394961,0.00355512 -0.0114134,0.00240157 -0.018374,0.0117677 -0.018874,0.0236772 -0.000503937,0.011878 0.00444882,0.0212402 0.0153189,0.025185 0.0207756,0.00746063 0.0425157,0.0128819 0.0632913,0.0193386 0.0331496,0.00986614 0.0668386,0.0177244 0.0988425,0.0296378 0.0757008,0.0276969 0.107343,0.0850276 0.0925276,0.164642 -0.0114094,0.0602717 -0.0505157,0.0954331 -0.106307,0.115205 -0.0425512,0.0142795 -0.0865709,0.0183346 -0.130488,0.0178307 -0.0401457,-0.000503937 -0.0791063,-0.00491732 -0.116709,-0.018874 -0.0598819,-0.0222441 -0.0944331,-0.0637913 -0.0993465,-0.127941zm0.321358 0.716374c-0.069748,0.0158228 -0.139996,0.0168268 -0.20924,-0.00355118 -0.0478228,-0.0137756 -0.0869331,-0.0405039 -0.105661,-0.0889764 -0.00699606,-0.0177244 -0.0124134,-0.037563 -0.0129134,-0.0568307 -0.00104331,-0.109717 -0.000503937,-0.219465 -0.000503937,-0.329717 0,-0.00100394 0.000503937,-0.00251181 0.000503937,-0.00542126l0.189827 0 0 0.0132756c0,0.100386 0,0.20124 0.000503937,0.301626 0,0.0103701 0.00240157,0.0212756 0.00645669,0.0311417 0.00595669,0.0153228 0.0187283,0.0217441 0.0345512,0.0212402 0.0153189,-0.00100394 0.0262283,-0.00936614 0.0306378,-0.0232835 0.00355512,-0.0108701 0.00495276,-0.0231417 0.00495276,-0.0340512 0.0005,-0.0943898 0.0005,-0.188823 0.0005,-0.282858l0 -0.0267283 0.19037 0 0 0.0129134c0,0.102898 0.0005,0.205689 0,0.30898 0,0.0845276 -0.0464606,0.142866 -0.129984,0.16224zm0.439933 -0.00150394l-0.153665 0c0,-0.00445276 -0.0005,-0.00796457 -0.0005,-0.0119134 0,-0.153272 0,-0.306039 0,-0.459311 0,-0.0098622 0.00240157,-0.0127717 0.0123071,-0.0122677 0.0687047,0 0.137445,0 0.20565,0 0.00850394,0 0.0119134,0.00190157 0.0148189,0.00986614 0.0316417,0.091378 0.0637874,0.18287 0.095937,0.274394 0.00100394,0.00240157 0.00200787,0.00495276 0.00304724,0.00735433 0.00136614,0 0.00240551,-0.0005 0.00340945,-0.0005l0 -0.290614 0.152768 0 0 0.482992c-0.00391339,0 -0.00696063,0.0005 -0.0103661,0.0005 -0.0687441,0 -0.137488,0 -0.206693,0 -0.00785827,0 -0.0117677,-0.00204331 -0.014315,-0.0103701 -0.0311417,-0.0900197 -0.0627874,-0.18 -0.0938937,-0.270484 -0.00204331,-0.00444488 -0.00394882,-0.0088622 -0.00545276,-0.0133071 -0.00100787,0 -0.00204331,0.000503937 -0.00305118,0.000503937 0,0.0973346 0,0.194811 0,0.293157z"/>
    <polygon id="_380522496" class="fil1" points="5.38417,3.97242 5.3258,3.97242 5.3258,2.85424 5.38417,2.85424 "/>
    <polygon id="_380522832" class="fil1" points="5.64802,3.97242 5.58968,3.97242 5.58968,2.85424 5.64802,2.85424 "/>
   </g>
  </g>
 </g>
 <rect class="fil2" width="6.82666" height="6.82666"/>
</svg>
