<?xml version="1.0" encoding="UTF-8"?>
<!DOCTYPE svg PUBLIC "-//W3C//DTD SVG 1.1//EN" "http://www.w3.org/Graphics/SVG/1.1/DTD/svg11.dtd">
<!-- Creator: CorelDRAW -->
<svg xmlns="http://www.w3.org/2000/svg" xml:space="preserve" width="6.82666in" height="6.82666in" style="shape-rendering:geometricPrecision; text-rendering:geometricPrecision; image-rendering:optimizeQuality; fill-rule:evenodd; clip-rule:evenodd"
viewBox="0 0 6.82666 6.82666"
 xmlns:xlink="http://www.w3.org/1999/xlink">
 <defs>
  <style type="text/css">
   <![CDATA[
    .fil3 {fill:none}
    .fil2 {fill:#EE3737}
    .fil0 {fill:#969695;fill-rule:nonzero}
    .fil1 {fill:#EE3737;fill-rule:nonzero}
   ]]>
  </style>
 </defs>
 <g id="Layer_x0020_1">
  <metadata id="CorelCorpID_0Corel-Layer"/>
  <g id="_380523864">
   <g>
    <polygon id="_380525808" class="fil0" points="3.75711,3.74222 3.75711,3.08556 3.88294,3.08556 3.88294,3.74222 "/>
    <path id="_380525712" class="fil0" d="M4.41055 3.74222l-0.116807 0 0 -0.0698701c-0.0194213,0.0272126 -0.0423543,0.0473937 -0.0688031,0.0606969 -0.0264488,0.0133031 -0.0530512,0.019874 -0.0799567,0.019874 -0.0547362,0 -0.10152,-0.0220157 -0.140508,-0.0660472 -0.0388346,-0.0440315 -0.0584016,-0.105492 -0.0584016,-0.184232 0,-0.0807244 0.0189567,-0.142028 0.056874,-0.183921 0.0379173,-0.0418937 0.0859213,-0.0629921 0.143866,-0.0629921 0.0530512,0 0.0990748,0.0221693 0.137902,0.0663543l0 -0.23652 0.125835 0 0 0.656657zm-0.335898 -0.248138c0,0.0507598 0.0070315,0.0874528 0.0210984,0.110232 0.0201811,0.0327165 0.0486181,0.0492283 0.0850039,0.0492283 0.0290512,0 0.0536614,-0.0123819 0.074,-0.0369961 0.0201811,-0.0246142 0.0304213,-0.0614646 0.0304213,-0.110386 0,-0.0545827 -0.00993701,-0.0940276 -0.0295079,-0.118031 -0.0197244,-0.0240039 -0.0449449,-0.0360787 -0.0758268,-0.0360787 -0.0298189,0 -0.0547362,0.0119252 -0.0749213,0.035622 -0.0201811,0.0236969 -0.0302677,0.0591654 -0.0302677,0.106409z"/>
    <path id="_380525616" class="fil0" d="M3.58024 3.74222l-0.125827 0 0 -0.475634 0.116807 0 0 0.0675748c0.0200276,-0.0319528 0.0380669,-0.0530512 0.0539685,-0.0631417 0.0160551,-0.0100945 0.0340984,-0.0152913 0.0544291,-0.0152913 0.00843701,0 0.0167677,0.000688976 0.0250039,0.00206299l0 0.120862c-0.0140866,-0.0066063 -0.0274843,-0.00993701 -0.0401378,-0.00993701 -0.0177362,0 -0.0325669,0.00473622 -0.0447992,0.0145236 -0.0123819,0.00962992 -0.0218622,0.0272126 -0.0288937,0.0525906 -0.00703543,0.0253819 -0.0105512,0.0785866 -0.0105512,0.159465l0 0.146925z"/>
    <path id="_380525304" class="fil0" d="M2.90785 3.4976c0,-0.0417402 0.0103937,-0.0822559 0.0308819,-0.121398 0.0206378,-0.0389843 0.0498425,-0.0689528 0.0876063,-0.089437 0.0377598,-0.0206417 0.0799606,-0.0310394 0.126591,-0.0310394 0.0718583,0 0.13087,0.0233937 0.17689,0.0701772 0.0460197,0.0467835 0.0689528,0.105799 0.0689528,0.177197 0,0.0718583 -0.0232362,0.131484 -0.069563,0.178882 -0.0464764,0.0473937 -0.104882,0.070937 -0.175362,0.070937 -0.0437283,0 -0.0851575,-0.00978346 -0.124756,-0.0295079 -0.0395984,-0.0197205 -0.0697205,-0.0486181 -0.0903583,-0.086689 -0.0204882,-0.0380669 -0.0308819,-0.0843937 -0.0308819,-0.139122zm0.129035 0.00672441c0,0.0472402 0.0111614,0.0833228 0.0336378,0.108398 0.0223189,0.0250709 0.0499921,0.0376102 0.0828622,0.0376102 0.032874,0 0.0603937,-0.0125394 0.082563,-0.0376102 0.0223189,-0.0250748 0.0334843,-0.0614606 0.0334843,-0.109319 0,-0.0464764 -0.0111654,-0.0824055 -0.0334843,-0.107476 -0.0221693,-0.0250748 -0.049689,-0.0376102 -0.082563,-0.0376102 -0.0328701,0 -0.0605433,0.0125354 -0.0828622,0.0376102 -0.0224764,0.0250709 -0.0336378,0.0613071 -0.0336378,0.108398z"/>
    <polygon id="_380524704" class="fil0" points="2.2194,3.74222 2.06269,3.08556 2.1983,3.08556 2.29737,3.53659 2.41739,3.08556 2.57502,3.08556 2.69015,3.54423 2.7909,3.08556 2.92437,3.08556 2.76491,3.74222 2.62425,3.74222 2.49353,3.2513 2.36312,3.74222 "/>
   </g>
   <g>
    <path id="_380525040" class="fil1" d="M4.49798 3.74222l0 -0.656657 0.212665 0c0.0805748,0 0.133165,0.00336614 0.15763,0.00994094 0.0376102,0.0097874 0.0692598,0.031189 0.0946378,0.0642126 0.0253819,0.0330236 0.0380709,0.0756811 0.0380709,0.127815 0,0.0403622 -0.00734252,0.0743031 -0.0220197,0.101669 -0.0146732,0.0275197 -0.0331772,0.0490748 -0.0558031,0.0648228 -0.0224724,0.0155945 -0.0454094,0.0259921 -0.0686417,0.0310394 -0.0316496,0.00626772 -0.0775197,0.00947638 -0.137606,0.00947638l-0.0863819 0 0 0.247681 -0.132551 0zm0.132551 -0.545508l0 0.18622 0.0724724 0c0.0522874,0 0.0872992,-0.0033622 0.104882,-0.0102441 0.0175827,-0.00687795 0.0313425,-0.0175827 0.0414331,-0.0322598 0.00993701,-0.0146772 0.0149843,-0.0316496 0.0149843,-0.051063 0,-0.0238504 -0.00703543,-0.0435748 -0.0211024,-0.0591654 -0.0139134,-0.0154449 -0.0317992,-0.0252283 -0.0532047,-0.0290512 -0.0158976,-0.00305906 -0.0477008,-0.00443701 -0.0954016,-0.00443701l-0.064063 0z"/>
    <path id="_380525016" class="fil1" d="M5.16533 3.41168l-0.114205 -0.0206417c0.0128386,-0.0460197 0.0348543,-0.0799606 0.0661969,-0.10213 0.0314961,-0.0220118 0.0779724,-0.0331772 0.13974,-0.0331772 0.0562598,0 0.098,0.00672835 0.12552,0.0200315 0.0273661,0.0132992 0.0467874,0.0301181 0.0579449,0.0506063 0.0111614,0.0204843 0.016815,0.0579449 0.016815,0.112677l-0.00137402 0.146925c0,0.0417402 0.00198819,0.072622 0.00611417,0.0924961 0.00398031,0.0197244 0.011622,0.041126 0.0226299,0.0637559l-0.124606 0c-0.00320866,-0.00840945 -0.00733465,-0.0207913 -0.0120748,-0.0371535 -0.00198819,-0.00748819 -0.00351575,-0.0123858 -0.00443307,-0.0148307 -0.0215591,0.0209488 -0.0444921,0.0365433 -0.0689567,0.0470906 -0.0244567,0.0103976 -0.0506063,0.0155945 -0.0784291,0.0155945 -0.0489213,0 -0.0876063,-0.0133031 -0.115736,-0.039748 -0.0282835,-0.0266063 -0.0423504,-0.0602402 -0.0423504,-0.100906 0,-0.0267598 0.00642126,-0.0507598 0.0192638,-0.0718583 0.0128425,-0.0211024 0.0308858,-0.0371535 0.0539685,-0.048315 0.0230866,-0.0111614 0.0565709,-0.0209488 0.100142,-0.0293543 0.0587126,-0.0110079 0.0995315,-0.0214016 0.122161,-0.0308819l0 -0.0125394c0,-0.0243071 -0.00596457,-0.0414291 -0.0178858,-0.0518268 -0.0119291,-0.0102441 -0.0344055,-0.0154409 -0.0675787,-0.0154409 -0.0224764,0 -0.0399055,0.00443307 -0.0524409,0.0133031 -0.0125394,0.00870866 -0.0226299,0.0241496 -0.0304252,0.0463228zm0.168331 0.10213c-0.0160551,0.00535039 -0.0415906,0.0117677 -0.0765984,0.0192638 -0.0348622,0.00748819 -0.0576378,0.0148307 -0.0684961,0.0218622 -0.0163583,0.0117717 -0.0246142,0.0264488 -0.0246142,0.0443386 0,0.0177323 0.0065748,0.0328701 0.0197244,0.0457126 0.0131457,0.0128425 0.029815,0.0192638 0.0501457,0.0192638 0.0227795,0 0.0443386,-0.00749213 0.0649764,-0.0223228 0.0152913,-0.011311 0.0252244,-0.0252244 0.0299646,-0.0417402 0.00337008,-0.0107008 0.00489764,-0.031189 0.00489764,-0.0613071l0 -0.0250709z"/>
    <path id="_380524776" class="fil1" d="M5.48424 3.26659l0.133925 0 0.113752 0.337728 0.11115 -0.337728 0.13026 0 -0.167874 0.457748 -0.0301142 0.0828622c-0.0110079,0.0276693 -0.0215591,0.0489252 -0.0314961,0.0636024 -0.0100906,0.0146732 -0.0215591,0.0264488 -0.0345551,0.035622 -0.0129921,0.00901969 -0.0288937,0.0162047 -0.0478543,0.021252 -0.0189567,0.00504331 -0.0403622,0.00764567 -0.0643622,0.00764567 -0.0241575,0 -0.0478543,-0.00260236 -0.071248,-0.00764567l-0.0111575 -0.0986102c0.0197205,0.00397244 0.0374528,0.00580315 0.0533543,0.00580315 0.0292008,0 0.0509134,-0.00855906 0.0649803,-0.0256811 0.0139094,-0.017122 0.0247638,-0.0389843 0.0322559,-0.0655866l-0.181016 -0.477012z"/>
   </g>
   <path id="_380525088" class="fil2" d="M1.49989 2.90008c0.0743898,0.0159567 0.159063,0.0477008 0.231925,0.120268 0.0234724,0.0231614 0.043878,0.0550669 0.0526181,0.0796102 0.00429134,0.010122 0.00429134,0.0260748 0.0116614,0.0362008 0.0116535,0.0174882 0.0320551,0.0319094 0.046626,0.0507756 0.0190236,0.0202441 0.0306811,0.0420236 0.0409646,0.0651929 0.00429134,0.00720472 0.00582283,0.0173307 0.0101142,0.0260709 0.00583858,0.0115039 0.0161142,0.0665787 0.0161142,0.0869803 0,0.0420236 -0.0145748,0.0941772 -0.0335945,0.134677 0,0.00153543 0.0015315,0.00153543 0.0015315,0.00582677l0 0.0362087c-0.0161063,0.223185 -0.286083,0.383945 -0.455429,0.383945 -0.0204016,0 -0.078689,-0.00291732 -0.078689,-0.0434134 0,-0.00445276 0.00291339,-0.0174921 0.00582677,-0.0276102 -0.0322126,0.00444882 -0.0949528,0.0159528 -0.131457,0.0159528 -0.0276142,0 -0.154622,-0.00138189 -0.154622,-0.0694921 0,-0.0638071 0.113815,-0.0681063 0.135752,-0.0681063 0.0612047,0 0.125476,0.0173307 0.18822,0.0463268 -0.0102795,0.00291732 -0.0291457,0.00874016 -0.0320669,0.00874016 -0.00444094,0 -0.0102756,-0.00444882 -0.0161024,-0.00582283 -0.0408071,-0.0145709 -0.0875906,-0.0231654 -0.129925,-0.0231654 -0.0246969,0 -0.0291496,-0.00153543 -0.0582913,0.00583071 -0.00291339,0 -0.0539961,0.0130354 -0.0539961,0.0332835 0,0.0144173 0.0408031,0.0231654 0.0495472,0.0245433 0.0174882,0.00291339 0.0539961,0.00582677 0.0569055,0.00582677 0.259854,0 0.662669,-0.214445 0.662669,-0.470913 0,-0.0477126 -0.021937,-0.115819 -0.0658071,-0.159382 -0.00291339,0.0188701 -0.0072126,0.0391181 -0.0145748,0.0595197 -0.00429134,0.0130394 -0.0159528,0.0361969 -0.0159528,0.0391102 0,0 0.0728622,0.0796181 0.0728622,0.0970984 0,0.010126 -0.0159488,0.0549173 -0.0159488,0.0564528 -0.0145748,-0.0391102 -0.035126,-0.0782323 -0.0759331,-0.117343 -0.00582677,0.00582677 -0.0116614,0.0144173 -0.0174882,0.0217795 -0.0073622,0.010126 -0.0161024,0.0202441 -0.0248504,0.0303701 -0.0190197,0.0217795 -0.0627362,0.0593661 -0.0627362,0.0636575 0,0 0.0524567,0.052311 0.0700984,0.113055 0.00292126,0.00874016 0.0072126,0.0260709 0.0072126,0.0289921 0,0.00874016 -0.0291457,0.0276063 -0.0291457,0.0289843 -0.00152756,-0.0492362 -0.021937,-0.10139 -0.0759331,-0.15063 -0.0627323,0.0463268 -0.128394,0.0840591 -0.191126,0.114433 0.0378937,0.0319055 0.0598228,0.0782323 0.0598228,0.11152 0,0.0159528 -0.00874016,0.0507717 -0.0161024,0.055063 -0.00874016,0.00583465 -0.0188661,0.00874803 -0.0291457,0.0116614 0.0116575,-0.0145748 0.0219331,-0.0478583 0.0219331,-0.0622795 0,-0.0260748 -0.0174843,-0.0667244 -0.0467835,-0.0885079 -0.0072126,-0.00429134 -0.0174882,-0.0144173 -0.0204016,-0.0144173 -0.00429134,0 -0.0408071,0.0159528 -0.0612008,0.0231575 -0.0234764,0.00875197 -0.0481693,0.0159567 -0.0730197,0.0231693 -0.0743976,0.0217795 -0.1445,0.0348189 -0.215984,0.0348189 -0.0277638,0 -0.148945,-0.00291339 -0.148945,-0.0681063 0,-0.0970984 0.224878,-0.105846 0.255402,-0.105846 0.0671929,0 0.131465,0.0073622 0.200028,0.0377441 -0.013189,0.00429134 -0.0380433,0.0144173 -0.0409567,0.0144173 -0.00429134,0 -0.0802244,-0.0216339 -0.148787,-0.0216339 -0.0306811,0 -0.0685709,0.00291339 -0.0977165,0.00859449 -0.0234724,0.00444488 -0.0467874,0.0102717 -0.067185,0.0188661 -0.0073622,0.00153543 -0.0613583,0.0246929 -0.0613583,0.0449449 0,0.00291339 0.00874016,0.00874016 0.0145669,0.0116535 0.0293031,0.0144213 0.0555315,0.0130433 0.0846772,0.0130433 0.275803,0 0.699028,-0.21598 0.723866,-0.440551l3.93701e-006 -0.0362008c-0.0131929,-0.146343 -0.240827,-0.240524 -0.351728,-0.240524 -0.00291339,-3.93701e-006 -0.0217874,0.00153543 -0.0335945,0.00429528 0.0073622,0.00291339 0.0161024,0.00291339 0.0234685,0.00582677 0.00582677,0.00153543 0.0130394,0.00445276 0.0204016,0.0072126 0.0116535,0.00444488 0.0320551,0.0145709 0.045248,0.0260787 0.010126,0.00874409 0.0159528,0.0217795 0.0262244,0.0289882 0.00737402,0.00736614 0.0219449,0.00583071 0.0336063,0.0102795 0.0378819,0.0115 0.0846693,0.0288346 0.124091,0.0463268 0.0159528,0.00858661 0.0363583,0.0173307 0.0539961,0.0274567 0.00582677,0.00444882 0.0101299,0.0130394 0.0145669,0.020248 0.0072126,0.0116614 0.0159528,0.0305276 0.018878,0.0464803 -0.0757874,-0.0566063 -0.151709,-0.0855984 -0.227642,-0.110138l-0.00429134 0c0.00290551,0.0391102 -0.0132047,0.0782323 -0.0409567,0.117343 0.0832835,0.0217795 0.170724,0.0535354 0.256933,0.113055 -0.00444882,0.010126 -0.0102835,0.0216299 -0.0174882,0.031748 -0.0365079,-0.0260748 -0.075937,-0.0463268 -0.112441,-0.0636575 -0.00873622,-0.00429134 -0.131303,-0.0492402 -0.150323,-0.0492402 -0.00444882,0 -0.0335906,0.0289961 -0.0495433,0.0420354 -0.0394291,0.031752 -0.0788504,0.0564449 -0.118268,0.0796102 0.106453,0.0145669 0.213059,0.0377362 0.319516,0.10722 -0.00720472,0.0072126 -0.023315,0.0217795 -0.0276142,0.0217795 -0.00291339,0 -0.0306732,-0.020248 -0.0467795,-0.0276063 -0.0743976,-0.0362008 -0.21598,-0.070874 -0.302039,-0.070874 -0.0073622,0 -0.0918819,0.0362087 -0.112433,0.041878 -0.0598307,0.0174882 -0.12548,0.039122 -0.186685,0.039122 -0.0205551,0 -0.0613583,-0.00138583 -0.0613583,-0.0346732 0,-0.0651929 0.232091,-0.0811457 0.248043,-0.0811457l0.0510748 0c-0.0365079,0.0144173 -0.0802244,0.030374 -0.115197,0.039122 -0.0335945,0.00874016 -0.0685709,0.0144173 -0.10078,0.0245433 -0.00583465,0.00152756 -0.0116614,0.00582677 -0.0174882,0.00874016 0,0 -0.00138189,0.00153543 0.00291339,0.00153543 0.00291339,0 0.0510827,-0.0073622 0.077311,-0.0130394 0.132843,-0.0319094 0.275807,-0.0840591 0.407264,-0.204319 0.032063,-0.0305315 0.0553819,-0.0681142 0.0627441,-0.101398l0 -0.0289882c-0.00444882,-0.0319094 -0.0510827,-0.065189 -0.0802244,-0.0739409 -0.0190276,-0.00583071 -0.0555354,-0.0130394 -0.0598307,-0.0130394 -0.0073622,0 -0.0176417,0.00429528 -0.0248465,0.0159528 0.0466339,0.0101299 0.10063,0 0.141583,0.0579882 0,0 0.00138189,0.00137402 0,0.00429134 -0.011811,-0.00429134 -0.15478,-0.0377362 -0.178094,-0.0377362 -0.00874016,0 -0.077315,0.0478583 -0.0934173,0.0579882 -0.0437165,0.0260748 -0.0889646,0.0507677 -0.132843,0.0724016l0.150331 0.00153543c0.0656535,0.00429134 0.140209,0.0130394 0.207236,0.0260709 -0.00291339,0.00138189 -0.0291457,0.0289921 -0.0349724,0.0289921 -0.00291339,0 -0.0497047,-0.00874016 -0.0730197,-0.0116535 -0.0423346,-0.00583465 -0.0860512,-0.0072126 -0.129921,-0.010126l-0.189594 0.00429134c-0.0102835,-0.00137795 -0.0306811,-0.00275591 -0.0306811,-0.0202441 0,-0.0130394 0.0159488,-0.0216339 0.0277598,-0.0260709 0.00874803,-0.00292913 0.0188661,-0.00859449 0.0276142,-0.0115079 0.0934173,-0.0391181 0.189752,-0.0912717 0.284705,-0.150791 -0.00291339,-0.00138189 -0.00890157,-0.00138189 -0.011815,-0.00138189 -0.00429528,0 -0.0159488,0.00138189 -0.0246969,0.00429528 0.00138189,0.00153543 0.00291732,0.00153543 0.00429528,0.00153543 -0.0130394,0.00720866 -0.0349764,0.021626 -0.0394213,0.021626 -0.010126,0 -0.0246969,-0.0130433 -0.0246969,-0.021626 0,-0.0260787 0.0598228,-0.0276142 0.0641181,-0.0276142 0.0598228,-0.00137795 0.0642717,0.00153543 0.0685669,0.00153543 0.00291732,0 0.0277638,-0.0130394 0.043874,-0.0159488 0.023315,-0.00583071 0.0349724,-0.00583071 0.0569094,-0.00583071 0.0248543,0 0.0539961,0.00291732 0.0817598,0.00874016zm-0.089122 0.992465c-0.00429921,0 -0.0408071,0 -0.0408071,-0.0130394 0,-0.00720866 0.0116614,-0.0305276 0.0219409,-0.0332874 0.0217795,-0.00874409 0.068563,-0.0204016 0.0714764,-0.0204016 0.00429528,0 0.0423346,0.00445276 0.0466299,0.00445276 0.00291732,0 0.0306772,-0.00153937 0.0467874,-0.00583071 0.0188701,-0.00444882 0.0423346,-0.0130394 0.0641142,-0.0260787 0.0219409,-0.0130394 0.0539961,-0.0406496 0.0685709,-0.063815 0.00874016,-0.0130315 0.0131929,-0.0303661 0.0234685,-0.0420236 0.0130394,-0.0173346 0.0378898,-0.0319094 0.0582953,-0.050626 0.0204016,-0.0203937 0.0409528,-0.0420276 0.0598228,-0.0651929 -0.0394213,0.182543 -0.278717,0.315843 -0.420299,0.315843zm0.103689 -0.0869724c0.0423386,-0.0188661 0.0889764,-0.0420354 0.13422,-0.0694921 -0.0437165,0.0492402 -0.0905,0.0622795 -0.13422,0.0694921z"/>
  </g>
 </g>
 <rect class="fil3" width="6.82666" height="6.82666"/>
</svg>
