<?xml version="1.0" ?><svg enable-background="new 0 0 24 24" id="Layer_1" version="1.1" viewBox="0 0 24 24" xml:space="preserve" xmlns="http://www.w3.org/2000/svg" xmlns:xlink="http://www.w3.org/1999/xlink"><g><path d="M16.1281128,15.2408447c-0.1152344,0-0.2475586,0.0427856-0.362854,0.0982056v1.2593994h0.3286743   c0.2562256,0,0.3544312-0.1408081,0.3544312-0.3543091v-0.6403809   C16.4483643,15.3903198,16.362915,15.2408447,16.1281128,15.2408447z" fill="#303C42"/><path d="M9.8948975,16.3935547c0,0.1621704,0.0939941,0.2561646,0.2817993,0.2561646   c0.1323242,0,0.2775269-0.0512695,0.4013062-0.1152954v-0.4226685h-0.3585815   C9.9888916,16.1117554,9.8948975,16.2099609,9.8948975,16.3935547z" fill="#303C42"/><path d="M13.7800293,15.6037598v0.6616821c0,0.213501,0.0896606,0.362854,0.3244629,0.362854   c0.1152954,0,0.2433472-0.0426636,0.3586426-0.0982056v-1.2081299c-0.1152954-0.046936-0.2433472-0.0811157-0.3586426-0.0811157   C13.8696899,15.2408447,13.7800293,15.3903198,13.7800293,15.6037598z" fill="#303C42"/><path d="M22,3H2C0.8974609,3,0,3.8969727,0,5v14c0,1.1030273,0.8974609,2,2,2h20c1.1025391,0,2-0.8969727,2-2V5   C24,3.8969727,23.1025391,3,22,3z M4.2593994,15.2109375c0,0.0470581-0.0299072,0.0726929-0.0810547,0.0683594   c0,0-0.1836548-0.0256348-0.3415527-0.0256348c-0.2775269,0-0.3671875,0.1621704-0.3671875,0.3927002v0.576355   c0,0.2391357,0.0982056,0.3970947,0.37146,0.3970947c0.1665039,0,0.3414917-0.0256348,0.3414917-0.0256348   c0.046936-0.0042114,0.0768433,0.0171509,0.0768433,0.0640869v0.260437c0,0.046936-0.0213013,0.0767822-0.0810547,0.0895996   c0,0-0.1964722,0.0384521-0.3713989,0.0384521C3.2902832,17.0467529,3,16.7649536,3,16.2355957v-0.5977173   c0-0.5293579,0.2860107-0.8111572,0.8069458-0.8111572c0.1920776,0,0.3713989,0.0384521,0.3713989,0.0384521   c0.0554199,0.0085449,0.0810547,0.0384521,0.0810547,0.0853882V15.2109375z M5.0279541,16.9229126   c0,0.046936-0.0341187,0.0811768-0.0810547,0.0811768H4.6394653c-0.0469971,0-0.0811157-0.0342407-0.0811157-0.0811768v-2.8688354   c0-0.0470581,0.0341187-0.0811768,0.0811157-0.0811768h0.3074341c0.046936,0,0.0810547,0.0341187,0.0810547,0.0811768V16.9229126z    M5.8604736,16.9229126c0,0.046936-0.0341797,0.0811768-0.0811768,0.0811768h-0.307373   c-0.046936,0-0.0811157-0.0342407-0.0811157-0.0811768v-1.9723511c0-0.046936,0.0341797-0.0811157,0.0811157-0.0811157h0.307373   c0.0469971,0,0.0811768,0.0341797,0.0811768,0.0811157V16.9229126z M5.8604736,14.3615112   c0,0.046936-0.0341797,0.0810547-0.0811768,0.0810547h-0.307373c-0.046936,0-0.0811157-0.0341187-0.0811157-0.0810547v-0.3074341   c0-0.0470581,0.0341797-0.0811768,0.0811157-0.0811768h0.307373c0.0469971,0,0.0811768,0.0341187,0.0811768,0.0811768V14.3615112z    M7.4827271,15.2109375c0,0.0470581-0.0298462,0.0726929-0.0811157,0.0683594c0,0-0.1835938-0.0256348-0.3415527-0.0256348   c-0.2774658,0-0.3671875,0.1621704-0.3671875,0.3927002v0.576355c0,0.2391357,0.0982666,0.3970947,0.371521,0.3970947   c0.1664429,0,0.3415527-0.0256348,0.3415527-0.0256348c0.046936-0.0042114,0.0767822,0.0171509,0.0767822,0.0640869v0.260437   c0,0.046936-0.0213623,0.0767822-0.0811157,0.0895996c0,0-0.1964111,0.0384521-0.3713379,0.0384521   c-0.5166626,0-0.8069458-0.2817993-0.8069458-0.8111572v-0.5977173c0-0.5293579,0.2860718-0.8111572,0.8069458-0.8111572   c0.1920776,0,0.3713379,0.0384521,0.3713379,0.0384521c0.055481,0.0085449,0.0811157,0.0384521,0.0811157,0.0853882V15.2109375z    M8.2512817,16.9229126c0,0.046936-0.0341797,0.0811768-0.0811157,0.0811768H7.8627319   c-0.046936,0-0.0811157-0.0342407-0.0811157-0.0811768v-2.8688354c0-0.0470581,0.0341797-0.0811768,0.0811157-0.0811768H8.170166   c0.046936,0,0.0811157,0.0341187,0.0811157,0.0811768V16.9229126z M9.3100586,17.0040894H8.9641724   c-0.046936,0-0.0853271-0.0384521-0.1066895-0.0811768l-0.5806274-1.1142578l0.5293579-0.8580933   c0.0256348-0.0384521,0.0640259-0.0811157,0.1110229-0.0811157h0.3458862c0.046936,0,0.0724487,0.0426636,0.046936,0.0811157   l-0.52948,0.8495483l0.5848999,1.1228027C9.3868408,16.9613647,9.3569946,17.0040894,9.3100586,17.0040894z M9.00354,10.4311523   c0,0-0.4177856,0.4178467-1.0087891,0.4178467c0,0-0.5910034,0-1.0088501-0.4178467c0,0-0.4178467-0.4178467-0.4178467-1.0088501   c0,0,0-0.5910034,0.4178467-1.0087891c0,0,0.4178467-0.4178467,1.0088501-0.4178467c0,0,0.5910034,0,1.0087891,0.4178467   c0,0,0.4178467,0.4177856,0.4178467,1.0087891C9.4213867,9.4223022,9.4213867,10.0133057,9.00354,10.4311523z    M11.0476074,16.9229126c0,0.046936-0.0341797,0.0811768-0.0811157,0.0811768h-0.2860718   c-0.046936,0-0.0810547-0.0342407-0.0810547-0.0811768v-0.0383301c-0.1366577,0.0852661-0.315918,0.1621704-0.5166016,0.1621704   c-0.4140625,0-0.6574707-0.2092285-0.6574707-0.6403809c0-0.4397583,0.2689819-0.6574707,0.7428589-0.6574707   c0.1452026,0,0.3544312,0.0169678,0.4098511,0.0256348v-0.1707764c0-0.2220459-0.0982056-0.3415527-0.3500366-0.3415527   c-0.2518921,0-0.5721436,0.0725708-0.5721436,0.0725708c-0.0512085,0.0127563-0.0810547-0.0213013-0.0810547-0.0683594v-0.260376   c0-0.0469971,0.0298462-0.0767822,0.0810547-0.0896606c0,0,0.2775269-0.0896606,0.6361694-0.0896606   c0.5678101,0,0.7556152,0.2647095,0.7556152,0.7770386V16.9229126z M13.0327759,16.9229126   c0,0.046936-0.0341187,0.0811768-0.0810547,0.0811768h-0.307312c-0.046936,0-0.0811768-0.0342407-0.0811768-0.0811768v-1.3276978   c0-0.2005615-0.0598145-0.3287964-0.2860107-0.3287964c-0.1323242,0-0.2775269,0.0598145-0.3970337,0.1239014v1.5325928   c0,0.046936-0.0341187,0.0811768-0.0811768,0.0811768h-0.307312c-0.0470581,0-0.0811768-0.0342407-0.0811768-0.0811768v-1.9723511   c0-0.046936,0.0341187-0.0811157,0.0811768-0.0811157H11.77771c0.046936,0,0.0811768,0.0341797,0.0811768,0.0811157v0.0640869   c0.1237183-0.0939331,0.307312-0.1879272,0.5505981-0.1879272c0.465332,0,0.623291,0.2817993,0.623291,0.725769V16.9229126z    M14.9327393,16.9229126c0,0.046936-0.0341797,0.0811768-0.0811157,0.0811768h-0.2861328   c-0.046936,0-0.0810547-0.0342407-0.0810547-0.0811768v-0.0255737c-0.1323242,0.0811157-0.2945557,0.1494141-0.4781494,0.1494141   c-0.473938,0-0.6958618-0.2903442-0.6958618-0.7471313v-0.7258301c0-0.4567871,0.2219238-0.7470703,0.6958618-0.7470703   c0.1750488,0,0.3287354,0.0512695,0.4568481,0.1153564v-0.8880005c0-0.0470581,0.0341797-0.0811768,0.0811157-0.0811768h0.307373   c0.046936,0,0.0811157,0.0341187,0.0811157,0.0811768V16.9229126z M16.9179688,16.256897   c0,0.465332-0.2519531,0.7471924-0.78125,0.7471924h-0.7598877c-0.0470581,0-0.0811768-0.0342407-0.0811768-0.0811768v-2.8688354   c0-0.0470581,0.0341187-0.0811768,0.0811768-0.0811768h0.307312c0.0469971,0,0.0811157,0.0341187,0.0811157,0.0811768v0.9049683   c0.1281128-0.0767822,0.2860718-0.1323242,0.4610596-0.1323242c0.473877,0,0.6916504,0.2902832,0.6916504,0.7470703V16.256897z    M16.6976318,10.2415161l-2.4162598,2.4189453c-0.3133545,0.3106689-0.7559204,0.3106689-0.7559204,0.3106689   c-0.4425659,0-0.7559204-0.3106689-0.7559204-0.3106689c-0.3134155-0.3133545-0.3134155-0.7559204-0.3134155-0.7559204   c0-0.4425659,0.3134155-0.7559204,0.3134155-0.7559204l0.5882568-0.5882568h-2.2568359   c-0.4480591,0-0.7614136-0.3133545-0.7614136-0.3133545c-0.3161621-0.3161621-0.3161621-0.7614746-0.3161621-0.7614746   c0-0.4453125,0.3161621-0.758667,0.3161621-0.758667c0.3133545-0.3161011,0.7614136-0.3161011,0.7614136-0.3161011h2.2568359   l-0.5882568-0.5855103c-0.3134155-0.3134155-0.3134155-0.7559814-0.3134155-0.7559814   c0-0.4425659,0.3134155-0.7559204,0.3134155-0.7559204C13.0828857,6,13.5254517,6,13.5254517,6   c0.4425659,0,0.7559204,0.3133545,0.7559204,0.3133545l2.4190063,2.4162598   c0.3106079,0.3133545,0.3106079,0.7559204,0.3106079,0.7559204C17.0109863,9.9281006,16.6976318,10.2415161,16.6976318,10.2415161z    M18.9032593,16.9229126c0,0.046936-0.0342407,0.0811768-0.0811768,0.0811768h-0.2860107   c-0.046936,0-0.0811768-0.0342407-0.0811768-0.0811768v-0.0640869c-0.1237183,0.0940552-0.307312,0.1879272-0.5506592,0.1879272   c-0.4653931,0-0.6233521-0.2817993-0.6233521-0.725769v-1.3704224c0-0.046936,0.0341797-0.0811157,0.0811768-0.0811157h0.3074341   c0.046936,0,0.0811157,0.0341797,0.0811157,0.0811157v1.3276978c0,0.2006836,0.0597534,0.3286743,0.2859497,0.3286743   c0.1323242,0,0.2775269-0.0596924,0.3971558-0.1237793v-1.5325928c0-0.046936,0.0341187-0.0811157,0.0810547-0.0811157h0.307312   c0.046936,0,0.0811768,0.0341797,0.0811768,0.0811157V16.9229126z M20.0474243,17.7383423   c-0.0170288,0.0426636-0.0426636,0.0767822-0.0895996,0.0767822h-0.3458862c-0.046936,0-0.0810547-0.0383301-0.0639648-0.0810547   l0.2433472-0.7129517l-0.678894-2.0705566c-0.0126953-0.0426025,0.0129395-0.0811157,0.0640869-0.0811157h0.3373413   c0.046936,0,0.0810547,0.0299072,0.0938721,0.0767822l0.4354858,1.3533936L20.5,14.946228   c0.0170898-0.0426025,0.046936-0.0767822,0.0938721-0.0767822h0.3372803c0.0512085,0,0.0811157,0.0426636,0.0640259,0.0854492   L20.0474243,17.7383423z" fill="#303C42"/></g><g/><g/><g/><g/><g/><g/><g/><g/><g/><g/><g/><g/><g/><g/><g/></svg>