<?xml version="1.0" ?><svg enable-background="new 0 0 24 24" id="Layer_1" version="1.1" viewBox="0 0 24 24" xml:space="preserve" xmlns="http://www.w3.org/2000/svg" xmlns:xlink="http://www.w3.org/1999/xlink"><g><path d="M10.0925903,12.5286865H9.6442261l-0.18396,0.9817505h0.4293213   c0.7363281-0.0139771,0.7079468-0.5469971,0.7079468-0.5469971C10.5457764,12.5193481,10.0925903,12.5286865,10.0925903,12.5286865   z" fill="#303C42"/><path d="M22,3H2C0.8969727,3,0,3.8969727,0,5v14c0,1.1030273,0.8969727,2,2,2h20c1.1030273,0,2-0.8969727,2-2V5   C24,3.8969727,23.1030273,3,22,3z M13.6759644,10.7836304H8.8074951l0.8552246-4.4408569L13.6759644,10.7836304z    M8.8959351,6.3018188l-0.8358765,4.4866333l-4.9378052-0.0022583L8.8959351,6.3018188z M3,11.4475098l4.9542847,0.0010986   l-0.9006348,4.5181885L3,11.4475098z M9.2416382,14.6121216l-0.2905273,1.3825684l-1.1511841,0.0005493l0.8685913-4.5471802   l1.5167236,0.0045776c0,0,1.0932007,0.0372314,1.4411621,0.8005981c0.3477173,0.7636108-0.1325073,1.5949097-0.2197876,1.661438   S11.000061,14.7116089,9.2416382,14.6121216z M13.7427979,15.953186l-2.4430542,0.0005493l0.8626099-4.503418l1.1789551-0.0010986   l-0.6518555,3.4650879l1.2438354,0.0022583L13.7427979,15.953186z M15.5896606,16.0668945   c-1.9017334-0.111145-1.5412598-1.5744629-1.5412598-1.5744629l0.5751343-3.0179443l1.1437988-0.001709l-0.5154419,2.8692627   c0,0-0.2021484,0.6339722,0.4443359,0.687439c0.5350952,0.0446167,0.6055908-0.5319824,0.6317139-0.5510254l0.5862427-3.0042114   l1.164856,0.0005493c0,0-0.1495972,0.786377-0.5279541,2.8623657   C17.1936646,16.2954712,15.5896606,16.0668945,15.5896606,16.0668945z M20.9550781,12.904541h-1.0841064   c0,0,0.0119629-0.3513794-0.0701904-0.4434814c-0.1143188-0.1276855-0.3258057-0.0708008-0.3258057-0.0708008   s-0.3084717,0.0543213-0.2926025,0.3431396c0.0159302,0.2888794,0.3036499,0.4168091,0.3036499,0.4168091   c1.3686523,0.5822754,1.2444458,1.4368896,1.2444458,1.4368896c0.0039673,1.4431152-1.6220093,1.4738159-1.6220093,1.4738159   c-1.9417725-0.0883789-1.4576416-1.5804443-1.4576416-1.5804443l1.1210327,0.0011597   c0.0097046,0-0.0960693,0.6126709,0.4139404,0.5796509c0.4529419-0.0292358,0.4296265-0.6109619,0.2103882-0.767334   c-0.2197266-0.1560669-0.3442993-0.1671753-0.9458618-0.5586548c-0.6021729-0.3909302-0.4210815-1.1488647-0.4210815-1.1488647   c0.2828979-1.2759399,1.5904541-1.1949463,1.5904541-1.1949463C21.3795166,11.4102783,20.9550781,12.904541,20.9550781,12.904541z" fill="#303C42"/></g><g/><g/><g/><g/><g/><g/><g/><g/><g/><g/><g/><g/><g/><g/><g/></svg>