<?xml version="1.0" ?><svg enable-background="new 0 0 24 24" id="Layer_1" version="1.1" viewBox="0 0 24 24" xml:space="preserve" xmlns="http://www.w3.org/2000/svg" xmlns:xlink="http://www.w3.org/1999/xlink"><g><polygon fill="#303C42" points="17.3307495,9.088501 17.2510376,8.7437134 16.6240845,10.2403564 17.6036377,10.2403564  "/><path d="M22,3H2C0.8969727,3,0,3.8969727,0,5v14c0,1.1030273,0.8969727,2,2,2h20c1.1030273,0,2-0.8969727,2-2V5   C24,3.8969727,23.1030273,3,22,3z M17.1671753,7.6677856h0.8049927c0.0618896,0,0.1152344,0.0396118,0.1286011,0.0952759   l0.8961792,3.7457275c0.0085449,0.0359497-0.0010376,0.0735474-0.026001,0.1022339s-0.0627441,0.0454102-0.1026001,0.0454102   h-0.8240356c-0.0618896,0-0.1154785-0.0397339-0.1286621-0.0955811c-0.0274658-0.1156006-0.0939941-0.3961792-0.1207886-0.5021362   c-0.0909424,0-0.4708252-0.0004272-0.8284302-0.0007935h-0.0175781c-0.3111572-0.0004272-0.6013794-0.0007935-0.6640625-0.0007935   c-0.0245972,0.0581665-0.0991211,0.2383423-0.215271,0.5209351c-0.0194702,0.0472412-0.0684814,0.0784912-0.12323,0.0784912   h-0.9448853c-0.0446167,0-0.0860596-0.020752-0.1103516-0.0551758c-0.024292-0.0344849-0.0281372-0.0778198-0.0101318-0.1155396   l1.6686401-3.4869995C16.6604614,7.7667847,16.8452148,7.6677856,17.1671753,7.6677856z M11.7103882,10.7290649   c0.0067749-0.036499,0.0311279-0.0681763,0.0662842-0.0858765c0.0350952-0.0179443,0.0770874-0.0200806,0.1141357-0.0058594   c0.3528442,0.135437,0.6022949,0.1998291,1.0651245,0.1998291c0.3251953,0,0.6765747-0.1175537,0.6796875-0.3756104   c0.0020142-0.1685791-0.1465454-0.2890015-0.5887451-0.4771729c-0.4311523-0.1841431-1.0031128-0.4927979-0.9960327-1.0460205   c0.0062866-0.7471924,0.7963867-1.2693481,1.9213867-1.2693481c0.3968506,0,0.7137451,0.0689087,0.909668,0.126709   c0.062439,0.0184937,0.100708,0.0764771,0.0897217,0.1361084l-0.1065674,0.5782471   c-0.0066528,0.0360107-0.0303955,0.0671997-0.0646973,0.0852051c-0.0343018,0.0181274-0.0755005,0.0209351-0.1124268,0.0079346   C14.5293579,8.5469971,14.2771606,8.47229,13.920105,8.47229c-0.012085,0-0.0244141,0.0001221-0.034729,0.0003052   c-0.4299927,0-0.6538086,0.1657104-0.6538086,0.3294678c-0.0023193,0.1820679,0.2424927,0.3009644,0.6419678,0.4800415   c0.6526489,0.2723999,0.9561768,0.6044922,0.9516602,1.0435791c-0.0085449,0.7985229-0.7852173,1.3145752-1.9787598,1.3148193   h-0.0014648c-0.4162598-0.0041504-0.8504028-0.0667114-1.1613159-0.1672974   c-0.0606689-0.0195923-0.0971069-0.0767822-0.0862427-0.1352539L11.7103882,10.7290649z M10.4471436,7.6637573h0.9122925   c0.0388184,0,0.0756226,0.0158081,0.100647,0.0431519c0.0250244,0.0272827,0.0356445,0.0634766,0.0291748,0.0987549   l-0.692749,3.7481079c-0.0107422,0.0584106-0.0656128,0.1011353-0.1298218,0.1011353H9.7550659   c-0.0388184,0-0.0756226-0.0158081-0.100647-0.0431519c-0.0249634-0.0272827-0.0356445-0.0635376-0.0291138-0.0988159   l0.6920776-3.7481079C10.328125,7.7064819,10.3829956,7.6637573,10.4471436,7.6637573z M7.335144,9.986084l0.1206665,0.4029541   l1.1219482-2.6443481c0.0197754-0.0465698,0.0684204-0.0772705,0.1225586-0.0772705l0.9589844-0.0004272h0.0001221   c0.0443115,0,0.0856323,0.0205688,0.1099854,0.0546875s0.0285034,0.0773315,0.0109863,0.1148682l-1.7432861,3.7405396   c-0.020813,0.0444946-0.0682373,0.0734863-0.1207886,0.0734863L6.854248,11.6519775H6.854126   c-0.0585327,0-0.1099854-0.0355835-0.1264038-0.0874023L5.805481,8.6573486   c-0.0159912-0.0504761,0.0050049-0.1047363,0.052002-0.1343994C5.90448,8.4932251,5.9668579,8.494751,6.012146,8.5269165   c0.6640015,0.4707642,1.1398926,1.0641479,1.3169556,1.4434204C7.331604,9.9754028,7.3336182,9.9807129,7.335144,9.986084z    M5.1317139,7.6565552H5.131958l1.2373047,0.0018311c0.0016479,0,0.003418,0.000061,0.005127,0.000061   C6.555481,7.6652222,6.8054199,7.7058716,6.8843384,7.9794312C6.8849487,7.9814453,6.885437,7.9834595,6.8859253,7.9855347   l0.2195435,0.9577026c0.0126953,0.055603-0.0180664,0.1120605-0.0740967,0.1356812   C7.0137939,9.0863647,6.9951172,9.0898438,6.9766235,9.0898438c-0.0401611,0-0.0793457-0.0169678-0.1048584-0.0479736   c-0.413147-0.5015259-1.0302124-0.8990479-1.784668-1.1495972c-0.0603027-0.0199585-0.0961304-0.0770874-0.085083-0.1351929   S5.0678101,7.6565552,5.1317139,7.6565552z M22,20H2c-0.5512695,0-1-0.4487305-1-1v-3.9775391h22V19   C23,19.5512695,22.5512695,20,22,20z" fill="#303C42"/><polygon fill="#303C42" points="4.6793213,18.9327393 6.4401245,18.9327393 6.4401245,18.3954468 5.3469849,18.3954468    5.3429565,17.8991699 6.4512939,17.8991699 6.4512939,17.3842163 5.3467407,17.3842163 5.354187,16.8879395 6.4624634,16.8879395    6.4624634,16.3505859 4.678772,16.3505859  "/><rect fill="#303C42" height="2.7985849" width="0.649292" x="6.9115601" y="16.1341553"/><path d="M8.9573975,16.9849243c-0.5858765,0-1.0112915,0.4814453-1.0112915,1.048584   C7.946106,18.5148926,8.2558594,19,8.9387207,19c0.2985229,0,0.6343994-0.0932617,0.8545532-0.2798462l-0.2164307-0.3768921   c-0.175415,0.1193848-0.3022461,0.1865234-0.5299072,0.1865234c-0.3582153,0-0.4515381-0.2462158-0.4515381-0.3918457h1.3023682   C9.8977661,17.4923706,9.6738892,16.9849243,8.9573975,16.9849243z M8.6029053,17.7573853   c0.0410767-0.1865845,0.1978149-0.3694458,0.4030151-0.3694458c0.2164307,0,0.3096924,0.175415,0.3096924,0.3694458H8.6029053z" fill="#303C42"/><path d="M11.2859497,18.4849854c-0.276123,0-0.4851074-0.2125854-0.4851074-0.4812622   c0-0.3097534,0.2164307-0.5037842,0.5410767-0.5037842c0.1044922,0,0.2089844,0.0335083,0.3059692,0.0745239l0.2089844-0.425415   c-0.1455078-0.0932007-0.4141846-0.1641235-0.6380615-0.1641235c-0.6419067,0-1.0672607,0.4179688-1.0672607,1.0523071   C10.1515503,18.6566772,10.5806274,19,11.1777954,19c0.2163696,0,0.5111694-0.0820923,0.6903076-0.1940308l-0.2313843-0.4291382   C11.5322266,18.4290771,11.4090576,18.4849854,11.2859497,18.4849854z" fill="#303C42"/><path d="M13.1677856,18.4626465c-0.1454468,0-0.1865234-0.0784302-0.1865234-0.2425537   C12.9812622,18.0596313,13,17.7835693,13,17.5222778h0.5334473l0.0114136-0.4700928h-0.5336914l0.0148926-0.6381226h-0.6268921   l0.0022583,0.6381226h-0.293335l-0.0148926,0.4700928h0.2797852c0,0.250061-0.0185547,0.4814453-0.0185547,0.7127686   C12.3544312,18.6678467,12.3804932,19,12.9066162,19c0.2202759,0,0.4515381-0.0708618,0.6419067-0.1866455l-0.1417847-0.4403076   C13.3321533,18.4177856,13.2575073,18.4626465,13.1677856,18.4626465z" fill="#303C42"/><path d="M14.5337524,17.3170776h-0.0073242v-0.2648926h-0.6494141l-0.0148315,1.8805542h0.6491699   l0.0111694-1.0858154c0-0.0373535,0.1680298-0.2200928,0.3843994-0.2200928c0.0970459,0,0.1680298,0.0186157,0.2314453,0.0372314   l0.0858765-0.6417847c-0.0673218-0.0149536-0.1419678-0.0223999-0.2127686-0.0223999   C14.7576294,16.9998779,14.6307373,17.1566162,14.5337524,17.3170776z" fill="#303C42"/><path d="M16.4002075,16.9849243c-0.6939697,0-1.0523071,0.4403687-1.0523071,1.0075073   C15.3479004,18.5596313,15.7062378,19,16.4002075,19c0.6941528,0,1.0523071-0.4403687,1.0523071-1.0075684   C17.4525146,17.425293,17.0943604,16.9849243,16.4002075,16.9849243z M16.4002075,18.5073853   c-0.3095703,0-0.4028931-0.2686768-0.4028931-0.5149536c0-0.2462158,0.0933228-0.5148926,0.4028931-0.5148926   c0.3097534,0,0.4030762,0.2686768,0.4030762,0.5148926C16.8032837,18.2387085,16.7099609,18.5073853,16.4002075,18.5073853z" fill="#303C42"/><path d="M19.0631104,16.9849243c-0.2314453,0-0.4590454,0.1269531-0.6083374,0.2724609v-0.2052002H17.805603   l-0.0150757,1.8805542h0.6608276l0.003418-1.2164307c0.0858765-0.0820313,0.2351685-0.1716309,0.3396606-0.1716309   c0.1940308,0,0.2351074,0.1193848,0.2351074,0.2723999c0,0.3880615-0.0038452,0.7537842-0.0075073,1.1156616h0.649231   c0.0038452-0.4141846,0.0075073-0.8283691,0.0075073-1.2126465C19.678772,17.2051392,19.4624023,16.9849243,19.0631104,16.9849243z   " fill="#303C42"/></g><g/><g/><g/><g/><g/><g/><g/><g/><g/><g/><g/><g/><g/><g/><g/></svg>