<?xml version="1.0" ?><!DOCTYPE svg  PUBLIC '-//W3C//DTD SVG 1.1//EN'  'http://www.w3.org/Graphics/SVG/1.1/DTD/svg11.dtd'><svg enable-background="new 0 0 512 512" height="512px" id="Layer_1" version="1.1" viewBox="0 0 512 512" width="512px" xml:space="preserve" xmlns="http://www.w3.org/2000/svg" xmlns:xlink="http://www.w3.org/1999/xlink"><g id="Diners_club"><g><circle cx="256" cy="256" fill="#0169AA" r="256"/></g><path d="M330.276,350.787c2.88,0,6.237-3.544,7.972-5.925l0.34-0.487l-1.009-0.635   c-0.215,0.289-0.533,0.686-0.902,1.122c-1.049,1.248-2.546,2.779-3.555,2.779c-0.533,0-0.827-0.233-0.827-0.748   c0-0.573,0.238-1.316,0.476-2.03l2.132-7.292l2.551-8.75l3.414-11.663l1.996-6.827h-0.596l-9.44,1.548v1.089   c0.595-0.119,1.19-0.233,1.78-0.233c1.066,0,2.495,0.233,2.495,1.548c0,0.556-0.233,1.316-0.703,2.875l-0.545,1.82l-2.892,9.843   l-2.563,8.75l-1.968,6.685l-0.176,0.602c-0.306,1.009-0.771,2.551-0.771,3.294C327.486,349.818,328.615,350.787,330.276,350.787z" fill="#FFFFFF"/><path d="M290.636,337.576c0.278,2.829,1.214,5.273,2.671,7.286c2.818,3.868,7.587,6.101,13.393,6.101   c5.936,0,10.376-2.172,13.858-6.101c0.901-1.02,1.747-2.16,2.529-3.413h-1.366c-0.947,1.298-1.956,2.438-3.068,3.402   c-2.71,2.364-5.965,3.703-10.053,3.703c-3.816,0-6.878-1.395-8.942-3.692c-1.713-1.911-2.745-4.434-2.949-7.292   c-0.034-0.357-0.045-0.732-0.045-1.106c0-2.461,0.408-5.081,1.185-7.644c1.355-4.439,3.844-8.709,7.309-11.669   c2.875-2.461,6.43-4.014,10.564-4.014c1.718,0,5.982,0.3,7.785,4.02c0.51,1.06,0.828,2.387,0.828,4.06v2.348h1.066l1.548-6.407   l1.423-5.857H327.3c-0.771,0.862-1.599,1.893-2.909,1.893c-0.828,0-1.542-0.289-2.313-0.578c-2.257-0.856-3.742-1.315-6.175-1.315   c-5.942,0-11.573,2.239-16.018,5.857c-3.771,3.073-6.685,7.138-8.193,11.669c-0.743,2.24-1.14,4.565-1.14,6.946   C290.551,336.391,290.579,336.992,290.636,337.576z" fill="#FFFFFF"/><path d="M255.481,350.787c0.294-0.799,1.185-1.315,2.018-1.315c1.248,0,2.671,1.315,6.356,1.315   c3.686,0,7.712-2.347,8.563-5.925c0.102-0.453,0.159-0.919,0.159-1.406c0-2.217-1.054-4.151-2.41-5.886   c-2.439-3.113-5.835-5.614-5.835-8.046c0-0.244,0.023-0.487,0.068-0.714c0.363-1.656,1.962-2.665,3.787-2.665   c2.166,0,3.601,1.123,4.451,2.676c0.732,1.35,1.038,3.005,1.01,4.548h1.066l0.946-4.548l0.84-4.048h-1.066   c-0.476,0.8-1.191,1.315-2.144,1.315c-0.884,0-3.504-1.315-5.636-1.315c-2.954,0-5.687,1.554-6.764,4.048   c-0.312,0.715-0.482,1.508-0.482,2.37c0,2.347,1.452,4.406,3.119,6.379c2.069,2.444,4.468,4.746,4.797,7.292   c0.028,0.21,0.045,0.397,0.045,0.602c0,2.461-2.319,3.952-4.695,3.952c-3.635,0-5.381-1.917-6.056-4.553   c-0.249-0.986-0.357-2.064-0.357-3.181h-1.072l-0.618,3.181l-1.162,5.925L255.481,350.787L255.481,350.787z" fill="#FFFFFF"/><path d="M238.498,350.101l0.827-3.153c0.188-0.697,0.408-1.389,0.652-2.087c0.913-2.563,2.217-5.058,3.624-7.292   c3.079-4.899,6.611-8.5,7.365-8.5c2.019,0,0.357,2.631,2.909,2.631c1.452,0,2.302-1.452,2.694-2.886   c0.187-0.692,0.272-1.355,0.272-1.866c0-1.259-0.652-2.177-2.012-2.177c-1.758,0-3.992,1.763-6.119,4.048   c-2.71,2.909-5.256,6.674-6.458,8.738l-0.431,0.454l0.142-0.442l2.784-8.75l1.293-4.048h-0.596l-9.44,1.548v1.089   c0.595-0.113,1.19-0.233,1.78-0.233c1.072,0,2.495,0.233,2.495,1.65c-0.039,0.748-0.453,1.86-1.247,4.599l-1.208,4.145   l-2.132,7.292l-1.525,5.24H238.498z" fill="#FFFFFF"/><path d="M211.309,344.861c0.794,2.631,2.954,5.925,8.029,5.925c4.825,0,9.078-2.801,12.474-5.925l0.709-0.663   l-0.596-0.805c-0.697,0.522-1.361,1.009-2.013,1.468c-2.518,1.775-4.808,3.005-7.547,3.005c-2.398,0-4.542-1.162-5.659-3.005   c-0.516-0.85-0.811-1.848-0.811-2.954c0-0.805,0.113-1.605,0.238-2.297c3.289-0.312,6.612-0.992,9.515-2.041   c5.126-1.855,8.948-4.797,8.948-8.755c-0.057-3.21-3.47-4.043-6.175-4.043c-3.708,0-7.36,1.582-10.365,4.048   c-2.84,2.336-5.103,5.449-6.277,8.755c-0.561,1.598-0.873,3.232-0.873,4.848C210.907,343.013,211.015,343.892,211.309,344.861z" fill="#FFFFFF"/><path d="M186.871,350.101l1.735-5.24l0.102-0.317c0.652-1.957,1.962-4.485,3.544-6.975   c2.342-3.674,5.285-7.258,7.592-8.75c0.721-0.465,1.373-0.726,1.928-0.726c0.697,0,1.083,0.278,1.253,0.726   c0.08,0.193,0.113,0.437,0.113,0.703c0,0.992-0.386,2.314-2.109,8.035l-0.204,0.681c-0.902,2.966-1.537,5.081-1.962,6.623   c-0.505,1.82-0.715,2.835-0.715,3.522c0,1.435,1.072,2.404,2.495,2.404c2.62,0,5.965-3.419,7.643-5.925l0.312-0.487l-0.946-0.516   c-0.182,0.244-0.454,0.595-0.783,0.998c-0.992,1.196-2.483,2.784-3.374,2.784c-0.476,0-0.777-0.459-0.777-0.862   c0-0.199,0.199-0.924,0.494-1.917c0.471-1.582,1.185-3.822,1.763-5.647l0.505-1.644c1.713-5.597,2.189-7.048,2.274-8.744   l0.017-0.675c0-1.831-1.31-3.379-3.329-3.379c-2.483,0-4.967,1.752-7.207,4.048c-2.58,2.648-4.831,6.005-6.504,8.103l2.529-8.103   l1.27-4.048h-0.595l-9.441,1.548v1.089c0.595-0.113,1.191-0.233,1.78-0.233c1.066,0,2.495,0.233,2.495,1.65   c-0.039,0.748-0.453,1.86-1.247,4.599l-1.236,4.145l-2.183,7.292l-1.571,5.24h4.339V350.101z" fill="#FFFFFF"/><path d="M182.703,317.157c0.056-0.216,0.085-0.459,0.085-0.698c0-1.548-1.304-2.807-2.908-2.807   c-1.599,0-2.909,1.259-2.909,2.807c0,0.239,0.034,0.477,0.09,0.698c0.329,1.213,1.468,2.109,2.818,2.109   C181.229,319.266,182.374,318.37,182.703,317.157z" fill="#FFFFFF"/><path d="M172.043,350.787c2.881,0,6.238-3.544,7.973-5.925l0.34-0.487l-1.009-0.635   c-0.216,0.289-0.533,0.686-0.896,1.122c-1.055,1.248-2.552,2.779-3.555,2.779c-0.539,0-0.834-0.233-0.834-0.748   c0-0.573,0.238-1.316,0.471-2.03l2.115-7.292l2.534-8.75l1.174-4.048h-0.596l-9.435,1.548v1.089   c0.596-0.113,1.185-0.233,1.775-0.233c1.072,0,2.495,0.233,2.495,1.644c-0.039,0.749-0.453,1.866-1.247,4.604l-1.203,4.145   l-1.944,6.685l-0.176,0.602c-0.306,1.009-0.771,2.551-0.771,3.294C169.254,349.818,170.382,350.787,172.043,350.787z" fill="#FFFFFF"/><path d="M147.831,312.161H133.82l-0.294,1.032c2.727,0,4.451,0.227,4.451,2.234c0,0.573-0.063,1.151-0.165,1.73   c-0.198,1.094-0.533,2.183-0.845,3.198l-2.551,8.466l-2.642,8.75l-1.633,5.427c-0.215,0.697-0.413,1.309-0.606,1.86   c-1.281,3.685-2.263,4.213-5.982,4.213l-0.301,1.032h16.625c8.086,0,13.966-2.144,18.116-5.24c2.847-2.12,4.888-4.672,6.277-7.292   c1.604-3.045,2.336-6.158,2.432-8.75l0.012-0.612c0-3.646-0.908-7.859-3.981-11.051   C159.915,314.231,155.271,312.161,147.831,312.161z" fill="#FFFFFF"/><path d="M297.298,159.372h-75.187c-35.36,0-64.023,28.589-64.023,63.858s28.663,63.858,64.255,63.858h74.955   c35.36,0,64.023-28.589,64.023-63.858S332.658,159.372,297.298,159.372z" fill="#FFFFFF"/><path d="M363.385,325.458l-0.708,2.518l-0.25,0.845c-1.009,3.255-2.381,6.203-3.89,8.744   c-1.849,3.102-3.895,5.597-5.738,7.303c-1.803,1.69-3.414,2.597-4.434,2.597c-0.771,0-1.304-0.453-1.304-1.259   c0-0.402,0.057-0.845,0.164-1.344c0.335-1.644,1.129-3.765,1.855-6.22l0.318-1.072c1.52-5.177,2.177-7.462,2.455-8.75   c0.164-0.776,0.199-1.19,0.199-1.644c0-1.485-0.953-2.404-2.495-2.404c-2.257,0-4.74,2.041-6.481,4.048   c-0.595,0.681-1.1,1.373-1.474,1.968l0.89,0.572c0.573-0.624,1.344-1.746,2.2-2.54c0.567-0.516,1.168-0.896,1.781-0.896   c0.589,0,0.771,0.46,0.771,0.896c-0.012,1.299-0.477,2.597-2.342,8.755l-0.868,2.897c-0.368,1.247-0.85,2.869-1.162,4.388   c-0.193,0.924-0.323,1.809-0.323,2.546c0,1.894,1.191,3.379,3.209,3.379c3.096,0,6.255-2.756,8.891-5.925   c2.143-2.574,3.947-5.426,5.108-7.292l0.188-0.307l0.056,0.295c-1.089,3.085-1.837,5.443-2.296,7.303   c-0.374,1.52-0.55,2.699-0.55,3.692c0,1.491,1.009,2.234,2.432,2.234c2.954,0,5.96-3.56,7.524-5.925l0.199-0.317l-0.89-0.629   l-0.692,0.946c-1.514,2.03-2.365,2.779-3.408,2.779c-0.596,0-0.709-0.403-0.709-0.862c0-0.38,0.153-1.106,0.363-1.917   c0.329-1.259,0.782-2.716,1.003-3.413l1.185-3.879l2.677-8.75l1.241-4.048L363.385,325.458z" fill="#FFFFFF"/><path d="M395.439,328.82c-1.078-2.393-3.312-4.048-6.408-4.048c-3.674,0-6.106,1.747-8.448,4.048l-0.93,0.703   l0.21-0.703l3.499-11.663l2.047-6.827h-0.595l-9.435,1.548v1.089c0.589-0.119,1.185-0.233,1.78-0.233   c1.066,0,2.495,0.233,2.495,1.548c0,0.556-0.238,1.316-0.709,2.875l-0.538,1.82l-2.96,9.843l-2.626,8.75l-2.194,7.292l-0.833,2.779   c2.733,1.888,5.641,3.146,9.083,3.146c4.547,0,8.818-2.438,11.97-5.925c1.939-2.149,3.459-4.689,4.366-7.292   c0.613-1.747,0.941-3.527,0.941-5.234C396.153,331.077,395.909,329.875,395.439,328.82z" fill="#FFFFFF"/><path d="M387.387,344.861c-2.007,2.665-4.769,4.553-8.21,4.553c-1.781,0-3.504-0.686-4.99-1.491l0.924-3.062   l2.194-7.292l0.681-2.251c0.692-2.342,2.234-4.956,4.564-6.498c1.265-0.833,2.75-1.355,4.463-1.355   c1.287,0,2.257,0.539,2.948,1.355c0.958,1.129,1.384,2.79,1.384,4.258c0,1.378-0.193,2.921-0.584,4.491   C390.131,340.116,388.997,342.735,387.387,344.861z" fill="#0169AA"/><ellipse cx="222.015" cy="223.23" fill="#0169AA" rx="58.069" ry="58.006"/><path d="M209.756,182.835c-16.506,5.381-28.482,21.433-28.482,40.394s11.975,35.014,28.482,40.4V182.835z" fill="#FFFFFF"/><path d="M233.542,182.654v81.152c16.79-5.2,29.032-21.4,29.032-40.576S250.332,187.859,233.542,182.654z" fill="#FFFFFF"/><path d="M158.525,337.57c-1.349,2.954-3.391,5.46-6.198,7.297c-3.289,2.166-7.632,3.402-13.166,3.402   c-2.609,0-4.746,0-4.746-1.718c0-0.34,0.136-0.992,0.323-1.69c0.278-1.066,0.664-2.285,0.805-2.84l1.344-4.451l2.637-8.75   l3.521-11.663l0.867-2.875c0.89-0.056,2.081-0.119,3.329-0.119c4.388,0,7.671,0.987,9.889,2.994c2.325,2.115,3.47,5.375,3.47,9.849   c0,0.613-0.017,1.219-0.051,1.82C160.374,332.007,159.716,334.962,158.525,337.57z" fill="#0169AA"/><path d="M221.573,328.826c1.718-1.593,3.748-2.682,5.96-2.682c1.712,0,2.897,0.964,2.909,2.694   c0,2.653-2.983,6.918-10.49,8.72c-1.094,0.261-2.285,0.477-3.584,0.624l0.136-0.613   C217.212,334.689,219.049,331.19,221.573,328.826z" fill="#0169AA"/></g></svg>