<?xml version="1.0" ?><!DOCTYPE svg  PUBLIC '-//W3C//DTD SVG 1.1//EN'  'http://www.w3.org/Graphics/SVG/1.1/DTD/svg11.dtd'><svg enable-background="new 0 0 512 512" height="512px" id="Layer_1" version="1.1" viewBox="0 0 512 512" width="512px" xml:space="preserve" xmlns="http://www.w3.org/2000/svg" xmlns:xlink="http://www.w3.org/1999/xlink"><g id="Moneybookers"><circle cx="256" cy="256" fill="#9DA1B4" r="256"/><g id="Layer_25"><path d="M204.466,189.764c-14.324,11.686-23.463,29.176-23.463,48.643c0,20.598,10.162,38.875,25.854,50.561h16.44    c-15.757-11.686-25.988-30.027-25.988-50.62c0-19.408,9.138-36.898,23.392-48.584L204.466,189.764L204.466,189.764z" fill="#FFFFFF"/><path d="M303.438,189.764h-16.23c-14.325,11.686-23.468,29.176-23.468,48.643    c0,20.598,10.162,38.875,25.789,50.561h16.435c-15.757-11.686-25.918-30.027-25.918-50.62    C280.046,218.94,289.12,201.45,303.438,189.764z" fill="#FFFFFF"/><path d="M357.391,189.764c-0.07,0-0.21,0-0.275,0c-27.895,0.2-50.614,22.24-50.614,49.306    c0,26.995,22.72,49.101,50.614,49.241c0.065,0,0.205,0.065,0.275,0.065c28.094,0,50.948-22.175,50.948-49.306    C408.34,211.881,385.486,189.764,357.391,189.764z" fill="#FFFFFF"/><path d="M398.706,331.262c-1.766,0-3.856-0.555-6.424-1.648v4.302c2.078,0.937,4.416,1.4,7.06,1.4    c2.59,0,4.582-0.533,6.031-1.632c1.368-1.098,2.095-2.66,2.095-4.615c0-1.249-0.479-2.428-1.368-3.516    c-0.802-1.017-2.326-1.96-4.415-2.736c-2.09-0.861-3.301-1.405-3.619-1.648c-0.329-0.232-0.485-0.463-0.485-0.775    c0-0.942,0.802-1.486,2.251-1.486c2.009,0,4.26,0.7,6.586,2.186v-4.297c-1.842-1.017-4.007-1.481-6.349-1.481    c-2.488,0-4.416,0.538-5.945,1.637c-1.524,1.087-2.251,2.579-2.251,4.302c0,1.168,0.409,2.262,1.212,3.204    c0.711,1.018,2.17,1.869,4.329,2.655c2.095,0.781,3.376,1.406,3.7,1.713c0.404,0.323,0.571,0.63,0.571,1.023    C401.684,330.794,400.72,331.262,398.706,331.262z" fill="#FFFFFF"/><path d="M372.346,334.929h6.269v-8.287c0-0.312,0.479-1.325,1.449-3.048c0.958-1.718,2.164-2.574,3.613-2.574    c0.969,0,2.176,0.468,3.695,1.405l1.771-5.315c-1.61-1.174-3.053-1.793-4.184-1.793c-2.408,0-4.502,1.955-6.269,5.939h-0.075    v-5.552h-6.269V334.929z" fill="#FFFFFF"/><path d="M349.195,332.587c2.014,1.723,4.583,2.655,7.803,2.73c0.157,0,0.404,0,0.56,0    c3.532,0,6.43-0.851,8.837-2.493v-3.829c-2.569,1.798-4.981,2.735-7.308,2.735c-0.807,0-1.448-0.081-2.089-0.237    c-1.05-0.232-1.847-0.625-2.574-1.168c-1.125-0.937-1.766-2.267-1.847-3.996h4.421h9.72c0.162-3.355-0.721-6.016-2.73-8.045    c-1.852-1.88-4.179-2.817-6.99-2.967c-0.162,0-0.323,0-0.485,0c-3.053,0-5.541,0.926-7.474,2.886    c-1.923,1.874-2.892,4.297-2.892,7.195C346.148,328.371,347.187,330.794,349.195,332.587z" fill="#FFFFFF"/><polygon fill="#FFFFFF" points="323.406,334.929 329.588,334.929 329.588,325.479 329.745,325.479 337.386,334.929     345.017,334.929 336.982,325.242 344.704,315.705 337.386,315.705 329.745,325.242 329.588,325.242 329.588,306.48     323.406,306.48   "/><path d="M298.49,332.511c2.089,1.88,4.744,2.806,8.034,2.806c3.048,0,5.708-0.851,7.878-2.574    c2.171-1.793,3.29-4.222,3.29-7.345c0-3.204-1.12-5.627-3.209-7.431c-2.165-1.723-4.831-2.65-7.959-2.65    c-3.215,0-5.869,0.926-7.954,2.725c-2.089,1.885-3.215,4.227-3.215,7.276C295.355,328.29,296.4,330.708,298.49,332.511z" fill="#FFFFFF"/><path d="M271.65,332.511c2.084,1.88,4.739,2.806,8.034,2.806c0,0,0,0,0.076,0c2.897,0,5.547-0.851,7.722-2.574    c2.17-1.793,3.285-4.222,3.285-7.345c0-3.204-1.039-5.627-3.209-7.431c-2.165-1.723-4.82-2.65-7.798-2.65    c-0.076,0-0.076,0-0.076,0c-3.215,0-5.864,0.926-7.959,2.725c-2.089,1.885-3.215,4.227-3.215,7.276    C268.511,328.29,269.555,330.708,271.65,332.511z" fill="#FFFFFF"/><path d="M238.71,238.348c0-19.408,9.138-36.898,23.323-48.584h-16.161c-14.324,11.686-23.463,29.176-23.463,48.643    c0,20.598,10.156,38.875,25.848,50.561h16.306C248.936,277.282,238.71,258.941,238.71,238.348z" fill="#FFFFFF"/><path d="M243.034,334.929h6.188v-1.481c1.368,1.017,2.741,1.562,4.265,1.793c0.398,0.075,0.802,0.075,1.287,0.075    c2.649,0,4.894-0.926,6.58-2.806c1.772-1.879,2.574-4.302,2.574-7.27c0-2.886-0.883-5.315-2.65-7.114    c-1.766-1.884-4.098-2.811-6.989-2.811c-0.243,0-0.56,0.076-0.802,0.076c-1.524,0.156-2.897,0.624-4.265,1.405V306.48h-6.188    L243.034,334.929L243.034,334.929z" fill="#FFFFFF"/><polygon fill="#FFFFFF" points="219.167,344.16 225.834,344.16 239.012,315.705 232.506,315.705 228.091,325.624 223.906,315.705     217.234,315.705 224.951,331.806   "/><path d="M197.471,332.587c1.928,1.723,4.577,2.655,7.717,2.73c0.237,0,0.398,0,0.635,0    c3.457,0,6.43-0.851,8.842-2.493v-3.829c-2.574,1.798-5.062,2.735-7.388,2.735c-0.727,0-1.454-0.081-2.089-0.237    c-0.969-0.232-1.772-0.625-2.499-1.168c-1.12-0.937-1.766-2.267-1.928-3.996h4.427h9.801c0.162-3.355-0.808-6.016-2.736-8.045    c-1.847-1.88-4.179-2.817-7.065-2.967c-0.162,0-0.248,0-0.41,0c-3.053,0-5.541,0.926-7.469,2.886    c-2.009,1.874-2.978,4.297-2.978,7.195C194.331,328.371,195.381,330.794,197.471,332.587z" fill="#FFFFFF"/><path d="M168.935,334.929h6.193v-12.348c1.443-2.111,2.897-3.204,4.335-3.204c2.014,0,3.053,1.33,3.053,3.829    v11.723h6.269v-12.197c0-2.418-0.722-4.211-2.089-5.46c-1.363-1.336-3.048-1.955-5.143-1.955c-2.488,0-4.577,1.087-6.424,3.123    v-2.736h-6.193L168.935,334.929L168.935,334.929z" fill="#FFFFFF"/><path d="M181.892,288.968c-15.757-11.686-25.918-30.027-25.918-50.62c0-19.408,9.068-36.898,23.323-48.584H163.13    c-14.389,11.686-23.457,29.176-23.457,48.643c0,20.598,10.092,38.875,25.784,50.561H181.892z" fill="#FFFFFF"/><path d="M144.105,332.511c2.089,1.88,4.745,2.806,8.04,2.806c0,0,0,0,0.076,0c2.973,0,5.627-0.851,7.798-2.574    c2.17-1.793,3.295-4.222,3.295-7.345c0-3.204-1.044-5.627-3.22-7.431c-2.164-1.723-4.814-2.65-7.873-2.65    c-0.076,0-0.076,0-0.076,0c-3.22,0-5.864,0.926-7.959,2.725c-2.089,1.885-3.215,4.227-3.215,7.276    C140.971,328.29,142.015,330.708,144.105,332.511z" fill="#FFFFFF"/><path d="M99.581,334.929h6.188v-12.892c1.61-1.723,3.134-2.66,4.825-2.66c1.12,0,2.003,0.393,2.736,1.094    c0.721,0.7,1.039,1.723,1.039,3.123v11.335h6.188v-12.273c1.449-2.186,3.053-3.279,4.906-3.279c1.125,0,2.003,0.393,2.644,1.174    c0.646,0.705,0.969,1.804,0.969,3.118v11.26h6.269v-12.348c0-2.111-0.722-3.91-2.17-5.24c-1.443-1.325-3.296-2.025-5.547-2.025    c-2.811,0-5.46,1.406-7.792,4.136c-1.368-2.73-3.781-4.136-7.152-4.136c-2.494,0-4.744,0.926-6.914,2.886v-2.499h-6.188    L99.581,334.929L99.581,334.929z" fill="#FFFFFF"/><path d="M124.051,288.968h16.44c-15.757-11.686-25.918-30.027-25.918-50.62c0-19.408,9.069-36.898,23.323-48.584    H121.73c-14.325,11.686-23.457,29.176-23.457,48.643C98.273,259.006,108.364,277.282,124.051,288.968z" fill="#FFFFFF"/><path d="M152.145,318.909c0,0,0,0,0.076,0c2.973,0,4.421,2.111,4.421,6.257c0,4.373-1.449,6.564-4.421,6.564    c-0.076,0-0.076,0-0.076,0c-2.978,0-4.507-2.191-4.507-6.413c0-2.025,0.404-3.603,1.212-4.685    C149.652,319.533,150.777,318.99,152.145,318.909z" fill="#9DA1B4"/><path d="M205.188,318.909c2.563,0,4.017,1.405,4.34,4.222h-4.34h-4.265    C201.246,320.314,202.608,318.909,205.188,318.909z" fill="#9DA1B4"/><path d="M252.835,319.377c0.242,0,0.404,0,0.652,0.076c1.125,0.081,2.089,0.549,2.811,1.486    c0.964,0.937,1.368,2.428,1.368,4.227c0,1.949-0.404,3.436-1.287,4.523c-0.727,0.942-1.691,1.492-2.892,1.573    c-0.248,0-0.41,0-0.566,0c-1.206,0-2.413-0.555-3.7-1.648v-8.907C250.508,319.851,251.715,319.377,252.835,319.377z" fill="#9DA1B4"/><path d="M279.685,318.909c0,0,0,0,0.076,0c2.897,0,4.34,2.111,4.34,6.257c0,4.373-1.443,6.564-4.34,6.564    c-0.076,0-0.076,0-0.076,0c-2.972,0-4.507-2.191-4.507-6.413c0-2.025,0.404-3.603,1.212-4.685    C277.192,319.533,278.317,318.99,279.685,318.909z" fill="#9DA1B4"/><path d="M306.524,318.909c2.978,0,4.502,2.111,4.502,6.257c0,4.373-1.524,6.564-4.502,6.564    c-2.978,0-4.491-2.191-4.491-6.413c0-2.025,0.388-3.603,1.201-4.685C304.036,319.533,305.081,318.99,306.524,318.909z" fill="#9DA1B4"/><path d="M356.998,318.909c2.488,0,3.937,1.405,4.26,4.222h-4.26h-4.34    C352.975,320.314,354.424,318.909,356.998,318.909z" fill="#9DA1B4"/><path d="M357.117,274.245c-20.059,0-36.419-15.837-36.419-35.175c0-19.402,16.36-35.245,36.419-35.245    c20.054,0,36.355,15.843,36.355,35.245C393.472,258.408,377.171,274.245,357.117,274.245z" fill="#9DA1B4"/></g></g></svg>