<?xml version="1.0" ?><!DOCTYPE svg  PUBLIC '-//W3C//DTD SVG 1.1//EN'  'http://www.w3.org/Graphics/SVG/1.1/DTD/svg11.dtd'><svg enable-background="new 0 0 512 512" height="512px" id="Layer_1" version="1.1" viewBox="0 0 512 512" width="512px" xml:space="preserve" xmlns="http://www.w3.org/2000/svg" xmlns:xlink="http://www.w3.org/1999/xlink"><g id="Western_Union"><g><path d="M256,505c-66.51,0-129.04-25.9-176.069-72.931C32.9,385.04,7,322.51,7,256S32.9,126.96,79.931,79.931    C126.96,32.9,189.49,7,256,7s129.04,25.9,176.069,72.931C479.1,126.96,505,189.49,505,256s-25.9,129.04-72.931,176.069    C385.04,479.1,322.51,505,256,505z" fill="#19170C"/><path d="M256,14c32.676,0,64.367,6.396,94.193,19.012C379.009,45.2,404.891,62.651,427.12,84.88    s39.68,48.111,51.868,76.927C491.603,191.633,498,223.324,498,256s-6.397,64.367-19.012,94.193    c-12.188,28.816-29.639,54.698-51.868,76.927s-48.111,39.68-76.927,51.868C320.367,491.603,288.676,498,256,498    s-64.367-6.397-94.193-19.012c-28.816-12.188-54.698-29.639-76.927-51.868s-39.681-48.111-51.868-76.927    C20.396,320.367,14,288.676,14,256s6.396-64.367,19.012-94.193C45.2,132.992,62.651,107.109,84.88,84.88    s48.111-39.681,76.927-51.868C191.633,20.396,223.324,14,256,14 M256,0C114.615,0,0,114.615,0,256s114.615,256,256,256    s256-114.615,256-256S397.385,0,256,0L256,0z" fill="#F9ED32"/></g><path d="M199.977,218.741c4.04-3.186,9.569-3.934,14.672-3.877c4.634-0.04,9.636,0.57,13.373,3.374   c2.581,1.931,3.726,5.096,3.739,8.131c-4.634,0.009-9.266,0.009-13.9-0.009c-0.241-1.095-0.509-2.435-1.77-2.866   c-1.761-0.436-4.063-0.502-5.363,0.917c-0.772,1.34,0.078,2.977,1.619,3.324c4.883,1.451,10.052,2.176,14.683,4.33   c2.702,1.246,4.859,3.565,5.575,6.351c1.026,4.032-0.053,8.692-3.319,11.58c-3.316,2.848-7.892,3.894-12.249,4.219   c-5.514,0.369-11.446,0.053-16.302-2.692c-3.507-1.986-5.315-5.848-5.348-9.622c4.967-0.018,9.936-0.018,14.903,0   c0.236,1.255,0.443,2.758,1.715,3.484c1.718,0.903,4.246,0.824,5.589-0.659c1.007-1.062,1.078-3.016-0.277-3.859   c-1.483-0.872-3.256-1.125-4.899-1.628c-3.009-0.869-6.055-1.638-9.039-2.573c-2.699-0.851-5.213-2.594-6.348-5.113   C195.244,227.264,196.111,221.781,199.977,218.741 M86.691,215.755c4.637,0.045,9.28,0.01,13.918,0.022   c0.861,5.763,1.62,11.54,2.476,17.308c0.335,2.136,0.471,4.312,1.112,6.395c1.435-7.859,2.576-15.763,3.771-23.658   c5.411-0.103,10.821-0.023,16.237-0.041c0.805,5.336,1.667,10.666,2.485,16.004c0.448,2.519,0.675,5.082,1.39,7.552   c1.417-7.801,2.341-15.678,3.461-23.524c4.648-0.071,9.299-0.044,13.951-0.014c-2.786,12.515-5.753,24.989-8.527,37.508   c-5.674,0.071-11.344,0.027-17.018,0.018c-1.324-8.122-2.298-16.307-3.833-24.393c-1.624,8.082-2.482,16.293-3.911,24.414   c-5.667-0.04-11.33,0.049-16.991-0.049C92.486,240.762,89.463,228.282,86.691,215.755 M154.943,215.791   c10.077-0.022,20.148-0.027,30.22,0c-0.019,3.23-0.003,6.462-0.01,9.697c-5.056-0.018-10.119,0.005-15.176-0.018   c-0.027,1.388-0.038,2.772-0.051,4.162c4.689,0.008,9.384-0.032,14.078,0.017c0.043,3.205,0.024,6.409,0.014,9.613   c-4.685,0.147-9.379,0.014-14.065,0.08c-0.023,1.456-0.009,2.911,0.037,4.367c5.212,0.017,10.426-0.005,15.637,0.013   c0,3.204,0.011,6.408-0.005,9.614c-10.233-0.018-20.459,0.061-30.69-0.041C154.938,240.793,154.918,228.292,154.943,215.791    M241.771,225.724c-0.032-3.32-0.061-6.644,0.014-9.965c11.762,0.063,23.529-0.049,35.291,0.058   c-0.055,3.311,0.053,6.621-0.069,9.929c-3.259,0.026-6.513,0-9.767,0.018c-0.075,9.181,0.024,18.362-0.051,27.538   c-5.194,0.071-10.387,0.032-15.582,0.023c-0.027-9.186,0.018-18.376-0.023-27.562C248.313,225.733,245.044,225.799,241.771,225.724    M287.558,215.791c10.059-0.037,20.121-0.01,30.179-0.014c0.017,3.232,0.051,6.463-0.019,9.693   c-5.071,0.022-10.143,0.008-15.215,0.004c-0.008,1.389-0.008,2.778,0.025,4.166c4.651-0.04,9.304,0.018,13.957-0.035   c0.112,3.222,0.027,6.444,0.056,9.661c-4.672,0.124-9.342,0.049-14.013,0.045c-0.043,1.469-0.038,2.937-0.006,4.401   c5.232,0.009,10.464-0.013,15.701,0.013c-0.024,3.214,0.065,6.431-0.053,9.645c-10.209-0.093-20.42,0.04-30.635-0.067   C287.568,240.798,287.526,228.296,287.558,215.791 M329.671,215.786c7.18-0.026,14.364,0,21.546-0.013   c3.465-0.018,7.063,0.049,10.316,1.322c2.461,0.93,4.412,3.035,4.916,5.518c0.613,2.88,0.419,6.222-1.71,8.536   c-1.496,1.726-3.793,2.501-5.97,3.138c1.761,0.48,3.758,0.694,5.087,2.021c1.806,1.579,2.002,4.036,2.329,6.199   c0.411,3.637,0.896,7.281,1.913,10.824c-5.099-0.032-10.205,0.116-15.299-0.076c-0.852-3.4-1.286-6.876-1.841-10.325   c-0.179-0.836-0.317-1.83-1.126-2.35c-1.407-0.872-3.168-0.654-4.76-0.703c-0.022,4.481,0,8.963-0.014,13.445   c-5.128,0.022-10.256,0.057-15.383-0.023C329.682,240.798,329.691,228.292,329.671,215.786 M345.129,224.277   c-0.033,2.399,0.008,4.798-0.043,7.195c1.964-0.043,4.308,0.089,5.749-1.419c1.211-1.42,1.233-3.979-0.461-5.073   C348.781,224.135,346.883,224.339,345.129,224.277 M378.973,215.791c6.254-0.018,12.506-0.027,18.759,0   c2.566,6.933,5.167,13.853,7.703,20.795c0.246,0.656,0.589,1.27,0.952,1.874c0.306-7.543,0.043-15.109,0.136-22.662   c4.211-0.053,8.424-0.022,12.635-0.008c0,12.513,0.008,25.024-0.006,37.538c-6.28,0-12.566,0.053-18.854-0.032   c-2.086-5.949-4.358-11.838-6.493-17.775c-0.682-1.686-1.116-3.474-2.086-5.041c-0.193,7.601-0.029,15.216-0.085,22.826   c-4.229,0.066-8.457,0.027-12.684,0.022C378.964,240.815,378.926,228.305,378.973,215.791 M341.887,260.369   c5.787-0.783,12.13-0.396,17.141,2.72c4.186,2.496,6.785,6.876,7.698,11.397c0.702,3.636,0.707,7.424-0.118,11.041   c-0.948,4.058-3.202,7.976-6.837,10.423c-4.182,2.902-9.558,3.756-14.643,3.511c-5.251-0.199-10.699-1.99-14.169-5.861   c-3.782-4.107-4.993-9.782-4.737-15.091c0.189-4.682,1.657-9.532,5.132-12.998C334.062,262.657,337.952,261.043,341.887,260.369    M345.768,269.813c-1.813,0.352-2.496,2.221-2.803,3.738c-0.692,3.81-0.632,7.726-0.164,11.558   c0.268,1.534,0.617,3.315,2.077,4.259c1.474,0.756,3.705,0.557,4.624-0.904c0.979-1.539,1.168-3.377,1.332-5.13   c0.193-2.813,0.207-5.652-0.14-8.452c-0.227-1.464-0.477-3.039-1.512-4.215C348.371,269.711,346.95,269.613,345.768,269.813    M194.935,260.988c5.184,0.017,10.368,0,15.552,0.009c0.061,8.22-0.014,16.44,0.038,24.659c0,1.33,0.439,2.852,1.723,3.573   c1.305,0.636,3.173,0.374,3.984-0.858c0.696-0.926,0.727-2.106,0.757-3.195c0.025-8.06-0.041-16.125,0.048-24.183   c5.194,0.013,10.389-0.01,15.586,0.013c0.047,7.606,0.005,15.212,0.023,22.817c-0.041,2.203,0.048,4.464-0.697,6.586   c-0.936,3.009-3.329,5.515-6.299,6.872c-4.677,2.216-10.078,2.417-15.201,2.105c-4.152-0.337-8.494-1.37-11.654-4.085   c-2.702-2.332-3.95-5.856-3.889-9.261C194.916,277.69,194.863,269.337,194.935,260.988 M245.525,260.997   c6.243-0.014,12.493,0.014,18.744-0.014c2.944,7.601,5.557,15.318,8.613,22.88c0.447-7.611,0.113-15.247,0.217-22.87   c4.203,0,8.408,0.008,12.616-0.005c0.037,12.513,0.027,25.024,0.003,37.539c-6.272-0.014-12.539,0.062-18.811-0.041   c-2.142-5.718-4.21-11.46-6.347-17.178c-0.735-1.892-1.268-3.867-2.303-5.647c-0.263,7.618-0.037,15.251-0.123,22.874   c-4.195,0-8.39-0.005-12.587,0C245.467,286.022,245.525,273.511,245.525,260.997 M298.845,261.001   c5.204-0.013,10.406,0,15.614-0.008c-0.005,12.509,0,25.019-0.005,37.528c-5.203-0.011-10.416,0.091-15.618-0.056   C298.841,285.977,298.828,273.489,298.845,261.001 M379.002,260.993c6.206-0.022,12.416,0.057,18.623-0.045   c2.547,6.159,4.661,12.474,7.039,18.695c0.561,1.282,0.745,2.768,1.761,3.832c0.255-7.495-0.028-15.002,0.142-22.496   c4.195,0.034,8.392,0.003,12.585,0.017c0.014,12.492,0.006,24.99,0.006,37.481c-6.282,0.08-12.569,0.112-18.844-0.013   c-2.759-7.584-5.514-15.173-8.392-22.715c-0.451,1.309-0.27,2.697-0.287,4.049c0.006,6.24,0.006,12.48,0,18.722   c-4.224,0.006-8.443,0.055-12.662-0.029C378.956,285.995,378.903,273.494,379.002,260.993" fill="#FDDF00"/></g></svg>