<?xml version="1.0" ?><svg enable-background="new 0 0 24 24" id="Layer_1" version="1.1" viewBox="0 0 24 24" xml:space="preserve" xmlns="http://www.w3.org/2000/svg" xmlns:xlink="http://www.w3.org/1999/xlink"><g><path d="M22,3H2C0.8974609,3,0,3.8969727,0,5v14c0,1.1030273,0.8974609,2,2,2h20c1.1025391,0,2-0.8969727,2-2V5   C24,3.8969727,23.1025391,3,22,3z" fill="#303C42"/><path d="M23,19c0,0.5512695-0.4482422,1-1,1H2c-0.5517578,0-1-0.4487305-1-1V5c0-0.5512695,0.4482422-1,1-1h20   c0.5517578,0,1,0.4487305,1,1V19z" fill="#FCB316"/><path d="M14.2813721,6.3133545c0,0-0.3133545-0.3133545-0.7559204-0.3133545c0,0-0.4425659,0-0.7559204,0.3133545   c0,0-0.3134155,0.3133545-0.3134155,0.7559204c0,0,0,0.4425659,0.3134155,0.7559814l0.5882568,0.5855103h-2.2568359   c0,0-0.4480591,0-0.7614136,0.3161011c0,0-0.3161621,0.3133545-0.3161621,0.758667c0,0,0,0.4453125,0.3161621,0.7614746   c0,0,0.3133545,0.3133545,0.7614136,0.3133545h2.2568359l-0.5882568,0.5882568c0,0-0.3134155,0.3133545-0.3134155,0.7559204   c0,0,0,0.4425659,0.3134155,0.7559204c0,0,0.3133545,0.3106689,0.7559204,0.3106689c0,0,0.4425659,0,0.7559204-0.3106689   l2.4162598-2.4189453c0,0,0.3133545-0.3134155,0.3133545-0.7559814c0,0,0-0.4425659-0.3106079-0.7559204L14.2813721,6.3133545z" fill="#303C42"/><path d="M7.994751,7.9956665c-0.5910034,0-1.0088501,0.4178467-1.0088501,0.4178467   C6.5680542,8.8312988,6.5680542,9.4223022,6.5680542,9.4223022c0,0.5910034,0.4178467,1.0088501,0.4178467,1.0088501   C7.4037476,10.848999,7.994751,10.848999,7.994751,10.848999c0.5910034,0,1.0087891-0.4178467,1.0087891-0.4178467   c0.4178467-0.4178467,0.4178467-1.0088501,0.4178467-1.0088501c0-0.5910034-0.4178467-1.0087891-0.4178467-1.0087891   C8.5857544,7.9956665,7.994751,7.9956665,7.994751,7.9956665z" fill="#303C42"/><path d="M3.8069458,14.8267212C3.2860107,14.8267212,3,15.1085205,3,15.6378784v0.5977173   c0,0.5293579,0.2902832,0.8111572,0.8069458,0.8111572c0.1749268,0,0.3713989-0.0384521,0.3713989-0.0384521   c0.0597534-0.0128174,0.0810547-0.0426636,0.0810547-0.0895996v-0.260437c0-0.046936-0.0299072-0.0682983-0.0768433-0.0640869   c0,0-0.1749878,0.0256348-0.3414917,0.0256348c-0.2732544,0-0.37146-0.157959-0.37146-0.3970947v-0.576355   c0-0.2305298,0.0896606-0.3927002,0.3671875-0.3927002c0.1578979,0,0.3415527,0.0256348,0.3415527,0.0256348   c0.0511475,0.0043335,0.0810547-0.0213013,0.0810547-0.0683594v-0.260376c0-0.046936-0.0256348-0.0768433-0.0810547-0.0853882   C4.1783447,14.8651733,3.9990234,14.8267212,3.8069458,14.8267212z" fill="#303C42"/><path d="M4.6394653,13.9729004c-0.0469971,0-0.0811157,0.0341187-0.0811157,0.0811768v2.8688354   c0,0.046936,0.0341187,0.0811768,0.0811157,0.0811768h0.3074341c0.046936,0,0.0810547-0.0342407,0.0810547-0.0811768v-2.8688354   c0-0.0470581-0.0341187-0.0811768-0.0810547-0.0811768H4.6394653z" fill="#303C42"/><path d="M5.4719238,13.9729004c-0.046936,0-0.0811157,0.0341187-0.0811157,0.0811768v0.3074341   c0,0.046936,0.0341797,0.0810547,0.0811157,0.0810547h0.307373c0.0469971,0,0.0811768-0.0341187,0.0811768-0.0810547v-0.3074341   c0-0.0470581-0.0341797-0.0811768-0.0811768-0.0811768H5.4719238z" fill="#303C42"/><path d="M5.4719238,14.8694458c-0.046936,0-0.0811157,0.0341797-0.0811157,0.0811157v1.9723511   c0,0.046936,0.0341797,0.0811768,0.0811157,0.0811768h0.307373c0.0469971,0,0.0811768-0.0342407,0.0811768-0.0811768v-1.9723511   c0-0.046936-0.0341797-0.0811157-0.0811768-0.0811157H5.4719238z" fill="#303C42"/><path d="M7.0302734,14.8267212c-0.520874,0-0.8069458,0.2817993-0.8069458,0.8111572v0.5977173   c0,0.5293579,0.2902832,0.8111572,0.8069458,0.8111572c0.1749268,0,0.3713379-0.0384521,0.3713379-0.0384521   c0.0597534-0.0128174,0.0811157-0.0426636,0.0811157-0.0895996v-0.260437c0-0.046936-0.0298462-0.0682983-0.0767822-0.0640869   c0,0-0.1751099,0.0256348-0.3415527,0.0256348c-0.2732544,0-0.371521-0.157959-0.371521-0.3970947v-0.576355   c0-0.2305298,0.0897217-0.3927002,0.3671875-0.3927002c0.157959,0,0.3415527,0.0256348,0.3415527,0.0256348   c0.0512695,0.0043335,0.0811157-0.0213013,0.0811157-0.0683594v-0.260376c0-0.046936-0.0256348-0.0768433-0.0811157-0.0853882   C7.4016113,14.8651733,7.2223511,14.8267212,7.0302734,14.8267212z" fill="#303C42"/><path d="M9.3100586,14.9505615c0.0255127-0.0384521,0-0.0811157-0.046936-0.0811157H8.9172363   c-0.0469971,0-0.0853882,0.0426636-0.1110229,0.0811157l-0.5293579,0.8580933l0.5806274,1.1142578   c0.0213623,0.0427246,0.0597534,0.0811768,0.1066895,0.0811768h0.3458862c0.046936,0,0.0767822-0.0427246,0.0554199-0.0811768   l-0.5848999-1.1228027L9.3100586,14.9505615z" fill="#303C42"/><path d="M7.8627319,13.9729004c-0.046936,0-0.0811157,0.0341187-0.0811157,0.0811768v2.8688354   c0,0.046936,0.0341797,0.0811768,0.0811157,0.0811768H8.170166c0.046936,0,0.0811157-0.0342407,0.0811157-0.0811768v-2.8688354   c0-0.0470581-0.0341797-0.0811768-0.0811157-0.0811768H7.8627319z" fill="#303C42"/><path d="M10.2919922,14.8267212c-0.3586426,0-0.6361694,0.0896606-0.6361694,0.0896606   c-0.0512085,0.0128784-0.0810547,0.0426636-0.0810547,0.0896606v0.260376c0,0.0470581,0.0298462,0.0811157,0.0810547,0.0683594   c0,0,0.3202515-0.0725708,0.5721436-0.0725708c0.2518311,0,0.3500366,0.1195068,0.3500366,0.3415527v0.1707764   c-0.0554199-0.008667-0.2646484-0.0256348-0.4098511-0.0256348c-0.473877,0-0.7428589,0.2177124-0.7428589,0.6574707   c0,0.4311523,0.2434082,0.6403809,0.6574707,0.6403809c0.2006836,0,0.3799438-0.0769043,0.5166016-0.1621704v0.0383301   c0,0.046936,0.0341187,0.0811768,0.0810547,0.0811768h0.2860718c0.046936,0,0.0811157-0.0342407,0.0811157-0.0811768v-1.3191528   C11.0476074,15.0914307,10.8598022,14.8267212,10.2919922,14.8267212z M10.5780029,16.5344238   c-0.1237793,0.0640259-0.2689819,0.1152954-0.4013062,0.1152954c-0.1878052,0-0.2817993-0.0939941-0.2817993-0.2561646   c0-0.1835938,0.0939941-0.2817993,0.3245239-0.2817993h0.3585815V16.5344238z" fill="#303C42"/><path d="M12.4094849,14.8267212c-0.2432861,0-0.4268799,0.0939941-0.5505981,0.1879272v-0.0640869   c0-0.046936-0.0342407-0.0811157-0.0811768-0.0811157h-0.2860107c-0.0470581,0-0.0811768,0.0341797-0.0811768,0.0811157v1.9723511   c0,0.046936,0.0341187,0.0811768,0.0811768,0.0811768h0.307312c0.0470581,0,0.0811768-0.0342407,0.0811768-0.0811768v-1.5325928   c0.1195068-0.0640869,0.2647095-0.1239014,0.3970337-0.1239014c0.2261963,0,0.2860107,0.1282349,0.2860107,0.3287964v1.3276978   c0,0.046936,0.0342407,0.0811768,0.0811768,0.0811768h0.307312c0.046936,0,0.0810547-0.0342407,0.0810547-0.0811768v-1.3704224   C13.0327759,15.1085205,12.8748169,14.8267212,12.4094849,14.8267212z" fill="#303C42"/><path d="M14.5442505,13.9729004c-0.046936,0-0.0811157,0.0341187-0.0811157,0.0811768v0.8880005   c-0.1281128-0.0640869-0.2817993-0.1153564-0.4568481-0.1153564c-0.473938,0-0.6958618,0.2902832-0.6958618,0.7470703v0.7258301   c0,0.4567871,0.2219238,0.7471313,0.6958618,0.7471313c0.1835938,0,0.3458252-0.0682983,0.4781494-0.1494141v0.0255737   c0,0.046936,0.0341187,0.0811768,0.0810547,0.0811768h0.2861328c0.046936,0,0.0811157-0.0342407,0.0811157-0.0811768v-2.8688354   c0-0.0470581-0.0341797-0.0811768-0.0811157-0.0811768H14.5442505z M14.4631348,16.5300903   c-0.1152954,0.055542-0.2433472,0.0982056-0.3586426,0.0982056c-0.2348022,0-0.3244629-0.149353-0.3244629-0.362854v-0.6616821   c0-0.2134399,0.0896606-0.362915,0.3244629-0.362915c0.1152954,0,0.2433472,0.0341797,0.3586426,0.0811157V16.5300903z" fill="#303C42"/><path d="M16.2263184,14.8267212c-0.1749878,0-0.3329468,0.055542-0.4610596,0.1323242v-0.9049683   c0-0.0470581-0.0341187-0.0811768-0.0811157-0.0811768h-0.307312c-0.0470581,0-0.0811768,0.0341187-0.0811768,0.0811768v2.8688354   c0,0.046936,0.0341187,0.0811768,0.0811768,0.0811768h0.7598877c0.5292969,0,0.78125-0.2818604,0.78125-0.7471924v-0.6831055   C16.9179688,15.1170044,16.7001953,14.8267212,16.2263184,14.8267212z M16.4483643,16.2441406   c0,0.213501-0.0982056,0.3543091-0.3544312,0.3543091h-0.3286743v-1.2593994   c0.1152954-0.0554199,0.2476196-0.0982056,0.362854-0.0982056c0.2348022,0,0.3202515,0.1494751,0.3202515,0.362915V16.2441406z" fill="#303C42"/><path d="M18.5147705,14.8694458c-0.046936,0-0.0810547,0.0341797-0.0810547,0.0811157v1.5325928   c-0.1196289,0.0640869-0.2648315,0.1237793-0.3971558,0.1237793c-0.2261963,0-0.2859497-0.1279907-0.2859497-0.3286743v-1.3276978   c0-0.046936-0.0341797-0.0811157-0.0811157-0.0811157h-0.3074341c-0.0469971,0-0.0811768,0.0341797-0.0811768,0.0811157v1.3704224   c0,0.4439697,0.157959,0.725769,0.6233521,0.725769c0.2433472,0,0.4269409-0.0938721,0.5506592-0.1879272v0.0640869   c0,0.046936,0.0342407,0.0811768,0.0811768,0.0811768h0.2860107c0.046936,0,0.0811768-0.0342407,0.0811768-0.0811768v-1.9723511   c0-0.046936-0.0342407-0.0811157-0.0811768-0.0811157H18.5147705z" fill="#303C42"/><path d="M20.9311523,14.8694458h-0.3372803c-0.046936,0-0.0767822,0.0341797-0.0938721,0.0767822   l-0.4567871,1.3533936l-0.4354858-1.3533936c-0.0128174-0.046875-0.046936-0.0767822-0.0938721-0.0767822h-0.3373413   c-0.0511475,0-0.0767822,0.0385132-0.0640869,0.0811157l0.678894,2.0705566l-0.2433472,0.7129517   c-0.0170898,0.0427246,0.0170288,0.0810547,0.0639648,0.0810547h0.3458862c0.046936,0,0.0725708-0.0341187,0.0895996-0.0767822   l0.9477539-2.7834473C21.0122681,14.9121094,20.9823608,14.8694458,20.9311523,14.8694458z" fill="#303C42"/><path d="M22,4h-0.5v13.5c0,0.5512695-0.4487305,1-1,1H1V19c0,0.5512695,0.4487305,1,1,1h20   c0.5512695,0,1-0.4487305,1-1V5C23,4.4487305,22.5512695,4,22,4z" fill="#010101" opacity="0.1"/><linearGradient gradientUnits="userSpaceOnUse" id="SVGID_1_" x1="-0.7076151" x2="24.7076149" y1="6.0743418" y2="17.9256592"><stop offset="0" style="stop-color:#FFFFFF;stop-opacity:0.2"/><stop offset="1" style="stop-color:#FFFFFF;stop-opacity:0"/></linearGradient><path d="M22,3H2C0.8974609,3,0,3.8969727,0,5v14c0,1.1030273,0.8974609,2,2,2h20   c1.1025391,0,2-0.8969727,2-2V5C24,3.8969727,23.1025391,3,22,3z" fill="url(#SVGID_1_)"/></g><g/><g/><g/><g/><g/><g/><g/><g/><g/><g/><g/><g/><g/><g/><g/></svg>