<?xml version="1.0" ?><svg enable-background="new 0 0 24 24" id="Layer_1" version="1.1" viewBox="0 0 24 24" xml:space="preserve" xmlns="http://www.w3.org/2000/svg" xmlns:xlink="http://www.w3.org/1999/xlink"><g><path d="M22,3H2C0.8974609,3,0,3.8969727,0,5v14c0,1.1030273,0.8974609,2,2,2h20c1.1025391,0,2-0.8969727,2-2V5   C24,3.8969727,23.1025391,3,22,3z" fill="#303C42"/><path d="M22,20h-9.4263306C16.9379883,18.6098022,21.2171021,15.9205933,23,14.6688232V19   C23,19.5512695,22.5517578,20,22,20z" fill="#FAA629"/><path d="M1,19V5c0-0.5512695,0.4482422-1,1-1h20c0.5517578,0,1,0.4487305,1,1v8.3005371   C21.0881348,14.7955933,16.4563599,17.9622192,9.428894,20H2C1.4482422,20,1,19.5512695,1,19z" fill="#FAFBFB"/><path d="M3.3724976,9.4584351H2.5v3.0632324h0.8679199c0.4614258,0,0.7946777-0.109436,1.0872192-0.3536377   c0.3475952-0.2891846,0.5531616-0.7250366,0.5531616-1.1758423C5.0083008,10.0881958,4.3364258,9.4584351,3.3724976,9.4584351z    M4.0668335,11.7595825c-0.1867676,0.1695557-0.4293213,0.2435303-0.8134155,0.2435303H3.0939331V9.977478H3.253418   c0.3840942,0,0.6171265,0.0690308,0.8134155,0.2477417c0.2055664,0.18396,0.3292236,0.4690552,0.3292236,0.7625122   C4.3960571,11.2817993,4.2723999,11.5756226,4.0668335,11.7595825z" fill="#303C42"/><rect fill="#303C42" height="3.0632324" width="0.5943604" x="5.2817993" y="9.4584351"/><path d="M7.3294678,10.6339111C6.9728394,10.5012207,6.868103,10.4137573,6.868103,10.24823   c0-0.1929321,0.1865845-0.3395386,0.442749-0.3395386c0.1781006,0,0.3244629,0.0735474,0.4793091,0.2481079l0.3109741-0.4093628   C7.8455811,9.5227051,7.539856,9.4077759,7.2057495,9.4077759c-0.5391235,0-0.9503784,0.3764038-0.9503784,0.8777466   c0,0.4219971,0.1914673,0.6380615,0.7496948,0.8400269c0.232666,0.0825195,0.3511353,0.1374512,0.4108887,0.1744385   c0.1187744,0.0779419,0.1782227,0.1883545,0.1782227,0.3169556c0,0.24823-0.1963501,0.4320679-0.4614868,0.4320679   c-0.2835083,0-0.5118408-0.1424561-0.6486816-0.4085083L6.0999756,12.012146   c0.2738647,0.4041138,0.6027222,0.5831909,1.0549927,0.5831909c0.6176758,0,1.0509644-0.4128418,1.0509644-1.0057983   C8.2059326,11.1027832,8.0056152,10.8825073,7.3294678,10.6339111z" fill="#303C42"/><path d="M10.0018311,12.5906982c0.2558594,0,0.4749756-0.0505371,0.7451782-0.1784668v-0.7033691   c-0.2376099,0.2390137-0.4480591,0.3355103-0.7175293,0.3355103c-0.5986328,0-1.0234985-0.4362793-1.0234985-1.0566406   c0-0.5880737,0.4382935-1.052063,0.9958496-1.052063c0.2835083,0,0.4981079,0.1016846,0.7451782,0.3447266v-0.703064   c-0.2609253-0.1329956-0.4754028-0.1881104-0.7311401-0.1881104c-0.9005127,0-1.6224365,0.7122803-1.6224365,1.6029663   C8.3934326,11.8925171,9.0967407,12.5906982,10.0018311,12.5906982z" fill="#303C42"/><polygon fill="#303C42" points="15.6107788,12.6002808 16.927124,9.4584351 16.2828979,9.4584351 15.4597168,11.5159912    14.6471558,9.4584351 13.9978027,9.4584351 15.2909546,12.6002808  "/><polygon fill="#303C42" points="18.8815308,12.0031128 17.789856,12.0031128 17.789856,11.1762085 18.8413086,11.1762085    18.8413086,10.6573486 17.789856,10.6573486 17.789856,9.977478 18.8815308,9.977478 18.8815308,9.4584351 17.1959229,9.4584351    17.1959229,12.5216675 18.8815308,12.5216675  "/><path d="M19.8688965,11.2910767h0.0774536l0.8226929,1.2305908H21.5l-0.9592896-1.2904663   c0.4476929-0.0915527,0.6942139-0.399353,0.6942139-0.8684082c0-0.5734863-0.3930054-0.9043579-1.0783691-0.9043579h-0.8813477   v3.0632324h0.593689V11.2910767z M19.8688965,9.940918h0.1829834c0.3702393,0,0.5714111,0.1559448,0.5714111,0.4540405   c0,0.3079224-0.2011719,0.4737549-0.5808105,0.4737549h-0.173584V9.940918z" fill="#303C42"/><ellipse cx="12.5621185" cy="11.0006561" fill="#303C42" rx="1.6210022" ry="1.6295471"/><ellipse cx="12.5621185" cy="11.0006561" fill="#FAA629" rx="0.6210022" ry="0.6295471"/><path d="M20.5,18.5h-4.1508179c-1.2105103,0.5657959-2.4883423,1.0899658-3.7755127,1.5H22   c0.5517578,0,1-0.4487305,1-1v-4.3311768c-0.3881226,0.2724609-0.9002075,0.6155396-1.5,0.9960327V17.5   C21.5,18.0512695,21.0512695,18.5,20.5,18.5z" fill="#010101" opacity="0.1"/><path d="M2,20h7.428894c1.5650635-0.4538574,3.0042114-0.9651489,4.328064-1.5H1V19   C1,19.5512695,1.4482422,20,2,20z" fill="#010101" opacity="0.1"/><path d="M23,13.3005371V5c0-0.5512695-0.4482422-1-1-1h-0.5v10.394104   C22.1079712,13.9772949,22.6126709,13.6034546,23,13.3005371z" fill="#010101" opacity="0.1"/><linearGradient gradientUnits="userSpaceOnUse" id="SVGID_1_" x1="-0.7076151" x2="24.7076149" y1="6.0743418" y2="17.9256592"><stop offset="0" style="stop-color:#FFFFFF;stop-opacity:0.2"/><stop offset="1" style="stop-color:#FFFFFF;stop-opacity:0"/></linearGradient><path d="M22,3H2C0.8974609,3,0,3.8969727,0,5v14c0,1.1030273,0.8974609,2,2,2h20   c1.1025391,0,2-0.8969727,2-2V5C24,3.8969727,23.1025391,3,22,3z" fill="url(#SVGID_1_)"/></g><g/><g/><g/><g/><g/><g/><g/><g/><g/><g/><g/><g/><g/><g/><g/></svg>