<?xml version="1.0" ?><svg enable-background="new 0 0 24 24" id="Layer_1" version="1.1" viewBox="0 0 24 24" xml:space="preserve" xmlns="http://www.w3.org/2000/svg" xmlns:xlink="http://www.w3.org/1999/xlink"><g><path d="M22,3H2C0.8974609,3,0,3.8969727,0,5v14c0,1.1030273,0.8974609,2,2,2h20c1.1025391,0,2-0.8969727,2-2V5   C24,3.8969727,23.1025391,3,22,3z" fill="#303C42"/><path d="M23,19c0,0.5512695-0.4482422,1-1,1H2c-0.5517578,0-1-0.4487305-1-1V5c0-0.5512695,0.4482422-1,1-1h20   c0.5517578,0,1,0.4487305,1,1V19z" fill="#FAFBFB"/><path d="M14.1874876,8.2924805c-0.4013548-0.3999023-1.052722-0.3984375-1.452136,0.0004883l-2.9804688,2.9804688   C9.5605469,11.4672852,9.4541016,11.7255859,9.4541016,12s0.1064453,0.5327148,0.3007813,0.7260742l1.3115234,1.3115234   l0.7070313-0.7070313l-1.3115234-1.3496094L13.4804688,9l2.9804688,3.019043L13.4423828,15l-0.5058594-0.5058594   l-0.7070313,0.7070313l0.5058594,0.5063477c0.2001953,0.199707,0.4628906,0.2993164,0.7255859,0.2993164   c0.2636719,0,0.5263672-0.1000977,0.7265501-0.2998047l2.9804811-2.9804688C17.3623047,12.5327148,17.46875,12.2744141,17.46875,12   s-0.1064453-0.5327148-0.3007813-0.7260742L14.1874876,8.2924805z" fill="#F9A822"/><path d="M14.5458984,12c0-0.2744141-0.1064453-0.5327148-0.3007813-0.7260742l-1.3222656-1.3222656   l-0.7070313,0.7070313l1.3222656,1.3603516L10.5195313,15l-2.9814453-3.019043L10.5576172,9l0.5195313,0.5195313L11.7841797,8.8125   l-0.5195313-0.5200195c-0.4013672-0.3999023-1.0527344-0.3984375-1.4521608,0.0004883l-2.9814329,2.9814453   c-0.3994141,0.3999023-0.3994141,1.0512695,0,1.4516602l2.9814329,2.9814453   c0.2002077,0.199707,0.462903,0.2993164,0.7255983,0.2993164c0.2636719,0,0.5263672-0.1000977,0.7265625-0.2998047   l2.9804688-2.9804688C14.4394531,12.5327148,14.5458984,12.2744141,14.5458984,12z" fill="#57A0D7"/><path d="M22,4h-0.5v13.5c0,0.5512695-0.4487305,1-1,1H1V19c0,0.5512695,0.4487305,1,1,1h20   c0.5512695,0,1-0.4487305,1-1V5C23,4.4487305,22.5512695,4,22,4z" fill="#010101" opacity="0.1"/><linearGradient gradientUnits="userSpaceOnUse" id="SVGID_1_" x1="-0.7076151" x2="24.7076149" y1="6.0743418" y2="17.9256592"><stop offset="0" style="stop-color:#FFFFFF;stop-opacity:0.2"/><stop offset="1" style="stop-color:#FFFFFF;stop-opacity:0"/></linearGradient><path d="M22,3H2C0.8974609,3,0,3.8969727,0,5v14c0,1.1030273,0.8974609,2,2,2h20   c1.1025391,0,2-0.8969727,2-2V5C24,3.8969727,23.1025391,3,22,3z" fill="url(#SVGID_1_)"/></g><g/><g/><g/><g/><g/><g/><g/><g/><g/><g/><g/><g/><g/><g/><g/></svg>