<?xml version="1.0" ?><svg enable-background="new 0 0 24 24" id="Layer_1" version="1.1" viewBox="0 0 24 24" xml:space="preserve" xmlns="http://www.w3.org/2000/svg" xmlns:xlink="http://www.w3.org/1999/xlink"><g><path d="M22,3H2C0.8974609,3,0,3.8969727,0,5v14c0,1.1030273,0.8974609,2,2,2h20c1.1025391,0,2-0.8969727,2-2V5   C24,3.8969727,23.1025391,3,22,3z" fill="#303C42"/><path d="M23,19c0,0.5512695-0.4482422,1-1,1H2c-0.5517578,0-1-0.4487305-1-1V5c0-0.5512695,0.4482422-1,1-1h20   c0.5517578,0,1,0.4487305,1,1V19z" fill="#8BC249"/><path d="M20.5089722,10.5437622h-1.3242188l-0.4921875,2.6725464h-1.7346802l0.1112061-0.6063232h1.045105   l0.1242065-0.6810303l-1.0444336,0.0018921l0.1118774-0.6037598h1.0762329l0.1431885-0.7832031h-2.1862183l-0.4672241,2.5352783   h-0.8016357l0.4706421-2.5352783h-1.1428833l-0.4672852,2.5352783h-0.7816162l0.4710693-2.5352783h-1.1417236l-0.4934692,2.6724854   H10.237915l0.1100464-0.6063232h1.0498047l0.1236572-0.677063l-1.0482178-0.0009766l0.1113281-0.6049194h1.0881958   l0.1424561-0.7832031H5.0042725l-0.3876953,2.1178589l-0.7723389-2.117981H2.6588135L2.020813,14h1.132019l0.3861084-2.1760864   L4.2885132,14h4.0574341l0.4932251-2.6729736h0.6348877L8.9805908,14h10.6763306l0.3092041-1.687439L20.4674072,14h1.1326294   l-0.5189209-1.3787842l0.1184692-0.0256348c0.2609863-0.0558472,0.465332-0.1762695,0.6071167-0.3566895   c0.1420288-0.1821289,0.2141113-0.4158936,0.2141113-0.6967163c0.0001221-0.3270874-0.1193237-0.5675659-0.3657227-0.7356567   C21.4002075,10.6317749,21.0145874,10.5437622,20.5089722,10.5437622z M7.3603516,13.2161865H5.6270142l0.1120605-0.6062622   h1.0871582l0.1235352-0.6829224H5.8730469l0.1040649-0.6000977h1.7302856L7.3603516,13.2161865z M20.7213745,12.052063   c-0.1137695,0.0792847-0.2788086,0.1184692-0.5046387,0.1184692h-0.0980225h-0.1259766l0.1717529-0.9276123h0.0870361h0.0776367   c0.1875,0,0.3244019,0.0301514,0.4187622,0.0914307c0.0737915,0.0480347,0.1611328,0.1430664,0.1611328,0.3234863   C20.9090576,11.8752441,20.8074341,11.9921265,20.7213745,12.052063z" fill="#303C42"/><path d="M22,4h-0.5v13.5c0,0.5512695-0.4487305,1-1,1H1V19c0,0.5512695,0.4487305,1,1,1h20   c0.5512695,0,1-0.4487305,1-1V5C23,4.4487305,22.5512695,4,22,4z" fill="#010101" opacity="0.1"/><linearGradient gradientUnits="userSpaceOnUse" id="SVGID_1_" x1="-0.7076151" x2="24.7076149" y1="6.0743418" y2="17.9256592"><stop offset="0" style="stop-color:#FFFFFF;stop-opacity:0.2"/><stop offset="1" style="stop-color:#FFFFFF;stop-opacity:0"/></linearGradient><path d="M22,3H2C0.8974609,3,0,3.8969727,0,5v14c0,1.1030273,0.8974609,2,2,2h20   c1.1025391,0,2-0.8969727,2-2V5C24,3.8969727,23.1025391,3,22,3z" fill="url(#SVGID_1_)"/></g><g/><g/><g/><g/><g/><g/><g/><g/><g/><g/><g/><g/><g/><g/><g/></svg>