<?xml version="1.0" ?><svg enable-background="new 0 0 24 24" id="Layer_1" version="1.1" viewBox="0 0 24 24" xml:space="preserve" xmlns="http://www.w3.org/2000/svg" xmlns:xlink="http://www.w3.org/1999/xlink"><g><path d="M22,3H2C0.8969727,3,0,3.8969727,0,5v14c0,1.1030273,0.8969727,2,2,2h20c1.1030273,0,2-0.8969727,2-2V5   C24,3.8969727,23.1030273,3,22,3z" fill="#303C42"/><path d="M23,19c0,0.5512695-0.4487305,1-1,1H2c-0.5512695,0-1-0.4487305-1-1V5c0-0.5512695,0.4487305-1,1-1h20   c0.5512695,0,1,0.4487305,1,1V19z" fill="#775CA7"/><path d="M11.4360962,13.3561401c-0.1781616,0.0991821-0.3691406,0.1433105-0.571228,0.1359253   c-0.2240601-0.0091553-0.4040527-0.1028442-0.5123901-0.3012085c-0.1635132-0.2975464-0.1690063-0.6152954-0.0845337-0.9348755   c0.0863647-0.3269653,0.3214722-0.4940796,0.6594238-0.4849243c0.1873169,0.0054932,0.3636475,0.0569458,0.5289307,0.1616211   c0.0808716-0.1707764,0.1598511-0.3361206,0.2406616-0.5087891c-0.0385742-0.0202026-0.0716553-0.0404053-0.1065674-0.0568848   c-0.3232422-0.15979-0.664856-0.189209-1.013855-0.1340942c-0.506958,0.0808105-0.8761597,0.3471069-1.0524292,0.8393555   c-0.1286011,0.3600464-0.1286011,0.729187-0.0128784,1.0947266c0.12854,0.4040527,0.3948975,0.6777344,0.7952881,0.8154907   c0.3104248,0.1065674,0.6300049,0.1083984,0.949585,0.0385742c0.1653442-0.0349121,0.3195801-0.0991821,0.4610596-0.2020264   c-0.0753174-0.1653442-0.1506348-0.3251343-0.2259521-0.4904175   C11.4691772,13.3396606,11.4508057,13.3469849,11.4360962,13.3561401z" fill="#303C42"/><path d="M5.5879517,12.559021c-0.0844727-0.1230469-0.19104-0.2277832-0.2883301-0.3416138   c0.0202026-0.0055542,0.0477295-0.0110474,0.0734253-0.0183716c0.3783569-0.0991821,0.6612549-0.3104248,0.8045044-0.6832886   c0.0789795-0.2038574,0.0973511-0.4169312,0.0789795-0.633667c-0.0385742-0.4555054-0.2460938-0.8063354-0.6795654-0.9790039   C5.060791,9.6955566,4.5336914,9.7139282,4.013855,9.8994141c-0.3214111,0.1138916-0.5197754,0.3526611-0.5932617,0.6851196   c-0.0238647,0.1102295-0.031189,0.222229-0.0458984,0.3416138c-0.1157227,0-0.2351074,0-0.3746948,0   c0.2810059,0.2351074,0.5455322,0.4555054,0.8118286,0.6796265c0.2645264-0.2259521,0.5253296-0.4463501,0.7843018-0.6685791   c-0.0018311-0.0054932-0.0054932-0.0110474-0.0073242-0.0165405c-0.1469727,0-0.2938843,0-0.4390259,0   c-0.0128174-0.2203979,0.0863647-0.3692017,0.2883911-0.4334717c0.2001953-0.062439,0.4058838-0.0697632,0.6098022-0.03125   c0.2203979,0.0422974,0.3526611,0.1818848,0.3912354,0.4041138c0.0091553,0.0477295,0.0146484,0.09552,0.0183716,0.1432495   c0.0256958,0.3104248-0.1231079,0.5675659-0.3967896,0.6906128c-0.126709,0.0569458-0.2626343,0.0734863-0.3985596,0.0734863   c-0.3985596,0-0.7952881,0-1.1938477,0c-0.0275879,0-0.0551147,0-0.0863647,0c0,0.7512207,0,1.4932861,0,2.2445068   c0.2645264,0,0.5253296,0,0.7935181,0c0-0.5565796,0-1.109436,0-1.6585693   c0.2148438-0.0385742,0.3838501,0.0256958,0.5124512,0.1873169c0.0863037,0.1083984,0.1744385,0.2149048,0.2497559,0.3306274   c0.2351074,0.3599854,0.4665527,0.7218018,0.696106,1.0836792C5.663269,14.0008545,5.692627,14.015564,5.7440796,14.015564   c0.2442627-0.0018311,0.4904175,0,0.7346802,0c0.0202026,0,0.0385742,0,0.0734863,0   c-0.0863037-0.1322632-0.1634521-0.2498169-0.2424316-0.3692017C6.072876,13.2845459,5.8341064,12.9190063,5.5879517,12.559021z" fill="#303C42"/><path d="M8.5046997,11.3026733c-0.2094116-0.0899658-0.4316406-0.1119995-0.6575317-0.0899658   c-0.5032959,0.0458984-0.8706665,0.2938843-1.0855103,0.7548828c-0.1506348,0.3251343-0.1653442,0.6704102-0.0991821,1.0175781   c0.1028442,0.5289307,0.4058838,0.8834229,0.9330444,1.0230103c0.3048706,0.0808716,0.6134644,0.0716553,0.920166,0.0128784   c0.1984253-0.0367432,0.3820801-0.1138916,0.5565796-0.2203979c-0.0808105-0.15979-0.157959-0.315918-0.2387695-0.475708   c-0.0330811,0.0165405-0.0643311,0.031189-0.09552,0.0458984c-0.2387695,0.1193848-0.4922485,0.1671753-0.758606,0.1340942   c-0.3195801-0.0404053-0.5895996-0.3765259-0.5491943-0.696106c0.571228,0,1.1424561,0,1.7210693,0   c0.0164795-0.2516479,0.0183716-0.4922485-0.0385742-0.727356C9.0300293,11.7306519,8.8499756,11.4533081,8.5046997,11.3026733z    M7.4191895,12.2982178c0.031189-0.1928711,0.0844727-0.3710327,0.2571411-0.4775391   c0.1744995-0.1065674,0.3599854-0.1138916,0.539978-0.0128784c0.1414185,0.0808105,0.2296143,0.2883911,0.2130737,0.4922485   C8.0950928,12.3000488,7.7626343,12.3000488,7.4191895,12.2982178z" fill="#303C42"/><path d="M14.4796143,11.3596191c0-0.0275269,0-0.0551147,0-0.0844727c-0.2516479,0-0.4940796,0-0.7457275,0   c0,0.0293579,0,0.0569458,0,0.0844727c0,0.5602417,0,1.1185913,0,1.678772c0,0.0275879,0.0018311,0.0606079-0.0128784,0.0789795   c-0.1303711,0.1635132-0.284668,0.2993774-0.5032349,0.3287964c-0.2130737,0.0275269-0.3618774-0.0734863-0.3967285-0.2718506   c-0.0073853-0.0477295-0.0092163-0.09552-0.0092163-0.1450806c0-0.5546875,0-1.109375,0-1.6641235   c0-0.0293579,0-0.0587158,0-0.0899658c-0.2498169,0-0.4922485,0-0.7420044,0c0,0.0293579,0,0.0569458,0,0.0844727   c0,0.5932617-0.0018921,1.1865234,0,1.7816162c0,0.0863647,0.0054932,0.1726685,0.0146484,0.2572021   c0.0349121,0.3121948,0.2259521,0.5601807,0.505127,0.6281128c0.4260864,0.1029053,0.7989502,0.0055542,1.1075439-0.3140869   c0.0183716-0.0202026,0.0385742-0.0404053,0.062439-0.0661011c0.0183716,0.1248779,0.0367432,0.2406006,0.0551147,0.3526611   c0.253479,0,0.4922485,0,0.7236938,0c-0.0183716-0.2056885-0.0514526-0.4096069-0.0532837-0.6134644   C14.4777832,12.7114868,14.4814453,12.0355225,14.4796143,11.3596191z" fill="#303C42"/><path d="M20.3259277,11.2751465c-0.0569458-0.0018311-0.0808105,0.0183716-0.09552,0.0698242   c-0.1690063,0.5565186-0.3416138,1.1130371-0.5142822,1.6713867c-0.0073242,0.0220337-0.0183716,0.0422363-0.0349121,0.0844727   c-0.0183716-0.0404053-0.0293579-0.0587769-0.0367432-0.0789795c-0.0513916-0.1542358-0.1046753-0.3103638-0.1561279-0.4646606   c-0.1377563-0.4059448-0.2717896-0.8136597-0.411377-1.2177734c-0.0073853-0.0238647-0.0385742-0.0587769-0.0569458-0.0606079   c-0.2443237-0.0036621-0.4904175-0.0036621-0.7420654-0.0036621c0.0110474,0.0349121,0.0220337,0.062439,0.03125,0.0900269   c0.3232422,0.8411865,0.6446533,1.6842651,0.9661255,2.5254517c0.0109863,0.0257568,0.0183716,0.0606689,0.0109863,0.0845337   c-0.0477295,0.1359253-0.09552,0.2699585-0.1542969,0.4003906c-0.0697632,0.157959-0.1854858,0.2681885-0.3599854,0.3085938   c-0.1340942,0.031189-0.2700195,0.0238647-0.4040527,0.0091553c-0.0220947-0.0018311-0.0606079,0.0128784-0.0625,0.0238647   c-0.0348511,0.1781616-0.0661011,0.3563232-0.09729,0.538208c0.031189,0.0073242,0.0568848,0.0146484,0.0844727,0.0202026   c0.1854858,0.0348511,0.3710327,0.0366821,0.5583496,0.0146484c0.2553101-0.0293579,0.475708-0.1230469,0.6520386-0.3121948   c0.1690063-0.1781616,0.2718506-0.3948975,0.3581543-0.6208496L21,11.2751465c-0.0275269,0-0.0532837,0-0.0789795,0   C20.7244873,11.2751465,20.526123,11.2788086,20.3259277,11.2751465z" fill="#303C42"/><path d="M15.8093872,11.6130981c0-0.1120605,0-0.2240601,0-0.3361206c-0.2498169,0-0.4940796,0-0.7401733,0   c0,0.9091797,0,1.8146973,0,2.7220459c0.2460938,0,0.4885254,0,0.7420044,0c0-0.0294189,0-0.0532837,0-0.0789795   c0-0.5271606,0-1.0542603,0-1.5814209c0-0.0256958-0.0036621-0.0551147,0.0073853-0.0734863   c0.1065063-0.1836548,0.2442627-0.3306274,0.4591675-0.3838501c0.1377563-0.0330811,0.2718506-0.0165405,0.4096069,0.0422363   c0.0587158-0.2185669,0.1174927-0.4298096,0.1781616-0.6502075C16.4265137,11.1245117,16.0775757,11.229248,15.8093872,11.6130981z   " fill="#303C42"/><path d="M17.2126465,13.9971924c0.2516479,0,0.4959106,0,0.7438965,0c0-1.3444824,0-2.6834717,0-4.0224609   c-0.2516479,0-0.4977417,0-0.7438965,0C17.2126465,11.3192139,17.2126465,12.6582031,17.2126465,13.9971924z" fill="#303C42"/><path d="M22,4h-0.5v13.5c0,0.5512695-0.4487305,1-1,1H1V19c0,0.5512695,0.4487305,1,1,1h20   c0.5512695,0,1-0.4487305,1-1V5C23,4.4487305,22.5512695,4,22,4z" fill="#010101" opacity="0.1"/><linearGradient gradientUnits="userSpaceOnUse" id="SVGID_1_" x1="-0.7076802" x2="24.7076797" y1="6.0743113" y2="17.9256878"><stop offset="0" style="stop-color:#FFFFFF;stop-opacity:0.2"/><stop offset="1" style="stop-color:#FFFFFF;stop-opacity:0"/></linearGradient><path d="M22,3H2C0.8969727,3,0,3.8969727,0,5v14c0,1.1030273,0.8969727,2,2,2h20   c1.1030273,0,2-0.8969727,2-2V5C24,3.8969727,23.1030273,3,22,3z" fill="url(#SVGID_1_)"/></g><g/><g/><g/><g/><g/><g/><g/><g/><g/><g/><g/><g/><g/><g/><g/></svg>