<?xml version="1.0" ?><svg enable-background="new 0 0 24 24" id="Layer_1" version="1.1" viewBox="0 0 24 24" xml:space="preserve" xmlns="http://www.w3.org/2000/svg" xmlns:xlink="http://www.w3.org/1999/xlink"><g><path clip-rule="evenodd" d="M22,3H2C0.8969727,3,0,3.8969727,0,5v14   c0,1.1030273,0.8969727,2,2,2h20c1.1030273,0,2-0.8969727,2-2V5C24,3.8969727,23.1030273,3,22,3z" fill="#303C42" fill-rule="evenodd"/><path clip-rule="evenodd" d="M23,19c0,0.5512695-0.4487305,1-1,1H2   c-0.5512695,0-1-0.4487305-1-1V5c0-0.5512695,0.4487305-1,1-1h20c0.5512695,0,1,0.4487305,1,1V19z" fill="#FDD837" fill-rule="evenodd"/><rect clip-rule="evenodd" fill="#303C42" fill-rule="evenodd" height="4.03302" width="0.1598511" x="20.8401489" y="10.0377197"/><rect clip-rule="evenodd" fill="#303C42" fill-rule="evenodd" height="4.0330811" width="0.1598511" x="18.909729" y="10.0253906"/><polygon clip-rule="evenodd" fill="#303C42" fill-rule="evenodd" points="4.8879395,11.1685181 4.7198486,10.0327759    3.9724121,10.0327759 3.8043213,11.1385498 3.6387329,10.0327759 3,10.0327759 3.3853149,11.8287354 4.1818848,11.8287354    4.3422241,10.6656494 4.505188,11.8287354 5.2888794,11.8287354 5.6690063,10.0327759 5.0560913,10.0327759  "/><polygon clip-rule="evenodd" fill="#303C42" fill-rule="evenodd" points="6.7506104,11.149353 7.4916382,11.149353    7.4916382,10.6872559 6.7506104,10.6872559 6.7506104,10.494873 7.5105591,10.494873 7.5105591,10.0327759 5.9764404,10.0327759    5.9764404,11.8287354 7.5361938,11.8287354 7.5361938,11.3616943 6.7506104,11.3616943  "/><path clip-rule="evenodd" d="M8.7647095,11.8591919   c0.5766602,0,0.8905029-0.2060547,0.8905029-0.5858154c0-0.3271484-0.1838989-0.4241943-0.6431274-0.5787964   c-0.2453003-0.0826416-0.3875122-0.078186-0.3875122-0.203186c0-0.0673828,0.0430908-0.116394,0.1456299-0.116394   c0.1212158,0,0.1801758,0.0802002,0.1747437,0.197998h0.6624756v-0.0756226c0-0.3171997-0.2869263-0.5084839-0.8164063-0.5084839   c-0.5822144,0-0.8912964,0.2261963-0.8912964,0.5784302c0,0.2523193,0.1566772,0.3983765,0.4782104,0.4906006   c0.2355347,0.0675659,0.3710327,0.123291,0.4733276,0.1685181c0.0541382,0.0239258,0.0720825,0.0773315,0.0645752,0.1279907   c-0.010437,0.0698853-0.0524902,0.112915-0.1588745,0.112915c-0.1303101,0-0.1669312-0.078186-0.1669312-0.2005615v-0.0149536   H7.8720093c-0.0028076,0.0223999-0.0028076,0.0448608-0.0028076,0.0648804   C7.8692017,11.6589355,8.1797485,11.8591919,8.7647095,11.8591919z" fill="#303C42" fill-rule="evenodd"/><polygon clip-rule="evenodd" fill="#303C42" fill-rule="evenodd" points="10.3255615,11.8287354 11.0853271,11.8287354    11.0853271,10.5123901 11.5581055,10.5123901 11.5581055,10.0327759 9.8499756,10.0327759 9.8499756,10.5123901    10.3255615,10.5123901  "/><polygon clip-rule="evenodd" fill="#303C42" fill-rule="evenodd" points="12.6591797,11.149353 13.3930054,11.149353    13.3930054,10.6872559 12.6591797,10.6872559 12.6591797,10.494873 13.4191284,10.494873 13.4191284,10.0327759    11.8849487,10.0327759 11.8849487,11.8287354 13.4447632,11.8287354 13.4447632,11.3616943 12.6591797,11.3616943  "/><path clip-rule="evenodd" d="M15.7131348,11.3167114   c-0.0336914-0.2600098-0.1325073-0.357605-0.3336182-0.397522c0.2049561-0.050354,0.3584595-0.2049561,0.3584595-0.4205933   c0-0.359314-0.2264404-0.4658203-0.772522-0.4658203h-1.0454712v1.7959595h0.7475586v-0.6397705   c0.0249023-0.0025024,0.0496826-0.0025024,0.0690308-0.0025024c0.1792603,0,0.2059937,0.0651245,0.2344971,0.2601318   l0.0193481,0.1323853c0.0109863,0.0799561,0.03302,0.1624146,0.0578613,0.2497559h0.758667   c-0.0330811-0.1322632-0.0579834-0.2397461-0.0689697-0.3197021L15.7131348,11.3167114z M14.7227783,10.7504883   c-0.0165405,0-0.0358276,0-0.0552368-0.0025635v-0.3129883c0.0332031-0.0025024,0.06073-0.0025024,0.0855713-0.0025024   c0.168335,0,0.2427979,0.0410156,0.2427979,0.1525269C14.9959106,10.6990967,14.9020386,10.7504883,14.7227783,10.7504883z" fill="#303C42" fill-rule="evenodd"/><polygon clip-rule="evenodd" fill="#303C42" fill-rule="evenodd" points="16.7697754,10.8041992 17.1705933,11.8287354    18.0396118,11.8287354 18.0396118,10.0327759 17.4525146,10.0327759 17.4525146,10.9471436 17.1207886,10.0327759    16.1826172,10.0327759 16.1826172,11.8287354 16.7697754,11.8287354  "/><polygon clip-rule="evenodd" fill="#303C42" fill-rule="evenodd" points="11.5077515,13.0906372 11.1760254,12.1762695    10.237854,12.1762695 10.237854,13.972229 10.8249512,13.972229 10.8249512,12.9476318 11.2258301,13.972229 12.0947876,13.972229    12.0947876,12.1762695 11.5077515,12.1762695  "/><polygon clip-rule="evenodd" fill="#303C42" fill-rule="evenodd" points="17.4706421,13.0906372 17.138916,12.1762695    16.2007446,12.1762695 16.2007446,13.972229 16.7878418,13.972229 16.7878418,12.9476318 17.1887207,13.972229    18.0577393,13.972229 18.0577393,12.1762695 17.4706421,12.1762695  "/><path clip-rule="evenodd" d="M9.0090332,13.2858276   c0,0.1469727-0.0661011,0.2268677-0.1762085,0.2268677c-0.1156616,0-0.1762695-0.0749512-0.1762695-0.2268677v-1.1095581H7.913208   v1.0820313c0,0.2069092,0.0137329,0.3692627,0.1734009,0.5241699c0.1652222,0.1598511,0.4047852,0.2202148,0.7462158,0.2202148   c0.6278076,0,0.9223633-0.2351685,0.9223633-0.7443848v-1.0820313H9.0090332V13.2858276z" fill="#303C42" fill-rule="evenodd"/><rect clip-rule="evenodd" fill="#303C42" fill-rule="evenodd" height="1.7960205" width="0.7653198" x="12.5831909" y="12.1762695"/><path clip-rule="evenodd" d="M14.7747803,12.1201782   c-0.6582642,0-1.0280762,0.3415527-1.0280762,0.9436035c0,0.5969849,0.3670044,0.9364624,1.0028076,0.9364624   c0.6807251,0,1.0448608-0.3292847,1.0448608-0.9389648C15.7943726,12.461731,15.4274292,12.1201782,14.7747803,12.1201782z    M14.769104,13.5854492c-0.173645,0-0.2184448-0.1700439-0.2184448-0.515686c0-0.3626709,0.0391235-0.5326538,0.2212524-0.5326538   c0.1764526,0,0.2185059,0.1558228,0.2185059,0.4958496C14.9904175,13.4125977,14.9456177,13.5854492,14.769104,13.5854492z" fill="#303C42" fill-rule="evenodd"/><path d="M22,4h-0.5v13.5c0,0.5512695-0.4487305,1-1,1H1V19c0,0.5512695,0.4487305,1,1,1h20   c0.5512695,0,1-0.4487305,1-1V5C23,4.4487305,22.5512695,4,22,4z" fill="#010101" opacity="0.1"/><linearGradient gradientUnits="userSpaceOnUse" id="SVGID_1_" x1="-0.7076802" x2="24.7076797" y1="6.0743113" y2="17.9256878"><stop offset="0" style="stop-color:#FFFFFF;stop-opacity:0.2"/><stop offset="1" style="stop-color:#FFFFFF;stop-opacity:0"/></linearGradient><path d="M22,3H2C0.8969727,3,0,3.8969727,0,5v14c0,1.1030273,0.8969727,2,2,2h20   c1.1030273,0,2-0.8969727,2-2V5C24,3.8969727,23.1030273,3,22,3z" fill="url(#SVGID_1_)"/></g><g/><g/><g/><g/><g/><g/><g/><g/><g/><g/><g/><g/><g/><g/><g/></svg>