<?xml version="1.0" ?><!DOCTYPE svg  PUBLIC '-//W3C//DTD SVG 1.1//EN'  'http://www.w3.org/Graphics/SVG/1.1/DTD/svg11.dtd'><svg height="140px" id="Layer_1" style="enable-background:new 0 0 140 140;" version="1.1" viewBox="0 0 140 140" width="140px" xml:space="preserve" xmlns="http://www.w3.org/2000/svg" xmlns:xlink="http://www.w3.org/1999/xlink"><style type="text/css">
<![CDATA[
	.st0{fill:#47BBF4;}
	.st1{fill:#7BEA06;}
	.st2{fill:#49E500;}
	.st3{fill:#7ED1B5;}
	.st4{fill:#1083DD;}
	.st5{fill:#7FBA0D;}
	.st6{fill:#E01726;}
	.st7{fill:#129AFF;}
	.st8{fill:#E2102E;}
	.st9{fill:#E2137A;}
	.st10{fill:#E2573B;}
	.st11{fill:#E2A60E;}
	.st12{fill:#E3443A;}
	.st13{fill:#1558BA;}
	.st14{fill:#159B81;}
	.st15{fill:#1644B7;}
	.st16{fill:#168BF4;}
	.st17{fill:#E51F32;}
	.st18{fill:#E6EFE8;}
	.st19{fill:#187FB8;}
	.st20{fill:#4C5054;}
	.st21{fill:#4C822A;}
	.st22{fill:#E8F9F8;}
	.st23{fill:#4F5459;}
	.st24{fill:#4FCCED;}
	.st25{fill:#B0C6C4;}
	.st26{fill:none;stroke:#33363A;stroke-width:3;stroke-linecap:round;stroke-linejoin:round;stroke-miterlimit:10;}
	.st27{fill:#859392;}
	.st28{fill:#1A68E5;}
	.st29{fill:#1A70F9;}
	.st30{fill:#1B8EED;}
	.st31{fill:#EA4606;}
	.st32{fill:#EA7B0C;}
	.st33{fill:#EAF4F9;}
	.st34{fill:#B70E10;}
	.st35{fill:#1CB1E6;}
	.st36{fill:#1CDDF7;}
	.st37{fill:#EDC211;}
	.st38{fill:#EF8114;}
	.st39{fill:#55932C;}
	.st40{fill:#569FEF;}
	.st41{fill:#BA30CE;}
	.st42{fill:#BA3A3A;}
	.st43{fill:#8CF41E;}
	.st44{fill:#59C96E;}
	.st45{fill:#8E0919;}
	.st46{fill:#20B5EC;}
	.st47{fill:#21CE52;}
	.st48{fill:#21D844;}
	.st49{fill:#F17250;}
	.st50{fill:#2364CE;}
	.st51{fill:#F2303F;}
	.st52{fill:#F24444;}
	.st53{fill:#F26B95;}
	.st54{fill:#F2A775;}
	.st55{fill:#2463FF;}
	.st56{fill:#24A9E6;}
	.st57{fill:#24AEF0;}
	.st58{fill:#F34B78;}
	.st59{fill:#25D600;}
	.st60{fill:#25D800;}
	.st61{fill:#F46300;}
	.st62{fill:#F4921E;}
	.st63{fill:#F4F1E6;}
	.st64{fill:#F72B2B;}
	.st65{fill:#F7441C;}
	.st66{fill:#F7851E;}
	.st67{fill:#5CAA4F;}
	.st68{fill:#F7A56D;}
	.st69{fill:#F7B257;}
	.st70{fill:#F7B92B;}
	.st71{fill:#F8571D;}
	.st72{fill:#F91D80;}
	.st73{fill:#F92E64;}
	.st74{fill:#F93838;}
	.st75{fill:#F9A121;}
	.st76{fill:#F9BD28;}
	.st77{fill:#F9D5AA;}
	.st78{fill:#5FB2A2;}
	.st79{fill:#9165B7;}
	.st80{fill:#95C675;}
	.st81{fill:#2A98F2;}
	.st82{fill:#2AC106;}
	.st83{fill:#C6232C;}
	.st84{fill:#C6402A;}
	.st85{fill:#FA7B7A;}
	.st86{fill:#FA9826;}
	.st87{fill:#2CC64D;}
	.st88{fill:#FB6620;}
	.st89{fill:#C7D5E0;}
	.st90{fill:#C8131A;}
	.st91{fill:#2DB487;}
	.st92{fill:#FC732D;}
	.st93{fill:#C8D8E8;}
	.st94{fill:#2ED3FF;}
	.st95{fill:#FF0DA9;}
	.st96{fill:#FF4743;}
	.st97{fill:#FF6155;}
	.st98{fill:#FF7639;}
	.st99{fill:#FF7676;}
	.st100{fill:#FF88AD;}
	.st101{fill:#FF9064;}
	.st102{fill:#FFA506;}
	.st103{fill:#FFBE8D;}
	.st104{fill:#FFEB5A;}
	.st105{fill:#FFF19C;}
	.st106{fill:#FFFDF5;}
	.st107{fill:#FFFFFF;}
	.st108{fill:#63C605;}
	.st109{fill:#64C0FF;}
	.st110{fill:#66A00A;}
	.st111{fill:#CAFFE9;}
	.st112{fill:#680719;}
	.st113{fill:none;stroke:#FCE2AE;stroke-width:3;stroke-linecap:round;stroke-linejoin:round;stroke-miterlimit:10;}
	.st114{fill:#CC2414;}
	.st115{fill:#CC4521;}
	.st116{fill:#9DEACE;}
	.st117{fill:#303030;}
	.st118{fill:#CE1721;}
	.st119{fill:#33363A;}
	.st120{fill:#337BD1;}
	.st121{fill:#6A7C7C;}
	.st122{fill:#37D660;}
	.st123{fill:#384948;}
	.st124{fill:#38B4F9;}
	.st125{fill:#6CA9EA;}
	.st126{fill:#6D8599;}
	.st127{fill:#0097E2;}
	.st128{fill:#00997C;}
	.st129{fill:#00A4DD;}
	.st130{fill:#0399FF;}
	.st131{fill:#D33F26;}
	.st132{fill:#0695ED;}
	.st133{fill:#0779EA;}
	.st134{fill:#079332;}
	.st135{fill:#D6381E;}
	.st136{fill:#3BAA00;}
	.st137{fill:#D6E5EA;}
	.st138{fill:#D6E7EA;}
	.st139{fill:#08A548;}
	.st140{fill:#08BC26;}
	.st141{fill:#D80B0B;}
	.st142{fill:#D8532B;}
	.st143{fill:#3DC8F9;}
	.st144{fill:#3E77BF;}
	.st145{fill:#3E8AF7;}
	.st146{fill:#D9E5ED;}
	.st147{fill:#72818E;}
	.st148{fill:#0A78DD;}
	.st149{fill:#0A8CDD;}
	.st150{fill:#A52D21;}
	.st151{fill:#76CEFF;}
	.st152{fill:#76DB00;}
	.st153{fill:#0C86EA;}
	.st154{fill:#DB0F4E;}
	.st155{fill:#A7B7B6;}
	.st156{fill:#0DBA5B;}
	.st157{fill:#79B259;}
	.st158{fill:#0E73D8;}
	.st159{fill:#0E78D8;}
	.st160{fill:#0E8971;}
	.st161{fill:#A981D3;}
	.st162{fill:#DD4B4B;}
	.st163{fill:#4087ED;}
	.st164{fill:#40A557;}
	.st165{fill:#40E269;}
	.st166{fill:#DFC7FF;}
	.st167{fill:#DFEFEF;}
	.st168{fill:#44FCB6;}
]]>
</style><g><g><g><g><path class="st140" d="M33.944,43.831v55.15c0,4.38,3.654,7.944,8.161,7.944h5.884c-0.202,0.664-0.309,1.356-0.309,2.087v15.878      c0,4.15,3.462,7.517,7.728,7.517s7.728-3.367,7.728-7.517v-15.878c0-0.731-0.112-1.423-0.31-2.087h14.35      c-0.195,0.664-0.304,1.356-0.304,2.087v15.878c0,4.15,3.458,7.517,7.723,7.517c4.272,0,7.739-3.367,7.739-7.517v-15.878      c0-0.731-0.12-1.423-0.321-2.087h5.893c4.505,0,8.152-3.563,8.152-7.944v-55.15h-71.56H33.944z"/><polygon class="st2" points="33.944,43.831 33.944,69.547 106.058,69.547 106.058,43.831 34.498,43.831     "/><path class="st140" d="M21.062,43.831c-4.27,0-7.729,3.365-7.729,7.516v32.176c0,4.15,3.46,7.517,7.729,7.517      c4.265,0,7.729-3.367,7.729-7.517V51.347C28.791,47.196,25.327,43.831,21.062,43.831z"/><path class="st2" d="M13.333,51.347v18.2h15.458v-18.2c0-4.15-3.464-7.516-7.729-7.516      C16.793,43.831,13.333,47.196,13.333,51.347z"/><path class="st2" d="M105.907,38.819c-1.36-13.495-12.3-24.564-26.795-27.888C76.2,10.321,73.15,9.987,70,9.987      c-3.148,0-6.202,0.335-9.119,0.947C46.39,14.261,35.454,25.327,34.095,38.819H105.907z M85.457,23.872      c2.134,0,3.864,1.675,3.864,3.754c0,2.08-1.73,3.763-3.864,3.763c-2.137,0-3.866-1.684-3.866-3.763      C81.591,25.547,83.32,23.872,85.457,23.872z M54.549,23.872c2.134,0,3.864,1.675,3.864,3.754c0,2.08-1.73,3.763-3.864,3.763      c-2.14,0-3.865-1.684-3.865-3.763C50.684,25.547,52.409,23.872,54.549,23.872z"/><path class="st140" d="M118.945,43.831c-4.273,0-7.729,3.365-7.729,7.516v32.176c0,4.15,3.456,7.517,7.729,7.517      c4.266,0,7.723-3.367,7.723-7.517V51.347C126.668,47.196,123.211,43.831,118.945,43.831z"/><path class="st2" d="M118.945,43.831c-4.273,0-7.729,3.365-7.729,7.516v18.2h15.452v-18.2      C126.668,47.196,123.211,43.831,118.945,43.831z"/></g><g><path class="st26" d="M33.944,43.831v55.15c0,4.38,3.654,7.944,8.161,7.944h5.884c-0.202,0.664-0.309,1.356-0.309,2.087v15.878      c0,4.15,3.462,7.517,7.728,7.517s7.728-3.367,7.728-7.517v-15.878c0-0.731-0.112-1.423-0.31-2.087h14.35      c-0.195,0.664-0.304,1.356-0.304,2.087v15.878c0,4.15,3.458,7.517,7.723,7.517c4.272,0,7.739-3.367,7.739-7.517v-15.878      c0-0.731-0.12-1.423-0.321-2.087h5.893c4.505,0,8.152-3.563,8.152-7.944v-55.15h-71.56H33.944z"/><path class="st26" d="M21.062,43.831c-4.27,0-7.729,3.365-7.729,7.516v32.176c0,4.15,3.46,7.517,7.729,7.517      c4.265,0,7.729-3.367,7.729-7.517V51.347C28.791,47.196,25.327,43.831,21.062,43.831z"/><path class="st26" d="M105.907,38.819c-1.36-13.495-12.3-24.564-26.795-27.888C76.2,10.321,73.15,9.987,70,9.987      c-3.148,0-6.202,0.335-9.119,0.947C46.39,14.261,35.454,25.327,34.095,38.819H105.907z M85.457,23.872      c2.134,0,3.864,1.675,3.864,3.754c0,2.08-1.73,3.763-3.864,3.763c-2.137,0-3.866-1.684-3.866-3.763      C81.591,25.547,83.32,23.872,85.457,23.872z M54.549,23.872c2.134,0,3.864,1.675,3.864,3.754c0,2.08-1.73,3.763-3.864,3.763      c-2.14,0-3.865-1.684-3.865-3.763C50.684,25.547,52.409,23.872,54.549,23.872z"/><path class="st26" d="M118.945,43.831c-4.273,0-7.729,3.365-7.729,7.516v32.176c0,4.15,3.456,7.517,7.729,7.517      c4.266,0,7.723-3.367,7.723-7.517V51.347C126.668,47.196,123.211,43.831,118.945,43.831z"/></g><g><line class="st26" x1="45.534" x2="49.013" y1="7.593" y2="15.618"/><line class="st26" x1="94.466" x2="90.989" y1="7.593" y2="15.618"/></g><g><g><g><line class="st26" x1="26.604" x2="25.281" y1="114.812" y2="116.135"/><line class="st26" x1="22.407" x2="22.469" y1="119.008" y2="118.948"/></g><g><g><line class="st26" x1="38.955" x2="38.955" y1="122.943" y2="124.812"/><line class="st26" x1="38.956" x2="38.955" y1="128.879" y2="128.792"/></g><g><line class="st26" x1="18.474" x2="16.602" y1="102.459" y2="102.459"/><line class="st26" x1="12.536" x2="12.623" y1="102.459" y2="102.459"/></g></g></g><g><g><line class="st26" x1="113.396" x2="114.72" y1="114.626" y2="115.949"/><line class="st26" x1="117.593" x2="117.532" y1="118.824" y2="118.761"/></g><g><g><line class="st26" x1="121.527" x2="123.396" y1="102.275" y2="102.275"/><line class="st26" x1="127.464" x2="127.376" y1="102.274" y2="102.274"/></g><g><line class="st26" x1="101.044" x2="101.044" y1="122.756" y2="124.629"/><line class="st26" x1="101.044" x2="101.044" y1="128.694" y2="128.606"/></g></g></g></g></g><g><line class="st26" x1="56.352" x2="59.352" y1="61.481" y2="61.481"/><line class="st26" x1="68.5" x2="71.5" y1="61.481" y2="61.481"/><line class="st26" x1="80.648" x2="83.648" y1="61.481" y2="61.481"/></g></g><line class="st26" x1="57.848" x2="82.152" y1="106.925" y2="106.925"/></g></svg>