<?xml version="1.0" ?><svg data-name="Layer 1" id="Layer_1" viewBox="0 0 32 32" xmlns="http://www.w3.org/2000/svg"><defs><style>.cls-1{fill:#edbe9d;}.cls-2{fill:#f9dcc4;}.cls-3{fill:#fff2e9;}.cls-4{fill:#3d405b;}</style></defs><rect class="cls-1" height="25" rx="2.5" width="19" x="4" y="2"/><rect class="cls-2" height="25" rx="2.5" width="19" x="9" y="5"/><path class="cls-1" d="M26,20v4a4,4,0,0,1-4,4H14a1,1,0,0,0-1,1h0a1,1,0,0,0,1,1H25.5A2.5,2.5,0,0,0,28,27.5V20a1,1,0,0,0-1-1h0A1,1,0,0,0,26,20Z"/><path class="cls-3" d="M18,5h7a1,1,0,0,1,0,2H18a1,1,0,0,1,0-2Z"/><path class="cls-3" d="M9,13.5v-2a1,1,0,0,1,2,0v2a1,1,0,0,1-2,0Z"/><path class="cls-3" d="M9,24.5v-8a1,1,0,0,1,2,0v8a1,1,0,0,1-2,0Z"/><path class="cls-4" d="M25.5,5H23V4.5A2.5,2.5,0,0,0,20.5,2H6.5A2.5,2.5,0,0,0,4,4.5v20A2.5,2.5,0,0,0,6.5,27H9v.5A2.5,2.5,0,0,0,11.5,30h14A2.5,2.5,0,0,0,28,27.5V7.5A2.5,2.5,0,0,0,25.5,5ZM6.5,26A1.5,1.5,0,0,1,5,24.5V4.5A1.5,1.5,0,0,1,6.5,3h14A1.5,1.5,0,0,1,22,4.5V5H11.5A2.5,2.5,0,0,0,9,7.5V26ZM27,27.5A1.5,1.5,0,0,1,25.5,29h-14A1.5,1.5,0,0,1,10,27.5V7.5A1.5,1.5,0,0,1,11.5,6h14A1.5,1.5,0,0,1,27,7.5Z"/><path class="cls-4" d="M23.5,10.6a2.54,2.54,0,0,0-1.52.48,1.66,1.66,0,0,1-2,0,2.57,2.57,0,0,0-1.52-.48,2.51,2.51,0,0,0-1.52.48,1.66,1.66,0,0,1-2,0,2.54,2.54,0,0,0-1.52-.48.5.5,0,0,0,0,1,1.51,1.51,0,0,1,1,.32A2.54,2.54,0,0,0,16,12.4a2.57,2.57,0,0,0,1.52-.48,1.66,1.66,0,0,1,2,0A2.54,2.54,0,0,0,21,12.4a2.57,2.57,0,0,0,1.52-.48,1.51,1.51,0,0,1,1-.32.5.5,0,0,0,0-1Z"/><path class="cls-4" d="M23.5,16.6a2.54,2.54,0,0,0-1.52.48,1.66,1.66,0,0,1-2,0,2.57,2.57,0,0,0-1.52-.48,2.51,2.51,0,0,0-1.52.48,1.66,1.66,0,0,1-2,0,2.54,2.54,0,0,0-1.52-.48.5.5,0,0,0,0,1,1.51,1.51,0,0,1,1,.32A2.54,2.54,0,0,0,16,18.4a2.57,2.57,0,0,0,1.52-.48,1.66,1.66,0,0,1,2,0A2.54,2.54,0,0,0,21,18.4a2.57,2.57,0,0,0,1.52-.48,1.51,1.51,0,0,1,1-.32.5.5,0,0,0,0-1Z"/><path class="cls-4" d="M23.5,22.6a2.54,2.54,0,0,0-1.52.48,1.66,1.66,0,0,1-2,0,2.57,2.57,0,0,0-1.52-.48,2.51,2.51,0,0,0-1.52.48,1.66,1.66,0,0,1-2,0,2.54,2.54,0,0,0-1.52-.48.5.5,0,0,0,0,1,1.51,1.51,0,0,1,1,.32A2.54,2.54,0,0,0,16,24.4a2.57,2.57,0,0,0,1.52-.48,1.66,1.66,0,0,1,2,0A2.54,2.54,0,0,0,21,24.4a2.57,2.57,0,0,0,1.52-.48,1.51,1.51,0,0,1,1-.32.5.5,0,0,0,0-1Z"/></svg>