<?xml version="1.0" ?><!DOCTYPE svg  PUBLIC '-//W3C//DTD SVG 1.1//EN'  'http://www.w3.org/Graphics/SVG/1.1/DTD/svg11.dtd'><svg enable-background="new 0 0 128 128" id="Social_Icons" version="1.1" viewBox="0 0 128 128" xml:space="preserve" xmlns="http://www.w3.org/2000/svg" xmlns:xlink="http://www.w3.org/1999/xlink"><g id="_x36__stroke"><g id="Principle_1_"><rect clip-rule="evenodd" fill="none" fill-rule="evenodd" height="128" width="128"/><linearGradient gradientUnits="userSpaceOnUse" id="Principle_2_" x1="32.8499" x2="71.5166" y1="13.8675" y2="89.8675"><stop offset="0" style="stop-color:#C36AD5"/><stop offset="1" style="stop-color:#662CAA"/></linearGradient><path d="M64.449,90.052c5.451,0,9.869-4.391,9.869-9.808    c0-5.417-4.419-9.808-9.869-9.808s-9.869,4.391-9.869,9.808C54.579,85.661,58.998,90.052,64.449,90.052z M16.01,106.992L16,47.701    C16,21.356,37.49,0,64,0s48,21.356,48,47.701S90.958,95.402,64.449,95.402c-8.424,0-15.252-6.786-15.252-15.157    c0-8.371,6.829-15.157,15.252-15.157c9.662,0,17.047-7.784,17.047-17.386c0-9.602-7.833-17.386-17.495-17.386    c-9.662,0-17.495,7.784-17.495,17.384l0.011,65.143c0.003,14.69-16.116,18.703-24.92,12.039c2.582-1.769,4.274-4.728,4.274-8.08    C25.869,111.387,21.456,106.998,16.01,106.992z" fill="url(#Principle_2_)" id="Principle"/></g></g></svg>