<?xml version="1.0" ?><!DOCTYPE svg  PUBLIC '-//W3C//DTD SVG 1.1//EN'  'http://www.w3.org/Graphics/SVG/1.1/DTD/svg11.dtd'><svg enable-background="new 0 0 128 128" id="Social_Icons" version="1.1" viewBox="0 0 128 128" xml:space="preserve" xmlns="http://www.w3.org/2000/svg" xmlns:xlink="http://www.w3.org/1999/xlink"><g id="_x35__stroke"><g id="Tinder_1_"><rect clip-rule="evenodd" fill="none" fill-rule="evenodd" height="128" width="128"/><path clip-rule="evenodd" d="M67.359,0c1.118,0.863,2.088,1.924,3.156,2.853    c9.649,9.191,18.493,19.344,25.611,30.675c6.888,10.966,12.181,23.093,14.531,35.901c1.298,7.018,1.726,14.218,0.97,21.318    c-0.345,2.97-0.855,5.939-1.792,8.776c-1.315,4.114-3.041,8.113-5.408,11.729c-2.038,3.119-4.586,5.906-7.529,8.162    c-3.238,2.472-6.937,4.28-10.783,5.524c-4.784,1.543-9.797,2.306-14.794,2.721c-5.967,0.448-11.967,0.531-17.918-0.232    c-6.74-0.846-13.43-2.654-19.43-5.923c-5.556-3.019-10.438-7.449-13.578-13.023c-3.633-6.371-4.833-13.919-4.258-21.202    c0.592-7.714,3.025-15.196,6.247-22.181c2.794-6.006,6.214-11.696,10.011-17.104c3.238-4.579,6.723-8.975,10.537-13.09    c0.066-0.05,0.197-0.166,0.279-0.216c-0.066,3.467,0.263,6.951,1.249,10.286c1.003,3.401,2.696,6.603,4.948,9.34    c0.132,0.166,0.23,0.398,0.477,0.432c4.882-3.7,9.501-7.847,13.101-12.841c3.731-5.16,6.23-11.198,7.184-17.519    C71.435,16.208,70.35,7.698,67.359,0z" fill="#E34514" fill-rule="evenodd" id="Tinder"/></g></g></svg>