<?xml version="1.0" ?><svg viewBox="0 0 512 512" xmlns="http://www.w3.org/2000/svg"><defs><style>.cls-1{fill:#8bd0f7;}.cls-2{opacity:0.2;}.cls-3{fill:#3f456b;}.cls-4{opacity:0.3;}.cls-5{fill:#fff;}</style></defs><title/><g id="Colors"><g id="JWKyxu.tif"><path class="cls-1" d="M175,448.12H158.83c-.61-.08-1.22-.21-1.83-.23a276.61,276.61,0,0,1-55.61-7.43A279.8,279.8,0,0,1,18.57,406c-1.06-.66-2.09-1.36-3.13-2,26.09,2.57,51.7.76,76.87-6.29a196.59,196.59,0,0,0,68.91-34.94c-51.48-1.43-83.62-38.95-92.07-68.67a97.44,97.44,0,0,0,22,1.66,84.14,84.14,0,0,0,21.65-3.39c-55.48-12.69-80.06-62.12-78.33-98.17a98.11,98.11,0,0,0,44.4,12.19c-50.5-34.79-52.37-96.77-30.28-131.92a282.35,282.35,0,0,0,90.87,73.23,278.61,278.61,0,0,0,112.87,30c-.16-.8-.26-1.36-.38-1.91a98.22,98.22,0,0,1,.09-41.46c5.21-23.61,17.34-43,36.56-57.61C312,58.87,338.48,52.8,367.37,58c20.56,3.73,38.07,13.49,52.65,28.47a2,2,0,0,0,2.13.7,198,198,0,0,0,57.33-21.27l4.34-2.44c-7.94,23.58-22.38,41.44-43.35,54.69A200.86,200.86,0,0,0,497,102.69c-.47.74-.68,1.09-.91,1.43a197.34,197.34,0,0,1-47.17,48.78,2.17,2.17,0,0,0-1.19,2.09,246.16,246.16,0,0,1-.75,35.09,278.78,278.78,0,0,1-7.71,44.9,295.77,295.77,0,0,1-31.08,75.94c-19.13,32.79-43.6,60.84-74.06,83.6A263.71,263.71,0,0,1,245,437.88,247.26,247.26,0,0,1,209.77,445c-8.22,1-16.47,1.7-24.71,2.46C181.71,447.79,178.35,447.92,175,448.12Z"/></g><g class="cls-2"><path class="cls-3" d="M420.47,287.5S353,412,177,430c0,0-96,7-161-24,0,0,79,47,160,42S360.94,415,420.47,287.5Z"/></g><g class="cls-2"><path class="cls-3" d="M48,74S33,155,85,189c0,0,11,7,4,15s-23.67-8.33-23.67-8.33S12,151,48,74Z"/></g><g class="cls-2"><path class="cls-3" d="M35,194s17.94,74.09,79.68,81.08c0,0,13,1.31,10.31,11.6s-24.88,3.2-24.88,3.2S32,267,35,194Z"/></g><g class="cls-2"><path class="cls-3" d="M69.16,290.82S99,345,157,348c0,0,12,0,12,9,0,10.63-14,6-14,6S85,357,69.16,290.82Z"/></g><g class="cls-4"><path class="cls-5" d="M252,134s17-50,93-59c0,0,45-5,77,12,0,0-35-35.56-85.5-30.78S261,98,252,134Z"/></g><g class="cls-4"><path class="cls-5" d="M48,74S85,182,245,194c0,0,15,1,7-17C252,177,134,181,48,74Z"/></g><g class="cls-2"><path class="cls-3" d="M497,104s-27,23-53,31c0,0-13,4-10,12s12.83,5.91,21.41,1S491,116,497,104"/></g></g><g id="Lines"><g data-name="JWKyxu.tif" id="JWKyxu.tif-2"><path class="cls-3" d="M175,453.12H158.83a4.49,4.49,0,0,1-.64,0l-.72-.1-.63-.09a283.53,283.53,0,0,1-56.6-7.56A286.05,286.05,0,0,1,16,410.26c-.77-.47-1.51-1-2.26-1.46l-1-.64A5,5,0,0,1,15.93,399a203.29,203.29,0,0,0,75-6.13,189.66,189.66,0,0,0,56.62-26.34A103.07,103.07,0,0,1,95.8,342.81c-15.11-12.91-26.57-30.18-31.46-47.37a5,5,0,0,1,5.74-6.28,92.79,92.79,0,0,0,20.85,1.57l.9,0C49.06,272,27.77,229.34,29.46,193.93a5,5,0,0,1,7.39-4.15,93.93,93.93,0,0,0,25.36,9.53,102,102,0,0,1-30.64-58C27.52,117,32.3,91,44.34,71.78a5,5,0,0,1,8.1-.52,278.57,278.57,0,0,0,89.28,72A274.56,274.56,0,0,0,246.21,172.3a102.64,102.64,0,0,1,.94-39.05c5.49-24.91,18.41-45.26,38.4-60.5,24.36-18.57,52.19-25.17,82.72-19.63C389,56.87,407.23,66.59,422.6,82A193.75,193.75,0,0,0,477,61.57l4.34-2.43a5,5,0,0,1,7.18,6,104.12,104.12,0,0,1-28.71,44.63A196.67,196.67,0,0,0,495,98.11a5,5,0,0,1,6.22,7.25l-.41.66c-.24.39-.41.66-.59.92a203.18,203.18,0,0,1-47.42,49.31,251.73,251.73,0,0,1-.84,34.26,285,285,0,0,1-7.84,45.72,302.59,302.59,0,0,1-31.61,77.21,284,284,0,0,1-75.38,85.08A269.77,269.77,0,0,1,246.3,442.7a251,251,0,0,1-35.93,7.3c-6.83.83-13.76,1.46-20.47,2.06l-4.38.41c-2.4.22-4.79.34-7.11.47l-3.11.17Zm-15.82-10h15.66l3-.17c2.33-.12,4.52-.24,6.73-.44l4.4-.4c6.63-.61,13.48-1.23,20.16-2a241.17,241.17,0,0,0,34.51-7,259.57,259.57,0,0,0,87.47-42.54,273.83,273.83,0,0,0,72.73-82.11,292.29,292.29,0,0,0,30.56-74.66,275.19,275.19,0,0,0,7.57-44.1,242.26,242.26,0,0,0,.74-34.38,7.13,7.13,0,0,1,3.23-6.4,192.52,192.52,0,0,0,36.94-35.31,206.08,206.08,0,0,1-41.83,9.6A5,5,0,0,1,437.8,114c16.26-10.27,28.17-23.24,36.1-39.42a202.9,202.9,0,0,1-50.76,17.57A6.94,6.94,0,0,1,416.43,90c-14.09-14.49-30.9-23.58-49.95-27-27.65-5-52.83.95-74.86,17.74-18.06,13.76-29.74,32.17-34.71,54.7a93.61,93.61,0,0,0-.07,39.37c.08.4.16.79.25,1.27l.14.7a5,5,0,0,1-5.18,5.95,285,285,0,0,1-114.86-30.56,288,288,0,0,1-87.79-69c-8.23,16.38-11.21,37-8,56.55,3,17.91,12.37,43.3,40.27,62.53a5,5,0,0,1-3,9.11,102,102,0,0,1-39.2-9.09c1.95,34.8,27.31,74.42,74.41,85.19a5,5,0,0,1,.37,9.65,87.34,87.34,0,0,1-22.93,3.61,99.38,99.38,0,0,1-14.78-.5,94.59,94.59,0,0,0,84.8,57.52,5,5,0,0,1,2.94,8.93A202.92,202.92,0,0,1,93.66,402.5a208.65,208.65,0,0,1-58.08,7.56A274.51,274.51,0,0,0,157.15,442.9a13.75,13.75,0,0,1,1.86.2Z"/></g></g></svg>