<?xml version="1.0" ?><svg viewBox="0 0 512 512" xmlns="http://www.w3.org/2000/svg"><defs><style>.cls-1{fill:#8dd3b7;}.cls-2{opacity:0.2;}.cls-3{fill:#3f456b;}.cls-4{opacity:0.3;}.cls-5{fill:#fff;}</style></defs><title/><g id="Colors"><path class="cls-1" d="M257,480h-.09a223.69,223.69,0,0,1-114-31.21l-8.18-4.85L50,466.16l22.62-82.63-5.32-8.47A223.4,223.4,0,0,1,33,255.88C33.05,132.42,133.54,32,257.09,32A224,224,0,0,1,481,256.07C481,379.54,380.46,480,257,480M379.87,312.28c-6.73-3.36-39.84-19.65-46-21.9s-10.66-3.37-15.15,3.37-17.4,21.91-21.33,26.4-7.85,5.05-14.59,1.68-28.43-10.47-54.15-33.41c-20-17.85-33.53-39.89-37.46-46.63s-.42-10.39,2.95-13.74c3-3,6.74-7.86,10.1-11.8s4.49-6.74,6.74-11.23,1.12-8.42-.56-11.79-15.15-36.51-20.77-50c-5.46-13.13-11-11.35-15.15-11.56-3.92-.19-8.41-.24-12.9-.24a24.75,24.75,0,0,0-18,8.43c-6.17,6.74-23.57,23-23.57,56.16s24.13,65.14,27.5,69.63,47.48,72.49,115,101.65A385.79,385.79,0,0,0,301,381.5c16.13,5.12,30.81,4.4,42.42,2.67,12.93-1.93,39.84-16.29,45.45-32s5.61-29.2,3.93-32-6.18-4.49-12.91-7.87"/><g class="cls-2"><path class="cls-3" d="M49.8,464.14,136.6,424s55.07,40.14,120.4,40.14,139.85-24.27,189.39-88.67c0,0-55.92,101.11-182.86,104.22,0,0-67.2,6.85-128.8-36.09Z"/></g><g class="cls-4"><path class="cls-5" d="M69.34,133.27S132.87,48.8,257.93,48.8s187.88,84.47,187.88,84.47-60-100.61-185.07-100.61C126.33,32.66,69.34,133.27,69.34,133.27Z"/></g><g class="cls-4"><path class="cls-5" d="M342.93,384.63c7.82-1.16,20.76-6.88,31-14.7-9.21,13.18-31,24.22-42.21,25.9-11.61,1.74-26.28,2.46-42.42-2.67A386.2,386.2,0,0,1,250.92,379c-67.54-29.16-111.66-97.15-115-101.65s-27.5-36.5-27.5-69.64,17.4-49.42,23.57-56.16a27.87,27.87,0,0,1,4.93-4.25c-7.5,9-17.3,24.35-17.3,49.21,0,33.14,24.13,65.15,27.5,69.64s47.49,72.49,115,101.65A386.2,386.2,0,0,0,300.51,382C316.65,387.09,331.32,386.37,342.93,384.63Z"/></g><g class="cls-2"><path class="cls-3" d="M197.73,224.27s21.94,59.73,102.2,90.07c0,0-1.86,11.2-13.53,9.1S219.67,294.27,190.73,242C190.73,242,185.13,232.67,197.73,224.27Z"/></g><g class="cls-2"><path class="cls-3" d="M319.84,291.94s9-18.2,23-12.6S388.6,300.8,388.6,300.8s14.71,6.59,5,22.9c0,0,.58-6.1-9.22-10.3s-50.87-22.86-50.87-22.86A13.13,13.13,0,0,0,319.84,291.94Z"/></g><g class="cls-2"><path class="cls-3" d="M151.53,133.74s4.67-14.94,17.74-14.94h9.33s14,.94,18.67,11.2,20.53,47.6,20.53,47.6,6.53,14.94-4.67,21.47L188.4,141.2s-3.27-9.33-13.53-9.33S159.93,130,151.53,133.74Z"/></g></g><g id="Lines"><path class="cls-3" d="M257,485h-.09a228.68,228.68,0,0,1-116.56-31.91L134,449.29,51.21,471a5,5,0,0,1-6.09-6.16l22.05-80.51L63,377.72A228.3,228.3,0,0,1,28,255.88C28.05,129.66,130.82,27,257.09,27A229,229,0,0,1,486,256.07C486,382.3,383.22,485,257,485ZM134.72,438.93a5,5,0,0,1,2.55.7l8.19,4.85A218.59,218.59,0,0,0,256.91,475l.09,5v-5c120.71,0,219-98.21,219-218.93A219,219,0,0,0,257.09,37C136.33,37,38.05,135.18,38,255.89a218.31,218.31,0,0,0,33.48,116.5l5.33,8.48a5,5,0,0,1,.59,4L57.06,459.13l76.4-20A4.89,4.89,0,0,1,134.72,438.93Zm192.34-48.45a90.66,90.66,0,0,1-27.59-4.21,393.84,393.84,0,0,1-38.86-14.36c-56.05-24.19-96.72-74.1-116-101.7-.52-.75-.88-1.27-1.08-1.54-8.61-11.48-28.5-41.39-28.5-72.63,0-33,16.54-50.63,23.6-58.17.47-.49.9-1,1.28-1.37a29.58,29.58,0,0,1,21.65-10c3.85,0,8.83,0,13.15.25.4,0,.8,0,1.23,0,5.92,0,12.65,1.06,18.29,14.61,1.87,4.49,4.6,11.14,7.48,18.14,5.39,13.12,12.1,29.45,13.14,31.53s4.34,8.7.56,16.27c-.33.65-.63,1.28-.92,1.87A43.34,43.34,0,0,1,208,219.51c-1.1,1.28-2.24,2.67-3.38,4.06-2.36,2.87-4.79,5.83-7,8-3.51,3.5-4,4.46-2.16,7.68,4.71,8.08,17.69,28.67,36.47,45.42a168.15,168.15,0,0,0,48.36,30.55c1.94.84,3.48,1.51,4.7,2.12,5.67,2.83,6.83,1.51,8.59-.5,4.85-5.55,16.85-19.76,20.92-25.88,6.95-10.42,15.42-7.34,21-5.3,6.8,2.48,41.8,19.76,46.54,22.13h0c1.29.65,2.5,1.23,3.61,1.77,5.36,2.59,9.22,4.46,11.34,8,3.27,5.44,1.69,21.7-3.5,36.26-6.53,18.28-35.71,33.23-49.43,35.27A114,114,0,0,1,327.06,390.48Zm-165.47-254a19.79,19.79,0,0,0-14.27,6.8L146,144.71C139.18,152,125.06,167,125.06,196c0,9.4,2.58,34.72,26.44,66.56.3.39.73,1,1.34,1.89,18.65,26.72,57.95,75,111.73,98.24a383.61,383.61,0,0,0,37.92,14c16.3,5.17,30.73,3.89,40.17,2.48,11.29-1.68,36.57-15,41.48-28.74s5.06-25.35,4.26-27.88c-.78-1-4.09-2.59-7-4l-3.75-1.83c-9.05-4.53-39.93-19.66-45.48-21.68-6-2.19-7-2-9.28,1.44-4.83,7.25-18.36,23.08-21.72,26.92-7.1,8.12-14.74,5.79-20.59,2.86-1-.49-2.41-1.1-4.21-1.88a180.09,180.09,0,0,1-51-32.27c-19.85-17.7-33.5-39.36-38.45-47.85-5.93-10.17.37-16.43,3.75-19.8,1.84-1.83,4.11-4.6,6.32-7.28,1.18-1.44,2.36-2.88,3.51-4.22a33.65,33.65,0,0,0,5.1-8.27c.3-.62.61-1.26,1-1.94,1.12-2.23,1-4.29-.56-7.33-1.12-2.24-6.05-14.2-13.44-32.2-2.87-7-5.6-13.62-7.46-18.09-3.54-8.5-5.95-8.47-9-8.46-.62,0-1.21,0-1.79,0C170.14,136.48,165.32,136.45,161.59,136.45Z"/></g></svg>