<?xml version="1.0" ?><!DOCTYPE svg  PUBLIC '-//W3C//DTD SVG 1.1//EN'  'http://www.w3.org/Graphics/SVG/1.1/DTD/svg11.dtd'><svg enable-background="new 0 0 512 512" height="512px" id="Layer_1" version="1.1" viewBox="0 0 512 512" width="512px" xml:space="preserve" xmlns="http://www.w3.org/2000/svg" xmlns:xlink="http://www.w3.org/1999/xlink"><g id="Delta"><g><circle cx="256" cy="256" fill="#0465B0" r="256"/></g><polygon fill="#E21E2F" points="159.903,346.669 159.903,308.211 95.807,308.211  "/><polygon fill="#F0A626" points="224,265.48 95.807,265.48 224,346.669  "/><path d="M222.895,216.226c-0.638-2.36-1.662-4.432-3.071-6.211c-1.409-1.779-3.191-3.146-5.346-4.097   c-2.162-0.951-4.992-1.427-8.502-1.427h-17.78v38.743h17.78c2.132,0,4.516-0.352,7.142-1.056c1.914-0.509,3.715-1.536,5.389-3.077   c1.674-1.544,2.98-3.453,3.926-5.735c0.939-2.283,1.415-5.495,1.415-9.634C223.846,221.087,223.527,218.586,222.895,216.226z" fill="#FFFFFF"/><polygon fill="#FFFFFF" points="270.89,234.461 250.225,234.461 250.225,226.823 268.854,226.823 268.854,218.92 250.225,218.92    250.225,212.763 270.305,212.763 270.305,204.49 238.225,204.49 238.225,243.233 270.89,243.233  "/><polygon fill="#FFFFFF" points="316.109,233.693 297.431,233.693 297.431,204.49 285.46,204.49 285.46,243.233 316.109,243.233     "/><polygon fill="#FFFFFF" points="360.599,204.49 324.201,204.49 324.201,214.058 336.412,214.058 336.412,243.233 348.382,243.233    348.382,214.058 360.599,214.058  "/><polygon fill="#FFFFFF" points="394.197,204.49 381.132,204.49 366.572,243.233 378.795,243.233 380.686,236.839 394.276,236.839    396.214,243.233 408.75,243.233  "/><polygon fill="#0465B0" points="387.514,214.534 391.794,228.46 383.287,228.46  "/><path d="M208.438,233.602c-1.06,0.554-2.842,0.831-5.341,0.831h-2.932v-21.167h2.986   c3.101,0,5.317,0.758,6.66,2.273c1.343,1.514,2.005,4.323,2.005,8.43c0,3.101-0.295,5.344-0.891,6.726   C210.322,232.076,209.492,233.046,208.438,233.602z" fill="#0465B0"/></g></svg>