<?xml version="1.0" ?><svg height="60px" version="1.1" viewBox="0 0 60 60" width="60px" xmlns="http://www.w3.org/2000/svg" xmlns:sketch="http://www.bohemiancoding.com/sketch/ns" xmlns:xlink="http://www.w3.org/1999/xlink"><title/><desc/><defs/><g fill="none" fill-rule="evenodd" id="soical" stroke="none" stroke-width="1"><g id="social" transform="translate(-473.000000, -738.000000)"><g id="slices" transform="translate(173.000000, 138.000000)"/><g fill="#000000" id="square-black" transform="translate(173.000000, 138.000000)"><path d="M302.995937,600 L357.004063,600 C358.658673,600 360,601.33731 360,602.995937 L360,657.004063 C360,658.658673 358.66269,660 357.004063,660 L302.995937,660 C301.341327,660 300,658.66269 300,657.004063 L300,602.995937 C300,601.341327 301.33731,600 302.995937,600 Z" id="square-64"/></g><g fill="#FFFFFF" id="icon" transform="translate(182.000000, 150.000000)"><path d="M333.202469,619.181468 L337.211878,619.181468 C337.087991,620.271797 336.304734,621.072482 335.286096,621.072482 C334.139896,621.072482 333.451165,620.338597 333.202469,619.181468 L333.202469,619.181468 Z M327.058507,615.644225 C328.513967,615.661395 328.873247,617.178317 328.873247,618.2863 C328.873247,619.688221 328.278121,620.859189 327.058507,620.876364 C325.723718,620.894501 325.223114,619.639547 325.223114,618.2863 C325.223114,617.062844 325.663611,615.644225 327.058507,615.644225 L327.058507,615.644225 Z M342.650592,621.74672 C342.650592,623.127644 341.577807,624.242784 340.250821,624.242784 C339.564844,624.242784 338.949532,623.945509 338.513168,623.466433 C337.49774,624.200313 336.267567,624.630243 334.936454,624.630243 C333.592033,624.630243 332.352224,624.190296 331.329911,623.442094 C330.869688,623.885862 330.258044,624.15546 329.582624,624.15546 C329.081561,624.15546 328.613996,624.00468 328.218013,623.746527 C327.280127,625.48676 325.492,626.661547 323.438202,626.661547 C321.559679,626.661547 319.905538,625.6824 318.914429,624.190296 C318.087582,625.074011 316.931289,625.62323 315.650643,625.62323 C314.803612,625.62323 314.013937,625.381782 313.334844,624.96283 C313.318334,626.643888 312.00694,628 310.387211,628 C308.756922,628 307.43636,626.626235 307.43636,624.934676 L307.443246,624.815859 C307.127102,624.864527 306.804534,624.892688 306.475083,624.892688 C305.513796,624.892688 304.606193,624.672708 303.78945,624.280957 C303.329222,624.536244 302.807973,624.683209 302.250017,624.683209 C300.458676,624.683209 299,623.169631 299,621.30295 C299,620.313785 299.413423,619.42959 300.062234,618.810707 C300.045231,618.607909 300.035171,618.401774 300.035171,618.195638 C300.035171,614.497587 302.919024,611.50241 306.475093,611.50241 C307.856221,611.50241 309.13732,611.956674 310.185328,612.725867 C311.130098,611.383116 312.653008,610.50608 314.373687,610.50608 C314.41726,610.50608 314.457658,610.509498 314.497574,610.513241 C314.995423,609.048814 316.329751,608 317.905891,608 C319.499471,608 320.853525,609.076491 321.330729,610.569072 C321.879051,609.488761 322.964226,608.754882 324.217798,608.754882 C325.784298,608.754882 327.092013,609.904853 327.407703,611.435608 C327.632997,611.404621 327.86471,611.38313 328.096889,611.38313 C329.37432,611.38313 330.533826,611.887017 331.417105,612.708227 C332.419233,611.998676 333.632423,611.582585 334.936468,611.582585 C338.402141,611.582585 341.208447,614.504759 341.208447,618.108329 C341.208447,618.552575 341.168098,618.989179 341.084099,619.408614 C341.998128,619.761714 342.650606,620.673586 342.650606,621.746734 L342.650592,621.74672 Z M339.376729,618.838876 C339.376729,618.024347 339.141342,617.814874 338.371858,617.814874 L333.202483,617.814874 C333.202483,616.559921 333.985274,615.64424 335.316393,615.64424 C337.040739,615.64424 337.040739,616.818545 337.964859,616.818545 C338.513181,616.818545 338.905955,616.328973 338.905955,615.889025 C338.905955,614.45609 336.694771,613.788533 335.316393,613.788533 C332.715186,613.788533 331.430872,615.277294 331.044523,616.947857 C330.698554,615.196656 329.595486,613.788533 327.636207,613.788533 C326.587739,613.788533 325.804949,614.228481 325.381433,614.993858 L325.347919,614.993858 L325.347919,611.816397 C325.347919,611.033843 324.89366,610.624911 324.204933,610.624911 C323.515283,610.624911 323.061942,611.033843 323.061942,611.816397 L323.061942,620.680739 L320.490566,613.102844 C319.943161,611.474269 319.314077,610.624911 317.872381,610.624911 C316.854198,610.624911 316.430223,611.14598 316.430223,611.719055 C316.430223,612.355598 316.87072,612.680549 317.482817,612.680549 L317.717752,612.680549 C318.013705,612.680549 318.342697,612.69391 318.514768,613.428267 L316.134728,620.485105 C316.050756,620.740386 315.986976,620.932211 315.940176,621.093492 C315.886051,621.020007 315.825921,620.95368 315.754803,620.876378 L314.064409,619.034509 L316.447658,615.71056 C316.524746,615.598908 316.682592,615.336462 316.682592,614.945184 C316.682592,614.340616 316.21227,613.788532 315.600627,613.788532 C315.035787,613.788532 314.736619,614.081514 314.565466,614.340616 L312.403838,617.521413 L311.604071,616.787529 L311.604071,614.976681 C311.604071,614.196987 311.150267,613.788532 310.461081,613.788532 C309.768679,613.788532 309.314881,614.196987 309.314881,614.976681 L309.314881,615.854189 C308.905131,614.448931 307.375791,613.788532 305.90014,613.788532 C303.833035,613.788532 302.109143,614.749549 302.109143,615.923854 C302.109143,616.444445 302.391335,616.916363 303.033263,616.916363 C304.021158,616.916363 304.115681,615.448599 305.806076,615.448599 C306.61961,615.448599 307.13719,615.826034 307.13719,616.311796 C307.13719,616.916363 306.636132,617.014183 305.823052,617.227477 L304.475416,617.566744 C303.144303,617.908873 302.109143,618.482431 302.109143,620.079986 C302.109143,622.015852 303.957836,622.735899 305.540405,622.735899 C307.278059,622.735899 309.035902,622.015852 309.035902,620.925529 C309.035902,620.370102 308.672953,619.883868 308.078285,619.883868 C307.183994,619.883868 307.153711,620.974675 305.712012,620.974675 C304.912239,620.974675 304.394659,620.747543 304.394659,620.240789 C304.394659,619.688233 304.912239,619.555579 305.617947,619.394297 L306.572351,619.163821 C307.671751,618.905197 308.945507,618.454276 309.314881,617.32196 L309.314881,624.756232 C309.314881,625.535441 309.768679,625.944374 310.461081,625.944374 C311.150267,625.944374 311.604071,625.535441 311.604071,624.756232 L311.604071,619.3461 L314.141491,622.278298 C314.376884,622.540265 314.676053,622.735899 315.018812,622.735899 C315.391854,622.735899 315.788296,622.484433 315.980093,622.120831 C316.165012,622.491591 316.534839,622.735899 316.964779,622.735899 C317.576423,622.735899 317.999938,622.376118 318.137593,621.837872 L319.613244,616.280298 L319.643533,616.280298 L321.038888,621.673247 C321.196726,622.278298 321.509203,622.735899 322.137822,622.735899 C322.678808,622.735899 322.991278,622.456756 323.156466,622.169982 C323.293661,622.536922 323.599713,622.735899 324.093893,622.735899 C324.769313,622.735899 325.129048,622.341283 325.129048,621.610741 L325.129048,621.236643 L325.162562,621.236643 C325.539278,622.246327 326.463393,622.735899 327.572426,622.735899 C329.205922,622.735899 330.664598,621.669909 331.05829,619.443442 C331.501537,621.456616 332.990496,622.735899 335.239305,622.735899 C337.871254,622.735899 339.376729,620.796217 339.376729,618.838875 L339.376729,618.838876 Z M340.085652,622.564598 L340.533027,622.564598 C340.533027,622.564598 340.536314,622.564598 340.875786,621.533917 L341.195145,622.564598 L341.638387,622.564598 L341.638387,621.065337 L341.342893,621.065337 C341.342893,621.065337 341.339606,621.065337 341.339606,622.127989 L340.986296,621.065337 L340.74081,621.065337 C340.74081,621.065337 340.737524,621.065337 340.38475,622.117494 L340.38475,621.065337 L340.085582,621.065337 L340.085582,622.564598 L340.085652,622.564598 Z M338.741226,622.288794 L338.741226,622.564598 L339.920924,622.564598 L339.920924,622.288794 L339.490985,622.288794 L339.490985,621.065337 L339.171625,621.065337 L339.171625,622.288794 L338.741226,622.288794 L338.741226,622.288794 Z" id="skype" transform="translate(320.825303, 618.000000) scale(1, -1) translate(-320.825303, -618.000000) "/></g></g></g></svg>