<?xml version="1.0" encoding="UTF-8"?><svg id="a" xmlns="http://www.w3.org/2000/svg" xmlns:xlink="http://www.w3.org/1999/xlink" viewBox="0 0 789.34 195.36"><defs><linearGradient id="b" x1="394.67" y1="195.36" x2="394.67" y2="0" gradientUnits="userSpaceOnUse"><stop offset="0" stop-color="#dd03f9"/><stop offset="1" stop-color="#5300c4"/></linearGradient><filter id="c" x="-10.05" y="3.61" width="798" height="205" filterUnits="userSpaceOnUse"><feOffset dx="-5.67" dy="8.5"/><feGaussianBlur result="d" stdDeviation="5.67"/><feFlood flood-color="#000" flood-opacity=".6"/><feComposite in2="d" operator="in"/><feComposite in="SourceGraphic"/></filter></defs><path d="M789.28,167.99h0c-.06-2.54-.86-5-2.3-7.08h0s-43.84-63.48-43.84-63.48l40.07-58.02c1.93-2.8,2.93-6.14,2.85-9.54l-.02-.75c-.29-12.28-10.27-22.11-22.55-22.22l-17.68-.15h-.27c-10.56,0-20.36,5.24-26.22,14.02l-27.52,41.2-28.13-42.12c-5.8-8.68-15.52-13.93-25.96-14.02l-15.23-.13h-.19s0,0,0,0c-12.06,0-21.84,9.2-22.69,21.11-8.8-8.43-18.92-15.06-30.15-19.65-11.6-4.75-23.85-7.16-36.41-7.16s-24.81,2.41-36.41,7.16c-9.48,3.88-18.18,9.19-25.96,15.82l-.36-.12-5.4,5.45c-.1.1-.19.19-.29.29l-8.88,8.96h0s-12.17,12.28-12.17,12.28c-1.79,1.8-4.7,1.81-6.49,0l-21.12-21.21c-9.19-9.28-19.96-16.49-31.98-21.42C372.4,2.47,360.15.06,347.59.06c-12.56,0-24.81,2.41-36.41,7.16-12.02,4.92-22.79,12.13-32.01,21.44-5.07,5.11-9.48,10.72-13.26,16.72-.19-2.59-.74-5.14-1.68-7.6C260.87,28.99,246.85.31,207.66.31c-16.41,0-35.27,5.24-56.15,15.61-1.55-1.28-3.33-2.62-5.35-3.94C134.99,4.67,121.1.81,105.96.81c-15.57,0-32.68,3.99-51,11.86-4.87-4.57-11.4-7.34-18.39-7.34h-9.7C12.03,5.33,0,17.36,0,32.21v136.28c0,14.84,12.03,26.87,26.87,26.87h9.7c14.84,0,26.87-12.03,26.87-26.87v-98.02c16.18-8.16,25.63-9.99,30.85-9.99,4.42,0,6.73.88,6.98,5.62v102.39c0,14.84,12.03,26.87,26.87,26.87h9.7c14.84,0,26.87-12.03,26.87-26.87v-98.46c16.18-8.15,25.63-9.99,30.85-9.99,4.42,0,6.73.88,6.98,5.64v102.82c0,14.84,12.03,26.87,26.87,26.87h9.7c14.84,0,26.87-12.03,26.87-26.87v-18.64c3.76,5.95,8.14,11.5,13.17,16.58,9.22,9.31,19.99,16.52,32.01,21.44,11.6,4.75,23.84,7.15,36.41,7.16,12.56,0,24.8-2.41,36.41-7.15,12.02-4.92,22.79-12.14,32.01-21.44l21.04-21.24c1.79-1.8,4.7-1.81,6.49,0l21.13,21.21c9.19,9.28,19.96,16.49,31.98,21.41,11.6,4.75,23.85,7.16,36.41,7.16s24.81-2.41,36.41-7.16c9.47-3.88,18.15-9.2,25.92-15.83.26,5.77,2.66,11.16,6.87,15.25s10.3,6.43,16.38,6.43c4.01,0,9.94,0,15.65,0,10.53,0,20.37-5.26,26.22-14.02l31.27-46.82,31.27,46.82c5.85,8.76,15.69,14.02,26.23,14.02h16.79c6.44,0,12.71-2.48,17.12-7.17,4.12-4.38,6.3-10.08,6.16-16.11l-.06-2.39ZM627.42,76.28l14.48,20.97-14.34,20.77c1.43-6.72,2.18-13.58,2.18-20.54,0-7.19-.8-14.27-2.32-21.2ZM253,168.49c0,7.66-6.21,13.87-13.87,13.87h-9.7c-7.66,0-13.87-6.21-13.87-13.87v-103.11c-.17-4.51-2.16-18.35-19.98-18.35-9.46,0-23.37,3.9-43.85,15.15v106.3c0,7.66-6.21,13.87-13.87,13.87h-9.7c-7.66,0-13.87-6.21-13.87-13.87v-102.69c-.18-4.53-2.18-18.33-19.98-18.33-9.46,0-23.38,3.9-43.85,15.15v-.02s0,105.88,0,105.88c0,7.66-6.21,13.87-13.87,13.87h-9.7c-7.66,0-13.87-6.21-13.87-13.87V32.21c0-7.66,6.21-13.87,13.87-13.87h9.7c6.65,0,12.2,4.68,13.55,10.92,23.08-11.52,41.48-15.45,55.84-15.44,30.81,0,43.04,18.09,43.04,18.09,24.91-13.68,44.03-18.59,58.66-18.59,30.53,0,41.47,21.39,44.43,29.12.6,1.57.91,3.24.91,4.92v121.14ZM564.54,175.77c-10.03,4.11-20.62,6.19-31.48,6.19-10.86,0-21.45-2.08-31.48-6.19-10.39-4.25-19.71-10.5-27.69-18.56l-26.84-26.94c-2.23-2.25-2.23-5.87,0-8.12l16.36-16.51c1.45-1.47,3.37-2.2,5.28-2.2s3.82.73,5.28,2.2l25.53,25.74.06-.06c9.24,9.33,21.38,13.99,33.52,13.99,13.46,0,26.92-5.73,36.43-17.2,14.62-17.63,14.63-43.58.03-61.23-9.51-11.49-22.99-17.23-36.46-17.23-12.14,0-24.28,4.66-33.52,13.99h0s0,0,0,0l-92.76,93.64c-7.98,8.06-17.3,14.3-27.7,18.56-10.03,4.1-20.62,6.19-31.48,6.19-10.86,0-21.46-2.08-31.48-6.19-10.4-4.25-19.71-10.5-27.69-18.56-7.98-8.06-14.17-17.46-18.38-27.95-1.7-4.23-3.03-8.57-4.02-12.97-1.39-6.14-2.11-12.43-2.11-18.81s.72-12.67,2.11-18.81c.99-4.41,2.32-8.74,4.02-12.97,4.22-10.49,10.4-19.9,18.38-27.96,7.98-8.06,17.3-14.3,27.69-18.56,10.03-4.11,20.62-6.19,31.48-6.19,10.86,0,21.45,2.08,31.48,6.19,10.39,4.26,19.71,10.5,27.7,18.56l26.83,26.94c2.24,2.25,2.24,5.88.01,8.13l-16.36,16.51c-1.45,1.47-3.37,2.2-5.28,2.2s-3.81-.73-5.26-2.19l-25.59-25.7c-9.24-9.33-21.38-13.99-33.52-13.99-13.46,0-26.92,5.74-36.44,17.21-14.62,17.63-14.63,43.58-.03,61.22,9.51,11.49,22.99,17.24,36.46,17.24,12.14,0,24.28-4.66,33.52-13.99l92.76-93.64h0s0,0,0,0c7.98-8.06,17.3-14.3,27.7-18.56,10.03-4.11,20.62-6.19,31.48-6.19s21.45,2.08,31.48,6.19c10.39,4.25,19.71,10.5,27.69,18.56,7.98,8.06,14.17,17.46,18.38,27.96,4.07,10.12,6.13,20.82,6.13,31.78,0,10.96-2.06,21.66-6.13,31.78-4.21,10.49-10.4,19.9-18.38,27.96-7.98,8.06-17.3,14.3-27.7,18.56ZM484.23,97.56l24.54-24.77.24-.24c6.45-6.39,14.98-9.9,24.05-9.9,10.03,0,19.54,4.42,26.11,12.12,11.03,12.95,11.03,32.47,0,45.42-6.57,7.7-16.08,12.12-26.11,12.12-9.18,0-17.81-3.6-24.29-10.14l-9.23-9.32-.07.07-15.24-15.36ZM396.4,97.48l-24.52,24.75c-6.48,6.54-15.11,10.14-24.29,10.14-10.03,0-19.54-4.42-26.11-12.12-11.03-12.95-11.03-32.47,0-45.42,6.57-7.7,16.08-12.12,26.11-12.12,9.18,0,17.81,3.6,24.29,10.14l24.52,24.63ZM766.59,180.66h-17.32c-6.19,0-11.98-3.09-15.41-8.24l-39.26-58.79c-.67-1-1.75-1.51-2.82-1.51s-2.15.5-2.82,1.51l-39.26,58.79c-3.44,5.15-9.22,8.24-15.41,8.24h-16.17c-5.5,0-9.91-4.54-9.75-10.04h0c.04-1.3.45-2.57,1.2-3.65l45.93-66.51c1.34-1.93,1.34-4.49,0-6.42l-42.45-61.48c-.38-.55-.57-1.2-.55-1.87l.07-2.53c.16-5.27,4.48-9.46,9.74-9.46.03,0,.06,0,.08,0l15.23.13c6.14.05,11.85,3.14,15.26,8.24l36.12,54.09c.67,1,1.75,1.51,2.82,1.51s2.15-.5,2.82-1.51l35.51-53.17c3.44-5.15,9.23-8.24,15.41-8.24.05,0,.11,0,.16,0l17.68.15c5.26.04,9.54,4.26,9.66,9.52l.02.74c.02.66-.18,1.31-.55,1.85l-42.95,62.2c-1.34,1.93-1.34,4.49,0,6.42l45.36,65.7c.88,1.28,1.38,2.79,1.41,4.35h0c.13,5.47-4.27,9.98-9.75,9.98Z" fill="url(#b)"/><g filter="url(#c)"><path d="M773.07,30.17l-.02-.74c-.12-5.26-4.4-9.48-9.66-9.52l-17.68-.15c-6.25-.05-12.1,3.04-15.57,8.24l-35.51,53.17c-1.34,2.01-4.3,2.01-5.64,0l-36.12-54.09c-3.41-5.1-9.12-8.19-15.26-8.24l-15.23-.13c-5.31-.05-9.67,4.16-9.83,9.46l-.07,2.53c-.02.67.17,1.32.55,1.87l42.45,61.48c1.34,1.93,1.34,4.49,0,6.42l-45.93,66.51c-.74,1.07-1.16,2.34-1.2,3.65h0c-.16,5.49,4.25,10.04,9.75,10.04h16.17c6.19,0,11.98-3.09,15.41-8.24l39.26-58.79c1.34-2.01,4.3-2.01,5.64,0l39.26,58.79c3.44,5.15,9.22,8.24,15.41,8.24h17.32c5.47,0,9.87-4.5,9.75-9.98h0c-.04-1.56-.53-3.07-1.41-4.35l-45.36-65.7c-1.34-1.93-1.34-4.49,0-6.42l42.95-62.2c.38-.54.57-1.19.55-1.85Z" fill="#ececec"/><path d="M610.62,129.26c-4.21,10.49-10.4,19.9-18.38,27.96-7.98,8.06-17.3,14.3-27.7,18.56-10.03,4.11-20.62,6.19-31.48,6.19-10.86,0-21.45-2.08-31.48-6.19-10.39-4.25-19.71-10.5-27.69-18.56l-26.84-26.94c-2.23-2.25-2.23-5.87,0-8.12l16.36-16.51c2.91-2.93,7.65-2.93,10.55,0l25.53,25.74.06-.06c19.34,19.52,51.36,18.62,69.52-2.7,15.19-17.83,15.2-44.46,0-62.28-18.17-21.32-50.19-22.21-69.52-2.7h0s0,0,0,0l-92.76,93.64c-7.98,8.06-17.3,14.3-27.7,18.56-10.03,4.1-20.62,6.19-31.48,6.19-10.86,0-21.46-2.08-31.48-6.19-10.4-4.25-19.71-10.5-27.69-18.56-7.98-8.06-14.17-17.46-18.38-27.95-4.07-10.13-6.13-20.82-6.13-31.78s2.06-21.66,6.13-31.78c4.22-10.49,10.4-19.9,18.38-27.96,7.98-8.06,17.3-14.3,27.69-18.56,10.03-4.11,20.62-6.19,31.48-6.19,10.86,0,21.45,2.08,31.48,6.19,10.39,4.26,19.71,10.5,27.7,18.56l26.83,26.94c2.24,2.25,2.24,5.88.01,8.13l-16.36,16.51c-2.9,2.93-7.63,2.94-10.54.01l-25.59-25.7c-19.34-19.52-51.36-18.62-69.53,2.7-15.19,17.83-15.19,44.46,0,62.28,18.17,21.32,50.19,22.22,69.53,2.7l92.76-93.64h0s0,0,0,0c7.98-8.06,17.3-14.3,27.7-18.56,10.03-4.11,20.62-6.19,31.48-6.19,10.86,0,21.45,2.08,31.48,6.19,10.39,4.25,19.71,10.5,27.69,18.56,7.98,8.06,14.17,17.46,18.38,27.96,4.07,10.12,6.13,20.82,6.13,31.78,0,10.96-2.06,21.66-6.13,31.78Z" fill="#ececec"/><path d="M149,31.89s-26.27-38.87-98.88-2.64c-1.35-6.24-6.9-10.92-13.55-10.92h-9.7c-7.66,0-13.87,6.21-13.87,13.87v136.28c0,7.66,6.21,13.87,13.87,13.87h9.7c7.66,0,13.87-6.21,13.87-13.87V62.61v.02c58.99-32.44,63.55-3.76,63.83,3.17v102.69c0,7.66,6.21,13.87,13.87,13.87h9.7c7.66,0,13.87-6.21,13.87-13.87V62.19c59.05-32.47,63.56-3.71,63.83,3.19v103.11c0,7.66,6.21,13.87,13.87,13.87h9.7c7.66,0,13.87-6.21,13.87-13.87V47.35c0-1.68-.31-3.35-.92-4.92-4.37-11.43-26.2-52.75-103.08-10.53Z" fill="#ececec"/></g></svg>