<?xml version="1.0" encoding="utf-8"?>
<svg version="1.2" baseProfile="tiny-ps" xmlns="http://www.w3.org/2000/svg" width="6620px" height="1667px" viewBox="0 0 6620 1667" preserveAspectRatio="xMidYMid meet">
   <defs>
      <linearGradient id="lg0" gradientUnits="userSpaceOnUse" x1="49.879154%" y1="6.115108%" x2="49.879154%" y2="92.68585%">
         <stop offset="1%" style="stop-color:rgb(97,0,203);"></stop>
         <stop offset="100%" style="stop-color:rgb(203,0,227);"></stop>
      </linearGradient>
   </defs>
 <g fill="#ededed">
  <path d="M2845 1553.80 c-8.80 -0.80 -28.20 -3.60 -43 -6 l-27 -4.20 -31.60 -7.80 c-83.20 -20.60 -146.60 -48.40 -215.40 -94.40 -84.20 -56.20 -146 -119 -204.40 -207.40 l-21.80 -33 -19.80 -40 -19.80 -40 -10 -27.20 c-22.80 -62 -40 -139.60 -46.20 -206.80 l-2 -22 0 -35 0 -35 2 -24 c11 -127.40 53.60 -251.80 120.80 -352 29.80 -44.80 51 -71 87 -107.80 42 -42.80 80.80 -73.80 136.20 -108.80 l23 -14.40 32 -15.80 32 -15.80 24 -9 c13.20 -5 36.60 -12.80 52 -17.20 l28 -8 35 -7 35 -7 29 -3.40 29 -3.20 51 1 51 1 28 4.40 c158.20 24.20 274.20 76.60 422 190 33 25.20 81.20 68.60 123.80 111.20 35.40 35.20 104.40 110.80 114 124.40 l5.40 8 2.80 10.40 2.80 10.40 -2.20 11 -2.20 10.80 -7.20 9.80 c-4 5.60 -21.60 28.60 -39.20 51.60 -17.60 22.80 -46.80 61.40 -65 85.60 l-33 44.20 -6.40 4.20 -6.40 4.20 -10.60 2.80 -10.60 2.60 -12 -3 -11.80 -3 -11.20 -11 c-6.20 -6.20 -25.60 -27.80 -43.20 -48.20 -17.80 -20.40 -46.60 -51.80 -64 -69.80 l-31.80 -33 -30.60 -27.60 c-92.40 -83.40 -170.20 -131 -257.40 -157.60 l-20 -6.20 -25 -4.40 -25 -4.20 -49 -0.20 -49 0 -23.60 4.60 -23.60 4.60 -23.40 8 -23.40 8.20 -25 12.40 c-48.40 24.20 -84.60 52 -121.40 93.20 l-17 19 -15.40 23.20 -15.40 23 -11.20 23 c-20.60 41.80 -33.80 81.80 -40 121.80 l-2.60 17 0 50 0 50 2.60 17 c6.20 40 19.40 80.20 39.60 121 l11.20 22.80 13.40 20.60 13.40 20.60 18.80 21.80 18.80 21.60 20.80 18.40 20.60 18.20 17.20 11.40 c33.40 22.40 67.40 38.60 107.40 51.40 l20 6.40 28 4 28.20 4 40 -0.80 40 -0.80 22 -3.40 22 -3.40 24 -7 c67.80 -20 142 -60.60 208 -113.80 51.60 -41.60 120.40 -108.60 175 -170.80 7.20 -8.20 14 -15.80 15 -17 33.40 -37 90.80 -110.20 184 -235.20 15.20 -20.40 30.20 -40.20 33.40 -44 3 -3.80 21 -26.40 40 -50 59.40 -74.40 102.60 -123 163.60 -184 l45 -45 31 -26.40 c145.60 -124.40 275.20 -192 423 -220.60 40.60 -7.80 51.80 -9.40 81.60 -12.20 l25.60 -2.40 47.40 1.20 47.40 1 26 4 c156 24.40 278.80 84.20 389 189.80 l24.60 23.60 20.20 24 c103.80 122.80 161.20 261.20 176.40 425 l2.80 31 0 28 0 28 -3 32 c-14.40 157.20 -70.80 296 -168 415 l-15.60 19 -30.20 30.20 -30.20 30 -25.40 20.20 c-104.40 82.60 -208.80 127.20 -346.60 148 l-24 3.60 -60 0 -60 -0.20 -24 -3.40 c-63.40 -9.40 -110.40 -20.60 -160.60 -38.20 -67 -23.40 -121.20 -50.80 -187.40 -94.20 -52.80 -34.80 -82 -57.20 -135.80 -104 l-32.20 -27.80 -41 -41.20 -41 -41 -30 -33.80 c-16.60 -18.40 -33.80 -38.80 -38.40 -45 l-8.60 -11.20 -2 -10.60 -2.20 -10.40 2.40 -10.80 2.40 -10.80 9.20 -12 c5 -6.60 23 -30 39.60 -51.80 16.80 -21.80 45 -58.80 62.60 -82.40 l31.80 -42.80 7 -4.60 7 -4.80 10 -2.40 10 -2.20 11.60 2.60 11.40 2.40 5.80 4.40 c3.20 2.20 12.20 11.80 20 21.20 30 36 57.80 66.40 97.40 106.80 l41 41.80 30 26.20 c41.60 36.40 53.20 45.60 88 69.40 52.60 36.20 111.80 64.80 164 79.60 l22 6.20 20 3.20 20 3.20 41 1 41 1 28 -4.20 28.20 -4 24.40 -8 24.60 -8 26.80 -13 26.80 -12.80 17.60 -11.60 c70.40 -45.80 125.20 -114.40 157.40 -197.20 l9 -22.60 6 -23.40 6 -23.20 3.20 -28.20 3 -28 0 -24.20 0 -24.20 -3 -28.80 -3 -28.80 -6.20 -23.60 -6 -23.60 -9 -23 -9 -23 -12 -23 -12 -22.80 -13 -18.60 c-15.80 -23 -18.40 -26 -45.80 -54.40 l-22 -22.60 -16 -12.60 c-23.20 -18.20 -42.60 -30 -72 -44.20 l-26 -12.60 -24 -7.80 -24 -7.80 -22 -3.80 -22 -3.80 -48 0 -48 0.20 -25 4.40 -25 4.40 -20 6.20 c-60.20 18.80 -125.80 53.20 -181.40 95 -65 48.80 -153.40 134.60 -216.60 209.80 -6.40 7.80 -16.40 19.40 -22 26 -21.60 25 -71 88 -110.60 141 -38.60 51.60 -64.80 86.60 -83.40 110.60 -14 18.40 -55.40 70.20 -61.80 77.60 -3.40 3.80 -9.80 11.40 -14.20 16.80 -70 85.80 -183.40 198.60 -249.20 248 -3 2.20 -13.80 10.40 -24 18.20 -136 102.40 -270.60 157.60 -422.80 173.80 l-28 3 -42 -0.20 -42 -0.40 -16 -1.60z"/>
  <path d="M186 1552.80 c-2.80 -0.60 -13.40 -2.80 -23.60 -5 l-18.60 -4.20 -14.40 -7.20 -14.40 -7.20 -14 -14 -14 -14.20 -6.60 -12.40 -6.40 -12.20 -5.60 -20.80 -5.40 -20.60 0 -589 0 -589 5.40 -21.60 5.60 -21.40 3.80 -7.60 c2 -4 7.80 -13 12.80 -19.80 l9.20 -12.40 11.20 -8.20 c6 -4.40 14.20 -10 17.80 -12.20 l6.80 -4 23.40 -5.80 23.40 -6 45 0 44.80 0 20.40 4.20 20.40 4 12.80 6.20 12.60 6 12.40 12.40 12.60 12.20 7.20 14.60 7.40 14.80 2.40 11.80 2.40 11.80 1.40 0 c0.80 0 7.60 -3.80 15 -8.20 93.80 -57 243.80 -103.80 383.80 -119.60 l34 -4 32 -1.20 32 -1.40 37.80 2.20 38 2.40 20 3 c45.40 6.80 88.80 18.80 119.20 33 l17 8 22.80 15.40 23 15.40 17.60 16.80 17.80 16.80 11.40 14.40 c6.20 7.80 13.20 16.80 15.40 20 l4.20 5.60 14.80 -10 c40.20 -27 105.20 -61 154 -80.20 64.20 -25.40 141.80 -45.20 213 -54.40 l30 -3.80 41 -2.40 41 -2.20 28 1.40 c15.40 0.60 38.40 2.60 51 4.20 l23 3 31 7 31 7.20 17 6 c9.40 3.20 25.60 10 36 14.80 l19 9 23 15.40 23 15.40 20.60 20 20.80 19.80 14.40 20.20 c25.20 34.60 38.60 60.80 50.80 99.40 7.60 24 17.20 66.20 21.80 95.60 l3.40 23 0.60 478.80 0.80 478.80 -3.20 17.80 -3 17.80 -5.20 15.60 -5.20 15.60 -10.20 13.80 -10.40 13.60 -12 9.60 c-15.20 12.40 -23.80 16.40 -48.20 23 l-19.80 5.40 -62 0.20 -62 0 -20.80 -5.60 c-24 -6.40 -30.40 -9.60 -47.60 -22 l-12.40 -9.20 -8.20 -11.20 c-4.60 -6.20 -10.40 -15.40 -13 -20.80 l-5 -9.60 -4.40 -16.80 -4.40 -16.80 -1.20 -446 -1.20 -446 -3.20 -21 -3.20 -21 -5.40 -15 c-3 -8.20 -8 -19.60 -11.20 -25.20 l-5.80 -10.20 -8.80 -8.20 -8.80 -8.20 -8.60 -4.40 c-4.80 -2.40 -13.40 -6 -19.40 -8 l-10.80 -3.80 -22.40 -2.20 -22.20 -2.20 -36 1.20 -36 1.20 -24.80 3 c-45.40 5.60 -77.60 14.40 -130.80 35.40 l-26.40 10.20 -43 21.80 c-23.60 11.80 -50 25.60 -58.40 30.60 l-15.40 9 -0.20 441.40 -0.20 441.60 -1.80 12 c-2.40 16.40 -7.40 37.60 -11.80 48.80 l-3.60 9.40 -8.20 12.20 -8.20 12.20 -11.40 10 -11.20 10 -11.80 6.40 -11.80 6.20 -19.60 5.20 -19.40 5 -47.60 1 -47.60 1 -16.20 -2.40 c-9 -1.20 -24 -4.60 -33.40 -7.20 l-17.20 -5 -13.60 -9.20 -13.60 -9.20 -9.80 -10.80 -9.60 -11 -6.40 -11.80 -6.20 -11.80 -5.40 -19.60 -5.20 -19.40 -1.20 -456 -1.20 -456 -3.40 -14.60 -3.20 -14.60 -8.80 -18.40 -8.80 -18.40 -10 -9.40 -10 -9.20 -9.80 -5 c-5.40 -2.60 -14.20 -6.20 -19.80 -8 l-10 -3.20 -19.40 -2.20 -19.40 -2 -21.60 0 c-11.80 0 -34.20 1 -49.60 2.20 l-28 2 -29 5 -29 4.80 -25 7.20 c-49.80 14.60 -109 39.20 -161 67 l-30 16.20 -2.60 3.20 -2.40 3.20 0 447.80 0 447.60 -5 22.20 -5 22.40 -4.80 10 c-2.60 5.60 -8.80 15.80 -14 22.80 l-9.20 12.40 -12.40 9.20 c-7 5 -16 11 -20 13 l-7.60 3.80 -20.40 5.40 -20.60 5.20 -55 0.60 c-30.20 0.20 -57.20 0 -60 -0.40z"/>
  <path d="M5180 1541 c-7.20 -1.60 -19 -4.80 -26.20 -7 l-13.40 -4 -11.80 -8.80 -11.80 -8.60 -6.40 -7.80 c-3.60 -4.20 -8.20 -11.40 -10.40 -15.80 l-3.80 -8 -3 -15 -3 -15 1.80 -9.40 c1 -5.20 3.20 -15.20 5 -22 l3.20 -12.60 6 -10.60 c3.40 -6 90.40 -131.60 193.40 -279 103 -147.60 189.20 -272 191.80 -276.40 l4.60 -8 0 -6.60 0 -6.60 -2.80 -6.40 c-1.40 -3.60 -80.40 -120.20 -175.20 -259.40 l-172.40 -253 -6 -12.40 -5.80 -12.40 -3.80 -18.40 -3.80 -18.60 3 -15.20 c3.60 -17.20 6.20 -23.40 15.80 -36.40 l6.80 -9.40 12 -8 c14.20 -9.80 22 -12.80 44.20 -18.20 l17 -4 77.60 0 77.40 0 18.20 4 c10 2.20 23.20 5.80 29.40 8 l11.40 4 16.40 11.20 16.40 11 11.40 12.40 11.40 12.40 62.20 94 c34.40 51.60 102.60 154.80 151.80 229 49 74.40 91.20 137.20 93.40 139.60 l4.20 4.40 9.60 0 9.60 0 3 -3.40 c1.60 -2 71.20 -105.80 154.60 -230.60 83.40 -124.80 156.40 -233 162.20 -240.20 l10.60 -13.40 13.60 -10.20 13.60 -10.40 12.60 -6 12.40 -6 21.60 -4.80 21.40 -5 77 0 77 0 20.60 5 20.40 5 7.60 3.80 c4.20 2.20 12.20 7.40 17.60 11.80 l9.80 7.80 7.60 10.80 7.40 10.80 4.40 17.80 4.20 17.80 -4.40 20.20 -4.60 20.20 -5.60 11.20 -5.40 11.40 -168.60 247.40 c-92.60 136 -171.60 252.40 -175.20 258.60 l-6.80 11.20 0 4.60 0 4.80 4.20 8 c2.20 4.60 89 130.40 192.80 279.80 l188.80 271.60 6 12.20 6.20 12 4.20 19.60 4.40 19.60 -2.20 11 c-1.40 6 -3.40 14.40 -4.40 18.40 l-2.20 7.40 -7.80 11.80 -7.80 11.80 -12.40 8.60 -12.20 8.60 -9.80 3.60 c-5.40 2.20 -18 5.60 -27.80 7.80 l-18 4 -74 0 -74.20 0 -20.40 -4.20 c-11.20 -2.40 -25.20 -6 -31 -8.20 l-10.60 -4 -14.60 -9.80 -14.60 -9.80 -11.80 -12.60 -11.80 -12.60 -171.80 -255 c-94.40 -140 -173.60 -256.80 -175.80 -259.40 l-4 -4.40 -6.40 0 -6.40 0 -3 3.60 c-1.60 1.80 -78.80 116.80 -171.60 255.40 -92.60 138.60 -172.60 257.20 -177.80 263.60 l-9.20 11.60 -16 12.20 -16 12.20 -10.80 5 c-6 2.80 -19 7.20 -29 10 l-18.20 5 -82 0.60 -82 0.60 -13 -2.80z"/>
 </g>
 <g fill="#bf00e1">
  <path fill="url(#lg0)" d="M2845 1553.80 c-8.80 -0.80 -28.20 -3.60 -43 -6 l-27 -4.20 -31.60 -7.80 c-83.20 -20.60 -146.60 -48.40 -215.40 -94.40 -84.20 -56.20 -146 -119 -204.40 -207.40 l-21.80 -33 -19.80 -40 -19.80 -40 -10 -27.20 c-22.80 -62 -40 -139.60 -46.20 -206.80 l-2 -22 0 -35 0 -35 2 -24 c11 -127.40 53.60 -251.80 120.80 -352 29.80 -44.80 51 -71 87 -107.80 42 -42.80 80.80 -73.80 136.20 -108.80 l23 -14.40 32 -15.80 32 -15.80 24 -9 c13.20 -5 36.60 -12.80 52 -17.20 l28 -8 35 -7 35 -7 29 -3.40 29 -3.20 51 1 51 1 28 4.40 c158.20 24.20 274.20 76.60 422 190 33 25.20 81.20 68.60 123.80 111.20 35.40 35.20 104.40 110.80 114 124.40 l5.40 8 2.80 10.40 2.80 10.40 -2.20 11 -2.20 10.80 -7.20 9.80 c-4 5.60 -21.60 28.60 -39.20 51.60 -17.60 22.80 -46.80 61.40 -65 85.60 l-33 44.20 -6.40 4.20 -6.40 4.20 -10.60 2.80 -10.60 2.60 -12 -3 -11.80 -3 -11.20 -11 c-6.20 -6.20 -25.60 -27.80 -43.20 -48.20 -17.80 -20.40 -46.60 -51.80 -64 -69.80 l-31.80 -33 -30.60 -27.60 c-92.40 -83.40 -170.20 -131 -257.40 -157.60 l-20 -6.20 -25 -4.40 -25 -4.20 -49 -0.20 -49 0 -23.60 4.60 -23.60 4.60 -23.40 8 -23.40 8.20 -25 12.40 c-48.40 24.20 -84.60 52 -121.40 93.20 l-17 19 -15.40 23.20 -15.40 23 -11.20 23 c-20.60 41.80 -33.80 81.80 -40 121.80 l-2.60 17 0 50 0 50 2.60 17 c6.20 40 19.40 80.20 39.60 121 l11.20 22.80 13.40 20.60 13.40 20.60 18.80 21.80 18.80 21.60 20.80 18.40 20.60 18.20 17.20 11.40 c33.40 22.40 67.40 38.60 107.40 51.40 l20 6.40 28 4 28.20 4 40 -0.80 40 -0.80 22 -3.40 22 -3.40 24 -7 c67.80 -20 142 -60.60 208 -113.80 51.60 -41.60 120.40 -108.60 175 -170.80 7.20 -8.20 14 -15.80 15 -17 33.40 -37 90.80 -110.20 184 -235.20 15.20 -20.40 30.20 -40.20 33.40 -44 3 -3.80 21 -26.40 40 -50 59.40 -74.40 102.60 -123 163.60 -184 l45 -45 31 -26.40 c145.60 -124.40 275.20 -192 423 -220.60 40.60 -7.80 51.80 -9.40 81.60 -12.20 l25.60 -2.40 47.40 1.20 47.40 1 26 4 c156 24.40 278.80 84.20 389 189.80 l24.60 23.60 20.20 24 c103.80 122.80 161.20 261.20 176.40 425 l2.80 31 0 28 0 28 -3 32 c-14.40 157.20 -70.80 296 -168 415 l-15.60 19 -30.20 30.20 -30.20 30 -25.40 20.20 c-104.40 82.60 -208.80 127.20 -346.60 148 l-24 3.60 -60 0 -60 -0.20 -24 -3.40 c-63.40 -9.40 -110.40 -20.60 -160.60 -38.20 -67 -23.40 -121.20 -50.80 -187.40 -94.20 -52.80 -34.80 -82 -57.20 -135.80 -104 l-32.20 -27.80 -41 -41.20 -41 -41 -30 -33.80 c-16.60 -18.40 -33.80 -38.80 -38.40 -45 l-8.60 -11.20 -2 -10.60 -2.20 -10.40 2.40 -10.80 2.40 -10.80 9.20 -12 c5 -6.60 23 -30 39.60 -51.80 16.80 -21.80 45 -58.80 62.60 -82.40 l31.80 -42.80 7 -4.60 7 -4.80 10 -2.40 10 -2.20 11.60 2.60 11.40 2.40 5.80 4.40 c3.20 2.20 12.20 11.80 20 21.20 30 36 57.80 66.40 97.40 106.80 l41 41.80 30 26.20 c41.60 36.40 53.20 45.60 88 69.40 52.60 36.20 111.80 64.80 164 79.60 l22 6.20 20 3.20 20 3.20 41 1 41 1 28 -4.20 28.20 -4 24.40 -8 24.60 -8 26.80 -13 26.80 -12.80 17.60 -11.60 c70.40 -45.80 125.20 -114.40 157.40 -197.20 l9 -22.60 6 -23.40 6 -23.20 3.20 -28.20 3 -28 0 -24.20 0 -24.20 -3 -28.80 -3 -28.80 -6.20 -23.60 -6 -23.60 -9 -23 -9 -23 -12 -23 -12 -22.80 -13 -18.60 c-15.80 -23 -18.40 -26 -45.80 -54.40 l-22 -22.60 -16 -12.60 c-23.20 -18.20 -42.60 -30 -72 -44.20 l-26 -12.60 -24 -7.80 -24 -7.80 -22 -3.80 -22 -3.80 -48 0 -48 0.20 -25 4.40 -25 4.40 -20 6.20 c-60.20 18.80 -125.80 53.20 -181.40 95 -65 48.80 -153.40 134.60 -216.60 209.80 -6.40 7.80 -16.40 19.40 -22 26 -21.60 25 -71 88 -110.60 141 -38.60 51.60 -64.80 86.60 -83.40 110.60 -14 18.40 -55.40 70.20 -61.80 77.60 -3.40 3.80 -9.80 11.40 -14.20 16.80 -70 85.80 -183.40 198.60 -249.20 248 -3 2.20 -13.80 10.40 -24 18.20 -136 102.40 -270.60 157.60 -422.80 173.80 l-28 3 -42 -0.20 -42 -0.40 -16 -1.60z m131 -76 c10.40 -1 30.20 -3.80 44 -6 l25 -4 22 -5.80 c102 -27.20 203.20 -79 297 -152 33.20 -26 54.40 -44 94.60 -81.60 l33.80 -31.40 35.60 -38 c72.20 -77.20 126 -142.20 203 -245 79.20 -105.80 97.20 -129.40 127.80 -167 57 -70 100.60 -118.20 156.40 -173 l41.80 -41 25 -20.80 c117.80 -98.40 213.40 -145.20 333.80 -163.20 l18.80 -2.80 28.20 -1.40 28.20 -1.20 23.80 2.20 23.60 2.20 30.20 6.20 30.20 6 26.20 8.80 26 8.60 19.60 9 c26.40 12.40 51.80 27.60 79.40 47.60 l23 16.80 23.80 23 23.80 23 15.80 19.80 c35.40 44 59.20 85.20 78.20 135.20 l7.40 19 8.80 35 8.80 35 3.60 28 3.40 28 0 32 0 32 -2.40 21 c-3 26.60 -8.20 52 -17.20 85 l-7 26 -8.40 21 c-4.60 11.60 -13.40 31 -19.80 43.40 l-11.40 22.40 -12.60 18.60 c-6.80 10.20 -17.80 25.80 -24.40 34.60 l-12 16 -29.20 29 -29.20 29.20 -15 11.20 c-8.20 6 -22.60 16.20 -32 22.40 l-17 11.40 -28 13.80 -28 13.80 -20.40 7 c-26.80 9.20 -64 18.20 -92.60 22.60 l-23 3.40 -39 0 -39 0 -24 -3.60 c-108.80 -15.80 -202.60 -59.80 -311.40 -146.20 -50.60 -40 -124 -111.40 -178.40 -173.40 -14.20 -16.20 -26 -29.40 -26.40 -29 -0.20 0.20 -16.40 22 -36.20 48.40 -19.80 26.40 -42.40 56.20 -50.20 66.20 l-14.20 18.40 26.40 29.60 c30.60 34.80 93.20 98 123.60 125 64.20 57.40 111.40 92.60 172.80 129.40 l28 16.60 30 14.80 c82 40 147.60 59.60 233 69.20 l21 2.40 47 0 47 0 20 -2.40 c11 -1.20 30.40 -4.20 43 -6.40 l23 -3.80 25.20 -7 c78.60 -21.80 157 -61.60 221.80 -113.20 l21 -16.60 32.20 -32.20 32.20 -32 16.60 -21 c74.60 -94 122 -206.20 139.40 -328.60 l3.40 -24.40 0 -65 0 -65 -3.40 -23.80 c-18.80 -125.20 -63.80 -231 -139 -326.20 l-19 -24 -31.20 -31 -31.20 -31.20 -19 -15 c-52.60 -42 -112.40 -75.40 -177 -99.40 -59 -21.80 -114 -32.60 -183 -35.40 l-29 -1.40 -34 2.20 -34 2.20 -25 4 c-59.60 9.20 -102.20 21.40 -161 46.40 -172.20 73.20 -332.80 214 -521.20 456.60 -18 23 -37 48.40 -92.80 123 -161.80 216.40 -299.60 353 -433.20 429.60 -27 15.60 -54.60 28.60 -84.20 39.60 l-23.40 8.80 -30.60 8 -30.60 8 -28 4.40 -28 4.20 -39 0.20 -39 0.20 -19 -2.60 c-96.40 -13.40 -179.40 -52 -252.80 -117.60 -40.80 -36.40 -81.20 -90 -107.20 -142.60 l-11.60 -23.20 -8.20 -22.60 -8.40 -22.80 -7.80 -32 -8 -32 -3.40 -22.20 -3.40 -22.40 0 -44 0 -44 3.40 -22.40 3.40 -22.20 8 -32 7.80 -32 8.40 -22.80 8.20 -22.60 12 -24 12 -24 13 -20 c7.20 -11 20 -29 28.40 -40 l15.20 -19.80 22 -22.20 22.20 -22 16.60 -13 c9 -7.20 25.60 -19.20 36.80 -26.60 l20.40 -13.60 27.60 -13.80 27.60 -13.80 24.40 -8 c30.40 -10 49.60 -14.80 80.80 -20 l24.40 -4 26.60 -1.40 26.60 -1.40 25 2.40 c136.20 12.60 245.20 64.40 380 180.80 l23 20 46 46.40 46 46.60 25 29 c13.80 16 25.40 29.20 26 29.20 0.60 -0.20 16.80 -21.40 36 -47.20 19.20 -26 41.60 -55.60 49.60 -66 l14.80 -18.80 -1 -2.60 c-1.80 -4.40 -57.20 -64.80 -89.20 -97 -109.40 -109.80 -207.40 -181.20 -316.20 -229.60 -63.60 -28.40 -116.20 -44 -180.80 -53.60 l-22 -3.20 -33 -2 -33.20 -2 -30 1.20 c-87.80 3.80 -161 22.20 -238 59.80 -70.80 34.60 -120 70.20 -176.40 127.40 -77.20 78.40 -130.80 171.60 -163.80 284.40 l-7 24.40 -4.80 27 c-2.80 14.80 -6.40 38.80 -8.20 53 l-3.20 26 0 50 0 50 3.20 26 c1.60 14.40 5.40 38.20 8 53 l5 27 7 24 c28 97.60 77.80 190.20 139.40 259 72.40 81 148.60 134.40 245.20 172.80 l28.60 11.20 24.40 7.20 24.60 7 26 4.80 c25.20 4.40 57.20 8.40 82 9.80 18.40 1.20 81.80 -0.80 103 -3z"/>
  <path fill="url(#lg0)" d="M186 1552.80 c-2.80 -0.60 -13.40 -2.80 -23.60 -5 l-18.60 -4.20 -14.40 -7.20 -14.40 -7.20 -14 -14 -14 -14.20 -6.60 -12.40 -6.40 -12.20 -5.60 -20.80 -5.40 -20.60 0 -589 0 -589 5.40 -21.60 5.60 -21.40 3.80 -7.60 c2 -4 7.80 -13 12.80 -19.80 l9.20 -12.40 11.20 -8.20 c6 -4.40 14.20 -10 17.80 -12.20 l6.80 -4 23.40 -5.80 23.40 -6 45 0 44.80 0 20.40 4.20 20.40 4 12.80 6.20 12.60 6 12.40 12.40 12.60 12.20 7.20 14.60 7.40 14.80 2.40 11.80 2.40 11.80 1.40 0 c0.80 0 7.60 -3.80 15 -8.20 93.80 -57 243.80 -103.80 383.80 -119.60 l34 -4 32 -1.20 32 -1.40 37.80 2.20 38 2.40 20 3 c45.40 6.80 88.80 18.80 119.20 33 l17 8 22.80 15.40 23 15.40 17.60 16.80 17.80 16.80 11.40 14.40 c6.20 7.80 13.20 16.80 15.40 20 l4.20 5.60 14.80 -10 c40.20 -27 105.20 -61 154 -80.20 64.20 -25.40 141.80 -45.20 213 -54.40 l30 -3.80 41 -2.40 41 -2.20 28 1.40 c15.40 0.60 38.40 2.60 51 4.20 l23 3 31 7 31 7.20 17 6 c9.40 3.20 25.60 10 36 14.80 l19 9 23 15.40 23 15.40 20.60 20 20.80 19.80 14.40 20.20 c25.20 34.60 38.60 60.80 50.80 99.40 7.60 24 17.20 66.20 21.80 95.60 l3.40 23 0.60 478.80 0.80 478.80 -3.20 17.80 -3 17.80 -5.20 15.60 -5.20 15.60 -10.20 13.80 -10.40 13.60 -12 9.60 c-15.20 12.40 -23.80 16.40 -48.20 23 l-19.80 5.40 -62 0.20 -62 0 -20.80 -5.60 c-24 -6.40 -30.40 -9.60 -47.60 -22 l-12.40 -9.20 -8.20 -11.20 c-4.60 -6.20 -10.40 -15.40 -13 -20.80 l-5 -9.60 -4.40 -16.80 -4.40 -16.80 -1.20 -446 -1.20 -446 -3.20 -21 -3.20 -21 -5.40 -15 c-3 -8.20 -8 -19.60 -11.20 -25.20 l-5.80 -10.20 -8.80 -8.20 -8.80 -8.20 -8.60 -4.40 c-4.80 -2.40 -13.40 -6 -19.40 -8 l-10.80 -3.80 -22.40 -2.20 -22.20 -2.20 -36 1.20 -36 1.20 -24.80 3 c-45.40 5.60 -77.60 14.40 -130.80 35.40 l-26.40 10.20 -43 21.80 c-23.60 11.80 -50 25.60 -58.40 30.60 l-15.40 9 -0.20 441.40 -0.20 441.60 -1.80 12 c-2.40 16.40 -7.40 37.60 -11.80 48.80 l-3.60 9.40 -8.20 12.20 -8.20 12.20 -11.40 10 -11.20 10 -11.80 6.40 -11.80 6.20 -19.60 5.20 -19.40 5 -47.60 1 -47.60 1 -16.20 -2.40 c-9 -1.20 -24 -4.60 -33.40 -7.20 l-17.20 -5 -13.60 -9.20 -13.60 -9.20 -9.80 -10.80 -9.60 -11 -6.40 -11.80 -6.20 -11.80 -5.40 -19.60 -5.20 -19.40 -1.20 -456 -1.20 -456 -3.40 -14.60 -3.20 -14.60 -8.80 -18.40 -8.80 -18.40 -10 -9.40 -10 -9.20 -9.80 -5 c-5.40 -2.60 -14.20 -6.20 -19.80 -8 l-10 -3.20 -19.40 -2.20 -19.40 -2 -21.60 0 c-11.80 0 -34.20 1 -49.60 2.20 l-28 2 -29 5 -29 4.80 -25 7.20 c-49.80 14.60 -109 39.20 -161 67 l-30 16.20 -2.60 3.20 -2.40 3.20 0 447.80 0 447.60 -5 22.20 -5 22.40 -4.80 10 c-2.60 5.60 -8.80 15.80 -14 22.80 l-9.20 12.40 -12.40 9.20 c-7 5 -16 11 -20 13 l-7.60 3.80 -20.40 5.40 -20.60 5.20 -55 0.60 c-30.20 0.20 -57.20 0 -60 -0.40z m128 -80.60 c5 -2.60 11.20 -6.60 13.60 -9 l4.80 -4.20 4.60 -9 4.60 -9.20 2.20 -11.80 2.20 -11.80 0 -445.40 0 -445.40 3.20 -14.40 3.40 -14.40 8.20 -12.20 8.20 -12.20 14 -9.60 14 -9.40 43 -22 43 -21.80 33 -13 c39.40 -15.60 57 -21.20 98 -31.40 36.20 -9 69.40 -15 102.80 -18.20 l23.60 -2.20 45.40 1 45.20 1 21 5 21.20 5 15 5.80 15 5.80 11.40 7.60 c6.20 4.20 15.80 11.60 21.20 16.40 l9.80 8.80 10 13.60 c5.40 7.40 12.80 19 16.20 25.80 l6.20 12.40 5 17.60 c2.80 9.60 7.20 27.60 9.40 39.60 l4.40 22 1 453 1.20 453 4.20 9 4.20 9 5.80 5.80 5.80 5.80 9 4.20 9 4.20 55.60 0.60 55.60 0.60 11 -3.20 11.20 -3.20 8.60 -8 8.60 -7.80 4.60 -10.60 4.80 -10.40 1.20 -455 1 -455 3.60 -13 3.60 -13 7.60 -10.20 7.80 -10.20 9.60 -7 c36.40 -26.40 133.40 -73.20 192 -92.80 l27.20 -9 29.20 -7 c16 -4 40.80 -9 55.20 -11.20 l26 -4 51 -1 51 -1 20 3.20 20 3 18 5.20 c9.80 3 23.40 7.80 30 11 l12 5.80 14 10.60 13.80 10.60 10.60 13 10.60 13 8.80 17 8.80 17 4 14 c4.40 15.20 9.20 36 12.80 55.60 l2.20 12.40 1.20 449 1.20 449 4.60 11.20 4.40 11 5.60 5.20 c3 2.80 9.40 7.20 14.40 9.80 l9 4.80 65 0 65 0 9 -4.20 9 -4.20 5.80 -5.80 5.80 -5.80 4.20 -9 4.20 -9 0.60 -477 0.60 -477 -2.20 -25 -2.20 -25 -4.80 -24.20 -5 -24.20 -6.20 -17.80 c-3.40 -9.80 -9.80 -25.40 -14 -34.60 l-8 -17 -12.80 -19.20 -12.80 -19.20 -16.40 -16.60 -16.40 -16.40 -14.20 -10.20 c-36.40 -25.60 -86.20 -44.80 -137.20 -52.60 l-21 -3.40 -46.20 -1 -46.40 -1.20 -32.60 2.40 c-36.80 2.80 -81 8.40 -109.60 14.40 -94.60 19.40 -190 60.60 -285.80 123.40 l-18.20 12 -14.60 3.40 -14.60 3.40 -11 -3.20 -10.80 -3.20 -7.60 -5.20 -7.60 -5.40 -14.40 -20.20 -14.40 -20.20 -17.20 -17.60 -17 -17.80 -13 -9.80 -13 -9.80 -19 -9.80 -19 -9.80 -21 -7.40 -21 -7.20 -22 -3.80 c-12 -2 -34.20 -4.60 -48.80 -5.80 l-27 -2.20 -38 0 -38.20 0 -24 2 c-151.40 12.80 -290.40 57.20 -403.20 129 l-19.60 12.40 -12.20 2.60 -12.40 2.60 -9.80 -2.20 -10 -2.40 -7.20 -5 -7.40 -5 -5.60 -8.20 c-6.60 -10 -8.80 -17 -12.60 -41.20 l-2.80 -18.60 -3.80 -8.40 -3.80 -8.60 -4.80 -4.20 -4.80 -4.40 -8 -2.60 -8 -2.80 -49 0 -49 0 -10.20 4.60 -10.40 4.60 -5 5.40 -5.20 5.40 -4.60 10 -4.60 10 -0.60 589 -0.40 589 3.40 11 3.40 11 8.20 8.60 8 8.60 11 4 11 3.80 61 -0.60 61 -0.40 9 -4.80z"/>
  <path fill="url(#lg0)" d="M5180 1541 c-7.20 -1.60 -19 -4.80 -26.20 -7 l-13.40 -4 -11.80 -8.80 -11.80 -8.60 -6.40 -7.80 c-3.60 -4.20 -8.20 -11.40 -10.40 -15.80 l-3.80 -8 -3 -15 -3 -15 1.80 -9.40 c1 -5.20 3.20 -15.20 5 -22 l3.20 -12.60 6 -10.60 c3.40 -6 90.40 -131.60 193.40 -279 103 -147.60 189.20 -272 191.80 -276.40 l4.60 -8 0 -6.60 0 -6.60 -2.80 -6.40 c-1.40 -3.60 -80.40 -120.20 -175.20 -259.40 l-172.40 -253 -6 -12.40 -5.80 -12.40 -3.80 -18.40 -3.80 -18.60 3 -15.20 c3.60 -17.20 6.20 -23.40 15.80 -36.40 l6.80 -9.40 12 -8 c14.20 -9.80 22 -12.80 44.20 -18.20 l17 -4 77.60 0 77.40 0 18.20 4 c10 2.20 23.20 5.80 29.40 8 l11.40 4 16.40 11.20 16.40 11 11.40 12.40 11.40 12.40 62.20 94 c34.40 51.60 102.60 154.80 151.80 229 49 74.40 91.20 137.20 93.40 139.60 l4.20 4.40 9.60 0 9.60 0 3 -3.40 c1.60 -2 71.20 -105.80 154.60 -230.60 83.40 -124.80 156.40 -233 162.20 -240.20 l10.60 -13.40 13.60 -10.20 13.60 -10.40 12.60 -6 12.40 -6 21.60 -4.80 21.40 -5 77 0 77 0 20.60 5 20.40 5 7.60 3.80 c4.20 2.20 12.20 7.40 17.60 11.80 l9.80 7.80 7.60 10.80 7.40 10.80 4.40 17.80 4.20 17.80 -4.40 20.20 -4.60 20.20 -5.60 11.20 -5.40 11.40 -168.60 247.40 c-92.60 136 -171.60 252.40 -175.20 258.60 l-6.80 11.20 0 4.60 0 4.80 4.20 8 c2.20 4.60 89 130.40 192.80 279.80 l188.80 271.60 6 12.20 6.20 12 4.20 19.60 4.40 19.60 -2.20 11 c-1.40 6 -3.40 14.40 -4.40 18.40 l-2.20 7.40 -7.80 11.80 -7.80 11.80 -12.40 8.60 -12.20 8.60 -9.80 3.60 c-5.40 2.20 -18 5.60 -27.80 7.80 l-18 4 -74 0 -74.20 0 -20.40 -4.20 c-11.20 -2.40 -25.20 -6 -31 -8.20 l-10.60 -4 -14.60 -9.80 -14.60 -9.80 -11.80 -12.60 -11.80 -12.60 -171.80 -255 c-94.40 -140 -173.60 -256.80 -175.80 -259.40 l-4 -4.40 -6.40 0 -6.40 0 -3 3.60 c-1.60 1.80 -78.80 116.80 -171.60 255.40 -92.60 138.60 -172.60 257.20 -177.80 263.60 l-9.20 11.60 -16 12.20 -16 12.20 -10.80 5 c-6 2.80 -19 7.20 -29 10 l-18.20 5 -82 0.60 -82 0.60 -13 -2.80z m164.40 -72.80 l13.60 -1.80 13 -6.20 13.20 -6 9.40 -9.80 9.40 -9.80 167.80 -250.80 c92.40 -138 171.40 -255.40 175.60 -261 l7.60 -10.20 12 -8.40 11.80 -8.20 15.60 -4 c19 -4.80 24.40 -4.80 41.80 -0.80 l13.40 3 8.20 4.20 8 4 11.20 11.40 11 11.20 170 253 170 252.80 11 11.80 11 11.80 11.60 5.80 11.40 5.80 15.80 2.20 15.60 2.20 68.80 -0.80 68.80 -0.60 11.80 -5.60 11.80 -5.40 -1 -10 -1 -10 -6.80 -11 c-3.80 -6 -89.20 -129.40 -189.80 -274.20 -100.60 -144.80 -186.20 -268.60 -190.20 -275 l-7.40 -11.80 -4.20 -15.60 -4.20 -15.60 0 -10.20 0 -10 4 -15.60 4 -15.60 5.40 -9.40 c3.20 -5 82.40 -122 176.20 -259.60 l170.60 -250.40 4 -9 4 -9.20 -0.60 -6.40 -0.60 -6.40 -10 -5 -10 -5 -81 0 -81 0 -15.20 7.40 -15.40 7.60 -8.60 9.80 -8.80 9.60 -154 230.80 -154 230.80 -8.20 8.20 -8.20 8.20 -9.20 5.60 -9.40 5.40 -14.60 3.80 -14.40 3.80 -8.60 0 -8.60 0 -14.40 -3.20 -14.40 -3.20 -7.20 -3.80 -7.20 -3.60 -11.20 -10.20 -11.20 -10.20 -33.40 -50.40 c-18.40 -27.80 -87 -131.40 -152.40 -230.40 l-119 -180 -11 -11.40 -11 -11.40 -11.80 -5.20 -11.80 -5.20 -12.60 -2 -12.60 -2 -71.80 0.60 -71.80 0.60 -10 5 -10 5 -0.60 6.40 -0.60 6.60 7.20 13.40 7.20 13.60 169 248 c93 136.40 171.40 252.40 174 257.60 l5 9.60 4.20 18 4.20 17.80 -3.40 17.40 -3.60 17.20 -4.60 10.20 -4.40 10.20 -84 120 c-46 66 -131.80 188.80 -190.40 272.80 l-106.60 152.60 -4.80 10.40 -4.80 10.20 0 5.20 0 5.20 3.60 3 c5.60 5 12.40 8 22.20 9.60 l9.20 1.60 65 0 65 0.20 13.40 -1.60z"/>
 </g>
 <g fill="#a000d9">
  <path fill="url(#lg0)" d="M3316 1130 l-2.80 -1.60 2.60 -3.20 2.60 -3.20 -50.60 0 -50.80 -0.20 9 -7.40 c4.80 -4 22.80 -19.60 40 -34.60 l31 -27.40 41.20 -41.60 c64.40 -65.60 125.20 -136.60 189 -220.80 12 -16 26 -34.40 31 -41 5.20 -6.60 22.60 -30 39 -52 37.60 -50.80 117.20 -150.40 149.40 -187 58.80 -67 121.60 -130 178.40 -179.20 65 -56.40 152.40 -115.80 214 -145.60 48.60 -23.60 91.40 -41 118.80 -48.40 6.20 -1.80 14 -4 17.20 -4.80 51 -14.40 101.80 -24 148.40 -28 l28.60 -2.60 44.40 1.20 44.60 1.20 22 3 c50.80 7.20 116.20 23.60 159.80 40 82.40 31 165.40 83.80 233.40 148.80 l21 20 22.20 25.60 c19.60 22.60 31.40 37.80 54 69.80 22.40 31.40 53.60 88.40 66.60 121.40 3.60 9.20 7.80 19.40 9.20 22.60 3.60 7.80 10.20 27 14.80 42 1.80 6.60 5.80 19.80 8.60 29.40 10.40 34.20 22.40 99.40 26.40 143.60 l3 31 0 20 c0 43.40 -7.40 118.60 -15 150 -1.60 6.60 -4.20 19.20 -6 28 -1.80 8.80 -4 18.80 -5 22 -1 3.40 -4.20 14.20 -7.20 24 -3 10 -6.60 22.40 -8.40 27.80 l-3 9.80 -3.80 1 -4 1 2.40 1.40 2.20 1.40 -1.40 5.20 -1.20 5.40 -3.80 0 -3.80 0 0 1.80 c0 1 1.20 2.40 2.60 2.80 l2.40 1 -3.40 0.20 -3.60 0.20 0 1.80 c0 1 1 2.20 2.20 2.60 l2.40 0.80 -1.40 4.40 -1.40 4.40 -4 0 -3.80 0 0 2 0 1.80 -37.80 0.60 -37.60 0.60 2.40 -7.20 c1.40 -3.80 5 -11.80 7.80 -17.60 6.60 -12.80 21.20 -53.60 30.40 -84.20 8 -26.80 15.40 -62 20.20 -96.60 l3.40 -24.40 0 -65 0 -65 -3.40 -23.80 c-18.80 -125.20 -63.80 -231 -139 -326.20 l-19 -24 -31.20 -31 -31.20 -31.20 -19 -15 c-52.60 -42 -112.40 -75.40 -177 -99.40 -59 -21.80 -114 -32.60 -183 -35.40 l-29 -1.40 -34 2.20 -34 2.20 -25 4 c-59.60 9.20 -102.20 21.40 -161 46.40 -172.20 73.20 -332.80 214 -521.20 456.60 -18 23 -37 48.40 -92.80 123 -77.80 104 -143.60 182 -212.60 252.40 l-32.80 33.40 -3 -1.20 -2.80 -1.20 -5.80 5.60 -6 5.60 2 2.40 2 2.40 -6.60 4.80 -6.40 4.80 -3.60 -0.60 -3.60 -0.60 -3 2.40 -2.80 2.40 1 3.60 1.20 3.40 -1.80 1 -1.60 1.20 -2.80 -1.80z"/>
  <path fill="url(#lg0)" d="M4064.80 1129.80 c-1.20 -1.60 -2.80 -4.40 -3.40 -6.40 l-1.40 -3.60 -2.60 0.60 -2.80 0.60 -7.80 -7.20 c-4.20 -4 -8.80 -8.80 -10.20 -11 l-2.20 -3.80 -2 0.40 -2 0.40 -39.60 -40.40 c-22 -22.20 -51.40 -53.60 -65.60 -69.80 -14.20 -16.20 -26 -29.40 -26.40 -29 -0.20 0.20 -12.80 17 -27.80 37.40 -15.20 20.40 -36.20 48 -46.60 61.60 l-19 24.40 -4.20 0 -4.20 0 3 2 3 1.80 -2.40 2.40 -2.40 2.40 5.80 7.40 5.80 7.40 -1.20 1.20 -1.20 1.40 3.80 1.40 c3.60 1.20 10.40 8.80 9.20 10.20 -0.20 0.40 -20.60 0.60 -45.40 0.40 l-45 -0.20 0 2.20 0 2.20 -2 -1.20 -2 -1.20 0 -4 0 -4 -2 1.20 -2 1.20 0 -3 c0 -1.60 -1.40 -7.20 -3 -12 l-3.20 -9 2.40 -9.60 c3.40 -13.40 5.80 -17.60 21.20 -36.60 7.40 -9.40 16.80 -21.20 20.60 -26.20 3.80 -5.20 20.40 -27.20 36.80 -49 16.40 -22 32.20 -43 35.20 -46.80 3 -3.80 10.80 -14.40 17.60 -23.20 l12.20 -16.40 7.40 -6 7.40 -6.20 9.80 -2.20 9.60 -2.40 13.20 2.60 13 2.60 8.40 8.20 c4.60 4.40 21.20 22.80 36.60 41 15.60 18.20 40.20 45.60 54.80 61 14.60 15.40 32.40 34.60 39.80 42.60 l13.20 14.40 2.20 0 2.40 0 12.20 13 c6.60 7.20 13 13 14 13 1 0 5 3.60 8.80 8 3.80 4.40 7.60 8 8.80 8 1 0 3.40 1.60 5.20 3.60 l3.40 3.80 -1.40 1.20 -1.20 1.40 4 0 4 0 4.60 5 4.60 5 -1.80 0.20 c-1 0.20 0.40 0.80 3.20 1.60 l5 1.60 -0.40 2.20 -0.60 2.40 3.80 0 4 0 1.60 2.60 c0.80 1.20 1.60 3.60 1.80 5 l0.40 2.40 -50 0 -50 0 2.40 3 2.40 2.80 -0.80 2.40 -0.80 2.20 -2 -2.60z"/>
  <path fill="url(#lg0)" d="M346.20 828.80 l-0.20 -302.40 3.20 -14.40 3.40 -14.40 8.20 -12.20 8.20 -12.20 14 -9.60 14 -9.40 43 -22 43 -21.80 33 -13 c39.40 -15.60 57 -21.20 98 -31.40 36.20 -9 69.40 -15 102.80 -18.20 l23.60 -2.20 45.40 1 45.20 1 21 5 21.20 5 15 5.80 15 5.80 11.40 7.60 c6.20 4.20 15.80 11.60 21.20 16.40 l9.80 8.80 10 13.60 c5.40 7.40 12.80 19 16.20 25.80 l6.20 12.40 5 17.60 c2.80 9.60 7.20 27.60 9.40 39.60 l4.40 22 0.60 270.60 0.80 270.40 -3.20 0 -3 0 0 24 0 24 -34 0 -33.80 0 -0.80 -292.40 -0.80 -292.60 -3.20 -17 c-3.40 -19 -7.60 -31.20 -16.80 -49 l-6.20 -12 -10 -9.40 -9.80 -9.20 -11.80 -5.80 c-15.20 -7.60 -24 -10 -44.60 -12.60 l-16.80 -2 -30.20 0 -30.20 0 -28 3 c-63 6.60 -105.80 17.40 -166 41.20 -26.80 10.60 -23.60 9.20 -61.20 27.60 -38.20 18.60 -61.60 31.40 -65.20 35.80 l-2.60 3.20 0 299.60 0 299.60 -3 0 -3 0 0 -4 0 -4 -32.80 0 -33 0 -0.80 4.60 c-0.40 2.40 -1 -131.60 -1.20 -297.80z"/>
  <path fill="url(#lg0)" d="M1775.60 837 l-0.80 -294 -2.60 -15 c-3.20 -20.20 -9 -38 -17.60 -55.60 l-7.40 -14.60 -9.20 -8.60 -9.40 -8.80 -9.80 -5 c-5.40 -2.60 -14.20 -6.20 -19.80 -8 l-10 -3.20 -17 -2.20 -16.80 -2 -31.20 0 -31 0 -34 3.80 -34 4 -19.60 4.20 c-52.40 11.40 -134.60 45 -200.40 82.20 -6.60 3.80 -14.20 8 -17 9.40 -2.80 1.40 -7.20 4.20 -9.80 6.20 l-4.60 3.60 -0.60 136.80 c-0.20 75.20 -0.60 207.60 -0.80 294.40 l-0.20 157.40 -35.80 0 -36 0 -0.80 -27.40 c-0.40 -15.20 -0.60 -150 -0.20 -299.60 l0.40 -272 3.40 -12 3.40 -12 7.60 -10.20 7.80 -10.20 9.60 -7 c36.40 -26.40 133.40 -73.20 192 -92.80 l27.20 -9 29.20 -7 c16 -4 40.80 -9 55.20 -11.20 l26 -4 51 -1 51 -1 20 3.20 20 3 18 5.20 c9.80 3 23.40 7.80 30 11 l12 5.80 14 10.60 13.80 10.60 10.60 13 10.60 13 8.80 17 8.80 17 4 14 c6 20.60 12 51.40 14.40 73.40 l2 19.40 0 284.20 0 284 -3 0 -3 0 0 -4 0 -4 -32.80 0 -33 0 -0.80 4.60 c-0.40 2.40 -1.20 -127.80 -1.80 -289.60z"/>
  <path fill="url(#lg0)" d="M2629 1126 l-3.60 -4 -42.80 0 -42.80 0 1.20 1.80 1 2 -1.80 1 -1.80 1.20 -1.20 -5 -1.20 -5 -2 0.60 -2.20 0.40 -3.40 -6 c-1.80 -3.20 -4.40 -6.80 -5.80 -8 -4.60 -4.20 -21.40 -32 -32.60 -54.60 l-11.60 -23.40 -8.20 -22.60 -8.40 -22.80 -7.80 -32 -8 -32 -3.40 -22.20 -3.40 -22.40 0 -44 0 -44 3.40 -22.40 3.40 -22.20 8 -32 7.80 -32 8.40 -22.80 8.20 -22.60 12 -24 12 -24 13 -20 c7.20 -11 20 -29 28.40 -40 l15.20 -19.80 22 -22.20 22.20 -22 16.60 -13 c9 -7.20 25.60 -19.20 36.80 -26.60 l20.40 -13.60 27.60 -13.80 27.60 -13.80 24.40 -8 c30.40 -10 49.60 -14.80 80.80 -20 l24.40 -4 26.60 -1.40 26.60 -1.40 25 2.40 c136.20 12.60 245.20 64.40 380 180.80 l23 20 46 46.40 46 46.60 25 29 c13.80 16 25.40 29.20 26 29.20 0.60 -0.20 16.80 -21.40 36 -47.20 19.20 -26 41.60 -55.60 49.60 -66 l14.80 -18.80 -1 -2.60 c-1.80 -4.40 -57.20 -64.80 -89.20 -97 -109.40 -109.80 -207.40 -181.20 -316.20 -229.60 -63.60 -28.40 -116.20 -44 -180.80 -53.60 l-22 -3.20 -33 -2 -33.20 -2 -30 1.20 c-87.80 3.80 -161 22.20 -238 59.80 -70.80 34.60 -120 70.20 -176.40 127.40 -77.20 78.40 -130.80 171.60 -163.80 284.40 l-7 24.40 -4.80 27 c-2.80 14.80 -6.40 38.80 -8.20 53 l-3.20 26 0 50 0 50 3.20 26 c1.60 14.40 5.40 38.20 8 53 l5 27 7 24 c8.60 30.20 19.80 61.20 33.20 91.80 l10.40 23.80 -2.80 1.60 -2.60 1.60 -0.60 -3 -0.80 -3 -38.20 0.40 -38.40 0.40 -0.60 -6.40 -0.60 -6.20 -1.80 0 -1.60 0 -3.20 -8 c-1.80 -4.40 -3.20 -10.40 -3.20 -13 l0 -5 -1.80 0 -2 0 -6.20 -20.40 c-3.40 -11.40 -7.20 -24.20 -8.40 -28.60 -1 -4.40 -2.80 -10 -3.60 -12.20 -4.20 -11 -18.60 -87.40 -22.40 -119.80 l-2.60 -22 0.20 -57 0.20 -57 5.20 -34 c7.80 -49.40 13 -75.20 20.60 -101 1.80 -6 4 -14.60 5 -19 2.80 -11.40 16.40 -51 22.80 -66 7.20 -17.20 9.80 -22.80 22 -48 40.60 -83.60 100 -161.20 172 -224.80 28 -24.80 43.20 -36.20 78 -59.20 66.80 -44 115.60 -66 200 -89.80 24.80 -7 83.40 -17.60 118.60 -21.40 l22.40 -2.40 49.60 1.20 49.40 1 14 2.20 c7.80 1.40 19.80 3.20 27 4.40 7.20 1.20 27.80 5.20 46 9 l33 6.80 26 7.80 c27.80 8.20 53.60 17.20 70 24.20 5.60 2.20 12.60 5.20 16 6.60 9.80 4 71.20 34.80 82 41.40 5.60 3.20 12.80 7.40 16 9.20 8.40 4.60 34.60 21.40 57 36.60 38.40 26 78 57.40 123 97.40 l34 30.20 42 42.80 c38.60 39.40 92.20 98.40 102.20 112.80 l4.20 6 3.20 11 3.20 11 -2.60 11.40 -2.60 11.40 -11.40 14.60 c-26.40 33.60 -60.20 78 -100.20 132 l-32 43 -6.60 4.40 -6.80 4.40 -10.80 2.40 -10.60 2.20 -10.60 -2.60 -10.60 -2.60 -6.40 -4.80 c-3.60 -2.60 -13 -12.60 -21 -22.20 -32 -38 -64.20 -73.40 -99.60 -109.20 l-37 -37.80 -29.60 -26.20 c-36.40 -32.20 -61.80 -52 -92.60 -72.40 -13 -8.60 -26.40 -17.40 -29.60 -19.60 -3.20 -2.20 -19.40 -10.80 -36 -19.20 l-30.20 -15.40 -21 -8 c-41.20 -15.80 -58.40 -20.20 -102 -26 l-25 -3.20 -41 1 -41 1.20 -20.60 4 c-34.40 6.60 -66.40 18 -102.40 36.80 -34.20 18 -60.60 37 -91.80 66.40 l-14.80 14 -18.20 22.20 -18.20 22.40 -9.80 16.60 c-23.40 39.20 -40.60 78.80 -51.20 117.80 l-5.80 21 -3.20 24.60 -3 24.80 0 38.80 0 38.60 3.20 21.60 c4.20 29 11 55.80 21.60 84 l8.80 23.60 11 21 c15.40 29.60 15.20 29 28.60 49 l12.20 18 -1 2.60 -0.80 2.40 2.60 0 c1.40 0 4 1.40 6 3.20 l3.60 3.20 -1.20 2.80 -1 2.80 4.60 1.80 4.80 1.80 11 11.20 10.80 11.20 -3 0 -3.20 0 -3.60 -4z"/>
  <path fill="url(#lg0)" d="M3569 1115 c6.40 -7.60 17.80 -20.80 25 -29 31.20 -35.20 88 -106.80 137 -172 79.20 -105.80 97.20 -129.40 127.80 -167 57 -70 100.60 -118.20 156.40 -173 l41.80 -41 25 -20.80 c117.80 -98.40 213.40 -145.20 333.80 -163.20 l18.80 -2.80 28.20 -1.40 28.20 -1.20 23.80 2.20 23.60 2.20 30.20 6.20 30.20 6 26.20 8.80 26 8.60 19.60 9 c26.40 12.40 51.80 27.60 79.40 47.60 l23 16.80 23.80 23 23.80 23 15.80 19.80 c35.40 44 59.20 85.20 78.20 135.20 l7.40 19 8.80 35 8.80 35 3.60 28 3.40 28 0 32 0 32 -2.40 21 c-7.60 65.40 -29.80 136.80 -58.60 187.60 l-8.40 14.40 -4 0 -4.20 0 2.60 1.80 2.60 1.60 -4.20 7 -4.20 7.20 -3.80 -1 -4 -1 0 2 c0 1.20 1.20 2.40 2.40 2.80 l2.60 1 -5.40 8 -5.40 8 -47.40 0.40 -47.60 0.40 -2 1.20 c-1 0.80 6.20 -8.20 16.20 -19.80 l18 -21 9.60 -14.80 c5.20 -8.20 13.40 -21 17.80 -28.80 7.80 -13 10.20 -17.80 21.20 -41.40 11.60 -25.20 23.80 -66.40 29 -97.60 l3.20 -19 1.20 -33 1.20 -33 -2.40 -28 c-4.20 -49 -13.20 -83.80 -33.80 -130 -18.40 -41.20 -35.60 -67.80 -68.60 -106 l-17.40 -20 -12.80 -11 c-22 -19.20 -32.20 -27.20 -49.80 -38.80 l-17.20 -11.20 -26.80 -12.80 -26.80 -12.80 -24 -8.20 -24 -8 -28 -4.20 -28 -4 -33 0 -33.20 0 -22.80 3 c-35 4.40 -43.60 6.20 -65 13 -33.60 10.80 -80.40 30.80 -102 43.40 -64.40 37.60 -111.40 73.20 -175 133 l-31 29.20 -32.40 34.60 c-31.60 34 -72.40 81 -95 108.80 -6.20 7.80 -17.40 21.60 -25 31 -19 23.20 -59 75.80 -111.80 147 -29 39 -37.20 50 -56.20 73.60 l-9.40 11.40 -4 0 -4.20 0 2.80 1.80 2.80 1.80 -6.80 8.80 c-3.60 4.60 -10.20 12.60 -14.40 17.60 l-7.80 9 -3.80 -0.60 -3.80 -0.60 0 2 c0 1 1.20 2.20 2.40 2.60 l2.60 1 -9.60 11 -9.60 11.20 -3.60 -1 -3.80 -1 -1.40 2.40 -1.60 2.40 2.80 1.80 2.60 1.60 -1.20 1.20 -1.20 1.20 -47.40 -0.20 -47.60 -0.20 -4.20 3.60 c-2.20 2 1.20 -2.60 7.80 -10.40z"/>
  <path fill="url(#lg0)" d="M5693.40 1126.40 l-3.40 -0.80 1.20 -1.80 1.20 -2 -40 0.60 -40.20 0.60 4.40 -7 c7.40 -12.40 117.60 -176.40 127.60 -190.20 l9.60 -13.20 12 -8.40 12 -8.20 15.60 -4 c19 -4.80 24.40 -4.80 41.80 -0.80 16.60 3.80 25.20 8 37.20 18.60 l9.40 8.40 47.40 70.40 c26.20 38.80 56.60 83.60 67.40 99.80 l19.80 29.40 -1.40 2 -1.20 2.20 -38.60 0 -38.40 0 -2.40 2.40 -2.40 2.40 0 -4.40 0 -4.40 -2.40 0.60 -2.60 0.40 0.20 -3.40 0.40 -3.60 -1.80 1.20 -1.80 1 0 -4.20 0 -4.20 -2 1.20 -2 1.20 0 -4.20 0 -4.20 -1.80 1.20 -2 1 -21.80 -32.40 c-55.60 -83 -65 -96.80 -68.80 -101 l-4.20 -4.60 -6.40 0 -6.40 0 -4 4.60 c-2.20 2.40 -23.60 33.80 -47.20 69.80 l-43 65.40 -4.20 -1.20 -4.20 -1 0 2.20 0 2.20 2 0 c1.20 0 2 0.80 2 1.80 l0 1.80 -4 -1 -4 -1 0 2.20 0 2.20 2 0 c1.20 0 2 0.80 2 1.80 l0 1.80 -4 -1 -4 -1 0 2.20 0 2.20 2 0 c1.20 0 2 0.80 2 1.80 l0 1.80 -4 -1 -4 -1 0 2 c0 1.20 1.20 2.40 2.60 3 3.60 1.20 1 2.80 -3.20 1.80z"/>
  <path fill="url(#lg0)" d="M5378.20 1123.80 l-5 -2 -38.20 0.60 -38.40 0.60 21.80 -32 c12 -17.60 27.20 -39.60 33.80 -49 6.60 -9.40 14.20 -20.20 16.80 -24 2.60 -3.80 10.20 -14.60 16.80 -24 6.60 -9.40 17 -24.20 23 -33 6 -8.80 14.40 -21 18.80 -27 4.20 -6 12 -17.20 17.40 -25 5.40 -7.60 17.20 -24.60 26.40 -37.60 9 -12.80 18.40 -27 20.60 -31.40 l4 -7.80 0 -6.20 0 -6.20 -2.80 -6.40 c-1.40 -3.60 -6.60 -12.20 -11.60 -19.40 -4.80 -7.20 -18.60 -27.40 -30.60 -45 -21 -31 -34.80 -51.20 -65.60 -96.40 -15 -22 -30.80 -45 -62.40 -91.60 -9.80 -14.20 -24.40 -35.80 -32.60 -48 -8.40 -12 -20.60 -30 -27.40 -40 -6.80 -9.80 -20.20 -29.60 -30 -44 -9.80 -14.20 -24.40 -35.80 -32.60 -48 -61.80 -90.80 -60.60 -88.60 -66.40 -107 l-4.20 -13 -1.20 -16 -1 -16 3.40 -12.80 3.20 -12.80 8 -11.80 8 -11.80 9.40 -6.80 c12.80 -9.40 23.40 -14.40 40.80 -19.40 l14.60 -4.20 81.40 -0.80 81.40 -0.80 19 4 c32 7 41.40 11 64.60 27.40 l12.20 8.80 10 11.20 10 11 35 52.40 c19.20 28.80 56.40 84.80 82.40 124.40 26.20 39.60 68.40 103.60 94 142 25.40 38.60 57.80 87.40 71.60 108.40 l25.40 38.40 3.80 2.20 4 2 6 0 6 0 4.80 -4.40 5 -4.60 155.20 -232.40 155.40 -232.40 11.60 -11.80 11.60 -11.80 11.80 -8 c20.60 -13.80 35.40 -19.20 67.80 -24.60 l14 -2.40 77 0.80 77 0.80 16.40 4.40 16.20 4.40 10.60 5.60 10.60 5.40 10.20 10 10.20 10 6.60 13.20 6.60 13.40 1 16 1.20 15.80 -3.60 15.60 c-1.80 8.60 -5 19.40 -7 23.80 -3.20 7.40 -22.80 37.40 -61 93.20 -14.20 20.60 -26.80 39.20 -62 91 -9.80 14.40 -24.20 35.40 -32 47 -8 11.60 -21.20 31.20 -29.60 43.40 -8.60 12.40 -22.20 32.40 -30.40 44.60 -8.20 12.20 -21.80 32.20 -30.40 44.60 -8.40 12.20 -21.60 31.80 -29.60 43.40 -36.20 52.80 -55 80.60 -67.60 99.60 l-13.60 20.60 -1.20 5.80 -1 6 2.60 6.40 c2.20 5.80 13 22.40 34.80 53.60 22 31.40 49.20 70.40 59.80 86 5 7.20 15.20 22 23 33 7.60 11 19 27.20 25 36 6 8.80 16 23.20 22 32 l11 15.80 -2.40 1.60 -2.40 1.60 3.20 0 3.20 0 3.40 3.80 3.20 3.60 -1.20 3.40 -1.20 3.20 3.20 0 3 0 -1 3 -1.20 3 3 0 3 0 2.40 3 2.60 3.20 -1.80 1.80 -1.80 1.80 -42 0.20 -42 0.40 -84.60 -121.80 c-46.60 -66.80 -86.40 -124.80 -88.40 -128.80 -2.20 -4.20 -5.80 -14 -8 -22 l-4 -14.80 0 -10.20 0 -10.20 4 -15.60 4 -15.60 5.40 -9.40 c3.20 -5 82.40 -122 176.20 -259.60 l170.60 -250.40 4 -9 4 -9.20 -0.60 -6.40 -0.60 -6.40 -10 -5 -10 -5 -81 0 -81 0 -15.20 7.40 -15.40 7.60 -8.60 9.80 -8.80 9.60 -154 230.80 -154 230.80 -8.20 8.20 -8.20 8.20 -9.20 5.60 -9.40 5.40 -14.60 3.80 -14.40 3.80 -8.60 0 -8.60 0 -14.40 -3.20 -14.40 -3.20 -7.20 -3.80 -7.20 -3.60 -11.20 -10.20 -11.20 -10.20 -33.40 -50.40 c-18.40 -27.80 -87 -131.40 -152.40 -230.40 l-119 -180 -11 -11.40 -11 -11.40 -11.80 -5.20 -11.80 -5.20 -12.60 -2 -12.60 -2 -71.80 0.60 -71.80 0.60 -10 5 -10 5 -0.60 6.40 -0.60 6.60 7.20 13.40 7.20 13.60 169 248 c93 136.40 171.40 252.20 174 257.60 l4.80 9.40 4.20 17.60 4.20 17.40 -3.20 18 -3.40 18.20 -5.40 10.80 -5.40 11 -73.60 105.60 -73.80 105.40 -4.20 0 -4.40 0 2.60 1.80 2.60 1.60 -5.60 8.80 -5.60 8.80 -4 -0.60 -4 -0.60 2.80 2 2.80 1.80 -3.40 5.20 c-1.80 2.80 -3.40 5.20 -3.80 5 -0.20 0 -2.60 -1 -5.20 -2z"/>
  <path fill="url(#lg0)" d="M64 688.80 l0 -433.20 5.20 -21.40 5.20 -21.20 7.60 -13 c4.20 -7.20 10.80 -16.60 14.60 -21 l6.80 -8 14.40 -9.80 14.40 -9.80 20.40 -6 20.40 -6 45.60 -0.80 45.40 -1 20.20 3.40 c11 1.80 24.40 4.60 29.60 6.20 l9.40 2.80 12.60 8.40 12.60 8.40 7.80 9 8 9 7 14.60 7 14.40 2.20 11 2.40 11.20 2.20 0 c1.20 0 3 -0.80 4.20 -1.80 1 -1 5.40 -3.80 9.80 -6.40 4.40 -2.40 13.40 -7.40 20 -11.20 40.60 -23 112.80 -52.60 165 -67.40 6 -1.60 16.80 -4.80 24 -7 15.20 -4.40 49 -12.20 89 -20.40 l28 -5.80 39 -5.20 39 -5 32 -1.40 32 -1.40 43 1.40 43 1.20 22 3.40 c21.60 3.20 27.60 4.40 64 13.20 l18 4.20 18 7 c24.80 9.60 34.60 14.80 61 32.20 l23 15.20 23 23.20 23.20 23 9.60 13.60 c5.20 7.40 10 13.40 10.40 13.40 0.40 0 9.60 -5.80 20.20 -12.60 33.60 -21.80 91.80 -53.20 125.60 -67.60 56.60 -24.20 109.20 -40.20 176 -53.60 l30 -6 34 -4.20 34 -4.40 39 -1.20 39 -1.40 34 1.40 34 1.20 20 3.20 c33.20 5.40 83 18.40 104 27.20 3.40 1.40 13.60 6.20 23 10.60 l17 8 22.80 15.20 22.80 15.20 20.60 19.60 20.60 19.60 14.80 20.40 c24.60 33.80 37.20 58.20 48.80 93.20 11.80 36.20 21.20 79.20 24.40 112.40 l2 20.80 1.40 254.60 1.20 254.40 -3.20 0 -3.20 0 0 16 0 16 3 0 3 0 -1.40 6.60 c-0.60 3.40 -2 6.80 -3 7 l-1.60 0.80 0 47.80 0 47.80 -33.80 0 -34 0 -0.60 -45.40 c-0.40 -25.20 -1 -170 -1.20 -321.80 l-0.40 -276.40 -2.20 -21.60 -2 -21.80 -4.80 -24.20 -5 -24.20 -6.20 -17.80 c-3.40 -9.80 -9.80 -25.40 -14 -34.60 l-8 -17 -12.80 -19.20 -12.80 -19.20 -16.40 -16.60 -16.40 -16.40 -14.20 -10.20 c-36.40 -25.60 -86.20 -44.80 -137.20 -52.60 l-21 -3.40 -46.20 -1 -46.40 -1.20 -32.60 2.40 c-36.80 2.80 -81 8.40 -109.60 14.40 -94.60 19.40 -190 60.60 -285.80 123.40 l-18.20 12 -14.60 3.40 -14.60 3.40 -11 -3.20 -10.80 -3.20 -7.60 -5.20 -7.60 -5.40 -14.40 -20.20 -14.40 -20.20 -17.20 -17.60 -17 -17.80 -13 -9.80 -13 -9.80 -19 -9.80 -19 -9.80 -21 -7.40 -21 -7.20 -22 -3.80 c-12 -2 -34.20 -4.60 -48.80 -5.80 l-27 -2.20 -38 0 -38.20 0 -24 2 c-151.40 12.80 -290.40 57.20 -403.20 129 l-19.60 12.40 -12.20 2.60 -12.40 2.60 -9.80 -2.20 -10 -2.40 -7.20 -5 -7.40 -5 -5.60 -8.20 c-6.60 -10 -8.80 -17 -12.60 -41.20 l-2.80 -18.60 -3.80 -8.40 -3.80 -8.60 -4.80 -4.20 -4.80 -4.40 -8 -2.60 -8 -2.80 -49 0 -49 0 -10.20 4.60 -10.40 4.60 -5 5.40 -5.20 5.40 -4.60 10 -4.60 10 -0.60 410.60 -0.40 410.40 -3 0 -3 0 0 24 0 24 -34 0 -34 0 0 -433.20z"/>
 </g>
 <g fill="#7500cf">
  <path fill="url(#lg0)" d="M1844 731 l0 -11 -33 0 -33 0 -0.40 10.60 c-0.20 5.60 -1 -33.60 -1.60 -87.60 l-1.40 -98 -2.40 -16 c-3 -19.60 -8.40 -37.80 -16.60 -55 l-6.20 -13 -7.20 -7.60 c-4 -4.40 -10.80 -10.20 -15.20 -13.40 l-8 -5.40 -14 -5.20 -14 -5 -18 -2.20 -18 -2.20 -31 0 -31 0 -34 3.80 -34 4 -19.60 4.20 c-52.80 11.40 -137.60 46.40 -201 82.80 -7 4 -13.20 7.20 -13.60 7.20 -0.60 0 -4.40 2.40 -8.80 5.20 l-8 5.40 0 48.60 0 48.80 -3 0 -3 0 0 2 c0 1.20 1 2 2 2 l2 0 0 43 0 43 -36 0 -36 0 -0.20 -43.40 c0 -24 0 -68.40 0.20 -98.60 l0.20 -55 3 -12 3.20 -12 7.60 -10.20 7.80 -10.20 9.60 -7 c36.40 -26.40 133.40 -73.20 192 -92.80 l27.20 -9 29.20 -7 c16 -4 40.80 -9 55.20 -11.20 l26 -4 51 -1 51 -1 20 3.20 20 3 18 5.20 c9.80 3 23.40 7.80 30 11 l12 5.80 14 10.60 13.80 10.60 10.60 13 10.60 13 8.80 17 8.80 17 4 14 c6 20.60 12 51.40 14.40 73.40 l2 19.40 0 90.20 0 90 -3 0 -3 0 0 -11z"/>
  <path fill="url(#lg0)" d="M346.40 633.80 l-0.40 -107.40 3.20 -14.40 3.40 -14.40 8.20 -12.20 8.20 -12.20 14 -9.60 14 -9.40 43 -22 43 -21.80 33 -13 c39.40 -15.60 57 -21.20 98 -31.40 36.20 -9 69.40 -15 102.80 -18.20 l23.60 -2.20 45.40 1 45.20 1 21 5 21.20 5 15 5.80 15 5.80 11.40 7.60 c6.20 4.20 15.80 11.60 21.20 16.40 l9.80 8.80 10 13.60 c5.40 7.40 12.80 19 16.20 25.80 l6.20 12.40 5 17.60 c2.80 9.60 7 28 9.20 40.60 l4.20 23 1 50.60 1.20 50.40 -3.40 0 -3.20 0 0 42 0 42 -33.80 0 -33.80 0 -1 -91.40 -1.20 -91.60 -3 -17 -2.80 -17 -3.80 -10 c-2.20 -5.40 -6.60 -15.40 -10 -22 l-6.20 -12 -10 -9.40 -9.80 -9.20 -11.80 -5.80 c-15.20 -7.60 -24 -10 -44.60 -12.60 l-16.80 -2 -30.20 0 -30.20 0 -28 3 c-63 6.60 -105.80 17.40 -166 41.20 -26.80 10.60 -23.60 9.20 -61.20 27.60 -38.20 18.60 -61.60 31.40 -65.20 35.80 l-2.60 3.20 0 104.60 0 104.60 -3 0 -3 0 0 -10 0 -10 -32.80 0 -33 0 -0.80 10.60 c-0.40 5.60 -0.80 -37.80 -1 -96.80z"/>
  <path fill="url(#lg0)" d="M5748.20 725.40 l-4.20 -4.60 0 -3.40 0 -3.40 -2.40 0.60 -2.60 0.40 -0.60 -4.60 -0.60 -4.40 -2 1 -1.80 1.20 0 -4.20 0 -4.20 -2 1.20 -2 1.20 0 -4.20 0 -4.20 -2 1.20 -2 1.20 0 -4 0 -4.20 -2 0.60 -2.20 0.40 -143 -216 -143 -216 -10.20 -10.40 -10.20 -10.40 -11.80 -5.20 -11.80 -5.20 -12.60 -2 -12.60 -2 -71.80 0.60 -71.80 0.60 -10 5 -10 5 -0.60 6.40 -0.60 6.60 7.20 13.40 7.20 13.60 126 185 c69.40 101.80 136.40 200 149 218.40 l22.60 33.60 -1 3 -1.20 3 3.60 0 3.60 0 -2 2 -1.80 1.80 -41.60 0.60 -41.40 0.60 0 -3.60 0 -3.60 -2 1.20 -2 1.20 0 -4.20 0 -4.20 -2 1.20 -1.80 1.20 -7.20 -11.20 c-3.80 -6 -7 -12.40 -7 -14 l0 -3 -2.40 0.40 -2.60 0.60 0.20 -3.40 0.40 -3.40 -1.80 0.40 -1.60 0.40 -12.40 -18 c-13.80 -20.20 -40.60 -59.40 -66.80 -98 -9.80 -14.20 -24.40 -35.80 -32.60 -48 -8.40 -12 -20.60 -30 -27.40 -40 -6.80 -9.80 -20.20 -29.60 -30 -44 -9.80 -14.20 -24.40 -35.80 -32.60 -48 -61.80 -90.80 -60.60 -88.60 -66.40 -107 l-4.20 -13 -1.20 -16 -1 -16 3.40 -12.80 3.20 -12.80 8 -11.80 8 -11.80 9.40 -6.80 c12.80 -9.40 23.40 -14.40 40.80 -19.40 l14.60 -4.20 81.80 -0.80 81.80 -0.80 14.20 3.20 c37.40 8.60 43 10.80 64.80 25.80 l14.80 10 10.40 11.40 10.40 11.60 35.20 52.60 c19.20 29 56.60 85 82.60 124.60 26.20 39.60 68.40 103.60 94 142 25.40 38.60 57.80 87.40 71.60 108.40 l25.40 38.40 3.80 2.20 4 2 6 0 6 0 4.80 -4.40 5 -4.60 155.20 -232.40 155.40 -232.40 11.60 -11.80 11.60 -11.80 11.80 -8 c21 -14 36.80 -19.60 68.80 -24.60 l15 -2.40 76 0.80 76 0.80 16 4.40 16 4.40 10.80 5.40 10.80 5.40 10.40 10.20 10.20 10 6.40 13 6.40 13 1.20 16 1.40 16 -3.60 16 c-2 8.80 -5.20 19.60 -7 24 -3.20 7.20 -23 37.40 -61 93 -8 11.60 -21.20 31.20 -29.60 43.60 -8.60 12.20 -22 32 -30 44 -13.80 20 -26 38 -63.80 93.40 -8.20 12.20 -23 33.80 -32.60 48 -9.80 14.40 -24 35.20 -31.60 46.60 l-14 20.40 -4.20 0.20 -4.20 0.20 2.60 1 c1.20 0.40 2.40 1.60 2.40 2.60 l0 1.60 -4 -1 -4 -1 0 2 c0 1.20 1 2.40 2.20 2.80 l2.20 0.80 -7.20 11.20 -7.20 11.20 -4 -1 -4 -1 0 2.20 0 2.20 2 0 c1.20 0 2 0.80 2 1.80 l0 1.80 -4 -1 -4 -1 0 2.20 0 2.20 2 0 c1.20 0 2 0.80 2 1.80 l0 1.80 -4 -1 -4 -1 0 2.20 0 2.20 2 0 c1.20 0 2 0.80 2 1.80 l0 1.80 -4 -1 -4 -1 1.20 -1.80 1 -1.80 -38.60 0 -38.80 0 -2.60 2.60 c-5.40 5 16.40 -27.20 161.20 -240 l148.80 -218.60 4 -9 4 -9.20 -0.60 -6.40 -0.60 -6.40 -10 -5 -10 -5 -81 0 -81 0 -15.20 7.40 -15.40 7.60 -8.60 9.80 -8.80 9.60 -141.80 212.40 -141.60 212.20 -4.40 0.20 -4.20 0.20 2.60 1 c1.20 0.40 2.40 1.60 2.40 2.60 l0 1.60 -4 -1 -4 -1 0 2.20 0 2.20 2 0 c1.20 0 2 0.80 2 1.80 l0 1.80 -4 -1 -4 -1 0 2.20 0 2.20 2 0 c1.20 0 2 0.80 2 1.80 l0 1.80 -4 -1 -4 -1 0 2.20 0 2.20 2 0 c1.20 0 2 0.80 2 1.80 l0 1.80 -4 -1 -4 -1 0 2 c0 1.20 1.20 2.40 2.40 2.80 l2.60 1 -5 7.20 -5 7.40 -0.60 -2 -0.60 -1.80 -67.20 -0.20 -67.20 0 3.40 3.80 3.40 3.80 -1.80 1.20 -1.80 1 -4.40 -4.40z"/>
  <path fill="url(#lg0)" d="M2212.20 727 c-0.80 -6.60 12.40 -72.20 19 -95 1.80 -6 4 -14.60 5 -19 2.80 -11.40 16.40 -51 22.80 -66 25.40 -60.40 50.40 -104.60 92 -162.20 15.40 -21.40 37.80 -47.60 63 -73.60 l23 -23.60 28 -23.60 28 -23.60 31.20 -21 c70 -46.80 120.20 -69.80 206.80 -94.20 18.60 -5.40 69.80 -15 100 -19.20 l30 -3.80 55 0.60 55 0.80 14 2.20 c7.80 1.40 22.20 3.80 32.40 5.40 21.40 3.40 71.40 14 78.60 16.60 2.80 1 8.60 2.60 13 3.80 23.60 6.40 58.80 18.20 78 26.40 5.60 2.20 12.60 5.20 16 6.60 9.80 4 71.20 34.80 82 41.40 5.60 3.20 13.60 7.80 18 10.20 4.40 2.40 10.20 6 13 7.80 2.80 2 15.40 10.40 28 18.60 42.40 27.40 92.80 67 143 111.80 l28 25 41 41.80 c39.60 40.40 90.20 96.20 101.80 112 l5.80 7.80 3 11 3.20 11 -2.60 11.40 -2.60 11.40 -11.40 14.60 c-6.40 8 -16.40 21 -22.20 28.60 -6 7.80 -18 23.40 -27 35 l-16 21 -4 -0.60 -4 -0.60 0 2 0 2.20 2.20 0 2.20 0 -1 2.60 -0.80 2.40 -4.20 -0.60 -4.40 -0.60 0 2 0 2.20 2.20 0 2.20 0 -1 2.60 -0.80 2.40 -4.20 -0.60 -4.40 -0.60 0 2 0 2.20 2.20 0 2.20 0 -1 2.60 -0.80 2.40 -4.20 -0.60 -4.40 -0.60 0 2 0 2.20 2.20 0 2.20 0 -1 2.60 -0.80 2.40 -4.20 -0.60 -4.40 -0.60 0 2 c0 1 1.20 2.20 2.60 2.80 l2.40 0.80 -2.20 2.40 -2.20 2.40 -3.20 -3 -3 -3.20 -71.80 0 -71.60 -0.20 -6.40 -6.20 -6.60 -6.40 0 -4 0 -3.80 -1.40 1.40 -1.40 1.20 -7.60 -7.40 -7.60 -7.40 0 -3.40 0 -3.40 -3 -2.40 -3 -2.40 0 1.60 c0 1 -8.60 -6.80 -19 -17.20 l-19 -19 0 -2.20 c0 -1.20 -1.80 -3.80 -4 -5.80 l-4 -3.60 0 1.60 c0 0.80 -8.40 -6.40 -18.40 -16.20 -44 -42.40 -87 -77.60 -126.60 -103.60 -13.20 -8.80 -26.60 -17.60 -29.80 -19.80 -3.20 -2.20 -19.40 -10.80 -36 -19.20 l-30.20 -15.40 -21 -8 c-41.20 -15.80 -58.40 -20.20 -102 -26 l-25 -3.20 -40 1 -40 1 -18.80 3.40 -18.80 3.20 -19.20 6 c-24.40 7.60 -43.80 15.80 -70.20 29.60 -32.60 16.80 -58.80 36 -89.80 65.20 l-14.80 14 -16.40 20 c-9 11 -19 24 -22.40 29 -9.60 14.40 -29.60 51.60 -36.80 68.60 l-6.60 15.40 -3.60 0 -3.60 0 0 1.80 c0 1 1 2.20 2.40 2.60 l2.20 0.80 -1.40 5.40 -1.20 5.40 -4 0 -4 0 0 1.80 c0 1 1.20 2.40 2.60 2.80 l2.40 1 -3.40 0.20 -3.60 0.20 0 1.80 c0 1 1.20 2.40 2.60 2.80 l2.40 1 -3.40 0.20 -3.60 0.20 0 2 c0 1.20 1 2 2 2 1.20 0 2 1 2 2 l0 2 -3.40 0 -3.60 0 3 2 2.80 1.80 -1.60 1.60 -1.60 1.60 -36.40 1 -36.40 1 6.40 -25 6.40 -25 8 -21.40 c4.40 -11.60 13.20 -31.40 19.40 -44 l11.40 -22.60 13 -20 c7.20 -11 20 -29 28.40 -40 l15.20 -19.80 22 -22.20 22.20 -22 16.60 -13 c9 -7.20 25.60 -19.20 36.80 -26.60 l20.40 -13.60 27.60 -13.80 27.60 -13.80 24.40 -8 c30.40 -10 49.60 -14.80 80.80 -20 l24.40 -4 26.60 -1.40 26.60 -1.40 25 2.40 c136.20 12.60 245.40 64.60 380 181 l23 19.80 44.60 44.80 44.60 44.80 -1.20 2 -1.20 1.80 2.60 0 2.60 0.20 14 16 14 16 -0.40 2 -0.60 1.80 2.20 0 c2.60 0 10.60 9.60 11 13.60 0.40 1.60 0.80 3 1.20 3 0.40 0.20 2.80 1.60 5.40 3.20 l5 2.60 2.60 -3.60 c1.40 -2.20 4.20 -6 6 -8.80 8.60 -12 64.60 -86.60 77.20 -102.60 l13.80 -17.60 -1 -2.40 c-1.80 -4.60 -57 -64.80 -89.20 -97.20 -109.40 -109.80 -207.40 -181.20 -316.20 -229.60 -63.60 -28.40 -116.20 -44 -180.80 -53.60 l-22 -3.20 -33 -2 -33.20 -2 -30 1.20 c-87.80 3.80 -161 22.20 -238 59.80 -70.80 34.60 -120 70.20 -176.40 127.40 -57 58 -98.40 119.80 -133.80 200 l-9.20 20.80 -11.60 35 c-6.20 19.20 -13.60 43.40 -16 53.60 l-4.60 18.40 -3.20 0.20 -3.20 0.20 2.60 1 2.40 1 0 4.20 c0 2.40 -0.60 6.40 -1.20 9 l-1.20 4.40 -2.80 0 -2.80 0 0 1.80 c0 1 1.20 2.20 2.80 2.80 l2.80 1.20 -1 4 -1 4.20 -2.80 0 -2.80 0 0 -3 0 -3 -32.80 0 -33 0 -0.80 4.60 c-0.40 2.40 -1 3.60 -1.20 2.40z"/>
  <path fill="url(#lg0)" d="M3968.20 726.20 l-2.80 -1.80 1.40 -2.20 1.40 -2.20 -43.20 0 -43.20 0 8.60 -10.60 c15.80 -19.40 28.40 -33.80 55.80 -64.20 l27.20 -30.20 41.80 -41 41.80 -41 25 -20.80 c117.80 -98.40 213.40 -145.20 333.80 -163.20 l18.80 -2.80 28.20 -1.40 28.20 -1.20 23.80 2.20 23.60 2.20 30.20 6.20 30.20 6 26.20 8.80 26 8.60 19.60 9 c26.40 12.40 51.80 27.60 79.40 47.60 l23 16.80 23.80 23 23.80 23 15.80 19.80 c16.40 20.60 35.40 47.80 45.80 65.80 15.40 26.80 38.20 79.80 41 95.20 0.80 4 2.20 8.80 3.20 10.60 l1.60 3.60 -3 -1.20 -3 -1.20 0 2.20 0 2.20 3 0 c1.60 0 3 0.40 3 1 0 0.60 1.60 7.20 3.80 14.60 l3.80 13.60 -3.80 0 -3.80 0 0 -1.60 0 -1.60 -33.40 0 -33.60 0 -2.40 -5.40 c-1.40 -3 -3.60 -10.20 -5 -16 l-2.60 -10.60 -1.20 0 c-0.80 0 -2.60 -3.40 -3.80 -7.40 -5.20 -16.20 -20.80 -48.60 -34 -70.40 -12.40 -21 -21.80 -33.20 -45.60 -60.80 l-18.80 -21.40 -19.40 -16.20 c-41.80 -35.20 -83.80 -58.40 -139.40 -77 l-20.60 -6.80 -28.60 -4.20 -28.60 -4.20 -42 1 -42 1 -21 3.20 -21 3.40 -23 7 c-35.80 11.20 -82.40 30.80 -105 44.20 -68 40.20 -112.20 73.80 -178 136 -18.60 17.60 -36.20 34.40 -38.80 37.40 l-4.80 5.20 -3.40 0 -3.40 0 -4.40 4.80 -4.40 4.80 2.60 1 2.60 1 -10.60 11 -10.80 11 -3.60 -1 -3.60 -1 -1.40 2.40 -1.60 2.40 2.80 1.80 2.80 1.60 -6.60 6.80 -6.80 7 -3.80 -1 -3.80 -1 0 2 c0 1.20 1.20 2.40 2.60 3 l2.40 1 -6 6.20 -6 6 -2.80 -1.60z"/>
  <path fill="url(#lg0)" d="M3663.40 724.60 l-3.40 -1 1 -1.80 1.20 -1.80 -40 0 -40.20 0 0 -1.40 c0 -1 5.80 -9 12.60 -18 6.80 -9 16.80 -22.60 22.20 -30 14.80 -20.40 85.20 -108.20 106.80 -133.60 10.40 -12 21.20 -24.60 24 -28 9 -10.60 22.20 -25.20 57.80 -63.20 l34.60 -37 34.60 -32.20 c62.40 -58.20 91.20 -81.60 153.40 -124.80 27.60 -19.40 35.80 -24.60 62 -40 52.20 -30.80 125.40 -63.40 167.80 -75 6.20 -1.80 14 -3.80 17.20 -4.80 23 -6.40 55.40 -14 75 -17.60 40.20 -7.40 46.40 -8.20 75.60 -10.60 l28.80 -2.40 42.20 1.20 42.40 1 23.80 3.40 c38.40 5.20 75.60 13.60 127.20 28.60 85.60 24.80 183.40 83 261.60 155.80 l22.40 21 22.20 25.20 c20.60 23.40 40.20 48.40 54.80 70.20 17 25.20 20.20 30.20 26.60 41.20 22 38 34.40 62.80 44.60 89 3.20 8.20 6.80 16.80 7.80 19 2.60 5.20 9.40 24.80 14 40 1.80 6.60 6 20 8.80 30 3 9.80 7.20 26.80 9.40 37.80 l4 20.20 -2.20 0.60 c-1 0.40 -2 1.60 -2 2.60 l0 1.80 3 0 3 0 0 3 0 3 -2 0 c-1 0 -2 1 -2 2 l0 2 3 0 3 0 0 3.80 0 3.80 -2.40 1 -2.60 1 3.60 0.20 3.40 0.20 0 3.80 0 3.80 -3.20 1.20 -3.20 1.20 -32.60 0 -32.80 0 -1.40 -4.40 c-0.80 -2.60 -1.40 -5.80 -1 -7.20 0.20 -1.60 -0.40 -3.80 -1.20 -5 -1 -1.40 -2 -5.60 -2.40 -9.40 -0.20 -3.80 -1.80 -11 -3.20 -16 -1.60 -5 -6 -20.60 -10 -34.80 -23.60 -82.40 -64.20 -161.20 -118.60 -230.20 l-19 -24 -31.20 -31 -31.20 -31.20 -19 -15 c-52.60 -42 -112.40 -75.40 -177 -99.40 -59 -21.80 -114 -32.60 -183 -35.40 l-29 -1.40 -34 2.20 -34 2.20 -25 4 c-101.40 15.60 -193.80 52.80 -295 119 -106.60 69.60 -225.40 182.60 -337.80 321.60 l-15.60 19.40 -4.40 0 -4.20 0 2.80 1.80 2.80 1.80 -17.80 22.80 -17.80 22.60 -4 -0.60 -4 -0.60 2.80 1.80 2.80 2 -5.60 7.20 -5.40 7.20 -4.40 0 -4.20 0 2.80 1.80 2.80 1.80 -1.40 2 -1.20 2 -4 -1 -4 -1 0 2 c0 1.20 1.20 2.40 2.60 3 l2.40 1 -2 1.80 -2 2 -3.60 -0.80z"/>
  <path fill="url(#lg0)" d="M64 487.80 l0 -232.20 5.20 -21.40 5.20 -21.20 7.60 -13 c4.20 -7.20 10.80 -16.60 14.60 -21 l6.80 -8 14.20 -9.60 14 -9.60 20.80 -6.20 20.60 -6.40 52 0 52 -0.20 18 3.60 18 3.80 8.40 3.60 c17.80 7.80 35.40 23.60 45.60 40.80 5.80 9.80 15 35.20 15 41.20 l0 4 2.60 0 c1.40 0 3.40 -0.80 4.60 -1.80 1 -1 5.40 -3.80 9.80 -6.40 4.40 -2.40 13.40 -7.40 20 -11.20 40.60 -23 112.80 -52.60 165 -67.40 6 -1.60 16.80 -4.80 24 -7 33.40 -9.80 109.20 -25.20 156 -31.60 l37 -5 58.40 -1 58.40 -1.20 26.60 2.40 c35.60 3.20 64.20 8.60 108.80 20 24 6.20 52.40 19.80 82.80 39.80 l23 15.20 23 23.20 23.20 23 9.60 13.40 c5.20 7.60 10 13.60 10.40 13.60 0.40 0 9.60 -5.80 20.20 -12.60 33.60 -21.80 91.80 -53.20 125.60 -67.60 28.60 -12.20 75 -29 94 -34 72.80 -19.20 125.20 -28.80 184 -33.80 l24 -2 47 0 47 0 26.40 3 26.40 3 17.60 3.80 c48.60 11 67 17 100.60 32.80 l17 8 22.80 15 22.60 15.20 20 19 20 19 14.20 19 c31.40 42.40 48 78.40 61.20 133.20 2.40 10 5.20 21.20 6.20 25 1 3.80 3.40 15.60 5.20 26 l3.20 19 1.40 64 c0.60 35.20 1 97 0.60 137.60 l-0.40 73.40 -35.80 0 -35.60 0 -1.40 -120.40 -1.40 -120.60 -2 -22 -2 -22 -4.80 -24.20 -5 -24.20 -6.20 -17.80 c-3.40 -9.80 -9.80 -25.40 -14 -34.60 l-8 -17 -12.80 -19.20 -12.80 -19.20 -16.40 -16.60 -16.40 -16.40 -14.20 -10.20 c-36.40 -25.60 -86.20 -44.80 -137.20 -52.60 l-21 -3.40 -46.20 -1 -46.40 -1.20 -32.60 2.40 c-36.80 2.80 -81 8.40 -109.60 14.40 -94.60 19.40 -190 60.60 -285.80 123.40 l-18.20 12 -14.60 3.40 -14.60 3.40 -11 -3.20 -10.80 -3.20 -7.60 -5.20 -7.60 -5.40 -14.40 -20.20 -14.40 -20.20 -17.20 -17.60 -17 -17.80 -13 -9.80 -13 -9.80 -19 -9.80 -19 -9.80 -21 -7.40 -21 -7.20 -22 -3.80 c-12 -2 -34.20 -4.60 -48.80 -5.80 l-27 -2.20 -38 0 -38.20 0 -24 2 c-151.40 12.80 -290.40 57.20 -403.20 129 l-19.60 12.40 -12.20 2.60 -12.40 2.60 -9.80 -2.20 -10 -2.40 -7.20 -5 -7.40 -5 -5.60 -8.20 c-6.60 -10 -8.80 -17 -12.60 -41.20 l-2.80 -18.60 -3.80 -8.40 -3.80 -8.60 -4.80 -4.20 -4.80 -4.40 -8 -2.60 -8 -2.80 -49 0 -49 0 -10 4.60 -10 4.60 -5.40 5.20 -5.40 5 -4.60 10.40 -4.60 10.20 -0.60 191.60 -0.40 191.40 -3 0 -3 0 0 42 0 42 -34 0 -34 0 0 -232.20z"/>
 </g>
</svg>