<?xml version="1.0" encoding="utf-8"?>
<svg version="1.2" baseProfile="tiny-ps" xmlns="http://www.w3.org/2000/svg" width="6620px" height="1667px" viewBox="0 0 6620 1667" preserveAspectRatio="xMidYMid meet">
   <defs>
      <linearGradient id="lg0" gradientUnits="userSpaceOnUse" x1="49.84894%" y1="6.235012%" x2="49.84894%" y2="92.68585%">
         <stop offset="1%" style="stop-color:rgb(97,0,203);"></stop>
         <stop offset="100%" style="stop-color:rgb(203,0,227);"></stop>
      </linearGradient>
   </defs>
 <g fill="#ededed">
  <path d="M2845 1553.80 c-98.40 -10 -202.80 -43.20 -280 -88.80 -124 -73.40 -220.20 -176.80 -283 -304 -36 -73 -57.60 -143 -70.80 -231 -10 -66.40 -9.80 -141.40 1 -208 22.80 -142.80 70.80 -253.20 157.20 -361.60 27.60 -34.60 75.80 -82 114.60 -112.60 49 -38.60 120.60 -79.20 177 -100.40 51.60 -19.40 120.80 -36 179 -42.60 40.20 -4.60 119 -3 159 3.20 158.20 24.20 274.20 76.60 422 190 33 25.20 81.20 68.60 123.80 111.20 35.40 35.20 104.40 110.80 114 124.40 13.20 19 12.80 41.80 -0.60 60.40 -4 5.60 -21.60 28.60 -39.20 51.60 -17.60 22.80 -46.80 61.40 -65 85.60 -18.20 24.40 -35.80 46.20 -39.40 48.40 -3.40 2.40 -11.20 5.40 -17 7 -9 2.20 -12.20 2.20 -22.60 -0.40 -14.40 -3.60 -19.40 -8.20 -66.20 -62.20 -87 -100.20 -174.60 -179.40 -250 -226.20 -60.40 -37.40 -122.40 -62.40 -178.80 -72.40 -21 -3.60 -32.60 -4.20 -74 -4.40 -42.80 0 -52 0.60 -72.60 4.60 -54.40 10.60 -119.80 40.60 -161 74 -64 51.80 -105.40 108.60 -134.20 184.60 -18.40 48.60 -23.20 78.80 -23.20 144.80 0 31.40 1 56.20 2.60 67 11.40 73.40 46.80 149.40 96.40 206.80 61.60 71.20 146.20 119 232.80 131.40 34.20 5 94.60 4.40 130.20 -1 78.20 -12.20 172 -58 254 -124.20 51.60 -41.60 120.40 -108.60 175 -170.80 7.20 -8.20 14 -15.80 15 -17 33.40 -37 90.80 -110.20 184 -235.20 15.20 -20.40 30.20 -40.20 33.40 -44 3 -3.80 21 -26.40 40 -50 99.80 -125.20 198 -225.60 292.60 -299 122.80 -95.40 240.80 -152 370 -177 65 -12.40 92.20 -14.80 154.60 -13.40 63.40 1.40 111.80 9 176.60 27.60 208.60 59.80 383.20 224.80 461.60 436.20 38 102.40 54.60 220.80 45.20 322.60 -14.40 157.20 -70.80 296 -168 415 -22.80 27.80 -72.20 76.20 -101.40 99.40 -104.40 82.60 -208.80 127.20 -346.60 148 -34 5 -133.40 5 -168 0 -63.40 -9.40 -110.40 -20.60 -160.60 -38.20 -67 -23.40 -121.20 -50.80 -187.40 -94.20 -74.80 -49.40 -136.60 -100.40 -209 -173 -40.80 -40.80 -93.20 -98.20 -109.40 -119.80 -16.20 -21.60 -15.80 -43.60 1.20 -65.80 5 -6.60 23 -30 39.60 -51.80 16.80 -21.80 45 -58.80 62.60 -82.40 17.60 -23.60 35 -44.80 38.80 -47.40 11 -7.60 24.80 -10 38.60 -6.80 14.40 3.20 19.80 7 37.20 28 62.20 74.20 150 162.40 207.60 208.40 84.40 67.40 176 112.20 254.80 124.80 11 1.80 38.40 3.60 61 4.20 51.40 1.20 84.20 -3 121.60 -15.20 29.60 -9.80 71.80 -29.80 95.80 -45.40 99 -64.40 168.60 -177.40 181.60 -294.60 10 -91.60 -4.60 -172.80 -45.20 -250.20 -11.40 -21.80 -31.60 -52.80 -43.40 -66.60 -14.60 -17.20 -51.20 -53.20 -65.40 -64.40 -47.80 -37.40 -112.60 -66.80 -168 -76.20 -33.20 -5.80 -108.60 -5.20 -143 0.80 -70.80 12.40 -154.60 51.40 -226.40 105.60 -65 48.80 -153.40 134.60 -216.60 209.80 -6.40 7.80 -16.40 19.40 -22 26 -21.60 25 -71 88 -110.60 141 -38.60 51.60 -64.80 86.60 -83.40 110.60 -14 18.40 -55.40 70.20 -61.80 77.60 -3.40 3.80 -9.80 11.40 -14.20 16.80 -70 85.80 -183.40 198.60 -249.20 248 -3 2.20 -13.80 10.40 -24 18.20 -136 102.40 -270.60 157.60 -422.80 173.80 -30 3.20 -100.60 3.60 -128 0.80z"/>
  <path d="M186 1552.80 c-44.20 -8 -64.40 -17 -85 -37.60 -17.20 -17.40 -25.40 -32.40 -32.60 -59.60 l-5.40 -20.60 0 -589 0 -589 5.40 -21.60 c3 -11.80 7.20 -24.80 9.40 -29 7.20 -14 22 -32.20 33.20 -40.40 18.20 -13.40 23.60 -16 48 -22 22.40 -5.80 25.20 -6 68.40 -6 70 0 97.80 7.40 123.40 32.80 14.20 14 25.60 34.60 29.60 53.40 1.40 6.40 3 11.80 3.80 11.80 0.80 0 7.60 -3.80 15 -8.20 93.80 -57 243.80 -103.80 383.80 -119.60 121.40 -13.80 237.80 -1.20 313 34 45.80 21.40 91.80 60.80 125 106.80 l4.20 5.60 14.80 -10 c40.20 -27 105.20 -61 154 -80.20 64.20 -25.40 141.80 -45.20 213 -54.40 66.80 -8.60 137.80 -9.60 191 -2.80 28 3.60 79 15.20 102 23.20 75.80 26.60 139.40 79.20 179.80 149 16.80 29 29.40 63.80 40 110.60 14 61.80 13 21.20 13.60 551.80 0.80 523.40 1.40 493.80 -10.60 530 -6.20 19 -20.60 38.80 -37.80 52.60 -15.20 12.40 -23.80 16.40 -48.20 23 -19.40 5.40 -20.80 5.40 -81.80 5.60 -61.80 0 -62 0 -82.80 -5.60 -24 -6.40 -30.40 -9.60 -47.60 -22 -20.60 -15.40 -35 -37.80 -43 -67.60 l-4.40 -16.80 -1.20 -446 c-1.40 -488.80 -0.80 -468.80 -13 -503 -20.80 -58.20 -56.20 -74.60 -154 -71.20 -77 2.60 -120.40 11.60 -191.60 39.60 -27.20 10.60 -100.60 46.60 -127.80 62.60 l-15.40 9 -0.20 441.40 c0 246 -1 447 -2 453.60 -6.60 44.80 -18.60 70.80 -43.20 92.60 -15.20 13.60 -31 21.60 -54.40 27.80 -17.40 4.60 -24.20 5.20 -67 6 -51.80 1.20 -68.40 -0.40 -97.20 -8.60 -29.20 -8.40 -55.80 -30 -70.20 -57 -3.40 -6.60 -8.60 -20.60 -11.60 -31.40 l-5.20 -19.40 -1.20 -456 c-1.40 -511.80 0 -468.60 -16.60 -503.60 -20.20 -42.40 -54 -57.40 -128.80 -57.40 -73.40 0 -142.40 12.40 -209.60 37.60 -49.80 18.60 -137.60 61 -144.60 70 -1.80 2.40 -2.40 95.80 -2.40 451 l0 447.60 -5 22.20 c-2.80 12.40 -7.20 26.80 -9.80 32.40 -10.60 23 -32.40 45.60 -55.60 57.40 -4.20 2.20 -16.80 6.20 -28 9.20 -19.40 5 -23.60 5.20 -75.60 5.80 -30.20 0.20 -57.20 0 -60 -0.40z"/>
  <path d="M5180 1541 c-26 -5.80 -39.60 -11 -51.40 -19.80 -21.20 -15.60 -30.20 -29.60 -35.40 -55.20 -2 -10.80 -2.40 -17.60 -1.20 -24.40 4 -20.40 8.60 -35 14.20 -45.20 3.40 -6 90.40 -131.60 193.40 -279 103 -147.60 189.20 -272 191.80 -276.40 5.20 -9.20 5.80 -18.20 1.80 -27.60 -1.40 -3.60 -80.40 -120.20 -175.20 -259.40 -94.80 -139.20 -175.20 -258.60 -178.40 -265.40 -3.20 -6.80 -7.60 -20.60 -9.60 -30.80 -3.60 -17.40 -3.60 -19.60 -0.80 -33.80 1.80 -8.20 4.40 -17.60 6 -21 5.80 -12.20 17 -25 28.60 -32.80 14.20 -9.80 22 -12.80 44.20 -18.20 15.60 -3.60 23.80 -4 94.60 -4 70.40 0 79 0.40 95.60 4 10 2.20 23.20 5.80 29.40 8 15.60 5.40 41.80 23.60 55.60 38.60 6.20 6.80 39.40 54.60 73.60 106.40 34.40 51.60 102.60 154.80 151.80 229 49 74.40 91.20 137.20 93.40 139.60 5.40 5.60 21.80 6.20 26.40 1 1.60 -2 71.20 -105.80 154.60 -230.60 83.40 -124.80 156.40 -233 162.20 -240.20 12.20 -15.20 32.20 -31.20 50.40 -40 6.80 -3.20 22 -8.20 34 -10.80 20.60 -4.80 24 -5 98.40 -5 75.20 0 77.40 0.20 97.60 5 23.20 5.60 31.40 9.40 45.60 20.60 15.20 12 24 26.40 29.20 47.20 l4.20 17.80 -4.40 20.20 c-2.60 11.20 -7 25.20 -10.20 31.40 -3 6.40 -81.40 122.80 -174 258.80 -92.60 136 -171.60 252.40 -175.20 258.60 -8 13 -8.40 17.60 -2.60 28.60 2.20 4.60 89 130.40 192.80 279.80 103.80 149.40 191.60 277 194.80 283.80 3.40 6.60 8.20 20.80 10.40 31.60 4.60 20.40 4.40 25.40 -2.20 49 -3.60 12.80 -17 30.40 -30.20 39.60 -14.40 10.20 -25.60 14.60 -49.80 20 -16.20 3.60 -25.20 4 -92 4 -67.80 0 -76 -0.40 -94.60 -4.20 -11.20 -2.40 -25.20 -6 -31 -8.20 -15.40 -5.80 -38.20 -21.60 -51.60 -36.20 -7.20 -7.60 -79.40 -113 -183.60 -267.60 -94.40 -140 -173.60 -256.80 -175.80 -259.40 -5 -5.40 -15.40 -6 -19.80 -0.80 -1.60 1.80 -78.80 116.80 -171.60 255.40 -92.60 138.60 -172.60 257.20 -177.80 263.60 -10.80 13.60 -36.40 33.80 -52 41 -6 2.80 -19 7.20 -29 10 -18 5 -19.40 5 -100.20 5.60 -65.40 0.40 -84.60 0 -95 -2.20z"/>
 </g>
 <g fill="#bf00e1">
  <path fill="url(#lg0)" d="M2845 1553.80 c-98.40 -10 -202.80 -43.20 -280 -88.80 -124 -73.40 -220.20 -176.80 -283 -304 -36 -73 -57.60 -143 -70.80 -231 -10 -66.40 -9.80 -141.40 1 -208 22.80 -142.80 70.80 -253.20 157.20 -361.60 27.60 -34.60 75.80 -82 114.60 -112.60 49 -38.60 120.60 -79.20 177 -100.40 51.60 -19.40 120.80 -36 179 -42.60 40.20 -4.60 119 -3 159 3.20 158.20 24.20 274.20 76.60 422 190 33 25.20 81.20 68.60 123.80 111.20 35.40 35.20 104.40 110.80 114 124.40 13.20 19 12.80 41.80 -0.60 60.40 -4 5.60 -21.60 28.60 -39.20 51.60 -17.60 22.80 -46.80 61.40 -65 85.60 -18.20 24.40 -35.80 46.20 -39.40 48.40 -3.40 2.40 -11.20 5.40 -17 7 -9 2.20 -12.20 2.20 -22.60 -0.40 -14.40 -3.60 -19.40 -8.20 -66.20 -62.20 -87 -100.20 -174.60 -179.40 -250 -226.20 -60.40 -37.40 -122.40 -62.40 -178.80 -72.40 -21 -3.60 -32.60 -4.20 -74 -4.40 -42.80 0 -52 0.60 -72.60 4.60 -54.40 10.60 -119.80 40.60 -161 74 -64 51.80 -105.40 108.60 -134.20 184.60 -18.40 48.60 -23.20 78.80 -23.20 144.80 0 31.40 1 56.20 2.60 67 11.40 73.40 46.80 149.40 96.40 206.80 61.60 71.20 146.20 119 232.80 131.40 34.20 5 94.60 4.40 130.20 -1 78.20 -12.20 172 -58 254 -124.20 51.60 -41.60 120.40 -108.60 175 -170.80 7.20 -8.20 14 -15.80 15 -17 33.40 -37 90.80 -110.20 184 -235.20 15.20 -20.40 30.20 -40.20 33.40 -44 3 -3.80 21 -26.40 40 -50 99.80 -125.20 198 -225.60 292.60 -299 122.80 -95.40 240.80 -152 370 -177 65 -12.40 92.20 -14.80 154.60 -13.40 63.40 1.40 111.80 9 176.60 27.60 208.60 59.80 383.20 224.80 461.60 436.20 38 102.40 54.60 220.80 45.20 322.60 -14.40 157.20 -70.80 296 -168 415 -22.80 27.80 -72.20 76.20 -101.40 99.40 -104.40 82.60 -208.80 127.20 -346.60 148 -34 5 -133.40 5 -168 0 -63.40 -9.40 -110.40 -20.60 -160.60 -38.20 -67 -23.40 -121.20 -50.80 -187.40 -94.20 -74.80 -49.40 -136.60 -100.40 -209 -173 -40.80 -40.80 -93.20 -98.20 -109.40 -119.80 -16.20 -21.60 -15.80 -43.60 1.20 -65.80 5 -6.60 23 -30 39.60 -51.80 16.80 -21.80 45 -58.80 62.60 -82.40 17.60 -23.60 35 -44.80 38.80 -47.40 11 -7.60 24.80 -10 38.60 -6.80 14.40 3.20 19.80 7 37.20 28 62.20 74.20 150 162.40 207.60 208.40 84.40 67.40 176 112.20 254.80 124.80 11 1.80 38.40 3.60 61 4.20 51.40 1.20 84.20 -3 121.60 -15.20 29.60 -9.80 71.80 -29.80 95.80 -45.40 99 -64.40 168.60 -177.40 181.60 -294.60 10 -91.60 -4.60 -172.80 -45.20 -250.20 -11.40 -21.80 -31.60 -52.80 -43.40 -66.60 -14.60 -17.20 -51.20 -53.20 -65.40 -64.40 -47.80 -37.40 -112.60 -66.80 -168 -76.20 -33.20 -5.80 -108.60 -5.20 -143 0.80 -70.80 12.40 -154.60 51.40 -226.40 105.60 -65 48.80 -153.40 134.60 -216.60 209.80 -6.40 7.80 -16.40 19.40 -22 26 -21.60 25 -71 88 -110.60 141 -38.60 51.60 -64.80 86.60 -83.40 110.60 -14 18.40 -55.40 70.20 -61.80 77.60 -3.40 3.80 -9.80 11.40 -14.20 16.80 -70 85.80 -183.40 198.60 -249.20 248 -3 2.20 -13.80 10.40 -24 18.20 -136 102.40 -270.60 157.60 -422.80 173.80 -30 3.20 -100.60 3.60 -128 0.80z m131 -76 c83.80 -9 159 -32 241 -73.80 166.20 -85 321.80 -233.40 514 -490 55.80 -74.80 75 -100 92.80 -123 106.20 -136.80 213.60 -247.60 307.20 -317.60 96.80 -72.40 180 -108.80 284.80 -124.40 96.20 -14.60 207.40 7.40 292.80 57.60 60.80 36 115.20 87.60 155.60 147.60 32.20 47.80 51.60 92 66.60 151.80 18.60 73.40 21 147.20 7.20 216 -21.20 104.80 -62.80 183.40 -135.80 256 -41 41 -73.40 64.40 -121.20 88 -64.80 32 -129.40 46.80 -203 46.80 -165.20 -0.20 -316 -78.60 -488 -254 -21.40 -22 -50.60 -53 -64.80 -69.20 -14.20 -16.20 -26 -29.40 -26.40 -29 -0.20 0.20 -16.40 22 -36.20 48.40 -19.80 26.40 -42.40 56.20 -50.20 66.20 l-14.20 18.40 26.40 29.60 c48.40 54.80 111.60 116.20 167.60 163 117.60 98.40 254 166.20 373.80 185.60 43.60 7 65.80 8.80 114 8.80 47.60 0 68.60 -1.60 110 -8.80 91.60 -15.80 191.40 -61.60 270 -124 27.40 -21.60 81 -75.20 102 -101.80 74.60 -94 122 -206.20 139.40 -328.60 5 -35.20 5 -144.20 0 -178.20 -16 -107 -49.60 -195.60 -107.40 -283.20 -31 -46.80 -88.40 -109.60 -132 -144.20 -64.20 -51 -141 -90.80 -220 -113.60 -115.60 -33.40 -262.20 -27.60 -380 15.20 -191 69.20 -361.20 212.20 -564.20 473.60 -18 23 -37 48.40 -92.80 123 -161.80 216.40 -299.60 353 -433.20 429.60 -59.60 34.40 -127.60 58 -196.80 68.80 -33.60 5.20 -94.80 6 -125 2 -51.40 -7.20 -102 -22.40 -144.60 -43.60 -52.60 -26.40 -105.20 -66.20 -140.80 -106.80 -56.60 -64.40 -90.60 -129 -110.60 -210.40 -12.20 -49.60 -14.80 -70 -14.80 -120.60 0 -50.60 2.60 -71 14.80 -120.60 13.60 -55.40 33.80 -103 61.40 -145.40 50.40 -77 111.60 -132.40 189.20 -171 70.80 -35.40 161.20 -53 235.40 -46.20 136.20 12.60 245.20 64.40 380 180.80 30.80 26.80 109 106 140 142 13.80 16 25.40 29.20 26 29.20 0.60 -0.20 16.80 -21.40 36 -47.20 19.20 -26 41.60 -55.60 49.60 -66 8.20 -10.40 14.40 -20 13.80 -21.40 -1.80 -4.40 -57.20 -64.80 -89.20 -97 -139 -139.60 -266.20 -221.60 -411.20 -265 -76.40 -22.80 -174.60 -30.40 -257 -20 -65.80 8.40 -124 25.80 -185 55.60 -70.80 34.60 -120 70.20 -176.40 127.40 -47.20 48 -79.80 93 -111.20 153.20 -53.20 102.40 -75.80 195.60 -75.80 311.60 0 53.60 2.60 82 11.20 129 20.60 110.40 78.20 228.20 151.40 310 72.40 81 148.60 134.40 245.20 172.80 59.20 23.40 117.20 35.80 185.60 40 18.40 1.20 81.80 -0.80 103 -3z"/>
  <path fill="url(#lg0)" d="M186 1552.80 c-44.20 -8 -64.40 -17 -85 -37.60 -17.20 -17.40 -25.40 -32.40 -32.60 -59.60 l-5.40 -20.60 0 -589 0 -589 5.40 -21.60 c3 -11.80 7.20 -24.80 9.40 -29 7.20 -14 22 -32.20 33.20 -40.40 18.20 -13.40 23.60 -16 48 -22 22.40 -5.80 25.20 -6 68.40 -6 70 0 97.80 7.40 123.40 32.80 14.20 14 25.60 34.60 29.60 53.40 1.40 6.40 3 11.80 3.80 11.80 0.80 0 7.60 -3.80 15 -8.20 93.80 -57 243.80 -103.80 383.80 -119.60 121.40 -13.80 237.80 -1.20 313 34 45.80 21.40 91.80 60.80 125 106.80 l4.20 5.60 14.80 -10 c40.20 -27 105.20 -61 154 -80.20 64.20 -25.40 141.80 -45.20 213 -54.40 66.80 -8.60 137.80 -9.60 191 -2.80 28 3.60 79 15.20 102 23.20 75.80 26.60 139.40 79.20 179.80 149 16.80 29 29.40 63.80 40 110.60 14 61.80 13 21.20 13.60 551.80 0.80 523.40 1.40 493.80 -10.60 530 -6.20 19 -20.60 38.80 -37.80 52.60 -15.20 12.40 -23.80 16.40 -48.20 23 -19.40 5.40 -20.80 5.40 -81.80 5.60 -61.80 0 -62 0 -82.80 -5.60 -24 -6.40 -30.40 -9.60 -47.60 -22 -20.60 -15.40 -35 -37.80 -43 -67.60 l-4.40 -16.80 -1.20 -446 c-1.40 -488.80 -0.80 -468.80 -13 -503 -20.80 -58.20 -56.20 -74.60 -154 -71.20 -77 2.60 -120.40 11.60 -191.60 39.60 -27.20 10.60 -100.60 46.60 -127.80 62.60 l-15.40 9 -0.20 441.40 c0 246 -1 447 -2 453.60 -6.60 44.80 -18.60 70.80 -43.20 92.60 -15.20 13.60 -31 21.60 -54.40 27.80 -17.40 4.60 -24.20 5.20 -67 6 -51.80 1.20 -68.40 -0.40 -97.20 -8.60 -29.20 -8.40 -55.80 -30 -70.20 -57 -3.40 -6.60 -8.60 -20.60 -11.60 -31.40 l-5.20 -19.40 -1.20 -456 c-1.40 -511.80 0 -468.60 -16.60 -503.60 -20.20 -42.40 -54 -57.40 -128.80 -57.40 -73.40 0 -142.40 12.40 -209.60 37.60 -49.80 18.60 -137.60 61 -144.60 70 -1.80 2.40 -2.40 95.80 -2.40 451 l0 447.60 -5 22.20 c-2.80 12.40 -7.20 26.80 -9.80 32.40 -10.60 23 -32.40 45.60 -55.60 57.40 -4.20 2.20 -16.80 6.20 -28 9.20 -19.40 5 -23.60 5.20 -75.60 5.80 -30.20 0.20 -57.20 0 -60 -0.40z m128 -80.60 c5 -2.60 11.20 -6.60 13.60 -9 6.80 -6.20 13.80 -20.60 16.20 -34.20 1.60 -8.20 2.20 -144.40 2.20 -457.20 0 -500.60 -1.20 -462.80 14.80 -486.40 10.80 -16 24.80 -25.40 79.20 -53.20 63.60 -32.40 111.60 -50.60 174 -66.20 64.20 -16 106.80 -21 171.80 -19.40 39 0.80 48 1.60 66.20 6 49.60 11.80 79.20 29.80 103.60 63 18.60 25.20 28 49.20 36.80 95.40 4.40 22 4.40 22.40 5.40 475 l1.20 453 4.20 9 c5.40 11.40 13.40 19.40 24.80 24.80 8.40 3.80 13 4.20 64.60 4.80 46.40 0.60 57.40 0.20 66.60 -2.60 14 -4 26.60 -15.40 33 -29.60 l4.80 -10.40 1.20 -455 c1.20 -511 -0.20 -470 15.80 -491.20 9.40 -12.60 19.60 -20 52 -38.20 95.80 -53.80 181.60 -85.40 269 -99 36.40 -5.60 119.60 -7.20 148 -2.80 91.60 14 137.80 57.40 157.80 148.80 1.80 8 4.20 20 5.60 27 1.60 9 2.60 138.40 3.40 461.40 l1.20 449 4.60 11.20 c5 12.40 11.20 19.20 24.40 26 9 4.80 9.60 4.80 74 4.80 61.80 0 65.40 -0.20 74 -4.20 11.40 -5.40 19.40 -13.40 24.80 -24.80 l4.20 -9 0.60 -477 c0.40 -336.40 0 -484.40 -1.60 -502 -10.20 -115.80 -60.80 -201 -144.60 -243.20 -53.80 -27.20 -95.20 -36.40 -172.60 -38.20 -82.20 -2 -159 6.40 -229.80 25.40 -79 21 -163 60 -244.60 113.60 -24.20 15.80 -41.60 20.60 -58.40 15.60 -16.40 -4.80 -24.60 -11.80 -40.40 -34 -17 -23.60 -43.20 -51.60 -61.60 -65.40 -28.60 -21.60 -75.40 -41 -115 -47.80 -45.60 -7.80 -123.40 -10.40 -176 -6 -151.40 12.80 -290.40 57.20 -403.20 129 -23.40 14.80 -38 19 -54 15.40 -12.80 -3 -23 -10 -30.20 -20.60 -6.60 -10 -8.80 -17 -12.60 -41.20 -3.20 -20.60 -8 -33.40 -15.20 -39.80 -9.60 -8.60 -17.80 -9.80 -69.80 -9.80 -47 0 -49.40 0.20 -59.20 4.60 -12.60 5.80 -19.20 12.40 -25.20 25.40 l-4.60 10 -0.60 589 c-0.60 662.20 -2 602.20 14.60 619.60 14.40 15.40 20 16.40 91 15.80 59.80 -0.40 61.20 -0.40 70 -5.20z"/>
  <path fill="url(#lg0)" d="M5180 1541 c-26 -5.80 -39.60 -11 -51.40 -19.80 -21.20 -15.60 -30.20 -29.60 -35.40 -55.20 -2 -10.80 -2.40 -17.60 -1.20 -24.40 4 -20.40 8.60 -35 14.20 -45.20 3.40 -6 90.40 -131.60 193.40 -279 103 -147.60 189.20 -272 191.80 -276.40 5.20 -9.20 5.80 -18.20 1.80 -27.60 -1.40 -3.60 -80.40 -120.20 -175.20 -259.40 -94.80 -139.20 -175.20 -258.60 -178.40 -265.40 -3.20 -6.80 -7.60 -20.60 -9.60 -30.80 -3.60 -17.40 -3.60 -19.60 -0.80 -33.80 1.80 -8.20 4.40 -17.60 6 -21 5.80 -12.20 17 -25 28.60 -32.80 14.20 -9.80 22 -12.80 44.20 -18.20 15.60 -3.60 23.80 -4 94.60 -4 70.40 0 79 0.40 95.60 4 10 2.20 23.20 5.80 29.40 8 15.60 5.40 41.80 23.60 55.60 38.60 6.20 6.80 39.40 54.60 73.60 106.40 34.40 51.60 102.60 154.80 151.80 229 49 74.40 91.20 137.20 93.40 139.60 5.40 5.60 21.80 6.20 26.40 1 1.60 -2 71.20 -105.80 154.60 -230.60 83.40 -124.80 156.40 -233 162.20 -240.20 12.20 -15.20 32.20 -31.20 50.40 -40 6.80 -3.20 22 -8.20 34 -10.80 20.60 -4.80 24 -5 98.40 -5 75.20 0 77.40 0.20 97.60 5 23.20 5.60 31.40 9.40 45.60 20.60 15.20 12 24 26.40 29.20 47.20 l4.20 17.80 -4.40 20.20 c-2.60 11.20 -7 25.20 -10.20 31.40 -3 6.40 -81.40 122.80 -174 258.80 -92.60 136 -171.60 252.40 -175.20 258.60 -8 13 -8.40 17.60 -2.60 28.60 2.20 4.60 89 130.40 192.80 279.80 103.80 149.40 191.60 277 194.80 283.80 3.40 6.60 8.20 20.80 10.40 31.60 4.60 20.40 4.40 25.40 -2.20 49 -3.60 12.80 -17 30.40 -30.20 39.60 -14.40 10.20 -25.60 14.60 -49.80 20 -16.20 3.60 -25.20 4 -92 4 -67.80 0 -76 -0.40 -94.60 -4.20 -11.20 -2.40 -25.20 -6 -31 -8.20 -15.40 -5.80 -38.20 -21.60 -51.60 -36.20 -7.20 -7.60 -79.40 -113 -183.60 -267.60 -94.40 -140 -173.60 -256.80 -175.80 -259.40 -5 -5.40 -15.40 -6 -19.80 -0.80 -1.60 1.80 -78.80 116.80 -171.60 255.40 -92.60 138.60 -172.60 257.20 -177.80 263.60 -10.80 13.60 -36.40 33.80 -52 41 -6 2.80 -19 7.20 -29 10 -18 5 -19.40 5 -100.20 5.60 -65.40 0.40 -84.60 0 -95 -2.20z m164.40 -72.80 c18.20 -2.40 37.40 -11.60 49.20 -23.80 5.20 -5.40 85 -122.60 177.20 -260.60 92.40 -138 171.40 -255.40 175.60 -261 11.20 -15 28 -26 47 -30.80 19 -4.80 24.40 -4.80 41.80 -0.80 18.40 4.20 27.80 9.40 40.80 22.60 7.20 7.40 68.40 96.80 181 264.20 96.40 143.20 174.80 258 181 264.60 14 15.20 29 22.80 49.80 25.60 9.40 1.20 43.40 1.80 84.40 1.40 l68.80 -0.60 11.80 -5.60 11.80 -5.40 -1 -10 c-0.60 -6.60 -3.20 -13.60 -7.80 -21 -3.80 -6 -89.20 -129.40 -189.80 -274.20 -100.60 -144.80 -186.20 -268.60 -190.20 -275 -8.40 -13.60 -15.80 -38.40 -15.80 -53.20 0 -13.60 6.80 -39.20 13.40 -50.60 3.20 -5 82.40 -122 176.20 -259.60 93.80 -137.80 172.40 -254.60 174.60 -259.40 2.20 -5 3.80 -12 3.40 -15.60 -0.60 -5.40 -2 -7.20 -10.60 -11.40 l-10 -5 -81 0 -81 0 -15.20 7.40 c-10.60 5.20 -18.20 10.60 -24 17.40 -4.80 5.20 -78 113.60 -162.80 240.40 -84.60 127 -157.60 234.40 -162.20 239 -11.20 11.20 -24.20 18.60 -41.40 23 -17.80 4.60 -27.40 4.80 -46 0.60 -32 -7.20 -41.60 -16.40 -84.60 -81.40 -18.40 -27.80 -87 -131.40 -152.40 -230.40 -78.60 -119 -122.60 -183.80 -130 -191.40 -12.80 -13 -28.20 -20.80 -47.20 -23.80 -7.20 -1.20 -43.80 -1.80 -84.40 -1.40 l-71.80 0.60 -10 5 c-13.40 6.60 -14 12.60 -4 31.40 4 7.60 83.20 125.20 176.20 261.60 93 136.40 171.40 252.40 174 257.60 2.80 5.20 6.80 17.60 9.20 27.60 4 17.40 4 18.20 0.80 35.20 -2 9.40 -5.60 21.80 -8.20 27.40 -2.40 5.60 -42.20 64.20 -88.40 130.20 -249.40 357 -297.40 426.40 -301.80 435.80 -2.60 5.60 -4.80 12.60 -4.80 15.40 0 8.20 9.80 15 25.80 17.80 12.80 2.20 136.20 2.20 152.60 0.20z"/>
 </g>
 <g fill="#a000d9">
  <path fill="url(#lg0)" d="M3316 1130 c-2.20 -1.40 -2.20 -2.20 -0.20 -4.80 2.40 -3 -2 -3.20 -48 -3.20 l-50.80 -0.20 9 -7.40 c52.60 -43.60 128.20 -117.20 176.20 -171.40 36.80 -41.40 89.40 -106 125 -153 12 -16 26 -34.40 31 -41 5.20 -6.60 22.60 -30 39 -52 37.60 -50.80 117.20 -150.40 149.40 -187 58.80 -67 121.60 -130 178.40 -179.20 65 -56.40 152.40 -115.80 214 -145.60 48.60 -23.60 91.40 -41 118.80 -48.40 6.20 -1.80 14 -4 17.20 -4.80 81.40 -23 145.20 -31.40 221.40 -29.40 68.20 1.80 111.60 9.20 193.60 33 51.20 14.80 123 49.80 172 84 81.20 56.60 131.40 106.80 191.40 191.40 22.40 31.40 53.60 88.40 66.60 121.40 3.60 9.20 7.80 19.40 9.20 22.60 3.60 7.80 10.20 27 14.80 42 1.80 6.60 5.80 19.80 8.60 29.40 5.20 17 14.20 59.20 20.40 94.60 4.40 25 9 76.20 9 100 0 43.40 -7.40 118.60 -15 150 -1.60 6.60 -4.20 19.20 -6 28 -1.80 8.80 -4 18.80 -5 22 -1 3.40 -4.20 14.20 -7.20 24 -10.40 35.20 -11.40 37.60 -15.20 38.60 -2.60 0.60 -3.20 1.40 -1.60 2.40 3.60 2.20 0.20 12 -4.20 12 -4.20 0 -5.20 3.20 -1.20 4.60 1.40 0.60 1 1.20 -1 1.20 -4 0.20 -4.80 3.40 -1.40 4.60 3.80 1.20 0 9.60 -4.40 9.60 -2 0 -3.80 0.80 -3.80 2 0 1 -15.40 2 -37.80 2.40 l-37.60 0.60 2.40 -7.20 c1.40 -3.80 5 -11.80 7.80 -17.60 12.60 -24.80 34.20 -92.20 42.20 -131.80 10.40 -51.20 11.80 -69 11.80 -138.40 0 -69.20 -1.20 -84 -12 -136.80 -20 -98.80 -65.60 -196.20 -130.40 -278.20 -22.40 -28.20 -73.40 -79.80 -100.40 -101.20 -64.20 -51 -141 -90.80 -220 -113.60 -115.60 -33.40 -262.20 -27.60 -380 15.20 -191 69.20 -361.20 212.20 -564.20 473.60 -18 23 -37 48.40 -92.80 123 -77.80 104 -143.60 182 -212.60 252.40 -21.40 21.60 -33.80 33 -35.80 32.20 -4 -1.60 -15.20 9.40 -12.60 12.40 2.40 3 -9.40 12.20 -14.60 11.40 -5 -1 -9.80 3.40 -8.40 7.80 1.40 4.20 -1.20 6.20 -5 3.80z"/>
  <path fill="url(#lg0)" d="M4064.80 1129.80 c-1.20 -1.60 -2.80 -4.40 -3.40 -6.40 -0.80 -2 -2.60 -3.40 -4 -3 -3 0.60 -16.80 -11.20 -20.80 -17.60 -1.20 -2 -3.20 -3.60 -4.20 -3.40 -2.80 0.60 -76.60 -75 -107.20 -109.80 -14.20 -16.20 -26 -29.40 -26.40 -29 -0.20 0.20 -12.80 17 -27.80 37.40 -51.60 69.20 -65.20 86 -69.80 86 -3.40 0 -3.60 0.40 -1.20 2 2.40 1.40 2.40 2.40 0.60 4.20 -2 2 -1.20 4 3.40 9.80 3.20 4.20 5.40 8 4.60 8.60 -0.60 0.80 0.60 2 2.60 2.80 3.60 1.20 10.40 8.80 9.20 10.20 -0.20 0.40 -20.60 0.60 -45.40 0.40 -31.40 0 -45 0.60 -45 2 0 1.20 -0.80 1.60 -2 1 -1 -0.60 -2 -3 -2 -5.20 0 -2.20 -0.80 -3.40 -2 -2.80 -1 0.60 -2 -0.20 -2 -1.80 0 -1.60 -1.40 -7.20 -3 -12 -2.60 -7.40 -2.60 -10.80 -0.80 -18.60 3.40 -13.40 5.80 -17.60 21.20 -36.60 7.40 -9.40 16.80 -21.20 20.60 -26.20 3.80 -5.20 20.40 -27.20 36.80 -49 16.40 -22 32.20 -43 35.20 -46.80 3 -3.80 10.80 -14.40 17.60 -23.20 21.80 -29 34.60 -35.60 59.60 -30.60 15.80 3.20 18 5 58 51.80 15.60 18.20 40.20 45.60 54.80 61 14.60 15.40 32.40 34.60 39.80 42.60 7.20 7.80 14.20 14.40 15.40 14.40 1.40 0 7.80 5.80 14.60 13 6.60 7.20 13 13 14 13 1 0 5 3.60 8.80 8 3.80 4.40 7.60 8 8.80 8 2.80 0 8.80 7 7.20 8.60 -0.60 0.80 0.60 1.40 2.80 1.40 3.80 0 15 9.80 11.40 10.20 -1 0.20 0.40 0.80 3.20 1.60 2.80 0.80 4.80 2.60 4.60 3.80 -0.40 1.40 1.20 2.40 3.20 2.40 2.20 0 4.60 1.20 5.60 2.60 4.60 7.20 3.60 7.40 -47.80 7.40 -43.80 0 -49.80 0.40 -47.60 3 1.20 1.60 2 3.80 1.60 5.20 -0.60 1.60 -1.40 1.40 -2.80 -0.40z"/>
  <path fill="url(#lg0)" d="M346.20 828.80 c-0.20 -340.80 -1.20 -320.20 14.60 -343.40 10.80 -16 24.80 -25.40 79.20 -53.20 63.60 -32.40 111.60 -50.60 174 -66.20 64.20 -16 106.80 -21 171.80 -19.40 39 0.80 48 1.60 66.20 6 49.60 11.80 79.20 29.80 103.60 63 18.60 25.20 28 49.40 36.80 95.40 4.20 21.60 4.40 26.20 5 292.60 0.60 242.40 0.40 270.40 -2.40 270.40 -2.60 0 -3 3.80 -3 24 l0 24 -34 0 -33.80 0 -0.80 -292.40 c-0.60 -255 -1.20 -294.80 -4 -309.60 -9.40 -51.20 -33.80 -81.80 -74.40 -93.60 -34 -9.80 -113.20 -8.20 -181 3.60 -33.40 5.80 -73 17.60 -115 34.20 -26.80 10.60 -23.60 9.20 -61.20 27.60 -38.20 18.60 -61.60 31.40 -65.20 35.80 -2 2.60 -2.60 66 -2.60 302.80 0 265 -0.40 299.60 -3 299.60 -1.60 0 -3 -1.80 -3 -4 0 -3.80 -1.40 -4 -32.80 -4 -32.60 0 -33 0 -33.80 4.60 -0.40 2.40 -1 -131.60 -1.20 -297.80z"/>
  <path fill="url(#lg0)" d="M1775.60 837 c-0.80 -308 -0.80 -308.20 -9.80 -337 -15.40 -49.60 -41.80 -71.60 -93.80 -78 -40.80 -5 -119.20 -0.20 -166.60 10 -52.40 11.40 -134.60 45 -200.40 82.20 -6.60 3.80 -14.20 8 -17 9.40 -2.80 1.40 -7.20 4.20 -9.80 6.20 l-4.60 3.60 -0.60 136.80 c-0.20 75.20 -0.60 207.60 -0.80 294.40 l-0.20 157.40 -35.80 0 -36 0 -0.80 -27.40 c-0.40 -15.20 -0.60 -150 -0.20 -299.60 0.60 -304.40 -0.40 -286 14.80 -306.20 9.40 -12.60 19.60 -20 52 -38.20 95.80 -53.80 181.60 -85.40 269 -99 36.40 -5.60 119.60 -7.20 148 -2.80 40.60 6.20 69.60 17.20 94 35.60 40 30.40 62.80 81.20 71 158 1.20 12.20 2 124.20 2 303.60 0 251.20 -0.40 284 -3 284 -1.60 0 -3 -1.80 -3 -4 0 -3.80 -1.40 -4 -32.80 -4 -32.60 0 -33 0 -33.80 4.60 -0.40 2.40 -1.20 -127.80 -1.80 -289.60z"/>
  <path fill="url(#lg0)" d="M2629 1126 c-3.40 -3.80 -6.20 -4 -46.40 -4 -26 0 -42.40 0.80 -41.60 1.80 0.60 1 0.20 2.40 -0.80 3 -1 0.60 -2.40 -1 -3 -3.80 -0.80 -2.80 -2.20 -4.80 -3.20 -4.40 -1.20 0.20 -3.60 -2.20 -5.60 -5.60 -1.80 -3.20 -4.40 -6.80 -5.80 -8 -4.60 -4.20 -21.40 -32 -32.60 -54.60 -15.40 -31.40 -26.60 -62.20 -36 -100.80 -12.20 -49.60 -14.80 -70 -14.80 -120.60 0 -50.60 2.60 -71 14.80 -120.60 13.60 -55.40 33.80 -103 61.40 -145.40 50.40 -77 111.60 -132.40 189.20 -171 70.80 -35.40 161.20 -53 235.40 -46.20 136.20 12.60 245.20 64.40 380 180.80 30.80 26.80 109 106 140 142 13.80 16 25.40 29.20 26 29.20 0.60 -0.20 16.80 -21.40 36 -47.20 19.20 -26 41.60 -55.60 49.60 -66 8.20 -10.40 14.40 -20 13.80 -21.40 -1.80 -4.40 -57.20 -64.80 -89.20 -97 -139 -139.60 -266.20 -221.60 -411.20 -265 -76.40 -22.80 -174.60 -30.40 -257 -20 -65.80 8.40 -124 25.80 -185 55.60 -70.80 34.60 -120 70.20 -176.40 127.40 -47.20 48 -79.80 93 -111.20 153.20 -53.20 102.40 -75.80 195.60 -75.80 311.60 0 101.80 16.20 180 56.40 271.80 8.20 18.60 9.80 24.20 7.60 25.40 -1.60 1.20 -2.80 0.60 -3.20 -1.40 -0.60 -2.60 -6.20 -3 -39 -2.60 l-38.40 0.40 -0.60 -6.40 c-0.40 -3.40 -1.40 -6.20 -2.40 -6.20 -2.20 0 -8 -15 -8 -21 0 -2.80 -0.80 -5 -1.80 -5 -1.80 0 -10.80 -27.20 -16.60 -49 -1 -4.40 -2.80 -10 -3.60 -12.20 -2 -5.20 -10.20 -45 -15.80 -75.80 -7.40 -41.80 -9.20 -64.60 -9 -123 0.20 -51.60 0.60 -60.20 5.40 -91 7.80 -49.40 13 -75.20 20.60 -101 1.80 -6 4 -14.60 5 -19 2.80 -11.40 16.40 -51 22.80 -66 7.20 -17.20 9.80 -22.80 22 -48 40.60 -83.60 100 -161.20 172 -224.80 28 -24.80 43.20 -36.20 78 -59.20 66.80 -44 115.60 -66 200 -89.80 24.80 -7 83.40 -17.60 118.60 -21.40 26 -2.60 113.40 -1.40 135.40 2 7.80 1.40 19.80 3.20 27 4.40 58 9.40 132 29.60 175 47.80 5.60 2.20 12.60 5.20 16 6.60 9.80 4 71.20 34.80 82 41.40 5.60 3.20 12.80 7.40 16 9.20 16 8.80 67.80 43.40 89 59.20 77.20 58 165.40 140.80 237 222.60 34 38.60 35.60 41 39.60 55 4.80 16.80 1.20 29.60 -13.40 48.40 -26.40 33.60 -60.20 78 -100.20 132 -17.80 23.80 -35 45 -38.60 47.40 -10.60 7 -26.20 9.60 -38.80 6.40 -13.80 -3.40 -20.20 -8.60 -38 -29.60 -70.60 -83.80 -153.40 -166.20 -215.40 -214.60 -10.80 -8.40 -30.40 -22.40 -43.40 -31 -13 -8.60 -26.40 -17.40 -29.60 -19.60 -11.40 -7.80 -66.60 -34.60 -87.20 -42.60 -41.20 -15.80 -58.40 -20.20 -102 -26 -33.20 -4.20 -97.40 -2.80 -127.60 3 -56.40 10.80 -117.20 39.20 -163.40 76.40 -59.60 48 -101 104.80 -129 177.40 -19.40 49.80 -26 89 -26 151.60 0 81 14.80 135.60 58.40 214.80 1.40 2.80 8.20 13.20 14.80 23 6.60 10 11.80 19.20 11.20 20.60 -0.40 1.20 0.40 2.40 1.80 2.40 4 0 9.60 6.20 8.40 9.20 -0.60 1.60 0.80 3.40 3.60 4.60 6.60 2.60 27.60 24.20 23.60 24.20 -1.80 0 -4.80 -1.80 -6.80 -4z"/>
  <path fill="url(#lg0)" d="M3569 1115 c6.40 -7.60 17.80 -20.80 25 -29 31.20 -35.20 88 -106.80 137 -172 55.80 -74.80 75 -100 92.80 -123 106.20 -136.80 213.60 -247.60 307.20 -317.60 96.80 -72.40 180 -108.80 284.80 -124.40 96.20 -14.60 207.40 7.40 292.80 57.60 60.80 36 115.20 87.60 155.60 147.60 32.20 47.80 51.60 92 66.60 151.80 22.60 89.60 21.60 168 -3.80 261 -14 51.60 -44.20 117 -53.80 117 -3 0 -3.40 0.60 -1.60 1.80 4.20 2.60 -4.60 16.20 -9.60 14.80 -4.40 -1.20 -5.60 2.60 -1.60 3.80 1.80 0.60 1 3.40 -2.80 9 l-5.40 8 -47.40 0.40 c-26.20 0.20 -48.40 1 -49.60 1.60 -1 0.80 6.20 -8.20 16.20 -19.80 17.60 -20.60 29 -36.60 45.40 -64.60 7.80 -13 10.20 -17.80 21.20 -41.40 11.60 -25.20 23.80 -66.40 29 -97.60 6.80 -41.20 5.80 -116 -2.20 -155.80 -9.20 -46 -28.20 -93.80 -55 -137.80 -21.80 -36 -55.40 -73.60 -94.80 -105.60 -28.80 -23.60 -78.60 -50 -122 -64.60 -54.20 -18.20 -127.80 -21.20 -203 -8.40 -28.60 4.80 -101.20 33 -133 51.60 -64.40 37.60 -111.40 73.20 -175 133 -45 42.20 -113.40 117 -158.40 172.60 -6.20 7.80 -17.40 21.60 -25 31 -19 23.20 -59 75.80 -111.80 147 -50.40 68 -64.40 85 -69.60 85 -3.20 0 -3.60 0.40 -1.40 1.80 2.20 1.40 1.60 3.60 -4 10.60 -15 19.40 -22.20 26.60 -26 26 -4.20 -0.80 -5.40 2.80 -1.40 4 1.60 0.60 -1.20 5.20 -7 12 -6.80 8 -10.60 11 -13.20 10.20 -4.60 -1.20 -7.80 3.20 -4 5.60 1.40 0.80 2.20 2.20 1.40 2.80 -0.60 0.80 -22.60 1.20 -48.60 1 -42.80 -0.20 -48 0.20 -51.80 3.40 -2.20 2 1.20 -2.60 7.80 -10.40z"/>
  <path fill="url(#lg0)" d="M5693.40 1126.40 c-1.80 -0.40 -3 -1.60 -2.20 -2.60 0.60 -1.20 -13.60 -1.80 -38.80 -1.40 l-40.20 0.60 4.40 -7 c7.40 -12.40 117.60 -176.40 127.60 -190.20 13 -17.80 29 -28.80 49.20 -33.80 19 -4.80 24.40 -4.80 41.80 -0.80 31.80 7.20 37 12.60 94 97.40 26.20 38.80 56.60 83.60 67.40 99.80 11 16 19.20 30.20 18.40 31.40 -0.80 1.40 -14.40 2.20 -39.80 2.20 -27.20 0 -39 0.60 -40.80 2.40 -1.80 1.80 -2.40 1.40 -2.40 -2 0 -2.40 -1.20 -4.20 -2.40 -3.80 -1.40 0.20 -2.40 -1.20 -2.40 -3 0.20 -2 -0.40 -3 -1.40 -2.40 -1 0.60 -1.80 -0.80 -1.80 -3.20 0 -2.40 -0.80 -3.60 -2 -3 -1 0.60 -2 -0.60 -2 -3 0 -2.40 -0.80 -3.80 -1.80 -3 -1 0.60 -11.80 -13.60 -23.80 -31.40 -75.40 -112.60 -70 -105.60 -79.40 -105.60 -4 0 -7.80 1.60 -10.40 4.60 -2.20 2.40 -23.60 33.80 -47.20 69.80 -37.40 56.80 -43.60 65.20 -47.20 64.20 -2.40 -0.60 -4.20 -0.20 -4.20 1.20 0 1.20 1 2.20 2 2.20 1.20 0 2 0.80 2 1.80 0 1 -1.80 1.40 -4 0.80 -2.20 -0.60 -4 0 -4 1.20 0 1.20 1 2.20 2 2.20 1.20 0 2 0.80 2 1.80 0 1 -1.80 1.40 -4 0.80 -2.20 -0.60 -4 0 -4 1.20 0 1.20 1 2.20 2 2.20 1.20 0 2 0.80 2 1.80 0 1 -1.80 1.40 -4 0.80 -4.20 -1.20 -5.60 2.40 -1.40 4 3.60 1.20 1 2.80 -3.20 1.80z"/>
  <path fill="url(#lg0)" d="M5378.20 1123.80 c-2.80 -1.20 -21.60 -1.80 -43.20 -1.40 l-38.40 0.60 21.80 -32 c12 -17.60 27.20 -39.60 33.80 -49 6.60 -9.40 14.20 -20.20 16.80 -24 2.60 -3.80 10.20 -14.60 16.80 -24 6.60 -9.40 17 -24.20 23 -33 6 -8.80 14.40 -21 18.80 -27 4.20 -6 12 -17.20 17.40 -25 5.40 -7.60 17.20 -24.60 26.40 -37.60 30.40 -43.20 31 -47.20 10.20 -77.40 -4.80 -7.20 -18.60 -27.40 -30.60 -45 -21 -31 -34.80 -51.20 -65.60 -96.40 -15 -22 -30.80 -45 -62.40 -91.60 -9.80 -14.20 -24.40 -35.80 -32.60 -48 -8.40 -12 -20.60 -30 -27.40 -40 -6.80 -9.80 -20.20 -29.60 -30 -44 -9.80 -14.20 -24.40 -35.80 -32.60 -48 -61.80 -90.80 -60.60 -88.60 -66.40 -107 -6 -18.60 -7.20 -42 -3 -57.80 7.80 -30.40 31.40 -51.60 69.40 -62.60 13.60 -4 20.20 -4.20 96 -5 76.40 -0.80 82.40 -0.60 100.40 3.20 32 7 41.40 11 64.60 27.40 22.80 16.20 26.40 21.20 149.60 207.80 26.20 39.60 68.40 103.60 94 142 25.40 38.60 57.80 87.40 71.60 108.40 14 21.20 27.20 39.40 29.20 40.60 6.60 3.40 15.60 2.40 20.80 -2.40 2.80 -2.60 74.80 -109.20 160.20 -237 109.40 -163.40 158.80 -236 167 -244.20 19.40 -19.80 42 -33.20 65.40 -39 28 -7.20 39 -7.80 116.80 -7 71.80 0.80 78.20 1 93.40 5.20 31.80 8.60 52.40 24.20 64.40 48.60 11 22.60 10.40 56.40 -1.80 84.60 -3.20 7.40 -22.80 37.40 -61 93.20 -14.20 20.60 -26.80 39.20 -62 91 -9.80 14.40 -24.20 35.40 -32 47 -8 11.60 -21.20 31.20 -29.60 43.40 -8.60 12.40 -22.20 32.40 -30.40 44.60 -8.20 12.20 -21.80 32.20 -30.40 44.60 -8.40 12.20 -21.60 31.80 -29.60 43.40 -88.20 129.20 -86.20 125.40 -80.80 138.40 2.20 5.80 13 22.40 34.80 53.60 22 31.40 49.20 70.40 59.80 86 5 7.20 15.20 22 23 33 7.60 11 19 27.20 25 36 6 8.80 16 23.20 22 32 7.80 11.20 10.40 16.40 8.60 17.40 -1.60 1 -1.40 1.60 0.80 1.60 4.60 0 10.20 6.80 8.60 10.80 -0.80 2.20 -0.20 3.20 2 3.20 2 0 2.60 1.20 2 3 -0.80 1.80 0 3 1.80 3 4 0 8.40 5.80 6.20 8 -1 1 -20.80 2 -43.80 2 l-42 0.40 -84.60 -121.80 c-46.60 -66.80 -86.40 -124.80 -88.40 -128.80 -5.80 -11.20 -12 -35.40 -12 -47 0 -13.80 6.80 -39.20 13.40 -50.80 3.20 -5 82.40 -122 176.20 -259.60 93.80 -137.80 172.40 -254.60 174.60 -259.40 2.20 -5 3.80 -12 3.40 -15.60 -0.60 -5.40 -2 -7.20 -10.60 -11.40 l-10 -5 -81 0 -81 0 -15.20 7.40 c-10.60 5.20 -18.20 10.60 -24 17.40 -4.80 5.20 -78 113.60 -162.80 240.40 -84.60 127 -157.60 234.40 -162.20 239 -11.20 11.20 -24.20 18.60 -41.40 23 -17.80 4.60 -27.40 4.80 -46 0.60 -32 -7.20 -41.60 -16.40 -84.60 -81.40 -18.40 -27.80 -87 -131.40 -152.40 -230.40 -78.60 -119 -122.60 -183.80 -130 -191.40 -12.80 -13 -28.20 -20.80 -47.20 -23.80 -7.20 -1.20 -43.80 -1.80 -84.40 -1.40 l-71.80 0.60 -10 5 c-13.40 6.60 -14 12.60 -4 31.40 4 7.60 83.20 125.20 176.20 261.60 93 136.40 171.40 252.20 174 257.60 2.60 5.20 6.80 17.20 9 27 4.20 17 4.20 17.80 1 35.40 -2 10 -5.80 23 -8.80 29 -3 6.20 -38.60 58.60 -79 116.60 -58.60 83.80 -74.60 105.40 -78 105.40 -3.20 0 -3.60 0.60 -1.80 1.80 4.20 2.60 -7.20 19.60 -12.60 18.60 -3.20 -0.40 -3.40 -0.20 -1.20 1.40 2.40 1.60 2.40 2.60 -0.60 7 -1.80 2.80 -3.40 5.20 -3.80 5 -0.20 0 -2.60 -1 -5.20 -2z"/>
  <path fill="url(#lg0)" d="M64 688.80 l0 -433.20 5.20 -21.40 c11.20 -46.60 38.60 -75.60 83.40 -88.80 19.40 -5.60 22.80 -6 66 -6.80 46.80 -1 70 1 95.20 8.60 12.40 3.60 32.40 17.20 42.40 28.60 9.80 11 21.20 34 24.20 49 2.40 10.80 4.60 13.20 8.80 9.40 1 -1 5.40 -3.80 9.80 -6.40 4.40 -2.40 13.40 -7.40 20 -11.20 40.60 -23 112.80 -52.60 165 -67.40 6 -1.60 16.80 -4.80 24 -7 35.60 -10.40 108.40 -25 156 -31.40 84.20 -11 187.60 -9.20 245 4.20 38.40 9 49.80 12.20 66 18.40 24.80 9.60 34.60 14.80 61 32.20 25.80 17.20 62.40 51.80 78.80 75 5.20 7.40 10 13.40 10.40 13.40 0.40 0 9.60 -5.80 20.20 -12.60 33.60 -21.80 91.80 -53.20 125.60 -67.60 96.80 -41.20 207.80 -66 313 -69.40 88 -3 148.60 4 211 24.60 77.80 25.60 143.40 79 184.80 150.60 23.60 40.80 44.20 111 50 170.60 1.20 11.80 2.60 130.40 3.40 275.40 1 232.40 1 254.40 -2 254.40 -2.60 0 -3.20 2.60 -3.20 16 0 12.80 0.60 16 3 16 2.20 0 2.60 1.60 1.60 6.60 -0.60 3.40 -2 6.80 -3 7 -0.80 0.40 -1.60 22.20 -1.60 48.60 l0 47.80 -33.80 0 -34 0 -0.60 -45.40 c-0.40 -25.20 -1 -170 -1.20 -321.80 -0.20 -175.80 -1.20 -284.20 -2.60 -298 -11 -114.20 -61.60 -198.20 -144.40 -240 -53.80 -27.20 -95.20 -36.40 -172.60 -38.20 -82.20 -2 -159 6.40 -229.80 25.40 -79 21 -163 60 -244.60 113.60 -24.20 15.80 -41.60 20.60 -58.40 15.60 -16.40 -4.80 -24.60 -11.80 -40.40 -34 -17 -23.60 -43.20 -51.60 -61.60 -65.40 -28.60 -21.60 -75.40 -41 -115 -47.80 -45.60 -7.80 -123.40 -10.40 -176 -6 -151.40 12.80 -290.40 57.20 -403.20 129 -23.40 14.80 -38 19 -54 15.40 -12.80 -3 -23 -10 -30.20 -20.60 -6.60 -10 -8.80 -17 -12.60 -41.20 -3.20 -20.60 -8 -33.40 -15.20 -39.80 -9.60 -8.60 -17.80 -9.80 -69.80 -9.80 -47 0 -49.40 0.20 -59.20 4.60 -12.60 5.80 -19.20 12.40 -25.20 25.40 l-4.60 10 -0.60 410.60 c-0.40 362 -0.80 410.40 -3.40 410.40 -2.40 0 -3 4 -3 24 l0 24 -34 0 -34 0 0 -433.20z"/>
 </g>
 <g fill="#7500cf">
  <path fill="url(#lg0)" d="M1844 731 l0 -11 -33 0 -33 0 -0.40 10.60 c-0.20 5.60 -1 -33.60 -1.60 -87.60 -1.40 -100.60 -2.60 -118.60 -10.20 -143 -19.20 -62 -51.20 -80 -141.80 -80 -34.60 0 -88.20 5.40 -118.60 12 -52.80 11.40 -137.60 46.40 -201 82.80 -7 4 -13.20 7.20 -13.60 7.20 -0.60 0 -4.40 2.40 -8.80 5.20 l-8 5.40 0 48.60 c0 42 -0.40 48.80 -3 48.80 -1.60 0 -3 1 -3 2 0 1.20 1 2 2 2 1.20 0 2 15.60 2 43 l0 43 -36 0 -36 0 -0.20 -43.40 c-0.40 -165.60 -0.20 -168.80 14.20 -187.80 9.40 -12.60 19.60 -20 52 -38.20 95.80 -53.80 181.60 -85.40 269 -99 36.40 -5.60 119.60 -7.20 148 -2.80 40.60 6.20 69.60 17.20 94 35.60 40 30.40 62.80 81.20 71 158 1 10.80 2 60 2 109.60 0 78.60 -0.40 90 -3 90 -2.40 0 -3 -2.60 -3 -11z"/>
  <path fill="url(#lg0)" d="M346.40 633.80 c-0.40 -123.20 0 -127 14.40 -148.40 10.80 -16 24.80 -25.40 79.20 -53.20 63.60 -32.40 111.60 -50.60 174 -66.20 64.20 -16 106.80 -21 171.80 -19.40 49.60 1 70.80 4.60 102.40 16.80 45.40 17.60 80 57 94.80 108 10.20 34.60 13.40 59.80 14.40 114.20 1 45.80 0.80 50.40 -2.20 50.40 -2.80 0 -3.20 4.40 -3.20 42 l0 42 -33.80 0 -33.80 0 -1 -91.40 c-1.40 -112.20 -2.80 -122.60 -20.80 -157.60 -10.40 -20.20 -32.60 -37.40 -57.60 -44.60 -34 -9.80 -113.20 -8.20 -181 3.60 -33.40 5.80 -73 17.60 -115 34.20 -26.80 10.60 -23.60 9.20 -61.20 27.60 -38.20 18.60 -61.60 31.40 -65.20 35.80 -2 2.40 -2.60 27 -2.60 107.80 0 91.60 -0.40 104.60 -3 104.60 -2.20 0 -3 -2.40 -3 -10 l0 -10 -32.80 0 -33 0 -0.80 10.60 c-0.40 5.60 -0.80 -37.80 -1 -96.80z"/>
  <path fill="url(#lg0)" d="M5748.20 725.40 c-2.20 -2.60 -4.20 -6.20 -4.20 -8 0 -1.80 -1.20 -3.20 -2.40 -2.80 -1.40 0.20 -2.80 -1.60 -3.20 -4.20 -0.40 -2.40 -1.60 -4 -2.60 -3.40 -1 0.80 -1.80 -0.60 -1.80 -3 0 -2.40 -0.80 -3.60 -2 -3 -1 0.60 -2 -0.60 -2 -3 0 -2.40 -0.80 -3.60 -2 -3 -1 0.60 -2 -0.60 -2 -2.80 0 -2.40 -1 -4 -2 -3.60 -1.20 0.20 -66.40 -96.80 -145.20 -215.60 -91 -137.60 -146.60 -219.80 -153.20 -226.40 -11.80 -12 -28 -20 -46.40 -22.80 -7.20 -1.20 -43.80 -1.80 -84.40 -1.40 l-71.80 0.60 -10 5 c-13.40 6.60 -14 12.60 -4 31.40 4 7.60 64 96.80 133.20 198.60 69.40 101.80 136.40 200 149 218.40 14 20.60 22.20 34.80 21.60 36.60 -0.80 2 0 3 2.40 3 2.20 0 3 0.60 1.60 2 -1 1 -20.40 2 -43.40 2.40 -38.80 0.60 -41.40 0.40 -41.40 -3 0 -2 -0.80 -3 -2 -2.40 -1 0.60 -2 -0.60 -2 -3 0 -2.40 -0.80 -3.80 -2 -3 -2 1.20 -16 -19.40 -16 -24 0 -1.60 -1.20 -2.80 -2.40 -2.60 -1.40 0.40 -2.40 -1 -2.40 -2.80 0.20 -2 -0.40 -3.20 -1.40 -3 -0.80 0.20 -7.20 -7.60 -14 -17.60 -13.80 -20.20 -40.60 -59.40 -66.80 -98 -9.80 -14.20 -24.40 -35.80 -32.60 -48 -8.40 -12 -20.60 -30 -27.40 -40 -6.80 -9.80 -20.20 -29.60 -30 -44 -9.80 -14.20 -24.40 -35.80 -32.60 -48 -61.80 -90.80 -60.60 -88.60 -66.40 -107 -6 -18.60 -7.20 -42 -3 -57.80 7.80 -30.40 31.40 -51.60 69.40 -62.60 13.60 -4 20.20 -4.20 96.40 -5 85.60 -1 82.80 -1.20 119.20 7.80 21.40 5.20 49.80 23 66.80 41.80 10.40 11.60 38 52.20 128.20 188.80 26.20 39.60 68.40 103.60 94 142 25.40 38.60 57.80 87.40 71.60 108.40 14 21.20 27.20 39.40 29.20 40.60 6.60 3.40 15.60 2.40 20.80 -2.40 2.80 -2.60 74.80 -109.20 160.20 -237 109.40 -163.40 158.80 -236 167 -244.20 19.40 -19.60 42 -33.20 65.40 -39.20 26.80 -6.80 41.20 -7.60 117.80 -6.80 70.60 0.80 77.20 1.20 92 5.20 32.40 8.80 52.80 24.20 64.60 48.40 11.20 22.40 10.40 56.80 -1.60 85 -3.20 7.20 -23 37.40 -61 93 -8 11.60 -21.20 31.20 -29.60 43.60 -8.60 12.20 -22 32 -30 44 -13.80 20 -26 38 -63.80 93.40 -8.20 12.20 -23 33.80 -32.60 48 -9.80 14.40 -24 35.20 -31.60 46.60 -10 14.80 -15 20.40 -18.20 20.60 -2.20 0 -3 0.60 -1.60 1.20 4 1.60 2.80 4.40 -1.60 3.20 -4.20 -1 -5.80 2.40 -1.80 3.80 1.40 0.40 -0.60 5.40 -5 12 -5.60 9 -8 11 -11.20 10.20 -2.20 -0.60 -4 0 -4 1.20 0 1.20 1 2.20 2 2.20 1.20 0 2 0.80 2 1.80 0 1 -1.80 1.40 -4 0.80 -2.20 -0.60 -4 0 -4 1.20 0 1.20 1 2.20 2 2.20 1.20 0 2 0.80 2 1.80 0 1 -1.80 1.40 -4 0.80 -2.20 -0.60 -4 0 -4 1.20 0 1.20 1 2.20 2 2.20 1.20 0 2 0.80 2 1.80 0 1 -1.80 1.40 -4 0.80 -2.20 -0.60 -3.40 -1.80 -2.80 -2.80 1.80 -3 -76 -2.20 -79 0.80 -5.40 5 16.40 -27.20 161.20 -240 81.80 -120.20 150.60 -222.60 152.80 -227.60 2.20 -5 3.80 -12 3.40 -15.60 -0.60 -5.40 -2 -7.20 -10.60 -11.40 l-10 -5 -81 0 -81 0 -15.20 7.40 c-10.40 5.20 -18.20 10.60 -24 17.40 -4.80 5.20 -72.60 105.20 -150.60 222 -112.60 168.80 -142.60 212.20 -146 212.40 -2.20 0 -3 0.60 -1.60 1.20 4 1.60 2.80 4.40 -1.60 3.20 -2.20 -0.60 -4 0 -4 1.20 0 1.20 1 2.20 2 2.20 1.20 0 2 0.80 2 1.80 0 1 -1.80 1.40 -4 0.80 -2.20 -0.60 -4 0 -4 1.20 0 1.20 1 2.20 2 2.20 1.20 0 2 0.80 2 1.80 0 1 -1.80 1.40 -4 0.80 -2.20 -0.60 -4 0 -4 1.20 0 1.20 1 2.20 2 2.20 1.20 0 2 0.80 2 1.80 0 1 -1.80 1.40 -4 0.80 -4.20 -1.20 -5.60 2.60 -1.60 3.80 1.80 0.60 1 3.20 -2.40 8.20 -2.80 4 -5.20 6.40 -5.60 5.40 -0.40 -1 -28.40 -1.80 -67.80 -2 -66.20 0 -67.20 0 -63.80 3.80 5 5.40 0.60 7 -4.60 1.60z"/>
  <path fill="url(#lg0)" d="M2212.20 727 c-0.80 -6.60 12.40 -72.20 19 -95 1.80 -6 4 -14.60 5 -19 2.80 -11.40 16.40 -51 22.80 -66 25.40 -60.40 50.40 -104.60 92 -162.20 42 -58.40 108.60 -122 173.20 -165.40 70 -46.80 120.20 -69.80 206.80 -94.20 18.60 -5.40 69.80 -15 100 -19.20 25.40 -3.20 38.40 -3.80 85 -3.20 30.20 0.40 61.40 1.80 69 3 7.80 1.40 22.20 3.80 32.40 5.40 21.40 3.40 71.40 14 78.60 16.60 2.80 1 8.60 2.60 13 3.80 23.60 6.40 58.80 18.20 78 26.40 5.60 2.20 12.60 5.20 16 6.60 9.80 4 71.20 34.80 82 41.40 5.60 3.20 13.60 7.80 18 10.20 4.40 2.40 10.20 6 13 7.80 2.80 2 15.40 10.40 28 18.60 85.80 55.60 190.20 149.40 280.60 251.60 34.40 39 38.20 44.20 42 57.80 4.80 16.80 1.20 29.60 -13.40 48.40 -6.40 8 -16.40 21 -22.20 28.60 -41.60 54.40 -43.20 56 -47 55.40 -2.20 -0.40 -4 0.40 -4 1.40 0 1.20 1 2.20 2.20 2.20 1.20 0 1.80 1.20 1.20 2.60 -0.40 1.20 -2.80 2.20 -5 1.80 -2.40 -0.40 -4.40 0.40 -4.40 1.40 0 1.20 1 2.20 2.20 2.20 1.20 0 1.80 1.20 1.20 2.60 -0.40 1.20 -2.80 2.20 -5 1.80 -2.40 -0.40 -4.40 0.40 -4.40 1.40 0 1.20 1 2.20 2.20 2.20 1.20 0 1.80 1.20 1.20 2.60 -0.40 1.20 -2.80 2.20 -5 1.80 -2.40 -0.40 -4.40 0.40 -4.40 1.40 0 1.20 1 2.20 2.20 2.20 1.20 0 1.80 1.20 1.20 2.60 -0.40 1.20 -2.80 2.20 -5 1.80 -4.60 -0.60 -6.20 2.60 -1.80 4.20 1.80 0.60 1.80 1.60 0.20 3.20 -1.80 2 -3 1.80 -5.40 -0.60 -2.60 -2.60 -13 -3.20 -74.80 -3.20 l-71.60 -0.20 -6.40 -6.20 c-3.60 -3.60 -6.60 -8.20 -6.60 -10.40 0 -2 -0.60 -3.20 -1.40 -2.40 -2 1.80 -16.60 -13 -16.60 -17 0 -1.80 -1.40 -4.40 -3 -5.80 -1.60 -1.40 -3 -1.80 -3 -0.80 0 1 -8.60 -6.80 -19 -17.20 -10.40 -10.40 -19 -20 -19 -21.20 0 -1.20 -1.80 -3.80 -4 -5.80 -2.20 -2 -4 -2.80 -4 -2 0 0.80 -8.40 -6.40 -18.40 -16.20 -44 -42.40 -87 -77.60 -126.60 -103.60 -13.20 -8.80 -26.60 -17.60 -29.80 -19.80 -3.20 -2.20 -19.40 -10.80 -36 -19.20 -79.60 -40.40 -136 -53.80 -218.20 -51.60 -44.20 1.20 -67.40 4.40 -96.80 13.60 -33.60 10.40 -77 30.80 -102.60 48 -40.40 27.40 -85.60 72 -111 109.80 -9.60 14.40 -29.60 51.60 -36.80 68.60 -4.80 11 -7.60 15.40 -10.20 15.40 -4 0 -5 3.20 -1.20 4.40 4 1.40 0 11.60 -4.40 11.60 -4.40 0 -5.40 3.20 -1.40 4.60 1.40 0.60 1 1.20 -1 1.20 -4.20 0.20 -4.80 3.40 -1 4.80 1.40 0.60 1 1.20 -1 1.20 -3.80 0.20 -5.20 4.20 -1.60 4.20 1.20 0 2 1 2 2 0 1.20 -1.60 2 -3.40 2 -3 0 -3.20 0.40 -0.60 2 6 3.80 -1.40 5 -36.80 6 l-36.40 1 6.40 -25 c33 -129.60 125.80 -243.40 247.40 -304 70.80 -35.40 161.20 -53 235.40 -46.20 136.20 12.60 245.40 64.60 380 181 29.20 25.20 112.40 108.80 111 111.40 -0.80 1 0 1.80 1.40 1.80 3.20 0.20 30.80 31.40 30.20 34.20 -0.40 1 0.40 1.80 1.60 1.80 2.60 0 10.60 9.60 11 13.60 0.40 1.60 0.80 3 1.20 3 0.40 0.20 2.80 1.60 5.40 3.20 4.40 2.40 5.20 2.20 7.60 -1 1.40 -2.20 4.20 -6 6 -8.80 8.60 -12 64.60 -86.60 77.20 -102.60 7.60 -9.60 13.40 -18.60 12.80 -20 -1.80 -4.60 -57 -64.80 -89.20 -97.20 -139 -139.60 -266.20 -221.60 -411.20 -265 -108.60 -32.40 -245.80 -32.60 -350 -0.60 -71 21.80 -139 56.20 -196 99.20 -45.80 34.40 -100.60 90.20 -133.80 136.20 -25.40 35 -52.60 83.40 -72.40 128.20 -10.60 24 -30.20 82.20 -36.80 109.40 -3.40 13.40 -5.40 18.40 -7.80 18.60 -2 0 -2.40 0.40 -0.60 1.20 4.60 1.80 2 18.60 -2.80 18.60 -3.60 0 -3.60 3.20 0 4.60 1.80 0.80 2.40 2.80 1.80 5.20 -1.20 4.80 -6.60 5.80 -6.60 1.20 0 -2.60 -5 -3 -32.80 -3 -32.60 0 -33 0 -33.80 4.60 -0.40 2.40 -1 3.60 -1.20 2.40z"/>
  <path fill="url(#lg0)" d="M3968.20 726.20 c-1.40 -1 -2 -2.80 -1.40 -4 1 -1.60 -10.60 -2.20 -41.80 -2.20 l-43.20 0 8.60 -10.60 c51.40 -63 139.40 -153.60 191.60 -197.20 117.80 -98.40 213.40 -145.20 333.80 -163.20 96.20 -14.60 207.40 7.40 292.80 57.60 80 47.40 147.60 120.60 188.40 204.60 11 22.40 24.40 56.80 26.20 66.60 0.80 4 2.20 8.80 3.20 10.60 1.20 2.80 1 3.20 -1.40 2.40 -1.60 -0.80 -3 -0.20 -3 1 0 1.20 1.40 2.20 3 2.20 1.60 0 3 0.40 3 1 0 0.60 1.60 7.20 3.80 14.60 3.60 13.20 3.60 13.60 0 13.60 -2.20 0 -3.80 -0.80 -3.80 -1.60 0 -0.80 -15 -1.60 -33.40 -1.60 l-33.60 0 -2.40 -5.40 c-1.40 -3 -3.60 -10.20 -5 -16 -1.40 -5.80 -3.20 -10.60 -3.80 -10.60 -0.80 0 -2.60 -3.40 -3.80 -7.40 -8.40 -25.80 -34 -74 -52.40 -98.40 -40.20 -53.20 -88.40 -94.60 -139.60 -120.20 -66.60 -33.40 -110 -43 -185 -41.40 -49.20 1.20 -75 4.80 -107 14.60 -35.80 11.20 -82.40 30.80 -105 44.20 -68 40.20 -112.20 73.80 -178 136 -18.60 17.60 -36.20 34.40 -38.80 37.40 -2.80 2.80 -6.40 5.20 -8.20 5.20 -4.60 0 -13.20 9.20 -9.60 10.60 4 1.40 -17.80 23.20 -22.40 22 -4.40 -1.20 -7.40 3.20 -3.80 5.60 4 2.40 -9.20 15.60 -14.40 14.40 -4.20 -1.20 -5.40 2.40 -1.20 4 1.60 0.60 0.40 3 -3.60 7.20 -4.20 4.20 -6.80 5.60 -8.80 4.40z"/>
  <path fill="url(#lg0)" d="M3663.40 724.60 c-1.80 -0.60 -3 -1.80 -2.40 -2.80 0.80 -1 -14.80 -1.80 -38.80 -1.80 -22.20 0 -40.20 -0.60 -40.20 -1.40 0 -1 5.80 -9 12.60 -18 6.80 -9 16.80 -22.60 22.20 -30 14.80 -20.40 85.20 -108.20 106.80 -133.60 10.40 -12 21.20 -24.60 24 -28 27.60 -32.60 93.20 -101 127 -132.40 62.40 -58.20 91.20 -81.60 153.40 -124.80 27.60 -19.40 35.80 -24.60 62 -40 52.20 -30.80 125.40 -63.40 167.80 -75 6.20 -1.80 14 -3.80 17.20 -4.80 34 -9.40 65.40 -16.20 110 -23.80 26.60 -4.60 70.60 -6.80 111.60 -5.60 67.40 1.80 112 9.40 193.40 33 39.80 11.40 97.20 37.40 140 63.40 87.40 53 165.80 127.20 221 208.80 17 25.20 20.20 30.20 26.60 41.20 22 38 34.40 62.80 44.60 89 3.20 8.20 6.80 16.80 7.80 19 2.60 5.20 9.40 24.80 14 40 1.80 6.60 6 20 8.80 30 7.60 25.20 13.80 57.80 11.20 58.60 -3 1 -2.40 4.40 1 4.40 1.60 0 3 1.40 3 3 0 1.60 -0.80 3 -2 3 -1 0 -2 1 -2 2 0 1.20 1.40 2 3 2 3.60 0 4 7.20 0.60 8.60 -1.60 0.60 -1.20 1.20 1 1.20 4.40 0.20 4.60 7.40 0.20 9 -1.80 0.60 -17.80 1.20 -35.80 1.20 -32.20 0 -32.80 0 -34.20 -4.40 -0.80 -2.60 -1.40 -5.80 -1 -7.20 0.20 -1.60 -0.40 -3.80 -1.20 -5 -1 -1.40 -2 -5.60 -2.40 -9.40 -0.20 -3.80 -1.80 -11 -3.20 -16 -1.60 -5 -6 -20.60 -10 -34.80 -23.60 -82.40 -64.20 -161.20 -118.60 -230.20 -22.40 -28.20 -73.40 -79.80 -100.40 -101.20 -64.20 -51 -141 -90.80 -220 -113.60 -115.60 -33.40 -262.20 -27.60 -380 15.20 -125.20 45.40 -237 119.80 -359.80 239.60 -42.40 41.40 -111.60 118 -155 171.60 -10.80 13.40 -17 19.40 -20 19.40 -3.20 0 -3.60 0.40 -1.40 1.80 4.20 2.60 -31.20 47.60 -36.80 46.60 -3 -0.40 -3.40 -0.20 -1.20 1.20 3.80 2.80 -6.60 16.40 -12.60 16.40 -3.20 0 -3.60 0.40 -1.40 1.80 3.80 2.40 1 6 -3.80 4.80 -4.40 -1.20 -5.60 2.40 -1.40 4 3.60 1.40 -0.80 4.80 -5.20 4z"/>
  <path fill="url(#lg0)" d="M64 487.80 l0 -232.20 5.20 -21.40 c11.20 -46.40 38 -75 83.20 -88.60 l20.60 -6.40 52 0 c69.80 -0.20 90.20 3.60 115.60 22.40 12 9 19.20 16.80 26.40 29.20 5.80 9.80 15 35.20 15 41.20 0 4.20 3.80 5.40 7.20 2.20 1 -1 5.40 -3.80 9.80 -6.40 4.40 -2.40 13.40 -7.40 20 -11.20 40.60 -23 112.80 -52.60 165 -67.40 6 -1.60 16.80 -4.80 24 -7 33.40 -9.80 109.20 -25.20 156 -31.60 29.60 -4 48.60 -5.20 95.40 -6 85 -1.60 120.20 2.20 193.80 21.20 24 6.20 52.40 19.80 82.80 39.80 25.80 17.20 62.40 51.80 78.80 74.80 5.20 7.60 10 13.60 10.40 13.60 0.40 0 9.60 -5.80 20.20 -12.60 33.60 -21.80 91.80 -53.20 125.60 -67.60 28.60 -12.20 75 -29 94 -34 72.80 -19.20 125.20 -28.80 184 -33.80 35.80 -3 113.60 -2.40 144.40 1 33 3.60 74 12.60 104 22.80 75.60 25.60 139.20 77.20 180.20 146.20 16 26.80 28.80 60.20 38.20 99 2.40 10 5.20 21.20 6.20 25 8.80 34 11.60 100 10.40 246.60 l-0.40 73.40 -35.80 0 -35.60 0 -1.40 -120.40 c-0.80 -66.40 -2.40 -130.40 -3.40 -142.60 -10.40 -113.40 -61.60 -198.40 -144.40 -240.20 -53.80 -27.20 -95.20 -36.40 -172.60 -38.20 -82.20 -2 -159 6.40 -229.80 25.40 -79 21 -163 60 -244.60 113.60 -24.20 15.80 -41.60 20.60 -58.40 15.60 -16.40 -4.80 -24.60 -11.80 -40.40 -34 -17 -23.60 -43.20 -51.60 -61.60 -65.40 -28.60 -21.60 -75.40 -41 -115 -47.80 -45.60 -7.80 -123.40 -10.40 -176 -6 -151.40 12.80 -290.40 57.20 -403.20 129 -23.40 14.80 -38 19 -54 15.40 -12.80 -3 -23 -10 -30.20 -20.60 -6.60 -10 -8.80 -17 -12.60 -41.20 -3.20 -20.60 -8 -33.40 -15.20 -39.80 -9.60 -8.60 -17.80 -9.80 -69.80 -9.80 -47 0 -49.40 0.20 -59 4.60 -13 6 -19.60 12.60 -25.40 25.20 l-4.60 10.20 -0.60 191.60 c-0.40 167.40 -0.80 191.40 -3.40 191.40 -2.60 0 -3 6.20 -3 42 l0 42 -34 0 -34 0 0 -232.20z"/>
 </g>
</svg>