<?xml version="1.0" ?><!DOCTYPE svg  PUBLIC '-//W3C//DTD SVG 1.1//EN'  'http://www.w3.org/Graphics/SVG/1.1/DTD/svg11.dtd'><svg enable-background="new 0 0 128 128" height="128px" id="Layer_1" version="1.1" viewBox="0 0 128 128" width="128px" xml:space="preserve" xmlns="http://www.w3.org/2000/svg" xmlns:xlink="http://www.w3.org/1999/xlink"><path d="M127.1,101.656c0,2.245-1.814,4.061-4.061,4.061H5.16c-2.242,0-4.061-1.815-4.061-4.061V25.598  c0-2.242,1.819-4.061,4.061-4.061h117.879c2.246,0,4.061,1.819,4.061,4.061V101.656z" fill="#808080"/><g><path clip-rule="evenodd" d="M66.399,89.467c-2.488,2.123-5.161,3.969-8.141,5.345   c-2.253,1.046-4.61,1.738-7.025,2.276c-2.995,0.669-6.044,0.623-9.063,0.469c-2.842-0.146-5.606-0.861-8.291-1.86   c-2.461-0.923-4.76-2.131-6.929-3.6c-2.003-1.361-3.842-2.914-5.472-4.698c-1.842-2.023-3.411-4.245-4.726-6.652   c-1.257-2.3-2.149-4.737-2.807-7.26c-0.38-1.465-0.619-2.965-0.772-4.479c-0.166-1.585-0.25-3.169-0.169-4.753   c0.123-2.492,0.511-4.949,1.215-7.352c0.607-2.077,1.384-4.087,2.407-5.995c1.065-1.98,2.311-3.842,3.749-5.58   c2.342-2.83,5.095-5.176,8.229-7.052c3.026-1.815,6.279-3.111,9.755-3.811c1.542-0.308,3.087-0.519,4.66-0.634   c1.107-0.077,2.211-0.108,3.307-0.058c1.538,0.077,3.072,0.227,4.587,0.531c2.276,0.45,4.502,1.081,6.625,2.011   c2,0.876,3.926,1.907,5.707,3.188c1.088,0.785,2.122,1.634,3.153,2.488c0.88,0.4,1.469,1.138,2.053,1.857   c0.254,0.315,0.081,0.55-0.399,0.565c-0.9,0.035-1.808,0.073-2.703-0.004c-0.896-0.081-1.546,0.196-2.007,0.954   c-0.1,0.161-0.246,0.284-0.385,0.48c0.192,0.077,0.361,0.05,0.523,0.05c1.977,0,3.953,0.016,5.93-0.011   c0.604-0.008,1.03,0.196,1.35,0.696c0.242,0.381,0.546,0.723,0.769,1.111c0.224,0.381,0.139,0.531-0.3,0.581   c-0.188,0.02-0.381,0.008-0.569,0.008c-2.811,0-5.617,0-8.424,0c-1.15,0-1.48,0.261-1.796,1.403   c0.123,0.108,0.269,0.069,0.404,0.069c3.753,0,7.502,0.008,11.255-0.004c0.523-0.073,0.854,0.158,1.076,0.627   c0.192,0.404,0.416,0.796,0.593,1.211c0.139,0.315,0.038,0.5-0.308,0.534c-0.23,0.027-0.454,0.02-0.677,0.02   c-4.219,0-8.433,0.027-12.647-0.02c-0.823-0.008-1.323,0.219-1.527,1.023c-0.034,0.131-0.119,0.25-0.15,0.384   c0,0.058,0.02,0.108,0.069,0.146c0.204,0.062,0.416,0.034,0.623,0.034c4.668,0,9.336,0,14,0.004c0.354,0,0.7-0.038,1.046-0.015   c0.23,0.019,0.469,0.039,0.6,0.246c0.346,0.515,0.5,1.104,0.607,1.704c0.039,0.227-0.146,0.288-0.322,0.323   c-0.239,0.046-0.485,0.035-0.731,0.035c-5.306,0-10.62,0-15.93,0c-0.881,0-1.234,0.342-1.285,1.219   c-0.015,0.204,0.069,0.292,0.258,0.308c0.188,0.02,0.381,0.012,0.573,0.012c5.534,0,11.071,0,16.608,0c0.207,0,0.415,0,0.623,0.004   c0.753,0.015,0.884,0.123,1.061,0.865c0.293,1.284,0.254,1.342-1.046,1.342c-5.913-0.004-11.832-0.035-17.749-0.023   c-0.208,0-0.416,0.007-0.623-0.016c-0.861-0.162-1.727-0.062-2.592-0.077c-0.365-0.008-0.454,0.234-0.503,0.538   c-0.358,2.119-0.765,4.23-1.127,6.349c-0.285,1.657-0.619,3.303-0.88,4.968c-0.192,1.238,0.173,1.796,1.411,2.015   c0.927,0.162,1.861,0.174,2.788-0.054c0.496-0.123,0.789-0.396,0.834-0.919c0.031-0.312,0.258-0.657,0.115-0.911   c-0.185-0.334-0.561-0.027-0.854-0.05c-0.3-0.027-0.584-0.085-0.857-0.2c-0.3-0.131-0.484-0.373-0.438-0.696   c0.143-0.977,0.262-1.957,0.408-2.934c0.019-0.119,0.065-0.234,0.196-0.284c0.062-0.008,0.115,0.004,0.165,0.038   c0.058,0.835,0.577,1,1.292,0.903c0.15-0.022,0.308,0.008,0.446,0.093c0.238,0.331,0.177,0.734,0.238,1.104   c0.304,1.857,1.338,3.08,3.134,3.646c1.611,0.511,3.253,0.457,4.895,0.203c0.704-0.107,1.169-0.445,1.211-1.241   c0.023-0.462,0.158-0.919,0.208-1.373c-0.154-0.123-0.25,0-0.342,0.046c-1.35,0.681-2.769,0.77-4.215,0.458   c-0.923-0.2-1.588-0.77-1.922-1.669c-0.266-0.723-0.031-1.054,0.738-1.058c1.857-0.008,3.714-0.016,5.572,0.004   c0.446,0.008,0.657-0.111,0.699-0.592c0.073-0.808,0.239-1.596,0.188-2.427c-0.131-2.13-1.938-3.384-3.76-3.464   c-1.027-0.046-2.049,0.004-3.022,0.396c-1.634,0.657-2.599,1.903-3.107,3.553c-0.084,0.273-0.084,0.593-0.365,0.777   c-0.488,0.138-0.984,0.076-1.477,0.058c-0.373-0.012-0.48-0.266-0.48-0.593c-0.035-0.492,0.1-0.961,0.2-1.434   c0.062-0.289,0.231-0.4,0.523-0.373c0.346,0.035,0.692,0.023,1.038,0.02c0.289,0,0.45-0.143,0.5-0.423   c0.073-0.442,0.146-0.888,0.223-1.33c0.054-0.327-0.1-0.442-0.404-0.438c-0.208,0.004-0.415,0.008-0.623-0.004   c-0.219-0.016-0.496,0.035-0.6-0.204c-0.115-0.266-0.062-0.542,0.181-0.754c0.23-0.104,0.473-0.088,0.715-0.088   c6.217,0,12.431,0,18.653,0c0.808,0,0.907,0.073,1.016,0.642c-0.077,0.473-0.385,0.846-0.569,1.273   c-0.415,0.977-0.692,1.988-0.893,3.026c-0.046,0.234-0.062,0.488-0.308,0.627c-1.046,0.13-2.084,0.1-3.13,0.019   c-0.308-0.146-0.177-0.369-0.076-0.565c0.369-0.695,0.991-1.138,1.737-1.184c0.915-0.055,1.339-0.442,1.446-1.327   c0.054-0.407,0.3-0.769,0.515-1.13c0.231-0.404,0.2-0.45-0.276-0.45c-0.977,0-1.792,0.342-2.438,1.088   c-0.139,0.166-0.239,0.454-0.562,0.308c-0.085-0.13-0.085-0.273-0.069-0.419c0.008-0.084,0.03-0.169,0.046-0.254   c0.077-0.55,0.038-0.596-0.522-0.604c-0.523-0.004-1.039-0.004-1.562,0c-0.766,0-0.758,0.012-0.899,0.746   c-0.454,2.368-0.742,4.76-1.17,7.129c-0.173,0.938-0.354,1.876-0.511,2.814c-0.085,0.508-0.054,0.558,0.442,0.565   c0.607,0.012,1.211-0.016,1.818,0.008c0.393,0.016,0.565-0.15,0.615-0.523c0.035-0.254,0.073-0.526,0.342-0.669   c0.162-0.069,0.339-0.073,0.508-0.073c1.407-0.004,2.814-0.011,4.215,0c0.699,0.008,0.8,0.139,0.653,0.812   c-0.331,1.492-0.331,1.492-1.876,1.492c-5.356,0-10.713,0-16.073,0c-0.139,0-0.277,0-0.416,0c-0.511,0.016-0.558,0.069-0.411,0.546   c0.088,0.285,0.154,0.577,0.296,0.838c0.031,0.047,0.073,0.093,0.127,0.131c0.219,0.077,0.446,0.047,0.673,0.047   c4.891,0.008,9.786,0,14.681,0.008c0.484,0,0.969-0.055,1.453-0.008c0.438,0.054,0.546,0.215,0.423,0.638   c-0.115,0.385-0.292,0.738-0.461,1.1c-0.139,0.277-0.361,0.416-0.661,0.438c-0.246,0.016-0.492,0.016-0.73,0.016   c-4.584,0-9.164-0.008-13.743,0c-0.831,0-0.823,0.031-0.492,0.808c0.242,0.569,0.596,0.754,1.2,0.746   c4.08-0.023,8.156-0.016,12.235-0.008c1.154,0,1.162,0.077,0.731,1.13c-0.385,0.924-0.946,1.208-1.954,1.185   c-3.364-0.077-6.732-0.03-10.101-0.03c-0.119,0-0.242-0.008-0.354,0.046c-0.027,0.046-0.039,0.093-0.027,0.146   c1.007,1.63,0.619,1.376,2.372,1.384c2.445,0.016,4.896,0,7.341,0.008c0.254,0,0.596-0.092,0.727,0.154   c0.143,0.276-0.143,0.507-0.304,0.723c-1.385,1.799-0.903,1.477-2.977,1.499c-1.249,0.016-2.499,0-3.749,0.008   c-0.181,0-0.381-0.062-0.596,0.108c0.357,0.399,0.673,0.822,1.062,1.191c0.177,0.169,0.411,0.162,0.638,0.162   c0.731,0.007,1.458,0,2.188,0.007c0.2,0.008,0.457-0.03,0.538,0.208c0.077,0.223-0.085,0.415-0.246,0.538   C67.287,88.76,66.945,89.244,66.399,89.467z" fill="#E6E6E6" fill-rule="evenodd"/><path clip-rule="evenodd" d="M66.399,89.467c0.284-0.354,0.604-0.653,0.969-0.931   c0.215-0.161,0.488-0.338,0.519-0.723c-0.842,0-1.672-0.046-2.491,0.016c-0.565,0.046-0.938-0.162-1.261-0.577   c-0.223-0.284-0.473-0.546-0.715-0.815c-0.092-0.107-0.223-0.223-0.162-0.354c0.065-0.146,0.246-0.069,0.377-0.069   c1.838-0.008,3.672-0.008,5.51,0.008c0.369,0,0.607-0.115,0.819-0.423c0.369-0.53,0.788-1.03,1.203-1.562   c-0.173-0.123-0.331-0.076-0.473-0.076c-2.876-0.008-5.752-0.016-8.629,0c-0.388,0-0.654-0.077-0.842-0.438   c-0.223-0.423-0.5-0.823-0.754-1.23c0.107-0.085,0.234-0.054,0.354-0.054c3.311,0,6.618,0,9.929,0c0.096,0,0.192-0.016,0.211,0   c-3.387,0-6.84-0.008-10.297,0c-0.073,0-0.139,0.007-0.196,0.054c-0.073-0.077-0.081-0.162,0.042-0.177   c0.154-0.023,0.311-0.016,0.465-0.016c3.626,0,7.252-0.008,10.882,0.008c0.423,0,0.677-0.101,0.83-0.516   c0.131-0.369,0.331-0.715,0.539-1.062c0.223-0.369,0.115-0.446-0.277-0.446c-2.326,0.016-4.652,0.008-6.975,0.008   c-2.065,0-4.13-0.015-6.195,0.016c-0.419,0.008-0.634-0.139-0.772-0.5c-0.1-0.262-0.246-0.5-0.366-0.746   c-0.281-0.568-0.25-0.623,0.369-0.623c3.365,0,6.729,0,10.098,0c1.596,0,3.188-0.007,4.787,0.008c0.323,0,0.522-0.092,0.63-0.399   c0.139-0.393,0.285-0.776,0.454-1.161c0.115-0.254,0.054-0.354-0.215-0.354c-0.139,0.007-0.277,0-0.416,0   c-5.363,0-10.724,0.007-16.084,0c-0.196,0-0.416,0.084-0.592-0.085c0.146-0.085,0.308-0.046,0.461-0.046   c4.922-0.008,9.848-0.008,14.777-0.008c0.131,0,0.269-0.008,0.3,0c-1.385,0-2.872,0-4.364,0c-3.538,0-7.075,0-10.613,0   c-0.188,0-0.381-0.047-0.565,0.046c-0.369-0.508-0.35-1.153-0.681-1.761c0.323,0,0.546,0,0.769,0   c5.771,0,11.547-0.008,17.315,0.015c0.492,0,0.73-0.138,0.8-0.615c0.046-0.322,0.115-0.646,0.223-0.949   c0.139-0.381,0.023-0.47-0.361-0.466c-1.646,0.016-3.292,0.008-4.938,0.004c-0.208-0.488-0.012-1.561,0.354-1.93   c0.478-0.143,0.962-0.081,1.446-0.073c0.992,0.012,1.977-0.065,2.961,0.042c0.246,0.073,0.346,0.277,0.461,0.473   c1.054,1.723,2.607,2.584,4.614,2.623c0.762,0.016,1.53,0.058,2.284-0.107c0.339-0.077,0.677-0.162,0.977-0.347   c0.262-0.153,0.446-0.365,0.5-0.685c0.123-0.715,0.285-1.419,0.408-2.18c-1.293,0.846-2.646,0.935-4.061,0.519   c-1.315-0.388-2.1-1.272-2.254-2.634c-0.2-1.784,0.315-3.403,1.361-4.845c0.469-0.631,1.123-1.034,1.907-1.173   c1.292-0.223,2.554-0.15,3.784,0.35c0.507,0.208,0.522,0.192,0.615-0.369c0.092-0.6,0.199-1.2,0.322-1.792   c0.062-0.273,0.008-0.477-0.284-0.573c-2.23-0.746-4.453-0.858-6.66,0.073c-0.861,0.365-1.584,0.904-2.146,1.677   c-0.161,0.223-0.27,0.581-0.669,0.538c0.016-0.365-0.031-0.611-0.523-0.611c-6.587,0.019-13.169,0.015-19.752,0.019   c-0.088-0.619-0.108-1.223,0.369-1.719c4.034-0.004,8.063,0,12.097-0.004c-4.026-0.004-8.052,0.004-12.078-0.004   c-0.081-0.007-0.111-0.054-0.092-0.134c6.318,0,12.635,0,18.95-0.004c0.646,0,0.646,0,0.507-0.615   c-0.292-1.284-0.292-1.284-1.622-1.284c-5.729,0-11.459,0-17.185,0c-0.615,0-0.615,0-0.415-0.596   c0.138-0.404,0.169-0.942,0.45-1.177c0.315-0.261,0.865-0.081,1.315-0.081c5.207-0.004,10.413-0.004,15.619-0.004   c0.308,0,0.615,0,0.984,0c-0.2-0.592-0.384-1.13-0.562-1.669c-0.107-0.35-0.377-0.338-0.661-0.338   c-3.96,0.004-7.917,0.004-11.874,0.004c-1.18,0-2.361,0-3.542-0.008c-0.161,0-0.35,0.077-0.488-0.077   c0.181-0.096,0.373-0.05,0.562-0.05c4.729-0.004,9.463,0,14.189-0.004c0.161,0,0.323,0.035,0.469-0.046   c0.062-0.046-0.054-0.073-0.008-0.023c0.023,0.027,0.016,0.035-0.022,0.046c-0.115,0.042-0.231,0.019-0.347,0.019   c-4.803,0.004-9.605,0.004-14.404,0c-0.154,0-0.312,0.039-0.458-0.046c0.069-0.157,0.165-0.312,0.196-0.473   c0.223-1.131,0.969-1.23,1.969-1.219c4.279,0.054,8.563,0.023,12.843,0.023c0.169,0,0.346,0,0.607,0   c-0.346-0.673-0.661-1.304-0.992-1.915c-0.153-0.269-0.453-0.088-0.677-0.162c-0.169-0.115-0.369-0.054-0.554-0.058   c-3.63-0.004-7.26,0-10.893-0.004c-0.185,0-0.381,0.054-0.558-0.058c0.219-0.546,0.569-1.019,0.85-1.53   c0.123-0.227,0.338-0.127,0.511-0.127c3.153-0.008,6.311-0.008,9.463-0.008c0.188,0,0.373,0,0.643,0   c-0.435-0.734-0.893-1.369-1.403-1.961c-0.146-0.166-0.361-0.096-0.542-0.096c-2.342-0.004-4.68-0.004-7.106-0.004   c0.492-0.588,0.935-1.123,1.38-1.649c0.154-0.185,0.377-0.15,0.584-0.15c1.3,0,2.596,0,3.995,0   c-0.542-0.977-1.434-1.527-2.114-2.269c0.745-0.819,1.653-1.45,2.533-2.107c1.846-1.392,3.857-2.511,5.964-3.445   c2.154-0.954,4.399-1.623,6.714-2.08c2.308-0.454,4.63-0.666,6.976-0.596c2.63,0.081,5.222,0.473,7.768,1.184   c1.846,0.516,3.638,1.181,5.36,2.019c2.106,1.03,4.075,2.292,5.913,3.76c1.23,0.984,2.385,2.046,3.461,3.192   c1.615,1.719,3,3.614,4.23,5.625c1.207,1.969,2.114,4.064,2.822,6.245c0.522,1.607,0.907,3.249,1.199,4.918   c0.454,2.576,0.339,5.171,0.254,7.752c-0.062,2.049-0.538,4.063-1.107,6.036c-0.646,2.223-1.5,4.36-2.607,6.392   c-1.015,1.876-2.215,3.637-3.599,5.26c-0.7,0.83-1.407,1.653-2.199,2.407c-1.931,1.854-4.038,3.476-6.345,4.837   c-3.161,1.861-6.568,3.054-10.151,3.776c-2.33,0.477-4.699,0.431-7.06,0.438c-2.639,0.016-5.176-0.484-7.698-1.177   c-2.308-0.631-4.491-1.562-6.568-2.73c-1.868-1.046-3.648-2.245-5.256-3.684C66.799,89.836,66.519,89.736,66.399,89.467z" fill="#FFFFFF" fill-rule="evenodd"/><path clip-rule="evenodd" d="M29.039,63.861c-0.631,1.504-1.265,3.007-1.892,4.511   c-0.708,1.695-1.411,3.396-2.107,5.095c-0.096,0.23-0.238,0.304-0.477,0.3c-0.903-0.012-1.803-0.016-2.707,0   c-0.354,0.008-0.442-0.142-0.438-0.465c0.03-1.554-0.177-3.092-0.219-4.642c-0.035-1.185-0.139-2.368-0.211-3.549   c-0.031-0.473-0.05-0.954-0.2-1.442c-0.092,0.48-0.192,0.961-0.277,1.446c-0.469,2.78-0.946,5.56-1.396,8.344   c-0.042,0.258-0.127,0.308-0.35,0.304c-0.8-0.004-1.596-0.015-2.396,0.004c-0.335,0.012-0.369-0.142-0.323-0.411   c0.408-2.312,0.8-4.63,1.215-6.944c0.327-1.854,0.68-3.707,1.015-5.561c0.038-0.215,0.1-0.458,0.088-0.65   c-0.046-0.665,0.292-0.761,0.823-0.7c0.188,0.02,0.381-0.012,0.569-0.019c1.042-0.088,2.084-0.088,3.126,0   c0.104,0.007,0.208,0.035,0.308,0.019c0.384-0.058,0.48,0.084,0.504,0.48c0.107,1.869,0.211,3.746,0.315,5.614   c0.039,0.643-0.004,1.3,0.143,2.104c0.415-0.992,0.769-1.846,1.126-2.695c0.73-1.758,1.461-3.519,2.196-5.276   c0.077-0.185,0.215-0.231,0.411-0.227c0.485,0.008,0.969-0.012,1.454-0.019c0.696-0.084,1.388-0.084,2.084,0   c0.361,0.007,0.73,0.05,1.088,0.015c0.431-0.038,0.492,0.154,0.427,0.512c-0.208,1.176-0.4,2.357-0.611,3.534   c-0.3,1.692-0.611,3.383-0.912,5.076c-0.28,1.572-0.554,3.149-0.834,4.722c-0.046,0.258-0.135,0.45-0.496,0.435   c-0.762-0.042-1.527-0.02-2.288-0.012c-0.296,0.004-0.354-0.034-0.288-0.381c0.376-1.995,0.704-3.999,1.049-5.998   c0.188-1.077,0.377-2.149,0.569-3.226c0.104-0.116,0.073-0.25,0.004-0.358C29.097,63.746,29.074,63.842,29.039,63.861z" fill="#808080" fill-rule="evenodd"/><path clip-rule="evenodd" d="M57.436,66.753c0.311-1.784,1.234-3.172,2.765-4.122   c0.623-0.384,1.35-0.561,2.076-0.626c1.665-0.15,3.292-0.088,4.553,1.242c0.561,0.592,0.807,1.327,0.923,2.135   c0.157,1.072-0.154,2.099-0.212,3.152c-0.016,0.361-0.288,0.234-0.461,0.234c-1.996,0.008-3.992,0.004-5.987,0.004   c-0.658,0-0.719,0.089-0.531,0.72c0.292,0.999,1.208,1.642,2.234,1.761c1.042,0.119,2.05,0.119,3.038-0.227   c0.427-0.154,0.834-0.373,1.308-0.589c-0.15,0.9-0.289,1.762-0.431,2.619c-0.031,0.169-0.192,0.192-0.308,0.254   c-0.489,0.269-1.035,0.419-1.565,0.431c-1.554,0.034-3.126,0.169-4.626-0.47c-1.63-0.692-2.595-1.872-2.872-3.634   c-0.058-0.357-0.069-0.715-0.108-1.072C56.998,67.926,57.117,67.33,57.436,66.753z" fill="#808080" fill-rule="evenodd"/><path clip-rule="evenodd" d="M76.72,62.054c0.623-0.73,1.223-1.473,2.068-1.98   c0.923-0.558,1.931-0.858,2.969-0.954c1.562-0.153,3.106,0,4.591,0.542c0.238,0.088,0.424,0.181,0.323,0.562   c-0.192,0.688-0.331,1.403-0.385,2.119c-0.038,0.623-0.238,0.534-0.677,0.331c-1.138-0.527-2.346-0.604-3.583-0.435   c-1.354,0.181-2.115,1.069-2.692,2.184c-0.568,1.119-0.854,2.314-0.73,3.572c0.17,1.673,1.046,2.526,2.869,2.83   c1.238,0.208,2.376-0.023,3.445-0.808c0.038,0.546-0.146,1.008-0.192,1.48c-0.039,0.389-0.131,0.773-0.2,1.161   c-0.069,0.419-0.407,0.619-0.73,0.734c-1.892,0.673-5.483,0.681-7.168-1.334c-0.377-0.454-0.715-0.919-0.969-1.446   c-0.461-0.384-0.461-0.961-0.592-1.483c-0.054-0.196-0.047-0.404-0.062-0.608c-0.123-0.604-0.192-1.199,0.138-1.769   C75.412,65.104,75.881,63.516,76.72,62.054z" fill="#808080" fill-rule="evenodd"/><path clip-rule="evenodd" d="M48.742,61.97c0.912-0.027,1.819,0.012,2.723,0.185   c0.327,0.062,0.312,0.208,0.269,0.415c-0.123,0.604-0.265,1.204-0.392,1.804c-0.054,0.238-0.177,0.342-0.435,0.334   c-0.431-0.016-0.865-0.073-1.281-0.142c-0.63-0.1-1.215,0.05-1.814,0.126c-0.473,0.062-0.861,0.338-0.9,0.789   c-0.042,0.477,0.35,0.812,0.765,1.004c0.558,0.253,1.142,0.457,1.719,0.661c1.434,0.504,1.923,1.818,1.673,3.195   c-0.042,0.238-0.023,0.473-0.081,0.715c-0.415,1.719-1.93,2.48-3.449,2.715c-0.842,0.127-1.692,0.131-2.53,0.077   c-0.861-0.058-1.738-0.054-2.569-0.385c-0.304-0.119-0.392-0.23-0.292-0.569c0.154-0.519,0.273-1.061,0.331-1.604   c0.042-0.396,0.227-0.445,0.527-0.354c1.096,0.335,2.219,0.435,3.36,0.404c0.804-0.027,1.234-0.481,1.204-1.273   c-0.011-0.342-0.185-0.522-0.465-0.677c-0.807-0.449-1.73-0.642-2.511-1.177c-1.065-0.734-1.288-1.78-1.173-2.892   c0.065-0.63,0.266-1.226,0.615-1.772c0.611-0.946,1.558-1.276,2.592-1.484C47.327,61.923,48.034,61.981,48.742,61.97z" fill="#808080" fill-rule="evenodd"/><path clip-rule="evenodd" d="M56.74,59.601c-0.011,0.031-0.011,0.058,0.004,0.088   c0.027,0.023,0.039,0.046,0.031,0.069c-0.008,0.019-0.019,0.031-0.027,0.031c-0.1,0.558-0.204,1.115-0.304,1.672   c-0.027,0.219-0.058,0.438-0.092,0.704c0.592,0,1.188,0,1.815,0c-0.139,0.784-0.289,1.515-0.381,2.249   c-0.035,0.273-0.154,0.292-0.365,0.289c-0.346-0.008-0.711,0.065-1.034-0.019c-0.523-0.143-0.588,0.173-0.658,0.53   c-0.069,0.365-0.135,0.734-0.2,1.104c-0.012,0.196,0.011,0.389,0.023,0.585c-0.054,0.196-0.012,0.419-0.173,0.584   c-0.185,1.023-0.377,2.046-0.55,3.072c-0.058,0.335,0.023,0.565,0.416,0.708c0.55,0.196,1.073,0.157,1.6,0.004   c0.312-0.085,0.346,0.05,0.288,0.28c-0.134,0.512-0.269,1.023-0.3,1.55c-0.008,0.173-0.134,0.219-0.257,0.288   c-0.319,0.181-0.669,0.266-1.027,0.308c-1.011,0.119-2.026,0.158-3.007-0.157c-0.777-0.25-1.15-0.907-0.984-1.815   c0.296-1.646,0.542-3.295,0.873-4.933c0.334-1.665,0.577-3.35,0.858-5.03c0.107-0.619,0.208-1.238,0.327-1.854   c0.05-0.265,0.166-0.431,0.511-0.416c0.746,0.039,1.492,0.008,2.238,0.016C56.494,59.509,56.647,59.447,56.74,59.601z" fill="#808080" fill-rule="evenodd"/><path clip-rule="evenodd" d="M71.113,70.613c-0.188,0.604-0.292,1.224-0.315,1.854   c-0.2,0.266-0.157,0.601-0.192,0.889c-0.038,0.354-0.149,0.419-0.465,0.411c-0.812-0.016-1.627-0.019-2.441,0   c-0.351,0.012-0.389-0.107-0.327-0.427c0.338-1.788,0.665-3.58,0.973-5.375c0.319-1.835,0.611-3.673,0.907-5.507   c0.039-0.262,0.181-0.292,0.396-0.289c0.846,0.008,1.695,0.008,2.541-0.003c0.27,0,0.432,0.077,0.301,0.357   c-0.115,0.23,0.008,0.492-0.139,0.704c-0.093,0.115-0.039,0.258-0.054,0.384c-0.008,0.069,0.022,0.112,0.015,0.042   c0-0.004,0.023-0.015,0.039-0.023c0.423-0.185,0.584-0.642,0.945-0.915c0.815-0.627,1.708-0.688,2.738-0.619   c-0.484,0.776-0.854,1.542-1.016,2.388c-0.022,0.115-0.03,0.238-0.061,0.35c-0.063,0.196-0.039,0.38-0.416,0.303   c-1.107-0.223-2.483,0.643-2.707,1.619c0.069,0.635-0.23,1.215-0.276,1.83C71.397,69.26,71.437,69.979,71.113,70.613z" fill="#808080" fill-rule="evenodd"/><path clip-rule="evenodd" d="M71.429,68.564c0.115-0.607,0.139-1.234,0.407-1.808   c1.1,0,2.199,0,3.307-0.004c-0.046,0.604-0.177,1.208,0,1.812c-0.046,0.03-0.076,0.073-0.13,0.08   c-1.154,0.101-2.308,0.104-3.453-0.004C71.506,68.638,71.467,68.591,71.429,68.564z" fill="#FFFFFF" fill-rule="evenodd"/><path clip-rule="evenodd" d="M55.494,66.907c0.011-0.2,0.023-0.396,0.035-0.593   c0.007,0.335,0.142,0.48,0.507,0.454c0.465-0.038,0.935-0.012,1.4-0.016c-0.092,0.604-0.208,1.2-0.204,1.812   c-0.346,0-0.692-0.004-1.038-0.008c-0.665,0-0.711-0.042-0.715-0.696c0-0.119,0.004-0.242,0.008-0.361   C55.536,67.299,55.336,67.1,55.494,66.907z" fill="#FFFFFF" fill-rule="evenodd"/><path clip-rule="evenodd" d="M109.742,72.89c-0.931,0.716-1.953,1.119-3.122,1.073   c-1.631-0.069-2.761-0.942-3.346-2.334c-1.062-2.554-0.584-4.972,0.938-7.171c1.084-1.557,2.622-2.418,4.584-2.276   c1.053,0.073,1.892,0.573,2.561,1.53c0.192-1.073,0.385-2.049,0.546-3.03c0.038-0.235,0.139-0.458,0.123-0.708   c-0.016-0.196,0.093-0.369,0.339-0.365c0.915,0,1.83,0,2.761,0c-0.347,2.011-0.677,3.976-1.016,5.937   c-0.407,2.376-0.808,4.757-1.23,7.133c-0.192,1.084-0.215,1.08-1.315,1.08c-0.484,0-0.977-0.042-1.453,0.012   c-0.492,0.058-0.546-0.173-0.469-0.546C109.665,73.109,109.712,73.002,109.742,72.89z" fill="#808080" fill-rule="evenodd"/><path clip-rule="evenodd" d="M91.823,72.883c-0.707,0.484-1.392,0.872-2.176,1.022   c-1.423,0.266-2.715,0.115-3.761-1.026c-0.385-0.42-0.546-0.931-0.615-1.446c-0.162-1.308,0.077-2.561,1.015-3.545   c0.808-0.843,1.831-1.315,3-1.438c1.092-0.115,2.184-0.262,3.291-0.215c0.284,0.011,0.277-0.354,0.246-0.562   c-0.085-0.573-0.562-0.961-1.199-0.969c-1.484-0.019-2.969-0.035-4.376,0.519c-0.285,0.107-0.315-0.073-0.262-0.261   c0.208-0.758,0.454-1.503,0.653-2.265c0.054-0.211,0.2-0.257,0.362-0.315c0.776-0.265,1.592-0.415,2.414-0.407   c1.1,0.011,2.215-0.139,3.292,0.204c1.185,0.373,2.223,0.954,2.561,2.253c0.208,0.812,0,1.646-0.177,2.449   c-0.469,2.181-0.893,4.368-1.262,6.563c-0.061,0.351-0.191,0.428-0.499,0.424c-0.646-0.016-1.292-0.043-1.931,0.007   c-0.492,0.035-0.646-0.142-0.577-0.604C91.839,73.175,91.823,73.074,91.823,72.883z" fill="#808080" fill-rule="evenodd"/><path clip-rule="evenodd" d="M100.714,63.904c0.892-1.092,1.83-1.899,3.276-1.823   c-0.055,0.869-0.262,1.685-0.4,2.511c-0.038,0.234-0.115,0.308-0.361,0.319c-2.03,0.111-2.953,1.016-3.253,3.076   c-0.262,1.776-0.593,3.549-0.893,5.326c-0.054,0.288-0.161,0.477-0.538,0.457c-0.792-0.034-1.592-0.016-2.392-0.008   c-0.27,0.004-0.346-0.046-0.292-0.354c0.315-1.746,0.607-3.495,0.945-5.233c0.354-1.808,0.646-3.622,0.946-5.441   c0.062-0.404,0.177-0.596,0.631-0.573c0.746,0.042,1.491,0.011,2.237,0.011c0.216,0,0.4-0.046,0.293,0.319   C100.791,62.912,100.783,63.362,100.714,63.904z" fill="#808080" fill-rule="evenodd"/><path clip-rule="evenodd" d="M71.429,68.564c1.238,0,2.477,0,3.714,0   c0.023,0.719,0.216,1.399,0.516,2.049c-1.515,0-3.03,0-4.545,0C71.105,69.914,71.306,69.245,71.429,68.564z" fill="#E6E6E6" fill-rule="evenodd"/><g><g><path clip-rule="evenodd" d="M42.316,63.488c-0.757-0.865-1.746-1.342-2.892-1.407     c-0.973-0.054-1.949-0.004-2.922-0.015c-0.538-0.008-1.054,0.115-1.565,0.238c-0.223,0.054-0.577,0.081-0.661,0.327     c-0.281,0.831-0.508,1.685-0.762,2.55c0.304,0.019,0.488-0.135,0.696-0.192c0.934-0.258,1.896-0.285,2.845-0.373     c0.688-0.065,1.411-0.119,2.019,0.373c0.365,0.296,0.431,0.685,0.334,1.096c-0.104,0.419-0.473,0.25-0.735,0.254     c-0.996,0.02-1.984,0.073-2.98,0.185c-2.053,0.23-4.091,2.084-3.883,4.434c0.092,1.026,0.419,1.876,1.307,2.441     c1.05,0.665,2.172,0.704,3.349,0.385c0.719-0.192,1.369-0.512,2-0.942c0.096,0.347,0.046,0.611-0.039,0.923     c0.654,0,1.277,0,1.896,0c0.988,0,1.011,0,1.146-0.949c0.038-0.254,0.081-0.512,0.127-0.762c0.384-2.064,0.78-4.126,1.188-6.19     C42.955,65,42.913,64.173,42.316,63.488z M39.037,68.872c-0.158,0.515-0.227,1.042-0.5,1.538     c-0.388,0.695-2.042,1.219-2.865,0.911c-0.338-0.123-0.504-0.466-0.504-1.058c-0.1-0.692,0.438-1.046,0.9-1.361     c0.727-0.492,1.588-0.627,2.457-0.634C38.906,68.269,39.194,68.349,39.037,68.872z" fill="#808080" fill-rule="evenodd"/></g></g><path clip-rule="evenodd" d="M60.989,66.549c0.042-1.134,0.785-1.945,1.954-2.141   c0.769-0.127,1.611,0.573,1.73,1.361c0.12,0.78,0.12,0.78-0.673,0.78C63,66.549,61.996,66.549,60.989,66.549z" fill="#E6E6E6" fill-rule="evenodd"/><path clip-rule="evenodd" d="M110.673,67.219c-0.016,1.38-0.393,2.622-1.538,3.487   c-1.223,0.931-2.445,0.465-2.784-1c-0.384-1.646,0.046-3.057,1.139-4.283c0.423-0.481,0.992-0.692,1.653-0.658   c0.83,0.046,1.477,1.088,1.53,1.93C110.681,66.868,110.673,67.045,110.673,67.219z" fill="#FFFFFF" fill-rule="evenodd"/><path clip-rule="evenodd" d="M91.831,68.261c0.585,0.004,0.646,0.104,0.631,0.646   c-0.054,1.707-1.192,2.35-2.568,2.522c-0.423,0.05-0.877-0.022-1.115-0.465c-0.292-0.542-0.224-1.127,0.153-1.569   c0.547-0.642,1.27-0.927,2.077-1.034C91.301,68.322,91.585,68.291,91.831,68.261z" fill="#FFFFFF" fill-rule="evenodd"/></g></svg>